<?xml version="1.0" ?>
<svg xmlns="http://www.w3.org/2000/svg" version="1.1" width="128" height="128">
  <defs/>
  <g>
    <path d="M 140.74037170410156 48.037452697753906 C 94.8388671875 90.67129516601562 86.26506805419922 90.03618621826172 6.897531986236572 94.48795318603516 C -4.711050987243652 85.13324737548828 -12.185967445373535 83.44793701171875 -10.870585441589355 -9.00601863861084 C 0.3486325442790985 -8.871244430541992 2.1792500019073486 -11.862794876098633 96.09864044189453 -13.329559326171875 C 123.60116577148438 -17.716232299804688 138.6016082763672 -27.66810417175293 140.74037170410156 48.037452697753906" stroke-width="0.0" fill="rgb(193, 105, 0)" opacity="0.72366124" stroke="rgb(139, 182, 153)" stroke-opacity="0.5448832" stroke-linecap="round" stroke-linejoin="round"/>
    <path d="M 87.51957702636719 132.71653747558594 C 82.24053955078125 142.63546752929688 78.65737915039062 141.6411590576172 28.663681030273438 140.347412109375 C 12.770771026611328 137.16419982910156 8.90665054321289 132.4814910888672 9.762609481811523 81.82794189453125 C 14.659771919250488 75.88439178466797 15.594088554382324 73.03217315673828 89.01104736328125 63.3841552734375 C 95.84578704833984 65.24101257324219 95.19144439697266 66.4188232421875 87.51957702636719 132.71653747558594" stroke-width="0.0" fill="rgb(200, 0, 0)" opacity="1.0" stroke="rgb(108, 164, 111)" stroke-opacity="0.891773" stroke-linecap="round" stroke-linejoin="round"/>
    <path d="M 14.589343070983887 102.79136657714844 C 51.70400619506836 109.10446166992188 38.43789291381836 124.72305297851562 18.338279724121094 136.1092071533203 C -18.57818031311035 139.3270721435547 -10.734956741333008 126.9620361328125 -8.263291358947754 109.9120864868164 C -10.26080322265625 82.82713317871094 -24.53489875793457 59.12397003173828 -19.149370193481445 54.7142448425293 C 15.653543472290039 72.3670654296875 4.768747329711914 82.36656951904297 14.589343070983887 102.79136657714844" stroke-width="0.0" fill="rgb(217, 134, 64)" opacity="1.0" stroke="rgb(245, 97, 201)" stroke-opacity="0.5288949" stroke-linecap="round" stroke-linejoin="round"/>
    <path d="M 140.3242950439453 95.09845733642578 C 137.5570068359375 144.093994140625 132.60403442382812 140.3809051513672 53.783843994140625 135.90115356445312 C 49.40924072265625 138.59756469726562 37.85828399658203 145.087890625 61.72126388549805 94.0316390991211 C 78.5538558959961 71.96390533447266 50.18551254272461 67.16922760009766 66.5536117553711 53.000980377197266 C 149.6417236328125 46.79543685913086 143.5385284423828 64.15181732177734 140.3242950439453 95.09845733642578" stroke-width="0.0" fill="rgb(208, 117, 40)" opacity="0.99599993" stroke="rgb(144, 236, 18)" stroke-opacity="0.0871293" stroke-linecap="round" stroke-linejoin="round"/>
    <path d="M 53.632972717285156 46.455291748046875 C 50.771636962890625 63.09922790527344 61.6951904296875 65.79603576660156 30.675220489501953 65.58916473388672 C 27.10145378112793 67.13671112060547 29.361120223999023 67.63188934326172 30.603910446166992 38.18198013305664 C 35.40943908691406 1.6387134790420532 29.902875900268555 -3.5253798961639404 55.87644577026367 15.392501831054688 C 70.80042266845703 42.27934265136719 100.5363540649414 28.58219337463379 53.632972717285156 46.455291748046875" stroke-width="0.0" fill="rgb(0, 0, 0)" opacity="1.0" stroke="rgb(5, 212, 198)" stroke-opacity="0.87001216" stroke-linecap="round" stroke-linejoin="round"/>
    <path d="M 57.519798278808594 109.60799407958984 C 50.5535888671875 106.12191009521484 57.30341339111328 125.56970977783203 19.47757339477539 174.5513458251953 C 35.43365478515625 125.0702133178711 8.862520217895508 113.49649810791016 35.38841247558594 115.64078521728516 C 18.841257095336914 106.02166748046875 30.581832885742188 86.96033477783203 45.23090744018555 89.71515655517578 C 53.65016555786133 91.84423065185547 58.05781555175781 95.1446533203125 57.519798278808594 109.60799407958984" stroke-width="0.0" fill="rgb(16, 1, 6)" opacity="0.9947285" stroke="rgb(249, 203, 117)" stroke-opacity="0.7805292" stroke-linecap="round" stroke-linejoin="round"/>
    <path d="M 136.64366149902344 87.20623779296875 C 137.14443969726562 142.8756103515625 131.6636505126953 139.2081756591797 115.20783233642578 136.04638671875 C 77.68415069580078 143.53135681152344 53.80231475830078 165.6110382080078 42.56120681762695 116.50235748291016 C 77.52767181396484 114.82992553710938 106.83969116210938 116.02613830566406 126.55107116699219 115.69548034667969 C 114.17369842529297 97.27896118164062 116.44461059570312 100.64425659179688 136.64366149902344 87.20623779296875" stroke-width="0.0" fill="rgb(9, 1, 5)" opacity="0.99942124" stroke="rgb(30, 163, 36)" stroke-opacity="0.9446689" stroke-linecap="round" stroke-linejoin="round"/>
    <path d="M 92.21022033691406 52.34920120239258 C 55.778961181640625 48.48325729370117 63.839332580566406 77.84390258789062 58.61249542236328 73.1661376953125 C 36.9109001159668 66.17628479003906 32.42562484741211 69.57379913330078 37.76951599121094 53.0622444152832 C 34.98423385620117 50.366851806640625 27.74520492553711 38.59040451049805 59.164588928222656 37.4884033203125 C 75.31544494628906 55.349361419677734 70.01617431640625 8.195976257324219 92.21022033691406 52.34920120239258" stroke-width="0.0" fill="rgb(0, 183, 135)" opacity="0.99434245" stroke="rgb(133, 105, 67)" stroke-opacity="0.7742337" stroke-linecap="round" stroke-linejoin="round"/>
    <path d="M 53.74313735961914 113.03705596923828 C 45.854854583740234 121.40296936035156 34.498233795166016 118.40118408203125 38.962162017822266 127.06985473632812 C 28.419025421142578 114.08586120605469 22.537702560424805 95.90203094482422 25.326129913330078 107.52068328857422 C 28.246362686157227 102.40982055664062 29.385290145874023 91.71770477294922 41.01925277709961 89.90995788574219 C 51.0072021484375 88.52676391601562 63.21238327026367 98.44381713867188 53.74313735961914 113.03705596923828" stroke-width="0.0" fill="rgb(0, 0, 0)" opacity="0.9852457" stroke="rgb(116, 144, 4)" stroke-opacity="0.6176355" stroke-linecap="round" stroke-linejoin="round"/>
    <path d="M 60.75351333618164 73.6082763671875 C 76.26036834716797 75.3537826538086 20.330686569213867 74.31185913085938 18.09453010559082 75.17375946044922 C 28.76141357421875 73.71393585205078 22.811805725097656 79.57478332519531 26.180219650268555 56.863075256347656 C 35.32524108886719 43.78742980957031 19.715538024902344 48.093109130859375 50.596988677978516 32.08781433105469 C 55.58928298950195 48.94336700439453 47.76795196533203 50.1983757019043 60.75351333618164 73.6082763671875" stroke-width="0.0" fill="rgb(0, 0, 0)" opacity="0.9960059" stroke="rgb(156, 157, 240)" stroke-opacity="0.6818203" stroke-linecap="round" stroke-linejoin="round"/>
    <path d="M 15.000345230102539 103.85201263427734 C 14.764483451843262 125.06346130371094 19.268035888671875 110.61128234863281 7.8682026863098145 117.7252197265625 C 12.074838638305664 101.27642822265625 -10.51274299621582 102.05731964111328 0.4163344204425812 120.70523071289062 C -9.189753532409668 65.73223876953125 -1.0528305768966675 93.39319610595703 7.2206902503967285 80.85040283203125 C -1.974014163017273 96.83248138427734 9.808382987976074 100.06971740722656 15.000345230102539 103.85201263427734" stroke-width="0.0" fill="rgb(0, 0, 3)" opacity="0.99844277" stroke="rgb(91, 111, 177)" stroke-opacity="0.06022547" stroke-linecap="round" stroke-linejoin="round"/>
    <path d="M 164.3884735107422 62.649600982666016 C 152.86448669433594 87.77704620361328 153.2415771484375 57.501808166503906 92.87889862060547 52.685909271240234 C 37.82830047607422 18.357311248779297 92.60576629638672 31.91594886779785 106.98217010498047 26.46860694885254 C 126.4251708984375 10.820968627929688 49.91543197631836 37.446346282958984 109.4937515258789 24.25243377685547 C 102.74141693115234 -0.639460027217865 145.9811248779297 17.96225929260254 164.3884735107422 62.649600982666016" stroke-width="0.0" fill="rgb(0, 169, 123)" opacity="1.0" stroke="rgb(170, 171, 53)" stroke-opacity="0.12892629" stroke-linecap="round" stroke-linejoin="round"/>
    <path d="M 153.859375 65.77735137939453 C 72.7731704711914 43.07719802856445 65.89893341064453 51.514610290527344 62.76163864135742 66.61679077148438 C 63.5027961730957 124.92796325683594 29.6086368560791 104.27876281738281 118.34307098388672 109.59117126464844 C 152.0472412109375 43.118751525878906 117.33580780029297 92.45999908447266 96.16273498535156 63.416748046875 C 72.02742767333984 53.00621032714844 95.84720611572266 87.58230590820312 153.859375 65.77735137939453" stroke-width="0.0" fill="rgb(208, 0, 0)" opacity="0.99988663" stroke="rgb(80, 92, 145)" stroke-opacity="0.43860152" stroke-linecap="round" stroke-linejoin="round"/>
    <path d="M 60.42847442626953 15.60653305053711 C 59.1995735168457 -13.680864334106445 30.331165313720703 22.797204971313477 30.177589416503906 48.76953125 C -34.57838439941406 13.059545516967773 33.71309280395508 38.33821105957031 14.77729606628418 22.363588333129883 C -26.76764678955078 17.08812141418457 -4.120170593261719 11.145724296569824 43.89569854736328 -8.813498497009277 C 100.92074584960938 27.779918670654297 63.4231071472168 -8.541132926940918 60.42847442626953 15.60653305053711" stroke-width="0.0" fill="rgb(0, 157, 112)" opacity="0.9965585" stroke="rgb(252, 26, 53)" stroke-opacity="0.16130951" stroke-linecap="round" stroke-linejoin="round"/>
    <path d="M 109.91336059570312 6.401904106140137 C 103.17556762695312 10.33427906036377 82.16571044921875 35.83218002319336 90.81646728515625 22.24433708190918 C 84.8937759399414 3.573160409927368 74.19193267822266 9.206225395202637 36.4009895324707 2.085355281829834 C 50.90903091430664 -28.714874267578125 73.714111328125 -11.40063762664795 87.90544128417969 -9.704682350158691 C 99.45915985107422 -5.317138671875 115.827392578125 -7.428398609161377 109.91336059570312 6.401904106140137" stroke-width="0.0" fill="rgb(0, 129, 103)" opacity="1.0" stroke="rgb(166, 64, 118)" stroke-opacity="0.2444256" stroke-linecap="round" stroke-linejoin="round"/>
    <path d="M 120.25928497314453 62.158870697021484 C 129.857177734375 84.30341339111328 122.84588623046875 71.64154815673828 121.89370727539062 74.81182861328125 C 67.65328216552734 74.94577026367188 58.743568420410156 75.42920684814453 70.74026489257812 73.87812805175781 C 78.65857696533203 58.24114227294922 79.05523681640625 61.947853088378906 71.6177978515625 58.28066635131836 C 97.71209716796875 53.22268295288086 127.86866760253906 66.4282455444336 120.25928497314453 62.158870697021484" stroke-width="0.0" fill="rgb(53, 0, 7)" opacity="0.71529377" stroke="rgb(40, 28, 167)" stroke-opacity="0.13818295" stroke-linecap="round" stroke-linejoin="round"/>
    <path d="M 1.7764537334442139 63.564178466796875 C 16.724943161010742 95.9845962524414 20.906709671020508 138.41336059570312 6.679497718811035 77.05013275146484 C -1.4858763217926025 64.0101547241211 -8.829487800598145 97.35870361328125 -14.402104377746582 24.31063461303711 C 28.473512649536133 29.15009117126465 28.285127639770508 45.7524299621582 -10.334451675415039 51.851619720458984 C 16.324888229370117 57.40483093261719 26.648591995239258 52.47067642211914 1.7764537334442139 63.564178466796875" stroke-width="0.0" fill="rgb(0, 156, 114)" opacity="0.9985707" stroke="rgb(50, 94, 209)" stroke-opacity="0.09710128" stroke-linecap="round" stroke-linejoin="round"/>
    <path d="M 119.36215209960938 13.288213729858398 C 108.27372741699219 8.756905555725098 139.5172576904297 18.989805221557617 88.80313873291016 33.87814712524414 C 96.46117401123047 -1.0334861278533936 67.8276138305664 25.764623641967773 73.57557678222656 5.127411842346191 C 83.18728637695312 -2.6742348670959473 96.73219299316406 4.694431304931641 105.5672836303711 -5.967463493347168 C 116.14510345458984 -14.932511329650879 119.80453491210938 -15.737318992614746 119.36215209960938 13.288213729858398" stroke-width="0.0" fill="rgb(0, 168, 117)" opacity="0.98700655" stroke="rgb(213, 24, 248)" stroke-opacity="0.4686512" stroke-linecap="round" stroke-linejoin="round"/>
    <path d="M 27.621601104736328 55.90087890625 C 20.9204044342041 65.83230590820312 25.579320907592773 76.99830627441406 24.04392433166504 74.20640563964844 C 9.351993560791016 77.7184066772461 -14.906527519226074 77.69381713867188 -1.266287922859192 39.135101318359375 C 15.561582565307617 55.677852630615234 -18.77040672302246 52.352848052978516 28.432392120361328 53.27004623413086 C 28.503490447998047 55.59587478637695 27.45395851135254 52.78494644165039 27.621601104736328 55.90087890625" stroke-width="0.0" fill="rgb(0, 138, 105)" opacity="0.9780802" stroke="rgb(249, 154, 188)" stroke-opacity="0.039187793" stroke-linecap="round" stroke-linejoin="round"/>
    <path d="M 25.044631958007812 74.45513916015625 C 23.91101837158203 76.69791412353516 7.898105144500732 69.24021911621094 12.821002960205078 98.95225524902344 C 44.742618560791016 113.5542221069336 2.2653677463531494 111.64885711669922 3.679893732070923 87.6627426147461 C 14.598564147949219 67.88015747070312 -2.1508231163024902 87.02796936035156 12.60424518585205 54.68906021118164 C 31.59109878540039 51.404632568359375 24.241748809814453 53.334964752197266 25.044631958007812 74.45513916015625" stroke-width="0.0" fill="rgb(0, 169, 121)" opacity="0.9875192" stroke="rgb(72, 30, 75)" stroke-opacity="0.11872772" stroke-linecap="round" stroke-linejoin="round"/>
    <path d="M 119.42762756347656 73.5045394897461 C 124.3943862915039 73.75291442871094 106.12003326416016 73.863525390625 94.00873565673828 73.95336151123047 C 63.4897575378418 73.99260711669922 61.80558776855469 74.11994934082031 64.80302429199219 75.10287475585938 C 71.82093048095703 56.436248779296875 68.62520599365234 59.5146598815918 81.06520080566406 57.2101936340332 C 95.9227523803711 58.23164749145508 114.59903717041016 57.7974739074707 119.42762756347656 73.5045394897461" stroke-width="0.0" fill="rgb(0, 158, 106)" opacity="0.97801256" stroke="rgb(81, 105, 16)" stroke-opacity="0.6924721" stroke-linecap="round" stroke-linejoin="round"/>
    <path d="M 144.57351684570312 25.869821548461914 C 95.83514404296875 14.00167465209961 88.60940551757812 31.72879409790039 137.81668090820312 23.784290313720703 C 119.2118911743164 40.45277404785156 98.25263214111328 31.39846420288086 103.66497039794922 30.7084903717041 C 116.8656997680664 41.342750549316406 133.5288543701172 18.73221778869629 136.29396057128906 42.614322662353516 C 92.26351928710938 41.261322021484375 70.41552734375 22.446470260620117 144.57351684570312 25.869821548461914" stroke-width="0.0" fill="rgb(2, 60, 59)" opacity="0.31621283" stroke="rgb(144, 67, 133)" stroke-opacity="0.09394051" stroke-linecap="round" stroke-linejoin="round"/>
    <path d="M 114.80261993408203 32.149837493896484 C 113.88334655761719 35.00276184082031 118.59119415283203 33.890586853027344 89.32730865478516 34.11380386352539 C 83.98746490478516 32.6938362121582 96.47972869873047 27.340007781982422 99.62260437011719 33.272064208984375 C 99.2627182006836 24.85974884033203 103.8052749633789 24.680030822753906 106.687744140625 23.726667404174805 C 105.91159057617188 23.553190231323242 114.92072296142578 22.80653190612793 114.80261993408203 32.149837493896484" stroke-width="0.0" fill="rgb(230, 123, 51)" opacity="0.8356986" stroke="rgb(146, 236, 81)" stroke-opacity="0.6674104" stroke-linecap="round" stroke-linejoin="round"/>
    <path d="M 134.28033447265625 19.77704429626465 C 134.96434020996094 20.122631072998047 135.56375122070312 20.18201446533203 105.93168640136719 20.074003219604492 C 101.61665344238281 19.803014755249023 95.32405853271484 21.248779296875 94.3335952758789 13.394990921020508 C 95.3744125366211 6.032846450805664 101.72647857666016 6.577895164489746 99.00806427001953 6.509142875671387 C 112.20043182373047 2.9332685470581055 112.33136749267578 12.068577766418457 134.28033447265625 19.77704429626465" stroke-width="0.0" fill="rgb(209, 138, 64)" opacity="0.9700539" stroke="rgb(33, 182, 73)" stroke-opacity="0.18319136" stroke-linecap="round" stroke-linejoin="round"/>
    <path d="M 138.2421112060547 15.679150581359863 C 138.35589599609375 25.903398513793945 136.46966552734375 22.917566299438477 116.20500946044922 21.420896530151367 C 85.76820373535156 21.992095947265625 102.23342895507812 19.523597717285156 117.51287078857422 19.868263244628906 C 103.31954193115234 6.161755084991455 105.23104858398438 4.493943214416504 133.8525390625 -7.324541091918945 C 136.5545654296875 -10.69602108001709 138.0564422607422 -9.376585006713867 138.2421112060547 15.679150581359863" stroke-width="0.0" fill="rgb(10, 14, 6)" opacity="0.30271265" stroke="rgb(149, 5, 211)" stroke-opacity="0.004695476" stroke-linecap="round" stroke-linejoin="round"/>
    <path d="M 26.008447647094727 1.8999364376068115 C 29.01597023010254 15.06389045715332 12.856342315673828 14.983012199401855 12.464502334594727 8.18791389465332 C 5.337502956390381 18.213977813720703 2.2464964389801025 16.082744598388672 -0.9817318916320801 7.933537483215332 C -0.09909642487764359 -5.7131876945495605 1.2876172065734863 -7.410668849945068 26.286632537841797 -8.674026489257812 C 30.932920455932617 -10.721261024475098 28.275617599487305 -15.455145835876465 26.008447647094727 1.8999364376068115" stroke-width="0.0" fill="rgb(202, 124, 51)" opacity="0.9999581" stroke="rgb(172, 68, 187)" stroke-opacity="0.96218854" stroke-linecap="round" stroke-linejoin="round"/>
    <path d="M 18.028671264648438 3.8425350189208984 C 8.906134605407715 13.349247932434082 7.967219829559326 14.75882339477539 5.131988525390625 20.623703002929688 C -7.734961032867432 17.20815658569336 -9.051453590393066 14.840557098388672 -8.759700775146484 12.12840461730957 C -7.188656330108643 -4.374962329864502 -5.387384414672852 -6.229353427886963 12.415922164916992 -9.693931579589844 C 15.40465259552002 -9.858963966369629 17.187646865844727 -8.257957458496094 18.028671264648438 3.8425350189208984" stroke-width="0.0" fill="rgb(207, 123, 64)" opacity="0.9237291" stroke="rgb(63, 146, 150)" stroke-opacity="0.5722519" stroke-linecap="round" stroke-linejoin="round"/>
    <path d="M 11.043094635009766 20.31475830078125 C 5.707980155944824 22.42525863647461 13.588726043701172 30.226808547973633 -2.306164503097534 37.357566833496094 C -13.124310493469238 39.71684646606445 -9.430978775024414 29.495309829711914 -7.791621685028076 17.09601593017578 C -6.432193279266357 3.5811212062835693 -4.137651443481445 2.415518283843994 -0.8581139445304871 13.790725708007812 C 7.5084028244018555 12.288885116577148 20.447751998901367 1.117385983467102 11.043094635009766 20.31475830078125" stroke-width="0.0" fill="rgb(213, 130, 63)" opacity="0.982775" stroke="rgb(56, 242, 114)" stroke-opacity="0.84640867" stroke-linecap="round" stroke-linejoin="round"/>
    <path d="M 53.60737609863281 111.95108795166016 C 58.72633743286133 113.59845733642578 52.4019660949707 112.73845672607422 51.46755599975586 114.99012756347656 C 96.80070495605469 117.07293701171875 74.14057159423828 114.05552673339844 62.51662826538086 113.80997467041016 C 57.96558380126953 115.00086975097656 60.87054443359375 111.69587707519531 64.09630584716797 115.25122833251953 C 54.26490783691406 105.38858032226562 57.719032287597656 111.62194061279297 53.60737609863281 111.95108795166016" stroke-width="0.0" fill="rgb(249, 168, 72)" opacity="0.60077125" stroke="rgb(178, 75, 207)" stroke-opacity="0.39650574" stroke-linecap="round" stroke-linejoin="round"/>
    <path d="M 48.142860412597656 7.624245643615723 C 52.65516662597656 18.46364402770996 60.98546600341797 2.8130290508270264 59.986106872558594 10.492262840270996 C 56.2779655456543 10.494147300720215 49.036888122558594 18.421735763549805 50.70906448364258 15.618902206420898 C 49.44218444824219 13.77085018157959 48.001251220703125 16.56304931640625 49.770957946777344 12.188023567199707 C 43.10647201538086 1.0708198547363281 45.7159309387207 7.354255676269531 48.142860412597656 7.624245643615723" stroke-width="0.0" fill="rgb(233, 242, 184)" opacity="0.9213372" stroke="rgb(224, 148, 224)" stroke-opacity="0.6925316" stroke-linecap="round" stroke-linejoin="round"/>
    <path d="M 88.17082214355469 69.07107543945312 C 84.75100708007812 67.57301330566406 83.66683959960938 67.54298400878906 86.7455062866211 68.62103271484375 C 108.76627349853516 75.20870208740234 134.4853515625 73.73811340332031 64.25127410888672 73.88390350341797 C 70.8960189819336 74.51307678222656 65.24058532714844 57.1963996887207 77.90591430664062 58.30327606201172 C 101.67057800292969 52.77473449707031 118.6651840209961 76.16239929199219 88.17082214355469 69.07107543945312" stroke-width="0.0" fill="rgb(0, 191, 144)" opacity="0.7129237" stroke="rgb(184, 127, 243)" stroke-opacity="0.6439902" stroke-linecap="round" stroke-linejoin="round"/>
    <path d="M 60.76817321777344 40.28483963012695 C 59.6978874206543 46.876914978027344 72.87481689453125 35.6772346496582 67.90496826171875 41.791664123535156 C 70.34622955322266 46.291656494140625 53.08665084838867 39.52687072753906 51.855220794677734 35.30076217651367 C 64.446044921875 37.82882308959961 65.83964538574219 39.3902702331543 58.74028778076172 40.87672424316406 C 62.0682373046875 42.13271713256836 64.58445739746094 40.631675720214844 60.76817321777344 40.28483963012695" stroke-width="0.0" fill="rgb(0, 167, 110)" opacity="0.7537796" stroke="rgb(108, 154, 4)" stroke-opacity="0.30157483" stroke-linecap="round" stroke-linejoin="round"/>
    <path d="M 61.79705810546875 37.632591247558594 C 67.1999282836914 47.83052444458008 60.4227409362793 38.440216064453125 52.86182403564453 38.03379440307617 C 56.27861022949219 39.10033416748047 54.098854064941406 36.455909729003906 52.180198669433594 39.42989730834961 C 51.715213775634766 30.733013153076172 53.923709869384766 37.392669677734375 58.34804153442383 39.859153747558594 C 51.18715286254883 34.180110931396484 55.86919403076172 36.88145065307617 61.79705810546875 37.632591247558594" stroke-width="0.0" fill="rgb(4, 134, 75)" opacity="0.81166023" stroke="rgb(168, 73, 157)" stroke-opacity="0.4287687" stroke-linecap="round" stroke-linejoin="round"/>
    <path d="M 121.86250305175781 4.779613018035889 C 115.10215759277344 35.622100830078125 93.44139099121094 6.577754497528076 99.52938842773438 6.595352649688721 C 106.67755889892578 4.21384859085083 112.94686889648438 7.350466728210449 111.750244140625 9.566962242126465 C 110.68461608886719 0.3734171688556671 115.83905792236328 1.0503411293029785 120.0099105834961 -3.6128997802734375 C 123.6595230102539 -3.6244258880615234 134.71640014648438 0.7882787585258484 121.86250305175781 4.779613018035889" stroke-width="0.0" fill="rgb(199, 128, 61)" opacity="1.0" stroke="rgb(34, 76, 145)" stroke-opacity="0.59087276" stroke-linecap="round" stroke-linejoin="round"/>
    <path d="M 59.36896514892578 5.8014421463012695 C 52.706336975097656 1.6125565767288208 36.854820251464844 10.728397369384766 70.2476806640625 5.924031734466553 C 81.65922546386719 18.571205139160156 72.5978012084961 -2.4131550788879395 65.85613250732422 13.920827865600586 C 67.44075775146484 1.7612298727035522 84.17011260986328 13.455028533935547 62.318763732910156 11.300570487976074 C 59.588809967041016 16.93622398376465 60.482486724853516 14.457096099853516 59.36896514892578 5.8014421463012695" stroke-width="0.0" fill="rgb(37, 33, 0)" opacity="0.24677223" stroke="rgb(146, 166, 166)" stroke-opacity="0.43141845" stroke-linecap="round" stroke-linejoin="round"/>
    <path d="M 12.048789024353027 44.834678649902344 C 11.145809173583984 40.40023422241211 15.338197708129883 41.6971549987793 26.311965942382812 11.306098937988281 C 67.84027862548828 12.461599349975586 20.125656127929688 20.901103973388672 29.648054122924805 41.87799072265625 C 21.25819206237793 45.02157974243164 30.318798065185547 39.515228271484375 14.535622596740723 42.693763732910156 C 16.19907569885254 43.995113372802734 11.495287895202637 39.7716178894043 12.048789024353027 44.834678649902344" stroke-width="0.0" fill="rgb(0, 192, 142)" opacity="0.7374297" stroke="rgb(228, 93, 111)" stroke-opacity="0.89192337" stroke-linecap="round" stroke-linejoin="round"/>
    <path d="M 44.12311553955078 15.434814453125 C 39.9891242980957 19.66367530822754 44.92873764038086 12.11528205871582 41.899139404296875 20.215248107910156 C 44.904632568359375 12.266133308410645 41.328861236572266 17.956018447875977 40.424625396728516 15.29124927520752 C 38.45944595336914 8.786388397216797 44.7033805847168 17.80653953552246 46.94696044921875 8.466693878173828 C 44.254669189453125 2.565239667892456 43.403419494628906 18.18187713623047 44.12311553955078 15.434814453125" stroke-width="0.0" fill="rgb(139, 12, 4)" opacity="0.98613983" stroke="rgb(205, 179, 25)" stroke-opacity="0.9194826" stroke-linecap="round" stroke-linejoin="round"/>
    <path d="M 117.79769134521484 64.58635711669922 C 127.50310516357422 62.64638137817383 113.77465057373047 62.28641128540039 112.45748901367188 62.18727493286133 C 121.83197021484375 81.74562072753906 133.68113708496094 73.13729095458984 125.85108184814453 73.79487609863281 C 126.5262680053711 80.52073669433594 119.83314514160156 61.1018180847168 121.1180191040039 63.60606384277344 C 116.41657257080078 65.05831909179688 118.2375717163086 66.82994079589844 117.79769134521484 64.58635711669922" stroke-width="0.0" fill="rgb(0, 2, 0)" opacity="0.9020868" stroke="rgb(182, 254, 38)" stroke-opacity="0.86812603" stroke-linecap="round" stroke-linejoin="round"/>
    <path d="M 122.44137573242188 73.200439453125 C 116.56118774414062 56.358642578125 122.4608383178711 70.09262084960938 114.21247100830078 65.56707763671875 C 118.19007873535156 76.63121032714844 118.07073974609375 61.0787353515625 114.61771392822266 66.79727172851562 C 101.71244812011719 61.50753402709961 95.7447738647461 56.006011962890625 120.02005767822266 64.38282012939453 C 114.87007141113281 68.22895050048828 116.25817108154297 75.5223159790039 122.44137573242188 73.200439453125" stroke-width="0.0" fill="rgb(0, 139, 69)" opacity="0.948564" stroke="rgb(41, 156, 31)" stroke-opacity="0.8480082" stroke-linecap="round" stroke-linejoin="round"/>
    <path d="M 57.87559127807617 15.782516479492188 C 55.605995178222656 16.8393497467041 58.50238800048828 19.32406234741211 53.339080810546875 15.02660846710205 C 58.09833526611328 12.78213119506836 51.78475570678711 18.06656265258789 58.4627799987793 17.797096252441406 C 54.184349060058594 16.15006446838379 51.9876594543457 12.780536651611328 56.5355224609375 8.694735527038574 C 60.149696350097656 13.6459321975708 55.41480255126953 13.556903839111328 57.87559127807617 15.782516479492188" stroke-width="0.0" fill="rgb(0, 9, 2)" opacity="0.9972767" stroke="rgb(205, 145, 103)" stroke-opacity="0.069166996" stroke-linecap="round" stroke-linejoin="round"/>
    <path d="M 20.40669059753418 51.787498474121094 C 19.838359832763672 41.7138671875 20.35883903503418 46.306243896484375 28.243253707885742 48.00094223022461 C 29.9124813079834 59.31041717529297 7.125885009765625 48.426815032958984 18.491910934448242 42.02143096923828 C 31.13907241821289 55.35877990722656 29.268672943115234 40.223724365234375 18.44451141357422 41.64053726196289 C 11.596846580505371 46.81150817871094 17.380830764770508 50.67021942138672 20.40669059753418 51.787498474121094" stroke-width="0.0" fill="rgb(232, 168, 75)" opacity="0.91785496" stroke="rgb(177, 115, 184)" stroke-opacity="0.8663823" stroke-linecap="round" stroke-linejoin="round"/>
    <path d="M 64.90029907226562 70.77469635009766 C 65.7730941772461 75.56981658935547 64.85245513916016 69.6298599243164 63.962005615234375 74.78888702392578 C 79.78047943115234 75.66996002197266 76.16004943847656 72.74286651611328 75.2178726196289 72.82769012451172 C 77.60968780517578 72.74662780761719 74.85746002197266 74.54864501953125 75.49510955810547 73.98330688476562 C 61.96092224121094 73.6162109375 66.36990356445312 74.76385498046875 64.90029907226562 70.77469635009766" stroke-width="0.0" fill="rgb(52, 31, 0)" opacity="0.7741866" stroke="rgb(248, 218, 2)" stroke-opacity="0.35997805" stroke-linecap="round" stroke-linejoin="round"/>
    <path d="M 25.02288818359375 122.51057434082031 C 42.71966552734375 112.67277526855469 16.585779190063477 117.6811752319336 8.29959487915039 113.2853775024414 C 18.078474044799805 116.63771057128906 16.29132652282715 114.35223388671875 8.05564022064209 114.18756103515625 C 18.40462303161621 114.68248748779297 21.289499282836914 117.79847717285156 22.683969497680664 121.2249755859375 C 24.26519203186035 118.22714233398438 21.626691818237305 116.94391632080078 25.02288818359375 122.51057434082031" stroke-width="0.0" fill="rgb(14, 1, 9)" opacity="0.9685402" stroke="rgb(186, 43, 132)" stroke-opacity="0.05433799" stroke-linecap="round" stroke-linejoin="round"/>
    <path d="M 11.156455993652344 49.62957000732422 C 12.162320137023926 43.10273742675781 -5.31962776184082 53.54069137573242 6.891709327697754 46.409912109375 C 4.58936882019043 47.237457275390625 6.005371570587158 47.57530975341797 9.998454093933105 43.6661262512207 C 5.354650020599365 47.8416633605957 5.9800825119018555 47.22015380859375 -1.1140583753585815 47.66312026977539 C 17.451311111450195 48.00435256958008 15.551142692565918 37.74132537841797 11.156455993652344 49.62957000732422" stroke-width="0.0" fill="rgb(11, 139, 80)" opacity="0.9510409" stroke="rgb(50, 4, 202)" stroke-opacity="0.22392468" stroke-linecap="round" stroke-linejoin="round"/>
    <path d="M 53.07452392578125 37.37755584716797 C 53.955204010009766 38.722442626953125 51.33163833618164 49.376243591308594 55.20233154296875 57.429847717285156 C 50.16581344604492 45.02153778076172 52.34469985961914 36.0201530456543 52.856300354003906 38.215721130371094 C 54.38470458984375 43.79362106323242 52.586002349853516 38.40634536743164 53.06834411621094 34.97819900512695 C 53.380558013916016 37.23076629638672 51.580623626708984 33.778995513916016 53.07452392578125 37.37755584716797" stroke-width="0.0" fill="rgb(2, 130, 109)" opacity="0.59589523" stroke="rgb(88, 236, 179)" stroke-opacity="0.03183893" stroke-linecap="round" stroke-linejoin="round"/>
    <path d="M 54.857669830322266 109.63788604736328 C 132.31671142578125 105.52203369140625 43.31598663330078 116.04291534423828 130.04286193847656 114.7953109741211 C 66.3875961303711 117.40645599365234 41.78909683227539 115.993896484375 55.57243347167969 113.1460952758789 C 53.72550582885742 114.78501892089844 58.081478118896484 114.42311096191406 62.805267333984375 114.65409088134766 C 51.18661880493164 114.91669464111328 54.485137939453125 111.29563903808594 54.857669830322266 109.63788604736328" stroke-width="0.0" fill="rgb(240, 187, 102)" opacity="0.42861158" stroke="rgb(41, 158, 147)" stroke-opacity="0.23789282" stroke-linecap="round" stroke-linejoin="round"/>
    <path d="M 58.311798095703125 72.95399475097656 C 63.642574310302734 63.864158630371094 64.16764831542969 61.542396545410156 61.00084686279297 64.88258361816406 C 66.5770492553711 60.36670684814453 70.28496551513672 46.11619567871094 60.79606628417969 73.83619689941406 C 68.21215057373047 74.34148406982422 60.70530700683594 81.31224822998047 72.59272766113281 56.742950439453125 C 62.20531463623047 71.3325424194336 66.81602478027344 77.482666015625 58.311798095703125 72.95399475097656" stroke-width="0.0" fill="rgb(28, 0, 0)" opacity="0.59355575" stroke="rgb(238, 156, 136)" stroke-opacity="0.58991" stroke-linecap="round" stroke-linejoin="round"/>
    <path d="M 99.0384521484375 68.38563537597656 C 97.69637298583984 66.47023010253906 95.02255249023438 67.59520721435547 92.82608032226562 68.4837875366211 C 108.38839721679688 68.34031677246094 106.76200866699219 71.66387939453125 85.8233413696289 68.43934631347656 C 89.40888977050781 45.979225158691406 97.371337890625 71.52503204345703 117.93688201904297 74.04917907714844 C 36.87553024291992 74.18042755126953 66.75518035888672 74.36248779296875 99.0384521484375 68.38563537597656" stroke-width="0.0" fill="rgb(0, 200, 153)" opacity="0.5330054" stroke="rgb(186, 79, 101)" stroke-opacity="0.20984375" stroke-linecap="round" stroke-linejoin="round"/>
    <path d="M 141.5709991455078 9.259676933288574 C 171.52996826171875 15.570558547973633 117.10041046142578 25.113895416259766 102.8921890258789 16.7652530670166 C 112.87028503417969 22.807254791259766 109.91258239746094 17.450315475463867 121.2347183227539 8.020024299621582 C 107.68858337402344 1.6459803581237793 121.73582458496094 8.616998672485352 118.83607482910156 -6.582342624664307 C 125.89126586914062 5.3884382247924805 131.2711944580078 -4.61883544921875 141.5709991455078 9.259676933288574" stroke-width="0.0" fill="rgb(208, 113, 57)" opacity="0.94656265" stroke="rgb(47, 240, 188)" stroke-opacity="0.49045882" stroke-linecap="round" stroke-linejoin="round"/>
    <path d="M 116.6673355102539 73.26332092285156 C 94.79399871826172 68.9268569946289 91.79776000976562 66.86803436279297 103.10547637939453 68.86062622070312 C 105.86170196533203 67.52503967285156 103.69286346435547 70.1537857055664 99.08899688720703 70.41453552246094 C 99.04930114746094 62.867103576660156 93.94723510742188 60.70240020751953 87.2231674194336 59.434696197509766 C 92.68950653076172 60.001129150390625 94.47767639160156 51.57143783569336 116.6673355102539 73.26332092285156" stroke-width="0.0" fill="rgb(0, 176, 114)" opacity="0.76205313" stroke="rgb(57, 64, 14)" stroke-opacity="0.43441662" stroke-linecap="round" stroke-linejoin="round"/>
    <path d="M 100.93486785888672 66.58721160888672 C 86.42033386230469 71.93853759765625 86.18741607666016 75.01265716552734 107.9598159790039 68.95233154296875 C 101.39421844482422 68.95805358886719 99.41486358642578 64.53755950927734 103.5551986694336 65.78114318847656 C 71.4539566040039 79.09993743896484 64.62890625 62.4896354675293 88.17300415039062 59.092525482177734 C 101.96662902832031 57.75226974487305 109.21182250976562 77.53893280029297 100.93486785888672 66.58721160888672" stroke-width="0.0" fill="rgb(0, 197, 141)" opacity="0.7208093" stroke="rgb(79, 177, 96)" stroke-opacity="0.17960368" stroke-linecap="round" stroke-linejoin="round"/>
    <path d="M 59.97501754760742 39.04601287841797 C 54.673187255859375 38.90023422241211 53.68475341796875 43.36402130126953 57.239070892333984 37.81825637817383 C 55.852779388427734 39.42816925048828 47.98188400268555 38.707340240478516 56.285274505615234 40.76457977294922 C 57.65126037597656 42.750450134277344 56.20518112182617 39.94633102416992 52.450008392333984 35.89052200317383 C 51.89022445678711 35.3510856628418 50.3199348449707 43.22610092163086 59.97501754760742 39.04601287841797" stroke-width="0.0" fill="rgb(0, 162, 112)" opacity="0.60731864" stroke="rgb(6, 17, 173)" stroke-opacity="0.45369685" stroke-linecap="round" stroke-linejoin="round"/>
    <path d="M 7.251343727111816 67.10063934326172 C 3.445814609527588 94.80577087402344 15.857479095458984 106.45240020751953 9.581995010375977 96.01876831054688 C 26.86724090576172 93.94843292236328 17.484413146972656 95.32850646972656 8.472847938537598 95.9493637084961 C 22.825481414794922 115.89567565917969 15.912162780761719 102.92224884033203 16.886152267456055 77.83551025390625 C -2.1043941974639893 72.03833770751953 12.683623313903809 118.18392181396484 7.251343727111816 67.10063934326172" stroke-width="0.0" fill="rgb(0, 8, 17)" opacity="0.24240938" stroke="rgb(136, 228, 252)" stroke-opacity="0.21689698" stroke-linecap="round" stroke-linejoin="round"/>
    <path d="M 92.3124008178711 77.26460266113281 C 91.43946075439453 77.78520965576172 80.99017333984375 76.40974426269531 85.02827453613281 76.91631317138672 C 93.06856536865234 77.81078338623047 93.04708099365234 76.92123413085938 87.46764373779297 78.13359832763672 C 89.24247741699219 77.72796630859375 91.63514709472656 77.40369415283203 78.6715087890625 79.62236785888672 C 77.79581451416016 79.87777709960938 80.2640609741211 79.30548858642578 92.3124008178711 77.26460266113281" stroke-width="0.0" fill="rgb(196, 13, 10)" opacity="0.865246" stroke="rgb(169, 67, 5)" stroke-opacity="0.7583786" stroke-linecap="round" stroke-linejoin="round"/>
    <path d="M 133.19110107421875 91.97543334960938 C 123.8183364868164 93.3169937133789 128.6819610595703 97.67230224609375 122.9810791015625 92.11495208740234 C 55.21906661987305 114.67182159423828 16.601346969604492 107.22164154052734 122.13957977294922 109.4407958984375 C 123.11149597167969 87.40060424804688 135.13821411132812 99.63079833984375 112.94954681396484 83.14959716796875 C 136.68128967285156 66.21452331542969 115.79571533203125 92.31128692626953 133.19110107421875 91.97543334960938" stroke-width="0.0" fill="rgb(144, 0, 0)" opacity="0.8921457" stroke="rgb(81, 97, 150)" stroke-opacity="0.8310484" stroke-linecap="round" stroke-linejoin="round"/>
    <path d="M 59.45608901977539 62.985233306884766 C 59.75718307495117 59.46771240234375 59.84976577758789 61.732688903808594 59.599918365478516 62.290374755859375 C 56.944705963134766 83.91991424560547 62.87416458129883 69.61760711669922 61.17709732055664 63.409942626953125 C 60.572078704833984 61.13892364501953 60.58303451538086 60.51678466796875 61.456153869628906 64.36366271972656 C 54.99238586425781 74.19053649902344 59.20648193359375 70.4992904663086 59.45608901977539 62.985233306884766" stroke-width="0.0" fill="rgb(0, 126, 69)" opacity="0.6035296" stroke="rgb(160, 222, 69)" stroke-opacity="0.7980468" stroke-linecap="round" stroke-linejoin="round"/>
    <path d="M 136.7059326171875 -0.12026739120483398 C 132.48318481445312 11.923483848571777 132.9693145751953 6.378498554229736 115.53478240966797 6.522118091583252 C 114.92704010009766 -0.32907190918922424 106.91918182373047 9.763936042785645 117.17583465576172 -2.9318838119506836 C 111.82925415039062 -5.164174556732178 120.41896057128906 -3.9657399654388428 125.15034484863281 -3.1651296615600586 C 130.1585693359375 -11.338445663452148 133.92044067382812 -12.811948776245117 136.7059326171875 -0.12026739120483398" stroke-width="0.0" fill="rgb(222, 181, 82)" opacity="0.42071602" stroke="rgb(47, 242, 175)" stroke-opacity="0.21550767" stroke-linecap="round" stroke-linejoin="round"/>
    <path d="M 50.51423263549805 5.81000280380249 C 44.2549934387207 18.337263107299805 50.66448211669922 -8.532522201538086 21.40737533569336 12.426419258117676 C 30.488828659057617 6.9604926109313965 24.462013244628906 -0.9772854447364807 19.080617904663086 -3.621706485748291 C 17.449039459228516 -8.052007675170898 24.949983596801758 -3.3608551025390625 45.1401481628418 -31.881853103637695 C -1.6626930236816406 6.116012096405029 65.63667297363281 1.461876392364502 50.51423263549805 5.81000280380249" stroke-width="0.0" fill="rgb(0, 133, 105)" opacity="0.8584923" stroke="rgb(241, 186, 64)" stroke-opacity="0.21331197" stroke-linecap="round" stroke-linejoin="round"/>
    <path d="M 18.12450408935547 -4.04381799697876 C 18.60997772216797 -3.3411076068878174 18.322134017944336 0.010431877337396145 18.762094497680664 3.0551345348358154 C 18.44870376586914 14.029443740844727 21.14917755126953 2.2567014694213867 17.477535247802734 1.0543091297149658 C 20.07179069519043 6.82689094543457 5.397568225860596 9.29365062713623 6.79396390914917 9.778857231140137 C 24.99173355102539 15.104351997375488 26.069589614868164 13.164530754089355 18.12450408935547 -4.04381799697876" stroke-width="0.0" fill="rgb(208, 129, 67)" opacity="0.9003206" stroke="rgb(132, 6, 52)" stroke-opacity="0.42468548" stroke-linecap="round" stroke-linejoin="round"/>
    <path d="M 59.4341926574707 115.48482513427734 C 51.97615051269531 114.81704711914062 45.57155227661133 119.54314422607422 57.42294692993164 109.74298858642578 C 52.93391418457031 107.69731903076172 56.30373001098633 109.03446197509766 54.39595031738281 108.87906646728516 C 57.45631408691406 118.69049072265625 57.27594757080078 116.87779235839844 56.41435623168945 113.40935516357422 C 57.7902717590332 102.13443756103516 55.59214401245117 117.79792785644531 59.4341926574707 115.48482513427734" stroke-width="0.0" fill="rgb(223, 240, 166)" opacity="0.6668583" stroke="rgb(95, 118, 70)" stroke-opacity="0.58678436" stroke-linecap="round" stroke-linejoin="round"/>
    <path d="M 36.82412338256836 10.196227073669434 C 38.25348663330078 11.842979431152344 40.003482818603516 13.950228691101074 40.23582458496094 11.040698051452637 C 40.68144989013672 11.166584968566895 52.31502151489258 12.99432373046875 40.27487564086914 12.779060363769531 C 42.06837463378906 16.38103675842285 43.23004913330078 15.13053035736084 39.96593475341797 16.856769561767578 C 36.95222091674805 12.0474271774292 41.875099182128906 15.994855880737305 36.82412338256836 10.196227073669434" stroke-width="0.0" fill="rgb(0, 89, 0)" opacity="0.5424384" stroke="rgb(220, 29, 131)" stroke-opacity="0.13206811" stroke-linecap="round" stroke-linejoin="round"/>
    <path d="M 28.21095848083496 107.9690933227539 C 24.575773239135742 109.60233306884766 16.19708251953125 105.78929901123047 16.6723690032959 102.98411560058594 C 15.569852828979492 105.00547790527344 25.42864227294922 108.24375915527344 18.735654830932617 108.45439910888672 C 11.048136711120605 109.03717803955078 16.553564071655273 101.5447006225586 18.059873580932617 103.81938171386719 C 6.024955749511719 102.97010040283203 21.5471134185791 99.3083724975586 28.21095848083496 107.9690933227539" stroke-width="0.0" fill="rgb(0, 162, 90)" opacity="0.8174266" stroke="rgb(182, 100, 144)" stroke-opacity="0.18327984" stroke-linecap="round" stroke-linejoin="round"/>
    <path d="M 47.4542350769043 17.072952270507812 C 50.6512565612793 6.485569000244141 45.09214782714844 6.099545955657959 43.44866180419922 14.00483512878418 C 50.568721771240234 12.564842224121094 52.60574722290039 24.159000396728516 46.54971694946289 15.2275972366333 C 46.64085006713867 13.52656078338623 49.85143280029297 15.256368637084961 47.561344146728516 14.607970237731934 C 43.338706970214844 12.481341361999512 49.41695785522461 13.494237899780273 47.4542350769043 17.072952270507812" stroke-width="0.0" fill="rgb(0, 0, 0)" opacity="1.0" stroke="rgb(36, 124, 90)" stroke-opacity="0.94043195" stroke-linecap="round" stroke-linejoin="round"/>
    <path d="M 62.74956512451172 18.805286407470703 C 60.70465850830078 14.913049697875977 58.780731201171875 21.260478973388672 53.32939147949219 23.084442138671875 C 57.04004669189453 24.086687088012695 53.43901443481445 16.374425888061523 58.172996520996094 6.505899906158447 C 59.82725143432617 21.631059646606445 62.83783721923828 27.00014877319336 54.29237365722656 19.40569496154785 C 57.28986358642578 24.67355728149414 59.84505081176758 22.438528060913086 62.74956512451172 18.805286407470703" stroke-width="0.0" fill="rgb(58, 231, 172)" opacity="0.4431971" stroke="rgb(195, 190, 230)" stroke-opacity="0.08342244" stroke-linecap="round" stroke-linejoin="round"/>
    <path d="M 11.095035552978516 104.32442474365234 C 5.575671195983887 101.12904357910156 5.069784641265869 101.13363647460938 11.080462455749512 103.93978881835938 C 7.868128299713135 101.92039489746094 8.2821044921875 103.7606201171875 3.4073994159698486 100.67544555664062 C 6.025730609893799 102.2061996459961 13.66679859161377 106.85211944580078 6.29884672164917 102.40532684326172 C 8.615199089050293 102.37368774414062 9.131936073303223 103.32154846191406 11.095035552978516 104.32442474365234" stroke-width="0.0" fill="rgb(13, 85, 79)" opacity="0.84935236" stroke="rgb(140, 149, 245)" stroke-opacity="0.29214752" stroke-linecap="round" stroke-linejoin="round"/>
    <path d="M 73.46646118164062 18.44982147216797 C 70.76749420166016 4.61302375793457 73.60948944091797 6.017963886260986 76.20796966552734 15.74996566772461 C 73.37696075439453 13.7200288772583 73.09843444824219 12.192268371582031 74.06256866455078 12.797995567321777 C 72.71857452392578 12.94985580444336 77.05620574951172 13.529692649841309 70.65564727783203 14.039454460144043 C 73.64854431152344 12.375800132751465 72.43657684326172 16.531543731689453 73.46646118164062 18.44982147216797" stroke-width="0.0" fill="rgb(205, 167, 71)" opacity="0.87519866" stroke="rgb(61, 25, 4)" stroke-opacity="0.9295293" stroke-linecap="round" stroke-linejoin="round"/>
    <path d="M 43.61414337158203 13.336836814880371 C 40.074642181396484 12.559843063354492 39.34287643432617 16.70479965209961 38.64085388183594 12.887401580810547 C 39.21135711669922 15.870414733886719 42.727561950683594 13.107634544372559 39.97348403930664 13.843148231506348 C 42.88035583496094 17.149206161499023 43.95689010620117 14.964216232299805 44.24681854248047 9.471004486083984 C 49.61808395385742 4.513264179229736 44.54263687133789 9.637157440185547 43.61414337158203 13.336836814880371" stroke-width="0.0" fill="rgb(253, 13, 4)" opacity="0.70694613" stroke="rgb(170, 200, 71)" stroke-opacity="0.58641016" stroke-linecap="round" stroke-linejoin="round"/>
    <path d="M 89.24559020996094 25.922264099121094 C 84.48211669921875 9.113116264343262 55.95226287841797 18.154098510742188 68.42611694335938 14.283441543579102 C 70.71215057373047 22.88279914855957 68.5246810913086 21.041547775268555 70.85498046875 19.336549758911133 C 68.2567367553711 29.268314361572266 70.70726776123047 31.69637107849121 65.53324127197266 34.73847198486328 C 64.6646499633789 24.8193302154541 77.7037353515625 32.701053619384766 89.24559020996094 25.922264099121094" stroke-width="0.0" fill="rgb(247, 178, 96)" opacity="0.38808656" stroke="rgb(16, 123, 249)" stroke-opacity="0.87650526" stroke-linecap="round" stroke-linejoin="round"/>
    <path d="M 77.22832489013672 30.512704849243164 C 73.94013214111328 27.378334045410156 54.98445510864258 29.81479263305664 62.797325134277344 28.347810745239258 C 65.73684692382812 30.10033416748047 67.86066436767578 31.807682037353516 66.993896484375 28.700090408325195 C 66.73715209960938 34.22868728637695 66.05802917480469 32.906375885009766 62.70343780517578 30.30159568786621 C 65.99517822265625 29.8408145904541 68.4921646118164 29.481794357299805 77.22832489013672 30.512704849243164" stroke-width="0.0" fill="rgb(0, 143, 83)" opacity="0.83232623" stroke="rgb(86, 245, 59)" stroke-opacity="0.9493188" stroke-linecap="round" stroke-linejoin="round"/>
    <path d="M 66.81268310546875 33.70436477661133 C 69.81712341308594 35.703372955322266 67.13506317138672 37.11690139770508 62.01288604736328 34.58928298950195 C 62.832855224609375 32.10773468017578 60.535118103027344 36.79204559326172 59.12664794921875 33.80690002441406 C 60.68263626098633 25.645055770874023 58.505706787109375 29.60080909729004 60.406471252441406 27.027734756469727 C 70.74932861328125 28.43717384338379 72.50814819335938 32.67328643798828 66.81268310546875 33.70436477661133" stroke-width="0.0" fill="rgb(0, 0, 1)" opacity="0.9944391" stroke="rgb(240, 203, 160)" stroke-opacity="0.87428796" stroke-linecap="round" stroke-linejoin="round"/>
    <path d="M 66.70093536376953 29.633167266845703 C 66.28343963623047 30.483766555786133 65.23602294921875 32.93861770629883 64.98810577392578 33.5053825378418 C 66.09825897216797 31.722217559814453 65.45115661621094 32.87765884399414 63.76361083984375 35.58362579345703 C 63.5584716796875 39.18472671508789 64.19052124023438 34.24602508544922 64.31722259521484 30.430068969726562 C 64.78903198242188 34.03353500366211 61.52328109741211 41.136505126953125 66.70093536376953 29.633167266845703" stroke-width="0.0" fill="rgb(0, 80, 49)" opacity="0.7342393" stroke="rgb(74, 216, 157)" stroke-opacity="0.013236858" stroke-linecap="round" stroke-linejoin="round"/>
    <path d="M 68.54163360595703 46.6627197265625 C 72.8875503540039 49.19637680053711 65.42558288574219 52.74543380737305 71.17113494873047 47.53492736816406 C 76.61444854736328 47.08193588256836 72.27704620361328 50.155982971191406 67.37015533447266 52.692623138427734 C 73.23368835449219 57.82020950317383 62.68013381958008 51.99381637573242 84.63560485839844 52.831661224365234 C 62.85530471801758 50.176212310791016 73.6861801147461 53.61904525756836 68.54163360595703 46.6627197265625" stroke-width="0.0" fill="rgb(66, 0, 0)" opacity="0.61816627" stroke="rgb(88, 37, 250)" stroke-opacity="0.4783703" stroke-linecap="round" stroke-linejoin="round"/>
    <path d="M 62.02028274536133 10.215838432312012 C 57.3111457824707 1.6451537609100342 52.975128173828125 4.761561870574951 65.8123550415039 4.181529521942139 C 62.23990249633789 11.566985130310059 60.09824752807617 7.521996021270752 64.08855438232422 7.644763946533203 C 59.19603729248047 6.594706058502197 46.465187072753906 5.838520050048828 71.20320892333984 1.3245186805725098 C 45.82380294799805 -4.867616653442383 54.083885192871094 0.9257989525794983 62.02028274536133 10.215838432312012" stroke-width="0.0" fill="rgb(0, 103, 91)" opacity="0.54191947" stroke="rgb(126, 163, 93)" stroke-opacity="0.13690028" stroke-linecap="round" stroke-linejoin="round"/>
    <path d="M 48.52969741821289 8.61927318572998 C 52.10060501098633 9.468384742736816 57.42417907714844 3.0560829639434814 60.24795150756836 9.262937545776367 C 58.25031661987305 11.250284194946289 58.94646072387695 7.804211139678955 51.730499267578125 10.287610054016113 C 46.869163513183594 3.823091983795166 56.950584411621094 6.367900848388672 60.90908432006836 7.127246379852295 C 53.601131439208984 4.205358505249023 52.59663772583008 9.523393630981445 48.52969741821289 8.61927318572998" stroke-width="0.0" fill="rgb(208, 124, 85)" opacity="0.52740884" stroke="rgb(209, 48, 130)" stroke-opacity="0.22431703" stroke-linecap="round" stroke-linejoin="round"/>
    <path d="M 68.054443359375 9.330109596252441 C 73.7466812133789 7.7987823486328125 74.33668518066406 10.193483352661133 64.17230224609375 9.32147216796875 C 70.95783233642578 16.876256942749023 77.09803771972656 8.98934555053711 74.21569061279297 17.304126739501953 C 76.95309448242188 13.49491024017334 78.30170440673828 5.435697078704834 61.36514663696289 12.836689949035645 C 68.04403686523438 13.083309173583984 68.57684326171875 13.814947128295898 68.054443359375 9.330109596252441" stroke-width="0.0" fill="rgb(199, 144, 71)" opacity="0.7066011" stroke="rgb(24, 219, 248)" stroke-opacity="0.9608347" stroke-linecap="round" stroke-linejoin="round"/>
    <path d="M 47.176517486572266 13.256759643554688 C 47.04576873779297 15.114012718200684 44.346946716308594 21.259578704833984 47.380409240722656 11.081010818481445 C 52.02341842651367 11.663490295410156 41.24454879760742 20.45534896850586 44.571529388427734 16.983613967895508 C 46.17881774902344 13.244280815124512 48.7462043762207 12.91580867767334 46.4202766418457 12.472724914550781 C 43.734432220458984 10.822259902954102 48.1242790222168 16.03761863708496 47.176517486572266 13.256759643554688" stroke-width="0.0" fill="rgb(0, 0, 0)" opacity="0.7742154" stroke="rgb(231, 197, 84)" stroke-opacity="0.08110139" stroke-linecap="round" stroke-linejoin="round"/>
    <path d="M 55.963157653808594 16.358047485351562 C 56.10786056518555 17.123809814453125 57.39893341064453 18.590970993041992 56.285560607910156 7.538844108581543 C 55.0912971496582 10.665284156799316 54.760292053222656 7.5910868644714355 49.04004669189453 4.728991985321045 C 37.95552062988281 -0.6678327918052673 37.78523635864258 -0.585696280002594 49.21477508544922 4.9358344078063965 C 55.662025451660156 8.02511215209961 56.1053581237793 10.988415718078613 55.963157653808594 16.358047485351562" stroke-width="0.0" fill="rgb(75, 108, 78)" opacity="0.6228329" stroke="rgb(103, 59, 33)" stroke-opacity="0.053427182" stroke-linecap="round" stroke-linejoin="round"/>
    <path d="M 54.066619873046875 18.384368896484375 C 52.03852462768555 21.709484100341797 60.58826446533203 19.54787254333496 54.82434844970703 22.420303344726562 C 50.440006256103516 21.202295303344727 53.96578598022461 17.37693214416504 59.01856231689453 25.26165199279785 C 63.694786071777344 20.823678970336914 60.543365478515625 21.01148796081543 54.6122932434082 14.643214225769043 C 54.2408332824707 1.988026738166809 61.72294235229492 11.634236335754395 54.066619873046875 18.384368896484375" stroke-width="0.0" fill="rgb(0, 1, 1)" opacity="0.9669024" stroke="rgb(185, 2, 196)" stroke-opacity="0.14694664" stroke-linecap="round" stroke-linejoin="round"/>
    <path d="M 62.33036804199219 9.790176391601562 C 61.147525787353516 13.135643005371094 56.806488037109375 16.51228141784668 58.050472259521484 24.44940948486328 C 59.96965408325195 13.035940170288086 56.778587341308594 14.951399803161621 64.85869598388672 16.833189010620117 C 62.79615783691406 17.450559616088867 59.25259780883789 12.842619895935059 60.436279296875 9.782771110534668 C 57.219173431396484 12.794339179992676 62.103084564208984 25.003433227539062 62.33036804199219 9.790176391601562" stroke-width="0.0" fill="rgb(55, 194, 85)" opacity="0.6135997" stroke="rgb(20, 22, 171)" stroke-opacity="0.24536721" stroke-linecap="round" stroke-linejoin="round"/>
    <path d="M 50.26136779785156 8.442086219787598 C 52.878326416015625 24.757625579833984 57.583683013916016 13.570493698120117 51.890785217285156 12.166814804077148 C 48.12356948852539 11.611503601074219 49.88892364501953 16.92270278930664 54.572208404541016 17.786409378051758 C 49.99998092651367 16.438547134399414 50.760108947753906 17.162960052490234 50.73375701904297 19.298938751220703 C 51.991050720214844 12.893321990966797 51.04035186767578 15.03040599822998 50.26136779785156 8.442086219787598" stroke-width="0.0" fill="rgb(243, 253, 246)" opacity="0.85749686" stroke="rgb(107, 142, 219)" stroke-opacity="0.7270443" stroke-linecap="round" stroke-linejoin="round"/>
    <path d="M 57.466278076171875 21.13170623779297 C 54.275630950927734 23.596590042114258 54.62522506713867 19.30586814880371 61.859458923339844 17.645349502563477 C 64.12459564208984 18.081562042236328 61.969757080078125 18.40785026550293 52.68576431274414 17.646770477294922 C 53.71955490112305 16.628551483154297 58.229496002197266 14.968682289123535 58.905120849609375 15.55766487121582 C 59.1557731628418 9.974696159362793 59.830989837646484 14.196475982666016 57.466278076171875 21.13170623779297" stroke-width="0.0" fill="rgb(176, 183, 127)" opacity="0.68055725" stroke="rgb(68, 33, 14)" stroke-opacity="0.30159864" stroke-linecap="round" stroke-linejoin="round"/>
    <path d="M 37.56227111816406 12.916351318359375 C 35.64849853515625 11.2662992477417 33.649845123291016 16.365304946899414 34.66322326660156 14.058448791503906 C 39.64604568481445 9.9420747756958 32.79296112060547 1.4745595455169678 36.07023239135742 17.33505630493164 C 36.371315002441406 17.440189361572266 31.987457275390625 8.521223068237305 45.58997344970703 6.55938720703125 C 40.40118408203125 13.140036582946777 38.75932312011719 20.67348861694336 37.56227111816406 12.916351318359375" stroke-width="0.0" fill="rgb(0, 175, 120)" opacity="0.6564732" stroke="rgb(66, 116, 174)" stroke-opacity="0.6956254" stroke-linecap="round" stroke-linejoin="round"/>
    <path d="M 53.89310836791992 28.432615280151367 C 60.17582702636719 25.789810180664062 60.9456787109375 26.0786075592041 55.06077575683594 28.4941349029541 C 63.0894775390625 17.62894058227539 60.446250915527344 16.939952850341797 47.207664489746094 19.966846466064453 C 51.35202407836914 16.15155029296875 57.31543731689453 8.500977516174316 57.59223556518555 17.443178176879883 C 49.773128509521484 23.827550888061523 52.69017791748047 27.146333694458008 53.89310836791992 28.432615280151367" stroke-width="0.0" fill="rgb(0, 0, 0)" opacity="0.9999729" stroke="rgb(72, 96, 46)" stroke-opacity="0.7885455" stroke-linecap="round" stroke-linejoin="round"/>
    <path d="M 68.3045883178711 23.522748947143555 C 57.277530670166016 20.24053192138672 67.14500427246094 25.83169937133789 67.29011535644531 26.717016220092773 C 66.8028335571289 25.111562728881836 61.56637954711914 18.86773109436035 64.13853454589844 22.223100662231445 C 57.15777587890625 17.862751007080078 64.41133880615234 20.633197784423828 60.27861785888672 17.891828536987305 C 60.26227569580078 18.787704467773438 64.54060363769531 24.887969970703125 68.3045883178711 23.522748947143555" stroke-width="0.0" fill="rgb(27, 54, 35)" opacity="0.73904496" stroke="rgb(14, 177, 198)" stroke-opacity="0.7774076" stroke-linecap="round" stroke-linejoin="round"/>
    <path d="M 66.03744506835938 26.756938934326172 C 65.50025177001953 27.36019515991211 60.97090530395508 19.851194381713867 62.747840881347656 20.156904220581055 C 66.986572265625 15.586701393127441 67.54611206054688 14.668678283691406 64.62989807128906 18.098552703857422 C 61.139225006103516 24.895843505859375 50.90445327758789 12.485527992248535 61.82600402832031 17.03455924987793 C 63.26638412475586 22.25912857055664 56.33287811279297 20.743146896362305 66.03744506835938 26.756938934326172" stroke-width="0.0" fill="rgb(226, 240, 169)" opacity="0.8832402" stroke="rgb(66, 95, 149)" stroke-opacity="0.2728219" stroke-linecap="round" stroke-linejoin="round"/>
    <path d="M 65.52911376953125 23.109514236450195 C 63.39801025390625 20.00421714782715 58.09634780883789 5.696049690246582 63.22467041015625 21.998641967773438 C 64.3313217163086 19.133468627929688 64.00822448730469 18.435932159423828 65.26045989990234 17.043556213378906 C 60.842811584472656 24.04139518737793 57.39792251586914 22.770999908447266 57.900516510009766 6.23838996887207 C 64.58425903320312 26.3472957611084 59.551876068115234 23.384296417236328 65.52911376953125 23.109514236450195" stroke-width="0.0" fill="rgb(239, 219, 129)" opacity="0.70080435" stroke="rgb(94, 50, 117)" stroke-opacity="0.0446123" stroke-linecap="round" stroke-linejoin="round"/>
    <path d="M 68.06977081298828 27.267147064208984 C 56.055763244628906 17.816242218017578 53.407981872558594 7.913938522338867 83.37886810302734 23.466651916503906 C 66.42351531982422 24.520408630371094 60.795230865478516 22.971206665039062 59.765045166015625 16.416168212890625 C 62.81898498535156 25.742084503173828 66.00753021240234 27.096324920654297 66.78246307373047 23.115678787231445 C 62.59083557128906 21.24781608581543 68.7733383178711 21.199438095092773 68.06977081298828 27.267147064208984" stroke-width="0.0" fill="rgb(238, 165, 77)" opacity="0.65906346" stroke="rgb(203, 19, 132)" stroke-opacity="0.3068101" stroke-linecap="round" stroke-linejoin="round"/>
    <path d="M 70.50399017333984 26.804752349853516 C 71.4129867553711 26.526365280151367 60.69606018066406 23.988868713378906 67.2659912109375 21.408456802368164 C 68.4859619140625 22.351825714111328 66.15374755859375 20.928598403930664 64.48186492919922 23.693464279174805 C 88.50177764892578 27.07604217529297 65.97872161865234 33.18213653564453 70.06584930419922 21.945537567138672 C 68.59144592285156 19.365089416503906 69.96710205078125 18.839515686035156 70.50399017333984 26.804752349853516" stroke-width="0.0" fill="rgb(254, 181, 89)" opacity="0.671879" stroke="rgb(147, 244, 164)" stroke-opacity="0.035362437" stroke-linecap="round" stroke-linejoin="round"/>
    <path d="M 69.49544525146484 28.94554328918457 C 66.36174774169922 28.71867561340332 57.99223327636719 21.136520385742188 67.1392822265625 23.812257766723633 C 69.45751953125 23.199018478393555 67.21627807617188 23.21320152282715 68.6151123046875 22.91204833984375 C 65.97357940673828 24.775312423706055 69.62269592285156 23.769668579101562 64.31761932373047 23.107376098632812 C 69.22838592529297 28.35819435119629 73.17292785644531 24.42043113708496 69.49544525146484 28.94554328918457" stroke-width="0.0" fill="rgb(247, 255, 192)" opacity="0.6802054" stroke="rgb(109, 130, 136)" stroke-opacity="0.6813925" stroke-linecap="round" stroke-linejoin="round"/>
    <path d="M 68.67803955078125 23.734561920166016 C 67.9957504272461 27.00322914123535 66.10350799560547 27.459468841552734 73.55620574951172 21.433704376220703 C 73.23656463623047 24.924243927001953 71.72320556640625 23.16448974609375 62.168460845947266 21.238676071166992 C 64.9531478881836 28.704750061035156 80.32967376708984 30.6303653717041 68.1757583618164 22.463977813720703 C 96.45381927490234 23.288373947143555 76.76390075683594 34.09928894042969 68.67803955078125 23.734561920166016" stroke-width="0.0" fill="rgb(242, 171, 87)" opacity="0.8125113" stroke="rgb(70, 32, 100)" stroke-opacity="0.9564057" stroke-linecap="round" stroke-linejoin="round"/>
    <path d="M 82.4090347290039 49.22320556640625 C 86.14080810546875 27.221961975097656 91.75556945800781 28.667369842529297 69.7966079711914 28.516382217407227 C 71.42716217041016 61.19806671142578 86.48467254638672 53.929656982421875 86.50188446044922 39.02834701538086 C 86.2640151977539 31.16604995727539 85.9576416015625 28.18149185180664 87.95654296875 31.38481330871582 C 81.63249969482422 32.414222717285156 87.33639526367188 35.897239685058594 82.4090347290039 49.22320556640625" stroke-width="0.0" fill="rgb(0, 207, 147)" opacity="0.71602577" stroke="rgb(47, 230, 138)" stroke-opacity="0.4569114" stroke-linecap="round" stroke-linejoin="round"/>
    <path d="M 31.659269332885742 38.323638916015625 C 32.070884704589844 22.805683135986328 40.5927848815918 20.242551803588867 43.645477294921875 20.139480590820312 C 38.44601821899414 21.17556381225586 37.694175720214844 22.111064910888672 36.141395568847656 26.857534408569336 C 37.78339767456055 34.55255889892578 37.12892150878906 31.582263946533203 36.88853073120117 28.147502899169922 C 39.10344696044922 23.965038299560547 36.13213348388672 28.10643768310547 31.659269332885742 38.323638916015625" stroke-width="0.0" fill="rgb(6, 0, 0)" opacity="0.7879721" stroke="rgb(224, 116, 184)" stroke-opacity="0.39902532" stroke-linecap="round" stroke-linejoin="round"/>
    <path d="M 89.20338439941406 32.680355072021484 C 86.37970733642578 29.087549209594727 97.81705474853516 32.0640869140625 94.43009948730469 30.182981491088867 C 97.51750946044922 28.270572662353516 98.20967864990234 33.237850189208984 94.48941802978516 31.760364532470703 C 96.25450134277344 30.020647048950195 105.65049743652344 34.39248275756836 90.89649200439453 33.822444915771484 C 86.93853759765625 34.88485336303711 89.95824432373047 31.260663986206055 89.20338439941406 32.680355072021484" stroke-width="0.0" fill="rgb(213, 175, 86)" opacity="0.7753946" stroke="rgb(230, 175, 178)" stroke-opacity="0.3277204" stroke-linecap="round" stroke-linejoin="round"/>
    <path d="M 93.22320556640625 28.01497459411621 C 93.20732879638672 32.983482360839844 90.92652893066406 33.64952087402344 91.1498031616211 32.78879928588867 C 94.92213439941406 33.534873962402344 93.53278350830078 31.737911224365234 92.87968444824219 32.726436614990234 C 91.70521545410156 35.11968231201172 96.92857360839844 31.971487045288086 92.01525115966797 33.530635833740234 C 91.0301284790039 34.033782958984375 93.37276458740234 32.1492805480957 93.22320556640625 28.01497459411621" stroke-width="0.0" fill="rgb(161, 140, 89)" opacity="0.78302026" stroke="rgb(192, 162, 61)" stroke-opacity="0.16053882" stroke-linecap="round" stroke-linejoin="round"/>
    <path d="M -3.551156997680664 45.0736083984375 C -1.305201768875122 40.52510070800781 -1.094273328781128 41.56770324707031 -1.1839430332183838 43.212406158447266 C -4.757691383361816 35.93931198120117 -2.711521863937378 41.87477493286133 -6.437246322631836 37.04600143432617 C -2.7287521362304688 32.781715393066406 -0.6924190521240234 26.34162139892578 -12.375600814819336 36.83879852294922 C -7.584140300750732 41.674110412597656 -5.269080638885498 43.375938415527344 -3.551156997680664 45.0736083984375" stroke-width="0.0" fill="rgb(46, 118, 67)" opacity="0.88398266" stroke="rgb(203, 244, 116)" stroke-opacity="0.59098417" stroke-linecap="round" stroke-linejoin="round"/>
    <path d="M 3.5954699516296387 35.50765609741211 C 13.341469764709473 30.822452545166016 -6.248384475708008 35.826717376708984 -19.44586181640625 45.436832427978516 C -0.3739638030529022 38.619537353515625 -2.199688196182251 37.31264114379883 -7.26620626449585 37.41130447387695 C -3.964409828186035 32.92387771606445 -2.922205686569214 31.497026443481445 -10.28604507446289 40.744773864746094 C -7.699756622314453 41.75794219970703 3.0793066024780273 48.3830451965332 3.5954699516296387 35.50765609741211" stroke-width="0.0" fill="rgb(0, 115, 86)" opacity="0.3861435" stroke="rgb(218, 116, 242)" stroke-opacity="0.5757512" stroke-linecap="round" stroke-linejoin="round"/>
    <path d="M 75.97393798828125 45.74028015136719 C 79.04212188720703 45.1365852355957 76.56268310546875 52.63640213012695 97.78723907470703 51.93849563598633 C 89.95137023925781 38.993202209472656 81.09333038330078 39.36478805541992 68.52833557128906 52.09963607788086 C 77.84031677246094 50.22746276855469 74.72676849365234 49.58942413330078 79.88615417480469 46.11631393432617 C 74.8147964477539 46.39242935180664 79.46780395507812 50.8233642578125 75.97393798828125 45.74028015136719" stroke-width="0.0" fill="rgb(0, 188, 137)" opacity="0.85690457" stroke="rgb(209, 231, 207)" stroke-opacity="0.15941447" stroke-linecap="round" stroke-linejoin="round"/>
    <path d="M 86.18925476074219 56.94355773925781 C 88.51472473144531 52.472225189208984 86.76264190673828 53.85359191894531 82.55201721191406 52.52301788330078 C 94.6368408203125 55.168792724609375 94.2582015991211 56.18556594848633 93.99506378173828 57.090484619140625 C 93.05494689941406 57.458534240722656 96.87145233154297 56.17673110961914 88.90128326416016 54.06728744506836 C 85.45964813232422 52.41243362426758 88.10980224609375 57.58568572998047 86.18925476074219 56.94355773925781" stroke-width="0.0" fill="rgb(195, 2, 3)" opacity="0.8623195" stroke="rgb(160, 101, 15)" stroke-opacity="0.42403224" stroke-linecap="round" stroke-linejoin="round"/>
    <path d="M 73.76656341552734 51.51536560058594 C 68.42868041992188 51.14544677734375 66.44445037841797 51.245689392089844 65.00585174560547 50.494773864746094 C 79.90412902832031 53.07045364379883 73.3969955444336 50.28444290161133 71.29634857177734 47.1627311706543 C 72.66434478759766 50.80329513549805 71.3944091796875 50.01306915283203 71.35073852539062 50.87485122680664 C 76.63219451904297 46.31586837768555 80.52640533447266 46.9654541015625 73.76656341552734 51.51536560058594" stroke-width="0.0" fill="rgb(12, 148, 124)" opacity="0.7934539" stroke="rgb(65, 216, 8)" stroke-opacity="0.9589827" stroke-linecap="round" stroke-linejoin="round"/>
    <path d="M 120.08353424072266 45.31553268432617 C 108.08103942871094 53.650352478027344 113.07754516601562 51.180973052978516 115.9325180053711 47.91012954711914 C 110.40869140625 51.95172882080078 110.70814514160156 50.23402786254883 111.85702514648438 37.97478103637695 C 119.5426025390625 49.1933708190918 130.2267303466797 46.10348129272461 130.2224578857422 54.89384841918945 C 103.12857055664062 54.64524841308594 109.84291076660156 51.50694274902344 120.08353424072266 45.31553268432617" stroke-width="0.0" fill="rgb(0, 125, 119)" opacity="0.84518826" stroke="rgb(90, 90, 4)" stroke-opacity="0.18523233" stroke-linecap="round" stroke-linejoin="round"/>
    <path d="M 105.98174285888672 58.66990661621094 C 112.9769515991211 54.54765701293945 104.60794830322266 59.28544998168945 109.87733459472656 58.55405044555664 C 108.28961181640625 52.90188217163086 109.65654754638672 60.98945236206055 110.05289459228516 57.80587387084961 C 114.67668914794922 61.34386444091797 118.711669921875 59.87001037597656 109.18636322021484 56.9310417175293 C 106.05901336669922 58.47283172607422 106.70352935791016 58.30923843383789 105.98174285888672 58.66990661621094" stroke-width="0.0" fill="rgb(188, 0, 0)" opacity="0.84023273" stroke="rgb(102, 236, 25)" stroke-opacity="0.94530153" stroke-linecap="round" stroke-linejoin="round"/>
    <path d="M 70.93072509765625 51.787513732910156 C 66.55379486083984 57.193138122558594 60.808780670166016 53.698177337646484 69.99226379394531 51.47853088378906 C 75.63207244873047 54.52423858642578 69.29452514648438 51.21339416503906 70.67870330810547 51.643978118896484 C 72.30722045898438 56.76216125488281 70.57921600341797 52.19126510620117 73.51703643798828 54.13981628417969 C 70.06562042236328 52.166751861572266 64.76619720458984 50.51578903198242 70.93072509765625 51.787513732910156" stroke-width="0.0" fill="rgb(124, 30, 17)" opacity="0.7608782" stroke="rgb(221, 115, 83)" stroke-opacity="0.23274413" stroke-linecap="round" stroke-linejoin="round"/>
    <path d="M 59.124755859375 61.01215362548828 C 58.89632797241211 52.61043930053711 56.25819396972656 50.870513916015625 63.851627349853516 53.55645751953125 C 61.691322326660156 52.562076568603516 59.367408752441406 51.10292434692383 58.12866973876953 54.967567443847656 C 59.65334701538086 64.66748046875 60.51133346557617 63.06421661376953 59.176856994628906 60.512916564941406 C 57.426944732666016 43.851741790771484 57.73881149291992 46.122291564941406 59.124755859375 61.01215362548828" stroke-width="0.0" fill="rgb(0, 148, 109)" opacity="0.9098358" stroke="rgb(156, 8, 3)" stroke-opacity="0.42879573" stroke-linecap="round" stroke-linejoin="round"/>
    <path d="M 126.48110961914062 47.85593032836914 C 132.03387451171875 60.27725601196289 122.39900207519531 58.31144714355469 125.67113494873047 49.139678955078125 C 132.81097412109375 51.28890609741211 130.52365112304688 51.30117416381836 127.85100555419922 53.57957458496094 C 123.09881591796875 60.36920166015625 125.54086303710938 56.06001663208008 133.88055419921875 58.08160400390625 C 130.30091857910156 58.559532165527344 120.1982650756836 52.7858772277832 126.48110961914062 47.85593032836914" stroke-width="0.0" fill="rgb(15, 95, 119)" opacity="0.8136057" stroke="rgb(17, 64, 56)" stroke-opacity="0.2531912" stroke-linecap="round" stroke-linejoin="round"/>
    <path d="M -3.1568357944488525 72.83760833740234 C -1.1051537990570068 79.99895477294922 -5.437235355377197 78.18939971923828 -7.426639556884766 73.19152069091797 C 17.73210334777832 71.8009262084961 4.537042617797852 86.18880462646484 -8.279906272888184 84.95854187011719 C -2.4520723819732666 89.94696807861328 2.987877607345581 83.38794708251953 -7.4399261474609375 86.4249496459961 C -7.880753517150879 85.70364379882812 -8.037474632263184 84.76652526855469 -3.1568357944488525 72.83760833740234" stroke-width="0.0" fill="rgb(188, 103, 48)" opacity="0.7869822" stroke="rgb(33, 3, 29)" stroke-opacity="0.61848027" stroke-linecap="round" stroke-linejoin="round"/>
    <path d="M 7.009264945983887 105.62944030761719 C 11.993520736694336 76.69923400878906 15.324504852294922 68.5135498046875 16.086362838745117 100.78755187988281 C 8.826972007751465 95.83946228027344 10.266691207885742 91.73873138427734 11.163073539733887 107.71086120605469 C 12.50648021697998 97.2916488647461 8.442639350891113 96.31537628173828 11.189366340637207 79.88771057128906 C 9.38252067565918 85.7980728149414 10.255187034606934 89.18174743652344 7.009264945983887 105.62944030761719" stroke-width="0.0" fill="rgb(0, 23, 34)" opacity="0.3574227" stroke="rgb(248, 252, 104)" stroke-opacity="0.16295442" stroke-linecap="round" stroke-linejoin="round"/>
    <path d="M 2.0564303398132324 93.50299072265625 C 15.412025451660156 107.84634399414062 9.206660270690918 103.93470764160156 8.277196884155273 80.99320220947266 C -0.16085387766361237 92.87739562988281 4.482004642486572 93.43405151367188 2.7518081665039062 89.2432632446289 C 4.347880840301514 97.32937622070312 4.782253742218018 98.36392974853516 4.439784526824951 94.97184753417969 C 7.506226062774658 94.04854583740234 7.324420928955078 95.11767578125 2.0564303398132324 93.50299072265625" stroke-width="0.0" fill="rgb(0, 102, 112)" opacity="0.4057347" stroke="rgb(162, 125, 252)" stroke-opacity="0.065304205" stroke-linecap="round" stroke-linejoin="round"/>
    <path d="M 13.486542701721191 104.25115203857422 C 1.3937108516693115 93.4923095703125 1.042984127998352 91.74832153320312 0.31578290462493896 85.99173736572266 C -2.7783658504486084 110.68221282958984 8.179152488708496 100.5343017578125 0.8988073468208313 89.1703872680664 C 0.9845473170280457 82.13175964355469 3.330723524093628 97.92881774902344 0.8612428307533264 105.86807250976562 C 0.7975482940673828 102.83220672607422 5.170522689819336 108.3440170288086 13.486542701721191 104.25115203857422" stroke-width="0.0" fill="rgb(0, 0, 0)" opacity="0.92935526" stroke="rgb(199, 73, 61)" stroke-opacity="0.66250455" stroke-linecap="round" stroke-linejoin="round"/>
    <path d="M 16.31536293029785 101.23082733154297 C 13.531289100646973 90.59760284423828 10.509455680847168 98.21187591552734 18.454418182373047 100.38105773925781 C 16.23766326904297 100.38966369628906 12.989009857177734 97.40916442871094 14.618032455444336 96.85319519042969 C 7.853204250335693 92.91543579101562 15.83713150024414 84.05976104736328 14.179948806762695 98.7298812866211 C 19.293182373046875 104.80282592773438 33.523841857910156 106.89599609375 16.31536293029785 101.23082733154297" stroke-width="0.0" fill="rgb(85, 0, 21)" opacity="0.6040415" stroke="rgb(62, 169, 131)" stroke-opacity="0.42408898" stroke-linecap="round" stroke-linejoin="round"/>
    <path d="M 27.219825744628906 106.15281677246094 C 22.12167739868164 108.1936264038086 21.448091506958008 107.87065887451172 17.711347579956055 106.8486557006836 C 28.8366641998291 109.23194885253906 26.01787567138672 100.16382598876953 29.149917602539062 115.83313751220703 C 14.436914443969727 105.99075317382812 33.24994659423828 106.05435180664062 20.39743423461914 110.17314910888672 C 22.760822296142578 108.69583129882812 27.815893173217773 108.07845306396484 27.219825744628906 106.15281677246094" stroke-width="0.0" fill="rgb(196, 129, 0)" opacity="0.42443293" stroke="rgb(141, 73, 180)" stroke-opacity="0.41485688" stroke-linecap="round" stroke-linejoin="round"/>
    <path d="M 21.286312103271484 104.7801742553711 C 26.100088119506836 105.29501342773438 23.150163650512695 107.14356231689453 23.04766082763672 105.09185028076172 C 24.521636962890625 108.89498138427734 26.548856735229492 106.61449432373047 16.794677734375 102.01962280273438 C 28.459474563598633 105.26830291748047 30.620059967041016 107.27669525146484 25.544939041137695 108.127197265625 C 23.017290115356445 104.99813079833984 23.993701934814453 108.24461364746094 21.286312103271484 104.7801742553711" stroke-width="0.0" fill="rgb(0, 131, 64)" opacity="0.6709002" stroke="rgb(91, 211, 235)" stroke-opacity="0.04600731" stroke-linecap="round" stroke-linejoin="round"/>
    <path d="M 30.502559661865234 100.04984283447266 C 31.004732131958008 100.2446517944336 28.023113250732422 99.47347259521484 30.395647048950195 100.02352142333984 C 29.40239715576172 109.98760986328125 25.460559844970703 105.1212387084961 19.59703826904297 109.40792083740234 C 25.848676681518555 105.37079620361328 30.618690490722656 107.83680725097656 26.928178787231445 108.07188415527344 C 31.270368576049805 103.286865234375 29.395612716674805 101.07622528076172 30.502559661865234 100.04984283447266" stroke-width="0.0" fill="rgb(24, 72, 46)" opacity="0.48961186" stroke="rgb(59, 88, 207)" stroke-opacity="0.98549145" stroke-linecap="round" stroke-linejoin="round"/>
    <path d="M 16.825231552124023 110.78141784667969 C 20.753753662109375 105.01829528808594 5.261148929595947 109.86060333251953 25.698965072631836 110.05689239501953 C 15.081846237182617 110.56611633300781 17.033321380615234 106.64745330810547 17.18855094909668 114.25531005859375 C 19.223878860473633 114.9212646484375 21.76939582824707 114.39967346191406 23.573171615600586 114.80066680908203 C 13.140438079833984 114.51478576660156 17.677412033081055 114.01610565185547 16.825231552124023 110.78141784667969" stroke-width="0.0" fill="rgb(201, 169, 72)" opacity="0.82262367" stroke="rgb(247, 230, 75)" stroke-opacity="0.99201125" stroke-linecap="round" stroke-linejoin="round"/>
    <path d="M 52.5359001159668 110.10917663574219 C 48.075111389160156 114.32855224609375 50.928672790527344 111.52572631835938 49.42922592163086 110.46477508544922 C 50.803401947021484 114.73990631103516 52.60555648803711 109.15226745605469 50.34040069580078 109.71228790283203 C 54.173797607421875 112.2081527709961 55.943931579589844 113.0202407836914 56.248199462890625 111.04772186279297 C 49.11512756347656 110.57527923583984 52.47172927856445 113.68091583251953 52.5359001159668 110.10917663574219" stroke-width="0.0" fill="rgb(181, 200, 132)" opacity="0.8372175" stroke="rgb(63, 27, 242)" stroke-opacity="0.23342025" stroke-linecap="round" stroke-linejoin="round"/>
    <path d="M 120.75547790527344 107.50236511230469 C 112.9682846069336 110.13080596923828 109.85391998291016 107.57405090332031 114.36807250976562 109.55805969238281 C 117.01374053955078 110.04789733886719 121.1444320678711 111.63761901855469 123.58473205566406 109.17927551269531 C 122.82733154296875 110.7449722290039 127.56085968017578 112.00501251220703 112.36580657958984 107.87201690673828 C 123.93482971191406 111.59162139892578 125.78373718261719 110.6575698852539 120.75547790527344 107.50236511230469" stroke-width="0.0" fill="rgb(79, 4, 0)" opacity="0.61144245" stroke="rgb(175, 14, 186)" stroke-opacity="0.8817202" stroke-linecap="round" stroke-linejoin="round"/>
    <path d="M 48.021602630615234 111.78594207763672 C 45.75315475463867 106.08529663085938 44.22126007080078 108.33424377441406 42.28662872314453 108.83303833007812 C 44.53213882446289 102.1157455444336 43.788169860839844 106.3009033203125 55.6008186340332 107.66163635253906 C 54.43046951293945 100.11555480957031 53.70559310913086 106.77064514160156 59.039466857910156 105.16484832763672 C 58.20159912109375 99.04405975341797 52.67476272583008 122.86319732666016 48.021602630615234 111.78594207763672" stroke-width="0.0" fill="rgb(0, 0, 0)" opacity="0.94129646" stroke="rgb(69, 96, 95)" stroke-opacity="0.74878824" stroke-linecap="round" stroke-linejoin="round"/>
    <path d="M 122.09651947021484 109.75210571289062 C 121.40534210205078 111.17251586914062 119.04532623291016 106.72584533691406 100.05142974853516 111.8918228149414 C 124.22215270996094 116.81611633300781 119.6985855102539 109.579833984375 122.0350341796875 113.18572235107422 C 117.61337280273438 110.57098388671875 129.7281494140625 107.3668441772461 118.90686798095703 113.21037292480469 C 121.84001922607422 114.94383239746094 118.5678482055664 113.76728057861328 122.09651947021484 109.75210571289062" stroke-width="0.0" fill="rgb(207, 100, 21)" opacity="0.8165603" stroke="rgb(60, 43, 114)" stroke-opacity="0.3044684" stroke-linecap="round" stroke-linejoin="round"/>
    <path d="M 13.97628116607666 111.18425750732422 C 14.730588912963867 107.59661865234375 15.913572311401367 115.69586181640625 13.651592254638672 112.25991821289062 C 17.274425506591797 115.81063842773438 15.983681678771973 109.7004623413086 15.606473922729492 106.99644470214844 C 16.74213409423828 107.64865112304688 14.125121116638184 109.43721008300781 17.548351287841797 106.10989379882812 C 14.636320114135742 108.48329162597656 11.225098609924316 118.56393432617188 13.97628116607666 111.18425750732422" stroke-width="0.0" fill="rgb(31, 43, 12)" opacity="0.63841164" stroke="rgb(213, 60, 128)" stroke-opacity="0.9425836" stroke-linecap="round" stroke-linejoin="round"/>
    <path d="M 77.76216125488281 112.25154113769531 C 47.007911682128906 114.42517852783203 48.9241943359375 107.77545928955078 100.4001235961914 111.9308853149414 C 79.36373138427734 112.86199188232422 98.14291381835938 115.92420959472656 83.35139465332031 113.11805725097656 C 85.95415496826172 114.41793823242188 86.53372192382812 114.50186157226562 84.65711975097656 113.64311981201172 C 73.4090347290039 112.74948120117188 76.05488586425781 114.9365463256836 77.76216125488281 112.25154113769531" stroke-width="0.0" fill="rgb(225, 134, 39)" opacity="0.6627222" stroke="rgb(239, 191, 178)" stroke-opacity="0.96796554" stroke-linecap="round" stroke-linejoin="round"/>
    <path d="M 139.65562438964844 14.827943801879883 C 126.77778625488281 53.60996627807617 124.70685577392578 56.75088882446289 136.527099609375 54.63351821899414 C 133.14126586914062 64.15451049804688 139.00314331054688 62.08731460571289 120.93952941894531 57.65449523925781 C 101.58646392822266 51.48509979248047 99.64264678955078 57.96500778198242 102.64082336425781 39.29585647583008 C 142.2447052001953 24.380495071411133 131.9007110595703 7.869390964508057 139.65562438964844 14.827943801879883" stroke-width="0.0" fill="rgb(0, 126, 109)" opacity="0.6973843" stroke="rgb(18, 74, 38)" stroke-opacity="0.41748637" stroke-linecap="round" stroke-linejoin="round"/>
    <path d="M 14.440296173095703 81.5826187133789 C 30.364856719970703 73.14143371582031 22.624746322631836 115.62266540527344 12.156359672546387 95.11860656738281 C 10.875 77.06529998779297 17.234960556030273 72.29403686523438 22.09282112121582 84.2414779663086 C 22.60527229309082 85.19518280029297 23.979862213134766 82.83949279785156 21.75629997253418 79.68468475341797 C 10.87701416015625 81.340576171875 15.003438949584961 82.92671966552734 14.440296173095703 81.5826187133789" stroke-width="0.0" fill="rgb(180, 0, 0)" opacity="0.7997758" stroke="rgb(97, 228, 246)" stroke-opacity="0.5468849" stroke-linecap="round" stroke-linejoin="round"/>
    <path d="M 33.3205680847168 83.89543151855469 C 29.723630905151367 78.05091094970703 31.459922790527344 79.69010162353516 34.75998306274414 79.82465362548828 C 31.694177627563477 79.5481948852539 36.69547653198242 79.88987731933594 38.89389419555664 80.89689636230469 C 38.263343811035156 81.13078308105469 40.11289596557617 80.4432373046875 31.741518020629883 79.48279571533203 C 30.617637634277344 79.78825378417969 31.453006744384766 82.05487823486328 33.3205680847168 83.89543151855469" stroke-width="0.0" fill="rgb(181, 0, 0)" opacity="0.9024024" stroke="rgb(228, 103, 140)" stroke-opacity="0.27165276" stroke-linecap="round" stroke-linejoin="round"/>
    <path d="M 68.99264526367188 54.39505386352539 C 61.292118072509766 55.420166015625 62.793521881103516 61.723670959472656 59.196964263916016 65.25106048583984 C 53.79717254638672 62.98142623901367 53.513343811035156 41.99070358276367 55.16472625732422 38.388465881347656 C 54.14055252075195 52.0043830871582 49.42715072631836 33.70097732543945 60.743309020996094 43.26668930053711 C 108.70623779296875 54.97023391723633 83.14988708496094 46.923587799072266 68.99264526367188 54.39505386352539" stroke-width="0.0" fill="rgb(0, 198, 147)" opacity="0.98144805" stroke="rgb(63, 128, 79)" stroke-opacity="0.37303486" stroke-linecap="round" stroke-linejoin="round"/>
    <path d="M 136.53009033203125 76.91790008544922 C 118.10676574707031 112.65377044677734 110.1412582397461 107.33662414550781 59.874168395996094 107.64386749267578 C 56.05547332763672 108.7538833618164 58.26933288574219 111.491455078125 56.92667007446289 95.83344268798828 C 67.19926452636719 106.48676300048828 73.49752044677734 90.30831909179688 68.65248107910156 99.58795166015625 C 119.69725799560547 98.84748077392578 61.09311294555664 81.47986602783203 136.53009033203125 76.91790008544922" stroke-width="0.0" fill="rgb(174, 0, 0)" opacity="0.82823294" stroke="rgb(85, 235, 219)" stroke-opacity="0.048690297" stroke-linecap="round" stroke-linejoin="round"/>
    <path d="M 47.860816955566406 42.392086029052734 C 20.55255126953125 55.35716247558594 34.934688568115234 53.006221771240234 40.3697509765625 67.52461242675781 C 21.335847854614258 49.967281341552734 32.74662399291992 54.78081512451172 40.734832763671875 66.00106048583984 C 36.186248779296875 65.11126708984375 46.260005950927734 62.63157653808594 49.96549987792969 43.10294723510742 C 33.751094818115234 49.36582946777344 38.46977233886719 45.98021697998047 47.860816955566406 42.392086029052734" stroke-width="0.0" fill="rgb(0, 0, 0)" opacity="0.74438596" stroke="rgb(26, 88, 188)" stroke-opacity="0.68051445" stroke-linecap="round" stroke-linejoin="round"/>
    <path d="M 97.82882690429688 97.08523559570312 C 91.13030242919922 102.20611572265625 83.91987609863281 77.17884826660156 58.1631965637207 80.7264404296875 C 53.92097854614258 92.64264678955078 47.551570892333984 111.94463348388672 100.92362213134766 103.72541809082031 C 75.81053924560547 79.92475891113281 64.39901733398438 80.46533203125 84.95357513427734 80.23015594482422 C 146.31417846679688 68.75830078125 136.14804077148438 79.88800811767578 97.82882690429688 97.08523559570312" stroke-width="0.0" fill="rgb(191, 0, 0)" opacity="0.58607024" stroke="rgb(52, 87, 172)" stroke-opacity="0.8792348" stroke-linecap="round" stroke-linejoin="round"/>
    <path d="M 66.6866683959961 32.039649963378906 C 66.65007781982422 25.73273468017578 64.16097259521484 30.206655502319336 61.77902603149414 34.35082244873047 C 65.55966186523438 37.88790512084961 59.868709564208984 40.37052536010742 58.24748229980469 29.20417022705078 C 57.8604621887207 24.971757888793945 58.5804328918457 24.164705276489258 60.81895446777344 27.986865997314453 C 64.03781127929688 41.0796012878418 64.64688110351562 44.0314826965332 66.6866683959961 32.039649963378906" stroke-width="0.0" fill="rgb(0, 0, 0)" opacity="0.914073" stroke="rgb(7, 181, 2)" stroke-opacity="0.37267908" stroke-linecap="round" stroke-linejoin="round"/>
    <path d="M 67.93092346191406 126.22543334960938 C 57.27156448364258 117.52011108398438 67.572998046875 126.19009399414062 105.62781524658203 117.57528686523438 C 52.06768798828125 113.40440368652344 -6.998326778411865 121.14900970458984 64.19551849365234 132.76171875 C 69.78437042236328 120.82954406738281 73.8653564453125 120.6278076171875 59.88144302368164 122.2624740600586 C 62.29573440551758 121.75297546386719 65.25716400146484 122.00027465820312 67.93092346191406 126.22543334960938" stroke-width="0.0" fill="rgb(16, 5, 8)" opacity="0.88530904" stroke="rgb(22, 103, 6)" stroke-opacity="0.34261099" stroke-linecap="round" stroke-linejoin="round"/>
  </g>
</svg>
