<?xml version="1.0" ?>
<svg xmlns="http://www.w3.org/2000/svg" version="1.1" width="512" height="512">
  <defs/>
  <g>
    <path stroke-width="0" fill="rgb(101, 129, 138)" opacity="1.0307083" stroke="rgb(139, 182, 153)" stroke-opacity="1.0" stroke-linecap="round" stroke-linejoin="round" d="M 223.7321319580078 2.4488375186920166 C 161.82086181640625 4.4727373123168945 193.34979248046875 50.29228210449219 67.45902252197266 130.1800994873047 C 58.17720031738281 122.41925048828125 55.588069915771484 110.84394073486328 53.52931213378906 87.32664489746094 C 57.903831481933594 -68.93704223632812 69.14767456054688 -69.71195220947266 85.59364318847656 -59.82932662963867 C 196.87753295898438 -32.08443832397461 204.85226440429688 -25.4820499420166 223.7321319580078 2.4488375186920166"/>
    <path stroke-width="0" fill="rgb(93, 128, 133)" opacity="0.9943297" stroke="rgb(108, 164, 111)" stroke-opacity="1.0" stroke-linecap="round" stroke-linejoin="round" d="M 145.40370178222656 83.15374755859375 C 155.1192626953125 158.33514404296875 160.42808532714844 170.8500213623047 98.68473052978516 172.3730926513672 C -60.77919006347656 166.43023681640625 -47.74129867553711 136.50534057617188 -41.06509780883789 85.29373168945312 C -38.50617218017578 -35.472816467285156 -31.483736038208008 -40.57529067993164 48.526397705078125 -37.12380599975586 C 114.32940673828125 -39.324806213378906 134.1034393310547 -46.89508819580078 145.40370178222656 83.15374755859375"/>
    <path stroke-width="0" fill="rgb(89, 131, 135)" opacity="1.0251244" stroke="rgb(245, 97, 201)" stroke-opacity="1.0" stroke-linecap="round" stroke-linejoin="round" d="M 491.6737060546875 531.190673828125 C 350.8706970214844 582.8856811523438 327.6231384277344 574.8817749023438 -39.52774429321289 555.3480224609375 C -75.76151275634766 413.1372375488281 -51.65288543701172 351.97052001953125 -48.37940979003906 136.2564239501953 C -55.15319061279297 97.86585998535156 -58.8011360168457 85.10303497314453 144.88107299804688 84.5620346069336 C 262.8564758300781 79.60237884521484 394.53759765625 32.20286178588867 491.6737060546875 531.190673828125"/>
    <path stroke-width="0" fill="rgb(84, 128, 139)" opacity="1.0007663" stroke="rgb(144, 236, 18)" stroke-opacity="1.0" stroke-linecap="round" stroke-linejoin="round" d="M 552.04296875 550.4341430664062 C 342.68731689453125 510.3817138671875 284.0920715332031 423.8551940917969 159.42347717285156 320.1072082519531 C 77.45052337646484 170.3534393310547 59.25503158569336 159.14505004882812 55.3650016784668 139.16195678710938 C 180.91812133789062 25.000085830688477 130.90367126464844 -28.682462692260742 451.8811340332031 -51.674381256103516 C 555.062744140625 -124.77310180664062 573.008544921875 -219.4150390625 552.04296875 550.4341430664062"/>
    <path stroke-width="0" fill="rgb(260, 245, 201)" opacity="1.0363203" stroke="rgb(5, 212, 198)" stroke-opacity="1.0" stroke-linecap="round" stroke-linejoin="round" d="M 370.91864013671875 367.296630859375 C 336.1486511230469 302.0084228515625 378.6677551269531 429.22015380859375 336.0539855957031 391.4277038574219 C 336.68408203125 287.5699157714844 243.9581298828125 478.67889404296875 286.12799072265625 311.4482116699219 C 240.2651824951172 245.59495544433594 287.6231994628906 227.95643615722656 280.18304443359375 306.3838195800781 C 375.1966247558594 219.57566833496094 341.22900390625 339.3910217285156 370.91864013671875 367.296630859375"/>
    <path stroke-width="0" fill="rgb(237, 248, 256)" opacity="1.0119134" stroke="rgb(249, 203, 117)" stroke-opacity="1.0" stroke-linecap="round" stroke-linejoin="round" d="M 256.9843444824219 345.31085205078125 C 240.2209930419922 357.8197021484375 286.8381652832031 361.1450500488281 228.6781768798828 354.2205505371094 C 213.49688720703125 351.7651672363281 197.6288299560547 325.6733093261719 203.766845703125 346.1707458496094 C 183.63775634765625 300.48638916015625 174.591796875 298.8497009277344 188.75401306152344 296.2354736328125 C 263.6976623535156 316.2228698730469 252.0324249267578 282.726806640625 256.9843444824219 345.31085205078125"/>
    <path stroke-width="0" fill="rgb(265, 222, 86)" opacity="1.1073357" stroke="rgb(30, 163, 36)" stroke-opacity="1.0" stroke-linecap="round" stroke-linejoin="round" d="M 390.0094909667969 331.0273132324219 C 392.6842956542969 385.4198913574219 383.9925231933594 375.47930908203125 346.21441650390625 352.61737060546875 C 382.15460205078125 337.2237854003906 326.5227966308594 328.3573303222656 283.0741271972656 307.8278503417969 C 224.7334747314453 283.3365783691406 296.2332763671875 218.03463745117188 347.76904296875 285.2489929199219 C 336.8264465332031 300.10577392578125 366.4473876953125 264.89044189453125 390.0094909667969 331.0273132324219"/>
    <path stroke-width="0" fill="rgb(274, 167, 46)" opacity="1.0305614" stroke="rgb(133, 105, 67)" stroke-opacity="1.0" stroke-linecap="round" stroke-linejoin="round" d="M 309.00506591796875 93.86692810058594 C 317.6938171386719 240.2999725341797 145.9048309326172 252.3248291015625 235.7039794921875 74.54592895507812 C 175.86318969726562 165.70314025878906 155.29457092285156 247.60499572753906 188.4108428955078 121.2640380859375 C 225.6944122314453 51.403724670410156 215.3977813720703 60.650394439697266 232.3556365966797 61.10807418823242 C 247.290283203125 104.6905517578125 227.58523559570312 127.20960998535156 309.00506591796875 93.86692810058594"/>
    <path stroke-width="0" fill="rgb(277, 177, 76)" opacity="1.0163159" stroke="rgb(116, 144, 4)" stroke-opacity="1.0" stroke-linecap="round" stroke-linejoin="round" d="M 302.9781188964844 320.9501647949219 C 316.6968078613281 323.4862976074219 389.7784729003906 337.4972839355469 200.54481506347656 302.6739196777344 C 197.25518798828125 287.7540588378906 158.55056762695312 407.9923400878906 158.7605438232422 246.57772827148438 C 231.6446075439453 -33.68109130859375 144.64256286621094 236.5885009765625 256.5857238769531 240.95411682128906 C 286.6240539550781 250.46827697753906 258.1217956542969 143.1034393310547 302.9781188964844 320.9501647949219"/>
    <path stroke-width="0" fill="rgb(249, 261, 262)" opacity="1.0019519" stroke="rgb(156, 157, 240)" stroke-opacity="1.0" stroke-linecap="round" stroke-linejoin="round" d="M 231.35995483398438 209.0196990966797 C 301.4142150878906 279.1098937988281 172.8549346923828 247.75042724609375 199.2791290283203 192.50296020507812 C 305.3482666015625 313.57305908203125 169.40330505371094 118.67098999023438 238.6825714111328 233.6911163330078 C 181.0843963623047 190.306396484375 140.61328125 119.2303237915039 277.77667236328125 194.08319091796875 C 315.3648376464844 270.93798828125 178.12838745117188 161.40333557128906 231.35995483398438 209.0196990966797"/>
    <path stroke-width="0" fill="rgb(291, 177, 58)" opacity="1.0056698" stroke="rgb(91, 111, 177)" stroke-opacity="1.0" stroke-linecap="round" stroke-linejoin="round" d="M 168.8963623046875 280.0998229980469 C 136.53126525878906 260.42724609375 227.4398193359375 274.7877197265625 181.4788360595703 407.4909362792969 C 98.30934143066406 417.35821533203125 192.8572540283203 424.8941955566406 160.07472229003906 303.8268737792969 C 157.25039672851562 160.63662719726562 180.97019958496094 282.99273681640625 184.30084228515625 128.2128143310547 C 373.7149353027344 39.011505126953125 100.02532958984375 212.6224822998047 168.8963623046875 280.0998229980469"/>
    <path stroke-width="0" fill="rgb(277, 242, 121)" opacity="1.0052861" stroke="rgb(170, 171, 53)" stroke-opacity="1.0" stroke-linecap="round" stroke-linejoin="round" d="M 283.740966796875 327.361328125 C 259.34326171875 406.4051818847656 278.9928283691406 426.0061340332031 271.0577697753906 407.8086242675781 C 232.4711456298828 404.7167663574219 246.82032775878906 443.25299072265625 245.8485565185547 347.9554443359375 C 242.44454956054688 335.52886962890625 222.09840393066406 316.8430480957031 266.2567138671875 276.9112854003906 C 279.7986755371094 210.80409240722656 288.6653747558594 236.8781280517578 283.740966796875 327.361328125"/>
    <path stroke-width="0" fill="rgb(236, 225, 184)" opacity="0.83998936" stroke="rgb(80, 92, 145)" stroke-opacity="1.0" stroke-linecap="round" stroke-linejoin="round" d="M 159.2832489013672 400.5589599609375 C 177.83041381835938 383.0909729003906 143.09796142578125 384.76202392578125 146.59976196289062 403.3637390136719 C 200.66920471191406 402.3280944824219 168.24111938476562 414.1698303222656 183.1531524658203 391.7294006347656 C 134.4547882080078 406.8123779296875 144.86903381347656 375.6800231933594 188.7845001220703 395.3778991699219 C 139.64659118652344 369.3254699707031 176.80264282226562 409.25018310546875 159.2832489013672 400.5589599609375"/>
    <path stroke-width="0" fill="rgb(270, 158, 52)" opacity="0.8747853" stroke="rgb(166, 64, 118)" stroke-opacity="1.0" stroke-linecap="round" stroke-linejoin="round" d="M 195.04510498046875 333.3749694824219 C 207.94383239746094 339.9636535644531 192.47802734375 345.0643310546875 198.95440673828125 322.3496398925781 C 194.6488800048828 366.0191955566406 219.86244201660156 313.22576904296875 199.2373046875 347.9419860839844 C 213.0664520263672 353.0184326171875 204.40420532226562 339.5087585449219 187.1045684814453 365.9203796386719 C 189.2825469970703 348.75982666015625 190.86854553222656 367.41650390625 195.04510498046875 333.3749694824219"/>
    <path stroke-width="0" fill="rgb(279, 271, 237)" opacity="0.9378968" stroke="rgb(50, 94, 209)" stroke-opacity="1.0" stroke-linecap="round" stroke-linejoin="round" d="M 180.49586486816406 385.5245361328125 C 179.52572631835938 410.4554138183594 170.56954956054688 409.32672119140625 213.18333435058594 397.8518371582031 C 147.80081176757812 415.05804443359375 175.8403778076172 414.3777770996094 145.88229370117188 410.4685974121094 C 147.66677856445312 375.24755859375 159.60708618164062 407.06298828125 161.8396453857422 389.2703857421875 C 120.5242919921875 374.27471923828125 179.98301696777344 400.2700500488281 180.49586486816406 385.5245361328125"/>
    <path stroke-width="0" fill="rgb(79, 126, 136)" opacity="0.99113125" stroke="rgb(72, 30, 75)" stroke-opacity="1.0" stroke-linecap="round" stroke-linejoin="round" d="M 443.9543762207031 623.87646484375 C -28.203351974487305 435.97650146484375 497.32049560546875 362.6817321777344 518.3927001953125 334.9397277832031 C 263.8472900390625 420.5921630859375 494.90155029296875 359.6838684082031 317.49560546875 256.88824462890625 C 245.9171600341797 258.3924560546875 308.94781494140625 224.3733673095703 296.40789794921875 121.8553466796875 C 344.99285888671875 61.40439987182617 697.2816162109375 -15.010781288146973 443.9543762207031 623.87646484375"/>
    <path stroke-width="0" fill="rgb(195, 118, 7)" opacity="0.62140673" stroke="rgb(146, 236, 81)" stroke-opacity="1.0" stroke-linecap="round" stroke-linejoin="round" d="M 193.7456512451172 83.54137420654297 C 199.51132202148438 114.27635955810547 203.73379516601562 113.1428451538086 196.54669189453125 115.5389404296875 C 190.06573486328125 122.72771453857422 191.64610290527344 112.31751251220703 200.12220764160156 111.3839111328125 C 198.58738708496094 103.75712585449219 197.884765625 103.20938110351562 198.7247314453125 105.53541564941406 C 197.24195861816406 97.16845703125 200.60467529296875 117.52398681640625 193.7456512451172 83.54137420654297"/>
    <path stroke-width="0" fill="rgb(82, 26, 52)" opacity="0.84191155" stroke="rgb(33, 182, 73)" stroke-opacity="1.0" stroke-linecap="round" stroke-linejoin="round" d="M 292.6722412109375 128.41949462890625 C 304.9316101074219 177.1035919189453 293.11474609375 127.55300903320312 299.2945251464844 133.43362426757812 C 296.3440246582031 132.90846252441406 298.4498596191406 138.56610107421875 298.1627502441406 123.12855529785156 C 287.88262939453125 175.28578186035156 305.37591552734375 139.293212890625 298.161865234375 168.8677520751953 C 298.0740661621094 110.83807373046875 289.47308349609375 180.2278289794922 292.6722412109375 128.41949462890625"/>
    <path stroke-width="0" fill="rgb(280, 136, 8)" opacity="1.1156318" stroke="rgb(149, 5, 211)" stroke-opacity="1.0" stroke-linecap="round" stroke-linejoin="round" d="M 270.045166015625 194.63050842285156 C 280.4000549316406 195.10630798339844 269.04998779296875 190.8249969482422 265.35760498046875 186.81771850585938 C 293.8611145019531 181.01319885253906 249.76351928710938 191.91799926757812 242.68861389160156 183.7491912841797 C 184.5762481689453 143.5240936279297 307.5508117675781 181.5888671875 289.71636962890625 169.7842254638672 C 288.23663330078125 203.23577880859375 326.1525573730469 203.05157470703125 270.045166015625 194.63050842285156"/>
    <path stroke-width="0" fill="rgb(25, 29, 73)" opacity="0.47979367" stroke="rgb(172, 68, 187)" stroke-opacity="1.0" stroke-linecap="round" stroke-linejoin="round" d="M 302.1501770019531 103.14104461669922 C 296.0442810058594 106.2120590209961 335.44525146484375 77.53076934814453 290.2967224121094 130.70611572265625 C 326.91278076171875 93.42415618896484 321.6571350097656 82.72359466552734 275.3964538574219 106.68646240234375 C 265.23468017578125 108.01453399658203 352.09649658203125 72.20895385742188 280.96246337890625 118.65036010742188 C 286.4259033203125 131.48202514648438 272.7221984863281 121.8816146850586 302.1501770019531 103.14104461669922"/>
    <path stroke-width="0" fill="rgb(49, -27, 47)" opacity="0.5611128" stroke="rgb(63, 146, 150)" stroke-opacity="1.0" stroke-linecap="round" stroke-linejoin="round" d="M 294.046630859375 100.21379852294922 C 287.9206237792969 102.42036437988281 308.5512390136719 92.10270690917969 299.2881164550781 95.86160278320312 C 320.6893310546875 91.92642974853516 301.8988952636719 98.34376525878906 305.35382080078125 91.61412048339844 C 300.3643493652344 108.79759979248047 324.696044921875 96.15520477294922 291.4368591308594 97.92259979248047 C 279.4863586425781 109.72064208984375 239.5804901123047 113.65665435791016 294.046630859375 100.21379852294922"/>
    <path stroke-width="0" fill="rgb(-24, -29, -31)" opacity="1.0142903" stroke="rgb(56, 242, 114)" stroke-opacity="1.0" stroke-linecap="round" stroke-linejoin="round" d="M 178.0741424560547 153.19671630859375 C 181.28250122070312 133.8564910888672 184.26625061035156 133.66885375976562 180.8948974609375 141.23507690429688 C 206.99180603027344 86.14115905761719 184.0965118408203 115.32353210449219 179.6607208251953 154.60157775878906 C 171.5928497314453 162.85618591308594 170.60321044921875 177.62564086914062 175.95553588867188 169.59706115722656 C 167.18418884277344 180.5756378173828 178.50936889648438 179.35426330566406 178.0741424560547 153.19671630859375"/>
    <path stroke-width="0" fill="rgb(33, -7, -27)" opacity="0.9063172" stroke="rgb(178, 75, 207)" stroke-opacity="1.0" stroke-linecap="round" stroke-linejoin="round" d="M 218.50643920898438 88.6133041381836 C 230.9528045654297 79.87712860107422 227.99110412597656 83.369384765625 226.9999237060547 106.38121032714844 C 181.21461486816406 155.54364013671875 216.3468780517578 111.57160949707031 223.210205078125 93.05447387695312 C 209.35057067871094 127.66519927978516 210.16624450683594 97.806640625 213.0942840576172 101.0376968383789 C 229.2520751953125 91.32437896728516 202.5745086669922 112.14460754394531 218.50643920898438 88.6133041381836"/>
    <path stroke-width="0" fill="rgb(-30, -6, 0)" opacity="1.0247236" stroke="rgb(224, 148, 224)" stroke-opacity="1.0" stroke-linecap="round" stroke-linejoin="round" d="M 288.98297119140625 222.30731201171875 C 290.85723876953125 212.07350158691406 281.9527587890625 229.16244506835938 300.18853759765625 207.23036193847656 C 304.0584411621094 188.52777099609375 280.3596496582031 207.13560485839844 279.09405517578125 199.9750518798828 C 291.949951171875 184.81983947753906 271.6375427246094 216.14288330078125 281.8963928222656 193.57192993164062 C 283.808837890625 212.2816162109375 284.8844299316406 203.23280334472656 288.98297119140625 222.30731201171875"/>
    <path stroke-width="0" fill="rgb(57, 42, 37)" opacity="0.64260936" stroke="rgb(108, 154, 4)" stroke-opacity="1.0" stroke-linecap="round" stroke-linejoin="round" d="M 239.19772338867188 413.82220458984375 C 253.70565795898438 381.32525634765625 221.789794921875 425.7746276855469 274.5078430175781 415.0040588378906 C 250.9893798828125 408.2420654296875 287.753173828125 436.77935791015625 268.7951354980469 391.995361328125 C 271.7547607421875 429.0008850097656 256.0828857421875 408.65692138671875 270.2997131347656 415.36114501953125 C 210.48974609375 415.7963562011719 261.8466491699219 393.837158203125 239.19772338867188 413.82220458984375"/>
    <path stroke-width="0" fill="rgb(102, 120, 135)" opacity="0.61635417" stroke="rgb(168, 73, 157)" stroke-opacity="1.0" stroke-linecap="round" stroke-linejoin="round" d="M 147.8700408935547 363.34954833984375 C 195.01588439941406 387.15875244140625 142.310791015625 383.58935546875 169.31224060058594 381.11260986328125 C 173.83912658691406 380.5513000488281 162.5733642578125 382.5207214355469 159.69119262695312 345.6070861816406 C 147.28475952148438 384.5411376953125 153.97703552246094 362.87628173828125 159.31414794921875 345.19287109375 C 173.10427856445312 361.9588623046875 167.7799072265625 376.1562805175781 147.8700408935547 363.34954833984375"/>
    <path stroke-width="0" fill="rgb(84, 37, -29)" opacity="0.37804577" stroke="rgb(34, 76, 145)" stroke-opacity="1.0" stroke-linecap="round" stroke-linejoin="round" d="M 233.19834899902344 113.29637145996094 C 197.95074462890625 120.65789031982422 214.66403198242188 95.4409408569336 227.2568359375 103.11676788330078 C 192.10450744628906 65.49297332763672 219.10069274902344 73.53648376464844 197.12059020996094 103.05811309814453 C 186.20106506347656 146.29139709472656 193.0225830078125 71.9852523803711 226.5581817626953 104.3944091796875 C 229.57000732421875 75.63272857666016 169.41839599609375 82.23577880859375 233.19834899902344 113.29637145996094"/>
    <path stroke-width="0" fill="rgb(98, 19, 27)" opacity="0.60046595" stroke="rgb(146, 166, 166)" stroke-opacity="1.0" stroke-linecap="round" stroke-linejoin="round" d="M 173.49606323242188 202.106201171875 C 172.87681579589844 201.61805725097656 174.0570526123047 198.4463653564453 174.63082885742188 188.5361785888672 C 167.41241455078125 209.86492919921875 177.54034423828125 149.74392700195312 174.36961364746094 199.2011260986328 C 166.58212280273438 204.171142578125 175.86329650878906 190.40838623046875 168.84085083007812 200.49761962890625 C 177.38731384277344 197.1420135498047 171.77847290039062 199.60476684570312 173.49606323242188 202.106201171875"/>
    <path stroke-width="0" fill="rgb(121, -26, -64)" opacity="0.34644982" stroke="rgb(228, 93, 111)" stroke-opacity="1.0" stroke-linecap="round" stroke-linejoin="round" d="M 233.8671112060547 116.9946060180664 C 242.2633819580078 100.34463500976562 231.65077209472656 59.143798828125 238.83407592773438 85.8442611694336 C 220.0823974609375 120.65350341796875 232.09890747070312 139.1136932373047 217.71340942382812 104.45161437988281 C 238.24343872070312 91.31962585449219 290.15826416015625 138.04241943359375 264.67913818359375 113.2588119506836 C 235.15745544433594 104.86124420166016 251.27532958984375 89.4982681274414 233.8671112060547 116.9946060180664"/>
    <path stroke-width="0" fill="rgb(232, 183, 168)" opacity="0.6024033" stroke="rgb(205, 179, 25)" stroke-opacity="1.0" stroke-linecap="round" stroke-linejoin="round" d="M 198.48294067382812 103.2027587890625 C 237.99481201171875 87.07171630859375 187.3070068359375 132.49288940429688 214.14329528808594 101.99896240234375 C 247.42208862304688 109.83119201660156 225.85458374023438 51.609046936035156 213.57810974121094 93.21531677246094 C 181.7322235107422 64.37753295898438 224.58987426757812 83.36774444580078 215.57379150390625 121.4454574584961 C 254.0255889892578 80.90757751464844 214.8096160888672 103.04429626464844 198.48294067382812 103.2027587890625"/>
    <path stroke-width="0" fill="rgb(226, 171, 122)" opacity="0.40769562" stroke="rgb(205, 145, 103)" stroke-opacity="1.0" stroke-linecap="round" stroke-linejoin="round" d="M 290.82342529296875 144.88714599609375 C 284.6983642578125 120.2698974609375 266.3143615722656 140.58726501464844 283.952880859375 128.6858367919922 C 291.5438537597656 152.82188415527344 279.01995849609375 138.79273986816406 293.82080078125 145.70628356933594 C 295.95745849609375 153.01437377929688 293.34649658203125 110.98181915283203 298.1422119140625 146.3405303955078 C 273.19158935546875 139.45169067382812 293.9545593261719 145.26451110839844 290.82342529296875 144.88714599609375"/>
    <path stroke-width="0" fill="rgb(108, 106, 141)" opacity="0.7112975" stroke="rgb(177, 115, 184)" stroke-opacity="1.0" stroke-linecap="round" stroke-linejoin="round" d="M 155.2078857421875 190.6632537841797 C 170.0253143310547 201.85009765625 171.92233276367188 196.92848205566406 164.7466583251953 208.82423400878906 C 169.4918212890625 216.7635498046875 158.18557739257812 216.1868133544922 166.99368286132812 224.64990234375 C 169.6644287109375 207.83297729492188 170.30914306640625 211.33584594726562 163.55516052246094 218.52395629882812 C 175.02682495117188 203.2354736328125 172.20394897460938 202.00552368164062 155.2078857421875 190.6632537841797"/>
    <path stroke-width="0" fill="rgb(213, 162, 234)" opacity="0.86824334" stroke="rgb(248, 218, 2)" stroke-opacity="1.0" stroke-linecap="round" stroke-linejoin="round" d="M 289.71771240234375 224.1006317138672 C 300.2565002441406 193.50540161132812 317.9936828613281 221.33401489257812 241.37977600097656 233.967529296875 C 251.57479858398438 249.92332458496094 243.72174072265625 231.48069763183594 263.2905578613281 231.71533203125 C 276.51568603515625 219.6472930908203 275.5016174316406 244.86289978027344 258.05413818359375 238.4081268310547 C 226.74069213867188 219.63720703125 286.1207275390625 209.114501953125 289.71771240234375 224.1006317138672"/>
    <path stroke-width="0" fill="rgb(-8, 110, 79)" opacity="0.46943125" stroke="rgb(186, 43, 132)" stroke-opacity="1.0" stroke-linecap="round" stroke-linejoin="round" d="M 217.7923583984375 207.0902557373047 C 228.64492797851562 187.5587921142578 218.56512451171875 225.54019165039062 227.28465270996094 207.1781005859375 C 245.3582305908203 217.22747802734375 256.1430969238281 200.94039916992188 218.2058868408203 214.31724548339844 C 215.2469482421875 193.2596893310547 222.981689453125 197.76702880859375 224.43408203125 204.88340759277344 C 213.68321228027344 215.2056884765625 240.98106384277344 231.54273986816406 217.7923583984375 207.0902557373047"/>
    <path stroke-width="0" fill="rgb(258, 112, -11)" opacity="0.44191942" stroke="rgb(88, 236, 179)" stroke-opacity="1.0" stroke-linecap="round" stroke-linejoin="round" d="M 286.3021545410156 264.4283142089844 C 278.64227294921875 254.76611328125 291.36236572265625 249.07168579101562 286.1984558105469 263.72283935546875 C 290.7662658691406 259.901611328125 279.43585205078125 259.3541259765625 291.7740478515625 262.84722900390625 C 325.9920654296875 263.6344909667969 342.15692138671875 262.511474609375 283.7296142578125 263.2327575683594 C 305.15301513671875 259.6700134277344 304.12225341796875 339.0035095214844 286.3021545410156 264.4283142089844"/>
    <path stroke-width="0" fill="rgb(-42, -12, 33)" opacity="0.82835156" stroke="rgb(41, 158, 147)" stroke-opacity="1.0" stroke-linecap="round" stroke-linejoin="round" d="M 224.56336975097656 198.8963165283203 C 224.62339782714844 217.57460021972656 216.40879821777344 211.03121948242188 280.66607666015625 227.5832977294922 C 280.2733459472656 212.83688354492188 232.24771118164062 220.57765197753906 246.85626220703125 235.502685546875 C 209.1034393310547 206.67974853515625 253.3341827392578 210.14505004882812 239.3470916748047 211.9928741455078 C 242.06639099121094 212.02793884277344 247.24484252929688 201.16250610351562 224.56336975097656 198.8963165283203"/>
    <path stroke-width="0" fill="rgb(42, 24, -11)" opacity="0.99943733" stroke="rgb(238, 156, 136)" stroke-opacity="1.0" stroke-linecap="round" stroke-linejoin="round" d="M 305.5360107421875 191.24801635742188 C 291.842041015625 178.69007873535156 273.3856506347656 174.29611206054688 292.1796875 167.74774169921875 C 297.5887756347656 172.54769897460938 281.8870544433594 158.79885864257812 293.32073974609375 165.8334503173828 C 284.6235656738281 176.89939880371094 285.7138366699219 175.80807495117188 309.07305908203125 207.30767822265625 C 280.70697021484375 179.1774444580078 287.5406188964844 174.92474365234375 305.5360107421875 191.24801635742188"/>
    <path stroke-width="0" fill="rgb(81, 6, 30)" opacity="0.65916073" stroke="rgb(186, 79, 101)" stroke-opacity="1.0" stroke-linecap="round" stroke-linejoin="round" d="M 167.6335906982422 217.18814086914062 C 168.2733917236328 213.26535034179688 168.12001037597656 219.84271240234375 167.32666015625 214.50042724609375 C 167.73609924316406 224.4706573486328 173.08331298828125 175.66172790527344 160.76547241210938 242.89004516601562 C 158.35723876953125 236.56394958496094 168.38401794433594 228.97540283203125 161.75192260742188 226.26905822753906 C 166.14447021484375 216.9056396484375 163.99874877929688 239.67254638671875 167.6335906982422 217.18814086914062"/>
    <path stroke-width="0" fill="rgb(80, 46, -3)" opacity="0.80132544" stroke="rgb(57, 64, 14)" stroke-opacity="1.0" stroke-linecap="round" stroke-linejoin="round" d="M 156.97862243652344 268.5290222167969 C 159.65960693359375 266.396240234375 158.6088104248047 282.8995666503906 158.1916046142578 253.6669464111328 C 170.83718872070312 221.8762664794922 153.0097198486328 209.34095764160156 159.30355834960938 304.2091979980469 C 165.4904327392578 315.3536376953125 156.7649383544922 311.6637268066406 158.55027770996094 237.3616943359375 C 153.73130798339844 294.3184509277344 156.5228729248047 278.58782958984375 156.97862243652344 268.5290222167969"/>
    <path stroke-width="0" fill="rgb(259, 264, 259)" opacity="0.8082815" stroke="rgb(6, 17, 173)" stroke-opacity="1.0" stroke-linecap="round" stroke-linejoin="round" d="M 345.3154602050781 364.2691345214844 C 347.6529541015625 396.37744140625 372.7420654296875 361.6310119628906 337.50250244140625 379.248046875 C 375.1423034667969 320.14434814453125 314.46966552734375 368.7453918457031 317.58135986328125 350.03985595703125 C 280.60504150390625 321.0221862792969 350.7605895996094 312.1111145019531 351.6932373046875 346.6680908203125 C 309.3459167480469 344.29498291015625 323.7558898925781 377.80194091796875 345.3154602050781 364.2691345214844"/>
    <path stroke-width="0" fill="rgb(70, -6, -32)" opacity="0.9799329" stroke="rgb(136, 228, 252)" stroke-opacity="1.0" stroke-linecap="round" stroke-linejoin="round" d="M 317.01434326171875 258.8122863769531 C 411.2744140625 323.6861572265625 383.09185791015625 306.0964660644531 353.3895263671875 286.7954406738281 C 343.0706787109375 281.3347473144531 355.1694641113281 280.91302490234375 355.0892639160156 289.94580078125 C 356.8113098144531 403.3188781738281 360.7851257324219 377.73870849609375 356.5699768066406 299.370361328125 C 347.4421691894531 300.4906311035156 351.85693359375 270.85205078125 317.01434326171875 258.8122863769531"/>
    <path stroke-width="0" fill="rgb(-20, -3, -4)" opacity="0.9189563" stroke="rgb(81, 97, 150)" stroke-opacity="1.0" stroke-linecap="round" stroke-linejoin="round" d="M 250.9841766357422 219.23873901367188 C 239.5059051513672 202.0741424560547 208.34080505371094 212.95347595214844 268.396484375 228.4920196533203 C 262.236572265625 219.90045166015625 227.5637664794922 220.690673828125 253.01141357421875 238.89073181152344 C 270.6300964355469 251.9059295654297 279.0073547363281 236.43167114257812 260.7398681640625 242.15882873535156 C 257.34820556640625 228.6011962890625 252.0992431640625 235.95040893554688 250.9841766357422 219.23873901367188"/>
    <path stroke-width="0" fill="rgb(288, 287, 234)" opacity="0.81894106" stroke="rgb(160, 222, 69)" stroke-opacity="1.0" stroke-linecap="round" stroke-linejoin="round" d="M 180.13482666015625 390.342529296875 C 199.6989288330078 378.9861755371094 158.5489501953125 407.9791259765625 164.9389190673828 373.0765075683594 C 165.85073852539062 394.6932678222656 170.83230590820312 388.23028564453125 159.3046112060547 397.3598937988281 C 175.86099243164062 362.88299560546875 159.66213989257812 355.5144958496094 165.1256866455078 349.7590637207031 C 161.1062774658203 367.7786865234375 184.87611389160156 339.97686767578125 180.13482666015625 390.342529296875"/>
    <path stroke-width="0" fill="rgb(92, 123, 142)" opacity="1.037945" stroke="rgb(47, 242, 175)" stroke-opacity="1.0" stroke-linecap="round" stroke-linejoin="round" d="M 317.300537109375 354.80218505859375 C 319.7769470214844 364.1692810058594 318.71063232421875 344.49835205078125 321.190185546875 354.8185729980469 C 311.57196044921875 350.71771240234375 299.8920593261719 311.1939697265625 299.0597839355469 372.2907409667969 C 335.6495056152344 364.9214172363281 317.2587890625 336.5607604980469 284.3319396972656 316.0967102050781 C 337.7702941894531 338.8912658691406 300.6979064941406 327.5345153808594 317.300537109375 354.80218505859375"/>
    <path stroke-width="0" fill="rgb(83, -31, -36)" opacity="0.8069823" stroke="rgb(241, 186, 64)" stroke-opacity="1.0" stroke-linecap="round" stroke-linejoin="round" d="M 284.6086730957031 259.83465576171875 C 283.0760803222656 242.80726623535156 287.06317138671875 264.83599853515625 307.1258850097656 252.27813720703125 C 300.98370361328125 254.78118896484375 292.8937072753906 255.84080505371094 316.6639709472656 258.48065185546875 C 332.85723876953125 257.2059631347656 385.518310546875 327.9454650878906 325.9405822753906 261.61566162109375 C 314.9742431640625 267.8850402832031 315.12353515625 242.30868530273438 284.6086730957031 259.83465576171875"/>
    <path stroke-width="0" fill="rgb(-57, 2, 11)" opacity="0.9053121" stroke="rgb(132, 6, 52)" stroke-opacity="1.0" stroke-linecap="round" stroke-linejoin="round" d="M 203.18638610839844 100.99993133544922 C 203.63809204101562 99.46218872070312 194.85086059570312 85.605712890625 201.77154541015625 95.9061508178711 C 200.82760620117188 87.8792724609375 215.1183624267578 58.42767333984375 189.1697540283203 120.81903839111328 C 220.35679626464844 64.66861724853516 210.59710693359375 55.45366668701172 236.51864624023438 63.88631820678711 C 218.25929260253906 45.492374420166016 197.89720153808594 88.71739959716797 203.18638610839844 100.99993133544922"/>
    <path stroke-width="0" fill="rgb(23, -19, -39)" opacity="1.0369229" stroke="rgb(182, 100, 144)" stroke-opacity="1.0" stroke-linecap="round" stroke-linejoin="round" d="M 305.620849609375 198.7894744873047 C 302.765625 193.759521484375 314.1990661621094 221.1898956298828 304.9153137207031 221.25038146972656 C 300.2802734375 192.6866912841797 319.6324768066406 203.35171508789062 297.8659362792969 221.13536071777344 C 291.1026611328125 223.59649658203125 325.3844909667969 233.90065002441406 265.7340087890625 225.02955627441406 C 287.28448486328125 221.80462646484375 311.7124328613281 219.1271209716797 305.620849609375 198.7894744873047"/>
    <path stroke-width="0" fill="rgb(179, 119, 100)" opacity="0.4735324" stroke="rgb(140, 149, 245)" stroke-opacity="1.0" stroke-linecap="round" stroke-linejoin="round" d="M 215.78773498535156 75.4679946899414 C 227.72250366210938 96.07479858398438 203.9873504638672 96.88434600830078 215.12396240234375 102.03984832763672 C 231.3992919921875 69.51703643798828 207.93609619140625 73.17803955078125 181.96568298339844 77.64573669433594 C 202.8719940185547 83.3814468383789 177.96734619140625 101.12879943847656 186.15708923339844 76.85140228271484 C 218.25596618652344 70.39912414550781 245.8890380859375 84.37683868408203 215.78773498535156 75.4679946899414"/>
    <path stroke-width="0" fill="rgb(280, 184, 51)" opacity="0.9767847" stroke="rgb(86, 245, 59)" stroke-opacity="1.0" stroke-linecap="round" stroke-linejoin="round" d="M 278.7347412109375 316.0249328613281 C 278.91082763671875 316.08526611328125 271.1551818847656 336.3094482421875 337.588134765625 274.6047058105469 C 258.6752014160156 224.17459106445312 286.08831787109375 322.8688049316406 323.5990295410156 289.5964050292969 C 311.1315002441406 349.9115295410156 271.5314025878906 304.24969482421875 291.36102294921875 291.57586669921875 C 320.31939697265625 281.41864013671875 286.4604797363281 346.1419982910156 278.7347412109375 316.0249328613281"/>
    <path stroke-width="0" fill="rgb(260, 249, 235)" opacity="0.41132346" stroke="rgb(240, 203, 160)" stroke-opacity="1.0" stroke-linecap="round" stroke-linejoin="round" d="M 260.0087585449219 184.16708374023438 C 259.0793762207031 204.2255401611328 265.923828125 215.01544189453125 295.8487243652344 236.85096740722656 C 300.95318603515625 216.62301635742188 308.9649353027344 217.45883178710938 305.56842041015625 210.6131134033203 C 308.2831115722656 257.9620666503906 267.6036071777344 232.2749481201172 285.7128601074219 230.66871643066406 C 256.7840576171875 198.64828491210938 269.4156188964844 213.831298828125 260.0087585449219 184.16708374023438"/>
    <path stroke-width="0" fill="rgb(103, 32, 22)" opacity="0.71526104" stroke="rgb(88, 37, 250)" stroke-opacity="1.0" stroke-linecap="round" stroke-linejoin="round" d="M 274.35858154296875 346.72454833984375 C 292.67987060546875 311.6634216308594 278.8640441894531 313.39349365234375 284.9154968261719 328.8087158203125 C 286.892578125 331.31451416015625 285.4808044433594 260.1648254394531 281.6626281738281 319.2960205078125 C 291.2860107421875 341.59716796875 292.1749267578125 306.7904968261719 320.3564758300781 322.149169921875 C 255.59547424316406 309.4925842285156 290.6041259765625 373.31585693359375 274.35858154296875 346.72454833984375"/>
    <path stroke-width="0" fill="rgb(95, 135, 166)" opacity="0.3999281" stroke="rgb(126, 163, 93)" stroke-opacity="1.0" stroke-linecap="round" stroke-linejoin="round" d="M 202.34617614746094 73.88917541503906 C 210.0911407470703 66.7100830078125 218.3116912841797 74.28553771972656 206.41207885742188 70.07300567626953 C 210.56341552734375 62.04970169067383 210.82098388671875 31.27745819091797 208.44003295898438 61.3664436340332 C 207.60057067871094 69.3403091430664 228.4105987548828 58.456787109375 230.92198181152344 57.30539321899414 C 199.37796020507812 52.1736946105957 219.95213317871094 81.61797332763672 202.34617614746094 73.88917541503906"/>
    <path stroke-width="0" fill="rgb(83, 119, 138)" opacity="0.8234086" stroke="rgb(209, 48, 130)" stroke-opacity="1.0" stroke-linecap="round" stroke-linejoin="round" d="M 226.59042358398438 52.02836990356445 C 193.3877716064453 51.1639404296875 181.30299377441406 45.33331298828125 186.68748474121094 65.182861328125 C 159.5000457763672 96.78084564208984 155.49424743652344 107.6498031616211 184.09552001953125 108.22900390625 C 233.0870819091797 63.83237075805664 207.78541564941406 19.715839385986328 178.7402801513672 32.221282958984375 C 148.90830993652344 81.51438903808594 188.39427185058594 70.28096008300781 226.59042358398438 52.02836990356445"/>
    <path stroke-width="0" fill="rgb(282, 128, 46)" opacity="0.559923" stroke="rgb(24, 219, 248)" stroke-opacity="1.0" stroke-linecap="round" stroke-linejoin="round" d="M 229.05003356933594 106.61935424804688 C 226.77828979492188 87.28102111816406 224.96534729003906 82.06048583984375 241.1890411376953 83.3968734741211 C 215.23614501953125 63.77540969848633 231.8443603515625 75.27008819580078 227.48960876464844 88.15514373779297 C 233.77337646484375 94.61839294433594 232.80775451660156 89.65279388427734 233.13290405273438 74.4153060913086 C 229.06588745117188 81.18971252441406 237.28155517578125 59.22224426269531 229.05003356933594 106.61935424804688"/>
    <path stroke-width="0" fill="rgb(287, 139, 3)" opacity="0.49684718" stroke="rgb(103, 59, 33)" stroke-opacity="1.0" stroke-linecap="round" stroke-linejoin="round" d="M 229.0209197998047 62.01188278198242 C 210.44692993164062 66.85904693603516 214.36766052246094 83.95313262939453 235.4234161376953 92.86323547363281 C 240.32667541503906 117.96932983398438 236.3482666015625 125.50668334960938 226.82456970214844 121.63325500488281 C 242.84295654296875 119.55448913574219 238.3129425048828 81.35969543457031 213.91224670410156 97.48712158203125 C 208.86351013183594 80.78486633300781 216.93441772460938 84.66683197021484 229.0209197998047 62.01188278198242"/>
    <path stroke-width="0" fill="rgb(261, 162, -27)" opacity="0.7696083" stroke="rgb(185, 2, 196)" stroke-opacity="1.0" stroke-linecap="round" stroke-linejoin="round" d="M 176.78936767578125 98.16478729248047 C 193.04383850097656 80.98979187011719 194.78811645507812 114.55319213867188 203.01760864257812 93.21508026123047 C 206.7900390625 175.7898712158203 210.47866821289062 78.77468872070312 203.7210235595703 107.59143829345703 C 210.34872436523438 93.26274871826172 177.96705627441406 104.47785186767578 175.95050048828125 95.61516571044922 C 195.750244140625 109.23639678955078 197.0137939453125 80.53900909423828 176.78936767578125 98.16478729248047"/>
    <path stroke-width="0" fill="rgb(96, 114, 142)" opacity="0.87978035" stroke="rgb(66, 116, 174)" stroke-opacity="1.0" stroke-linecap="round" stroke-linejoin="round" d="M 180.2212371826172 101.01419830322266 C 177.91258239746094 93.80889129638672 196.93630981445312 166.7674102783203 175.6825714111328 104.37692260742188 C 152.5212860107422 113.53364562988281 134.695068359375 137.9868927001953 160.93618774414062 109.29730987548828 C 177.21763610839844 107.23500061035156 178.93447875976562 100.38400268554688 172.12014770507812 62.98102951049805 C 184.8818817138672 115.92241668701172 179.81781005859375 112.65574645996094 180.2212371826172 101.01419830322266"/>
    <path stroke-width="0" fill="rgb(185, 130, 121)" opacity="0.6299959" stroke="rgb(72, 96, 46)" stroke-opacity="1.0" stroke-linecap="round" stroke-linejoin="round" d="M 222.05845642089844 87.96292114257812 C 213.28004455566406 88.76520538330078 251.55010986328125 92.49090576171875 221.5814666748047 77.69014739990234 C 239.8189697265625 82.42823791503906 229.6210479736328 117.94525909423828 211.86546325683594 98.53250885009766 C 206.9450225830078 110.2485122680664 234.22146606445312 79.21795654296875 212.8304901123047 78.87574768066406 C 222.4362030029297 81.84845733642578 225.8866424560547 100.79470825195312 222.05845642089844 87.96292114257812"/>
    <path stroke-width="0" fill="rgb(90, 125, 134)" opacity="0.57171017" stroke="rgb(147, 244, 164)" stroke-opacity="1.0" stroke-linecap="round" stroke-linejoin="round" d="M 226.9688262939453 78.09720611572266 C 176.17674255371094 77.02277374267578 206.4834442138672 83.11017608642578 188.57237243652344 100.36016845703125 C 172.6957550048828 167.5631866455078 107.07939147949219 265.4388122558594 -47.43316650390625 120.05880737304688 C 179.54197692871094 16.554893493652344 157.5612030029297 84.6571273803711 228.10980224609375 77.73758697509766 C 238.36578369140625 72.3914566040039 229.31329345703125 89.49842834472656 226.9688262939453 78.09720611572266"/>
    <path stroke-width="0" fill="rgb(88, 125, 140)" opacity="0.9986397" stroke="rgb(109, 130, 136)" stroke-opacity="1.0" stroke-linecap="round" stroke-linejoin="round" d="M 198.26954650878906 93.8836669921875 C 196.67005920410156 83.09038543701172 154.6622772216797 80.17259216308594 168.8741455078125 95.03197479248047 C 182.16729736328125 127.06634521484375 155.25564575195312 137.30419921875 175.37384033203125 77.52244567871094 C 152.25799560546875 87.79951477050781 161.2049102783203 74.50015258789062 157.93690490722656 74.87274169921875 C 185.7838134765625 98.16400146484375 185.28904724121094 121.04373168945312 198.26954650878906 93.8836669921875"/>
    <path stroke-width="0" fill="rgb(101, 121, 160)" opacity="0.53445804" stroke="rgb(70, 32, 100)" stroke-opacity="1.0" stroke-linecap="round" stroke-linejoin="round" d="M 286.63232421875 118.6117172241211 C 297.83001708984375 112.24588012695312 288.923828125 120.86404418945312 297.82061767578125 132.48390197753906 C 278.64666748046875 120.42797088623047 313.9300231933594 102.10932922363281 307.44970703125 138.93167114257812 C 308.0851745605469 125.04509735107422 313.6437072753906 107.5220718383789 332.70172119140625 102.111572265625 C 320.7418518066406 107.51455688476562 322.352294921875 100.52032470703125 286.63232421875 118.6117172241211"/>
    <path stroke-width="0" fill="rgb(244, 104, 57)" opacity="0.6458175" stroke="rgb(47, 230, 138)" stroke-opacity="1.0" stroke-linecap="round" stroke-linejoin="round" d="M 281.3189697265625 319.1994934082031 C 285.8287353515625 313.04315185546875 279.71160888671875 279.96539306640625 288.9406433105469 318.78082275390625 C 310.3740234375 320.1518859863281 280.511474609375 335.7045593261719 288.35211181640625 297.4005432128906 C 288.0470886230469 245.4627685546875 288.5641784667969 254.7393035888672 280.38336181640625 324.1947021484375 C 286.13360595703125 326.033935546875 289.4770202636719 318.560791015625 281.3189697265625 319.1994934082031"/>
    <path stroke-width="0" fill="rgb(264, 172, 57)" opacity="0.46741888" stroke="rgb(224, 116, 184)" stroke-opacity="1.0" stroke-linecap="round" stroke-linejoin="round" d="M 303.7353515625 114.8548812866211 C 291.08648681640625 101.72684478759766 297.3705139160156 68.15522003173828 299.87457275390625 121.45570373535156 C 293.9625549316406 118.84809112548828 298.03057861328125 90.95214080810547 294.28839111328125 117.27682495117188 C 305.38153076171875 137.7681121826172 284.1650085449219 116.5373306274414 290.68731689453125 126.59754180908203 C 289.9664611816406 118.33318328857422 282.76898193359375 112.07310485839844 303.7353515625 114.8548812866211"/>
    <path stroke-width="0" fill="rgb(267, 211, 13)" opacity="0.66095364" stroke="rgb(230, 175, 178)" stroke-opacity="1.0" stroke-linecap="round" stroke-linejoin="round" d="M 307.73785400390625 102.19192504882812 C 296.52099609375 117.43582153320312 287.70318603515625 131.2310028076172 273.8552551269531 141.41529846191406 C 293.3414611816406 120.1048355102539 288.57293701171875 100.40986633300781 290.4852600097656 138.56747436523438 C 315.2095947265625 96.10210418701172 285.10003662109375 102.33307647705078 298.727294921875 128.03488159179688 C 280.1063232421875 100.81695556640625 305.6046447753906 132.05804443359375 307.73785400390625 102.19192504882812"/>
    <path stroke-width="0" fill="rgb(273, 179, 47)" opacity="0.69632405" stroke="rgb(203, 244, 116)" stroke-opacity="1.0" stroke-linecap="round" stroke-linejoin="round" d="M 282.1921691894531 137.11312866210938 C 296.6368713378906 121.2321548461914 296.614013671875 104.2027359008789 294.23492431640625 134.33065795898438 C 311.372314453125 96.0499038696289 294.666259765625 125.77403259277344 303.089599609375 111.08424377441406 C 305.98614501953125 112.9189224243164 279.46331787109375 123.89349365234375 311.077880859375 105.49656677246094 C 290.512451171875 126.80410766601562 296.74920654296875 117.8573226928711 282.1921691894531 137.11312866210938"/>
    <path stroke-width="0" fill="rgb(239, 190, 65)" opacity="0.57556367" stroke="rgb(65, 216, 8)" stroke-opacity="1.0" stroke-linecap="round" stroke-linejoin="round" d="M 297.1715393066406 116.74077606201172 C 278.75872802734375 136.34222412109375 279.72955322265625 143.10061645507812 275.7732849121094 134.41343688964844 C 277.983154296875 138.67103576660156 282.0485534667969 128.63612365722656 277.6681213378906 160.70188903808594 C 278.7917785644531 147.03628540039062 285.73876953125 140.70654296875 265.4446716308594 146.8034210205078 C 274.1752624511719 131.1094970703125 273.4830627441406 152.57919311523438 297.1715393066406 116.74077606201172"/>
    <path stroke-width="0" fill="rgb(83, 34, 23)" opacity="0.74131614" stroke="rgb(90, 90, 4)" stroke-opacity="1.0" stroke-linecap="round" stroke-linejoin="round" d="M 275.2989807128906 342.35321044921875 C 282.5329284667969 344.5069885253906 275.451171875 342.0836181640625 277.89678955078125 340.2744445800781 C 274.7698974609375 332.7415771484375 270.36883544921875 308.58453369140625 280.9075012207031 361.8829040527344 C 273.4264831542969 385.11181640625 272.1735534667969 335.2577209472656 281.57305908203125 313.6650695800781 C 277.5791015625 360.45745849609375 286.5547180175781 342.6780090332031 275.2989807128906 342.35321044921875"/>
    <path stroke-width="0" fill="rgb(247, 149, 56)" opacity="0.45709538" stroke="rgb(221, 115, 83)" stroke-opacity="1.0" stroke-linecap="round" stroke-linejoin="round" d="M 297.3083190917969 240.24069213867188 C 306.3815612792969 182.9060821533203 316.1108703613281 208.85520935058594 299.624755859375 237.3917694091797 C 282.75604248046875 182.26971435546875 274.79205322265625 151.8955841064453 262.4940185546875 173.04171752929688 C 272.1958312988281 144.263916015625 276.3693542480469 145.03717041015625 266.747314453125 169.3351287841797 C 274.4907531738281 167.1846160888672 287.3762512207031 188.26634216308594 297.3083190917969 240.24069213867188"/>
    <path stroke-width="0" fill="rgb(87, 125, 136)" opacity="0.68905246" stroke="rgb(17, 64, 56)" stroke-opacity="1.0" stroke-linecap="round" stroke-linejoin="round" d="M 165.8877410888672 139.9759521484375 C 178.10986328125 121.880615234375 171.41683959960938 129.31105041503906 171.57102966308594 171.37806701660156 C 180.74453735351562 166.15431213378906 176.9244384765625 140.11573791503906 159.74635314941406 144.5366973876953 C 175.29212951660156 152.5713348388672 187.42103576660156 122.968994140625 147.13133239746094 129.6629180908203 C 158.28878784179688 156.5357208251953 173.97254943847656 163.87901306152344 165.8877410888672 139.9759521484375"/>
    <path stroke-width="0" fill="rgb(261, 195, 55)" opacity="0.5772523" stroke="rgb(33, 3, 29)" stroke-opacity="1.0" stroke-linecap="round" stroke-linejoin="round" d="M 223.46722412109375 155.8515625 C 195.3859100341797 136.16390991210938 207.6958770751953 163.36488342285156 192.76551818847656 178.9714813232422 C 211.08139038085938 136.37232971191406 204.44406127929688 144.88314819335938 192.8579559326172 146.91127014160156 C 178.77798461914062 132.85134887695312 196.73214721679688 137.1959991455078 190.3748321533203 178.07608032226562 C 175.2051544189453 174.5594940185547 185.5721893310547 175.72239685058594 223.46722412109375 155.8515625"/>
    <path stroke-width="0" fill="rgb(-36, 13, 0)" opacity="0.76195836" stroke="rgb(162, 125, 252)" stroke-opacity="1.0" stroke-linecap="round" stroke-linejoin="round" d="M 296.4180908203125 219.09486389160156 C 294.34051513671875 272.3301086425781 279.6560974121094 208.909912109375 303.876220703125 243.23208618164062 C 287.18743896484375 220.230712890625 299.7759704589844 210.4039306640625 298.3772277832031 233.17478942871094 C 294.877197265625 186.03810119628906 292.75628662109375 209.07708740234375 289.88818359375 205.64682006835938 C 292.04791259765625 225.24166870117188 320.3428649902344 254.43531799316406 296.4180908203125 219.09486389160156"/>
    <path stroke-width="0" fill="rgb(164, 156, 126)" opacity="0.7321568" stroke="rgb(199, 73, 61)" stroke-opacity="1.0" stroke-linecap="round" stroke-linejoin="round" d="M 319.6178283691406 213.8135223388672 C 303.7144775390625 218.85263061523438 295.9465637207031 222.72267150878906 317.335693359375 234.12844848632812 C 301.9974670410156 224.11927795410156 306.1435546875 215.6154327392578 285.2675476074219 237.8666229248047 C 305.1630554199219 244.75277709960938 311.9439697265625 235.2580108642578 297.7347106933594 234.38829040527344 C 300.2964782714844 229.24935913085938 322.5938720703125 206.8408966064453 319.6178283691406 213.8135223388672"/>
    <path stroke-width="0" fill="rgb(137, 235, 223)" opacity="0.7868626" stroke="rgb(91, 211, 235)" stroke-opacity="1.0" stroke-linecap="round" stroke-linejoin="round" d="M 275.155517578125 202.24334716796875 C 284.2061462402344 198.38912963867188 314.8102722167969 184.3954315185547 294.2427673339844 239.83328247070312 C 308.34967041015625 236.36289978027344 337.0011901855469 217.2904510498047 275.0025329589844 221.14173889160156 C 306.58978271484375 211.61790466308594 313.0843811035156 208.80538940429688 312.2525634765625 218.9263153076172 C 316.0236511230469 201.24554443359375 290.8172302246094 201.5081787109375 275.155517578125 202.24334716796875"/>
    <path stroke-width="0" fill="rgb(253, 255, 255)" opacity="1.050027" stroke="rgb(247, 230, 75)" stroke-opacity="1.0" stroke-linecap="round" stroke-linejoin="round" d="M 202.40655517578125 212.00856018066406 C 208.27308654785156 213.3108673095703 199.8203125 196.57278442382812 214.88833618164062 204.38426208496094 C 217.01983642578125 199.5077362060547 225.43653869628906 204.1490478515625 227.33050537109375 225.62574768066406 C 221.71824645996094 240.04811096191406 189.20526123046875 232.37319946289062 212.3965301513672 174.0345916748047 C 221.521240234375 169.4234619140625 197.9095916748047 184.9633331298828 202.40655517578125 212.00856018066406"/>
    <path stroke-width="0" fill="rgb(229, 261, 278)" opacity="0.9994629" stroke="rgb(63, 27, 242)" stroke-opacity="1.0" stroke-linecap="round" stroke-linejoin="round" d="M 302.46044921875 225.61807250976562 C 284.6507263183594 225.55677795410156 311.8410949707031 214.02877807617188 309.9671936035156 212.62530517578125 C 305.41864013671875 185.78387451171875 297.4617919921875 229.83023071289062 266.9308776855469 220.12155151367188 C 246.3720245361328 197.5358123779297 225.44223022460938 203.8035888671875 277.9631042480469 216.06919860839844 C 318.9894714355469 230.2932586669922 330.518310546875 205.5816650390625 302.46044921875 225.61807250976562"/>
    <path stroke-width="0" fill="rgb(-27, -22, -6)" opacity="0.65242416" stroke="rgb(69, 96, 95)" stroke-opacity="1.0" stroke-linecap="round" stroke-linejoin="round" d="M 300.4724426269531 196.28428649902344 C 276.8831787109375 226.15431213378906 310.48748779296875 240.19668579101562 320.138427734375 233.5758056640625 C 300.7738952636719 239.24986267089844 287.3124694824219 246.3619384765625 300.4355163574219 231.72109985351562 C 302.9549865722656 246.3553924560547 302.158203125 229.96188354492188 282.3996887207031 201.8116455078125 C 317.02099609375 190.08474731445312 304.9656677246094 212.59970092773438 300.4724426269531 196.28428649902344"/>
    <path stroke-width="0" fill="rgb(302, 180, -43)" opacity="0.89758265" stroke="rgb(213, 60, 128)" stroke-opacity="1.0" stroke-linecap="round" stroke-linejoin="round" d="M 213.005859375 81.84502410888672 C 250.3984375 82.38391876220703 233.92381286621094 105.85822296142578 232.8383026123047 88.96502685546875 C 208.24917602539062 81.08843994140625 195.92922973632812 98.1004867553711 224.9130096435547 61.707645416259766 C 229.34938049316406 84.12657928466797 245.08889770507812 63.48432540893555 224.68609619140625 70.3665771484375 C 225.2359161376953 66.3265380859375 259.1180419921875 84.34815216064453 213.005859375 81.84502410888672"/>
    <path stroke-width="0" fill="rgb(257, 190, 86)" opacity="0.54071987" stroke="rgb(18, 74, 38)" stroke-opacity="1.0" stroke-linecap="round" stroke-linejoin="round" d="M 276.4856262207031 257.544921875 C 269.3804626464844 254.42230224609375 258.053466796875 252.58702087402344 262.08160400390625 254.21044921875 C 207.4075164794922 259.060791015625 217.6965789794922 249.1423797607422 185.6663360595703 219.82501220703125 C 232.13575744628906 261.9187316894531 264.9009094238281 250.1938934326172 211.06982421875 256.1184997558594 C 189.18096923828125 255.89303588867188 248.1257781982422 252.75604248046875 276.4856262207031 257.544921875"/>
    <path stroke-width="0" fill="rgb(173, 100, 83)" opacity="0.6146615" stroke="rgb(33, 154, 97)" stroke-opacity="1.0" stroke-linecap="round" stroke-linejoin="round" d="M 223.72390747070312 52.98502731323242 C 197.74581909179688 66.73562622070312 214.6771697998047 81.05847930908203 207.66419982910156 73.8779067993164 C 211.44381713867188 73.95045471191406 209.21859741210938 66.90157318115234 212.8485870361328 85.08438873291016 C 211.03436279296875 100.4048080444336 233.57810974121094 62.656070709228516 213.77845764160156 86.419189453125 C 208.78123474121094 64.47627258300781 208.0853271484375 62.063026428222656 223.72390747070312 52.98502731323242"/>
    <path stroke-width="0" fill="rgb(126, 101, 126)" opacity="1.0503111" stroke="rgb(246, 139, 70)" stroke-opacity="1.0" stroke-linecap="round" stroke-linejoin="round" d="M 301.3211364746094 241.22511291503906 C 290.48883056640625 240.3984375 274.5774230957031 230.81153869628906 329.0705871582031 227.39950561523438 C 312.1181640625 230.90945434570312 297.7449645996094 223.98963928222656 264.62841796875 227.00216674804688 C 296.6164855957031 225.68099975585938 284.5438232421875 242.28140258789062 307.5656433105469 196.58084106445312 C 271.0945739746094 164.79502868652344 332.2110595703125 201.17506408691406 301.3211364746094 241.22511291503906"/>
    <path stroke-width="0" fill="rgb(147, 112, 94)" opacity="0.2658961" stroke="rgb(228, 103, 140)" stroke-opacity="1.0" stroke-linecap="round" stroke-linejoin="round" d="M 216.602783203125 97.65199279785156 C 218.87356567382812 86.42056274414062 219.65663146972656 87.08646392822266 222.6359405517578 96.70161437988281 C 206.799560546875 58.15382766723633 204.4052276611328 58.128414154052734 207.80496215820312 61.98041915893555 C 209.15072631835938 58.516536712646484 207.87030029296875 69.34159851074219 200.48416137695312 52.339176177978516 C 214.6238250732422 75.94148254394531 225.98873901367188 98.61796569824219 216.602783203125 97.65199279785156"/>
    <path stroke-width="0" fill="rgb(84, 129, 135)" opacity="1.0017006" stroke="rgb(116, 102, 63)" stroke-opacity="1.0" stroke-linecap="round" stroke-linejoin="round" d="M 325.4649658203125 192.81930541992188 C 284.967041015625 223.1173553466797 291.3343200683594 228.66354370117188 320.2899475097656 219.4236602783203 C 301.88079833984375 230.09368896484375 278.0131530761719 213.86251831054688 281.5849914550781 237.41188049316406 C 302.8313293457031 275.5609436035156 308.7193298339844 247.46701049804688 295.3585510253906 237.23789978027344 C 306.67633056640625 251.11956787109375 333.1120910644531 277.98883056640625 325.4649658203125 192.81930541992188"/>
    <path stroke-width="0" fill="rgb(197, 64, 12)" opacity="0.61011326" stroke="rgb(79, 95, 133)" stroke-opacity="1.0" stroke-linecap="round" stroke-linejoin="round" d="M 232.0242156982422 93.6847152709961 C 256.5489196777344 101.42713165283203 263.51824951171875 104.50564575195312 245.631103515625 99.33149719238281 C 237.9402313232422 92.28600311279297 245.22264099121094 109.13697052001953 224.29373168945312 76.44329071044922 C 252.93484497070312 95.45966339111328 234.8953094482422 104.00572967529297 240.58401489257812 87.54981231689453 C 230.2148895263672 75.47574615478516 240.2495880126953 96.8934097290039 232.0242156982422 93.6847152709961"/>
    <path stroke-width="0" fill="rgb(88, 125, 137)" opacity="0.78811353" stroke="rgb(85, 235, 219)" stroke-opacity="1.0" stroke-linecap="round" stroke-linejoin="round" d="M 313.4655456542969 242.92501831054688 C 309.295654296875 243.2174530029297 301.2276306152344 238.67880249023438 362.8912048339844 239.25222778320312 C 348.6462707519531 242.98776245117188 341.38519287109375 234.18130493164062 339.4029541015625 221.5767059326172 C 354.48602294921875 274.14495849609375 311.56060791015625 269.84661865234375 334.907958984375 234.4370574951172 C 306.90716552734375 232.6117401123047 368.7150573730469 260.4920959472656 313.4655456542969 242.92501831054688"/>
    <path stroke-width="0" fill="rgb(296, 187, 9)" opacity="0.8417712" stroke="rgb(64, 113, 26)" stroke-opacity="1.0" stroke-linecap="round" stroke-linejoin="round" d="M 296.7406921386719 104.25718688964844 C 286.8687438964844 87.33586120605469 319.57452392578125 121.42608642578125 309.0965270996094 93.3026351928711 C 308.5824279785156 114.91232299804688 287.2358093261719 142.14027404785156 286.73590087890625 113.55135345458984 C 313.7539978027344 118.13996124267578 312.39068603515625 88.16757202148438 293.1629943847656 115.88455200195312 C 315.78955078125 110.26043701171875 302.7192687988281 96.75712585449219 296.7406921386719 104.25718688964844"/>
    <path stroke-width="0" fill="rgb(100, 129, 134)" opacity="0.18566906" stroke="rgb(0, 0, 0)" stroke-opacity="0.0" stroke-linecap="round" stroke-linejoin="round" d="M 130.77073669433594 16.432388305664062 C 131.195068359375 23.05547523498535 129.6792449951172 26.564485549926758 125.57249450683594 29.610427856445312 C 122.57054138183594 28.656108856201172 122.20674896240234 26.76178550720215 121.73646545410156 17.243371963500977 C 121.71875 18.546255111694336 131.27572631835938 20.15116310119629 127.22046661376953 16.0891056060791 C 124.85900115966797 17.69959831237793 131.2122344970703 16.815690994262695 130.77073669433594 16.432388305664062"/>
    <path stroke-width="0" fill="rgb(100, 124, 140)" opacity="0.1613215" stroke="rgb(0, 0, 0)" stroke-opacity="0.0" stroke-linecap="round" stroke-linejoin="round" d="M 449.09576416015625 16.618730545043945 C 453.0873718261719 20.68328094482422 449.6993408203125 23.574405670166016 444.9863586425781 26.1375789642334 C 440.84515380859375 21.609107971191406 438.5419006347656 18.160409927368164 438.45819091796875 14.841715812683105 C 435.2220458984375 9.9606294631958 437.8712158203125 6.172776699066162 442.0702209472656 7.167632579803467 C 446.8255615234375 9.415809631347656 450.0834655761719 12.056951522827148 449.09576416015625 16.618730545043945"/>
    <path stroke-width="0" fill="rgb(66, 145, 90)" opacity="0.37233683" stroke="rgb(0, 0, 0)" stroke-opacity="0.0" stroke-linecap="round" stroke-linejoin="round" d="M 17.823667526245117 4.302281379699707 C 19.049850463867188 6.349126815795898 17.66880989074707 9.87771224975586 14.712662696838379 12.665138244628906 C 19.80103302001953 13.221667289733887 15.14258861541748 10.532798767089844 9.946861267089844 9.201828002929688 C 12.217357635498047 1.9633634090423584 12.638805389404297 -2.210848569869995 20.595867156982422 -3.607877016067505 C 26.08549690246582 -0.1884746253490448 25.434757232666016 4.436646461486816 17.823667526245117 4.302281379699707"/>
    <path stroke-width="0" fill="rgb(66, 142, 150)" opacity="0.7041906" stroke="rgb(0, 0, 0)" stroke-opacity="0.0" stroke-linecap="round" stroke-linejoin="round" d="M 18.123493194580078 10.138895034790039 C 12.610608100891113 13.817116737365723 17.18443489074707 24.338376998901367 13.695367813110352 22.90279197692871 C 4.770482063293457 23.01280975341797 6.247918128967285 19.272579193115234 5.492128849029541 9.685541152954102 C -0.8049989342689514 4.376888751983643 2.604443311691284 -2.127082347869873 12.527990341186523 1.094583511352539 C 18.42028045654297 3.3958747386932373 21.930465698242188 5.1585259437561035 18.123493194580078 10.138895034790039"/>
    <path stroke-width="0" fill="rgb(94, 56, 70)" opacity="0.26746753" stroke="rgb(0, 0, 0)" stroke-opacity="0.0" stroke-linecap="round" stroke-linejoin="round" d="M 60.43182373046875 14.969765663146973 C 62.292030334472656 20.873180389404297 59.287933349609375 22.813087463378906 51.25003433227539 23.96274757385254 C 46.094268798828125 25.49417495727539 43.95729446411133 22.16785430908203 44.96074295043945 15.792961120605469 C 45.13644027709961 9.43954849243164 47.89822006225586 7.3694963455200195 51.294185638427734 8.650609970092773 C 57.304935455322266 9.461860656738281 59.569576263427734 9.519652366638184 60.43182373046875 14.969765663146973"/>
    <path stroke-width="0" fill="rgb(95, 82, 142)" opacity="0.21319163" stroke="rgb(0, 0, 0)" stroke-opacity="0.0" stroke-linecap="round" stroke-linejoin="round" d="M 22.135784149169922 9.88166618347168 C 19.61341094970703 11.951016426086426 16.760356903076172 15.251995086669922 12.65234375 14.490584373474121 C 2.2418344020843506 16.404417037963867 1.1935336589813232 16.51596450805664 1.29280686378479 10.8280668258667 C 7.276026725769043 4.239874839782715 6.217856407165527 -1.1568009853363037 12.07056999206543 -1.5099233388900757 C 18.591480255126953 -0.4855717122554779 19.537813186645508 3.8867008686065674 22.135784149169922 9.88166618347168"/>
    <path stroke-width="0" fill="rgb(142, 113, 100)" opacity="0.28470582" stroke="rgb(0, 0, 0)" stroke-opacity="0.0" stroke-linecap="round" stroke-linejoin="round" d="M 5.075988292694092 1.3827412128448486 C 9.74450969696045 8.425078392028809 9.868244171142578 12.000435829162598 5.816195011138916 13.381654739379883 C -0.062149886041879654 12.786840438842773 -2.671097755432129 9.234253883361816 -3.43428373336792 4.7896409034729 C -1.891053557395935 0.405823290348053 1.0371496677398682 -2.5223798751831055 5.333650588989258 -3.805452823638916 C 9.702837944030762 -3.4946084022521973 12.394431114196777 -1.8888708353042603 5.075988292694092 1.3827412128448486"/>
    <path stroke-width="0" fill="rgb(103, 127, 75)" opacity="0.38178766" stroke="rgb(0, 0, 0)" stroke-opacity="0.0" stroke-linecap="round" stroke-linejoin="round" d="M 13.915285110473633 -0.6915502548217773 C 14.000572204589844 7.807748317718506 17.252714157104492 10.77634048461914 13.878737449645996 8.573844909667969 C 2.892536163330078 9.60973834991455 -1.1226574182510376 6.394583702087402 2.9779210090637207 5.415261268615723 C 4.2734246253967285 -3.456005096435547 6.567081451416016 -6.526691436767578 10.852354049682617 -7.432491302490234 C 14.882150650024414 -6.34087610244751 17.669418334960938 -3.3440258502960205 13.915285110473633 -0.6915502548217773"/>
    <path stroke-width="0" fill="rgb(113, 125, 156)" opacity="0.5956388" stroke="rgb(0, 0, 0)" stroke-opacity="0.0" stroke-linecap="round" stroke-linejoin="round" d="M 277.5463562011719 4.436044692993164 C 279.17156982421875 5.900397777557373 272.40972900390625 7.949881553649902 272.70501708984375 6.629091739654541 C 269.1493835449219 6.1018242835998535 263.614013671875 5.987091541290283 267.2613830566406 5.868537902832031 C 262.0459289550781 -1.6344208717346191 265.0919494628906 -4.027102947235107 270.3376770019531 -5.3431715965271 C 275.87103271484375 -5.440366744995117 277.76385498046875 -3.1970114707946777 277.5463562011719 4.436044692993164"/>
    <path stroke-width="0" fill="rgb(52, 163, 137)" opacity="0.69920313" stroke="rgb(0, 0, 0)" stroke-opacity="0.0" stroke-linecap="round" stroke-linejoin="round" d="M 38.34329605102539 6.395936012268066 C 36.39413070678711 11.988719940185547 35.260372161865234 16.546714782714844 33.404457092285156 13.206047058105469 C 26.832603454589844 11.73238468170166 23.133014678955078 9.948895454406738 22.62703514099121 3.327383279800415 C 19.721277236938477 -0.40785565972328186 21.730737686157227 -3.1021411418914795 28.09841537475586 -3.8077218532562256 C 34.8098258972168 -1.5294393301010132 36.16543960571289 3.3541455268859863 38.34329605102539 6.395936012268066"/>
    <path stroke-width="0" fill="rgb(123, 200, 200)" opacity="0.2674433" stroke="rgb(0, 0, 0)" stroke-opacity="0.0" stroke-linecap="round" stroke-linejoin="round" d="M 58.08183670043945 15.21900749206543 C 58.899227142333984 19.37940788269043 55.721519470214844 21.804555892944336 50.034812927246094 24.434932708740234 C 47.548038482666016 24.935518264770508 44.39478302001953 22.273773193359375 44.26704788208008 15.782979011535645 C 41.85943603515625 8.076998710632324 46.0081901550293 6.753437042236328 51.26341247558594 8.730304718017578 C 57.846134185791016 10.460699081420898 61.66490936279297 12.166328430175781 58.08183670043945 15.21900749206543"/>
    <path stroke-width="0" fill="rgb(47, 137, 211)" opacity="0.44822398" stroke="rgb(0, 0, 0)" stroke-opacity="0.0" stroke-linecap="round" stroke-linejoin="round" d="M 40.69525146484375 4.586817741394043 C 39.041107177734375 8.695294380187988 40.46924591064453 17.304283142089844 38.00749206542969 16.06119728088379 C 28.272933959960938 14.784478187561035 26.845094680786133 13.653617858886719 30.276378631591797 8.895216941833496 C 28.803442001342773 1.8849984407424927 30.49631690979004 -1.929128885269165 35.61070251464844 -3.250502824783325 C 40.534358978271484 -2.2607362270355225 41.03745651245117 1.3071836233139038 40.69525146484375 4.586817741394043"/>
    <path stroke-width="0" fill="rgb(129, 148, 213)" opacity="0.11721862" stroke="rgb(0, 0, 0)" stroke-opacity="0.0" stroke-linecap="round" stroke-linejoin="round" d="M 251.44827270507812 79.82154083251953 C 250.65975952148438 85.65779113769531 251.1625213623047 87.07623291015625 244.9135284423828 86.2666015625 C 238.54742431640625 88.81427764892578 238.9109344482422 85.36824035644531 236.84942626953125 77.86529541015625 C 235.94146728515625 72.10260009765625 237.6145782470703 70.12506866455078 240.93893432617188 73.93173217773438 C 245.919189453125 76.78555297851562 254.16976928710938 78.3936996459961 251.44827270507812 79.82154083251953"/>
    <path stroke-width="0" fill="rgb(190, 153, 61)" opacity="0.4054087" stroke="rgb(0, 0, 0)" stroke-opacity="0.0" stroke-linecap="round" stroke-linejoin="round" d="M 100.5572280883789 451.0533142089844 C 100.49473571777344 455.4793395996094 99.3521499633789 456.28656005859375 94.3666000366211 454.03729248046875 C 88.2837142944336 455.5913391113281 86.35968780517578 453.107666015625 87.48705291748047 449.4643859863281 C 88.19895935058594 445.40863037109375 88.44609069824219 443.94268798828125 88.56666564941406 447.4248352050781 C 93.96565246582031 446.71051025390625 97.4239501953125 448.8617858886719 100.5572280883789 451.0533142089844"/>
    <path stroke-width="0" fill="rgb(73, 132, 148)" opacity="0.10539557" stroke="rgb(0, 0, 0)" stroke-opacity="0.0" stroke-linecap="round" stroke-linejoin="round" d="M 67.97765350341797 401.40545654296875 C 67.7011489868164 403.71600341796875 64.90998840332031 406.53961181640625 61.45436096191406 407.1237487792969 C 58.31312942504883 406.1529846191406 55.58544921875 403.01226806640625 55.50493621826172 399.8548583984375 C 54.83733367919922 394.85345458984375 55.78633499145508 391.3777160644531 58.13617706298828 394.2300109863281 C 63.06739044189453 395.8447570800781 66.14806365966797 398.4201354980469 67.97765350341797 401.40545654296875"/>
    <path stroke-width="0" fill="rgb(183, 127, 198)" opacity="0.32715163" stroke="rgb(0, 0, 0)" stroke-opacity="0.0" stroke-linecap="round" stroke-linejoin="round" d="M 32.072566986083984 -2.00068998336792 C 32.355674743652344 4.9701008796691895 32.352088928222656 10.12899112701416 28.461912155151367 7.001720905303955 C 22.98011589050293 8.37806510925293 23.909992218017578 3.835334300994873 23.238201141357422 -3.8122105598449707 C 20.115108489990234 -3.9630367755889893 23.043787002563477 -6.891108989715576 27.043787002563477 -7.9629058837890625 C 31.043787002563477 -6.891108989715576 33.971988677978516 -3.9629058837890625 32.072566986083984 -2.00068998336792"/>
    <path stroke-width="0" fill="rgb(73, 131, 152)" opacity="0.38397574" stroke="rgb(0, 0, 0)" stroke-opacity="0.0" stroke-linecap="round" stroke-linejoin="round" d="M 160.1239013671875 40.73991012573242 C 159.225341796875 48.0589485168457 158.138427734375 50.07161331176758 149.73826599121094 47.76246643066406 C 145.4608154296875 51.3123779296875 144.1497039794922 47.37189865112305 146.95278930664062 42.694332122802734 C 146.47659301757812 39.735252380371094 149.19747924804688 35.994476318359375 151.73587036132812 33.976951599121094 C 159.27487182617188 33.08662033081055 161.34034729003906 34.82766342163086 160.1239013671875 40.73991012573242"/>
    <path stroke-width="0" fill="rgb(225, 55, 58)" opacity="0.7484325" stroke="rgb(0, 0, 0)" stroke-opacity="0.0" stroke-linecap="round" stroke-linejoin="round" d="M 14.258832931518555 -16.695833206176758 C 13.18703556060791 -12.695834159851074 10.258832931518555 -9.767630577087402 6.2588324546813965 -8.695834159851074 C 2.2588326930999756 -9.767630577087402 -0.6693705320358276 -12.695834159851074 -1.7411673069000244 -16.695833206176758 C -0.6693705320358276 -20.695833206176758 2.2588326930999756 -23.62403678894043 6.2588324546813965 -24.695833206176758 C 10.258832931518555 -23.62403678894043 13.18703556060791 -20.695833206176758 14.258832931518555 -16.695833206176758"/>
    <path stroke-width="0" fill="rgb(137, 133, 140)" opacity="0.42855397" stroke="rgb(0, 0, 0)" stroke-opacity="0.0" stroke-linecap="round" stroke-linejoin="round" d="M 20.232036590576172 13.600211143493652 C 21.412534713745117 20.783132553100586 18.832324981689453 21.73140525817871 12.327815055847168 21.99348258972168 C 8.028205871582031 24.216840744018555 5.894399642944336 23.624582290649414 5.29322624206543 17.11966896057129 C 3.848036050796509 8.771739959716797 5.522222995758057 8.184621810913086 11.762810707092285 9.313636779785156 C 17.510440826416016 10.641188621520996 21.283824920654297 13.51945972442627 20.232036590576172 13.600211143493652"/>
    <path stroke-width="0" fill="rgb(152, 147, 104)" opacity="-0.036551896" stroke="rgb(0, 0, 0)" stroke-opacity="0.0" stroke-linecap="round" stroke-linejoin="round" d="M 154.6636505126953 197.48568725585938 C 154.57754516601562 199.9309539794922 152.15867614746094 204.015625 148.907470703125 204.4896240234375 C 143.44081115722656 204.61582946777344 140.63906860351562 201.75755310058594 140.49258422851562 196.99951171875 C 141.3712615966797 192.430419921875 144.39468383789062 189.64022827148438 148.2275848388672 188.5382537841797 C 151.76715087890625 190.2543182373047 154.44216918945312 193.36529541015625 154.6636505126953 197.48568725585938"/>
    <path stroke-width="0" fill="rgb(174, 146, 149)" opacity="0.010925446" stroke="rgb(0, 0, 0)" stroke-opacity="0.0" stroke-linecap="round" stroke-linejoin="round" d="M 37.995906829833984 225.0824432373047 C 38.52018737792969 229.9099578857422 38.10048294067383 232.02850341796875 33.4122200012207 230.72560119628906 C 25.17485237121582 231.72564697265625 23.013050079345703 231.98544311523438 25.56024742126465 225.38394165039062 C 22.78203773498535 218.7136688232422 26.665668487548828 215.75363159179688 31.205631256103516 216.3431854248047 C 36.049373626708984 218.42916870117188 38.81393051147461 220.3712615966797 37.995906829833984 225.0824432373047"/>
    <path stroke-width="0" fill="rgb(77, 133, 56)" opacity="0.021533232" stroke="rgb(0, 0, 0)" stroke-opacity="0.0" stroke-linecap="round" stroke-linejoin="round" d="M 91.03406524658203 432.52166748046875 C 90.37701416015625 435.52825927734375 87.75791931152344 438.78192138671875 83.25456237792969 440.2026062011719 C 79.2657470703125 438.8616943359375 77.46814727783203 435.2798767089844 79.571533203125 431.4839172363281 C 78.38358306884766 427.9236145019531 79.82919311523438 424.302734375 82.46953582763672 422.2961120605469 C 85.42327880859375 426.5169677734375 88.61692810058594 429.2315979003906 91.03406524658203 432.52166748046875"/>
    <path stroke-width="0" fill="rgb(148, 87, 193)" opacity="0.05350465" stroke="rgb(0, 0, 0)" stroke-opacity="0.0" stroke-linecap="round" stroke-linejoin="round" d="M 176.00794982910156 170.7727508544922 C 176.36343383789062 172.6871337890625 173.3071746826172 175.25177001953125 168.30313110351562 176.9449005126953 C 164.93226623535156 176.28900146484375 164.34341430664062 171.33071899414062 163.90631103515625 165.48101806640625 C 161.97923278808594 161.18875122070312 162.88768005371094 158.07772827148438 166.9835662841797 157.89889526367188 C 171.6538848876953 161.90695190429688 174.90354919433594 165.7786407470703 176.00794982910156 170.7727508544922"/>
    <path stroke-width="0" fill="rgb(75, 154, 59)" opacity="0.42261294" stroke="rgb(0, 0, 0)" stroke-opacity="0.0" stroke-linecap="round" stroke-linejoin="round" d="M 347.1910705566406 306.1959533691406 C 345.3573303222656 310.9322204589844 345.4393005371094 315.46368408203125 341.12640380859375 316.3151550292969 C 337.34698486328125 318.8572692871094 339.43719482421875 316.08233642578125 339.3849792480469 308.83319091796875 C 337.30450439453125 307.9240417480469 344.1969299316406 307.46075439453125 346.8267822265625 305.385498046875 C 346.935791015625 303.2825012207031 351.5768127441406 304.53717041015625 347.1910705566406 306.1959533691406"/>
    <path stroke-width="0" fill="rgb(49, 175, 61)" opacity="0.10565501" stroke="rgb(0, 0, 0)" stroke-opacity="0.0" stroke-linecap="round" stroke-linejoin="round" d="M 355.8117980957031 235.5474395751953 C 353.61004638671875 244.26124572753906 349.5655822753906 244.4678192138672 343.373779296875 242.9685821533203 C 340.4266357421875 243.71475219726562 338.2194519042969 240.314208984375 339.43048095703125 240.240234375 C 339.93511962890625 236.93028259277344 343.12109375 234.5006866455078 346.9645080566406 232.2954864501953 C 347.8022766113281 230.62350463867188 352.7047119140625 231.62994384765625 355.8117980957031 235.5474395751953"/>
    <path stroke-width="0" fill="rgb(99, 60, 45)" opacity="0.14429973" stroke="rgb(0, 0, 0)" stroke-opacity="0.0" stroke-linecap="round" stroke-linejoin="round" d="M 442.6390686035156 251.40248107910156 C 442.51727294921875 253.4842529296875 442.7119445800781 261.255126953125 442.5736999511719 262.6331787109375 C 440.91058349609375 254.36920166015625 437.5973205566406 252.5739288330078 433.7791442871094 249.13983154296875 C 438.16162109375 252.6248321533203 441.10601806640625 248.93943786621094 443.3669738769531 247.40257263183594 C 441.4559020996094 245.76744079589844 442.5631408691406 251.0031280517578 442.6390686035156 251.40248107910156"/>
    <path stroke-width="0" fill="rgb(194, 121, 32)" opacity="0.32767722" stroke="rgb(0, 0, 0)" stroke-opacity="0.0" stroke-linecap="round" stroke-linejoin="round" d="M 361.0394592285156 261.32537841796875 C 365.9339599609375 264.0939025878906 367.045654296875 265.5880126953125 362.53289794921875 261.7361755371094 C 350.3630065917969 262.90264892578125 349.0408630371094 261.9761047363281 351.49072265625 256.21087646484375 C 349.979248046875 248.6273193359375 352.1141052246094 244.6765594482422 355.2728576660156 248.09103393554688 C 359.0672607421875 252.53076171875 363.9877014160156 254.79141235351562 361.0394592285156 261.32537841796875"/>
    <path stroke-width="0" fill="rgb(171, 96, 69)" opacity="0.22324756" stroke="rgb(0, 0, 0)" stroke-opacity="0.0" stroke-linecap="round" stroke-linejoin="round" d="M 164.84219360351562 508.6195983886719 C 172.40184020996094 511.71038818359375 173.37261962890625 513.35302734375 165.40231323242188 515.7929077148438 C 157.0609130859375 515.0664672851562 157.14297485351562 512.02783203125 158.40945434570312 507.9288024902344 C 158.86279296875 500.4585876464844 159.03155517578125 495.1876220703125 160.59353637695312 504.9693298339844 C 164.613525390625 505.36737060546875 167.84194946289062 503.1773376464844 164.84219360351562 508.6195983886719"/>
    <path stroke-width="0" fill="rgb(22, 155, 29)" opacity="0.13345192" stroke="rgb(0, 0, 0)" stroke-opacity="0.0" stroke-linecap="round" stroke-linejoin="round" d="M -100.48587799072266 -83.45436096191406 C -101.55767822265625 -79.45436096191406 -104.48587799072266 -76.52615356445312 -108.48587799072266 -75.45436096191406 C -112.48587799072266 -76.52615356445312 -115.4140853881836 -79.45436096191406 -116.48587799072266 -83.45436096191406 C -115.4140853881836 -87.45436096191406 -112.48587799072266 -90.38256072998047 -108.48587799072266 -91.45436096191406 C -104.48587799072266 -90.38256072998047 -101.55767822265625 -87.45436096191406 -100.48587799072266 -83.45436096191406"/>
    <path stroke-width="0" fill="rgb(211, 113, 145)" opacity="0.40978274" stroke="rgb(0, 0, 0)" stroke-opacity="0.0" stroke-linecap="round" stroke-linejoin="round" d="M 449.3690490722656 372.7469177246094 C 446.2310791015625 375.3470153808594 444.8932800292969 377.9857482910156 443.6708679199219 376.08734130859375 C 435.77459716796875 376.22467041015625 435.748291015625 375.7399597167969 435.9136657714844 370.3827819824219 C 433.9918212890625 369.2109069824219 438.1908874511719 367.0103759765625 435.6731262207031 369.1048278808594 C 441.0164489746094 369.4951477050781 446.15960693359375 370.5682067871094 449.3690490722656 372.7469177246094"/>
    <path stroke-width="0" fill="rgb(190, 94, 49)" opacity="0.4656386" stroke="rgb(0, 0, 0)" stroke-opacity="0.0" stroke-linecap="round" stroke-linejoin="round" d="M 0.6215938329696655 -0.5118975043296814 C -0.27702856063842773 4.3546366691589355 -2.3263604640960693 7.896462440490723 -6.298890113830566 8.924551963806152 C -10.362608909606934 7.76533317565918 -13.290812492370605 4.837129592895508 -14.362608909606934 0.8371297717094421 C -13.290812492370605 -3.162870168685913 -10.362608909606934 -6.091073513031006 -6.363867282867432 -7.162430763244629 C -2.4274868965148926 -6.0668253898620605 0.2944573163986206 -2.9309117794036865 0.6215938329696655 -0.5118975043296814"/>
    <path stroke-width="0" fill="rgb(80, 124, 141)" opacity="0.8473518" stroke="rgb(0, 0, 0)" stroke-opacity="0.0" stroke-linecap="round" stroke-linejoin="round" d="M 137.74856567382812 384.7839050292969 C 141.52484130859375 390.0211181640625 140.73556518554688 394.1350402832031 137.64797973632812 391.7239990234375 C 125.35694885253906 394.2663269042969 125.21469116210938 392.6154479980469 126.25849151611328 384.6961364746094 C 125.5182876586914 379.45465087890625 129.66883850097656 377.4986572265625 132.9260711669922 377.4921875 C 135.948974609375 378.75238037109375 138.96530151367188 381.1148986816406 137.74856567382812 384.7839050292969"/>
    <path stroke-width="0" fill="rgb(199, 218, 249)" opacity="-0.028224064" stroke="rgb(0, 0, 0)" stroke-opacity="0.0" stroke-linecap="round" stroke-linejoin="round" d="M 44.240234375 142.8588104248047 C 45.383872985839844 147.5260009765625 43.19734191894531 151.0755157470703 38.73973846435547 152.97288513183594 C 33.79170608520508 150.2626190185547 31.70099639892578 146.48670959472656 31.034212112426758 142.74664306640625 C 31.393692016601562 138.60433959960938 33.2298698425293 134.39459228515625 37.04001235961914 134.3960723876953 C 42.524253845214844 135.2255859375 45.63756561279297 138.05274963378906 44.240234375 142.8588104248047"/>
    <path stroke-width="0" fill="rgb(213, 11, 17)" opacity="0.5931626" stroke="rgb(0, 0, 0)" stroke-opacity="0.0" stroke-linecap="round" stroke-linejoin="round" d="M 24.668621063232422 -21.762842178344727 C 23.596824645996094 -17.762842178344727 20.668621063232422 -14.834639549255371 16.668621063232422 -13.762843132019043 C 12.668622016906738 -14.834639549255371 9.740418434143066 -17.762842178344727 8.668622016906738 -21.762842178344727 C 9.740418434143066 -25.762842178344727 12.668622016906738 -28.6910457611084 16.668621063232422 -29.762842178344727 C 20.668621063232422 -28.6910457611084 23.596824645996094 -25.762842178344727 24.668621063232422 -21.762842178344727"/>
    <path stroke-width="0" fill="rgb(126, 251, 169)" opacity="0.54950905" stroke="rgb(0, 0, 0)" stroke-opacity="0.0" stroke-linecap="round" stroke-linejoin="round" d="M 108.10499572753906 -84.74349212646484 C 107.033203125 -80.74349212646484 104.10499572753906 -77.8152847290039 100.10499572753906 -76.74349212646484 C 96.10499572753906 -77.8152847290039 93.17679595947266 -80.74349212646484 92.10499572753906 -84.74349212646484 C 93.17679595947266 -88.74349212646484 96.10499572753906 -91.67169189453125 100.10499572753906 -92.74349212646484 C 104.10499572753906 -91.67169189453125 107.033203125 -88.74349212646484 108.10499572753906 -84.74349212646484"/>
    <path stroke-width="0" fill="rgb(197, 121, 32)" opacity="0.03342436" stroke="rgb(0, 0, 0)" stroke-opacity="0.0" stroke-linecap="round" stroke-linejoin="round" d="M 1.389222264289856 -17.607885360717773 C 0.3174254894256592 -13.607885360717773 -2.6107778549194336 -10.679681777954102 -6.610777854919434 -9.607885360717773 C -10.610777854919434 -10.679681777954102 -13.538981437683105 -13.607885360717773 -14.610777854919434 -17.607885360717773 C -13.538981437683105 -21.607885360717773 -10.610777854919434 -24.536088943481445 -6.610777854919434 -25.607885360717773 C -2.6107778549194336 -24.536088943481445 0.3174254894256592 -21.607885360717773 1.389222264289856 -17.607885360717773"/>
    <path stroke-width="0" fill="rgb(100, 56, 45)" opacity="0.38271177" stroke="rgb(0, 0, 0)" stroke-opacity="0.0" stroke-linecap="round" stroke-linejoin="round" d="M 60.8494758605957 458.35809326171875 C 60.40945053100586 462.9095153808594 61.380332946777344 461.4172058105469 53.65677261352539 461.30084228515625 C 49.843719482421875 461.5739440917969 45.153133392333984 459.4789123535156 48.5662841796875 458.07684326171875 C 46.35672378540039 450.6097106933594 49.8158073425293 448.62359619140625 55.59712219238281 450.50146484375 C 59.92829132080078 448.89013671875 62.51396179199219 447.8536682128906 60.8494758605957 458.35809326171875"/>
    <path stroke-width="0" fill="rgb(125, 116, 159)" opacity="0.6349932" stroke="rgb(0, 0, 0)" stroke-opacity="0.0" stroke-linecap="round" stroke-linejoin="round" d="M 198.13702392578125 461.17266845703125 C 200.77911376953125 460.9454040527344 198.38031005859375 463.549560546875 197.0740509033203 460.0557556152344 C 189.50247192382812 460.5648498535156 191.36056518554688 463.0619201660156 191.64170837402344 456.6962890625 C 188.19235229492188 453.2450256347656 190.9752197265625 453.0438232421875 201.46746826171875 455.06451416015625 C 199.81788635253906 451.3887634277344 198.5842742919922 455.7585144042969 198.13702392578125 461.17266845703125"/>
    <path stroke-width="0" fill="rgb(98, 115, 90)" opacity="0.04462434" stroke="rgb(0, 0, 0)" stroke-opacity="0.0" stroke-linecap="round" stroke-linejoin="round" d="M 133.44247436523438 413.8589782714844 C 131.0142364501953 418.6459045410156 129.01014709472656 423.56903076171875 128.55828857421875 424.3292236328125 C 123.73136138916016 419.6405334472656 121.02628326416016 416.2852783203125 118.11532592773438 414.534423828125 C 117.10005187988281 411.0269470214844 120.27403259277344 407.35418701171875 122.36737823486328 408.0627746582031 C 129.40367126464844 409.81402587890625 134.106689453125 409.1575012207031 133.44247436523438 413.8589782714844"/>
    <path stroke-width="0" fill="rgb(168, 80, 189)" opacity="0.140673" stroke="rgb(0, 0, 0)" stroke-opacity="0.0" stroke-linecap="round" stroke-linejoin="round" d="M 319.9544982910156 459.6852722167969 C 319.91558837890625 466.2862548828125 322.5579528808594 466.6230163574219 316.75701904296875 463.357177734375 C 308.40960693359375 466.2826232910156 309.6988220214844 468.5136413574219 313.64361572265625 462.83782958984375 C 311.1773376464844 458.85980224609375 313.490234375 456.5351257324219 312.9938659667969 459.10406494140625 C 316.9078063964844 462.0381774902344 324.3504638671875 459.4507141113281 319.9544982910156 459.6852722167969"/>
    <path stroke-width="0" fill="rgb(17, 205, 78)" opacity="0.05513554" stroke="rgb(0, 0, 0)" stroke-opacity="0.0" stroke-linecap="round" stroke-linejoin="round" d="M 175.14736938476562 413.865478515625 C 171.74307250976562 416.9846496582031 168.8394775390625 419.2833251953125 168.86207580566406 424.2985534667969 C 168.33721923828125 420.8066101074219 163.59210205078125 419.44195556640625 162.07666015625 417.28546142578125 C 164.68148803710938 416.42816162109375 169.83096313476562 415.1875305175781 172.96743774414062 412.6924743652344 C 173.98483276367188 411.0111999511719 178.02804565429688 413.8966979980469 175.14736938476562 413.865478515625"/>
    <path stroke-width="0" fill="rgb(84, 146, 138)" opacity="0.5451745" stroke="rgb(0, 0, 0)" stroke-opacity="0.0" stroke-linecap="round" stroke-linejoin="round" d="M 61.796226501464844 294.82330322265625 C 60.10660934448242 299.61395263671875 62.65616989135742 305.8086853027344 56.99020767211914 302.1575012207031 C 52.42831039428711 305.53631591796875 53.064727783203125 303.7249450683594 52.595394134521484 297.7070007324219 C 56.13689041137695 297.47698974609375 59.655704498291016 294.1560363769531 58.19861602783203 294.1304016113281 C 61.78659439086914 294.60394287109375 66.24031066894531 295.5436706542969 61.796226501464844 294.82330322265625"/>
    <path stroke-width="0" fill="rgb(46, 44, 68)" opacity="0.3876414" stroke="rgb(0, 0, 0)" stroke-opacity="0.0" stroke-linecap="round" stroke-linejoin="round" d="M 355.30731201171875 241.42950439453125 C 356.8541259765625 247.4143524169922 357.5816955566406 251.6712646484375 354.55914306640625 249.2780303955078 C 348.66668701171875 247.20545959472656 345.94110107421875 244.4962921142578 343.96624755859375 239.56491088867188 C 342.10797119140625 234.06573486328125 345.9507751464844 234.3284912109375 351.26495361328125 233.3233184814453 C 355.232421875 233.57449340820312 356.5272521972656 236.72996520996094 355.30731201171875 241.42950439453125"/>
  </g>
</svg>
