<?xml version="1.0" ?>
<svg xmlns="http://www.w3.org/2000/svg" version="1.1" width="512" height="512">
  <defs/>
  <g>
    <path stroke-width="0" fill="rgb(119, 128, 131)" opacity="1.016124" stroke="rgb(139, 182, 153)" stroke-opacity="1.0" stroke-linecap="round" stroke-linejoin="round" d="M 223.62489318847656 1.6694997549057007 C 161.46063232421875 3.9942867755889893 192.77420043945312 49.51203536987305 66.41667175292969 128.9884033203125 C 58.17729568481445 122.41925048828125 55.61058044433594 110.84263610839844 54.143760681152344 87.28471374511719 C 58.32453918457031 -68.84063720703125 69.49356079101562 -69.67469787597656 85.64615631103516 -59.826271057128906 C 196.87802124023438 -32.084896087646484 204.9185333251953 -25.526622772216797 223.62489318847656 1.6694997549057007"/>
    <path stroke-width="0" fill="rgb(116, 123, 130)" opacity="0.99589336" stroke="rgb(108, 164, 111)" stroke-opacity="1.0" stroke-linecap="round" stroke-linejoin="round" d="M 144.92239379882812 83.54708862304688 C 155.181640625 158.32691955566406 160.42906188964844 170.84996032714844 98.68473052978516 172.3730926513672 C -60.77919006347656 166.43023681640625 -47.74129867553711 136.50534057617188 -41.06509780883789 85.29373168945312 C -38.50617218017578 -35.472816467285156 -31.483736038208008 -40.57529067993164 48.90471649169922 -37.213802337646484 C 114.27828979492188 -39.530879974365234 133.5153045654297 -46.83159637451172 144.92239379882812 83.54708862304688"/>
    <path stroke-width="0" fill="rgb(115, 125, 134)" opacity="1.012085" stroke="rgb(245, 97, 201)" stroke-opacity="1.0" stroke-linecap="round" stroke-linejoin="round" d="M 490.7845764160156 531.6973266601562 C 350.8706970214844 582.8856811523438 327.6231384277344 574.8817749023438 -39.52774429321289 555.3480224609375 C -75.76151275634766 413.1372375488281 -51.65288543701172 351.97052001953125 -47.73705291748047 136.96087646484375 C -54.354026794433594 98.42223358154297 -58.18050003051758 85.38417053222656 144.7174530029297 84.58626556396484 C 262.7618408203125 80.41737365722656 394.64849853515625 32.966461181640625 490.7845764160156 531.6973266601562"/>
    <path stroke-width="0" fill="rgb(111, 125, 137)" opacity="0.99427783" stroke="rgb(144, 236, 18)" stroke-opacity="1.0" stroke-linecap="round" stroke-linejoin="round" d="M 551.1657104492188 551.15185546875 C 340.9527587890625 512.01904296875 281.66571044921875 426.2605285644531 159.93333435058594 320.1324462890625 C 78.77963256835938 169.03076171875 60.78559875488281 157.94406127929688 56.996280670166016 141.75506591796875 C 183.0186309814453 27.688508987426758 133.5653839111328 -25.167409896850586 455.24932861328125 -47.83522415161133 C 555.062744140625 -124.77310180664062 573.008544921875 -219.4150390625 551.1657104492188 551.15185546875"/>
    <path stroke-width="0" fill="rgb(261, 243, 192)" opacity="1.0303613" stroke="rgb(5, 212, 198)" stroke-opacity="1.0" stroke-linecap="round" stroke-linejoin="round" d="M 367.16015625 367.3089904785156 C 335.6571960449219 300.2025146484375 380.2982177734375 425.96588134765625 329.6943054199219 383.1971740722656 C 339.9239196777344 284.0125427246094 245.2476043701172 477.25048828125 287.5782775878906 313.1778259277344 C 240.2651824951172 245.59495544433594 287.6231994628906 227.95643615722656 280.4810791015625 305.3577880859375 C 375.0078125 218.84152221679688 340.3975524902344 339.3310852050781 367.16015625 367.3089904785156"/>
    <path stroke-width="0" fill="rgb(242, 247, 247)" opacity="1.0119814" stroke="rgb(249, 203, 117)" stroke-opacity="1.0" stroke-linecap="round" stroke-linejoin="round" d="M 256.6659240722656 348.0269470214844 C 238.51577758789062 359.1807556152344 289.2611083984375 358.1014709472656 221.93142700195312 355.72100830078125 C 209.86709594726562 359.6588134765625 201.59588623046875 327.6912841796875 204.50579833984375 348.66845703125 C 185.67262268066406 298.2970886230469 180.0122528076172 293.3867492675781 195.25433349609375 290.4606018066406 C 263.6235656738281 316.23046875 252.03744506835938 282.7263488769531 256.6659240722656 348.0269470214844"/>
    <path stroke-width="0" fill="rgb(262, 204, 74)" opacity="1.0821592" stroke="rgb(30, 163, 36)" stroke-opacity="1.0" stroke-linecap="round" stroke-linejoin="round" d="M 388.4103698730469 331.59503173828125 C 390.4586486816406 385.5840759277344 380.3458557128906 378.2133483886719 345.2774353027344 354.32366943359375 C 386.0158386230469 336.1523742675781 328.3219299316406 327.37579345703125 283.8133850097656 308.1649475097656 C 230.89942932128906 286.2591552734375 299.5848083496094 219.58340454101562 348.15185546875 286.6689758300781 C 340.5719909667969 300.6894226074219 365.69268798828125 264.9151306152344 388.4103698730469 331.59503173828125"/>
    <path stroke-width="0" fill="rgb(261, 188, 49)" opacity="0.9977042" stroke="rgb(133, 105, 67)" stroke-opacity="1.0" stroke-linecap="round" stroke-linejoin="round" d="M 311.54632568359375 93.406494140625 C 317.3836975097656 242.27078247070312 146.2952117919922 254.83615112304688 235.24659729003906 73.10490417480469 C 174.4811553955078 163.7229461669922 159.59512329101562 252.10276794433594 188.26504516601562 118.4124984741211 C 224.23153686523438 50.149314880371094 217.30633544921875 60.916866302490234 233.3035125732422 62.73652267456055 C 249.40695190429688 109.95316314697266 226.17591857910156 130.09481811523438 311.54632568359375 93.406494140625"/>
    <path stroke-width="0" fill="rgb(263, 166, 36)" opacity="1.0004448" stroke="rgb(116, 144, 4)" stroke-opacity="1.0" stroke-linecap="round" stroke-linejoin="round" d="M 300.99298095703125 320.4841613769531 C 317.0137939453125 323.9080505371094 388.60662841796875 338.81390380859375 204.50180053710938 302.17755126953125 C 196.49188232421875 286.7768859863281 157.71510314941406 415.5849304199219 159.63917541503906 244.7139892578125 C 229.50811767578125 -33.91734313964844 144.6498260498047 238.1542205810547 260.1155700683594 241.06539916992188 C 290.2333984375 254.00390625 255.65335083007812 148.30760192871094 300.99298095703125 320.4841613769531"/>
    <path stroke-width="0" fill="rgb(244, 253, 262)" opacity="0.9736494" stroke="rgb(156, 157, 240)" stroke-opacity="1.0" stroke-linecap="round" stroke-linejoin="round" d="M 228.09490966796875 208.75204467773438 C 303.48211669921875 276.00140380859375 175.69081115722656 243.45018005371094 196.58982849121094 194.7532958984375 C 300.6048278808594 316.36883544921875 169.46176147460938 118.39933013916016 236.36590576171875 235.36761474609375 C 182.38023376464844 189.39300537109375 142.5093536376953 118.92179107666016 275.1160888671875 193.41099548339844 C 313.2889709472656 270.43408203125 172.392333984375 161.77133178710938 228.09490966796875 208.75204467773438"/>
    <path stroke-width="0" fill="rgb(270, 180, 55)" opacity="1.0534132" stroke="rgb(91, 111, 177)" stroke-opacity="1.0" stroke-linecap="round" stroke-linejoin="round" d="M 171.95777893066406 285.83294677734375 C 135.63429260253906 260.2526550292969 224.8259735107422 269.328369140625 185.6111602783203 409.25238037109375 C 94.2558822631836 413.99761962890625 196.25241088867188 421.8785095214844 161.04391479492188 310.55194091796875 C 160.64955139160156 160.9691925048828 183.87179565429688 281.8052978515625 182.83392333984375 132.02442932128906 C 375.940673828125 43.89718246459961 104.07907104492188 218.42608642578125 171.95777893066406 285.83294677734375"/>
    <path stroke-width="0" fill="rgb(267, 217, 85)" opacity="1.0177653" stroke="rgb(170, 171, 53)" stroke-opacity="1.0" stroke-linecap="round" stroke-linejoin="round" d="M 283.96429443359375 323.5343933105469 C 260.7780456542969 405.0371398925781 283.3525695800781 430.7950134277344 272.3257751464844 400.2982177734375 C 233.44979858398438 396.4065246582031 245.24188232421875 435.8861389160156 244.79806518554688 343.90264892578125 C 251.62124633789062 339.33587646484375 230.97872924804688 319.6372985839844 268.80841064453125 276.5868225097656 C 275.7161560058594 208.42715454101562 291.31005859375 236.2189483642578 283.96429443359375 323.5343933105469"/>
    <path stroke-width="0" fill="rgb(227, 215, 186)" opacity="0.82139564" stroke="rgb(80, 92, 145)" stroke-opacity="1.0" stroke-linecap="round" stroke-linejoin="round" d="M 160.11329650878906 399.6947937011719 C 178.5668487548828 381.0636901855469 143.7124786376953 384.427490234375 148.33717346191406 406.27081298828125 C 208.5826416015625 404.1689453125 177.28636169433594 412.95233154296875 190.55029296875 391.21649169921875 C 134.8408203125 405.76702880859375 143.57135009765625 376.3341369628906 187.385009765625 398.49127197265625 C 138.81878662109375 369.2568664550781 179.1877899169922 410.0414733886719 160.11329650878906 399.6947937011719"/>
    <path stroke-width="0" fill="rgb(255, 165, 59)" opacity="0.8077562" stroke="rgb(166, 64, 118)" stroke-opacity="1.0" stroke-linecap="round" stroke-linejoin="round" d="M 196.99676513671875 333.7669677734375 C 207.56825256347656 340.45013427734375 189.41908264160156 345.4007263183594 198.48196411132812 325.0893859863281 C 194.3831024169922 370.49853515625 222.28126525878906 317.64031982421875 201.2838592529297 349.0362854003906 C 217.49937438964844 355.6873474121094 206.04336547851562 339.4313659667969 190.718505859375 363.7091369628906 C 191.88107299804688 350.8958740234375 192.76239013671875 369.5185546875 196.99676513671875 333.7669677734375"/>
    <path stroke-width="0" fill="rgb(264, 260, 230)" opacity="0.89412266" stroke="rgb(50, 94, 209)" stroke-opacity="1.0" stroke-linecap="round" stroke-linejoin="round" d="M 189.0175018310547 385.4169006347656 C 190.2296600341797 409.7529296875 175.40492248535156 406.5922546386719 212.3927764892578 395.9922180175781 C 146.03912353515625 416.3877868652344 174.8754119873047 415.8962097167969 146.75326538085938 409.12359619140625 C 149.7543182373047 375.0371398925781 159.52883911132812 409.41845703125 161.31973266601562 389.50469970703125 C 119.8551025390625 372.8848876953125 178.35914611816406 400.98785400390625 189.0175018310547 385.4169006347656"/>
    <path stroke-width="0" fill="rgb(115, 125, 135)" opacity="0.9990037" stroke="rgb(72, 30, 75)" stroke-opacity="1.0" stroke-linecap="round" stroke-linejoin="round" d="M 445.2171325683594 623.1238403320312 C -29.852886199951172 434.8341979980469 496.18426513671875 361.8377685546875 515.8606567382812 332.2044982910156 C 263.9361877441406 417.6246337890625 494.8897399902344 360.28173828125 317.2283630371094 257.7718811035156 C 245.1048583984375 259.3187561035156 308.1062316894531 221.61465454101562 298.09844970703125 124.08843994140625 C 351.3039245605469 65.14063262939453 700.0004272460938 -16.18369483947754 445.2171325683594 623.1238403320312"/>
    <path stroke-width="0" fill="rgb(170, 105, 29)" opacity="0.7144699" stroke="rgb(146, 236, 81)" stroke-opacity="1.0" stroke-linecap="round" stroke-linejoin="round" d="M 194.3347625732422 80.27616119384766 C 198.57296752929688 110.85659790039062 199.79531860351562 110.54612731933594 195.03639221191406 114.33135223388672 C 193.39962768554688 126.20840454101562 191.65255737304688 114.08789825439453 199.6651153564453 115.06159973144531 C 198.47909545898438 105.13115692138672 196.64866638183594 107.0804672241211 195.43563842773438 108.38847351074219 C 197.43116760253906 98.29027557373047 200.0986328125 118.04641723632812 194.3347625732422 80.27616119384766"/>
    <path stroke-width="0" fill="rgb(68, 31, 31)" opacity="0.8618831" stroke="rgb(33, 182, 73)" stroke-opacity="1.0" stroke-linecap="round" stroke-linejoin="round" d="M 293.4666442871094 127.06159210205078 C 304.79217529296875 178.1392059326172 291.7495422363281 131.0394287109375 300.08953857421875 137.3712615966797 C 296.8276062011719 135.60369873046875 302.6334533691406 137.85853576660156 298.9551696777344 124.11888885498047 C 287.64947509765625 176.32034301757812 308.8935546875 137.5713348388672 297.98583984375 169.64920043945312 C 298.9276123046875 111.3568115234375 288.6732482910156 180.4356231689453 293.4666442871094 127.06159210205078"/>
    <path stroke-width="0" fill="rgb(269, 165, 26)" opacity="1.0674201" stroke="rgb(149, 5, 211)" stroke-opacity="1.0" stroke-linecap="round" stroke-linejoin="round" d="M 268.9044189453125 195.5987091064453 C 284.3554382324219 193.06655883789062 269.61083984375 192.42750549316406 263.9338073730469 186.0553741455078 C 294.1911315917969 179.74569702148438 251.01979064941406 191.06935119628906 242.19827270507812 183.80308532714844 C 181.7350311279297 144.25228881835938 307.1866760253906 180.6693572998047 293.114501953125 167.59396362304688 C 285.59967041015625 201.69338989257812 317.6836242675781 198.35769653320312 268.9044189453125 195.5987091064453"/>
    <path stroke-width="0" fill="rgb(30, -11, 16)" opacity="0.6756738" stroke="rgb(172, 68, 187)" stroke-opacity="1.0" stroke-linecap="round" stroke-linejoin="round" d="M 303.5475158691406 105.57969665527344 C 295.4618225097656 101.75768280029297 338.0322570800781 76.5654525756836 293.49005126953125 132.94717407226562 C 329.322998046875 93.57763671875 324.37890625 80.75305938720703 275.5646057128906 108.83307647705078 C 264.19073486328125 107.27225494384766 353.068603515625 73.7186508178711 280.98614501953125 119.73139190673828 C 283.27130126953125 131.5836181640625 269.7894592285156 119.12130737304688 303.5475158691406 105.57969665527344"/>
    <path stroke-width="0" fill="rgb(59, -16, 26)" opacity="0.6934946" stroke="rgb(63, 146, 150)" stroke-opacity="1.0" stroke-linecap="round" stroke-linejoin="round" d="M 294.3826599121094 101.0605239868164 C 288.6096496582031 102.4924087524414 309.7889709472656 93.31259155273438 298.81439208984375 96.75142669677734 C 320.4931335449219 93.49681854248047 303.5161437988281 99.30799865722656 306.6734924316406 91.22625732421875 C 300.6253356933594 112.8967514038086 327.35260009765625 96.642333984375 290.8624572753906 97.87223815917969 C 283.2774658203125 113.33198547363281 239.15576171875 112.32484436035156 294.3826599121094 101.0605239868164"/>
    <path stroke-width="0" fill="rgb(-13, -27, -12)" opacity="0.9316811" stroke="rgb(56, 242, 114)" stroke-opacity="1.0" stroke-linecap="round" stroke-linejoin="round" d="M 178.28952026367188 152.7076416015625 C 181.25335693359375 134.1905059814453 183.57330322265625 134.0588836669922 182.2937469482422 143.05062866210938 C 206.39283752441406 87.08139038085938 181.60855102539062 113.89636993408203 181.21536254882812 154.65985107421875 C 169.51101684570312 160.0166015625 174.07557678222656 179.540771484375 181.10536193847656 171.1714324951172 C 168.50962829589844 179.48536682128906 181.2612762451172 179.38072204589844 178.28952026367188 152.7076416015625"/>
    <path stroke-width="0" fill="rgb(36, -2, -19)" opacity="0.89184123" stroke="rgb(178, 75, 207)" stroke-opacity="1.0" stroke-linecap="round" stroke-linejoin="round" d="M 218.79905700683594 87.87559509277344 C 233.09933471679688 81.25204467773438 226.0771942138672 80.78663635253906 227.39816284179688 107.85503387451172 C 182.11033630371094 154.43655395507812 214.82415771484375 108.59285736083984 224.9405975341797 91.19432067871094 C 212.1802978515625 125.60504150390625 207.19363403320312 95.33458709716797 214.05984497070312 103.66536712646484 C 233.93138122558594 91.18903350830078 204.69532775878906 111.74819946289062 218.79905700683594 87.87559509277344"/>
    <path stroke-width="0" fill="rgb(-14, -2, 4)" opacity="1.0000374" stroke="rgb(224, 148, 224)" stroke-opacity="1.0" stroke-linecap="round" stroke-linejoin="round" d="M 289.3761901855469 222.1397705078125 C 286.6553649902344 212.78907775878906 277.8846435546875 225.6936798095703 299.07745361328125 206.59820556640625 C 299.6659851074219 191.82174682617188 278.1372985839844 209.7781524658203 274.8616027832031 200.23939514160156 C 288.79644775390625 185.98350524902344 270.260986328125 216.0836944580078 277.4189147949219 193.43405151367188 C 279.30029296875 215.41798400878906 282.316650390625 204.8255615234375 289.3761901855469 222.1397705078125"/>
    <path stroke-width="0" fill="rgb(39, 44, 26)" opacity="0.6384372" stroke="rgb(108, 154, 4)" stroke-opacity="1.0" stroke-linecap="round" stroke-linejoin="round" d="M 239.22344970703125 412.0911560058594 C 251.07005310058594 382.6227111816406 220.48583984375 427.63690185546875 278.17510986328125 413.9886779785156 C 249.40228271484375 404.35797119140625 291.84197998046875 434.5543212890625 271.6632385253906 390.63818359375 C 278.0362854003906 430.60302734375 259.73028564453125 408.49957275390625 270.6065979003906 416.5569152832031 C 211.9647979736328 413.9450378417969 262.6044921875 391.82501220703125 239.22344970703125 412.0911560058594"/>
    <path stroke-width="0" fill="rgb(117, 129, 139)" opacity="0.72657627" stroke="rgb(168, 73, 157)" stroke-opacity="1.0" stroke-linecap="round" stroke-linejoin="round" d="M 148.65185546875 359.9272155761719 C 194.72372436523438 388.1488037109375 142.68243408203125 383.94482421875 170.55047607421875 379.4327392578125 C 174.67626953125 379.6190185546875 162.8970947265625 382.2583923339844 158.92152404785156 346.56658935546875 C 147.81752014160156 385.4585876464844 154.87149047851562 364.08941650390625 158.74017333984375 345.5235595703125 C 173.20523071289062 361.9915466308594 168.0089111328125 375.4672546386719 148.65185546875 359.9272155761719"/>
    <path stroke-width="0" fill="rgb(69, 17, -14)" opacity="0.5011934" stroke="rgb(34, 76, 145)" stroke-opacity="1.0" stroke-linecap="round" stroke-linejoin="round" d="M 230.5637664794922 112.86083984375 C 197.1962432861328 116.6283950805664 213.99864196777344 94.53945922851562 224.8740234375 105.2811508178711 C 189.8856964111328 66.35973358154297 218.7017364501953 73.1858139038086 195.40969848632812 104.08369445800781 C 188.2028350830078 148.45755004882812 194.20289611816406 71.63626098632812 225.03729248046875 104.11559295654297 C 229.33892822265625 75.5362319946289 168.28359985351562 84.24750518798828 230.5637664794922 112.86083984375"/>
    <path stroke-width="0" fill="rgb(46, -5, 20)" opacity="0.8489284" stroke="rgb(146, 166, 166)" stroke-opacity="1.0" stroke-linecap="round" stroke-linejoin="round" d="M 175.86892700195312 202.4288787841797 C 175.42276000976562 199.9896240234375 176.40196228027344 196.4329071044922 174.4339141845703 190.1337890625 C 164.9389190673828 208.24063110351562 177.37646484375 148.96803283691406 174.53143310546875 201.0806121826172 C 166.81472778320312 205.68539428710938 174.81187438964844 191.1620635986328 168.22653198242188 202.98626708984375 C 180.2501220703125 199.2696075439453 174.29251098632812 203.0103759765625 175.86892700195312 202.4288787841797"/>
    <path stroke-width="0" fill="rgb(51, 0, -14)" opacity="0.44559833" stroke="rgb(228, 93, 111)" stroke-opacity="1.0" stroke-linecap="round" stroke-linejoin="round" d="M 233.1408233642578 112.51726531982422 C 243.53570556640625 97.66400909423828 231.84475708007812 58.71561813354492 241.0905303955078 85.43085479736328 C 218.01031494140625 119.78581237792969 231.25302124023438 133.2404327392578 223.38792419433594 100.30134582519531 C 238.02391052246094 90.05805206298828 287.8648986816406 139.34986877441406 263.33782958984375 113.02748107910156 C 235.15724182128906 107.12773132324219 259.61962890625 88.46260833740234 233.1408233642578 112.51726531982422"/>
    <path stroke-width="0" fill="rgb(227, 173, 154)" opacity="0.6309335" stroke="rgb(205, 179, 25)" stroke-opacity="1.0" stroke-linecap="round" stroke-linejoin="round" d="M 199.8012237548828 104.85108947753906 C 239.8929443359375 91.36953735351562 187.85020446777344 134.80711364746094 210.77719116210938 98.9303207397461 C 246.8165740966797 108.68345642089844 225.61578369140625 53.746097564697266 213.72366333007812 95.29736328125 C 177.7826385498047 66.25184631347656 222.68699645996094 85.72982788085938 216.2078857421875 123.12297058105469 C 254.42147827148438 80.5165786743164 215.32371520996094 103.28287506103516 199.8012237548828 104.85108947753906"/>
    <path stroke-width="0" fill="rgb(238, 194, 139)" opacity="0.56523407" stroke="rgb(205, 145, 103)" stroke-opacity="1.0" stroke-linecap="round" stroke-linejoin="round" d="M 292.2401123046875 145.31642150878906 C 280.4169006347656 118.59600067138672 256.4539489746094 141.57589721679688 284.9969787597656 129.3245086669922 C 290.9442138671875 152.6918182373047 275.96697998046875 142.01341247558594 291.63787841796875 145.0151824951172 C 296.165771484375 150.37632751464844 295.8358459472656 111.09638977050781 298.15301513671875 144.76097106933594 C 271.0592956542969 137.7149200439453 291.1313171386719 146.52401733398438 292.2401123046875 145.31642150878906"/>
    <path stroke-width="0" fill="rgb(114, 109, 141)" opacity="0.6358135" stroke="rgb(177, 115, 184)" stroke-opacity="1.0" stroke-linecap="round" stroke-linejoin="round" d="M 154.00865173339844 192.1422882080078 C 168.6055450439453 202.20399475097656 170.65969848632812 198.48562622070312 167.19976806640625 211.05838012695312 C 170.268310546875 216.9127960205078 157.29766845703125 218.4861602783203 167.4107208251953 228.25494384765625 C 167.94317626953125 208.5516357421875 168.17739868164062 213.41331481933594 163.12954711914062 218.01849365234375 C 175.02183532714844 203.7836456298828 172.8624725341797 203.3300018310547 154.00865173339844 192.1422882080078"/>
    <path stroke-width="0" fill="rgb(179, 173, 231)" opacity="0.7567771" stroke="rgb(248, 218, 2)" stroke-opacity="1.0" stroke-linecap="round" stroke-linejoin="round" d="M 288.3397521972656 220.69908142089844 C 298.7789306640625 192.822998046875 316.1766357421875 220.50511169433594 240.6494598388672 235.3165283203125 C 253.2515106201172 250.4917449951172 245.40090942382812 230.05186462402344 262.7681884765625 229.78903198242188 C 279.3716125488281 219.0198974609375 277.4983215332031 244.0083770751953 259.41552734375 238.9783172607422 C 231.8732147216797 220.3208770751953 291.14276123046875 207.17730712890625 288.3397521972656 220.69908142089844"/>
    <path stroke-width="0" fill="rgb(-5, 76, 93)" opacity="0.58910435" stroke="rgb(186, 43, 132)" stroke-opacity="1.0" stroke-linecap="round" stroke-linejoin="round" d="M 214.70672607421875 204.73037719726562 C 227.48358154296875 186.37399291992188 217.0907440185547 227.2082977294922 227.48667907714844 210.23922729492188 C 241.85719299316406 216.79759216308594 253.41085815429688 202.12142944335938 219.60279846191406 214.57676696777344 C 218.3992462158203 195.4822998046875 224.91172790527344 199.1457061767578 224.197998046875 210.1153106689453 C 214.93824768066406 215.44879150390625 241.34442138671875 230.5867919921875 214.70672607421875 204.73037719726562"/>
    <path stroke-width="0" fill="rgb(208, 105, -6)" opacity="0.5146769" stroke="rgb(88, 236, 179)" stroke-opacity="1.0" stroke-linecap="round" stroke-linejoin="round" d="M 288.77471923828125 262.8713073730469 C 276.7358703613281 257.1541748046875 292.00689697265625 251.53298950195312 285.9869079589844 261.2003479003906 C 289.2585144042969 259.63153076171875 276.02691650390625 260.4933776855469 289.9944763183594 263.9947814941406 C 327.3978576660156 262.1473083496094 342.2809753417969 263.8580017089844 279.1734619140625 262.4552917480469 C 301.55035400390625 259.0429382324219 302.8535461425781 339.0758056640625 288.77471923828125 262.8713073730469"/>
    <path stroke-width="0" fill="rgb(-1, 4, 31)" opacity="0.7232256" stroke="rgb(41, 158, 147)" stroke-opacity="1.0" stroke-linecap="round" stroke-linejoin="round" d="M 227.15093994140625 201.02503967285156 C 232.22186279296875 216.8268280029297 219.93692016601562 208.9706573486328 279.03125 230.15943908691406 C 285.68658447265625 213.23251342773438 234.76345825195312 226.22218322753906 250.06640625 232.4438934326172 C 213.11148071289062 203.63055419921875 254.50152587890625 212.45034790039062 236.9532470703125 212.02574157714844 C 240.9297332763672 211.5663604736328 246.50961303710938 203.6859130859375 227.15093994140625 201.02503967285156"/>
    <path stroke-width="0" fill="rgb(53, 10, 4)" opacity="0.96822566" stroke="rgb(238, 156, 136)" stroke-opacity="1.0" stroke-linecap="round" stroke-linejoin="round" d="M 306.1383056640625 190.9721221923828 C 292.68072509765625 176.05419921875 270.3554382324219 170.1510467529297 288.4049072265625 165.0507049560547 C 299.5372009277344 169.7304229736328 284.42425537109375 155.1423797607422 293.0946044921875 165.2150115966797 C 286.0317077636719 172.76953125 287.43060302734375 175.60934448242188 307.6714172363281 209.91184997558594 C 282.5198669433594 178.81541442871094 289.21954345703125 175.0221710205078 306.1383056640625 190.9721221923828"/>
    <path stroke-width="0" fill="rgb(52, 13, 17)" opacity="0.7389318" stroke="rgb(186, 79, 101)" stroke-opacity="1.0" stroke-linecap="round" stroke-linejoin="round" d="M 167.77247619628906 217.2801513671875 C 167.86253356933594 212.51153564453125 171.1494140625 219.7564697265625 168.80462646484375 213.0892333984375 C 169.62655639648438 223.79092407226562 173.9954071044922 175.47097778320312 160.62538146972656 242.4154815673828 C 159.40977478027344 236.23394775390625 170.67324829101562 231.6717529296875 162.87249755859375 231.69232177734375 C 167.25572204589844 221.96469116210938 167.49208068847656 244.51502990722656 167.77247619628906 217.2801513671875"/>
    <path stroke-width="0" fill="rgb(27, 22, -2)" opacity="0.8787952" stroke="rgb(57, 64, 14)" stroke-opacity="1.0" stroke-linecap="round" stroke-linejoin="round" d="M 157.90855407714844 271.8612365722656 C 156.839599609375 267.8094177246094 155.43304443359375 282.693603515625 157.570556640625 255.1964111328125 C 175.01168823242188 225.6659698486328 154.87677001953125 207.65652465820312 156.64064025878906 308.1752624511719 C 163.57131958007812 318.5311279296875 156.93775939941406 314.04840087890625 160.64927673339844 239.34031677246094 C 153.7839813232422 294.80218505859375 158.68948364257812 279.80035400390625 157.90855407714844 271.8612365722656"/>
    <path stroke-width="0" fill="rgb(253, 258, 257)" opacity="0.80446595" stroke="rgb(6, 17, 173)" stroke-opacity="1.0" stroke-linecap="round" stroke-linejoin="round" d="M 348.9255676269531 373.9636535644531 C 348.2650146484375 400.28668212890625 373.7352294921875 363.2352600097656 333.0981140136719 377.9609069824219 C 370.8431091308594 321.9217834472656 312.7339782714844 368.6956787109375 324.3718566894531 348.81524658203125 C 287.7915344238281 327.83831787109375 350.7691650390625 317.1532287597656 351.954833984375 346.7225646972656 C 314.3934631347656 346.728271484375 326.9471740722656 383.1466369628906 348.9255676269531 373.9636535644531"/>
    <path stroke-width="0" fill="rgb(33, 11, 12)" opacity="0.97784513" stroke="rgb(136, 228, 252)" stroke-opacity="1.0" stroke-linecap="round" stroke-linejoin="round" d="M 316.1401672363281 259.17095947265625 C 410.6439514160156 324.7576599121094 382.01141357421875 307.7986145019531 352.90924072265625 287.07220458984375 C 344.09088134765625 282.62310791015625 359.1288757324219 282.53326416015625 353.2842102050781 291.17169189453125 C 359.01025390625 395.43316650390625 361.2201843261719 370.2153015136719 357.30029296875 296.278564453125 C 345.1175842285156 301.034912109375 351.353759765625 269.42388916015625 316.1401672363281 259.17095947265625"/>
    <path stroke-width="0" fill="rgb(-4, -7, -1)" opacity="0.8082465" stroke="rgb(81, 97, 150)" stroke-opacity="1.0" stroke-linecap="round" stroke-linejoin="round" d="M 253.2168426513672 220.9998779296875 C 239.91148376464844 202.32296752929688 210.74456787109375 212.4120635986328 270.3821716308594 229.27517700195312 C 265.1585693359375 216.78717041015625 232.19552612304688 216.9430694580078 253.0666046142578 239.9449005126953 C 272.78631591796875 251.8966064453125 276.340087890625 234.48548889160156 260.7032775878906 241.35488891601562 C 256.1805419921875 230.56736755371094 251.83445739746094 239.65345764160156 253.2168426513672 220.9998779296875"/>
    <path stroke-width="0" fill="rgb(282, 268, 245)" opacity="0.7795142" stroke="rgb(160, 222, 69)" stroke-opacity="1.0" stroke-linecap="round" stroke-linejoin="round" d="M 176.4232635498047 388.1224670410156 C 197.38967895507812 374.1888732910156 156.28652954101562 404.3049621582031 164.78794860839844 372.51165771484375 C 163.73046875 396.6890563964844 169.14569091796875 386.9833984375 158.51071166992188 395.81060791015625 C 176.7462921142578 363.5471496582031 158.82493591308594 354.89813232421875 165.26507568359375 351.9532775878906 C 164.0577850341797 370.79931640625 185.70428466796875 342.9052734375 176.4232635498047 388.1224670410156"/>
    <path stroke-width="0" fill="rgb(114, 132, 120)" opacity="0.9834999" stroke="rgb(47, 242, 175)" stroke-opacity="1.0" stroke-linecap="round" stroke-linejoin="round" d="M 318.6222229003906 356.63531494140625 C 320.3956604003906 363.5894775390625 322.90594482421875 342.66009521484375 322.8755798339844 353.8134460449219 C 312.5693664550781 357.7261657714844 302.7388000488281 322.2601623535156 297.1524658203125 375.6361389160156 C 340.07574462890625 359.20361328125 321.8919372558594 333.8177185058594 284.36749267578125 319.0813293457031 C 338.6006164550781 344.0506591796875 306.2609558105469 333.4659118652344 318.6222229003906 356.63531494140625"/>
    <path stroke-width="0" fill="rgb(38, -12, -2)" opacity="0.7684409" stroke="rgb(241, 186, 64)" stroke-opacity="1.0" stroke-linecap="round" stroke-linejoin="round" d="M 283.9882507324219 261.7665710449219 C 283.3163146972656 243.0792694091797 287.09283447265625 267.08343505859375 307.6763610839844 254.140625 C 304.2644958496094 257.0504455566406 294.5075378417969 257.7572021484375 316.3136291503906 259.4027404785156 C 333.3993835449219 255.97366333007812 384.841552734375 328.4729919433594 325.49798583984375 261.5183410644531 C 313.473388671875 269.3695373535156 315.4436950683594 243.92247009277344 283.9882507324219 261.7665710449219"/>
    <path stroke-width="0" fill="rgb(-13, -2, 14)" opacity="0.8510102" stroke="rgb(132, 6, 52)" stroke-opacity="1.0" stroke-linecap="round" stroke-linejoin="round" d="M 202.59474182128906 102.76837158203125 C 206.13101196289062 97.31378173828125 195.31231689453125 83.65876007080078 202.00155639648438 93.43973541259766 C 201.29318237304688 90.23635864257812 216.00621032714844 59.939395904541016 189.43023681640625 120.5863037109375 C 222.13998413085938 65.78422546386719 210.22317504882812 56.43439865112305 235.43338012695312 64.08010864257812 C 220.6670379638672 44.89763641357422 198.03302001953125 89.7095947265625 202.59474182128906 102.76837158203125"/>
    <path stroke-width="0" fill="rgb(33, -2, -14)" opacity="0.9448924" stroke="rgb(182, 100, 144)" stroke-opacity="1.0" stroke-linecap="round" stroke-linejoin="round" d="M 306.5390625 193.24197387695312 C 301.2203369140625 191.7744903564453 312.4337158203125 220.23538208007812 303.5020751953125 221.0718536376953 C 300.2802734375 192.6866912841797 319.6324768066406 203.35171508789062 297.8758239746094 221.14083862304688 C 291.6459655761719 222.2742919921875 326.9608154296875 232.13412475585938 266.81256103515625 226.66500854492188 C 285.46282958984375 220.82095336914062 308.9868469238281 216.40274047851562 306.5390625 193.24197387695312"/>
    <path stroke-width="0" fill="rgb(198, 124, 117)" opacity="0.5514481" stroke="rgb(140, 149, 245)" stroke-opacity="1.0" stroke-linecap="round" stroke-linejoin="round" d="M 218.18450927734375 74.40495300292969 C 227.29415893554688 93.64199829101562 202.2917022705078 91.2504653930664 216.34178161621094 98.58968353271484 C 232.1282501220703 68.34748840332031 208.87185668945312 72.1303939819336 181.60830688476562 77.3077621459961 C 202.7904510498047 83.70244598388672 178.47415161132812 100.63555145263672 188.83282470703125 75.69153594970703 C 218.94558715820312 69.73677825927734 247.4422149658203 83.51097106933594 218.18450927734375 74.40495300292969"/>
    <path stroke-width="0" fill="rgb(82, 6, 25)" opacity="0.8021492" stroke="rgb(61, 25, 4)" stroke-opacity="1.0" stroke-linecap="round" stroke-linejoin="round" d="M 273.0226745605469 237.8157196044922 C 281.3991394042969 228.64630126953125 238.5167694091797 227.39407348632812 268.8135986328125 230.5477294921875 C 270.5531311035156 237.18312072753906 255.3814697265625 223.90260314941406 261.9182434082031 234.24356079101562 C 271.655029296875 232.37496948242188 279.019287109375 241.4963836669922 258.2827453613281 249.12875366210938 C 271.3450927734375 242.6519012451172 271.70318603515625 241.4137725830078 273.0226745605469 237.8157196044922"/>
    <path stroke-width="0" fill="rgb(268, 178, 46)" opacity="0.92832786" stroke="rgb(86, 245, 59)" stroke-opacity="1.0" stroke-linecap="round" stroke-linejoin="round" d="M 277.3073425292969 312.9869079589844 C 276.1360168457031 316.290771484375 268.2370300292969 334.5559997558594 333.3156433105469 275.3786315917969 C 263.119873046875 224.42510986328125 290.66448974609375 321.3740234375 325.11981201171875 288.62689208984375 C 310.81060791015625 349.955078125 273.0466613769531 303.6063537597656 291.8077697753906 292.487060546875 C 319.6686096191406 281.0253601074219 288.306640625 344.7037048339844 277.3073425292969 312.9869079589844"/>
    <path stroke-width="0" fill="rgb(258, 251, 236)" opacity="0.4809203" stroke="rgb(240, 203, 160)" stroke-opacity="1.0" stroke-linecap="round" stroke-linejoin="round" d="M 260.7593078613281 185.33348083496094 C 260.2367248535156 203.61160278320312 266.2825927734375 214.5511932373047 296.4433898925781 236.19786071777344 C 300.83905029296875 216.58609008789062 308.9546813964844 217.45578002929688 305.8736877441406 210.8629608154297 C 308.2071838378906 258.3783264160156 267.6769104003906 232.7877655029297 287.31201171875 228.82032775878906 C 256.6059875488281 198.52410888671875 267.260986328125 216.94879150390625 260.7593078613281 185.33348083496094"/>
    <path stroke-width="0" fill="rgb(79, 21, 22)" opacity="0.84500724" stroke="rgb(88, 37, 250)" stroke-opacity="1.0" stroke-linecap="round" stroke-linejoin="round" d="M 274.2764587402344 347.88262939453125 C 294.485595703125 313.11346435546875 279.5106201171875 315.8902893066406 285.08673095703125 326.5735168457031 C 289.9526062011719 328.8561706542969 286.3420715332031 260.0293884277344 284.0646057128906 316.94281005859375 C 292.7865905761719 339.1913757324219 288.9175720214844 304.40850830078125 317.94439697265625 322.495849609375 C 253.87994384765625 303.24090576171875 292.361328125 368.9554138183594 274.2764587402344 347.88262939453125"/>
    <path stroke-width="0" fill="rgb(109, 131, 155)" opacity="0.39253145" stroke="rgb(126, 163, 93)" stroke-opacity="1.0" stroke-linecap="round" stroke-linejoin="round" d="M 202.76309204101562 71.17851257324219 C 210.99034118652344 65.1236572265625 219.3954315185547 72.6417465209961 204.65045166015625 67.0029525756836 C 209.71070861816406 61.54216003417969 211.8330841064453 34.690433502197266 206.90638732910156 61.202491760253906 C 207.8514862060547 69.51016998291016 227.79225158691406 58.05781555175781 229.93994140625 56.42050552368164 C 199.0811004638672 53.69458770751953 220.0758514404297 81.2176513671875 202.76309204101562 71.17851257324219"/>
    <path stroke-width="0" fill="rgb(114, 125, 136)" opacity="0.86542004" stroke="rgb(209, 48, 130)" stroke-opacity="1.0" stroke-linecap="round" stroke-linejoin="round" d="M 230.15708923339844 50.463436126708984 C 193.44561767578125 51.40909957885742 179.0922393798828 47.862091064453125 183.92333984375 66.86910247802734 C 163.29397583007812 98.3073959350586 159.6048126220703 109.07847595214844 181.84017944335938 105.59456634521484 C 231.95814514160156 60.986812591552734 208.41949462890625 18.749103546142578 178.86395263671875 33.21122741699219 C 149.19183349609375 82.90568542480469 190.37879943847656 72.33600616455078 230.15708923339844 50.463436126708984"/>
    <path stroke-width="0" fill="rgb(256, 136, 23)" opacity="0.47720885" stroke="rgb(24, 219, 248)" stroke-opacity="1.0" stroke-linecap="round" stroke-linejoin="round" d="M 229.647216796875 108.45046997070312 C 224.0545654296875 89.37631225585938 222.01568603515625 82.2838134765625 238.32009887695312 84.2284164428711 C 215.781982421875 65.24148559570312 233.37855529785156 73.68692779541016 228.18418884277344 87.92408752441406 C 234.10415649414062 94.38072204589844 231.0644989013672 90.39727783203125 232.2693634033203 75.51243591308594 C 232.3543701171875 82.28129577636719 241.228515625 62.20277786254883 229.647216796875 108.45046997070312"/>
    <path stroke-width="0" fill="rgb(262, 151, 29)" opacity="0.4583179" stroke="rgb(103, 59, 33)" stroke-opacity="1.0" stroke-linecap="round" stroke-linejoin="round" d="M 228.37071228027344 62.61259460449219 C 215.19236755371094 66.52021789550781 218.93209838867188 79.97014617919922 234.86119079589844 89.61834716796875 C 239.55633544921875 115.25999450683594 234.30516052246094 124.53247833251953 228.4984588623047 120.20869445800781 C 239.473876953125 118.499755859375 235.68148803710938 81.30211639404297 216.02023315429688 98.73695373535156 C 212.34222412109375 83.63856506347656 219.53175354003906 85.50972747802734 228.37071228027344 62.61259460449219"/>
    <path stroke-width="0" fill="rgb(229, 143, 13)" opacity="0.75960624" stroke="rgb(185, 2, 196)" stroke-opacity="1.0" stroke-linecap="round" stroke-linejoin="round" d="M 177.7617645263672 99.86505126953125 C 190.8179168701172 80.72367095947266 194.94802856445312 114.11299896240234 203.3998565673828 94.83794403076172 C 206.23333740234375 172.267333984375 209.2185516357422 80.17170715332031 203.36990356445312 110.57221984863281 C 208.9661102294922 93.13656616210938 175.51539611816406 104.11361694335938 174.48068237304688 96.0767822265625 C 194.23069763183594 109.10367584228516 194.98388671875 83.17985534667969 177.7617645263672 99.86505126953125"/>
    <path stroke-width="0" fill="rgb(123, 118, 144)" opacity="0.9046532" stroke="rgb(66, 116, 174)" stroke-opacity="1.0" stroke-linecap="round" stroke-linejoin="round" d="M 179.2700958251953 99.83316802978516 C 177.39625549316406 94.15875244140625 196.3480224609375 167.68685913085938 174.64878845214844 105.26056671142578 C 151.1781463623047 112.47798919677734 135.2265167236328 140.27027893066406 162.6458282470703 110.64752960205078 C 175.2393798828125 107.03196716308594 175.8096160888672 101.6531753540039 170.5898895263672 60.85405731201172 C 187.6129608154297 113.96015167236328 180.20750427246094 112.64046478271484 179.2700958251953 99.83316802978516"/>
    <path stroke-width="0" fill="rgb(181, 131, 98)" opacity="0.59509706" stroke="rgb(72, 96, 46)" stroke-opacity="1.0" stroke-linecap="round" stroke-linejoin="round" d="M 221.0966796875 90.11760711669922 C 212.84591674804688 91.51290893554688 252.10633850097656 93.7676010131836 223.1216583251953 77.47209930419922 C 240.92996215820312 79.9740982055664 228.68170166015625 114.88191223144531 213.97584533691406 98.6498031616211 C 212.8335723876953 111.241455078125 238.07510375976562 78.80168914794922 214.90899658203125 76.86775207519531 C 223.36648559570312 82.58917236328125 229.7620849609375 100.4444351196289 221.0966796875 90.11760711669922"/>
    <path stroke-width="0" fill="rgb(117, 125, 132)" opacity="0.60815525" stroke="rgb(147, 244, 164)" stroke-opacity="1.0" stroke-linecap="round" stroke-linejoin="round" d="M 224.86892700195312 79.0953598022461 C 177.48007202148438 77.46061706542969 205.95318603515625 84.05036163330078 185.13832092285156 97.65409088134766 C 170.63587951660156 166.08367919921875 108.93171691894531 262.26251220703125 -44.08797836303711 119.88844299316406 C 179.74021911621094 18.022645950317383 155.97503662109375 85.27375793457031 226.5609893798828 78.60331726074219 C 237.6511688232422 70.53305053710938 227.43136596679688 91.13260650634766 224.86892700195312 79.0953598022461"/>
    <path stroke-width="0" fill="rgb(116, 124, 133)" opacity="0.96856284" stroke="rgb(109, 130, 136)" stroke-opacity="1.0" stroke-linecap="round" stroke-linejoin="round" d="M 197.4276580810547 92.0060806274414 C 200.43426513671875 83.48123168945312 152.95948791503906 83.86419677734375 166.5943603515625 96.79864501953125 C 180.22665405273438 127.51110076904297 153.78329467773438 136.7631072998047 171.90806579589844 81.34628295898438 C 151.97140502929688 91.0243911743164 161.0020294189453 76.32332611083984 159.37799072265625 74.0917739868164 C 187.573974609375 97.67939758300781 184.8575439453125 119.8714828491211 197.4276580810547 92.0060806274414"/>
    <path stroke-width="0" fill="rgb(125, 121, 144)" opacity="0.60463244" stroke="rgb(70, 32, 100)" stroke-opacity="1.0" stroke-linecap="round" stroke-linejoin="round" d="M 287.5555419921875 121.21359252929688 C 297.66162109375 109.6585922241211 287.6033935546875 122.80853271484375 298.3846435546875 130.34756469726562 C 280.317626953125 117.32099914550781 314.5257568359375 97.99595642089844 308.893310546875 136.78163146972656 C 310.2745666503906 126.24254608154297 314.7884216308594 108.42079162597656 335.07952880859375 103.13348388671875 C 324.4811706542969 108.65835571289062 326.86883544921875 104.21288299560547 287.5555419921875 121.21359252929688"/>
    <path stroke-width="0" fill="rgb(225, 145, 68)" opacity="0.59079915" stroke="rgb(47, 230, 138)" stroke-opacity="1.0" stroke-linecap="round" stroke-linejoin="round" d="M 281.4527282714844 320.2037048339844 C 284.8866882324219 312.6263122558594 277.8719787597656 278.54339599609375 290.0642395019531 320.1008605957031 C 309.2433776855469 320.52947998046875 280.9270935058594 333.8545837402344 288.82525634765625 297.3232421875 C 290.8155517578125 249.27505493164062 289.5140380859375 256.3929138183594 281.9595947265625 324.04949951171875 C 286.77801513671875 324.9712219238281 289.9217529296875 319.6607666015625 281.4527282714844 320.2037048339844"/>
    <path stroke-width="0" fill="rgb(251, 176, 72)" opacity="0.5349734" stroke="rgb(224, 116, 184)" stroke-opacity="1.0" stroke-linecap="round" stroke-linejoin="round" d="M 305.35626220703125 117.6989517211914 C 290.6650695800781 104.03334045410156 297.03436279296875 70.06295013427734 299.44659423828125 122.56501770019531 C 296.8902893066406 116.01289367675781 299.3636474609375 88.90555572509766 296.1817626953125 120.57958221435547 C 308.40185546875 140.3861846923828 286.4053039550781 119.08979034423828 286.5638732910156 129.27957153320312 C 288.6889953613281 121.1089859008789 284.5683898925781 115.91423797607422 305.35626220703125 117.6989517211914"/>
    <path stroke-width="0" fill="rgb(270, 213, 35)" opacity="0.66909647" stroke="rgb(230, 175, 178)" stroke-opacity="1.0" stroke-linecap="round" stroke-linejoin="round" d="M 308.8584289550781 104.63957977294922 C 298.1125793457031 118.4915542602539 288.5500793457031 132.54623413085938 273.0419006347656 142.17608642578125 C 291.7867126464844 118.46211242675781 289.1356506347656 98.3880844116211 289.7345275878906 136.847412109375 C 314.7411804199219 96.6320571899414 287.6127014160156 103.94267272949219 302.6161193847656 125.73680877685547 C 283.36376953125 102.5418472290039 308.7010803222656 134.8976287841797 308.8584289550781 104.63957977294922"/>
    <path stroke-width="0" fill="rgb(255, 168, 32)" opacity="0.64117527" stroke="rgb(203, 244, 116)" stroke-opacity="1.0" stroke-linecap="round" stroke-linejoin="round" d="M 282.3173522949219 137.46629333496094 C 296.5346374511719 121.70539093017578 294.3495178222656 105.71041107177734 292.6186828613281 133.5224151611328 C 309.9498596191406 94.57166290283203 294.3362731933594 124.91545867919922 304.2872009277344 111.80277252197266 C 308.64556884765625 114.71918487548828 281.615234375 125.29080200195312 311.33642578125 106.056640625 C 290.68798828125 126.82060241699219 295.9856262207031 117.03339385986328 282.3173522949219 137.46629333496094"/>
    <path stroke-width="0" fill="rgb(241, 190, 77)" opacity="0.6583295" stroke="rgb(65, 216, 8)" stroke-opacity="1.0" stroke-linecap="round" stroke-linejoin="round" d="M 296.5130920410156 116.77127075195312 C 280.5024719238281 138.09136962890625 283.07537841796875 144.0453643798828 277.8417663574219 130.60772705078125 C 274.1924743652344 140.21669006347656 281.9093322753906 128.8167266845703 277.0885925292969 159.8873291015625 C 279.1572570800781 145.5392303466797 286.77557373046875 139.05462646484375 269.0552673339844 142.52670288085938 C 274.78070068359375 130.43011474609375 272.9736633300781 152.95596313476562 296.5130920410156 116.77127075195312"/>
    <path stroke-width="0" fill="rgb(83, 66, 23)" opacity="0.7124434" stroke="rgb(90, 90, 4)" stroke-opacity="1.0" stroke-linecap="round" stroke-linejoin="round" d="M 274.7250061035156 340.9132080078125 C 281.4975891113281 343.5714416503906 273.39044189453125 342.45611572265625 277.24041748046875 341.0273132324219 C 275.1302185058594 333.4801940917969 270.8277587890625 308.9704284667969 280.09674072265625 353.9903564453125 C 273.09405517578125 376.3658142089844 275.5202331542969 335.4208679199219 282.96746826171875 317.135009765625 C 276.5466613769531 359.9507751464844 286.1562805175781 341.1542663574219 274.7250061035156 340.9132080078125"/>
    <path stroke-width="0" fill="rgb(240, 169, 56)" opacity="0.50484025" stroke="rgb(221, 115, 83)" stroke-opacity="1.0" stroke-linecap="round" stroke-linejoin="round" d="M 297.43438720703125 239.7672882080078 C 309.3885498046875 180.641357421875 319.285888671875 206.4976806640625 300.3812255859375 236.69615173339844 C 281.9106140136719 183.04397583007812 272.93963623046875 151.01596069335938 262.63604736328125 170.66355895996094 C 274.22003173828125 143.89523315429688 280.5198974609375 146.094970703125 266.1894226074219 167.91384887695312 C 275.4127197265625 166.16140747070312 288.2997741699219 187.24478149414062 297.43438720703125 239.7672882080078"/>
    <path stroke-width="0" fill="rgb(115, 125, 135)" opacity="0.7734792" stroke="rgb(17, 64, 56)" stroke-opacity="1.0" stroke-linecap="round" stroke-linejoin="round" d="M 170.44053649902344 143.07276916503906 C 177.04281616210938 121.95696258544922 168.05776977539062 127.7010498046875 172.82859802246094 171.7284393310547 C 182.09693908691406 168.28140258789062 176.80760192871094 142.9233856201172 159.7126922607422 147.06365966796875 C 177.13323974609375 152.19586181640625 189.4161376953125 122.99334716796875 148.8207550048828 131.66156005859375 C 160.47991943359375 158.69757080078125 177.8638153076172 166.68179321289062 170.44053649902344 143.07276916503906"/>
    <path stroke-width="0" fill="rgb(250, 188, 59)" opacity="0.70749867" stroke="rgb(33, 3, 29)" stroke-opacity="1.0" stroke-linecap="round" stroke-linejoin="round" d="M 226.1104278564453 157.38877868652344 C 195.22691345214844 138.79168701171875 204.54464721679688 163.7431182861328 194.9419403076172 181.2422637939453 C 209.74110412597656 133.8638458251953 202.33938598632812 141.676025390625 192.76348876953125 147.52243041992188 C 180.24880981445312 128.13339233398438 199.52442932128906 131.9407958984375 191.70205688476562 179.0581817626953 C 177.4415740966797 177.4292755126953 187.57130432128906 177.73648071289062 226.1104278564453 157.38877868652344"/>
    <path stroke-width="0" fill="rgb(11, 20, 23)" opacity="0.7340206" stroke="rgb(162, 125, 252)" stroke-opacity="1.0" stroke-linecap="round" stroke-linejoin="round" d="M 297.1654968261719 218.8708038330078 C 294.2904052734375 273.5921325683594 279.0758056640625 209.49945068359375 303.1157531738281 242.76272583007812 C 286.8384094238281 220.1239013671875 299.5582580566406 210.09933471679688 296.8228454589844 235.79345703125 C 291.7847595214844 189.41111755371094 288.27166748046875 212.4225311279297 291.3885498046875 204.14068603515625 C 293.6795349121094 224.0989532470703 321.0718688964844 254.01744079589844 297.1654968261719 218.8708038330078"/>
    <path stroke-width="0" fill="rgb(155, 149, 130)" opacity="0.71146566" stroke="rgb(199, 73, 61)" stroke-opacity="1.0" stroke-linecap="round" stroke-linejoin="round" d="M 319.9481506347656 213.50843811035156 C 303.4010925292969 218.10191345214844 295.8846435546875 222.5821990966797 317.19775390625 234.4638671875 C 302.0402526855469 224.27609252929688 306.6251220703125 216.1029052734375 286.962158203125 237.85147094726562 C 305.41162109375 244.1983642578125 312.0517883300781 235.26303100585938 298.3963928222656 235.0059814453125 C 301.2045593261719 230.1900177001953 323.7030334472656 208.0679473876953 319.9481506347656 213.50843811035156"/>
    <path stroke-width="0" fill="rgb(121, 143, 174)" opacity="0.6667537" stroke="rgb(141, 73, 180)" stroke-opacity="1.0" stroke-linecap="round" stroke-linejoin="round" d="M 212.67599487304688 215.5348663330078 C 206.01947021484375 201.91033935546875 207.3253173828125 206.62948608398438 207.4650115966797 190.90371704101562 C 203.46380615234375 221.51571655273438 219.42645263671875 216.45944213867188 227.39312744140625 212.1373291015625 C 223.55116271972656 214.89381408691406 223.14813232421875 216.93115234375 208.85804748535156 215.25479125976562 C 210.52432250976562 215.16192626953125 215.05938720703125 217.23992919921875 212.67599487304688 215.5348663330078"/>
    <path stroke-width="0" fill="rgb(144, 216, 213)" opacity="0.71493244" stroke="rgb(91, 211, 235)" stroke-opacity="1.0" stroke-linecap="round" stroke-linejoin="round" d="M 275.844482421875 203.79002380371094 C 284.41259765625 196.40902709960938 311.9542236328125 181.23910522460938 291.4042053222656 238.4859161376953 C 305.8296203613281 236.5773468017578 334.6867980957031 216.1483917236328 274.1979675292969 218.53372192382812 C 305.2630615234375 210.33670043945312 311.8441162109375 207.77639770507812 311.96722412109375 216.75840759277344 C 316.6905212402344 198.9448699951172 294.72705078125 200.71075439453125 275.844482421875 203.79002380371094"/>
    <path stroke-width="0" fill="rgb(246, 251, 245)" opacity="0.9785011" stroke="rgb(247, 230, 75)" stroke-opacity="1.0" stroke-linecap="round" stroke-linejoin="round" d="M 201.3190155029297 210.38916015625 C 208.50498962402344 213.41152954101562 200.0359649658203 196.2312469482422 215.79302978515625 206.85000610351562 C 216.09466552734375 202.90548706054688 223.50160217285156 207.1449737548828 225.03123474121094 228.22259521484375 C 223.25328063964844 237.14346313476562 189.57540893554688 231.47689819335938 214.3363800048828 176.71998596191406 C 221.79190063476562 169.36370849609375 196.83474731445312 184.67294311523438 201.3190155029297 210.38916015625"/>
    <path stroke-width="0" fill="rgb(233, 254, 264)" opacity="0.88341945" stroke="rgb(63, 27, 242)" stroke-opacity="1.0" stroke-linecap="round" stroke-linejoin="round" d="M 301.4737243652344 222.89356994628906 C 284.8472595214844 225.9279022216797 313.12066650390625 216.05442810058594 315.20703125 213.95069885253906 C 305.6429748535156 185.16156005859375 293.9743957519531 227.039306640625 264.5631408691406 217.7802276611328 C 244.99249267578125 195.44776916503906 226.33935546875 198.67491149902344 277.9927978515625 215.85948181152344 C 318.1896667480469 231.16839599609375 328.88238525390625 206.3234100341797 301.4737243652344 222.89356994628906"/>
    <path stroke-width="0" fill="rgb(51, 55, 52)" opacity="0.76287997" stroke="rgb(175, 14, 186)" stroke-opacity="1.0" stroke-linecap="round" stroke-linejoin="round" d="M 196.27163696289062 421.9517822265625 C 193.48744201660156 419.6745910644531 178.19412231445312 404.87530517578125 168.00572204589844 411.6070251464844 C 194.35101318359375 406.1311340332031 194.1978759765625 395.55657958984375 179.10499572753906 422.3980407714844 C 182.8869171142578 413.7663879394531 190.77537536621094 408.5841064453125 181.4224853515625 411.4870300292969 C 195.7325439453125 418.2565002441406 191.06886291503906 416.0155334472656 196.27163696289062 421.9517822265625"/>
    <path stroke-width="0" fill="rgb(-17, -6, 4)" opacity="0.7551985" stroke="rgb(69, 96, 95)" stroke-opacity="1.0" stroke-linecap="round" stroke-linejoin="round" d="M 299.2415771484375 191.5873260498047 C 278.3304443359375 226.90908813476562 311.30267333984375 243.3400421142578 319.8043518066406 235.229736328125 C 300.492919921875 239.3535614013672 287.2073059082031 246.3880615234375 305.59906005859375 227.17254638671875 C 308.6855163574219 240.64410400390625 307.1446838378906 225.1865234375 276.59661865234375 201.53001403808594 C 318.1927795410156 190.56553649902344 304.1420593261719 213.4674072265625 299.2415771484375 191.5873260498047"/>
    <path stroke-width="0" fill="rgb(268, 190, 7)" opacity="0.78763795" stroke="rgb(213, 60, 128)" stroke-opacity="1.0" stroke-linecap="round" stroke-linejoin="round" d="M 211.30357360839844 80.24160766601562 C 247.86721801757812 86.0016098022461 233.4927215576172 108.11846160888672 232.5798797607422 89.56539154052734 C 206.97323608398438 81.62601470947266 196.07827758789062 99.83490753173828 225.2184600830078 60.88062286376953 C 228.72421264648438 85.04207611083984 246.94873046875 67.39115905761719 225.89089965820312 75.51640319824219 C 226.64996337890625 65.3594741821289 260.7987365722656 80.67327117919922 211.30357360839844 80.24160766601562"/>
    <path stroke-width="0" fill="rgb(236, 167, 82)" opacity="0.6651899" stroke="rgb(18, 74, 38)" stroke-opacity="1.0" stroke-linecap="round" stroke-linejoin="round" d="M 279.2318420410156 256.94586181640625 C 268.54541015625 256.4932861328125 257.88336181640625 252.31784057617188 263.903564453125 251.79901123046875 C 212.71763610839844 254.96246337890625 221.5906219482422 244.5554962158203 186.74069213867188 219.41427612304688 C 230.6080322265625 262.97515869140625 262.6109619140625 249.0689697265625 208.0487060546875 253.653076171875 C 187.35183715820312 256.9957275390625 249.30426025390625 251.63226318359375 279.2318420410156 256.94586181640625"/>
    <path stroke-width="0" fill="rgb(144, 97, 85)" opacity="0.68797946" stroke="rgb(33, 154, 97)" stroke-opacity="1.0" stroke-linecap="round" stroke-linejoin="round" d="M 224.0233917236328 52.8729248046875 C 198.38568115234375 66.17704772949219 216.22254943847656 81.04033660888672 210.36077880859375 73.60942077636719 C 211.22604370117188 75.72843933105469 209.0712890625 66.97366333007812 213.41697692871094 82.55982208251953 C 213.2258758544922 99.98487854003906 235.96636962890625 63.69302749633789 214.4709014892578 86.30011749267578 C 207.40289306640625 64.38853454589844 207.76048278808594 63.68622970581055 224.0233917236328 52.8729248046875"/>
    <path stroke-width="0" fill="rgb(130, 119, 134)" opacity="1.0109361" stroke="rgb(246, 139, 70)" stroke-opacity="1.0" stroke-linecap="round" stroke-linejoin="round" d="M 303.3169860839844 241.84588623046875 C 291.22406005859375 244.5426025390625 276.3439025878906 232.32472229003906 331.033447265625 228.6269989013672 C 312.5359802246094 233.46951293945312 296.0414733886719 225.10316467285156 263.9417724609375 228.23973083496094 C 301.5915832519531 227.1436309814453 285.0790710449219 242.50399780273438 304.8265075683594 194.21896362304688 C 274.5024719238281 162.06202697753906 334.9190673828125 198.5377655029297 303.3169860839844 241.84588623046875"/>
    <path stroke-width="0" fill="rgb(157, 118, 95)" opacity="0.37396652" stroke="rgb(228, 103, 140)" stroke-opacity="1.0" stroke-linecap="round" stroke-linejoin="round" d="M 219.42599487304688 98.47999572753906 C 222.8915252685547 90.533203125 218.98605346679688 88.31951904296875 222.78668212890625 96.40507507324219 C 206.84617614746094 58.208518981933594 202.7650604248047 59.4719352722168 205.79112243652344 61.79756164550781 C 209.65467834472656 57.876197814941406 207.02938842773438 69.32432556152344 200.55870056152344 51.40766143798828 C 214.20098876953125 75.99281311035156 224.7897186279297 98.86370086669922 219.42599487304688 98.47999572753906"/>
    <path stroke-width="0" fill="rgb(112, 128, 132)" opacity="0.9973672" stroke="rgb(116, 102, 63)" stroke-opacity="1.0" stroke-linecap="round" stroke-linejoin="round" d="M 326.04119873046875 197.0543670654297 C 284.0109558105469 224.65109252929688 287.8565368652344 228.95399475097656 317.8907165527344 219.9722900390625 C 301.1377258300781 230.38308715820312 278.5119934082031 213.05520629882812 280.0702819824219 237.1686248779297 C 303.63092041015625 276.0381774902344 307.6317138671875 247.650390625 294.035888671875 234.80296325683594 C 306.990966796875 249.43389892578125 331.72998046875 274.48638916015625 326.04119873046875 197.0543670654297"/>
    <path stroke-width="0" fill="rgb(146, 80, 12)" opacity="0.68609786" stroke="rgb(79, 95, 133)" stroke-opacity="1.0" stroke-linecap="round" stroke-linejoin="round" d="M 231.53890991210938 92.13842010498047 C 257.5240478515625 100.92390441894531 266.09027099609375 104.14437103271484 247.29971313476562 97.5436019897461 C 241.4493408203125 90.55476379394531 246.92820739746094 109.1033935546875 224.17369079589844 77.21510314941406 C 255.74685668945312 94.35150146484375 234.22726440429688 103.76744079589844 241.84423828125 88.29302978515625 C 230.7306365966797 73.46487426757812 239.041748046875 94.12687683105469 231.53890991210938 92.13842010498047"/>
    <path stroke-width="0" fill="rgb(111, 125, 131)" opacity="0.86659205" stroke="rgb(85, 235, 219)" stroke-opacity="1.0" stroke-linecap="round" stroke-linejoin="round" d="M 314.46612548828125 241.63839721679688 C 312.0059814453125 242.4850311279297 302.6851501464844 239.20216369628906 365.32781982421875 240.3389129638672 C 349.8321228027344 244.09593200683594 341.4306945800781 234.4074249267578 339.67437744140625 225.41139221191406 C 358.0164794921875 276.9360046386719 312.9737854003906 270.4999084472656 335.725830078125 233.99981689453125 C 307.6532897949219 231.77052307128906 367.48211669921875 262.01483154296875 314.46612548828125 241.63839721679688"/>
    <path stroke-width="0" fill="rgb(277, 190, 32)" opacity="0.8562224" stroke="rgb(64, 113, 26)" stroke-opacity="1.0" stroke-linecap="round" stroke-linejoin="round" d="M 300.37286376953125 104.798828125 C 289.8176574707031 87.73833465576172 320.7136535644531 123.07797241210938 311.7164611816406 94.77886199951172 C 312.2521667480469 117.69662475585938 289.2752380371094 144.300537109375 284.999267578125 113.9954833984375 C 314.2254333496094 120.71832275390625 311.8945617675781 88.39752197265625 293.5293273925781 115.00299835205078 C 316.77423095703125 111.82421112060547 302.1847839355469 98.0511474609375 300.37286376953125 104.798828125"/>
    <path stroke-width="0" fill="rgb(45, 66, 173)" opacity="0.48256785" stroke="rgb(0, 0, 0)" stroke-opacity="0.0" stroke-linecap="round" stroke-linejoin="round" d="M 131.88473510742188 19.985149383544922 C 133.8631134033203 24.279146194458008 131.3748321533203 27.22582244873047 127.03201293945312 29.790084838867188 C 122.1785888671875 27.154796600341797 119.8802261352539 25.151676177978516 120.6724624633789 20.010221481323242 C 120.51158142089844 17.827747344970703 125.74916076660156 15.90092658996582 125.30924987792969 13.564407348632812 C 127.92044067382812 16.282873153686523 132.27882385253906 17.136411666870117 131.88473510742188 19.985149383544922"/>
    <path stroke-width="0" fill="rgb(119, 125, 137)" opacity="0.24570985" stroke="rgb(0, 0, 0)" stroke-opacity="0.0" stroke-linecap="round" stroke-linejoin="round" d="M 450.11163330078125 15.76547908782959 C 451.4533996582031 19.156042098999023 448.0401306152344 21.242887496948242 444.00054931640625 20.960912704467773 C 440.1067810058594 21.17511749267578 436.8960266113281 18.87637710571289 437.7959289550781 15.849313735961914 C 437.02142333984375 10.365438461303711 439.1291198730469 6.798196315765381 442.1839294433594 8.437125205993652 C 447.34710693359375 9.217877388000488 450.55291748046875 11.396875381469727 450.11163330078125 15.76547908782959"/>
    <path stroke-width="0" fill="rgb(87, 132, 59)" opacity="0.45274898" stroke="rgb(0, 0, 0)" stroke-opacity="0.0" stroke-linecap="round" stroke-linejoin="round" d="M 19.210681915283203 2.9083664417266846 C 19.304019927978516 5.740609169006348 17.2553653717041 9.432579040527344 15.300490379333496 12.62879753112793 C 19.001419067382812 11.874702453613281 15.165386199951172 8.953649520874023 12.68139934539795 6.650656223297119 C 12.315980911254883 1.9291064739227295 12.927009582519531 -1.6318479776382446 20.906766891479492 -3.18772554397583 C 24.76872444152832 -1.7853626012802124 23.514141082763672 1.770159363746643 19.210681915283203 2.9083664417266846"/>
    <path stroke-width="0" fill="rgb(142, 170, 153)" opacity="0.7934003" stroke="rgb(0, 0, 0)" stroke-opacity="0.0" stroke-linecap="round" stroke-linejoin="round" d="M 19.327165603637695 3.304842710494995 C 17.688953399658203 10.066401481628418 15.14554500579834 12.935345649719238 13.81371021270752 13.169907569885254 C 9.09068775177002 13.15455150604248 6.743231296539307 11.158137321472168 6.633356094360352 5.171034812927246 C 4.245977401733398 0.8248504400253296 5.1520538330078125 0.47242471575737 8.731904029846191 2.9348080158233643 C 16.389270782470703 3.2514164447784424 21.986906051635742 1.5479999780654907 19.327165603637695 3.304842710494995"/>
    <path stroke-width="0" fill="rgb(137, 130, 40)" opacity="0.3222866" stroke="rgb(0, 0, 0)" stroke-opacity="0.0" stroke-linecap="round" stroke-linejoin="round" d="M 22.536148071289062 5.208974361419678 C 19.395038604736328 7.935934543609619 16.334922790527344 10.837238311767578 14.744638442993164 13.539346694946289 C 12.228740692138672 13.77529239654541 8.570289611816406 11.394850730895996 5.877653121948242 5.815953731536865 C 6.101839542388916 0.11731069535017014 8.593941688537598 -2.914522409439087 13.629263877868652 -1.0123358964920044 C 18.66961097717285 1.481050729751587 21.47116470336914 4.38173246383667 22.536148071289062 5.208974361419678"/>
    <path stroke-width="0" fill="rgb(26, 206, 109)" opacity="0.8540798" stroke="rgb(0, 0, 0)" stroke-opacity="0.0" stroke-linecap="round" stroke-linejoin="round" d="M 23.0911865234375 -1.8740235567092896 C 21.25714111328125 1.0593012571334839 16.94660186767578 2.899855375289917 13.69398307800293 3.912032127380371 C 11.190070152282715 3.0149986743927 6.634570121765137 1.6084154844284058 4.826605319976807 -1.2213109731674194 C 7.319916725158691 -6.404266834259033 10.248120307922363 -9.332469940185547 14.248120307922363 -10.404267311096191 C 18.248119354248047 -9.332469940185547 21.17632293701172 -6.404266834259033 23.0911865234375 -1.8740235567092896"/>
    <path stroke-width="0" fill="rgb(140, 62, 123)" opacity="0.6719955" stroke="rgb(0, 0, 0)" stroke-opacity="0.0" stroke-linecap="round" stroke-linejoin="round" d="M 32.410888671875 28.56045913696289 C 31.728679656982422 30.89824867248535 29.434276580810547 34.76940155029297 26.22391128540039 37.448768615722656 C 23.092741012573242 36.27769470214844 21.13017463684082 32.36226272583008 19.680492401123047 27.50218963623047 C 19.156269073486328 24.628210067749023 22.9819393157959 22.38004493713379 26.140836715698242 21.548383712768555 C 29.84786033630371 23.340431213378906 32.4342155456543 26.284961700439453 32.410888671875 28.56045913696289"/>
    <path stroke-width="0" fill="rgb(69, 67, 89)" opacity="0.07650176" stroke="rgb(0, 0, 0)" stroke-opacity="0.0" stroke-linecap="round" stroke-linejoin="round" d="M 58.57300567626953 57.230995178222656 C 57.809326171875 60.986305236816406 55.04996109008789 64.0236587524414 50.809085845947266 64.68465423583984 C 46.43270492553711 64.8373794555664 43.58015823364258 62.065338134765625 43.120662689208984 57.2872314453125 C 43.87996292114258 52.79024887084961 46.887657165527344 50.214927673339844 51.35116958618164 49.20846939086914 C 55.05940246582031 50.40914535522461 57.82810974121094 53.56418991088867 58.57300567626953 57.230995178222656"/>
    <path stroke-width="0" fill="rgb(87, 49, 65)" opacity="0.75759596" stroke="rgb(0, 0, 0)" stroke-opacity="0.0" stroke-linecap="round" stroke-linejoin="round" d="M -1.40159010887146 -82.47705841064453 C -2.4733870029449463 -78.47705841064453 -5.401590347290039 -75.54885864257812 -9.401590347290039 -74.47705841064453 C -13.401590347290039 -75.54885864257812 -16.32979393005371 -78.47705841064453 -17.40159034729004 -82.47705841064453 C -16.32979393005371 -86.47705841064453 -13.401590347290039 -89.40526580810547 -9.401590347290039 -90.47705841064453 C -5.401590347290039 -89.40526580810547 -2.4733870029449463 -86.47705841064453 -1.40159010887146 -82.47705841064453"/>
    <path stroke-width="0" fill="rgb(44, 192, 211)" opacity="0.9179102" stroke="rgb(0, 0, 0)" stroke-opacity="0.0" stroke-linecap="round" stroke-linejoin="round" d="M 365.3616638183594 302.9374084472656 C 363.6831970214844 306.74737548828125 360.6235656738281 309.4887390136719 356.36041259765625 311.2469177246094 C 353.8672790527344 310.8266906738281 350.9724426269531 307.7012023925781 351.5210266113281 304.6366271972656 C 351.59454345703125 300.0352783203125 353.73162841796875 296.5355529785156 356.47607421875 296.8619689941406 C 360.7709655761719 297.92803955078125 364.2538757324219 300.6527099609375 365.3616638183594 302.9374084472656"/>
    <path stroke-width="0" fill="rgb(21, 102, 183)" opacity="0.8978929" stroke="rgb(0, 0, 0)" stroke-opacity="0.0" stroke-linecap="round" stroke-linejoin="round" d="M 18.290632247924805 11.429479598999023 C 16.89968490600586 16.0916805267334 15.433103561401367 20.09419822692871 11.368284225463867 20.87194061279297 C 6.199047088623047 19.69849395751953 3.5267574787139893 16.965225219726562 3.2127492427825928 12.228400230407715 C 3.3061165809631348 7.545224666595459 6.110349178314209 5.053275108337402 10.552072525024414 5.636139392852783 C 15.331421852111816 5.051243782043457 18.361682891845703 7.718986988067627 18.290632247924805 11.429479598999023"/>
    <path stroke-width="0" fill="rgb(18, 170, 216)" opacity="0.43252185" stroke="rgb(0, 0, 0)" stroke-opacity="0.0" stroke-linecap="round" stroke-linejoin="round" d="M 285.24554443359375 242.15701293945312 C 283.782958984375 246.67230224609375 281.22930908203125 249.44187927246094 276.93426513671875 249.92079162597656 C 273.24700927734375 250.41404724121094 270.741455078125 247.2965545654297 269.85498046875 243.4412841796875 C 271.4391174316406 239.9462890625 274.5815734863281 237.10755920410156 277.9593200683594 235.97540283203125 C 281.3226318359375 236.77072143554688 284.76873779296875 239.07015991210938 285.24554443359375 242.15701293945312"/>
    <path stroke-width="0" fill="rgb(151, 173, 79)" opacity="0.4691441" stroke="rgb(0, 0, 0)" stroke-opacity="0.0" stroke-linecap="round" stroke-linejoin="round" d="M 98.64847564697266 61.992088317871094 C 97.42815399169922 65.37812042236328 94.35780334472656 68.41063690185547 91.15957641601562 69.8547592163086 C 87.02769470214844 68.6272964477539 84.15692901611328 66.07088470458984 83.46150970458984 62.00798797607422 C 84.4028091430664 58.264095306396484 87.24180603027344 55.27227783203125 91.40776062011719 54.60780715942383 C 95.46812438964844 54.57322692871094 97.92262268066406 57.72664260864258 98.64847564697266 61.992088317871094"/>
    <path stroke-width="0" fill="rgb(24, 205, 249)" opacity="0.13570441" stroke="rgb(0, 0, 0)" stroke-opacity="0.0" stroke-linecap="round" stroke-linejoin="round" d="M 23.13789176940918 55.1706657409668 C 22.726476669311523 59.97831344604492 20.271390914916992 62.92515182495117 16.30743980407715 61.64460372924805 C 11.845380783081055 61.118282318115234 8.786131858825684 58.449440002441406 7.325854301452637 54.196990966796875 C 7.135081768035889 49.70100784301758 9.939059257507324 47.036922454833984 15.314983367919922 47.9879150390625 C 19.716190338134766 47.607078552246094 22.504728317260742 50.54539489746094 23.13789176940918 55.1706657409668"/>
    <path stroke-width="0" fill="rgb(237, 181, 207)" opacity="0.45476145" stroke="rgb(0, 0, 0)" stroke-opacity="0.0" stroke-linecap="round" stroke-linejoin="round" d="M 10.12833023071289 -148.79649353027344 C 9.056532859802246 -144.79649353027344 6.128329753875732 -141.86830139160156 2.1283299922943115 -140.79649353027344 C -1.871670126914978 -141.86830139160156 -4.799873352050781 -144.79649353027344 -5.871670246124268 -148.79649353027344 C -4.799873352050781 -152.79649353027344 -1.871670126914978 -155.72470092773438 2.1283299922943115 -156.79649353027344 C 6.128329753875732 -155.72470092773438 9.056532859802246 -152.79649353027344 10.12833023071289 -148.79649353027344"/>
    <path stroke-width="0" fill="rgb(175, 228, 37)" opacity="0.7138055" stroke="rgb(0, 0, 0)" stroke-opacity="0.0" stroke-linecap="round" stroke-linejoin="round" d="M 78.94535064697266 319.49114990234375 C 77.28070068359375 323.4433898925781 73.88301086425781 326.4512023925781 70.4788818359375 327.3771057128906 C 67.49238586425781 326.53009033203125 64.74905395507812 323.4058532714844 63.490238189697266 319.563720703125 C 63.56601333618164 315.7962646484375 66.75001525878906 313.4388427734375 70.53597259521484 312.7818603515625 C 74.65088653564453 313.82550048828125 77.95716857910156 316.12969970703125 78.94535064697266 319.49114990234375"/>
    <path stroke-width="0" fill="rgb(146, 34, 102)" opacity="0.9616923" stroke="rgb(0, 0, 0)" stroke-opacity="0.0" stroke-linecap="round" stroke-linejoin="round" d="M 241.82923889160156 386.1095275878906 C 241.84332275390625 390.1296691894531 238.63018798828125 392.69232177734375 234.43783569335938 393.2153015136719 C 230.5522003173828 391.7878723144531 227.6204376220703 389.2024230957031 226.86929321289062 384.5900573730469 C 226.2071075439453 380.4892272949219 229.19845581054688 378.640625 233.63681030273438 377.94622802734375 C 237.65052795410156 379.1914367675781 240.6605987548828 381.9240417480469 241.82923889160156 386.1095275878906"/>
    <path stroke-width="0" fill="rgb(188, 219, 100)" opacity="0.3964978" stroke="rgb(0, 0, 0)" stroke-opacity="0.0" stroke-linecap="round" stroke-linejoin="round" d="M 239.4411163330078 306.6142883300781 C 238.56610107421875 310.6990966796875 235.58079528808594 313.371826171875 230.58621215820312 314.1275634765625 C 226.5453643798828 314.062744140625 223.99607849121094 311.0264587402344 223.26808166503906 306.4306945800781 C 224.58993530273438 302.7278137207031 227.59991455078125 299.5732116699219 230.8320770263672 298.2358703613281 C 235.36524963378906 299.5716857910156 238.30331420898438 302.24005126953125 239.4411163330078 306.6142883300781"/>
    <path stroke-width="0" fill="rgb(121, 11, 56)" opacity="0.44185573" stroke="rgb(0, 0, 0)" stroke-opacity="0.0" stroke-linecap="round" stroke-linejoin="round" d="M 60.400691986083984 15.420239448547363 C 60.226680755615234 19.4364070892334 56.70404815673828 22.012311935424805 53.29819869995117 22.888450622558594 C 48.48804473876953 21.950841903686523 45.218109130859375 19.75417137145996 44.589073181152344 15.681937217712402 C 45.83869552612305 10.996190071105957 48.45503234863281 8.043988227844238 52.36506271362305 7.644843578338623 C 56.99055099487305 8.539629936218262 60.19582748413086 10.66876220703125 60.400691986083984 15.420239448547363"/>
    <path stroke-width="0" fill="rgb(122, 9, 72)" opacity="0.19425134" stroke="rgb(0, 0, 0)" stroke-opacity="0.0" stroke-linecap="round" stroke-linejoin="round" d="M 511.0819091796875 59.344722747802734 C 509.94091796875 63.29963684082031 506.47698974609375 65.63863372802734 502.3809509277344 66.22595977783203 C 497.8553771972656 66.02887725830078 495.23822021484375 64.0135498046875 495.14483642578125 59.02909469604492 C 496.5224609375 56.05033874511719 499.4948425292969 52.8949089050293 502.685302734375 51.809757232666016 C 506.14306640625 52.6069221496582 509.07867431640625 55.892723083496094 511.0819091796875 59.344722747802734"/>
    <path stroke-width="0" fill="rgb(163, 74, 78)" opacity="0.49155387" stroke="rgb(0, 0, 0)" stroke-opacity="0.0" stroke-linecap="round" stroke-linejoin="round" d="M 462.5322570800781 289.4997863769531 C 460.4378356933594 293.3193359375 457.6510925292969 296.4767150878906 454.4455261230469 297.43115234375 C 450.2093811035156 296.66119384765625 446.939697265625 294.231689453125 445.95135498046875 290.21929931640625 C 447.3214416503906 285.9267272949219 450.080078125 282.8973083496094 454.15582275390625 282.1294250488281 C 458.52154541015625 282.9527587890625 461.63421630859375 285.6483154296875 462.5322570800781 289.4997863769531"/>
    <path stroke-width="0" fill="rgb(43, 98, 194)" opacity="0.5696175" stroke="rgb(0, 0, 0)" stroke-opacity="0.0" stroke-linecap="round" stroke-linejoin="round" d="M 287.3833312988281 133.1636962890625 C 286.81927490234375 137.34999084472656 283.8064880371094 139.80319213867188 279.74188232421875 140.30174255371094 C 275.31170654296875 139.8182830810547 272.3370056152344 137.70193481445312 271.9630126953125 132.8180389404297 C 272.1650695800781 128.80734252929688 275.6917419433594 126.3753890991211 279.8587646484375 125.37152099609375 C 283.51910400390625 126.34736633300781 286.78826904296875 129.29550170898438 287.3833312988281 133.1636962890625"/>
    <path stroke-width="0" fill="rgb(99, 208, 242)" opacity="0.31818813" stroke="rgb(0, 0, 0)" stroke-opacity="0.0" stroke-linecap="round" stroke-linejoin="round" d="M 126.94830322265625 462.9909362792969 C 126.50310516357422 467.37579345703125 123.63330841064453 469.9483642578125 118.75140380859375 470.61395263671875 C 114.32785034179688 470.93157958984375 111.81163024902344 467.93505859375 111.4087142944336 462.5364990234375 C 112.21516418457031 459.0911865234375 115.74866485595703 456.2637939453125 119.00508117675781 455.3088073730469 C 123.17497253417969 456.480712890625 126.79059600830078 458.82879638671875 126.94830322265625 462.9909362792969"/>
    <path stroke-width="0" fill="rgb(220, 46, 60)" opacity="0.44167474" stroke="rgb(0, 0, 0)" stroke-opacity="0.0" stroke-linecap="round" stroke-linejoin="round" d="M 379.80194091796875 248.41954040527344 C 379.7140808105469 252.9991912841797 377.14776611328125 255.9654541015625 373.26654052734375 256.18304443359375 C 368.4052429199219 255.5225830078125 365.69061279296875 252.73828125 365.4999084472656 248.6165313720703 C 365.7674865722656 244.26649475097656 368.33837890625 241.54637145996094 371.55908203125 241.40061950683594 C 376.3511657714844 242.22589111328125 379.4261169433594 244.61769104003906 379.80194091796875 248.41954040527344"/>
    <path stroke-width="0" fill="rgb(198, 30, 148)" opacity="0.23351726" stroke="rgb(0, 0, 0)" stroke-opacity="0.0" stroke-linecap="round" stroke-linejoin="round" d="M 191.29457092285156 9.120918273925781 C 192.0635528564453 12.380505561828613 188.46786499023438 14.163434982299805 183.30850219726562 15.236998558044434 C 179.7263946533203 15.866307258605957 176.9010772705078 12.718167304992676 176.6690216064453 8.333625793457031 C 177.54710388183594 3.63677716255188 179.99293518066406 0.2559513449668884 183.85446166992188 -0.6777814626693726 C 187.92245483398438 1.140998363494873 190.1705322265625 4.98851203918457 191.29457092285156 9.120918273925781"/>
    <path stroke-width="0" fill="rgb(225, 16, 69)" opacity="0.39130247" stroke="rgb(0, 0, 0)" stroke-opacity="0.0" stroke-linecap="round" stroke-linejoin="round" d="M 63.78597640991211 357.5378112792969 C 62.75031280517578 361.919921875 60.215065002441406 364.84173583984375 55.39224624633789 365.8838806152344 C 52.45813751220703 364.7657775878906 49.79062271118164 361.609375 48.60429382324219 358.0849609375 C 49.416812896728516 354.0638732910156 52.243751525878906 351.1965026855469 56.068328857421875 350.13092041015625 C 60.16943359375 351.0350036621094 62.975460052490234 353.9799499511719 63.78597640991211 357.5378112792969"/>
    <path stroke-width="0" fill="rgb(77, 124, 204)" opacity="0.744768" stroke="rgb(0, 0, 0)" stroke-opacity="0.0" stroke-linecap="round" stroke-linejoin="round" d="M 240.4722137451172 135.40518188476562 C 239.74856567382812 138.66259765625 236.6995849609375 141.56613159179688 233.5718994140625 142.62339782714844 C 230.19281005859375 141.88308715820312 226.61636352539062 139.61911010742188 227.05819702148438 136.72108459472656 C 227.52406311035156 131.30010986328125 228.95159912109375 127.83417510986328 232.958740234375 128.4169464111328 C 237.8316650390625 128.90101623535156 240.24127197265625 131.69650268554688 240.4722137451172 135.40518188476562"/>
    <path stroke-width="0" fill="rgb(233, 37, 190)" opacity="0.71257216" stroke="rgb(0, 0, 0)" stroke-opacity="0.0" stroke-linecap="round" stroke-linejoin="round" d="M 136.5531463623047 281.17620849609375 C 135.69171142578125 284.1717529296875 132.7189483642578 287.0249938964844 128.6837615966797 287.95233154296875 C 125.70533752441406 287.2517395019531 123.1255874633789 284.4579162597656 122.8376235961914 280.7147216796875 C 122.9677734375 276.9993896484375 125.54562377929688 274.34490966796875 129.92770385742188 273.876953125 C 132.81719970703125 274.4309997558594 135.34339904785156 277.5950927734375 136.5531463623047 281.17620849609375"/>
    <path stroke-width="0" fill="rgb(223, 240, 92)" opacity="0.898007" stroke="rgb(0, 0, 0)" stroke-opacity="0.0" stroke-linecap="round" stroke-linejoin="round" d="M 178.71275329589844 174.3684539794922 C 177.1713409423828 176.67059326171875 174.2065887451172 179.73126220703125 170.97608947753906 180.6302490234375 C 168.02261352539062 179.73960876464844 165.2129364013672 176.5526123046875 164.3570556640625 173.72056579589844 C 164.9913787841797 170.5366973876953 168.13833618164062 167.93995666503906 171.90460205078125 166.62637329101562 C 174.41490173339844 167.1548614501953 177.0587921142578 170.46578979492188 178.71275329589844 174.3684539794922"/>
    <path stroke-width="0" fill="rgb(95, 184, 153)" opacity="0.7585527" stroke="rgb(0, 0, 0)" stroke-opacity="0.0" stroke-linecap="round" stroke-linejoin="round" d="M 63.04738235473633 38.41071701049805 C 63.06895065307617 42.36895751953125 60.73988723754883 45.412803649902344 56.553558349609375 46.79582595825195 C 52.88758087158203 44.90122604370117 50.188411712646484 41.791011810302734 48.2367057800293 37.67424011230469 C 49.26780319213867 34.05961227416992 52.3767204284668 31.28147315979004 55.85446548461914 30.727872848510742 C 60.21296310424805 31.905296325683594 62.9396858215332 34.59312057495117 63.04738235473633 38.41071701049805"/>
    <path stroke-width="0" fill="rgb(137, 69, 28)" opacity="0.46961084" stroke="rgb(0, 0, 0)" stroke-opacity="0.0" stroke-linecap="round" stroke-linejoin="round" d="M 424.64971923828125 370.52130126953125 C 424.01385498046875 374.55865478515625 421.591552734375 378.1028747558594 417.69921875 379.0937194824219 C 412.89691162109375 377.3522033691406 409.8770751953125 374.6357421875 408.8245849609375 370.6070556640625 C 409.6708679199219 365.8215026855469 412.5564270019531 363.13067626953125 416.88116455078125 363.2297668457031 C 421.0045166015625 363.7518005371094 423.73486328125 366.48095703125 424.64971923828125 370.52130126953125"/>
    <path stroke-width="0" fill="rgb(208, 85, 39)" opacity="0.006386864" stroke="rgb(0, 0, 0)" stroke-opacity="0.0" stroke-linecap="round" stroke-linejoin="round" d="M 398.1441955566406 473.4065246582031 C 396.9838562011719 477.37518310546875 394.0282897949219 480.32745361328125 390.0875244140625 481.6037292480469 C 386.14422607421875 480.1979064941406 383.2095031738281 477.2570495605469 382.04632568359375 473.2919921875 C 383.0719299316406 469.3421325683594 385.9753112792969 466.3560485839844 390.05535888671875 465.1271667480469 C 394.1103515625 466.32196044921875 396.984130859375 469.3234558105469 398.1441955566406 473.4065246582031"/>
    <path stroke-width="0" fill="rgb(141, 126, 186)" opacity="0.94722456" stroke="rgb(0, 0, 0)" stroke-opacity="0.0" stroke-linecap="round" stroke-linejoin="round" d="M 103.22590637207031 366.4652404785156 C 102.5990219116211 370.53765869140625 99.63347625732422 373.3185729980469 95.90665435791016 374.2106628417969 C 91.7009506225586 373.9615478515625 88.41978454589844 371.4227294921875 87.48931121826172 366.8769226074219 C 89.18408203125 363.0338134765625 92.3487319946289 360.2659912109375 96.54619598388672 358.9668273925781 C 100.56132507324219 359.493408203125 103.34930419921875 362.4122619628906 103.22590637207031 366.4652404785156"/>
    <path stroke-width="0" fill="rgb(13, 10, 145)" opacity="0.061388064" stroke="rgb(0, 0, 0)" stroke-opacity="0.0" stroke-linecap="round" stroke-linejoin="round" d="M 289.19561767578125 159.9612579345703 C 287.6912841796875 163.3965301513672 285.05120849609375 166.5228271484375 281.3623352050781 168.97898864746094 C 277.233154296875 167.89791870117188 274.278564453125 165.01687622070312 273.57684326171875 161.3057861328125 C 275.1258850097656 156.1461181640625 277.16021728515625 152.74325561523438 280.9438171386719 153.53871154785156 C 285.5237121582031 154.03005981445312 288.7607116699219 156.5172576904297 289.19561767578125 159.9612579345703"/>
    <path stroke-width="0" fill="rgb(122, 225, 111)" opacity="0.0770574" stroke="rgb(0, 0, 0)" stroke-opacity="0.0" stroke-linecap="round" stroke-linejoin="round" d="M 95.36333465576172 235.1251678466797 C 95.59732818603516 240.12091064453125 93.07073974609375 242.88568115234375 89.02651977539062 242.9866485595703 C 84.41755676269531 241.7692108154297 81.18509674072266 239.81402587890625 80.84236907958984 235.8019561767578 C 81.9537353515625 231.9922637939453 85.10821533203125 229.1256561279297 89.12419891357422 227.407958984375 C 93.12389373779297 227.93382263183594 95.63863372802734 230.96226501464844 95.36333465576172 235.1251678466797"/>
    <path stroke-width="0" fill="rgb(92, 219, 83)" opacity="0.84836775" stroke="rgb(0, 0, 0)" stroke-opacity="0.0" stroke-linecap="round" stroke-linejoin="round" d="M 490.9944152832031 304.4294128417969 C 490.12042236328125 308.3147277832031 487.8355407714844 311.3975830078125 483.3852233886719 312.4563903808594 C 480.03045654296875 311.77642822265625 477.1572570800781 308.6705627441406 476.6748962402344 305.1153564453125 C 477.98046875 301.4606018066406 480.6487121582031 298.30755615234375 483.0388488769531 297.99713134765625 C 486.77398681640625 299.1969909667969 490.22119140625 301.7794494628906 490.9944152832031 304.4294128417969"/>
    <path stroke-width="0" fill="rgb(84, 9, 90)" opacity="0.1542994" stroke="rgb(0, 0, 0)" stroke-opacity="0.0" stroke-linecap="round" stroke-linejoin="round" d="M 487.9834289550781 480.34600830078125 C 487.2467346191406 484.29998779296875 484.64788818359375 487.27130126953125 480.3191833496094 487.71197509765625 C 476.6263427734375 486.7210998535156 473.6361389160156 483.8766174316406 472.73272705078125 480.01593017578125 C 473.5896301269531 476.01837158203125 476.1829528808594 472.902587890625 479.99700927734375 472.0687255859375 C 484.0396728515625 473.38006591796875 486.4624328613281 476.56561279296875 487.9834289550781 480.34600830078125"/>
    <path stroke-width="0" fill="rgb(180, 159, 81)" opacity="0.29145467" stroke="rgb(0, 0, 0)" stroke-opacity="0.0" stroke-linecap="round" stroke-linejoin="round" d="M 327.0787353515625 226.9242401123047 C 327.20697021484375 231.15939331054688 324.6451721191406 233.6333465576172 320.3390197753906 233.09396362304688 C 316.0749816894531 233.3433837890625 313.6391296386719 231.14593505859375 313.5229797363281 226.70118713378906 C 313.07855224609375 222.5318603515625 316.3269958496094 220.4000244140625 321.3454895019531 219.5543670654297 C 324.9088134765625 218.90618896484375 326.8893127441406 222.7771453857422 327.0787353515625 226.9242401123047"/>
    <path stroke-width="0" fill="rgb(153, 34, 223)" opacity="0.13810168" stroke="rgb(0, 0, 0)" stroke-opacity="0.0" stroke-linecap="round" stroke-linejoin="round" d="M 9.992972373962402 -0.3263830244541168 C 8.887855529785156 3.6796064376831055 5.957467079162598 6.60490608215332 1.9389880895614624 7.443399906158447 C -2.822244167327881 5.679495811462402 -5.798322677612305 2.820065975189209 -6.879673480987549 -1.1585662364959717 C -5.808258533477783 -5.157690048217773 -2.8800551891326904 -8.085893630981445 1.1199449300765991 -9.157690048217773 C 5.119945049285889 -8.085893630981445 8.048148155212402 -5.157690048217773 9.992972373962402 -0.3263830244541168"/>
    <path stroke-width="0" fill="rgb(129, 236, 74)" opacity="0.2559247" stroke="rgb(0, 0, 0)" stroke-opacity="0.0" stroke-linecap="round" stroke-linejoin="round" d="M 465.9557189941406 51.48073959350586 C 466.20330810546875 54.2214469909668 462.8921813964844 56.62661361694336 458.6231994628906 57.81692886352539 C 455.1374206542969 57.27445983886719 452.418701171875 54.223548889160156 452.2759094238281 50.16092300415039 C 452.5064392089844 46.52367401123047 455.4215087890625 43.36646270751953 459.06634521484375 42.59281539916992 C 462.5438537597656 43.657920837402344 465.0651550292969 47.0424690246582 465.9557189941406 51.48073959350586"/>
  </g>
</svg>
