<?xml version="1.0" ?>
<svg xmlns="http://www.w3.org/2000/svg" version="1.1" width="512" height="512">
  <defs/>
  <g>
    <path stroke-width="0" fill="rgb(99, 133, 136)" opacity="1.0304594" stroke="rgb(139, 182, 153)" stroke-opacity="1.0" stroke-linecap="round" stroke-linejoin="round" d="M 223.79754638671875 2.5127675533294678 C 161.9225311279297 4.575164318084717 193.4508819580078 50.39162826538086 67.52308654785156 130.23709106445312 C 58.17720031738281 122.41925048828125 55.588069915771484 110.84394073486328 52.61617660522461 86.8409194946289 C 57.40743637084961 -68.94577026367188 69.32137298583984 -69.69341278076172 85.61762237548828 -59.827640533447266 C 196.87753295898438 -32.08443832397461 204.8518524169922 -25.481735229492188 223.79754638671875 2.5127675533294678"/>
    <path stroke-width="0" fill="rgb(97, 126, 134)" opacity="0.9932811" stroke="rgb(108, 164, 111)" stroke-opacity="1.0" stroke-linecap="round" stroke-linejoin="round" d="M 145.13856506347656 83.20133209228516 C 155.11697387695312 158.3353729248047 160.42808532714844 170.8500213623047 98.68473052978516 172.3730926513672 C -60.77919006347656 166.43023681640625 -47.74129867553711 136.50534057617188 -41.06509780883789 85.29373168945312 C -38.50617218017578 -35.472816467285156 -31.483736038208008 -40.57529067993164 48.6486701965332 -37.21438980102539 C 114.49256896972656 -39.501487731933594 134.1575469970703 -47.025081634521484 145.13856506347656 83.20133209228516"/>
    <path stroke-width="0" fill="rgb(80, 128, 137)" opacity="1.0352926" stroke="rgb(245, 97, 201)" stroke-opacity="1.0" stroke-linecap="round" stroke-linejoin="round" d="M 491.51593017578125 531.0550537109375 C 350.8706970214844 582.8856811523438 327.6231384277344 574.8817749023438 -39.52774429321289 555.3480224609375 C -75.76151275634766 413.1372375488281 -51.65288543701172 351.97052001953125 -48.40964126586914 136.37615966796875 C -55.07050323486328 98.17414093017578 -58.582584381103516 85.67332458496094 145.43031311035156 85.14759826660156 C 263.01849365234375 78.98271179199219 394.3385925292969 31.680152893066406 491.51593017578125 531.0550537109375"/>
    <path stroke-width="0" fill="rgb(68, 126, 139)" opacity="1.0060105" stroke="rgb(144, 236, 18)" stroke-opacity="1.0" stroke-linecap="round" stroke-linejoin="round" d="M 552.9830322265625 549.4898681640625 C 343.7198486328125 509.3192443847656 284.27264404296875 423.6300354003906 159.7650146484375 320.22015380859375 C 77.06629943847656 170.7560577392578 57.998695373535156 159.91290283203125 51.47283172607422 136.01219177246094 C 177.52699279785156 21.583843231201172 128.07223510742188 -31.559844970703125 449.24139404296875 -54.355430603027344 C 555.062744140625 -124.77310180664062 573.008544921875 -219.4150390625 552.9830322265625 549.4898681640625"/>
    <path stroke-width="0" fill="rgb(262, 237, 202)" opacity="1.0239847" stroke="rgb(5, 212, 198)" stroke-opacity="1.0" stroke-linecap="round" stroke-linejoin="round" d="M 373.58154296875 366.138916015625 C 338.4906311035156 302.6568908691406 380.62060546875 431.522216796875 337.9745178222656 393.59356689453125 C 336.6954040527344 286.7781982421875 244.18380737304688 477.93133544921875 287.013671875 311.05120849609375 C 240.2651824951172 245.59495544433594 287.6231994628906 227.95643615722656 281.203125 305.58740234375 C 376.2771911621094 218.66900634765625 342.3835754394531 338.32891845703125 373.58154296875 366.138916015625"/>
    <path stroke-width="0" fill="rgb(230, 253, 259)" opacity="1.0130845" stroke="rgb(249, 203, 117)" stroke-opacity="1.0" stroke-linecap="round" stroke-linejoin="round" d="M 257.21112060546875 344.3383483886719 C 241.6621856689453 356.01287841796875 288.43255615234375 359.5368347167969 232.4037322998047 351.7066650390625 C 214.91346740722656 349.3811950683594 196.50563049316406 325.34613037109375 203.27255249023438 344.9849853515625 C 184.88829040527344 299.2582092285156 175.5274200439453 297.9608459472656 189.1447296142578 295.9716796875 C 263.6976623535156 316.2228698730469 252.0324249267578 282.726806640625 257.21112060546875 344.3383483886719"/>
    <path stroke-width="0" fill="rgb(263, 223, 99)" opacity="1.0670667" stroke="rgb(30, 163, 36)" stroke-opacity="1.0" stroke-linecap="round" stroke-linejoin="round" d="M 388.7474060058594 332.7247009277344 C 392.5019836425781 386.10418701171875 383.82757568359375 376.1050109863281 344.6274719238281 353.37213134765625 C 381.8533020019531 336.09722900390625 326.8800354003906 327.90301513671875 283.2763366699219 307.1993408203125 C 222.85211181640625 281.1709899902344 294.9912414550781 216.7217254638672 347.6956787109375 285.212646484375 C 336.36810302734375 300.17266845703125 365.01446533203125 266.0915832519531 388.7474060058594 332.7247009277344"/>
    <path stroke-width="0" fill="rgb(270, 164, 35)" opacity="1.0232638" stroke="rgb(133, 105, 67)" stroke-opacity="1.0" stroke-linecap="round" stroke-linejoin="round" d="M 308.2247619628906 94.18778991699219 C 318.6385803222656 240.2039337158203 145.63693237304688 251.75389099121094 234.42630004882812 74.28612518310547 C 175.74273681640625 165.47035217285156 153.64320373535156 244.65269470214844 186.31422424316406 120.05301666259766 C 225.6777801513672 51.599246978759766 214.1590576171875 60.842018127441406 231.53982543945312 61.422203063964844 C 246.15623474121094 103.59491729736328 227.6440887451172 126.71712493896484 308.2247619628906 94.18778991699219"/>
    <path stroke-width="0" fill="rgb(285, 195, 92)" opacity="1.0382476" stroke="rgb(116, 144, 4)" stroke-opacity="1.0" stroke-linecap="round" stroke-linejoin="round" d="M 302.3348693847656 321.64306640625 C 317.0041198730469 323.0168762207031 390.48406982421875 336.7535705566406 198.79078674316406 301.85601806640625 C 198.3973388671875 287.511474609375 160.34466552734375 405.3045349121094 157.5413360595703 245.0968780517578 C 230.9202880859375 -34.37349319458008 144.2350311279297 236.97705078125 254.85130310058594 242.57020568847656 C 286.7857666015625 250.67544555664062 257.5949401855469 143.59341430664062 302.3348693847656 321.64306640625"/>
    <path stroke-width="0" fill="rgb(253, 258, 257)" opacity="0.9884078" stroke="rgb(156, 157, 240)" stroke-opacity="1.0" stroke-linecap="round" stroke-linejoin="round" d="M 228.68435668945312 211.7823028564453 C 299.841064453125 279.77215576171875 171.27206420898438 249.16110229492188 199.13987731933594 193.33181762695312 C 305.8577575683594 312.8681335449219 169.62171936035156 120.73103332519531 238.66400146484375 234.6340789794922 C 181.52920532226562 189.6352996826172 142.14642333984375 117.18902587890625 277.6907653808594 193.45045471191406 C 315.52838134765625 270.12347412109375 178.32090759277344 160.8722381591797 228.68435668945312 211.7823028564453"/>
    <path stroke-width="0" fill="rgb(297, 183, 68)" opacity="0.99297243" stroke="rgb(91, 111, 177)" stroke-opacity="1.0" stroke-linecap="round" stroke-linejoin="round" d="M 169.04576110839844 280.4848327636719 C 137.73696899414062 261.0345764160156 228.49917602539062 275.12518310546875 179.75563049316406 405.5868835449219 C 98.38984680175781 417.0202941894531 191.57427978515625 424.7494812011719 160.2033233642578 301.7535400390625 C 154.86973571777344 157.894287109375 178.16574096679688 280.04010009765625 182.96255493164062 128.4123992919922 C 371.08392333984375 39.02140808105469 98.98259735107422 212.2126922607422 169.04576110839844 280.4848327636719"/>
    <path stroke-width="0" fill="rgb(276, 250, 128)" opacity="1.0144143" stroke="rgb(170, 171, 53)" stroke-opacity="1.0" stroke-linecap="round" stroke-linejoin="round" d="M 283.114501953125 325.3635559082031 C 258.910400390625 405.9123229980469 278.53021240234375 425.1020202636719 270.6033630371094 408.3695068359375 C 229.83270263671875 405.7824401855469 244.97201538085938 444.9110412597656 246.12371826171875 345.239013671875 C 243.64901733398438 331.771728515625 221.82867431640625 316.1633605957031 264.7857360839844 275.160888671875 C 279.709716796875 210.96923828125 289.8327941894531 237.68849182128906 283.114501953125 325.3635559082031"/>
    <path stroke-width="0" fill="rgb(241, 229, 188)" opacity="0.80125415" stroke="rgb(80, 92, 145)" stroke-opacity="1.0" stroke-linecap="round" stroke-linejoin="round" d="M 159.63943481445312 400.2850341796875 C 177.48843383789062 383.24932861328125 143.3719482421875 384.6150207519531 147.52993774414062 403.9210510253906 C 200.26210021972656 403.5862121582031 168.75755310058594 417.31964111328125 184.17982482910156 392.2447509765625 C 134.39964294433594 406.89697265625 145.4337615966797 374.9447326660156 189.17286682128906 394.558837890625 C 139.55349731445312 371.0904846191406 177.33987426757812 408.8140563964844 159.63943481445312 400.2850341796875"/>
    <path stroke-width="0" fill="rgb(269, 160, 60)" opacity="0.8377645" stroke="rgb(166, 64, 118)" stroke-opacity="1.0" stroke-linecap="round" stroke-linejoin="round" d="M 195.93736267089844 332.2422180175781 C 209.8619842529297 338.4372253417969 193.52175903320312 344.4720153808594 198.21145629882812 322.1031799316406 C 195.91055297851562 366.4766845703125 219.40065002441406 311.5442810058594 198.43319702148438 348.0937805175781 C 209.61839294433594 353.2026062011719 202.81423950195312 338.88519287109375 186.2443389892578 365.23187255859375 C 189.57481384277344 349.21307373046875 191.75303649902344 368.1827697753906 195.93736267089844 332.2422180175781"/>
    <path stroke-width="0" fill="rgb(286, 272, 238)" opacity="0.9364469" stroke="rgb(50, 94, 209)" stroke-opacity="1.0" stroke-linecap="round" stroke-linejoin="round" d="M 179.57388305664062 385.235595703125 C 177.22964477539062 412.4006652832031 169.34226989746094 410.3138732910156 213.7154541015625 398.8360595703125 C 148.69200134277344 415.64727783203125 176.9656982421875 415.2780456542969 146.56060791015625 412.0513000488281 C 147.2580108642578 376.5106201171875 158.67852783203125 404.8248291015625 161.9499969482422 389.3160095214844 C 119.96331024169922 374.1504211425781 181.73403930664062 398.939453125 179.57388305664062 385.235595703125"/>
    <path stroke-width="0" fill="rgb(73, 131, 139)" opacity="0.99051565" stroke="rgb(72, 30, 75)" stroke-opacity="1.0" stroke-linecap="round" stroke-linejoin="round" d="M 443.4090576171875 624.1217651367188 C -27.957521438598633 436.50799560546875 497.7369689941406 363.2146301269531 520.660888671875 336.2205505371094 C 264.65631103515625 422.4760437011719 495.40155029296875 361.08050537109375 318.7864074707031 255.5908203125 C 246.37603759765625 257.5625915527344 309.80743408203125 225.14407348632812 295.2129211425781 120.12129211425781 C 343.99847412109375 61.225685119628906 696.791259765625 -14.585518836975098 443.4090576171875 624.1217651367188"/>
    <path stroke-width="0" fill="rgb(207, 126, -2)" opacity="0.57319546" stroke="rgb(146, 236, 81)" stroke-opacity="1.0" stroke-linecap="round" stroke-linejoin="round" d="M 193.7758331298828 83.78105926513672 C 199.20179748535156 114.32482147216797 203.4436798095703 112.50880432128906 196.59414672851562 115.72290802001953 C 190.66543579101562 122.65431213378906 194.50811767578125 115.25077056884766 200.83311462402344 113.95339965820312 C 198.4681854248047 103.81776428222656 197.7476348876953 103.2272720336914 198.55599975585938 105.2007827758789 C 197.3272705078125 97.30147552490234 201.46168518066406 117.02642822265625 193.7758331298828 83.78105926513672"/>
    <path stroke-width="0" fill="rgb(83, 34, 60)" opacity="0.8412738" stroke="rgb(33, 182, 73)" stroke-opacity="1.0" stroke-linecap="round" stroke-linejoin="round" d="M 294.54913330078125 128.422607421875 C 304.56378173828125 177.21463012695312 292.4622802734375 128.24893188476562 298.05560302734375 132.59104919433594 C 294.4129638671875 132.3810272216797 295.89984130859375 138.34848022460938 297.04791259765625 122.16020965576172 C 288.2422180175781 175.87852478027344 305.7795104980469 141.3517608642578 298.4237060546875 169.75697326660156 C 298.1141052246094 109.33123779296875 290.7542419433594 178.96115112304688 294.54913330078125 128.422607421875"/>
    <path stroke-width="0" fill="rgb(276, 130, 12)" opacity="1.1393824" stroke="rgb(149, 5, 211)" stroke-opacity="1.0" stroke-linecap="round" stroke-linejoin="round" d="M 271.9258117675781 194.15725708007812 C 280.06256103515625 197.9720458984375 268.5188903808594 192.0574951171875 264.86407470703125 188.12939453125 C 293.7283020019531 181.95501708984375 250.23226928710938 192.74456787109375 242.82168579101562 184.35934448242188 C 187.3391571044922 142.22027587890625 310.272216796875 179.69674682617188 289.48760986328125 168.3701629638672 C 288.30169677734375 205.43946838378906 327.2321472167969 204.95994567871094 271.9258117675781 194.15725708007812"/>
    <path stroke-width="0" fill="rgb(26, 43, 81)" opacity="0.42273352" stroke="rgb(172, 68, 187)" stroke-opacity="1.0" stroke-linecap="round" stroke-linejoin="round" d="M 301.17694091796875 102.06509399414062 C 294.98492431640625 106.57780456542969 333.3493957519531 77.39159393310547 288.6648254394531 128.8003692626953 C 327.2690734863281 93.43828582763672 322.2597351074219 83.37646484375 276.9441833496094 106.753173828125 C 265.6324462890625 109.19341278076172 351.52557373046875 72.41315460205078 281.7599182128906 118.43953704833984 C 286.5692138671875 131.1107177734375 272.5404357910156 121.36686706542969 301.17694091796875 102.06509399414062"/>
    <path stroke-width="0" fill="rgb(49, -15, 49)" opacity="0.5070396" stroke="rgb(63, 146, 150)" stroke-opacity="1.0" stroke-linecap="round" stroke-linejoin="round" d="M 293.55230712890625 99.88507080078125 C 287.8912658691406 102.39347076416016 309.2435607910156 93.39811706542969 299.4257507324219 96.04700469970703 C 319.3041687011719 92.18648529052734 302.7017822265625 99.91436767578125 304.6829528808594 91.69806671142578 C 300.0657958984375 107.89018249511719 325.06005859375 94.36154174804688 291.6804504394531 97.34428405761719 C 278.2574462890625 109.42926788330078 239.4901580810547 115.33210754394531 293.55230712890625 99.88507080078125"/>
    <path stroke-width="0" fill="rgb(-11, -21, -42)" opacity="0.9923684" stroke="rgb(56, 242, 114)" stroke-opacity="1.0" stroke-linecap="round" stroke-linejoin="round" d="M 176.42027282714844 151.4330596923828 C 180.9024658203125 132.9407196044922 184.18177795410156 132.1502227783203 179.9029541015625 140.19569396972656 C 206.7246856689453 85.65247344970703 185.15911865234375 116.49346160888672 178.76849365234375 153.38983154296875 C 173.01022338867188 163.04360961914062 172.04592895507812 178.1377410888672 175.54757690429688 167.86570739746094 C 168.1072998046875 179.4130401611328 177.21807861328125 178.72265625 176.42027282714844 151.4330596923828"/>
    <path stroke-width="0" fill="rgb(32, -14, -17)" opacity="0.9164739" stroke="rgb(178, 75, 207)" stroke-opacity="1.0" stroke-linecap="round" stroke-linejoin="round" d="M 217.31588745117188 88.3274917602539 C 231.22274780273438 79.682373046875 228.6488494873047 83.99625396728516 226.23312377929688 105.54745483398438 C 180.6034393310547 155.81285095214844 216.44512939453125 112.2381591796875 223.0384521484375 94.87730407714844 C 208.92739868164062 130.2957000732422 209.86643981933594 100.29021453857422 212.04783630371094 99.39785766601562 C 225.95278930664062 90.49896240234375 200.53274536132812 110.77507781982422 217.31588745117188 88.3274917602539"/>
    <path stroke-width="0" fill="rgb(-30, -14, 2)" opacity="1.0252342" stroke="rgb(224, 148, 224)" stroke-opacity="1.0" stroke-linecap="round" stroke-linejoin="round" d="M 288.894775390625 222.3998565673828 C 291.84942626953125 210.73976135253906 283.5456848144531 230.45864868164062 300.2643127441406 208.67913818359375 C 303.3858337402344 188.5407257080078 278.6939392089844 205.65286254882812 278.32373046875 199.6013641357422 C 293.151611328125 185.19921875 271.6551513671875 215.52911376953125 281.61724853515625 193.94869995117188 C 284.2457580566406 211.33648681640625 285.04644775390625 203.0733642578125 288.894775390625 222.3998565673828"/>
    <path stroke-width="0" fill="rgb(72, 36, 33)" opacity="0.6752004" stroke="rgb(108, 154, 4)" stroke-opacity="1.0" stroke-linecap="round" stroke-linejoin="round" d="M 237.6295928955078 413.6289978027344 C 252.4457550048828 381.6631164550781 220.45811462402344 425.66192626953125 273.8362121582031 415.873779296875 C 249.2273406982422 409.0277404785156 286.88531494140625 436.66473388671875 268.6629638671875 390.493408203125 C 270.370849609375 428.0137634277344 255.28640747070312 408.05218505859375 270.0423278808594 414.0440368652344 C 210.3145751953125 415.7306213378906 261.5882873535156 395.6978759765625 237.6295928955078 413.6289978027344"/>
    <path stroke-width="0" fill="rgb(93, 111, 138)" opacity="0.54174596" stroke="rgb(168, 73, 157)" stroke-opacity="1.0" stroke-linecap="round" stroke-linejoin="round" d="M 147.6691436767578 363.4312438964844 C 194.36129760742188 386.8497619628906 141.82106018066406 383.11773681640625 167.80682373046875 382.36016845703125 C 173.04672241210938 382.0243835449219 163.09707641601562 382.558349609375 159.94175720214844 344.6688232421875 C 147.16241455078125 384.3227844238281 154.71603393554688 363.47918701171875 159.53939819335938 344.8208923339844 C 172.5441436767578 362.177978515625 167.17279052734375 377.5257263183594 147.6691436767578 363.4312438964844"/>
    <path stroke-width="0" fill="rgb(81, 42, -19)" opacity="0.31230295" stroke="rgb(34, 76, 145)" stroke-opacity="1.0" stroke-linecap="round" stroke-linejoin="round" d="M 232.71401977539062 112.5903549194336 C 196.34608459472656 120.59701538085938 213.2624053955078 96.25077819824219 227.19056701660156 102.65227508544922 C 192.90452575683594 64.84027099609375 218.69700622558594 72.5719223022461 194.79408264160156 101.09326934814453 C 182.6703338623047 144.28665161132812 190.50228881835938 72.30599975585938 226.3340301513672 105.11119079589844 C 231.4162139892578 74.5653076171875 171.05372619628906 80.87614440917969 232.71401977539062 112.5903549194336"/>
    <path stroke-width="0" fill="rgb(110, 29, 41)" opacity="0.5336308" stroke="rgb(146, 166, 166)" stroke-opacity="1.0" stroke-linecap="round" stroke-linejoin="round" d="M 173.9215850830078 200.22308349609375 C 171.82083129882812 201.2819061279297 173.326171875 198.79100036621094 173.41592407226562 187.3849639892578 C 166.1540985107422 207.7763214111328 174.9032440185547 148.777587890625 173.7549285888672 198.73974609375 C 166.84182739257812 203.74102783203125 175.9357147216797 189.77574157714844 169.14894104003906 201.28147888183594 C 176.93563842773438 197.01132202148438 172.0970916748047 198.15647888183594 173.9215850830078 200.22308349609375"/>
    <path stroke-width="0" fill="rgb(134, -36, -82)" opacity="0.37320027" stroke="rgb(228, 93, 111)" stroke-opacity="1.0" stroke-linecap="round" stroke-linejoin="round" d="M 233.56556701660156 118.92643737792969 C 241.5416717529297 98.49124908447266 232.2936553955078 57.062950134277344 238.52188110351562 84.57781982421875 C 221.44639587402344 119.2338638305664 235.06788635253906 137.96571350097656 219.33436584472656 102.8877944946289 C 238.04666137695312 91.11359405517578 290.31219482421875 139.24046325683594 266.2341003417969 113.14419555664062 C 234.39674377441406 105.21063232421875 250.6380157470703 89.32484436035156 233.56556701660156 118.92643737792969"/>
    <path stroke-width="0" fill="rgb(226, 172, 173)" opacity="0.5645948" stroke="rgb(205, 179, 25)" stroke-opacity="1.0" stroke-linecap="round" stroke-linejoin="round" d="M 198.26821899414062 101.70821380615234 C 237.21151733398438 85.8764419555664 186.6337890625 131.86231994628906 214.8743896484375 102.55522918701172 C 247.87464904785156 111.06838989257812 226.1056671142578 53.060115814208984 213.53395080566406 93.72943878173828 C 181.1818084716797 65.26313781738281 223.51853942871094 84.23766326904297 215.54542541503906 122.29617309570312 C 256.6282653808594 82.49638366699219 217.05088806152344 103.68457794189453 198.26821899414062 101.70821380615234"/>
    <path stroke-width="0" fill="rgb(217, 170, 132)" opacity="0.39824378" stroke="rgb(205, 145, 103)" stroke-opacity="1.0" stroke-linecap="round" stroke-linejoin="round" d="M 289.90618896484375 145.0442352294922 C 285.8533020019531 119.31812286376953 269.90185546875 140.4444580078125 284.70977783203125 131.18197631835938 C 292.4911193847656 152.36822509765625 280.02886962890625 138.2439422607422 293.7623291015625 144.6106414794922 C 295.2336120605469 151.3022003173828 293.3276672363281 109.29276275634766 299.831787109375 144.4034423828125 C 275.14801025390625 137.73435974121094 293.48980712890625 146.0499725341797 289.90618896484375 145.0442352294922"/>
    <path stroke-width="0" fill="rgb(110, 109, 139)" opacity="0.6931323" stroke="rgb(177, 115, 184)" stroke-opacity="1.0" stroke-linecap="round" stroke-linejoin="round" d="M 154.42897033691406 189.60287475585938 C 169.41282653808594 201.90322875976562 171.18423461914062 197.13343811035156 165.48928833007812 210.09725952148438 C 169.9454803466797 217.48463439941406 156.78012084960938 216.87448120117188 165.513916015625 224.09902954101562 C 168.48951721191406 206.301025390625 169.8638458251953 210.8557586669922 161.3729248046875 217.02239990234375 C 172.8653564453125 202.51565551757812 170.21932983398438 201.6963653564453 154.42897033691406 189.60287475585938"/>
    <path stroke-width="0" fill="rgb(215, 157, 233)" opacity="0.87472916" stroke="rgb(248, 218, 2)" stroke-opacity="1.0" stroke-linecap="round" stroke-linejoin="round" d="M 290.84771728515625 225.2667694091797 C 301.1169128417969 194.3587646484375 318.7842102050781 222.14535522460938 242.5347442626953 234.7998046875 C 251.0717315673828 249.32508850097656 242.95315551757812 230.59359741210938 263.90789794921875 230.94960021972656 C 275.09478759765625 218.5421142578125 275.86053466796875 245.1633758544922 258.6308288574219 239.3362274169922 C 227.43161010742188 220.62344360351562 287.01544189453125 210.2064971923828 290.84771728515625 225.2667694091797"/>
    <path stroke-width="0" fill="rgb(-15, 120, 74)" opacity="0.44278604" stroke="rgb(186, 43, 132)" stroke-opacity="1.0" stroke-linecap="round" stroke-linejoin="round" d="M 217.87039184570312 207.95091247558594 C 229.54876708984375 187.32676696777344 217.8778076171875 224.10121154785156 227.3053741455078 205.9603729248047 C 245.2313995361328 216.81272888183594 256.0111389160156 201.3877410888672 218.27996826171875 213.996826171875 C 215.72781372070312 192.3708038330078 223.02255249023438 196.75904846191406 221.1203155517578 203.4248504638672 C 211.7627410888672 215.41488647460938 239.84474182128906 232.41859436035156 217.87039184570312 207.95091247558594"/>
    <path stroke-width="0" fill="rgb(269, 107, -23)" opacity="0.45877522" stroke="rgb(88, 236, 179)" stroke-opacity="1.0" stroke-linecap="round" stroke-linejoin="round" d="M 285.1805419921875 264.34521484375 C 278.4134826660156 251.3564910888672 291.5771179199219 245.77825927734375 287.32672119140625 261.65399169921875 C 290.92706298828125 257.0104675292969 280.54925537109375 258.5862121582031 291.54034423828125 263.12847900390625 C 325.6362609863281 262.1341857910156 342.0715637207031 260.7448425292969 286.33502197265625 262.0472106933594 C 307.6443786621094 259.746337890625 306.7802734375 338.1343688964844 285.1805419921875 264.34521484375"/>
    <path stroke-width="0" fill="rgb(-49, -22, 25)" opacity="0.8583081" stroke="rgb(41, 158, 147)" stroke-opacity="1.0" stroke-linecap="round" stroke-linejoin="round" d="M 224.70785522460938 199.26097106933594 C 224.74855041503906 216.67898559570312 217.7267303466797 209.66278076171875 281.97296142578125 226.196044921875 C 278.8766784667969 211.19091796875 230.42010498046875 218.89297485351562 245.98028564453125 234.1282501220703 C 211.3688507080078 205.73385620117188 255.23593139648438 210.54226684570312 238.44168090820312 212.0217742919922 C 241.40565490722656 211.07135009765625 247.77894592285156 199.8705291748047 224.70785522460938 199.26097106933594"/>
    <path stroke-width="0" fill="rgb(42, 33, -14)" opacity="0.980794" stroke="rgb(238, 156, 136)" stroke-opacity="1.0" stroke-linecap="round" stroke-linejoin="round" d="M 305.1635437011719 192.08042907714844 C 291.71575927734375 178.8461456298828 274.1095275878906 173.6667022705078 290.468994140625 166.1293487548828 C 298.4454040527344 170.787353515625 282.23236083984375 160.12322998046875 292.18572998046875 169.41676330566406 C 285.10809326171875 177.69749450683594 285.6127624511719 176.1663360595703 309.34307861328125 207.09478759765625 C 280.954833984375 179.09588623046875 287.1436767578125 175.6771240234375 305.1635437011719 192.08042907714844"/>
    <path stroke-width="0" fill="rgb(90, 13, 25)" opacity="0.6240407" stroke="rgb(186, 79, 101)" stroke-opacity="1.0" stroke-linecap="round" stroke-linejoin="round" d="M 167.35714721679688 215.02670288085938 C 168.07672119140625 213.253662109375 167.06605529785156 220.11355590820312 167.59011840820312 213.8583984375 C 167.55020141601562 223.9165496826172 172.33181762695312 174.59109497070312 159.935302734375 242.1434783935547 C 159.5733642578125 238.29916381835938 168.7490997314453 229.7696990966797 162.6510772705078 225.72340393066406 C 166.48397827148438 214.0863494873047 163.65579223632812 236.53173828125 167.35714721679688 215.02670288085938"/>
    <path stroke-width="0" fill="rgb(81, 62, 0)" opacity="0.73831254" stroke="rgb(57, 64, 14)" stroke-opacity="1.0" stroke-linecap="round" stroke-linejoin="round" d="M 157.33221435546875 267.5750732421875 C 157.56689453125 266.90435791015625 157.6011199951172 284.5669860839844 157.54229736328125 253.15643310546875 C 169.25112915039062 221.21371459960938 151.6287384033203 208.67108154296875 159.34881591796875 303.31573486328125 C 166.78636169433594 314.599365234375 156.70936584472656 310.3094787597656 158.3091278076172 237.35195922851562 C 155.00881958007812 294.42279052734375 156.95773315429688 277.79559326171875 157.33221435546875 267.5750732421875"/>
    <path stroke-width="0" fill="rgb(261, 261, 260)" opacity="0.8157831" stroke="rgb(6, 17, 173)" stroke-opacity="1.0" stroke-linecap="round" stroke-linejoin="round" d="M 345.4282531738281 366.281494140625 C 347.31903076171875 398.33233642578125 371.94036865234375 363.50146484375 337.47283935546875 380.5965270996094 C 375.9080810546875 319.4246826171875 314.28985595703125 368.1134033203125 314.4309387207031 349.3774719238281 C 279.34454345703125 317.4287414550781 351.18218994140625 308.96478271484375 352.0740661621094 347.8995666503906 C 308.0216369628906 345.9607849121094 322.5436706542969 378.3175354003906 345.4282531738281 366.281494140625"/>
    <path stroke-width="0" fill="rgb(85, -6, -42)" opacity="0.9649126" stroke="rgb(136, 228, 252)" stroke-opacity="1.0" stroke-linecap="round" stroke-linejoin="round" d="M 317.1077880859375 258.6585998535156 C 411.208984375 323.6238098144531 382.79266357421875 306.21673583984375 353.5733337402344 286.7919006347656 C 342.3120422363281 283.1479187011719 352.8026123046875 282.0810852050781 354.66845703125 292.2266845703125 C 356.43914794921875 404.2371826171875 361.1056823730469 377.64599609375 357.54498291015625 299.77813720703125 C 348.0992431640625 300.5376892089844 352.4604797363281 270.7922668457031 317.1077880859375 258.6585998535156"/>
    <path stroke-width="0" fill="rgb(-13, -10, 2)" opacity="0.95227075" stroke="rgb(81, 97, 150)" stroke-opacity="1.0" stroke-linecap="round" stroke-linejoin="round" d="M 249.7331085205078 220.31350708007812 C 238.96876525878906 202.5570831298828 207.61648559570312 213.6973419189453 267.6879577636719 229.14425659179688 C 260.4348449707031 220.74462890625 227.89698791503906 221.1337127685547 253.2428741455078 238.8478240966797 C 267.7445373535156 249.33509826660156 276.9774475097656 235.29452514648438 259.4422302246094 241.90638732910156 C 255.73214721679688 230.2680206298828 251.83152770996094 236.35284423828125 249.7331085205078 220.31350708007812"/>
    <path stroke-width="0" fill="rgb(291, 289, 233)" opacity="0.8325566" stroke="rgb(160, 222, 69)" stroke-opacity="1.0" stroke-linecap="round" stroke-linejoin="round" d="M 182.75291442871094 389.3515625 C 198.62307739257812 378.44256591796875 158.6210174560547 407.7870178222656 164.81576538085938 372.5650634765625 C 165.16854858398438 396.229248046875 172.1234588623047 390.0080871582031 158.010498046875 396.5145568847656 C 174.6276397705078 361.9416198730469 158.9371337890625 356.96539306640625 165.4152374267578 351.5006408691406 C 161.18980407714844 368.9906311035156 187.7820587158203 339.9213562011719 182.75291442871094 389.3515625"/>
    <path stroke-width="0" fill="rgb(88, 126, 144)" opacity="0.9872686" stroke="rgb(47, 242, 175)" stroke-opacity="1.0" stroke-linecap="round" stroke-linejoin="round" d="M 317.2296447753906 355.50457763671875 C 320.4450988769531 365.29449462890625 319.2418212890625 346.0504455566406 319.6783752441406 353.96417236328125 C 311.2836608886719 349.4610290527344 300.24462890625 309.1106872558594 301.1618957519531 371.8116149902344 C 334.43206787109375 368.5258483886719 315.3831481933594 338.31610107421875 283.3891906738281 315.9629821777344 C 335.7221374511719 337.06414794921875 300.24456787109375 325.01556396484375 317.2296447753906 355.50457763671875"/>
    <path stroke-width="0" fill="rgb(105, -32, -53)" opacity="0.8072883" stroke="rgb(241, 186, 64)" stroke-opacity="1.0" stroke-linecap="round" stroke-linejoin="round" d="M 283.9930114746094 260.06854248046875 C 281.4854736328125 241.0173797607422 286.08282470703125 263.8412170410156 306.2601318359375 251.86959838867188 C 299.7496032714844 255.9528350830078 290.5413513183594 257.6757507324219 316.193115234375 259.9809875488281 C 333.6675720214844 256.612548828125 385.72869873046875 327.8909606933594 325.57562255859375 262.09747314453125 C 315.0015869140625 267.2081298828125 313.6114196777344 242.16001892089844 283.9930114746094 260.06854248046875"/>
    <path stroke-width="0" fill="rgb(-60, 17, 1)" opacity="0.8698436" stroke="rgb(132, 6, 52)" stroke-opacity="1.0" stroke-linecap="round" stroke-linejoin="round" d="M 203.24581909179688 100.98757934570312 C 204.0240020751953 98.85746002197266 194.1496124267578 85.69181823730469 201.7960662841797 98.44366455078125 C 201.59701538085938 88.34416198730469 216.7802276611328 60.025794982910156 188.57391357421875 120.08082580566406 C 219.72036743164062 64.21202087402344 210.5224609375 55.835472106933594 236.0718536376953 65.43763732910156 C 218.99063110351562 46.18149185180664 198.2777099609375 89.6855697631836 203.24581909179688 100.98757934570312"/>
    <path stroke-width="0" fill="rgb(8, -26, -28)" opacity="1.0345099" stroke="rgb(182, 100, 144)" stroke-opacity="1.0" stroke-linecap="round" stroke-linejoin="round" d="M 305.6473083496094 199.1107940673828 C 301.8067321777344 194.79856872558594 313.34283447265625 222.1472625732422 303.07073974609375 223.12904357910156 C 298.7492980957031 194.25218200683594 318.19342041015625 204.92941284179688 296.60772705078125 222.7881622314453 C 289.43450927734375 225.3773956298828 323.451416015625 235.74365234375 263.9979553222656 223.92572021484375 C 286.1235046386719 220.2932586669922 312.89947509765625 219.2820281982422 305.6473083496094 199.1107940673828"/>
    <path stroke-width="0" fill="rgb(162, 114, 114)" opacity="0.4505196" stroke="rgb(140, 149, 245)" stroke-opacity="1.0" stroke-linecap="round" stroke-linejoin="round" d="M 216.07386779785156 77.59706115722656 C 227.95816040039062 96.55070495605469 203.57766723632812 96.71293640136719 215.68292236328125 101.22736358642578 C 230.83009338378906 69.90626525878906 206.8352508544922 73.42640686035156 181.61819458007812 77.28479766845703 C 203.16189575195312 84.2336196899414 177.63729858398438 102.15357971191406 186.32550048828125 77.98451232910156 C 218.6525115966797 71.16483306884766 246.0740203857422 84.88874816894531 216.07386779785156 77.59706115722656"/>
    <path stroke-width="0" fill="rgb(278, 181, 50)" opacity="0.98481715" stroke="rgb(86, 245, 59)" stroke-opacity="1.0" stroke-linecap="round" stroke-linejoin="round" d="M 278.5605773925781 315.8615417480469 C 279.49810791015625 313.83599853515625 272.8478698730469 336.6310119628906 338.0593566894531 274.669921875 C 258.4197082519531 221.19056701660156 286.4385986328125 320.9041748046875 323.3077392578125 288.8157958984375 C 310.0140686035156 349.9265441894531 271.53790283203125 304.89447021484375 289.1148986816406 291.2806091308594 C 318.4375915527344 282.2796630859375 284.2145080566406 345.7547912597656 278.5605773925781 315.8615417480469"/>
    <path stroke-width="0" fill="rgb(259, 242, 230)" opacity="0.39981326" stroke="rgb(240, 203, 160)" stroke-opacity="1.0" stroke-linecap="round" stroke-linejoin="round" d="M 260.34521484375 183.55230712890625 C 259.5829772949219 203.24569702148438 266.79364013671875 214.2519989013672 296.3792419433594 236.4736785888672 C 300.8896484375 216.61114501953125 308.97113037109375 217.46426391601562 306.3847961425781 210.02749633789062 C 309.6274108886719 256.75030517578125 268.8471374511719 231.0611114501953 285.8259582519531 230.6377716064453 C 256.2605895996094 199.34996032714844 270.04400634765625 214.2672119140625 260.34521484375 183.55230712890625"/>
    <path stroke-width="0" fill="rgb(116, 30, 1)" opacity="0.7195943" stroke="rgb(88, 37, 250)" stroke-opacity="1.0" stroke-linecap="round" stroke-linejoin="round" d="M 272.7891540527344 347.16455078125 C 291.2314453125 311.058349609375 278.0687561035156 314.2354736328125 283.4053039550781 330.1716003417969 C 287.3735046386719 331.3603515625 287.7569580078125 261.4429016113281 281.91131591796875 318.85211181640625 C 291.0262451171875 341.22332763671875 292.3024597167969 306.9662780761719 321.923583984375 320.0702209472656 C 257.66925048828125 310.6102294921875 290.4964599609375 376.8498840332031 272.7891540527344 347.16455078125"/>
    <path stroke-width="0" fill="rgb(81, 132, 158)" opacity="0.37376672" stroke="rgb(126, 163, 93)" stroke-opacity="1.0" stroke-linecap="round" stroke-linejoin="round" d="M 202.5329132080078 75.72547149658203 C 210.36068725585938 65.58436584472656 218.30653381347656 73.58928680419922 206.12867736816406 70.2450942993164 C 209.97767639160156 61.85614776611328 209.79336547851562 30.832073211669922 208.48532104492188 61.79225158691406 C 208.15870666503906 69.86100769042969 229.353271484375 59.325931549072266 232.34556579589844 58.655372619628906 C 200.24832153320312 52.442787170410156 219.8813934326172 82.9841537475586 202.5329132080078 75.72547149658203"/>
    <path stroke-width="0" fill="rgb(76, 121, 135)" opacity="0.81155545" stroke="rgb(209, 48, 130)" stroke-opacity="1.0" stroke-linecap="round" stroke-linejoin="round" d="M 227.7660675048828 52.49681854248047 C 194.15135192871094 50.72787857055664 182.40768432617188 44.955963134765625 188.89146423339844 67.04583740234375 C 161.34744262695312 98.36906433105469 156.71450805664062 107.57199096679688 183.85025024414062 108.40229797363281 C 232.54783630371094 63.30572509765625 207.2224884033203 18.950881958007812 178.81539916992188 31.711153030395508 C 148.24801635742188 81.56838989257812 188.284423828125 70.68486022949219 227.7660675048828 52.49681854248047"/>
    <path stroke-width="0" fill="rgb(284, 117, 52)" opacity="0.56707776" stroke="rgb(24, 219, 248)" stroke-opacity="1.0" stroke-linecap="round" stroke-linejoin="round" d="M 229.13949584960938 107.77879333496094 C 226.83554077148438 86.98638916015625 225.1041717529297 80.53189086914062 241.10888671875 82.02904510498047 C 215.34507751464844 63.323974609375 229.98599243164062 74.90673828125 226.60121154785156 87.38609313964844 C 235.96548461914062 94.405517578125 235.29429626464844 89.87422943115234 234.56533813476562 75.53943634033203 C 227.9002685546875 80.49369049072266 236.2890167236328 58.40291213989258 229.13949584960938 107.77879333496094"/>
    <path stroke-width="0" fill="rgb(283, 129, -6)" opacity="0.47746226" stroke="rgb(103, 59, 33)" stroke-opacity="1.0" stroke-linecap="round" stroke-linejoin="round" d="M 227.21070861816406 62.55107879638672 C 210.24099731445312 66.08866882324219 214.6964111328125 83.5162124633789 234.52474975585938 93.76451873779297 C 240.6619415283203 118.69451904296875 236.78062438964844 126.26146697998047 226.66770935058594 121.85420989990234 C 243.0902557373047 120.46905517578125 238.0393829345703 80.61849212646484 213.3271026611328 95.91551208496094 C 210.03741455078125 79.34321594238281 216.06199645996094 82.46469116210938 227.21070861816406 62.55107879638672"/>
    <path stroke-width="0" fill="rgb(266, 165, -34)" opacity="0.76774544" stroke="rgb(185, 2, 196)" stroke-opacity="1.0" stroke-linecap="round" stroke-linejoin="round" d="M 174.9414520263672 95.89970397949219 C 193.91729736328125 80.11148834228516 194.42306518554688 113.67906188964844 203.5327606201172 92.21000671386719 C 207.61956787109375 175.5918731689453 211.76084899902344 78.14009094238281 206.02137756347656 106.97808837890625 C 211.28903198242188 93.90533447265625 178.5358428955078 104.99935150146484 176.54946899414062 94.30602264404297 C 196.03807067871094 109.00364685058594 196.3148651123047 79.76640319824219 174.9414520263672 95.89970397949219"/>
    <path stroke-width="0" fill="rgb(91, 114, 142)" opacity="0.8341454" stroke="rgb(66, 116, 174)" stroke-opacity="1.0" stroke-linecap="round" stroke-linejoin="round" d="M 179.84471130371094 101.22570037841797 C 178.22702026367188 94.90538787841797 197.00344848632812 168.00868225097656 175.59561157226562 103.88265228271484 C 151.2074737548828 112.02728271484375 134.20828247070312 136.22897338867188 162.30628967285156 110.87748718261719 C 177.3749237060547 109.47257995605469 178.4661865234375 101.42921447753906 172.70101928710938 62.34342575073242 C 185.4906768798828 115.23853302001953 179.8013458251953 112.58367156982422 179.84471130371094 101.22570037841797"/>
    <path stroke-width="0" fill="rgb(179, 124, 125)" opacity="0.637439" stroke="rgb(72, 96, 46)" stroke-opacity="1.0" stroke-linecap="round" stroke-linejoin="round" d="M 222.43801879882812 88.5235366821289 C 214.02224731445312 89.32100677490234 253.04974365234375 93.32930755615234 221.92303466796875 76.75889587402344 C 239.69256591796875 82.49375915527344 229.72769165039062 118.33596801757812 211.76084899902344 98.03488159179688 C 206.0056915283203 109.00619506835938 233.76002502441406 78.62623596191406 212.46725463867188 80.51781463623047 C 221.56857299804688 82.21760559082031 224.6031494140625 101.22761535644531 222.43801879882812 88.5235366821289"/>
    <path stroke-width="0" fill="rgb(82, 121, 130)" opacity="0.5296675" stroke="rgb(147, 244, 164)" stroke-opacity="1.0" stroke-linecap="round" stroke-linejoin="round" d="M 227.72695922851562 77.42923736572266 C 177.8538818359375 77.10235595703125 208.4994659423828 83.63143920898438 190.6759796142578 101.81103515625 C 174.80453491210938 167.3925018310547 108.801513671875 264.3299865722656 -46.493656158447266 119.64549255371094 C 179.94735717773438 16.662151336669922 156.59140014648438 84.24932861328125 226.85745239257812 77.4542236328125 C 239.01820373535156 71.75117492675781 229.6566162109375 89.0675048828125 227.72695922851562 77.42923736572266"/>
    <path stroke-width="0" fill="rgb(79, 122, 133)" opacity="1.0157773" stroke="rgb(109, 130, 136)" stroke-opacity="1.0" stroke-linecap="round" stroke-linejoin="round" d="M 198.02430725097656 93.85802459716797 C 196.64822387695312 83.85189056396484 154.95864868164062 80.59445190429688 168.31773376464844 94.47294616699219 C 181.42138671875 126.05780029296875 155.7464599609375 136.601806640625 176.65304565429688 77.23849487304688 C 153.33935546875 86.37630462646484 162.36448669433594 73.1726303100586 156.254638671875 76.57979583740234 C 184.05938720703125 99.88674926757812 183.79566955566406 122.47251892089844 198.02430725097656 93.85802459716797"/>
    <path stroke-width="0" fill="rgb(92, 115, 158)" opacity="0.49052158" stroke="rgb(70, 32, 100)" stroke-opacity="1.0" stroke-linecap="round" stroke-linejoin="round" d="M 287.2813720703125 119.06832122802734 C 298.6612548828125 112.61698150634766 288.1688232421875 121.69593048095703 298.65216064453125 131.06654357910156 C 280.19586181640625 118.7905502319336 314.26287841796875 102.79084014892578 306.42950439453125 136.49234008789062 C 306.29302978515625 122.61441802978516 311.315185546875 107.14965057373047 333.0594787597656 102.79829406738281 C 319.9662780761719 107.19255065917969 321.612060546875 99.80613708496094 287.2813720703125 119.06832122802734"/>
    <path stroke-width="0" fill="rgb(259, 102, 51)" opacity="0.6690976" stroke="rgb(47, 230, 138)" stroke-opacity="1.0" stroke-linecap="round" stroke-linejoin="round" d="M 281.8839111328125 319.3346862792969 C 286.0477600097656 313.53741455078125 278.58123779296875 281.3134765625 288.20458984375 319.4094543457031 C 309.25341796875 319.88348388671875 278.615478515625 335.428466796875 288.233642578125 297.0669860839844 C 286.9673767089844 244.46365356445312 288.3194274902344 254.35166931152344 280.08673095703125 325.46954345703125 C 286.99749755859375 327.36077880859375 290.04547119140625 318.3129577636719 281.8839111328125 319.3346862792969"/>
    <path stroke-width="0" fill="rgb(262, 170, 42)" opacity="0.43878415" stroke="rgb(224, 116, 184)" stroke-opacity="1.0" stroke-linecap="round" stroke-linejoin="round" d="M 302.7052307128906 114.49516296386719 C 290.4244689941406 102.03895568847656 296.63427734375 68.08125305175781 298.9140319824219 121.8260269165039 C 293.81903076171875 118.7755126953125 297.404052734375 90.94703674316406 294.4786682128906 117.61856079101562 C 305.1380615234375 137.42138671875 284.2320251464844 116.39993286132812 290.99163818359375 126.66397094726562 C 291.1871032714844 118.286865234375 283.8631286621094 111.67494201660156 302.7052307128906 114.49516296386719"/>
    <path stroke-width="0" fill="rgb(272, 209, 1)" opacity="0.6868955" stroke="rgb(230, 175, 178)" stroke-opacity="1.0" stroke-linecap="round" stroke-linejoin="round" d="M 306.4459533691406 101.64666748046875 C 298.3070983886719 118.98404693603516 287.57745361328125 130.69447326660156 274.4238586425781 141.72314453125 C 292.9642639160156 120.15225219726562 286.06671142578125 99.83465576171875 289.75506591796875 138.41696166992188 C 314.86724853515625 96.00435638427734 283.8844909667969 102.13671875 298.18597412109375 127.06449127197266 C 280.3638000488281 99.30921936035156 305.3260803222656 131.32626342773438 306.4459533691406 101.64666748046875"/>
    <path stroke-width="0" fill="rgb(267, 171, 42)" opacity="0.6531167" stroke="rgb(203, 244, 116)" stroke-opacity="1.0" stroke-linecap="round" stroke-linejoin="round" d="M 280.5956726074219 135.41714477539062 C 296.0909729003906 120.27931213378906 296.6773681640625 102.37052154541016 294.5119323730469 133.89395141601562 C 311.0289001464844 95.63713836669922 294.36346435546875 125.29753875732422 302.7724304199219 110.75108337402344 C 305.5255432128906 112.4135513305664 281.52252197265625 126.21531677246094 310.0120849609375 105.79869842529297 C 288.5541687011719 124.83486938476562 296.6741943359375 117.80242919921875 280.5956726074219 135.41714477539062"/>
    <path stroke-width="0" fill="rgb(243, 190, 64)" opacity="0.541584" stroke="rgb(65, 216, 8)" stroke-opacity="1.0" stroke-linecap="round" stroke-linejoin="round" d="M 296.8027648925781 117.00299835205078 C 278.7891540527344 136.5140838623047 278.34417724609375 143.2140655517578 274.516357421875 136.14923095703125 C 278.02752685546875 138.65786743164062 282.1280822753906 128.58740234375 277.9503173828125 160.57640075683594 C 278.1138000488281 146.304931640625 284.9348449707031 140.43978881835938 262.9026794433594 147.36524963378906 C 272.9328308105469 131.17051696777344 273.21728515625 152.87335205078125 296.8027648925781 117.00299835205078"/>
    <path stroke-width="0" fill="rgb(73, 36, 19)" opacity="0.746017" stroke="rgb(90, 90, 4)" stroke-opacity="1.0" stroke-linecap="round" stroke-linejoin="round" d="M 274.3615417480469 342.7593994140625 C 280.9613037109375 346.5399475097656 274.07403564453125 342.1423645019531 278.0475769042969 338.7452697753906 C 275.64312744140625 330.7674560546875 268.9923095703125 308.1469421386719 281.8895568847656 363.572021484375 C 273.2760925292969 387.0627136230469 272.62646484375 336.63323974609375 281.6227111816406 311.9788513183594 C 275.6786193847656 359.85693359375 283.91558837890625 340.92181396484375 274.3615417480469 342.7593994140625"/>
    <path stroke-width="0" fill="rgb(235, 134, 51)" opacity="0.43225566" stroke="rgb(221, 115, 83)" stroke-opacity="1.0" stroke-linecap="round" stroke-linejoin="round" d="M 298.0933532714844 239.45042419433594 C 306.04510498046875 183.15386962890625 315.7710266113281 209.10763549804688 298.712646484375 238.34654235839844 C 281.78509521484375 183.57228088378906 273.94512939453125 153.70069885253906 261.4559326171875 174.39682006835938 C 270.2235107421875 144.71461486816406 273.2842102050781 145.5646514892578 267.04705810546875 170.3101348876953 C 275.74493408203125 165.7864532470703 288.2127380371094 187.29690551757812 298.0933532714844 239.45042419433594"/>
    <path stroke-width="0" fill="rgb(76, 122, 134)" opacity="0.6925749" stroke="rgb(17, 64, 56)" stroke-opacity="1.0" stroke-linecap="round" stroke-linejoin="round" d="M 165.24020385742188 139.42982482910156 C 177.88453674316406 121.5209732055664 171.2903289794922 129.55673217773438 171.1927032470703 172.3450927734375 C 180.5682373046875 167.48388671875 176.1821746826172 142.486083984375 158.45315551757812 147.49256896972656 C 177.01597595214844 153.47964477539062 189.2859344482422 122.50725555419922 147.39569091796875 129.39381408691406 C 160.15086364746094 154.5679168701172 174.6124267578125 162.71575927734375 165.24020385742188 139.42982482910156"/>
    <path stroke-width="0" fill="rgb(257, 192, 50)" opacity="0.520435" stroke="rgb(33, 3, 29)" stroke-opacity="1.0" stroke-linecap="round" stroke-linejoin="round" d="M 222.99969482421875 157.41346740722656 C 194.5401611328125 136.94178771972656 207.8155517578125 163.75347900390625 191.74790954589844 178.17535400390625 C 211.15817260742188 136.09884643554688 205.10548400878906 144.5561065673828 191.8575897216797 146.2166748046875 C 179.16238403320312 134.0837860107422 196.47703552246094 137.1439666748047 190.0700225830078 176.89822387695312 C 174.7558135986328 174.48228454589844 185.9840545654297 176.19424438476562 222.99969482421875 157.41346740722656"/>
    <path stroke-width="0" fill="rgb(-38, 17, 4)" opacity="0.78307086" stroke="rgb(162, 125, 252)" stroke-opacity="1.0" stroke-linecap="round" stroke-linejoin="round" d="M 296.7044372558594 218.96823120117188 C 294.3595275878906 271.459228515625 279.9267883300781 208.63043212890625 303.9288635253906 243.1839141845703 C 287.13885498046875 220.018798828125 299.6976013183594 210.1003875732422 299.72259521484375 231.7430877685547 C 296.4207458496094 184.91146850585938 294.7126770019531 210.09996032714844 288.9976806640625 206.77236938476562 C 291.1512145996094 225.98081970214844 319.8019714355469 254.82579040527344 296.7044372558594 218.96823120117188"/>
    <path stroke-width="0" fill="rgb(165, 159, 128)" opacity="0.75314367" stroke="rgb(199, 73, 61)" stroke-opacity="1.0" stroke-linecap="round" stroke-linejoin="round" d="M 319.1940002441406 213.91043090820312 C 303.57574462890625 218.70645141601562 295.7549743652344 222.78004455566406 317.0186462402344 234.57403564453125 C 302.01910400390625 224.15562438964844 306.31378173828125 215.7966766357422 285.2937316894531 239.00448608398438 C 304.9188232421875 245.37710571289062 312.0146789550781 235.17897033691406 297.93780517578125 234.3022003173828 C 300.21307373046875 229.15907287597656 322.41278076171875 206.72361755371094 319.1940002441406 213.91043090820312"/>
    <path stroke-width="0" fill="rgb(135, 227, 231)" opacity="0.77132946" stroke="rgb(91, 211, 235)" stroke-opacity="1.0" stroke-linecap="round" stroke-linejoin="round" d="M 274.08154296875 203.64364624023438 C 283.75909423828125 199.0848846435547 315.4353332519531 185.50721740722656 295.1123352050781 240.461669921875 C 307.7607421875 237.16983032226562 336.59661865234375 218.41201782226562 273.49041748046875 222.41522216796875 C 305.45635986328125 210.4407958984375 312.26800537109375 207.8029022216797 313.9231872558594 217.9080047607422 C 317.2787170410156 200.619873046875 291.6269836425781 201.27462768554688 274.08154296875 203.64364624023438"/>
    <path stroke-width="0" fill="rgb(251, 263, 256)" opacity="1.0459324" stroke="rgb(247, 230, 75)" stroke-opacity="1.0" stroke-linecap="round" stroke-linejoin="round" d="M 201.2069854736328 213.2092742919922 C 208.73110961914062 213.68397521972656 200.38290405273438 196.8616943359375 215.19644165039062 204.19224548339844 C 216.50181579589844 199.3330078125 225.37062072753906 204.41064453125 228.0054473876953 225.36534118652344 C 222.726318359375 239.96353149414062 189.77574157714844 231.8682098388672 211.91006469726562 172.78500366210938 C 222.9420928955078 170.0550079345703 198.30845642089844 185.5831298828125 201.2069854736328 213.2092742919922"/>
    <path stroke-width="0" fill="rgb(232, 267, 284)" opacity="1.0157075" stroke="rgb(63, 27, 242)" stroke-opacity="1.0" stroke-linecap="round" stroke-linejoin="round" d="M 303.2205505371094 227.06544494628906 C 284.6968078613281 225.6219024658203 311.91717529296875 214.20950317382812 309.4530029296875 213.1670379638672 C 306.1004638671875 186.5607452392578 299.76971435546875 229.21414184570312 265.8236999511719 220.84596252441406 C 244.82662963867188 199.16180419921875 224.76773071289062 205.2046356201172 278.0404968261719 216.0952606201172 C 319.5967712402344 229.6900634765625 330.69476318359375 205.3301544189453 303.2205505371094 227.06544494628906"/>
    <path stroke-width="0" fill="rgb(-32, -28, -2)" opacity="0.6533662" stroke="rgb(69, 96, 95)" stroke-opacity="1.0" stroke-linecap="round" stroke-linejoin="round" d="M 299.1089172363281 195.3033905029297 C 278.05975341796875 224.362060546875 311.8742370605469 239.31201171875 321.4416198730469 232.75494384765625 C 301.40826416015625 239.8083953857422 287.7818603515625 246.233154296875 299.42108154296875 232.67279052734375 C 301.62152099609375 247.7310028076172 300.53466796875 231.64617919921875 282.9100036621094 201.15626525878906 C 316.0041809082031 189.1250457763672 302.9253234863281 213.9736328125 299.1089172363281 195.3033905029297"/>
    <path stroke-width="0" fill="rgb(295, 176, -46)" opacity="0.8858758" stroke="rgb(213, 60, 128)" stroke-opacity="1.0" stroke-linecap="round" stroke-linejoin="round" d="M 212.52523803710938 81.56006622314453 C 250.8095245361328 82.78579711914062 234.12646484375 104.79448699951172 232.64337158203125 89.32077026367188 C 208.52560424804688 80.76012420654297 195.75186157226562 97.79524993896484 223.168701171875 61.108943939208984 C 229.8545684814453 85.37931823730469 245.71261596679688 64.67618560791016 225.16976928710938 71.59303283691406 C 224.6728515625 66.49636840820312 258.48577880859375 83.73934936523438 212.52523803710938 81.56006622314453"/>
    <path stroke-width="0" fill="rgb(259, 200, 85)" opacity="0.531399" stroke="rgb(18, 74, 38)" stroke-opacity="1.0" stroke-linecap="round" stroke-linejoin="round" d="M 276.7212829589844 256.8480224609375 C 269.8589782714844 253.9317626953125 258.2490234375 252.59213256835938 262.3057861328125 253.65719604492188 C 208.2298126220703 258.2572326660156 218.84849548339844 248.17752075195312 186.33392333984375 219.6490478515625 C 232.7311553955078 261.28485107421875 266.3797302246094 249.7688751220703 211.01400756835938 255.233642578125 C 188.00552368164062 254.26246643066406 247.75840759277344 251.7228240966797 276.7212829589844 256.8480224609375"/>
    <path stroke-width="0" fill="rgb(174, 107, 82)" opacity="0.56755185" stroke="rgb(33, 154, 97)" stroke-opacity="1.0" stroke-linecap="round" stroke-linejoin="round" d="M 224.288330078125 52.80158615112305 C 198.58680725097656 66.46513366699219 216.11322021484375 81.09146118164062 209.58436584472656 71.81676483154297 C 210.65057373046875 73.61189270019531 209.08758544921875 66.7552719116211 211.5984344482422 83.65675354003906 C 210.1785125732422 98.18231201171875 234.6213836669922 61.7166748046875 213.04049682617188 85.51207733154297 C 209.2032012939453 64.14334869384766 209.29022216796875 62.548927307128906 224.288330078125 52.80158615112305"/>
    <path stroke-width="0" fill="rgb(117, 108, 138)" opacity="1.0060776" stroke="rgb(246, 139, 70)" stroke-opacity="1.0" stroke-linecap="round" stroke-linejoin="round" d="M 299.43328857421875 242.5064239501953 C 291.4834899902344 239.2301483154297 274.454833984375 230.50770568847656 330.4009704589844 229.53445434570312 C 311.71478271484375 230.59934997558594 296.8822326660156 223.48062133789062 263.59454345703125 226.30796813964844 C 294.9258728027344 226.36497497558594 284.0472717285156 241.7655487060547 307.8118896484375 198.3959503173828 C 268.79034423828125 167.5531768798828 330.119873046875 203.50975036621094 299.43328857421875 242.5064239501953"/>
    <path stroke-width="0" fill="rgb(141, 108, 96)" opacity="0.22524475" stroke="rgb(228, 103, 140)" stroke-opacity="1.0" stroke-linecap="round" stroke-linejoin="round" d="M 215.01327514648438 96.85845184326172 C 218.1243438720703 85.80232238769531 220.9041748046875 86.03990173339844 222.8260498046875 96.57764434814453 C 206.5816192626953 58.42483901977539 203.47621154785156 59.105918884277344 206.56431579589844 62.963951110839844 C 209.3769073486328 58.097496032714844 208.2230682373047 68.90947723388672 201.17079162597656 51.329139709472656 C 214.07652282714844 76.40118408203125 225.32766723632812 99.28598022460938 215.01327514648438 96.85845184326172"/>
    <path stroke-width="0" fill="rgb(71, 131, 135)" opacity="1.0034558" stroke="rgb(116, 102, 63)" stroke-opacity="1.0" stroke-linecap="round" stroke-linejoin="round" d="M 323.9683532714844 192.14601135253906 C 284.3096008300781 222.65109252929688 291.0834045410156 228.44851684570312 319.9921569824219 218.33094787597656 C 299.7034912109375 228.63621520996094 276.3538513183594 212.5167236328125 281.4450988769531 235.62376403808594 C 302.7327575683594 274.74261474609375 308.1551208496094 247.240966796875 295.3783264160156 237.64932250976562 C 307.29364013671875 250.49781799316406 331.68194580078125 278.13116455078125 323.9683532714844 192.14601135253906"/>
    <path stroke-width="0" fill="rgb(199, 73, 11)" opacity="0.5670188" stroke="rgb(79, 95, 133)" stroke-opacity="1.0" stroke-linecap="round" stroke-linejoin="round" d="M 231.52943420410156 94.46565246582031 C 255.75433349609375 102.01036834716797 262.97174072265625 103.45520782470703 245.8095245361328 98.83985137939453 C 237.19509887695312 91.88352966308594 244.37135314941406 109.58158874511719 224.47923278808594 75.31177520751953 C 251.4062042236328 96.84605407714844 234.3682861328125 106.0615463256836 240.0335235595703 89.42216491699219 C 230.80160522460938 75.23329162597656 241.45140075683594 96.65371704101562 231.52943420410156 94.46565246582031"/>
    <path stroke-width="0" fill="rgb(78, 127, 141)" opacity="0.71572196" stroke="rgb(85, 235, 219)" stroke-opacity="1.0" stroke-linecap="round" stroke-linejoin="round" d="M 315.11279296875 241.2518768310547 C 310.264892578125 245.61219787597656 302.5956726074219 240.42227172851562 363.991455078125 240.9100799560547 C 348.34710693359375 243.6531982421875 341.7099914550781 234.5899658203125 341.2904968261719 222.3429412841797 C 356.13153076171875 273.99176025390625 312.4232177734375 269.5395812988281 335.7770080566406 235.79449462890625 C 306.6947937011719 234.5985107421875 368.29278564453125 260.3871154785156 315.11279296875 241.2518768310547"/>
    <path stroke-width="0" fill="rgb(302, 191, -3)" opacity="0.8449467" stroke="rgb(64, 113, 26)" stroke-opacity="1.0" stroke-linecap="round" stroke-linejoin="round" d="M 296.32122802734375 102.80587768554688 C 286.3258056640625 85.6847915649414 318.0619201660156 119.26026916503906 307.35980224609375 94.06563568115234 C 307.7548522949219 114.4740219116211 287.08148193359375 142.0727996826172 286.9867248535156 111.96021270751953 C 313.42041015625 117.08932495117188 312.1893615722656 87.27471923828125 294.3572692871094 116.95692443847656 C 314.876220703125 110.36259460449219 301.4657287597656 96.0451889038086 296.32122802734375 102.80587768554688"/>
    <path stroke-width="0" fill="rgb(100, 122, 135)" opacity="0.1728095" stroke="rgb(0, 0, 0)" stroke-opacity="0.0" stroke-linecap="round" stroke-linejoin="round" d="M 129.4163818359375 16.229778289794922 C 129.99041748046875 22.895925521850586 129.2792510986328 26.345739364624023 124.93948364257812 29.361675262451172 C 121.57378387451172 28.74012565612793 120.92886352539062 27.352375030517578 121.40813446044922 17.39155387878418 C 121.88069152832031 18.29843521118164 131.46664428710938 20.189340591430664 127.89307403564453 16.035972595214844 C 124.90847778320312 18.28595542907715 131.1571044921875 17.010236740112305 129.4163818359375 16.229778289794922"/>
    <path stroke-width="0" fill="rgb(94, 124, 137)" opacity="0.12671056" stroke="rgb(0, 0, 0)" stroke-opacity="0.0" stroke-linecap="round" stroke-linejoin="round" d="M 448.291748046875 15.818492889404297 C 452.3644104003906 21.34712028503418 449.86370849609375 24.150461196899414 446.1935119628906 26.20875358581543 C 440.7318115234375 21.626062393188477 437.97027587890625 18.43399429321289 438.1591796875 14.606708526611328 C 434.6756896972656 9.635366439819336 437.288818359375 6.713328838348389 442.6371154785156 7.838232517242432 C 447.6202087402344 8.319402694702148 450.0484924316406 11.13366413116455 448.291748046875 15.818492889404297"/>
    <path stroke-width="0" fill="rgb(65, 146, 94)" opacity="0.32552165" stroke="rgb(0, 0, 0)" stroke-opacity="0.0" stroke-linecap="round" stroke-linejoin="round" d="M 17.14272117614746 3.405714511871338 C 19.236038208007812 6.737128257751465 18.168899536132812 10.166393280029297 14.835817337036133 12.624120712280273 C 20.18497657775879 13.061746597290039 15.229485511779785 10.644551277160645 9.149227142333984 9.378114700317383 C 12.184965133666992 2.024118185043335 12.866618156433105 -2.038569927215576 20.96303367614746 -3.279276132583618 C 26.765766143798828 0.011712783016264439 25.947967529296875 3.6404688358306885 17.14272117614746 3.405714511871338"/>
    <path stroke-width="0" fill="rgb(66, 141, 144)" opacity="0.68068975" stroke="rgb(0, 0, 0)" stroke-opacity="0.0" stroke-linecap="round" stroke-linejoin="round" d="M 16.47918701171875 9.240327835083008 C 14.273094177246094 14.865004539489746 18.200138092041016 25.156265258789062 14.38399600982666 23.13150978088379 C 4.54254150390625 23.77873992919922 5.126223564147949 19.988468170166016 2.836073160171509 9.793448448181152 C -1.9930340051651 4.976708889007568 1.8185378313064575 -1.0956833362579346 12.916202545166016 1.245088815689087 C 17.940610885620117 2.883060932159424 20.851703643798828 4.602881908416748 16.47918701171875 9.240327835083008"/>
    <path stroke-width="0" fill="rgb(94, 67, 80)" opacity="0.22179317" stroke="rgb(0, 0, 0)" stroke-opacity="0.0" stroke-linecap="round" stroke-linejoin="round" d="M 60.97771072387695 14.163490295410156 C 61.67850875854492 21.401212692260742 59.18600082397461 22.857669830322266 52.39141845703125 24.938533782958984 C 45.653507232666016 26.109060287475586 44.12104034423828 22.82755470275879 45.42264938354492 14.042160987854004 C 43.20713424682617 7.006094932556152 45.76856231689453 5.192154407501221 51.45016098022461 7.832189083099365 C 58.11713790893555 9.236499786376953 60.372528076171875 8.558396339416504 60.97771072387695 14.163490295410156"/>
    <path stroke-width="0" fill="rgb(105, 96, 144)" opacity="0.15904796" stroke="rgb(0, 0, 0)" stroke-opacity="0.0" stroke-linecap="round" stroke-linejoin="round" d="M 22.84087562561035 10.869210243225098 C 18.611976623535156 10.594154357910156 14.598841667175293 12.953206062316895 10.892816543579102 12.768972396850586 C 1.9007383584976196 17.57196807861328 1.8113473653793335 17.970224380493164 1.944307804107666 11.636642456054688 C 7.685463905334473 4.484014987945557 6.460065841674805 -0.9934468269348145 12.86923885345459 -2.684589147567749 C 19.164764404296875 -1.6478445529937744 19.793378829956055 3.4924697875976562 22.84087562561035 10.869210243225098"/>
    <path stroke-width="0" fill="rgb(132, 112, 89)" opacity="0.26266527" stroke="rgb(0, 0, 0)" stroke-opacity="0.0" stroke-linecap="round" stroke-linejoin="round" d="M 6.277638912200928 0.14519605040550232 C 9.978642463684082 7.38116979598999 9.319978713989258 10.784001350402832 3.944445848464966 12.486433982849121 C -2.024718761444092 15.170499801635742 -4.283915996551514 11.460197448730469 -4.003699779510498 5.692020893096924 C -1.891053557395935 0.405823290348053 1.0371496677398682 -2.5223798751831055 5.331884384155273 -3.808598041534424 C 9.66592788696289 -3.56028413772583 12.143715858459473 -2.2830140590667725 6.277638912200928 0.14519605040550232"/>
    <path stroke-width="0" fill="rgb(109, 134, 83)" opacity="0.36706486" stroke="rgb(0, 0, 0)" stroke-opacity="0.0" stroke-linecap="round" stroke-linejoin="round" d="M 12.373113632202148 0.6780349016189575 C 13.232213020324707 9.29737377166748 17.79381561279297 13.0595064163208 12.210023880004883 10.31248664855957 C 1.1004421710968018 11.347399711608887 -1.8680272102355957 8.29265022277832 4.015436172485352 5.817842960357666 C 4.172029495239258 -3.863168716430664 5.982189178466797 -6.720276355743408 10.771552085876465 -7.449234962463379 C 14.88204574584961 -6.341004848480225 17.665433883666992 -3.348989725112915 12.373113632202148 0.6780349016189575"/>
    <path stroke-width="0" fill="rgb(95, 120, 157)" opacity="0.5193905" stroke="rgb(0, 0, 0)" stroke-opacity="0.0" stroke-linecap="round" stroke-linejoin="round" d="M 277.9486999511719 4.502933025360107 C 278.8459777832031 5.830089569091797 272.50054931640625 7.946167945861816 273.6654357910156 7.197922229766846 C 269.080810546875 5.795868873596191 263.65789794921875 5.578033924102783 266.9387512207031 6.631192684173584 C 260.0412902832031 -0.5564018487930298 263.3212890625 -2.583756685256958 269.3019104003906 -4.927051067352295 C 276.4466552734375 -6.025390625 278.2225646972656 -3.9592537879943848 277.9486999511719 4.502933025360107"/>
    <path stroke-width="0" fill="rgb(52, 155, 130)" opacity="0.6331164" stroke="rgb(0, 0, 0)" stroke-opacity="0.0" stroke-linecap="round" stroke-linejoin="round" d="M 36.576255798339844 6.194916248321533 C 35.60221481323242 11.183150291442871 34.530147552490234 15.605995178222656 35.81168746948242 10.959569931030273 C 28.921951293945312 8.975323677062988 23.705686569213867 8.429603576660156 22.00923728942871 4.50163459777832 C 20.58038330078125 0.05561807006597519 22.926300048828125 -2.6797449588775635 29.20560646057129 -4.438535690307617 C 35.5487060546875 -2.401339530944824 35.450096130371094 3.3123340606689453 36.576255798339844 6.194916248321533"/>
    <path stroke-width="0" fill="rgb(109, 187, 201)" opacity="0.25410184" stroke="rgb(0, 0, 0)" stroke-opacity="0.0" stroke-linecap="round" stroke-linejoin="round" d="M 57.37653350830078 15.925275802612305 C 59.0263557434082 19.326276779174805 55.8299674987793 21.36990737915039 49.03684616088867 24.25963020324707 C 47.57787322998047 25.14688491821289 44.358951568603516 22.385761260986328 45.590660095214844 16.44399070739746 C 42.55843734741211 9.066204071044922 46.85713577270508 7.763845443725586 50.30405044555664 9.584948539733887 C 56.69366455078125 11.88315200805664 60.70263671875 13.799494743347168 57.37653350830078 15.925275802612305"/>
    <path stroke-width="0" fill="rgb(51, 135, 197)" opacity="0.36592817" stroke="rgb(0, 0, 0)" stroke-opacity="0.0" stroke-linecap="round" stroke-linejoin="round" d="M 41.26202392578125 5.994659423828125 C 40.51125717163086 11.053376197814941 42.05496597290039 19.820615768432617 38.814727783203125 17.02796745300293 C 27.013591766357422 16.451501846313477 26.49759864807129 16.028926849365234 29.872957229614258 11.228863716125488 C 27.718643188476562 2.300286054611206 29.77110481262207 -2.270768404006958 34.794681549072266 -3.5176827907562256 C 39.53526306152344 -2.09120774269104 39.332706451416016 1.9235368967056274 41.26202392578125 5.994659423828125"/>
    <path stroke-width="0" fill="rgb(115, 134, 204)" opacity="0.06883714" stroke="rgb(0, 0, 0)" stroke-opacity="0.0" stroke-linecap="round" stroke-linejoin="round" d="M 249.5078582763672 80.13593292236328 C 250.87124633789062 86.97941589355469 252.81947326660156 86.68572998046875 247.4820098876953 85.91551971435547 C 237.78668212890625 89.5752182006836 238.39881896972656 86.19454193115234 236.08804321289062 78.7623291015625 C 235.68875122070312 73.23390197753906 236.22068786621094 71.0738754272461 239.0120086669922 75.6569595336914 C 244.25115966796875 78.15374755859375 252.70228576660156 79.31745910644531 249.5078582763672 80.13593292236328"/>
    <path stroke-width="0" fill="rgb(171, 143, 71)" opacity="0.33436415" stroke="rgb(0, 0, 0)" stroke-opacity="0.0" stroke-linecap="round" stroke-linejoin="round" d="M 98.8708724975586 451.58978271484375 C 98.0411605834961 455.4205322265625 98.05906677246094 456.7919921875 92.71060180664062 453.81146240234375 C 89.24357604980469 453.2681884765625 86.24724578857422 450.687255859375 88.19367980957031 450.0383605957031 C 89.90873718261719 446.6566467285156 89.06996154785156 444.54534912109375 87.7380599975586 447.8831787109375 C 92.75714111328125 447.4922790527344 95.88749694824219 450.1719665527344 98.8708724975586 451.58978271484375"/>
    <path stroke-width="0" fill="rgb(72, 130, 145)" opacity="0.059565824" stroke="rgb(0, 0, 0)" stroke-opacity="0.0" stroke-linecap="round" stroke-linejoin="round" d="M 68.61326599121094 401.0030822753906 C 67.99469757080078 403.9920654296875 65.1409912109375 406.77154541015625 61.161869049072266 407.6323547363281 C 58.08415603637695 406.5872497558594 55.78716278076172 403.0865783691406 55.72353744506836 399.5205078125 C 54.1807975769043 394.4827575683594 55.28585433959961 390.9357604980469 58.4508056640625 393.9289855957031 C 63.134403228759766 395.9271240234375 66.66289520263672 398.03692626953125 68.61326599121094 401.0030822753906"/>
    <path stroke-width="0" fill="rgb(164, 111, 198)" opacity="0.24681698" stroke="rgb(0, 0, 0)" stroke-opacity="0.0" stroke-linecap="round" stroke-linejoin="round" d="M 32.17599868774414 -0.3318325877189636 C 33.176902770996094 6.831001281738281 33.8376350402832 11.898545265197754 28.70979881286621 8.25119400024414 C 22.80042839050293 9.029887199401855 24.830495834350586 4.1965837478637695 24.153705596923828 -4.340583801269531 C 20.115108489990234 -3.9630367755889893 23.043787002563477 -6.891108989715576 27.043787002563477 -7.9629058837890625 C 31.043787002563477 -6.891108989715576 33.971988677978516 -3.9629058837890625 32.17599868774414 -0.3318325877189636"/>
    <path stroke-width="0" fill="rgb(69, 125, 144)" opacity="0.3430613" stroke="rgb(0, 0, 0)" stroke-opacity="0.0" stroke-linecap="round" stroke-linejoin="round" d="M 161.74073791503906 41.87506103515625 C 159.69122314453125 48.16777038574219 158.07247924804688 50.01969528198242 149.62649536132812 46.918060302734375 C 146.6063232421875 49.8450813293457 145.2620849609375 46.29217529296875 146.95774841308594 42.2823486328125 C 146.70022583007812 40.039451599121094 149.70619201660156 36.558536529541016 152.0763397216797 34.95639419555664 C 158.82232666015625 33.935359954833984 160.72802734375 35.39149475097656 161.74073791503906 41.87506103515625"/>
    <path stroke-width="0" fill="rgb(225, 55, 58)" opacity="0.7484325" stroke="rgb(0, 0, 0)" stroke-opacity="0.0" stroke-linecap="round" stroke-linejoin="round" d="M 14.258832931518555 -16.695833206176758 C 13.18703556060791 -12.695834159851074 10.258832931518555 -9.767630577087402 6.2588324546813965 -8.695834159851074 C 2.2588326930999756 -9.767630577087402 -0.6693705320358276 -12.695834159851074 -1.7411673069000244 -16.695833206176758 C -0.6693705320358276 -20.695833206176758 2.2588326930999756 -23.62403678894043 6.2588324546813965 -24.695833206176758 C 10.258832931518555 -23.62403678894043 13.18703556060791 -20.695833206176758 14.258832931518555 -16.695833206176758"/>
    <path stroke-width="0" fill="rgb(126, 129, 135)" opacity="0.39435372" stroke="rgb(0, 0, 0)" stroke-opacity="0.0" stroke-linecap="round" stroke-linejoin="round" d="M 19.653553009033203 13.55599308013916 C 19.83180046081543 21.443187713623047 19.064189910888672 23.011716842651367 14.455037117004395 22.30377769470215 C 9.91083812713623 22.766477584838867 6.117167949676514 21.876293182373047 4.123353481292725 17.528234481811523 C 2.9665629863739014 10.764139175415039 7.044808387756348 10.051648139953613 13.717081069946289 9.326605796813965 C 18.330236434936523 9.9096040725708 21.796619415283203 13.32939624786377 19.653553009033203 13.55599308013916"/>
    <path stroke-width="0" fill="rgb(147, 143, 101)" opacity="-0.027222222" stroke="rgb(0, 0, 0)" stroke-opacity="0.0" stroke-linecap="round" stroke-linejoin="round" d="M 154.68954467773438 198.20286560058594 C 155.4805908203125 201.20025634765625 154.1396026611328 205.68092346191406 149.91412353515625 204.31500244140625 C 141.9237518310547 205.56105041503906 139.08042907714844 203.34478759765625 140.64703369140625 198.49241638183594 C 141.15185546875 192.35556030273438 144.51881408691406 189.91761779785156 147.64720153808594 189.7310028076172 C 151.17611694335938 190.9088592529297 154.09722900390625 193.74810791015625 154.68954467773438 198.20286560058594"/>
    <path stroke-width="0" fill="rgb(169, 142, 143)" opacity="0.012628949" stroke="rgb(0, 0, 0)" stroke-opacity="0.0" stroke-linecap="round" stroke-linejoin="round" d="M 38.10033416748047 225.01100158691406 C 38.420345306396484 229.94544982910156 38.128387451171875 232.05068969726562 33.67461395263672 231.15321350097656 C 25.302921295166016 231.75906372070312 22.982044219970703 231.73934936523438 25.4810733795166 225.36241149902344 C 22.463375091552734 218.70948791503906 26.495542526245117 215.22747802734375 31.250164031982422 215.53126525878906 C 36.29623031616211 218.32034301757812 39.197566986083984 220.17208862304688 38.10033416748047 225.01100158691406"/>
    <path stroke-width="0" fill="rgb(74, 130, 62)" opacity="0.012872408" stroke="rgb(0, 0, 0)" stroke-opacity="0.0" stroke-linecap="round" stroke-linejoin="round" d="M 90.66983795166016 431.942626953125 C 89.82750701904297 435.1758117675781 87.6489486694336 439.080322265625 83.80833435058594 440.39044189453125 C 79.54212188720703 438.6089782714844 77.66590881347656 435.1639709472656 79.78242492675781 431.49359130859375 C 78.40291595458984 427.8792724609375 79.74420166015625 424.2275695800781 82.32754516601562 422.25579833984375 C 85.73780059814453 426.2060546875 89.20365142822266 428.6822509765625 90.66983795166016 431.942626953125"/>
    <path stroke-width="0" fill="rgb(148, 91, 191)" opacity="0.06136106" stroke="rgb(0, 0, 0)" stroke-opacity="0.0" stroke-linecap="round" stroke-linejoin="round" d="M 174.9337158203125 170.23052978515625 C 176.7967987060547 173.3492889404297 174.08314514160156 176.11012268066406 168.62298583984375 178.2284698486328 C 164.55221557617188 177.46261596679688 164.59930419921875 171.37254333496094 165.20904541015625 163.55865478515625 C 161.8565673828125 159.46939086914062 162.0175018310547 156.6286163330078 166.229248046875 156.77679443359375 C 172.87982177734375 161.15966796875 175.86798095703125 163.86427307128906 174.9337158203125 170.23052978515625"/>
    <path stroke-width="0" fill="rgb(89, 178, 61)" opacity="0.350613" stroke="rgb(0, 0, 0)" stroke-opacity="0.0" stroke-linecap="round" stroke-linejoin="round" d="M 346.8683166503906 305.7666015625 C 345.6867370605469 311.0050964355469 344.9760437011719 313.68658447265625 339.9709167480469 315.34906005859375 C 339.314453125 318.99725341796875 340.5846252441406 314.7718811035156 338.4760437011719 309.226806640625 C 336.26458740234375 308.3349609375 344.0391845703125 307.50811767578125 346.8652648925781 305.90557861328125 C 346.33099365234375 304.7154541015625 349.6827697753906 305.8623046875 346.8683166503906 305.7666015625"/>
    <path stroke-width="0" fill="rgb(48, 181, 73)" opacity="0.08953726" stroke="rgb(0, 0, 0)" stroke-opacity="0.0" stroke-linecap="round" stroke-linejoin="round" d="M 355.5622253417969 234.70504760742188 C 352.4610595703125 243.33323669433594 349.9940185546875 243.0479278564453 344.2982482910156 241.19239807128906 C 342.0634765625 241.55938720703125 339.6792297363281 238.54676818847656 340.5660095214844 240.720703125 C 340.0725402832031 236.9939727783203 342.9847717285156 234.41282653808594 345.7705383300781 231.36196899414062 C 348.298583984375 230.2911376953125 353.3343811035156 231.02041625976562 355.5622253417969 234.70504760742188"/>
    <path stroke-width="0" fill="rgb(89, 78, 63)" opacity="0.068425946" stroke="rgb(0, 0, 0)" stroke-opacity="0.0" stroke-linecap="round" stroke-linejoin="round" d="M 443.2628173828125 251.39547729492188 C 442.9415283203125 253.38412475585938 442.0641784667969 261.3904724121094 442.4100646972656 261.3932800292969 C 443.2325744628906 251.6060028076172 440.24884033203125 250.7854461669922 435.9811096191406 247.8482208251953 C 439.71148681640625 252.62850952148438 442.4568786621094 249.72079467773438 443.1543273925781 247.30140686035156 C 442.0160827636719 247.18479919433594 442.38787841796875 251.87803649902344 443.2628173828125 251.39547729492188"/>
    <path stroke-width="0" fill="rgb(183, 112, 31)" opacity="0.29724902" stroke="rgb(0, 0, 0)" stroke-opacity="0.0" stroke-linecap="round" stroke-linejoin="round" d="M 360.0033264160156 261.7055358886719 C 365.97503662109375 263.78973388671875 366.2613220214844 265.68768310546875 361.6916198730469 260.6258850097656 C 350.23931884765625 260.2210693359375 348.3735046386719 260.0563659667969 352.1205749511719 255.08807373046875 C 350.71246337890625 246.45240783691406 351.2835388183594 242.75091552734375 356.37139892578125 246.99319458007812 C 361.2790222167969 251.51593017578125 366.7545471191406 254.0833282470703 360.0033264160156 261.7055358886719"/>
    <path stroke-width="0" fill="rgb(151, 103, 84)" opacity="0.13829346" stroke="rgb(0, 0, 0)" stroke-opacity="0.0" stroke-linecap="round" stroke-linejoin="round" d="M 161.9087371826172 510.0007019042969 C 172.79847717285156 511.4070739746094 174.07455444335938 512.6615600585938 165.62847900390625 515.629150390625 C 157.67396545410156 515.5214233398438 158.59445190429688 513.4824829101562 158.84515380859375 510.2163391113281 C 158.6111602783203 499.5360412597656 159.87538146972656 493.8871154785156 160.5321502685547 509.1848449707031 C 166.44017028808594 508.33135986328125 167.08041381835938 504.33148193359375 161.9087371826172 510.0007019042969"/>
    <path stroke-width="0" fill="rgb(22, 155, 29)" opacity="0.13345192" stroke="rgb(0, 0, 0)" stroke-opacity="0.0" stroke-linecap="round" stroke-linejoin="round" d="M -100.48587799072266 -83.45436096191406 C -101.55767822265625 -79.45436096191406 -104.48587799072266 -76.52615356445312 -108.48587799072266 -75.45436096191406 C -112.48587799072266 -76.52615356445312 -115.4140853881836 -79.45436096191406 -116.48587799072266 -83.45436096191406 C -115.4140853881836 -87.45436096191406 -112.48587799072266 -90.38256072998047 -108.48587799072266 -91.45436096191406 C -104.48587799072266 -90.38256072998047 -101.55767822265625 -87.45436096191406 -100.48587799072266 -83.45436096191406"/>
    <path stroke-width="0" fill="rgb(194, 130, 130)" opacity="0.34169495" stroke="rgb(0, 0, 0)" stroke-opacity="0.0" stroke-linecap="round" stroke-linejoin="round" d="M 449.61981201171875 373.15191650390625 C 444.6744689941406 373.987548828125 444.60296630859375 376.9613952636719 444.3396911621094 373.93798828125 C 433.900634765625 374.06781005859375 433.48248291015625 375.27423095703125 437.4176940917969 368.512451171875 C 435.0489196777344 368.5943298339844 438.3885192871094 367.4534912109375 435.1182556152344 370.3244934082031 C 441.0072326660156 369.2199401855469 444.490234375 372.065185546875 449.61981201171875 373.15191650390625"/>
    <path stroke-width="0" fill="rgb(187, 96, 52)" opacity="0.4520501" stroke="rgb(0, 0, 0)" stroke-opacity="0.0" stroke-linecap="round" stroke-linejoin="round" d="M -0.06671374291181564 -1.1406559944152832 C -0.9935972690582275 3.75180983543396 -2.8852670192718506 7.534296989440918 -6.446967601776123 8.863065719604492 C -10.362608909606934 7.76533317565918 -13.290812492370605 4.837129592895508 -14.362608909606934 0.8371297717094421 C -13.290812492370605 -3.162870168685913 -10.362608909606934 -6.091073513031006 -6.363867282867432 -7.162430763244629 C -2.4274260997772217 -6.066844940185547 0.300060510635376 -2.9328224658966064 -0.06671374291181564 -1.1406559944152832"/>
    <path stroke-width="0" fill="rgb(79, 125, 131)" opacity="0.8008955" stroke="rgb(0, 0, 0)" stroke-opacity="0.0" stroke-linecap="round" stroke-linejoin="round" d="M 137.3868865966797 385.604248046875 C 140.61427307128906 390.31561279296875 140.43907165527344 394.2400817871094 136.49180603027344 390.3038635253906 C 124.15553283691406 394.00244140625 125.51573944091797 393.65313720703125 128.05484008789062 385.34716796875 C 124.32894134521484 378.50433349609375 128.5061492919922 376.5928955078125 133.79214477539062 376.4605712890625 C 136.336181640625 378.2043151855469 138.96559143066406 381.5168151855469 137.3868865966797 385.604248046875"/>
    <path stroke-width="0" fill="rgb(191, 209, 242)" opacity="-0.0038860778" stroke="rgb(0, 0, 0)" stroke-opacity="0.0" stroke-linecap="round" stroke-linejoin="round" d="M 43.05655288696289 144.41127014160156 C 45.988155364990234 149.03292846679688 44.75833511352539 150.90516662597656 40.01902389526367 151.3447723388672 C 35.02224349975586 148.9722900390625 30.284271240234375 146.7473602294922 31.544023513793945 144.1243438720703 C 32.72567367553711 140.0023651123047 34.60795593261719 135.83616638183594 36.8442497253418 135.9563446044922 C 41.83588409423828 136.20208740234375 44.75689697265625 138.54541015625 43.05655288696289 144.41127014160156"/>
    <path stroke-width="0" fill="rgb(213, 11, 17)" opacity="0.5931626" stroke="rgb(0, 0, 0)" stroke-opacity="0.0" stroke-linecap="round" stroke-linejoin="round" d="M 24.668621063232422 -21.762842178344727 C 23.596824645996094 -17.762842178344727 20.668621063232422 -14.834639549255371 16.668621063232422 -13.762843132019043 C 12.668622016906738 -14.834639549255371 9.740418434143066 -17.762842178344727 8.668622016906738 -21.762842178344727 C 9.740418434143066 -25.762842178344727 12.668622016906738 -28.6910457611084 16.668621063232422 -29.762842178344727 C 20.668621063232422 -28.6910457611084 23.596824645996094 -25.762842178344727 24.668621063232422 -21.762842178344727"/>
    <path stroke-width="0" fill="rgb(126, 251, 169)" opacity="0.54950905" stroke="rgb(0, 0, 0)" stroke-opacity="0.0" stroke-linecap="round" stroke-linejoin="round" d="M 108.10499572753906 -84.74349212646484 C 107.033203125 -80.74349212646484 104.10499572753906 -77.8152847290039 100.10499572753906 -76.74349212646484 C 96.10499572753906 -77.8152847290039 93.17679595947266 -80.74349212646484 92.10499572753906 -84.74349212646484 C 93.17679595947266 -88.74349212646484 96.10499572753906 -91.67169189453125 100.10499572753906 -92.74349212646484 C 104.10499572753906 -91.67169189453125 107.033203125 -88.74349212646484 108.10499572753906 -84.74349212646484"/>
    <path stroke-width="0" fill="rgb(197, 121, 32)" opacity="0.03342436" stroke="rgb(0, 0, 0)" stroke-opacity="0.0" stroke-linecap="round" stroke-linejoin="round" d="M 1.389222264289856 -17.607885360717773 C 0.3174254894256592 -13.607885360717773 -2.6107778549194336 -10.679681777954102 -6.610777854919434 -9.607885360717773 C -10.610777854919434 -10.679681777954102 -13.538981437683105 -13.607885360717773 -14.610777854919434 -17.607885360717773 C -13.538981437683105 -21.607885360717773 -10.610777854919434 -24.536088943481445 -6.610777854919434 -25.607885360717773 C -2.6107778549194336 -24.536088943481445 0.3174254894256592 -21.607885360717773 1.389222264289856 -17.607885360717773"/>
    <path stroke-width="0" fill="rgb(92, 72, 65)" opacity="0.28256932" stroke="rgb(0, 0, 0)" stroke-opacity="0.0" stroke-linecap="round" stroke-linejoin="round" d="M 60.341148376464844 459.1813049316406 C 60.170467376708984 462.55389404296875 61.279273986816406 461.06634521484375 56.11899948120117 461.384521484375 C 52.37674331665039 460.6848449707031 46.60350036621094 457.9725646972656 48.3282356262207 460.9075622558594 C 47.20185089111328 451.4635314941406 51.0198974609375 448.51763916015625 55.49165344238281 451.31414794921875 C 58.33481979370117 450.58062744140625 61.71044158935547 449.50372314453125 60.341148376464844 459.1813049316406"/>
    <path stroke-width="0" fill="rgb(109, 129, 150)" opacity="0.5542965" stroke="rgb(0, 0, 0)" stroke-opacity="0.0" stroke-linecap="round" stroke-linejoin="round" d="M 198.77987670898438 461.0618896484375 C 202.19076538085938 460.8835754394531 200.26553344726562 462.54638671875 198.47605895996094 458.5597229003906 C 189.3619384765625 459.4371032714844 193.3927459716797 462.9036865234375 192.00328063964844 457.668212890625 C 189.61183166503906 453.18359375 192.27452087402344 452.54437255859375 200.08534240722656 454.2811584472656 C 197.64962768554688 452.5027770996094 196.4987335205078 454.3096008300781 198.77987670898438 461.0618896484375"/>
    <path stroke-width="0" fill="rgb(106, 119, 99)" opacity="0.023937404" stroke="rgb(0, 0, 0)" stroke-opacity="0.0" stroke-linecap="round" stroke-linejoin="round" d="M 133.85238647460938 413.73846435546875 C 130.67454528808594 418.33184814453125 128.6762237548828 423.3327331542969 128.59213256835938 424.1556091308594 C 123.82603454589844 419.536865234375 121.36193084716797 415.9210510253906 118.42481231689453 414.177001953125 C 117.12377166748047 411.05133056640625 120.22869873046875 407.25848388671875 121.8746109008789 408.59765625 C 129.16078186035156 410.46429443359375 134.36163330078125 409.3229675292969 133.85238647460938 413.73846435546875"/>
    <path stroke-width="0" fill="rgb(154, 71, 181)" opacity="0.08663979" stroke="rgb(0, 0, 0)" stroke-opacity="0.0" stroke-linecap="round" stroke-linejoin="round" d="M 318.7347106933594 461.1881408691406 C 317.71942138671875 465.5539855957031 323.37725830078125 464.9656982421875 317.50518798828125 460.8020935058594 C 309.0661315917969 466.3869934082031 309.3905334472656 468.1357727050781 313.8476867675781 462.2281799316406 C 312.32965087890625 457.5460205078125 314.089599609375 456.5328369140625 311.8805847167969 461.02215576171875 C 315.6855163574219 464.7523193359375 323.5779113769531 461.9881591796875 318.7347106933594 461.1881408691406"/>
    <path stroke-width="0" fill="rgb(18, 199, 82)" opacity="-0.00026747654" stroke="rgb(0, 0, 0)" stroke-opacity="0.0" stroke-linecap="round" stroke-linejoin="round" d="M 174.5397491455078 413.2496032714844 C 170.58738708496094 416.2279357910156 166.457275390625 418.05908203125 167.7435760498047 423.5726623535156 C 168.60592651367188 420.5542907714844 163.50144958496094 419.52117919921875 162.10684204101562 417.6985168457031 C 165.04779052734375 416.71923828125 170.3578338623047 415.6112976074219 173.6726531982422 413.34356689453125 C 173.60353088378906 411.4573669433594 177.4879913330078 414.0830993652344 174.5397491455078 413.2496032714844"/>
    <path stroke-width="0" fill="rgb(66, 129, 134)" opacity="0.4768956" stroke="rgb(0, 0, 0)" stroke-opacity="0.0" stroke-linecap="round" stroke-linejoin="round" d="M 60.14140701293945 293.8877868652344 C 61.104400634765625 298.2641906738281 63.94263458251953 303.8546447753906 58.73799133300781 302.1701354980469 C 51.59672164916992 305.03045654296875 52.99802017211914 303.2226867675781 54.71506118774414 298.00714111328125 C 56.85340118408203 299.03662109375 60.42801284790039 295.2083740234375 58.11319351196289 294.7006530761719 C 61.01324462890625 295.49334716796875 65.82007598876953 296.3811340332031 60.14140701293945 293.8877868652344"/>
    <path stroke-width="0" fill="rgb(41, 48, 81)" opacity="0.3516045" stroke="rgb(0, 0, 0)" stroke-opacity="0.0" stroke-linecap="round" stroke-linejoin="round" d="M 355.6011047363281 242.05276489257812 C 354.815673828125 247.9097137451172 355.2615966796875 252.1850128173828 356.11614990234375 248.15611267089844 C 349.2532043457031 246.31887817382812 346.7861633300781 243.95980834960938 344.6840515136719 238.52296447753906 C 342.2664794921875 233.98069763183594 345.9069519042969 234.5544891357422 352.4554138183594 233.078857421875 C 354.4880676269531 231.50013732910156 355.1019287109375 236.72434997558594 355.6011047363281 242.05276489257812"/>
  </g>
</svg>
