<?xml version="1.0" ?>
<svg xmlns="http://www.w3.org/2000/svg" version="1.1" width="512" height="512">
  <defs/>
  <g>
    <path stroke-width="0" fill="rgb(102, 130, 143)" opacity="1.0311276" stroke="rgb(139, 182, 153)" stroke-opacity="1.0" stroke-linecap="round" stroke-linejoin="round" d="M 222.78871154785156 1.4040201902389526 C 160.73788452148438 3.1514875888824463 192.2646026611328 49.016910552978516 66.48055267333984 129.1481475830078 C 58.17721176147461 122.41925048828125 55.592491149902344 110.84376525878906 54.54173278808594 87.55545806884766 C 58.38627243041992 -68.80083465576172 69.43766021728516 -69.67822265625 85.63168334960938 -59.827030181884766 C 196.8779754638672 -32.08482360839844 204.90658569335938 -25.518577575683594 222.78871154785156 1.4040201902389526"/>
    <path stroke-width="0" fill="rgb(99, 128, 132)" opacity="1.009881" stroke="rgb(108, 164, 111)" stroke-opacity="1.0" stroke-linecap="round" stroke-linejoin="round" d="M 145.92352294921875 82.58165740966797 C 155.19288635253906 158.3255615234375 160.4290313720703 170.84996032714844 98.68473052978516 172.3730926513672 C -60.77919006347656 166.43023681640625 -47.74129867553711 136.50534057617188 -41.06509780883789 85.29373168945312 C -38.50617218017578 -35.472816467285156 -31.483736038208008 -40.57529067993164 49.03508758544922 -37.28043746948242 C 114.99394989013672 -39.86025619506836 134.8428192138672 -47.543704986572266 145.92352294921875 82.58165740966797"/>
    <path stroke-width="0" fill="rgb(101, 129, 137)" opacity="1.0189494" stroke="rgb(245, 97, 201)" stroke-opacity="1.0" stroke-linecap="round" stroke-linejoin="round" d="M 489.88409423828125 532.66455078125 C 350.8706970214844 582.8856811523438 327.6231384277344 574.8817749023438 -39.52774429321289 555.3480224609375 C -75.76151275634766 413.1372375488281 -51.65288543701172 351.97052001953125 -47.74626541137695 137.4432373046875 C -54.02689743041992 99.52256774902344 -57.433311462402344 86.93771362304688 145.3831024169922 86.46846008300781 C 261.80743408203125 81.173095703125 393.3090515136719 33.64983367919922 489.88409423828125 532.66455078125"/>
    <path stroke-width="0" fill="rgb(96, 126, 137)" opacity="1.0018394" stroke="rgb(144, 236, 18)" stroke-opacity="1.0" stroke-linecap="round" stroke-linejoin="round" d="M 552.0249633789062 550.3583374023438 C 342.103515625 510.9114685058594 282.8882141113281 425.01751708984375 158.44699096679688 321.05010986328125 C 77.7287368774414 170.0733184814453 60.499996185302734 158.25270080566406 57.723907470703125 141.7655792236328 C 183.9274139404297 28.16567039489746 133.95558166503906 -25.403961181640625 454.91082763671875 -48.42710876464844 C 555.062744140625 -124.77310180664062 573.008544921875 -219.4150390625 552.0249633789062 550.3583374023438"/>
    <path stroke-width="0" fill="rgb(259, 244, 197)" opacity="1.0295419" stroke="rgb(5, 212, 198)" stroke-opacity="1.0" stroke-linecap="round" stroke-linejoin="round" d="M 368.562255859375 366.6933288574219 C 335.3074035644531 300.2826843261719 378.835693359375 426.5108947753906 332.7249450683594 387.92791748046875 C 337.6500244140625 286.66070556640625 244.70648193359375 477.70623779296875 286.90478515625 311.8568420410156 C 240.2651824951172 245.59495544433594 287.6231994628906 227.95643615722656 281.0940856933594 305.2696838378906 C 375.96502685546875 218.51498413085938 341.6559753417969 338.68365478515625 368.562255859375 366.6933288574219"/>
    <path stroke-width="0" fill="rgb(246, 249, 249)" opacity="1.0310438" stroke="rgb(249, 203, 117)" stroke-opacity="1.0" stroke-linecap="round" stroke-linejoin="round" d="M 256.7427062988281 346.8353576660156 C 239.16017150878906 358.94879150390625 287.3262939453125 360.5021667480469 225.6988983154297 355.4771728515625 C 211.9056854248047 355.3527526855469 199.57286071777344 327.0899963378906 204.927734375 346.7109069824219 C 184.68870544433594 299.3487854003906 176.8182830810547 296.5794982910156 191.4890594482422 293.7335510253906 C 263.7042541503906 316.2227478027344 252.07077026367188 282.7236328125 256.7427062988281 346.8353576660156"/>
    <path stroke-width="0" fill="rgb(265, 216, 82)" opacity="1.0996325" stroke="rgb(30, 163, 36)" stroke-opacity="1.0" stroke-linecap="round" stroke-linejoin="round" d="M 388.8022766113281 331.5047302246094 C 391.977783203125 384.750732421875 382.49322509765625 376.12896728515625 346.1794738769531 352.93865966796875 C 383.8773498535156 336.7036437988281 327.769287109375 327.3943176269531 284.4409484863281 306.7962646484375 C 226.8722381591797 284.72802734375 296.9352111816406 218.92835998535156 348.25311279296875 286.6410827636719 C 338.60406494140625 300.7347717285156 366.1597900390625 264.5194091796875 388.8022766113281 331.5047302246094"/>
    <path stroke-width="0" fill="rgb(275, 179, 47)" opacity="1.0394282" stroke="rgb(133, 105, 67)" stroke-opacity="1.0" stroke-linecap="round" stroke-linejoin="round" d="M 310.37982177734375 93.1286849975586 C 317.8922119140625 241.44607543945312 147.57278442382812 253.7540283203125 235.54725646972656 73.35455322265625 C 174.70472717285156 164.2916259765625 157.20486450195312 249.33901977539062 187.9170379638672 119.3941421508789 C 224.5482635498047 50.5597038269043 215.80149841308594 61.002174377441406 232.53526306152344 61.860477447509766 C 248.3920135498047 107.73563385009766 226.5840301513672 128.67918395996094 310.37982177734375 93.1286849975586"/>
    <path stroke-width="0" fill="rgb(275, 183, 58)" opacity="1.0181472" stroke="rgb(116, 144, 4)" stroke-opacity="1.0" stroke-linecap="round" stroke-linejoin="round" d="M 302.0471496582031 320.9772644042969 C 317.234375 323.5249938964844 389.7782897949219 337.6561584472656 203.48362731933594 301.4420166015625 C 197.80238342285156 285.95562744140625 158.18429565429688 409.5923767089844 158.68856811523438 245.44247436523438 C 232.39407348632812 -32.22926712036133 145.61497497558594 237.7508087158203 257.076416015625 240.36293029785156 C 287.73297119140625 250.37289428710938 257.8216857910156 143.78167724609375 302.0471496582031 320.9772644042969"/>
    <path stroke-width="0" fill="rgb(247, 256, 261)" opacity="0.97411" stroke="rgb(156, 157, 240)" stroke-opacity="1.0" stroke-linecap="round" stroke-linejoin="round" d="M 229.28634643554688 210.59524536132812 C 302.4897766113281 279.1705017089844 174.776123046875 246.29794311523438 197.47015380859375 194.87557983398438 C 302.42950439453125 315.29736328125 169.17318725585938 118.04849243164062 237.19732666015625 234.62051391601562 C 182.452392578125 189.2247772216797 142.29502868652344 118.31550598144531 276.4196472167969 193.6846466064453 C 314.8510437011719 270.3427429199219 176.70533752441406 161.04136657714844 229.28634643554688 210.59524536132812"/>
    <path stroke-width="0" fill="rgb(289, 178, 46)" opacity="1.0165203" stroke="rgb(91, 111, 177)" stroke-opacity="1.0" stroke-linecap="round" stroke-linejoin="round" d="M 168.90989685058594 281.2203674316406 C 135.19790649414062 260.07763671875 225.36334228515625 272.6811828613281 183.33639526367188 409.5096130371094 C 96.51527404785156 418.774169921875 194.58929443359375 425.8349609375 160.18055725097656 306.86572265625 C 157.85406494140625 158.59120178222656 180.8769073486328 280.7239990234375 182.62310791015625 130.77655029296875 C 373.92877197265625 41.63705825805664 100.48477172851562 214.15093994140625 168.90989685058594 281.2203674316406"/>
    <path stroke-width="0" fill="rgb(276, 238, 106)" opacity="1.0071838" stroke="rgb(170, 171, 53)" stroke-opacity="1.0" stroke-linecap="round" stroke-linejoin="round" d="M 283.9713439941406 327.4393005371094 C 260.4400329589844 407.4668884277344 280.4630126953125 430.16021728515625 272.2878723144531 403.2989196777344 C 234.52235412597656 400.2638244628906 247.14683532714844 439.5458679199219 246.2631378173828 346.9440002441406 C 243.6200714111328 339.0196533203125 224.60189819335938 317.9797058105469 266.4888610839844 276.5093994140625 C 277.82440185546875 211.1234130859375 288.6432189941406 237.76097106933594 283.9713439941406 327.4393005371094"/>
    <path stroke-width="0" fill="rgb(228, 215, 182)" opacity="0.8185413" stroke="rgb(80, 92, 145)" stroke-opacity="1.0" stroke-linecap="round" stroke-linejoin="round" d="M 158.13018798828125 400.6191711425781 C 177.97152709960938 383.3354797363281 143.57135009765625 385.04852294921875 147.15904235839844 405.18341064453125 C 205.3399658203125 403.826416015625 173.2887725830078 413.7745361328125 185.22911071777344 390.4832458496094 C 134.96322631835938 406.6106262207031 144.64820861816406 376.76763916015625 190.21609497070312 395.6556701660156 C 140.4342803955078 367.5123291015625 178.23851013183594 408.6944885253906 158.13018798828125 400.6191711425781"/>
    <path stroke-width="0" fill="rgb(269, 170, 57)" opacity="0.888161" stroke="rgb(166, 64, 118)" stroke-opacity="1.0" stroke-linecap="round" stroke-linejoin="round" d="M 194.774169921875 332.3248596191406 C 207.74034118652344 339.0549621582031 191.89199829101562 344.5155334472656 198.35089111328125 324.0951843261719 C 193.75079345703125 368.4248352050781 221.70335388183594 315.4809265136719 200.3513641357422 348.9817810058594 C 214.65769958496094 355.1457824707031 204.68626403808594 340.3116149902344 188.74769592285156 364.8080749511719 C 189.42967224121094 348.73358154296875 188.2575225830078 365.34857177734375 194.774169921875 332.3248596191406"/>
    <path stroke-width="0" fill="rgb(271, 264, 234)" opacity="0.92299634" stroke="rgb(50, 94, 209)" stroke-opacity="1.0" stroke-linecap="round" stroke-linejoin="round" d="M 185.96697998046875 385.4696350097656 C 184.96400451660156 410.163330078125 172.98818969726562 408.6844177246094 212.3186492919922 396.83258056640625 C 146.54324340820312 415.6462707519531 174.09014892578125 416.7449035644531 146.524169921875 411.7825012207031 C 149.64889526367188 376.31402587890625 161.45941162109375 409.04266357421875 163.40586853027344 389.61962890625 C 119.59290313720703 373.80926513671875 178.96389770507812 400.2726135253906 185.96697998046875 385.4696350097656"/>
    <path stroke-width="0" fill="rgb(97, 126, 134)" opacity="0.99484587" stroke="rgb(72, 30, 75)" stroke-opacity="1.0" stroke-linecap="round" stroke-linejoin="round" d="M 443.9984130859375 624.7263793945312 C -27.498300552368164 436.98175048828125 498.2891845703125 363.73358154296875 519.3099975585938 335.7800598144531 C 263.689453125 419.9068908691406 494.4924621582031 360.45440673828125 317.2930908203125 258.1643981933594 C 246.45553588867188 258.90057373046875 308.458740234375 223.16946411132812 297.0659484863281 121.47632598876953 C 346.7127990722656 62.18967819213867 697.1654663085938 -16.13455581665039 443.9984130859375 624.7263793945312"/>
    <path stroke-width="0" fill="rgb(184, 113, 21)" opacity="0.6627403" stroke="rgb(146, 236, 81)" stroke-opacity="1.0" stroke-linecap="round" stroke-linejoin="round" d="M 193.53543090820312 82.23766326904297 C 198.7736358642578 113.10633850097656 201.17747497558594 111.87464141845703 193.8148651123047 115.07282257080078 C 191.7946014404297 125.63460540771484 192.88784790039062 114.2455062866211 200.9461669921875 113.63616943359375 C 198.23060607910156 104.33186340332031 197.64089965820312 103.82176208496094 198.067138671875 105.24761962890625 C 196.98098754882812 97.19208526611328 199.9898681640625 117.99344635009766 193.53543090820312 82.23766326904297"/>
    <path stroke-width="0" fill="rgb(81, 27, 43)" opacity="0.83664215" stroke="rgb(33, 182, 73)" stroke-opacity="1.0" stroke-linecap="round" stroke-linejoin="round" d="M 294.3464050292969 128.0868682861328 C 305.157958984375 178.09249877929688 292.8729248046875 128.49655151367188 299.37933349609375 134.96656799316406 C 295.8198547363281 133.30934143066406 299.2536315917969 137.80079650878906 299.79144287109375 124.92093658447266 C 288.63848876953125 177.0616455078125 306.6812744140625 140.25604248046875 297.7475280761719 169.32363891601562 C 298.6999816894531 109.7720947265625 290.1637878417969 179.14935302734375 294.3464050292969 128.0868682861328"/>
    <path stroke-width="0" fill="rgb(279, 148, 12)" opacity="1.0859239" stroke="rgb(149, 5, 211)" stroke-opacity="1.0" stroke-linecap="round" stroke-linejoin="round" d="M 269.6795959472656 194.66615295410156 C 283.7579040527344 192.47117614746094 271.3424987792969 189.67617797851562 264.51361083984375 185.3329620361328 C 293.1998291015625 178.6358184814453 248.64044189453125 190.1317596435547 243.31515502929688 182.90426635742188 C 183.65774536132812 143.2165985107422 308.44140625 180.1343231201172 289.97900390625 168.6568145751953 C 286.90045166015625 202.4665985107422 321.93475341796875 200.48448181152344 269.6795959472656 194.66615295410156"/>
    <path stroke-width="0" fill="rgb(23, 16, 48)" opacity="0.5517109" stroke="rgb(172, 68, 187)" stroke-opacity="1.0" stroke-linecap="round" stroke-linejoin="round" d="M 302.8012390136719 103.77815246582031 C 296.32830810546875 103.89167022705078 337.2499084472656 76.51956176757812 291.8412170410156 131.43336486816406 C 327.301513671875 93.03507232666016 322.81671142578125 81.77964782714844 276.06341552734375 107.70845794677734 C 265.57244873046875 108.80924224853516 352.2113952636719 72.85531616210938 281.6528625488281 119.11994934082031 C 283.2552795410156 131.3095245361328 269.9435729980469 120.56024169921875 302.8012390136719 103.77815246582031"/>
    <path stroke-width="0" fill="rgb(51, -26, 47)" opacity="0.61070746" stroke="rgb(63, 146, 150)" stroke-opacity="1.0" stroke-linecap="round" stroke-linejoin="round" d="M 294.27734375 100.26078033447266 C 287.67431640625 102.12921142578125 308.7250061035156 92.03888702392578 299.017333984375 96.89659118652344 C 321.8715515136719 93.23609924316406 301.25421142578125 97.64895629882812 304.7989807128906 90.81491088867188 C 300.2999572753906 109.65350341796875 326.4896240234375 96.44908142089844 292.2421569824219 97.55397033691406 C 281.26318359375 110.97628784179688 240.3811492919922 113.42688751220703 294.27734375 100.26078033447266"/>
    <path stroke-width="0" fill="rgb(-19, -24, -18)" opacity="0.9647345" stroke="rgb(56, 242, 114)" stroke-opacity="1.0" stroke-linecap="round" stroke-linejoin="round" d="M 177.36863708496094 153.27586364746094 C 181.32334899902344 133.79458618164062 183.6929168701172 133.5863800048828 181.3210906982422 141.83641052246094 C 206.62974548339844 86.29449462890625 183.5374298095703 115.29218292236328 179.50538635253906 154.50440979003906 C 171.18807983398438 161.80677795410156 172.599609375 179.27757263183594 178.50343322753906 171.7721710205078 C 167.2865447998047 180.29798889160156 178.22119140625 178.7847900390625 177.36863708496094 153.27586364746094"/>
    <path stroke-width="0" fill="rgb(28, -5, -25)" opacity="0.9160438" stroke="rgb(178, 75, 207)" stroke-opacity="1.0" stroke-linecap="round" stroke-linejoin="round" d="M 218.20272827148438 87.82154846191406 C 230.9135284423828 81.35504150390625 227.65782165527344 83.00774383544922 227.49468994140625 106.33235931396484 C 180.26455688476562 154.05213928222656 214.9017791748047 109.6755599975586 223.8807373046875 92.040771484375 C 210.46124267578125 125.65927124023438 208.3243408203125 95.31505584716797 213.30413818359375 102.14814758300781 C 232.62518310546875 91.25016021728516 204.39842224121094 112.11180114746094 218.20272827148438 87.82154846191406"/>
    <path stroke-width="0" fill="rgb(-26, -4, 3)" opacity="1.0133529" stroke="rgb(224, 148, 224)" stroke-opacity="1.0" stroke-linecap="round" stroke-linejoin="round" d="M 289.39544677734375 221.96453857421875 C 288.85638427734375 211.4481658935547 279.5584716796875 226.9092254638672 299.0041198730469 206.37281799316406 C 301.9901428222656 190.43251037597656 279.80511474609375 208.48699951171875 277.3262023925781 199.3640594482422 C 289.63055419921875 185.27340698242188 271.6328430175781 216.89833068847656 279.7241516113281 193.92495727539062 C 282.4360656738281 213.12738037109375 284.3035888671875 203.63587951660156 289.39544677734375 221.96453857421875"/>
    <path stroke-width="0" fill="rgb(54, 54, 31)" opacity="0.5889627" stroke="rgb(108, 154, 4)" stroke-opacity="1.0" stroke-linecap="round" stroke-linejoin="round" d="M 239.434814453125 412.88897705078125 C 253.66961669921875 380.2232360839844 222.3153839111328 425.0475158691406 277.4342956542969 412.7060852050781 C 250.203857421875 407.2164001464844 288.339599609375 436.70404052734375 270.16680908203125 391.54150390625 C 275.9352111816406 429.76708984375 258.30615234375 408.05865478515625 269.8455505371094 416.36004638671875 C 211.05335998535156 414.89208984375 261.1031799316406 391.97784423828125 239.434814453125 412.88897705078125"/>
    <path stroke-width="0" fill="rgb(109, 125, 140)" opacity="0.68265647" stroke="rgb(168, 73, 157)" stroke-opacity="1.0" stroke-linecap="round" stroke-linejoin="round" d="M 147.7801055908203 363.2635192871094 C 194.55679321289062 387.80133056640625 142.01019287109375 383.11712646484375 169.47239685058594 380.67138671875 C 173.62469482421875 380.1542053222656 162.12281799316406 382.7373046875 158.51422119140625 346.3514099121094 C 147.6483154296875 385.0309143066406 153.72198486328125 362.9190368652344 158.35177612304688 347.1560363769531 C 173.22935485839844 363.5705261230469 168.31365966796875 376.8896789550781 147.7801055908203 363.2635192871094"/>
    <path stroke-width="0" fill="rgb(73, 35, -24)" opacity="0.42094117" stroke="rgb(34, 76, 145)" stroke-opacity="1.0" stroke-linecap="round" stroke-linejoin="round" d="M 231.62484741210938 112.95293426513672 C 196.89393615722656 118.42623138427734 213.6686553955078 95.04621124267578 227.1555633544922 103.1232681274414 C 191.5843963623047 64.2314453125 217.46319580078125 71.46378326416016 195.7636260986328 102.68914794921875 C 187.38922119140625 148.3255615234375 193.46533203125 73.08557891845703 224.37635803222656 105.77831268310547 C 227.28936767578125 77.07007598876953 167.21034240722656 84.16188049316406 231.62484741210938 112.95293426513672"/>
    <path stroke-width="0" fill="rgb(75, 7, 31)" opacity="0.7112898" stroke="rgb(146, 166, 166)" stroke-opacity="1.0" stroke-linecap="round" stroke-linejoin="round" d="M 174.44786071777344 202.02333068847656 C 173.73654174804688 200.29872131347656 174.97909545898438 196.68856811523438 174.11520385742188 188.3972930908203 C 166.43360900878906 210.82041931152344 176.97482299804688 151.78146362304688 173.8656768798828 200.1060028076172 C 166.46612548828125 204.7129669189453 174.69114685058594 190.76991271972656 167.6786346435547 202.07569885253906 C 178.76113891601562 198.6001434326172 172.95806884765625 201.34188842773438 174.44786071777344 202.02333068847656"/>
    <path stroke-width="0" fill="rgb(90, -13, -47)" opacity="0.3720005" stroke="rgb(228, 93, 111)" stroke-opacity="1.0" stroke-linecap="round" stroke-linejoin="round" d="M 233.43179321289062 114.75386810302734 C 243.13128662109375 99.77587127685547 231.49195861816406 60.57140350341797 240.0251007080078 85.9505844116211 C 218.89395141601562 119.32133483886719 232.4765625 136.17202758789062 220.04443359375 102.38501739501953 C 238.2646484375 90.64045715332031 289.7530212402344 137.76483154296875 263.5418395996094 113.36200714111328 C 235.8762664794922 104.89259338378906 254.05767822265625 88.29940032958984 233.43179321289062 114.75386810302734"/>
    <path stroke-width="0" fill="rgb(226, 185, 163)" opacity="0.6089693" stroke="rgb(205, 179, 25)" stroke-opacity="1.0" stroke-linecap="round" stroke-linejoin="round" d="M 199.0152130126953 104.47228240966797 C 238.6556396484375 89.19388580322266 188.0324249267578 134.4628448486328 212.36264038085938 99.27204895019531 C 248.53224182128906 109.82682037353516 225.53598022460938 52.6897087097168 211.67483520507812 94.69498443603516 C 178.73590087890625 66.34400939941406 223.44146728515625 84.80827331542969 214.99398803710938 121.43168640136719 C 254.42250061035156 80.53170013427734 215.96861267089844 103.3295669555664 199.0152130126953 104.47228240966797"/>
    <path stroke-width="0" fill="rgb(232, 182, 126)" opacity="0.47568843" stroke="rgb(205, 145, 103)" stroke-opacity="1.0" stroke-linecap="round" stroke-linejoin="round" d="M 292.1772766113281 145.45608520507812 C 282.4329528808594 119.23973083496094 261.4295349121094 140.7718048095703 284.069091796875 129.0589141845703 C 291.03656005859375 154.1529083251953 278.20458984375 141.4560546875 293.0226745605469 145.94627380371094 C 296.91058349609375 152.10610961914062 295.61212158203125 111.41343688964844 298.5411376953125 143.9753875732422 C 273.5728454589844 137.39732360839844 292.87396240234375 146.1567840576172 292.1772766113281 145.45608520507812"/>
    <path stroke-width="0" fill="rgb(115, 111, 144)" opacity="0.66464305" stroke="rgb(177, 115, 184)" stroke-opacity="1.0" stroke-linecap="round" stroke-linejoin="round" d="M 155.1185760498047 190.71043395996094 C 170.04444885253906 200.48587036132812 171.41973876953125 198.0220489501953 165.9256134033203 210.89974975585938 C 168.64932250976562 215.9063262939453 157.33441162109375 217.16265869140625 166.37208557128906 224.550048828125 C 167.8218231201172 206.76736450195312 168.16439819335938 211.39549255371094 162.5181121826172 216.73707580566406 C 174.50518798828125 201.96426391601562 172.65875244140625 202.06153869628906 155.1185760498047 190.71043395996094"/>
    <path stroke-width="0" fill="rgb(199, 167, 238)" opacity="0.82682294" stroke="rgb(248, 218, 2)" stroke-opacity="1.0" stroke-linecap="round" stroke-linejoin="round" d="M 288.45751953125 222.24334716796875 C 298.7078857421875 192.14674377441406 317.28973388671875 221.86795043945312 241.44644165039062 234.75869750976562 C 253.68093872070312 250.16384887695312 245.2425537109375 230.7382049560547 261.48809814453125 230.28504943847656 C 276.4322204589844 220.8314666748047 275.56610107421875 245.8618927001953 258.7819519042969 239.36228942871094 C 228.4371337890625 219.16830444335938 287.1846008300781 208.32232666015625 288.45751953125 222.24334716796875"/>
    <path stroke-width="0" fill="rgb(-15, 99, 80)" opacity="0.5297307" stroke="rgb(186, 43, 132)" stroke-opacity="1.0" stroke-linecap="round" stroke-linejoin="round" d="M 215.05718994140625 204.62277221679688 C 227.56394958496094 185.58840942382812 218.72604370117188 225.38519287109375 227.04063415527344 206.57611083984375 C 243.76759338378906 216.8355255126953 254.72593688964844 201.16848754882812 218.9443359375 214.1151580810547 C 216.75108337402344 194.5865020751953 224.36000061035156 198.79946899414062 224.55311584472656 206.91331481933594 C 215.1295166015625 215.37689208984375 241.1452178955078 231.1262969970703 215.05718994140625 204.62277221679688"/>
    <path stroke-width="0" fill="rgb(242, 114, -6)" opacity="0.4424967" stroke="rgb(88, 236, 179)" stroke-opacity="1.0" stroke-linecap="round" stroke-linejoin="round" d="M 287.3667907714844 263.43719482421875 C 278.0660705566406 255.75985717773438 291.42242431640625 250.8079833984375 285.9115905761719 263.3205261230469 C 290.1797790527344 261.7131652832031 278.4420166015625 259.3624267578125 291.5769958496094 262.8988342285156 C 325.5521545410156 262.6528015136719 341.66436767578125 263.96527099609375 282.1734924316406 262.6485290527344 C 303.1279602050781 257.7778015136719 303.1195983886719 338.9271240234375 287.3667907714844 263.43719482421875"/>
    <path stroke-width="0" fill="rgb(-27, -9, 27)" opacity="0.7949146" stroke="rgb(41, 158, 147)" stroke-opacity="1.0" stroke-linecap="round" stroke-linejoin="round" d="M 226.23348999023438 200.18917846679688 C 229.22665405273438 217.65975952148438 217.9075469970703 211.4406280517578 279.6397399902344 229.08213806152344 C 282.593994140625 214.4212188720703 233.5843048095703 223.76431274414062 247.92184448242188 234.6754913330078 C 210.24293518066406 206.22915649414062 253.7236785888672 211.16787719726562 237.773193359375 211.87677001953125 C 240.82444763183594 212.37994384765625 246.01602172851562 202.61492919921875 226.23348999023438 200.18917846679688"/>
    <path stroke-width="0" fill="rgb(43, 20, -6)" opacity="0.9802661" stroke="rgb(238, 156, 136)" stroke-opacity="1.0" stroke-linecap="round" stroke-linejoin="round" d="M 305.626220703125 191.216552734375 C 292.2100524902344 177.69512939453125 272.440673828125 171.4264373779297 290.5957946777344 166.1021270751953 C 299.34271240234375 170.67156982421875 283.4273986816406 156.6661834716797 292.6772766113281 166.46250915527344 C 284.6330261230469 175.907470703125 285.8450012207031 175.84971618652344 308.72552490234375 208.1139373779297 C 281.898193359375 178.31118774414062 288.7108459472656 174.1504669189453 305.626220703125 191.216552734375"/>
    <path stroke-width="0" fill="rgb(70, 8, 25)" opacity="0.6864465" stroke="rgb(186, 79, 101)" stroke-opacity="1.0" stroke-linecap="round" stroke-linejoin="round" d="M 166.83470153808594 216.90296936035156 C 168.5139617919922 213.43894958496094 171.80580139160156 219.49571228027344 167.78269958496094 213.18505859375 C 167.89459228515625 225.2231903076172 172.36314392089844 176.34222412109375 160.33335876464844 242.8368682861328 C 158.5045166015625 236.17630004882812 168.62550354003906 229.3395538330078 162.380126953125 228.67559814453125 C 167.17079162597656 217.96131896972656 164.5183563232422 240.7047882080078 166.83470153808594 216.90296936035156"/>
    <path stroke-width="0" fill="rgb(66, 36, -6)" opacity="0.83112603" stroke="rgb(57, 64, 14)" stroke-opacity="1.0" stroke-linecap="round" stroke-linejoin="round" d="M 156.4116668701172 270.4303283691406 C 157.729736328125 267.79638671875 156.6053466796875 283.7072448730469 157.48484802246094 253.6746063232422 C 172.6964874267578 222.22007751464844 153.787841796875 207.58250427246094 158.34056091308594 306.7237243652344 C 164.27993774414062 316.5233154296875 156.80564880371094 312.6780090332031 159.4784698486328 237.6848907470703 C 153.96926879882812 295.4425354003906 158.009765625 279.6910705566406 156.4116668701172 270.4303283691406"/>
    <path stroke-width="0" fill="rgb(255, 258, 257)" opacity="0.794579" stroke="rgb(6, 17, 173)" stroke-opacity="1.0" stroke-linecap="round" stroke-linejoin="round" d="M 346.1982727050781 369.2120666503906 C 347.6194152832031 397.2918395996094 373.06414794921875 361.6971130371094 334.888427734375 378.05084228515625 C 374.0654296875 320.25079345703125 313.7436828613281 368.0805969238281 319.9978332519531 350.289794921875 C 284.45721435546875 324.49578857421875 351.1845703125 314.6112976074219 352.0137023925781 347.1295166015625 C 311.84210205078125 345.7760314941406 325.65069580078125 380.6175537109375 346.1982727050781 369.2120666503906"/>
    <path stroke-width="0" fill="rgb(50, -2, -4)" opacity="0.9840658" stroke="rgb(136, 228, 252)" stroke-opacity="1.0" stroke-linecap="round" stroke-linejoin="round" d="M 316.59881591796875 259.14306640625 C 410.8365173339844 324.47430419921875 383.20135498046875 306.4424133300781 353.43426513671875 286.6363220214844 C 343.9897155761719 281.3224792480469 357.60467529296875 281.0765380859375 354.4211730957031 288.5503234863281 C 357.7307434082031 400.1271667480469 361.592041015625 374.6941223144531 357.38763427734375 298.6209716796875 C 347.02587890625 300.5484313964844 351.77374267578125 270.9764404296875 316.59881591796875 259.14306640625"/>
    <path stroke-width="0" fill="rgb(-13, -2, 3)" opacity="0.85817575" stroke="rgb(81, 97, 150)" stroke-opacity="1.0" stroke-linecap="round" stroke-linejoin="round" d="M 251.16041564941406 221.10467529296875 C 239.2616729736328 201.37428283691406 209.87107849121094 211.99717712402344 269.1722106933594 228.98345947265625 C 263.9056091308594 218.15155029296875 229.9939422607422 218.999755859375 252.6253204345703 240.33041381835938 C 271.4533386230469 252.56727600097656 277.9731750488281 235.32278442382812 260.3326110839844 242.44277954101562 C 256.5960998535156 230.15101623535156 253.56283569335938 236.29966735839844 251.16041564941406 221.10467529296875"/>
    <path stroke-width="0" fill="rgb(286, 282, 240)" opacity="0.8074829" stroke="rgb(160, 222, 69)" stroke-opacity="1.0" stroke-linecap="round" stroke-linejoin="round" d="M 179.92959594726562 390.6426086425781 C 199.23988342285156 378.1782531738281 158.1671600341797 407.36627197265625 166.11203002929688 373.1654052734375 C 166.10618591308594 393.59344482421875 170.47052001953125 386.28082275390625 159.3920135498047 396.7879943847656 C 175.72003173828125 363.6222839355469 159.2041015625 354.940673828125 164.76876831054688 350.88458251953125 C 161.80665588378906 368.1352844238281 186.16900634765625 340.38201904296875 179.92959594726562 390.6426086425781"/>
    <path stroke-width="0" fill="rgb(109, 128, 129)" opacity="1.0275733" stroke="rgb(47, 242, 175)" stroke-opacity="1.0" stroke-linecap="round" stroke-linejoin="round" d="M 318.4114990234375 353.9952697753906 C 320.0071105957031 364.49005126953125 321.253662109375 344.4053649902344 321.9698486328125 355.29840087890625 C 310.17498779296875 354.8408508300781 301.3747253417969 317.1118469238281 298.2445983886719 373.1860046386719 C 335.8497009277344 361.3160400390625 319.51629638671875 334.25042724609375 284.3625183105469 317.5514831542969 C 338.6820068359375 342.04241943359375 303.4913330078125 330.2886047363281 318.4114990234375 353.9952697753906"/>
    <path stroke-width="0" fill="rgb(53, -27, -8)" opacity="0.7910702" stroke="rgb(241, 186, 64)" stroke-opacity="1.0" stroke-linecap="round" stroke-linejoin="round" d="M 284.7702331542969 259.29376220703125 C 283.46771240234375 243.25653076171875 286.51043701171875 265.3668518066406 307.2740478515625 252.79644775390625 C 303.70751953125 256.60406494140625 294.0965270996094 256.60650634765625 316.0358581542969 259.5746154785156 C 333.40411376953125 256.8548583984375 385.8354797363281 327.794677734375 325.2093505859375 261.5348205566406 C 312.76531982421875 269.7894592285156 314.4430847167969 243.5006866455078 284.7702331542969 259.29376220703125"/>
    <path stroke-width="0" fill="rgb(-39, 0, 11)" opacity="0.8943608" stroke="rgb(132, 6, 52)" stroke-opacity="1.0" stroke-linecap="round" stroke-linejoin="round" d="M 201.8749542236328 102.06877899169922 C 205.12820434570312 98.64187622070312 194.8562774658203 84.1871337890625 201.6474151611328 93.59589385986328 C 199.62203979492188 88.1175537109375 215.1409149169922 58.9830207824707 188.90170288085938 120.34346771240234 C 220.68157958984375 64.82667541503906 210.2969207763672 55.74736022949219 236.3135986328125 64.67451477050781 C 219.0764923095703 46.01762390136719 197.10556030273438 89.32750701904297 201.8749542236328 102.06877899169922"/>
    <path stroke-width="0" fill="rgb(27, -8, -34)" opacity="0.9990917" stroke="rgb(182, 100, 144)" stroke-opacity="1.0" stroke-linecap="round" stroke-linejoin="round" d="M 306.5318908691406 196.45262145996094 C 301.6680908203125 192.85049438476562 312.7782287597656 220.69493103027344 303.5328674316406 221.07855224609375 C 300.2802734375 192.6866912841797 319.6324768066406 203.35171508789062 297.87518310546875 221.12139892578125 C 291.3727111816406 222.7726287841797 325.9512634277344 233.2076416015625 265.5965576171875 225.37925720214844 C 286.43951416015625 221.18447875976562 311.0597839355469 218.1118927001953 306.5318908691406 196.45262145996094"/>
    <path stroke-width="0" fill="rgb(189, 124, 111)" opacity="0.54425776" stroke="rgb(140, 149, 245)" stroke-opacity="1.0" stroke-linecap="round" stroke-linejoin="round" d="M 217.18089294433594 74.90333557128906 C 227.0115509033203 92.76268005371094 202.41204833984375 91.9813003540039 215.51121520996094 101.07036590576172 C 231.1859893798828 68.79808807373047 208.1343536376953 72.47405242919922 181.7422332763672 77.17288970947266 C 202.28823852539062 82.41492462158203 177.67929077148438 100.39591979980469 187.88714599609375 76.296142578125 C 218.92433166503906 69.88581085205078 247.4401092529297 83.5340576171875 217.18089294433594 74.90333557128906"/>
    <path stroke-width="0" fill="rgb(284, 179, 55)" opacity="0.9830131" stroke="rgb(86, 245, 59)" stroke-opacity="1.0" stroke-linecap="round" stroke-linejoin="round" d="M 279.1286315917969 313.8756103515625 C 276.66485595703125 317.2246398925781 269.8772277832031 336.3229675292969 337.1408996582031 275.1542663574219 C 260.29998779296875 224.03077697753906 287.9556884765625 322.15655517578125 322.8283386230469 287.4432678222656 C 311.1465759277344 350.462158203125 271.7237548828125 304.8807067871094 290.3481750488281 292.7958679199219 C 318.4979553222656 281.94366455078125 286.1513366699219 345.2338562011719 279.1286315917969 313.8756103515625"/>
    <path stroke-width="0" fill="rgb(265, 252, 235)" opacity="0.45308167" stroke="rgb(240, 203, 160)" stroke-opacity="1.0" stroke-linecap="round" stroke-linejoin="round" d="M 260.762939453125 184.9646453857422 C 260.26788330078125 203.11952209472656 266.613037109375 214.60536193847656 296.0556640625 236.68310546875 C 300.9240417480469 216.61447143554688 308.9635925292969 217.45864868164062 305.79827880859375 210.47714233398438 C 308.29901123046875 257.521728515625 267.54681396484375 231.8681640625 286.8598937988281 229.2841796875 C 256.25885009765625 198.46368408203125 268.1673889160156 215.42506408691406 260.762939453125 184.9646453857422"/>
    <path stroke-width="0" fill="rgb(89, 31, 32)" opacity="0.75597167" stroke="rgb(88, 37, 250)" stroke-opacity="1.0" stroke-linecap="round" stroke-linejoin="round" d="M 274.41571044921875 347.2594909667969 C 293.320556640625 312.0426940917969 277.3511047363281 316.08551025390625 283.2968444824219 328.4255065917969 C 288.0259704589844 329.1745300292969 285.9278259277344 260.56549072265625 283.8659973144531 317.826171875 C 290.8797607421875 340.31201171875 290.2952575683594 306.8316955566406 318.7519836425781 321.7773132324219 C 254.64927673339844 305.90045166015625 290.9154052734375 371.0198974609375 274.41571044921875 347.2594909667969"/>
    <path stroke-width="0" fill="rgb(100, 134, 165)" opacity="0.4128735" stroke="rgb(126, 163, 93)" stroke-opacity="1.0" stroke-linecap="round" stroke-linejoin="round" d="M 203.6079559326172 72.60505676269531 C 211.52777099609375 65.28535461425781 219.81423950195312 73.59586334228516 205.9305877685547 69.2052230834961 C 210.27098083496094 61.43738555908203 211.45358276367188 32.407447814941406 207.77276611328125 62.27937698364258 C 208.25106811523438 70.07406616210938 228.7113037109375 58.84833908081055 230.60830688476562 58.03697204589844 C 199.24977111816406 52.89844512939453 220.88934326171875 81.62843322753906 203.6079559326172 72.60505676269531"/>
    <path stroke-width="0" fill="rgb(100, 124, 136)" opacity="0.83753085" stroke="rgb(209, 48, 130)" stroke-opacity="1.0" stroke-linecap="round" stroke-linejoin="round" d="M 228.89598083496094 50.32647705078125 C 193.9941864013672 50.049617767333984 180.32652282714844 45.983131408691406 184.7742462158203 66.20150756835938 C 161.48948669433594 97.25765991210938 157.4479522705078 108.55176544189453 182.52096557617188 106.78129577636719 C 231.84901428222656 62.256507873535156 206.96192932128906 19.445995330810547 177.580078125 31.177167892456055 C 148.4637451171875 81.14110565185547 190.13023376464844 71.16573333740234 228.89598083496094 50.32647705078125"/>
    <path stroke-width="0" fill="rgb(264, 126, 37)" opacity="0.50123143" stroke="rgb(24, 219, 248)" stroke-opacity="1.0" stroke-linecap="round" stroke-linejoin="round" d="M 228.76036071777344 105.28096771240234 C 225.65762329101562 85.56713104248047 221.93153381347656 81.37142944335938 239.4545135498047 83.1396255493164 C 214.81680297851562 64.1415023803711 230.75791931152344 75.40780639648438 227.42929077148438 88.07464599609375 C 234.30491638183594 95.80455780029297 232.3794708251953 91.29008483886719 232.8726348876953 74.47979736328125 C 228.73312377929688 80.37135314941406 237.044677734375 58.71193313598633 228.76036071777344 105.28096771240234"/>
    <path stroke-width="0" fill="rgb(276, 154, 20)" opacity="0.42572972" stroke="rgb(103, 59, 33)" stroke-opacity="1.0" stroke-linecap="round" stroke-linejoin="round" d="M 228.8187255859375 62.157840728759766 C 212.57286071777344 67.53119659423828 215.86703491210938 82.48687744140625 234.84263610839844 90.97894287109375 C 238.73475646972656 116.01777648925781 234.28292846679688 125.11759948730469 225.47003173828125 119.95270538330078 C 240.8106689453125 118.94731903076172 236.7124481201172 82.18505096435547 216.03720092773438 98.88741302490234 C 211.24365234375 81.449462890625 217.8640594482422 84.69329833984375 228.8187255859375 62.157840728759766"/>
    <path stroke-width="0" fill="rgb(246, 153, -12)" opacity="0.74910414" stroke="rgb(185, 2, 196)" stroke-opacity="1.0" stroke-linecap="round" stroke-linejoin="round" d="M 176.446044921875 98.7354736328125 C 191.6935577392578 80.73290252685547 194.02685546875 114.1102523803711 203.79556274414062 92.8280029296875 C 207.8705291748047 173.88658142089844 209.96458435058594 80.61376190185547 202.84640502929688 109.31578826904297 C 209.22467041015625 93.12577819824219 176.87022399902344 103.90658569335938 175.47213745117188 96.11251068115234 C 194.8832244873047 109.71375274658203 196.16786193847656 81.93714141845703 176.446044921875 98.7354736328125"/>
    <path stroke-width="0" fill="rgb(109, 118, 142)" opacity="0.9070536" stroke="rgb(66, 116, 174)" stroke-opacity="1.0" stroke-linecap="round" stroke-linejoin="round" d="M 180.63038635253906 101.05593872070312 C 178.14920043945312 93.74512481689453 196.8285675048828 166.9232177734375 175.47793579101562 104.7709732055664 C 152.17250061035156 113.32942199707031 135.0217742919922 138.77210998535156 161.5261993408203 109.72868347167969 C 175.36190795898438 106.52991485595703 177.41908264160156 99.861328125 171.74456787109375 61.98463439941406 C 186.59584045410156 114.82903289794922 180.20266723632812 112.90174102783203 180.63038635253906 101.05593872070312"/>
    <path stroke-width="0" fill="rgb(186, 130, 108)" opacity="0.5862327" stroke="rgb(72, 96, 46)" stroke-opacity="1.0" stroke-linecap="round" stroke-linejoin="round" d="M 223.03863525390625 88.9099349975586 C 213.697021484375 90.5832290649414 252.42379760742188 94.0011215209961 224.16680908203125 76.34175109863281 C 240.32315063476562 80.22694396972656 229.05572509765625 115.64982604980469 212.7604217529297 98.2513656616211 C 209.4596710205078 111.63961791992188 235.80848693847656 80.9500732421875 213.9208221435547 79.25555419921875 C 224.5665740966797 80.66673278808594 229.11782836914062 98.8845443725586 223.03863525390625 88.9099349975586"/>
    <path stroke-width="0" fill="rgb(100, 127, 136)" opacity="0.57152843" stroke="rgb(147, 244, 164)" stroke-opacity="1.0" stroke-linecap="round" stroke-linejoin="round" d="M 226.60935974121094 78.72727966308594 C 175.7435760498047 76.39237976074219 205.93328857421875 82.3429183959961 185.55018615722656 97.8939437866211 C 170.640869140625 166.58010864257812 107.82365417480469 264.0958557128906 -47.156673431396484 119.1036148071289 C 178.5642547607422 16.65714454650879 155.76913452148438 85.2455825805664 226.20367431640625 78.11763000488281 C 237.77035522460938 70.31705474853516 228.5879669189453 90.86000061035156 226.60935974121094 78.72727966308594"/>
    <path stroke-width="0" fill="rgb(104, 125, 138)" opacity="0.9786497" stroke="rgb(109, 130, 136)" stroke-opacity="1.0" stroke-linecap="round" stroke-linejoin="round" d="M 197.83592224121094 92.84930419921875 C 197.07273864746094 83.28675842285156 152.29360961914062 81.5323257446289 167.725830078125 95.20503234863281 C 179.5683135986328 127.70325469970703 152.8478240966797 138.0540008544922 174.26852416992188 79.59611511230469 C 153.02642822265625 88.84176635742188 162.0872344970703 74.59622955322266 158.2944793701172 75.05357360839844 C 185.9088592529297 98.52760314941406 185.41748046875 120.59721374511719 197.83592224121094 92.84930419921875"/>
    <path stroke-width="0" fill="rgb(105, 117, 144)" opacity="0.5186011" stroke="rgb(70, 32, 100)" stroke-opacity="1.0" stroke-linecap="round" stroke-linejoin="round" d="M 286.93255615234375 119.07357788085938 C 299.99993896484375 110.75751495361328 288.7415771484375 121.79051208496094 299.1347351074219 130.6755828857422 C 279.6618957519531 118.94801330566406 314.8495178222656 99.66604614257812 307.8280944824219 137.12460327148438 C 308.5179443359375 124.43157958984375 312.97796630859375 106.88569641113281 332.5271911621094 101.9098892211914 C 322.2701416015625 107.86219024658203 324.3356628417969 102.32935333251953 286.93255615234375 119.07357788085938"/>
    <path stroke-width="0" fill="rgb(225, 115, 61)" opacity="0.61854386" stroke="rgb(47, 230, 138)" stroke-opacity="1.0" stroke-linecap="round" stroke-linejoin="round" d="M 281.44842529296875 319.96942138671875 C 284.6527404785156 312.7955627441406 278.2901611328125 278.96435546875 290.35870361328125 317.96624755859375 C 311.4225158691406 319.4673767089844 280.80487060546875 334.3396301269531 288.1852722167969 298.0409851074219 C 287.6177062988281 246.94224548339844 288.3764953613281 255.1981658935547 281.0224914550781 324.0653991699219 C 285.01361083984375 324.5635986328125 288.3173828125 319.1041259765625 281.44842529296875 319.96942138671875"/>
    <path stroke-width="0" fill="rgb(268, 181, 60)" opacity="0.5075496" stroke="rgb(224, 116, 184)" stroke-opacity="1.0" stroke-linecap="round" stroke-linejoin="round" d="M 305.6166687011719 116.1575927734375 C 290.8701171875 100.86507415771484 296.5846862792969 67.8169937133789 299.7463073730469 121.18183135986328 C 297.3255920410156 118.06193542480469 299.8549499511719 90.50053405761719 295.6595153808594 118.9659652709961 C 306.8174133300781 139.32151794433594 284.73187255859375 118.47724151611328 287.4169921875 129.3582305908203 C 290.20550537109375 120.09559631347656 284.2327880859375 114.25139617919922 305.6166687011719 116.1575927734375"/>
    <path stroke-width="0" fill="rgb(264, 212, 28)" opacity="0.6524347" stroke="rgb(230, 175, 178)" stroke-opacity="1.0" stroke-linecap="round" stroke-linejoin="round" d="M 308.61480712890625 103.6965103149414 C 297.7868347167969 118.51148223876953 288.9601135253906 132.85748291015625 273.8994445800781 142.40924072265625 C 292.7624206542969 119.5372314453125 288.58648681640625 99.5520248413086 290.03759765625 137.89385986328125 C 315.50341796875 96.992431640625 285.8276062011719 103.86078643798828 300.2051086425781 126.68170166015625 C 282.19256591796875 101.78527069091797 306.7660217285156 133.45970153808594 308.61480712890625 103.6965103149414"/>
    <path stroke-width="0" fill="rgb(272, 182, 47)" opacity="0.65350217" stroke="rgb(203, 244, 116)" stroke-opacity="1.0" stroke-linecap="round" stroke-linejoin="round" d="M 281.3690490722656 136.62677001953125 C 295.3441467285156 120.30911254882812 294.97137451171875 104.48666381835938 293.1224365234375 133.72332763671875 C 311.3544006347656 95.99440002441406 295.54840087890625 126.96038818359375 305.1553955078125 113.36144256591797 C 307.9923400878906 114.60597229003906 280.7949523925781 125.00116729736328 311.7801208496094 105.94032287597656 C 291.5106201171875 127.80171966552734 296.9424133300781 118.03815460205078 281.3690490722656 136.62677001953125"/>
    <path stroke-width="0" fill="rgb(244, 191, 70)" opacity="0.59650856" stroke="rgb(65, 216, 8)" stroke-opacity="1.0" stroke-linecap="round" stroke-linejoin="round" d="M 295.9036865234375 115.94548034667969 C 280.0899353027344 137.36126708984375 281.91070556640625 143.37979125976562 276.2109680175781 133.87477111816406 C 275.2870178222656 139.9815673828125 279.9051818847656 128.36082458496094 275.6322937011719 160.1240692138672 C 280.19769287109375 145.7051544189453 287.15130615234375 138.22784423828125 268.8929138183594 144.43032836914062 C 275.3441467285156 131.210693359375 273.1518249511719 152.32411193847656 295.9036865234375 115.94548034667969"/>
    <path stroke-width="0" fill="rgb(86, 50, 22)" opacity="0.70132273" stroke="rgb(90, 90, 4)" stroke-opacity="1.0" stroke-linecap="round" stroke-linejoin="round" d="M 274.27685546875 341.29290771484375 C 282.2173767089844 344.22802734375 275.68304443359375 342.38958740234375 277.0330505371094 341.8319091796875 C 275.1891784667969 333.8589172363281 271.7822570800781 308.32891845703125 280.5813903808594 357.45843505859375 C 273.8747863769531 381.7693786621094 274.7053527832031 336.02874755859375 282.9376525878906 317.1243591308594 C 276.3249206542969 360.03204345703125 285.72406005859375 341.544189453125 274.27685546875 341.29290771484375"/>
    <path stroke-width="0" fill="rgb(249, 156, 53)" opacity="0.46846405" stroke="rgb(221, 115, 83)" stroke-opacity="1.0" stroke-linecap="round" stroke-linejoin="round" d="M 298.29473876953125 239.3078155517578 C 308.61907958984375 181.2961883544922 318.4095764160156 207.1457977294922 300.4439697265625 236.612548828125 C 282.79931640625 182.11441040039062 274.4637145996094 151.8042755126953 261.98565673828125 172.00161743164062 C 274.14178466796875 145.36277770996094 278.1231384277344 145.68316650390625 265.3437194824219 168.04978942871094 C 274.922119140625 166.71368408203125 288.1086120605469 187.6104278564453 298.29473876953125 239.3078155517578"/>
    <path stroke-width="0" fill="rgb(103, 124, 137)" opacity="0.7487266" stroke="rgb(17, 64, 56)" stroke-opacity="1.0" stroke-linecap="round" stroke-linejoin="round" d="M 167.56166076660156 141.03887939453125 C 177.0362091064453 121.23989868164062 168.50135803222656 127.85478973388672 172.02088928222656 171.2362518310547 C 181.78842163085938 166.60585021972656 177.7525177001953 140.19998168945312 160.85447692871094 144.4637451171875 C 176.0277862548828 152.1871795654297 188.03350830078125 123.56548309326172 147.40606689453125 130.9320068359375 C 158.44142150878906 157.97274780273438 174.96090698242188 165.23875427246094 167.56166076660156 141.03887939453125"/>
    <path stroke-width="0" fill="rgb(262, 192, 50)" opacity="0.6187582" stroke="rgb(33, 3, 29)" stroke-opacity="1.0" stroke-linecap="round" stroke-linejoin="round" d="M 225.57528686523438 157.75558471679688 C 193.44447326660156 137.68226623535156 205.80819702148438 163.49734497070312 193.5771484375 179.7696075439453 C 210.37637329101562 135.91729736328125 203.6118927001953 143.9247283935547 194.12745666503906 148.1869354248047 C 179.88047790527344 130.683349609375 197.8356475830078 134.9325714111328 190.66134643554688 177.66517639160156 C 177.63169860839844 176.92489624023438 187.8490447998047 178.01148986816406 225.57528686523438 157.75558471679688"/>
    <path stroke-width="0" fill="rgb(-10, 17, 12)" opacity="0.7281881" stroke="rgb(162, 125, 252)" stroke-opacity="1.0" stroke-linecap="round" stroke-linejoin="round" d="M 296.804931640625 218.3105010986328 C 294.2608642578125 273.1239929199219 279.5834045410156 209.4537811279297 303.8189392089844 243.17971801757812 C 287.1050109863281 220.056640625 299.76214599609375 210.0855255126953 298.0778503417969 234.00462341308594 C 293.6621398925781 187.13165283203125 290.7496337890625 209.5502471923828 290.9332275390625 204.6605224609375 C 292.9727478027344 224.58021545410156 320.7896728515625 254.12496948242188 296.804931640625 218.3105010986328"/>
    <path stroke-width="0" fill="rgb(153, 146, 118)" opacity="0.7172129" stroke="rgb(199, 73, 61)" stroke-opacity="1.0" stroke-linecap="round" stroke-linejoin="round" d="M 320.2026062011719 214.4248809814453 C 303.66790771484375 218.73387145996094 295.9353332519531 222.7006072998047 317.2873840332031 234.26821899414062 C 302.0058288574219 224.1638641357422 306.3772888183594 215.84671020507812 286.1937255859375 238.050537109375 C 305.1856384277344 244.50405883789062 311.8870849609375 235.21336364746094 298.34454345703125 235.0045623779297 C 301.0291748046875 229.9736785888672 323.2536315917969 207.51321411132812 320.2026062011719 214.4248809814453"/>
    <path stroke-width="0" fill="rgb(136, 225, 211)" opacity="0.7732867" stroke="rgb(91, 211, 235)" stroke-opacity="1.0" stroke-linecap="round" stroke-linejoin="round" d="M 274.7416687011719 203.00332641601562 C 284.29437255859375 197.7611846923828 313.2606201171875 183.1911163330078 291.87628173828125 239.32931518554688 C 306.6736755371094 237.81820678710938 334.7485656738281 218.12646484375 273.211669921875 220.84222412109375 C 304.9291687011719 209.9646759033203 311.4486999511719 207.16297912597656 313.80462646484375 216.96261596679688 C 317.9560852050781 199.9442596435547 292.9453430175781 201.32196044921875 274.7416687011719 203.00332641601562"/>
    <path stroke-width="0" fill="rgb(253, 256, 255)" opacity="0.98222226" stroke="rgb(247, 230, 75)" stroke-opacity="1.0" stroke-linecap="round" stroke-linejoin="round" d="M 202.46751403808594 211.38539123535156 C 207.66053771972656 213.02903747558594 199.23519897460938 196.60031127929688 215.04861450195312 206.16677856445312 C 217.12596130371094 200.79620361328125 224.6841583251953 205.258544921875 226.33834838867188 226.52874755859375 C 223.19482421875 239.06793212890625 190.29693603515625 232.9999542236328 214.31045532226562 176.29408264160156 C 220.98394775390625 168.43345642089844 197.8037109375 184.39602661132812 202.46751403808594 211.38539123535156"/>
    <path stroke-width="0" fill="rgb(224, 258, 274)" opacity="0.959379" stroke="rgb(63, 27, 242)" stroke-opacity="1.0" stroke-linecap="round" stroke-linejoin="round" d="M 302.0780334472656 224.4691619873047 C 284.6911926269531 225.6417236328125 312.1153564453125 214.52061462402344 312.7999267578125 213.06918334960938 C 305.2051696777344 184.9561004638672 295.2590026855469 227.57345581054688 265.7965087890625 217.79376220703125 C 247.0641326904297 195.51278686523438 225.9213104248047 201.01731872558594 278.0319519042969 215.7450714111328 C 318.5917663574219 230.6415252685547 330.1161193847656 205.7018280029297 302.0780334472656 224.4691619873047"/>
    <path stroke-width="0" fill="rgb(-17, -12, -2)" opacity="0.6746723" stroke="rgb(69, 96, 95)" stroke-opacity="1.0" stroke-linecap="round" stroke-linejoin="round" d="M 299.2613220214844 195.08656311035156 C 278.4005432128906 227.03924560546875 311.45111083984375 242.30462646484375 320.1503601074219 235.17465209960938 C 300.6724548339844 239.25669860839844 287.45965576171875 246.66893005371094 304.6806640625 228.094970703125 C 307.450439453125 241.92410278320312 306.0614929199219 226.20266723632812 280.0953063964844 201.505126953125 C 317.8842468261719 190.86585998535156 303.9283447265625 213.48336791992188 299.2613220214844 195.08656311035156"/>
    <path stroke-width="0" fill="rgb(289, 185, -22)" opacity="0.84265643" stroke="rgb(213, 60, 128)" stroke-opacity="1.0" stroke-linecap="round" stroke-linejoin="round" d="M 213.52322387695312 79.61701202392578 C 250.23655700683594 82.62639617919922 233.76417541503906 106.68487548828125 232.61805725097656 88.29930114746094 C 208.20396423339844 81.47611236572266 196.1432342529297 99.73937225341797 224.70132446289062 60.838768005371094 C 229.91062927246094 84.12521362304688 247.1126251220703 64.12577056884766 226.4374542236328 72.27662658691406 C 225.69723510742188 66.86637115478516 259.8978271484375 83.29170227050781 213.52322387695312 79.61701202392578"/>
    <path stroke-width="0" fill="rgb(246, 180, 82)" opacity="0.60246176" stroke="rgb(18, 74, 38)" stroke-opacity="1.0" stroke-linecap="round" stroke-linejoin="round" d="M 276.13580322265625 256.82415771484375 C 268.0701599121094 255.98670959472656 257.0710144042969 253.66387939453125 262.19683837890625 251.97120666503906 C 209.02569580078125 256.9963073730469 218.9282684326172 247.56875610351562 186.19390869140625 219.58795166015625 C 231.31423950195312 262.7899169921875 263.1759338378906 250.6216278076172 208.84666442871094 254.9484100341797 C 187.7594757080078 257.1777648925781 249.42771911621094 251.66494750976562 276.13580322265625 256.82415771484375"/>
    <path stroke-width="0" fill="rgb(163, 100, 92)" opacity="0.6654836" stroke="rgb(33, 154, 97)" stroke-opacity="1.0" stroke-linecap="round" stroke-linejoin="round" d="M 224.712646484375 53.53437423706055 C 198.32151794433594 66.23140716552734 215.74105834960938 81.62019348144531 209.7120361328125 73.61526489257812 C 211.6201629638672 74.39878845214844 208.71624755859375 67.1727066040039 213.06443786621094 83.44660186767578 C 210.94969177246094 98.98774719238281 233.37217712402344 61.185462951660156 213.20127868652344 85.62612915039062 C 208.0165557861328 64.77484893798828 207.9442901611328 63.565086364746094 224.712646484375 53.53437423706055"/>
    <path stroke-width="0" fill="rgb(125, 112, 135)" opacity="1.0116658" stroke="rgb(246, 139, 70)" stroke-opacity="1.0" stroke-linecap="round" stroke-linejoin="round" d="M 301.7503356933594 242.0662841796875 C 290.0953674316406 242.570068359375 275.3765869140625 232.63864135742188 329.2708740234375 228.04757690429688 C 311.587646484375 230.48179626464844 297.066162109375 223.46253967285156 263.54803466796875 227.7467041015625 C 297.3397216796875 226.78260803222656 283.76727294921875 241.78089904785156 307.0621643066406 193.9798126220703 C 273.5906677246094 161.75625610351562 333.24932861328125 199.2890625 301.7503356933594 242.0662841796875"/>
    <path stroke-width="0" fill="rgb(149, 117, 98)" opacity="0.32261395" stroke="rgb(228, 103, 140)" stroke-opacity="1.0" stroke-linecap="round" stroke-linejoin="round" d="M 217.48170471191406 97.70381164550781 C 219.38304138183594 87.10138702392578 218.96543884277344 87.56500244140625 222.2841339111328 96.99125671386719 C 206.5933837890625 58.367252349853516 203.38917541503906 58.836509704589844 207.17477416992188 61.60946273803711 C 210.93894958496094 57.90869140625 208.82798767089844 68.4066162109375 200.72019958496094 51.56432342529297 C 214.3819122314453 76.04016876220703 225.66738891601562 99.07659912109375 217.48170471191406 97.70381164550781"/>
    <path stroke-width="0" fill="rgb(95, 128, 134)" opacity="1.0000329" stroke="rgb(116, 102, 63)" stroke-opacity="1.0" stroke-linecap="round" stroke-linejoin="round" d="M 325.6180419921875 195.16653442382812 C 283.5384216308594 223.3325958251953 288.88287353515625 228.19744873046875 318.7948913574219 218.20033264160156 C 301.85137939453125 228.99998474121094 277.99468994140625 212.57420349121094 281.5416259765625 236.5973663330078 C 304.3111572265625 275.8527526855469 308.5520935058594 248.0443572998047 295.326904296875 236.12107849121094 C 306.9312744140625 250.58311462402344 332.44866943359375 276.9385070800781 325.6180419921875 195.16653442382812"/>
    <path stroke-width="0" fill="rgb(177, 66, 12)" opacity="0.67768717" stroke="rgb(79, 95, 133)" stroke-opacity="1.0" stroke-linecap="round" stroke-linejoin="round" d="M 231.7809295654297 92.47314453125 C 257.0533447265625 101.18903350830078 263.6505126953125 106.25364685058594 247.0848388671875 97.92495727539062 C 239.64691162109375 92.13134002685547 245.7666778564453 109.891357421875 224.5502166748047 77.29595947265625 C 254.02671813964844 95.24138641357422 233.69151306152344 104.49126434326172 241.1009979248047 88.61460876464844 C 230.1886749267578 75.43605041503906 239.45501708984375 95.71453094482422 231.7809295654297 92.47314453125"/>
    <path stroke-width="0" fill="rgb(98, 125, 133)" opacity="0.84379613" stroke="rgb(85, 235, 219)" stroke-opacity="1.0" stroke-linecap="round" stroke-linejoin="round" d="M 313.3857116699219 242.96664428710938 C 310.10479736328125 243.2552947998047 301.8486328125 239.5849151611328 364.4793701171875 240.6587677001953 C 349.9222717285156 242.52676391601562 341.63397216796875 234.02975463867188 338.5479736328125 221.76104736328125 C 354.8047790527344 273.99468994140625 313.5528564453125 268.7756042480469 335.5194396972656 233.94729614257812 C 306.7330627441406 231.73587036132812 368.129150390625 261.6168518066406 313.3857116699219 242.96664428710938"/>
    <path stroke-width="0" fill="rgb(285, 194, 14)" opacity="0.8599342" stroke="rgb(64, 113, 26)" stroke-opacity="1.0" stroke-linecap="round" stroke-linejoin="round" d="M 299.73193359375 104.73323059082031 C 288.4346618652344 87.84638977050781 320.25030517578125 122.25284576416016 310.29345703125 94.51394653320312 C 310.2122497558594 116.31533813476562 287.9922790527344 143.58740234375 285.7644958496094 115.10029602050781 C 313.7274475097656 119.35475158691406 311.1641540527344 87.07328796386719 293.32391357421875 115.87133026123047 C 316.5892333984375 111.29419708251953 302.5531005859375 97.25777435302734 299.73193359375 104.73323059082031"/>
    <path stroke-width="0" fill="rgb(80, 107, 135)" opacity="0.25211787" stroke="rgb(0, 0, 0)" stroke-opacity="0.0" stroke-linecap="round" stroke-linejoin="round" d="M 132.17762756347656 17.35990333557129 C 132.20037841796875 23.405492782592773 130.664794921875 27.58053207397461 126.09773254394531 30.669401168823242 C 121.43211364746094 28.93876075744629 120.7416763305664 27.049468994140625 121.39910125732422 17.89528465270996 C 121.13536834716797 18.670618057250977 130.42002868652344 20.002161026000977 127.48494720458984 16.21263885498047 C 125.76366424560547 18.340944290161133 131.7948455810547 17.654216766357422 132.17762756347656 17.35990333557129"/>
    <path stroke-width="0" fill="rgb(106, 126, 137)" opacity="0.19162759" stroke="rgb(0, 0, 0)" stroke-opacity="0.0" stroke-linecap="round" stroke-linejoin="round" d="M 449.6531066894531 16.678937911987305 C 452.6795349121094 20.557138442993164 449.41656494140625 22.89030647277832 444.6377258300781 23.300052642822266 C 439.9415588378906 22.17986488342285 437.8681945800781 18.955839157104492 437.9828186035156 15.365177154541016 C 436.7658996582031 10.411883354187012 439.01202392578125 6.9054365158081055 441.55767822265625 9.431482315063477 C 446.85284423828125 9.876065254211426 450.10211181640625 11.85476303100586 449.6531066894531 16.678937911987305"/>
    <path stroke-width="0" fill="rgb(76, 134, 85)" opacity="0.36768642" stroke="rgb(0, 0, 0)" stroke-opacity="0.0" stroke-linecap="round" stroke-linejoin="round" d="M 18.2811222076416 3.7965247631073 C 19.512313842773438 6.320291519165039 17.829410552978516 10.112723350524902 15.208409309387207 12.286267280578613 C 19.786115646362305 11.903972625732422 15.936359405517578 9.302230834960938 11.49405288696289 8.216893196105957 C 13.292878150939941 2.8808627128601074 13.691157341003418 -1.2770161628723145 20.996671676635742 -3.274620532989502 C 25.413375854492188 -1.0914114713668823 24.38739585876465 3.027801275253296 18.2811222076416 3.7965247631073"/>
    <path stroke-width="0" fill="rgb(54, 119, 159)" opacity="0.7653215" stroke="rgb(0, 0, 0)" stroke-opacity="0.0" stroke-linecap="round" stroke-linejoin="round" d="M 18.896055221557617 10.545159339904785 C 14.225081443786621 14.758530616760254 14.819478034973145 20.510391235351562 11.240901947021484 20.500141143798828 C 4.588117599487305 21.23585319519043 5.38611364364624 18.26414680480957 5.448309898376465 8.79931926727295 C 1.8819458484649658 5.848740577697754 5.140539646148682 0.6215817332267761 10.968127250671387 4.043824672698975 C 17.022605895996094 4.523096084594727 20.542558670043945 6.327071666717529 18.896055221557617 10.545159339904785"/>
    <path stroke-width="0" fill="rgb(103, 38, 54)" opacity="0.33932886" stroke="rgb(0, 0, 0)" stroke-opacity="0.0" stroke-linecap="round" stroke-linejoin="round" d="M 59.64464569091797 15.143133163452148 C 61.50696563720703 20.854228973388672 58.66167068481445 22.57996368408203 52.452919006347656 24.572193145751953 C 46.47079849243164 24.26663589477539 43.63774490356445 21.919519424438477 44.523536682128906 15.043803215026855 C 44.242618560791016 10.049356460571289 47.324649810791016 8.710588455200195 51.243011474609375 9.321882247924805 C 56.16859817504883 10.26722526550293 59.87648391723633 10.878788948059082 59.64464569091797 15.143133163452148"/>
    <path stroke-width="0" fill="rgb(82, 62, 129)" opacity="0.2742294" stroke="rgb(0, 0, 0)" stroke-opacity="0.0" stroke-linecap="round" stroke-linejoin="round" d="M 21.672874450683594 7.944043159484863 C 18.71054458618164 11.819802284240723 17.062633514404297 16.59456443786621 13.585967063903809 15.688353538513184 C 6.147650718688965 17.031259536743164 4.675470352172852 14.727728843688965 3.9164657592773438 9.640542030334473 C 6.96710729598999 4.537789344787598 7.130162239074707 0.5943700075149536 13.514901161193848 -0.10030441731214523 C 17.412080764770508 0.6095339059829712 18.940088272094727 4.459519386291504 21.672874450683594 7.944043159484863"/>
    <path stroke-width="0" fill="rgb(142, 106, 89)" opacity="0.29227203" stroke="rgb(0, 0, 0)" stroke-opacity="0.0" stroke-linecap="round" stroke-linejoin="round" d="M 8.719106674194336 0.7397737503051758 C 9.57114028930664 7.538873195648193 9.089353561401367 11.781670570373535 5.655577659606934 13.60262393951416 C 1.2460349798202515 11.439937591552734 -1.3481698036193848 7.9252824783325195 -2.622776508331299 3.984020233154297 C -1.891053557395935 0.405823290348053 1.0371496677398682 -2.5223798751831055 5.342108726501465 -3.7879326343536377 C 9.822739601135254 -3.2542262077331543 12.81174373626709 -1.182795524597168 8.719106674194336 0.7397737503051758"/>
    <path stroke-width="0" fill="rgb(124, 122, 58)" opacity="0.49711207" stroke="rgb(0, 0, 0)" stroke-opacity="0.0" stroke-linecap="round" stroke-linejoin="round" d="M 15.96310043334961 -1.5148345232009888 C 15.552985191345215 6.515041351318359 16.61932945251465 9.900263786315918 12.038129806518555 7.612934589385986 C 3.689882755279541 9.747920989990234 0.8661928176879883 8.025218963623047 2.3772289752960205 4.218918800354004 C 3.2884833812713623 -3.9070122241973877 6.507081031799316 -6.507610321044922 10.874656677246094 -7.423528671264648 C 14.882150650024414 -6.34087610244751 17.669418334960938 -3.3440258502960205 15.96310043334961 -1.5148345232009888"/>
    <path stroke-width="0" fill="rgb(148, 145, 136)" opacity="0.73288584" stroke="rgb(0, 0, 0)" stroke-opacity="0.0" stroke-linecap="round" stroke-linejoin="round" d="M 277.3347473144531 3.2016441822052 C 278.2143859863281 7.1539154052734375 274.0063781738281 9.516060829162598 272.8675231933594 8.1343412399292 C 268.02752685546875 6.716091632843018 262.43829345703125 7.008772850036621 264.3266296386719 4.416171073913574 C 263.54364013671875 -0.9209145307540894 266.3683166503906 -3.6475229263305664 271.2931213378906 -5.118818759918213 C 275.6633605957031 -5.041505336761475 277.7956848144531 -2.1254515647888184 277.3347473144531 3.2016441822052"/>
    <path stroke-width="0" fill="rgb(66, 178, 161)" opacity="0.7706719" stroke="rgb(0, 0, 0)" stroke-opacity="0.0" stroke-linecap="round" stroke-linejoin="round" d="M 38.509796142578125 6.171020984649658 C 35.86995315551758 11.135565757751465 33.74112319946289 14.962738037109375 29.782018661499023 15.430887222290039 C 25.321483612060547 14.171509742736816 23.364803314208984 10.873955726623535 21.430776596069336 4.93036413192749 C 20.018943786621094 1.3313632011413574 23.388254165649414 -1.1896610260009766 28.09249496459961 -1.8909105062484741 C 33.26397705078125 0.17148450016975403 36.499515533447266 3.2749059200286865 38.509796142578125 6.171020984649658"/>
    <path stroke-width="0" fill="rgb(138, 189, 207)" opacity="0.24283564" stroke="rgb(0, 0, 0)" stroke-opacity="0.0" stroke-linecap="round" stroke-linejoin="round" d="M 59.10909652709961 16.7872371673584 C 59.874664306640625 20.935577392578125 57.39875411987305 24.394180297851562 52.545745849609375 24.58530616760254 C 48.129051208496094 24.216779708862305 44.75898361206055 21.706531524658203 44.61440658569336 16.792917251586914 C 43.894126892089844 10.541346549987793 47.17385482788086 8.790637016296387 51.92580795288086 9.547646522521973 C 56.953372955322266 10.056523323059082 59.75115966796875 12.532115936279297 59.10909652709961 16.7872371673584"/>
    <path stroke-width="0" fill="rgb(24, 148, 233)" opacity="0.5598413" stroke="rgb(0, 0, 0)" stroke-opacity="0.0" stroke-linecap="round" stroke-linejoin="round" d="M 42.104000091552734 4.864807605743408 C 40.70477294921875 9.335071563720703 38.34593200683594 13.014451026916504 33.81361770629883 14.737828254699707 C 28.70358657836914 15.366926193237305 26.00193977355957 12.837718963623047 27.488008499145508 8.561923027038574 C 29.66278648376465 3.645583391189575 31.945295333862305 -0.47732260823249817 34.599491119384766 -1.032038688659668 C 38.75938415527344 -0.24374784529209137 41.44957733154297 2.7111265659332275 42.104000091552734 4.864807605743408"/>
    <path stroke-width="0" fill="rgb(145, 170, 234)" opacity="0.23986529" stroke="rgb(0, 0, 0)" stroke-opacity="0.0" stroke-linecap="round" stroke-linejoin="round" d="M 251.80873107910156 78.67882537841797 C 252.02703857421875 84.42234802246094 249.35450744628906 87.22867584228516 244.06845092773438 87.39091491699219 C 238.05392456054688 88.54922485351562 236.74862670898438 85.59601593017578 236.57070922851562 79.32975769042969 C 236.5490264892578 74.22028350830078 238.98414611816406 71.71246337890625 243.4271697998047 72.47895812988281 C 248.76466369628906 73.06121063232422 252.7357940673828 74.46792602539062 251.80873107910156 78.67882537841797"/>
    <path stroke-width="0" fill="rgb(209, 184, 27)" opacity="0.5165918" stroke="rgb(0, 0, 0)" stroke-opacity="0.0" stroke-linecap="round" stroke-linejoin="round" d="M 100.86849212646484 450.6163635253906 C 101.271240234375 454.8796081542969 98.8880844116211 456.8814392089844 94.24893188476562 455.4310607910156 C 89.49349975585938 456.77545166015625 87.70115661621094 453.4874267578125 86.94420623779297 448.9000244140625 C 86.75739288330078 445.2353210449219 89.2744369506836 442.7474060058594 93.06249237060547 442.1216735839844 C 96.7054214477539 443.38397216796875 99.30735778808594 446.6407775878906 100.86849212646484 450.6163635253906"/>
    <path stroke-width="0" fill="rgb(68, 133, 134)" opacity="0.15228102" stroke="rgb(0, 0, 0)" stroke-opacity="0.0" stroke-linecap="round" stroke-linejoin="round" d="M 69.19229888916016 400.8877258300781 C 68.26338195800781 404.32666015625 65.46932983398438 407.2516784667969 61.58900833129883 407.2497863769531 C 57.87257766723633 406.48028564453125 54.994876861572266 403.5543518066406 53.983699798583984 400.0563049316406 C 53.839447021484375 394.89373779296875 55.61110305786133 391.5271301269531 59.27934265136719 393.241455078125 C 63.82100296020508 394.88201904296875 66.90560150146484 397.58966064453125 69.19229888916016 400.8877258300781"/>
    <path stroke-width="0" fill="rgb(205, 121, 211)" opacity="0.41523498" stroke="rgb(0, 0, 0)" stroke-opacity="0.0" stroke-linecap="round" stroke-linejoin="round" d="M 33.768245697021484 -1.234877347946167 C 32.826908111572266 3.2206437587738037 30.715307235717773 7.476896286010742 27.301366806030273 7.646895408630371 C 23.055889129638672 7.2870588302612305 22.078886032104492 3.5084519386291504 21.404794692993164 -2.5377862453460693 C 20.115108489990234 -3.9630367755889893 23.043787002563477 -6.891108989715576 27.043787002563477 -7.9629058837890625 C 31.043787002563477 -6.891108989715576 33.971988677978516 -3.9629058837890625 33.768245697021484 -1.234877347946167"/>
    <path stroke-width="0" fill="rgb(82, 154, 178)" opacity="0.50755566" stroke="rgb(0, 0, 0)" stroke-opacity="0.0" stroke-linecap="round" stroke-linejoin="round" d="M 159.53492736816406 40.636512756347656 C 157.81875610351562 45.7359619140625 155.9738311767578 49.34946060180664 151.30252075195312 49.25098419189453 C 147.6431884765625 49.075599670410156 145.25933837890625 45.405540466308594 144.29603576660156 40.90329360961914 C 143.81552124023438 37.41159439086914 147.8061981201172 35.697265625 151.5269012451172 32.367305755615234 C 157.55433654785156 33.502174377441406 159.91189575195312 35.69911575317383 159.53492736816406 40.636512756347656"/>
    <path stroke-width="0" fill="rgb(225, 55, 58)" opacity="0.7484325" stroke="rgb(0, 0, 0)" stroke-opacity="0.0" stroke-linecap="round" stroke-linejoin="round" d="M 14.258832931518555 -16.695833206176758 C 13.18703556060791 -12.695834159851074 10.258832931518555 -9.767630577087402 6.2588324546813965 -8.695834159851074 C 2.2588326930999756 -9.767630577087402 -0.6693705320358276 -12.695834159851074 -1.7411673069000244 -16.695833206176758 C -0.6693705320358276 -20.695833206176758 2.2588326930999756 -23.62403678894043 6.2588324546813965 -24.695833206176758 C 10.258832931518555 -23.62403678894043 13.18703556060791 -20.695833206176758 14.258832931518555 -16.695833206176758"/>
    <path stroke-width="0" fill="rgb(151, 115, 147)" opacity="0.4438137" stroke="rgb(0, 0, 0)" stroke-opacity="0.0" stroke-linecap="round" stroke-linejoin="round" d="M 21.493465423583984 14.69852066040039 C 21.1573543548584 21.0289249420166 18.601665496826172 23.702245712280273 14.173943519592285 23.38791275024414 C 9.670791625976562 23.388063430786133 5.723325252532959 21.9401798248291 5.748147964477539 18.192859649658203 C 6.181268215179443 10.278050422668457 7.927371025085449 8.641345977783203 13.70415210723877 9.763031959533691 C 19.822843551635742 9.837601661682129 22.787843704223633 11.869804382324219 21.493465423583984 14.69852066040039"/>
    <path stroke-width="0" fill="rgb(149, 146, 109)" opacity="0.0022047244" stroke="rgb(0, 0, 0)" stroke-opacity="0.0" stroke-linecap="round" stroke-linejoin="round" d="M 156.05459594726562 196.28756713867188 C 154.8545684814453 200.02809143066406 151.834228515625 202.72012329101562 148.2284698486328 204.0615692138672 C 144.6639862060547 203.30555725097656 141.5266571044922 200.53500366210938 140.6448974609375 196.5138702392578 C 141.2679901123047 192.2074737548828 144.12892150878906 189.42909240722656 148.5732421875 189.46145629882812 C 152.5833740234375 189.66787719726562 155.60745239257812 192.45970153808594 156.05459594726562 196.28756713867188"/>
    <path stroke-width="0" fill="rgb(199, 161, 160)" opacity="0.11783781" stroke="rgb(0, 0, 0)" stroke-opacity="0.0" stroke-linecap="round" stroke-linejoin="round" d="M 38.32809829711914 223.7102508544922 C 39.40611267089844 229.34742736816406 37.689449310302734 231.52650451660156 33.20261001586914 230.5679168701172 C 27.643007278442383 230.8133087158203 24.377029418945312 229.3699951171875 24.060413360595703 223.7092742919922 C 25.167869567871094 219.61048889160156 28.002756118774414 216.42918395996094 31.835086822509766 216.32357788085938 C 37.16669845581055 217.3878936767578 39.927669525146484 219.3135528564453 38.32809829711914 223.7102508544922"/>
    <path stroke-width="0" fill="rgb(81, 141, 51)" opacity="0.046344623" stroke="rgb(0, 0, 0)" stroke-opacity="0.0" stroke-linecap="round" stroke-linejoin="round" d="M 91.64860534667969 431.7533264160156 C 90.49995422363281 435.3190612792969 87.35179901123047 438.2292175292969 82.8061294555664 440.4106140136719 C 79.02249145507812 439.22509765625 77.7752456665039 435.3696594238281 77.93885803222656 431.2707824707031 C 77.64285278320312 428.1895751953125 80.13330841064453 424.8470764160156 82.91201782226562 423.2444152832031 C 86.74967956542969 425.4453430175781 89.72322082519531 428.1812438964844 91.64860534667969 431.7533264160156"/>
    <path stroke-width="0" fill="rgb(153, 84, 197)" opacity="0.09167198" stroke="rgb(0, 0, 0)" stroke-opacity="0.0" stroke-linecap="round" stroke-linejoin="round" d="M 177.0423583984375 169.9073486328125 C 176.6376190185547 172.9574737548828 173.72117614746094 175.79823303222656 169.4757080078125 176.24681091308594 C 165.4463348388672 175.1955108642578 163.0144500732422 171.81692504882812 161.51828002929688 167.46121215820312 C 161.23143005371094 163.3015594482422 164.04139709472656 160.38287353515625 168.34950256347656 159.61070251464844 C 172.1020050048828 161.67645263671875 175.48013305664062 165.2229766845703 177.0423583984375 169.9073486328125"/>
    <path stroke-width="0" fill="rgb(44, 129, 68)" opacity="0.5652712" stroke="rgb(0, 0, 0)" stroke-opacity="0.0" stroke-linecap="round" stroke-linejoin="round" d="M 349.3621520996094 307.5373840332031 C 348.550048828125 312.78607177734375 346.99517822265625 316.10614013671875 342.7440490722656 315.7144470214844 C 338.0701599121094 316.5331726074219 336.2196960449219 313.1670837402344 336.3187255859375 308.85284423828125 C 337.4487609863281 306.43243408203125 340.31195068359375 303.36260986328125 344.21929931640625 301.99041748046875 C 346.5335693359375 302.190673828125 350.4039611816406 304.33013916015625 349.3621520996094 307.5373840332031"/>
    <path stroke-width="0" fill="rgb(68, 182, 53)" opacity="0.11825749" stroke="rgb(0, 0, 0)" stroke-opacity="0.0" stroke-linecap="round" stroke-linejoin="round" d="M 352.1842956542969 237.1554412841797 C 350.6679382324219 241.88845825195312 347.56976318359375 244.38668823242188 342.7848815917969 245.52609252929688 C 339.53948974609375 244.44522094726562 336.8457946777344 241.1563262939453 336.9626770019531 238.59466552734375 C 338.64129638671875 235.63612365722656 341.4482421875 232.69558715820312 345.0286560058594 230.49972534179688 C 347.0102844238281 231.04196166992188 350.49737548828125 233.5393524169922 352.1842956542969 237.1554412841797"/>
    <path stroke-width="0" fill="rgb(117, 45, 18)" opacity="0.27416033" stroke="rgb(0, 0, 0)" stroke-opacity="0.0" stroke-linecap="round" stroke-linejoin="round" d="M 445.87103271484375 251.28990173339844 C 445.9126892089844 254.85104370117188 444.43878173828125 259.2110290527344 442.24078369140625 259.6579284667969 C 438.473876953125 257.2576599121094 435.1760559082031 254.92991638183594 433.4113464355469 250.58966064453125 C 434.6986999511719 248.98008728027344 437.81903076171875 245.62147521972656 441.36785888671875 244.38967895507812 C 444.203125 245.3065948486328 446.8982238769531 249.00906372070312 445.87103271484375 251.28990173339844"/>
    <path stroke-width="0" fill="rgb(211, 106, 5)" opacity="0.4214168" stroke="rgb(0, 0, 0)" stroke-opacity="0.0" stroke-linecap="round" stroke-linejoin="round" d="M 365.177001953125 256.4487609863281 C 365.90625 260.70086669921875 363.8984375 263.7132873535156 359.3954162597656 263.0950622558594 C 353.7007751464844 263.1927185058594 351.0727844238281 260.78778076171875 350.2580871582031 255.37120056152344 C 350.888916015625 250.36813354492188 353.45703125 247.0544891357422 357.6768798828125 247.81930541992188 C 361.89666748046875 249.52908325195312 364.6737976074219 252.64988708496094 365.177001953125 256.4487609863281"/>
    <path stroke-width="0" fill="rgb(205, 79, 86)" opacity="0.36262354" stroke="rgb(0, 0, 0)" stroke-opacity="0.0" stroke-linecap="round" stroke-linejoin="round" d="M 170.1401824951172 506.2040100097656 C 172.31475830078125 510.8376770019531 171.29583740234375 513.781494140625 165.01275634765625 515.57275390625 C 158.24070739746094 514.2057495117188 157.06402587890625 510.6007080078125 158.7091827392578 507.1471862792969 C 160.30389404296875 502.24285888671875 161.64617919921875 498.14984130859375 162.52537536621094 499.1993408203125 C 167.23094177246094 500.20391845703125 170.08872985839844 501.6776123046875 170.1401824951172 506.2040100097656"/>
    <path stroke-width="0" fill="rgb(22, 155, 29)" opacity="0.13345192" stroke="rgb(0, 0, 0)" stroke-opacity="0.0" stroke-linecap="round" stroke-linejoin="round" d="M -100.48587799072266 -83.45436096191406 C -101.55767822265625 -79.45436096191406 -104.48587799072266 -76.52615356445312 -108.48587799072266 -75.45436096191406 C -112.48587799072266 -76.52615356445312 -115.4140853881836 -79.45436096191406 -116.48587799072266 -83.45436096191406 C -115.4140853881836 -87.45436096191406 -112.48587799072266 -90.38256072998047 -108.48587799072266 -91.45436096191406 C -104.48587799072266 -90.38256072998047 -101.55767822265625 -87.45436096191406 -100.48587799072266 -83.45436096191406"/>
    <path stroke-width="0" fill="rgb(242, 77, 192)" opacity="0.5477087" stroke="rgb(0, 0, 0)" stroke-opacity="0.0" stroke-linecap="round" stroke-linejoin="round" d="M 448.26092529296875 372.1756286621094 C 447.470458984375 376.1641845703125 444.65911865234375 378.6302490234375 441.1864013671875 378.0914001464844 C 435.78839111328125 379.27581787109375 433.6663513183594 376.8327331542969 433.6996765136719 371.8185729980469 C 434.3374328613281 368.9295654296875 437.4540100097656 365.82379150390625 438.7658996582031 366.1603698730469 C 443.58563232421875 367.0340881347656 447.579833984375 368.181640625 448.26092529296875 372.1756286621094"/>
    <path stroke-width="0" fill="rgb(199, 90, 40)" opacity="0.5178052" stroke="rgb(0, 0, 0)" stroke-opacity="0.0" stroke-linecap="round" stroke-linejoin="round" d="M 1.2652603387832642 0.32482069730758667 C 0.28872281312942505 4.621922969818115 -2.3416149616241455 7.866621494293213 -6.259402751922607 8.933735847473145 C -10.362608909606934 7.76533317565918 -13.290812492370605 4.837129592895508 -14.362608909606934 0.8371297717094421 C -13.290812492370605 -3.162870168685913 -10.362608909606934 -6.091073513031006 -6.363742828369141 -7.162480354309082 C -2.422238826751709 -6.068896293640137 0.2636820375919342 -2.9335989952087402 1.2652603387832642 0.32482069730758667"/>
    <path stroke-width="0" fill="rgb(91, 131, 133)" opacity="0.913016" stroke="rgb(0, 0, 0)" stroke-opacity="0.0" stroke-linecap="round" stroke-linejoin="round" d="M 139.59812927246094 383.31097412109375 C 139.69407653808594 388.21160888671875 138.36509704589844 392.3618469238281 134.1483917236328 392.0193176269531 C 127.41993713378906 392.1562194824219 124.75459289550781 390.1634521484375 124.5062026977539 384.7362060546875 C 126.76589965820312 380.65521240234375 130.7759552001953 378.5010681152344 134.09210205078125 377.4660339355469 C 136.90867614746094 377.8753967285156 139.92950439453125 380.5145263671875 139.59812927246094 383.31097412109375"/>
    <path stroke-width="0" fill="rgb(201, 219, 249)" opacity="0.008957461" stroke="rgb(0, 0, 0)" stroke-opacity="0.0" stroke-linecap="round" stroke-linejoin="round" d="M 45.272281646728516 142.58082580566406 C 44.62455749511719 146.7563018798828 42.216487884521484 150.0677032470703 38.15955352783203 151.79222106933594 C 33.534156799316406 150.29986572265625 31.111757278442383 146.9805450439453 30.325942993164062 142.61441040039062 C 31.18831443786621 138.76336669921875 33.701351165771484 135.53207397460938 37.62289047241211 134.89224243164062 C 42.03173828125 135.88687133789062 45.08712387084961 138.51597595214844 45.272281646728516 142.58082580566406"/>
    <path stroke-width="0" fill="rgb(213, 11, 17)" opacity="0.5931626" stroke="rgb(0, 0, 0)" stroke-opacity="0.0" stroke-linecap="round" stroke-linejoin="round" d="M 24.668621063232422 -21.762842178344727 C 23.596824645996094 -17.762842178344727 20.668621063232422 -14.834639549255371 16.668621063232422 -13.762843132019043 C 12.668622016906738 -14.834639549255371 9.740418434143066 -17.762842178344727 8.668622016906738 -21.762842178344727 C 9.740418434143066 -25.762842178344727 12.668622016906738 -28.6910457611084 16.668621063232422 -29.762842178344727 C 20.668621063232422 -28.6910457611084 23.596824645996094 -25.762842178344727 24.668621063232422 -21.762842178344727"/>
    <path stroke-width="0" fill="rgb(126, 251, 169)" opacity="0.54950905" stroke="rgb(0, 0, 0)" stroke-opacity="0.0" stroke-linecap="round" stroke-linejoin="round" d="M 108.10499572753906 -84.74349212646484 C 107.033203125 -80.74349212646484 104.10499572753906 -77.8152847290039 100.10499572753906 -76.74349212646484 C 96.10499572753906 -77.8152847290039 93.17679595947266 -80.74349212646484 92.10499572753906 -84.74349212646484 C 93.17679595947266 -88.74349212646484 96.10499572753906 -91.67169189453125 100.10499572753906 -92.74349212646484 C 104.10499572753906 -91.67169189453125 107.033203125 -88.74349212646484 108.10499572753906 -84.74349212646484"/>
    <path stroke-width="0" fill="rgb(197, 121, 32)" opacity="0.03342436" stroke="rgb(0, 0, 0)" stroke-opacity="0.0" stroke-linecap="round" stroke-linejoin="round" d="M 1.389222264289856 -17.607885360717773 C 0.3174254894256592 -13.607885360717773 -2.6107778549194336 -10.679681777954102 -6.610777854919434 -9.607885360717773 C -10.610777854919434 -10.679681777954102 -13.538981437683105 -13.607885360717773 -14.610777854919434 -17.607885360717773 C -13.538981437683105 -21.607885360717773 -10.610777854919434 -24.536088943481445 -6.610777854919434 -25.607885360717773 C -2.6107778549194336 -24.536088943481445 0.3174254894256592 -21.607885360717773 1.389222264289856 -17.607885360717773"/>
    <path stroke-width="0" fill="rgb(122, 15, 65)" opacity="0.53620887" stroke="rgb(0, 0, 0)" stroke-opacity="0.0" stroke-linecap="round" stroke-linejoin="round" d="M 61.598854064941406 455.6680603027344 C 62.83588790893555 459.77447509765625 58.911705017089844 461.472900390625 53.745079040527344 462.5329895019531 C 50.60031509399414 461.2931823730469 47.26314163208008 458.3732604980469 47.620849609375 456.3546142578125 C 48.60709762573242 451.6607971191406 51.08445739746094 448.5690612792969 53.74169158935547 447.7410583496094 C 58.539634704589844 448.4612731933594 62.02172088623047 450.1344299316406 61.598854064941406 455.6680603027344"/>
    <path stroke-width="0" fill="rgb(154, 82, 202)" opacity="0.7707608" stroke="rgb(0, 0, 0)" stroke-opacity="0.0" stroke-linecap="round" stroke-linejoin="round" d="M 201.51095581054688 458.4242858886719 C 201.77880859375 461.701904296875 199.36843872070312 464.9985046386719 196.25291442871094 465.3656311035156 C 190.5066375732422 464.3714599609375 189.37416076660156 461.7752380371094 189.7218017578125 456.42449951171875 C 188.54025268554688 453.7922058105469 191.45889282226562 451.5580139160156 197.644287109375 451.2593994140625 C 199.58436584472656 449.8222351074219 201.04261779785156 453.1378479003906 201.51095581054688 458.4242858886719"/>
    <path stroke-width="0" fill="rgb(100, 85, 58)" opacity="0.17860508" stroke="rgb(0, 0, 0)" stroke-opacity="0.0" stroke-linecap="round" stroke-linejoin="round" d="M 132.55287170410156 414.9849853515625 C 131.3272705078125 418.9255065917969 129.0068817138672 422.625244140625 125.21730041503906 424.6243591308594 C 121.70295715332031 421.677490234375 118.88251495361328 418.4261779785156 117.65708923339844 414.28668212890625 C 116.97274017333984 411.298583984375 120.66336059570312 408.1717529296875 124.0772933959961 407.4942321777344 C 128.2788543701172 409.24859619140625 132.4310760498047 411.3435363769531 132.55287170410156 414.9849853515625"/>
    <path stroke-width="0" fill="rgb(203, 60, 224)" opacity="0.3026093" stroke="rgb(0, 0, 0)" stroke-opacity="0.0" stroke-linecap="round" stroke-linejoin="round" d="M 321.4995422363281 461.70526123046875 C 321.6596374511719 467.1917419433594 320.89483642578125 470.0933532714844 316.76513671875 469.81512451171875 C 311.3557434082031 469.14202880859375 309.4226989746094 466.5000305175781 309.420654296875 461.84515380859375 C 309.0755920410156 458.6224060058594 312.36212158203125 455.9220886230469 315.2738952636719 455.13861083984375 C 318.459228515625 456.4587097167969 322.8450622558594 458.53399658203125 321.4995422363281 461.70526123046875"/>
    <path stroke-width="0" fill="rgb(27, 224, 68)" opacity="0.17792879" stroke="rgb(0, 0, 0)" stroke-opacity="0.0" stroke-linecap="round" stroke-linejoin="round" d="M 176.40692138671875 415.948486328125 C 175.2551727294922 420.67352294921875 172.37229919433594 423.03326416015625 169.38999938964844 424.5118408203125 C 167.19873046875 422.25531005859375 163.34213256835938 419.8492736816406 161.80142211914062 417.5394592285156 C 163.15638732910156 414.3330383300781 166.4716796875 411.8291320800781 170.81214904785156 410.56280517578125 C 174.64321899414062 409.2750549316406 177.2665557861328 411.9279479980469 176.40692138671875 415.948486328125"/>
    <path stroke-width="0" fill="rgb(106, 192, 97)" opacity="0.7218179" stroke="rgb(0, 0, 0)" stroke-opacity="0.0" stroke-linecap="round" stroke-linejoin="round" d="M 64.48347473144531 296.77178955078125 C 64.30221557617188 300.5234680175781 63.02073669433594 304.23297119140625 57.883060455322266 305.15985107421875 C 53.458648681640625 306.2580871582031 51.33784866333008 303.1798400878906 52.580108642578125 298.39556884765625 C 53.21509552001953 294.6834716796875 56.598365783691406 291.8336486816406 58.279579162597656 291.76812744140625 C 61.70565414428711 291.9543151855469 65.0561294555664 294.60223388671875 64.48347473144531 296.77178955078125"/>
    <path stroke-width="0" fill="rgb(70, 10, 60)" opacity="0.53433335" stroke="rgb(0, 0, 0)" stroke-opacity="0.0" stroke-linecap="round" stroke-linejoin="round" d="M 358.69561767578125 240.03758239746094 C 358.08013916015625 244.9473114013672 356.6395568847656 248.88003540039062 352.3993225097656 249.75880432128906 C 347.8905944824219 248.04302978515625 345.07867431640625 245.07223510742188 344.2636413574219 240.03564453125 C 344.0330505371094 236.49588012695312 348.57818603515625 235.34535217285156 351.911376953125 233.35072326660156 C 354.8667297363281 235.08934020996094 357.53277587890625 238.31759643554688 358.69561767578125 240.03758239746094"/>
  </g>
</svg>
