<?xml version="1.0" ?>
<svg xmlns="http://www.w3.org/2000/svg" version="1.1" width="512" height="512">
  <defs/>
  <g>
    <path stroke-width="0" fill="rgb(71, 78, 238)" opacity="1.1563165" stroke="rgb(139, 182, 153)" stroke-opacity="1.0" stroke-linecap="round" stroke-linejoin="round" d="M 215.8720245361328 -8.107319831848145 C 163.5366973876953 0.958693265914917 200.24708557128906 56.09782791137695 72.81137084960938 135.39903259277344 C 58.15313720703125 122.44647979736328 54.644927978515625 110.62849426269531 53.86355972290039 89.12078857421875 C 53.35761642456055 -70.5096435546875 64.81763458251953 -70.42327880859375 84.61817169189453 -59.906585693359375 C 196.87890625 -32.08534240722656 204.9210205078125 -25.525909423828125 215.8720245361328 -8.107319831848145"/>
    <path stroke-width="0" fill="rgb(46, 57, 214)" opacity="1.025049" stroke="rgb(108, 164, 111)" stroke-opacity="1.0" stroke-linecap="round" stroke-linejoin="round" d="M 147.6692657470703 76.23892211914062 C 156.63690185546875 157.99395751953125 160.5662078857422 170.82958984375 98.42391204833984 172.63291931152344 C -60.388484954833984 166.8687286376953 -47.10315704345703 135.95826721191406 -40.92073440551758 84.8712387084961 C -38.50617218017578 -35.472816467285156 -31.483736038208008 -40.57529067993164 62.091007232666016 -41.63431167602539 C 134.8238983154297 -55.1971321105957 148.08920288085938 -63.83039474487305 147.6692657470703 76.23892211914062"/>
    <path stroke-width="0" fill="rgb(40, 64, 208)" opacity="1.0229774" stroke="rgb(245, 97, 201)" stroke-opacity="1.0" stroke-linecap="round" stroke-linejoin="round" d="M 488.2504577636719 529.2457275390625 C 350.8706970214844 582.8856811523438 327.6231384277344 574.8817749023438 -39.52774429321289 555.3480224609375 C -75.76151275634766 413.1372375488281 -51.65288543701172 351.97052001953125 -49.40289306640625 134.51829528808594 C -57.16219711303711 96.9566421508789 -59.74896240234375 87.02979278564453 151.97579956054688 82.54582214355469 C 268.5914001464844 76.21809387207031 400.9330749511719 28.49455451965332 488.2504577636719 529.2457275390625"/>
    <path stroke-width="0" fill="rgb(-21, 89, 154)" opacity="0.99866414" stroke="rgb(144, 236, 18)" stroke-opacity="1.0" stroke-linecap="round" stroke-linejoin="round" d="M 552.4114990234375 547.7697143554688 C 343.1727600097656 509.4296875 285.578369140625 422.4323425292969 185.12513732910156 297.7452392578125 C 101.199951171875 148.36550903320312 72.23733520507812 146.81378173828125 56.69878005981445 129.9342803955078 C 182.9654998779297 24.832162857055664 135.32156372070312 -27.884654998779297 450.87701416015625 -57.06578063964844 C 555.062744140625 -124.77310180664062 573.008544921875 -219.4150390625 552.4114990234375 547.7697143554688"/>
    <path stroke-width="0" fill="rgb(261, 237, 192)" opacity="0.9853755" stroke="rgb(5, 212, 198)" stroke-opacity="1.0" stroke-linecap="round" stroke-linejoin="round" d="M 367.5503845214844 363.5268249511719 C 338.52667236328125 310.4808349609375 386.5555419921875 441.2325744628906 343.0654296875 405.2673645019531 C 348.279296875 274.3495178222656 238.7618865966797 482.5000915527344 279.08721923828125 327.32830810546875 C 242.175537109375 250.7715606689453 290.7698059082031 232.36485290527344 275.4750671386719 311.2452392578125 C 371.1492614746094 223.76087951660156 348.90130615234375 333.4739990234375 367.5503845214844 363.5268249511719"/>
    <path stroke-width="0" fill="rgb(249, 252, 270)" opacity="1.0430061" stroke="rgb(249, 203, 117)" stroke-opacity="1.0" stroke-linecap="round" stroke-linejoin="round" d="M 264.70672607421875 326.58172607421875 C 248.31459045410156 348.5190124511719 294.83453369140625 355.0732421875 233.19728088378906 349.96173095703125 C 216.1026611328125 347.6353454589844 200.6553192138672 313.36590576171875 198.44097900390625 332.862060546875 C 174.29331970214844 308.7131042480469 155.500732421875 316.539306640625 193.44677734375 281.509033203125 C 279.13909912109375 299.0198669433594 269.2874450683594 263.01141357421875 264.70672607421875 326.58172607421875"/>
    <path stroke-width="0" fill="rgb(264, 227, 152)" opacity="1.0300895" stroke="rgb(30, 163, 36)" stroke-opacity="1.0" stroke-linecap="round" stroke-linejoin="round" d="M 402.51885986328125 333.2489013671875 C 401.92327880859375 382.3642883300781 381.97918701171875 373.5008239746094 335.5137634277344 346.2447204589844 C 377.2209777832031 318.103515625 329.3748779296875 316.8892822265625 287.7021179199219 301.9704895019531 C 225.98751831054688 274.3158264160156 298.6673583984375 208.4844512939453 343.4653625488281 282.57373046875 C 332.2366943359375 292.2563171386719 358.90753173828125 266.8406066894531 402.51885986328125 333.2489013671875"/>
    <path stroke-width="0" fill="rgb(262, 146, 14)" opacity="0.994083" stroke="rgb(133, 105, 67)" stroke-opacity="1.0" stroke-linecap="round" stroke-linejoin="round" d="M 303.2498474121094 91.05207824707031 C 320.0046691894531 235.35165405273438 127.95246124267578 242.66954040527344 221.80145263671875 78.77252960205078 C 184.22030639648438 180.50830078125 142.26144409179688 235.65011596679688 182.48692321777344 124.15384674072266 C 219.1494903564453 49.926856994628906 213.51548767089844 63.253963470458984 231.30787658691406 68.66563415527344 C 238.88674926757812 101.12744903564453 225.3543243408203 124.09809112548828 303.2498474121094 91.05207824707031"/>
    <path stroke-width="0" fill="rgb(257, 238, 209)" opacity="0.9042413" stroke="rgb(116, 144, 4)" stroke-opacity="1.0" stroke-linecap="round" stroke-linejoin="round" d="M 302.52899169921875 317.0248107910156 C 309.3046569824219 336.68695068359375 393.1778259277344 332.3477478027344 194.7384490966797 284.0832214355469 C 197.37478637695312 268.0536804199219 155.5992431640625 376.5565185546875 150.94775390625 241.96469116210938 C 220.7503662109375 -37.48082733154297 155.73013305664062 228.29981994628906 266.9584655761719 237.14065551757812 C 292.67205810546875 257.9725646972656 261.3927001953125 136.34898376464844 302.52899169921875 317.0248107910156"/>
    <path stroke-width="0" fill="rgb(273, 265, 256)" opacity="1.0108234" stroke="rgb(156, 157, 240)" stroke-opacity="1.0" stroke-linecap="round" stroke-linejoin="round" d="M 230.20545959472656 213.11219787597656 C 304.6488952636719 261.1579284667969 185.2358856201172 227.01129150390625 200.9138946533203 186.75856018066406 C 311.0078430175781 300.5216369628906 170.3372039794922 126.26929473876953 238.66799926757812 234.5315399169922 C 164.63644409179688 188.8418426513672 126.58177947998047 110.07562255859375 281.2030334472656 192.66326904296875 C 323.12591552734375 268.1503601074219 182.9888916015625 161.99456787109375 230.20545959472656 213.11219787597656"/>
    <path stroke-width="0" fill="rgb(278, 216, 148)" opacity="0.8768837" stroke="rgb(91, 111, 177)" stroke-opacity="1.0" stroke-linecap="round" stroke-linejoin="round" d="M 176.464599609375 265.48870849609375 C 147.58688354492188 251.05873107910156 234.35316467285156 279.385498046875 177.17422485351562 407.8706359863281 C 114.80323028564453 434.6921081542969 187.56658935546875 446.8029479980469 157.32064819335938 287.5726318359375 C 152.12567138671875 166.74822998046875 165.6315460205078 271.9991149902344 178.0019073486328 127.8243179321289 C 355.5223693847656 39.336181640625 90.21681213378906 197.2873992919922 176.464599609375 265.48870849609375"/>
    <path stroke-width="0" fill="rgb(271, 245, 199)" opacity="1.0420377" stroke="rgb(170, 171, 53)" stroke-opacity="1.0" stroke-linecap="round" stroke-linejoin="round" d="M 280.0089416503906 319.8486022949219 C 263.2249755859375 422.14788818359375 267.95147705078125 438.2594909667969 267.0345764160156 441.02374267578125 C 222.79580688476562 441.4554748535156 243.66481018066406 460.03900146484375 247.04954528808594 342.3856506347656 C 229.76800537109375 315.5264587402344 199.6134033203125 308.4148254394531 260.1979675292969 269.6614074707031 C 293.464111328125 222.10145568847656 281.9842224121094 235.93698120117188 280.0089416503906 319.8486022949219"/>
    <path stroke-width="0" fill="rgb(282, 215, 264)" opacity="0.7697638" stroke="rgb(80, 92, 145)" stroke-opacity="1.0" stroke-linecap="round" stroke-linejoin="round" d="M 167.79931640625 416.77130126953125 C 187.20220947265625 398.9461669921875 150.54905700683594 395.0021667480469 153.8773193359375 410.93548583984375 C 197.16189575195312 410.2333679199219 166.77755737304688 420.111083984375 181.6262664794922 394.2637023925781 C 136.39071655273438 416.9274597167969 144.31983947753906 385.4461669921875 182.43031311035156 409.5885314941406 C 145.08453369140625 371.0071716308594 177.72454833984375 406.44903564453125 167.79931640625 416.77130126953125"/>
    <path stroke-width="0" fill="rgb(213, 217, 175)" opacity="1.0032244" stroke="rgb(166, 64, 118)" stroke-opacity="1.0" stroke-linecap="round" stroke-linejoin="round" d="M 194.203369140625 334.43585205078125 C 197.5463104248047 343.0779113769531 177.41885375976562 349.1328125 196.2533416748047 306.85760498046875 C 203.9622802734375 347.38055419921875 216.55921936035156 298.6131896972656 193.05465698242188 348.6576232910156 C 194.29747009277344 339.1060791015625 192.48565673828125 326.9234924316406 180.45933532714844 363.6905822753906 C 186.39231872558594 353.9468994140625 191.3368682861328 375.84906005859375 194.203369140625 334.43585205078125"/>
    <path stroke-width="0" fill="rgb(318, 287, 221)" opacity="0.9043669" stroke="rgb(50, 94, 209)" stroke-opacity="1.0" stroke-linecap="round" stroke-linejoin="round" d="M 184.07015991210938 388.0107116699219 C 178.61676025390625 420.0478820800781 166.35556030273438 413.1809387207031 214.52606201171875 402.65533447265625 C 151.25152587890625 417.55535888671875 178.1269989013672 420.97711181640625 145.24720764160156 418.59814453125 C 143.81240844726562 384.4419250488281 164.4242706298828 409.5170593261719 171.49325561523438 394.3819274902344 C 142.02249145507812 387.67498779296875 193.0310516357422 400.8489685058594 184.07015991210938 388.0107116699219"/>
    <path stroke-width="0" fill="rgb(-19, 90, 159)" opacity="0.96447533" stroke="rgb(72, 30, 75)" stroke-opacity="1.0" stroke-linecap="round" stroke-linejoin="round" d="M 439.9031677246094 634.8201293945312 C -24.605405807495117 452.5427551269531 510.2665710449219 379.5340881347656 540.3941040039062 355.1407165527344 C 273.76580810546875 426.78265380859375 501.41156005859375 373.31982421875 318.2958679199219 252.78848266601562 C 246.52236938476562 244.77688598632812 305.7362365722656 243.4508056640625 288.1033630371094 118.99139404296875 C 342.1839599609375 57.143123626708984 697.3739013671875 -21.906015396118164 439.9031677246094 634.8201293945312"/>
    <path stroke-width="0" fill="rgb(291, 286, 24)" opacity="0.73065025" stroke="rgb(146, 236, 81)" stroke-opacity="1.0" stroke-linecap="round" stroke-linejoin="round" d="M 192.71388244628906 95.85852813720703 C 200.10240173339844 110.92230987548828 201.40052795410156 110.76187896728516 189.31564331054688 118.24151611328125 C 186.77259826660156 130.5680389404297 203.87904357910156 130.67247009277344 211.94039916992188 121.80689239501953 C 193.96861267089844 106.02748107910156 193.80178833007812 100.3748779296875 192.8143310546875 102.96051788330078 C 194.3127899169922 102.05633544921875 204.64447021484375 116.99618530273438 192.71388244628906 95.85852813720703"/>
    <path stroke-width="0" fill="rgb(-6, 75, 169)" opacity="0.63997495" stroke="rgb(33, 182, 73)" stroke-opacity="1.0" stroke-linecap="round" stroke-linejoin="round" d="M 288.8685302734375 125.56511688232422 C 302.28936767578125 170.77943420410156 283.028564453125 132.91403198242188 286.7956237792969 134.62278747558594 C 292.2552490234375 130.53602600097656 292.53192138671875 138.85488891601562 295.9247741699219 126.4177017211914 C 288.8114929199219 180.8848876953125 293.12518310546875 144.6298828125 292.33465576171875 168.1518096923828 C 291.28289794921875 96.15819549560547 293.3621520996094 166.58755493164062 288.8685302734375 125.56511688232422"/>
    <path stroke-width="0" fill="rgb(209, 36, -29)" opacity="1.0695012" stroke="rgb(149, 5, 211)" stroke-opacity="1.0" stroke-linecap="round" stroke-linejoin="round" d="M 282.1058349609375 201.06544494628906 C 284.90985107421875 202.34107971191406 269.0856018066406 193.17605590820312 262.1849060058594 182.352294921875 C 277.1245422363281 174.25436401367188 250.94432067871094 188.18453979492188 246.79913330078125 182.4957275390625 C 191.5727996826172 141.68080139160156 307.8965759277344 181.32693481445312 281.67401123046875 174.00962829589844 C 287.88104248046875 201.48880004882812 332.2746276855469 207.022216796875 282.1058349609375 201.06544494628906"/>
    <path stroke-width="0" fill="rgb(37, 83, 146)" opacity="-0.0727584" stroke="rgb(172, 68, 187)" stroke-opacity="1.0" stroke-linecap="round" stroke-linejoin="round" d="M 300.45635986328125 99.89696502685547 C 296.4997253417969 103.71978759765625 345.4625244140625 82.3030014038086 298.95208740234375 134.5784149169922 C 319.40338134765625 91.06443786621094 314.5089416503906 84.63277435302734 267.3731384277344 98.22840881347656 C 258.195556640625 99.96744537353516 348.1674499511719 72.86273193359375 291.2781982421875 128.91366577148438 C 289.90924072265625 138.53578186035156 274.278564453125 127.06729125976562 300.45635986328125 99.89696502685547"/>
    <path stroke-width="0" fill="rgb(88, 118, -40)" opacity="0.10594943" stroke="rgb(63, 146, 150)" stroke-opacity="1.0" stroke-linecap="round" stroke-linejoin="round" d="M 295.23284912109375 94.58638763427734 C 286.2250671386719 87.77584838867188 314.2870788574219 87.59230041503906 300.3653259277344 98.9749755859375 C 311.69403076171875 89.05267333984375 291.5180358886719 92.66934204101562 305.7823486328125 91.82645416259766 C 301.7923583984375 103.20338439941406 322.27105712890625 95.53265380859375 288.7851257324219 91.97178649902344 C 272.05633544921875 98.99179077148438 240.58859252929688 109.75782012939453 295.23284912109375 94.58638763427734"/>
    <path stroke-width="0" fill="rgb(129, 5, -119)" opacity="0.73525864" stroke="rgb(56, 242, 114)" stroke-opacity="1.0" stroke-linecap="round" stroke-linejoin="round" d="M 177.7599334716797 146.65869140625 C 182.74514770507812 133.40467834472656 181.10552978515625 127.66130065917969 175.98683166503906 134.75408935546875 C 206.94715881347656 80.17034912109375 194.86495971679688 123.40995025634766 177.1019744873047 152.52291870117188 C 170.53443908691406 156.69717407226562 171.2743377685547 171.32167053222656 172.6766357421875 157.93333435058594 C 170.12709045410156 176.14529418945312 171.57867431640625 173.2130126953125 177.7599334716797 146.65869140625"/>
    <path stroke-width="0" fill="rgb(96, -39, -35)" opacity="0.9908046" stroke="rgb(178, 75, 207)" stroke-opacity="1.0" stroke-linecap="round" stroke-linejoin="round" d="M 221.3280792236328 90.1864242553711 C 226.32781982421875 86.78549194335938 228.5303955078125 90.52933502197266 226.938232421875 108.2689208984375 C 181.26168823242188 161.70947265625 212.14520263671875 111.93768310546875 211.57142639160156 85.70982360839844 C 205.5775909423828 123.05049133300781 213.58929443359375 97.4970932006836 212.0383758544922 91.19783020019531 C 217.64894104003906 80.49384307861328 203.45040893554688 108.32217407226562 221.3280792236328 90.1864242553711"/>
    <path stroke-width="0" fill="rgb(58, 0, -133)" opacity="0.7721353" stroke="rgb(224, 148, 224)" stroke-opacity="1.0" stroke-linecap="round" stroke-linejoin="round" d="M 295.2282409667969 215.0693359375 C 291.6014404296875 212.73150634765625 285.8959655761719 232.80165100097656 308.33056640625 211.14846801757812 C 308.3661804199219 194.68736267089844 281.6089172363281 204.41111755371094 289.7527770996094 199.53981018066406 C 294.900146484375 181.82321166992188 278.12091064453125 207.66952514648438 283.8199157714844 198.47035217285156 C 292.4649658203125 205.1387481689453 294.19244384765625 193.9283905029297 295.2282409667969 215.0693359375"/>
    <path stroke-width="0" fill="rgb(48, 121, 76)" opacity="0.10221932" stroke="rgb(108, 154, 4)" stroke-opacity="1.0" stroke-linecap="round" stroke-linejoin="round" d="M 236.32748413085938 422.56842041015625 C 238.53009033203125 393.1397399902344 208.74383544921875 424.5584716796875 279.4293518066406 417.77984619140625 C 250.865966796875 415.01800537109375 281.49285888671875 429.8023681640625 269.7231140136719 378.0565490722656 C 265.144775390625 426.18603515625 255.708740234375 406.9380798339844 265.02972412109375 413.5415954589844 C 211.75164794921875 414.2431640625 259.55889892578125 395.83160400390625 236.32748413085938 422.56842041015625"/>
    <path stroke-width="0" fill="rgb(81, 69, 217)" opacity="-0.008168838" stroke="rgb(168, 73, 157)" stroke-opacity="1.0" stroke-linecap="round" stroke-linejoin="round" d="M 139.35919189453125 373.07421875 C 189.01959228515625 387.2324523925781 141.12716674804688 380.3586730957031 162.11761474609375 381.02142333984375 C 166.5983428955078 392.4073791503906 164.12881469726562 395.76043701171875 169.07431030273438 351.1449279785156 C 160.09336853027344 370.6189270019531 157.78065490722656 347.48309326171875 158.64544677734375 359.0508728027344 C 173.21495056152344 371.1757507324219 173.87232971191406 383.70458984375 139.35919189453125 373.07421875"/>
    <path stroke-width="0" fill="rgb(145, 58, -63)" opacity="-0.04673026" stroke="rgb(34, 76, 145)" stroke-opacity="1.0" stroke-linecap="round" stroke-linejoin="round" d="M 224.5125274658203 129.23231506347656 C 200.8034210205078 108.33838653564453 212.97885131835938 92.00607299804688 220.43373107910156 110.08245086669922 C 199.64895629882812 65.64311981201172 222.5174102783203 74.17575073242188 196.40892028808594 100.79463958740234 C 188.244140625 148.8396453857422 193.73907470703125 74.80677795410156 238.06773376464844 107.95145416259766 C 243.2554473876953 71.43177795410156 175.31739807128906 84.20539855957031 224.5125274658203 129.23231506347656"/>
    <path stroke-width="0" fill="rgb(287, 44, -28)" opacity="0.24583666" stroke="rgb(146, 166, 166)" stroke-opacity="1.0" stroke-linecap="round" stroke-linejoin="round" d="M 166.0135955810547 204.4998779296875 C 164.80160522460938 197.9032745361328 164.18800354003906 198.3115692138672 165.3197479248047 182.9950714111328 C 161.77078247070312 204.5907745361328 168.68336486816406 145.8563232421875 175.03077697753906 180.11923217773438 C 167.5684814453125 194.11337280273438 171.17837524414062 191.85299682617188 171.72671508789062 199.7276611328125 C 172.09201049804688 198.81930541992188 168.37677001953125 206.65362548828125 166.0135955810547 204.4998779296875"/>
    <path stroke-width="0" fill="rgb(269, 39, -159)" opacity="0.63288766" stroke="rgb(228, 93, 111)" stroke-opacity="1.0" stroke-linecap="round" stroke-linejoin="round" d="M 235.42025756835938 128.2625732421875 C 236.68460083007812 96.371337890625 228.80191040039062 62.467342376708984 227.89236450195312 84.06017303466797 C 225.31460571289062 119.48099517822266 227.71578979492188 148.1520538330078 212.52662658691406 100.51334381103516 C 242.7739715576172 86.317626953125 297.725830078125 148.14688110351562 268.5603942871094 122.6387939453125 C 229.10914611816406 103.75349426269531 244.80723571777344 95.85041046142578 235.42025756835938 128.2625732421875"/>
    <path stroke-width="0" fill="rgb(248, 190, 124)" opacity="0.39498666" stroke="rgb(205, 179, 25)" stroke-opacity="1.0" stroke-linecap="round" stroke-linejoin="round" d="M 199.2886199951172 100.47626495361328 C 229.33074951171875 80.6373062133789 177.76348876953125 121.97577667236328 214.00027465820312 105.51649475097656 C 244.3291778564453 112.63653564453125 219.6514434814453 57.1743278503418 205.62159729003906 95.5162353515625 C 179.92587280273438 82.27998352050781 224.71885681152344 93.78927612304688 215.83718872070312 116.09154510498047 C 261.6785888671875 83.2734375 217.00454711914062 102.54944610595703 199.2886199951172 100.47626495361328"/>
    <path stroke-width="0" fill="rgb(191, 145, 98)" opacity="-0.031715974" stroke="rgb(205, 145, 103)" stroke-opacity="1.0" stroke-linecap="round" stroke-linejoin="round" d="M 281.1356506347656 148.04171752929688 C 284.9493713378906 120.22734832763672 279.9222717285156 140.91134643554688 285.73577880859375 131.87448120117188 C 284.6547546386719 154.57373046875 276.641845703125 143.8513946533203 292.23095703125 152.25035095214844 C 293.06085205078125 149.09555053710938 275.674072265625 120.53665924072266 287.8018493652344 148.53347778320312 C 279.70086669921875 128.5460968017578 284.39630126953125 139.07818603515625 281.1356506347656 148.04171752929688"/>
    <path stroke-width="0" fill="rgb(129, 105, 168)" opacity="0.051736794" stroke="rgb(177, 115, 184)" stroke-opacity="1.0" stroke-linecap="round" stroke-linejoin="round" d="M 161.6035919189453 186.7469024658203 C 165.1952362060547 204.5401153564453 164.09335327148438 205.94773864746094 166.0478515625 200.5123291015625 C 164.1102294921875 213.63076782226562 153.88514709472656 218.28598022460938 159.2978057861328 225.9329833984375 C 161.72457885742188 203.4768829345703 164.8026885986328 205.7532196044922 156.21536254882812 209.9686737060547 C 171.44378662109375 203.1483612060547 166.6677703857422 203.72674560546875 161.6035919189453 186.7469024658203"/>
    <path stroke-width="0" fill="rgb(257, 91, 167)" opacity="0.87792087" stroke="rgb(248, 218, 2)" stroke-opacity="1.0" stroke-linecap="round" stroke-linejoin="round" d="M 283.9949035644531 240.392578125 C 317.720947265625 207.061279296875 324.7851867675781 226.95770263671875 251.04055786132812 234.96800231933594 C 259.97174072265625 234.91207885742188 242.37814331054688 228.40414428710938 264.99029541015625 234.1917266845703 C 279.0686950683594 219.3063201904297 280.9223937988281 254.51705932617188 259.55718994140625 240.28074645996094 C 230.05441284179688 205.97018432617188 273.1873779296875 208.32090759277344 283.9949035644531 240.392578125"/>
    <path stroke-width="0" fill="rgb(-52, 101, 193)" opacity="0.6496663" stroke="rgb(186, 43, 132)" stroke-opacity="1.0" stroke-linecap="round" stroke-linejoin="round" d="M 212.56849670410156 202.50613403320312 C 224.10511779785156 190.32809448242188 220.99273681640625 221.8112335205078 223.2272491455078 215.85067749023438 C 250.2302703857422 226.81028747558594 260.0840759277344 201.4349822998047 237.82310485839844 222.92764282226562 C 237.19036865234375 203.32232666015625 239.583984375 198.2668914794922 224.00244140625 196.95016479492188 C 202.38897705078125 223.1666717529297 241.24478149414062 235.3455047607422 212.56849670410156 202.50613403320312"/>
    <path stroke-width="0" fill="rgb(283, 20, -12)" opacity="0.9149518" stroke="rgb(88, 236, 179)" stroke-opacity="1.0" stroke-linecap="round" stroke-linejoin="round" d="M 280.96942138671875 267.02410888671875 C 276.7109680175781 229.84703063964844 292.3990478515625 234.0300750732422 308.99798583984375 252.5835418701172 C 295.01318359375 255.3665008544922 286.943603515625 259.06378173828125 302.7668762207031 254.4736328125 C 327.1065979003906 255.15240478515625 343.229736328125 269.07708740234375 292.6164855957031 272.351318359375 C 314.989990234375 264.06591796875 307.93280029296875 340.0273742675781 280.96942138671875 267.02410888671875"/>
    <path stroke-width="0" fill="rgb(-31, -38, 67)" opacity="0.81328195" stroke="rgb(41, 158, 147)" stroke-opacity="1.0" stroke-linecap="round" stroke-linejoin="round" d="M 227.63401794433594 202.7413787841797 C 226.7085418701172 211.2180633544922 225.3812255859375 203.31378173828125 274.7471618652344 229.25914001464844 C 269.56494140625 207.8961944580078 218.1461944580078 207.2663116455078 250.57737731933594 221.40171813964844 C 224.3970947265625 202.96612548828125 260.7929382324219 205.72409057617188 246.4677734375 215.38243103027344 C 243.67599487304688 213.583984375 245.77020263671875 196.74415588378906 227.63401794433594 202.7413787841797"/>
    <path stroke-width="0" fill="rgb(-57, -3, -2)" opacity="1.0402331" stroke="rgb(238, 156, 136)" stroke-opacity="1.0" stroke-linecap="round" stroke-linejoin="round" d="M 300.8575439453125 196.45278930664062 C 288.2681884765625 183.58132934570312 270.48876953125 168.48297119140625 288.55377197265625 167.15829467773438 C 291.93951416015625 166.20933532714844 287.7493896484375 163.6571502685547 289.67138671875 168.05130004882812 C 280.72979736328125 187.8547821044922 283.8738708496094 179.6544189453125 308.54473876953125 205.9431610107422 C 282.0114440917969 177.07455444335938 284.6500244140625 179.3602294921875 300.8575439453125 196.45278930664062"/>
    <path stroke-width="0" fill="rgb(286, 73, 104)" opacity="0.061058603" stroke="rgb(186, 79, 101)" stroke-opacity="1.0" stroke-linecap="round" stroke-linejoin="round" d="M 158.80230712890625 213.1830291748047 C 157.7816162109375 210.34573364257812 161.79742431640625 215.38412475585938 165.5227508544922 205.58494567871094 C 158.50247192382812 212.25381469726562 172.10305786132812 169.04312133789062 157.96429443359375 246.3139190673828 C 151.77716064453125 231.32936096191406 155.73056030273438 219.1750030517578 158.408447265625 225.9641571044922 C 162.36029052734375 208.15394592285156 156.47023010253906 227.86175537109375 158.80230712890625 213.1830291748047"/>
    <path stroke-width="0" fill="rgb(199, 100, 104)" opacity="0.05410863" stroke="rgb(57, 64, 14)" stroke-opacity="1.0" stroke-linecap="round" stroke-linejoin="round" d="M 153.4145965576172 256.4063720703125 C 155.3437957763672 266.9178771972656 157.31993103027344 276.5711975097656 156.0656280517578 246.70753479003906 C 169.9918975830078 207.88284301757812 150.27667236328125 204.36090087890625 154.0601043701172 300.1931457519531 C 163.65652465820312 310.08880615234375 159.39466857910156 301.07086181640625 160.61297607421875 242.42665100097656 C 157.66171264648438 290.22564697265625 154.99073791503906 269.6065368652344 153.4145965576172 256.4063720703125"/>
    <path stroke-width="0" fill="rgb(285, 262, 251)" opacity="0.9671477" stroke="rgb(6, 17, 173)" stroke-opacity="1.0" stroke-linecap="round" stroke-linejoin="round" d="M 348.7028503417969 375.680908203125 C 349.03759765625 409.72198486328125 376.23309326171875 354.19549560546875 345.91497802734375 362.92645263671875 C 365.718994140625 324.93572998046875 309.6110534667969 372.0386962890625 318.7267150878906 346.82672119140625 C 283.34130859375 294.1513671875 353.737060546875 295.1229553222656 352.0084533691406 347.7515869140625 C 303.08123779296875 346.6424560546875 328.5777587890625 365.19342041015625 348.7028503417969 375.680908203125"/>
    <path stroke-width="0" fill="rgb(276, 54, -162)" opacity="0.64735377" stroke="rgb(136, 228, 252)" stroke-opacity="1.0" stroke-linecap="round" stroke-linejoin="round" d="M 313.9936218261719 261.9354248046875 C 399.8681640625 331.12115478515625 384.63494873046875 297.29833984375 357.25445556640625 287.3117980957031 C 336.4518737792969 290.4128723144531 346.8713073730469 287.4482727050781 353.3002014160156 292.5633239746094 C 356.3751525878906 405.0305480957031 362.34234619140625 374.2803039550781 355.4860534667969 308.8175964355469 C 345.9871520996094 305.2887268066406 353.8968200683594 267.6180725097656 313.9936218261719 261.9354248046875"/>
    <path stroke-width="0" fill="rgb(-17, -5, 8)" opacity="0.9031061" stroke="rgb(81, 97, 150)" stroke-opacity="1.0" stroke-linecap="round" stroke-linejoin="round" d="M 252.44122314453125 214.40504455566406 C 243.27391052246094 194.4535369873047 213.51773071289062 208.9613037109375 260.5559997558594 235.5259246826172 C 245.18223571777344 223.53631591796875 222.48680114746094 217.24095153808594 257.5956115722656 235.6545867919922 C 269.1815490722656 252.37521362304688 276.7291564941406 250.2960968017578 263.76025390625 248.40234375 C 259.1111145019531 225.27774047851562 257.2554626464844 229.4259033203125 252.44122314453125 214.40504455566406"/>
    <path stroke-width="0" fill="rgb(292, 284, 245)" opacity="0.90458876" stroke="rgb(160, 222, 69)" stroke-opacity="1.0" stroke-linecap="round" stroke-linejoin="round" d="M 188.14491271972656 377.1201171875 C 196.28421020507812 386.3907775878906 168.9566650390625 422.51373291015625 166.1154022216797 378.47686767578125 C 162.66705322265625 387.25872802734375 173.30149841308594 394.6496887207031 160.43663024902344 398.862060546875 C 177.7672119140625 355.9683837890625 163.38134765625 345.0482482910156 170.44976806640625 349.2559509277344 C 159.60865783691406 349.15423583984375 186.33489990234375 311.6435546875 188.14491271972656 377.1201171875"/>
    <path stroke-width="0" fill="rgb(-11, 97, 194)" opacity="1.0066819" stroke="rgb(47, 242, 175)" stroke-opacity="1.0" stroke-linecap="round" stroke-linejoin="round" d="M 322.3027038574219 355.6763916015625 C 330.6318359375 372.2728271484375 320.7844543457031 356.8990173339844 319.4442138671875 348.401123046875 C 319.7588195800781 335.9078063964844 278.427734375 306.7659912109375 308.7502746582031 364.5433349609375 C 338.6258850097656 382.39495849609375 319.3901672363281 336.2355041503906 285.3842468261719 315.99261474609375 C 325.47491455078125 341.2818908691406 299.5514221191406 326.5144958496094 322.3027038574219 355.6763916015625"/>
    <path stroke-width="0" fill="rgb(308, 8, -69)" opacity="0.85947186" stroke="rgb(241, 186, 64)" stroke-opacity="1.0" stroke-linecap="round" stroke-linejoin="round" d="M 283.9833679199219 259.070068359375 C 275.5285339355469 212.89097595214844 284.2259826660156 239.42544555664062 307.0204162597656 244.0486602783203 C 320.5099182128906 240.42308044433594 307.1582336425781 240.00936889648438 321.2029113769531 253.53211975097656 C 332.044921875 258.19744873046875 380.9494323730469 331.10797119140625 321.7459411621094 260.7469177246094 C 316.0991516113281 259.3265380859375 309.8608703613281 237.29928588867188 283.9833679199219 259.070068359375"/>
    <path stroke-width="0" fill="rgb(-31, 34, -58)" opacity="0.44526273" stroke="rgb(132, 6, 52)" stroke-opacity="1.0" stroke-linecap="round" stroke-linejoin="round" d="M 203.6369171142578 84.98517608642578 C 205.8370819091797 100.09732818603516 194.4576416015625 80.93824005126953 193.0400848388672 94.85123443603516 C 197.3205108642578 90.07041931152344 219.0496368408203 62.9576301574707 190.59237670898438 123.50462341308594 C 221.7538299560547 66.3534164428711 214.6531219482422 53.811988830566406 228.80413818359375 70.58236694335938 C 217.82467651367188 51.00978088378906 194.9241485595703 88.98220825195312 203.6369171142578 84.98517608642578"/>
    <path stroke-width="0" fill="rgb(51, 28, -59)" opacity="0.7731957" stroke="rgb(182, 100, 144)" stroke-opacity="1.0" stroke-linecap="round" stroke-linejoin="round" d="M 301.5362548828125 207.79669189453125 C 300.83404541015625 193.94956970214844 308.21099853515625 219.65122985839844 297.73016357421875 222.39593505859375 C 306.0875549316406 197.7631378173828 325.7855529785156 209.59982299804688 287.1351318359375 217.20297241210938 C 292.77252197265625 215.75927734375 326.63232421875 231.15797424316406 258.075927734375 222.5701446533203 C 279.56298828125 214.27194213867188 312.44647216796875 221.08677673339844 301.5362548828125 207.79669189453125"/>
    <path stroke-width="0" fill="rgb(31, 68, 153)" opacity="0.19449426" stroke="rgb(140, 149, 245)" stroke-opacity="1.0" stroke-linecap="round" stroke-linejoin="round" d="M 211.4835968017578 78.21356201171875 C 224.25270080566406 91.1155776977539 203.0814666748047 96.16964721679688 210.9170684814453 114.48558807373047 C 235.56463623046875 71.26970672607422 214.45199584960938 77.2469482421875 185.53146362304688 87.08715057373047 C 198.456298828125 79.51615905761719 173.2779541015625 96.57466125488281 189.1182861328125 83.74348449707031 C 223.4300537109375 75.14002227783203 246.70880126953125 77.12110900878906 211.4835968017578 78.21356201171875"/>
    <path stroke-width="0" fill="rgb(265, 73, -43)" opacity="1.0050154" stroke="rgb(86, 245, 59)" stroke-opacity="1.0" stroke-linecap="round" stroke-linejoin="round" d="M 270.67706298828125 318.1626892089844 C 280.0003967285156 321.2107238769531 283.69110107421875 346.5498352050781 340.4659118652344 271.1964111328125 C 271.8177795410156 190.03347778320312 279.3247985839844 309.06890869140625 309.0177917480469 288.9936218261719 C 292.38671875 345.6988830566406 250.07794189453125 313.121337890625 285.8419494628906 289.812744140625 C 330.61676025390625 282.9383239746094 284.2177429199219 343.27587890625 270.67706298828125 318.1626892089844"/>
    <path stroke-width="0" fill="rgb(246, 249, 248)" opacity="-0.061174337" stroke="rgb(240, 203, 160)" stroke-opacity="1.0" stroke-linecap="round" stroke-linejoin="round" d="M 255.08799743652344 196.450927734375 C 258.6949768066406 205.77960205078125 267.6961364746094 213.5241241455078 299.32904052734375 232.9807891845703 C 300.60595703125 216.23196411132812 305.8082275390625 216.7698211669922 306.29254150390625 210.54800415039062 C 311.9827575683594 255.37167358398438 273.4232482910156 228.9438934326172 289.6702880859375 228.3244171142578 C 247.20387268066406 208.71145629882812 254.92640686035156 232.05381774902344 255.08799743652344 196.450927734375"/>
    <path stroke-width="0" fill="rgb(197, 220, -40)" opacity="0.5399615" stroke="rgb(88, 37, 250)" stroke-opacity="1.0" stroke-linecap="round" stroke-linejoin="round" d="M 266.94970703125 362.96136474609375 C 284.45086669921875 303.4468078613281 270.3638000488281 322.2432861328125 281.4745178222656 327.25323486328125 C 286.0772705078125 318.6389465332031 286.3429870605469 247.65957641601562 265.37469482421875 316.5061340332031 C 293.0319519042969 339.51275634765625 291.87109375 306.5971984863281 315.3891906738281 309.9856262207031 C 253.90789794921875 303.7656555175781 284.6627197265625 391.3702697753906 266.94970703125 362.96136474609375"/>
    <path stroke-width="0" fill="rgb(-30, 75, 162)" opacity="0.0909394" stroke="rgb(126, 163, 93)" stroke-opacity="1.0" stroke-linecap="round" stroke-linejoin="round" d="M 205.18533325195312 79.1411361694336 C 212.5630645751953 68.25679016113281 215.18728637695312 71.80601501464844 214.1462860107422 68.48059844970703 C 213.42068481445312 70.74531555175781 216.07879638671875 38.92575454711914 211.97137451171875 70.67562103271484 C 206.71591186523438 70.65164947509766 227.853515625 61.39910125732422 230.80067443847656 63.065284729003906 C 197.07028198242188 57.411590576171875 213.88201904296875 75.53510284423828 205.18533325195312 79.1411361694336"/>
    <path stroke-width="0" fill="rgb(-31, 102, 141)" opacity="0.18115848" stroke="rgb(209, 48, 130)" stroke-opacity="1.0" stroke-linecap="round" stroke-linejoin="round" d="M 218.1815185546875 46.85559844970703 C 189.44615173339844 48.046356201171875 186.52015686035156 37.77449035644531 190.74441528320312 62.034969329833984 C 154.2724609375 89.79126739501953 157.44070434570312 101.90426635742188 183.09043884277344 106.32826232910156 C 218.80015563964844 71.43852233886719 191.42251586914062 18.949495315551758 176.5626983642578 34.10395050048828 C 147.73663330078125 79.54280090332031 184.58175659179688 68.82759094238281 218.1815185546875 46.85559844970703"/>
    <path stroke-width="0" fill="rgb(287, 237, 183)" opacity="1.0674329" stroke="rgb(24, 219, 248)" stroke-opacity="1.0" stroke-linecap="round" stroke-linejoin="round" d="M 234.12197875976562 120.14401245117188 C 218.83042907714844 84.55221557617188 212.36468505859375 75.3194580078125 219.96328735351562 93.03579711914062 C 201.63470458984375 69.7140884399414 229.756591796875 75.46385955810547 230.838623046875 82.46097564697266 C 234.7720489501953 91.8873062133789 234.16278076171875 85.41423034667969 232.39344787597656 77.4917221069336 C 216.9082794189453 83.4625244140625 242.77110290527344 80.45767211914062 234.12197875976562 120.14401245117188"/>
    <path stroke-width="0" fill="rgb(344, 45, -98)" opacity="0.7635975" stroke="rgb(103, 59, 33)" stroke-opacity="1.0" stroke-linecap="round" stroke-linejoin="round" d="M 226.702392578125 64.67415618896484 C 202.79660034179688 65.01294708251953 211.82183837890625 84.2701644897461 233.207275390625 94.17280578613281 C 240.3883056640625 121.44044494628906 239.89910888671875 134.4912872314453 226.87484741210938 124.92628479003906 C 245.99668884277344 120.10477447509766 241.4613800048828 78.09881591796875 212.47767639160156 96.9713134765625 C 214.741455078125 74.79546356201172 224.36402893066406 79.12128448486328 226.702392578125 64.67415618896484"/>
    <path stroke-width="0" fill="rgb(273, 159, -16)" opacity="0.41044965" stroke="rgb(185, 2, 196)" stroke-opacity="1.0" stroke-linecap="round" stroke-linejoin="round" d="M 187.3433074951172 102.98822784423828 C 198.2880401611328 83.38489532470703 190.48326110839844 112.49658966064453 211.24954223632812 85.43148040771484 C 204.2602081298828 174.50648498535156 210.32052612304688 75.56907653808594 204.92092895507812 98.44678497314453 C 210.92909240722656 92.50655364990234 184.51516723632812 109.83158874511719 184.16741943359375 105.98738861083984 C 205.6746826171875 116.57218170166016 199.8053741455078 86.10598754882812 187.3433074951172 102.98822784423828"/>
    <path stroke-width="0" fill="rgb(-43, 104, 151)" opacity="0.31689838" stroke="rgb(66, 116, 174)" stroke-opacity="1.0" stroke-linecap="round" stroke-linejoin="round" d="M 181.77125549316406 91.06104278564453 C 178.70022583007812 83.15924835205078 192.90516662597656 158.19847106933594 167.25442504882812 109.44696044921875 C 161.55921936035156 116.01182556152344 140.54444885253906 120.08230590820312 156.64190673828125 102.0490951538086 C 170.8792266845703 103.38667297363281 171.04788208007812 103.85972595214844 165.5569610595703 65.57901763916016 C 190.22348022460938 111.50186920166016 177.70216369628906 110.21385955810547 181.77125549316406 91.06104278564453"/>
    <path stroke-width="0" fill="rgb(122, 123, 92)" opacity="1.0256934" stroke="rgb(72, 96, 46)" stroke-opacity="1.0" stroke-linecap="round" stroke-linejoin="round" d="M 233.6510772705078 88.96019744873047 C 217.3767547607422 75.8510971069336 243.2950897216797 97.60468292236328 224.05445861816406 70.20204162597656 C 235.3512420654297 80.75619506835938 226.98345947265625 135.72091674804688 216.31939697265625 103.56568908691406 C 197.5449981689453 97.6292724609375 226.73681640625 75.77373504638672 212.84315490722656 86.1517562866211 C 226.5926055908203 73.87153625488281 235.43016052246094 91.43329620361328 233.6510772705078 88.96019744873047"/>
    <path stroke-width="0" fill="rgb(22, 64, 177)" opacity="0.23695669" stroke="rgb(147, 244, 164)" stroke-opacity="1.0" stroke-linecap="round" stroke-linejoin="round" d="M 218.43931579589844 73.11551666259766 C 181.55250549316406 67.96173858642578 214.6324920654297 79.06753540039062 188.092041015625 101.29167175292969 C 172.9372100830078 168.3603973388672 110.5341796875 268.6039123535156 -49.706642150878906 112.647705078125 C 184.4169158935547 0.6884568929672241 167.00511169433594 66.86007690429688 227.9110565185547 75.32555389404297 C 231.21287536621094 69.06571960449219 217.4177703857422 75.08088684082031 218.43931579589844 73.11551666259766"/>
    <path stroke-width="0" fill="rgb(-21, 92, 161)" opacity="0.7113477" stroke="rgb(109, 130, 136)" stroke-opacity="1.0" stroke-linecap="round" stroke-linejoin="round" d="M 194.33055114746094 93.21575927734375 C 191.79287719726562 84.6946029663086 166.4350128173828 83.12470245361328 169.7339324951172 98.5458755493164 C 183.14044189453125 117.71605682373047 155.30624389648438 125.83738708496094 171.60443115234375 83.89167785644531 C 157.04115295410156 81.17411041259766 176.02796936035156 81.26045989990234 164.1063995361328 85.17375183105469 C 175.22608947753906 102.68123626708984 183.85780334472656 124.75215911865234 194.33055114746094 93.21575927734375"/>
    <path stroke-width="0" fill="rgb(11, 73, 215)" opacity="0.20291385" stroke="rgb(70, 32, 100)" stroke-opacity="1.0" stroke-linecap="round" stroke-linejoin="round" d="M 288.57464599609375 118.99885559082031 C 295.1335144042969 118.91490936279297 276.6004943847656 129.7187957763672 300.98486328125 130.7169189453125 C 280.81658935546875 114.53536224365234 301.7790222167969 113.25874328613281 300.8694763183594 136.53404235839844 C 305.4626770019531 121.95586395263672 311.7626647949219 102.65167999267578 324.447021484375 98.32344818115234 C 312.7510681152344 96.37427520751953 318.54388427734375 95.68708038330078 288.57464599609375 118.99885559082031"/>
    <path stroke-width="0" fill="rgb(280, 72, -61)" opacity="1.1359732" stroke="rgb(47, 230, 138)" stroke-opacity="1.0" stroke-linecap="round" stroke-linejoin="round" d="M 283.5889587402344 316.282470703125 C 291.18585205078125 324.5338134765625 283.4546813964844 290.1130065917969 287.8046569824219 314.75836181640625 C 307.9437561035156 308.1748352050781 277.7663269042969 325.7550048828125 293.6468505859375 283.2717590332031 C 280.0245361328125 237.11447143554688 283.92669677734375 254.48825073242188 275.39068603515625 324.18682861328125 C 276.3053894042969 321.4150695800781 278.85711669921875 306.37969970703125 283.5889587402344 316.282470703125"/>
    <path stroke-width="0" fill="rgb(362, 229, 53)" opacity="0.6088526" stroke="rgb(224, 116, 184)" stroke-opacity="1.0" stroke-linecap="round" stroke-linejoin="round" d="M 301.019775390625 101.6935043334961 C 302.9664001464844 111.97215270996094 317.5535888671875 78.66666412353516 292.8163146972656 119.95152282714844 C 286.5019226074219 128.23118591308594 294.49884033203125 99.14035034179688 290.8492431640625 117.82644653320312 C 291.56878662109375 142.6612091064453 276.9181823730469 124.93883514404297 280.9250793457031 131.8788604736328 C 283.0646667480469 120.58500671386719 278.8636169433594 110.183349609375 301.019775390625 101.6935043334961"/>
    <path stroke-width="0" fill="rgb(301, 134, -100)" opacity="0.5324584" stroke="rgb(230, 175, 178)" stroke-opacity="1.0" stroke-linecap="round" stroke-linejoin="round" d="M 294.8939208984375 90.92861938476562 C 299.69464111328125 115.31609344482422 279.3306884765625 120.07537078857422 276.62603759765625 132.03866577148438 C 300.5838317871094 126.00943756103516 274.85650634765625 109.58904266357422 280.46502685546875 138.02685546875 C 313.1321716308594 88.68895721435547 284.1145935058594 97.45374298095703 290.7122802734375 120.79045867919922 C 261.08953857421875 87.46663665771484 280.74969482421875 110.80136108398438 294.8939208984375 90.92861938476562"/>
    <path stroke-width="0" fill="rgb(314, 215, 80)" opacity="0.52980113" stroke="rgb(203, 244, 116)" stroke-opacity="1.0" stroke-linecap="round" stroke-linejoin="round" d="M 275.5552673339844 132.55230712890625 C 286.7645263671875 110.30216217041016 294.5843505859375 91.71615600585938 287.0418395996094 128.25204467773438 C 313.30242919921875 89.276123046875 285.9725036621094 112.11701202392578 290.60809326171875 113.53477478027344 C 296.9855041503906 110.17875671386719 279.2961120605469 127.47470092773438 304.0394592285156 103.93311309814453 C 286.2030944824219 122.79607391357422 294.40966796875 116.31950378417969 275.5552673339844 132.55230712890625"/>
    <path stroke-width="0" fill="rgb(260, 93, -54)" opacity="0.38327864" stroke="rgb(65, 216, 8)" stroke-opacity="1.0" stroke-linecap="round" stroke-linejoin="round" d="M 285.972412109375 109.02938842773438 C 273.5297546386719 129.25843811035156 280.684326171875 148.0546112060547 281.10552978515625 126.4111328125 C 279.8760681152344 133.76150512695312 290.3699035644531 125.75702667236328 281.62908935546875 172.5474090576172 C 278.4157409667969 156.96200561523438 291.5142517089844 152.60353088378906 261.1605224609375 165.35269165039062 C 272.22552490234375 133.28099060058594 264.6532287597656 146.13003540039062 285.972412109375 109.02938842773438"/>
    <path stroke-width="0" fill="rgb(-68, 9, 88)" opacity="0.9658742" stroke="rgb(90, 90, 4)" stroke-opacity="1.0" stroke-linecap="round" stroke-linejoin="round" d="M 275.9373474121094 329.6287841796875 C 278.1737365722656 342.6455078125 273.93896484375 341.95269775390625 271.6651916503906 344.262451171875 C 274.1970520019531 326.6018371582031 259.4599304199219 320.7117614746094 289.3244323730469 365.7662048339844 C 262.1707763671875 390.3898620605469 279.1313171386719 349.7844543457031 279.23504638671875 302.1649475097656 C 272.71221923828125 363.2320861816406 275.3545227050781 333.08563232421875 275.9373474121094 329.6287841796875"/>
    <path stroke-width="0" fill="rgb(331, 65, -71)" opacity="0.6786038" stroke="rgb(221, 115, 83)" stroke-opacity="1.0" stroke-linecap="round" stroke-linejoin="round" d="M 306.33331298828125 234.908447265625 C 306.8607177734375 188.93255615234375 309.9612121582031 212.1124267578125 296.8429870605469 240.06686401367188 C 274.77081298828125 185.8358612060547 269.8968811035156 155.95457458496094 276.9964294433594 172.72305297851562 C 268.25091552734375 138.2083740234375 267.54473876953125 140.7259979248047 260.5301818847656 182.41868591308594 C 280.9659118652344 166.42864990234375 294.42926025390625 182.36944580078125 306.33331298828125 234.908447265625"/>
    <path stroke-width="0" fill="rgb(-45, 97, 151)" opacity="0.07371896" stroke="rgb(17, 64, 56)" stroke-opacity="1.0" stroke-linecap="round" stroke-linejoin="round" d="M 176.438720703125 129.80224609375 C 172.2754669189453 120.3409423828125 161.17308044433594 127.6964340209961 166.86973571777344 175.05772399902344 C 173.72584533691406 174.6092987060547 166.71385192871094 155.34957885742188 148.73867797851562 154.74490356445312 C 167.57647705078125 156.73426818847656 179.31724548339844 121.32406616210938 132.87806701660156 128.978759765625 C 158.03317260742188 148.25860595703125 183.56776428222656 151.402587890625 176.438720703125 129.80224609375"/>
    <path stroke-width="0" fill="rgb(292, 268, -25)" opacity="0.26233086" stroke="rgb(33, 3, 29)" stroke-opacity="1.0" stroke-linecap="round" stroke-linejoin="round" d="M 207.03411865234375 139.93797302246094 C 206.82398986816406 136.0248565673828 204.21815490722656 156.4254913330078 184.87579345703125 167.1782989501953 C 211.0097198486328 137.53219604492188 202.31748962402344 118.4383773803711 183.84262084960938 120.39459228515625 C 170.5877227783203 149.0026397705078 191.72381591796875 149.8818817138672 181.9308319091797 176.24925231933594 C 182.12969970703125 181.73788452148438 181.91238403320312 167.8552703857422 207.03411865234375 139.93797302246094"/>
    <path stroke-width="0" fill="rgb(-42, -38, 5)" opacity="0.9962008" stroke="rgb(162, 125, 252)" stroke-opacity="1.0" stroke-linecap="round" stroke-linejoin="round" d="M 289.0726623535156 217.7611083984375 C 301.199462890625 262.781494140625 286.00286865234375 205.44700622558594 309.8762512207031 243.8229522705078 C 289.079833984375 220.449951171875 297.4580383300781 216.5327606201172 302.5043029785156 235.04249572753906 C 297.4964599609375 185.99270629882812 281.8835754394531 207.5969696044922 283.6223449707031 206.90866088867188 C 286.3059387207031 230.97608947753906 308.4575500488281 262.46282958984375 289.0726623535156 217.7611083984375"/>
    <path stroke-width="0" fill="rgb(98, 116, 123)" opacity="0.7914742" stroke="rgb(199, 73, 61)" stroke-opacity="1.0" stroke-linecap="round" stroke-linejoin="round" d="M 313.4439392089844 217.07508850097656 C 298.66796875 217.49598693847656 290.4329833984375 219.20074462890625 311.2638854980469 237.21449279785156 C 298.9399719238281 227.23390197753906 303.8462219238281 213.8612518310547 284.168212890625 229.7403564453125 C 304.3304443359375 243.8289031982422 312.6476135253906 231.47930908203125 294.07037353515625 227.61941528320312 C 294.9602355957031 226.18966674804688 314.9573059082031 205.70997619628906 313.4439392089844 217.07508850097656"/>
    <path stroke-width="0" fill="rgb(119, 227, 112)" opacity="0.40631112" stroke="rgb(91, 211, 235)" stroke-opacity="1.0" stroke-linecap="round" stroke-linejoin="round" d="M 279.1108703613281 199.36343383789062 C 281.9861755371094 202.81483459472656 316.0206604003906 190.5668487548828 297.8132019042969 240.3137969970703 C 302.18988037109375 233.68284606933594 335.78485107421875 216.8541259765625 277.1537170410156 223.54132080078125 C 316.22210693359375 218.69239807128906 324.584228515625 216.76161193847656 324.49237060546875 217.5115203857422 C 317.4180603027344 205.0839385986328 286.5408935546875 205.85635375976562 279.1108703613281 199.36343383789062"/>
    <path stroke-width="0" fill="rgb(271, 263, 271)" opacity="0.9978186" stroke="rgb(247, 230, 75)" stroke-opacity="1.0" stroke-linecap="round" stroke-linejoin="round" d="M 199.53501892089844 215.76461791992188 C 204.40992736816406 206.24078369140625 197.61764526367188 185.8584747314453 232.00320434570312 200.1910858154297 C 218.08506774902344 202.53692626953125 226.87548828125 207.68666076660156 239.98390197753906 222.02569580078125 C 231.59375 238.6592254638672 184.14097595214844 216.96731567382812 201.1776885986328 174.10923767089844 C 225.22703552246094 173.62814331054688 202.05718994140625 190.0721893310547 199.53501892089844 215.76461791992188"/>
    <path stroke-width="0" fill="rgb(139, 222, 343)" opacity="0.87301975" stroke="rgb(63, 27, 242)" stroke-opacity="1.0" stroke-linecap="round" stroke-linejoin="round" d="M 295.9745788574219 223.7272491455078 C 288.0174560546875 230.14776611328125 309.77752685546875 213.15328979492188 307.4101867675781 215.9691925048828 C 308.5805358886719 189.7368621826172 302.5411376953125 231.1403045654297 263.6791687011719 222.2467498779297 C 233.6935272216797 203.25831604003906 226.03872680664062 195.3018341064453 266.06317138671875 217.15826416015625 C 331.2204895019531 219.62213134765625 331.6126403808594 199.08506774902344 295.9745788574219 223.7272491455078"/>
    <path stroke-width="0" fill="rgb(-21, -40, -24)" opacity="0.7145292" stroke="rgb(69, 96, 95)" stroke-opacity="1.0" stroke-linecap="round" stroke-linejoin="round" d="M 311.8531799316406 206.200927734375 C 284.8122253417969 234.6996612548828 312.70904541015625 250.34176635742188 321.4546203613281 246.73153686523438 C 300.25860595703125 234.03907775878906 288.5252380371094 236.59588623046875 301.1575012207031 223.62661743164062 C 306.43743896484375 243.43865966796875 302.3607177734375 231.0701446533203 287.9051818847656 204.591552734375 C 316.3519287109375 193.6392822265625 296.1398620605469 220.99020385742188 311.8531799316406 206.200927734375"/>
    <path stroke-width="0" fill="rgb(302, 169, -80)" opacity="0.78898877" stroke="rgb(213, 60, 128)" stroke-opacity="1.0" stroke-linecap="round" stroke-linejoin="round" d="M 215.31361389160156 76.95734405517578 C 249.83949279785156 72.35914611816406 230.09722900390625 108.7230453491211 227.98004150390625 91.13990020751953 C 220.01844787597656 75.1823501586914 198.3731689453125 92.24132537841797 222.0654296875 63.462730407714844 C 230.9954833984375 93.48152160644531 241.38743591308594 68.46756744384766 222.46324157714844 62.93682861328125 C 220.63040161132812 62.41817855834961 242.17897033691406 85.97089385986328 215.31361389160156 76.95734405517578"/>
    <path stroke-width="0" fill="rgb(235, 259, 129)" opacity="0.20060706" stroke="rgb(18, 74, 38)" stroke-opacity="1.0" stroke-linecap="round" stroke-linejoin="round" d="M 268.5113220214844 258.22833251953125 C 267.1324768066406 261.2430419921875 271.17816162109375 264.6263732910156 260.3079833984375 253.15475463867188 C 199.48590087890625 262.5737609863281 215.2152099609375 254.74212646484375 192.2943572998047 207.5823211669922 C 242.6035919189453 251.49740600585938 267.6493835449219 242.9775390625 219.157470703125 240.704345703125 C 202.3362579345703 256.5191345214844 250.0498504638672 255.26739501953125 268.5113220214844 258.22833251953125"/>
    <path stroke-width="0" fill="rgb(200, 124, 122)" opacity="0.2563244" stroke="rgb(33, 154, 97)" stroke-opacity="1.0" stroke-linecap="round" stroke-linejoin="round" d="M 223.56103515625 63.1640625 C 197.74659729003906 66.25173950195312 213.1859893798828 85.00672149658203 212.28701782226562 88.32221984863281 C 210.98561096191406 93.30066680908203 208.64505004882812 75.73391723632812 213.31605529785156 81.62139129638672 C 206.53489685058594 94.9576644897461 233.20518493652344 61.03164291381836 202.50909423828125 83.67261505126953 C 212.4560089111328 70.5503921508789 215.79522705078125 66.91249084472656 223.56103515625 63.1640625"/>
    <path stroke-width="0" fill="rgb(-24, 96, 133)" opacity="1.033726" stroke="rgb(246, 139, 70)" stroke-opacity="1.0" stroke-linecap="round" stroke-linejoin="round" d="M 309.29864501953125 238.7023468017578 C 289.5150146484375 236.27479553222656 269.8252258300781 227.38209533691406 326.2537536621094 234.7998504638672 C 314.5399475097656 236.22286987304688 298.64495849609375 225.54014587402344 278.479736328125 238.24859619140625 C 296.6564025878906 231.08067321777344 279.2475891113281 234.68443298339844 310.9197998046875 203.496337890625 C 268.0758972167969 169.6289520263672 334.88165283203125 202.53170776367188 309.29864501953125 238.7023468017578"/>
    <path stroke-width="0" fill="rgb(155, 101, 50)" opacity="0.09618156" stroke="rgb(228, 103, 140)" stroke-opacity="1.0" stroke-linecap="round" stroke-linejoin="round" d="M 218.8823699951172 95.55541229248047 C 218.66622924804688 74.54556274414062 221.99478149414062 76.44171142578125 223.9336700439453 93.67228698730469 C 200.8964385986328 64.5042495727539 199.84121704101562 68.74600982666016 213.1819610595703 66.47564697265625 C 211.12889099121094 62.95356369018555 208.7176971435547 70.87794494628906 208.507080078125 43.75312805175781 C 215.71957397460938 76.9923095703125 232.20538330078125 100.7020492553711 218.8823699951172 95.55541229248047"/>
    <path stroke-width="0" fill="rgb(-29, 89, 146)" opacity="0.96724224" stroke="rgb(116, 102, 63)" stroke-opacity="1.0" stroke-linecap="round" stroke-linejoin="round" d="M 327.81005859375 188.98556518554688 C 288.11517333984375 222.38906860351562 293.6265869140625 231.3310546875 309.3230285644531 223.36297607421875 C 294.654541015625 230.8656005859375 277.65423583984375 219.93296813964844 283.4936218261719 230.08444213867188 C 304.1233215332031 254.21975708007812 308.8334655761719 236.0232391357422 300.05633544921875 240.20457458496094 C 313.71514892578125 247.68710327148438 347.1361083984375 275.9807434082031 327.81005859375 188.98556518554688"/>
    <path stroke-width="0" fill="rgb(198, 22, 122)" opacity="0.61447877" stroke="rgb(79, 95, 133)" stroke-opacity="1.0" stroke-linecap="round" stroke-linejoin="round" d="M 234.26119995117188 95.66741943359375 C 252.7140350341797 98.61012268066406 257.476806640625 94.72010040283203 233.9864044189453 95.4968032836914 C 228.4105682373047 91.46084594726562 238.3482666015625 114.05867767333984 224.77732849121094 66.86767578125 C 245.57814025878906 96.86003875732422 232.98883056640625 101.36912536621094 235.80618286132812 97.7522201538086 C 230.06222534179688 88.30524444580078 244.3857421875 106.84249877929688 234.26119995117188 95.66741943359375"/>
    <path stroke-width="0" fill="rgb(29, 111, 104)" opacity="0.17204653" stroke="rgb(85, 235, 219)" stroke-opacity="1.0" stroke-linecap="round" stroke-linejoin="round" d="M 316.895263671875 250.0062713623047 C 314.5557861328125 241.40859985351562 303.7383117675781 241.4200897216797 352.8017578125 244.8944854736328 C 340.3599548339844 247.25344848632812 343.1777038574219 241.55953979492188 339.7730712890625 223.9486846923828 C 355.1258850097656 281.1005554199219 318.482177734375 273.6472473144531 335.99700927734375 239.58456420898438 C 302.9870910644531 241.0598907470703 362.7012023925781 265.5044250488281 316.895263671875 250.0062713623047"/>
    <path stroke-width="0" fill="rgb(310, 172, -24)" opacity="0.73000795" stroke="rgb(64, 113, 26)" stroke-opacity="1.0" stroke-linecap="round" stroke-linejoin="round" d="M 297.0971374511719 103.88228607177734 C 294.9971618652344 76.01126861572266 319.5411376953125 106.43848419189453 296.3403625488281 97.82211303710938 C 301.82098388671875 112.67799377441406 280.69464111328125 145.6223602294922 291.48797607421875 111.63621520996094 C 312.5438232421875 108.27404022216797 312.07794189453125 83.11399841308594 291.0542907714844 112.69518280029297 C 307.22528076171875 104.71630096435547 297.3798828125 101.16984558105469 297.0971374511719 103.88228607177734"/>
    <path stroke-width="0" fill="rgb(35, 94, 153)" opacity="4.746215e-05" stroke="rgb(0, 0, 0)" stroke-opacity="0.0" stroke-linecap="round" stroke-linejoin="round" d="M 128.57566833496094 19.4045467376709 C 129.8284454345703 23.340402603149414 130.76943969726562 25.653196334838867 122.78813934326172 24.01639747619629 C 125.05686950683594 26.30246925354004 124.48985290527344 27.24635124206543 124.74101257324219 12.210095405578613 C 120.04219818115234 15.134905815124512 130.44871520996094 16.32746124267578 124.8304443359375 14.517068862915039 C 124.69695281982422 15.077990531921387 129.21055603027344 13.26419734954834 128.57566833496094 19.4045467376709"/>
    <path stroke-width="0" fill="rgb(33, 81, 98)" opacity="-0.0045182086" stroke="rgb(0, 0, 0)" stroke-opacity="0.0" stroke-linecap="round" stroke-linejoin="round" d="M 446.2815856933594 8.990289688110352 C 450.11492919921875 20.507755279541016 449.5160827636719 23.208635330200195 445.800537109375 24.016992568969727 C 442.8329162597656 20.612262725830078 440.0306091308594 17.142879486083984 436.34014892578125 16.903980255126953 C 429.5589294433594 10.303621292114258 434.3436279296875 9.390700340270996 438.38067626953125 11.387393951416016 C 449.8702392578125 6.638106346130371 455.189208984375 10.413787841796875 446.2815856933594 8.990289688110352"/>
    <path stroke-width="0" fill="rgb(25, 118, 152)" opacity="0.036271326" stroke="rgb(0, 0, 0)" stroke-opacity="0.0" stroke-linecap="round" stroke-linejoin="round" d="M 16.55556297302246 -3.9198031425476074 C 23.60903549194336 9.303662300109863 20.927785873413086 13.577643394470215 14.138784408569336 8.43661117553711 C 19.586336135864258 15.263789176940918 11.022092819213867 14.83241081237793 5.350070476531982 10.422119140625 C 10.755167007446289 2.1930668354034424 13.051929473876953 -1.8051005601882935 20.69710922241211 -4.077391147613525 C 25.95378303527832 -2.431492567062378 24.316709518432617 -0.9245772361755371 16.55556297302246 -3.9198031425476074"/>
    <path stroke-width="0" fill="rgb(34, 96, 232)" opacity="0.1147045" stroke="rgb(0, 0, 0)" stroke-opacity="0.0" stroke-linecap="round" stroke-linejoin="round" d="M 23.292804718017578 -0.8821085691452026 C 20.3770751953125 12.301145553588867 22.946123123168945 25.454723358154297 19.190290451049805 23.26465606689453 C -5.962616920471191 21.672489166259766 -1.765490174293518 23.983800888061523 -2.3377885818481445 10.852144241333008 C -2.0963082313537598 2.278721570968628 -0.3383769989013672 -5.303414821624756 9.952000617980957 -2.8423986434936523 C 13.394283294677734 4.522686958312988 13.150402069091797 3.689713954925537 23.292804718017578 -0.8821085691452026"/>
    <path stroke-width="0" fill="rgb(50, 95, 107)" opacity="-0.044336833" stroke="rgb(0, 0, 0)" stroke-opacity="0.0" stroke-linecap="round" stroke-linejoin="round" d="M 65.23970794677734 16.40399932861328 C 65.1608657836914 26.30259132385254 63.95100784301758 23.324487686157227 50.949424743652344 23.16099739074707 C 48.539100646972656 30.739953994750977 51.18419647216797 25.266563415527344 51.52910232543945 13.592577934265137 C 43.730926513671875 9.024484634399414 46.02663803100586 6.4922308921813965 46.36215591430664 15.276952743530273 C 54.91917037963867 15.925786018371582 59.49515914916992 11.36851692199707 65.23970794677734 16.40399932861328"/>
    <path stroke-width="0" fill="rgb(82, 61, 235)" opacity="0.13764529" stroke="rgb(0, 0, 0)" stroke-opacity="0.0" stroke-linecap="round" stroke-linejoin="round" d="M 18.19222068786621 3.6895222663879395 C 14.680727005004883 -0.0007600004901178181 10.368230819702148 1.8678702116012573 9.177266120910645 9.230109214782715 C -0.5277078151702881 26.362918853759766 -4.052892208099365 31.522964477539062 0.09988030791282654 15.387287139892578 C 3.351909875869751 0.9646914005279541 -1.0620853900909424 -6.056999206542969 12.002107620239258 -6.953124046325684 C 16.85833740234375 -2.211749315261841 14.206221580505371 5.366428375244141 18.19222068786621 3.6895222663879395"/>
    <path stroke-width="0" fill="rgb(159, 74, 146)" opacity="0.3028518" stroke="rgb(0, 0, 0)" stroke-opacity="0.0" stroke-linecap="round" stroke-linejoin="round" d="M 0.2512929141521454 -6.528000354766846 C -2.2598307132720947 -2.4411747455596924 -1.7469640970230103 -1.090672254562378 2.680988311767578 21.295351028442383 C 0.8350480198860168 35.40165328979492 -10.11116886138916 25.978208541870117 -7.210989475250244 10.092187881469727 C -1.891053557395935 0.405823290348053 1.0371496677398682 -2.5223798751831055 5.331876754760742 -3.8086094856262207 C 9.666107177734375 -3.559802532196045 12.15905475616455 -2.2495481967926025 0.2512929141521454 -6.528000354766846"/>
    <path stroke-width="0" fill="rgb(50, 124, 82)" opacity="-0.13172774" stroke="rgb(0, 0, 0)" stroke-opacity="0.0" stroke-linecap="round" stroke-linejoin="round" d="M 5.988709449768066 1.5618126392364502 C 12.55609130859375 8.030089378356934 20.545202255249023 5.529118061065674 9.627150535583496 5.409372806549072 C -6.155648708343506 11.583322525024414 -12.00051498413086 2.9756367206573486 5.253635883331299 0.9139993190765381 C 11.319341659545898 1.6243765354156494 8.207049369812012 -5.570118427276611 10.948190689086914 -7.372836589813232 C 14.86635684967041 -6.365571975708008 17.312082290649414 -3.8883752822875977 5.988709449768066 1.5618126392364502"/>
    <path stroke-width="0" fill="rgb(40, 110, 130)" opacity="0.18415198" stroke="rgb(0, 0, 0)" stroke-opacity="0.0" stroke-linecap="round" stroke-linejoin="round" d="M 275.5318298339844 -1.0431879758834839 C 273.6357727050781 -2.3618266582489014 269.7016906738281 1.5731844902038574 275.7708740234375 3.5357887744903564 C 273.252685546875 -7.591012954711914 256.78350830078125 -3.6370277404785156 258.0527038574219 2.8287746906280518 C 252.76327514648438 0.498409241437912 258.37567138671875 -2.630681037902832 268.2408447265625 -4.950865745544434 C 276.3927307128906 -6.294095516204834 277.0536193847656 -4.980818748474121 275.5318298339844 -1.0431879758834839"/>
    <path stroke-width="0" fill="rgb(8, 133, 152)" opacity="0.08296685" stroke="rgb(0, 0, 0)" stroke-opacity="0.0" stroke-linecap="round" stroke-linejoin="round" d="M 35.69184112548828 -2.5753159523010254 C 36.5267219543457 7.040230751037598 34.94716262817383 10.024158477783203 35.665184020996094 1.805099606513977 C 28.41377830505371 4.987768650054932 27.961610794067383 6.179115295410156 31.002450942993164 3.513947010040283 C 23.569847106933594 -3.569335460662842 25.223546981811523 -4.802687644958496 29.00351333618164 -5.834605693817139 C 33.180294036865234 -4.753464221954346 31.660972595214844 -0.34400486946105957 35.69184112548828 -2.5753159523010254"/>
    <path stroke-width="0" fill="rgb(43, 84, 148)" opacity="0.04558318" stroke="rgb(0, 0, 0)" stroke-opacity="0.0" stroke-linecap="round" stroke-linejoin="round" d="M 50.91032409667969 10.282089233398438 C 57.61933517456055 17.492769241333008 60.441837310791016 23.286571502685547 53.56119155883789 21.78567886352539 C 49.14965057373047 25.256980895996094 42.92203140258789 24.13375473022461 45.24249267578125 20.11724281311035 C 45.000789642333984 13.053519248962402 49.168392181396484 11.893773078918457 55.63436508178711 10.268365859985352 C 53.142513275146484 12.388379096984863 52.66767501831055 14.664284706115723 50.91032409667969 10.282089233398438"/>
    <path stroke-width="0" fill="rgb(39, 107, 134)" opacity="0.033881087" stroke="rgb(0, 0, 0)" stroke-opacity="0.0" stroke-linecap="round" stroke-linejoin="round" d="M 38.01211929321289 8.298871994018555 C 35.65534591674805 12.174307823181152 37.40607452392578 20.866901397705078 37.59333419799805 12.638675689697266 C 28.138824462890625 15.618165016174316 24.12131118774414 16.89821434020996 21.72573471069336 14.886653900146484 C 27.868244171142578 2.92427396774292 27.84732437133789 -3.124166488647461 33.07205581665039 -4.691277503967285 C 40.40773391723633 -1.810451865196228 39.317508697509766 2.969026565551758 38.01211929321289 8.298871994018555"/>
    <path stroke-width="0" fill="rgb(56, 37, 204)" opacity="0.03381132" stroke="rgb(0, 0, 0)" stroke-opacity="0.0" stroke-linecap="round" stroke-linejoin="round" d="M 245.196044921875 83.5647201538086 C 241.18724060058594 88.12267303466797 254.3197479248047 83.84169006347656 249.08184814453125 86.29967498779297 C 231.15621948242188 90.40782165527344 234.3964385986328 87.13093566894531 233.0997314453125 79.09806060791016 C 239.52426147460938 73.50245666503906 237.5631866455078 73.09528350830078 229.650634765625 74.8994369506836 C 238.244384765625 66.4147720336914 259.4713439941406 74.57644653320312 245.196044921875 83.5647201538086"/>
    <path stroke-width="0" fill="rgb(86, 80, 115)" opacity="0.0077642035" stroke="rgb(0, 0, 0)" stroke-opacity="0.0" stroke-linecap="round" stroke-linejoin="round" d="M 93.90580749511719 452.876220703125 C 90.21749114990234 452.42730712890625 92.11800384521484 453.160400390625 91.92130279541016 447.75408935546875 C 91.44998168945312 450.8187255859375 88.95712280273438 446.0699768066406 89.27322387695312 448.3451232910156 C 89.60017395019531 448.29754638671875 86.66577911376953 442.7001647949219 81.32422637939453 448.9413757324219 C 84.76758575439453 455.80145263671875 90.89424896240234 455.23126220703125 93.90580749511719 452.876220703125"/>
    <path stroke-width="0" fill="rgb(45, 107, 99)" opacity="0.04195799" stroke="rgb(0, 0, 0)" stroke-opacity="0.0" stroke-linecap="round" stroke-linejoin="round" d="M 62.28315353393555 403.9300231933594 C 71.06710052490234 406.54498291015625 67.77009582519531 407.3173522949219 61.52871322631836 408.3914794921875 C 57.147560119628906 407.5691223144531 55.06263732910156 403.80828857421875 57.79236602783203 399.4839172363281 C 51.765316009521484 392.16729736328125 51.43705749511719 386.3556823730469 62.21757125854492 387.47076416015625 C 64.27995300292969 392.7935485839844 62.966407775878906 398.9993896484375 62.28315353393555 403.9300231933594"/>
    <path stroke-width="0" fill="rgb(93, 49, 184)" opacity="-0.031424858" stroke="rgb(0, 0, 0)" stroke-opacity="0.0" stroke-linecap="round" stroke-linejoin="round" d="M 28.37868309020996 -2.4045603275299072 C 27.677642822265625 6.493010997772217 30.081777572631836 12.028100967407227 23.80491065979004 5.325754165649414 C 27.750917434692383 7.507916450500488 30.484600067138672 1.481008768081665 26.57355499267578 -9.29463005065918 C 20.115108489990234 -3.9630367755889893 23.043787002563477 -6.891108989715576 27.043367385864258 -7.962973117828369 C 31.026105880737305 -6.894745349884033 33.56560134887695 -4.136622905731201 28.37868309020996 -2.4045603275299072"/>
    <path stroke-width="0" fill="rgb(26, 40, 146)" opacity="0.11506103" stroke="rgb(0, 0, 0)" stroke-opacity="0.0" stroke-linecap="round" stroke-linejoin="round" d="M 161.19680786132812 38.836769104003906 C 159.7459259033203 53.572574615478516 158.7648162841797 57.186920166015625 145.36390686035156 47.196128845214844 C 149.74212646484375 56.26948547363281 151.89894104003906 52.72230911254883 148.49676513671875 47.34033203125 C 150.96490478515625 39.8178825378418 155.01626586914062 40.474456787109375 162.3027801513672 32.813507080078125 C 152.5605010986328 31.80192756652832 148.14273071289062 38.51100540161133 161.19680786132812 38.836769104003906"/>
    <path stroke-width="0" fill="rgb(225, 55, 58)" opacity="0.7484325" stroke="rgb(0, 0, 0)" stroke-opacity="0.0" stroke-linecap="round" stroke-linejoin="round" d="M 14.258832931518555 -16.695833206176758 C 13.18703556060791 -12.695834159851074 10.258832931518555 -9.767630577087402 6.2588324546813965 -8.695834159851074 C 2.2588326930999756 -9.767630577087402 -0.6693705320358276 -12.695834159851074 -1.7411673069000244 -16.695833206176758 C -0.6693705320358276 -20.695833206176758 2.2588326930999756 -23.62403678894043 6.2588324546813965 -24.695833206176758 C 10.258832931518555 -23.62403678894043 13.18703556060791 -20.695833206176758 14.258832931518555 -16.695833206176758"/>
    <path stroke-width="0" fill="rgb(46, 148, 151)" opacity="-0.045501452" stroke="rgb(0, 0, 0)" stroke-opacity="0.0" stroke-linecap="round" stroke-linejoin="round" d="M 23.570877075195312 8.69631290435791 C 22.922189712524414 28.958961486816406 28.161401748657227 24.626493453979492 21.647584915161133 24.509597778320312 C 4.280496120452881 28.630029678344727 0.3152327239513397 28.110179901123047 -1.5445047616958618 25.996395111083984 C -5.138871669769287 3.385636329650879 -5.43175745010376 0.5477762818336487 6.654226779937744 2.060706615447998 C 11.759665489196777 9.899869918823242 19.946918487548828 3.4581212997436523 23.570877075195312 8.69631290435791"/>
    <path stroke-width="0" fill="rgb(57, 68, 57)" opacity="-0.09241044" stroke="rgb(0, 0, 0)" stroke-opacity="0.0" stroke-linecap="round" stroke-linejoin="round" d="M 162.5878448486328 188.05154418945312 C 157.49107360839844 199.20494079589844 149.87123107910156 203.4080047607422 155.63101196289062 208.31448364257812 C 133.8475799560547 208.93124389648438 134.00196838378906 211.19143676757812 138.70741271972656 205.17276000976562 C 135.31399536132812 198.9174041748047 140.13662719726562 200.03994750976562 150.2007598876953 199.8877716064453 C 150.45936584472656 198.22869873046875 150.47128295898438 195.4515838623047 162.5878448486328 188.05154418945312"/>
    <path stroke-width="0" fill="rgb(79, 79, 53)" opacity="-0.02121191" stroke="rgb(0, 0, 0)" stroke-opacity="0.0" stroke-linecap="round" stroke-linejoin="round" d="M 37.343353271484375 226.59083557128906 C 37.442657470703125 229.8588104248047 41.60035705566406 237.29025268554688 38.79248046875 233.5237274169922 C 23.350261688232422 228.26052856445312 18.538549423217773 229.91148376464844 24.326175689697266 224.94252014160156 C 21.96467399597168 218.39834594726562 26.375078201293945 214.0797882080078 31.748882293701172 212.2615509033203 C 36.58091354370117 216.08724975585938 38.510047912597656 220.76527404785156 37.343353271484375 226.59083557128906"/>
    <path stroke-width="0" fill="rgb(41, 94, 113)" opacity="0.026788516" stroke="rgb(0, 0, 0)" stroke-opacity="0.0" stroke-linecap="round" stroke-linejoin="round" d="M 89.41056823730469 432.7330017089844 C 94.34165954589844 433.10528564453125 91.74771881103516 442.4528503417969 87.95330810546875 440.9481201171875 C 77.76412200927734 438.10064697265625 74.21236419677734 433.673583984375 76.0844955444336 429.5771179199219 C 80.29851531982422 429.290283203125 82.40665435791016 426.5603942871094 79.85335540771484 427.14569091796875 C 80.972900390625 430.2265930175781 82.53998565673828 434.35186767578125 89.41056823730469 432.7330017089844"/>
    <path stroke-width="0" fill="rgb(105, 50, 162)" opacity="0.14685145" stroke="rgb(0, 0, 0)" stroke-opacity="0.0" stroke-linecap="round" stroke-linejoin="round" d="M 185.4033966064453 177.23280334472656 C 177.98365783691406 177.07608032226562 174.3294219970703 168.620361328125 166.333984375 167.84713745117188 C 172.63414001464844 176.41677856445312 168.3329620361328 169.9987030029297 166.98675537109375 149.81808471679688 C 165.65963745117188 152.74288940429688 164.986572265625 148.05982971191406 164.32601928710938 164.61212158203125 C 165.70953369140625 165.686767578125 173.22921752929688 164.44815063476562 185.4033966064453 177.23280334472656"/>
    <path stroke-width="0" fill="rgb(198, 363, 56)" opacity="0.23717827" stroke="rgb(0, 0, 0)" stroke-opacity="0.0" stroke-linecap="round" stroke-linejoin="round" d="M 342.5779724121094 288.7565612792969 C 341.8840637207031 307.764892578125 339.0127868652344 316.1447448730469 339.55511474609375 325.98052978515625 C 350.60101318359375 338.6101989746094 349.7080993652344 321.12713623046875 351.55010986328125 305.8521728515625 C 347.79998779296875 297.77032470703125 350.08294677734375 307.1923828125 353.25323486328125 305.43902587890625 C 351.21343994140625 306.3464050292969 353.6979675292969 303.29461669921875 342.5779724121094 288.7565612792969"/>
    <path stroke-width="0" fill="rgb(0, 135, 96)" opacity="-0.01679609" stroke="rgb(0, 0, 0)" stroke-opacity="0.0" stroke-linecap="round" stroke-linejoin="round" d="M 356.6305236816406 238.9721221923828 C 353.419921875 239.4483642578125 353.064697265625 237.46104431152344 342.4462585449219 233.84356689453125 C 343.4923095703125 240.31593322753906 334.8131408691406 243.5408172607422 343.7419128417969 250.94049072265625 C 342.6649169921875 241.89779663085938 344.8468933105469 228.8574676513672 343.83575439453125 231.47935485839844 C 344.1007385253906 234.72389221191406 350.4592590332031 235.61082458496094 356.6305236816406 238.9721221923828"/>
    <path stroke-width="0" fill="rgb(86, 85, 94)" opacity="-0.021574635" stroke="rgb(0, 0, 0)" stroke-opacity="0.0" stroke-linecap="round" stroke-linejoin="round" d="M 441.91351318359375 252.81204223632812 C 444.9944763183594 251.48374938964844 447.1100158691406 258.58477783203125 444.8099365234375 258.9009094238281 C 446.8612365722656 249.6659698486328 442.7660827636719 249.33935546875 438.1766052246094 246.6017303466797 C 441.7306213378906 252.51744079589844 444.2664489746094 251.40509033203125 443.4638366699219 246.98956298828125 C 441.0323791503906 246.2010040283203 441.4546203613281 251.32687377929688 441.91351318359375 252.81204223632812"/>
    <path stroke-width="0" fill="rgb(50, 51, 58)" opacity="0.07903558" stroke="rgb(0, 0, 0)" stroke-opacity="0.0" stroke-linecap="round" stroke-linejoin="round" d="M 360.7384033203125 261.3222351074219 C 373.00140380859375 270.48468017578125 370.2574768066406 276.09100341796875 354.10992431640625 259.1770935058594 C 353.060546875 251.50006103515625 334.685546875 265.6994934082031 342.1240539550781 257.7275085449219 C 355.2763977050781 244.13319396972656 344.2232360839844 234.50416564941406 349.26312255859375 246.05250549316406 C 349.2440185546875 253.28240966796875 359.8912353515625 259.7430725097656 360.7384033203125 261.3222351074219"/>
    <path stroke-width="0" fill="rgb(90, 81, 81)" opacity="0.0051554865" stroke="rgb(0, 0, 0)" stroke-opacity="0.0" stroke-linecap="round" stroke-linejoin="round" d="M 155.8684844970703 508.61505126953125 C 171.48863220214844 507.5799560546875 173.55946350097656 511.52923583984375 164.90658569335938 517.71533203125 C 156.9319610595703 516.6383056640625 160.06298828125 514.0230102539062 158.68846130371094 499.0530090332031 C 148.0325927734375 492.1115417480469 151.17562866210938 492.1602783203125 157.67735290527344 520.3301391601562 C 175.2584686279297 510.7740478515625 174.95372009277344 506.7945556640625 155.8684844970703 508.61505126953125"/>
    <path stroke-width="0" fill="rgb(22, 155, 29)" opacity="0.13345192" stroke="rgb(0, 0, 0)" stroke-opacity="0.0" stroke-linecap="round" stroke-linejoin="round" d="M -100.48587799072266 -83.45436096191406 C -101.55767822265625 -79.45436096191406 -104.48587799072266 -76.52615356445312 -108.48587799072266 -75.45436096191406 C -112.48587799072266 -76.52615356445312 -115.4140853881836 -79.45436096191406 -116.48587799072266 -83.45436096191406 C -115.4140853881836 -87.45436096191406 -112.48587799072266 -90.38256072998047 -108.48587799072266 -91.45436096191406 C -104.48587799072266 -90.38256072998047 -101.55767822265625 -87.45436096191406 -100.48587799072266 -83.45436096191406"/>
    <path stroke-width="0" fill="rgb(105, 64, 131)" opacity="-0.040089857" stroke="rgb(0, 0, 0)" stroke-opacity="0.0" stroke-linecap="round" stroke-linejoin="round" d="M 437.37005615234375 365.4572448730469 C 437.9250793457031 368.5259704589844 444.170654296875 374.53350830078125 446.3129577636719 373.3883361816406 C 426.47552490234375 376.6645812988281 433.8192443847656 375.2937927246094 442.93585205078125 378.54425048828125 C 430.2491455078125 369.71868896484375 435.19097900390625 362.9786682128906 431.9338073730469 367.5235595703125 C 439.997802734375 366.5031433105469 441.029541015625 371.1437072753906 437.37005615234375 365.4572448730469"/>
    <path stroke-width="0" fill="rgb(187, 96, 52)" opacity="0.4513437" stroke="rgb(0, 0, 0)" stroke-opacity="0.0" stroke-linecap="round" stroke-linejoin="round" d="M -0.10087472945451736 -1.1595016717910767 C -1.0227470397949219 3.737811326980591 -2.896090030670166 7.530107021331787 -6.448106288909912 8.862656593322754 C -10.362608909606934 7.76533317565918 -13.290812492370605 4.837129592895508 -14.362608909606934 0.8371297717094421 C -13.290812492370605 -3.162870168685913 -10.362608909606934 -6.091073513031006 -6.363867282867432 -7.162430763244629 C -2.4274260997772217 -6.066844940185547 0.3000953793525696 -2.932833671569824 -0.10087472945451736 -1.1595016717910767"/>
    <path stroke-width="0" fill="rgb(-6, 102, 133)" opacity="0.084027015" stroke="rgb(0, 0, 0)" stroke-opacity="0.0" stroke-linecap="round" stroke-linejoin="round" d="M 139.68739318847656 391.4234924316406 C 133.07057189941406 391.369873046875 131.5762176513672 393.5708923339844 130.29112243652344 386.6249084472656 C 122.47433471679688 386.51898193359375 127.3196792602539 385.81353759765625 129.25657653808594 383.2646484375 C 120.6746597290039 379.2593994140625 127.9517822265625 385.6197509765625 127.93872833251953 387.3674011230469 C 132.5619354248047 378.5771179199219 139.37637329101562 384.1257019042969 139.68739318847656 391.4234924316406"/>
    <path stroke-width="0" fill="rgb(77, 88, 117)" opacity="-0.02631733" stroke="rgb(0, 0, 0)" stroke-opacity="0.0" stroke-linecap="round" stroke-linejoin="round" d="M 44.68336486816406 144.26852416992188 C 43.76404571533203 143.51930236816406 43.651023864746094 147.28146362304688 33.2066535949707 148.38400268554688 C 35.96112823486328 144.6256866455078 26.325353622436523 142.34791564941406 34.63103485107422 141.94430541992188 C 34.16231918334961 138.42578125 34.38893508911133 132.8102569580078 32.41531753540039 142.27960205078125 C 43.0546760559082 143.53826904296875 46.388893127441406 146.24624633789062 44.68336486816406 144.26852416992188"/>
    <path stroke-width="0" fill="rgb(213, 11, 17)" opacity="0.5931626" stroke="rgb(0, 0, 0)" stroke-opacity="0.0" stroke-linecap="round" stroke-linejoin="round" d="M 24.668621063232422 -21.762842178344727 C 23.596824645996094 -17.762842178344727 20.668621063232422 -14.834639549255371 16.668621063232422 -13.762843132019043 C 12.668622016906738 -14.834639549255371 9.740418434143066 -17.762842178344727 8.668622016906738 -21.762842178344727 C 9.740418434143066 -25.762842178344727 12.668622016906738 -28.6910457611084 16.668621063232422 -29.762842178344727 C 20.668621063232422 -28.6910457611084 23.596824645996094 -25.762842178344727 24.668621063232422 -21.762842178344727"/>
    <path stroke-width="0" fill="rgb(126, 251, 169)" opacity="0.54950905" stroke="rgb(0, 0, 0)" stroke-opacity="0.0" stroke-linecap="round" stroke-linejoin="round" d="M 108.10499572753906 -84.74349212646484 C 107.033203125 -80.74349212646484 104.10499572753906 -77.8152847290039 100.10499572753906 -76.74349212646484 C 96.10499572753906 -77.8152847290039 93.17679595947266 -80.74349212646484 92.10499572753906 -84.74349212646484 C 93.17679595947266 -88.74349212646484 96.10499572753906 -91.67169189453125 100.10499572753906 -92.74349212646484 C 104.10499572753906 -91.67169189453125 107.033203125 -88.74349212646484 108.10499572753906 -84.74349212646484"/>
    <path stroke-width="0" fill="rgb(197, 121, 32)" opacity="0.03342436" stroke="rgb(0, 0, 0)" stroke-opacity="0.0" stroke-linecap="round" stroke-linejoin="round" d="M 1.389222264289856 -17.607885360717773 C 0.3174254894256592 -13.607885360717773 -2.6107778549194336 -10.679681777954102 -6.610777854919434 -9.607885360717773 C -10.610777854919434 -10.679681777954102 -13.538981437683105 -13.607885360717773 -14.610777854919434 -17.607885360717773 C -13.538981437683105 -21.607885360717773 -10.610777854919434 -24.536088943481445 -6.610777854919434 -25.607885360717773 C -2.6107778549194336 -24.536088943481445 0.3174254894256592 -21.607885360717773 1.389222264289856 -17.607885360717773"/>
    <path stroke-width="0" fill="rgb(73, 80, 136)" opacity="0.0445181" stroke="rgb(0, 0, 0)" stroke-opacity="0.0" stroke-linecap="round" stroke-linejoin="round" d="M 62.04420471191406 460.79205322265625 C 61.158546447753906 466.98095703125 61.8635368347168 465.7297668457031 54.29059982299805 466.3203125 C 52.275115966796875 463.3471374511719 47.659908294677734 460.47308349609375 45.46845245361328 460.6822509765625 C 43.38086700439453 449.3066101074219 48.24742126464844 446.32666015625 55.96487808227539 445.4423522949219 C 61.906654357910156 444.3216552734375 64.03546142578125 444.0006103515625 62.04420471191406 460.79205322265625"/>
    <path stroke-width="0" fill="rgb(12, 98, 157)" opacity="0.023063775" stroke="rgb(0, 0, 0)" stroke-opacity="0.0" stroke-linecap="round" stroke-linejoin="round" d="M 197.1061553955078 469.45751953125 C 204.42068481445312 464.6380615234375 198.14529418945312 464.0928649902344 199.26710510253906 448.0624084472656 C 185.4386444091797 454.719970703125 190.13699340820312 458.7113952636719 191.77914428710938 454.5323791503906 C 188.088134765625 453.2625427246094 193.38009643554688 449.3830871582031 197.86204528808594 456.1290283203125 C 194.44493103027344 458.1931457519531 197.14154052734375 453.3310852050781 197.1061553955078 469.45751953125"/>
    <path stroke-width="0" fill="rgb(39, 92, 57)" opacity="-0.0048648454" stroke="rgb(0, 0, 0)" stroke-opacity="0.0" stroke-linecap="round" stroke-linejoin="round" d="M 132.9369354248047 419.4922180175781 C 129.75416564941406 416.16510009765625 129.6852264404297 423.9328918457031 127.03633880615234 427.9745178222656 C 123.78160095214844 420.2966003417969 123.11066436767578 412.5370788574219 120.40403747558594 410.99310302734375 C 118.95316314697266 410.6601867675781 123.10530090332031 406.6044006347656 120.0909652709961 412.6859436035156 C 126.91036987304688 418.7138366699219 133.69857788085938 419.48663330078125 132.9369354248047 419.4922180175781"/>
    <path stroke-width="0" fill="rgb(109, 48, 201)" opacity="0.038687754" stroke="rgb(0, 0, 0)" stroke-opacity="0.0" stroke-linecap="round" stroke-linejoin="round" d="M 321.76556396484375 458.907958984375 C 321.57635498046875 466.1098937988281 329.3231201171875 466.0493469238281 322.0894470214844 460.3336486816406 C 309.99078369140625 466.992919921875 314.21063232421875 468.3262939453125 313.6207275390625 465.6951599121094 C 309.4669189453125 456.700927734375 313.2674255371094 457.111572265625 313.18841552734375 458.8200378417969 C 315.09326171875 461.9509582519531 323.34332275390625 459.8936462402344 321.76556396484375 458.907958984375"/>
    <path stroke-width="0" fill="rgb(-56, 131, 18)" opacity="-0.13515824" stroke="rgb(0, 0, 0)" stroke-opacity="0.0" stroke-linecap="round" stroke-linejoin="round" d="M 181.64942932128906 419.3778076171875 C 167.17356872558594 424.3714599609375 167.46546936035156 428.10015869140625 168.65357971191406 422.08502197265625 C 167.85606384277344 425.0871887207031 166.66030883789062 426.445556640625 153.13711547851562 424.87371826171875 C 165.41424560546875 416.49224853515625 180.12197875976562 420.28057861328125 180.17730712890625 429.6710510253906 C 164.93844604492188 416.5053405761719 172.60260009765625 412.2216491699219 181.64942932128906 419.3778076171875"/>
    <path stroke-width="0" fill="rgb(37, 90, 127)" opacity="0.03279865" stroke="rgb(0, 0, 0)" stroke-opacity="0.0" stroke-linecap="round" stroke-linejoin="round" d="M 56.104270935058594 296.90155029296875 C 56.6331901550293 298.778564453125 56.92147445678711 303.3760070800781 54.053653717041016 297.9781494140625 C 54.48811340332031 301.9075927734375 57.40894317626953 301.8095397949219 55.05036163330078 295.1332702636719 C 58.25507736206055 297.96527099609375 62.32402038574219 295.91766357421875 57.63545227050781 298.1581115722656 C 60.290706634521484 299.3237609863281 65.39771270751953 298.1253356933594 56.104270935058594 296.90155029296875"/>
    <path stroke-width="0" fill="rgb(-25, 80, 184)" opacity="0.09314896" stroke="rgb(0, 0, 0)" stroke-opacity="0.0" stroke-linecap="round" stroke-linejoin="round" d="M 357.26910400390625 237.3275146484375 C 356.48284912109375 247.23797607421875 354.7153015136719 253.75526428222656 348.2364196777344 260.47125244140625 C 351.9252014160156 242.87879943847656 341.8033447265625 242.8149871826172 345.778076171875 236.9373779296875 C 347.2817077636719 229.47154235839844 342.58416748046875 225.63731384277344 351.5679016113281 228.64303588867188 C 352.4786682128906 231.72279357910156 356.9957580566406 237.6884002685547 357.26910400390625 237.3275146484375"/>
  </g>
</svg>
