<?xml version="1.0" ?>
<svg xmlns="http://www.w3.org/2000/svg" version="1.1" width="512" height="512">
  <defs/>
  <g>
    <path stroke-width="0" fill="rgb(43, 114, 214)" opacity="1.1401006" stroke="rgb(139, 182, 153)" stroke-opacity="1.0" stroke-linecap="round" stroke-linejoin="round" d="M 212.95346069335938 -11.186165809631348 C 160.2886962890625 -2.2553398609161377 197.2572479248047 53.057743072509766 71.66699981689453 133.98146057128906 C 58.55684280395508 122.34747314453125 56.36583709716797 110.28675842285156 54.72563171386719 87.39144897460938 C 53.239688873291016 -70.5827865600586 64.93963623046875 -70.37846374511719 84.7098159790039 -59.90073013305664 C 196.87890625 -32.08534240722656 204.9210205078125 -25.525909423828125 212.95346069335938 -11.186165809631348"/>
    <path stroke-width="0" fill="rgb(30, 70, 220)" opacity="0.99064606" stroke="rgb(108, 164, 111)" stroke-opacity="1.0" stroke-linecap="round" stroke-linejoin="round" d="M 141.43902587890625 81.7464828491211 C 156.13949584960938 158.0997772216797 160.540771484375 170.83270263671875 98.68765258789062 172.37283325195312 C -60.77919006347656 166.43023681640625 -47.74129867553711 136.50534057617188 -41.06509780883789 85.29373168945312 C -38.50617218017578 -35.472816467285156 -31.483736038208008 -40.57529067993164 58.8208122253418 -41.02047348022461 C 128.976318359375 -52.07899856567383 141.5751953125 -58.90684509277344 141.43902587890625 81.7464828491211"/>
    <path stroke-width="0" fill="rgb(32, 68, 204)" opacity="1.0231115" stroke="rgb(245, 97, 201)" stroke-opacity="1.0" stroke-linecap="round" stroke-linejoin="round" d="M 490.56219482421875 526.6605834960938 C 350.8706970214844 582.8856811523438 327.6231384277344 574.8817749023438 -39.52774429321289 555.3480224609375 C -75.76151275634766 413.1372375488281 -51.65288543701172 351.97052001953125 -47.120174407958984 141.908203125 C -50.47376251220703 105.33000946044922 -52.42634582519531 93.3095932006836 157.55856323242188 88.10868835449219 C 271.0198059082031 76.86141967773438 403.4590148925781 27.278491973876953 490.56219482421875 526.6605834960938"/>
    <path stroke-width="0" fill="rgb(-17, 94, 170)" opacity="1.0104508" stroke="rgb(144, 236, 18)" stroke-opacity="1.0" stroke-linecap="round" stroke-linejoin="round" d="M 553.881591796875 546.8739624023438 C 345.29400634765625 507.42059326171875 288.89483642578125 419.2375793457031 179.5647735595703 301.9345397949219 C 90.23451232910156 158.334228515625 66.30795288085938 152.28436279296875 50.118194580078125 125.62165069580078 C 171.57656860351562 13.45612907409668 121.9565658569336 -40.04123306274414 439.2799377441406 -66.79605865478516 C 555.062744140625 -124.77310180664062 573.008544921875 -219.4150390625 553.881591796875 546.8739624023438"/>
    <path stroke-width="0" fill="rgb(264, 230, 189)" opacity="0.9879006" stroke="rgb(5, 212, 198)" stroke-opacity="1.0" stroke-linecap="round" stroke-linejoin="round" d="M 371.88848876953125 358.98553466796875 C 341.9775390625 308.0287170410156 389.84600830078125 438.3226623535156 349.15496826171875 403.9535217285156 C 347.5710754394531 279.6061096191406 240.8692626953125 483.4922180175781 280.6233215332031 325.0574645996094 C 242.17532348632812 250.77166748046875 290.7698059082031 232.36485290527344 276.4632568359375 311.96380615234375 C 372.4361572265625 223.7771759033203 350.3999938964844 332.9077453613281 371.88848876953125 358.98553466796875"/>
    <path stroke-width="0" fill="rgb(254, 255, 261)" opacity="1.0431159" stroke="rgb(249, 203, 117)" stroke-opacity="1.0" stroke-linecap="round" stroke-linejoin="round" d="M 261.90313720703125 330.6995544433594 C 244.64686584472656 353.40936279296875 290.6216125488281 359.3143005371094 231.0396270751953 352.0655517578125 C 216.48684692382812 347.4567565917969 199.996337890625 314.9969787597656 203.19419860839844 337.52569580078125 C 176.48907470703125 307.2318115234375 159.34959411621094 311.3212585449219 190.5553741455078 284.9101257324219 C 273.8667907714844 304.7934265136719 264.1123962402344 268.2424621582031 261.90313720703125 330.6995544433594"/>
    <path stroke-width="0" fill="rgb(266, 238, 158)" opacity="1.0733626" stroke="rgb(30, 163, 36)" stroke-opacity="1.0" stroke-linecap="round" stroke-linejoin="round" d="M 399.123291015625 330.6520690917969 C 399.4894714355469 378.7154846191406 382.70391845703125 370.63458251953125 340.1655578613281 345.53814697265625 C 382.0968322753906 321.4884338378906 333.36676025390625 318.8083190917969 288.3075256347656 302.1033935546875 C 225.67164611816406 272.28436279296875 296.9145202636719 209.16940307617188 342.3306579589844 282.6856994628906 C 333.6997985839844 292.21002197265625 359.5411682128906 266.0637512207031 399.123291015625 330.6520690917969"/>
    <path stroke-width="0" fill="rgb(263, 138, 15)" opacity="0.9988915" stroke="rgb(133, 105, 67)" stroke-opacity="1.0" stroke-linecap="round" stroke-linejoin="round" d="M 305.2196960449219 92.37841033935547 C 321.03070068359375 237.91018676757812 135.3009796142578 246.32553100585938 226.2705078125 81.30410766601562 C 183.5263214111328 183.63156127929688 144.32814025878906 241.17462158203125 181.4401397705078 123.44751739501953 C 221.66351318359375 51.3021354675293 215.44650268554688 62.01993942260742 232.67466735839844 65.16511535644531 C 240.81150817871094 100.09950256347656 228.0478057861328 126.0528793334961 305.2196960449219 92.37841033935547"/>
    <path stroke-width="0" fill="rgb(265, 223, 186)" opacity="0.92621946" stroke="rgb(116, 144, 4)" stroke-opacity="1.0" stroke-linecap="round" stroke-linejoin="round" d="M 307.5861511230469 311.46112060546875 C 313.3397216796875 330.9064636230469 394.08026123046875 331.8657531738281 193.77098083496094 286.2071228027344 C 199.13792419433594 271.1935729980469 155.57464599609375 378.92071533203125 150.35179138183594 245.89398193359375 C 222.77926635742188 -39.42487335205078 155.65823364257812 226.8895721435547 263.1892395019531 237.72129821777344 C 290.0430908203125 252.98121643066406 259.1682434082031 135.6249237060547 307.5861511230469 311.46112060546875"/>
    <path stroke-width="0" fill="rgb(279, 268, 257)" opacity="0.9980485" stroke="rgb(156, 157, 240)" stroke-opacity="1.0" stroke-linecap="round" stroke-linejoin="round" d="M 229.5437469482422 212.83363342285156 C 303.14117431640625 264.9943542480469 180.09463500976562 233.66510009765625 199.00360107421875 186.6280059814453 C 311.37139892578125 301.2593078613281 166.47914123535156 130.23562622070312 237.80601501464844 234.22779846191406 C 169.30361938476562 184.49969482421875 131.99612426757812 106.61894226074219 278.40155029296875 192.1161346435547 C 321.7354736328125 267.7369079589844 182.9319610595703 161.3968505859375 229.5437469482422 212.83363342285156"/>
    <path stroke-width="0" fill="rgb(284, 215, 149)" opacity="0.8800351" stroke="rgb(91, 111, 177)" stroke-opacity="1.0" stroke-linecap="round" stroke-linejoin="round" d="M 177.84706115722656 268.6578674316406 C 147.44908142089844 253.0342559814453 235.0664825439453 280.0697021484375 176.94927978515625 405.8932800292969 C 108.59563446044922 427.2864990234375 189.12716674804688 439.3665466308594 158.681396484375 287.6414794921875 C 150.63063049316406 165.3903350830078 163.49427795410156 270.8014831542969 177.08023071289062 129.89559936523438 C 358.9528503417969 35.27227020263672 92.50679016113281 195.31402587890625 177.84706115722656 268.6578674316406"/>
    <path stroke-width="0" fill="rgb(273, 247, 196)" opacity="1.0834796" stroke="rgb(170, 171, 53)" stroke-opacity="1.0" stroke-linecap="round" stroke-linejoin="round" d="M 284.00360107421875 324.5224609375 C 263.9051818847656 422.88787841796875 268.34674072265625 436.9135437011719 267.5929260253906 435.19537353515625 C 224.1892852783203 437.44012451171875 244.6165008544922 459.15997314453125 247.3079833984375 341.5915832519531 C 231.82579040527344 308.7347106933594 196.5042724609375 300.3157043457031 257.48663330078125 265.76922607421875 C 295.7403259277344 224.5354766845703 283.72650146484375 238.24343872070312 284.00360107421875 324.5224609375"/>
    <path stroke-width="0" fill="rgb(320, 232, 226)" opacity="0.76930285" stroke="rgb(80, 92, 145)" stroke-opacity="1.0" stroke-linecap="round" stroke-linejoin="round" d="M 165.10479736328125 413.1390686035156 C 188.35104370117188 398.9408874511719 149.7793731689453 397.1066589355469 152.38526916503906 407.8919677734375 C 197.9368133544922 408.77935791015625 167.3629913330078 418.5334777832031 182.23020935058594 393.28778076171875 C 136.78689575195312 417.2117004394531 146.3661346435547 386.2397766113281 182.7924041748047 407.4715576171875 C 143.67770385742188 374.531005859375 178.0887908935547 409.09857177734375 165.10479736328125 413.1390686035156"/>
    <path stroke-width="0" fill="rgb(223, 212, 166)" opacity="0.93545216" stroke="rgb(166, 64, 118)" stroke-opacity="1.0" stroke-linecap="round" stroke-linejoin="round" d="M 195.50628662109375 338.2619934082031 C 202.02133178710938 344.3777160644531 177.13540649414062 346.2629089355469 194.53623962402344 308.8180847167969 C 202.29388427734375 352.45880126953125 213.65931701660156 298.9435729980469 195.9488067626953 350.9122009277344 C 193.95816040039062 340.4852294921875 194.10556030273438 328.54034423828125 185.0918731689453 367.22882080078125 C 189.26846313476562 357.4654541015625 193.4980010986328 379.68438720703125 195.50628662109375 338.2619934082031"/>
    <path stroke-width="0" fill="rgb(335, 284, 215)" opacity="0.9707238" stroke="rgb(50, 94, 209)" stroke-opacity="1.0" stroke-linecap="round" stroke-linejoin="round" d="M 184.45428466796875 387.9389343261719 C 176.7943572998047 418.5257568359375 167.0559539794922 414.20172119140625 215.3976593017578 403.6848449707031 C 150.04345703125 416.3519592285156 179.98214721679688 421.8736572265625 147.41732788085938 418.367431640625 C 142.87347412109375 382.6152038574219 163.2836151123047 409.5810546875 172.61892700195312 394.217041015625 C 137.4807891845703 386.7019348144531 189.87298583984375 400.8150329589844 184.45428466796875 387.9389343261719"/>
    <path stroke-width="0" fill="rgb(-15, 88, 172)" opacity="0.98117197" stroke="rgb(72, 30, 75)" stroke-opacity="1.0" stroke-linecap="round" stroke-linejoin="round" d="M 440.5935363769531 633.0272216796875 C -28.840879440307617 448.6214904785156 505.90130615234375 376.636962890625 538.7991333007812 355.0243835449219 C 273.54949951171875 428.6703796386719 501.3952941894531 373.70050048828125 318.3003234863281 250.84979248046875 C 244.32440185546875 245.04653930664062 304.0523681640625 241.45742797851562 286.9129943847656 116.07308959960938 C 337.42291259765625 56.18427658081055 699.215576171875 -18.205810546875 440.5935363769531 633.0272216796875"/>
    <path stroke-width="0" fill="rgb(275, 267, 16)" opacity="0.6574907" stroke="rgb(146, 236, 81)" stroke-opacity="1.0" stroke-linecap="round" stroke-linejoin="round" d="M 190.23411560058594 94.90638732910156 C 199.73434448242188 108.81097412109375 200.3576202392578 109.30426025390625 191.86338806152344 119.18341064453125 C 186.14015197753906 124.72164916992188 197.64857482910156 123.6324691772461 211.6300506591797 116.63316345214844 C 194.2328338623047 105.18506622314453 191.579833984375 102.50016784667969 190.87171936035156 102.77870178222656 C 195.6417999267578 101.07683563232422 203.33145141601562 117.03477478027344 190.23411560058594 94.90638732910156"/>
    <path stroke-width="0" fill="rgb(31, 75, 152)" opacity="0.7603379" stroke="rgb(33, 182, 73)" stroke-opacity="1.0" stroke-linecap="round" stroke-linejoin="round" d="M 287.04443359375 127.67279815673828 C 303.0108642578125 170.41207885742188 286.2624816894531 130.12631225585938 287.44390869140625 131.33148193359375 C 291.0099182128906 125.57942199707031 292.05657958984375 137.6566619873047 295.777099609375 126.23226928710938 C 283.1402282714844 176.48028564453125 289.85296630859375 142.14208984375 291.8565673828125 167.48069763183594 C 290.94720458984375 98.666015625 291.63592529296875 168.99562072753906 287.04443359375 127.67279815673828"/>
    <path stroke-width="0" fill="rgb(251, 51, -21)" opacity="1.0436102" stroke="rgb(149, 5, 211)" stroke-opacity="1.0" stroke-linecap="round" stroke-linejoin="round" d="M 282.38677978515625 199.91844177246094 C 287.4598388671875 199.41722106933594 270.50384521484375 191.43499755859375 267.3251037597656 183.15138244628906 C 283.0008239746094 176.58773803710938 252.26109313964844 191.96148681640625 242.69004821777344 186.7919158935547 C 188.1119842529297 142.6217803955078 307.50897216796875 181.7413787841797 284.8683776855469 173.5517120361328 C 287.23504638671875 203.42835998535156 331.2028503417969 205.60986328125 282.38677978515625 199.91844177246094"/>
    <path stroke-width="0" fill="rgb(39, 97, 158)" opacity="-0.0910396" stroke="rgb(172, 68, 187)" stroke-opacity="1.0" stroke-linecap="round" stroke-linejoin="round" d="M 301.3755798339844 100.89820861816406 C 295.005126953125 102.11224365234375 345.17474365234375 84.02284240722656 301.12109375 136.2871856689453 C 324.1970520019531 93.95960235595703 317.39337158203125 84.10260772705078 269.4482116699219 97.78226470947266 C 260.35113525390625 101.26969146728516 348.69189453125 71.84786987304688 286.29156494140625 123.45064544677734 C 285.74365234375 134.2044677734375 273.8878479003906 125.39331817626953 301.3755798339844 100.89820861816406"/>
    <path stroke-width="0" fill="rgb(99, 127, 25)" opacity="0.058543425" stroke="rgb(63, 146, 150)" stroke-opacity="1.0" stroke-linecap="round" stroke-linejoin="round" d="M 290.8713073730469 91.67556762695312 C 286.213134765625 92.29412841796875 313.0777282714844 89.97356414794922 304.1976013183594 102.21550750732422 C 314.67498779296875 90.52225494384766 293.58349609375 93.19171905517578 303.3938293457031 91.10455322265625 C 300.94903564453125 106.35706329345703 321.02264404296875 97.80461883544922 287.3604431152344 96.96868133544922 C 273.8530578613281 101.85233306884766 235.90550231933594 108.5316162109375 290.8713073730469 91.67556762695312"/>
    <path stroke-width="0" fill="rgb(64, -42, -71)" opacity="0.8471875" stroke="rgb(56, 242, 114)" stroke-opacity="1.0" stroke-linecap="round" stroke-linejoin="round" d="M 176.61614990234375 147.29055786132812 C 179.10557556152344 133.4241485595703 180.6588897705078 130.70848083496094 179.4055938720703 136.97174072265625 C 203.7529296875 75.43727111816406 192.57498168945312 121.29692840576172 177.39723205566406 152.3973388671875 C 170.9663543701172 158.47947692871094 171.34487915039062 173.755859375 172.63816833496094 161.0491485595703 C 166.761474609375 177.57574462890625 170.57452392578125 173.80487060546875 176.61614990234375 147.29055786132812"/>
    <path stroke-width="0" fill="rgb(97, -36, -34)" opacity="0.9718299" stroke="rgb(178, 75, 207)" stroke-opacity="1.0" stroke-linecap="round" stroke-linejoin="round" d="M 220.08523559570312 89.21546936035156 C 226.0445098876953 88.07693481445312 228.49900817871094 91.2961654663086 225.64366149902344 106.2756576538086 C 182.6149139404297 160.89500427246094 214.1422882080078 112.84481048583984 215.9876708984375 89.61190032958984 C 206.6900634765625 126.11178588867188 216.17416381835938 98.3996810913086 210.66395568847656 92.01821899414062 C 218.6147003173828 82.16194915771484 203.13052368164062 108.676513671875 220.08523559570312 89.21546936035156"/>
    <path stroke-width="0" fill="rgb(20, -36, -99)" opacity="0.9266824" stroke="rgb(224, 148, 224)" stroke-opacity="1.0" stroke-linecap="round" stroke-linejoin="round" d="M 295.0580749511719 218.9405059814453 C 295.42205810546875 217.41639709472656 287.479248046875 236.04690551757812 306.22674560546875 213.9461669921875 C 303.4493103027344 195.95803833007812 273.1315612792969 204.42091369628906 284.836181640625 199.5388641357422 C 288.88018798828125 178.4967498779297 271.9255065917969 205.303466796875 288.57708740234375 196.26983642578125 C 292.7171936035156 202.46856689453125 291.4759521484375 195.17825317382812 295.0580749511719 218.9405059814453"/>
    <path stroke-width="0" fill="rgb(50, 93, 98)" opacity="0.09877925" stroke="rgb(108, 154, 4)" stroke-opacity="1.0" stroke-linecap="round" stroke-linejoin="round" d="M 236.8938751220703 422.2618103027344 C 241.24330139160156 389.0250549316406 212.25990295410156 420.65777587890625 281.45965576171875 414.2694091796875 C 251.9381561279297 419.4521179199219 281.77117919921875 433.9163818359375 266.31201171875 386.30828857421875 C 269.4610900878906 431.7115783691406 256.5318298339844 413.1881408691406 264.07159423828125 414.3309020996094 C 211.65016174316406 416.1759033203125 260.0931091308594 397.7135314941406 236.8938751220703 422.2618103027344"/>
    <path stroke-width="0" fill="rgb(59, 68, 189)" opacity="0.0001867858" stroke="rgb(168, 73, 157)" stroke-opacity="1.0" stroke-linecap="round" stroke-linejoin="round" d="M 138.28392028808594 370.4114074707031 C 189.67027282714844 386.4993591308594 141.809814453125 379.8541564941406 160.31495666503906 382.2414855957031 C 162.8622589111328 390.22406005859375 158.64881896972656 390.6940612792969 165.5880126953125 349.33978271484375 C 160.5655975341797 371.8965148925781 157.78973388671875 349.34130859375 158.69703674316406 358.4963684082031 C 170.8865203857422 369.864990234375 170.6132049560547 381.0084228515625 138.28392028808594 370.4114074707031"/>
    <path stroke-width="0" fill="rgb(152, 49, -49)" opacity="-0.021646623" stroke="rgb(34, 76, 145)" stroke-opacity="1.0" stroke-linecap="round" stroke-linejoin="round" d="M 225.7547149658203 122.17281341552734 C 195.8637237548828 112.92868041992188 210.29229736328125 92.5129165649414 226.77320861816406 105.59325408935547 C 204.9609375 60.14820861816406 223.46632385253906 73.70372009277344 196.696533203125 103.19737243652344 C 186.34625244140625 147.51522827148438 191.76724243164062 74.76388549804688 233.97442626953125 104.07642364501953 C 239.96279907226562 65.60565948486328 172.1622314453125 77.66976928710938 225.7547149658203 122.17281341552734"/>
    <path stroke-width="0" fill="rgb(289, 33, 9)" opacity="0.11182785" stroke="rgb(146, 166, 166)" stroke-opacity="1.0" stroke-linecap="round" stroke-linejoin="round" d="M 164.17552185058594 202.87161254882812 C 165.16319274902344 200.59698486328125 166.79933166503906 202.34385681152344 167.1464080810547 186.00643920898438 C 160.004150390625 206.5908660888672 166.966064453125 150.59097290039062 173.45730590820312 186.14166259765625 C 168.4192352294922 192.65875244140625 174.05613708496094 189.01171875 171.81979370117188 198.5590362548828 C 173.45236206054688 199.51258850097656 169.99929809570312 204.58482360839844 164.17552185058594 202.87161254882812"/>
    <path stroke-width="0" fill="rgb(285, 7, -189)" opacity="0.6694721" stroke="rgb(228, 93, 111)" stroke-opacity="1.0" stroke-linecap="round" stroke-linejoin="round" d="M 235.73439025878906 129.60096740722656 C 236.7021026611328 96.09962463378906 228.35128784179688 57.74176788330078 228.36648559570312 82.78984832763672 C 225.895263671875 121.62107849121094 231.18130493164062 147.82305908203125 215.07281494140625 100.53436279296875 C 239.64810180664062 88.29441833496094 291.8738098144531 150.93153381347656 268.5639953613281 121.18626403808594 C 228.8971405029297 108.3993911743164 247.8079376220703 98.08673095703125 235.73439025878906 129.60096740722656"/>
    <path stroke-width="0" fill="rgb(227, 163, 120)" opacity="0.41274223" stroke="rgb(205, 179, 25)" stroke-opacity="1.0" stroke-linecap="round" stroke-linejoin="round" d="M 195.200439453125 102.15410614013672 C 228.5668487548828 81.87158203125 178.6556396484375 118.05403900146484 211.0618896484375 103.33589172363281 C 242.67494201660156 111.38436126708984 218.90611267089844 50.83820343017578 210.2239532470703 89.6906509399414 C 175.47189331054688 78.64420318603516 223.61288452148438 94.31912994384766 216.08883666992188 115.59915161132812 C 258.2055358886719 87.84835815429688 215.88473510742188 108.07430267333984 195.200439453125 102.15410614013672"/>
    <path stroke-width="0" fill="rgb(196, 158, 104)" opacity="-0.009073225" stroke="rgb(205, 145, 103)" stroke-opacity="1.0" stroke-linecap="round" stroke-linejoin="round" d="M 284.3240661621094 147.5787811279297 C 283.21099853515625 120.02242279052734 277.1851501464844 139.68115234375 288.90753173828125 129.55206298828125 C 287.3406677246094 155.45465087890625 275.5865478515625 142.66244506835938 296.1641540527344 148.0870819091797 C 295.7378234863281 146.01889038085938 278.2438659667969 116.65519714355469 288.3415832519531 146.91342163085938 C 284.62115478515625 126.61384582519531 290.0519104003906 137.93336486816406 284.3240661621094 147.5787811279297"/>
    <path stroke-width="0" fill="rgb(81, 70, 180)" opacity="0.26649356" stroke="rgb(177, 115, 184)" stroke-opacity="1.0" stroke-linecap="round" stroke-linejoin="round" d="M 162.72076416015625 185.06332397460938 C 165.81625366210938 203.58041381835938 161.8146209716797 204.3725128173828 167.74407958984375 200.2935333251953 C 167.0984649658203 216.7506561279297 154.41636657714844 218.49813842773438 161.4944610595703 221.54238891601562 C 161.6869659423828 200.74461364746094 165.44190979003906 206.16102600097656 160.21900939941406 213.1399383544922 C 170.4978790283203 202.3664093017578 165.43983459472656 202.9415283203125 162.72076416015625 185.06332397460938"/>
    <path stroke-width="0" fill="rgb(258, 95, 140)" opacity="0.9186294" stroke="rgb(248, 218, 2)" stroke-opacity="1.0" stroke-linecap="round" stroke-linejoin="round" d="M 290.954833984375 234.90972900390625 C 314.54241943359375 204.2285614013672 323.8298645019531 226.84117126464844 251.51927185058594 235.88343811035156 C 260.46734619140625 234.092529296875 243.5492401123047 226.87353515625 265.90045166015625 232.9434814453125 C 278.4660949707031 222.29588317871094 280.7067565917969 257.33111572265625 263.47833251953125 239.96742248535156 C 230.14303588867188 211.5753173828125 279.6639404296875 206.0952606201172 290.954833984375 234.90972900390625"/>
    <path stroke-width="0" fill="rgb(-48, 117, 191)" opacity="0.5992167" stroke="rgb(186, 43, 132)" stroke-opacity="1.0" stroke-linecap="round" stroke-linejoin="round" d="M 214.51303100585938 202.5373077392578 C 224.11509704589844 193.18231201171875 220.62574768066406 221.79115295410156 225.83505249023438 211.24322509765625 C 251.6727752685547 223.3222198486328 263.1687927246094 204.94590759277344 237.90049743652344 225.78623962402344 C 237.22650146484375 204.27684020996094 238.76490783691406 200.20953369140625 223.59317016601562 197.32240295410156 C 204.69998168945312 217.85447692871094 240.5848388671875 230.38829040527344 214.51303100585938 202.5373077392578"/>
    <path stroke-width="0" fill="rgb(285, 18, -5)" opacity="0.8880556" stroke="rgb(88, 236, 179)" stroke-opacity="1.0" stroke-linecap="round" stroke-linejoin="round" d="M 280.896728515625 265.49688720703125 C 274.6761779785156 232.7958221435547 292.6470642089844 235.8937530517578 311.50311279296875 251.56204223632812 C 295.994384765625 257.939697265625 286.17962646484375 259.3850402832031 297.1644287109375 254.1798095703125 C 323.11322021484375 255.91583251953125 337.92803955078125 264.5009765625 290.3705749511719 273.0018310546875 C 313.32452392578125 263.5894775390625 307.6633605957031 338.8511047363281 280.896728515625 265.49688720703125"/>
    <path stroke-width="0" fill="rgb(-39, -40, 72)" opacity="0.8855373" stroke="rgb(41, 158, 147)" stroke-opacity="1.0" stroke-linecap="round" stroke-linejoin="round" d="M 229.2927703857422 204.8659210205078 C 225.14088439941406 212.10279846191406 224.01219177246094 204.07699584960938 273.8153076171875 228.73098754882812 C 271.0632629394531 209.5080108642578 221.6785888671875 211.9699249267578 250.0205535888672 225.59896850585938 C 220.58056640625 203.58863830566406 251.21835327148438 209.36819458007812 239.72496032714844 216.0281219482422 C 243.12289428710938 214.4883575439453 244.8302001953125 197.83419799804688 229.2927703857422 204.8659210205078"/>
    <path stroke-width="0" fill="rgb(-34, 0, 8)" opacity="1.0349648" stroke="rgb(238, 156, 136)" stroke-opacity="1.0" stroke-linecap="round" stroke-linejoin="round" d="M 299.1184997558594 197.60496520996094 C 289.2651672363281 184.13995361328125 274.6119689941406 172.32925415039062 289.44195556640625 168.45632934570312 C 288.3875427246094 168.9528350830078 283.3306884765625 169.80471801757812 288.68487548828125 171.19888305664062 C 282.306396484375 184.31858825683594 284.4034423828125 178.8230743408203 309.8384704589844 205.14913940429688 C 281.28460693359375 177.3216094970703 287.0112609863281 174.56976318359375 299.1184997558594 197.60496520996094"/>
    <path stroke-width="0" fill="rgb(265, 57, 105)" opacity="0.066282876" stroke="rgb(186, 79, 101)" stroke-opacity="1.0" stroke-linecap="round" stroke-linejoin="round" d="M 162.45883178710938 214.02748107910156 C 159.30581665039062 212.068115234375 162.2239990234375 216.89608764648438 164.08078002929688 206.30160522460938 C 157.5561981201172 211.9359893798828 171.1488800048828 169.7690887451172 159.32632446289062 247.1984100341797 C 154.09751892089844 234.33416748046875 160.04652404785156 221.8668212890625 157.87413024902344 222.10671997070312 C 164.5043182373047 206.49539184570312 164.9273681640625 225.8459930419922 162.45883178710938 214.02748107910156"/>
    <path stroke-width="0" fill="rgb(164, 83, 117)" opacity="0.13981166" stroke="rgb(57, 64, 14)" stroke-opacity="1.0" stroke-linecap="round" stroke-linejoin="round" d="M 153.75875854492188 253.73643493652344 C 157.67715454101562 263.8023376464844 156.22528076171875 273.7668762207031 154.88829040527344 248.37539672851562 C 171.14366149902344 209.83480834960938 150.87863159179688 204.5408477783203 155.7747344970703 301.8519287109375 C 163.35166931152344 313.2566223144531 154.22601318359375 306.44171142578125 154.97193908691406 239.95645141601562 C 150.0192108154297 284.03265380859375 151.729248046875 264.9950866699219 153.75875854492188 253.73643493652344"/>
    <path stroke-width="0" fill="rgb(291, 267, 254)" opacity="0.9953317" stroke="rgb(6, 17, 173)" stroke-opacity="1.0" stroke-linecap="round" stroke-linejoin="round" d="M 348.822265625 374.7192077636719 C 346.6758117675781 412.8168029785156 373.61077880859375 352.9107360839844 346.8258361816406 364.06121826171875 C 365.2103271484375 322.78179931640625 306.5135498046875 369.129638671875 317.9961242675781 345.2255859375 C 284.2751159667969 292.231201171875 354.7889709472656 290.6595764160156 348.93212890625 349.2840881347656 C 304.4836730957031 348.2721252441406 328.52587890625 365.5707092285156 348.822265625 374.7192077636719"/>
    <path stroke-width="0" fill="rgb(217, 47, -107)" opacity="0.57096696" stroke="rgb(136, 228, 252)" stroke-opacity="1.0" stroke-linecap="round" stroke-linejoin="round" d="M 313.590576171875 261.8714904785156 C 399.3570251464844 331.4750061035156 381.4652099609375 300.602783203125 354.13897705078125 287.53424072265625 C 335.35491943359375 287.6888122558594 351.7558288574219 283.632080078125 354.12762451171875 287.10198974609375 C 357.8841857910156 403.4707336425781 363.68414306640625 371.5057067871094 357.8260803222656 307.60516357421875 C 345.7748718261719 306.39190673828125 351.0225524902344 271.4488525390625 313.590576171875 261.8714904785156"/>
    <path stroke-width="0" fill="rgb(-13, 5, 14)" opacity="0.87199104" stroke="rgb(81, 97, 150)" stroke-opacity="1.0" stroke-linecap="round" stroke-linejoin="round" d="M 251.42201232910156 215.9198760986328 C 242.4888153076172 195.21119689941406 210.53884887695312 212.73736572265625 262.5760498046875 234.60678100585938 C 247.96279907226562 222.07289123535156 222.02963256835938 217.65757751464844 254.37191772460938 236.2877960205078 C 268.7143859863281 252.4149932861328 277.81829833984375 246.92977905273438 265.5948791503906 247.96339416503906 C 257.79058837890625 227.11521911621094 255.34738159179688 231.60421752929688 251.42201232910156 215.9198760986328"/>
    <path stroke-width="0" fill="rgb(308, 295, 245)" opacity="0.9197078" stroke="rgb(160, 222, 69)" stroke-opacity="1.0" stroke-linecap="round" stroke-linejoin="round" d="M 184.6854705810547 382.7257385253906 C 196.7931365966797 385.48309326171875 165.8451690673828 421.9096984863281 166.50125122070312 380.40618896484375 C 164.01565551757812 386.6535339355469 169.3456573486328 387.29583740234375 162.09544372558594 398.60809326171875 C 180.54965209960938 359.50146484375 163.30284118652344 348.77734375 164.30087280273438 360.2171936035156 C 161.93978881835938 362.3913879394531 186.63722229003906 322.70843505859375 184.6854705810547 382.7257385253906"/>
    <path stroke-width="0" fill="rgb(12, 104, 202)" opacity="1.0110484" stroke="rgb(47, 242, 175)" stroke-opacity="1.0" stroke-linecap="round" stroke-linejoin="round" d="M 320.76873779296875 356.6597900390625 C 328.9569396972656 375.7643737792969 322.62689208984375 355.75311279296875 321.62030029296875 349.5943908691406 C 316.06182861328125 338.4744873046875 280.49066162109375 301.8287048339844 306.4650573730469 364.69683837890625 C 338.7565002441406 379.60577392578125 320.36956787109375 334.17169189453125 284.570068359375 315.9600524902344 C 322.3515319824219 343.7565612792969 298.646484375 326.1173095703125 320.76873779296875 356.6597900390625"/>
    <path stroke-width="0" fill="rgb(270, -17, -98)" opacity="0.80795753" stroke="rgb(241, 186, 64)" stroke-opacity="1.0" stroke-linecap="round" stroke-linejoin="round" d="M 283.85321044921875 260.06121826171875 C 275.7023620605469 218.3132781982422 281.08416748046875 244.1569061279297 305.0025329589844 243.8214111328125 C 321.5881652832031 242.75160217285156 306.84576416015625 240.69444274902344 318.302001953125 256.6668395996094 C 329.6403503417969 260.2943420410156 380.24261474609375 330.81341552734375 323.6700439453125 258.37725830078125 C 316.9961242675781 259.05072021484375 312.84771728515625 238.1033172607422 283.85321044921875 260.06121826171875"/>
    <path stroke-width="0" fill="rgb(-56, 29, -12)" opacity="0.49365535" stroke="rgb(132, 6, 52)" stroke-opacity="1.0" stroke-linecap="round" stroke-linejoin="round" d="M 204.8369598388672 89.22463989257812 C 205.56524658203125 100.26153564453125 196.2508544921875 81.03639221191406 197.42864990234375 99.18359375 C 202.93447875976562 96.58120727539062 221.88934326171875 67.13771057128906 188.53240966796875 121.22127532958984 C 220.21519470214844 64.33053588867188 212.36070251464844 53.71869659423828 229.3758544921875 68.22416687011719 C 220.2499237060547 49.45372009277344 198.4749298095703 92.21044921875 204.8369598388672 89.22463989257812"/>
    <path stroke-width="0" fill="rgb(38, 38, -55)" opacity="0.82174236" stroke="rgb(182, 100, 144)" stroke-opacity="1.0" stroke-linecap="round" stroke-linejoin="round" d="M 301.1335754394531 201.9820556640625 C 300.0242614746094 191.49024963378906 309.0960693359375 216.8814239501953 298.5797119140625 219.71949768066406 C 305.05535888671875 196.11695861816406 323.59051513671875 207.65306091308594 289.4976806640625 218.3894500732422 C 293.0323791503906 216.27101135253906 327.37066650390625 231.12225341796875 258.5982360839844 223.90248107910156 C 282.1582336425781 216.07215881347656 312.3367919921875 218.17913818359375 301.1335754394531 201.9820556640625"/>
    <path stroke-width="0" fill="rgb(35, 74, 152)" opacity="0.2734741" stroke="rgb(140, 149, 245)" stroke-opacity="1.0" stroke-linecap="round" stroke-linejoin="round" d="M 215.327392578125 71.49320983886719 C 226.4015655517578 92.002685546875 205.11444091796875 98.31029510498047 212.3918914794922 113.71611022949219 C 231.56321716308594 72.56646728515625 208.8946533203125 77.39224243164062 183.05508422851562 85.31578063964844 C 200.37222290039062 83.16902923583984 172.97030639648438 97.53620910644531 187.20481872558594 84.44328308105469 C 226.09060668945312 75.07496643066406 252.76220703125 75.14083862304688 215.327392578125 71.49320983886719"/>
    <path stroke-width="0" fill="rgb(256, 73, -32)" opacity="0.9956897" stroke="rgb(86, 245, 59)" stroke-opacity="1.0" stroke-linecap="round" stroke-linejoin="round" d="M 266.84637451171875 316.80078125 C 276.77362060546875 317.2942199707031 281.2839660644531 343.0228271484375 342.8434143066406 273.35797119140625 C 266.3882751464844 200.82986450195312 281.1968688964844 314.5376892089844 314.822998046875 288.7260437011719 C 298.8624572753906 350.03814697265625 256.6365966796875 316.28564453125 289.035400390625 288.0566101074219 C 328.96246337890625 280.546875 282.067138671875 340.8062438964844 266.84637451171875 316.80078125"/>
    <path stroke-width="0" fill="rgb(261, 263, 284)" opacity="-0.07863099" stroke="rgb(240, 203, 160)" stroke-opacity="1.0" stroke-linecap="round" stroke-linejoin="round" d="M 255.17994689941406 193.73780822753906 C 260.2568359375 203.4921112060547 268.6360778808594 212.8133544921875 298.9297790527344 233.9141845703125 C 302.98846435546875 218.25926208496094 307.8126525878906 218.37376403808594 306.7110900878906 212.15463256835938 C 309.97406005859375 257.02862548828125 271.043701171875 230.8487548828125 291.69122314453125 225.5517578125 C 251.09767150878906 204.6251678466797 258.7273254394531 227.56857299804688 255.17994689941406 193.73780822753906"/>
    <path stroke-width="0" fill="rgb(209, 196, -42)" opacity="0.5162898" stroke="rgb(88, 37, 250)" stroke-opacity="1.0" stroke-linecap="round" stroke-linejoin="round" d="M 268.22052001953125 355.13494873046875 C 289.0719299316406 309.71124267578125 271.81390380859375 323.4739685058594 285.2254638671875 327.6392822265625 C 288.789306640625 319.7074279785156 287.13201904296875 248.60922241210938 269.7281188964844 318.77423095703125 C 294.6734313964844 341.24029541015625 299.6831970214844 309.864013671875 318.7637939453125 317.6449890136719 C 254.97898864746094 307.2333679199219 286.87603759765625 385.4903564453125 268.22052001953125 355.13494873046875"/>
    <path stroke-width="0" fill="rgb(-20, 87, 169)" opacity="0.09587332" stroke="rgb(126, 163, 93)" stroke-opacity="1.0" stroke-linecap="round" stroke-linejoin="round" d="M 204.80101013183594 79.24072265625 C 207.43588256835938 66.24464416503906 213.01834106445312 73.19693756103516 214.35818481445312 69.33407592773438 C 217.63973999023438 71.08336639404297 218.43727111816406 38.031341552734375 216.10906982421875 72.26344299316406 C 208.81649780273438 71.24083709716797 227.42723083496094 60.32987594604492 227.43521118164062 61.4659423828125 C 199.11138916015625 58.41912841796875 217.5562744140625 79.19995880126953 204.80101013183594 79.24072265625"/>
    <path stroke-width="0" fill="rgb(-6, 100, 169)" opacity="0.20823842" stroke="rgb(209, 48, 130)" stroke-opacity="1.0" stroke-linecap="round" stroke-linejoin="round" d="M 215.60462951660156 47.61534118652344 C 192.562744140625 50.616615295410156 187.46961975097656 41.342491149902344 189.4743194580078 62.320308685302734 C 152.5958251953125 88.33122253417969 156.29830932617188 99.90572357177734 181.09890747070312 106.74141693115234 C 219.52841186523438 69.55552673339844 192.46681213378906 17.971458435058594 173.98899841308594 31.800722122192383 C 143.1250762939453 78.07127380371094 182.7914581298828 68.04629516601562 215.60462951660156 47.61534118652344"/>
    <path stroke-width="0" fill="rgb(335, 206, 148)" opacity="0.95484865" stroke="rgb(24, 219, 248)" stroke-opacity="1.0" stroke-linecap="round" stroke-linejoin="round" d="M 230.50357055664062 115.94097900390625 C 222.7417449951172 80.79720306396484 210.8992156982422 74.88874816894531 224.7360382080078 90.72408294677734 C 207.87049865722656 68.15889739990234 227.29205322265625 76.42929077148438 228.7606964111328 84.76883697509766 C 234.2111358642578 93.2764892578125 233.41973876953125 89.68939208984375 232.9108123779297 81.28655242919922 C 219.49429321289062 84.33021545410156 240.55775451660156 75.57661437988281 230.50357055664062 115.94097900390625"/>
    <path stroke-width="0" fill="rgb(338, 47, -68)" opacity="0.77172303" stroke="rgb(103, 59, 33)" stroke-opacity="1.0" stroke-linecap="round" stroke-linejoin="round" d="M 225.2509307861328 64.12934875488281 C 206.28115844726562 64.70116424560547 215.32492065429688 84.71261596679688 233.59982299804688 97.68209075927734 C 241.92935180664062 122.21932983398438 236.12738037109375 136.4432373046875 226.72918701171875 123.39788818359375 C 246.39852905273438 121.52784729003906 239.61865234375 79.36355590820312 211.7207489013672 94.37440490722656 C 214.8879852294922 75.71806335449219 224.2805633544922 80.78714752197266 225.2509307861328 64.12934875488281"/>
    <path stroke-width="0" fill="rgb(291, 174, -38)" opacity="0.53721964" stroke="rgb(185, 2, 196)" stroke-opacity="1.0" stroke-linecap="round" stroke-linejoin="round" d="M 184.76739501953125 101.76818084716797 C 199.59381103515625 85.13334655761719 194.62583923339844 115.36186218261719 206.91464233398438 87.10012817382812 C 204.16635131835938 172.18002319335938 212.19775390625 73.80550384521484 206.54287719726562 99.74403381347656 C 216.4123077392578 97.9342041015625 188.00950622558594 109.80953216552734 178.66395568847656 105.75515747070312 C 200.81973266601562 116.78836059570312 199.268798828125 85.17542266845703 184.76739501953125 101.76818084716797"/>
    <path stroke-width="0" fill="rgb(-26, 100, 159)" opacity="0.32499537" stroke="rgb(66, 116, 174)" stroke-opacity="1.0" stroke-linecap="round" stroke-linejoin="round" d="M 184.21441650390625 92.93518829345703 C 182.09312438964844 84.54419708251953 197.1446533203125 158.05270385742188 172.27963256835938 107.85079956054688 C 157.8858642578125 116.7821044921875 137.9834747314453 127.12519836425781 160.47540283203125 104.00457763671875 C 173.89935302734375 107.09500885009766 175.90255737304688 103.2005615234375 164.9580535888672 72.36087799072266 C 182.64141845703125 116.52253723144531 177.5549774169922 111.18931579589844 184.21441650390625 92.93518829345703"/>
    <path stroke-width="0" fill="rgb(134, 123, 93)" opacity="0.9886575" stroke="rgb(72, 96, 46)" stroke-opacity="1.0" stroke-linecap="round" stroke-linejoin="round" d="M 233.60018920898438 89.63311004638672 C 215.42161560058594 78.83489990234375 247.2419891357422 91.84215545654297 220.68307495117188 64.17272186279297 C 233.56114196777344 85.576171875 227.69964599609375 136.98028564453125 217.88150024414062 107.80886840820312 C 202.68560791015625 104.02865600585938 228.62045288085938 76.20652770996094 211.22837829589844 87.68702697753906 C 230.53663635253906 76.02748107910156 241.77532958984375 90.85011291503906 233.60018920898438 89.63311004638672"/>
    <path stroke-width="0" fill="rgb(9, 68, 195)" opacity="0.4742107" stroke="rgb(147, 244, 164)" stroke-opacity="1.0" stroke-linecap="round" stroke-linejoin="round" d="M 224.61996459960938 71.82466888427734 C 181.2479705810547 70.7597885131836 212.6919403076172 78.69613647460938 189.1571502685547 104.39051055908203 C 175.21510314941406 174.1343231201172 111.13975524902344 274.09344482421875 -50.30255126953125 116.7589340209961 C 187.786865234375 4.656396865844727 170.4248046875 69.82308197021484 227.38107299804688 74.80803680419922 C 231.8292694091797 73.0428237915039 219.43943786621094 78.63465118408203 224.61996459960938 71.82466888427734"/>
    <path stroke-width="0" fill="rgb(-8, 90, 176)" opacity="0.84631985" stroke="rgb(109, 130, 136)" stroke-opacity="1.0" stroke-linecap="round" stroke-linejoin="round" d="M 195.92440795898438 94.43588256835938 C 189.44541931152344 87.15750885009766 164.6336212158203 84.08546447753906 170.57864379882812 92.39965057373047 C 181.07676696777344 119.59370422363281 156.4458770751953 131.35372924804688 176.4613494873047 83.64049530029297 C 157.0510711669922 78.91238403320312 175.05477905273438 76.76287078857422 162.37933349609375 84.31632232666016 C 180.42308044433594 101.24584197998047 185.6748046875 125.36112213134766 195.92440795898438 94.43588256835938"/>
    <path stroke-width="0" fill="rgb(17, 77, 190)" opacity="0.123616874" stroke="rgb(70, 32, 100)" stroke-opacity="1.0" stroke-linecap="round" stroke-linejoin="round" d="M 290.42718505859375 120.3838119506836 C 300.681640625 118.43582916259766 285.05633544921875 127.98171997070312 305.23870849609375 127.2740707397461 C 277.3542175292969 117.61981964111328 301.30645751953125 112.11122131347656 301.22894287109375 137.2542724609375 C 307.3578796386719 122.5406265258789 312.5528869628906 104.07281494140625 322.98388671875 100.63008880615234 C 309.65985107421875 98.74200439453125 317.3146057128906 95.48899841308594 290.42718505859375 120.3838119506836"/>
    <path stroke-width="0" fill="rgb(267, 63, -49)" opacity="1.1450129" stroke="rgb(47, 230, 138)" stroke-opacity="1.0" stroke-linecap="round" stroke-linejoin="round" d="M 283.5743408203125 314.3925476074219 C 291.2396240234375 315.4377136230469 282.5158386230469 283.9867858886719 289.5985412597656 319.5978698730469 C 311.24176025390625 314.0539245605469 277.4039611816406 329.66888427734375 291.7689514160156 287.3370361328125 C 280.907958984375 237.54165649414062 285.5872497558594 255.2742156982422 278.0130310058594 325.7607116699219 C 272.364013671875 321.8616027832031 277.394775390625 307.8661804199219 283.5743408203125 314.3925476074219"/>
    <path stroke-width="0" fill="rgb(316, 186, 45)" opacity="0.41026774" stroke="rgb(224, 116, 184)" stroke-opacity="1.0" stroke-linecap="round" stroke-linejoin="round" d="M 301.18499755859375 103.66668701171875 C 302.5895690917969 111.26277160644531 316.0904541015625 77.38585662841797 292.68157958984375 119.60553741455078 C 288.27325439453125 127.33063507080078 297.4955749511719 105.32681274414062 286.322509765625 123.59143829345703 C 293.2484436035156 145.38038635253906 279.9248046875 125.99358367919922 285.736328125 131.18008422851562 C 288.0267028808594 117.89237213134766 278.2294921875 106.65472412109375 301.18499755859375 103.66668701171875"/>
    <path stroke-width="0" fill="rgb(315, 135, -77)" opacity="0.5634905" stroke="rgb(230, 175, 178)" stroke-opacity="1.0" stroke-linecap="round" stroke-linejoin="round" d="M 296.971923828125 90.46409606933594 C 301.0345458984375 113.62483215332031 278.10772705078125 119.83183288574219 274.4447937011719 129.97796630859375 C 297.7205810546875 123.92713928222656 272.3857727050781 103.51412963867188 281.557373046875 138.31753540039062 C 314.4029235839844 91.08071899414062 286.1660461425781 102.1817398071289 293.4270324707031 123.98656463623047 C 268.1531066894531 84.85228729248047 284.22222900390625 111.19441986083984 296.971923828125 90.46409606933594"/>
    <path stroke-width="0" fill="rgb(304, 205, 84)" opacity="0.5164008" stroke="rgb(203, 244, 116)" stroke-opacity="1.0" stroke-linecap="round" stroke-linejoin="round" d="M 273.99859619140625 132.99371337890625 C 286.1059265136719 111.62197875976562 295.62713623046875 95.27235412597656 288.0980529785156 127.0741195678711 C 312.6014099121094 86.94190216064453 287.6512145996094 111.81322479248047 295.38983154296875 109.35667419433594 C 293.3116149902344 106.25993347167969 277.86859130859375 126.2394790649414 304.02239990234375 103.24166107177734 C 288.5296630859375 125.10511779785156 297.23382568359375 117.92078399658203 273.99859619140625 132.99371337890625"/>
    <path stroke-width="0" fill="rgb(237, 118, -43)" opacity="0.35263404" stroke="rgb(65, 216, 8)" stroke-opacity="1.0" stroke-linecap="round" stroke-linejoin="round" d="M 290.2784729003906 111.5824966430664 C 277.02069091796875 136.80325317382812 280.9858703613281 151.4195556640625 283.6954040527344 128.36862182617188 C 278.9832458496094 132.10507202148438 288.6975402832031 124.42304992675781 282.2054748535156 172.29623413085938 C 279.4693298339844 156.88539123535156 286.62652587890625 151.5777130126953 256.995361328125 163.17886352539062 C 274.4661865234375 135.81546020507812 268.1492004394531 149.82583618164062 290.2784729003906 111.5824966430664"/>
    <path stroke-width="0" fill="rgb(-46, 30, 64)" opacity="0.8880376" stroke="rgb(90, 90, 4)" stroke-opacity="1.0" stroke-linecap="round" stroke-linejoin="round" d="M 280.511962890625 330.0972900390625 C 280.3558349609375 343.4634704589844 274.2419738769531 341.6974182128906 274.881591796875 340.5036315917969 C 274.1343994140625 326.3612365722656 257.27032470703125 320.634765625 286.6196594238281 367.1513671875 C 263.71728515625 389.22149658203125 277.08612060546875 346.0863952636719 281.1044921875 301.0506591796875 C 277.29998779296875 366.5713195800781 278.8659362792969 336.04718017578125 280.511962890625 330.0972900390625"/>
    <path stroke-width="0" fill="rgb(301, 37, -67)" opacity="0.5693389" stroke="rgb(221, 115, 83)" stroke-opacity="1.0" stroke-linecap="round" stroke-linejoin="round" d="M 303.5604553222656 236.30325317382812 C 303.7286071777344 188.62399291992188 310.9991149902344 212.79598999023438 296.3350524902344 240.81687927246094 C 277.65869140625 183.15733337402344 273.12603759765625 152.33583068847656 274.26104736328125 172.5259552001953 C 269.88385009765625 137.22174072265625 267.47412109375 140.01715087890625 262.3836364746094 180.5199737548828 C 282.42059326171875 164.09422302246094 293.64788818359375 181.3644561767578 303.5604553222656 236.30325317382812"/>
    <path stroke-width="0" fill="rgb(-21, 83, 163)" opacity="0.10624114" stroke="rgb(17, 64, 56)" stroke-opacity="1.0" stroke-linecap="round" stroke-linejoin="round" d="M 168.38616943359375 133.33660888671875 C 170.97694396972656 120.36178588867188 160.97891235351562 126.84986114501953 168.9822540283203 178.27822875976562 C 174.63160705566406 180.75830078125 165.82749938964844 156.00469970703125 152.08360290527344 157.07736206054688 C 168.8306884765625 160.6281280517578 177.32301330566406 122.8622055053711 136.58865356445312 125.44340515136719 C 159.8709259033203 146.13522338867188 180.97145080566406 151.6123809814453 168.38616943359375 133.33660888671875"/>
    <path stroke-width="0" fill="rgb(289, 273, 0)" opacity="0.23753771" stroke="rgb(33, 3, 29)" stroke-opacity="1.0" stroke-linecap="round" stroke-linejoin="round" d="M 200.40283203125 139.60324096679688 C 203.45700073242188 138.17807006835938 205.40298461914062 158.61805725097656 181.72335815429688 166.055908203125 C 204.6849365234375 130.0094757080078 197.98989868164062 121.69466400146484 183.98223876953125 126.38578033447266 C 170.43472290039062 146.5438232421875 196.12777709960938 146.06541442871094 184.0277557373047 175.68223571777344 C 177.5296173095703 176.95892333984375 178.1863555908203 164.977294921875 200.40283203125 139.60324096679688"/>
    <path stroke-width="0" fill="rgb(-36, -37, 5)" opacity="0.9640873" stroke="rgb(162, 125, 252)" stroke-opacity="1.0" stroke-linecap="round" stroke-linejoin="round" d="M 287.2013244628906 220.5933380126953 C 297.32989501953125 265.3240966796875 283.7591247558594 206.15782165527344 307.4619140625 248.09625244140625 C 284.37481689453125 222.68838500976562 293.6112365722656 215.53196716308594 296.3959655761719 235.84629821777344 C 294.30255126953125 183.7746124267578 282.58441162109375 204.66148376464844 284.9747314453125 207.07107543945312 C 285.3761901855469 233.29417419433594 310.3882751464844 264.7814636230469 287.2013244628906 220.5933380126953"/>
    <path stroke-width="0" fill="rgb(96, 106, 100)" opacity="0.7353987" stroke="rgb(199, 73, 61)" stroke-opacity="1.0" stroke-linecap="round" stroke-linejoin="round" d="M 313.20257568359375 217.10995483398438 C 298.4892578125 217.6138153076172 290.013427734375 219.64752197265625 309.5894470214844 235.7279052734375 C 297.98321533203125 226.03897094726562 303.2611389160156 213.0471649169922 284.57025146484375 229.52410888671875 C 304.81658935546875 242.27374267578125 312.78826904296875 230.52259826660156 291.3623046875 224.18614196777344 C 292.9974060058594 224.02627563476562 314.21441650390625 204.90936279296875 313.20257568359375 217.10995483398438"/>
    <path stroke-width="0" fill="rgb(140, 236, 152)" opacity="0.50567865" stroke="rgb(91, 211, 235)" stroke-opacity="1.0" stroke-linecap="round" stroke-linejoin="round" d="M 277.83740234375 199.66285705566406 C 285.3459777832031 201.7971954345703 319.5422668457031 188.3231964111328 301.4559326171875 240.59364318847656 C 305.7867126464844 236.8072509765625 335.6903991699219 215.8133544921875 274.0308532714844 220.00294494628906 C 315.51751708984375 218.47727966308594 323.8363037109375 216.37640380859375 322.3567810058594 218.6708221435547 C 317.64007568359375 204.22947692871094 287.40350341796875 204.27450561523438 277.83740234375 199.66285705566406"/>
    <path stroke-width="0" fill="rgb(266, 264, 260)" opacity="1.0000327" stroke="rgb(247, 230, 75)" stroke-opacity="1.0" stroke-linecap="round" stroke-linejoin="round" d="M 202.62925720214844 215.88331604003906 C 206.73028564453125 206.3126220703125 198.4209442138672 185.39572143554688 228.9981231689453 199.2951202392578 C 215.74130249023438 202.12857055664062 225.04391479492188 208.7406463623047 237.3330841064453 224.29225158691406 C 232.7926483154297 237.9599151611328 187.03289794921875 216.40960693359375 203.3717803955078 170.78329467773438 C 224.87062072753906 174.47225952148438 202.03167724609375 190.34951782226562 202.62925720214844 215.88331604003906"/>
    <path stroke-width="0" fill="rgb(117, 244, 349)" opacity="0.9301178" stroke="rgb(63, 27, 242)" stroke-opacity="1.0" stroke-linecap="round" stroke-linejoin="round" d="M 297.18829345703125 222.9251251220703 C 285.9402160644531 227.77500915527344 307.93548583984375 211.48004150390625 306.1875915527344 215.66656494140625 C 308.0890197753906 189.15451049804688 302.5931396484375 229.6363525390625 262.2752380371094 222.38385009765625 C 233.9093475341797 204.5192413330078 224.8985595703125 198.59217834472656 267.0301513671875 216.20004272460938 C 329.6835632324219 217.14334106445312 330.9356689453125 197.00685119628906 297.18829345703125 222.9251251220703"/>
    <path stroke-width="0" fill="rgb(-6, -23, -15)" opacity="0.57416487" stroke="rgb(69, 96, 95)" stroke-opacity="1.0" stroke-linecap="round" stroke-linejoin="round" d="M 308.9390869140625 208.8938446044922 C 280.9425048828125 235.98118591308594 310.02569580078125 252.2030029296875 320.10888671875 246.623779296875 C 301.17181396484375 232.7058563232422 287.057861328125 234.8737030029297 298.3282775878906 221.11825561523438 C 304.6484680175781 244.93658447265625 300.7950134277344 232.3617401123047 283.5531005859375 204.66807556152344 C 312.3787841796875 196.17803955078125 293.81787109375 224.56961059570312 308.9390869140625 208.8938446044922"/>
    <path stroke-width="0" fill="rgb(315, 177, -56)" opacity="0.7605197" stroke="rgb(213, 60, 128)" stroke-opacity="1.0" stroke-linecap="round" stroke-linejoin="round" d="M 212.91928100585938 77.76919555664062 C 251.4783935546875 73.02056884765625 232.7196502685547 104.84796142578125 232.5444793701172 89.38373565673828 C 216.76516723632812 76.58635711669922 195.33013916015625 92.6981201171875 222.3760986328125 65.3376235961914 C 231.5777587890625 88.82540130615234 242.5469970703125 66.28619384765625 224.25962829589844 62.09937286376953 C 214.62765502929688 73.03292083740234 244.268310546875 88.3415756225586 212.91928100585938 77.76919555664062"/>
    <path stroke-width="0" fill="rgb(241, 251, 127)" opacity="0.27057126" stroke="rgb(18, 74, 38)" stroke-opacity="1.0" stroke-linecap="round" stroke-linejoin="round" d="M 272.5626525878906 253.797607421875 C 268.8025207519531 259.33209228515625 272.4894714355469 262.08660888671875 263.9408264160156 249.24009704589844 C 203.38253784179688 256.0869445800781 219.15028381347656 249.235595703125 193.82540893554688 208.013427734375 C 242.558349609375 251.28411865234375 268.4320983886719 241.45004272460938 218.86537170410156 241.5816192626953 C 203.25350952148438 255.02044677734375 252.34034729003906 251.7563934326172 272.5626525878906 253.797607421875"/>
    <path stroke-width="0" fill="rgb(178, 131, 132)" opacity="0.3516025" stroke="rgb(33, 154, 97)" stroke-opacity="1.0" stroke-linecap="round" stroke-linejoin="round" d="M 226.2811279296875 62.161407470703125 C 200.76910400390625 69.0964584350586 212.57699584960938 87.11309051513672 208.18992614746094 90.44551849365234 C 214.8563232421875 90.76904296875 208.73634338378906 72.77320098876953 215.4850311279297 86.45472717285156 C 205.7217254638672 96.73918151855469 233.3230438232422 57.89636993408203 204.17564392089844 84.14791870117188 C 212.4292449951172 70.67865753173828 216.03480529785156 67.51615142822266 226.2811279296875 62.161407470703125"/>
    <path stroke-width="0" fill="rgb(-3, 103, 130)" opacity="0.975437" stroke="rgb(246, 139, 70)" stroke-opacity="1.0" stroke-linecap="round" stroke-linejoin="round" d="M 310.54815673828125 237.29913330078125 C 286.7406921386719 240.3054656982422 268.3205871582031 230.93955993652344 326.3562927246094 235.54371643066406 C 317.27667236328125 239.82192993164062 302.05157470703125 228.98562622070312 277.66827392578125 239.99050903320312 C 294.09674072265625 228.0251007080078 278.9909973144531 234.37535095214844 307.8647155761719 205.5303955078125 C 264.9569396972656 172.06710815429688 334.85174560546875 202.09716796875 310.54815673828125 237.29913330078125"/>
    <path stroke-width="0" fill="rgb(142, 96, 66)" opacity="0.014599519" stroke="rgb(228, 103, 140)" stroke-opacity="1.0" stroke-linecap="round" stroke-linejoin="round" d="M 219.32574462890625 93.62162017822266 C 214.0966796875 73.44474029541016 220.38211059570312 74.73600006103516 225.6292266845703 92.09739685058594 C 202.83502197265625 62.74000930786133 200.8301239013672 66.82464599609375 209.05174255371094 65.87914276123047 C 207.17111206054688 64.08916473388672 209.9123992919922 69.5362777709961 207.52696228027344 44.16388702392578 C 215.90609741210938 76.18920135498047 234.24795532226562 98.43040466308594 219.32574462890625 93.62162017822266"/>
    <path stroke-width="0" fill="rgb(-32, 93, 173)" opacity="1.0006281" stroke="rgb(116, 102, 63)" stroke-opacity="1.0" stroke-linecap="round" stroke-linejoin="round" d="M 325.6717834472656 188.26039123535156 C 284.61236572265625 219.8007049560547 289.91998291015625 230.01632690429688 306.5980529785156 220.67056274414062 C 292.3941345214844 228.52430725097656 277.18878173828125 216.94033813476562 283.0502624511719 231.35914611816406 C 301.47821044921875 257.30157470703125 307.6387023925781 236.3590545654297 296.4278564453125 240.97853088378906 C 309.4359436035156 249.53668212890625 342.11419677734375 275.0788269042969 325.6717834472656 188.26039123535156"/>
    <path stroke-width="0" fill="rgb(193, 33, 114)" opacity="0.5753324" stroke="rgb(79, 95, 133)" stroke-opacity="1.0" stroke-linecap="round" stroke-linejoin="round" d="M 233.7895965576172 96.32269287109375 C 249.12661743164062 96.03133392333984 253.40208435058594 95.77999114990234 235.6123504638672 96.9186019897461 C 229.58865356445312 95.81072235107422 239.60537719726562 113.59219360351562 226.41458129882812 67.55764770507812 C 248.20921325683594 93.61693572998047 233.88475036621094 105.081787109375 236.55563354492188 98.12503051757812 C 232.33132934570312 85.1674575805664 242.18406677246094 104.52466583251953 233.7895965576172 96.32269287109375"/>
    <path stroke-width="0" fill="rgb(13, 109, 132)" opacity="0.12791838" stroke="rgb(85, 235, 219)" stroke-opacity="1.0" stroke-linecap="round" stroke-linejoin="round" d="M 317.7149963378906 245.74534606933594 C 313.4549255371094 245.3985595703125 305.2936096191406 242.29055786132812 353.9140930175781 244.75086975097656 C 338.96929931640625 250.17709350585938 339.1630859375 243.2278594970703 339.8916931152344 227.73974609375 C 354.429443359375 285.701904296875 318.1685791015625 278.40228271484375 338.1489562988281 241.9198455810547 C 303.3860168457031 238.46595764160156 363.1026306152344 257.7496643066406 317.7149963378906 245.74534606933594"/>
    <path stroke-width="0" fill="rgb(320, 167, -17)" opacity="0.7819984" stroke="rgb(64, 113, 26)" stroke-opacity="1.0" stroke-linecap="round" stroke-linejoin="round" d="M 296.90411376953125 102.5147705078125 C 295.7264709472656 77.72256469726562 320.9483947753906 107.3233413696289 299.9144287109375 95.67729187011719 C 302.3716735839844 111.21121978759766 278.6750793457031 141.94149780273438 290.0231628417969 111.0674057006836 C 310.6820068359375 108.9362564086914 308.8471984863281 84.3108901977539 289.2897644042969 113.27018737792969 C 310.64599609375 105.43248748779297 298.1269226074219 93.66812133789062 296.90411376953125 102.5147705078125"/>
    <path stroke-width="0" fill="rgb(25, 83, 140)" opacity="-0.030535983" stroke="rgb(0, 0, 0)" stroke-opacity="0.0" stroke-linecap="round" stroke-linejoin="round" d="M 131.24684143066406 16.743330001831055 C 133.13697814941406 22.653886795043945 131.2321319580078 25.373336791992188 123.25740814208984 24.069738388061523 C 124.7535629272461 26.365514755249023 124.60121154785156 27.541528701782227 124.63212585449219 13.905754089355469 C 120.00039672851562 14.558404922485352 130.56936645507812 15.523754119873047 127.6090087890625 16.021448135375977 C 127.68464660644531 13.621402740478516 131.9948272705078 10.354483604431152 131.24684143066406 16.743330001831055"/>
    <path stroke-width="0" fill="rgb(54, 104, 106)" opacity="-0.006168186" stroke="rgb(0, 0, 0)" stroke-opacity="0.0" stroke-linecap="round" stroke-linejoin="round" d="M 446.63763427734375 10.398500442504883 C 448.9234924316406 20.142175674438477 448.11859130859375 22.42194366455078 445.23162841796875 23.272138595581055 C 443.3518981933594 20.153425216674805 440.3517150878906 16.829498291015625 437.34100341796875 15.682464599609375 C 429.4852294921875 9.67193603515625 434.0240478515625 8.692853927612305 438.3486328125 10.082271575927734 C 449.6968994140625 6.024919509887695 455.158203125 10.448283195495605 446.63763427734375 10.398500442504883"/>
    <path stroke-width="0" fill="rgb(9, 122, 139)" opacity="-0.006007824" stroke="rgb(0, 0, 0)" stroke-opacity="0.0" stroke-linecap="round" stroke-linejoin="round" d="M 14.454246520996094 -3.3009140491485596 C 19.67998504638672 9.177623748779297 18.063064575195312 11.577507972717285 15.324797630310059 5.618110179901123 C 19.625526428222656 15.949028968811035 12.068732261657715 14.787444114685059 5.014649391174316 6.7901787757873535 C 10.81032657623291 1.9842336177825928 13.536969184875488 -1.6218798160552979 20.95017433166504 -3.972524404525757 C 25.95378303527832 -2.431492567062378 24.316709518432617 -0.9245772361755371 14.454246520996094 -3.3009140491485596"/>
    <path stroke-width="0" fill="rgb(16, 89, 227)" opacity="0.13235347" stroke="rgb(0, 0, 0)" stroke-opacity="0.0" stroke-linecap="round" stroke-linejoin="round" d="M 21.16896629333496 -2.112353563308716 C 21.380353927612305 12.104653358459473 22.916749954223633 26.52334213256836 16.258747100830078 24.152502059936523 C -6.457459449768066 25.896263122558594 -1.9659682512283325 27.911468505859375 -2.347503185272217 11.880358695983887 C -2.1004326343536377 2.2761881351470947 -0.34236639738082886 -5.305866241455078 10.29982852935791 -3.852189779281616 C 13.214166641235352 2.2106616497039795 12.231965065002441 1.3429503440856934 21.16896629333496 -2.112353563308716"/>
    <path stroke-width="0" fill="rgb(39, 101, 112)" opacity="-0.05015352" stroke="rgb(0, 0, 0)" stroke-opacity="0.0" stroke-linecap="round" stroke-linejoin="round" d="M 63.59114456176758 17.28611946105957 C 64.3077621459961 28.55315589904785 64.22836303710938 27.343029022216797 49.62297058105469 27.641773223876953 C 48.52017593383789 31.28867530822754 51.03435516357422 25.62809181213379 50.89530563354492 13.11660385131836 C 44.55311584472656 7.4697113037109375 46.58201599121094 5.429973125457764 47.02362060546875 15.398900985717773 C 55.32197189331055 17.048145294189453 59.721946716308594 12.160066604614258 63.59114456176758 17.28611946105957"/>
    <path stroke-width="0" fill="rgb(80, 62, 220)" opacity="0.124365866" stroke="rgb(0, 0, 0)" stroke-opacity="0.0" stroke-linecap="round" stroke-linejoin="round" d="M 17.996797561645508 5.769512176513672 C 17.507511138916016 4.581399917602539 15.753684043884277 7.121703147888184 9.232858657836914 10.602059364318848 C -0.3438147306442261 24.437835693359375 -3.2864198684692383 27.46123504638672 1.2202205657958984 14.941681861877441 C 3.3520169258117676 1.404848337173462 0.8270352482795715 -4.515510082244873 15.210680961608887 -6.241790771484375 C 19.581417083740234 -1.6486519575119019 16.378217697143555 5.502579212188721 17.996797561645508 5.769512176513672"/>
    <path stroke-width="0" fill="rgb(118, 66, 149)" opacity="0.11883927" stroke="rgb(0, 0, 0)" stroke-opacity="0.0" stroke-linecap="round" stroke-linejoin="round" d="M 1.2570825815200806 -6.655773162841797 C -0.5111275315284729 -2.5638840198516846 -2.1826391220092773 -0.04254712536931038 1.891806960105896 25.04549789428711 C 3.5515801906585693 35.037113189697266 -8.194253921508789 25.094554901123047 -6.797985076904297 9.768656730651855 C -1.891053557395935 0.405823290348053 1.0371496677398682 -2.5223798751831055 5.331876754760742 -3.8086094856262207 C 9.666107177734375 -3.559802532196045 12.15905475616455 -2.2495481967926025 1.2570825815200806 -6.655773162841797"/>
    <path stroke-width="0" fill="rgb(46, 126, 110)" opacity="-0.08040201" stroke="rgb(0, 0, 0)" stroke-opacity="0.0" stroke-linecap="round" stroke-linejoin="round" d="M 9.181981086730957 -0.6977205872535706 C 14.94062328338623 6.662750244140625 21.386775970458984 6.869595050811768 11.02293872833252 5.538441181182861 C -5.981099605560303 11.435442924499512 -11.141444206237793 3.3775410652160645 4.775404453277588 0.763428270816803 C 10.01023006439209 -0.1716582477092743 7.886984348297119 -5.9830641746521 10.923172950744629 -7.401985168457031 C 14.873406410217285 -6.351407051086426 17.450416564941406 -3.60988187789917 9.181981086730957 -0.6977205872535706"/>
    <path stroke-width="0" fill="rgb(45, 118, 140)" opacity="0.20719162" stroke="rgb(0, 0, 0)" stroke-opacity="0.0" stroke-linecap="round" stroke-linejoin="round" d="M 274.7984924316406 -1.046462059020996 C 272.50396728515625 -2.392026424407959 269.8297119140625 0.4457579255104065 273.1216125488281 2.142068862915039 C 271.63824462890625 -6.466015338897705 255.7597198486328 -3.322591543197632 258.77880859375 1.8203823566436768 C 255.7489013671875 -0.5754722952842712 259.92724609375 -2.992110013961792 268.437255859375 -4.964572429656982 C 276.3927307128906 -6.294095516204834 277.0536193847656 -4.980818748474121 274.7984924316406 -1.046462059020996"/>
    <path stroke-width="0" fill="rgb(-7, 118, 158)" opacity="0.084924184" stroke="rgb(0, 0, 0)" stroke-opacity="0.0" stroke-linecap="round" stroke-linejoin="round" d="M 34.697452545166016 -2.3070101737976074 C 35.66228103637695 7.608582019805908 34.20119857788086 10.904345512390137 34.31412124633789 3.0446059703826904 C 29.635723114013672 6.9568681716918945 28.498207092285156 7.731022834777832 31.33209991455078 2.744062662124634 C 23.808107376098633 -3.872079849243164 25.26741600036621 -4.846628665924072 29.007049560546875 -5.83742094039917 C 33.180294036865234 -4.753464221954346 31.660972595214844 -0.34400486946105957 34.697452545166016 -2.3070101737976074"/>
    <path stroke-width="0" fill="rgb(51, 88, 143)" opacity="-0.016925072" stroke="rgb(0, 0, 0)" stroke-opacity="0.0" stroke-linecap="round" stroke-linejoin="round" d="M 51.25410079956055 10.18299674987793 C 57.703372955322266 17.453758239746094 60.52790069580078 23.32476806640625 52.88623046875 20.977344512939453 C 48.87431335449219 24.553014755249023 43.23092269897461 23.81649398803711 45.070518493652344 20.01251220703125 C 44.233154296875 12.692440032958984 48.925697326660156 11.810147285461426 55.363853454589844 10.262467384338379 C 52.76499557495117 12.023149490356445 52.663238525390625 14.33055305480957 51.25410079956055 10.18299674987793"/>
    <path stroke-width="0" fill="rgb(36, 95, 118)" opacity="-0.05217498" stroke="rgb(0, 0, 0)" stroke-opacity="0.0" stroke-linecap="round" stroke-linejoin="round" d="M 37.84244918823242 8.177255630493164 C 35.23801803588867 12.170775413513184 37.493927001953125 21.115245819091797 37.825191497802734 10.525510787963867 C 26.527042388916016 13.315930366516113 22.97496223449707 16.2606258392334 21.97933578491211 14.115653038024902 C 27.10435676574707 2.0644543170928955 27.133169174194336 -3.73292875289917 32.965003967285156 -4.85845422744751 C 40.910953521728516 -1.8331079483032227 40.3376579284668 3.170499086380005 37.84244918823242 8.177255630493164"/>
    <path stroke-width="0" fill="rgb(62, 56, 215)" opacity="0.10672991" stroke="rgb(0, 0, 0)" stroke-opacity="0.0" stroke-linecap="round" stroke-linejoin="round" d="M 244.35574340820312 80.7729721069336 C 243.3477020263672 88.54656982421875 255.17745971679688 84.57865142822266 251.23175048828125 87.28893280029297 C 231.91311645507812 88.8099136352539 234.52932739257812 85.25505065917969 232.15777587890625 76.53652954101562 C 235.47157287597656 74.2755126953125 238.89772033691406 79.27220916748047 236.4512481689453 80.71903991699219 C 241.56594848632812 66.92020416259766 258.5271301269531 73.27672576904297 244.35574340820312 80.7729721069336"/>
    <path stroke-width="0" fill="rgb(102, 85, 106)" opacity="0.02365883" stroke="rgb(0, 0, 0)" stroke-opacity="0.0" stroke-linecap="round" stroke-linejoin="round" d="M 95.06099700927734 453.4665222167969 C 91.16559600830078 451.4451904296875 92.80506134033203 452.7747802734375 92.32660675048828 448.3379211425781 C 91.1723403930664 451.5351257324219 88.63621520996094 447.1427917480469 88.85262298583984 449.5633544921875 C 88.50959777832031 449.0807800292969 85.98056030273438 443.07293701171875 80.92318725585938 449.18328857421875 C 84.41691589355469 456.01641845703125 91.03636169433594 455.9270935058594 95.06099700927734 453.4665222167969"/>
    <path stroke-width="0" fill="rgb(42, 96, 95)" opacity="0.0142460475" stroke="rgb(0, 0, 0)" stroke-opacity="0.0" stroke-linecap="round" stroke-linejoin="round" d="M 62.79564666748047 405.0218200683594 C 70.87183380126953 406.1000671386719 67.58393859863281 407.1858825683594 62.376121520996094 407.7794494628906 C 59.172637939453125 405.8605651855469 57.172733306884766 402.2095947265625 57.22720718383789 400.6680908203125 C 51.59126281738281 394.4612731933594 52.52961349487305 389.5477294921875 60.446102142333984 391.94598388671875 C 63.62992858886719 393.539794921875 63.101280212402344 399.2772216796875 62.79564666748047 405.0218200683594"/>
    <path stroke-width="0" fill="rgb(92, 48, 177)" opacity="0.015416997" stroke="rgb(0, 0, 0)" stroke-opacity="0.0" stroke-linecap="round" stroke-linejoin="round" d="M 28.316204071044922 -2.356344223022461 C 27.37152671813965 6.864165782928467 29.619211196899414 12.857605934143066 23.87293815612793 6.572052001953125 C 27.96206283569336 7.986898899078369 30.516334533691406 1.6107463836669922 26.603961944580078 -9.294336318969727 C 20.115108489990234 -3.9630367755889893 23.043787002563477 -6.891108989715576 27.043367385864258 -7.962973117828369 C 31.026105880737305 -6.894745349884033 33.56560134887695 -4.136622905731201 28.316204071044922 -2.356344223022461"/>
    <path stroke-width="0" fill="rgb(51, 77, 181)" opacity="0.15399933" stroke="rgb(0, 0, 0)" stroke-opacity="0.0" stroke-linecap="round" stroke-linejoin="round" d="M 159.3549041748047 41.87385177612305 C 159.8387451171875 53.68441390991211 158.1470184326172 57.293216705322266 145.84327697753906 48.053077697753906 C 149.25640869140625 54.9180908203125 152.11856079101562 50.40135192871094 150.7053680419922 43.51747512817383 C 152.13172912597656 41.96232223510742 156.25076293945312 42.770938873291016 160.84130859375 32.561893463134766 C 154.43983459472656 31.74335289001465 150.31826782226562 39.51911163330078 159.3549041748047 41.87385177612305"/>
    <path stroke-width="0" fill="rgb(225, 55, 58)" opacity="0.7484325" stroke="rgb(0, 0, 0)" stroke-opacity="0.0" stroke-linecap="round" stroke-linejoin="round" d="M 14.258832931518555 -16.695833206176758 C 13.18703556060791 -12.695834159851074 10.258832931518555 -9.767630577087402 6.2588324546813965 -8.695834159851074 C 2.2588326930999756 -9.767630577087402 -0.6693705320358276 -12.695834159851074 -1.7411673069000244 -16.695833206176758 C -0.6693705320358276 -20.695833206176758 2.2588326930999756 -23.62403678894043 6.2588324546813965 -24.695833206176758 C 10.258832931518555 -23.62403678894043 13.18703556060791 -20.695833206176758 14.258832931518555 -16.695833206176758"/>
    <path stroke-width="0" fill="rgb(26, 123, 113)" opacity="-0.08669111" stroke="rgb(0, 0, 0)" stroke-opacity="0.0" stroke-linecap="round" stroke-linejoin="round" d="M 24.245389938354492 9.274883270263672 C 22.601524353027344 26.75438117980957 26.39690589904785 23.913127899169922 19.755664825439453 26.86983871459961 C 3.871511459350586 27.36872100830078 0.22356432676315308 24.53066062927246 -1.5676854848861694 23.96530532836914 C -4.910533428192139 4.215996265411377 -4.986988067626953 1.450336217880249 6.686796188354492 1.2842007875442505 C 14.235069274902344 10.695499420166016 22.55021095275879 8.471644401550293 24.245389938354492 9.274883270263672"/>
    <path stroke-width="0" fill="rgb(87, 90, 83)" opacity="-0.087808624" stroke="rgb(0, 0, 0)" stroke-opacity="0.0" stroke-linecap="round" stroke-linejoin="round" d="M 161.7997283935547 194.98074340820312 C 159.69387817382812 202.79872131347656 154.734375 208.22377014160156 154.41136169433594 206.72264099121094 C 137.44610595703125 206.88343811035156 134.6617889404297 206.33485412597656 139.3086700439453 199.84767150878906 C 140.3568115234375 198.4479217529297 140.37283325195312 198.31678771972656 147.58441162109375 202.0181121826172 C 152.03097534179688 199.28500366210938 154.8672332763672 199.663330078125 161.7997283935547 194.98074340820312"/>
    <path stroke-width="0" fill="rgb(101, 85, 60)" opacity="-0.003322176" stroke="rgb(0, 0, 0)" stroke-opacity="0.0" stroke-linecap="round" stroke-linejoin="round" d="M 36.64870071411133 226.8541259765625 C 36.82051467895508 230.16162109375 40.90541076660156 237.39190673828125 38.34007263183594 234.11648559570312 C 22.554706573486328 230.48648071289062 18.45501708984375 230.56021118164062 23.1070556640625 223.64865112304688 C 21.751667022705078 218.6490020751953 26.76097869873047 214.60009765625 31.748483657836914 212.72052001953125 C 36.454769134521484 216.38427734375 38.48999786376953 220.75961303710938 36.64870071411133 226.8541259765625"/>
    <path stroke-width="0" fill="rgb(52, 112, 108)" opacity="0.013049773" stroke="rgb(0, 0, 0)" stroke-opacity="0.0" stroke-linecap="round" stroke-linejoin="round" d="M 89.10923767089844 433.4312744140625 C 94.47207641601562 434.1131591796875 92.41471862792969 442.71563720703125 87.40119934082031 442.3993835449219 C 77.42730712890625 438.70611572265625 74.18428802490234 434.1159362792969 76.32291412353516 429.21026611328125 C 79.84083557128906 428.43310546875 82.06234741210938 426.1036071777344 80.42752838134766 426.86602783203125 C 81.6639633178711 429.50146484375 83.32156372070312 433.1541748046875 89.10923767089844 433.4312744140625"/>
    <path stroke-width="0" fill="rgb(102, 64, 181)" opacity="0.1113803" stroke="rgb(0, 0, 0)" stroke-opacity="0.0" stroke-linecap="round" stroke-linejoin="round" d="M 182.07781982421875 179.30577087402344 C 177.15695190429688 178.0526580810547 175.1615447998047 168.3697052001953 167.87034606933594 167.74566650390625 C 173.42625427246094 177.80819702148438 172.6649627685547 166.21627807617188 168.58380126953125 153.6515655517578 C 166.54342651367188 157.02020263671875 165.53604125976562 151.64422607421875 163.1479949951172 161.44430541992188 C 167.4244842529297 163.07110595703125 172.6376495361328 164.3875274658203 182.07781982421875 179.30577087402344"/>
    <path stroke-width="0" fill="rgb(191, 351, 60)" opacity="0.1935763" stroke="rgb(0, 0, 0)" stroke-opacity="0.0" stroke-linecap="round" stroke-linejoin="round" d="M 342.9975280761719 291.4584655761719 C 343.7243347167969 309.44427490234375 340.7399597167969 317.4889221191406 338.7696228027344 328.8381042480469 C 344.78521728515625 336.3576354980469 344.1805419921875 316.7926940917969 352.099609375 305.273193359375 C 345.5197448730469 299.9517517089844 349.3268737792969 307.37152099609375 352.8701477050781 308.4668884277344 C 350.6605224609375 303.4676513671875 354.9729309082031 301.2970886230469 342.9975280761719 291.4584655761719"/>
    <path stroke-width="0" fill="rgb(12, 150, 92)" opacity="0.032001305" stroke="rgb(0, 0, 0)" stroke-opacity="0.0" stroke-linecap="round" stroke-linejoin="round" d="M 359.4054870605469 238.80319213867188 C 355.3284912109375 238.32623291015625 354.28302001953125 235.68045043945312 341.69049072265625 232.92764282226562 C 337.95501708984375 242.32339477539062 328.71234130859375 246.37387084960938 344.599609375 252.8307342529297 C 345.2808532714844 240.64645385742188 344.61468505859375 230.52207946777344 343.24822998046875 231.7967529296875 C 344.6396789550781 234.65924072265625 350.81939697265625 234.98875427246094 359.4054870605469 238.80319213867188"/>
    <path stroke-width="0" fill="rgb(88, 85, 94)" opacity="-0.0005694366" stroke="rgb(0, 0, 0)" stroke-opacity="0.0" stroke-linecap="round" stroke-linejoin="round" d="M 444.00213623046875 251.4986572265625 C 444.8164978027344 251.65737915039062 445.8608093261719 259.38519287109375 446.7940979003906 259.8384094238281 C 447.4053649902344 249.5072784423828 442.82281494140625 249.6476287841797 439.8675537109375 245.7109375 C 443.0583801269531 251.6221160888672 444.2383728027344 251.04010009765625 442.94171142578125 247.70436096191406 C 441.0913391113281 246.54095458984375 442.14801025390625 250.97860717773438 444.00213623046875 251.4986572265625"/>
    <path stroke-width="0" fill="rgb(37, 37, 47)" opacity="0.10380273" stroke="rgb(0, 0, 0)" stroke-opacity="0.0" stroke-linecap="round" stroke-linejoin="round" d="M 364.42578125 260.4275207519531 C 369.4535217285156 269.2994689941406 365.28118896484375 277.7597961425781 354.2333984375 263.3368225097656 C 345.4664001464844 258.9521179199219 333.47271728515625 262.3810119628906 342.0733337402344 255.22842407226562 C 354.2239074707031 241.27134704589844 346.0079345703125 234.7796173095703 358.2634582519531 242.15719604492188 C 354.0485534667969 251.1409454345703 361.18536376953125 260.4858093261719 364.42578125 260.4275207519531"/>
    <path stroke-width="0" fill="rgb(95, 81, 75)" opacity="0.0034904848" stroke="rgb(0, 0, 0)" stroke-opacity="0.0" stroke-linecap="round" stroke-linejoin="round" d="M 157.93153381347656 509.676513671875 C 172.54551696777344 506.0249328613281 173.92263793945312 509.5380554199219 164.9920654296875 516.3175048828125 C 156.6479034423828 516.4644165039062 158.6450653076172 514.1470336914062 157.11328125 500.02069091796875 C 149.71463012695312 490.34588623046875 153.25521850585938 490.22210693359375 160.61282348632812 518.5006103515625 C 175.45533752441406 511.5882263183594 174.86813354492188 506.41644287109375 157.93153381347656 509.676513671875"/>
    <path stroke-width="0" fill="rgb(22, 155, 29)" opacity="0.13345192" stroke="rgb(0, 0, 0)" stroke-opacity="0.0" stroke-linecap="round" stroke-linejoin="round" d="M -100.48587799072266 -83.45436096191406 C -101.55767822265625 -79.45436096191406 -104.48587799072266 -76.52615356445312 -108.48587799072266 -75.45436096191406 C -112.48587799072266 -76.52615356445312 -115.4140853881836 -79.45436096191406 -116.48587799072266 -83.45436096191406 C -115.4140853881836 -87.45436096191406 -112.48587799072266 -90.38256072998047 -108.48587799072266 -91.45436096191406 C -104.48587799072266 -90.38256072998047 -101.55767822265625 -87.45436096191406 -100.48587799072266 -83.45436096191406"/>
    <path stroke-width="0" fill="rgb(112, 72, 139)" opacity="0.009619644" stroke="rgb(0, 0, 0)" stroke-opacity="0.0" stroke-linecap="round" stroke-linejoin="round" d="M 440.4435119628906 366.44903564453125 C 437.8846130371094 370.7197265625 442.5530090332031 377.0996398925781 445.5424499511719 373.77337646484375 C 426.3019104003906 376.4577941894531 433.7961730957031 374.6542663574219 443.75421142578125 375.0053405761719 C 430.47015380859375 369.6741943359375 435.18511962890625 362.7378234863281 434.73272705078125 367.0782775878906 C 440.6011047363281 366.327880859375 441.7251892089844 371.46929931640625 440.4435119628906 366.44903564453125"/>
    <path stroke-width="0" fill="rgb(187, 96, 52)" opacity="0.4513437" stroke="rgb(0, 0, 0)" stroke-opacity="0.0" stroke-linecap="round" stroke-linejoin="round" d="M -0.10087472945451736 -1.1595016717910767 C -1.0227470397949219 3.737811326980591 -2.896090030670166 7.530107021331787 -6.448106288909912 8.862656593322754 C -10.362608909606934 7.76533317565918 -13.290812492370605 4.837129592895508 -14.362608909606934 0.8371297717094421 C -13.290812492370605 -3.162870168685913 -10.362608909606934 -6.091073513031006 -6.363867282867432 -7.162430763244629 C -2.4274260997772217 -6.066844940185547 0.3000953793525696 -2.932833671569824 -0.10087472945451736 -1.1595016717910767"/>
    <path stroke-width="0" fill="rgb(9, 113, 142)" opacity="0.066834316" stroke="rgb(0, 0, 0)" stroke-opacity="0.0" stroke-linecap="round" stroke-linejoin="round" d="M 134.76779174804688 388.8796691894531 C 133.99977111816406 385.75909423828125 132.35513305664062 387.2142639160156 132.16326904296875 386.2239990234375 C 124.29704284667969 389.1500549316406 128.6453094482422 387.6811218261719 128.7000732421875 385.5434265136719 C 121.99796295166016 380.15899658203125 129.31935119628906 383.1003112792969 125.78684997558594 387.4426574707031 C 130.2422637939453 379.81048583984375 134.25303649902344 388.04931640625 134.76779174804688 388.8796691894531"/>
    <path stroke-width="0" fill="rgb(115, 105, 148)" opacity="-0.039697226" stroke="rgb(0, 0, 0)" stroke-opacity="0.0" stroke-linecap="round" stroke-linejoin="round" d="M 45.21133804321289 145.8547821044922 C 46.32213592529297 146.64865112304688 46.18672561645508 150.38038635253906 35.80938720703125 149.83651733398438 C 36.61091232299805 144.16944885253906 27.07887840270996 143.484130859375 35.14425277709961 144.2364959716797 C 33.43805694580078 136.76187133789062 34.9312744140625 130.83775329589844 37.51190948486328 139.220458984375 C 43.24944305419922 142.86492919921875 46.421817779541016 145.23876953125 45.21133804321289 145.8547821044922"/>
    <path stroke-width="0" fill="rgb(213, 11, 17)" opacity="0.5931626" stroke="rgb(0, 0, 0)" stroke-opacity="0.0" stroke-linecap="round" stroke-linejoin="round" d="M 24.668621063232422 -21.762842178344727 C 23.596824645996094 -17.762842178344727 20.668621063232422 -14.834639549255371 16.668621063232422 -13.762843132019043 C 12.668622016906738 -14.834639549255371 9.740418434143066 -17.762842178344727 8.668622016906738 -21.762842178344727 C 9.740418434143066 -25.762842178344727 12.668622016906738 -28.6910457611084 16.668621063232422 -29.762842178344727 C 20.668621063232422 -28.6910457611084 23.596824645996094 -25.762842178344727 24.668621063232422 -21.762842178344727"/>
    <path stroke-width="0" fill="rgb(126, 251, 169)" opacity="0.54950905" stroke="rgb(0, 0, 0)" stroke-opacity="0.0" stroke-linecap="round" stroke-linejoin="round" d="M 108.10499572753906 -84.74349212646484 C 107.033203125 -80.74349212646484 104.10499572753906 -77.8152847290039 100.10499572753906 -76.74349212646484 C 96.10499572753906 -77.8152847290039 93.17679595947266 -80.74349212646484 92.10499572753906 -84.74349212646484 C 93.17679595947266 -88.74349212646484 96.10499572753906 -91.67169189453125 100.10499572753906 -92.74349212646484 C 104.10499572753906 -91.67169189453125 107.033203125 -88.74349212646484 108.10499572753906 -84.74349212646484"/>
    <path stroke-width="0" fill="rgb(197, 121, 32)" opacity="0.03342436" stroke="rgb(0, 0, 0)" stroke-opacity="0.0" stroke-linecap="round" stroke-linejoin="round" d="M 1.389222264289856 -17.607885360717773 C 0.3174254894256592 -13.607885360717773 -2.6107778549194336 -10.679681777954102 -6.610777854919434 -9.607885360717773 C -10.610777854919434 -10.679681777954102 -13.538981437683105 -13.607885360717773 -14.610777854919434 -17.607885360717773 C -13.538981437683105 -21.607885360717773 -10.610777854919434 -24.536088943481445 -6.610777854919434 -25.607885360717773 C -2.6107778549194336 -24.536088943481445 0.3174254894256592 -21.607885360717773 1.389222264289856 -17.607885360717773"/>
    <path stroke-width="0" fill="rgb(78, 78, 141)" opacity="0.019926546" stroke="rgb(0, 0, 0)" stroke-opacity="0.0" stroke-linecap="round" stroke-linejoin="round" d="M 60.21776580810547 460.75128173828125 C 60.11106491088867 465.73028564453125 60.8034782409668 464.8681335449219 52.994659423828125 466.828125 C 53.1490592956543 461.82537841796875 49.07420349121094 458.74151611328125 46.10159683227539 460.5581970214844 C 44.40181350708008 449.8003234863281 48.568660736083984 446.589599609375 54.32205581665039 445.1370544433594 C 59.96591567993164 445.6573791503906 61.76995086669922 445.35125732421875 60.21776580810547 460.75128173828125"/>
    <path stroke-width="0" fill="rgb(10, 97, 128)" opacity="0.06054015" stroke="rgb(0, 0, 0)" stroke-opacity="0.0" stroke-linecap="round" stroke-linejoin="round" d="M 195.5742645263672 470.01806640625 C 205.3494110107422 464.7608642578125 200.15310668945312 463.8738708496094 200.94395446777344 449.500244140625 C 185.99819946289062 455.39056396484375 190.4497528076172 458.7745056152344 191.96986389160156 454.8379821777344 C 187.992919921875 453.4751892089844 192.91555786132812 449.7610168457031 196.43218994140625 455.63287353515625 C 192.2123260498047 457.7921142578125 194.68601989746094 454.0672912597656 195.5742645263672 470.01806640625"/>
    <path stroke-width="0" fill="rgb(54, 106, 60)" opacity="-0.023527863" stroke="rgb(0, 0, 0)" stroke-opacity="0.0" stroke-linecap="round" stroke-linejoin="round" d="M 134.07125854492188 418.348388671875 C 130.84591674804688 416.56195068359375 130.5137481689453 424.45306396484375 126.62609100341797 427.9366149902344 C 122.01329803466797 421.01019287109375 121.24254608154297 413.82830810546875 119.17289733886719 411.71734619140625 C 118.24638366699219 410.1019287109375 122.14314270019531 406.0154724121094 118.5758285522461 413.367431640625 C 126.40437316894531 418.943115234375 133.74058532714844 418.7461242675781 134.07125854492188 418.348388671875"/>
    <path stroke-width="0" fill="rgb(110, 46, 197)" opacity="-0.015499914" stroke="rgb(0, 0, 0)" stroke-opacity="0.0" stroke-linecap="round" stroke-linejoin="round" d="M 319.99884033203125 460.6169128417969 C 319.3269958496094 466.5406494140625 326.57061767578125 466.0344543457031 319.8356628417969 460.2685241699219 C 309.1116943359375 465.6415100097656 313.6688537597656 467.78558349609375 313.8196105957031 464.38409423828125 C 309.85919189453125 455.79180908203125 314.51190185546875 456.420654296875 312.61572265625 461.11236572265625 C 314.8520202636719 464.13446044921875 323.5810241699219 461.9581604003906 319.99884033203125 460.6169128417969"/>
    <path stroke-width="0" fill="rgb(-51, 143, 28)" opacity="-0.113821164" stroke="rgb(0, 0, 0)" stroke-opacity="0.0" stroke-linecap="round" stroke-linejoin="round" d="M 185.9458770751953 419.8539123535156 C 168.40936279296875 422.5264587402344 164.99855041503906 421.9117431640625 166.89804077148438 417.11151123046875 C 166.87179565429688 421.1958312988281 162.92483520507812 425.0059814453125 156.2425537109375 424.5265808105469 C 165.44259643554688 416.2257080078125 178.32418823242188 420.6679382324219 182.3455047607422 420.63507080078125 C 168.9651641845703 415.1256103515625 178.66871643066406 413.8045959472656 185.9458770751953 419.8539123535156"/>
    <path stroke-width="0" fill="rgb(40, 98, 119)" opacity="-0.013964019" stroke="rgb(0, 0, 0)" stroke-opacity="0.0" stroke-linecap="round" stroke-linejoin="round" d="M 55.20081329345703 298.12841796875 C 56.11011505126953 298.99456787109375 57.41221618652344 302.89630126953125 53.720863342285156 297.4486999511719 C 53.936012268066406 302.4855041503906 58.25933837890625 302.2463073730469 56.31602096557617 295.3716125488281 C 58.13666915893555 298.1969909667969 62.169456481933594 295.7391357421875 56.63726806640625 298.4609375 C 60.28059387207031 299.9747314453125 65.40946197509766 298.7537841796875 55.20081329345703 298.12841796875"/>
    <path stroke-width="0" fill="rgb(17, 119, 192)" opacity="0.17099385" stroke="rgb(0, 0, 0)" stroke-opacity="0.0" stroke-linecap="round" stroke-linejoin="round" d="M 359.3161926269531 232.5043487548828 C 356.5155334472656 248.39137268066406 355.5242919921875 254.32884216308594 355.1698303222656 253.96499633789062 C 351.86053466796875 243.11685180664062 341.1370544433594 243.4033660888672 343.89068603515625 237.65707397460938 C 345.42889404296875 232.75750732421875 343.388671875 228.04885864257812 354.16668701171875 226.26214599609375 C 348.5611572265625 232.9020538330078 352.9671936035156 235.67417907714844 359.3161926269531 232.5043487548828"/>
  </g>
</svg>
