<?xml version="1.0" ?>
<svg xmlns="http://www.w3.org/2000/svg" version="1.1" width="512" height="512">
  <defs/>
  <g>
    <path stroke-width="0" fill="rgb(122, 129, 130)" opacity="1.0116705" stroke="rgb(139, 182, 153)" stroke-opacity="1.0" stroke-linecap="round" stroke-linejoin="round" d="M 223.63638305664062 1.7970300912857056 C 161.22715759277344 4.04988431930542 192.56204223632812 49.31622314453125 66.34940338134766 128.9420623779297 C 58.17729568481445 122.41925048828125 55.61058044433594 110.84263610839844 54.83751678466797 87.49947357177734 C 58.889408111572266 -68.72174835205078 69.76350402832031 -69.6482925415039 85.67578125 -59.82435607910156 C 196.87997436523438 -32.08623504638672 204.99337768554688 -25.582561492919922 223.63638305664062 1.7970300912857056"/>
    <path stroke-width="0" fill="rgb(121, 126, 131)" opacity="1.006392" stroke="rgb(108, 164, 111)" stroke-opacity="1.0" stroke-linecap="round" stroke-linejoin="round" d="M 145.3736114501953 83.04563903808594 C 155.1913299560547 158.32559204101562 160.42906188964844 170.84996032714844 98.68473052978516 172.3730926513672 C -60.77919006347656 166.43023681640625 -47.74129867553711 136.50534057617188 -41.06509780883789 85.29373168945312 C -38.50617218017578 -35.472816467285156 -31.483736038208008 -40.57529067993164 49.147098541259766 -37.273799896240234 C 114.89837646484375 -39.91672897338867 134.1575927734375 -47.40385437011719 145.3736114501953 83.04563903808594"/>
    <path stroke-width="0" fill="rgb(116, 127, 135)" opacity="1.0071628" stroke="rgb(245, 97, 201)" stroke-opacity="1.0" stroke-linecap="round" stroke-linejoin="round" d="M 491.8047790527344 531.7089233398438 C 350.8706970214844 582.8856811523438 327.6231384277344 574.8817749023438 -39.52774429321289 555.3480224609375 C -75.76151275634766 413.1372375488281 -51.65288543701172 351.97052001953125 -47.70307540893555 137.13314819335938 C -54.2049446105957 98.49577331542969 -58.0020637512207 85.32793426513672 144.3140106201172 85.29600524902344 C 262.220947265625 81.06027221679688 394.5240478515625 33.63169479370117 491.8047790527344 531.7089233398438"/>
    <path stroke-width="0" fill="rgb(114, 126, 134)" opacity="0.9922953" stroke="rgb(144, 236, 18)" stroke-opacity="1.0" stroke-linecap="round" stroke-linejoin="round" d="M 551.197021484375 551.1177368164062 C 341.0008544921875 511.9726867675781 281.75244140625 426.1805725097656 160.42459106445312 319.7093505859375 C 79.1971435546875 168.6323699951172 61.09968566894531 157.6425018310547 56.17535400390625 140.9948272705078 C 182.4805145263672 27.35679054260254 133.3772430419922 -25.228609085083008 455.19525146484375 -47.85382843017578 C 555.062744140625 -124.77310180664062 573.008544921875 -219.4150390625 551.197021484375 551.1177368164062"/>
    <path stroke-width="0" fill="rgb(261, 241, 193)" opacity="1.0304738" stroke="rgb(5, 212, 198)" stroke-opacity="1.0" stroke-linecap="round" stroke-linejoin="round" d="M 367.6186828613281 367.54437255859375 C 336.06671142578125 299.9783630371094 380.72314453125 424.7008056640625 328.20361328125 381.1966857910156 C 339.95062255859375 283.5177917480469 243.99098205566406 477.2724304199219 286.947509765625 313.0528564453125 C 239.516357421875 245.567626953125 286.7068176269531 228.0257110595703 280.49444580078125 305.16668701171875 C 374.9817810058594 218.64364624023438 340.2693176269531 339.2721862792969 367.6186828613281 367.54437255859375"/>
    <path stroke-width="0" fill="rgb(244, 247, 241)" opacity="1.0130827" stroke="rgb(249, 203, 117)" stroke-opacity="1.0" stroke-linecap="round" stroke-linejoin="round" d="M 256.5749206542969 348.14691162109375 C 237.8645477294922 359.9269714355469 288.939208984375 358.3082580566406 222.09332275390625 356.3815612792969 C 210.71871948242188 359.4759826660156 202.8145294189453 326.87518310546875 204.33448791503906 349.4451904296875 C 185.29672241210938 298.67742919921875 180.1997528076172 293.4490966796875 195.2076873779297 291.4070129394531 C 263.5531005859375 315.79718017578125 252.1770477294922 282.14892578125 256.5749206542969 348.14691162109375"/>
    <path stroke-width="0" fill="rgb(261, 197, 67)" opacity="1.0886804" stroke="rgb(30, 163, 36)" stroke-opacity="1.0" stroke-linecap="round" stroke-linejoin="round" d="M 388.8592224121094 331.3558044433594 C 391.35601806640625 386.0780944824219 380.7226257324219 378.7727355957031 345.69952392578125 353.5658264160156 C 385.5576171875 337.315673828125 327.3008117675781 328.4664001464844 282.9476318359375 309.1956787109375 C 232.47146606445312 287.45794677734375 300.380126953125 220.63673400878906 348.7886962890625 287.0788879394531 C 340.5481262207031 300.8131408691406 366.3935241699219 264.9071044921875 388.8592224121094 331.3558044433594"/>
    <path stroke-width="0" fill="rgb(253, 189, 52)" opacity="0.97377616" stroke="rgb(133, 105, 67)" stroke-opacity="1.0" stroke-linecap="round" stroke-linejoin="round" d="M 312.4800720214844 93.2712631225586 C 316.56451416015625 242.08340454101562 144.89649963378906 254.972412109375 235.15518188476562 73.7872314453125 C 174.7247772216797 163.9806671142578 160.23858642578125 252.7350616455078 188.619384765625 118.31922149658203 C 224.08816528320312 50.29034423828125 218.32188415527344 61.8693733215332 233.76585388183594 62.3517951965332 C 249.72023010253906 110.17401123046875 226.6032257080078 130.74588012695312 312.4800720214844 93.2712631225586"/>
    <path stroke-width="0" fill="rgb(250, 168, 29)" opacity="0.9715549" stroke="rgb(116, 144, 4)" stroke-opacity="1.0" stroke-linecap="round" stroke-linejoin="round" d="M 300.7910461425781 320.4681091308594 C 316.3819580078125 324.57476806640625 388.70196533203125 338.7078857421875 206.44189453125 301.7378234863281 C 197.35443115234375 289.157470703125 157.16880798339844 418.31988525390625 160.14364624023438 245.42677307128906 C 230.53146362304688 -33.91737747192383 145.5944061279297 237.4861602783203 261.7400207519531 240.6558837890625 C 292.0036315917969 256.02020263671875 255.78240966796875 149.1723175048828 300.7910461425781 320.4681091308594"/>
    <path stroke-width="0" fill="rgb(246, 254, 258)" opacity="0.9781219" stroke="rgb(156, 157, 240)" stroke-opacity="1.0" stroke-linecap="round" stroke-linejoin="round" d="M 227.77413940429688 208.63780212402344 C 303.5155029296875 274.8787841796875 176.1729736328125 242.88882446289062 196.76600646972656 195.07850646972656 C 300.5424499511719 316.43988037109375 169.3670654296875 118.17576599121094 235.6453094482422 236.01968383789062 C 182.57940673828125 189.29763793945312 142.7211151123047 119.35055541992188 273.5476379394531 193.4483642578125 C 311.7672119140625 270.7817077636719 171.82569885253906 161.7800750732422 227.77413940429688 208.63780212402344"/>
    <path stroke-width="0" fill="rgb(262, 179, 61)" opacity="1.0400418" stroke="rgb(91, 111, 177)" stroke-opacity="1.0" stroke-linecap="round" stroke-linejoin="round" d="M 172.44215393066406 286.1690368652344 C 135.4104461669922 260.4039611816406 224.6996612548828 269.1070251464844 186.56736755371094 409.40863037109375 C 93.4815902709961 412.0447998046875 196.3902130126953 420.829345703125 161.5904083251953 311.1044616699219 C 161.34173583984375 162.07302856445312 184.69094848632812 282.7825622558594 183.4786376953125 132.59268188476562 C 376.38262939453125 44.34859085083008 104.6590805053711 218.81011962890625 172.44215393066406 286.1690368652344"/>
    <path stroke-width="0" fill="rgb(257, 208, 85)" opacity="1.0108486" stroke="rgb(170, 171, 53)" stroke-opacity="1.0" stroke-linecap="round" stroke-linejoin="round" d="M 283.928955078125 323.0648498535156 C 260.3583068847656 404.58978271484375 282.7815856933594 431.6217956542969 272.901611328125 400.2292175292969 C 234.7171173095703 396.8680114746094 245.38534545898438 436.5664367675781 244.59706115722656 345.18731689453125 C 252.7522735595703 339.4768371582031 231.73223876953125 319.4615478515625 268.35687255859375 275.412109375 C 274.88433837890625 206.93429565429688 291.9584045410156 235.12757873535156 283.928955078125 323.0648498535156"/>
    <path stroke-width="0" fill="rgb(228, 218, 186)" opacity="0.8508775" stroke="rgb(80, 92, 145)" stroke-opacity="1.0" stroke-linecap="round" stroke-linejoin="round" d="M 159.71400451660156 399.4891662597656 C 177.5441131591797 379.45111083984375 143.25735473632812 383.1286926269531 148.29759216308594 406.4180603027344 C 208.94175720214844 404.2675476074219 177.84788513183594 412.5891418457031 191.22422790527344 390.0709228515625 C 135.9281463623047 405.5548400878906 144.41604614257812 377.81842041015625 188.06983947753906 399.711669921875 C 139.39952087402344 368.8109436035156 180.0251007080078 410.5301208496094 159.71400451660156 399.4891662597656"/>
    <path stroke-width="0" fill="rgb(254, 167, 58)" opacity="0.7961285" stroke="rgb(166, 64, 118)" stroke-opacity="1.0" stroke-linecap="round" stroke-linejoin="round" d="M 196.65016174316406 333.6789245605469 C 207.87136840820312 341.19439697265625 190.0980682373047 345.833984375 198.55117797851562 325.1844787597656 C 193.4080352783203 370.2992858886719 221.30804443359375 317.1602478027344 202.03370666503906 350.4124450683594 C 218.40467834472656 355.1312561035156 207.1061553955078 338.3336181640625 191.91909790039062 363.6788635253906 C 191.96182250976562 350.8807373046875 192.6741943359375 369.68865966796875 196.65016174316406 333.6789245605469"/>
    <path stroke-width="0" fill="rgb(263, 260, 230)" opacity="0.8911666" stroke="rgb(50, 94, 209)" stroke-opacity="1.0" stroke-linecap="round" stroke-linejoin="round" d="M 190.01040649414062 385.7621765136719 C 191.52569580078125 410.2773132324219 176.1342315673828 406.6750183105469 213.11672973632812 396.642822265625 C 146.19143676757812 416.7538146972656 175.5780487060547 415.7422180175781 146.92025756835938 407.9415283203125 C 149.32431030273438 375.2452697753906 159.19969177246094 410.0856628417969 160.52603149414062 389.9396057128906 C 120.59632873535156 372.2867431640625 178.0636749267578 401.5418395996094 190.01040649414062 385.7621765136719"/>
    <path stroke-width="0" fill="rgb(119, 126, 131)" opacity="1.005606" stroke="rgb(72, 30, 75)" stroke-opacity="1.0" stroke-linecap="round" stroke-linejoin="round" d="M 445.6683654785156 622.9540405273438 C -29.022912979125977 435.2399597167969 496.7955017089844 362.3829040527344 514.8489990234375 331.3301086425781 C 263.7995910644531 416.3436584472656 495.4443664550781 359.67083740234375 316.8854064941406 257.46527099609375 C 243.54612731933594 259.7812194824219 306.4834899902344 221.7150115966797 297.37457275390625 124.08235931396484 C 352.2124938964844 65.17787170410156 700.312255859375 -16.883934020996094 445.6683654785156 622.9540405273438"/>
    <path stroke-width="0" fill="rgb(262, 242, 198)" opacity="0.9987945" stroke="rgb(81, 105, 16)" stroke-opacity="1.0" stroke-linecap="round" stroke-linejoin="round" d="M 195.03402709960938 122.22847747802734 C 189.23727416992188 123.32630920410156 196.74745178222656 123.63741302490234 195.12892150878906 117.80174255371094 C 209.3631134033203 110.42448425292969 191.93994140625 102.0145263671875 208.89479064941406 120.67706298828125 C 189.26280212402344 146.32608032226562 195.27320861816406 124.56906127929688 195.79464721679688 119.64793395996094 C 190.94046020507812 130.44723510742188 193.42762756347656 125.80574798583984 195.03402709960938 122.22847747802734"/>
    <path stroke-width="0" fill="rgb(163, 100, 26)" opacity="0.74323463" stroke="rgb(146, 236, 81)" stroke-opacity="1.0" stroke-linecap="round" stroke-linejoin="round" d="M 192.97055053710938 81.34954071044922 C 198.4688720703125 110.7303695678711 199.53176879882812 110.55730438232422 195.90394592285156 115.09647369384766 C 194.99258422851562 126.86891174316406 190.4198455810547 114.06718444824219 199.14303588867188 115.70423889160156 C 199.23837280273438 103.74610137939453 197.72386169433594 106.72537994384766 195.41490173339844 108.10220336914062 C 197.13047790527344 98.7430191040039 199.75270080566406 118.35985565185547 192.97055053710938 81.34954071044922"/>
    <path stroke-width="0" fill="rgb(68, 35, 34)" opacity="0.8522113" stroke="rgb(33, 182, 73)" stroke-opacity="1.0" stroke-linecap="round" stroke-linejoin="round" d="M 292.59332275390625 127.83155059814453 C 305.13800048828125 178.2998504638672 292.5181579589844 129.7605438232422 301.2029113769531 136.48788452148438 C 297.0450134277344 136.6993408203125 302.7265625 139.1197509765625 299.25018310546875 124.7416000366211 C 287.94952392578125 176.5897979736328 309.0530090332031 136.52999877929688 298.45751953125 168.96133422851562 C 299.2132873535156 112.3050537109375 288.27001953125 181.34683227539062 292.59332275390625 127.83155059814453"/>
    <path stroke-width="0" fill="rgb(259, 174, 34)" opacity="1.0545923" stroke="rgb(149, 5, 211)" stroke-opacity="1.0" stroke-linecap="round" stroke-linejoin="round" d="M 269.2898254394531 195.43106079101562 C 285.3296203613281 193.48475646972656 269.1512451171875 193.2660675048828 262.02374267578125 186.69866943359375 C 294.4463195800781 179.56809997558594 251.27464294433594 191.1482696533203 243.04823303222656 183.46942138671875 C 182.7689208984375 144.4502716064453 306.8038330078125 181.3431854248047 295.1434326171875 168.9178924560547 C 285.7930603027344 202.04525756835938 316.3847351074219 198.24105834960938 269.2898254394531 195.43106079101562"/>
    <path stroke-width="0" fill="rgb(37, -7, 7)" opacity="0.66619635" stroke="rgb(172, 68, 187)" stroke-opacity="1.0" stroke-linecap="round" stroke-linejoin="round" d="M 303.49267578125 105.38911437988281 C 295.9845275878906 100.99887084960938 339.0305480957031 76.96553802490234 294.3243103027344 133.9057159423828 C 329.4283752441406 94.4105224609375 323.6427307128906 80.82722473144531 275.79730224609375 108.69100189208984 C 265.0286865234375 107.53768920898438 353.3114929199219 73.5973892211914 280.62359619140625 119.60025787353516 C 283.29840087890625 130.69708251953125 269.75213623046875 118.33289337158203 303.49267578125 105.38911437988281"/>
    <path stroke-width="0" fill="rgb(58, -5, 19)" opacity="0.71055806" stroke="rgb(63, 146, 150)" stroke-opacity="1.0" stroke-linecap="round" stroke-linejoin="round" d="M 294.1531982421875 101.04029846191406 C 289.4982604980469 103.44133758544922 310.3775329589844 93.85047912597656 298.8355407714844 96.79106903076172 C 320.3046875 93.4966812133789 304.3781433105469 100.24363708496094 306.7190856933594 91.67218780517578 C 300.2332458496094 113.56808471679688 327.3783264160156 96.40119171142578 290.3633728027344 97.73697662353516 C 284.11431884765625 114.14325714111328 238.49288940429688 111.61819458007812 294.1531982421875 101.04029846191406"/>
    <path stroke-width="0" fill="rgb(-9, -17, -13)" opacity="0.89188886" stroke="rgb(56, 242, 114)" stroke-opacity="1.0" stroke-linecap="round" stroke-linejoin="round" d="M 178.79458618164062 153.2281494140625 C 181.33834838867188 134.59616088867188 184.92897033691406 134.7821044921875 182.78318786621094 143.24041748046875 C 206.1305389404297 87.04747772216797 181.4388885498047 113.92095184326172 181.9384765625 155.5911102294922 C 169.9332733154297 160.03097534179688 174.7001190185547 179.34751892089844 181.39024353027344 170.10995483398438 C 169.457275390625 179.16920471191406 182.12815856933594 180.7200164794922 178.79458618164062 153.2281494140625"/>
    <path stroke-width="0" fill="rgb(38, 3, -17)" opacity="0.87052166" stroke="rgb(178, 75, 207)" stroke-opacity="1.0" stroke-linecap="round" stroke-linejoin="round" d="M 218.3535614013672 87.89448547363281 C 232.1054229736328 80.72101593017578 225.70852661132812 80.3208236694336 227.2056884765625 106.9061279296875 C 182.56704711914062 153.50294494628906 215.91452026367188 108.91136932373047 225.76197814941406 92.16307067871094 C 213.29953002929688 127.27619171142578 206.767822265625 96.63827514648438 212.89715576171875 103.44364166259766 C 233.0721435546875 91.92203521728516 204.36181640625 112.79804992675781 218.3535614013672 87.89448547363281"/>
    <path stroke-width="0" fill="rgb(-13, -1, 11)" opacity="0.9889138" stroke="rgb(224, 148, 224)" stroke-opacity="1.0" stroke-linecap="round" stroke-linejoin="round" d="M 288.8694152832031 222.44338989257812 C 285.808349609375 212.75466918945312 276.89337158203125 224.75608825683594 298.583251953125 206.84046936035156 C 298.95880126953125 191.43370056152344 279.30657958984375 209.23828125 274.47857666015625 200.00779724121094 C 289.0081787109375 185.848388671875 269.79608154296875 216.2380828857422 276.84722900390625 193.8170623779297 C 277.36285400390625 217.47042846679688 280.6753845214844 206.2234344482422 288.8694152832031 222.44338989257812"/>
    <path stroke-width="0" fill="rgb(29, 35, 25)" opacity="0.6964419" stroke="rgb(108, 154, 4)" stroke-opacity="1.0" stroke-linecap="round" stroke-linejoin="round" d="M 238.6435546875 411.651611328125 C 250.93179321289062 382.8955078125 220.3877410888672 427.7644348144531 278.6986389160156 413.8348388671875 C 250.17617797851562 404.3218078613281 292.1680908203125 435.0810241699219 271.6329040527344 391.4039611816406 C 279.138427734375 430.6203308105469 260.9034118652344 408.45941162109375 270.0859069824219 417.4222717285156 C 211.19979858398438 414.4200134277344 261.4826965332031 391.83343505859375 238.6435546875 411.651611328125"/>
    <path stroke-width="0" fill="rgb(117, 127, 142)" opacity="0.754017" stroke="rgb(168, 73, 157)" stroke-opacity="1.0" stroke-linecap="round" stroke-linejoin="round" d="M 149.65725708007812 359.43328857421875 C 195.8485565185547 388.8117370605469 143.76390075683594 385.0025634765625 171.04905700683594 378.5107421875 C 175.01536560058594 378.9322509765625 162.76771545410156 382.0882568359375 158.5750274658203 347.47357177734375 C 147.6958770751953 385.3392333984375 154.5438690185547 363.8795471191406 158.7409210205078 345.0667419433594 C 173.3797149658203 361.6737060546875 168.08538818359375 374.39654541015625 149.65725708007812 359.43328857421875"/>
    <path stroke-width="0" fill="rgb(68, 14, -10)" opacity="0.5194726" stroke="rgb(34, 76, 145)" stroke-opacity="1.0" stroke-linecap="round" stroke-linejoin="round" d="M 230.53192138671875 113.02159881591797 C 197.2981719970703 116.12891387939453 213.8086700439453 93.40116119384766 225.7432403564453 104.1826171875 C 190.69068908691406 65.5601806640625 219.48138427734375 73.79714965820312 195.95272827148438 105.08307647705078 C 188.29275512695312 149.18231201171875 194.55621337890625 72.15975952148438 224.9560546875 104.54122161865234 C 228.74061584472656 75.89483642578125 168.16305541992188 84.65104675292969 230.53192138671875 113.02159881591797"/>
    <path stroke-width="0" fill="rgb(40, -1, 17)" opacity="0.8632889" stroke="rgb(146, 166, 166)" stroke-opacity="1.0" stroke-linecap="round" stroke-linejoin="round" d="M 175.7759552001953 203.00999450683594 C 175.72882080078125 199.98805236816406 176.4263916015625 197.3263702392578 174.0802459716797 192.29623413085938 C 165.03421020507812 208.44639587402344 178.19703674316406 148.45013427734375 174.72125244140625 201.27999877929688 C 166.64720153808594 206.81503295898438 175.0035400390625 192.24365234375 169.11611938476562 203.3287811279297 C 180.9622039794922 199.22109985351562 175.23374938964844 203.3552703857422 175.7759552001953 203.00999450683594"/>
    <path stroke-width="0" fill="rgb(46, 0, -8)" opacity="0.45890638" stroke="rgb(228, 93, 111)" stroke-opacity="1.0" stroke-linecap="round" stroke-linejoin="round" d="M 233.6341552734375 112.87974548339844 C 244.29660034179688 97.9941177368164 232.45314025878906 59.725074768066406 241.74327087402344 85.81594848632812 C 217.72494506835938 120.08724212646484 230.88827514648438 132.81546020507812 222.7030029296875 101.70502471923828 C 236.9895477294922 91.3208236694336 287.513916015625 139.8278045654297 263.1264343261719 113.1373062133789 C 234.30870056152344 108.33684539794922 259.9031982421875 88.5196762084961 233.6341552734375 112.87974548339844"/>
    <path stroke-width="0" fill="rgb(231, 171, 157)" opacity="0.6465887" stroke="rgb(205, 179, 25)" stroke-opacity="1.0" stroke-linecap="round" stroke-linejoin="round" d="M 200.091552734375 104.46339416503906 C 240.01205444335938 90.90719604492188 187.80908203125 134.6795654296875 210.50543212890625 99.161376953125 C 246.8008575439453 108.6133041381836 225.7172393798828 54.312259674072266 213.18121337890625 95.45809936523438 C 178.05734252929688 65.61454010009766 222.4615478515625 85.12635803222656 215.933837890625 122.93993377685547 C 254.74423217773438 80.32490539550781 215.72865295410156 103.36075592041016 200.091552734375 104.46339416503906"/>
    <path stroke-width="0" fill="rgb(237, 198, 141)" opacity="0.5735963" stroke="rgb(205, 145, 103)" stroke-opacity="1.0" stroke-linecap="round" stroke-linejoin="round" d="M 292.6721496582031 145.61318969726562 C 280.2959899902344 118.81452178955078 255.55859375 142.7092742919922 286.5541076660156 130.54873657226562 C 291.5985107421875 152.1050262451172 275.52801513671875 141.9974365234375 291.5842590332031 144.94937133789062 C 295.9325866699219 150.43711853027344 296.4576416015625 110.44510650634766 298.81085205078125 143.43190002441406 C 271.1916198730469 136.367431640625 291.21856689453125 145.70010375976562 292.6721496582031 145.61318969726562"/>
    <path stroke-width="0" fill="rgb(104, 102, 132)" opacity="0.6517205" stroke="rgb(177, 115, 184)" stroke-opacity="1.0" stroke-linecap="round" stroke-linejoin="round" d="M 153.6829376220703 192.12710571289062 C 169.0298309326172 201.64833068847656 171.1006622314453 197.5623321533203 167.93402099609375 210.81842041015625 C 170.3000946044922 217.25973510742188 156.83717346191406 218.78041076660156 167.69300842285156 228.47584533691406 C 168.11058044433594 209.25132751464844 168.50363159179688 213.96041870117188 163.60411071777344 218.7140350341797 C 175.19676208496094 204.6147918701172 172.66114807128906 204.2069091796875 153.6829376220703 192.12710571289062"/>
    <path stroke-width="0" fill="rgb(175, 168, 229)" opacity="0.73022574" stroke="rgb(248, 218, 2)" stroke-opacity="1.0" stroke-linecap="round" stroke-linejoin="round" d="M 287.8976745605469 219.63784790039062 C 298.46356201171875 192.9207305908203 315.5796203613281 220.04251098632812 239.93687438964844 234.77296447753906 C 252.3846893310547 249.8134765625 245.73837280273438 230.459716796875 263.2900695800781 230.22999572753906 C 280.6058349609375 220.19256591796875 278.9676818847656 244.16873168945312 259.6194152832031 239.00694274902344 C 232.25942993164062 219.98606872558594 291.6456298828125 206.20416259765625 287.8976745605469 219.63784790039062"/>
    <path stroke-width="0" fill="rgb(-2, 70, 95)" opacity="0.60978436" stroke="rgb(186, 43, 132)" stroke-opacity="1.0" stroke-linecap="round" stroke-linejoin="round" d="M 214.2466278076172 204.8085479736328 C 228.16795349121094 186.19590759277344 217.35702514648438 227.35592651367188 227.4010009765625 210.03810119628906 C 240.16371154785156 216.9192352294922 251.6063690185547 202.1717071533203 219.70672607421875 214.29444885253906 C 218.49270629882812 195.57843017578125 224.8215789794922 199.11178588867188 224.11949157714844 209.42169189453125 C 214.50550842285156 215.47471618652344 240.78526306152344 231.07827758789062 214.2466278076172 204.8085479736328"/>
    <path stroke-width="0" fill="rgb(204, 108, -5)" opacity="0.51359427" stroke="rgb(88, 236, 179)" stroke-opacity="1.0" stroke-linecap="round" stroke-linejoin="round" d="M 289.2314758300781 262.5923156738281 C 276.71124267578125 257.1158447265625 292.0455017089844 251.2275848388672 286.0501708984375 261.0171203613281 C 288.8170166015625 259.5223388671875 275.7110290527344 260.1702880859375 289.7370300292969 264.27191162109375 C 327.8561096191406 262.60235595703125 342.5260009765625 263.7193298339844 279.7000732421875 262.57012939453125 C 302.78131103515625 257.8874816894531 303.31280517578125 338.6929626464844 289.2314758300781 262.5923156738281"/>
    <path stroke-width="0" fill="rgb(7, 5, 27)" opacity="0.7178482" stroke="rgb(41, 158, 147)" stroke-opacity="1.0" stroke-linecap="round" stroke-linejoin="round" d="M 228.0061798095703 201.7805633544922 C 233.3029022216797 216.34605407714844 220.462158203125 208.62957763671875 279.2746276855469 230.3249053955078 C 286.46282958984375 213.03762817382812 236.08053588867188 226.61228942871094 250.44186401367188 232.3679962158203 C 213.43441772460938 203.36111450195312 254.01834106445312 212.76087951660156 235.05772399902344 211.9927215576172 C 239.8397674560547 212.1885223388672 245.05435180664062 205.15744018554688 228.0061798095703 201.7805633544922"/>
    <path stroke-width="0" fill="rgb(53, 17, 12)" opacity="0.94454396" stroke="rgb(238, 156, 136)" stroke-opacity="1.0" stroke-linecap="round" stroke-linejoin="round" d="M 305.580810546875 191.0015411376953 C 291.9443359375 176.5370330810547 269.1817932128906 170.3330841064453 287.4031066894531 165.7640838623047 C 299.46197509765625 170.14324951171875 284.2358093261719 155.3628387451172 293.2142028808594 164.48973083496094 C 285.6568908691406 171.6306915283203 287.33905029296875 175.4578094482422 307.59088134765625 209.88223266601562 C 282.2868347167969 178.4995880126953 288.7366638183594 173.76129150390625 305.580810546875 191.0015411376953"/>
    <path stroke-width="0" fill="rgb(47, 24, 13)" opacity="0.7230766" stroke="rgb(186, 79, 101)" stroke-opacity="1.0" stroke-linecap="round" stroke-linejoin="round" d="M 167.9199676513672 217.1901092529297 C 167.4028778076172 212.51953125 171.4298858642578 219.86331176757812 168.39761352539062 213.36495971679688 C 169.65487670898438 223.0396270751953 174.26808166503906 175.0749969482422 161.2484588623047 242.73973083496094 C 158.5449676513672 235.318115234375 170.02542114257812 231.0249481201172 162.12606811523438 231.0739288330078 C 167.77719116210938 221.93222045898438 168.3657684326172 244.55064392089844 167.9199676513672 217.1901092529297"/>
    <path stroke-width="0" fill="rgb(20, 22, 0)" opacity="0.88927466" stroke="rgb(57, 64, 14)" stroke-opacity="1.0" stroke-linecap="round" stroke-linejoin="round" d="M 158.28912353515625 271.2537841796875 C 157.29904174804688 267.06683349609375 156.29444885253906 281.5779724121094 158.27243041992188 255.21957397460938 C 175.67176818847656 226.6865997314453 154.8515625 207.92665100097656 156.26324462890625 307.9110107421875 C 163.84410095214844 319.67596435546875 156.85638427734375 314.7380065917969 159.67384338378906 237.87147521972656 C 153.20169067382812 293.4481506347656 158.32850646972656 278.9349670410156 158.28912353515625 271.2537841796875"/>
    <path stroke-width="0" fill="rgb(253, 259, 257)" opacity="0.8019761" stroke="rgb(6, 17, 173)" stroke-opacity="1.0" stroke-linecap="round" stroke-linejoin="round" d="M 348.1971435546875 373.69732666015625 C 348.25042724609375 401.205078125 373.88775634765625 363.8984375 333.64666748046875 377.7286376953125 C 371.5685119628906 322.25750732421875 313.7864074707031 368.6402587890625 324.2812805175781 348.1597900390625 C 286.8145751953125 327.5289306640625 349.9953918457031 317.1224060058594 350.8172302246094 345.87152099609375 C 314.7154846191406 347.44683837890625 326.5523376464844 384.03143310546875 348.1971435546875 373.69732666015625"/>
    <path stroke-width="0" fill="rgb(39, 19, 14)" opacity="0.94608426" stroke="rgb(136, 228, 252)" stroke-opacity="1.0" stroke-linecap="round" stroke-linejoin="round" d="M 315.7022399902344 259.5391540527344 C 410.5609436035156 324.7966613769531 382.8071594238281 307.0088195800781 353.6657409667969 286.4744567871094 C 344.3843994140625 282.8626403808594 358.71417236328125 282.4000549316406 353.17291259765625 290.9499816894531 C 359.6988220214844 394.43206787109375 360.8787841796875 369.6775207519531 356.8734130859375 295.4336853027344 C 344.81951904296875 301.16485595703125 351.099609375 269.5620422363281 315.7022399902344 259.5391540527344"/>
    <path stroke-width="0" fill="rgb(2, -13, 4)" opacity="0.77768284" stroke="rgb(81, 97, 150)" stroke-opacity="1.0" stroke-linecap="round" stroke-linejoin="round" d="M 253.31886291503906 220.96844482421875 C 239.68466186523438 202.9031219482422 210.6887969970703 213.29832458496094 270.76959228515625 229.42208862304688 C 265.6958312988281 216.1957550048828 232.5803680419922 216.12066650390625 252.86154174804688 240.0763397216797 C 274.29205322265625 252.23619079589844 277.20733642578125 234.1387481689453 260.94525146484375 240.96937561035156 C 255.67861938476562 231.1635284423828 251.3177032470703 240.6322021484375 253.31886291503906 220.96844482421875"/>
    <path stroke-width="0" fill="rgb(275, 261, 238)" opacity="0.7517099" stroke="rgb(160, 222, 69)" stroke-opacity="1.0" stroke-linecap="round" stroke-linejoin="round" d="M 175.3108367919922 387.9724426269531 C 198.02073669433594 373.5024719238281 155.67477416992188 403.2187805175781 163.85211181640625 371.7040100097656 C 162.5858917236328 397.75189208984375 167.98886108398438 386.136962890625 158.30545043945312 394.8954772949219 C 177.0984649658203 363.23431396484375 158.67666625976562 355.7584533691406 165.37643432617188 352.3951110839844 C 165.04150390625 371.36480712890625 185.2749786376953 343.2476501464844 175.3108367919922 387.9724426269531"/>
    <path stroke-width="0" fill="rgb(118, 127, 120)" opacity="0.9772271" stroke="rgb(47, 242, 175)" stroke-opacity="1.0" stroke-linecap="round" stroke-linejoin="round" d="M 318.87420654296875 357.6954040527344 C 321.2765808105469 364.69366455078125 323.3779296875 342.5647888183594 321.9621276855469 354.55712890625 C 312.3640441894531 359.65496826171875 302.88836669921875 324.83160400390625 296.6287536621094 376.766357421875 C 340.77972412109375 358.65020751953125 322.2445373535156 333.65313720703125 284.2328796386719 319.1966552734375 C 338.4582824707031 343.9796142578125 306.57440185546875 333.8941650390625 318.87420654296875 357.6954040527344"/>
    <path stroke-width="0" fill="rgb(32, -4, 0)" opacity="0.75549066" stroke="rgb(241, 186, 64)" stroke-opacity="1.0" stroke-linecap="round" stroke-linejoin="round" d="M 284.234619140625 262.46026611328125 C 282.94903564453125 244.0813751220703 286.94549560546875 268.8690490722656 308.0618896484375 255.5113067626953 C 303.7985534667969 257.5746765136719 293.88519287109375 257.99566650390625 315.4884338378906 259.9795837402344 C 332.9135437011719 256.47833251953125 385.0926513671875 328.1916198730469 325.95196533203125 261.2698669433594 C 312.9508056640625 270.0810241699219 315.8850402832031 245.28985595703125 284.234619140625 262.46026611328125"/>
    <path stroke-width="0" fill="rgb(-9, 0, 15)" opacity="0.8338206" stroke="rgb(132, 6, 52)" stroke-opacity="1.0" stroke-linecap="round" stroke-linejoin="round" d="M 202.00289916992188 103.35578155517578 C 205.4153289794922 97.80406951904297 194.6240692138672 83.83943176269531 202.45993041992188 93.38325500488281 C 202.08152770996094 91.0515365600586 216.23751831054688 60.1319580078125 189.41908264160156 120.44017791748047 C 222.17962646484375 66.16886901855469 210.60145568847656 57.26839065551758 236.25262451171875 63.41812515258789 C 220.7521514892578 44.277767181396484 197.8327178955078 89.42671203613281 202.00289916992188 103.35578155517578"/>
    <path stroke-width="0" fill="rgb(32, 0, -7)" opacity="0.924993" stroke="rgb(182, 100, 144)" stroke-opacity="1.0" stroke-linecap="round" stroke-linejoin="round" d="M 306.6763916015625 192.95216369628906 C 300.8536682128906 191.54351806640625 312.24371337890625 219.97494506835938 303.4951171875 221.02569580078125 C 300.2802734375 192.6866912841797 319.6324768066406 203.35171508789062 297.86944580078125 221.20974731445312 C 291.4504089355469 222.87257385253906 326.7840576171875 232.32449340820312 267.76300048828125 226.85752868652344 C 284.9649353027344 220.43972778320312 308.6360168457031 215.54530334472656 306.6763916015625 192.95216369628906"/>
    <path stroke-width="0" fill="rgb(200, 122, 116)" opacity="0.5605412" stroke="rgb(140, 149, 245)" stroke-opacity="1.0" stroke-linecap="round" stroke-linejoin="round" d="M 218.82247924804688 73.9227294921875 C 227.20960998535156 94.3741683959961 201.81292724609375 91.83931732177734 215.99411010742188 98.87967681884766 C 232.14785766601562 68.07115936279297 208.90957641601562 71.737548828125 181.7919921875 77.25514221191406 C 202.3598175048828 83.76624298095703 178.70230102539062 100.72402954101562 189.33197021484375 75.13666534423828 C 219.3324737548828 69.3268051147461 247.7961883544922 83.26524353027344 218.82247924804688 73.9227294921875"/>
    <path stroke-width="0" fill="rgb(71, 9, 22)" opacity="0.8272911" stroke="rgb(61, 25, 4)" stroke-opacity="1.0" stroke-linecap="round" stroke-linejoin="round" d="M 272.785888671875 238.2654571533203 C 281.01123046875 229.46896362304688 238.02545166015625 228.09292602539062 269.1129150390625 230.2235870361328 C 271.0269775390625 235.56027221679688 255.83494567871094 222.7098388671875 261.78106689453125 233.34361267089844 C 271.6588439941406 232.01805114746094 278.3306579589844 240.9371795654297 257.5401611328125 248.56394958496094 C 272.0564270019531 243.48345947265625 271.25482177734375 241.47389221191406 272.785888671875 238.2654571533203"/>
    <path stroke-width="0" fill="rgb(255, 177, 40)" opacity="0.911369" stroke="rgb(86, 245, 59)" stroke-opacity="1.0" stroke-linecap="round" stroke-linejoin="round" d="M 277.5040283203125 313.48773193359375 C 277.2545471191406 318.2729797363281 268.8996887207031 335.74871826171875 332.9330139160156 274.7487487792969 C 262.455322265625 224.11004638671875 290.09918212890625 321.5437927246094 324.861328125 289.49884033203125 C 310.86944580078125 349.9979248046875 272.7887268066406 303.4272766113281 292.18829345703125 292.1181945800781 C 320.36077880859375 280.6760559082031 289.2427978515625 345.1500244140625 277.5040283203125 313.48773193359375"/>
    <path stroke-width="0" fill="rgb(254, 252, 235)" opacity="0.48193488" stroke="rgb(240, 203, 160)" stroke-opacity="1.0" stroke-linecap="round" stroke-linejoin="round" d="M 259.64190673828125 186.30567932128906 C 260.6055603027344 203.34112548828125 266.4996032714844 214.3769073486328 296.58990478515625 236.05947875976562 C 300.8324279785156 216.58367919921875 308.9536437988281 217.45538330078125 305.9111022949219 210.8218994140625 C 308.32342529296875 258.25054931640625 267.88623046875 232.6144561767578 287.2540283203125 228.86221313476562 C 256.1501770019531 198.67259216308594 266.4140319824219 217.38348388671875 259.64190673828125 186.30567932128906"/>
    <path stroke-width="0" fill="rgb(74, 26, 25)" opacity="0.8396722" stroke="rgb(88, 37, 250)" stroke-opacity="1.0" stroke-linecap="round" stroke-linejoin="round" d="M 273.42095947265625 347.8353576660156 C 294.5914306640625 313.4246826171875 279.6756591796875 316.2430725097656 285.7569885253906 327.2964782714844 C 290.1802062988281 329.8778076171875 285.666259765625 260.62115478515625 283.42291259765625 316.9180603027344 C 292.63885498046875 339.267578125 288.04168701171875 304.24853515625 317.903076171875 322.15087890625 C 253.80894470214844 302.58416748046875 292.4751892089844 368.7237854003906 273.42095947265625 347.8353576660156"/>
    <path stroke-width="0" fill="rgb(109, 131, 156)" opacity="0.39821494" stroke="rgb(126, 163, 93)" stroke-opacity="1.0" stroke-linecap="round" stroke-linejoin="round" d="M 201.921875 71.4844741821289 C 211.07664489746094 65.34646606445312 219.412353515625 72.98636627197266 203.59683227539062 66.60770416259766 C 208.6398468017578 60.58045959472656 211.75146484375 34.1978645324707 208.04840087890625 62.04339599609375 C 208.44601440429688 69.84838104248047 228.4634552001953 58.66046142578125 230.4483184814453 57.26478958129883 C 198.22409057617188 53.42185974121094 219.20547485351562 80.75138854980469 201.921875 71.4844741821289"/>
    <path stroke-width="0" fill="rgb(119, 125, 130)" opacity="0.8734798" stroke="rgb(209, 48, 130)" stroke-opacity="1.0" stroke-linecap="round" stroke-linejoin="round" d="M 230.22911071777344 50.26435852050781 C 193.85443115234375 51.998104095458984 178.976806640625 48.81682205200195 184.02427673339844 67.32678985595703 C 164.53636169433594 99.21247100830078 160.47195434570312 109.14434814453125 181.11045837402344 104.8425064086914 C 231.2218475341797 60.174102783203125 207.94158935546875 18.836326599121094 178.01170349121094 33.400821685791016 C 148.3592529296875 82.70639038085938 189.92945861816406 72.2349624633789 230.22911071777344 50.26435852050781"/>
    <path stroke-width="0" fill="rgb(247, 134, 23)" opacity="0.45530054" stroke="rgb(24, 219, 248)" stroke-opacity="1.0" stroke-linecap="round" stroke-linejoin="round" d="M 230.33700561523438 108.52104949951172 C 224.033447265625 89.24844360351562 221.71511840820312 82.00934600830078 238.29214477539062 84.22024536132812 C 216.89170837402344 64.08656311035156 233.3298797607422 73.2709732055664 227.4855194091797 88.44417572021484 C 235.291259765625 93.19351959228516 231.79039001464844 88.86528778076172 232.02952575683594 76.13603210449219 C 232.40098571777344 82.24604797363281 241.7333526611328 62.543304443359375 230.33700561523438 108.52104949951172"/>
    <path stroke-width="0" fill="rgb(261, 154, 41)" opacity="0.42569235" stroke="rgb(103, 59, 33)" stroke-opacity="1.0" stroke-linecap="round" stroke-linejoin="round" d="M 228.41134643554688 63.68976593017578 C 216.5789337158203 65.73796081542969 220.930908203125 77.96958923339844 234.6077117919922 88.613037109375 C 239.5449981689453 113.52867889404297 233.48458862304688 122.54855346679688 228.58920288085938 118.11424255371094 C 239.5590057373047 117.48291015625 236.6128692626953 80.49531555175781 217.0564422607422 98.55623626708984 C 212.4683380126953 84.45549774169922 220.11354064941406 86.34355926513672 228.41134643554688 63.68976593017578"/>
    <path stroke-width="0" fill="rgb(220, 138, 20)" opacity="0.77298146" stroke="rgb(185, 2, 196)" stroke-opacity="1.0" stroke-linecap="round" stroke-linejoin="round" d="M 177.1255645751953 100.64178466796875 C 189.4052734375 81.0735092163086 194.61163330078125 114.2223892211914 203.00054931640625 95.88253784179688 C 205.8419189453125 173.31292724609375 208.8806915283203 81.28482818603516 203.28541564941406 111.1131362915039 C 209.08413696289062 93.29936981201172 175.1090545654297 104.23822784423828 173.69557189941406 96.56843566894531 C 193.70046997070312 109.26783752441406 194.93646240234375 83.18412017822266 177.1255645751953 100.64178466796875"/>
    <path stroke-width="0" fill="rgb(122, 120, 141)" opacity="0.88485557" stroke="rgb(66, 116, 174)" stroke-opacity="1.0" stroke-linecap="round" stroke-linejoin="round" d="M 178.6769256591797 100.20909881591797 C 177.10986328125 94.52774810791016 196.3078155517578 167.62913513183594 174.8748016357422 104.81535339355469 C 150.45542907714844 111.8790512084961 135.18936157226562 140.62832641601562 163.02162170410156 111.12541961669922 C 174.571044921875 106.47705078125 175.28836059570312 101.23162078857422 170.65664672851562 59.88090515136719 C 187.81658935546875 113.50008392333984 179.98907470703125 112.26061248779297 178.6769256591797 100.20909881591797"/>
    <path stroke-width="0" fill="rgb(180, 128, 99)" opacity="0.60423344" stroke="rgb(72, 96, 46)" stroke-opacity="1.0" stroke-linecap="round" stroke-linejoin="round" d="M 221.51792907714844 90.64308166503906 C 212.00396728515625 91.51309204101562 251.12277221679688 93.46368408203125 222.89942932128906 77.32415008544922 C 240.91896057128906 80.34925842285156 228.55821228027344 114.88336944580078 213.9354705810547 99.3043212890625 C 213.0570831298828 111.99669647216797 238.1704864501953 79.46142578125 214.7963409423828 77.0699234008789 C 223.69589233398438 83.2860336303711 230.84364318847656 101.32498931884766 221.51792907714844 90.64308166503906"/>
    <path stroke-width="0" fill="rgb(118, 124, 133)" opacity="0.60869145" stroke="rgb(147, 244, 164)" stroke-opacity="1.0" stroke-linecap="round" stroke-linejoin="round" d="M 225.6689453125 79.00508880615234 C 177.3784637451172 78.26174926757812 205.49220275878906 84.69268035888672 184.48519897460938 96.71939086914062 C 169.7439422607422 164.90821838378906 108.31743621826172 260.93115234375 -42.844417572021484 120.59503936767578 C 180.7785186767578 18.17426300048828 157.05833435058594 84.3937759399414 227.37667846679688 78.40858459472656 C 237.50735473632812 69.97250366210938 227.32937622070312 91.129150390625 225.6689453125 79.00508880615234"/>
    <path stroke-width="0" fill="rgb(118, 127, 132)" opacity="0.9516492" stroke="rgb(109, 130, 136)" stroke-opacity="1.0" stroke-linecap="round" stroke-linejoin="round" d="M 197.50218200683594 91.84849548339844 C 200.54879760742188 83.65714263916016 153.3170928955078 84.17312622070312 167.27975463867188 96.54202270507812 C 180.95770263671875 127.71014404296875 153.84939575195312 136.79641723632812 171.7130584716797 82.08538818359375 C 152.02017211914062 91.45885467529297 161.0502166748047 76.60047149658203 158.20521545410156 75.44839477539062 C 187.30284118652344 98.04132843017578 184.76980590820312 120.2645263671875 197.50218200683594 91.84849548339844"/>
    <path stroke-width="0" fill="rgb(128, 122, 143)" opacity="0.6154133" stroke="rgb(70, 32, 100)" stroke-opacity="1.0" stroke-linecap="round" stroke-linejoin="round" d="M 288.0560302734375 121.95410919189453 C 297.3907775878906 110.17100524902344 287.1323547363281 123.15534210205078 298.9289245605469 131.6451873779297 C 280.75335693359375 118.70624542236328 313.43603515625 99.20382690429688 308.0301208496094 137.42425537109375 C 309.4081726074219 125.60340881347656 314.36334228515625 108.69367218017578 335.6742858886719 103.9370346069336 C 324.4569091796875 108.41071319580078 327.3829650878906 104.63908386230469 288.0560302734375 121.95410919189453"/>
    <path stroke-width="0" fill="rgb(223, 155, 70)" opacity="0.5932372" stroke="rgb(47, 230, 138)" stroke-opacity="1.0" stroke-linecap="round" stroke-linejoin="round" d="M 280.7161865234375 320.5609130859375 C 284.0024719238281 312.3910217285156 277.36248779296875 278.34124755859375 289.8475341796875 319.40496826171875 C 309.7535705566406 319.94647216796875 281.34539794921875 333.140869140625 289.5115966796875 296.74322509765625 C 292.0135803222656 249.6239013671875 290.29449462890625 256.9893798828125 282.4354553222656 324.5432434082031 C 287.2457580566406 325.6730651855469 290.3695068359375 320.0400695800781 280.7161865234375 320.5609130859375"/>
    <path stroke-width="0" fill="rgb(247, 177, 77)" opacity="0.5597826" stroke="rgb(224, 116, 184)" stroke-opacity="1.0" stroke-linecap="round" stroke-linejoin="round" d="M 306.5766296386719 118.1562271118164 C 290.2041015625 103.276611328125 296.4794616699219 69.6445083618164 299.1758728027344 122.29386901855469 C 296.4171447753906 115.79631805419922 298.7194519042969 88.53251647949219 297.42828369140625 120.40347290039062 C 310.2149353027344 140.41107177734375 288.3503723144531 119.06132507324219 286.7411804199219 129.35104370117188 C 287.0050048828125 121.31575012207031 284.26031494140625 116.42955780029297 306.5766296386719 118.1562271118164"/>
    <path stroke-width="0" fill="rgb(259, 206, 42)" opacity="0.6463989" stroke="rgb(230, 175, 178)" stroke-opacity="1.0" stroke-linecap="round" stroke-linejoin="round" d="M 309.2350769042969 104.78793334960938 C 297.9057312011719 118.3077392578125 288.6596984863281 132.69927978515625 273.2454528808594 142.90933227539062 C 291.8357238769531 118.55506896972656 289.28802490234375 98.61512756347656 289.1382141113281 136.22640991210938 C 314.59967041015625 96.27864837646484 288.740478515625 102.82410430908203 303.4983825683594 126.41075134277344 C 282.8674011230469 103.14752960205078 308.77117919921875 134.7674560546875 309.2350769042969 104.78793334960938"/>
    <path stroke-width="0" fill="rgb(244, 164, 36)" opacity="0.65283716" stroke="rgb(203, 244, 116)" stroke-opacity="1.0" stroke-linecap="round" stroke-linejoin="round" d="M 282.5980224609375 137.7106170654297 C 296.78082275390625 121.85739135742188 295.18377685546875 106.27787017822266 292.54559326171875 133.11166381835938 C 310.96820068359375 95.54006958007812 294.4338073730469 125.0919189453125 303.6565246582031 111.72848510742188 C 308.0521240234375 114.51593780517578 280.7682800292969 124.69789123535156 310.7371826171875 105.4703369140625 C 291.01324462890625 127.11357879638672 296.302978515625 117.3484115600586 282.5980224609375 137.7106170654297"/>
    <path stroke-width="0" fill="rgb(239, 192, 81)" opacity="0.6801921" stroke="rgb(65, 216, 8)" stroke-opacity="1.0" stroke-linecap="round" stroke-linejoin="round" d="M 297.0563659667969 117.14542388916016 C 282.2151184082031 139.97509765625 284.6960754394531 145.02359008789062 278.7834777832031 128.5758514404297 C 273.8075256347656 140.55934143066406 282.2662353515625 129.65699768066406 278.0245361328125 159.83453369140625 C 278.96875 144.85671997070312 286.6769104003906 137.89340209960938 270.0745849609375 142.82620239257812 C 276.0758972167969 131.69427490234375 273.0381774902344 153.17263793945312 297.0563659667969 117.14542388916016"/>
    <path stroke-width="0" fill="rgb(86, 70, 28)" opacity="0.7053704" stroke="rgb(90, 90, 4)" stroke-opacity="1.0" stroke-linecap="round" stroke-linejoin="round" d="M 274.43218994140625 341.98236083984375 C 281.8756408691406 343.12744140625 274.371337890625 342.4586486816406 277.62713623046875 340.6250305175781 C 275.1847229003906 333.2530212402344 270.399658203125 309.2931213378906 279.8555603027344 352.738525390625 C 272.80511474609375 374.3837585449219 276.30029296875 335.865478515625 283.2890319824219 318.1352844238281 C 276.4494323730469 360.7906494140625 285.7227783203125 341.9189453125 274.43218994140625 341.98236083984375"/>
    <path stroke-width="0" fill="rgb(240, 172, 58)" opacity="0.5027375" stroke="rgb(221, 115, 83)" stroke-opacity="1.0" stroke-linecap="round" stroke-linejoin="round" d="M 297.28399658203125 239.8225555419922 C 309.3829040527344 180.64010620117188 319.2903747558594 206.5001678466797 300.29864501953125 236.74111938476562 C 281.8409729003906 182.7578125 272.43133544921875 149.76651000976562 263.12298583984375 169.33299255371094 C 274.78863525390625 144.79812622070312 280.9451599121094 147.0857391357422 267.5656433105469 169.4295654296875 C 275.8318786621094 165.6215362548828 288.3974914550781 187.00686645507812 297.28399658203125 239.8225555419922"/>
    <path stroke-width="0" fill="rgb(116, 126, 133)" opacity="0.7755079" stroke="rgb(17, 64, 56)" stroke-opacity="1.0" stroke-linecap="round" stroke-linejoin="round" d="M 170.48435974121094 143.0041961669922 C 177.97401428222656 121.8307876586914 168.0819854736328 127.85502624511719 173.97406005859375 171.9993896484375 C 183.54244995117188 168.43826293945312 177.7391815185547 142.9537353515625 160.10299682617188 146.89732360839844 C 176.68148803710938 151.97653198242188 189.27731323242188 122.83648681640625 148.71978759765625 132.24522399902344 C 160.72787475585938 158.70269775390625 177.7651824951172 166.80282592773438 170.48435974121094 143.0041961669922"/>
    <path stroke-width="0" fill="rgb(249, 188, 59)" opacity="0.7285227" stroke="rgb(33, 3, 29)" stroke-opacity="1.0" stroke-linecap="round" stroke-linejoin="round" d="M 226.0347900390625 156.5102081298828 C 195.16897583007812 138.1673583984375 203.8831024169922 163.10610961914062 195.32696533203125 181.96815490722656 C 209.8858642578125 133.858642578125 202.27676391601562 141.50706481933594 191.85531616210938 147.99835205078125 C 179.7691650390625 127.69615173339844 199.03482055664062 130.3841094970703 190.92698669433594 178.11280822753906 C 177.97119140625 176.9156494140625 187.03793334960938 176.98252868652344 226.0347900390625 156.5102081298828"/>
    <path stroke-width="0" fill="rgb(15, 23, 30)" opacity="0.73619896" stroke="rgb(162, 125, 252)" stroke-opacity="1.0" stroke-linecap="round" stroke-linejoin="round" d="M 297.6875915527344 218.78492736816406 C 294.42535400390625 273.7047119140625 279.1406555175781 209.53404235839844 303.1634826660156 242.74627685546875 C 286.8866271972656 220.12770080566406 299.5876770019531 210.11155700683594 296.5657043457031 235.92276000976562 C 291.622802734375 189.45481872558594 288.25201416015625 212.6067657470703 291.092041015625 204.638671875 C 294.1433410644531 223.4381103515625 321.916748046875 253.20420837402344 297.6875915527344 218.78492736816406"/>
    <path stroke-width="0" fill="rgb(159, 153, 135)" opacity="0.7328148" stroke="rgb(199, 73, 61)" stroke-opacity="1.0" stroke-linecap="round" stroke-linejoin="round" d="M 319.9562072753906 213.53414916992188 C 303.40325927734375 218.11578369140625 295.8697509765625 222.60586547851562 317.1167907714844 234.57322692871094 C 302.0449523925781 224.2685546875 306.6174621582031 216.08851623535156 286.8586730957031 237.95880126953125 C 305.4022521972656 244.22830200195312 312.0512390136719 235.2649383544922 298.40325927734375 235.01156616210938 C 301.2114562988281 230.19773864746094 323.7162170410156 208.08602905273438 319.9562072753906 213.53414916992188"/>
    <path stroke-width="0" fill="rgb(116, 138, 171)" opacity="0.6901794" stroke="rgb(141, 73, 180)" stroke-opacity="1.0" stroke-linecap="round" stroke-linejoin="round" d="M 212.7056121826172 215.36875915527344 C 205.93264770507812 201.50038146972656 207.25823974609375 206.1978759765625 207.46267700195312 190.27542114257812 C 203.25950622558594 221.13577270507812 219.81887817382812 216.61077880859375 227.61839294433594 212.2497100830078 C 223.05322265625 214.3658447265625 222.759765625 216.68687438964844 208.96380615234375 215.2316131591797 C 210.81478881835938 214.9977264404297 215.2305908203125 217.14483642578125 212.7056121826172 215.36875915527344"/>
    <path stroke-width="0" fill="rgb(140, 215, 212)" opacity="0.7103412" stroke="rgb(91, 211, 235)" stroke-opacity="1.0" stroke-linecap="round" stroke-linejoin="round" d="M 276.32037353515625 203.5887451171875 C 283.87762451171875 195.95651245117188 311.1744079589844 180.5117950439453 290.7632751464844 237.87025451660156 C 306.0119323730469 235.8255615234375 335.0746154785156 215.1775665283203 274.1479187011719 217.62588500976562 C 305.3016357421875 210.41421508789062 312.1311950683594 208.17080688476562 311.55609130859375 216.08920288085938 C 316.1927490234375 198.22438049316406 294.5446472167969 200.10992431640625 276.32037353515625 203.5887451171875"/>
    <path stroke-width="0" fill="rgb(247, 250, 247)" opacity="0.9898502" stroke="rgb(247, 230, 75)" stroke-opacity="1.0" stroke-linecap="round" stroke-linejoin="round" d="M 201.4475860595703 210.3069610595703 C 208.0789337158203 213.92970275878906 199.33218383789062 196.89794921875 215.79168701171875 207.89822387695312 C 216.02825927734375 203.04029846191406 223.2350616455078 207.4341583251953 223.99429321289062 228.45855712890625 C 223.4424285888672 236.3883056640625 189.5828399658203 231.21339416503906 214.52935791015625 176.8583221435547 C 220.888916015625 168.68450927734375 196.2780303955078 183.6876220703125 201.4475860595703 210.3069610595703"/>
    <path stroke-width="0" fill="rgb(234, 253, 263)" opacity="0.8543176" stroke="rgb(63, 27, 242)" stroke-opacity="1.0" stroke-linecap="round" stroke-linejoin="round" d="M 301.2829284667969 223.32733154296875 C 284.84844970703125 225.93081665039062 313.12249755859375 216.0606231689453 316.0522155761719 214.27410888671875 C 306.0924377441406 185.04473876953125 293.27197265625 226.34295654296875 263.7266540527344 217.2518310546875 C 245.01397705078125 195.0662078857422 226.7540740966797 198.2045440673828 278.47198486328125 215.3689727783203 C 318.0057678222656 231.48355102539062 328.50506591796875 206.83148193359375 301.2829284667969 223.32733154296875"/>
    <path stroke-width="0" fill="rgb(47, 52, 49)" opacity="0.7913312" stroke="rgb(175, 14, 186)" stroke-opacity="1.0" stroke-linecap="round" stroke-linejoin="round" d="M 196.46810913085938 422.5806579589844 C 193.19729614257812 419.99969482421875 178.75466918945312 405.4129638671875 168.49989318847656 411.7668151855469 C 194.93019104003906 406.4353332519531 194.76925659179688 396.0076599121094 179.6800994873047 422.7083740234375 C 182.82330322265625 413.87042236328125 189.9567108154297 408.231201171875 180.8704071044922 411.7067565917969 C 194.71949768066406 418.98944091796875 190.5777587890625 416.8126220703125 196.46810913085938 422.5806579589844"/>
    <path stroke-width="0" fill="rgb(-18, -4, 9)" opacity="0.7773649" stroke="rgb(69, 96, 95)" stroke-opacity="1.0" stroke-linecap="round" stroke-linejoin="round" d="M 298.9879150390625 191.13177490234375 C 277.5500793457031 227.05441284179688 310.74755859375 243.6520233154297 319.3639221191406 235.5887451171875 C 300.56231689453125 239.52818298339844 287.2610168457031 246.4877471923828 305.4549560546875 227.32693481445312 C 308.5205383300781 240.8110809326172 306.8626708984375 225.50152587890625 274.997314453125 201.739501953125 C 318.13214111328125 190.75831604003906 304.53277587890625 213.42254638671875 298.9879150390625 191.13177490234375"/>
    <path stroke-width="0" fill="rgb(263, 189, 15)" opacity="0.7536934" stroke="rgb(213, 60, 128)" stroke-opacity="1.0" stroke-linecap="round" stroke-linejoin="round" d="M 211.16482543945312 80.7589111328125 C 247.52932739257812 86.87755584716797 233.4950714111328 107.03141784667969 232.57095336914062 89.34815216064453 C 207.11727905273438 80.82585906982422 196.33169555664062 99.93392181396484 226.16317749023438 61.95835876464844 C 228.30642700195312 84.37713623046875 247.9670867919922 67.37355041503906 225.72218322753906 76.05116271972656 C 227.4123992919922 64.50025177001953 261.6579895019531 80.28588104248047 211.16482543945312 80.7589111328125"/>
    <path stroke-width="0" fill="rgb(94, 102, 91)" opacity="0.60851854" stroke="rgb(178, 246, 253)" stroke-opacity="1.0" stroke-linecap="round" stroke-linejoin="round" d="M 232.3433074951172 57.62041473388672 C 232.36672973632812 49.12049865722656 218.1248321533203 51.996482849121094 222.96107482910156 54.44838333129883 C 235.650146484375 44.53720474243164 229.10511779785156 63.86240768432617 242.73873901367188 70.77909851074219 C 239.2740478515625 65.96469116210938 234.31410217285156 78.07070922851562 235.25685119628906 57.50367736816406 C 231.9605712890625 64.01547241210938 237.8214569091797 62.5145263671875 232.3433074951172 57.62041473388672"/>
    <path stroke-width="0" fill="rgb(233, 163, 76)" opacity="0.6688997" stroke="rgb(18, 74, 38)" stroke-opacity="1.0" stroke-linecap="round" stroke-linejoin="round" d="M 279.277099609375 257.54205322265625 C 268.84100341796875 256.72906494140625 258.783203125 251.70179748535156 265.02447509765625 252.3326873779297 C 213.39651489257812 254.8274383544922 221.58738708496094 244.36285400390625 187.230712890625 218.9487762451172 C 230.86587524414062 263.04180908203125 262.07049560546875 249.4490509033203 207.08177185058594 253.53236389160156 C 186.70973205566406 258.0694274902344 249.15541076660156 251.95556640625 279.277099609375 257.54205322265625"/>
    <path stroke-width="0" fill="rgb(143, 95, 79)" opacity="0.6897556" stroke="rgb(33, 154, 97)" stroke-opacity="1.0" stroke-linecap="round" stroke-linejoin="round" d="M 224.38705444335938 53.45548629760742 C 198.604248046875 66.56285095214844 216.25845336914062 81.10867309570312 210.56036376953125 72.943115234375 C 210.44732666015625 75.30624389648438 208.85272216796875 67.17088317871094 213.2754669189453 82.32945251464844 C 213.9002685546875 100.77410888671875 236.2684783935547 65.72560119628906 214.7019500732422 87.23804473876953 C 207.28684997558594 64.02386474609375 207.4735107421875 63.408546447753906 224.38705444335938 53.45548629760742"/>
    <path stroke-width="0" fill="rgb(129, 121, 137)" opacity="1.0049909" stroke="rgb(246, 139, 70)" stroke-opacity="1.0" stroke-linecap="round" stroke-linejoin="round" d="M 303.1148986816406 242.20872497558594 C 291.4259338378906 245.1299285888672 276.46844482421875 232.27308654785156 332.32781982421875 228.2394561767578 C 313.1794738769531 233.87713623046875 294.9493103027344 224.81448364257812 262.8857421875 227.76780700683594 C 302.4726257324219 228.8455352783203 285.46728515625 243.2362823486328 304.57379150390625 194.593994140625 C 274.1296081542969 162.55111694335938 334.7527160644531 198.81732177734375 303.1148986816406 242.20872497558594"/>
    <path stroke-width="0" fill="rgb(159, 121, 98)" opacity="0.3987085" stroke="rgb(228, 103, 140)" stroke-opacity="1.0" stroke-linecap="round" stroke-linejoin="round" d="M 219.62435913085938 99.02530670166016 C 222.85214233398438 90.52254486083984 217.99114990234375 89.03336334228516 222.75485229492188 96.44245910644531 C 206.60935974121094 58.42938995361328 202.7111053466797 59.515804290771484 205.31375122070312 62.2038459777832 C 209.9999542236328 57.7484245300293 207.62042236328125 68.88094329833984 199.8008575439453 52.158878326416016 C 213.79052734375 76.45633697509766 224.72288513183594 98.95906829833984 219.62435913085938 99.02530670166016"/>
    <path stroke-width="0" fill="rgb(117, 129, 130)" opacity="1.0109487" stroke="rgb(116, 102, 63)" stroke-opacity="1.0" stroke-linecap="round" stroke-linejoin="round" d="M 325.53985595703125 196.89138793945312 C 283.3572998046875 224.3367156982422 286.7835998535156 229.04092407226562 317.2458190917969 220.60684204101562 C 300.736572265625 230.25778198242188 278.5521545410156 212.21554565429688 280.1498107910156 236.55316162109375 C 303.8101806640625 275.4853210449219 307.185302734375 247.60523986816406 293.058837890625 235.27700805664062 C 307.3003234863281 249.12899780273438 331.6336669921875 274.1142578125 325.53985595703125 196.89138793945312"/>
    <path stroke-width="0" fill="rgb(140, 87, 11)" opacity="0.68548346" stroke="rgb(79, 95, 133)" stroke-opacity="1.0" stroke-linecap="round" stroke-linejoin="round" d="M 230.9944305419922 92.48725891113281 C 257.620361328125 100.90110778808594 266.6195068359375 104.41339874267578 247.76043701171875 97.29375457763672 C 241.67404174804688 90.2308349609375 247.50274658203125 108.65724182128906 224.14468383789062 77.6520767211914 C 255.21583557128906 95.31148529052734 234.61947631835938 104.14229583740234 242.39923095703125 89.41643524169922 C 230.78298950195312 74.30266571044922 239.39373779296875 94.28572082519531 230.9944305419922 92.48725891113281"/>
    <path stroke-width="0" fill="rgb(117, 126, 128)" opacity="0.8798689" stroke="rgb(85, 235, 219)" stroke-opacity="1.0" stroke-linecap="round" stroke-linejoin="round" d="M 314.0750427246094 241.60250854492188 C 311.9349365234375 243.4647979736328 303.0573425292969 240.41485595703125 366.5281677246094 241.42274475097656 C 350.8658752441406 243.99130249023438 342.6925354003906 233.4523468017578 338.59930419921875 226.78565979003906 C 359.0791015625 277.8590087890625 313.64093017578125 270.6748046875 334.8260498046875 233.12307739257812 C 307.41534423828125 230.94540405273438 367.5069274902344 262.0053405761719 314.0750427246094 241.60250854492188"/>
    <path stroke-width="0" fill="rgb(271, 192, 34)" opacity="0.84085417" stroke="rgb(64, 113, 26)" stroke-opacity="1.0" stroke-linecap="round" stroke-linejoin="round" d="M 301.4454345703125 104.72186279296875 C 289.7342834472656 88.10508728027344 320.8563232421875 123.23473358154297 312.1667175292969 94.31549835205078 C 312.6984558105469 118.12630462646484 289.77398681640625 144.45176696777344 285.0741882324219 113.32403564453125 C 314.47650146484375 120.60516357421875 311.7292175292969 88.04132080078125 293.6616516113281 114.76210021972656 C 317.04083251953125 111.5473403930664 302.8038024902344 98.0201416015625 301.4454345703125 104.72186279296875"/>
    <path stroke-width="0" fill="rgb(47, 53, 182)" opacity="0.5304255" stroke="rgb(0, 0, 0)" stroke-opacity="0.0" stroke-linecap="round" stroke-linejoin="round" d="M 132.63511657714844 18.947860717773438 C 132.73809814453125 23.259212493896484 130.0518798828125 26.36942481994629 125.37643432617188 28.495153427124023 C 122.1835708618164 27.954206466674805 120.292724609375 24.719486236572266 120.38731384277344 19.204267501831055 C 120.00424194335938 17.507654190063477 124.37435150146484 15.007925987243652 126.22994232177734 12.178086280822754 C 128.92196655273438 15.4065580368042 132.95130920410156 16.652355194091797 132.63511657714844 18.947860717773438"/>
    <path stroke-width="0" fill="rgb(124, 125, 135)" opacity="0.2663174" stroke="rgb(0, 0, 0)" stroke-opacity="0.0" stroke-linecap="round" stroke-linejoin="round" d="M 450.32501220703125 15.606427192687988 C 451.5718994140625 19.178361892700195 448.07073974609375 21.117244720458984 443.9065856933594 20.79058074951172 C 439.9405822753906 21.249713897705078 436.7461853027344 19.08495330810547 437.79998779296875 15.97579288482666 C 436.95233154296875 10.179908752441406 438.9169006347656 6.562755107879639 442.53692626953125 7.946773529052734 C 447.7272033691406 8.745686531066895 450.85211181640625 11.0205717086792 450.32501220703125 15.606427192687988"/>
    <path stroke-width="0" fill="rgb(92, 128, 47)" opacity="0.48227286" stroke="rgb(0, 0, 0)" stroke-opacity="0.0" stroke-linecap="round" stroke-linejoin="round" d="M 20.826936721801758 3.7935142517089844 C 20.58834457397461 6.71300745010376 18.197240829467773 10.232553482055664 15.722370147705078 13.07170581817627 C 18.069969177246094 11.851621627807617 14.429515838623047 9.46436595916748 12.37303638458252 7.280920505523682 C 12.269806861877441 1.78029465675354 12.738832473754883 -1.7215467691421509 20.548084259033203 -3.3825294971466064 C 24.473915100097656 -1.8812346458435059 23.47648811340332 1.9178612232208252 20.826936721801758 3.7935142517089844"/>
    <path stroke-width="0" fill="rgb(154, 186, 144)" opacity="0.8540224" stroke="rgb(0, 0, 0)" stroke-opacity="0.0" stroke-linecap="round" stroke-linejoin="round" d="M 19.78057098388672 4.002050399780273 C 19.108444213867188 11.441679954528809 16.4982852935791 13.683842658996582 13.166290283203125 14.172717094421387 C 8.379578590393066 13.845203399658203 5.500173568725586 11.80416202545166 5.694488048553467 6.44877815246582 C 4.454388618469238 1.6089469194412231 6.468892574310303 0.4133143424987793 9.666173934936523 2.3265819549560547 C 16.409814834594727 4.028156280517578 21.496013641357422 2.2526824474334717 19.78057098388672 4.002050399780273"/>
    <path stroke-width="0" fill="rgb(146, 138, 27)" opacity="0.36150226" stroke="rgb(0, 0, 0)" stroke-opacity="0.0" stroke-linecap="round" stroke-linejoin="round" d="M 22.559865951538086 5.836263656616211 C 21.073917388916016 9.699267387390137 18.475025177001953 12.844182014465332 16.400270462036133 13.748306274414062 C 12.979639053344727 13.088876724243164 9.46361255645752 10.478776931762695 6.332122325897217 6.756014823913574 C 7.6534423828125 1.940338373184204 10.525763511657715 -1.0958894491195679 14.765015602111816 -1.4079216718673706 C 19.466745376586914 0.6583390235900879 21.95696258544922 3.8571789264678955 22.559865951538086 5.836263656616211"/>
    <path stroke-width="0" fill="rgb(151, 99, 41)" opacity="0.3715115" stroke="rgb(0, 0, 0)" stroke-opacity="0.0" stroke-linecap="round" stroke-linejoin="round" d="M 78.90017700195312 12.217710494995117 C 78.3850326538086 17.00688934326172 75.8246078491211 20.5255184173584 72.29571533203125 20.741395950317383 C 67.81317901611328 18.28239631652832 64.57003021240234 15.604608535766602 63.18043518066406 11.848923683166504 C 64.0039291381836 8.65428638458252 67.82349395751953 6.667811393737793 70.3843002319336 5.6466875076293945 C 73.49299621582031 7.155567646026611 77.87933349609375 8.733638763427734 78.90017700195312 12.217710494995117"/>
    <path stroke-width="0" fill="rgb(101, 178, 74)" opacity="0.28359702" stroke="rgb(0, 0, 0)" stroke-opacity="0.0" stroke-linecap="round" stroke-linejoin="round" d="M 403.63873291015625 335.3822021484375 C 402.38116455078125 339.40972900390625 399.7826843261719 342.5240173339844 396.68853759765625 343.43634033203125 C 392.86676025390625 342.1092529296875 389.38067626953125 339.5549621582031 388.9559020996094 336.17706298828125 C 389.5632629394531 331.8529968261719 391.8680419921875 328.6690368652344 395.70672607421875 328.0013732910156 C 399.45916748046875 329.8011169433594 402.82928466796875 332.4128723144531 403.63873291015625 335.3822021484375"/>
    <path stroke-width="0" fill="rgb(101, 216, 156)" opacity="0.8854593" stroke="rgb(0, 0, 0)" stroke-opacity="0.0" stroke-linecap="round" stroke-linejoin="round" d="M 224.12124633789062 283.3807067871094 C 223.9850311279297 286.8883056640625 221.03988647460938 289.8043518066406 216.9022979736328 290.5522766113281 C 213.01036071777344 289.6589050292969 210.29388427734375 286.6325988769531 209.82566833496094 282.69281005859375 C 210.3701629638672 279.0085754394531 213.0912322998047 275.9346618652344 217.0320281982422 274.0216064453125 C 221.11410522460938 275.48828125 223.2916717529297 278.80657958984375 224.12124633789062 283.3807067871094"/>
    <path stroke-width="0" fill="rgb(189, 141, 215)" opacity="0.06838313" stroke="rgb(0, 0, 0)" stroke-opacity="0.0" stroke-linecap="round" stroke-linejoin="round" d="M 512.7465209960938 363.375244140625 C 511.0715637207031 368.5673522949219 508.64788818359375 371.6620178222656 505.2074279785156 370.9856262207031 C 500.0390625 370.13946533203125 496.3442687988281 368.8336486816406 496.230224609375 363.84246826171875 C 496.242431640625 359.35791015625 499.611083984375 357.19256591796875 504.6658630371094 356.5533142089844 C 508.78179931640625 356.6199035644531 511.9975280761719 359.4830627441406 512.7465209960938 363.375244140625"/>
    <path stroke-width="0" fill="rgb(217, 127, 236)" opacity="0.77617884" stroke="rgb(0, 0, 0)" stroke-opacity="0.0" stroke-linecap="round" stroke-linejoin="round" d="M 171.28785705566406 219.62759399414062 C 171.02809143066406 223.539794921875 167.8556365966797 226.05618286132812 163.61927795410156 226.8498992919922 C 159.91224670410156 227.2435760498047 157.96522521972656 224.30291748046875 157.9662322998047 219.83929443359375 C 158.4031219482422 216.9440155029297 161.44305419921875 214.08340454101562 165.33450317382812 213.475830078125 C 168.03775024414062 214.12835693359375 171.55332946777344 215.85728454589844 171.28785705566406 219.62759399414062"/>
    <path stroke-width="0" fill="rgb(65, 158, 114)" opacity="0.5940711" stroke="rgb(0, 0, 0)" stroke-opacity="0.0" stroke-linecap="round" stroke-linejoin="round" d="M 173.34976196289062 92.54625701904297 C 173.1217498779297 96.67679595947266 170.30252075195312 99.46493530273438 166.26551818847656 99.68238830566406 C 161.83065795898438 98.61424255371094 158.87355041503906 95.92015838623047 158.1885986328125 92.1600112915039 C 159.52931213378906 88.82823181152344 162.36288452148438 85.73003387451172 166.0832977294922 84.3548583984375 C 169.4657745361328 85.36029815673828 172.4200439453125 88.18011474609375 173.34976196289062 92.54625701904297"/>
    <path stroke-width="0" fill="rgb(143, 150, 57)" opacity="0.6801524" stroke="rgb(0, 0, 0)" stroke-opacity="0.0" stroke-linecap="round" stroke-linejoin="round" d="M 402.5092468261719 282.46185302734375 C 401.9497375488281 286.5860290527344 399.06341552734375 289.3719787597656 394.5619812011719 290.599853515625 C 390.37841796875 289.8938903808594 387.8589172363281 286.7139892578125 387.2417907714844 282.6464538574219 C 388.2862548828125 278.5831604003906 391.00146484375 275.4705505371094 394.02978515625 275.2673034667969 C 398.6982421875 276.0836181640625 401.82470703125 278.42718505859375 402.5092468261719 282.46185302734375"/>
    <path stroke-width="0" fill="rgb(249, 211, 246)" opacity="0.974703" stroke="rgb(0, 0, 0)" stroke-opacity="0.0" stroke-linecap="round" stroke-linejoin="round" d="M -14.879664421081543 5.195406913757324 C -15.951460838317871 9.195406913757324 -18.879663467407227 12.123610496520996 -22.879663467407227 13.195406913757324 C -26.879663467407227 12.123610496520996 -29.8078670501709 9.195406913757324 -30.879663467407227 5.195406913757324 C -29.8078670501709 1.1954070329666138 -26.879663467407227 -1.7327961921691895 -22.879663467407227 -2.8045928478240967 C -18.879663467407227 -1.7327961921691895 -15.951460838317871 1.1954070329666138 -14.879664421081543 5.195406913757324"/>
    <path stroke-width="0" fill="rgb(53, 112, 66)" opacity="0.8377577" stroke="rgb(0, 0, 0)" stroke-opacity="0.0" stroke-linecap="round" stroke-linejoin="round" d="M 328.229248046875 135.89047241210938 C 327.4488220214844 140.03182983398438 324.8775939941406 143.45469665527344 320.9502258300781 144.85191345214844 C 316.8058166503906 143.28887939453125 314.0465393066406 140.29148864746094 313.3027648925781 136.3826904296875 C 314.1868591308594 132.27210998535156 316.63525390625 129.05557250976562 320.44952392578125 127.62345123291016 C 324.9500732421875 129.46517944335938 327.8924560546875 132.08042907714844 328.229248046875 135.89047241210938"/>
    <path stroke-width="0" fill="rgb(32, 132, 220)" opacity="0.4011109" stroke="rgb(0, 0, 0)" stroke-opacity="0.0" stroke-linecap="round" stroke-linejoin="round" d="M 155.03919982910156 90.19226837158203 C 154.66970825195312 95.3456039428711 152.61773681640625 98.35850524902344 147.67721557617188 99.31930541992188 C 143.3274688720703 98.59737396240234 140.74057006835938 95.60082244873047 140.8193359375 91.87055206298828 C 142.0513458251953 87.37437438964844 143.91781616210938 83.77912902832031 147.36514282226562 82.82453155517578 C 151.6431121826172 84.61663055419922 154.81326293945312 87.23954772949219 155.03919982910156 90.19226837158203"/>
    <path stroke-width="0" fill="rgb(126, 162, 17)" opacity="0.3200781" stroke="rgb(0, 0, 0)" stroke-opacity="0.0" stroke-linecap="round" stroke-linejoin="round" d="M 459.10919189453125 471.5977478027344 C 458.3218994140625 475.82440185546875 456.07196044921875 479.0019226074219 451.77734375 479.44598388671875 C 447.2181701660156 478.84014892578125 444.4911193847656 476.08746337890625 444.8594970703125 472.4471740722656 C 445.3275146484375 467.8968505859375 447.8934631347656 464.94085693359375 451.220947265625 464.5479431152344 C 455.00146484375 465.4803771972656 458.0528869628906 468.1824035644531 459.10919189453125 471.5977478027344"/>
    <path stroke-width="0" fill="rgb(200, 10, 31)" opacity="0.3512245" stroke="rgb(0, 0, 0)" stroke-opacity="0.0" stroke-linecap="round" stroke-linejoin="round" d="M 266.54742431640625 435.55218505859375 C 266.8009033203125 438.9718322753906 262.9959716796875 441.34967041015625 258.2994384765625 442.8253173828125 C 254.2427978515625 442.1060485839844 251.73570251464844 438.77655029296875 251.43380737304688 435.0948486328125 C 252.26942443847656 430.8938903808594 255.2369384765625 427.8490295410156 258.185546875 427.3563537597656 C 262.0409240722656 428.43670654296875 264.98895263671875 431.1915588378906 266.54742431640625 435.55218505859375"/>
    <path stroke-width="0" fill="rgb(176, 223, 57)" opacity="0.5304607" stroke="rgb(0, 0, 0)" stroke-opacity="0.0" stroke-linecap="round" stroke-linejoin="round" d="M 317.8904724121094 73.74030303955078 C 318.2146911621094 78.58429718017578 315.3656921386719 81.18058013916016 310.8357238769531 81.31939697265625 C 306.0933532714844 81.4746322631836 303.0848388671875 78.66356658935547 303.1590576171875 74.4615249633789 C 303.3475341796875 69.3528823852539 306.2311706542969 66.82748413085938 311.00140380859375 65.87834167480469 C 315.4828796386719 66.158935546875 317.8701171875 69.37271881103516 317.8904724121094 73.74030303955078"/>
    <path stroke-width="0" fill="rgb(193, 125, 34)" opacity="0.49901888" stroke="rgb(0, 0, 0)" stroke-opacity="0.0" stroke-linecap="round" stroke-linejoin="round" d="M 7.614500999450684 1.2119545936584473 C 7.032700538635254 5.750526428222656 4.120394706726074 8.158623695373535 -0.8082402348518372 8.414685249328613 C -4.8322367668151855 7.641849994659424 -7.760439872741699 4.71364688873291 -8.832237243652344 0.7136468291282654 C -7.760439872741699 -3.28635311126709 -4.8322367668151855 -6.2145562171936035 -0.8297690749168396 -7.287188529968262 C 3.2582902908325195 -6.248231410980225 6.582674980163574 -3.5934386253356934 7.614500999450684 1.2119545936584473"/>
    <path stroke-width="0" fill="rgb(21, 38, 13)" opacity="0.2261431" stroke="rgb(0, 0, 0)" stroke-opacity="0.0" stroke-linecap="round" stroke-linejoin="round" d="M -5.195095062255859 -17.541772842407227 C -6.266891956329346 -13.541772842407227 -9.19509506225586 -10.613570213317871 -13.19509506225586 -9.541772842407227 C -17.19509506225586 -10.613570213317871 -20.12329864501953 -13.541772842407227 -21.19509506225586 -17.541772842407227 C -20.12329864501953 -21.541772842407227 -17.19509506225586 -24.4699764251709 -13.19509506225586 -25.541772842407227 C -9.19509506225586 -24.4699764251709 -6.266891956329346 -21.541772842407227 -5.195095062255859 -17.541772842407227"/>
    <path stroke-width="0" fill="rgb(149, 244, 123)" opacity="0.88770145" stroke="rgb(0, 0, 0)" stroke-opacity="0.0" stroke-linecap="round" stroke-linejoin="round" d="M 413.5364685058594 351.5954895019531 C 411.8954772949219 355.2713623046875 409.1162414550781 358.20819091796875 405.7748107910156 358.8801574707031 C 402.2663269042969 357.2882385253906 399.2723083496094 354.35400390625 397.3398132324219 350.9629821777344 C 398.21966552734375 346.6931457519531 400.4626159667969 343.6615295410156 404.2225036621094 343.8521423339844 C 408.28167724609375 345.3819885253906 411.7684326171875 347.89447021484375 413.5364685058594 351.5954895019531"/>
    <path stroke-width="0" fill="rgb(156, 239, 202)" opacity="0.827003" stroke="rgb(0, 0, 0)" stroke-opacity="0.0" stroke-linecap="round" stroke-linejoin="round" d="M 225.86575317382812 202.76524353027344 C 224.96365356445312 207.34030151367188 222.5672149658203 210.77621459960938 219.53646850585938 210.74330139160156 C 215.6939239501953 208.9844970703125 212.3214874267578 206.21551513671875 211.0454559326172 203.0895233154297 C 211.6118927001953 199.29693603515625 214.01808166503906 195.9980010986328 217.49330139160156 196.18359375 C 222.36964416503906 196.83348083496094 225.5654296875 199.23529052734375 225.86575317382812 202.76524353027344"/>
    <path stroke-width="0" fill="rgb(207, 171, 8)" opacity="0.39884752" stroke="rgb(0, 0, 0)" stroke-opacity="0.0" stroke-linecap="round" stroke-linejoin="round" d="M -6.418596267700195 -97.43932342529297 C -7.490393161773682 -93.43932342529297 -10.418596267700195 -90.51111602783203 -14.418596267700195 -89.43932342529297 C -18.418596267700195 -90.51111602783203 -21.346799850463867 -93.43932342529297 -22.418596267700195 -97.43932342529297 C -21.346799850463867 -101.43932342529297 -18.418596267700195 -104.36752319335938 -14.418596267700195 -105.43932342529297 C -10.418596267700195 -104.36752319335938 -7.490393161773682 -101.43932342529297 -6.418596267700195 -97.43932342529297"/>
    <path stroke-width="0" fill="rgb(34, 5, 218)" opacity="0.12412321" stroke="rgb(0, 0, 0)" stroke-opacity="0.0" stroke-linecap="round" stroke-linejoin="round" d="M 59.70722198486328 157.13677978515625 C 58.7976188659668 162.0426788330078 56.622413635253906 165.7071533203125 53.47176742553711 166.59596252441406 C 49.254730224609375 165.0804901123047 46.2746696472168 162.276611328125 45.63854217529297 158.52166748046875 C 46.36696243286133 154.96954345703125 49.02993392944336 151.92391967773438 52.64646530151367 151.40414428710938 C 57.08832550048828 151.7367706298828 60.3585090637207 154.18685913085938 59.70722198486328 157.13677978515625"/>
    <path stroke-width="0" fill="rgb(190, 205, 183)" opacity="0.8347301" stroke="rgb(0, 0, 0)" stroke-opacity="0.0" stroke-linecap="round" stroke-linejoin="round" d="M 36.04415512084961 415.17022705078125 C 35.12282943725586 419.4180603027344 32.07076644897461 422.5584411621094 27.874059677124023 423.9680480957031 C 23.643573760986328 423.24688720703125 20.69988250732422 420.4848327636719 20.994873046875 415.29644775390625 C 20.631542205810547 411.2936706542969 24.23267364501953 408.47613525390625 27.57391929626465 407.5212707519531 C 31.85024070739746 409.548828125 35.50115966796875 411.6585998535156 36.04415512084961 415.17022705078125"/>
    <path stroke-width="0" fill="rgb(241, 85, 62)" opacity="0.03875578" stroke="rgb(0, 0, 0)" stroke-opacity="0.0" stroke-linecap="round" stroke-linejoin="round" d="M 146.4660186767578 21.872018814086914 C 145.6094970703125 24.87669563293457 143.338134765625 28.605728149414062 139.1940460205078 30.203338623046875 C 134.97650146484375 29.19593048095703 132.38839721679688 26.113365173339844 130.87490844726562 21.22835350036621 C 131.97499084472656 17.010547637939453 135.05410766601562 14.07385540008545 139.0983428955078 13.547409057617188 C 142.9716796875 15.016658782958984 145.3536834716797 18.607446670532227 146.4660186767578 21.872018814086914"/>
    <path stroke-width="0" fill="rgb(201, 194, 238)" opacity="0.2540892" stroke="rgb(0, 0, 0)" stroke-opacity="0.0" stroke-linecap="round" stroke-linejoin="round" d="M 421.49908447265625 163.2991180419922 C 420.88433837890625 167.80612182617188 418.36822509765625 170.5143280029297 413.4812316894531 171.4671630859375 C 409.4444580078125 171.0904998779297 406.5957946777344 168.26104736328125 406.06097412109375 163.5427703857422 C 408.1973571777344 160.62069702148438 410.9320068359375 157.5496368408203 413.75103759765625 156.32240295410156 C 417.96820068359375 157.38931274414062 421.348388671875 159.2188262939453 421.49908447265625 163.2991180419922"/>
    <path stroke-width="0" fill="rgb(46, 101, 221)" opacity="0.71344346" stroke="rgb(0, 0, 0)" stroke-opacity="0.0" stroke-linecap="round" stroke-linejoin="round" d="M 482.2921142578125 120.51946258544922 C 482.43450927734375 124.1709213256836 479.8454284667969 127.0860366821289 475.7320861816406 127.78801727294922 C 471.3938293457031 127.35664367675781 468.29815673828125 124.86561584472656 468.82476806640625 121.45906829833984 C 470.09246826171875 117.16885375976562 472.671875 114.13843536376953 476.82666015625 112.90672302246094 C 479.29736328125 113.47461700439453 481.67333984375 117.07337951660156 482.2921142578125 120.51946258544922"/>
    <path stroke-width="0" fill="rgb(166, 179, 140)" opacity="0.68230814" stroke="rgb(0, 0, 0)" stroke-opacity="0.0" stroke-linecap="round" stroke-linejoin="round" d="M 403.522216796875 230.5904541015625 C 402.0201110839844 234.40969848632812 399.29266357421875 237.77249145507812 395.6385192871094 240.26658630371094 C 391.50897216796875 238.6456298828125 388.8128662109375 235.67657470703125 388.46893310546875 231.61390686035156 C 389.4928894042969 228.1134796142578 392.68634033203125 224.86155700683594 396.2623291015625 224.1470184326172 C 400.5343017578125 224.06500244140625 403.6537170410156 226.6495819091797 403.522216796875 230.5904541015625"/>
    <path stroke-width="0" fill="rgb(186, 121, 50)" opacity="0.29048204" stroke="rgb(0, 0, 0)" stroke-opacity="0.0" stroke-linecap="round" stroke-linejoin="round" d="M 355.91558837890625 53.31684875488281 C 355.7859802246094 57.44045639038086 353.12939453125 60.26624298095703 348.1105651855469 61.653873443603516 C 343.9122619628906 61.142215728759766 341.48223876953125 57.9789924621582 341.52593994140625 52.996192932128906 C 341.3253173828125 48.627296447753906 344.30316162109375 45.82075500488281 348.8103942871094 45.746219635009766 C 353.2935791015625 45.91400146484375 355.7589111328125 48.77906036376953 355.91558837890625 53.31684875488281"/>
    <path stroke-width="0" fill="rgb(223, 162, 129)" opacity="0.35298994" stroke="rgb(0, 0, 0)" stroke-opacity="0.0" stroke-linecap="round" stroke-linejoin="round" d="M 501.10260009765625 95.72953033447266 C 500.3128356933594 100.3586654663086 497.71002197265625 103.18743896484375 492.8643798828125 104.31306457519531 C 488.7382507324219 104.03540802001953 485.9327392578125 101.02104187011719 485.4990539550781 96.139892578125 C 486.6038818359375 92.31661224365234 489.6707763671875 89.66288757324219 493.31573486328125 89.19718170166016 C 497.37042236328125 89.6597671508789 500.6127624511719 92.26483917236328 501.10260009765625 95.72953033447266"/>
    <path stroke-width="0" fill="rgb(53, 210, 66)" opacity="0.3216388" stroke="rgb(0, 0, 0)" stroke-opacity="0.0" stroke-linecap="round" stroke-linejoin="round" d="M 69.49491882324219 67.68467712402344 C 69.00180053710938 71.81562042236328 66.69995880126953 74.63899993896484 62.075782775878906 74.71269226074219 C 57.83024978637695 73.6380615234375 54.99075698852539 71.05684661865234 54.5714111328125 66.65253448486328 C 54.9194450378418 63.20136260986328 58.12335968017578 60.66480255126953 61.09634780883789 59.89076232910156 C 65.145263671875 60.78622817993164 68.04901123046875 63.65691375732422 69.49491882324219 67.68467712402344"/>
    <path stroke-width="0" fill="rgb(209, 43, 141)" opacity="0.06711941" stroke="rgb(0, 0, 0)" stroke-opacity="0.0" stroke-linecap="round" stroke-linejoin="round" d="M 53.365989685058594 50.42555236816406 C 50.95446014404297 54.14039611816406 47.69511795043945 56.72590255737305 43.45466232299805 59.410282135009766 C 40.14574432373047 58.02491760253906 37.7387580871582 54.52708435058594 36.963890075683594 50.73979568481445 C 37.96030044555664 46.976566314697266 40.60813903808594 43.93916320800781 43.57758331298828 43.70256805419922 C 47.57886505126953 44.74436569213867 51.0769157409668 47.186180114746094 53.365989685058594 50.42555236816406"/>
    <path stroke-width="0" fill="rgb(100, 214, 79)" opacity="0.7346158" stroke="rgb(0, 0, 0)" stroke-opacity="0.0" stroke-linecap="round" stroke-linejoin="round" d="M 311.30999755859375 279.2595520019531 C 311.3046569824219 283.7099609375 308.3224792480469 286.3367004394531 304.3646240234375 286.54681396484375 C 300.64886474609375 286.2030944824219 297.97674560546875 283.1474609375 297.3146667480469 278.712890625 C 297.2664794921875 275.4404296875 300.4360656738281 272.83843994140625 304.8831787109375 272.1126403808594 C 308.8066101074219 272.3237609863281 311.7205810546875 275.12335205078125 311.30999755859375 279.2595520019531"/>
    <path stroke-width="0" fill="rgb(210, 175, 190)" opacity="0.7779655" stroke="rgb(0, 0, 0)" stroke-opacity="0.0" stroke-linecap="round" stroke-linejoin="round" d="M 419.7705993652344 404.6989440917969 C 419.1026916503906 409.1078186035156 416.1007995605469 411.8871154785156 411.78631591796875 412.4538269042969 C 407.17620849609375 413.32183837890625 404.68389892578125 410.38311767578125 404.9873046875 405.267578125 C 405.51470947265625 401.4870910644531 408.9395446777344 399.11627197265625 412.4908447265625 397.11932373046875 C 415.98345947265625 398.701904296875 419.33062744140625 401.5347900390625 419.7705993652344 404.6989440917969"/>
    <path stroke-width="0" fill="rgb(247, 65, 249)" opacity="0.10218421" stroke="rgb(0, 0, 0)" stroke-opacity="0.0" stroke-linecap="round" stroke-linejoin="round" d="M -121.68081665039062 -251.7452850341797 C -122.75260925292969 -247.7452850341797 -125.68081665039062 -244.81707763671875 -129.68081665039062 -243.7452850341797 C -133.68081665039062 -244.81707763671875 -136.60902404785156 -247.7452850341797 -137.68081665039062 -251.7452850341797 C -136.60902404785156 -255.7452850341797 -133.68081665039062 -258.6734924316406 -129.68081665039062 -259.7452697753906 C -125.68081665039062 -258.6734924316406 -122.75260925292969 -255.7452850341797 -121.68081665039062 -251.7452850341797"/>
    <path stroke-width="0" fill="rgb(22, 217, 108)" opacity="0.8980848" stroke="rgb(0, 0, 0)" stroke-opacity="0.0" stroke-linecap="round" stroke-linejoin="round" d="M 22.672569274902344 -2.2626171112060547 C 20.9455509185791 0.8031381964683533 16.981069564819336 3.0543155670166016 13.69324779510498 5.140283107757568 C 10.440253257751465 4.317465782165527 7.412572383880615 1.4296071529388428 6.288546562194824 -2.4973254203796387 C 7.319916725158691 -6.404266834259033 10.248120307922363 -9.332469940185547 14.248120307922363 -10.404267311096191 C 18.248119354248047 -9.332469940185547 21.17632293701172 -6.404266834259033 22.672569274902344 -2.2626171112060547"/>
    <path stroke-width="0" fill="rgb(139, 40, 169)" opacity="0.16099875" stroke="rgb(0, 0, 0)" stroke-opacity="0.0" stroke-linecap="round" stroke-linejoin="round" d="M 272.1708679199219 289.7506103515625 C 271.5021057128906 294.87347412109375 268.85711669921875 297.41595458984375 264.716552734375 298.021484375 C 261.693603515625 296.3127746582031 258.8136901855469 293.0332336425781 257.1189270019531 289.25787353515625 C 258.3871765136719 287.39984130859375 261.087646484375 284.05126953125 265.1820068359375 282.26995849609375 C 269.0089111328125 282.4945068359375 271.6750793457031 285.9567565917969 272.1708679199219 289.7506103515625"/>
  </g>
</svg>
