<?xml version="1.0" ?>
<svg xmlns="http://www.w3.org/2000/svg" version="1.1" width="512" height="512">
  <defs/>
  <g>
    <path stroke-width="0" fill="rgb(123, 127, 134)" opacity="1.0130594" stroke="rgb(139, 182, 153)" stroke-opacity="1.0" stroke-linecap="round" stroke-linejoin="round" d="M 223.74502563476562 1.9812366962432861 C 160.97557067871094 3.984121561050415 192.44839477539062 49.21086502075195 66.33391571044922 128.90342712402344 C 58.17729568481445 122.41925048828125 55.61058044433594 110.84263610839844 54.83751678466797 87.49947357177734 C 58.889408111572266 -68.72174835205078 69.76350402832031 -69.6482925415039 85.67578125 -59.82435607910156 C 196.88150024414062 -32.087242126464844 205.07772827148438 -25.642202377319336 223.74502563476562 1.9812366962432861"/>
    <path stroke-width="0" fill="rgb(122, 126, 130)" opacity="1.0069596" stroke="rgb(108, 164, 111)" stroke-opacity="1.0" stroke-linecap="round" stroke-linejoin="round" d="M 144.82369995117188 83.47049713134766 C 155.19004821777344 158.32308959960938 160.42108154296875 170.84994506835938 98.68285369873047 172.40841674804688 C -60.776676177978516 166.42526245117188 -47.74026107788086 136.50106811523438 -41.064979553222656 85.29319763183594 C -38.50617218017578 -35.472816467285156 -31.483736038208008 -40.57529067993164 49.036434173583984 -37.23925018310547 C 114.57855224609375 -39.73371505737305 133.71932983398438 -47.08987045288086 144.82369995117188 83.47049713134766"/>
    <path stroke-width="0" fill="rgb(118, 127, 133)" opacity="1.0009086" stroke="rgb(245, 97, 201)" stroke-opacity="1.0" stroke-linecap="round" stroke-linejoin="round" d="M 492.6094055175781 531.4171142578125 C 350.8706970214844 582.8856811523438 327.6231384277344 574.8817749023438 -39.52774429321289 555.3480224609375 C -75.76151275634766 413.1372375488281 -51.65288543701172 351.97052001953125 -47.68789291381836 137.1225128173828 C -54.1921272277832 98.36953735351562 -58.059814453125 85.22721099853516 144.11451721191406 84.7469482421875 C 262.04681396484375 80.77332305908203 394.484619140625 33.57891845703125 492.6094055175781 531.4171142578125"/>
    <path stroke-width="0" fill="rgb(116, 126, 134)" opacity="0.9982129" stroke="rgb(144, 236, 18)" stroke-opacity="1.0" stroke-linecap="round" stroke-linejoin="round" d="M 551.4412841796875 550.86181640625 C 341.2590637207031 511.7068786621094 281.985595703125 425.93927001953125 160.36422729492188 319.92376708984375 C 79.0061264038086 168.8187713623047 61.13517379760742 157.6206817626953 56.574371337890625 141.30433654785156 C 182.96742248535156 27.78074073791504 133.64572143554688 -24.981952667236328 455.3541564941406 -47.639347076416016 C 555.062744140625 -124.77310180664062 573.008544921875 -219.4150390625 551.4412841796875 550.86181640625"/>
    <path stroke-width="0" fill="rgb(260, 236, 194)" opacity="1.0222385" stroke="rgb(5, 212, 198)" stroke-opacity="1.0" stroke-linecap="round" stroke-linejoin="round" d="M 368.00787353515625 368.1465148925781 C 336.4353942871094 299.92401123046875 380.9495849609375 423.85931396484375 327.66156005859375 379.532470703125 C 341.16094970703125 282.86279296875 244.2254638671875 476.9565124511719 287.3981628417969 313.0830078125 C 239.2547149658203 245.49246215820312 286.4903564453125 227.86569213867188 280.35382080078125 305.0618896484375 C 374.760986328125 218.7776336669922 339.8997497558594 339.4997863769531 368.00787353515625 368.1465148925781"/>
    <path stroke-width="0" fill="rgb(246, 245, 242)" opacity="1.0113208" stroke="rgb(249, 203, 117)" stroke-opacity="1.0" stroke-linecap="round" stroke-linejoin="round" d="M 256.5025939941406 348.2236633300781 C 237.65126037597656 360.2098083496094 289.05230712890625 357.9841613769531 221.81668090820312 356.5715637207031 C 211.1365203857422 359.46527099609375 203.4864501953125 326.51849365234375 204.76943969726562 349.2786865234375 C 185.9713134765625 298.00738525390625 181.0641326904297 292.53173828125 195.88137817382812 291.0382080078125 C 264.1487731933594 315.19451904296875 252.38124084472656 281.8863830566406 256.5025939941406 348.2236633300781"/>
    <path stroke-width="0" fill="rgb(258, 191, 68)" opacity="1.0638769" stroke="rgb(30, 163, 36)" stroke-opacity="1.0" stroke-linecap="round" stroke-linejoin="round" d="M 389.2449035644531 331.2664794921875 C 392.00128173828125 386.0527648925781 380.90631103515625 378.3729248046875 346.1055908203125 352.92913818359375 C 384.559814453125 337.8973083496094 326.7552490234375 328.7560729980469 282.7658996582031 309.3175964355469 C 232.4959259033203 287.6231384277344 300.0757141113281 220.852783203125 348.3765869140625 287.4125671386719 C 340.33837890625 301.1466979980469 366.2911071777344 265.20343017578125 389.2449035644531 331.2664794921875"/>
    <path stroke-width="0" fill="rgb(251, 191, 51)" opacity="0.9714446" stroke="rgb(133, 105, 67)" stroke-opacity="1.0" stroke-linecap="round" stroke-linejoin="round" d="M 312.6815185546875 93.12753295898438 C 316.7419738769531 242.16705322265625 144.88815307617188 255.0500946044922 235.4518280029297 73.88005828857422 C 175.43287658691406 164.65187072753906 160.59902954101562 253.2866668701172 188.49449157714844 117.9400405883789 C 223.64212036132812 50.046356201171875 218.22169494628906 62.393314361572266 233.5259246826172 63.06703567504883 C 249.79454040527344 110.89562225341797 227.01304626464844 131.61903381347656 312.6815185546875 93.12753295898438"/>
    <path stroke-width="0" fill="rgb(251, 167, 31)" opacity="0.9750503" stroke="rgb(116, 144, 4)" stroke-opacity="1.0" stroke-linecap="round" stroke-linejoin="round" d="M 301.0668640136719 320.66326904296875 C 315.9700622558594 325.0135192871094 389.2124328613281 338.2070617675781 207.4605712890625 301.35235595703125 C 197.29896545410156 290.8127746582031 156.09730529785156 420.29888916015625 159.7144317626953 246.21038818359375 C 231.07655334472656 -33.42979431152344 145.00868225097656 238.15663146972656 261.2521667480469 241.00636291503906 C 292.5253601074219 256.1376647949219 256.154541015625 149.02423095703125 301.0668640136719 320.66326904296875"/>
    <path stroke-width="0" fill="rgb(248, 253, 256)" opacity="0.9736987" stroke="rgb(156, 157, 240)" stroke-opacity="1.0" stroke-linecap="round" stroke-linejoin="round" d="M 227.72250366210938 208.2171630859375 C 303.3313903808594 274.2401123046875 175.59536743164062 242.44947814941406 196.07220458984375 195.42308044433594 C 300.0205383300781 316.67169189453125 169.114990234375 118.1573715209961 235.34494018554688 235.97982788085938 C 182.15545654296875 189.61105346679688 142.19252014160156 119.88465881347656 273.2138977050781 193.96481323242188 C 311.47943115234375 271.017333984375 171.2355499267578 161.80548095703125 227.72250366210938 208.2171630859375"/>
    <path stroke-width="0" fill="rgb(256, 183, 62)" opacity="1.0313358" stroke="rgb(91, 111, 177)" stroke-opacity="1.0" stroke-linecap="round" stroke-linejoin="round" d="M 173.28005981445312 286.5360107421875 C 135.95326232910156 259.8404541015625 224.78530883789062 268.2685546875 186.669189453125 409.6039733886719 C 93.39842224121094 411.3350830078125 196.16944885253906 420.0516357421875 161.3892822265625 311.526123046875 C 161.27392578125 162.32470703125 184.99517822265625 283.2998046875 183.47738647460938 133.2908935546875 C 376.9762878417969 45.147300720214844 105.44635772705078 219.6397247314453 173.28005981445312 286.5360107421875"/>
    <path stroke-width="0" fill="rgb(254, 205, 81)" opacity="1.0115261" stroke="rgb(170, 171, 53)" stroke-opacity="1.0" stroke-linecap="round" stroke-linejoin="round" d="M 283.83477783203125 322.4424743652344 C 260.7658386230469 404.27685546875 283.5228271484375 432.177490234375 272.6951599121094 399.66632080078125 C 234.18275451660156 395.6354675292969 245.5052947998047 435.9908142089844 244.8630828857422 345.8006896972656 C 252.55836486816406 339.7483215332031 231.53277587890625 319.38330078125 268.2059631347656 274.9849548339844 C 274.91632080078125 206.08152770996094 292.29986572265625 233.9521026611328 283.83477783203125 322.4424743652344"/>
    <path stroke-width="0" fill="rgb(229, 219, 185)" opacity="0.87524056" stroke="rgb(80, 92, 145)" stroke-opacity="1.0" stroke-linecap="round" stroke-linejoin="round" d="M 159.6785888671875 398.99932861328125 C 176.89715576171875 378.67877197265625 142.59449768066406 382.3770751953125 147.90811157226562 406.2823486328125 C 209.1509552001953 404.0462341308594 178.0646209716797 412.0416259765625 191.50392150878906 389.8244323730469 C 136.6222686767578 405.771728515625 145.23956298828125 378.5194091796875 188.2440185546875 400.51483154296875 C 139.24417114257812 368.7236328125 180.24839782714844 410.72064208984375 159.6785888671875 398.99932861328125"/>
    <path stroke-width="0" fill="rgb(253, 167, 57)" opacity="0.7878224" stroke="rgb(166, 64, 118)" stroke-opacity="1.0" stroke-linecap="round" stroke-linejoin="round" d="M 196.29745483398438 333.7701110839844 C 207.75857543945312 341.3449401855469 190.09954833984375 346.4631042480469 198.3759002685547 325.9581298828125 C 193.15965270996094 370.62335205078125 220.84454345703125 316.9250793457031 202.17724609375 351.32958984375 C 218.80712890625 356.13543701171875 207.24514770507812 338.23065185546875 192.0428466796875 363.6663818359375 C 192.20584106445312 351.3191223144531 192.9600372314453 369.97039794921875 196.29745483398438 333.7701110839844"/>
    <path stroke-width="0" fill="rgb(258, 253, 227)" opacity="0.8653948" stroke="rgb(50, 94, 209)" stroke-opacity="1.0" stroke-linecap="round" stroke-linejoin="round" d="M 190.1610107421875 386.1987609863281 C 192.18093872070312 408.97113037109375 176.3947296142578 406.0284423828125 212.83937072753906 396.2839660644531 C 146.14622497558594 416.54608154296875 176.3758087158203 414.89825439453125 146.62530517578125 407.22900390625 C 149.1008758544922 374.61724853515625 158.6400909423828 409.4468078613281 159.9386749267578 389.8306579589844 C 120.85415649414062 372.1566467285156 178.5933837890625 401.7542724609375 190.1610107421875 386.1987609863281"/>
    <path stroke-width="0" fill="rgb(122, 128, 131)" opacity="0.9969203" stroke="rgb(72, 30, 75)" stroke-opacity="1.0" stroke-linecap="round" stroke-linejoin="round" d="M 446.08935546875 623.1931762695312 C -28.819957733154297 435.4930725097656 497.1130676269531 362.8056640625 514.455810546875 331.4502868652344 C 262.6529235839844 416.2367248535156 494.447998046875 360.4956359863281 316.16680908203125 258.2669372558594 C 243.76145935058594 259.9325256347656 306.8690185546875 221.95468139648438 297.811767578125 124.76039123535156 C 353.1844482421875 65.29686737060547 700.8213500976562 -16.99348258972168 446.08935546875 623.1931762695312"/>
    <path stroke-width="0" fill="rgb(258, 239, 198)" opacity="0.9923665" stroke="rgb(81, 105, 16)" stroke-opacity="1.0" stroke-linecap="round" stroke-linejoin="round" d="M 195.17431640625 122.08270263671875 C 189.01296997070312 123.29707336425781 196.8131561279297 123.44510650634766 195.59371948242188 117.44622039794922 C 210.0799102783203 110.28390502929688 191.33827209472656 102.56436157226562 208.7583465576172 120.84387969970703 C 189.2254180908203 145.92898559570312 195.55130004882812 124.41194915771484 195.96302795410156 119.69160461425781 C 190.79640197753906 130.77003479003906 193.6144561767578 126.21786499023438 195.17431640625 122.08270263671875"/>
    <path stroke-width="0" fill="rgb(163, 100, 30)" opacity="0.74224055" stroke="rgb(146, 236, 81)" stroke-opacity="1.0" stroke-linecap="round" stroke-linejoin="round" d="M 192.6918487548828 81.6560287475586 C 198.15533447265625 111.35381317138672 199.5371856689453 110.86646270751953 196.22547912597656 115.41976165771484 C 195.37310791015625 126.94719696044922 190.3709259033203 114.1045150756836 199.3541717529297 116.00224304199219 C 198.92428588867188 104.28799438476562 197.29013061523438 106.91316223144531 195.10653686523438 108.02933502197266 C 197.0791473388672 98.7099609375 199.848388671875 118.27466583251953 192.6918487548828 81.6560287475586"/>
    <path stroke-width="0" fill="rgb(65, 37, 33)" opacity="0.8485181" stroke="rgb(33, 182, 73)" stroke-opacity="1.0" stroke-linecap="round" stroke-linejoin="round" d="M 293.0653381347656 128.11767578125 C 305.2937316894531 178.2384490966797 292.6742858886719 129.39459228515625 301.8482971191406 135.7583770751953 C 298.13702392578125 137.16090393066406 303.5301208496094 139.5836639404297 299.0659484863281 125.59872436523438 C 287.275634765625 177.62277221679688 308.7601318359375 137.34674072265625 298.31939697265625 170.22323608398438 C 298.97723388671875 113.1887435913086 289.0795593261719 182.17039489746094 293.0653381347656 128.11767578125"/>
    <path stroke-width="0" fill="rgb(257, 175, 38)" opacity="1.0558469" stroke="rgb(149, 5, 211)" stroke-opacity="1.0" stroke-linecap="round" stroke-linejoin="round" d="M 269.2085266113281 195.4790802001953 C 286.08935546875 193.47752380371094 269.6888122558594 193.3733367919922 262.0008850097656 187.15347290039062 C 294.235595703125 179.7277374267578 251.15750122070312 191.5041961669922 243.43978881835938 183.5120849609375 C 183.05499267578125 144.95265197753906 306.3910217285156 182.0753631591797 295.940673828125 169.48126220703125 C 286.0126953125 201.7488250732422 315.8017578125 197.8582305908203 269.2085266113281 195.4790802001953"/>
    <path stroke-width="0" fill="rgb(40, -6, 4)" opacity="0.6613152" stroke="rgb(172, 68, 187)" stroke-opacity="1.0" stroke-linecap="round" stroke-linejoin="round" d="M 303.8101501464844 105.59359741210938 C 296.05645751953125 100.74686431884766 338.8629150390625 76.71218872070312 294.3548583984375 133.92880249023438 C 329.9312744140625 94.50968170166016 324.1927795410156 80.83052825927734 276.5874328613281 109.15931701660156 C 265.2309875488281 107.620849609375 353.1851806640625 73.5032730102539 280.4031677246094 119.24844360351562 C 283.6956481933594 130.6271514892578 270.0387878417969 118.45870208740234 303.8101501464844 105.59359741210938"/>
    <path stroke-width="0" fill="rgb(60, 0, 15)" opacity="0.7140347" stroke="rgb(63, 146, 150)" stroke-opacity="1.0" stroke-linecap="round" stroke-linejoin="round" d="M 295.01800537109375 101.50330352783203 C 290.06915283203125 104.17898559570312 310.3275146484375 94.02454376220703 298.2890930175781 96.30984497070312 C 320.1205749511719 93.27922058105469 304.72808837890625 100.59443664550781 306.9497375488281 91.78111267089844 C 300.6275939941406 114.273681640625 327.62591552734375 96.41705322265625 290.4040832519531 97.14068603515625 C 284.92425537109375 115.04247283935547 239.00033569335938 111.9228515625 295.01800537109375 101.50330352783203"/>
    <path stroke-width="0" fill="rgb(-9, -16, -10)" opacity="0.8812434" stroke="rgb(56, 242, 114)" stroke-opacity="1.0" stroke-linecap="round" stroke-linejoin="round" d="M 178.19622802734375 152.83834838867188 C 180.5625457763672 134.34471130371094 184.47491455078125 134.8441162109375 183.46987915039062 144.17608642578125 C 206.45016479492188 87.50823211669922 181.38040161132812 113.70186614990234 182.5592803955078 156.0090789794922 C 170.1486053466797 159.59169006347656 175.66419982910156 180.5127410888672 182.1631317138672 170.3574981689453 C 169.04513549804688 178.28488159179688 182.04104614257812 180.3883056640625 178.19622802734375 152.83834838867188"/>
    <path stroke-width="0" fill="rgb(39, 8, -18)" opacity="0.8599477" stroke="rgb(178, 75, 207)" stroke-opacity="1.0" stroke-linecap="round" stroke-linejoin="round" d="M 218.77117919921875 88.27610778808594 C 232.84249877929688 81.63817596435547 225.85423278808594 81.24156188964844 227.17835998535156 106.45568084716797 C 182.56980895996094 152.83282470703125 216.07577514648438 108.67472839355469 225.75900268554688 92.02544403076172 C 213.6381072998047 127.4151611328125 207.04803466796875 96.49288940429688 213.2650909423828 103.1370620727539 C 233.64028930664062 91.64102935791016 204.90049743652344 112.74272155761719 218.77117919921875 88.27610778808594"/>
    <path stroke-width="0" fill="rgb(-13, 0, 8)" opacity="0.9943607" stroke="rgb(224, 148, 224)" stroke-opacity="1.0" stroke-linecap="round" stroke-linejoin="round" d="M 289.95263671875 221.62692260742188 C 285.0755615234375 214.30718994140625 276.5539245605469 225.27273559570312 297.64215087890625 206.8143310546875 C 298.0718688964844 192.12271118164062 280.3110656738281 209.53231811523438 274.5959777832031 199.5843963623047 C 288.8465576171875 186.07489013671875 269.33453369140625 216.83798217773438 276.69476318359375 193.6253662109375 C 277.2168273925781 217.2482452392578 281.15087890625 205.57293701171875 289.95263671875 221.62692260742188"/>
    <path stroke-width="0" fill="rgb(28, 30, 20)" opacity="0.72774637" stroke="rgb(108, 154, 4)" stroke-opacity="1.0" stroke-linecap="round" stroke-linejoin="round" d="M 238.90005493164062 412.464599609375 C 251.40257263183594 382.4661560058594 220.8539276123047 427.1780700683594 279.5501708984375 412.9804992675781 C 249.03175354003906 404.7118835449219 292.1065979003906 435.1011657714844 271.7620849609375 391.2566223144531 C 279.3941955566406 431.21514892578125 261.40228271484375 408.8976135253906 270.3274841308594 417.55419921875 C 211.05532836914062 414.47552490234375 261.32623291015625 392.0193786621094 238.90005493164062 412.464599609375"/>
    <path stroke-width="0" fill="rgb(117, 124, 139)" opacity="0.73971766" stroke="rgb(168, 73, 157)" stroke-opacity="1.0" stroke-linecap="round" stroke-linejoin="round" d="M 149.10536193847656 358.92486572265625 C 195.3406982421875 387.92120361328125 142.93817138671875 384.1148376464844 171.2327423095703 378.056396484375 C 175.5274658203125 378.70281982421875 163.39552307128906 381.65509033203125 158.95034790039062 347.0667724609375 C 147.31736755371094 385.078125 154.68734741210938 364.0802917480469 158.5380859375 345.11822509765625 C 173.4268035888672 361.75213623046875 168.2886505126953 374.6285400390625 149.10536193847656 358.92486572265625"/>
    <path stroke-width="0" fill="rgb(68, 10, -8)" opacity="0.5399783" stroke="rgb(34, 76, 145)" stroke-opacity="1.0" stroke-linecap="round" stroke-linejoin="round" d="M 230.88375854492188 113.1548843383789 C 197.67323303222656 115.98609161376953 214.17233276367188 93.11540985107422 225.27127075195312 104.58264923095703 C 190.12265014648438 66.12895965576172 219.03236389160156 74.41664123535156 194.96176147460938 104.4283218383789 C 188.03414916992188 148.9828338623047 194.30056762695312 72.00324249267578 224.20416259765625 104.82380676269531 C 228.81365966796875 76.508056640625 168.9652862548828 85.02546691894531 230.88375854492188 113.1548843383789"/>
    <path stroke-width="0" fill="rgb(36, 2, 17)" opacity="0.8767724" stroke="rgb(146, 166, 166)" stroke-opacity="1.0" stroke-linecap="round" stroke-linejoin="round" d="M 176.56471252441406 203.11572265625 C 176.48728942871094 200.1012725830078 176.2487335205078 197.91476440429688 174.89248657226562 193.55465698242188 C 166.02664184570312 208.92750549316406 179.065185546875 148.33932495117188 174.768310546875 201.302978515625 C 166.15089416503906 207.2140655517578 174.9666748046875 193.08599853515625 169.7687225341797 202.9747314453125 C 180.96392822265625 199.718017578125 175.25775146484375 203.9365692138672 176.56471252441406 203.11572265625"/>
    <path stroke-width="0" fill="rgb(42, 1, -7)" opacity="0.47120726" stroke="rgb(228, 93, 111)" stroke-opacity="1.0" stroke-linecap="round" stroke-linejoin="round" d="M 233.4890899658203 112.70466613769531 C 244.3894500732422 97.87709045410156 232.6729278564453 59.67259216308594 241.76316833496094 85.84563446044922 C 217.35073852539062 120.21379852294922 230.68553161621094 132.80245971679688 222.6369171142578 101.90252685546875 C 236.9446258544922 91.30436706542969 287.7801208496094 139.5529327392578 263.6396484375 112.32666778564453 C 233.8961639404297 108.75811767578125 259.9460754394531 88.9151611328125 233.4890899658203 112.70466613769531"/>
    <path stroke-width="0" fill="rgb(233, 172, 157)" opacity="0.66034174" stroke="rgb(205, 179, 25)" stroke-opacity="1.0" stroke-linecap="round" stroke-linejoin="round" d="M 199.94342041015625 104.96385955810547 C 240.010009765625 91.54225158691406 187.68663024902344 134.7349090576172 210.36224365234375 98.90594482421875 C 246.3863983154297 108.28352355957031 225.54978942871094 54.19173812866211 213.20411682128906 95.5488510131836 C 177.45944213867188 65.94132995605469 222.18142700195312 85.25004577636719 215.63101196289062 122.39982604980469 C 254.36219787597656 79.9295883178711 215.5921630859375 103.30734252929688 199.94342041015625 104.96385955810547"/>
    <path stroke-width="0" fill="rgb(241, 202, 143)" opacity="0.5954824" stroke="rgb(205, 145, 103)" stroke-opacity="1.0" stroke-linecap="round" stroke-linejoin="round" d="M 292.9158935546875 145.38882446289062 C 280.3127136230469 118.40137481689453 255.18385314941406 142.50511169433594 286.58905029296875 130.55325317382812 C 291.3232116699219 151.6382598876953 274.92816162109375 141.9855499267578 290.9642333984375 144.89859008789062 C 295.3473205566406 149.90481567382812 296.080078125 110.07395935058594 298.58245849609375 144.32785034179688 C 271.2735900878906 137.0369873046875 291.4670715332031 145.754638671875 292.9158935546875 145.38882446289062"/>
    <path stroke-width="0" fill="rgb(100, 100, 130)" opacity="0.6593915" stroke="rgb(177, 115, 184)" stroke-opacity="1.0" stroke-linecap="round" stroke-linejoin="round" d="M 154.20986938476562 191.8712158203125 C 168.26406860351562 202.41722106933594 170.56524658203125 198.1580047607422 167.59765625 211.347900390625 C 170.52174377441406 217.7113037109375 157.96640014648438 219.52493286132812 167.81643676757812 229.4451904296875 C 168.09478759765625 210.53526306152344 168.3102569580078 215.3671875 164.28164672851562 218.67247009277344 C 176.19032287597656 204.36947631835938 173.99305725097656 203.49331665039062 154.20986938476562 191.8712158203125"/>
    <path stroke-width="0" fill="rgb(174, 168, 228)" opacity="0.71128196" stroke="rgb(248, 218, 2)" stroke-opacity="1.0" stroke-linecap="round" stroke-linejoin="round" d="M 287.70355224609375 219.97023010253906 C 298.3338928222656 193.01669311523438 315.9762268066406 220.69549560546875 240.76397705078125 235.42648315429688 C 252.3255157470703 248.98373413085938 245.48736572265625 229.66819763183594 262.7618103027344 230.0369873046875 C 280.75909423828125 221.32339477539062 279.9341735839844 244.68922424316406 259.6261291503906 239.23406982421875 C 232.05584716796875 220.3142547607422 291.4994201660156 206.6272430419922 287.70355224609375 219.97023010253906"/>
    <path stroke-width="0" fill="rgb(0, 67, 92)" opacity="0.62333894" stroke="rgb(186, 43, 132)" stroke-opacity="1.0" stroke-linecap="round" stroke-linejoin="round" d="M 214.5477294921875 203.81654357910156 C 227.3808135986328 186.94985961914062 216.52159118652344 228.24754333496094 227.5511016845703 210.70594787597656 C 240.00213623046875 217.89041137695312 251.61962890625 202.90762329101562 220.21875 214.8459014892578 C 219.0752410888672 194.3577117919922 224.94204711914062 198.06689453125 224.5648193359375 209.48526000976562 C 214.91177368164062 215.27285766601562 241.27072143554688 230.73910522460938 214.5477294921875 203.81654357910156"/>
    <path stroke-width="0" fill="rgb(204, 112, 0)" opacity="0.49990422" stroke="rgb(88, 236, 179)" stroke-opacity="1.0" stroke-linecap="round" stroke-linejoin="round" d="M 288.7666931152344 263.31231689453125 C 276.09326171875 257.3880310058594 291.8409118652344 251.00796508789062 285.8118896484375 260.8297424316406 C 288.75360107421875 259.73779296875 275.1811218261719 260.7977294921875 289.0644836425781 265.19842529296875 C 328.2569580078125 264.00299072265625 342.2384948730469 264.6304016113281 280.32171630859375 262.170654296875 C 303.13446044921875 257.2479553222656 302.82086181640625 338.9166259765625 288.7666931152344 263.31231689453125"/>
    <path stroke-width="0" fill="rgb(10, 6, 27)" opacity="0.7096665" stroke="rgb(41, 158, 147)" stroke-opacity="1.0" stroke-linecap="round" stroke-linejoin="round" d="M 227.73817443847656 202.6157684326172 C 234.19200134277344 216.0220947265625 220.7280731201172 208.52256774902344 279.5985107421875 230.2083740234375 C 286.91815185546875 213.25328063964844 236.7971954345703 227.18592834472656 250.45664978027344 232.81541442871094 C 213.5364990234375 203.43408203125 254.05343627929688 212.7377471923828 233.69805908203125 211.73451232910156 C 238.54954528808594 212.81512451171875 243.68138122558594 206.1184844970703 227.73817443847656 202.6157684326172"/>
    <path stroke-width="0" fill="rgb(49, 19, 13)" opacity="0.94720614" stroke="rgb(238, 156, 136)" stroke-opacity="1.0" stroke-linecap="round" stroke-linejoin="round" d="M 306.2882080078125 191.31149291992188 C 292.3547668457031 175.89547729492188 269.0780029296875 169.4078826904297 286.7964172363281 165.00904846191406 C 300.1220703125 169.93612670898438 284.886962890625 154.8101806640625 292.74151611328125 164.7667999267578 C 285.85693359375 171.26278686523438 287.6070861816406 175.20249938964844 307.636474609375 210.31124877929688 C 282.9560852050781 178.9644775390625 289.83837890625 174.46255493164062 306.2882080078125 191.31149291992188"/>
    <path stroke-width="0" fill="rgb(52, 26, 19)" opacity="0.70984644" stroke="rgb(186, 79, 101)" stroke-opacity="1.0" stroke-linecap="round" stroke-linejoin="round" d="M 167.58460998535156 218.4033660888672 C 167.63134765625 213.6226348876953 173.0880584716797 219.55197143554688 169.35118103027344 212.1014404296875 C 169.49517822265625 223.99842834472656 174.48077392578125 176.22047424316406 161.47389221191406 243.5305633544922 C 158.94674682617188 235.34100341796875 170.80767822265625 230.676025390625 162.35891723632812 230.4439239501953 C 167.8751983642578 222.18443298339844 169.26486206054688 245.43882751464844 167.58460998535156 218.4033660888672"/>
    <path stroke-width="0" fill="rgb(17, 18, 0)" opacity="0.9015595" stroke="rgb(57, 64, 14)" stroke-opacity="1.0" stroke-linecap="round" stroke-linejoin="round" d="M 157.56288146972656 270.8737487792969 C 157.77548217773438 266.9040222167969 155.97911071777344 281.26263427734375 157.4351043701172 254.86221313476562 C 175.51687622070312 226.68048095703125 154.3412628173828 207.43582153320312 155.85108947753906 308.1259765625 C 163.6675262451172 320.9418640136719 157.06954956054688 315.75897216796875 160.0890350341797 238.40377807617188 C 153.09986877441406 293.6280822753906 157.9375457763672 279.04388427734375 157.56288146972656 270.8737487792969"/>
    <path stroke-width="0" fill="rgb(253, 262, 259)" opacity="0.8123967" stroke="rgb(6, 17, 173)" stroke-opacity="1.0" stroke-linecap="round" stroke-linejoin="round" d="M 347.9256591796875 373.95941162109375 C 349.425537109375 402.0498046875 375.1891174316406 364.10797119140625 333.8465576171875 377.6316833496094 C 371.76751708984375 321.7772216796875 313.3175964355469 367.3175964355469 324.251708984375 347.2997741699219 C 287.6017150878906 327.4130859375 351.0345764160156 316.36395263671875 351.20458984375 344.8685607910156 C 314.3671875 348.7563781738281 325.55377197265625 385.03594970703125 347.9256591796875 373.95941162109375"/>
    <path stroke-width="0" fill="rgb(43, 23, 18)" opacity="0.9256688" stroke="rgb(136, 228, 252)" stroke-opacity="1.0" stroke-linecap="round" stroke-linejoin="round" d="M 315.6519775390625 259.5160827636719 C 410.7791748046875 324.6045837402344 382.4185791015625 307.44482421875 353.3222961425781 286.90863037109375 C 344.7734680175781 282.89697265625 359.23101806640625 282.9227600097656 352.5046691894531 291.8193359375 C 360.1458740234375 392.9866943359375 360.4369201660156 368.3631591796875 356.2752380371094 295.3492736816406 C 345.2196960449219 300.6520690917969 351.5113525390625 269.14471435546875 315.6519775390625 259.5160827636719"/>
    <path stroke-width="0" fill="rgb(1, -11, 8)" opacity="0.76631844" stroke="rgb(81, 97, 150)" stroke-opacity="1.0" stroke-linecap="round" stroke-linejoin="round" d="M 253.74745178222656 221.58065795898438 C 239.95297241210938 203.20460510253906 211.74720764160156 213.01144409179688 270.5623474121094 229.97479248046875 C 265.00640869140625 216.44480895996094 232.0919189453125 216.1124267578125 252.86778259277344 239.40277099609375 C 274.93280029296875 252.29090881347656 277.38214111328125 234.25686645507812 260.5426025390625 241.30751037597656 C 255.2705078125 231.63690185546875 251.73159790039062 241.55532836914062 253.74745178222656 221.58065795898438"/>
    <path stroke-width="0" fill="rgb(270, 254, 234)" opacity="0.7312828" stroke="rgb(160, 222, 69)" stroke-opacity="1.0" stroke-linecap="round" stroke-linejoin="round" d="M 174.98915100097656 387.5950927734375 C 198.546142578125 373.90179443359375 155.47232055664062 403.2750244140625 163.77598571777344 371.6454162597656 C 162.8643798828125 398.21685791015625 168.1627197265625 385.6986389160156 157.788818359375 394.26336669921875 C 177.20611572265625 362.4083557128906 158.64794921875 355.06243896484375 164.93789672851562 352.2108154296875 C 165.08358764648438 372.0920104980469 185.6018829345703 343.9659118652344 174.98915100097656 387.5950927734375"/>
    <path stroke-width="0" fill="rgb(120, 127, 121)" opacity="0.9776512" stroke="rgb(47, 242, 175)" stroke-opacity="1.0" stroke-linecap="round" stroke-linejoin="round" d="M 318.9378662109375 357.35302734375 C 320.9121398925781 364.2723693847656 322.94952392578125 342.0462646484375 321.3390197753906 355.8062438964844 C 312.2476501464844 360.8871154785156 303.083251953125 325.8377685546875 296.27972412109375 376.82135009765625 C 340.945068359375 358.5016174316406 322.2989807128906 333.699462890625 284.3459777832031 319.12445068359375 C 338.87841796875 343.7325744628906 306.9200134277344 333.6803283691406 318.9378662109375 357.35302734375"/>
    <path stroke-width="0" fill="rgb(29, -2, 3)" opacity="0.7504193" stroke="rgb(241, 186, 64)" stroke-opacity="1.0" stroke-linecap="round" stroke-linejoin="round" d="M 284.5621643066406 262.4299011230469 C 283.32794189453125 244.9894561767578 286.4710388183594 269.2276611328125 307.59710693359375 255.39353942871094 C 303.9962158203125 258.18341064453125 293.60052490234375 258.9883117675781 315.1678771972656 260.4907531738281 C 332.6656494140625 256.4046325683594 384.6673889160156 328.6578063964844 325.69818115234375 261.9553527832031 C 312.641845703125 271.26470947265625 315.5071105957031 245.5703887939453 284.5621643066406 262.4299011230469"/>
    <path stroke-width="0" fill="rgb(-4, 0, 11)" opacity="0.8302116" stroke="rgb(132, 6, 52)" stroke-opacity="1.0" stroke-linecap="round" stroke-linejoin="round" d="M 201.75833129882812 103.16063690185547 C 205.12411499023438 98.04832458496094 194.50308227539062 83.15250396728516 203.08099365234375 92.8240966796875 C 201.93609619140625 90.77758026123047 216.29568481445312 60.1341438293457 188.79275512695312 119.74372100830078 C 222.29306030273438 66.36077117919922 211.00634765625 57.48725128173828 235.9211883544922 62.88911056518555 C 220.62611389160156 44.06150817871094 197.33480834960938 89.07404327392578 201.75833129882812 103.16063690185547"/>
    <path stroke-width="0" fill="rgb(28, 1, -4)" opacity="0.90893185" stroke="rgb(182, 100, 144)" stroke-opacity="1.0" stroke-linecap="round" stroke-linejoin="round" d="M 306.3929748535156 192.86659240722656 C 300.8100891113281 191.59671020507812 312.2426452636719 219.98477172851562 303.4951171875 221.02577209472656 C 300.2802734375 192.6866912841797 319.6324768066406 203.35171508789062 297.86944580078125 221.20970153808594 C 291.4759826660156 222.65399169921875 327.4451599121094 231.42652893066406 268.4974670410156 226.85986328125 C 285.1106262207031 220.64999389648438 308.4977111816406 215.47007751464844 306.3929748535156 192.86659240722656"/>
    <path stroke-width="0" fill="rgb(202, 125, 113)" opacity="0.57189626" stroke="rgb(140, 149, 245)" stroke-opacity="1.0" stroke-linecap="round" stroke-linejoin="round" d="M 218.7859649658203 74.12300109863281 C 227.13623046875 94.25590515136719 201.85301208496094 91.55093383789062 216.17129516601562 98.8001480102539 C 232.11959838867188 67.90962982177734 208.71336364746094 71.48566436767578 182.0237274169922 77.12266540527344 C 202.0364532470703 83.63102722167969 178.09274291992188 100.62635040283203 189.22276306152344 75.08892822265625 C 219.57522583007812 69.26461029052734 247.9918975830078 83.10663604736328 218.7859649658203 74.12300109863281"/>
    <path stroke-width="0" fill="rgb(66, 10, 23)" opacity="0.8238042" stroke="rgb(61, 25, 4)" stroke-opacity="1.0" stroke-linecap="round" stroke-linejoin="round" d="M 273.0827331542969 238.33517456054688 C 280.9934387207031 229.09706115722656 237.92669677734375 227.8759307861328 268.1199035644531 231.01937866210938 C 270.30218505859375 236.12005615234375 256.1921081542969 223.2403564453125 261.8404235839844 233.6296844482422 C 270.6107482910156 232.55264282226562 278.3186340332031 241.6096954345703 257.1560974121094 248.31202697753906 C 271.36212158203125 242.8908233642578 269.9519348144531 240.33026123046875 273.0827331542969 238.33517456054688"/>
    <path stroke-width="0" fill="rgb(254, 176, 41)" opacity="0.89717996" stroke="rgb(86, 245, 59)" stroke-opacity="1.0" stroke-linecap="round" stroke-linejoin="round" d="M 277.5992736816406 313.1025390625 C 277.41064453125 318.36383056640625 268.8863525390625 335.8710632324219 332.5172424316406 274.52667236328125 C 262.8178405761719 223.41656494140625 290.63134765625 320.7714538574219 325.0708312988281 288.8504943847656 C 309.7298583984375 349.9749755859375 272.10430908203125 303.6434631347656 291.2527770996094 291.92303466796875 C 319.62298583984375 280.7400207519531 288.8641662597656 344.7198486328125 277.5992736816406 313.1025390625"/>
    <path stroke-width="0" fill="rgb(251, 248, 231)" opacity="0.5013196" stroke="rgb(240, 203, 160)" stroke-opacity="1.0" stroke-linecap="round" stroke-linejoin="round" d="M 258.7827453613281 186.77377319335938 C 260.62994384765625 203.27023315429688 266.56597900390625 214.3317413330078 296.6324462890625 236.0218963623047 C 300.8287658691406 216.58253479003906 308.9532775878906 217.45529174804688 305.9087219238281 210.82415771484375 C 308.3293762207031 258.2721252441406 267.9561767578125 232.68052673339844 288.459716796875 227.65878295898438 C 256.6523132324219 197.99163818359375 265.7751770019531 218.00424194335938 258.7827453613281 186.77377319335938"/>
    <path stroke-width="0" fill="rgb(70, 27, 28)" opacity="0.8464435" stroke="rgb(88, 37, 250)" stroke-opacity="1.0" stroke-linecap="round" stroke-linejoin="round" d="M 273.31817626953125 348.102294921875 C 294.93829345703125 313.3197937011719 280.2366027832031 315.5243225097656 285.3182067871094 326.1118469238281 C 290.30023193359375 328.3258361816406 285.8774719238281 259.9032287597656 283.6580505371094 317.1431884765625 C 293.0373229980469 339.2820129394531 287.9564514160156 303.80413818359375 317.5522155761719 322.20440673828125 C 254.30105590820312 302.06219482421875 293.04229736328125 368.6691589355469 273.31817626953125 348.102294921875"/>
    <path stroke-width="0" fill="rgb(112, 134, 155)" opacity="0.4111925" stroke="rgb(126, 163, 93)" stroke-opacity="1.0" stroke-linecap="round" stroke-linejoin="round" d="M 201.3466796875 71.42098236083984 C 210.99993896484375 65.14299774169922 219.2494659423828 72.99420166015625 203.67408752441406 66.7818374633789 C 208.73080444335938 60.65970993041992 211.25730895996094 34.20874786376953 207.8457489013672 61.91511535644531 C 208.4173126220703 69.78999328613281 228.240966796875 58.45634841918945 230.214599609375 56.978179931640625 C 198.22132873535156 53.57217025756836 218.9564971923828 80.81867218017578 201.3466796875 71.42098236083984"/>
    <path stroke-width="0" fill="rgb(119, 127, 129)" opacity="0.8667684" stroke="rgb(209, 48, 130)" stroke-opacity="1.0" stroke-linecap="round" stroke-linejoin="round" d="M 230.08029174804688 49.52376937866211 C 193.4427947998047 51.83566665649414 178.43223571777344 48.4953498840332 183.47299194335938 66.9566421508789 C 165.26870727539062 99.69783020019531 160.9550323486328 109.3670654296875 180.6324920654297 104.18856048583984 C 230.9943389892578 59.587852478027344 208.2472381591797 18.533710479736328 178.35513305664062 33.560325622558594 C 147.79481506347656 82.30077362060547 189.33868408203125 71.57215118408203 230.08029174804688 49.52376937866211"/>
    <path stroke-width="0" fill="rgb(244, 135, 25)" opacity="0.44594288" stroke="rgb(24, 219, 248)" stroke-opacity="1.0" stroke-linecap="round" stroke-linejoin="round" d="M 229.7705841064453 108.05577087402344 C 223.0391845703125 89.83164978027344 220.67755126953125 82.37542724609375 237.46607971191406 84.72265625 C 216.47178649902344 64.49549865722656 233.2703094482422 73.42374420166016 227.59689331054688 89.11195373535156 C 235.4213409423828 93.26222229003906 232.0642547607422 88.63542938232422 232.2644805908203 76.4039306640625 C 232.59400939941406 82.40959930419922 241.6273193359375 62.21597671508789 229.7705841064453 108.05577087402344"/>
    <path stroke-width="0" fill="rgb(40, 24, 17)" opacity="0.86304516" stroke="rgb(231, 197, 84)" stroke-opacity="1.0" stroke-linecap="round" stroke-linejoin="round" d="M 376.4332275390625 304.2229919433594 C 399.22149658203125 327.20843505859375 381.5496826171875 345.98822021484375 393.5054626464844 352.0671691894531 C 386.8868103027344 349.7442626953125 390.81298828125 349.16790771484375 389.81427001953125 354.9007568359375 C 393.94598388671875 326.76922607421875 385.0377197265625 330.56097412109375 389.8409423828125 336.97216796875 C 380.6268310546875 326.75604248046875 398.15484619140625 352.3322448730469 376.4332275390625 304.2229919433594"/>
    <path stroke-width="0" fill="rgb(261, 154, 45)" opacity="0.42103505" stroke="rgb(103, 59, 33)" stroke-opacity="1.0" stroke-linecap="round" stroke-linejoin="round" d="M 228.33212280273438 64.20658874511719 C 216.76788330078125 65.94818878173828 220.99940490722656 77.93019104003906 235.08824157714844 88.3177490234375 C 239.9432373046875 113.3765640258789 233.48843383789062 122.61065673828125 229.0276641845703 117.99620819091797 C 239.61721801757812 116.6734619140625 236.7202911376953 79.15986633300781 216.732666015625 97.53482818603516 C 212.34231567382812 84.68165588378906 219.84967041015625 86.09333801269531 228.33212280273438 64.20658874511719"/>
    <path stroke-width="0" fill="rgb(215, 133, 21)" opacity="0.7960424" stroke="rgb(185, 2, 196)" stroke-opacity="1.0" stroke-linecap="round" stroke-linejoin="round" d="M 177.06605529785156 100.77620697021484 C 188.9466552734375 81.07725524902344 193.9344940185547 113.83687591552734 202.8378448486328 95.55670166015625 C 206.5569305419922 173.6442108154297 209.24728393554688 81.58290100097656 203.38656616210938 111.30696868896484 C 209.5482940673828 93.29515075683594 175.10765075683594 103.93864440917969 173.77587890625 96.44575500488281 C 193.82362365722656 109.78321075439453 195.40655517578125 83.40670776367188 177.06605529785156 100.77620697021484"/>
    <path stroke-width="0" fill="rgb(124, 122, 141)" opacity="0.8939439" stroke="rgb(66, 116, 174)" stroke-opacity="1.0" stroke-linecap="round" stroke-linejoin="round" d="M 178.62100219726562 100.31725311279297 C 176.9160919189453 94.7840805053711 195.86654663085938 167.95079040527344 174.4042510986328 104.72665405273438 C 149.87384033203125 111.3648681640625 135.5105743408203 140.96170043945312 164.09072875976562 112.24128723144531 C 174.91058349609375 106.72877502441406 175.21865844726562 101.60343170166016 170.6311798095703 58.990352630615234 C 188.26756286621094 113.19889831542969 180.4165496826172 112.27517700195312 178.62100219726562 100.31725311279297"/>
    <path stroke-width="0" fill="rgb(182, 127, 100)" opacity="0.61557525" stroke="rgb(72, 96, 46)" stroke-opacity="1.0" stroke-linecap="round" stroke-linejoin="round" d="M 221.77972412109375 91.15733337402344 C 212.63746643066406 91.8256607055664 251.86656188964844 93.87271118164062 223.20449829101562 77.18827056884766 C 241.08102416992188 80.7586898803711 228.7006072998047 114.8961181640625 214.5130157470703 99.7743148803711 C 213.06573486328125 112.20201873779297 237.62872314453125 79.96041870117188 214.0060272216797 77.86579132080078 C 223.09129333496094 84.01747131347656 230.85025024414062 102.06415557861328 221.77972412109375 91.15733337402344"/>
    <path stroke-width="0" fill="rgb(119, 126, 133)" opacity="0.6152622" stroke="rgb(147, 244, 164)" stroke-opacity="1.0" stroke-linecap="round" stroke-linejoin="round" d="M 226.01126098632812 78.67272186279297 C 176.94802856445312 77.96119689941406 204.97366333007812 84.3238296508789 184.88162231445312 96.98937225341797 C 170.0438995361328 164.76968383789062 108.53738403320312 260.57208251953125 -42.08943176269531 121.1729965209961 C 181.1422882080078 18.45638656616211 157.0403289794922 84.4836196899414 227.7317352294922 78.47254943847656 C 237.8086395263672 69.98107147216797 227.61817932128906 91.18336486816406 226.01126098632812 78.67272186279297"/>
    <path stroke-width="0" fill="rgb(117, 127, 129)" opacity="0.94745153" stroke="rgb(109, 130, 136)" stroke-opacity="1.0" stroke-linecap="round" stroke-linejoin="round" d="M 198.27294921875 91.60370635986328 C 200.8512420654297 83.39549255371094 153.42408752441406 84.05255126953125 167.00880432128906 96.84368133544922 C 180.9224395751953 128.05494689941406 153.82632446289062 137.32553100585938 172.06845092773438 82.08120727539062 C 151.97891235351562 91.262451171875 161.20254516601562 76.49849700927734 158.44969177246094 75.37981414794922 C 187.90843200683594 97.39964294433594 185.38975524902344 119.94685363769531 198.27294921875 91.60370635986328"/>
    <path stroke-width="0" fill="rgb(131, 119, 141)" opacity="0.62172586" stroke="rgb(70, 32, 100)" stroke-opacity="1.0" stroke-linecap="round" stroke-linejoin="round" d="M 287.6931457519531 122.11129760742188 C 296.5558776855469 109.60787963867188 286.9798889160156 122.3789291381836 298.9716491699219 131.52978515625 C 281.162841796875 118.52545166015625 314.1128234863281 98.66303253173828 308.9508361816406 136.95791625976562 C 310.2149353027344 126.3521499633789 315.026611328125 109.1246337890625 336.07464599609375 104.10124206542969 C 324.73699951171875 108.67913818359375 327.7742919921875 105.04035186767578 287.6931457519531 122.11129760742188"/>
    <path stroke-width="0" fill="rgb(219, 152, 71)" opacity="0.6076013" stroke="rgb(47, 230, 138)" stroke-opacity="1.0" stroke-linecap="round" stroke-linejoin="round" d="M 279.5509338378906 320.693115234375 C 282.93377685546875 311.62890625 276.166259765625 277.8959045410156 289.4646301269531 319.20697021484375 C 309.80291748046875 319.9991149902344 281.3379821777344 332.9267578125 288.7918701171875 296.2484130859375 C 291.4812316894531 249.08055114746094 289.67340087890625 256.3809509277344 281.75640869140625 324.63018798828125 C 287.5927734375 326.2131652832031 290.4699401855469 320.478515625 279.5509338378906 320.693115234375"/>
    <path stroke-width="0" fill="rgb(250, 177, 79)" opacity="0.57939273" stroke="rgb(224, 116, 184)" stroke-opacity="1.0" stroke-linecap="round" stroke-linejoin="round" d="M 306.5982666015625 118.41552734375 C 289.762939453125 103.28501892089844 296.7361755371094 69.7936019897461 300.1034851074219 121.9960708618164 C 296.7262268066406 115.52603912353516 298.9100036621094 88.31800842285156 297.6129455566406 120.5211410522461 C 310.7197265625 140.62832641601562 288.8953857421875 119.19058990478516 286.7547607421875 129.41854858398438 C 287.0271911621094 122.09346008300781 284.7672119140625 117.11029815673828 306.5982666015625 118.41552734375"/>
    <path stroke-width="0" fill="rgb(259, 203, 42)" opacity="0.6367454" stroke="rgb(230, 175, 178)" stroke-opacity="1.0" stroke-linecap="round" stroke-linejoin="round" d="M 309.1850891113281 105.19522094726562 C 297.8960266113281 118.2303237915039 288.0013732910156 132.04493713378906 273.639404296875 142.70632934570312 C 292.2763671875 119.10667419433594 289.80792236328125 98.62211608886719 289.8557434082031 136.51712036132812 C 315.1427307128906 96.63189697265625 288.6103210449219 103.407470703125 303.40362548828125 126.00965881347656 C 283.5365295410156 102.77276611328125 308.82257080078125 135.2523956298828 309.1850891113281 105.19522094726562"/>
    <path stroke-width="0" fill="rgb(239, 163, 35)" opacity="0.66363925" stroke="rgb(203, 244, 116)" stroke-opacity="1.0" stroke-linecap="round" stroke-linejoin="round" d="M 283.04437255859375 138.2467803955078 C 296.5112609863281 121.64112854003906 295.495849609375 106.15167236328125 292.40509033203125 133.087158203125 C 311.2662658691406 95.82018280029297 294.52392578125 124.89877319335938 303.5955505371094 111.88785552978516 C 307.99298095703125 114.42499542236328 280.5135803222656 124.3808822631836 310.5855712890625 105.3266372680664 C 291.187744140625 127.25279235839844 296.6018371582031 117.66915893554688 283.04437255859375 138.2467803955078"/>
    <path stroke-width="0" fill="rgb(236, 189, 80)" opacity="0.66918385" stroke="rgb(65, 216, 8)" stroke-opacity="1.0" stroke-linecap="round" stroke-linejoin="round" d="M 296.14190673828125 116.37360382080078 C 281.00714111328125 138.79344177246094 283.8296813964844 143.99684143066406 278.8522033691406 128.7368927001953 C 273.8597106933594 140.8608856201172 282.6652526855469 130.29066467285156 278.5781555175781 159.880859375 C 278.51800537109375 144.44845581054688 286.51123046875 137.6077880859375 270.3115539550781 142.27818298339844 C 275.8565979003906 132.09344482421875 272.655029296875 152.9706573486328 296.14190673828125 116.37360382080078"/>
    <path stroke-width="0" fill="rgb(86, 69, 28)" opacity="0.7097548" stroke="rgb(90, 90, 4)" stroke-opacity="1.0" stroke-linecap="round" stroke-linejoin="round" d="M 274.2849426269531 342.45166015625 C 282.00018310546875 343.0979309082031 274.5299377441406 342.41888427734375 277.6272888183594 340.5511779785156 C 274.8843078613281 333.3852233886719 270.3646545410156 309.248046875 279.6391906738281 352.38409423828125 C 272.5667419433594 373.8118591308594 276.4611511230469 336.0367126464844 283.4483337402344 318.0828857421875 C 276.5558776855469 361.1398620605469 285.5993957519531 342.0618896484375 274.2849426269531 342.45166015625"/>
    <path stroke-width="0" fill="rgb(240, 177, 63)" opacity="0.49949145" stroke="rgb(221, 115, 83)" stroke-opacity="1.0" stroke-linecap="round" stroke-linejoin="round" d="M 297.037109375 240.0137481689453 C 309.3768005371094 180.63870239257812 319.291748046875 206.50096130371094 300.0428466796875 236.9876251220703 C 281.46661376953125 182.96218872070312 271.89691162109375 149.11341857910156 264.1194763183594 169.40211486816406 C 275.8368225097656 145.49693298339844 281.6448669433594 147.15721130371094 267.17791748046875 170.3634796142578 C 275.41375732421875 166.67652893066406 288.291259765625 187.265625 297.037109375 240.0137481689453"/>
    <path stroke-width="0" fill="rgb(118, 126, 135)" opacity="0.76294565" stroke="rgb(17, 64, 56)" stroke-opacity="1.0" stroke-linecap="round" stroke-linejoin="round" d="M 170.01126098632812 143.2097930908203 C 178.3653564453125 121.74730682373047 168.3685760498047 127.966552734375 172.57615661621094 171.33297729492188 C 181.9501495361328 167.892822265625 176.73788452148438 142.7361297607422 159.45091247558594 146.59310913085938 C 176.83853149414062 152.09124755859375 189.4012908935547 123.06596374511719 148.91461181640625 132.64447021484375 C 160.71697998046875 158.98477172851562 177.75521850585938 167.2604217529297 170.01126098632812 143.2097930908203"/>
    <path stroke-width="0" fill="rgb(247, 188, 60)" opacity="0.7550021" stroke="rgb(33, 3, 29)" stroke-opacity="1.0" stroke-linecap="round" stroke-linejoin="round" d="M 226.71554565429688 156.57037353515625 C 195.5074462890625 138.26612854003906 203.89248657226562 163.4205780029297 195.19020080566406 181.7808074951172 C 209.99749755859375 133.8455352783203 202.9331817626953 142.0655517578125 192.54029846191406 148.90260314941406 C 180.59246826171875 127.12557983398438 199.94386291503906 129.99293518066406 191.43832397460938 178.13070678710938 C 177.79930114746094 177.2038116455078 187.14947509765625 177.1566925048828 226.71554565429688 156.57037353515625"/>
    <path stroke-width="0" fill="rgb(21, 27, 35)" opacity="0.7569646" stroke="rgb(162, 125, 252)" stroke-opacity="1.0" stroke-linecap="round" stroke-linejoin="round" d="M 297.91583251953125 218.51734924316406 C 294.5906677246094 273.4744873046875 279.2289123535156 209.33889770507812 303.39019775390625 242.4823455810547 C 287.1069030761719 219.88072204589844 299.79888916015625 209.89463806152344 296.1236572265625 236.36111450195312 C 291.0611877441406 189.85748291015625 287.6524963378906 212.87728881835938 290.33740234375 205.30035400390625 C 293.9772033691406 223.42355346679688 322.124755859375 252.9543914794922 297.91583251953125 218.51734924316406"/>
    <path stroke-width="0" fill="rgb(161, 154, 138)" opacity="0.7400908" stroke="rgb(199, 73, 61)" stroke-opacity="1.0" stroke-linecap="round" stroke-linejoin="round" d="M 319.9423828125 213.54310607910156 C 303.40167236328125 218.11444091796875 295.861083984375 222.61785888671875 317.1086120605469 234.59938049316406 C 302.0390930175781 224.25918579101562 306.5218505859375 215.99891662597656 286.55633544921875 237.86724853515625 C 305.36151123046875 244.36993408203125 312.0467224121094 235.28414916992188 298.4157409667969 235.02273559570312 C 301.217041015625 230.20361328125 323.7218017578125 208.09898376464844 319.9423828125 213.54310607910156"/>
    <path stroke-width="0" fill="rgb(113, 132, 167)" opacity="0.71333885" stroke="rgb(141, 73, 180)" stroke-opacity="1.0" stroke-linecap="round" stroke-linejoin="round" d="M 212.75643920898438 215.0763702392578 C 205.89303588867188 201.3718719482422 207.3733673095703 206.17022705078125 207.27122497558594 190.19874572753906 C 203.29612731933594 221.39659118652344 219.9053192138672 216.92495727539062 228.07615661621094 212.84942626953125 C 223.40225219726562 214.70672607421875 223.0847930908203 216.99075317382812 209.2664794921875 215.10113525390625 C 210.3161163330078 215.53604125976562 214.627197265625 217.67787170410156 212.75643920898438 215.0763702392578"/>
    <path stroke-width="0" fill="rgb(138, 214, 211)" opacity="0.70483714" stroke="rgb(91, 211, 235)" stroke-opacity="1.0" stroke-linecap="round" stroke-linejoin="round" d="M 276.4417724609375 203.47010803222656 C 283.2657775878906 195.6280517578125 310.47265625 180.0401153564453 290.18951416015625 237.82708740234375 C 306.0715637207031 235.25112915039062 335.2418212890625 214.4825897216797 274.8578796386719 217.7729949951172 C 305.93145751953125 211.08660888671875 312.8646240234375 209.03492736816406 310.8973083496094 217.00628662109375 C 315.40655517578125 198.8170928955078 293.9778747558594 200.42152404785156 276.4417724609375 203.47010803222656"/>
    <path stroke-width="0" fill="rgb(250, 251, 248)" opacity="0.9822807" stroke="rgb(247, 230, 75)" stroke-opacity="1.0" stroke-linecap="round" stroke-linejoin="round" d="M 201.29437255859375 210.6077117919922 C 208.25567626953125 214.29270935058594 199.64149475097656 197.22711181640625 215.92593383789062 208.1939697265625 C 216.07669067382812 202.83856201171875 223.3218231201172 207.364501953125 223.99891662597656 228.25778198242188 C 223.6819305419922 236.30325317382812 189.682373046875 231.31141662597656 214.65711975097656 177.00302124023438 C 220.8710174560547 168.75750732421875 196.13833618164062 183.69180297851562 201.29437255859375 210.6077117919922"/>
    <path stroke-width="0" fill="rgb(237, 255, 264)" opacity="0.8515084" stroke="rgb(63, 27, 242)" stroke-opacity="1.0" stroke-linecap="round" stroke-linejoin="round" d="M 301.1415100097656 223.4130859375 C 284.8550720214844 225.9452362060547 313.1595153808594 216.1315155029297 316.5332336425781 213.93377685546875 C 305.96209716796875 184.83839416503906 292.8694763183594 226.1427459716797 263.642822265625 217.10581970214844 C 245.35618591308594 194.645751953125 227.13751220703125 197.8932342529297 279.1404113769531 214.77488708496094 C 318.3569030761719 231.27029418945312 328.5301818847656 206.89935302734375 301.1415100097656 223.4130859375"/>
    <path stroke-width="0" fill="rgb(45, 49, 45)" opacity="0.8111118" stroke="rgb(175, 14, 186)" stroke-opacity="1.0" stroke-linecap="round" stroke-linejoin="round" d="M 196.2777862548828 422.8172607421875 C 192.9794158935547 420.18701171875 177.90232849121094 405.2764892578125 168.51210021972656 410.9436340332031 C 195.46632385253906 406.6931457519531 195.42245483398438 396.1759033203125 180.38633728027344 423.3340148925781 C 183.57315063476562 414.5476379394531 190.86019897460938 408.6080017089844 181.04080200195312 412.04290771484375 C 194.31935119628906 419.3126220703125 190.39093017578125 417.0312805175781 196.2777862548828 422.8172607421875"/>
    <path stroke-width="0" fill="rgb(-17, -1, 7)" opacity="0.7668279" stroke="rgb(69, 96, 95)" stroke-opacity="1.0" stroke-linecap="round" stroke-linejoin="round" d="M 298.8369445800781 191.5192413330078 C 277.383544921875 226.264892578125 310.7932434082031 243.14747619628906 319.52532958984375 235.32025146484375 C 300.6291198730469 239.71371459960938 287.2603759765625 246.55386352539062 305.3828430175781 227.38653564453125 C 308.46929931640625 240.85269165039062 306.857666015625 225.49295043945312 274.460693359375 201.97705078125 C 318.4514465332031 191.02069091796875 304.83575439453125 213.484375 298.8369445800781 191.5192413330078"/>
    <path stroke-width="0" fill="rgb(259, 188, 19)" opacity="0.7473358" stroke="rgb(213, 60, 128)" stroke-opacity="1.0" stroke-linecap="round" stroke-linejoin="round" d="M 210.60812377929688 80.57128143310547 C 247.2098846435547 87.21990203857422 233.59725952148438 106.319580078125 232.76995849609375 89.66178894042969 C 206.2976531982422 81.03465270996094 195.5388946533203 99.50275421142578 225.7566375732422 62.21255874633789 C 228.18896484375 84.7965316772461 248.48912048339844 68.06517028808594 224.8815155029297 76.48892211914062 C 226.9182891845703 65.04796600341797 261.2352600097656 80.29084777832031 210.60812377929688 80.57128143310547"/>
    <path stroke-width="0" fill="rgb(94, 102, 87)" opacity="0.62162447" stroke="rgb(178, 246, 253)" stroke-opacity="1.0" stroke-linecap="round" stroke-linejoin="round" d="M 232.66346740722656 57.19507598876953 C 232.7039794921875 49.04029083251953 218.7249298095703 52.17725372314453 222.91297912597656 53.87112045288086 C 235.42967224121094 43.90107727050781 229.12034606933594 63.499114990234375 243.37376403808594 70.512939453125 C 238.95350646972656 65.86051940917969 233.27044677734375 78.62026977539062 234.90042114257812 57.51097869873047 C 231.6771697998047 64.1601333618164 238.40573120117188 61.585662841796875 232.66346740722656 57.19507598876953"/>
    <path stroke-width="0" fill="rgb(231, 162, 75)" opacity="0.68108755" stroke="rgb(18, 74, 38)" stroke-opacity="1.0" stroke-linecap="round" stroke-linejoin="round" d="M 279.9020080566406 257.44158935546875 C 268.9705810546875 256.7760314941406 259.017822265625 251.6312255859375 265.7845764160156 252.4727020263672 C 214.20938110351562 254.20457458496094 222.0660400390625 243.7470245361328 187.1540985107422 219.1280059814453 C 230.33641052246094 263.5519104003906 261.3371276855469 249.1686553955078 206.4275665283203 253.29974365234375 C 186.8107452392578 258.3448181152344 249.35745239257812 252.095703125 279.9020080566406 257.44158935546875"/>
    <path stroke-width="0" fill="rgb(140, 94, 77)" opacity="0.6884682" stroke="rgb(33, 154, 97)" stroke-opacity="1.0" stroke-linecap="round" stroke-linejoin="round" d="M 224.44451904296875 53.471527099609375 C 198.53749084472656 66.60074615478516 216.25205993652344 81.10049438476562 210.46951293945312 72.90616607666016 C 210.2552947998047 75.44386291503906 208.79620361328125 67.24138641357422 213.47955322265625 81.47093200683594 C 214.14109802246094 100.2066650390625 235.92617797851562 65.54381561279297 215.12557983398438 87.44335174560547 C 207.3802490234375 63.84389114379883 207.5408172607422 63.53386688232422 224.44451904296875 53.471527099609375"/>
    <path stroke-width="0" fill="rgb(131, 123, 134)" opacity="1.0149843" stroke="rgb(246, 139, 70)" stroke-opacity="1.0" stroke-linecap="round" stroke-linejoin="round" d="M 303.3553161621094 242.09425354003906 C 291.5586242675781 244.93112182617188 275.971923828125 231.5673370361328 333.1186218261719 227.34017944335938 C 313.75146484375 234.53919982910156 294.9564208984375 225.19989013671875 263.5999450683594 227.29452514648438 C 303.6546630859375 227.84112548828125 286.06072998046875 243.397216796875 304.439697265625 194.75344848632812 C 274.7149963378906 162.1916046142578 335.1211853027344 198.2787322998047 303.3553161621094 242.09425354003906"/>
    <path stroke-width="0" fill="rgb(162, 123, 99)" opacity="0.4183421" stroke="rgb(228, 103, 140)" stroke-opacity="1.0" stroke-linecap="round" stroke-linejoin="round" d="M 219.67652893066406 98.95216369628906 C 223.4873046875 90.68759155273438 217.84750366210938 89.4632339477539 222.72840881347656 96.4837646484375 C 206.60877990722656 58.400577545166016 202.7294158935547 59.47090530395508 205.00587463378906 62.595123291015625 C 210.11082458496094 57.469112396240234 207.67872619628906 68.80607604980469 199.83682250976562 52.17240524291992 C 213.86679077148438 76.39035034179688 224.8017578125 98.83712005615234 219.67652893066406 98.95216369628906"/>
    <path stroke-width="0" fill="rgb(119, 128, 131)" opacity="0.9979044" stroke="rgb(116, 102, 63)" stroke-opacity="1.0" stroke-linecap="round" stroke-linejoin="round" d="M 325.0911560058594 196.65850830078125 C 283.3431091308594 224.30718994140625 286.7803955078125 229.06143188476562 316.8497009277344 221.30335998535156 C 300.3526916503906 230.93003845214844 278.17724609375 211.96226501464844 279.2620849609375 236.94564819335938 C 304.14459228515625 276.0755615234375 307.4486389160156 248.2036590576172 293.5672607421875 235.38446044921875 C 307.1148376464844 249.33053588867188 330.8835754394531 274.4476623535156 325.0911560058594 196.65850830078125"/>
    <path stroke-width="0" fill="rgb(136, 87, 12)" opacity="0.6945194" stroke="rgb(79, 95, 133)" stroke-opacity="1.0" stroke-linecap="round" stroke-linejoin="round" d="M 231.25723266601562 92.08643341064453 C 257.9087219238281 100.61833953857422 267.20904541015625 103.94578552246094 247.7439727783203 97.3949966430664 C 241.5740203857422 89.90941619873047 246.91966247558594 109.06856536865234 224.16671752929688 77.59068298339844 C 255.6263885498047 94.9764633178711 234.8057098388672 103.95178985595703 242.41575622558594 89.95836639404297 C 230.59231567382812 74.89293670654297 239.5296173095703 94.42671203613281 231.25723266601562 92.08643341064453"/>
    <path stroke-width="0" fill="rgb(119, 127, 128)" opacity="0.8803961" stroke="rgb(85, 235, 219)" stroke-opacity="1.0" stroke-linecap="round" stroke-linejoin="round" d="M 314.290283203125 241.5544891357422 C 311.4440002441406 242.91616821289062 302.6304931640625 239.8446502685547 366.1009826660156 240.8638458251953 C 350.5083312988281 244.33302307128906 342.4837646484375 233.7991943359375 338.40106201171875 226.9759063720703 C 358.9823913574219 278.392822265625 313.733642578125 270.6611633300781 333.86053466796875 232.4889678955078 C 308.118408203125 230.31094360351562 368.15679931640625 261.48663330078125 314.290283203125 241.5544891357422"/>
    <path stroke-width="0" fill="rgb(268, 192, 37)" opacity="0.83027476" stroke="rgb(64, 113, 26)" stroke-opacity="1.0" stroke-linecap="round" stroke-linejoin="round" d="M 302.1107177734375 104.0252914428711 C 290.23406982421875 88.30534362792969 321.43145751953125 123.90508270263672 312.5960388183594 94.4874267578125 C 313.1318359375 118.56938171386719 290.1477966308594 144.8423614501953 284.99462890625 114.0036849975586 C 314.3700866699219 120.61910247802734 311.8312683105469 88.0169448852539 293.396240234375 114.49856567382812 C 317.0586242675781 111.61611938476562 302.8910217285156 97.67422485351562 302.1107177734375 104.0252914428711"/>
    <path stroke-width="0" fill="rgb(39, 51, 185)" opacity="0.5487629" stroke="rgb(0, 0, 0)" stroke-opacity="0.0" stroke-linecap="round" stroke-linejoin="round" d="M 132.7132568359375 18.80255889892578 C 132.6742706298828 23.26079559326172 130.09420776367188 26.49652862548828 125.79438018798828 28.709070205688477 C 121.89225769042969 27.49993896484375 119.69574737548828 25.1066951751709 119.70254516601562 19.977550506591797 C 120.12272644042969 17.518184661865234 124.47055053710938 15.056541442871094 127.1649398803711 12.488754272460938 C 129.28689575195312 15.179983139038086 132.8997802734375 16.983928680419922 132.7132568359375 18.80255889892578"/>
    <path stroke-width="0" fill="rgb(126, 123, 137)" opacity="0.27346197" stroke="rgb(0, 0, 0)" stroke-opacity="0.0" stroke-linecap="round" stroke-linejoin="round" d="M 450.8025817871094 15.575355529785156 C 451.86260986328125 19.379331588745117 448.269287109375 21.40418815612793 443.9289855957031 21.046932220458984 C 439.939208984375 21.304689407348633 436.7577819824219 19.08595085144043 437.67645263671875 16.00255012512207 C 437.1755676269531 10.487933158874512 439.2505187988281 6.969149112701416 442.777587890625 7.953112602233887 C 447.808837890625 8.621315002441406 450.9221496582031 10.945579528808594 450.8025817871094 15.575355529785156"/>
    <path stroke-width="0" fill="rgb(89, 127, 41)" opacity="0.5051362" stroke="rgb(0, 0, 0)" stroke-opacity="0.0" stroke-linecap="round" stroke-linejoin="round" d="M 21.10606575012207 4.1949567794799805 C 20.842117309570312 6.96220588684082 18.592172622680664 10.643009185791016 16.09010124206543 13.68227481842041 C 17.18404197692871 12.591550827026367 14.0629243850708 9.674355506896973 12.119988441467285 6.972331523895264 C 11.542943000793457 1.8633885383605957 12.667913436889648 -1.6291499137878418 19.741636276245117 -3.3565728664398193 C 23.66434097290039 -1.9056017398834229 22.900197982788086 2.118297815322876 21.10606575012207 4.1949567794799805"/>
    <path stroke-width="0" fill="rgb(156, 190, 139)" opacity="0.8703539" stroke="rgb(0, 0, 0)" stroke-opacity="0.0" stroke-linecap="round" stroke-linejoin="round" d="M 19.692461013793945 4.45109748840332 C 19.944835662841797 12.20022964477539 17.2734432220459 14.316900253295898 13.544389724731445 14.25070858001709 C 8.620346069335938 13.703048706054688 5.475065231323242 11.525823593139648 5.384554386138916 6.570605754852295 C 4.299992084503174 1.735129714012146 6.533870220184326 0.15860936045646667 9.41868782043457 2.269723653793335 C 16.334732055664062 2.8885443210601807 21.28286361694336 1.6390018463134766 19.692461013793945 4.45109748840332"/>
    <path stroke-width="0" fill="rgb(145, 80, 71)" opacity="0.71951216" stroke="rgb(0, 0, 0)" stroke-opacity="0.0" stroke-linecap="round" stroke-linejoin="round" d="M 367.0292663574219 9.996100425720215 C 366.349609375 14.437967300415039 363.7640686035156 17.82795524597168 362.36328125 20.101787567138672 C 358.0799865722656 18.166696548461914 354.8007507324219 17.081796646118164 354.3330078125 11.590204238891602 C 354.1684265136719 9.126476287841797 358.64739990234375 7.125767707824707 362.22259521484375 7.128144264221191 C 364.76092529296875 6.711790561676025 368.405029296875 9.295772552490234 367.0292663574219 9.996100425720215"/>
    <path stroke-width="0" fill="rgb(108, 179, 199)" opacity="0.30056897" stroke="rgb(0, 0, 0)" stroke-opacity="0.0" stroke-linecap="round" stroke-linejoin="round" d="M 315.7802429199219 395.8528137207031 C 315.083984375 399.56854248046875 312.187744140625 402.15283203125 307.35906982421875 402.8456726074219 C 304.37060546875 401.8014221191406 301.26361083984375 398.63165283203125 300.7790832519531 395.8393249511719 C 301.54351806640625 391.4637756347656 303.5846862792969 388.00140380859375 307.5781555175781 387.40765380859375 C 312.24481201171875 387.989013671875 314.85528564453125 390.9406433105469 315.7802429199219 395.8528137207031"/>
    <path stroke-width="0" fill="rgb(145, 189, 199)" opacity="0.8957908" stroke="rgb(0, 0, 0)" stroke-opacity="0.0" stroke-linecap="round" stroke-linejoin="round" d="M 233.63858032226562 148.6295928955078 C 232.84954833984375 152.58326721191406 230.173583984375 155.63912963867188 225.97207641601562 156.29478454589844 C 221.94818115234375 155.22097778320312 219.03564453125 152.31988525390625 217.7763214111328 148.45140075683594 C 219.44866943359375 144.7092742919922 221.87843322753906 141.00328063964844 224.91989135742188 139.43296813964844 C 229.43231201171875 141.82977294921875 232.57681274414062 144.87625122070312 233.63858032226562 148.6295928955078"/>
    <path stroke-width="0" fill="rgb(227, 36, 239)" opacity="0.82811123" stroke="rgb(0, 0, 0)" stroke-opacity="0.0" stroke-linecap="round" stroke-linejoin="round" d="M 294.2209777832031 218.45947265625 C 291.7171325683594 222.2504425048828 288.8893127441406 225.51416015625 285.1089172363281 227.4993438720703 C 281.35931396484375 226.4915771484375 278.7591857910156 223.7857666015625 279.0201110839844 220.39820861816406 C 280.3978576660156 216.93344116210938 283.48101806640625 213.9773406982422 286.7875061035156 212.76394653320312 C 288.9039001464844 213.44284057617188 292.1163330078125 216.05653381347656 294.2209777832031 218.45947265625"/>
    <path stroke-width="0" fill="rgb(192, 230, 202)" opacity="0.290301" stroke="rgb(0, 0, 0)" stroke-opacity="0.0" stroke-linecap="round" stroke-linejoin="round" d="M 259.1298828125 367.0395812988281 C 257.4856262207031 370.4947204589844 254.60443115234375 373.70281982421875 251.64120483398438 375.13702392578125 C 248.10450744628906 373.5966796875 245.0132293701172 370.7361145019531 244.37721252441406 366.9414367675781 C 244.5506134033203 363.4559326171875 247.4305419921875 360.5857849121094 251.6727752685547 358.5329284667969 C 255.22850036621094 360.2195739746094 257.91900634765625 363.7275695800781 259.1298828125 367.0395812988281"/>
    <path stroke-width="0" fill="rgb(57, 119, 81)" opacity="0.8336245" stroke="rgb(0, 0, 0)" stroke-opacity="0.0" stroke-linecap="round" stroke-linejoin="round" d="M 366.2793273925781 70.43730926513672 C 365.64666748046875 74.18949127197266 362.49188232421875 77.73268127441406 359.31402587890625 79.28575134277344 C 354.96771240234375 77.859130859375 351.861572265625 75.40646362304688 351.6484680175781 71.14824676513672 C 352.3832092285156 67.05805969238281 355.7165832519531 64.50926971435547 359.7850036621094 63.833309173583984 C 362.7580261230469 64.65084838867188 365.8085632324219 67.3179931640625 366.2793273925781 70.43730926513672"/>
    <path stroke-width="0" fill="rgb(203, 251, 217)" opacity="0.3995943" stroke="rgb(0, 0, 0)" stroke-opacity="0.0" stroke-linecap="round" stroke-linejoin="round" d="M 185.7255401611328 435.575927734375 C 185.9528045654297 439.04583740234375 181.98377990722656 441.0224609375 178.3020782470703 442.7884216308594 C 174.8495635986328 441.1424865722656 170.96934509277344 438.9910583496094 170.7136688232422 434.5522766113281 C 171.97476196289062 431.509521484375 175.41128540039062 428.5389404296875 178.92759704589844 426.2149353027344 C 182.1036376953125 427.8172302246094 184.58285522460938 431.2706298828125 185.7255401611328 435.575927734375"/>
    <path stroke-width="0" fill="rgb(97, 227, 242)" opacity="0.6080005" stroke="rgb(0, 0, 0)" stroke-opacity="0.0" stroke-linecap="round" stroke-linejoin="round" d="M 439.25885009765625 30.173492431640625 C 436.6840515136719 33.838768005371094 433.380615234375 36.459415435791016 429.3262939453125 38.77769088745117 C 427.625 36.342098236083984 424.08721923828125 33.674217224121094 421.93304443359375 31.112096786499023 C 424.2230224609375 27.512052536010742 427.39453125 24.368581771850586 430.27685546875 22.689241409301758 C 434.24066162109375 23.71868896484375 437.2597961425781 26.72462272644043 439.25885009765625 30.173492431640625"/>
    <path stroke-width="0" fill="rgb(135, 88, 21)" opacity="0.2081465" stroke="rgb(0, 0, 0)" stroke-opacity="0.0" stroke-linecap="round" stroke-linejoin="round" d="M 29.417991638183594 263.12567138671875 C 28.835651397705078 267.48651123046875 25.60991668701172 269.97308349609375 22.639131546020508 270.7590637207031 C 18.830854415893555 269.2542419433594 15.916569709777832 266.3108825683594 14.886289596557617 262.33599853515625 C 14.162270545959473 258.7768859863281 17.344743728637695 256.7652893066406 21.849489212036133 256.3317565917969 C 26.212221145629883 256.8074035644531 29.59319496154785 258.61517333984375 29.417991638183594 263.12567138671875"/>
    <path stroke-width="0" fill="rgb(184, 82, 85)" opacity="0.016093522" stroke="rgb(0, 0, 0)" stroke-opacity="0.0" stroke-linecap="round" stroke-linejoin="round" d="M 231.1253204345703 301.61724853515625 C 229.2479248046875 306.1952819824219 226.648193359375 309.52899169921875 223.4854278564453 310.5846862792969 C 219.5589599609375 308.710693359375 216.2963104248047 305.9366760253906 214.27056884765625 302.7398376464844 C 215.99905395507812 298.9903564453125 219.33834838867188 296.18365478515625 223.0535430908203 294.72705078125 C 227.44200134277344 295.151611328125 230.40380859375 297.88623046875 231.1253204345703 301.61724853515625"/>
    <path stroke-width="0" fill="rgb(160, 191, 198)" opacity="0.8380056" stroke="rgb(0, 0, 0)" stroke-opacity="0.0" stroke-linecap="round" stroke-linejoin="round" d="M 139.2386932373047 378.0581359863281 C 138.4657440185547 382.6356201171875 135.68690490722656 385.6617126464844 131.48916625976562 386.25726318359375 C 127.15763854980469 386.7612609863281 124.7964859008789 383.71453857421875 124.62139892578125 379.68475341796875 C 126.11168670654297 375.976806640625 128.6614532470703 372.3318176269531 131.6348876953125 370.8583068847656 C 136.10765075683594 372.2659606933594 139.30238342285156 374.64739990234375 139.2386932373047 378.0581359863281"/>
    <path stroke-width="0" fill="rgb(143, 143, 16)" opacity="0.9584103" stroke="rgb(0, 0, 0)" stroke-opacity="0.0" stroke-linecap="round" stroke-linejoin="round" d="M 169.96456909179688 152.6160888671875 C 168.9344482421875 157.4402618408203 166.85032653808594 160.30824279785156 162.90599060058594 160.33956909179688 C 159.957763671875 159.52906799316406 157.47030639648438 155.90708923339844 155.87515258789062 152.5685272216797 C 156.35150146484375 149.8041229248047 158.84393310546875 146.79544067382812 161.52149963378906 146.90621948242188 C 166.03103637695312 147.74801635742188 169.82273864746094 149.7570343017578 169.96456909179688 152.6160888671875"/>
    <path stroke-width="0" fill="rgb(93, 52, 28)" opacity="0.7326747" stroke="rgb(0, 0, 0)" stroke-opacity="0.0" stroke-linecap="round" stroke-linejoin="round" d="M 387.0132751464844 420.151611328125 C 386.0523986816406 424.2777404785156 382.98699951171875 427.1289367675781 379.11279296875 428.0504455566406 C 375.110595703125 427.17724609375 371.70489501953125 424.4255676269531 371.15240478515625 420.3692932128906 C 371.90673828125 416.21710205078125 375.014892578125 413.4845275878906 379.4933776855469 412.2264099121094 C 383.2997131347656 413.08184814453125 385.8833312988281 416.380126953125 387.0132751464844 420.151611328125"/>
    <path stroke-width="0" fill="rgb(40, 230, 105)" opacity="0.27941072" stroke="rgb(0, 0, 0)" stroke-opacity="0.0" stroke-linecap="round" stroke-linejoin="round" d="M 373.2195129394531 468.9116516113281 C 372.2258605957031 472.75054931640625 369.4290771484375 475.4674377441406 365.4488830566406 476.3418884277344 C 361.5854797363281 475.3892822265625 358.482177734375 472.6529235839844 357.5762634277344 468.8070983886719 C 358.6065368652344 464.8049621582031 361.5492858886719 461.84130859375 365.5083312988281 460.7225646972656 C 369.5029296875 461.67803955078125 371.8996887207031 464.8247985839844 373.2195129394531 468.9116516113281"/>
    <path stroke-width="0" fill="rgb(162, 31, 162)" opacity="0.8092424" stroke="rgb(0, 0, 0)" stroke-opacity="0.0" stroke-linecap="round" stroke-linejoin="round" d="M 7.5593671798706055 2.7996323108673096 C 6.455144882202148 6.392899990081787 3.935683012008667 10.074986457824707 0.38468608260154724 11.156355857849121 C -3.2905263900756836 10.049787521362305 -6.374680995941162 7.388698577880859 -7.454403877258301 3.412898302078247 C -6.382695198059082 -0.5868169069290161 -3.45449161529541 -3.5150201320648193 0.5077011585235596 -4.567200183868408 C 4.267063617706299 -3.3450560569763184 6.914726734161377 -0.16437771916389465 7.5593671798706055 2.7996323108673096"/>
    <path stroke-width="0" fill="rgb(103, 158, 223)" opacity="0.9013065" stroke="rgb(0, 0, 0)" stroke-opacity="0.0" stroke-linecap="round" stroke-linejoin="round" d="M 221.2060089111328 196.25547790527344 C 221.3184814453125 200.79627990722656 218.21189880371094 203.16366577148438 213.92457580566406 203.74366760253906 C 210.86709594726562 202.0647430419922 207.77345275878906 198.88156127929688 206.370849609375 196.6305389404297 C 208.0491485595703 193.30921936035156 210.6641082763672 189.78610229492188 213.3794403076172 189.2843780517578 C 218.31832885742188 189.55941772460938 220.8904571533203 191.35128784179688 221.2060089111328 196.25547790527344"/>
    <path stroke-width="0" fill="rgb(52, 91, 126)" opacity="0.6140437" stroke="rgb(0, 0, 0)" stroke-opacity="0.0" stroke-linecap="round" stroke-linejoin="round" d="M 100.49164581298828 57.02589797973633 C 99.41175842285156 60.898075103759766 96.53704071044922 64.13646697998047 92.35639190673828 65.86820220947266 C 88.40831756591797 64.9904556274414 85.66152954101562 61.9697380065918 84.47357940673828 57.2034797668457 C 85.503662109375 52.982295989990234 88.48480987548828 49.849769592285156 92.24179077148438 48.4825325012207 C 97.14323425292969 50.502506256103516 100.26416778564453 53.134986877441406 100.49164581298828 57.02589797973633"/>
    <path stroke-width="0" fill="rgb(174, 217, 201)" opacity="0.28512266" stroke="rgb(0, 0, 0)" stroke-opacity="0.0" stroke-linecap="round" stroke-linejoin="round" d="M 342.8825988769531 339.7137451171875 C 340.5264892578125 344.5359191894531 338.30145263671875 348.1153259277344 335.36761474609375 348.4798583984375 C 331.3399658203125 346.7572937011719 328.5521545410156 343.7156066894531 326.6860046386719 340.3841552734375 C 327.6266174316406 336.89520263671875 330.2425842285156 333.93316650390625 334.8938293457031 331.7420959472656 C 338.7865295410156 333.4765930175781 342.12969970703125 336.15948486328125 342.8825988769531 339.7137451171875"/>
    <path stroke-width="0" fill="rgb(151, 137, 103)" opacity="0.9535632" stroke="rgb(0, 0, 0)" stroke-opacity="0.0" stroke-linecap="round" stroke-linejoin="round" d="M -300.4969787597656 -124.11832427978516 C -301.5687561035156 -120.11832427978516 -304.4969787597656 -117.19012451171875 -308.4969787597656 -116.11832427978516 C -312.4969787597656 -117.19012451171875 -315.4251708984375 -120.11832427978516 -316.4969787597656 -124.11832427978516 C -315.4251708984375 -128.1183319091797 -312.4969787597656 -131.04652404785156 -308.4969787597656 -132.1183319091797 C -304.4969787597656 -131.04652404785156 -301.5687561035156 -128.1183319091797 -300.4969787597656 -124.11832427978516"/>
    <path stroke-width="0" fill="rgb(134, 238, 116)" opacity="0.099096805" stroke="rgb(0, 0, 0)" stroke-opacity="0.0" stroke-linecap="round" stroke-linejoin="round" d="M 494.5800476074219 17.806575775146484 C 493.4805603027344 21.567155838012695 490.61871337890625 24.272092819213867 486.9709777832031 24.848087310791016 C 483.7227783203125 24.030000686645508 480.50006103515625 21.317148208618164 478.876708984375 17.635974884033203 C 479.68621826171875 13.854141235351562 483.4167785644531 11.5087890625 487.3547668457031 10.02259635925293 C 490.943115234375 11.053422927856445 493.86541748046875 13.929698944091797 494.5800476074219 17.806575775146484"/>
    <path stroke-width="0" fill="rgb(168, 110, 242)" opacity="0.62962055" stroke="rgb(0, 0, 0)" stroke-opacity="0.0" stroke-linecap="round" stroke-linejoin="round" d="M 165.13916015625 230.34706115722656 C 164.13929748535156 234.41969299316406 161.6329345703125 237.70840454101562 158.24452209472656 238.71502685546875 C 154.7234649658203 237.32467651367188 151.84242248535156 234.23411560058594 150.50430297851562 231.1179656982422 C 151.80279541015625 227.78709411621094 154.8252716064453 224.67628479003906 158.49615478515625 223.61834716796875 C 162.6171417236328 223.3385009765625 164.5765838623047 226.73739624023438 165.13916015625 230.34706115722656"/>
    <path stroke-width="0" fill="rgb(236, 67, 60)" opacity="0.8349625" stroke="rgb(0, 0, 0)" stroke-opacity="0.0" stroke-linecap="round" stroke-linejoin="round" d="M 9.700133323669434 2.8167834281921387 C 8.50386905670166 6.824793338775635 5.506402492523193 9.844781875610352 1.2628881931304932 10.917546272277832 C -3.144937038421631 10.164631843566895 -5.701563358306885 6.8408613204956055 -6.684199333190918 2.6409826278686523 C -5.609156608581543 -1.3680214881896973 -2.6809535026550293 -4.296224594116211 1.1340088844299316 -5.262551784515381 C 4.724237442016602 -3.824697732925415 7.668247699737549 -0.8332579135894775 9.700133323669434 2.8167834281921387"/>
    <path stroke-width="0" fill="rgb(226, 34, 117)" opacity="0.73820275" stroke="rgb(0, 0, 0)" stroke-opacity="0.0" stroke-linecap="round" stroke-linejoin="round" d="M 100.58820343017578 79.28887176513672 C 99.865966796875 83.06587219238281 97.64698028564453 86.49732971191406 94.3553237915039 86.88580322265625 C 90.66974639892578 85.08175659179688 87.25853729248047 82.80073547363281 86.76043701171875 79.98512268066406 C 87.4076919555664 75.96459197998047 90.34784698486328 73.46102142333984 94.19697570800781 72.52863311767578 C 97.37211608886719 72.91975402832031 100.17916107177734 75.72822570800781 100.58820343017578 79.28887176513672"/>
    <path stroke-width="0" fill="rgb(162, 237, 150)" opacity="0.79812455" stroke="rgb(0, 0, 0)" stroke-opacity="0.0" stroke-linecap="round" stroke-linejoin="round" d="M 72.05354309082031 440.487060546875 C 71.33419036865234 444.05889892578125 68.68551635742188 447.2795715332031 64.3505859375 449.5520324707031 C 60.210243225097656 448.1083679199219 57.705841064453125 444.5930480957031 55.67981719970703 439.9217529296875 C 58.282169342041016 437.08221435546875 61.62184143066406 434.24542236328125 65.21078491210938 431.7269592285156 C 67.74114990234375 434.34674072265625 70.647216796875 437.368408203125 72.05354309082031 440.487060546875"/>
    <path stroke-width="0" fill="rgb(147, 141, 19)" opacity="0.3735486" stroke="rgb(0, 0, 0)" stroke-opacity="0.0" stroke-linecap="round" stroke-linejoin="round" d="M 22.559701919555664 6.59212064743042 C 21.745559692382812 10.343208312988281 19.14790916442871 13.534625053405762 15.92905330657959 14.242074012756348 C 12.298812866210938 13.794089317321777 9.206658363342285 10.881828308105469 7.027477264404297 6.645947456359863 C 7.6611738204956055 1.9265587329864502 10.50604248046875 -1.0569332838058472 15.068922996520996 -1.672115445137024 C 19.918798446655273 0.10361115634441376 22.098901748657227 3.6012914180755615 22.559701919555664 6.59212064743042"/>
    <path stroke-width="0" fill="rgb(10, 93, 65)" opacity="0.51211715" stroke="rgb(0, 0, 0)" stroke-opacity="0.0" stroke-linecap="round" stroke-linejoin="round" d="M 74.26774597167969 20.525287628173828 C 72.64021301269531 24.54079246520996 70.03543090820312 27.910484313964844 66.83951568603516 28.620010375976562 C 63.09345245361328 27.40851402282715 59.948692321777344 24.43743896484375 57.99402618408203 20.392688751220703 C 59.13208770751953 17.296001434326172 62.88563537597656 14.721108436584473 66.12811279296875 14.44865894317627 C 70.13961029052734 14.50780200958252 73.08369445800781 17.3621768951416 74.26774597167969 20.525287628173828"/>
    <path stroke-width="0" fill="rgb(170, 21, 156)" opacity="0.36909893" stroke="rgb(0, 0, 0)" stroke-opacity="0.0" stroke-linecap="round" stroke-linejoin="round" d="M 36.96267318725586 -16.611967086791992 C 35.890872955322266 -12.611967086791992 32.96267318725586 -9.68376350402832 28.962671279907227 -8.611967086791992 C 24.962671279907227 -9.68376350402832 22.034467697143555 -12.611967086791992 20.962671279907227 -16.611967086791992 C 22.034467697143555 -20.611967086791992 24.962671279907227 -23.540170669555664 28.962671279907227 -24.611967086791992 C 32.96267318725586 -23.540170669555664 35.890872955322266 -20.611967086791992 36.96267318725586 -16.611967086791992"/>
    <path stroke-width="0" fill="rgb(29, 127, 144)" opacity="0.21145606" stroke="rgb(0, 0, 0)" stroke-opacity="0.0" stroke-linecap="round" stroke-linejoin="round" d="M 1.2728817462921143 16.90296745300293 C 0.5858021974563599 21.07600212097168 -2.227781295776367 24.066246032714844 -6.247616291046143 25.088468551635742 C -10.337903022766113 23.942047119140625 -13.266105651855469 21.013843536376953 -14.337903022766113 17.013843536376953 C -13.266105651855469 13.01384449005127 -10.337903022766113 10.085640907287598 -6.297255992889404 8.986006736755371 C -2.2551355361938477 9.994709968566895 0.5813612341880798 12.97260856628418 1.2728817462921143 16.90296745300293"/>
    <path stroke-width="0" fill="rgb(3, 204, 213)" opacity="0.33586964" stroke="rgb(0, 0, 0)" stroke-opacity="0.0" stroke-linecap="round" stroke-linejoin="round" d="M 375.5946350097656 127.5061264038086 C 373.87689208984375 131.20758056640625 370.6980895996094 133.8839874267578 366.8428649902344 134.6771240234375 C 364.0476379394531 134.1602325439453 361.016845703125 131.427490234375 360.3695068359375 128.06243896484375 C 361.21588134765625 124.46620178222656 364.21868896484375 121.86876678466797 368.5451354980469 120.59805297851562 C 371.8589172363281 120.62693786621094 374.762939453125 123.58396911621094 375.5946350097656 127.5061264038086"/>
    <path stroke-width="0" fill="rgb(152, 99, 37)" opacity="0.39420646" stroke="rgb(0, 0, 0)" stroke-opacity="0.0" stroke-linecap="round" stroke-linejoin="round" d="M 78.97816467285156 12.45846939086914 C 78.22437286376953 16.987010955810547 75.85275268554688 20.64889144897461 72.47832489013672 20.97140121459961 C 67.75382232666016 18.315088272094727 64.09830474853516 15.848370552062988 62.272605895996094 12.182872772216797 C 63.710872650146484 8.427071571350098 67.37986755371094 6.138160228729248 70.66328430175781 4.967312812805176 C 74.2103271484375 6.286120891571045 77.88729095458984 8.487835884094238 78.97816467285156 12.45846939086914"/>
    <path stroke-width="0" fill="rgb(89, 50, 143)" opacity="0.5327982" stroke="rgb(0, 0, 0)" stroke-opacity="0.0" stroke-linecap="round" stroke-linejoin="round" d="M 55.52651596069336 53.31768798828125 C 54.9119987487793 57.00777816772461 51.952823638916016 59.88300323486328 47.3834228515625 61.391510009765625 C 43.56153869628906 60.25434494018555 40.602561950683594 57.69743347167969 40.23076629638672 53.50600814819336 C 41.183753967285156 48.99722671508789 43.967044830322266 46.00300979614258 48.18939208984375 44.63043212890625 C 52.019622802734375 45.93098449707031 54.55894088745117 49.34273910522461 55.52651596069336 53.31768798828125"/>
    <path stroke-width="0" fill="rgb(230, 69, 16)" opacity="0.82104224" stroke="rgb(0, 0, 0)" stroke-opacity="0.0" stroke-linecap="round" stroke-linejoin="round" d="M 139.7769317626953 185.7650909423828 C 140.26084899902344 190.46783447265625 138.31788635253906 192.43728637695312 132.90504455566406 191.85289001464844 C 129.47427368164062 192.56842041015625 126.85740661621094 189.18463134765625 126.3359603881836 185.1159210205078 C 126.37581634521484 181.12738037109375 129.10899353027344 178.87564086914062 133.0467987060547 178.29385375976562 C 137.1190948486328 178.78871154785156 139.75030517578125 181.6692657470703 139.7769317626953 185.7650909423828"/>
    <path stroke-width="0" fill="rgb(88, 111, 79)" opacity="0.5085914" stroke="rgb(0, 0, 0)" stroke-opacity="0.0" stroke-linecap="round" stroke-linejoin="round" d="M 210.23733520507812 232.3092041015625 C 210.0588836669922 235.96148681640625 207.13796997070312 239.0303955078125 202.7642364501953 240.65933227539062 C 198.53314208984375 239.55218505859375 195.56982421875 236.76365661621094 195.7124786376953 233.03414916992188 C 197.1686553955078 228.887939453125 199.9829559326172 225.88302612304688 202.90223693847656 225.14955139160156 C 206.73594665527344 225.63914489746094 209.79673767089844 228.43380737304688 210.23733520507812 232.3092041015625"/>
  </g>
</svg>
