<?xml version="1.0" ?>
<svg xmlns="http://www.w3.org/2000/svg" version="1.1" width="512" height="512">
  <defs/>
  <g>
    <path stroke-width="0" fill="rgb(108, 130, 139)" opacity="1.0301719" stroke="rgb(139, 182, 153)" stroke-opacity="1.0" stroke-linecap="round" stroke-linejoin="round" d="M 223.5523681640625 1.7964056730270386 C 161.55828857421875 4.066341876983643 192.8870086669922 49.68052673339844 66.7849349975586 129.4162139892578 C 58.17721176147461 122.41925048828125 55.592491149902344 110.84376525878906 54.54173278808594 87.55545806884766 C 58.38627243041992 -68.80083465576172 69.43766021728516 -69.67822265625 85.63168334960938 -59.827030181884766 C 196.87806701660156 -32.084922790527344 204.91650390625 -25.52547264099121 223.5523681640625 1.7964056730270386"/>
    <path stroke-width="0" fill="rgb(107, 124, 133)" opacity="1.006972" stroke="rgb(108, 164, 111)" stroke-opacity="1.0" stroke-linecap="round" stroke-linejoin="round" d="M 145.0290985107422 83.4161148071289 C 155.20001220703125 158.32455444335938 160.4290771484375 170.84996032714844 98.68473052978516 172.3730926513672 C -60.77919006347656 166.43023681640625 -47.74129867553711 136.50534057617188 -41.06509780883789 85.29373168945312 C -38.50617218017578 -35.472816467285156 -31.483736038208008 -40.57529067993164 48.95948028564453 -37.25031280517578 C 114.55963897705078 -39.67086410522461 133.90138244628906 -47.029354095458984 145.0290985107422 83.4161148071289"/>
    <path stroke-width="0" fill="rgb(108, 124, 141)" opacity="1.0160586" stroke="rgb(245, 97, 201)" stroke-opacity="1.0" stroke-linecap="round" stroke-linejoin="round" d="M 490.0975341796875 532.3875732421875 C 350.8706970214844 582.8856811523438 327.6231384277344 574.8817749023438 -39.52774429321289 555.3480224609375 C -75.76151275634766 413.1372375488281 -51.65288543701172 351.97052001953125 -47.777244567871094 137.07684326171875 C -54.30625915527344 98.99897003173828 -57.87993240356445 86.42411041259766 145.07125854492188 85.94949340820312 C 262.2320556640625 81.12265014648438 394.0133972167969 33.54073715209961 490.0975341796875 532.3875732421875"/>
    <path stroke-width="0" fill="rgb(100, 126, 140)" opacity="0.98952043" stroke="rgb(144, 236, 18)" stroke-opacity="1.0" stroke-linecap="round" stroke-linejoin="round" d="M 551.6832885742188 550.7041625976562 C 341.8098449707031 511.22845458984375 282.46563720703125 425.4362487792969 159.73793029785156 320.208984375 C 79.0477523803711 168.82940673828125 60.35087203979492 158.37832641601562 57.520851135253906 142.12608337402344 C 183.5548553466797 27.944154739379883 133.6249237060547 -25.535581588745117 454.8736572265625 -48.37983703613281 C 555.062744140625 -124.77310180664062 573.008544921875 -219.4150390625 551.6832885742188 550.7041625976562"/>
    <path stroke-width="0" fill="rgb(259, 242, 191)" opacity="1.0235436" stroke="rgb(5, 212, 198)" stroke-opacity="1.0" stroke-linecap="round" stroke-linejoin="round" d="M 368.51702880859375 367.5245361328125 C 335.6106262207031 300.2594299316406 379.37127685546875 426.1570739746094 332.3793640136719 386.2685241699219 C 338.8949890136719 286.33319091796875 244.5745849609375 477.76849365234375 286.86932373046875 312.6087951660156 C 240.2651824951172 245.59495544433594 287.6231994628906 227.95643615722656 280.84820556640625 305.40576171875 C 375.6593933105469 218.68907165527344 341.2918701171875 338.9402770996094 368.51702880859375 367.5245361328125"/>
    <path stroke-width="0" fill="rgb(243, 250, 253)" opacity="1.029197" stroke="rgb(249, 203, 117)" stroke-opacity="1.0" stroke-linecap="round" stroke-linejoin="round" d="M 256.7631530761719 347.3873596191406 C 238.84129333496094 358.9766540527344 288.54705810546875 359.1080322265625 225.02371215820312 354.88226318359375 C 212.03009033203125 356.1993713378906 200.64195251464844 326.503662109375 204.35528564453125 347.5694274902344 C 184.8625946044922 299.13787841796875 178.10482788085938 295.274658203125 193.32113647460938 292.10491943359375 C 263.6235656738281 316.23046875 252.03744506835938 282.7263488769531 256.7631530761719 347.3873596191406"/>
    <path stroke-width="0" fill="rgb(262, 214, 77)" opacity="1.0895959" stroke="rgb(30, 163, 36)" stroke-opacity="1.0" stroke-linecap="round" stroke-linejoin="round" d="M 388.5377502441406 331.8178405761719 C 391.5449523925781 386.5050354003906 382.6832580566406 377.5694885253906 345.9226989746094 353.3572998046875 C 384.2652893066406 336.7016906738281 327.60833740234375 327.7690124511719 283.8243408203125 307.5247497558594 C 227.41224670410156 284.37957763671875 297.02288818359375 218.56590270996094 348.0322570800781 286.46063232421875 C 339.11260986328125 300.1147155761719 366.1465759277344 264.295166015625 388.5377502441406 331.8178405761719"/>
    <path stroke-width="0" fill="rgb(270, 180, 49)" opacity="1.0227041" stroke="rgb(133, 105, 67)" stroke-opacity="1.0" stroke-linecap="round" stroke-linejoin="round" d="M 310.79803466796875 93.12516021728516 C 317.1981201171875 240.8918914794922 147.08961486816406 253.77134704589844 235.8717498779297 73.33168029785156 C 174.90017700195312 164.37338256835938 157.395751953125 249.81356811523438 187.46456909179688 118.67495727539062 C 224.45347595214844 50.41107177734375 216.5032196044922 60.94102096557617 233.0765838623047 61.89153289794922 C 249.17324829101562 108.54107666015625 226.92242431640625 129.3464813232422 310.79803466796875 93.12516021728516"/>
    <path stroke-width="0" fill="rgb(274, 181, 53)" opacity="1.0074954" stroke="rgb(116, 144, 4)" stroke-opacity="1.0" stroke-linecap="round" stroke-linejoin="round" d="M 302.1264953613281 321.136474609375 C 317.1967468261719 323.56182861328125 389.5228576660156 337.900390625 203.6902313232422 301.4007873535156 C 196.469970703125 285.8093566894531 157.037353515625 411.0883483886719 158.4897918701172 245.53297424316406 C 231.79429626464844 -31.743270874023438 144.71826171875 238.3859100341797 257.2952575683594 240.56796264648438 C 288.2812805175781 250.90579223632812 257.9220275878906 143.95138549804688 302.1264953613281 321.136474609375"/>
    <path stroke-width="0" fill="rgb(246, 255, 263)" opacity="0.97957826" stroke="rgb(156, 157, 240)" stroke-opacity="1.0" stroke-linecap="round" stroke-linejoin="round" d="M 228.8652801513672 210.2987518310547 C 301.8890075683594 278.4952697753906 173.74676513671875 246.0610809326172 197.29977416992188 194.32586669921875 C 301.7971496582031 315.3719482421875 169.8767852783203 118.30494689941406 236.70582580566406 235.7076416015625 C 182.61138916015625 189.2652587890625 142.47108459472656 118.56395721435547 276.63726806640625 193.68994140625 C 315.0484313964844 270.83685302734375 175.91514587402344 161.32566833496094 228.8652801513672 210.2987518310547"/>
    <path stroke-width="0" fill="rgb(284, 176, 48)" opacity="1.0202582" stroke="rgb(91, 111, 177)" stroke-opacity="1.0" stroke-linecap="round" stroke-linejoin="round" d="M 169.56735229492188 282.6210632324219 C 135.20143127441406 260.0704040527344 224.77365112304688 271.2945861816406 183.73748779296875 408.945068359375 C 95.40069580078125 417.1754150390625 195.01913452148438 424.271728515625 160.6933135986328 308.09222412109375 C 158.94818115234375 158.88333129882812 181.66529846191406 280.4598693847656 182.1028289794922 130.80648803710938 C 374.2356872558594 42.16306686401367 101.44364166259766 215.54136657714844 169.56735229492188 282.6210632324219"/>
    <path stroke-width="0" fill="rgb(275, 237, 91)" opacity="1.0159473" stroke="rgb(170, 171, 53)" stroke-opacity="1.0" stroke-linecap="round" stroke-linejoin="round" d="M 284.05133056640625 326.283203125 C 260.19769287109375 406.21173095703125 281.021728515625 429.8834533691406 272.8776550292969 401.82366943359375 C 233.74392700195312 398.9980773925781 246.30087280273438 438.0910339355469 245.87049865722656 344.9657287597656 C 245.94454956054688 339.67645263671875 226.78221130371094 318.3394775390625 266.6719055175781 275.5676574707031 C 277.10357666015625 210.21559143066406 289.8676452636719 237.1425018310547 284.05133056640625 326.283203125"/>
    <path stroke-width="0" fill="rgb(232, 219, 186)" opacity="0.8232949" stroke="rgb(80, 92, 145)" stroke-opacity="1.0" stroke-linecap="round" stroke-linejoin="round" d="M 158.49110412597656 400.17901611328125 C 177.89268493652344 383.11090087890625 143.79299926757812 384.71612548828125 148.36639404296875 405.7539978027344 C 207.14556884765625 403.9772033691406 175.9549560546875 413.27044677734375 187.9608917236328 391.13555908203125 C 134.89772033691406 406.46337890625 144.0459747314453 376.72283935546875 189.9942169189453 396.437255859375 C 140.74964904785156 367.741943359375 178.50869750976562 408.99176025390625 158.49110412597656 400.17901611328125"/>
    <path stroke-width="0" fill="rgb(267, 169, 63)" opacity="0.85120463" stroke="rgb(166, 64, 118)" stroke-opacity="1.0" stroke-linecap="round" stroke-linejoin="round" d="M 195.3408203125 332.3404541015625 C 207.5697784423828 339.0399475097656 190.8219451904297 344.6695556640625 198.48927307128906 323.98284912109375 C 193.75514221191406 368.7951965332031 222.1549835205078 315.84893798828125 200.64825439453125 348.74468994140625 C 215.4779815673828 355.1787109375 205.32830810546875 339.9324035644531 189.95167541503906 364.7269287109375 C 190.94129943847656 350.2401123046875 189.3525390625 366.4693908691406 195.3408203125 332.3404541015625"/>
    <path stroke-width="0" fill="rgb(269, 263, 234)" opacity="0.9211725" stroke="rgb(50, 94, 209)" stroke-opacity="1.0" stroke-linecap="round" stroke-linejoin="round" d="M 187.73239135742188 385.63006591796875 C 186.7268524169922 409.3487243652344 173.3959503173828 407.5693664550781 212.6497802734375 396.7166748046875 C 147.2435760498047 416.7659912109375 174.65328979492188 417.50408935546875 146.00979614257812 411.5361633300781 C 150.07632446289062 375.5789794921875 160.9817352294922 408.5016784667969 162.7063446044922 389.494140625 C 119.02873992919922 373.4767150878906 178.8159637451172 400.3836669921875 187.73239135742188 385.63006591796875"/>
    <path stroke-width="0" fill="rgb(104, 126, 139)" opacity="0.9994493" stroke="rgb(72, 30, 75)" stroke-opacity="1.0" stroke-linecap="round" stroke-linejoin="round" d="M 443.9854736328125 624.081787109375 C -28.37852668762207 436.4935607910156 497.71478271484375 363.3507385253906 518.4304809570312 334.81634521484375 C 263.99456787109375 419.3416442871094 494.6646728515625 360.3619689941406 317.0533447265625 258.24169921875 C 245.810546875 259.18170166015625 307.6087341308594 222.18089294433594 297.2236633300781 121.64738464355469 C 348.3633728027344 63.4245491027832 698.46533203125 -16.17382049560547 443.9854736328125 624.081787109375"/>
    <path stroke-width="0" fill="rgb(181, 111, 30)" opacity="0.67261016" stroke="rgb(146, 236, 81)" stroke-opacity="1.0" stroke-linecap="round" stroke-linejoin="round" d="M 194.2279815673828 81.93412780761719 C 199.4136505126953 113.34657287597656 201.84703063964844 112.44639587402344 194.87008666992188 115.2415771484375 C 192.2989501953125 125.84700012207031 192.5892333984375 114.3239974975586 199.99156188964844 114.39293670654297 C 197.98464965820312 104.88580322265625 196.69508361816406 105.03570556640625 196.75900268554688 106.30201721191406 C 197.3959197998047 97.13418579101562 200.3695526123047 117.62816619873047 194.2279815673828 81.93412780761719"/>
    <path stroke-width="0" fill="rgb(77, 29, 38)" opacity="0.8452114" stroke="rgb(33, 182, 73)" stroke-opacity="1.0" stroke-linecap="round" stroke-linejoin="round" d="M 293.4004821777344 127.83689880371094 C 304.7197570800781 178.908447265625 292.8927917480469 130.04635620117188 300.04315185546875 136.47828674316406 C 295.45697021484375 133.96060180664062 299.2694396972656 137.62672424316406 298.8042907714844 124.04549407958984 C 288.3499755859375 176.63278198242188 307.9322204589844 139.1042938232422 297.744873046875 169.5413360595703 C 299.0805969238281 110.2911148071289 290.02777099609375 179.4020538330078 293.4004821777344 127.83689880371094"/>
    <path stroke-width="0" fill="rgb(279, 154, 14)" opacity="1.0825379" stroke="rgb(149, 5, 211)" stroke-opacity="1.0" stroke-linecap="round" stroke-linejoin="round" d="M 269.0206604003906 194.5409393310547 C 282.9380187988281 191.95799255371094 270.21331787109375 190.96945190429688 264.0293884277344 185.25973510742188 C 294.08575439453125 178.7093048095703 249.67770385742188 190.3175811767578 242.77151489257812 183.29888916015625 C 182.756103515625 143.60763549804688 307.6921081542969 180.6118927001953 291.0356750488281 168.6651153564453 C 286.234375 201.9988555908203 320.24169921875 199.8627166748047 269.0206604003906 194.5409393310547"/>
    <path stroke-width="0" fill="rgb(24, 6, 32)" opacity="0.59609854" stroke="rgb(172, 68, 187)" stroke-opacity="1.0" stroke-linecap="round" stroke-linejoin="round" d="M 302.8323669433594 104.16423797607422 C 296.14349365234375 103.53330993652344 337.1988525390625 76.67863464355469 292.5484313964844 132.1450958251953 C 328.3023681640625 93.12993621826172 323.4656677246094 80.9601058959961 276.09912109375 108.03065490722656 C 265.94622802734375 108.46463012695312 353.1727600097656 73.0277328491211 281.2564697265625 118.67298889160156 C 283.019775390625 131.34791564941406 269.8071594238281 120.17029571533203 302.8323669433594 104.16423797607422"/>
    <path stroke-width="0" fill="rgb(50, -25, 41)" opacity="0.6514079" stroke="rgb(63, 146, 150)" stroke-opacity="1.0" stroke-linecap="round" stroke-linejoin="round" d="M 294.32672119140625 100.3956069946289 C 288.2014465332031 102.11380004882812 309.0133972167969 92.08526611328125 299.0567932128906 96.69303131103516 C 321.88092041015625 92.95148468017578 303.6613464355469 97.07530975341797 305.0273132324219 89.45384979248047 C 300.16448974609375 110.70339965820312 327.42559814453125 96.46833038330078 291.9944152832031 97.75829315185547 C 282.05328369140625 111.74616241455078 239.9703369140625 113.00293731689453 294.32672119140625 100.3956069946289"/>
    <path stroke-width="0" fill="rgb(-19, -27, -18)" opacity="0.9583393" stroke="rgb(56, 242, 114)" stroke-opacity="1.0" stroke-linecap="round" stroke-linejoin="round" d="M 177.36141967773438 153.6544952392578 C 181.45486450195312 133.97496032714844 182.92974853515625 133.2530975341797 180.83987426757812 141.77723693847656 C 206.27182006835938 86.31230926513672 182.72146606445312 114.63726806640625 179.59213256835938 155.07327270507812 C 171.4476318359375 162.15786743164062 173.13400268554688 179.1963348388672 178.9554443359375 172.04364013671875 C 167.91806030273438 180.60227966308594 179.0554962158203 179.33895874023438 177.36141967773438 153.6544952392578"/>
    <path stroke-width="0" fill="rgb(29, -6, -23)" opacity="0.9240904" stroke="rgb(178, 75, 207)" stroke-opacity="1.0" stroke-linecap="round" stroke-linejoin="round" d="M 218.24606323242188 88.36542510986328 C 231.84878540039062 82.22452545166016 227.00177001953125 82.06266021728516 226.8946533203125 106.51078033447266 C 181.8007354736328 154.68394470214844 215.47421264648438 109.7698974609375 225.0182342529297 92.71268463134766 C 211.2743682861328 126.4732437133789 207.4432373046875 94.98128509521484 212.41172790527344 102.51725769042969 C 233.25926208496094 91.876708984375 204.64642333984375 112.57962036132812 218.24606323242188 88.36542510986328"/>
    <path stroke-width="0" fill="rgb(-19, -2, 4)" opacity="0.9969096" stroke="rgb(224, 148, 224)" stroke-opacity="1.0" stroke-linecap="round" stroke-linejoin="round" d="M 289.9021301269531 221.43331909179688 C 288.15191650390625 212.85548400878906 279.11236572265625 226.86769104003906 298.6370544433594 206.39793395996094 C 300.7550048828125 191.3269500732422 279.8775939941406 208.59019470214844 277.0645751953125 199.54605102539062 C 289.7594909667969 185.61529541015625 271.2403259277344 217.04876708984375 279.0846252441406 193.8531951904297 C 281.6245422363281 213.76284790039062 284.17333984375 203.5344696044922 289.9021301269531 221.43331909179688"/>
    <path stroke-width="0" fill="rgb(50, 53, 26)" opacity="0.6039806" stroke="rgb(108, 154, 4)" stroke-opacity="1.0" stroke-linecap="round" stroke-linejoin="round" d="M 238.6766357421875 412.2230529785156 C 252.512939453125 381.15966796875 221.7437286376953 426.2550354003906 277.46221923828125 413.6938171386719 C 250.08270263671875 406.169921875 289.5376892089844 435.20208740234375 271.421875 389.4573669433594 C 276.9903564453125 430.15386962890625 259.2120666503906 408.7044677734375 269.88238525390625 415.8056335449219 C 210.93087768554688 414.36578369140625 260.72296142578125 391.6197204589844 238.6766357421875 412.2230529785156"/>
    <path stroke-width="0" fill="rgb(112, 127, 140)" opacity="0.6975368" stroke="rgb(168, 73, 157)" stroke-opacity="1.0" stroke-linecap="round" stroke-linejoin="round" d="M 147.8756103515625 361.9569396972656 C 194.2870330810547 388.0475769042969 141.60980224609375 383.10540771484375 169.31968688964844 379.7345886230469 C 173.9910125732422 379.9548034667969 162.63363647460938 382.5232849121094 158.87991333007812 345.6152648925781 C 147.52200317382812 384.9866943359375 154.117431640625 363.33843994140625 158.6827850341797 346.2265625 C 173.30067443847656 362.21173095703125 168.1722412109375 375.932861328125 147.8756103515625 361.9569396972656"/>
    <path stroke-width="0" fill="rgb(71, 28, -19)" opacity="0.45585126" stroke="rgb(34, 76, 145)" stroke-opacity="1.0" stroke-linecap="round" stroke-linejoin="round" d="M 230.87474060058594 112.99144744873047 C 196.81414794921875 118.16803741455078 213.8719482421875 95.96588897705078 225.50462341308594 104.74567413330078 C 190.1420440673828 65.29133605957031 217.26071166992188 71.53621673583984 195.51576232910156 103.03807830810547 C 188.18336486816406 148.68031311035156 194.0498046875 72.85401916503906 224.7325439453125 105.31634521484375 C 228.13406372070312 76.1313247680664 167.12779235839844 84.59090423583984 230.87474060058594 112.99144744873047"/>
    <path stroke-width="0" fill="rgb(58, 0, 30)" opacity="0.78299636" stroke="rgb(146, 166, 166)" stroke-opacity="1.0" stroke-linecap="round" stroke-linejoin="round" d="M 175.42295837402344 201.8628692626953 C 174.38441467285156 200.15835571289062 174.95394897460938 197.1682891845703 173.94036865234375 189.50714111328125 C 166.6472625732422 209.92491149902344 178.25509643554688 150.46588134765625 174.50765991210938 200.4316864013672 C 166.65237426757812 205.1201629638672 175.0437469482422 192.01292419433594 168.6095428466797 202.8056640625 C 179.08985900878906 198.29164123535156 173.6230010986328 201.07785034179688 175.42295837402344 201.8628692626953"/>
    <path stroke-width="0" fill="rgb(77, -7, -36)" opacity="0.37938973" stroke="rgb(228, 93, 111)" stroke-opacity="1.0" stroke-linecap="round" stroke-linejoin="round" d="M 233.4253387451172 113.68206024169922 C 243.1771240234375 98.93869018554688 231.71771240234375 59.637901306152344 239.9449920654297 84.29308319091797 C 218.0135498046875 118.5489273071289 232.28794860839844 134.411376953125 221.96080017089844 101.25305938720703 C 238.01918029785156 90.4210433959961 289.5782165527344 138.01092529296875 263.9857177734375 112.82670593261719 C 235.24237060546875 105.99052429199219 256.676513671875 89.5337905883789 233.4253387451172 113.68206024169922"/>
    <path stroke-width="0" fill="rgb(225, 177, 163)" opacity="0.6061488" stroke="rgb(205, 179, 25)" stroke-opacity="1.0" stroke-linecap="round" stroke-linejoin="round" d="M 199.20962524414062 105.37882232666016 C 239.0712890625 90.37269592285156 188.18817138671875 134.86053466796875 212.7774200439453 99.76677703857422 C 247.2441864013672 109.52755737304688 225.61569213867188 52.80998992919922 212.22918701171875 94.4317855834961 C 177.92959594726562 66.91638946533203 222.7509002685547 85.79341888427734 215.01739501953125 121.57122039794922 C 254.28585815429688 80.84892272949219 216.25390625 103.845947265625 199.20962524414062 105.37882232666016"/>
    <path stroke-width="0" fill="rgb(228, 179, 128)" opacity="0.51161253" stroke="rgb(205, 145, 103)" stroke-opacity="1.0" stroke-linecap="round" stroke-linejoin="round" d="M 292.0012512207031 145.8987274169922 C 281.31231689453125 118.8216781616211 258.8881530761719 140.5227813720703 283.9346923828125 128.8583984375 C 290.4999084472656 154.13165283203125 277.1335144042969 142.12869262695312 292.1805114746094 144.9875030517578 C 296.4028015136719 150.839599609375 295.1062927246094 111.98003387451172 297.64703369140625 145.29769897460938 C 272.55572509765625 137.83047485351562 292.3926086425781 146.242431640625 292.0012512207031 145.8987274169922"/>
    <path stroke-width="0" fill="rgb(117, 109, 148)" opacity="0.65319675" stroke="rgb(177, 115, 184)" stroke-opacity="1.0" stroke-linecap="round" stroke-linejoin="round" d="M 154.49168395996094 191.38967895507812 C 168.9942626953125 201.62005615234375 170.72055053710938 198.3219757080078 165.65771484375 210.80355834960938 C 169.3799285888672 216.60707092285156 157.60867309570312 217.62289428710938 167.42369079589844 226.0364990234375 C 168.20787048339844 207.29486083984375 168.77383422851562 212.2267303466797 162.82284545898438 217.25892639160156 C 174.60047912597656 202.5767822265625 172.48660278320312 202.4532012939453 154.49168395996094 191.38967895507812"/>
    <path stroke-width="0" fill="rgb(195, 170, 233)" opacity="0.82238054" stroke="rgb(248, 218, 2)" stroke-opacity="1.0" stroke-linecap="round" stroke-linejoin="round" d="M 288.23211669921875 221.80975341796875 C 298.3757629394531 192.10824584960938 317.343505859375 222.05935668945312 241.4538116455078 235.19570922851562 C 254.0213165283203 251.4737091064453 245.89999389648438 231.1085205078125 262.0950927734375 230.1572723388672 C 276.8061828613281 220.66238403320312 275.8495178222656 246.5514678955078 259.86199951171875 239.94094848632812 C 229.88809204101562 219.67039489746094 288.5101013183594 208.3590850830078 288.23211669921875 221.80975341796875"/>
    <path stroke-width="0" fill="rgb(-13, 94, 84)" opacity="0.54828745" stroke="rgb(186, 43, 132)" stroke-opacity="1.0" stroke-linecap="round" stroke-linejoin="round" d="M 215.85899353027344 204.82327270507812 C 228.29074096679688 186.39892578125 218.32662963867188 225.93960571289062 226.6797637939453 207.557861328125 C 243.0629425048828 216.7609100341797 254.33106994628906 202.35231018066406 219.7654571533203 215.87591552734375 C 217.61831665039062 195.4072265625 224.7444305419922 199.48745727539062 224.4691162109375 208.57298278808594 C 215.18780517578125 215.81820678710938 241.5403594970703 230.7208709716797 215.85899353027344 204.82327270507812"/>
    <path stroke-width="0" fill="rgb(234, 111, -7)" opacity="0.45996264" stroke="rgb(88, 236, 179)" stroke-opacity="1.0" stroke-linecap="round" stroke-linejoin="round" d="M 288.22039794921875 262.84039306640625 C 277.0375061035156 255.92843627929688 291.5669250488281 251.07827758789062 286.093994140625 261.99627685546875 C 289.801025390625 259.80078125 277.1797790527344 259.9615478515625 290.458984375 263.7725830078125 C 326.4658203125 262.04864501953125 342.1896667480469 263.531982421875 280.8188171386719 261.8870849609375 C 301.4066467285156 257.9812927246094 302.5551452636719 339.2685852050781 288.22039794921875 262.84039306640625"/>
    <path stroke-width="0" fill="rgb(-21, -11, 25)" opacity="0.7959719" stroke="rgb(41, 158, 147)" stroke-opacity="1.0" stroke-linecap="round" stroke-linejoin="round" d="M 227.132080078125 200.01202392578125 C 229.0782470703125 218.08612060546875 218.2308349609375 210.60910034179688 279.9769287109375 228.95518493652344 C 283.1217346191406 214.3017578125 233.80889892578125 224.416015625 248.08798217773438 234.69422912597656 C 211.31053161621094 205.06021118164062 254.295166015625 210.58126831054688 238.54928588867188 212.36048889160156 C 240.7749786376953 212.2177734375 246.0053253173828 202.77645874023438 227.132080078125 200.01202392578125"/>
    <path stroke-width="0" fill="rgb(49, 10, -1)" opacity="0.9785506" stroke="rgb(238, 156, 136)" stroke-opacity="1.0" stroke-linecap="round" stroke-linejoin="round" d="M 306.0901184082031 190.7481231689453 C 291.64007568359375 177.4064178466797 270.7953186035156 170.07257080078125 289.0446472167969 165.2393341064453 C 299.3271789550781 170.60162353515625 283.6040954589844 156.3307647705078 292.682373046875 165.4734344482422 C 284.988037109375 174.31764221191406 286.7122802734375 175.1237335205078 308.0115661621094 209.08148193359375 C 281.652587890625 179.00965881347656 289.0291442871094 174.18202209472656 306.0901184082031 190.7481231689453"/>
    <path stroke-width="0" fill="rgb(62, 8, 29)" opacity="0.7041564" stroke="rgb(186, 79, 101)" stroke-opacity="1.0" stroke-linecap="round" stroke-linejoin="round" d="M 167.10333251953125 216.96702575683594 C 168.44822692871094 213.1847381591797 170.8127899169922 220.32139587402344 167.70968627929688 213.71717834472656 C 169.01138305664062 225.00631713867188 173.78384399414062 176.62962341308594 160.48916625976562 242.9696044921875 C 158.1239471435547 235.63143920898438 168.80665588378906 230.05238342285156 162.3141632080078 230.1310272216797 C 166.12103271484375 219.47523498535156 164.8821258544922 241.54466247558594 167.10333251953125 216.96702575683594"/>
    <path stroke-width="0" fill="rgb(51, 30, -5)" opacity="0.84767705" stroke="rgb(57, 64, 14)" stroke-opacity="1.0" stroke-linecap="round" stroke-linejoin="round" d="M 157.05372619628906 271.208740234375 C 157.6829071044922 268.22406005859375 157.27281188964844 284.21038818359375 157.9481658935547 252.8845977783203 C 172.9228515625 222.901123046875 153.82740783691406 206.93896484375 158.30210876464844 307.07843017578125 C 164.6327667236328 316.7096252441406 157.10275268554688 311.8492736816406 159.14474487304688 237.57310485839844 C 153.24267578125 295.3280029296875 158.16445922851562 279.85015869140625 157.05372619628906 271.208740234375"/>
    <path stroke-width="0" fill="rgb(257, 260, 258)" opacity="0.8032058" stroke="rgb(6, 17, 173)" stroke-opacity="1.0" stroke-linecap="round" stroke-linejoin="round" d="M 347.3018493652344 370.9264831542969 C 347.1064147949219 397.64776611328125 372.14984130859375 362.4438171386719 334.5790710449219 379.0047607421875 C 372.47674560546875 321.4879455566406 313.9286193847656 369.6247253417969 322.1719055175781 350.3887939453125 C 285.4582824707031 324.2088623046875 350.3475646972656 314.83099365234375 351.35308837890625 347.2990417480469 C 312.3477783203125 345.72894287109375 325.85137939453125 381.24444580078125 347.3018493652344 370.9264831542969"/>
    <path stroke-width="0" fill="rgb(45, -1, 0)" opacity="0.9914392" stroke="rgb(136, 228, 252)" stroke-opacity="1.0" stroke-linecap="round" stroke-linejoin="round" d="M 316.3130798339844 259.2131042480469 C 410.7978820800781 324.5395202636719 382.90301513671875 306.8002014160156 352.7307434082031 287.169189453125 C 342.952392578125 282.0788879394531 357.6996765136719 281.65594482421875 354.4619140625 289.13372802734375 C 358.4311828613281 398.7740783691406 361.52667236328125 373.30096435546875 357.0683898925781 298.19317626953125 C 347.1453857421875 300.0805358886719 352.3183898925781 269.9997253417969 316.3130798339844 259.2131042480469"/>
    <path stroke-width="0" fill="rgb(-5, -3, 1)" opacity="0.8358283" stroke="rgb(81, 97, 150)" stroke-opacity="1.0" stroke-linecap="round" stroke-linejoin="round" d="M 251.9939727783203 221.31715393066406 C 238.78477478027344 201.73458862304688 209.49180603027344 212.4954376220703 269.30438232421875 229.2721405029297 C 264.12481689453125 218.30853271484375 231.27633666992188 218.80613708496094 253.36138916015625 239.8060302734375 C 271.57366943359375 251.9547882080078 277.3209228515625 235.19732666015625 260.6621398925781 242.14852905273438 C 256.36083984375 230.44113159179688 252.9884490966797 237.605712890625 251.9939727783203 221.31715393066406"/>
    <path stroke-width="0" fill="rgb(282, 276, 241)" opacity="0.7882384" stroke="rgb(160, 222, 69)" stroke-opacity="1.0" stroke-linecap="round" stroke-linejoin="round" d="M 178.40049743652344 389.6378173828125 C 198.0264434814453 376.73193359375 157.0589599609375 407.20989990234375 166.51644897460938 374.080078125 C 165.8334197998047 395.0125427246094 170.54891967773438 387.4156799316406 158.7672119140625 396.8753967285156 C 175.3998260498047 363.7876281738281 158.24964904785156 355.09228515625 165.2499542236328 350.6485900878906 C 162.4562530517578 368.5282287597656 185.7177276611328 340.8326721191406 178.40049743652344 389.6378173828125"/>
    <path stroke-width="0" fill="rgb(110, 127, 128)" opacity="1.0180923" stroke="rgb(47, 242, 175)" stroke-opacity="1.0" stroke-linecap="round" stroke-linejoin="round" d="M 319.4972229003906 353.8209533691406 C 319.65460205078125 364.560791015625 321.29986572265625 344.79486083984375 322.0331115722656 355.0750732421875 C 310.67376708984375 356.5018615722656 301.1999206542969 319.23712158203125 297.3384704589844 374.0531005859375 C 337.0141296386719 360.4635925292969 320.1842956542969 334.3381042480469 284.0235900878906 318.3810119628906 C 338.994384765625 342.8021545410156 305.0198974609375 331.0233154296875 319.4972229003906 353.8209533691406"/>
    <path stroke-width="0" fill="rgb(52, -27, -5)" opacity="0.7804568" stroke="rgb(241, 186, 64)" stroke-opacity="1.0" stroke-linecap="round" stroke-linejoin="round" d="M 284.9805908203125 259.3794860839844 C 284.8001708984375 242.84286499023438 287.9703674316406 265.4081726074219 308.01068115234375 253.3893280029297 C 302.7993469238281 256.3114318847656 293.2098693847656 257.5735778808594 315.6352844238281 259.8869323730469 C 333.41131591796875 256.82110595703125 385.9958801269531 327.6770935058594 325.8979187011719 261.90423583984375 C 313.0992431640625 270.39532470703125 314.5426025390625 243.8199462890625 284.9805908203125 259.3794860839844"/>
    <path stroke-width="0" fill="rgb(-33, -3, 12)" opacity="0.90019566" stroke="rgb(132, 6, 52)" stroke-opacity="1.0" stroke-linecap="round" stroke-linejoin="round" d="M 202.44532775878906 101.48735046386719 C 205.5329132080078 97.9743881225586 194.9628448486328 84.05817413330078 201.82025146484375 93.87030029296875 C 200.3746337890625 88.8553237915039 215.2311248779297 59.0833625793457 189.20684814453125 120.7879638671875 C 221.02517700195312 65.2352523803711 210.2029266357422 56.1989860534668 236.413330078125 64.2801284790039 C 219.44400024414062 45.64429473876953 197.09835815429688 89.2138671875 202.44532775878906 101.48735046386719"/>
    <path stroke-width="0" fill="rgb(28, -7, -27)" opacity="0.97018325" stroke="rgb(182, 100, 144)" stroke-opacity="1.0" stroke-linecap="round" stroke-linejoin="round" d="M 307.43359375 195.53187561035156 C 302.05718994140625 192.57273864746094 312.83892822265625 220.7616729736328 303.5248107910156 221.11582946777344 C 300.2802734375 192.6866912841797 319.6324768066406 203.35171508789062 297.8682556152344 221.22830200195312 C 291.2895812988281 222.99949645996094 325.83404541015625 233.35655212402344 266.21160888671875 225.84754943847656 C 286.5863342285156 221.53585815429688 310.867919921875 217.96987915039062 307.43359375 195.53187561035156"/>
    <path stroke-width="0" fill="rgb(186, 119, 120)" opacity="0.5608423" stroke="rgb(140, 149, 245)" stroke-opacity="1.0" stroke-linecap="round" stroke-linejoin="round" d="M 217.85276794433594 74.42619323730469 C 226.9908447265625 92.72444915771484 202.19432067871094 90.90947723388672 215.6654510498047 99.74742889404297 C 232.6400909423828 68.60169219970703 209.00535583496094 72.4293212890625 181.81639099121094 77.69219970703125 C 202.4889678955078 83.12266540527344 177.954345703125 100.3268814086914 187.96469116210938 75.8076171875 C 219.19497680664062 69.63082885742188 247.88449096679688 83.17620086669922 217.85276794433594 74.42619323730469"/>
    <path stroke-width="0" fill="rgb(279, 177, 48)" opacity="0.98412937" stroke="rgb(86, 245, 59)" stroke-opacity="1.0" stroke-linecap="round" stroke-linejoin="round" d="M 279.2405090332031 313.47216796875 C 276.2384948730469 315.8475036621094 268.41925048828125 334.4787902832031 334.6541748046875 274.7957458496094 C 260.9927978515625 224.34812927246094 288.8116760253906 322.31402587890625 323.2925720214844 288.2965087890625 C 310.68096923828125 349.10382080078125 272.4846496582031 303.22509765625 291.5310363769531 293.20904541015625 C 319.13214111328125 281.96234130859375 287.7998352050781 345.63287353515625 279.2405090332031 313.47216796875"/>
    <path stroke-width="0" fill="rgb(266, 253, 237)" opacity="0.47499248" stroke="rgb(240, 203, 160)" stroke-opacity="1.0" stroke-linecap="round" stroke-linejoin="round" d="M 260.6481628417969 184.35061645507812 C 259.9857177734375 203.61407470703125 266.2228698730469 214.9315643310547 295.8821105957031 236.8128204345703 C 300.8892822265625 216.603271484375 308.9610290527344 217.4578857421875 305.9327392578125 210.65257263183594 C 308.33709716796875 257.9100646972656 267.6835632324219 232.3529052734375 287.254150390625 228.885009765625 C 256.5832824707031 198.24729919433594 268.075439453125 215.8567657470703 260.6481628417969 184.35061645507812"/>
    <path stroke-width="0" fill="rgb(88, 25, 27)" opacity="0.7931037" stroke="rgb(88, 37, 250)" stroke-opacity="1.0" stroke-linecap="round" stroke-linejoin="round" d="M 274.5106201171875 348.23223876953125 C 293.4624328613281 312.23089599609375 277.7646179199219 315.55657958984375 284.4644470214844 327.5893859863281 C 288.8153991699219 329.4002990722656 285.8185729980469 261.04547119140625 283.36767578125 317.4339294433594 C 291.28485107421875 340.21142578125 290.1888427734375 306.2532653808594 319.15118408203125 321.7264709472656 C 254.97372436523438 305.2464294433594 291.8685607910156 370.85076904296875 274.5106201171875 348.23223876953125"/>
    <path stroke-width="0" fill="rgb(102, 133, 165)" opacity="0.41501045" stroke="rgb(126, 163, 93)" stroke-opacity="1.0" stroke-linecap="round" stroke-linejoin="round" d="M 203.513427734375 71.66835021972656 C 211.1383819580078 64.73089599609375 219.51071166992188 71.87965393066406 205.5401153564453 67.59188842773438 C 209.62649536132812 62.01430130004883 210.83297729492188 34.300662994384766 206.94786071777344 62.141624450683594 C 207.9083709716797 69.75819396972656 228.27430725097656 58.45064163208008 230.22540283203125 57.16207504272461 C 199.44053649902344 53.33894729614258 220.72801208496094 81.48284912109375 203.513427734375 71.66835021972656"/>
    <path stroke-width="0" fill="rgb(102, 125, 135)" opacity="0.85597134" stroke="rgb(209, 48, 130)" stroke-opacity="1.0" stroke-linecap="round" stroke-linejoin="round" d="M 229.14706420898438 50.06361770629883 C 193.91311645507812 50.455810546875 179.8685302734375 46.412113189697266 184.4619903564453 66.56871032714844 C 162.95509338378906 98.31739044189453 158.79808044433594 109.29174041748047 182.4363250732422 106.60258483886719 C 232.00091552734375 62.143089294433594 207.69024658203125 20.01568603515625 178.13148498535156 32.52970504760742 C 149.0215606689453 82.00534057617188 189.89878845214844 71.68639373779297 229.14706420898438 50.06361770629883"/>
    <path stroke-width="0" fill="rgb(264, 126, 31)" opacity="0.50309545" stroke="rgb(24, 219, 248)" stroke-opacity="1.0" stroke-linecap="round" stroke-linejoin="round" d="M 228.95220947265625 106.76393127441406 C 224.68878173828125 87.39678955078125 221.75128173828125 81.8319091796875 238.29290771484375 84.27788543701172 C 216.26400756835938 63.91764450073242 232.1518096923828 73.97384643554688 228.20741271972656 87.37126922607422 C 234.61402893066406 95.10845947265625 232.15335083007812 91.10836029052734 232.5871124267578 74.09606170654297 C 229.41490173339844 80.88827514648438 238.20484924316406 59.876930236816406 228.95220947265625 106.76393127441406"/>
    <path stroke-width="0" fill="rgb(273, 157, 28)" opacity="0.41582072" stroke="rgb(103, 59, 33)" stroke-opacity="1.0" stroke-linecap="round" stroke-linejoin="round" d="M 229.5321044921875 63.157569885253906 C 213.55755615234375 67.71715545654297 216.71755981445312 81.91093444824219 234.0347442626953 90.58061981201172 C 239.18434143066406 116.5090560913086 235.28155517578125 124.8841323852539 227.0601043701172 119.57086181640625 C 240.49009704589844 118.25210571289062 236.68728637695312 81.78851318359375 216.80355834960938 98.77539825439453 C 211.88565063476562 82.841552734375 218.9166259765625 85.85015106201172 229.5321044921875 63.157569885253906"/>
    <path stroke-width="0" fill="rgb(242, 151, -1)" opacity="0.7516723" stroke="rgb(185, 2, 196)" stroke-opacity="1.0" stroke-linecap="round" stroke-linejoin="round" d="M 176.8184356689453 98.77561950683594 C 191.73118591308594 80.41481018066406 194.88357543945312 113.98419189453125 203.30096435546875 93.74586486816406 C 206.78912353515625 173.94837951660156 209.10592651367188 81.16685485839844 203.7791290283203 110.25245666503906 C 209.75103759765625 92.92211151123047 176.74407958984375 103.8724136352539 175.22938537597656 95.88103485107422 C 194.94566345214844 108.94761657714844 195.75135803222656 82.86624908447266 176.8184356689453 98.77561950683594"/>
    <path stroke-width="0" fill="rgb(112, 116, 142)" opacity="0.8915815" stroke="rgb(66, 116, 174)" stroke-opacity="1.0" stroke-linecap="round" stroke-linejoin="round" d="M 180.1644287109375 98.99944305419922 C 177.95445251464844 92.68408203125 196.82684326171875 166.02597045898438 175.6708526611328 103.75991821289062 C 151.90985107421875 113.04410552978516 135.20074462890625 138.78958129882812 161.95228576660156 109.84392547607422 C 174.58016967773438 106.18962097167969 176.70233154296875 99.9712142944336 171.5797119140625 61.316402435302734 C 187.35365295410156 114.16805267333984 180.9068145751953 112.04403686523438 180.1644287109375 98.99944305419922"/>
    <path stroke-width="0" fill="rgb(192, 130, 105)" opacity="0.59145653" stroke="rgb(72, 96, 46)" stroke-opacity="1.0" stroke-linecap="round" stroke-linejoin="round" d="M 221.58270263671875 89.72350311279297 C 213.61688232421875 91.03084564208984 252.45567321777344 94.32978057861328 224.26853942871094 76.38159942626953 C 240.31228637695312 79.45061492919922 228.389404296875 115.2337417602539 212.45220947265625 97.91331481933594 C 209.65126037597656 109.9293441772461 235.8392791748047 79.18034362792969 213.57843017578125 78.28697967529297 C 224.18466186523438 81.24104309082031 229.3842010498047 100.29366302490234 221.58270263671875 89.72350311279297"/>
    <path stroke-width="0" fill="rgb(107, 122, 137)" opacity="0.589524" stroke="rgb(147, 244, 164)" stroke-opacity="1.0" stroke-linecap="round" stroke-linejoin="round" d="M 227.61180114746094 78.63935089111328 C 176.48667907714844 77.30221557617188 205.93466186523438 83.57164001464844 185.1013946533203 97.78050994873047 C 170.87973022460938 166.64981079101562 109.11455535888672 263.0289306640625 -45.61789321899414 119.65499877929688 C 179.26461791992188 16.8763427734375 156.16558837890625 84.47207641601562 226.3539276123047 77.9190902709961 C 238.05621337890625 70.31824493408203 229.68780517578125 90.51698303222656 227.61180114746094 78.63935089111328"/>
    <path stroke-width="0" fill="rgb(106, 121, 135)" opacity="0.98230827" stroke="rgb(109, 130, 136)" stroke-opacity="1.0" stroke-linecap="round" stroke-linejoin="round" d="M 197.29437255859375 91.927734375 C 198.9639892578125 82.63200378417969 152.6291961669922 82.30716705322266 167.36456298828125 96.15859985351562 C 179.88046264648438 127.48004913330078 153.8844757080078 137.69322204589844 172.6034698486328 80.17243194580078 C 153.08261108398438 89.21727752685547 161.54722595214844 74.7148666381836 159.6064453125 73.83242797851562 C 187.41262817382812 96.8592758178711 185.25640869140625 119.82392883300781 197.29437255859375 91.927734375"/>
    <path stroke-width="0" fill="rgb(113, 116, 144)" opacity="0.5513258" stroke="rgb(70, 32, 100)" stroke-opacity="1.0" stroke-linecap="round" stroke-linejoin="round" d="M 287.4084167480469 119.81217956542969 C 299.47735595703125 110.0921401977539 288.0762634277344 122.7425537109375 298.072265625 130.89341735839844 C 280.28814697265625 117.96589660644531 314.85797119140625 99.0555419921875 308.6295471191406 137.68756103515625 C 309.68035888671875 125.68701934814453 314.2259216308594 108.06929016113281 333.9004821777344 102.34587097167969 C 322.68896484375 107.73560333251953 324.8734436035156 102.5298080444336 287.4084167480469 119.81217956542969"/>
    <path stroke-width="0" fill="rgb(224, 129, 68)" opacity="0.588053" stroke="rgb(47, 230, 138)" stroke-opacity="1.0" stroke-linecap="round" stroke-linejoin="round" d="M 281.5180969238281 319.7374267578125 C 284.33160400390625 311.8172302246094 277.2515563964844 278.1697692871094 290.1984558105469 318.4468994140625 C 310.53875732421875 320.3170471191406 280.8439025878906 335.1002502441406 287.9909973144531 298.6673889160156 C 288.2794494628906 249.22457885742188 288.3058776855469 256.30340576171875 280.7000732421875 323.6863708496094 C 284.9256591796875 324.4571228027344 287.9408874511719 319.4855041503906 281.5180969238281 319.7374267578125"/>
    <path stroke-width="0" fill="rgb(255, 173, 63)" opacity="0.505673" stroke="rgb(224, 116, 184)" stroke-opacity="1.0" stroke-linecap="round" stroke-linejoin="round" d="M 304.5832824707031 116.2360610961914 C 290.1512451171875 101.61843872070312 296.1375732421875 68.12386322021484 299.49371337890625 121.1894302368164 C 298.05755615234375 117.13333892822266 300.2760009765625 90.17337036132812 295.01116943359375 119.19986724853516 C 306.25433349609375 139.15069580078125 284.39971923828125 117.80526733398438 286.4577941894531 128.35386657714844 C 289.2698059082031 119.81483459472656 284.1643371582031 113.79605102539062 304.5832824707031 116.2360610961914"/>
    <path stroke-width="0" fill="rgb(264, 211, 28)" opacity="0.6550644" stroke="rgb(230, 175, 178)" stroke-opacity="1.0" stroke-linecap="round" stroke-linejoin="round" d="M 308.4449462890625 103.69451904296875 C 297.3718566894531 117.96472930908203 288.8116760253906 132.9966583251953 272.8196716308594 142.6009521484375 C 291.5279846191406 118.21476745605469 287.2361145019531 98.67597198486328 289.3916320800781 137.31991577148438 C 315.1767272949219 96.86656188964844 285.9200134277344 104.48157501220703 300.9962463378906 125.7941665649414 C 282.9045715332031 101.46375274658203 307.0794982910156 133.46340942382812 308.4449462890625 103.69451904296875"/>
    <path stroke-width="0" fill="rgb(267, 178, 44)" opacity="0.6285254" stroke="rgb(203, 244, 116)" stroke-opacity="1.0" stroke-linecap="round" stroke-linejoin="round" d="M 281.8683166503906 137.0493927001953 C 295.4647521972656 120.52134704589844 295.0389099121094 104.99214935302734 292.9647216796875 133.2153778076172 C 310.1336364746094 94.79995727539062 294.3368835449219 126.01214599609375 304.8445739746094 113.27362060546875 C 308.0658264160156 114.74957275390625 281.4684753417969 125.5069808959961 312.0013122558594 106.08654022216797 C 291.9174499511719 128.1606903076172 297.1226501464844 118.1922378540039 281.8683166503906 137.0493927001953"/>
    <path stroke-width="0" fill="rgb(241, 192, 73)" opacity="0.61813456" stroke="rgb(65, 216, 8)" stroke-opacity="1.0" stroke-linecap="round" stroke-linejoin="round" d="M 296.52545166015625 116.78369140625 C 280.5180358886719 138.118408203125 282.34246826171875 144.34765625 276.5313720703125 133.52392578125 C 275.14373779296875 140.54818725585938 281.73297119140625 128.78485107421875 276.8860168457031 160.2935028076172 C 279.1726989746094 145.7890167236328 286.27130126953125 139.02931213378906 268.4654541015625 144.57188415527344 C 275.342041015625 131.36911010742188 273.5700988769531 152.97512817382812 296.52545166015625 116.78369140625"/>
    <path stroke-width="0" fill="rgb(86, 59, 20)" opacity="0.69426286" stroke="rgb(90, 90, 4)" stroke-opacity="1.0" stroke-linecap="round" stroke-linejoin="round" d="M 275.427734375 340.8917236328125 C 282.5906677246094 343.42657470703125 274.372802734375 343.25006103515625 277.8323669433594 341.1871643066406 C 275.713623046875 333.2148742675781 270.68804931640625 309.36285400390625 280.43304443359375 356.59588623046875 C 274.4681396484375 381.44366455078125 275.34893798828125 336.0191955566406 283.1878662109375 317.20428466796875 C 275.89215087890625 359.5755615234375 285.76312255859375 341.7281494140625 275.427734375 340.8917236328125"/>
    <path stroke-width="0" fill="rgb(243, 160, 56)" opacity="0.49252895" stroke="rgb(221, 115, 83)" stroke-opacity="1.0" stroke-linecap="round" stroke-linejoin="round" d="M 297.7918395996094 239.6259002685547 C 309.44049072265625 180.65338134765625 319.2711181640625 206.48854064941406 300.0419921875 237.0003662109375 C 282.07183837890625 182.58558654785156 273.7296142578125 151.2884979248047 261.8638916015625 170.8760528564453 C 274.23944091796875 145.1316680908203 279.02239990234375 145.66757202148438 265.1535949707031 167.79190063476562 C 274.795166015625 166.85458374023438 288.0328674316406 187.68789672851562 297.7918395996094 239.6259002685547"/>
    <path stroke-width="0" fill="rgb(105, 124, 133)" opacity="0.7596261" stroke="rgb(17, 64, 56)" stroke-opacity="1.0" stroke-linecap="round" stroke-linejoin="round" d="M 168.65737915039062 142.31973266601562 C 177.64964294433594 122.06534576416016 168.43751525878906 128.07347106933594 172.77391052246094 171.84115600585938 C 182.396728515625 167.35150146484375 177.77943420410156 140.9184112548828 161.02117919921875 145.45005798339844 C 175.9180450439453 151.8506317138672 188.3522491455078 123.16210174560547 148.40670776367188 131.77255249023438 C 159.67828369140625 158.46856689453125 175.97509765625 166.0021209716797 168.65737915039062 142.31973266601562"/>
    <path stroke-width="0" fill="rgb(259, 189, 50)" opacity="0.65967166" stroke="rgb(33, 3, 29)" stroke-opacity="1.0" stroke-linecap="round" stroke-linejoin="round" d="M 225.1603546142578 157.18801879882812 C 194.71966552734375 138.07496643066406 206.57400512695312 163.9978790283203 194.83340454101562 180.8677215576172 C 209.617431640625 134.35838317871094 203.36732482910156 142.50534057617188 193.70407104492188 147.3231658935547 C 180.3024139404297 129.44798278808594 198.78338623046875 133.87254333496094 191.634521484375 178.51010131835938 C 176.9771270751953 176.3704833984375 187.3287353515625 177.49240112304688 225.1603546142578 157.18801879882812"/>
    <path stroke-width="0" fill="rgb(-1, 21, 18)" opacity="0.7290931" stroke="rgb(162, 125, 252)" stroke-opacity="1.0" stroke-linecap="round" stroke-linejoin="round" d="M 297.3592224121094 218.81207275390625 C 294.20709228515625 273.7486267089844 278.9114074707031 209.69078063964844 303.1710510253906 243.03836059570312 C 286.90875244140625 220.16268920898438 299.70611572265625 210.10955810546875 298.28717041015625 234.02392578125 C 293.6962585449219 187.5294647216797 290.5371398925781 210.45928955078125 292.0967102050781 203.61192321777344 C 294.10174560546875 223.55877685546875 321.7322082519531 253.37762451171875 297.3592224121094 218.81207275390625"/>
    <path stroke-width="0" fill="rgb(156, 149, 125)" opacity="0.71160823" stroke="rgb(199, 73, 61)" stroke-opacity="1.0" stroke-linecap="round" stroke-linejoin="round" d="M 320.05517578125 214.0848388671875 C 303.54132080078125 218.47906494140625 295.8895263671875 222.66415405273438 317.21429443359375 234.43389892578125 C 302.0826721191406 224.22569274902344 306.6444396972656 216.1058349609375 286.7506103515625 237.89649963378906 C 305.4078369140625 244.18695068359375 312.0494384765625 235.25709533691406 298.4484558105469 235.0341796875 C 301.03656005859375 229.99205017089844 323.3356628417969 207.6378631591797 320.05517578125 214.0848388671875"/>
    <path stroke-width="0" fill="rgb(142, 224, 212)" opacity="0.7620902" stroke="rgb(91, 211, 235)" stroke-opacity="1.0" stroke-linecap="round" stroke-linejoin="round" d="M 275.4537048339844 202.82901000976562 C 284.3629150390625 197.1255340576172 312.9031066894531 182.0830535888672 291.5458984375 238.3692626953125 C 306.2066955566406 238.19960021972656 334.0211181640625 217.97357177734375 273.244873046875 220.20828247070312 C 305.3460998535156 210.38819885253906 311.94781494140625 207.7884979248047 312.34259033203125 217.47889709472656 C 316.57220458984375 199.87545776367188 292.393798828125 201.029541015625 275.4537048339844 202.82901000976562"/>
    <path stroke-width="0" fill="rgb(251, 252, 253)" opacity="0.98074806" stroke="rgb(247, 230, 75)" stroke-opacity="1.0" stroke-linecap="round" stroke-linejoin="round" d="M 201.62600708007812 212.9215087890625 C 208.3372802734375 213.5006103515625 199.8638153076172 196.9423370361328 214.95640563964844 207.17166137695312 C 215.2300567626953 202.90818786621094 223.59339904785156 207.46896362304688 226.11305236816406 227.03614807128906 C 222.77633666992188 237.53575134277344 189.9702911376953 232.241455078125 214.48764038085938 176.71163940429688 C 221.95022583007812 169.18528747558594 197.9910125732422 185.1669921875 201.62600708007812 212.9215087890625"/>
    <path stroke-width="0" fill="rgb(223, 256, 270)" opacity="0.93915" stroke="rgb(63, 27, 242)" stroke-opacity="1.0" stroke-linecap="round" stroke-linejoin="round" d="M 302.011962890625 223.45651245117188 C 284.7561950683594 225.74710083007812 312.5057067871094 215.0533447265625 313.44122314453125 213.63035583496094 C 305.3449401855469 185.02285766601562 294.8768310546875 227.34339904785156 265.75775146484375 217.50332641601562 C 246.74691772460938 195.74888610839844 226.64907836914062 200.1567840576172 278.4052429199219 215.4092254638672 C 319.234130859375 229.95069885253906 330.2414245605469 204.9932861328125 302.011962890625 223.45651245117188"/>
    <path stroke-width="0" fill="rgb(-15, -8, 2)" opacity="0.6874673" stroke="rgb(69, 96, 95)" stroke-opacity="1.0" stroke-linecap="round" stroke-linejoin="round" d="M 299.20697021484375 193.70741271972656 C 278.3759765625 226.6296844482422 311.4728698730469 242.8494110107422 319.9842834472656 235.22244262695312 C 300.4341735839844 239.1221466064453 287.5370178222656 246.4849090576172 305.0536804199219 228.18832397460938 C 307.8241882324219 241.5184783935547 306.5274963378906 225.72265625 279.3504943847656 201.8614044189453 C 318.553955078125 191.30203247070312 304.65924072265625 213.86244201660156 299.20697021484375 193.70741271972656"/>
    <path stroke-width="0" fill="rgb(281, 189, -11)" opacity="0.81506735" stroke="rgb(213, 60, 128)" stroke-opacity="1.0" stroke-linecap="round" stroke-linejoin="round" d="M 212.53207397460938 79.74298858642578 C 248.84791564941406 84.71847534179688 233.67308044433594 107.41500091552734 233.00758361816406 89.22663879394531 C 207.44735717773438 82.16845703125 196.10546875 101.08335876464844 225.3125762939453 61.57841491699219 C 229.80224609375 84.3507308959961 246.80966186523438 65.75871276855469 226.45489501953125 74.24357604980469 C 226.15472412109375 66.27359008789062 260.3165588378906 81.67256164550781 212.53207397460938 79.74298858642578"/>
    <path stroke-width="0" fill="rgb(247, 180, 88)" opacity="0.6159755" stroke="rgb(18, 74, 38)" stroke-opacity="1.0" stroke-linecap="round" stroke-linejoin="round" d="M 276.5177307128906 257.2914733886719 C 268.2854309082031 255.86215209960938 256.51708984375 253.2244873046875 261.4443054199219 251.92054748535156 C 209.72157287597656 256.1269836425781 219.2081756591797 247.05191040039062 186.3850860595703 219.2451629638672 C 231.77215576171875 262.24420166015625 263.7332763671875 250.03941345214844 208.61734008789062 254.4931182861328 C 186.87118530273438 256.6994323730469 248.90505981445312 251.35552978515625 276.5177307128906 257.2914733886719"/>
    <path stroke-width="0" fill="rgb(158, 100, 88)" opacity="0.67019916" stroke="rgb(33, 154, 97)" stroke-opacity="1.0" stroke-linecap="round" stroke-linejoin="round" d="M 225.21755981445312 53.839786529541016 C 198.6513671875 66.6025619506836 215.95359802246094 81.65213775634766 210.2255401611328 73.91671752929688 C 211.9591827392578 74.63555145263672 208.66009521484375 67.30661010742188 213.109130859375 82.27526092529297 C 211.79518127441406 99.00350952148438 234.5104217529297 62.31029510498047 214.37364196777344 86.55262756347656 C 208.06517028808594 64.19951629638672 207.70262145996094 63.2240104675293 225.21755981445312 53.839786529541016"/>
    <path stroke-width="0" fill="rgb(128, 115, 135)" opacity="1.0195223" stroke="rgb(246, 139, 70)" stroke-opacity="1.0" stroke-linecap="round" stroke-linejoin="round" d="M 302.5632629394531 242.2474822998047 C 290.8892822265625 243.19363403320312 276.2195129394531 233.31100463867188 329.1430969238281 228.62046813964844 C 312.2030334472656 231.8280792236328 297.44720458984375 224.5209503173828 264.44232177734375 227.83506774902344 C 298.556396484375 226.41842651367188 283.999755859375 241.67433166503906 305.86236572265625 193.5831756591797 C 274.1663513183594 161.26734924316406 334.027587890625 198.7390594482422 302.5632629394531 242.2474822998047"/>
    <path stroke-width="0" fill="rgb(150, 119, 102)" opacity="0.3409358" stroke="rgb(228, 103, 140)" stroke-opacity="1.0" stroke-linecap="round" stroke-linejoin="round" d="M 217.2452850341797 96.69398498535156 C 220.3177490234375 87.9242935180664 219.06016540527344 87.56825256347656 222.4371795654297 96.82947540283203 C 206.5819091796875 58.4052734375 203.2111053466797 58.98896789550781 206.8764190673828 61.18767166137695 C 210.1283416748047 58.04065704345703 208.1327362060547 68.73759460449219 200.85313415527344 51.300052642822266 C 214.28736877441406 75.95086669921875 225.3104248046875 98.8413314819336 217.2452850341797 96.69398498535156"/>
    <path stroke-width="0" fill="rgb(100, 128, 139)" opacity="0.9984675" stroke="rgb(116, 102, 63)" stroke-opacity="1.0" stroke-linecap="round" stroke-linejoin="round" d="M 325.6123046875 194.9984130859375 C 283.1567687988281 223.1209259033203 288.63330078125 228.46493530273438 319.0979919433594 218.69869995117188 C 302.1168212890625 229.25315856933594 278.0957336425781 213.01052856445312 281.4529113769531 236.2684783935547 C 303.619873046875 274.6064758300781 308.07952880859375 246.3783721923828 294.3529052734375 235.78118896484375 C 306.636962890625 250.7165985107422 333.5090026855469 276.552490234375 325.6123046875 194.9984130859375"/>
    <path stroke-width="0" fill="rgb(169, 71, 10)" opacity="0.6665864" stroke="rgb(79, 95, 133)" stroke-opacity="1.0" stroke-linecap="round" stroke-linejoin="round" d="M 230.70120239257812 92.51129150390625 C 256.8827209472656 101.37730407714844 264.4210205078125 105.50199890136719 247.73040771484375 97.3594970703125 C 240.97486877441406 91.74158477783203 246.92568969726562 109.4124755859375 225.53372192382812 76.91159057617188 C 255.0410919189453 94.99717712402344 233.63209533691406 104.92878723144531 240.7291717529297 89.1302490234375 C 229.95664978027344 74.63996887207031 239.03857421875 93.91531372070312 230.70120239257812 92.51129150390625"/>
    <path stroke-width="0" fill="rgb(102, 123, 134)" opacity="0.8479137" stroke="rgb(85, 235, 219)" stroke-opacity="1.0" stroke-linecap="round" stroke-linejoin="round" d="M 313.8511962890625 242.21029663085938 C 312.2388610839844 242.64352416992188 302.8166809082031 239.71578979492188 364.443359375 241.46839904785156 C 349.7340393066406 243.6269989013672 341.777099609375 234.16018676757812 339.33892822265625 223.7164764404297 C 355.9597473144531 275.8911437988281 312.7472229003906 270.4297180175781 335.4005432128906 234.42779541015625 C 307.6175231933594 231.4011993408203 367.9064636230469 261.4195556640625 313.8511962890625 242.21029663085938"/>
    <path stroke-width="0" fill="rgb(281, 195, 26)" opacity="0.85557365" stroke="rgb(64, 113, 26)" stroke-opacity="1.0" stroke-linecap="round" stroke-linejoin="round" d="M 300.7153625488281 104.11167907714844 C 288.7060241699219 87.97074127197266 320.50640869140625 122.43756103515625 311.44561767578125 94.36378479003906 C 310.1780700683594 116.18113708496094 287.7862854003906 143.4966278076172 285.16790771484375 115.26664733886719 C 314.152099609375 120.58454895019531 311.1830749511719 87.0595474243164 293.3455810546875 115.32342529296875 C 316.84283447265625 111.10780334472656 302.9971923828125 97.09722900390625 300.7153625488281 104.11167907714844"/>
    <path stroke-width="0" fill="rgb(63, 89, 156)" opacity="0.34317672" stroke="rgb(0, 0, 0)" stroke-opacity="0.0" stroke-linecap="round" stroke-linejoin="round" d="M 132.40283203125 19.07317352294922 C 133.18453979492188 23.53843116760254 130.3360137939453 26.683265686035156 126.30118560791016 30.62687110900879 C 122.35389709472656 28.074047088623047 120.62688446044922 24.94586944580078 121.23731994628906 18.723085403442383 C 120.94817352294922 18.309457778930664 128.6074676513672 18.09026527404785 127.26521301269531 14.651398658752441 C 127.39940643310547 17.012285232543945 132.48519897460938 17.101457595825195 132.40283203125 19.07317352294922"/>
    <path stroke-width="0" fill="rgb(113, 124, 139)" opacity="0.21798022" stroke="rgb(0, 0, 0)" stroke-opacity="0.0" stroke-linecap="round" stroke-linejoin="round" d="M 450.05584716796875 16.097124099731445 C 451.8334655761719 19.672266006469727 448.5326232910156 21.89682388305664 444.0606384277344 22.503944396972656 C 439.8977355957031 22.036334991455078 437.4084167480469 19.028913497924805 437.64892578125 15.622178077697754 C 436.5447082519531 10.256193161010742 438.9386291503906 6.577198505401611 441.8201904296875 8.649465560913086 C 446.9968566894531 9.75886344909668 450.44610595703125 11.724865913391113 450.05584716796875 16.097124099731445"/>
    <path stroke-width="0" fill="rgb(83, 125, 80)" opacity="0.38124862" stroke="rgb(0, 0, 0)" stroke-opacity="0.0" stroke-linecap="round" stroke-linejoin="round" d="M 18.108552932739258 2.1848418712615967 C 19.178085327148438 5.407224655151367 16.950294494628906 9.288124084472656 14.442398071289062 11.990787506103516 C 19.434377670288086 11.851844787597656 15.878780364990234 8.48182487487793 12.614296913146973 7.770143508911133 C 13.688457489013672 3.4687082767486572 14.48153305053711 -0.48376432061195374 21.35151481628418 -3.039607048034668 C 25.168302536010742 -1.5273237228393555 23.838520050048828 1.6247401237487793 18.108552932739258 2.1848418712615967"/>
    <path stroke-width="0" fill="rgb(48, 112, 162)" opacity="0.7908285" stroke="rgb(0, 0, 0)" stroke-opacity="0.0" stroke-linecap="round" stroke-linejoin="round" d="M 18.077295303344727 9.593951225280762 C 13.792533874511719 13.835238456726074 13.917359352111816 19.30782699584961 10.495001792907715 20.184438705444336 C 4.616018772125244 21.717060089111328 4.651357650756836 18.297008514404297 4.277287006378174 9.625628471374512 C 1.5584487915039062 7.04394006729126 5.339678764343262 2.413581609725952 9.707147598266602 4.143315315246582 C 16.886091232299805 3.724764585494995 19.35183334350586 5.311698913574219 18.077295303344727 9.593951225280762"/>
    <path stroke-width="0" fill="rgb(110, 26, 54)" opacity="0.3852681" stroke="rgb(0, 0, 0)" stroke-opacity="0.0" stroke-linecap="round" stroke-linejoin="round" d="M 59.767784118652344 14.703404426574707 C 61.370323181152344 21.232450485229492 58.76876449584961 23.787912368774414 53.538761138916016 24.54555320739746 C 46.8336181640625 23.64606475830078 43.65502166748047 21.40528678894043 44.72480010986328 15.081591606140137 C 44.1590461730957 10.302189826965332 47.581050872802734 9.104318618774414 51.417110443115234 9.603652000427246 C 56.529136657714844 10.05066204071045 60.005592346191406 10.583611488342285 59.767784118652344 14.703404426574707"/>
    <path stroke-width="0" fill="rgb(173, 58, 138)" opacity="0.096766174" stroke="rgb(0, 0, 0)" stroke-opacity="0.0" stroke-linecap="round" stroke-linejoin="round" d="M 189.65061950683594 10.598206520080566 C 190.98622131347656 11.023514747619629 186.92076110839844 12.845651626586914 180.80569458007812 14.041316032409668 C 178.34629821777344 17.087982177734375 176.4852294921875 16.177671432495117 179.61756896972656 10.349578857421875 C 177.3567657470703 1.5471479892730713 177.20559692382812 -3.7371952533721924 185.48110961914062 -5.077653408050537 C 190.15316772460938 -1.6879903078079224 189.7322235107422 4.1673712730407715 189.65061950683594 10.598206520080566"/>
    <path stroke-width="0" fill="rgb(86, 56, 130)" opacity="0.29216582" stroke="rgb(0, 0, 0)" stroke-opacity="0.0" stroke-linecap="round" stroke-linejoin="round" d="M 21.488405227661133 8.71834945678711 C 20.024749755859375 12.846855163574219 17.6357421875 16.913291931152344 14.184024810791016 16.176578521728516 C 6.337040424346924 17.43263053894043 4.310678482055664 14.766400337219238 4.758659362792969 9.153650283813477 C 5.1874518394470215 3.8011422157287598 8.169748306274414 1.5452085733413696 14.460553169250488 0.4046242833137512 C 18.67724609375 -0.061384763568639755 19.63055419921875 3.6531949043273926 21.488405227661133 8.71834945678711"/>
    <path stroke-width="0" fill="rgb(147, 104, 94)" opacity="0.29686657" stroke="rgb(0, 0, 0)" stroke-opacity="0.0" stroke-linecap="round" stroke-linejoin="round" d="M 9.76529598236084 0.7525126934051514 C 9.318021774291992 6.364120960235596 7.918406963348389 10.765213012695312 4.7635698318481445 13.133670806884766 C 0.7105894088745117 11.982758522033691 -1.7448996305465698 8.37598705291748 -2.715031623840332 4.121669292449951 C -1.891053557395935 0.405823290348053 1.0371496677398682 -2.5223798751831055 5.342578411102295 -3.787637233734131 C 9.83410930633545 -3.2469558715820312 12.88840389251709 -1.1312687397003174 9.76529598236084 0.7525126934051514"/>
    <path stroke-width="0" fill="rgb(132, 117, 52)" opacity="0.52844226" stroke="rgb(0, 0, 0)" stroke-opacity="0.0" stroke-linecap="round" stroke-linejoin="round" d="M 16.983766555786133 -1.2792680263519287 C 16.427263259887695 4.364277362823486 14.604645729064941 7.791357517242432 10.09740161895752 7.52012300491333 C 5.630195617675781 7.966498851776123 2.4508962631225586 5.922918319702148 2.832883834838867 2.0846240520477295 C 3.572500228881836 -3.764669418334961 6.5980753898620605 -6.49562931060791 10.873702049255371 -7.424142837524414 C 14.882150650024414 -6.34087610244751 17.669418334960938 -3.3440258502960205 16.983766555786133 -1.2792680263519287"/>
    <path stroke-width="0" fill="rgb(168, 150, 129)" opacity="0.8198849" stroke="rgb(0, 0, 0)" stroke-opacity="0.0" stroke-linecap="round" stroke-linejoin="round" d="M 277.7258605957031 2.84969425201416 C 276.55010986328125 6.575615406036377 273.77618408203125 9.34382438659668 271.886474609375 8.583915710449219 C 267.97418212890625 7.297184467315674 263.4306640625 6.5127034187316895 263.5446472167969 3.4580914974212646 C 263.4358825683594 -1.0136494636535645 266.210693359375 -3.829479694366455 271.0169982910156 -5.195315361022949 C 275.4421691894531 -4.6666436195373535 277.9258728027344 -1.5144710540771484 277.7258605957031 2.84969425201416"/>
    <path stroke-width="0" fill="rgb(79, 176, 166)" opacity="0.7470471" stroke="rgb(0, 0, 0)" stroke-opacity="0.0" stroke-linecap="round" stroke-linejoin="round" d="M 36.94247817993164 6.366332530975342 C 35.54085922241211 10.760538101196289 33.08005905151367 14.0421142578125 29.381946563720703 16.15924072265625 C 25.324573516845703 14.250738143920898 23.069982528686523 10.940427780151367 21.26888084411621 5.5977067947387695 C 21.185787200927734 2.4654908180236816 24.731548309326172 -0.012593804858624935 28.599411010742188 -0.4389985501766205 C 32.519439697265625 0.9325191378593445 35.53913497924805 4.1598052978515625 36.94247817993164 6.366332530975342"/>
    <path stroke-width="0" fill="rgb(234, 120, 28)" opacity="0.6223991" stroke="rgb(0, 0, 0)" stroke-opacity="0.0" stroke-linecap="round" stroke-linejoin="round" d="M 26.476764678955078 25.889333724975586 C 24.565780639648438 30.31757354736328 22.07970428466797 33.413299560546875 18.974252700805664 33.597293853759766 C 14.335055351257324 32.40839385986328 10.779438972473145 30.380294799804688 10.312015533447266 26.793132781982422 C 11.064512252807617 21.84218978881836 13.282060623168945 18.969619750976562 18.21234893798828 18.64336585998535 C 23.159528732299805 18.44444465637207 25.58859634399414 21.216699600219727 26.476764678955078 25.889333724975586"/>
    <path stroke-width="0" fill="rgb(95, 187, 42)" opacity="0.44686645" stroke="rgb(0, 0, 0)" stroke-opacity="0.0" stroke-linecap="round" stroke-linejoin="round" d="M 24.838314056396484 -1.43291437625885 C 23.695518493652344 2.5864293575286865 20.810075759887695 5.600428581237793 18.14426040649414 6.771833419799805 C 14.702717781066895 3.864899158477783 10.93027114868164 1.4325469732284546 8.83187484741211 -1.4618486166000366 C 10.030229568481445 -5.266642093658447 12.958433151245117 -8.194845199584961 16.958433151245117 -9.266642570495605 C 20.958433151245117 -8.194845199584961 23.88663673400879 -5.266642093658447 24.838314056396484 -1.43291437625885"/>
    <path stroke-width="0" fill="rgb(147, 185, 213)" opacity="0.24271819" stroke="rgb(0, 0, 0)" stroke-opacity="0.0" stroke-linecap="round" stroke-linejoin="round" d="M 60.371551513671875 16.56398582458496 C 59.296424865722656 20.21965217590332 56.54811096191406 23.351078033447266 52.403419494628906 24.433198928833008 C 48.91267776489258 23.639692306518555 46.11470031738281 20.655550003051758 44.47035217285156 16.07574462890625 C 44.17294692993164 10.947135925292969 47.57086181640625 8.83780574798584 52.36070251464844 8.57394027709961 C 56.86711502075195 9.972427368164062 59.779457092285156 12.733125686645508 60.371551513671875 16.56398582458496"/>
    <path stroke-width="0" fill="rgb(179, 44, 242)" opacity="0.8081711" stroke="rgb(0, 0, 0)" stroke-opacity="0.0" stroke-linecap="round" stroke-linejoin="round" d="M 347.1759948730469 371.00384521484375 C 346.2490234375 373.3953552246094 343.8048400878906 376.6890563964844 339.78485107421875 377.2960510253906 C 335.9358825683594 378.0458679199219 333.1243896484375 375.64300537109375 334.2373352050781 371.65728759765625 C 334.7624816894531 367.6062316894531 337.3654479980469 364.19354248046875 340.6717529296875 363.74322509765625 C 343.27813720703125 365.30548095703125 346.20318603515625 368.28411865234375 347.1759948730469 371.00384521484375"/>
    <path stroke-width="0" fill="rgb(205, 150, 72)" opacity="0.8160596" stroke="rgb(0, 0, 0)" stroke-opacity="0.0" stroke-linecap="round" stroke-linejoin="round" d="M 336.2720947265625 137.3504180908203 C 335.37005615234375 140.00108337402344 332.69842529296875 143.13526916503906 329.3778991699219 144.0490264892578 C 325.4543151855469 143.2899627685547 322.6188049316406 140.9730987548828 322.20135498046875 136.76608276367188 C 322.6401672363281 132.98541259765625 325.6337890625 130.28150939941406 329.7382507324219 129.62359619140625 C 332.5531005859375 130.8078155517578 335.49658203125 133.7323455810547 336.2720947265625 137.3504180908203"/>
    <path stroke-width="0" fill="rgb(34, 117, 193)" opacity="0.3943672" stroke="rgb(0, 0, 0)" stroke-opacity="0.0" stroke-linecap="round" stroke-linejoin="round" d="M 138.50677490234375 172.435302734375 C 137.95191955566406 177.2720184326172 135.31178283691406 180.56690979003906 130.869873046875 180.65292358398438 C 126.56222534179688 179.6708984375 123.40528869628906 176.90675354003906 123.0162353515625 173.1613311767578 C 123.56624603271484 168.35968017578125 126.21430969238281 165.49411010742188 130.3810577392578 165.3963165283203 C 134.99456787109375 165.78517150878906 138.03211975097656 168.34378051757812 138.50677490234375 172.435302734375"/>
    <path stroke-width="0" fill="rgb(45, 175, 79)" opacity="0.7795199" stroke="rgb(0, 0, 0)" stroke-opacity="0.0" stroke-linecap="round" stroke-linejoin="round" d="M 106.78254699707031 422.5945739746094 C 105.35124969482422 426.7384338378906 102.7692642211914 429.8001708984375 99.86711883544922 430.6454772949219 C 96.45301055908203 429.35699462890625 93.57254791259766 426.2666931152344 91.9600830078125 422.6052551269531 C 92.6159896850586 419.5053405761719 95.2998046875 416.3998718261719 98.37152099609375 416.44189453125 C 102.6471176147461 417.5790100097656 106.1369857788086 419.7209777832031 106.78254699707031 422.5945739746094"/>
    <path stroke-width="0" fill="rgb(15, 10, 240)" opacity="0.15843345" stroke="rgb(0, 0, 0)" stroke-opacity="0.0" stroke-linecap="round" stroke-linejoin="round" d="M 2.961505651473999 3.8233747482299805 C 1.7946374416351318 7.400296211242676 -1.2860926389694214 10.224135398864746 -5.125905990600586 11.531201362609863 C -8.19690990447998 11.365138053894043 -11.125113487243652 8.436935424804688 -12.19690990447998 4.4369354248046875 C -11.125113487243652 0.4369351863861084 -8.19690990447998 -2.4912679195404053 -4.3072028160095215 -3.470287799835205 C -0.36597761511802673 -2.3245770931243896 2.5851399898529053 0.5923805832862854 2.961505651473999 3.8233747482299805"/>
    <path stroke-width="0" fill="rgb(16, 145, 244)" opacity="0.6193155" stroke="rgb(0, 0, 0)" stroke-opacity="0.0" stroke-linecap="round" stroke-linejoin="round" d="M 42.89661407470703 6.828384876251221 C 42.4268913269043 10.736350059509277 39.503963470458984 13.65499496459961 34.971004486083984 14.998713493347168 C 30.311521530151367 13.987378120422363 27.144420623779297 11.27029037475586 27.42745590209961 7.341345310211182 C 29.104707717895508 3.1594715118408203 31.848121643066406 0.08220046013593674 35.07291793823242 -1.0009949207305908 C 38.60064697265625 -0.04105249047279358 41.42925262451172 2.9965927600860596 42.89661407470703 6.828384876251221"/>
    <path stroke-width="0" fill="rgb(31, 222, 204)" opacity="0.022077246" stroke="rgb(0, 0, 0)" stroke-opacity="0.0" stroke-linecap="round" stroke-linejoin="round" d="M 400.8479919433594 248.62631225585938 C 399.8243713378906 252.20907592773438 396.734130859375 255.09616088867188 393.0647888183594 256.7286071777344 C 389.23388671875 255.19871520996094 386.2523193359375 252.21981811523438 385.0342102050781 248.54798889160156 C 386.550048828125 244.867431640625 389.2681579589844 241.53265380859375 392.9262390136719 240.08241271972656 C 396.7981872558594 241.48846435546875 399.52032470703125 244.80145263671875 400.8479919433594 248.62631225585938"/>
    <path stroke-width="0" fill="rgb(44, 227, 131)" opacity="0.25813976" stroke="rgb(0, 0, 0)" stroke-opacity="0.0" stroke-linecap="round" stroke-linejoin="round" d="M 103.75035095214844 442.4817199707031 C 103.67916870117188 446.18585205078125 100.91130065917969 448.8612365722656 96.27692413330078 449.28253173828125 C 91.8179702758789 449.22393798828125 88.9813232421875 446.7036437988281 88.94109344482422 442.6601257324219 C 90.61624908447266 438.8440856933594 93.25678253173828 435.4938659667969 97.21061706542969 434.7134094238281 C 101.52951049804688 434.4374084472656 103.52359771728516 437.25177001953125 103.75035095214844 442.4817199707031"/>
    <path stroke-width="0" fill="rgb(157, 110, 152)" opacity="0.7325483" stroke="rgb(0, 0, 0)" stroke-opacity="0.0" stroke-linecap="round" stroke-linejoin="round" d="M 304.5799865722656 458.56024169921875 C 303.84228515625 463.3175354003906 301.3390197753906 466.222900390625 296.993896484375 466.2500915527344 C 291.82537841796875 466.43133544921875 289.0345153808594 464.16619873046875 289.9953918457031 460.0603332519531 C 290.6568298339844 455.62152099609375 293.4750061035156 452.7639465332031 297.2933349609375 451.6375732421875 C 301.01953125 452.2069396972656 304.3346862792969 454.85211181640625 304.5799865722656 458.56024169921875"/>
    <path stroke-width="0" fill="rgb(196, 182, 172)" opacity="0.5015656" stroke="rgb(0, 0, 0)" stroke-opacity="0.0" stroke-linecap="round" stroke-linejoin="round" d="M 145.011962890625 456.62158203125 C 144.82095336914062 460.74945068359375 142.5168914794922 463.913818359375 138.265869140625 464.44635009765625 C 134.01744079589844 464.07415771484375 131.66232299804688 460.7742004394531 130.9183807373047 456.97906494140625 C 131.2277069091797 452.2530212402344 133.52523803710938 449.24609375 137.74407958984375 449.3619079589844 C 142.35069274902344 449.75811767578125 144.63490295410156 452.96728515625 145.011962890625 456.62158203125"/>
    <path stroke-width="0" fill="rgb(219, 10, 210)" opacity="0.4281328" stroke="rgb(0, 0, 0)" stroke-opacity="0.0" stroke-linecap="round" stroke-linejoin="round" d="M 207.52635192871094 40.407066345214844 C 206.57398986816406 43.826114654541016 204.1028594970703 47.11029815673828 199.7288055419922 47.697452545166016 C 196.01976013183594 47.847896575927734 193.42242431640625 45.21828079223633 193.6839141845703 41.78849792480469 C 194.72900390625 37.66122817993164 197.6350860595703 34.814632415771484 200.31192016601562 33.96908950805664 C 203.49916076660156 35.05070114135742 206.61752319335938 37.51801300048828 207.52635192871094 40.407066345214844"/>
    <path stroke-width="0" fill="rgb(167, 100, 195)" opacity="0.38950157" stroke="rgb(0, 0, 0)" stroke-opacity="0.0" stroke-linecap="round" stroke-linejoin="round" d="M 326.8190002441406 261.6127624511719 C 325.1239929199219 265.7758483886719 321.7788391113281 268.4453430175781 318.78314208984375 269.4247741699219 C 315.69970703125 268.9261779785156 312.83624267578125 265.9773254394531 311.968505859375 263.03411865234375 C 313.2278747558594 259.8787841796875 315.8554992675781 256.34765625 318.0322570800781 255.83360290527344 C 322.4378967285156 256.68377685546875 326.474853515625 258.64154052734375 326.8190002441406 261.6127624511719"/>
    <path stroke-width="0" fill="rgb(30, 113, 120)" opacity="0.4967908" stroke="rgb(0, 0, 0)" stroke-opacity="0.0" stroke-linecap="round" stroke-linejoin="round" d="M 327.9981994628906 428.3808288574219 C 327.4725646972656 431.77203369140625 324.3189392089844 434.6075134277344 320.36883544921875 436.95782470703125 C 316.9729919433594 434.576416015625 313.5734558105469 432.11712646484375 312.8028259277344 427.7917785644531 C 313.5145263671875 424.14208984375 317.08160400390625 421.59429931640625 320.73712158203125 420.6679992675781 C 324.1885681152344 421.5970764160156 326.9060974121094 424.63201904296875 327.9981994628906 428.3808288574219"/>
    <path stroke-width="0" fill="rgb(70, 108, 141)" opacity="0.30993795" stroke="rgb(0, 0, 0)" stroke-opacity="0.0" stroke-linecap="round" stroke-linejoin="round" d="M 101.3110122680664 116.38329315185547 C 100.33137512207031 120.33506774902344 97.41683197021484 123.39974212646484 93.60095977783203 124.28917694091797 C 89.09390258789062 124.42897033691406 86.18707275390625 122.09380340576172 86.85502624511719 117.721435546875 C 87.19831848144531 112.96784973144531 89.98921203613281 110.21571350097656 93.47499084472656 109.78473663330078 C 97.8128433227539 110.43698120117188 100.81608581542969 113.10009002685547 101.3110122680664 116.38329315185547"/>
    <path stroke-width="0" fill="rgb(88, 252, 168)" opacity="0.40967682" stroke="rgb(0, 0, 0)" stroke-opacity="0.0" stroke-linecap="round" stroke-linejoin="round" d="M -82.12271881103516 56.371463775634766 C -83.19451904296875 60.371463775634766 -86.12271881103516 63.29966735839844 -90.12271881103516 64.37146759033203 C -94.12271881103516 63.29966735839844 -97.0509262084961 60.371463775634766 -98.12271881103516 56.371463775634766 C -97.0509262084961 52.371463775634766 -94.12271881103516 49.44326400756836 -90.12271881103516 48.371463775634766 C -86.12271881103516 49.44326400756836 -83.19451904296875 52.371463775634766 -82.12271881103516 56.371463775634766"/>
    <path stroke-width="0" fill="rgb(149, 159, 161)" opacity="0.5084074" stroke="rgb(0, 0, 0)" stroke-opacity="0.0" stroke-linecap="round" stroke-linejoin="round" d="M 148.52572631835938 22.52227020263672 C 145.9069366455078 25.20562171936035 142.80532836914062 28.25118064880371 139.19862365722656 29.265853881835938 C 135.03521728515625 29.308046340942383 132.57870483398438 26.44864845275879 132.30686950683594 22.022720336914062 C 132.31280517578125 17.661800384521484 135.40467834472656 15.217728614807129 140.28147888183594 14.42520523071289 C 144.32640075683594 13.923833847045898 146.31320190429688 17.72820281982422 148.52572631835938 22.52227020263672"/>
    <path stroke-width="0" fill="rgb(101, 50, 86)" opacity="0.064480044" stroke="rgb(0, 0, 0)" stroke-opacity="0.0" stroke-linecap="round" stroke-linejoin="round" d="M 28.629297256469727 -0.04606527462601662 C 27.419889450073242 3.931227922439575 24.75232696533203 7.301647663116455 21.191038131713867 8.74427604675293 C 16.734468460083008 7.641452789306641 13.565784454345703 4.8980817794799805 11.987519264221191 1.2141410112380981 C 14.051810264587402 -3.5890145301818848 17.070209503173828 -6.47947883605957 21.074430465698242 -7.549599647521973 C 25.06509017944336 -6.47487211227417 27.83464813232422 -3.469348192214966 28.629297256469727 -0.04606527462601662"/>
    <path stroke-width="0" fill="rgb(57, 69, 56)" opacity="0.34765318" stroke="rgb(0, 0, 0)" stroke-opacity="0.0" stroke-linecap="round" stroke-linejoin="round" d="M 207.94046020507812 47.45744323730469 C 207.17930603027344 51.884281158447266 203.6699981689453 54.23167037963867 198.855224609375 55.20355224609375 C 196.34255981445312 54.91670227050781 194.04238891601562 51.03651428222656 192.13265991210938 46.87995529174805 C 192.0601043701172 42.320804595947266 194.51507568359375 39.50864791870117 198.75567626953125 40.71119689941406 C 205.2053680419922 40.401702880859375 208.0138702392578 42.609466552734375 207.94046020507812 47.45744323730469"/>
    <path stroke-width="0" fill="rgb(37, 149, 51)" opacity="0.026583014" stroke="rgb(0, 0, 0)" stroke-opacity="0.0" stroke-linecap="round" stroke-linejoin="round" d="M 381.9349060058594 175.3358154296875 C 380.96209716796875 179.20263671875 378.349365234375 182.2377471923828 374.46551513671875 183.3417205810547 C 370.65142822265625 182.25682067871094 367.71783447265625 179.3100128173828 366.5803527832031 175.6739501953125 C 368.0303955078125 172.00643920898438 371.1988830566406 169.26095581054688 374.6771545410156 167.95867919921875 C 378.32177734375 168.75306701660156 381.25848388671875 171.62722778320312 381.9349060058594 175.3358154296875"/>
    <path stroke-width="0" fill="rgb(157, 10, 198)" opacity="0.30219242" stroke="rgb(0, 0, 0)" stroke-opacity="0.0" stroke-linecap="round" stroke-linejoin="round" d="M 223.32199096679688 355.28411865234375 C 222.47332763671875 359.6772155761719 219.59402465820312 362.285888671875 215.46859741210938 362.15399169921875 C 211.6986541748047 361.3104553222656 208.5769805908203 358.4933166503906 207.324951171875 354.607177734375 C 207.62307739257812 350.8665771484375 211.43955993652344 348.91107177734375 214.45669555664062 347.73321533203125 C 218.45079040527344 348.6793212890625 221.62684631347656 351.5413513183594 223.32199096679688 355.28411865234375"/>
    <path stroke-width="0" fill="rgb(10, 198, 56)" opacity="0.6286564" stroke="rgb(0, 0, 0)" stroke-opacity="0.0" stroke-linecap="round" stroke-linejoin="round" d="M 23.630735397338867 200.467041015625 C 22.82637596130371 205.68630981445312 20.9198055267334 208.33181762695312 17.650110244750977 208.6521453857422 C 13.720104217529297 207.45123291015625 10.728548049926758 204.66131591796875 9.924351692199707 201.3970947265625 C 10.848291397094727 198.62705993652344 13.753408432006836 195.87644958496094 17.679187774658203 195.56211853027344 C 21.08302116394043 194.81729125976562 24.2139949798584 196.9663543701172 23.630735397338867 200.467041015625"/>
    <path stroke-width="0" fill="rgb(150, 217, 84)" opacity="0.7985599" stroke="rgb(0, 0, 0)" stroke-opacity="0.0" stroke-linecap="round" stroke-linejoin="round" d="M 76.71128845214844 476.762939453125 C 76.44297790527344 480.29010009765625 72.79753875732422 482.1163635253906 68.62232208251953 484.6814880371094 C 65.43047332763672 483.0466003417969 62.25401306152344 480.2884216308594 61.9265251159668 476.6514587402344 C 63.24421691894531 473.1605224609375 65.9320068359375 469.7157287597656 68.53759765625 469.0389099121094 C 73.06682586669922 469.76446533203125 75.69596099853516 472.53851318359375 76.71128845214844 476.762939453125"/>
    <path stroke-width="0" fill="rgb(85, 91, 245)" opacity="0.91359055" stroke="rgb(0, 0, 0)" stroke-opacity="0.0" stroke-linecap="round" stroke-linejoin="round" d="M 102.64253997802734 22.07955551147461 C 102.9367904663086 26.306673049926758 100.4641342163086 29.105854034423828 97.10411834716797 28.409183502197266 C 92.68268585205078 27.516754150390625 89.54242706298828 24.80582618713379 88.57996368408203 21.035160064697266 C 88.34687042236328 16.910764694213867 91.2779312133789 14.385470390319824 95.58827209472656 14.397854804992676 C 99.61856079101562 14.915858268737793 102.25186920166016 17.856739044189453 102.64253997802734 22.07955551147461"/>
    <path stroke-width="0" fill="rgb(242, 220, 226)" opacity="0.5431398" stroke="rgb(0, 0, 0)" stroke-opacity="0.0" stroke-linecap="round" stroke-linejoin="round" d="M 435.87310791015625 174.79774475097656 C 435.69696044921875 180.24624633789062 433.45428466796875 182.8121337890625 428.45477294921875 183.38644409179688 C 423.8387145996094 183.29537963867188 422.1501770019531 179.86740112304688 421.4122009277344 174.77505493164062 C 422.0052490234375 171.9519805908203 425.4521484375 168.9165802001953 428.18402099609375 168.47625732421875 C 432.2611999511719 169.27847290039062 436.26507568359375 171.17251586914062 435.87310791015625 174.79774475097656"/>
    <path stroke-width="0" fill="rgb(166, 180, 48)" opacity="0.5103539" stroke="rgb(0, 0, 0)" stroke-opacity="0.0" stroke-linecap="round" stroke-linejoin="round" d="M 108.32633209228516 270.1824951171875 C 107.74616241455078 274.0061340332031 104.87567138671875 276.9010925292969 101.28556060791016 277.69970703125 C 96.91691589355469 277.30145263671875 94.09100341796875 274.50970458984375 93.60920715332031 270.0321350097656 C 94.3160171508789 266.4862060546875 97.38231658935547 263.5876770019531 101.00730895996094 263.1158142089844 C 104.99312591552734 263.56109619140625 107.7087173461914 266.42822265625 108.32633209228516 270.1824951171875"/>
    <path stroke-width="0" fill="rgb(75, 131, 56)" opacity="0.8775108" stroke="rgb(0, 0, 0)" stroke-opacity="0.0" stroke-linecap="round" stroke-linejoin="round" d="M 114.07965850830078 283.0841064453125 C 113.36203002929688 286.63800048828125 109.93412017822266 289.2756042480469 106.31841278076172 290.34527587890625 C 103.21256256103516 289.582275390625 100.13720703125 286.5080871582031 98.69154357910156 283.32232666015625 C 99.87267303466797 278.7474060058594 102.01692962646484 275.2805480957031 106.51425170898438 274.2939453125 C 111.06700134277344 275.5909423828125 113.55596160888672 278.8385009765625 114.07965850830078 283.0841064453125"/>
    <path stroke-width="0" fill="rgb(153, 72, 234)" opacity="0.35806245" stroke="rgb(0, 0, 0)" stroke-opacity="0.0" stroke-linecap="round" stroke-linejoin="round" d="M 319.5703430175781 62.33538055419922 C 318.84014892578125 66.0067367553711 315.94940185546875 68.73191833496094 311.7790832519531 69.57861328125 C 308.12481689453125 69.42882537841797 305.5157165527344 66.87481689453125 305.8471374511719 62.66932678222656 C 305.7608947753906 58.537269592285156 308.7286682128906 56.006126403808594 312.51312255859375 55.93063735961914 C 316.1529846191406 56.04957962036133 318.9466552734375 58.792694091796875 319.5703430175781 62.33538055419922"/>
    <path stroke-width="0" fill="rgb(201, 59, 231)" opacity="0.03489577" stroke="rgb(0, 0, 0)" stroke-opacity="0.0" stroke-linecap="round" stroke-linejoin="round" d="M 118.25700378417969 440.3912048339844 C 116.85082244873047 444.3831787109375 113.77338409423828 447.24053955078125 110.00191497802734 448.2130126953125 C 106.8432388305664 447.49005126953125 103.45252990722656 444.9139099121094 101.69010925292969 441.182861328125 C 103.36486053466797 436.7561950683594 106.12916564941406 433.79345703125 110.95130157470703 432.936767578125 C 115.17640686035156 433.47418212890625 118.0002212524414 436.4233703613281 118.25700378417969 440.3912048339844"/>
    <path stroke-width="0" fill="rgb(113, 23, 53)" opacity="0.9697452" stroke="rgb(0, 0, 0)" stroke-opacity="0.0" stroke-linecap="round" stroke-linejoin="round" d="M 133.1717529296875 66.00093078613281 C 133.66339111328125 70.03915405273438 130.47494506835938 72.3298568725586 126.02556610107422 73.74101257324219 C 121.95655822753906 72.89009094238281 119.62036895751953 69.93721771240234 118.75436401367188 65.14776611328125 C 119.49576568603516 61.39057540893555 122.18123626708984 58.36642074584961 125.91914367675781 58.860965728759766 C 130.4827423095703 58.8647346496582 133.2787628173828 61.48648452758789 133.1717529296875 66.00093078613281"/>
  </g>
</svg>
