<?xml version="1.0" ?>
<svg xmlns="http://www.w3.org/2000/svg" version="1.1" width="512" height="512">
  <defs/>
  <g>
    <path stroke-width="0" fill="rgb(97, 129, 142)" opacity="1.0400519" stroke="rgb(139, 182, 153)" stroke-opacity="1.0" stroke-linecap="round" stroke-linejoin="round" d="M 222.1505584716797 2.012561082839966 C 160.43844604492188 3.050504684448242 192.70986938476562 49.665199279785156 67.50977325439453 130.24929809570312 C 58.177677154541016 122.41925048828125 55.671974182128906 110.8375244140625 54.89445495605469 87.13288879394531 C 56.830745697021484 -69.35035705566406 68.21659088134766 -69.85722351074219 85.42729187011719 -59.840736389160156 C 196.8780517578125 -32.08477783203125 204.86761474609375 -25.49241828918457 222.1505584716797 2.012561082839966"/>
    <path stroke-width="0" fill="rgb(84, 122, 129)" opacity="1.0029354" stroke="rgb(108, 164, 111)" stroke-opacity="1.0" stroke-linecap="round" stroke-linejoin="round" d="M 141.88262939453125 85.39005279541016 C 155.2294464111328 158.317138671875 160.42916870117188 170.84988403320312 98.68473052978516 172.3730926513672 C -60.77919006347656 166.43023681640625 -47.74129867553711 136.50534057617188 -41.06509780883789 85.29373168945312 C -38.50617218017578 -35.472816467285156 -31.483736038208008 -40.57529067993164 49.46113204956055 -37.71073913574219 C 114.68009948730469 -40.4863395690918 132.25177001953125 -46.86713790893555 141.88262939453125 85.39005279541016"/>
    <path stroke-width="0" fill="rgb(76, 127, 139)" opacity="1.0356574" stroke="rgb(245, 97, 201)" stroke-opacity="1.0" stroke-linecap="round" stroke-linejoin="round" d="M 492.1076965332031 531.4855346679688 C 350.8706970214844 582.8856811523438 327.6231384277344 574.8817749023438 -39.52774429321289 555.3480224609375 C -75.76151275634766 413.1372375488281 -51.65288543701172 351.97052001953125 -48.72849655151367 135.78109741210938 C -55.76652908325195 98.49280548095703 -58.68968200683594 87.52783203125 145.86717224121094 87.58988189697266 C 262.5956115722656 79.6710433959961 393.9761047363281 32.36929702758789 492.1076965332031 531.4855346679688"/>
    <path stroke-width="0" fill="rgb(65, 129, 145)" opacity="1.0133998" stroke="rgb(144, 236, 18)" stroke-opacity="1.0" stroke-linecap="round" stroke-linejoin="round" d="M 553.009765625 549.259765625 C 343.70538330078125 509.2662658691406 284.5163879394531 423.41748046875 159.29550170898438 320.3352355957031 C 75.74468994140625 172.0694122314453 58.278995513916016 159.7307586669922 51.19010925292969 135.65843200683594 C 176.63829040527344 20.58419418334961 126.95329284667969 -32.79452133178711 448.0758972167969 -55.680015563964844 C 555.062744140625 -124.77310180664062 573.008544921875 -219.4150390625 553.009765625 549.259765625"/>
    <path stroke-width="0" fill="rgb(264, 240, 199)" opacity="1.0385516" stroke="rgb(5, 212, 198)" stroke-opacity="1.0" stroke-linecap="round" stroke-linejoin="round" d="M 374.62359619140625 366.4943542480469 C 339.7890930175781 302.949462890625 382.0166931152344 431.392333984375 340.60150146484375 393.1438293457031 C 335.0696105957031 284.8909606933594 242.54481506347656 478.0362243652344 285.5829162597656 311.56219482421875 C 240.2651824951172 245.59495544433594 287.6231994628906 227.95643615722656 279.9627990722656 307.0338439941406 C 375.1475524902344 220.07984924316406 341.3911437988281 339.6282043457031 374.62359619140625 366.4943542480469"/>
    <path stroke-width="0" fill="rgb(244, 251, 262)" opacity="1.0529671" stroke="rgb(249, 203, 117)" stroke-opacity="1.0" stroke-linecap="round" stroke-linejoin="round" d="M 257.34619140625 343.6420593261719 C 243.10240173339844 354.00543212890625 290.1319274902344 357.8117370605469 232.9046173095703 350.4130554199219 C 214.29429626464844 348.7755432128906 194.62879943847656 323.36846923828125 203.3636932373047 342.5345458984375 C 185.2866668701172 298.9957275390625 174.86807250976562 298.7268981933594 187.80551147460938 297.301513671875 C 263.6976623535156 316.2228698730469 252.0324249267578 282.726806640625 257.34619140625 343.6420593261719"/>
    <path stroke-width="0" fill="rgb(274, 228, 100)" opacity="1.0729314" stroke="rgb(30, 163, 36)" stroke-opacity="1.0" stroke-linecap="round" stroke-linejoin="round" d="M 387.9147644042969 332.2184753417969 C 391.5320129394531 386.4154968261719 384.4528503417969 375.3576354980469 344.01947021484375 352.4299621582031 C 379.8494567871094 336.7221984863281 326.490478515625 327.7036437988281 284.3382263183594 305.9216613769531 C 222.65135192871094 281.54412841796875 294.6299133300781 217.1721954345703 349.32550048828125 285.1618957519531 C 338.6169128417969 297.4495544433594 365.9178161621094 264.537109375 387.9147644042969 332.2184753417969"/>
    <path stroke-width="0" fill="rgb(264, 155, 29)" opacity="1.0013212" stroke="rgb(133, 105, 67)" stroke-opacity="1.0" stroke-linecap="round" stroke-linejoin="round" d="M 307.25860595703125 93.74119567871094 C 319.67510986328125 239.1428985595703 144.31951904296875 249.92515563964844 232.3720245361328 73.64311981201172 C 177.2664031982422 166.8726806640625 153.99267578125 244.9390411376953 187.29788208007812 121.56322479248047 C 225.16612243652344 51.493370056152344 212.39671325683594 62.2858772277832 232.26568603515625 63.243431091308594 C 245.45333862304688 102.57261657714844 227.0825653076172 125.81499481201172 307.25860595703125 93.74119567871094"/>
    <path stroke-width="0" fill="rgb(276, 195, 113)" opacity="1.004534" stroke="rgb(116, 144, 4)" stroke-opacity="1.0" stroke-linecap="round" stroke-linejoin="round" d="M 303.3830871582031 320.16180419921875 C 315.4387512207031 324.87286376953125 389.6232604980469 337.67431640625 197.07196044921875 301.4949951171875 C 198.34425354003906 287.4026794433594 159.44349670410156 404.4794921875 156.54954528808594 246.743896484375 C 231.5013427734375 -37.448448181152344 147.32481384277344 233.11936950683594 257.98822021484375 241.79833984375 C 289.368896484375 251.3436279296875 259.431640625 143.15550231933594 303.3830871582031 320.16180419921875"/>
    <path stroke-width="0" fill="rgb(250, 257, 264)" opacity="1.0037254" stroke="rgb(156, 157, 240)" stroke-opacity="1.0" stroke-linecap="round" stroke-linejoin="round" d="M 230.5950927734375 209.98739624023438 C 301.1891174316406 276.7469177246094 172.67129516601562 246.29505920410156 197.6340789794922 192.9164581298828 C 303.1556091308594 313.7939758300781 167.54244995117188 122.53500366210938 241.50015258789062 232.03579711914062 C 183.35289001464844 186.93812561035156 144.70774841308594 114.57910919189453 277.9118347167969 191.27267456054688 C 314.8309020996094 269.9010925292969 178.51385498046875 160.6714630126953 230.5950927734375 209.98739624023438"/>
    <path stroke-width="0" fill="rgb(298, 196, 84)" opacity="0.9759196" stroke="rgb(91, 111, 177)" stroke-opacity="1.0" stroke-linecap="round" stroke-linejoin="round" d="M 171.04844665527344 279.190185546875 C 139.80191040039062 263.1311340332031 231.50375366210938 277.059814453125 180.0175323486328 405.50152587890625 C 100.23153686523438 420.9662170410156 190.15647888183594 427.3235778808594 160.56394958496094 299.212158203125 C 155.5275421142578 159.04185485839844 176.19761657714844 279.63433837890625 184.67967224121094 127.32193756103516 C 370.8184814453125 37.402034759521484 98.76438903808594 209.5768585205078 171.04844665527344 279.190185546875"/>
    <path stroke-width="0" fill="rgb(273, 243, 143)" opacity="1.0310766" stroke="rgb(170, 171, 53)" stroke-opacity="1.0" stroke-linecap="round" stroke-linejoin="round" d="M 283.6244812011719 326.07269287109375 C 258.4852600097656 406.11065673828125 277.2044982910156 425.2876281738281 268.6868591308594 413.9414978027344 C 230.52549743652344 411.6554870605469 244.7593536376953 448.7137451171875 247.6962432861328 344.88592529296875 C 242.13998413085938 328.4880676269531 219.51223754882812 315.39398193359375 266.0469970703125 275.4508972167969 C 282.454833984375 213.0560760498047 289.6956787109375 237.7605438232422 283.6244812011719 326.07269287109375"/>
    <path stroke-width="0" fill="rgb(262, 246, 189)" opacity="0.78589857" stroke="rgb(80, 92, 145)" stroke-opacity="1.0" stroke-linecap="round" stroke-linejoin="round" d="M 155.5504608154297 396.7139892578125 C 178.52847290039062 382.53082275390625 144.342041015625 384.83172607421875 147.61648559570312 404.1219787597656 C 199.53627014160156 403.97442626953125 168.6242218017578 417.33404541015625 182.27825927734375 390.67669677734375 C 131.8897247314453 407.8548583984375 144.44500732421875 375.3017883300781 189.97276306152344 393.8233947753906 C 136.8143310546875 372.8342590332031 177.4672088623047 406.9259948730469 155.5504608154297 396.7139892578125"/>
    <path stroke-width="0" fill="rgb(271, 160, 69)" opacity="0.82636654" stroke="rgb(166, 64, 118)" stroke-opacity="1.0" stroke-linecap="round" stroke-linejoin="round" d="M 194.9198455810547 330.28399658203125 C 211.32998657226562 338.4846496582031 193.88027954101562 345.2870788574219 197.75930786132812 320.4800109863281 C 194.7901153564453 364.49200439453125 217.2062225341797 309.6855773925781 198.3535614013672 349.4720764160156 C 205.84361267089844 351.67132568359375 203.00552368164062 340.0400695800781 187.68051147460938 367.5586242675781 C 188.479736328125 350.1055908203125 188.31138610839844 366.6484680175781 194.9198455810547 330.28399658203125"/>
    <path stroke-width="0" fill="rgb(292, 272, 229)" opacity="0.94657564" stroke="rgb(50, 94, 209)" stroke-opacity="1.0" stroke-linecap="round" stroke-linejoin="round" d="M 179.9690399169922 384.84613037109375 C 176.96914672851562 414.4381103515625 168.05934143066406 410.554443359375 213.6593780517578 399.61212158203125 C 147.7128448486328 414.5718078613281 175.0452880859375 414.5624084472656 146.7679443359375 412.3466796875 C 146.1217803955078 375.983642578125 158.56105041503906 403.0778503417969 161.91656494140625 389.35528564453125 C 119.9553451538086 374.2785339355469 182.5570831298828 398.4683837890625 179.9690399169922 384.84613037109375"/>
    <path stroke-width="0" fill="rgb(60, 129, 141)" opacity="0.9958504" stroke="rgb(72, 30, 75)" stroke-opacity="1.0" stroke-linecap="round" stroke-linejoin="round" d="M 442.3558349609375 623.2626953125 C -27.413150787353516 437.5520935058594 498.6842346191406 364.60894775390625 520.2764892578125 338.3389892578125 C 262.9768981933594 423.918212890625 493.0272521972656 362.8738708496094 315.8863220214844 255.47938537597656 C 245.01910400390625 259.296142578125 309.05078125 229.70726013183594 293.4315490722656 118.8916244506836 C 344.6698303222656 58.913639068603516 697.44921875 -16.72580909729004 442.3558349609375 623.2626953125"/>
    <path stroke-width="0" fill="rgb(219, 140, 5)" opacity="0.5143124" stroke="rgb(146, 236, 81)" stroke-opacity="1.0" stroke-linecap="round" stroke-linejoin="round" d="M 193.13510131835938 84.4560775756836 C 198.62823486328125 115.20279693603516 202.53677368164062 113.85836029052734 194.91763305664062 115.40872192382812 C 189.96707153320312 122.74630737304688 196.43191528320312 117.45199584960938 203.16282653808594 115.21784210205078 C 200.78997802734375 101.76728057861328 199.9452667236328 101.86250305175781 198.35079956054688 105.84385681152344 C 195.2916717529297 99.45722198486328 200.6379852294922 118.26949310302734 193.13510131835938 84.4560775756836"/>
    <path stroke-width="0" fill="rgb(83, 49, 69)" opacity="0.80979997" stroke="rgb(33, 182, 73)" stroke-opacity="1.0" stroke-linecap="round" stroke-linejoin="round" d="M 292.4978942871094 129.49034118652344 C 303.22064208984375 178.6407012939453 291.1541748046875 130.056884765625 296.346435546875 131.19412231445312 C 294.8847351074219 131.78433227539062 294.9275817871094 139.48550415039062 296.1159362792969 121.6833724975586 C 287.3014221191406 175.0153045654297 301.6039123535156 141.1444091796875 296.2314147949219 167.03173828125 C 296.6786804199219 108.15259552001953 289.5447692871094 177.5535888671875 292.4978942871094 129.49034118652344"/>
    <path stroke-width="0" fill="rgb(278, 126, 9)" opacity="1.13431" stroke="rgb(149, 5, 211)" stroke-opacity="1.0" stroke-linecap="round" stroke-linejoin="round" d="M 271.94049072265625 195.6676483154297 C 280.0777282714844 199.2918701171875 267.96282958984375 192.864013671875 265.5007629394531 187.6144256591797 C 292.2542419433594 182.67039489746094 251.69357299804688 193.0346221923828 243.62338256835938 183.94483947753906 C 187.3596649169922 142.8146209716797 308.3256530761719 180.9779510498047 289.1726379394531 169.9169464111328 C 288.6756286621094 205.83705139160156 328.5035095214844 206.64013671875 271.94049072265625 195.6676483154297"/>
    <path stroke-width="0" fill="rgb(49, 66, 95)" opacity="0.30133408" stroke="rgb(172, 68, 187)" stroke-opacity="1.0" stroke-linecap="round" stroke-linejoin="round" d="M 302.66082763671875 103.42027282714844 C 294.27520751953125 106.2462158203125 332.87677001953125 78.14789581298828 288.89599609375 128.65994262695312 C 328.5284729003906 94.99071502685547 322.97491455078125 84.59190368652344 276.57794189453125 105.79696655273438 C 264.38116455078125 108.88726806640625 350.0182189941406 72.07271575927734 281.49285888671875 118.44161987304688 C 286.24688720703125 131.19642639160156 273.601806640625 122.47891235351562 302.66082763671875 103.42027282714844"/>
    <path stroke-width="0" fill="rgb(55, -6, 40)" opacity="0.46232325" stroke="rgb(63, 146, 150)" stroke-opacity="1.0" stroke-linecap="round" stroke-linejoin="round" d="M 292.4514465332031 98.51920318603516 C 284.88922119140625 99.57782745361328 307.9494323730469 92.83750915527344 298.8965148925781 96.08800506591797 C 319.6065368652344 90.8041763305664 303.4772033691406 97.53923797607422 304.2836608886719 91.84178924560547 C 298.9838562011719 108.88693237304688 322.8858642578125 95.28204345703125 291.362060546875 97.84107208251953 C 277.7778015136719 108.3929672241211 238.89207458496094 113.31060791015625 292.4514465332031 98.51920318603516"/>
    <path stroke-width="0" fill="rgb(-22, -27, -46)" opacity="1.0502948" stroke="rgb(56, 242, 114)" stroke-opacity="1.0" stroke-linecap="round" stroke-linejoin="round" d="M 177.8490447998047 152.7390594482422 C 182.22116088867188 133.90985107421875 183.92210388183594 132.17955017089844 179.7707061767578 139.78643798828125 C 208.45062255859375 86.70513153076172 184.85389709472656 115.06534576416016 179.717529296875 153.39935302734375 C 172.3772430419922 161.87339782714844 171.49034118652344 177.56060791015625 174.2120819091797 166.5207061767578 C 169.597412109375 180.45977783203125 178.07151794433594 179.70046997070312 177.8490447998047 152.7390594482422"/>
    <path stroke-width="0" fill="rgb(38, -10, -25)" opacity="0.90369177" stroke="rgb(178, 75, 207)" stroke-opacity="1.0" stroke-linecap="round" stroke-linejoin="round" d="M 218.56187438964844 88.7300796508789 C 232.8380126953125 80.13887023925781 230.3772735595703 85.67723083496094 227.44921875 106.71246337890625 C 181.82931518554688 157.21560668945312 217.68008422851562 113.58799743652344 221.20213317871094 93.88220977783203 C 210.43685913085938 129.21945190429688 212.30760192871094 99.27352142333984 212.9546356201172 98.85670471191406 C 226.8885040283203 88.17697143554688 202.06056213378906 110.6186752319336 218.56187438964844 88.7300796508789"/>
    <path stroke-width="0" fill="rgb(-29, -25, 7)" opacity="1.0286678" stroke="rgb(224, 148, 224)" stroke-opacity="1.0" stroke-linecap="round" stroke-linejoin="round" d="M 289.55584716796875 221.90008544921875 C 293.291748046875 210.20970153808594 284.1637268066406 230.7686004638672 300.17034912109375 210.3437042236328 C 302.2855529785156 189.26800537109375 277.1989440917969 205.2454071044922 279.65985107421875 201.10113525390625 C 293.25775146484375 185.52891540527344 272.5830993652344 215.25794982910156 281.7511291503906 194.7506103515625 C 283.56256103515625 211.9368133544922 285.0469665527344 203.20547485351562 289.55584716796875 221.90008544921875"/>
    <path stroke-width="0" fill="rgb(70, 38, 46)" opacity="0.6785568" stroke="rgb(108, 154, 4)" stroke-opacity="1.0" stroke-linecap="round" stroke-linejoin="round" d="M 238.17210388183594 411.8702697753906 C 251.3756866455078 382.7925720214844 219.94699096679688 425.7817077636719 275.07891845703125 416.261962890625 C 247.10687255859375 406.6646423339844 285.7215576171875 434.8004455566406 268.8121032714844 388.92730712890625 C 272.2041931152344 429.4253234863281 256.7599792480469 407.5462341308594 267.9677734375 414.7269287109375 C 208.40057373046875 417.7073974609375 263.4559631347656 396.14080810546875 238.17210388183594 411.8702697753906"/>
    <path stroke-width="0" fill="rgb(95, 112, 144)" opacity="0.5009875" stroke="rgb(168, 73, 157)" stroke-opacity="1.0" stroke-linecap="round" stroke-linejoin="round" d="M 148.44970703125 364.3933410644531 C 196.16883850097656 388.4764709472656 144.17945861816406 383.3736877441406 165.19125366210938 380.2366943359375 C 171.58615112304688 381.18450927734375 164.03469848632812 381.6782531738281 160.1436004638672 342.7821350097656 C 146.72682189941406 383.5641174316406 155.0802764892578 363.65155029296875 159.98886108398438 346.5149841308594 C 171.86322021484375 360.75640869140625 166.3412628173828 375.9818420410156 148.44970703125 364.3933410644531"/>
    <path stroke-width="0" fill="rgb(83, 46, -23)" opacity="0.2913188" stroke="rgb(34, 76, 145)" stroke-opacity="1.0" stroke-linecap="round" stroke-linejoin="round" d="M 231.5494384765625 113.81241607666016 C 197.1282501220703 122.21184539794922 214.47271728515625 98.70665740966797 230.89173889160156 101.76041412353516 C 196.31805419921875 60.13026428222656 218.12232971191406 70.94164276123047 196.12110900878906 102.71440124511719 C 184.98703002929688 145.65882873535156 191.1997528076172 71.91018676757812 224.47201538085938 105.31966400146484 C 231.6372833251953 73.30867767333984 172.400390625 79.02555847167969 231.5494384765625 113.81241607666016"/>
    <path stroke-width="0" fill="rgb(132, 28, 41)" opacity="0.48079798" stroke="rgb(146, 166, 166)" stroke-opacity="1.0" stroke-linecap="round" stroke-linejoin="round" d="M 172.2147674560547 198.2004852294922 C 172.05543518066406 199.91305541992188 172.55592346191406 197.65042114257812 173.7647247314453 188.18275451660156 C 165.3856658935547 207.32574462890625 173.45858764648438 147.95005798339844 172.9554443359375 199.60910034179688 C 165.58863830566406 202.9217529296875 176.39364624023438 190.59024047851562 170.5107879638672 200.74171447753906 C 176.10791015625 195.61878967285156 171.5497283935547 196.87725830078125 172.2147674560547 198.2004852294922"/>
    <path stroke-width="0" fill="rgb(156, -37, -117)" opacity="0.38535076" stroke="rgb(228, 93, 111)" stroke-opacity="1.0" stroke-linecap="round" stroke-linejoin="round" d="M 233.9753875732422 119.85926055908203 C 240.58815002441406 98.28004455566406 232.21009826660156 53.51194381713867 237.82815551757812 81.91585540771484 C 221.3027801513672 119.91582489013672 235.5404052734375 139.7054901123047 218.6558837890625 103.74380493164062 C 236.8546142578125 92.22310638427734 289.2076721191406 141.12930297851562 266.78460693359375 114.18195343017578 C 233.96751403808594 106.67388153076172 250.76541137695312 89.74351501464844 233.9753875732422 119.85926055908203"/>
    <path stroke-width="0" fill="rgb(228, 176, 151)" opacity="0.5074033" stroke="rgb(205, 179, 25)" stroke-opacity="1.0" stroke-linecap="round" stroke-linejoin="round" d="M 197.37399291992188 101.08216857910156 C 236.2039031982422 85.99009704589844 185.54884338378906 131.11985778808594 215.3558349609375 102.41259002685547 C 248.13308715820312 110.47994232177734 226.92210388183594 51.29132080078125 213.2013397216797 93.44673156738281 C 179.70123291015625 66.29843139648438 222.30104064941406 85.92446899414062 213.59228515625 121.01155090332031 C 255.16307067871094 81.94425201416016 215.5350341796875 102.82329559326172 197.37399291992188 101.08216857910156"/>
    <path stroke-width="0" fill="rgb(206, 164, 143)" opacity="0.4152208" stroke="rgb(205, 145, 103)" stroke-opacity="1.0" stroke-linecap="round" stroke-linejoin="round" d="M 290.1241760253906 145.44732666015625 C 286.40643310546875 120.230712890625 272.5947570800781 141.56182861328125 285.7489318847656 129.00379943847656 C 293.3171081542969 152.44679260253906 280.6304931640625 137.31259155273438 293.6072998046875 144.22190856933594 C 294.0152587890625 148.91043090820312 292.267578125 106.8838882446289 300.47943115234375 143.9364471435547 C 276.05859375 137.57777404785156 294.2904357910156 145.76573181152344 290.1241760253906 145.44732666015625"/>
    <path stroke-width="0" fill="rgb(104, 106, 129)" opacity="0.6910889" stroke="rgb(177, 115, 184)" stroke-opacity="1.0" stroke-linecap="round" stroke-linejoin="round" d="M 155.52557373046875 187.6862030029297 C 168.99017333984375 202.4950714111328 172.39520263671875 199.72650146484375 167.1499481201172 211.5092010498047 C 168.25875854492188 215.07870483398438 156.79190063476562 214.37799072265625 165.88375854492188 224.0457763671875 C 169.2328643798828 206.90103149414062 170.7123260498047 211.35806274414062 160.02720642089844 215.28182983398438 C 172.1299591064453 202.61019897460938 170.2370147705078 201.63775634765625 155.52557373046875 187.6862030029297"/>
    <path stroke-width="0" fill="rgb(223, 152, 216)" opacity="0.8730162" stroke="rgb(248, 218, 2)" stroke-opacity="1.0" stroke-linecap="round" stroke-linejoin="round" d="M 289.8070373535156 225.07003784179688 C 301.2644348144531 194.6065673828125 319.17425537109375 222.60653686523438 243.9218292236328 235.29354858398438 C 250.88916015625 247.65003967285156 241.8853302001953 229.5447540283203 265.1128234863281 230.1208038330078 C 273.8073425292969 218.99925231933594 274.6759033203125 243.38815307617188 257.8625183105469 237.65789794921875 C 226.4610595703125 219.67616271972656 285.9461669921875 209.53762817382812 289.8070373535156 225.07003784179688"/>
    <path stroke-width="0" fill="rgb(-7, 123, 84)" opacity="0.42231596" stroke="rgb(186, 43, 132)" stroke-opacity="1.0" stroke-linecap="round" stroke-linejoin="round" d="M 218.51319885253906 208.51878356933594 C 229.05111694335938 186.72911071777344 217.06483459472656 223.15267944335938 227.31646728515625 207.0122528076172 C 246.79403686523438 217.3043975830078 258.5618591308594 200.81317138671875 222.0182647705078 214.5619659423828 C 219.21234130859375 193.23765563964844 227.93667602539062 196.7318572998047 221.9047393798828 203.1926727294922 C 210.63182067871094 214.79388427734375 238.88316345214844 232.03587341308594 218.51319885253906 208.51878356933594"/>
    <path stroke-width="0" fill="rgb(286, 112, -17)" opacity="0.43633372" stroke="rgb(88, 236, 179)" stroke-opacity="1.0" stroke-linecap="round" stroke-linejoin="round" d="M 284.2228088378906 263.9656066894531 C 279.67877197265625 250.26353454589844 291.5997314453125 245.99517822265625 287.1236267089844 263.14398193359375 C 291.9292907714844 257.7927551269531 281.1361083984375 259.0926513671875 292.19818115234375 262.56988525390625 C 324.81829833984375 261.92706298828125 341.24786376953125 261.71026611328125 283.68817138671875 262.4581604003906 C 306.98516845703125 258.97369384765625 306.45172119140625 336.1833190917969 284.2228088378906 263.9656066894531"/>
    <path stroke-width="0" fill="rgb(-44, -33, 15)" opacity="0.89867914" stroke="rgb(41, 158, 147)" stroke-opacity="1.0" stroke-linecap="round" stroke-linejoin="round" d="M 223.2266387939453 198.74908447265625 C 224.52139282226562 217.06088256835938 217.310302734375 210.47308349609375 281.22918701171875 227.20838928222656 C 277.98199462890625 211.77859497070312 229.6328887939453 218.0615692138672 244.41363525390625 233.89280700683594 C 210.3979034423828 206.98223876953125 253.9862518310547 210.96865844726562 237.6033477783203 211.40235900878906 C 241.0517120361328 211.04306030273438 247.11827087402344 199.1654510498047 223.2266387939453 198.74908447265625"/>
    <path stroke-width="0" fill="rgb(24, 23, -2)" opacity="1.047002" stroke="rgb(238, 156, 136)" stroke-opacity="1.0" stroke-linecap="round" stroke-linejoin="round" d="M 303.37908935546875 193.1861114501953 C 291.2015686035156 179.74827575683594 275.1752014160156 173.41482543945312 290.2839050292969 164.33033752441406 C 297.8094482421875 170.0500030517578 281.31005859375 159.84652709960938 292.8327331542969 167.67196655273438 C 284.3690490722656 177.9052276611328 285.3120422363281 175.68798828125 310.07574462890625 205.8753204345703 C 280.3509216308594 178.46754455566406 286.156982421875 175.2322540283203 303.37908935546875 193.1861114501953"/>
    <path stroke-width="0" fill="rgb(93, 15, 22)" opacity="0.6009694" stroke="rgb(186, 79, 101)" stroke-opacity="1.0" stroke-linecap="round" stroke-linejoin="round" d="M 165.96116638183594 213.94651794433594 C 168.9147186279297 215.53257751464844 168.22547912597656 221.70091247558594 168.27723693847656 211.5286865234375 C 165.56561279296875 221.69190979003906 170.9032745361328 173.41363525390625 159.71286010742188 242.22943115234375 C 159.5255126953125 238.59661865234375 168.09669494628906 229.18609619140625 162.92645263671875 224.1700897216797 C 166.59100341796875 215.42543029785156 162.4297637939453 235.3563232421875 165.96116638183594 213.94651794433594"/>
    <path stroke-width="0" fill="rgb(78, 67, 10)" opacity="0.7438422" stroke="rgb(57, 64, 14)" stroke-opacity="1.0" stroke-linecap="round" stroke-linejoin="round" d="M 156.76585388183594 266.63604736328125 C 156.14532470703125 269.35894775390625 159.5094757080078 286.21685791015625 156.99571228027344 252.09945678710938 C 168.16465759277344 218.7498321533203 150.8818817138672 206.9886474609375 159.1011962890625 302.6320495605469 C 167.34881591796875 313.58209228515625 155.06948852539062 309.9881896972656 157.33251953125 236.88841247558594 C 153.58926391601562 291.5687255859375 155.4787139892578 274.526123046875 156.76585388183594 266.63604736328125"/>
    <path stroke-width="0" fill="rgb(267, 266, 256)" opacity="0.82651025" stroke="rgb(6, 17, 173)" stroke-opacity="1.0" stroke-linecap="round" stroke-linejoin="round" d="M 345.85174560546875 364.5191650390625 C 345.21173095703125 398.49285888671875 369.683349609375 363.5205383300781 339.48284912109375 380.9435119628906 C 376.17120361328125 316.93096923828125 314.3135681152344 365.9977111816406 316.4554443359375 346.6776428222656 C 279.6231384277344 315.5851135253906 350.69866943359375 308.3498229980469 351.61822509765625 348.2017517089844 C 307.49151611328125 343.32659912109375 324.3804016113281 374.0296325683594 345.85174560546875 364.5191650390625"/>
    <path stroke-width="0" fill="rgb(102, 0, -48)" opacity="0.93770486" stroke="rgb(136, 228, 252)" stroke-opacity="1.0" stroke-linecap="round" stroke-linejoin="round" d="M 316.8415222167969 258.58538818359375 C 408.7239074707031 325.013916015625 382.18231201171875 305.6067199707031 351.748779296875 288.4670715332031 C 344.8901062011719 281.9461669921875 355.1161193847656 279.8946533203125 355.80548095703125 290.51361083984375 C 356.43804931640625 406.7012939453125 362.5152282714844 380.3753967285156 358.7518005371094 302.3754577636719 C 347.14324951171875 301.2915954589844 352.1885986328125 269.7646179199219 316.8415222167969 258.58538818359375"/>
    <path stroke-width="0" fill="rgb(-16, -7, 4)" opacity="0.9861353" stroke="rgb(81, 97, 150)" stroke-opacity="1.0" stroke-linecap="round" stroke-linejoin="round" d="M 250.31993103027344 218.0409393310547 C 239.46485900878906 200.12686157226562 206.08724975585938 214.49440002441406 267.0411682128906 230.0204620361328 C 258.7999267578125 221.98236083984375 225.52073669433594 222.51336669921875 252.03924560546875 238.56484985351562 C 267.40887451171875 248.64195251464844 275.7707824707031 234.83523559570312 259.0189514160156 240.73495483398438 C 256.88482666015625 229.08944702148438 251.7421875 235.701171875 250.31993103027344 218.0409393310547"/>
    <path stroke-width="0" fill="rgb(289, 286, 228)" opacity="0.82704633" stroke="rgb(160, 222, 69)" stroke-opacity="1.0" stroke-linecap="round" stroke-linejoin="round" d="M 183.61648559570312 388.7499084472656 C 196.6181640625 379.8035583496094 158.63198852539062 409.36016845703125 165.90634155273438 373.802001953125 C 166.43380737304688 396.13812255859375 175.256591796875 391.1051025390625 158.81414794921875 397.4519958496094 C 177.21554565429688 360.2218322753906 161.72940063476562 355.20526123046875 164.71141052246094 352.0426330566406 C 159.7105255126953 369.9546813964844 186.45846557617188 340.697509765625 183.61648559570312 388.7499084472656"/>
    <path stroke-width="0" fill="rgb(74, 128, 158)" opacity="1.0094714" stroke="rgb(47, 242, 175)" stroke-opacity="1.0" stroke-linecap="round" stroke-linejoin="round" d="M 319.1689758300781 354.1304626464844 C 321.6114196777344 368.5975036621094 320.3600158691406 348.2132873535156 318.7607116699219 354.01910400390625 C 310.44378662109375 347.9847106933594 299.5928649902344 306.0730285644531 302.1248779296875 369.4437561035156 C 333.7110900878906 370.42962646484375 314.099365234375 339.630859375 282.7347412109375 315.5697937011719 C 334.5859680175781 335.5686340332031 300.8418884277344 322.0797119140625 319.1689758300781 354.1304626464844"/>
    <path stroke-width="0" fill="rgb(139, -27, -71)" opacity="0.7676912" stroke="rgb(241, 186, 64)" stroke-opacity="1.0" stroke-linecap="round" stroke-linejoin="round" d="M 283.9433288574219 260.64697265625 C 280.0747985839844 241.63697814941406 284.37152099609375 263.63238525390625 304.8208923339844 251.23106384277344 C 298.8089294433594 254.4412078857422 290.52862548828125 255.52206420898438 316.5779724121094 258.8369445800781 C 332.5113220214844 257.4328918457031 385.9116516113281 327.66973876953125 326.1453857421875 261.25933837890625 C 315.7411193847656 265.90826416015625 313.41778564453125 241.66546630859375 283.9433288574219 260.64697265625"/>
    <path stroke-width="0" fill="rgb(-69, 20, 13)" opacity="0.871369" stroke="rgb(132, 6, 52)" stroke-opacity="1.0" stroke-linecap="round" stroke-linejoin="round" d="M 200.969970703125 99.43345642089844 C 205.68777465820312 98.06031799316406 194.80313110351562 87.3386001586914 203.67820739746094 99.87261199951172 C 203.3701171875 90.14288330078125 216.05601501464844 59.134315490722656 189.20306396484375 120.83125305175781 C 221.18310546875 64.08252716064453 210.65184020996094 53.007911682128906 236.52432250976562 63.450164794921875 C 220.917724609375 45.02656936645508 198.03842163085938 90.13594818115234 200.969970703125 99.43345642089844"/>
    <path stroke-width="0" fill="rgb(4, -27, -19)" opacity="1.0205973" stroke="rgb(182, 100, 144)" stroke-opacity="1.0" stroke-linecap="round" stroke-linejoin="round" d="M 304.7333068847656 199.85675048828125 C 302.5914611816406 194.33668518066406 314.216064453125 221.57974243164062 303.8800354003906 222.6717529296875 C 298.579345703125 194.40663146972656 318.02850341796875 205.0896759033203 296.623779296875 222.0517578125 C 290.1683349609375 224.50843811035156 323.36053466796875 235.62876892089844 263.6408996582031 225.53338623046875 C 286.0382080078125 220.2008056640625 311.95770263671875 219.13848876953125 304.7333068847656 199.85675048828125"/>
    <path stroke-width="0" fill="rgb(144, 103, 113)" opacity="0.42344433" stroke="rgb(140, 149, 245)" stroke-opacity="1.0" stroke-linecap="round" stroke-linejoin="round" d="M 215.3474884033203 78.83425903320312 C 227.3028564453125 96.7659683227539 203.0362091064453 96.8446044921875 215.70619201660156 100.88102722167969 C 229.27931213378906 71.1820297241211 205.24879455566406 74.49385070800781 182.06671142578125 78.01945495605469 C 202.53509521484375 84.28484344482422 177.5561981201172 102.48107147216797 185.858642578125 77.35013580322266 C 217.66534423828125 71.5114974975586 244.34381103515625 86.43928527832031 215.3474884033203 78.83425903320312"/>
    <path stroke-width="0" fill="rgb(274, 163, 37)" opacity="1.0193373" stroke="rgb(86, 245, 59)" stroke-opacity="1.0" stroke-linecap="round" stroke-linejoin="round" d="M 277.7682189941406 318.4451904296875 C 278.80316162109375 314.5486145019531 274.67510986328125 338.1829833984375 337.5863952636719 274.8182678222656 C 257.7452392578125 218.00039672851562 287.4930419921875 318.5559387207031 325.6025085449219 287.119873046875 C 312.4544372558594 349.0141906738281 272.832275390625 302.7179260253906 288.6997375488281 288.2257385253906 C 319.33587646484375 283.1041259765625 285.03582763671875 348.02679443359375 277.7682189941406 318.4451904296875"/>
    <path stroke-width="0" fill="rgb(280, 259, 238)" opacity="0.32780287" stroke="rgb(240, 203, 160)" stroke-opacity="1.0" stroke-linecap="round" stroke-linejoin="round" d="M 259.9052734375 183.98464965820312 C 260.1806945800781 202.8863983154297 266.2571105957031 215.3554229736328 294.8470458984375 238.14981079101562 C 300.6591491699219 216.4978790283203 308.9107666015625 217.43899536132812 306.5963439941406 209.42965698242188 C 311.1988830566406 255.54190063476562 270.6114501953125 229.5386962890625 286.6811218261719 229.82989501953125 C 256.3805236816406 198.8947296142578 270.1888732910156 214.4573516845703 259.9052734375 183.98464965820312"/>
    <path stroke-width="0" fill="rgb(131, 34, -15)" opacity="0.7028015" stroke="rgb(88, 37, 250)" stroke-opacity="1.0" stroke-linecap="round" stroke-linejoin="round" d="M 271.824951171875 347.2870788574219 C 289.8348388671875 309.4496765136719 279.2341003417969 313.0184631347656 284.2921142578125 329.9407653808594 C 285.7026062011719 331.52093505859375 286.70257568359375 261.3982849121094 281.11737060546875 318.462646484375 C 292.34100341796875 340.3450622558594 295.1714172363281 309.4669189453125 320.0087890625 318.3318786621094 C 255.39431762695312 308.69622802734375 287.8664855957031 375.4236755371094 271.824951171875 347.2870788574219"/>
    <path stroke-width="0" fill="rgb(67, 122, 149)" opacity="0.32494885" stroke="rgb(126, 163, 93)" stroke-opacity="1.0" stroke-linecap="round" stroke-linejoin="round" d="M 200.5364227294922 73.9078369140625 C 209.70252990722656 65.21211242675781 217.05284118652344 72.41014099121094 206.93589782714844 70.09248352050781 C 209.3458251953125 61.74359893798828 209.68516540527344 29.93500328063965 209.6127471923828 62.137428283691406 C 208.438232421875 70.06841278076172 229.8984832763672 59.8299446105957 231.81394958496094 58.58006286621094 C 197.6588897705078 50.28402328491211 217.4134979248047 79.51424407958984 200.5364227294922 73.9078369140625"/>
    <path stroke-width="0" fill="rgb(68, 126, 146)" opacity="0.70948666" stroke="rgb(209, 48, 130)" stroke-opacity="1.0" stroke-linecap="round" stroke-linejoin="round" d="M 225.38597106933594 51.581851959228516 C 193.65538024902344 49.94976043701172 182.9998321533203 43.3798828125 189.3523406982422 67.08448791503906 C 161.76181030273438 98.78587341308594 156.41635131835938 106.7406234741211 181.61000061035156 105.68035888671875 C 229.571533203125 61.3568000793457 204.9990997314453 17.56784439086914 179.75384521484375 34.06686782836914 C 148.1253662109375 81.2613296508789 187.1769256591797 70.0224609375 225.38597106933594 51.581851959228516"/>
    <path stroke-width="0" fill="rgb(287, 106, 50)" opacity="0.55885977" stroke="rgb(24, 219, 248)" stroke-opacity="1.0" stroke-linecap="round" stroke-linejoin="round" d="M 228.59765625 109.08889770507812 C 226.94302368164062 85.82915496826172 224.57020568847656 81.45843505859375 240.2215118408203 83.8951416015625 C 214.24717712402344 64.65089416503906 232.05380249023438 75.30778503417969 228.7923126220703 85.39157104492188 C 236.47662353515625 92.35714721679688 234.53379821777344 88.27716064453125 233.80763244628906 75.23648834228516 C 225.71267700195312 80.80355072021484 234.79978942871094 57.850425720214844 228.59765625 109.08889770507812"/>
    <path stroke-width="0" fill="rgb(300, 117, -18)" opacity="0.5363389" stroke="rgb(103, 59, 33)" stroke-opacity="1.0" stroke-linecap="round" stroke-linejoin="round" d="M 225.822998046875 65.01952362060547 C 209.73765563964844 67.44794464111328 214.422119140625 83.40734100341797 237.34239196777344 93.45683288574219 C 244.1238555908203 121.1313247680664 240.5511474609375 127.7581787109375 225.75108337402344 121.46665954589844 C 242.9308624267578 119.9034423828125 238.72442626953125 82.04662322998047 212.00413513183594 96.2074966430664 C 207.00657653808594 77.43030548095703 213.21897888183594 81.05152130126953 225.822998046875 65.01952362060547"/>
    <path stroke-width="0" fill="rgb(273, 162, -55)" opacity="0.80624574" stroke="rgb(185, 2, 196)" stroke-opacity="1.0" stroke-linecap="round" stroke-linejoin="round" d="M 173.44442749023438 96.59520721435547 C 192.7295684814453 81.15106201171875 192.03591918945312 114.33927154541016 203.60321044921875 91.89552307128906 C 208.75503540039062 176.29818725585938 212.72434997558594 79.03234100341797 207.88633728027344 107.2155532836914 C 210.9612274169922 93.91600799560547 178.7228546142578 105.01978302001953 176.85797119140625 94.0972900390625 C 196.02781677246094 108.83219146728516 196.31922912597656 79.7077865600586 173.44442749023438 96.59520721435547"/>
    <path stroke-width="0" fill="rgb(78, 119, 156)" opacity="0.74247855" stroke="rgb(66, 116, 174)" stroke-opacity="1.0" stroke-linecap="round" stroke-linejoin="round" d="M 178.91903686523438 101.58335876464844 C 177.1259307861328 95.93266296386719 195.79183959960938 168.3504638671875 175.75022888183594 104.87834167480469 C 152.88470458984375 113.77021789550781 134.88783264160156 136.32769775390625 161.05223083496094 109.25065612792969 C 178.21786499023438 108.45576477050781 178.245849609375 102.41838836669922 171.0557861328125 63.10929870605469 C 185.06307983398438 115.59246063232422 179.04209899902344 113.2492446899414 178.91903686523438 101.58335876464844"/>
    <path stroke-width="0" fill="rgb(175, 123, 112)" opacity="0.6768473" stroke="rgb(72, 96, 46)" stroke-opacity="1.0" stroke-linecap="round" stroke-linejoin="round" d="M 221.7702178955078 89.01557159423828 C 211.9148406982422 88.84537506103516 251.79005432128906 92.42872619628906 220.1479949951172 75.96007537841797 C 238.1260528564453 83.11849975585938 228.9908905029297 119.73701477050781 210.61526489257812 100.15426635742188 C 205.531494140625 108.32856750488281 233.2406005859375 78.82708740234375 211.6477508544922 82.86187744140625 C 222.1352081298828 82.00180053710938 226.01437377929688 100.76458740234375 221.7702178955078 89.01557159423828"/>
    <path stroke-width="0" fill="rgb(84, 118, 139)" opacity="0.5591866" stroke="rgb(147, 244, 164)" stroke-opacity="1.0" stroke-linecap="round" stroke-linejoin="round" d="M 228.6171112060547 77.7498550415039 C 176.56192016601562 77.67642211914062 207.61985778808594 83.74158477783203 189.19888305664062 101.27083587646484 C 174.7852325439453 167.09375 108.9532241821289 264.14447021484375 -45.69136047363281 121.89733123779297 C 182.64697265625 18.567474365234375 158.95350646972656 83.59123992919922 228.36178588867188 78.33779907226562 C 238.90003967285156 72.7106704711914 229.588134765625 88.92355346679688 228.6171112060547 77.7498550415039"/>
    <path stroke-width="0" fill="rgb(77, 121, 137)" opacity="0.98807466" stroke="rgb(109, 130, 136)" stroke-opacity="1.0" stroke-linecap="round" stroke-linejoin="round" d="M 197.80953979492188 93.65740203857422 C 196.78321838378906 82.39462280273438 156.9727783203125 79.28289031982422 168.30369567871094 93.9698715209961 C 181.50924682617188 127.09640502929688 156.57786560058594 138.34317016601562 178.0006103515625 79.02716827392578 C 154.1116180419922 86.60759735107422 164.11866760253906 72.81156158447266 154.41787719726562 78.69634246826172 C 181.35830688476562 102.57206726074219 182.2710723876953 124.12142181396484 197.80953979492188 93.65740203857422"/>
    <path stroke-width="0" fill="rgb(87, 110, 154)" opacity="0.4496818" stroke="rgb(70, 32, 100)" stroke-opacity="1.0" stroke-linecap="round" stroke-linejoin="round" d="M 288.6055603027344 120.39008331298828 C 300.14727783203125 113.06927490234375 287.8023986816406 123.36406707763672 301.3720703125 129.18734741210938 C 283.13055419921875 117.59844207763672 313.94873046875 103.47151184082031 305.2918395996094 136.27268981933594 C 305.7091064453125 121.93171691894531 310.6669616699219 106.87946319580078 332.9877014160156 103.25707244873047 C 320.3697509765625 106.9639892578125 322.7441101074219 100.83680725097656 288.6055603027344 120.39008331298828"/>
    <path stroke-width="0" fill="rgb(268, 102, 35)" opacity="0.6995714" stroke="rgb(47, 230, 138)" stroke-opacity="1.0" stroke-linecap="round" stroke-linejoin="round" d="M 282.48828125 318.00335693359375 C 285.0919494628906 313.4793395996094 277.40264892578125 281.156005859375 287.874755859375 318.9356384277344 C 314.3673400878906 318.4607849121094 280.83984375 334.0811462402344 291.040771484375 294.226806640625 C 286.88104248046875 241.80868530273438 288.83135986328125 254.64332580566406 280.64837646484375 327.37982177734375 C 287.017333984375 328.4009704589844 290.3656005859375 318.1943359375 282.48828125 318.00335693359375"/>
    <path stroke-width="0" fill="rgb(265, 167, 28)" opacity="0.42659014" stroke="rgb(224, 116, 184)" stroke-opacity="1.0" stroke-linecap="round" stroke-linejoin="round" d="M 302.17694091796875 111.96015167236328 C 290.39691162109375 100.32735443115234 298.8487243652344 66.39988708496094 298.0432434082031 119.80680847167969 C 291.56549072265625 120.44073486328125 295.3441162109375 92.37751007080078 293.0145263671875 117.35686492919922 C 302.4354248046875 138.0322723388672 282.2161865234375 116.97732543945312 291.62890625 125.63313293457031 C 290.6082763671875 118.06925964355469 284.3232116699219 110.37154388427734 302.17694091796875 111.96015167236328"/>
    <path stroke-width="0" fill="rgb(276, 199, -6)" opacity="0.6516231" stroke="rgb(230, 175, 178)" stroke-opacity="1.0" stroke-linecap="round" stroke-linejoin="round" d="M 305.9395446777344 101.48296356201172 C 300.8415222167969 121.90079498291016 289.7450256347656 132.4398651123047 273.10931396484375 140.34780883789062 C 291.9095153808594 119.02539825439453 284.83209228515625 99.56340026855469 288.17376708984375 139.9557342529297 C 315.1571350097656 96.20069885253906 283.9049377441406 102.60774230957031 297.1120300292969 128.17401123046875 C 279.31707763671875 100.46475219726562 304.2872314453125 131.36709594726562 305.9395446777344 101.48296356201172"/>
    <path stroke-width="0" fill="rgb(270, 164, 52)" opacity="0.6359988" stroke="rgb(203, 244, 116)" stroke-opacity="1.0" stroke-linecap="round" stroke-linejoin="round" d="M 278.4066162109375 133.1337127685547 C 295.154296875 118.34220886230469 296.57745361328125 99.47130584716797 291.6121826171875 130.26023864746094 C 308.4726257324219 92.3970947265625 292.2212829589844 122.42229461669922 300.8792724609375 108.62294006347656 C 303.6067810058594 110.73458862304688 280.2848205566406 125.50421905517578 309.55609130859375 105.82833862304688 C 287.74310302734375 124.03229522705078 296.80792236328125 117.78033447265625 278.4066162109375 133.1337127685547"/>
    <path stroke-width="0" fill="rgb(234, 178, 50)" opacity="0.51276565" stroke="rgb(65, 216, 8)" stroke-opacity="1.0" stroke-linecap="round" stroke-linejoin="round" d="M 295.7462158203125 116.34092712402344 C 278.8251647949219 136.5258331298828 278.2702331542969 143.64776611328125 274.5041198730469 136.14120483398438 C 276.4794921875 138.18821716308594 280.5692443847656 127.0254135131836 277.5987548828125 161.23936462402344 C 280.8856201171875 148.1546630859375 286.31378173828125 141.3237762451172 260.4267272949219 148.37611389160156 C 271.72344970703125 131.2724151611328 273.19696044921875 153.64894104003906 295.7462158203125 116.34092712402344"/>
    <path stroke-width="0" fill="rgb(51, 38, 24)" opacity="0.79082924" stroke="rgb(90, 90, 4)" stroke-opacity="1.0" stroke-linecap="round" stroke-linejoin="round" d="M 273.30145263671875 344.15228271484375 C 279.8186340332031 347.9070129394531 273.89276123046875 343.78082275390625 276.8565673828125 339.5411376953125 C 276.22857666015625 330.7071838378906 271.2322998046875 306.3870544433594 282.6262512207031 364.8779296875 C 269.7525939941406 388.6752624511719 269.70465087890625 335.3570251464844 280.7668762207031 310.8021545410156 C 277.36767578125 361.2654724121094 285.28466796875 340.73681640625 273.30145263671875 344.15228271484375"/>
    <path stroke-width="0" fill="rgb(239, 125, 39)" opacity="0.41785005" stroke="rgb(221, 115, 83)" stroke-opacity="1.0" stroke-linecap="round" stroke-linejoin="round" d="M 297.2740173339844 240.27203369140625 C 305.5400695800781 183.42079162597656 315.4818420410156 209.42820739746094 298.9649963378906 238.1304473876953 C 282.3293762207031 183.33192443847656 273.8753356933594 153.55886840820312 261.2052001953125 174.2647705078125 C 270.7155456542969 146.33648681640625 272.14404296875 146.97341918945312 265.48541259765625 167.89083862304688 C 275.1305847167969 165.80140686035156 287.3951416015625 188.02772521972656 297.2740173339844 240.27203369140625"/>
    <path stroke-width="0" fill="rgb(75, 123, 136)" opacity="0.69894904" stroke="rgb(17, 64, 56)" stroke-opacity="1.0" stroke-linecap="round" stroke-linejoin="round" d="M 167.1579132080078 137.08370971679688 C 177.6728973388672 120.31873321533203 172.12733459472656 129.29104614257812 172.42091369628906 172.6051025390625 C 181.00669860839844 170.0036163330078 175.48756408691406 145.5478057861328 158.73480224609375 150.1179962158203 C 177.30772399902344 152.94125366210938 189.560791015625 122.16644287109375 147.15341186523438 128.74490356445312 C 160.628173828125 151.83544921875 175.9630889892578 159.50352478027344 167.1579132080078 137.08370971679688"/>
    <path stroke-width="0" fill="rgb(274, 209, 69)" opacity="0.4115634" stroke="rgb(33, 3, 29)" stroke-opacity="1.0" stroke-linecap="round" stroke-linejoin="round" d="M 220.2904510498047 156.5782928466797 C 193.9766082763672 137.4717559814453 206.82887268066406 163.51583862304688 191.19992065429688 177.6978302001953 C 212.99195861816406 139.31961059570312 207.2662811279297 146.95022583007812 190.76174926757812 146.11990356445312 C 179.64186096191406 137.646484375 196.70147705078125 138.65167236328125 189.87692260742188 177.25270080566406 C 173.9000244140625 174.77023315429688 184.90899658203125 175.2470703125 220.2904510498047 156.5782928466797"/>
    <path stroke-width="0" fill="rgb(-46, 0, 7)" opacity="0.78464216" stroke="rgb(162, 125, 252)" stroke-opacity="1.0" stroke-linecap="round" stroke-linejoin="round" d="M 295.7249755859375 219.95245361328125 C 294.64349365234375 271.33349609375 280.2121887207031 209.06565856933594 304.87945556640625 243.83151245117188 C 287.5682067871094 220.0480499267578 300.0119323730469 210.10728454589844 298.70013427734375 233.36822509765625 C 295.08135986328125 186.69345092773438 293.40338134765625 210.4868927001953 288.0006103515625 206.11627197265625 C 290.87237548828125 226.2921905517578 319.3772277832031 255.41317749023438 295.7249755859375 219.95245361328125"/>
    <path stroke-width="0" fill="rgb(151, 147, 123)" opacity="0.7098075" stroke="rgb(199, 73, 61)" stroke-opacity="1.0" stroke-linecap="round" stroke-linejoin="round" d="M 319.16455078125 213.85311889648438 C 303.6720275878906 218.8968048095703 295.6106872558594 223.03436279296875 316.55389404296875 235.21661376953125 C 302.6721496582031 224.79159545898438 307.34716796875 216.7703094482422 286.3706359863281 239.83395385742188 C 304.3334655761719 245.06497192382812 312.04730224609375 234.44749450683594 297.9603271484375 233.931640625 C 299.5748596191406 228.4524383544922 321.5166931152344 205.69976806640625 319.16455078125 213.85311889648438"/>
    <path stroke-width="0" fill="rgb(130, 224, 242)" opacity="0.74984217" stroke="rgb(91, 211, 235)" stroke-opacity="1.0" stroke-linecap="round" stroke-linejoin="round" d="M 272.86273193359375 202.3518829345703 C 283.193115234375 199.7395782470703 315.8218994140625 186.46202087402344 295.896484375 240.99005126953125 C 307.6096496582031 236.1065216064453 335.461181640625 217.09945678710938 272.9776306152344 221.23995971679688 C 306.69012451171875 211.74801635742188 313.9003601074219 209.42306518554688 314.15289306640625 218.3075714111328 C 317.0865478515625 200.83351135253906 291.2363586425781 201.0121612548828 272.86273193359375 202.3518829345703"/>
    <path stroke-width="0" fill="rgb(250, 256, 262)" opacity="1.0222613" stroke="rgb(247, 230, 75)" stroke-opacity="1.0" stroke-linecap="round" stroke-linejoin="round" d="M 200.02574157714844 213.03504943847656 C 210.51773071289062 214.37783813476562 200.84365844726562 197.4763946533203 215.23748779296875 205.0316925048828 C 216.01092529296875 199.22557067871094 225.47381591796875 204.70957946777344 229.384521484375 224.9380340576172 C 219.85745239257812 240.86122131347656 187.5928192138672 231.70565795898438 209.9442901611328 171.94715881347656 C 222.68934631347656 169.5877227783203 197.42965698242188 184.70899963378906 200.02574157714844 213.03504943847656"/>
    <path stroke-width="0" fill="rgb(226, 264, 287)" opacity="1.0259906" stroke="rgb(63, 27, 242)" stroke-opacity="1.0" stroke-linecap="round" stroke-linejoin="round" d="M 301.76239013671875 225.6116180419922 C 284.9722595214844 225.96356201171875 312.8486022949219 215.34559631347656 308.28826904296875 212.96693420410156 C 305.3350524902344 186.23524475097656 299.5957336425781 228.3340301513672 266.05816650390625 219.5665283203125 C 244.75621032714844 199.28179931640625 222.026611328125 207.5428009033203 278.30120849609375 215.6759796142578 C 320.9678955078125 228.98890686035156 329.2705383300781 204.1494598388672 301.76239013671875 225.6116180419922"/>
    <path stroke-width="0" fill="rgb(-32, -35, 3)" opacity="0.66572094" stroke="rgb(69, 96, 95)" stroke-opacity="1.0" stroke-linecap="round" stroke-linejoin="round" d="M 298.7577209472656 195.73423767089844 C 276.46795654296875 227.89845275878906 309.49078369140625 243.23553466796875 318.4496765136719 236.6490020751953 C 301.19232177734375 239.29151916503906 287.32843017578125 245.17361450195312 300.5165100097656 231.59559631347656 C 302.6459655761719 246.7560272216797 301.5383605957031 230.6773681640625 284.1415100097656 200.81057739257812 C 316.0964660644531 188.75735473632812 303.7547607421875 213.55484008789062 298.7577209472656 195.73423767089844"/>
    <path stroke-width="0" fill="rgb(297, 172, -48)" opacity="0.88080114" stroke="rgb(213, 60, 128)" stroke-opacity="1.0" stroke-linecap="round" stroke-linejoin="round" d="M 211.25392150878906 81.5162353515625 C 250.5998077392578 82.77494812011719 234.66810607910156 103.25599670410156 234.6820068359375 89.34149169921875 C 208.39256286621094 82.62332916259766 195.3583526611328 97.42829895019531 223.6226043701172 61.573089599609375 C 229.84088134765625 84.95928192138672 245.0762939453125 64.75035858154297 224.24551391601562 71.66480255126953 C 223.11773681640625 67.1702880859375 256.9730529785156 83.43045806884766 211.25392150878906 81.5162353515625"/>
    <path stroke-width="0" fill="rgb(266, 218, 86)" opacity="0.5057842" stroke="rgb(18, 74, 38)" stroke-opacity="1.0" stroke-linecap="round" stroke-linejoin="round" d="M 275.0011901855469 254.90045166015625 C 268.2946472167969 254.87313842773438 256.355224609375 254.6301727294922 262.7449035644531 255.48162841796875 C 207.1328887939453 259.3914794921875 217.38088989257812 249.69773864746094 185.3190460205078 220.60775756835938 C 231.7471466064453 262.38525390625 265.29962158203125 251.2414093017578 209.55087280273438 252.7215118408203 C 188.9884796142578 254.9186553955078 249.7052764892578 249.62640380859375 275.0011901855469 254.90045166015625"/>
    <path stroke-width="0" fill="rgb(164, 95, 76)" opacity="0.53096056" stroke="rgb(33, 154, 97)" stroke-opacity="1.0" stroke-linecap="round" stroke-linejoin="round" d="M 225.25692749023438 55.81764221191406 C 198.08482360839844 66.62376403808594 214.7008514404297 81.38167572021484 207.54429626464844 72.77674865722656 C 208.78445434570312 75.09245300292969 208.8163299560547 67.14431762695312 211.46200561523438 85.6109619140625 C 210.8824005126953 99.46467590332031 236.52537536621094 61.61875915527344 212.17593383789062 85.62785339355469 C 210.8744354248047 65.74005126953125 210.10226440429688 63.1491584777832 225.25692749023438 55.81764221191406"/>
    <path stroke-width="0" fill="rgb(111, 101, 130)" opacity="1.0295379" stroke="rgb(246, 139, 70)" stroke-opacity="1.0" stroke-linecap="round" stroke-linejoin="round" d="M 300.0129089355469 243.718994140625 C 288.98809814453125 238.6549835205078 272.20745849609375 228.08543395996094 330.47052001953125 229.156494140625 C 311.4698181152344 232.35565185546875 296.03717041015625 224.81504821777344 265.05352783203125 225.5250701904297 C 295.31243896484375 223.42831420898438 283.38104248046875 239.10525512695312 307.23785400390625 200.83148193359375 C 268.06512451171875 168.54331970214844 329.95660400390625 204.42938232421875 300.0129089355469 243.718994140625"/>
    <path stroke-width="0" fill="rgb(144, 109, 91)" opacity="0.19662966" stroke="rgb(228, 103, 140)" stroke-opacity="1.0" stroke-linecap="round" stroke-linejoin="round" d="M 214.6080780029297 98.31726837158203 C 217.1785125732422 84.28500366210938 220.92669677734375 84.1949462890625 222.81924438476562 96.69539642333984 C 207.2694091796875 57.56655502319336 204.45245361328125 57.39793014526367 204.9746856689453 63.28104782104492 C 210.43624877929688 56.50410842895508 209.6180877685547 67.72944641113281 200.07473754882812 52.51813507080078 C 212.51339721679688 78.25724792480469 224.9869842529297 100.79948425292969 214.6080780029297 98.31726837158203"/>
    <path stroke-width="0" fill="rgb(53, 124, 137)" opacity="0.9999765" stroke="rgb(116, 102, 63)" stroke-opacity="1.0" stroke-linecap="round" stroke-linejoin="round" d="M 325.0278625488281 192.92532348632812 C 284.7105712890625 222.7843780517578 292.2303466796875 229.5398712158203 321.54205322265625 218.8785858154297 C 298.4735412597656 227.43423461914062 277.44537353515625 212.71255493164062 282.3883056640625 236.3052520751953 C 302.4018859863281 274.3262634277344 309.50048828125 245.8120574951172 296.06805419921875 236.75656127929688 C 305.7987976074219 252.5545654296875 333.05218505859375 280.1716003417969 325.0278625488281 192.92532348632812"/>
    <path stroke-width="0" fill="rgb(202, 65, 28)" opacity="0.58333284" stroke="rgb(79, 95, 133)" stroke-opacity="1.0" stroke-linecap="round" stroke-linejoin="round" d="M 232.816162109375 94.3568344116211 C 256.11407470703125 101.40250396728516 261.93121337890625 102.60504150390625 245.32212829589844 99.43043518066406 C 237.18597412109375 93.09215545654297 243.251708984375 111.18733978271484 222.1846466064453 76.53777313232422 C 250.383056640625 98.25848388671875 235.09017944335938 106.66422271728516 239.53224182128906 90.65583038330078 C 230.3793182373047 74.9593734741211 241.3686981201172 98.69938659667969 232.816162109375 94.3568344116211"/>
    <path stroke-width="0" fill="rgb(68, 122, 140)" opacity="0.6282792" stroke="rgb(85, 235, 219)" stroke-opacity="1.0" stroke-linecap="round" stroke-linejoin="round" d="M 316.1767272949219 239.74766540527344 C 309.8298645019531 244.40768432617188 302.1839294433594 238.7473602294922 363.4023742675781 239.60687255859375 C 348.0173034667969 244.09019470214844 341.80877685546875 235.05572509765625 341.3874816894531 221.29600524902344 C 356.3053894042969 273.1009216308594 314.009765625 268.19036865234375 334.5201110839844 235.5169677734375 C 306.48651123046875 232.93368530273438 368.7733154296875 258.3980712890625 316.1767272949219 239.74766540527344"/>
    <path stroke-width="0" fill="rgb(301, 180, -5)" opacity="0.83754027" stroke="rgb(64, 113, 26)" stroke-opacity="1.0" stroke-linecap="round" stroke-linejoin="round" d="M 299.14703369140625 102.93697357177734 C 287.5082092285156 85.29955291748047 318.260986328125 117.17970275878906 306.99151611328125 93.59053802490234 C 305.9777526855469 113.17816162109375 285.4619445800781 141.41262817382812 286.7305908203125 111.30338287353516 C 312.1319580078125 115.23932647705078 309.892578125 83.42753601074219 296.0709228515625 115.71359252929688 C 314.3216857910156 108.51678466796875 302.79150390625 94.5982666015625 299.14703369140625 102.93697357177734"/>
    <path stroke-width="0" fill="rgb(91, 130, 151)" opacity="0.16758513" stroke="rgb(0, 0, 0)" stroke-opacity="0.0" stroke-linecap="round" stroke-linejoin="round" d="M 128.70367431640625 17.71320915222168 C 130.7400360107422 23.103805541992188 130.40567016601562 26.704265594482422 125.3778076171875 28.818754196166992 C 121.76217651367188 28.962539672851562 121.32398223876953 27.62230682373047 121.91446685791016 17.30011558532715 C 121.89132690429688 18.433921813964844 132.87310791015625 20.149110794067383 128.94761657714844 16.60448455810547 C 125.17698669433594 17.693933486938477 131.10528564453125 16.439062118530273 128.70367431640625 17.71320915222168"/>
    <path stroke-width="0" fill="rgb(85, 122, 140)" opacity="0.0859689" stroke="rgb(0, 0, 0)" stroke-opacity="0.0" stroke-linecap="round" stroke-linejoin="round" d="M 448.470703125 15.879490852355957 C 451.9055480957031 21.548389434814453 449.69873046875 24.220434188842773 446.37811279296875 26.933345794677734 C 440.72265625 21.658775329589844 437.9324645996094 18.37188720703125 437.8619079589844 14.242587089538574 C 433.8952941894531 9.698568344116211 436.7818603515625 7.254631519317627 442.41033935546875 9.096714973449707 C 447.67724609375 8.547189712524414 450.10723876953125 11.164748191833496 448.470703125 15.879490852355957"/>
    <path stroke-width="0" fill="rgb(70, 154, 100)" opacity="0.28756917" stroke="rgb(0, 0, 0)" stroke-opacity="0.0" stroke-linecap="round" stroke-linejoin="round" d="M 14.892987251281738 0.6987118124961853 C 20.27891731262207 9.085707664489746 21.254365921020508 12.648313522338867 18.241907119750977 14.727822303771973 C 21.20599365234375 14.208518981933594 14.797765731811523 11.302059173583984 10.34177303314209 8.866053581237793 C 13.267477989196777 3.042285442352295 13.392273902893066 -1.7656803131103516 21.05723762512207 -3.4239511489868164 C 26.568593978881836 -0.9964947700500488 25.382905960083008 1.3584153652191162 14.892987251281738 0.6987118124961853"/>
    <path stroke-width="0" fill="rgb(74, 125, 143)" opacity="0.5740223" stroke="rgb(0, 0, 0)" stroke-opacity="0.0" stroke-linecap="round" stroke-linejoin="round" d="M 17.403148651123047 8.205656051635742 C 16.339550018310547 15.11563777923584 20.58646583557129 26.888593673706055 17.00401496887207 21.781543731689453 C 5.439707279205322 22.65704345703125 4.975071430206299 18.970300674438477 2.2567481994628906 9.692025184631348 C -2.659120559692383 5.550571441650391 1.7934390306472778 -0.12954995036125183 13.868470191955566 0.12126006931066513 C 16.635934829711914 3.0205657482147217 19.375524520874023 5.076578140258789 17.403148651123047 8.205656051635742"/>
    <path stroke-width="0" fill="rgb(90, 85, 94)" opacity="0.14318262" stroke="rgb(0, 0, 0)" stroke-opacity="0.0" stroke-linecap="round" stroke-linejoin="round" d="M 58.76752471923828 15.783561706542969 C 60.71672439575195 22.35124397277832 58.798160552978516 21.52153968811035 50.359291076660156 23.182844161987305 C 45.93455123901367 25.940532684326172 44.65483856201172 22.68292236328125 45.14759063720703 13.216496467590332 C 42.90111541748047 7.232973098754883 45.55953598022461 5.450628757476807 51.01112747192383 8.52410888671875 C 56.901668548583984 11.995461463928223 59.8746452331543 9.48837661743164 58.76752471923828 15.783561706542969"/>
    <path stroke-width="0" fill="rgb(114, 95, 144)" opacity="0.17994538" stroke="rgb(0, 0, 0)" stroke-opacity="0.0" stroke-linecap="round" stroke-linejoin="round" d="M 23.533632278442383 8.22520923614502 C 17.263654708862305 8.094441413879395 13.478508949279785 11.34044361114502 10.429340362548828 12.01236343383789 C 1.8971558809280396 17.920862197875977 1.8763982057571411 18.44585609436035 1.028760552406311 9.334930419921875 C 6.103760719299316 3.099167823791504 5.442227840423584 -1.7421408891677856 13.367033004760742 -3.546628952026367 C 20.429296493530273 -2.760103702545166 21.235992431640625 2.210625648498535 23.533632278442383 8.22520923614502"/>
    <path stroke-width="0" fill="rgb(133, 110, 102)" opacity="0.23316275" stroke="rgb(0, 0, 0)" stroke-opacity="0.0" stroke-linecap="round" stroke-linejoin="round" d="M 8.01342487335205 -1.4342504739761353 C 10.666638374328613 6.206791400909424 8.55898666381836 9.249897003173828 3.417512893676758 12.72374153137207 C -2.0061802864074707 15.955448150634766 -4.334787845611572 11.934287071228027 -4.013587474822998 5.764181137084961 C -1.891053557395935 0.405823290348053 1.0371496677398682 -2.5223798751831055 5.331876754760742 -3.8086094856262207 C 9.66610336303711 -3.559817314147949 12.158721923828125 -2.250279664993286 8.01342487335205 -1.4342504739761353"/>
    <path stroke-width="0" fill="rgb(105, 116, 94)" opacity="0.2985973" stroke="rgb(0, 0, 0)" stroke-opacity="0.0" stroke-linecap="round" stroke-linejoin="round" d="M 13.262529373168945 -0.3816193640232086 C 13.762621879577637 8.792062759399414 17.436492919921875 12.55109691619873 13.030341148376465 9.555220603942871 C 2.0298988819122314 9.962687492370605 -0.5381446480751038 8.220369338989258 4.020542144775391 5.416104316711426 C 3.9974400997161865 -4.036395072937012 5.699893951416016 -6.776299953460693 10.730815887451172 -7.454371452331543 C 14.873992919921875 -6.35049295425415 17.473207473754883 -3.573953866958618 13.262529373168945 -0.3816193640232086"/>
    <path stroke-width="0" fill="rgb(82, 122, 157)" opacity="0.4651116" stroke="rgb(0, 0, 0)" stroke-opacity="0.0" stroke-linecap="round" stroke-linejoin="round" d="M 277.18603515625 2.4830987453460693 C 276.6124267578125 4.063077926635742 271.3154296875 7.977036476135254 273.4079284667969 7.168067455291748 C 270.471435546875 3.607508897781372 262.4130859375 3.905247211456299 267.50628662109375 6.785502910614014 C 260.4768371582031 -1.911210298538208 263.09149169921875 -2.7546260356903076 269.2451171875 -4.910307884216309 C 276.7645568847656 -6.108918190002441 278.6623229980469 -3.9617559909820557 277.18603515625 2.4830987453460693"/>
    <path stroke-width="0" fill="rgb(57, 144, 132)" opacity="0.58145857" stroke="rgb(0, 0, 0)" stroke-opacity="0.0" stroke-linecap="round" stroke-linejoin="round" d="M 33.997100830078125 6.949103832244873 C 34.41943359375 11.121356010437012 33.528194427490234 14.80355453491211 35.0858268737793 10.98581314086914 C 29.052221298217773 9.004284858703613 23.94797706604004 8.285962104797363 23.05364418029785 3.9147396087646484 C 20.916912078857422 -0.8218157887458801 23.026914596557617 -2.8155744075775146 29.026256561279297 -4.180505275726318 C 35.19307327270508 -2.1859290599823 34.847991943359375 3.6300671100616455 33.997100830078125 6.949103832244873"/>
    <path stroke-width="0" fill="rgb(92, 169, 189)" opacity="0.15283647" stroke="rgb(0, 0, 0)" stroke-opacity="0.0" stroke-linecap="round" stroke-linejoin="round" d="M 56.42754364013672 15.2405366897583 C 56.29318618774414 17.588132858276367 56.07687759399414 22.357662200927734 50.10354995727539 25.579072952270508 C 47.307647705078125 25.090486526489258 44.225181579589844 23.053293228149414 45.93318557739258 17.850605010986328 C 42.69575119018555 10.056694984436035 47.02409362792969 8.75353717803955 50.368873596191406 9.924474716186523 C 55.93669128417969 12.437925338745117 59.76065444946289 14.551860809326172 56.42754364013672 15.2405366897583"/>
    <path stroke-width="0" fill="rgb(55, 131, 193)" opacity="0.29211685" stroke="rgb(0, 0, 0)" stroke-opacity="0.0" stroke-linecap="round" stroke-linejoin="round" d="M 41.20146942138672 5.585351467132568 C 39.82394027709961 11.968658447265625 40.87703323364258 20.24484634399414 39.841182708740234 16.483386993408203 C 28.709583282470703 15.521626472473145 27.960493087768555 15.328312873840332 30.477462768554688 11.357307434082031 C 27.5548152923584 2.6552019119262695 29.68925666809082 -1.766080617904663 35.08067321777344 -3.3836545944213867 C 39.958648681640625 -2.550996780395508 40.080753326416016 1.3137331008911133 41.20146942138672 5.585351467132568"/>
    <path stroke-width="0" fill="rgb(115, 137, 210)" opacity="0.08704023" stroke="rgb(0, 0, 0)" stroke-opacity="0.0" stroke-linecap="round" stroke-linejoin="round" d="M 246.520263671875 81.69122314453125 C 250.63612365722656 88.68228912353516 252.68975830078125 88.7168197631836 244.8316650390625 86.94673919677734 C 236.17469787597656 88.9751968383789 237.02301025390625 87.2515869140625 234.96160888671875 79.86454010009766 C 236.30552673339844 73.54454803466797 237.9073944091797 70.53555297851562 238.46453857421875 76.92611694335938 C 244.03286743164062 77.89132690429688 251.4048614501953 79.42906951904297 246.520263671875 81.69122314453125"/>
    <path stroke-width="0" fill="rgb(143, 115, 94)" opacity="0.20750089" stroke="rgb(0, 0, 0)" stroke-opacity="0.0" stroke-linecap="round" stroke-linejoin="round" d="M 100.02059173583984 451.3585205078125 C 97.20464324951172 453.16253662109375 97.556396484375 453.494140625 91.23838806152344 452.0065002441406 C 88.33177185058594 454.16632080078125 86.17620086669922 450.970947265625 88.80058288574219 451.7757263183594 C 89.2432861328125 448.2685241699219 88.3276138305664 445.6083068847656 86.8481216430664 450.5246887207031 C 89.11256408691406 452.46392822265625 93.46404266357422 452.9669189453125 100.02059173583984 451.3585205078125"/>
    <path stroke-width="0" fill="rgb(75, 135, 136)" opacity="0.058846332" stroke="rgb(0, 0, 0)" stroke-opacity="0.0" stroke-linecap="round" stroke-linejoin="round" d="M 67.92728424072266 402.03765869140625 C 69.12667083740234 405.0749816894531 66.2464599609375 407.9659118652344 62.01960754394531 408.03131103515625 C 58.83137893676758 405.99102783203125 56.53712844848633 402.4980773925781 54.689231872558594 399.51092529296875 C 53.48939895629883 394.3780517578125 54.90717697143555 390.7091369628906 58.71647262573242 393.49896240234375 C 62.79392623901367 396.2654724121094 65.89764404296875 398.817138671875 67.92728424072266 402.03765869140625"/>
    <path stroke-width="0" fill="rgb(154, 98, 190)" opacity="0.2178214" stroke="rgb(0, 0, 0)" stroke-opacity="0.0" stroke-linecap="round" stroke-linejoin="round" d="M 29.678661346435547 1.0871987342834473 C 32.34846115112305 7.6873087882995605 33.86846923828125 12.777740478515625 29.073455810546875 7.9105024337768555 C 21.29385757446289 8.8870849609375 23.699817657470703 4.343944549560547 23.159936904907227 -5.33699369430542 C 20.115108489990234 -3.9630367755889893 23.043787002563477 -6.891108989715576 27.043746948242188 -7.962926387786865 C 31.038196563720703 -6.894080638885498 33.70448684692383 -4.118557929992676 29.678661346435547 1.0871987342834473"/>
    <path stroke-width="0" fill="rgb(65, 120, 145)" opacity="0.33578146" stroke="rgb(0, 0, 0)" stroke-opacity="0.0" stroke-linecap="round" stroke-linejoin="round" d="M 161.78170776367188 41.024635314941406 C 157.89532470703125 46.6916618347168 157.4532012939453 48.8244514465332 151.7702178955078 45.719139099121094 C 147.130615234375 50.9052848815918 146.16751098632812 46.84991455078125 146.2881622314453 41.569522857666016 C 146.3638153076172 39.99872970581055 150.304931640625 37.29301834106445 152.5247039794922 35.04184341430664 C 158.44064331054688 33.23041915893555 160.44363403320312 35.0684814453125 161.78170776367188 41.024635314941406"/>
    <path stroke-width="0" fill="rgb(225, 55, 58)" opacity="0.7484325" stroke="rgb(0, 0, 0)" stroke-opacity="0.0" stroke-linecap="round" stroke-linejoin="round" d="M 14.258832931518555 -16.695833206176758 C 13.18703556060791 -12.695834159851074 10.258832931518555 -9.767630577087402 6.2588324546813965 -8.695834159851074 C 2.2588326930999756 -9.767630577087402 -0.6693705320358276 -12.695834159851074 -1.7411673069000244 -16.695833206176758 C -0.6693705320358276 -20.695833206176758 2.2588326930999756 -23.62403678894043 6.2588324546813965 -24.695833206176758 C 10.258832931518555 -23.62403678894043 13.18703556060791 -20.695833206176758 14.258832931518555 -16.695833206176758"/>
    <path stroke-width="0" fill="rgb(115, 113, 146)" opacity="0.36899593" stroke="rgb(0, 0, 0)" stroke-opacity="0.0" stroke-linecap="round" stroke-linejoin="round" d="M 20.427860260009766 13.125322341918945 C 20.780611038208008 22.70215606689453 20.990581512451172 22.4838924407959 14.25831127166748 23.250913619995117 C 7.2335004806518555 24.200469970703125 3.2020230293273926 24.348073959350586 3.4722325801849365 19.382787704467773 C 1.8438925743103027 9.431009292602539 5.9696173667907715 9.115387916564941 13.342687606811523 9.073240280151367 C 17.593017578125 9.857176780700684 20.90188217163086 13.719223976135254 20.427860260009766 13.125322341918945"/>
    <path stroke-width="0" fill="rgb(139, 144, 106)" opacity="-0.007990204" stroke="rgb(0, 0, 0)" stroke-opacity="0.0" stroke-linecap="round" stroke-linejoin="round" d="M 154.9282684326172 198.899658203125 C 156.1156463623047 202.32272338867188 155.23150634765625 206.91554260253906 150.75357055664062 204.8057098388672 C 141.4527587890625 205.53611755371094 138.5010528564453 203.73390197753906 141.33078002929688 199.10629272460938 C 141.47027587890625 192.6790313720703 144.8205108642578 190.3665771484375 147.24069213867188 191.17202758789062 C 150.21510314941406 191.8174591064453 153.33314514160156 194.635009765625 154.9282684326172 198.899658203125"/>
    <path stroke-width="0" fill="rgb(169, 129, 143)" opacity="0.003685976" stroke="rgb(0, 0, 0)" stroke-opacity="0.0" stroke-linecap="round" stroke-linejoin="round" d="M 38.0024528503418 224.60804748535156 C 37.00429153442383 229.44989013671875 37.29658889770508 232.31561279296875 33.73324203491211 231.8919677734375 C 26.13315200805664 231.3358612060547 23.725751876831055 230.74786376953125 25.20603370666504 224.51898193359375 C 21.48978614807129 217.95529174804688 25.61649513244629 214.8378143310547 30.503713607788086 215.82447814941406 C 36.523399353027344 218.31796264648438 39.75803756713867 219.97532653808594 38.0024528503418 224.60804748535156"/>
    <path stroke-width="0" fill="rgb(67, 129, 71)" opacity="-0.015567274" stroke="rgb(0, 0, 0)" stroke-opacity="0.0" stroke-linecap="round" stroke-linejoin="round" d="M 90.62053680419922 431.7010192871094 C 89.66383361816406 435.06781005859375 87.5152587890625 438.9745788574219 83.75224304199219 440.16705322265625 C 79.56807708740234 438.5488586425781 77.54908752441406 435.109619140625 79.136962890625 431.5450439453125 C 78.7434310913086 428.14630126953125 80.37451171875 424.6643981933594 82.97775268554688 422.22930908203125 C 86.2328872680664 425.71673583984375 89.67716979980469 428.2086486816406 90.62053680419922 431.7010192871094"/>
    <path stroke-width="0" fill="rgb(137, 86, 194)" opacity="0.031414982" stroke="rgb(0, 0, 0)" stroke-opacity="0.0" stroke-linecap="round" stroke-linejoin="round" d="M 172.93359375 170.03347778320312 C 175.56875610351562 171.7042999267578 172.78213500976562 174.94114685058594 167.46693420410156 177.25552368164062 C 164.61366271972656 178.28221130371094 163.61598205566406 170.6832733154297 163.86813354492188 163.95291137695312 C 163.9873809814453 159.73684692382812 163.74270629882812 157.5623016357422 167.25167846679688 157.4580535888672 C 173.49586486816406 159.6533966064453 175.13479614257812 162.24151611328125 172.93359375 170.03347778320312"/>
    <path stroke-width="0" fill="rgb(125, 199, 59)" opacity="0.20359816" stroke="rgb(0, 0, 0)" stroke-opacity="0.0" stroke-linecap="round" stroke-linejoin="round" d="M 345.8879699707031 307.8674621582031 C 344.15899658203125 309.0458679199219 342.68414306640625 311.3360900878906 340.1874084472656 313.83416748046875 C 339.3138122558594 317.9131164550781 341.2162170410156 312.7690124511719 340.3637390136719 306.9753723144531 C 337.2529296875 307.74072265625 346.4996643066406 308.9443359375 348.9979248046875 307.55535888671875 C 345.63104248046875 307.2300109863281 347.4952392578125 309.6439514160156 345.8879699707031 307.8674621582031"/>
    <path stroke-width="0" fill="rgb(34, 170, 61)" opacity="0.110705405" stroke="rgb(0, 0, 0)" stroke-opacity="0.0" stroke-linecap="round" stroke-linejoin="round" d="M 356.43487548828125 236.3856201171875 C 353.452880859375 243.71632385253906 351.636962890625 242.0302734375 345.9036560058594 238.92112731933594 C 342.5689697265625 240.5458221435547 339.8803405761719 238.1315155029297 341.0382385253906 241.47581481933594 C 340.8461608886719 237.7005157470703 343.7048034667969 235.00604248046875 345.7499694824219 232.39076232910156 C 346.60736083984375 232.50674438476562 351.3421325683594 233.37069702148438 356.43487548828125 236.3856201171875"/>
    <path stroke-width="0" fill="rgb(89, 83, 68)" opacity="0.04701055" stroke="rgb(0, 0, 0)" stroke-opacity="0.0" stroke-linecap="round" stroke-linejoin="round" d="M 443.4278564453125 251.83712768554688 C 443.7153015136719 253.07044982910156 442.90545654296875 261.16326904296875 443.8777160644531 260.1761474609375 C 445.5480651855469 249.6312255859375 442.4931335449219 249.19654846191406 437.6419677734375 246.57427978515625 C 440.8558349609375 252.3313751220703 443.96014404296875 250.58975219726562 443.679443359375 247.26466369628906 C 440.5575256347656 246.46102905273438 440.89361572265625 251.942626953125 443.4278564453125 251.83712768554688"/>
    <path stroke-width="0" fill="rgb(178, 110, 37)" opacity="0.26123095" stroke="rgb(0, 0, 0)" stroke-opacity="0.0" stroke-linecap="round" stroke-linejoin="round" d="M 359.5535583496094 262.0780029296875 C 366.66693115234375 263.12701416015625 365.8973693847656 265.713623046875 361.4698791503906 260.07171630859375 C 348.89630126953125 257.8865051269531 346.7799987792969 258.2463684082031 351.34356689453125 254.14321899414062 C 349.7425842285156 244.93585205078125 349.87200927734375 241.279296875 356.29669189453125 246.67242431640625 C 361.22052001953125 251.06295776367188 366.56219482421875 253.66683959960938 359.5535583496094 262.0780029296875"/>
    <path stroke-width="0" fill="rgb(137, 105, 93)" opacity="0.073959924" stroke="rgb(0, 0, 0)" stroke-opacity="0.0" stroke-linecap="round" stroke-linejoin="round" d="M 159.98793029785156 511.9647521972656 C 171.9938507080078 512.9254150390625 173.77342224121094 513.4353637695312 165.58274841308594 515.7890625 C 157.70021057128906 515.5330200195312 158.69207763671875 513.5272216796875 160.21762084960938 510.42620849609375 C 159.96302795410156 499.0013732910156 158.3971710205078 493.4058532714844 158.27676391601562 512.2080078125 C 165.6939697265625 508.72015380859375 167.62582397460938 505.8592529296875 159.98793029785156 511.9647521972656"/>
    <path stroke-width="0" fill="rgb(22, 155, 29)" opacity="0.13345192" stroke="rgb(0, 0, 0)" stroke-opacity="0.0" stroke-linecap="round" stroke-linejoin="round" d="M -100.48587799072266 -83.45436096191406 C -101.55767822265625 -79.45436096191406 -104.48587799072266 -76.52615356445312 -108.48587799072266 -75.45436096191406 C -112.48587799072266 -76.52615356445312 -115.4140853881836 -79.45436096191406 -116.48587799072266 -83.45436096191406 C -115.4140853881836 -87.45436096191406 -112.48587799072266 -90.38256072998047 -108.48587799072266 -91.45436096191406 C -104.48587799072266 -90.38256072998047 -101.55767822265625 -87.45436096191406 -100.48587799072266 -83.45436096191406"/>
    <path stroke-width="0" fill="rgb(178, 131, 130)" opacity="0.27009904" stroke="rgb(0, 0, 0)" stroke-opacity="0.0" stroke-linecap="round" stroke-linejoin="round" d="M 449.2936096191406 373.4355773925781 C 444.03497314453125 373.582275390625 444.5279846191406 375.8370056152344 445.2781982421875 374.07623291015625 C 433.271484375 376.910400390625 434.4750061035156 377.794677734375 438.56451416015625 370.7330627441406 C 432.9377746582031 370.7445068359375 436.1397705078125 367.9393005371094 434.89434814453125 368.3814697265625 C 440.4574890136719 368.876220703125 443.3807373046875 373.2572021484375 449.2936096191406 373.4355773925781"/>
    <path stroke-width="0" fill="rgb(187, 96, 52)" opacity="0.4513537" stroke="rgb(0, 0, 0)" stroke-opacity="0.0" stroke-linecap="round" stroke-linejoin="round" d="M -0.10039626806974411 -1.159335732460022 C -1.0224260091781616 3.737919330596924 -2.896012783050537 7.530131816864014 -6.448101043701172 8.862656593322754 C -10.362608909606934 7.76533317565918 -13.290812492370605 4.837129592895508 -14.362608909606934 0.8371297717094421 C -13.290812492370605 -3.162870168685913 -10.362608909606934 -6.091073513031006 -6.363867282867432 -7.162430763244629 C -2.4274260997772217 -6.066844940185547 0.30009526014328003 -2.932833671569824 -0.10039626806974411 -1.159335732460022"/>
    <path stroke-width="0" fill="rgb(76, 125, 135)" opacity="0.734118" stroke="rgb(0, 0, 0)" stroke-opacity="0.0" stroke-linecap="round" stroke-linejoin="round" d="M 137.33059692382812 386.58087158203125 C 139.03363037109375 390.98004150390625 138.74920654296875 394.3293151855469 136.86727905273438 389.6169128417969 C 124.99010467529297 395.24835205078125 126.66751098632812 395.2544250488281 128.24078369140625 387.42547607421875 C 123.53710174560547 378.0196838378906 127.75289916992188 377.1835632324219 133.25450134277344 378.0124816894531 C 137.21536254882812 378.0033264160156 139.73643493652344 381.3506164550781 137.33059692382812 386.58087158203125"/>
    <path stroke-width="0" fill="rgb(186, 199, 232)" opacity="-0.0031261551" stroke="rgb(0, 0, 0)" stroke-opacity="0.0" stroke-linecap="round" stroke-linejoin="round" d="M 43.43400955200195 144.02032470703125 C 45.92777633666992 148.1543731689453 44.77810287475586 149.73721313476562 40.189308166503906 150.3206787109375 C 35.2080078125 148.8404083251953 29.663854598999023 147.79722595214844 31.09263801574707 144.680419921875 C 33.172725677490234 140.45545959472656 35.160797119140625 136.45249938964844 37.4518928527832 136.49794006347656 C 41.069522857666016 136.2151336669922 43.51933670043945 138.768310546875 43.43400955200195 144.02032470703125"/>
    <path stroke-width="0" fill="rgb(213, 11, 17)" opacity="0.5931626" stroke="rgb(0, 0, 0)" stroke-opacity="0.0" stroke-linecap="round" stroke-linejoin="round" d="M 24.668621063232422 -21.762842178344727 C 23.596824645996094 -17.762842178344727 20.668621063232422 -14.834639549255371 16.668621063232422 -13.762843132019043 C 12.668622016906738 -14.834639549255371 9.740418434143066 -17.762842178344727 8.668622016906738 -21.762842178344727 C 9.740418434143066 -25.762842178344727 12.668622016906738 -28.6910457611084 16.668621063232422 -29.762842178344727 C 20.668621063232422 -28.6910457611084 23.596824645996094 -25.762842178344727 24.668621063232422 -21.762842178344727"/>
    <path stroke-width="0" fill="rgb(126, 251, 169)" opacity="0.54950905" stroke="rgb(0, 0, 0)" stroke-opacity="0.0" stroke-linecap="round" stroke-linejoin="round" d="M 108.10499572753906 -84.74349212646484 C 107.033203125 -80.74349212646484 104.10499572753906 -77.8152847290039 100.10499572753906 -76.74349212646484 C 96.10499572753906 -77.8152847290039 93.17679595947266 -80.74349212646484 92.10499572753906 -84.74349212646484 C 93.17679595947266 -88.74349212646484 96.10499572753906 -91.67169189453125 100.10499572753906 -92.74349212646484 C 104.10499572753906 -91.67169189453125 107.033203125 -88.74349212646484 108.10499572753906 -84.74349212646484"/>
    <path stroke-width="0" fill="rgb(197, 121, 32)" opacity="0.03342436" stroke="rgb(0, 0, 0)" stroke-opacity="0.0" stroke-linecap="round" stroke-linejoin="round" d="M 1.389222264289856 -17.607885360717773 C 0.3174254894256592 -13.607885360717773 -2.6107778549194336 -10.679681777954102 -6.610777854919434 -9.607885360717773 C -10.610777854919434 -10.679681777954102 -13.538981437683105 -13.607885360717773 -14.610777854919434 -17.607885360717773 C -13.538981437683105 -21.607885360717773 -10.610777854919434 -24.536088943481445 -6.610777854919434 -25.607885360717773 C -2.6107778549194336 -24.536088943481445 0.3174254894256592 -21.607885360717773 1.389222264289856 -17.607885360717773"/>
    <path stroke-width="0" fill="rgb(89, 96, 91)" opacity="0.13818116" stroke="rgb(0, 0, 0)" stroke-opacity="0.0" stroke-linecap="round" stroke-linejoin="round" d="M 58.8843879699707 460.1199951171875 C 60.0075798034668 464.30621337890625 61.59671401977539 461.8677062988281 58.32604217529297 461.27362060546875 C 55.59274673461914 459.63153076171875 49.6776237487793 458.00543212890625 47.76580047607422 461.8830871582031 C 46.25065231323242 452.52154541015625 51.181480407714844 450.0217590332031 55.78590393066406 449.5992736816406 C 57.46177673339844 449.3044738769531 60.437774658203125 448.32769775390625 58.8843879699707 460.1199951171875"/>
    <path stroke-width="0" fill="rgb(85, 129, 150)" opacity="0.47379002" stroke="rgb(0, 0, 0)" stroke-opacity="0.0" stroke-linecap="round" stroke-linejoin="round" d="M 199.1197967529297 459.50439453125 C 202.4248046875 458.1846923828125 198.70294189453125 463.4439697265625 198.70655822753906 459.20330810546875 C 187.73924255371094 459.49462890625 193.35711669921875 463.417236328125 192.76622009277344 454.68695068359375 C 189.7801055908203 453.8114013671875 192.28306579589844 453.7422180175781 198.7100067138672 453.8734130859375 C 195.50180053710938 453.4086608886719 195.43601989746094 453.2130126953125 199.1197967529297 459.50439453125"/>
    <path stroke-width="0" fill="rgb(112, 122, 98)" opacity="0.040721294" stroke="rgb(0, 0, 0)" stroke-opacity="0.0" stroke-linecap="round" stroke-linejoin="round" d="M 134.73907470703125 414.9869384765625 C 130.9080352783203 418.7038269042969 128.6763458251953 423.51226806640625 127.6390380859375 425.0283203125 C 123.53569793701172 419.83038330078125 121.52828979492188 415.70989990234375 118.87249755859375 413.4469909667969 C 117.04025268554688 410.7088317871094 119.95054626464844 406.8733825683594 121.36917114257812 409.34423828125 C 128.34295654296875 412.11212158203125 133.890869140625 410.7512512207031 134.73907470703125 414.9869384765625"/>
    <path stroke-width="0" fill="rgb(151, 74, 182)" opacity="0.064175695" stroke="rgb(0, 0, 0)" stroke-opacity="0.0" stroke-linecap="round" stroke-linejoin="round" d="M 317.7569885253906 461.3606262207031 C 317.7119445800781 464.9151611328125 323.7399597167969 464.4958801269531 318.1320495605469 461.37054443359375 C 309.49249267578125 466.9533996582031 309.2463073730469 468.1207275390625 313.060791015625 461.969970703125 C 311.717041015625 457.5481262207031 315.0572814941406 457.10357666015625 312.8403015136719 461.4041442871094 C 315.720458984375 464.16229248046875 323.5079345703125 462.027099609375 317.7569885253906 461.3606262207031"/>
    <path stroke-width="0" fill="rgb(9, 194, 72)" opacity="-0.054579612" stroke="rgb(0, 0, 0)" stroke-opacity="0.0" stroke-linecap="round" stroke-linejoin="round" d="M 172.6502227783203 411.9570617675781 C 169.6032257080078 414.9020690917969 165.6774444580078 417.7875061035156 167.55157470703125 424.15338134765625 C 170.32357788085938 420.8373718261719 163.0634765625 420.4311828613281 161.08908081054688 418.2751159667969 C 165.32362365722656 417.0870361328125 171.31857299804688 416.7944641113281 175.78866577148438 415.36187744140625 C 174.40122985839844 411.3753967285156 177.62213134765625 414.54937744140625 172.6502227783203 411.9570617675781"/>
    <path stroke-width="0" fill="rgb(74, 125, 133)" opacity="0.41804466" stroke="rgb(0, 0, 0)" stroke-opacity="0.0" stroke-linecap="round" stroke-linejoin="round" d="M 60.219234466552734 295.2164611816406 C 61.02251434326172 298.1894836425781 63.58616638183594 303.3723449707031 58.64647674560547 302.2790222167969 C 52.01656723022461 304.99383544921875 53.802791595458984 303.54620361328125 55.606021881103516 298.7556457519531 C 57.69548034667969 299.9441223144531 61.33942794799805 295.9180603027344 58.96376037597656 295.764404296875 C 60.205589294433594 296.8075256347656 65.10103607177734 297.7052307128906 60.219234466552734 295.2164611816406"/>
    <path stroke-width="0" fill="rgb(43, 78, 92)" opacity="0.22285615" stroke="rgb(0, 0, 0)" stroke-opacity="0.0" stroke-linecap="round" stroke-linejoin="round" d="M 355.1927185058594 240.0409698486328 C 355.9985046386719 248.9894561767578 355.9501647949219 253.224853515625 357.70208740234375 246.85311889648438 C 349.2761535644531 245.5022735595703 344.0530090332031 245.30992126464844 344.5336608886719 238.3797607421875 C 342.66778564453125 232.197998046875 345.029296875 233.2192840576172 355.5351257324219 232.16697692871094 C 356.389404296875 229.0623016357422 356.6382141113281 234.55015563964844 355.1927185058594 240.0409698486328"/>
  </g>
</svg>
