<?xml version="1.0" ?>
<svg xmlns="http://www.w3.org/2000/svg" version="1.1" width="512" height="512">
  <defs/>
  <g>
    <path stroke-width="0" fill="rgb(65, 88, 232)" opacity="1.1418937" stroke="rgb(139, 182, 153)" stroke-opacity="1.0" stroke-linecap="round" stroke-linejoin="round" d="M 211.8557586669922 -12.178299903869629 C 159.5894012451172 -3.0623974800109863 196.69146728515625 52.361236572265625 70.9575424194336 133.21580505371094 C 58.279327392578125 122.39116668701172 54.780418395996094 110.5787124633789 53.474029541015625 89.0824966430664 C 53.33895492553711 -70.31565856933594 65.25559997558594 -70.34957885742188 84.75186920166016 -59.90150451660156 C 196.87890625 -32.08534240722656 204.9210205078125 -25.525909423828125 211.8557586669922 -12.178299903869629"/>
    <path stroke-width="0" fill="rgb(56, 61, 225)" opacity="0.9851876" stroke="rgb(108, 164, 111)" stroke-opacity="1.0" stroke-linecap="round" stroke-linejoin="round" d="M 144.87876892089844 78.36610412597656 C 156.15708923339844 158.0972137451172 160.5414276123047 170.83203125 98.75279998779297 172.24256896972656 C -60.68463134765625 166.22914123535156 -47.666873931884766 136.38516235351562 -41.0458869934082 85.24244689941406 C -38.50617218017578 -35.472816467285156 -31.483736038208008 -40.57529067993164 61.28559494018555 -41.542415618896484 C 132.6699981689453 -54.481040954589844 145.2901153564453 -62.24406433105469 144.87876892089844 78.36610412597656"/>
    <path stroke-width="0" fill="rgb(45, 64, 218)" opacity="0.985806" stroke="rgb(245, 97, 201)" stroke-opacity="1.0" stroke-linecap="round" stroke-linejoin="round" d="M 489.04156494140625 527.9494018554688 C 350.8706970214844 582.8856811523438 327.6231384277344 574.8817749023438 -39.52774429321289 555.3480224609375 C -75.76151275634766 413.1372375488281 -51.65288543701172 351.97052001953125 -48.70100021362305 137.39976501464844 C -54.647953033447266 100.23514556884766 -56.98707580566406 88.99244689941406 154.22592163085938 84.12871551513672 C 270.6573181152344 75.475341796875 402.4315185546875 26.78876304626465 489.04156494140625 527.9494018554688"/>
    <path stroke-width="0" fill="rgb(-21, 94, 149)" opacity="1.0094393" stroke="rgb(144, 236, 18)" stroke-opacity="1.0" stroke-linecap="round" stroke-linejoin="round" d="M 553.1292724609375 547.27294921875 C 344.2519226074219 508.369873046875 287.4285888671875 420.6504821777344 183.81112670898438 298.40643310546875 C 96.99520874023438 152.0914306640625 70.2503662109375 148.4762725830078 52.909420013427734 126.03723907470703 C 176.4317169189453 18.569793701171875 128.6252899169922 -33.457767486572266 445.8836364746094 -60.4785041809082 C 555.062744140625 -124.77310180664062 573.008544921875 -219.4150390625 553.1292724609375 547.27294921875"/>
    <path stroke-width="0" fill="rgb(259, 235, 182)" opacity="0.97781736" stroke="rgb(5, 212, 198)" stroke-opacity="1.0" stroke-linecap="round" stroke-linejoin="round" d="M 371.25640869140625 359.6226806640625 C 341.1933898925781 306.1575012207031 387.6465148925781 437.4324951171875 346.8382568359375 405.1222839355469 C 349.0210876464844 277.4307861328125 240.1657257080078 483.210205078125 280.0799255371094 326.2833251953125 C 242.17532348632812 250.77166748046875 290.7698059082031 232.36485290527344 274.9283752441406 311.71746826171875 C 370.5177001953125 224.26766967773438 348.2059631347656 334.01123046875 371.25640869140625 359.6226806640625"/>
    <path stroke-width="0" fill="rgb(243, 255, 258)" opacity="1.0179404" stroke="rgb(249, 203, 117)" stroke-opacity="1.0" stroke-linecap="round" stroke-linejoin="round" d="M 263.20135498046875 328.8968505859375 C 245.8883056640625 351.8360595703125 291.77789306640625 358.13958740234375 234.33206176757812 349.7801513671875 C 218.3905792236328 345.67669677734375 202.5885009765625 314.5596618652344 199.41412353515625 336.3778076171875 C 174.51239013671875 308.8030090332031 156.47378540039062 314.59747314453125 193.67361450195312 282.4862365722656 C 277.06646728515625 301.4859313964844 266.6347961425781 265.68426513671875 263.20135498046875 328.8968505859375"/>
    <path stroke-width="0" fill="rgb(268, 226, 159)" opacity="1.0484704" stroke="rgb(30, 163, 36)" stroke-opacity="1.0" stroke-linecap="round" stroke-linejoin="round" d="M 401.30224609375 329.7994384765625 C 400.1647033691406 378.10369873046875 380.99456787109375 370.3740539550781 336.2972412109375 346.0528869628906 C 380.8116455078125 319.5528869628906 332.6541442871094 319.2998962402344 287.1400451660156 303.45355224609375 C 225.8675537109375 273.5175476074219 297.4017639160156 209.17242431640625 342.1500549316406 282.6630859375 C 333.0992126464844 291.6366882324219 359.4794006347656 266.0574035644531 401.30224609375 329.7994384765625"/>
    <path stroke-width="0" fill="rgb(255, 142, 13)" opacity="0.9718547" stroke="rgb(133, 105, 67)" stroke-opacity="1.0" stroke-linecap="round" stroke-linejoin="round" d="M 302.90106201171875 92.91815185546875 C 318.7270202636719 235.42608642578125 130.8532257080078 244.5163116455078 223.64352416992188 80.20494079589844 C 183.3117218017578 181.8721160888672 144.386474609375 239.34857177734375 181.39830017089844 123.11795806884766 C 219.63632202148438 49.9804801940918 213.3350830078125 62.74101257324219 233.27845764160156 66.9352798461914 C 240.52420043945312 100.51930236816406 226.254150390625 124.72994232177734 302.90106201171875 92.91815185546875"/>
    <path stroke-width="0" fill="rgb(263, 232, 198)" opacity="0.9130142" stroke="rgb(116, 144, 4)" stroke-opacity="1.0" stroke-linecap="round" stroke-linejoin="round" d="M 303.29083251953125 316.1212158203125 C 310.5356750488281 333.9217224121094 393.11236572265625 332.6051330566406 193.76527404785156 285.42730712890625 C 197.93603515625 270.0127258300781 155.04855346679688 378.687744140625 151.77670288085938 246.58364868164062 C 222.82913208007812 -36.58522033691406 156.22216796875 227.56710815429688 266.1759033203125 236.0997314453125 C 291.9991149902344 255.4220733642578 261.62921142578125 136.2274169921875 303.29083251953125 316.1212158203125"/>
    <path stroke-width="0" fill="rgb(264, 260, 258)" opacity="0.9900692" stroke="rgb(156, 157, 240)" stroke-opacity="1.0" stroke-linecap="round" stroke-linejoin="round" d="M 229.6809539794922 213.42784118652344 C 303.74554443359375 263.8053894042969 182.96710205078125 231.25680541992188 200.9637908935547 186.50096130371094 C 309.45806884765625 301.6287536621094 166.5428009033203 129.5047607421875 235.84005737304688 235.40879821777344 C 166.6836395263672 185.67831420898438 129.5867156982422 106.73408508300781 281.1607666015625 190.20028686523438 C 321.8584899902344 267.69964599609375 182.59690856933594 162.0867156982422 229.6809539794922 213.42784118652344"/>
    <path stroke-width="0" fill="rgb(273, 225, 149)" opacity="0.8547013" stroke="rgb(91, 111, 177)" stroke-opacity="1.0" stroke-linecap="round" stroke-linejoin="round" d="M 177.03955078125 265.7848815917969 C 148.4690399169922 250.7100067138672 235.0071563720703 278.58612060546875 176.99229431152344 406.34912109375 C 110.98372650146484 431.8299865722656 187.0013427734375 444.920166015625 156.17250061035156 290.0731201171875 C 152.0124053955078 165.94500732421875 164.20919799804688 270.6567687988281 179.49327087402344 129.42678833007812 C 355.64617919921875 36.78269958496094 89.96895599365234 195.7778778076172 177.03955078125 265.7848815917969"/>
    <path stroke-width="0" fill="rgb(269, 240, 196)" opacity="1.0799383" stroke="rgb(170, 171, 53)" stroke-opacity="1.0" stroke-linecap="round" stroke-linejoin="round" d="M 282.600341796875 323.126708984375 C 263.44818115234375 422.9502258300781 266.85552978515625 437.5567626953125 265.7861328125 437.3335266113281 C 224.5845947265625 440.62017822265625 244.4199676513672 460.3492126464844 247.4963836669922 342.49188232421875 C 230.40736389160156 312.11163330078125 198.19955444335938 303.9592590332031 259.57476806640625 268.6436767578125 C 295.3871765136719 224.34396362304688 283.54437255859375 238.0861358642578 282.600341796875 323.126708984375"/>
    <path stroke-width="0" fill="rgb(312, 229, 252)" opacity="0.82035756" stroke="rgb(80, 92, 145)" stroke-opacity="1.0" stroke-linecap="round" stroke-linejoin="round" d="M 168.0843048095703 414.5874328613281 C 191.02906799316406 399.8553466796875 152.31507873535156 397.1999206542969 153.195556640625 409.9985046386719 C 199.60110473632812 408.76068115234375 169.19308471679688 417.819580078125 183.436279296875 392.11859130859375 C 138.3861846923828 418.1477966308594 145.57537841796875 386.6311340332031 184.14251708984375 407.7110595703125 C 146.23507690429688 370.1859436035156 178.87185668945312 405.5827331542969 168.0843048095703 414.5874328613281"/>
    <path stroke-width="0" fill="rgb(214, 209, 169)" opacity="0.9722455" stroke="rgb(166, 64, 118)" stroke-opacity="1.0" stroke-linecap="round" stroke-linejoin="round" d="M 193.67942810058594 335.3721923828125 C 201.04197692871094 343.08062744140625 178.1860809326172 348.7409362792969 195.3189239501953 308.2513427734375 C 202.8221893310547 349.3126525878906 214.51776123046875 297.51214599609375 194.1331024169922 349.4660339355469 C 195.15145874023438 339.2368469238281 193.06268310546875 327.0672607421875 182.80645751953125 365.1801452636719 C 187.22265625 354.4841003417969 191.67156982421875 376.5373229980469 193.67942810058594 335.3721923828125"/>
    <path stroke-width="0" fill="rgb(337, 288, 225)" opacity="0.92479193" stroke="rgb(50, 94, 209)" stroke-opacity="1.0" stroke-linecap="round" stroke-linejoin="round" d="M 184.79693603515625 387.1449890136719 C 177.3528594970703 418.6888732910156 166.55943298339844 413.57305908203125 214.90292358398438 403.26373291015625 C 150.05477905273438 416.76385498046875 178.3968963623047 421.7674255371094 148.6566925048828 417.5628967285156 C 142.3177032470703 383.75323486328125 163.02786254882812 410.1967468261719 170.3078155517578 393.6593322753906 C 139.63319396972656 386.76470947265625 192.21922302246094 400.4724426269531 184.79693603515625 387.1449890136719"/>
    <path stroke-width="0" fill="rgb(-18, 93, 155)" opacity="0.9835025" stroke="rgb(72, 30, 75)" stroke-opacity="1.0" stroke-linecap="round" stroke-linejoin="round" d="M 440.6191101074219 633.0122680664062 C -27.298131942749023 448.6649475097656 506.6658020019531 376.2174377441406 541.1029663085938 356.0335998535156 C 276.3410339355469 428.8462219238281 503.4478759765625 373.4073181152344 319.6614685058594 251.291748046875 C 245.73765563964844 245.40814208984375 304.2026062011719 243.71310424804688 286.09552001953125 118.28633117675781 C 339.30426025390625 57.561248779296875 697.009521484375 -19.227468490600586 440.6191101074219 633.0122680664062"/>
    <path stroke-width="0" fill="rgb(295, 282, 21)" opacity="0.69491595" stroke="rgb(146, 236, 81)" stroke-opacity="1.0" stroke-linecap="round" stroke-linejoin="round" d="M 190.45457458496094 96.21947479248047 C 199.4170379638672 110.01765441894531 200.8363800048828 109.41039276123047 189.43423461914062 117.44925689697266 C 185.8385467529297 130.75733947753906 202.2891845703125 130.39208984375 210.78506469726562 122.23812866210938 C 191.86639404296875 107.95858001708984 192.2802734375 103.25798034667969 191.61639404296875 104.56432342529297 C 193.11976623535156 103.2375717163086 204.17506408691406 117.02278900146484 190.45457458496094 96.21947479248047"/>
    <path stroke-width="0" fill="rgb(5, 74, 169)" opacity="0.7335342" stroke="rgb(33, 182, 73)" stroke-opacity="1.0" stroke-linecap="round" stroke-linejoin="round" d="M 285.4158935546875 128.04098510742188 C 304.4179382324219 169.07696533203125 285.72833251953125 130.43167114257812 288.14141845703125 132.62210083007812 C 292.424560546875 130.26087951660156 290.75091552734375 137.97853088378906 296.3161926269531 127.10696411132812 C 283.3910217285156 177.61012268066406 287.8812255859375 143.5586395263672 290.4288635253906 169.106689453125 C 292.8393859863281 97.52145385742188 292.1625061035156 168.3400115966797 285.4158935546875 128.04098510742188"/>
    <path stroke-width="0" fill="rgb(235, 54, -31)" opacity="1.0594332" stroke="rgb(149, 5, 211)" stroke-opacity="1.0" stroke-linecap="round" stroke-linejoin="round" d="M 281.99554443359375 198.2962188720703 C 287.307861328125 199.7600555419922 269.8010559082031 191.98838806152344 263.9362487792969 183.6969757080078 C 280.1156005859375 175.23709106445312 251.795654296875 190.223388671875 243.35205078125 184.6294708251953 C 186.95004272460938 141.28021240234375 306.1449890136719 181.3219757080078 280.5298767089844 175.307373046875 C 285.78289794921875 203.19363403320312 329.75750732421875 205.63870239257812 281.99554443359375 198.2962188720703"/>
    <path stroke-width="0" fill="rgb(43, 90, 154)" opacity="-0.09142922" stroke="rgb(172, 68, 187)" stroke-opacity="1.0" stroke-linecap="round" stroke-linejoin="round" d="M 302.0016174316406 100.2569351196289 C 294.7807922363281 101.52056884765625 344.08905029296875 81.86107635498047 300.28436279296875 135.86837768554688 C 322.9292907714844 94.73029327392578 317.3244934082031 86.55448150634766 268.05108642578125 99.702880859375 C 259.99249267578125 102.9820327758789 347.8800048828125 73.39962768554688 286.7613830566406 124.27436065673828 C 288.0541076660156 135.0060272216797 275.4049072265625 125.86793518066406 302.0016174316406 100.2569351196289"/>
    <path stroke-width="0" fill="rgb(89, 118, -5)" opacity="0.045770433" stroke="rgb(63, 146, 150)" stroke-opacity="1.0" stroke-linecap="round" stroke-linejoin="round" d="M 294.35980224609375 94.93932342529297 C 285.8694763183594 92.1540298461914 313.51129150390625 90.82186126708984 302.2837219238281 102.26486206054688 C 313.4107971191406 90.22986602783203 292.9315185546875 94.31901550292969 306.1629943847656 94.85559844970703 C 302.58380126953125 104.11097717285156 322.011474609375 96.3169937133789 287.1595764160156 93.55069732666016 C 271.8092956542969 98.8957290649414 238.43011474609375 108.00128173828125 294.35980224609375 94.93932342529297"/>
    <path stroke-width="0" fill="rgb(106, -16, -102)" opacity="0.75383306" stroke="rgb(56, 242, 114)" stroke-opacity="1.0" stroke-linecap="round" stroke-linejoin="round" d="M 175.48818969726562 145.17921447753906 C 181.72918701171875 133.70822143554688 182.29055786132812 128.89425659179688 178.3424072265625 136.63084411621094 C 205.3196258544922 75.89035034179688 191.13613891601562 119.08731842041016 175.5423583984375 150.64500427246094 C 172.88485717773438 159.61404418945312 172.8043212890625 171.79541015625 172.65895080566406 157.6889190673828 C 167.00054931640625 175.6810302734375 169.8966522216797 172.6876678466797 175.48818969726562 145.17921447753906"/>
    <path stroke-width="0" fill="rgb(111, -47, -48)" opacity="1.0168208" stroke="rgb(178, 75, 207)" stroke-opacity="1.0" stroke-linecap="round" stroke-linejoin="round" d="M 221.37147521972656 90.328125 C 226.32212829589844 86.86941528320312 228.5285186767578 90.55650329589844 224.95321655273438 106.109619140625 C 182.30337524414062 161.80633544921875 212.1885223388672 111.51052856445312 214.00425720214844 86.67045593261719 C 208.33489990234375 124.83647155761719 215.16468811035156 98.5268325805664 210.88409423828125 93.1885757446289 C 219.76844787597656 83.50457763671875 204.41143798828125 109.98748779296875 221.37147521972656 90.328125"/>
    <path stroke-width="0" fill="rgb(32, -5, -113)" opacity="0.7972348" stroke="rgb(224, 148, 224)" stroke-opacity="1.0" stroke-linecap="round" stroke-linejoin="round" d="M 295.24591064453125 217.9529571533203 C 293.57470703125 216.02032470703125 287.3973083496094 235.2195587158203 306.74835205078125 213.69313049316406 C 305.03076171875 196.7885284423828 276.7856750488281 205.8221893310547 287.1131591796875 200.24234008789062 C 292.0205078125 179.88687133789062 275.06500244140625 205.42384338378906 287.3536071777344 196.2173309326172 C 293.994140625 202.80923461914062 293.11883544921875 193.3637237548828 295.24591064453125 217.9529571533203"/>
    <path stroke-width="0" fill="rgb(43, 108, 96)" opacity="0.14976916" stroke="rgb(108, 154, 4)" stroke-opacity="1.0" stroke-linecap="round" stroke-linejoin="round" d="M 237.99746704101562 423.2105407714844 C 240.290283203125 392.5688781738281 209.2666778564453 423.6910400390625 279.6275939941406 416.9899597167969 C 252.38970947265625 417.14599609375 283.6278991699219 430.39727783203125 269.6484375 380.4128723144531 C 268.1486511230469 429.5279846191406 257.76678466796875 409.4651794433594 264.3606872558594 413.51446533203125 C 212.23716735839844 414.1267395019531 260.7017517089844 397.66162109375 237.99746704101562 423.2105407714844"/>
    <path stroke-width="0" fill="rgb(58, 65, 188)" opacity="-0.018845648" stroke="rgb(168, 73, 157)" stroke-opacity="1.0" stroke-linecap="round" stroke-linejoin="round" d="M 137.3598175048828 369.66552734375 C 189.58535766601562 385.4207763671875 141.53341674804688 379.15435791015625 162.60406494140625 380.8247375488281 C 166.31520080566406 391.1140441894531 162.69155883789062 394.38885498046875 168.2393035888672 350.6251220703125 C 159.92457580566406 370.7977294921875 157.74453735351562 348.4516296386719 158.81582641601562 357.9179992675781 C 171.02200317382812 368.9668884277344 170.71267700195312 380.4946594238281 137.3598175048828 369.66552734375"/>
    <path stroke-width="0" fill="rgb(145, 60, -50)" opacity="-0.01231916" stroke="rgb(34, 76, 145)" stroke-opacity="1.0" stroke-linecap="round" stroke-linejoin="round" d="M 221.75277709960938 127.3913803100586 C 199.03456115722656 108.96660614013672 212.098388671875 91.63078308105469 225.12576293945312 106.55059051513672 C 203.99818420410156 62.24477005004883 226.02024841308594 76.23675537109375 198.62454223632812 104.1678695678711 C 186.79354858398438 147.34730529785156 192.00558471679688 73.23661804199219 235.4720458984375 106.19052124023438 C 241.23008728027344 67.46373748779297 172.33355712890625 80.73493957519531 221.75277709960938 127.3913803100586"/>
    <path stroke-width="0" fill="rgb(273, 36, 6)" opacity="0.12078703" stroke="rgb(146, 166, 166)" stroke-opacity="1.0" stroke-linecap="round" stroke-linejoin="round" d="M 165.13555908203125 200.57151794433594 C 163.77886962890625 199.9667205810547 164.88914489746094 200.9970703125 166.2570037841797 184.9470977783203 C 162.80953979492188 207.68048095703125 168.72499084472656 150.01821899414062 172.94943237304688 181.9003143310547 C 169.1401824951172 192.77310180664062 172.46353149414062 192.08880615234375 172.10189819335938 201.5334930419922 C 173.2384033203125 201.05284118652344 171.11181640625 203.63943481445312 165.13555908203125 200.57151794433594"/>
    <path stroke-width="0" fill="rgb(288, 45, -176)" opacity="0.63201576" stroke="rgb(228, 93, 111)" stroke-opacity="1.0" stroke-linecap="round" stroke-linejoin="round" d="M 236.09815979003906 129.1869354248047 C 237.4634552001953 96.26522827148438 228.14523315429688 59.629295349121094 226.4269256591797 82.94491577148438 C 224.98062133789062 120.46353149414062 229.39889526367188 147.9004364013672 214.05389404296875 99.18785095214844 C 242.3030242919922 85.73565673828125 294.8675231933594 149.62942504882812 268.141845703125 123.569580078125 C 224.9197235107422 109.48657989501953 243.2620086669922 98.51334381103516 236.09815979003906 129.1869354248047"/>
    <path stroke-width="0" fill="rgb(238, 171, 129)" opacity="0.40543154" stroke="rgb(205, 179, 25)" stroke-opacity="1.0" stroke-linecap="round" stroke-linejoin="round" d="M 198.0170440673828 99.65776062011719 C 229.6521453857422 80.89986419677734 176.02162170410156 119.6063232421875 210.48558044433594 102.25141143798828 C 240.44996643066406 110.36738586425781 215.01104736328125 52.34274673461914 205.6709747314453 92.58671569824219 C 179.8589630126953 81.8737564086914 224.09788513183594 94.07766723632812 216.46780395507812 116.593017578125 C 260.7054138183594 86.31941986083984 218.16880798339844 106.0178451538086 198.0170440673828 99.65776062011719"/>
    <path stroke-width="0" fill="rgb(205, 155, 97)" opacity="-0.057267446" stroke="rgb(205, 145, 103)" stroke-opacity="1.0" stroke-linecap="round" stroke-linejoin="round" d="M 281.8243103027344 147.2899627685547 C 284.4017028808594 120.83749389648438 278.9281005859375 142.25518798828125 286.53033447265625 132.17056274414062 C 285.2363586425781 155.5919647216797 275.7734680175781 144.25189208984375 293.20367431640625 150.60116577148438 C 294.1020202636719 147.98776245117188 276.02606201171875 119.5274429321289 286.7557678222656 149.55361938476562 C 282.5335693359375 127.80260467529297 287.6108093261719 138.39642333984375 281.8243103027344 147.2899627685547"/>
    <path stroke-width="0" fill="rgb(106, 92, 187)" opacity="0.14889276" stroke="rgb(177, 115, 184)" stroke-opacity="1.0" stroke-linecap="round" stroke-linejoin="round" d="M 163.16921997070312 184.8062286376953 C 166.13577270507812 203.26470947265625 163.6482696533203 205.56080627441406 167.24996948242188 201.87657165527344 C 165.6551055908203 215.28038024902344 153.84014892578125 218.9330596923828 158.13394165039062 223.07359313964844 C 158.56190490722656 201.29319763183594 164.9945068359375 207.23733520507812 158.55979919433594 210.7750244140625 C 172.79307556152344 202.91136169433594 168.2008514404297 202.82452392578125 163.16921997070312 184.8062286376953"/>
    <path stroke-width="0" fill="rgb(246, 104, 149)" opacity="0.8583467" stroke="rgb(248, 218, 2)" stroke-opacity="1.0" stroke-linecap="round" stroke-linejoin="round" d="M 287.58428955078125 236.58953857421875 C 315.04931640625 204.4921875 322.81109619140625 225.2613067626953 249.4053955078125 234.25588989257812 C 259.7892150878906 231.58079528808594 243.41635131835938 227.4985809326172 264.6285400390625 233.22647094726562 C 280.8185119628906 219.7941131591797 282.6038818359375 255.96788024902344 263.1592102050781 239.88128662109375 C 231.17120361328125 207.82029724121094 277.3509216308594 205.53366088867188 287.58428955078125 236.58953857421875"/>
    <path stroke-width="0" fill="rgb(-62, 106, 206)" opacity="0.710273" stroke="rgb(186, 43, 132)" stroke-opacity="1.0" stroke-linecap="round" stroke-linejoin="round" d="M 211.97805786132812 200.75462341308594 C 225.99440002441406 189.71624755859375 222.95909118652344 220.0180206298828 222.67117309570312 214.6144256591797 C 248.44012451171875 226.09706115722656 261.5935974121094 203.2165069580078 238.69094848632812 224.29331970214844 C 236.01748657226562 205.23138427734375 237.76039123535156 200.19400024414062 222.20834350585938 197.9661865234375 C 202.0904083251953 221.6707763671875 241.15005493164062 233.85853576660156 211.97805786132812 200.75462341308594"/>
    <path stroke-width="0" fill="rgb(278, 17, -18)" opacity="0.93345267" stroke="rgb(88, 236, 179)" stroke-opacity="1.0" stroke-linecap="round" stroke-linejoin="round" d="M 281.3894958496094 266.3934631347656 C 275.8093566894531 230.63299560546875 291.17486572265625 235.16445922851562 309.5255126953125 252.65757751464844 C 295.84246826171875 256.7816467285156 286.99993896484375 259.8889465332031 299.21307373046875 255.56082153320312 C 323.4730224609375 255.5992889404297 338.3284606933594 264.5374755859375 290.76385498046875 272.4878845214844 C 313.4120788574219 263.62005615234375 306.8236083984375 339.8017272949219 281.3894958496094 266.3934631347656"/>
    <path stroke-width="0" fill="rgb(-31, -48, 74)" opacity="0.8714308" stroke="rgb(41, 158, 147)" stroke-opacity="1.0" stroke-linecap="round" stroke-linejoin="round" d="M 228.9332733154297 203.95545959472656 C 227.075439453125 211.64865112304688 225.35960388183594 203.15512084960938 275.57525634765625 227.7499237060547 C 271.93011474609375 206.0633087158203 220.19064331054688 206.2653045654297 252.0533905029297 220.76979064941406 C 223.19122314453125 202.05203247070312 258.5125427246094 206.3671112060547 245.94627380371094 215.8363494873047 C 242.9544219970703 214.32275390625 245.009765625 197.5503387451172 228.9332733154297 203.95545959472656"/>
    <path stroke-width="0" fill="rgb(-51, -5, 2)" opacity="1.0709538" stroke="rgb(238, 156, 136)" stroke-opacity="1.0" stroke-linecap="round" stroke-linejoin="round" d="M 297.99163818359375 198.8562774658203 C 287.2151794433594 184.6746826171875 270.7140197753906 170.5323486328125 287.263916015625 169.68458557128906 C 287.658203125 166.5023956298828 285.3152770996094 165.1272430419922 288.7239990234375 167.7372283935547 C 279.95367431640625 185.43377685546875 284.495361328125 178.64886474609375 309.7294006347656 204.70315551757812 C 282.6226501464844 176.19322204589844 283.85882568359375 177.8271026611328 297.99163818359375 198.8562774658203"/>
    <path stroke-width="0" fill="rgb(272, 54, 121)" opacity="0.0898384" stroke="rgb(186, 79, 101)" stroke-opacity="1.0" stroke-linecap="round" stroke-linejoin="round" d="M 161.3949432373047 213.47238159179688 C 159.65843200683594 211.98944091796875 162.24815368652344 216.68333435058594 164.74520874023438 205.8406524658203 C 156.89340209960938 209.5742645263672 170.2450714111328 166.61602783203125 157.96188354492188 245.12265014648438 C 151.52056884765625 232.8641815185547 156.51986694335938 218.3296356201172 158.41188049316406 223.81834411621094 C 166.77386474609375 209.51229858398438 161.90919494628906 228.75210571289062 161.3949432373047 213.47238159179688"/>
    <path stroke-width="0" fill="rgb(181, 89, 113)" opacity="0.062262345" stroke="rgb(57, 64, 14)" stroke-opacity="1.0" stroke-linecap="round" stroke-linejoin="round" d="M 156.7501983642578 255.8302764892578 C 155.69918823242188 264.2339172363281 154.55825805664062 274.4985046386719 154.53274536132812 250.17555236816406 C 170.19845581054688 207.8892059326172 149.02127075195312 200.93453979492188 154.61891174316406 299.2563171386719 C 163.20037841796875 312.9534912109375 155.38775634765625 306.13385009765625 155.73362731933594 239.9972381591797 C 152.8572540283203 287.4318542480469 155.89881896972656 269.5523376464844 156.7501983642578 255.8302764892578"/>
    <path stroke-width="0" fill="rgb(290, 261, 244)" opacity="0.9369795" stroke="rgb(6, 17, 173)" stroke-opacity="1.0" stroke-linecap="round" stroke-linejoin="round" d="M 348.34393310546875 375.7557067871094 C 349.34063720703125 410.3705749511719 376.45526123046875 352.5572204589844 344.20574951171875 362.00592041015625 C 363.6500244140625 323.9353942871094 308.00970458984375 370.9508972167969 318.7825622558594 345.82427978515625 C 283.60516357421875 292.918212890625 353.29473876953125 291.9189758300781 346.5103759765625 348.96484375 C 301.2380676269531 346.418212890625 327.2527770996094 365.615966796875 348.34393310546875 375.7557067871094"/>
    <path stroke-width="0" fill="rgb(266, 50, -131)" opacity="0.6002542" stroke="rgb(136, 228, 252)" stroke-opacity="1.0" stroke-linecap="round" stroke-linejoin="round" d="M 312.7451477050781 263.09906005859375 C 399.54742431640625 331.65545654296875 384.59906005859375 297.9865417480469 357.646240234375 286.20501708984375 C 336.6775817871094 292.3043212890625 347.720703125 287.03387451171875 352.1227111816406 291.90936279296875 C 354.4520263671875 404.9033203125 359.4959716796875 372.7917175292969 354.5624084472656 308.6288146972656 C 345.85125732421875 305.60247802734375 352.5000305175781 269.35760498046875 312.7451477050781 263.09906005859375"/>
    <path stroke-width="0" fill="rgb(-15, 9, 23)" opacity="0.8502087" stroke="rgb(81, 97, 150)" stroke-opacity="1.0" stroke-linecap="round" stroke-linejoin="round" d="M 251.02532958984375 214.9982452392578 C 242.59494018554688 195.46324157714844 211.31211853027344 211.82492065429688 261.7600402832031 234.9555206298828 C 246.64279174804688 222.77041625976562 222.8672637939453 217.29116821289062 256.32049560546875 235.33181762695312 C 267.4588928222656 254.48599243164062 274.947998046875 251.1190185546875 264.8717346191406 250.3506622314453 C 259.9132385253906 224.79490661621094 257.0550537109375 229.4794464111328 251.02532958984375 214.9982452392578"/>
    <path stroke-width="0" fill="rgb(302, 285, 254)" opacity="0.91777325" stroke="rgb(160, 222, 69)" stroke-opacity="1.0" stroke-linecap="round" stroke-linejoin="round" d="M 186.8150634765625 377.9112548828125 C 195.87551879882812 384.9586181640625 166.6651611328125 421.4377136230469 167.35003662109375 378.9634704589844 C 162.132568359375 386.1941833496094 170.1132049560547 389.34832763671875 161.60214233398438 398.6969299316406 C 179.75743103027344 357.28009033203125 164.43614196777344 345.3177490234375 165.57534790039062 355.7311096191406 C 158.99290466308594 355.5132751464844 185.53590393066406 316.6332702636719 186.8150634765625 377.9112548828125"/>
    <path stroke-width="0" fill="rgb(0, 111, 198)" opacity="0.9801016" stroke="rgb(47, 242, 175)" stroke-opacity="1.0" stroke-linecap="round" stroke-linejoin="round" d="M 322.6837158203125 355.0588684082031 C 330.5601806640625 372.0655517578125 322.1217956542969 355.44805908203125 319.3852844238281 349.5160827636719 C 317.7408142089844 337.0732116699219 278.68524169921875 304.52703857421875 308.7160339355469 363.56353759765625 C 339.04766845703125 381.05743408203125 320.300048828125 334.5097351074219 283.76397705078125 317.38702392578125 C 320.3091735839844 346.0722961425781 298.1535339355469 327.499755859375 322.6837158203125 355.0588684082031"/>
    <path stroke-width="0" fill="rgb(301, 7, -90)" opacity="0.8208743" stroke="rgb(241, 186, 64)" stroke-opacity="1.0" stroke-linecap="round" stroke-linejoin="round" d="M 281.9342041015625 262.0326843261719 C 273.7716979980469 218.30824279785156 279.6741638183594 244.2016143798828 303.59576416015625 246.59458923339844 C 323.3507385253906 240.7716522216797 308.91741943359375 238.85336303710938 320.0979309082031 255.12477111816406 C 331.37835693359375 258.7193908691406 381.1183776855469 330.3523254394531 323.02191162109375 259.1025695800781 C 315.88983154296875 260.11505126953125 310.6255187988281 238.6256866455078 281.9342041015625 262.0326843261719"/>
    <path stroke-width="0" fill="rgb(-59, 41, -40)" opacity="0.5302958" stroke="rgb(132, 6, 52)" stroke-opacity="1.0" stroke-linecap="round" stroke-linejoin="round" d="M 202.88720703125 85.57435607910156 C 206.0064697265625 98.08025360107422 194.73944091796875 76.8276596069336 194.75421142578125 95.66431427001953 C 199.4475555419922 92.72408294677734 221.78359985351562 66.65558624267578 189.6152801513672 122.8579330444336 C 220.18853759765625 64.78955841064453 214.6526336669922 54.084678649902344 227.9989471435547 69.80197143554688 C 215.66543579101562 48.98733901977539 193.21755981445312 88.21159362792969 202.88720703125 85.57435607910156"/>
    <path stroke-width="0" fill="rgb(40, 51, -55)" opacity="0.7636215" stroke="rgb(182, 100, 144)" stroke-opacity="1.0" stroke-linecap="round" stroke-linejoin="round" d="M 300.5238952636719 205.2196044921875 C 302.2327575683594 192.15283203125 310.4302978515625 217.57518005371094 300.0351257324219 220.07403564453125 C 305.96746826171875 197.72393798828125 327.14239501953125 211.57334899902344 290.0179443359375 220.70755004882812 C 289.7265930175781 218.893310546875 325.4578552246094 232.8304901123047 259.01129150390625 224.16867065429688 C 281.7169189453125 215.63449096679688 311.5364990234375 219.718505859375 300.5238952636719 205.2196044921875"/>
    <path stroke-width="0" fill="rgb(30, 63, 142)" opacity="0.22511248" stroke="rgb(140, 149, 245)" stroke-opacity="1.0" stroke-linecap="round" stroke-linejoin="round" d="M 210.05636596679688 74.88224029541016 C 226.0121307373047 92.65425109863281 205.8493194580078 98.66423797607422 211.8759307861328 113.54827117919922 C 234.50868225097656 70.75894927978516 213.1363983154297 76.53591918945312 183.87049865722656 85.67450714111328 C 196.56427001953125 78.35403442382812 170.53176879882812 95.16551971435547 190.24266052246094 85.29003143310547 C 224.01800537109375 75.8574447631836 248.16416931152344 78.4477767944336 210.05636596679688 74.88224029541016"/>
    <path stroke-width="0" fill="rgb(265, 71, -51)" opacity="1.001152" stroke="rgb(86, 245, 59)" stroke-opacity="1.0" stroke-linecap="round" stroke-linejoin="round" d="M 267.0899353027344 318.2858581542969 C 278.67431640625 321.189697265625 280.8829650878906 344.76336669921875 339.94964599609375 271.0357971191406 C 270.89593505859375 193.85108947753906 281.3228454589844 310.2740783691406 311.6147155761719 288.1485900878906 C 295.4752197265625 347.48358154296875 254.07437133789062 314.80072021484375 287.82720947265625 289.1246643066406 C 328.1873779296875 281.02252197265625 282.110595703125 342.1573486328125 267.0899353027344 318.2858581542969"/>
    <path stroke-width="0" fill="rgb(253, 259, 272)" opacity="-0.063778244" stroke="rgb(240, 203, 160)" stroke-opacity="1.0" stroke-linecap="round" stroke-linejoin="round" d="M 254.41355895996094 195.2167205810547 C 259.33380126953125 204.93321228027344 267.1046142578125 214.3056640625 297.9979553222656 234.65541076660156 C 301.8321228027344 217.146240234375 306.7025146484375 217.3731689453125 306.3251953125 211.5654754638672 C 310.6153259277344 256.48486328125 271.8112487792969 230.2225341796875 287.0057067871094 230.12867736816406 C 246.9633331298828 208.02804565429688 256.1853942871094 229.52386474609375 254.41355895996094 195.2167205810547"/>
    <path stroke-width="0" fill="rgb(197, 211, -38)" opacity="0.5340151" stroke="rgb(88, 37, 250)" stroke-opacity="1.0" stroke-linecap="round" stroke-linejoin="round" d="M 267.96453857421875 359.3202209472656 C 286.86163330078125 306.9229736328125 270.56011962890625 322.9231262207031 283.2064208984375 326.76336669921875 C 287.6781311035156 318.0310363769531 286.5043029785156 246.55819702148438 269.14007568359375 318.6924133300781 C 294.24609375 339.773681640625 295.1780700683594 307.07635498046875 318.22906494140625 313.73583984375 C 254.80078125 306.7136535644531 284.5575866699219 390.22393798828125 267.96453857421875 359.3202209472656"/>
    <path stroke-width="0" fill="rgb(-29, 73, 160)" opacity="0.09050866" stroke="rgb(126, 163, 93)" stroke-opacity="1.0" stroke-linecap="round" stroke-linejoin="round" d="M 202.36050415039062 77.20116424560547 C 209.01736450195312 66.76078796386719 214.54173278808594 73.7518081665039 214.3852996826172 69.61090087890625 C 216.4026336669922 71.16460418701172 219.21470642089844 39.04650115966797 214.43943786621094 73.20040130615234 C 208.35130310058594 72.02070617675781 228.88861083984375 62.20288848876953 230.02992248535156 62.41303253173828 C 197.28952026367188 55.80118179321289 214.46888732910156 76.1165542602539 202.36050415039062 77.20116424560547"/>
    <path stroke-width="0" fill="rgb(-21, 102, 151)" opacity="0.17761783" stroke="rgb(209, 48, 130)" stroke-opacity="1.0" stroke-linecap="round" stroke-linejoin="round" d="M 215.9864501953125 46.555599212646484 C 191.046875 48.95488739013672 186.9239044189453 40.316123962402344 189.3413543701172 59.92554473876953 C 154.1263427734375 89.18293762207031 156.65420532226562 101.84207153320312 182.25782775878906 107.35677337646484 C 220.7051544189453 72.55852508544922 191.73904418945312 21.113719940185547 175.1757049560547 34.18148422241211 C 144.94712829589844 78.29631042480469 183.8018035888672 68.61331939697266 215.9864501953125 46.555599212646484"/>
    <path stroke-width="0" fill="rgb(307, 225, 170)" opacity="1.0351739" stroke="rgb(24, 219, 248)" stroke-opacity="1.0" stroke-linecap="round" stroke-linejoin="round" d="M 230.12889099121094 116.49691009521484 C 220.64088439941406 82.88001251220703 213.2300262451172 74.53495788574219 221.48106384277344 91.62139892578125 C 203.17990112304688 69.0969009399414 228.5177001953125 75.3531723022461 230.2394561767578 82.76799774169922 C 236.29159545898438 91.71332550048828 234.46066284179688 88.55694580078125 232.027099609375 79.14129638671875 C 220.17640686035156 80.46553802490234 241.94564819335938 74.64544677734375 230.12889099121094 116.49691009521484"/>
    <path stroke-width="0" fill="rgb(330, 50, -84)" opacity="0.7278577" stroke="rgb(103, 59, 33)" stroke-opacity="1.0" stroke-linecap="round" stroke-linejoin="round" d="M 225.4226837158203 63.41707992553711 C 204.9553680419922 64.76347351074219 214.0533447265625 84.64185333251953 233.7573699951172 96.0035400390625 C 241.46136474609375 121.3662109375 239.43861389160156 134.62144470214844 226.9261016845703 123.66362762451172 C 245.9888458251953 119.26492309570312 241.29412841796875 78.531982421875 210.8071746826172 94.8862533569336 C 213.6649169921875 74.1181640625 223.0973663330078 78.91510009765625 225.4226837158203 63.41707992553711"/>
    <path stroke-width="0" fill="rgb(268, 154, -21)" opacity="0.40692377" stroke="rgb(185, 2, 196)" stroke-opacity="1.0" stroke-linecap="round" stroke-linejoin="round" d="M 186.11395263671875 105.0703125 C 198.55975341796875 84.54347229003906 194.9739990234375 115.67559814453125 209.07102966308594 88.25558471679688 C 201.3469696044922 172.4122772216797 210.5854949951172 73.38561248779297 204.6200408935547 99.23348236083984 C 214.91941833496094 96.2245101928711 186.2450408935547 110.11519622802734 180.2985076904297 105.71963500976562 C 201.95245361328125 116.06965637207031 200.9569854736328 86.85334777832031 186.11395263671875 105.0703125"/>
    <path stroke-width="0" fill="rgb(-34, 104, 150)" opacity="0.31133303" stroke="rgb(66, 116, 174)" stroke-opacity="1.0" stroke-linecap="round" stroke-linejoin="round" d="M 183.52735900878906 91.87754821777344 C 180.57740783691406 82.30975341796875 194.90283203125 156.57492065429688 169.25148010253906 107.05224609375 C 159.958740234375 118.28193664550781 137.48529052734375 123.4898681640625 155.532470703125 102.74335479736328 C 170.62477111816406 105.81787109375 171.66261291503906 104.02286529541016 166.44705200195312 67.35374450683594 C 187.39918518066406 113.78931427001953 178.4208526611328 111.15415954589844 183.52735900878906 91.87754821777344"/>
    <path stroke-width="0" fill="rgb(122, 114, 99)" opacity="1.0077761" stroke="rgb(72, 96, 46)" stroke-opacity="1.0" stroke-linecap="round" stroke-linejoin="round" d="M 231.22561645507812 91.11563110351562 C 213.45260620117188 79.10187530517578 244.16001892089844 94.83023071289062 223.2653350830078 64.19403076171875 C 233.2400360107422 81.77730560302734 225.7837677001953 136.22540283203125 214.46487426757812 106.93732452392578 C 199.71438598632812 101.1225357055664 228.2275390625 75.67578125 212.64727783203125 86.19231414794922 C 227.91368103027344 73.45824432373047 238.0897979736328 89.88392639160156 231.22561645507812 91.11563110351562"/>
    <path stroke-width="0" fill="rgb(9, 79, 171)" opacity="0.3602531" stroke="rgb(147, 244, 164)" stroke-opacity="1.0" stroke-linecap="round" stroke-linejoin="round" d="M 220.80003356933594 72.86424255371094 C 181.53155517578125 68.55872344970703 215.35198974609375 79.89710998535156 188.79702758789062 103.576416015625 C 173.52297973632812 171.44390869140625 108.94478607177734 272.29931640625 -52.28553009033203 116.38227844238281 C 184.47276306152344 1.0950982570648193 167.56875610351562 67.62126159667969 228.2877197265625 75.24169921875 C 231.75376892089844 72.01631927490234 217.95230102539062 77.61431121826172 220.80003356933594 72.86424255371094"/>
    <path stroke-width="0" fill="rgb(-24, 85, 165)" opacity="0.8228067" stroke="rgb(109, 130, 136)" stroke-opacity="1.0" stroke-linecap="round" stroke-linejoin="round" d="M 195.09486389160156 94.01716613769531 C 193.094970703125 83.56926727294922 166.04566955566406 82.58158111572266 167.12879943847656 96.76596069335938 C 182.1324005126953 119.71907043457031 156.27145385742188 129.50697326660156 176.5436248779297 85.96918487548828 C 155.95608520507812 81.25153350830078 176.09950256347656 79.44015502929688 163.1527557373047 84.59104919433594 C 179.3448486328125 101.42829895019531 185.9554443359375 125.8902816772461 195.09486389160156 94.01716613769531"/>
    <path stroke-width="0" fill="rgb(13, 68, 204)" opacity="0.19906554" stroke="rgb(70, 32, 100)" stroke-opacity="1.0" stroke-linecap="round" stroke-linejoin="round" d="M 287.78033447265625 118.5711441040039 C 295.9012145996094 119.55835723876953 280.0339050292969 127.87907409667969 303.013916015625 128.66067504882812 C 277.9753112792969 119.71810913085938 301.5331726074219 115.00871276855469 301.12664794921875 137.56256103515625 C 305.29534912109375 121.04074096679688 310.6685791015625 102.10453796386719 323.7087707519531 101.73185729980469 C 310.74853515625 99.44979095458984 317.954345703125 95.78470611572266 287.78033447265625 118.5711441040039"/>
    <path stroke-width="0" fill="rgb(282, 72, -56)" opacity="1.1657999" stroke="rgb(47, 230, 138)" stroke-opacity="1.0" stroke-linecap="round" stroke-linejoin="round" d="M 283.0736083984375 314.95941162109375 C 290.30120849609375 320.5535888671875 279.4077453613281 288.71746826171875 286.47509765625 316.7403869628906 C 310.8146057128906 312.2479248046875 277.64447021484375 329.28900146484375 293.2569274902344 287.2215270996094 C 280.595458984375 240.3251495361328 284.7834777832031 255.7926788330078 275.90399169921875 325.1554870605469 C 271.43719482421875 320.91864013671875 276.13037109375 306.60015869140625 283.0736083984375 314.95941162109375"/>
    <path stroke-width="0" fill="rgb(338, 208, 61)" opacity="0.5261239" stroke="rgb(224, 116, 184)" stroke-opacity="1.0" stroke-linecap="round" stroke-linejoin="round" d="M 300.3267822265625 103.57962036132812 C 301.8788757324219 109.3230209350586 315.8388671875 75.46056365966797 291.9951477050781 119.3474349975586 C 286.37054443359375 128.66526794433594 296.1959228515625 101.30999755859375 288.8431396484375 118.87052154541016 C 291.7882995605469 142.35890197753906 277.9590148925781 123.32664489746094 281.81646728515625 133.35800170898438 C 285.49847412109375 119.06839752197266 278.65460205078125 109.1413803100586 300.3267822265625 103.57962036132812"/>
    <path stroke-width="0" fill="rgb(309, 131, -92)" opacity="0.56708" stroke="rgb(230, 175, 178)" stroke-opacity="1.0" stroke-linecap="round" stroke-linejoin="round" d="M 295.9580078125 92.43866729736328 C 300.2707214355469 117.17387390136719 281.05322265625 122.04566955566406 276.3518371582031 131.2963409423828 C 300.8416442871094 125.1953353881836 275.9358215332031 107.12325286865234 280.4095153808594 137.38941955566406 C 313.2436218261719 88.50613403320312 286.3946533203125 100.22498321533203 292.2729187011719 121.261962890625 C 263.64996337890625 87.93147277832031 283.8218994140625 113.1865005493164 295.9580078125 92.43866729736328"/>
    <path stroke-width="0" fill="rgb(304, 219, 97)" opacity="0.5710695" stroke="rgb(203, 244, 116)" stroke-opacity="1.0" stroke-linecap="round" stroke-linejoin="round" d="M 273.7054443359375 132.8263702392578 C 285.2612609863281 109.96205139160156 294.917724609375 93.0264663696289 288.69024658203125 129.09970092773438 C 313.226318359375 89.70156860351562 286.339111328125 112.72106170654297 292.40447998046875 111.98310852050781 C 297.4798583984375 109.64714813232422 280.58099365234375 128.28797912597656 304.95465087890625 104.5691146850586 C 285.87353515625 122.39751434326172 294.9621276855469 116.78784942626953 273.7054443359375 132.8263702392578"/>
    <path stroke-width="0" fill="rgb(246, 92, -65)" opacity="0.4326618" stroke="rgb(65, 216, 8)" stroke-opacity="1.0" stroke-linecap="round" stroke-linejoin="round" d="M 288.95989990234375 110.88985443115234 C 276.7175598144531 134.28541564941406 282.0712890625 150.7029571533203 281.276123046875 128.50387573242188 C 279.3928527832031 132.01284790039062 289.7398986816406 125.3867416381836 282.2931823730469 172.41856384277344 C 278.12164306640625 155.6219940185547 286.4912414550781 149.89979553222656 258.798095703125 162.76780700683594 C 273.8708801269531 135.07220458984375 266.39434814453125 147.82913208007812 288.95989990234375 110.88985443115234"/>
    <path stroke-width="0" fill="rgb(-55, 23, 84)" opacity="0.91197175" stroke="rgb(90, 90, 4)" stroke-opacity="1.0" stroke-linecap="round" stroke-linejoin="round" d="M 276.6961975097656 330.09649658203125 C 277.72650146484375 344.2565002441406 274.077392578125 344.5069885253906 274.26373291015625 342.92169189453125 C 275.9371337890625 327.4469909667969 259.6340026855469 320.19244384765625 287.2615661621094 368.19842529296875 C 262.63751220703125 391.13336181640625 277.7132263183594 348.58624267578125 280.5680847167969 302.3924560546875 C 274.24639892578125 365.53204345703125 276.386474609375 336.004150390625 276.6961975097656 330.09649658203125"/>
    <path stroke-width="0" fill="rgb(306, 50, -78)" opacity="0.63272285" stroke="rgb(221, 115, 83)" stroke-opacity="1.0" stroke-linecap="round" stroke-linejoin="round" d="M 303.8926086425781 237.39244079589844 C 305.54095458984375 188.9214630126953 311.3817138671875 212.9550018310547 299.701416015625 237.3942413330078 C 280.0262145996094 180.7366943359375 273.4260559082031 150.96763610839844 276.1060791015625 170.75755310058594 C 270.514892578125 136.87730407714844 268.3189697265625 139.5753173828125 260.17852783203125 181.02981567382812 C 278.8414001464844 166.5405731201172 291.7639465332031 184.15574645996094 303.8926086425781 237.39244079589844"/>
    <path stroke-width="0" fill="rgb(-28, 103, 158)" opacity="0.10363044" stroke="rgb(17, 64, 56)" stroke-opacity="1.0" stroke-linecap="round" stroke-linejoin="round" d="M 174.88522338867188 128.9991455078125 C 170.53182983398438 118.20510864257812 157.990966796875 126.33084106445312 166.8149871826172 179.5009765625 C 172.28756713867188 181.1081085205078 164.21836853027344 156.73785400390625 149.61782836914062 157.610107421875 C 167.01724243164062 161.01092529296875 174.89942932128906 123.48566436767578 133.011962890625 127.12586212158203 C 158.73072814941406 147.00645446777344 182.5811309814453 150.8759002685547 174.88522338867188 128.9991455078125"/>
    <path stroke-width="0" fill="rgb(291, 268, -16)" opacity="0.2560454" stroke="rgb(33, 3, 29)" stroke-opacity="1.0" stroke-linecap="round" stroke-linejoin="round" d="M 202.57862854003906 137.93667602539062 C 204.73312377929688 135.99513244628906 204.2622528076172 156.99365234375 185.87298583984375 168.21290588378906 C 210.9529571533203 136.2148895263672 202.70677185058594 119.88139343261719 185.9406280517578 125.19099426269531 C 170.3466339111328 147.94325256347656 193.80810546875 146.41128540039062 182.52537536621094 174.8370819091797 C 180.6034698486328 178.87432861328125 178.5344696044922 164.34921264648438 202.57862854003906 137.93667602539062"/>
    <path stroke-width="0" fill="rgb(-47, -20, 16)" opacity="0.98326707" stroke="rgb(162, 125, 252)" stroke-opacity="1.0" stroke-linecap="round" stroke-linejoin="round" d="M 286.7193603515625 220.3066864013672 C 296.340576171875 266.869873046875 282.80694580078125 208.26776123046875 309.62664794921875 245.46148681640625 C 287.388916015625 220.89646911621094 295.38409423828125 216.62533569335938 300.2737731933594 234.78656005859375 C 296.76275634765625 184.5932159423828 283.5152893066406 206.57452392578125 286.8899841308594 204.608154296875 C 288.5016174316406 230.49008178710938 311.2340393066406 264.53814697265625 286.7193603515625 220.3066864013672"/>
    <path stroke-width="0" fill="rgb(86, 99, 101)" opacity="0.7035825" stroke="rgb(199, 73, 61)" stroke-opacity="1.0" stroke-linecap="round" stroke-linejoin="round" d="M 313.341064453125 216.9469451904297 C 298.7726135253906 217.44493103027344 290.3377990722656 219.39166259765625 309.8148498535156 236.06153869628906 C 297.059326171875 225.4789581298828 301.8558349609375 211.84837341308594 282.7936706542969 227.95948791503906 C 304.81219482421875 242.9795379638672 312.7364807128906 230.9739990234375 292.1712341308594 225.2410430908203 C 293.08984375 224.2784423828125 313.94293212890625 204.63876342773438 313.341064453125 216.9469451904297"/>
    <path stroke-width="0" fill="rgb(125, 239, 137)" opacity="0.4953814" stroke="rgb(91, 211, 235)" stroke-opacity="1.0" stroke-linecap="round" stroke-linejoin="round" d="M 280.3277282714844 198.5911102294922 C 284.82159423828125 202.2837371826172 319.23370361328125 188.54888916015625 300.5592346191406 239.17689514160156 C 303.6288757324219 234.46095275878906 335.2109680175781 215.7113800048828 275.69378662109375 221.6200408935547 C 316.76068115234375 219.37326049804688 325.0351257324219 217.50022888183594 322.414306640625 219.82020568847656 C 315.80645751953125 206.68772888183594 286.403076171875 206.02899169921875 280.3277282714844 198.5911102294922"/>
    <path stroke-width="0" fill="rgb(265, 259, 268)" opacity="0.97910655" stroke="rgb(247, 230, 75)" stroke-opacity="1.0" stroke-linecap="round" stroke-linejoin="round" d="M 201.60646057128906 215.1162109375 C 205.7810821533203 205.0262908935547 197.15440368652344 184.1907501220703 229.39732360839844 199.56834411621094 C 214.41213989257812 201.52793884277344 224.7496337890625 208.17343139648438 237.9940643310547 224.67816162109375 C 230.64576721191406 239.77503967285156 183.1685791015625 218.03164672851562 198.8797149658203 174.95619201660156 C 223.02577209472656 174.57130432128906 200.94993591308594 189.2220916748047 201.60646057128906 215.1162109375"/>
    <path stroke-width="0" fill="rgb(121, 222, 332)" opacity="0.8318325" stroke="rgb(63, 27, 242)" stroke-opacity="1.0" stroke-linecap="round" stroke-linejoin="round" d="M 296.7628173828125 223.4123077392578 C 288.1130676269531 230.28904724121094 309.6828308105469 213.0669708251953 305.5099792480469 215.91201782226562 C 308.2269592285156 190.44529724121094 303.65863037109375 231.93052673339844 265.0157775878906 222.64260864257812 C 234.71298217773438 201.91238403320312 225.26315307617188 195.89610290527344 264.9207458496094 216.60687255859375 C 330.3658752441406 217.3475341796875 331.0988464355469 197.48428344726562 296.7628173828125 223.4123077392578"/>
    <path stroke-width="0" fill="rgb(-30, -22, -13)" opacity="0.6318441" stroke="rgb(69, 96, 95)" stroke-opacity="1.0" stroke-linecap="round" stroke-linejoin="round" d="M 313.00335693359375 206.86007690429688 C 284.1384582519531 234.282958984375 312.51190185546875 250.2163543701172 321.7668762207031 246.00048828125 C 300.6442565917969 233.46971130371094 288.4159240722656 236.3968963623047 298.6429443359375 224.24691772460938 C 303.5040283203125 246.18695068359375 299.6639709472656 233.6299285888672 286.2618408203125 205.882568359375 C 315.69354248046875 195.9158172607422 296.6337890625 222.9231414794922 313.00335693359375 206.86007690429688"/>
    <path stroke-width="0" fill="rgb(314, 176, -79)" opacity="0.82647943" stroke="rgb(213, 60, 128)" stroke-opacity="1.0" stroke-linecap="round" stroke-linejoin="round" d="M 213.4767303466797 76.45083618164062 C 250.07626342773438 72.1888656616211 230.72470092773438 107.7010269165039 230.77340698242188 89.58026123046875 C 218.45462036132812 76.02997589111328 194.8083038330078 92.61282348632812 222.26077270507812 64.68824005126953 C 232.35018920898438 90.65331268310547 243.15802001953125 66.23578643798828 224.3875732421875 61.98674011230469 C 217.5956573486328 66.55217742919922 240.44862365722656 86.74678802490234 213.4767303466797 76.45083618164062"/>
    <path stroke-width="0" fill="rgb(228, 242, 111)" opacity="0.2544565" stroke="rgb(18, 74, 38)" stroke-opacity="1.0" stroke-linecap="round" stroke-linejoin="round" d="M 270.9520263671875 258.68731689453125 C 269.1408386230469 260.48944091796875 274.201171875 261.6279296875 261.7345886230469 249.150390625 C 200.9286651611328 258.3360900878906 217.62046813964844 251.18658447265625 194.5845947265625 206.2119903564453 C 244.2395477294922 249.7637176513672 269.326904296875 239.602783203125 221.97808837890625 239.97006225585938 C 203.37991333007812 255.78366088867188 251.00827026367188 254.82421875 270.9520263671875 258.68731689453125"/>
    <path stroke-width="0" fill="rgb(188, 130, 127)" opacity="0.28146946" stroke="rgb(33, 154, 97)" stroke-opacity="1.0" stroke-linecap="round" stroke-linejoin="round" d="M 225.9070587158203 62.63742446899414 C 200.51100158691406 67.84033203125 213.80421447753906 85.8787841796875 211.7464141845703 89.41412353515625 C 212.74693298339844 90.88777160644531 209.22097778320312 73.56436157226562 216.69207763671875 85.32135772705078 C 203.60972595214844 96.77490234375 230.0753631591797 57.28706741333008 202.7323455810547 83.3618392944336 C 213.84288024902344 71.66707611083984 215.77845764160156 67.0122299194336 225.9070587158203 62.63742446899414"/>
    <path stroke-width="0" fill="rgb(-14, 102, 130)" opacity="0.96268153" stroke="rgb(246, 139, 70)" stroke-opacity="1.0" stroke-linecap="round" stroke-linejoin="round" d="M 311.11468505859375 236.8708953857422 C 286.7958068847656 238.89727783203125 268.2479248046875 230.14376831054688 326.228759765625 235.97616577148438 C 315.41522216796875 237.3072509765625 299.3265380859375 226.40914916992188 279.2109069824219 239.91937255859375 C 295.188232421875 229.64013671875 277.5355224609375 232.9571075439453 309.88458251953125 202.7097625732422 C 268.45953369140625 169.67601013183594 336.3412170410156 201.2825927734375 311.11468505859375 236.8708953857422"/>
    <path stroke-width="0" fill="rgb(151, 106, 74)" opacity="0.05703372" stroke="rgb(228, 103, 140)" stroke-opacity="1.0" stroke-linecap="round" stroke-linejoin="round" d="M 220.8352508544922 95.4979019165039 C 217.3267059326172 75.2773666381836 221.9018096923828 76.82303619384766 224.05845642089844 93.77799224853516 C 200.6099853515625 64.22535705566406 198.33087158203125 67.29163360595703 209.73646545410156 65.88313293457031 C 207.14222717285156 63.43247604370117 206.8726348876953 70.87506866455078 210.13021850585938 40.848087310791016 C 215.95181274414062 76.83740234375 231.58653259277344 101.1998519897461 220.8352508544922 95.4979019165039"/>
    <path stroke-width="0" fill="rgb(-38, 92, 164)" opacity="1.0185968" stroke="rgb(116, 102, 63)" stroke-opacity="1.0" stroke-linecap="round" stroke-linejoin="round" d="M 325.34326171875 186.82449340820312 C 284.8130798339844 219.2277069091797 290.5462646484375 229.01832580566406 308.2781677246094 221.07763671875 C 291.8857727050781 228.68511962890625 273.7044982910156 217.08786010742188 279.17181396484375 230.55711364746094 C 304.1003723144531 253.96820068359375 307.9278259277344 235.41937255859375 298.57342529296875 240.8616485595703 C 311.88397216796875 247.87852478027344 343.5349426269531 274.6324157714844 325.34326171875 186.82449340820312"/>
    <path stroke-width="0" fill="rgb(201, 30, 114)" opacity="0.6292915" stroke="rgb(79, 95, 133)" stroke-opacity="1.0" stroke-linecap="round" stroke-linejoin="round" d="M 236.65859985351562 95.44189453125 C 252.1614990234375 98.44148254394531 255.92706298828125 95.56957244873047 234.62937927246094 96.52880096435547 C 229.68858337402344 94.77291107177734 239.10752868652344 113.986572265625 224.64308166503906 68.36560821533203 C 248.19908142089844 95.7409896850586 235.12974548339844 103.99769592285156 234.24295043945312 100.28471374511719 C 230.04177856445312 89.66629791259766 243.96746826171875 107.34886169433594 236.65859985351562 95.44189453125"/>
    <path stroke-width="0" fill="rgb(30, 121, 126)" opacity="0.16122524" stroke="rgb(85, 235, 219)" stroke-opacity="1.0" stroke-linecap="round" stroke-linejoin="round" d="M 318.6703796386719 247.02944946289062 C 316.9364318847656 242.1273956298828 306.11370849609375 241.2552490234375 357.3691711425781 244.02804565429688 C 342.1787414550781 246.3543701171875 343.1269836425781 239.90103149414062 338.6865539550781 226.49330139160156 C 354.739013671875 282.7017517089844 318.2330627441406 274.8894348144531 338.9309997558594 240.08013916015625 C 304.2961120605469 239.3099822998047 364.2104187011719 260.7342224121094 318.6703796386719 247.02944946289062"/>
    <path stroke-width="0" fill="rgb(300, 162, -9)" opacity="0.6833752" stroke="rgb(64, 113, 26)" stroke-opacity="1.0" stroke-linecap="round" stroke-linejoin="round" d="M 297.5732421875 104.98666381835938 C 295.3805847167969 78.26451110839844 318.6224670410156 107.29691314697266 296.5686950683594 97.19821166992188 C 300.7947082519531 110.55722045898438 278.11181640625 142.59988403320312 290.0517272949219 111.07237243652344 C 311.2162170410156 108.50373840332031 310.5601501464844 84.18128967285156 289.0536804199219 112.22687530517578 C 307.2016906738281 103.83704376220703 295.4951171875 95.80160522460938 297.5732421875 104.98666381835938"/>
    <path stroke-width="0" fill="rgb(15, 73, 129)" opacity="-0.054510478" stroke="rgb(0, 0, 0)" stroke-opacity="0.0" stroke-linecap="round" stroke-linejoin="round" d="M 129.54393005371094 17.832443237304688 C 130.75059509277344 22.42255973815918 130.259033203125 25.69074821472168 122.23377990722656 25.243330001831055 C 124.28817749023438 27.280675888061523 124.47374725341797 27.835914611816406 125.44026184082031 13.627508163452148 C 119.9308090209961 14.40413761138916 130.48048400878906 15.244328498840332 125.79435729980469 14.788454055786133 C 126.02340698242188 14.143839836120605 130.5577392578125 11.67802906036377 129.54393005371094 17.832443237304688"/>
    <path stroke-width="0" fill="rgb(47, 93, 105)" opacity="0.034157477" stroke="rgb(0, 0, 0)" stroke-opacity="0.0" stroke-linecap="round" stroke-linejoin="round" d="M 446.3471374511719 9.498348236083984 C 449.7997131347656 20.344253540039062 449.0403137207031 22.762863159179688 445.2702941894531 23.790258407592773 C 443.0532531738281 20.403518676757812 440.237548828125 16.904335021972656 437.5374450683594 15.501630783081055 C 429.8323059082031 9.360692024230957 434.0941467285156 8.584486961364746 438.6202087402344 10.665815353393555 C 449.8382263183594 6.040741443634033 455.2323913574219 10.097334861755371 446.3471374511719 9.498348236083984"/>
    <path stroke-width="0" fill="rgb(24, 115, 146)" opacity="0.014588389" stroke="rgb(0, 0, 0)" stroke-opacity="0.0" stroke-linecap="round" stroke-linejoin="round" d="M 15.61478042602539 -3.0904903411865234 C 22.71541404724121 9.754358291625977 20.703237533569336 12.851364135742188 13.42646312713623 7.328031539916992 C 18.586429595947266 16.571651458740234 11.010629653930664 15.972522735595703 4.686570644378662 9.780977249145508 C 12.14322280883789 3.4226834774017334 14.517834663391113 -0.4816065728664398 21.201717376708984 -3.6568446159362793 C 25.95378303527832 -2.431492567062378 24.316709518432617 -0.9245772361755371 15.61478042602539 -3.0904903411865234"/>
    <path stroke-width="0" fill="rgb(29, 94, 237)" opacity="0.11380284" stroke="rgb(0, 0, 0)" stroke-opacity="0.0" stroke-linecap="round" stroke-linejoin="round" d="M 22.77452850341797 -1.9869942665100098 C 21.412546157836914 12.451130867004395 22.88232421875 26.40607452392578 16.7673282623291 21.93107032775879 C -7.7413859367370605 22.30196189880371 -2.3418338298797607 26.009654998779297 -2.3834939002990723 11.571404457092285 C -2.0991060733795166 2.2770023345947266 -0.34108275175094604 -5.305078506469727 10.453932762145996 -3.6299386024475098 C 13.654854774475098 2.9435062408447266 12.790343284606934 2.2251012325286865 22.77452850341797 -1.9869942665100098"/>
    <path stroke-width="0" fill="rgb(42, 103, 118)" opacity="-0.0289244" stroke="rgb(0, 0, 0)" stroke-opacity="0.0" stroke-linecap="round" stroke-linejoin="round" d="M 63.851844787597656 17.471498489379883 C 64.62653350830078 27.29520606994629 63.958763122558594 25.203075408935547 49.82904815673828 25.25131607055664 C 48.79718780517578 31.19327163696289 51.591556549072266 25.641645431518555 51.453548431396484 13.57603931427002 C 43.85181427001953 8.724418640136719 45.824214935302734 6.399387359619141 46.074462890625 14.729820251464844 C 54.94450759887695 15.920696258544922 59.3763542175293 11.829924583435059 63.851844787597656 17.471498489379883"/>
    <path stroke-width="0" fill="rgb(80, 61, 226)" opacity="0.13802543" stroke="rgb(0, 0, 0)" stroke-opacity="0.0" stroke-linecap="round" stroke-linejoin="round" d="M 17.93172836303711 5.562080383300781 C 14.788288116455078 1.5263006687164307 11.945892333984375 3.4806809425354004 9.350022315979004 9.584661483764648 C 1.1976820230484009 27.378374099731445 -2.8195998668670654 31.34996795654297 1.476822018623352 16.216327667236328 C 4.720211029052734 2.1870052814483643 1.4022408723831177 -4.460616588592529 14.631182670593262 -6.363393783569336 C 18.28466796875 -1.5596368312835693 14.688618659973145 6.151732444763184 17.93172836303711 5.562080383300781"/>
    <path stroke-width="0" fill="rgb(142, 68, 145)" opacity="0.2250996" stroke="rgb(0, 0, 0)" stroke-opacity="0.0" stroke-linecap="round" stroke-linejoin="round" d="M -0.11359287798404694 -6.4046831130981445 C -3.314983606338501 -1.6372007131576538 -2.904615879058838 -0.043170999735593796 3.3252997398376465 23.280433654785156 C 2.7093565464019775 35.926212310791016 -8.984160423278809 26.373579025268555 -6.966277599334717 10.18438720703125 C -1.891053557395935 0.405823290348053 1.0371496677398682 -2.5223798751831055 5.331876754760742 -3.8086094856262207 C 9.666107177734375 -3.559802532196045 12.15905475616455 -2.2495481967926025 -0.11359287798404694 -6.4046831130981445"/>
    <path stroke-width="0" fill="rgb(51, 124, 92)" opacity="-0.10704523" stroke="rgb(0, 0, 0)" stroke-opacity="0.0" stroke-linecap="round" stroke-linejoin="round" d="M 7.47764778137207 0.7943040132522583 C 14.008772850036621 7.176449775695801 20.851354598999023 5.346923351287842 9.991560935974121 5.349859714508057 C -5.990732669830322 12.020722389221191 -11.775228500366211 2.8908743858337402 5.565796852111816 1.1939582824707031 C 10.950788497924805 0.9884904623031616 8.086109161376953 -5.736198902130127 10.936650276184082 -7.386102199554443 C 14.872758865356445 -6.352756500244141 17.43547248840332 -3.640643835067749 7.47764778137207 0.7943040132522583"/>
    <path stroke-width="0" fill="rgb(35, 108, 130)" opacity="0.16626479" stroke="rgb(0, 0, 0)" stroke-opacity="0.0" stroke-linecap="round" stroke-linejoin="round" d="M 275.5455322265625 -1.0864741802215576 C 273.9345397949219 -2.8327560424804688 270.7045593261719 0.22235289216041565 274.90771484375 1.4561231136322021 C 272.509033203125 -7.048422336578369 256.692138671875 -3.448580741882324 258.8211669921875 1.5039260387420654 C 253.7770538330078 -0.4435470402240753 258.708984375 -2.8262031078338623 268.2752685546875 -4.959630966186523 C 276.3927307128906 -6.294095516204834 277.0536193847656 -4.980818748474121 275.5455322265625 -1.0864741802215576"/>
    <path stroke-width="0" fill="rgb(-2, 123, 150)" opacity="0.087304346" stroke="rgb(0, 0, 0)" stroke-opacity="0.0" stroke-linecap="round" stroke-linejoin="round" d="M 35.26901626586914 -2.5039150714874268 C 35.70386505126953 7.268601417541504 34.862327575683594 10.462066650390625 36.499088287353516 2.69356369972229 C 29.554500579833984 6.640852451324463 28.620136260986328 7.381505489349365 30.717124938964844 3.585512161254883 C 23.598562240600586 -3.6249029636383057 25.25140380859375 -4.82671594619751 29.006885528564453 -5.837064743041992 C 33.180294036865234 -4.753464221954346 31.660972595214844 -0.34400486946105957 35.26901626586914 -2.5039150714874268"/>
    <path stroke-width="0" fill="rgb(60, 84, 149)" opacity="0.028891534" stroke="rgb(0, 0, 0)" stroke-opacity="0.0" stroke-linecap="round" stroke-linejoin="round" d="M 51.1552619934082 10.178279876708984 C 57.67622756958008 17.44987678527832 60.534332275390625 23.40232276916504 53.02782440185547 20.957599639892578 C 49.07899856567383 24.551254272460938 43.48479080200195 23.688865661621094 45.9847412109375 19.802837371826172 C 44.618228912353516 12.688776016235352 48.95487594604492 11.78474235534668 55.719482421875 10.378634452819824 C 53.24510955810547 12.402432441711426 52.887332916259766 14.487225532531738 51.1552619934082 10.178279876708984"/>
    <path stroke-width="0" fill="rgb(34, 99, 134)" opacity="0.025003111" stroke="rgb(0, 0, 0)" stroke-opacity="0.0" stroke-linecap="round" stroke-linejoin="round" d="M 37.668113708496094 8.072128295898438 C 35.697303771972656 12.0997953414917 37.34693908691406 20.9542179107666 36.25057601928711 11.415142059326172 C 27.6253604888916 15.337691307067871 23.89350700378418 17.919702529907227 22.38164710998535 14.600442886352539 C 27.449291229248047 2.257694721221924 27.221359252929688 -3.680690050125122 32.76255798339844 -4.800252914428711 C 40.18191909790039 -1.7563546895980835 39.286197662353516 3.0870587825775146 37.668113708496094 8.072128295898438"/>
    <path stroke-width="0" fill="rgb(58, 46, 204)" opacity="0.02305917" stroke="rgb(0, 0, 0)" stroke-opacity="0.0" stroke-linecap="round" stroke-linejoin="round" d="M 245.92050170898438 82.94480895996094 C 242.47000122070312 87.85126495361328 254.64552307128906 82.82727813720703 250.33425903320312 84.13336181640625 C 233.25112915039062 88.39151000976562 235.27505493164062 84.83836364746094 232.72198486328125 78.69209289550781 C 238.0262451171875 72.609619140625 237.9647216796875 74.54293060302734 232.5542755126953 78.13602447509766 C 240.5419921875 68.56559753417969 259.1814270019531 75.23290252685547 245.92050170898438 82.94480895996094"/>
    <path stroke-width="0" fill="rgb(97, 78, 109)" opacity="0.030209487" stroke="rgb(0, 0, 0)" stroke-opacity="0.0" stroke-linecap="round" stroke-linejoin="round" d="M 94.47502899169922 452.7980651855469 C 90.60572814941406 452.0903015136719 92.5820541381836 453.10205078125 92.29743957519531 447.90887451171875 C 91.4941177368164 450.83367919921875 88.94503784179688 446.1594543457031 89.23406982421875 448.4183654785156 C 89.50589752197266 448.1587219238281 86.48871612548828 442.37591552734375 81.16073608398438 448.72216796875 C 84.53498077392578 455.59759521484375 90.91150665283203 455.0360412597656 94.47502899169922 452.7980651855469"/>
    <path stroke-width="0" fill="rgb(46, 109, 94)" opacity="0.07019442" stroke="rgb(0, 0, 0)" stroke-opacity="0.0" stroke-linecap="round" stroke-linejoin="round" d="M 62.31440353393555 405.2140808105469 C 70.82003021240234 406.5220642089844 67.64181518554688 407.38909912109375 61.86450958251953 409.033935546875 C 58.19279098510742 406.59588623046875 56.104244232177734 402.8143005371094 57.166770935058594 400.2218933105469 C 51.172264099121094 393.44635009765625 51.681617736816406 388.1116027832031 60.736785888671875 390.03717041015625 C 64.17454528808594 393.1860656738281 63.292030334472656 399.12457275390625 62.31440353393555 405.2140808105469"/>
    <path stroke-width="0" fill="rgb(96, 57, 182)" opacity="-0.003288792" stroke="rgb(0, 0, 0)" stroke-opacity="0.0" stroke-linecap="round" stroke-linejoin="round" d="M 28.5517635345459 -2.396570920944214 C 27.759803771972656 6.535489082336426 30.10845184326172 12.098182678222656 23.89282989501953 5.417112827301025 C 27.444530487060547 7.475782871246338 30.207372665405273 1.3927834033966064 26.47857666015625 -9.324182510375977 C 20.115108489990234 -3.9630367755889893 23.043787002563477 -6.891108989715576 27.043367385864258 -7.962973117828369 C 31.026105880737305 -6.894745349884033 33.56560134887695 -4.136622905731201 28.5517635345459 -2.396570920944214"/>
    <path stroke-width="0" fill="rgb(25, 47, 157)" opacity="0.08284187" stroke="rgb(0, 0, 0)" stroke-opacity="0.0" stroke-linecap="round" stroke-linejoin="round" d="M 159.1405029296875 41.33687210083008 C 158.93838500976562 52.018367767333984 158.07835388183594 56.36790466308594 146.09893798828125 47.7322998046875 C 150.91165161132812 54.93573760986328 152.4015350341797 51.47294998168945 150.1423797607422 43.300838470458984 C 151.54440307617188 41.1888542175293 157.22705078125 43.062679290771484 160.7265625 31.952478408813477 C 154.7849884033203 29.898996353149414 151.02976989746094 38.790283203125 159.1405029296875 41.33687210083008"/>
    <path stroke-width="0" fill="rgb(225, 55, 58)" opacity="0.7484325" stroke="rgb(0, 0, 0)" stroke-opacity="0.0" stroke-linecap="round" stroke-linejoin="round" d="M 14.258832931518555 -16.695833206176758 C 13.18703556060791 -12.695834159851074 10.258832931518555 -9.767630577087402 6.2588324546813965 -8.695834159851074 C 2.2588326930999756 -9.767630577087402 -0.6693705320358276 -12.695834159851074 -1.7411673069000244 -16.695833206176758 C -0.6693705320358276 -20.695833206176758 2.2588326930999756 -23.62403678894043 6.2588324546813965 -24.695833206176758 C 10.258832931518555 -23.62403678894043 13.18703556060791 -20.695833206176758 14.258832931518555 -16.695833206176758"/>
    <path stroke-width="0" fill="rgb(36, 142, 137)" opacity="-0.070659444" stroke="rgb(0, 0, 0)" stroke-opacity="0.0" stroke-linecap="round" stroke-linejoin="round" d="M 23.932451248168945 7.219284534454346 C 22.657018661499023 27.991539001464844 26.639633178710938 23.596248626708984 20.133342742919922 24.38709259033203 C 3.5793344974517822 27.77946662902832 -0.7425985932350159 26.338626861572266 -2.0006558895111084 25.03484344482422 C -5.150423049926758 4.018004417419434 -5.387731075286865 2.066349506378174 6.170102596282959 3.2528228759765625 C 12.814324378967285 11.123122215270996 21.793846130371094 5.262407302856445 23.932451248168945 7.219284534454346"/>
    <path stroke-width="0" fill="rgb(72, 72, 62)" opacity="-0.10046852" stroke="rgb(0, 0, 0)" stroke-opacity="0.0" stroke-linecap="round" stroke-linejoin="round" d="M 162.20518493652344 191.78602600097656 C 160.0574493408203 202.36997985839844 153.01356506347656 207.1114044189453 153.5136260986328 208.5580596923828 C 136.61932373046875 209.5994415283203 135.8802947998047 210.0713348388672 138.949951171875 201.4488067626953 C 135.42214965820312 195.0131072998047 139.9424591064453 196.2327423095703 151.1231689453125 199.31370544433594 C 151.62818908691406 198.82717895507812 152.60658264160156 197.95535278320312 162.20518493652344 191.78602600097656"/>
    <path stroke-width="0" fill="rgb(95, 87, 63)" opacity="-0.028677518" stroke="rgb(0, 0, 0)" stroke-opacity="0.0" stroke-linecap="round" stroke-linejoin="round" d="M 36.55244064331055 227.13694763183594 C 36.517738342285156 230.30743408203125 41.17404556274414 237.43389892578125 37.79362487792969 235.08697509765625 C 22.637086868286133 229.96380615234375 18.3581600189209 230.37828063964844 23.886964797973633 224.28123474121094 C 22.042152404785156 218.77902221679688 26.8443660736084 214.556640625 31.337894439697266 212.52676391601562 C 36.32893753051758 216.44699096679688 38.57384490966797 220.8170623779297 36.55244064331055 227.13694763183594"/>
    <path stroke-width="0" fill="rgb(45, 105, 114)" opacity="0.0036930481" stroke="rgb(0, 0, 0)" stroke-opacity="0.0" stroke-linecap="round" stroke-linejoin="round" d="M 89.09555053710938 433.805419921875 C 94.36746215820312 433.7914123535156 92.1527328491211 442.5953369140625 87.4863052368164 442.00750732421875 C 77.32150268554688 438.781982421875 73.99678039550781 434.1441345214844 75.98303985595703 428.9906005859375 C 79.8419189453125 428.4427185058594 82.0940933227539 426.1576232910156 80.06855773925781 427.16790771484375 C 81.26043701171875 429.8505554199219 82.9327621459961 433.68780517578125 89.09555053710938 433.805419921875"/>
    <path stroke-width="0" fill="rgb(102, 53, 169)" opacity="0.17303221" stroke="rgb(0, 0, 0)" stroke-opacity="0.0" stroke-linecap="round" stroke-linejoin="round" d="M 183.70538330078125 178.49217224121094 C 174.6341552734375 180.43316650390625 172.06649780273438 171.45245361328125 165.87277221679688 170.03570556640625 C 174.6028289794922 176.60935974121094 171.1121063232422 168.32371520996094 168.2440948486328 151.40809631347656 C 163.49710083007812 152.7628173828125 162.9188232421875 147.39564514160156 163.6438751220703 162.46290588378906 C 167.68397521972656 163.47064208984375 174.19140625 163.19085693359375 183.70538330078125 178.49217224121094"/>
    <path stroke-width="0" fill="rgb(207, 363, 54)" opacity="0.21616207" stroke="rgb(0, 0, 0)" stroke-opacity="0.0" stroke-linecap="round" stroke-linejoin="round" d="M 342.8369445800781 293.0185852050781 C 340.646240234375 306.3032531738281 338.12249755859375 315.22149658203125 336.03521728515625 327.8505554199219 C 345.1717834472656 337.67138671875 345.4675598144531 317.8368835449219 351.82464599609375 304.3294372558594 C 345.3034362792969 298.5751647949219 348.7746887207031 307.8660583496094 352.656494140625 306.865966796875 C 348.5741271972656 308.25775146484375 349.7717590332031 306.9820861816406 342.8369445800781 293.0185852050781"/>
    <path stroke-width="0" fill="rgb(20, 148, 102)" opacity="0.033024155" stroke="rgb(0, 0, 0)" stroke-opacity="0.0" stroke-linecap="round" stroke-linejoin="round" d="M 358.4825439453125 238.8016815185547 C 354.2095642089844 239.00534057617188 353.57305908203125 236.54100036621094 342.0279541015625 233.24559020996094 C 343.4844665527344 240.54348754882812 335.443115234375 242.56845092773438 347.3888244628906 249.96434020996094 C 344.77484130859375 241.2871551513672 345.31500244140625 229.35630798339844 343.4226989746094 232.00131225585938 C 343.87322998046875 235.38072204589844 350.3135070800781 235.61387634277344 358.4825439453125 238.8016815185547"/>
    <path stroke-width="0" fill="rgb(90, 88, 97)" opacity="-0.037588373" stroke="rgb(0, 0, 0)" stroke-opacity="0.0" stroke-linecap="round" stroke-linejoin="round" d="M 443.74200439453125 251.6663055419922 C 444.6435852050781 251.76718139648438 446.0130310058594 259.29815673828125 446.4488220214844 259.5729064941406 C 447.6219787597656 249.27096557617188 443.0681457519531 249.4438018798828 439.6328125 245.7639923095703 C 442.8243713378906 251.5861358642578 444.0343017578125 250.86776733398438 443.0509948730469 247.34487915039062 C 441.1988220214844 246.37240600585938 442.1885681152344 250.97616577148438 443.74200439453125 251.6663055419922"/>
    <path stroke-width="0" fill="rgb(44, 44, 57)" opacity="0.0781814" stroke="rgb(0, 0, 0)" stroke-opacity="0.0" stroke-linecap="round" stroke-linejoin="round" d="M 360.2905578613281 261.3538818359375 C 371.7682800292969 270.3801574707031 368.5703430175781 276.8916320800781 352.9730224609375 261.62188720703125 C 349.57977294921875 255.55795288085938 332.33233642578125 261.7097473144531 341.527587890625 255.89793395996094 C 353.1317443847656 241.24534606933594 344.8187561035156 233.2468719482422 354.67401123046875 241.85389709472656 C 350.66497802734375 254.0318145751953 358.43017578125 260.8330383300781 360.2905578613281 261.3538818359375"/>
    <path stroke-width="0" fill="rgb(93, 81, 76)" opacity="0.017184792" stroke="rgb(0, 0, 0)" stroke-opacity="0.0" stroke-linecap="round" stroke-linejoin="round" d="M 156.29559326171875 508.3028869628906 C 171.2758026123047 507.9979248046875 173.50999450683594 511.8274841308594 164.67771911621094 517.630859375 C 156.07801818847656 516.6195068359375 159.1301727294922 513.955078125 158.26199340820312 499.8942565917969 C 147.78492736816406 491.8583679199219 151.53390502929688 491.80938720703125 159.16941833496094 519.0277709960938 C 174.8340301513672 509.5054626464844 174.95884704589844 504.3259582519531 156.29559326171875 508.3028869628906"/>
    <path stroke-width="0" fill="rgb(22, 155, 29)" opacity="0.13345192" stroke="rgb(0, 0, 0)" stroke-opacity="0.0" stroke-linecap="round" stroke-linejoin="round" d="M -100.48587799072266 -83.45436096191406 C -101.55767822265625 -79.45436096191406 -104.48587799072266 -76.52615356445312 -108.48587799072266 -75.45436096191406 C -112.48587799072266 -76.52615356445312 -115.4140853881836 -79.45436096191406 -116.48587799072266 -83.45436096191406 C -115.4140853881836 -87.45436096191406 -112.48587799072266 -90.38256072998047 -108.48587799072266 -91.45436096191406 C -104.48587799072266 -90.38256072998047 -101.55767822265625 -87.45436096191406 -100.48587799072266 -83.45436096191406"/>
    <path stroke-width="0" fill="rgb(105, 64, 133)" opacity="-0.027836826" stroke="rgb(0, 0, 0)" stroke-opacity="0.0" stroke-linecap="round" stroke-linejoin="round" d="M 440.12530517578125 366.60888671875 C 437.7264709472656 370.6470642089844 442.54534912109375 376.68255615234375 446.0091552734375 374.0283203125 C 426.6138610839844 376.7969970703125 434.0527038574219 374.574951171875 443.7438659667969 375.42041015625 C 430.38555908203125 369.75384521484375 435.1848449707031 362.93994140625 434.5339660644531 366.7306823730469 C 440.618896484375 366.0431823730469 441.6279296875 371.3175048828125 440.12530517578125 366.60888671875"/>
    <path stroke-width="0" fill="rgb(187, 96, 52)" opacity="0.4513437" stroke="rgb(0, 0, 0)" stroke-opacity="0.0" stroke-linecap="round" stroke-linejoin="round" d="M -0.10087472945451736 -1.1595016717910767 C -1.0227470397949219 3.737811326980591 -2.896090030670166 7.530107021331787 -6.448106288909912 8.862656593322754 C -10.362608909606934 7.76533317565918 -13.290812492370605 4.837129592895508 -14.362608909606934 0.8371297717094421 C -13.290812492370605 -3.162870168685913 -10.362608909606934 -6.091073513031006 -6.363867282867432 -7.162430763244629 C -2.4274260997772217 -6.066844940185547 0.3000953793525696 -2.932833671569824 -0.10087472945451736 -1.1595016717910767"/>
    <path stroke-width="0" fill="rgb(-3, 103, 132)" opacity="0.08173348" stroke="rgb(0, 0, 0)" stroke-opacity="0.0" stroke-linecap="round" stroke-linejoin="round" d="M 137.65028381347656 389.97882080078125 C 133.0416717529297 388.7423400878906 131.6170196533203 390.1995544433594 131.19000244140625 387.4085388183594 C 124.52937316894531 388.2887878417969 129.12477111816406 387.77349853515625 129.49761962890625 383.02154541015625 C 121.92637634277344 378.53143310546875 127.77843475341797 383.30267333984375 126.05077362060547 388.2590026855469 C 132.912353515625 379.5700378417969 137.82901000976562 385.9051208496094 137.65028381347656 389.97882080078125"/>
    <path stroke-width="0" fill="rgb(97, 93, 132)" opacity="-0.01924635" stroke="rgb(0, 0, 0)" stroke-opacity="0.0" stroke-linecap="round" stroke-linejoin="round" d="M 46.019962310791016 145.16209411621094 C 44.75033950805664 144.89389038085938 44.42714309692383 148.519775390625 35.02787780761719 149.170166015625 C 37.09895706176758 144.07041931152344 27.15346336364746 142.18637084960938 33.07880401611328 142.1768341064453 C 33.026145935058594 138.25621032714844 34.40354537963867 132.74740600585938 34.62306213378906 140.74087524414062 C 44.12934494018555 142.0224151611328 47.40320587158203 144.8124542236328 46.019962310791016 145.16209411621094"/>
    <path stroke-width="0" fill="rgb(213, 11, 17)" opacity="0.5931626" stroke="rgb(0, 0, 0)" stroke-opacity="0.0" stroke-linecap="round" stroke-linejoin="round" d="M 24.668621063232422 -21.762842178344727 C 23.596824645996094 -17.762842178344727 20.668621063232422 -14.834639549255371 16.668621063232422 -13.762843132019043 C 12.668622016906738 -14.834639549255371 9.740418434143066 -17.762842178344727 8.668622016906738 -21.762842178344727 C 9.740418434143066 -25.762842178344727 12.668622016906738 -28.6910457611084 16.668621063232422 -29.762842178344727 C 20.668621063232422 -28.6910457611084 23.596824645996094 -25.762842178344727 24.668621063232422 -21.762842178344727"/>
    <path stroke-width="0" fill="rgb(126, 251, 169)" opacity="0.54950905" stroke="rgb(0, 0, 0)" stroke-opacity="0.0" stroke-linecap="round" stroke-linejoin="round" d="M 108.10499572753906 -84.74349212646484 C 107.033203125 -80.74349212646484 104.10499572753906 -77.8152847290039 100.10499572753906 -76.74349212646484 C 96.10499572753906 -77.8152847290039 93.17679595947266 -80.74349212646484 92.10499572753906 -84.74349212646484 C 93.17679595947266 -88.74349212646484 96.10499572753906 -91.67169189453125 100.10499572753906 -92.74349212646484 C 104.10499572753906 -91.67169189453125 107.033203125 -88.74349212646484 108.10499572753906 -84.74349212646484"/>
    <path stroke-width="0" fill="rgb(197, 121, 32)" opacity="0.03342436" stroke="rgb(0, 0, 0)" stroke-opacity="0.0" stroke-linecap="round" stroke-linejoin="round" d="M 1.389222264289856 -17.607885360717773 C 0.3174254894256592 -13.607885360717773 -2.6107778549194336 -10.679681777954102 -6.610777854919434 -9.607885360717773 C -10.610777854919434 -10.679681777954102 -13.538981437683105 -13.607885360717773 -14.610777854919434 -17.607885360717773 C -13.538981437683105 -21.607885360717773 -10.610777854919434 -24.536088943481445 -6.610777854919434 -25.607885360717773 C -2.6107778549194336 -24.536088943481445 0.3174254894256592 -21.607885360717773 1.389222264289856 -17.607885360717773"/>
    <path stroke-width="0" fill="rgb(85, 84, 141)" opacity="0.06036656" stroke="rgb(0, 0, 0)" stroke-opacity="0.0" stroke-linecap="round" stroke-linejoin="round" d="M 62.47951126098633 461.0007019042969 C 60.64700698852539 466.3165283203125 61.274147033691406 465.60369873046875 53.64175033569336 467.1054992675781 C 52.90867614746094 462.34454345703125 48.67303466796875 459.4472351074219 44.386741638183594 461.4602966308594 C 43.987449645996094 449.9140625 48.578250885009766 446.180908203125 54.79004669189453 443.2730712890625 C 61.48722457885742 444.2819519042969 63.675148010253906 444.3397216796875 62.47951126098633 461.0007019042969"/>
    <path stroke-width="0" fill="rgb(8, 92, 147)" opacity="-0.0066592256" stroke="rgb(0, 0, 0)" stroke-opacity="0.0" stroke-linecap="round" stroke-linejoin="round" d="M 197.5272674560547 470.0433349609375 C 204.51638793945312 464.855712890625 198.2198486328125 464.0841064453125 199.89987182617188 449.2076110839844 C 185.7421112060547 455.375732421875 190.1097869873047 458.7966003417969 191.5097198486328 454.84014892578125 C 187.9202423095703 453.3254699707031 193.1678009033203 449.4400329589844 197.5833282470703 456.05169677734375 C 194.0606689453125 458.0148010253906 197.04664611816406 453.3711242675781 197.5272674560547 470.0433349609375"/>
    <path stroke-width="0" fill="rgb(50, 103, 58)" opacity="-0.02279978" stroke="rgb(0, 0, 0)" stroke-opacity="0.0" stroke-linecap="round" stroke-linejoin="round" d="M 134.2611846923828 418.5985107421875 C 130.93902587890625 416.4559020996094 130.341064453125 424.1889343261719 126.12647247314453 427.79559326171875 C 122.320068359375 421.0282287597656 121.81462097167969 413.3247985839844 119.48013305664062 411.4963073730469 C 118.26498413085938 410.23162841796875 122.32987213134766 406.2215576171875 118.47431945800781 413.3368225097656 C 126.41045379638672 418.93231201171875 133.8446502685547 419.00091552734375 134.2611846923828 418.5985107421875"/>
    <path stroke-width="0" fill="rgb(105, 42, 192)" opacity="0.020275109" stroke="rgb(0, 0, 0)" stroke-opacity="0.0" stroke-linecap="round" stroke-linejoin="round" d="M 320.97515869140625 459.85888671875 C 320.087646484375 466.429443359375 327.2863464355469 466.1319885253906 320.58746337890625 460.2860412597656 C 309.72509765625 466.275634765625 314.04302978515625 468.11224365234375 313.5074157714844 464.8782958984375 C 310.67010498046875 455.6383361816406 314.0498046875 456.2147521972656 311.6744689941406 460.3770751953125 C 314.6571350097656 463.6836853027344 323.2828063964844 461.040771484375 320.97515869140625 459.85888671875"/>
    <path stroke-width="0" fill="rgb(-48, 150, 30)" opacity="-0.11897993" stroke="rgb(0, 0, 0)" stroke-opacity="0.0" stroke-linecap="round" stroke-linejoin="round" d="M 184.06771850585938 417.9112854003906 C 165.64541625976562 422.218017578125 164.62583923339844 423.8721923828125 168.14837646484375 419.7889099121094 C 167.18540954589844 422.97003173828125 164.52813720703125 425.2583923339844 154.56521606445312 423.46044921875 C 165.75299072265625 415.4173889160156 182.1234130859375 419.0205993652344 180.5072479248047 429.0870666503906 C 163.72093200683594 419.802978515625 174.29107666015625 415.03948974609375 184.06771850585938 417.9112854003906"/>
    <path stroke-width="0" fill="rgb(43, 93, 121)" opacity="-0.030302633" stroke="rgb(0, 0, 0)" stroke-opacity="0.0" stroke-linecap="round" stroke-linejoin="round" d="M 55.66583251953125 297.0736083984375 C 56.40165710449219 298.84429931640625 57.16279220581055 303.1339416503906 54.08615493774414 297.5181884765625 C 54.21599578857422 302.0639343261719 57.612548828125 301.9263000488281 55.28506088256836 294.9985046386719 C 58.36128234863281 297.85589599609375 62.41614532470703 295.8545837402344 57.284671783447266 298.5552673339844 C 60.27854919433594 299.7188720703125 65.4446029663086 298.233154296875 55.66583251953125 297.0736083984375"/>
    <path stroke-width="0" fill="rgb(0, 105, 193)" opacity="0.13040389" stroke="rgb(0, 0, 0)" stroke-opacity="0.0" stroke-linecap="round" stroke-linejoin="round" d="M 360.64044189453125 235.36964416503906 C 356.23248291015625 247.59605407714844 355.0196838378906 254.2311248779297 350.95709228515625 257.8865051269531 C 348.2084655761719 245.62791442871094 338.0509338378906 244.91600036621094 343.76763916015625 239.87767028808594 C 346.45947265625 231.11965942382812 342.5960998535156 226.98524475097656 351.42578125 228.62513732910156 C 351.5281677246094 232.43614196777344 355.56732177734375 237.47071838378906 360.64044189453125 235.36964416503906"/>
  </g>
</svg>
