<?xml version="1.0" ?>
<svg xmlns="http://www.w3.org/2000/svg" version="1.1" width="512" height="512">
  <defs/>
  <g>
    <path stroke-width="0" fill="rgb(67, 87, 226)" opacity="1.1341429" stroke="rgb(139, 182, 153)" stroke-opacity="1.0" stroke-linecap="round" stroke-linejoin="round" d="M 218.26089477539062 -5.761042594909668 C 165.81610107421875 3.3088998794555664 202.04745483398438 58.19327163696289 73.60908508300781 136.5543975830078 C 58.149410247802734 122.45035552978516 54.64582824707031 110.62860107421875 52.31056213378906 89.00526428222656 C 52.34844207763672 -70.5676498413086 64.50621032714844 -70.43367004394531 84.59436798095703 -59.90730667114258 C 196.87890625 -32.08534240722656 204.9210205078125 -25.525909423828125 218.26089477539062 -5.761042594909668"/>
    <path stroke-width="0" fill="rgb(55, 56, 210)" opacity="0.992667" stroke="rgb(108, 164, 111)" stroke-opacity="1.0" stroke-linecap="round" stroke-linejoin="round" d="M 149.2537384033203 72.68169403076172 C 157.15463256835938 157.90240478515625 160.5545654296875 170.38201904296875 98.72982788085938 171.89404296875 C -60.11142349243164 166.4847412109375 -46.965171813964844 135.57614135742188 -40.90219497680664 84.79295349121094 C -38.50617218017578 -35.472816467285156 -31.483736038208008 -40.57529067993164 63.9171142578125 -41.840797424316406 C 138.80638122558594 -56.9267463684082 151.5015106201172 -67.24494171142578 149.2537384033203 72.68169403076172"/>
    <path stroke-width="0" fill="rgb(53, 59, 206)" opacity="0.98372257" stroke="rgb(245, 97, 201)" stroke-opacity="1.0" stroke-linecap="round" stroke-linejoin="round" d="M 488.3326721191406 529.4459838867188 C 350.8706970214844 582.8856811523438 327.6231384277344 574.8817749023438 -39.52774429321289 555.3480224609375 C -75.76151275634766 413.1372375488281 -51.65288543701172 351.97052001953125 -49.121238708496094 135.68014526367188 C -56.13681411743164 98.48490905761719 -58.35083770751953 88.63776397705078 152.4727325439453 84.42973327636719 C 268.766357421875 76.35188293457031 401.1159362792969 28.41167640686035 488.3326721191406 529.4459838867188"/>
    <path stroke-width="0" fill="rgb(-19, 86, 152)" opacity="1.0017648" stroke="rgb(144, 236, 18)" stroke-opacity="1.0" stroke-linecap="round" stroke-linejoin="round" d="M 548.4172973632812 552.029541015625 C 339.4164733886719 513.4067993164062 281.5197448730469 426.50347900390625 184.57846069335938 299.0162353515625 C 106.00303649902344 144.47531127929688 74.23668670654297 145.36058044433594 65.08170318603516 137.42478942871094 C 189.48683166503906 29.622474670410156 138.86273193359375 -25.93585205078125 452.2193298339844 -56.89841842651367 C 555.062744140625 -124.77310180664062 573.008544921875 -219.4150390625 548.4172973632812 552.029541015625"/>
    <path stroke-width="0" fill="rgb(257, 219, 192)" opacity="0.95048195" stroke="rgb(5, 212, 198)" stroke-opacity="1.0" stroke-linecap="round" stroke-linejoin="round" d="M 365.7391052246094 366.0101318359375 C 338.6702880859375 310.1555480957031 387.6993103027344 439.37176513671875 342.94873046875 406.9715881347656 C 352.1373291015625 274.3764953613281 240.5686798095703 484.5406188964844 277.252685546875 329.6728515625 C 240.15333557128906 252.226806640625 290.7425537109375 232.3780517578125 275.6031799316406 311.18414306640625 C 371.5399475097656 223.57247924804688 352.46636962890625 331.4244079589844 365.7391052246094 366.0101318359375"/>
    <path stroke-width="0" fill="rgb(247, 253, 265)" opacity="1.0306559" stroke="rgb(249, 203, 117)" stroke-opacity="1.0" stroke-linecap="round" stroke-linejoin="round" d="M 264.69500732421875 326.8073425292969 C 247.49693298339844 349.8366394042969 294.7694396972656 355.3127746582031 231.5124053955078 350.5743713378906 C 215.05616760253906 348.97589111328125 200.3393096923828 313.6823425292969 199.69602966308594 330.98284912109375 C 174.5231475830078 306.4605407714844 153.79330444335938 318.1676940917969 192.03219604492188 282.33209228515625 C 278.1226501464844 299.8439025878906 268.9053649902344 263.3192138671875 264.69500732421875 326.8073425292969"/>
    <path stroke-width="0" fill="rgb(269, 229, 155)" opacity="1.0339056" stroke="rgb(30, 163, 36)" stroke-opacity="1.0" stroke-linecap="round" stroke-linejoin="round" d="M 402.5908203125 333.76983642578125 C 403.7940979003906 382.17181396484375 385.6988830566406 371.21875 340.8216552734375 341.4624938964844 C 376.0038146972656 318.4728088378906 327.7501220703125 318.5724792480469 285.1512451171875 304.6008605957031 C 226.84585571289062 278.1374816894531 297.6446533203125 211.2753143310547 342.46881103515625 283.2198181152344 C 332.9582824707031 291.1121520996094 358.7353820800781 266.0940856933594 402.5908203125 333.76983642578125"/>
    <path stroke-width="0" fill="rgb(258, 169, 25)" opacity="0.9797342" stroke="rgb(133, 105, 67)" stroke-opacity="1.0" stroke-linecap="round" stroke-linejoin="round" d="M 304.5183410644531 91.34574127197266 C 323.2770690917969 239.0143585205078 128.6192626953125 244.989990234375 220.0712432861328 77.01969146728516 C 182.40673828125 179.7240753173828 141.36412048339844 234.97462463378906 182.3896942138672 124.8107681274414 C 217.30117797851562 49.516151428222656 214.45840454101562 64.69644165039062 232.43716430664062 69.18347930908203 C 239.02914428710938 100.3433837890625 225.15721130371094 123.54811096191406 304.5183410644531 91.34574127197266"/>
    <path stroke-width="0" fill="rgb(252, 242, 227)" opacity="0.90766406" stroke="rgb(116, 144, 4)" stroke-opacity="1.0" stroke-linecap="round" stroke-linejoin="round" d="M 299.11871337890625 320.8873291015625 C 306.72296142578125 339.7587890625 395.48114013671875 329.35015869140625 198.17018127441406 280.145751953125 C 196.33673095703125 268.2942199707031 152.83807373046875 375.45361328125 147.16673278808594 244.97036743164062 C 221.2076873779297 -30.61393165588379 154.34994506835938 232.9022674560547 267.1922302246094 237.82797241210938 C 292.8069152832031 259.6316833496094 258.5890808105469 138.94549560546875 299.11871337890625 320.8873291015625"/>
    <path stroke-width="0" fill="rgb(269, 268, 251)" opacity="0.98162276" stroke="rgb(156, 157, 240)" stroke-opacity="1.0" stroke-linecap="round" stroke-linejoin="round" d="M 228.57676696777344 215.52857971191406 C 304.5092468261719 262.1171569824219 185.5488739013672 226.35195922851562 199.53610229492188 188.83457946777344 C 309.53692626953125 303.06787109375 168.3600616455078 129.6212615966797 238.8934326171875 234.5613555908203 C 164.10311889648438 190.70489501953125 124.9542007446289 112.89021301269531 279.68353271484375 194.94970703125 C 322.3933410644531 269.1361999511719 181.39842224121094 163.57461547851562 228.57676696777344 215.52857971191406"/>
    <path stroke-width="0" fill="rgb(273, 215, 159)" opacity="0.85907406" stroke="rgb(91, 111, 177)" stroke-opacity="1.0" stroke-linecap="round" stroke-linejoin="round" d="M 174.01878356933594 264.6954650878906 C 145.8107147216797 253.77711486816406 233.9641571044922 281.919921875 177.62001037597656 409.263916015625 C 117.17070007324219 434.86138916015625 187.61082458496094 450.2578430175781 157.02117919921875 287.67193603515625 C 151.31336975097656 164.62290954589844 166.19076538085938 270.4801025390625 179.76708984375 129.1682891845703 C 357.4249267578125 40.12776565551758 89.648193359375 196.69140625 174.01878356933594 264.6954650878906"/>
    <path stroke-width="0" fill="rgb(268, 238, 198)" opacity="1.058221" stroke="rgb(170, 171, 53)" stroke-opacity="1.0" stroke-linecap="round" stroke-linejoin="round" d="M 280.2209777832031 319.1666564941406 C 264.6765441894531 423.5868835449219 269.0283508300781 439.6417236328125 267.27667236328125 441.7080078125 C 225.81336975097656 442.7010498046875 247.2376251220703 462.0164489746094 247.84339904785156 345.083740234375 C 225.99293518066406 319.5442810058594 197.39002990722656 312.2108154296875 257.0357971191406 266.8672180175781 C 292.26513671875 221.00100708007812 280.9833679199219 235.5232391357422 280.2209777832031 319.1666564941406"/>
    <path stroke-width="0" fill="rgb(280, 216, 286)" opacity="0.7999082" stroke="rgb(80, 92, 145)" stroke-opacity="1.0" stroke-linecap="round" stroke-linejoin="round" d="M 169.41355895996094 417.7143249511719 C 186.77430725097656 399.0085144042969 149.18728637695312 394.9857482910156 153.79312133789062 416.1827392578125 C 197.42320251464844 412.6097106933594 169.11959838867188 421.708740234375 182.56735229492188 393.619140625 C 131.0791778564453 418.1737060546875 142.77593994140625 386.69256591796875 185.89688110351562 405.62823486328125 C 144.67303466796875 370.5731201171875 177.58645629882812 407.6750793457031 169.41355895996094 417.7143249511719"/>
    <path stroke-width="0" fill="rgb(198, 222, 190)" opacity="1.0258318" stroke="rgb(166, 64, 118)" stroke-opacity="1.0" stroke-linecap="round" stroke-linejoin="round" d="M 194.4545440673828 333.4634704589844 C 201.90701293945312 341.1004638671875 178.72573852539062 347.2499694824219 194.72265625 306.1537780761719 C 203.89552307128906 345.1679382324219 217.449951171875 297.3346252441406 194.327880859375 349.4312744140625 C 193.39170837402344 337.0154724121094 188.384033203125 323.5082702636719 176.17103576660156 359.06707763671875 C 187.54942321777344 353.9492492675781 192.37965393066406 376.20599365234375 194.4545440673828 333.4634704589844"/>
    <path stroke-width="0" fill="rgb(312, 287, 240)" opacity="0.86303246" stroke="rgb(50, 94, 209)" stroke-opacity="1.0" stroke-linecap="round" stroke-linejoin="round" d="M 183.79052734375 388.4858093261719 C 179.65701293945312 422.6160583496094 167.2286834716797 413.84423828125 213.08705139160156 401.4259033203125 C 152.06602478027344 418.19000244140625 180.08114624023438 423.7616271972656 146.5104522705078 420.1726989746094 C 142.48117065429688 383.7352600097656 163.33164978027344 409.4129638671875 171.72264099121094 395.0973815917969 C 142.248046875 388.9658203125 191.98008728027344 401.8057861328125 183.79052734375 388.4858093261719"/>
    <path stroke-width="0" fill="rgb(-22, 86, 144)" opacity="0.9752139" stroke="rgb(72, 30, 75)" stroke-opacity="1.0" stroke-linecap="round" stroke-linejoin="round" d="M 439.20306396484375 634.2423095703125 C -24.414188385009766 452.480712890625 510.6669921875 379.89410400390625 541.4982299804688 355.5313720703125 C 274.483642578125 426.4790344238281 502.11468505859375 373.5768127441406 319.1417236328125 252.81280517578125 C 248.16510009765625 246.64678955078125 306.1702575683594 245.4522247314453 285.8484802246094 117.9063720703125 C 340.89837646484375 55.073577880859375 695.82080078125 -23.034406661987305 439.20306396484375 634.2423095703125"/>
    <path stroke-width="0" fill="rgb(291, 310, 60)" opacity="0.7804645" stroke="rgb(146, 236, 81)" stroke-opacity="1.0" stroke-linecap="round" stroke-linejoin="round" d="M 194.0876922607422 95.62982940673828 C 201.99462890625 110.9062728881836 202.7892303466797 110.63965606689453 191.87144470214844 117.19702911376953 C 188.4867706298828 132.187744140625 205.46522521972656 133.043701171875 211.87298583984375 122.56031036376953 C 193.48533630371094 106.57389068603516 192.61842346191406 101.83633422851562 192.12655639648438 103.03900909423828 C 193.4114227294922 101.85491943359375 203.81161499023438 117.4522476196289 194.0876922607422 95.62982940673828"/>
    <path stroke-width="0" fill="rgb(-4, 71, 171)" opacity="0.71695954" stroke="rgb(33, 182, 73)" stroke-opacity="1.0" stroke-linecap="round" stroke-linejoin="round" d="M 289.1270446777344 127.51911926269531 C 301.1116027832031 172.45184326171875 281.9062805175781 134.4501190185547 285.8563537597656 134.312744140625 C 290.783447265625 127.78045654296875 294.5797119140625 139.11671447753906 295.66259765625 127.70772552490234 C 288.4698181152344 180.3304901123047 293.01934814453125 144.21937561035156 290.95758056640625 166.83746337890625 C 288.55841064453125 98.02859497070312 293.7474365234375 168.31353759765625 289.1270446777344 127.51911926269531"/>
    <path stroke-width="0" fill="rgb(188, 12, -39)" opacity="1.1560773" stroke="rgb(149, 5, 211)" stroke-opacity="1.0" stroke-linecap="round" stroke-linejoin="round" d="M 282.62713623046875 200.41470336914062 C 285.2032775878906 202.0628204345703 269.8343505859375 192.69041442871094 264.5671081542969 179.00660705566406 C 277.57183837890625 172.75192260742188 250.6764678955078 187.82122802734375 247.61373901367188 183.41693115234375 C 194.95730590820312 141.9998779296875 307.8285217285156 182.12686157226562 279.2154541015625 175.84120178222656 C 287.3853454589844 202.01123046875 332.4609680175781 207.6347198486328 282.62713623046875 200.41470336914062"/>
    <path stroke-width="0" fill="rgb(50, 89, 140)" opacity="-0.11610533" stroke="rgb(172, 68, 187)" stroke-opacity="1.0" stroke-linecap="round" stroke-linejoin="round" d="M 298.4388427734375 99.77854919433594 C 296.89398193359375 103.49568939208984 346.0595397949219 80.91961669921875 300.6991882324219 136.2953643798828 C 319.2769775390625 91.58588409423828 314.5426330566406 86.78765106201172 270.5662841796875 99.60774230957031 C 255.35491943359375 99.02944946289062 345.50994873046875 73.7350082397461 290.03277587890625 128.18994140625 C 292.3097839355469 137.09645080566406 275.75384521484375 124.93262481689453 298.4388427734375 99.77854919433594"/>
    <path stroke-width="0" fill="rgb(73, 106, -56)" opacity="0.10340344" stroke="rgb(63, 146, 150)" stroke-opacity="1.0" stroke-linecap="round" stroke-linejoin="round" d="M 293.90594482421875 93.9267578125 C 283.57562255859375 91.37498474121094 313.206298828125 92.17257690429688 299.13629150390625 102.418212890625 C 307.4202575683594 88.82772064208984 288.9539489746094 93.84284210205078 307.87841796875 93.47553253173828 C 302.2569274902344 99.6017074584961 322.5486145019531 93.08748626708984 289.1390686035156 91.16888427734375 C 271.0918884277344 97.6817398071289 238.71983337402344 108.33634948730469 293.90594482421875 93.9267578125"/>
    <path stroke-width="0" fill="rgb(135, 19, -117)" opacity="0.6899072" stroke="rgb(56, 242, 114)" stroke-opacity="1.0" stroke-linecap="round" stroke-linejoin="round" d="M 176.35643005371094 145.17567443847656 C 183.03292846679688 133.41217041015625 180.40582275390625 125.26183319091797 176.3131866455078 133.5174102783203 C 207.11624145507812 77.9826889038086 199.70184326171875 127.0662612915039 180.5248260498047 155.25723266601562 C 168.99403381347656 155.6540069580078 173.4304656982422 172.9047393798828 174.72250366210938 157.5490264892578 C 170.3036346435547 170.6458282470703 171.76316833496094 170.88600158691406 176.35643005371094 145.17567443847656"/>
    <path stroke-width="0" fill="rgb(87, -48, -22)" opacity="1.0081809" stroke="rgb(178, 75, 207)" stroke-opacity="1.0" stroke-linecap="round" stroke-linejoin="round" d="M 220.64393615722656 89.35682678222656 C 226.32077026367188 86.78397369384766 228.23165893554688 90.44341278076172 226.14486694335938 107.42303466796875 C 182.103515625 161.15719604492188 214.1423797607422 113.47296142578125 213.85401916503906 87.56763458251953 C 207.17434692382812 124.51519012451172 214.55055236816406 98.38568878173828 212.6378936767578 90.90572357177734 C 217.83197021484375 80.34585571289062 204.12611389160156 108.3907241821289 220.64393615722656 89.35682678222656"/>
    <path stroke-width="0" fill="rgb(50, -3, -153)" opacity="0.8048913" stroke="rgb(224, 148, 224)" stroke-opacity="1.0" stroke-linecap="round" stroke-linejoin="round" d="M 295.5649108886719 216.12457275390625 C 291.2845764160156 213.7671356201172 284.8991394042969 233.25271606445312 307.1142883300781 212.54019165039062 C 307.54754638671875 196.85255432128906 280.77923583984375 207.67196655273438 290.8125305175781 202.73580932617188 C 295.0303649902344 178.02597045898438 279.65582275390625 206.00823974609375 282.6348876953125 200.48977661132812 C 292.5665588378906 207.17706298828125 294.7169494628906 194.177734375 295.5649108886719 216.12457275390625"/>
    <path stroke-width="0" fill="rgb(44, 120, 51)" opacity="0.07897367" stroke="rgb(108, 154, 4)" stroke-opacity="1.0" stroke-linecap="round" stroke-linejoin="round" d="M 234.29916381835938 424.2291259765625 C 237.14346313476562 392.9298095703125 210.2365264892578 424.0219421386719 279.12445068359375 417.39678955078125 C 248.31842041015625 413.2257080078125 278.8713073730469 426.6920471191406 269.2358093261719 376.1588134765625 C 265.24322509765625 427.8730163574219 258.2968444824219 409.2635803222656 266.0527038574219 411.7637023925781 C 211.95616149902344 412.8483581542969 258.14453125 397.0975646972656 234.29916381835938 424.2291259765625"/>
    <path stroke-width="0" fill="rgb(80, 72, 238)" opacity="-0.056879345" stroke="rgb(168, 73, 157)" stroke-opacity="1.0" stroke-linecap="round" stroke-linejoin="round" d="M 137.28231811523438 373.1329650878906 C 188.3859405517578 388.3498840332031 140.86585998535156 381.20819091796875 163.4061737060547 380.2756042480469 C 169.7539520263672 392.1708679199219 167.75001525878906 397.7471923828125 170.41458129882812 351.0782165527344 C 160.27218627929688 369.7528991699219 157.50540161132812 345.4886169433594 154.496337890625 362.88446044921875 C 169.77894592285156 373.647705078125 171.38572692871094 384.0207824707031 137.28231811523438 373.1329650878906"/>
    <path stroke-width="0" fill="rgb(136, 67, -90)" opacity="-0.09447081" stroke="rgb(34, 76, 145)" stroke-opacity="1.0" stroke-linecap="round" stroke-linejoin="round" d="M 226.9275360107422 127.41442108154297 C 198.37742614746094 109.37283325195312 211.9656219482422 91.45317840576172 220.4091339111328 108.82673645019531 C 199.45181274414062 65.6059341430664 222.08184814453125 74.53327941894531 196.3556365966797 102.29930877685547 C 186.92552185058594 149.19241333007812 194.30577087402344 76.80709075927734 240.50604248046875 110.31554412841797 C 246.12950134277344 73.48066711425781 177.96656799316406 85.9810791015625 226.9275360107422 127.41442108154297"/>
    <path stroke-width="0" fill="rgb(276, 61, -26)" opacity="0.21550469" stroke="rgb(146, 166, 166)" stroke-opacity="1.0" stroke-linecap="round" stroke-linejoin="round" d="M 167.41197204589844 202.75450134277344 C 165.10472106933594 196.45953369140625 162.74447631835938 196.53152465820312 163.66334533691406 181.06471252441406 C 159.93850708007812 204.02288818359375 166.86355590820312 146.27902221679688 177.38441467285156 179.51885986328125 C 167.55453491210938 192.6102752685547 171.98287963867188 189.30165100097656 172.18507385253906 200.79354858398438 C 173.46917724609375 199.32662963867188 166.7450714111328 204.95797729492188 167.41197204589844 202.75450134277344"/>
    <path stroke-width="0" fill="rgb(261, 28, -155)" opacity="0.6548268" stroke="rgb(228, 93, 111)" stroke-opacity="1.0" stroke-linecap="round" stroke-linejoin="round" d="M 234.25924682617188 127.310546875 C 236.206787109375 97.09977722167969 229.2768096923828 66.75279998779297 229.81179809570312 87.23320007324219 C 225.37754821777344 121.84455871582031 226.39187622070312 150.71002197265625 213.93313598632812 100.9963150024414 C 243.45851135253906 86.657958984375 299.5120544433594 147.66561889648438 265.1643981933594 126.92842102050781 C 227.91001892089844 104.61659240722656 242.75692749023438 96.28849029541016 234.25924682617188 127.310546875"/>
    <path stroke-width="0" fill="rgb(264, 183, 140)" opacity="0.43445584" stroke="rgb(205, 179, 25)" stroke-opacity="1.0" stroke-linecap="round" stroke-linejoin="round" d="M 199.3432159423828 98.16015625 C 226.8351593017578 79.1812744140625 175.14752197265625 123.79048919677734 213.85641479492188 107.40548706054688 C 246.39259338378906 113.47386169433594 221.7307891845703 59.42445755004883 203.0303192138672 94.89592742919922 C 176.876708984375 82.17225646972656 224.42408752441406 93.66742706298828 215.24920654296875 116.81211853027344 C 260.8907165527344 83.57987213134766 213.4167938232422 99.39305114746094 199.3432159423828 98.16015625"/>
    <path stroke-width="0" fill="rgb(183, 130, 97)" opacity="-0.063658625" stroke="rgb(205, 145, 103)" stroke-opacity="1.0" stroke-linecap="round" stroke-linejoin="round" d="M 280.7702941894531 148.7783203125 C 283.3119812011719 119.18580627441406 278.0259094238281 138.533203125 285.2841796875 130.6930694580078 C 284.9818115234375 155.70555114746094 278.6398620605469 143.54541015625 290.54925537109375 151.85214233398438 C 289.5135498046875 152.7387237548828 274.240966796875 122.17347717285156 291.38653564453125 145.3155517578125 C 281.4930725097656 127.56937408447266 285.5749816894531 139.83920288085938 280.7702941894531 148.7783203125"/>
    <path stroke-width="0" fill="rgb(138, 115, 163)" opacity="-0.04398214" stroke="rgb(177, 115, 184)" stroke-opacity="1.0" stroke-linecap="round" stroke-linejoin="round" d="M 159.73287963867188 188.39524841308594 C 164.4534912109375 205.1990966796875 162.19467163085938 207.18618774414062 164.0541534423828 199.36219787597656 C 162.9016876220703 212.64808654785156 153.0207061767578 218.49139404296875 159.69374084472656 228.91421508789062 C 163.9395751953125 203.35977172851562 164.6621551513672 203.27882385253906 153.54086303710938 207.44500732421875 C 169.0332794189453 202.85548400878906 164.0691375732422 205.4134979248047 159.73287963867188 188.39524841308594"/>
    <path stroke-width="0" fill="rgb(259, 86, 166)" opacity="0.87584084" stroke="rgb(248, 218, 2)" stroke-opacity="1.0" stroke-linecap="round" stroke-linejoin="round" d="M 286.3448181152344 238.34971618652344 C 317.2644958496094 208.04696655273438 326.5267333984375 228.95645141601562 253.21348571777344 235.1570281982422 C 256.350830078125 236.18051147460938 238.01210021972656 229.85208129882812 262.08233642578125 234.7370147705078 C 278.2078857421875 221.58050537109375 282.152099609375 254.31005859375 260.1399841308594 238.46080017089844 C 229.42111206054688 206.55943298339844 274.89520263671875 207.8125762939453 286.3448181152344 238.34971618652344"/>
    <path stroke-width="0" fill="rgb(-58, 120, 187)" opacity="0.6218208" stroke="rgb(186, 43, 132)" stroke-opacity="1.0" stroke-linecap="round" stroke-linejoin="round" d="M 213.99203491210938 199.29673767089844 C 225.4795684814453 188.02259826660156 222.42388916015625 220.39259338378906 224.24168395996094 220.4012908935547 C 249.83375549316406 230.6516571044922 261.93817138671875 205.7845916748047 237.5734405517578 226.8916473388672 C 237.9243927001953 202.7062225341797 240.2760009765625 198.4972686767578 223.701416015625 198.63031005859375 C 204.63729858398438 225.40472412109375 242.8265838623047 235.72914123535156 213.99203491210938 199.29673767089844"/>
    <path stroke-width="0" fill="rgb(289, 27, -25)" opacity="0.9213336" stroke="rgb(88, 236, 179)" stroke-opacity="1.0" stroke-linecap="round" stroke-linejoin="round" d="M 283.3392639160156 269.1282653808594 C 279.0018615722656 227.456298828125 293.0061340332031 232.87063598632812 309.0711364746094 252.49057006835938 C 296.6735534667969 257.44134521484375 286.4559326171875 257.0755920410156 302.4548645019531 251.77227783203125 C 329.04412841796875 253.43185424804688 345.4674072265625 271.4855041503906 294.12884521484375 275.7286682128906 C 315.81884765625 267.9591064453125 306.827392578125 344.40521240234375 283.3392639160156 269.1282653808594"/>
    <path stroke-width="0" fill="rgb(-43, -56, 65)" opacity="0.83230585" stroke="rgb(41, 158, 147)" stroke-opacity="1.0" stroke-linecap="round" stroke-linejoin="round" d="M 229.5384979248047 201.98890686035156 C 225.17327880859375 215.24874877929688 224.5027618408203 203.93338012695312 274.7984924316406 229.10533142089844 C 270.7669677734375 206.78672790527344 220.302978515625 204.1998748779297 249.31698608398438 220.9730224609375 C 224.55169677734375 206.954833984375 262.47674560546875 207.59544372558594 248.01071166992188 215.53868103027344 C 242.81350708007812 213.4243927001953 245.3120574951172 196.04519653320312 229.5384979248047 201.98890686035156"/>
    <path stroke-width="0" fill="rgb(-62, -22, -21)" opacity="1.0975649" stroke="rgb(238, 156, 136)" stroke-opacity="1.0" stroke-linecap="round" stroke-linejoin="round" d="M 299.13189697265625 198.0771026611328 C 286.7357482910156 186.1151580810547 270.96612548828125 172.6983184814453 291.16070556640625 168.47061157226562 C 293.9254455566406 164.18772888183594 290.6217041015625 164.3760223388672 289.74761962890625 168.06301879882812 C 282.92626953125 186.38624572753906 283.8218688964844 180.12039184570312 307.7265930175781 206.74192810058594 C 282.9853515625 176.07530212402344 285.8580627441406 178.626953125 299.13189697265625 198.0771026611328"/>
    <path stroke-width="0" fill="rgb(304, 88, 108)" opacity="0.03484005" stroke="rgb(186, 79, 101)" stroke-opacity="1.0" stroke-linecap="round" stroke-linejoin="round" d="M 160.54632568359375 216.32972717285156 C 155.54612731933594 210.88348388671875 157.2699432373047 212.89683532714844 160.79774475097656 200.12901306152344 C 158.79685974121094 211.40301513671875 171.4520721435547 167.53121948242188 158.0435333251953 246.7762908935547 C 149.48489379882812 230.37652587890625 153.22825622558594 219.68807983398438 158.0164337158203 227.07664489746094 C 161.22463989257812 207.25172424316406 158.13638305664062 228.25205993652344 160.54632568359375 216.32972717285156"/>
    <path stroke-width="0" fill="rgb(213, 112, 103)" opacity="0.0036070482" stroke="rgb(57, 64, 14)" stroke-opacity="1.0" stroke-linecap="round" stroke-linejoin="round" d="M 155.59434509277344 255.47164916992188 C 155.2218017578125 267.0158996582031 157.40878295898438 276.5421142578125 155.0255584716797 246.88409423828125 C 166.0182342529297 207.19931030273438 149.3087615966797 202.23582458496094 155.72337341308594 297.4993896484375 C 160.34994506835938 308.39410400390625 155.70872497558594 298.9334411621094 157.9729461669922 243.0606231689453 C 159.57424926757812 289.8868713378906 157.34652709960938 268.1965637207031 155.59434509277344 255.47164916992188"/>
    <path stroke-width="0" fill="rgb(286, 271, 254)" opacity="1.0107352" stroke="rgb(6, 17, 173)" stroke-opacity="1.0" stroke-linecap="round" stroke-linejoin="round" d="M 349.21539306640625 376.0719909667969 C 350.09588623046875 408.67608642578125 379.9809875488281 351.7605285644531 348.4666748046875 361.54205322265625 C 364.3813781738281 322.3293151855469 307.63482666015625 369.55517578125 319.0246276855469 345.7762451171875 C 286.0375061035156 292.3260498046875 355.29864501953125 293.2497253417969 351.5470886230469 345.519775390625 C 302.3105773925781 351.1326904296875 328.0102233886719 365.5550842285156 349.21539306640625 376.0719909667969"/>
    <path stroke-width="0" fill="rgb(277, 55, -162)" opacity="0.60775584" stroke="rgb(136, 228, 252)" stroke-opacity="1.0" stroke-linecap="round" stroke-linejoin="round" d="M 313.0750427246094 262.9693908691406 C 399.43536376953125 332.6047668457031 384.489990234375 298.6631164550781 357.5455627441406 285.74945068359375 C 337.9999084472656 287.7606201171875 346.64801025390625 287.85736083984375 354.19708251953125 294.635009765625 C 356.5100402832031 407.41607666015625 361.70928955078125 376.68023681640625 355.7412414550781 309.03961181640625 C 346.4150695800781 305.7329406738281 353.4559020996094 267.8935852050781 313.0750427246094 262.9693908691406"/>
    <path stroke-width="0" fill="rgb(-36, -1, 3)" opacity="0.9821114" stroke="rgb(81, 97, 150)" stroke-opacity="1.0" stroke-linecap="round" stroke-linejoin="round" d="M 250.1822967529297 215.1976776123047 C 241.53477478027344 192.47772216796875 212.33905029296875 208.75631713867188 257.4402160644531 238.80801391601562 C 241.8933868408203 225.96743774414062 217.08938598632812 221.42547607421875 256.980712890625 237.41082763671875 C 267.98199462890625 253.25892639160156 275.19805908203125 247.0736541748047 266.3544921875 245.1529541015625 C 261.2836608886719 223.18179321289062 256.2991027832031 230.18710327148438 250.1822967529297 215.1976776123047"/>
    <path stroke-width="0" fill="rgb(287, 286, 259)" opacity="0.9475841" stroke="rgb(160, 222, 69)" stroke-opacity="1.0" stroke-linecap="round" stroke-linejoin="round" d="M 184.75364685058594 377.49542236328125 C 195.03323364257812 385.9419250488281 168.21951293945312 421.947509765625 165.64389038085938 379.1292419433594 C 160.72857666015625 390.893310546875 170.995849609375 395.9368591308594 161.49295043945312 400.2327880859375 C 176.4469451904297 355.736328125 161.20956420898438 345.6562805175781 170.9423828125 348.78009033203125 C 159.57691955566406 347.3778991699219 184.42303466796875 310.7137451171875 184.75364685058594 377.49542236328125"/>
    <path stroke-width="0" fill="rgb(-19, 92, 196)" opacity="1.0063528" stroke="rgb(47, 242, 175)" stroke-opacity="1.0" stroke-linecap="round" stroke-linejoin="round" d="M 320.80426025390625 356.4703063964844 C 331.1410217285156 370.85235595703125 321.21368408203125 356.0366516113281 318.5527648925781 350.09381103515625 C 318.46051025390625 334.9710693359375 278.6988525390625 305.646728515625 310.30792236328125 363.81597900390625 C 337.9482727050781 382.31793212890625 319.7749328613281 335.369384765625 286.5295715332031 315.3678894042969 C 324.8089294433594 342.64263916015625 298.1697692871094 328.58367919921875 320.80426025390625 356.4703063964844"/>
    <path stroke-width="0" fill="rgb(314, 22, -58)" opacity="0.85166043" stroke="rgb(241, 186, 64)" stroke-opacity="1.0" stroke-linecap="round" stroke-linejoin="round" d="M 283.1552429199219 260.2819519042969 C 277.4666748046875 213.74913024902344 286.48101806640625 240.3417510986328 306.23236083984375 245.43638610839844 C 319.75921630859375 240.8054962158203 304.4083557128906 243.3898468017578 318.8601379394531 256.03997802734375 C 330.6814880371094 259.9737243652344 380.7672424316406 332.0538024902344 323.7750244140625 259.47711181640625 C 315.6957702636719 257.3772888183594 308.523193359375 235.57421875 283.1552429199219 260.2819519042969"/>
    <path stroke-width="0" fill="rgb(-9, 26, -88)" opacity="0.38748586" stroke="rgb(132, 6, 52)" stroke-opacity="1.0" stroke-linecap="round" stroke-linejoin="round" d="M 206.20689392089844 83.72441101074219 C 207.19207763671875 99.27796936035156 195.48089599609375 82.43035888671875 193.18893432617188 94.20645904541016 C 196.02328491210938 87.90228271484375 218.60272216796875 61.09329605102539 190.59185791015625 123.32115936279297 C 221.1619873046875 66.12287902832031 214.65249633789062 54.79561233520508 229.71578979492188 70.80084228515625 C 215.76747131347656 49.946006774902344 192.15542602539062 87.66759490966797 206.20689392089844 83.72441101074219"/>
    <path stroke-width="0" fill="rgb(35, 29, -39)" opacity="0.6769464" stroke="rgb(182, 100, 144)" stroke-opacity="1.0" stroke-linecap="round" stroke-linejoin="round" d="M 302.7830505371094 206.4224090576172 C 301.6004333496094 193.63461303710938 309.08062744140625 219.41110229492188 298.707763671875 222.4013214111328 C 306.8147277832031 198.77427673339844 326.8685607910156 210.2377471923828 287.4871826171875 215.54296875 C 295.06109619140625 215.28639221191406 326.0973205566406 231.65994262695312 258.45635986328125 223.334716796875 C 280.3039855957031 214.17771911621094 312.51080322265625 220.2730255126953 302.7830505371094 206.4224090576172"/>
    <path stroke-width="0" fill="rgb(25, 61, 153)" opacity="0.23288164" stroke="rgb(140, 149, 245)" stroke-opacity="1.0" stroke-linecap="round" stroke-linejoin="round" d="M 213.08892822265625 79.36524200439453 C 222.6558380126953 89.88775634765625 200.39749145507812 95.86939239501953 211.24729919433594 117.71302795410156 C 239.5691375732422 71.18404388427734 213.64395141601562 75.79535675048828 187.08424377441406 86.96176147460938 C 198.91641235351562 78.40821838378906 173.54798889160156 93.80587768554688 189.3673858642578 82.82044219970703 C 222.18597412109375 74.3155746459961 247.5699005126953 78.7979736328125 213.08892822265625 79.36524200439453"/>
    <path stroke-width="0" fill="rgb(266, 70, -31)" opacity="1.0016801" stroke="rgb(86, 245, 59)" stroke-opacity="1.0" stroke-linecap="round" stroke-linejoin="round" d="M 268.8507385253906 320.0750427246094 C 281.6122741699219 322.5971374511719 285.0884094238281 348.11334228515625 340.2292785644531 272.5386047363281 C 271.8118591308594 190.51512145996094 279.087158203125 309.6584777832031 312.37713623046875 293.18402099609375 C 294.9718322753906 346.2606201171875 250.21498107910156 313.93255615234375 286.3658447265625 288.6453857421875 C 330.3740234375 282.4547119140625 283.95037841796875 343.1245422363281 268.8507385253906 320.0750427246094"/>
    <path stroke-width="0" fill="rgb(259, 256, 215)" opacity="-0.041945536" stroke="rgb(240, 203, 160)" stroke-opacity="1.0" stroke-linecap="round" stroke-linejoin="round" d="M 254.10780334472656 194.97218322753906 C 260.4074401855469 204.61915588378906 267.38836669921875 213.89353942871094 299.4573059082031 232.87547302246094 C 300.632568359375 216.2236328125 305.7962341308594 216.7635498046875 302.87939453125 213.9236297607422 C 307.92529296875 259.5320739746094 269.52685546875 233.2371063232422 286.0854187011719 231.05259704589844 C 247.45919799804688 208.98046875 256.65380859375 230.8664093017578 254.10780334472656 194.97218322753906"/>
    <path stroke-width="0" fill="rgb(199, 202, -71)" opacity="0.6256596" stroke="rgb(88, 37, 250)" stroke-opacity="1.0" stroke-linecap="round" stroke-linejoin="round" d="M 267.7758483886719 361.4732666015625 C 281.7132568359375 300.667236328125 268.513427734375 321.8095397949219 281.7816467285156 328.46630859375 C 289.3678894042969 320.2213134765625 289.3097839355469 249.9985809326172 261.6448059082031 318.2738342285156 C 296.25775146484375 343.1215515136719 295.2464599609375 308.78509521484375 315.61541748046875 309.7160949707031 C 255.8656005859375 302.33935546875 287.47564697265625 393.0687255859375 267.7758483886719 361.4732666015625"/>
    <path stroke-width="0" fill="rgb(-54, 64, 175)" opacity="0.10011603" stroke="rgb(126, 163, 93)" stroke-opacity="1.0" stroke-linecap="round" stroke-linejoin="round" d="M 207.7916259765625 79.194091796875 C 210.6971435546875 65.68501281738281 212.21646118164062 69.33121490478516 212.30584716796875 67.6650619506836 C 209.21006774902344 71.0396957397461 213.0667266845703 39.623138427734375 211.9282684326172 69.4833755493164 C 206.39219665527344 70.19860076904297 227.35614013671875 60.99094772338867 230.4954376220703 62.43122482299805 C 196.7347412109375 56.36541748046875 212.289306640625 73.67984008789062 207.7916259765625 79.194091796875"/>
    <path stroke-width="0" fill="rgb(-33, 98, 129)" opacity="0.17910932" stroke="rgb(209, 48, 130)" stroke-opacity="1.0" stroke-linecap="round" stroke-linejoin="round" d="M 218.6833038330078 45.98575973510742 C 190.03585815429688 46.17149353027344 188.30845642089844 35.686771392822266 190.61614990234375 57.869911193847656 C 152.71572875976562 88.20133972167969 155.9638214111328 100.5708999633789 183.4019317626953 106.92460632324219 C 218.58282470703125 72.03602600097656 189.80433654785156 20.186092376708984 174.2714080810547 32.20842742919922 C 144.5862579345703 78.65859985351562 183.4796905517578 69.0018310546875 218.6833038330078 45.98575973510742"/>
    <path stroke-width="0" fill="rgb(266, 257, 206)" opacity="1.1300801" stroke="rgb(24, 219, 248)" stroke-opacity="1.0" stroke-linecap="round" stroke-linejoin="round" d="M 232.32272338867188 120.91852569580078 C 217.59933471679688 85.78804016113281 211.33242797851562 77.14774322509766 222.02578735351562 93.54048919677734 C 204.55848693847656 69.45704650878906 233.31674194335938 74.35123443603516 232.15725708007812 80.9300537109375 C 233.3695068359375 89.01231384277344 232.4539337158203 83.93020629882812 232.3021697998047 80.3155288696289 C 218.4457244873047 84.08364868164062 240.54013061523438 82.08260345458984 232.32272338867188 120.91852569580078"/>
    <path stroke-width="0" fill="rgb(343, 53, -113)" opacity="0.78221744" stroke="rgb(103, 59, 33)" stroke-opacity="1.0" stroke-linecap="round" stroke-linejoin="round" d="M 226.11557006835938 64.8263168334961 C 201.60545349121094 63.6963005065918 211.38230895996094 82.85331726074219 232.63323974609375 93.74627685546875 C 240.00868225097656 121.05654907226562 239.6588592529297 135.23483276367188 225.64718627929688 125.09172821044922 C 244.3892822265625 120.76216125488281 240.52078247070312 77.70166778564453 212.0513916015625 95.66295623779297 C 213.33480834960938 72.22589111328125 222.8665313720703 77.48258972167969 226.11557006835938 64.8263168334961"/>
    <path stroke-width="0" fill="rgb(275, 142, -9)" opacity="0.37583807" stroke="rgb(185, 2, 196)" stroke-opacity="1.0" stroke-linecap="round" stroke-linejoin="round" d="M 189.7061309814453 103.55474090576172 C 200.96807861328125 85.31884765625 187.5944061279297 109.49237060546875 208.51927185058594 80.78794860839844 C 202.7176971435547 172.9342803955078 209.33277893066406 73.67948150634766 204.4591827392578 94.49080657958984 C 208.4596405029297 90.29247283935547 184.34837341308594 109.0877456665039 186.82083129882812 102.56598663330078 C 207.25460815429688 113.86763000488281 198.90805053710938 82.11017608642578 189.7061309814453 103.55474090576172"/>
    <path stroke-width="0" fill="rgb(-54, 103, 148)" opacity="0.36135224" stroke="rgb(66, 116, 174)" stroke-opacity="1.0" stroke-linecap="round" stroke-linejoin="round" d="M 184.3046875 90.95587921142578 C 180.7230224609375 84.24411010742188 194.63438415527344 159.98793029785156 168.36883544921875 111.9725341796875 C 162.10618591308594 113.31675720214844 140.1775665283203 116.79037475585938 155.61380004882812 99.10697174072266 C 171.69955444335938 102.5241928100586 171.3556671142578 104.39292907714844 167.2744903564453 65.19210052490234 C 190.96873474121094 110.85860443115234 178.6385040283203 109.15038299560547 184.3046875 90.95587921142578"/>
    <path stroke-width="0" fill="rgb(127, 112, 98)" opacity="0.978533" stroke="rgb(72, 96, 46)" stroke-opacity="1.0" stroke-linecap="round" stroke-linejoin="round" d="M 234.874755859375 87.90226745605469 C 217.1363983154297 74.67738342285156 241.70462036132812 97.44371795654297 223.77203369140625 67.77249908447266 C 233.58255004882812 80.7672348022461 224.96630859375 138.5625457763672 214.88687133789062 106.56348419189453 C 198.10450744628906 98.12223052978516 227.92974853515625 77.10707092285156 213.01026916503906 85.29232788085938 C 225.64840698242188 73.92691040039062 234.57579040527344 92.67764282226562 234.874755859375 87.90226745605469"/>
    <path stroke-width="0" fill="rgb(31, 62, 182)" opacity="0.09579794" stroke="rgb(147, 244, 164)" stroke-opacity="1.0" stroke-linecap="round" stroke-linejoin="round" d="M 219.39266967773438 72.36420440673828 C 181.78895568847656 65.31705474853516 212.89305114746094 76.90552520751953 185.8087921142578 99.61843872070312 C 172.96095275878906 168.38699340820312 110.77245330810547 269.06634521484375 -50.23093032836914 113.27399444580078 C 183.69329833984375 -0.4656330347061157 169.17364501953125 65.00241088867188 229.67034912109375 74.47993469238281 C 232.09913635253906 69.7953109741211 218.6095428466797 77.58230590820312 219.39266967773438 72.36420440673828"/>
    <path stroke-width="0" fill="rgb(-26, 88, 157)" opacity="0.65803033" stroke="rgb(109, 130, 136)" stroke-opacity="1.0" stroke-linecap="round" stroke-linejoin="round" d="M 196.63111877441406 95.25482940673828 C 190.30104064941406 86.68771362304688 164.6026153564453 85.93877410888672 168.59600830078125 96.03743743896484 C 182.21351623535156 116.48127746582031 156.1643829345703 127.52603149414062 172.83990478515625 86.09709930419922 C 153.92120361328125 81.36768341064453 174.2502899169922 81.3134536743164 161.51602172851562 85.6868667602539 C 172.33200073242188 106.20772552490234 184.26527404785156 125.4719009399414 196.63111877441406 95.25482940673828"/>
    <path stroke-width="0" fill="rgb(-6, 59, 214)" opacity="0.17953843" stroke="rgb(70, 32, 100)" stroke-opacity="1.0" stroke-linecap="round" stroke-linejoin="round" d="M 289.38922119140625 119.99652862548828 C 296.3037414550781 120.98236083984375 276.3896484375 132.9357452392578 301.3959045410156 132.4832305908203 C 281.22821044921875 112.6432113647461 300.0483703613281 113.32667541503906 299.1241760253906 137.78077697753906 C 304.83062744140625 121.95857238769531 312.9007873535156 104.00433349609375 324.747802734375 98.50685119628906 C 314.6232604980469 97.7890625 319.4753723144531 96.48750305175781 289.38922119140625 119.99652862548828"/>
    <path stroke-width="0" fill="rgb(276, 61, -59)" opacity="1.0955505" stroke="rgb(47, 230, 138)" stroke-opacity="1.0" stroke-linecap="round" stroke-linejoin="round" d="M 283.1016540527344 317.1563415527344 C 292.50811767578125 322.80413818359375 286.2152099609375 290.9265441894531 288.21392822265625 312.9642333984375 C 305.8174133300781 306.7742004394531 277.4914855957031 328.034423828125 293.40911865234375 283.3835754394531 C 279.20123291015625 235.49722290039062 283.7245178222656 253.54698181152344 276.6566162109375 324.0606384277344 C 279.7229919433594 325.0814208984375 278.95306396484375 311.4790954589844 283.1016540527344 317.1563415527344"/>
    <path stroke-width="0" fill="rgb(346, 214, 43)" opacity="0.5736445" stroke="rgb(224, 116, 184)" stroke-opacity="1.0" stroke-linecap="round" stroke-linejoin="round" d="M 301.7800598144531 99.91488647460938 C 303.2275085449219 113.31948852539062 318.5106506347656 79.0320816040039 292.93988037109375 119.93824768066406 C 285.8419494628906 128.32125854492188 294.9737243652344 99.9749526977539 289.3610534667969 117.499755859375 C 289.5495910644531 143.2695770263672 275.73272705078125 126.28923034667969 280.5527648925781 131.43551635742188 C 284.2145690917969 122.95916748046875 280.6533508300781 111.93321228027344 301.7800598144531 99.91488647460938"/>
    <path stroke-width="0" fill="rgb(288, 134, -102)" opacity="0.48259085" stroke="rgb(230, 175, 178)" stroke-opacity="1.0" stroke-linecap="round" stroke-linejoin="round" d="M 294.2870788574219 91.8806381225586 C 298.7744445800781 115.7414779663086 279.8149108886719 120.83247375488281 273.0828552246094 130.0244903564453 C 297.01861572265625 122.62676239013672 271.7068176269531 109.17557525634766 280.0743713378906 137.77867126464844 C 313.52947998046875 87.56936645507812 282.0792236328125 95.5142593383789 288.91400146484375 122.18489074707031 C 261.6181640625 90.16487121582031 280.59576416015625 111.33505249023438 294.2870788574219 91.8806381225586"/>
    <path stroke-width="0" fill="rgb(311, 228, 86)" opacity="0.5596451" stroke="rgb(203, 244, 116)" stroke-opacity="1.0" stroke-linecap="round" stroke-linejoin="round" d="M 273.3077392578125 132.16943359375 C 284.82586669921875 109.36285400390625 295.44427490234375 93.18077850341797 286.3533935546875 128.33506774902344 C 313.7409973144531 89.25133514404297 286.7030029296875 112.19090270996094 290.4775390625 114.98394012451172 C 296.7571105957031 110.54312896728516 278.9364318847656 127.02619171142578 301.29034423828125 101.34258270263672 C 284.8313293457031 122.08448028564453 294.88555908203125 118.04846954345703 273.3077392578125 132.16943359375"/>
    <path stroke-width="0" fill="rgb(264, 75, -66)" opacity="0.4501493" stroke="rgb(65, 216, 8)" stroke-opacity="1.0" stroke-linecap="round" stroke-linejoin="round" d="M 281.12835693359375 104.69029998779297 C 271.8944091796875 127.19683837890625 279.6138610839844 144.87818908691406 279.6492004394531 126.2773666381836 C 278.7610778808594 136.8296661376953 291.096435546875 127.72191619873047 280.66583251953125 174.33309936523438 C 276.79058837890625 155.11175537109375 294.80963134765625 152.72665405273438 262.6644592285156 166.79638671875 C 271.24761962890625 131.732666015625 261.9902648925781 143.54820251464844 281.12835693359375 104.69029998779297"/>
    <path stroke-width="0" fill="rgb(-61, 0, 85)" opacity="0.9664604" stroke="rgb(90, 90, 4)" stroke-opacity="1.0" stroke-linecap="round" stroke-linejoin="round" d="M 275.8775329589844 333.8163757324219 C 276.9211120605469 343.72540283203125 270.1426086425781 338.3653869628906 272.19244384765625 342.88616943359375 C 275.0141906738281 325.3194580078125 258.7293701171875 321.2490234375 288.5670166015625 366.27362060546875 C 262.34326171875 391.4361877441406 279.2205810546875 350.44921875 278.6085205078125 304.1799621582031 C 273.2317199707031 364.3194580078125 276.5609436035156 332.8660888671875 275.8775329589844 333.8163757324219"/>
    <path stroke-width="0" fill="rgb(342, 87, -80)" opacity="0.64121586" stroke="rgb(221, 115, 83)" stroke-opacity="1.0" stroke-linecap="round" stroke-linejoin="round" d="M 307.5839538574219 234.39794921875 C 306.8717346191406 188.95199584960938 310.3738708496094 212.328125 297.86468505859375 239.04766845703125 C 275.2999572753906 184.9257354736328 268.72418212890625 157.90843200683594 276.8710021972656 173.82009887695312 C 265.4593505859375 141.03823852539062 266.5821838378906 140.83726501464844 259.04510498046875 182.10501098632812 C 280.14678955078125 167.61585998535156 294.5979919433594 183.03636169433594 307.5839538574219 234.39794921875"/>
    <path stroke-width="0" fill="rgb(-47, 102, 152)" opacity="0.08003731" stroke="rgb(17, 64, 56)" stroke-opacity="1.0" stroke-linecap="round" stroke-linejoin="round" d="M 174.287353515625 126.53853607177734 C 170.41671752929688 118.21730041503906 160.5737762451172 125.06018829345703 169.94247436523438 174.80145263671875 C 177.18792724609375 173.41006469726562 169.585205078125 154.30787658691406 147.451904296875 153.08316040039062 C 165.6177520751953 154.0465850830078 178.86929321289062 120.31649017333984 133.16990661621094 127.30278015136719 C 156.07286071777344 145.74038696289062 181.02748107910156 148.2694091796875 174.287353515625 126.53853607177734"/>
    <path stroke-width="0" fill="rgb(291, 260, -43)" opacity="0.27254438" stroke="rgb(33, 3, 29)" stroke-opacity="1.0" stroke-linecap="round" stroke-linejoin="round" d="M 206.04800415039062 137.78201293945312 C 206.52285766601562 135.6109619140625 203.50799560546875 155.6107635498047 185.28546142578125 167.1483917236328 C 213.94500732421875 138.05580139160156 205.28427124023438 122.74600982666016 184.82020568847656 120.16230010986328 C 166.24024963378906 153.77615356445312 188.3442840576172 153.9762420654297 179.9976348876953 175.10939025878906 C 180.03041076660156 180.0025177001953 181.88758850097656 167.7455596923828 206.04800415039062 137.78201293945312"/>
    <path stroke-width="0" fill="rgb(-58, -33, 7)" opacity="1.0029206" stroke="rgb(162, 125, 252)" stroke-opacity="1.0" stroke-linecap="round" stroke-linejoin="round" d="M 289.03228759765625 218.1112518310547 C 300.189697265625 263.65972900390625 284.59478759765625 204.6078338623047 310.33160400390625 243.19252014160156 C 288.00750732421875 221.34161376953125 296.1656494140625 217.25636291503906 305.4544372558594 233.82241821289062 C 298.7829284667969 185.58511352539062 282.80535888671875 206.765625 285.7686767578125 204.23651123046875 C 288.2701416015625 228.56101989746094 310.5788269042969 260.2681884765625 289.03228759765625 218.1112518310547"/>
    <path stroke-width="0" fill="rgb(106, 110, 114)" opacity="0.75762844" stroke="rgb(199, 73, 61)" stroke-opacity="1.0" stroke-linecap="round" stroke-linejoin="round" d="M 313.44903564453125 217.07208251953125 C 298.76861572265625 217.38681030273438 290.93927001953125 218.699951171875 311.3963317871094 235.45257568359375 C 298.14398193359375 225.92941284179688 304.08892822265625 213.68186950683594 285.1723937988281 230.3722686767578 C 306.1593017578125 241.1331024169922 313.5679626464844 229.17933654785156 294.185546875 226.8513641357422 C 295.0324401855469 226.2666473388672 314.97637939453125 205.73077392578125 313.44903564453125 217.07208251953125"/>
    <path stroke-width="0" fill="rgb(104, 216, 81)" opacity="0.30940923" stroke="rgb(91, 211, 235)" stroke-opacity="1.0" stroke-linecap="round" stroke-linejoin="round" d="M 278.767578125 199.72366333007812 C 281.8402099609375 202.94007873535156 315.9999084472656 190.78860473632812 298.5660705566406 240.71902465820312 C 301.5039367675781 233.04531860351562 335.6046447753906 216.35963439941406 276.9535827636719 223.05430603027344 C 317.8502197265625 220.03118896484375 325.9635314941406 217.6613006591797 326.41119384765625 217.1847686767578 C 316.98858642578125 205.6354522705078 285.5238952636719 206.80422973632812 278.767578125 199.72366333007812"/>
    <path stroke-width="0" fill="rgb(258, 260, 274)" opacity="0.996645" stroke="rgb(247, 230, 75)" stroke-opacity="1.0" stroke-linecap="round" stroke-linejoin="round" d="M 200.58628845214844 214.99859619140625 C 203.40533447265625 203.77239990234375 197.54788208007812 182.28460693359375 229.15548706054688 201.5704803466797 C 215.99063110351562 201.6061248779297 224.16024780273438 210.4309539794922 237.1514129638672 225.83563232421875 C 232.56552124023438 238.7689208984375 184.4592742919922 216.83262634277344 202.27493286132812 174.03321838378906 C 226.71224975585938 171.5646514892578 203.0927276611328 190.74154663085938 200.58628845214844 214.99859619140625"/>
    <path stroke-width="0" fill="rgb(143, 216, 335)" opacity="0.8736253" stroke="rgb(63, 27, 242)" stroke-opacity="1.0" stroke-linecap="round" stroke-linejoin="round" d="M 296.3064880371094 222.9280242919922 C 288.01068115234375 230.13951110839844 309.77532958984375 213.1508331298828 309.1082458496094 217.34388732910156 C 309.1897277832031 190.224365234375 302.41046142578125 231.3641357421875 262.68310546875 222.3911895751953 C 231.39927673339844 203.51675415039062 224.31317138671875 192.74900817871094 267.8245544433594 215.9754638671875 C 334.8648681640625 220.3281707763672 336.2197570800781 199.93331909179688 296.3064880371094 222.9280242919922"/>
    <path stroke-width="0" fill="rgb(-31, -34, -30)" opacity="0.76954585" stroke="rgb(69, 96, 95)" stroke-opacity="1.0" stroke-linecap="round" stroke-linejoin="round" d="M 312.310546875 206.24937438964844 C 285.0986022949219 234.267822265625 313.0822448730469 250.06529235839844 320.9504089355469 246.4482879638672 C 303.2651062011719 230.82704162597656 291.4794006347656 232.6986846923828 300.81463623046875 223.60919189453125 C 305.4573059082031 244.31971740722656 302.90484619140625 230.50970458984375 290.0273132324219 205.7832489013672 C 317.6083984375 195.0400390625 296.9814147949219 220.96063232421875 312.310546875 206.24937438964844"/>
    <path stroke-width="0" fill="rgb(308, 183, -81)" opacity="0.736721" stroke="rgb(213, 60, 128)" stroke-opacity="1.0" stroke-linecap="round" stroke-linejoin="round" d="M 215.08529663085938 77.03787994384766 C 249.6885986328125 68.69715881347656 230.2657012939453 109.26372528076172 227.7306365966797 90.77133178710938 C 222.4071807861328 73.81200408935547 199.67613220214844 92.07880401611328 225.00588989257812 64.18103790283203 C 231.99142456054688 94.01103973388672 241.76132202148438 68.0212173461914 222.4105987548828 64.78194427490234 C 220.6771240234375 64.73326873779297 241.59097290039062 89.33135986328125 215.08529663085938 77.03787994384766"/>
    <path stroke-width="0" fill="rgb(235, 259, 131)" opacity="0.20274048" stroke="rgb(18, 74, 38)" stroke-opacity="1.0" stroke-linecap="round" stroke-linejoin="round" d="M 267.6070861816406 256.9345703125 C 263.5260314941406 259.14154052734375 272.0635070800781 262.44561767578125 264.05908203125 255.294677734375 C 201.29495239257812 263.2925109863281 215.45164489746094 254.2776336669922 190.62472534179688 206.73507690429688 C 245.19618225097656 249.49078369140625 271.9761962890625 244.5223846435547 215.767822265625 242.54774475097656 C 202.98341369628906 253.4192352294922 252.5129852294922 252.114501953125 267.6070861816406 256.9345703125"/>
    <path stroke-width="0" fill="rgb(215, 134, 122)" opacity="0.25248045" stroke="rgb(33, 154, 97)" stroke-opacity="1.0" stroke-linecap="round" stroke-linejoin="round" d="M 224.48854064941406 64.14568328857422 C 197.0042266845703 67.39082336425781 211.57015991210938 86.5162582397461 210.7044677734375 89.67301940917969 C 210.08010864257812 92.13409423828125 206.55638122558594 72.8124008178711 213.40176391601562 81.68609619140625 C 208.45021057128906 97.9915771484375 233.4510498046875 62.745819091796875 200.83123779296875 83.02176666259766 C 212.15203857421875 69.99655151367188 215.61058044433594 66.32352447509766 224.48854064941406 64.14568328857422"/>
    <path stroke-width="0" fill="rgb(-20, 100, 138)" opacity="1.1020687" stroke="rgb(246, 139, 70)" stroke-opacity="1.0" stroke-linecap="round" stroke-linejoin="round" d="M 307.9174499511719 238.2120819091797 C 292.6451110839844 235.67996215820312 272.92864990234375 227.61817932128906 329.18768310546875 233.7013397216797 C 316.21478271484375 235.56768798828125 300.7083435058594 227.13429260253906 278.43603515625 238.38821411132812 C 296.1280517578125 229.84397888183594 280.0453186035156 235.29440307617188 310.8553466796875 202.56724548339844 C 267.62628173828125 169.15237426757812 333.1067810058594 203.86224365234375 307.9174499511719 238.2120819091797"/>
    <path stroke-width="0" fill="rgb(155, 95, 44)" opacity="0.071100034" stroke="rgb(228, 103, 140)" stroke-opacity="1.0" stroke-linecap="round" stroke-linejoin="round" d="M 218.02767944335938 97.0387954711914 C 217.56478881835938 76.60319519042969 222.4390106201172 77.93782806396484 225.80569458007812 92.76753997802734 C 201.9971160888672 63.71696853637695 201.57217407226562 69.16488647460938 215.2490234375 69.08646392822266 C 211.9636688232422 62.80846405029297 209.43927001953125 70.58547973632812 207.81309509277344 45.13074493408203 C 214.3050537109375 78.35830688476562 231.70355224609375 101.46139526367188 218.02767944335938 97.0387954711914"/>
    <path stroke-width="0" fill="rgb(-35, 87, 151)" opacity="0.9816477" stroke="rgb(116, 102, 63)" stroke-opacity="1.0" stroke-linecap="round" stroke-linejoin="round" d="M 328.69219970703125 191.87156677246094 C 291.5072937011719 224.98973083496094 297.71624755859375 233.3179473876953 311.3971862792969 222.03916931152344 C 295.6181335449219 228.3365020751953 276.4418029785156 217.89466857910156 279.70941162109375 232.65823364257812 C 302.1835021972656 254.2476043701172 309.5054016113281 234.51400756835938 299.1800231933594 241.06480407714844 C 313.3049011230469 249.0001678466797 347.36444091796875 278.1228332519531 328.69219970703125 191.87156677246094"/>
    <path stroke-width="0" fill="rgb(210, 13, 113)" opacity="0.5611965" stroke="rgb(79, 95, 133)" stroke-opacity="1.0" stroke-linecap="round" stroke-linejoin="round" d="M 236.37661743164062 95.48477172851562 C 252.9678192138672 99.35462188720703 257.0933837890625 97.69180297851562 232.97848510742188 97.6730728149414 C 229.24636840820312 89.84461975097656 238.706298828125 113.35431671142578 223.29164123535156 69.16670989990234 C 244.84324645996094 98.73217010498047 234.0464630126953 100.8082046508789 236.38192749023438 98.43525695800781 C 230.00486755371094 88.82823944091797 244.24107360839844 106.65910339355469 236.37661743164062 95.48477172851562"/>
    <path stroke-width="0" fill="rgb(17, 96, 91)" opacity="0.12991631" stroke="rgb(85, 235, 219)" stroke-opacity="1.0" stroke-linecap="round" stroke-linejoin="round" d="M 316.1571044921875 251.95443725585938 C 316.4335021972656 239.9497833251953 303.9045104980469 240.1209259033203 351.0392150878906 245.035400390625 C 340.7690734863281 246.7461395263672 344.18798828125 241.59524536132812 335.4724426269531 228.25608825683594 C 351.7975769042969 283.846923828125 319.02545166015625 275.0998840332031 336.6117858886719 242.3708038330078 C 304.1296691894531 242.71441650390625 363.8089599609375 265.64031982421875 316.1571044921875 251.95443725585938"/>
    <path stroke-width="0" fill="rgb(318, 198, -7)" opacity="0.72623414" stroke="rgb(64, 113, 26)" stroke-opacity="1.0" stroke-linecap="round" stroke-linejoin="round" d="M 296.7880859375 105.58850860595703 C 295.68701171875 76.9826431274414 320.14422607421875 107.2831802368164 297.3714294433594 97.28498840332031 C 300.1009826660156 110.71659851074219 277.9373474121094 143.29051208496094 290.4428405761719 111.03440856933594 C 312.553955078125 108.1954116821289 311.22601318359375 82.07433319091797 289.00323486328125 111.59588623046875 C 305.0740661621094 102.1657943725586 296.4071350097656 99.63043212890625 296.7880859375 105.58850860595703"/>
    <path stroke-width="0" fill="rgb(38, 90, 149)" opacity="0.03187999" stroke="rgb(0, 0, 0)" stroke-opacity="0.0" stroke-linecap="round" stroke-linejoin="round" d="M 128.88992309570312 19.3486385345459 C 129.39869689941406 23.34210968017578 130.5575714111328 25.63339614868164 122.74095916748047 24.1542911529541 C 125.07284545898438 26.258319854736328 124.6605224609375 27.232799530029297 125.4273910522461 11.899209976196289 C 120.03594970703125 15.109393119812012 130.40182495117188 16.472517013549805 124.7240219116211 14.753316879272461 C 124.86048126220703 14.950948715209961 129.66322326660156 13.06503677368164 128.88992309570312 19.3486385345459"/>
    <path stroke-width="0" fill="rgb(21, 71, 95)" opacity="-0.011925063" stroke="rgb(0, 0, 0)" stroke-opacity="0.0" stroke-linecap="round" stroke-linejoin="round" d="M 446.3097229003906 8.781519889831543 C 449.99725341796875 20.519817352294922 449.43084716796875 23.30123519897461 445.9103088378906 24.131498336791992 C 442.86907958984375 20.574520111083984 440.0285949707031 17.120426177978516 436.191162109375 16.994157791137695 C 429.4922790527344 10.499348640441895 434.3766784667969 9.580327987670898 438.3447265625 11.428053855895996 C 449.8739013671875 6.878317832946777 455.16455078125 10.45201587677002 446.3097229003906 8.781519889831543"/>
    <path stroke-width="0" fill="rgb(15, 117, 154)" opacity="0.049254593" stroke="rgb(0, 0, 0)" stroke-opacity="0.0" stroke-linecap="round" stroke-linejoin="round" d="M 16.579879760742188 -4.546708106994629 C 22.779903411865234 7.980953216552734 19.41105079650879 11.79414176940918 13.50108814239502 7.53931999206543 C 19.83817481994629 14.740355491638184 10.932220458984375 14.523750305175781 6.583444595336914 13.337560653686523 C 11.591245651245117 2.7124698162078857 13.282065391540527 -1.5669682025909424 20.911466598510742 -3.8243231773376465 C 25.95378303527832 -2.431492567062378 24.316709518432617 -0.9245772361755371 16.579879760742188 -4.546708106994629"/>
    <path stroke-width="0" fill="rgb(44, 90, 239)" opacity="0.093737125" stroke="rgb(0, 0, 0)" stroke-opacity="0.0" stroke-linecap="round" stroke-linejoin="round" d="M 24.4527530670166 0.8620133996009827 C 19.49991798400879 12.219536781311035 21.247770309448242 25.836971282958984 18.15509796142578 24.556764602661133 C -6.404738426208496 23.522552490234375 -1.695556402206421 25.368114471435547 -2.2667689323425293 11.018614768981934 C -2.0962915420532227 2.2787296772003174 -0.3382715582847595 -5.303498268127441 5.305170059204102 0.20885658264160156 C 9.392189025878906 4.5675201416015625 12.921380043029785 3.803192138671875 24.4527530670166 0.8620133996009827"/>
    <path stroke-width="0" fill="rgb(52, 81, 93)" opacity="-0.0298068" stroke="rgb(0, 0, 0)" stroke-opacity="0.0" stroke-linecap="round" stroke-linejoin="round" d="M 65.89751434326172 14.667740821838379 C 65.8902587890625 26.379213333129883 64.54713439941406 22.630895614624023 52.09048843383789 21.076862335205078 C 49.505672454833984 30.694225311279297 52.87409591674805 25.545150756835938 53.44901657104492 13.28597354888916 C 43.80686569213867 9.283904075622559 47.327613830566406 6.375644207000732 47.630523681640625 14.654409408569336 C 54.70097732543945 14.825050354003906 59.888484954833984 9.636977195739746 65.89751434326172 14.667740821838379"/>
    <path stroke-width="0" fill="rgb(87, 52, 234)" opacity="0.15687516" stroke="rgb(0, 0, 0)" stroke-opacity="0.0" stroke-linecap="round" stroke-linejoin="round" d="M 15.663247108459473 0.5980314612388611 C 12.07077693939209 -3.0801169872283936 9.230608940124512 -0.538310706615448 8.989038467407227 8.954380989074707 C -0.7711930274963379 26.43048858642578 -4.551265239715576 31.337804794311523 -0.34917330741882324 14.890972137451172 C 3.1270337104797363 0.7903011441230774 -1.0055993795394897 -5.995326042175293 11.63465690612793 -6.8841023445129395 C 16.3615665435791 -3.223214864730835 15.42762565612793 2.857821226119995 15.663247108459473 0.5980314612388611"/>
    <path stroke-width="0" fill="rgb(147, 58, 131)" opacity="0.26553205" stroke="rgb(0, 0, 0)" stroke-opacity="0.0" stroke-linecap="round" stroke-linejoin="round" d="M -0.02357056923210621 -6.458644866943359 C -2.958038806915283 -2.009894371032715 -2.3064959049224854 -0.539078414440155 2.1631879806518555 20.8281192779541 C 0.9669268131256104 36.12370681762695 -9.542549133300781 26.50507926940918 -7.162809371948242 10.12914752960205 C -1.891053557395935 0.405823290348053 1.0371496677398682 -2.5223798751831055 5.331876754760742 -3.8086094856262207 C 9.666107177734375 -3.559802532196045 12.15905475616455 -2.2495481967926025 -0.02357056923210621 -6.458644866943359"/>
    <path stroke-width="0" fill="rgb(39, 138, 80)" opacity="-0.17089237" stroke="rgb(0, 0, 0)" stroke-opacity="0.0" stroke-linecap="round" stroke-linejoin="round" d="M 6.069493293762207 1.8764022588729858 C 12.108802795410156 9.014650344848633 20.71624755859375 6.0416388511657715 12.360535621643066 7.945628643035889 C -5.091150283813477 13.770316123962402 -12.085196495056152 3.418266534805298 5.375820159912109 1.2933599948883057 C 11.012161254882812 1.9941654205322266 7.969034194946289 -5.585111141204834 10.907184600830078 -7.386919021606445 C 14.885537147521973 -6.336513996124268 17.516752243041992 -3.5908267498016357 6.069493293762207 1.8764022588729858"/>
    <path stroke-width="0" fill="rgb(34, 105, 127)" opacity="0.16090718" stroke="rgb(0, 0, 0)" stroke-opacity="0.0" stroke-linecap="round" stroke-linejoin="round" d="M 274.5936584472656 -0.592201292514801 C 271.31195068359375 -1.5838655233383179 268.5340270996094 1.5364046096801758 278.0326232910156 3.7970170974731445 C 273.7433776855469 -7.888721466064453 257.4162292480469 -3.331037759780884 258.3517761230469 4.436471462249756 C 253.1669464111328 0.7028706669807434 258.745361328125 -3.3381900787353516 268.22528076171875 -5.195939540863037 C 276.3927307128906 -6.294095516204834 277.0536193847656 -4.980818748474121 274.5936584472656 -0.592201292514801"/>
    <path stroke-width="0" fill="rgb(0, 119, 139)" opacity="0.0225513" stroke="rgb(0, 0, 0)" stroke-opacity="0.0" stroke-linecap="round" stroke-linejoin="round" d="M 34.58602523803711 -2.7623932361602783 C 35.46088409423828 6.358929634094238 35.81291198730469 9.163872718811035 36.79908752441406 1.3248592615127563 C 27.620729446411133 3.607588291168213 27.77440643310547 4.972620010375977 31.658960342407227 3.9698972702026367 C 23.0333251953125 -3.0154061317443848 25.10779571533203 -4.693143367767334 28.997272491455078 -5.829085826873779 C 33.180294036865234 -4.753464221954346 31.660972595214844 -0.34400486946105957 34.58602523803711 -2.7623932361602783"/>
    <path stroke-width="0" fill="rgb(39, 93, 152)" opacity="0.042615533" stroke="rgb(0, 0, 0)" stroke-opacity="0.0" stroke-linecap="round" stroke-linejoin="round" d="M 51.74888229370117 9.227622032165527 C 59.30398941040039 16.504623413085938 61.793548583984375 23.838424682617188 54.98552322387695 22.33304214477539 C 48.50290298461914 23.91191864013672 42.13035202026367 23.82656478881836 44.14193344116211 19.296737670898438 C 43.789371490478516 11.716178894042969 48.124759674072266 11.321995735168457 54.64179611206055 11.441773414611816 C 52.5430793762207 12.215826988220215 51.64556121826172 15.127413749694824 51.74888229370117 9.227622032165527"/>
    <path stroke-width="0" fill="rgb(43, 97, 114)" opacity="0.059606336" stroke="rgb(0, 0, 0)" stroke-opacity="0.0" stroke-linecap="round" stroke-linejoin="round" d="M 39.7281608581543 9.433860778808594 C 36.32270050048828 12.300466537475586 37.22805404663086 20.551239013671875 37.181617736816406 13.270710945129395 C 28.50779151916504 15.836986541748047 24.726207733154297 15.770011901855469 23.24930763244629 14.405614852905273 C 28.107419967651367 3.222620964050293 27.835203170776367 -3.069183588027954 33.142879486083984 -4.777431964874268 C 40.88182067871094 -1.9610081911087036 39.90147018432617 2.871575117111206 39.7281608581543 9.433860778808594"/>
    <path stroke-width="0" fill="rgb(54, 25, 189)" opacity="0.023390168" stroke="rgb(0, 0, 0)" stroke-opacity="0.0" stroke-linecap="round" stroke-linejoin="round" d="M 243.65493774414062 82.41493225097656 C 239.78903198242188 86.72631072998047 253.3748016357422 83.04679870605469 248.66885375976562 89.06163787841797 C 231.675048828125 91.81848907470703 235.68618774414062 87.28128814697266 233.22898864746094 80.3575210571289 C 241.3038787841797 74.44739532470703 237.0043182373047 70.12017822265625 231.16297912597656 74.81463623046875 C 240.1712646484375 67.92918395996094 259.771728515625 74.64999389648438 243.65493774414062 82.41493225097656"/>
    <path stroke-width="0" fill="rgb(86, 93, 118)" opacity="0.051768783" stroke="rgb(0, 0, 0)" stroke-opacity="0.0" stroke-linecap="round" stroke-linejoin="round" d="M 93.9229507446289 453.0922546386719 C 90.30497741699219 452.3933410644531 92.18555450439453 453.137939453125 91.88031005859375 447.7361755371094 C 91.48776245117188 450.7704772949219 89.00009155273438 445.9774169921875 89.28744506835938 448.3253173828125 C 89.6027603149414 448.61480712890625 86.76190948486328 443.21795654296875 80.56895446777344 450.05194091796875 C 84.27387237548828 456.3564147949219 90.77777099609375 455.62298583984375 93.9229507446289 453.0922546386719"/>
    <path stroke-width="0" fill="rgb(57, 105, 115)" opacity="0.025943141" stroke="rgb(0, 0, 0)" stroke-opacity="0.0" stroke-linecap="round" stroke-linejoin="round" d="M 61.94026565551758 404.0102844238281 C 70.90836334228516 406.47857666015625 67.61312866210938 407.1521911621094 61.40180587768555 409.1468811035156 C 57.66830825805664 407.4623718261719 55.02138900756836 403.265625 56.89457321166992 398.7061767578125 C 53.38672637939453 391.3150329589844 52.09851837158203 385.33343505859375 62.267940521240234 386.15557861328125 C 64.3798599243164 392.7406921386719 62.58546447753906 398.92767333984375 61.94026565551758 404.0102844238281"/>
    <path stroke-width="0" fill="rgb(89, 46, 194)" opacity="0.002625919" stroke="rgb(0, 0, 0)" stroke-opacity="0.0" stroke-linecap="round" stroke-linejoin="round" d="M 28.44014549255371 -2.4103808403015137 C 28.001649856567383 6.451245307922363 30.41745376586914 11.84874153137207 24.284175872802734 4.609472751617432 C 27.541561126708984 7.4818339347839355 30.268814086914062 1.4170253276824951 26.485145568847656 -9.315545082092285 C 20.115108489990234 -3.9630367755889893 23.043787002563477 -6.891108989715576 27.043367385864258 -7.962973117828369 C 31.026105880737305 -6.894745349884033 33.56560134887695 -4.136622905731201 28.44014549255371 -2.4103808403015137"/>
    <path stroke-width="0" fill="rgb(17, 24, 133)" opacity="0.18128918" stroke="rgb(0, 0, 0)" stroke-opacity="0.0" stroke-linecap="round" stroke-linejoin="round" d="M 158.0934295654297 40.86988830566406 C 155.1051788330078 54.28591537475586 158.3190155029297 57.6685905456543 142.75025939941406 48.55241012573242 C 146.5310821533203 58.86769104003906 153.9463653564453 52.54518508911133 146.38592529296875 44.25971984863281 C 151.78468322753906 42.15115737915039 158.05274963378906 43.26398849487305 168.36285400390625 35.7454833984375 C 152.23484802246094 33.23162841796875 145.8534393310547 40.3386344909668 158.0934295654297 40.86988830566406"/>
    <path stroke-width="0" fill="rgb(225, 55, 58)" opacity="0.7484325" stroke="rgb(0, 0, 0)" stroke-opacity="0.0" stroke-linecap="round" stroke-linejoin="round" d="M 14.258832931518555 -16.695833206176758 C 13.18703556060791 -12.695834159851074 10.258832931518555 -9.767630577087402 6.2588324546813965 -8.695834159851074 C 2.2588326930999756 -9.767630577087402 -0.6693705320358276 -12.695834159851074 -1.7411673069000244 -16.695833206176758 C -0.6693705320358276 -20.695833206176758 2.2588326930999756 -23.62403678894043 6.2588324546813965 -24.695833206176758 C 10.258832931518555 -23.62403678894043 13.18703556060791 -20.695833206176758 14.258832931518555 -16.695833206176758"/>
    <path stroke-width="0" fill="rgb(41, 150, 143)" opacity="-0.063819386" stroke="rgb(0, 0, 0)" stroke-opacity="0.0" stroke-linecap="round" stroke-linejoin="round" d="M 23.73958969116211 8.912917137145996 C 22.268491744995117 29.624107360839844 25.996122360229492 23.98964500427246 21.852413177490234 26.830169677734375 C 5.818475246429443 29.375812530517578 1.5488336086273193 27.582286834716797 -1.2692598104476929 24.690279006958008 C -5.145687580108643 3.5227227210998535 -5.4755964279174805 0.7973018884658813 6.470355987548828 2.79699444770813 C 11.316089630126953 10.472565650939941 19.72063446044922 3.484157085418701 23.73958969116211 8.912917137145996"/>
    <path stroke-width="0" fill="rgb(45, 64, 60)" opacity="-0.05667935" stroke="rgb(0, 0, 0)" stroke-opacity="0.0" stroke-linecap="round" stroke-linejoin="round" d="M 160.5987091064453 184.819580078125 C 156.09390258789062 197.7670440673828 148.8437957763672 201.7938995361328 158.03683471679688 208.94447326660156 C 130.86944580078125 207.121337890625 133.957275390625 210.73719787597656 141.6641845703125 207.27294921875 C 134.8376922607422 202.76113891601562 141.79087829589844 204.2661895751953 149.47108459472656 202.18194580078125 C 149.62940979003906 198.14610290527344 148.77052307128906 193.1763458251953 160.5987091064453 184.819580078125"/>
    <path stroke-width="0" fill="rgb(75, 83, 50)" opacity="-0.043579713" stroke="rgb(0, 0, 0)" stroke-opacity="0.0" stroke-linecap="round" stroke-linejoin="round" d="M 36.72886657714844 226.73878479003906 C 37.95087432861328 229.791259765625 42.5299186706543 237.32337951660156 37.60273361206055 235.05409240722656 C 22.926942825317383 229.39263916015625 18.811330795288086 230.86154174804688 24.7647705078125 225.07142639160156 C 21.1904354095459 217.6633758544922 25.40686798095703 213.4084014892578 30.18580436706543 214.1287841796875 C 35.51648712158203 216.9322509765625 37.4443359375 221.21371459960938 36.72886657714844 226.73878479003906"/>
    <path stroke-width="0" fill="rgb(40, 95, 111)" opacity="0.046812683" stroke="rgb(0, 0, 0)" stroke-opacity="0.0" stroke-linecap="round" stroke-linejoin="round" d="M 89.13488006591797 432.8819885253906 C 94.07240295410156 433.191162109375 91.57025146484375 442.42510986328125 87.74027252197266 441.3151550292969 C 77.58641815185547 438.20745849609375 73.68744659423828 433.75714111328125 75.19108581542969 429.1940612792969 C 80.25470733642578 429.1187744140625 82.40725708007812 426.53570556640625 79.6884765625 427.1876220703125 C 80.88613891601562 430.3201599121094 82.4283218383789 434.4122314453125 89.13488006591797 432.8819885253906"/>
    <path stroke-width="0" fill="rgb(124, 69, 177)" opacity="0.10155052" stroke="rgb(0, 0, 0)" stroke-opacity="0.0" stroke-linecap="round" stroke-linejoin="round" d="M 181.33543395996094 180.7070770263672 C 179.8291015625 175.2572021484375 175.7373046875 167.17510986328125 167.7616424560547 165.7135009765625 C 170.30271911621094 176.6118621826172 165.399658203125 172.8279266357422 167.38560485839844 149.72088623046875 C 165.91433715820312 152.4959259033203 165.05368041992188 148.06967163085938 165.12429809570312 164.57540893554688 C 167.510498046875 164.1121826171875 173.29379272460938 163.35296630859375 181.33543395996094 180.7070770263672"/>
    <path stroke-width="0" fill="rgb(188, 353, 51)" opacity="0.22070882" stroke="rgb(0, 0, 0)" stroke-opacity="0.0" stroke-linecap="round" stroke-linejoin="round" d="M 343.80401611328125 283.1994323730469 C 340.4956970214844 305.7928161621094 336.8533630371094 312.9251403808594 340.6255798339844 323.2209777832031 C 352.22784423828125 336.57183837890625 350.8939208984375 319.67156982421875 351.97747802734375 306.3563537597656 C 346.8255310058594 297.9233703613281 348.9740905761719 307.80389404296875 352.239501953125 307.3520812988281 C 350.411376953125 307.26019287109375 354.3518981933594 302.1275634765625 343.80401611328125 283.1994323730469"/>
    <path stroke-width="0" fill="rgb(15, 151, 108)" opacity="-0.08496839" stroke="rgb(0, 0, 0)" stroke-opacity="0.0" stroke-linecap="round" stroke-linejoin="round" d="M 355.1576843261719 238.92738342285156 C 353.74761962890625 238.6815643310547 352.7589416503906 237.63885498046875 340.64959716796875 234.07615661621094 C 341.89007568359375 240.89044189453125 332.19061279296875 244.79269409179688 341.2756042480469 252.75918579101562 C 343.443359375 242.9702911376953 345.73828125 231.2632293701172 343.83929443359375 231.61346435546875 C 345.3968200683594 233.45742797851562 350.3187255859375 235.9751434326172 355.1576843261719 238.92738342285156"/>
    <path stroke-width="0" fill="rgb(82, 82, 93)" opacity="0.0030120744" stroke="rgb(0, 0, 0)" stroke-opacity="0.0" stroke-linecap="round" stroke-linejoin="round" d="M 441.7408142089844 252.90708923339844 C 445.2481689453125 251.34405517578125 447.41900634765625 258.4638671875 444.3641357421875 258.877685546875 C 446.4858093261719 249.83241271972656 442.59124755859375 249.3700714111328 437.8984680175781 246.7231903076172 C 441.6498107910156 252.79139709472656 444.2947082519531 251.6558837890625 443.31134033203125 247.33023071289062 C 441.0843505859375 246.3288116455078 441.315185546875 251.39527893066406 441.7408142089844 252.90708923339844"/>
    <path stroke-width="0" fill="rgb(47, 48, 53)" opacity="0.095233805" stroke="rgb(0, 0, 0)" stroke-opacity="0.0" stroke-linecap="round" stroke-linejoin="round" d="M 362.4832458496094 259.3425598144531 C 371.8411865234375 268.4841613769531 368.9750061035156 275.2635803222656 354.0420837402344 257.92352294921875 C 354.1878356933594 249.72190856933594 337.063720703125 267.5873718261719 339.7629699707031 256.5849609375 C 352.90179443359375 244.55870056152344 342.25628662109375 235.552001953125 348.8028564453125 246.6362762451172 C 348.8513488769531 252.84959411621094 360.7793884277344 259.12957763671875 362.4832458496094 259.3425598144531"/>
    <path stroke-width="0" fill="rgb(84, 83, 84)" opacity="0.0011071208" stroke="rgb(0, 0, 0)" stroke-opacity="0.0" stroke-linecap="round" stroke-linejoin="round" d="M 155.71852111816406 508.0738830566406 C 171.9861602783203 507.34716796875 173.50131225585938 509.88531494140625 164.60414123535156 517.0133056640625 C 156.34817504882812 516.542724609375 159.95355224609375 513.7776489257812 161.18833923339844 500.23040771484375 C 145.93182373046875 491.7890930175781 148.58790588378906 492.46343994140625 154.78163146972656 521.9789428710938 C 175.43490600585938 512.1139526367188 174.5443878173828 507.24005126953125 155.71852111816406 508.0738830566406"/>
    <path stroke-width="0" fill="rgb(22, 155, 29)" opacity="0.13345192" stroke="rgb(0, 0, 0)" stroke-opacity="0.0" stroke-linecap="round" stroke-linejoin="round" d="M -100.48587799072266 -83.45436096191406 C -101.55767822265625 -79.45436096191406 -104.48587799072266 -76.52615356445312 -108.48587799072266 -75.45436096191406 C -112.48587799072266 -76.52615356445312 -115.4140853881836 -79.45436096191406 -116.48587799072266 -83.45436096191406 C -115.4140853881836 -87.45436096191406 -112.48587799072266 -90.38256072998047 -108.48587799072266 -91.45436096191406 C -104.48587799072266 -90.38256072998047 -101.55767822265625 -87.45436096191406 -100.48587799072266 -83.45436096191406"/>
    <path stroke-width="0" fill="rgb(98, 58, 127)" opacity="0.025075784" stroke="rgb(0, 0, 0)" stroke-opacity="0.0" stroke-linecap="round" stroke-linejoin="round" d="M 436.8387145996094 365.1241760253906 C 438.0992126464844 368.13153076171875 444.6753234863281 374.41815185546875 445.80987548828125 372.7878112792969 C 425.7560119628906 375.42779541015625 434.0284118652344 373.7781982421875 442.830322265625 378.1249694824219 C 430.756103515625 369.466552734375 435.68304443359375 362.6235046386719 430.6700134277344 368.5982971191406 C 439.4845886230469 367.7885437011719 441.02227783203125 371.5498962402344 436.8387145996094 365.1241760253906"/>
    <path stroke-width="0" fill="rgb(187, 96, 52)" opacity="0.4513437" stroke="rgb(0, 0, 0)" stroke-opacity="0.0" stroke-linecap="round" stroke-linejoin="round" d="M -0.10087472945451736 -1.1595016717910767 C -1.0227470397949219 3.737811326980591 -2.896090030670166 7.530107021331787 -6.448106288909912 8.862656593322754 C -10.362608909606934 7.76533317565918 -13.290812492370605 4.837129592895508 -14.362608909606934 0.8371297717094421 C -13.290812492370605 -3.162870168685913 -10.362608909606934 -6.091073513031006 -6.363867282867432 -7.162430763244629 C -2.4274260997772217 -6.066844940185547 0.3000953793525696 -2.932833671569824 -0.10087472945451736 -1.1595016717910767"/>
    <path stroke-width="0" fill="rgb(0, 97, 120)" opacity="0.086785585" stroke="rgb(0, 0, 0)" stroke-opacity="0.0" stroke-linecap="round" stroke-linejoin="round" d="M 141.722900390625 389.9424743652344 C 130.75282287597656 392.1380920410156 129.2546844482422 396.3253479003906 130.4554901123047 389.0633544921875 C 121.3460693359375 388.1820373535156 126.11907196044922 384.66937255859375 128.64447021484375 385.6127014160156 C 120.99058532714844 381.3523254394531 128.4633026123047 386.485107421875 128.72116088867188 388.8787536621094 C 133.86141967773438 379.0748596191406 141.33340454101562 383.4898986816406 141.722900390625 389.9424743652344"/>
    <path stroke-width="0" fill="rgb(66, 86, 116)" opacity="-0.02052574" stroke="rgb(0, 0, 0)" stroke-opacity="0.0" stroke-linecap="round" stroke-linejoin="round" d="M 45.16423797607422 143.2435760498047 C 42.92463302612305 142.26083374023438 42.99443817138672 146.589599609375 32.3925895690918 148.87522888183594 C 35.14242935180664 145.23292541503906 25.92608642578125 142.61380004882812 33.83296585083008 141.04502868652344 C 34.0432014465332 138.44198608398438 35.00156784057617 132.9446563720703 32.19698715209961 145.50677490234375 C 42.1978645324707 146.10995483398438 46.2926139831543 147.6919403076172 45.16423797607422 143.2435760498047"/>
    <path stroke-width="0" fill="rgb(213, 11, 17)" opacity="0.5931626" stroke="rgb(0, 0, 0)" stroke-opacity="0.0" stroke-linecap="round" stroke-linejoin="round" d="M 24.668621063232422 -21.762842178344727 C 23.596824645996094 -17.762842178344727 20.668621063232422 -14.834639549255371 16.668621063232422 -13.762843132019043 C 12.668622016906738 -14.834639549255371 9.740418434143066 -17.762842178344727 8.668622016906738 -21.762842178344727 C 9.740418434143066 -25.762842178344727 12.668622016906738 -28.6910457611084 16.668621063232422 -29.762842178344727 C 20.668621063232422 -28.6910457611084 23.596824645996094 -25.762842178344727 24.668621063232422 -21.762842178344727"/>
    <path stroke-width="0" fill="rgb(126, 251, 169)" opacity="0.54950905" stroke="rgb(0, 0, 0)" stroke-opacity="0.0" stroke-linecap="round" stroke-linejoin="round" d="M 108.10499572753906 -84.74349212646484 C 107.033203125 -80.74349212646484 104.10499572753906 -77.8152847290039 100.10499572753906 -76.74349212646484 C 96.10499572753906 -77.8152847290039 93.17679595947266 -80.74349212646484 92.10499572753906 -84.74349212646484 C 93.17679595947266 -88.74349212646484 96.10499572753906 -91.67169189453125 100.10499572753906 -92.74349212646484 C 104.10499572753906 -91.67169189453125 107.033203125 -88.74349212646484 108.10499572753906 -84.74349212646484"/>
    <path stroke-width="0" fill="rgb(197, 121, 32)" opacity="0.03342436" stroke="rgb(0, 0, 0)" stroke-opacity="0.0" stroke-linecap="round" stroke-linejoin="round" d="M 1.389222264289856 -17.607885360717773 C 0.3174254894256592 -13.607885360717773 -2.6107778549194336 -10.679681777954102 -6.610777854919434 -9.607885360717773 C -10.610777854919434 -10.679681777954102 -13.538981437683105 -13.607885360717773 -14.610777854919434 -17.607885360717773 C -13.538981437683105 -21.607885360717773 -10.610777854919434 -24.536088943481445 -6.610777854919434 -25.607885360717773 C -2.6107778549194336 -24.536088943481445 0.3174254894256592 -21.607885360717773 1.389222264289856 -17.607885360717773"/>
    <path stroke-width="0" fill="rgb(68, 77, 137)" opacity="0.040703382" stroke="rgb(0, 0, 0)" stroke-opacity="0.0" stroke-linecap="round" stroke-linejoin="round" d="M 62.887142181396484 461.05865478515625 C 61.64284133911133 467.1810302734375 62.00554275512695 465.6964111328125 54.137176513671875 466.62890625 C 51.95317077636719 463.61944580078125 47.559898376464844 460.3905944824219 44.87581253051758 459.69476318359375 C 41.24782180786133 448.57745361328125 47.21811294555664 446.7137145996094 55.52680587768555 444.5866394042969 C 62.20680618286133 443.7073669433594 64.94709777832031 443.8955993652344 62.887142181396484 461.05865478515625"/>
    <path stroke-width="0" fill="rgb(6, 92, 152)" opacity="0.0062867803" stroke="rgb(0, 0, 0)" stroke-opacity="0.0" stroke-linecap="round" stroke-linejoin="round" d="M 195.8629608154297 469.06488037109375 C 203.9303741455078 464.1068115234375 198.15660095214844 463.85516357421875 200.12094116210938 448.5223083496094 C 185.57302856445312 455.10772705078125 190.09132385253906 459.0971984863281 192.04449462890625 454.92291259765625 C 188.33839416503906 452.93170166015625 193.88345336914062 448.5841369628906 198.30914306640625 455.3287048339844 C 194.17657470703125 458.1595153808594 196.54022216796875 453.3759765625 195.8629608154297 469.06488037109375"/>
    <path stroke-width="0" fill="rgb(32, 86, 47)" opacity="0.06941075" stroke="rgb(0, 0, 0)" stroke-opacity="0.0" stroke-linecap="round" stroke-linejoin="round" d="M 134.8527374267578 420.8518371582031 C 132.12429809570312 418.19366455078125 132.19142150878906 425.9742736816406 128.53758239746094 429.0877380371094 C 124.09497833251953 420.0770568847656 122.96686553955078 412.5466613769531 121.7276382446289 409.9291076660156 C 121.02857208251953 412.38079833984375 122.64112091064453 407.7768249511719 120.12531280517578 412.4252624511719 C 127.90393829345703 417.43548583984375 135.10203552246094 418.1678466796875 134.8527374267578 420.8518371582031"/>
    <path stroke-width="0" fill="rgb(101, 41, 197)" opacity="0.029234722" stroke="rgb(0, 0, 0)" stroke-opacity="0.0" stroke-linecap="round" stroke-linejoin="round" d="M 321.6389465332031 458.8963317871094 C 321.4652404785156 465.923095703125 329.3437805175781 465.71881103515625 323.4736633300781 462.6028747558594 C 310.09820556640625 467.4908447265625 313.876708984375 467.930908203125 312.75970458984375 466.48663330078125 C 309.25482177734375 457.5643310546875 313.0001220703125 458.4880676269531 311.8860168457031 459.1000061035156 C 315.0647888183594 460.5741882324219 323.48895263671875 459.03509521484375 321.6389465332031 458.8963317871094"/>
    <path stroke-width="0" fill="rgb(-54, 131, 23)" opacity="-0.108085476" stroke="rgb(0, 0, 0)" stroke-opacity="0.0" stroke-linecap="round" stroke-linejoin="round" d="M 181.9592742919922 421.6100158691406 C 167.65110778808594 425.3501892089844 169.82933044433594 428.4478454589844 168.87478637695312 419.4349670410156 C 165.19444274902344 423.6245422363281 165.83518981933594 425.9208679199219 153.0906524658203 427.0207214355469 C 167.3475799560547 417.9067077636719 181.88919067382812 420.9912109375 180.74615478515625 429.7967529296875 C 162.23092651367188 420.1141357421875 170.14682006835938 414.8467102050781 181.9592742919922 421.6100158691406"/>
    <path stroke-width="0" fill="rgb(33, 81, 122)" opacity="0.029721668" stroke="rgb(0, 0, 0)" stroke-opacity="0.0" stroke-linecap="round" stroke-linejoin="round" d="M 55.560935974121094 297.3929138183594 C 56.54032516479492 298.8314514160156 56.727081298828125 303.519287109375 53.7327995300293 298.5243835449219 C 54.80238342285156 302.0791015625 57.99441909790039 301.9232177734375 55.67120361328125 295.9388732910156 C 57.832122802734375 298.8418884277344 62.03267288208008 296.4149475097656 57.308998107910156 297.65252685546875 C 59.98603820800781 299.0456237792969 64.84500122070312 298.80322265625 55.560935974121094 297.3929138183594"/>
    <path stroke-width="0" fill="rgb(-21, 89, 194)" opacity="0.117974564" stroke="rgb(0, 0, 0)" stroke-opacity="0.0" stroke-linecap="round" stroke-linejoin="round" d="M 358.6143493652344 237.00755310058594 C 356.6690979003906 247.5723876953125 355.6064758300781 254.613037109375 349.4848327636719 261.9283142089844 C 353.54290771484375 240.97886657714844 344.501220703125 241.0181427001953 346.3724365234375 235.7226104736328 C 346.5503845214844 231.14622497558594 342.86834716796875 227.29359436035156 351.80120849609375 229.2165069580078 C 353.3595275878906 230.96847534179688 358.34033203125 236.5977783203125 358.6143493652344 237.00755310058594"/>
  </g>
</svg>
