<?xml version="1.0" ?>
<svg xmlns="http://www.w3.org/2000/svg" version="1.1" width="512" height="512">
  <defs/>
  <g>
    <path stroke-width="0" fill="rgb(124, 126, 131)" opacity="1.0106833" stroke="rgb(139, 182, 153)" stroke-opacity="1.0" stroke-linecap="round" stroke-linejoin="round" d="M 223.60044860839844 2.0341811180114746 C 160.88096618652344 3.906909942626953 192.58702087402344 49.330711364746094 66.60990905761719 129.17124938964844 C 58.17729568481445 122.41925048828125 55.61058044433594 110.84263610839844 54.83751678466797 87.49947357177734 C 58.889408111572266 -68.72174835205078 69.76350402832031 -69.6482925415039 85.67578125 -59.82435607910156 C 196.88150024414062 -32.08727264404297 205.08213806152344 -25.645219802856445 223.60044860839844 2.0341811180114746"/>
    <path stroke-width="0" fill="rgb(124, 125, 131)" opacity="1.0044564" stroke="rgb(108, 164, 111)" stroke-opacity="1.0" stroke-linecap="round" stroke-linejoin="round" d="M 144.53762817382812 83.53791046142578 C 155.26832580566406 158.32144165039062 160.46804809570312 170.84896850585938 98.70657348632812 172.3599395751953 C -60.76322555541992 166.3534698486328 -47.73666000366211 136.47991943359375 -41.064640045166016 85.29131317138672 C -38.50617218017578 -35.472816467285156 -31.483736038208008 -40.57529067993164 49.129241943359375 -37.27159118652344 C 114.79402160644531 -39.8800163269043 133.7637176513672 -47.24895477294922 144.53762817382812 83.53791046142578"/>
    <path stroke-width="0" fill="rgb(120, 127, 133)" opacity="0.9954752" stroke="rgb(245, 97, 201)" stroke-opacity="1.0" stroke-linecap="round" stroke-linejoin="round" d="M 493.0378112792969 531.5680541992188 C 350.8706970214844 582.8856811523438 327.6231384277344 574.8817749023438 -39.52774429321289 555.3480224609375 C -75.76151275634766 413.1372375488281 -51.65288543701172 351.97052001953125 -47.6607666015625 137.12094116210938 C -54.17012405395508 98.283447265625 -58.08561706542969 85.14051818847656 143.82354736328125 85.16181182861328 C 261.493896484375 81.30087280273438 394.0323791503906 34.142967224121094 493.0378112792969 531.5680541992188"/>
    <path stroke-width="0" fill="rgb(118, 126, 134)" opacity="0.9948852" stroke="rgb(144, 236, 18)" stroke-opacity="1.0" stroke-linecap="round" stroke-linejoin="round" d="M 551.8302612304688 550.4603271484375 C 341.68994140625 511.26971435546875 282.2475891113281 425.6651306152344 160.24057006835938 320.1894836425781 C 79.11895751953125 168.71705627441406 61.30571365356445 157.45138549804688 56.3156852722168 141.1238555908203 C 182.86085510253906 27.82577133178711 133.79652404785156 -24.6803035736084 455.6988220214844 -47.16692352294922 C 555.062744140625 -124.77310180664062 573.008544921875 -219.4150390625 551.8302612304688 550.4603271484375"/>
    <path stroke-width="0" fill="rgb(257, 234, 192)" opacity="1.0101681" stroke="rgb(5, 212, 198)" stroke-opacity="1.0" stroke-linecap="round" stroke-linejoin="round" d="M 368.1063232421875 368.3642578125 C 336.22857666015625 300.50830078125 380.5461730957031 424.2495422363281 327.5652770996094 379.8210754394531 C 342.2288513183594 282.6219787597656 244.34986877441406 477.1103820800781 287.34765625 313.4336853027344 C 238.45751953125 246.01321411132812 285.8021240234375 227.8693389892578 280.5505676269531 304.4052734375 C 375.1430969238281 218.15101623535156 340.0432434082031 339.0450439453125 368.1063232421875 368.3642578125"/>
    <path stroke-width="0" fill="rgb(248, 247, 241)" opacity="1.0152451" stroke="rgb(249, 203, 117)" stroke-opacity="1.0" stroke-linecap="round" stroke-linejoin="round" d="M 256.193359375 348.2734680175781 C 237.74681091308594 360.08917236328125 289.2276916503906 357.77679443359375 220.29751586914062 357.0943603515625 C 210.92593383789062 360.06512451171875 204.0194549560547 325.8394775390625 203.89993286132812 350.213623046875 C 185.16204833984375 298.8309326171875 180.68682861328125 293.3347473144531 195.56015014648438 291.4092102050781 C 263.94989013671875 314.9786376953125 252.16758728027344 281.8150634765625 256.193359375 348.2734680175781"/>
    <path stroke-width="0" fill="rgb(255, 191, 70)" opacity="1.0522294" stroke="rgb(30, 163, 36)" stroke-opacity="1.0" stroke-linecap="round" stroke-linejoin="round" d="M 388.5007629394531 331.59814453125 C 391.2694091796875 386.2143249511719 380.5687561035156 378.5030212402344 346.6005554199219 353.11810302734375 C 385.5718688964844 338.3657531738281 326.8141174316406 329.34320068359375 282.222900390625 309.9147033691406 C 233.56741333007812 288.21527099609375 301.16796875 221.20274353027344 348.8642578125 287.2807312011719 C 340.13232421875 301.27008056640625 365.7906494140625 265.4533996582031 388.5007629394531 331.59814453125"/>
    <path stroke-width="0" fill="rgb(250, 192, 52)" opacity="0.9705353" stroke="rgb(133, 105, 67)" stroke-opacity="1.0" stroke-linecap="round" stroke-linejoin="round" d="M 312.6946716308594 93.61331939697266 C 316.1476135253906 242.5543670654297 144.35372924804688 255.44529724121094 234.9228973388672 74.06857299804688 C 174.7422637939453 163.936767578125 160.85997009277344 253.5095977783203 188.89739990234375 118.27999114990234 C 223.9832000732422 50.61486053466797 218.5620574951172 62.9978141784668 233.69029235839844 63.12250518798828 C 250.04934692382812 111.22240447998047 227.6191864013672 132.53155517578125 312.6946716308594 93.61331939697266"/>
    <path stroke-width="0" fill="rgb(248, 167, 31)" opacity="0.9635777" stroke="rgb(116, 144, 4)" stroke-opacity="1.0" stroke-linecap="round" stroke-linejoin="round" d="M 301.04058837890625 320.8063049316406 C 316.0535583496094 325.0649719238281 389.3748779296875 338.0765075683594 207.33255004882812 301.94512939453125 C 197.2394256591797 291.5433044433594 155.63919067382812 422.0403747558594 160.08201599121094 247.22085571289062 C 231.0371551513672 -33.320404052734375 144.80191040039062 238.18096923828125 261.02752685546875 240.75393676757812 C 293.06005859375 255.27532958984375 256.7305603027344 148.4499053955078 301.04058837890625 320.8063049316406"/>
    <path stroke-width="0" fill="rgb(250, 252, 255)" opacity="0.9776784" stroke="rgb(156, 157, 240)" stroke-opacity="1.0" stroke-linecap="round" stroke-linejoin="round" d="M 226.88540649414062 209.248291015625 C 303.5545349121094 274.45263671875 176.2537384033203 242.0873565673828 196.29373168945312 195.33311462402344 C 300.0576171875 316.6274108886719 169.1855926513672 118.12432098388672 234.7415771484375 236.4207763671875 C 181.78199768066406 190.0420379638672 141.71835327148438 120.43001556396484 272.9044189453125 193.40220642089844 C 311.039306640625 271.24371337890625 170.9521942138672 162.08193969726562 226.88540649414062 209.248291015625"/>
    <path stroke-width="0" fill="rgb(257, 184, 61)" opacity="1.0275102" stroke="rgb(91, 111, 177)" stroke-opacity="1.0" stroke-linecap="round" stroke-linejoin="round" d="M 173.32406616210938 286.9135437011719 C 136.29574584960938 260.28631591796875 224.86219787597656 267.88787841796875 187.031982421875 408.9949645996094 C 94.27251434326172 410.61431884765625 196.92123413085938 420.2369689941406 161.37014770507812 312.65155029296875 C 161.56446838378906 163.28468322753906 185.75108337402344 284.3449401855469 183.74122619628906 134.87741088867188 C 376.75445556640625 46.756839752197266 105.34255981445312 220.02220153808594 173.32406616210938 286.9135437011719"/>
    <path stroke-width="0" fill="rgb(250, 202, 80)" opacity="1.0045041" stroke="rgb(170, 171, 53)" stroke-opacity="1.0" stroke-linecap="round" stroke-linejoin="round" d="M 283.6137390136719 322.30169677734375 C 260.20404052734375 403.233154296875 283.4997253417969 431.84149169921875 272.7891540527344 399.2939147949219 C 233.2465057373047 395.5422668457031 244.68650817871094 435.90960693359375 244.72219848632812 346.1498107910156 C 253.51031494140625 339.9779052734375 232.26356506347656 319.6935729980469 268.43389892578125 275.4507141113281 C 274.6970520019531 206.01181030273438 292.2572326660156 233.98899841308594 283.6137390136719 322.30169677734375"/>
    <path stroke-width="0" fill="rgb(234, 224, 186)" opacity="0.90304387" stroke="rgb(80, 92, 145)" stroke-opacity="1.0" stroke-linecap="round" stroke-linejoin="round" d="M 159.71739196777344 398.88641357421875 C 177.03753662109375 378.117919921875 142.80941772460938 382.1019592285156 148.12509155273438 405.92327880859375 C 209.00546264648438 403.8141174316406 178.46302795410156 412.1599426269531 191.85874938964844 389.3667297363281 C 136.8314666748047 405.13714599609375 144.6215057373047 379.1375732421875 187.65476989746094 401.5754089355469 C 140.1572265625 368.0823669433594 180.72320556640625 411.2287292480469 159.71739196777344 398.88641357421875"/>
    <path stroke-width="0" fill="rgb(253, 169, 51)" opacity="0.7953887" stroke="rgb(166, 64, 118)" stroke-opacity="1.0" stroke-linecap="round" stroke-linejoin="round" d="M 196.17068481445312 334.18707275390625 C 207.91920471191406 341.66229248046875 189.87486267089844 345.81329345703125 198.4296875 325.05615234375 C 192.4782257080078 370.4797668457031 220.38587951660156 316.1728820800781 202.20591735839844 351.40179443359375 C 220.18556213378906 356.12933349609375 208.19427490234375 338.1537780761719 192.5156707763672 364.1701354980469 C 192.23980712890625 351.50286865234375 192.92041015625 370.0107421875 196.17068481445312 334.18707275390625"/>
    <path stroke-width="0" fill="rgb(255, 250, 226)" opacity="0.8406356" stroke="rgb(50, 94, 209)" stroke-opacity="1.0" stroke-linecap="round" stroke-linejoin="round" d="M 189.80323791503906 385.8977966308594 C 192.30844116210938 408.49371337890625 177.1356201171875 405.9423828125 213.08229064941406 396.34051513671875 C 146.1468048095703 416.69757080078125 176.42262268066406 414.9897155761719 146.29119873046875 407.125 C 149.3438262939453 373.9728698730469 158.9138946533203 409.1082458496094 160.11439514160156 389.30682373046875 C 121.44674682617188 371.66534423828125 178.87667846679688 401.6575927734375 189.80323791503906 385.8977966308594"/>
    <path stroke-width="0" fill="rgb(123, 128, 130)" opacity="1.0002592" stroke="rgb(72, 30, 75)" stroke-opacity="1.0" stroke-linecap="round" stroke-linejoin="round" d="M 445.8327331542969 622.9952392578125 C -28.76239585876465 435.71514892578125 497.2304992675781 363.0018005371094 514.2868041992188 331.0556640625 C 262.7283935546875 415.5097351074219 494.76898193359375 359.67218017578125 316.5374450683594 257.70660400390625 C 243.76776123046875 259.9052429199219 306.81805419921875 221.96282958984375 297.53973388671875 124.89401245117188 C 354.093994140625 65.1192855834961 700.6071166992188 -17.28152847290039 445.8327331542969 622.9952392578125"/>
    <path stroke-width="0" fill="rgb(257, 240, 199)" opacity="0.99687934" stroke="rgb(81, 105, 16)" stroke-opacity="1.0" stroke-linecap="round" stroke-linejoin="round" d="M 194.58135986328125 121.87759399414062 C 188.6731414794922 123.03860473632812 196.44444274902344 123.15269470214844 195.5373077392578 116.66829681396484 C 210.25869750976562 109.9845962524414 190.3927764892578 103.05742645263672 208.3417205810547 121.02062225341797 C 189.29119873046875 146.5536651611328 195.05899047851562 124.97772216796875 195.2512969970703 120.1310806274414 C 191.5067138671875 131.46994018554688 193.0830078125 125.78549194335938 194.58135986328125 121.87759399414062"/>
    <path stroke-width="0" fill="rgb(161, 99, 34)" opacity="0.74687874" stroke="rgb(146, 236, 81)" stroke-opacity="1.0" stroke-linecap="round" stroke-linejoin="round" d="M 192.83229064941406 81.51909637451172 C 198.41586303710938 111.16646575927734 199.7469940185547 110.89187622070312 196.46746826171875 115.32101440429688 C 195.58370971679688 126.2390365600586 190.3970184326172 113.90672302246094 198.91563415527344 116.37793731689453 C 198.90481567382812 104.79783630371094 197.34864807128906 107.5806884765625 193.98532104492188 107.93354797363281 C 196.52593994140625 97.5351791381836 199.88868713378906 118.0977554321289 192.83229064941406 81.51909637451172"/>
    <path stroke-width="0" fill="rgb(63, 40, 34)" opacity="0.8514711" stroke="rgb(33, 182, 73)" stroke-opacity="1.0" stroke-linecap="round" stroke-linejoin="round" d="M 293.2884216308594 128.0607147216797 C 305.4356384277344 178.12374877929688 292.9483337402344 128.82339477539062 302.1960754394531 136.1673583984375 C 298.38427734375 137.71910095214844 304.0518798828125 139.14553833007812 299.5146179199219 125.89170837402344 C 287.51043701171875 177.716064453125 308.810791015625 137.19761657714844 297.8014221191406 170.12796020507812 C 298.6424865722656 113.66381072998047 289.19354248046875 182.52435302734375 293.2884216308594 128.0607147216797"/>
    <path stroke-width="0" fill="rgb(254, 177, 43)" opacity="1.0470457" stroke="rgb(149, 5, 211)" stroke-opacity="1.0" stroke-linecap="round" stroke-linejoin="round" d="M 269.1629638671875 195.2561798095703 C 286.6767272949219 193.3419189453125 270.084716796875 192.96620178222656 261.49603271484375 188.0409393310547 C 293.92169189453125 179.28433227539062 250.95130920410156 191.52880859375 242.5689239501953 184.33009338378906 C 183.14259338378906 144.6053466796875 305.919921875 181.74969482421875 296.6896667480469 169.80142211914062 C 286.8652648925781 201.5673065185547 315.99761962890625 197.56674194335938 269.1629638671875 195.2561798095703"/>
    <path stroke-width="0" fill="rgb(38, -5, 1)" opacity="0.6649822" stroke="rgb(172, 68, 187)" stroke-opacity="1.0" stroke-linecap="round" stroke-linejoin="round" d="M 303.8123474121094 105.7837142944336 C 295.43890380859375 101.218994140625 339.3635559082031 77.73942565917969 295.00543212890625 134.43572998046875 C 330.7974853515625 95.39800262451172 324.70111083984375 81.30694580078125 277.3409423828125 109.72212219238281 C 265.9139099121094 107.64891815185547 353.4023742675781 73.2437744140625 280.0406188964844 118.8492660522461 C 283.72802734375 131.16990661621094 270.1183166503906 118.73974609375 303.8123474121094 105.7837142944336"/>
    <path stroke-width="0" fill="rgb(56, 6, 19)" opacity="0.69682187" stroke="rgb(63, 146, 150)" stroke-opacity="1.0" stroke-linecap="round" stroke-linejoin="round" d="M 295.1716003417969 101.68201446533203 C 290.4389953613281 104.72379302978516 310.3227233886719 94.2432632446289 297.94659423828125 96.8709945678711 C 319.3207702636719 94.0953140258789 304.5951232910156 100.87525939941406 306.4233703613281 92.01564025878906 C 299.9691162109375 114.2665786743164 327.01123046875 96.93120574951172 289.72857666015625 97.72297668457031 C 285.7413635253906 116.0700454711914 239.6245574951172 112.70035552978516 295.1716003417969 101.68201446533203"/>
    <path stroke-width="0" fill="rgb(-6, -18, -6)" opacity="0.88281053" stroke="rgb(56, 242, 114)" stroke-opacity="1.0" stroke-linecap="round" stroke-linejoin="round" d="M 178.96873474121094 153.16111755371094 C 180.95326232910156 134.03591918945312 184.62680053710938 134.31890869140625 183.45819091796875 144.00991821289062 C 206.1804962158203 87.17513275146484 181.04541015625 112.87433624267578 182.7946014404297 155.8087158203125 C 170.11695861816406 159.69338989257812 175.66702270507812 180.49029541015625 181.77084350585938 169.9132080078125 C 168.8894500732422 177.31924438476562 182.71066284179688 180.39144897460938 178.96873474121094 153.16111755371094"/>
    <path stroke-width="0" fill="rgb(33, 7, -14)" opacity="0.86331195" stroke="rgb(178, 75, 207)" stroke-opacity="1.0" stroke-linecap="round" stroke-linejoin="round" d="M 219.2117462158203 88.62124633789062 C 233.66677856445312 81.83345031738281 225.7126007080078 81.56378936767578 226.89678955078125 106.9501724243164 C 182.71884155273438 152.91738891601562 216.3011932373047 108.94217681884766 226.2032470703125 92.28787231445312 C 213.865478515625 127.6673355102539 207.27978515625 96.8409423828125 213.7053985595703 103.12993621826172 C 233.47134399414062 91.17961120605469 205.1229705810547 112.44478607177734 219.2117462158203 88.62124633789062"/>
    <path stroke-width="0" fill="rgb(-7, -1, 6)" opacity="0.98534447" stroke="rgb(224, 148, 224)" stroke-opacity="1.0" stroke-linecap="round" stroke-linejoin="round" d="M 288.9588928222656 223.0908966064453 C 285.574462890625 214.101806640625 277.1665344238281 225.78216552734375 298.0368957519531 207.36746215820312 C 297.99896240234375 192.1272735595703 279.9789123535156 210.06707763671875 274.580810546875 199.56834411621094 C 289.39556884765625 186.18862915039062 269.2332763671875 217.53456115722656 276.4022216796875 193.428466796875 C 277.4738464355469 217.20640563964844 281.0958557128906 206.3455352783203 288.9588928222656 223.0908966064453"/>
    <path stroke-width="0" fill="rgb(25, 29, 21)" opacity="0.7363766" stroke="rgb(108, 154, 4)" stroke-opacity="1.0" stroke-linecap="round" stroke-linejoin="round" d="M 238.78431701660156 412.5048828125 C 250.68846130371094 383.2077331542969 220.07395935058594 427.5676574707031 279.8707580566406 413.243896484375 C 248.81854248046875 404.75128173828125 292.5830078125 435.0953063964844 271.450439453125 391.30914306640625 C 279.0302734375 431.0635070800781 261.3368225097656 408.4517517089844 271.0846862792969 417.03289794921875 C 211.22459411621094 414.1430969238281 261.3097839355469 392.01678466796875 238.78431701660156 412.5048828125"/>
    <path stroke-width="0" fill="rgb(124, 127, 141)" opacity="0.74615604" stroke="rgb(168, 73, 157)" stroke-opacity="1.0" stroke-linecap="round" stroke-linejoin="round" d="M 148.99388122558594 358.6001281738281 C 195.0590362548828 387.2530212402344 142.41311645507812 383.2514953613281 171.5108642578125 377.7250061035156 C 176.23257446289062 378.0243225097656 163.91033935546875 381.0282897949219 158.65196228027344 346.9365234375 C 146.9687957763672 384.76971435546875 154.9597625732422 364.3445739746094 158.52308654785156 344.6567077636719 C 173.73345947265625 361.50335693359375 168.4115753173828 374.3865051269531 148.99388122558594 358.6001281738281"/>
    <path stroke-width="0" fill="rgb(62, 7, -3)" opacity="0.55843323" stroke="rgb(34, 76, 145)" stroke-opacity="1.0" stroke-linecap="round" stroke-linejoin="round" d="M 231.22500610351562 113.75836944580078 C 198.14218139648438 115.90027618408203 214.3434600830078 92.891845703125 225.76290893554688 104.10233306884766 C 190.683837890625 65.75871276855469 219.70042419433594 74.89581298828125 194.32839965820312 104.4017105102539 C 188.71240234375 149.38905334472656 194.95254516601562 71.98731231689453 224.25843811035156 104.63921356201172 C 228.60165405273438 76.28778076171875 168.99842834472656 84.71133422851562 231.22500610351562 113.75836944580078"/>
    <path stroke-width="0" fill="rgb(36, 1, 13)" opacity="0.8914738" stroke="rgb(146, 166, 166)" stroke-opacity="1.0" stroke-linecap="round" stroke-linejoin="round" d="M 176.9534149169922 203.0352783203125 C 176.51437377929688 200.18719482421875 175.24917602539062 198.8914794921875 175.07606506347656 194.3738250732422 C 165.62326049804688 208.4535675048828 178.56814575195312 148.2926788330078 174.72564697265625 200.68421936035156 C 165.6958465576172 206.492431640625 174.70310974121094 192.6727294921875 170.26878356933594 203.51361083984375 C 181.6475067138672 200.5654754638672 175.7836151123047 204.53121948242188 176.9534149169922 203.0352783203125"/>
    <path stroke-width="0" fill="rgb(33, -1, -1)" opacity="0.5017234" stroke="rgb(228, 93, 111)" stroke-opacity="1.0" stroke-linecap="round" stroke-linejoin="round" d="M 233.28294372558594 112.61677551269531 C 244.541259765625 97.28404998779297 233.08148193359375 59.774085998535156 241.827880859375 85.60285186767578 C 217.54933166503906 120.6033935546875 230.37315368652344 133.61758422851562 222.0734100341797 101.97140502929688 C 236.67698669433594 91.47433471679688 287.7318420410156 139.69094848632812 264.3423767089844 112.04080200195312 C 233.27017211914062 109.25743103027344 260.2007751464844 88.89315032958984 233.28294372558594 112.61677551269531"/>
    <path stroke-width="0" fill="rgb(230, 171, 157)" opacity="0.65309566" stroke="rgb(205, 179, 25)" stroke-opacity="1.0" stroke-linecap="round" stroke-linejoin="round" d="M 200.28407287597656 105.1060562133789 C 240.00241088867188 91.27347564697266 187.65345764160156 134.67271423339844 210.43234252929688 99.21300506591797 C 245.62306213378906 108.27944946289062 224.5916290283203 54.565616607666016 213.06930541992188 95.33316040039062 C 177.69827270507812 65.86565399169922 222.3943328857422 85.2390365600586 215.82290649414062 122.35841369628906 C 253.896240234375 79.83064270019531 215.85682678222656 103.79095458984375 200.28407287597656 105.1060562133789"/>
    <path stroke-width="0" fill="rgb(242, 207, 148)" opacity="0.6106524" stroke="rgb(205, 145, 103)" stroke-opacity="1.0" stroke-linecap="round" stroke-linejoin="round" d="M 292.1485900878906 145.16358947753906 C 280.6411437988281 117.80480194091797 255.3252410888672 141.91201782226562 287.0737609863281 129.6437225341797 C 292.03570556640625 151.91888427734375 275.31488037109375 142.14895629882812 290.9001159667969 144.73568725585938 C 295.2590637207031 149.6981201171875 296.2019958496094 109.91009521484375 298.599853515625 144.06309509277344 C 270.6027526855469 136.60836791992188 290.89093017578125 145.87791442871094 292.1485900878906 145.16358947753906"/>
    <path stroke-width="0" fill="rgb(91, 93, 122)" opacity="0.68557537" stroke="rgb(177, 115, 184)" stroke-opacity="1.0" stroke-linecap="round" stroke-linejoin="round" d="M 153.28616333007812 192.4077911376953 C 168.29721069335938 202.31927490234375 170.75782775878906 197.80799865722656 167.39419555664062 211.42987060546875 C 171.180419921875 218.22921752929688 158.6728515625 220.1327362060547 168.26885986328125 230.306396484375 C 168.0325927734375 210.41432189941406 168.16209411621094 215.2273712158203 164.62606811523438 219.14964294433594 C 176.19642639160156 204.78585815429688 173.5076141357422 203.8489990234375 153.28616333007812 192.4077911376953"/>
    <path stroke-width="0" fill="rgb(174, 171, 229)" opacity="0.69782966" stroke="rgb(248, 218, 2)" stroke-opacity="1.0" stroke-linecap="round" stroke-linejoin="round" d="M 288.31268310546875 219.96078491210938 C 298.7490234375 193.51904296875 316.0865783691406 220.98582458496094 241.09471130371094 235.41830444335938 C 252.3180694580078 248.8620147705078 245.60325622558594 229.78082275390625 262.77362060546875 230.19033813476562 C 280.548828125 221.56781005859375 279.91412353515625 244.562255859375 259.83984375 238.75250244140625 C 231.97874450683594 220.06065368652344 291.4287109375 206.1444549560547 288.31268310546875 219.96078491210938"/>
    <path stroke-width="0" fill="rgb(3, 64, 94)" opacity="0.62994343" stroke="rgb(186, 43, 132)" stroke-opacity="1.0" stroke-linecap="round" stroke-linejoin="round" d="M 214.89089965820312 203.19651794433594 C 227.07550048828125 187.42999267578125 216.50100708007812 228.21722412109375 228.14883422851562 210.2408447265625 C 240.0081787109375 217.43043518066406 251.7506103515625 202.6330108642578 220.5245361328125 215.3482666015625 C 218.6694793701172 194.90721130371094 224.6634979248047 198.6213836669922 224.64573669433594 209.66506958007812 C 214.935302734375 215.18162536621094 241.4898223876953 230.50982666015625 214.89089965820312 203.19651794433594"/>
    <path stroke-width="0" fill="rgb(202, 114, 2)" opacity="0.5034731" stroke="rgb(88, 236, 179)" stroke-opacity="1.0" stroke-linecap="round" stroke-linejoin="round" d="M 288.66656494140625 263.3918762207031 C 275.5921630859375 257.22625732421875 291.8106384277344 250.5010986328125 286.3618469238281 260.5136413574219 C 289.37322998046875 260.1106262207031 275.7855224609375 260.98193359375 289.59686279296875 265.0624084472656 C 328.8045654296875 264.30609130859375 343.1726379394531 263.83349609375 279.9728698730469 261.2486877441406 C 303.0062255859375 257.815673828125 302.7630310058594 338.8810729980469 288.66656494140625 263.3918762207031"/>
    <path stroke-width="0" fill="rgb(7, 2, 26)" opacity="0.72433716" stroke="rgb(41, 158, 147)" stroke-opacity="1.0" stroke-linecap="round" stroke-linejoin="round" d="M 228.06883239746094 203.00372314453125 C 234.2854461669922 216.38047790527344 220.3328857421875 208.742431640625 279.6807861328125 229.98565673828125 C 287.3759765625 213.13475036621094 237.51272583007812 227.44346618652344 251.13990783691406 232.5822296142578 C 214.45944213867188 202.9762725830078 254.89498901367188 213.40963745117188 233.75820922851562 212.3184356689453 C 238.68019104003906 213.32862854003906 243.56163024902344 206.6479949951172 228.06883239746094 203.00372314453125"/>
    <path stroke-width="0" fill="rgb(46, 22, 11)" opacity="0.9461155" stroke="rgb(238, 156, 136)" stroke-opacity="1.0" stroke-linecap="round" stroke-linejoin="round" d="M 306.32623291015625 191.5926513671875 C 292.42718505859375 175.71270751953125 268.77825927734375 169.00167846679688 286.630859375 164.46897888183594 C 299.9495544433594 169.96112060546875 284.9996032714844 154.9438018798828 293.1162414550781 165.1051483154297 C 286.07366943359375 171.00938415527344 287.7823181152344 175.17347717285156 307.6783142089844 210.29815673828125 C 283.0821533203125 178.98245239257812 289.95501708984375 174.7073211669922 306.32623291015625 191.5926513671875"/>
    <path stroke-width="0" fill="rgb(51, 27, 19)" opacity="0.707929" stroke="rgb(186, 79, 101)" stroke-opacity="1.0" stroke-linecap="round" stroke-linejoin="round" d="M 167.66778564453125 218.0030517578125 C 166.97213745117188 212.89334106445312 172.31776428222656 218.80435180664062 169.15989685058594 212.1006622314453 C 170.16636657714844 224.19247436523438 174.3890838623047 176.10723876953125 160.87741088867188 242.92889404296875 C 159.02015686035156 235.58460998535156 170.98593139648438 231.0037384033203 162.0930938720703 231.07725524902344 C 167.62136840820312 222.7873992919922 169.6866912841797 245.85960388183594 167.66778564453125 218.0030517578125"/>
    <path stroke-width="0" fill="rgb(15, 13, 4)" opacity="0.90706736" stroke="rgb(57, 64, 14)" stroke-opacity="1.0" stroke-linecap="round" stroke-linejoin="round" d="M 156.81236267089844 270.7242126464844 C 157.6368408203125 266.29296875 155.74180603027344 280.5699462890625 157.02093505859375 255.45269775390625 C 175.75521850585938 227.3276824951172 154.2161102294922 207.27232360839844 155.94313049316406 309.0421447753906 C 163.49722290039062 322.2698974609375 157.30023193359375 316.9009094238281 160.64724731445312 238.71258544921875 C 153.32205200195312 293.4698181152344 157.95347595214844 278.76251220703125 156.81236267089844 270.7242126464844"/>
    <path stroke-width="0" fill="rgb(249, 256, 254)" opacity="0.7928993" stroke="rgb(6, 17, 173)" stroke-opacity="1.0" stroke-linecap="round" stroke-linejoin="round" d="M 347.38092041015625 373.784423828125 C 349.3102111816406 401.9561462402344 375.84033203125 363.6240234375 333.6306457519531 377.81854248046875 C 371.4637145996094 322.16943359375 312.6340637207031 367.70098876953125 324.37408447265625 347.2149353027344 C 287.6239318847656 327.9909973144531 350.14495849609375 316.9457092285156 350.4920654296875 345.2618713378906 C 314.12994384765625 349.1318664550781 325.0826110839844 384.75384521484375 347.38092041015625 373.784423828125"/>
    <path stroke-width="0" fill="rgb(45, 26, 24)" opacity="0.9097928" stroke="rgb(136, 228, 252)" stroke-opacity="1.0" stroke-linecap="round" stroke-linejoin="round" d="M 315.4806823730469 259.6008605957031 C 410.58184814453125 324.81463623046875 382.1064453125 307.75341796875 353.2190246582031 287.0549011230469 C 345.5880432128906 282.6094055175781 359.759765625 283.224365234375 352.0914611816406 292.6618347167969 C 360.53985595703125 392.1562805175781 361.3778991699219 367.2046813964844 356.1700134277344 294.8475036621094 C 344.70733642578125 301.32745361328125 351.78155517578125 268.6099853515625 315.4806823730469 259.6008605957031"/>
    <path stroke-width="0" fill="rgb(2, -7, 10)" opacity="0.74500877" stroke="rgb(81, 97, 150)" stroke-opacity="1.0" stroke-linecap="round" stroke-linejoin="round" d="M 253.37673950195312 222.14634704589844 C 239.60958862304688 203.54998779296875 211.8646240234375 212.88853454589844 270.5998840332031 229.9430389404297 C 264.4952392578125 216.52783203125 231.50331115722656 216.5459442138672 252.4246368408203 239.31019592285156 C 274.7536315917969 252.05398559570312 276.77093505859375 233.97731018066406 260.4259948730469 240.7038116455078 C 255.98255920410156 230.83755493164062 251.75050354003906 241.02020263671875 253.37673950195312 222.14634704589844"/>
    <path stroke-width="0" fill="rgb(263, 248, 227)" opacity="0.70392674" stroke="rgb(160, 222, 69)" stroke-opacity="1.0" stroke-linecap="round" stroke-linejoin="round" d="M 174.0456085205078 386.90460205078125 C 198.2876739501953 373.6816711425781 155.0518341064453 403.1786804199219 164.14602661132812 371.9515380859375 C 162.72206115722656 398.4705810546875 167.54632568359375 384.71466064453125 158.55459594726562 394.97235107421875 C 177.50462341308594 362.86822509765625 158.5675048828125 355.4131774902344 165.23345947265625 352.6939392089844 C 165.30813598632812 372.96014404296875 185.43539428710938 344.6399230957031 174.0456085205078 386.90460205078125"/>
    <path stroke-width="0" fill="rgb(124, 124, 121)" opacity="0.974575" stroke="rgb(47, 242, 175)" stroke-opacity="1.0" stroke-linecap="round" stroke-linejoin="round" d="M 320.2415466308594 355.89349365234375 C 320.42034912109375 364.0497741699219 322.5088195800781 341.7420654296875 321.0972595214844 356.307861328125 C 312.4548034667969 361.3360900878906 302.9840393066406 326.3111877441406 295.7421875 376.85455322265625 C 340.54754638671875 358.4139709472656 322.3675842285156 333.55523681640625 284.4969177246094 319.1060791015625 C 339.0362548828125 343.82989501953125 307.6374206542969 333.3838806152344 320.2415466308594 355.89349365234375"/>
    <path stroke-width="0" fill="rgb(29, 0, 5)" opacity="0.7464144" stroke="rgb(241, 186, 64)" stroke-opacity="1.0" stroke-linecap="round" stroke-linejoin="round" d="M 284.5401916503906 263.2144775390625 C 282.7736511230469 245.4412078857422 285.72314453125 269.733154296875 306.6618957519531 255.2527618408203 C 304.4677429199219 258.5990295410156 294.0006408691406 259.2040100097656 315.34869384765625 260.51165771484375 C 333.2097473144531 255.8568572998047 384.8045959472656 328.5498046875 325.50762939453125 262.2688903808594 C 312.7440490722656 271.4366455078125 316.0107421875 245.34046936035156 284.5401916503906 263.2144775390625"/>
    <path stroke-width="0" fill="rgb(-4, -1, 12)" opacity="0.83922833" stroke="rgb(132, 6, 52)" stroke-opacity="1.0" stroke-linecap="round" stroke-linejoin="round" d="M 201.34620666503906 103.64293670654297 C 205.02838134765625 98.63619995117188 194.49691772460938 83.0946273803711 203.26486206054688 92.46385955810547 C 201.81959533691406 90.56723022460938 216.24110412597656 60.03699493408203 188.2372283935547 119.21098327636719 C 222.43357849121094 66.6382064819336 211.29513549804688 58.04558563232422 236.3609619140625 62.92451095581055 C 220.08924865722656 43.335758209228516 196.8279571533203 88.64212036132812 201.34620666503906 103.64293670654297"/>
    <path stroke-width="0" fill="rgb(27, 2, -1)" opacity="0.8975011" stroke="rgb(182, 100, 144)" stroke-opacity="1.0" stroke-linecap="round" stroke-linejoin="round" d="M 305.3860168457031 191.99493408203125 C 300.8100891113281 191.59671020507812 312.2426452636719 219.98477172851562 303.4951171875 221.02577209472656 C 300.2802734375 192.6866912841797 319.6324768066406 203.35171508789062 297.8699035644531 221.19723510742188 C 291.4819641113281 222.64927673339844 327.58282470703125 231.29339599609375 268.9101257324219 226.66099548339844 C 285.0718994140625 220.8091583251953 307.8064270019531 215.09869384765625 305.3860168457031 191.99493408203125"/>
    <path stroke-width="0" fill="rgb(202, 128, 108)" opacity="0.5631026" stroke="rgb(140, 149, 245)" stroke-opacity="1.0" stroke-linecap="round" stroke-linejoin="round" d="M 219.61839294433594 73.51956176757812 C 227.69064331054688 95.02198791503906 202.04295349121094 91.7125015258789 215.59779357910156 98.32759094238281 C 231.3160400390625 67.97281646728516 208.162841796875 71.47078704833984 181.13323974609375 77.15389251708984 C 201.34725952148438 84.132568359375 178.6552734375 101.13383483886719 189.4436492919922 74.78627014160156 C 219.64163208007812 69.20703887939453 248.33493041992188 82.95354461669922 219.61839294433594 73.51956176757812"/>
    <path stroke-width="0" fill="rgb(60, 14, 23)" opacity="0.8257955" stroke="rgb(61, 25, 4)" stroke-opacity="1.0" stroke-linecap="round" stroke-linejoin="round" d="M 273.01055908203125 238.42031860351562 C 280.89044189453125 229.02027893066406 237.33628845214844 227.91897583007812 268.058349609375 231.12123107910156 C 270.50482177734375 236.3894805908203 256.70184326171875 223.3137664794922 262.7834167480469 233.38172912597656 C 271.22216796875 232.0055389404297 278.7943115234375 241.03665161132812 257.506591796875 248.3619842529297 C 271.6261291503906 243.23789978027344 269.63067626953125 240.21824645996094 273.01055908203125 238.42031860351562"/>
    <path stroke-width="0" fill="rgb(250, 174, 44)" opacity="0.89658266" stroke="rgb(86, 245, 59)" stroke-opacity="1.0" stroke-linecap="round" stroke-linejoin="round" d="M 277.4081115722656 313.1615295410156 C 277.72100830078125 318.0364990234375 269.4802551269531 336.2749328613281 332.3078918457031 274.4206237792969 C 262.21795654296875 223.38150024414062 290.0952453613281 321.1487121582031 324.9712829589844 289.4185791015625 C 310.55609130859375 349.5836181640625 273.0132141113281 303.17205810546875 290.9261169433594 292.5533447265625 C 318.7024841308594 281.4915466308594 288.8536071777344 345.2065124511719 277.4081115722656 313.1615295410156"/>
    <path stroke-width="0" fill="rgb(254, 248, 231)" opacity="0.50487405" stroke="rgb(240, 203, 160)" stroke-opacity="1.0" stroke-linecap="round" stroke-linejoin="round" d="M 258.4752502441406 186.7815704345703 C 260.89532470703125 202.9371337890625 266.8010559082031 214.2313995361328 296.22509765625 236.6709747314453 C 300.8343200683594 216.58340454101562 308.9521484375 217.45472717285156 305.852783203125 210.73681640625 C 308.5228271484375 258.0244140625 268.1578674316406 232.19691467285156 287.85858154296875 228.23744201660156 C 256.0762634277344 198.59703063964844 265.3329162597656 218.4846954345703 258.4752502441406 186.7815704345703"/>
    <path stroke-width="0" fill="rgb(67, 26, 32)" opacity="0.852646" stroke="rgb(88, 37, 250)" stroke-opacity="1.0" stroke-linecap="round" stroke-linejoin="round" d="M 273.1807861328125 348.3437805175781 C 295.0565490722656 313.1029357910156 280.5437927246094 315.1248779296875 285.6631164550781 326.1048278808594 C 290.38543701171875 328.7645263671875 285.382568359375 260.9430236816406 283.76214599609375 316.79876708984375 C 293.6098937988281 339.62469482421875 288.10589599609375 304.54364013671875 317.8565368652344 322.5293273925781 C 254.55279541015625 302.242919921875 293.185302734375 368.96142578125 273.1807861328125 348.3437805175781"/>
    <path stroke-width="0" fill="rgb(116, 135, 155)" opacity="0.39951178" stroke="rgb(126, 163, 93)" stroke-opacity="1.0" stroke-linecap="round" stroke-linejoin="round" d="M 201.40545654296875 71.12845611572266 C 210.7486572265625 65.1746597290039 218.95372009277344 73.17083740234375 203.29229736328125 66.9710693359375 C 208.6098175048828 60.48573684692383 211.5448455810547 34.16316604614258 207.83062744140625 61.46988296508789 C 208.06654357910156 69.24862670898438 227.4564971923828 57.6599235534668 229.64837646484375 56.44533920288086 C 198.8871307373047 54.00691604614258 219.1872100830078 81.16497802734375 201.40545654296875 71.12845611572266"/>
    <path stroke-width="0" fill="rgb(118, 126, 131)" opacity="0.8713525" stroke="rgb(209, 48, 130)" stroke-opacity="1.0" stroke-linecap="round" stroke-linejoin="round" d="M 230.5568389892578 49.15138626098633 C 193.70907592773438 51.382694244384766 178.91116333007812 48.806304931640625 182.9544677734375 66.88945770263672 C 164.535888671875 99.18927764892578 160.38327026367188 108.95719909667969 180.70993041992188 104.29289245605469 C 231.02413940429688 59.667015075683594 208.17803955078125 18.691444396972656 178.81201171875 34.10932922363281 C 148.44815063476562 83.018310546875 189.97718811035156 72.38419342041016 230.5568389892578 49.15138626098633"/>
    <path stroke-width="0" fill="rgb(240, 137, 26)" opacity="0.42639998" stroke="rgb(24, 219, 248)" stroke-opacity="1.0" stroke-linecap="round" stroke-linejoin="round" d="M 229.16619873046875 107.74217224121094 C 222.94235229492188 90.41732025146484 220.77963256835938 82.00432586669922 237.42625427246094 84.81810760498047 C 217.26947021484375 64.1033935546875 233.96620178222656 72.5849380493164 227.92942810058594 88.70339965820312 C 235.77127075195312 93.35508728027344 232.27145385742188 88.66218566894531 232.3040771484375 77.12574768066406 C 232.25723266601562 82.51677703857422 241.12315368652344 61.486083984375 229.16619873046875 107.74217224121094"/>
    <path stroke-width="0" fill="rgb(37, 23, 20)" opacity="0.8686437" stroke="rgb(231, 197, 84)" stroke-opacity="1.0" stroke-linecap="round" stroke-linejoin="round" d="M 376.262939453125 304.49774169921875 C 398.7527770996094 327.57568359375 380.90692138671875 346.0768127441406 392.8963928222656 352.68695068359375 C 386.7265930175781 350.1072998046875 391.197265625 348.7044982910156 390.1377258300781 354.7756652832031 C 393.6046447753906 326.3906555175781 385.1026306152344 329.9186096191406 389.7806396484375 336.9980163574219 C 380.60711669921875 326.9569396972656 398.4504699707031 352.34112548828125 376.262939453125 304.49774169921875"/>
    <path stroke-width="0" fill="rgb(258, 154, 46)" opacity="0.42089456" stroke="rgb(103, 59, 33)" stroke-opacity="1.0" stroke-linecap="round" stroke-linejoin="round" d="M 228.41036987304688 65.1362533569336 C 216.5003662109375 66.81822967529297 220.36593627929688 78.6482925415039 235.0816650390625 89.09805297851562 C 240.16693115234375 114.20909118652344 233.75009155273438 123.76229858398438 229.34201049804688 118.57632446289062 C 239.38531494140625 116.685791015625 236.5325927734375 79.07821655273438 216.82505798339844 97.33647918701172 C 212.39291381835938 85.07111358642578 219.57049560546875 85.58219146728516 228.41036987304688 65.1362533569336"/>
    <path stroke-width="0" fill="rgb(212, 132, 27)" opacity="0.8092024" stroke="rgb(185, 2, 196)" stroke-opacity="1.0" stroke-linecap="round" stroke-linejoin="round" d="M 176.84361267089844 100.93970489501953 C 188.06407165527344 81.20836639404297 193.75843811035156 113.99939727783203 202.86044311523438 95.98933410644531 C 207.1092071533203 173.39129638671875 209.70188903808594 81.29114532470703 203.71974182128906 111.69140625 C 208.97486877441406 94.11820983886719 174.38905334472656 104.43082427978516 173.51087951660156 96.06983947753906 C 193.75038146972656 109.6023941040039 195.6386260986328 83.56343841552734 176.84361267089844 100.93970489501953"/>
    <path stroke-width="0" fill="rgb(126, 124, 141)" opacity="0.89472145" stroke="rgb(66, 116, 174)" stroke-opacity="1.0" stroke-linecap="round" stroke-linejoin="round" d="M 178.5835723876953 100.18206024169922 C 177.13050842285156 94.46022033691406 195.6508331298828 167.8037872314453 174.05029296875 104.80184173583984 C 149.26873779296875 110.92144012451172 135.15879821777344 141.2076873779297 164.31385803222656 112.4857177734375 C 174.63946533203125 106.97781372070312 174.51869201660156 101.94613647460938 170.6122589111328 58.62428665161133 C 188.68618774414062 112.59913635253906 180.4886016845703 111.9656982421875 178.5835723876953 100.18206024169922"/>
    <path stroke-width="0" fill="rgb(175, 129, 100)" opacity="0.63122505" stroke="rgb(72, 96, 46)" stroke-opacity="1.0" stroke-linecap="round" stroke-linejoin="round" d="M 221.8916015625 91.90704345703125 C 213.0365753173828 92.58492279052734 252.10218811035156 94.51276397705078 223.7533416748047 77.3812255859375 C 241.622802734375 80.95195770263672 229.07583618164062 115.25616455078125 214.8212127685547 100.3283920288086 C 212.94357299804688 112.14997100830078 237.56834411621094 80.07353210449219 214.4351348876953 77.47966766357422 C 223.98863220214844 83.06558990478516 231.1209716796875 101.63846588134766 221.8916015625 91.90704345703125"/>
    <path stroke-width="0" fill="rgb(121, 125, 131)" opacity="0.6206979" stroke="rgb(147, 244, 164)" stroke-opacity="1.0" stroke-linecap="round" stroke-linejoin="round" d="M 225.8760223388672 78.55052947998047 C 176.65614318847656 77.7500228881836 204.40817260742188 84.08683776855469 184.85009765625 96.77567291259766 C 169.84120178222656 164.58392333984375 108.15338897705078 260.4735107421875 -42.00041580200195 121.64313507080078 C 180.99942016601562 18.99922752380371 156.7380828857422 84.7210464477539 227.57376098632812 78.702880859375 C 237.9575958251953 70.05675506591797 227.626220703125 91.57077026367188 225.8760223388672 78.55052947998047"/>
    <path stroke-width="0" fill="rgb(121, 126, 132)" opacity="0.93986756" stroke="rgb(109, 130, 136)" stroke-opacity="1.0" stroke-linecap="round" stroke-linejoin="round" d="M 198.37371826171875 91.5449447631836 C 201.11880493164062 83.6510009765625 152.9525146484375 84.2945785522461 166.0886688232422 97.14175415039062 C 180.05357360839844 128.11065673828125 153.40208435058594 137.36602783203125 171.98622131347656 81.9792251586914 C 152.09214782714844 91.2652359008789 161.57913208007812 76.55054473876953 157.99526977539062 75.93656921386719 C 187.42922973632812 97.67896270751953 184.9609375 120.03451538085938 198.37371826171875 91.5449447631836"/>
    <path stroke-width="0" fill="rgb(133, 121, 138)" opacity="0.62334526" stroke="rgb(70, 32, 100)" stroke-opacity="1.0" stroke-linecap="round" stroke-linejoin="round" d="M 287.6519775390625 122.14057922363281 C 296.7396240234375 110.39009094238281 287.0981750488281 122.42724609375 299.1777038574219 131.95191955566406 C 281.4723205566406 119.02545928955078 314.616455078125 98.65030670166016 309.9404602050781 136.89768981933594 C 310.634765625 126.65595245361328 315.3549499511719 109.63468170166016 336.5765380859375 104.45355987548828 C 324.0965576171875 107.97767639160156 327.45111083984375 104.61541748046875 287.6519775390625 122.14057922363281"/>
    <path stroke-width="0" fill="rgb(214, 151, 75)" opacity="0.6129073" stroke="rgb(47, 230, 138)" stroke-opacity="1.0" stroke-linecap="round" stroke-linejoin="round" d="M 278.4820861816406 320.71160888671875 C 281.6283874511719 312.2402038574219 275.0714111328125 278.604736328125 288.59613037109375 319.8099060058594 C 310.31756591796875 320.54827880859375 282.2375793457031 332.7203369140625 288.6597900390625 296.1224060058594 C 291.3939514160156 248.69398498535156 289.5919494628906 256.258544921875 281.32977294921875 324.4400939941406 C 287.17327880859375 326.0779113769531 289.9935607910156 320.36541748046875 278.4820861816406 320.71160888671875"/>
    <path stroke-width="0" fill="rgb(246, 178, 80)" opacity="0.58477587" stroke="rgb(224, 116, 184)" stroke-opacity="1.0" stroke-linecap="round" stroke-linejoin="round" d="M 306.602294921875 117.80738830566406 C 289.4378967285156 102.55799102783203 296.8063049316406 69.2740249633789 300.2689514160156 121.55985260009766 C 296.80450439453125 115.46246337890625 298.81488037109375 88.14469146728516 297.65826416015625 120.6231460571289 C 311.1531982421875 140.3861083984375 289.52789306640625 118.90178680419922 286.9057312011719 129.2191619873047 C 286.86907958984375 122.26124572753906 284.8824768066406 117.29295349121094 306.602294921875 117.80738830566406"/>
    <path stroke-width="0" fill="rgb(257, 203, 43)" opacity="0.6281955" stroke="rgb(230, 175, 178)" stroke-opacity="1.0" stroke-linecap="round" stroke-linejoin="round" d="M 309.3420715332031 105.38026428222656 C 297.1998291015625 117.52566528320312 287.3248291015625 131.4116668701172 273.2337646484375 142.12437438964844 C 292.4467468261719 119.2413101196289 290.23736572265625 98.98670959472656 290.0882873535156 136.84230041503906 C 315.13726806640625 96.64531707763672 288.13470458984375 103.48926544189453 303.3423156738281 125.90714263916016 C 284.0021057128906 102.14202117919922 309.21246337890625 135.12181091308594 309.3420715332031 105.38026428222656"/>
    <path stroke-width="0" fill="rgb(236, 164, 37)" opacity="0.6621675" stroke="rgb(203, 244, 116)" stroke-opacity="1.0" stroke-linecap="round" stroke-linejoin="round" d="M 283.3194580078125 138.48402404785156 C 296.4507141113281 121.50861358642578 295.9708557128906 106.56446838378906 292.6991271972656 133.32752990722656 C 311.4931640625 95.93678283691406 293.86712646484375 124.4881362915039 303.4867248535156 112.25071716308594 C 308.69012451171875 114.758544921875 280.74041748046875 124.38484954833984 310.2767639160156 104.78379821777344 C 290.989990234375 126.97265625 296.91632080078125 117.96749877929688 283.3194580078125 138.48402404785156"/>
    <path stroke-width="0" fill="rgb(233, 188, 78)" opacity="0.6598784" stroke="rgb(65, 216, 8)" stroke-opacity="1.0" stroke-linecap="round" stroke-linejoin="round" d="M 296.0343322753906 116.36668395996094 C 280.6039123535156 138.47804260253906 283.5191345214844 143.86447143554688 278.7205810546875 128.67286682128906 C 273.9689636230469 140.71759033203125 282.76641845703125 130.1700439453125 278.8158874511719 159.8014373779297 C 278.6617431640625 143.7579345703125 286.6065368652344 137.03256225585938 269.95013427734375 141.665283203125 C 275.945068359375 132.1522674560547 272.98651123046875 153.28204345703125 296.0343322753906 116.36668395996094"/>
    <path stroke-width="0" fill="rgb(86, 70, 31)" opacity="0.70649636" stroke="rgb(90, 90, 4)" stroke-opacity="1.0" stroke-linecap="round" stroke-linejoin="round" d="M 274.60205078125 342.1138916015625 C 281.711181640625 343.3383483886719 274.3821716308594 342.61944580078125 277.9049072265625 340.3033142089844 C 275.197021484375 333.0298156738281 269.89715576171875 309.6985168457031 280.121337890625 352.5111999511719 C 272.80316162109375 373.7682189941406 276.2659912109375 335.6260070800781 282.9649353027344 317.71832275390625 C 276.4631652832031 360.6745910644531 285.9718933105469 341.5828857421875 274.60205078125 342.1138916015625"/>
    <path stroke-width="0" fill="rgb(244, 181, 66)" opacity="0.49632373" stroke="rgb(221, 115, 83)" stroke-opacity="1.0" stroke-linecap="round" stroke-linejoin="round" d="M 296.6532287597656 240.3215789794922 C 309.33123779296875 180.623291015625 319.22528076171875 206.46267700195312 300.1171569824219 236.91221618652344 C 281.4614562988281 182.9268341064453 271.78704833984375 148.74143981933594 264.80340576171875 169.43212890625 C 276.3168640136719 145.90333557128906 281.5183410644531 147.02085876464844 267.4893493652344 171.03684997558594 C 275.3948059082031 166.88026428222656 288.11138916015625 187.39462280273438 296.6532287597656 240.3215789794922"/>
    <path stroke-width="0" fill="rgb(120, 126, 133)" opacity="0.7653741" stroke="rgb(17, 64, 56)" stroke-opacity="1.0" stroke-linecap="round" stroke-linejoin="round" d="M 170.54925537109375 143.6725311279297 C 178.00448608398438 121.42608642578125 167.97811889648438 127.40447998046875 171.5938262939453 170.43507385253906 C 181.16221618652344 166.9092559814453 176.18264770507812 141.67893981933594 159.6118927001953 145.65464782714844 C 177.52911376953125 151.8229217529297 189.8802032470703 123.73245239257812 149.09414672851562 133.3946075439453 C 161.5977783203125 158.69805908203125 178.37196350097656 167.61260986328125 170.54925537109375 143.6725311279297"/>
    <path stroke-width="0" fill="rgb(247, 188, 61)" opacity="0.7571188" stroke="rgb(33, 3, 29)" stroke-opacity="1.0" stroke-linecap="round" stroke-linejoin="round" d="M 227.76705932617188 157.45286560058594 C 195.94703674316406 138.92857360839844 204.04518127441406 163.90199279785156 195.13116455078125 182.02481079101562 C 209.627685546875 133.267822265625 202.309814453125 141.54530334472656 192.3067169189453 149.1929168701172 C 180.99876403808594 126.56803131103516 200.23382568359375 128.9997100830078 191.03793334960938 177.47323608398438 C 178.50357055664062 177.84780883789062 187.9227752685547 177.93075561523438 227.76705932617188 157.45286560058594"/>
    <path stroke-width="0" fill="rgb(26, 32, 38)" opacity="0.7750104" stroke="rgb(162, 125, 252)" stroke-opacity="1.0" stroke-linecap="round" stroke-linejoin="round" d="M 298.31494140625 218.56520080566406 C 294.6429443359375 273.52978515625 278.9757385253906 209.19271850585938 303.2167663574219 242.2058563232422 C 287.3789978027344 219.82144165039062 299.9393615722656 209.88626098632812 296.4460754394531 236.03033447265625 C 291.361083984375 189.51434326171875 287.6616516113281 212.51205444335938 290.9451904296875 204.61488342285156 C 294.3794860839844 222.9191436767578 322.7765197753906 252.3077850341797 298.31494140625 218.56520080566406"/>
    <path stroke-width="0" fill="rgb(161, 154, 138)" opacity="0.74370694" stroke="rgb(199, 73, 61)" stroke-opacity="1.0" stroke-linecap="round" stroke-linejoin="round" d="M 320.186767578125 214.09103393554688 C 303.5714416503906 218.40524291992188 296.02899169921875 222.48825073242188 317.2621765136719 234.40093994140625 C 301.9449768066406 224.3402557373047 306.38763427734375 215.9010467529297 285.9344482421875 238.296142578125 C 305.11968994140625 244.80160522460938 311.99481201171875 235.45887756347656 298.1138916015625 234.73915100097656 C 300.85699462890625 229.8437042236328 323.383544921875 207.77552795410156 320.186767578125 214.09103393554688"/>
    <path stroke-width="0" fill="rgb(111, 130, 165)" opacity="0.7200263" stroke="rgb(141, 73, 180)" stroke-opacity="1.0" stroke-linecap="round" stroke-linejoin="round" d="M 212.1689453125 215.67218017578125 C 205.473388671875 201.77105712890625 207.056884765625 206.5530548095703 207.81793212890625 189.62193298339844 C 203.79856872558594 220.97740173339844 220.46957397460938 217.21954345703125 228.09384155273438 212.6971893310547 C 222.8248291015625 214.14512634277344 222.64480590820312 216.5454559326172 209.58628845214844 214.9500274658203 C 210.5670166015625 215.45809936523438 214.6336212158203 217.79481506347656 212.1689453125 215.67218017578125"/>
    <path stroke-width="0" fill="rgb(139, 211, 210)" opacity="0.6943565" stroke="rgb(91, 211, 235)" stroke-opacity="1.0" stroke-linecap="round" stroke-linejoin="round" d="M 276.7838134765625 203.546630859375 C 282.92767333984375 195.68487548828125 310.06298828125 180.26712036132812 289.82080078125 238.2167205810547 C 306.40252685546875 234.52857971191406 335.84039306640625 213.61639404296875 275.1440124511719 216.85787963867188 C 306.2754821777344 211.4744873046875 313.1973571777344 209.4104461669922 310.68341064453125 216.86740112304688 C 314.90380859375 198.57308959960938 293.69134521484375 200.1481170654297 276.7838134765625 203.546630859375"/>
    <path stroke-width="0" fill="rgb(250, 248, 244)" opacity="0.97184783" stroke="rgb(247, 230, 75)" stroke-opacity="1.0" stroke-linecap="round" stroke-linejoin="round" d="M 200.88365173339844 210.8016357421875 C 208.4788055419922 214.67294311523438 199.88751220703125 197.64967346191406 216.14158630371094 208.53207397460938 C 216.41580200195312 202.6222686767578 223.35671997070312 206.9734649658203 223.57901000976562 228.2440948486328 C 223.4859161376953 235.9702606201172 189.44956970214844 230.99937438964844 214.3804168701172 176.86798095703125 C 220.31019592285156 168.9207000732422 195.65878295898438 183.35922241210938 200.88365173339844 210.8016357421875"/>
    <path stroke-width="0" fill="rgb(237, 253, 260)" opacity="0.83080846" stroke="rgb(63, 27, 242)" stroke-opacity="1.0" stroke-linecap="round" stroke-linejoin="round" d="M 301.4664001464844 223.72877502441406 C 284.8122863769531 225.86105346679688 313.01837158203125 215.9452667236328 317.1332092285156 214.31167602539062 C 306.51666259765625 185.314453125 293.3133850097656 226.7064971923828 263.7922668457031 217.25733947753906 C 245.61546325683594 194.3191680908203 226.74961853027344 198.37277221679688 278.7375183105469 215.26806640625 C 318.2425537109375 231.65846252441406 328.9391174316406 207.25860595703125 301.4664001464844 223.72877502441406"/>
    <path stroke-width="0" fill="rgb(43, 46, 43)" opacity="0.8341194" stroke="rgb(175, 14, 186)" stroke-opacity="1.0" stroke-linecap="round" stroke-linejoin="round" d="M 196.50631713867188 422.52081298828125 C 193.0381317138672 420.1992492675781 177.86492919921875 405.44317626953125 168.33935546875 410.7220764160156 C 195.26361083984375 406.3231201171875 195.2236785888672 395.3901672363281 180.54112243652344 423.4019470214844 C 183.90823364257812 414.91351318359375 191.1129608154297 408.9238586425781 181.46905517578125 411.7528991699219 C 194.54074096679688 419.10516357421875 190.21310424804688 417.024658203125 196.50631713867188 422.52081298828125"/>
    <path stroke-width="0" fill="rgb(-12, -3, 3)" opacity="0.78137594" stroke="rgb(69, 96, 95)" stroke-opacity="1.0" stroke-linecap="round" stroke-linejoin="round" d="M 298.677978515625 191.49705505371094 C 277.6782531738281 226.23069763183594 311.2096862792969 242.9247283935547 319.6163024902344 234.7570343017578 C 300.46795654296875 239.53692626953125 287.35772705078125 246.62940979003906 305.9222717285156 226.71868896484375 C 309.1623840332031 240.15472412109375 307.4908142089844 224.88818359375 273.8143615722656 201.91806030273438 C 317.775146484375 191.16952514648438 304.38238525390625 213.78228759765625 298.677978515625 191.49705505371094"/>
    <path stroke-width="0" fill="rgb(256, 188, 22)" opacity="0.7312368" stroke="rgb(213, 60, 128)" stroke-opacity="1.0" stroke-linecap="round" stroke-linejoin="round" d="M 211.08827209472656 80.61830139160156 C 246.93869018554688 87.61689758300781 233.70176696777344 105.825927734375 232.9490203857422 89.37737274169922 C 206.48431396484375 80.61952209472656 196.04238891601562 99.56924438476562 226.19766235351562 62.98830032348633 C 228.12326049804688 84.35934448242188 248.07656860351562 67.43885040283203 225.2831268310547 75.64768981933594 C 227.89198303222656 64.05555725097656 262.191162109375 79.71199798583984 211.08827209472656 80.61830139160156"/>
    <path stroke-width="0" fill="rgb(92, 97, 82)" opacity="0.6455115" stroke="rgb(178, 246, 253)" stroke-opacity="1.0" stroke-linecap="round" stroke-linejoin="round" d="M 233.03717041015625 56.60871505737305 C 232.7882843017578 48.32376480102539 218.96737670898438 51.38585662841797 223.0159912109375 53.50865936279297 C 234.79287719726562 44.49021530151367 228.33749389648438 64.21380615234375 243.12403869628906 70.63285827636719 C 239.56222534179688 65.49305725097656 233.1544189453125 78.69021606445312 235.157470703125 57.509063720703125 C 231.45242309570312 64.84515380859375 238.1082763671875 61.73444366455078 233.03717041015625 56.60871505737305"/>
    <path stroke-width="0" fill="rgb(229, 160, 72)" opacity="0.686979" stroke="rgb(18, 74, 38)" stroke-opacity="1.0" stroke-linecap="round" stroke-linejoin="round" d="M 279.6750793457031 257.49896240234375 C 268.23699951171875 257.62060546875 258.772216796875 252.2058563232422 265.8544921875 252.189208984375 C 214.18882751464844 254.06861877441406 221.57594299316406 244.04071044921875 187.37864685058594 219.32872009277344 C 230.31292724609375 263.5224304199219 260.98541259765625 249.1077117919922 206.0498046875 253.60696411132812 C 186.5037384033203 258.8225402832031 249.96697998046875 251.80653381347656 279.6750793457031 257.49896240234375"/>
    <path stroke-width="0" fill="rgb(137, 93, 76)" opacity="0.70618665" stroke="rgb(33, 154, 97)" stroke-opacity="1.0" stroke-linecap="round" stroke-linejoin="round" d="M 224.08535766601562 52.95174026489258 C 198.29859924316406 66.57013702392578 215.94798278808594 81.52050018310547 210.6907196044922 72.67361450195312 C 209.90269470214844 75.6104965209961 208.58316040039062 67.36611938476562 213.3824005126953 81.8263931274414 C 214.54779052734375 100.71707916259766 236.2346954345703 65.82865905761719 215.14793395996094 87.32600402832031 C 207.5083465576172 63.65174865722656 207.6942901611328 63.59150314331055 224.08535766601562 52.95174026489258"/>
    <path stroke-width="0" fill="rgb(131, 124, 133)" opacity="1.012006" stroke="rgb(246, 139, 70)" stroke-opacity="1.0" stroke-linecap="round" stroke-linejoin="round" d="M 303.4079895019531 242.43588256835938 C 292.0772399902344 244.53456115722656 275.57208251953125 229.7700958251953 334.9192199707031 225.8741912841797 C 315.3512878417969 236.3420867919922 294.92706298828125 225.94976806640625 264.0332336425781 227.4474334716797 C 302.9844055175781 227.50491333007812 285.13360595703125 242.50196838378906 303.35833740234375 194.13983154296875 C 274.6451721191406 163.05426025390625 335.01861572265625 198.76480102539062 303.4079895019531 242.43588256835938"/>
    <path stroke-width="0" fill="rgb(162, 125, 100)" opacity="0.4320111" stroke="rgb(228, 103, 140)" stroke-opacity="1.0" stroke-linecap="round" stroke-linejoin="round" d="M 219.77667236328125 98.78172302246094 C 222.75033569335938 91.25558471679688 217.0153045654297 90.17969512939453 222.4054412841797 96.82080841064453 C 206.217529296875 58.811519622802734 202.33880615234375 60.00645446777344 204.81520080566406 62.66109085083008 C 209.94956970214844 57.46311569213867 207.7311248779297 68.80303192138672 200.17173767089844 51.801143646240234 C 214.14205932617188 76.12106323242188 225.072998046875 98.56795501708984 219.77667236328125 98.78172302246094"/>
    <path stroke-width="0" fill="rgb(121, 129, 131)" opacity="0.9953662" stroke="rgb(116, 102, 63)" stroke-opacity="1.0" stroke-linecap="round" stroke-linejoin="round" d="M 324.5872802734375 196.4347381591797 C 283.757568359375 224.56680297851562 287.1180419921875 228.811767578125 316.8875732421875 220.85671997070312 C 300.79266357421875 231.178955078125 278.23846435546875 211.63998413085938 279.1995849609375 236.80224609375 C 305.0220031738281 275.679931640625 308.0157165527344 248.01626586914062 293.51910400390625 235.46539306640625 C 306.4677734375 249.69906616210938 329.07269287109375 274.1089782714844 324.5872802734375 196.4347381591797"/>
    <path stroke-width="0" fill="rgb(130, 88, 13)" opacity="0.70256484" stroke="rgb(79, 95, 133)" stroke-opacity="1.0" stroke-linecap="round" stroke-linejoin="round" d="M 231.21487426757812 92.26344299316406 C 257.8330993652344 100.70730590820312 267.82281494140625 103.39854431152344 247.5550537109375 97.34148406982422 C 241.25311279296875 90.12061309814453 246.97337341308594 108.99693298339844 224.11685180664062 77.48639678955078 C 255.88589477539062 94.91864776611328 233.94984436035156 104.22808074951172 242.08811950683594 89.8812484741211 C 230.77967834472656 75.9232177734375 239.6619110107422 94.65850830078125 231.21487426757812 92.26344299316406"/>
    <path stroke-width="0" fill="rgb(122, 127, 127)" opacity="0.8840735" stroke="rgb(85, 235, 219)" stroke-opacity="1.0" stroke-linecap="round" stroke-linejoin="round" d="M 313.9228515625 241.9881134033203 C 311.1416320800781 242.63722229003906 302.32269287109375 239.6476593017578 365.9616394042969 240.51785278320312 C 350.3484191894531 244.2891082763672 342.09527587890625 234.12850952148438 339.3841247558594 227.39596557617188 C 359.73602294921875 278.81072998046875 313.41162109375 271.0143127441406 333.5468444824219 232.59788513183594 C 309.061767578125 229.98074340820312 368.1365051269531 261.75048828125 313.9228515625 241.9881134033203"/>
    <path stroke-width="0" fill="rgb(264, 196, 36)" opacity="0.8375774" stroke="rgb(64, 113, 26)" stroke-opacity="1.0" stroke-linecap="round" stroke-linejoin="round" d="M 303.56707763671875 104.90060424804688 C 291.7172546386719 87.9137954711914 322.5158996582031 124.55052947998047 313.4330749511719 94.98799133300781 C 313.2962341308594 118.3941650390625 289.937255859375 144.5634765625 285.3359069824219 113.7274169921875 C 314.6224365234375 120.61673736572266 312.81390380859375 88.77418518066406 294.32568359375 115.12449645996094 C 317.5115966796875 112.030517578125 303.7997741699219 98.63607788085938 303.56707763671875 104.90060424804688"/>
    <path stroke-width="0" fill="rgb(82, 218, 74)" opacity="0.0674915" stroke="rgb(0, 0, 0)" stroke-opacity="0.0" stroke-linecap="round" stroke-linejoin="round" d="M 21.92925453186035 15.397431373596191 C 21.972089767456055 21.102243423461914 20.746620178222656 23.071184158325195 14.33946704864502 23.073923110961914 C 10.592327117919922 23.779560089111328 8.55489444732666 20.76070213317871 7.099023818969727 15.551012992858887 C 8.263925552368164 12.590348243713379 12.175212860107422 10.678985595703125 15.852705955505371 10.163084030151367 C 18.815837860107422 10.136689186096191 22.184919357299805 12.427360534667969 21.92925453186035 15.397431373596191"/>
    <path stroke-width="0" fill="rgb(36, 47, 192)" opacity="0.5855685" stroke="rgb(0, 0, 0)" stroke-opacity="0.0" stroke-linecap="round" stroke-linejoin="round" d="M 133.27247619628906 17.990415573120117 C 132.27735900878906 23.13703155517578 130.02587890625 26.38866424560547 125.44992065429688 28.86629867553711 C 122.58567810058594 27.068876266479492 119.8351058959961 24.43391990661621 120.0063247680664 20.36933708190918 C 120.36321258544922 17.537551879882812 124.11907196044922 14.665305137634277 126.98053741455078 11.918519973754883 C 130.60809326171875 13.769775390625 133.78839111328125 16.057167053222656 133.27247619628906 17.990415573120117"/>
    <path stroke-width="0" fill="rgb(126, 123, 140)" opacity="0.27612373" stroke="rgb(0, 0, 0)" stroke-opacity="0.0" stroke-linecap="round" stroke-linejoin="round" d="M 451.3974609375 15.373929977416992 C 452.1106872558594 19.582975387573242 448.4526672363281 21.68780517578125 443.96868896484375 21.605318069458008 C 439.7580871582031 21.62097930908203 436.62957763671875 19.291221618652344 437.83538818359375 16.16444206237793 C 437.44085693359375 10.655305862426758 439.4724426269531 7.127326011657715 442.9078063964844 7.955332279205322 C 447.97662353515625 8.535016059875488 451.3288269042969 10.7559814453125 451.3974609375 15.373929977416992"/>
    <path stroke-width="0" fill="rgb(86, 124, 34)" opacity="0.5310615" stroke="rgb(0, 0, 0)" stroke-opacity="0.0" stroke-linecap="round" stroke-linejoin="round" d="M 22.332622528076172 5.2584710121154785 C 22.151439666748047 8.076194763183594 19.724891662597656 11.710247039794922 16.929075241088867 14.76120662689209 C 16.199514389038086 13.427756309509277 13.462895393371582 10.201639175415039 12.098255157470703 7.195671081542969 C 11.690184593200684 1.9153852462768555 12.75263500213623 -1.640737771987915 19.071321487426758 -2.793126344680786 C 23.27707862854004 -1.0228188037872314 22.996509552001953 3.0914065837860107 22.332622528076172 5.2584710121154785"/>
    <path stroke-width="0" fill="rgb(159, 198, 137)" opacity="0.89927924" stroke="rgb(0, 0, 0)" stroke-opacity="0.0" stroke-linecap="round" stroke-linejoin="round" d="M 19.477033615112305 5.153629779815674 C 19.357595443725586 11.948533058166504 17.05933952331543 14.748069763183594 13.61316204071045 14.756217002868652 C 8.581258773803711 13.76252555847168 5.499612331390381 11.56375503540039 5.4209160804748535 6.555863380432129 C 4.607128143310547 2.0982768535614014 7.294935703277588 0.2601892352104187 10.587259292602539 1.1084983348846436 C 16.193689346313477 2.3222498893737793 21.295774459838867 2.5463337898254395 19.477033615112305 5.153629779815674"/>
    <path stroke-width="0" fill="rgb(151, 72, 69)" opacity="0.7433124" stroke="rgb(0, 0, 0)" stroke-opacity="0.0" stroke-linecap="round" stroke-linejoin="round" d="M 368.2110290527344 10.988988876342773 C 367.3585510253906 15.357175827026367 364.4631652832031 18.50602912902832 361.96551513671875 20.864585876464844 C 357.38104248046875 18.96276092529297 354.09552001953125 17.433353424072266 354.48712158203125 12.32933235168457 C 354.5401916503906 8.879046440124512 358.2344055175781 6.438620567321777 361.9968566894531 6.631664752960205 C 365.43017578125 6.455165863037109 369.2037353515625 8.652395248413086 368.2110290527344 10.988988876342773"/>
    <path stroke-width="0" fill="rgb(214, 97, 217)" opacity="0.6133158" stroke="rgb(0, 0, 0)" stroke-opacity="0.0" stroke-linecap="round" stroke-linejoin="round" d="M 496.7846984863281 500.907958984375 C 495.3202819824219 504.8608703613281 492.493896484375 507.77166748046875 489.5413513183594 508.1163330078125 C 485.484130859375 507.63934326171875 482.65887451171875 504.930908203125 482.05401611328125 500.721923828125 C 481.671142578125 497.2010803222656 484.916015625 494.6727600097656 489.21502685546875 493.43560791015625 C 493.0597229003906 494.54266357421875 496.12969970703125 497.2254943847656 496.7846984863281 500.907958984375"/>
    <path stroke-width="0" fill="rgb(127, 190, 187)" opacity="0.7519594" stroke="rgb(0, 0, 0)" stroke-opacity="0.0" stroke-linecap="round" stroke-linejoin="round" d="M 24.671085357666016 393.9464416503906 C 24.26673126220703 398.363525390625 22.743616104125977 401.7185974121094 18.500537872314453 401.5244140625 C 13.883038520812988 401.4355163574219 10.984745025634766 398.85504150390625 11.639041900634766 394.88116455078125 C 12.268830299377441 391.3616027832031 15.474930763244629 388.60931396484375 19.052555084228516 387.0179748535156 C 21.79389190673828 387.8703308105469 24.69944190979004 390.95562744140625 24.671085357666016 393.9464416503906"/>
    <path stroke-width="0" fill="rgb(123, 166, 12)" opacity="0.074755296" stroke="rgb(0, 0, 0)" stroke-opacity="0.0" stroke-linecap="round" stroke-linejoin="round" d="M 417.46533203125 281.6866455078125 C 417.27392578125 285.51312255859375 414.4935607910156 288.38470458984375 410.1719970703125 289.1798095703125 C 405.6090087890625 288.1291198730469 402.5910949707031 285.4696044921875 402.71466064453125 281.62176513671875 C 403.674560546875 277.5536193847656 406.55133056640625 274.65185546875 410.5984191894531 273.26361083984375 C 414.0736389160156 273.89251708984375 416.4142761230469 277.1612854003906 417.46533203125 281.6866455078125"/>
    <path stroke-width="0" fill="rgb(82, 19, 81)" opacity="0.29277754" stroke="rgb(0, 0, 0)" stroke-opacity="0.0" stroke-linecap="round" stroke-linejoin="round" d="M 512.056884765625 71.34425354003906 C 511.49029541015625 76.91265869140625 508.502685546875 79.27239990234375 503.6075439453125 80.1988754272461 C 499.5828857421875 78.36909484863281 496.7386474609375 75.16488647460938 495.8112487792969 71.36811828613281 C 496.0489807128906 66.93610382080078 498.7392883300781 64.12004852294922 502.5045166015625 63.26064682006836 C 506.4053649902344 65.69137573242188 510.83465576171875 67.79328155517578 512.056884765625 71.34425354003906"/>
    <path stroke-width="0" fill="rgb(2, 204, 162)" opacity="0.11391481" stroke="rgb(0, 0, 0)" stroke-opacity="0.0" stroke-linecap="round" stroke-linejoin="round" d="M 92.745849609375 43.38645935058594 C 92.77799987792969 47.37489318847656 89.97224426269531 50.0236930847168 85.55718231201172 49.8033561706543 C 81.15254974365234 50.167274475097656 78.411376953125 47.57686996459961 78.85381317138672 43.247676849365234 C 78.89604949951172 39.22523498535156 82.00575256347656 36.918453216552734 85.58243560791016 36.03278350830078 C 89.33235168457031 36.462528228759766 92.20530700683594 39.40876388549805 92.745849609375 43.38645935058594"/>
    <path stroke-width="0" fill="rgb(75, 111, 202)" opacity="0.67750835" stroke="rgb(0, 0, 0)" stroke-opacity="0.0" stroke-linecap="round" stroke-linejoin="round" d="M 359.8089294433594 631.3352661132812 C 358.73712158203125 635.3352661132812 355.8089294433594 638.2634887695312 351.8089294433594 639.3352661132812 C 347.8089294433594 638.2634887695312 344.8807373046875 635.3352661132812 343.8089294433594 631.3352661132812 C 344.8807373046875 627.3352661132812 347.8089294433594 624.4070434570312 351.8089294433594 623.3352661132812 C 355.8089294433594 624.4070434570312 358.73712158203125 627.3352661132812 359.8089294433594 631.3352661132812"/>
    <path stroke-width="0" fill="rgb(224, 197, 177)" opacity="0.045755483" stroke="rgb(0, 0, 0)" stroke-opacity="0.0" stroke-linecap="round" stroke-linejoin="round" d="M 3.131904125213623 0.6238243579864502 C 2.247244119644165 4.916214466094971 0.013534382916986942 8.489120483398438 -3.490004301071167 9.777247428894043 C -7.346456050872803 8.863961219787598 -10.274659156799316 5.935758113861084 -11.346455574035645 1.9357579946517944 C -10.274659156799316 -2.064241886138916 -7.346456050872803 -4.99244499206543 -3.3465089797973633 -6.064229965209961 C 0.6517383456230164 -4.99204158782959 3.558065414428711 -2.058960437774658 3.131904125213623 0.6238243579864502"/>
    <path stroke-width="0" fill="rgb(175, 221, 237)" opacity="0.7390526" stroke="rgb(0, 0, 0)" stroke-opacity="0.0" stroke-linecap="round" stroke-linejoin="round" d="M 92.90495300292969 420.9253845214844 C 92.57854461669922 424.4016418457031 88.78804779052734 426.3854675292969 84.42044830322266 427.9364013671875 C 81.23100280761719 428.6370849609375 78.71478271484375 425.2420959472656 77.4978256225586 421.2599792480469 C 79.27581024169922 417.0411071777344 81.67080688476562 413.7825012207031 85.77593231201172 413.0993957519531 C 89.99273681640625 413.89886474609375 92.71461486816406 416.5984191894531 92.90495300292969 420.9253845214844"/>
    <path stroke-width="0" fill="rgb(3, 87, 209)" opacity="0.8661347" stroke="rgb(0, 0, 0)" stroke-opacity="0.0" stroke-linecap="round" stroke-linejoin="round" d="M -52.372982025146484 58.426570892333984 C -53.44477844238281 62.426570892333984 -56.372982025146484 65.35477447509766 -60.372982025146484 66.42656707763672 C -64.37298583984375 65.35477447509766 -67.30118560791016 62.426570892333984 -68.37298583984375 58.426570892333984 C -67.30118560791016 54.426570892333984 -64.37298583984375 51.49836730957031 -60.372982025146484 50.426570892333984 C -56.372982025146484 51.49836730957031 -53.44477844238281 54.426570892333984 -52.372982025146484 58.426570892333984"/>
    <path stroke-width="0" fill="rgb(222, 86, 134)" opacity="0.94160795" stroke="rgb(0, 0, 0)" stroke-opacity="0.0" stroke-linecap="round" stroke-linejoin="round" d="M 5.811590671539307 -2.753601551055908 C 4.51254940032959 1.1328105926513672 1.5943235158920288 4.143572807312012 -2.1072187423706055 5.767053127288818 C -4.489278793334961 6.003445148468018 -7.417481899261475 3.075241804122925 -8.489278793334961 -0.9247580766677856 C -7.417481899261475 -4.924757957458496 -4.489278793334961 -7.852961540222168 -0.4892788827419281 -8.924757957458496 C 3.510721206665039 -7.852961540222168 6.438924312591553 -4.924757957458496 5.811590671539307 -2.753601551055908"/>
    <path stroke-width="0" fill="rgb(184, 125, 62)" opacity="0.22908458" stroke="rgb(0, 0, 0)" stroke-opacity="0.0" stroke-linecap="round" stroke-linejoin="round" d="M 347.53399658203125 205.3121795654297 C 348.2858581542969 210.1962890625 345.8530578613281 212.74609375 339.7691345214844 213.37147521972656 C 335.2509460449219 213.87417602539062 334.3555603027344 210.72055053710938 334.5162658691406 204.82546997070312 C 333.8918762207031 200.61190795898438 336.2715759277344 198.11366271972656 341.21258544921875 198.58335876464844 C 345.3906555175781 198.04408264160156 348.1868896484375 200.74803161621094 347.53399658203125 205.3121795654297"/>
    <path stroke-width="0" fill="rgb(240, 178, 197)" opacity="0.16996491" stroke="rgb(0, 0, 0)" stroke-opacity="0.0" stroke-linecap="round" stroke-linejoin="round" d="M 280.4308166503906 359.9740295410156 C 279.38531494140625 363.8022766113281 276.22344970703125 366.70721435546875 271.8988037109375 368.5157775878906 C 267.9993591308594 367.462646484375 264.7454528808594 364.71966552734375 264.8509521484375 360.9572448730469 C 266.34368896484375 356.7264099121094 269.0980224609375 353.6235656738281 271.998046875 352.4102783203125 C 275.423828125 354.1398010253906 279.13616943359375 356.8913879394531 280.4308166503906 359.9740295410156"/>
    <path stroke-width="0" fill="rgb(78, 79, 90)" opacity="0.8004884" stroke="rgb(0, 0, 0)" stroke-opacity="0.0" stroke-linecap="round" stroke-linejoin="round" d="M 219.73439025878906 352.66900634765625 C 219.81764221191406 356.694091796875 216.79847717285156 358.8268127441406 213.18411254882812 358.0688781738281 C 208.41697692871094 357.4811706542969 205.17344665527344 355.1228942871094 202.71957397460938 350.8277587890625 C 203.83961486816406 346.3918762207031 207.16368103027344 344.3121643066406 211.69964599609375 343.89654541015625 C 214.71627807617188 345.69586181640625 217.77621459960938 348.47845458984375 219.73439025878906 352.66900634765625"/>
    <path stroke-width="0" fill="rgb(100, 186, 172)" opacity="0.6656604" stroke="rgb(0, 0, 0)" stroke-opacity="0.0" stroke-linecap="round" stroke-linejoin="round" d="M 46.970706939697266 38.99861526489258 C 44.32268142700195 42.98495101928711 41.58104705810547 46.171810150146484 38.068355560302734 47.629852294921875 C 34.96187210083008 46.60236740112305 32.023807525634766 43.597537994384766 30.36578369140625 39.48325729370117 C 31.155405044555664 35.832054138183594 34.51345443725586 33.41330337524414 39.78833770751953 32.3234977722168 C 43.233070373535156 32.21601867675781 46.074554443359375 35.44397735595703 46.970706939697266 38.99861526489258"/>
    <path stroke-width="0" fill="rgb(138, 188, 244)" opacity="0.27798995" stroke="rgb(0, 0, 0)" stroke-opacity="0.0" stroke-linecap="round" stroke-linejoin="round" d="M 23.532541275024414 -179.24566650390625 C 22.460744857788086 -175.24566650390625 19.532541275024414 -172.3174591064453 15.532541275024414 -171.24566650390625 C 11.532541275024414 -172.3174591064453 8.604338645935059 -175.24566650390625 7.532541751861572 -179.24566650390625 C 8.604338645935059 -183.24566650390625 11.532541275024414 -186.17385864257812 15.532541275024414 -187.24566650390625 C 19.532541275024414 -186.17385864257812 22.460744857788086 -183.24566650390625 23.532541275024414 -179.24566650390625"/>
    <path stroke-width="0" fill="rgb(197, 240, 9)" opacity="0.1474001" stroke="rgb(0, 0, 0)" stroke-opacity="0.0" stroke-linecap="round" stroke-linejoin="round" d="M -2.5430400371551514 3.5444393157958984 C -3.6148369312286377 7.544439315795898 -6.5430402755737305 10.47264289855957 -10.54304027557373 11.544439315795898 C -14.54304027557373 10.47264289855957 -17.471242904663086 7.544439315795898 -18.543039321899414 3.5444393157958984 C -17.471242904663086 -0.4555607736110687 -14.54304027557373 -3.3837640285491943 -10.54304027557373 -4.455560684204102 C -6.5430402755737305 -3.3837640285491943 -3.6148369312286377 -0.4555607736110687 -2.5430400371551514 3.5444393157958984"/>
    <path stroke-width="0" fill="rgb(56, 69, 178)" opacity="0.030192774" stroke="rgb(0, 0, 0)" stroke-opacity="0.0" stroke-linecap="round" stroke-linejoin="round" d="M -10.243011474609375 -4.423867702484131 C -11.314807891845703 -0.4238676428794861 -14.243011474609375 2.504335641860962 -18.243011474609375 3.576132297515869 C -22.243011474609375 2.504335641860962 -25.171215057373047 -0.4238676428794861 -26.243011474609375 -4.423867702484131 C -25.171215057373047 -8.423867225646973 -22.243011474609375 -11.352070808410645 -18.243011474609375 -12.423867225646973 C -14.243011474609375 -11.352070808410645 -11.314807891845703 -8.423867225646973 -10.243011474609375 -4.423867702484131"/>
    <path stroke-width="0" fill="rgb(133, 158, 92)" opacity="0.0752912" stroke="rgb(0, 0, 0)" stroke-opacity="0.0" stroke-linecap="round" stroke-linejoin="round" d="M 68.58930206298828 49.77122497558594 C 66.97803497314453 53.6160888671875 64.10685729980469 56.580814361572266 60.20224380493164 58.09017562866211 C 56.19801712036133 56.81138229370117 53.204254150390625 53.8282470703125 52.071556091308594 49.69437789916992 C 52.89057540893555 45.400508880615234 56.12371826171875 42.82041549682617 60.08881759643555 42.25625228881836 C 63.896724700927734 43.28664779663086 67.01102447509766 46.14657211303711 68.58930206298828 49.77122497558594"/>
    <path stroke-width="0" fill="rgb(85, 238, 241)" opacity="0.5925134" stroke="rgb(0, 0, 0)" stroke-opacity="0.0" stroke-linecap="round" stroke-linejoin="round" d="M 92.9948959350586 285.49468994140625 C 93.4607925415039 289.13330078125 90.17683410644531 291.1670227050781 86.16899108886719 291.15777587890625 C 81.79676055908203 291.250244140625 78.3481216430664 289.4234313964844 78.21046447753906 285.24261474609375 C 79.45738983154297 281.24652099609375 82.71117401123047 278.2790222167969 86.28853607177734 278.00799560546875 C 89.98700714111328 277.83953857421875 92.2202377319336 281.2851257324219 92.9948959350586 285.49468994140625"/>
    <path stroke-width="0" fill="rgb(194, 84, 101)" opacity="0.18801224" stroke="rgb(0, 0, 0)" stroke-opacity="0.0" stroke-linecap="round" stroke-linejoin="round" d="M 512.3675537109375 454.15106201171875 C 511.2047119140625 458.2680358886719 508.7242126464844 461.7030029296875 504.595458984375 463.62188720703125 C 500.2167663574219 461.43408203125 497.2895812988281 458.58294677734375 496.0978698730469 454.2977600097656 C 497.6414794921875 450.967529296875 501.6153564453125 448.563720703125 505.16949462890625 447.4354248046875 C 508.1512756347656 447.96295166015625 511.3967590332031 450.46661376953125 512.3675537109375 454.15106201171875"/>
    <path stroke-width="0" fill="rgb(30, 13, 220)" opacity="0.50312775" stroke="rgb(0, 0, 0)" stroke-opacity="0.0" stroke-linecap="round" stroke-linejoin="round" d="M 516.0831298828125 468.0046691894531 C 515.1047973632812 472.0697326660156 511.977783203125 474.4712219238281 507.5807189941406 474.22540283203125 C 503.91064453125 473.044921875 500.7269287109375 470.3511047363281 499.1105651855469 466.82000732421875 C 499.80706787109375 462.3646545410156 502.25762939453125 459.0141906738281 506.7938537597656 458.6199951171875 C 511.8812561035156 459.3544921875 514.7086181640625 462.22821044921875 516.0831298828125 468.0046691894531"/>
    <path stroke-width="0" fill="rgb(35, 67, 7)" opacity="0.20651938" stroke="rgb(0, 0, 0)" stroke-opacity="0.0" stroke-linecap="round" stroke-linejoin="round" d="M 353.4945373535156 329.1080017089844 C 351.7773742675781 333.93304443359375 349.13262939453125 336.9685363769531 344.6903076171875 338.522705078125 C 340.80877685546875 337.00128173828125 338.0040588378906 333.84625244140625 337.43243408203125 330.00872802734375 C 338.9634704589844 326.77001953125 341.577392578125 323.2391357421875 344.72540283203125 320.8411865234375 C 349.43560791015625 322.70489501953125 353.0740661621094 324.90252685546875 353.4945373535156 329.1080017089844"/>
    <path stroke-width="0" fill="rgb(18, 31, 32)" opacity="0.27913454" stroke="rgb(0, 0, 0)" stroke-opacity="0.0" stroke-linecap="round" stroke-linejoin="round" d="M 106.85367584228516 350.2052307128906 C 104.6302261352539 353.8700256347656 101.95189666748047 356.9406433105469 98.53202056884766 358.1690979003906 C 95.20668029785156 357.4853210449219 92.11579895019531 354.8346252441406 92.35775756835938 350.9996643066406 C 91.28466796875 345.7300720214844 93.69100189208984 342.88232421875 97.76216125488281 343.7816467285156 C 102.8238525390625 344.4814758300781 106.28719329833984 346.86651611328125 106.85367584228516 350.2052307128906"/>
    <path stroke-width="0" fill="rgb(247, 140, 234)" opacity="0.3681479" stroke="rgb(0, 0, 0)" stroke-opacity="0.0" stroke-linecap="round" stroke-linejoin="round" d="M 138.21994018554688 384.0668640136719 C 137.43516540527344 388.45355224609375 134.91397094726562 391.46661376953125 130.54954528808594 392.1568603515625 C 126.18685150146484 391.81097412109375 123.8121566772461 388.5582580566406 123.6890640258789 383.8464660644531 C 123.47470092773438 380.30059814453125 126.80321502685547 377.8409729003906 131.1521453857422 376.66998291015625 C 134.92376708984375 376.76019287109375 137.49037170410156 380.19915771484375 138.21994018554688 384.0668640136719"/>
    <path stroke-width="0" fill="rgb(135, 172, 111)" opacity="0.89805615" stroke="rgb(0, 0, 0)" stroke-opacity="0.0" stroke-linecap="round" stroke-linejoin="round" d="M 216.29525756835938 152.86203002929688 C 217.35940551757812 156.68524169921875 213.96429443359375 158.78375244140625 209.5002899169922 159.56187438964844 C 205.36936950683594 158.18275451660156 202.0889434814453 155.7091064453125 202.65420532226562 151.71875 C 202.21730041503906 147.00782775878906 204.8063507080078 144.4285430908203 209.0779571533203 144.03086853027344 C 213.7698516845703 144.52627563476562 216.2971954345703 147.15362548828125 216.29525756835938 152.86203002929688"/>
    <path stroke-width="0" fill="rgb(40, 103, 173)" opacity="0.26495144" stroke="rgb(0, 0, 0)" stroke-opacity="0.0" stroke-linecap="round" stroke-linejoin="round" d="M 41.96501159667969 69.8571548461914 C 40.462608337402344 73.95821380615234 38.65447998046875 77.98590850830078 35.56850051879883 78.23991394042969 C 30.801334381103516 77.39807891845703 27.903696060180664 74.91783142089844 27.576147079467773 70.27925109863281 C 27.63469886779785 66.42932891845703 30.727846145629883 63.92022705078125 34.776092529296875 63.073638916015625 C 38.93217849731445 63.83677291870117 41.61542510986328 66.93860626220703 41.96501159667969 69.8571548461914"/>
    <path stroke-width="0" fill="rgb(157, 194, 205)" opacity="0.45113012" stroke="rgb(0, 0, 0)" stroke-opacity="0.0" stroke-linecap="round" stroke-linejoin="round" d="M 471.59783935546875 363.6990966796875 C 471.5987243652344 366.9220886230469 468.72833251953125 369.692138671875 464.92291259765625 370.3533630371094 C 460.5867004394531 370.1755676269531 457.46630859375 367.5318603515625 456.99591064453125 363.4930419921875 C 458.6079406738281 359.8528137207031 461.8145751953125 357.1822204589844 465.7946472167969 355.3242492675781 C 469.1420593261719 355.5235595703125 471.30322265625 358.82464599609375 471.59783935546875 363.6990966796875"/>
    <path stroke-width="0" fill="rgb(154, 134, 137)" opacity="0.9376631" stroke="rgb(0, 0, 0)" stroke-opacity="0.0" stroke-linecap="round" stroke-linejoin="round" d="M 10.914481163024902 -22.93110466003418 C 9.842684745788574 -18.93110466003418 6.914481163024902 -16.00290298461914 2.9144811630249023 -14.931105613708496 C -1.0855189561843872 -16.00290298461914 -4.013721942901611 -18.93110466003418 -5.085518836975098 -22.93110466003418 C -4.013721942901611 -26.93110466003418 -1.0855189561843872 -29.85930824279785 2.9144811630249023 -30.93110466003418 C 6.914481163024902 -29.85930824279785 9.842684745788574 -26.93110466003418 10.914481163024902 -22.93110466003418"/>
    <path stroke-width="0" fill="rgb(114, 200, 196)" opacity="0.66316307" stroke="rgb(0, 0, 0)" stroke-opacity="0.0" stroke-linecap="round" stroke-linejoin="round" d="M 512.6766357421875 462.4425354003906 C 510.7600402832031 465.99420166015625 507.3624267578125 468.94976806640625 503.7012939453125 469.9302673339844 C 500.45758056640625 467.8427734375 496.92242431640625 465.1962585449219 495.0135498046875 462.262939453125 C 497.080078125 458.2657470703125 499.8158264160156 455.2535095214844 503.6011657714844 454.3839416503906 C 507.7305908203125 454.8686218261719 510.578369140625 457.72552490234375 512.6766357421875 462.4425354003906"/>
    <path stroke-width="0" fill="rgb(208, 10, 157)" opacity="0.41593936" stroke="rgb(0, 0, 0)" stroke-opacity="0.0" stroke-linecap="round" stroke-linejoin="round" d="M 107.07120513916016 343.72442626953125 C 106.72727966308594 347.5112609863281 104.4764175415039 350.8206481933594 101.88113403320312 350.36175537109375 C 97.40470123291016 349.50048828125 94.02291870117188 347.4595031738281 93.64876556396484 344.7403869628906 C 94.60464477539062 340.6593933105469 97.44974517822266 337.93023681640625 100.56156158447266 337.0505065917969 C 103.52257537841797 338.0433044433594 106.34185028076172 340.8611145019531 107.07120513916016 343.72442626953125"/>
    <path stroke-width="0" fill="rgb(131, 35, 181)" opacity="0.83047634" stroke="rgb(0, 0, 0)" stroke-opacity="0.0" stroke-linecap="round" stroke-linejoin="round" d="M 76.6390151977539 -25.004243850708008 C 75.56721496582031 -21.004243850708008 72.6390151977539 -18.076040267944336 68.6390151977539 -17.004243850708008 C 64.6390151977539 -18.076040267944336 61.71080780029297 -21.004243850708008 60.63901138305664 -25.004243850708008 C 61.71080780029297 -29.004243850708008 64.6390151977539 -31.932445526123047 68.6390151977539 -33.004241943359375 C 72.6390151977539 -31.932445526123047 75.56721496582031 -29.004243850708008 76.6390151977539 -25.004243850708008"/>
  </g>
</svg>
