<?xml version="1.0" ?>
<svg xmlns="http://www.w3.org/2000/svg" version="1.1" width="512" height="512">
  <defs/>
  <g>
    <path stroke-width="0" fill="rgb(128, 130, 127)" opacity="0.99683815" stroke="rgb(139, 182, 153)" stroke-opacity="1.0" stroke-linecap="round" stroke-linejoin="round" d="M 223.2597198486328 1.5413488149642944 C 160.55764770507812 3.464625358581543 192.65762329101562 49.258216857910156 66.81065368652344 129.34405517578125 C 58.17729568481445 122.41925048828125 55.61058044433594 110.84263610839844 54.83751678466797 87.49947357177734 C 58.889408111572266 -68.72174835205078 69.76350402832031 -69.6482925415039 85.67578125 -59.82435607910156 C 196.88177490234375 -32.08750534057617 205.1061248779297 -25.661724090576172 223.2597198486328 1.5413488149642944"/>
    <path stroke-width="0" fill="rgb(127, 129, 126)" opacity="1.0063584" stroke="rgb(108, 164, 111)" stroke-opacity="1.0" stroke-linecap="round" stroke-linejoin="round" d="M 144.21426391601562 83.32123565673828 C 155.37586975097656 158.3675994873047 160.5577850341797 170.88685607910156 98.09605407714844 173.5530242919922 C -61.18186950683594 167.21311950683594 -47.90022277832031 136.95091247558594 -41.084381103515625 85.3927993774414 C -38.50617218017578 -35.472816467285156 -31.483736038208008 -40.57529067993164 49.812747955322266 -37.571739196777344 C 115.83808898925781 -40.773006439208984 134.3524169921875 -48.14259719848633 144.21426391601562 83.32123565673828"/>
    <path stroke-width="0" fill="rgb(119, 129, 133)" opacity="0.99136335" stroke="rgb(245, 97, 201)" stroke-opacity="1.0" stroke-linecap="round" stroke-linejoin="round" d="M 493.2304382324219 531.4658813476562 C 350.8706970214844 582.8856811523438 327.6231384277344 574.8817749023438 -39.52774429321289 555.3480224609375 C -75.76151275634766 413.1372375488281 -51.65288543701172 351.97052001953125 -47.5338020324707 137.45791625976562 C -53.851318359375 98.6528549194336 -57.73788833618164 85.4205093383789 143.8613739013672 85.39871215820312 C 261.392822265625 81.27143096923828 394.0318603515625 34.160377502441406 493.2304382324219 531.4658813476562"/>
    <path stroke-width="0" fill="rgb(120, 128, 131)" opacity="1.0014488" stroke="rgb(144, 236, 18)" stroke-opacity="1.0" stroke-linecap="round" stroke-linejoin="round" d="M 552.6116943359375 549.6591796875 C 342.4898986816406 510.4575500488281 282.9913635253906 424.9144592285156 161.34701538085938 319.1359558105469 C 78.86074829101562 169.0044403076172 60.593772888183594 158.1459197998047 57.22633743286133 142.13636779785156 C 183.90211486816406 28.878881454467773 134.76202392578125 -24.061748504638672 456.1177062988281 -46.77201461791992 C 555.062744140625 -124.77310180664062 573.008544921875 -219.4150390625 552.6116943359375 549.6591796875"/>
    <path stroke-width="0" fill="rgb(252, 231, 186)" opacity="0.98950815" stroke="rgb(5, 212, 198)" stroke-opacity="1.0" stroke-linecap="round" stroke-linejoin="round" d="M 367.69537353515625 368.4095458984375 C 336.29449462890625 300.3808898925781 381.0284118652344 424.0450439453125 326.6362609863281 379.50860595703125 C 341.8387756347656 281.707275390625 243.7902069091797 476.4310607910156 287.15057373046875 313.1734313964844 C 237.2994384765625 246.185302734375 284.5351257324219 228.23255920410156 280.46368408203125 304.816650390625 C 375.5581359863281 217.96031188964844 340.4184875488281 338.7535705566406 367.69537353515625 368.4095458984375"/>
    <path stroke-width="0" fill="rgb(250, 245, 240)" opacity="1.0160016" stroke="rgb(249, 203, 117)" stroke-opacity="1.0" stroke-linecap="round" stroke-linejoin="round" d="M 254.86544799804688 349.8125 C 237.0428466796875 360.8961486816406 288.28619384765625 358.7220764160156 218.6837615966797 358.073486328125 C 209.64242553710938 361.3536376953125 203.72482299804688 326.1361083984375 202.84310913085938 351.3431396484375 C 184.706787109375 299.3172302246094 181.1699981689453 293.2110290527344 194.031494140625 292.8935546875 C 262.2813415527344 315.9637145996094 250.61244201660156 282.9331970214844 254.86544799804688 349.8125"/>
    <path stroke-width="0" fill="rgb(254, 195, 68)" opacity="1.0312793" stroke="rgb(30, 163, 36)" stroke-opacity="1.0" stroke-linecap="round" stroke-linejoin="round" d="M 388.9963073730469 332.08721923828125 C 391.4561767578125 386.153076171875 380.2649841308594 378.5615234375 346.3709411621094 352.5820007324219 C 387.07049560546875 337.2405090332031 327.8250732421875 329.05120849609375 281.7755432128906 310.8962097167969 C 235.6979522705078 289.6403503417969 303.1840515136719 221.80250549316406 349.8159484863281 287.2506103515625 C 339.44927978515625 301.9382629394531 365.87847900390625 265.8761901855469 388.9963073730469 332.08721923828125"/>
    <path stroke-width="0" fill="rgb(251, 193, 55)" opacity="0.9736955" stroke="rgb(133, 105, 67)" stroke-opacity="1.0" stroke-linecap="round" stroke-linejoin="round" d="M 312.5392150878906 94.30941009521484 C 315.9194030761719 243.37832641601562 144.4732666015625 256.5509338378906 234.94622802734375 73.92658233642578 C 174.6466064453125 163.27178955078125 161.79962158203125 254.16908264160156 188.9837188720703 117.80892944335938 C 223.0620880126953 50.61132049560547 218.600341796875 64.35636138916016 233.96388244628906 63.71222686767578 C 250.58995056152344 111.82341766357422 227.8237762451172 132.97406005859375 312.5392150878906 94.30941009521484"/>
    <path stroke-width="0" fill="rgb(242, 161, 28)" opacity="0.9609803" stroke="rgb(116, 144, 4)" stroke-opacity="1.0" stroke-linecap="round" stroke-linejoin="round" d="M 301.4970703125 319.9552917480469 C 317.2693786621094 323.9117126464844 388.6998596191406 338.7759094238281 207.7516632080078 302.4760437011719 C 197.51461791992188 292.82281494140625 153.59259033203125 424.0576477050781 160.3419189453125 249.97811889648438 C 231.4821014404297 -31.798542022705078 143.81459045410156 238.79139709472656 260.81646728515625 240.77577209472656 C 294.9374084472656 256.358642578125 257.21728515625 149.5517120361328 301.4970703125 319.9552917480469"/>
    <path stroke-width="0" fill="rgb(250, 250, 251)" opacity="0.96519136" stroke="rgb(156, 157, 240)" stroke-opacity="1.0" stroke-linecap="round" stroke-linejoin="round" d="M 226.82164001464844 208.4230499267578 C 304.5748596191406 273.02716064453125 176.83352661132812 240.63035583496094 195.97439575195312 195.709228515625 C 299.1439514160156 316.8562316894531 169.7162322998047 117.7256851196289 234.81890869140625 236.48268127441406 C 182.12057495117188 189.6830291748047 141.89849853515625 120.6091537475586 270.84600830078125 194.14622497558594 C 308.9961853027344 272.0373229980469 169.17559814453125 162.15003967285156 226.82164001464844 208.4230499267578"/>
    <path stroke-width="0" fill="rgb(252, 186, 64)" opacity="0.9981858" stroke="rgb(91, 111, 177)" stroke-opacity="1.0" stroke-linecap="round" stroke-linejoin="round" d="M 174.50494384765625 287.58880615234375 C 137.00587463378906 258.97503662109375 224.98617553710938 266.6531982421875 186.89817810058594 407.9905700683594 C 94.48761749267578 409.3829650878906 196.9716033935547 419.5882568359375 160.9952392578125 313.19049072265625 C 161.7816162109375 163.11131286621094 185.8636016845703 284.2241516113281 183.80506896972656 135.58572387695312 C 377.0937805175781 48.407772064208984 106.17369079589844 221.10409545898438 174.50494384765625 287.58880615234375"/>
    <path stroke-width="0" fill="rgb(252, 199, 79)" opacity="1.0045289" stroke="rgb(170, 171, 53)" stroke-opacity="1.0" stroke-linecap="round" stroke-linejoin="round" d="M 284.27838134765625 321.73614501953125 C 259.54803466796875 403.0204772949219 283.1200256347656 432.7769775390625 272.3982238769531 398.98626708984375 C 232.6798858642578 394.8540344238281 243.77645874023438 434.9743957519531 245.2833251953125 346.19482421875 C 254.8919677734375 339.0823669433594 232.7249755859375 318.7110900878906 267.12518310546875 274.1168518066406 C 274.40826416015625 204.3195343017578 293.841796875 232.14859008789062 284.27838134765625 321.73614501953125"/>
    <path stroke-width="0" fill="rgb(241, 230, 188)" opacity="0.9598758" stroke="rgb(80, 92, 145)" stroke-opacity="1.0" stroke-linecap="round" stroke-linejoin="round" d="M 159.54916381835938 397.6627197265625 C 176.82565307617188 376.7857971191406 142.9634246826172 381.3785400390625 148.1591796875 407.5315856933594 C 209.1020050048828 405.2906494140625 178.15110778808594 413.0751037597656 191.55239868164062 389.62811279296875 C 136.40794372558594 406.1564636230469 145.02137756347656 379.916748046875 187.23751831054688 401.876708984375 C 140.0349578857422 368.2457275390625 181.34230041503906 410.5135803222656 159.54916381835938 397.6627197265625"/>
    <path stroke-width="0" fill="rgb(250, 171, 41)" opacity="0.81934637" stroke="rgb(166, 64, 118)" stroke-opacity="1.0" stroke-linecap="round" stroke-linejoin="round" d="M 196.25033569335938 335.2654113769531 C 207.75656127929688 342.0050964355469 189.1870880126953 345.9214172363281 199.57733154296875 326.3199768066406 C 192.8831329345703 371.4216003417969 221.08505249023438 316.54034423828125 202.8444366455078 353.676513671875 C 219.02523803710938 357.43707275390625 207.22264099121094 337.6221923828125 191.48822021484375 363.4364929199219 C 192.93368530273438 352.342041015625 193.85780334472656 370.9164733886719 196.25033569335938 335.2654113769531"/>
    <path stroke-width="0" fill="rgb(246, 241, 229)" opacity="0.8425598" stroke="rgb(50, 94, 209)" stroke-opacity="1.0" stroke-linecap="round" stroke-linejoin="round" d="M 189.87901306152344 385.8061218261719 C 193.99884033203125 407.9823913574219 178.71304321289062 405.4926452636719 213.5561981201172 396.60205078125 C 145.88043212890625 416.7396240234375 176.1752166748047 415.0313415527344 146.3082733154297 407.7476501464844 C 150.14698791503906 374.7325439453125 158.51853942871094 410.2818908691406 159.587646484375 389.18756103515625 C 121.16452026367188 372.3150634765625 178.5563201904297 402.3783264160156 189.87901306152344 385.8061218261719"/>
    <path stroke-width="0" fill="rgb(125, 129, 129)" opacity="0.99247044" stroke="rgb(72, 30, 75)" stroke-opacity="1.0" stroke-linecap="round" stroke-linejoin="round" d="M 444.0048828125 621.35693359375 C -30.116918563842773 434.525146484375 496.07965087890625 362.0932922363281 513.400634765625 330.00592041015625 C 263.81097412109375 414.87030029296875 496.1212158203125 358.48388671875 316.560791015625 256.7961730957031 C 242.85911560058594 260.03857421875 306.26788330078125 222.31069946289062 297.9061279296875 127.21924591064453 C 355.73468017578125 66.37517547607422 699.6965942382812 -17.285722732543945 444.0048828125 621.35693359375"/>
    <path stroke-width="0" fill="rgb(253, 236, 202)" opacity="0.99492323" stroke="rgb(81, 105, 16)" stroke-opacity="1.0" stroke-linecap="round" stroke-linejoin="round" d="M 194.70835876464844 122.02579498291016 C 189.09642028808594 123.1279067993164 197.14695739746094 123.39168548583984 195.99986267089844 115.86210632324219 C 211.207275390625 109.51567840576172 190.52549743652344 102.93502807617188 207.74220275878906 121.09993743896484 C 188.1798553466797 147.05003356933594 194.46080017089844 125.89442443847656 195.2044677734375 120.06326293945312 C 190.64401245117188 130.92669677734375 193.00479125976562 126.02095794677734 194.70835876464844 122.02579498291016"/>
    <path stroke-width="0" fill="rgb(161, 100, 44)" opacity="0.7354733" stroke="rgb(146, 236, 81)" stroke-opacity="1.0" stroke-linecap="round" stroke-linejoin="round" d="M 192.6698760986328 81.47319793701172 C 197.93157958984375 111.16532897949219 199.06614685058594 110.49779510498047 196.1525421142578 114.53517150878906 C 196.21917724609375 126.48967742919922 189.68148803710938 113.93306732177734 199.46426391601562 116.39954376220703 C 199.58050537109375 104.82711029052734 197.9207000732422 108.26332092285156 192.60313415527344 108.08735656738281 C 195.35409545898438 96.69196319580078 199.50375366210938 118.23316192626953 192.6698760986328 81.47319793701172"/>
    <path stroke-width="0" fill="rgb(60, 48, 30)" opacity="0.83335245" stroke="rgb(33, 182, 73)" stroke-opacity="1.0" stroke-linecap="round" stroke-linejoin="round" d="M 293.3498840332031 128.76625061035156 C 305.0768127441406 178.7602996826172 293.67376708984375 128.73548889160156 302.7388610839844 137.02537536621094 C 299.1800537109375 138.8137664794922 305.6797790527344 138.76336669921875 300.0250549316406 125.72308349609375 C 287.6361999511719 177.2672576904297 308.7372741699219 136.6597137451172 296.9138488769531 169.69187927246094 C 297.4332580566406 114.1147232055664 289.4520263671875 182.42063903808594 293.3498840332031 128.76625061035156"/>
    <path stroke-width="0" fill="rgb(244, 183, 54)" opacity="1.0037334" stroke="rgb(149, 5, 211)" stroke-opacity="1.0" stroke-linecap="round" stroke-linejoin="round" d="M 269.7803955078125 195.29234313964844 C 286.26763916015625 193.7084503173828 269.5301513671875 193.7520751953125 261.6637268066406 187.98240661621094 C 293.4868469238281 179.373291015625 251.3902130126953 191.7220458984375 242.44093322753906 184.6875457763672 C 183.28480529785156 145.81591796875 304.75482177734375 183.635986328125 297.2585144042969 170.69845581054688 C 287.14642333984375 201.06040954589844 315.9539489746094 196.996337890625 269.7803955078125 195.29234313964844"/>
    <path stroke-width="0" fill="rgb(34, -4, 0)" opacity="0.68040395" stroke="rgb(172, 68, 187)" stroke-opacity="1.0" stroke-linecap="round" stroke-linejoin="round" d="M 304.06982421875 106.15287780761719 C 294.677001953125 100.46198272705078 338.8261413574219 77.0387191772461 294.9872741699219 134.5244140625 C 331.60003662109375 95.79605865478516 324.62628173828125 80.32138061523438 278.3500061035156 110.69734954833984 C 266.57659912109375 107.85728454589844 353.71612548828125 73.29094696044922 279.2847595214844 118.12612915039062 C 283.947998046875 130.71206665039062 270.3170471191406 118.71672821044922 304.06982421875 106.15287780761719"/>
    <path stroke-width="0" fill="rgb(49, 20, 20)" opacity="0.70717996" stroke="rgb(63, 146, 150)" stroke-opacity="1.0" stroke-linecap="round" stroke-linejoin="round" d="M 296.260009765625 103.05770111083984 C 290.5477294921875 104.9391098022461 309.8454284667969 93.96194458007812 297.340576171875 95.79693603515625 C 318.8409118652344 94.17096710205078 304.08447265625 101.731689453125 307.5912170410156 92.04841613769531 C 301.3839416503906 113.83672332763672 327.61199951171875 96.99252319335938 290.71160888671875 98.76467895507812 C 287.2781982421875 117.61515045166016 240.4802703857422 113.57182312011719 296.260009765625 103.05770111083984"/>
    <path stroke-width="0" fill="rgb(-2, -10, -2)" opacity="0.8477887" stroke="rgb(56, 242, 114)" stroke-opacity="1.0" stroke-linecap="round" stroke-linejoin="round" d="M 179.08921813964844 153.83236694335938 C 180.62661743164062 133.959716796875 185.0719757080078 134.40042114257812 183.03341674804688 143.26947021484375 C 204.6402130126953 86.81444549560547 179.4281005859375 111.67540740966797 183.4805450439453 156.4473114013672 C 169.6504364013672 159.80551147460938 176.2530059814453 181.3697509765625 181.93600463867188 170.46437072753906 C 169.05606079101562 176.86062622070312 183.26231384277344 180.67849731445312 179.08921813964844 153.83236694335938"/>
    <path stroke-width="0" fill="rgb(23, 5, -8)" opacity="0.89571875" stroke="rgb(178, 75, 207)" stroke-opacity="1.0" stroke-linecap="round" stroke-linejoin="round" d="M 219.87701416015625 88.57003784179688 C 233.42166137695312 80.6029052734375 224.82420349121094 80.34881591796875 226.62496948242188 108.21516418457031 C 181.57508850097656 153.78909301757812 214.72283935546875 108.67720031738281 225.40260314941406 92.11539459228516 C 213.96002197265625 128.0234375 207.64376831054688 97.41060638427734 214.60922241210938 104.19461059570312 C 233.70166015625 91.24596405029297 205.37095642089844 112.46060943603516 219.87701416015625 88.57003784179688"/>
    <path stroke-width="0" fill="rgb(-8, -2, 15)" opacity="0.98095644" stroke="rgb(224, 148, 224)" stroke-opacity="1.0" stroke-linecap="round" stroke-linejoin="round" d="M 287.8649597167969 223.78363037109375 C 284.2971496582031 213.75559997558594 275.5749816894531 224.41998291015625 296.8503112792969 207.28878784179688 C 296.525390625 191.85885620117188 278.6153259277344 210.16249084472656 272.83538818359375 199.18646240234375 C 290.43170166015625 185.90248107910156 269.4541931152344 218.1915740966797 275.6676940917969 195.21441650390625 C 275.50238037109375 219.03909301757812 279.3774719238281 207.6887664794922 287.8649597167969 223.78363037109375"/>
    <path stroke-width="0" fill="rgb(17, 24, 18)" opacity="0.77751595" stroke="rgb(108, 154, 4)" stroke-opacity="1.0" stroke-linecap="round" stroke-linejoin="round" d="M 238.65823364257812 413.037109375 C 250.24354553222656 381.963623046875 220.40750122070312 426.4503173828125 281.0399169921875 413.130615234375 C 249.65887451171875 404.5139465332031 294.6235656738281 434.95965576171875 273.23779296875 390.2217102050781 C 279.9830322265625 431.45697021484375 261.6195068359375 408.9198303222656 270.23822021484375 418.5955505371094 C 210.87078857421875 415.5736083984375 261.1822814941406 392.5704040527344 238.65823364257812 413.037109375"/>
    <path stroke-width="0" fill="rgb(128, 126, 141)" opacity="0.75843644" stroke="rgb(168, 73, 157)" stroke-opacity="1.0" stroke-linecap="round" stroke-linejoin="round" d="M 149.7654571533203 356.8483581542969 C 195.24301147460938 385.21826171875 141.86630249023438 381.6308898925781 171.1427001953125 377.1839599609375 C 176.48004150390625 377.6629638671875 164.2923126220703 380.75030517578125 158.7073211669922 346.9990539550781 C 146.56956481933594 384.6483459472656 154.96157836914062 364.5482482910156 158.68873596191406 343.59423828125 C 174.0374755859375 360.5856628417969 168.53382873535156 373.6669616699219 149.7654571533203 356.8483581542969"/>
    <path stroke-width="0" fill="rgb(51, 3, 0)" opacity="0.6014685" stroke="rgb(34, 76, 145)" stroke-opacity="1.0" stroke-linecap="round" stroke-linejoin="round" d="M 233.02670288085938 113.10509490966797 C 198.67791748046875 116.91549682617188 214.58950805664062 92.45185089111328 225.43467712402344 104.1293716430664 C 189.92430114746094 66.65425109863281 220.37574768066406 76.49392700195312 194.02207946777344 104.07003784179688 C 187.82733154296875 147.89073181152344 193.70594787597656 70.25308227539062 222.73060607910156 103.36038208007812 C 229.0331573486328 76.17122650146484 170.2121124267578 83.5224609375 233.02670288085938 113.10509490966797"/>
    <path stroke-width="0" fill="rgb(30, 10, 17)" opacity="0.87814087" stroke="rgb(146, 166, 166)" stroke-opacity="1.0" stroke-linecap="round" stroke-linejoin="round" d="M 177.1529998779297 203.34605407714844 C 176.87014770507812 199.75013732910156 175.5353546142578 198.443603515625 175.3672332763672 195.92352294921875 C 165.20382690429688 209.1068572998047 178.26980590820312 149.18763732910156 175.67237854003906 200.2257537841797 C 166.4960479736328 206.09732055664062 175.87803649902344 193.5966033935547 170.62899780273438 203.32540893554688 C 181.92428588867188 200.72569274902344 175.95851135253906 204.7563018798828 177.1529998779297 203.34605407714844"/>
    <path stroke-width="0" fill="rgb(21, 0, 0)" opacity="0.5491351" stroke="rgb(228, 93, 111)" stroke-opacity="1.0" stroke-linecap="round" stroke-linejoin="round" d="M 232.92185974121094 112.6491928100586 C 245.08229064941406 96.21131134033203 234.42543029785156 57.41474533081055 243.1712646484375 85.38104248046875 C 217.5414276123047 120.49979400634766 229.41786193847656 133.09812927246094 220.78492736816406 101.71424865722656 C 236.56639099121094 91.3927001953125 288.17864990234375 139.4471435546875 265.4951477050781 112.03214263916016 C 233.0623016357422 109.85321044921875 262.0014953613281 88.8916244506836 232.92185974121094 112.6491928100586"/>
    <path stroke-width="0" fill="rgb(227, 169, 163)" opacity="0.64329535" stroke="rgb(205, 179, 25)" stroke-opacity="1.0" stroke-linecap="round" stroke-linejoin="round" d="M 200.89393615722656 105.72268676757812 C 240.2108917236328 91.0167007446289 187.4064178466797 133.9650115966797 210.23448181152344 99.7992172241211 C 246.1751251220703 108.91387176513672 224.7992401123047 54.530723571777344 213.67425537109375 95.22307586669922 C 177.62496948242188 65.99201965332031 222.3134002685547 85.0763931274414 215.58740234375 121.5119400024414 C 253.77371215820312 79.03070068359375 216.30072021484375 103.77252960205078 200.89393615722656 105.72268676757812"/>
    <path stroke-width="0" fill="rgb(146, 108, 52)" opacity="0.82886904" stroke="rgb(41, 156, 31)" stroke-opacity="1.0" stroke-linecap="round" stroke-linejoin="round" d="M 261.7718200683594 180.1411590576172 C 260.1468811035156 170.8739013671875 268.86834716796875 140.50729370117188 259.5311279296875 146.22364807128906 C 279.549560546875 144.85365295410156 257.7598876953125 163.16600036621094 249.24807739257812 168.12591552734375 C 256.6791687011719 182.146728515625 262.1990051269531 154.54379272460938 265.1752624511719 158.5567169189453 C 266.7414855957031 154.756591796875 261.0304260253906 154.42758178710938 261.7718200683594 180.1411590576172"/>
    <path stroke-width="0" fill="rgb(249, 215, 161)" opacity="0.6534232" stroke="rgb(205, 145, 103)" stroke-opacity="1.0" stroke-linecap="round" stroke-linejoin="round" d="M 293.2138977050781 144.14588928222656 C 281.4442138671875 117.64922332763672 255.2496337890625 142.43704223632812 286.7668151855469 130.2030487060547 C 291.78167724609375 152.99716186523438 274.4730529785156 142.38607788085938 290.618896484375 144.801025390625 C 295.1418151855469 149.7704315185547 296.4510498046875 109.95804595947266 299.9640197753906 144.11936950683594 C 271.3934326171875 137.2579803466797 291.47119140625 146.17727661132812 293.2138977050781 144.14588928222656"/>
    <path stroke-width="0" fill="rgb(74, 80, 114)" opacity="0.7366457" stroke="rgb(177, 115, 184)" stroke-opacity="1.0" stroke-linecap="round" stroke-linejoin="round" d="M 152.927001953125 192.87025451660156 C 167.8106231689453 202.624267578125 170.3018035888672 197.55142211914062 167.6675567626953 210.1778564453125 C 171.68392944335938 217.97695922851562 158.53041076660156 219.88397216796875 168.3147735595703 230.32945251464844 C 167.73629760742188 211.38070678710938 168.13946533203125 216.75401306152344 165.11038208007812 219.560302734375 C 176.937744140625 205.68470764160156 174.14907836914062 204.0986785888672 152.927001953125 192.87025451660156"/>
    <path stroke-width="0" fill="rgb(167, 170, 225)" opacity="0.70955306" stroke="rgb(248, 218, 2)" stroke-opacity="1.0" stroke-linecap="round" stroke-linejoin="round" d="M 288.2921142578125 218.4211883544922 C 298.3746032714844 194.0015869140625 315.80853271484375 221.33761596679688 241.7933349609375 235.72348022460938 C 251.04261779785156 247.1768341064453 244.4584197998047 228.15655517578125 262.56109619140625 229.96923828125 C 281.2201843261719 221.39248657226562 280.7605285644531 244.6093292236328 258.72052001953125 238.8907012939453 C 231.6658935546875 219.4570770263672 291.6546325683594 204.59690856933594 288.2921142578125 218.4211883544922"/>
    <path stroke-width="0" fill="rgb(13, 59, 94)" opacity="0.62984186" stroke="rgb(186, 43, 132)" stroke-opacity="1.0" stroke-linecap="round" stroke-linejoin="round" d="M 214.63604736328125 202.703369140625 C 227.1032257080078 186.88003540039062 217.0629425048828 228.8708038330078 227.61143493652344 211.78341674804688 C 238.95361328125 217.54736328125 250.8860321044922 203.14210510253906 220.79905700683594 215.54689025878906 C 219.04396057128906 194.11537170410156 224.49298095703125 197.99974060058594 223.8040771484375 209.31777954101562 C 214.05137634277344 215.1598358154297 240.69918823242188 230.74462890625 214.63604736328125 202.703369140625"/>
    <path stroke-width="0" fill="rgb(192, 108, 0)" opacity="0.53862685" stroke="rgb(88, 236, 179)" stroke-opacity="1.0" stroke-linecap="round" stroke-linejoin="round" d="M 288.919189453125 262.4090881347656 C 276.1475830078125 256.2945251464844 291.9634704589844 249.90284729003906 286.3914489746094 260.52178955078125 C 289.1411437988281 261.245849609375 275.53070068359375 261.33099365234375 290.1412353515625 265.0888366699219 C 330.2783508300781 264.603515625 345.5451965332031 261.3394775390625 280.1583557128906 260.1946105957031 C 302.73785400390625 257.4901428222656 302.7720947265625 338.5820007324219 288.919189453125 262.4090881347656"/>
    <path stroke-width="0" fill="rgb(15, 8, 24)" opacity="0.70153904" stroke="rgb(41, 158, 147)" stroke-opacity="1.0" stroke-linecap="round" stroke-linejoin="round" d="M 228.80917358398438 203.8260498046875 C 235.3134307861328 215.22178649902344 221.1871795654297 207.6713409423828 280.44671630859375 229.12820434570312 C 287.761474609375 212.07962036132812 238.31146240234375 226.92990112304688 251.76589965820312 232.27023315429688 C 215.38400268554688 202.57923889160156 255.99935913085938 213.667236328125 231.97035217285156 211.96365356445312 C 237.02833557128906 212.94078063964844 241.77249145507812 208.3148193359375 228.80917358398438 203.8260498046875"/>
    <path stroke-width="0" fill="rgb(40, 23, 13)" opacity="0.9523146" stroke="rgb(238, 156, 136)" stroke-opacity="1.0" stroke-linecap="round" stroke-linejoin="round" d="M 305.65435791015625 192.18678283691406 C 292.441162109375 175.48289489746094 268.8792724609375 167.64581298828125 286.344970703125 162.47544860839844 C 301.1756896972656 168.9590301513672 285.40740966796875 152.93194580078125 293.18328857421875 165.82516479492188 C 285.7585144042969 171.35116577148438 287.01153564453125 176.0524444580078 307.0701599121094 211.02252197265625 C 283.86553955078125 178.2891387939453 291.1673583984375 174.01502990722656 305.65435791015625 192.18678283691406"/>
    <path stroke-width="0" fill="rgb(50, 33, 19)" opacity="0.70391464" stroke="rgb(186, 79, 101)" stroke-opacity="1.0" stroke-linecap="round" stroke-linejoin="round" d="M 167.06068420410156 218.45889282226562 C 167.0161895751953 213.59597778320312 172.96389770507812 219.59095764160156 169.4873504638672 213.0310516357422 C 170.6641387939453 223.63523864746094 174.50595092773438 175.636474609375 160.6815948486328 242.112060546875 C 158.49378967285156 234.30247497558594 170.82550048828125 229.8798370361328 162.31590270996094 231.37600708007812 C 167.3544158935547 224.15225219726562 171.01980590820312 246.49224853515625 167.06068420410156 218.45889282226562"/>
    <path stroke-width="0" fill="rgb(11, 9, 5)" opacity="0.9131311" stroke="rgb(57, 64, 14)" stroke-opacity="1.0" stroke-linecap="round" stroke-linejoin="round" d="M 156.7783966064453 270.17022705078125 C 157.27862548828125 266.1675720214844 155.5542755126953 280.1879577636719 157.01136779785156 255.55091857910156 C 175.2537841796875 227.37557983398438 153.90797424316406 206.9420623779297 155.5961151123047 310.74481201171875 C 163.4517059326172 322.31915283203125 157.4962615966797 316.72430419921875 160.57826232910156 238.769287109375 C 153.55850219726562 292.6038513183594 157.7902069091797 277.3703308105469 156.7783966064453 270.17022705078125"/>
    <path stroke-width="0" fill="rgb(246, 251, 252)" opacity="0.7818432" stroke="rgb(6, 17, 173)" stroke-opacity="1.0" stroke-linecap="round" stroke-linejoin="round" d="M 347.201171875 374.1687927246094 C 350.2349548339844 402.14996337890625 377.2694091796875 363.59112548828125 333.9711608886719 377.9471130371094 C 370.0777893066406 323.1776123046875 311.39141845703125 367.847412109375 324.4031066894531 346.03131103515625 C 288.0906677246094 328.8201904296875 351.3138427734375 317.20916748046875 351.5627746582031 344.7951965332031 C 314.27899169921875 350.2998962402344 324.69329833984375 385.52056884765625 347.201171875 374.1687927246094"/>
    <path stroke-width="0" fill="rgb(49, 37, 24)" opacity="0.87615687" stroke="rgb(136, 228, 252)" stroke-opacity="1.0" stroke-linecap="round" stroke-linejoin="round" d="M 316.21807861328125 258.7637634277344 C 410.0541076660156 325.1966552734375 381.9333190917969 307.8699951171875 353.49176025390625 286.8310546875 C 346.2264404296875 282.944580078125 360.6636047363281 284.48492431640625 351.5744934082031 293.41448974609375 C 361.1016845703125 391.31341552734375 360.916748046875 366.7164306640625 355.1741027832031 294.3186950683594 C 344.5754089355469 301.3658752441406 352.34942626953125 268.2101745605469 316.21807861328125 258.7637634277344"/>
    <path stroke-width="0" fill="rgb(3, -7, 9)" opacity="0.730165" stroke="rgb(81, 97, 150)" stroke-opacity="1.0" stroke-linecap="round" stroke-linejoin="round" d="M 253.9143829345703 222.49310302734375 C 239.7342071533203 204.20620727539062 212.30313110351562 212.6118621826172 270.6721496582031 230.12393188476562 C 265.3335266113281 216.14613342285156 232.86224365234375 216.6123504638672 253.1570281982422 239.03036499023438 C 275.35467529296875 252.1799774169922 276.3601379394531 234.85662841796875 261.403564453125 240.64601135253906 C 255.20028686523438 231.49269104003906 251.08070373535156 243.07659912109375 253.9143829345703 222.49310302734375"/>
    <path stroke-width="0" fill="rgb(254, 237, 221)" opacity="0.6815504" stroke="rgb(160, 222, 69)" stroke-opacity="1.0" stroke-linecap="round" stroke-linejoin="round" d="M 174.32545471191406 386.5313720703125 C 197.99891662597656 372.2687072753906 153.9563446044922 401.3222961425781 163.6606903076172 370.39361572265625 C 162.64906311035156 398.14984130859375 166.84486389160156 383.5494689941406 158.12570190429688 394.4788513183594 C 177.46554565429688 361.314208984375 159.07766723632812 354.6330261230469 165.5934600830078 353.1331481933594 C 164.6982421875 374.5259094238281 185.71241760253906 346.07489013671875 174.32545471191406 386.5313720703125"/>
    <path stroke-width="0" fill="rgb(128, 125, 125)" opacity="0.96442926" stroke="rgb(47, 242, 175)" stroke-opacity="1.0" stroke-linecap="round" stroke-linejoin="round" d="M 320.7755126953125 355.4835205078125 C 320.5880126953125 364.7392883300781 322.85467529296875 342.2734680175781 319.92486572265625 357.6310119628906 C 311.7660217285156 363.1180725097656 302.7662048339844 327.7728576660156 296.00323486328125 377.58001708984375 C 340.76629638671875 358.255126953125 322.6344299316406 333.2273254394531 285.0445861816406 319.1414794921875 C 339.64593505859375 344.3258972167969 309.1832580566406 333.5569763183594 320.7755126953125 355.4835205078125"/>
    <path stroke-width="0" fill="rgb(26, 10, 8)" opacity="0.7127423" stroke="rgb(241, 186, 64)" stroke-opacity="1.0" stroke-linecap="round" stroke-linejoin="round" d="M 284.17547607421875 264.238525390625 C 282.72265625 245.73703002929688 285.89599609375 270.9548034667969 307.48687744140625 256.3910217285156 C 305.61041259765625 260.6514587402344 293.6922302246094 259.6093444824219 315.99078369140625 259.6055908203125 C 333.2650451660156 255.51116943359375 384.4781188964844 328.8728332519531 325.83563232421875 261.7655334472656 C 313.4400634765625 270.94500732421875 317.1163024902344 245.8651580810547 284.17547607421875 264.238525390625"/>
    <path stroke-width="0" fill="rgb(4, 4, 7)" opacity="0.8149992" stroke="rgb(132, 6, 52)" stroke-opacity="1.0" stroke-linecap="round" stroke-linejoin="round" d="M 201.93284606933594 104.45198059082031 C 205.15719604492188 98.26569366455078 194.28955078125 81.1701889038086 203.90847778320312 90.59382629394531 C 201.87387084960938 90.78274536132812 217.1254119873047 60.95573806762695 187.3826141357422 118.12377166748047 C 222.31231689453125 66.76773834228516 211.94342041015625 59.18135452270508 236.16021728515625 63.22228240966797 C 219.7573699951172 42.31734848022461 196.60787963867188 88.32373046875 201.93284606933594 104.45198059082031"/>
    <path stroke-width="0" fill="rgb(0, 11, 23)" opacity="0.8765668" stroke="rgb(95, 118, 70)" stroke-opacity="1.0" stroke-linecap="round" stroke-linejoin="round" d="M 165.1844940185547 376.002685546875 C 164.10382080078125 383.9186096191406 160.23313903808594 378.2721252441406 165.1338653564453 379.8890380859375 C 156.47056579589844 375.9820861816406 167.29708862304688 395.0283203125 166.86619567871094 377.4662780761719 C 168.0973663330078 401.0079345703125 173.39158630371094 326.8523254394531 158.3323516845703 308.80267333984375 C 174.1239471435547 359.1866455078125 160.09469604492188 385.82574462890625 165.1844940185547 376.002685546875"/>
    <path stroke-width="0" fill="rgb(18, 23, 30)" opacity="0.87289107" stroke="rgb(220, 29, 131)" stroke-opacity="1.0" stroke-linecap="round" stroke-linejoin="round" d="M 324.3489074707031 351.9728698730469 C 328.3708190917969 352.9014892578125 312.4913330078125 346.415283203125 321.9861145019531 346.7906494140625 C 321.07501220703125 370.9375305175781 329.7391662597656 320.59771728515625 327.22454833984375 387.6171875 C 336.208251953125 395.2576599121094 328.4207763671875 369.72833251953125 323.46759033203125 368.089599609375 C 335.67266845703125 370.3013610839844 323.9193420410156 395.3714904785156 324.3489074707031 351.9728698730469"/>
    <path stroke-width="0" fill="rgb(26, 5, 9)" opacity="0.86059153" stroke="rgb(182, 100, 144)" stroke-opacity="1.0" stroke-linecap="round" stroke-linejoin="round" d="M 304.6316223144531 191.36529541015625 C 300.8100891113281 191.59671020507812 312.2426452636719 219.98477172851562 303.4951171875 221.02577209472656 C 300.2802734375 192.6866912841797 319.6324768066406 203.35171508789062 297.86944580078125 221.2093048095703 C 291.4773254394531 222.7891082763672 327.32794189453125 231.7657928466797 269.0355224609375 227.4720916748047 C 285.1822204589844 221.1818084716797 307.3573913574219 214.8283233642578 304.6316223144531 191.36529541015625"/>
    <path stroke-width="0" fill="rgb(200, 125, 103)" opacity="0.5743712" stroke="rgb(140, 149, 245)" stroke-opacity="1.0" stroke-linecap="round" stroke-linejoin="round" d="M 220.13070678710938 72.55406951904297 C 227.08267211914062 95.5348892211914 201.088623046875 91.14480590820312 214.9429931640625 96.7896957397461 C 231.41127014160156 67.7563705444336 208.31747436523438 71.26731872558594 180.91893005371094 77.10782623291016 C 200.87266540527344 85.0166015625 178.4647216796875 101.64697265625 189.4088134765625 74.53248596191406 C 218.84649658203125 69.33234405517578 248.7261505126953 83.04080963134766 220.13070678710938 72.55406951904297"/>
    <path stroke-width="0" fill="rgb(50, 22, 22)" opacity="0.82990825" stroke="rgb(61, 25, 4)" stroke-opacity="1.0" stroke-linecap="round" stroke-linejoin="round" d="M 275.2624206542969 240.0076446533203 C 280.6102294921875 229.0417022705078 236.1274871826172 227.68930053710938 268.5384216308594 231.30747985839844 C 270.34442138671875 236.70692443847656 256.2812194824219 222.98130798339844 263.2301940917969 232.644287109375 C 271.6292419433594 231.21595764160156 278.9039001464844 241.10052490234375 257.0635681152344 247.99009704589844 C 271.0889587402344 242.76116943359375 268.938232421875 239.90911865234375 275.2624206542969 240.0076446533203"/>
    <path stroke-width="0" fill="rgb(254, 179, 48)" opacity="0.897099" stroke="rgb(86, 245, 59)" stroke-opacity="1.0" stroke-linecap="round" stroke-linejoin="round" d="M 277.0157775878906 314.3030700683594 C 279.5224609375 317.4305725097656 270.7483825683594 336.67620849609375 332.0888671875 275.82073974609375 C 262.18023681640625 225.20925903320312 290.0425720214844 322.0981140136719 325.3736267089844 289.8563232421875 C 310.6270751953125 349.3580627441406 273.6044006347656 302.4458312988281 290.97271728515625 293.051025390625 C 318.61798095703125 282.4013366699219 288.78271484375 345.9175720214844 277.0157775878906 314.3030700683594"/>
    <path stroke-width="0" fill="rgb(253, 244, 236)" opacity="0.5088396" stroke="rgb(240, 203, 160)" stroke-opacity="1.0" stroke-linecap="round" stroke-linejoin="round" d="M 259.0598449707031 186.4962158203125 C 261.21710205078125 202.33233642578125 267.222412109375 213.9476776123047 296.2701110839844 236.6874542236328 C 300.8248596191406 216.57998657226562 308.9508056640625 217.4542999267578 305.8406066894531 210.78041076660156 C 308.4878845214844 258.13909912109375 268.07086181640625 232.15191650390625 288.93829345703125 227.1950225830078 C 255.8223419189453 198.81695556640625 265.6407165527344 218.83145141601562 259.0598449707031 186.4962158203125"/>
    <path stroke-width="0" fill="rgb(60, 28, 28)" opacity="0.8706897" stroke="rgb(88, 37, 250)" stroke-opacity="1.0" stroke-linecap="round" stroke-linejoin="round" d="M 273.0865173339844 348.8218688964844 C 294.7380676269531 313.18292236328125 280.6850280761719 315.4319152832031 286.3596496582031 326.1076965332031 C 291.5074462890625 328.43377685546875 286.0382995605469 260.6553649902344 283.7265930175781 316.81060791015625 C 294.29150390625 339.3399353027344 288.4654846191406 304.23614501953125 318.53228759765625 322.572998046875 C 255.75146484375 302.5098571777344 294.0478515625 369.6516418457031 273.0865173339844 348.8218688964844"/>
    <path stroke-width="0" fill="rgb(120, 138, 153)" opacity="0.396185" stroke="rgb(126, 163, 93)" stroke-opacity="1.0" stroke-linecap="round" stroke-linejoin="round" d="M 201.55653381347656 70.29369354248047 C 211.07257080078125 64.16686248779297 219.12832641601562 73.15802764892578 202.95884704589844 67.03639221191406 C 208.59408569335938 60.41396713256836 212.72787475585938 34.525474548339844 207.7808074951172 61.46135330200195 C 207.82362365722656 69.04659271240234 227.04461669921875 57.279083251953125 229.05819702148438 56.127586364746094 C 198.61776733398438 54.135379791259766 218.9940185546875 80.79908752441406 201.55653381347656 70.29369354248047"/>
    <path stroke-width="0" fill="rgb(120, 132, 130)" opacity="0.8734113" stroke="rgb(209, 48, 130)" stroke-opacity="1.0" stroke-linecap="round" stroke-linejoin="round" d="M 230.55548095703125 48.67485046386719 C 194.81915283203125 52.18135070800781 179.9301300048828 50.259552001953125 183.0579833984375 68.09832000732422 C 164.5064697265625 99.31011199951172 160.36094665527344 109.5708999633789 180.88226318359375 104.38825988769531 C 231.4549560546875 59.8726692199707 208.9280548095703 19.181068420410156 178.86044311523438 34.75211715698242 C 148.5228271484375 84.10978698730469 190.33338928222656 73.32167053222656 230.55548095703125 48.67485046386719"/>
    <path stroke-width="0" fill="rgb(237, 141, 32)" opacity="0.38928565" stroke="rgb(24, 219, 248)" stroke-opacity="1.0" stroke-linecap="round" stroke-linejoin="round" d="M 229.35751342773438 107.6595230102539 C 224.0283660888672 90.10428619384766 221.83958435058594 81.877197265625 237.162841796875 84.16034698486328 C 216.483154296875 65.03358459472656 234.48080444335938 72.60893249511719 228.02935791015625 89.58648681640625 C 234.27879333496094 92.28186798095703 232.33169555664062 87.36492919921875 234.32156372070312 78.63905334472656 C 232.73312377929688 82.7291488647461 241.2052001953125 61.15582275390625 229.35751342773438 107.6595230102539"/>
    <path stroke-width="0" fill="rgb(33, 21, 19)" opacity="0.8913214" stroke="rgb(231, 197, 84)" stroke-opacity="1.0" stroke-linecap="round" stroke-linejoin="round" d="M 376.6806640625 304.1630859375 C 398.9837646484375 328.2027282714844 380.49725341796875 346.7967529296875 392.09930419921875 353.5913391113281 C 386.18035888671875 350.75238037109375 390.4573974609375 349.71722412109375 390.46551513671875 355.605224609375 C 393.9640808105469 325.52972412109375 384.97637939453125 328.7765808105469 389.8994445800781 336.96630859375 C 380.56951904296875 327.4040222167969 398.48455810546875 352.57379150390625 376.6806640625 304.1630859375"/>
    <path stroke-width="0" fill="rgb(254, 157, 59)" opacity="0.39123467" stroke="rgb(103, 59, 33)" stroke-opacity="1.0" stroke-linecap="round" stroke-linejoin="round" d="M 228.87657165527344 66.65899658203125 C 217.3943328857422 67.8879165649414 220.5549774169922 78.61160278320312 235.75961303710938 88.92304229736328 C 240.782470703125 113.19950866699219 233.57005310058594 123.0969467163086 229.31178283691406 118.10753631591797 C 239.60269165039062 116.0386734008789 236.73399353027344 78.9466552734375 217.01797485351562 95.83541107177734 C 213.81527709960938 84.99518585205078 219.9425506591797 85.27845764160156 228.87657165527344 66.65899658203125"/>
    <path stroke-width="0" fill="rgb(199, 124, 32)" opacity="0.85301757" stroke="rgb(185, 2, 196)" stroke-opacity="1.0" stroke-linecap="round" stroke-linejoin="round" d="M 177.98208618164062 101.70152282714844 C 186.94967651367188 81.66990661621094 192.60704040527344 114.12251281738281 202.1220245361328 96.01507568359375 C 208.2197265625 172.06593322753906 210.2320556640625 80.86720275878906 202.7386016845703 111.24411010742188 C 208.8742218017578 94.57168579101562 173.6436004638672 105.1457290649414 174.01124572753906 95.1186294555664 C 195.0386505126953 108.68124389648438 197.05128479003906 83.69747161865234 177.98208618164062 101.70152282714844"/>
    <path stroke-width="0" fill="rgb(248, 226, 188)" opacity="0.94820523" stroke="rgb(107, 142, 219)" stroke-opacity="1.0" stroke-linecap="round" stroke-linejoin="round" d="M 308.93450927734375 340.10382080078125 C 292.62738037109375 347.36968994140625 281.73382568359375 375.61041259765625 303.460205078125 345.3193664550781 C 313.364501953125 352.5855407714844 310.03826904296875 342.6775817871094 296.2937316894531 345.3224792480469 C 268.7081604003906 393.1327209472656 288.7187194824219 371.69903564453125 296.70361328125 366.78961181640625 C 289.2084655761719 375.908935546875 310.404296875 332.901611328125 308.93450927734375 340.10382080078125"/>
    <path stroke-width="0" fill="rgb(131, 128, 137)" opacity="0.89002466" stroke="rgb(66, 116, 174)" stroke-opacity="1.0" stroke-linecap="round" stroke-linejoin="round" d="M 178.69483947753906 99.85778045654297 C 177.4925079345703 94.19312286376953 194.5487518310547 168.96849060058594 172.81686401367188 106.20967864990234 C 149.48074340820312 111.30642700195312 134.6225128173828 141.13951110839844 164.6575469970703 113.00985717773438 C 174.58517456054688 107.55231475830078 173.9805145263672 102.45812225341797 171.38754272460938 57.33255386352539 C 189.3076171875 111.66861724853516 180.38543701171875 112.35399627685547 178.69483947753906 99.85778045654297"/>
    <path stroke-width="0" fill="rgb(170, 128, 107)" opacity="0.64204115" stroke="rgb(72, 96, 46)" stroke-opacity="1.0" stroke-linecap="round" stroke-linejoin="round" d="M 222.6949005126953 91.50630187988281 C 212.65606689453125 92.59114074707031 252.445556640625 93.97672271728516 223.42901611328125 77.57762145996094 C 240.81201171875 80.28541564941406 227.9677734375 114.36930847167969 214.8287811279297 100.62771606445312 C 213.66400146484375 112.55924987792969 238.35971069335938 80.39987182617188 214.74380493164062 77.28849029541016 C 224.29266357421875 83.28893280029297 232.31353759765625 101.74652862548828 222.6949005126953 91.50630187988281"/>
    <path stroke-width="0" fill="rgb(38, 34, 31)" opacity="0.82544065" stroke="rgb(14, 177, 198)" stroke-opacity="1.0" stroke-linecap="round" stroke-linejoin="round" d="M 191.6474151611328 389.3189697265625 C 192.6695098876953 373.0106506347656 199.2695770263672 365.515625 202.75633239746094 389.5315856933594 C 200.10948181152344 383.0382080078125 204.0875701904297 386.61151123046875 199.15211486816406 388.4271240234375 C 206.78500366210938 381.8836975097656 194.45252990722656 378.8387756347656 195.718017578125 350.97705078125 C 196.25584411621094 387.24560546875 198.1016845703125 420.177734375 191.6474151611328 389.3189697265625"/>
    <path stroke-width="0" fill="rgb(126, 128, 129)" opacity="0.61145324" stroke="rgb(147, 244, 164)" stroke-opacity="1.0" stroke-linecap="round" stroke-linejoin="round" d="M 224.87384033203125 79.0071792602539 C 176.61920166015625 77.54615020751953 204.6408233642578 83.73387145996094 184.6189422607422 96.7430419921875 C 169.97549438476562 164.6487274169922 108.35708618164062 260.31103515625 -41.458839416503906 121.7474594116211 C 181.26925659179688 18.82735824584961 157.00299072265625 84.48431396484375 227.6238250732422 78.69941711425781 C 236.8330841064453 71.75448608398438 226.06015014648438 93.17021942138672 224.87384033203125 79.0071792602539"/>
    <path stroke-width="0" fill="rgb(123, 128, 131)" opacity="0.9132104" stroke="rgb(109, 130, 136)" stroke-opacity="1.0" stroke-linecap="round" stroke-linejoin="round" d="M 198.37139892578125 91.5716323852539 C 200.83792114257812 83.40138244628906 152.39401245117188 83.9314193725586 165.831298828125 97.06398010253906 C 180.09677124023438 128.54437255859375 153.8709259033203 137.8006591796875 172.6697235107422 81.51322174072266 C 151.83763122558594 90.94490814208984 161.62002563476562 76.65166473388672 157.4182586669922 76.41453552246094 C 187.0548095703125 98.08015441894531 184.67837524414062 120.31793975830078 198.37139892578125 91.5716323852539"/>
    <path stroke-width="0" fill="rgb(135, 127, 133)" opacity="0.6142953" stroke="rgb(70, 32, 100)" stroke-opacity="1.0" stroke-linecap="round" stroke-linejoin="round" d="M 287.4315185546875 122.09508514404297 C 297.1888732910156 111.31169128417969 287.2514953613281 122.75296783447266 298.82830810546875 132.40257263183594 C 281.6352233886719 119.0084228515625 315.2764587402344 98.12165832519531 310.4523010253906 136.1398162841797 C 309.9859313964844 126.29505157470703 315.0653381347656 109.76608276367188 336.92938232421875 104.97115325927734 C 324.35504150390625 108.01103973388672 327.7322998046875 104.94894409179688 287.4315185546875 122.09508514404297"/>
    <path stroke-width="0" fill="rgb(215, 159, 76)" opacity="0.62317073" stroke="rgb(47, 230, 138)" stroke-opacity="1.0" stroke-linecap="round" stroke-linejoin="round" d="M 279.2878723144531 320.87481689453125 C 281.9761657714844 312.602294921875 275.9098205566406 278.7125549316406 289.6588134765625 318.5694580078125 C 311.3958435058594 319.46728515625 282.7283630371094 331.7523498535156 288.7110900878906 295.3480529785156 C 291.1650695800781 249.13980102539062 290.3758544921875 256.9430236816406 281.3717956542969 324.9554138183594 C 286.94842529296875 326.210205078125 289.93310546875 319.78759765625 279.2878723144531 320.87481689453125"/>
    <path stroke-width="0" fill="rgb(245, 183, 81)" opacity="0.6177322" stroke="rgb(224, 116, 184)" stroke-opacity="1.0" stroke-linecap="round" stroke-linejoin="round" d="M 308.1825256347656 118.23269653320312 C 290.5053405761719 101.5376968383789 297.5734558105469 68.8972396850586 300.0083312988281 121.31208038330078 C 298.2461242675781 114.14523315429688 297.42889404296875 87.07677459716797 298.5134582519531 121.04622650146484 C 313.5294189453125 141.22767639160156 291.4624938964844 119.8138427734375 286.63214111328125 129.96273803710938 C 285.99505615234375 121.8000717163086 284.2401123046875 117.39411163330078 308.1825256347656 118.23269653320312"/>
    <path stroke-width="0" fill="rgb(253, 199, 44)" opacity="0.59807706" stroke="rgb(230, 175, 178)" stroke-opacity="1.0" stroke-linecap="round" stroke-linejoin="round" d="M 309.39849853515625 105.80682373046875 C 297.43798828125 117.71334838867188 287.16009521484375 131.2033233642578 273.843994140625 142.42543029785156 C 293.4497985839844 120.17521667480469 291.787109375 100.19996643066406 289.9048156738281 135.73248291015625 C 314.1605529785156 94.89595794677734 286.6719665527344 102.67679595947266 302.4573059082031 124.74919128417969 C 284.9562072753906 101.47178649902344 309.5408630371094 135.1728515625 309.39849853515625 105.80682373046875"/>
    <path stroke-width="0" fill="rgb(224, 157, 34)" opacity="0.68574363" stroke="rgb(203, 244, 116)" stroke-opacity="1.0" stroke-linecap="round" stroke-linejoin="round" d="M 283.3997497558594 138.7637176513672 C 296.6323547363281 121.7679443359375 295.4033203125 106.03072357177734 292.07843017578125 132.80052185058594 C 311.5596923828125 95.59728240966797 293.3404541015625 123.52627563476562 303.62646484375 112.04158020019531 C 310.103759765625 115.24191284179688 279.8438415527344 123.26121520996094 310.9156188964844 105.16792297363281 C 291.1979675292969 127.01403045654297 296.6350402832031 117.68257904052734 283.3997497558594 138.7637176513672"/>
    <path stroke-width="0" fill="rgb(232, 188, 83)" opacity="0.67156166" stroke="rgb(65, 216, 8)" stroke-opacity="1.0" stroke-linecap="round" stroke-linejoin="round" d="M 296.2930603027344 116.83948516845703 C 279.431640625 137.1781005859375 282.5111389160156 142.4154052734375 278.8248596191406 129.1951141357422 C 274.1481628417969 140.8854522705078 282.8045959472656 129.8343963623047 278.9689636230469 160.54042053222656 C 278.5744934082031 144.64569091796875 286.36175537109375 136.885498046875 269.4501647949219 141.1463623046875 C 276.5325927734375 132.84422302246094 273.6568908691406 154.0696258544922 296.2930603027344 116.83948516845703"/>
    <path stroke-width="0" fill="rgb(87, 73, 36)" opacity="0.7040587" stroke="rgb(90, 90, 4)" stroke-opacity="1.0" stroke-linecap="round" stroke-linejoin="round" d="M 273.6496276855469 342.0493469238281 C 280.58245849609375 344.145751953125 273.20477294921875 342.25225830078125 277.595947265625 340.39825439453125 C 274.5824279785156 333.5284729003906 269.74462890625 309.5598449707031 280.3266906738281 351.38385009765625 C 273.5057067871094 371.45849609375 277.05908203125 335.70660400390625 282.28436279296875 317.4546813964844 C 275.4693908691406 360.307861328125 284.7990417480469 341.0180358886719 273.6496276855469 342.0493469238281"/>
    <path stroke-width="0" fill="rgb(245, 185, 69)" opacity="0.52430403" stroke="rgb(221, 115, 83)" stroke-opacity="1.0" stroke-linecap="round" stroke-linejoin="round" d="M 296.5852966308594 240.28878784179688 C 309.3125305175781 180.6185302734375 319.2259826660156 206.46339416503906 300.2656555175781 236.7714080810547 C 281.2364501953125 183.11427307128906 271.3523254394531 148.88064575195312 266.1147155761719 169.98741149902344 C 277.8716735839844 147.3914794921875 283.1300048828125 148.55099487304688 269.2604064941406 171.4209442138672 C 276.15240478515625 165.82398986816406 288.3442687988281 186.9555206298828 296.5852966308594 240.28878784179688"/>
    <path stroke-width="0" fill="rgb(126, 126, 130)" opacity="0.7859659" stroke="rgb(17, 64, 56)" stroke-opacity="1.0" stroke-linecap="round" stroke-linejoin="round" d="M 171.14950561523438 144.24209594726562 C 178.20362854003906 121.29702758789062 167.5604248046875 126.91641998291016 170.7942657470703 169.22727966308594 C 181.0723114013672 166.0059356689453 176.390869140625 141.17352294921875 160.01611328125 145.25503540039062 C 178.3481903076172 151.76873779296875 190.7340545654297 122.72301483154297 149.23153686523438 132.17864990234375 C 161.7528076171875 158.7025604248047 178.74952697753906 167.5634002685547 171.14950561523438 144.24209594726562"/>
    <path stroke-width="0" fill="rgb(247, 187, 63)" opacity="0.76445365" stroke="rgb(33, 3, 29)" stroke-opacity="1.0" stroke-linecap="round" stroke-linejoin="round" d="M 227.93739318847656 156.95794677734375 C 195.34434509277344 137.42164611816406 202.95973205566406 162.77943420410156 195.73854064941406 182.95806884765625 C 210.11866760253906 133.2218780517578 201.6355743408203 139.97647094726562 191.0120086669922 148.64913940429688 C 179.9311065673828 125.60225677490234 198.8921661376953 128.06875610351562 190.16343688964844 178.56179809570312 C 179.4136962890625 179.1887664794922 188.98289489746094 179.09519958496094 227.93739318847656 156.95794677734375"/>
    <path stroke-width="0" fill="rgb(34, 39, 49)" opacity="0.815474" stroke="rgb(162, 125, 252)" stroke-opacity="1.0" stroke-linecap="round" stroke-linejoin="round" d="M 298.5664978027344 218.7797393798828 C 294.8387451171875 273.83782958984375 279.0427551269531 209.3533477783203 303.1852722167969 242.2113037109375 C 287.3590393066406 219.8304443359375 299.9371032714844 209.88864135742188 296.2579040527344 236.09288024902344 C 291.2445373535156 189.66893005371094 287.3123779296875 212.51266479492188 290.2760925292969 204.76097106933594 C 294.0793151855469 223.036376953125 322.94891357421875 252.0699920654297 298.5664978027344 218.7797393798828"/>
    <path stroke-width="0" fill="rgb(160, 157, 140)" opacity="0.74682" stroke="rgb(199, 73, 61)" stroke-opacity="1.0" stroke-linecap="round" stroke-linejoin="round" d="M 320.313720703125 214.10733032226562 C 303.55615234375 218.3894805908203 295.9808349609375 222.54708862304688 317.21746826171875 234.49642944335938 C 301.96405029296875 224.29144287109375 306.27642822265625 215.78863525390625 285.5837097167969 238.08876037597656 C 305.14056396484375 244.7382049560547 312.0016784667969 235.42178344726562 298.16473388671875 234.7814483642578 C 300.8892822265625 229.8728485107422 323.42279052734375 207.804931640625 320.313720703125 214.10733032226562"/>
    <path stroke-width="0" fill="rgb(100, 117, 156)" opacity="0.7665816" stroke="rgb(141, 73, 180)" stroke-opacity="1.0" stroke-linecap="round" stroke-linejoin="round" d="M 211.774169921875 215.9907684326172 C 205.31649780273438 201.86915588378906 206.94979858398438 206.8329620361328 206.89224243164062 189.90811157226562 C 203.2530975341797 221.0647430419922 220.14491271972656 217.11404418945312 227.8270721435547 212.79824829101562 C 222.73146057128906 213.93991088867188 222.4636993408203 216.32553100585938 209.7410888671875 214.9619903564453 C 210.51339721679688 215.5689239501953 214.66961669921875 218.09568786621094 211.774169921875 215.9907684326172"/>
    <path stroke-width="0" fill="rgb(142, 204, 217)" opacity="0.6997821" stroke="rgb(91, 211, 235)" stroke-opacity="1.0" stroke-linecap="round" stroke-linejoin="round" d="M 276.8612060546875 203.09127807617188 C 282.389892578125 195.403076171875 309.45648193359375 179.64901733398438 289.77655029296875 238.38641357421875 C 306.6243896484375 234.33900451660156 336.0733947753906 213.49566650390625 273.6227722167969 215.35511779785156 C 304.8054504394531 209.9981231689453 311.9001770019531 208.06423950195312 309.9846496582031 216.6781463623047 C 313.9164123535156 198.306396484375 292.3924865722656 199.381103515625 276.8612060546875 203.09127807617188"/>
    <path stroke-width="0" fill="rgb(248, 245, 240)" opacity="0.95626295" stroke="rgb(247, 230, 75)" stroke-opacity="1.0" stroke-linecap="round" stroke-linejoin="round" d="M 200.77210998535156 208.9516143798828 C 209.1071014404297 215.471435546875 200.5812530517578 198.73892211914062 216.9327392578125 209.03265380859375 C 216.41712951660156 202.16087341308594 222.8383026123047 206.86708068847656 222.57920837402344 228.4168243408203 C 223.9027557373047 235.3612060546875 189.87094116210938 231.43817138671875 215.15264892578125 177.83746337890625 C 220.68576049804688 169.39208984375 195.38925170898438 183.67274475097656 200.77210998535156 208.9516143798828"/>
    <path stroke-width="0" fill="rgb(242, 249, 256)" opacity="0.79587626" stroke="rgb(63, 27, 242)" stroke-opacity="1.0" stroke-linecap="round" stroke-linejoin="round" d="M 301.8067932128906 223.3053436279297 C 284.81866455078125 225.87576293945312 313.0401916503906 215.9967041015625 318.38507080078125 214.8030548095703 C 307.420166015625 185.85037231445312 293.5409240722656 226.17178344726562 263.169677734375 216.2913360595703 C 243.76185607910156 196.01210021972656 225.69712829589844 199.49447631835938 277.89605712890625 215.85545349121094 C 318.93896484375 230.9041290283203 329.7139587402344 206.4318389892578 301.8067932128906 223.3053436279297"/>
    <path stroke-width="0" fill="rgb(41, 39, 39)" opacity="0.8791119" stroke="rgb(175, 14, 186)" stroke-opacity="1.0" stroke-linecap="round" stroke-linejoin="round" d="M 195.4705352783203 423.5203552246094 C 192.58152770996094 420.5968933105469 177.2082977294922 405.0671691894531 169.03262329101562 410.7499694824219 C 197.08123779296875 407.3114013671875 196.05426025390625 396.426513671875 180.82833862304688 423.6625061035156 C 184.01956176757812 415.2204284667969 190.97335815429688 409.59808349609375 181.93899536132812 411.66766357421875 C 194.70236206054688 418.90478515625 189.6843719482422 417.5207214355469 195.4705352783203 423.5203552246094"/>
    <path stroke-width="0" fill="rgb(-7, -5, 10)" opacity="0.8030374" stroke="rgb(69, 96, 95)" stroke-opacity="1.0" stroke-linecap="round" stroke-linejoin="round" d="M 299.0536193847656 191.31900024414062 C 277.4053955078125 225.6333770751953 311.0919189453125 242.5131072998047 319.685791015625 234.61793518066406 C 300.82012939453125 240.1766357421875 287.4970703125 246.91795349121094 305.57806396484375 227.07498168945312 C 308.9503479003906 240.31982421875 307.78399658203125 224.48695373535156 273.27581787109375 200.88099670410156 C 317.5345458984375 190.3716583251953 305.7468566894531 212.77232360839844 299.0536193847656 191.31900024414062"/>
    <path stroke-width="0" fill="rgb(252, 190, 32)" opacity="0.72069764" stroke="rgb(213, 60, 128)" stroke-opacity="1.0" stroke-linecap="round" stroke-linejoin="round" d="M 211.45123291015625 81.5444107055664 C 246.00184631347656 88.48961639404297 233.75564575195312 105.12346649169922 233.8394317626953 88.86862182617188 C 206.8267364501953 79.96536254882812 196.58641052246094 99.5528793334961 226.0938262939453 64.20137023925781 C 226.90956115722656 84.39429473876953 247.40090942382812 66.59481811523438 224.8008575439453 76.3876953125 C 228.93328857421875 64.24317169189453 263.39764404296875 80.04520416259766 211.45123291015625 81.5444107055664"/>
    <path stroke-width="0" fill="rgb(90, 92, 76)" opacity="0.68222976" stroke="rgb(178, 246, 253)" stroke-opacity="1.0" stroke-linecap="round" stroke-linejoin="round" d="M 232.31443786621094 56.86328887939453 C 231.9056396484375 48.60636901855469 218.79676818847656 51.16335678100586 223.62596130371094 53.14006042480469 C 235.11041259765625 43.858829498291016 228.47927856445312 63.89949035644531 244.03131103515625 70.79125213623047 C 240.78173828125 65.7538070678711 233.23095703125 79.55824279785156 235.4528045654297 58.046905517578125 C 232.2199249267578 65.03778076171875 238.31617736816406 61.02210998535156 232.31443786621094 56.86328887939453"/>
    <path stroke-width="0" fill="rgb(228, 160, 70)" opacity="0.7045613" stroke="rgb(18, 74, 38)" stroke-opacity="1.0" stroke-linecap="round" stroke-linejoin="round" d="M 280.5242004394531 256.54022216796875 C 268.36053466796875 257.6231994628906 258.6605529785156 252.28948974609375 265.40631103515625 253.72616577148438 C 214.2568817138672 255.10986328125 221.08853149414062 244.59059143066406 188.14572143554688 219.4993438720703 C 230.33099365234375 263.623779296875 260.0866394042969 249.05279541015625 205.29415893554688 253.5394287109375 C 186.9029998779297 258.787841796875 250.67347717285156 250.7261199951172 280.5242004394531 256.54022216796875"/>
    <path stroke-width="0" fill="rgb(132, 93, 67)" opacity="0.72326845" stroke="rgb(33, 154, 97)" stroke-opacity="1.0" stroke-linecap="round" stroke-linejoin="round" d="M 224.20071411132812 53.28987121582031 C 198.4600372314453 66.5484390258789 216.19015502929688 81.36568450927734 211.2865753173828 72.51007843017578 C 209.58424377441406 76.15194702148438 207.96395874023438 67.97917938232422 213.98190307617188 82.0558853149414 C 215.4325408935547 101.60370635986328 236.6932373046875 65.63829040527344 215.13522338867188 86.99127960205078 C 207.2369842529297 63.088619232177734 207.30238342285156 63.34314727783203 224.20071411132812 53.28987121582031"/>
    <path stroke-width="0" fill="rgb(131, 125, 129)" opacity="1.002517" stroke="rgb(246, 139, 70)" stroke-opacity="1.0" stroke-linecap="round" stroke-linejoin="round" d="M 303.72344970703125 241.96641540527344 C 292.10137939453125 245.11012268066406 274.85552978515625 227.677978515625 336.642822265625 225.59036254882812 C 317.28668212890625 237.54722595214844 294.6638488769531 226.30001831054688 263.5531005859375 227.5742645263672 C 303.71820068359375 228.33700561523438 285.55975341796875 242.95553588867188 303.39581298828125 194.2782745361328 C 275.552734375 162.29861450195312 335.9939270019531 197.8008270263672 303.72344970703125 241.96641540527344"/>
    <path stroke-width="0" fill="rgb(164, 127, 106)" opacity="0.46379074" stroke="rgb(228, 103, 140)" stroke-opacity="1.0" stroke-linecap="round" stroke-linejoin="round" d="M 219.34127807617188 98.8353042602539 C 222.84671020507812 91.17860412597656 216.53990173339844 89.96288299560547 222.4478302001953 96.76750946044922 C 205.89080810546875 59.14004898071289 202.09616088867188 60.43403625488281 205.67176818847656 63.245323181152344 C 210.3234405517578 57.147613525390625 208.44503784179688 68.10560607910156 199.55337524414062 52.25608444213867 C 213.99545288085938 76.27774047851562 224.98980712890625 98.53321838378906 219.34127807617188 98.8353042602539"/>
    <path stroke-width="0" fill="rgb(124, 129, 131)" opacity="1.0001477" stroke="rgb(116, 102, 63)" stroke-opacity="1.0" stroke-linecap="round" stroke-linejoin="round" d="M 324.0938720703125 196.58001708984375 C 284.893798828125 226.03118896484375 287.5991516113281 230.43212890625 316.3879089355469 221.28785705566406 C 300.9865417480469 231.4081573486328 279.02294921875 211.65382385253906 279.27825927734375 237.52828979492188 C 305.6087951660156 275.995849609375 308.7464294433594 247.72683715820312 294.0201721191406 234.46836853027344 C 306.1015625 249.41549682617188 327.4853515625 273.3766784667969 324.0938720703125 196.58001708984375"/>
    <path stroke-width="0" fill="rgb(122, 88, 19)" opacity="0.70987266" stroke="rgb(79, 95, 133)" stroke-opacity="1.0" stroke-linecap="round" stroke-linejoin="round" d="M 231.64675903320312 92.19849395751953 C 257.52032470703125 101.05686950683594 268.36614990234375 102.4472885131836 247.6791229248047 96.97382354736328 C 241.34796142578125 90.49600219726562 247.0962677001953 109.06575012207031 224.32275390625 77.27220153808594 C 256.49212646484375 94.41990661621094 234.26190185546875 103.64842224121094 242.5352020263672 90.13975524902344 C 231.00515747070312 76.8533935546875 239.81167602539062 95.57841491699219 231.64675903320312 92.19849395751953"/>
    <path stroke-width="0" fill="rgb(125, 129, 129)" opacity="0.8833961" stroke="rgb(85, 235, 219)" stroke-opacity="1.0" stroke-linecap="round" stroke-linejoin="round" d="M 313.6204528808594 241.95166015625 C 311.6669921875 242.38592529296875 302.67431640625 239.70481872558594 366.3940734863281 240.8001708984375 C 350.5808410644531 244.0347442626953 342.2433166503906 233.96536254882812 339.4970397949219 228.12965393066406 C 360.2037048339844 279.6876525878906 312.93096923828125 271.5003967285156 333.0093078613281 232.22567749023438 C 308.9233093261719 230.01194763183594 367.2980041503906 262.3594055175781 313.6204528808594 241.95166015625"/>
    <path stroke-width="0" fill="rgb(258, 195, 38)" opacity="0.85322" stroke="rgb(64, 113, 26)" stroke-opacity="1.0" stroke-linecap="round" stroke-linejoin="round" d="M 303.6358642578125 105.79129028320312 C 293.42572021484375 87.99292755126953 324.00982666015625 125.3233871459961 313.6346435546875 95.0689468383789 C 313.1036071777344 118.0689926147461 289.36627197265625 144.13104248046875 285.3277282714844 114.26127624511719 C 315.4593811035156 121.01513671875 314.27215576171875 89.8749771118164 294.9671325683594 115.64009857177734 C 316.14654541015625 111.99137115478516 302.5135498046875 99.05711364746094 303.6358642578125 105.79129028320312"/>
    <path stroke-width="0" fill="rgb(92, 230, 76)" opacity="0.115901925" stroke="rgb(0, 0, 0)" stroke-opacity="0.0" stroke-linecap="round" stroke-linejoin="round" d="M 22.850706100463867 16.468151092529297 C 22.803571701049805 21.473731994628906 21.049381256103516 24.445924758911133 14.472119331359863 24.338424682617188 C 9.95138931274414 25.092084884643555 8.421058654785156 21.369665145874023 7.425083160400391 15.451388359069824 C 7.827460289001465 12.171551704406738 11.819975852966309 10.17893123626709 16.131546020507812 9.169054985046387 C 19.108428955078125 9.629386901855469 21.932594299316406 12.467162132263184 22.850706100463867 16.468151092529297"/>
    <path stroke-width="0" fill="rgb(27, 28, 212)" opacity="0.67362374" stroke="rgb(0, 0, 0)" stroke-opacity="0.0" stroke-linecap="round" stroke-linejoin="round" d="M 133.98085021972656 18.83057975769043 C 132.30894470214844 23.312427520751953 129.8653564453125 26.725709915161133 125.99469757080078 28.111085891723633 C 122.31513214111328 27.30944061279297 119.32108306884766 24.702573776245117 119.44673156738281 20.266950607299805 C 119.77603149414062 16.791330337524414 123.06773376464844 13.777169227600098 127.0730209350586 12.270979881286621 C 130.701416015625 13.393684387207031 133.84104919433594 16.192398071289062 133.98085021972656 18.83057975769043"/>
    <path stroke-width="0" fill="rgb(131, 120, 145)" opacity="0.29864287" stroke="rgb(0, 0, 0)" stroke-opacity="0.0" stroke-linecap="round" stroke-linejoin="round" d="M 451.4402160644531 15.353766441345215 C 452.0749206542969 19.765104293823242 448.6204528808594 22.227035522460938 443.91241455078125 22.673768997192383 C 439.1853332519531 22.403322219848633 436.10260009765625 19.864795684814453 437.5128173828125 16.35780143737793 C 437.6072692871094 10.731578826904297 439.58087158203125 7.16836404800415 443.0228271484375 7.867263317108154 C 448.0496826171875 8.457112312316895 451.37225341796875 10.699734687805176 451.4402160644531 15.353766441345215"/>
    <path stroke-width="0" fill="rgb(29, 44, 75)" opacity="0.054797005" stroke="rgb(0, 0, 0)" stroke-opacity="0.0" stroke-linecap="round" stroke-linejoin="round" d="M 439.3858337402344 418.1809387207031 C 438.2748718261719 422.767822265625 435.4861145019531 425.57928466796875 431.14300537109375 426.22662353515625 C 427.00811767578125 426.18438720703125 423.8536071777344 423.44915771484375 423.01788330078125 418.7648010253906 C 424.537841796875 414.7748718261719 427.5110168457031 411.82647705078125 431.6927490234375 410.5031433105469 C 435.9057312011719 411.6047058105469 438.7417907714844 414.4617919921875 439.3858337402344 418.1809387207031"/>
    <path stroke-width="0" fill="rgb(70, 147, 34)" opacity="0.95357656" stroke="rgb(0, 0, 0)" stroke-opacity="0.0" stroke-linecap="round" stroke-linejoin="round" d="M 62.61146926879883 290.5541076660156 C 62.17637634277344 295.2707824707031 59.38286209106445 297.7769470214844 54.25569534301758 298.4592590332031 C 51.64365005493164 297.4794616699219 48.55670928955078 294.40728759765625 47.08952713012695 291.1361389160156 C 47.908782958984375 286.1255187988281 50.2447624206543 283.2185974121094 55.553428649902344 282.8650207519531 C 59.63524627685547 283.4462585449219 62.315921783447266 286.5069885253906 62.61146926879883 290.5541076660156"/>
    <path stroke-width="0" fill="rgb(68, 124, 14)" opacity="0.61587864" stroke="rgb(0, 0, 0)" stroke-opacity="0.0" stroke-linecap="round" stroke-linejoin="round" d="M 25.3275089263916 7.80721378326416 C 24.97589874267578 11.055513381958008 22.654512405395508 14.446160316467285 18.347999572753906 15.738783836364746 C 14.481160163879395 14.912158966064453 11.573148727416992 11.957023620605469 11.384654998779297 7.8293023109436035 C 11.666484832763672 2.930143117904663 13.912647247314453 -0.2279730886220932 18.38235092163086 -1.1647605895996094 C 22.950223922729492 0.28654399514198303 24.647233963012695 3.974601984024048 25.3275089263916 7.80721378326416"/>
    <path stroke-width="0" fill="rgb(174, 235, 95)" opacity="0.86553335" stroke="rgb(0, 0, 0)" stroke-opacity="0.0" stroke-linecap="round" stroke-linejoin="round" d="M 200.5743408203125 413.5534362792969 C 199.16554260253906 417.5093078613281 196.6026153564453 421.19384765625 193.35220336914062 422.3442077636719 C 189.12770080566406 421.41314697265625 186.267333984375 418.5145263671875 186.17620849609375 414.22027587890625 C 186.2508544921875 410.1799621582031 189.02040100097656 407.18475341796875 192.21792602539062 406.8851623535156 C 195.7232208251953 408.9586181640625 199.05567932128906 411.78399658203125 200.5743408203125 413.5534362792969"/>
    <path stroke-width="0" fill="rgb(73, 222, 28)" opacity="0.21243437" stroke="rgb(0, 0, 0)" stroke-opacity="0.0" stroke-linecap="round" stroke-linejoin="round" d="M 147.9599151611328 -127.02710723876953 C 146.88812255859375 -123.02710723876953 143.9599151611328 -120.0988998413086 139.9599151611328 -119.02710723876953 C 135.9599151611328 -120.0988998413086 133.03172302246094 -123.02710723876953 131.9599151611328 -127.02710723876953 C 133.03172302246094 -131.027099609375 135.9599151611328 -133.95530700683594 139.9599151611328 -135.027099609375 C 143.9599151611328 -133.95530700683594 146.88812255859375 -131.027099609375 147.9599151611328 -127.02710723876953"/>
    <path stroke-width="0" fill="rgb(133, 126, 6)" opacity="0.3984053" stroke="rgb(0, 0, 0)" stroke-opacity="0.0" stroke-linecap="round" stroke-linejoin="round" d="M 214.560791015625 382.3470153808594 C 214.28111267089844 386.4938049316406 210.99679565429688 388.72955322265625 206.4523468017578 389.9366455078125 C 202.46035766601562 388.392578125 198.96022033691406 385.7779541015625 197.50274658203125 381.4532165527344 C 198.3409423828125 376.7119140625 201.8368682861328 374.39666748046875 206.0425567626953 374.3773498535156 C 210.6433868408203 374.7413635253906 213.359130859375 377.263916015625 214.560791015625 382.3470153808594"/>
    <path stroke-width="0" fill="rgb(58, 211, 202)" opacity="0.11928733" stroke="rgb(0, 0, 0)" stroke-opacity="0.0" stroke-linecap="round" stroke-linejoin="round" d="M 113.50828552246094 477.3879089355469 C 113.3986587524414 481.48260498046875 110.85787200927734 484.7921142578125 107.4663314819336 485.7626037597656 C 102.81873321533203 483.77264404296875 99.86148834228516 481.35260009765625 99.61404418945312 477.7326965332031 C 100.35785675048828 473.59326171875 102.60240173339844 470.4493408203125 106.8514404296875 469.607177734375 C 111.30924224853516 469.84210205078125 113.79591369628906 472.6922607421875 113.50828552246094 477.3879089355469"/>
    <path stroke-width="0" fill="rgb(161, 202, 124)" opacity="0.8963767" stroke="rgb(0, 0, 0)" stroke-opacity="0.0" stroke-linecap="round" stroke-linejoin="round" d="M 66.72856140136719 371.8885803222656 C 65.58009338378906 376.2125244140625 62.86463165283203 379.38214111328125 59.13152313232422 379.5516052246094 C 55.33066177368164 379.7159729003906 52.55052947998047 376.4424133300781 51.29165267944336 372.665771484375 C 52.709190368652344 368.7041015625 55.05637741088867 365.43731689453125 59.076107025146484 365.1805419921875 C 63.573123931884766 365.4474792480469 66.66455841064453 368.1862487792969 66.72856140136719 371.8885803222656"/>
    <path stroke-width="0" fill="rgb(100, 52, 33)" opacity="0.78040534" stroke="rgb(0, 0, 0)" stroke-opacity="0.0" stroke-linecap="round" stroke-linejoin="round" d="M 157.68450927734375 365.8100280761719 C 156.82276916503906 369.74810791015625 152.87127685546875 371.93145751953125 149.43055725097656 373.3680419921875 C 145.2147216796875 373.7235107421875 142.3636932373047 371.1199645996094 142.56068420410156 366.4154968261719 C 142.75830078125 362.289306640625 146.7058563232422 360.2562561035156 150.3303985595703 358.4510192871094 C 153.950439453125 359.3776550292969 157.89259338378906 361.6485595703125 157.68450927734375 365.8100280761719"/>
    <path stroke-width="0" fill="rgb(106, 99, 127)" opacity="0.8694645" stroke="rgb(0, 0, 0)" stroke-opacity="0.0" stroke-linecap="round" stroke-linejoin="round" d="M 459.5312805175781 375.1272888183594 C 458.3482971191406 379.2633972167969 455.6443176269531 382.3767395019531 452.1673889160156 383.954833984375 C 447.8830871582031 382.2624816894531 445.30517578125 379.1587829589844 444.2299499511719 375.5283508300781 C 445.2693786621094 371.87384033203125 448.1280517578125 368.7874450683594 451.98443603515625 367.12335205078125 C 455.1267395019531 368.9317626953125 458.5663757324219 371.837158203125 459.5312805175781 375.1272888183594"/>
    <path stroke-width="0" fill="rgb(231, 173, 46)" opacity="0.47228333" stroke="rgb(0, 0, 0)" stroke-opacity="0.0" stroke-linecap="round" stroke-linejoin="round" d="M 79.75627136230469 104.56404876708984 C 79.60015869140625 108.88987731933594 77.03268432617188 111.63090515136719 72.25928497314453 112.47528839111328 C 67.62510681152344 112.11023712158203 64.87863159179688 109.2674331665039 64.82482147216797 104.59309387207031 C 65.74805450439453 100.90089416503906 69.17991638183594 98.24724578857422 72.55572509765625 96.61852264404297 C 76.04300689697266 98.01681518554688 79.12373352050781 100.75899505615234 79.75627136230469 104.56404876708984"/>
    <path stroke-width="0" fill="rgb(230, 76, 82)" opacity="0.5765244" stroke="rgb(0, 0, 0)" stroke-opacity="0.0" stroke-linecap="round" stroke-linejoin="round" d="M 190.13648986816406 479.2735290527344 C 189.5953369140625 482.6016845703125 186.98695373535156 486.4872741699219 184.02371215820312 487.49169921875 C 179.8547821044922 486.5279846191406 176.86044311523438 483.86236572265625 176.2236328125 479.66741943359375 C 176.76791381835938 475.434814453125 179.53024291992188 473.04351806640625 183.31878662109375 472.755126953125 C 186.63539123535156 474.0434875488281 189.69235229492188 476.97076416015625 190.13648986816406 479.2735290527344"/>
    <path stroke-width="0" fill="rgb(219, 121, 226)" opacity="0.1739983" stroke="rgb(0, 0, 0)" stroke-opacity="0.0" stroke-linecap="round" stroke-linejoin="round" d="M 8.756026268005371 0.9116380214691162 C 7.856023788452148 4.688713550567627 4.665441989898682 7.349287033081055 0.6028006076812744 8.50354290008545 C -3.007826566696167 7.952773094177246 -5.89749002456665 4.93288516998291 -6.966818332672119 0.9240205883979797 C -5.89495849609375 -3.076197624206543 -2.9667551517486572 -6.004400730133057 1.032932996749878 -7.0761027336120605 C 5.016605854034424 -5.999275207519531 7.712918758392334 -2.9843857288360596 8.756026268005371 0.9116380214691162"/>
    <path stroke-width="0" fill="rgb(121, 115, 99)" opacity="0.8815988" stroke="rgb(0, 0, 0)" stroke-opacity="0.0" stroke-linecap="round" stroke-linejoin="round" d="M 175.08070373535156 162.3963623046875 C 174.74940490722656 166.36143493652344 170.8778533935547 168.1799774169922 166.3878631591797 168.6724853515625 C 163.73519897460938 168.22610473632812 160.79090881347656 165.4150390625 159.0179443359375 160.94007873535156 C 159.0041961669922 157.05516052246094 162.47601318359375 155.21456909179688 167.2353057861328 154.59010314941406 C 171.09527587890625 155.09275817871094 174.23863220214844 157.89453125 175.08070373535156 162.3963623046875"/>
    <path stroke-width="0" fill="rgb(147, 198, 202)" opacity="0.34453046" stroke="rgb(0, 0, 0)" stroke-opacity="0.0" stroke-linecap="round" stroke-linejoin="round" d="M 6.841594219207764 -18.264324188232422 C 5.769797325134277 -14.264324188232422 2.8415939807891846 -11.336121559143066 -1.1584059000015259 -10.264324188232422 C -5.158405780792236 -11.336121559143066 -8.08660888671875 -14.264324188232422 -9.158406257629395 -18.264324188232422 C -8.08660888671875 -22.264324188232422 -5.158405780792236 -25.192527770996094 -1.1584059000015259 -26.264324188232422 C 2.8415939807891846 -25.192527770996094 5.769797325134277 -22.264324188232422 6.841594219207764 -18.264324188232422"/>
    <path stroke-width="0" fill="rgb(220, 112, 124)" opacity="0.44836918" stroke="rgb(0, 0, 0)" stroke-opacity="0.0" stroke-linecap="round" stroke-linejoin="round" d="M -0.20054440200328827 28.436477661132812 C -1.2723411321640015 32.43647766113281 -4.200544357299805 35.364681243896484 -8.200544357299805 36.43647766113281 C -12.200544357299805 35.364681243896484 -15.128747940063477 32.43647766113281 -16.200544357299805 28.436477661132812 C -15.128747940063477 24.436477661132812 -12.200544357299805 21.50827407836914 -8.200544357299805 20.436477661132812 C -4.200544357299805 21.50827407836914 -1.2723411321640015 24.436477661132812 -0.20054440200328827 28.436477661132812"/>
    <path stroke-width="0" fill="rgb(216, 158, 103)" opacity="0.40162784" stroke="rgb(0, 0, 0)" stroke-opacity="0.0" stroke-linecap="round" stroke-linejoin="round" d="M 326.0784606933594 254.84518432617188 C 325.21160888671875 259.34002685546875 322.2715759277344 262.0969543457031 318.52520751953125 262.2729797363281 C 314.26409912109375 261.5998229980469 310.5679931640625 258.9757080078125 310.48260498046875 255.47662353515625 C 311.1459045410156 250.93092346191406 313.69427490234375 247.8493194580078 318.15118408203125 247.67005920410156 C 322.1543273925781 247.99234008789062 325.2722473144531 250.9244384765625 326.0784606933594 254.84518432617188"/>
    <path stroke-width="0" fill="rgb(17, 225, 231)" opacity="0.11094956" stroke="rgb(0, 0, 0)" stroke-opacity="0.0" stroke-linecap="round" stroke-linejoin="round" d="M 11.409170150756836 2.2182114124298096 C 10.708663940429688 6.71042013168335 7.757235050201416 9.551373481750488 3.4571890830993652 10.656661987304688 C -0.766380786895752 9.619750022888184 -3.6158976554870605 6.582968235015869 -4.571440696716309 2.4629697799682617 C -3.4539873600006104 -1.6012650728225708 -0.5257842540740967 -4.529468059539795 3.4797205924987793 -5.60397481918335 C 7.542139053344727 -4.565926551818848 10.631603240966797 -1.7453744411468506 11.409170150756836 2.2182114124298096"/>
    <path stroke-width="0" fill="rgb(225, 18, 252)" opacity="0.0720011" stroke="rgb(0, 0, 0)" stroke-opacity="0.0" stroke-linecap="round" stroke-linejoin="round" d="M 97.21215057373047 58.60901641845703 C 96.15963745117188 62.81785202026367 93.24781036376953 65.5499038696289 89.7309341430664 66.31607055664062 C 86.225830078125 65.67326354980469 82.84872436523438 63.20896530151367 82.14199829101562 60.179443359375 C 83.59712219238281 56.0152587890625 86.26952362060547 52.719669342041016 89.84751892089844 51.79146194458008 C 94.17569732666016 52.32412338256836 97.18562316894531 54.86812973022461 97.21215057373047 58.60901641845703"/>
    <path stroke-width="0" fill="rgb(86, 183, 87)" opacity="0.61729294" stroke="rgb(0, 0, 0)" stroke-opacity="0.0" stroke-linecap="round" stroke-linejoin="round" d="M 19.699228286743164 41.69881057739258 C 19.708526611328125 45.30000305175781 16.645870208740234 47.62251663208008 12.482989311218262 48.4227294921875 C 9.174278259277344 47.90174865722656 6.126389980316162 45.15974807739258 5.643550395965576 41.88679504394531 C 6.753896236419678 38.07289505004883 9.3530855178833 34.715450286865234 12.174092292785645 34.40825271606445 C 16.504865646362305 35.22088623046875 19.485294342041016 37.5954475402832 19.699228286743164 41.69881057739258"/>
    <path stroke-width="0" fill="rgb(138, 206, 180)" opacity="0.020450035" stroke="rgb(0, 0, 0)" stroke-opacity="0.0" stroke-linecap="round" stroke-linejoin="round" d="M 255.9297332763672 460.9468078613281 C 254.77989196777344 464.96490478515625 251.97808837890625 468.0565185546875 248.65878295898438 469.7953796386719 C 244.72557067871094 467.9031982421875 241.82308959960938 464.92742919921875 240.10263061523438 460.9282531738281 C 241.69070434570312 457.87005615234375 244.9191131591797 455.1269226074219 248.94325256347656 453.90692138671875 C 252.7928466796875 453.9622802734375 255.4191436767578 457.04730224609375 255.9297332763672 460.9468078613281"/>
    <path stroke-width="0" fill="rgb(21, 88, 32)" opacity="0.43484372" stroke="rgb(0, 0, 0)" stroke-opacity="0.0" stroke-linecap="round" stroke-linejoin="round" d="M 174.17491149902344 58.24806213378906 C 173.7210235595703 62.497825622558594 171.3706817626953 65.90567016601562 167.24415588378906 65.64595794677734 C 162.70663452148438 65.37911224365234 159.9226531982422 62.542423248291016 159.0742645263672 58.58015441894531 C 160.00750732421875 54.11940002441406 162.5359344482422 50.85095977783203 167.09219360351562 50.886634826660156 C 171.225341796875 51.25586700439453 173.94337463378906 54.000091552734375 174.17491149902344 58.24806213378906"/>
    <path stroke-width="0" fill="rgb(84, 207, 35)" opacity="0.22736245" stroke="rgb(0, 0, 0)" stroke-opacity="0.0" stroke-linecap="round" stroke-linejoin="round" d="M 39.461124420166016 -67.19442749023438 C 38.38932800292969 -63.194427490234375 35.461124420166016 -60.2662239074707 31.461122512817383 -59.194427490234375 C 27.461122512817383 -60.2662239074707 24.532920837402344 -63.194427490234375 23.461122512817383 -67.19442749023438 C 24.532920837402344 -71.19442749023438 27.461122512817383 -74.12262725830078 31.461122512817383 -75.19442749023438 C 35.461124420166016 -74.12262725830078 38.38932800292969 -71.19442749023438 39.461124420166016 -67.19442749023438"/>
    <path stroke-width="0" fill="rgb(80, 178, 89)" opacity="0.69788265" stroke="rgb(0, 0, 0)" stroke-opacity="0.0" stroke-linecap="round" stroke-linejoin="round" d="M 367.7843017578125 201.87583923339844 C 367.9637145996094 206.65420532226562 365.67864990234375 209.3988037109375 361.421630859375 209.65628051757812 C 357.0934143066406 209.2950897216797 353.9801025390625 206.72671508789062 353.4411315917969 202.8796844482422 C 354.7254638671875 198.64842224121094 357.6072082519531 195.7310791015625 361.92578125 194.85670471191406 C 366.319580078125 194.99008178710938 368.5573425292969 197.30258178710938 367.7843017578125 201.87583923339844"/>
    <path stroke-width="0" fill="rgb(49, 76, 44)" opacity="0.3279469" stroke="rgb(0, 0, 0)" stroke-opacity="0.0" stroke-linecap="round" stroke-linejoin="round" d="M 140.86514282226562 87.52481079101562 C 140.36065673828125 91.83680725097656 138.02183532714844 95.37439727783203 133.7733154296875 96.35176086425781 C 129.4931182861328 94.11638641357422 126.4488525390625 91.28250122070312 125.71614837646484 87.80128479003906 C 126.81800079345703 83.63272857666016 129.04446411132812 80.06807708740234 132.8194122314453 79.10054016113281 C 137.41244506835938 80.4747543334961 140.47869873046875 83.17134094238281 140.86514282226562 87.52481079101562"/>
    <path stroke-width="0" fill="rgb(223, 63, 163)" opacity="0.08773011" stroke="rgb(0, 0, 0)" stroke-opacity="0.0" stroke-linecap="round" stroke-linejoin="round" d="M 275.01336669921875 436.16375732421875 C 273.5144348144531 440.3701477050781 270.8467102050781 443.76226806640625 267.5174865722656 444.9674072265625 C 263.849853515625 443.52545166015625 260.9610595703125 440.499267578125 259.69171142578125 437.1324768066406 C 260.80401611328125 433.46514892578125 263.93231201171875 430.8092956542969 267.8916015625 430.0903625488281 C 271.82525634765625 430.09051513671875 274.87103271484375 432.4750671386719 275.01336669921875 436.16375732421875"/>
    <path stroke-width="0" fill="rgb(119, 177, 26)" opacity="0.8431969" stroke="rgb(0, 0, 0)" stroke-opacity="0.0" stroke-linecap="round" stroke-linejoin="round" d="M 172.65541076660156 162.79722595214844 C 172.195556640625 166.58868408203125 169.7920379638672 169.88633728027344 165.7987060546875 169.46571350097656 C 161.04086303710938 168.80856323242188 158.36390686035156 166.0263214111328 158.18218994140625 162.18141174316406 C 158.47679138183594 158.04884338378906 161.01231384277344 155.4025115966797 164.03048706054688 155.46995544433594 C 167.6698760986328 156.52708435058594 170.7342529296875 159.37911987304688 172.65541076660156 162.79722595214844"/>
    <path stroke-width="0" fill="rgb(126, 250, 54)" opacity="0.51693475" stroke="rgb(0, 0, 0)" stroke-opacity="0.0" stroke-linecap="round" stroke-linejoin="round" d="M 187.44985961914062 60.84275817871094 C 186.727294921875 64.43180847167969 183.76678466796875 67.23497009277344 179.64207458496094 68.29202270507812 C 175.70849609375 68.2658462524414 172.66893005371094 65.58283233642578 172.24484252929688 62.00640106201172 C 173.03684997558594 56.31258010864258 175.48707580566406 52.98942947387695 179.8328857421875 53.20000457763672 C 184.88327026367188 53.690765380859375 187.87757873535156 56.23512649536133 187.44985961914062 60.84275817871094"/>
    <path stroke-width="0" fill="rgb(231, 202, 181)" opacity="0.5320953" stroke="rgb(0, 0, 0)" stroke-opacity="0.0" stroke-linecap="round" stroke-linejoin="round" d="M 162.10409545898438 303.16162109375 C 162.27642822265625 306.3445739746094 159.5110321044922 309.3415832519531 155.88955688476562 311.07208251953125 C 152.32009887695312 309.1405029296875 149.60702514648438 305.91949462890625 148.2464141845703 303.1604919433594 C 149.4113006591797 299.1007385253906 151.9193878173828 295.39324951171875 155.04367065429688 294.1802062988281 C 159.9894561767578 295.5009765625 161.82080078125 298.5794372558594 162.10409545898438 303.16162109375"/>
  </g>
</svg>
