<?xml version="1.0" ?>
<svg xmlns="http://www.w3.org/2000/svg" version="1.1" width="512" height="512">
  <defs/>
  <g>
    <path stroke-width="0" fill="rgb(45, 123, 109)" opacity="0.978664" stroke="rgb(139, 182, 153)" stroke-opacity="1.0" stroke-linecap="round" stroke-linejoin="round" d="M 540.606201171875 308.4471740722656 C 578.2432250976562 717.5508422851562 523.9196166992188 607.5655517578125 409.77728271484375 560.2735595703125 C -4.815953731536865 574.9983520507812 -43.95188903808594 610.2658081054688 -51.99632263183594 372.31396484375 C -35.529502868652344 305.1559143066406 -20.042537689208984 302.2029724121094 -64.58808898925781 334.7370910644531 C 166.0463409423828 416.9695129394531 272.78924560546875 447.87860107421875 540.606201171875 308.4471740722656"/>
    <path stroke-width="0" fill="rgb(126, 90, 183)" opacity="1.2151655" stroke="rgb(108, 164, 111)" stroke-opacity="1.0" stroke-linecap="round" stroke-linejoin="round" d="M 531.5294189453125 -27.256582260131836 C 497.6473693847656 128.59988403320312 518.7061767578125 204.40469360351562 371.5614929199219 232.4484405517578 C 190.638916015625 235.06622314453125 167.0551300048828 297.1412658691406 169.0504150390625 -8.865762710571289 C 210.9188232421875 -99.50502014160156 286.98626708984375 -51.62980651855469 403.1378173828125 -41.173099517822266 C 511.8313903808594 -42.366355895996094 529.109375 -45.23481750488281 531.5294189453125 -27.256582260131836"/>
    <path stroke-width="0" fill="rgb(-50, 114, 89)" opacity="0.7941495" stroke="rgb(245, 97, 201)" stroke-opacity="1.0" stroke-linecap="round" stroke-linejoin="round" d="M 184.94078063964844 175.2805633544922 C 189.15432739257812 355.08123779296875 168.21035766601562 382.59796142578125 237.18331909179688 415.89599609375 C -46.275726318359375 415.736572265625 -51.07783508300781 401.4429016113281 -49.024051666259766 369.0210876464844 C -52.37535095214844 79.1630859375 -55.43769836425781 54.96458435058594 -13.982484817504883 -48.67118453979492 C 358.9052429199219 -47.64445495605469 343.72149658203125 -8.150137901306152 184.94078063964844 175.2805633544922"/>
    <path stroke-width="0" fill="rgb(53, -5, 43)" opacity="1.0468816" stroke="rgb(144, 236, 18)" stroke-opacity="1.0" stroke-linecap="round" stroke-linejoin="round" d="M 567.7764282226562 412.2989501953125 C 630.6690063476562 456.5809326171875 660.8590087890625 463.5943908691406 292.16357421875 422.2811279296875 C 331.0750732421875 155.48092651367188 284.190673828125 390.2347106933594 305.39849853515625 170.6694793701172 C 260.38323974609375 -82.28301239013672 338.8547058105469 -53.52115249633789 483.0541076660156 -40.20711898803711 C 578.5626220703125 -28.153284072875977 566.8272094726562 -10.542065620422363 567.7764282226562 412.2989501953125"/>
    <path stroke-width="0" fill="rgb(17, -11, 64)" opacity="1.0111299" stroke="rgb(5, 212, 198)" stroke-opacity="1.0" stroke-linecap="round" stroke-linejoin="round" d="M 201.72535705566406 282.635009765625 C 170.78939819335938 277.45941162109375 255.1978302001953 472.6416015625 191.0493927001953 447.0559997558594 C 212.535400390625 294.30853271484375 -42.41092300415039 204.22410583496094 79.0449447631836 133.13082885742188 C 54.05352020263672 185.1066131591797 56.216148376464844 177.84132385253906 27.939586639404297 242.76284790039062 C 108.02490997314453 247.15867614746094 232.05926513671875 179.3074951171875 201.72535705566406 282.635009765625"/>
    <path stroke-width="0" fill="rgb(28, -7, 34)" opacity="1.0047123" stroke="rgb(249, 203, 117)" stroke-opacity="1.0" stroke-linecap="round" stroke-linejoin="round" d="M 353.0267028808594 114.2546157836914 C 345.1416931152344 187.23004150390625 297.7798767089844 154.44223022460938 245.61412048339844 177.79510498046875 C 95.82626342773438 87.14508819580078 -7.056175708770752 199.12220764160156 56.602081298828125 76.51702117919922 C 82.760498046875 -26.170888900756836 92.2758560180664 -30.532833099365234 196.10104370117188 -27.8926944732666 C 219.650634765625 -42.79623794555664 282.9459533691406 -81.55961608886719 353.0267028808594 114.2546157836914"/>
    <path stroke-width="0" fill="rgb(54, 141, 83)" opacity="0.9987666" stroke="rgb(30, 163, 36)" stroke-opacity="1.0" stroke-linecap="round" stroke-linejoin="round" d="M 578.4916381835938 404.7875671386719 C 694.0384521484375 439.3053894042969 846.5838012695312 529.8840942382812 255.24879455566406 514.56103515625 C 445.6478271484375 199.61500549316406 286.7271728515625 309.3796691894531 326.00726318359375 117.47367095947266 C 381.611328125 -29.616525650024414 409.5430603027344 -14.750907897949219 485.2650451660156 -32.286285400390625 C 565.7853393554688 -14.515660285949707 562.3096313476562 3.841090679168701 578.4916381835938 404.7875671386719"/>
    <path stroke-width="0" fill="rgb(40, 128, 112)" opacity="0.95825624" stroke="rgb(133, 105, 67)" stroke-opacity="1.0" stroke-linecap="round" stroke-linejoin="round" d="M 124.83719635009766 63.364105224609375 C 121.2737045288086 113.97960662841797 113.96734619140625 129.37794494628906 72.6484603881836 143.53195190429688 C -19.664995193481445 140.14747619628906 -29.584522247314453 135.67710876464844 -35.587039947509766 48.920433044433594 C -28.461292266845703 -17.69627571105957 -20.302188873291016 -27.176698684692383 46.078514099121094 -28.482553482055664 C 109.44535827636719 -1.7131178379058838 114.53411102294922 8.203154563903809 124.83719635009766 63.364105224609375"/>
    <path stroke-width="0" fill="rgb(55, 120, 114)" opacity="0.80410355" stroke="rgb(116, 144, 4)" stroke-opacity="1.0" stroke-linecap="round" stroke-linejoin="round" d="M 110.27034759521484 56.24272155761719 C 65.79331970214844 178.66015625 92.16527557373047 210.15399169921875 -9.797666549682617 337.29815673828125 C -40.7213249206543 243.1691131591797 -35.085670471191406 217.4142608642578 -35.48726272583008 96.01094055175781 C -23.68910789489746 69.3648452758789 -13.665122985839844 63.008506774902344 82.46188354492188 62.70528030395508 C 120.22598266601562 66.57109832763672 131.00376892089844 72.32622528076172 110.27034759521484 56.24272155761719"/>
    <path stroke-width="0" fill="rgb(47, 126, 112)" opacity="1.011258" stroke="rgb(156, 157, 240)" stroke-opacity="1.0" stroke-linecap="round" stroke-linejoin="round" d="M 235.53262329101562 43.423091888427734 C 212.28671264648438 123.69166564941406 191.25624084472656 117.7811050415039 116.11970520019531 111.35675048828125 C 45.8111686706543 109.51122283935547 42.2337646484375 91.93196868896484 35.46800994873047 2.5178463459014893 C 31.545429229736328 -31.330463409423828 42.56733703613281 -35.89434814453125 94.0733642578125 -37.2251091003418 C 221.00274658203125 -91.22876739501953 218.37094116210938 -78.4295425415039 235.53262329101562 43.423091888427734"/>
    <path stroke-width="0" fill="rgb(43, 131, 117)" opacity="1.026726" stroke="rgb(91, 111, 177)" stroke-opacity="1.0" stroke-linecap="round" stroke-linejoin="round" d="M 200.17819213867188 130.291259765625 C 159.6196746826172 371.5089416503906 142.1771240234375 76.6675796508789 164.12965393066406 540.5453491210938 C -127.01535034179688 550.3731079101562 -88.73860168457031 495.13446044921875 -23.978628158569336 438.38555908203125 C 54.1467399597168 114.16679382324219 53.989559173583984 78.08345794677734 335.1747741699219 69.49559783935547 C 275.1648254394531 26.08035659790039 272.0188903808594 191.37066650390625 200.17819213867188 130.291259765625"/>
    <path stroke-width="0" fill="rgb(54, 141, 82)" opacity="1.017013" stroke="rgb(170, 171, 53)" stroke-opacity="1.0" stroke-linecap="round" stroke-linejoin="round" d="M 524.7100219726562 1.8466542959213257 C 500.6864929199219 125.36040496826172 602.5077514648438 168.83250427246094 271.3998718261719 239.79296875 C 406.6919250488281 175.7150421142578 260.8782958984375 154.9283447265625 206.2776641845703 -25.672351837158203 C 304.89898681640625 -86.0112533569336 335.77398681640625 -53.68967056274414 387.0159606933594 -45.11587142944336 C 518.9805908203125 -42.30170822143555 528.1303100585938 -37.58413314819336 524.7100219726562 1.8466542959213257"/>
    <path stroke-width="0" fill="rgb(91, 96, 132)" opacity="0.8301469" stroke="rgb(80, 92, 145)" stroke-opacity="1.0" stroke-linecap="round" stroke-linejoin="round" d="M 420.0992431640625 -5.714635848999023 C 432.51593017578125 169.28318786621094 281.37652587890625 50.2103385925293 286.5289306640625 54.97969436645508 C 106.71876525878906 54.55705642700195 174.05592346191406 96.21554565429688 148.50042724609375 -25.753713607788086 C 154.8877716064453 -31.89655303955078 169.101806640625 -29.487001419067383 216.2349853515625 -28.543506622314453 C 271.21038818359375 -37.61959457397461 283.8244323730469 -37.228580474853516 420.0992431640625 -5.714635848999023"/>
    <path stroke-width="0" fill="rgb(116, 86, 88)" opacity="0.5679502" stroke="rgb(252, 26, 53)" stroke-opacity="1.0" stroke-linecap="round" stroke-linejoin="round" d="M 231.4318084716797 75.35606384277344 C 229.2294464111328 87.51909637451172 217.84185791015625 90.31625366210938 201.21669006347656 90.38945770263672 C 150.0334930419922 93.46989440917969 154.94309997558594 86.4158706665039 140.91270446777344 24.063438415527344 C 138.8241424560547 12.570199966430664 141.9170684814453 0.5272854566574097 152.5308837890625 -9.046854019165039 C 206.36581420898438 46.553863525390625 235.4460906982422 -0.20634989440441132 231.4318084716797 75.35606384277344"/>
    <path stroke-width="0" fill="rgb(55, 127, 109)" opacity="1.0489292" stroke="rgb(166, 64, 118)" stroke-opacity="1.0" stroke-linecap="round" stroke-linejoin="round" d="M 245.25001525878906 59.06120300292969 C 188.9151611328125 57.24721145629883 223.78622436523438 80.64234924316406 221.23037719726562 100.78838348388672 C 196.31024169921875 14.743520736694336 143.7804718017578 149.9372100830078 125.64112854003906 7.530095100402832 C 133.56869506835938 -15.743754386901855 140.35696411132812 -23.80525016784668 149.39027404785156 -27.969160079956055 C 321.855224609375 -21.670740127563477 269.4443054199219 0.32469266653060913 245.25001525878906 59.06120300292969"/>
    <path stroke-width="0" fill="rgb(254, 238, 211)" opacity="0.8774623" stroke="rgb(40, 28, 167)" stroke-opacity="1.0" stroke-linecap="round" stroke-linejoin="round" d="M 297.2069396972656 214.60604858398438 C 242.7177276611328 211.94944763183594 271.5825500488281 246.265625 307.21728515625 220.0450897216797 C 298.880615234375 212.55422973632812 258.4250183105469 215.91873168945312 277.51568603515625 225.98709106445312 C 218.0128936767578 231.7802734375 298.88983154296875 191.31358337402344 239.7784881591797 193.0552978515625 C 286.3298034667969 125.32638549804688 331.6002502441406 201.51438903808594 297.2069396972656 214.60604858398438"/>
    <path stroke-width="0" fill="rgb(245, 241, 252)" opacity="1.0649682" stroke="rgb(50, 94, 209)" stroke-opacity="1.0" stroke-linecap="round" stroke-linejoin="round" d="M 288.5916748046875 204.5409698486328 C 312.16754150390625 162.90293884277344 337.32989501953125 194.3350372314453 241.17843627929688 235.7689666748047 C 286.42401123046875 108.34138488769531 201.28201293945312 309.3170166015625 187.33480834960938 183.03018188476562 C 289.1286926269531 184.1051788330078 281.20623779296875 130.16964721679688 308.8288269042969 163.96481323242188 C 284.7081604003906 176.0460968017578 279.02142333984375 201.98390197753906 288.5916748046875 204.5409698486328"/>
    <path stroke-width="0" fill="rgb(-33, 72, -11)" opacity="0.92845774" stroke="rgb(213, 24, 248)" stroke-opacity="1.0" stroke-linecap="round" stroke-linejoin="round" d="M 293.6261291503906 185.99293518066406 C 310.3728942871094 183.89328002929688 320.73748779296875 194.13449096679688 304.843505859375 184.40756225585938 C 318.2912292480469 181.3529052734375 272.2511901855469 158.79637145996094 265.3188781738281 191.76182556152344 C 281.1849365234375 213.24232482910156 298.0676574707031 190.4789581298828 312.0627746582031 184.22520446777344 C 281.2895812988281 171.26177978515625 300.14373779296875 195.13368225097656 293.6261291503906 185.99293518066406"/>
    <path stroke-width="0" fill="rgb(27, -16, 48)" opacity="0.97004783" stroke="rgb(249, 154, 188)" stroke-opacity="1.0" stroke-linecap="round" stroke-linejoin="round" d="M 359.0677795410156 417.55230712890625 C 327.9113464355469 415.9822998046875 401.164306640625 401.5399475097656 209.25816345214844 445.855224609375 C 183.95423889160156 375.55908203125 91.1697006225586 399.9100341796875 326.7166442871094 397.97161865234375 C 370.80194091796875 421.0095520019531 355.2603759765625 418.66900634765625 360.8763122558594 397.85003662109375 C 304.2514953613281 402.9555358886719 286.9143981933594 381.51922607421875 359.0677795410156 417.55230712890625"/>
    <path stroke-width="0" fill="rgb(151, 164, 209)" opacity="0.47985753" stroke="rgb(72, 30, 75)" stroke-opacity="1.0" stroke-linecap="round" stroke-linejoin="round" d="M 310.3243713378906 418.2149658203125 C 322.10577392578125 456.4708557128906 287.2577819824219 419.3050231933594 256.1644287109375 419.58734130859375 C 251.66873168945312 428.92559814453125 256.1473388671875 412.97930908203125 252.8106231689453 397.796875 C 258.917236328125 396.76959228515625 252.51840209960938 424.33233642578125 253.2166290283203 420.6322937011719 C 247.1570281982422 414.3681640625 247.79161071777344 419.2666320800781 310.3243713378906 418.2149658203125"/>
    <path stroke-width="0" fill="rgb(264, 140, -85)" opacity="0.9928557" stroke="rgb(81, 105, 16)" stroke-opacity="1.0" stroke-linecap="round" stroke-linejoin="round" d="M 269.4282531738281 386.44927978515625 C 309.0282287597656 383.7178039550781 270.4814147949219 440.0211486816406 271.5743103027344 416.6591491699219 C 199.16448974609375 413.6661682128906 226.5783233642578 423.2110290527344 219.3902130126953 381.78778076171875 C 225.4969940185547 394.0519104003906 245.8916473388672 369.6288146972656 238.2156524658203 408.93841552734375 C 233.77587890625 376.5289001464844 270.10540771484375 408.4918212890625 269.4282531738281 386.44927978515625"/>
    <path stroke-width="0" fill="rgb(182, 41, 51)" opacity="1.018917" stroke="rgb(144, 67, 133)" stroke-opacity="1.0" stroke-linecap="round" stroke-linejoin="round" d="M 290.56939697265625 197.2095184326172 C 279.0499267578125 152.67977905273438 250.67919921875 220.11831665039062 302.1859436035156 186.64349365234375 C 289.8424072265625 210.07386779785156 272.6245422363281 214.46005249023438 262.181396484375 192.71490478515625 C 257.1728210449219 169.0350799560547 289.7453918457031 159.6827850341797 290.69720458984375 177.28961181640625 C 309.70355224609375 175.62754821777344 297.85382080078125 184.03018188476562 290.56939697265625 197.2095184326172"/>
    <path stroke-width="0" fill="rgb(271, 257, 255)" opacity="0.955486" stroke="rgb(33, 182, 73)" stroke-opacity="1.0" stroke-linecap="round" stroke-linejoin="round" d="M 317.7707824707031 182.9293975830078 C 319.7234191894531 187.87939453125 310.96063232421875 233.9931640625 260.194091796875 227.98472595214844 C 276.36456298828125 205.00135803222656 298.3174133300781 215.25416564941406 296.42889404296875 219.75892639160156 C 281.4680480957031 222.0208282470703 310.2888488769531 201.08505249023438 290.2314147949219 151.99557495117188 C 312.12677001953125 147.90342712402344 319.4349670410156 189.61474609375 317.7707824707031 182.9293975830078"/>
    <path stroke-width="0" fill="rgb(265, 217, 198)" opacity="0.91597223" stroke="rgb(149, 5, 211)" stroke-opacity="1.0" stroke-linecap="round" stroke-linejoin="round" d="M 511.7038879394531 489.84393310546875 C 473.4156799316406 469.9613342285156 417.4004211425781 436.33856201171875 546.3035278320312 509.6257019042969 C 429.3117370605469 419.4454040527344 425.5213317871094 400.9686584472656 400.1182556152344 383.9349060058594 C 370.6548767089844 351.8312683105469 299.0920104980469 275.026123046875 355.0543212890625 341.3543701171875 C 429.9593811035156 417.53582763671875 439.4781188964844 424.6357727050781 511.7038879394531 489.84393310546875"/>
    <path stroke-width="0" fill="rgb(30, 0, 76)" opacity="0.9832242" stroke="rgb(172, 68, 187)" stroke-opacity="1.0" stroke-linecap="round" stroke-linejoin="round" d="M 285.8447265625 394.66082763671875 C 278.2096252441406 456.81646728515625 339.44268798828125 370.7737731933594 311.2634582519531 434.59521484375 C 306.21539306640625 443.2084655761719 289.1415710449219 422.1393737792969 304.65625 437.7496337890625 C 302.6517639160156 443.5830383300781 293.3529357910156 338.5775146484375 315.5560302734375 400.0333251953125 C 427.7557373046875 391.48382568359375 276.2304382324219 415.2852783203125 285.8447265625 394.66082763671875"/>
    <path stroke-width="0" fill="rgb(44, 136, 111)" opacity="0.9703311" stroke="rgb(63, 146, 150)" stroke-opacity="1.0" stroke-linecap="round" stroke-linejoin="round" d="M 496.81427001953125 -3.428300619125366 C 184.7019805908203 154.30126953125 382.7994689941406 157.03567504882812 222.95919799804688 139.04183959960938 C 154.5107879638672 51.138145446777344 217.6642608642578 384.30743408203125 -18.751432418823242 489.3529968261719 C -40.90061569213867 30.842700958251953 163.3029327392578 75.56217193603516 127.70665740966797 52.32716751098633 C 281.8196105957031 54.712947845458984 301.2716979980469 82.26224517822266 496.81427001953125 -3.428300619125366"/>
    <path stroke-width="0" fill="rgb(34, -1, 48)" opacity="0.8940709" stroke="rgb(56, 242, 114)" stroke-opacity="1.0" stroke-linecap="round" stroke-linejoin="round" d="M 222.30430603027344 173.91114807128906 C 242.0770263671875 161.7286834716797 244.68199157714844 201.8351287841797 230.214111328125 206.06044006347656 C 204.95867919921875 215.7045440673828 187.82347106933594 167.32354736328125 231.14132690429688 170.46421813964844 C 239.65525817871094 186.9593048095703 219.4893798828125 178.83074951171875 232.12718200683594 173.29782104492188 C 185.43966674804688 182.42710876464844 245.62347412109375 162.07301330566406 222.30430603027344 173.91114807128906"/>
    <path stroke-width="0" fill="rgb(278, 225, 187)" opacity="0.97996074" stroke="rgb(224, 148, 224)" stroke-opacity="1.0" stroke-linecap="round" stroke-linejoin="round" d="M 82.39799499511719 422.491943359375 C 73.87252807617188 422.08416748046875 75.56575012207031 427.83172607421875 62.40846633911133 432.54278564453125 C 80.83902740478516 429.8858337402344 80.30390167236328 411.40667724609375 41.155303955078125 455.8815002441406 C 44.39718246459961 443.3299560546875 131.3241424560547 384.43963623046875 180.77537536621094 304.8987731933594 C 71.48345947265625 441.455078125 45.93620300292969 436.29632568359375 82.39799499511719 422.491943359375"/>
    <path stroke-width="0" fill="rgb(275, 256, -90)" opacity="1.2200589" stroke="rgb(184, 127, 243)" stroke-opacity="1.0" stroke-linecap="round" stroke-linejoin="round" d="M 269.2328186035156 212.6912384033203 C 273.4566345214844 211.3430633544922 321.3466491699219 182.96585083007812 266.0352478027344 175.5242462158203 C 304.9180908203125 164.33724975585938 293.763671875 191.10606384277344 269.6552734375 219.57460021972656 C 298.95965576171875 218.06858825683594 297.4865417480469 216.45787048339844 277.32855224609375 220.9595489501953 C 257.9374084472656 213.0394744873047 284.7274475097656 240.48419189453125 269.2328186035156 212.6912384033203"/>
    <path stroke-width="0" fill="rgb(258, 248, 277)" opacity="1.0280412" stroke="rgb(108, 154, 4)" stroke-opacity="1.0" stroke-linecap="round" stroke-linejoin="round" d="M 260.32342529296875 176.9114227294922 C 224.986328125 187.5966033935547 230.46580505371094 142.177978515625 198.9964141845703 186.41551208496094 C 190.9229278564453 250.68716430664062 168.29708862304688 165.17013549804688 203.99813842773438 153.2762908935547 C 203.7991180419922 136.23202514648438 208.04678344726562 154.94973754882812 206.2095947265625 133.93991088867188 C 199.8367462158203 137.6820831298828 205.27468872070312 156.9020538330078 260.32342529296875 176.9114227294922"/>
    <path stroke-width="0" fill="rgb(-19, -11, 45)" opacity="0.90268946" stroke="rgb(168, 73, 157)" stroke-opacity="1.0" stroke-linecap="round" stroke-linejoin="round" d="M 187.73934936523438 218.66314697265625 C 188.29818725585938 226.29660034179688 186.4503936767578 216.51181030273438 191.07582092285156 218.3331756591797 C 234.69778442382812 261.5615539550781 274.6546325683594 223.0729217529297 250.47592163085938 221.4408416748047 C 195.92962646484375 236.60324096679688 184.96517944335938 208.24578857421875 182.2229766845703 168.31875610351562 C 168.55809020996094 219.0123291015625 202.1938018798828 223.5281219482422 187.73934936523438 218.66314697265625"/>
    <path stroke-width="0" fill="rgb(18, -27, 60)" opacity="0.96567196" stroke="rgb(34, 76, 145)" stroke-opacity="1.0" stroke-linecap="round" stroke-linejoin="round" d="M 229.67282104492188 146.76370239257812 C 206.97901916503906 134.59336853027344 193.22927856445312 161.24234008789062 183.1339874267578 166.52516174316406 C 176.3815155029297 243.4759979248047 188.54876708984375 143.9736328125 198.55856323242188 145.57470703125 C 182.0123291015625 147.2850341796875 187.46299743652344 115.41349029541016 182.88746643066406 111.05262756347656 C 196.57455444335938 133.96493530273438 214.5703582763672 134.73712158203125 229.67282104492188 146.76370239257812"/>
    <path stroke-width="0" fill="rgb(281, 215, -76)" opacity="1.1799072" stroke="rgb(146, 166, 166)" stroke-opacity="1.0" stroke-linecap="round" stroke-linejoin="round" d="M 227.3472442626953 197.16917419433594 C 245.30960083007812 146.36769104003906 182.15463256835938 182.69070434570312 225.69908142089844 199.92544555664062 C 259.4161376953125 191.77134704589844 220.3700714111328 153.07354736328125 232.58963012695312 181.87828063964844 C 212.97189331054688 179.4292755126953 217.21957397460938 186.11148071289062 229.2969970703125 182.13815307617188 C 220.9595489501953 174.9043731689453 209.1557159423828 183.3895263671875 227.3472442626953 197.16917419433594"/>
    <path stroke-width="0" fill="rgb(300, 253, 316)" opacity="1.0943131" stroke="rgb(182, 254, 38)" stroke-opacity="1.0" stroke-linecap="round" stroke-linejoin="round" d="M 296.26031494140625 134.28387451171875 C 292.1478271484375 155.42453002929688 281.5878601074219 145.07078552246094 300.726318359375 145.0435333251953 C 297.8273620605469 145.7312774658203 299.7276611328125 132.52154541015625 288.41070556640625 161.08599853515625 C 291.9267272949219 173.1843719482422 292.17572021484375 164.22125244140625 273.46807861328125 165.10476684570312 C 286.8985595703125 151.7382354736328 309.01251220703125 160.18650817871094 296.26031494140625 134.28387451171875"/>
    <path stroke-width="0" fill="rgb(33, 64, 81)" opacity="0.28507903" stroke="rgb(41, 156, 31)" stroke-opacity="1.0" stroke-linecap="round" stroke-linejoin="round" d="M 214.54888916015625 188.7004852294922 C 209.11070251464844 181.00076293945312 218.51226806640625 186.8705596923828 238.17066955566406 183.75347900390625 C 212.84567260742188 179.71742248535156 212.353759765625 206.94004821777344 243.43751525878906 191.41702270507812 C 218.00193786621094 173.84742736816406 235.35118103027344 170.82603454589844 225.06869506835938 196.3127899169922 C 238.93467712402344 185.14895629882812 213.93479919433594 168.7575225830078 214.54888916015625 188.7004852294922"/>
    <path stroke-width="0" fill="rgb(265, 259, 265)" opacity="0.561951" stroke="rgb(177, 115, 184)" stroke-opacity="1.0" stroke-linecap="round" stroke-linejoin="round" d="M 251.07003784179688 176.73683166503906 C 245.84413146972656 193.01763916015625 245.96495056152344 164.6277618408203 210.4965057373047 159.08474731445312 C 186.5735626220703 194.26051330566406 186.0087432861328 153.33480834960938 223.3512725830078 162.34500122070312 C 233.21417236328125 164.926025390625 245.3458709716797 181.94122314453125 252.94869995117188 179.9969024658203 C 207.4063720703125 129.64332580566406 239.34878540039062 142.40921020507812 251.07003784179688 176.73683166503906"/>
    <path stroke-width="0" fill="rgb(223, 232, -57)" opacity="0.5891657" stroke="rgb(248, 218, 2)" stroke-opacity="1.0" stroke-linecap="round" stroke-linejoin="round" d="M 245.25547790527344 161.77467346191406 C 218.95989990234375 241.31297302246094 190.47052001953125 167.75863647460938 232.59991455078125 179.442626953125 C 243.96682739257812 234.08856201171875 212.65524291992188 225.63031005859375 238.7933807373047 205.10252380371094 C 201.01263427734375 184.2461700439453 219.18914794921875 157.12911987304688 241.5209197998047 195.88804626464844 C 211.2645263671875 185.78341674804688 253.14796447753906 178.5372314453125 245.25547790527344 161.77467346191406"/>
    <path stroke-width="0" fill="rgb(-54, 69, 42)" opacity="1.0222663" stroke="rgb(186, 43, 132)" stroke-opacity="1.0" stroke-linecap="round" stroke-linejoin="round" d="M 225.34022521972656 169.86334228515625 C 231.1852264404297 163.42828369140625 238.7241973876953 173.1026611328125 229.4571990966797 194.6793670654297 C 219.74571228027344 201.49502563476562 203.78640747070312 185.98660278320312 228.4149932861328 175.9972686767578 C 206.48992919921875 189.03189086914062 255.94924926757812 170.2890625 231.38436889648438 184.91094970703125 C 220.5990753173828 173.0789337158203 260.5638122558594 181.4203643798828 225.34022521972656 169.86334228515625"/>
    <path stroke-width="0" fill="rgb(35, -15, 100)" opacity="0.9363971" stroke="rgb(88, 236, 179)" stroke-opacity="1.0" stroke-linecap="round" stroke-linejoin="round" d="M 286.4058532714844 232.60423278808594 C 245.0034637451172 202.7095184326172 218.5335235595703 229.35958862304688 228.52197265625 223.6000518798828 C 270.0400390625 226.41847229003906 243.97088623046875 229.67823791503906 219.20529174804688 235.77426147460938 C 259.52923583984375 235.27618408203125 232.46006774902344 226.19940185546875 263.88604736328125 233.72525024414062 C 234.19061279296875 249.76290893554688 195.7545166015625 225.33511352539062 286.4058532714844 232.60423278808594"/>
    <path stroke-width="0" fill="rgb(5, 58, 74)" opacity="0.28566042" stroke="rgb(41, 158, 147)" stroke-opacity="1.0" stroke-linecap="round" stroke-linejoin="round" d="M 184.63392639160156 227.04441833496094 C 195.41610717773438 189.24468994140625 174.52352905273438 218.1328125 157.86776733398438 277.7698974609375 C 181.33221435546875 203.5244140625 183.5457000732422 205.58238220214844 192.6973114013672 223.6361541748047 C 184.82261657714844 203.5595245361328 200.62388610839844 236.68858337402344 176.60018920898438 219.54859924316406 C 175.0769500732422 232.42752075195312 175.03759765625 227.30677795410156 184.63392639160156 227.04441833496094"/>
    <path stroke-width="0" fill="rgb(43, -25, 62)" opacity="0.73685944" stroke="rgb(238, 156, 136)" stroke-opacity="1.0" stroke-linecap="round" stroke-linejoin="round" d="M 175.6477508544922 332.30255126953125 C 161.86964416503906 284.5385437011719 164.89569091796875 296.1181640625 172.96202087402344 295.226318359375 C 196.8209686279297 353.3878173828125 202.9090118408203 277.0804138183594 182.9501953125 282.9844665527344 C 185.88143920898438 354.12811279296875 179.81068420410156 256.1443176269531 164.44290161132812 315.30218505859375 C 155.47067260742188 309.73858642578125 173.45033264160156 322.0729675292969 175.6477508544922 332.30255126953125"/>
    <path stroke-width="0" fill="rgb(240, 252, 256)" opacity="0.7499782" stroke="rgb(186, 79, 101)" stroke-opacity="1.0" stroke-linecap="round" stroke-linejoin="round" d="M 216.8685302734375 163.6658477783203 C 266.6775817871094 175.48756408691406 264.5207214355469 197.58053588867188 244.6715545654297 173.7171173095703 C 206.5347442626953 151.5894317626953 183.5211944580078 191.3822479248047 201.71119689941406 211.46339416503906 C 202.84030151367188 146.56944274902344 222.18795776367188 160.39764404296875 206.19544982910156 181.9110107421875 C 200.7928466796875 169.4542694091797 204.78103637695312 172.9893341064453 216.8685302734375 163.6658477783203"/>
    <path stroke-width="0" fill="rgb(249, 247, 247)" opacity="0.9793133" stroke="rgb(47, 240, 188)" stroke-opacity="1.0" stroke-linecap="round" stroke-linejoin="round" d="M 249.0710906982422 192.44464111328125 C 329.92608642578125 237.00607299804688 286.8870544433594 222.18167114257812 217.03875732421875 226.2939453125 C 206.12205505371094 207.68873596191406 219.91354370117188 201.98214721679688 207.86572265625 222.74180603027344 C 247.7720184326172 201.1483917236328 241.45860290527344 197.5318603515625 246.478515625 208.37913513183594 C 248.57119750976562 219.77928161621094 250.88766479492188 233.19073486328125 249.0710906982422 192.44464111328125"/>
    <path stroke-width="0" fill="rgb(42, 8, -14)" opacity="0.69788444" stroke="rgb(57, 64, 14)" stroke-opacity="1.0" stroke-linecap="round" stroke-linejoin="round" d="M 309.0415344238281 318.4568176269531 C 316.7962341308594 325.720947265625 303.8498229980469 304.59344482421875 314.12420654296875 336.1573791503906 C 287.384765625 312.80975341796875 328.81341552734375 314.5466613769531 317.2591857910156 298.49072265625 C 308.25482177734375 325.2350158691406 319.7212219238281 331.08441162109375 309.3113098144531 294.8182678222656 C 345.8456726074219 277.3982238769531 327.60662841796875 270.3813781738281 309.0415344238281 318.4568176269531"/>
    <path stroke-width="0" fill="rgb(255, 251, 253)" opacity="1.0217491" stroke="rgb(6, 17, 173)" stroke-opacity="1.0" stroke-linecap="round" stroke-linejoin="round" d="M 284.9360046386719 206.8369140625 C 304.17559814453125 193.64308166503906 288.5653076171875 226.13165283203125 289.5413818359375 236.30615234375 C 317.5242919921875 241.57142639160156 312.600341796875 221.4654083251953 264.619873046875 216.54721069335938 C 243.92201232910156 204.8726348876953 269.3837890625 202.3580322265625 291.9298400878906 207.7979736328125 C 274.864013671875 204.923583984375 302.7566833496094 213.17430114746094 284.9360046386719 206.8369140625"/>
    <path stroke-width="0" fill="rgb(179, 209, 322)" opacity="0.08256906" stroke="rgb(169, 67, 5)" stroke-opacity="1.0" stroke-linecap="round" stroke-linejoin="round" d="M 189.3125457763672 224.15647888183594 C 216.3717041015625 255.943603515625 226.3323211669922 232.6684112548828 239.1560516357422 206.20843505859375 C 208.75987243652344 222.46038818359375 200.8310089111328 216.27809143066406 199.52284240722656 199.62112426757812 C 182.251708984375 228.67430114746094 244.69515991210938 240.31402587890625 243.74349975585938 223.96316528320312 C 219.38510131835938 189.85606384277344 216.0100860595703 190.4251251220703 189.3125457763672 224.15647888183594"/>
    <path stroke-width="0" fill="rgb(300, 221, 200)" opacity="1.1144562" stroke="rgb(81, 97, 150)" stroke-opacity="1.0" stroke-linecap="round" stroke-linejoin="round" d="M 101.67864227294922 396.845947265625 C 52.48204040527344 456.50726318359375 -16.338024139404297 495.9295349121094 -17.88067054748535 521.3399658203125 C -3.401204824447632 481.1339111328125 -55.95347595214844 505.5627746582031 -29.504064559936523 488.4368591308594 C -10.254148483276367 494.6418762207031 12.557779312133789 509.9571228027344 -29.151134490966797 515.2494506835938 C -26.176109313964844 503.9540100097656 -5.101089954376221 502.90814208984375 101.67864227294922 396.845947265625"/>
    <path stroke-width="0" fill="rgb(39, -39, 46)" opacity="0.8972296" stroke="rgb(47, 242, 175)" stroke-opacity="1.0" stroke-linecap="round" stroke-linejoin="round" d="M 299.0566711425781 230.2601776123047 C 336.80718994140625 188.8729705810547 313.0684509277344 217.1734619140625 281.9273986816406 226.7069549560547 C 241.41612243652344 232.6720428466797 276.4346618652344 228.02699279785156 262.74261474609375 230.61476135253906 C 262.39422607421875 227.23765563964844 233.5903778076172 236.22740173339844 272.8305358886719 233.87905883789062 C 236.97274780273438 231.57887268066406 250.45394897460938 253.56588745117188 299.0566711425781 230.2601776123047"/>
    <path stroke-width="0" fill="rgb(36, -18, 19)" opacity="0.99849045" stroke="rgb(132, 6, 52)" stroke-opacity="1.0" stroke-linecap="round" stroke-linejoin="round" d="M 308.6028137207031 135.81942749023438 C 273.5452575683594 143.4849090576172 309.9294128417969 172.14596557617188 318.0834045410156 112.1045150756836 C 279.6738586425781 166.26022338867188 194.23353576660156 149.5511474609375 234.9877166748047 154.0277862548828 C 313.9225769042969 150.19281005859375 302.7735900878906 142.3351287841797 298.83538818359375 137.39981079101562 C 308.2315673828125 154.10906982421875 283.6785888671875 149.1771240234375 308.6028137207031 135.81942749023438"/>
    <path stroke-width="0" fill="rgb(258, 184, -90)" opacity="1.09688" stroke="rgb(220, 29, 131)" stroke-opacity="1.0" stroke-linecap="round" stroke-linejoin="round" d="M 237.59463500976562 193.8538360595703 C 279.543701171875 194.0391082763672 256.48187255859375 228.14315795898438 250.84396362304688 227.32125854492188 C 226.96926879882812 174.54246520996094 254.61473083496094 182.30560302734375 222.128173828125 204.68594360351562 C 249.59710693359375 189.83900451660156 245.76370239257812 172.4474639892578 261.74908447265625 188.4662322998047 C 239.63719177246094 174.2857666015625 241.34054565429688 208.2282257080078 237.59463500976562 193.8538360595703"/>
    <path stroke-width="0" fill="rgb(-6, 40, 21)" opacity="0.344228" stroke="rgb(182, 100, 144)" stroke-opacity="1.0" stroke-linecap="round" stroke-linejoin="round" d="M 257.57672119140625 194.06283569335938 C 276.11322021484375 160.70135498046875 262.42022705078125 179.19110107421875 262.57720947265625 211.16854858398438 C 273.41412353515625 184.22964477539062 238.09080505371094 185.10659790039062 243.66241455078125 154.14532470703125 C 227.88771057128906 162.82981872558594 241.8336181640625 153.54185485839844 251.2233428955078 151.7840118408203 C 243.37657165527344 168.97862243652344 254.70364379882812 181.1912384033203 257.57672119140625 194.06283569335938"/>
    <path stroke-width="0" fill="rgb(4, -14, 61)" opacity="0.38710853" stroke="rgb(36, 124, 90)" stroke-opacity="1.0" stroke-linecap="round" stroke-linejoin="round" d="M 268.2617492675781 148.5226287841797 C 218.6708221435547 154.533203125 195.26243591308594 131.33538818359375 191.19671630859375 134.68765258789062 C 226.4475860595703 136.9744873046875 254.8924102783203 160.43150329589844 239.39120483398438 177.39796447753906 C 251.59849548339844 156.7152099609375 242.69422912597656 127.32218933105469 255.85850524902344 153.8375701904297 C 272.2108459472656 141.50270080566406 258.0186462402344 152.08621215820312 268.2617492675781 148.5226287841797"/>
    <path stroke-width="0" fill="rgb(181, 164, -72)" opacity="0.8974007" stroke="rgb(195, 190, 230)" stroke-opacity="1.0" stroke-linecap="round" stroke-linejoin="round" d="M 227.92941284179688 425.7248229980469 C 224.73097229003906 387.55389404296875 201.08628845214844 394.67047119140625 250.75192260742188 359.7506408691406 C 231.84539794921875 373.0940246582031 217.50521850585938 387.89117431640625 223.61329650878906 380.69818115234375 C 227.906005859375 404.5714111328125 224.29771423339844 401.1217041015625 224.01739501953125 358.7603759765625 C 212.20687866210938 415.7593994140625 243.75294494628906 408.60711669921875 227.92941284179688 425.7248229980469"/>
    <path stroke-width="0" fill="rgb(139, 194, 217)" opacity="0.29312557" stroke="rgb(140, 149, 245)" stroke-opacity="1.0" stroke-linecap="round" stroke-linejoin="round" d="M 247.413818359375 156.35653686523438 C 232.95223999023438 170.63815307617188 243.62367248535156 149.52780151367188 209.3330841064453 134.02163696289062 C 245.32424926757812 155.95310974121094 258.3822326660156 169.03529357910156 251.04075622558594 154.8037567138672 C 221.73471069335938 157.2902069091797 256.3792724609375 151.48020935058594 241.4828338623047 153.9822540283203 C 220.09996032714844 154.37796020507812 239.13043212890625 156.95880126953125 247.413818359375 156.35653686523438"/>
    <path stroke-width="0" fill="rgb(75, 97, 137)" opacity="0.5410301" stroke="rgb(61, 25, 4)" stroke-opacity="1.0" stroke-linecap="round" stroke-linejoin="round" d="M 240.73170471191406 165.98287963867188 C 247.0658721923828 140.55496215820312 249.33714294433594 147.4902801513672 255.6713104248047 150.77801513671875 C 239.7209930419922 167.75241088867188 246.88360595703125 180.87269592285156 253.3438262939453 195.7035369873047 C 238.00965881347656 166.69769287109375 243.76284790039062 158.39230346679688 263.1115417480469 157.6222381591797 C 247.23350524902344 149.3005828857422 246.41465759277344 165.49794006347656 240.73170471191406 165.98287963867188"/>
    <path stroke-width="0" fill="rgb(125, 74, 15)" opacity="0.4753822" stroke="rgb(170, 200, 71)" stroke-opacity="1.0" stroke-linecap="round" stroke-linejoin="round" d="M 238.77174377441406 155.08944702148438 C 249.67697143554688 165.4102783203125 227.80459594726562 163.23583984375 240.6000213623047 151.47503662109375 C 260.17425537109375 178.42807006835938 248.48065185546875 179.970458984375 207.45909118652344 180.28294372558594 C 195.80715942382812 180.0230255126953 215.3519287109375 184.39584350585938 204.03599548339844 181.5038299560547 C 267.7838439941406 182.69772338867188 251.7943878173828 182.4775848388672 238.77174377441406 155.08944702148438"/>
    <path stroke-width="0" fill="rgb(125, 115, 165)" opacity="0.55014473" stroke="rgb(126, 163, 93)" stroke-opacity="1.0" stroke-linecap="round" stroke-linejoin="round" d="M 247.3377227783203 160.0019073486328 C 247.82965087890625 158.4897918701172 247.6313934326172 134.1234588623047 251.04283142089844 160.01275634765625 C 245.65216064453125 173.57481384277344 234.72250366210938 129.69210815429688 245.3211669921875 150.51185607910156 C 237.1148681640625 169.8599395751953 241.04006958007812 168.4445343017578 241.4835205078125 174.31912231445312 C 236.1922149658203 150.93492126464844 248.4420623779297 149.1175994873047 247.3377227783203 160.0019073486328"/>
    <path stroke-width="0" fill="rgb(211, 239, 322)" opacity="0.6706826" stroke="rgb(24, 219, 248)" stroke-opacity="1.0" stroke-linecap="round" stroke-linejoin="round" d="M 244.73570251464844 179.00038146972656 C 271.0268859863281 184.38604736328125 271.3536682128906 149.97256469726562 247.5428009033203 184.89260864257812 C 235.58395385742188 148.56686401367188 238.62193298339844 142.2637939453125 234.64743041992188 155.43988037109375 C 267.35650634765625 155.35964965820312 290.8119812011719 152.57969665527344 265.52587890625 146.26280212402344 C 252.8025360107422 147.68458557128906 251.9028778076172 149.1779327392578 244.73570251464844 179.00038146972656"/>
    <path stroke-width="0" fill="rgb(53, 140, 120)" opacity="0.8571019" stroke="rgb(231, 197, 84)" stroke-opacity="1.0" stroke-linecap="round" stroke-linejoin="round" d="M 263.7180480957031 149.7522735595703 C 271.3270568847656 148.02540588378906 264.5036926269531 149.8402557373047 233.8018798828125 157.33885192871094 C 254.50852966308594 163.16641235351562 280.9210510253906 137.20538330078125 291.1949768066406 134.95237731933594 C 215.0538330078125 141.28927612304688 208.1172332763672 145.22232055664062 274.65386962890625 142.43115234375 C 253.72337341308594 158.0522918701172 247.5257110595703 174.81076049804688 263.7180480957031 149.7522735595703"/>
    <path stroke-width="0" fill="rgb(149, 92, 12)" opacity="0.88572496" stroke="rgb(103, 59, 33)" stroke-opacity="1.0" stroke-linecap="round" stroke-linejoin="round" d="M 244.7082061767578 193.6039276123047 C 253.92933654785156 187.6288604736328 259.4988098144531 185.5034942626953 238.40403747558594 169.75543212890625 C 248.8046875 171.23736572265625 239.13926696777344 177.12586975097656 253.78286743164062 186.73358154296875 C 231.45138549804688 179.42202758789062 270.7225341796875 177.89572143554688 247.8592987060547 190.76145935058594 C 266.3544616699219 184.20115661621094 248.4476318359375 175.11070251464844 244.7082061767578 193.6039276123047"/>
    <path stroke-width="0" fill="rgb(294, 210, -93)" opacity="0.98219985" stroke="rgb(107, 142, 219)" stroke-opacity="1.0" stroke-linecap="round" stroke-linejoin="round" d="M 242.71823120117188 208.39320373535156 C 270.28948974609375 181.90963745117188 267.4979553222656 198.51089477539062 278.9299621582031 207.32049560546875 C 259.3128967285156 187.5142364501953 290.8153076171875 170.67132568359375 265.5486145019531 178.19076538085938 C 258.4961242675781 210.6909942626953 314.11053466796875 195.98756408691406 268.0556945800781 193.53514099121094 C 269.1883239746094 187.25440979003906 257.8753356933594 198.1162872314453 242.71823120117188 208.39320373535156"/>
    <path stroke-width="0" fill="rgb(240, 263, 265)" opacity="0.84368795" stroke="rgb(68, 33, 14)" stroke-opacity="1.0" stroke-linecap="round" stroke-linejoin="round" d="M 296.5700378417969 207.5261993408203 C 268.4410095214844 215.68861389160156 253.2063751220703 214.7063446044922 272.64752197265625 216.2249298095703 C 271.48455810546875 211.33370971679688 264.2052307128906 194.49581909179688 245.7998046875 179.65069580078125 C 245.86672973632812 187.72540283203125 261.8075866699219 196.41700744628906 237.53945922851562 170.3212127685547 C 258.934326171875 203.84707641601562 270.98260498046875 219.0282745361328 296.5700378417969 207.5261993408203"/>
    <path stroke-width="0" fill="rgb(78, 92, 57)" opacity="0.34869114" stroke="rgb(66, 116, 174)" stroke-opacity="1.0" stroke-linecap="round" stroke-linejoin="round" d="M 273.8087463378906 180.81922912597656 C 245.93356323242188 192.67282104492188 241.96981811523438 177.8526611328125 245.3667449951172 199.0528564453125 C 239.52842712402344 198.13375854492188 239.51248168945312 186.7880096435547 246.20619201660156 182.6657257080078 C 249.90884399414062 137.14239501953125 235.5096435546875 164.98338317871094 251.08192443847656 160.45693969726562 C 236.73056030273438 194.32334899902344 264.6592712402344 185.1120147705078 273.8087463378906 180.81922912597656"/>
    <path stroke-width="0" fill="rgb(24, -12, 58)" opacity="0.7206583" stroke="rgb(109, 130, 136)" stroke-opacity="1.0" stroke-linecap="round" stroke-linejoin="round" d="M 190.4124755859375 343.52801513671875 C 168.57504272460938 298.9051208496094 178.9585723876953 292.399169921875 178.33871459960938 291.9039306640625 C 176.29196166992188 301.0240173339844 154.25137329101562 288.7337341308594 166.1834716796875 244.46682739257812 C 188.9490509033203 291.86572265625 171.10452270507812 295.49871826171875 182.88543701171875 236.04173278808594 C 196.9744873046875 221.85874938964844 184.81369018554688 248.41822814941406 190.4124755859375 343.52801513671875"/>
    <path stroke-width="0" fill="rgb(80, 118, 114)" opacity="0.65000033" stroke="rgb(70, 32, 100)" stroke-opacity="1.0" stroke-linecap="round" stroke-linejoin="round" d="M 362.7354431152344 290.5789794921875 C 362.4352111816406 307.9364318847656 356.907470703125 296.15948486328125 360.56170654296875 303.7835693359375 C 361.50311279296875 295.7644958496094 364.28326416015625 294.5787658691406 351.1857604980469 324.8453063964844 C 353.2010192871094 329.0516662597656 359.80169677734375 330.3475341796875 369.743896484375 334.3372802734375 C 321.88250732421875 317.854248046875 353.0915222167969 347.0762634277344 362.7354431152344 290.5789794921875"/>
    <path stroke-width="0" fill="rgb(32, 0, 40)" opacity="0.47239253" stroke="rgb(47, 230, 138)" stroke-opacity="1.0" stroke-linecap="round" stroke-linejoin="round" d="M 180.5114288330078 359.1890563964844 C 164.32986450195312 360.9195251464844 171.62266540527344 365.5442199707031 167.11044311523438 326.53271484375 C 180.0572052001953 333.56170654296875 170.4063262939453 328.297607421875 188.497802734375 371.1827087402344 C 171.67269897460938 327.3968811035156 151.20384216308594 262.4414367675781 168.16004943847656 302.0767517089844 C 170.64157104492188 340.49627685546875 171.3771209716797 351.85479736328125 180.5114288330078 359.1890563964844"/>
    <path stroke-width="0" fill="rgb(30, 24, 4)" opacity="0.77341104" stroke="rgb(224, 116, 184)" stroke-opacity="1.0" stroke-linecap="round" stroke-linejoin="round" d="M 330.67041015625 341.0078430175781 C 349.3550109863281 302.58319091796875 330.9906921386719 327.3978271484375 307.5780944824219 370.9000549316406 C 325.402587890625 338.4598693847656 340.5188293457031 306.5823669433594 312.16375732421875 356.9969787597656 C 311.9681396484375 337.0741882324219 319.44970703125 328.92413330078125 337.8110046386719 330.8283386230469 C 302.63714599609375 344.6315002441406 315.6325988769531 345.0767822265625 330.67041015625 341.0078430175781"/>
    <path stroke-width="0" fill="rgb(111, 108, 95)" opacity="0.74715" stroke="rgb(230, 175, 178)" stroke-opacity="1.0" stroke-linecap="round" stroke-linejoin="round" d="M 163.27569580078125 330.69793701171875 C 140.5502166748047 308.53790283203125 124.51686096191406 319.9345703125 112.65950775146484 307.7779235839844 C 136.26718139648438 319.7423095703125 151.0710906982422 320.78070068359375 145.759521484375 310.2350769042969 C 157.02316284179688 319.0627136230469 140.76792907714844 316.5510559082031 166.27931213378906 331.3853454589844 C 202.78318786621094 268.57000732421875 207.00689697265625 284.51934814453125 163.27569580078125 330.69793701171875"/>
    <path stroke-width="0" fill="rgb(245, 245, 247)" opacity="0.12826684" stroke="rgb(203, 244, 116)" stroke-opacity="1.0" stroke-linecap="round" stroke-linejoin="round" d="M 256.4631652832031 337.10052490234375 C 232.63380432128906 385.3292541503906 213.01803588867188 413.6075744628906 213.593017578125 378.2023620605469 C 184.3889617919922 319.2260437011719 213.54415893554688 311.1446533203125 215.6792449951172 349.6183166503906 C 215.73619079589844 356.8669738769531 212.7924041748047 350.6656799316406 211.28866577148438 293.0824890136719 C 235.45941162109375 286.0814208984375 227.0022735595703 297.2054748535156 256.4631652832031 337.10052490234375"/>
    <path stroke-width="0" fill="rgb(121, 87, 74)" opacity="0.34702694" stroke="rgb(209, 231, 207)" stroke-opacity="1.0" stroke-linecap="round" stroke-linejoin="round" d="M 305.0966796875 340.4396667480469 C 316.5460205078125 308.4105224609375 282.48712158203125 363.95989990234375 327.10791015625 339.0639343261719 C 332.4828796386719 320.67340087890625 324.429443359375 307.8931884765625 323.1834716796875 321.8017883300781 C 321.81195068359375 360.28338623046875 319.8186340332031 359.47259521484375 314.4714050292969 333.2850341796875 C 298.7243347167969 329.2842712402344 310.8872985839844 336.4369201660156 305.0966796875 340.4396667480469"/>
    <path stroke-width="0" fill="rgb(21, -13, 57)" opacity="0.993277" stroke="rgb(65, 216, 8)" stroke-opacity="1.0" stroke-linecap="round" stroke-linejoin="round" d="M 191.68304443359375 401.5699462890625 C 173.06561279296875 344.2418212890625 197.14456176757812 344.0569152832031 202.1256866455078 373.5159606933594 C 197.45436096191406 406.3237609863281 184.6726531982422 399.08245849609375 162.27574157714844 350.87762451171875 C 153.4518585205078 333.1415710449219 163.94276428222656 322.1225891113281 199.3330535888672 333.77740478515625 C 207.48118591308594 368.0372314453125 199.33473205566406 380.38433837890625 191.68304443359375 401.5699462890625"/>
    <path stroke-width="0" fill="rgb(253, 252, 251)" opacity="0.97938806" stroke="rgb(102, 236, 25)" stroke-opacity="1.0" stroke-linecap="round" stroke-linejoin="round" d="M 289.5605163574219 356.5082092285156 C 277.60845947265625 372.9209289550781 221.55140686035156 395.6986999511719 211.70753479003906 383.8414001464844 C 218.89346313476562 367.53277587890625 221.42990112304688 347.54901123046875 222.0059814453125 335.9671325683594 C 227.00315856933594 390.5377197265625 227.71395874023438 380.322998046875 216.11245727539062 331.8617858886719 C 231.6864013671875 343.20166015625 253.18551635742188 351.4959716796875 289.5605163574219 356.5082092285156"/>
    <path stroke-width="0" fill="rgb(147, 39, 17)" opacity="1.130793" stroke="rgb(33, 3, 29)" stroke-opacity="1.0" stroke-linecap="round" stroke-linejoin="round" d="M 230.5795135498047 387.30596923828125 C 216.70901489257812 390.9142761230469 224.30987548828125 412.03387451171875 225.35545349121094 417.113525390625 C 161.0196990966797 407.75469970703125 134.00892639160156 433.4450988769531 143.48272705078125 395.8271789550781 C 155.87799072265625 399.4316711425781 227.1386260986328 395.9598083496094 223.2781982421875 396.44573974609375 C 222.19342041015625 396.8619384765625 213.9754180908203 401.12518310546875 230.5795135498047 387.30596923828125"/>
    <path stroke-width="0" fill="rgb(219, 80, -27)" opacity="0.9282891" stroke="rgb(199, 73, 61)" stroke-opacity="1.0" stroke-linecap="round" stroke-linejoin="round" d="M 283.1393127441406 412.9812316894531 C 290.1755065917969 386.39031982421875 278.6509704589844 399.56011962890625 287.6014709472656 397.8394775390625 C 286.07012939453125 402.8197326660156 282.4423522949219 388.4171142578125 283.2876892089844 402.27996826171875 C 285.3804626464844 394.0843200683594 271.9014587402344 395.8125915527344 355.9626159667969 399.34820556640625 C 382.8126220703125 423.8499450683594 259.94586181640625 418.0468444824219 283.1393127441406 412.9812316894531"/>
    <path stroke-width="0" fill="rgb(57, 133, 84)" opacity="0.96189415" stroke="rgb(175, 14, 186)" stroke-opacity="1.0" stroke-linecap="round" stroke-linejoin="round" d="M 486.2940979003906 133.99803161621094 C 443.9017028808594 184.8683624267578 514.1680297851562 263.0281982421875 640.1363525390625 130.19020080566406 C 511.784423828125 79.14346313476562 608.153076171875 -3.6851999759674072 343.20037841796875 -78.51739501953125 C 131.60983276367188 156.1405029296875 227.3662109375 4.007138729095459 364.5164794921875 90.12533569335938 C 499.0670471191406 161.82476806640625 454.28778076171875 128.56134033203125 486.2940979003906 133.99803161621094"/>
    <path stroke-width="0" fill="rgb(55, 130, 120)" opacity="0.45241308" stroke="rgb(95, 190, 60)" stroke-opacity="1.0" stroke-linecap="round" stroke-linejoin="round" d="M 134.3967742919922 164.65870666503906 C 123.13420867919922 189.8568572998047 86.62709045410156 144.904296875 69.33187103271484 198.5787353515625 C 136.69036865234375 257.84759521484375 134.3698272705078 181.70384216308594 179.60397338867188 172.23532104492188 C 139.89151000976562 199.89500427246094 132.04595947265625 205.91807556152344 170.5977783203125 174.31309509277344 C 169.84791564941406 170.9717559814453 172.4635772705078 193.8573760986328 134.3967742919922 164.65870666503906"/>
    <path stroke-width="0" fill="rgb(16, -16, 44)" opacity="0.95431936" stroke="rgb(213, 60, 128)" stroke-opacity="1.0" stroke-linecap="round" stroke-linejoin="round" d="M 252.12254333496094 150.78953552246094 C 258.5816650390625 191.97610473632812 240.17919921875 165.48953247070312 217.82681274414062 153.14686584472656 C 231.4749755859375 162.83834838867188 228.0287628173828 154.96983337402344 212.55770874023438 154.90823364257812 C 186.94871520996094 122.64566040039062 186.18128967285156 121.26377868652344 195.78140258789062 145.67575073242188 C 205.74893188476562 140.7591094970703 356.6267395019531 146.9737548828125 252.12254333496094 150.78953552246094"/>
    <path stroke-width="0" fill="rgb(52, 130, 112)" opacity="0.7098696" stroke="rgb(228, 103, 140)" stroke-opacity="1.0" stroke-linecap="round" stroke-linejoin="round" d="M 128.69784545898438 280.36663818359375 C 157.0960693359375 313.67010498046875 164.6160125732422 318.7213134765625 117.55664825439453 334.943359375 C 92.71156311035156 345.2103576660156 66.68196105957031 321.5939025878906 120.00675964355469 266.4770202636719 C 117.28045654296875 272.577392578125 141.13754272460938 252.4031524658203 131.80233764648438 292.635986328125 C 136.00978088378906 297.73870849609375 147.32235717773438 293.9375915527344 128.69784545898438 280.36663818359375"/>
    <path stroke-width="0" fill="rgb(251, 254, 277)" opacity="0.9554465" stroke="rgb(63, 128, 79)" stroke-opacity="1.0" stroke-linecap="round" stroke-linejoin="round" d="M 255.07553100585938 194.5155487060547 C 214.38821411132812 218.73406982421875 220.5035858154297 229.49595642089844 228.78936767578125 219.9008331298828 C 222.2860870361328 217.83351135253906 215.59922790527344 225.2097625732422 202.55221557617188 186.95367431640625 C 213.90609741210938 234.20883178710938 246.09242248535156 221.3838653564453 240.58541870117188 174.6934356689453 C 205.31454467773438 147.75538635253906 286.2611083984375 185.5496063232422 255.07553100585938 194.5155487060547"/>
    <path stroke-width="0" fill="rgb(61, 129, 121)" opacity="0.35796803" stroke="rgb(26, 88, 188)" stroke-opacity="1.0" stroke-linecap="round" stroke-linejoin="round" d="M 145.75453186035156 163.97459411621094 C 96.20572662353516 209.3798065185547 85.80237579345703 246.07923889160156 107.86522674560547 233.36859130859375 C 157.0664520263672 226.5975341796875 139.8419647216797 217.4501190185547 140.64520263671875 201.8432159423828 C 143.19432067871094 251.15480041503906 140.6414337158203 258.7966003417969 135.5911102294922 213.6161346435547 C 108.76366424560547 254.7420654296875 110.31431579589844 233.63479614257812 145.75453186035156 163.97459411621094"/>
    <path stroke-width="0" fill="rgb(34, -10, 39)" opacity="0.9936835" stroke="rgb(52, 87, 172)" stroke-opacity="1.0" stroke-linecap="round" stroke-linejoin="round" d="M 306.0525207519531 348.3692932128906 C 316.82916259765625 396.7758483886719 310.26983642578125 360.5218505859375 317.9316711425781 395.5224609375 C 298.2748718261719 394.8086242675781 291.945068359375 413.4169921875 305.9635314941406 319.4949645996094 C 314.9815673828125 328.080322265625 321.0054626464844 335.90533447265625 316.1206970214844 286.71063232421875 C 351.3109130859375 338.9372253417969 334.7024841308594 373.44989013671875 306.0525207519531 348.3692932128906"/>
    <path stroke-width="0" fill="rgb(35, -34, 51)" opacity="1.0072834" stroke="rgb(7, 181, 2)" stroke-opacity="1.0" stroke-linecap="round" stroke-linejoin="round" d="M 306.334716796875 141.1619110107422 C 279.72625732421875 153.1460418701172 263.0693664550781 152.79766845703125 294.6075439453125 143.5592803955078 C 270.1172180175781 153.18276977539062 228.81854248046875 187.1270751953125 240.44044494628906 145.49209594726562 C 269.0061340332031 139.487060546875 309.87646484375 157.58554077148438 320.8753967285156 126.90660858154297 C 270.979248046875 153.42718505859375 268.92071533203125 153.35400390625 306.334716796875 141.1619110107422"/>
    <path stroke-width="0" fill="rgb(53, 124, 117)" opacity="0.4887945" stroke="rgb(22, 103, 6)" stroke-opacity="1.0" stroke-linecap="round" stroke-linejoin="round" d="M 281.60968017578125 486.6592712402344 C 265.2809753417969 495.7304382324219 340.4527282714844 510.8270568847656 198.48341369628906 539.11865234375 C 76.73395538330078 488.82708740234375 256.998291015625 469.14007568359375 248.4991455078125 470.1163635253906 C 249.576904296875 475.362060546875 287.0974426269531 510.7176208496094 235.30992126464844 493.1170959472656 C 221.27757263183594 476.49298095703125 236.10292053222656 445.97802734375 281.60968017578125 486.6592712402344"/>
    <path stroke-width="0" fill="rgb(47, 147, 92)" opacity="0.75537896" stroke="rgb(53, 29, 147)" stroke-opacity="1.0" stroke-linecap="round" stroke-linejoin="round" d="M 331.3767395019531 155.7486114501953 C 305.54168701171875 82.46930694580078 325.9150390625 47.26551055908203 388.9031677246094 112.00862884521484 C 366.0572509765625 209.6774139404297 334.650146484375 139.1885986328125 334.1729736328125 140.82005310058594 C 336.6957702636719 166.21136474609375 347.9261474609375 163.72483825683594 350.20220947265625 152.52630615234375 C 327.03387451171875 147.2711639404297 345.8486022949219 145.87625122070312 331.3767395019531 155.7486114501953"/>
    <path stroke-width="0" fill="rgb(62, 127, 109)" opacity="0.50227374" stroke="rgb(0, 165, 153)" stroke-opacity="1.0" stroke-linecap="round" stroke-linejoin="round" d="M 451.6260986328125 526.775634765625 C 375.3440856933594 508.9549255371094 288.9067687988281 486.01470947265625 358.9314880371094 499.4652099609375 C 353.9576721191406 486.22113037109375 244.578857421875 514.6998291015625 239.51637268066406 476.1394958496094 C 299.7413330078125 428.1204528808594 334.98419189453125 462.04998779296875 329.9292907714844 481.5575866699219 C 362.5152893066406 432.0063171386719 409.4268798828125 419.9934997558594 451.6260986328125 526.775634765625"/>
    <path stroke-width="0" fill="rgb(43, 148, 75)" opacity="0.24839282" stroke="rgb(0, 0, 0)" stroke-opacity="0.0" stroke-linecap="round" stroke-linejoin="round" d="M 17.179656982421875 -5.220882415771484 C 15.962698936462402 -1.4642337560653687 14.423295974731445 3.0790178775787354 4.608526229858398 3.5098812580108643 C 1.5238319635391235 7.1658806800842285 2.545889139175415 6.657691478729248 2.823194742202759 1.8083571195602417 C 5.591494560241699 -6.26359224319458 9.670652389526367 -8.226974487304688 13.99105453491211 -9.130711555480957 C 18.005184173583984 -8.05243968963623 20.933387756347656 -5.124236583709717 17.179656982421875 -5.220882415771484"/>
    <path stroke-width="0" fill="rgb(62, 111, 129)" opacity="0.14506708" stroke="rgb(0, 0, 0)" stroke-opacity="0.0" stroke-linecap="round" stroke-linejoin="round" d="M 13.692485809326172 2.9448435306549072 C 16.45246696472168 9.064969062805176 14.232199668884277 7.445416450500488 10.405500411987305 6.871680736541748 C 4.608323097229004 7.688137054443359 -1.0374177694320679 8.833205223083496 -4.679143905639648 6.543088436126709 C -1.1857409477233887 -0.7068161368370056 2.4247279167175293 -3.045905828475952 8.340658187866211 -3.82564377784729 C 14.164841651916504 -3.9156599044799805 16.23101043701172 -2.6123838424682617 13.692485809326172 2.9448435306549072"/>
    <path stroke-width="0" fill="rgb(62, 111, 142)" opacity="0.15683584" stroke="rgb(0, 0, 0)" stroke-opacity="0.0" stroke-linecap="round" stroke-linejoin="round" d="M 29.91263771057129 12.234260559082031 C 33.19029235839844 17.39558219909668 28.777843475341797 16.33616065979004 21.0030574798584 15.473962783813477 C 14.738883972167969 17.707351684570312 8.884149551391602 11.688714981079102 22.993305206298828 12.864334106445312 C 21.311241149902344 7.649811744689941 16.940053939819336 1.0267153978347778 19.94014549255371 -0.737330973148346 C 24.745277404785156 5.477606296539307 28.15891456604004 7.943758964538574 29.91263771057129 12.234260559082031"/>
    <path stroke-width="0" fill="rgb(77, 97, 122)" opacity="0.10621419" stroke="rgb(0, 0, 0)" stroke-opacity="0.0" stroke-linecap="round" stroke-linejoin="round" d="M 35.53437042236328 4.08213996887207 C 37.878944396972656 13.780702590942383 40.49116134643555 15.572599411010742 32.91054153442383 11.144667625427246 C 30.151060104370117 5.615204334259033 27.972991943359375 2.6493353843688965 26.147323608398438 -1.2962262630462646 C 23.54767608642578 -1.7454758882522583 26.066421508789062 -4.87183952331543 30.070207595825195 -5.987390518188477 C 34.697166442871094 -5.139148235321045 38.36335754394531 -2.649761199951172 35.53437042236328 4.08213996887207"/>
    <path stroke-width="0" fill="rgb(55, 120, 114)" opacity="0.15798958" stroke="rgb(0, 0, 0)" stroke-opacity="0.0" stroke-linecap="round" stroke-linejoin="round" d="M 65.96621704101562 8.756463050842285 C 69.96324920654297 13.835220336914062 70.96900177001953 15.084848403930664 59.72837448120117 12.935979843139648 C 57.974403381347656 15.246118545532227 57.27843475341797 15.494747161865234 61.797218322753906 12.751550674438477 C 61.275550842285156 5.842281818389893 58.16155242919922 -0.9105199575424194 60.870121002197266 -2.9476029872894287 C 68.41242218017578 0.5367456078529358 69.46989440917969 2.8429718017578125 65.96621704101562 8.756463050842285"/>
    <path stroke-width="0" fill="rgb(104, 94, 130)" opacity="0.23255284" stroke="rgb(0, 0, 0)" stroke-opacity="0.0" stroke-linecap="round" stroke-linejoin="round" d="M 294.79364013671875 11.05984115600586 C 293.9552917480469 8.23735523223877 294.8825378417969 17.589845657348633 293.1221923828125 7.205139636993408 C 284.31072998046875 6.318279266357422 286.8543395996094 14.003397941589355 291.71514892578125 4.509148120880127 C 289.91143798828125 5.095935821533203 292.68359375 6.81572151184082 298.7347106933594 3.3766472339630127 C 294.0306091308594 2.8901569843292236 292.4511413574219 9.32867431640625 294.79364013671875 11.05984115600586"/>
    <path stroke-width="0" fill="rgb(81, 102, 138)" opacity="0.12233933" stroke="rgb(0, 0, 0)" stroke-opacity="0.0" stroke-linecap="round" stroke-linejoin="round" d="M 54.01429748535156 5.811809539794922 C 58.17864227294922 5.706923961639404 55.404090881347656 6.656770706176758 48.95995330810547 7.070891380310059 C 40.73240280151367 9.02003288269043 38.20796585083008 6.536062240600586 37.87895202636719 -0.03438405692577362 C 38.38758087158203 -2.9583635330200195 42.41960906982422 -5.421796798706055 46.707183837890625 -6.509861469268799 C 51.42625045776367 -5.658946990966797 54.143890380859375 -2.6776485443115234 54.01429748535156 5.811809539794922"/>
    <path stroke-width="0" fill="rgb(108, 94, 106)" opacity="0.27168128" stroke="rgb(0, 0, 0)" stroke-opacity="0.0" stroke-linecap="round" stroke-linejoin="round" d="M 51.203739166259766 13.023488998413086 C 48.67324447631836 10.771382331848145 48.56040573120117 16.263500213623047 48.37374496459961 19.784828186035156 C 47.90623474121094 23.819040298461914 49.326499938964844 17.181509017944336 49.62486267089844 11.540986061096191 C 45.33427429199219 10.27818489074707 48.832061767578125 13.088860511779785 54.174354553222656 11.51760482788086 C 53.2603874206543 11.52338695526123 56.926753997802734 13.024731636047363 51.203739166259766 13.023488998413086"/>
    <path stroke-width="0" fill="rgb(112, 82, 160)" opacity="0.022983365" stroke="rgb(0, 0, 0)" stroke-opacity="0.0" stroke-linecap="round" stroke-linejoin="round" d="M 184.10012817382812 1.6128379106521606 C 183.57510375976562 5.649811267852783 184.2890625 15.119659423828125 182.1361846923828 13.493781089782715 C 173.3640594482422 15.645204544067383 176.9026336669922 13.51003646850586 173.96099853515625 5.110281467437744 C 173.66763305664062 -0.6372817158699036 175.25955200195312 -3.224106550216675 178.9688720703125 -4.034280300140381 C 184.05702209472656 -1.6192153692245483 187.255859375 1.750718116760254 184.10012817382812 1.6128379106521606"/>
    <path stroke-width="0" fill="rgb(109, 119, 52)" opacity="0.62164056" stroke="rgb(0, 0, 0)" stroke-opacity="0.0" stroke-linecap="round" stroke-linejoin="round" d="M 56.42698669433594 167.9268341064453 C 58.11030960083008 168.00132751464844 52.62306213378906 168.31185913085938 51.252986907958984 171.07395935058594 C 52.02003479003906 176.48243713378906 51.883602142333984 174.33905029296875 51.028594970703125 170.11700439453125 C 54.442176818847656 169.57904052734375 58.734107971191406 165.00633239746094 59.1519775390625 165.51661682128906 C 54.407142639160156 170.06341552734375 57.38174057006836 169.26181030273438 56.42698669433594 167.9268341064453"/>
    <path stroke-width="0" fill="rgb(264, 225, 161)" opacity="0.24621752" stroke="rgb(0, 0, 0)" stroke-opacity="0.0" stroke-linecap="round" stroke-linejoin="round" d="M 293.23931884765625 259.2261657714844 C 287.148193359375 271.6533203125 283.05987548828125 273.6648254394531 275.0754089355469 278.0146789550781 C 271.68310546875 269.4713134765625 268.84765625 266.2700500488281 263.26470947265625 255.5606231689453 C 266.7424011230469 256.4638671875 271.50628662109375 255.06309509277344 273.9873352050781 247.45645141601562 C 284.9183349609375 250.19680786132812 292.542724609375 251.1470489501953 293.23931884765625 259.2261657714844"/>
    <path stroke-width="0" fill="rgb(159, 56, 156)" opacity="0.4408353" stroke="rgb(0, 0, 0)" stroke-opacity="0.0" stroke-linecap="round" stroke-linejoin="round" d="M 7.7256760597229 -5.598379135131836 C 3.623422384262085 -3.790201187133789 2.7512173652648926 1.5738816261291504 0.1302977204322815 4.749990463256836 C -2.3999664783477783 7.26854133605957 -4.177896976470947 6.50835657119751 -4.062406539916992 2.4084839820861816 C -1.9186784029006958 -3.2245965003967285 1.0095248222351074 -6.152799606323242 5.00985050201416 -7.224699974060059 C 9.028139114379883 -6.159226417541504 12.133110046386719 -3.3291306495666504 7.7256760597229 -5.598379135131836"/>
    <path stroke-width="0" fill="rgb(71, 26, 230)" opacity="0.6658063" stroke="rgb(0, 0, 0)" stroke-opacity="0.0" stroke-linecap="round" stroke-linejoin="round" d="M 36.58120346069336 -23.064172744750977 C 35.50940704345703 -19.064172744750977 32.58120346069336 -16.135969161987305 28.581205368041992 -15.064173698425293 C 24.581205368041992 -16.135969161987305 21.65300178527832 -19.064172744750977 20.581205368041992 -23.064172744750977 C 21.65300178527832 -27.064172744750977 24.581205368041992 -29.99237632751465 28.581205368041992 -31.064172744750977 C 32.58120346069336 -29.99237632751465 35.50940704345703 -27.064172744750977 36.58120346069336 -23.064172744750977"/>
    <path stroke-width="0" fill="rgb(273, 237, 48)" opacity="0.13221018" stroke="rgb(0, 0, 0)" stroke-opacity="0.0" stroke-linecap="round" stroke-linejoin="round" d="M 212.52685546875 165.3334197998047 C 213.54495239257812 171.65882873535156 209.4857177734375 176.28411865234375 208.4636993408203 166.00291442871094 C 204.2858428955078 163.71240234375 199.36474609375 162.475341796875 198.7327423095703 162.22064208984375 C 203.06263732910156 162.01119995117188 205.04397583007812 155.562744140625 210.50714111328125 154.05862426757812 C 205.47015380859375 153.71035766601562 208.77369689941406 158.2188720703125 212.52685546875 165.3334197998047"/>
    <path stroke-width="0" fill="rgb(42, 154, 147)" opacity="0.64584076" stroke="rgb(0, 0, 0)" stroke-opacity="0.0" stroke-linecap="round" stroke-linejoin="round" d="M 91.34710693359375 471.055419921875 C 91.41617584228516 474.07916259765625 88.19849395751953 475.7366638183594 83.4862289428711 479.23138427734375 C 82.73613739013672 476.9001159667969 78.17493438720703 473.36126708984375 80.23117065429688 469.3454895019531 C 79.68561553955078 468.62664794921875 81.99378204345703 464.54132080078125 79.17549896240234 468.19891357421875 C 87.59201049804688 468.21026611328125 91.73709106445312 467.98797607421875 91.34710693359375 471.055419921875"/>
    <path stroke-width="0" fill="rgb(215, 134, 107)" opacity="0.069518" stroke="rgb(0, 0, 0)" stroke-opacity="0.0" stroke-linecap="round" stroke-linejoin="round" d="M 435.84466552734375 399.35357666015625 C 429.5933837890625 405.3470764160156 429.38250732421875 413.87518310546875 427.2289733886719 414.3652648925781 C 422.75482177734375 412.9723815917969 418.6512756347656 413.251953125 414.6816101074219 404.8274841308594 C 424.80682373046875 403.5495300292969 431.1537780761719 403.5814208984375 430.97796630859375 399.40533447265625 C 435.9032287597656 400.7916564941406 441.1083068847656 400.5455017089844 435.84466552734375 399.35357666015625"/>
    <path stroke-width="0" fill="rgb(83, 129, 107)" opacity="0.054428864" stroke="rgb(0, 0, 0)" stroke-opacity="0.0" stroke-linecap="round" stroke-linejoin="round" d="M 50.9409294128418 203.619384765625 C 50.569854736328125 207.87255859375 47.37080383300781 211.0055389404297 45.697208404541016 213.40110778808594 C 43.73276138305664 212.7327423095703 39.31391143798828 210.25039672851562 37.950828552246094 208.87542724609375 C 39.442626953125 203.7698974609375 42.58087158203125 200.78594970703125 45.111671447753906 200.39280700683594 C 49.763099670410156 199.34661865234375 53.35881805419922 202.94041442871094 50.9409294128418 203.619384765625"/>
    <path stroke-width="0" fill="rgb(126, 74, 156)" opacity="0.6143305" stroke="rgb(0, 0, 0)" stroke-opacity="0.0" stroke-linecap="round" stroke-linejoin="round" d="M 37.74575424194336 394.44525146484375 C 33.449031829833984 396.3138427734375 27.051103591918945 396.9464416503906 22.695209503173828 398.62567138671875 C 20.8519344329834 401.6182556152344 20.51546287536621 399.7790832519531 24.62236976623535 399.0030822753906 C 28.6400203704834 398.49542236328125 27.68461799621582 393.0833435058594 27.454683303833008 394.3929443359375 C 24.8657169342041 399.40570068359375 30.447233200073242 397.4823913574219 37.74575424194336 394.44525146484375"/>
    <path stroke-width="0" fill="rgb(94, 99, 155)" opacity="0.27160284" stroke="rgb(0, 0, 0)" stroke-opacity="0.0" stroke-linecap="round" stroke-linejoin="round" d="M 383.94830322265625 162.2406463623047 C 380.2225036621094 164.5401153564453 376.94439697265625 168.29847717285156 376.97869873046875 165.19775390625 C 378.1807861328125 169.1591033935547 374.4390869140625 164.3762664794922 374.43548583984375 166.49159240722656 C 376.40216064453125 166.64930725097656 381.8139343261719 164.63037109375 377.6380920410156 162.9501953125 C 385.53009033203125 165.82342529296875 390.72808837890625 163.47305297851562 383.94830322265625 162.2406463623047"/>
    <path stroke-width="0" fill="rgb(74, 46, 88)" opacity="-0.035330523" stroke="rgb(0, 0, 0)" stroke-opacity="0.0" stroke-linecap="round" stroke-linejoin="round" d="M 483.7496032714844 77.169189453125 C 480.8033752441406 79.6072998046875 478.79949951171875 85.65082550048828 476.72650146484375 88.7105941772461 C 470.0511474609375 83.65711975097656 467.1983337402344 82.06910705566406 472.27813720703125 77.47754669189453 C 470.6549987792969 70.36284637451172 470.39996337890625 70.6862564086914 472.4194030761719 72.33690643310547 C 480.1422119140625 69.77287292480469 482.8320007324219 72.17149353027344 483.7496032714844 77.169189453125"/>
    <path stroke-width="0" fill="rgb(-21, 200, 128)" opacity="0.08612906" stroke="rgb(0, 0, 0)" stroke-opacity="0.0" stroke-linecap="round" stroke-linejoin="round" d="M 5.6386494636535645 1.2887296676635742 C 4.6619791984558105 3.8184797763824463 -0.8062923550605774 5.478192329406738 -5.425695419311523 7.1598734855651855 C -5.742618560791016 9.031791687011719 -8.670821189880371 6.103588104248047 -9.742618560791016 2.103588104248047 C -8.670821189880371 -1.8964120149612427 -5.742618560791016 -4.824615001678467 -1.9249598979949951 -5.7685651779174805 C 1.494500756263733 -4.17995548248291 3.9184682369232178 -0.7234715223312378 5.6386494636535645 1.2887296676635742"/>
    <path stroke-width="0" fill="rgb(55, 106, 125)" opacity="0.15407081" stroke="rgb(0, 0, 0)" stroke-opacity="0.0" stroke-linecap="round" stroke-linejoin="round" d="M 259.4270324707031 165.22088623046875 C 254.6635284423828 170.28456115722656 249.37701416015625 171.5248260498047 249.41358947753906 166.55787658691406 C 245.6441192626953 167.89794921875 244.55601501464844 162.93174743652344 241.27696228027344 160.07852172851562 C 242.3588104248047 160.3057861328125 243.5181884765625 157.82986450195312 243.63938903808594 161.4148406982422 C 243.94786071777344 163.5416717529297 249.697509765625 165.7232666015625 259.4270324707031 165.22088623046875"/>
    <path stroke-width="0" fill="rgb(73, 111, 112)" opacity="0.3777756" stroke="rgb(0, 0, 0)" stroke-opacity="0.0" stroke-linecap="round" stroke-linejoin="round" d="M 136.93472290039062 51.070045471191406 C 140.1340789794922 55.20403289794922 136.15170288085938 55.34381103515625 131.71371459960938 56.08455276489258 C 123.1786117553711 58.73774337768555 118.42620086669922 54.956275939941406 122.88348388671875 50.810035705566406 C 124.02511596679688 45.25653839111328 126.5640869140625 43.254085540771484 126.97471618652344 46.188316345214844 C 131.24838256835938 42.92582321166992 133.67127990722656 44.691673278808594 136.93472290039062 51.070045471191406"/>
    <path stroke-width="0" fill="rgb(91, 144, 203)" opacity="0.1249837" stroke="rgb(0, 0, 0)" stroke-opacity="0.0" stroke-linecap="round" stroke-linejoin="round" d="M 174.04212951660156 122.8307113647461 C 182.24497985839844 131.5464630126953 177.46194458007812 127.92950439453125 163.44215393066406 128.56878662109375 C 159.48646545410156 130.8430633544922 156.88180541992188 128.21592712402344 162.73521423339844 117.46078491210938 C 161.5187530517578 114.43305969238281 162.45599365234375 117.33837890625 161.84017944335938 120.6188735961914 C 166.2265625 121.81082916259766 180.14553833007812 120.69390106201172 174.04212951660156 122.8307113647461"/>
    <path stroke-width="0" fill="rgb(42, 111, 61)" opacity="-0.004469357" stroke="rgb(0, 0, 0)" stroke-opacity="0.0" stroke-linecap="round" stroke-linejoin="round" d="M 178.9298858642578 270.5630798339844 C 182.18711853027344 280.28045654296875 184.8442840576172 279.9350280761719 180.01368713378906 275.420654296875 C 179.73582458496094 280.4314270019531 181.3888702392578 275.2534484863281 177.08917236328125 268.39764404296875 C 172.70497131347656 270.8699951171875 178.97152709960938 270.445556640625 180.10745239257812 270.87603759765625 C 180.70387268066406 271.332275390625 182.58924865722656 269.482177734375 178.9298858642578 270.5630798339844"/>
    <path stroke-width="0" fill="rgb(48, 145, 77)" opacity="0.1287705" stroke="rgb(0, 0, 0)" stroke-opacity="0.0" stroke-linecap="round" stroke-linejoin="round" d="M 150.8663330078125 66.97634887695312 C 156.35910034179688 73.4117202758789 152.6481170654297 71.886962890625 143.9894561767578 72.8597412109375 C 145.20623779296875 74.59202575683594 142.4723358154297 73.250244140625 145.76890563964844 73.58775329589844 C 144.39474487304688 65.65621948242188 146.59317016601562 59.00392532348633 143.07284545898438 65.76300048828125 C 150.4809112548828 67.6964340209961 155.46719360351562 64.30860900878906 150.8663330078125 66.97634887695312"/>
    <path stroke-width="0" fill="rgb(59, 116, 124)" opacity="0.40343663" stroke="rgb(0, 0, 0)" stroke-opacity="0.0" stroke-linecap="round" stroke-linejoin="round" d="M 92.06407928466797 62.68362808227539 C 95.02410888671875 68.04940032958984 91.30024719238281 70.42266082763672 88.58280181884766 66.8101577758789 C 84.29387664794922 66.94218444824219 80.33291625976562 63.74693298339844 78.6185073852539 61.343318939208984 C 82.45556640625 59.75126647949219 82.12783813476562 58.729698181152344 83.9896011352539 59.88549041748047 C 91.39715576171875 55.90845489501953 92.20328521728516 56.26719284057617 92.06407928466797 62.68362808227539"/>
    <path stroke-width="0" fill="rgb(84, -42, 78)" opacity="0.14071555" stroke="rgb(0, 0, 0)" stroke-opacity="0.0" stroke-linecap="round" stroke-linejoin="round" d="M 328.5019836425781 206.0768585205078 C 319.4906311035156 208.44171142578125 314.6602478027344 209.6830291748047 310.0542907714844 212.375732421875 C 312.1889953613281 213.05577087402344 309.7080383300781 206.90130615234375 304.9450378417969 206.0985107421875 C 310.42755126953125 203.9864044189453 314.85272216796875 200.08140563964844 318.3420104980469 197.23338317871094 C 316.6664733886719 205.78073120117188 316.4252014160156 207.3074493408203 328.5019836425781 206.0768585205078"/>
    <path stroke-width="0" fill="rgb(76, 152, 152)" opacity="0.32307494" stroke="rgb(0, 0, 0)" stroke-opacity="0.0" stroke-linecap="round" stroke-linejoin="round" d="M -0.5634723901748657 -1.4716880321502686 C -1.2990434169769287 3.7465972900390625 -3.907158136367798 6.890750885009766 -7.558994770050049 8.23403263092041 C -11.236661911010742 7.442933082580566 -14.164864540100098 4.514729976654053 -15.236661911010742 0.5147300362586975 C -14.164864540100098 -3.4852700233459473 -11.236661911010742 -6.413473129272461 -7.220800876617432 -7.493269443511963 C -2.842195510864258 -6.631806373596191 0.6921449899673462 -4.431804656982422 -0.5634723901748657 -1.4716880321502686"/>
    <path stroke-width="0" fill="rgb(171, 28, 80)" opacity="-0.08496449" stroke="rgb(0, 0, 0)" stroke-opacity="0.0" stroke-linecap="round" stroke-linejoin="round" d="M 281.2590637207031 384.02032470703125 C 283.27178955078125 391.2803955078125 282.016845703125 395.24334716796875 280.27801513671875 389.1868591308594 C 272.2582092285156 385.8571472167969 263.9433898925781 387.3673095703125 260.8197326660156 386.55169677734375 C 268.6122741699219 382.0500183105469 271.8712158203125 378.05584716796875 271.0569152832031 379.0680847167969 C 275.701171875 378.0111999511719 278.3467712402344 381.0953369140625 281.2590637207031 384.02032470703125"/>
    <path stroke-width="0" fill="rgb(141, 164, 208)" opacity="-0.016217638" stroke="rgb(0, 0, 0)" stroke-opacity="0.0" stroke-linecap="round" stroke-linejoin="round" d="M 72.60253143310547 77.4790267944336 C 77.34794616699219 84.64873504638672 74.62320709228516 86.18152618408203 77.58152770996094 87.64759826660156 C 73.86283111572266 89.66232299804688 66.24639129638672 86.77020263671875 67.78945922851562 86.82542419433594 C 76.60984802246094 90.59878540039062 75.99032592773438 82.23766326904297 76.7822494506836 81.41087341308594 C 84.61836242675781 81.7294692993164 81.7743148803711 77.67764282226562 72.60253143310547 77.4790267944336"/>
    <path stroke-width="0" fill="rgb(184, 91, 106)" opacity="0.31969178" stroke="rgb(0, 0, 0)" stroke-opacity="0.0" stroke-linecap="round" stroke-linejoin="round" d="M 398.0793762207031 486.9349670410156 C 399.8376770019531 481.7332763671875 400.1011047363281 484.5749816894531 396.57476806640625 488.02392578125 C 394.5699768066406 485.3986511230469 391.68560791015625 485.1685485839844 391.2034912109375 487.2438049316406 C 392.712158203125 485.9212951660156 397.14617919921875 485.4764709472656 393.5565490722656 484.7006530761719 C 396.2943115234375 484.535400390625 398.7685852050781 490.6770324707031 398.0793762207031 486.9349670410156"/>
    <path stroke-width="0" fill="rgb(181, 143, 116)" opacity="-0.034959864" stroke="rgb(0, 0, 0)" stroke-opacity="0.0" stroke-linecap="round" stroke-linejoin="round" d="M 257.22955322265625 20.82965850830078 C 255.72483825683594 21.845977783203125 251.93240356445312 24.13498306274414 248.63063049316406 28.328834533691406 C 243.23143005371094 27.68061637878418 241.5041961669922 26.58086395263672 242.72581481933594 15.639871597290039 C 246.70474243164062 17.386201858520508 249.2947998046875 15.485260009765625 247.8133544921875 13.526166915893555 C 252.3309783935547 13.8751802444458 255.4547576904297 16.216238021850586 257.22955322265625 20.82965850830078"/>
    <path stroke-width="0" fill="rgb(163, 144, 168)" opacity="-0.0059586456" stroke="rgb(0, 0, 0)" stroke-opacity="0.0" stroke-linecap="round" stroke-linejoin="round" d="M 28.117000579833984 22.5391788482666 C 26.936933517456055 30.40773582458496 30.16367530822754 31.680137634277344 27.67231559753418 28.657527923583984 C 18.550762176513672 28.859464645385742 20.49725914001465 29.382871627807617 20.991762161254883 20.03392791748047 C 22.178010940551758 27.63504409790039 24.976789474487305 24.72393035888672 24.03645896911621 14.766350746154785 C 30.473026275634766 20.88943099975586 37.78472137451172 19.883544921875 28.117000579833984 22.5391788482666"/>
    <path stroke-width="0" fill="rgb(123, 189, 32)" opacity="0.020775141" stroke="rgb(0, 0, 0)" stroke-opacity="0.0" stroke-linecap="round" stroke-linejoin="round" d="M 371.08587646484375 244.51649475097656 C 369.1945495605469 253.5828857421875 373.0975646972656 259.800048828125 368.6139221191406 257.063232421875 C 367.5687561035156 260.6338195800781 370.0438537597656 254.95631408691406 369.20135498046875 246.8141326904297 C 371.3149719238281 250.55538940429688 372.37725830078125 248.41082763671875 369.1378479003906 248.9239959716797 C 369.49676513671875 248.98834228515625 371.49163818359375 248.86178588867188 371.08587646484375 244.51649475097656"/>
    <path stroke-width="0" fill="rgb(71, 141, 211)" opacity="0.030360498" stroke="rgb(0, 0, 0)" stroke-opacity="0.0" stroke-linecap="round" stroke-linejoin="round" d="M 60.74740219116211 249.796630859375 C 58.02422332763672 252.41749572753906 55.027042388916016 255.40817260742188 52.08933639526367 256.220703125 C 47.621028900146484 253.9345703125 44.39139175415039 252.0232391357422 42.98678207397461 248.5840606689453 C 46.83332824707031 246.45274353027344 50.64704132080078 243.20919799804688 51.29046630859375 239.28228759765625 C 53.89409255981445 242.56988525390625 55.603755950927734 246.27252197265625 60.74740219116211 249.796630859375"/>
    <path stroke-width="0" fill="rgb(114, 100, 109)" opacity="0.41389465" stroke="rgb(0, 0, 0)" stroke-opacity="0.0" stroke-linecap="round" stroke-linejoin="round" d="M 28.469440460205078 302.1397399902344 C 24.647369384765625 300.8894348144531 22.026357650756836 309.9505310058594 18.55287742614746 309.5536804199219 C 23.026081085205078 312.9056091308594 23.810832977294922 306.8399963378906 19.86590003967285 308.3138732910156 C 24.18940544128418 309.103515625 28.706687927246094 302.5062561035156 24.392911911010742 302.5992126464844 C 26.925996780395508 304.4579772949219 31.3328800201416 303.4627685546875 28.469440460205078 302.1397399902344"/>
    <path stroke-width="0" fill="rgb(50, 118, 117)" opacity="0.36748713" stroke="rgb(0, 0, 0)" stroke-opacity="0.0" stroke-linecap="round" stroke-linejoin="round" d="M 71.69506072998047 51.335514068603516 C 68.4996109008789 55.310142517089844 66.6220932006836 56.39043045043945 68.95805358886719 53.71730422973633 C 63.063629150390625 53.93202209472656 56.66726303100586 53.12958908081055 56.97510528564453 55.609615325927734 C 61.33229064941406 50.90969467163086 61.594058990478516 47.055572509765625 63.31806564331055 51.73137283325195 C 65.27823638916016 47.50822448730469 69.5754623413086 51.116737365722656 71.69506072998047 51.335514068603516"/>
    <path stroke-width="0" fill="rgb(88, 58, 214)" opacity="-0.026889741" stroke="rgb(0, 0, 0)" stroke-opacity="0.0" stroke-linecap="round" stroke-linejoin="round" d="M 356.53302001953125 109.76004791259766 C 356.5406494140625 114.66969299316406 355.5970764160156 117.65381622314453 351.0649719238281 116.8646469116211 C 347.3080139160156 116.47987365722656 345.0948181152344 113.37090301513672 347.543212890625 107.99812316894531 C 345.1669616699219 103.03878784179688 345.30487060546875 101.4932861328125 350.4476623535156 104.66373443603516 C 355.4741516113281 103.4889907836914 356.8237609863281 105.26424407958984 356.53302001953125 109.76004791259766"/>
    <path stroke-width="0" fill="rgb(78, 125, 99)" opacity="0.56005853" stroke="rgb(0, 0, 0)" stroke-opacity="0.0" stroke-linecap="round" stroke-linejoin="round" d="M 494.5694580078125 209.49891662597656 C 487.9585876464844 209.4898681640625 486.4063720703125 217.25721740722656 490.95660400390625 218.2341766357422 C 485.7227783203125 218.9619903564453 483.8836669921875 221.21023559570312 486.6234130859375 218.12596130371094 C 484.1536560058594 208.25230407714844 488.0146179199219 204.0782012939453 491.83587646484375 214.64955139160156 C 492.13897705078125 213.21353149414062 498.46026611328125 212.58721923828125 494.5694580078125 209.49891662597656"/>
    <path stroke-width="0" fill="rgb(164, 102, 30)" opacity="0.21466719" stroke="rgb(0, 0, 0)" stroke-opacity="0.0" stroke-linecap="round" stroke-linejoin="round" d="M 410.68109130859375 124.13695526123047 C 409.45867919921875 124.78244018554688 409.56591796875 131.7096405029297 410.60040283203125 129.2895965576172 C 401.9467468261719 130.12545776367188 407.615966796875 132.1732940673828 407.7224426269531 130.3896026611328 C 409.185791015625 131.36167907714844 414.454345703125 128.1463623046875 411.8363037109375 127.82376861572266 C 410.3406677246094 124.74249267578125 411.7259216308594 125.94364929199219 410.68109130859375 124.13695526123047"/>
    <path stroke-width="0" fill="rgb(209, 61, 145)" opacity="0.021414168" stroke="rgb(0, 0, 0)" stroke-opacity="0.0" stroke-linecap="round" stroke-linejoin="round" d="M 187.19046020507812 211.44126892089844 C 183.4931640625 213.5000762939453 180.06590270996094 217.30093383789062 180.72439575195312 225.99632263183594 C 177.11184692382812 227.59786987304688 176.44688415527344 220.87571716308594 178.69482421875 214.60069274902344 C 175.8439483642578 210.98455810546875 177.38482666015625 205.90721130371094 179.9859619140625 209.78167724609375 C 185.32542419433594 212.16848754882812 188.10601806640625 213.5712890625 187.19046020507812 211.44126892089844"/>
    <path stroke-width="0" fill="rgb(3, 140, 110)" opacity="0.13585845" stroke="rgb(0, 0, 0)" stroke-opacity="0.0" stroke-linecap="round" stroke-linejoin="round" d="M 408.9582214355469 494.6465148925781 C 413.89532470703125 492.2986755371094 408.5525207519531 491.4545593261719 397.6463317871094 489.931884765625 C 394.6553039550781 496.6785888671875 394.93359375 493.56298828125 390.2787170410156 486.8809814453125 C 393.939453125 484.4622802734375 397.61077880859375 482.2691650390625 404.4330749511719 479.7290344238281 C 408.52520751953125 480.39373779296875 408.03363037109375 487.2357177734375 408.9582214355469 494.6465148925781"/>
  </g>
</svg>
