<?xml version="1.0" ?>
<svg xmlns="http://www.w3.org/2000/svg" version="1.1" width="512" height="512">
  <defs/>
  <g>
    <path stroke-width="0" fill="rgb(71, 86, 133)" opacity="1.0085572" stroke="rgb(139, 182, 153)" stroke-opacity="1.0" stroke-linecap="round" stroke-linejoin="round" d="M 535.781982421875 303.83258056640625 C 578.2432250976562 717.5508422851562 523.9196166992188 607.5655517578125 409.77728271484375 560.2735595703125 C -4.815953731536865 574.9983520507812 -43.95188903808594 610.2658081054688 -51.99632263183594 372.31396484375 C -35.529502868652344 305.1559143066406 -20.042537689208984 302.2029724121094 -69.00438690185547 334.0641174316406 C 161.36270141601562 414.2991638183594 268.40625 443.52325439453125 535.781982421875 303.83258056640625"/>
    <path stroke-width="0" fill="rgb(94, 125, 232)" opacity="1.0477217" stroke="rgb(108, 164, 111)" stroke-opacity="1.0" stroke-linecap="round" stroke-linejoin="round" d="M 531.5289916992188 -27.257415771484375 C 497.6437072753906 128.59706115722656 518.7026977539062 204.40206909179688 359.23388671875 230.92446899414062 C 182.20602416992188 238.2715606689453 161.5270233154297 303.96112060546875 165.21377563476562 -1.4584909677505493 C 210.9188232421875 -99.50502014160156 286.98626708984375 -51.62980651855469 403.1378173828125 -41.173099517822266 C 511.8313903808594 -42.366355895996094 529.109375 -45.23481750488281 531.5289916992188 -27.257415771484375"/>
    <path stroke-width="0" fill="rgb(-43, 127, 98)" opacity="0.75919545" stroke="rgb(245, 97, 201)" stroke-opacity="1.0" stroke-linecap="round" stroke-linejoin="round" d="M 185.4427490234375 175.2297821044922 C 191.9635467529297 345.3465576171875 175.61090087890625 372.4123840332031 243.18118286132812 416.4136962890625 C -49.16880798339844 424.9599304199219 -53.02180099487305 407.2573547363281 -49.202884674072266 371.97216796875 C -52.37535095214844 79.1630859375 -55.43769836425781 54.96458435058594 -14.099279403686523 -48.22529983520508 C 360.055419921875 -45.64886474609375 348.21368408203125 -3.8407199382781982 185.4427490234375 175.2297821044922"/>
    <path stroke-width="0" fill="rgb(35, -1, 51)" opacity="1.0349762" stroke="rgb(144, 236, 18)" stroke-opacity="1.0" stroke-linecap="round" stroke-linejoin="round" d="M 567.4122924804688 414.4940185546875 C 628.4655151367188 460.102783203125 662.0613403320312 461.1164855957031 293.5027160644531 416.2084045410156 C 335.2072448730469 153.88009643554688 280.65899658203125 387.39239501953125 306.4879150390625 178.49134826660156 C 256.7752380371094 -80.72319793701172 338.2671203613281 -53.507232666015625 483.02911376953125 -40.2048454284668 C 578.5626220703125 -28.153284072875977 566.8272094726562 -10.542065620422363 567.4122924804688 414.4940185546875"/>
    <path stroke-width="0" fill="rgb(-8, -4, 73)" opacity="1.0033416" stroke="rgb(5, 212, 198)" stroke-opacity="1.0" stroke-linecap="round" stroke-linejoin="round" d="M 199.78448486328125 285.6273498535156 C 164.87594604492188 286.2025146484375 252.62770080566406 480.9197998046875 194.81463623046875 446.5155029296875 C 207.5088348388672 299.1779479980469 -46.39298629760742 206.7391815185547 76.86311340332031 134.6194305419922 C 54.79975509643555 185.7573699951172 56.833717346191406 178.38438415527344 26.964277267456055 238.3197784423828 C 104.15503692626953 244.04371643066406 228.76318359375 178.190673828125 199.78448486328125 285.6273498535156"/>
    <path stroke-width="0" fill="rgb(18, -9, 50)" opacity="1.0805888" stroke="rgb(249, 203, 117)" stroke-opacity="1.0" stroke-linecap="round" stroke-linejoin="round" d="M 352.5055236816406 114.07640075683594 C 344.5712890625 187.3229217529297 295.1351013183594 153.2505340576172 246.67208862304688 175.40660095214844 C 97.11973571777344 86.34903717041016 -7.378450870513916 198.56591796875 57.33796691894531 77.39388275146484 C 83.41744232177734 -25.735469818115234 92.60791015625 -30.377405166625977 195.8790740966797 -27.675336837768555 C 218.98446655273438 -42.1191291809082 282.5791320800781 -80.98542022705078 352.5055236816406 114.07640075683594"/>
    <path stroke-width="0" fill="rgb(52, 144, 83)" opacity="1.0247529" stroke="rgb(30, 163, 36)" stroke-opacity="1.0" stroke-linecap="round" stroke-linejoin="round" d="M 578.4916381835938 404.7875671386719 C 694.0384521484375 439.3053894042969 846.5838012695312 529.8840942382812 255.56838989257812 517.6444091796875 C 442.763916015625 203.55892944335938 285.9136657714844 312.70794677734375 329.015625 115.0099868774414 C 383.2135009765625 -28.606775283813477 409.8951110839844 -14.489253997802734 485.3208312988281 -32.248233795166016 C 565.7853393554688 -14.515660285949707 562.3096313476562 3.841090679168701 578.4916381835938 404.7875671386719"/>
    <path stroke-width="0" fill="rgb(35, 146, 107)" opacity="0.97952425" stroke="rgb(133, 105, 67)" stroke-opacity="1.0" stroke-linecap="round" stroke-linejoin="round" d="M 125.34674835205078 62.50387191772461 C 121.13231658935547 113.91732788085938 113.86502838134766 129.36143493652344 77.40152740478516 136.17111206054688 C -15.76981258392334 133.68701171875 -27.13087272644043 130.8836669921875 -34.61164093017578 46.4716682434082 C -28.461292266845703 -17.69627571105957 -20.302188873291016 -27.176698684692383 46.34584045410156 -28.644786834716797 C 110.39076232910156 -2.4799981117248535 114.13704681396484 7.63950777053833 125.34674835205078 62.50387191772461"/>
    <path stroke-width="0" fill="rgb(47, 141, 104)" opacity="0.8373588" stroke="rgb(116, 144, 4)" stroke-opacity="1.0" stroke-linecap="round" stroke-linejoin="round" d="M 111.17295837402344 54.70347595214844 C 65.56560516357422 178.37353515625 92.11994934082031 210.15203857421875 -9.807116508483887 337.2738037109375 C -40.7213249206543 243.1691131591797 -35.085670471191406 217.4142608642578 -37.155120849609375 91.07071685791016 C -28.392751693725586 63.5006103515625 -18.77646255493164 58.01533508300781 78.15190887451172 57.558597564697266 C 121.21871948242188 62.512264251708984 131.50308227539062 68.7473373413086 111.17295837402344 54.70347595214844"/>
    <path stroke-width="0" fill="rgb(47, 142, 105)" opacity="1.0004035" stroke="rgb(156, 157, 240)" stroke-opacity="1.0" stroke-linecap="round" stroke-linejoin="round" d="M 234.64852905273438 42.99525451660156 C 211.19200134277344 122.40367126464844 190.19908142089844 116.4871826171875 114.12030792236328 114.50357055664062 C 49.193443298339844 112.39144134521484 50.161354064941406 89.38278198242188 42.685943603515625 -4.275422096252441 C 31.862287521362305 -31.342273712158203 42.58158874511719 -35.8946647644043 94.07343292236328 -37.2251091003418 C 221.00253295898438 -91.22877502441406 218.3359832763672 -78.4246826171875 234.64852905273438 42.99525451660156"/>
    <path stroke-width="0" fill="rgb(45, 143, 106)" opacity="1.0322747" stroke="rgb(91, 111, 177)" stroke-opacity="1.0" stroke-linecap="round" stroke-linejoin="round" d="M 201.56956481933594 132.397216796875 C 157.4945068359375 377.0948181152344 139.86752319335938 80.64103698730469 168.5303955078125 533.1528930664062 C -127.01535034179688 550.3731079101562 -88.73860168457031 495.13446044921875 -27.465213775634766 435.8583984375 C 49.09283447265625 110.27976989746094 49.58087158203125 75.7906723022461 337.5789489746094 68.41207122802734 C 275.2328796386719 27.143360137939453 269.2334899902344 191.4664306640625 201.56956481933594 132.397216796875"/>
    <path stroke-width="0" fill="rgb(56, 143, 84)" opacity="1.0175399" stroke="rgb(170, 171, 53)" stroke-opacity="1.0" stroke-linecap="round" stroke-linejoin="round" d="M 525.0952758789062 2.7388010025024414 C 501.8588562011719 127.74344635009766 603.3201904296875 168.9857635498047 273.3704833984375 240.3580322265625 C 404.6649475097656 175.864990234375 258.1999206542969 156.44183349609375 201.53463745117188 -21.398117065429688 C 304.89898681640625 -86.0112533569336 335.77398681640625 -53.68967056274414 387.0159606933594 -45.11587142944336 C 518.9805908203125 -42.30170822143555 528.1303100585938 -37.58413314819336 525.0952758789062 2.7388010025024414"/>
    <path stroke-width="0" fill="rgb(61, 116, 127)" opacity="0.83556914" stroke="rgb(80, 92, 145)" stroke-opacity="1.0" stroke-linecap="round" stroke-linejoin="round" d="M 413.7008972167969 -4.255858421325684 C 428.9525451660156 170.7174530029297 281.50439453125 49.436065673828125 288.5574645996094 59.339725494384766 C 110.16769409179688 58.547019958496094 177.58531188964844 99.60850524902344 151.97036743164062 -26.000442504882812 C 154.8877716064453 -31.89655303955078 169.101806640625 -29.487001419067383 216.2349853515625 -28.543506622314453 C 271.21038818359375 -37.61959457397461 283.8244323730469 -37.228580474853516 413.7008972167969 -4.255858421325684"/>
    <path stroke-width="0" fill="rgb(101, 154, 55)" opacity="0.7063584" stroke="rgb(252, 26, 53)" stroke-opacity="1.0" stroke-linecap="round" stroke-linejoin="round" d="M 235.9639892578125 73.66099548339844 C 230.34254455566406 88.94664764404297 218.59182739257812 92.28303527832031 198.90626525878906 95.75768280029297 C 147.61891174316406 98.88890075683594 152.9449920654297 88.92068481445312 140.6684112548828 23.86947250366211 C 137.81260681152344 12.075349807739258 141.44168090820312 0.11868393421173096 155.43580627441406 -12.182659149169922 C 209.8191680908203 44.038414001464844 239.8814239501953 -3.324503183364868 235.9639892578125 73.66099548339844"/>
    <path stroke-width="0" fill="rgb(49, 137, 93)" opacity="0.95609057" stroke="rgb(166, 64, 118)" stroke-opacity="1.0" stroke-linecap="round" stroke-linejoin="round" d="M 240.55926513671875 60.61250305175781 C 191.88063049316406 62.36793899536133 224.86669921875 83.47028350830078 221.42726135253906 99.4636001586914 C 190.10226440429688 19.90491485595703 141.14056396484375 156.83323669433594 134.72999572753906 6.469681739807129 C 133.74774169921875 -15.389382362365723 139.32196044921875 -23.83928680419922 148.25196838378906 -26.875097274780273 C 321.10223388671875 -19.29820442199707 266.8709411621094 -0.5022374987602234 240.55926513671875 60.61250305175781"/>
    <path stroke-width="0" fill="rgb(286, 192, 206)" opacity="0.8686641" stroke="rgb(40, 28, 167)" stroke-opacity="1.0" stroke-linecap="round" stroke-linejoin="round" d="M 300.2855529785156 221.32708740234375 C 245.05599975585938 216.61843872070312 274.98974609375 253.4569854736328 306.6186828613281 222.2826385498047 C 294.9609375 215.95889282226562 256.3947448730469 219.06890869140625 269.77880859375 227.40992736816406 C 215.42184448242188 229.3096923828125 298.474365234375 191.89183044433594 240.1841278076172 192.50169372558594 C 291.5722351074219 124.41524505615234 336.8031005859375 200.1694793701172 300.2855529785156 221.32708740234375"/>
    <path stroke-width="0" fill="rgb(246, 256, 259)" opacity="1.0547025" stroke="rgb(50, 94, 209)" stroke-opacity="1.0" stroke-linecap="round" stroke-linejoin="round" d="M 290.0483093261719 200.68084716796875 C 308.2040710449219 158.4030303955078 336.7548522949219 195.66360473632812 240.8249969482422 236.98402404785156 C 287.1890563964844 111.39350128173828 199.60047912597656 317.88726806640625 183.59756469726562 183.05308532714844 C 289.9082336425781 183.67181396484375 284.4768981933594 130.2361297607422 308.4211120605469 165.5045623779297 C 274.4857177734375 170.8992462158203 267.94158935546875 197.8977508544922 290.0483093261719 200.68084716796875"/>
    <path stroke-width="0" fill="rgb(99, 24, -99)" opacity="1.1886832" stroke="rgb(213, 24, 248)" stroke-opacity="1.0" stroke-linecap="round" stroke-linejoin="round" d="M 300.31365966796875 189.15533447265625 C 309.49285888671875 184.53890991210938 320.8172302246094 195.40191650390625 307.0944519042969 191.64523315429688 C 316.7680358886719 182.93402099609375 269.9549865722656 158.34132385253906 262.6731872558594 190.8146209716797 C 280.5638732910156 209.4069366455078 293.1837463378906 183.33602905273438 300.832763671875 186.1069793701172 C 277.1147766113281 181.3902587890625 298.7020568847656 199.44100952148438 300.31365966796875 189.15533447265625"/>
    <path stroke-width="0" fill="rgb(12, -18, 68)" opacity="0.8574961" stroke="rgb(249, 154, 188)" stroke-opacity="1.0" stroke-linecap="round" stroke-linejoin="round" d="M 360.0826721191406 413.3641357421875 C 324.908935546875 415.3509826660156 400.41192626953125 403.6612854003906 207.4453125 439.8004455566406 C 184.4210205078125 379.3592224121094 82.26492309570312 404.1590270996094 322.0417175292969 397.2790222167969 C 374.42083740234375 422.79803466796875 356.33648681640625 421.57952880859375 356.9779052734375 397.93658447265625 C 301.06561279296875 406.3017578125 285.6584777832031 384.4079895019531 360.0826721191406 413.3641357421875"/>
    <path stroke-width="0" fill="rgb(109, 59, 196)" opacity="0.258863" stroke="rgb(72, 30, 75)" stroke-opacity="1.0" stroke-linecap="round" stroke-linejoin="round" d="M 316.2002868652344 415.2613220214844 C 323.6811828613281 454.248291015625 287.3824157714844 418.0230712890625 259.04583740234375 421.52984619140625 C 250.4757537841797 419.6301574707031 252.72311401367188 409.580078125 250.96714782714844 398.6210021972656 C 260.1893615722656 390.9174499511719 253.4522705078125 422.049072265625 258.96673583984375 416.9635314941406 C 254.18978881835938 417.0815734863281 249.9259796142578 419.38714599609375 316.2002868652344 415.2613220214844"/>
    <path stroke-width="0" fill="rgb(283, 133, -69)" opacity="1.0070548" stroke="rgb(81, 105, 16)" stroke-opacity="1.0" stroke-linecap="round" stroke-linejoin="round" d="M 268.42156982421875 388.85491943359375 C 314.442138671875 382.0223083496094 273.9869384765625 444.2542419433594 271.3896179199219 416.35394287109375 C 209.28199768066406 415.7410583496094 234.51657104492188 434.0631408691406 219.7128143310547 389.6851806640625 C 225.7034149169922 396.17889404296875 248.61654663085938 367.1248779296875 235.77639770507812 414.38092041015625 C 237.90225219726562 375.487548828125 267.7254638671875 408.17840576171875 268.42156982421875 388.85491943359375"/>
    <path stroke-width="0" fill="rgb(137, 56, 94)" opacity="1.2682738" stroke="rgb(144, 67, 133)" stroke-opacity="1.0" stroke-linecap="round" stroke-linejoin="round" d="M 289.2109680175781 195.97772216796875 C 280.9133605957031 155.6991424560547 256.2284240722656 212.85423278808594 304.7535095214844 184.65457153320312 C 288.6741638183594 209.01177978515625 276.08966064453125 214.24440002441406 262.2269287109375 194.80377197265625 C 260.0817565917969 171.0158233642578 291.58782958984375 160.8813934326172 295.3155212402344 183.93063354492188 C 311.457275390625 187.01651000976562 296.9096984863281 183.7480926513672 289.2109680175781 195.97772216796875"/>
    <path stroke-width="0" fill="rgb(282, 260, 257)" opacity="0.9616701" stroke="rgb(33, 182, 73)" stroke-opacity="1.0" stroke-linecap="round" stroke-linejoin="round" d="M 315.86077880859375 185.44142150878906 C 321.9544677734375 188.8583526611328 312.05438232421875 237.08718872070312 262.417236328125 229.2954864501953 C 266.97869873046875 209.45941162109375 286.3793029785156 224.4130401611328 292.11138916015625 216.8069305419922 C 282.035888671875 220.1979217529297 310.1173095703125 211.0546875 288.4947509765625 146.8928985595703 C 308.297119140625 152.13670349121094 323.193359375 189.45046997070312 315.86077880859375 185.44142150878906"/>
    <path stroke-width="0" fill="rgb(253, 211, 186)" opacity="0.85886097" stroke="rgb(149, 5, 211)" stroke-opacity="1.0" stroke-linecap="round" stroke-linejoin="round" d="M 512.7388916015625 490.2760925292969 C 473.8287048339844 470.3375549316406 416.6384582519531 437.697265625 546.6572875976562 509.5617980957031 C 431.60687255859375 417.3107604980469 428.39599609375 397.9807434082031 403.2247009277344 380.9721984863281 C 372.6938781738281 347.57061767578125 293.21466064453125 271.78253173828125 354.6477966308594 338.1632385253906 C 432.7041320800781 415.10223388671875 442.26153564453125 421.7035827636719 512.7388916015625 490.2760925292969"/>
    <path stroke-width="0" fill="rgb(15, -19, 62)" opacity="1.0045367" stroke="rgb(172, 68, 187)" stroke-opacity="1.0" stroke-linecap="round" stroke-linejoin="round" d="M 284.8821716308594 392.824951171875 C 279.07861328125 453.5161437988281 339.05560302734375 369.9224548339844 309.12554931640625 440.37530517578125 C 309.3354797363281 442.3946228027344 293.3887023925781 420.1468200683594 298.3799133300781 438.1764221191406 C 297.6805419921875 441.61724853515625 284.8841552734375 337.6113586425781 317.27984619140625 400.03265380859375 C 429.79888916015625 390.2988586425781 277.3541259765625 417.7022399902344 284.8821716308594 392.824951171875"/>
    <path stroke-width="0" fill="rgb(39, 145, 97)" opacity="1.013153" stroke="rgb(63, 146, 150)" stroke-opacity="1.0" stroke-linecap="round" stroke-linejoin="round" d="M 496.0480651855469 -4.845166206359863 C 187.8125457763672 157.15782165527344 391.4263000488281 157.49192810058594 224.64678955078125 140.00999450683594 C 154.1214599609375 50.878944396972656 218.69155883789062 386.0497131347656 -16.503372192382812 493.9189758300781 C -41.25949478149414 29.7869930267334 158.89295959472656 72.25807189941406 120.17169189453125 54.97179412841797 C 279.4934387207031 57.48640441894531 300.19879150390625 85.3106460571289 496.0480651855469 -4.845166206359863"/>
    <path stroke-width="0" fill="rgb(32, -12, 66)" opacity="0.9618656" stroke="rgb(56, 242, 114)" stroke-opacity="1.0" stroke-linecap="round" stroke-linejoin="round" d="M 222.59432983398438 174.0381622314453 C 247.2452392578125 163.3002471923828 247.55027770996094 198.67787170410156 230.6107940673828 204.8907012939453 C 202.8253936767578 215.92491149902344 185.82733154296875 165.59280395507812 232.44290161132812 172.6332550048828 C 242.8157501220703 181.41159057617188 216.31427001953125 177.51138305664062 229.67308044433594 176.29124450683594 C 187.332763671875 186.06211853027344 248.96316528320312 164.7445831298828 222.59432983398438 174.0381622314453"/>
    <path stroke-width="0" fill="rgb(281, 193, 152)" opacity="0.92460495" stroke="rgb(224, 148, 224)" stroke-opacity="1.0" stroke-linecap="round" stroke-linejoin="round" d="M 82.00064086914062 423.692138671875 C 70.79959869384766 424.4103698730469 77.36096954345703 429.864501953125 65.41352081298828 432.8608093261719 C 81.2442398071289 430.1832580566406 77.08575439453125 409.1327819824219 41.95351028442383 456.7711181640625 C 44.66664505004883 443.1535949707031 128.58380126953125 381.74957275390625 180.5735321044922 305.0940856933594 C 68.75526428222656 438.4630126953125 43.450801849365234 434.3852844238281 82.00064086914062 423.692138671875"/>
    <path stroke-width="0" fill="rgb(276, 263, -31)" opacity="1.1119479" stroke="rgb(184, 127, 243)" stroke-opacity="1.0" stroke-linecap="round" stroke-linejoin="round" d="M 263.9054870605469 205.7157440185547 C 269.755615234375 202.9315185546875 321.9195251464844 178.96360778808594 265.9327087402344 178.0835418701172 C 298.76739501953125 163.46910095214844 288.5909423828125 188.4224853515625 261.0823974609375 211.83421325683594 C 297.8297424316406 221.3608856201172 295.46099853515625 217.8983612060547 278.4866638183594 212.54913330078125 C 261.21270751953125 212.4491424560547 276.9256286621094 237.3087615966797 263.9054870605469 205.7157440185547"/>
    <path stroke-width="0" fill="rgb(248, 249, 265)" opacity="1.062107" stroke="rgb(108, 154, 4)" stroke-opacity="1.0" stroke-linecap="round" stroke-linejoin="round" d="M 259.0935363769531 178.0339813232422 C 222.74169921875 184.71763610839844 224.38352966308594 139.2647705078125 201.12586975097656 188.9451904296875 C 185.41505432128906 253.86952209472656 164.58204650878906 169.10601806640625 203.9111785888672 154.78236389160156 C 206.40579223632812 135.05917358398438 212.16294860839844 145.6470947265625 211.5871124267578 139.56060791015625 C 198.6622314453125 140.3392333984375 202.6514129638672 160.576416015625 259.0935363769531 178.0339813232422"/>
    <path stroke-width="0" fill="rgb(-10, -10, 64)" opacity="0.94755584" stroke="rgb(168, 73, 157)" stroke-opacity="1.0" stroke-linecap="round" stroke-linejoin="round" d="M 185.7639923095703 224.68380737304688 C 193.0409698486328 223.39279174804688 188.686767578125 221.55599975585938 191.65847778320312 224.03067016601562 C 247.9987030029297 275.859375 290.80047607421875 242.8616485595703 246.37042236328125 218.8014373779297 C 193.81594848632812 240.0011749267578 182.91006469726562 212.4764404296875 180.1118621826172 169.5515594482422 C 165.1398468017578 216.6709747314453 202.06495666503906 222.67599487304688 185.7639923095703 224.68380737304688"/>
    <path stroke-width="0" fill="rgb(-19, -24, 70)" opacity="1.0220646" stroke="rgb(34, 76, 145)" stroke-opacity="1.0" stroke-linecap="round" stroke-linejoin="round" d="M 225.73745727539062 150.19845581054688 C 204.93685913085938 134.885498046875 196.32835388183594 163.71485900878906 181.41595458984375 166.14845275878906 C 176.84133911132812 239.17674255371094 185.7668914794922 141.33407592773438 198.57455444335938 146.0739288330078 C 186.60662841796875 142.2014617919922 182.9945068359375 109.66079711914062 183.72084045410156 111.4584732055664 C 197.24224853515625 134.48309326171875 213.26097106933594 136.93630981445312 225.73745727539062 150.19845581054688"/>
    <path stroke-width="0" fill="rgb(283, 237, -56)" opacity="1.1432831" stroke="rgb(146, 166, 166)" stroke-opacity="1.0" stroke-linecap="round" stroke-linejoin="round" d="M 222.51837158203125 193.41563415527344 C 244.3941650390625 150.59661865234375 185.5320281982422 183.6283416748047 222.39987182617188 196.8436737060547 C 250.89720153808594 190.82029724121094 216.1672821044922 157.07992553710938 228.78976440429688 180.01370239257812 C 210.21836853027344 174.0340576171875 213.03916931152344 189.6307373046875 227.54290771484375 184.2947540283203 C 222.97784423828125 171.876220703125 210.34091186523438 180.46768188476562 222.51837158203125 193.41563415527344"/>
    <path stroke-width="0" fill="rgb(245, 225, 280)" opacity="0.5816719" stroke="rgb(177, 115, 184)" stroke-opacity="1.0" stroke-linecap="round" stroke-linejoin="round" d="M 249.35975646972656 181.07464599609375 C 242.4820556640625 197.83290100097656 242.24371337890625 169.00448608398438 213.3645477294922 160.56736755371094 C 189.65658569335938 199.4775390625 185.1481170654297 159.73211669921875 225.95143127441406 171.74102783203125 C 239.37405395507812 164.61692810058594 252.3497772216797 174.35841369628906 258.0758056640625 175.04946899414062 C 205.7482147216797 127.11660766601562 228.1019744873047 151.885009765625 249.35975646972656 181.07464599609375"/>
    <path stroke-width="0" fill="rgb(216, 186, -6)" opacity="0.30169433" stroke="rgb(248, 218, 2)" stroke-opacity="1.0" stroke-linecap="round" stroke-linejoin="round" d="M 244.47445678710938 156.34620666503906 C 217.76052856445312 236.398681640625 193.72015380859375 167.25091552734375 233.8504180908203 176.7686004638672 C 239.94039916992188 228.38722229003906 202.85635375976562 214.3377227783203 237.51515197753906 199.20355224609375 C 197.9068145751953 184.78347778320312 211.51649475097656 166.31373596191406 244.30828857421875 185.44102478027344 C 215.12939453125 177.0658416748047 257.86334228515625 178.33767700195312 244.47445678710938 156.34620666503906"/>
    <path stroke-width="0" fill="rgb(14, -27, 79)" opacity="0.92715234" stroke="rgb(88, 236, 179)" stroke-opacity="1.0" stroke-linecap="round" stroke-linejoin="round" d="M 287.1802978515625 231.44815063476562 C 243.9228057861328 204.6544952392578 212.93836975097656 228.3184051513672 231.4884796142578 209.83139038085938 C 269.7190856933594 221.52621459960938 245.03402709960938 229.29078674316406 222.0219268798828 236.48106384277344 C 258.9357604980469 236.10491943359375 235.62513732910156 235.6786651611328 250.94712829589844 229.4596710205078 C 228.08425903320312 244.04251098632812 195.92515563964844 228.6378631591797 287.1802978515625 231.44815063476562"/>
    <path stroke-width="0" fill="rgb(-60, 48, 27)" opacity="0.13989456" stroke="rgb(41, 158, 147)" stroke-opacity="1.0" stroke-linecap="round" stroke-linejoin="round" d="M 184.6283416748047 227.53990173339844 C 198.35183715820312 186.1148681640625 175.50428771972656 217.23851013183594 161.47756958007812 280.1800537109375 C 181.6524658203125 199.59837341308594 178.18109130859375 195.05630493164062 189.3617401123047 218.14649963378906 C 192.4813232421875 201.6318359375 207.6831512451172 238.35768127441406 181.83953857421875 223.71900939941406 C 178.9326171875 237.08921813964844 178.03225708007812 226.13673400878906 184.6283416748047 227.53990173339844"/>
    <path stroke-width="0" fill="rgb(28, -18, 73)" opacity="0.500705" stroke="rgb(238, 156, 136)" stroke-opacity="1.0" stroke-linecap="round" stroke-linejoin="round" d="M 184.5197296142578 326.23321533203125 C 162.93504333496094 283.28924560546875 159.03842163085938 300.70849609375 175.54202270507812 302.54583740234375 C 195.36997985839844 354.44049072265625 203.39572143554688 273.8145751953125 177.891845703125 281.3087158203125 C 188.67599487304688 355.71026611328125 194.60128784179688 266.9998474121094 178.9481201171875 321.1894836425781 C 153.44317626953125 312.3333435058594 169.2744903564453 326.2168273925781 184.5197296142578 326.23321533203125"/>
    <path stroke-width="0" fill="rgb(240, 240, 260)" opacity="0.66454196" stroke="rgb(186, 79, 101)" stroke-opacity="1.0" stroke-linecap="round" stroke-linejoin="round" d="M 214.72149658203125 162.834716796875 C 253.0420684814453 189.08352661132812 256.40179443359375 208.19654846191406 246.05694580078125 173.9137725830078 C 211.9583282470703 152.6621551513672 195.52772521972656 195.60513305664062 196.26397705078125 207.47047424316406 C 196.81094360351562 148.6501922607422 215.30130004882812 158.46827697753906 201.868896484375 173.54788208007812 C 191.00726318359375 165.23866271972656 204.98941040039062 176.28419494628906 214.72149658203125 162.834716796875"/>
    <path stroke-width="0" fill="rgb(252, 260, 251)" opacity="0.9791801" stroke="rgb(47, 240, 188)" stroke-opacity="1.0" stroke-linecap="round" stroke-linejoin="round" d="M 245.416748046875 194.27536010742188 C 334.6595458984375 230.34010314941406 292.92803955078125 216.46859741210938 213.27622985839844 221.02114868164062 C 202.41839599609375 214.2214813232422 221.79180908203125 212.6216278076172 202.62637329101562 218.5770721435547 C 247.48944091796875 204.25865173339844 245.51980590820312 200.44503784179688 248.50390625 212.22811889648438 C 247.17263793945312 223.25375366210938 249.95701599121094 237.14071655273438 245.416748046875 194.27536010742188"/>
    <path stroke-width="0" fill="rgb(75, 37, -3)" opacity="0.8310514" stroke="rgb(57, 64, 14)" stroke-opacity="1.0" stroke-linecap="round" stroke-linejoin="round" d="M 307.6693115234375 317.36328125 C 319.4171142578125 325.64581298828125 306.6689758300781 300.6802062988281 310.5757141113281 332.4380187988281 C 292.27044677734375 316.2491149902344 346.78692626953125 320.1944580078125 318.96160888671875 295.2376403808594 C 304.09429931640625 320.5965881347656 316.9447021484375 322.81683349609375 312.9356384277344 303.9607849121094 C 333.2966613769531 279.08514404296875 318.4366455078125 269.5247802734375 307.6693115234375 317.36328125"/>
    <path stroke-width="0" fill="rgb(125, 220, 252)" opacity="-0.0033002968" stroke="rgb(169, 67, 5)" stroke-opacity="1.0" stroke-linecap="round" stroke-linejoin="round" d="M 189.9989776611328 229.16819763183594 C 216.92758178710938 268.221435546875 230.94430541992188 243.1348419189453 240.189697265625 206.19850158691406 C 207.5430145263672 217.14559936523438 200.3890380859375 211.76016235351562 204.04360961914062 215.53431701660156 C 178.27259826660156 244.1910858154297 231.2566375732422 245.4774627685547 235.80201721191406 224.56564331054688 C 206.78273010253906 196.5017852783203 205.95945739746094 194.25106811523438 189.9989776611328 229.16819763183594"/>
    <path stroke-width="0" fill="rgb(304, 206, 197)" opacity="1.1184835" stroke="rgb(81, 97, 150)" stroke-opacity="1.0" stroke-linecap="round" stroke-linejoin="round" d="M 99.42842102050781 394.32659912109375 C 51.86457824707031 456.0744934082031 -14.16240119934082 498.0047607421875 -13.765083312988281 525.202880859375 C -3.401204824447632 481.1339111328125 -55.95347595214844 505.5627746582031 -29.504064559936523 488.4368591308594 C -10.254148483276367 494.6418762207031 12.557779312133789 509.9571228027344 -23.897092819213867 520.7638549804688 C -23.14865493774414 507.2344055175781 -4.677700996398926 503.50701904296875 99.42842102050781 394.32659912109375"/>
    <path stroke-width="0" fill="rgb(19, -20, 61)" opacity="0.991518" stroke="rgb(47, 242, 175)" stroke-opacity="1.0" stroke-linecap="round" stroke-linejoin="round" d="M 297.5792236328125 234.19253540039062 C 338.1604919433594 192.65731811523438 313.87298583984375 218.717529296875 283.8150634765625 227.20806884765625 C 228.34498596191406 225.333740234375 277.5812683105469 219.75486755371094 278.44842529296875 230.2902069091797 C 261.81396484375 223.58985900878906 228.6493682861328 234.8463897705078 259.0835266113281 232.08502197265625 C 226.4916534423828 243.06829833984375 242.89166259765625 269.7000732421875 297.5792236328125 234.19253540039062"/>
    <path stroke-width="0" fill="rgb(53, -34, 38)" opacity="1.1308142" stroke="rgb(132, 6, 52)" stroke-opacity="1.0" stroke-linecap="round" stroke-linejoin="round" d="M 304.1567077636719 134.1009063720703 C 271.6686706542969 137.53265380859375 317.11492919921875 169.91346740722656 315.8224792480469 117.04618835449219 C 277.47052001953125 165.32212829589844 191.88497924804688 153.876220703125 236.22682189941406 154.73597717285156 C 310.4322814941406 157.97213745117188 291.724853515625 148.37135314941406 294.8773193359375 135.8614044189453 C 309.8108215332031 153.17738342285156 285.1545715332031 150.78736877441406 304.1567077636719 134.1009063720703"/>
    <path stroke-width="0" fill="rgb(310, 149, -84)" opacity="1.0161479" stroke="rgb(220, 29, 131)" stroke-opacity="1.0" stroke-linecap="round" stroke-linejoin="round" d="M 241.15953063964844 199.39402770996094 C 277.86700439453125 196.38400268554688 258.6241149902344 233.07733154296875 248.7386016845703 233.9484100341797 C 222.648193359375 178.7800750732422 256.2113342285156 181.16815185546875 218.09109497070312 200.54661560058594 C 245.77828979492188 187.02056884765625 245.3871307373047 171.11032104492188 254.78848266601562 191.41104125976562 C 232.1069793701172 170.16395568847656 237.86660766601562 199.0272979736328 241.15953063964844 199.39402770996094"/>
    <path stroke-width="0" fill="rgb(-9, -14, 40)" opacity="0.32087794" stroke="rgb(36, 124, 90)" stroke-opacity="1.0" stroke-linecap="round" stroke-linejoin="round" d="M 270.4842529296875 155.65672302246094 C 216.0826416015625 157.33941650390625 189.58982849121094 136.50018310546875 188.570556640625 134.52523803710938 C 225.12437438964844 138.12326049804688 253.7041778564453 160.94117736816406 234.6901092529297 169.50784301757812 C 252.540771484375 154.60923767089844 241.70928955078125 123.50411224365234 255.37123107910156 156.7061004638672 C 274.099853515625 145.4862060546875 259.7353820800781 162.5226287841797 270.4842529296875 155.65672302246094"/>
    <path stroke-width="0" fill="rgb(37, 26, -76)" opacity="0.5857769" stroke="rgb(195, 190, 230)" stroke-opacity="1.0" stroke-linecap="round" stroke-linejoin="round" d="M 228.19252014160156 433.6194152832031 C 223.16966247558594 392.4341125488281 201.03175354003906 394.6445617675781 255.27796936035156 366.3376770019531 C 236.21546936035156 377.2116394042969 218.1943817138672 389.2371520996094 216.31686401367188 384.25421142578125 C 223.04832458496094 410.78570556640625 220.11285400390625 395.2397155761719 220.94793701171875 362.6239929199219 C 210.32260131835938 421.7914733886719 239.7922821044922 413.6011962890625 228.19252014160156 433.6194152832031"/>
    <path stroke-width="0" fill="rgb(90, 87, 24)" opacity="0.27800208" stroke="rgb(170, 200, 71)" stroke-opacity="1.0" stroke-linecap="round" stroke-linejoin="round" d="M 242.9712371826172 150.25717163085938 C 253.94390869140625 163.58047485351562 229.9595184326172 152.69204711914062 239.310791015625 146.34915161132812 C 253.6894989013672 173.65147399902344 240.90750122070312 180.15316772460938 208.98265075683594 185.7486114501953 C 199.0939178466797 184.18923950195312 217.88858032226562 183.29002380371094 209.4784698486328 188.51126098632812 C 264.3204650878906 179.76187133789062 251.57278442382812 173.33335876464844 242.9712371826172 150.25717163085938"/>
    <path stroke-width="0" fill="rgb(224, 238, 295)" opacity="0.45970625" stroke="rgb(24, 219, 248)" stroke-opacity="1.0" stroke-linecap="round" stroke-linejoin="round" d="M 248.2559356689453 189.91265869140625 C 267.7240905761719 188.83042907714844 266.085205078125 156.29025268554688 249.44366455078125 188.59124755859375 C 240.759521484375 147.86196899414062 243.79580688476562 141.2339324951172 236.80433654785156 162.7241973876953 C 263.9178161621094 154.80007934570312 282.22357177734375 157.6070556640625 252.97119140625 159.12283325195312 C 243.50003051757812 135.89637756347656 243.46058654785156 138.5387725830078 248.2559356689453 189.91265869140625"/>
    <path stroke-width="0" fill="rgb(41, 155, 94)" opacity="0.7790026" stroke="rgb(231, 197, 84)" stroke-opacity="1.0" stroke-linecap="round" stroke-linejoin="round" d="M 267.272216796875 148.7780303955078 C 266.7823181152344 145.60401916503906 264.6169128417969 155.8134307861328 235.30152893066406 159.01113891601562 C 253.62155151367188 161.54885864257812 276.3439636230469 133.6537322998047 288.0783386230469 135.20037841796875 C 217.84815979003906 142.41845703125 211.04481506347656 145.07040405273438 276.6404113769531 141.53781127929688 C 259.416259765625 163.15223693847656 250.18756103515625 176.33255004882812 267.272216796875 148.7780303955078"/>
    <path stroke-width="0" fill="rgb(302, 170, -91)" opacity="1.0768569" stroke="rgb(107, 142, 219)" stroke-opacity="1.0" stroke-linecap="round" stroke-linejoin="round" d="M 249.81668090820312 210.75674438476562 C 274.47100830078125 178.79022216796875 269.89154052734375 196.6179962158203 276.79229736328125 211.1887969970703 C 262.84588623046875 191.82142639160156 291.93560791015625 173.326904296875 268.77142333984375 177.56338500976562 C 259.8597412109375 207.6248016357422 308.19146728515625 195.66671752929688 263.17193603515625 192.65982055664062 C 271.2401428222656 187.57754516601562 260.1067199707031 199.7135772705078 249.81668090820312 210.75674438476562"/>
    <path stroke-width="0" fill="rgb(243, 258, 278)" opacity="0.62439656" stroke="rgb(68, 33, 14)" stroke-opacity="1.0" stroke-linecap="round" stroke-linejoin="round" d="M 290.7282409667969 205.73069763183594 C 275.8452453613281 217.5914764404297 263.3799133300781 226.9790802001953 282.55072021484375 209.13612365722656 C 276.702880859375 207.28077697753906 267.84320068359375 191.3895263671875 247.8043975830078 176.1648712158203 C 240.3578643798828 189.57484436035156 259.3325500488281 197.28890991210938 237.5323486328125 172.10870361328125 C 255.2945098876953 207.000732421875 266.8629150390625 217.95101928710938 290.7282409667969 205.73069763183594"/>
    <path stroke-width="0" fill="rgb(65, 127, 96)" opacity="0.47649622" stroke="rgb(66, 116, 174)" stroke-opacity="1.0" stroke-linecap="round" stroke-linejoin="round" d="M 271.5579528808594 182.2000732421875 C 247.11239624023438 193.13580322265625 238.89450073242188 179.0135040283203 242.76629638671875 203.859619140625 C 250.44125366210938 190.03607177734375 246.107177734375 176.65545654296875 249.92352294921875 196.68775939941406 C 253.0464630126953 137.52166748046875 235.0437774658203 163.39634704589844 249.37123107910156 156.741455078125 C 237.62083435058594 196.77210998535156 260.03662109375 184.9866485595703 271.5579528808594 182.2000732421875"/>
    <path stroke-width="0" fill="rgb(8, -7, 55)" opacity="0.58440673" stroke="rgb(109, 130, 136)" stroke-opacity="1.0" stroke-linecap="round" stroke-linejoin="round" d="M 188.9416961669922 335.6852111816406 C 175.87890625 293.4814758300781 184.50918579101562 301.782470703125 187.99234008789062 295.0377197265625 C 175.89254760742188 302.2514343261719 155.53651428222656 291.8147277832031 168.00161743164062 247.03549194335938 C 186.1640625 301.28411865234375 186.08428955078125 307.34320068359375 190.3960723876953 238.62957763671875 C 200.8932647705078 221.77854919433594 182.8651885986328 254.0616455078125 188.9416961669922 335.6852111816406"/>
    <path stroke-width="0" fill="rgb(23, 0, 40)" opacity="0.5937387" stroke="rgb(47, 230, 138)" stroke-opacity="1.0" stroke-linecap="round" stroke-linejoin="round" d="M 184.97279357910156 360.5199279785156 C 162.14353942871094 363.7456970214844 171.2068328857422 365.87994384765625 169.97149658203125 329.1357421875 C 173.51075744628906 337.9975891113281 174.7593536376953 325.9292907714844 194.94088745117188 366.32293701171875 C 173.38478088378906 325.2021484375 148.8858642578125 262.2294006347656 166.94004821777344 305.3555603027344 C 177.42898559570312 334.45465087890625 181.13455200195312 344.28485107421875 184.97279357910156 360.5199279785156"/>
    <path stroke-width="0" fill="rgb(15, 1, 13)" opacity="0.5519964" stroke="rgb(224, 116, 184)" stroke-opacity="1.0" stroke-linecap="round" stroke-linejoin="round" d="M 331.890625 348.19049072265625 C 344.889892578125 303.51788330078125 329.6671447753906 326.2406311035156 308.3446960449219 372.2926330566406 C 325.8512268066406 339.76470947265625 345.36383056640625 312.052001953125 317.2864990234375 357.6841735839844 C 310.9826965332031 338.6006774902344 321.49578857421875 336.1955261230469 339.0667724609375 334.4028625488281 C 304.4861755371094 339.6296081542969 321.68035888671875 342.72064208984375 331.890625 348.19049072265625"/>
    <path stroke-width="0" fill="rgb(165, 128, 111)" opacity="0.9483755" stroke="rgb(230, 175, 178)" stroke-opacity="1.0" stroke-linecap="round" stroke-linejoin="round" d="M 164.7719268798828 331.07025146484375 C 140.33753967285156 309.0086669921875 126.28302001953125 321.10504150390625 113.17273712158203 316.1122131347656 C 138.6124725341797 321.2677307128906 154.4520721435547 322.6698303222656 143.2034454345703 316.41632080078125 C 153.4273223876953 321.9505615234375 140.60678100585938 314.3560485839844 163.53575134277344 329.2431945800781 C 206.62440490722656 271.46441650390625 207.90252685546875 284.8097229003906 164.7719268798828 331.07025146484375"/>
    <path stroke-width="0" fill="rgb(236, 234, 244)" opacity="0.13877621" stroke="rgb(203, 244, 116)" stroke-opacity="1.0" stroke-linecap="round" stroke-linejoin="round" d="M 265.04736328125 336.73724365234375 C 236.508544921875 387.5240478515625 218.43008422851562 409.83673095703125 209.208984375 384.91668701171875 C 180.5778350830078 322.071044921875 215.55332946777344 306.5671081542969 216.14576721191406 352.3634948730469 C 211.53634643554688 367.0726623535156 211.43240356445312 360.1468505859375 214.59173583984375 289.1429748535156 C 237.38619995117188 283.4129333496094 229.28680419921875 294.5613098144531 265.04736328125 336.73724365234375"/>
    <path stroke-width="0" fill="rgb(2, 1, 73)" opacity="0.9703746" stroke="rgb(65, 216, 8)" stroke-opacity="1.0" stroke-linecap="round" stroke-linejoin="round" d="M 195.46730041503906 390.9326477050781 C 174.48756408691406 340.6157531738281 200.9415740966797 338.16119384765625 197.6175537109375 367.8465270996094 C 197.90538024902344 405.6630554199219 183.46058654785156 399.66046142578125 163.01187133789062 348.98077392578125 C 153.12843322753906 328.6482238769531 159.0038299560547 324.9339599609375 197.6647491455078 336.16485595703125 C 200.6602325439453 372.575439453125 198.14588928222656 382.4584045410156 195.46730041503906 390.9326477050781"/>
    <path stroke-width="0" fill="rgb(253, 252, 251)" opacity="1.0043937" stroke="rgb(102, 236, 25)" stroke-opacity="1.0" stroke-linecap="round" stroke-linejoin="round" d="M 287.2386779785156 357.6512756347656 C 280.0691223144531 375.3194580078125 224.72373962402344 396.73486328125 209.69500732421875 383.15325927734375 C 218.45883178710938 367.4248962402344 221.6924591064453 347.7250061035156 226.1830291748047 330.0807189941406 C 230.11341857910156 386.6584777832031 225.08448791503906 382.20782470703125 215.63160705566406 330.0920104980469 C 235.44224548339844 340.474853515625 257.53271484375 347.0166015625 287.2386779785156 357.6512756347656"/>
    <path stroke-width="0" fill="rgb(159, 55, 11)" opacity="1.1373675" stroke="rgb(33, 3, 29)" stroke-opacity="1.0" stroke-linecap="round" stroke-linejoin="round" d="M 229.02783203125 387.2182312011719 C 218.7316436767578 386.67132568359375 222.08975219726562 418.7310791015625 222.45252990722656 417.63037109375 C 156.4765167236328 410.7930603027344 130.4815216064453 436.0250244140625 138.320068359375 396.8398132324219 C 145.54254150390625 400.6216125488281 228.73329162597656 397.3495178222656 222.54490661621094 398.08160400390625 C 224.64767456054688 397.9504699707031 217.24411010742188 400.06500244140625 229.02783203125 387.2182312011719"/>
    <path stroke-width="0" fill="rgb(228, 75, -27)" opacity="0.992168" stroke="rgb(199, 73, 61)" stroke-opacity="1.0" stroke-linecap="round" stroke-linejoin="round" d="M 283.9212951660156 412.9576721191406 C 287.3331604003906 396.86395263671875 277.38519287109375 405.0919189453125 286.9433288574219 402.12945556640625 C 288.18975830078125 414.1482849121094 285.9217224121094 393.3157958984375 286.6270751953125 398.5157470703125 C 284.492431640625 396.9251403808594 268.2516174316406 397.8071594238281 355.58404541015625 398.8584899902344 C 388.1927490234375 428.5886535644531 264.01556396484375 415.6424255371094 283.9212951660156 412.9576721191406"/>
    <path stroke-width="0" fill="rgb(56, 139, 76)" opacity="0.78237545" stroke="rgb(175, 14, 186)" stroke-opacity="1.0" stroke-linecap="round" stroke-linejoin="round" d="M 486.97906494140625 135.88035583496094 C 447.8002624511719 181.1399688720703 518.0305786132812 260.25616455078125 641.8975219726562 129.13223266601562 C 511.7834777832031 79.14395141601562 608.1447143554688 -3.676504135131836 335.03472900390625 -88.1604232788086 C 128.8632049560547 155.0115509033203 226.63333129882812 6.29048490524292 360.1530456542969 93.53005981445312 C 501.158447265625 159.9744415283203 454.0420837402344 131.45339965820312 486.97906494140625 135.88035583496094"/>
    <path stroke-width="0" fill="rgb(61, 126, 105)" opacity="0.39768505" stroke="rgb(95, 190, 60)" stroke-opacity="1.0" stroke-linecap="round" stroke-linejoin="round" d="M 135.907470703125 156.97979736328125 C 125.3594970703125 184.6611785888672 85.20338439941406 140.65777587890625 70.96977233886719 206.7316131591797 C 135.25440979003906 263.25518798828125 136.16587829589844 184.54452514648438 179.52838134765625 173.6720733642578 C 143.30201721191406 201.533447265625 136.61810302734375 206.97430419921875 172.47984313964844 178.6119842529297 C 161.96897888183594 166.86453247070312 170.95193481445312 184.95179748535156 135.907470703125 156.97979736328125"/>
    <path stroke-width="0" fill="rgb(-14, -16, 62)" opacity="1.0106617" stroke="rgb(213, 60, 128)" stroke-opacity="1.0" stroke-linecap="round" stroke-linejoin="round" d="M 257.34869384765625 150.26705932617188 C 259.9252624511719 190.1392059326172 240.01449584960938 165.243408203125 214.14466857910156 156.27931213378906 C 235.48402404785156 159.54458618164062 226.7335662841797 153.55419921875 211.15406799316406 152.20066833496094 C 176.49371337890625 116.92510986328125 168.27830505371094 120.93634796142578 188.91470336914062 143.9733428955078 C 199.25650024414062 146.55686950683594 363.2034912109375 146.28907775878906 257.34869384765625 150.26705932617188"/>
    <path stroke-width="0" fill="rgb(58, 140, 108)" opacity="0.8917439" stroke="rgb(228, 103, 140)" stroke-opacity="1.0" stroke-linecap="round" stroke-linejoin="round" d="M 133.4261016845703 273.5948181152344 C 162.29718017578125 312.96160888671875 168.033203125 318.7366638183594 119.87677764892578 330.8646240234375 C 90.90717315673828 336.4374084472656 63.75234603881836 314.7061462402344 112.81822204589844 267.67095947265625 C 115.428955078125 279.9553527832031 141.860595703125 257.456298828125 136.1610565185547 294.31201171875 C 138.49679565429688 301.4708557128906 148.9402313232422 292.0732727050781 133.4261016845703 273.5948181152344"/>
    <path stroke-width="0" fill="rgb(234, 258, 275)" opacity="0.9525694" stroke="rgb(63, 128, 79)" stroke-opacity="1.0" stroke-linecap="round" stroke-linejoin="round" d="M 254.96400451660156 198.3994903564453 C 212.3188934326172 219.54205322265625 216.2105255126953 234.84019470214844 234.58990478515625 222.29185485839844 C 230.10304260253906 206.19134521484375 218.19911193847656 218.5941925048828 196.35009765625 188.55845642089844 C 215.38851928710938 233.53585815429688 248.68246459960938 219.78294372558594 237.5373992919922 177.2473602294922 C 202.87969970703125 149.027099609375 283.79827880859375 187.2602081298828 254.96400451660156 198.3994903564453"/>
    <path stroke-width="0" fill="rgb(61, 127, 113)" opacity="0.29649776" stroke="rgb(26, 88, 188)" stroke-opacity="1.0" stroke-linecap="round" stroke-linejoin="round" d="M 147.4469451904297 165.02455139160156 C 90.3612289428711 206.45639038085938 80.85554504394531 247.384765625 107.88137817382812 237.17747497558594 C 164.01087951660156 230.0808868408203 144.05958557128906 222.5079803466797 142.69058227539062 206.6858673095703 C 145.82272338867188 252.21022033691406 136.47511291503906 260.1253967285156 135.48501586914062 217.18124389648438 C 115.51997375488281 254.8709716796875 115.40193176269531 235.2203826904297 147.4469451904297 165.02455139160156"/>
    <path stroke-width="0" fill="rgb(19, -7, 42)" opacity="0.80060434" stroke="rgb(52, 87, 172)" stroke-opacity="1.0" stroke-linecap="round" stroke-linejoin="round" d="M 312.3305358886719 350.2970275878906 C 325.1241760253906 389.0503234863281 312.5431213378906 355.1290283203125 320.9225158691406 392.5561218261719 C 295.2542724609375 396.07244873046875 288.3993835449219 420.1037902832031 307.7456359863281 313.8324279785156 C 306.7626953125 331.0553894042969 307.101318359375 334.0375671386719 310.8179931640625 286.4300231933594 C 348.25396728515625 345.340576171875 331.98077392578125 378.3895568847656 312.3305358886719 350.2970275878906"/>
    <path stroke-width="0" fill="rgb(22, -25, 72)" opacity="0.9101627" stroke="rgb(7, 181, 2)" stroke-opacity="1.0" stroke-linecap="round" stroke-linejoin="round" d="M 310.01641845703125 143.95880126953125 C 277.6203308105469 149.6619415283203 250.79580688476562 148.03045654296875 304.66265869140625 146.24920654296875 C 272.5811462402344 154.1328125 229.84536743164062 183.98870849609375 237.0789337158203 143.9665069580078 C 269.3617858886719 141.27842712402344 310.0791320800781 161.89744567871094 309.79266357421875 130.8660888671875 C 265.8186340332031 150.0153045654297 267.237060546875 154.8936309814453 310.01641845703125 143.95880126953125"/>
    <path stroke-width="0" fill="rgb(74, 82, 135)" opacity="0.735842" stroke="rgb(22, 103, 6)" stroke-opacity="1.0" stroke-linecap="round" stroke-linejoin="round" d="M 286.17340087890625 485.3194580078125 C 272.074951171875 489.319091796875 346.0246276855469 509.7155456542969 214.66336059570312 534.81982421875 C 85.37945556640625 481.5610046386719 257.33074951171875 461.6312561035156 245.94883728027344 463.95660400390625 C 256.4764099121094 472.74896240234375 292.3466491699219 509.4355163574219 230.98291015625 496.94635009765625 C 217.9009552001953 473.5270690917969 230.45816040039062 446.9395446777344 286.17340087890625 485.3194580078125"/>
    <path stroke-width="0" fill="rgb(48, 144, 79)" opacity="0.7895347" stroke="rgb(53, 29, 147)" stroke-opacity="1.0" stroke-linecap="round" stroke-linejoin="round" d="M 326.74951171875 158.10581970214844 C 301.4978332519531 85.39238739013672 324.5929260253906 49.88424301147461 388.3832702636719 107.07062530517578 C 366.3995056152344 208.50213623046875 333.5506286621094 139.15931701660156 336.3414611816406 148.4644012451172 C 344.76519775390625 165.10231018066406 341.7593994140625 158.8540496826172 346.9150695800781 156.22866821289062 C 330.06378173828125 156.40313720703125 356.4476013183594 157.5174102783203 326.74951171875 158.10581970214844"/>
    <path stroke-width="0" fill="rgb(88, 107, 125)" opacity="0.28481877" stroke="rgb(0, 165, 153)" stroke-opacity="1.0" stroke-linecap="round" stroke-linejoin="round" d="M 460.7615661621094 520.4940795898438 C 374.38189697265625 509.4951477050781 288.87744140625 484.17535400390625 357.1929626464844 507.320556640625 C 360.9802551269531 488.39990234375 252.224853515625 512.0411987304688 243.2422637939453 472.5087890625 C 299.96343994140625 427.8056335449219 336.6492004394531 462.23809814453125 329.1657409667969 475.9426574707031 C 360.0327453613281 430.37890625 417.89495849609375 417.2913513183594 460.7615661621094 520.4940795898438"/>
    <path stroke-width="0" fill="rgb(155, 211, 84)" opacity="0.48518875" stroke="rgb(0, 0, 0)" stroke-opacity="0.0" stroke-linecap="round" stroke-linejoin="round" d="M 256.25726318359375 210.7615966796875 C 256.9716491699219 225.6834716796875 256.33251953125 223.63262939453125 256.2106628417969 228.1736297607422 C 259.5615539550781 228.89376831054688 262.42938232421875 217.90713500976562 259.4828796386719 211.95188903808594 C 258.9261169433594 214.35171508789062 258.1492919921875 207.26678466796875 259.0059509277344 206.5627899169922 C 253.39207458496094 206.561279296875 257.78546142578125 203.24398803710938 256.25726318359375 210.7615966796875"/>
    <path stroke-width="0" fill="rgb(103, 135, -1)" opacity="0.48966548" stroke="rgb(0, 0, 0)" stroke-opacity="0.0" stroke-linecap="round" stroke-linejoin="round" d="M 4.084086894989014 -4.284604072570801 C 4.089352607727051 1.0436737537384033 1.7463524341583252 3.864753007888794 -2.685188055038452 5.454822063446045 C -2.777345895767212 8.382305145263672 -5.404449462890625 4.865655422210693 -6.416260242462158 0.6922208666801453 C -5.3419904708862305 -3.3155815601348877 -2.413787364959717 -6.2437849044799805 1.5861624479293823 -7.315568923950195 C 5.582115650177002 -6.242551803588867 8.424795150756836 -3.282660484313965 4.084086894989014 -4.284604072570801"/>
    <path stroke-width="0" fill="rgb(75, 184, 143)" opacity="0.22829905" stroke="rgb(0, 0, 0)" stroke-opacity="0.0" stroke-linecap="round" stroke-linejoin="round" d="M 227.6429901123047 240.82601928710938 C 217.1272430419922 239.4544219970703 213.39137268066406 240.7201385498047 214.2027587890625 244.25802612304688 C 213.6800079345703 249.38478088378906 212.8717803955078 246.59011840820312 211.7780303955078 240.3420867919922 C 210.74658203125 242.318115234375 211.15670776367188 236.24386596679688 217.85475158691406 238.4818572998047 C 218.16236877441406 240.92965698242188 223.11892700195312 241.0031280517578 227.6429901123047 240.82601928710938"/>
    <path stroke-width="0" fill="rgb(57, 135, 108)" opacity="0.039093483" stroke="rgb(0, 0, 0)" stroke-opacity="0.0" stroke-linecap="round" stroke-linejoin="round" d="M 99.5562744140625 233.7402801513672 C 101.86695098876953 243.21592712402344 102.84143829345703 244.95132446289062 104.12183380126953 237.58206176757812 C 99.50379180908203 237.69570922851562 94.37430572509766 235.7672119140625 96.95159149169922 237.8753662109375 C 101.0766830444336 240.07574462890625 101.63471984863281 232.3936004638672 98.04242706298828 233.0670166015625 C 102.03511047363281 235.5481414794922 105.23381042480469 233.62442016601562 99.5562744140625 233.7402801513672"/>
    <path stroke-width="0" fill="rgb(79, -34, 97)" opacity="-0.1554805" stroke="rgb(0, 0, 0)" stroke-opacity="0.0" stroke-linecap="round" stroke-linejoin="round" d="M 199.25592041015625 460.37139892578125 C 202.02810668945312 456.2209777832031 199.26565551757812 460.49603271484375 192.52000427246094 462.1651306152344 C 190.90052795410156 462.63726806640625 191.85365295410156 462.7533264160156 194.8221893310547 458.4422302246094 C 191.87525939941406 442.5662536621094 191.56858825683594 443.3338928222656 198.22975158691406 445.068115234375 C 197.11048889160156 450.7858581542969 198.38685607910156 456.4424133300781 199.25592041015625 460.37139892578125"/>
    <path stroke-width="0" fill="rgb(88, 131, 159)" opacity="0.0649237" stroke="rgb(0, 0, 0)" stroke-opacity="0.0" stroke-linecap="round" stroke-linejoin="round" d="M 131.54457092285156 45.910369873046875 C 132.11219787597656 50.96663284301758 130.54486083984375 52.57126235961914 128.63278198242188 51.1158561706543 C 120.86115264892578 49.936065673828125 118.07282257080078 50.50926971435547 119.10237121582031 47.93177032470703 C 116.46369171142578 41.59579086303711 117.76448059082031 38.40501403808594 121.94930267333984 39.2881965637207 C 127.85051727294922 40.601497650146484 132.51844787597656 42.698787689208984 131.54457092285156 45.910369873046875"/>
    <path stroke-width="0" fill="rgb(12, 55, 110)" opacity="0.3830922" stroke="rgb(0, 0, 0)" stroke-opacity="0.0" stroke-linecap="round" stroke-linejoin="round" d="M 228.2837371826172 159.8370819091797 C 231.42214965820312 157.4191436767578 230.20053100585938 160.73004150390625 230.50607299804688 159.32974243164062 C 228.95098876953125 161.23147583007812 226.43629455566406 163.1972198486328 226.70419311523438 162.9864501953125 C 222.25827026367188 159.32887268066406 226.40658569335938 156.01866149902344 233.8604736328125 151.81468200683594 C 225.00994873046875 147.30691528320312 225.60641479492188 159.26268005371094 228.2837371826172 159.8370819091797"/>
    <path stroke-width="0" fill="rgb(55, 135, 111)" opacity="0.26878205" stroke="rgb(0, 0, 0)" stroke-opacity="0.0" stroke-linecap="round" stroke-linejoin="round" d="M 21.89124298095703 116.55184936523438 C 25.035505294799805 120.81615447998047 23.348630905151367 127.16866302490234 19.506418228149414 126.7584228515625 C 14.253610610961914 125.55551147460938 12.992772102355957 123.78434753417969 19.789453506469727 121.35485076904297 C 14.423304557800293 113.65792846679688 16.224937438964844 110.09613037109375 21.414081573486328 114.2183609008789 C 19.923053741455078 113.07721710205078 21.21497917175293 117.54487609863281 21.89124298095703 116.55184936523438"/>
    <path stroke-width="0" fill="rgb(140, 101, 70)" opacity="0.13480154" stroke="rgb(0, 0, 0)" stroke-opacity="0.0" stroke-linecap="round" stroke-linejoin="round" d="M 119.03211975097656 55.529022216796875 C 115.06094360351562 59.9065055847168 110.29804229736328 65.82978820800781 112.50345611572266 62.56586837768555 C 111.39155578613281 59.49876022338867 108.49545288085938 64.75330352783203 116.36585235595703 59.53140640258789 C 111.4228744506836 56.13091278076172 114.2403564453125 59.3178596496582 117.81739807128906 58.14761734008789 C 115.20059967041016 54.250465393066406 118.55634307861328 57.29987335205078 119.03211975097656 55.529022216796875"/>
    <path stroke-width="0" fill="rgb(122, 92, 189)" opacity="0.30788475" stroke="rgb(0, 0, 0)" stroke-opacity="0.0" stroke-linecap="round" stroke-linejoin="round" d="M 224.30482482910156 122.7218246459961 C 226.795166015625 129.60911560058594 225.79409790039062 134.3583526611328 221.57424926757812 128.5589141845703 C 226.49143981933594 124.45003509521484 222.67227172851562 124.9409408569336 226.1710205078125 124.88463592529297 C 223.52682495117188 125.81832122802734 225.07180786132812 122.58187103271484 224.68682861328125 118.23614501953125 C 226.01939392089844 120.60368347167969 226.05931091308594 125.42974853515625 224.30482482910156 122.7218246459961"/>
    <path stroke-width="0" fill="rgb(86, 121, 103)" opacity="0.009773142" stroke="rgb(0, 0, 0)" stroke-opacity="0.0" stroke-linecap="round" stroke-linejoin="round" d="M 75.74667358398438 121.63035583496094 C 75.59881591796875 125.49994659423828 71.6434097290039 128.7339324951172 72.22865295410156 125.47395324707031 C 68.94049072265625 125.60252380371094 63.88627243041992 123.74340057373047 64.36157989501953 123.90250396728516 C 62.17324447631836 123.4797134399414 68.4859619140625 119.24114990234375 69.13020324707031 118.45703887939453 C 71.34336853027344 118.06753540039062 77.66152954101562 118.60740661621094 75.74667358398438 121.63035583496094"/>
    <path stroke-width="0" fill="rgb(97, 166, 125)" opacity="0.097791925" stroke="rgb(0, 0, 0)" stroke-opacity="0.0" stroke-linecap="round" stroke-linejoin="round" d="M 379.7671813964844 314.3785095214844 C 379.879638671875 324.828369140625 376.57275390625 331.4944763183594 374.7608947753906 324.6437683105469 C 376.0765686035156 317.0506286621094 368.4671936035156 321.2718505859375 368.4947814941406 321.007568359375 C 369.0285949707031 300.27215576171875 367.1036682128906 298.3919982910156 375.3658752441406 311.7585144042969 C 380.3457336425781 311.4123840332031 380.48126220703125 309.00482177734375 379.7671813964844 314.3785095214844"/>
    <path stroke-width="0" fill="rgb(103, 112, 110)" opacity="0.6441874" stroke="rgb(0, 0, 0)" stroke-opacity="0.0" stroke-linecap="round" stroke-linejoin="round" d="M -21.286481857299805 -231.1046600341797 C -22.358278274536133 -227.1046600341797 -25.286481857299805 -224.1764678955078 -29.286481857299805 -223.1046600341797 C -33.28647994995117 -224.1764678955078 -36.214683532714844 -227.1046600341797 -37.28647994995117 -231.1046600341797 C -36.214683532714844 -235.1046600341797 -33.28647994995117 -238.03286743164062 -29.286481857299805 -239.1046600341797 C -25.286481857299805 -238.03286743164062 -22.358278274536133 -235.1046600341797 -21.286481857299805 -231.1046600341797"/>
    <path stroke-width="0" fill="rgb(66, 123, 131)" opacity="0.22269252" stroke="rgb(0, 0, 0)" stroke-opacity="0.0" stroke-linecap="round" stroke-linejoin="round" d="M 53.051177978515625 194.8074188232422 C 53.553897857666016 197.7340545654297 51.129981994628906 199.45086669921875 45.093597412109375 197.68055725097656 C 41.32838821411133 199.1785888671875 37.96855163574219 199.02386474609375 36.652347564697266 194.56187438964844 C 34.0213508605957 185.1590118408203 39.13335037231445 186.26976013183594 45.86085891723633 186.08718872070312 C 50.44355010986328 190.01429748535156 51.855377197265625 190.90953063964844 53.051177978515625 194.8074188232422"/>
    <path stroke-width="0" fill="rgb(94, 122, 88)" opacity="0.20900692" stroke="rgb(0, 0, 0)" stroke-opacity="0.0" stroke-linecap="round" stroke-linejoin="round" d="M 230.75572204589844 107.01776885986328 C 229.16770935058594 107.77374267578125 229.40733337402344 112.87527465820312 232.0205078125 113.55123901367188 C 230.77850341796875 111.83323669433594 231.77650451660156 107.9823226928711 231.45228576660156 106.75751495361328 C 227.28036499023438 106.53990173339844 228.57359313964844 106.72573852539062 230.59280395507812 107.61784362792969 C 230.50515747070312 104.02113342285156 229.09429931640625 108.45779418945312 230.75572204589844 107.01776885986328"/>
  </g>
</svg>
