<?xml version="1.0" ?>
<svg xmlns="http://www.w3.org/2000/svg" version="1.1" width="512" height="512">
  <defs/>
  <g>
    <path stroke-width="0" fill="rgb(91, 93, 90)" opacity="0.98460597" stroke="rgb(139, 182, 153)" stroke-opacity="1.0" stroke-linecap="round" stroke-linejoin="round" d="M 540.4456176757812 307.453369140625 C 578.2432250976562 717.5508422851562 523.9196166992188 607.5655517578125 409.77728271484375 560.2735595703125 C -4.815953731536865 574.9983520507812 -43.95188903808594 610.2658081054688 -51.99632263183594 372.31396484375 C -35.529502868652344 305.1559143066406 -20.042537689208984 302.2029724121094 -56.04722595214844 327.73736572265625 C 171.02732849121094 412.8427734375 274.6556396484375 445.8990783691406 540.4456176757812 307.453369140625"/>
    <path stroke-width="0" fill="rgb(158, 144, 114)" opacity="1.0323656" stroke="rgb(108, 164, 111)" stroke-opacity="1.0" stroke-linecap="round" stroke-linejoin="round" d="M 531.5322265625 -27.254669189453125 C 497.6595764160156 128.6095733642578 518.7265014648438 204.41995239257812 363.1491394042969 226.54595947265625 C 186.7197265625 232.05377197265625 165.70120239257812 297.6276550292969 169.14817810058594 -7.135940074920654 C 210.9188232421875 -99.50502014160156 286.98626708984375 -51.62980651855469 403.1378173828125 -41.173099517822266 C 511.8313903808594 -42.366355895996094 529.109375 -45.23481750488281 531.5322265625 -27.254669189453125"/>
    <path stroke-width="0" fill="rgb(38, 44, 44)" opacity="0.7320097" stroke="rgb(245, 97, 201)" stroke-opacity="1.0" stroke-linecap="round" stroke-linejoin="round" d="M 186.958251953125 178.35919189453125 C 189.91561889648438 352.8583984375 169.91152954101562 379.0612487792969 237.79957580566406 419.7012939453125 C -50.4051399230957 421.7378845214844 -52.75533676147461 407.5677490234375 -49.16545486450195 372.3436584472656 C -52.37535095214844 79.1630859375 -55.43769836425781 54.96458435058594 -14.11805248260498 -48.63297653198242 C 359.46490478515625 -46.72793197631836 345.6392517089844 -6.161378860473633 186.958251953125 178.35919189453125"/>
    <path stroke-width="0" fill="rgb(55, 27, 13)" opacity="1.0067452" stroke="rgb(144, 236, 18)" stroke-opacity="1.0" stroke-linecap="round" stroke-linejoin="round" d="M 567.6326293945312 413.5644836425781 C 629.1641845703125 460.20953369140625 659.21337890625 465.9267578125 292.6288757324219 419.5991516113281 C 327.8922119140625 148.68946838378906 288.4146728515625 390.6082458496094 308.8240661621094 173.9149627685547 C 259.3066101074219 -81.43263244628906 338.8457946777344 -53.274391174316406 483.1856994628906 -40.14479446411133 C 578.5626220703125 -28.153284072875977 566.8272094726562 -10.542065620422363 567.6326293945312 413.5644836425781"/>
    <path stroke-width="0" fill="rgb(46, 27, 9)" opacity="0.97201705" stroke="rgb(5, 212, 198)" stroke-opacity="1.0" stroke-linecap="round" stroke-linejoin="round" d="M 191.1913299560547 280.3247375488281 C 172.3265380859375 275.2178955078125 249.42552185058594 471.4957580566406 183.4368896484375 440.2147216796875 C 215.34243774414062 289.5837707519531 -37.563568115234375 198.7724151611328 84.15058898925781 129.0753173828125 C 54.80670928955078 185.76080322265625 56.85399627685547 178.39462280273438 31.16577911376953 232.89907836914062 C 102.69184112548828 237.276123046875 215.4412078857422 169.94668579101562 191.1913299560547 280.3247375488281"/>
    <path stroke-width="0" fill="rgb(28, 16, 2)" opacity="0.98504984" stroke="rgb(249, 203, 117)" stroke-opacity="1.0" stroke-linecap="round" stroke-linejoin="round" d="M 352.5468444824219 116.97582244873047 C 346.8166809082031 190.9230499267578 297.8033752441406 157.2346649169922 249.70681762695312 171.7887420654297 C 100.2134780883789 83.21211242675781 -6.203310012817383 196.616455078125 55.117977142333984 76.5093765258789 C 82.7472152709961 -26.13473129272461 92.35662841796875 -30.492050170898438 196.02581787109375 -27.823650360107422 C 219.40858459472656 -42.56359100341797 282.7018127441406 -81.29547119140625 352.5468444824219 116.97582244873047"/>
    <path stroke-width="0" fill="rgb(92, 97, 96)" opacity="1.006476" stroke="rgb(30, 163, 36)" stroke-opacity="1.0" stroke-linecap="round" stroke-linejoin="round" d="M 578.4916381835938 404.7875671386719 C 694.0384521484375 439.3053894042969 846.5838012695312 529.8840942382812 255.19334411621094 515.6912231445312 C 444.2666320800781 193.17471313476562 286.12310791015625 301.12969970703125 318.802001953125 112.70966339111328 C 382.6349792480469 -29.087495803833008 409.60943603515625 -14.712369918823242 485.2708435058594 -32.28255844116211 C 565.7853393554688 -14.515660285949707 562.3096313476562 3.841090679168701 578.4916381835938 404.7875671386719"/>
    <path stroke-width="0" fill="rgb(92, 96, 92)" opacity="0.96318537" stroke="rgb(133, 105, 67)" stroke-opacity="1.0" stroke-linecap="round" stroke-linejoin="round" d="M 123.95523834228516 64.30760955810547 C 121.37223052978516 114.06250762939453 114.05818939208984 129.4079132080078 76.10822296142578 140.19168090820312 C -16.41183853149414 136.5094451904297 -27.226299285888672 132.1077423095703 -34.637474060058594 46.721099853515625 C -28.461292266845703 -17.69627571105957 -20.302188873291016 -27.176698684692383 45.96080017089844 -28.46472930908203 C 108.66712188720703 -1.4086799621582031 113.2810287475586 8.906172752380371 123.95523834228516 64.30760955810547"/>
    <path stroke-width="0" fill="rgb(93, 96, 95)" opacity="0.88624597" stroke="rgb(116, 144, 4)" stroke-opacity="1.0" stroke-linecap="round" stroke-linejoin="round" d="M 111.41699981689453 55.975860595703125 C 66.32942199707031 178.8575897216797 92.4009017944336 210.25491333007812 -9.794218063354492 337.2696838378906 C -40.7213249206543 243.1691131591797 -35.085670471191406 217.4142608642578 -35.28937911987305 95.87039184570312 C -23.513614654541016 68.34870910644531 -14.523098945617676 61.081260681152344 80.52206420898438 59.99080276489258 C 120.2291488647461 65.65811920166016 131.292236328125 71.33975982666016 111.41699981689453 55.975860595703125"/>
    <path stroke-width="0" fill="rgb(90, 96, 95)" opacity="1.0078256" stroke="rgb(156, 157, 240)" stroke-opacity="1.0" stroke-linecap="round" stroke-linejoin="round" d="M 233.09976196289062 40.88908386230469 C 208.87281799316406 119.92353820800781 188.0093231201172 114.92091369628906 117.84297943115234 108.77799224853516 C 49.9810905456543 107.296142578125 46.16875076293945 88.45274353027344 33.6126823425293 1.4313489198684692 C 31.94295310974121 -31.349979400634766 42.58243942260742 -35.89471435546875 94.07343292236328 -37.2251091003418 C 221.0026397705078 -91.22877502441406 218.3400421142578 -78.42522430419922 233.09976196289062 40.88908386230469"/>
    <path stroke-width="0" fill="rgb(91, 98, 97)" opacity="1.0081117" stroke="rgb(91, 111, 177)" stroke-opacity="1.0" stroke-linecap="round" stroke-linejoin="round" d="M 196.38308715820312 128.70242309570312 C 160.3737030029297 360.17218017578125 144.6949005126953 65.6451644897461 165.2418212890625 538.3485717773438 C -127.01535034179688 550.3731079101562 -88.73860168457031 495.13446044921875 -25.454343795776367 437.3390197753906 C 52.028411865234375 112.65135955810547 52.200042724609375 76.12916564941406 332.07781982421875 66.08435821533203 C 271.25067138671875 25.456941604614258 266.43194580078125 191.79092407226562 196.38308715820312 128.70242309570312"/>
    <path stroke-width="0" fill="rgb(93, 98, 96)" opacity="0.88399684" stroke="rgb(170, 171, 53)" stroke-opacity="1.0" stroke-linecap="round" stroke-linejoin="round" d="M 523.3887329101562 -0.5953184366226196 C 495.211181640625 119.43275451660156 598.4080200195312 165.1114959716797 264.7468566894531 237.0625 C 396.3827209472656 178.8216094970703 251.72454833984375 162.6566925048828 200.3648681640625 -19.83128547668457 C 304.89898681640625 -86.0112533569336 335.77398681640625 -53.68967056274414 387.0159606933594 -45.11587142944336 C 518.9805908203125 -42.30170822143555 528.1303100585938 -37.58413314819336 523.3887329101562 -0.5953184366226196"/>
    <path stroke-width="0" fill="rgb(109, 111, 113)" opacity="0.9596233" stroke="rgb(80, 92, 145)" stroke-opacity="1.0" stroke-linecap="round" stroke-linejoin="round" d="M 416.216796875 -1.0066198110580444 C 428.5983581542969 174.9637451171875 278.4754638671875 55.13018798828125 284.8453369140625 58.955894470214844 C 107.42599487304688 55.87746047973633 174.7552032470703 96.74153900146484 149.00228881835938 -25.879535675048828 C 154.8877716064453 -31.89655303955078 169.101806640625 -29.487001419067383 216.2349853515625 -28.543506622314453 C 271.21038818359375 -37.61959457397461 283.8244323730469 -37.228580474853516 416.216796875 -1.0066198110580444"/>
    <path stroke-width="0" fill="rgb(119, 114, 94)" opacity="0.5601302" stroke="rgb(252, 26, 53)" stroke-opacity="1.0" stroke-linecap="round" stroke-linejoin="round" d="M 232.63784790039062 76.20333099365234 C 229.70140075683594 88.0399398803711 218.15216064453125 92.10853576660156 200.823486328125 94.06517791748047 C 148.93185424804688 95.69461822509766 153.7957763671875 87.68607330322266 140.03030395507812 24.771595001220703 C 138.7257080078125 12.568530082702637 141.91819763183594 0.5579068660736084 152.06959533691406 -8.658894538879395 C 205.77394104003906 46.96492385864258 235.9800262451172 0.21453987061977386 232.63784790039062 76.20333099365234"/>
    <path stroke-width="0" fill="rgb(92, 95, 93)" opacity="0.9979788" stroke="rgb(166, 64, 118)" stroke-opacity="1.0" stroke-linecap="round" stroke-linejoin="round" d="M 242.62051391601562 59.886749267578125 C 187.70895385742188 55.82592010498047 221.9890899658203 78.71668243408203 222.9291534423828 99.29586791992188 C 200.23135375976562 12.581452369689941 150.4232940673828 145.3271484375 133.37875366210938 1.290814995765686 C 136.1914825439453 -13.563121795654297 141.19369506835938 -23.384246826171875 149.46163940429688 -27.887250900268555 C 322.3305969238281 -21.245973587036133 271.2039794921875 1.7704534530639648 242.62051391601562 59.886749267578125"/>
    <path stroke-width="0" fill="rgb(224, 217, 217)" opacity="0.787476" stroke="rgb(40, 28, 167)" stroke-opacity="1.0" stroke-linecap="round" stroke-linejoin="round" d="M 293.74969482421875 212.7576141357422 C 242.38632202148438 211.5664520263672 269.68231201171875 245.64016723632812 302.00579833984375 218.5478057861328 C 298.3390808105469 213.06126403808594 258.9315185546875 217.88916015625 274.587646484375 228.28778076171875 C 215.81520080566406 230.61740112304688 296.8825378417969 191.49127197265625 236.11680603027344 189.92330932617188 C 285.00177001953125 122.77655029296875 330.4750061035156 198.0341796875 293.74969482421875 212.7576141357422"/>
    <path stroke-width="0" fill="rgb(251, 255, 254)" opacity="0.9881453" stroke="rgb(50, 94, 209)" stroke-opacity="1.0" stroke-linecap="round" stroke-linejoin="round" d="M 288.1994323730469 200.6972198486328 C 300.55804443359375 153.28428649902344 334.7761535644531 197.4931182861328 241.9469757080078 241.6627197265625 C 282.5347595214844 104.26260375976562 202.62481689453125 308.3670959472656 187.74261474609375 178.22129821777344 C 284.2806091308594 179.8426971435547 276.5213623046875 130.3058624267578 307.0031433105469 170.05331420898438 C 286.24932861328125 180.42694091796875 277.4510192871094 200.08740234375 288.1994323730469 200.6972198486328"/>
    <path stroke-width="0" fill="rgb(-6, 2, 0)" opacity="1.0035926" stroke="rgb(213, 24, 248)" stroke-opacity="1.0" stroke-linecap="round" stroke-linejoin="round" d="M 296.2828674316406 189.50347900390625 C 307.8084411621094 187.22659301757812 316.30596923828125 198.36602783203125 303.82666015625 188.92410278320312 C 313.5567932128906 182.45065307617188 269.99676513671875 158.35150146484375 262.1650085449219 189.27931213378906 C 278.7845764160156 210.44915771484375 296.02197265625 188.1542510986328 308.4156188964844 186.03555297851562 C 273.8214416503906 180.2360382080078 298.4154357910156 201.55897521972656 296.2828674316406 189.50347900390625"/>
    <path stroke-width="0" fill="rgb(39, 26, 0)" opacity="0.8196959" stroke="rgb(249, 154, 188)" stroke-opacity="1.0" stroke-linecap="round" stroke-linejoin="round" d="M 358.6888427734375 419.4552001953125 C 330.53387451171875 424.3631591796875 404.8072814941406 407.1282043457031 193.31814575195312 441.5285949707031 C 170.0207061767578 383.1689758300781 84.04441833496094 397.2646179199219 322.2066955566406 398.0640563964844 C 367.1726989746094 424.9169616699219 351.7869567871094 420.8484802246094 356.81951904296875 395.6531982421875 C 304.2062683105469 401.6117858886719 291.2833251953125 378.5837707519531 358.6888427734375 419.4552001953125"/>
    <path stroke-width="0" fill="rgb(257, 252, 255)" opacity="0.99767554" stroke="rgb(72, 30, 75)" stroke-opacity="1.0" stroke-linecap="round" stroke-linejoin="round" d="M 316.1551818847656 419.8948669433594 C 326.0318908691406 461.81640625 285.51177978515625 423.8052978515625 254.8065185546875 427.48651123046875 C 249.5372772216797 428.57025146484375 254.9451446533203 416.0494079589844 252.4191436767578 401.3363952636719 C 256.385498046875 393.1679992675781 250.06741333007812 423.8591613769531 252.74188232421875 423.9908142089844 C 249.83447265625 418.4934997558594 251.20909118652344 420.2271423339844 316.1551818847656 419.8948669433594"/>
    <path stroke-width="0" fill="rgb(246, 144, -5)" opacity="0.9996296" stroke="rgb(81, 105, 16)" stroke-opacity="1.0" stroke-linecap="round" stroke-linejoin="round" d="M 271.6427917480469 386.5978088378906 C 302.48687744140625 387.75030517578125 266.2201232910156 430.3837585449219 267.728759765625 417.26605224609375 C 201.5028533935547 415.44488525390625 235.04208374023438 424.068359375 218.73696899414062 389.8212585449219 C 219.04867553710938 393.0277404785156 238.5295867919922 371.97216796875 233.83718872070312 412.9805908203125 C 217.6641082763672 384.3650207519531 272.0107727050781 414.5145263671875 271.6427917480469 386.5978088378906"/>
    <path stroke-width="0" fill="rgb(121, 81, 22)" opacity="1.0106744" stroke="rgb(144, 67, 133)" stroke-opacity="1.0" stroke-linecap="round" stroke-linejoin="round" d="M 288.17864990234375 192.42173767089844 C 274.9631042480469 144.99398803710938 243.34207153320312 217.3705596923828 299.7633056640625 185.79153442382812 C 284.50518798828125 203.3862762451172 270.38116455078125 210.1542510986328 260.1748046875 190.6372833251953 C 255.52098083496094 168.4507598876953 289.40936279296875 158.54562377929688 289.6786193847656 180.96263122558594 C 313.4936828613281 181.0330810546875 298.1079406738281 183.44898986816406 288.17864990234375 192.42173767089844"/>
    <path stroke-width="0" fill="rgb(259, 257, 254)" opacity="0.9882127" stroke="rgb(33, 182, 73)" stroke-opacity="1.0" stroke-linecap="round" stroke-linejoin="round" d="M 311.588134765625 184.01748657226562 C 316.0209655761719 185.52804565429688 308.4649658203125 236.1586456298828 262.5867614746094 228.82656860351562 C 273.9466552734375 207.8179931640625 296.3683776855469 217.90391540527344 297.01910400390625 220.94143676757812 C 277.698974609375 221.18775939941406 305.6124267578125 196.5832061767578 284.1806640625 150.9946746826172 C 308.4930419921875 153.75196838378906 316.3662109375 192.3889923095703 311.588134765625 184.01748657226562"/>
    <path stroke-width="0" fill="rgb(248, 255, 257)" opacity="0.97562236" stroke="rgb(149, 5, 211)" stroke-opacity="1.0" stroke-linecap="round" stroke-linejoin="round" d="M 506.7549133300781 494.07427978515625 C 469.9867248535156 472.77874755859375 413.8979797363281 439.2830810546875 541.5992431640625 514.4530029296875 C 426.2259216308594 421.8128967285156 418.54779052734375 407.61480712890625 398.45001220703125 386.9745788574219 C 373.2464904785156 353.8838806152344 313.372314453125 274.97857666015625 358.78814697265625 345.3804931640625 C 422.8000793457031 424.9165954589844 432.5751037597656 431.31719970703125 506.7549133300781 494.07427978515625"/>
    <path stroke-width="0" fill="rgb(30, 13, -3)" opacity="0.91619337" stroke="rgb(172, 68, 187)" stroke-opacity="1.0" stroke-linecap="round" stroke-linejoin="round" d="M 280.83563232421875 390.5452575683594 C 272.87823486328125 459.7304382324219 338.6812438964844 374.0826110839844 314.3385009765625 442.9345397949219 C 302.510986328125 445.70068359375 285.8774719238281 425.7655944824219 297.671875 440.9169921875 C 298.3636779785156 449.10833740234375 290.03997802734375 341.08026123046875 311.084228515625 396.4923400878906 C 428.1358642578125 391.5149230957031 283.37030029296875 418.56365966796875 280.83563232421875 390.5452575683594"/>
    <path stroke-width="0" fill="rgb(89, 99, 98)" opacity="1.002142" stroke="rgb(63, 146, 150)" stroke-opacity="1.0" stroke-linecap="round" stroke-linejoin="round" d="M 494.0646057128906 -3.80637264251709 C 184.3331756591797 154.03933715820312 387.0701599121094 156.99107360839844 224.37376403808594 134.2971649169922 C 152.3568878173828 47.816650390625 216.6129150390625 382.7371520996094 -20.28773307800293 487.96478271484375 C -43.613792419433594 28.469144821166992 160.37489318847656 74.73001098632812 122.3631591796875 56.45841598510742 C 275.9709167480469 61.4040412902832 296.30242919921875 90.35533142089844 494.0646057128906 -3.80637264251709"/>
    <path stroke-width="0" fill="rgb(59, 39, 11)" opacity="0.9052944" stroke="rgb(56, 242, 114)" stroke-opacity="1.0" stroke-linecap="round" stroke-linejoin="round" d="M 223.51846313476562 174.59295654296875 C 243.6652069091797 159.89291381835938 245.70851135253906 201.41419982910156 229.6312255859375 200.91273498535156 C 207.8358612060547 213.99803161621094 191.326904296875 162.54464721679688 232.62905883789062 166.7441864013672 C 237.7670135498047 178.7764434814453 217.31881713867188 174.70530700683594 230.86602783203125 176.04055786132812 C 185.1593780517578 186.8235626220703 244.12130737304688 162.58843994140625 223.51846313476562 174.59295654296875"/>
    <path stroke-width="0" fill="rgb(252, 256, 248)" opacity="0.9686818" stroke="rgb(224, 148, 224)" stroke-opacity="1.0" stroke-linecap="round" stroke-linejoin="round" d="M 86.92632293701172 425.1151123046875 C 78.96956634521484 426.62176513671875 81.09947204589844 431.897705078125 69.23078155517578 439.4606628417969 C 82.20943450927734 435.86273193359375 82.6595458984375 415.331298828125 47.725982666015625 463.2944641113281 C 53.5372200012207 452.5439758300781 136.4381561279297 392.24273681640625 173.79208374023438 303.0696105957031 C 81.65769958496094 450.626953125 47.884765625 437.6046142578125 86.92632293701172 425.1151123046875"/>
    <path stroke-width="0" fill="rgb(255, 180, -2)" opacity="0.9801588" stroke="rgb(184, 127, 243)" stroke-opacity="1.0" stroke-linecap="round" stroke-linejoin="round" d="M 262.59521484375 206.12893676757812 C 270.0983581542969 207.3946990966797 318.9090576171875 181.68441772460938 266.8551330566406 173.6889190673828 C 299.520751953125 164.4088134765625 287.9244689941406 185.5617218017578 267.091064453125 218.6455535888672 C 296.5675354003906 215.81520080566406 294.0051574707031 212.27426147460938 276.4982604980469 213.82327270507812 C 259.0322265625 211.09046936035156 277.6571044921875 241.37071228027344 262.59521484375 206.12893676757812"/>
    <path stroke-width="0" fill="rgb(256, 258, 257)" opacity="1.006789" stroke="rgb(108, 154, 4)" stroke-opacity="1.0" stroke-linecap="round" stroke-linejoin="round" d="M 263.27978515625 173.20913696289062 C 226.80270385742188 187.37063598632812 229.53518676757812 143.73745727539062 199.52911376953125 187.3649139404297 C 193.73226928710938 251.4067840576172 172.03662109375 169.7521514892578 207.6297149658203 154.2847900390625 C 209.4938201904297 141.3108673095703 216.9310302734375 148.8646697998047 207.79953002929688 139.6106414794922 C 196.56698608398438 139.63604736328125 204.9429168701172 155.76820373535156 263.27978515625 173.20913696289062"/>
    <path stroke-width="0" fill="rgb(19, 9, 3)" opacity="0.8942154" stroke="rgb(168, 73, 157)" stroke-opacity="1.0" stroke-linecap="round" stroke-linejoin="round" d="M 185.11471557617188 221.4024200439453 C 192.76560974121094 225.2823486328125 191.7184600830078 211.1041717529297 189.99716186523438 217.74893188476562 C 231.4810791015625 259.8651123046875 267.30718994140625 219.79330444335938 253.63934326171875 227.31031799316406 C 199.56800842285156 237.6382293701172 184.5658416748047 206.1990966796875 185.48568725585938 169.27069091796875 C 177.30580139160156 222.0639190673828 203.6126708984375 227.70472717285156 185.11471557617188 221.4024200439453"/>
    <path stroke-width="0" fill="rgb(32, 9, -3)" opacity="0.8990257" stroke="rgb(34, 76, 145)" stroke-opacity="1.0" stroke-linecap="round" stroke-linejoin="round" d="M 229.7413330078125 147.6588897705078 C 212.82867431640625 135.4648895263672 200.40853881835938 169.09381103515625 183.97401428222656 171.24302673339844 C 177.37551879882812 238.1275177001953 191.61581420898438 149.0589599609375 201.5718536376953 152.6536102294922 C 180.9175262451172 152.90467834472656 190.6943359375 118.49356842041016 187.37437438964844 117.87815856933594 C 193.40139770507812 134.90750122070312 212.89979553222656 136.51217651367188 229.7413330078125 147.6588897705078"/>
    <path stroke-width="0" fill="rgb(251, 173, 2)" opacity="0.9958204" stroke="rgb(146, 166, 166)" stroke-opacity="1.0" stroke-linecap="round" stroke-linejoin="round" d="M 227.4191131591797 197.59271240234375 C 248.36830139160156 145.42982482910156 184.22279357910156 181.3600311279297 224.3103485107422 199.9032745361328 C 261.66339111328125 188.3579864501953 220.83775329589844 155.2948760986328 232.94088745117188 180.30709838867188 C 214.21664428710938 173.35989379882812 217.54669189453125 181.41494750976562 225.9934844970703 181.4615478515625 C 218.36953735351562 175.31996154785156 206.32212829589844 180.59893798828125 227.4191131591797 197.59271240234375"/>
    <path stroke-width="0" fill="rgb(9, 4, 0)" opacity="0.906569" stroke="rgb(205, 179, 25)" stroke-opacity="1.0" stroke-linecap="round" stroke-linejoin="round" d="M 268.2070007324219 401.27069091796875 C 264.5682373046875 384.12213134765625 276.9727783203125 390.5931396484375 283.23779296875 396.7294616699219 C 280.0366516113281 389.79522705078125 266.3042297363281 377.68646240234375 271.8139343261719 408.16546630859375 C 269.2269592285156 428.5133361816406 273.3713073730469 415.72674560546875 300.292236328125 417.9959411621094 C 261.5205993652344 421.9419860839844 268.8034362792969 409.66510009765625 268.2070007324219 401.27069091796875"/>
    <path stroke-width="0" fill="rgb(248, 236, 230)" opacity="0.66926205" stroke="rgb(182, 254, 38)" stroke-opacity="1.0" stroke-linecap="round" stroke-linejoin="round" d="M 287.46038818359375 136.9620361328125 C 292.5264892578125 154.06668090820312 281.57061767578125 143.5130615234375 292.8644104003906 143.5085906982422 C 287.1058654785156 144.091796875 295.24005126953125 128.98779296875 287.241455078125 161.69668579101562 C 292.4725036621094 170.3336639404297 295.6614990234375 161.23855590820312 276.6161193847656 161.9073944091797 C 283.8826904296875 161.0294952392578 301.87371826171875 168.1118927001953 287.46038818359375 136.9620361328125"/>
    <path stroke-width="0" fill="rgb(45, 32, 29)" opacity="0.2657075" stroke="rgb(41, 156, 31)" stroke-opacity="1.0" stroke-linecap="round" stroke-linejoin="round" d="M 219.159912109375 186.69198608398438 C 209.55517578125 178.0236053466797 218.6710968017578 185.7924346923828 238.1458282470703 184.16258239746094 C 213.45091247558594 181.15809631347656 207.1848907470703 203.0116424560547 235.4281005859375 186.48086547851562 C 218.59825134277344 172.4947967529297 232.7295684814453 164.3275909423828 222.74594116210938 196.39707946777344 C 237.87261962890625 185.60952758789062 216.27413940429688 169.5314178466797 219.159912109375 186.69198608398438"/>
    <path stroke-width="0" fill="rgb(240, 244, 254)" opacity="0.5879865" stroke="rgb(177, 115, 184)" stroke-opacity="1.0" stroke-linecap="round" stroke-linejoin="round" d="M 254.41006469726562 175.0104217529297 C 245.74322509765625 191.7905731201172 248.01617431640625 162.0318145751953 212.22055053710938 161.615966796875 C 190.71266174316406 195.72845458984375 188.8468475341797 153.96986389160156 224.1954803466797 163.73081970214844 C 235.6300506591797 163.95806884765625 248.1454315185547 177.94361877441406 257.748291015625 174.73623657226562 C 206.90350341796875 129.78353881835938 235.56759643554688 147.71095275878906 254.41006469726562 175.0104217529297"/>
    <path stroke-width="0" fill="rgb(248, 209, 30)" opacity="0.6558406" stroke="rgb(248, 218, 2)" stroke-opacity="1.0" stroke-linecap="round" stroke-linejoin="round" d="M 244.66433715820312 159.67201232910156 C 218.97772216796875 240.04942321777344 193.74169921875 168.70655822753906 230.81739807128906 176.34974670410156 C 239.55430603027344 232.1431427001953 207.79029846191406 222.16409301757812 237.83636474609375 204.33274841308594 C 196.3106689453125 184.6963653564453 214.9919891357422 155.95323181152344 242.86265563964844 188.9622802734375 C 206.80276489257812 184.2369842529297 252.72616577148438 178.66253662109375 244.66433715820312 159.67201232910156"/>
    <path stroke-width="0" fill="rgb(0, 1, 1)" opacity="0.93620056" stroke="rgb(186, 43, 132)" stroke-opacity="1.0" stroke-linecap="round" stroke-linejoin="round" d="M 226.50961303710938 169.44590759277344 C 229.91958618164062 164.33377075195312 242.22177124023438 177.89004516601562 230.37750244140625 191.578857421875 C 219.54676818847656 198.8998260498047 203.2324676513672 185.1130828857422 228.32090759277344 169.79043579101562 C 207.78890991210938 182.9559326171875 254.91238403320312 166.96682739257812 232.07749938964844 181.48532104492188 C 225.361083984375 169.49122619628906 255.99319458007812 179.45542907714844 226.50961303710938 169.44590759277344"/>
    <path stroke-width="0" fill="rgb(36, 22, 6)" opacity="0.91871923" stroke="rgb(88, 236, 179)" stroke-opacity="1.0" stroke-linecap="round" stroke-linejoin="round" d="M 283.3351135253906 232.59359741210938 C 239.929443359375 206.33193969726562 211.9644775390625 227.05775451660156 227.2565460205078 215.02978515625 C 268.0707702636719 223.72853088378906 242.42039489746094 229.34971618652344 214.82431030273438 233.15512084960938 C 253.6013946533203 231.9372100830078 227.45632934570312 228.06065368652344 250.962890625 231.04531860351562 C 226.18310546875 244.25758361816406 195.33969116210938 221.30764770507812 283.3351135253906 232.59359741210938"/>
    <path stroke-width="0" fill="rgb(80, 78, 68)" opacity="0.7735296" stroke="rgb(41, 158, 147)" stroke-opacity="1.0" stroke-linecap="round" stroke-linejoin="round" d="M 186.3465118408203 224.0382537841797 C 196.0585174560547 187.1955108642578 172.57452392578125 216.10850524902344 158.93263244628906 278.63525390625 C 184.09451293945312 203.75474548339844 181.23977661132812 201.11708068847656 192.4527587890625 218.7465057373047 C 185.7647247314453 203.03665161132812 201.8717803955078 236.76622009277344 174.46768188476562 218.4964599609375 C 169.74832153320312 227.94207763671875 170.6831512451172 222.4615478515625 186.3465118408203 224.0382537841797"/>
    <path stroke-width="0" fill="rgb(48, 31, 9)" opacity="0.8576913" stroke="rgb(238, 156, 136)" stroke-opacity="1.0" stroke-linecap="round" stroke-linejoin="round" d="M 182.1482696533203 329.59564208984375 C 168.06484985351562 280.26007080078125 164.49050903320312 295.0422668457031 177.7515106201172 291.4317932128906 C 194.31741333007812 351.0152587890625 200.48947143554688 275.60174560546875 175.64817810058594 280.8487243652344 C 179.1868896484375 356.6253662109375 180.7311553955078 259.0004577636719 162.5091552734375 318.96002197265625 C 150.90682983398438 314.5628356933594 168.8203582763672 326.578125 182.1482696533203 329.59564208984375"/>
    <path stroke-width="0" fill="rgb(248, 252, 253)" opacity="0.74795216" stroke="rgb(186, 79, 101)" stroke-opacity="1.0" stroke-linecap="round" stroke-linejoin="round" d="M 218.8766326904297 159.44021606445312 C 262.64581298828125 178.86306762695312 259.62847900390625 203.08555603027344 243.47642517089844 171.32962036132812 C 208.3946990966797 149.39173889160156 191.68153381347656 190.4065704345703 199.0071258544922 202.6071319580078 C 200.04122924804688 146.50732421875 220.50608825683594 155.05453491210938 200.20394897460938 174.57467651367188 C 198.4763946533203 168.28370666503906 202.9477996826172 170.9663543701172 218.8766326904297 159.44021606445312"/>
    <path stroke-width="0" fill="rgb(253, 258, 245)" opacity="0.94470704" stroke="rgb(47, 240, 188)" stroke-opacity="1.0" stroke-linecap="round" stroke-linejoin="round" d="M 247.3047332763672 193.73104858398438 C 333.56854248046875 238.76046752929688 289.5208435058594 225.42498779296875 214.5788116455078 227.4645538330078 C 205.69378662109375 209.26268005371094 225.18833923339844 211.9457244873047 196.69488525390625 213.00001525878906 C 236.12496948242188 197.00672912597656 239.72879028320312 199.059326171875 244.876220703125 211.47007751464844 C 248.2865447998047 218.1825408935547 250.07862854003906 230.54124450683594 247.3047332763672 193.73104858398438"/>
    <path stroke-width="0" fill="rgb(62, 43, 17)" opacity="0.8359205" stroke="rgb(57, 64, 14)" stroke-opacity="1.0" stroke-linecap="round" stroke-linejoin="round" d="M 307.7441711425781 317.5117492675781 C 323.1188659667969 329.4075622558594 311.5915222167969 306.28753662109375 317.3824768066406 342.8656921386719 C 292.7989196777344 318.4936218261719 334.5721130371094 317.7266540527344 315.97052001953125 300.66607666015625 C 309.2004699707031 323.7227783203125 322.6494445800781 327.3182067871094 313.3079528808594 298.94891357421875 C 347.935791015625 273.0606689453125 328.53778076171875 268.5784912109375 307.7441711425781 317.5117492675781"/>
    <path stroke-width="0" fill="rgb(251, 252, 248)" opacity="0.9787819" stroke="rgb(6, 17, 173)" stroke-opacity="1.0" stroke-linecap="round" stroke-linejoin="round" d="M 286.0689392089844 209.91221618652344 C 303.0238037109375 195.57687377929688 289.2929382324219 228.51756286621094 287.5693664550781 231.07640075683594 C 319.6763916015625 235.2082061767578 312.5157470703125 222.37327575683594 262.9312438964844 216.94859313964844 C 250.4174346923828 205.17718505859375 275.2994689941406 199.79486083984375 297.4602355957031 203.4627227783203 C 280.9495849609375 203.40928649902344 307.1945495605469 215.82423400878906 286.0689392089844 209.91221618652344"/>
    <path stroke-width="0" fill="rgb(247, 251, 252)" opacity="0.40764964" stroke="rgb(169, 67, 5)" stroke-opacity="1.0" stroke-linecap="round" stroke-linejoin="round" d="M 187.54989624023438 230.02099609375 C 212.9423065185547 253.51516723632812 227.27001953125 228.4464569091797 239.7070770263672 202.63922119140625 C 206.3686065673828 216.83468627929688 197.67845153808594 209.37388610839844 199.68975830078125 207.9174041748047 C 176.800048828125 233.5124969482422 238.8190155029297 241.3674774169922 243.83201599121094 223.4083709716797 C 215.00247192382812 190.99972534179688 214.8731231689453 191.0580596923828 187.54989624023438 230.02099609375"/>
    <path stroke-width="0" fill="rgb(252, 259, 252)" opacity="0.9915128" stroke="rgb(81, 97, 150)" stroke-opacity="1.0" stroke-linecap="round" stroke-linejoin="round" d="M 106.73011016845703 402.0429992675781 C 59.88862609863281 464.1484680175781 -10.49728012084961 501.87432861328125 -15.178531646728516 524.1787719726562 C -3.401204824447632 481.1339111328125 -55.95347595214844 505.5627746582031 -29.504064559936523 488.4368591308594 C -10.254148483276367 494.6418762207031 12.557779312133789 509.9571228027344 -21.81005096435547 522.8221435546875 C -22.001333236694336 508.3380126953125 -3.6406469345092773 504.4376220703125 106.73011016845703 402.0429992675781"/>
    <path stroke-width="0" fill="rgb(16, 9, 0)" opacity="0.8761921" stroke="rgb(47, 242, 175)" stroke-opacity="1.0" stroke-linecap="round" stroke-linejoin="round" d="M 297.42138671875 228.70318603515625 C 330.2769470214844 189.25413513183594 308.1141662597656 213.9681854248047 282.9384460449219 228.6470947265625 C 240.30740356445312 230.83575439453125 277.525146484375 227.7332763671875 266.2050476074219 231.58631896972656 C 258.4112854003906 222.3527374267578 227.78146362304688 234.9241485595703 275.5311279296875 230.64987182617188 C 245.0567169189453 222.6196746826172 257.3271789550781 251.3764190673828 297.42138671875 228.70318603515625"/>
    <path stroke-width="0" fill="rgb(33, 15, 2)" opacity="1.0228443" stroke="rgb(132, 6, 52)" stroke-opacity="1.0" stroke-linecap="round" stroke-linejoin="round" d="M 308.87091064453125 137.29273986816406 C 275.83843994140625 147.505615234375 314.24566650390625 178.06285095214844 316.0819091796875 117.48094940185547 C 272.607421875 163.58543395996094 194.0888214111328 156.87420654296875 233.02037048339844 149.17935180664062 C 311.9617004394531 147.7002410888672 298.6002197265625 141.50234985351562 295.6266174316406 136.39158630371094 C 304.439208984375 154.7056121826172 281.3641357421875 151.36492919921875 308.87091064453125 137.29273986816406"/>
    <path stroke-width="0" fill="rgb(245, 147, -10)" opacity="0.91777086" stroke="rgb(220, 29, 131)" stroke-opacity="1.0" stroke-linecap="round" stroke-linejoin="round" d="M 238.1250762939453 193.5806121826172 C 272.2100524902344 195.9947052001953 250.16403198242188 219.45928955078125 249.7383270263672 222.10704040527344 C 243.19476318359375 163.52090454101562 253.406005859375 181.23316955566406 214.08084106445312 203.2031707763672 C 245.237548828125 187.01063537597656 239.9141082763672 168.2423858642578 257.0552673339844 186.41009521484375 C 239.61038208007812 173.13580322265625 245.2657928466797 203.98817443847656 238.1250762939453 193.5806121826172"/>
    <path stroke-width="0" fill="rgb(3, 9, 4)" opacity="0.5475175" stroke="rgb(182, 100, 144)" stroke-opacity="1.0" stroke-linecap="round" stroke-linejoin="round" d="M 253.65505981445312 192.3120880126953 C 270.09063720703125 159.88714599609375 262.34234619140625 179.8253631591797 265.0592346191406 203.9288787841797 C 270.9035339355469 185.65826416015625 237.7305908203125 185.76791381835938 249.2357940673828 156.44361877441406 C 228.35377502441406 167.31402587890625 241.52886962890625 154.9084014892578 251.7683868408203 152.54518127441406 C 241.5697479248047 171.61949157714844 251.04827880859375 184.3187255859375 253.65505981445312 192.3120880126953"/>
    <path stroke-width="0" fill="rgb(68, 52, 32)" opacity="0.4622461" stroke="rgb(36, 124, 90)" stroke-opacity="1.0" stroke-linecap="round" stroke-linejoin="round" d="M 270.50604248046875 149.26795959472656 C 221.8196563720703 152.32896423339844 198.82220458984375 128.23580932617188 191.4422607421875 136.8246612548828 C 227.9437713623047 137.3201446533203 260.0072021484375 158.6508331298828 243.69090270996094 175.33522033691406 C 254.0278778076172 157.7119598388672 245.20069885253906 127.98841857910156 254.374267578125 154.55535888671875 C 271.0757751464844 140.41343688964844 257.9400634765625 153.5429229736328 270.50604248046875 149.26795959472656"/>
    <path stroke-width="0" fill="rgb(54, 20, 11)" opacity="0.79919314" stroke="rgb(195, 190, 230)" stroke-opacity="1.0" stroke-linecap="round" stroke-linejoin="round" d="M 227.89743041992188 422.1253356933594 C 226.19178771972656 385.9326171875 199.8810577392578 394.3885498046875 250.6797332763672 360.3321838378906 C 231.72576904296875 373.0976257324219 216.19952392578125 385.5355529785156 223.27777099609375 381.1423034667969 C 227.71041870117188 411.07354736328125 222.4875030517578 401.93927001953125 222.06985473632812 363.9307556152344 C 208.90328979492188 418.3031005859375 243.35202026367188 403.7318420410156 227.89743041992188 422.1253356933594"/>
    <path stroke-width="0" fill="rgb(166, 161, 148)" opacity="0.23087227" stroke="rgb(140, 149, 245)" stroke-opacity="1.0" stroke-linecap="round" stroke-linejoin="round" d="M 252.91738891601562 152.92691040039062 C 242.23080444335938 163.92556762695312 250.1753387451172 144.0002899169922 206.94522094726562 136.4107208251953 C 243.20606994628906 157.96450805664062 253.9073486328125 172.65655517578125 246.2852325439453 159.097412109375 C 224.47409057617188 157.92897033691406 259.80633544921875 150.8614044189453 239.00132751464844 149.95883178710938 C 217.42958068847656 149.60772705078125 238.4652557373047 151.95408630371094 252.91738891601562 152.92691040039062"/>
    <path stroke-width="0" fill="rgb(140, 132, 125)" opacity="0.74867713" stroke="rgb(61, 25, 4)" stroke-opacity="1.0" stroke-linecap="round" stroke-linejoin="round" d="M 240.40914916992188 163.33094787597656 C 242.78244018554688 137.1986083984375 245.98934936523438 145.42282104492188 256.39056396484375 152.16879272460938 C 240.70826721191406 168.95672607421875 248.38192749023438 182.08177185058594 254.91566467285156 190.92396545410156 C 237.42617797851562 160.73675537109375 241.1903076171875 153.12896728515625 261.4567565917969 151.2690887451172 C 249.58724975585938 146.34532165527344 246.41378784179688 164.0553741455078 240.40914916992188 163.33094787597656"/>
    <path stroke-width="0" fill="rgb(76, 60, 36)" opacity="0.63925856" stroke="rgb(170, 200, 71)" stroke-opacity="1.0" stroke-linecap="round" stroke-linejoin="round" d="M 233.47418212890625 153.73342895507812 C 248.59490966796875 166.79763793945312 226.5764923095703 155.97586059570312 238.27735900878906 146.3780059814453 C 258.83135986328125 178.47860717773438 246.88246154785156 182.15394592285156 211.6770477294922 183.49508666992188 C 200.85806274414062 185.9725341796875 218.0774688720703 183.1101837158203 206.37452697753906 183.33926391601562 C 258.39215087890625 180.30210876464844 243.60079956054688 176.08541870117188 233.47418212890625 153.73342895507812"/>
    <path stroke-width="0" fill="rgb(93, 65, 28)" opacity="0.19643386" stroke="rgb(86, 245, 59)" stroke-opacity="1.0" stroke-linecap="round" stroke-linejoin="round" d="M 221.02536010742188 376.515380859375 C 246.55682373046875 370.8793029785156 234.9254150390625 371.7509765625 189.0269775390625 384.4683837890625 C 192.95211791992188 384.4134216308594 186.86805725097656 383.002685546875 188.0900115966797 380.6951599121094 C 190.446044921875 370.013671875 173.3360595703125 372.4288330078125 184.1542205810547 351.61376953125 C 200.17530822753906 382.695556640625 174.36032104492188 377.15594482421875 221.02536010742188 376.515380859375"/>
    <path stroke-width="0" fill="rgb(196, 192, 191)" opacity="0.82762027" stroke="rgb(126, 163, 93)" stroke-opacity="1.0" stroke-linecap="round" stroke-linejoin="round" d="M 251.2257537841797 156.81619262695312 C 250.96356201171875 155.2806854248047 246.4853973388672 130.75367736816406 245.9004364013672 156.1817626953125 C 243.6135711669922 173.15504455566406 230.9912567138672 132.9853973388672 242.70645141601562 152.94834899902344 C 242.55323791503906 175.6247100830078 243.91004943847656 173.66616821289062 241.9906463623047 176.5343780517578 C 237.10147094726562 152.9958038330078 248.77784729003906 151.39483642578125 251.2257537841797 156.81619262695312"/>
    <path stroke-width="0" fill="rgb(200, 196, 190)" opacity="0.5389327" stroke="rgb(209, 48, 130)" stroke-opacity="1.0" stroke-linecap="round" stroke-linejoin="round" d="M 278.8061218261719 149.32733154296875 C 243.6419219970703 151.752685546875 251.9566650390625 165.17588806152344 261.68353271484375 154.79425048828125 C 248.4235382080078 152.05296325683594 261.5893859863281 138.95474243164062 268.216796875 151.94668579101562 C 257.0907287597656 164.6169891357422 254.09803771972656 144.4923553466797 251.76263427734375 149.12452697753906 C 231.84481811523438 148.52398681640625 250.73106384277344 146.53382873535156 278.8061218261719 149.32733154296875"/>
    <path stroke-width="0" fill="rgb(241, 241, 248)" opacity="0.67266643" stroke="rgb(24, 219, 248)" stroke-opacity="1.0" stroke-linecap="round" stroke-linejoin="round" d="M 246.02731323242188 179.20162963867188 C 263.8239440917969 179.9813232421875 268.1951599121094 148.80136108398438 248.9671173095703 186.2270965576172 C 241.9035186767578 148.08709716796875 241.79005432128906 142.93238830566406 233.95274353027344 158.15283203125 C 260.3183288574219 152.38255310058594 280.6488037109375 154.5188446044922 251.68588256835938 151.36453247070312 C 249.7405548095703 144.02085876464844 251.49427795410156 148.0677947998047 246.02731323242188 179.20162963867188"/>
    <path stroke-width="0" fill="rgb(92, 97, 103)" opacity="0.8818471" stroke="rgb(231, 197, 84)" stroke-opacity="1.0" stroke-linecap="round" stroke-linejoin="round" d="M 259.8514709472656 144.5363006591797 C 272.1395568847656 151.47463989257812 267.8992614746094 155.3240966796875 233.49949645996094 158.63412475585938 C 255.8041229248047 163.46994018554688 283.0359191894531 139.216796875 294.80023193359375 129.85498046875 C 216.57322692871094 137.0825653076172 211.1896514892578 141.6865234375 276.9599609375 139.7930450439453 C 256.0163269042969 160.24203491210938 244.88134765625 173.51268005371094 259.8514709472656 144.5363006591797"/>
    <path stroke-width="0" fill="rgb(184, 120, 41)" opacity="0.74546933" stroke="rgb(103, 59, 33)" stroke-opacity="1.0" stroke-linecap="round" stroke-linejoin="round" d="M 246.23841857910156 191.40826416015625 C 252.27635192871094 189.7901153564453 256.07110595703125 188.2313690185547 238.10491943359375 169.09506225585938 C 249.78158569335938 169.17929077148438 238.44883728027344 177.97085571289062 251.8402557373047 189.25772094726562 C 232.80697631835938 177.89739990234375 271.89068603515625 176.60479736328125 245.13507080078125 188.8865966796875 C 265.57562255859375 184.16915893554688 249.68154907226562 175.37632751464844 246.23841857910156 191.40826416015625"/>
    <path stroke-width="0" fill="rgb(223, 136, 27)" opacity="0.44074363" stroke="rgb(185, 2, 196)" stroke-opacity="1.0" stroke-linecap="round" stroke-linejoin="round" d="M 246.63311767578125 153.60260009765625 C 253.93328857421875 183.7577362060547 240.9812774658203 213.51962280273438 244.4623260498047 156.3909912109375 C 246.7168731689453 164.37953186035156 249.1702117919922 178.01255798339844 255.17654418945312 175.3986358642578 C 241.90904235839844 177.38107299804688 250.28732299804688 189.67672729492188 245.2139129638672 190.79933166503906 C 240.930419921875 186.70748901367188 256.4675598144531 194.06593322753906 246.63311767578125 153.60260009765625"/>
    <path stroke-width="0" fill="rgb(147, 120, 92)" opacity="0.7230777" stroke="rgb(20, 22, 171)" stroke-opacity="1.0" stroke-linecap="round" stroke-linejoin="round" d="M 252.7776641845703 188.40719604492188 C 240.0002899169922 201.1403350830078 252.2608184814453 175.32513427734375 256.9743957519531 186.6379852294922 C 238.68614196777344 168.28036499023438 238.88824462890625 167.333984375 242.87338256835938 160.228271484375 C 240.26051330566406 169.96896362304688 253.08192443847656 166.9268035888672 244.90234375 170.9748077392578 C 246.6392059326172 184.6985626220703 251.10670471191406 182.2730712890625 252.7776641845703 188.40719604492188"/>
    <path stroke-width="0" fill="rgb(251, 188, 1)" opacity="0.75302184" stroke="rgb(107, 142, 219)" stroke-opacity="1.0" stroke-linecap="round" stroke-linejoin="round" d="M 246.32131958007812 209.94351196289062 C 272.63812255859375 178.53060913085938 267.6524353027344 197.34117126464844 276.211669921875 205.0771942138672 C 254.2225799560547 186.8150177001953 282.2186279296875 166.4137725830078 264.5506286621094 176.06668090820312 C 258.4276428222656 212.4351043701172 302.5130310058594 197.11544799804688 262.94256591796875 190.2392120361328 C 269.27203369140625 187.35238647460938 257.01092529296875 197.5518035888672 246.32131958007812 209.94351196289062"/>
    <path stroke-width="0" fill="rgb(258, 257, 252)" opacity="0.830935" stroke="rgb(68, 33, 14)" stroke-opacity="1.0" stroke-linecap="round" stroke-linejoin="round" d="M 294.1198425292969 208.0264892578125 C 268.5384216308594 214.4236602783203 250.8873748779297 214.35084533691406 276.469482421875 212.35325622558594 C 275.61297607421875 208.1192169189453 265.8232727050781 193.51687622070312 245.33248901367188 180.6381072998047 C 247.56472778320312 187.8851776123047 262.11053466796875 197.6508331298828 241.24020385742188 168.2975311279297 C 259.3310852050781 203.91024780273438 270.37664794921875 217.9456787109375 294.1198425292969 208.0264892578125"/>
    <path stroke-width="0" fill="rgb(72, 64, 48)" opacity="0.7119122" stroke="rgb(66, 116, 174)" stroke-opacity="1.0" stroke-linecap="round" stroke-linejoin="round" d="M 279.2098388671875 182.4351348876953 C 245.0509796142578 192.02294921875 241.10977172851562 179.40028381347656 246.57467651367188 203.1876983642578 C 244.72283935546875 193.58984375 242.248046875 182.09725952148438 247.63710021972656 183.14443969726562 C 254.74478149414062 138.02345275878906 236.49594116210938 164.08642578125 252.64736938476562 159.08364868164062 C 239.7265167236328 194.9671173095703 266.2654724121094 185.74224853515625 279.2098388671875 182.4351348876953"/>
    <path stroke-width="0" fill="rgb(29, 15, 8)" opacity="0.49977088" stroke="rgb(14, 177, 198)" stroke-opacity="1.0" stroke-linecap="round" stroke-linejoin="round" d="M 286.7276611328125 230.80026245117188 C 271.6496887207031 227.57354736328125 283.2017822265625 243.70933532714844 308.4946594238281 210.11009216308594 C 310.8949279785156 227.1571807861328 293.9803771972656 218.81536865234375 283.60205078125 226.33888244628906 C 255.4228057861328 237.31248474121094 277.07061767578125 230.88865661621094 288.75372314453125 231.28179931640625 C 275.4294738769531 231.00534057617188 275.80657958984375 227.32147216796875 286.7276611328125 230.80026245117188"/>
    <path stroke-width="0" fill="rgb(31, 26, 0)" opacity="0.7597076" stroke="rgb(66, 95, 149)" stroke-opacity="1.0" stroke-linecap="round" stroke-linejoin="round" d="M 259.8280334472656 235.90110778808594 C 292.02264404296875 226.71029663085938 284.1547546386719 231.31675720214844 308.0052795410156 215.91952514648438 C 302.1136169433594 221.75701904296875 275.72796630859375 234.66912841796875 262.77386474609375 234.7236328125 C 273.4814758300781 230.81814575195312 257.33563232421875 228.79562377929688 269.5473327636719 228.90625 C 237.36705017089844 233.70899963378906 260.6922302246094 232.32598876953125 259.8280334472656 235.90110778808594"/>
    <path stroke-width="0" fill="rgb(257, 255, 255)" opacity="0.13706085" stroke="rgb(147, 244, 164)" stroke-opacity="1.0" stroke-linecap="round" stroke-linejoin="round" d="M 196.0348358154297 294.7332763671875 C 182.47750854492188 302.7923583984375 175.5268096923828 281.8424072265625 186.09434509277344 278.5665283203125 C 177.16497802734375 294.50018310546875 174.92982482910156 280.0330810546875 208.7390594482422 278.33111572265625 C 197.6125946044922 265.6722106933594 185.87091064453125 264.6295471191406 189.2669219970703 268.8372497558594 C 193.59735107421875 256.9267578125 188.6534423828125 265.5142822265625 196.0348358154297 294.7332763671875"/>
    <path stroke-width="0" fill="rgb(55, 31, 20)" opacity="0.95751" stroke="rgb(109, 130, 136)" stroke-opacity="1.0" stroke-linecap="round" stroke-linejoin="round" d="M 189.49118041992188 337.6360168457031 C 174.73150634765625 291.9040222167969 181.13583374023438 290.8280334472656 183.2937774658203 289.25445556640625 C 185.5330352783203 295.4031982421875 163.68283081054688 279.5151062011719 163.3324432373047 238.66883850097656 C 185.45985412597656 297.531005859375 174.79649353027344 300.3057861328125 190.3969268798828 237.1961669921875 C 198.46620178222656 216.60328674316406 180.90423583984375 247.08445739746094 189.49118041992188 337.6360168457031"/>
    <path stroke-width="0" fill="rgb(108, 102, 108)" opacity="0.83280706" stroke="rgb(70, 32, 100)" stroke-opacity="1.0" stroke-linecap="round" stroke-linejoin="round" d="M 365.1338806152344 288.80438232421875 C 361.6195373535156 307.0893859863281 357.35845947265625 298.124267578125 359.8206481933594 302.1280212402344 C 363.3375549316406 295.6282043457031 364.9794921875 294.5454406738281 348.1093444824219 318.0111083984375 C 355.9228820800781 329.3294982910156 364.6788330078125 326.27191162109375 371.4963073730469 330.1297912597656 C 321.7977294921875 311.9849853515625 352.83416748046875 341.4365234375 365.1338806152344 288.80438232421875"/>
    <path stroke-width="0" fill="rgb(54, 35, 11)" opacity="0.80791336" stroke="rgb(47, 230, 138)" stroke-opacity="1.0" stroke-linecap="round" stroke-linejoin="round" d="M 182.51885986328125 355.6998291015625 C 164.2666473388672 359.92578125 174.65823364257812 368.3763122558594 172.6290283203125 329.6864929199219 C 179.80995178222656 334.3053894042969 175.92823791503906 324.1590576171875 196.6492462158203 364.4964599609375 C 177.9306182861328 320.9277038574219 155.0580596923828 257.7139587402344 166.96849060058594 305.8510437011719 C 176.4918670654297 335.1728515625 179.25697326660156 345.63531494140625 182.51885986328125 355.6998291015625"/>
    <path stroke-width="0" fill="rgb(20, 14, 3)" opacity="0.9216856" stroke="rgb(224, 116, 184)" stroke-opacity="1.0" stroke-linecap="round" stroke-linejoin="round" d="M 325.3519592285156 344.66070556640625 C 340.0734558105469 305.518310546875 327.6084289550781 329.3111267089844 304.0854187011719 369.6136169433594 C 323.1448669433594 336.27178955078125 341.7602844238281 307.3079833984375 313.7983703613281 360.6015625 C 309.5230407714844 336.8616638183594 320.3960876464844 334.4563903808594 334.5992431640625 331.6651916503906 C 301.8865966796875 339.72320556640625 318.6352233886719 344.1507568359375 325.3519592285156 344.66070556640625"/>
    <path stroke-width="0" fill="rgb(96, 100, 100)" opacity="0.6384632" stroke="rgb(230, 175, 178)" stroke-opacity="1.0" stroke-linecap="round" stroke-linejoin="round" d="M 162.92005920410156 325.8238220214844 C 151.7194061279297 298.29248046875 134.3881072998047 315.68389892578125 120.99955749511719 301.2855529785156 C 142.3475799560547 312.4739990234375 150.9052276611328 316.13092041015625 142.60357666015625 308.8728942871094 C 151.84420776367188 318.833740234375 134.31321716308594 318.46173095703125 160.27182006835938 326.7359313964844 C 183.60708618164062 253.46795654296875 191.12429809570312 273.2253112792969 162.92005920410156 325.8238220214844"/>
    <path stroke-width="0" fill="rgb(243, 241, 235)" opacity="0.21187583" stroke="rgb(192, 162, 61)" stroke-opacity="1.0" stroke-linecap="round" stroke-linejoin="round" d="M 290.20648193359375 327.5885314941406 C 297.9701843261719 343.80889892578125 320.7505798339844 368.7420959472656 327.3476867675781 334.9883728027344 C 309.3262939453125 342.12322998046875 278.7562561035156 342.3310852050781 281.8460998535156 333.69195556640625 C 268.6475830078125 302.0899353027344 272.080322265625 295.7228698730469 304.4822082519531 285.42486572265625 C 301.2286071777344 321.29736328125 296.36456298828125 347.898681640625 290.20648193359375 327.5885314941406"/>
    <path stroke-width="0" fill="rgb(254, 254, 252)" opacity="0.46832904" stroke="rgb(203, 244, 116)" stroke-opacity="1.0" stroke-linecap="round" stroke-linejoin="round" d="M 257.48504638671875 335.2630310058594 C 233.18264770507812 383.88934326171875 212.46939086914062 408.0565185546875 217.9375762939453 372.9391784667969 C 188.52825927734375 319.9850769042969 217.00514221191406 311.2793884277344 215.0316925048828 350.7748107910156 C 214.27476501464844 360.8124084472656 212.1899871826172 356.03271484375 214.0203857421875 291.94952392578125 C 232.7052001953125 288.6612854003906 226.92088317871094 298.72369384765625 257.48504638671875 335.2630310058594"/>
    <path stroke-width="0" fill="rgb(184, 158, 131)" opacity="0.649069" stroke="rgb(209, 231, 207)" stroke-opacity="1.0" stroke-linecap="round" stroke-linejoin="round" d="M 305.99951171875 336.21661376953125 C 320.53253173828125 308.8335876464844 285.7731018066406 360.8084716796875 325.86749267578125 337.6594543457031 C 330.5528869628906 316.57366943359375 325.2520446777344 304.4674377441406 319.35931396484375 315.4588623046875 C 321.2695617675781 364.0374755859375 315.5625 364.39739990234375 316.3283996582031 334.661376953125 C 301.4902648925781 329.5245361328125 310.150146484375 336.4998474121094 305.99951171875 336.21661376953125"/>
    <path stroke-width="0" fill="rgb(51, 27, 12)" opacity="1.0145811" stroke="rgb(65, 216, 8)" stroke-opacity="1.0" stroke-linecap="round" stroke-linejoin="round" d="M 187.95425415039062 397.66925048828125 C 176.9285125732422 339.830078125 199.61227416992188 337.19097900390625 200.3290557861328 371.0335998535156 C 194.15789794921875 406.449951171875 183.63551330566406 399.9239807128906 165.51954650878906 348.6673889160156 C 155.27117919921875 336.9637145996094 167.07662963867188 322.5781555175781 195.06112670898438 334.6826477050781 C 203.3763885498047 366.6876220703125 194.7986602783203 377.0557556152344 187.95425415039062 397.66925048828125"/>
    <path stroke-width="0" fill="rgb(254, 254, 252)" opacity="0.89081496" stroke="rgb(102, 236, 25)" stroke-opacity="1.0" stroke-linecap="round" stroke-linejoin="round" d="M 285.03839111328125 356.5342102050781 C 273.8036804199219 369.7313232421875 219.82728576660156 394.427490234375 214.92984008789062 386.9795227050781 C 219.27891540527344 368.0165100097656 221.12802124023438 347.97186279296875 221.4535369873047 333.9745788574219 C 228.87069702148438 388.5824279785156 229.23660278320312 378.80352783203125 218.37168884277344 328.560791015625 C 230.258544921875 345.9365234375 251.14859008789062 353.26666259765625 285.03839111328125 356.5342102050781"/>
    <path stroke-width="0" fill="rgb(66, 47, 18)" opacity="1.0161494" stroke="rgb(33, 3, 29)" stroke-opacity="1.0" stroke-linecap="round" stroke-linejoin="round" d="M 231.99147033691406 388.51702880859375 C 215.54359436035156 381.9500427246094 222.7949981689453 408.2915954589844 219.394775390625 417.4322204589844 C 172.96751403808594 409.144775390625 151.49612426757812 440.2061462402344 163.32957458496094 400.4701232910156 C 153.968994140625 403.80987548828125 229.14559936523438 398.10211181640625 236.7316436767578 397.81201171875 C 218.7621307373047 399.44354248046875 208.57989501953125 401.40533447265625 231.99147033691406 388.51702880859375"/>
    <path stroke-width="0" fill="rgb(84, 62, 23)" opacity="0.7233214" stroke="rgb(199, 73, 61)" stroke-opacity="1.0" stroke-linecap="round" stroke-linejoin="round" d="M 280.9715270996094 408.79241943359375 C 290.3321838378906 393.30535888671875 267.28790283203125 405.7038269042969 283.1347961425781 399.313232421875 C 286.10455322265625 411.8615417480469 282.9424133300781 395.46368408203125 282.2501220703125 401.2820129394531 C 287.7872314453125 395.7215576171875 268.9778747558594 401.9578857421875 354.68768310546875 400.6036376953125 C 371.91351318359375 422.1744384765625 255.1527557373047 423.1737060546875 280.9715270996094 408.79241943359375"/>
    <path stroke-width="0" fill="rgb(91, 96, 95)" opacity="0.98509824" stroke="rgb(175, 14, 186)" stroke-opacity="1.0" stroke-linecap="round" stroke-linejoin="round" d="M 490.42120361328125 134.0156707763672 C 446.2537841796875 186.10748291015625 515.1676025390625 264.1387634277344 640.2125244140625 131.01437377929688 C 511.7834777832031 79.14395141601562 608.1447143554688 -3.676504135131836 342.32952880859375 -81.47948455810547 C 130.8627471923828 155.25350952148438 226.91598510742188 2.8914098739624023 366.13739013671875 87.69435119628906 C 500.99066162109375 159.484130859375 454.061279296875 128.00054931640625 490.42120361328125 134.0156707763672"/>
    <path stroke-width="0" fill="rgb(93, 97, 98)" opacity="0.85357326" stroke="rgb(95, 190, 60)" stroke-opacity="1.0" stroke-linecap="round" stroke-linejoin="round" d="M 141.17469787597656 162.90724182128906 C 130.336181640625 194.23143005371094 95.4776382446289 150.10888671875 75.60547637939453 206.41554260253906 C 136.92459106445312 261.7828674316406 136.01712036132812 182.9287567138672 177.1020050048828 166.64585876464844 C 136.86721801757812 197.88742065429688 133.6709747314453 208.5543212890625 173.47715759277344 179.8296661376953 C 165.30792236328125 162.34019470214844 169.83938598632812 186.2921905517578 141.17469787597656 162.90724182128906"/>
    <path stroke-width="0" fill="rgb(53, 29, 8)" opacity="0.98923934" stroke="rgb(213, 60, 128)" stroke-opacity="1.0" stroke-linecap="round" stroke-linejoin="round" d="M 248.9051971435547 152.53936767578125 C 258.6059875488281 191.67752075195312 245.2335662841797 163.27342224121094 221.12554931640625 151.58389282226562 C 233.77589416503906 160.76820373535156 224.81744384765625 153.3251190185547 214.2401885986328 151.03314208984375 C 186.11215209960938 121.75685119628906 182.8690185546875 121.95441436767578 193.18057250976562 148.23281860351562 C 209.68734741210938 139.33993530273438 359.19873046875 144.259033203125 248.9051971435547 152.53936767578125"/>
    <path stroke-width="0" fill="rgb(75, 66, 62)" opacity="0.9008051" stroke="rgb(97, 228, 246)" stroke-opacity="1.0" stroke-linecap="round" stroke-linejoin="round" d="M 61.98004913330078 316.5687255859375 C 49.08366775512695 321.7059631347656 47.68247604370117 289.7762145996094 53.04376983642578 295.24114990234375 C 50.97312545776367 292.3041076660156 50.97059631347656 304.84088134765625 47.335975646972656 293.7178955078125 C 45.572418212890625 298.7928771972656 54.43561935424805 265.4714660644531 49.408897399902344 305.85919189453125 C 61.17805480957031 294.6403503417969 49.69961929321289 332.42657470703125 61.98004913330078 316.5687255859375"/>
    <path stroke-width="0" fill="rgb(92, 99, 95)" opacity="0.92150295" stroke="rgb(228, 103, 140)" stroke-opacity="1.0" stroke-linecap="round" stroke-linejoin="round" d="M 128.582763671875 277.9530029296875 C 152.45082092285156 309.79791259765625 156.72772216796875 310.1537780761719 111.6883544921875 327.90283203125 C 95.45272064208984 341.2975769042969 69.39268493652344 321.0870056152344 123.9413070678711 272.49615478515625 C 119.38296508789062 280.16375732421875 145.36712646484375 258.30059814453125 137.2479248046875 299.32318115234375 C 139.3885955810547 300.35491943359375 152.80555725097656 286.955322265625 128.582763671875 277.9530029296875"/>
    <path stroke-width="0" fill="rgb(254, 257, 257)" opacity="0.9953629" stroke="rgb(63, 128, 79)" stroke-opacity="1.0" stroke-linecap="round" stroke-linejoin="round" d="M 249.8976593017578 192.6628875732422 C 210.0598907470703 214.10061645507812 217.21853637695312 226.7694091796875 238.14540100097656 219.89015197753906 C 225.4042205810547 212.42514038085938 218.54466247558594 221.48094177246094 205.67593383789062 183.17654418945312 C 214.1168975830078 234.92581176757812 248.08497619628906 220.1350860595703 240.3358917236328 175.5481719970703 C 206.90286254882812 144.92706298828125 286.497802734375 185.15826416015625 249.8976593017578 192.6628875732422"/>
    <path stroke-width="0" fill="rgb(246, 250, 244)" opacity="0.21357213" stroke="rgb(85, 235, 219)" stroke-opacity="1.0" stroke-linecap="round" stroke-linejoin="round" d="M 297.4747619628906 388.71014404296875 C 302.8973388671875 406.2172546386719 269.6708984375 381.1938781738281 269.4179992675781 386.9533996582031 C 243.79852294921875 393.36029052734375 182.5827178955078 383.22357177734375 227.7283477783203 365.9916076660156 C 206.1438446044922 295.8346862792969 240.62928771972656 283.28216552734375 294.92205810546875 316.7778015136719 C 280.67132568359375 357.0682678222656 303.1026306152344 359.4603576660156 297.4747619628906 388.71014404296875"/>
    <path stroke-width="0" fill="rgb(92, 95, 95)" opacity="0.77361387" stroke="rgb(26, 88, 188)" stroke-opacity="1.0" stroke-linecap="round" stroke-linejoin="round" d="M 149.50869750976562 163.83071899414062 C 97.25951385498047 210.03688049316406 87.596923828125 247.16587829589844 107.46723175048828 230.82394409179688 C 160.41993713378906 224.65602111816406 146.16934204101562 214.65196228027344 142.65626525878906 200.68836975097656 C 144.00244140625 254.84420776367188 139.0464324951172 262.4626770019531 137.16683959960938 213.96383666992188 C 112.43087768554688 254.4105682373047 116.43511962890625 237.88101196289062 149.50869750976562 163.83071899414062"/>
    <path stroke-width="0" fill="rgb(42, 23, 9)" opacity="0.84787595" stroke="rgb(52, 87, 172)" stroke-opacity="1.0" stroke-linecap="round" stroke-linejoin="round" d="M 303.4468078613281 345.42041015625 C 318.3592529296875 397.19189453125 319.5843811035156 360.27056884765625 311.1227111816406 389.8895568847656 C 301.1448059082031 396.64495849609375 296.6910705566406 418.5777282714844 303.4943542480469 317.9627990722656 C 308.7266540527344 335.3733825683594 320.2868957519531 338.9447937011719 320.7220458984375 277.4622802734375 C 339.1676330566406 345.7894592285156 326.3111877441406 372.4022521972656 303.4468078613281 345.42041015625"/>
    <path stroke-width="0" fill="rgb(62, 32, 19)" opacity="0.97861654" stroke="rgb(7, 181, 2)" stroke-opacity="1.0" stroke-linecap="round" stroke-linejoin="round" d="M 303.8309020996094 137.63418579101562 C 278.920654296875 152.88186645507812 255.9577178955078 152.23983764648438 296.44940185546875 146.1460418701172 C 271.9365234375 153.32199096679688 230.70223999023438 184.44705200195312 246.007568359375 145.14117431640625 C 276.3666076660156 139.94244384765625 315.54742431640625 163.2567901611328 312.6393737792969 126.92695617675781 C 272.96234130859375 156.3331756591797 270.7051086425781 154.7945098876953 303.8309020996094 137.63418579101562"/>
    <path stroke-width="0" fill="rgb(92, 96, 96)" opacity="0.81177145" stroke="rgb(22, 103, 6)" stroke-opacity="1.0" stroke-linecap="round" stroke-linejoin="round" d="M 281.8721618652344 486.11102294921875 C 268.69183349609375 489.7427062988281 341.9242248535156 503.6055908203125 205.43592834472656 542.27099609375 C 82.08668518066406 490.9977111816406 259.3379821777344 469.3030700683594 250.4253387451172 467.8313293457031 C 255.2731170654297 472.6665344238281 291.7343444824219 512.250244140625 230.6616668701172 497.0449523925781 C 213.55487060546875 474.7303771972656 227.68873596191406 447.13018798828125 281.8721618652344 486.11102294921875"/>
    <path stroke-width="0" fill="rgb(92, 99, 96)" opacity="0.98189974" stroke="rgb(53, 29, 147)" stroke-opacity="1.0" stroke-linecap="round" stroke-linejoin="round" d="M 336.543701171875 158.1443328857422 C 315.240966796875 89.84321594238281 335.9914855957031 53.777000427246094 391.9001159667969 112.34246063232422 C 365.7235107421875 207.9226837158203 338.50439453125 135.95103454589844 333.866455078125 136.53561401367188 C 336.90283203125 165.89703369140625 343.6942138671875 159.51785278320312 350.7024230957031 152.84388732910156 C 325.551025390625 155.83963012695312 343.231201171875 154.9052276611328 336.543701171875 158.1443328857422"/>
    <path stroke-width="0" fill="rgb(91, 97, 93)" opacity="0.7236484" stroke="rgb(0, 165, 153)" stroke-opacity="1.0" stroke-linecap="round" stroke-linejoin="round" d="M 454.0357360839844 522.3112182617188 C 380.1604309082031 503.80517578125 293.62603759765625 480.42864990234375 360.6668701171875 504.565673828125 C 358.8218994140625 486.26715087890625 250.08689880371094 513.177001953125 245.60427856445312 478.0591125488281 C 304.81768798828125 428.7969055175781 339.07843017578125 460.15118408203125 329.3896484375 478.3926696777344 C 359.5574951171875 432.4822692871094 408.0606384277344 421.7071838378906 454.0357360839844 522.3112182617188"/>
    <path stroke-width="0" fill="rgb(131, 69, 14)" opacity="0.08502421" stroke="rgb(0, 0, 0)" stroke-opacity="0.0" stroke-linecap="round" stroke-linejoin="round" d="M 230.724609375 338.08489990234375 C 230.3455352783203 342.65087890625 227.55592346191406 345.25848388671875 223.7899169921875 346.34051513671875 C 220.15780639648438 345.04156494140625 216.3916015625 342.8401184082031 214.56231689453125 338.48089599609375 C 216.09092712402344 334.16302490234375 219.6685333251953 332.0404052734375 224.179931640625 331.45806884765625 C 227.68450927734375 331.9438781738281 230.79200744628906 334.6851501464844 230.724609375 338.08489990234375"/>
    <path stroke-width="0" fill="rgb(125, 218, 112)" opacity="0.4883341" stroke="rgb(0, 0, 0)" stroke-opacity="0.0" stroke-linecap="round" stroke-linejoin="round" d="M 360.4819030761719 40.5163688659668 C 359.56915283203125 44.78853225708008 357.3237609863281 47.989681243896484 352.9607238769531 48.58124542236328 C 348.4986877441406 48.32208251953125 345.82275390625 45.35704803466797 345.30975341796875 41.147335052490234 C 346.884521484375 37.60895919799805 349.7320861816406 34.486263275146484 352.8649597167969 33.46779251098633 C 356.8381042480469 34.29929733276367 359.6573181152344 37.060394287109375 360.4819030761719 40.5163688659668"/>
    <path stroke-width="0" fill="rgb(126, 171, 158)" opacity="0.18754788" stroke="rgb(0, 0, 0)" stroke-opacity="0.0" stroke-linecap="round" stroke-linejoin="round" d="M 217.3697509765625 487.73809814453125 C 217.43809509277344 493.4068908691406 215.7176971435547 496.114013671875 210.76841735839844 495.2660217285156 C 205.53370666503906 495.30694580078125 203.34413146972656 492.32415771484375 202.87425231933594 487.30810546875 C 203.33157348632812 484.4202880859375 206.7977294921875 481.7645568847656 210.247802734375 479.9911193847656 C 213.81814575195312 481.3228759765625 217.43099975585938 483.8480529785156 217.3697509765625 487.73809814453125"/>
    <path stroke-width="0" fill="rgb(121, 212, 136)" opacity="0.20583047" stroke="rgb(0, 0, 0)" stroke-opacity="0.0" stroke-linecap="round" stroke-linejoin="round" d="M 15.653913497924805 454.299560546875 C 14.511401176452637 459.1659240722656 12.761155128479004 462.6089782714844 7.320560932159424 462.256591796875 C 3.5793051719665527 462.878173828125 2.2802515029907227 458.4273376464844 -0.16965539753437042 453.2712097167969 C 0.33568036556243896 450.28955078125 3.707960605621338 447.4468688964844 8.021488189697266 447.7066345214844 C 12.309358596801758 447.6132507324219 14.934432029724121 450.7145080566406 15.653913497924805 454.299560546875"/>
    <path stroke-width="0" fill="rgb(253, 123, 78)" opacity="0.102966085" stroke="rgb(0, 0, 0)" stroke-opacity="0.0" stroke-linecap="round" stroke-linejoin="round" d="M 235.51565551757812 361.0387878417969 C 235.36827087402344 366.4847412109375 232.78634643554688 369.35601806640625 228.6800079345703 369.5516662597656 C 223.8795928955078 368.9035339355469 221.21852111816406 365.8745422363281 220.20118713378906 362.0962829589844 C 222.17381286621094 358.7076110839844 224.7187042236328 355.2717590332031 227.1778564453125 354.3082275390625 C 231.9024658203125 355.87225341796875 235.90548706054688 357.044189453125 235.51565551757812 361.0387878417969"/>
    <path stroke-width="0" fill="rgb(104, 15, 137)" opacity="0.7470963" stroke="rgb(0, 0, 0)" stroke-opacity="0.0" stroke-linecap="round" stroke-linejoin="round" d="M 25.290971755981445 307.11505126953125 C 23.718544006347656 310.13250732421875 21.145456314086914 313.5059814453125 18.29631996154785 315.76470947265625 C 14.589620590209961 314.3245544433594 11.764752388000488 311.5809020996094 9.837687492370605 307.37030029296875 C 12.109963417053223 304.6536865234375 15.742148399353027 302.21990966796875 18.4191951751709 301.3553466796875 C 20.547687530517578 302.6634826660156 24.254262924194336 305.135009765625 25.290971755981445 307.11505126953125"/>
    <path stroke-width="0" fill="rgb(0, 9, 77)" opacity="0.21688962" stroke="rgb(0, 0, 0)" stroke-opacity="0.0" stroke-linecap="round" stroke-linejoin="round" d="M -29.589311599731445 17.266544342041016 C -30.661108016967773 21.266544342041016 -33.58931350708008 24.194747924804688 -37.58931350708008 25.266544342041016 C -41.58931350708008 24.194747924804688 -44.51751708984375 21.266544342041016 -45.58931350708008 17.266544342041016 C -44.51751708984375 13.266544342041016 -41.58931350708008 10.338340759277344 -37.58931350708008 9.266544342041016 C -33.58931350708008 10.338340759277344 -30.661108016967773 13.266544342041016 -29.589311599731445 17.266544342041016"/>
    <path stroke-width="0" fill="rgb(140, 67, 241)" opacity="0.12354269" stroke="rgb(0, 0, 0)" stroke-opacity="0.0" stroke-linecap="round" stroke-linejoin="round" d="M 404.6219482421875 248.4389190673828 C 403.3206787109375 252.36639404296875 400.3463439941406 255.14321899414062 395.9678649902344 256.24102783203125 C 391.53472900390625 256.43853759765625 388.5568542480469 253.9785614013672 388.7317199707031 249.49728393554688 C 389.3749694824219 244.11973571777344 392.1639404296875 241.68783569335938 396.9181213378906 241.75282287597656 C 401.5741882324219 241.3822784423828 404.3190002441406 243.8448486328125 404.6219482421875 248.4389190673828"/>
    <path stroke-width="0" fill="rgb(18, 103, 120)" opacity="0.13781965" stroke="rgb(0, 0, 0)" stroke-opacity="0.0" stroke-linecap="round" stroke-linejoin="round" d="M 154.9076385498047 20.299785614013672 C 153.53091430664062 24.908037185668945 150.62026977539062 27.557037353515625 146.09820556640625 27.69113540649414 C 142.1536865234375 27.726709365844727 139.47006225585938 24.79156494140625 138.6758575439453 20.200021743774414 C 139.0927734375 16.419422149658203 142.44384765625 14.221826553344727 146.7574920654297 13.088505744934082 C 150.42832946777344 13.816993713378906 153.79296875 16.338409423828125 154.9076385498047 20.299785614013672"/>
    <path stroke-width="0" fill="rgb(16, 147, 167)" opacity="0.11821794" stroke="rgb(0, 0, 0)" stroke-opacity="0.0" stroke-linecap="round" stroke-linejoin="round" d="M 422.2303161621094 314.58099365234375 C 421.3306884765625 318.4140625 418.625244140625 321.2690734863281 413.8104248046875 322.5525817871094 C 409.53546142578125 322.6542663574219 406.7017517089844 319.654541015625 406.3641662597656 315.3126525878906 C 408.3595275878906 311.07550048828125 411.3460388183594 308.265625 414.9023132324219 307.47528076171875 C 418.6485290527344 307.9310302734375 421.2873840332031 310.60296630859375 422.2303161621094 314.58099365234375"/>
    <path stroke-width="0" fill="rgb(143, 202, 5)" opacity="0.95937437" stroke="rgb(0, 0, 0)" stroke-opacity="0.0" stroke-linecap="round" stroke-linejoin="round" d="M 188.82208251953125 129.50389099121094 C 188.50653076171875 132.822021484375 186.2111358642578 136.0313720703125 182.934326171875 136.10342407226562 C 178.75997924804688 135.15655517578125 175.96066284179688 132.3815155029297 175.50045776367188 128.6865692138672 C 175.57476806640625 125.26378631591797 178.6223602294922 122.90699768066406 183.04220581054688 121.53734588623047 C 185.91726684570312 121.82081604003906 188.06509399414062 125.66609954833984 188.82208251953125 129.50389099121094"/>
    <path stroke-width="0" fill="rgb(108, 74, 134)" opacity="0.66540146" stroke="rgb(0, 0, 0)" stroke-opacity="0.0" stroke-linecap="round" stroke-linejoin="round" d="M 173.8101806640625 437.6689453125 C 173.24085998535156 442.1717834472656 170.84634399414062 444.8880615234375 165.47991943359375 445.5388488769531 C 161.31008911132812 445.2042236328125 158.6900177001953 442.056640625 158.57479858398438 437.5427551269531 C 159.05018615722656 433.263671875 161.74034118652344 430.0453186035156 165.7207794189453 429.34783935546875 C 169.84445190429688 430.73480224609375 172.47732543945312 433.79150390625 173.8101806640625 437.6689453125"/>
    <path stroke-width="0" fill="rgb(168, 195, 235)" opacity="0.93849385" stroke="rgb(0, 0, 0)" stroke-opacity="0.0" stroke-linecap="round" stroke-linejoin="round" d="M 387.56182861328125 488.75640869140625 C 387.5809631347656 493.12200927734375 383.7266845703125 495.1641540527344 379.6318664550781 497.34967041015625 C 376.1402282714844 496.43353271484375 373.63720703125 492.836669921875 372.5210266113281 488.5492858886719 C 373.5379943847656 485.8215637207031 377.2476806640625 483.13653564453125 380.0952453613281 481.6644592285156 C 384.1662902832031 482.245361328125 387.6788330078125 484.9214782714844 387.56182861328125 488.75640869140625"/>
    <path stroke-width="0" fill="rgb(205, 90, 240)" opacity="0.73758906" stroke="rgb(0, 0, 0)" stroke-opacity="0.0" stroke-linecap="round" stroke-linejoin="round" d="M 498.4512023925781 225.85890197753906 C 497.3670959472656 229.47044372558594 494.4809875488281 232.34478759765625 490.13232421875 233.1747589111328 C 486.6981201171875 233.05810546875 484.461181640625 229.79222106933594 482.6881408691406 225.40907287597656 C 484.8193664550781 222.8235626220703 487.7089538574219 219.2945556640625 489.6819152832031 219.5000457763672 C 494.0057067871094 220.18743896484375 497.34857177734375 222.55523681640625 498.4512023925781 225.85890197753906"/>
    <path stroke-width="0" fill="rgb(163, 106, 189)" opacity="0.2277003" stroke="rgb(0, 0, 0)" stroke-opacity="0.0" stroke-linecap="round" stroke-linejoin="round" d="M 113.63646697998047 83.91584014892578 C 112.27367401123047 87.31356048583984 109.56486511230469 90.58795928955078 105.8017578125 91.56267547607422 C 101.94503784179688 91.27336120605469 98.87860870361328 88.78077697753906 98.49817657470703 84.62713623046875 C 99.37803649902344 80.55634307861328 102.76377868652344 77.8739242553711 106.13215637207031 77.01248931884766 C 110.24923706054688 77.5326919555664 113.49742126464844 79.91307830810547 113.63646697998047 83.91584014892578"/>
    <path stroke-width="0" fill="rgb(108, 242, 33)" opacity="0.27885342" stroke="rgb(0, 0, 0)" stroke-opacity="0.0" stroke-linecap="round" stroke-linejoin="round" d="M -37.3171272277832 14.057168006896973 C -38.38892364501953 18.057167053222656 -41.3171272277832 20.985370635986328 -45.3171272277832 22.057167053222656 C -49.3171272277832 20.985370635986328 -52.245330810546875 18.057167053222656 -53.3171272277832 14.057168006896973 C -52.245330810546875 10.057168006896973 -49.3171272277832 7.128964424133301 -45.3171272277832 6.0571675300598145 C -41.3171272277832 7.128964424133301 -38.38892364501953 10.057168006896973 -37.3171272277832 14.057168006896973"/>
    <path stroke-width="0" fill="rgb(84, 72, 128)" opacity="0.25676855" stroke="rgb(0, 0, 0)" stroke-opacity="0.0" stroke-linecap="round" stroke-linejoin="round" d="M 137.180908203125 469.1217346191406 C 137.33218383789062 472.8655700683594 134.42227172851562 475.2389221191406 129.6246337890625 476.2138366699219 C 125.5159683227539 475.651123046875 123.36824035644531 472.6645812988281 123.43887329101562 467.9835205078125 C 122.95162200927734 464.20147705078125 125.98660278320312 461.8038330078125 130.34164428710938 461.5312805175781 C 133.47164916992188 461.7213439941406 135.90513610839844 465.1495056152344 137.180908203125 469.1217346191406"/>
    <path stroke-width="0" fill="rgb(138, 88, 66)" opacity="0.3274277" stroke="rgb(0, 0, 0)" stroke-opacity="0.0" stroke-linecap="round" stroke-linejoin="round" d="M 234.2863311767578 124.9456558227539 C 233.77784729003906 128.6081085205078 230.19334411621094 130.657958984375 225.59814453125 131.29576110839844 C 222.56036376953125 132.43983459472656 220.5146026611328 129.2263946533203 220.63388061523438 124.5816879272461 C 220.2482452392578 120.85648345947266 222.76333618164062 117.85161590576172 227.5448760986328 117.84066009521484 C 231.6355743408203 117.44206237792969 234.30081176757812 120.41895294189453 234.2863311767578 124.9456558227539"/>
    <path stroke-width="0" fill="rgb(69, 79, 127)" opacity="0.08770026" stroke="rgb(0, 0, 0)" stroke-opacity="0.0" stroke-linecap="round" stroke-linejoin="round" d="M 102.64273834228516 117.13063049316406 C 101.6561050415039 120.62297058105469 98.79591369628906 123.8828353881836 94.9021224975586 125.66642761230469 C 90.69136810302734 124.10294342041016 88.00740814208984 120.9064712524414 86.72870635986328 116.87340545654297 C 88.42971801757812 113.3880386352539 91.54655456542969 110.66680145263672 95.72830963134766 109.10137176513672 C 98.85250854492188 109.69640350341797 101.28870391845703 113.13975524902344 102.64273834228516 117.13063049316406"/>
    <path stroke-width="0" fill="rgb(243, 141, 71)" opacity="0.5854529" stroke="rgb(0, 0, 0)" stroke-opacity="0.0" stroke-linecap="round" stroke-linejoin="round" d="M 140.44302368164062 92.33863830566406 C 139.52432250976562 95.54407501220703 136.6990203857422 98.95215606689453 132.9110107421875 99.38121795654297 C 128.0352783203125 99.1808090209961 125.36528778076172 96.5671157836914 125.72075653076172 92.33760070800781 C 126.56456756591797 88.10939025878906 128.75889587402344 84.46006774902344 131.6002655029297 85.20416259765625 C 136.47193908691406 85.50543212890625 139.03590393066406 88.1432113647461 140.44302368164062 92.33863830566406"/>
    <path stroke-width="0" fill="rgb(26, 125, 21)" opacity="0.8663839" stroke="rgb(0, 0, 0)" stroke-opacity="0.0" stroke-linecap="round" stroke-linejoin="round" d="M 133.8651123046875 193.16134643554688 C 133.54037475585938 197.265380859375 130.9147491455078 200.04299926757812 126.66061401367188 199.8489990234375 C 122.37799835205078 198.98629760742188 119.44490051269531 196.18687438964844 118.73652648925781 192.9938507080078 C 119.89994049072266 189.320068359375 122.94438171386719 186.57041931152344 126.5300521850586 185.82896423339844 C 129.7661590576172 185.92369079589844 132.38938903808594 188.87460327148438 133.8651123046875 193.16134643554688"/>
    <path stroke-width="0" fill="rgb(134, 13, 17)" opacity="0.6049907" stroke="rgb(0, 0, 0)" stroke-opacity="0.0" stroke-linecap="round" stroke-linejoin="round" d="M 63.49884033203125 383.606201171875 C 63.44021987915039 387.63885498046875 61.64903259277344 391.18853759765625 57.890621185302734 391.5836181640625 C 52.69766616821289 390.509765625 49.77573013305664 388.0098876953125 49.38829803466797 383.54327392578125 C 49.9495964050293 379.43524169921875 53.28855514526367 377.08782958984375 57.22987365722656 376.98419189453125 C 60.15968322753906 377.5107727050781 62.76240539550781 380.6536560058594 63.49884033203125 383.606201171875"/>
    <path stroke-width="0" fill="rgb(184, 61, 107)" opacity="0.48352188" stroke="rgb(0, 0, 0)" stroke-opacity="0.0" stroke-linecap="round" stroke-linejoin="round" d="M 255.79144287109375 469.6308288574219 C 254.88189697265625 473.99371337890625 252.57261657714844 477.37237548828125 247.97113037109375 478.0726318359375 C 243.10128784179688 477.5622253417969 240.76077270507812 474.6809997558594 240.2278594970703 469.8364562988281 C 241.21951293945312 465.8827819824219 244.32281494140625 463.27911376953125 248.07052612304688 462.5200500488281 C 251.66094970703125 463.3189697265625 254.5736541748047 466.3145751953125 255.79144287109375 469.6308288574219"/>
    <path stroke-width="0" fill="rgb(35, 43, 73)" opacity="0.8956598" stroke="rgb(0, 0, 0)" stroke-opacity="0.0" stroke-linecap="round" stroke-linejoin="round" d="M 55.501651763916016 22.314607620239258 C 54.70465850830078 26.548803329467773 51.3322639465332 28.468891143798828 46.52183532714844 29.328357696533203 C 43.06981658935547 29.32408905029297 40.68191909790039 26.202972412109375 39.38898849487305 21.811994552612305 C 41.058128356933594 18.80060386657715 44.22559356689453 16.02754783630371 47.40004348754883 15.356910705566406 C 51.23215103149414 15.412782669067383 54.351318359375 18.118684768676758 55.501651763916016 22.314607620239258"/>
    <path stroke-width="0" fill="rgb(44, 58, 134)" opacity="0.25278357" stroke="rgb(0, 0, 0)" stroke-opacity="0.0" stroke-linecap="round" stroke-linejoin="round" d="M 39.90284729003906 29.77264404296875 C 38.545166015625 34.31675720214844 35.76279067993164 37.23563003540039 31.542749404907227 37.44520568847656 C 26.608863830566406 37.41330337524414 24.079347610473633 34.873538970947266 23.813697814941406 30.226045608520508 C 24.843412399291992 26.595436096191406 28.167991638183594 23.970041275024414 31.83653450012207 23.050275802612305 C 34.55845260620117 24.15142250061035 38.6652717590332 26.53261375427246 39.90284729003906 29.77264404296875"/>
    <path stroke-width="0" fill="rgb(97, 181, 213)" opacity="0.3174668" stroke="rgb(0, 0, 0)" stroke-opacity="0.0" stroke-linecap="round" stroke-linejoin="round" d="M 42.04851531982422 82.35502624511719 C 40.85371780395508 86.36746978759766 37.80614471435547 89.24504089355469 34.35797882080078 90.36665344238281 C 30.340641021728516 89.7121810913086 27.074703216552734 87.62612915039062 27.4986515045166 83.50209045410156 C 27.90227508544922 79.47035217285156 30.830760955810547 76.26563262939453 34.50210952758789 75.245849609375 C 39.31583023071289 75.5159683227539 41.92303466796875 78.47888946533203 42.04851531982422 82.35502624511719"/>
    <path stroke-width="0" fill="rgb(135, 187, 157)" opacity="0.80103564" stroke="rgb(0, 0, 0)" stroke-opacity="0.0" stroke-linecap="round" stroke-linejoin="round" d="M 0.9038710594177246 19.22513771057129 C 1.0465229749679565 22.268815994262695 -2.0647544860839844 25.113800048828125 -6.0405683517456055 26.24616241455078 C -9.546488761901855 25.647045135498047 -12.474691390991211 22.718841552734375 -13.546488761901855 18.718841552734375 C -12.474691390991211 14.718841552734375 -9.546488761901855 11.790637969970703 -5.898589134216309 11.011136054992676 C -2.0840365886688232 12.241171836853027 0.5597648024559021 15.381148338317871 0.9038710594177246 19.22513771057129"/>
    <path stroke-width="0" fill="rgb(248, 101, 89)" opacity="0.59207886" stroke="rgb(0, 0, 0)" stroke-opacity="0.0" stroke-linecap="round" stroke-linejoin="round" d="M 333.1426696777344 203.05422973632812 C 333.61846923828125 206.7110137939453 330.4183044433594 209.2450408935547 326.6136169433594 209.35704040527344 C 322.7807312011719 209.1055145263672 319.4154052734375 206.48541259765625 318.1239318847656 202.56689453125 C 319.0865478515625 198.14752197265625 322.0302429199219 195.59022521972656 325.8860168457031 195.62255859375 C 329.6622314453125 196.81716918945312 332.9580993652344 199.0873565673828 333.1426696777344 203.05422973632812"/>
    <path stroke-width="0" fill="rgb(168, 147, 127)" opacity="0.013011323" stroke="rgb(0, 0, 0)" stroke-opacity="0.0" stroke-linecap="round" stroke-linejoin="round" d="M -11.04477310180664 -21.953899383544922 C -12.116569519042969 -17.953899383544922 -15.04477310180664 -15.025694847106934 -19.04477310180664 -13.953898429870605 C -23.04477310180664 -15.025694847106934 -25.972976684570312 -17.953899383544922 -27.04477310180664 -21.953899383544922 C -25.972976684570312 -25.953899383544922 -23.04477310180664 -28.88210105895996 -19.04477310180664 -29.953899383544922 C -15.04477310180664 -28.88210105895996 -12.116569519042969 -25.953899383544922 -11.04477310180664 -21.953899383544922"/>
    <path stroke-width="0" fill="rgb(102, 7, 171)" opacity="0.4735888" stroke="rgb(0, 0, 0)" stroke-opacity="0.0" stroke-linecap="round" stroke-linejoin="round" d="M 1.141036868095398 306.6916809082031 C 0.6017434597015381 310.66448974609375 -2.17929744720459 313.67340087890625 -6.282934188842773 314.5306396484375 C -10.641974449157715 313.1867370605469 -13.57017707824707 310.2585144042969 -14.641974449157715 306.2585144042969 C -13.57017707824707 302.2585144042969 -10.641974449157715 299.330322265625 -6.588794708251953 298.2295837402344 C -2.535223960876465 299.21234130859375 0.2531348466873169 302.2314758300781 1.141036868095398 306.6916809082031"/>
    <path stroke-width="0" fill="rgb(191, 66, 98)" opacity="0.67598575" stroke="rgb(0, 0, 0)" stroke-opacity="0.0" stroke-linecap="round" stroke-linejoin="round" d="M 413.6839599609375 407.4866027832031 C 412.6124572753906 411.02337646484375 409.271240234375 413.55352783203125 405.0299072265625 414.48455810546875 C 401.6048889160156 414.4475402832031 399.3493957519531 411.125244140625 398.1759033203125 406.73309326171875 C 398.7436218261719 403.248291015625 401.901123046875 400.8580627441406 406.46160888671875 399.11181640625 C 409.9227600097656 399.559326171875 411.89190673828125 403.9013671875 413.6839599609375 407.4866027832031"/>
    <path stroke-width="0" fill="rgb(52, 42, 128)" opacity="0.04243308" stroke="rgb(0, 0, 0)" stroke-opacity="0.0" stroke-linecap="round" stroke-linejoin="round" d="M 337.6952819824219 39.62932586669922 C 336.6379699707031 43.489444732666016 333.8769836425781 46.55390930175781 330.0274353027344 48.00627517700195 C 326.1995544433594 47.105281829833984 323.44573974609375 44.182254791259766 322.793701171875 39.835914611816406 C 323.25775146484375 35.84397506713867 326.10980224609375 32.79961013793945 330.2566223144531 31.68390655517578 C 334.68499755859375 32.750545501708984 337.30029296875 35.857322692871094 337.6952819824219 39.62932586669922"/>
  </g>
</svg>
