<?xml version="1.0" ?>
<svg xmlns="http://www.w3.org/2000/svg" version="1.1" width="512" height="512">
  <defs/>
  <g>
    <path stroke-width="0" fill="rgb(39, 134, 116)" opacity="0.9583157" stroke="rgb(139, 182, 153)" stroke-opacity="1.0" stroke-linecap="round" stroke-linejoin="round" d="M 538.2561645507812 305.92413330078125 C 578.2432250976562 717.5508422851562 523.9196166992188 607.5655517578125 409.77728271484375 560.2735595703125 C -4.815953731536865 574.9983520507812 -43.95188903808594 610.2658081054688 -51.99632263183594 372.31396484375 C -35.529502868652344 305.1559143066406 -20.042537689208984 302.2029724121094 -68.64706420898438 334.2585754394531 C 161.5827178955078 414.8897399902344 269.5656433105469 445.38153076171875 538.2561645507812 305.92413330078125"/>
    <path stroke-width="0" fill="rgb(142, 112, 246)" opacity="1.1276995" stroke="rgb(108, 164, 111)" stroke-opacity="1.0" stroke-linecap="round" stroke-linejoin="round" d="M 531.5294189453125 -27.256582260131836 C 497.6473693847656 128.59988403320312 518.7061767578125 204.40469360351562 374.2359619140625 232.03025817871094 C 195.19076538085938 233.62939453125 171.80780029296875 294.4392395019531 173.248779296875 -12.75830364227295 C 210.9188232421875 -99.50502014160156 286.98626708984375 -51.62980651855469 403.1378173828125 -41.173099517822266 C 511.8313903808594 -42.366355895996094 529.109375 -45.23481750488281 531.5294189453125 -27.256582260131836"/>
    <path stroke-width="0" fill="rgb(-67, 137, 91)" opacity="0.7961194" stroke="rgb(245, 97, 201)" stroke-opacity="1.0" stroke-linecap="round" stroke-linejoin="round" d="M 185.99755859375 177.95228576660156 C 190.2441864013672 354.196044921875 170.60169982910156 380.9801330566406 240.6669464111328 416.09381103515625 C -45.236167907714844 414.5607604980469 -50.61179733276367 400.08856201171875 -48.99965286254883 368.3021545410156 C -52.37535095214844 79.1630859375 -55.43769836425781 54.96458435058594 -13.95822525024414 -48.65054702758789 C 359.79766845703125 -46.84119415283203 346.0572204589844 -5.859075546264648 185.99755859375 177.95228576660156"/>
    <path stroke-width="0" fill="rgb(38, -8, 57)" opacity="1.0482221" stroke="rgb(144, 236, 18)" stroke-opacity="1.0" stroke-linecap="round" stroke-linejoin="round" d="M 568.0916137695312 410.75909423828125 C 632.3519287109375 453.65289306640625 664.0294189453125 460.0153503417969 292.29241943359375 422.060546875 C 332.80926513671875 161.984130859375 280.62213134765625 391.7109069824219 303.5043029785156 170.54306030273438 C 263.83587646484375 -83.35322570800781 338.55426025390625 -53.38411331176758 483.03955078125 -40.20502853393555 C 578.5626220703125 -28.153284072875977 566.8272094726562 -10.542065620422363 568.0916137695312 410.75909423828125"/>
    <path stroke-width="0" fill="rgb(-16, -8, 79)" opacity="1.0110351" stroke="rgb(5, 212, 198)" stroke-opacity="1.0" stroke-linecap="round" stroke-linejoin="round" d="M 200.1658172607422 288.7456970214844 C 165.7828369140625 285.4999084472656 246.05148315429688 475.8132629394531 193.39064025878906 451.7763671875 C 216.0814208984375 294.12109375 -41.51386642456055 204.00363159179688 79.6054458618164 133.23385620117188 C 54.08256912231445 185.12155151367188 56.34893798828125 177.92234802246094 23.37445640563965 242.57803344726562 C 102.46822357177734 248.79000854492188 228.48193359375 183.09193420410156 200.1658172607422 288.7456970214844"/>
    <path stroke-width="0" fill="rgb(17, -23, 52)" opacity="1.0576094" stroke="rgb(249, 203, 117)" stroke-opacity="1.0" stroke-linecap="round" stroke-linejoin="round" d="M 354.3858947753906 115.00127410888672 C 346.5494689941406 187.5423126220703 299.8754577636719 155.2782745361328 246.5853271484375 177.36297607421875 C 96.29346466064453 86.67772674560547 -6.317895412445068 198.8816375732422 57.7487907409668 78.05049133300781 C 82.47362518310547 -26.28001594543457 92.20108795166016 -30.562917709350586 196.0932159423828 -27.896026611328125 C 219.650634765625 -42.79623794555664 282.9459533691406 -81.55961608886719 354.3858947753906 115.00127410888672"/>
    <path stroke-width="0" fill="rgb(49, 159, 75)" opacity="1.0059798" stroke="rgb(30, 163, 36)" stroke-opacity="1.0" stroke-linecap="round" stroke-linejoin="round" d="M 578.5376586914062 405.0263366699219 C 694.2367553710938 438.7138366699219 846.5840454101562 528.9115600585938 254.44776916503906 511.3170166015625 C 448.0235595703125 206.20358276367188 286.53021240234375 316.86968994140625 330.3996887207031 123.93563842773438 C 381.5992736816406 -29.622461318969727 409.54156494140625 -14.75210189819336 485.264892578125 -32.28647994995117 C 565.7853393554688 -14.515660285949707 562.3096313476562 3.841090679168701 578.5376586914062 405.0263366699219"/>
    <path stroke-width="0" fill="rgb(47, 136, 137)" opacity="1.0115519" stroke="rgb(133, 105, 67)" stroke-opacity="1.0" stroke-linecap="round" stroke-linejoin="round" d="M 123.80558776855469 63.81541442871094 C 121.30072784423828 113.98234558105469 113.96785736083984 129.3733673095703 73.58446502685547 140.47093200683594 C -19.592905044555664 137.8585968017578 -30.468698501586914 134.94384765625 -36.02165603637695 49.468299865722656 C -28.461292266845703 -17.69627571105957 -20.302188873291016 -27.176698684692383 46.60256576538086 -28.910951614379883 C 110.76173400878906 -2.6515212059020996 115.646484375 7.11637544631958 123.80558776855469 63.81541442871094"/>
    <path stroke-width="0" fill="rgb(51, 130, 131)" opacity="0.85675794" stroke="rgb(116, 144, 4)" stroke-opacity="1.0" stroke-linecap="round" stroke-linejoin="round" d="M 111.9629135131836 57.42753601074219 C 66.37960052490234 178.87815856933594 92.37154388427734 210.2837371826172 -8.84953784942627 338.0555114746094 C -40.7213249206543 243.1691131591797 -35.085670471191406 217.4142608642578 -36.73765182495117 93.03227996826172 C -26.52779769897461 66.30683898925781 -16.452730178833008 61.29493713378906 81.28914642333984 63.33324432373047 C 119.87134552001953 67.02070617675781 130.37486267089844 72.47924041748047 111.9629135131836 57.42753601074219"/>
    <path stroke-width="0" fill="rgb(45, 133, 129)" opacity="0.99916" stroke="rgb(156, 157, 240)" stroke-opacity="1.0" stroke-linecap="round" stroke-linejoin="round" d="M 238.2959747314453 45.487083435058594 C 214.60658264160156 125.31288146972656 192.36029052734375 118.48053741455078 116.51756286621094 111.2831039428711 C 47.00966262817383 109.15907287597656 43.83912658691406 91.16987609863281 36.30219268798828 1.2845313549041748 C 32.23417663574219 -31.514257431030273 42.58403778076172 -35.896583557128906 94.07340240478516 -37.2251091003418 C 221.00274658203125 -91.22876739501953 218.37094116210938 -78.4295425415039 238.2959747314453 45.487083435058594"/>
    <path stroke-width="0" fill="rgb(46, 141, 123)" opacity="1.0512189" stroke="rgb(91, 111, 177)" stroke-opacity="1.0" stroke-linecap="round" stroke-linejoin="round" d="M 200.74966430664062 131.2647247314453 C 159.47317504882812 377.2658996582031 141.69325256347656 83.94747161865234 163.70936584472656 543.2944946289062 C -127.01535034179688 550.3731079101562 -88.73860168457031 495.13446044921875 -22.544166564941406 439.53857421875 C 56.60452651977539 115.09776306152344 55.47534942626953 76.02827453613281 336.09881591796875 67.10374450683594 C 277.64996337890625 26.181949615478516 273.6123962402344 190.93341064453125 200.74966430664062 131.2647247314453"/>
    <path stroke-width="0" fill="rgb(47, 162, 69)" opacity="1.0262551" stroke="rgb(170, 171, 53)" stroke-opacity="1.0" stroke-linecap="round" stroke-linejoin="round" d="M 522.405517578125 -0.5658054351806641 C 499.0743713378906 125.01617431640625 604.5458984375 172.43565368652344 271.7042541503906 241.47581481933594 C 404.84991455078125 177.06930541992188 259.72406005859375 154.94554138183594 205.26553344726562 -25.35433578491211 C 304.89898681640625 -86.0112533569336 335.77398681640625 -53.68967056274414 387.0159606933594 -45.11587142944336 C 518.9805908203125 -42.30170822143555 528.1303100585938 -37.58413314819336 522.405517578125 -0.5658054351806641"/>
    <path stroke-width="0" fill="rgb(78, 104, 163)" opacity="0.79836446" stroke="rgb(80, 92, 145)" stroke-opacity="1.0" stroke-linecap="round" stroke-linejoin="round" d="M 423.878173828125 -8.335508346557617 C 435.2301330566406 166.21205139160156 283.71368408203125 46.81453323364258 288.08953857421875 52.33530807495117 C 106.34175109863281 54.68614959716797 174.3737335205078 95.41852569580078 149.17364501953125 -25.942039489746094 C 154.8877716064453 -31.89655303955078 169.101806640625 -29.487001419067383 216.2349853515625 -28.543506622314453 C 271.21038818359375 -37.61959457397461 283.8244323730469 -37.228580474853516 423.878173828125 -8.335508346557617"/>
    <path stroke-width="0" fill="rgb(141, 119, 93)" opacity="0.62461853" stroke="rgb(252, 26, 53)" stroke-opacity="1.0" stroke-linecap="round" stroke-linejoin="round" d="M 229.77911376953125 74.72295379638672 C 229.54840087890625 87.88825988769531 218.16673278808594 90.07453918457031 201.214111328125 89.8972396850586 C 150.23602294921875 92.80340576171875 156.18951416015625 86.20018005371094 141.84072875976562 23.57464027404785 C 138.57652282714844 12.578858375549316 141.8513641357422 0.5277042388916016 153.1284637451172 -9.886210441589355 C 206.45346069335938 45.8477668762207 234.34829711914062 -0.92930006980896 229.77911376953125 74.72295379638672"/>
    <path stroke-width="0" fill="rgb(51, 138, 117)" opacity="1.0101415" stroke="rgb(166, 64, 118)" stroke-opacity="1.0" stroke-linecap="round" stroke-linejoin="round" d="M 242.9904327392578 54.763404846191406 C 189.13882446289062 56.063812255859375 225.20840454101562 79.80306243896484 219.0969696044922 102.30814361572266 C 194.41783142089844 16.261192321777344 142.1071014404297 151.20860290527344 126.45415496826172 8.657557487487793 C 132.96731567382812 -16.030704498291016 140.24163818359375 -23.86767578125 151.46253967285156 -27.443111419677734 C 323.6141357421875 -21.468610763549805 270.4547119140625 -0.5070716142654419 242.9904327392578 54.763404846191406"/>
    <path stroke-width="0" fill="rgb(279, 251, 183)" opacity="0.92620534" stroke="rgb(40, 28, 167)" stroke-opacity="1.0" stroke-linecap="round" stroke-linejoin="round" d="M 300.227294921875 217.4288787841797 C 241.7159423828125 212.0570831298828 273.3049621582031 241.41146850585938 305.6327819824219 220.86212158203125 C 297.54425048828125 215.15478515625 258.73675537109375 218.63531494140625 279.1454162597656 229.1222686767578 C 217.712646484375 232.52548217773438 299.4583740234375 190.80421447753906 239.14381408691406 194.1238250732422 C 286.1369934082031 126.671142578125 332.51263427734375 205.22866821289062 300.227294921875 217.4288787841797"/>
    <path stroke-width="0" fill="rgb(238, 247, 242)" opacity="1.1073387" stroke="rgb(50, 94, 209)" stroke-opacity="1.0" stroke-linecap="round" stroke-linejoin="round" d="M 288.398193359375 200.77880859375 C 309.74774169921875 156.38156127929688 334.0299072265625 188.0098114013672 243.6302032470703 236.6320343017578 C 294.02020263671875 116.8428955078125 206.73141479492188 317.8642883300781 185.70150756835938 186.86761474609375 C 286.943603515625 182.73182678222656 280.05938720703125 129.24501037597656 307.1945495605469 165.15628051757812 C 282.12677001953125 172.29896545410156 280.4354553222656 198.78933715820312 288.398193359375 200.77880859375"/>
    <path stroke-width="0" fill="rgb(-32, 61, -15)" opacity="0.9339618" stroke="rgb(213, 24, 248)" stroke-opacity="1.0" stroke-linecap="round" stroke-linejoin="round" d="M 294.04559326171875 183.98939514160156 C 311.5865173339844 182.28314208984375 318.9941101074219 193.36044311523438 306.26446533203125 187.77249145507812 C 319.07830810546875 182.45599365234375 271.76971435546875 160.15335083007812 270.6341552734375 195.92379760742188 C 286.2675476074219 218.0570526123047 300.6975402832031 193.60269165039062 310.9524841308594 183.96511840820312 C 280.0478210449219 172.46029663085938 300.09588623046875 195.98997497558594 294.04559326171875 183.98939514160156"/>
    <path stroke-width="0" fill="rgb(-1, -29, 75)" opacity="1.015941" stroke="rgb(249, 154, 188)" stroke-opacity="1.0" stroke-linecap="round" stroke-linejoin="round" d="M 357.83258056640625 414.67669677734375 C 322.7920227050781 405.7802734375 398.0513916015625 399.0332946777344 220.3850555419922 453.142822265625 C 188.05776977539062 376.9927978515625 91.99594116210938 404.8455505371094 323.0406494140625 401.18536376953125 C 367.633056640625 420.0618896484375 352.1428527832031 417.035400390625 356.5162353515625 400.813232421875 C 303.5067443847656 403.7226257324219 282.0111999511719 385.2869873046875 357.83258056640625 414.67669677734375"/>
    <path stroke-width="0" fill="rgb(93, 88, 147)" opacity="0.0967987" stroke="rgb(72, 30, 75)" stroke-opacity="1.0" stroke-linecap="round" stroke-linejoin="round" d="M 306.80291748046875 412.4291076660156 C 315.0848693847656 457.56011962890625 285.626708984375 418.98565673828125 254.91217041015625 418.3717041015625 C 248.48248291015625 427.3802185058594 253.4296417236328 409.6510925292969 251.99142456054688 396.2655944824219 C 258.1954650878906 396.7235107421875 249.8255157470703 426.4745788574219 254.47303771972656 421.4676513671875 C 247.35769653320312 418.8188781738281 248.2955780029297 419.44305419921875 306.80291748046875 412.4291076660156"/>
    <path stroke-width="0" fill="rgb(286, 140, -68)" opacity="1.0038786" stroke="rgb(81, 105, 16)" stroke-opacity="1.0" stroke-linecap="round" stroke-linejoin="round" d="M 266.8785705566406 387.51422119140625 C 311.7921142578125 380.9798583984375 273.01361083984375 447.2726745605469 270.02850341796875 416.88861083984375 C 202.99851989746094 412.6657409667969 227.34046936035156 420.6410217285156 220.11892700195312 378.91790771484375 C 228.5092315673828 394.22088623046875 247.32057189941406 367.951416015625 237.46458435058594 412.27056884765625 C 236.4575653076172 379.4292297363281 270.2397155761719 409.5815124511719 266.8785705566406 387.51422119140625"/>
    <path stroke-width="0" fill="rgb(190, 48, 97)" opacity="1.0612296" stroke="rgb(144, 67, 133)" stroke-opacity="1.0" stroke-linecap="round" stroke-linejoin="round" d="M 290.22039794921875 201.36630249023438 C 279.8900451660156 159.98109436035156 253.15574645996094 217.2754669189453 302.6664733886719 183.34710693359375 C 293.8973083496094 214.92799377441406 277.6871032714844 219.22547912597656 264.3301086425781 195.8478546142578 C 259.5603332519531 171.5081329345703 290.2427062988281 162.26641845703125 284.5381164550781 174.40118408203125 C 309.54620361328125 175.6868896484375 300.8671875 188.31336975097656 290.22039794921875 201.36630249023438"/>
    <path stroke-width="0" fill="rgb(282, 248, 246)" opacity="0.94970566" stroke="rgb(33, 182, 73)" stroke-opacity="1.0" stroke-linecap="round" stroke-linejoin="round" d="M 316.4227294921875 185.20240783691406 C 320.2808837890625 190.8280792236328 313.0350036621094 235.3892059326172 257.05670166015625 224.2996368408203 C 273.98529052734375 200.56748962402344 301.1392517089844 211.93783569335938 294.6438903808594 220.15931701660156 C 284.6778869628906 223.11756896972656 313.8533630371094 204.8390655517578 288.2507019042969 154.28009033203125 C 310.3519592285156 151.413330078125 320.3285827636719 191.041748046875 316.4227294921875 185.20240783691406"/>
    <path stroke-width="0" fill="rgb(264, 202, 190)" opacity="0.9003677" stroke="rgb(149, 5, 211)" stroke-opacity="1.0" stroke-linecap="round" stroke-linejoin="round" d="M 513.5201416015625 488.4801940917969 C 476.3121032714844 467.5421142578125 421.05487060546875 433.21807861328125 546.3140869140625 508.9095458984375 C 433.5074768066406 415.874267578125 429.5391845703125 396.738037109375 404.1795349121094 379.59747314453125 C 373.8509216308594 345.3012390136719 289.3808288574219 273.2330017089844 354.6264343261719 337.5359191894531 C 434.3646545410156 413.1904602050781 443.99041748046875 420.1038513183594 513.5201416015625 488.4801940917969"/>
    <path stroke-width="0" fill="rgb(2, 33, 71)" opacity="0.77858824" stroke="rgb(172, 68, 187)" stroke-opacity="1.0" stroke-linecap="round" stroke-linejoin="round" d="M 285.2566833496094 394.81829833984375 C 276.92926025390625 454.3925476074219 341.190185546875 369.3276062011719 308.9302062988281 431.00653076171875 C 308.13232421875 438.6899108886719 296.2848205566406 417.2398986816406 309.6694641113281 434.73046875 C 306.8903503417969 436.4029846191406 293.3235168457031 334.1384582519531 317.6046142578125 400.85711669921875 C 421.5036315917969 391.71331787109375 271.4274597167969 416.1382141113281 285.2566833496094 394.81829833984375"/>
    <path stroke-width="0" fill="rgb(37, 151, 109)" opacity="0.99683297" stroke="rgb(63, 146, 150)" stroke-opacity="1.0" stroke-linecap="round" stroke-linejoin="round" d="M 498.0898132324219 -4.413702964782715 C 185.11868286132812 152.1435546875 381.14093017578125 153.3872528076172 224.0768585205078 139.72332763671875 C 156.63375854492188 51.22406005859375 217.158935546875 381.47576904296875 -20.756092071533203 486.99652099609375 C -37.49930953979492 34.9467887878418 167.00613403320312 79.09900665283203 131.73744201660156 50.51716995239258 C 282.99090576171875 52.169639587402344 302.3948059082031 77.96507263183594 498.0898132324219 -4.413702964782715"/>
    <path stroke-width="0" fill="rgb(17, -27, 67)" opacity="0.94614416" stroke="rgb(56, 242, 114)" stroke-opacity="1.0" stroke-linecap="round" stroke-linejoin="round" d="M 228.4676513671875 176.25941467285156 C 244.8718719482422 159.86607360839844 246.6209259033203 200.17535400390625 228.94313049316406 206.7239532470703 C 202.3046875 217.81446838378906 185.2423553466797 169.7642059326172 227.52198791503906 172.22862243652344 C 234.3668212890625 189.7426300048828 217.31265258789062 180.80926513671875 231.68515014648438 171.18807983398438 C 187.49119567871094 184.25941467285156 249.1424560546875 165.6260223388672 228.4676513671875 176.25941467285156"/>
    <path stroke-width="0" fill="rgb(294, 186, 165)" opacity="1.0197787" stroke="rgb(224, 148, 224)" stroke-opacity="1.0" stroke-linecap="round" stroke-linejoin="round" d="M 78.25776672363281 420.9527893066406 C 73.10884857177734 424.0857238769531 75.52265167236328 429.11285400390625 62.68502426147461 430.6618957519531 C 80.80364227294922 428.653076171875 81.2830581665039 412.5461730957031 43.27369689941406 457.54608154296875 C 43.6229362487793 443.2623291015625 128.215576171875 381.2367858886719 182.2859649658203 304.4318542480469 C 66.0831527709961 436.4970703125 46.48714828491211 437.1858825683594 78.25776672363281 420.9527893066406"/>
    <path stroke-width="0" fill="rgb(271, 242, -100)" opacity="1.2094225" stroke="rgb(184, 127, 243)" stroke-opacity="1.0" stroke-linecap="round" stroke-linejoin="round" d="M 266.7176818847656 210.44688415527344 C 273.49072265625 209.8255157470703 322.3887634277344 186.95013427734375 264.1202697753906 179.0207061767578 C 305.0965576171875 164.59535217285156 293.4266357421875 189.99658203125 268.5536193847656 219.56582641601562 C 298.9525451660156 219.780029296875 296.4942626953125 217.23060607910156 280.7008972167969 218.00946044921875 C 258.72979736328125 215.0361328125 280.8036193847656 245.30857849121094 266.7176818847656 210.44688415527344"/>
    <path stroke-width="0" fill="rgb(249, 244, 291)" opacity="1.085649" stroke="rgb(108, 154, 4)" stroke-opacity="1.0" stroke-linecap="round" stroke-linejoin="round" d="M 261.317626953125 175.6508331298828 C 222.6358642578125 186.5602264404297 225.8437957763672 139.67413330078125 198.42333984375 185.05101013183594 C 188.20445251464844 251.7745361328125 165.9952850341797 166.80953979492188 205.6570587158203 154.6915740966797 C 201.52056884765625 137.995361328125 204.5794677734375 155.71510314941406 205.7071990966797 135.85704040527344 C 199.31423950195312 139.0442657470703 204.70986938476562 157.376708984375 261.317626953125 175.6508331298828"/>
    <path stroke-width="0" fill="rgb(-39, -16, 62)" opacity="0.9815463" stroke="rgb(168, 73, 157)" stroke-opacity="1.0" stroke-linecap="round" stroke-linejoin="round" d="M 184.61526489257812 215.0299072265625 C 187.0494842529297 221.34307861328125 182.95785522460938 215.84719848632812 190.70391845703125 222.19345092773438 C 233.9336700439453 267.13714599609375 275.7514953613281 232.66146850585938 248.93080139160156 221.23516845703125 C 193.32974243164062 237.87255859375 180.8284149169922 210.69580078125 180.53843688964844 170.5135040283203 C 167.2249755859375 217.4014129638672 202.11087036132812 221.29458618164062 184.61526489257812 215.0299072265625"/>
    <path stroke-width="0" fill="rgb(-24, -26, 66)" opacity="0.968059" stroke="rgb(34, 76, 145)" stroke-opacity="1.0" stroke-linecap="round" stroke-linejoin="round" d="M 229.20082092285156 147.33770751953125 C 202.94760131835938 133.81553649902344 197.03305053710938 162.0122528076172 181.71536254882812 167.46212768554688 C 171.09210205078125 240.58421325683594 186.3594512939453 144.18568420410156 197.8582000732422 145.31619262695312 C 177.19996643066406 147.80931091308594 182.99330139160156 119.44283294677734 181.18978881835938 110.138427734375 C 197.71426391601562 135.01828002929688 212.7267303466797 136.6339569091797 229.20082092285156 147.33770751953125"/>
    <path stroke-width="0" fill="rgb(295, 201, -99)" opacity="1.2254782" stroke="rgb(146, 166, 166)" stroke-opacity="1.0" stroke-linecap="round" stroke-linejoin="round" d="M 223.4442596435547 197.80259704589844 C 243.3652801513672 150.78009033203125 179.7555694580078 186.21749877929688 221.22317504882812 200.52964782714844 C 255.137939453125 193.85894775390625 216.22352600097656 160.00648498535156 228.70986938476562 182.5907440185547 C 217.84019470214844 178.5595703125 220.1581268310547 190.2224884033203 228.6160888671875 182.9015655517578 C 222.14808654785156 178.04635620117188 209.53097534179688 187.8077392578125 223.4442596435547 197.80259704589844"/>
    <path stroke-width="0" fill="rgb(310, 245, 337)" opacity="1.1307001" stroke="rgb(182, 254, 38)" stroke-opacity="1.0" stroke-linecap="round" stroke-linejoin="round" d="M 298.27764892578125 130.62362670898438 C 295.3106689453125 155.35191345214844 282.7215881347656 142.74940490722656 305.76806640625 143.7249298095703 C 302.78765869140625 148.9712371826172 299.43023681640625 133.3018798828125 284.1421203613281 159.57781982421875 C 294.2421875 174.6233673095703 292.8705139160156 164.8471221923828 271.0538635253906 166.3217315673828 C 285.0824279785156 149.9093017578125 308.2245788574219 156.87147521972656 298.27764892578125 130.62362670898438"/>
    <path stroke-width="0" fill="rgb(46, 52, 89)" opacity="0.22228482" stroke="rgb(41, 156, 31)" stroke-opacity="1.0" stroke-linecap="round" stroke-linejoin="round" d="M 206.85951232910156 191.02499389648438 C 207.3957061767578 184.99986267089844 220.33226013183594 191.47952270507812 243.62777709960938 185.3109130859375 C 214.25218200683594 180.9967803955078 212.13206481933594 209.33409118652344 244.8905792236328 194.88612365722656 C 215.41004943847656 176.14181518554688 234.90548706054688 173.28509521484375 224.2605743408203 199.49363708496094 C 237.80873107910156 188.7423553466797 210.7541961669922 172.22702026367188 206.85951232910156 191.02499389648438"/>
    <path stroke-width="0" fill="rgb(248, 248, 262)" opacity="0.5224943" stroke="rgb(177, 115, 184)" stroke-opacity="1.0" stroke-linecap="round" stroke-linejoin="round" d="M 248.19883728027344 181.6945037841797 C 242.151123046875 197.01220703125 242.05850219726562 169.36061096191406 207.09921264648438 160.87599182128906 C 185.38136291503906 196.6232452392578 186.2372283935547 158.38954162597656 224.81430053710938 169.0272979736328 C 235.27679443359375 163.54904174804688 246.17428588867188 181.1114501953125 251.74551391601562 181.25680541992188 C 206.97352600097656 132.1328125 237.13356018066406 145.42274475097656 248.19883728027344 181.6945037841797"/>
    <path stroke-width="0" fill="rgb(223, 252, -70)" opacity="0.5207814" stroke="rgb(248, 218, 2)" stroke-opacity="1.0" stroke-linecap="round" stroke-linejoin="round" d="M 244.12635803222656 164.08982849121094 C 214.81500244140625 243.83108520507812 186.37986755371094 169.54898071289062 228.81141662597656 180.07371520996094 C 243.04197692871094 235.6725616455078 211.97705078125 227.34178161621094 238.48240661621094 205.67611694335938 C 203.3243865966797 183.63600158691406 218.06382751464844 159.40919494628906 235.15518188476562 199.75064086914062 C 211.4108123779297 187.74026489257812 253.59458923339844 180.58872985839844 244.12635803222656 164.08982849121094"/>
    <path stroke-width="0" fill="rgb(-21, 116, 69)" opacity="0.8223531" stroke="rgb(186, 43, 132)" stroke-opacity="1.0" stroke-linecap="round" stroke-linejoin="round" d="M 225.74185180664062 171.75619506835938 C 229.01475524902344 169.42437744140625 234.9622039794922 172.24887084960938 223.3146209716797 192.7980499267578 C 220.6470489501953 201.26954650878906 203.39508056640625 186.21762084960938 222.09104919433594 177.5896759033203 C 198.1934356689453 190.6033172607422 247.70375061035156 172.9129180908203 222.1835174560547 186.8142547607422 C 215.22901916503906 173.61549377441406 258.8888244628906 182.61851501464844 225.74185180664062 171.75619506835938"/>
    <path stroke-width="0" fill="rgb(-14, -40, 100)" opacity="0.9766768" stroke="rgb(88, 236, 179)" stroke-opacity="1.0" stroke-linecap="round" stroke-linejoin="round" d="M 288.3775329589844 233.08737182617188 C 246.4954376220703 201.25698852539062 219.79522705078125 230.82083129882812 231.0140380859375 226.62255859375 C 269.2802734375 226.01136779785156 244.10731506347656 230.18426513671875 221.5216064453125 233.2522735595703 C 263.9174499511719 234.9355010986328 237.68377685546875 224.54229736328125 273.4946594238281 245.1691131591797 C 231.69784545898438 260.7582702636719 190.04026794433594 233.72872924804688 288.3775329589844 233.08737182617188"/>
    <path stroke-width="0" fill="rgb(-13, 37, 135)" opacity="0.062989056" stroke="rgb(41, 158, 147)" stroke-opacity="1.0" stroke-linecap="round" stroke-linejoin="round" d="M 182.74395751953125 224.9220428466797 C 196.36573791503906 191.28038024902344 174.62889099121094 219.38833618164062 157.7118377685547 278.40533447265625 C 182.39073181152344 202.8412322998047 183.32020568847656 203.65342712402344 190.54541015625 224.50621032714844 C 183.4612579345703 209.24435424804688 199.2976837158203 242.24993896484375 174.96058654785156 221.67156982421875 C 174.85943603515625 235.0237579345703 173.9164581298828 225.35850524902344 182.74395751953125 224.9220428466797"/>
    <path stroke-width="0" fill="rgb(11, -34, 92)" opacity="0.6737084" stroke="rgb(238, 156, 136)" stroke-opacity="1.0" stroke-linecap="round" stroke-linejoin="round" d="M 174.2793731689453 332.80841064453125 C 160.1702117919922 284.321044921875 161.6942901611328 297.3655090332031 173.13088989257812 296.9881591796875 C 196.63473510742188 357.0615234375 202.9398193359375 281.7132568359375 183.513427734375 287.7621765136719 C 189.8001251220703 355.03369140625 181.8798065185547 259.15386962890625 168.77857971191406 316.7279052734375 C 157.0496368408203 308.38543701171875 174.8701171875 320.5350341796875 174.2793731689453 332.80841064453125"/>
    <path stroke-width="0" fill="rgb(212, 255, 245)" opacity="0.8174682" stroke="rgb(186, 79, 101)" stroke-opacity="1.0" stroke-linecap="round" stroke-linejoin="round" d="M 216.16966247558594 163.0869903564453 C 265.2958068847656 178.30258178710938 265.3247375488281 198.3243408203125 238.82562255859375 176.8203125 C 200.65809631347656 152.4288787841797 180.59425354003906 188.34564208984375 202.720947265625 212.58595275878906 C 200.66085815429688 140.3955078125 226.0258331298828 161.95997619628906 206.64080810546875 178.0491943359375 C 205.4156036376953 170.50894165039062 208.30093383789062 176.04795837402344 216.16966247558594 163.0869903564453"/>
    <path stroke-width="0" fill="rgb(234, 251, 244)" opacity="0.88164496" stroke="rgb(47, 240, 188)" stroke-opacity="1.0" stroke-linecap="round" stroke-linejoin="round" d="M 247.41070556640625 194.2278594970703 C 328.0635986328125 233.95704650878906 286.6592712402344 214.9898681640625 215.9683074951172 219.9697265625 C 205.84890747070312 208.78363037109375 215.11837768554688 199.2957763671875 208.55906677246094 226.9542236328125 C 246.88803100585938 200.95648193359375 237.31785583496094 193.79327392578125 240.57098388671875 202.5255584716797 C 248.56947326660156 219.77598571777344 250.35520935058594 233.21502685546875 247.41070556640625 194.2278594970703"/>
    <path stroke-width="0" fill="rgb(47, 21, -46)" opacity="0.7911688" stroke="rgb(57, 64, 14)" stroke-opacity="1.0" stroke-linecap="round" stroke-linejoin="round" d="M 307.9359436035156 319.5765075683594 C 314.826171875 326.1315002441406 298.2455139160156 307.3732604980469 317.0621032714844 340.2882080078125 C 291.9083557128906 312.0740966796875 329.1048583984375 308.6968078613281 318.4184875488281 296.2488098144531 C 306.8641052246094 324.4436950683594 314.9285888671875 327.8817138671875 308.69854736328125 294.7897644042969 C 340.1004333496094 287.735107421875 324.1767272949219 272.2634582519531 307.9359436035156 319.5765075683594"/>
    <path stroke-width="0" fill="rgb(265, 262, 228)" opacity="1.0446215" stroke="rgb(6, 17, 173)" stroke-opacity="1.0" stroke-linecap="round" stroke-linejoin="round" d="M 285.3953552246094 208.06727600097656 C 305.73876953125 191.49244689941406 288.5126647949219 224.6571502685547 289.8990173339844 238.58116149902344 C 319.6590881347656 245.71339416503906 314.9344177246094 220.16067504882812 268.2939453125 213.40194702148438 C 243.9097442626953 202.73770141601562 267.4817199707031 203.21043395996094 286.6597595214844 211.406982421875 C 271.7807312011719 205.65948486328125 295.3697509765625 214.99697875976562 285.3953552246094 208.06727600097656"/>
    <path stroke-width="0" fill="rgb(77, 166, 348)" opacity="0.041823268" stroke="rgb(169, 67, 5)" stroke-opacity="1.0" stroke-linecap="round" stroke-linejoin="round" d="M 178.65463256835938 230.19644165039062 C 211.3909149169922 266.32537841796875 224.34945678710938 240.1297149658203 235.90184020996094 204.03732299804688 C 208.63162231445312 223.1083984375 202.1462860107422 217.01588439941406 200.7330322265625 197.39976501464844 C 183.99969482421875 225.83905029296875 249.52484130859375 238.14169311523438 248.76136779785156 224.68641662597656 C 214.82911682128906 191.26754760742188 204.15335083007812 185.12576293945312 178.65463256835938 230.19644165039062"/>
    <path stroke-width="0" fill="rgb(314, 203, 217)" opacity="1.1541268" stroke="rgb(81, 97, 150)" stroke-opacity="1.0" stroke-linecap="round" stroke-linejoin="round" d="M 99.33284759521484 393.87451171875 C 53.22846221923828 456.89361572265625 -12.507708549499512 499.42181396484375 -10.943350791931152 527.9729614257812 C -3.401204824447632 481.1339111328125 -55.95347595214844 505.5627746582031 -29.504064559936523 488.4368591308594 C -10.254148483276367 494.6418762207031 12.557779312133789 509.9571228027344 -23.378704071044922 521.0986328125 C -21.390661239624023 508.89349365234375 -2.863152265548706 505.44384765625 99.33284759521484 393.87451171875"/>
    <path stroke-width="0" fill="rgb(9, -54, 92)" opacity="0.98352885" stroke="rgb(47, 242, 175)" stroke-opacity="1.0" stroke-linecap="round" stroke-linejoin="round" d="M 297.9434509277344 232.89767456054688 C 337.9712829589844 188.68084716796875 312.2844543457031 217.56991577148438 284.492431640625 226.9902801513672 C 242.4438018798828 233.9125213623047 275.63946533203125 230.06019592285156 265.2063293457031 228.94412231445312 C 268.7073059082031 228.26588439941406 238.85452270507812 236.99026489257812 265.8326721191406 240.0067901611328 C 232.25286865234375 236.138916015625 253.47206115722656 258.6154479980469 297.9434509277344 232.89767456054688"/>
    <path stroke-width="0" fill="rgb(27, -41, 32)" opacity="0.9738317" stroke="rgb(132, 6, 52)" stroke-opacity="1.0" stroke-linecap="round" stroke-linejoin="round" d="M 313.6787414550781 137.21139526367188 C 280.062255859375 143.19065856933594 307.80853271484375 170.2279510498047 319.5536193847656 110.87142944335938 C 281.2973327636719 166.34315490722656 193.5258026123047 147.06736755371094 233.47117614746094 151.75465393066406 C 311.1465759277344 149.58758544921875 300.6351623535156 142.2943572998047 298.888671875 137.20623779296875 C 309.08709716796875 154.65689086914062 283.4137878417969 149.2161102294922 313.6787414550781 137.21139526367188"/>
    <path stroke-width="0" fill="rgb(300, 220, -97)" opacity="1.044061" stroke="rgb(220, 29, 131)" stroke-opacity="1.0" stroke-linecap="round" stroke-linejoin="round" d="M 237.59730529785156 192.72181701660156 C 276.78173828125 191.05746459960938 257.29345703125 234.81370544433594 249.5790252685547 236.48556518554688 C 222.99130249023438 183.5947723388672 256.42584228515625 185.19699096679688 223.84776306152344 204.63528442382812 C 248.4449920654297 188.51699829101562 245.84158325195312 173.21047973632812 264.2055358886719 190.2942657470703 C 241.68313598632812 179.35968017578125 242.48284912109375 211.54782104492188 237.59730529785156 192.72181701660156"/>
    <path stroke-width="0" fill="rgb(-60, -32, 48)" opacity="0.56692404" stroke="rgb(182, 100, 144)" stroke-opacity="1.0" stroke-linecap="round" stroke-linejoin="round" d="M 257.3771057128906 193.66647338867188 C 280.6492004394531 162.56246948242188 262.41851806640625 183.63270568847656 261.16461181640625 228.41319274902344 C 273.83758544921875 191.55441284179688 234.0830841064453 186.23800659179688 241.79190063476562 155.96624755859375 C 221.95294189453125 160.6588592529297 235.71080017089844 148.719482421875 254.673583984375 146.45333862304688 C 246.18141174316406 166.87142944335938 255.49923706054688 181.10232543945312 257.3771057128906 193.66647338867188"/>
    <path stroke-width="0" fill="rgb(-16, -22, 59)" opacity="0.5820177" stroke="rgb(36, 124, 90)" stroke-opacity="1.0" stroke-linecap="round" stroke-linejoin="round" d="M 263.1758728027344 154.1153564453125 C 213.923583984375 160.50877380371094 191.76904296875 136.2691650390625 190.6417999267578 132.6308135986328 C 226.2472686767578 136.38587951660156 253.88604736328125 160.4346923828125 239.25418090820312 175.07632446289062 C 252.59254455566406 158.85108947753906 242.08482360839844 128.3424530029297 255.2959442138672 155.17364501953125 C 272.208251953125 141.499267578125 258.01910400390625 152.08433532714844 263.1758728027344 154.1153564453125"/>
    <path stroke-width="0" fill="rgb(256, 208, -121)" opacity="1.0328552" stroke="rgb(195, 190, 230)" stroke-opacity="1.0" stroke-linecap="round" stroke-linejoin="round" d="M 229.18807983398438 426.9170837402344 C 219.42898559570312 400.50701904296875 202.55418395996094 403.1385192871094 254.26670837402344 363.98028564453125 C 233.5294189453125 374.9828796386719 219.1975555419922 389.23388671875 225.6786651611328 378.5942687988281 C 231.53004455566406 400.6875915527344 225.6313934326172 397.7255554199219 224.7469940185547 358.0887756347656 C 218.93280029296875 411.8544006347656 250.30072021484375 403.24371337890625 229.18807983398438 426.9170837402344"/>
    <path stroke-width="0" fill="rgb(83, 177, 177)" opacity="0.113426216" stroke="rgb(140, 149, 245)" stroke-opacity="1.0" stroke-linecap="round" stroke-linejoin="round" d="M 249.8448944091797 154.91656494140625 C 235.36634826660156 168.9251251220703 244.79917907714844 148.65231323242188 211.3505859375 133.95863342285156 C 247.17784118652344 154.10104370117188 258.2489929199219 169.12217712402344 249.41700744628906 156.41845703125 C 221.73629760742188 157.2967987060547 256.3795471191406 151.483642578125 243.37599182128906 155.21754455566406 C 221.86587524414062 154.0611572265625 240.36679077148438 156.7498016357422 249.8448944091797 154.91656494140625"/>
    <path stroke-width="0" fill="rgb(64, 79, 140)" opacity="0.53986335" stroke="rgb(61, 25, 4)" stroke-opacity="1.0" stroke-linecap="round" stroke-linejoin="round" d="M 241.63858032226562 163.859619140625 C 247.0177001953125 140.52162170410156 249.31248474121094 147.47479248046875 258.8108215332031 149.0719451904297 C 243.07937622070312 164.5731201171875 250.45230102539062 177.7926025390625 254.12014770507812 195.01162719726562 C 236.75511169433594 168.32977294921875 242.43511962890625 158.95175170898438 261.539794921875 158.27955627441406 C 247.34942626953125 149.29812622070312 246.35446166992188 164.7057342529297 241.63858032226562 163.859619140625"/>
    <path stroke-width="0" fill="rgb(148, 73, 1)" opacity="0.3472426" stroke="rgb(170, 200, 71)" stroke-opacity="1.0" stroke-linecap="round" stroke-linejoin="round" d="M 241.7725830078125 153.5286102294922 C 252.9098663330078 163.23521423339844 231.7771453857422 161.82872009277344 242.61708068847656 154.61920166015625 C 261.045166015625 181.65496826171875 251.52151489257812 182.92044067382812 209.89654541015625 183.55038452148438 C 196.8743896484375 179.5731964111328 216.30465698242188 183.60694885253906 207.46072387695312 182.14089965820312 C 270.9824523925781 183.4627685546875 254.86817932128906 182.26834106445312 241.7725830078125 153.5286102294922"/>
    <path stroke-width="0" fill="rgb(133, 119, 197)" opacity="0.5074885" stroke="rgb(126, 163, 93)" stroke-opacity="1.0" stroke-linecap="round" stroke-linejoin="round" d="M 247.4612579345703 159.97628784179688 C 247.83206176757812 158.48985290527344 247.6313934326172 134.1234893798828 251.1018524169922 159.99710083007812 C 245.78839111328125 173.35726928710938 234.8157196044922 129.27687072753906 244.6943359375 152.978759765625 C 235.8434600830078 174.09832763671875 238.7275390625 172.6802215576172 244.85433959960938 173.9183807373047 C 242.2423553466797 147.4980010986328 250.75303649902344 148.46917724609375 247.4612579345703 159.97628784179688"/>
    <path stroke-width="0" fill="rgb(211, 253, 334)" opacity="0.65279263" stroke="rgb(24, 219, 248)" stroke-opacity="1.0" stroke-linecap="round" stroke-linejoin="round" d="M 241.51768493652344 179.5119171142578 C 277.44989013671875 184.11239624023438 277.1758117675781 147.397216796875 249.1127166748047 184.35626220703125 C 232.08900451660156 151.63909912109375 229.96214294433594 143.628662109375 228.743408203125 158.77804565429688 C 267.1362609863281 160.82925415039062 290.7367248535156 154.08106994628906 265.2729797363281 146.19747924804688 C 249.67393493652344 146.1240997314453 246.89686584472656 144.75242614746094 241.51768493652344 179.5119171142578"/>
    <path stroke-width="0" fill="rgb(37, 164, 92)" opacity="0.7793852" stroke="rgb(231, 197, 84)" stroke-opacity="1.0" stroke-linecap="round" stroke-linejoin="round" d="M 266.1669616699219 151.99063110351562 C 271.3776550292969 148.1963653564453 264.42486572265625 148.76504516601562 231.67837524414062 159.15834045410156 C 254.31661987304688 163.1420440673828 280.5996398925781 136.59864807128906 290.22882080078125 138.9161376953125 C 217.80908203125 146.930419921875 203.92906188964844 141.5432891845703 273.1094055175781 136.5355682373047 C 256.40020751953125 160.54954528808594 249.52273559570312 174.87232971191406 266.1669616699219 151.99063110351562"/>
    <path stroke-width="0" fill="rgb(94, 57, 26)" opacity="1.0176985" stroke="rgb(103, 59, 33)" stroke-opacity="1.0" stroke-linecap="round" stroke-linejoin="round" d="M 245.93310546875 200.8715057373047 C 253.79071044921875 190.54505920410156 256.5552062988281 187.5010223388672 233.02391052246094 172.69097900390625 C 244.3380126953125 172.53260803222656 235.874755859375 178.4436492919922 256.0892028808594 184.763916015625 C 231.5983123779297 181.52487182617188 267.7012023925781 184.20181274414062 247.97756958007812 196.2030029296875 C 265.03521728515625 185.9812774658203 245.44830322265625 174.46702575683594 245.93310546875 200.8715057373047"/>
    <path stroke-width="0" fill="rgb(315, 213, -114)" opacity="1.0330397" stroke="rgb(107, 142, 219)" stroke-opacity="1.0" stroke-linecap="round" stroke-linejoin="round" d="M 246.70217895507812 208.53932189941406 C 274.4508056640625 179.76429748535156 270.702392578125 195.06680297851562 279.67633056640625 210.4700927734375 C 261.75091552734375 192.6951141357422 298.562255859375 175.61708068847656 268.91876220703125 179.5417938232422 C 258.38330078125 212.47618103027344 316.0721435546875 196.9062957763672 269.812744140625 193.28134155273438 C 269.1295166015625 188.7957305908203 257.0857849121094 198.00535583496094 246.70217895507812 208.53932189941406"/>
    <path stroke-width="0" fill="rgb(245, 250, 281)" opacity="0.8770567" stroke="rgb(68, 33, 14)" stroke-opacity="1.0" stroke-linecap="round" stroke-linejoin="round" d="M 296.2955322265625 207.20858764648438 C 270.2737731933594 216.65728759765625 251.79205322265625 214.33200073242188 271.5956115722656 221.5558624267578 C 273.0628967285156 209.93743896484375 266.4378356933594 192.45883178710938 251.4678497314453 178.8467254638672 C 249.28123474121094 194.52427673339844 258.44622802734375 201.5069580078125 233.2857208251953 175.91957092285156 C 255.41957092285156 207.54380798339844 267.6548156738281 221.35897827148438 296.2955322265625 207.20858764648438"/>
    <path stroke-width="0" fill="rgb(79, 98, 90)" opacity="0.27428597" stroke="rgb(66, 116, 174)" stroke-opacity="1.0" stroke-linecap="round" stroke-linejoin="round" d="M 272.63531494140625 183.90786743164062 C 246.19676208496094 193.36476135253906 245.1641387939453 178.62353515625 253.903076171875 199.579345703125 C 238.27642822265625 207.32041931152344 242.02806091308594 190.1901092529297 249.92626953125 187.5100555419922 C 252.31915283203125 138.5985565185547 235.75291442871094 165.20655822753906 256.6878967285156 160.6043243408203 C 242.74966430664062 195.01878356933594 265.882080078125 186.20907592773438 272.63531494140625 183.90786743164062"/>
    <path stroke-width="0" fill="rgb(7, -22, 73)" opacity="0.44102895" stroke="rgb(109, 130, 136)" stroke-opacity="1.0" stroke-linecap="round" stroke-linejoin="round" d="M 190.98545837402344 349.92474365234375 C 165.69821166992188 304.7939453125 178.62445068359375 298.3187255859375 186.3324432373047 288.4515380859375 C 178.75538635253906 294.0548095703125 156.40220642089844 287.64495849609375 168.12762451171875 250.42225646972656 C 188.23960876464844 290.90374755859375 172.72463989257812 286.1566162109375 180.49293518066406 239.7954559326172 C 194.24124145507812 229.19081115722656 185.39698791503906 250.82769775390625 190.98545837402344 349.92474365234375"/>
    <path stroke-width="0" fill="rgb(86, 129, 110)" opacity="0.35336348" stroke="rgb(70, 32, 100)" stroke-opacity="1.0" stroke-linecap="round" stroke-linejoin="round" d="M 361.43017578125 293.1385192871094 C 361.2497863769531 311.22393798828125 359.60382080078125 300.0553283691406 359.5235900878906 307.8390197753906 C 361.17486572265625 297.24005126953125 365.7839050292969 296.35528564453125 352.0122985839844 327.7085876464844 C 345.382080078125 332.33203125 356.7056884765625 331.7155456542969 371.604248046875 335.6572570800781 C 329.6300964355469 319.45111083984375 356.43243408203125 351.9049377441406 361.43017578125 293.1385192871094"/>
    <path stroke-width="0" fill="rgb(14, -16, 48)" opacity="0.25120568" stroke="rgb(47, 230, 138)" stroke-opacity="1.0" stroke-linecap="round" stroke-linejoin="round" d="M 183.37762451171875 361.0728759765625 C 164.3580322265625 362.302490234375 170.13270568847656 365.9995422363281 163.83738708496094 331.2689514160156 C 178.27793884277344 335.2707214355469 168.84506225585938 329.6500244140625 188.025146484375 371.3724060058594 C 170.53799438476562 328.9627685546875 149.64990234375 264.47235107421875 165.1923065185547 304.6322021484375 C 173.76812744140625 337.6289978027344 175.45730590820312 348.80810546875 183.37762451171875 361.0728759765625"/>
    <path stroke-width="0" fill="rgb(19, 8, -6)" opacity="0.6697406" stroke="rgb(224, 116, 184)" stroke-opacity="1.0" stroke-linecap="round" stroke-linejoin="round" d="M 330.05181884765625 340.605224609375 C 348.3437194824219 301.71063232421875 332.84124755859375 329.3070068359375 307.9691162109375 370.5583190917969 C 326.8797607421875 339.6750793457031 342.5165710449219 308.5610046386719 312.4986267089844 354.12615966796875 C 313.2083740234375 336.2519226074219 318.94805908203125 330.2447814941406 335.07598876953125 332.2045593261719 C 302.32733154296875 344.7923889160156 314.6175842285156 341.243408203125 330.05181884765625 340.605224609375"/>
    <path stroke-width="0" fill="rgb(162, 115, 57)" opacity="0.9324848" stroke="rgb(230, 175, 178)" stroke-opacity="1.0" stroke-linecap="round" stroke-linejoin="round" d="M 163.2044677734375 330.10491943359375 C 139.79551696777344 308.892822265625 125.99754333496094 320.03558349609375 114.84468078613281 308.1164245605469 C 138.60206604003906 320.627685546875 153.51034545898438 323.2368469238281 148.59237670898438 310.3727111816406 C 158.31686401367188 318.9911804199219 141.4630889892578 315.41864013671875 163.56321716308594 330.2939147949219 C 205.01722717285156 266.91644287109375 212.59776306152344 286.40887451171875 163.2044677734375 330.10491943359375"/>
    <path stroke-width="0" fill="rgb(205, 233, 239)" opacity="0.088998176" stroke="rgb(203, 244, 116)" stroke-opacity="1.0" stroke-linecap="round" stroke-linejoin="round" d="M 259.1104736328125 336.4731140136719 C 230.81076049804688 388.32568359375 211.0672149658203 423.1412048339844 208.44017028808594 384.4616394042969 C 181.26065063476562 316.5414123535156 213.5267333984375 308.1570129394531 218.33786010742188 345.0128479003906 C 212.71847534179688 358.948486328125 211.88833618164062 351.6351623535156 209.23324584960938 295.43896484375 C 229.31797790527344 287.67303466796875 225.70199584960938 297.7712097167969 259.1104736328125 336.4731140136719"/>
    <path stroke-width="0" fill="rgb(75, 35, 44)" opacity="0.13533069" stroke="rgb(209, 231, 207)" stroke-opacity="1.0" stroke-linecap="round" stroke-linejoin="round" d="M 307.533447265625 345.4913330078125 C 320.24139404296875 312.2043762207031 287.21649169921875 363.66253662109375 330.5557861328125 338.00067138671875 C 332.48919677734375 324.00390625 321.21954345703125 310.3779296875 328.15936279296875 325.51715087890625 C 321.193359375 357.89324951171875 317.2949523925781 356.7483215332031 314.5625305175781 334.9683532714844 C 298.5903015136719 331.4501647949219 312.447509765625 337.7757873535156 307.533447265625 345.4913330078125"/>
    <path stroke-width="0" fill="rgb(-16, -15, 76)" opacity="0.9882215" stroke="rgb(65, 216, 8)" stroke-opacity="1.0" stroke-linecap="round" stroke-linejoin="round" d="M 193.9090118408203 401.4692687988281 C 174.65609741210938 347.6802673339844 197.02342224121094 350.1209411621094 199.38229370117188 378.3258056640625 C 199.51943969726562 408.8323974609375 182.04034423828125 401.90679931640625 161.52520751953125 352.76141357421875 C 155.06475830078125 329.5422668457031 162.86605834960938 320.1248474121094 194.54110717773438 335.0028991699219 C 203.0825958251953 374.72808837890625 197.98277282714844 385.53656005859375 193.9090118408203 401.4692687988281"/>
    <path stroke-width="0" fill="rgb(253, 253, 253)" opacity="0.9970542" stroke="rgb(102, 236, 25)" stroke-opacity="1.0" stroke-linecap="round" stroke-linejoin="round" d="M 288.7654113769531 356.1453857421875 C 280.9811706542969 376.39581298828125 224.65936279296875 398.8023376464844 210.93569946289062 386.3306579589844 C 217.20506286621094 365.1888732910156 223.87640380859375 349.3149108886719 224.2993927001953 335.8744201660156 C 229.2128143310547 384.2190246582031 231.12353515625 376.1258544921875 219.1533966064453 331.55743408203125 C 228.23643493652344 347.3231506347656 250.76528930664062 352.0828857421875 288.7654113769531 356.1453857421875"/>
    <path stroke-width="0" fill="rgb(184, 76, 9)" opacity="1.1222798" stroke="rgb(33, 3, 29)" stroke-opacity="1.0" stroke-linecap="round" stroke-linejoin="round" d="M 228.54025268554688 388.38323974609375 C 214.15138244628906 395.2785339355469 222.7661590576172 409.70782470703125 220.83499145507812 416.6277160644531 C 154.87738037109375 408.88427734375 130.81988525390625 431.6947937011719 142.36590576171875 397.3474426269531 C 154.98001098632812 400.03076171875 227.95376586914062 398.10321044921875 218.12474060058594 399.62359619140625 C 221.91705322265625 399.84521484375 211.2607879638672 397.2895202636719 228.54025268554688 388.38323974609375"/>
    <path stroke-width="0" fill="rgb(268, 89, -41)" opacity="0.9909821" stroke="rgb(199, 73, 61)" stroke-opacity="1.0" stroke-linecap="round" stroke-linejoin="round" d="M 285.9342956542969 414.0849609375 C 287.8760986328125 384.9023132324219 277.0323181152344 396.890869140625 288.6085205078125 395.8283996582031 C 286.4277648925781 399.234130859375 283.1907958984375 386.8406066894531 284.078125 402.2496643066406 C 285.4805908203125 395.24566650390625 269.1218566894531 398.3787536621094 361.0189514160156 398.86541748046875 C 390.23638916015625 426.5992736816406 264.1438293457031 415.94757080078125 285.9342956542969 414.0849609375"/>
    <path stroke-width="0" fill="rgb(53, 157, 76)" opacity="0.8056827" stroke="rgb(175, 14, 186)" stroke-opacity="1.0" stroke-linecap="round" stroke-linejoin="round" d="M 480.0121765136719 134.16603088378906 C 441.7489013671875 186.61012268066406 512.224609375 263.9977722167969 639.2725219726562 130.71023559570312 C 511.784423828125 79.14346313476562 608.153076171875 -3.6851999759674072 345.0919189453125 -79.26355743408203 C 136.83546447753906 157.92648315429688 234.1609649658203 5.007279872894287 363.2243347167969 90.23596954345703 C 495.62237548828125 166.53775024414062 451.0757751464844 131.07421875 480.0121765136719 134.16603088378906"/>
    <path stroke-width="0" fill="rgb(55, 137, 122)" opacity="0.33895805" stroke="rgb(95, 190, 60)" stroke-opacity="1.0" stroke-linecap="round" stroke-linejoin="round" d="M 133.30490112304688 162.4042205810547 C 120.38111114501953 184.7794952392578 82.14199829101562 140.24945068359375 66.5561752319336 202.64903259277344 C 139.92770385742188 263.9934387207031 133.6988525390625 181.84962463378906 180.418212890625 174.22930908203125 C 137.69699096679688 197.52691650390625 134.1020050048828 207.47264099121094 173.58657836914062 177.614501953125 C 173.20388793945312 176.3985595703125 177.11611938476562 197.2308807373047 133.30490112304688 162.4042205810547"/>
    <path stroke-width="0" fill="rgb(-21, -21, 62)" opacity="0.9757171" stroke="rgb(213, 60, 128)" stroke-opacity="1.0" stroke-linecap="round" stroke-linejoin="round" d="M 258.6475830078125 151.09088134765625 C 261.492431640625 193.02516174316406 240.67230224609375 166.08006286621094 216.62509155273438 154.19699096679688 C 226.03353881835938 166.9856414794922 226.77195739746094 156.38990783691406 212.50924682617188 153.68402099609375 C 189.5501708984375 117.40506744384766 181.87893676757812 119.83547973632812 192.18832397460938 144.20367431640625 C 201.640380859375 142.85923767089844 352.166259765625 149.65293884277344 258.6475830078125 151.09088134765625"/>
    <path stroke-width="0" fill="rgb(46, 147, 113)" opacity="0.79578406" stroke="rgb(228, 103, 140)" stroke-opacity="1.0" stroke-linecap="round" stroke-linejoin="round" d="M 130.14376831054688 280.5469665527344 C 158.98033142089844 316.73126220703125 167.18600463867188 325.698974609375 119.17558288574219 334.7314453125 C 88.58783721923828 346.0072937011719 60.04251480102539 318.1275329589844 113.80245971679688 260.38201904296875 C 122.64999389648438 270.8808288574219 141.6691436767578 247.8325653076172 131.93389892578125 289.5639343261719 C 138.67271423339844 294.1837463378906 144.84341430664062 297.4272155761719 130.14376831054688 280.5469665527344"/>
    <path stroke-width="0" fill="rgb(226, 253, 281)" opacity="0.904421" stroke="rgb(63, 128, 79)" stroke-opacity="1.0" stroke-linecap="round" stroke-linejoin="round" d="M 258.3147888183594 200.0707550048828 C 213.19728088378906 218.91082763671875 214.92811584472656 224.2047576904297 224.23294067382812 219.1551055908203 C 221.28575134277344 221.21482849121094 215.10203552246094 227.481689453125 199.7048797607422 188.24038696289062 C 213.71728515625 231.81100463867188 244.61163330078125 218.24801635742188 240.2287139892578 177.07872009277344 C 203.4297637939453 150.8487091064453 285.20599365234375 189.34765625 258.3147888183594 200.0707550048828"/>
    <path stroke-width="0" fill="rgb(58, 134, 120)" opacity="0.21717966" stroke="rgb(26, 88, 188)" stroke-opacity="1.0" stroke-linecap="round" stroke-linejoin="round" d="M 146.6610565185547 165.49610900878906 C 93.80790710449219 207.15728759765625 82.81365966796875 243.227783203125 108.485107421875 237.70428466796875 C 157.5742645263672 226.14822387695312 141.5866241455078 218.4208984375 143.26510620117188 201.43601989746094 C 148.23907470703125 251.24847412109375 139.37289428710938 260.0236511230469 133.33311462402344 212.47312927246094 C 112.94068908691406 255.06405639648438 113.66194915771484 235.00233459472656 146.6610565185547 165.49610900878906"/>
    <path stroke-width="0" fill="rgb(25, -20, 52)" opacity="0.93506694" stroke="rgb(52, 87, 172)" stroke-opacity="1.0" stroke-linecap="round" stroke-linejoin="round" d="M 303.00445556640625 352.27252197265625 C 311.0488586425781 403.1999206542969 308.9406433105469 364.7392883300781 318.5618896484375 398.4565734863281 C 296.3909912109375 398.2218017578125 292.11676025390625 415.9107971191406 310.0052795410156 317.5206604003906 C 313.9838562011719 320.4825744628906 325.5946960449219 324.70318603515625 319.1958312988281 283.6491394042969 C 348.1519470214844 340.9430847167969 331.15936279296875 377.7658996582031 303.00445556640625 352.27252197265625"/>
    <path stroke-width="0" fill="rgb(-15, -31, 68)" opacity="0.99734414" stroke="rgb(7, 181, 2)" stroke-opacity="1.0" stroke-linecap="round" stroke-linejoin="round" d="M 305.9960632324219 142.18603515625 C 276.994873046875 150.78419494628906 262.43341064453125 151.7183380126953 297.5851135253906 144.95033264160156 C 273.8004455566406 158.4450225830078 227.6249542236328 190.796142578125 237.9713134765625 143.9161376953125 C 270.0037536621094 138.60467529296875 309.3688659667969 157.28216552734375 324.9267272949219 129.27734375 C 270.7693176269531 153.3105010986328 268.6246337890625 153.7967987060547 305.9960632324219 142.18603515625"/>
    <path stroke-width="0" fill="rgb(47, 141, 118)" opacity="0.42245978" stroke="rgb(22, 103, 6)" stroke-opacity="1.0" stroke-linecap="round" stroke-linejoin="round" d="M 283.379638671875 488.299072265625 C 270.7307434082031 496.3577575683594 344.098876953125 510.8712158203125 200.2254180908203 537.6500244140625 C 76.38033294677734 487.934326171875 256.85498046875 468.3994140625 246.39767456054688 470.0049133300781 C 247.64031982421875 473.2939147949219 283.3986511230469 507.1905822753906 235.7294921875 489.89892578125 C 222.76754760742188 478.1429138183594 236.23480224609375 448.47607421875 283.379638671875 488.299072265625"/>
    <path stroke-width="0" fill="rgb(35, 168, 78)" opacity="0.72714627" stroke="rgb(53, 29, 147)" stroke-opacity="1.0" stroke-linecap="round" stroke-linejoin="round" d="M 333.2954406738281 154.43289184570312 C 302.353515625 78.220947265625 324.3373718261719 42.95519256591797 393.3913879394531 107.77375793457031 C 368.67803955078125 209.4287872314453 333.8781433105469 139.92401123046875 336.3702697753906 142.0294952392578 C 340.0118408203125 162.47071838378906 349.0576477050781 160.0919189453125 345.6000061035156 155.14659118652344 C 323.203125 147.99252319335938 342.0027770996094 144.83224487304688 333.2954406738281 154.43289184570312"/>
    <path stroke-width="0" fill="rgb(66, 136, 117)" opacity="0.38721037" stroke="rgb(0, 165, 153)" stroke-opacity="1.0" stroke-linecap="round" stroke-linejoin="round" d="M 460.4459228515625 523.2489013671875 C 371.99359130859375 513.750244140625 287.09259033203125 489.78936767578125 355.6430969238281 504.5739440917969 C 350.6914978027344 490.6104736328125 246.63246154785156 518.3089599609375 244.07412719726562 475.768310546875 C 300.4182434082031 426.3668518066406 338.7328796386719 460.0978698730469 329.01812744140625 479.177001953125 C 362.2709655761719 429.2458801269531 415.4263916015625 415.7524719238281 460.4459228515625 523.2489013671875"/>
    <path stroke-width="0" fill="rgb(47, 146, 109)" opacity="0.101800874" stroke="rgb(0, 0, 0)" stroke-opacity="0.0" stroke-linecap="round" stroke-linejoin="round" d="M 17.339418411254883 -5.135176658630371 C 16.258129119873047 -1.3437238931655884 14.932455062866211 3.1813299655914307 6.096630096435547 3.0127549171447754 C 0.7244191765785217 8.389813423156738 -1.295839548110962 8.12414836883545 -0.12237793952226639 0.4034379720687866 C 5.109347343444824 -6.539179801940918 9.653665542602539 -8.239044189453125 13.991004943847656 -9.130876541137695 C 18.005184173583984 -8.05243968963623 20.933387756347656 -5.124236583709717 17.339418411254883 -5.135176658630371"/>
    <path stroke-width="0" fill="rgb(73, 119, 149)" opacity="0.17192134" stroke="rgb(0, 0, 0)" stroke-opacity="0.0" stroke-linecap="round" stroke-linejoin="round" d="M 9.213922500610352 1.4846694469451904 C 16.30372428894043 7.716510772705078 14.697996139526367 4.265141010284424 11.38988971710205 3.2506165504455566 C 5.479634761810303 7.989558696746826 0.06757689267396927 9.673203468322754 -4.1778883934021 6.699331760406494 C -1.1857409477233887 -0.7068161368370056 2.4247279167175293 -3.045905828475952 8.333059310913086 -3.830179452896118 C 14.004685401916504 -4.021975517272949 14.995158195495605 -3.504159450531006 9.213922500610352 1.4846694469451904"/>
    <path stroke-width="0" fill="rgb(68, 126, 174)" opacity="0.18582249" stroke="rgb(0, 0, 0)" stroke-opacity="0.0" stroke-linecap="round" stroke-linejoin="round" d="M 27.65280532836914 10.410665512084961 C 29.51175308227539 15.880720138549805 26.048072814941406 15.483582496643066 23.484474182128906 15.520611763000488 C 17.984176635742188 18.656660079956055 11.577886581420898 10.477044105529785 25.895395278930664 12.707137107849121 C 24.819677352905273 5.17399263381958 18.969282150268555 0.30236324667930603 19.11944007873535 2.1308798789978027 C 29.04718780517578 4.173359394073486 30.93788719177246 2.7737436294555664 27.65280532836914 10.410665512084961"/>
    <path stroke-width="0" fill="rgb(85, 115, 130)" opacity="0.085716486" stroke="rgb(0, 0, 0)" stroke-opacity="0.0" stroke-linecap="round" stroke-linejoin="round" d="M 38.75424575805664 4.415935516357422 C 39.48655319213867 12.34310531616211 40.711612701416016 13.98958683013916 32.59552764892578 11.073173522949219 C 31.03429412841797 4.844081401824951 30.345489501953125 0.9499607086181641 28.367856979370117 -2.51192569732666 C 23.54767608642578 -1.7454758882522583 26.066421508789062 -4.87183952331543 30.084808349609375 -5.984591960906982 C 34.953636169433594 -5.07375431060791 39.259849548339844 -2.0675487518310547 38.75424575805664 4.415935516357422"/>
    <path stroke-width="0" fill="rgb(65, 138, 126)" opacity="0.074163914" stroke="rgb(0, 0, 0)" stroke-opacity="0.0" stroke-linecap="round" stroke-linejoin="round" d="M 67.91763305664062 7.055276393890381 C 70.71417999267578 12.162182807922363 71.47183990478516 12.792797088623047 58.094383239746094 10.254939079284668 C 56.871395111083984 14.812277793884277 56.73009490966797 15.305999755859375 62.88258361816406 12.136735916137695 C 61.63532257080078 5.818649768829346 58.34300231933594 -0.9475147128105164 61.10838317871094 -3.0509209632873535 C 68.71797180175781 0.390051007270813 69.58799743652344 2.6879453659057617 67.91763305664062 7.055276393890381"/>
    <path stroke-width="0" fill="rgb(104, 96, 139)" opacity="0.15105596" stroke="rgb(0, 0, 0)" stroke-opacity="0.0" stroke-linecap="round" stroke-linejoin="round" d="M 291.2554931640625 11.632513999938965 C 293.3739929199219 6.32233190536499 295.6149597167969 16.217432022094727 294.8410949707031 5.220736980438232 C 285.8028259277344 6.744721412658691 287.193115234375 12.374787330627441 288.8227844238281 2.9330649375915527 C 291.0633850097656 7.052022933959961 293.5909118652344 9.010615348815918 298.48876953125 4.623305320739746 C 290.42974853515625 3.2591071128845215 288.32135009765625 9.371452331542969 291.2554931640625 11.632513999938965"/>
    <path stroke-width="0" fill="rgb(69, 101, 139)" opacity="0.049718592" stroke="rgb(0, 0, 0)" stroke-opacity="0.0" stroke-linecap="round" stroke-linejoin="round" d="M 53.06835174560547 7.07702112197876 C 57.88312530517578 6.047030925750732 55.32236099243164 6.210296630859375 48.846038818359375 4.8870768547058105 C 40.58259582519531 8.745527267456055 39.2378044128418 6.809106826782227 41.097373962402344 -0.020386535674333572 C 38.38578796386719 -2.9587087631225586 42.419532775878906 -5.421811103820801 46.70389938354492 -6.513882637023926 C 51.29082107543945 -5.690432548522949 53.50014877319336 -2.744347095489502 53.06835174560547 7.07702112197876"/>
    <path stroke-width="0" fill="rgb(102, 108, 132)" opacity="0.11588307" stroke="rgb(0, 0, 0)" stroke-opacity="0.0" stroke-linecap="round" stroke-linejoin="round" d="M 49.678104400634766 13.920065879821777 C 48.060848236083984 11.233870506286621 48.24066925048828 16.44194793701172 49.67512893676758 18.539506912231445 C 48.92995834350586 22.654781341552734 51.00224304199219 17.28375244140625 51.1403923034668 13.139503479003906 C 46.20874786376953 11.201396942138672 50.04011154174805 13.41458797454834 54.90583801269531 12.154180526733398 C 50.60952377319336 11.614665031433105 54.65857696533203 12.68612003326416 49.678104400634766 13.920065879821777"/>
    <path stroke-width="0" fill="rgb(104, 96, 181)" opacity="0.048182998" stroke="rgb(0, 0, 0)" stroke-opacity="0.0" stroke-linecap="round" stroke-linejoin="round" d="M 183.7781219482422 2.263726234436035 C 182.911376953125 5.699618339538574 184.50601196289062 15.465788841247559 182.99986267089844 17.38655662536621 C 172.46249389648438 18.495939254760742 176.7266082763672 14.514437675476074 175.39822387695312 4.477417469024658 C 173.73239135742188 -0.6959672570228577 175.2768096923828 -3.2333567142486572 179.02395629882812 -4.059559345245361 C 184.3265380859375 -1.7000805139541626 187.81468200683594 1.8305445909500122 183.7781219482422 2.263726234436035"/>
    <path stroke-width="0" fill="rgb(83, 126, 107)" opacity="0.3362083" stroke="rgb(0, 0, 0)" stroke-opacity="0.0" stroke-linecap="round" stroke-linejoin="round" d="M 54.08443069458008 165.7824249267578 C 57.590911865234375 167.10923767089844 51.3494873046875 166.98988342285156 52.87845993041992 169.1818389892578 C 51.32130432128906 172.8183135986328 50.50190734863281 169.8808135986328 51.531131744384766 169.89163208007812 C 53.73177719116211 169.39686584472656 58.74872970581055 165.91529846191406 56.79684829711914 164.63552856445312 C 55.257904052734375 168.9237060546875 58.84159469604492 165.64947509765625 54.08443069458008 165.7824249267578"/>
    <path stroke-width="0" fill="rgb(338, 229, 187)" opacity="0.14682977" stroke="rgb(0, 0, 0)" stroke-opacity="0.0" stroke-linecap="round" stroke-linejoin="round" d="M 296.4591064453125 265.0794982910156 C 293.1341247558594 275.24932861328125 282.526123046875 273.1761474609375 274.8392333984375 280.67059326171875 C 271.61883544921875 269.509521484375 269.46905517578125 265.2322082519531 263.2083435058594 254.65310668945312 C 264.6404113769531 254.8273468017578 269.004638671875 252.52801513671875 276.52252197265625 238.29505920410156 C 291.19189453125 243.61244201660156 297.3836364746094 245.24676513671875 296.4591064453125 265.0794982910156"/>
    <path stroke-width="0" fill="rgb(146, 64, 164)" opacity="0.34110522" stroke="rgb(0, 0, 0)" stroke-opacity="0.0" stroke-linecap="round" stroke-linejoin="round" d="M 5.827796936035156 -6.838133335113525 C 3.188227891921997 -3.236579179763794 3.861823797225952 3.553189516067505 0.32847198843955994 4.3681464195251465 C -3.1464462280273438 6.405099391937256 -4.298440456390381 6.296336650848389 -4.065714359283447 2.4018733501434326 C -1.9186784029006958 -3.2245965003967285 1.0095248222351074 -6.152799606323242 5.00985050201416 -7.224699974060059 C 9.028139114379883 -6.159226417541504 12.133110046386719 -3.3291306495666504 5.827796936035156 -6.838133335113525"/>
    <path stroke-width="0" fill="rgb(71, 26, 230)" opacity="0.6658063" stroke="rgb(0, 0, 0)" stroke-opacity="0.0" stroke-linecap="round" stroke-linejoin="round" d="M 36.58120346069336 -23.064172744750977 C 35.50940704345703 -19.064172744750977 32.58120346069336 -16.135969161987305 28.581205368041992 -15.064173698425293 C 24.581205368041992 -16.135969161987305 21.65300178527832 -19.064172744750977 20.581205368041992 -23.064172744750977 C 21.65300178527832 -27.064172744750977 24.581205368041992 -29.99237632751465 28.581205368041992 -31.064172744750977 C 32.58120346069336 -29.99237632751465 35.50940704345703 -27.064172744750977 36.58120346069336 -23.064172744750977"/>
    <path stroke-width="0" fill="rgb(264, 217, 54)" opacity="0.12752655" stroke="rgb(0, 0, 0)" stroke-opacity="0.0" stroke-linecap="round" stroke-linejoin="round" d="M 211.9290771484375 165.9486083984375 C 216.17396545410156 173.87673950195312 214.9311065673828 175.47320556640625 209.01809692382812 169.56002807617188 C 201.59568786621094 166.34922790527344 197.7951202392578 162.06707763671875 198.0555877685547 163.53253173828125 C 203.00033569335938 162.43392944335938 207.53390502929688 158.1412353515625 212.44308471679688 158.6250457763672 C 202.30882263183594 153.72952270507812 212.2326202392578 154.27627563476562 211.9290771484375 165.9486083984375"/>
    <path stroke-width="0" fill="rgb(48, 143, 133)" opacity="0.35980248" stroke="rgb(0, 0, 0)" stroke-opacity="0.0" stroke-linecap="round" stroke-linejoin="round" d="M 86.55892181396484 465.7865905761719 C 90.72330474853516 476.90924072265625 92.49966430664062 479.31201171875 83.97395324707031 482.3411865234375 C 83.24008178710938 475.8374938964844 78.05999755859375 472.304443359375 80.79021453857422 469.39739990234375 C 78.70204162597656 469.82452392578125 81.29363250732422 466.2063903808594 79.33678436279297 471.9622497558594 C 90.27374267578125 471.1210021972656 94.21455383300781 468.2998352050781 86.55892181396484 465.7865905761719"/>
    <path stroke-width="0" fill="rgb(225, 101, 101)" opacity="0.11466478" stroke="rgb(0, 0, 0)" stroke-opacity="0.0" stroke-linecap="round" stroke-linejoin="round" d="M 433.66302490234375 403.2354431152344 C 431.31787109375 406.417236328125 433.2326965332031 417.592529296875 433.7142028808594 413.0923156738281 C 428.1324462890625 409.8584899902344 423.310302734375 408.95062255859375 413.36810302734375 402.0948486328125 C 417.9427795410156 395.8425598144531 426.0619812011719 400.9728088378906 428.5539855957031 400.8360290527344 C 433.3975524902344 403.56146240234375 435.40081787109375 407.46368408203125 433.66302490234375 403.2354431152344"/>
    <path stroke-width="0" fill="rgb(69, 125, 111)" opacity="0.016695995" stroke="rgb(0, 0, 0)" stroke-opacity="0.0" stroke-linecap="round" stroke-linejoin="round" d="M 51.50201416015625 204.22804260253906 C 51.40142822265625 208.5078887939453 48.21797180175781 211.72311401367188 46.382320404052734 213.7593536376953 C 44.161766052246094 212.2073516845703 39.94178009033203 209.40451049804688 39.103309631347656 208.463623046875 C 39.57987594604492 203.66213989257812 42.29922103881836 200.33836364746094 44.60808563232422 201.0874786376953 C 49.205909729003906 200.59274291992188 52.92629623413086 203.76925659179688 51.50201416015625 204.22804260253906"/>
    <path stroke-width="0" fill="rgb(108, 85, 171)" opacity="0.4382102" stroke="rgb(0, 0, 0)" stroke-opacity="0.0" stroke-linecap="round" stroke-linejoin="round" d="M 36.30270767211914 397.732666015625 C 31.92236328125 397.3688049316406 25.021465301513672 397.1741943359375 21.759323120117188 397.63336181640625 C 22.22242546081543 399.5192565917969 20.31916618347168 397.76104736328125 23.177833557128906 399.32940673828125 C 26.882009506225586 397.1663513183594 25.442899703979492 393.4356994628906 29.186586380004883 392.888427734375 C 24.178422927856445 398.2167663574219 29.88095474243164 397.2538757324219 36.30270767211914 397.732666015625"/>
    <path stroke-width="0" fill="rgb(94, 98, 147)" opacity="0.17277512" stroke="rgb(0, 0, 0)" stroke-opacity="0.0" stroke-linecap="round" stroke-linejoin="round" d="M 383.7815246582031 161.39276123046875 C 379.9042053222656 162.32444763183594 378.87786865234375 166.6898956298828 375.406494140625 162.69944763183594 C 376.29449462890625 168.3461151123047 374.3235778808594 163.2671661376953 375.3798522949219 162.12567138671875 C 377.8352966308594 164.63479614257812 383.7890625 163.16757202148438 379.4344787597656 165.34164428710938 C 384.0522766113281 167.37254333496094 389.5151672363281 163.92100524902344 383.7815246582031 161.39276123046875"/>
    <path stroke-width="0" fill="rgb(76, 51, 100)" opacity="-0.038593747" stroke="rgb(0, 0, 0)" stroke-opacity="0.0" stroke-linecap="round" stroke-linejoin="round" d="M 486.6953430175781 79.70075225830078 C 479.9278564453125 79.71155548095703 478.5552062988281 85.286376953125 476.0246887207031 87.88923645019531 C 467.03448486328125 84.54447937011719 465.01568603515625 83.32427215576172 470.0906982421875 77.74542999267578 C 470.13665771484375 68.99053192138672 471.38848876953125 69.04768371582031 472.9325866699219 70.81568908691406 C 481.0458068847656 69.73052215576172 482.98297119140625 71.75897216796875 486.6953430175781 79.70075225830078"/>
    <path stroke-width="0" fill="rgb(-18, 196, 136)" opacity="0.07381701" stroke="rgb(0, 0, 0)" stroke-opacity="0.0" stroke-linecap="round" stroke-linejoin="round" d="M 5.711916446685791 1.9515117406845093 C 4.955278396606445 3.5784411430358887 -1.664872169494629 3.8694698810577393 -6.694680213928223 4.9753851890563965 C -5.742618560791016 9.031791687011719 -8.670821189880371 6.103588104248047 -9.742618560791016 2.103588104248047 C -8.670821189880371 -1.8964120149612427 -5.742618560791016 -4.824615001678467 -1.9547239542007446 -5.747433185577393 C 1.187086582183838 -3.9552226066589355 3.454664468765259 -0.42216956615448 5.711916446685791 1.9515117406845093"/>
    <path stroke-width="0" fill="rgb(2, 64, 104)" opacity="0.0018582732" stroke="rgb(0, 0, 0)" stroke-opacity="0.0" stroke-linecap="round" stroke-linejoin="round" d="M 260.7291259765625 164.29800415039062 C 251.96812438964844 165.98446655273438 249.47406005859375 167.16883850097656 253.4415740966797 164.9379119873047 C 245.81483459472656 167.74606323242188 244.98788452148438 161.27230834960938 238.64224243164062 162.3062286376953 C 244.5549774169922 165.262451171875 243.739013671875 162.68556213378906 243.23648071289062 163.00592041015625 C 244.4611358642578 163.94772338867188 249.88746643066406 167.01565551757812 260.7291259765625 164.29800415039062"/>
    <path stroke-width="0" fill="rgb(60, 120, 129)" opacity="0.30376476" stroke="rgb(0, 0, 0)" stroke-opacity="0.0" stroke-linecap="round" stroke-linejoin="round" d="M 137.5689239501953 50.68689727783203 C 141.26351928710938 53.05530548095703 136.63278198242188 55.774173736572266 134.70947265625 60.22312927246094 C 126.94913482666016 61.57275390625 121.62841033935547 55.532310485839844 127.42525482177734 52.59382629394531 C 125.63080596923828 42.54136657714844 124.2925033569336 42.3479118347168 124.86624145507812 48.027042388916016 C 130.832275390625 45.58481216430664 132.16070556640625 47.53172302246094 137.5689239501953 50.68689727783203"/>
    <path stroke-width="0" fill="rgb(91, 138, 216)" opacity="0.17043976" stroke="rgb(0, 0, 0)" stroke-opacity="0.0" stroke-linecap="round" stroke-linejoin="round" d="M 169.97752380371094 123.17860412597656 C 181.58880615234375 136.19906616210938 178.57289123535156 129.3200225830078 161.8652801513672 131.78492736816406 C 161.34820556640625 129.0909881591797 157.8091583251953 126.61141204833984 161.470458984375 117.23292541503906 C 162.91525268554688 114.5653305053711 164.36062622070312 118.87354278564453 163.1947021484375 118.5523452758789 C 169.17501831054688 119.5524673461914 182.42994689941406 119.49579620361328 169.97752380371094 123.17860412597656"/>
    <path stroke-width="0" fill="rgb(11, 79, 33)" opacity="0.0144198155" stroke="rgb(0, 0, 0)" stroke-opacity="0.0" stroke-linecap="round" stroke-linejoin="round" d="M 179.73760986328125 269.4903869628906 C 183.91810607910156 278.49261474609375 186.5447540283203 277.86474609375 179.29351806640625 272.1257629394531 C 178.18519592285156 279.2616882324219 181.62796020507812 275.4586181640625 174.634765625 272.33746337890625 C 171.22938537597656 266.1474609375 177.76510620117188 268.063232421875 181.10374450683594 271.6463928222656 C 177.26956176757812 274.0152587890625 179.343017578125 271.2732849121094 179.73760986328125 269.4903869628906"/>
    <path stroke-width="0" fill="rgb(53, 154, 94)" opacity="0.07041197" stroke="rgb(0, 0, 0)" stroke-opacity="0.0" stroke-linecap="round" stroke-linejoin="round" d="M 150.30938720703125 67.93330383300781 C 155.95794677734375 75.85458374023438 152.6141357421875 74.7672348022461 143.2196807861328 73.510009765625 C 145.053466796875 74.97705078125 142.43125915527344 74.27146911621094 149.20822143554688 75.36250305175781 C 146.16195678710938 65.5105209350586 146.587890625 59.71028137207031 145.17782592773438 66.92704010009766 C 150.51956176757812 70.14750671386719 154.74559020996094 66.82574462890625 150.30938720703125 67.93330383300781"/>
    <path stroke-width="0" fill="rgb(60, 118, 122)" opacity="0.25301546" stroke="rgb(0, 0, 0)" stroke-opacity="0.0" stroke-linecap="round" stroke-linejoin="round" d="M 89.28713989257812 65.94084167480469 C 92.76070404052734 64.89712524414062 90.12545013427734 65.68380737304688 86.5665283203125 65.33332824707031 C 83.42058563232422 69.07925415039062 81.06095886230469 64.47901916503906 82.19466400146484 60.49656677246094 C 85.26155853271484 61.15497589111328 83.69786071777344 60.188968658447266 81.08553314208984 55.503265380859375 C 90.70848083496094 54.260623931884766 89.80918884277344 56.534088134765625 89.28713989257812 65.94084167480469"/>
    <path stroke-width="0" fill="rgb(100, -38, 53)" opacity="0.05375587" stroke="rgb(0, 0, 0)" stroke-opacity="0.0" stroke-linecap="round" stroke-linejoin="round" d="M 321.23919677734375 201.221435546875 C 318.297119140625 207.53958129882812 314.1546936035156 208.55496215820312 315.3546142578125 208.4932403564453 C 318.23626708984375 208.03298950195312 311.8487243652344 206.4501953125 297.4104919433594 203.05303955078125 C 309.260009765625 201.88653564453125 316.31939697265625 201.25172424316406 320.146484375 199.14048767089844 C 316.1124572753906 206.88961791992188 316.3722229003906 206.97994995117188 321.23919677734375 201.221435546875"/>
    <path stroke-width="0" fill="rgb(76, 152, 152)" opacity="0.32307494" stroke="rgb(0, 0, 0)" stroke-opacity="0.0" stroke-linecap="round" stroke-linejoin="round" d="M -0.5634749531745911 -1.4716886281967163 C -1.299043893814087 3.7465972900390625 -3.907158136367798 6.890750885009766 -7.558994770050049 8.23403263092041 C -11.236661911010742 7.442933082580566 -14.164864540100098 4.514729976654053 -15.236661911010742 0.5147300362586975 C -14.164864540100098 -3.4852700233459473 -11.236661911010742 -6.413473129272461 -7.220800876617432 -7.493269443511963 C -2.842195510864258 -6.631806373596191 0.6921449899673462 -4.431804656982422 -0.5634749531745911 -1.4716886281967163"/>
    <path stroke-width="0" fill="rgb(84, 0, 182)" opacity="-0.1816014" stroke="rgb(0, 0, 0)" stroke-opacity="0.0" stroke-linecap="round" stroke-linejoin="round" d="M 280.2049865722656 386.20159912109375 C 289.2737731933594 394.2765808105469 288.89654541015625 403.451171875 269.95831298828125 398.36907958984375 C 268.4377746582031 386.0359802246094 265.73712158203125 385.809326171875 261.1822814941406 388.1175842285156 C 272.6475830078125 385.3690185546875 277.3358459472656 382.5904235839844 274.3505554199219 380.5172424316406 C 273.1488037109375 378.22222900390625 275.9920349121094 382.9534606933594 280.2049865722656 386.20159912109375"/>
    <path stroke-width="0" fill="rgb(113, 135, 180)" opacity="0.006001012" stroke="rgb(0, 0, 0)" stroke-opacity="0.0" stroke-linecap="round" stroke-linejoin="round" d="M 74.25981140136719 78.42778778076172 C 75.86600494384766 84.1957015991211 73.59319305419922 85.25376892089844 78.4331283569336 88.49229431152344 C 73.94448852539062 91.3928451538086 67.45623016357422 87.71577453613281 66.61872100830078 84.72750854492188 C 76.4189224243164 87.419677734375 77.17021942138672 81.28271484375 78.27791595458984 79.40404510498047 C 83.42435455322266 80.18501281738281 80.4422607421875 78.30261993408203 74.25981140136719 78.42778778076172"/>
    <path stroke-width="0" fill="rgb(166, 88, 119)" opacity="0.204288" stroke="rgb(0, 0, 0)" stroke-opacity="0.0" stroke-linecap="round" stroke-linejoin="round" d="M 401.6621398925781 483.4989929199219 C 398.210205078125 482.94671630859375 400.1752014160156 484.956787109375 396.775390625 487.4721374511719 C 395.4597473144531 486.3054504394531 392.0791015625 486.50604248046875 389.5367431640625 487.0493469238281 C 392.294677734375 484.88348388671875 397.1405029296875 483.83038330078125 392.6387634277344 488.2490539550781 C 395.321044921875 485.1572570800781 401.0217590332031 486.2870788574219 401.6621398925781 483.4989929199219"/>
    <path stroke-width="0" fill="rgb(145, 132, 138)" opacity="0.027036125" stroke="rgb(0, 0, 0)" stroke-opacity="0.0" stroke-linecap="round" stroke-linejoin="round" d="M 259.1253662109375 21.72822380065918 C 256.92138671875 23.066795349121094 253.2456817626953 25.259777069091797 252.01852416992188 30.815752029418945 C 246.88394165039062 25.29519271850586 244.12571716308594 24.154672622680664 242.64498901367188 13.32302188873291 C 247.5646209716797 16.348731994628906 249.78456115722656 14.934738159179688 247.51890563964844 15.18749713897705 C 252.37265014648438 14.471081733703613 254.6767120361328 16.604665756225586 259.1253662109375 21.72822380065918"/>
    <path stroke-width="0" fill="rgb(127, 106, 153)" opacity="0.004700452" stroke="rgb(0, 0, 0)" stroke-opacity="0.0" stroke-linecap="round" stroke-linejoin="round" d="M 26.455724716186523 22.807634353637695 C 25.699129104614258 30.316797256469727 29.063501358032227 31.518957138061523 26.917606353759766 27.37285041809082 C 20.036094665527344 27.99605369567871 22.19978904724121 28.888792037963867 22.25448989868164 20.747724533081055 C 21.094942092895508 28.49495506286621 24.515871047973633 24.982311248779297 24.492950439453125 13.68011474609375 C 30.269268035888672 21.531009674072266 37.47759246826172 20.710285186767578 26.455724716186523 22.807634353637695"/>
    <path stroke-width="0" fill="rgb(115, 198, 48)" opacity="0.037298433" stroke="rgb(0, 0, 0)" stroke-opacity="0.0" stroke-linecap="round" stroke-linejoin="round" d="M 371.1671142578125 244.5650634765625 C 369.3854675292969 253.33401489257812 374.5841979980469 258.95025634765625 370.5870056152344 254.44703674316406 C 366.72369384765625 256.069091796875 365.6830139160156 250.99832153320312 364.71405029296875 243.0359649658203 C 374.1874084472656 248.08853149414062 373.90020751953125 248.60714721679688 370.83892822265625 249.18380737304688 C 370.4627685546875 249.1890411376953 371.2515563964844 249.44015502929688 371.1671142578125 244.5650634765625"/>
    <path stroke-width="0" fill="rgb(66, 128, 211)" opacity="0.041498646" stroke="rgb(0, 0, 0)" stroke-opacity="0.0" stroke-linecap="round" stroke-linejoin="round" d="M 60.561370849609375 250.4683074951172 C 58.13344192504883 252.6492919921875 55.67805099487305 256.29998779296875 53.10235595703125 257.9535217285156 C 47.036781311035156 254.54666137695312 42.4814338684082 253.73233032226562 41.58017349243164 250.49566650390625 C 45.3996467590332 245.04136657714844 49.090606689453125 241.17959594726562 51.61137008666992 238.05450439453125 C 55.127994537353516 241.7902069091797 55.28450393676758 247.3087158203125 60.561370849609375 250.4683074951172"/>
    <path stroke-width="0" fill="rgb(80, 108, 144)" opacity="0.2467397" stroke="rgb(0, 0, 0)" stroke-opacity="0.0" stroke-linecap="round" stroke-linejoin="round" d="M 30.631792068481445 302.3525390625 C 26.673709869384766 302.71954345703125 24.889751434326172 312.3412170410156 21.47444725036621 310.16680908203125 C 21.754186630249023 310.8455505371094 22.323368072509766 305.1334533691406 18.729623794555664 306.0037536621094 C 22.177213668823242 307.4923095703125 26.380027770996094 299.8739318847656 21.233516693115234 299.6890563964844 C 25.72990608215332 301.5514831542969 31.830228805541992 299.1101989746094 30.631792068481445 302.3525390625"/>
    <path stroke-width="0" fill="rgb(55, 129, 132)" opacity="0.19480062" stroke="rgb(0, 0, 0)" stroke-opacity="0.0" stroke-linecap="round" stroke-linejoin="round" d="M 70.02338409423828 50.384422302246094 C 68.65880584716797 56.10942840576172 67.15570831298828 58.240116119384766 69.77633666992188 56.71839904785156 C 63.320579528808594 52.29880905151367 59.28636932373047 49.991912841796875 58.96564483642578 51.53295135498047 C 62.51521682739258 50.97966003417969 63.34812545776367 46.21403503417969 63.17891311645508 50.67546081542969 C 65.228271484375 45.47829055786133 71.14804077148438 49.0340690612793 70.02338409423828 50.384422302246094"/>
    <path stroke-width="0" fill="rgb(68, 45, 186)" opacity="0.058351338" stroke="rgb(0, 0, 0)" stroke-opacity="0.0" stroke-linecap="round" stroke-linejoin="round" d="M 357.64337158203125 108.62349700927734 C 356.6187744140625 114.40606689453125 355.1076965332031 117.66830444335938 349.7198181152344 117.4015121459961 C 349.4728088378906 117.2527084350586 348.12091064453125 110.32035064697266 348.75042724609375 105.24787139892578 C 348.9615478515625 102.1476821899414 347.7945861816406 99.85675811767578 350.0010986328125 104.01693725585938 C 356.5611572265625 100.48300170898438 356.8614196777344 102.91008758544922 357.64337158203125 108.62349700927734"/>
    <path stroke-width="0" fill="rgb(67, 131, 100)" opacity="0.39260802" stroke="rgb(0, 0, 0)" stroke-opacity="0.0" stroke-linecap="round" stroke-linejoin="round" d="M 492.225341796875 208.3993682861328 C 486.3536682128906 208.97984313964844 484.78717041015625 218.6821746826172 489.6081237792969 218.64093017578125 C 485.5172119140625 218.32911682128906 484.01226806640625 219.29360961914062 487.2018127441406 220.08238220214844 C 486.0979919433594 210.79031372070312 489.2242736816406 206.1663360595703 492.0323486328125 215.74278259277344 C 491.99188232421875 214.15711975097656 496.3337097167969 212.8920440673828 492.225341796875 208.3993682861328"/>
    <path stroke-width="0" fill="rgb(155, 113, 60)" opacity="0.10663244" stroke="rgb(0, 0, 0)" stroke-opacity="0.0" stroke-linecap="round" stroke-linejoin="round" d="M 410.0030212402344 125.46675872802734 C 407.6694030761719 126.91866302490234 407.93505859375 135.94895935058594 413.61712646484375 129.17208862304688 C 402.6477966308594 129.02163696289062 409.0782165527344 128.79071044921875 406.8008728027344 127.2917709350586 C 407.7799377441406 128.34661865234375 414.77667236328125 124.25885009765625 410.5923156738281 133.44862365722656 C 409.3685302734375 127.60089111328125 412.2503356933594 126.59954071044922 410.0030212402344 125.46675872802734"/>
    <path stroke-width="0" fill="rgb(193, 28, 87)" opacity="-0.18192346" stroke="rgb(0, 0, 0)" stroke-opacity="0.0" stroke-linecap="round" stroke-linejoin="round" d="M 181.52748107910156 211.5219268798828 C 180.60842895507812 207.87701416015625 176.78970336914062 213.41290283203125 177.3910675048828 227.3582763671875 C 178.54739379882812 228.8155059814453 179.886962890625 221.44912719726562 176.95701599121094 215.02964782714844 C 175.269775390625 210.4136962890625 175.89324951171875 203.89541625976562 180.73902893066406 207.51571655273438 C 186.66976928710938 207.6224822998047 185.52272033691406 210.5101318359375 181.52748107910156 211.5219268798828"/>
    <path stroke-width="0" fill="rgb(22, 144, 101)" opacity="0.062448088" stroke="rgb(0, 0, 0)" stroke-opacity="0.0" stroke-linecap="round" stroke-linejoin="round" d="M 409.0923767089844 495.23834228515625 C 415.7064208984375 492.83294677734375 409.7600402832031 490.81549072265625 400.0009460449219 488.0084533691406 C 393.8171081542969 498.43743896484375 392.94586181640625 495.5341491699219 388.2387390136719 489.15557861328125 C 394.992431640625 485.6103210449219 399.2212829589844 483.7181701660156 401.4394836425781 481.4873962402344 C 406.9037170410156 483.9716491699219 408.7391052246094 487.91046142578125 409.0923767089844 495.23834228515625"/>
  </g>
</svg>
