<?xml version="1.0" ?>
<svg xmlns="http://www.w3.org/2000/svg" version="1.1" width="512" height="512">
  <defs/>
  <g>
    <path stroke-width="0" fill="rgb(65, 110, 102)" opacity="0.98713136" stroke="rgb(139, 182, 153)" stroke-opacity="1.0" stroke-linecap="round" stroke-linejoin="round" d="M 538.9044799804688 306.6981201171875 C 578.2432250976562 717.5508422851562 523.9196166992188 607.5655517578125 409.77728271484375 560.2735595703125 C -4.815953731536865 574.9983520507812 -43.95188903808594 610.2658081054688 -51.99632263183594 372.31396484375 C -35.529502868652344 305.1559143066406 -20.042537689208984 302.2029724121094 -63.549224853515625 331.7171325683594 C 165.66461181640625 414.6550598144531 271.4918212890625 446.0567321777344 538.9044799804688 306.6981201171875"/>
    <path stroke-width="0" fill="rgb(152, 102, 120)" opacity="1.153374" stroke="rgb(108, 164, 111)" stroke-opacity="1.0" stroke-linecap="round" stroke-linejoin="round" d="M 531.5333862304688 -27.253353118896484 C 497.667236328125 128.6159210205078 518.7386474609375 204.43185424804688 367.7288513183594 229.67161560058594 C 188.3172149658203 232.88232421875 166.57667541503906 296.5582275390625 169.94854736328125 -8.617639541625977 C 210.9188232421875 -99.50502014160156 286.98626708984375 -51.62980651855469 403.1378173828125 -41.173099517822266 C 511.8313903808594 -42.366355895996094 529.109375 -45.23481750488281 531.5333862304688 -27.253353118896484"/>
    <path stroke-width="0" fill="rgb(-27, 96, 75)" opacity="0.78918844" stroke="rgb(245, 97, 201)" stroke-opacity="1.0" stroke-linecap="round" stroke-linejoin="round" d="M 185.79421997070312 174.62753295898438 C 190.2699737548828 353.9222717285156 170.15982055664062 383.8722839355469 233.2452392578125 417.46337890625 C -48.11055374145508 417.6592712402344 -52.09095001220703 403.57220458984375 -49.13465118408203 370.4389953613281 C -52.37535095214844 79.1630859375 -55.43769836425781 54.96458435058594 -14.106071472167969 -48.66883087158203 C 358.6409606933594 -47.59645462036133 343.40960693359375 -8.405292510986328 185.79421997070312 174.62753295898438"/>
    <path stroke-width="0" fill="rgb(66, 3, 39)" opacity="1.00993" stroke="rgb(144, 236, 18)" stroke-opacity="1.0" stroke-linecap="round" stroke-linejoin="round" d="M 567.5333862304688 413.81304931640625 C 628.9195556640625 460.33929443359375 658.9996337890625 465.7208251953125 293.4956970214844 420.475341796875 C 330.22320556640625 149.53038024902344 284.5781555175781 387.4275207519531 304.14849853515625 169.3382568359375 C 259.3497314453125 -81.87479400634766 338.79638671875 -53.50791549682617 483.0553283691406 -40.2060546875 C 578.5626220703125 -28.153284072875977 566.8272094726562 -10.542065620422363 567.5333862304688 413.81304931640625"/>
    <path stroke-width="0" fill="rgb(45, 6, 42)" opacity="0.9905418" stroke="rgb(5, 212, 198)" stroke-opacity="1.0" stroke-linecap="round" stroke-linejoin="round" d="M 199.24090576171875 281.7308349609375 C 172.01235961914062 277.267578125 255.2697296142578 472.8108215332031 191.79100036621094 445.0639343261719 C 211.96743774414062 296.26727294921875 -44.034095764160156 205.7594451904297 77.5318374633789 134.82049560546875 C 54.01836395263672 185.09033203125 56.13006591796875 177.7987823486328 29.906471252441406 238.25601196289062 C 107.85293579101562 242.75326538085938 228.0624542236328 174.6647186279297 199.24090576171875 281.7308349609375"/>
    <path stroke-width="0" fill="rgb(30, 9, 25)" opacity="0.96756744" stroke="rgb(249, 203, 117)" stroke-opacity="1.0" stroke-linecap="round" stroke-linejoin="round" d="M 353.3314514160156 115.15911865234375 C 345.7073669433594 188.42916870117188 298.6045837402344 155.9460906982422 247.84457397460938 176.04090881347656 C 97.94727325439453 84.98867797851562 -5.744289875030518 196.9053955078125 53.9664421081543 74.50029754638672 C 82.81666564941406 -26.14625358581543 92.29135131835938 -30.52521514892578 196.102783203125 -27.8917236328125 C 219.65037536621094 -42.79618453979492 282.9438781738281 -81.5588607788086 353.3314514160156 115.15911865234375"/>
    <path stroke-width="0" fill="rgb(58, 125, 96)" opacity="0.9881961" stroke="rgb(30, 163, 36)" stroke-opacity="1.0" stroke-linecap="round" stroke-linejoin="round" d="M 578.4916381835938 404.7875671386719 C 694.0384521484375 439.3053894042969 846.5838012695312 529.8840942382812 258.5538330078125 520.268798828125 C 446.3560791015625 198.32577514648438 288.9330139160156 302.8473205566406 326.881591796875 109.70882415771484 C 382.4948425292969 -29.178401947021484 409.5926513671875 -14.723681449890137 485.268798828125 -32.28343963623047 C 565.7853393554688 -14.515660285949707 562.3096313476562 3.841090679168701 578.4916381835938 404.7875671386719"/>
    <path stroke-width="0" fill="rgb(57, 116, 96)" opacity="0.97318494" stroke="rgb(133, 105, 67)" stroke-opacity="1.0" stroke-linecap="round" stroke-linejoin="round" d="M 123.38818359375 64.19830322265625 C 121.17008972167969 113.97223663330078 113.95647430419922 129.3851776123047 76.72547912597656 138.50343322753906 C -15.801876068115234 134.98069763183594 -26.941364288330078 131.16702270507812 -34.589080810546875 46.559776306152344 C -28.461292266845703 -17.69627571105957 -20.302188873291016 -27.176698684692383 45.98460006713867 -28.447824478149414 C 108.93428039550781 -1.4881929159164429 113.71562957763672 8.665736198425293 123.38818359375 64.19830322265625"/>
    <path stroke-width="0" fill="rgb(75, 112, 103)" opacity="0.8212038" stroke="rgb(116, 144, 4)" stroke-opacity="1.0" stroke-linecap="round" stroke-linejoin="round" d="M 110.96998596191406 55.821937561035156 C 66.21121978759766 178.80325317382812 92.28213500976562 210.18601989746094 -9.880041122436523 337.2235412597656 C -40.7213249206543 243.1691131591797 -35.085670471191406 217.4142608642578 -35.96718978881836 94.37805938720703 C -25.170988082885742 67.1040267944336 -15.565970420837402 61.22735595703125 80.95477294921875 61.49546432495117 C 120.442138671875 65.36945343017578 131.27926635742188 71.10749053955078 110.96998596191406 55.821937561035156"/>
    <path stroke-width="0" fill="rgb(63, 115, 102)" opacity="1.0045174" stroke="rgb(156, 157, 240)" stroke-opacity="1.0" stroke-linecap="round" stroke-linejoin="round" d="M 235.36886596679688 42.994537353515625 C 211.37916564941406 122.19715881347656 189.90672302246094 116.38456726074219 116.4847412109375 110.9760513305664 C 47.50054168701172 109.25403594970703 43.64380645751953 90.81959533691406 33.622398376464844 2.3670742511749268 C 32.047393798828125 -31.356170654296875 42.58375549316406 -35.89478302001953 94.07343292236328 -37.2251091003418 C 221.00274658203125 -91.22876739501953 218.37094116210938 -78.4295425415039 235.36886596679688 42.994537353515625"/>
    <path stroke-width="0" fill="rgb(60, 119, 106)" opacity="1.0126394" stroke="rgb(91, 111, 177)" stroke-opacity="1.0" stroke-linecap="round" stroke-linejoin="round" d="M 199.636962890625 131.69485473632812 C 162.35562133789062 368.3816833496094 143.3648223876953 72.46025848388672 164.52415466308594 539.08203125 C -127.01535034179688 550.3731079101562 -88.73860168457031 495.13446044921875 -26.60672950744629 436.4579162597656 C 50.6525764465332 111.53672790527344 50.985496520996094 75.419921875 333.3254089355469 68.48735046386719 C 273.628173828125 27.840946197509766 269.87701416015625 193.8090057373047 199.636962890625 131.69485473632812"/>
    <path stroke-width="0" fill="rgb(61, 123, 100)" opacity="0.9804762" stroke="rgb(170, 171, 53)" stroke-opacity="1.0" stroke-linecap="round" stroke-linejoin="round" d="M 523.0943603515625 -0.6012512445449829 C 496.1415710449219 120.78851318359375 599.0313720703125 165.71531677246094 269.987060546875 237.4550323486328 C 405.5126037597656 176.25784301757812 259.4426574707031 156.96316528320312 204.72039794921875 -23.613203048706055 C 304.89898681640625 -86.0112533569336 335.77398681640625 -53.68967056274414 387.0159606933594 -45.11587142944336 C 518.9805908203125 -42.30170822143555 528.1303100585938 -37.58413314819336 523.0943603515625 -0.6012512445449829"/>
    <path stroke-width="0" fill="rgb(99, 97, 129)" opacity="0.9006879" stroke="rgb(80, 92, 145)" stroke-opacity="1.0" stroke-linecap="round" stroke-linejoin="round" d="M 416.8483581542969 -3.0444931983947754 C 428.9613037109375 172.7660675048828 278.494873046875 53.89218521118164 284.08795166015625 57.752506256103516 C 106.6546401977539 54.62530517578125 174.0560302734375 96.17859649658203 148.50076293945312 -25.74323081970215 C 154.8877716064453 -31.89655303955078 169.101806640625 -29.487001419067383 216.2349853515625 -28.543506622314453 C 271.21038818359375 -37.61959457397461 283.8244323730469 -37.228580474853516 416.8483581542969 -3.0444931983947754"/>
    <path stroke-width="0" fill="rgb(116, 105, 95)" opacity="0.5962967" stroke="rgb(252, 26, 53)" stroke-opacity="1.0" stroke-linecap="round" stroke-linejoin="round" d="M 233.4011688232422 75.200927734375 C 229.40029907226562 87.8780288696289 218.0558624267578 92.14347076416016 200.80812072753906 94.24695587158203 C 149.2528076171875 95.79386138916016 154.32522583007812 87.40483093261719 140.4471893310547 24.434492111206055 C 138.8241424560547 12.570199966430664 141.9170684814453 0.5272854566574097 152.5503387451172 -9.047306060791016 C 206.91790771484375 46.53994369506836 236.98977661132812 -0.3365030884742737 233.4011688232422 75.200927734375"/>
    <path stroke-width="0" fill="rgb(66, 117, 99)" opacity="1.0456425" stroke="rgb(166, 64, 118)" stroke-opacity="1.0" stroke-linecap="round" stroke-linejoin="round" d="M 241.81362915039062 58.060970306396484 C 188.23326110839844 55.24896240234375 222.79530334472656 79.03007507324219 223.24282836914062 100.1239013671875 C 198.60655212402344 13.491593360900879 147.17616271972656 147.48558044433594 130.40185546875 4.647169589996338 C 136.47103881835938 -13.522405624389648 141.18849182128906 -23.388755798339844 149.3406219482422 -27.950674057006836 C 321.6003723144531 -21.718189239501953 268.9574279785156 0.009259550832211971 241.81362915039062 58.060970306396484"/>
    <path stroke-width="0" fill="rgb(239, 217, 209)" opacity="0.81762403" stroke="rgb(40, 28, 167)" stroke-opacity="1.0" stroke-linecap="round" stroke-linejoin="round" d="M 297.7364196777344 216.86329650878906 C 241.4654083251953 212.09930419921875 269.319580078125 245.4431915283203 306.5494384765625 219.39466857910156 C 301.2747802734375 211.10098266601562 260.4644775390625 216.20306396484375 275.39215087890625 229.22525024414062 C 216.5719451904297 232.57095336914062 298.07073974609375 192.18264770507812 238.44508361816406 190.40113830566406 C 287.27020263671875 123.99982452392578 333.4693298339844 200.27011108398438 297.7364196777344 216.86329650878906"/>
    <path stroke-width="0" fill="rgb(255, 242, 258)" opacity="1.0417376" stroke="rgb(50, 94, 209)" stroke-opacity="1.0" stroke-linecap="round" stroke-linejoin="round" d="M 290.14190673828125 205.67709350585938 C 308.8611145019531 161.8293914794922 336.54901123046875 195.4006805419922 240.87664794921875 237.55548095703125 C 286.2906494140625 109.25625610351562 201.57618713378906 312.1303405761719 185.61300659179688 181.7595672607422 C 288.3013000488281 182.7418670654297 280.7610168457031 130.9425506591797 308.0984802246094 166.44830322265625 C 285.69781494140625 177.3761444091797 279.3246154785156 202.80126953125 290.14190673828125 205.67709350585938"/>
    <path stroke-width="0" fill="rgb(-19, 48, -9)" opacity="0.940789" stroke="rgb(213, 24, 248)" stroke-opacity="1.0" stroke-linecap="round" stroke-linejoin="round" d="M 299.2141418457031 185.7283477783203 C 312.8328857421875 181.6657257080078 319.20025634765625 194.3119354248047 303.56463623046875 185.82554626464844 C 317.45819091796875 181.72898864746094 272.4506530761719 159.25665283203125 263.0029296875 191.84205627441406 C 278.6892395019531 210.5348663330078 296.391845703125 188.70709228515625 310.9916076660156 184.16448974609375 C 278.99530029296875 176.50132751464844 302.55853271484375 198.25640869140625 299.2141418457031 185.7283477783203"/>
    <path stroke-width="0" fill="rgb(50, 7, 46)" opacity="0.93668646" stroke="rgb(249, 154, 188)" stroke-opacity="1.0" stroke-linecap="round" stroke-linejoin="round" d="M 358.5779113769531 417.9269104003906 C 329.3528747558594 416.0436706542969 398.8283996582031 399.8172302246094 200.20550537109375 442.50628662109375 C 175.356689453125 382.5368347167969 86.22734832763672 399.7493591308594 326.7441711425781 396.0809631347656 C 371.95068359375 422.2919006347656 355.50872802734375 420.73944091796875 357.7888488769531 397.3775939941406 C 305.51483154296875 402.5078430175781 288.1415100097656 380.5896911621094 358.5779113769531 417.9269104003906"/>
    <path stroke-width="0" fill="rgb(206, 207, 250)" opacity="0.76122326" stroke="rgb(72, 30, 75)" stroke-opacity="1.0" stroke-linecap="round" stroke-linejoin="round" d="M 315.51068115234375 418.9239196777344 C 323.8423156738281 460.1916198730469 285.15887451171875 424.1063232421875 255.21827697753906 427.9754333496094 C 249.53146362304688 427.9398193359375 253.8320770263672 412.96978759765625 250.99378967285156 398.65252685546875 C 256.88262939453125 393.0796203613281 251.4340057373047 422.5866394042969 254.14056396484375 421.5376892089844 C 248.7291259765625 416.60552978515625 249.05996704101562 421.2226867675781 315.51068115234375 418.9239196777344"/>
    <path stroke-width="0" fill="rgb(260, 160, -78)" opacity="0.99555904" stroke="rgb(81, 105, 16)" stroke-opacity="1.0" stroke-linecap="round" stroke-linejoin="round" d="M 270.22076416015625 385.57781982421875 C 308.7763977050781 385.2373352050781 270.402587890625 433.4122619628906 273.1633605957031 416.79638671875 C 199.84466552734375 414.06768798828125 229.52874755859375 424.4432373046875 220.42599487304688 383.589111328125 C 224.7811737060547 392.99896240234375 244.45541381835938 369.36083984375 237.4740753173828 412.5265808105469 C 231.46697998046875 378.50775146484375 268.6042175292969 408.6044616699219 270.22076416015625 385.57781982421875"/>
    <path stroke-width="0" fill="rgb(138, 67, 37)" opacity="1.0457836" stroke="rgb(144, 67, 133)" stroke-opacity="1.0" stroke-linecap="round" stroke-linejoin="round" d="M 290.59478759765625 195.15081787109375 C 275.3919372558594 149.05667114257812 245.6031036376953 218.11538696289062 302.2818603515625 186.8770751953125 C 287.6208190917969 206.7999725341797 271.4562683105469 212.65780639648438 261.7619323730469 191.52444458007812 C 257.128173828125 168.3582000732422 290.2241516113281 158.32379150390625 289.75543212890625 179.16078186035156 C 313.68572998046875 180.46726989746094 299.7073669433594 185.46441650390625 290.59478759765625 195.15081787109375"/>
    <path stroke-width="0" fill="rgb(269, 261, 255)" opacity="0.9728993" stroke="rgb(33, 182, 73)" stroke-opacity="1.0" stroke-linecap="round" stroke-linejoin="round" d="M 316.0325012207031 182.65969848632812 C 319.3078308105469 188.45521545410156 310.9684143066406 236.23760986328125 262.0521240234375 229.94552612304688 C 274.9427490234375 206.98370361328125 296.7214050292969 217.13255310058594 296.6512451171875 220.90188598632812 C 279.3329772949219 220.08087158203125 308.1231994628906 198.53782653808594 289.04510498046875 152.69264221191406 C 311.1842346191406 148.6040496826172 318.83746337890625 189.66220092773438 316.0325012207031 182.65969848632812"/>
    <path stroke-width="0" fill="rgb(268, 225, 216)" opacity="0.94734895" stroke="rgb(149, 5, 211)" stroke-opacity="1.0" stroke-linecap="round" stroke-linejoin="round" d="M 509.2002258300781 491.6271057128906 C 472.2537841796875 470.74542236328125 414.5343322753906 438.85516357421875 545.5056762695312 510.8883972167969 C 428.6050720214844 419.78106689453125 424.14483642578125 402.3572692871094 399.94921875 384.34906005859375 C 371.5710144042969 352.3206481933594 307.2805480957031 272.214599609375 356.47406005859375 343.0172119140625 C 427.77032470703125 419.8262634277344 435.7887268066406 428.4402160644531 509.2002258300781 491.6271057128906"/>
    <path stroke-width="0" fill="rgb(30, 8, 34)" opacity="0.92847896" stroke="rgb(172, 68, 187)" stroke-opacity="1.0" stroke-linecap="round" stroke-linejoin="round" d="M 285.5093688964844 392.9105529785156 C 278.3717346191406 458.4366455078125 338.5833740234375 372.1357727050781 312.5933532714844 438.0788879394531 C 303.90216064453125 444.6601257324219 286.3541564941406 423.7371520996094 300.87823486328125 436.8534240722656 C 299.7679138183594 448.4974060058594 291.1631164550781 341.20306396484375 311.99505615234375 400.1322326660156 C 427.1182556152344 393.7703552246094 280.40118408203125 417.2284240722656 285.5093688964844 392.9105529785156"/>
    <path stroke-width="0" fill="rgb(58, 123, 104)" opacity="1.0023528" stroke="rgb(63, 146, 150)" stroke-opacity="1.0" stroke-linecap="round" stroke-linejoin="round" d="M 495.57769775390625 -3.672600507736206 C 184.7706298828125 153.92617797851562 385.6170959472656 156.3335418701172 225.4295654296875 135.8896026611328 C 155.07444763183594 51.300594329833984 218.75564575195312 385.0308837890625 -18.433279037475586 489.2442626953125 C -42.11740493774414 29.85746192932129 161.86129760742188 75.58566284179688 126.03606414794922 53.350685119628906 C 277.9761047363281 58.23847961425781 297.03594970703125 87.77627563476562 495.57769775390625 -3.672600507736206"/>
    <path stroke-width="0" fill="rgb(42, 19, 4)" opacity="1.0362095" stroke="rgb(56, 242, 114)" stroke-opacity="1.0" stroke-linecap="round" stroke-linejoin="round" d="M 222.19874572753906 173.5313262939453 C 244.01165771484375 160.77529907226562 246.02578735351562 202.2437286376953 230.6129913330078 204.53684997558594 C 206.2417449951172 215.76885986328125 189.81134033203125 165.60726928710938 233.36410522460938 168.1686553955078 C 240.08128356933594 181.39707946777344 219.12110900878906 175.45823669433594 231.7012176513672 173.486572265625 C 184.8654327392578 182.58279418945312 243.8241424560547 162.03335571289062 222.19874572753906 173.5313262939453"/>
    <path stroke-width="0" fill="rgb(269, 244, 192)" opacity="0.965301" stroke="rgb(224, 148, 224)" stroke-opacity="1.0" stroke-linecap="round" stroke-linejoin="round" d="M 84.82785034179688 423.0743103027344 C 76.80477905273438 425.1398010253906 78.05816650390625 429.28436279296875 64.08247375488281 433.79254150390625 C 81.42786407470703 430.9653625488281 81.02580261230469 411.5985412597656 44.082923889160156 458.3929443359375 C 48.17981719970703 446.7132263183594 133.51080322265625 387.5851745605469 176.9968719482422 303.3844299316406 C 74.74203491210938 444.091064453125 43.8290901184082 434.0230407714844 84.82785034179688 423.0743103027344"/>
    <path stroke-width="0" fill="rgb(267, 241, -56)" opacity="1.1482049" stroke="rgb(184, 127, 243)" stroke-opacity="1.0" stroke-linecap="round" stroke-linejoin="round" d="M 266.85888671875 211.08169555664062 C 271.8647766113281 210.42271423339844 320.082275390625 180.42298889160156 266.47845458984375 173.5613250732422 C 302.5470886230469 165.26141357421875 291.7372131347656 189.65142822265625 269.4247741699219 220.2703399658203 C 299.5433654785156 216.78334045410156 297.6181640625 213.73336791992188 279.338134765625 217.36065673828125 C 258.5971374511719 211.4139862060547 278.93878173828125 241.90028381347656 266.85888671875 211.08169555664062"/>
    <path stroke-width="0" fill="rgb(264, 251, 268)" opacity="1.0375253" stroke="rgb(108, 154, 4)" stroke-opacity="1.0" stroke-linecap="round" stroke-linejoin="round" d="M 260.23590087890625 177.4082489013672 C 226.91209411621094 186.87451171875 230.4905242919922 142.91091918945312 200.94651794433594 187.9591064453125 C 192.50485229492188 251.24935913085938 169.98513793945312 166.5507049560547 204.40673828125 153.5958709716797 C 202.37503051757812 138.08975219726562 205.5254364013672 151.97076416015625 206.19923400878906 137.35842895507812 C 197.9304962158203 138.32041931152344 205.17483520507812 156.35269165039062 260.23590087890625 177.4082489013672"/>
    <path stroke-width="0" fill="rgb(13, -9, 22)" opacity="0.8205819" stroke="rgb(168, 73, 157)" stroke-opacity="1.0" stroke-linecap="round" stroke-linejoin="round" d="M 188.81451416015625 219.64974975585938 C 190.74485778808594 227.51344299316406 188.46237182617188 213.73292541503906 190.35768127441406 217.69924926757812 C 234.26483154296875 260.4154968261719 271.9698791503906 221.73545837402344 251.82632446289062 225.5839385986328 C 196.93209838867188 238.4361114501953 183.4477996826172 208.47482299804688 182.1920623779297 170.7369384765625 C 171.7291717529297 219.54957580566406 203.4691925048828 223.16661071777344 188.81451416015625 219.64974975585938"/>
    <path stroke-width="0" fill="rgb(60, -27, 29)" opacity="0.96384746" stroke="rgb(34, 76, 145)" stroke-opacity="1.0" stroke-linecap="round" stroke-linejoin="round" d="M 229.60617065429688 147.35350036621094 C 209.69525146484375 135.00099182128906 196.8709716796875 164.74217224121094 181.7790069580078 168.7857666015625 C 175.18954467773438 240.7481231689453 188.08001708984375 144.71315002441406 200.67369079589844 148.07211303710938 C 180.88485717773438 146.11793518066406 184.40625 114.08738708496094 185.99583435058594 111.73336791992188 C 197.0054168701172 133.4404296875 214.39212036132812 135.11769104003906 229.60617065429688 147.35350036621094"/>
    <path stroke-width="0" fill="rgb(257, 230, -42)" opacity="1.1056179" stroke="rgb(146, 166, 166)" stroke-opacity="1.0" stroke-linecap="round" stroke-linejoin="round" d="M 227.38116455078125 196.00186157226562 C 247.6964569091797 145.1096649169922 182.1691436767578 180.9545440673828 226.0766143798828 200.2096405029297 C 261.03131103515625 188.94290161132812 221.09800720214844 153.3002166748047 233.51634216308594 181.54913330078125 C 209.4146728515625 176.83364868164062 214.06446838378906 182.701416015625 225.99032592773438 181.5286865234375 C 218.2171630859375 173.3348846435547 205.63363647460938 180.91860961914062 227.38116455078125 196.00186157226562"/>
    <path stroke-width="0" fill="rgb(276, 251, 293)" opacity="0.92164177" stroke="rgb(182, 254, 38)" stroke-opacity="1.0" stroke-linecap="round" stroke-linejoin="round" d="M 293.3487548828125 134.1759796142578 C 292.63055419921875 154.93504333496094 280.96124267578125 144.41940307617188 300.57257080078125 143.93917846679688 C 295.2193603515625 144.1666717529297 298.4776916503906 131.3629913330078 287.5097351074219 160.8651580810547 C 291.5762634277344 175.035888671875 289.8890686035156 166.81204223632812 271.1166687011719 163.84703063964844 C 285.9645080566406 152.77880859375 306.9189147949219 160.7103271484375 293.3487548828125 134.1759796142578"/>
    <path stroke-width="0" fill="rgb(37, 75, 57)" opacity="0.22476265" stroke="rgb(41, 156, 31)" stroke-opacity="1.0" stroke-linecap="round" stroke-linejoin="round" d="M 216.89393615722656 188.94920349121094 C 207.96505737304688 178.8815460205078 217.29336547851562 184.90481567382812 236.69915771484375 181.4630584716797 C 213.4052734375 179.31610107421875 210.2147979736328 203.09896850585938 238.49609375 189.1875457763672 C 217.93556213378906 174.2047576904297 233.9495086669922 167.835693359375 223.518798828125 194.4690399169922 C 241.27976989746094 185.48292541503906 218.1374969482422 170.6494903564453 216.89393615722656 188.94920349121094"/>
    <path stroke-width="0" fill="rgb(265, 254, 264)" opacity="0.58141696" stroke="rgb(177, 115, 184)" stroke-opacity="1.0" stroke-linecap="round" stroke-linejoin="round" d="M 251.48870849609375 176.48739624023438 C 245.18484497070312 193.2819366455078 246.04519653320312 163.24838256835938 211.17617797851562 158.30702209472656 C 189.47137451171875 191.08270263671875 189.5473175048828 153.04347229003906 224.4793243408203 163.2613067626953 C 235.0326690673828 162.8807830810547 246.15443420410156 180.33944702148438 252.7954559326172 179.0426025390625 C 204.77890014648438 129.01919555664062 238.3865509033203 141.54783630371094 251.48870849609375 176.48739624023438"/>
    <path stroke-width="0" fill="rgb(226, 242, -32)" opacity="0.56083435" stroke="rgb(248, 218, 2)" stroke-opacity="1.0" stroke-linecap="round" stroke-linejoin="round" d="M 245.90383911132812 160.42764282226562 C 217.8573455810547 240.86434936523438 191.4403533935547 168.80235290527344 230.15931701660156 174.67445373535156 C 238.21337890625 228.9856719970703 206.2449951171875 220.4875030517578 236.91490173339844 205.92796325683594 C 197.38575744628906 184.5450439453125 216.67031860351562 155.45677185058594 242.1120147705078 193.19422912597656 C 208.72499084472656 183.71742248535156 251.04441833496094 176.08885192871094 245.90383911132812 160.42764282226562"/>
    <path stroke-width="0" fill="rgb(-29, 45, 4)" opacity="0.9473775" stroke="rgb(186, 43, 132)" stroke-opacity="1.0" stroke-linecap="round" stroke-linejoin="round" d="M 225.4178466796875 168.07350158691406 C 230.5500946044922 163.7136688232422 240.55819702148438 175.5222930908203 231.8945770263672 195.62335205078125 C 219.1595001220703 200.4170379638672 202.33551025390625 184.11924743652344 226.3488311767578 169.5682830810547 C 206.8512725830078 184.8568878173828 253.7354278564453 167.87158203125 231.27505493164062 181.8371124267578 C 222.86383056640625 170.39540100097656 257.6500244140625 179.14605712890625 225.4178466796875 168.07350158691406"/>
    <path stroke-width="0" fill="rgb(57, 5, 58)" opacity="0.83090234" stroke="rgb(88, 236, 179)" stroke-opacity="1.0" stroke-linecap="round" stroke-linejoin="round" d="M 284.7870178222656 232.126708984375 C 242.54270935058594 203.3426513671875 213.12294006347656 225.0437469482422 226.9665069580078 221.863525390625 C 271.5923767089844 228.46795654296875 246.53448486328125 232.9647216796875 219.35757446289062 235.68312072753906 C 257.40557861328125 232.23248291015625 230.92974853515625 226.06118774414062 259.26910400390625 231.99607849121094 C 232.50196838378906 247.34913635253906 193.7866973876953 221.1741943359375 284.7870178222656 232.126708984375"/>
    <path stroke-width="0" fill="rgb(37, 60, 55)" opacity="0.4911663" stroke="rgb(41, 158, 147)" stroke-opacity="1.0" stroke-linecap="round" stroke-linejoin="round" d="M 186.54678344726562 225.3624267578125 C 196.27940368652344 190.4956817626953 171.76351928710938 216.8554229736328 157.76702880859375 278.52606201171875 C 181.5696563720703 202.41287231445312 181.03915405273438 201.20989990234375 191.63995361328125 220.6322021484375 C 184.5817108154297 201.80145263671875 200.3283233642578 235.04934692382812 178.53836059570312 218.24435424804688 C 174.5641632080078 231.57174682617188 174.91921997070312 225.6190643310547 186.54678344726562 225.3624267578125"/>
    <path stroke-width="0" fill="rgb(67, -4, 32)" opacity="0.73285675" stroke="rgb(238, 156, 136)" stroke-opacity="1.0" stroke-linecap="round" stroke-linejoin="round" d="M 179.56166076660156 330.52734375 C 164.38645935058594 282.78070068359375 162.69790649414062 295.2401428222656 176.1245880126953 294.14459228515625 C 195.52496337890625 353.9480285644531 201.98529052734375 277.71612548828125 177.94496154785156 280.47589111328125 C 182.94871520996094 355.7047424316406 180.68251037597656 258.1138916015625 164.1895751953125 315.3072509765625 C 155.84661865234375 309.3605651855469 173.3447723388672 321.97967529296875 179.56166076660156 330.52734375"/>
    <path stroke-width="0" fill="rgb(258, 257, 253)" opacity="0.7286205" stroke="rgb(186, 79, 101)" stroke-opacity="1.0" stroke-linecap="round" stroke-linejoin="round" d="M 215.6254425048828 160.35382080078125 C 264.8696594238281 176.57737731933594 260.7461242675781 201.4120635986328 244.62144470214844 171.3289337158203 C 208.04351806640625 150.67344665527344 185.68356323242188 192.5696258544922 200.11996459960938 208.1265106201172 C 200.8753204345703 146.64627075195312 222.24899291992188 159.01536560058594 202.23670959472656 178.0983428955078 C 197.96006774902344 168.03594970703125 201.7350616455078 169.934326171875 215.6254425048828 160.35382080078125"/>
    <path stroke-width="0" fill="rgb(255, 256, 249)" opacity="0.9784751" stroke="rgb(47, 240, 188)" stroke-opacity="1.0" stroke-linecap="round" stroke-linejoin="round" d="M 249.0467987060547 192.91278076171875 C 333.5314025878906 238.12107849121094 288.6160583496094 225.01683044433594 216.30276489257812 227.533203125 C 203.79917907714844 209.18392944335938 221.76092529296875 206.27093505859375 202.88955688476562 217.20916748046875 C 241.28858947753906 198.45672607421875 238.16928100585938 198.4877166748047 243.97962951660156 211.90049743652344 C 247.34295654296875 220.9049072265625 249.31935119628906 234.44837951660156 249.0467987060547 192.91278076171875"/>
    <path stroke-width="0" fill="rgb(55, 27, 22)" opacity="0.68546593" stroke="rgb(57, 64, 14)" stroke-opacity="1.0" stroke-linecap="round" stroke-linejoin="round" d="M 308.7369079589844 317.4573669433594 C 321.49468994140625 326.2840270996094 308.7973327636719 302.0956726074219 317.1387023925781 339.7987976074219 C 291.7407531738281 318.565673828125 333.4327087402344 319.10113525390625 318.1002502441406 301.4977111816406 C 311.93988037109375 324.5235900878906 325.2823181152344 325.2286376953125 313.28973388671875 296.2311706542969 C 345.2181396484375 272.2732238769531 330.0035400390625 271.4814758300781 308.7369079589844 317.4573669433594"/>
    <path stroke-width="0" fill="rgb(257, 255, 253)" opacity="0.988832" stroke="rgb(6, 17, 173)" stroke-opacity="1.0" stroke-linecap="round" stroke-linejoin="round" d="M 284.0802917480469 205.26768493652344 C 302.0257568359375 195.03184509277344 288.08197021484375 228.15818786621094 288.2925109863281 234.34510803222656 C 318.1568603515625 239.9320831298828 310.9931945800781 225.60931396484375 263.1204833984375 218.616455078125 C 246.25865173339844 204.781494140625 270.724853515625 201.7218475341797 292.51617431640625 206.9630584716797 C 279.7707824707031 201.1309051513672 308.2479553222656 212.20782470703125 284.0802917480469 205.26768493652344"/>
    <path stroke-width="0" fill="rgb(231, 230, 283)" opacity="0.123728335" stroke="rgb(169, 67, 5)" stroke-opacity="1.0" stroke-linecap="round" stroke-linejoin="round" d="M 190.06947326660156 227.50250244140625 C 213.11016845703125 255.5770263671875 223.00367736816406 229.64498901367188 233.3501739501953 201.4129180908203 C 209.0077362060547 218.23936462402344 203.42945861816406 210.7158203125 203.27455139160156 202.48309326171875 C 181.63304138183594 230.28005981445312 243.57858276367188 240.62681579589844 244.95970153808594 224.59368896484375 C 216.00698852539062 190.79238891601562 214.9272918701172 191.26382446289062 190.06947326660156 227.50250244140625"/>
    <path stroke-width="0" fill="rgb(284, 228, 208)" opacity="1.0540447" stroke="rgb(81, 97, 150)" stroke-opacity="1.0" stroke-linecap="round" stroke-linejoin="round" d="M 101.83391571044922 397.12396240234375 C 54.48183059692383 458.693359375 -15.003409385681152 497.3946228027344 -17.931882858276367 521.376708984375 C -3.401204824447632 481.1339111328125 -55.95347595214844 505.5627746582031 -29.504064559936523 488.4368591308594 C -10.254148483276367 494.6418762207031 12.557779312133789 509.9571228027344 -30.114229202270508 514.3834838867188 C -27.916887283325195 502.2550048828125 -6.621673583984375 501.3013916015625 101.83391571044922 397.12396240234375"/>
    <path stroke-width="0" fill="rgb(36, -16, 17)" opacity="0.8428274" stroke="rgb(47, 242, 175)" stroke-opacity="1.0" stroke-linecap="round" stroke-linejoin="round" d="M 301.08477783203125 230.6258087158203 C 334.4340515136719 190.09686279296875 312.52728271484375 217.01327514648438 283.769775390625 228.65133666992188 C 240.75100708007812 229.17242431640625 277.33721923828125 226.44680786132812 264.7403564453125 232.77638244628906 C 259.6148681640625 225.45156860351562 229.98233032226562 236.0685272216797 274.7156982421875 231.42572021484375 C 245.1688995361328 224.66650390625 258.8062438964844 249.7275390625 301.08477783203125 230.6258087158203"/>
    <path stroke-width="0" fill="rgb(43, -7, 32)" opacity="1.0373616" stroke="rgb(132, 6, 52)" stroke-opacity="1.0" stroke-linecap="round" stroke-linejoin="round" d="M 310.2426452636719 137.00567626953125 C 273.95855712890625 143.55274963378906 311.1258850097656 172.65969848632812 315.02496337890625 115.38768005371094 C 276.74658203125 164.32159423828125 192.11305236816406 150.88214111328125 234.21737670898438 153.56752014160156 C 312.8932189941406 149.39476013183594 300.1853942871094 142.2512969970703 297.36224365234375 138.01913452148438 C 306.85528564453125 156.18408203125 282.93115234375 152.0360565185547 310.2426452636719 137.00567626953125"/>
    <path stroke-width="0" fill="rgb(242, 183, -74)" opacity="1.1053257" stroke="rgb(220, 29, 131)" stroke-opacity="1.0" stroke-linecap="round" stroke-linejoin="round" d="M 238.28530883789062 189.74728393554688 C 278.1537780761719 195.28932189941406 256.95721435546875 229.13365173339844 249.53436279296875 228.9935302734375 C 232.904052734375 171.4183349609375 256.080078125 181.858154296875 216.9175567626953 202.48806762695312 C 246.7220001220703 188.27159118652344 240.57925415039062 169.3670196533203 258.26422119140625 186.77796936035156 C 240.15745544433594 171.838134765625 243.56814575195312 203.65211486816406 238.28530883789062 189.74728393554688"/>
    <path stroke-width="0" fill="rgb(5, 33, -9)" opacity="0.41832834" stroke="rgb(182, 100, 144)" stroke-opacity="1.0" stroke-linecap="round" stroke-linejoin="round" d="M 255.028076171875 192.62875366210938 C 271.0032043457031 160.3550262451172 260.8974609375 179.86083984375 261.6958312988281 206.6160125732422 C 269.236572265625 185.51036071777344 236.10772705078125 186.0509796142578 244.09559631347656 155.0615234375 C 226.27163696289062 163.6967010498047 239.9091033935547 152.7902069091797 251.21820068359375 152.46083068847656 C 241.5968780517578 171.36407470703125 252.31832885742188 183.8727264404297 255.028076171875 192.62875366210938"/>
    <path stroke-width="0" fill="rgb(41, 2, 41)" opacity="0.28246102" stroke="rgb(36, 124, 90)" stroke-opacity="1.0" stroke-linecap="round" stroke-linejoin="round" d="M 269.82861328125 149.03143310546875 C 220.36614990234375 153.4524688720703 197.29722595214844 129.41835021972656 191.11294555664062 135.87582397460938 C 227.08688354492188 137.14016723632812 256.9090576171875 159.83267211914062 242.34666442871094 178.41720581054688 C 254.82151794433594 155.69485473632812 244.4514923095703 126.537841796875 254.38970947265625 153.56198120117188 C 271.260498046875 140.79942321777344 258.0061950683594 152.90745544433594 269.82861328125 149.03143310546875"/>
    <path stroke-width="0" fill="rgb(117, 85, -42)" opacity="0.76285195" stroke="rgb(195, 190, 230)" stroke-opacity="1.0" stroke-linecap="round" stroke-linejoin="round" d="M 228.61691284179688 425.9745788574219 C 227.33355712890625 387.5050964355469 200.6380615234375 397.16510009765625 250.2706756591797 360.1450500488281 C 229.2066650390625 370.36083984375 214.8734588623047 384.82177734375 222.48568725585938 379.665283203125 C 227.02886962890625 408.7685241699219 223.23947143554688 401.8958740234375 223.77244567871094 358.6883544921875 C 210.52955627441406 416.2793273925781 240.16189575195312 407.5503845214844 228.61691284179688 425.9745788574219"/>
    <path stroke-width="0" fill="rgb(174, 202, 197)" opacity="0.38462335" stroke="rgb(140, 149, 245)" stroke-opacity="1.0" stroke-linecap="round" stroke-linejoin="round" d="M 249.648193359375 155.1435089111328 C 235.81240844726562 168.54637145996094 244.35626220703125 149.3832550048828 209.42552185058594 133.98239135742188 C 246.34375 154.8571014404297 258.72515869140625 168.8951416015625 251.5485076904297 155.241455078125 C 222.9485626220703 156.3634490966797 257.3348388671875 151.3145294189453 238.5230255126953 152.12066650390625 C 217.8787841796875 152.97755432128906 237.30758666992188 156.65744018554688 249.648193359375 155.1435089111328"/>
    <path stroke-width="0" fill="rgb(98, 93, 112)" opacity="0.5999079" stroke="rgb(61, 25, 4)" stroke-opacity="1.0" stroke-linecap="round" stroke-linejoin="round" d="M 241.6453094482422 165.986328125 C 246.5819091796875 140.52638244628906 248.1309356689453 148.3048858642578 256.18255615234375 152.64456176757812 C 239.9250030517578 166.72479248046875 247.6021270751953 179.2578887939453 257.143310546875 190.9189910888672 C 238.92263793945312 162.58084106445312 243.45993041992188 156.5582275390625 262.7728576660156 155.31195068359375 C 247.74998474121094 145.63868713378906 245.22023010253906 163.00328063964844 241.6453094482422 165.986328125"/>
    <path stroke-width="0" fill="rgb(89, 82, 38)" opacity="0.53859925" stroke="rgb(170, 200, 71)" stroke-opacity="1.0" stroke-linecap="round" stroke-linejoin="round" d="M 234.53530883789062 157.0773468017578 C 247.1363067626953 167.85743713378906 226.75863647460938 160.62384033203125 239.32888793945312 149.33657836914062 C 259.58294677734375 178.9039764404297 247.81149291992188 181.25830078125 209.7110137939453 180.56863403320312 C 198.359130859375 183.10861206054688 215.94129943847656 185.72633361816406 203.5887908935547 182.62786865234375 C 262.4290771484375 181.4785919189453 248.53831481933594 179.630615234375 234.53530883789062 157.0773468017578"/>
    <path stroke-width="0" fill="rgb(158, 150, 176)" opacity="0.70013344" stroke="rgb(126, 163, 93)" stroke-opacity="1.0" stroke-linecap="round" stroke-linejoin="round" d="M 248.65370178222656 160.8747100830078 C 248.99668884277344 158.66629028320312 249.49693298339844 133.58912658691406 249.63331604003906 159.6076202392578 C 242.6399383544922 174.21719360351562 232.5184326171875 131.12979125976562 245.1829833984375 151.58900451660156 C 239.10504150390625 173.1138916015625 241.7696990966797 172.74481201171875 243.44400024414062 175.5138702392578 C 238.35423278808594 151.7986602783203 249.47166442871094 151.44200134277344 248.65370178222656 160.8747100830078"/>
    <path stroke-width="0" fill="rgb(222, 243, 309)" opacity="0.7110027" stroke="rgb(24, 219, 248)" stroke-opacity="1.0" stroke-linecap="round" stroke-linejoin="round" d="M 247.39515686035156 180.2652130126953 C 267.60430908203125 180.70794677734375 269.9761047363281 147.06411743164062 250.32350158691406 183.48388671875 C 241.95513916015625 146.4345703125 242.588134765625 141.8898162841797 233.79310607910156 156.0330810546875 C 265.2257995605469 154.34088134765625 288.0859375 153.6421356201172 261.77557373046875 147.0026397705078 C 252.08197021484375 146.43359375 253.38888549804688 150.1145477294922 247.39515686035156 180.2652130126953"/>
    <path stroke-width="0" fill="rgb(58, 120, 116)" opacity="0.9883077" stroke="rgb(231, 197, 84)" stroke-opacity="1.0" stroke-linecap="round" stroke-linejoin="round" d="M 261.1978454589844 146.4395751953125 C 271.54803466796875 148.96954345703125 266.0614318847656 152.4575958251953 234.22386169433594 157.36476135253906 C 255.87753295898438 163.50628662109375 282.7339782714844 138.82762145996094 294.5004577636719 134.44015502929688 C 209.2117919921875 138.16314697265625 202.4008026123047 143.67849731445312 277.0120849609375 141.5190887451172 C 256.1244812011719 159.99937438964844 246.68507385253906 173.7570343017578 261.1978454589844 146.4395751953125"/>
    <path stroke-width="0" fill="rgb(185, 117, 16)" opacity="0.8016181" stroke="rgb(103, 59, 33)" stroke-opacity="1.0" stroke-linecap="round" stroke-linejoin="round" d="M 246.0908966064453 191.41366577148438 C 253.1986541748047 189.94554138183594 257.0445861816406 188.07603454589844 237.2923583984375 169.68824768066406 C 249.10292053222656 169.9913787841797 238.24740600585938 178.30789184570312 251.98114013671875 189.0252227783203 C 232.6354522705078 178.0752410888672 272.0440673828125 176.76036071777344 245.10302734375 189.1210174560547 C 265.0215148925781 184.0997772216797 249.3822021484375 175.2027130126953 246.0908966064453 191.41366577148438"/>
    <path stroke-width="0" fill="rgb(269, 207, -73)" opacity="0.9402202" stroke="rgb(107, 142, 219)" stroke-opacity="1.0" stroke-linecap="round" stroke-linejoin="round" d="M 246.57212829589844 209.5333251953125 C 272.0269470214844 179.33970642089844 267.8070373535156 197.33447265625 278.0401916503906 206.3878631591797 C 256.52691650390625 185.31260681152344 286.4615478515625 163.40817260742188 264.1239013671875 176.98057556152344 C 255.3422088623047 211.51470947265625 306.79388427734375 196.5688018798828 264.69134521484375 193.5668487548828 C 268.6507568359375 185.8319854736328 256.5264892578125 196.68016052246094 246.57212829589844 209.5333251953125"/>
    <path stroke-width="0" fill="rgb(244, 264, 262)" opacity="0.82580537" stroke="rgb(68, 33, 14)" stroke-opacity="1.0" stroke-linecap="round" stroke-linejoin="round" d="M 294.1982727050781 206.6207275390625 C 266.5812683105469 213.73196411132812 251.84596252441406 211.17422485351562 273.53460693359375 211.90481567382812 C 273.8482666015625 209.13833618164062 266.0610046386719 192.81419372558594 246.62643432617188 179.11460876464844 C 247.23492431640625 188.2174072265625 261.4656677246094 198.32217407226562 239.0664520263672 170.0894775390625 C 258.55364990234375 205.01654052734375 270.57855224609375 220.17019653320312 294.1982727050781 206.6207275390625"/>
    <path stroke-width="0" fill="rgb(68, 75, 29)" opacity="0.5141663" stroke="rgb(66, 116, 174)" stroke-opacity="1.0" stroke-linecap="round" stroke-linejoin="round" d="M 278.0020446777344 181.9994659423828 C 245.19664001464844 192.10781860351562 242.35011291503906 179.02120971679688 248.02928161621094 200.73802185058594 C 243.5774688720703 194.6265869140625 241.56622314453125 183.09115600585938 246.077392578125 182.57138061523438 C 252.74598693847656 137.80142211914062 235.81149291992188 166.03863525390625 247.8597869873047 159.7698516845703 C 235.43824768066406 194.5869140625 265.61260986328125 185.6266326904297 278.0020446777344 181.9994659423828"/>
    <path stroke-width="0" fill="rgb(47, 1, 37)" opacity="0.93960917" stroke="rgb(109, 130, 136)" stroke-opacity="1.0" stroke-linecap="round" stroke-linejoin="round" d="M 189.19894409179688 342.2535095214844 C 170.9708709716797 296.9892883300781 180.4236297607422 293.9801940917969 183.0181121826172 292.0001220703125 C 180.55882263183594 298.0045166015625 155.0425567626953 284.299560546875 166.800537109375 242.0740509033203 C 190.33657836914062 291.6874084472656 174.889404296875 299.1841735839844 189.51075744628906 236.87432861328125 C 199.91522216796875 218.32205200195312 184.5896759033203 249.7897186279297 189.19894409179688 342.2535095214844"/>
    <path stroke-width="0" fill="rgb(79, 105, 119)" opacity="0.7996633" stroke="rgb(70, 32, 100)" stroke-opacity="1.0" stroke-linecap="round" stroke-linejoin="round" d="M 364.1659851074219 289.9098205566406 C 362.1120300292969 307.2838439941406 355.55938720703125 297.43304443359375 357.5299072265625 302.3843688964844 C 364.2841491699219 297.0191345214844 366.1755065917969 296.25732421875 350.6089172363281 320.8192138671875 C 355.5760192871094 328.2468566894531 363.7348937988281 326.7743225097656 370.646240234375 330.0393371582031 C 321.19384765625 312.9850769042969 352.6687927246094 343.197021484375 364.1659851074219 289.9098205566406"/>
    <path stroke-width="0" fill="rgb(53, 10, 18)" opacity="0.68732" stroke="rgb(47, 230, 138)" stroke-opacity="1.0" stroke-linecap="round" stroke-linejoin="round" d="M 180.45584106445312 355.5128173828125 C 163.8209228515625 358.7430725097656 173.13858032226562 366.4072265625 171.12940979003906 328.75335693359375 C 179.68728637695312 333.87158203125 173.046142578125 326.4689025878906 191.2257080078125 369.139404296875 C 173.5371551513672 324.9093322753906 151.92645263671875 260.3136291503906 170.357666015625 302.4204406738281 C 176.34078979492188 335.3866882324219 176.7476806640625 347.9981689453125 180.45584106445312 355.5128173828125"/>
    <path stroke-width="0" fill="rgb(38, 30, 10)" opacity="0.80320454" stroke="rgb(224, 116, 184)" stroke-opacity="1.0" stroke-linecap="round" stroke-linejoin="round" d="M 327.9538879394531 343.65447998046875 C 343.48065185546875 306.6568603515625 330.3932800292969 328.95819091796875 306.7415466308594 371.06951904296875 C 326.25054931640625 339.3433837890625 341.7845153808594 307.81689453125 312.8136291503906 357.61932373046875 C 311.6748352050781 337.3034362792969 319.079345703125 330.2764587402344 335.1116027832031 331.4672546386719 C 302.0389404296875 342.3346862792969 316.5457458496094 346.92205810546875 327.9538879394531 343.65447998046875"/>
    <path stroke-width="0" fill="rgb(84, 110, 113)" opacity="0.7422103" stroke="rgb(230, 175, 178)" stroke-opacity="1.0" stroke-linecap="round" stroke-linejoin="round" d="M 163.5203094482422 329.4676818847656 C 145.0056610107422 304.1703186035156 128.27590942382812 319.12701416015625 117.72737884521484 302.31298828125 C 142.77818298339844 313.7511291503906 153.33412170410156 318.1308898925781 145.86497497558594 310.8252258300781 C 157.27902221679688 322.21917724609375 139.093994140625 318.46697998046875 164.810302734375 328.9195861816406 C 196.19935607910156 263.1841125488281 199.4715576171875 279.1373291015625 163.5203094482422 329.4676818847656"/>
    <path stroke-width="0" fill="rgb(256, 251, 228)" opacity="0.17005032" stroke="rgb(203, 244, 116)" stroke-opacity="1.0" stroke-linecap="round" stroke-linejoin="round" d="M 258.15618896484375 335.71533203125 C 235.67544555664062 385.5673522949219 218.76319885253906 408.82122802734375 216.72959899902344 374.09515380859375 C 187.04498291015625 319.280517578125 217.70132446289062 309.30426025390625 216.82623291015625 347.99957275390625 C 214.10218811035156 359.4925231933594 210.89955139160156 353.4873352050781 211.1178436279297 293.4612121582031 C 234.3917236328125 286.875244140625 227.7043914794922 297.215576171875 258.15618896484375 335.71533203125"/>
    <path stroke-width="0" fill="rgb(152, 111, 93)" opacity="0.4502902" stroke="rgb(209, 231, 207)" stroke-opacity="1.0" stroke-linecap="round" stroke-linejoin="round" d="M 304.917236328125 338.5487976074219 C 316.78472900390625 310.61865234375 283.19866943359375 363.6466369628906 324.0762634277344 337.6401672363281 C 328.87176513671875 314.3738708496094 325.02392578125 302.2524719238281 318.23052978515625 316.25567626953125 C 318.46221923828125 361.8951416015625 317.1285095214844 361.716064453125 316.45770263671875 331.8424377441406 C 300.2499084472656 326.65008544921875 310.658203125 334.8216857910156 304.917236328125 338.5487976074219"/>
    <path stroke-width="0" fill="rgb(39, 5, 34)" opacity="0.966463" stroke="rgb(65, 216, 8)" stroke-opacity="1.0" stroke-linecap="round" stroke-linejoin="round" d="M 191.1995849609375 400.0604553222656 C 175.27072143554688 337.099365234375 197.54986572265625 335.4586486816406 200.26002502441406 371.8962707519531 C 195.9476776123047 406.9272155761719 184.89288330078125 399.24176025390625 163.81307983398438 349.7975158691406 C 155.5356903076172 329.2269287109375 163.65371704101562 317.72784423828125 193.79318237304688 333.70721435546875 C 203.08985900878906 366.66790771484375 195.85118103027344 379.8403015136719 191.1995849609375 400.0604553222656"/>
    <path stroke-width="0" fill="rgb(260, 255, 245)" opacity="0.9492227" stroke="rgb(102, 236, 25)" stroke-opacity="1.0" stroke-linecap="round" stroke-linejoin="round" d="M 287.7163391113281 358.27978515625 C 277.6576232910156 373.4079895019531 222.8459014892578 396.8045654296875 213.0753936767578 384.77728271484375 C 218.07789611816406 366.7100830078125 219.40296936035156 346.65838623046875 222.60012817382812 332.7698059082031 C 229.76979064941406 387.51318359375 229.14109802246094 379.3952331542969 217.5223388671875 329.8200378417969 C 229.4687957763672 346.2924499511719 250.60751342773438 353.7658996582031 287.7163391113281 358.27978515625"/>
    <path stroke-width="0" fill="rgb(127, 52, -20)" opacity="1.0979197" stroke="rgb(33, 3, 29)" stroke-opacity="1.0" stroke-linecap="round" stroke-linejoin="round" d="M 229.77005004882812 387.5313415527344 C 216.33926391601562 390.6092834472656 225.177734375 411.0369567871094 225.31961059570312 416.1000671386719 C 166.90773010253906 408.4378662109375 142.9976806640625 436.8277282714844 152.1004638671875 395.9825744628906 C 154.6012420654297 399.41943359375 229.94761657714844 396.54534912109375 233.33035278320312 397.1334228515625 C 221.3101806640625 396.6366271972656 211.2904510498047 400.4185485839844 229.77005004882812 387.5313415527344"/>
    <path stroke-width="0" fill="rgb(152, 65, -35)" opacity="0.91773534" stroke="rgb(199, 73, 61)" stroke-opacity="1.0" stroke-linecap="round" stroke-linejoin="round" d="M 281.2247314453125 413.4273376464844 C 289.48291015625 389.7064514160156 277.8551330566406 402.13134765625 283.9844665527344 396.7901611328125 C 285.031982421875 405.0790710449219 285.25042724609375 391.673095703125 283.62890625 402.0174865722656 C 283.773681640625 393.58123779296875 268.9852600097656 397.5306701660156 358.34210205078125 398.7283020019531 C 377.6199645996094 422.3638916015625 256.37579345703125 420.5916748046875 281.2247314453125 413.4273376464844"/>
    <path stroke-width="0" fill="rgb(59, 119, 101)" opacity="0.9795786" stroke="rgb(175, 14, 186)" stroke-opacity="1.0" stroke-linecap="round" stroke-linejoin="round" d="M 488.4453125 135.3592071533203 C 447.88348388671875 184.29107666015625 517.4471435546875 262.5628356933594 641.70068359375 130.11448669433594 C 511.6275939941406 79.31909942626953 607.8750610351562 -3.376197099685669 340.57281494140625 -79.8341064453125 C 129.52932739257812 157.90707397460938 226.03408813476562 7.2405009269714355 363.9953918457031 92.42774200439453 C 499.9953918457031 160.4183807373047 453.7311096191406 128.6758270263672 488.4453125 135.3592071533203"/>
    <path stroke-width="0" fill="rgb(63, 120, 103)" opacity="0.62002707" stroke="rgb(95, 190, 60)" stroke-opacity="1.0" stroke-linecap="round" stroke-linejoin="round" d="M 135.00926208496094 163.2528533935547 C 125.21107482910156 190.1482391357422 90.97620391845703 146.2753448486328 72.59825134277344 202.2731170654297 C 136.61993408203125 259.71429443359375 136.4782257080078 183.3919677734375 178.769775390625 170.64195251464844 C 137.71444702148438 197.62625122070312 132.64540100097656 206.35069274902344 171.76707458496094 175.780029296875 C 168.0410919189453 168.1239013671875 171.39382934570312 191.99522399902344 135.00926208496094 163.2528533935547"/>
    <path stroke-width="0" fill="rgb(37, -8, 32)" opacity="0.9191815" stroke="rgb(213, 60, 128)" stroke-opacity="1.0" stroke-linecap="round" stroke-linejoin="round" d="M 247.31094360351562 151.9707794189453 C 256.20428466796875 191.24908447265625 240.52667236328125 164.85691833496094 218.86160278320312 152.59036254882812 C 233.73646545410156 159.81295776367188 227.39431762695312 151.8415069580078 211.54794311523438 153.71099853515625 C 185.0570526123047 124.38626098632812 185.6868438720703 122.20845031738281 196.17095947265625 146.6483612060547 C 203.91371154785156 142.4317626953125 356.052490234375 148.9292449951172 247.31094360351562 151.9707794189453"/>
    <path stroke-width="0" fill="rgb(63, 121, 99)" opacity="0.76118904" stroke="rgb(228, 103, 140)" stroke-opacity="1.0" stroke-linecap="round" stroke-linejoin="round" d="M 128.4502716064453 279.92431640625 C 155.67591857910156 314.3721618652344 163.10986328125 317.4064025878906 116.29682159423828 332.4411315917969 C 94.19779968261719 343.4364318847656 68.85969543457031 323.01434326171875 120.76300811767578 268.5301513671875 C 118.11298370361328 275.14208984375 141.90167236328125 254.9899444580078 132.7658233642578 295.87213134765625 C 138.20787048339844 300.5776062011719 149.30361938476562 292.0008239746094 128.4502716064453 279.92431640625"/>
    <path stroke-width="0" fill="rgb(260, 252, 256)" opacity="1.015813" stroke="rgb(63, 128, 79)" stroke-opacity="1.0" stroke-linecap="round" stroke-linejoin="round" d="M 254.11167907714844 194.69821166992188 C 215.81036376953125 220.01025390625 220.98731994628906 228.14505004882812 233.30111694335938 219.07574462890625 C 224.14825439453125 213.88116455078125 216.956298828125 223.47799682617188 202.76040649414062 187.5170440673828 C 214.90719604492188 236.94036865234375 247.42080688476562 224.8541259765625 240.40249633789062 174.05711364746094 C 205.70372009277344 147.12283325195312 286.0943908691406 186.68190002441406 254.11167907714844 194.69821166992188"/>
    <path stroke-width="0" fill="rgb(72, 115, 109)" opacity="0.543639" stroke="rgb(26, 88, 188)" stroke-opacity="1.0" stroke-linecap="round" stroke-linejoin="round" d="M 144.0584716796875 161.2911834716797 C 96.84886169433594 209.29660034179688 87.28990936279297 246.69290161132812 107.32767486572266 231.4678497314453 C 158.2929229736328 224.29861450195312 143.11572265625 214.98052978515625 140.0392608642578 200.9727325439453 C 141.43740844726562 250.93106079101562 139.32789611816406 258.43487548828125 138.682373046875 213.9701690673828 C 111.32272338867188 254.33848571777344 112.66609954833984 234.2353057861328 144.0584716796875 161.2911834716797"/>
    <path stroke-width="0" fill="rgb(53, 7, 28)" opacity="0.9235357" stroke="rgb(52, 87, 172)" stroke-opacity="1.0" stroke-linecap="round" stroke-linejoin="round" d="M 306.0379943847656 346.0051574707031 C 318.4462585449219 396.3515625 313.4535827636719 359.2613220214844 313.38568115234375 395.1269836425781 C 298.93017578125 397.00701904296875 292.7223815917969 415.12994384765625 303.9357604980469 316.1745300292969 C 314.2161560058594 332.3578186035156 320.13909912109375 338.2104797363281 315.79345703125 284.777099609375 C 348.4141540527344 342.5329895019531 333.66766357421875 373.1822204589844 306.0379943847656 346.0051574707031"/>
    <path stroke-width="0" fill="rgb(47, -14, 49)" opacity="0.9527678" stroke="rgb(7, 181, 2)" stroke-opacity="1.0" stroke-linecap="round" stroke-linejoin="round" d="M 306.5028381347656 140.82260131835938 C 278.78277587890625 152.74957275390625 257.8377990722656 152.88955688476562 296.46728515625 146.71450805664062 C 271.2509765625 153.9175567626953 230.38563537597656 187.7434539794922 243.65838623046875 148.2488250732422 C 275.68408203125 141.69773864746094 317.5762023925781 162.97325134277344 316.0870666503906 127.74268341064453 C 269.8515319824219 152.0224151611328 271.22454833984375 155.16624450683594 306.5028381347656 140.82260131835938"/>
    <path stroke-width="0" fill="rgb(63, 115, 95)" opacity="0.6006926" stroke="rgb(22, 103, 6)" stroke-opacity="1.0" stroke-linecap="round" stroke-linejoin="round" d="M 280.1734619140625 487.2657165527344 C 266.67840576171875 492.0113525390625 340.4264831542969 506.3606262207031 202.35952758789062 540.576171875 C 78.70639038085938 488.9610290527344 256.6064147949219 467.5457763671875 248.48265075683594 465.7856750488281 C 253.34820556640625 472.6383361816406 289.36541748046875 511.9527893066406 234.12271118164062 495.49383544921875 C 218.7949676513672 476.70684814453125 232.15078735351562 447.7328186035156 280.1734619140625 487.2657165527344"/>
    <path stroke-width="0" fill="rgb(61, 124, 102)" opacity="0.8182911" stroke="rgb(53, 29, 147)" stroke-opacity="1.0" stroke-linecap="round" stroke-linejoin="round" d="M 334.96600341796875 157.0538787841797 C 311.7364196777344 84.86283111572266 331.7555847167969 50.259700775146484 389.9992980957031 111.6646728515625 C 365.8440856933594 207.25698852539062 339.3968505859375 134.31561279296875 333.5150146484375 135.58192443847656 C 335.94476318359375 166.60975646972656 345.966064453125 162.52149963378906 352.4671936035156 155.3126220703125 C 326.110107421875 154.55836486816406 346.3797302246094 153.8327178955078 334.96600341796875 157.0538787841797"/>
    <path stroke-width="0" fill="rgb(63, 120, 100)" opacity="0.5738873" stroke="rgb(0, 165, 153)" stroke-opacity="1.0" stroke-linecap="round" stroke-linejoin="round" d="M 452.2404479980469 524.8828125 C 377.43975830078125 507.02117919921875 291.4435729980469 483.746826171875 361.36505126953125 501.19091796875 C 356.7520446777344 486.7725830078125 247.07984924316406 514.454833984375 242.5839080810547 475.6311340332031 C 301.5351257324219 427.81573486328125 336.0552978515625 460.1101989746094 327.63189697265625 480.1601257324219 C 360.2900390625 433.2892761230469 410.0531311035156 421.7709655761719 452.2404479980469 524.8828125"/>
    <path stroke-width="0" fill="rgb(37, 144, 71)" opacity="0.36874127" stroke="rgb(0, 0, 0)" stroke-opacity="0.0" stroke-linecap="round" stroke-linejoin="round" d="M 17.545351028442383 -4.809731483459473 C 16.610883712768555 -0.5919739007949829 15.045523643493652 3.6850481033325195 6.9905619621276855 4.130932807922363 C 3.8471906185150146 9.059467315673828 2.9838757514953613 7.129205226898193 2.133185386657715 0.8272605538368225 C 5.521305561065674 -6.29489278793335 9.7817964553833 -8.195589065551758 13.99810791015625 -9.1287841796875 C 18.005184173583984 -8.05243968963623 20.933387756347656 -5.124236583709717 17.545351028442383 -4.809731483459473"/>
    <path stroke-width="0" fill="rgb(63, 106, 129)" opacity="0.21665375" stroke="rgb(0, 0, 0)" stroke-opacity="0.0" stroke-linecap="round" stroke-linejoin="round" d="M 15.447678565979004 4.263611316680908 C 16.317142486572266 9.29380989074707 12.770683288574219 7.6403350830078125 9.464664459228516 6.709038734436035 C 6.329403877258301 8.606538772583008 2.142272472381592 7.125010967254639 -1.8268388509750366 4.347863674163818 C -0.5549240112304688 -0.1388407200574875 2.87652587890625 -2.655067205429077 8.550002098083496 -3.705212354660034 C 15.094904899597168 -3.572248935699463 18.37348175048828 -1.306037187576294 15.447678565979004 4.263611316680908"/>
    <path stroke-width="0" fill="rgb(95, 101, 122)" opacity="0.29365036" stroke="rgb(0, 0, 0)" stroke-opacity="0.0" stroke-linecap="round" stroke-linejoin="round" d="M 32.45751190185547 9.68169116973877 C 30.934537887573242 15.307679176330566 26.645994186401367 16.58147621154785 21.082326889038086 18.27678871154785 C 14.623546600341797 20.299776077270508 10.98060131072998 17.04825782775879 20.190134048461914 14.176904678344727 C 21.31816864013672 7.757603645324707 19.07317543029785 0.7008503675460815 18.24324607849121 2.923811435699463 C 23.2664794921875 6.704686164855957 28.35845375061035 7.693241596221924 32.45751190185547 9.68169116973877"/>
    <path stroke-width="0" fill="rgb(91, 87, 109)" opacity="0.2631994" stroke="rgb(0, 0, 0)" stroke-opacity="0.0" stroke-linecap="round" stroke-linejoin="round" d="M 39.07780456542969 2.009531021118164 C 38.65303421020508 10.236849784851074 37.89333724975586 12.710831642150879 31.325786590576172 10.812821388244629 C 26.704387664794922 8.384851455688477 25.14615249633789 5.124711036682129 24.730899810791016 -0.10823510587215424 C 23.54764747619629 -1.745397686958313 26.066429138183594 -4.87183952331543 30.05577278137207 -5.987747669219971 C 34.53181076049805 -5.155777931213379 38.17236328125 -2.8626983165740967 39.07780456542969 2.009531021118164"/>
    <path stroke-width="0" fill="rgb(70, 124, 131)" opacity="0.27268335" stroke="rgb(0, 0, 0)" stroke-opacity="0.0" stroke-linecap="round" stroke-linejoin="round" d="M 70.3236312866211 8.424323081970215 C 71.05249786376953 15.968674659729004 71.78451538085938 17.446147918701172 60.629234313964844 13.6180419921875 C 56.56132888793945 14.97684383392334 57.299293518066406 15.511812210083008 60.79354476928711 12.599943161010742 C 59.29833984375 6.740994453430176 57.4310188293457 -0.49366310238838196 60.767967224121094 -2.8973305225372314 C 69.31945037841797 0.25013771653175354 70.77278137207031 2.5855307579040527 70.3236312866211 8.424323081970215"/>
    <path stroke-width="0" fill="rgb(131, 80, 106)" opacity="0.37383556" stroke="rgb(0, 0, 0)" stroke-opacity="0.0" stroke-linecap="round" stroke-linejoin="round" d="M 294.8818054199219 11.933388710021973 C 296.3638610839844 8.310226440429688 298.7372741699219 16.369518280029297 297.2484436035156 10.65965461730957 C 287.8764953613281 11.9608154296875 288.493408203125 15.450270652770996 294.6597595214844 8.223179817199707 C 289.12255859375 3.7991151809692383 293.1333923339844 6.788466930389404 298.73980712890625 3.631248950958252 C 292.70086669921875 2.761718511581421 290.947021484375 10.339468955993652 294.8818054199219 11.933388710021973"/>
    <path stroke-width="0" fill="rgb(101, 100, 131)" opacity="0.21549729" stroke="rgb(0, 0, 0)" stroke-opacity="0.0" stroke-linecap="round" stroke-linejoin="round" d="M 52.184810638427734 6.726456165313721 C 58.101104736328125 7.986570835113525 55.44867706298828 8.753089904785156 47.71551513671875 7.99053955078125 C 39.979679107666016 10.121044158935547 37.50337219238281 7.421717643737793 36.93199920654297 1.4331310987472534 C 38.81672668457031 -2.860673427581787 42.4583854675293 -5.412718296051025 46.45539474487305 -6.4441351890563965 C 50.12031555175781 -5.1809515953063965 52.131065368652344 -1.6518863439559937 52.184810638427734 6.726456165313721"/>
    <path stroke-width="0" fill="rgb(138, 81, 76)" opacity="0.49077418" stroke="rgb(0, 0, 0)" stroke-opacity="0.0" stroke-linecap="round" stroke-linejoin="round" d="M 52.333133697509766 12.149795532226562 C 49.179805755615234 11.476584434509277 50.09710693359375 17.193086624145508 48.741207122802734 21.33260154724121 C 46.54015350341797 22.993803024291992 48.30970764160156 17.278528213500977 50.41093444824219 13.182973861694336 C 43.52153778076172 10.925374984741211 48.146453857421875 13.350523948669434 54.702964782714844 11.992961883544922 C 53.88725662231445 7.212696075439453 56.90086364746094 10.710261344909668 52.333133697509766 12.149795532226562"/>
    <path stroke-width="0" fill="rgb(133, 93, 155)" opacity="0.08987477" stroke="rgb(0, 0, 0)" stroke-opacity="0.0" stroke-linecap="round" stroke-linejoin="round" d="M 182.42137145996094 2.702782154083252 C 182.1163330078125 6.392819881439209 183.46543884277344 14.622459411621094 180.93348693847656 13.928662300109863 C 172.50506591796875 16.935033798217773 176.45411682128906 14.950091361999512 175.65916442871094 6.015451431274414 C 174.24562072753906 -0.47675836086273193 175.4508056640625 -3.175584554672241 178.95469665527344 -4.015565395355225 C 183.87989807128906 -1.607470154762268 187.01060485839844 1.7186354398727417 182.42137145996094 2.702782154083252"/>
    <path stroke-width="0" fill="rgb(124, 135, 37)" opacity="0.6818536" stroke="rgb(0, 0, 0)" stroke-opacity="0.0" stroke-linecap="round" stroke-linejoin="round" d="M 62.25025177001953 166.72950744628906 C 60.841529846191406 168.35301208496094 56.061492919921875 170.53944396972656 54.09059524536133 173.6632537841797 C 50.17385482788086 175.87896728515625 50.86458206176758 174.27391052246094 51.45900344848633 171.37884521484375 C 55.114723205566406 169.13182067871094 58.39645767211914 164.39181518554688 59.13600158691406 164.16326904296875 C 56.75059127807617 166.3557891845703 61.13534927368164 167.78443908691406 62.25025177001953 166.72950744628906"/>
    <path stroke-width="0" fill="rgb(244, 221, 95)" opacity="0.59281003" stroke="rgb(0, 0, 0)" stroke-opacity="0.0" stroke-linecap="round" stroke-linejoin="round" d="M 290.0190124511719 261.7908020019531 C 284.15496826171875 268.11083984375 278.3328857421875 269.2024841308594 276.70172119140625 273.1883239746094 C 272.9858703613281 267.8335266113281 268.3514709472656 266.7499694824219 263.54400634765625 260.8743591308594 C 268.89825439453125 260.181396484375 272.7967224121094 257.63323974609375 274.5488586425781 254.17442321777344 C 280.34661865234375 255.72561645507812 286.7068786621094 255.38980102539062 290.0190124511719 261.7908020019531"/>
    <path stroke-width="0" fill="rgb(166, 51, 162)" opacity="0.5008807" stroke="rgb(0, 0, 0)" stroke-opacity="0.0" stroke-linecap="round" stroke-linejoin="round" d="M 9.039436340332031 -4.396942138671875 C 4.844367980957031 -2.5789954662323 3.7747015953063965 2.5769615173339844 0.715755045413971 4.880850315093994 C -1.7084935903549194 7.973721981048584 -3.9228644371032715 6.792806148529053 -4.051634788513184 2.4220283031463623 C -1.9186784029006958 -3.2245965003967285 1.0095248222351074 -6.152799606323242 5.00985050201416 -7.224699974060059 C 9.028139114379883 -6.159226417541504 12.133110046386719 -3.3291306495666504 9.039436340332031 -4.396942138671875"/>
    <path stroke-width="0" fill="rgb(71, 26, 230)" opacity="0.6658063" stroke="rgb(0, 0, 0)" stroke-opacity="0.0" stroke-linecap="round" stroke-linejoin="round" d="M 36.58120346069336 -23.064172744750977 C 35.50940704345703 -19.064172744750977 32.58120346069336 -16.135969161987305 28.581205368041992 -15.064173698425293 C 24.581205368041992 -16.135969161987305 21.65300178527832 -19.064172744750977 20.581205368041992 -23.064172744750977 C 21.65300178527832 -27.064172744750977 24.581205368041992 -29.99237632751465 28.581205368041992 -31.064172744750977 C 32.58120346069336 -29.99237632751465 35.50940704345703 -27.064172744750977 36.58120346069336 -23.064172744750977"/>
    <path stroke-width="0" fill="rgb(273, 250, 58)" opacity="0.087858945" stroke="rgb(0, 0, 0)" stroke-opacity="0.0" stroke-linecap="round" stroke-linejoin="round" d="M 212.84039306640625 164.9916534423828 C 215.95260620117188 170.0695037841797 211.8300018310547 172.64691162109375 210.31991577148438 163.34922790527344 C 205.0442352294922 163.0438232421875 201.42449951171875 161.05886840820312 199.25823974609375 159.2642364501953 C 200.4427032470703 160.13226318359375 204.98484802246094 157.37881469726562 210.119873046875 157.35877990722656 C 207.73941040039062 155.48858642578125 209.45040893554688 158.8494110107422 212.84039306640625 164.9916534423828"/>
    <path stroke-width="0" fill="rgb(59, 167, 149)" opacity="0.68687874" stroke="rgb(0, 0, 0)" stroke-opacity="0.0" stroke-linecap="round" stroke-linejoin="round" d="M 91.28611755371094 470.361328125 C 91.20489501953125 472.60809326171875 86.497802734375 474.49420166015625 81.54428100585938 478.1094055175781 C 80.23863220214844 480.1377258300781 78.98474884033203 475.8211364746094 79.39156341552734 470.582275390625 C 79.73140716552734 466.7469787597656 81.90296936035156 462.40924072265625 81.93576049804688 467.6254577636719 C 88.56954956054688 467.44580078125 92.46803283691406 466.4425964355469 91.28611755371094 470.361328125"/>
    <path stroke-width="0" fill="rgb(219, 157, 98)" opacity="0.044601265" stroke="rgb(0, 0, 0)" stroke-opacity="0.0" stroke-linecap="round" stroke-linejoin="round" d="M 437.5063781738281 401.2445068359375 C 433.8806457519531 408.0177001953125 433.2026672363281 413.1518859863281 430.47308349609375 412.7839050292969 C 423.5537109375 413.27032470703125 419.98992919921875 412.5014953613281 418.2987365722656 405.8177490234375 C 424.1190185546875 403.8562927246094 427.6191101074219 400.5097961425781 429.5202331542969 400.6807556152344 C 436.7913818359375 399.3569641113281 442.42181396484375 398.2808837890625 437.5063781738281 401.2445068359375"/>
    <path stroke-width="0" fill="rgb(87, 136, 102)" opacity="0.06926038" stroke="rgb(0, 0, 0)" stroke-opacity="0.0" stroke-linecap="round" stroke-linejoin="round" d="M 53.17623519897461 204.80368041992188 C 52.28435516357422 209.5156707763672 48.47248458862305 211.67294311523438 43.82078552246094 214.95518493652344 C 42.09767150878906 212.9842529296875 39.60395812988281 209.57049560546875 37.48518371582031 206.38978576660156 C 40.81959915161133 204.69044494628906 45.54857635498047 203.47775268554688 45.96764373779297 201.22830200195312 C 50.207305908203125 200.92486572265625 54.864952087402344 202.46592712402344 53.17623519897461 204.80368041992188"/>
    <path stroke-width="0" fill="rgb(137, 78, 157)" opacity="0.6474746" stroke="rgb(0, 0, 0)" stroke-opacity="0.0" stroke-linecap="round" stroke-linejoin="round" d="M 37.502037048339844 394.9435729980469 C 34.90879821777344 399.2686767578125 31.04308319091797 401.00299072265625 24.06884765625 400.81890869140625 C 19.594484329223633 404.0871887207031 20.120895385742188 402.26275634765625 21.420564651489258 396.70977783203125 C 26.801738739013672 397.1401672363281 27.691486358642578 392.7154846191406 30.973806381225586 390.52227783203125 C 28.3629207611084 395.9552001953125 34.115909576416016 395.36572265625 37.502037048339844 394.9435729980469"/>
    <path stroke-width="0" fill="rgb(129, 139, 177)" opacity="0.5055096" stroke="rgb(0, 0, 0)" stroke-opacity="0.0" stroke-linecap="round" stroke-linejoin="round" d="M 385.58551025390625 162.3173828125 C 381.68359375 165.87168884277344 379.072265625 170.02374267578125 377.1119079589844 172.41778564453125 C 376.3218078613281 170.84754943847656 374.05694580078125 165.2814483642578 370.97979736328125 165.84556579589844 C 373.5556335449219 164.09002685546875 377.8553466796875 161.47406005859375 376.6186828613281 159.0951690673828 C 383.8760070800781 161.5880584716797 388.10784912109375 158.990478515625 385.58551025390625 162.3173828125"/>
    <path stroke-width="0" fill="rgb(86, 50, 84)" opacity="-0.02108702" stroke="rgb(0, 0, 0)" stroke-opacity="0.0" stroke-linecap="round" stroke-linejoin="round" d="M 482.7450866699219 78.46507263183594 C 483.15936279296875 82.75276947021484 480.51397705078125 85.826416015625 474.36627197265625 87.5805892944336 C 469.89306640625 86.2286148071289 468.64202880859375 82.5046157836914 470.1006774902344 77.49767303466797 C 468.21197509765625 72.94720458984375 470.6934509277344 70.20513153076172 475.6537170410156 71.0541763305664 C 479.4274597167969 70.51761627197266 482.3091125488281 73.5682373046875 482.7450866699219 78.46507263183594"/>
    <path stroke-width="0" fill="rgb(-9, 210, 152)" opacity="0.11417184" stroke="rgb(0, 0, 0)" stroke-opacity="0.0" stroke-linecap="round" stroke-linejoin="round" d="M 4.334005355834961 0.9998055100440979 C 4.009727954864502 3.682192802429199 -0.02463412657380104 6.300851345062256 -4.063946723937988 8.34485149383545 C -5.742618560791016 9.031791687011719 -8.670821189880371 6.103588104248047 -9.742618560791016 2.103588104248047 C -8.670821189880371 -1.8964120149612427 -5.742618560791016 -4.824615001678467 -1.9410110712051392 -5.758664608001709 C 1.3643834590911865 -4.083020210266113 3.885232448577881 -0.649387776851654 4.334005355834961 0.9998055100440979"/>
    <path stroke-width="0" fill="rgb(106, 148, 156)" opacity="0.35558715" stroke="rgb(0, 0, 0)" stroke-opacity="0.0" stroke-linecap="round" stroke-linejoin="round" d="M 257.9541015625 165.33111572265625 C 253.44677734375 169.37689208984375 249.7412567138672 172.55099487304688 247.9098663330078 172.68438720703125 C 245.2512664794922 169.64991760253906 243.2640380859375 164.81199645996094 238.50433349609375 163.05239868164062 C 238.74671936035156 159.70364379882812 240.4113311767578 156.0772705078125 242.91159057617188 159.7653350830078 C 249.83213806152344 158.8916778564453 254.4031982421875 160.2682342529297 257.9541015625 165.33111572265625"/>
    <path stroke-width="0" fill="rgb(76, 106, 108)" opacity="0.43557706" stroke="rgb(0, 0, 0)" stroke-opacity="0.0" stroke-linecap="round" stroke-linejoin="round" d="M 135.74053955078125 49.94495391845703 C 135.90054321289062 54.89629364013672 132.90452575683594 57.00723648071289 127.2771224975586 57.611244201660156 C 120.97811126708984 57.80596923828125 118.04700469970703 55.687049865722656 121.9303970336914 50.50554656982422 C 121.03699493408203 44.14624786376953 123.50064849853516 42.71027374267578 128.06198120117188 43.807621002197266 C 130.77581787109375 41.695186614990234 133.30484008789062 45.238014221191406 135.74053955078125 49.94495391845703"/>
    <path stroke-width="0" fill="rgb(134, 187, 203)" opacity="0.24049267" stroke="rgb(0, 0, 0)" stroke-opacity="0.0" stroke-linecap="round" stroke-linejoin="round" d="M 173.45533752441406 123.90459442138672 C 177.03794860839844 128.25823974609375 171.5347137451172 129.29684448242188 163.6414337158203 129.66748046875 C 161.74497985839844 128.97442626953125 158.9513397216797 125.66292572021484 159.29129028320312 122.06724548339844 C 156.97328186035156 116.88707733154297 161.65200805664062 116.47578430175781 161.5173797607422 117.76396942138672 C 166.44793701171875 117.69991302490234 174.0973663330078 118.36173248291016 173.45533752441406 123.90459442138672"/>
    <path stroke-width="0" fill="rgb(102, 167, 67)" opacity="0.21165173" stroke="rgb(0, 0, 0)" stroke-opacity="0.0" stroke-linecap="round" stroke-linejoin="round" d="M 179.98463439941406 272.8771667480469 C 179.7362060546875 279.5449523925781 180.62289428710938 280.495361328125 177.78173828125 278.96917724609375 C 175.49423217773438 277.4855041503906 177.08534240722656 274.08917236328125 173.97962951660156 269.8106384277344 C 169.04396057128906 268.6304626464844 174.42941284179688 268.61041259765625 177.960693359375 269.8182067871094 C 179.12850952148438 271.2740478515625 182.5532989501953 272.2621154785156 179.98463439941406 272.8771667480469"/>
    <path stroke-width="0" fill="rgb(58, 155, 75)" opacity="0.18495645" stroke="rgb(0, 0, 0)" stroke-opacity="0.0" stroke-linecap="round" stroke-linejoin="round" d="M 152.82164001464844 67.1641845703125 C 155.23342895507812 71.8355941772461 151.18997192382812 70.0128402709961 143.71139526367188 71.92620086669922 C 143.8668212890625 72.95387268066406 141.4210205078125 73.1417465209961 145.16038513183594 73.76524353027344 C 145.9083709716797 66.46033477783203 148.60166931152344 61.23210144042969 144.79803466796875 64.25740814208984 C 150.14544677734375 65.34513092041016 156.2392120361328 62.64963150024414 152.82164001464844 67.1641845703125"/>
    <path stroke-width="0" fill="rgb(71, 110, 110)" opacity="0.49434096" stroke="rgb(0, 0, 0)" stroke-opacity="0.0" stroke-linecap="round" stroke-linejoin="round" d="M 92.48087310791016 61.64295959472656 C 93.18489074707031 65.43006134033203 89.25234985351562 67.78778839111328 87.49383544921875 65.99325561523438 C 83.84183502197266 67.16808319091797 80.59749603271484 64.2035903930664 80.27017211914062 62.05424880981445 C 79.87049865722656 56.94011306762695 80.83084869384766 54.3477897644043 84.306396484375 56.972023010253906 C 90.7843246459961 55.352569580078125 93.71929168701172 57.0067138671875 92.48087310791016 61.64295959472656"/>
    <path stroke-width="0" fill="rgb(74, -9, 65)" opacity="0.13254412" stroke="rgb(0, 0, 0)" stroke-opacity="0.0" stroke-linecap="round" stroke-linejoin="round" d="M 328.3415222167969 207.34396362304688 C 320.1319274902344 208.0958251953125 316.26416015625 209.50010681152344 314.26214599609375 213.0654296875 C 314.128173828125 211.4355010986328 310.3746032714844 208.15689086914062 307.5167236328125 207.9933624267578 C 309.8589782714844 203.43385314941406 312.5699157714844 199.77520751953125 316.5281982421875 198.0636444091797 C 318.47967529296875 202.1903839111328 319.4048767089844 205.88108825683594 328.3415222167969 207.34396362304688"/>
    <path stroke-width="0" fill="rgb(84, 164, 160)" opacity="0.36808038" stroke="rgb(0, 0, 0)" stroke-opacity="0.0" stroke-linecap="round" stroke-linejoin="round" d="M 1.3503926992416382 -0.05221732705831528 C -0.04721691459417343 4.601213455200195 -3.30631160736084 7.249831676483154 -7.441027641296387 8.300725936889648 C -11.236661911010742 7.442933082580566 -14.164864540100098 4.514729976654053 -15.236661911010742 0.5147300362586975 C -14.164864540100098 -3.4852700233459473 -11.236661911010742 -6.413473129272461 -7.220911979675293 -7.49321985244751 C -2.8429975509643555 -6.630729675292969 0.8651161193847656 -4.459144115447998 1.3503926992416382 -0.05221732705831528"/>
    <path stroke-width="0" fill="rgb(225, 63, 85)" opacity="-0.005597034" stroke="rgb(0, 0, 0)" stroke-opacity="0.0" stroke-linecap="round" stroke-linejoin="round" d="M 281.6728820800781 385.4862365722656 C 284.07598876953125 388.1634521484375 281.0352783203125 390.1837158203125 279.0557556152344 387.07025146484375 C 270.635009765625 388.1352233886719 265.85833740234375 388.9420166015625 264.48199462890625 384.7769775390625 C 266.5941162109375 379.6147766113281 271.16082763671875 377.8912048339844 275.28363037109375 378.9722900390625 C 277.2158203125 377.0981750488281 278.36029052734375 381.25848388671875 281.6728820800781 385.4862365722656"/>
    <path stroke-width="0" fill="rgb(194, 207, 248)" opacity="0.18107925" stroke="rgb(0, 0, 0)" stroke-opacity="0.0" stroke-linecap="round" stroke-linejoin="round" d="M 78.26312255859375 80.58244323730469 C 79.42330169677734 85.83329772949219 75.23539733886719 87.93663024902344 73.13024139404297 88.18274688720703 C 71.04904174804688 88.944580078125 66.35396575927734 87.00833129882812 66.15199279785156 84.95589447021484 C 68.09703063964844 83.130615234375 72.76824951171875 80.30188751220703 73.73583221435547 79.69819641113281 C 80.10760498046875 76.07513427734375 80.44918060302734 77.47653198242188 78.26312255859375 80.58244323730469"/>
    <path stroke-width="0" fill="rgb(198, 122, 124)" opacity="0.36782935" stroke="rgb(0, 0, 0)" stroke-opacity="0.0" stroke-linecap="round" stroke-linejoin="round" d="M 404.21502685546875 485.2677307128906 C 402.77935791015625 485.125 398.1896667480469 486.5660400390625 394.44110107421875 487.4029235839844 C 393.226806640625 486.84185791015625 390.41400146484375 486.88555908203125 391.41259765625 484.6766662597656 C 390.18206787109375 480.3821105957031 393.2451171875 478.8445129394531 394.8857727050781 480.3717041015625 C 398.5240783691406 479.9045104980469 402.0635070800781 482.7099304199219 404.21502685546875 485.2677307128906"/>
    <path stroke-width="0" fill="rgb(178, 153, 126)" opacity="-0.02215041" stroke="rgb(0, 0, 0)" stroke-opacity="0.0" stroke-linecap="round" stroke-linejoin="round" d="M 255.56593322753906 18.623931884765625 C 254.441162109375 20.663333892822266 251.11395263671875 23.290485382080078 249.07720947265625 27.009538650512695 C 245.31114196777344 24.217254638671875 242.0933380126953 24.639982223510742 244.3361053466797 20.896581649780273 C 246.8995361328125 19.0037841796875 248.6830596923828 15.422321319580078 247.8974609375 10.124757766723633 C 253.79531860351562 12.00893497467041 256.4864196777344 14.824352264404297 255.56593322753906 18.623931884765625"/>
    <path stroke-width="0" fill="rgb(188, 181, 170)" opacity="0.06998307" stroke="rgb(0, 0, 0)" stroke-opacity="0.0" stroke-linecap="round" stroke-linejoin="round" d="M 28.764005661010742 22.11977767944336 C 30.16478157043457 29.20384979248047 31.639699935913086 31.04425621032715 26.152751922607422 30.53485870361328 C 19.77142906188965 32.162872314453125 21.6322021484375 30.736574172973633 21.662561416625977 20.71470069885254 C 18.59732437133789 23.33173942565918 23.8767147064209 21.464065551757812 26.679718017578125 14.020146369934082 C 30.52363395690918 20.082828521728516 35.95667266845703 20.927549362182617 28.764005661010742 22.11977767944336"/>
    <path stroke-width="0" fill="rgb(173, 194, 27)" opacity="0.1571763" stroke="rgb(0, 0, 0)" stroke-opacity="0.0" stroke-linecap="round" stroke-linejoin="round" d="M 374.6156921386719 246.21615600585938 C 374.0032958984375 250.89585876464844 375.882080078125 255.3690643310547 369.8965148925781 254.19985961914062 C 367.9353942871094 256.64337158203125 370.1421813964844 252.24053955078125 370.0693664550781 247.7314910888672 C 368.7773132324219 249.3814697265625 370.0030822753906 245.93824768066406 367.08477783203125 245.46046447753906 C 368.4838562011719 247.36705017089844 372.4825134277344 247.9351348876953 374.6156921386719 246.21615600585938"/>
    <path stroke-width="0" fill="rgb(57, 137, 224)" opacity="0.0021838984" stroke="rgb(0, 0, 0)" stroke-opacity="0.0" stroke-linecap="round" stroke-linejoin="round" d="M 59.27131652832031 249.86819458007812 C 58.08847427368164 252.6416778564453 55.156612396240234 255.31634521484375 51.1966667175293 255.53106689453125 C 46.76950454711914 254.938720703125 43.90167999267578 252.80259704589844 44.84410095214844 250.33460998535156 C 47.79185485839844 247.8535614013672 50.10824966430664 243.6806182861328 50.72312927246094 239.67652893066406 C 54.14377975463867 242.27545166015625 56.21025848388672 245.59805297851562 59.27131652832031 249.86819458007812"/>
    <path stroke-width="0" fill="rgb(134, 131, 99)" opacity="0.48705807" stroke="rgb(0, 0, 0)" stroke-opacity="0.0" stroke-linecap="round" stroke-linejoin="round" d="M 28.80904197692871 302.8587646484375 C 28.15519142150879 306.3970947265625 28.448591232299805 311.9842224121094 23.067909240722656 310.1141357421875 C 20.190950393676758 314.31439208984375 20.253040313720703 308.9008483886719 18.463655471801758 303.4780578613281 C 18.975297927856445 302.7872009277344 22.343008041381836 297.2081298828125 22.321598052978516 297.0625305175781 C 28.760900497436523 298.260009765625 31.637691497802734 300.70062255859375 28.80904197692871 302.8587646484375"/>
    <path stroke-width="0" fill="rgb(59, 126, 143)" opacity="0.57105416" stroke="rgb(0, 0, 0)" stroke-opacity="0.0" stroke-linecap="round" stroke-linejoin="round" d="M 70.7086181640625 53.17426681518555 C 71.60284423828125 57.40209197998047 69.56185150146484 58.272647857666016 66.75757598876953 56.89784240722656 C 61.92835998535156 55.55351638793945 56.88917922973633 54.996551513671875 54.920650482177734 53.82084274291992 C 60.265987396240234 50.20634078979492 62.51966857910156 47.77023696899414 65.69639587402344 49.06415557861328 C 64.63858032226562 47.30214309692383 67.7928237915039 52.108890533447266 70.7086181640625 53.17426681518555"/>
    <path stroke-width="0" fill="rgb(97, 75, 224)" opacity="-0.012037939" stroke="rgb(0, 0, 0)" stroke-opacity="0.0" stroke-linecap="round" stroke-linejoin="round" d="M 355.5971984863281 109.46170806884766 C 356.77197265625 115.0876235961914 355.99066162109375 118.35552978515625 351.7203369140625 116.59849548339844 C 347.52880859375 115.70681762695312 344.4801330566406 112.89191436767578 344.8985595703125 108.58555603027344 C 343.360595703125 103.34515380859375 344.57977294921875 101.46208953857422 349.98260498046875 102.36563873291016 C 355.4090881347656 101.91609191894531 356.5726013183594 104.61067962646484 355.5971984863281 109.46170806884766"/>
    <path stroke-width="0" fill="rgb(87, 115, 88)" opacity="0.6636213" stroke="rgb(0, 0, 0)" stroke-opacity="0.0" stroke-linecap="round" stroke-linejoin="round" d="M 498.58990478515625 210.14639282226562 C 493.18023681640625 213.17591857910156 491.289306640625 217.2736358642578 494.498291015625 219.5916290283203 C 488.7380065917969 220.12503051757812 485.9396057128906 220.13174438476562 486.9543151855469 217.36952209472656 C 486.5953369140625 210.8181610107422 489.2498474121094 206.59530639648438 489.45892333984375 211.24969482421875 C 493.7745666503906 210.5915069580078 499.2543029785156 212.37525939941406 498.58990478515625 210.14639282226562"/>
    <path stroke-width="0" fill="rgb(202, 128, 33)" opacity="0.3384808" stroke="rgb(0, 0, 0)" stroke-opacity="0.0" stroke-linecap="round" stroke-linejoin="round" d="M 414.765380859375 124.40348815917969 C 412.2920837402344 125.90071105957031 411.03253173828125 132.06663513183594 411.5635986328125 133.08702087402344 C 402.7570495605469 134.13034057617188 404.17901611328125 133.12269592285156 403.6286315917969 127.1148452758789 C 405.50201416015625 125.88851928710938 410.073974609375 123.14646911621094 411.07611083984375 122.13143157958984 C 410.0143737792969 123.30589294433594 413.1029357910156 126.47863006591797 414.765380859375 124.40348815917969"/>
    <path stroke-width="0" fill="rgb(231, 77, 161)" opacity="-0.009400647" stroke="rgb(0, 0, 0)" stroke-opacity="0.0" stroke-linecap="round" stroke-linejoin="round" d="M 189.7357940673828 213.78884887695312 C 185.91896057128906 216.5452423095703 183.15435791015625 220.24900817871094 180.9800567626953 222.9221954345703 C 179.2802734375 223.98922729492188 176.7904052734375 219.86959838867188 176.78939819335938 216.33074951171875 C 176.0481414794922 210.65631103515625 177.0171356201172 206.10057067871094 180.60787963867188 209.15208435058594 C 187.40110778808594 210.28775024414062 190.4618682861328 211.2696075439453 189.7357940673828 213.78884887695312"/>
    <path stroke-width="0" fill="rgb(2, 150, 120)" opacity="0.1548378" stroke="rgb(0, 0, 0)" stroke-opacity="0.0" stroke-linecap="round" stroke-linejoin="round" d="M 411.1262512207031 493.0808410644531 C 413.8581237792969 495.43408203125 407.78167724609375 494.3800964355469 397.4826965332031 493.1231689453125 C 396.254638671875 497.8934326171875 395.8488464355469 494.46148681640625 391.2474060058594 487.2602844238281 C 394.8700866699219 485.21282958984375 398.4330139160156 482.65252685546875 401.5707702636719 479.69140625 C 406.9364013671875 482.49871826171875 408.0716857910156 487.10943603515625 411.1262512207031 493.0808410644531"/>
  </g>
</svg>
