<?xml version="1.0" ?>
<svg xmlns="http://www.w3.org/2000/svg" version="1.1" width="512" height="512">
  <defs/>
  <g>
    <path stroke-width="0" fill="rgb(90, 95, 92)" opacity="0.98122704" stroke="rgb(139, 182, 153)" stroke-opacity="1.0" stroke-linecap="round" stroke-linejoin="round" d="M 540.8500366210938 307.6844787597656 C 578.2432250976562 717.5508422851562 523.9196166992188 607.5655517578125 409.77728271484375 560.2735595703125 C -4.815953731536865 574.9983520507812 -43.95188903808594 610.2658081054688 -51.99632263183594 372.31396484375 C -35.529502868652344 305.1559143066406 -20.042537689208984 302.2029724121094 -56.05521774291992 327.713134765625 C 171.2095947265625 412.8582458496094 275.00738525390625 446.0199279785156 540.8500366210938 307.6844787597656"/>
    <path stroke-width="0" fill="rgb(161, 142, 107)" opacity="1.0469165" stroke="rgb(108, 164, 111)" stroke-opacity="1.0" stroke-linecap="round" stroke-linejoin="round" d="M 531.5322265625 -27.254669189453125 C 497.6595764160156 128.6095733642578 518.7265014648438 204.41995239257812 362.9393615722656 226.4453887939453 C 186.41360473632812 231.99630737304688 165.41819763183594 297.5313720703125 168.882568359375 -7.097396373748779 C 210.9188232421875 -99.50502014160156 286.98626708984375 -51.62980651855469 403.1378173828125 -41.173099517822266 C 511.8313903808594 -42.366355895996094 529.109375 -45.23481750488281 531.5322265625 -27.254669189453125"/>
    <path stroke-width="0" fill="rgb(33, 49, 47)" opacity="0.7269883" stroke="rgb(245, 97, 201)" stroke-opacity="1.0" stroke-linecap="round" stroke-linejoin="round" d="M 186.22105407714844 178.57017517089844 C 188.73696899414062 353.17236328125 169.4693603515625 379.19793701171875 237.79571533203125 419.2998352050781 C -50.53746032714844 421.406494140625 -52.76126480102539 407.383056640625 -49.16554641723633 372.32537841796875 C -52.37535095214844 79.1630859375 -55.43769836425781 54.96458435058594 -14.198997497558594 -48.67791748046875 C 359.4323425292969 -46.7017936706543 345.7967224121094 -5.9992289543151855 186.22105407714844 178.57017517089844"/>
    <path stroke-width="0" fill="rgb(63, 26, 11)" opacity="1.0010165" stroke="rgb(144, 236, 18)" stroke-opacity="1.0" stroke-linecap="round" stroke-linejoin="round" d="M 567.6326293945312 413.5644836425781 C 629.1639404296875 460.2135314941406 659.1139526367188 466.1148681640625 293.580322265625 420.587890625 C 328.67413330078125 149.35537719726562 288.3747253417969 390.4832763671875 308.564208984375 173.4414520263672 C 259.68145751953125 -81.63513946533203 338.8593444824219 -53.27495193481445 483.1876525878906 -40.14474868774414 C 578.5626220703125 -28.153284072875977 566.8272094726562 -10.542065620422363 567.6326293945312 413.5644836425781"/>
    <path stroke-width="0" fill="rgb(45, 29, 11)" opacity="0.97177345" stroke="rgb(5, 212, 198)" stroke-opacity="1.0" stroke-linecap="round" stroke-linejoin="round" d="M 192.4891815185547 280.728271484375 C 171.91867065429688 276.022705078125 249.81619262695312 471.60498046875 184.65509033203125 439.9617919921875 C 216.1404571533203 289.14886474609375 -37.048133850097656 198.44418334960938 84.50346374511719 128.7704315185547 C 54.80670928955078 185.76080322265625 56.85399627685547 178.39462280273438 32.14723587036133 232.8584442138672 C 104.10704803466797 236.94874572753906 217.02743530273438 169.43397521972656 192.4891815185547 280.728271484375"/>
    <path stroke-width="0" fill="rgb(29, 20, 1)" opacity="0.9752165" stroke="rgb(249, 203, 117)" stroke-opacity="1.0" stroke-linecap="round" stroke-linejoin="round" d="M 352.19390869140625 116.24638366699219 C 346.2064514160156 190.16659545898438 297.19189453125 156.50369262695312 249.00619506835938 172.31976318359375 C 99.55420684814453 83.85543823242188 -6.640719413757324 197.01055908203125 54.904537200927734 76.38053894042969 C 82.73944854736328 -26.137266159057617 92.3554458618164 -30.492427825927734 196.02586364746094 -27.82371711730957 C 219.4092254638672 -42.56410217285156 282.703369140625 -81.29671478271484 352.19390869140625 116.24638366699219"/>
    <path stroke-width="0" fill="rgb(88, 98, 97)" opacity="1.0073866" stroke="rgb(30, 163, 36)" stroke-opacity="1.0" stroke-linecap="round" stroke-linejoin="round" d="M 578.4916381835938 404.7875671386719 C 694.0384521484375 439.3053894042969 846.5838012695312 529.8840942382812 255.5745849609375 515.598388671875 C 445.02227783203125 193.01536560058594 287.1564636230469 300.5697326660156 319.08404541015625 111.70844268798828 C 382.51251220703125 -29.16814613342285 409.599853515625 -14.719340324401855 485.2698974609375 -32.283477783203125 C 565.7853393554688 -14.515660285949707 562.3096313476562 3.841090679168701 578.4916381835938 404.7875671386719"/>
    <path stroke-width="0" fill="rgb(89, 100, 94)" opacity="0.9569765" stroke="rgb(133, 105, 67)" stroke-opacity="1.0" stroke-linecap="round" stroke-linejoin="round" d="M 123.95523834228516 64.30760955810547 C 121.37223052978516 114.06250762939453 114.05818939208984 129.4079132080078 76.23677062988281 139.93887329101562 C -16.29146385192871 136.26095581054688 -27.16850471496582 131.9363250732422 -34.6273307800293 46.681907653808594 C -28.461292266845703 -17.69627571105957 -20.302188873291016 -27.176698684692383 45.96080017089844 -28.46472930908203 C 108.66712188720703 -1.4086799621582031 113.2810287475586 8.906172752380371 123.95523834228516 64.30760955810547"/>
    <path stroke-width="0" fill="rgb(91, 99, 96)" opacity="0.8822141" stroke="rgb(116, 144, 4)" stroke-opacity="1.0" stroke-linecap="round" stroke-linejoin="round" d="M 111.41699981689453 55.975860595703125 C 66.32942199707031 178.8575897216797 92.4009017944336 210.25491333007812 -9.794218063354492 337.2696838378906 C -40.7213249206543 243.1691131591797 -35.085670471191406 217.4142608642578 -35.31117630004883 95.7463150024414 C -23.622997283935547 68.08193969726562 -14.69981861114502 60.773597717285156 80.35874938964844 59.65795135498047 C 120.2291488647461 65.65811920166016 131.292236328125 71.33975982666016 111.41699981689453 55.975860595703125"/>
    <path stroke-width="0" fill="rgb(91, 98, 95)" opacity="1.0066812" stroke="rgb(156, 157, 240)" stroke-opacity="1.0" stroke-linecap="round" stroke-linejoin="round" d="M 234.04730224609375 41.83252716064453 C 209.82264709472656 120.84738159179688 188.8370361328125 115.595458984375 117.94566345214844 108.8392333984375 C 49.67818832397461 107.39161682128906 45.7620849609375 88.68147277832031 33.24240493774414 1.6353083848953247 C 31.9399471282959 -31.349824905395508 42.58242416381836 -35.89471435546875 94.07343292236328 -37.2251091003418 C 221.00262451171875 -91.22877502441406 218.34335327148438 -78.42567443847656 234.04730224609375 41.83252716064453"/>
    <path stroke-width="0" fill="rgb(91, 98, 99)" opacity="1.0067194" stroke="rgb(91, 111, 177)" stroke-opacity="1.0" stroke-linecap="round" stroke-linejoin="round" d="M 196.2397918701172 129.289794921875 C 160.30909729003906 360.704833984375 144.3995361328125 66.23054504394531 165.122802734375 538.3541870117188 C -127.01535034179688 550.3731079101562 -88.73860168457031 495.13446044921875 -25.454343795776367 437.3390197753906 C 52.028411865234375 112.65135955810547 52.200042724609375 76.12916564941406 333.2821960449219 67.20918273925781 C 272.7275085449219 26.5102596282959 267.75299072265625 192.55787658691406 196.2397918701172 129.289794921875"/>
    <path stroke-width="0" fill="rgb(93, 98, 98)" opacity="0.9209505" stroke="rgb(170, 171, 53)" stroke-opacity="1.0" stroke-linecap="round" stroke-linejoin="round" d="M 523.4248657226562 -0.517291784286499 C 495.41046142578125 119.65492248535156 598.7341918945312 165.44996643066406 266.475341796875 237.76620483398438 C 398.1120910644531 178.951904296875 252.4061737060547 162.5421600341797 199.79730224609375 -19.230762481689453 C 304.89898681640625 -86.0112533569336 335.77398681640625 -53.68967056274414 387.0159606933594 -45.11587142944336 C 518.9805908203125 -42.30170822143555 528.1303100585938 -37.58413314819336 523.4248657226562 -0.517291784286499"/>
    <path stroke-width="0" fill="rgb(102, 107, 108)" opacity="0.93683857" stroke="rgb(80, 92, 145)" stroke-opacity="1.0" stroke-linecap="round" stroke-linejoin="round" d="M 415.7714538574219 -1.3213491439819336 C 428.1914367675781 174.71559143066406 278.15826416015625 55.33838653564453 284.6623840332031 58.37621307373047 C 107.17926788330078 55.27280807495117 174.53831481933594 96.32623291015625 148.82911682128906 -25.90323257446289 C 154.8877716064453 -31.89655303955078 169.101806640625 -29.487001419067383 216.2349853515625 -28.543506622314453 C 271.21038818359375 -37.61959457397461 283.8244323730469 -37.228580474853516 415.7714538574219 -1.3213491439819336"/>
    <path stroke-width="0" fill="rgb(114, 119, 89)" opacity="0.5602834" stroke="rgb(252, 26, 53)" stroke-opacity="1.0" stroke-linecap="round" stroke-linejoin="round" d="M 233.9330596923828 75.11274719238281 C 229.70140075683594 88.0399398803711 218.15216064453125 92.10853576660156 200.8082275390625 94.06848907470703 C 148.76718139648438 95.73760986328125 153.36436462402344 87.8512191772461 139.5056915283203 25.017684936523438 C 138.814208984375 12.587146759033203 141.96324157714844 0.5620885491371155 152.33384704589844 -8.77667236328125 C 206.89376831054688 46.69283676147461 237.2498016357422 -0.6039508581161499 233.9330596923828 75.11274719238281"/>
    <path stroke-width="0" fill="rgb(92, 98, 98)" opacity="0.9953057" stroke="rgb(166, 64, 118)" stroke-opacity="1.0" stroke-linecap="round" stroke-linejoin="round" d="M 243.0229034423828 59.80575942993164 C 188.37582397460938 56.393245697021484 222.61862182617188 79.34886932373047 223.34413146972656 99.84280395507812 C 200.2271270751953 12.608541488647461 150.42581176757812 145.357421875 133.2758026123047 1.3194358348846436 C 136.17623901367188 -13.566951751708984 141.1932373046875 -23.38432502746582 149.4307861328125 -27.903566360473633 C 322.1361083984375 -21.38291358947754 270.8464660644531 1.4608380794525146 243.0229034423828 59.80575942993164"/>
    <path stroke-width="0" fill="rgb(225, 216, 214)" opacity="0.7851751" stroke="rgb(40, 28, 167)" stroke-opacity="1.0" stroke-linecap="round" stroke-linejoin="round" d="M 294.3424072265625 213.21237182617188 C 242.6648712158203 212.0590362548828 269.3766174316406 245.88082885742188 301.8665771484375 218.35748291015625 C 298.30108642578125 212.8534698486328 258.271484375 218.093505859375 274.186279296875 228.9530792236328 C 216.42054748535156 231.33050537109375 297.8473815917969 192.17242431640625 236.41622924804688 189.56591796875 C 284.8025817871094 122.633056640625 330.6884460449219 198.52085876464844 294.3424072265625 213.21237182617188"/>
    <path stroke-width="0" fill="rgb(249, 254, 254)" opacity="0.98769015" stroke="rgb(50, 94, 209)" stroke-opacity="1.0" stroke-linecap="round" stroke-linejoin="round" d="M 288.637939453125 201.23995971679688 C 301.0803527832031 153.94200134277344 334.63720703125 197.26841735839844 242.10321044921875 241.4268035888672 C 282.4332275390625 104.30924224853516 202.44822692871094 308.10833740234375 188.3286895751953 178.7348175048828 C 284.93817138671875 180.5359344482422 276.9988708496094 130.49130249023438 307.5517272949219 169.61314392089844 C 285.88702392578125 180.60902404785156 276.795654296875 200.73497009277344 288.637939453125 201.23995971679688"/>
    <path stroke-width="0" fill="rgb(-5, 6, -5)" opacity="1.0044795" stroke="rgb(213, 24, 248)" stroke-opacity="1.0" stroke-linecap="round" stroke-linejoin="round" d="M 296.053466796875 189.0134735107422 C 307.8630065917969 186.79454040527344 316.1702880859375 198.29171752929688 304.11383056640625 188.99977111816406 C 314.1125183105469 182.3469696044922 270.1828308105469 158.39859008789062 262.1517333984375 189.58535766601562 C 278.9181823730469 210.6805877685547 296.1645202636719 188.30633544921875 308.4800109863281 185.83497619628906 C 274.2572326660156 180.2926025390625 298.6871643066406 201.67437744140625 296.053466796875 189.0134735107422"/>
    <path stroke-width="0" fill="rgb(42, 25, -1)" opacity="0.82975495" stroke="rgb(249, 154, 188)" stroke-opacity="1.0" stroke-linecap="round" stroke-linejoin="round" d="M 358.61016845703125 419.09124755859375 C 329.6732482910156 423.8800048828125 403.76251220703125 406.4770812988281 193.41957092285156 440.8569641113281 C 169.9840545654297 383.24945068359375 83.69574737548828 397.5523986816406 322.24945068359375 398.1947937011719 C 367.40179443359375 424.8742370605469 352.1842346191406 420.99298095703125 357.0251770019531 395.8427734375 C 303.4460754394531 402.6974792480469 291.2487487792969 378.7406921386719 358.61016845703125 419.09124755859375"/>
    <path stroke-width="0" fill="rgb(255, 248, 257)" opacity="0.99398345" stroke="rgb(72, 30, 75)" stroke-opacity="1.0" stroke-linecap="round" stroke-linejoin="round" d="M 316.27178955078125 419.24896240234375 C 325.9654846191406 462.23406982421875 285.33648681640625 424.164306640625 254.6177978515625 427.806396484375 C 249.21051025390625 428.1744689941406 254.52688598632812 415.5927429199219 252.0625762939453 400.8063049316406 C 256.65338134765625 393.4529724121094 250.3450164794922 424.2555236816406 252.91477966308594 423.89776611328125 C 249.8643341064453 418.077392578125 251.08609008789062 419.857666015625 316.27178955078125 419.24896240234375"/>
    <path stroke-width="0" fill="rgb(241, 146, -13)" opacity="0.994904" stroke="rgb(81, 105, 16)" stroke-opacity="1.0" stroke-linecap="round" stroke-linejoin="round" d="M 271.0616455078125 386.1216125488281 C 302.0738525390625 387.4870300292969 266.28778076171875 429.72686767578125 268.5808410644531 416.9332580566406 C 201.37228393554688 415.35089111328125 234.95896911621094 424.31268310546875 218.86102294921875 390.1884765625 C 220.4410400390625 393.3146667480469 240.2749481201172 371.7421569824219 234.89254760742188 412.44232177734375 C 218.31654357910156 383.881591796875 271.2441711425781 414.1020202636719 271.0616455078125 386.1216125488281"/>
    <path stroke-width="0" fill="rgb(116, 85, 24)" opacity="0.99627715" stroke="rgb(144, 67, 133)" stroke-opacity="1.0" stroke-linecap="round" stroke-linejoin="round" d="M 287.8377990722656 192.94862365722656 C 274.4292297363281 145.66529846191406 243.07492065429688 217.5931396484375 300.09112548828125 186.16253662109375 C 284.95953369140625 203.64024353027344 270.5278625488281 210.21170043945312 260.5602111816406 190.68142700195312 C 256.33056640625 168.83116149902344 289.6313781738281 158.8518829345703 289.9466552734375 181.2080535888672 C 313.2289733886719 180.8563232421875 298.0164489746094 183.34548950195312 287.8377990722656 192.94862365722656"/>
    <path stroke-width="0" fill="rgb(258, 257, 253)" opacity="0.98585933" stroke="rgb(33, 182, 73)" stroke-opacity="1.0" stroke-linecap="round" stroke-linejoin="round" d="M 312.03570556640625 183.7825469970703 C 316.64202880859375 186.20343017578125 309.1364440917969 236.5985565185547 262.99700927734375 228.9760284423828 C 274.08758544921875 208.13375854492188 296.1792907714844 218.0743865966797 296.83349609375 221.40321350097656 C 277.83404541015625 221.44268798828125 305.7074279785156 197.24676513671875 284.39178466796875 151.1202392578125 C 310.0063781738281 151.96792602539062 317.36669921875 191.05126953125 312.03570556640625 183.7825469970703"/>
    <path stroke-width="0" fill="rgb(244, 259, 256)" opacity="0.97116065" stroke="rgb(149, 5, 211)" stroke-opacity="1.0" stroke-linecap="round" stroke-linejoin="round" d="M 507.0494689941406 493.8578186035156 C 469.76947021484375 473.0009765625 413.5684814453125 439.6173400878906 541.613525390625 514.4635009765625 C 426.1431884765625 421.9140319824219 418.835205078125 407.3681640625 398.01922607421875 387.27789306640625 C 372.35052490234375 354.3576354980469 312.766845703125 274.00482177734375 358.3338623046875 345.36846923828125 C 422.73187255859375 424.9466552734375 432.4777526855469 431.4490966796875 507.0494689941406 493.8578186035156"/>
    <path stroke-width="0" fill="rgb(34, 12, -3)" opacity="0.9173015" stroke="rgb(172, 68, 187)" stroke-opacity="1.0" stroke-linecap="round" stroke-linejoin="round" d="M 281.3041687011719 391.09332275390625 C 274.0211181640625 459.54010009765625 338.2905578613281 373.3242492675781 313.95220947265625 441.9537658691406 C 302.7137756347656 445.58807373046875 286.10675048828125 425.6910705566406 297.94049072265625 440.49566650390625 C 298.627197265625 449.3670654296875 290.6712951660156 341.5570983886719 311.765380859375 397.0635070800781 C 428.64892578125 391.8530578613281 283.4024963378906 418.62469482421875 281.3041687011719 391.09332275390625"/>
    <path stroke-width="0" fill="rgb(87, 100, 98)" opacity="1.0008813" stroke="rgb(63, 146, 150)" stroke-opacity="1.0" stroke-linecap="round" stroke-linejoin="round" d="M 494.7806091308594 -3.4907755851745605 C 184.97999572753906 154.72059631347656 387.2816467285156 157.50198364257812 224.56198120117188 135.0440216064453 C 152.90304565429688 48.38365173339844 217.1739044189453 383.3348388671875 -19.74810791015625 488.4924011230469 C -44.10455322265625 28.266714096069336 160.3125762939453 74.78112030029297 123.10565185546875 55.91610336303711 C 276.30645751953125 61.03850555419922 296.1712951660156 90.1838607788086 494.7806091308594 -3.4907755851745605"/>
    <path stroke-width="0" fill="rgb(51, 38, 13)" opacity="0.91735345" stroke="rgb(56, 242, 114)" stroke-opacity="1.0" stroke-linecap="round" stroke-linejoin="round" d="M 223.1402130126953 174.29685974121094 C 243.3225555419922 159.78042602539062 245.60653686523438 202.0422821044922 229.46409606933594 201.7071075439453 C 207.5368194580078 215.03646850585938 191.38983154296875 163.69464111328125 232.99659729003906 167.5059356689453 C 237.54417419433594 178.73501586914062 217.00601196289062 174.80117797851562 230.72396850585938 175.9951629638672 C 185.22653198242188 186.50697326660156 244.43360900878906 162.3617706298828 223.1402130126953 174.29685974121094"/>
    <path stroke-width="0" fill="rgb(251, 258, 246)" opacity="0.9675567" stroke="rgb(224, 148, 224)" stroke-opacity="1.0" stroke-linecap="round" stroke-linejoin="round" d="M 86.95535278320312 425.0860900878906 C 78.66133880615234 426.1084289550781 80.90431213378906 431.75146484375 69.33619689941406 439.5384826660156 C 82.2177963256836 435.82635498046875 82.58856201171875 415.2798156738281 47.82548522949219 463.4293212890625 C 53.008689880371094 452.0282287597656 135.94525146484375 391.6445007324219 173.532470703125 302.6106872558594 C 81.04669189453125 450.0699462890625 47.625152587890625 437.46197509765625 86.95535278320312 425.0860900878906"/>
    <path stroke-width="0" fill="rgb(255, 186, -8)" opacity="0.9941191" stroke="rgb(184, 127, 243)" stroke-opacity="1.0" stroke-linecap="round" stroke-linejoin="round" d="M 262.62890625 206.5823516845703 C 270.4761657714844 207.7237548828125 319.3089599609375 181.78182983398438 266.49017333984375 173.55921936035156 C 299.5184020996094 164.50015258789062 288.0470275878906 185.86605834960938 267.3377990722656 219.48971557617188 C 296.9658508300781 216.64808654785156 293.64788818359375 212.24346923828125 276.1322937011719 213.53025817871094 C 258.6779479980469 210.7726287841797 277.4025573730469 241.2899627685547 262.62890625 206.5823516845703"/>
    <path stroke-width="0" fill="rgb(256, 257, 258)" opacity="1.0147563" stroke="rgb(108, 154, 4)" stroke-opacity="1.0" stroke-linecap="round" stroke-linejoin="round" d="M 263.0136413574219 173.63514709472656 C 226.4779510498047 187.6860809326172 229.3894500732422 143.77700805664062 199.3781280517578 187.2374725341797 C 193.867919921875 251.9837646484375 172.20480346679688 170.0917510986328 208.000244140625 153.9310302734375 C 209.54043579101562 141.38111877441406 216.36611938476562 149.31361389160156 207.42227172851562 139.94825744628906 C 197.03990173339844 139.17953491210938 205.197998046875 155.64401245117188 263.0136413574219 173.63514709472656"/>
    <path stroke-width="0" fill="rgb(23, 10, 1)" opacity="0.87604094" stroke="rgb(168, 73, 157)" stroke-opacity="1.0" stroke-linecap="round" stroke-linejoin="round" d="M 184.20849609375 221.01634216308594 C 191.94166564941406 225.07583618164062 190.9818878173828 210.85040283203125 190.1938018798828 217.88449096679688 C 231.39599609375 260.06402587890625 267.6165771484375 219.94773864746094 253.08987426757812 226.27455139160156 C 199.33372497558594 237.5298614501953 184.45545959472656 206.3919219970703 185.1425323486328 169.39334106445312 C 176.75099182128906 222.42990112304688 202.97010803222656 227.62437438964844 184.20849609375 221.01634216308594"/>
    <path stroke-width="0" fill="rgb(41, 6, -5)" opacity="0.90574074" stroke="rgb(34, 76, 145)" stroke-opacity="1.0" stroke-linecap="round" stroke-linejoin="round" d="M 229.49246215820312 147.2493438720703 C 212.36575317382812 134.99899291992188 199.8641815185547 168.53860473632812 183.09295654296875 171.08058166503906 C 176.74810791015625 238.03787231445312 191.0412139892578 148.69993591308594 201.9233856201172 151.987060546875 C 181.26779174804688 152.0989227294922 190.48941040039062 118.29605865478516 187.56675720214844 117.6666259765625 C 194.07208251953125 134.43370056152344 213.1859130859375 136.41351318359375 229.49246215820312 147.2493438720703"/>
    <path stroke-width="0" fill="rgb(249, 178, 0)" opacity="1.0000045" stroke="rgb(146, 166, 166)" stroke-opacity="1.0" stroke-linecap="round" stroke-linejoin="round" d="M 227.6224822998047 197.3716583251953 C 248.1179962158203 145.73939514160156 184.3882598876953 181.46873474121094 225.03750610351562 199.63145446777344 C 261.3627624511719 188.5977325439453 220.4698486328125 155.55239868164062 233.2361297607422 181.07496643066406 C 213.7878875732422 174.10618591308594 217.6455078125 181.44635009765625 225.40367126464844 180.90916442871094 C 217.836181640625 174.89068603515625 205.81948852539062 180.21951293945312 227.6224822998047 197.3716583251953"/>
    <path stroke-width="0" fill="rgb(10, 6, -4)" opacity="0.88812464" stroke="rgb(205, 179, 25)" stroke-opacity="1.0" stroke-linecap="round" stroke-linejoin="round" d="M 268.5531921386719 401.4561462402344 C 265.48187255859375 384.0427551269531 278.058349609375 389.8702392578125 283.1453857421875 396.6368103027344 C 278.96087646484375 390.6848449707031 264.7862548828125 378.3702087402344 271.00054931640625 409.20013427734375 C 269.6851806640625 429.01885986328125 273.4731750488281 415.909423828125 299.57025146484375 418.3818054199219 C 261.7730712890625 423.0911865234375 269.551513671875 410.55291748046875 268.5531921386719 401.4561462402344"/>
    <path stroke-width="0" fill="rgb(255, 234, 233)" opacity="0.6914919" stroke="rgb(182, 254, 38)" stroke-opacity="1.0" stroke-linecap="round" stroke-linejoin="round" d="M 287.5635681152344 136.4018096923828 C 291.8105163574219 154.70254516601562 280.950439453125 143.41734313964844 293.1166076660156 143.42286682128906 C 287.1305236816406 144.0379638671875 295.0830383300781 128.7880859375 286.90570068359375 161.9129180908203 C 292.2693176269531 170.2722930908203 295.9645690917969 160.79229736328125 276.7234802246094 161.91522216796875 C 283.9114074707031 160.88720703125 302.5194091796875 166.7198028564453 287.5635681152344 136.4018096923828"/>
    <path stroke-width="0" fill="rgb(42, 36, 33)" opacity="0.2674623" stroke="rgb(41, 156, 31)" stroke-opacity="1.0" stroke-linecap="round" stroke-linejoin="round" d="M 218.63421630859375 187.2123565673828 C 208.7464599609375 178.55389404296875 217.74342346191406 186.30926513671875 237.9228057861328 184.50296020507812 C 213.7388916015625 181.33709716796875 207.56143188476562 203.1212615966797 235.9829559326172 186.7212371826172 C 218.61376953125 172.28921508789062 232.37197875976562 164.14479064941406 222.31956481933594 195.8018035888672 C 237.79029846191406 184.95375061035156 216.6094512939453 169.439697265625 218.63421630859375 187.2123565673828"/>
    <path stroke-width="0" fill="rgb(242, 247, 258)" opacity="0.5785131" stroke="rgb(177, 115, 184)" stroke-opacity="1.0" stroke-linecap="round" stroke-linejoin="round" d="M 254.35365295410156 175.17254638671875 C 245.4699249267578 192.22605895996094 247.54750061035156 162.34217834472656 211.3960418701172 161.4182586669922 C 190.69639587402344 195.72300720214844 189.24853515625 154.4215545654297 225.03048706054688 163.83457946777344 C 236.55526733398438 163.01651000976562 248.32351684570312 178.16781616210938 257.8330993652344 174.94676208496094 C 206.54110717773438 129.908935546875 235.6667938232422 147.3240966796875 254.35365295410156 175.17254638671875"/>
    <path stroke-width="0" fill="rgb(244, 211, 27)" opacity="0.6508673" stroke="rgb(248, 218, 2)" stroke-opacity="1.0" stroke-linecap="round" stroke-linejoin="round" d="M 244.0613555908203 159.1520538330078 C 218.62477111816406 239.5554962158203 193.5021514892578 168.36473083496094 231.19395446777344 176.74737548828125 C 240.03965759277344 232.77740478515625 208.3502197265625 222.581298828125 237.52569580078125 204.5554962158203 C 195.6224365234375 185.21246337890625 214.4811248779297 156.53419494628906 242.60552978515625 189.49002075195312 C 206.35934448242188 184.3670654296875 252.57351684570312 178.6130828857422 244.0613555908203 159.1520538330078"/>
    <path stroke-width="0" fill="rgb(-7, 5, 3)" opacity="0.9445007" stroke="rgb(186, 43, 132)" stroke-opacity="1.0" stroke-linecap="round" stroke-linejoin="round" d="M 226.57643127441406 168.9302520751953 C 229.25230407714844 164.8091583251953 241.94720458984375 178.43832397460938 230.79420471191406 192.31655883789062 C 219.56643676757812 199.18527221679688 202.89100646972656 184.89431762695312 227.67355346679688 169.93475341796875 C 207.46746826171875 184.01380920410156 254.962646484375 167.9407958984375 232.62791442871094 181.5052947998047 C 225.33033752441406 169.2149200439453 256.5744323730469 178.5556640625 226.57643127441406 168.9302520751953"/>
    <path stroke-width="0" fill="rgb(37, 18, 9)" opacity="0.9138231" stroke="rgb(88, 236, 179)" stroke-opacity="1.0" stroke-linecap="round" stroke-linejoin="round" d="M 283.6002197265625 232.4442901611328 C 239.81707763671875 206.20840454101562 211.68006896972656 226.4608917236328 227.07550048828125 215.9221954345703 C 268.34869384765625 224.68142700195312 242.99354553222656 230.1725311279297 215.8197021484375 234.39881896972656 C 254.45928955078125 232.7370147705078 227.78416442871094 228.99227905273438 251.31727600097656 231.73043823242188 C 226.15489196777344 244.4293212890625 195.26637268066406 221.43731689453125 283.6002197265625 232.4442901611328"/>
    <path stroke-width="0" fill="rgb(76, 78, 66)" opacity="0.7445243" stroke="rgb(41, 158, 147)" stroke-opacity="1.0" stroke-linecap="round" stroke-linejoin="round" d="M 186.28082275390625 224.86614990234375 C 195.7271728515625 187.66481018066406 172.75494384765625 216.3583984375 159.35081481933594 279.07061767578125 C 184.0310516357422 203.70901489257812 181.48379516601562 200.72067260742188 192.6193084716797 218.11639404296875 C 184.908447265625 202.50425720214844 201.03244018554688 236.29086303710938 174.31149291992188 218.5208740234375 C 170.1834259033203 228.79580688476562 170.95260620117188 223.1497344970703 186.28082275390625 224.86614990234375"/>
    <path stroke-width="0" fill="rgb(53, 30, 7)" opacity="0.8648444" stroke="rgb(238, 156, 136)" stroke-opacity="1.0" stroke-linecap="round" stroke-linejoin="round" d="M 182.44134521484375 329.1368103027344 C 168.40609741210938 279.9515075683594 164.7194061279297 294.94775390625 177.84326171875 292.0063781738281 C 194.47886657714844 351.4196472167969 200.64503479003906 275.91363525390625 175.7802276611328 280.974365234375 C 180.07334899902344 355.78204345703125 180.93679809570312 258.70233154296875 162.4938507080078 318.638427734375 C 151.0646514892578 314.3363037109375 169.07481384277344 326.28851318359375 182.44134521484375 329.1368103027344"/>
    <path stroke-width="0" fill="rgb(248, 253, 253)" opacity="0.7467656" stroke="rgb(186, 79, 101)" stroke-opacity="1.0" stroke-linecap="round" stroke-linejoin="round" d="M 219.2866973876953 160.29852294921875 C 262.7946472167969 178.70309448242188 259.9102783203125 202.76344299316406 243.3972930908203 171.26687622070312 C 208.55038452148438 149.4958038330078 191.49420166015625 190.82643127441406 198.4186248779297 202.91273498535156 C 199.87368774414062 146.59165954589844 220.21310424804688 155.0880889892578 199.92694091796875 174.336669921875 C 198.70159912109375 168.5310516357422 203.26760864257812 171.258056640625 219.2866973876953 160.29852294921875"/>
    <path stroke-width="0" fill="rgb(254, 262, 245)" opacity="0.94670284" stroke="rgb(47, 240, 188)" stroke-opacity="1.0" stroke-linecap="round" stroke-linejoin="round" d="M 248.20303344726562 193.04827880859375 C 333.9884948730469 238.28834533691406 289.63671875 225.1044921875 214.73780822753906 227.4892120361328 C 205.2567596435547 209.138427734375 224.4898681640625 211.80807495117188 197.4118194580078 213.55235290527344 C 236.97865295410156 196.98516845703125 240.03726196289062 198.2808380126953 244.8568572998047 211.42205810546875 C 248.23118591308594 218.98255920410156 250.39547729492188 231.31729125976562 248.20303344726562 193.04827880859375"/>
    <path stroke-width="0" fill="rgb(56, 40, 16)" opacity="0.82487077" stroke="rgb(57, 64, 14)" stroke-opacity="1.0" stroke-linecap="round" stroke-linejoin="round" d="M 307.7779541015625 317.9527893066406 C 323.1880187988281 328.9678649902344 311.7589111328125 305.70416259765625 318.3086853027344 342.566162109375 C 292.93182373046875 318.47314453125 334.2022399902344 317.8078918457031 315.6694641113281 300.5982971191406 C 309.33447265625 324.09771728515625 322.6808166503906 327.6055603027344 313.0644836425781 298.83953857421875 C 347.41693115234375 272.5030212402344 328.0819396972656 267.9698181152344 307.7779541015625 317.9527893066406"/>
    <path stroke-width="0" fill="rgb(254, 252, 248)" opacity="0.9807628" stroke="rgb(6, 17, 173)" stroke-opacity="1.0" stroke-linecap="round" stroke-linejoin="round" d="M 286.3955078125 209.68679809570312 C 302.7923278808594 195.8773956298828 289.0563049316406 228.399169921875 287.82733154296875 231.27110290527344 C 319.3589172363281 235.49490356445312 312.0343933105469 222.6966094970703 263.790771484375 217.1734619140625 C 250.78823852539062 205.1145477294922 275.59869384765625 199.6442108154297 297.26934814453125 203.1555633544922 C 281.3742370605469 203.02772521972656 308.0054931640625 215.2530517578125 286.3955078125 209.68679809570312"/>
    <path stroke-width="0" fill="rgb(244, 250, 250)" opacity="0.3778771" stroke="rgb(169, 67, 5)" stroke-opacity="1.0" stroke-linecap="round" stroke-linejoin="round" d="M 188.52313232421875 229.3417510986328 C 213.29776000976562 253.4381561279297 226.61343383789062 228.36155700683594 238.84385681152344 202.4187469482422 C 206.9088134765625 217.41175842285156 197.5699462890625 209.86459350585938 200.09597778320312 208.31301879882812 C 176.8937225341797 233.9367218017578 238.6507568359375 241.6766815185547 243.71795654296875 223.38693237304688 C 214.6542510986328 191.1829376220703 214.63165283203125 191.11729431152344 188.52313232421875 229.3417510986328"/>
    <path stroke-width="0" fill="rgb(250, 261, 250)" opacity="0.9914863" stroke="rgb(81, 97, 150)" stroke-opacity="1.0" stroke-linecap="round" stroke-linejoin="round" d="M 106.16747283935547 401.466064453125 C 59.20783996582031 463.4491271972656 -11.349308013916016 501.0298156738281 -16.10247230529785 523.2710571289062 C -3.401204824447632 481.1339111328125 -55.95347595214844 505.5627746582031 -29.504064559936523 488.4368591308594 C -10.254148483276367 494.6418762207031 12.557779312133789 509.9571228027344 -22.945613861083984 521.68505859375 C -23.00006103515625 507.3354187011719 -4.2911176681518555 503.7755432128906 106.16747283935547 401.466064453125"/>
    <path stroke-width="0" fill="rgb(19, 9, -2)" opacity="0.87360305" stroke="rgb(47, 242, 175)" stroke-opacity="1.0" stroke-linecap="round" stroke-linejoin="round" d="M 298.78497314453125 229.86822509765625 C 330.91131591796875 189.72210693359375 308.1047668457031 214.2928009033203 282.906005859375 228.3619384765625 C 239.66046142578125 230.41964721679688 277.040771484375 227.53250122070312 266.8616638183594 231.08363342285156 C 258.98553466796875 222.27194213867188 227.81846618652344 234.66314697265625 276.6209716796875 230.9256134033203 C 245.9220733642578 223.6470947265625 258.18756103515625 252.0887908935547 298.78497314453125 229.86822509765625"/>
    <path stroke-width="0" fill="rgb(41, 11, 0)" opacity="1.03659" stroke="rgb(132, 6, 52)" stroke-opacity="1.0" stroke-linecap="round" stroke-linejoin="round" d="M 308.18609619140625 136.8939666748047 C 275.1923522949219 147.22723388671875 314.4126892089844 177.7803192138672 316.34674072265625 117.3208999633789 C 273.06231689453125 163.8763885498047 194.35748291015625 156.71817016601562 233.88450622558594 149.468994140625 C 312.57598876953125 148.28477478027344 298.7770080566406 141.9561004638672 296.3647766113281 136.4231719970703 C 305.1369934082031 154.77325439453125 281.7417907714844 151.6441650390625 308.18609619140625 136.8939666748047"/>
    <path stroke-width="0" fill="rgb(241, 152, -19)" opacity="0.959817" stroke="rgb(220, 29, 131)" stroke-opacity="1.0" stroke-linecap="round" stroke-linejoin="round" d="M 239.12158203125 193.1386260986328 C 273.8334045410156 195.7342987060547 251.56521606445312 220.114501953125 249.05751037597656 222.31777954101562 C 241.0050506591797 164.7122802734375 252.5897674560547 181.68365478515625 214.5064239501953 203.5799560546875 C 245.1112060546875 186.68931579589844 240.30401611328125 168.60821533203125 257.54168701171875 186.7388458251953 C 240.06381225585938 172.5373992919922 245.27732849121094 203.5198211669922 239.12158203125 193.1386260986328"/>
    <path stroke-width="0" fill="rgb(3, 15, 1)" opacity="0.53127056" stroke="rgb(182, 100, 144)" stroke-opacity="1.0" stroke-linecap="round" stroke-linejoin="round" d="M 253.5018768310547 192.34017944335938 C 269.83221435546875 159.69651794433594 262.235107421875 179.75440979003906 265.2874755859375 204.50401306152344 C 271.125732421875 185.67752075195312 237.7178192138672 185.89068603515625 249.1686248779297 156.6079559326172 C 228.53065490722656 167.538818359375 241.99847412109375 155.4547119140625 251.86231994628906 152.64793395996094 C 241.75001525878906 171.46726989746094 251.10353088378906 184.3021240234375 253.5018768310547 192.34017944335938"/>
    <path stroke-width="0" fill="rgb(69, 47, 32)" opacity="0.456626" stroke="rgb(36, 124, 90)" stroke-opacity="1.0" stroke-linecap="round" stroke-linejoin="round" d="M 271.0295715332031 148.7545928955078 C 222.4010009765625 151.7784881591797 199.29391479492188 127.84681701660156 191.61045837402344 136.55491638183594 C 227.67837524414062 137.42405700683594 259.55902099609375 158.94566345214844 243.43313598632812 175.3683319091797 C 254.2089385986328 157.59268188476562 245.40908813476562 127.98213958740234 254.66433715820312 154.90066528320312 C 271.443603515625 140.8154296875 258.010498046875 153.6221160888672 271.0295715332031 148.7545928955078"/>
    <path stroke-width="0" fill="rgb(59, 26, 9)" opacity="0.7826717" stroke="rgb(195, 190, 230)" stroke-opacity="1.0" stroke-linecap="round" stroke-linejoin="round" d="M 228.0889129638672 422.452880859375 C 226.2163848876953 385.9710998535156 199.7512664794922 394.0353088378906 250.37017822265625 359.81781005859375 C 231.95135498046875 373.3060302734375 216.707763671875 386.0862121582031 223.5503387451172 381.78131103515625 C 227.80516052246094 411.07733154296875 222.7885284423828 401.76568603515625 222.73687744140625 363.9487609863281 C 209.1894073486328 418.3974609375 242.85711669921875 404.1044006347656 228.0889129638672 422.452880859375"/>
    <path stroke-width="0" fill="rgb(167, 159, 148)" opacity="0.2240775" stroke="rgb(140, 149, 245)" stroke-opacity="1.0" stroke-linecap="round" stroke-linejoin="round" d="M 252.6377410888672 153.2644805908203 C 241.1885528564453 165.08509826660156 249.04380798339844 145.06541442871094 207.59121704101562 135.87686157226562 C 244.10940551757812 157.0502166748047 254.54676818847656 171.9646453857422 246.54531860351562 159.30636596679688 C 224.93682861328125 158.46339416503906 260.2289123535156 151.45396423339844 238.99465942382812 149.7152099609375 C 217.27879333496094 149.7721405029297 238.27932739257812 152.5260772705078 252.6377410888672 153.2644805908203"/>
    <path stroke-width="0" fill="rgb(139, 132, 124)" opacity="0.74600786" stroke="rgb(61, 25, 4)" stroke-opacity="1.0" stroke-linecap="round" stroke-linejoin="round" d="M 240.55416870117188 162.94485473632812 C 243.0338592529297 136.7619171142578 246.25570678710938 145.00534057617188 256.0019836425781 151.71047973632812 C 239.8997802734375 168.3817596435547 247.75132751464844 181.5410614013672 255.1464385986328 190.6382293701172 C 237.66366577148438 160.53199768066406 241.29949951171875 152.9361572265625 261.3496398925781 151.0562744140625 C 249.81484985351562 146.62290954589844 246.52093505859375 164.21463012695312 240.55416870117188 162.94485473632812"/>
    <path stroke-width="0" fill="rgb(71, 60, 40)" opacity="0.63092804" stroke="rgb(170, 200, 71)" stroke-opacity="1.0" stroke-linecap="round" stroke-linejoin="round" d="M 233.0985107421875 153.81593322753906 C 248.62571716308594 166.7340545654297 226.74026489257812 156.2861328125 238.50047302246094 146.89837646484375 C 259.1284484863281 178.6728515625 247.08331298828125 182.222900390625 211.63198852539062 183.39608764648438 C 200.62384033203125 185.832763671875 218.20191955566406 183.19105529785156 206.0315399169922 183.17300415039062 C 257.6173095703125 179.81410217285156 242.9364471435547 175.41880798339844 233.0985107421875 153.81593322753906"/>
    <path stroke-width="0" fill="rgb(87, 60, 24)" opacity="0.1838494" stroke="rgb(86, 245, 59)" stroke-opacity="1.0" stroke-linecap="round" stroke-linejoin="round" d="M 221.13291931152344 376.1634826660156 C 246.8671875 371.2020263671875 235.28509521484375 372.1123352050781 189.5238494873047 384.9279479980469 C 193.70916748046875 384.0044860839844 187.8241424560547 382.553466796875 188.5831298828125 381.451416015625 C 189.91900634765625 370.5661315917969 172.88414001464844 372.7809753417969 183.5861053466797 351.5472106933594 C 199.15267944335938 382.18756103515625 173.8802032470703 376.9740905761719 221.13291931152344 376.1634826660156"/>
    <path stroke-width="0" fill="rgb(189, 188, 193)" opacity="0.8160888" stroke="rgb(126, 163, 93)" stroke-opacity="1.0" stroke-linecap="round" stroke-linejoin="round" d="M 250.4927978515625 157.4151611328125 C 250.434814453125 155.28744506835938 246.1781463623047 130.53448486328125 245.96044921875 155.8963165283203 C 244.1133575439453 172.60818481445312 231.6404266357422 132.25880432128906 243.1945037841797 152.52142333984375 C 243.10743713378906 175.3362274169922 244.44039916992188 173.5347900390625 241.71469116210938 176.75816345214844 C 236.83773803710938 153.64181518554688 248.54002380371094 152.2540283203125 250.4927978515625 157.4151611328125"/>
    <path stroke-width="0" fill="rgb(240, 241, 253)" opacity="0.6758379" stroke="rgb(24, 219, 248)" stroke-opacity="1.0" stroke-linecap="round" stroke-linejoin="round" d="M 246.09585571289062 179.1141357421875 C 263.8833923339844 180.11341857910156 267.7427062988281 148.657470703125 248.39382934570312 186.11619567871094 C 241.22158813476562 148.73960876464844 241.584228515625 143.2677001953125 234.264892578125 158.40057373046875 C 260.1920166015625 152.3074188232422 280.4949035644531 153.97760009765625 251.89183044433594 150.3101043701172 C 249.93630981445312 144.0575408935547 251.60520935058594 148.0943603515625 246.09585571289062 179.1141357421875"/>
    <path stroke-width="0" fill="rgb(87, 96, 109)" opacity="0.91484714" stroke="rgb(231, 197, 84)" stroke-opacity="1.0" stroke-linecap="round" stroke-linejoin="round" d="M 260.97552490234375 145.65255737304688 C 272.9521179199219 152.1036834716797 268.6406555175781 155.99916076660156 233.20785522460938 158.16000366210938 C 255.5196533203125 163.07896423339844 282.9267272949219 139.0369110107422 294.7371520996094 129.72303771972656 C 215.86582946777344 136.57736206054688 210.9829864501953 141.55377197265625 276.5406494140625 139.779296875 C 255.58013916015625 159.7259063720703 245.6168212890625 173.88816833496094 260.97552490234375 145.65255737304688"/>
    <path stroke-width="0" fill="rgb(180, 120, 41)" opacity="0.75608903" stroke="rgb(103, 59, 33)" stroke-opacity="1.0" stroke-linecap="round" stroke-linejoin="round" d="M 246.16162109375 191.6513671875 C 252.94615173339844 190.1696014404297 256.708984375 188.2405242919922 237.7206573486328 169.31166076660156 C 249.54901123046875 169.38766479492188 238.4061279296875 177.96327209472656 251.9937744140625 188.95672607421875 C 232.6566162109375 178.0897674560547 271.9451599121094 176.83372497558594 245.1227569580078 188.97181701660156 C 265.2386169433594 184.04367065429688 249.4693145751953 175.15113830566406 246.16162109375 191.6513671875"/>
    <path stroke-width="0" fill="rgb(218, 137, 32)" opacity="0.42248017" stroke="rgb(185, 2, 196)" stroke-opacity="1.0" stroke-linecap="round" stroke-linejoin="round" d="M 246.23348999023438 154.02650451660156 C 253.99798583984375 183.88925170898438 241.57427978515625 213.7868194580078 245.2061767578125 156.41419982910156 C 246.8369598388672 164.23435974121094 249.19305419921875 177.64968872070312 255.28138732910156 175.39076232910156 C 242.23516845703125 177.71493530273438 250.73233032226562 189.86264038085938 245.50180053710938 191.18789672851562 C 240.67889404296875 187.01910400390625 256.10748291015625 194.49972534179688 246.23348999023438 154.02650451660156"/>
    <path stroke-width="0" fill="rgb(251, 188, -4)" opacity="0.77236444" stroke="rgb(107, 142, 219)" stroke-opacity="1.0" stroke-linecap="round" stroke-linejoin="round" d="M 246.44149780273438 209.87400817871094 C 272.7060241699219 178.23291015625 268.0475769042969 196.40280151367188 276.0176086425781 205.21641540527344 C 254.0625 186.7360076904297 282.1185302734375 166.0765380859375 264.4252624511719 176.00265502929688 C 258.2828369140625 211.9501495361328 302.54302978515625 196.8018035888672 262.72808837890625 190.8817901611328 C 269.41351318359375 187.4563751220703 256.97161865234375 197.5162353515625 246.44149780273438 209.87400817871094"/>
    <path stroke-width="0" fill="rgb(259, 259, 253)" opacity="0.82611006" stroke="rgb(68, 33, 14)" stroke-opacity="1.0" stroke-linecap="round" stroke-linejoin="round" d="M 294.16204833984375 208.6913604736328 C 268.2569885253906 214.24891662597656 250.7576904296875 213.9703826904297 276.6685485839844 212.31166076660156 C 275.8585205078125 207.84034729003906 266.0982666015625 193.26446533203125 245.51455688476562 180.4512176513672 C 247.18283081054688 188.19334411621094 261.9269104003906 197.6978302001953 241.73922729492188 167.8593292236328 C 259.9167785644531 203.9618682861328 270.9502258300781 218.71214294433594 294.16204833984375 208.6913604736328"/>
    <path stroke-width="0" fill="rgb(74, 66, 45)" opacity="0.69848883" stroke="rgb(66, 116, 174)" stroke-opacity="1.0" stroke-linecap="round" stroke-linejoin="round" d="M 278.9822082519531 182.27984619140625 C 245.33351135253906 192.21017456054688 241.26861572265625 179.32354736328125 246.88380432128906 202.8717803955078 C 244.6053924560547 193.7195281982422 242.2092742919922 182.35110473632812 247.94325256347656 184.09457397460938 C 254.7266082763672 138.13319396972656 236.42506408691406 164.07130432128906 252.79095458984375 158.9144287109375 C 239.28289794921875 194.7261962890625 265.9775695800781 185.4737091064453 278.9822082519531 182.27984619140625"/>
    <path stroke-width="0" fill="rgb(31, 11, 9)" opacity="0.4974629" stroke="rgb(14, 177, 198)" stroke-opacity="1.0" stroke-linecap="round" stroke-linejoin="round" d="M 286.0504455566406 230.59750366210938 C 270.8310852050781 227.14102172851562 283.0299377441406 243.57861328125 308.0057373046875 209.76266479492188 C 310.4211730957031 226.80169677734375 293.3481140136719 218.33462524414062 283.21826171875 225.94334411621094 C 255.03504943847656 236.95590209960938 276.74859619140625 230.6907196044922 288.78607177734375 231.14321899414062 C 275.9664306640625 230.71165466308594 276.1960144042969 227.402099609375 286.0504455566406 230.59750366210938"/>
    <path stroke-width="0" fill="rgb(56, 26, 21)" opacity="0.9578127" stroke="rgb(109, 130, 136)" stroke-opacity="1.0" stroke-linecap="round" stroke-linejoin="round" d="M 189.474609375 338.21722412109375 C 174.4073028564453 292.4684143066406 181.31777954101562 291.29339599609375 184.02911376953125 288.49969482421875 C 185.94322204589844 294.6361083984375 163.58689880371094 279.3587951660156 163.922119140625 239.47752380371094 C 185.01612854003906 297.74578857421875 173.9962615966797 299.87054443359375 190.1239013671875 237.13087463378906 C 198.647216796875 216.86660766601562 181.2798614501953 246.98089599609375 189.474609375 338.21722412109375"/>
    <path stroke-width="0" fill="rgb(98, 93, 104)" opacity="0.79654884" stroke="rgb(70, 32, 100)" stroke-opacity="1.0" stroke-linecap="round" stroke-linejoin="round" d="M 364.1160583496094 287.953369140625 C 361.0166931152344 306.75115966796875 357.0382995605469 298.0218505859375 359.5967102050781 302.36920166015625 C 363.4361267089844 295.798095703125 365.4576416015625 295.05291748046875 347.7500305175781 318.7896728515625 C 355.72760009765625 328.9053955078125 365.10528564453125 325.68170166015625 371.4664001464844 330.0581970214844 C 321.8038330078125 311.7570495605469 352.3869934082031 341.13775634765625 364.1160583496094 287.953369140625"/>
    <path stroke-width="0" fill="rgb(53, 30, 10)" opacity="0.7888462" stroke="rgb(47, 230, 138)" stroke-opacity="1.0" stroke-linecap="round" stroke-linejoin="round" d="M 182.61203002929688 355.6601867675781 C 164.26669311523438 359.92578125 174.7299041748047 368.3724670410156 173.1063690185547 330.2890319824219 C 179.85726928710938 334.3591613769531 176.37954711914062 323.7322998046875 195.7958526611328 365.0447082519531 C 177.337890625 321.4697265625 154.81471252441406 257.947998046875 166.51007080078125 306.188720703125 C 176.02333068847656 335.6328125 179.11549377441406 345.78009033203125 182.61203002929688 355.6601867675781"/>
    <path stroke-width="0" fill="rgb(22, 16, 1)" opacity="0.91440827" stroke="rgb(224, 116, 184)" stroke-opacity="1.0" stroke-linecap="round" stroke-linejoin="round" d="M 325.763427734375 344.87835693359375 C 340.4176025390625 305.5086364746094 327.9176940917969 329.3740539550781 304.5456848144531 369.95159912109375 C 323.0183410644531 336.08489990234375 342.246337890625 307.693115234375 314.66778564453125 361.53509521484375 C 310.7427673339844 337.50079345703125 320.80413818359375 334.173828125 334.76422119140625 331.98291015625 C 301.783203125 340.1223449707031 317.6089782714844 344.95281982421875 325.763427734375 344.87835693359375"/>
    <path stroke-width="0" fill="rgb(92, 98, 103)" opacity="0.6408023" stroke="rgb(230, 175, 178)" stroke-opacity="1.0" stroke-linecap="round" stroke-linejoin="round" d="M 163.2530059814453 325.8664855957031 C 151.2428436279297 298.718505859375 134.01148986816406 315.9538269042969 121.07422637939453 301.0693054199219 C 142.52835083007812 312.2217712402344 151.1324462890625 315.78863525390625 142.45033264160156 308.7185363769531 C 151.76791381835938 319.2149353027344 134.63278198242188 318.1706237792969 160.3859405517578 326.5961608886719 C 184.6490936279297 254.02699279785156 191.9019775390625 273.5386047363281 163.2530059814453 325.8664855957031"/>
    <path stroke-width="0" fill="rgb(244, 246, 238)" opacity="0.18340331" stroke="rgb(192, 162, 61)" stroke-opacity="1.0" stroke-linecap="round" stroke-linejoin="round" d="M 290.48370361328125 327.36248779296875 C 298.2345886230469 343.56011962890625 321.134765625 368.78289794921875 326.97015380859375 335.32110595703125 C 309.5702209472656 342.0536193847656 278.8648681640625 342.22052001953125 282.2643737792969 333.65155029296875 C 268.78875732421875 302.3985595703125 272.2543640136719 295.85552978515625 305.0255126953125 285.4060363769531 C 301.450439453125 321.52850341796875 296.61517333984375 348.0015869140625 290.48370361328125 327.36248779296875"/>
    <path stroke-width="0" fill="rgb(255, 256, 253)" opacity="0.4484538" stroke="rgb(203, 244, 116)" stroke-opacity="1.0" stroke-linecap="round" stroke-linejoin="round" d="M 257.59234619140625 335.5435485839844 C 233.83982849121094 383.9276123046875 213.29278564453125 407.714111328125 217.64418029785156 373.3279724121094 C 188.50819396972656 320.3612060546875 216.6927947998047 311.6982727050781 214.3899383544922 351.00543212890625 C 214.270263671875 360.46356201171875 212.4224395751953 355.8011474609375 214.18617248535156 292.2458801269531 C 232.47946166992188 289.06585693359375 226.71575927734375 299.0366516113281 257.59234619140625 335.5435485839844"/>
    <path stroke-width="0" fill="rgb(180, 150, 128)" opacity="0.6219442" stroke="rgb(209, 231, 207)" stroke-opacity="1.0" stroke-linecap="round" stroke-linejoin="round" d="M 305.69915771484375 336.40997314453125 C 320.0522155761719 308.9064636230469 285.3761901855469 360.7892150878906 325.3143615722656 337.4405212402344 C 330.4731750488281 316.2331848144531 325.5532531738281 304.2356262207031 318.685791015625 315.6071472167969 C 320.95709228515625 363.9980773925781 316.2543640136719 364.1699523925781 316.75433349609375 334.29840087890625 C 301.3641357421875 329.4965515136719 310.0643310546875 336.5906677246094 305.69915771484375 336.40997314453125"/>
    <path stroke-width="0" fill="rgb(52, 29, 12)" opacity="1.0140423" stroke="rgb(65, 216, 8)" stroke-opacity="1.0" stroke-linecap="round" stroke-linejoin="round" d="M 187.77792358398438 397.7540588378906 C 176.46339416503906 339.02716064453125 199.96241760253906 336.3157653808594 200.40057373046875 371.0453796386719 C 193.38648986816406 407.6068420410156 183.09661865234375 400.72320556640625 165.41343688964844 349.27459716796875 C 155.3720245361328 336.08135986328125 166.50967407226562 322.58941650390625 195.6913299560547 334.7693176269531 C 204.10299682617188 366.9242858886719 195.42654418945312 377.58697509765625 187.77792358398438 397.7540588378906"/>
    <path stroke-width="0" fill="rgb(254, 255, 254)" opacity="0.9089786" stroke="rgb(102, 236, 25)" stroke-opacity="1.0" stroke-linecap="round" stroke-linejoin="round" d="M 284.6282043457031 356.475830078125 C 273.4877624511719 369.4747314453125 219.37657165527344 394.5365905761719 214.86111450195312 387.1836242675781 C 218.88890075683594 367.6838073730469 220.55738830566406 347.41571044921875 221.14479064941406 334.0433654785156 C 228.96853637695312 388.4897155761719 228.86904907226562 379.1461181640625 217.93716430664062 328.5818786621094 C 230.23098754882812 346.01605224609375 251.06077575683594 353.334716796875 284.6282043457031 356.475830078125"/>
    <path stroke-width="0" fill="rgb(73, 46, 12)" opacity="1.0209264" stroke="rgb(33, 3, 29)" stroke-opacity="1.0" stroke-linecap="round" stroke-linejoin="round" d="M 231.81752014160156 388.5157775878906 C 216.38424682617188 382.7628479003906 223.77772521972656 409.2317810058594 220.08804321289062 417.02691650390625 C 173.07373046875 408.9719543457031 151.27427673339844 439.8589172363281 163.1698760986328 400.0982666015625 C 154.35256958007812 403.69818115234375 229.3522491455078 398.2949523925781 236.8014373779297 397.8343505859375 C 219.32249450683594 399.2547607421875 209.15664672851562 401.32183837890625 231.81752014160156 388.5157775878906"/>
    <path stroke-width="0" fill="rgb(90, 63, 17)" opacity="0.7427825" stroke="rgb(199, 73, 61)" stroke-opacity="1.0" stroke-linecap="round" stroke-linejoin="round" d="M 281.35650634765625 408.94219970703125 C 290.1606750488281 393.2385559082031 267.8248596191406 405.3738098144531 283.1320495605469 399.02294921875 C 286.06439208984375 411.41778564453125 283.0784606933594 395.22222900390625 282.3038330078125 401.15826416015625 C 287.78564453125 395.5308837890625 269.1753234863281 401.7586669921875 354.4637756347656 400.3993225097656 C 371.6960144042969 421.7320556640625 254.9448699951172 422.8419494628906 281.35650634765625 408.94219970703125"/>
    <path stroke-width="0" fill="rgb(91, 99, 96)" opacity="0.97299504" stroke="rgb(175, 14, 186)" stroke-opacity="1.0" stroke-linecap="round" stroke-linejoin="round" d="M 490.0486145019531 134.7738494873047 C 445.79266357421875 186.74041748046875 514.6602172851562 264.75738525390625 639.8412475585938 131.49301147460938 C 511.7834777832031 79.14395141601562 608.1447143554688 -3.676504135131836 342.2279052734375 -80.99170684814453 C 130.6678009033203 155.60821533203125 226.57333374023438 3.1310622692108154 365.4020690917969 88.14472961425781 C 500.730712890625 159.7355194091797 453.9210205078125 127.94756317138672 490.0486145019531 134.7738494873047"/>
    <path stroke-width="0" fill="rgb(92, 98, 100)" opacity="0.8398111" stroke="rgb(95, 190, 60)" stroke-opacity="1.0" stroke-linecap="round" stroke-linejoin="round" d="M 140.3505859375 163.33555603027344 C 129.93380737304688 194.10244750976562 95.14325714111328 150.1367645263672 74.75375366210938 206.66293334960938 C 136.36537170410156 261.6834716796875 135.9676055908203 182.9859619140625 177.59487915039062 167.28001403808594 C 136.6931915283203 197.50242614746094 133.25709533691406 208.06353759765625 173.4528045654297 179.59921264648438 C 165.13485717773438 162.9984130859375 169.61769104003906 187.05335998535156 140.3505859375 163.33555603027344"/>
    <path stroke-width="0" fill="rgb(51, 24, 6)" opacity="0.9786189" stroke="rgb(213, 60, 128)" stroke-opacity="1.0" stroke-linecap="round" stroke-linejoin="round" d="M 249.14935302734375 152.58636474609375 C 258.4877624511719 191.03936767578125 244.60536193847656 163.21253967285156 220.84254455566406 151.5618133544922 C 233.6999053955078 160.74253845214844 225.06405639648438 153.0989227294922 214.0416717529297 151.18470764160156 C 185.68942260742188 122.1479721069336 182.82713317871094 121.83682250976562 192.80789184570312 147.60316467285156 C 208.60739135742188 139.59414672851562 359.1044616699219 144.9023895263672 249.14935302734375 152.58636474609375"/>
    <path stroke-width="0" fill="rgb(92, 98, 98)" opacity="0.91179895" stroke="rgb(228, 103, 140)" stroke-opacity="1.0" stroke-linecap="round" stroke-linejoin="round" d="M 128.9907684326172 277.99639892578125 C 152.913818359375 309.40167236328125 156.96539306640625 310.0276184082031 111.56819152832031 327.9075622558594 C 95.58442687988281 341.0114440917969 69.75908660888672 321.3330383300781 123.86891174316406 272.3437805175781 C 119.22672271728516 279.9336242675781 144.951904296875 258.0625915527344 136.72430419921875 299.052001953125 C 138.90951538085938 300.1033630371094 152.416015625 287.0256652832031 128.9907684326172 277.99639892578125"/>
    <path stroke-width="0" fill="rgb(250, 255, 256)" opacity="0.9951208" stroke="rgb(63, 128, 79)" stroke-opacity="1.0" stroke-linecap="round" stroke-linejoin="round" d="M 250.4459686279297 192.84332275390625 C 210.80953979492188 214.3195343017578 218.02992248535156 226.35043334960938 237.75308227539062 220.16973876953125 C 225.63912963867188 212.0882568359375 218.0994415283203 221.54759216308594 205.35211181640625 183.68218994140625 C 214.0945281982422 235.36376953125 247.68223571777344 220.49429321289062 240.5514373779297 175.04043579101562 C 207.01611328125 144.77931213378906 286.6972961425781 185.1020965576172 250.4459686279297 192.84332275390625"/>
    <path stroke-width="0" fill="rgb(248, 251, 247)" opacity="0.18090743" stroke="rgb(85, 235, 219)" stroke-opacity="1.0" stroke-linecap="round" stroke-linejoin="round" d="M 298.3387756347656 388.28839111328125 C 302.6780700683594 406.2349548339844 269.5262756347656 381.65618896484375 269.2865295410156 387.2208251953125 C 243.63136291503906 393.5465393066406 182.49594116210938 383.4826354980469 227.87289428710938 366.2821960449219 C 205.95355224609375 295.87738037109375 240.50547790527344 283.3636474609375 294.6565246582031 316.8748474121094 C 280.8005676269531 356.973876953125 303.7174072265625 358.8794250488281 298.3387756347656 388.28839111328125"/>
    <path stroke-width="0" fill="rgb(91, 98, 98)" opacity="0.75077105" stroke="rgb(26, 88, 188)" stroke-opacity="1.0" stroke-linecap="round" stroke-linejoin="round" d="M 149.19622802734375 163.5712127685547 C 97.54051208496094 209.87484741210938 88.21484375 247.3931121826172 107.57344055175781 230.9534454345703 C 159.95713806152344 224.3667755126953 145.767578125 214.4250946044922 142.26312255859375 200.1905059814453 C 143.43748474121094 254.41445922851562 139.3289794921875 261.9970397949219 137.58981323242188 214.10935974121094 C 112.52268981933594 254.52696228027344 116.4852294921875 237.85525512695312 149.19622802734375 163.5712127685547"/>
    <path stroke-width="0" fill="rgb(43, 24, 9)" opacity="0.859602" stroke="rgb(52, 87, 172)" stroke-opacity="1.0" stroke-linecap="round" stroke-linejoin="round" d="M 303.240478515625 346.24993896484375 C 319.3143615722656 396.2193908691406 319.37591552734375 359.65826416015625 311.08050537109375 390.4105529785156 C 300.7767333984375 396.7630310058594 296.7911376953125 418.83551025390625 304.1481628417969 317.7091064453125 C 309.4691467285156 334.9104309082031 320.9237365722656 338.8085021972656 320.5851135253906 277.7576599121094 C 339.6236877441406 344.67047119140625 325.3771667480469 372.6698913574219 303.240478515625 346.24993896484375"/>
    <path stroke-width="0" fill="rgb(59, 26, 19)" opacity="0.96790874" stroke="rgb(7, 181, 2)" stroke-opacity="1.0" stroke-linecap="round" stroke-linejoin="round" d="M 304.0683288574219 138.03793334960938 C 278.7261047363281 152.693359375 255.88839721679688 152.2798614501953 296.5696105957031 146.30398559570312 C 272.3648376464844 153.5325469970703 231.4874725341797 184.39596557617188 246.75338745117188 145.72613525390625 C 275.4857177734375 139.45118713378906 315.2288818359375 162.389404296875 312.7438659667969 126.96125793457031 C 273.7090148925781 157.0568389892578 270.95855712890625 155.0410919189453 304.0683288574219 138.03793334960938"/>
    <path stroke-width="0" fill="rgb(91, 96, 97)" opacity="0.80127764" stroke="rgb(22, 103, 6)" stroke-opacity="1.0" stroke-linecap="round" stroke-linejoin="round" d="M 281.7624206542969 486.09320068359375 C 268.5291442871094 490.1953430175781 341.99102783203125 504.1632995605469 204.97653198242188 542.19775390625 C 81.74715423583984 490.8175354003906 259.11773681640625 469.186767578125 250.37423706054688 467.7820739746094 C 255.19618225097656 472.2326965332031 291.5604553222656 511.96307373046875 230.5747833251953 496.8509216308594 C 213.56553649902344 474.5353698730469 227.58477783203125 447.04571533203125 281.7624206542969 486.09320068359375"/>
    <path stroke-width="0" fill="rgb(92, 98, 97)" opacity="0.96892124" stroke="rgb(53, 29, 147)" stroke-opacity="1.0" stroke-linecap="round" stroke-linejoin="round" d="M 336.8128662109375 157.85015869140625 C 315.0311279296875 89.5792007446289 335.98248291015625 53.682960510253906 391.9519348144531 112.31822967529297 C 365.55401611328125 207.9438934326172 338.44683837890625 135.9942626953125 333.263427734375 136.7274627685547 C 336.53448486328125 166.182861328125 343.3412170410156 159.51446533203125 350.402099609375 152.46287536621094 C 325.79278564453125 155.49795532226562 343.6575012207031 154.5159454345703 336.8128662109375 157.85015869140625"/>
    <path stroke-width="0" fill="rgb(90, 96, 96)" opacity="0.7055427" stroke="rgb(0, 165, 153)" stroke-opacity="1.0" stroke-linecap="round" stroke-linejoin="round" d="M 453.4790344238281 522.6038818359375 C 380.0274353027344 503.89825439453125 293.41436767578125 480.6443176269531 361.0522766113281 504.05078125 C 359.23114013671875 486.47503662109375 250.29786682128906 513.4049682617188 246.17481994628906 478.62786865234375 C 305.05792236328125 429.63531494140625 339.2733154296875 461.09991455078125 329.7694396972656 479.0162353515625 C 359.7473449707031 432.86492919921875 407.9124450683594 422.01654052734375 453.4790344238281 522.6038818359375"/>
    <path stroke-width="0" fill="rgb(42, 44, 73)" opacity="0.87720007" stroke="rgb(0, 0, 0)" stroke-opacity="0.0" stroke-linecap="round" stroke-linejoin="round" d="M 55.609947204589844 21.80361557006836 C 54.974971771240234 26.820255279541016 51.52205276489258 28.53717803955078 46.3880615234375 28.492544174194336 C 43.11778259277344 29.2143497467041 41.427337646484375 25.966402053833008 40.097259521484375 21.36599349975586 C 40.856571197509766 18.776695251464844 44.55186462402344 16.36936378479004 47.585113525390625 15.512943267822266 C 51.61171340942383 15.389226913452148 55.05709457397461 17.635549545288086 55.609947204589844 21.80361557006836"/>
    <path stroke-width="0" fill="rgb(78, 42, 227)" opacity="0.27312705" stroke="rgb(0, 0, 0)" stroke-opacity="0.0" stroke-linecap="round" stroke-linejoin="round" d="M 8.558167457580566 3.5509605407714844 C 7.550800800323486 7.419373035430908 4.419111728668213 10.196414947509766 0.41186967492103577 11.627254486083984 C -1.8437139987945557 12.252382278442383 -4.704639911651611 9.278407096862793 -5.717527389526367 5.195016860961914 C -4.639644145965576 1.1826581954956055 -1.7114408016204834 -1.7455451488494873 2.979515790939331 -3.342496871948242 C 7.393227577209473 -2.8985722064971924 9.726968765258789 -0.07650792598724365 8.558167457580566 3.5509605407714844"/>
    <path stroke-width="0" fill="rgb(98, 101, 194)" opacity="0.7171186" stroke="rgb(0, 0, 0)" stroke-opacity="0.0" stroke-linecap="round" stroke-linejoin="round" d="M 237.62339782714844 452.0946960449219 C 236.69065856933594 455.57379150390625 233.2276153564453 458.1631164550781 229.74642944335938 459.0584716796875 C 225.42562866210938 458.4945068359375 222.7537384033203 455.9280700683594 222.4242706298828 451.18060302734375 C 222.98338317871094 448.2459716796875 226.30430603027344 445.43048095703125 229.92144775390625 443.6376953125 C 233.55348205566406 444.7311706542969 236.04197692871094 448.0672912597656 237.62339782714844 452.0946960449219"/>
    <path stroke-width="0" fill="rgb(183, 82, 68)" opacity="0.7054877" stroke="rgb(0, 0, 0)" stroke-opacity="0.0" stroke-linecap="round" stroke-linejoin="round" d="M 437.8471984863281 130.36105346679688 C 436.2530517578125 133.86541748046875 433.7464599609375 137.10926818847656 430.9420471191406 138.03555297851562 C 426.5710754394531 137.08001708984375 423.1282653808594 134.9837188720703 422.15753173828125 130.7053680419922 C 423.2842102050781 126.73348999023438 426.4646911621094 124.05255126953125 429.5454406738281 123.7499008178711 C 433.49603271484375 125.0055923461914 436.78076171875 127.51161193847656 437.8471984863281 130.36105346679688"/>
    <path stroke-width="0" fill="rgb(128, 154, 49)" opacity="0.49822786" stroke="rgb(0, 0, 0)" stroke-opacity="0.0" stroke-linecap="round" stroke-linejoin="round" d="M -63.55201721191406 -1.7573093175888062 C -64.62381744384766 2.2426908016204834 -67.55201721191406 5.170894145965576 -71.55201721191406 6.242690563201904 C -75.55201721191406 5.170894145965576 -78.48021697998047 2.2426908016204834 -79.55201721191406 -1.7573093175888062 C -78.48021697998047 -5.757309436798096 -75.55201721191406 -8.68551254272461 -71.55201721191406 -9.757308959960938 C -67.55201721191406 -8.68551254272461 -64.62381744384766 -5.757309436798096 -63.55201721191406 -1.7573093175888062"/>
    <path stroke-width="0" fill="rgb(55, 63, 247)" opacity="0.16309462" stroke="rgb(0, 0, 0)" stroke-opacity="0.0" stroke-linecap="round" stroke-linejoin="round" d="M 75.64315032958984 -43.527427673339844 C 74.57135009765625 -39.527427673339844 71.64315032958984 -36.59922409057617 67.64315032958984 -35.527427673339844 C 63.643150329589844 -36.59922409057617 60.71494674682617 -39.527427673339844 59.643150329589844 -43.527427673339844 C 60.71494674682617 -47.527427673339844 63.643150329589844 -50.455631256103516 67.64315032958984 -51.527427673339844 C 71.64315032958984 -50.455631256103516 74.57135009765625 -47.527427673339844 75.64315032958984 -43.527427673339844"/>
    <path stroke-width="0" fill="rgb(219, 231, 205)" opacity="0.7627097" stroke="rgb(0, 0, 0)" stroke-opacity="0.0" stroke-linecap="round" stroke-linejoin="round" d="M 9.70547103881836 46.93328857421875 C 7.840822696685791 50.58731460571289 5.739924430847168 53.97225570678711 1.4322396516799927 55.51967239379883 C -2.2096076011657715 55.214073181152344 -5.036005973815918 52.24431610107422 -5.800558090209961 47.79828643798828 C -5.171267509460449 42.57923889160156 -2.9118235111236572 39.24285888671875 1.2619014978408813 39.30296325683594 C 6.308563232421875 40.94496536254883 8.956765174865723 43.86033248901367 9.70547103881836 46.93328857421875"/>
    <path stroke-width="0" fill="rgb(190, 169, 63)" opacity="0.098295" stroke="rgb(0, 0, 0)" stroke-opacity="0.0" stroke-linecap="round" stroke-linejoin="round" d="M 288.0944519042969 393.6962585449219 C 287.7962341308594 397.3408508300781 285.20806884765625 400.5381164550781 281.3443908691406 401.3871765136719 C 278.20770263671875 399.7012634277344 275.9068603515625 396.0390319824219 274.97381591796875 393.5482482910156 C 274.96478271484375 389.6622009277344 277.196044921875 386.50396728515625 280.6990051269531 386.10198974609375 C 284.56170654296875 387.2660827636719 287.5393371582031 390.1521911621094 288.0944519042969 393.6962585449219"/>
    <path stroke-width="0" fill="rgb(118, 155, 134)" opacity="0.4559554" stroke="rgb(0, 0, 0)" stroke-opacity="0.0" stroke-linecap="round" stroke-linejoin="round" d="M 277.6516418457031 267.7975769042969 C 275.88671875 271.94085693359375 273.14794921875 275.28448486328125 269.52685546875 276.9388732910156 C 265.93463134765625 275.1011657714844 262.6456298828125 272.1822814941406 261.6165771484375 268.953857421875 C 262.65216064453125 264.3755798339844 265.1336364746094 261.0225830078125 269.76910400390625 259.499755859375 C 273.8624267578125 261.04449462890625 276.6721496582031 264.3016662597656 277.6516418457031 267.7975769042969"/>
    <path stroke-width="0" fill="rgb(152, 182, 164)" opacity="0.20136791" stroke="rgb(0, 0, 0)" stroke-opacity="0.0" stroke-linecap="round" stroke-linejoin="round" d="M 158.90745544433594 428.2630310058594 C 157.74217224121094 432.12188720703125 154.45184326171875 434.8832702636719 151.0797576904297 436.7221374511719 C 148.14048767089844 433.8414611816406 144.52708435058594 431.2642822265625 142.6682891845703 427.9704284667969 C 143.61761474609375 424.249267578125 146.6943817138672 421.28289794921875 151.85382080078125 419.6248779296875 C 156.26414489746094 419.81591796875 158.5233917236328 422.92095947265625 158.90745544433594 428.2630310058594"/>
    <path stroke-width="0" fill="rgb(41, 171, 88)" opacity="0.9032481" stroke="rgb(0, 0, 0)" stroke-opacity="0.0" stroke-linecap="round" stroke-linejoin="round" d="M 504.4909973144531 93.59471893310547 C 504.0698547363281 97.24201202392578 501.11578369140625 99.84925079345703 496.4095764160156 101.38404083251953 C 493.2768859863281 99.90510559082031 490.6183166503906 96.60879516601562 489.4653015136719 92.79488372802734 C 490.97528076171875 90.06188201904297 494.099609375 87.04308319091797 496.4210510253906 85.71134185791016 C 500.17401123046875 87.39115905761719 503.5862731933594 89.46417236328125 504.4909973144531 93.59471893310547"/>
    <path stroke-width="0" fill="rgb(149, 153, 89)" opacity="0.576551" stroke="rgb(0, 0, 0)" stroke-opacity="0.0" stroke-linecap="round" stroke-linejoin="round" d="M 142.81922912597656 415.41156005859375 C 140.70355224609375 418.2586364746094 137.58213806152344 421.59906005859375 135.16537475585938 423.4631652832031 C 130.8839569091797 421.7851257324219 127.42674255371094 419.3421325683594 125.85462951660156 415.79095458984375 C 127.19904327392578 410.42578125 129.77784729003906 407.4194641113281 134.15487670898438 406.6072998046875 C 138.33351135253906 408.4605712890625 141.0458984375 411.7418212890625 142.81922912597656 415.41156005859375"/>
    <path stroke-width="0" fill="rgb(117, 110, 183)" opacity="0.58747184" stroke="rgb(0, 0, 0)" stroke-opacity="0.0" stroke-linecap="round" stroke-linejoin="round" d="M 85.82589721679688 99.41349792480469 C 84.61233520507812 103.35066986083984 81.47386169433594 105.88514709472656 78.18768310546875 106.79624938964844 C 74.593994140625 105.46232604980469 71.11200714111328 103.22017669677734 69.30404663085938 99.30219268798828 C 71.05741119384766 95.82636260986328 74.44610595703125 93.43921661376953 77.95586395263672 92.15906524658203 C 80.97361755371094 93.61885833740234 84.35486602783203 96.17350006103516 85.82589721679688 99.41349792480469"/>
    <path stroke-width="0" fill="rgb(206, 73, 157)" opacity="0.12561157" stroke="rgb(0, 0, 0)" stroke-opacity="0.0" stroke-linecap="round" stroke-linejoin="round" d="M 0.3769436776638031 188.07025146484375 C -0.8850125670433044 192.09153747558594 -3.818441152572632 195.0177764892578 -7.818778991699219 196.0894775390625 C -11.818793296813965 195.01768493652344 -14.746996879577637 192.0894775390625 -15.818793296813965 188.0894775390625 C -14.746996879577637 184.0894775390625 -11.818793296813965 181.16127014160156 -7.818802356719971 180.0894775390625 C -3.8189351558685303 181.16139221191406 -0.879891037940979 184.08697509765625 0.3769436776638031 188.07025146484375"/>
    <path stroke-width="0" fill="rgb(40, 32, 197)" opacity="0.73398936" stroke="rgb(0, 0, 0)" stroke-opacity="0.0" stroke-linecap="round" stroke-linejoin="round" d="M 511.5998840332031 408.22955322265625 C 510.7685852050781 412.3979797363281 507.62847900390625 414.8569641113281 502.560302734375 415.9366455078125 C 499.7054443359375 414.8593444824219 496.9542541503906 411.4425964355469 495.4605712890625 409.6280212402344 C 498.275146484375 405.73455810546875 500.9619140625 402.7003173828125 504.3560485839844 401.2948913574219 C 506.7160949707031 401.9079895019531 510.28277587890625 404.257568359375 511.5998840332031 408.22955322265625"/>
    <path stroke-width="0" fill="rgb(93, 167, 132)" opacity="0.11338274" stroke="rgb(0, 0, 0)" stroke-opacity="0.0" stroke-linecap="round" stroke-linejoin="round" d="M 488.8505554199219 320.4554443359375 C 488.62237548828125 325.24945068359375 486.2773742675781 328.27294921875 481.7459411621094 328.4380798339844 C 477.1646728515625 328.37518310546875 474.4991455078125 325.3695983886719 473.6396789550781 321.1230773925781 C 475.6579895019531 317.6776428222656 478.5072021484375 314.60345458984375 481.8047790527344 312.4059143066406 C 485.5901794433594 314.1587219238281 488.6157531738281 316.9437255859375 488.8505554199219 320.4554443359375"/>
    <path stroke-width="0" fill="rgb(190, 135, 103)" opacity="0.73593205" stroke="rgb(0, 0, 0)" stroke-opacity="0.0" stroke-linecap="round" stroke-linejoin="round" d="M 42.80069351196289 198.164794921875 C 41.761863708496094 201.98179626464844 38.2973518371582 204.76560974121094 34.12066650390625 206.70602416992188 C 30.645849227905273 205.59368896484375 28.0057430267334 202.2410125732422 26.910329818725586 198.15487670898438 C 27.69832992553711 194.37232971191406 31.014543533325195 191.89004516601562 34.585018157958984 190.3994598388672 C 38.01348114013672 192.1761932373047 41.34958267211914 194.87734985351562 42.80069351196289 198.164794921875"/>
    <path stroke-width="0" fill="rgb(224, 141, 181)" opacity="0.40162385" stroke="rgb(0, 0, 0)" stroke-opacity="0.0" stroke-linecap="round" stroke-linejoin="round" d="M 7.7004313468933105 42.77806091308594 C 9.173623085021973 45.63681411743164 5.469188690185547 47.65061569213867 0.5482780337333679 49.00095748901367 C -3.216834306716919 48.23003387451172 -5.952235698699951 44.919517517089844 -7.008988857269287 40.870967864990234 C -5.9575066566467285 36.80281448364258 -3.252889633178711 33.438270568847656 -0.5983647108078003 33.8397216796875 C 2.980010747909546 35.95197296142578 5.787571430206299 38.965972900390625 7.7004313468933105 42.77806091308594"/>
    <path stroke-width="0" fill="rgb(144, 124, 61)" opacity="0.71870226" stroke="rgb(0, 0, 0)" stroke-opacity="0.0" stroke-linecap="round" stroke-linejoin="round" d="M 26.714670181274414 -38.43556213378906 C 25.642871856689453 -34.43556213378906 22.714670181274414 -31.507360458374023 18.714670181274414 -30.435562133789062 C 14.714669227600098 -31.507360458374023 11.786465644836426 -34.43556213378906 10.714669227600098 -38.43556213378906 C 11.786465644836426 -42.43556213378906 14.714669227600098 -45.363765716552734 18.714670181274414 -46.43556213378906 C 22.714670181274414 -45.363765716552734 25.642871856689453 -42.43556213378906 26.714670181274414 -38.43556213378906"/>
    <path stroke-width="0" fill="rgb(148, 34, 82)" opacity="0.4864528" stroke="rgb(0, 0, 0)" stroke-opacity="0.0" stroke-linecap="round" stroke-linejoin="round" d="M 207.2901611328125 457.05316162109375 C 207.68568420410156 461.1413879394531 204.9056396484375 464.0794982910156 200.7180633544922 464.7617492675781 C 196.0267791748047 463.07354736328125 192.89332580566406 460.33966064453125 192.46627807617188 456.7301025390625 C 193.72601318359375 452.9775390625 196.71218872070312 450.0186462402344 199.9874725341797 448.713623046875 C 203.58753967285156 449.5964050292969 206.18052673339844 452.8883972167969 207.2901611328125 457.05316162109375"/>
    <path stroke-width="0" fill="rgb(190, 101, 26)" opacity="0.008302949" stroke="rgb(0, 0, 0)" stroke-opacity="0.0" stroke-linecap="round" stroke-linejoin="round" d="M 279.5714111328125 309.7955322265625 C 277.95550537109375 313.4164123535156 275.09515380859375 316.61712646484375 271.7558898925781 317.7567443847656 C 267.4187927246094 317.0277404785156 264.42926025390625 314.23175048828125 263.3927001953125 309.81884765625 C 264.42303466796875 305.86279296875 267.4842224121094 302.9956970214844 271.8477783203125 301.99566650390625 C 275.8798828125 302.69189453125 278.45294189453125 305.8121337890625 279.5714111328125 309.7955322265625"/>
    <path stroke-width="0" fill="rgb(71, 62, 22)" opacity="0.68529695" stroke="rgb(0, 0, 0)" stroke-opacity="0.0" stroke-linecap="round" stroke-linejoin="round" d="M 439.7769470214844 413.0209655761719 C 438.891845703125 418.19232177734375 436.38629150390625 420.6564025878906 432.18603515625 420.4516906738281 C 428.4745788574219 419.2953186035156 425.2762756347656 416.28875732421875 423.7106628417969 412.64862060546875 C 424.3026428222656 409.2356872558594 427.7945556640625 406.8775939941406 432.0058898925781 405.5603332519531 C 435.222412109375 406.27642822265625 438.2935485839844 409.3857421875 439.7769470214844 413.0209655761719"/>
    <path stroke-width="0" fill="rgb(21, 107, 70)" opacity="0.2790484" stroke="rgb(0, 0, 0)" stroke-opacity="0.0" stroke-linecap="round" stroke-linejoin="round" d="M 68.24665069580078 -70.78868865966797 C 67.17485809326172 -66.78868865966797 64.24665069580078 -63.86048126220703 60.24665451049805 -62.7886848449707 C 56.24665451049805 -63.86048126220703 53.318450927734375 -66.78868865966797 52.24665451049805 -70.78868865966797 C 53.318450927734375 -74.78868865966797 56.24665451049805 -77.71688842773438 60.24665451049805 -78.78868865966797 C 64.24665069580078 -77.71688842773438 67.17485809326172 -74.78868865966797 68.24665069580078 -70.78868865966797"/>
    <path stroke-width="0" fill="rgb(106, 238, 84)" opacity="0.9448281" stroke="rgb(0, 0, 0)" stroke-opacity="0.0" stroke-linecap="round" stroke-linejoin="round" d="M 200.48757934570312 426.8496398925781 C 200.27423095703125 430.131103515625 197.13145446777344 432.8244934082031 193.2803192138672 434.51202392578125 C 189.54859924316406 433.5685729980469 186.48379516601562 430.9353332519531 185.62196350097656 426.29534912109375 C 186.25448608398438 422.4643859863281 189.90834045410156 419.94769287109375 193.64736938476562 419.2546691894531 C 197.4672088623047 419.9657287597656 199.9264678955078 423.1147766113281 200.48757934570312 426.8496398925781"/>
    <path stroke-width="0" fill="rgb(184, 149, 201)" opacity="0.30820456" stroke="rgb(0, 0, 0)" stroke-opacity="0.0" stroke-linecap="round" stroke-linejoin="round" d="M 508.88922119140625 362.7827453613281 C 506.5308532714844 366.4146423339844 502.9364013671875 369.0784912109375 499.4698486328125 370.04840087890625 C 496.5614929199219 370.35882568359375 493.5091857910156 367.1375427246094 492.6828308105469 363.8348388671875 C 494.2147521972656 359.9136962890625 496.604736328125 356.3300476074219 499.8671569824219 355.62225341796875 C 504.2462463378906 356.64434814453125 507.4629211425781 359.206298828125 508.88922119140625 362.7827453613281"/>
    <path stroke-width="0" fill="rgb(217, 117, 90)" opacity="0.09875276" stroke="rgb(0, 0, 0)" stroke-opacity="0.0" stroke-linecap="round" stroke-linejoin="round" d="M 205.611083984375 318.872314453125 C 205.3977508544922 322.4259948730469 202.14889526367188 324.9887390136719 197.9265594482422 325.6170349121094 C 193.43130493164062 324.7866516113281 190.50912475585938 322.1893615722656 190.51185607910156 318.3370056152344 C 191.17227172851562 314.1162109375 193.87171936035156 310.8456726074219 197.5765838623047 309.2216491699219 C 201.40625 311.1227111816406 204.17611694335938 314.2625427246094 205.611083984375 318.872314453125"/>
    <path stroke-width="0" fill="rgb(215, 6, 135)" opacity="0.014682447" stroke="rgb(0, 0, 0)" stroke-opacity="0.0" stroke-linecap="round" stroke-linejoin="round" d="M 32.70546340942383 99.71907806396484 C 31.352811813354492 103.87560272216797 28.663894653320312 106.97936248779297 25.070039749145508 107.60274505615234 C 21.05038070678711 106.54283905029297 18.197893142700195 103.60326385498047 17.441587448120117 100.29239654541016 C 18.402145385742188 96.51874542236328 21.11031723022461 93.48384857177734 24.70469093322754 92.54962921142578 C 28.432863235473633 93.38971710205078 31.565898895263672 96.12576293945312 32.70546340942383 99.71907806396484"/>
    <path stroke-width="0" fill="rgb(71, 61, 83)" opacity="0.92496204" stroke="rgb(0, 0, 0)" stroke-opacity="0.0" stroke-linecap="round" stroke-linejoin="round" d="M 74.25743103027344 130.9628143310547 C 73.3718490600586 134.6454315185547 70.3436508178711 137.39846801757812 66.45735168457031 138.86181640625 C 62.17820358276367 137.2346649169922 58.72726058959961 134.8350830078125 58.205162048339844 130.92266845703125 C 59.64460754394531 126.7731704711914 62.51898956298828 123.7603759765625 66.14932250976562 122.66634368896484 C 70.0986557006836 123.77650451660156 72.8867416381836 126.60519409179688 74.25743103027344 130.9628143310547"/>
    <path stroke-width="0" fill="rgb(144, 81, 99)" opacity="0.06388986" stroke="rgb(0, 0, 0)" stroke-opacity="0.0" stroke-linecap="round" stroke-linejoin="round" d="M 38.770538330078125 -39.63826370239258 C 37.6987419128418 -35.63826370239258 34.770538330078125 -32.710060119628906 30.770536422729492 -31.638261795043945 C 26.770536422729492 -32.710060119628906 23.842334747314453 -35.63826370239258 22.770536422729492 -39.63826370239258 C 23.842334747314453 -43.63826370239258 26.770536422729492 -46.566463470458984 30.770536422729492 -47.63826370239258 C 34.770538330078125 -46.566463470458984 37.6987419128418 -43.63826370239258 38.770538330078125 -39.63826370239258"/>
    <path stroke-width="0" fill="rgb(85, 108, 45)" opacity="0.8317418" stroke="rgb(0, 0, 0)" stroke-opacity="0.0" stroke-linecap="round" stroke-linejoin="round" d="M 226.8878936767578 443.2877502441406 C 225.38621520996094 447.8939514160156 222.6731414794922 451.0377197265625 218.5681915283203 452.0028381347656 C 213.88197326660156 451.6158752441406 210.98019409179688 448.97918701171875 210.65509033203125 444.3687438964844 C 212.17300415039062 440.74639892578125 215.20855712890625 437.4355163574219 218.98304748535156 436.243896484375 C 223.21640014648438 436.9615783691406 226.40835571289062 439.4688720703125 226.8878936767578 443.2877502441406"/>
    <path stroke-width="0" fill="rgb(250, 132, 245)" opacity="0.57219166" stroke="rgb(0, 0, 0)" stroke-opacity="0.0" stroke-linecap="round" stroke-linejoin="round" d="M 501.8550720214844 209.0757598876953 C 499.55145263671875 212.77406311035156 496.619140625 215.63877868652344 493.09490966796875 217.05429077148438 C 490.0259094238281 216.4131622314453 486.9836730957031 213.44247436523438 485.33111572265625 209.88931274414062 C 486.9380187988281 205.8930206298828 489.63275146484375 202.46347045898438 493.0386047363281 202.39248657226562 C 496.63311767578125 203.70257568359375 499.8205871582031 206.81056213378906 501.8550720214844 209.0757598876953"/>
    <path stroke-width="0" fill="rgb(174, 47, 137)" opacity="0.2572561" stroke="rgb(0, 0, 0)" stroke-opacity="0.0" stroke-linecap="round" stroke-linejoin="round" d="M 51.903629302978516 118.89395904541016 C 50.95558166503906 122.52024841308594 48.226295471191406 125.71855163574219 44.20698165893555 126.89606475830078 C 39.640560150146484 126.69347381591797 36.641693115234375 123.912353515625 36.44572067260742 119.51899719238281 C 37.63080596923828 114.96198272705078 40.42713928222656 111.88658142089844 44.19527053833008 111.86663818359375 C 48.61714172363281 112.07585144042969 51.314456939697266 114.92326354980469 51.903629302978516 118.89395904541016"/>
    <path stroke-width="0" fill="rgb(40, 208, 60)" opacity="0.061723955" stroke="rgb(0, 0, 0)" stroke-opacity="0.0" stroke-linecap="round" stroke-linejoin="round" d="M 101.63123321533203 375.9797058105469 C 101.62471008300781 380.0122375488281 98.66209411621094 382.3306579589844 93.45128631591797 382.7665100097656 C 90.04712677001953 382.47125244140625 87.6089859008789 379.1598205566406 86.52702331542969 374.650146484375 C 87.1922607421875 371.41851806640625 90.14614868164062 368.3369445800781 93.69596099853516 367.2550354003906 C 97.48689270019531 368.8598937988281 100.2667007446289 372.15618896484375 101.63123321533203 375.9797058105469"/>
    <path stroke-width="0" fill="rgb(210, 34, 159)" opacity="0.6919946" stroke="rgb(0, 0, 0)" stroke-opacity="0.0" stroke-linecap="round" stroke-linejoin="round" d="M 87.40658569335938 243.57986450195312 C 85.84642028808594 246.14212036132812 83.00051879882812 249.19784545898438 80.07660675048828 250.1248321533203 C 77.08545684814453 248.67030334472656 73.6452865600586 246.50363159179688 72.5609359741211 243.05563354492188 C 73.5968246459961 239.83956909179688 76.79817962646484 237.2711944580078 78.88099670410156 236.74937438964844 C 82.03667449951172 238.3031768798828 85.40394592285156 240.8759002685547 87.40658569335938 243.57986450195312"/>
    <path stroke-width="0" fill="rgb(37, 187, 241)" opacity="0.48068258" stroke="rgb(0, 0, 0)" stroke-opacity="0.0" stroke-linecap="round" stroke-linejoin="round" d="M 375.1412658691406 468.04986572265625 C 374.1214294433594 472.03729248046875 370.88531494140625 474.5662536621094 367.2969970703125 475.47161865234375 C 363.5514831542969 474.55096435546875 360.71173095703125 471.5828552246094 359.5616455078125 467.5527038574219 C 360.65362548828125 464.83233642578125 364.1846923828125 462.351806640625 367.8621826171875 460.35015869140625 C 371.2704162597656 460.9225158691406 374.0543518066406 463.89312744140625 375.1412658691406 468.04986572265625"/>
    <path stroke-width="0" fill="rgb(126, 141, 106)" opacity="0.40809587" stroke="rgb(0, 0, 0)" stroke-opacity="0.0" stroke-linecap="round" stroke-linejoin="round" d="M 416.1526794433594 423.87542724609375 C 415.26312255859375 428.826904296875 412.80633544921875 431.60784912109375 408.5576477050781 431.4671630859375 C 404.24298095703125 430.9095458984375 401.4132385253906 428.1490783691406 399.9265441894531 423.9580383300781 C 400.6998291015625 420.3230895996094 404.5323791503906 417.75146484375 408.4012451171875 416.4124450683594 C 412.3515625 417.23748779296875 415.53009033203125 419.95489501953125 416.1526794433594 423.87542724609375"/>
    <path stroke-width="0" fill="rgb(58, 58, 38)" opacity="0.53274935" stroke="rgb(0, 0, 0)" stroke-opacity="0.0" stroke-linecap="round" stroke-linejoin="round" d="M 65.3724594116211 93.41943359375 C 64.53559875488281 97.06877136230469 61.966922760009766 100.13858795166016 58.153648376464844 100.54733276367188 C 54.335697174072266 99.07592010498047 50.93849563598633 96.63368225097656 49.73469924926758 92.70376586914062 C 50.86631774902344 89.29560852050781 54.18351745605469 86.41876983642578 57.956111907958984 85.280029296875 C 61.63386154174805 85.83926391601562 63.94880294799805 89.34465026855469 65.3724594116211 93.41943359375"/>
  </g>
</svg>
