<?xml version="1.0" ?>
<svg xmlns="http://www.w3.org/2000/svg" version="1.1" width="600" height="600">
  <defs/>
  <g>
    <path stroke-width="0" fill="rgb(0, 0, 0)" opacity="1.0" d="M 326.8837890625 296.68402099609375 C 326.8837890625 304.5016174316406 326.8837890625 312.5146484375 326.8837890625 320.72314453125 C 326.8837890625 328.93157958984375 326.8837890625 337.33551025390625 326.8837890625 345.934814453125 C 326.8837890625 354.4560546875 327.1768798828125 362.8990478515625 327.7630615234375 371.26385498046875 C 328.3492431640625 379.628662109375 329.228515625 387.915283203125 330.40087890625 396.123779296875 C 331.5733642578125 404.332275390625 332.7457275390625 412.22802734375 333.918212890625 419.81103515625 C 335.090576171875 427.3941650390625 336.262939453125 434.66448974609375 337.435302734375 441.6221923828125 C 339.780029296875 455.5374755859375 341.968505859375 467.029296875 344.000732421875 476.09771728515625 C 329.775634765625 474.4560546875 315.550537109375 473.63519287109375 301.325439453125 473.63519287109375 C 287.100341796875 473.63519287109375 272.8753662109375 474.4560546875 258.6502685546875 476.09771728515625 C 256.4617919921875 462.807861328125 255.3675537109375 448.26708984375 255.3675537109375 432.4755859375 C 255.3675537109375 424.5015869140625 255.3675537109375 416.44952392578125 255.3675537109375 408.3192138671875 C 255.3675537109375 400.18896484375 255.3675537109375 391.98046875 255.3675537109375 383.69384765625 C 255.3675537109375 375.05535888671875 255.3675537109375 366.7442626953125 255.3675537109375 358.7606201171875 C 255.3675537109375 350.77685546875 255.3675537109375 343.1204833984375 255.3675537109375 335.79150390625 C 255.3675537109375 321.133544921875 255.3675537109375 307.7850036621094 255.3675537109375 295.74591064453125 C 255.3675537109375 283.628662109375 255.69970703125 272.390869140625 256.364013671875 262.0325622558594 C 257.0283203125 251.67425537109375 258.02490234375 242.1954345703125 259.353759765625 233.5960693359375 C 260.682373046875 224.99676513671875 261.9915771484375 216.925048828125 263.28125 209.381103515625 C 264.57080078125 201.83712768554688 265.8409423828125 194.82083129882812 267.091552734375 188.33224487304688 C 255.75830078125 189.34854125976562 245.187255859375 190.71658325195312 235.378173828125 192.43646240234375 C 225.569091796875 194.15634155273438 216.5220947265625 196.22799682617188 208.2371826171875 198.65145874023438 C 191.667236328125 203.49835205078125 179.943359375 207.56350708007812 173.065185546875 210.84689331054688 C 175.48828125 198.3387451171875 177.305419921875 186.123779296875 178.516845703125 174.20193481445312 C 179.7283935546875 162.28012084960938 180.3341064453125 150.65145874023438 180.3341064453125 139.31594848632812 C 187.134033203125 137.2052001953125 194.793701171875 135.2899169921875 203.3131103515625 133.57003784179688 C 211.83251953125 131.85015869140625 221.211669921875 130.32571411132812 231.45068359375 128.99673461914062 C 241.7677001953125 127.58956909179688 252.885986328125 126.5341796875 264.8052978515625 125.83059692382812 C 276.724609375 125.12701416015625 289.4451904296875 124.77523803710938 302.966796875 124.77523803710938 C 316.644775390625 124.77523803710938 329.4044189453125 125.14657592773438 341.24560546875 125.88925170898438 C 353.0869140625 126.63189697265625 364.0096435546875 127.74591064453125 374.01416015625 129.23126220703125 C 384.0966796875 130.638427734375 393.6907958984375 132.4755859375 402.79638671875 134.74267578125 C 411.902099609375 137.009765625 420.519287109375 139.70681762695312 428.6478271484375 142.8338623046875 C 426.146728515625 155.029296875 423.8800048828125 167.14657592773438 421.847900390625 179.1856689453125 C 419.97216796875 191.22476196289062 418.487060546875 203.49835205078125 417.392822265625 216.00653076171875 C 409.5767822265625 211.15960693359375 398.39990234375 206.07815551757812 383.8623046875 200.76220703125 C 376.6715087890625 198.10421752929688 368.73828125 195.81756591796875 360.0625 193.90228271484375 C 351.3868408203125 191.98696899414062 341.968505859375 190.4429931640625 331.807861328125 189.27035522460938 C 330.16650390625 200.60586547851562 328.9354248046875 211.15960693359375 328.11474609375 220.93157958984375 C 327.2940673828125 230.70358276367188 326.8837890625 239.69378662109375 326.8837890625 247.90228271484375 C 326.8837890625 256.1107482910156 326.8837890625 264.2801208496094 326.8837890625 272.410400390625 C 326.8837890625 280.54071044921875 326.8837890625 288.6319274902344 326.8837890625 296.68402099609375"/>
  </g>
</svg>
