<?xml version="1.0" ?>
<svg xmlns="http://www.w3.org/2000/svg" version="1.1" width="512" height="512">
  <defs/>
  <g>
    <path stroke-width="0" fill="rgb(43, 249, 25)" opacity="0.95022655" stroke="rgb(139, 182, 153)" stroke-opacity="1.0" stroke-linecap="round" stroke-linejoin="round" d="M 206.63125610351562 174.779052734375 C 83.83479309082031 69.53621673583984 142.33738708496094 167.79034423828125 -10.155906677246094 310.4666442871094 C -50.38013458251953 273.6077880859375 -32.125091552734375 244.37161254882812 0.8160078525543213 198.25779724121094 C 57.36418533325195 82.95391082763672 62.12978744506836 73.32791137695312 78.68253326416016 110.43894958496094 C 273.7721252441406 196.52520751953125 147.0210418701172 53.73674011230469 206.63125610351562 174.779052734375"/>
    <path stroke-width="0" fill="rgb(143, 157, 148)" opacity="0.89345366" stroke="rgb(108, 164, 111)" stroke-opacity="1.0" stroke-linecap="round" stroke-linejoin="round" d="M 145.2607421875 -35.15673065185547 C 89.9356460571289 150.74325561523438 119.73593139648438 222.3387451171875 -4.65944242477417 262.5972900390625 C -46.547916412353516 225.74099731445312 -45.62079620361328 209.98471069335938 -47.316612243652344 66.32988739013672 C -49.11305618286133 -8.18151569366455 -55.94807434082031 -28.422311782836914 15.614151954650879 -48.40176773071289 C 199.6168670654297 -48.19676208496094 200.75816345214844 -41.44858932495117 145.2607421875 -35.15673065185547"/>
    <path stroke-width="0" fill="rgb(182, 184, 82)" opacity="0.40633002" stroke="rgb(245, 97, 201)" stroke-opacity="1.0" stroke-linecap="round" stroke-linejoin="round" d="M 563.8391723632812 -46.56962203979492 C 586.0159912109375 497.6336975097656 588.2413940429688 535.3872680664062 531.1686401367188 496.4620361328125 C -111.59935760498047 496.1609802246094 -96.07042694091797 502.80926513671875 -73.16621398925781 490.7156066894531 C 93.39950561523438 154.48367309570312 150.2056427001953 154.59666442871094 337.62646484375 -47.56919860839844 C 391.4353942871094 -64.82481384277344 407.0115051269531 -154.88951110839844 563.8391723632812 -46.56962203979492"/>
    <path stroke-width="0" fill="rgb(27, 67, 90)" opacity="0.7920633" stroke="rgb(144, 236, 18)" stroke-opacity="1.0" stroke-linecap="round" stroke-linejoin="round" d="M 279.0451965332031 22.548681259155273 C 60.659236907958984 233.01611328125 197.6242218017578 65.89353942871094 511.1202392578125 378.72686767578125 C 152.47366333007812 533.5541381835938 -166.63198852539062 505.72021484375 -280.3116455078125 351.1268005371094 C 30.286012649536133 0.14744293689727783 11.155835151672363 -26.858522415161133 238.11729431152344 -44.942466735839844 C 282.8175964355469 -42.89452362060547 302.7532958984375 -43.840789794921875 279.0451965332031 22.548681259155273"/>
    <path stroke-width="0" fill="rgb(214, 102, 113)" opacity="0.85214156" stroke="rgb(5, 212, 198)" stroke-opacity="1.0" stroke-linecap="round" stroke-linejoin="round" d="M 257.9652404785156 314.86383056640625 C 284.39520263671875 285.97796630859375 274.6307678222656 292.9189453125 218.7607879638672 340.38092041015625 C 208.81878662109375 338.1003112792969 203.44940185546875 330.0090026855469 201.84849548339844 287.6219482421875 C 252.58143615722656 277.109619140625 283.5915832519531 286.135986328125 291.896240234375 290.1601867675781 C 237.96881103515625 293.13275146484375 249.40687561035156 304.6378479003906 257.9652404785156 314.86383056640625"/>
    <path stroke-width="0" fill="rgb(259, 138, 66)" opacity="0.98272365" stroke="rgb(249, 203, 117)" stroke-opacity="1.0" stroke-linecap="round" stroke-linejoin="round" d="M 339.6734924316406 468.85479736328125 C 359.5264892578125 496.8482360839844 289.50860595703125 445.5587158203125 153.86331176757812 451.407470703125 C 113.12310028076172 440.9465026855469 129.7867889404297 464.6116027832031 108.57057189941406 339.239501953125 C 109.68492126464844 313.8887023925781 170.88755798339844 332.3009338378906 237.45423889160156 374.29705810546875 C 245.7714385986328 283.34136962890625 329.0750732421875 251.31356811523438 339.6734924316406 468.85479736328125"/>
    <path stroke-width="0" fill="rgb(216, 108, 23)" opacity="0.99586207" stroke="rgb(30, 163, 36)" stroke-opacity="1.0" stroke-linecap="round" stroke-linejoin="round" d="M 377.610107421875 341.2620544433594 C 355.874267578125 460.5971374511719 369.2086486816406 458.7456359863281 337.13348388671875 446.5367126464844 C 239.2744903564453 448.6027526855469 181.066162109375 446.9193115234375 147.49070739746094 446.4338684082031 C 121.62879180908203 209.43051147460938 139.034423828125 354.9631652832031 315.7175598144531 321.097900390625 C 357.2323303222656 341.740966796875 369.04290771484375 315.92132568359375 377.610107421875 341.2620544433594"/>
    <path stroke-width="0" fill="rgb(227, 121, 92)" opacity="0.8946633" stroke="rgb(133, 105, 67)" stroke-opacity="1.0" stroke-linecap="round" stroke-linejoin="round" d="M 296.997802734375 283.1882629394531 C 306.2359313964844 285.98602294921875 291.9939880371094 293.2522888183594 295.5846252441406 299.45208740234375 C 254.8929443359375 289.4755859375 254.3079376220703 289.4248046875 293.0123596191406 303.1855163574219 C 305.9015808105469 301.29217529296875 317.46063232421875 292.3818664550781 260.073486328125 291.2803039550781 C 249.96353149414062 300.6019287109375 274.1562194824219 295.94403076171875 296.997802734375 283.1882629394531"/>
    <path stroke-width="0" fill="rgb(210, 165, 120)" opacity="0.80074733" stroke="rgb(116, 144, 4)" stroke-opacity="1.0" stroke-linecap="round" stroke-linejoin="round" d="M 263.1174621582031 291.2752685546875 C 267.353759765625 333.7073669433594 260.5087890625 322.962646484375 209.03163146972656 323.5508728027344 C 94.83926391601562 349.11199951171875 148.1744842529297 291.99285888671875 160.59239196777344 310.1388854980469 C 163.06930541992188 256.7319641113281 145.21249389648438 275.43017578125 280.3538513183594 279.7951965332031 C 234.2469482421875 291.294189453125 263.5751953125 281.3648681640625 263.1174621582031 291.2752685546875"/>
    <path stroke-width="0" fill="rgb(237, 147, 88)" opacity="0.8051073" stroke="rgb(156, 157, 240)" stroke-opacity="1.0" stroke-linecap="round" stroke-linejoin="round" d="M 322.16357421875 372.0561218261719 C 289.6976623535156 369.2250671386719 325.8236083984375 351.53167724609375 263.7474365234375 355.8726806640625 C 211.03269958496094 357.54449462890625 198.65823364257812 359.0889892578125 168.3522186279297 377.6429443359375 C 168.21217346191406 262.294921875 172.8406982421875 282.28778076171875 372.4171142578125 267.1924743652344 C 301.12890625 315.8658142089844 325.16943359375 209.3562469482422 322.16357421875 372.0561218261719"/>
    <path stroke-width="0" fill="rgb(221, 141, 103)" opacity="0.89530873" stroke="rgb(91, 111, 177)" stroke-opacity="1.0" stroke-linecap="round" stroke-linejoin="round" d="M 296.95654296875 325.0135803222656 C 350.1382751464844 274.95672607421875 347.7849426269531 353.7068176269531 317.76263427734375 326.1273498535156 C 287.8167724609375 404.4166564941406 247.45843505859375 374.8529968261719 243.7578582763672 305.9420166015625 C 223.8907012939453 273.5146484375 227.25628662109375 274.6573181152344 327.4636535644531 274.24041748046875 C 313.3644104003906 269.4993591308594 342.5906982421875 322.31927490234375 296.95654296875 325.0135803222656"/>
    <path stroke-width="0" fill="rgb(263, 142, 70)" opacity="1.026669" stroke="rgb(170, 171, 53)" stroke-opacity="1.0" stroke-linecap="round" stroke-linejoin="round" d="M 335.5248718261719 401.7447814941406 C 333.1806640625 420.4693298339844 334.82171630859375 412.89813232421875 228.84286499023438 414.9678039550781 C 81.28718566894531 418.0264587402344 181.13973999023438 417.7586669921875 162.77438354492188 281.184814453125 C 178.1832275390625 265.5604248046875 122.405517578125 265.6808166503906 297.1678466796875 265.42901611328125 C 358.6623229980469 265.58233642578125 287.8938293457031 321.9803771972656 335.5248718261719 401.7447814941406"/>
    <path stroke-width="0" fill="rgb(-4, 30, 23)" opacity="0.9360934" stroke="rgb(80, 92, 145)" stroke-opacity="1.0" stroke-linecap="round" stroke-linejoin="round" d="M 499.7662353515625 -49.06038284301758 C 594.9838256835938 318.1307067871094 520.023193359375 345.8795166015625 437.493408203125 401.8092041015625 C 440.5331726074219 385.18988037109375 468.8897705078125 392.20941162109375 456.6977233886719 325.93084716796875 C 463.6466979980469 224.53382873535156 495.68927001953125 258.8409423828125 393.8514099121094 250.97979736328125 C 500.6108703613281 116.02182006835938 428.7370300292969 19.9958438873291 499.7662353515625 -49.06038284301758"/>
    <path stroke-width="0" fill="rgb(83, 76, 126)" opacity="0.88417625" stroke="rgb(252, 26, 53)" stroke-opacity="1.0" stroke-linecap="round" stroke-linejoin="round" d="M 530.1831665039062 401.7176513671875 C 510.7175598144531 461.2843322753906 500.4407958984375 455.72576904296875 477.56951904296875 442.80157470703125 C 444.8975830078125 520.6705932617188 445.3443603515625 408.916748046875 447.38153076171875 449.06109619140625 C 416.53607177734375 443.1968994140625 429.94989013671875 414.00811767578125 440.79815673828125 352.6312561035156 C 490.15545654296875 366.67889404296875 495.2337951660156 380.4762268066406 530.1831665039062 401.7176513671875"/>
    <path stroke-width="0" fill="rgb(25, 47, 77)" opacity="0.9990123" stroke="rgb(166, 64, 118)" stroke-opacity="1.0" stroke-linecap="round" stroke-linejoin="round" d="M 535.9078979492188 493.875732421875 C 558.5413208007812 493.8200378417969 535.6409912109375 485.2733459472656 448.1598815917969 484.7135925292969 C 409.9447021484375 482.2204895019531 380.17962646484375 490.0218200683594 395.45086669921875 473.37933349609375 C 419.5065002441406 361.0338134765625 429.4550476074219 257.60272216796875 449.1552429199219 337.3453063964844 C 465.7082824707031 450.8398742675781 523.8311157226562 397.8972473144531 535.9078979492188 493.875732421875"/>
    <path stroke-width="0" fill="rgb(268, 224, 143)" opacity="0.5660112" stroke="rgb(40, 28, 167)" stroke-opacity="1.0" stroke-linecap="round" stroke-linejoin="round" d="M 393.54998779296875 488.9041442871094 C 634.3735961914062 444.601318359375 626.4176025390625 691.9503173828125 -98.37691497802734 485.38665771484375 C 428.9058837890625 466.9654235839844 448.9052734375 506.2390441894531 338.62982177734375 448.30078125 C 336.72088623046875 408.0204162597656 353.99688720703125 328.450439453125 343.8384704589844 328.6355285644531 C 407.5412292480469 338.9759521484375 368.59979248046875 300.3690490722656 393.54998779296875 488.9041442871094"/>
    <path stroke-width="0" fill="rgb(-25, 22, 40)" opacity="0.9584126" stroke="rgb(50, 94, 209)" stroke-opacity="1.0" stroke-linecap="round" stroke-linejoin="round" d="M 291.52386474609375 208.70574951171875 C 230.1784210205078 189.67271423339844 358.794677734375 231.47779846191406 262.8688659667969 200.37326049804688 C 25.262678146362305 224.28102111816406 328.9353942871094 -145.89463806152344 177.52127075195312 161.12203979492188 C 363.6961364746094 234.39425659179688 176.98458862304688 25.16350746154785 233.69287109375 31.06117057800293 C 327.2170715332031 110.19729614257812 313.0002746582031 177.21827697753906 291.52386474609375 208.70574951171875"/>
    <path stroke-width="0" fill="rgb(91, 208, -41)" opacity="1.0054483" stroke="rgb(213, 24, 248)" stroke-opacity="1.0" stroke-linecap="round" stroke-linejoin="round" d="M 274.0346374511719 197.39352416992188 C 296.78179931640625 199.85629272460938 312.9197998046875 218.10897827148438 168.82887268066406 155.76406860351562 C 231.6400604248047 273.71240234375 302.6779479980469 101.08344268798828 215.4760284423828 76.35459899902344 C 128.16981506347656 304.2517395019531 182.95834350585938 -27.97195053100586 250.34317016601562 53.42533874511719 C 332.72686767578125 216.19593811035156 204.61068725585938 173.88626098632812 274.0346374511719 197.39352416992188"/>
    <path stroke-width="0" fill="rgb(201, 120, 25)" opacity="0.8850415" stroke="rgb(249, 154, 188)" stroke-opacity="1.0" stroke-linecap="round" stroke-linejoin="round" d="M 318.2152099609375 354.8328857421875 C 334.01611328125 475.76556396484375 368.6590576171875 225.8137969970703 319.5477600097656 387.31988525390625 C 57.19940185546875 383.33734130859375 189.6020965576172 399.75189208984375 144.72012329101562 350.273681640625 C 214.21197509765625 362.25732421875 293.5314025878906 346.5104064941406 218.8596649169922 361.7347717285156 C 268.49700927734375 351.393310546875 238.8108367919922 354.8367004394531 318.2152099609375 354.8328857421875"/>
    <path stroke-width="0" fill="rgb(248, 217, 106)" opacity="0.9447716" stroke="rgb(72, 30, 75)" stroke-opacity="1.0" stroke-linecap="round" stroke-linejoin="round" d="M 549.6653442382812 396.72052001953125 C 527.3071899414062 423.4535217285156 488.0984191894531 424.06231689453125 437.8916015625 354.9466247558594 C 431.446533203125 477.9957580566406 409.2464599609375 624.9161376953125 429.3518371582031 349.75018310546875 C 393.53448486328125 372.6214599609375 433.758056640625 239.21934509277344 426.6539306640625 304.1315612792969 C 520.8229370117188 332.4575500488281 544.0447998046875 277.9704895019531 549.6653442382812 396.72052001953125"/>
    <path stroke-width="0" fill="rgb(246, 142, 29)" opacity="0.45186082" stroke="rgb(81, 105, 16)" stroke-opacity="1.0" stroke-linecap="round" stroke-linejoin="round" d="M 551.7854614257812 296.2623291015625 C 483.240478515625 385.4048156738281 445.8321533203125 415.0613098144531 429.9684143066406 315.08624267578125 C 443.36260986328125 506.65753173828125 401.7415771484375 594.8060913085938 440.0892028808594 353.882568359375 C 414.5547790527344 281.8935852050781 430.3702087402344 324.1871337890625 516.7987060546875 307.09527587890625 C 518.238037109375 275.54443359375 530.0408325195312 279.0945129394531 551.7854614257812 296.2623291015625"/>
    <path stroke-width="0" fill="rgb(201, 252, -10)" opacity="0.94837254" stroke="rgb(144, 67, 133)" stroke-opacity="1.0" stroke-linecap="round" stroke-linejoin="round" d="M 469.127685546875 261.9681396484375 C 491.2460632324219 88.3615951538086 493.01678466796875 186.45968627929688 420.8476257324219 139.11993408203125 C 437.6938781738281 126.74159240722656 460.8589782714844 152.8348846435547 435.7837829589844 113.63134002685547 C 440.6185302734375 120.82682037353516 467.3205261230469 160.9768524169922 448.5220642089844 137.13232421875 C 411.0406494140625 29.677528381347656 512.552734375 154.29135131835938 469.127685546875 261.9681396484375"/>
    <path stroke-width="0" fill="rgb(24, 46, 79)" opacity="1.0346718" stroke="rgb(146, 236, 81)" stroke-opacity="1.0" stroke-linecap="round" stroke-linejoin="round" d="M 552.456787109375 488.22833251953125 C 553.0545654296875 506.82989501953125 547.32421875 512.4262084960938 531.035400390625 487.3642883300781 C 483.43145751953125 505.2187194824219 489.5341491699219 384.5539245605469 439.4884338378906 424.24212646484375 C 450.2991027832031 392.53399658203125 435.4027404785156 382.8608093261719 470.9088439941406 394.40185546875 C 514.0177612304688 401.9125671386719 544.0101928710938 381.733154296875 552.456787109375 488.22833251953125"/>
    <path stroke-width="0" fill="rgb(26, 64, 83)" opacity="0.44931236" stroke="rgb(33, 182, 73)" stroke-opacity="1.0" stroke-linecap="round" stroke-linejoin="round" d="M 598.2183837890625 3.3846793174743652 C 593.9190673828125 299.7571716308594 556.2720336914062 291.59539794921875 463.8271484375 311.9369201660156 C 401.947021484375 298.0209655761719 429.98529052734375 316.7955322265625 401.0041198730469 311.25885009765625 C 302.0897216796875 415.9847106933594 294.58648681640625 84.44493103027344 221.0848388671875 -31.562931060791016 C 616.9965209960938 -80.57600402832031 610.6663208007812 -56.13962936401367 598.2183837890625 3.3846793174743652"/>
    <path stroke-width="0" fill="rgb(244, 230, 109)" opacity="0.9540535" stroke="rgb(149, 5, 211)" stroke-opacity="1.0" stroke-linecap="round" stroke-linejoin="round" d="M 457.7981262207031 371.9554748535156 C 440.9998474121094 342.7561950683594 428.7337646484375 355.4427185058594 478.47991943359375 381.9627380371094 C 387.9263000488281 354.0877685546875 445.310546875 288.6431884765625 378.7177429199219 546.4571533203125 C 418.80767822265625 241.16943359375 414.43829345703125 322.7281799316406 495.5477294921875 308.4463806152344 C 400.5019226074219 378.0653381347656 424.1133728027344 344.0246887207031 457.7981262207031 371.9554748535156"/>
    <path stroke-width="0" fill="rgb(31, 60, 84)" opacity="1.0036505" stroke="rgb(172, 68, 187)" stroke-opacity="1.0" stroke-linecap="round" stroke-linejoin="round" d="M 383.27886962890625 157.4734344482422 C 364.0205383300781 614.2681274414062 332.1329650878906 362.0066833496094 336.28564453125 482.3547668457031 C 282.6603088378906 472.3437194824219 299.7167663574219 495.79022216796875 286.1688232421875 450.3497009277344 C 329.489501953125 455.3023986816406 313.1802978515625 439.20465087890625 328.00653076171875 482.58782958984375 C 392.4182434082031 463.02886962890625 405.5370788574219 573.8215942382812 383.27886962890625 157.4734344482422"/>
    <path stroke-width="0" fill="rgb(24, 46, 76)" opacity="1.0029888" stroke="rgb(63, 146, 150)" stroke-opacity="1.0" stroke-linecap="round" stroke-linejoin="round" d="M 511.1070861816406 421.6722412109375 C 502.212890625 393.88885498046875 492.52362060546875 427.37274169921875 507.0238037109375 459.84344482421875 C 486.094482421875 410.8942565917969 424.3582763671875 443.2594299316406 439.4211730957031 354.62982177734375 C 439.68756103515625 357.2391052246094 428.68585205078125 354.9400939941406 499.79150390625 355.9921875 C 493.316162109375 357.06317138671875 511.1345520019531 372.6175842285156 511.1070861816406 421.6722412109375"/>
    <path stroke-width="0" fill="rgb(24, 48, 72)" opacity="0.53172755" stroke="rgb(56, 242, 114)" stroke-opacity="1.0" stroke-linecap="round" stroke-linejoin="round" d="M 513.4651489257812 444.5976867675781 C 548.5046997070312 457.67095947265625 548.2293701171875 462.89361572265625 545.124755859375 449.05999755859375 C 488.70977783203125 406.3087158203125 457.2960510253906 398.8453674316406 435.6346130371094 377.5280456542969 C 435.6726989746094 349.98370361328125 434.78271484375 374.88482666015625 436.6744384765625 457.2514953613281 C 460.3075256347656 378.6365051269531 477.4334411621094 406.98773193359375 513.4651489257812 444.5976867675781"/>
    <path stroke-width="0" fill="rgb(146, 164, 186)" opacity="0.83625764" stroke="rgb(178, 75, 207)" stroke-opacity="1.0" stroke-linecap="round" stroke-linejoin="round" d="M 147.22068786621094 61.80990219116211 C 188.0092010498047 169.8716278076172 135.494873046875 190.05931091308594 94.4330825805664 113.5890884399414 C 78.98857879638672 102.02765655517578 74.55934143066406 95.71833801269531 71.73407745361328 80.21098327636719 C 108.18717956542969 47.334869384765625 86.21554565429688 65.5135269165039 112.25182342529297 28.182722091674805 C 136.89857482910156 48.58522033691406 153.72352600097656 61.86629867553711 147.22068786621094 61.80990219116211"/>
    <path stroke-width="0" fill="rgb(25, 56, 101)" opacity="1.0050708" stroke="rgb(224, 148, 224)" stroke-opacity="1.0" stroke-linecap="round" stroke-linejoin="round" d="M 283.6072082519531 442.80462646484375 C 272.2013244628906 458.9693603515625 283.26300048828125 461.76031494140625 283.1145935058594 480.2979736328125 C 155.2361602783203 479.9979248046875 192.5496063232422 481.0171813964844 206.1345977783203 451.1592102050781 C 191.67950439453125 448.9879150390625 305.44622802734375 452.32708740234375 273.73699951171875 449.30438232421875 C 282.1226501464844 451.5351867675781 272.7115783691406 459.8756103515625 283.6072082519531 442.80462646484375"/>
    <path stroke-width="0" fill="rgb(128, 131, 138)" opacity="0.88764197" stroke="rgb(184, 127, 243)" stroke-opacity="1.0" stroke-linecap="round" stroke-linejoin="round" d="M 143.39979553222656 27.17222023010254 C 140.59051513671875 37.378482818603516 133.56362915039062 45.07179641723633 123.30973815917969 47.79234313964844 C 65.74456024169922 45.363059997558594 59.346702575683594 38.196407318115234 58.65827178955078 26.090795516967773 C 83.41075897216797 -5.345153331756592 90.33708190917969 -13.039883613586426 99.57219696044922 -15.646736145019531 C 107.08129119873047 -10.918153762817383 112.10286712646484 -1.819069504737854 143.39979553222656 27.17222023010254"/>
    <path stroke-width="0" fill="rgb(144, 155, 162)" opacity="1.0348645" stroke="rgb(108, 154, 4)" stroke-opacity="1.0" stroke-linecap="round" stroke-linejoin="round" d="M 77.36080169677734 7.227435111999512 C 75.44561767578125 16.533445358276367 68.842041015625 24.54829216003418 59.605587005615234 27.2891788482666 C 50.40231704711914 24.93444061279297 43.037452697753906 17.607803344726562 38.1085319519043 7.1798176765441895 C 39.97697448730469 -3.119166851043701 48.419761657714844 -10.004704475402832 59.6789436340332 -12.088932037353516 C 69.67427825927734 -9.125954627990723 76.38927459716797 -1.4801870584487915 77.36080169677734 7.227435111999512"/>
    <path stroke-width="0" fill="rgb(114, 121, 134)" opacity="0.9731447" stroke="rgb(168, 73, 157)" stroke-opacity="1.0" stroke-linecap="round" stroke-linejoin="round" d="M 72.43903350830078 16.135295867919922 C 70.28892517089844 27.32769203186035 63.47535705566406 34.7238655090332 48.116065979003906 45.244911193847656 C 21.331424713134766 48.082191467285156 12.165699005126953 48.84839630126953 43.04933547973633 38.18124771118164 C 61.032588958740234 19.83501625061035 59.92333984375 16.239620208740234 37.415863037109375 -20.694133758544922 C 62.02297592163086 -1.4719393253326416 68.93653106689453 6.265058517456055 72.43903350830078 16.135295867919922"/>
    <path stroke-width="0" fill="rgb(80, 105, 117)" opacity="0.557382" stroke="rgb(34, 76, 145)" stroke-opacity="1.0" stroke-linecap="round" stroke-linejoin="round" d="M 222.95626831054688 13.929163932800293 C 166.6432342529297 87.79845428466797 133.70997619628906 79.39381408691406 114.84929656982422 104.95198822021484 C 84.53487396240234 111.34813690185547 79.51712036132812 103.91167449951172 95.14883422851562 91.41810607910156 C 94.85026550292969 46.418357849121094 101.99199676513672 39.49327850341797 118.98931884765625 -8.0197114944458 C 153.8002471923828 -35.099552154541016 204.67918395996094 -41.46053695678711 222.95626831054688 13.929163932800293"/>
    <path stroke-width="0" fill="rgb(110, 108, 97)" opacity="0.86385685" stroke="rgb(146, 166, 166)" stroke-opacity="1.0" stroke-linecap="round" stroke-linejoin="round" d="M 168.6959686279297 245.86795043945312 C 176.61436462402344 207.77012634277344 124.85150909423828 211.9117889404297 47.16605758666992 193.17579650878906 C 36.99614715576172 189.66331481933594 31.26698112487793 182.12478637695312 40.51610565185547 143.4242706298828 C 58.9291877746582 86.28399658203125 66.34931182861328 79.13863372802734 61.677001953125 97.86360168457031 C 121.24925231933594 108.75310516357422 25.142240524291992 188.70506286621094 168.6959686279297 245.86795043945312"/>
    <path stroke-width="0" fill="rgb(219, 212, 191)" opacity="0.3501355" stroke="rgb(228, 93, 111)" stroke-opacity="1.0" stroke-linecap="round" stroke-linejoin="round" d="M 223.4878387451172 37.70122146606445 C 188.8005828857422 38.56175231933594 155.39450073242188 154.36898803710938 165.3143310546875 167.29257202148438 C 48.03757095336914 146.30238342285156 103.03218078613281 60.68407440185547 85.31432342529297 15.87867259979248 C 86.95794677734375 6.3150634765625 94.32383728027344 -0.9659550786018372 108.31591796875 -4.846617221832275 C 170.69989013671875 -17.26809310913086 187.17555236816406 -58.99879837036133 223.4878387451172 37.70122146606445"/>
    <path stroke-width="0" fill="rgb(121, 129, 136)" opacity="0.9059877" stroke="rgb(205, 179, 25)" stroke-opacity="1.0" stroke-linecap="round" stroke-linejoin="round" d="M 85.36186218261719 44.93703079223633 C 35.18763732910156 73.21246337890625 33.13547897338867 82.35983276367188 -11.688862800598145 136.35728454589844 C -23.76293182373047 138.65989685058594 -30.73976707458496 131.9322509765625 -32.73062515258789 110.25830078125 C -19.169034957885742 31.581357955932617 -11.184906005859375 25.025835037231445 62.46534729003906 26.281770706176758 C 75.00450134277344 25.962034225463867 82.16339111328125 32.66671371459961 85.36186218261719 44.93703079223633"/>
    <path stroke-width="0" fill="rgb(123, 146, 141)" opacity="1.0160724" stroke="rgb(182, 254, 38)" stroke-opacity="1.0" stroke-linecap="round" stroke-linejoin="round" d="M 230.06997680664062 230.19175720214844 C 169.22032165527344 235.9302978515625 132.58633422851562 338.5014953613281 148.66329956054688 330.90557861328125 C -51.42158126831055 333.2897644042969 -18.92597770690918 295.23052978515625 -12.476548194885254 198.75941467285156 C -4.04278564453125 132.6371612548828 -2.123201608657837 119.01152038574219 49.396881103515625 109.20745849609375 C 123.82328033447266 109.83113098144531 129.0646514892578 131.3395233154297 230.06997680664062 230.19175720214844"/>
    <path stroke-width="0" fill="rgb(130, 145, 140)" opacity="0.9617135" stroke="rgb(41, 156, 31)" stroke-opacity="1.0" stroke-linecap="round" stroke-linejoin="round" d="M 68.7414321899414 66.57643127441406 C 65.15876770019531 78.0391845703125 58.038673400878906 85.33732604980469 -4.411581993103027 91.93724822998047 C -18.30956268310547 92.00404357910156 -28.15337371826172 88.30581665039062 -30.40452766418457 79.21770477294922 C -26.784635543823242 3.3494513034820557 -18.000425338745117 -3.135021209716797 -10.214987754821777 -3.4169065952301025 C 57.69694137573242 4.606578826904297 64.85643768310547 10.468412399291992 68.7414321899414 66.57643127441406"/>
    <path stroke-width="0" fill="rgb(145, 133, 152)" opacity="0.9667575" stroke="rgb(205, 145, 103)" stroke-opacity="1.0" stroke-linecap="round" stroke-linejoin="round" d="M 90.45401000976562 69.39069366455078 C 57.47041702270508 78.90538024902344 73.01539611816406 81.84122467041016 60.91558837890625 127.83696746826172 C 50.51725769042969 124.8853759765625 43.64631271362305 117.132568359375 34.92554473876953 53.473846435546875 C 35.492488861083984 41.589935302734375 41.40456008911133 33.7183837890625 49.78911590576172 32.124046325683594 C 92.68421173095703 67.78382110595703 99.90818786621094 74.75943756103516 90.45401000976562 69.39069366455078"/>
    <path stroke-width="0" fill="rgb(134, 139, 150)" opacity="0.96576893" stroke="rgb(177, 115, 184)" stroke-opacity="1.0" stroke-linecap="round" stroke-linejoin="round" d="M 115.81739044189453 33.22405242919922 C 115.52613830566406 44.498619079589844 108.70947265625 51.944190979003906 97.27996063232422 54.180908203125 C 62.178871154785156 25.095951080322266 54.63944625854492 17.99709701538086 50.052955627441406 9.082321166992188 C 56.30742645263672 -0.11054428666830063 63.06830978393555 -8.326950073242188 72.1353759765625 -11.8544282913208 C 81.51655578613281 -8.901960372924805 88.35086059570312 -1.1051520109176636 115.81739044189453 33.22405242919922"/>
    <path stroke-width="0" fill="rgb(130, 144, 138)" opacity="0.89694273" stroke="rgb(248, 218, 2)" stroke-opacity="1.0" stroke-linecap="round" stroke-linejoin="round" d="M 111.99537658691406 15.797107696533203 C 36.25825119018555 20.40544319152832 104.41069793701172 79.80387878417969 35.426063537597656 94.87913513183594 C 26.512460708618164 88.67276763916016 18.688364028930664 81.54875183105469 14.481456756591797 71.65144348144531 C 50.47018814086914 30.053247451782227 59.08075714111328 24.555316925048828 93.54438781738281 -3.752084255218506 C 104.59861755371094 -4.319833278656006 111.20870971679688 3.671319007873535 111.99537658691406 15.797107696533203"/>
    <path stroke-width="0" fill="rgb(151, 150, 153)" opacity="1.0080116" stroke="rgb(186, 43, 132)" stroke-opacity="1.0" stroke-linecap="round" stroke-linejoin="round" d="M 103.94585418701172 137.1883087158203 C 105.67520141601562 149.6109619140625 104.44348907470703 162.30697631835938 95.29664611816406 176.41232299804688 C 10.0996675491333 168.75901794433594 10.14577579498291 158.46627807617188 23.055932998657227 135.89024353027344 C 42.067138671875 97.63372802734375 49.86994171142578 90.5815200805664 82.19608306884766 64.9896240234375 C 93.3634262084961 67.0723876953125 100.71283721923828 74.56897735595703 103.94585418701172 137.1883087158203"/>
    <path stroke-width="0" fill="rgb(121, 150, 140)" opacity="0.9568556" stroke="rgb(50, 4, 202)" stroke-opacity="1.0" stroke-linecap="round" stroke-linejoin="round" d="M 167.24896240234375 230.2333221435547 C 324.43511962890625 173.7499542236328 653.069580078125 283.8957214355469 141.22190856933594 264.66217041015625 C -14.24836540222168 234.58111572265625 31.273073196411133 192.3751220703125 52.74197006225586 165.95518493652344 C 97.89777374267578 112.55999755859375 95.74701690673828 113.36090850830078 72.38245391845703 96.42250061035156 C 86.11888122558594 156.85708618164062 151.74359130859375 68.86287689208984 167.24896240234375 230.2333221435547"/>
    <path stroke-width="0" fill="rgb(124, 139, 121)" opacity="0.9807795" stroke="rgb(88, 236, 179)" stroke-opacity="1.0" stroke-linecap="round" stroke-linejoin="round" d="M 131.73934936523438 29.46842384338379 C 112.7619400024414 57.51328659057617 105.94161224365234 65.72843170166016 98.12296295166016 67.2922134399414 C 87.5542221069336 63.95051956176758 86.83255004882812 52.511871337890625 62.0301399230957 24.138593673706055 C 56.66829299926758 15.675861358642578 64.02212524414062 8.529504776000977 74.02005004882812 4.122305870056152 C 129.8560791015625 6.50567102432251 136.47662353515625 14.491294860839844 131.73934936523438 29.46842384338379"/>
    <path stroke-width="0" fill="rgb(174, 143, 155)" opacity="0.87929994" stroke="rgb(41, 158, 147)" stroke-opacity="1.0" stroke-linecap="round" stroke-linejoin="round" d="M 113.38758087158203 86.39570617675781 C 85.77770233154297 190.29920959472656 165.1945037841797 171.4747314453125 116.93277740478516 120.20021057128906 C 65.01319122314453 149.5775146484375 58.38776397705078 138.23562622070312 55.21157455444336 126.98343658447266 C 69.49797058105469 85.21464538574219 86.14830017089844 84.90702819824219 126.01385498046875 60.93556213378906 C 136.70065307617188 60.70185852050781 146.78939819335938 66.19637298583984 113.38758087158203 86.39570617675781"/>
    <path stroke-width="0" fill="rgb(128, 144, 139)" opacity="0.98553395" stroke="rgb(238, 156, 136)" stroke-opacity="1.0" stroke-linecap="round" stroke-linejoin="round" d="M 93.67906188964844 34.14559555053711 C 57.340579986572266 58.12723159790039 66.35297393798828 63.397491455078125 76.64656066894531 76.5705795288086 C 14.54018783569336 72.98088836669922 26.356843948364258 64.94763946533203 -1.9598637819290161 3.4964394569396973 C 0.6167176961898804 -8.219541549682617 7.70470666885376 -15.566514015197754 20.250648498535156 -18.012645721435547 C 60.45859146118164 13.56965446472168 58.776432037353516 12.301398277282715 93.67906188964844 34.14559555053711"/>
    <path stroke-width="0" fill="rgb(126, 147, 137)" opacity="0.8719756" stroke="rgb(186, 79, 101)" stroke-opacity="1.0" stroke-linecap="round" stroke-linejoin="round" d="M 71.31749725341797 2.362142562866211 C 64.68112182617188 10.373333930969238 47.22468185424805 5.993424415588379 12.410284996032715 52.772029876708984 C -0.04422977194190025 50.50829315185547 -8.619094848632812 44.6284065246582 -31.994245529174805 10.727359771728516 C -11.457196235656738 -50.801475524902344 3.0080111026763916 -43.40044403076172 33.17078399658203 -33.32883071899414 C 54.89033889770508 -17.999452590942383 63.71585464477539 -12.02737045288086 71.31749725341797 2.362142562866211"/>
    <path stroke-width="0" fill="rgb(129, 149, 142)" opacity="0.7089885" stroke="rgb(47, 240, 188)" stroke-opacity="1.0" stroke-linecap="round" stroke-linejoin="round" d="M 147.22940063476562 42.237953186035156 C 173.80934143066406 120.3730697631836 168.89002990722656 64.9533920288086 135.78024291992188 88.14812469482422 C 104.39723205566406 59.81305694580078 98.23047637939453 52.87770080566406 69.85137939453125 29.378467559814453 C 68.19384765625 15.162317276000977 74.80046081542969 6.878166675567627 88.37071228027344 4.394853591918945 C 139.82388305664062 8.464398384094238 153.63470458984375 13.350787162780762 147.22940063476562 42.237953186035156"/>
    <path stroke-width="0" fill="rgb(130, 143, 139)" opacity="0.9956838" stroke="rgb(57, 64, 14)" stroke-opacity="1.0" stroke-linecap="round" stroke-linejoin="round" d="M 117.93657684326172 164.1329345703125 C 110.73707580566406 177.53353881835938 104.10576629638672 185.04566955566406 42.71788024902344 184.26744079589844 C -22.065532684326172 177.21630859375 -33.26658630371094 174.28662109375 -37.236663818359375 136.63063049316406 C -12.921088218688965 68.04598236083984 -1.516039252281189 63.36357879638672 19.669017791748047 62.25993347167969 C 38.48877716064453 126.69768524169922 71.76754760742188 86.43099975585938 117.93657684326172 164.1329345703125"/>
    <path stroke-width="0" fill="rgb(165, 158, 171)" opacity="0.53426826" stroke="rgb(79, 177, 96)" stroke-opacity="1.0" stroke-linecap="round" stroke-linejoin="round" d="M 163.30209350585938 56.12027359008789 C 116.73049926757812 78.6020278930664 128.01744079589844 97.40589141845703 114.43753051757812 109.52174377441406 C 77.96359252929688 99.32425689697266 85.65814208984375 80.23700714111328 85.87866973876953 72.65447235107422 C 84.05261993408203 44.58133316040039 86.42964172363281 74.58419036865234 84.37487030029297 54.97212219238281 C 100.67851257324219 51.024330139160156 61.157798767089844 38.50375747680664 163.30209350585938 56.12027359008789"/>
    <path stroke-width="0" fill="rgb(128, 143, 143)" opacity="0.90069556" stroke="rgb(6, 17, 173)" stroke-opacity="1.0" stroke-linecap="round" stroke-linejoin="round" d="M 154.75918579101562 31.195219039916992 C 85.87938690185547 8.895686149597168 87.32943725585938 13.170063018798828 69.57234191894531 44.94829177856445 C 61.027957916259766 37.57176208496094 55.99566650390625 31.1108341217041 65.71286010742188 12.662936210632324 C 74.1530990600586 -10.490248680114746 81.33160400390625 -17.892547607421875 104.4216537475586 -37.71446990966797 C 90.76708984375 -1.424089789390564 115.56301879882812 -11.885393142700195 154.75918579101562 31.195219039916992"/>
    <path stroke-width="0" fill="rgb(127, 146, 138)" opacity="0.84207153" stroke="rgb(136, 228, 252)" stroke-opacity="1.0" stroke-linecap="round" stroke-linejoin="round" d="M 66.10009002685547 156.1849822998047 C 62.21770095825195 228.3400115966797 59.10464096069336 238.18992614746094 25.89167022705078 257.0150146484375 C -64.710693359375 246.7633514404297 -65.44156646728516 235.2061309814453 -46.54615783691406 190.45199584960938 C -51.45711898803711 127.693359375 -45.941383361816406 118.31744384765625 -0.4146521985530853 94.83040618896484 C 64.07731628417969 101.9319839477539 69.80044555664062 109.00525665283203 66.10009002685547 156.1849822998047"/>
    <path stroke-width="0" fill="rgb(84, 135, 95)" opacity="0.76585716" stroke="rgb(169, 67, 5)" stroke-opacity="1.0" stroke-linecap="round" stroke-linejoin="round" d="M 933.0606689453125 228.75242614746094 C 529.802978515625 317.20819091796875 418.9114685058594 161.9691619873047 394.9504089355469 348.56878662109375 C 227.19900512695312 243.39894104003906 400.1574401855469 124.86792755126953 477.814697265625 159.27108764648438 C 488.7628173828125 -18.303531646728516 356.6397705078125 394.5124816894531 370.7735290527344 -1.2124711275100708 C 572.5486450195312 -65.4778823852539 602.8023071289062 -29.20888328552246 933.0606689453125 228.75242614746094"/>
    <path stroke-width="0" fill="rgb(127, 145, 140)" opacity="0.92258704" stroke="rgb(81, 97, 150)" stroke-opacity="1.0" stroke-linecap="round" stroke-linejoin="round" d="M 165.0223388671875 19.31797218322754 C 189.24876403808594 34.410560607910156 172.5935821533203 40.21176528930664 115.61006164550781 45.85589599609375 C 103.73814392089844 40.079811096191406 95.37721252441406 32.36394119262695 91.5695571899414 19.291393280029297 C 114.70779418945312 -13.881365776062012 123.10424041748047 -20.200164794921875 151.80825805664062 -32.552024841308594 C 160.64407348632812 -30.65825080871582 145.99935913085938 -4.822378635406494 165.0223388671875 19.31797218322754"/>
    <path stroke-width="0" fill="rgb(121, 148, 140)" opacity="0.97913533" stroke="rgb(160, 222, 69)" stroke-opacity="1.0" stroke-linecap="round" stroke-linejoin="round" d="M 225.48526000976562 -75.07972717285156 C 135.60433959960938 191.33175659179688 161.07431030273438 162.509765625 227.37466430664062 218.15939331054688 C -25.77228355407715 230.6269073486328 42.85203170776367 144.5791778564453 22.628835678100586 145.72186279296875 C 108.23312377929688 94.24728393554688 76.66285705566406 64.23527526855469 162.9557647705078 1.8456414937973022 C 246.74465942382812 62.01873016357422 382.9382019042969 83.15424346923828 225.48526000976562 -75.07972717285156"/>
    <path stroke-width="0" fill="rgb(129, 144, 138)" opacity="0.9888514" stroke="rgb(47, 242, 175)" stroke-opacity="1.0" stroke-linecap="round" stroke-linejoin="round" d="M 95.36949157714844 56.185455322265625 C 90.34864044189453 118.29801940917969 83.14591217041016 128.12937927246094 41.24147033691406 120.27662658691406 C 20.16691017150879 118.20864868164062 17.575700759887695 106.89007568359375 30.74110984802246 62.319793701171875 C -0.7634955644607544 44.935508728027344 12.488926887512207 49.93109893798828 75.41082000732422 28.817935943603516 C 88.9598159790039 35.29829406738281 94.01350402832031 43.9920539855957 95.36949157714844 56.185455322265625"/>
    <path stroke-width="0" fill="rgb(127, 146, 141)" opacity="0.95224565" stroke="rgb(241, 186, 64)" stroke-opacity="1.0" stroke-linecap="round" stroke-linejoin="round" d="M 116.21449279785156 46.95814514160156 C 119.18550109863281 75.59011840820312 105.7244873046875 75.53719329833984 69.315185546875 100.93970489501953 C 58.06527328491211 101.49664306640625 51.771095275878906 93.64151763916016 50.47163772583008 83.65434265136719 C 102.95118713378906 73.3546371459961 88.781494140625 59.55488204956055 76.37992095947266 28.168140411376953 C 100.2179183959961 44.768524169921875 112.16249084472656 48.68973922729492 116.21449279785156 46.95814514160156"/>
    <path stroke-width="0" fill="rgb(66, 90, 133)" opacity="0.5969008" stroke="rgb(132, 6, 52)" stroke-opacity="1.0" stroke-linecap="round" stroke-linejoin="round" d="M 230.66177368164062 15.251155853271484 C 402.0103759765625 223.869873046875 260.7631530761719 264.64251708984375 203.8760528564453 194.8832244873047 C 214.72727966308594 234.13510131835938 315.6385803222656 205.082763671875 267.6883850097656 210.8820343017578 C 297.3749084472656 212.5630645751953 280.6488342285156 200.41232299804688 175.3588409423828 210.40682983398438 C 270.9229431152344 205.70875549316406 332.203369140625 178.51986694335938 230.66177368164062 15.251155853271484"/>
    <path stroke-width="0" fill="rgb(123, 141, 120)" opacity="0.5778305" stroke="rgb(95, 118, 70)" stroke-opacity="1.0" stroke-linecap="round" stroke-linejoin="round" d="M 111.09710693359375 276.3291015625 C 104.21331787109375 459.61016845703125 150.07659912109375 409.3749084472656 -0.7636082172393799 441.0187072753906 C -36.38462829589844 337.1404113769531 -36.57653045654297 324.3808898925781 -35.94852066040039 275.1544494628906 C -41.400962829589844 197.63021850585938 -41.09809494018555 183.4933319091797 -10.188431739807129 181.1947479248047 C 95.20249938964844 189.31031799316406 101.72979736328125 199.3410186767578 111.09710693359375 276.3291015625"/>
    <path stroke-width="0" fill="rgb(178, 160, 48)" opacity="0.7542189" stroke="rgb(220, 29, 131)" stroke-opacity="1.0" stroke-linecap="round" stroke-linejoin="round" d="M 522.6834106445312 336.6868591308594 C 470.6058349609375 353.9940185546875 476.90972900390625 312.54827880859375 464.7362060546875 316.16082763671875 C 463.2364196777344 344.4137878417969 459.3149719238281 364.19207763671875 465.8380432128906 306.2099609375 C 459.20013427734375 304.81884765625 470.584716796875 333.3847351074219 562.7513427734375 319.52532958984375 C 515.86572265625 302.6404113769531 489.4151916503906 314.3601379394531 522.6834106445312 336.6868591308594"/>
    <path stroke-width="0" fill="rgb(235, 115, 94)" opacity="0.49927315" stroke="rgb(140, 149, 245)" stroke-opacity="1.0" stroke-linecap="round" stroke-linejoin="round" d="M 571.5912475585938 355.20977783203125 C 578.4267578125 367.6429443359375 552.0798950195312 362.54986572265625 439.9118957519531 348.4515686035156 C 471.9151306152344 329.33343505859375 482.1820068359375 321.3575439453125 509.472412109375 298.5099792480469 C 533.5419311523438 285.07666015625 511.8392028808594 311.1166076660156 520.8947143554688 305.3011169433594 C 525.5113525390625 291.9359130859375 521.249755859375 311.6423645019531 571.5912475585938 355.20977783203125"/>
    <path stroke-width="0" fill="rgb(86, 125, 96)" opacity="0.72488564" stroke="rgb(170, 200, 71)" stroke-opacity="1.0" stroke-linecap="round" stroke-linejoin="round" d="M 443.6192932128906 185.0994415283203 C 437.45294189453125 186.2302703857422 428.7428283691406 195.23568725585938 443.8092956542969 186.73963928222656 C 442.40423583984375 207.60311889648438 463.86407470703125 206.64053344726562 431.40289306640625 198.63711547851562 C 456.9360656738281 181.30345153808594 463.1056823730469 161.28221130371094 468.0887451171875 203.93112182617188 C 428.8507995605469 177.6689453125 443.03546142578125 202.00083923339844 443.6192932128906 185.0994415283203"/>
    <path stroke-width="0" fill="rgb(126, 196, 72)" opacity="0.86831015" stroke="rgb(16, 123, 249)" stroke-opacity="1.0" stroke-linecap="round" stroke-linejoin="round" d="M 461.0269775390625 160.73353576660156 C 493.7149963378906 170.23031616210938 498.5433654785156 154.51089477539062 468.99090576171875 201.83883666992188 C 474.20867919921875 154.7473907470703 478.7174377441406 135.97030639648438 482.46234130859375 117.85759735107422 C 462.31683349609375 192.1680145263672 473.7606201171875 160.07974243164062 477.0018310546875 152.5041046142578 C 469.3967590332031 160.20579528808594 478.8609924316406 179.86474609375 461.0269775390625 160.73353576660156"/>
    <path stroke-width="0" fill="rgb(131, 197, 60)" opacity="0.93064183" stroke="rgb(86, 245, 59)" stroke-opacity="1.0" stroke-linecap="round" stroke-linejoin="round" d="M 470.5795593261719 120.58796691894531 C 442.7370300292969 61.89263916015625 422.15118408203125 131.20230102539062 460.3773498535156 134.7767791748047 C 498.4185791015625 155.03948974609375 469.7054748535156 165.35565185546875 469.347900390625 145.64784240722656 C 484.8125305175781 120.46265411376953 480.9883117675781 130.89544677734375 463.46917724609375 136.6592559814453 C 451.9330139160156 148.63182067871094 460.00921630859375 160.70928955078125 470.5795593261719 120.58796691894531"/>
    <path stroke-width="0" fill="rgb(246, 181, 115)" opacity="0.9126481" stroke="rgb(240, 203, 160)" stroke-opacity="1.0" stroke-linecap="round" stroke-linejoin="round" d="M 450.679443359375 349.3886413574219 C 420.2989196777344 343.5662536621094 405.3623046875 351.4031677246094 428.8205871582031 342.07794189453125 C 422.6759338378906 349.87255859375 424.1623840332031 345.5856628417969 414.5613708496094 361.32269287109375 C 408.4814758300781 428.7599182128906 415.06683349609375 373.56243896484375 416.9331359863281 351.39752197265625 C 380.7413024902344 330.4258117675781 364.76123046875 374.1591491699219 450.679443359375 349.3886413574219"/>
    <path stroke-width="0" fill="rgb(105, 178, 55)" opacity="0.7980271" stroke="rgb(74, 216, 157)" stroke-opacity="1.0" stroke-linecap="round" stroke-linejoin="round" d="M 460.04754638671875 127.95499420166016 C 457.3199462890625 156.20840454101562 458.6251220703125 171.0441131591797 465.07049560546875 164.5299072265625 C 475.93084716796875 170.0447540283203 472.57366943359375 145.879638671875 455.24456787109375 194.73858642578125 C 466.442138671875 134.11708068847656 481.4790344238281 125.12124633789062 459.07794189453125 134.9280548095703 C 455.24560546875 150.30413818359375 437.9199523925781 166.58985900878906 460.04754638671875 127.95499420166016"/>
    <path stroke-width="0" fill="rgb(34, 64, 78)" opacity="0.74472725" stroke="rgb(88, 37, 250)" stroke-opacity="1.0" stroke-linecap="round" stroke-linejoin="round" d="M 382.66339111328125 413.41058349609375 C 382.87274169921875 356.9610900878906 378.2099609375 373.2375793457031 394.3894348144531 369.31640625 C 354.9607849121094 391.3431091308594 401.2743835449219 453.4079284667969 396.37274169921875 413.66851806640625 C 420.4888000488281 298.5653991699219 374.09429931640625 397.6495056152344 384.8949890136719 362.4650573730469 C 356.4873352050781 398.9730529785156 371.6309509277344 419.0564880371094 382.66339111328125 413.41058349609375"/>
    <path stroke-width="0" fill="rgb(150, 101, 97)" opacity="0.67610997" stroke="rgb(126, 163, 93)" stroke-opacity="1.0" stroke-linecap="round" stroke-linejoin="round" d="M 562.486572265625 298.02459716796875 C 503.48260498046875 338.0379638671875 496.94610595703125 343.2876892089844 574.4067993164062 309.5257873535156 C 482.5626525878906 332.68731689453125 448.76336669921875 303.7668151855469 495.18341064453125 311.8193664550781 C 526.0140991210938 331.5618591308594 527.2390747070312 331.00787353515625 487.9279479980469 290.7468566894531 C 474.7925720214844 277.12200927734375 516.5146484375 274.7926940917969 562.486572265625 298.02459716796875"/>
    <path stroke-width="0" fill="rgb(102, 110, 109)" opacity="0.493686" stroke="rgb(209, 48, 130)" stroke-opacity="1.0" stroke-linecap="round" stroke-linejoin="round" d="M 478.5686340332031 156.98048400878906 C 484.4042053222656 148.81546020507812 469.6228942871094 133.6114044189453 427.751953125 177.99514770507812 C 448.5386047363281 159.37237548828125 446.646240234375 134.6758575439453 438.55438232421875 172.05526733398438 C 460.0787658691406 175.24620056152344 454.9784240722656 125.95795440673828 478.8641662597656 123.4787826538086 C 430.0078430175781 147.54617309570312 418.5782165527344 179.11123657226562 478.5686340332031 156.98048400878906"/>
    <path stroke-width="0" fill="rgb(96, 126, 84)" opacity="0.5341238" stroke="rgb(24, 219, 248)" stroke-opacity="1.0" stroke-linecap="round" stroke-linejoin="round" d="M 443.5776062011719 187.095458984375 C 459.4562683105469 193.7364959716797 419.35406494140625 198.8744354248047 446.5863037109375 223.7677001953125 C 431.5758361816406 187.18739318847656 440.1112976074219 178.14694213867188 449.1402282714844 195.00401306152344 C 425.7474060058594 198.70481872558594 445.49566650390625 197.37535095214844 444.7663879394531 184.83978271484375 C 404.97314453125 198.5376434326172 453.2605285644531 214.2141571044922 443.5776062011719 187.095458984375"/>
    <path stroke-width="0" fill="rgb(254, 213, 118)" opacity="0.98981047" stroke="rgb(231, 197, 84)" stroke-opacity="1.0" stroke-linecap="round" stroke-linejoin="round" d="M 155.2057342529297 517.1943969726562 C 144.00437927246094 513.5392456054688 171.5850372314453 509.5556335449219 142.38320922851562 497.940673828125 C 129.38247680664062 491.9429016113281 162.29977416992188 473.7353210449219 164.860595703125 477.8477478027344 C 128.33103942871094 493.53955078125 140.81130981445312 504.8483581542969 144.00010681152344 450.4545593261719 C 172.86135864257812 451.0287780761719 146.92855834960938 443.45184326171875 155.2057342529297 517.1943969726562"/>
    <path stroke-width="0" fill="rgb(71, 111, 83)" opacity="0.9297672" stroke="rgb(103, 59, 33)" stroke-opacity="1.0" stroke-linecap="round" stroke-linejoin="round" d="M 522.6709594726562 192.24095153808594 C 485.7231140136719 124.63141632080078 482.403564453125 133.00076293945312 478.8325500488281 91.19695281982422 C 469.7484436035156 126.76432800292969 431.3255920410156 116.94390869140625 471.1868591308594 194.70904541015625 C 473.7434387207031 157.83779907226562 469.0121765136719 150.0487060546875 512.4487915039062 129.00491333007812 C 449.43603515625 154.35231018066406 515.5668334960938 141.572998046875 522.6709594726562 192.24095153808594"/>
    <path stroke-width="0" fill="rgb(245, 210, 175)" opacity="0.8389636" stroke="rgb(185, 2, 196)" stroke-opacity="1.0" stroke-linecap="round" stroke-linejoin="round" d="M 236.08670043945312 163.03695678710938 C 238.32562255859375 126.4964370727539 238.55201721191406 140.63209533691406 231.8212127685547 138.38275146484375 C 247.1697235107422 170.84190368652344 193.81700134277344 167.90164184570312 208.96676635742188 141.92681884765625 C 213.00823974609375 114.52761840820312 227.0751495361328 103.2249755859375 238.32904052734375 134.52761840820312 C 235.1095733642578 158.7425537109375 232.9015655517578 176.20545959472656 236.08670043945312 163.03695678710938"/>
    <path stroke-width="0" fill="rgb(172, 150, 95)" opacity="0.5817119" stroke="rgb(20, 22, 171)" stroke-opacity="1.0" stroke-linecap="round" stroke-linejoin="round" d="M 574.3302612304688 498.0466613769531 C 380.8060607910156 490.0781555175781 380.910400390625 508.47039794921875 399.4088439941406 479.57720947265625 C 385.5032653808594 493.10430908203125 398.94720458984375 493.2984313964844 388.52734375 498.7908630371094 C 401.2472839355469 470.8155212402344 397.94671630859375 475.2408142089844 396.43414306640625 481.3035583496094 C 393.54791259765625 501.9783935546875 349.8097839355469 492.3193359375 574.3302612304688 498.0466613769531"/>
    <path stroke-width="0" fill="rgb(105, 171, 77)" opacity="0.3587274" stroke="rgb(107, 142, 219)" stroke-opacity="1.0" stroke-linecap="round" stroke-linejoin="round" d="M 471.40289306640625 160.16331481933594 C 463.4239196777344 150.97474670410156 430.17828369140625 196.19935607910156 433.9007568359375 170.9281768798828 C 450.6004333496094 165.85980224609375 436.8453369140625 160.33856201171875 431.7476501464844 186.9897003173828 C 422.40972900390625 203.6898651123047 435.5999450683594 184.2770538330078 457.50830078125 173.2014923095703 C 469.1747741699219 193.0978546142578 455.85833740234375 150.17654418945312 471.40289306640625 160.16331481933594"/>
    <path stroke-width="0" fill="rgb(267, 282, 168)" opacity="0.8621286" stroke="rgb(68, 33, 14)" stroke-opacity="1.0" stroke-linecap="round" stroke-linejoin="round" d="M 227.3621368408203 86.33466339111328 C 227.39268493652344 74.42725372314453 245.90049743652344 100.29903411865234 250.78317260742188 148.62168884277344 C 254.6139678955078 163.61007690429688 192.8371124267578 172.30369567871094 199.05517578125 135.90174865722656 C 208.28143310546875 71.36309814453125 236.44822692871094 57.765621185302734 225.15650939941406 95.45220184326172 C 222.36216735839844 108.7807846069336 222.55377197265625 107.17262268066406 227.3621368408203 86.33466339111328"/>
    <path stroke-width="0" fill="rgb(188, 185, 64)" opacity="0.1385066" stroke="rgb(66, 116, 174)" stroke-opacity="1.0" stroke-linecap="round" stroke-linejoin="round" d="M 513.017578125 297.32550048828125 C 552.3458862304688 330.3031311035156 490.8088684082031 303.6708679199219 467.6686706542969 321.37994384765625 C 512.1604614257812 333.2690734863281 473.1534729003906 310.3741760253906 477.7836608886719 343.7275085449219 C 485.39752197265625 343.54327392578125 482.9491882324219 339.2502746582031 430.21136474609375 339.37908935546875 C 508.32171630859375 365.9175109863281 507.7311706542969 323.0477600097656 513.017578125 297.32550048828125"/>
    <path stroke-width="0" fill="rgb(90, 82, 55)" opacity="0.67881" stroke="rgb(72, 96, 46)" stroke-opacity="1.0" stroke-linecap="round" stroke-linejoin="round" d="M 509.28753662109375 304.557861328125 C 483.7643737792969 278.70733642578125 468.695556640625 295.60205078125 484.3941345214844 275.45672607421875 C 472.0458984375 309.8658142089844 452.1438293457031 298.7991943359375 477.2510986328125 322.9810485839844 C 472.06475830078125 330.1526794433594 484.7580871582031 314.5420227050781 456.9217224121094 302.553466796875 C 462.6813659667969 297.0240173339844 499.02056884765625 287.0666198730469 509.28753662109375 304.557861328125"/>
    <path stroke-width="0" fill="rgb(111, 214, -43)" opacity="0.83803934" stroke="rgb(109, 130, 136)" stroke-opacity="1.0" stroke-linecap="round" stroke-linejoin="round" d="M 243.36758422851562 59.195125579833984 C 220.50531005859375 73.04878997802734 195.535888671875 104.24850463867188 187.06861877441406 97.23416137695312 C 197.62777709960938 161.0583038330078 176.98756408691406 82.94892120361328 204.99778747558594 53.126609802246094 C 237.44931030273438 40.10297393798828 272.5421142578125 92.25345611572266 220.34022521972656 95.28679656982422 C 239.38392639160156 94.10321044921875 264.4977722167969 84.01356506347656 243.36758422851562 59.195125579833984"/>
    <path stroke-width="0" fill="rgb(75, 91, 95)" opacity="0.97827035" stroke="rgb(47, 230, 138)" stroke-opacity="1.0" stroke-linecap="round" stroke-linejoin="round" d="M 187.714599609375 480.1341857910156 C 135.2311248779297 480.2825927734375 153.70010375976562 490.8757019042969 158.27392578125 452.6354064941406 C 206.31068420410156 451.41082763671875 198.71063232421875 452.6917724609375 163.37290954589844 462.9967041015625 C 153.2925262451172 464.9664611816406 160.9836883544922 443.94793701171875 160.28355407714844 463.574951171875 C 215.58465576171875 450.21160888671875 184.95712280273438 435.1031799316406 187.714599609375 480.1341857910156"/>
    <path stroke-width="0" fill="rgb(260, 256, 170)" opacity="0.84772813" stroke="rgb(224, 116, 184)" stroke-opacity="1.0" stroke-linecap="round" stroke-linejoin="round" d="M 222.27574157714844 150.36737060546875 C 244.51544189453125 150.9975128173828 262.5086364746094 150.14649963378906 193.99423217773438 146.20394897460938 C 193.9474334716797 121.07498168945312 229.49176025390625 30.014305114746094 233.43751525878906 107.62821960449219 C 260.994873046875 122.55760955810547 234.49391174316406 67.51116180419922 225.47549438476562 75.70988464355469 C 237.67384338378906 87.40410614013672 234.50303649902344 124.97538757324219 222.27574157714844 150.36737060546875"/>
    <path stroke-width="0" fill="rgb(122, 204, -34)" opacity="0.7551996" stroke="rgb(192, 162, 61)" stroke-opacity="1.0" stroke-linecap="round" stroke-linejoin="round" d="M 258.1726379394531 92.61531829833984 C 244.43971252441406 70.48835754394531 223.00633239746094 25.261676788330078 252.48133850097656 75.15557861328125 C 250.3960723876953 76.85596466064453 248.46620178222656 72.28797912597656 265.28460693359375 111.0181655883789 C 284.0516052246094 215.77593994140625 268.9810485839844 131.66493225097656 220.48440551757812 49.65159225463867 C 253.15087890625 43.273128509521484 246.02456665039062 80.037109375 258.1726379394531 92.61531829833984"/>
    <path stroke-width="0" fill="rgb(105, 207, 45)" opacity="0.73811585" stroke="rgb(203, 244, 116)" stroke-opacity="1.0" stroke-linecap="round" stroke-linejoin="round" d="M 446.2781677246094 176.57933044433594 C 481.14361572265625 140.70960998535156 461.0743713378906 167.84622192382812 438.3898620605469 177.45631408691406 C 466.75323486328125 185.4488983154297 443.6578674316406 202.9608154296875 427.2923278808594 198.87594604492188 C 417.1988525390625 172.28045654296875 486.7984619140625 171.51358032226562 462.90472412109375 138.14511108398438 C 472.9187927246094 177.09503173828125 496.05267333984375 129.83560180664062 446.2781677246094 176.57933044433594"/>
    <path stroke-width="0" fill="rgb(117, 122, 159)" opacity="0.359234" stroke="rgb(218, 116, 242)" stroke-opacity="1.0" stroke-linecap="round" stroke-linejoin="round" d="M 197.9635467529297 26.08779525756836 C 215.10531616210938 36.31831359863281 225.91162109375 24.246904373168945 213.2029266357422 32.007938385009766 C 223.6091766357422 45.3321647644043 238.97744750976562 35.88263702392578 229.22457885742188 39.61422348022461 C 218.48524475097656 37.59245681762695 225.6484375 37.49187469482422 258.6673583984375 23.148042678833008 C 209.82302856445312 42.64673614501953 223.55101013183594 37.458412170410156 197.9635467529297 26.08779525756836"/>
    <path stroke-width="0" fill="rgb(112, 192, -2)" opacity="0.776357" stroke="rgb(209, 231, 207)" stroke-opacity="1.0" stroke-linecap="round" stroke-linejoin="round" d="M 251.7038116455078 88.61930847167969 C 259.62359619140625 87.72281646728516 233.84710693359375 83.99715423583984 249.19537353515625 92.7317886352539 C 270.0509033203125 91.55154418945312 258.2759094238281 92.06935119628906 252.669921875 92.67948150634766 C 264.8330383300781 138.82994079589844 249.7452850341797 84.47185516357422 250.05978393554688 75.90145874023438 C 252.44496154785156 84.56143188476562 258.26019287109375 104.88280487060547 251.7038116455078 88.61930847167969"/>
    <path stroke-width="0" fill="rgb(125, 138, 155)" opacity="0.7614815" stroke="rgb(160, 101, 15)" stroke-opacity="1.0" stroke-linecap="round" stroke-linejoin="round" d="M 255.88592529296875 17.316970825195312 C 235.05906677246094 23.539493560791016 219.432373046875 29.13736915588379 240.8802490234375 21.764610290527344 C 269.737060546875 14.127315521240234 239.45021057128906 12.903095245361328 271.7718811035156 37.09883499145508 C 229.09849548339844 -6.16162109375 210.05397033691406 3.4664204120635986 229.16282653808594 -5.837165355682373 C 244.8543243408203 13.051286697387695 269.4285888671875 38.82612609863281 255.88592529296875 17.316970825195312"/>
    <path stroke-width="0" fill="rgb(113, 200, -21)" opacity="0.9359782" stroke="rgb(65, 216, 8)" stroke-opacity="1.0" stroke-linecap="round" stroke-linejoin="round" d="M 196.62310791015625 175.6663055419922 C 188.56805419921875 151.63888549804688 200.60275268554688 155.8647918701172 213.88673400878906 154.42062377929688 C 232.36253356933594 143.46922302246094 187.9412078857422 158.580810546875 199.38441467285156 190.33262634277344 C 183.96112060546875 124.52860260009766 198.1087646484375 126.527099609375 209.4254913330078 74.27621459960938 C 149.86611938476562 113.04069519042969 173.25157165527344 179.79689025878906 196.62310791015625 175.6663055419922"/>
    <path stroke-width="0" fill="rgb(151, 152, 107)" opacity="0.6861004" stroke="rgb(90, 90, 4)" stroke-opacity="1.0" stroke-linecap="round" stroke-linejoin="round" d="M 230.60565185546875 498.7767639160156 C 229.2769775390625 498.8531494140625 148.5142059326172 489.0531311035156 142.92295837402344 499.61334228515625 C 227.55970764160156 501.2438049316406 217.20294189453125 491.7102966308594 271.0521240234375 495.0672302246094 C 338.3232727050781 489.5361022949219 301.7793273925781 503.6304931640625 348.51544189453125 495.71063232421875 C 206.84225463867188 506.69183349609375 228.96728515625 494.7717590332031 230.60565185546875 498.7767639160156"/>
    <path stroke-width="0" fill="rgb(101, 169, 21)" opacity="0.9429441" stroke="rgb(221, 115, 83)" stroke-opacity="1.0" stroke-linecap="round" stroke-linejoin="round" d="M 243.80625915527344 165.4144287109375 C 244.92872619628906 144.0667266845703 247.15187072753906 141.7682342529297 258.9021911621094 132.38368225097656 C 260.0799560546875 177.26344299316406 258.804443359375 176.58493041992188 257.6757507324219 149.78163146972656 C 267.0918273925781 152.04942321777344 275.50323486328125 153.855712890625 231.0709228515625 143.3822021484375 C 227.53207397460938 152.16726684570312 254.7446746826172 156.86874389648438 243.80625915527344 165.4144287109375"/>
    <path stroke-width="0" fill="rgb(153, 110, 93)" opacity="0.9446711" stroke="rgb(33, 3, 29)" stroke-opacity="1.0" stroke-linecap="round" stroke-linejoin="round" d="M 536.125 294.1974182128906 C 505.2458801269531 317.268798828125 508.6228942871094 331.8068542480469 522.52294921875 340.2137451171875 C 523.8333740234375 247.10504150390625 535.2265014648438 293.95648193359375 493.2607727050781 294.79205322265625 C 465.1726989746094 293.2156677246094 489.66796875 294.5709228515625 523.0433959960938 296.33782958984375 C 531.095947265625 267.7210388183594 536.8461303710938 289.4244079589844 536.125 294.1974182128906"/>
    <path stroke-width="0" fill="rgb(43, 60, 99)" opacity="0.58967865" stroke="rgb(248, 252, 104)" stroke-opacity="1.0" stroke-linecap="round" stroke-linejoin="round" d="M 265.6434020996094 87.13646697998047 C 277.43646240234375 64.60747528076172 256.9169006347656 85.56351470947266 276.1466369628906 78.10857391357422 C 264.275634765625 80.77894592285156 264.045166015625 91.84390258789062 269.36871337890625 86.03364562988281 C 282.05938720703125 124.50113677978516 281.13079833984375 118.16693878173828 271.92413330078125 97.67710876464844 C 270.18817138671875 93.1999740600586 272.0882263183594 85.17920684814453 265.6434020996094 87.13646697998047"/>
    <path stroke-width="0" fill="rgb(59, 96, -8)" opacity="0.560757" stroke="rgb(162, 125, 252)" stroke-opacity="1.0" stroke-linecap="round" stroke-linejoin="round" d="M 222.49029541015625 181.81060791015625 C 235.56954956054688 187.4837646484375 196.13282775878906 161.63026428222656 207.2475128173828 142.80142211914062 C 194.89959716796875 158.4523162841797 186.1829833984375 156.5340118408203 193.75189208984375 120.82084655761719 C 195.33140563964844 186.38427734375 200.3213348388672 139.71263122558594 222.92437744140625 162.21922302246094 C 185.2503204345703 123.31805419921875 184.2980499267578 168.89447021484375 222.49029541015625 181.81060791015625"/>
    <path stroke-width="0" fill="rgb(71, 154, 5)" opacity="0.9048444" stroke="rgb(199, 73, 61)" stroke-opacity="1.0" stroke-linecap="round" stroke-linejoin="round" d="M 245.983154296875 139.81813049316406 C 208.434814453125 152.37693786621094 218.9812774658203 161.76129150390625 225.34046936035156 165.99517822265625 C 245.7682647705078 177.301513671875 198.1017303466797 197.10275268554688 223.79995727539062 191.42176818847656 C 251.55447387695312 199.06211853027344 253.00091552734375 186.1925506591797 246.48663330078125 174.26287841796875 C 219.4351043701172 179.25135803222656 288.2004089355469 169.6513671875 245.983154296875 139.81813049316406"/>
    <path stroke-width="0" fill="rgb(10, 20, 48)" opacity="0.66423035" stroke="rgb(62, 169, 131)" stroke-opacity="1.0" stroke-linecap="round" stroke-linejoin="round" d="M 168.0880126953125 162.87600708007812 C 168.2025909423828 151.60887145996094 174.46372985839844 146.8280029296875 168.1708221435547 132.60067749023438 C 173.43199157714844 109.41942596435547 178.5147247314453 98.37986755371094 169.892822265625 127.79910278320312 C 167.40826416015625 118.30158233642578 169.8146514892578 124.50975036621094 169.89015197753906 144.34132385253906 C 170.84100341796875 164.55125427246094 174.20437622070312 155.20046997070312 168.0880126953125 162.87600708007812"/>
    <path stroke-width="0" fill="rgb(59, 146, 30)" opacity="0.7279579" stroke="rgb(141, 73, 180)" stroke-opacity="1.0" stroke-linecap="round" stroke-linejoin="round" d="M 246.1620635986328 181.26138305664062 C 248.82041931152344 142.86050415039062 226.98304748535156 169.75552368164062 215.21719360351562 188.66868591308594 C 226.72344970703125 161.12107849121094 216.40231323242188 139.9134979248047 212.867919921875 154.57073974609375 C 212.89585876464844 156.73313903808594 226.04542541503906 157.62026977539062 221.20016479492188 182.848876953125 C 213.4186248779297 178.4013671875 219.073486328125 182.3002166748047 246.1620635986328 181.26138305664062"/>
    <path stroke-width="0" fill="rgb(267, 252, 176)" opacity="0.964012" stroke="rgb(59, 88, 207)" stroke-opacity="1.0" stroke-linecap="round" stroke-linejoin="round" d="M 229.49237060546875 152.0161590576172 C 219.49119567871094 173.2060546875 236.8745574951172 156.47653198242188 222.00747680664062 90.22151184082031 C 203.3514404296875 127.64080810546875 185.3362579345703 144.77587890625 199.89144897460938 116.29015350341797 C 233.95933532714844 131.45001220703125 195.59811401367188 103.31214141845703 192.95870971679688 143.1551055908203 C 225.19703674316406 173.05921936035156 235.5306396484375 169.76141357421875 229.49237060546875 152.0161590576172"/>
    <path stroke-width="0" fill="rgb(54, 118, 55)" opacity="1.0037851" stroke="rgb(247, 230, 75)" stroke-opacity="1.0" stroke-linecap="round" stroke-linejoin="round" d="M 520.4041137695312 317.5445861816406 C 530.1004638671875 343.92352294921875 502.44219970703125 348.1446228027344 547.9452514648438 346.27880859375 C 541.4745483398438 351.85772705078125 428.69732666015625 344.2437438964844 450.44989013671875 347.2898254394531 C 461.1086730957031 292.88751220703125 462.1104736328125 302.0272521972656 465.01495361328125 303.2290344238281 C 546.3540649414062 299.882568359375 596.3521118164062 277.9154357910156 520.4041137695312 317.5445861816406"/>
    <path stroke-width="0" fill="rgb(10, 38, 60)" opacity="0.99316716" stroke="rgb(63, 27, 242)" stroke-opacity="1.0" stroke-linecap="round" stroke-linejoin="round" d="M 560.3211669921875 306.55780029296875 C 521.5855712890625 315.489013671875 489.0696105957031 323.8018493652344 547.9833984375 323.3186950683594 C 467.7537841796875 292.9328308105469 440.9798278808594 322.4361877441406 458.94317626953125 297.8426513671875 C 468.2552185058594 284.3315124511719 475.8133544921875 278.3686828613281 474.8968811035156 251.94557189941406 C 515.65087890625 250.08987426757812 555.55029296875 239.34410095214844 560.3211669921875 306.55780029296875"/>
    <path stroke-width="0" fill="rgb(101, 160, 71)" opacity="0.76690924" stroke="rgb(175, 14, 186)" stroke-opacity="1.0" stroke-linecap="round" stroke-linejoin="round" d="M 477.9997863769531 136.7865447998047 C 482.95526123046875 106.54789733886719 484.73779296875 161.14967346191406 465.3203125 151.84376525878906 C 476.1491394042969 133.9756317138672 454.7232360839844 171.76031494140625 476.88897705078125 131.15383911132812 C 471.37493896484375 122.30078125 462.144775390625 147.50042724609375 462.3565979003906 153.9405975341797 C 466.544189453125 161.51576232910156 473.9993896484375 142.2793731689453 477.9997863769531 136.7865447998047"/>
    <path stroke-width="0" fill="rgb(202, 223, 134)" opacity="0.81816125" stroke="rgb(69, 96, 95)" stroke-opacity="1.0" stroke-linecap="round" stroke-linejoin="round" d="M 213.48297119140625 146.6421356201172 C 224.26419067382812 179.28146362304688 225.59088134765625 181.17088317871094 233.8806610107422 164.68243408203125 C 244.49179077148438 159.9975128173828 207.38758850097656 166.70956420898438 212.6732940673828 159.14718627929688 C 217.27108764648438 154.3752899169922 222.35000610351562 148.5948944091797 236.8565673828125 172.2709503173828 C 236.8688507080078 142.80929565429688 223.87290954589844 138.31529235839844 213.48297119140625 146.6421356201172"/>
    <path stroke-width="0" fill="rgb(68, 111, 92)" opacity="0.76163906" stroke="rgb(213, 60, 128)" stroke-opacity="1.0" stroke-linecap="round" stroke-linejoin="round" d="M 501.118408203125 162.71376037597656 C 468.2429504394531 152.6035919189453 465.6943359375 189.1500244140625 469.2212219238281 175.13719177246094 C 381.58270263671875 198.6820526123047 343.1993103027344 161.4604949951172 454.8353271484375 149.09654235839844 C 495.4063720703125 159.03656005859375 475.5707702636719 148.66683959960938 397.3079528808594 -33.20250701904297 C 577.5803833007812 20.264690399169922 446.0638427734375 63.401947021484375 501.118408203125 162.71376037597656"/>
    <path stroke-width="0" fill="rgb(93, 222, -31)" opacity="0.7766243" stroke="rgb(161, 221, 239)" stroke-opacity="1.0" stroke-linecap="round" stroke-linejoin="round" d="M 272.3601379394531 144.01487731933594 C 275.5184631347656 202.48289489746094 217.06085205078125 206.90106201171875 211.36045837402344 191.754150390625 C 268.60113525390625 170.90232849121094 200.40782165527344 186.86253356933594 209.03912353515625 190.9403533935547 C 165.92864990234375 165.39527893066406 207.3064727783203 181.22605895996094 235.1535186767578 178.9688720703125 C 224.5624237060547 194.10292053222656 242.9201202392578 173.02874755859375 272.3601379394531 144.01487731933594"/>
    <path stroke-width="0" fill="rgb(114, 199, 59)" opacity="0.69915795" stroke="rgb(18, 74, 38)" stroke-opacity="1.0" stroke-linecap="round" stroke-linejoin="round" d="M 473.82830810546875 145.67152404785156 C 464.9452209472656 194.64161682128906 447.2301025390625 176.37954711914062 466.846435546875 201.12257385253906 C 488.3829650878906 173.7245635986328 445.8023681640625 128.1322479248047 452.2597961425781 149.60443115234375 C 418.17718505859375 161.89425659179688 419.8425598144531 115.09697723388672 460.7813720703125 146.76280212402344 C 458.2673034667969 125.18822479248047 493.5650634765625 122.68423461914062 473.82830810546875 145.67152404785156"/>
    <path stroke-width="0" fill="rgb(93, 123, 89)" opacity="0.42689827" stroke="rgb(33, 154, 97)" stroke-opacity="1.0" stroke-linecap="round" stroke-linejoin="round" d="M 472.3604736328125 177.20504760742188 C 473.2512512207031 188.59519958496094 457.09039306640625 186.88848876953125 471.49737548828125 197.9095458984375 C 443.602783203125 206.09060668945312 443.9356994628906 199.4906005859375 462.1440734863281 198.72171020507812 C 418.5420227050781 205.64682006835938 478.6098327636719 213.35552978515625 451.1307373046875 207.29220581054688 C 463.31976318359375 213.5740509033203 464.4837646484375 188.40492248535156 472.3604736328125 177.20504760742188"/>
    <path stroke-width="0" fill="rgb(108, 215, -18)" opacity="0.77436715" stroke="rgb(246, 139, 70)" stroke-opacity="1.0" stroke-linecap="round" stroke-linejoin="round" d="M 209.98057556152344 182.5794219970703 C 247.25315856933594 163.16989135742188 208.28480529785156 169.99400329589844 234.74838256835938 181.9482421875 C 230.6507110595703 190.7689971923828 211.3219757080078 181.52955627441406 177.8773193359375 141.43600463867188 C 174.18106079101562 213.66693115234375 256.7081298828125 173.2344207763672 227.40052795410156 184.35316467285156 C 206.23646545410156 186.99957275390625 222.48532104492188 187.86439514160156 209.98057556152344 182.5794219970703"/>
    <path stroke-width="0" fill="rgb(257, 261, 175)" opacity="1.001177" stroke="rgb(228, 103, 140)" stroke-opacity="1.0" stroke-linecap="round" stroke-linejoin="round" d="M 257.39654541015625 150.35423278808594 C 243.93434143066406 190.97496032714844 188.81915283203125 178.92311096191406 193.45657348632812 131.8570098876953 C 206.5102996826172 149.6988983154297 205.30841064453125 140.01402282714844 195.9150848388672 126.01712036132812 C 193.70794677734375 171.9116668701172 217.60589599609375 128.95230102539062 198.92263793945312 124.02051544189453 C 200.5221710205078 76.8854751586914 266.67254638671875 99.51576232910156 257.39654541015625 150.35423278808594"/>
    <path stroke-width="0" fill="rgb(77, 107, 93)" opacity="0.6953779" stroke="rgb(85, 235, 219)" stroke-opacity="1.0" stroke-linecap="round" stroke-linejoin="round" d="M 458.58856201171875 168.0380096435547 C 523.3822021484375 132.95770263671875 462.00067138671875 141.76722717285156 447.1372985839844 172.0258331298828 C 438.3591003417969 180.56443786621094 475.4930419921875 173.73794555664062 450.6730041503906 162.7694091796875 C 444.0527648925781 192.1981658935547 480.7348327636719 178.354248046875 453.15411376953125 166.7342529296875 C 521.3640747070312 167.0089111328125 469.4820251464844 147.3206024169922 458.58856201171875 168.0380096435547"/>
    <path stroke-width="0" fill="rgb(112, 155, 111)" opacity="0.18100706" stroke="rgb(64, 113, 26)" stroke-opacity="1.0" stroke-linecap="round" stroke-linejoin="round" d="M 454.14599609375 206.7600860595703 C 383.82244873046875 202.5543670654297 442.4925842285156 229.00839233398438 464.9200439453125 190.3516082763672 C 479.17529296875 206.0484619140625 440.639892578125 196.84115600585938 427.70928955078125 201.9495086669922 C 422.30279541015625 186.5301971435547 434.9369201660156 172.5782012939453 435.6977233886719 193.64320373535156 C 435.8719177246094 209.5613555908203 457.849853515625 178.3962860107422 454.14599609375 206.7600860595703"/>
    <path stroke-width="0" fill="rgb(72, 171, 149)" opacity="0.5124327" stroke="rgb(0, 0, 0)" stroke-opacity="0.0" stroke-linecap="round" stroke-linejoin="round" d="M 76.2237777709961 15.995556831359863 C 77.86663055419922 23.33064842224121 77.50186920166016 25.32020378112793 76.53477478027344 20.90564727783203 C 64.53550720214844 21.757402420043945 61.4459342956543 22.245201110839844 66.400390625 18.425031661987305 C 63.91949462890625 9.170452117919922 64.62423706054688 6.445561408996582 66.32887268066406 11.341428756713867 C 75.51097869873047 11.656723022460938 78.82129669189453 11.915010452270508 76.2237777709961 15.995556831359863"/>
    <path stroke-width="0" fill="rgb(85, 187, 202)" opacity="0.8263259" stroke="rgb(0, 0, 0)" stroke-opacity="0.0" stroke-linecap="round" stroke-linejoin="round" d="M 25.161293029785156 5.977069854736328 C 24.379186630249023 10.986564636230469 23.591638565063477 15.729601860046387 19.601451873779297 15.628693580627441 C 14.16865062713623 15.93857192993164 12.821334838867188 11.388772964477539 12.469837188720703 5.77258825302124 C 12.084871292114258 1.8528262376785278 13.569979667663574 0.029672227799892426 19.90489959716797 -1.2553470134735107 C 24.27821159362793 -0.8776271343231201 26.19090461730957 2.2903716564178467 25.161293029785156 5.977069854736328"/>
    <path stroke-width="0" fill="rgb(146, 113, 206)" opacity="0.22782908" stroke="rgb(0, 0, 0)" stroke-opacity="0.0" stroke-linecap="round" stroke-linejoin="round" d="M 437.269775390625 6.967077255249023 C 438.4140625 14.543794631958008 437.7989807128906 17.341510772705078 432.5680847167969 16.57391929626465 C 426.8234558105469 16.06684684753418 424.8486022949219 12.920303344726562 424.20806884765625 8.575265884399414 C 425.244873046875 4.745203018188477 427.8177185058594 1.2420363426208496 432.2234191894531 -1.539834976196289 C 437.1287841796875 -0.623552680015564 438.3017883300781 2.9199917316436768 437.269775390625 6.967077255249023"/>
    <path stroke-width="0" fill="rgb(128, 174, 185)" opacity="0.8235349" stroke="rgb(0, 0, 0)" stroke-opacity="0.0" stroke-linecap="round" stroke-linejoin="round" d="M 179.677978515625 12.62613296508789 C 178.92681884765625 15.562684059143066 175.14796447753906 18.126319885253906 171.52354431152344 17.78814697265625 C 168.15982055664062 18.67514419555664 164.87611389160156 16.081249237060547 165.2818603515625 13.049720764160156 C 166.32131958007812 9.781821250915527 169.47164916992188 6.8467631340026855 173.7435302734375 6.057098865509033 C 177.8487548828125 4.409294605255127 179.6749267578125 6.735513210296631 179.677978515625 12.62613296508789"/>
    <path stroke-width="0" fill="rgb(20, 85, 126)" opacity="0.3928101" stroke="rgb(0, 0, 0)" stroke-opacity="0.0" stroke-linecap="round" stroke-linejoin="round" d="M 73.53446960449219 18.154104232788086 C 73.00515747070312 20.526805877685547 69.85482025146484 23.74949836730957 65.87458038330078 25.415775299072266 C 62.33670425415039 24.135080337524414 59.49018859863281 20.67120933532715 57.83577346801758 16.754905700683594 C 58.84096908569336 12.543694496154785 61.69159698486328 10.338573455810547 66.25840759277344 8.983649253845215 C 70.01651763916016 10.08334732055664 72.76396942138672 13.10684585571289 73.53446960449219 18.154104232788086"/>
    <path stroke-width="0" fill="rgb(210, 29, 145)" opacity="0.80057126" stroke="rgb(0, 0, 0)" stroke-opacity="0.0" stroke-linecap="round" stroke-linejoin="round" d="M 259.712890625 422.2931213378906 C 260.0155944824219 427.6051330566406 256.91827392578125 429.4546813964844 252.879638671875 429.9931640625 C 249.40182495117188 429.28997802734375 246.78404235839844 425.8681335449219 245.8277587890625 422.0709533691406 C 245.66177368164062 417.84112548828125 247.55218505859375 414.8920593261719 253.46958923339844 414.6508483886719 C 258.5608215332031 414.2985534667969 261.0249938964844 416.8736267089844 259.712890625 422.2931213378906"/>
    <path stroke-width="0" fill="rgb(203, 33, 0)" opacity="0.16690755" stroke="rgb(0, 0, 0)" stroke-opacity="0.0" stroke-linecap="round" stroke-linejoin="round" d="M 398.5126953125 455.6598205566406 C 397.0248107910156 460.2003479003906 394.4002990722656 463.2492370605469 390.0804748535156 464.5718688964844 C 386.4981689453125 463.0263977050781 384.5393981933594 459.1278381347656 384.03460693359375 455.8453674316406 C 384.2297058105469 452.873291015625 386.5240478515625 449.2598876953125 389.9000549316406 447.5949401855469 C 394.2787780761719 449.0319519042969 397.4124450683594 451.7972717285156 398.5126953125 455.6598205566406"/>
    <path stroke-width="0" fill="rgb(179, 96, 42)" opacity="0.28841102" stroke="rgb(0, 0, 0)" stroke-opacity="0.0" stroke-linecap="round" stroke-linejoin="round" d="M 322.7750244140625 196.31561279296875 C 321.775146484375 200.0453643798828 318.63385009765625 202.77474975585938 314.8337097167969 204.60768127441406 C 310.8820495605469 204.2056121826172 307.89990234375 201.41464233398438 307.5271911621094 197.37290954589844 C 308.9190673828125 193.07798767089844 311.7812805175781 190.09616088867188 315.3140869140625 188.96697998046875 C 318.5570983886719 190.84622192382812 322.1015625 193.33839416503906 322.7750244140625 196.31561279296875"/>
    <path stroke-width="0" fill="rgb(201, 69, 226)" opacity="0.16554561" stroke="rgb(0, 0, 0)" stroke-opacity="0.0" stroke-linecap="round" stroke-linejoin="round" d="M -11.072669982910156 75.26679229736328 C -12.144466400146484 79.26679229736328 -15.072669982910156 82.19499206542969 -19.072669982910156 83.26679229736328 C -23.072669982910156 82.19499206542969 -26.000873565673828 79.26679229736328 -27.072669982910156 75.26679229736328 C -26.000873565673828 71.26679229736328 -23.072669982910156 68.33859252929688 -19.072669982910156 67.26679229736328 C -15.072669982910156 68.33859252929688 -12.144466400146484 71.26679229736328 -11.072669982910156 75.26679229736328"/>
    <path stroke-width="0" fill="rgb(187, 220, 145)" opacity="0.4437075" stroke="rgb(0, 0, 0)" stroke-opacity="0.0" stroke-linecap="round" stroke-linejoin="round" d="M 50.267250061035156 498.85235595703125 C 49.82499313354492 502.5198059082031 47.124332427978516 505.6905212402344 44.46385192871094 506.7435607910156 C 40.018802642822266 504.760009765625 37.33327102661133 501.40380859375 35.5963249206543 498.049072265625 C 36.27638626098633 494.6952209472656 39.24518966674805 491.8769836425781 43.47649383544922 490.65826416015625 C 46.93724822998047 491.726318359375 49.58919143676758 495.00933837890625 50.267250061035156 498.85235595703125"/>
    <path stroke-width="0" fill="rgb(187, 52, 44)" opacity="0.40353426" stroke="rgb(0, 0, 0)" stroke-opacity="0.0" stroke-linecap="round" stroke-linejoin="round" d="M 277.31549072265625 240.26394653320312 C 276.9271545410156 243.79052734375 274.2148132324219 246.6968231201172 270.7555847167969 247.49642944335938 C 267.36883544921875 246.63282775878906 264.43310546875 243.66400146484375 263.7213134765625 239.84765625 C 263.3537902832031 235.63992309570312 266.043701171875 232.8632354736328 270.7061767578125 232.42181396484375 C 274.5856628417969 233.15794372558594 276.8406677246094 236.86117553710938 277.31549072265625 240.26394653320312"/>
    <path stroke-width="0" fill="rgb(194, 137, 242)" opacity="0.045518167" stroke="rgb(0, 0, 0)" stroke-opacity="0.0" stroke-linecap="round" stroke-linejoin="round" d="M 45.43757247924805 431.8345031738281 C 44.30430221557617 435.68988037109375 40.74899673461914 437.92279052734375 37.872901916503906 439.3705139160156 C 34.24993896484375 438.56134033203125 30.56810760498047 436.51513671875 29.2763729095459 432.8909606933594 C 30.472713470458984 427.9578857421875 33.66382598876953 425.36602783203125 38.37657165527344 424.4565124511719 C 42.18533706665039 425.120361328125 44.89097595214844 428.1775817871094 45.43757247924805 431.8345031738281"/>
    <path stroke-width="0" fill="rgb(64, 199, 42)" opacity="0.8032382" stroke="rgb(0, 0, 0)" stroke-opacity="0.0" stroke-linecap="round" stroke-linejoin="round" d="M 9.321706771850586 -0.7806312441825867 C 7.854528427124023 3.1063427925109863 5.13468074798584 6.338764667510986 1.392296552658081 7.314789772033691 C -1.0911579132080078 6.6152191162109375 -4.447927474975586 4.1648993492126465 -5.665592670440674 0.45263999700546265 C -4.603318691253662 -3.5259318351745605 -1.6751154661178589 -6.454134941101074 2.3249011039733887 -7.525935649871826 C 6.326822757720947 -6.454696178436279 9.33232593536377 -3.549699068069458 9.321706771850586 -0.7806312441825867"/>
    <path stroke-width="0" fill="rgb(158, 227, 187)" opacity="0.5439026" stroke="rgb(0, 0, 0)" stroke-opacity="0.0" stroke-linecap="round" stroke-linejoin="round" d="M 37.499446868896484 415.38604736328125 C 37.34423065185547 419.6396179199219 34.956546783447266 423.06890869140625 30.16324234008789 423.7107238769531 C 25.41293716430664 422.9208068847656 22.621803283691406 420.0346984863281 22.020998001098633 415.0545654296875 C 22.571205139160156 410.5712890625 25.7447452545166 407.96624755859375 29.942670822143555 407.6997985839844 C 33.93031311035156 408.4998779296875 36.913551330566406 411.5025634765625 37.499446868896484 415.38604736328125"/>
    <path stroke-width="0" fill="rgb(72, 243, 57)" opacity="0.004460956" stroke="rgb(0, 0, 0)" stroke-opacity="0.0" stroke-linecap="round" stroke-linejoin="round" d="M 86.21660614013672 111.78217315673828 C 85.42655944824219 115.68428039550781 82.58062744140625 118.70996856689453 78.74603271484375 119.75183868408203 C 74.41608428955078 118.99542236328125 71.40478515625 116.17669677734375 69.98181915283203 112.19949340820312 C 71.88459014892578 107.86133575439453 74.65237426757812 104.84262084960938 78.59569549560547 104.13914489746094 C 82.7837142944336 105.0193862915039 85.66193389892578 107.74913024902344 86.21660614013672 111.78217315673828"/>
    <path stroke-width="0" fill="rgb(138, 215, 177)" opacity="0.590242" stroke="rgb(0, 0, 0)" stroke-opacity="0.0" stroke-linecap="round" stroke-linejoin="round" d="M 264.2735900878906 13.856375694274902 C 263.3534851074219 17.950862884521484 261.4208068847656 22.031898498535156 257.8264465332031 22.464550018310547 C 254.4583740234375 20.33550453186035 251.52313232421875 17.32952880859375 249.31948852539062 13.884857177734375 C 250.3188934326172 10.883941650390625 254.1033172607422 8.479598045349121 257.59246826171875 6.4834465980529785 C 261.0577392578125 7.6243391036987305 263.8919982910156 10.834491729736328 264.2735900878906 13.856375694274902"/>
    <path stroke-width="0" fill="rgb(152, 125, 7)" opacity="0.59239775" stroke="rgb(0, 0, 0)" stroke-opacity="0.0" stroke-linecap="round" stroke-linejoin="round" d="M 102.91465759277344 88.00889587402344 C 102.38180541992188 92.54096221923828 99.53914642333984 95.34294891357422 95.91364288330078 95.97976684570312 C 92.13468170166016 94.85043334960938 89.07219696044922 91.84326171875 87.74767303466797 88.54975128173828 C 88.58517456054688 84.46685791015625 91.45825958251953 81.37491607666016 95.90113067626953 80.44133758544922 C 99.96582794189453 81.32315063476562 103.14018249511719 83.87728881835938 102.91465759277344 88.00889587402344"/>
    <path stroke-width="0" fill="rgb(38, 199, 189)" opacity="0.9670468" stroke="rgb(0, 0, 0)" stroke-opacity="0.0" stroke-linecap="round" stroke-linejoin="round" d="M 166.3353271484375 -235.903564453125 C 165.26353454589844 -231.903564453125 162.3353271484375 -228.97537231445312 158.3353271484375 -227.903564453125 C 154.3353271484375 -228.97537231445312 151.40711975097656 -231.903564453125 150.3353271484375 -235.903564453125 C 151.40711975097656 -239.903564453125 154.3353271484375 -242.83177185058594 158.3353271484375 -243.903564453125 C 162.3353271484375 -242.83177185058594 165.26353454589844 -239.903564453125 166.3353271484375 -235.903564453125"/>
    <path stroke-width="0" fill="rgb(132, 75, 130)" opacity="0.33117008" stroke="rgb(0, 0, 0)" stroke-opacity="0.0" stroke-linecap="round" stroke-linejoin="round" d="M 9.166656494140625 -0.8374696373939514 C 8.260066032409668 3.226959705352783 5.19441556930542 6.054266929626465 1.1392742395401 7.004184722900391 C -3.5358192920684814 5.330155849456787 -6.4690775871276855 2.401973009109497 -7.543098449707031 -1.5933455228805542 C -6.47137975692749 -5.593170642852783 -3.5431766510009766 -8.521373748779297 0.45682328939437866 -9.593171119689941 C 4.456823348999023 -8.521373748779297 7.385026454925537 -5.593170642852783 9.166656494140625 -0.8374696373939514"/>
  </g>
</svg>
