<?xml version="1.0" ?>
<svg xmlns="http://www.w3.org/2000/svg" version="1.1" width="512" height="512">
  <defs/>
  <g>
    <path stroke-width="0" fill="rgb(45, 241, 17)" opacity="0.96595025" stroke="rgb(139, 182, 153)" stroke-opacity="1.0" stroke-linecap="round" stroke-linejoin="round" d="M 206.23171997070312 175.5671844482422 C 83.10765075683594 70.33985900878906 141.75051879882812 168.5699005126953 -10.276084899902344 310.7325439453125 C -50.38013458251953 273.6077880859375 -32.125091552734375 244.37161254882812 0.8160078525543213 198.25779724121094 C 57.36418533325195 82.95391082763672 62.12978744506836 73.32791137695312 79.58050537109375 111.3356704711914 C 274.6488952636719 197.9316864013672 147.24549865722656 54.76984405517578 206.23171997070312 175.5671844482422"/>
    <path stroke-width="0" fill="rgb(144, 158, 147)" opacity="0.88576293" stroke="rgb(108, 164, 111)" stroke-opacity="1.0" stroke-linecap="round" stroke-linejoin="round" d="M 144.86871337890625 -35.37503433227539 C 89.49301147460938 150.57635498046875 119.4981918334961 222.26907348632812 -4.713515758514404 262.5849304199219 C -46.547916412353516 225.74099731445312 -45.62079620361328 209.98471069335938 -47.316612243652344 66.32988739013672 C -49.11305618286133 -8.18151569366455 -55.94807434082031 -28.422311782836914 15.614151954650879 -48.40176773071289 C 199.6168670654297 -48.19676208496094 200.75816345214844 -41.44858932495117 144.86871337890625 -35.37503433227539"/>
    <path stroke-width="0" fill="rgb(186, 181, 84)" opacity="0.39076525" stroke="rgb(245, 97, 201)" stroke-opacity="1.0" stroke-linecap="round" stroke-linejoin="round" d="M 563.8391723632812 -46.56962203979492 C 586.0159912109375 497.6336975097656 588.2413940429688 535.3872680664062 530.9283447265625 497.87603759765625 C -111.68489074707031 496.8306579589844 -96.05644226074219 503.1023254394531 -73.93388366699219 490.967529296875 C 92.89531707763672 153.97412109375 149.9213104248047 154.30929565429688 338.1568298339844 -47.04349136352539 C 391.4353942871094 -64.82481384277344 407.0115051269531 -154.88951110839844 563.8391723632812 -46.56962203979492"/>
    <path stroke-width="0" fill="rgb(29, 66, 89)" opacity="0.78977966" stroke="rgb(144, 236, 18)" stroke-opacity="1.0" stroke-linecap="round" stroke-linejoin="round" d="M 278.5484619140625 22.127042770385742 C 60.22831726074219 233.04827880859375 197.29547119140625 66.26425170898438 510.8020324707031 378.39788818359375 C 152.59934997558594 532.8075561523438 -166.69500732421875 504.9383239746094 -280.43670654296875 350.3870849609375 C 30.20574378967285 0.0591675266623497 11.079209327697754 -26.942598342895508 238.08401489257812 -44.97572326660156 C 282.7806091308594 -42.8990364074707 303.0016784667969 -43.654178619384766 278.5484619140625 22.127042770385742"/>
    <path stroke-width="0" fill="rgb(214, 104, 110)" opacity="0.8540229" stroke="rgb(5, 212, 198)" stroke-opacity="1.0" stroke-linecap="round" stroke-linejoin="round" d="M 257.9652404785156 314.86383056640625 C 284.39520263671875 285.97796630859375 274.6307678222656 292.9189453125 218.7607879638672 340.38092041015625 C 208.81878662109375 338.1003112792969 203.44940185546875 330.0090026855469 201.84849548339844 287.6219482421875 C 252.58143615722656 277.109619140625 283.5915832519531 286.135986328125 291.896240234375 290.1601867675781 C 237.96881103515625 293.13275146484375 249.40687561035156 304.6378479003906 257.9652404785156 314.86383056640625"/>
    <path stroke-width="0" fill="rgb(259, 138, 71)" opacity="0.96939147" stroke="rgb(249, 203, 117)" stroke-opacity="1.0" stroke-linecap="round" stroke-linejoin="round" d="M 339.0560302734375 470.2098693847656 C 358.38250732421875 497.6361083984375 289.343505859375 445.0348815917969 154.07627868652344 450.7654724121094 C 112.80501556396484 440.76055908203125 130.03488159179688 464.5863952636719 108.99821472167969 339.0792541503906 C 109.83360290527344 313.9385986328125 171.00375366210938 332.4231262207031 237.2581787109375 374.4361572265625 C 245.39913940429688 283.57330322265625 328.50457763671875 251.7435760498047 339.0560302734375 470.2098693847656"/>
    <path stroke-width="0" fill="rgb(213, 106, 24)" opacity="0.990087" stroke="rgb(30, 163, 36)" stroke-opacity="1.0" stroke-linecap="round" stroke-linejoin="round" d="M 377.63299560546875 341.763427734375 C 355.8568420410156 460.6690673828125 369.2135314941406 458.7515563964844 337.1402587890625 445.9898986816406 C 238.45529174804688 448.5653381347656 180.44720458984375 447.5216369628906 146.79579162597656 446.89697265625 C 121.34134674072266 209.82723999023438 138.80189514160156 355.1838684082031 316.7877197265625 320.3670349121094 C 358.18389892578125 341.41534423828125 368.9919738769531 316.0921630859375 377.63299560546875 341.763427734375"/>
    <path stroke-width="0" fill="rgb(229, 123, 95)" opacity="0.9032802" stroke="rgb(133, 105, 67)" stroke-opacity="1.0" stroke-linecap="round" stroke-linejoin="round" d="M 296.997802734375 283.1882629394531 C 306.2359313964844 285.98602294921875 291.9939880371094 293.2522888183594 295.5846252441406 299.45208740234375 C 254.8929443359375 289.4755859375 254.3079376220703 289.4248046875 293.0123596191406 303.1855163574219 C 305.9015808105469 301.29217529296875 317.46063232421875 292.3818664550781 260.073486328125 291.2803039550781 C 249.96353149414062 300.6019287109375 274.1562194824219 295.94403076171875 296.997802734375 283.1882629394531"/>
    <path stroke-width="0" fill="rgb(215, 168, 120)" opacity="0.7969547" stroke="rgb(116, 144, 4)" stroke-opacity="1.0" stroke-linecap="round" stroke-linejoin="round" d="M 263.1174621582031 291.2752685546875 C 267.353759765625 333.7073669433594 260.5087890625 322.962646484375 208.1807098388672 323.81060791015625 C 93.97433471679688 349.4881591796875 147.8250274658203 291.6947326660156 160.62811279296875 309.76080322265625 C 163.344970703125 256.445068359375 145.3868865966797 275.25799560546875 280.3460388183594 279.77069091796875 C 234.2469482421875 291.294189453125 263.5751953125 281.3648681640625 263.1174621582031 291.2752685546875"/>
    <path stroke-width="0" fill="rgb(240, 152, 91)" opacity="0.8403102" stroke="rgb(156, 157, 240)" stroke-opacity="1.0" stroke-linecap="round" stroke-linejoin="round" d="M 322.21380615234375 372.59130859375 C 289.6281433105469 369.4142761230469 325.82342529296875 351.5342102050781 263.7474365234375 355.8726806640625 C 211.03269958496094 357.54449462890625 198.65823364257812 359.0889892578125 168.3641815185547 377.8172912597656 C 168.45144653320312 263.119384765625 173.15182495117188 282.7565002441406 372.40380859375 267.2794494628906 C 301.1283264160156 315.7485656738281 325.00897216796875 209.21949768066406 322.21380615234375 372.59130859375"/>
    <path stroke-width="0" fill="rgb(230, 141, 100)" opacity="0.8955377" stroke="rgb(91, 111, 177)" stroke-opacity="1.0" stroke-linecap="round" stroke-linejoin="round" d="M 297.1485595703125 325.4677429199219 C 350.6251220703125 275.46002197265625 348.4358825683594 354.5987243652344 318.8912353515625 326.79150390625 C 287.8633728027344 404.4467468261719 247.45909118652344 374.85321044921875 243.7578582763672 305.9420166015625 C 223.8907012939453 273.5093688964844 227.25534057617188 274.56591796875 328.3887023925781 274.31085205078125 C 313.97589111328125 269.50146484375 342.91424560546875 322.1498107910156 297.1485595703125 325.4677429199219"/>
    <path stroke-width="0" fill="rgb(262, 141, 71)" opacity="1.0213149" stroke="rgb(170, 171, 53)" stroke-opacity="1.0" stroke-linecap="round" stroke-linejoin="round" d="M 335.2962951660156 401.48004150390625 C 332.7537841796875 421.3766174316406 334.970703125 413.6505126953125 229.56678771972656 415.50433349609375 C 82.34645080566406 419.01165771484375 181.5657958984375 418.2491760253906 163.0869140625 281.4971008300781 C 179.11830139160156 266.95306396484375 123.3614501953125 267.3233337402344 296.37066650390625 266.99517822265625 C 357.418701171875 266.486572265625 286.6582946777344 321.86187744140625 335.2962951660156 401.48004150390625"/>
    <path stroke-width="0" fill="rgb(-8, 23, 22)" opacity="0.9599548" stroke="rgb(80, 92, 145)" stroke-opacity="1.0" stroke-linecap="round" stroke-linejoin="round" d="M 500.399658203125 -48.12882995605469 C 595.2928466796875 318.4709167480469 520.3319702148438 346.2134704589844 437.84417724609375 402.17950439453125 C 440.8227844238281 385.1676025390625 469.3253173828125 392.1131286621094 455.7627258300781 325.4049987792969 C 462.2215270996094 224.3120880126953 494.3604736328125 258.9742126464844 393.1807556152344 251.36907958984375 C 500.4104309082031 115.99043273925781 428.9571838378906 20.297067642211914 500.399658203125 -48.12882995605469"/>
    <path stroke-width="0" fill="rgb(81, 73, 121)" opacity="0.8965675" stroke="rgb(252, 26, 53)" stroke-opacity="1.0" stroke-linecap="round" stroke-linejoin="round" d="M 529.2179565429688 402.69854736328125 C 510.73541259765625 461.2519226074219 500.5393981933594 455.5765075683594 477.5509033203125 442.5628356933594 C 444.643310546875 520.5593872070312 445.2369079589844 409.1097412109375 447.36883544921875 449.0439453125 C 416.4647521972656 443.21514892578125 429.9427490234375 413.8065185546875 440.8892517089844 352.1313171386719 C 489.74267578125 366.8451232910156 494.3555908203125 381.3521728515625 529.2179565429688 402.69854736328125"/>
    <path stroke-width="0" fill="rgb(26, 46, 79)" opacity="1.0073425" stroke="rgb(166, 64, 118)" stroke-opacity="1.0" stroke-linecap="round" stroke-linejoin="round" d="M 536.5486450195312 493.06585693359375 C 559.31591796875 493.0455627441406 536.3746948242188 484.7143249511719 448.5683288574219 485.27740478515625 C 409.6605529785156 481.918701171875 379.9839172363281 490.0096435546875 395.78778076171875 473.76287841796875 C 419.1739501953125 360.49810791015625 428.6273498535156 257.2127685546875 449.9100341796875 336.4492492675781 C 466.2579345703125 450.3455810546875 524.0829467773438 397.78515625 536.5486450195312 493.06585693359375"/>
    <path stroke-width="0" fill="rgb(268, 223, 149)" opacity="0.55274206" stroke="rgb(40, 28, 167)" stroke-opacity="1.0" stroke-linecap="round" stroke-linejoin="round" d="M 393.1255798339844 489.6729431152344 C 634.4140625 444.7417297363281 626.1636352539062 692.1344604492188 -98.69829559326172 484.8233337402344 C 428.45916748046875 466.6103515625 449.00103759765625 506.4123229980469 338.4035339355469 448.4618225097656 C 336.9066467285156 408.2162780761719 354.6647033691406 329.80096435546875 344.0898132324219 328.88800048828125 C 407.427734375 339.3375244140625 367.72137451171875 300.8921813964844 393.1255798339844 489.6729431152344"/>
    <path stroke-width="0" fill="rgb(-26, 20, 39)" opacity="0.96017164" stroke="rgb(50, 94, 209)" stroke-opacity="1.0" stroke-linecap="round" stroke-linejoin="round" d="M 290.1902770996094 209.4241485595703 C 231.32199096679688 188.17955017089844 360.3229064941406 229.99041748046875 263.36572265625 200.1569366455078 C 25.865406036376953 223.7730255126953 329.2413330078125 -145.45216369628906 177.70091247558594 160.14634704589844 C 363.45849609375 234.4210205078125 176.525390625 25.536361694335938 232.85342407226562 31.422733306884766 C 327.3479309082031 110.14689636230469 312.34259033203125 176.4033966064453 290.1902770996094 209.4241485595703"/>
    <path stroke-width="0" fill="rgb(92, 206, -33)" opacity="0.99870557" stroke="rgb(213, 24, 248)" stroke-opacity="1.0" stroke-linecap="round" stroke-linejoin="round" d="M 273.9062805175781 197.35511779785156 C 296.888916015625 199.8822479248047 312.87884521484375 218.2142791748047 168.6719207763672 155.38735961914062 C 231.9203643798828 272.99249267578125 301.44879150390625 101.44526672363281 215.5416717529297 77.30272674560547 C 129.3411407470703 305.2394104003906 184.00393676757812 -27.48481559753418 250.56666564941406 53.23822021484375 C 332.0624694824219 216.08164978027344 203.87350463867188 174.09176635742188 273.9062805175781 197.35511779785156"/>
    <path stroke-width="0" fill="rgb(196, 113, 21)" opacity="0.9169013" stroke="rgb(249, 154, 188)" stroke-opacity="1.0" stroke-linecap="round" stroke-linejoin="round" d="M 317.4681396484375 356.39202880859375 C 334.8942565917969 475.0998840332031 368.4941101074219 225.0397186279297 318.6885681152344 387.72247314453125 C 56.99601364135742 384.2361755371094 189.4400177001953 400.656494140625 144.4150848388672 350.799072265625 C 213.52513122558594 362.663330078125 293.1290283203125 346.77899169921875 217.98220825195312 361.26885986328125 C 267.68988037109375 351.70355224609375 237.33074951171875 356.4029235839844 317.4681396484375 356.39202880859375"/>
    <path stroke-width="0" fill="rgb(254, 221, 113)" opacity="0.9477367" stroke="rgb(72, 30, 75)" stroke-opacity="1.0" stroke-linecap="round" stroke-linejoin="round" d="M 549.5604858398438 396.8698425292969 C 526.99267578125 423.83740234375 488.69775390625 423.6814270019531 437.4423522949219 353.7501220703125 C 431.2242431640625 477.93182373046875 409.32928466796875 625.172119140625 429.1271057128906 349.6941223144531 C 392.333984375 372.3523254394531 432.9522399902344 238.8876953125 426.209228515625 304.8760070800781 C 519.8884887695312 333.593017578125 543.77685546875 278.6366882324219 549.5604858398438 396.8698425292969"/>
    <path stroke-width="0" fill="rgb(243, 135, 25)" opacity="0.48482242" stroke="rgb(81, 105, 16)" stroke-opacity="1.0" stroke-linecap="round" stroke-linejoin="round" d="M 552.1581420898438 296.6300048828125 C 483.60302734375 385.7516174316406 446.1549377441406 415.3119812011719 429.0024719238281 314.2200927734375 C 442.6156005859375 506.0542907714844 401.7449951171875 594.5648193359375 440.4321594238281 354.6009521484375 C 412.9339294433594 283.3698425292969 429.2740478515625 325.304443359375 516.4169921875 307.95654296875 C 518.238037109375 275.54443359375 530.0408325195312 279.0945129394531 552.1581420898438 296.6300048828125"/>
    <path stroke-width="0" fill="rgb(208, 256, -9)" opacity="0.95804256" stroke="rgb(144, 67, 133)" stroke-opacity="1.0" stroke-linecap="round" stroke-linejoin="round" d="M 469.85040283203125 262.3274230957031 C 491.9496765136719 88.23250579833984 493.6757507324219 186.4193115234375 421.7550964355469 139.09518432617188 C 437.87615966796875 127.16268157958984 460.92437744140625 153.33270263671875 435.5055236816406 114.2548599243164 C 440.8737487792969 120.57662200927734 467.7002868652344 160.58201599121094 448.68231201171875 136.8955078125 C 411.7939147949219 29.72787094116211 513.2852783203125 154.19732666015625 469.85040283203125 262.3274230957031"/>
    <path stroke-width="0" fill="rgb(24, 44, 80)" opacity="1.0317183" stroke="rgb(146, 236, 81)" stroke-opacity="1.0" stroke-linecap="round" stroke-linejoin="round" d="M 552.8323974609375 487.8982849121094 C 553.0545654296875 506.82989501953125 547.32421875 512.4262084960938 531.56396484375 486.7656555175781 C 483.68701171875 504.764404296875 488.88726806640625 384.5067138671875 439.8033142089844 423.5774841308594 C 450.7143859863281 392.78936767578125 435.7239074707031 382.9570007324219 471.08367919921875 394.4158020019531 C 514.349609375 401.73052978515625 544.4136962890625 381.46063232421875 552.8323974609375 487.8982849121094"/>
    <path stroke-width="0" fill="rgb(31, 58, 84)" opacity="0.4425102" stroke="rgb(33, 182, 73)" stroke-opacity="1.0" stroke-linecap="round" stroke-linejoin="round" d="M 598.2183837890625 3.3846793174743652 C 593.9190673828125 299.7571716308594 556.2720336914062 291.59539794921875 462.8813171386719 312.62432861328125 C 401.42724609375 298.3279113769531 429.9713134765625 316.5477600097656 401.57318115234375 311.0990905761719 C 302.49658203125 415.74066162109375 294.916748046875 84.18559265136719 221.20565795898438 -31.640586853027344 C 616.9965209960938 -80.57600402832031 610.6663208007812 -56.13962936401367 598.2183837890625 3.3846793174743652"/>
    <path stroke-width="0" fill="rgb(243, 228, 108)" opacity="0.96665543" stroke="rgb(149, 5, 211)" stroke-opacity="1.0" stroke-linecap="round" stroke-linejoin="round" d="M 456.6103820800781 372.8800048828125 C 440.73016357421875 343.06500244140625 428.469970703125 355.72613525390625 478.57861328125 382.0574035644531 C 387.8547058105469 354.39697265625 445.1434326171875 288.7033386230469 378.6336669921875 546.4769287109375 C 418.98675537109375 240.99705505371094 414.3459167480469 322.4671936035156 495.2972717285156 308.2499084472656 C 400.02496337890625 378.6179504394531 423.1655578613281 344.91943359375 456.6103820800781 372.8800048828125"/>
    <path stroke-width="0" fill="rgb(34, 58, 85)" opacity="0.9958404" stroke="rgb(172, 68, 187)" stroke-opacity="1.0" stroke-linecap="round" stroke-linejoin="round" d="M 384.29339599609375 158.28375244140625 C 364.8036193847656 614.7752685546875 333.3719482421875 361.880859375 336.8516845703125 482.3379211425781 C 283.19927978515625 472.0963134765625 300.6051025390625 495.064453125 286.894775390625 450.0097351074219 C 331.14691162109375 454.8206787109375 314.8623352050781 437.8664245605469 329.20135498046875 482.6886901855469 C 392.5334777832031 463.0752868652344 406.1366271972656 573.5099487304688 384.29339599609375 158.28375244140625"/>
    <path stroke-width="0" fill="rgb(26, 46, 76)" opacity="0.99915385" stroke="rgb(63, 146, 150)" stroke-opacity="1.0" stroke-linecap="round" stroke-linejoin="round" d="M 510.3677978515625 421.66571044921875 C 501.4455871582031 393.9751281738281 491.8822326660156 427.1545104980469 507.2805480957031 459.6561584472656 C 485.75115966796875 411.2294006347656 423.9981994628906 443.2591552734375 438.91448974609375 353.697509765625 C 439.3739013671875 356.6695556640625 428.54437255859375 354.4438171386719 501.2939147949219 355.84295654296875 C 493.3507385253906 357.84417724609375 510.96826171875 372.5849914550781 510.3677978515625 421.66571044921875"/>
    <path stroke-width="0" fill="rgb(25, 48, 74)" opacity="0.54940164" stroke="rgb(56, 242, 114)" stroke-opacity="1.0" stroke-linecap="round" stroke-linejoin="round" d="M 512.8800659179688 445.2086181640625 C 548.5046997070312 457.67095947265625 548.2293701171875 462.89361572265625 544.7459106445312 449.5008850097656 C 488.0851745605469 407.0465393066406 456.6243591308594 399.4305114746094 434.98748779296875 378.6019287109375 C 435.698974609375 349.5135498046875 434.7579650878906 374.62188720703125 436.5180358886719 456.8419189453125 C 460.93115234375 379.2599792480469 477.6241455078125 407.8918151855469 512.8800659179688 445.2086181640625"/>
    <path stroke-width="0" fill="rgb(145, 160, 186)" opacity="0.8277514" stroke="rgb(178, 75, 207)" stroke-opacity="1.0" stroke-linecap="round" stroke-linejoin="round" d="M 147.21688842773438 61.40805435180664 C 187.80636596679688 169.0440216064453 134.84169006347656 188.8675994873047 93.64633178710938 112.53759002685547 C 78.98857879638672 102.02765655517578 74.55934143066406 95.71833801269531 71.73558044433594 80.22157287597656 C 108.14250183105469 47.315128326416016 86.11660766601562 65.45396423339844 112.25425720214844 27.983335494995117 C 137.0354766845703 48.3839111328125 153.57675170898438 61.74855422973633 147.21688842773438 61.40805435180664"/>
    <path stroke-width="0" fill="rgb(29, 62, 102)" opacity="1.0034506" stroke="rgb(224, 148, 224)" stroke-opacity="1.0" stroke-linecap="round" stroke-linejoin="round" d="M 284.5212097167969 443.4307861328125 C 271.9018249511719 459.2754821777344 283.1430969238281 462.28436279296875 283.5459899902344 480.0401611328125 C 154.21954345703125 479.9769287109375 191.4290313720703 481.0787658691406 207.04421997070312 450.9821472167969 C 192.2873992919922 448.9743347167969 304.5281066894531 452.38232421875 273.68603515625 448.98516845703125 C 282.1784362792969 451.4085388183594 273.06011962890625 460.0735168457031 284.5212097167969 443.4307861328125"/>
    <path stroke-width="0" fill="rgb(131, 134, 138)" opacity="0.8953639" stroke="rgb(184, 127, 243)" stroke-opacity="1.0" stroke-linecap="round" stroke-linejoin="round" d="M 143.40087890625 27.21057891845703 C 140.61318969726562 37.380123138427734 133.53375244140625 44.99464416503906 123.04550170898438 48.39424514770508 C 65.65888214111328 45.75980758666992 59.25043487548828 38.320098876953125 58.93949508666992 26.407743453979492 C 83.75411224365234 -5.01318883895874 90.6287841796875 -12.761528968811035 99.70361328125 -15.515525817871094 C 107.03827667236328 -10.875435829162598 112.0066909790039 -1.7244166135787964 143.40087890625 27.21057891845703"/>
    <path stroke-width="0" fill="rgb(146, 157, 162)" opacity="1.0343373" stroke="rgb(108, 154, 4)" stroke-opacity="1.0" stroke-linecap="round" stroke-linejoin="round" d="M 77.7505874633789 7.457668781280518 C 75.75298309326172 16.812124252319336 69.0781478881836 24.799549102783203 59.92485809326172 27.61678123474121 C 50.25951385498047 25.093172073364258 42.92931365966797 17.738685607910156 38.112518310546875 7.227848529815674 C 39.99484634399414 -3.1111907958984375 48.42356872558594 -10.002896308898926 59.65517044067383 -12.079822540283203 C 69.499755859375 -9.023548126220703 76.10456085205078 -1.2514538764953613 77.7505874633789 7.457668781280518"/>
    <path stroke-width="0" fill="rgb(117, 124, 134)" opacity="0.96270424" stroke="rgb(168, 73, 157)" stroke-opacity="1.0" stroke-linecap="round" stroke-linejoin="round" d="M 72.97782135009766 16.328243255615234 C 70.54332733154297 27.06401252746582 63.235904693603516 34.53280258178711 48.05960464477539 45.57246398925781 C 21.332319259643555 48.1207389831543 12.148079872131348 48.82156753540039 42.986854553222656 38.112876892089844 C 61.21140670776367 19.657699584960938 60.231571197509766 15.933290481567383 37.778900146484375 -21.045135498046875 C 62.120689392089844 -1.493126630783081 69.23783111572266 6.01851224899292 72.97782135009766 16.328243255615234"/>
    <path stroke-width="0" fill="rgb(81, 102, 118)" opacity="0.5634571" stroke="rgb(34, 76, 145)" stroke-opacity="1.0" stroke-linecap="round" stroke-linejoin="round" d="M 221.4306182861328 12.3982515335083 C 165.63328552246094 86.97676849365234 134.01641845703125 79.70942687988281 115.54383850097656 105.69468688964844 C 84.53741455078125 111.35829162597656 79.51725006103516 103.9117202758789 93.6280746459961 90.7943115234375 C 93.376708984375 45.90720748901367 101.00542449951172 39.29640579223633 118.76319122314453 -8.073837280273438 C 153.80287170410156 -35.10070037841797 204.72146606445312 -41.479488372802734 221.4306182861328 12.3982515335083"/>
    <path stroke-width="0" fill="rgb(113, 110, 104)" opacity="0.8701714" stroke="rgb(146, 166, 166)" stroke-opacity="1.0" stroke-linecap="round" stroke-linejoin="round" d="M 168.6959686279297 245.86795043945312 C 176.61436462402344 207.77012634277344 124.85150909423828 211.9117889404297 47.16605758666992 193.17579650878906 C 36.99614715576172 189.66331481933594 31.26698112487793 182.12478637695312 40.51610565185547 143.4242706298828 C 58.9291877746582 86.28399658203125 66.34931182861328 79.13863372802734 61.677001953125 97.86360168457031 C 121.24925231933594 108.75310516357422 25.142240524291992 188.70506286621094 168.6959686279297 245.86795043945312"/>
    <path stroke-width="0" fill="rgb(220, 212, 193)" opacity="0.35119256" stroke="rgb(228, 93, 111)" stroke-opacity="1.0" stroke-linecap="round" stroke-linejoin="round" d="M 222.48141479492188 38.700103759765625 C 189.07232666015625 38.94240188598633 155.5306854248047 154.60641479492188 165.09544372558594 167.36181640625 C 48.03923797607422 146.30252075195312 103.12674713134766 60.66947937011719 85.50978088378906 15.848464012145996 C 87.07135772705078 6.424633502960205 94.4219741821289 -0.8787727355957031 108.35958862304688 -4.818893909454346 C 170.92584228515625 -17.386798858642578 186.75267028808594 -58.70201873779297 222.48141479492188 38.700103759765625"/>
    <path stroke-width="0" fill="rgb(122, 129, 135)" opacity="0.90945494" stroke="rgb(205, 179, 25)" stroke-opacity="1.0" stroke-linecap="round" stroke-linejoin="round" d="M 85.15572357177734 44.69579315185547 C 35.163455963134766 73.14000701904297 33.25878143310547 82.46099853515625 -11.57460880279541 136.4552001953125 C -23.76293182373047 138.65989685058594 -30.73976707458496 131.9322509765625 -32.715179443359375 110.29740142822266 C -19.09853744506836 31.745235443115234 -11.072508811950684 25.28606414794922 62.306766510009766 26.580812454223633 C 74.89938354492188 26.348957061767578 82.1830825805664 32.78080749511719 85.15572357177734 44.69579315185547"/>
    <path stroke-width="0" fill="rgb(123, 145, 136)" opacity="1.0199975" stroke="rgb(182, 254, 38)" stroke-opacity="1.0" stroke-linecap="round" stroke-linejoin="round" d="M 231.1492156982422 230.1263885498047 C 169.4432830810547 236.27166748046875 132.77789306640625 338.39825439453125 149.32164001464844 330.6853332519531 C -50.75487518310547 332.8653564453125 -18.3587589263916 294.6622314453125 -12.02013111114502 198.12574768066406 C -3.9195454120635986 132.65765380859375 -2.0809402465820312 118.93208312988281 49.484737396240234 108.98604583740234 C 124.02266693115234 109.61068725585938 129.48333740234375 130.9223175048828 231.1492156982422 230.1263885498047"/>
    <path stroke-width="0" fill="rgb(131, 145, 139)" opacity="0.9616485" stroke="rgb(41, 156, 31)" stroke-opacity="1.0" stroke-linecap="round" stroke-linejoin="round" d="M 68.21430969238281 67.00717163085938 C 65.16204833984375 78.0562973022461 58.055824279785156 85.44020080566406 -4.365509033203125 92.18865966796875 C -18.30956268310547 92.00404357910156 -28.15337371826172 88.30581665039062 -30.40452766418457 79.21770477294922 C -26.784635543823242 3.3494513034820557 -18.000425338745117 -3.135021209716797 -10.555852890014648 -3.005641222000122 C 57.15205383300781 5.079190254211426 64.27119445800781 10.981863021850586 68.21430969238281 67.00717163085938"/>
    <path stroke-width="0" fill="rgb(151, 135, 152)" opacity="0.96897423" stroke="rgb(205, 145, 103)" stroke-opacity="1.0" stroke-linecap="round" stroke-linejoin="round" d="M 91.21886444091797 69.44681549072266 C 57.47041702270508 78.90538024902344 73.01539611816406 81.84122467041016 60.88434600830078 127.8462142944336 C 50.45081329345703 124.9291763305664 43.60502243041992 117.19660186767578 34.78319549560547 53.44789505004883 C 35.160736083984375 41.287315368652344 40.96158981323242 33.23532485961914 49.855072021484375 31.3858585357666 C 93.39054870605469 67.28749084472656 100.93360900878906 74.29622650146484 91.21886444091797 69.44681549072266"/>
    <path stroke-width="0" fill="rgb(136, 139, 150)" opacity="0.966367" stroke="rgb(177, 115, 184)" stroke-opacity="1.0" stroke-linecap="round" stroke-linejoin="round" d="M 115.89723205566406 32.97119903564453 C 115.31595611572266 44.30870056152344 108.50426483154297 51.7554817199707 98.08808135986328 53.339569091796875 C 63.09596633911133 24.173320770263672 55.5366325378418 17.096309661865234 49.527099609375 8.188241958618164 C 55.53818893432617 -0.8248386383056641 62.58124923706055 -8.786591529846191 72.02405548095703 -11.994827270507812 C 81.68958282470703 -9.0606107711792 88.5931396484375 -1.3291800022125244 115.89723205566406 32.97119903564453"/>
    <path stroke-width="0" fill="rgb(129, 145, 138)" opacity="0.9056918" stroke="rgb(248, 218, 2)" stroke-opacity="1.0" stroke-linecap="round" stroke-linejoin="round" d="M 112.38418579101562 16.214969635009766 C 36.60480880737305 20.77167320251465 104.5772476196289 79.9759750366211 35.278656005859375 94.38159942626953 C 26.52295684814453 88.6627426147461 18.70436668395996 81.536376953125 14.506738662719727 71.64286041259766 C 50.052703857421875 29.605979919433594 58.60564041137695 24.086135864257812 93.10303497314453 -4.207540035247803 C 104.4214096069336 -4.128506660461426 111.0643539428711 3.8306169509887695 112.38418579101562 16.214969635009766"/>
    <path stroke-width="0" fill="rgb(154, 153, 156)" opacity="1.0205152" stroke="rgb(186, 43, 132)" stroke-opacity="1.0" stroke-linecap="round" stroke-linejoin="round" d="M 104.6928482055664 136.90086364746094 C 105.9471664428711 149.57911682128906 104.47190856933594 162.3053436279297 95.31578063964844 176.3745880126953 C 10.137211799621582 168.68109130859375 10.175981521606445 158.40850830078125 22.9765682220459 135.8012237548828 C 41.882911682128906 97.4510726928711 49.66863250732422 90.39045715332031 82.24518585205078 65.05497741699219 C 93.64042663574219 66.94844055175781 100.90953063964844 74.37718200683594 104.6928482055664 136.90086364746094"/>
    <path stroke-width="0" fill="rgb(127, 147, 142)" opacity="0.9342142" stroke="rgb(50, 4, 202)" stroke-opacity="1.0" stroke-linecap="round" stroke-linejoin="round" d="M 166.84588623046875 230.4842987060547 C 323.285888671875 174.22311401367188 651.5208129882812 284.3702697753906 139.6388397216797 265.551513671875 C -14.542710304260254 234.66615295410156 31.037025451660156 192.20530700683594 52.501609802246094 165.7381134033203 C 97.87593078613281 112.65892791748047 95.51747131347656 113.60586547851562 72.36335754394531 96.05072784423828 C 86.11092376708984 156.30938720703125 151.69723510742188 68.68629455566406 166.84588623046875 230.4842987060547"/>
    <path stroke-width="0" fill="rgb(122, 142, 124)" opacity="0.97678846" stroke="rgb(88, 236, 179)" stroke-opacity="1.0" stroke-linecap="round" stroke-linejoin="round" d="M 131.65603637695312 29.45668601989746 C 113.03480529785156 57.72808837890625 105.99525451660156 65.6014404296875 96.9007568359375 68.08068084716797 C 87.63017272949219 64.27272033691406 87.15094757080078 52.27010726928711 62.72960662841797 24.13932991027832 C 57.681636810302734 16.66339874267578 64.92634582519531 9.29850959777832 74.73994445800781 4.451038837432861 C 129.84400939941406 6.533953666687012 136.4851837158203 14.372486114501953 131.65603637695312 29.45668601989746"/>
    <path stroke-width="0" fill="rgb(173, 142, 163)" opacity="0.8910046" stroke="rgb(41, 158, 147)" stroke-opacity="1.0" stroke-linecap="round" stroke-linejoin="round" d="M 114.82137298583984 85.57391357421875 C 87.10157012939453 189.33912658691406 165.7667236328125 171.2582244873047 117.3262710571289 120.62034606933594 C 65.18971252441406 149.85458374023438 58.40000534057617 138.26779174804688 55.48141860961914 127.23140716552734 C 69.7196044921875 85.4351577758789 86.35427856445312 85.08574676513672 126.08007049560547 60.92374038696289 C 136.66522216796875 60.664859771728516 146.73580932617188 66.16641998291016 114.82137298583984 85.57391357421875"/>
    <path stroke-width="0" fill="rgb(129, 143, 138)" opacity="0.98762625" stroke="rgb(238, 156, 136)" stroke-opacity="1.0" stroke-linecap="round" stroke-linejoin="round" d="M 93.1844253540039 34.601806640625 C 57.42109680175781 58.1622428894043 66.40269470214844 63.45242691040039 76.80423736572266 76.30631256103516 C 14.85118579864502 72.59819793701172 26.620203018188477 64.62010192871094 -1.700391411781311 3.272754430770874 C 0.6167176961898804 -8.219541549682617 7.70470666885376 -15.566514015197754 20.09918212890625 -17.861452102661133 C 60.23838424682617 13.79999828338623 58.33391571044922 12.773726463317871 93.1844253540039 34.601806640625"/>
    <path stroke-width="0" fill="rgb(125, 148, 134)" opacity="0.88717216" stroke="rgb(186, 79, 101)" stroke-opacity="1.0" stroke-linecap="round" stroke-linejoin="round" d="M 71.0845718383789 2.953429698944092 C 65.30374145507812 10.963374137878418 47.88241958618164 6.50803279876709 12.213281631469727 52.739105224609375 C 0.3284435570240021 50.305171966552734 -8.270857810974121 44.21223068237305 -31.90789031982422 10.580037117004395 C -11.457196235656738 -50.801475524902344 3.0080111026763916 -43.40044403076172 33.16194534301758 -33.32372283935547 C 54.7028923034668 -17.857929229736328 63.36863327026367 -11.695158958435059 71.0845718383789 2.953429698944092"/>
    <path stroke-width="0" fill="rgb(128, 149, 145)" opacity="0.71559906" stroke="rgb(47, 240, 188)" stroke-opacity="1.0" stroke-linecap="round" stroke-linejoin="round" d="M 147.468017578125 41.89409255981445 C 174.0382843017578 120.11266326904297 169.0257110595703 64.92158508300781 136.24819946289062 88.73836517333984 C 104.41045379638672 59.79399871826172 98.33036804199219 52.76740264892578 69.73140716552734 28.9996280670166 C 68.18565368652344 14.953991889953613 74.61082458496094 6.581040859222412 88.10279846191406 4.68300199508667 C 140.08010864257812 8.517566680908203 154.03282165527344 13.010843276977539 147.468017578125 41.89409255981445"/>
    <path stroke-width="0" fill="rgb(131, 144, 138)" opacity="0.99650294" stroke="rgb(57, 64, 14)" stroke-opacity="1.0" stroke-linecap="round" stroke-linejoin="round" d="M 117.8017349243164 164.51046752929688 C 110.71942901611328 177.4313507080078 104.0705337524414 184.87417602539062 42.846744537353516 184.09288024902344 C -21.926828384399414 177.09019470214844 -33.16122055053711 174.0641632080078 -37.17839431762695 136.62600708007812 C -12.686117172241211 68.38652801513672 -1.1353106498718262 63.713680267333984 18.778181076049805 62.96510696411133 C 37.652835845947266 127.53288269042969 71.1160659790039 87.13973236083984 117.8017349243164 164.51046752929688"/>
    <path stroke-width="0" fill="rgb(165, 159, 170)" opacity="0.5433184" stroke="rgb(79, 177, 96)" stroke-opacity="1.0" stroke-linecap="round" stroke-linejoin="round" d="M 163.47882080078125 55.51893615722656 C 117.16944122314453 79.0538330078125 128.12698364257812 97.5892333984375 114.09886169433594 109.30760955810547 C 78.06852722167969 99.21668243408203 85.72281646728516 80.17092895507812 85.7242202758789 72.66442108154297 C 84.02772521972656 44.603694915771484 86.07389068603516 74.70285034179688 83.8576431274414 55.24993896484375 C 100.8846206665039 50.79867172241211 61.35126495361328 38.373626708984375 163.47882080078125 55.51893615722656"/>
    <path stroke-width="0" fill="rgb(129, 145, 143)" opacity="0.9103607" stroke="rgb(6, 17, 173)" stroke-opacity="1.0" stroke-linecap="round" stroke-linejoin="round" d="M 155.17343139648438 31.559207916259766 C 86.75486755371094 9.710339546203613 88.24727630615234 14.06767749786377 70.37677764892578 45.7888298034668 C 60.83213806152344 37.424415588378906 55.78763198852539 31.28777313232422 65.41510772705078 12.365461349487305 C 73.7951889038086 -10.852555274963379 81.01496887207031 -18.19285011291504 104.19572448730469 -37.91387939453125 C 90.79783630371094 -1.4613409042358398 115.56627655029297 -11.883525848388672 155.17343139648438 31.559207916259766"/>
    <path stroke-width="0" fill="rgb(129, 145, 137)" opacity="0.8406071" stroke="rgb(136, 228, 252)" stroke-opacity="1.0" stroke-linecap="round" stroke-linejoin="round" d="M 66.75166320800781 156.39756774902344 C 62.810523986816406 228.65472412109375 59.46648406982422 238.35972595214844 26.051715850830078 257.21429443359375 C -64.66963195800781 246.6234893798828 -65.43506622314453 235.16871643066406 -46.5458984375 190.4502716064453 C -51.45711898803711 127.693359375 -45.941383361816406 118.31744384765625 -0.2511429190635681 94.53874206542969 C 64.19904327392578 101.70880889892578 69.8796157836914 108.89824676513672 66.75166320800781 156.39756774902344"/>
    <path stroke-width="0" fill="rgb(85, 135, 93)" opacity="0.76133454" stroke="rgb(169, 67, 5)" stroke-opacity="1.0" stroke-linecap="round" stroke-linejoin="round" d="M 933.200927734375 228.87088012695312 C 529.7588500976562 317.3100891113281 418.86968994140625 162.00291442871094 394.61785888671875 348.77911376953125 C 226.14952087402344 244.13194274902344 399.4364318847656 125.15308380126953 477.66058349609375 159.4816131591797 C 489.03143310546875 -17.88203239440918 356.8061218261719 395.03631591796875 370.75830078125 -1.2068406343460083 C 572.5486450195312 -65.4778823852539 602.8023071289062 -29.20888328552246 933.200927734375 228.87088012695312"/>
    <path stroke-width="0" fill="rgb(129, 145, 139)" opacity="0.9235958" stroke="rgb(81, 97, 150)" stroke-opacity="1.0" stroke-linecap="round" stroke-linejoin="round" d="M 164.9239044189453 19.342018127441406 C 189.35560607910156 34.3125 172.56459045410156 39.9990234375 115.89520263671875 45.282066345214844 C 103.50226593017578 40.15068054199219 94.96063232421875 32.852012634277344 91.37055206298828 19.881227493286133 C 115.23213958740234 -13.401827812194824 123.33404541015625 -20.007678985595703 151.85018920898438 -32.537132263183594 C 160.643310546875 -30.654191970825195 145.86044311523438 -4.7328362464904785 164.9239044189453 19.342018127441406"/>
    <path stroke-width="0" fill="rgb(124, 146, 139)" opacity="0.969363" stroke="rgb(160, 222, 69)" stroke-opacity="1.0" stroke-linecap="round" stroke-linejoin="round" d="M 223.89236450195312 -74.86575317382812 C 135.61363220214844 191.01499938964844 161.24546813964844 162.18035888671875 227.72010803222656 217.84475708007812 C -25.301132202148438 230.01380920410156 43.05567169189453 144.1884765625 21.353219985961914 144.51988220214844 C 107.47137451171875 93.51084899902344 77.28550720214844 65.08654022216797 162.54196166992188 2.2383875846862793 C 245.2218475341797 62.32195281982422 380.67694091796875 83.34149169921875 223.89236450195312 -74.86575317382812"/>
    <path stroke-width="0" fill="rgb(127, 144, 136)" opacity="1.0060813" stroke="rgb(47, 242, 175)" stroke-opacity="1.0" stroke-linecap="round" stroke-linejoin="round" d="M 95.23312377929688 55.35406494140625 C 89.40870666503906 117.35798645019531 82.23442840576172 127.41240692138672 40.26923751831055 120.42707061767578 C 19.868722915649414 118.33183288574219 17.532217025756836 106.91716003417969 30.62574005126953 62.83041000366211 C -0.5529037714004517 45.561546325683594 12.924931526184082 50.569610595703125 76.04708862304688 29.4479923248291 C 89.7865219116211 34.45226287841797 94.82463073730469 43.264766693115234 95.23312377929688 55.35406494140625"/>
    <path stroke-width="0" fill="rgb(128, 145, 142)" opacity="0.96630096" stroke="rgb(241, 186, 64)" stroke-opacity="1.0" stroke-linecap="round" stroke-linejoin="round" d="M 116.19857025146484 47.405517578125 C 119.55012512207031 76.15323638916016 106.55699157714844 76.52421569824219 69.49817657470703 101.2914810180664 C 58.22451400756836 101.36632537841797 51.42166519165039 93.52825927734375 50.44105911254883 84.66690063476562 C 104.03754425048828 74.18571472167969 89.63162994384766 60.15813446044922 76.05853271484375 28.586734771728516 C 99.89878845214844 45.08526611328125 112.02147674560547 48.871883392333984 116.19857025146484 47.405517578125"/>
    <path stroke-width="0" fill="rgb(72, 92, 131)" opacity="0.5907726" stroke="rgb(132, 6, 52)" stroke-opacity="1.0" stroke-linecap="round" stroke-linejoin="round" d="M 230.2997589111328 15.423413276672363 C 402.8676452636719 223.22727966308594 261.18304443359375 263.8172912597656 203.16937255859375 194.1586151123047 C 214.2672576904297 232.9087677001953 315.31451416015625 203.70240783691406 267.76715087890625 209.42137145996094 C 298.5452575683594 210.6336669921875 280.84625244140625 199.1088409423828 174.8872833251953 210.33047485351562 C 270.4027099609375 205.1579132080078 331.21368408203125 178.4254150390625 230.2997589111328 15.423413276672363"/>
    <path stroke-width="0" fill="rgb(120, 136, 121)" opacity="0.5612197" stroke="rgb(95, 118, 70)" stroke-opacity="1.0" stroke-linecap="round" stroke-linejoin="round" d="M 111.46366882324219 276.8436279296875 C 103.96883392333984 460.3040466308594 150.2228546142578 410.1034851074219 -0.11064102500677109 441.7900695800781 C -36.384521484375 337.1404113769531 -36.57653045654297 324.3808898925781 -35.94852066040039 275.1544494628906 C -41.400962829589844 197.63021850585938 -41.09809494018555 183.4933319091797 -10.961788177490234 181.54112243652344 C 94.6523208618164 190.25454711914062 101.25079345703125 199.9241180419922 111.46366882324219 276.8436279296875"/>
    <path stroke-width="0" fill="rgb(174, 155, 49)" opacity="0.7674198" stroke="rgb(220, 29, 131)" stroke-opacity="1.0" stroke-linecap="round" stroke-linejoin="round" d="M 522.6834106445312 336.6868591308594 C 470.6058349609375 353.9940185546875 476.90972900390625 312.54827880859375 464.7362060546875 316.16082763671875 C 463.2364196777344 344.4137878417969 459.3149719238281 364.19207763671875 465.8380432128906 306.2099609375 C 459.20013427734375 304.81884765625 470.584716796875 333.3847351074219 562.7513427734375 319.52532958984375 C 515.86572265625 302.6404113769531 489.4151916503906 314.3601379394531 522.6834106445312 336.6868591308594"/>
    <path stroke-width="0" fill="rgb(238, 114, 84)" opacity="0.48539552" stroke="rgb(140, 149, 245)" stroke-opacity="1.0" stroke-linecap="round" stroke-linejoin="round" d="M 572.2064819335938 354.0848693847656 C 579.724365234375 366.2013854980469 553.763671875 360.7923889160156 440.7982177734375 346.8636474609375 C 471.5953674316406 329.01947021484375 481.862060546875 320.9999084472656 509.54559326171875 298.55401611328125 C 533.5569458007812 285.10321044921875 511.839599609375 311.1175842285156 520.8947143554688 305.3011169433594 C 525.5113525390625 291.9359130859375 521.249755859375 311.6423645019531 572.2064819335938 354.0848693847656"/>
    <path stroke-width="0" fill="rgb(89, 125, 101)" opacity="0.73524904" stroke="rgb(170, 200, 71)" stroke-opacity="1.0" stroke-linecap="round" stroke-linejoin="round" d="M 443.3453369140625 185.2764892578125 C 437.7629699707031 186.56298828125 428.99884033203125 195.266845703125 443.3045654296875 186.38211059570312 C 442.0196838378906 207.99411010742188 463.76702880859375 206.23153686523438 431.63031005859375 198.1885986328125 C 456.6234130859375 180.75657653808594 462.9463806152344 160.87887573242188 468.1951904296875 204.21229553222656 C 429.09112548828125 177.25668334960938 443.16162109375 201.21087646484375 443.3453369140625 185.2764892578125"/>
    <path stroke-width="0" fill="rgb(132, 199, 68)" opacity="0.88912034" stroke="rgb(16, 123, 249)" stroke-opacity="1.0" stroke-linecap="round" stroke-linejoin="round" d="M 461.7547607421875 159.80169677734375 C 494.41668701171875 169.7604522705078 499.958984375 154.73098754882812 468.79144287109375 202.3124237060547 C 474.3236999511719 154.83995056152344 478.3619384765625 135.564453125 481.13134765625 116.8062973022461 C 461.9939270019531 191.8269805908203 474.2964782714844 160.29708862304688 477.43743896484375 152.93502807617188 C 469.2134094238281 160.13571166992188 478.6323547363281 179.97842407226562 461.7547607421875 159.80169677734375"/>
    <path stroke-width="0" fill="rgb(130, 195, 59)" opacity="0.93461406" stroke="rgb(86, 245, 59)" stroke-opacity="1.0" stroke-linecap="round" stroke-linejoin="round" d="M 470.145263671875 121.27642822265625 C 442.4166564941406 62.2899169921875 422.5550231933594 131.06651306152344 460.856201171875 134.68223571777344 C 498.5694274902344 154.93992614746094 469.7959289550781 165.11720275878906 469.8317565917969 146.10275268554688 C 485.311279296875 121.15410614013672 481.52069091796875 131.64381408691406 464.5242614746094 137.65426635742188 C 452.707275390625 148.72640991210938 460.3990783691406 160.5433349609375 470.145263671875 121.27642822265625"/>
    <path stroke-width="0" fill="rgb(248, 181, 113)" opacity="0.93994164" stroke="rgb(240, 203, 160)" stroke-opacity="1.0" stroke-linecap="round" stroke-linejoin="round" d="M 450.8855895996094 349.1797180175781 C 422.012939453125 341.79022216796875 406.0814208984375 349.59271240234375 430.9488220214844 341.4687194824219 C 422.7626647949219 349.6314392089844 423.09686279296875 344.3405456542969 415.0787353515625 361.2790222167969 C 407.9925842285156 428.3989562988281 414.50872802734375 373.025634765625 416.4077453613281 350.7275085449219 C 380.9017333984375 329.8493347167969 364.4439697265625 374.3581237792969 450.8855895996094 349.1797180175781"/>
    <path stroke-width="0" fill="rgb(112, 183, 60)" opacity="0.81609046" stroke="rgb(74, 216, 157)" stroke-opacity="1.0" stroke-linecap="round" stroke-linejoin="round" d="M 460.50811767578125 128.299560546875 C 457.13861083984375 156.1137237548828 458.5071716308594 170.95750427246094 465.2341003417969 164.88589477539062 C 476.27105712890625 170.64324951171875 472.9836730957031 146.3227996826172 455.4634094238281 195.39102172851562 C 466.53326416015625 133.98077392578125 482.26348876953125 124.60142517089844 459.2007751464844 134.1714324951172 C 455.06787109375 150.15174865722656 438.09954833984375 166.76820373535156 460.50811767578125 128.299560546875"/>
    <path stroke-width="0" fill="rgb(34, 60, 75)" opacity="0.73495126" stroke="rgb(88, 37, 250)" stroke-opacity="1.0" stroke-linecap="round" stroke-linejoin="round" d="M 382.2934265136719 413.9033508300781 C 382.1177673339844 357.528564453125 378.0467834472656 373.54144287109375 394.9304504394531 369.5746765136719 C 355.0762023925781 392.494873046875 402.6299133300781 454.5066833496094 396.39593505859375 414.3214416503906 C 421.42657470703125 299.3905944824219 376.26141357421875 399.2328186035156 385.6121520996094 363.4360656738281 C 356.7922668457031 398.6730041503906 372.65155029296875 419.2523193359375 382.2934265136719 413.9033508300781"/>
    <path stroke-width="0" fill="rgb(146, 98, 96)" opacity="0.6973875" stroke="rgb(126, 163, 93)" stroke-opacity="1.0" stroke-linecap="round" stroke-linejoin="round" d="M 562.5119018554688 297.8125915527344 C 503.48260498046875 338.0379638671875 496.94610595703125 343.2876892089844 574.4067993164062 309.5257873535156 C 482.5626525878906 332.68731689453125 448.76336669921875 303.7668151855469 495.1852722167969 311.81744384765625 C 526.0468139648438 331.528564453125 527.1499633789062 331.0939636230469 487.3303527832031 291.447998046875 C 475.040771484375 276.75213623046875 516.6417846679688 274.5166931152344 562.5119018554688 297.8125915527344"/>
    <path stroke-width="0" fill="rgb(104, 112, 112)" opacity="0.4899225" stroke="rgb(209, 48, 130)" stroke-opacity="1.0" stroke-linecap="round" stroke-linejoin="round" d="M 478.6104431152344 157.54808044433594 C 484.0179443359375 149.7678985595703 469.83758544921875 134.2101287841797 428.20550537109375 178.3775177001953 C 448.8647155761719 159.65191650390625 446.2652587890625 134.4265594482422 438.429931640625 171.49806213378906 C 461.0591125488281 175.8961639404297 455.9043273925781 126.8663558959961 479.4382019042969 123.82030487060547 C 429.88568115234375 147.7812042236328 418.2575988769531 179.73443603515625 478.6104431152344 157.54808044433594"/>
    <path stroke-width="0" fill="rgb(99, 128, 90)" opacity="0.5497927" stroke="rgb(24, 219, 248)" stroke-opacity="1.0" stroke-linecap="round" stroke-linejoin="round" d="M 443.4680480957031 187.4165802001953 C 459.17523193359375 193.4082794189453 419.32000732421875 198.2242431640625 447.9573974609375 222.39952087402344 C 432.16241455078125 186.7002716064453 440.9588317871094 177.4048614501953 449.166748046875 194.33529663085938 C 425.9732971191406 198.0215301513672 445.7231140136719 197.8473663330078 444.1886901855469 184.8471221923828 C 405.27490234375 198.39759826660156 453.6589660644531 214.32476806640625 443.4680480957031 187.4165802001953"/>
    <path stroke-width="0" fill="rgb(252, 212, 124)" opacity="0.97474384" stroke="rgb(231, 197, 84)" stroke-opacity="1.0" stroke-linecap="round" stroke-linejoin="round" d="M 154.68283081054688 515.8304443359375 C 144.60812377929688 512.3497924804688 172.81777954101562 508.396728515625 143.0285186767578 498.3121643066406 C 129.77932739257812 492.25714111328125 162.53811645507812 473.7811584472656 163.9921875 477.56842041015625 C 127.4022445678711 493.2803039550781 141.71302795410156 504.8897399902344 144.2795867919922 450.2150573730469 C 171.4955291748047 450.09881591796875 145.53530883789062 442.3640441894531 154.68283081054688 515.8304443359375"/>
    <path stroke-width="0" fill="rgb(74, 113, 88)" opacity="0.929771" stroke="rgb(103, 59, 33)" stroke-opacity="1.0" stroke-linecap="round" stroke-linejoin="round" d="M 522.5098266601562 192.45606994628906 C 485.79241943359375 124.53729248046875 482.7207946777344 132.68214416503906 478.7799377441406 91.37924194335938 C 469.35491943359375 126.78642272949219 430.7923278808594 116.9411849975586 470.6803894042969 194.7278289794922 C 474.447998046875 158.23236083984375 469.5573425292969 150.45504760742188 512.9407958984375 129.25979614257812 C 449.4167175292969 154.115966796875 515.8018798828125 141.39749145507812 522.5098266601562 192.45606994628906"/>
    <path stroke-width="0" fill="rgb(244, 212, 175)" opacity="0.8361891" stroke="rgb(185, 2, 196)" stroke-opacity="1.0" stroke-linecap="round" stroke-linejoin="round" d="M 236.17759704589844 163.05300903320312 C 238.40753173828125 126.50413513183594 238.58168029785156 140.63706970214844 231.94895935058594 138.3727569580078 C 247.2288360595703 170.85446166992188 193.8837432861328 167.90359497070312 209.05642700195312 141.90423583984375 C 213.00880432128906 114.52708435058594 227.07937622070312 103.22232818603516 238.4374542236328 134.53369140625 C 235.1411590576172 158.74591064453125 232.94540405273438 176.21226501464844 236.17759704589844 163.05300903320312"/>
    <path stroke-width="0" fill="rgb(161, 136, 87)" opacity="0.6349758" stroke="rgb(20, 22, 171)" stroke-opacity="1.0" stroke-linecap="round" stroke-linejoin="round" d="M 572.9746704101562 498.6484375 C 380.3623962402344 488.8373107910156 380.39129638671875 507.90435791015625 399.85577392578125 479.6808776855469 C 385.4479064941406 493.0741882324219 398.744384765625 493.5185546875 388.52197265625 498.51873779296875 C 401.40203857421875 470.9513854980469 397.4936218261719 474.38751220703125 396.38397216796875 480.5963439941406 C 393.5061340332031 501.5403137207031 349.6334228515625 493.195068359375 572.9746704101562 498.6484375"/>
    <path stroke-width="0" fill="rgb(104, 168, 75)" opacity="0.34661397" stroke="rgb(107, 142, 219)" stroke-opacity="1.0" stroke-linecap="round" stroke-linejoin="round" d="M 472.4316101074219 160.72103881835938 C 464.7042236328125 152.3558349609375 431.2619323730469 197.3911590576172 434.1307678222656 171.27081298828125 C 451.3722229003906 166.50588989257812 437.49871826171875 161.388916015625 431.5088195800781 187.07357788085938 C 423.1755065917969 204.3145294189453 436.34906005859375 184.8853302001953 457.0324401855469 173.09869384765625 C 469.1661376953125 193.0374298095703 455.61700439453125 149.28955078125 472.4316101074219 160.72103881835938"/>
    <path stroke-width="0" fill="rgb(266, 278, 167)" opacity="0.8400179" stroke="rgb(68, 33, 14)" stroke-opacity="1.0" stroke-linecap="round" stroke-linejoin="round" d="M 227.36032104492188 86.66624450683594 C 227.3025665283203 74.78504180908203 245.5924835205078 100.63662719726562 250.46482849121094 148.9508056640625 C 254.58750915527344 163.73681640625 192.95779418945312 172.4998779296875 198.91036987304688 136.5037384033203 C 208.9886932373047 72.0518798828125 237.05230712890625 58.350868225097656 225.23167419433594 95.881591796875 C 221.4683837890625 108.048583984375 222.91696166992188 107.54411315917969 227.36032104492188 86.66624450683594"/>
    <path stroke-width="0" fill="rgb(189, 182, 64)" opacity="0.15119152" stroke="rgb(66, 116, 174)" stroke-opacity="1.0" stroke-linecap="round" stroke-linejoin="round" d="M 513.1005249023438 297.5644836425781 C 552.3458862304688 330.3031311035156 490.8088684082031 303.6708679199219 467.6686706542969 321.37994384765625 C 512.1604614257812 333.2690734863281 473.1534729003906 310.3741760253906 477.7698059082031 344.05474853515625 C 485.1914367675781 344.2897644042969 482.419921875 339.7210693359375 430.06005859375 339.4301452636719 C 508.91094970703125 365.8070983886719 508.148681640625 323.4587097167969 513.1005249023438 297.5644836425781"/>
    <path stroke-width="0" fill="rgb(88, 80, 55)" opacity="0.6904323" stroke="rgb(72, 96, 46)" stroke-opacity="1.0" stroke-linecap="round" stroke-linejoin="round" d="M 509.419677734375 304.4543151855469 C 483.5887145996094 278.8736877441406 468.2401123046875 295.6436462402344 484.31268310546875 275.5434265136719 C 472.3623046875 310.129150390625 452.3404541015625 298.97845458984375 477.3114013671875 323.03631591796875 C 472.0650634765625 330.1513671875 484.77740478515625 314.50341796875 457.1613464355469 302.2574157714844 C 462.535888671875 296.78857421875 498.7967834472656 286.9842529296875 509.419677734375 304.4543151855469"/>
    <path stroke-width="0" fill="rgb(111, 210, -33)" opacity="0.85265857" stroke="rgb(109, 130, 136)" stroke-opacity="1.0" stroke-linecap="round" stroke-linejoin="round" d="M 243.21780395507812 59.20467758178711 C 220.5581817626953 73.0746078491211 195.73880004882812 104.42736053466797 187.0720977783203 97.39569854736328 C 197.98501586914062 160.32498168945312 176.1704864501953 81.7921371459961 204.37339782714844 53.12981033325195 C 238.22547912597656 40.47697448730469 273.1382141113281 91.9869384765625 220.4609832763672 94.9603500366211 C 239.05760192871094 93.93680572509766 264.1651916503906 83.82286834716797 243.21780395507812 59.20467758178711"/>
    <path stroke-width="0" fill="rgb(76, 95, 102)" opacity="0.9870125" stroke="rgb(47, 230, 138)" stroke-opacity="1.0" stroke-linecap="round" stroke-linejoin="round" d="M 188.4516143798828 480.58905029296875 C 134.7875518798828 479.8101806640625 153.0592498779297 489.932861328125 157.16232299804688 452.5199890136719 C 206.5088348388672 451.03021240234375 198.96922302246094 452.771240234375 163.44012451171875 463.0545349121094 C 152.36196899414062 465.4236145019531 160.3009033203125 445.1605529785156 160.21133422851562 463.6416931152344 C 215.68663024902344 450.1045837402344 185.87393188476562 435.26177978515625 188.4516143798828 480.58905029296875"/>
    <path stroke-width="0" fill="rgb(261, 256, 172)" opacity="0.84408313" stroke="rgb(224, 116, 184)" stroke-opacity="1.0" stroke-linecap="round" stroke-linejoin="round" d="M 222.08026123046875 150.1771240234375 C 244.50697326660156 150.95977783203125 262.5362854003906 149.8212127685547 193.4269561767578 145.90789794921875 C 193.6440887451172 121.04736328125 229.22279357910156 30.65254020690918 233.28582763671875 108.44686126708984 C 260.8362731933594 123.16015625 233.916748046875 68.21959686279297 224.51918029785156 76.33677673339844 C 237.58633422851562 87.4820785522461 234.39862060546875 124.92019653320312 222.08026123046875 150.1771240234375"/>
    <path stroke-width="0" fill="rgb(125, 206, -29)" opacity="0.76167214" stroke="rgb(192, 162, 61)" stroke-opacity="1.0" stroke-linecap="round" stroke-linejoin="round" d="M 257.0641174316406 93.80581665039062 C 243.2996063232422 71.6959457397461 222.48609924316406 25.68090057373047 252.2687225341797 75.45391845703125 C 250.4174041748047 76.7373046875 248.0570526123047 72.69757843017578 265.2640686035156 111.48316955566406 C 283.1537170410156 217.01443481445312 268.1103210449219 132.52490234375 220.19908142089844 48.964935302734375 C 252.8351287841797 42.32518768310547 245.954833984375 80.05165100097656 257.0641174316406 93.80581665039062"/>
    <path stroke-width="0" fill="rgb(110, 209, 45)" opacity="0.75771946" stroke="rgb(203, 244, 116)" stroke-opacity="1.0" stroke-linecap="round" stroke-linejoin="round" d="M 446.08673095703125 176.53372192382812 C 480.29620361328125 139.8357696533203 460.5782775878906 167.31788635253906 438.19183349609375 177.46205139160156 C 467.157470703125 185.4257049560547 443.87017822265625 203.39382934570312 428.4770812988281 199.07208251953125 C 417.736572265625 172.8361358642578 486.802978515625 171.66964721679688 462.4427795410156 137.99658203125 C 473.25006103515625 176.52801513671875 496.8778076171875 130.39369201660156 446.08673095703125 176.53372192382812"/>
    <path stroke-width="0" fill="rgb(112, 119, 158)" opacity="0.360586" stroke="rgb(218, 116, 242)" stroke-opacity="1.0" stroke-linecap="round" stroke-linejoin="round" d="M 198.75875854492188 26.298519134521484 C 215.3052520751953 37.41331100463867 226.8291473388672 24.923675537109375 212.1483154296875 31.863109588623047 C 223.22042846679688 44.658260345458984 239.34945678710938 35.23299789428711 228.3967742919922 39.06062316894531 C 216.77098083496094 37.52069854736328 225.15736389160156 37.421268463134766 259.2241516113281 24.14203453063965 C 210.9873046875 43.2968635559082 224.95130920410156 37.153358459472656 198.75875854492188 26.298519134521484"/>
    <path stroke-width="0" fill="rgb(114, 194, 8)" opacity="0.8165406" stroke="rgb(209, 231, 207)" stroke-opacity="1.0" stroke-linecap="round" stroke-linejoin="round" d="M 252.4140167236328 88.38748931884766 C 258.4326171875 87.66581726074219 232.98098754882812 83.92774200439453 248.97433471679688 92.78876495361328 C 270.7070617675781 91.82086944580078 258.5743408203125 91.90180969238281 253.03321838378906 92.33090209960938 C 264.6795349121094 139.15438842773438 249.70843505859375 84.64588928222656 250.4147491455078 75.51103210449219 C 253.04823303222656 84.0597152709961 258.6317138671875 104.80032348632812 252.4140167236328 88.38748931884766"/>
    <path stroke-width="0" fill="rgb(126, 137, 155)" opacity="0.79021335" stroke="rgb(160, 101, 15)" stroke-opacity="1.0" stroke-linecap="round" stroke-linejoin="round" d="M 256.63824462890625 17.66385841369629 C 235.24583435058594 23.721651077270508 219.204833984375 28.863677978515625 240.5866241455078 21.463401794433594 C 270.1231994628906 14.943473815917969 239.2640838623047 13.505300521850586 270.5847473144531 38.21726989746094 C 228.76222229003906 -5.945290565490723 210.08993530273438 3.388174057006836 228.23170471191406 -4.869633674621582 C 244.393310546875 13.77121353149414 269.7741394042969 39.14498519897461 256.63824462890625 17.66385841369629"/>
    <path stroke-width="0" fill="rgb(116, 199, -15)" opacity="0.9391267" stroke="rgb(65, 216, 8)" stroke-opacity="1.0" stroke-linecap="round" stroke-linejoin="round" d="M 196.85494995117188 176.23133850097656 C 189.1270751953125 152.42176818847656 201.40704345703125 156.45858764648438 214.13088989257812 154.60989379882812 C 231.64195251464844 142.92787170410156 187.01473999023438 157.9246063232422 199.73388671875 189.38548278808594 C 184.01266479492188 123.30355072021484 197.5096435546875 125.33061218261719 209.68971252441406 74.48747253417969 C 150.05770874023438 113.56603240966797 173.44252014160156 180.23423767089844 196.85494995117188 176.23133850097656"/>
    <path stroke-width="0" fill="rgb(146, 143, 103)" opacity="0.73397624" stroke="rgb(90, 90, 4)" stroke-opacity="1.0" stroke-linecap="round" stroke-linejoin="round" d="M 230.55247497558594 498.5262451171875 C 229.2798614501953 499.1994323730469 148.052001953125 489.4533386230469 143.4710235595703 499.1885681152344 C 227.9439239501953 501.3937683105469 217.66598510742188 491.8145751953125 271.51812744140625 495.14984130859375 C 338.7073669433594 489.7494812011719 302.0259094238281 503.7027893066406 349.6150207519531 496.37841796875 C 207.7804412841797 507.1482849121094 229.44314575195312 494.30511474609375 230.55247497558594 498.5262451171875"/>
    <path stroke-width="0" fill="rgb(94, 168, 22)" opacity="0.9489736" stroke="rgb(221, 115, 83)" stroke-opacity="1.0" stroke-linecap="round" stroke-linejoin="round" d="M 243.93084716796875 165.2664337158203 C 244.9671630859375 144.05824279785156 247.45594787597656 142.11412048339844 259.2046813964844 132.79344177246094 C 259.4524230957031 177.0197296142578 258.7973937988281 175.9558563232422 258.8253173828125 149.1800994873047 C 267.8054504394531 151.1517791748047 276.0614013671875 153.25350952148438 231.797607421875 142.7543182373047 C 227.55369567871094 152.3231658935547 254.6033477783203 156.9539031982422 243.93084716796875 165.2664337158203"/>
    <path stroke-width="0" fill="rgb(155, 112, 92)" opacity="0.94966114" stroke="rgb(33, 3, 29)" stroke-opacity="1.0" stroke-linecap="round" stroke-linejoin="round" d="M 536.125 294.1974182128906 C 505.2458801269531 317.268798828125 508.6228942871094 331.8068542480469 522.5226440429688 340.21392822265625 C 523.833740234375 247.10997009277344 535.2340087890625 293.9046325683594 493.1897888183594 294.5246887207031 C 465.20465087890625 293.3131408691406 489.73321533203125 294.6739196777344 523.138427734375 296.3603820800781 C 531.095947265625 267.7210388183594 536.8461303710938 289.4244079589844 536.125 294.1974182128906"/>
    <path stroke-width="0" fill="rgb(45, 58, 97)" opacity="0.60040295" stroke="rgb(248, 252, 104)" stroke-opacity="1.0" stroke-linecap="round" stroke-linejoin="round" d="M 265.5928039550781 86.86070251464844 C 278.2514343261719 66.03157806396484 257.77001953125 85.90474700927734 275.8665771484375 77.5889892578125 C 263.7225646972656 80.43350219726562 263.7867431640625 91.18063354492188 268.7228698730469 85.58987426757812 C 281.3418884277344 125.1634521484375 280.68035888671875 118.59449005126953 271.0914001464844 98.51657104492188 C 269.62548828125 93.68453216552734 271.40252685546875 85.35657501220703 265.5928039550781 86.86070251464844"/>
    <path stroke-width="0" fill="rgb(61, 95, -8)" opacity="0.58366704" stroke="rgb(162, 125, 252)" stroke-opacity="1.0" stroke-linecap="round" stroke-linejoin="round" d="M 222.52574157714844 181.865966796875 C 236.04229736328125 187.07435607910156 196.57937622070312 161.196044921875 207.6159210205078 142.73751831054688 C 194.86207580566406 158.3837127685547 185.98646545410156 156.36990356445312 192.86630249023438 120.33946990966797 C 194.7962646484375 187.0029296875 199.78851318359375 140.2896728515625 223.17222595214844 164.00852966308594 C 185.33836364746094 124.54288482666016 184.05897521972656 169.44012451171875 222.52574157714844 181.865966796875"/>
    <path stroke-width="0" fill="rgb(72, 151, 6)" opacity="0.90442264" stroke="rgb(199, 73, 61)" stroke-opacity="1.0" stroke-linecap="round" stroke-linejoin="round" d="M 245.59474182128906 140.44236755371094 C 208.3813934326172 152.3560333251953 218.94395446777344 161.68603515625 225.80926513671875 166.13304138183594 C 245.89956665039062 177.29087829589844 198.0474090576172 197.01107788085938 224.12185668945312 190.6246337890625 C 251.76123046875 198.49050903320312 252.44998168945312 186.54530334472656 246.2958526611328 175.00857543945312 C 219.07473754882812 178.7629852294922 287.89404296875 169.9086151123047 245.59474182128906 140.44236755371094"/>
    <path stroke-width="0" fill="rgb(10, 22, 44)" opacity="0.6668059" stroke="rgb(62, 169, 131)" stroke-opacity="1.0" stroke-linecap="round" stroke-linejoin="round" d="M 168.36007690429688 163.36141967773438 C 168.04298400878906 152.22824096679688 174.399658203125 147.36534118652344 168.01022338867188 132.03533935546875 C 172.80006408691406 108.71330261230469 178.80661010742188 98.31998443603516 171.2102813720703 127.60538482666016 C 167.36233520507812 117.66757202148438 169.6875762939453 124.21207427978516 170.7891082763672 142.8750762939453 C 171.04693603515625 162.79898071289062 173.37620544433594 154.19659423828125 168.36007690429688 163.36141967773438"/>
    <path stroke-width="0" fill="rgb(61, 145, 27)" opacity="0.71918815" stroke="rgb(141, 73, 180)" stroke-opacity="1.0" stroke-linecap="round" stroke-linejoin="round" d="M 246.65126037597656 181.89060974121094 C 249.1773681640625 143.7047119140625 227.71607971191406 170.58560180664062 215.96971130371094 189.35433959960938 C 227.25291442871094 161.1517333984375 216.9779052734375 140.42080688476562 213.25146484375 154.8001708984375 C 213.38877868652344 156.91896057128906 226.79180908203125 158.343017578125 222.0181121826172 183.13876342773438 C 213.78298950195312 178.8081512451172 219.43202209472656 182.30538940429688 246.65126037597656 181.89060974121094"/>
    <path stroke-width="0" fill="rgb(268, 251, 178)" opacity="0.9667199" stroke="rgb(59, 88, 207)" stroke-opacity="1.0" stroke-linecap="round" stroke-linejoin="round" d="M 229.67001342773438 152.03712463378906 C 219.2093963623047 173.2504425048828 236.68507385253906 156.7044677734375 222.81170654296875 90.09528350830078 C 203.56707763671875 127.70520782470703 185.54376220703125 144.90701293945312 200.1758575439453 116.580810546875 C 233.94882202148438 131.64712524414062 195.49058532714844 103.33526611328125 193.07586669921875 142.9554901123047 C 225.71755981445312 172.6076202392578 235.8666534423828 170.0135955810547 229.67001342773438 152.03712463378906"/>
    <path stroke-width="0" fill="rgb(62, 124, 53)" opacity="1.0188524" stroke="rgb(247, 230, 75)" stroke-opacity="1.0" stroke-linecap="round" stroke-linejoin="round" d="M 520.4049682617188 317.5515441894531 C 530.1004638671875 343.92352294921875 502.44219970703125 348.1446228027344 548.2229614257812 345.8945617675781 C 541.9641723632812 351.6091003417969 429.4811706542969 344.2004699707031 450.3747253417969 347.8172912597656 C 460.8240966796875 292.54974365234375 461.3520202636719 301.4012451171875 464.62188720703125 303.0115051269531 C 546.33447265625 299.6050720214844 596.3611450195312 277.9032287597656 520.4049682617188 317.5515441894531"/>
    <path stroke-width="0" fill="rgb(13, 39, 64)" opacity="0.99203634" stroke="rgb(63, 27, 242)" stroke-opacity="1.0" stroke-linecap="round" stroke-linejoin="round" d="M 560.01123046875 306.22625732421875 C 521.5855712890625 315.489013671875 489.0696105957031 323.8018493652344 548.147216796875 323.106201171875 C 467.9085388183594 292.7355651855469 440.1195373535156 322.212158203125 457.96966552734375 297.173583984375 C 467.55865478515625 283.989013671875 474.8766784667969 277.58673095703125 474.3043212890625 251.72779846191406 C 515.4854125976562 249.63662719726562 555.3071899414062 238.78903198242188 560.01123046875 306.22625732421875"/>
    <path stroke-width="0" fill="rgb(105, 167, 72)" opacity="0.79238504" stroke="rgb(175, 14, 186)" stroke-opacity="1.0" stroke-linecap="round" stroke-linejoin="round" d="M 477.67724609375 135.70773315429688 C 483.2436828613281 105.5208511352539 485.62847900390625 161.1726837158203 465.4317626953125 151.27679443359375 C 475.5429382324219 133.08456420898438 453.7984924316406 170.86386108398438 476.71014404296875 131.073974609375 C 472.2078857421875 123.14112854003906 462.72821044921875 148.3734130859375 462.70587158203125 154.31121826171875 C 467.05303955078125 161.653076171875 474.6050109863281 142.80198669433594 477.67724609375 135.70773315429688"/>
    <path stroke-width="0" fill="rgb(198, 217, 126)" opacity="0.83696514" stroke="rgb(69, 96, 95)" stroke-opacity="1.0" stroke-linecap="round" stroke-linejoin="round" d="M 213.83895874023438 146.2005615234375 C 224.85902404785156 178.93527221679688 225.5693817138672 180.88775634765625 233.2249298095703 164.11231994628906 C 244.3330078125 160.3076629638672 207.28347778320312 167.0511016845703 212.71401977539062 159.40960693359375 C 217.22779846191406 154.40065002441406 222.68280029296875 148.4283447265625 237.9579315185547 171.2964324951172 C 237.5786590576172 142.5590362548828 224.0220184326172 138.07408142089844 213.83895874023438 146.2005615234375"/>
    <path stroke-width="0" fill="rgb(67, 111, 93)" opacity="0.7588094" stroke="rgb(213, 60, 128)" stroke-opacity="1.0" stroke-linecap="round" stroke-linejoin="round" d="M 500.2862854003906 162.39964294433594 C 468.50469970703125 152.61083984375 465.9063720703125 189.3426971435547 468.8343811035156 175.16302490234375 C 381.8596496582031 198.8467254638672 343.2496032714844 161.5411376953125 455.2338562011719 149.50245666503906 C 495.82666015625 158.94000244140625 475.9088439941406 148.5274658203125 397.15374755859375 -33.01125717163086 C 576.6553955078125 20.855085372924805 444.9034729003906 63.92237854003906 500.2862854003906 162.39964294433594"/>
    <path stroke-width="0" fill="rgb(94, 219, -23)" opacity="0.7531474" stroke="rgb(161, 221, 239)" stroke-opacity="1.0" stroke-linecap="round" stroke-linejoin="round" d="M 272.29058837890625 143.4357452392578 C 274.6170349121094 201.79595947265625 216.1158447265625 206.68515014648438 210.84730529785156 191.54225158691406 C 268.3613586425781 170.62989807128906 200.17791748046875 186.5723419189453 208.66465759277344 191.51136779785156 C 165.77955627441406 165.5357666015625 207.2810821533203 181.6676483154297 234.12554931640625 179.34686279296875 C 224.7905731201172 194.30169677734375 243.0081024169922 173.11480712890625 272.29058837890625 143.4357452392578"/>
    <path stroke-width="0" fill="rgb(117, 201, 59)" opacity="0.70112306" stroke="rgb(18, 74, 38)" stroke-opacity="1.0" stroke-linecap="round" stroke-linejoin="round" d="M 474.12762451171875 146.54588317871094 C 465.08404541015625 195.15499877929688 447.577392578125 176.44305419921875 467.28228759765625 199.9989776611328 C 488.45977783203125 173.2095947265625 446.1158142089844 127.2911376953125 452.04583740234375 149.78524780273438 C 418.07098388671875 162.19573974609375 419.6926574707031 114.9580078125 461.42864990234375 147.15452575683594 C 458.1851501464844 125.88385772705078 492.9267578125 123.688232421875 474.12762451171875 146.54588317871094"/>
    <path stroke-width="0" fill="rgb(96, 121, 84)" opacity="0.43936676" stroke="rgb(33, 154, 97)" stroke-opacity="1.0" stroke-linecap="round" stroke-linejoin="round" d="M 472.0942687988281 178.0192108154297 C 473.57745361328125 189.32139587402344 457.0801086425781 187.8216094970703 470.777587890625 198.39193725585938 C 443.1895751953125 206.0717315673828 443.9293518066406 199.7071533203125 461.9955749511719 199.55064392089844 C 418.3177185058594 205.4439239501953 478.6785888671875 212.37770080566406 450.0833435058594 208.07362365722656 C 462.05987548828125 213.3750762939453 463.54510498046875 187.52867126464844 472.0942687988281 178.0192108154297"/>
    <path stroke-width="0" fill="rgb(109, 217, -9)" opacity="0.768718" stroke="rgb(246, 139, 70)" stroke-opacity="1.0" stroke-linecap="round" stroke-linejoin="round" d="M 210.14108276367188 182.8907470703125 C 247.37632751464844 162.98480224609375 208.71734619140625 169.14366149902344 235.2236328125 181.54345703125 C 231.43798828125 189.86766052246094 211.4381866455078 181.01536560058594 177.75831604003906 141.78143310546875 C 175.0303192138672 214.29598999023438 257.1538391113281 173.80809020996094 228.60330200195312 184.84918212890625 C 206.1661376953125 186.76963806152344 221.9713592529297 187.99742126464844 210.14108276367188 182.8907470703125"/>
    <path stroke-width="0" fill="rgb(257, 261, 174)" opacity="1.0013309" stroke="rgb(228, 103, 140)" stroke-opacity="1.0" stroke-linecap="round" stroke-linejoin="round" d="M 256.2893371582031 149.96238708496094 C 243.11361694335938 190.97000122070312 188.2493438720703 179.2550048828125 193.49127197265625 132.34141540527344 C 207.8502655029297 149.333251953125 205.3211669921875 140.60694885253906 195.56837463378906 127.30763244628906 C 193.1326141357422 171.30128479003906 217.7659912109375 128.93946838378906 199.09445190429688 124.45802307128906 C 200.76290893554688 76.95157623291016 265.91070556640625 99.68587493896484 256.2893371582031 149.96238708496094"/>
    <path stroke-width="0" fill="rgb(81, 107, 95)" opacity="0.7005485" stroke="rgb(85, 235, 219)" stroke-opacity="1.0" stroke-linecap="round" stroke-linejoin="round" d="M 459.24639892578125 168.21414184570312 C 524.0227661132812 133.7892608642578 462.3656311035156 142.11036682128906 447.5783996582031 172.37460327148438 C 438.80316162109375 181.16806030273438 475.35577392578125 174.3855438232422 450.6718444824219 163.44131469726562 C 444.952880859375 192.60597229003906 481.4767150878906 178.95433044433594 453.9698181152344 166.7432403564453 C 521.164306640625 167.12693786621094 469.51287841796875 147.13784790039062 459.24639892578125 168.21414184570312"/>
    <path stroke-width="0" fill="rgb(116, 157, 116)" opacity="0.19299357" stroke="rgb(64, 113, 26)" stroke-opacity="1.0" stroke-linecap="round" stroke-linejoin="round" d="M 454.24298095703125 206.67103576660156 C 384.0244445800781 202.84756469726562 444.0393981933594 230.14109802246094 466.3565673828125 192.24356079101562 C 479.5063781738281 206.6875762939453 441.10333251953125 197.704833984375 428.2347717285156 202.4542236328125 C 423.01104736328125 187.28887939453125 435.1771545410156 173.87234497070312 435.7880554199219 194.3068389892578 C 435.5128479003906 209.71554565429688 457.6047668457031 178.6033477783203 454.24298095703125 206.67103576660156"/>
    <path stroke-width="0" fill="rgb(71, 172, 153)" opacity="0.5369514" stroke="rgb(0, 0, 0)" stroke-opacity="0.0" stroke-linecap="round" stroke-linejoin="round" d="M 75.6929702758789 15.933897972106934 C 77.43324279785156 23.377277374267578 76.70320892333984 25.34855842590332 75.32115173339844 21.593420028686523 C 64.60431671142578 22.436527252197266 61.09568405151367 22.840112686157227 65.453369140625 18.155033111572266 C 63.380859375 9.710654258728027 64.85208892822266 6.889106750488281 67.32368469238281 11.401256561279297 C 75.51692199707031 11.815112113952637 78.8265609741211 11.5805082321167 75.6929702758789 15.933897972106934"/>
    <path stroke-width="0" fill="rgb(82, 196, 209)" opacity="0.8820115" stroke="rgb(0, 0, 0)" stroke-opacity="0.0" stroke-linecap="round" stroke-linejoin="round" d="M 25.372732162475586 6.249516010284424 C 24.872453689575195 10.813118934631348 23.102581024169922 14.832642555236816 18.88862419128418 15.815577507019043 C 14.070603370666504 15.412400245666504 12.353198051452637 11.492369651794434 12.374201774597168 6.367433071136475 C 11.933465957641602 1.5086711645126343 13.430839538574219 -0.46862292289733887 19.365325927734375 -1.3801475763320923 C 24.003808975219727 -0.7424009442329407 25.949071884155273 2.4486753940582275 25.372732162475586 6.249516010284424"/>
    <path stroke-width="0" fill="rgb(152, 117, 215)" opacity="0.26681098" stroke="rgb(0, 0, 0)" stroke-opacity="0.0" stroke-linecap="round" stroke-linejoin="round" d="M 438.8530578613281 8.135384559631348 C 438.7666320800781 13.209232330322266 436.75115966796875 16.119068145751953 432.2278747558594 16.28125762939453 C 426.9931945800781 15.577081680297852 424.4739074707031 12.974275588989258 423.71258544921875 8.730725288391113 C 425.3525695800781 4.861699104309082 427.8330383300781 1.3079289197921753 432.3818664550781 -1.355661392211914 C 437.3077392578125 -0.5556707978248596 439.2816162109375 2.9691951274871826 438.8530578613281 8.135384559631348"/>
    <path stroke-width="0" fill="rgb(245, 152, 10)" opacity="0.18516468" stroke="rgb(0, 0, 0)" stroke-opacity="0.0" stroke-linecap="round" stroke-linejoin="round" d="M 416.591552734375 281.168701171875 C 414.76092529296875 285.138916015625 411.4611511230469 287.76849365234375 407.9534912109375 289.45452880859375 C 404.7120361328125 288.9084777832031 401.28216552734375 286.21343994140625 399.78057861328125 282.4915771484375 C 401.9691467285156 278.67816162109375 405.3959045410156 276.0273132324219 409.61431884765625 274.57293701171875 C 413.9018859863281 274.0912170410156 416.63433837890625 276.87432861328125 416.591552734375 281.168701171875"/>
    <path stroke-width="0" fill="rgb(113, 187, 205)" opacity="0.2830483" stroke="rgb(0, 0, 0)" stroke-opacity="0.0" stroke-linecap="round" stroke-linejoin="round" d="M 314.9713439941406 394.9196472167969 C 314.4178161621094 399.1650695800781 312.0404052734375 402.4183044433594 308.3653259277344 402.86273193359375 C 304.0826416015625 401.85205078125 301.4093322753906 398.906982421875 300.4936828613281 394.959228515625 C 300.9281005859375 391.0819396972656 303.5527648925781 387.84588623046875 307.2124328613281 387.2933654785156 C 312.2257080078125 388.1575012207031 314.9971008300781 390.85845947265625 314.9713439941406 394.9196472167969"/>
    <path stroke-width="0" fill="rgb(136, 187, 193)" opacity="0.8877398" stroke="rgb(0, 0, 0)" stroke-opacity="0.0" stroke-linecap="round" stroke-linejoin="round" d="M 179.57455444335938 12.569387435913086 C 178.9663848876953 16.051137924194336 175.72640991210938 18.92564582824707 171.98202514648438 19.8118953704834 C 167.92820739746094 19.376127243041992 164.94296264648438 16.54874610900879 164.91806030273438 12.762053489685059 C 166.0252685546875 9.16962718963623 168.84613037109375 6.218905448913574 172.6123504638672 5.348565101623535 C 176.94760131835938 4.895183563232422 179.47523498535156 7.55841064453125 179.57455444335938 12.569387435913086"/>
    <path stroke-width="0" fill="rgb(230, 35, 242)" opacity="0.8402057" stroke="rgb(0, 0, 0)" stroke-opacity="0.0" stroke-linecap="round" stroke-linejoin="round" d="M 293.36309814453125 219.20758056640625 C 292.2789611816406 222.67413330078125 289.2162170410156 225.74147033691406 286.9635009765625 225.99342346191406 C 283.1837463378906 224.83506774902344 280.0273132324219 222.10813903808594 278.4245300292969 218.66213989257812 C 278.9270935058594 215.1541290283203 281.6154479980469 212.24366760253906 285.5771484375 212.11184692382812 C 290.21453857421875 212.48086547851562 293.1019287109375 214.83753967285156 293.36309814453125 219.20758056640625"/>
    <path stroke-width="0" fill="rgb(185, 225, 196)" opacity="0.272728" stroke="rgb(0, 0, 0)" stroke-opacity="0.0" stroke-linecap="round" stroke-linejoin="round" d="M 258.2890930175781 367.2511901855469 C 258.7403869628906 371.9856262207031 256.01068115234375 374.89361572265625 251.2910614013672 375.6737060546875 C 247.34933471679688 374.78936767578125 244.68817138671875 371.2589111328125 244.20803833007812 367.2724609375 C 244.49354553222656 363.0927429199219 246.9866485595703 360.1492614746094 251.09164428710938 359.6311340332031 C 255.60427856445312 360.4883728027344 258.74884033203125 362.9132080078125 258.2890930175781 367.2511901855469"/>
    <path stroke-width="0" fill="rgb(56, 122, 78)" opacity="0.84091496" stroke="rgb(0, 0, 0)" stroke-opacity="0.0" stroke-linecap="round" stroke-linejoin="round" d="M 367.41534423828125 71.07772064208984 C 366.66619873046875 75.30612182617188 363.7270812988281 77.77569580078125 359.1683349609375 78.12651824951172 C 356.1818542480469 76.65122985839844 352.96099853515625 74.2161865234375 351.49114990234375 69.98908233642578 C 351.6502990722656 66.17848205566406 355.0592956542969 64.09698486328125 359.2022705078125 63.14052200317383 C 363.00390625 64.21746063232422 366.9405212402344 66.9465103149414 367.41534423828125 71.07772064208984"/>
    <path stroke-width="0" fill="rgb(206, 254, 214)" opacity="0.41252774" stroke="rgb(0, 0, 0)" stroke-opacity="0.0" stroke-linecap="round" stroke-linejoin="round" d="M 186.439208984375 434.34771728515625 C 185.4724578857422 438.7853698730469 182.74261474609375 441.5710754394531 178.26608276367188 442.3634338378906 C 174.3740692138672 441.7943420410156 171.87705993652344 438.28753662109375 170.39138793945312 435.0063781738281 C 171.69264221191406 430.68096923828125 174.59530639648438 427.7696228027344 178.7877655029297 426.4859924316406 C 183.01222229003906 426.7742919921875 185.7436981201172 430.19525146484375 186.439208984375 434.34771728515625"/>
    <path stroke-width="0" fill="rgb(87, 231, 241)" opacity="0.62246233" stroke="rgb(0, 0, 0)" stroke-opacity="0.0" stroke-linecap="round" stroke-linejoin="round" d="M 437.18560791015625 30.614686965942383 C 436.6868896484375 34.63298034667969 435.017333984375 38.56655502319336 430.657470703125 38.722476959228516 C 425.4871520996094 38.31719970703125 422.7320251464844 35.51833724975586 422.60675048828125 30.68275260925293 C 422.9203186035156 26.167491912841797 426.14556884765625 23.70903778076172 430.3540344238281 22.644744873046875 C 433.9264831542969 23.787353515625 436.72100830078125 27.238910675048828 437.18560791015625 30.614686965942383"/>
    <path stroke-width="0" fill="rgb(136, 87, 18)" opacity="0.21969125" stroke="rgb(0, 0, 0)" stroke-opacity="0.0" stroke-linecap="round" stroke-linejoin="round" d="M 29.092430114746094 263.8260192871094 C 28.919904708862305 267.8542175292969 26.261838912963867 270.8523864746094 22.456777572631836 270.77325439453125 C 17.316341400146484 270.2491149902344 14.23220157623291 268.006591796875 14.061799049377441 263.99676513671875 C 14.78836727142334 258.78033447265625 16.98159408569336 255.84194946289062 20.950368881225586 256.4396667480469 C 25.538015365600586 257.0749206542969 28.80417251586914 259.3249206542969 29.092430114746094 263.8260192871094"/>
    <path stroke-width="0" fill="rgb(186, 85, 83)" opacity="0.0044057895" stroke="rgb(0, 0, 0)" stroke-opacity="0.0" stroke-linecap="round" stroke-linejoin="round" d="M 230.416259765625 302.50604248046875 C 229.86366271972656 306.8668212890625 227.11276245117188 309.79254150390625 222.1090850830078 311.0044860839844 C 218.24343872070312 310.0424499511719 215.66717529296875 307.0614318847656 215.10548400878906 302.164794921875 C 215.52232360839844 298.6599426269531 219.18470764160156 296.087890625 223.10264587402344 294.9349670410156 C 226.59039306640625 295.9690856933594 229.842041015625 298.5812072753906 230.416259765625 302.50604248046875"/>
    <path stroke-width="0" fill="rgb(162, 197, 190)" opacity="0.84108454" stroke="rgb(0, 0, 0)" stroke-opacity="0.0" stroke-linecap="round" stroke-linejoin="round" d="M 139.36973571777344 379.3866271972656 C 138.81712341308594 383.4905090332031 136.57484436035156 386.296875 132.28636169433594 386.23602294921875 C 128.40098571777344 385.5804748535156 125.58665466308594 382.52032470703125 124.50970458984375 378.6051940917969 C 124.6721420288086 374.529541015625 127.51851654052734 371.6148681640625 131.5045166015625 371.9290466308594 C 135.4672393798828 372.6368103027344 138.39883422851562 375.5361633300781 139.36973571777344 379.3866271972656"/>
    <path stroke-width="0" fill="rgb(147, 148, 13)" opacity="0.9798836" stroke="rgb(0, 0, 0)" stroke-opacity="0.0" stroke-linecap="round" stroke-linejoin="round" d="M 72.4322509765625 19.74286651611328 C 71.38272094726562 23.670347213745117 68.70237731933594 26.669198989868164 65.46971130371094 27.2133846282959 C 61.53830337524414 26.581462860107422 58.69509506225586 23.674577713012695 57.52399444580078 19.172761917114258 C 57.170631408691406 15.332403182983398 60.648494720458984 13.265474319458008 65.83531188964844 12.561308860778809 C 69.19474029541016 12.850035667419434 71.8388900756836 16.262422561645508 72.4322509765625 19.74286651611328"/>
    <path stroke-width="0" fill="rgb(94, 51, 28)" opacity="0.7188776" stroke="rgb(0, 0, 0)" stroke-opacity="0.0" stroke-linecap="round" stroke-linejoin="round" d="M 386.9127502441406 420.5106506347656 C 385.9786376953125 424.1902160644531 382.7830810546875 426.80810546875 378.7437438964844 427.97955322265625 C 375.0726318359375 427.35791015625 372.3525695800781 424.2254943847656 371.4112243652344 420.7425537109375 C 372.61785888671875 416.63067626953125 375.2789306640625 413.6300048828125 379.1676940917969 413.2134094238281 C 382.7419738769531 413.9319763183594 385.82061767578125 416.58367919921875 386.9127502441406 420.5106506347656"/>
    <path stroke-width="0" fill="rgb(30, 226, 108)" opacity="0.2754931" stroke="rgb(0, 0, 0)" stroke-opacity="0.0" stroke-linecap="round" stroke-linejoin="round" d="M 373.4869384765625 469.12176513671875 C 372.8775634765625 473.4005432128906 370.36090087890625 476.5118103027344 365.2977600097656 476.0509338378906 C 361.07080078125 476.2580261230469 359.2395324707031 472.55255126953125 358.477294921875 469.2682800292969 C 358.8570556640625 464.481689453125 360.9628601074219 461.13470458984375 365.09075927734375 461.6183166503906 C 369.3830261230469 461.78497314453125 372.188720703125 464.7602233886719 373.4869384765625 469.12176513671875"/>
    <path stroke-width="0" fill="rgb(160, 35, 159)" opacity="0.7955324" stroke="rgb(0, 0, 0)" stroke-opacity="0.0" stroke-linecap="round" stroke-linejoin="round" d="M 6.29957914352417 0.8278485536575317 C 4.140934467315674 4.537160873413086 1.1069329977035522 7.4189558029174805 -2.852191925048828 8.599533081054688 C -5.156051158905029 9.171445846557617 -8.084254264831543 6.2432427406311035 -9.156051635742188 2.2432425022125244 C -8.084254264831543 -1.756757378578186 -5.156051158905029 -4.684960842132568 -1.0174050331115723 -5.815496444702148 C 3.7144615650177 -5.204145431518555 7.0781145095825195 -2.7088825702667236 6.29957914352417 0.8278485536575317"/>
    <path stroke-width="0" fill="rgb(96, 153, 215)" opacity="0.89566594" stroke="rgb(0, 0, 0)" stroke-opacity="0.0" stroke-linecap="round" stroke-linejoin="round" d="M 220.47471618652344 195.83087158203125 C 219.66966247558594 199.634033203125 217.4773406982422 202.6260223388672 213.6967010498047 202.70858764648438 C 209.98721313476562 202.55776977539062 206.83847045898438 200.0589599609375 205.78775024414062 195.93011474609375 C 206.51393127441406 191.82748413085938 209.8035888671875 189.75460815429688 213.3109893798828 189.54124450683594 C 217.0587921142578 189.84019470214844 219.8233184814453 192.76547241210938 220.47471618652344 195.83087158203125"/>
  </g>
</svg>
