<?xml version="1.0" ?>
<svg xmlns="http://www.w3.org/2000/svg" version="1.1" width="512" height="512">
  <defs/>
  <g>
    <path stroke-width="0" fill="rgb(43, 235, 0)" opacity="1.0102566" stroke="rgb(139, 182, 153)" stroke-opacity="1.0" stroke-linecap="round" stroke-linejoin="round" d="M 206.3164825439453 175.42828369140625 C 83.71817779541016 70.12332916259766 142.16050720214844 169.01885986328125 -10.205699920654297 311.114990234375 C -50.38013458251953 273.6077880859375 -32.125091552734375 244.37161254882812 0.8160078525543213 198.25779724121094 C 57.36418533325195 82.95391082763672 62.12978744506836 73.32791137695312 78.4290542602539 112.0244140625 C 273.6480712890625 198.0087432861328 146.72784423828125 54.447566986083984 206.3164825439453 175.42828369140625"/>
    <path stroke-width="0" fill="rgb(147, 150, 151)" opacity="0.8966686" stroke="rgb(108, 164, 111)" stroke-opacity="1.0" stroke-linecap="round" stroke-linejoin="round" d="M 144.69032287597656 -35.51123809814453 C 89.44304656982422 150.56033325195312 119.6251220703125 222.3174285888672 -4.657930850982666 262.59808349609375 C -46.547916412353516 225.74099731445312 -45.62079620361328 209.98471069335938 -47.316612243652344 66.32988739013672 C -49.11305618286133 -8.18151569366455 -55.94807434082031 -28.422311782836914 15.614151954650879 -48.40176773071289 C 199.6168670654297 -48.19676208496094 200.75816345214844 -41.44858932495117 144.69032287597656 -35.51123809814453"/>
    <path stroke-width="0" fill="rgb(185, 179, 84)" opacity="0.36597288" stroke="rgb(245, 97, 201)" stroke-opacity="1.0" stroke-linecap="round" stroke-linejoin="round" d="M 563.8391723632812 -46.56962203979492 C 586.0159912109375 497.6336975097656 588.2413940429688 535.3872680664062 531.0771484375 498.23114013671875 C -111.01045227050781 497.27215576171875 -95.25934600830078 504.03765869140625 -72.17877197265625 492.5335693359375 C 93.70271301269531 154.30950927734375 149.24000549316406 153.44052124023438 337.8743591308594 -47.3452033996582 C 391.4353942871094 -64.82481384277344 407.0115051269531 -154.88951110839844 563.8391723632812 -46.56962203979492"/>
    <path stroke-width="0" fill="rgb(35, 63, 85)" opacity="0.7846006" stroke="rgb(144, 236, 18)" stroke-opacity="1.0" stroke-linecap="round" stroke-linejoin="round" d="M 277.83245849609375 21.561241149902344 C 58.44597244262695 232.55752563476562 196.52410888671875 67.00147247314453 511.32513427734375 379.09124755859375 C 154.3432159423828 534.1537475585938 -164.7950897216797 505.7970275878906 -278.6754455566406 350.8754577636719 C 30.751033782958984 0.6296526193618774 11.619157791137695 -26.376493453979492 238.24468994140625 -44.67694854736328 C 282.23223876953125 -43.22272872924805 303.0331726074219 -43.549896240234375 277.83245849609375 21.561241149902344"/>
    <path stroke-width="0" fill="rgb(227, 113, 99)" opacity="0.9005332" stroke="rgb(5, 212, 198)" stroke-opacity="1.0" stroke-linecap="round" stroke-linejoin="round" d="M 257.9652404785156 314.86383056640625 C 284.39520263671875 285.97796630859375 274.6307678222656 292.9189453125 218.7607879638672 340.38092041015625 C 208.81878662109375 338.1003112792969 203.44940185546875 330.0090026855469 201.84849548339844 287.6219482421875 C 252.58143615722656 277.109619140625 283.5915832519531 286.135986328125 291.896240234375 290.1601867675781 C 237.96881103515625 293.13275146484375 249.40687561035156 304.6378479003906 257.9652404785156 314.86383056640625"/>
    <path stroke-width="0" fill="rgb(261, 145, 81)" opacity="0.9663119" stroke="rgb(249, 203, 117)" stroke-opacity="1.0" stroke-linecap="round" stroke-linejoin="round" d="M 338.9876708984375 470.1947021484375 C 358.8416442871094 496.8591003417969 290.8297119140625 444.0320739746094 153.47579956054688 450.9969787597656 C 111.19660949707031 441.9115295410156 128.65773010253906 466.3644104003906 107.65419006347656 340.53143310546875 C 110.4245834350586 314.7574462890625 171.12216186523438 333.03802490234375 237.23558044433594 374.6036071777344 C 244.8522186279297 283.78961181640625 327.7359924316406 252.3310089111328 338.9876708984375 470.1947021484375"/>
    <path stroke-width="0" fill="rgb(210, 91, 19)" opacity="0.9810442" stroke="rgb(30, 163, 36)" stroke-opacity="1.0" stroke-linecap="round" stroke-linejoin="round" d="M 376.66033935546875 342.5020446777344 C 355.9850158691406 461.136474609375 368.4373779296875 460.3145751953125 336.9959716796875 446.8920593261719 C 238.52699279785156 448.88104248046875 180.25367736816406 448.6051330566406 146.45851135253906 447.1160583496094 C 122.17119598388672 209.42115783691406 139.61346435546875 354.9204406738281 317.42987060546875 320.3425598144531 C 357.46856689453125 341.5326232910156 368.088623046875 316.1781311035156 376.66033935546875 342.5020446777344"/>
    <path stroke-width="0" fill="rgb(230, 118, 99)" opacity="0.9068167" stroke="rgb(133, 105, 67)" stroke-opacity="1.0" stroke-linecap="round" stroke-linejoin="round" d="M 296.997802734375 283.1882629394531 C 306.2359313964844 285.98602294921875 291.9939880371094 293.2522888183594 295.5846252441406 299.45208740234375 C 254.8929443359375 289.4755859375 254.3079376220703 289.4248046875 293.0123596191406 303.1855163574219 C 305.9015808105469 301.29217529296875 317.46063232421875 292.3818664550781 260.073486328125 291.2803039550781 C 249.96353149414062 300.6019287109375 274.1562194824219 295.94403076171875 296.997802734375 283.1882629394531"/>
    <path stroke-width="0" fill="rgb(229, 170, 128)" opacity="0.79592633" stroke="rgb(116, 144, 4)" stroke-opacity="1.0" stroke-linecap="round" stroke-linejoin="round" d="M 263.1174621582031 291.2752685546875 C 267.353759765625 333.7073669433594 260.5087890625 322.962646484375 208.7808837890625 323.8840637207031 C 94.22406005859375 349.3843688964844 146.4246826171875 291.63018798828125 159.9464874267578 310.21502685546875 C 163.24813842773438 256.71270751953125 145.1519012451172 275.3948059082031 280.2444763183594 279.81524658203125 C 234.2469482421875 291.294189453125 263.5751953125 281.3648681640625 263.1174621582031 291.2752685546875"/>
    <path stroke-width="0" fill="rgb(239, 162, 107)" opacity="0.86323655" stroke="rgb(156, 157, 240)" stroke-opacity="1.0" stroke-linecap="round" stroke-linejoin="round" d="M 321.2725830078125 372.733642578125 C 289.6281433105469 369.4142150878906 325.82342529296875 351.5342102050781 263.7474365234375 355.8726806640625 C 211.03269958496094 357.54449462890625 198.65823364257812 359.0889892578125 168.3572540283203 377.79876708984375 C 168.5701904296875 263.6966552734375 173.88426208496094 283.690185546875 372.5610656738281 268.29888916015625 C 300.91021728515625 315.7685852050781 324.2285461425781 209.05258178710938 321.2725830078125 372.733642578125"/>
    <path stroke-width="0" fill="rgb(244, 145, 102)" opacity="0.9432884" stroke="rgb(91, 111, 177)" stroke-opacity="1.0" stroke-linecap="round" stroke-linejoin="round" d="M 296.582275390625 325.384765625 C 350.8289489746094 275.140869140625 348.42633056640625 354.9551086425781 318.5858459472656 328.1950988769531 C 288.1658935546875 404.60711669921875 247.4634246826172 374.8547058105469 243.7578582763672 305.9420166015625 C 223.8907012939453 273.5111389160156 227.2576446533203 274.5601806640625 327.2151794433594 276.1927185058594 C 312.4513244628906 270.6434631347656 342.0056457519531 323.4241943359375 296.582275390625 325.384765625"/>
    <path stroke-width="0" fill="rgb(260, 143, 71)" opacity="1.0236547" stroke="rgb(170, 171, 53)" stroke-opacity="1.0" stroke-linecap="round" stroke-linejoin="round" d="M 334.68243408203125 401.63873291015625 C 331.62823486328125 421.8338623046875 334.626220703125 413.896240234375 229.99583435058594 415.55242919921875 C 82.5794906616211 420.0029296875 180.51690673828125 417.8111572265625 164.52993774414062 279.13946533203125 C 180.5323944091797 268.75677490234375 124.98066711425781 268.88018798828125 297.25701904296875 268.746337890625 C 357.9219970703125 266.78167724609375 286.2510070800781 320.23553466796875 334.68243408203125 401.63873291015625"/>
    <path stroke-width="0" fill="rgb(-1, 20, 21)" opacity="0.9544711" stroke="rgb(80, 92, 145)" stroke-opacity="1.0" stroke-linecap="round" stroke-linejoin="round" d="M 500.9480895996094 -46.93178176879883 C 594.5803833007812 317.725830078125 519.4290161132812 345.2756652832031 436.94110107421875 401.2286682128906 C 441.284423828125 385.2050476074219 469.84759521484375 391.9324951171875 454.8962707519531 323.89764404296875 C 461.00091552734375 222.68408203125 493.4799499511719 258.96661376953125 392.5299072265625 252.0666961669922 C 499.4149169921875 115.11527252197266 428.7123107910156 20.00696563720703 500.9480895996094 -46.93178176879883"/>
    <path stroke-width="0" fill="rgb(79, 82, 114)" opacity="0.8814516" stroke="rgb(252, 26, 53)" stroke-opacity="1.0" stroke-linecap="round" stroke-linejoin="round" d="M 528.4098510742188 403.5494384765625 C 510.7427978515625 461.2382507324219 500.5916748046875 455.4912414550781 477.9140930175781 442.5003967285156 C 444.9731750488281 520.4574584960938 445.5498352050781 409.03106689453125 447.7876281738281 448.7164611816406 C 416.9922790527344 443.0752258300781 430.3898620605469 413.8904113769531 441.2139587402344 352.82513427734375 C 489.2273864746094 367.69580078125 493.7762145996094 381.97369384765625 528.4098510742188 403.5494384765625"/>
    <path stroke-width="0" fill="rgb(32, 41, 81)" opacity="1.0019937" stroke="rgb(166, 64, 118)" stroke-opacity="1.0" stroke-linecap="round" stroke-linejoin="round" d="M 537.92138671875 491.16461181640625 C 561.1382446289062 491.2328796386719 538.23046875 483.0628662109375 447.9569396972656 484.5871276855469 C 409.77947998046875 480.9555969238281 379.8832092285156 489.2996826171875 395.6109619140625 473.3929748535156 C 417.9800109863281 359.31463623046875 427.8613586425781 256.7569885253906 449.0172424316406 336.67828369140625 C 465.6195068359375 450.65557861328125 524.0723266601562 397.75860595703125 537.92138671875 491.16461181640625"/>
    <path stroke-width="0" fill="rgb(266, 231, 151)" opacity="0.5672832" stroke="rgb(40, 28, 167)" stroke-opacity="1.0" stroke-linecap="round" stroke-linejoin="round" d="M 393.5271301269531 488.8910217285156 C 634.0132446289062 443.9961242675781 625.3519287109375 692.024658203125 -99.962158203125 484.65325927734375 C 426.98779296875 466.8852233886719 449.8474426269531 506.9490051269531 338.719970703125 448.3261413574219 C 337.1318359375 408.4876403808594 354.9111328125 330.24945068359375 343.68304443359375 329.4203796386719 C 407.7088317871094 338.7592468261719 368.48687744140625 299.0698547363281 393.5271301269531 488.8910217285156"/>
    <path stroke-width="0" fill="rgb(-30, 17, 39)" opacity="0.97625273" stroke="rgb(50, 94, 209)" stroke-opacity="1.0" stroke-linecap="round" stroke-linejoin="round" d="M 288.3415222167969 207.4756317138672 C 231.8794708251953 187.4881591796875 360.9753723144531 229.4480743408203 262.9612731933594 200.60916137695312 C 25.512596130371094 223.7830352783203 328.99700927734375 -145.08401489257812 177.4545135498047 160.0394744873047 C 363.0789794921875 234.90110778808594 175.8587188720703 26.105064392089844 232.07305908203125 32.537322998046875 C 327.8084411621094 109.2721939086914 311.5727233886719 174.22073364257812 288.3415222167969 207.4756317138672"/>
    <path stroke-width="0" fill="rgb(89, 208, -15)" opacity="0.98812056" stroke="rgb(213, 24, 248)" stroke-opacity="1.0" stroke-linecap="round" stroke-linejoin="round" d="M 273.88037109375 197.40444946289062 C 297.3667907714844 199.5787811279297 313.0163269042969 218.04539489746094 168.57766723632812 154.69532775878906 C 233.85813903808594 270.6019287109375 299.62908935546875 101.49254608154297 213.7757568359375 76.88074493408203 C 129.59042358398438 305.5363464355469 184.97860717773438 -26.1228084564209 248.658447265625 54.30278015136719 C 329.2494201660156 214.12164306640625 202.51309204101562 172.82827758789062 273.88037109375 197.40444946289062"/>
    <path stroke-width="0" fill="rgb(201, 99, 16)" opacity="0.9426165" stroke="rgb(249, 154, 188)" stroke-opacity="1.0" stroke-linecap="round" stroke-linejoin="round" d="M 316.24786376953125 355.4444885253906 C 336.11346435546875 473.78289794921875 369.55499267578125 223.70396423339844 316.1124267578125 387.0260925292969 C 57.394283294677734 383.52691650390625 189.95899963378906 400.0538024902344 143.6023712158203 351.71868896484375 C 213.1549072265625 363.7203063964844 293.67724609375 347.38128662109375 218.307861328125 361.552734375 C 267.50372314453125 352.0467224121094 237.71470642089844 356.2103271484375 316.24786376953125 355.4444885253906"/>
    <path stroke-width="0" fill="rgb(257, 223, 131)" opacity="0.94855326" stroke="rgb(72, 30, 75)" stroke-opacity="1.0" stroke-linecap="round" stroke-linejoin="round" d="M 549.4526977539062 396.997802734375 C 526.48046875 424.4629211425781 488.3469543457031 424.3006286621094 437.31890869140625 353.3779602050781 C 431.2869567871094 478.10162353515625 409.7115173339844 625.7908325195312 429.1864318847656 349.86737060546875 C 392.01287841796875 373.472900390625 433.3453674316406 239.6842803955078 424.54876708984375 304.3515625 C 520.5687255859375 332.9282531738281 544.020263671875 278.2157287597656 549.4526977539062 396.997802734375"/>
    <path stroke-width="0" fill="rgb(245, 128, 24)" opacity="0.52007115" stroke="rgb(81, 105, 16)" stroke-opacity="1.0" stroke-linecap="round" stroke-linejoin="round" d="M 554.0289306640625 298.6197814941406 C 485.5646667480469 388.02935791015625 446.71600341796875 417.10430908203125 429.409912109375 315.64013671875 C 443.4071350097656 507.183349609375 402.59375 595.2615356445312 441.39837646484375 355.22491455078125 C 411.7628479003906 283.194580078125 428.1309509277344 325.3489685058594 515.4881591796875 308.28826904296875 C 518.238037109375 275.54443359375 530.0408325195312 279.0945129394531 554.0289306640625 298.6197814941406"/>
    <path stroke-width="0" fill="rgb(218, 259, -5)" opacity="0.96975505" stroke="rgb(144, 67, 133)" stroke-opacity="1.0" stroke-linecap="round" stroke-linejoin="round" d="M 468.3661804199219 260.6504821777344 C 491.4180603027344 88.13842010498047 492.9580078125 187.27236938476562 421.4213562011719 139.5269775390625 C 437.42071533203125 126.79944610595703 460.3590087890625 153.591552734375 435.84722900390625 114.63536071777344 C 441.2137451171875 120.28874969482422 468.69744873046875 159.6240692138672 448.3553466796875 137.00196838378906 C 412.8357849121094 27.04388999938965 514.0555419921875 152.15570068359375 468.3661804199219 260.6504821777344"/>
    <path stroke-width="0" fill="rgb(30, 42, 79)" opacity="1.0071841" stroke="rgb(146, 236, 81)" stroke-opacity="1.0" stroke-linecap="round" stroke-linejoin="round" d="M 553.3214111328125 487.651611328125 C 553.0545654296875 506.82989501953125 547.32421875 512.4262084960938 532.697998046875 485.6578063964844 C 484.2803955078125 504.0571594238281 488.78363037109375 385.02703857421875 440.4011535644531 424.33050537109375 C 451.0285339355469 392.96490478515625 435.7421875 382.990966796875 471.1672668457031 394.6841125488281 C 514.5927734375 401.8311767578125 544.8224487304688 381.3833923339844 553.3214111328125 487.651611328125"/>
    <path stroke-width="0" fill="rgb(31, 52, 86)" opacity="0.46492773" stroke="rgb(33, 182, 73)" stroke-opacity="1.0" stroke-linecap="round" stroke-linejoin="round" d="M 598.2183837890625 3.3846793174743652 C 593.9190673828125 299.7571716308594 556.2720336914062 291.59539794921875 462.100830078125 313.691162109375 C 401.78631591796875 299.38104248046875 430.9757995605469 317.0435485839844 402.37786865234375 311.2430419921875 C 302.9853515625 415.6094970703125 295.17791748046875 84.19184112548828 220.45240783691406 -30.7939510345459 C 616.9965209960938 -80.57600402832031 610.6663208007812 -56.13962936401367 598.2183837890625 3.3846793174743652"/>
    <path stroke-width="0" fill="rgb(248, 228, 106)" opacity="0.9356844" stroke="rgb(149, 5, 211)" stroke-opacity="1.0" stroke-linecap="round" stroke-linejoin="round" d="M 456.04595947265625 373.31597900390625 C 440.8277282714844 342.99639892578125 428.1891784667969 356.0029296875 477.68304443359375 382.0454406738281 C 387.1932678222656 354.1638488769531 445.0520935058594 288.6584167480469 379.09637451171875 547.1708984375 C 420.1479797363281 242.31475830078125 415.2328186035156 322.94439697265625 495.8297424316406 308.3349914550781 C 399.6311340332031 379.24493408203125 422.4837646484375 345.7353820800781 456.04595947265625 373.31597900390625"/>
    <path stroke-width="0" fill="rgb(32, 49, 82)" opacity="0.99400663" stroke="rgb(172, 68, 187)" stroke-opacity="1.0" stroke-linecap="round" stroke-linejoin="round" d="M 384.9658508300781 159.55877685546875 C 366.61968994140625 617.1689453125 335.89825439453125 362.8862609863281 337.9000244140625 482.37921142578125 C 282.3710021972656 471.71478271484375 299.3411865234375 494.6221618652344 286.7598876953125 450.17486572265625 C 333.5960693359375 455.1810302734375 316.542724609375 437.1902160644531 330.1362609863281 482.75164794921875 C 392.6954345703125 463.1111145019531 406.6419372558594 573.4078369140625 384.9658508300781 159.55877685546875"/>
    <path stroke-width="0" fill="rgb(32, 41, 80)" opacity="1.0039641" stroke="rgb(63, 146, 150)" stroke-opacity="1.0" stroke-linecap="round" stroke-linejoin="round" d="M 509.1559143066406 421.6230163574219 C 498.81036376953125 394.3055725097656 488.70819091796875 426.28057861328125 505.355712890625 459.5339050292969 C 486.09185791015625 411.34716796875 424.8071594238281 443.71734619140625 439.5384826660156 354.9056091308594 C 439.7141418457031 357.4430847167969 430.3105163574219 353.9498596191406 505.1537780761719 354.7183837890625 C 495.5244140625 358.3684387207031 511.7010192871094 371.3731384277344 509.1559143066406 421.6230163574219"/>
    <path stroke-width="0" fill="rgb(32, 54, 82)" opacity="0.60397005" stroke="rgb(56, 242, 114)" stroke-opacity="1.0" stroke-linecap="round" stroke-linejoin="round" d="M 513.8993530273438 444.0606994628906 C 548.5046997070312 457.67095947265625 548.2293701171875 462.89361572265625 543.0465087890625 451.2874755859375 C 485.7569885253906 409.39801025390625 454.19696044921875 402.1211242675781 434.7826843261719 380.017822265625 C 436.56817626953125 349.99853515625 435.30035400390625 374.8675537109375 436.451171875 455.37353515625 C 461.41595458984375 378.5229797363281 478.6468200683594 406.6275939941406 513.8993530273438 444.0606994628906"/>
    <path stroke-width="0" fill="rgb(141, 151, 176)" opacity="0.79846996" stroke="rgb(178, 75, 207)" stroke-opacity="1.0" stroke-linecap="round" stroke-linejoin="round" d="M 146.6007843017578 64.13223266601562 C 189.2727508544922 170.7501678466797 137.08880615234375 189.08546447753906 95.11000061035156 112.03036499023438 C 78.98857879638672 102.02765655517578 74.55934143066406 95.71833801269531 71.79293060302734 80.25154876708984 C 108.42343139648438 47.48149108886719 86.55717468261719 65.75420379638672 112.57967376708984 28.251083374023438 C 137.25009155273438 48.15143585205078 153.7445068359375 61.52248764038086 146.6007843017578 64.13223266601562"/>
    <path stroke-width="0" fill="rgb(37, 61, 104)" opacity="1.0008714" stroke="rgb(224, 148, 224)" stroke-opacity="1.0" stroke-linecap="round" stroke-linejoin="round" d="M 285.80938720703125 443.1954650878906 C 271.1268005371094 459.85333251953125 282.5692138671875 464.2153015136719 283.22125244140625 480.02972412109375 C 153.59552001953125 480.6660461425781 191.80682373046875 482.2389831542969 208.08984375 451.3046569824219 C 192.2313995361328 449.21307373046875 304.13665771484375 453.3092346191406 273.48333740234375 448.8535461425781 C 281.48162841796875 450.0621337890625 273.8859558105469 459.7969665527344 285.80938720703125 443.1954650878906"/>
    <path stroke-width="0" fill="rgb(138, 139, 144)" opacity="0.9161065" stroke="rgb(184, 127, 243)" stroke-opacity="1.0" stroke-linecap="round" stroke-linejoin="round" d="M 143.87220764160156 27.497282028198242 C 140.93325805664062 37.61029815673828 133.61776733398438 44.94780349731445 123.57847595214844 47.767173767089844 C 65.97499084472656 45.15037155151367 59.25379180908203 38.06427001953125 58.60177993774414 26.25792121887207 C 83.45003509521484 -5.2823638916015625 90.46247863769531 -12.906487464904785 99.68325805664062 -15.550578117370605 C 107.06482696533203 -10.900018692016602 112.0049057006836 -1.7197154760360718 143.87220764160156 27.497282028198242"/>
    <path stroke-width="0" fill="rgb(142, 152, 156)" opacity="1.0099084" stroke="rgb(108, 154, 4)" stroke-opacity="1.0" stroke-linecap="round" stroke-linejoin="round" d="M 78.54705810546875 7.660987377166748 C 76.5401382446289 17.513830184936523 69.76757049560547 25.374351501464844 60.369110107421875 27.872835159301758 C 50.2734260559082 25.069379806518555 42.94456481933594 17.72574806213379 38.11735534667969 7.212732791900635 C 39.9921875 -3.111281394958496 48.423954010009766 -10.002543449401855 59.67192459106445 -12.08740520477295 C 69.66454315185547 -9.10363483428955 76.57144927978516 -1.5109754800796509 78.54705810546875 7.660987377166748"/>
    <path stroke-width="0" fill="rgb(113, 122, 129)" opacity="0.97646445" stroke="rgb(168, 73, 157)" stroke-opacity="1.0" stroke-linecap="round" stroke-linejoin="round" d="M 73.12203979492188 16.34089469909668 C 70.42303466796875 26.99405288696289 63.14014434814453 34.4139518737793 47.94901657104492 45.43203353881836 C 21.338130950927734 48.132057189941406 12.16074275970459 48.84315872192383 42.782508850097656 38.260536193847656 C 60.73809051513672 20.04203224182129 59.7175178527832 16.384599685668945 37.31187438964844 -20.62384033203125 C 61.948890686035156 -1.3129397630691528 69.23339080810547 6.111648082733154 73.12203979492188 16.34089469909668"/>
    <path stroke-width="0" fill="rgb(83, 101, 125)" opacity="0.59588766" stroke="rgb(34, 76, 145)" stroke-opacity="1.0" stroke-linecap="round" stroke-linejoin="round" d="M 219.66400146484375 10.38277530670166 C 162.87327575683594 84.12129974365234 132.43399047851562 78.43766784667969 115.91796112060547 106.31622314453125 C 84.53748321533203 111.38941192626953 79.51701354980469 103.9100570678711 93.6450424194336 90.76936340332031 C 93.5604248046875 45.99375915527344 101.2035140991211 39.407962799072266 118.95893096923828 -7.98745584487915 C 153.8006134033203 -35.09974670410156 204.6798095703125 -41.46194839477539 219.66400146484375 10.38277530670166"/>
    <path stroke-width="0" fill="rgb(108, 104, 100)" opacity="0.8533003" stroke="rgb(146, 166, 166)" stroke-opacity="1.0" stroke-linecap="round" stroke-linejoin="round" d="M 168.6959686279297 245.86795043945312 C 176.61436462402344 207.77012634277344 124.85150909423828 211.9117889404297 47.16605758666992 193.17579650878906 C 36.99614715576172 189.66331481933594 31.26698112487793 182.12478637695312 40.51610565185547 143.4242706298828 C 58.9291877746582 86.28399658203125 66.34931182861328 79.13863372802734 61.677001953125 97.86360168457031 C 121.24925231933594 108.75310516357422 25.142240524291992 188.70506286621094 168.6959686279297 245.86795043945312"/>
    <path stroke-width="0" fill="rgb(217, 207, 200)" opacity="0.34031978" stroke="rgb(228, 93, 111)" stroke-opacity="1.0" stroke-linecap="round" stroke-linejoin="round" d="M 221.98655700683594 39.13205337524414 C 188.46971130371094 38.19440460205078 155.29502868652344 154.14723205566406 164.94290161132812 167.21925354003906 C 48.175376892089844 146.30398559570312 103.09883880615234 60.74894332885742 84.8942642211914 16.27878761291504 C 87.00947570800781 6.376366138458252 94.39451599121094 -0.8771849870681763 108.19428253173828 -4.677323341369629 C 170.0399169921875 -16.629404067993164 185.30960083007812 -57.313106536865234 221.98655700683594 39.13205337524414"/>
    <path stroke-width="0" fill="rgb(127, 123, 142)" opacity="0.92008454" stroke="rgb(205, 179, 25)" stroke-opacity="1.0" stroke-linecap="round" stroke-linejoin="round" d="M 84.97531127929688 44.545040130615234 C 34.65059280395508 72.66222381591797 32.61406707763672 81.84688568115234 -12.123872756958008 135.94105529785156 C -23.76293182373047 138.65989685058594 -30.73976707458496 131.9322509765625 -32.74839401245117 110.35075378417969 C -18.998537063598633 32.17829132080078 -10.80941104888916 25.985952377319336 62.361175537109375 27.23727798461914 C 74.79751586914062 26.929058074951172 82.1648941040039 32.92598342895508 84.97531127929688 44.545040130615234"/>
    <path stroke-width="0" fill="rgb(123, 143, 134)" opacity="1.0306704" stroke="rgb(182, 254, 38)" stroke-opacity="1.0" stroke-linecap="round" stroke-linejoin="round" d="M 231.29893493652344 231.49838256835938 C 170.81564331054688 237.89454650878906 132.8200225830078 339.345947265625 148.374755859375 330.5064392089844 C -50.997711181640625 333.4100646972656 -18.410049438476562 294.9561462402344 -11.82225513458252 198.30101013183594 C -3.86133074760437 132.6238555908203 -2.10417103767395 118.84039306640625 49.008541107177734 109.60126495361328 C 123.39479064941406 110.26112365722656 128.54806518554688 131.85787963867188 231.29893493652344 231.49838256835938"/>
    <path stroke-width="0" fill="rgb(137, 141, 147)" opacity="0.95417845" stroke="rgb(41, 156, 31)" stroke-opacity="1.0" stroke-linecap="round" stroke-linejoin="round" d="M 67.86343383789062 67.38284301757812 C 65.1683120727539 78.09382629394531 58.08796310424805 85.62613677978516 -4.286464214324951 92.55329132080078 C -18.30956268310547 92.00404357910156 -28.15337371826172 88.30581665039062 -30.40452766418457 79.21770477294922 C -26.784635543823242 3.3494513034820557 -18.000425338745117 -3.135021209716797 -10.819520950317383 -3.0798914432525635 C 56.712554931640625 5.4151611328125 63.846988677978516 11.438831329345703 67.86343383789062 67.38284301757812"/>
    <path stroke-width="0" fill="rgb(146, 138, 149)" opacity="0.9560281" stroke="rgb(205, 145, 103)" stroke-opacity="1.0" stroke-linecap="round" stroke-linejoin="round" d="M 91.25228118896484 69.5784683227539 C 57.47041702270508 78.90538024902344 73.01539611816406 81.84122467041016 60.88434600830078 127.8462142944336 C 50.45081329345703 124.9291763305664 43.60502243041992 117.19660186767578 34.748558044433594 53.430625915527344 C 35.10516357421875 41.27184295654297 40.95845031738281 33.282535552978516 49.891990661621094 31.48673439025879 C 93.3953857421875 67.32169342041016 100.96603393554688 74.39856719970703 91.25228118896484 69.5784683227539"/>
    <path stroke-width="0" fill="rgb(135, 140, 144)" opacity="0.9280271" stroke="rgb(177, 115, 184)" stroke-opacity="1.0" stroke-linecap="round" stroke-linejoin="round" d="M 115.45623016357422 32.58161163330078 C 114.70809173583984 43.763145446777344 107.96015930175781 51.30457305908203 97.79804992675781 53.18592834472656 C 63.09307861328125 24.179813385009766 55.567169189453125 17.069610595703125 48.759708404541016 7.425719738006592 C 54.92238235473633 -1.4025132656097412 62.2755126953125 -9.055797576904297 71.9747085571289 -12.0158052444458 C 81.650634765625 -9.025019645690918 88.54639434814453 -1.2927817106246948 115.45623016357422 32.58161163330078"/>
    <path stroke-width="0" fill="rgb(131, 142, 144)" opacity="0.9038998" stroke="rgb(248, 218, 2)" stroke-opacity="1.0" stroke-linecap="round" stroke-linejoin="round" d="M 113.06851196289062 16.97238540649414 C 37.28649139404297 21.47764015197754 104.9676513671875 80.42884063720703 35.34100341796875 94.4494857788086 C 26.546730041503906 88.64155578613281 18.74493408203125 81.50531005859375 14.993712425231934 72.1042709350586 C 50.40394973754883 29.902225494384766 58.22119140625 23.656869888305664 92.22256469726562 -4.7481303215026855 C 104.1308364868164 -3.8202879428863525 110.81626892089844 4.106587886810303 113.06851196289062 16.97238540649414"/>
    <path stroke-width="0" fill="rgb(152, 150, 152)" opacity="1.0162718" stroke="rgb(186, 43, 132)" stroke-opacity="1.0" stroke-linecap="round" stroke-linejoin="round" d="M 104.53746795654297 136.92919921875 C 105.89471435546875 149.58474731445312 104.4679946899414 162.30572509765625 95.19816589355469 176.51181030273438 C 9.815333366394043 169.0221405029297 9.797381401062012 158.7669677734375 22.830352783203125 135.96676635742188 C 41.87405776977539 97.44593811035156 49.66641616821289 90.38924407958984 82.2459945678711 65.04975128173828 C 93.62946319580078 66.94651794433594 100.89012145996094 74.3836441040039 104.53746795654297 136.92919921875"/>
    <path stroke-width="0" fill="rgb(123, 140, 141)" opacity="0.87354136" stroke="rgb(50, 4, 202)" stroke-opacity="1.0" stroke-linecap="round" stroke-linejoin="round" d="M 165.07347106933594 230.1911163330078 C 322.26080322265625 174.2926025390625 651.7697143554688 285.7689208984375 140.34568786621094 268.21331787109375 C -14.313094139099121 234.5845489501953 31.3646183013916 192.03233337402344 52.77061462402344 165.92848205566406 C 97.82762908935547 112.58869934082031 95.5232162475586 113.45915985107422 72.43545532226562 96.09806823730469 C 86.48571014404297 156.00364685058594 151.96273803710938 68.21804809570312 165.07347106933594 230.1911163330078"/>
    <path stroke-width="0" fill="rgb(138, 148, 136)" opacity="0.9422296" stroke="rgb(88, 236, 179)" stroke-opacity="1.0" stroke-linecap="round" stroke-linejoin="round" d="M 130.5876922607422 28.631948471069336 C 112.93828582763672 57.63591384887695 105.84337615966797 65.17411804199219 96.25611114501953 67.93812561035156 C 87.64500427246094 64.25243377685547 86.9625015258789 52.43348693847656 63.30217742919922 25.252790451049805 C 58.6761360168457 17.299985885620117 65.46627807617188 9.447488784790039 74.55049896240234 4.928490161895752 C 129.80215454101562 6.560379505157471 136.2566680908203 14.372696876525879 130.5876922607422 28.631948471069336"/>
    <path stroke-width="0" fill="rgb(164, 143, 163)" opacity="0.85281783" stroke="rgb(41, 158, 147)" stroke-opacity="1.0" stroke-linecap="round" stroke-linejoin="round" d="M 115.44965362548828 85.7077407836914 C 87.32908630371094 189.38919067382812 165.77505493164062 171.18325805664062 116.94345092773438 121.18668365478516 C 64.80968475341797 149.22128295898438 58.17340850830078 138.04884338378906 55.172218322753906 127.36968231201172 C 69.7209243774414 85.43717193603516 86.37320709228516 85.10062408447266 126.22417449951172 61.00484848022461 C 136.8433837890625 60.56963348388672 146.77259826660156 66.02710723876953 115.44965362548828 85.7077407836914"/>
    <path stroke-width="0" fill="rgb(133, 143, 140)" opacity="0.9969081" stroke="rgb(238, 156, 136)" stroke-opacity="1.0" stroke-linecap="round" stroke-linejoin="round" d="M 94.431884765625 34.08469009399414 C 57.85179138183594 58.6278076171875 66.46072387695312 63.53282165527344 76.86927032470703 76.11274719238281 C 14.908012390136719 72.42860412597656 26.75349235534668 64.41854095458984 -0.5521907806396484 2.459529161453247 C 0.6167176961898804 -8.219541549682617 7.70470666885376 -15.566514015197754 20.164316177368164 -17.972251892089844 C 60.73762512207031 13.257076263427734 58.787017822265625 12.271821975708008 94.431884765625 34.08469009399414"/>
    <path stroke-width="0" fill="rgb(133, 142, 141)" opacity="0.8906844" stroke="rgb(186, 79, 101)" stroke-opacity="1.0" stroke-linecap="round" stroke-linejoin="round" d="M 70.56561279296875 4.7918620109558105 C 66.78591918945312 12.584081649780273 48.699729919433594 7.764258861541748 12.057180404663086 51.42835235595703 C 1.012676477432251 49.44140625 -7.971554756164551 43.709712982177734 -31.855327606201172 10.469769477844238 C -11.457196235656738 -50.801475524902344 3.0080111026763916 -43.40044403076172 33.15816879272461 -33.321537017822266 C 54.560726165771484 -17.773406982421875 62.275733947753906 -10.915200233459473 70.56561279296875 4.7918620109558105"/>
    <path stroke-width="0" fill="rgb(149, 159, 161)" opacity="0.8058046" stroke="rgb(47, 240, 188)" stroke-opacity="1.0" stroke-linecap="round" stroke-linejoin="round" d="M 147.8227081298828 42.00700378417969 C 174.38731384277344 119.66017150878906 168.89805603027344 63.720767974853516 134.54151916503906 87.63601684570312 C 104.19995880126953 60.01325607299805 98.09832000732422 53.03963088989258 69.58853912353516 30.08982276916504 C 68.3811264038086 14.621899604797363 74.28136444091797 6.2251129150390625 87.80130004882812 5.639163494110107 C 140.60687255859375 8.424539566040039 154.82884216308594 12.558037757873535 147.8227081298828 42.00700378417969"/>
    <path stroke-width="0" fill="rgb(132, 140, 143)" opacity="0.98248726" stroke="rgb(57, 64, 14)" stroke-opacity="1.0" stroke-linecap="round" stroke-linejoin="round" d="M 116.61283874511719 165.47396850585938 C 110.30764770507812 176.69888305664062 103.66573333740234 184.20506286621094 43.41744613647461 184.23963928222656 C -21.640134811401367 176.62733459472656 -32.96709060668945 173.74771118164062 -36.75232696533203 137.0460968017578 C -11.11174488067627 70.4487533569336 1.06845223903656 65.85738372802734 17.30115509033203 63.99483108520508 C 37.07182693481445 128.2322540283203 70.27388000488281 87.93338012695312 116.61283874511719 165.47396850585938"/>
    <path stroke-width="0" fill="rgb(174, 172, 178)" opacity="0.58944464" stroke="rgb(79, 177, 96)" stroke-opacity="1.0" stroke-linecap="round" stroke-linejoin="round" d="M 163.94232177734375 55.27939224243164 C 117.70088195800781 79.8064193725586 127.68731689453125 97.58491516113281 113.84467315673828 108.8046875 C 78.71226501464844 98.54810333251953 86.1477279663086 79.69931030273438 85.82252502441406 72.55743408203125 C 84.02772521972656 44.603694915771484 86.07389068603516 74.70285034179688 83.85489654541016 54.44835662841797 C 100.9055404663086 50.20760726928711 61.30534744262695 38.196083068847656 163.94232177734375 55.27939224243164"/>
    <path stroke-width="0" fill="rgb(136, 144, 147)" opacity="0.89278704" stroke="rgb(6, 17, 173)" stroke-opacity="1.0" stroke-linecap="round" stroke-linejoin="round" d="M 152.77984619140625 30.093236923217773 C 85.5060806274414 6.949666500091553 87.74745178222656 12.28408432006836 70.17593383789062 44.88140106201172 C 60.05802536010742 38.106910705566406 55.3013801574707 31.755035400390625 64.94746398925781 11.990707397460938 C 73.70729064941406 -11.056473731994629 80.76919555664062 -18.38520622253418 104.11324310302734 -37.866432189941406 C 90.4377212524414 -1.06511652469635 114.61685180664062 -10.936100006103516 152.77984619140625 30.093236923217773"/>
    <path stroke-width="0" fill="rgb(128, 141, 142)" opacity="0.8438394" stroke="rgb(136, 228, 252)" stroke-opacity="1.0" stroke-linecap="round" stroke-linejoin="round" d="M 67.03131103515625 156.55398559570312 C 63.025177001953125 228.53903198242188 59.13568878173828 238.14251708984375 26.084819793701172 257.14678955078125 C -64.5738525390625 246.38824462890625 -65.4209213256836 235.0869598388672 -46.54545593261719 190.447265625 C -51.45711898803711 127.693359375 -45.941383361816406 118.31744384765625 -1.0157908201217651 95.33812713623047 C 63.64503479003906 102.57563781738281 69.7059326171875 109.35106658935547 67.03131103515625 156.55398559570312"/>
    <path stroke-width="0" fill="rgb(91, 130, 98)" opacity="0.76961595" stroke="rgb(169, 67, 5)" stroke-opacity="1.0" stroke-linecap="round" stroke-linejoin="round" d="M 933.130126953125 229.71434020996094 C 529.5382690429688 317.9125671386719 418.884521484375 162.20785522460938 395.3084716796875 350.26287841796875 C 227.03573608398438 244.76675415039062 399.9419860839844 124.2144546508789 477.259033203125 158.6842498779297 C 487.7965087890625 -17.498558044433594 355.3880615234375 396.58538818359375 369.7501220703125 0.6445740461349487 C 572.606689453125 -65.40895080566406 602.8026123046875 -29.207740783691406 933.130126953125 229.71434020996094"/>
    <path stroke-width="0" fill="rgb(131, 142, 136)" opacity="0.95467657" stroke="rgb(81, 97, 150)" stroke-opacity="1.0" stroke-linecap="round" stroke-linejoin="round" d="M 164.9219207763672 19.30893325805664 C 188.8603973388672 34.080894470214844 172.0681610107422 38.95166778564453 116.56212615966797 43.52210998535156 C 104.13655090332031 39.634586334228516 95.66900634765625 32.2252082824707 91.85580444335938 20.69901466369629 C 116.59563446044922 -12.118446350097656 123.99217224121094 -19.414051055908203 151.873291015625 -32.473655700683594 C 160.567626953125 -30.636518478393555 145.9975128173828 -4.814796447753906 164.9219207763672 19.30893325805664"/>
    <path stroke-width="0" fill="rgb(125, 141, 143)" opacity="0.9553942" stroke="rgb(160, 222, 69)" stroke-opacity="1.0" stroke-linecap="round" stroke-linejoin="round" d="M 222.60304260253906 -74.9114761352539 C 136.35511779785156 193.87281799316406 161.15887451171875 163.7879638671875 228.28207397460938 217.2561492919922 C -26.278017044067383 230.32012939453125 42.29451370239258 145.35879516601562 20.49850082397461 144.09564208984375 C 109.03610229492188 94.5902099609375 79.09571075439453 66.79358673095703 161.01455688476562 2.9645838737487793 C 243.10606384277344 62.36634826660156 378.0210266113281 82.85102844238281 222.60304260253906 -74.9114761352539"/>
    <path stroke-width="0" fill="rgb(131, 142, 142)" opacity="1.0020989" stroke="rgb(47, 242, 175)" stroke-opacity="1.0" stroke-linecap="round" stroke-linejoin="round" d="M 97.26365661621094 56.2691764831543 C 90.43920135498047 117.75965881347656 82.65000915527344 127.88494873046875 40.08087158203125 122.09825897216797 C 20.762033462524414 118.49171447753906 19.014209747314453 107.68769073486328 32.04240798950195 62.934349060058594 C 0.5254908204078674 45.418495178222656 13.688024520874023 51.31939697265625 75.94599151611328 30.6477108001709 C 89.02029418945312 35.37762451171875 95.14604187011719 43.75177764892578 97.26365661621094 56.2691764831543"/>
    <path stroke-width="0" fill="rgb(129, 142, 141)" opacity="0.98634434" stroke="rgb(241, 186, 64)" stroke-opacity="1.0" stroke-linecap="round" stroke-linejoin="round" d="M 116.04156494140625 48.06007385253906 C 119.0100326538086 75.39034271240234 105.75653839111328 75.699951171875 69.95171356201172 100.70621490478516 C 58.49250030517578 100.6370849609375 51.857810974121094 93.27056884765625 50.57975769042969 84.01359558105469 C 104.10615539550781 74.73239135742188 89.8719711303711 60.47106170654297 76.20436096191406 28.054452896118164 C 100.69998168945312 44.749855041503906 111.66954803466797 49.505680084228516 116.04156494140625 48.06007385253906"/>
    <path stroke-width="0" fill="rgb(82, 91, 144)" opacity="0.5601706" stroke="rgb(132, 6, 52)" stroke-opacity="1.0" stroke-linecap="round" stroke-linejoin="round" d="M 230.43846130371094 14.858724594116211 C 403.73516845703125 223.30715942382812 261.9738464355469 264.2942199707031 203.3332061767578 195.4553680419922 C 213.5984649658203 234.5536346435547 315.55877685546875 204.62364196777344 267.65447998046875 209.35337829589844 C 300.2395324707031 209.14108276367188 280.932861328125 197.80650329589844 173.07298278808594 209.34274291992188 C 269.4404296875 204.2912139892578 329.7430114746094 178.27059936523438 230.43846130371094 14.858724594116211"/>
    <path stroke-width="0" fill="rgb(115, 133, 120)" opacity="0.5877339" stroke="rgb(95, 118, 70)" stroke-opacity="1.0" stroke-linecap="round" stroke-linejoin="round" d="M 111.52154541015625 277.36566162109375 C 102.80491638183594 461.3768005371094 149.2305145263672 411.01715087890625 0.8759787082672119 443.24908447265625 C -36.22114181518555 337.122314453125 -36.58377456665039 324.3836669921875 -35.94852066040039 275.1544494628906 C -41.400962829589844 197.63021850585938 -41.09809494018555 183.4933319091797 -10.91722297668457 181.38279724121094 C 94.77397918701172 190.6351776123047 101.17222595214844 199.7514190673828 111.52154541015625 277.36566162109375"/>
    <path stroke-width="0" fill="rgb(162, 152, 58)" opacity="0.79543203" stroke="rgb(220, 29, 131)" stroke-opacity="1.0" stroke-linecap="round" stroke-linejoin="round" d="M 522.6812744140625 336.6890869140625 C 470.57513427734375 354.02545166015625 476.7996520996094 312.6600646972656 464.5862731933594 316.3126525878906 C 463.2364196777344 344.4137878417969 459.3149719238281 364.19207763671875 465.83587646484375 306.21563720703125 C 459.193603515625 304.8349609375 470.5782165527344 333.40081787109375 562.7493286132812 319.53082275390625 C 515.86572265625 302.6404113769531 489.4151916503906 314.3601379394531 522.6812744140625 336.6890869140625"/>
    <path stroke-width="0" fill="rgb(239, 109, 67)" opacity="0.4805945" stroke="rgb(140, 149, 245)" stroke-opacity="1.0" stroke-linecap="round" stroke-linejoin="round" d="M 573.2008666992188 351.7732849121094 C 581.9725952148438 363.5858154296875 555.8963623046875 358.5570068359375 440.26519775390625 345.77911376953125 C 470.7928161621094 328.1893005371094 481.5110778808594 320.6064758300781 509.7820739746094 298.89923095703125 C 533.5850830078125 285.1531677246094 511.8397216796875 311.1183776855469 520.8947143554688 305.3011169433594 C 525.5113525390625 291.9359130859375 521.249755859375 311.6423645019531 573.2008666992188 351.7732849121094"/>
    <path stroke-width="0" fill="rgb(92, 125, 97)" opacity="0.7434239" stroke="rgb(170, 200, 71)" stroke-opacity="1.0" stroke-linecap="round" stroke-linejoin="round" d="M 442.4519958496094 184.04302978515625 C 437.15643310546875 185.80970764160156 428.22161865234375 194.7344512939453 442.58331298828125 186.17552185058594 C 441.95050048828125 208.26934814453125 463.6664733886719 206.1885223388672 431.88250732421875 198.36776733398438 C 457.0076904296875 180.39785766601562 464.0043640136719 159.70053100585938 467.9788513183594 204.55430603027344 C 429.2032165527344 177.07040405273438 442.6974182128906 200.49632263183594 442.4519958496094 184.04302978515625"/>
    <path stroke-width="0" fill="rgb(139, 202, 60)" opacity="0.9145973" stroke="rgb(16, 123, 249)" stroke-opacity="1.0" stroke-linecap="round" stroke-linejoin="round" d="M 462.5353088378906 159.17555236816406 C 494.8993835449219 169.21238708496094 501.4777526855469 155.4637451171875 470.481689453125 203.78195190429688 C 475.1445617675781 155.62139892578125 478.9337158203125 135.8726043701172 479.986328125 115.68595886230469 C 461.1527404785156 191.6819305419922 473.2110900878906 159.9649200439453 478.1999206542969 153.56907653808594 C 470.6331787109375 160.7918701171875 480.2521667480469 179.94424438476562 462.5353088378906 159.17555236816406"/>
    <path stroke-width="0" fill="rgb(135, 198, 47)" opacity="0.9613742" stroke="rgb(86, 245, 59)" stroke-opacity="1.0" stroke-linecap="round" stroke-linejoin="round" d="M 470.9117126464844 121.16970825195312 C 442.4917297363281 61.79022216796875 422.0566711425781 131.3815460205078 460.25494384765625 135.1803436279297 C 498.9433898925781 155.49610900878906 470.1957702636719 165.39144897460938 470.4909362792969 146.6034393310547 C 484.5766296386719 120.42195892333984 480.6978454589844 131.05865478515625 464.3376770019531 137.22096252441406 C 452.0470886230469 147.63548278808594 460.0032958984375 160.06500244140625 470.9117126464844 121.16970825195312"/>
    <path stroke-width="0" fill="rgb(251, 179, 100)" opacity="0.9700096" stroke="rgb(240, 203, 160)" stroke-opacity="1.0" stroke-linecap="round" stroke-linejoin="round" d="M 449.9532470703125 348.8349914550781 C 422.2980651855469 342.2779235839844 408.08587646484375 349.1016845703125 433.9173583984375 341.71533203125 C 424.04888916015625 351.02520751953125 423.0007019042969 344.64892578125 414.7406311035156 361.3064880371094 C 407.471923828125 428.5049133300781 415.33563232421875 374.1672668457031 418.0317687988281 348.27716064453125 C 380.9175109863281 328.7000732421875 363.9422302246094 374.50225830078125 449.9532470703125 348.8349914550781"/>
    <path stroke-width="0" fill="rgb(119, 188, 53)" opacity="0.8370587" stroke="rgb(74, 216, 157)" stroke-opacity="1.0" stroke-linecap="round" stroke-linejoin="round" d="M 460.1032409667969 127.8337631225586 C 457.4399719238281 155.62548828125 458.7629699707031 170.13340759277344 465.333251953125 165.55377197265625 C 476.68890380859375 171.38014221191406 472.4132995605469 146.00120544433594 455.47552490234375 195.00515747070312 C 466.6913757324219 134.19931030273438 482.6534729003906 125.24365997314453 460.03253173828125 135.37237548828125 C 456.0992736816406 151.29550170898438 438.4251403808594 167.68382263183594 460.1032409667969 127.8337631225586"/>
    <path stroke-width="0" fill="rgb(33, 49, 77)" opacity="0.76514757" stroke="rgb(88, 37, 250)" stroke-opacity="1.0" stroke-linecap="round" stroke-linejoin="round" d="M 383.36297607421875 414.7955322265625 C 381.800537109375 356.2886047363281 377.1025390625 370.3999328613281 397.5809631347656 369.64794921875 C 353.8541259765625 393.2981872558594 403.19732666015625 454.7649841308594 397.5093688964844 414.57769775390625 C 423.4256286621094 298.3126525878906 377.48394775390625 397.9682922363281 386.7096252441406 364.902587890625 C 357.29705810546875 399.9596252441406 372.1853942871094 421.3705139160156 383.36297607421875 414.7955322265625"/>
    <path stroke-width="0" fill="rgb(146, 100, 102)" opacity="0.75358725" stroke="rgb(126, 163, 93)" stroke-opacity="1.0" stroke-linecap="round" stroke-linejoin="round" d="M 562.4594116210938 297.4453125 C 503.48260498046875 338.0379638671875 496.94610595703125 343.2876892089844 574.4067993164062 309.5257873535156 C 482.5626525878906 332.68731689453125 448.76336669921875 303.7668151855469 495.18670654296875 311.8160095214844 C 526.0916748046875 331.48577880859375 527.419677734375 330.8326110839844 488.7962646484375 289.8683776855469 C 475.5185852050781 275.7681884765625 516.73486328125 273.6515808105469 562.4594116210938 297.4453125"/>
    <path stroke-width="0" fill="rgb(106, 113, 113)" opacity="0.49267903" stroke="rgb(209, 48, 130)" stroke-opacity="1.0" stroke-linecap="round" stroke-linejoin="round" d="M 478.4264831542969 158.78733825683594 C 483.600830078125 149.99591064453125 470.93017578125 135.14537048339844 428.08489990234375 179.11746215820312 C 447.318603515625 158.3365020751953 446.2091979980469 134.2270965576172 439.16998291015625 171.76792907714844 C 459.3550109863281 174.47911071777344 454.41009521484375 125.87032318115234 478.63812255859375 123.63664245605469 C 429.7030029296875 148.1389923095703 418.572021484375 180.30105590820312 478.4264831542969 158.78733825683594"/>
    <path stroke-width="0" fill="rgb(108, 130, 92)" opacity="0.58189726" stroke="rgb(24, 219, 248)" stroke-opacity="1.0" stroke-linecap="round" stroke-linejoin="round" d="M 443.99359130859375 187.88319396972656 C 459.4107971191406 193.8257598876953 419.2138366699219 198.7337188720703 448.1100158691406 223.18112182617188 C 432.0553894042969 186.64710998535156 441.0200500488281 177.00384521484375 450.0939636230469 193.4911651611328 C 425.2702941894531 196.59463500976562 444.3215026855469 197.3628692626953 442.79888916015625 185.3748779296875 C 405.0197448730469 198.90975952148438 453.88970947265625 214.7085418701172 443.99359130859375 187.88319396972656"/>
    <path stroke-width="0" fill="rgb(251, 220, 136)" opacity="0.98046887" stroke="rgb(231, 197, 84)" stroke-opacity="1.0" stroke-linecap="round" stroke-linejoin="round" d="M 154.97340393066406 515.7027587890625 C 145.6233673095703 511.01593017578125 174.04440307617188 508.1111145019531 143.89109802246094 498.876708984375 C 130.8758087158203 492.8801574707031 163.19886779785156 474.42364501953125 163.8030548095703 477.7996826171875 C 126.50284576416016 492.98651123046875 141.94676208496094 504.96087646484375 144.3204803466797 449.80914306640625 C 170.4147186279297 449.6607666015625 145.69407653808594 443.0055847167969 154.97340393066406 515.7027587890625"/>
    <path stroke-width="0" fill="rgb(78, 106, 89)" opacity="0.94563276" stroke="rgb(103, 59, 33)" stroke-opacity="1.0" stroke-linecap="round" stroke-linejoin="round" d="M 523.0300903320312 192.82125854492188 C 487.1726989746094 123.34171295166016 484.1939392089844 131.48426818847656 479.6513366699219 92.31483459472656 C 469.36297607421875 127.58517456054688 430.1903381347656 117.56355285644531 470.8772277832031 195.90940856933594 C 475.7861328125 159.23487854003906 470.5669860839844 150.8839569091797 513.822998046875 130.3499755859375 C 449.78271484375 155.00579833984375 515.002197265625 142.6334991455078 523.0300903320312 192.82125854492188"/>
    <path stroke-width="0" fill="rgb(250, 221, 184)" opacity="0.8370392" stroke="rgb(185, 2, 196)" stroke-opacity="1.0" stroke-linecap="round" stroke-linejoin="round" d="M 236.1038360595703 163.0333709716797 C 238.26470947265625 126.48766326904297 238.5236053466797 140.63818359375 231.77365112304688 138.42373657226562 C 247.17042541503906 170.85292053222656 193.9127655029297 167.88417053222656 209.10586547851562 141.8794403076172 C 213.0139617919922 114.52336883544922 227.11141967773438 103.20255279541016 238.4095001220703 134.4766845703125 C 235.108642578125 158.7417755126953 232.93394470214844 176.21144104003906 236.1038360595703 163.0333709716797"/>
    <path stroke-width="0" fill="rgb(136, 114, 78)" opacity="0.7482565" stroke="rgb(20, 22, 171)" stroke-opacity="1.0" stroke-linecap="round" stroke-linejoin="round" d="M 572.1910400390625 499.6814880371094 C 380.05255126953125 488.112060546875 380.1020202636719 507.77783203125 400.1128234863281 479.2671813964844 C 385.1004943847656 493.2727966308594 398.6767578125 495.0824279785156 388.3836364746094 499.6552734375 C 401.3865661621094 470.7401123046875 396.378173828125 473.4111633300781 396.3252258300781 481.2503662109375 C 393.9707336425781 503.0052490234375 348.8894348144531 495.2702331542969 572.1910400390625 499.6814880371094"/>
    <path stroke-width="0" fill="rgb(116, 176, 79)" opacity="0.3834711" stroke="rgb(107, 142, 219)" stroke-opacity="1.0" stroke-linecap="round" stroke-linejoin="round" d="M 473.29278564453125 162.59446716308594 C 465.3001403808594 153.19320678710938 431.30584716796875 197.36827087402344 433.6731872558594 170.7938995361328 C 452.535888671875 166.23179626464844 439.6162414550781 162.7816162109375 433.0936279296875 188.8731231689453 C 424.44287109375 205.60745239257812 437.7756042480469 186.28829956054688 458.026123046875 173.04141235351562 C 469.74615478515625 192.73208618164062 456.099365234375 149.36647033691406 473.29278564453125 162.59446716308594"/>
    <path stroke-width="0" fill="rgb(262, 269, 169)" opacity="0.80986285" stroke="rgb(68, 33, 14)" stroke-opacity="1.0" stroke-linecap="round" stroke-linejoin="round" d="M 227.63577270507812 86.28587341308594 C 226.9324951171875 74.67015075683594 245.13238525390625 100.96965026855469 249.93626403808594 149.406494140625 C 254.6376953125 164.05035400390625 193.4456024169922 172.71728515625 198.4552459716797 137.3687286376953 C 209.11337280273438 73.81402587890625 236.37167358398438 60.089378356933594 224.50704956054688 97.22315979003906 C 220.6438446044922 107.33976745605469 222.6387176513672 107.23096466064453 227.63577270507812 86.28587341308594"/>
    <path stroke-width="0" fill="rgb(193, 165, 55)" opacity="0.1975729" stroke="rgb(66, 116, 174)" stroke-opacity="1.0" stroke-linecap="round" stroke-linejoin="round" d="M 512.8848876953125 297.657470703125 C 552.3458862304688 330.3031311035156 490.8088684082031 303.6708679199219 467.6686706542969 321.37994384765625 C 512.1604614257812 333.2690734863281 473.1534729003906 310.3741760253906 477.74224853515625 344.4801330566406 C 484.8824462890625 345.1236267089844 481.79840087890625 340.2683410644531 428.0250244140625 339.8066101074219 C 507.9465026855469 366.7070007324219 507.6399230957031 323.8527526855469 512.8848876953125 297.657470703125"/>
    <path stroke-width="0" fill="rgb(93, 86, 62)" opacity="0.73215157" stroke="rgb(72, 96, 46)" stroke-opacity="1.0" stroke-linecap="round" stroke-linejoin="round" d="M 508.5868225097656 305.6863098144531 C 482.2822570800781 280.3310546875 466.7789306640625 296.5636901855469 484.64544677734375 275.6903991699219 C 472.6060791015625 310.3135070800781 452.43096923828125 299.0503845214844 477.3333435058594 323.0559387207031 C 472.065185546875 330.1506042480469 484.8065490722656 314.4455261230469 457.7198181152344 301.8539733886719 C 462.62744140625 296.7492980957031 498.7486572265625 287.0112609863281 508.5868225097656 305.6863098144531"/>
    <path stroke-width="0" fill="rgb(104, 210, -17)" opacity="0.8376511" stroke="rgb(109, 130, 136)" stroke-opacity="1.0" stroke-linecap="round" stroke-linejoin="round" d="M 241.44325256347656 58.8227424621582 C 220.34432983398438 72.78517150878906 195.6951904296875 104.39997863769531 186.84445190429688 98.2080307006836 C 200.334716796875 161.75767517089844 177.19305419921875 81.38063049316406 204.27249145507812 54.71445083618164 C 238.2633056640625 41.47800064086914 272.6006164550781 91.81897735595703 220.35243225097656 95.7428970336914 C 239.04983520507812 93.96348571777344 263.1430969238281 84.920654296875 241.44325256347656 58.8227424621582"/>
    <path stroke-width="0" fill="rgb(248, 227, 147)" opacity="0.97161067" stroke="rgb(70, 32, 100)" stroke-opacity="1.0" stroke-linecap="round" stroke-linejoin="round" d="M 187.5849151611328 479.5649719238281 C 190.7609405517578 442.0915222167969 184.5875244140625 469.7548828125 176.050537109375 476.41387939453125 C 172.556884765625 460.73822021484375 187.8903045654297 442.4937438964844 192.34817504882812 494.9928894042969 C 202.0963897705078 481.80126953125 195.9219970703125 469.9462585449219 204.27981567382812 451.5514221191406 C 188.2322998046875 435.7574462890625 190.9221954345703 489.5562744140625 187.5849151611328 479.5649719238281"/>
    <path stroke-width="0" fill="rgb(82, 90, 104)" opacity="0.9817617" stroke="rgb(47, 230, 138)" stroke-opacity="1.0" stroke-linecap="round" stroke-linejoin="round" d="M 190.15432739257812 480.3423767089844 C 134.5597686767578 478.9344482421875 152.6952362060547 489.4453125 156.9862060546875 451.92120361328125 C 205.52500915527344 451.75347900390625 197.93763732910156 452.0552062988281 163.0281982421875 462.8662414550781 C 152.17738342285156 465.8927307128906 160.8374786376953 446.457763671875 160.3712158203125 464.0072021484375 C 216.52410888671875 450.86444091796875 187.1492462158203 435.7957458496094 190.15432739257812 480.3423767089844"/>
    <path stroke-width="0" fill="rgb(261, 256, 177)" opacity="0.8244164" stroke="rgb(224, 116, 184)" stroke-opacity="1.0" stroke-linecap="round" stroke-linejoin="round" d="M 222.88563537597656 149.9976806640625 C 244.48052978515625 150.81512451171875 262.6238708496094 148.84933471679688 192.64703369140625 144.38824462890625 C 191.63522338867188 119.44404602050781 227.74960327148438 29.955318450927734 233.0709991455078 108.77193450927734 C 260.7835693359375 123.29936218261719 233.84210205078125 68.58193969726562 223.96481323242188 77.77486419677734 C 237.36837768554688 87.62631225585938 234.74095153808594 125.08061218261719 222.88563537597656 149.9976806640625"/>
    <path stroke-width="0" fill="rgb(119, 215, -18)" opacity="0.7408869" stroke="rgb(192, 162, 61)" stroke-opacity="1.0" stroke-linecap="round" stroke-linejoin="round" d="M 257.60198974609375 93.36659240722656 C 244.08706665039062 71.31781768798828 222.91297912597656 26.41175079345703 251.0098876953125 77.3587875366211 C 250.1647186279297 76.83779907226562 247.63783264160156 73.08940887451172 264.31744384765625 112.44715118408203 C 282.9749755859375 217.76524353027344 267.3869934082031 133.30419921875 220.0809783935547 49.84230422973633 C 252.51658630371094 44.125267028808594 245.7581024169922 80.75312805175781 257.60198974609375 93.36659240722656"/>
    <path stroke-width="0" fill="rgb(131, 213, 35)" opacity="0.78969866" stroke="rgb(203, 244, 116)" stroke-opacity="1.0" stroke-linecap="round" stroke-linejoin="round" d="M 445.1106262207031 175.52828979492188 C 480.1675109863281 139.5687713623047 461.1563720703125 167.78567504882812 439.03985595703125 177.39312744140625 C 468.2874755859375 185.39349365234375 444.33502197265625 204.77989196777344 429.087158203125 199.82205200195312 C 417.9381103515625 173.24806213378906 487.6435546875 172.21563720703125 463.4582214355469 137.58938598632812 C 471.8566589355469 175.65875244140625 496.34210205078125 129.8162384033203 445.1106262207031 175.52828979492188"/>
    <path stroke-width="0" fill="rgb(104, 108, 155)" opacity="0.4037967" stroke="rgb(218, 116, 242)" stroke-opacity="1.0" stroke-linecap="round" stroke-linejoin="round" d="M 197.1583251953125 26.98457145690918 C 216.328369140625 36.18040466308594 227.33969116210938 24.133464813232422 212.71255493164062 32.557369232177734 C 222.5318145751953 45.817630767822266 238.8154754638672 36.20102310180664 229.8898162841797 39.021087646484375 C 217.85165405273438 37.543331146240234 225.88795471191406 37.91392517089844 259.50054931640625 24.23731231689453 C 210.52545166015625 43.39057922363281 224.1607666015625 37.68309783935547 197.1583251953125 26.98457145690918"/>
    <path stroke-width="0" fill="rgb(110, 202, 15)" opacity="0.8499759" stroke="rgb(209, 231, 207)" stroke-opacity="1.0" stroke-linecap="round" stroke-linejoin="round" d="M 252.4014434814453 90.05279541015625 C 258.60150146484375 89.98333740234375 233.26451110839844 87.01315307617188 247.51649475097656 93.22000122070312 C 270.6153869628906 90.80325317382812 259.07366943359375 91.94268035888672 252.4292755126953 92.8968276977539 C 263.39263916015625 139.89222717285156 250.01976013183594 84.4264144897461 249.5245819091797 76.7373275756836 C 251.76544189453125 85.32540893554688 256.6866760253906 106.48178100585938 252.4014434814453 90.05279541015625"/>
    <path stroke-width="0" fill="rgb(128, 134, 152)" opacity="0.8276255" stroke="rgb(160, 101, 15)" stroke-opacity="1.0" stroke-linecap="round" stroke-linejoin="round" d="M 256.6842956542969 17.15070343017578 C 234.9411163330078 23.39499282836914 218.50770568847656 28.186307907104492 240.8016815185547 21.713333129882812 C 269.2793273925781 14.455375671386719 238.34007263183594 13.983846664428711 269.9341735839844 38.78303527832031 C 228.73069763183594 -5.774384498596191 209.57321166992188 3.718864917755127 227.01651000976562 -3.681192636489868 C 243.76004028320312 14.380650520324707 269.4690856933594 39.3529052734375 256.6842956542969 17.15070343017578"/>
    <path stroke-width="0" fill="rgb(106, 203, -6)" opacity="0.857593" stroke="rgb(65, 216, 8)" stroke-opacity="1.0" stroke-linecap="round" stroke-linejoin="round" d="M 197.5716094970703 174.51722717285156 C 188.54977416992188 151.7052459716797 200.5841064453125 155.75050354003906 212.0588836669922 153.35018920898438 C 229.041015625 140.8232421875 184.15896606445312 155.71157836914062 199.7305450439453 188.47222900390625 C 183.5400848388672 120.6057357788086 195.23306274414062 122.80253601074219 209.40774536132812 73.85459899902344 C 150.6337127685547 113.68861389160156 174.2700958251953 179.56198120117188 197.5716094970703 174.51722717285156"/>
    <path stroke-width="0" fill="rgb(129, 124, 97)" opacity="0.85387295" stroke="rgb(90, 90, 4)" stroke-opacity="1.0" stroke-linecap="round" stroke-linejoin="round" d="M 231.24710083007812 497.2057800292969 C 230.3572540283203 498.50921630859375 147.33152770996094 489.0607604980469 143.8544158935547 499.0904235839844 C 229.23013305664062 502.47625732421875 218.2843017578125 492.64727783203125 271.09039306640625 495.8291320800781 C 338.38348388671875 490.0463562011719 302.3407287597656 505.51898193359375 350.288818359375 495.37835693359375 C 206.6787872314453 506.0615234375 230.01832580566406 494.0541076660156 231.24710083007812 497.2057800292969"/>
    <path stroke-width="0" fill="rgb(95, 181, 21)" opacity="0.8944171" stroke="rgb(221, 115, 83)" stroke-opacity="1.0" stroke-linecap="round" stroke-linejoin="round" d="M 244.58229064941406 164.84010314941406 C 243.8643035888672 142.87384033203125 247.06619262695312 141.9527587890625 258.2698059082031 133.30868530273438 C 259.0506286621094 177.51405334472656 258.88104248046875 176.3966064453125 258.4842224121094 149.79782104492188 C 267.6558532714844 151.52789306640625 275.6735534667969 153.6928253173828 231.6082763671875 143.6640625 C 227.40045166015625 152.86940002441406 254.30360412597656 157.1741485595703 244.58229064941406 164.84010314941406"/>
    <path stroke-width="0" fill="rgb(157, 116, 89)" opacity="0.95881927" stroke="rgb(33, 3, 29)" stroke-opacity="1.0" stroke-linecap="round" stroke-linejoin="round" d="M 536.125 294.1974182128906 C 505.2458801269531 317.268798828125 508.6228942871094 331.8068542480469 522.5206298828125 340.2110595703125 C 523.8185424804688 247.0888214111328 535.1961669921875 293.66558837890625 492.6934509277344 294.5218811035156 C 465.1484680175781 293.5628662109375 489.79925537109375 294.5308837890625 523.2513427734375 295.972900390625 C 531.095947265625 267.7210388183594 536.8461303710938 289.4244079589844 536.125 294.1974182128906"/>
    <path stroke-width="0" fill="rgb(43, 56, 95)" opacity="0.6787207" stroke="rgb(248, 252, 104)" stroke-opacity="1.0" stroke-linecap="round" stroke-linejoin="round" d="M 264.6767578125 87.28256225585938 C 277.7613525390625 67.05945587158203 257.4342041015625 86.20557403564453 276.16973876953125 78.08193969726562 C 263.7911376953125 80.12368774414062 264.96466064453125 90.89708709716797 267.49383544921875 86.21831512451172 C 280.310791015625 126.13409423828125 280.8234558105469 118.34843444824219 271.055908203125 98.27867126464844 C 267.8487243652344 95.8794937133789 271.56707763671875 86.3145751953125 264.6767578125 87.28256225585938"/>
    <path stroke-width="0" fill="rgb(50, 103, -3)" opacity="0.5782542" stroke="rgb(162, 125, 252)" stroke-opacity="1.0" stroke-linecap="round" stroke-linejoin="round" d="M 223.3787384033203 181.14859008789062 C 237.21400451660156 185.92984008789062 197.81239318847656 159.9628143310547 207.39039611816406 142.773681640625 C 194.0836639404297 158.48208618164062 185.90309143066406 156.99098205566406 192.4968719482422 120.27215576171875 C 195.60775756835938 186.25692749023438 201.08612060546875 140.32730102539062 222.35389709472656 163.98829650878906 C 184.58180236816406 123.77824401855469 183.9916229248047 168.2742919921875 223.3787384033203 181.14859008789062"/>
    <path stroke-width="0" fill="rgb(69, 144, -2)" opacity="0.8880413" stroke="rgb(199, 73, 61)" stroke-opacity="1.0" stroke-linecap="round" stroke-linejoin="round" d="M 246.07473754882812 140.2909393310547 C 209.1602020263672 153.50283813476562 219.1151123046875 161.8619384765625 227.64395141601562 166.4607391357422 C 246.08306884765625 176.06951904296875 196.92852783203125 194.6157989501953 223.99867248535156 190.41275024414062 C 251.5994415283203 199.9209442138672 251.57359313964844 188.22305297851562 245.10086059570312 175.73854064941406 C 219.77772521972656 180.16246032714844 288.27264404296875 170.3338623046875 246.07473754882812 140.2909393310547"/>
    <path stroke-width="0" fill="rgb(1, 28, 42)" opacity="0.6983358" stroke="rgb(62, 169, 131)" stroke-opacity="1.0" stroke-linecap="round" stroke-linejoin="round" d="M 168.81336975097656 163.127197265625 C 166.6185302734375 151.70314025878906 174.36582946777344 147.41293334960938 168.16920471191406 133.14015197753906 C 174.0782928466797 109.84041595458984 180.9123992919922 99.32124328613281 172.5494842529297 125.9118423461914 C 166.28582763671875 115.77433776855469 168.3114471435547 123.2958984375 171.65750122070312 142.19876098632812 C 171.63580322265625 158.90858459472656 170.8133087158203 150.95889282226562 168.81336975097656 163.127197265625"/>
    <path stroke-width="0" fill="rgb(59, 142, 10)" opacity="0.7717236" stroke="rgb(141, 73, 180)" stroke-opacity="1.0" stroke-linecap="round" stroke-linejoin="round" d="M 245.59864807128906 183.4794158935547 C 247.447509765625 144.6558074951172 227.86622619628906 170.90306091308594 215.33877563476562 190.28492736816406 C 226.71775817871094 160.12631225585938 217.1345672607422 140.34620666503906 213.51258850097656 154.78453063964844 C 213.31236267089844 156.74642944335938 226.48861694335938 158.09210205078125 222.453369140625 183.1222686767578 C 214.5070343017578 177.77743530273438 220.0441436767578 182.0019073486328 245.59864807128906 183.4794158935547"/>
    <path stroke-width="0" fill="rgb(265, 252, 181)" opacity="0.95558125" stroke="rgb(59, 88, 207)" stroke-opacity="1.0" stroke-linecap="round" stroke-linejoin="round" d="M 229.55117797851562 151.8217010498047 C 219.01417541503906 173.30592346191406 236.79884338378906 156.6035614013672 222.74391174316406 89.77600860595703 C 203.77740478515625 128.1346893310547 186.03160095214844 145.21649169921875 200.78343200683594 117.23136138916016 C 235.34042358398438 132.64134216308594 196.9761199951172 104.80009460449219 194.56463623046875 144.4736785888672 C 226.36181640625 171.5373992919922 235.45425415039062 169.5616912841797 229.55117797851562 151.8217010498047"/>
    <path stroke-width="0" fill="rgb(91, 123, 45)" opacity="1.0061867" stroke="rgb(247, 230, 75)" stroke-opacity="1.0" stroke-linecap="round" stroke-linejoin="round" d="M 520.4046630859375 317.54736328125 C 530.1004638671875 343.92352294921875 502.44219970703125 348.1446228027344 549.3005981445312 344.4013977050781 C 543.36376953125 349.4950866699219 430.59161376953125 341.759521484375 449.0857238769531 346.14727783203125 C 458.6803894042969 290.4833068847656 459.45709228515625 299.7137756347656 463.4454650878906 302.6846923828125 C 546.3538818359375 299.18609619140625 596.3615112304688 277.82623291015625 520.4046630859375 317.54736328125"/>
    <path stroke-width="0" fill="rgb(20, 30, 69)" opacity="1.003948" stroke="rgb(63, 27, 242)" stroke-opacity="1.0" stroke-linecap="round" stroke-linejoin="round" d="M 560.27978515625 305.988525390625 C 521.5855712890625 315.489013671875 489.0696105957031 323.8018493652344 548.4041137695312 323.5456237792969 C 467.1784973144531 293.70379638671875 438.02520751953125 322.9105529785156 456.5414123535156 296.0985107421875 C 466.2521667480469 283.0563049316406 473.4741516113281 276.5904846191406 473.59295654296875 251.7373046875 C 515.7385864257812 249.77976989746094 555.8732299804688 238.77157592773438 560.27978515625 305.988525390625"/>
    <path stroke-width="0" fill="rgb(116, 176, 66)" opacity="0.8307423" stroke="rgb(175, 14, 186)" stroke-opacity="1.0" stroke-linecap="round" stroke-linejoin="round" d="M 477.6065368652344 135.56396484375 C 483.43304443359375 105.62203216552734 485.9870910644531 162.01425170898438 465.822021484375 151.0553741455078 C 474.9610595703125 133.20932006835938 452.84869384765625 170.05784606933594 476.23675537109375 129.35511779785156 C 472.3721923828125 121.88187408447266 463.1096496582031 148.16624450683594 461.5236511230469 155.51043701171875 C 466.63909912109375 162.0214080810547 474.14056396484375 142.4879913330078 477.6065368652344 135.56396484375"/>
    <path stroke-width="0" fill="rgb(201, 212, 122)" opacity="0.82878834" stroke="rgb(69, 96, 95)" stroke-opacity="1.0" stroke-linecap="round" stroke-linejoin="round" d="M 214.40428161621094 146.21890258789062 C 226.03939819335938 178.36013793945312 226.25732421875 180.78366088867188 233.0561065673828 164.0853729248047 C 244.22792053222656 161.00640869140625 207.31932067871094 167.29605102539062 212.19090270996094 158.78958129882812 C 216.7676239013672 154.26377868652344 222.61410522460938 148.58621215820312 237.55377197265625 171.3819580078125 C 236.96029663085938 143.56130981445312 222.92724609375 138.64178466796875 214.40428161621094 146.21890258789062"/>
    <path stroke-width="0" fill="rgb(73, 108, 93)" opacity="0.6941291" stroke="rgb(213, 60, 128)" stroke-opacity="1.0" stroke-linecap="round" stroke-linejoin="round" d="M 498.6547546386719 160.47897338867188 C 467.47705078125 150.96131896972656 465.3065490722656 188.2056427001953 468.5808410644531 174.82769775390625 C 383.09124755859375 198.661376953125 344.2851867675781 160.96435546875 456.17755126953125 149.16831970214844 C 497.33056640625 158.7896728515625 476.8963928222656 147.8810272216797 397.4036560058594 -33.23552703857422 C 575.6339721679688 20.636411666870117 443.1302490234375 63.70497131347656 498.6547546386719 160.47897338867188"/>
    <path stroke-width="0" fill="rgb(97, 216, -18)" opacity="0.7494599" stroke="rgb(161, 221, 239)" stroke-opacity="1.0" stroke-linecap="round" stroke-linejoin="round" d="M 271.609375 142.00794982910156 C 273.8484191894531 200.90797424316406 215.7777099609375 205.4677276611328 211.66302490234375 190.5730438232422 C 267.74365234375 170.2981719970703 198.1129913330078 184.82669067382812 208.47726440429688 189.63897705078125 C 167.70626831054688 163.28111267089844 209.12754821777344 180.28465270996094 232.9234161376953 177.58457946777344 C 222.80755615234375 192.36737060546875 242.04978942871094 172.1381072998047 271.609375 142.00794982910156"/>
    <path stroke-width="0" fill="rgb(129, 207, 47)" opacity="0.71672744" stroke="rgb(18, 74, 38)" stroke-opacity="1.0" stroke-linecap="round" stroke-linejoin="round" d="M 475.7901916503906 146.53298950195312 C 466.3929443359375 196.80133056640625 447.3765869140625 177.61492919921875 466.23602294921875 200.70358276367188 C 487.5114440917969 173.3256378173828 445.3891296386719 127.59191131591797 451.33148193359375 150.25650024414062 C 417.2745056152344 162.32334899902344 418.5096435546875 114.86046600341797 461.2890319824219 147.30023193359375 C 458.6595458984375 125.15630340576172 493.5095520019531 122.53837585449219 475.7901916503906 146.53298950195312"/>
    <path stroke-width="0" fill="rgb(93, 118, 84)" opacity="0.45497495" stroke="rgb(33, 154, 97)" stroke-opacity="1.0" stroke-linecap="round" stroke-linejoin="round" d="M 472.28143310546875 179.31591796875 C 473.8594055175781 190.0613555908203 456.2149963378906 187.37118530273438 469.4046936035156 197.83351135253906 C 442.8306884765625 205.22598266601562 444.6271057128906 200.30763244628906 462.7774658203125 200.35997009277344 C 418.36212158203125 206.63919067382812 478.0223083496094 212.7540283203125 449.5855712890625 208.89048767089844 C 462.3555603027344 212.98806762695312 463.7911682128906 187.45262145996094 472.28143310546875 179.31591796875"/>
    <path stroke-width="0" fill="rgb(110, 228, 0)" opacity="0.7553749" stroke="rgb(246, 139, 70)" stroke-opacity="1.0" stroke-linecap="round" stroke-linejoin="round" d="M 209.74960327148438 182.9150390625 C 247.47982788085938 162.54364013671875 210.32742309570312 167.60659790039062 236.90982055664062 180.79873657226562 C 232.2642364501953 188.66421508789062 210.53517150878906 181.25924682617188 177.35385131835938 142.57334899902344 C 175.12559509277344 213.09364318847656 257.5544738769531 172.58396911621094 229.45989990234375 184.9861297607422 C 207.0533447265625 187.64073181152344 222.87319946289062 187.5356903076172 209.74960327148438 182.9150390625"/>
    <path stroke-width="0" fill="rgb(259, 261, 173)" opacity="0.9979369" stroke="rgb(228, 103, 140)" stroke-opacity="1.0" stroke-linecap="round" stroke-linejoin="round" d="M 255.70779418945312 149.58544921875 C 242.83287048339844 190.2913818359375 188.20529174804688 178.69937133789062 192.91432189941406 132.15362548828125 C 209.49595642089844 149.8155059814453 206.37684631347656 140.94126892089844 195.82232666015625 126.74734497070312 C 192.73484802246094 168.47564697265625 218.685302734375 127.70832824707031 198.7315673828125 125.92201232910156 C 199.97366333007812 77.41484832763672 264.6800537109375 100.36076354980469 255.70779418945312 149.58544921875"/>
    <path stroke-width="0" fill="rgb(118, 206, -10)" opacity="0.958383" stroke="rgb(116, 102, 63)" stroke-opacity="1.0" stroke-linecap="round" stroke-linejoin="round" d="M 236.00059509277344 190.2295379638672 C 228.81410217285156 198.71644592285156 215.84576416015625 190.1940155029297 208.90663146972656 180.54893493652344 C 258.96881103515625 178.09902954101562 253.668212890625 162.90203857421875 262.6530456542969 171.60897827148438 C 227.56304931640625 199.0091552734375 235.6961212158203 183.7494659423828 229.76182556152344 186.91835021972656 C 210.93960571289062 185.26609802246094 226.54373168945312 186.80873107910156 236.00059509277344 190.2295379638672"/>
    <path stroke-width="0" fill="rgb(82, 107, 98)" opacity="0.7087035" stroke="rgb(85, 235, 219)" stroke-opacity="1.0" stroke-linecap="round" stroke-linejoin="round" d="M 459.0043029785156 168.68460083007812 C 525.529296875 135.1705780029297 463.9239196777344 143.6724090576172 449.2382507324219 174.22227478027344 C 437.4913330078125 180.90499877929688 474.21142578125 174.22848510742188 450.9066162109375 163.01974487304688 C 446.40399169921875 193.11683654785156 482.857421875 179.67190551757812 453.52734375 165.1480712890625 C 519.3519287109375 165.73143005371094 469.96331787109375 148.08102416992188 459.0043029785156 168.68460083007812"/>
    <path stroke-width="0" fill="rgb(125, 163, 123)" opacity="0.21754694" stroke="rgb(64, 113, 26)" stroke-opacity="1.0" stroke-linecap="round" stroke-linejoin="round" d="M 454.37994384765625 205.88510131835938 C 382.6529235839844 201.5384979248047 443.35382080078125 228.40701293945312 466.5584411621094 191.55853271484375 C 478.77410888671875 206.06741333007812 440.96240234375 197.11407470703125 429.9983215332031 202.12258911132812 C 425.2823791503906 189.48558044433594 436.6449890136719 176.18386840820312 434.93560791015625 195.4626007080078 C 436.58978271484375 210.33753967285156 457.4071044921875 179.03656005859375 454.37994384765625 205.88510131835938"/>
    <path stroke-width="0" fill="rgb(132, 167, 158)" opacity="0.15449408" stroke="rgb(0, 0, 0)" stroke-opacity="0.0" stroke-linecap="round" stroke-linejoin="round" d="M 499.53076171875 10.3744478225708 C 500.43829345703125 14.161293983459473 498.2198181152344 16.35573387145996 491.7452087402344 15.153374671936035 C 487.923095703125 16.68638038635254 487.251220703125 12.719995498657227 486.4081115722656 6.465092182159424 C 484.3432922363281 2.4629297256469727 487.1131591796875 0.08831039071083069 492.59991455078125 -0.9313773512840271 C 496.7919006347656 0.8269168734550476 498.5146789550781 5.457388401031494 499.53076171875 10.3744478225708"/>
    <path stroke-width="0" fill="rgb(56, 182, 167)" opacity="0.67833996" stroke="rgb(0, 0, 0)" stroke-opacity="0.0" stroke-linecap="round" stroke-linejoin="round" d="M 76.38585662841797 15.729281425476074 C 77.64959716796875 22.321109771728516 76.85359191894531 24.86956214904785 74.35426330566406 21.439006805419922 C 65.61370086669922 22.06455421447754 61.48460006713867 21.34278678894043 63.10224533081055 16.535537719726562 C 62.62095642089844 10.397123336791992 64.89549255371094 7.422796249389648 68.47992706298828 9.350976943969727 C 75.10050964355469 10.359578132629395 77.95929718017578 11.606633186340332 76.38585662841797 15.729281425476074"/>
    <path stroke-width="0" fill="rgb(101, 167, 121)" opacity="0.36769077" stroke="rgb(0, 0, 0)" stroke-opacity="0.0" stroke-linecap="round" stroke-linejoin="round" d="M 41.33797073364258 23.81519317626953 C 39.3023567199707 27.984111785888672 37.03758239746094 31.721040725708008 33.05984878540039 32.8665885925293 C 29.585350036621094 33.169315338134766 27.07941436767578 30.13709831237793 26.700794219970703 26.524518966674805 C 28.13296890258789 21.89390754699707 30.051443099975586 18.210039138793945 33.72184371948242 17.61130142211914 C 39.77323913574219 18.32819175720215 42.3802375793457 20.114269256591797 41.33797073364258 23.81519317626953"/>
    <path stroke-width="0" fill="rgb(115, 83, 76)" opacity="0.26678815" stroke="rgb(0, 0, 0)" stroke-opacity="0.0" stroke-linecap="round" stroke-linejoin="round" d="M -55.925968170166016 62.296878814697266 C -56.997764587402344 66.29688262939453 -59.925968170166016 69.22508239746094 -63.925968170166016 70.29688262939453 C -67.92597198486328 69.22508239746094 -70.85417175292969 66.29688262939453 -71.92597198486328 62.296878814697266 C -70.85417175292969 58.296878814697266 -67.92597198486328 55.36867904663086 -63.925968170166016 54.296878814697266 C -59.925968170166016 55.36867904663086 -56.997764587402344 58.296878814697266 -55.925968170166016 62.296878814697266"/>
    <path stroke-width="0" fill="rgb(79, 24, -2)" opacity="0.8812951" stroke="rgb(0, 0, 0)" stroke-opacity="0.0" stroke-linecap="round" stroke-linejoin="round" d="M 258.9540100097656 176.0516815185547 C 258.16888427734375 179.59185791015625 255.0830841064453 182.51715087890625 252.2091827392578 184.2965850830078 C 249.111328125 182.71444702148438 246.1722869873047 179.89146423339844 244.9105224609375 176.193115234375 C 245.26492309570312 172.42449951171875 247.90074157714844 169.82901000976562 252.76947021484375 169.78831481933594 C 256.6802062988281 169.4385986328125 259.27716064453125 172.35250854492188 258.9540100097656 176.0516815185547"/>
    <path stroke-width="0" fill="rgb(45, 230, 34)" opacity="0.46273705" stroke="rgb(0, 0, 0)" stroke-opacity="0.0" stroke-linecap="round" stroke-linejoin="round" d="M 354.5469970703125 230.99090576171875 C 352.88690185546875 235.1011962890625 350.42901611328125 238.60879516601562 347.5498046875 238.79150390625 C 342.666748046875 238.00146484375 339.37957763671875 235.90060424804688 339.60296630859375 232.1205596923828 C 340.1611328125 228.13966369628906 343.15863037109375 225.14401245117188 346.0672607421875 224.2169647216797 C 350.029541015625 225.3970489501953 353.2849426269531 228.10226440429688 354.5469970703125 230.99090576171875"/>
    <path stroke-width="0" fill="rgb(139, 144, 210)" opacity="0.038313486" stroke="rgb(0, 0, 0)" stroke-opacity="0.0" stroke-linecap="round" stroke-linejoin="round" d="M 125.64694213867188 350.4570007324219 C 124.29806518554688 354.97637939453125 121.4833755493164 357.9332580566406 117.99702453613281 358.2701721191406 C 114.07434844970703 357.0829162597656 110.88712310791016 354.36553955078125 109.47061157226562 350.7129211425781 C 110.62100982666016 347.1706848144531 113.61048126220703 344.0294189453125 116.68980407714844 343.629150390625 C 121.2547607421875 344.5813903808594 124.98048400878906 346.62353515625 125.64694213867188 350.4570007324219"/>
    <path stroke-width="0" fill="rgb(8, 238, 73)" opacity="0.14775208" stroke="rgb(0, 0, 0)" stroke-opacity="0.0" stroke-linecap="round" stroke-linejoin="round" d="M 22.947099685668945 59.560142517089844 C 23.14059066772461 64.10990142822266 20.461172103881836 66.9625244140625 16.47956085205078 66.2349853515625 C 11.71368408203125 66.1610107421875 8.481850624084473 63.76710891723633 7.5051984786987305 59.76179504394531 C 8.939814567565918 55.569000244140625 11.974846839904785 52.97909164428711 15.713897705078125 52.18979263305664 C 19.3707218170166 53.18305969238281 22.698244094848633 55.70973587036133 22.947099685668945 59.560142517089844"/>
    <path stroke-width="0" fill="rgb(242, 165, 133)" opacity="0.3739394" stroke="rgb(0, 0, 0)" stroke-opacity="0.0" stroke-linecap="round" stroke-linejoin="round" d="M 62.93903732299805 134.6598358154297 C 62.02422332763672 139.2728271484375 59.95865249633789 142.7610626220703 55.614540100097656 142.7774200439453 C 51.01128387451172 143.03636169433594 49.31281661987305 140.0105438232422 48.899715423583984 134.80960083007812 C 48.69388961791992 131.40953063964844 51.729618072509766 128.37351989746094 55.39689254760742 127.0128402709961 C 58.89441680908203 129.2541961669922 62.41910934448242 132.0882110595703 62.93903732299805 134.6598358154297"/>
    <path stroke-width="0" fill="rgb(221, 155, 17)" opacity="0.6788056" stroke="rgb(0, 0, 0)" stroke-opacity="0.0" stroke-linecap="round" stroke-linejoin="round" d="M 438.2655944824219 358.8915710449219 C 437.0963439941406 362.1849060058594 433.3499450683594 364.38623046875 429.8637390136719 365.59429931640625 C 427.16033935546875 364.4994201660156 424.675537109375 360.84722900390625 422.8002014160156 357.4290771484375 C 422.8970642089844 354.3497314453125 426.1247253417969 351.6456298828125 429.72784423828125 350.8180847167969 C 433.5603942871094 352.191162109375 437.1085510253906 354.4726867675781 438.2655944824219 358.8915710449219"/>
    <path stroke-width="0" fill="rgb(30, 192, 225)" opacity="0.10025174" stroke="rgb(0, 0, 0)" stroke-opacity="0.0" stroke-linecap="round" stroke-linejoin="round" d="M 1.3872900009155273 -3.46614670753479 C 0.3154931962490082 0.5338531732559204 -2.6127099990844727 3.4620563983917236 -6.612709999084473 4.533853054046631 C -10.612709999084473 3.4620563983917236 -13.540913581848145 0.5338531732559204 -14.612709999084473 -3.46614670753479 C -13.540913581848145 -7.466146945953369 -10.612709999084473 -10.394350051879883 -6.612709999084473 -11.466146469116211 C -2.6127099990844727 -10.394350051879883 0.3154931962490082 -7.466146945953369 1.3872900009155273 -3.46614670753479"/>
    <path stroke-width="0" fill="rgb(148, 144, 76)" opacity="0.904656" stroke="rgb(0, 0, 0)" stroke-opacity="0.0" stroke-linecap="round" stroke-linejoin="round" d="M 425.3026123046875 160.7034912109375 C 424.27435302734375 165.1600799560547 421.53070068359375 167.93295288085938 417.5042724609375 168.5765838623047 C 413.99603271484375 167.83738708496094 410.90216064453125 164.83499145507812 410.05499267578125 161.42483520507812 C 410.9980163574219 157.67123413085938 414.0476379394531 154.98780822753906 417.7998046875 153.51622009277344 C 421.3695983886719 154.76849365234375 425.05560302734375 157.02389526367188 425.3026123046875 160.7034912109375"/>
    <path stroke-width="0" fill="rgb(205, 137, 18)" opacity="0.45532933" stroke="rgb(0, 0, 0)" stroke-opacity="0.0" stroke-linecap="round" stroke-linejoin="round" d="M 431.7396545410156 504.3196105957031 C 430.7464904785156 508.164306640625 427.72113037109375 511.04937744140625 423.627685546875 512.5879516601562 C 419.6785583496094 511.7064208984375 417.2221374511719 508.6254577636719 416.3600769042969 504.3256530761719 C 417.30035400390625 500.69671630859375 420.4743347167969 497.97900390625 424.4056396484375 496.4014587402344 C 428.306884765625 497.1692199707031 431.0083923339844 500.0859680175781 431.7396545410156 504.3196105957031"/>
    <path stroke-width="0" fill="rgb(87, 48, 109)" opacity="0.23608403" stroke="rgb(0, 0, 0)" stroke-opacity="0.0" stroke-linecap="round" stroke-linejoin="round" d="M 111.42181396484375 216.77911376953125 C 110.89669799804688 221.01560974121094 107.6229248046875 223.1148681640625 103.83314514160156 224.25735473632812 C 100.1970443725586 223.50758361816406 97.25846862792969 220.4888916015625 96.15499114990234 217.08465576171875 C 96.6886978149414 212.42071533203125 99.30197143554688 209.29150390625 103.58549499511719 209.28111267089844 C 108.10466766357422 209.8334197998047 111.09494018554688 212.5242156982422 111.42181396484375 216.77911376953125"/>
    <path stroke-width="0" fill="rgb(199, 151, 205)" opacity="0.9237287" stroke="rgb(0, 0, 0)" stroke-opacity="0.0" stroke-linecap="round" stroke-linejoin="round" d="M 24.423294067382812 464.7715148925781 C 24.057374954223633 467.1079406738281 21.31540870666504 470.50201416015625 18.108125686645508 471.8180847167969 C 14.987995147705078 470.29144287109375 12.455668449401855 466.71875 10.79019832611084 462.76739501953125 C 12.298967361450195 461.4540710449219 15.457902908325195 458.32843017578125 17.73468780517578 456.4284973144531 C 21.031248092651367 457.8688659667969 23.766530990600586 461.0683288574219 24.423294067382812 464.7715148925781"/>
    <path stroke-width="0" fill="rgb(254, 160, 36)" opacity="0.55029315" stroke="rgb(0, 0, 0)" stroke-opacity="0.0" stroke-linecap="round" stroke-linejoin="round" d="M 330.5765380859375 510.4709777832031 C 329.4369812011719 514.6038818359375 326.8501892089844 517.8436889648438 322.9856872558594 518.972900390625 C 318.99969482421875 517.8993530273438 316.270263671875 514.8786010742188 315.2838439941406 511.1910400390625 C 316.2838134765625 507.0693054199219 318.9668273925781 503.9105529785156 323.7300109863281 502.8120422363281 C 326.83013916015625 503.952880859375 330.2128601074219 507.00537109375 330.5765380859375 510.4709777832031"/>
    <path stroke-width="0" fill="rgb(90, 163, 68)" opacity="0.92790693" stroke="rgb(0, 0, 0)" stroke-opacity="0.0" stroke-linecap="round" stroke-linejoin="round" d="M 110.49991607666016 489.2831115722656 C 108.65969848632812 493.5257568359375 106.00865173339844 496.783447265625 102.02833557128906 497.5816955566406 C 98.66401672363281 495.7478942871094 95.63392639160156 492.6995544433594 94.638916015625 489.0209655761719 C 95.00958251953125 485.9158630371094 98.7420883178711 483.7684631347656 102.28878021240234 482.24822998046875 C 104.69989776611328 483.2681579589844 107.8659896850586 486.50531005859375 110.49991607666016 489.2831115722656"/>
  </g>
</svg>
