<?xml version="1.0" ?>
<svg xmlns="http://www.w3.org/2000/svg" version="1.1" width="512" height="512">
  <defs/>
  <g>
    <path stroke-width="0" fill="rgb(38, 246, 28)" opacity="0.95371413" stroke="rgb(139, 182, 153)" stroke-opacity="1.0" stroke-linecap="round" stroke-linejoin="round" d="M 206.49853515625 174.82220458984375 C 83.96588134765625 69.40072631835938 142.43418884277344 167.6774444580078 -10.177347183227539 310.4912414550781 C -50.38013458251953 273.6077880859375 -32.125091552734375 244.37161254882812 0.8160078525543213 198.25779724121094 C 57.36418533325195 82.95391082763672 62.12978744506836 73.32791137695312 79.02953338623047 110.17633819580078 C 274.08612060546875 196.31898498535156 147.0899658203125 53.701866149902344 206.49853515625 174.82220458984375"/>
    <path stroke-width="0" fill="rgb(147, 164, 152)" opacity="0.86964244" stroke="rgb(108, 164, 111)" stroke-opacity="1.0" stroke-linecap="round" stroke-linejoin="round" d="M 145.521484375 -34.92741012573242 C 90.31556701660156 151.02969360351562 120.07637023925781 222.55677795410156 -4.487487316131592 262.6584777832031 C -46.547916412353516 225.74099731445312 -45.62079620361328 209.98471069335938 -47.316612243652344 66.32988739013672 C -49.11305618286133 -8.18151569366455 -55.94807434082031 -28.422311782836914 15.614151954650879 -48.40176773071289 C 199.6168670654297 -48.19676208496094 200.75816345214844 -41.44858932495117 145.521484375 -34.92741012573242"/>
    <path stroke-width="0" fill="rgb(178, 186, 76)" opacity="0.4366145" stroke="rgb(245, 97, 201)" stroke-opacity="1.0" stroke-linecap="round" stroke-linejoin="round" d="M 563.8391723632812 -46.56962203979492 C 586.0159912109375 497.6336975097656 588.2413940429688 535.3872680664062 531.7024536132812 496.3814392089844 C -111.80432891845703 496.2518615722656 -96.6046371459961 502.08685302734375 -73.93792724609375 489.57427978515625 C 93.07538604736328 154.49322509765625 150.46389770507812 155.12655639648438 337.4285583496094 -47.74541473388672 C 391.4353942871094 -64.82481384277344 407.0115051269531 -154.88951110839844 563.8391723632812 -46.56962203979492"/>
    <path stroke-width="0" fill="rgb(22, 70, 89)" opacity="0.7966542" stroke="rgb(144, 236, 18)" stroke-opacity="1.0" stroke-linecap="round" stroke-linejoin="round" d="M 278.16973876953125 21.74010467529297 C 59.82197952270508 232.80654907226562 197.42056274414062 65.90877532958984 510.8208923339844 378.0505676269531 C 150.5650177001953 533.1486206054688 -168.59483337402344 505.9184875488281 -282.08148193359375 351.7554931640625 C 30.39957618713379 0.2762547433376312 11.265368461608887 -26.734527587890625 238.15914916992188 -44.89793395996094 C 282.89959716796875 -42.84962463378906 302.9220275878906 -43.688358306884766 278.16973876953125 21.74010467529297"/>
    <path stroke-width="0" fill="rgb(217, 105, 119)" opacity="0.8653056" stroke="rgb(5, 212, 198)" stroke-opacity="1.0" stroke-linecap="round" stroke-linejoin="round" d="M 257.9652404785156 314.86383056640625 C 284.39520263671875 285.97796630859375 274.6307678222656 292.9189453125 218.7607879638672 340.38092041015625 C 208.81878662109375 338.1003112792969 203.44940185546875 330.0090026855469 201.84849548339844 287.6219482421875 C 252.58143615722656 277.109619140625 283.5915832519531 286.135986328125 291.896240234375 290.1601867675781 C 237.96881103515625 293.13275146484375 249.40687561035156 304.6378479003906 257.9652404785156 314.86383056640625"/>
    <path stroke-width="0" fill="rgb(255, 136, 62)" opacity="0.98430747" stroke="rgb(249, 203, 117)" stroke-opacity="1.0" stroke-linecap="round" stroke-linejoin="round" d="M 340.14654541015625 469.0738525390625 C 358.94464111328125 497.36163330078125 289.072021484375 445.6981201171875 154.15740966796875 451.78387451171875 C 112.50743103027344 440.2902526855469 128.69007873535156 464.7305603027344 107.8346176147461 339.25628662109375 C 109.17581939697266 313.3045654296875 170.5081787109375 331.7762145996094 237.41604614257812 374.0599670410156 C 246.1414337158203 283.095458984375 329.5260314941406 250.92372131347656 340.14654541015625 469.0738525390625"/>
    <path stroke-width="0" fill="rgb(220, 111, 26)" opacity="1.0043168" stroke="rgb(30, 163, 36)" stroke-opacity="1.0" stroke-linecap="round" stroke-linejoin="round" d="M 377.7489929199219 339.7359619140625 C 356.1938171386719 460.37860107421875 369.4497375488281 458.1783752441406 336.2216796875 445.0813903808594 C 239.41510009765625 447.46588134765625 182.14599609375 445.528564453125 147.4768524169922 445.62469482421875 C 120.8740234375 210.6656036376953 137.89651489257812 356.06793212890625 314.4024353027344 321.2354431152344 C 356.7437744140625 340.9691162109375 369.0111083984375 314.6288757324219 377.7489929199219 339.7359619140625"/>
    <path stroke-width="0" fill="rgb(225, 124, 91)" opacity="0.8844609" stroke="rgb(133, 105, 67)" stroke-opacity="1.0" stroke-linecap="round" stroke-linejoin="round" d="M 296.997802734375 283.1882629394531 C 306.2359313964844 285.98602294921875 291.9939880371094 293.2522888183594 295.5846252441406 299.45208740234375 C 254.8929443359375 289.4755859375 254.3079376220703 289.4248046875 293.0123596191406 303.1855163574219 C 305.9015808105469 301.29217529296875 317.46063232421875 292.3818664550781 260.073486328125 291.2803039550781 C 249.96353149414062 300.6019287109375 274.1562194824219 295.94403076171875 296.997802734375 283.1882629394531"/>
    <path stroke-width="0" fill="rgb(200, 166, 121)" opacity="0.82952005" stroke="rgb(116, 144, 4)" stroke-opacity="1.0" stroke-linecap="round" stroke-linejoin="round" d="M 263.1174621582031 291.2752685546875 C 267.353759765625 333.7073669433594 260.5087890625 322.962646484375 208.65789794921875 323.91680908203125 C 94.91188049316406 349.5695495605469 148.88394165039062 291.8304748535156 160.5458221435547 309.7986145019531 C 162.97262573242188 256.802490234375 145.06085205078125 275.598876953125 280.3780517578125 279.8689880371094 C 234.2469482421875 291.294189453125 263.5751953125 281.3648681640625 263.1174621582031 291.2752685546875"/>
    <path stroke-width="0" fill="rgb(236, 146, 91)" opacity="0.78221935" stroke="rgb(156, 157, 240)" stroke-opacity="1.0" stroke-linecap="round" stroke-linejoin="round" d="M 322.1050720214844 372.1805419921875 C 289.71417236328125 369.19268798828125 325.8236083984375 351.53125 263.7474365234375 355.8726806640625 C 211.03269958496094 357.54449462890625 198.65823364257812 359.0889892578125 168.37429809570312 377.86444091796875 C 168.6253204345703 263.0335388183594 173.64376831054688 283.1607971191406 371.44464111328125 267.2421875 C 300.8285217285156 315.6078796386719 325.5110168457031 209.54859924316406 322.1050720214844 372.1805419921875"/>
    <path stroke-width="0" fill="rgb(215, 139, 109)" opacity="0.8703859" stroke="rgb(91, 111, 177)" stroke-opacity="1.0" stroke-linecap="round" stroke-linejoin="round" d="M 295.5198059082031 325.4235534667969 C 348.3896789550781 275.7623291015625 346.0603332519531 354.69287109375 316.6685485839844 326.6928405761719 C 287.8167724609375 404.4166564941406 247.45843505859375 374.8529968261719 243.7578582763672 305.9418640136719 C 223.8904571533203 273.4637756347656 227.24282836914062 274.2541198730469 327.031982421875 273.86553955078125 C 312.8953552246094 269.66387939453125 342.0500183105469 322.37530517578125 295.5198059082031 325.4235534667969"/>
    <path stroke-width="0" fill="rgb(266, 145, 68)" opacity="1.0313411" stroke="rgb(170, 171, 53)" stroke-opacity="1.0" stroke-linecap="round" stroke-linejoin="round" d="M 334.9595031738281 402.57818603515625 C 334.0259094238281 420.6585693359375 335.5007019042969 412.50030517578125 227.4145050048828 414.1168212890625 C 80.33938598632812 417.6693420410156 180.76808166503906 418.7210998535156 161.7703857421875 282.0475769042969 C 178.23428344726562 265.2936096191406 122.54056549072266 265.1731262207031 296.3038330078125 265.2160339355469 C 358.000732421875 265.9171142578125 287.8299560546875 323.094970703125 334.9595031738281 402.57818603515625"/>
    <path stroke-width="0" fill="rgb(-6, 30, 24)" opacity="0.9436717" stroke="rgb(80, 92, 145)" stroke-opacity="1.0" stroke-linecap="round" stroke-linejoin="round" d="M 499.7417297363281 -49.25436019897461 C 594.6760864257812 317.8497009277344 519.7290649414062 345.6169738769531 437.2373962402344 401.6001281738281 C 440.2528991699219 385.1781005859375 468.4975891113281 392.18756103515625 457.85211181640625 327.1080322265625 C 464.9756164550781 225.1925811767578 496.9201965332031 258.2855529785156 393.6319274902344 250.25682067871094 C 500.5286865234375 115.3462142944336 428.6000061035156 19.809795379638672 499.7417297363281 -49.25436019897461"/>
    <path stroke-width="0" fill="rgb(84, 73, 124)" opacity="0.8904238" stroke="rgb(252, 26, 53)" stroke-opacity="1.0" stroke-linecap="round" stroke-linejoin="round" d="M 530.5631103515625 401.31646728515625 C 510.7104797363281 461.29766845703125 500.3938903808594 455.80291748046875 477.6119079589844 442.95465087890625 C 444.9639587402344 520.6981201171875 445.33209228515625 408.9066467285156 447.4642333984375 448.87322998046875 C 416.3470458984375 442.961181640625 429.54315185546875 413.7330627441406 441.0517578125 351.93572998046875 C 490.6329345703125 366.1019287109375 495.60101318359375 380.068115234375 530.5631103515625 401.31646728515625"/>
    <path stroke-width="0" fill="rgb(21, 47, 75)" opacity="1.0079142" stroke="rgb(166, 64, 118)" stroke-opacity="1.0" stroke-linecap="round" stroke-linejoin="round" d="M 535.5096435546875 494.2818908691406 C 558.1650390625 494.051025390625 535.4682006835938 485.1883544921875 448.41473388671875 484.0790100097656 C 409.9082336425781 482.0517578125 379.9377746582031 490.1677551269531 395.793212890625 473.5872497558594 C 419.9111328125 361.3991394042969 429.8189392089844 257.63720703125 448.33502197265625 337.4947814941406 C 464.9605407714844 451.42230224609375 523.4908447265625 398.0721130371094 535.5096435546875 494.2818908691406"/>
    <path stroke-width="0" fill="rgb(271, 224, 143)" opacity="0.56342924" stroke="rgb(40, 28, 167)" stroke-opacity="1.0" stroke-linecap="round" stroke-linejoin="round" d="M 394.4106750488281 488.2880859375 C 635.501953125 443.6740417480469 627.6206665039062 690.8424682617188 -98.05007934570312 485.2120056152344 C 428.7575378417969 467.00860595703125 449.30621337890625 506.2805480957031 337.01617431640625 447.1452331542969 C 335.02886962890625 406.399658203125 352.9306335449219 327.58013916015625 343.3261413574219 328.906005859375 C 407.4899597167969 339.2318420410156 368.75592041015625 300.620849609375 394.4106750488281 488.2880859375"/>
    <path stroke-width="0" fill="rgb(-22, 25, 42)" opacity="0.94282156" stroke="rgb(50, 94, 209)" stroke-opacity="1.0" stroke-linecap="round" stroke-linejoin="round" d="M 291.5701599121094 208.67843627929688 C 229.67884826660156 189.81100463867188 358.28173828125 231.89353942871094 263.320556640625 199.14883422851562 C 25.281068801879883 223.29608154296875 328.8662414550781 -146.37115478515625 177.202392578125 161.35379028320312 C 364.1107177734375 234.14315795898438 177.86497497558594 24.500816345214844 234.28538513183594 31.070026397705078 C 326.9536437988281 110.29141235351562 312.71441650390625 177.462158203125 291.5701599121094 208.67843627929688"/>
    <path stroke-width="0" fill="rgb(94, 202, -48)" opacity="0.9929818" stroke="rgb(213, 24, 248)" stroke-opacity="1.0" stroke-linecap="round" stroke-linejoin="round" d="M 273.80731201171875 197.42303466796875 C 296.366943359375 200.06422424316406 313.0868835449219 217.8687744140625 169.5990447998047 155.5254364013672 C 230.62037658691406 274.4075927734375 303.2800598144531 100.32563781738281 216.49948120117188 76.31781768798828 C 128.78085327148438 305.11151123046875 183.43429565429688 -28.420940399169922 251.01113891601562 52.51850891113281 C 332.2776184082031 216.0998992919922 203.99917602539062 174.17349243164062 273.80731201171875 197.42303466796875"/>
    <path stroke-width="0" fill="rgb(205, 123, 25)" opacity="0.8504082" stroke="rgb(249, 154, 188)" stroke-opacity="1.0" stroke-linecap="round" stroke-linejoin="round" d="M 317.4388427734375 353.8771667480469 C 333.063232421875 476.9322814941406 368.3067626953125 226.64871215820312 319.82391357421875 387.3671875 C 56.960880279541016 383.44866943359375 189.24349975585938 400.16265869140625 144.849365234375 349.68646240234375 C 214.85018920898438 361.2841491699219 294.15869140625 345.6580810546875 219.25477600097656 360.7288818359375 C 268.12066650390625 351.08526611328125 238.20578002929688 354.3660888671875 317.4388427734375 353.8771667480469"/>
    <path stroke-width="0" fill="rgb(245, 217, 97)" opacity="0.9345185" stroke="rgb(72, 30, 75)" stroke-opacity="1.0" stroke-linecap="round" stroke-linejoin="round" d="M 549.7747192382812 396.637451171875 C 527.7184448242188 423.02093505859375 488.0276184082031 424.0185852050781 437.3554382324219 355.03070068359375 C 430.68359375 476.962646484375 407.7737731933594 623.0122680664062 428.7354431152344 348.99285888671875 C 392.8929748535156 371.06829833984375 432.76361083984375 237.6697540283203 427.0817565917969 302.2350769042969 C 521.5223388671875 331.8050537109375 544.2137451171875 277.741943359375 549.7747192382812 396.637451171875"/>
    <path stroke-width="0" fill="rgb(250, 153, 32)" opacity="0.42056718" stroke="rgb(81, 105, 16)" stroke-opacity="1.0" stroke-linecap="round" stroke-linejoin="round" d="M 551.620361328125 296.1240539550781 C 483.2675476074219 385.33074951171875 446.65838623046875 414.6637268066406 429.1298828125 313.0145568847656 C 441.7940368652344 504.87078857421875 400.4875793457031 594.1777954101562 440.1708984375 354.179443359375 C 415.225830078125 281.49066162109375 430.5957946777344 324.53753662109375 516.89111328125 307.4498596191406 C 518.238037109375 275.54443359375 530.0408325195312 279.0945129394531 551.620361328125 296.1240539550781"/>
    <path stroke-width="0" fill="rgb(193, 248, -10)" opacity="0.93446046" stroke="rgb(144, 67, 133)" stroke-opacity="1.0" stroke-linecap="round" stroke-linejoin="round" d="M 468.95697021484375 263.054443359375 C 492.380126953125 89.2183837890625 494.3629150390625 185.402587890625 421.19537353515625 138.30642700195312 C 438.0782775878906 126.79594421386719 460.9338073730469 153.1907501220703 435.56671142578125 114.00282287597656 C 440.5108947753906 120.9435806274414 467.27020263671875 161.0543212890625 449.0162353515625 136.7430877685547 C 410.1544494628906 29.94287109375 511.6585998535156 155.01939392089844 468.95697021484375 263.054443359375"/>
    <path stroke-width="0" fill="rgb(18, 46, 78)" opacity="1.0248868" stroke="rgb(146, 236, 81)" stroke-opacity="1.0" stroke-linecap="round" stroke-linejoin="round" d="M 552.4287719726562 488.1917419433594 C 553.0545654296875 506.82989501953125 547.32421875 512.4262084960938 530.5869140625 487.58746337890625 C 483.01519775390625 505.50885009765625 489.55035400390625 384.51239013671875 439.37127685546875 424.244140625 C 450.0660705566406 392.40643310546875 435.17071533203125 382.9399108886719 471.01226806640625 394.1633605957031 C 514.0657348632812 401.7775573730469 544.0093994140625 381.652099609375 552.4287719726562 488.1917419433594"/>
    <path stroke-width="0" fill="rgb(25, 70, 80)" opacity="0.44553632" stroke="rgb(33, 182, 73)" stroke-opacity="1.0" stroke-linecap="round" stroke-linejoin="round" d="M 598.210693359375 3.353768825531006 C 593.780029296875 299.51751708984375 555.992919921875 291.2911071777344 463.4479675292969 311.8913269042969 C 401.4141540527344 298.17144775390625 429.58746337890625 316.9383239746094 401.6064758300781 310.6264343261719 C 302.3407897949219 415.1819152832031 294.2951965332031 84.34400177001953 220.93307495117188 -31.706928253173828 C 616.9965209960938 -80.57600402832031 610.6663208007812 -56.13962936401367 598.210693359375 3.353768825531006"/>
    <path stroke-width="0" fill="rgb(238, 233, 106)" opacity="0.9515551" stroke="rgb(149, 5, 211)" stroke-opacity="1.0" stroke-linecap="round" stroke-linejoin="round" d="M 457.87353515625 371.9520568847656 C 441.48309326171875 342.59466552734375 429.26214599609375 355.20025634765625 478.1617431640625 381.4482727050781 C 387.5470275878906 353.6605224609375 445.1217346191406 288.4925231933594 378.6475524902344 546.436767578125 C 418.1379089355469 240.07069396972656 413.7817687988281 322.0220031738281 495.6713562011719 308.1580505371094 C 400.6777648925781 378.6177673339844 424.03546142578125 344.2286682128906 457.87353515625 371.9520568847656"/>
    <path stroke-width="0" fill="rgb(34, 65, 85)" opacity="0.9922195" stroke="rgb(172, 68, 187)" stroke-opacity="1.0" stroke-linecap="round" stroke-linejoin="round" d="M 383.837158203125 157.62820434570312 C 365.09112548828125 614.4314575195312 332.19720458984375 362.19830322265625 335.4488220214844 482.5284423828125 C 281.37249755859375 472.1547546386719 298.9868469238281 495.4334411621094 285.5705261230469 449.78778076171875 C 327.6810607910156 455.1345520019531 311.4505920410156 439.5150451660156 327.8807067871094 482.42657470703125 C 393.189453125 463.3313903808594 406.2043762207031 574.6589965820312 383.837158203125 157.62820434570312"/>
    <path stroke-width="0" fill="rgb(22, 47, 72)" opacity="0.99999285" stroke="rgb(63, 146, 150)" stroke-opacity="1.0" stroke-linecap="round" stroke-linejoin="round" d="M 510.7056579589844 422.254638671875 C 501.3110046386719 393.820556640625 492.0401611328125 427.3539123535156 507.204345703125 459.7510681152344 C 486.064208984375 411.26239013671875 425.1776428222656 443.98309326171875 440.3548889160156 355.36956787109375 C 440.2325134277344 357.9093017578125 428.59100341796875 355.8573913574219 499.7566833496094 356.8192443847656 C 493.4384765625 356.32330322265625 510.80694580078125 372.91802978515625 510.7056579589844 422.254638671875"/>
    <path stroke-width="0" fill="rgb(18, 47, 69)" opacity="0.49877474" stroke="rgb(56, 242, 114)" stroke-opacity="1.0" stroke-linecap="round" stroke-linejoin="round" d="M 513.8270263671875 444.33935546875 C 548.5046997070312 457.67095947265625 548.2293701171875 462.89361572265625 544.4928588867188 449.6866760253906 C 488.46246337890625 406.50543212890625 457.1656494140625 398.93829345703125 436.14788818359375 377.63909912109375 C 434.864013671875 351.8810729980469 434.18902587890625 376.2847595214844 436.4338684082031 457.5525207519531 C 459.7515563964844 378.31805419921875 476.5928039550781 407.3506164550781 513.8270263671875 444.33935546875"/>
    <path stroke-width="0" fill="rgb(146, 167, 194)" opacity="0.84739304" stroke="rgb(178, 75, 207)" stroke-opacity="1.0" stroke-linecap="round" stroke-linejoin="round" d="M 147.042236328125 61.18067169189453 C 187.44947814941406 169.69155883789062 134.85067749023438 190.26841735839844 94.158447265625 113.88229370117188 C 78.98857879638672 102.02765655517578 74.55934143066406 95.71833801269531 71.6506576538086 80.13349151611328 C 108.07898712158203 47.25041961669922 86.12458801269531 65.4537124633789 112.24195098876953 28.11519432067871 C 136.8974609375 48.589111328125 153.72125244140625 61.90018081665039 147.042236328125 61.18067169189453"/>
    <path stroke-width="0" fill="rgb(23, 58, 93)" opacity="0.9999488" stroke="rgb(224, 148, 224)" stroke-opacity="1.0" stroke-linecap="round" stroke-linejoin="round" d="M 282.9453430175781 442.1629333496094 C 272.4330139160156 458.43743896484375 283.09033203125 461.5317077636719 283.1273193359375 479.37286376953125 C 157.77182006835938 478.72723388671875 194.7735595703125 480.4723815917969 207.04605102539062 451.73016357421875 C 191.14010620117188 449.17388916015625 304.3590393066406 452.03173828125 274.01934814453125 449.27587890625 C 283.0159912109375 450.5788269042969 272.8866882324219 459.8238830566406 282.9453430175781 442.1629333496094"/>
    <path stroke-width="0" fill="rgb(130, 134, 140)" opacity="0.8925831" stroke="rgb(184, 127, 243)" stroke-opacity="1.0" stroke-linecap="round" stroke-linejoin="round" d="M 143.4754638671875 27.10503387451172 C 140.59710693359375 37.38282775878906 133.56552124023438 45.06916809082031 123.2838363647461 47.66836166381836 C 65.73505401611328 45.40314483642578 59.337806701660156 38.21884536743164 58.52389144897461 25.981460571289062 C 83.2388916015625 -5.500377178192139 90.2312240600586 -13.133284568786621 99.56011962890625 -15.674442291259766 C 107.1390609741211 -10.974496841430664 112.2121810913086 -1.9253036975860596 143.4754638671875 27.10503387451172"/>
    <path stroke-width="0" fill="rgb(146, 157, 165)" opacity="1.0456738" stroke="rgb(108, 154, 4)" stroke-opacity="1.0" stroke-linecap="round" stroke-linejoin="round" d="M 76.99918365478516 7.00598669052124 C 75.1081314086914 16.255847930908203 68.63069152832031 24.465309143066406 59.639305114746094 27.40092658996582 C 50.372718811035156 24.951005935668945 42.9677734375 17.661211013793945 38.08774185180664 7.224852085113525 C 39.98747253417969 -3.115084409713745 48.42144775390625 -10.00401496887207 59.67328643798828 -12.086045265197754 C 69.6331787109375 -9.103961944580078 76.31016540527344 -1.4279190301895142 76.99918365478516 7.00598669052124"/>
    <path stroke-width="0" fill="rgb(112, 123, 136)" opacity="0.9674378" stroke="rgb(168, 73, 157)" stroke-opacity="1.0" stroke-linecap="round" stroke-linejoin="round" d="M 72.09107208251953 16.500099182128906 C 70.03201293945312 27.05666160583496 63.203453063964844 34.49421691894531 48.0225715637207 45.20809555053711 C 21.35014533996582 48.12863540649414 12.257226943969727 49.04742431640625 43.28045654296875 38.396297454833984 C 61.14079284667969 19.689775466918945 60.13016128540039 15.98314094543457 37.73768997192383 -21.049877166748047 C 61.846187591552734 -1.268302083015442 68.86016845703125 6.375953197479248 72.09107208251953 16.500099182128906"/>
    <path stroke-width="0" fill="rgb(75, 107, 114)" opacity="0.5509941" stroke="rgb(34, 76, 145)" stroke-opacity="1.0" stroke-linecap="round" stroke-linejoin="round" d="M 222.98403930664062 13.94618034362793 C 166.71560668945312 87.86219024658203 133.57655334472656 79.16382598876953 114.89871215820312 104.92993927001953 C 84.54278564453125 111.35936737060547 79.51725006103516 103.9111328125 95.41807556152344 91.57283020019531 C 95.16441345214844 46.57054901123047 102.25286102294922 39.56155776977539 119.0567855834961 -8.00850772857666 C 153.80174255371094 -35.10004806518555 204.72447204589844 -41.47893524169922 222.98403930664062 13.94618034362793"/>
    <path stroke-width="0" fill="rgb(112, 110, 97)" opacity="0.86846584" stroke="rgb(146, 166, 166)" stroke-opacity="1.0" stroke-linecap="round" stroke-linejoin="round" d="M 168.6959686279297 245.86795043945312 C 176.61436462402344 207.77012634277344 124.85150909423828 211.9117889404297 47.16605758666992 193.17579650878906 C 36.99614715576172 189.66331481933594 31.26698112487793 182.12478637695312 40.51610565185547 143.4242706298828 C 58.9291877746582 86.28399658203125 66.34931182861328 79.13863372802734 61.677001953125 97.86360168457031 C 121.24925231933594 108.75310516357422 25.142240524291992 188.70506286621094 168.6959686279297 245.86795043945312"/>
    <path stroke-width="0" fill="rgb(218, 216, 192)" opacity="0.35417342" stroke="rgb(228, 93, 111)" stroke-opacity="1.0" stroke-linecap="round" stroke-linejoin="round" d="M 223.46286010742188 36.91550827026367 C 188.3343048095703 38.030540466308594 154.90719604492188 153.86270141601562 164.97108459472656 166.81723022460938 C 48.028648376464844 146.3020477294922 103.0044174194336 60.685211181640625 85.24093627929688 15.891396522521973 C 86.9278335571289 6.276664733886719 94.2809829711914 -1.0239250659942627 108.29448699951172 -4.891501426696777 C 170.75726318359375 -17.308834075927734 187.83053588867188 -59.5446662902832 223.46286010742188 36.91550827026367"/>
    <path stroke-width="0" fill="rgb(118, 132, 136)" opacity="0.9069953" stroke="rgb(205, 179, 25)" stroke-opacity="1.0" stroke-linecap="round" stroke-linejoin="round" d="M 85.64166259765625 45.23640060424805 C 35.3929443359375 73.4345932006836 33.37689208984375 82.57984924316406 -11.519251823425293 136.5072479248047 C -23.76293182373047 138.65989685058594 -30.73976707458496 131.9322509765625 -32.73958969116211 110.23860168457031 C -19.20869255065918 31.505718231201172 -11.243257522583008 24.952621459960938 62.47885513305664 26.273475646972656 C 75.11463928222656 25.839527130126953 82.27442932128906 32.54113006591797 85.64166259765625 45.23640060424805"/>
    <path stroke-width="0" fill="rgb(122, 149, 141)" opacity="1.0143209" stroke="rgb(182, 254, 38)" stroke-opacity="1.0" stroke-linecap="round" stroke-linejoin="round" d="M 229.56768798828125 230.49114990234375 C 169.509033203125 235.97528076171875 133.38748168945312 339.0523986816406 148.65838623046875 330.5338134765625 C -52.012451171875 333.6576232910156 -19.520292282104492 295.7651062011719 -13.016837120056152 199.333251953125 C -4.023492336273193 132.67108154296875 -2.077420711517334 119.07168579101562 49.63343048095703 108.90359497070312 C 124.05535125732422 109.568115234375 128.94898986816406 131.4513397216797 229.56768798828125 230.49114990234375"/>
    <path stroke-width="0" fill="rgb(128, 148, 140)" opacity="0.96863204" stroke="rgb(41, 156, 31)" stroke-opacity="1.0" stroke-linecap="round" stroke-linejoin="round" d="M 67.93894958496094 67.14004516601562 C 65.16282653808594 78.0660400390625 58.05519104003906 85.42127990722656 -4.391043663024902 92.0368881225586 C -18.30956268310547 92.00404357910156 -28.15337371826172 88.30581665039062 -30.40452766418457 79.21770477294922 C -26.784635543823242 3.3494513034820557 -18.000425338745117 -3.135021209716797 -10.244364738464355 -3.6142778396606445 C 56.96223068237305 4.673341274261475 63.723026275634766 11.142903327941895 67.93894958496094 67.14004516601562"/>
    <path stroke-width="0" fill="rgb(140, 130, 152)" opacity="0.9548794" stroke="rgb(205, 145, 103)" stroke-opacity="1.0" stroke-linecap="round" stroke-linejoin="round" d="M 90.35765838623047 69.46512603759766 C 57.47041702270508 78.90538024902344 73.01539611816406 81.84122467041016 60.92475128173828 127.8341064453125 C 50.523292541503906 124.8736572265625 43.6164436340332 117.12260437011719 34.91170883178711 53.48855209350586 C 35.60947036743164 41.707237243652344 41.58610534667969 33.91318893432617 50.01820373535156 32.01756286621094 C 92.68470001220703 67.71551513671875 99.77005767822266 74.87002563476562 90.35765838623047 69.46512603759766"/>
    <path stroke-width="0" fill="rgb(127, 138, 146)" opacity="0.9430076" stroke="rgb(177, 115, 184)" stroke-opacity="1.0" stroke-linecap="round" stroke-linejoin="round" d="M 115.89540100097656 33.10856246948242 C 115.37741088867188 44.33464050292969 108.5250473022461 51.7698860168457 97.10865020751953 54.241092681884766 C 62.38703918457031 24.890214920043945 54.92788314819336 17.71378517150879 49.588783264160156 8.472593307495117 C 55.74399185180664 -0.64717036485672 62.656063079833984 -8.695396423339844 72.0892562866211 -11.953092575073242 C 81.66915130615234 -9.041046142578125 88.5490951538086 -1.2870969772338867 115.89540100097656 33.10856246948242"/>
    <path stroke-width="0" fill="rgb(129, 147, 140)" opacity="0.89072794" stroke="rgb(248, 218, 2)" stroke-opacity="1.0" stroke-linecap="round" stroke-linejoin="round" d="M 111.89458465576172 15.553104400634766 C 36.173789978027344 20.268203735351562 104.41268920898438 79.87310028076172 35.654476165771484 95.32477569580078 C 26.516956329345703 88.66810607910156 18.690959930419922 81.54566955566406 14.452105522155762 71.61935424804688 C 50.369110107421875 29.93821144104004 58.76090621948242 24.20364761352539 93.06745147705078 -4.28177547454834 C 104.64012908935547 -4.3494181632995605 111.274658203125 3.6305630207061768 111.89458465576172 15.553104400634766"/>
    <path stroke-width="0" fill="rgb(151, 151, 155)" opacity="1.0150676" stroke="rgb(186, 43, 132)" stroke-opacity="1.0" stroke-linecap="round" stroke-linejoin="round" d="M 104.42605590820312 136.9957733154297 C 105.670166015625 149.6112518310547 104.44281005859375 162.30697631835938 95.2979507446289 176.4108123779297 C 10.104776382446289 168.75424194335938 10.155036926269531 158.46238708496094 23.049850463867188 135.8902130126953 C 42.189762115478516 97.79933166503906 50.19930648803711 90.92508697509766 82.8115463256836 64.95869445800781 C 94.0635757446289 66.54200744628906 101.40389251708984 74.10942840576172 104.42605590820312 136.9957733154297"/>
    <path stroke-width="0" fill="rgb(121, 150, 140)" opacity="0.9776616" stroke="rgb(50, 4, 202)" stroke-opacity="1.0" stroke-linecap="round" stroke-linejoin="round" d="M 167.54994201660156 230.44158935546875 C 324.7003479003906 173.9510040283203 653.26513671875 284.277587890625 141.72982788085938 264.60284423828125 C -14.179437637329102 234.39271545410156 31.251060485839844 192.35833740234375 52.701385498046875 165.92184448242188 C 97.90701293945312 112.5596694946289 95.7638931274414 113.34821319580078 72.69086456298828 96.06439971923828 C 86.68040466308594 156.31260681152344 152.50582885742188 68.21297454833984 167.54994201660156 230.44158935546875"/>
    <path stroke-width="0" fill="rgb(127, 146, 127)" opacity="0.9555865" stroke="rgb(88, 236, 179)" stroke-opacity="1.0" stroke-linecap="round" stroke-linejoin="round" d="M 131.74179077148438 29.343048095703125 C 112.6738510131836 57.44574737548828 105.93376159667969 65.8253402709961 99.11792755126953 66.60588073730469 C 88.20030212402344 63.10289764404297 86.96651458740234 52.327117919921875 61.871150970458984 23.659406661987305 C 55.60393142700195 14.804679870605469 63.23893356323242 8.018465042114258 73.81752014160156 4.1865925788879395 C 129.860107421875 6.155924320220947 136.40406799316406 14.303282737731934 131.74179077148438 29.343048095703125"/>
    <path stroke-width="0" fill="rgb(179, 140, 158)" opacity="0.8964935" stroke="rgb(41, 158, 147)" stroke-opacity="1.0" stroke-linecap="round" stroke-linejoin="round" d="M 113.21324920654297 86.75115203857422 C 86.0467758178711 191.089111328125 165.83468627929688 172.3312530517578 116.78353118896484 120.29598236083984 C 64.93595886230469 149.48779296875 58.37473678588867 138.21168518066406 55.224395751953125 127.0122299194336 C 69.56951904296875 85.27516174316406 86.20063781738281 84.96566009521484 126.0558853149414 60.973663330078125 C 136.7389373779297 60.72899627685547 146.85414123535156 66.25084686279297 113.21324920654297 86.75115203857422"/>
    <path stroke-width="0" fill="rgb(126, 150, 134)" opacity="0.9738748" stroke="rgb(238, 156, 136)" stroke-opacity="1.0" stroke-linecap="round" stroke-linejoin="round" d="M 93.11209869384766 34.131202697753906 C 57.32498550415039 58.1178092956543 66.33961486816406 63.41316604614258 76.33211517333984 76.96305084228516 C 14.157571792602539 73.29058074951172 26.22303009033203 65.13258361816406 -1.4353315830230713 2.9681718349456787 C 0.6167176961898804 -8.219541549682617 7.70470666885376 -15.566514015197754 20.75890350341797 -18.534257888793945 C 60.91613006591797 13.125417709350586 59.29315185546875 11.780243873596191 93.11209869384766 34.131202697753906"/>
    <path stroke-width="0" fill="rgb(126, 148, 132)" opacity="0.87142116" stroke="rgb(186, 79, 101)" stroke-opacity="1.0" stroke-linecap="round" stroke-linejoin="round" d="M 71.76565551757812 2.789623498916626 C 65.24976348876953 10.875795364379883 48.22959899902344 6.873284339904785 14.012763023376465 53.681888580322266 C -0.29202818870544434 50.75055694580078 -8.776119232177734 44.863529205322266 -32.02067565917969 10.77840805053711 C -11.457196235656738 -50.801475524902344 3.0080111026763916 -43.40044403076172 33.170867919921875 -33.32888412475586 C 54.89607238769531 -18.002782821655273 63.79052734375 -12.077306747436523 71.76565551757812 2.789623498916626"/>
    <path stroke-width="0" fill="rgb(124, 149, 140)" opacity="0.73574764" stroke="rgb(47, 240, 188)" stroke-opacity="1.0" stroke-linecap="round" stroke-linejoin="round" d="M 147.07107543945312 42.394134521484375 C 173.79466247558594 120.60237121582031 168.826171875 65.37380981445312 134.99423217773438 87.84075927734375 C 104.30180358886719 59.917747497558594 98.22339630126953 52.88492965698242 70.45906829833984 29.091028213500977 C 68.16412353515625 14.789657592773438 74.533447265625 6.998305797576904 88.62586212158203 4.688875198364258 C 139.72909545898438 8.38802719116211 153.49099731445312 13.470673561096191 147.07107543945312 42.394134521484375"/>
    <path stroke-width="0" fill="rgb(126, 148, 136)" opacity="1.0049165" stroke="rgb(57, 64, 14)" stroke-opacity="1.0" stroke-linecap="round" stroke-linejoin="round" d="M 118.03299713134766 164.19041442871094 C 110.80909729003906 177.68154907226562 104.16963195800781 185.22634887695312 42.20268249511719 185.03582763671875 C -22.701675415039062 178.3639373779297 -33.55673599243164 175.16871643066406 -37.28617477416992 136.7830352783203 C -12.992935180664062 67.99044036865234 -1.5740251541137695 63.377357482910156 21.05755615234375 62.274009704589844 C 39.08524703979492 126.30462646484375 71.88583374023438 86.37568664550781 118.03299713134766 164.19041442871094"/>
    <path stroke-width="0" fill="rgb(167, 156, 172)" opacity="0.5442685" stroke="rgb(79, 177, 96)" stroke-opacity="1.0" stroke-linecap="round" stroke-linejoin="round" d="M 163.39039611816406 56.63575744628906 C 116.75696563720703 78.66326141357422 128.017333984375 97.41344451904297 114.17733001708984 109.27880859375 C 77.86995697021484 99.38487243652344 85.59886932373047 80.28982543945312 86.0323486328125 72.63614654541016 C 84.22286224365234 44.56482696533203 86.64006805419922 74.54631805419922 84.85722351074219 54.97488784790039 C 100.70653533935547 51.5167236328125 61.15156173706055 38.93891143798828 163.39039611816406 56.63575744628906"/>
    <path stroke-width="0" fill="rgb(125, 147, 141)" opacity="0.8810069" stroke="rgb(6, 17, 173)" stroke-opacity="1.0" stroke-linecap="round" stroke-linejoin="round" d="M 154.66580200195312 31.234844207763672 C 85.38865661621094 8.67990493774414 86.5560073852539 12.57039737701416 68.79301452636719 44.163326263427734 C 61.66410446166992 37.58207702636719 56.31122589111328 30.935041427612305 65.66223907470703 12.496003150939941 C 74.1329116821289 -10.546310424804688 81.18717956542969 -17.97347640991211 104.41437530517578 -37.73178482055664 C 90.78670501708984 -1.4468425512313843 115.51974487304688 -11.82955265045166 154.66580200195312 31.234844207763672"/>
    <path stroke-width="0" fill="rgb(123, 149, 137)" opacity="0.87181926" stroke="rgb(136, 228, 252)" stroke-opacity="1.0" stroke-linecap="round" stroke-linejoin="round" d="M 66.40457916259766 156.21646118164062 C 62.45425796508789 228.3539581298828 59.151493072509766 238.0740509033203 25.8717041015625 256.5067443847656 C -64.6147232055664 246.3087158203125 -65.43228149414062 235.1435546875 -46.54587173461914 190.44996643066406 C -51.45711898803711 127.693359375 -45.941383361816406 118.31744384765625 -0.14477212727069855 94.3459701538086 C 64.28670501708984 101.36550903320312 69.90374755859375 108.80997467041016 66.40457916259766 156.21646118164062"/>
    <path stroke-width="0" fill="rgb(78, 135, 92)" opacity="0.7629317" stroke="rgb(169, 67, 5)" stroke-opacity="1.0" stroke-linecap="round" stroke-linejoin="round" d="M 933.51220703125 228.85568237304688 C 530.47021484375 317.4264221191406 419.52764892578125 162.46803283691406 395.46722412109375 348.5096435546875 C 227.5448455810547 242.7156219482422 400.0525207519531 124.43067932128906 477.48687744140625 158.96665954589844 C 489.1460876464844 -17.991411209106445 357.0406494140625 394.6121520996094 371.2693176269531 -1.0967437028884888 C 572.5486450195312 -65.4778823852539 602.8023071289062 -29.20888328552246 933.51220703125 228.85568237304688"/>
    <path stroke-width="0" fill="rgb(127, 149, 140)" opacity="0.9277555" stroke="rgb(81, 97, 150)" stroke-opacity="1.0" stroke-linecap="round" stroke-linejoin="round" d="M 164.80580139160156 19.429414749145508 C 189.23899841308594 34.38873291015625 172.57791137695312 40.16446304321289 115.06747436523438 46.60066604614258 C 104.27735900878906 39.64520263671875 95.87161254882812 31.787063598632812 91.21943664550781 18.86791229248047 C 114.31867980957031 -14.221684455871582 122.9952163696289 -20.286758422851562 151.78170776367188 -32.55162048339844 C 160.55950927734375 -30.607894897460938 145.8428497314453 -4.7145771980285645 164.80580139160156 19.429414749145508"/>
    <path stroke-width="0" fill="rgb(118, 152, 136)" opacity="1.0000927" stroke="rgb(160, 222, 69)" stroke-opacity="1.0" stroke-linecap="round" stroke-linejoin="round" d="M 225.737060546875 -75.52718353271484 C 135.87374877929688 190.4887237548828 161.4926300048828 161.76182556152344 227.44952392578125 218.1311798095703 C -25.27891731262207 230.44271850585938 43.10934829711914 144.02337646484375 22.4168758392334 145.26564025878906 C 108.66738891601562 94.55038452148438 77.10301208496094 64.53411102294922 163.83250427246094 0.9830714464187622 C 247.61514282226562 61.095943450927734 383.5469665527344 82.42262268066406 225.737060546875 -75.52718353271484"/>
    <path stroke-width="0" fill="rgb(125, 149, 137)" opacity="1.0063088" stroke="rgb(47, 242, 175)" stroke-opacity="1.0" stroke-linecap="round" stroke-linejoin="round" d="M 95.18665313720703 56.12406921386719 C 90.40380096435547 118.18379974365234 83.59485626220703 127.13687133789062 41.74065017700195 118.92507934570312 C 19.724315643310547 117.72669219970703 17.041248321533203 106.8293685913086 29.86482810974121 63.5361328125 C -0.8306271433830261 45.5728645324707 13.04594612121582 50.5869255065918 75.5701675415039 28.76689338684082 C 88.82012176513672 35.51778793334961 94.13395690917969 43.996578216552734 95.18665313720703 56.12406921386719"/>
    <path stroke-width="0" fill="rgb(125, 147, 137)" opacity="0.94760895" stroke="rgb(241, 186, 64)" stroke-opacity="1.0" stroke-linecap="round" stroke-linejoin="round" d="M 115.9720458984375 46.74417495727539 C 119.27791595458984 76.25723266601562 106.1029281616211 75.9696273803711 68.89285278320312 100.4166259765625 C 58.47566223144531 100.76319122314453 51.76862716674805 93.30998992919922 51.448448181152344 84.62010192871094 C 103.12937927246094 74.21273040771484 87.94461822509766 59.94557571411133 76.1579818725586 28.255619049072266 C 100.60211944580078 44.218082427978516 112.65898895263672 48.245914459228516 115.9720458984375 46.74417495727539"/>
    <path stroke-width="0" fill="rgb(67, 96, 134)" opacity="0.60865855" stroke="rgb(132, 6, 52)" stroke-opacity="1.0" stroke-linecap="round" stroke-linejoin="round" d="M 231.7796630859375 14.445032119750977 C 401.8446350097656 224.23568725585938 259.7895812988281 265.5927429199219 202.71124267578125 194.8958282470703 C 213.90907287597656 233.31382751464844 314.7125244140625 204.22569274902344 266.8316650390625 209.9825439453125 C 296.4009704589844 213.60218811035156 280.52606201171875 200.69557189941406 176.20997619628906 210.1711883544922 C 271.51629638671875 206.24818420410156 332.9624328613281 178.5928955078125 231.7796630859375 14.445032119750977"/>
    <path stroke-width="0" fill="rgb(124, 148, 120)" opacity="0.5910815" stroke="rgb(95, 118, 70)" stroke-opacity="1.0" stroke-linecap="round" stroke-linejoin="round" d="M 110.22966766357422 276.0942687988281 C 103.38607025146484 459.27374267578125 149.49838256835938 409.4165954589844 -0.8893126845359802 441.03192138671875 C -36.38462829589844 337.1404113769531 -36.57653045654297 324.3808898925781 -35.94852066040039 275.1544494628906 C -41.400962829589844 197.63021850585938 -41.09809494018555 183.4933319091797 -10.935903549194336 182.55828857421875 C 95.7451400756836 188.79844665527344 101.87456512451172 198.6772003173828 110.22966766357422 276.0942687988281"/>
    <path stroke-width="0" fill="rgb(177, 158, 47)" opacity="0.7670985" stroke="rgb(220, 29, 131)" stroke-opacity="1.0" stroke-linecap="round" stroke-linejoin="round" d="M 522.7539672851562 336.5133972167969 C 470.4739685058594 353.9580993652344 476.77349853515625 312.6082458496094 465.1025390625 316.2420959472656 C 463.66192626953125 344.6722106933594 458.81396484375 363.9053039550781 465.4264221191406 306.1398620605469 C 458.91827392578125 304.88665771484375 470.476318359375 333.2767333984375 562.7621459960938 319.3879699707031 C 515.870361328125 302.6154479980469 489.4631652832031 314.3094177246094 522.7539672851562 336.5133972167969"/>
    <path stroke-width="0" fill="rgb(237, 121, 94)" opacity="0.4834919" stroke="rgb(140, 149, 245)" stroke-opacity="1.0" stroke-linecap="round" stroke-linejoin="round" d="M 571.189697265625 356.1517333984375 C 577.4329223632812 368.8225402832031 550.9183959960938 363.7747497558594 440.6868896484375 349.7810974121094 C 472.974853515625 330.4066467285156 482.6756286621094 321.888916015625 509.68353271484375 298.76397705078125 C 533.5587158203125 285.10748291015625 511.8401794433594 311.1180114746094 520.8947143554688 305.3011169433594 C 525.5113525390625 291.9359130859375 521.249755859375 311.6423645019531 571.189697265625 356.1517333984375"/>
    <path stroke-width="0" fill="rgb(88, 128, 95)" opacity="0.7303918" stroke="rgb(170, 200, 71)" stroke-opacity="1.0" stroke-linecap="round" stroke-linejoin="round" d="M 444.31195068359375 185.11199951171875 C 437.8981628417969 186.74386596679688 429.315185546875 195.9038543701172 444.82598876953125 186.3114013671875 C 443.0059814453125 207.4796600341797 464.06390380859375 206.4458465576172 432.08111572265625 198.13951110839844 C 457.8491516113281 182.16087341308594 463.33929443359375 161.7064971923828 467.2193908691406 205.21047973632812 C 428.00433349609375 178.47555541992188 442.9401550292969 202.46209716796875 444.31195068359375 185.11199951171875"/>
    <path stroke-width="0" fill="rgb(118, 190, 79)" opacity="0.8409524" stroke="rgb(16, 123, 249)" stroke-opacity="1.0" stroke-linecap="round" stroke-linejoin="round" d="M 461.2286071777344 161.16326904296875 C 493.8828430175781 170.51072692871094 498.34234619140625 154.42739868164062 468.0985412597656 201.5620574951172 C 473.1876525878906 153.89137268066406 478.1736145019531 135.53807067871094 482.4143981933594 117.8396224975586 C 462.3197937011719 192.14907836914062 473.742431640625 160.04141235351562 477.26336669921875 152.51177978515625 C 469.7547607421875 159.95492553710938 479.0619201660156 179.24322509765625 461.2286071777344 161.16326904296875"/>
    <path stroke-width="0" fill="rgb(125, 192, 65)" opacity="0.89931685" stroke="rgb(86, 245, 59)" stroke-opacity="1.0" stroke-linecap="round" stroke-linejoin="round" d="M 470.67840576171875 121.07513427734375 C 442.9694519042969 62.957210540771484 422.5518493652344 131.8191680908203 460.5267333984375 135.00765991210938 C 497.5492858886719 155.65402221679688 469.321533203125 165.298095703125 469.322509765625 144.72705078125 C 484.1636047363281 119.94743347167969 481.1954650878906 131.1300048828125 463.8132019042969 137.1014404296875 C 452.0364990234375 149.02072143554688 459.5794372558594 160.66014099121094 470.67840576171875 121.07513427734375"/>
    <path stroke-width="0" fill="rgb(248, 186, 113)" opacity="0.9065368" stroke="rgb(240, 203, 160)" stroke-opacity="1.0" stroke-linecap="round" stroke-linejoin="round" d="M 452.6704406738281 350.1624755859375 C 419.5652160644531 343.6246337890625 405.6355285644531 351.7445373535156 428.8564453125 343.7318115234375 C 423.7417907714844 351.05084228515625 424.6351013183594 346.2462158203125 415.0649719238281 361.8377685546875 C 409.4495544433594 428.8659973144531 414.7837829589844 373.2195739746094 417.35491943359375 351.7349548339844 C 381.8502197265625 330.4606018066406 366.27191162109375 374.20355224609375 452.6704406738281 350.1624755859375"/>
    <path stroke-width="0" fill="rgb(107, 179, 56)" opacity="0.8060568" stroke="rgb(74, 216, 157)" stroke-opacity="1.0" stroke-linecap="round" stroke-linejoin="round" d="M 459.50933837890625 127.71275329589844 C 456.59466552734375 156.21726989746094 458.00347900390625 171.0782470703125 464.8299255371094 164.3004913330078 C 476.26055908203125 170.13021850585938 472.88165283203125 146.2073974609375 455.707275390625 194.78359985351562 C 466.6319274902344 134.5282440185547 482.3971252441406 126.49079895019531 459.704833984375 136.01731872558594 C 454.5296630859375 150.2959442138672 437.1461181640625 166.3887176513672 459.50933837890625 127.71275329589844"/>
    <path stroke-width="0" fill="rgb(30, 62, 75)" opacity="0.7254671" stroke="rgb(88, 37, 250)" stroke-opacity="1.0" stroke-linecap="round" stroke-linejoin="round" d="M 382.65753173828125 412.05975341796875 C 383.1130065917969 357.446533203125 378.6651611328125 374.233642578125 393.7846984863281 369.693603515625 C 355.3741149902344 390.9050598144531 401.2928466796875 453.3416748046875 396.59765625 413.97235107421875 C 419.7496337890625 298.82440185546875 372.9006042480469 397.6894226074219 385.1920166015625 362.5594787597656 C 356.9054870605469 398.44439697265625 371.8765563964844 418.1980285644531 382.65753173828125 412.05975341796875"/>
    <path stroke-width="0" fill="rgb(147, 98, 95)" opacity="0.66418874" stroke="rgb(126, 163, 93)" stroke-opacity="1.0" stroke-linecap="round" stroke-linejoin="round" d="M 562.6272583007812 297.97174072265625 C 503.48260498046875 338.0379638671875 496.94610595703125 343.2876892089844 574.2178344726562 309.8092041015625 C 482.1658630371094 333.2171936035156 448.3204040527344 304.244873046875 495.02850341796875 311.91552734375 C 525.29931640625 332.2608642578125 526.7455444335938 331.48736572265625 488.0643005371094 290.71417236328125 C 474.7750549316406 277.2167663574219 516.5193481445312 275.0043640136719 562.6272583007812 297.97174072265625"/>
    <path stroke-width="0" fill="rgb(99, 108, 109)" opacity="0.48889726" stroke="rgb(209, 48, 130)" stroke-opacity="1.0" stroke-linecap="round" stroke-linejoin="round" d="M 478.17999267578125 155.92184448242188 C 484.8324279785156 148.08721923828125 469.51922607421875 133.23487854003906 427.8663330078125 177.87478637695312 C 448.6470642089844 159.441650390625 447.2294006347656 134.9589080810547 439.12603759765625 171.9905242919922 C 459.60498046875 174.6434783935547 454.32696533203125 125.59779357910156 478.1894226074219 123.09151458740234 C 429.63128662109375 147.44505310058594 418.0833740234375 179.36009216308594 478.17999267578125 155.92184448242188"/>
    <path stroke-width="0" fill="rgb(95, 127, 81)" opacity="0.53129596" stroke="rgb(24, 219, 248)" stroke-opacity="1.0" stroke-linecap="round" stroke-linejoin="round" d="M 443.9470520019531 187.7386932373047 C 459.98150634765625 194.0930633544922 419.593505859375 199.4344024658203 446.9209899902344 224.12367248535156 C 432.3523254394531 186.60646057128906 441.2518310546875 177.62933349609375 449.7414855957031 195.5012969970703 C 426.3669128417969 199.33230590820312 445.84893798828125 197.8173065185547 444.97393798828125 184.8114471435547 C 404.8365478515625 199.0227508544922 453.4148864746094 214.50144958496094 443.9470520019531 187.7386932373047"/>
    <path stroke-width="0" fill="rgb(252, 212, 119)" opacity="0.9821895" stroke="rgb(231, 197, 84)" stroke-opacity="1.0" stroke-linecap="round" stroke-linejoin="round" d="M 154.5413818359375 517.4136962890625 C 143.43209838867188 512.8046264648438 171.0685272216797 509.3028259277344 143.00057983398438 497.5108947753906 C 129.66973876953125 492.234130859375 162.9582977294922 474.459716796875 164.5853271484375 477.5852966308594 C 128.49293518066406 493.3409423828125 140.6469268798828 504.5556945800781 144.44480895996094 449.9144592285156 C 173.8633575439453 450.62396240234375 147.00502014160156 443.7086181640625 154.5413818359375 517.4136962890625"/>
    <path stroke-width="0" fill="rgb(68, 113, 85)" opacity="0.91812354" stroke="rgb(103, 59, 33)" stroke-opacity="1.0" stroke-linecap="round" stroke-linejoin="round" d="M 522.040771484375 193.06112670898438 C 484.71795654296875 125.60203552246094 481.19134521484375 134.0762176513672 478.8962097167969 91.10903930664062 C 470.1695861816406 127.00594329833984 431.8542175292969 117.34003448486328 471.1455993652344 194.3996124267578 C 473.091064453125 156.97227478027344 467.9232177734375 148.9946746826172 512.8878173828125 129.94078063964844 C 449.9491882324219 155.33982849121094 514.9893798828125 142.1826629638672 522.040771484375 193.06112670898438"/>
    <path stroke-width="0" fill="rgb(241, 206, 172)" opacity="0.8368224" stroke="rgb(185, 2, 196)" stroke-opacity="1.0" stroke-linecap="round" stroke-linejoin="round" d="M 236.26263427734375 163.05616760253906 C 238.3566436767578 126.49243927001953 238.5609588623047 140.6194610595703 231.7575225830078 138.2969512939453 C 247.04345703125 170.8372802734375 193.66717529296875 168.00852966308594 208.8487091064453 142.03724670410156 C 213.00656127929688 114.52848815917969 227.06292724609375 103.23161315917969 238.4054412841797 134.57052612304688 C 235.25177001953125 158.76438903808594 232.99728393554688 176.2178192138672 236.26263427734375 163.05616760253906"/>
    <path stroke-width="0" fill="rgb(178, 160, 107)" opacity="0.5526575" stroke="rgb(20, 22, 171)" stroke-opacity="1.0" stroke-linecap="round" stroke-linejoin="round" d="M 574.4981689453125 498.4125061035156 C 380.695068359375 490.9375305175781 381.1489562988281 508.0107727050781 399.77996826171875 479.2929992675781 C 385.5265197753906 493.3703308105469 398.7166748046875 493.6769714355469 388.030029296875 498.4926452636719 C 400.88763427734375 470.4875793457031 398.3498840332031 475.7890930175781 396.10443115234375 482.0191955566406 C 393.4087219238281 502.8595275878906 349.8031005859375 492.11932373046875 574.4981689453125 498.4125061035156"/>
    <path stroke-width="0" fill="rgb(106, 172, 77)" opacity="0.36362556" stroke="rgb(107, 142, 219)" stroke-opacity="1.0" stroke-linecap="round" stroke-linejoin="round" d="M 471.46319580078125 160.95753479003906 C 463.5068359375 151.2421112060547 430.07763671875 195.9675750732422 433.1987609863281 170.37818908691406 C 449.5423889160156 164.7372589111328 435.8597412109375 159.70498657226562 431.4486999511719 186.28924560546875 C 421.74658203125 203.01513671875 434.7646179199219 183.43382263183594 457.39111328125 173.36654663085938 C 469.8504333496094 193.73915100097656 456.35687255859375 150.82235717773438 471.46319580078125 160.95753479003906"/>
    <path stroke-width="0" fill="rgb(267, 283, 166)" opacity="0.8688927" stroke="rgb(68, 33, 14)" stroke-opacity="1.0" stroke-linecap="round" stroke-linejoin="round" d="M 227.62037658691406 86.00040435791016 C 226.712158203125 74.30904388427734 244.69923400878906 100.98985290527344 249.4413299560547 149.84764099121094 C 254.95416259765625 163.6680908203125 193.33473205566406 172.00054931640625 198.4362030029297 135.11289978027344 C 207.3546905517578 70.90078735351562 236.07354736328125 57.619632720947266 225.3800811767578 95.39207458496094 C 222.34446716308594 108.63925170898438 222.58853149414062 107.20877838134766 227.62037658691406 86.00040435791016"/>
    <path stroke-width="0" fill="rgb(185, 194, 67)" opacity="0.13605602" stroke="rgb(66, 116, 174)" stroke-opacity="1.0" stroke-linecap="round" stroke-linejoin="round" d="M 512.7150268554688 296.58563232421875 C 552.3450927734375 330.255615234375 490.79632568359375 303.5716857910156 467.452880859375 321.53082275390625 C 512.1357421875 333.3409729003906 473.1341857910156 310.3753967285156 477.80303955078125 343.1913146972656 C 485.62347412109375 342.60174560546875 483.4950866699219 338.2801818847656 430.35357666015625 339.0907897949219 C 508.08929443359375 365.6888427734375 507.5256042480469 322.50579833984375 512.7150268554688 296.58563232421875"/>
    <path stroke-width="0" fill="rgb(79, 71, 45)" opacity="0.64699394" stroke="rgb(72, 96, 46)" stroke-opacity="1.0" stroke-linecap="round" stroke-linejoin="round" d="M 509.81512451171875 304.1119079589844 C 484.20623779296875 278.6333312988281 469.1406555175781 296.0413513183594 484.1947937011719 275.4739685058594 C 471.70806884765625 309.06683349609375 452.4367370605469 297.8173522949219 478.04510498046875 321.9495544433594 C 471.6998596191406 330.3029479980469 484.5887145996094 314.5692443847656 456.9990234375 302.4342956542969 C 462.73077392578125 296.7051086425781 499.32958984375 286.8350830078125 509.81512451171875 304.1119079589844"/>
    <path stroke-width="0" fill="rgb(116, 211, -43)" opacity="0.82835454" stroke="rgb(109, 130, 136)" stroke-opacity="1.0" stroke-linecap="round" stroke-linejoin="round" d="M 243.57669067382812 58.7071533203125 C 219.6555938720703 72.25370788574219 194.47059631347656 103.21308898925781 186.5397491455078 96.27547454833984 C 196.75146484375 160.51168823242188 176.4983367919922 82.79698944091797 204.3166046142578 52.63003158569336 C 236.5332794189453 40.75269317626953 272.065185546875 92.5936050415039 220.65013122558594 95.25605773925781 C 239.3351287841797 94.1854248046875 265.46624755859375 83.49748229980469 243.57669067382812 58.7071533203125"/>
    <path stroke-width="0" fill="rgb(74, 89, 91)" opacity="0.9655566" stroke="rgb(47, 230, 138)" stroke-opacity="1.0" stroke-linecap="round" stroke-linejoin="round" d="M 187.35284423828125 480.3335876464844 C 134.20721435546875 480.9246520996094 152.9184112548828 491.48876953125 158.53636169433594 452.48193359375 C 206.5267791748047 451.953369140625 198.81350708007812 452.7675476074219 163.11807250976562 462.7985534667969 C 152.73638916015625 464.7586669921875 160.28981018066406 442.47308349609375 160.28103637695312 463.53863525390625 C 215.47731018066406 450.116455078125 185.45510864257812 435.6519775390625 187.35284423828125 480.3335876464844"/>
    <path stroke-width="0" fill="rgb(260, 255, 168)" opacity="0.8536173" stroke="rgb(224, 116, 184)" stroke-opacity="1.0" stroke-linecap="round" stroke-linejoin="round" d="M 222.36264038085938 150.40103149414062 C 244.51104736328125 151.0672149658203 262.4999694824219 150.15138244628906 193.13731384277344 145.36485290527344 C 193.23678588867188 119.9996337890625 229.2871856689453 28.482624053955078 233.797607421875 106.74797821044922 C 261.8749694824219 121.59429168701172 235.74649047851562 66.16712188720703 225.41197204589844 74.99055480957031 C 237.3566131591797 88.05731964111328 234.3648223876953 125.37480926513672 222.36264038085938 150.40103149414062"/>
    <path stroke-width="0" fill="rgb(121, 200, -33)" opacity="0.76024854" stroke="rgb(192, 162, 61)" stroke-opacity="1.0" stroke-linecap="round" stroke-linejoin="round" d="M 258.55328369140625 92.2371826171875 C 243.85781860351562 70.92857360839844 222.18930053710938 25.772035598754883 252.93020629882812 75.01036071777344 C 249.9405975341797 77.39616394042969 249.13800048828125 71.58221435546875 264.9711608886719 110.53154754638672 C 283.6067199707031 215.99154663085938 269.26361083984375 131.38536071777344 220.95179748535156 48.90467071533203 C 253.69140625 42.60487365722656 246.24594116210938 79.39179229736328 258.55328369140625 92.2371826171875"/>
    <path stroke-width="0" fill="rgb(100, 203, 48)" opacity="0.7082955" stroke="rgb(203, 244, 116)" stroke-opacity="1.0" stroke-linecap="round" stroke-linejoin="round" d="M 446.8216247558594 177.04722595214844 C 481.5785217285156 141.14280700683594 461.3186950683594 168.11602783203125 438.5798034667969 177.41116333007812 C 467.330322265625 185.40077209472656 444.34674072265625 203.5906219482422 427.4228820800781 199.1820068359375 C 416.79937744140625 171.82867431640625 486.1737365722656 171.033447265625 462.0917663574219 138.2581024169922 C 472.455322265625 177.5009307861328 495.6019592285156 129.43899536132812 446.8216247558594 177.04722595214844"/>
    <path stroke-width="0" fill="rgb(126, 130, 166)" opacity="0.33077744" stroke="rgb(218, 116, 242)" stroke-opacity="1.0" stroke-linecap="round" stroke-linejoin="round" d="M 199.430908203125 25.66674041748047 C 215.0808563232422 37.400474548339844 224.82901000976562 26.094585418701172 213.49856567382812 31.239742279052734 C 224.44947814941406 45.0860595703125 238.85195922851562 36.137271881103516 229.3025360107422 39.643890380859375 C 218.33030700683594 36.74364471435547 224.9684295654297 36.36652374267578 258.170166015625 22.652626037597656 C 209.9014434814453 42.81293869018555 223.87034606933594 37.2902946472168 199.430908203125 25.66674041748047"/>
    <path stroke-width="0" fill="rgb(114, 192, -4)" opacity="0.76085544" stroke="rgb(209, 231, 207)" stroke-opacity="1.0" stroke-linecap="round" stroke-linejoin="round" d="M 251.45436096191406 88.3200454711914 C 259.31396484375 86.01011657714844 234.11892700195312 81.41795349121094 249.1156463623047 92.73513793945312 C 269.4255065917969 90.97290802001953 258.0316162109375 91.92184448242188 252.803466796875 92.51075744628906 C 265.1298828125 138.4694366455078 249.5546112060547 84.51335906982422 248.937744140625 76.2025146484375 C 252.13345336914062 84.73102569580078 257.45086669921875 105.1745834350586 251.45436096191406 88.3200454711914"/>
    <path stroke-width="0" fill="rgb(124, 143, 153)" opacity="0.7224198" stroke="rgb(160, 101, 15)" stroke-opacity="1.0" stroke-linecap="round" stroke-linejoin="round" d="M 255.9952392578125 17.025421142578125 C 234.86105346679688 23.302968978881836 219.31307983398438 28.72664451599121 240.86651611328125 21.72035789489746 C 269.4775695800781 13.622960090637207 239.77963256835938 12.38901138305664 272.760986328125 35.77493667602539 C 229.84295654296875 -7.119091033935547 211.4134979248047 1.9610264301300049 229.94374084472656 -6.842297077178955 C 245.612548828125 12.321203231811523 270.0435791015625 38.37287902832031 255.9952392578125 17.025421142578125"/>
    <path stroke-width="0" fill="rgb(119, 198, -22)" opacity="0.9627006" stroke="rgb(65, 216, 8)" stroke-opacity="1.0" stroke-linecap="round" stroke-linejoin="round" d="M 195.76638793945312 176.4046630859375 C 189.58212280273438 151.52557373046875 201.1526641845703 155.2736358642578 214.4432830810547 153.9134521484375 C 233.8568115234375 144.78158569335938 189.6834716796875 160.0173797607422 199.43167114257812 192.1290283203125 C 184.07388305664062 124.91946411132812 198.32054138183594 126.7323989868164 209.0015869140625 73.90969848632812 C 149.32835388183594 112.7486572265625 172.32176208496094 179.91932678222656 195.76638793945312 176.4046630859375"/>
    <path stroke-width="0" fill="rgb(157, 161, 116)" opacity="0.6396153" stroke="rgb(90, 90, 4)" stroke-opacity="1.0" stroke-linecap="round" stroke-linejoin="round" d="M 231.7229461669922 497.90704345703125 C 230.22921752929688 497.97039794921875 149.17230224609375 488.38726806640625 143.40670776367188 500.0364990234375 C 228.15762329101562 501.9809875488281 217.8848419189453 492.1973876953125 271.4560546875 494.69403076171875 C 338.3966979980469 488.8694152832031 301.7343444824219 503.1791687011719 348.4112243652344 495.7967529296875 C 206.60411071777344 506.5173645019531 228.30880737304688 494.7015075683594 231.7229461669922 497.90704345703125"/>
    <path stroke-width="0" fill="rgb(94, 162, 18)" opacity="0.96409357" stroke="rgb(221, 115, 83)" stroke-opacity="1.0" stroke-linecap="round" stroke-linejoin="round" d="M 243.9543914794922 165.2089385986328 C 244.1695556640625 143.22787475585938 246.315673828125 141.0693359375 259.87066650390625 132.09288024902344 C 261.8325500488281 176.6583709716797 260.3045959472656 176.6583251953125 257.4161071777344 149.4799041748047 C 266.6370849609375 152.60203552246094 275.5969543457031 153.7484893798828 230.9071807861328 142.9253387451172 C 227.59585571289062 151.85130310058594 254.95884704589844 156.57315063476562 243.9543914794922 165.2089385986328"/>
    <path stroke-width="0" fill="rgb(150, 108, 90)" opacity="0.9330045" stroke="rgb(33, 3, 29)" stroke-opacity="1.0" stroke-linecap="round" stroke-linejoin="round" d="M 536.125 294.1974182128906 C 505.2458801269531 317.268798828125 508.6228942871094 331.8068542480469 522.5247192382812 340.2156982421875 C 523.841796875 247.08151245117188 535.1773071289062 293.8974304199219 493.17626953125 295.2869567871094 C 465.03369140625 293.5525817871094 489.5038757324219 294.7975158691406 522.8374633789062 296.69677734375 C 531.095947265625 267.7210388183594 536.8461303710938 289.4244079589844 536.125 294.1974182128906"/>
    <path stroke-width="0" fill="rgb(41, 58, 105)" opacity="0.56408364" stroke="rgb(248, 252, 104)" stroke-opacity="1.0" stroke-linecap="round" stroke-linejoin="round" d="M 265.83721923828125 86.83989715576172 C 277.2646789550781 63.106388092041016 257.3937683105469 85.63005828857422 275.9256286621094 77.91901397705078 C 264.70086669921875 80.1462631225586 264.4465637207031 91.71954345703125 269.3748779296875 86.12953186035156 C 282.47216796875 124.00241088867188 281.65936279296875 117.6351089477539 272.9161071777344 96.75481414794922 C 270.60992431640625 92.49835968017578 272.537353515625 84.92267608642578 265.83721923828125 86.83989715576172"/>
    <path stroke-width="0" fill="rgb(60, 95, -5)" opacity="0.5545289" stroke="rgb(162, 125, 252)" stroke-opacity="1.0" stroke-linecap="round" stroke-linejoin="round" d="M 222.9204559326172 181.7384796142578 C 236.55726623535156 186.4879150390625 197.0592498779297 160.68951416015625 208.63400268554688 142.17498779296875 C 195.63333129882812 157.9151153564453 186.5555877685547 155.6936492919922 193.7989044189453 120.07530212402344 C 195.4871826171875 185.63519287109375 201.03672790527344 138.6739044189453 223.35362243652344 161.5623779296875 C 185.4086151123047 123.36599731445312 184.4098663330078 169.2508087158203 222.9204559326172 181.7384796142578"/>
    <path stroke-width="0" fill="rgb(72, 158, 12)" opacity="0.92146015" stroke="rgb(199, 73, 61)" stroke-opacity="1.0" stroke-linecap="round" stroke-linejoin="round" d="M 247.04566955566406 138.3291778564453 C 209.25942993164062 153.50979614257812 219.16448974609375 162.18687438964844 225.6233673095703 166.310791015625 C 246.0946502685547 177.3011474609375 198.10357666015625 196.91677856445312 222.7222900390625 192.32937622070312 C 251.12449645996094 198.74765014648438 252.69273376464844 185.72166442871094 245.821044921875 173.7447967529297 C 219.32005310058594 179.06138610839844 288.59930419921875 168.53622436523438 247.04566955566406 138.3291778564453"/>
    <path stroke-width="0" fill="rgb(7, 18, 52)" opacity="0.66926515" stroke="rgb(62, 169, 131)" stroke-opacity="1.0" stroke-linecap="round" stroke-linejoin="round" d="M 167.76365661621094 163.21922302246094 C 167.81573486328125 151.91165161132812 174.17518615722656 147.6015625 167.83599853515625 132.36984252929688 C 173.4432373046875 109.55097198486328 178.47792053222656 98.40653228759766 170.44801330566406 126.87833404541016 C 167.8717498779297 117.36178588867188 170.46469116210938 123.71538543701172 170.3592987060547 144.0015411376953 C 171.3124542236328 165.06936645507812 175.51824951171875 156.00205993652344 167.76365661621094 163.21922302246094"/>
    <path stroke-width="0" fill="rgb(56, 146, 33)" opacity="0.7281107" stroke="rgb(141, 73, 180)" stroke-opacity="1.0" stroke-linecap="round" stroke-linejoin="round" d="M 246.8873748779297 180.560546875 C 250.13031005859375 142.3246307373047 226.6338348388672 169.34414672851562 215.11679077148438 187.46519470214844 C 226.5598602294922 161.11795043945312 216.16526794433594 139.74073791503906 212.59788513183594 154.4954833984375 C 211.56390380859375 156.40396118164062 224.50657653808594 156.5577392578125 219.6009063720703 182.49566650390625 C 212.50802612304688 178.8092803955078 218.395751953125 182.00967407226562 246.8873748779297 180.560546875"/>
    <path stroke-width="0" fill="rgb(268, 251, 173)" opacity="0.95452213" stroke="rgb(59, 88, 207)" stroke-opacity="1.0" stroke-linecap="round" stroke-linejoin="round" d="M 229.39437866210938 151.89833068847656 C 219.4325408935547 173.1797332763672 236.59022521972656 156.62904357910156 222.23379516601562 89.62357330322266 C 202.8103485107422 127.02290344238281 185.155029296875 144.54632568359375 199.98318481445312 116.43074035644531 C 234.07029724121094 131.5604705810547 195.71942138671875 103.35633087158203 193.3446044921875 144.07144165039062 C 223.90675354003906 174.33079528808594 234.82008361816406 169.7259979248047 229.39437866210938 151.89833068847656"/>
    <path stroke-width="0" fill="rgb(51, 111, 58)" opacity="1.0032805" stroke="rgb(247, 230, 75)" stroke-opacity="1.0" stroke-linecap="round" stroke-linejoin="round" d="M 520.4032592773438 317.532470703125 C 530.1004638671875 343.92352294921875 502.44219970703125 348.1446228027344 547.889892578125 346.45135498046875 C 541.0243530273438 352.1267395019531 427.3837585449219 344.7766418457031 451.0398864746094 347.9160461425781 C 461.5022277832031 293.2096862792969 462.18218994140625 302.0140686035156 464.8307189941406 302.6324768066406 C 546.2332763671875 299.5919189453125 596.332763671875 277.7371826171875 520.4032592773438 317.532470703125"/>
    <path stroke-width="0" fill="rgb(8, 42, 56)" opacity="0.99227947" stroke="rgb(63, 27, 242)" stroke-opacity="1.0" stroke-linecap="round" stroke-linejoin="round" d="M 560.236083984375 306.3451843261719 C 521.5855712890625 315.489013671875 489.0696105957031 323.8018493652344 547.0987548828125 324.06048583984375 C 466.7383728027344 293.3373718261719 440.63128662109375 322.0239562988281 459.2166748046875 297.857666015625 C 468.5182189941406 284.7380065917969 475.4227294921875 278.59344482421875 473.9938049316406 251.34359741210938 C 515.2333374023438 249.63241577148438 555.352783203125 238.98486328125 560.236083984375 306.3451843261719"/>
    <path stroke-width="0" fill="rgb(97, 156, 79)" opacity="0.75044256" stroke="rgb(175, 14, 186)" stroke-opacity="1.0" stroke-linecap="round" stroke-linejoin="round" d="M 478.0995178222656 136.8323516845703 C 482.7347106933594 106.7014389038086 484.43408203125 160.83792114257812 464.821533203125 151.41665649414062 C 475.8320007324219 133.7816619873047 454.2940368652344 171.44210815429688 475.9622802734375 130.90573120117188 C 470.86181640625 121.8985824584961 461.95654296875 146.91773986816406 462.96807861328125 153.75381469726562 C 466.2235412597656 160.95730590820312 473.3460693359375 141.651611328125 478.0995178222656 136.8323516845703"/>
    <path stroke-width="0" fill="rgb(199, 228, 136)" opacity="0.8000353" stroke="rgb(69, 96, 95)" stroke-opacity="1.0" stroke-linecap="round" stroke-linejoin="round" d="M 212.75634765625 146.38864135742188 C 223.63742065429688 179.7852325439453 225.4990234375 181.62985229492188 234.3208465576172 165.22409057617188 C 244.66220092773438 159.41238403320312 207.4556121826172 166.10324096679688 212.79067993164062 158.8860321044922 C 217.15133666992188 154.4862060546875 222.0694580078125 148.85128784179688 236.7465057373047 172.36758422851562 C 236.04531860351562 143.11180114746094 223.40011596679688 138.04075622558594 212.75634765625 146.38864135742188"/>
    <path stroke-width="0" fill="rgb(65, 110, 96)" opacity="0.782001" stroke="rgb(213, 60, 128)" stroke-opacity="1.0" stroke-linecap="round" stroke-linejoin="round" d="M 502.9980163574219 162.5308380126953 C 468.2805480957031 153.0623321533203 465.5155029296875 189.2552947998047 468.64544677734375 174.90524291992188 C 380.7906494140625 198.44578552246094 342.5588073730469 161.02354431152344 453.8939514160156 148.58340454101562 C 495.74932861328125 157.94529724121094 476.8349304199219 147.1898956298828 399.236083984375 -35.1555061340332 C 578.567138671875 19.227930068969727 447.7180480957031 62.33770751953125 502.9980163574219 162.5308380126953"/>
    <path stroke-width="0" fill="rgb(95, 219, -28)" opacity="0.76980126" stroke="rgb(161, 221, 239)" stroke-opacity="1.0" stroke-linecap="round" stroke-linejoin="round" d="M 272.6742858886719 145.1221466064453 C 276.2894592285156 203.2850341796875 217.26242065429688 207.63128662109375 210.16383361816406 192.33392333984375 C 268.8334045410156 170.49261474609375 201.52540588378906 188.13165283203125 209.2173614501953 191.1988067626953 C 165.49899291992188 165.77099609375 206.6048126220703 181.54437255859375 235.61984252929688 178.8440704345703 C 224.0276641845703 193.54757690429688 242.86338806152344 172.9527587890625 272.6742858886719 145.1221466064453"/>
    <path stroke-width="0" fill="rgb(109, 194, 60)" opacity="0.69018084" stroke="rgb(18, 74, 38)" stroke-opacity="1.0" stroke-linecap="round" stroke-linejoin="round" d="M 473.2680358886719 145.90028381347656 C 464.19464111328125 193.536865234375 447.1292419433594 175.93930053710938 466.73040771484375 200.978515625 C 488.38763427734375 174.24407958984375 445.14361572265625 128.55068969726562 451.1936950683594 149.7355499267578 C 418.24908447265625 161.84571838378906 420.20184326171875 114.96422576904297 460.57257080078125 146.72280883789062 C 457.69805908203125 125.61541748046875 493.1272277832031 123.66146850585938 473.2680358886719 145.90028381347656"/>
    <path stroke-width="0" fill="rgb(94, 128, 83)" opacity="0.42347014" stroke="rgb(33, 154, 97)" stroke-opacity="1.0" stroke-linecap="round" stroke-linejoin="round" d="M 473.0696105957031 177.94598388671875 C 473.6519775390625 189.326171875 456.4671936035156 187.36636352539062 471.4073181152344 197.8052520751953 C 443.86859130859375 205.58303833007812 443.7490234375 199.03956604003906 461.635498046875 199.04368591308594 C 417.2202453613281 206.6332244873047 477.89117431640625 213.71340942382812 452.2049255371094 207.11361694335938 C 463.8544006347656 214.900634765625 464.1697998046875 188.48362731933594 473.0696105957031 177.94598388671875"/>
    <path stroke-width="0" fill="rgb(110, 214, -22)" opacity="0.7816855" stroke="rgb(246, 139, 70)" stroke-opacity="1.0" stroke-linecap="round" stroke-linejoin="round" d="M 209.990234375 182.24685668945312 C 247.5739288330078 163.47970581054688 208.3842010498047 170.52882385253906 234.72320556640625 182.43875122070312 C 230.84158325195312 190.55899047851562 212.03033447265625 180.96209716796875 177.89796447753906 140.6414794921875 C 174.0819091796875 213.15899658203125 256.72686767578125 173.08042907714844 227.37583923339844 184.3719940185547 C 206.8263397216797 187.66929626464844 222.6335906982422 188.32107543945312 209.990234375 182.24685668945312"/>
    <path stroke-width="0" fill="rgb(252, 262, 174)" opacity="0.9989165" stroke="rgb(228, 103, 140)" stroke-opacity="1.0" stroke-linecap="round" stroke-linejoin="round" d="M 257.67572021484375 150.86053466796875 C 243.5545196533203 191.27516174316406 188.89041137695312 179.4640655517578 194.62326049804688 131.98464965820312 C 205.9292755126953 150.3009490966797 204.8159942626953 140.62673950195312 195.83587646484375 126.63758087158203 C 193.84237670898438 172.54888916015625 217.6383819580078 128.72463989257812 199.1504669189453 123.02621459960938 C 199.84942626953125 76.1897201538086 265.99334716796875 100.1280517578125 257.67572021484375 150.86053466796875"/>
    <path stroke-width="0" fill="rgb(77, 110, 93)" opacity="0.6694621" stroke="rgb(85, 235, 219)" stroke-opacity="1.0" stroke-linecap="round" stroke-linejoin="round" d="M 458.061767578125 167.85556030273438 C 523.4270629882812 133.29293823242188 462.5823974609375 142.43362426757812 447.4216003417969 172.50877380371094 C 437.9471740722656 180.07095336914062 474.8043212890625 173.978759765625 449.5890197753906 162.70376586914062 C 443.4169006347656 190.96360778808594 480.3651428222656 177.2846221923828 453.1460876464844 166.88650512695312 C 521.7869262695312 167.99771118164062 469.255615234375 147.42601013183594 458.061767578125 167.85556030273438"/>
    <path stroke-width="0" fill="rgb(114, 159, 110)" opacity="0.19011872" stroke="rgb(64, 113, 26)" stroke-opacity="1.0" stroke-linecap="round" stroke-linejoin="round" d="M 454.2851867675781 207.17880249023438 C 384.5027160644531 202.36264038085938 442.8646545410156 228.619384765625 465.3231201171875 190.15049743652344 C 479.1270751953125 206.09088134765625 440.6150817871094 197.22955322265625 428.0186767578125 202.38478088378906 C 422.6777038574219 185.10354614257812 434.89453125 171.58181762695312 435.9762268066406 193.63180541992188 C 436.1722412109375 209.61166381835938 458.2666931152344 178.1291046142578 454.2851867675781 207.17880249023438"/>
    <path stroke-width="0" fill="rgb(75, 171, 143)" opacity="0.4971056" stroke="rgb(0, 0, 0)" stroke-opacity="0.0" stroke-linecap="round" stroke-linejoin="round" d="M 76.33971405029297 14.586462020874023 C 77.96708679199219 23.077226638793945 77.6413345336914 25.23560905456543 76.38459014892578 21.127967834472656 C 64.87223815917969 21.435121536254883 62.03974914550781 22.011211395263672 67.01747131347656 18.931034088134766 C 63.505531311035156 9.198050498962402 63.97713088989258 6.649317741394043 66.2219467163086 10.550721168518066 C 75.85197448730469 10.87122631072998 78.59385681152344 11.284238815307617 76.33971405029297 14.586462020874023"/>
    <path stroke-width="0" fill="rgb(81, 175, 184)" opacity="0.7419281" stroke="rgb(0, 0, 0)" stroke-opacity="0.0" stroke-linecap="round" stroke-linejoin="round" d="M 24.606197357177734 5.892107963562012 C 23.328969955444336 10.175955772399902 22.690532684326172 15.684087753295898 20.344234466552734 15.45678424835205 C 15.639764785766602 14.950292587280273 13.641618728637695 9.999369621276855 12.508955001831055 5.2087082862854 C 11.092803001403809 1.1807974576950073 12.799773216247559 -0.7453945875167847 19.152578353881836 -1.812187910079956 C 24.11967658996582 -1.0228861570358276 25.05773162841797 2.248867988586426 24.606197357177734 5.892107963562012"/>
    <path stroke-width="0" fill="rgb(137, 108, 194)" opacity="0.1813381" stroke="rgb(0, 0, 0)" stroke-opacity="0.0" stroke-linecap="round" stroke-linejoin="round" d="M 436.94097900390625 6.3757758140563965 C 438.60015869140625 15.239554405212402 438.1589660644531 17.073278427124023 432.3583068847656 15.09000015258789 C 425.5812072753906 16.668718338012695 424.6680603027344 14.07547664642334 425.5239562988281 9.441431045532227 C 425.6275939941406 4.954939842224121 427.8675842285156 1.1884398460388184 432.21600341796875 -2.3548600673675537 C 437.217041015625 -1.1623555421829224 438.2191162109375 2.1925392150878906 436.94097900390625 6.3757758140563965"/>
    <path stroke-width="0" fill="rgb(119, 166, 170)" opacity="0.75394815" stroke="rgb(0, 0, 0)" stroke-opacity="0.0" stroke-linecap="round" stroke-linejoin="round" d="M 179.35198974609375 13.58027172088623 C 180.0451202392578 16.20872688293457 175.4037322998047 17.188915252685547 171.114990234375 16.730998992919922 C 167.8954620361328 17.691415786743164 164.96742248535156 16.082317352294922 165.41220092773438 11.887404441833496 C 164.83740234375 8.530450820922852 168.69253540039062 6.433725833892822 174.92239379882812 6.532424449920654 C 178.14617919921875 3.97882342338562 179.36036682128906 6.089786052703857 179.35198974609375 13.58027172088623"/>
    <path stroke-width="0" fill="rgb(37, 102, 117)" opacity="0.320175" stroke="rgb(0, 0, 0)" stroke-opacity="0.0" stroke-linecap="round" stroke-linejoin="round" d="M 72.52164459228516 18.34048080444336 C 72.83413696289062 20.678802490234375 70.29434204101562 24.450963973999023 66.96633911132812 24.497400283813477 C 62.41357421875 23.3033504486084 59.12104034423828 20.891477584838867 58.41476058959961 17.286943435668945 C 59.5521354675293 13.166245460510254 61.910919189453125 10.182055473327637 66.20185089111328 8.90425968170166 C 70.2497787475586 9.492079734802246 72.2491683959961 13.157520294189453 72.52164459228516 18.34048080444336"/>
    <path stroke-width="0" fill="rgb(130, 199, 172)" opacity="0.5273348" stroke="rgb(0, 0, 0)" stroke-opacity="0.0" stroke-linecap="round" stroke-linejoin="round" d="M 262.5386962890625 14.451342582702637 C 262.18597412109375 16.755125045776367 260.2691345214844 21.79184341430664 257.9595642089844 22.83466339111328 C 255.18930053710938 19.660642623901367 251.78138732910156 17.032703399658203 249.33648681640625 13.353375434875488 C 250.42343139648438 11.169927597045898 254.4541473388672 8.841232299804688 256.4065856933594 7.037571907043457 C 259.5779724121094 9.030013084411621 262.4007873535156 12.323749542236328 262.5386962890625 14.451342582702637"/>
    <path stroke-width="0" fill="rgb(234, 128, 223)" opacity="0.26927698" stroke="rgb(0, 0, 0)" stroke-opacity="0.0" stroke-linecap="round" stroke-linejoin="round" d="M 238.89830017089844 26.95488739013672 C 240.28189086914062 30.757137298583984 237.99354553222656 32.978397369384766 234.60430908203125 31.670166015625 C 230.18626403808594 30.53777503967285 227.26829528808594 27.681222915649414 225.2022247314453 23.67912483215332 C 224.61224365234375 21.587522506713867 229.48886108398438 19.973936080932617 233.96908569335938 18.643962860107422 C 235.28292846679688 19.08829116821289 237.688720703125 23.047117233276367 238.89830017089844 26.95488739013672"/>
    <path stroke-width="0" fill="rgb(147, 214, 35)" opacity="0.5274951" stroke="rgb(0, 0, 0)" stroke-opacity="0.0" stroke-linecap="round" stroke-linejoin="round" d="M 484.7275695800781 246.1813507080078 C 484.5028381347656 250.36492919921875 480.9648742675781 252.3910675048828 476.23565673828125 253.1947784423828 C 472.7795104980469 253.3618621826172 470.1971130371094 250.03073120117188 469.0573425292969 246.2387237548828 C 470.1820068359375 241.8978729248047 473.09564208984375 238.79812622070312 476.749267578125 237.84835815429688 C 480.9573669433594 239.2021942138672 483.96728515625 242.01654052734375 484.7275695800781 246.1813507080078"/>
    <path stroke-width="0" fill="rgb(147, 98, 208)" opacity="0.27497476" stroke="rgb(0, 0, 0)" stroke-opacity="0.0" stroke-linecap="round" stroke-linejoin="round" d="M 286.0400390625 304.36376953125 C 285.491455078125 309.305419921875 282.9877014160156 312.3603820800781 278.86895751953125 312.732177734375 C 274.0284423828125 311.06396484375 271.1884460449219 308.2080383300781 271.1605224609375 304.5697937011719 C 271.2823181152344 300.3236389160156 273.8226318359375 297.4230041503906 278.0390930175781 296.4418640136719 C 281.88250732421875 297.41607666015625 285.0411682128906 300.24700927734375 286.0400390625 304.36376953125"/>
    <path stroke-width="0" fill="rgb(197, 207, 173)" opacity="0.7303493" stroke="rgb(0, 0, 0)" stroke-opacity="0.0" stroke-linecap="round" stroke-linejoin="round" d="M 128.01220703125 87.67568969726562 C 127.6534423828125 92.72381591796875 124.71542358398438 95.56619262695312 120.41397094726562 95.83029174804688 C 115.70951843261719 94.94756317138672 112.90465545654297 92.16747283935547 112.18282318115234 87.6873550415039 C 111.87635040283203 83.37439727783203 115.62686157226562 81.37664794921875 120.3403549194336 80.18865203857422 C 124.54637908935547 80.96926879882812 127.68791961669922 83.18730163574219 128.01220703125 87.67568969726562"/>
    <path stroke-width="0" fill="rgb(51, 238, 73)" opacity="0.94494" stroke="rgb(0, 0, 0)" stroke-opacity="0.0" stroke-linecap="round" stroke-linejoin="round" d="M 16.17225456237793 13.29892635345459 C 15.180981636047363 16.893741607666016 11.62628173828125 18.9189453125 8.2915678024292 19.53721046447754 C 5.184576511383057 18.88334083557129 2.589463472366333 15.60664176940918 1.7095016241073608 11.371855735778809 C 1.9009910821914673 9.438103675842285 4.5890960693359375 6.738197326660156 7.684099197387695 5.719214916229248 C 11.579399108886719 6.554524898529053 14.694869995117188 9.233436584472656 16.17225456237793 13.29892635345459"/>
    <path stroke-width="0" fill="rgb(206, 26, 215)" opacity="0.38379532" stroke="rgb(0, 0, 0)" stroke-opacity="0.0" stroke-linecap="round" stroke-linejoin="round" d="M 430.1043395996094 109.25125885009766 C 430.5295104980469 112.37895202636719 427.32183837890625 114.93559265136719 423.8675231933594 115.25725555419922 C 419.8962707519531 114.4945297241211 416.5870666503906 111.99694061279297 415.81683349609375 108.60523223876953 C 417.32757568359375 105.15668487548828 420.2633056640625 102.1700668334961 424.05810546875 101.01997375488281 C 426.3875732421875 102.02458190917969 429.10748291015625 105.54198455810547 430.1043395996094 109.25125885009766"/>
    <path stroke-width="0" fill="rgb(144, 136, 34)" opacity="0.67156833" stroke="rgb(0, 0, 0)" stroke-opacity="0.0" stroke-linecap="round" stroke-linejoin="round" d="M -65.47331237792969 73.55612182617188 C -66.54511260986328 77.55612182617188 -69.47331237792969 80.48432922363281 -73.47331237792969 81.55612182617188 C -77.47331237792969 80.48432922363281 -80.4015121459961 77.55612182617188 -81.47331237792969 73.55612182617188 C -80.4015121459961 69.55612182617188 -77.47331237792969 66.62792205810547 -73.47331237792969 65.55612182617188 C -69.47331237792969 66.62792205810547 -66.54511260986328 69.55612182617188 -65.47331237792969 73.55612182617188"/>
    <path stroke-width="0" fill="rgb(241, 40, 41)" opacity="0.05875706" stroke="rgb(0, 0, 0)" stroke-opacity="0.0" stroke-linecap="round" stroke-linejoin="round" d="M 436.11724853515625 32.21730422973633 C 435.4535217285156 35.57631301879883 432.49151611328125 38.528785705566406 429.07098388671875 39.78451919555664 C 425.741943359375 38.54557800292969 422.6798095703125 35.6777458190918 421.0260925292969 32.14152908325195 C 422.3521728515625 28.47414779663086 425.5921936035156 25.961278915405273 429.3067321777344 24.504798889160156 C 433.0896301269531 25.29520606994629 435.82586669921875 28.32444190979004 436.11724853515625 32.21730422973633"/>
    <path stroke-width="0" fill="rgb(231, 87, 229)" opacity="0.031757493" stroke="rgb(0, 0, 0)" stroke-opacity="0.0" stroke-linecap="round" stroke-linejoin="round" d="M 302.6925964355469 182.7677001953125 C 301.7846374511719 187.39950561523438 298.3934326171875 190.04183959960938 293.5422058105469 190.5188751220703 C 289.7251892089844 190.00726318359375 287.81500244140625 186.4955596923828 286.8773193359375 182.4676055908203 C 287.85418701171875 179.2869415283203 289.51788330078125 174.976318359375 293.1607666015625 175.1916046142578 C 298.1671447753906 175.7622833251953 301.35968017578125 178.30740356445312 302.6925964355469 182.7677001953125"/>
    <path stroke-width="0" fill="rgb(72, 100, 145)" opacity="0.36637273" stroke="rgb(0, 0, 0)" stroke-opacity="0.0" stroke-linecap="round" stroke-linejoin="round" d="M 439.79736328125 83.75382995605469 C 438.0638427734375 87.32398223876953 434.9195556640625 90.33393096923828 432.224853515625 92.00352478027344 C 428.436279296875 89.73377990722656 425.0416564941406 86.96661376953125 423.3674011230469 84.39639282226562 C 425.1903991699219 80.23410034179688 427.6866149902344 77.16214752197266 432.17083740234375 76.73435974121094 C 436.05816650390625 76.19266510009766 438.7821350097656 79.23126220703125 439.79736328125 83.75382995605469"/>
    <path stroke-width="0" fill="rgb(246, 172, 47)" opacity="0.7490922" stroke="rgb(0, 0, 0)" stroke-opacity="0.0" stroke-linecap="round" stroke-linejoin="round" d="M 256.7344665527344 271.6400451660156 C 256.11224365234375 276.2698974609375 253.1399383544922 278.9084167480469 249.1151885986328 279.7010803222656 C 245.72816467285156 279.05810546875 242.7586212158203 275.90692138671875 241.77481079101562 271.8079833984375 C 242.39144897460938 268.29791259765625 245.36793518066406 265.5379638671875 249.78494262695312 264.6875 C 253.83033752441406 264.9501953125 256.8565979003906 267.72161865234375 256.7344665527344 271.6400451660156"/>
    <path stroke-width="0" fill="rgb(29, 74, 177)" opacity="0.33277684" stroke="rgb(0, 0, 0)" stroke-opacity="0.0" stroke-linecap="round" stroke-linejoin="round" d="M -16.759288787841797 0.30070480704307556 C -17.831087112426758 4.3007049560546875 -20.759288787841797 7.228908061981201 -24.759288787841797 8.300704956054688 C -28.759288787841797 7.228908061981201 -31.68749237060547 4.3007049560546875 -32.7592887878418 0.30070480704307556 C -31.68749237060547 -3.6992952823638916 -28.759288787841797 -6.627498626708984 -24.759288787841797 -7.6992950439453125 C -20.759288787841797 -6.627498626708984 -17.831087112426758 -3.6992952823638916 -16.759288787841797 0.30070480704307556"/>
    <path stroke-width="0" fill="rgb(111, 177, 152)" opacity="0.612775" stroke="rgb(0, 0, 0)" stroke-opacity="0.0" stroke-linecap="round" stroke-linejoin="round" d="M 330.3236083984375 397.0941162109375 C 330.1608581542969 401.94244384765625 327.6282043457031 404.7571105957031 323.0312194824219 405.1163635253906 C 318.634765625 403.7262878417969 315.4925842285156 400.9451599121094 314.9456787109375 396.819580078125 C 315.4588623046875 392.8109436035156 318.5969543457031 390.2003479003906 322.13165283203125 389.8363037109375 C 326.285888671875 390.58489990234375 329.4380798339844 392.8274230957031 330.3236083984375 397.0941162109375"/>
  </g>
</svg>
