<?xml version="1.0" ?>
<svg xmlns="http://www.w3.org/2000/svg" version="1.1" width="512" height="512">
  <defs/>
  <g>
    <path stroke-width="0" fill="rgb(44, 235, 4)" opacity="0.9965438" stroke="rgb(139, 182, 153)" stroke-opacity="1.0" stroke-linecap="round" stroke-linejoin="round" d="M 206.07684326171875 175.5332794189453 C 83.7050552368164 70.09136962890625 142.15576171875 168.90797424316406 -10.2103853225708 311.0453186035156 C -50.38013458251953 273.6077880859375 -32.125091552734375 244.37161254882812 0.8160078525543213 198.25779724121094 C 57.36418533325195 82.95391082763672 62.12978744506836 73.32791137695312 78.2266845703125 111.7553939819336 C 273.4354248046875 197.8599395751953 146.46234130859375 54.523468017578125 206.07684326171875 175.5332794189453"/>
    <path stroke-width="0" fill="rgb(145, 152, 150)" opacity="0.8943637" stroke="rgb(108, 164, 111)" stroke-opacity="1.0" stroke-linecap="round" stroke-linejoin="round" d="M 144.95997619628906 -35.38551712036133 C 89.64290618896484 150.6326904296875 119.67682647705078 222.33154296875 -4.653224945068359 262.59912109375 C -46.547916412353516 225.74099731445312 -45.62079620361328 209.98471069335938 -47.316612243652344 66.32988739013672 C -49.11305618286133 -8.18151569366455 -55.94807434082031 -28.422311782836914 15.614151954650879 -48.40176773071289 C 199.6168670654297 -48.19676208496094 200.75816345214844 -41.44858932495117 144.95997619628906 -35.38551712036133"/>
    <path stroke-width="0" fill="rgb(188, 179, 85)" opacity="0.36804852" stroke="rgb(245, 97, 201)" stroke-opacity="1.0" stroke-linecap="round" stroke-linejoin="round" d="M 563.8391723632812 -46.56962203979492 C 586.0159912109375 497.6336975097656 588.2413940429688 535.3872680664062 530.8553466796875 498.2431640625 C -111.14905548095703 497.1324768066406 -95.3238525390625 503.9496154785156 -72.54667663574219 492.440185546875 C 93.54931640625 154.25587463378906 149.5114288330078 153.74574279785156 338.0377502441406 -47.179569244384766 C 391.4353942871094 -64.82481384277344 407.0115051269531 -154.88951110839844 563.8391723632812 -46.56962203979492"/>
    <path stroke-width="0" fill="rgb(36, 60, 90)" opacity="0.7894713" stroke="rgb(144, 236, 18)" stroke-opacity="1.0" stroke-linecap="round" stroke-linejoin="round" d="M 278.0322265625 21.792652130126953 C 58.946590423583984 232.57948303222656 196.98292541503906 66.54425811767578 511.7041320800781 378.6318054199219 C 154.0303497314453 534.0154418945312 -165.06875610351562 505.76007080078125 -278.94219970703125 350.9259033203125 C 30.257474899291992 0.09778393805027008 11.132906913757324 -26.900928497314453 238.02565002441406 -44.941402435302734 C 282.3946838378906 -43.146419525146484 303.22296142578125 -43.39863967895508 278.0322265625 21.792652130126953"/>
    <path stroke-width="0" fill="rgb(222, 113, 100)" opacity="0.8832416" stroke="rgb(5, 212, 198)" stroke-opacity="1.0" stroke-linecap="round" stroke-linejoin="round" d="M 257.9652404785156 314.86383056640625 C 284.39520263671875 285.97796630859375 274.6307678222656 292.9189453125 218.7607879638672 340.38092041015625 C 208.81878662109375 338.1003112792969 203.44940185546875 330.0090026855469 201.84849548339844 287.6219482421875 C 252.58143615722656 277.109619140625 283.5915832519531 286.135986328125 291.896240234375 290.1601867675781 C 237.96881103515625 293.13275146484375 249.40687561035156 304.6378479003906 257.9652404785156 314.86383056640625"/>
    <path stroke-width="0" fill="rgb(263, 142, 77)" opacity="0.97867733" stroke="rgb(249, 203, 117)" stroke-opacity="1.0" stroke-linecap="round" stroke-linejoin="round" d="M 338.7047119140625 470.1534118652344 C 359.0958557128906 496.6273193359375 290.9400634765625 443.66864013671875 153.53280639648438 450.833251953125 C 110.8962173461914 441.96942138671875 128.20628356933594 466.56768798828125 107.64926147460938 340.33905029296875 C 110.3314208984375 314.5836486816406 171.11105346679688 332.92486572265625 237.11912536621094 374.5986022949219 C 244.84446716308594 283.8194885253906 327.6819152832031 252.35256958007812 338.7047119140625 470.1534118652344"/>
    <path stroke-width="0" fill="rgb(210, 96, 21)" opacity="0.99468815" stroke="rgb(30, 163, 36)" stroke-opacity="1.0" stroke-linecap="round" stroke-linejoin="round" d="M 376.4980163574219 342.4881591796875 C 355.8397521972656 461.0011901855469 368.33575439453125 459.7966613769531 337.7218017578125 446.11199951171875 C 238.19395446777344 448.3428955078125 180.2839813232422 447.9576110839844 146.07101440429688 447.18756103515625 C 121.70457458496094 210.1895294189453 139.5796661376953 355.38409423828125 317.4717102050781 320.0347595214844 C 357.4092102050781 341.1723937988281 367.7356262207031 316.0947570800781 376.4980163574219 342.4881591796875"/>
    <path stroke-width="0" fill="rgb(231, 120, 98)" opacity="0.91107494" stroke="rgb(133, 105, 67)" stroke-opacity="1.0" stroke-linecap="round" stroke-linejoin="round" d="M 296.997802734375 283.1882629394531 C 306.2359313964844 285.98602294921875 291.9939880371094 293.2522888183594 295.5846252441406 299.45208740234375 C 254.8929443359375 289.4755859375 254.3079376220703 289.4248046875 293.0123596191406 303.1855163574219 C 305.9015808105469 301.29217529296875 317.46063232421875 292.3818664550781 260.073486328125 291.2803039550781 C 249.96353149414062 300.6019287109375 274.1562194824219 295.94403076171875 296.997802734375 283.1882629394531"/>
    <path stroke-width="0" fill="rgb(224, 171, 125)" opacity="0.7944933" stroke="rgb(116, 144, 4)" stroke-opacity="1.0" stroke-linecap="round" stroke-linejoin="round" d="M 263.1174621582031 291.2752685546875 C 267.353759765625 333.7073669433594 260.5087890625 322.962646484375 208.21290588378906 323.8008117675781 C 93.67134094238281 349.4890441894531 146.28591918945312 292.2486267089844 160.55670166015625 310.37481689453125 C 164.09829711914062 257.3544006347656 146.1802215576172 275.7917175292969 280.8880310058594 279.8545837402344 C 234.2469482421875 291.294189453125 263.5751953125 281.3648681640625 263.1174621582031 291.2752685546875"/>
    <path stroke-width="0" fill="rgb(242, 162, 103)" opacity="0.86858064" stroke="rgb(156, 157, 240)" stroke-opacity="1.0" stroke-linecap="round" stroke-linejoin="round" d="M 321.448974609375 372.9912414550781 C 289.6281433105469 369.4142150878906 325.82342529296875 351.5342102050781 263.7474365234375 355.8726806640625 C 211.03269958496094 357.54449462890625 198.65823364257812 359.0889892578125 168.3663787841797 377.8968505859375 C 168.69515991210938 263.94189453125 174.0045623779297 283.84552001953125 373.3457336425781 268.32373046875 C 301.1304016113281 315.379638671875 324.1083984375 208.61375427246094 321.448974609375 372.9912414550781"/>
    <path stroke-width="0" fill="rgb(243, 149, 101)" opacity="0.9382829" stroke="rgb(91, 111, 177)" stroke-opacity="1.0" stroke-linecap="round" stroke-linejoin="round" d="M 297.5133056640625 325.747802734375 C 351.3648376464844 275.1775817871094 348.88690185546875 354.5710754394531 318.58953857421875 327.9855651855469 C 288.2055969238281 404.64068603515625 247.4673309326172 374.8564147949219 243.7578582763672 305.9420166015625 C 223.8907012939453 273.5094299316406 227.25811767578125 274.5592956542969 327.59710693359375 275.6653137207031 C 313.23052978515625 270.8829040527344 342.7376708984375 323.74432373046875 297.5133056640625 325.747802734375"/>
    <path stroke-width="0" fill="rgb(260, 139, 73)" opacity="1.0197232" stroke="rgb(170, 171, 53)" stroke-opacity="1.0" stroke-linecap="round" stroke-linejoin="round" d="M 334.80975341796875 401.57098388671875 C 331.5956115722656 421.7906188964844 334.1667785644531 414.01861572265625 230.10890197753906 415.72515869140625 C 82.82585144042969 419.42327880859375 180.8524627685547 417.5955810546875 164.1751708984375 279.6397399902344 C 180.17369079589844 268.251220703125 124.52941131591797 268.51165771484375 297.7452392578125 268.022705078125 C 358.453125 266.2947082519531 286.7166748046875 320.6734924316406 334.80975341796875 401.57098388671875"/>
    <path stroke-width="0" fill="rgb(-2, 21, 20)" opacity="0.95491874" stroke="rgb(80, 92, 145)" stroke-opacity="1.0" stroke-linecap="round" stroke-linejoin="round" d="M 501.5282897949219 -46.62024688720703 C 594.1966552734375 317.3638000488281 519.0499267578125 344.9197082519531 436.587646484375 400.9013671875 C 441.0673522949219 385.2727966308594 469.53717041015625 392.1644592285156 455.0551452636719 324.11822509765625 C 461.26123046875 222.92562866210938 493.8898010253906 258.47772216796875 392.24884033203125 251.44590759277344 C 499.7774658203125 115.16057586669922 429.16143798828125 20.49088478088379 501.5282897949219 -46.62024688720703"/>
    <path stroke-width="0" fill="rgb(77, 75, 117)" opacity="0.8987557" stroke="rgb(252, 26, 53)" stroke-opacity="1.0" stroke-linecap="round" stroke-linejoin="round" d="M 529.0083618164062 402.9311828613281 C 510.7427978515625 461.2382507324219 500.5916748046875 455.4912414550781 477.9140930175781 442.5003967285156 C 444.9731750488281 520.4574584960938 445.5498352050781 409.03106689453125 447.7876281738281 448.7164611816406 C 416.9922790527344 443.0752258300781 430.3898620605469 413.8904113769531 441.31536865234375 352.7014465332031 C 489.6201477050781 367.27191162109375 494.31500244140625 381.41607666015625 529.0083618164062 402.9311828613281"/>
    <path stroke-width="0" fill="rgb(31, 42, 82)" opacity="1.009551" stroke="rgb(166, 64, 118)" stroke-opacity="1.0" stroke-linecap="round" stroke-linejoin="round" d="M 537.5224609375 491.751708984375 C 560.5930786132812 491.89117431640625 537.6190185546875 483.75927734375 447.1142272949219 485.3444519042969 C 409.0022888183594 481.6549377441406 379.1751708984375 489.95880126953125 395.40277099609375 473.8825988769531 C 417.55322265625 358.9399108886719 427.42291259765625 256.6084899902344 449.48101806640625 336.4961853027344 C 465.83294677734375 450.59039306640625 524.033935546875 397.7721862792969 537.5224609375 491.751708984375"/>
    <path stroke-width="0" fill="rgb(268, 230, 149)" opacity="0.57162285" stroke="rgb(40, 28, 167)" stroke-opacity="1.0" stroke-linecap="round" stroke-linejoin="round" d="M 393.019775390625 489.28350830078125 C 634.2545776367188 444.3683776855469 625.9454956054688 691.9708251953125 -99.0549087524414 485.06866455078125 C 427.7257995605469 467.10345458984375 449.8713684082031 506.8965148925781 338.9679870605469 448.7795104980469 C 337.80859375 409.1785888671875 355.4683532714844 330.6367492675781 344.09417724609375 329.6856994628906 C 407.5350036621094 338.5859680175781 368.1328430175781 299.1332092285156 393.019775390625 489.28350830078125"/>
    <path stroke-width="0" fill="rgb(-27, 18, 43)" opacity="0.9696531" stroke="rgb(50, 94, 209)" stroke-opacity="1.0" stroke-linecap="round" stroke-linejoin="round" d="M 289.0152893066406 207.7311248779297 C 232.34027099609375 187.0728759765625 361.212158203125 229.20506286621094 262.96905517578125 200.93399047851562 C 25.519054412841797 223.76226806640625 328.9224548339844 -145.49859619140625 177.4820556640625 160.0026092529297 C 363.6607971191406 234.44956970214844 176.31097412109375 25.492521286010742 232.34771728515625 32.379905700683594 C 327.8038635253906 109.67556762695312 312.14947509765625 175.0194854736328 289.0152893066406 207.7311248779297"/>
    <path stroke-width="0" fill="rgb(89, 207, -21)" opacity="0.9836993" stroke="rgb(213, 24, 248)" stroke-opacity="1.0" stroke-linecap="round" stroke-linejoin="round" d="M 273.937744140625 197.33990478515625 C 297.3870544433594 199.56341552734375 313.0391540527344 218.0252685546875 168.61671447753906 154.7563018798828 C 233.08291625976562 271.2874450683594 300.3427429199219 101.5954818725586 214.47894287109375 76.66133117675781 C 129.59812927246094 305.1380920410156 184.53759765625 -26.50278663635254 249.51724243164062 53.65353775024414 C 329.8870849609375 214.8507537841797 202.6551971435547 173.14674377441406 273.937744140625 197.33990478515625"/>
    <path stroke-width="0" fill="rgb(199, 101, 17)" opacity="0.937035" stroke="rgb(249, 154, 188)" stroke-opacity="1.0" stroke-linecap="round" stroke-linejoin="round" d="M 316.4135437011719 355.5534973144531 C 336.08013916015625 474.32391357421875 369.77392578125 224.32933044433594 316.3937683105469 387.3682556152344 C 57.56642150878906 383.6270751953125 189.86358642578125 400.2697448730469 143.96287536621094 351.2610778808594 C 213.31800842285156 363.13238525390625 293.3742980957031 346.9684143066406 218.39935302734375 361.7095947265625 C 268.0522766113281 352.6830139160156 238.0089111328125 356.58074951171875 316.4135437011719 355.5534973144531"/>
    <path stroke-width="0" fill="rgb(257, 222, 126)" opacity="0.94640404" stroke="rgb(72, 30, 75)" stroke-opacity="1.0" stroke-linecap="round" stroke-linejoin="round" d="M 549.4447631835938 397.018798828125 C 526.4772338867188 424.4764404296875 488.6509704589844 424.0221862792969 437.66015625 353.553466796875 C 431.00787353515625 477.7228698730469 409.2347717285156 625.2002563476562 428.51409912109375 349.23211669921875 C 392.3924865722656 373.7028503417969 433.354248046875 239.69482421875 424.2782897949219 304.8780822753906 C 519.8670654296875 333.67474365234375 543.8218994140625 278.62872314453125 549.4447631835938 397.018798828125"/>
    <path stroke-width="0" fill="rgb(245, 129, 23)" opacity="0.5179503" stroke="rgb(81, 105, 16)" stroke-opacity="1.0" stroke-linecap="round" stroke-linejoin="round" d="M 553.8449096679688 298.3867492675781 C 485.4715270996094 387.6630554199219 447.05010986328125 416.5994567871094 429.43341064453125 315.4853820800781 C 443.5107116699219 506.8486022949219 402.6259765625 594.8218994140625 441.13055419921875 354.7026062011719 C 412.4156188964844 283.14111328125 428.65380859375 325.0885925292969 515.9853515625 307.81732177734375 C 518.238037109375 275.54443359375 530.0408325195312 279.0945129394531 553.8449096679688 298.3867492675781"/>
    <path stroke-width="0" fill="rgb(216, 257, -6)" opacity="0.96840346" stroke="rgb(144, 67, 133)" stroke-opacity="1.0" stroke-linecap="round" stroke-linejoin="round" d="M 468.9458312988281 261.34808349609375 C 491.50140380859375 88.01766967773438 493.0137023925781 186.73634338378906 422.30389404296875 138.99563598632812 C 437.7264709472656 126.85618591308594 460.6308898925781 153.4354705810547 435.50555419921875 114.68692016601562 C 441.5483093261719 119.95375061035156 468.98681640625 159.3695526123047 448.68475341796875 136.71969604492188 C 412.82952880859375 27.859355926513672 514.3131103515625 153.05345153808594 468.9458312988281 261.34808349609375"/>
    <path stroke-width="0" fill="rgb(29, 44, 81)" opacity="1.0156168" stroke="rgb(146, 236, 81)" stroke-opacity="1.0" stroke-linecap="round" stroke-linejoin="round" d="M 553.2869262695312 487.6520690917969 C 553.0545654296875 506.82989501953125 547.32421875 512.4262084960938 532.4751586914062 485.8965759277344 C 484.0242004394531 504.2870788574219 488.4551696777344 385.1822509765625 439.765625 423.8594055175781 C 451.0006103515625 392.8779602050781 435.72833251953125 382.9158630371094 471.1845397949219 394.61566162109375 C 514.5905151367188 401.783203125 544.7960815429688 381.3602600097656 553.2869262695312 487.6520690917969"/>
    <path stroke-width="0" fill="rgb(32, 53, 85)" opacity="0.45149785" stroke="rgb(33, 182, 73)" stroke-opacity="1.0" stroke-linecap="round" stroke-linejoin="round" d="M 598.2183837890625 3.3846793174743652 C 593.9190673828125 299.7571716308594 556.2720336914062 291.59539794921875 462.6419677734375 313.95294189453125 C 402.18804931640625 299.76934814453125 430.7543029785156 317.3553771972656 402.23681640625 310.8582763671875 C 302.8545837402344 415.4808654785156 295.0709228515625 84.27259063720703 220.400390625 -30.739730834960938 C 616.9965209960938 -80.57600402832031 610.6663208007812 -56.13962936401367 598.2183837890625 3.3846793174743652"/>
    <path stroke-width="0" fill="rgb(246, 225, 106)" opacity="0.9394741" stroke="rgb(149, 5, 211)" stroke-opacity="1.0" stroke-linecap="round" stroke-linejoin="round" d="M 455.6325988769531 373.70263671875 C 440.8529357910156 342.9940185546875 428.18170166015625 356.00799560546875 478.1054992675781 381.6798400878906 C 387.41290283203125 353.8431701660156 444.9937744140625 288.3847961425781 379.07562255859375 546.9703979492188 C 420.0893249511719 242.15252685546875 414.95843505859375 322.9147033691406 495.21600341796875 308.2716979980469 C 399.0507507324219 379.3822937011719 422.0099792480469 346.0826416015625 455.6325988769531 373.70263671875"/>
    <path stroke-width="0" fill="rgb(34, 53, 84)" opacity="0.98831993" stroke="rgb(172, 68, 187)" stroke-opacity="1.0" stroke-linecap="round" stroke-linejoin="round" d="M 384.2434997558594 159.04039001464844 C 365.97344970703125 616.4639282226562 335.37750244140625 362.38116455078125 337.8404846191406 482.80767822265625 C 282.18572998046875 472.30841064453125 299.5350341796875 495.0991516113281 286.7858581542969 449.78680419921875 C 333.03564453125 454.627197265625 316.0437927246094 437.01708984375 329.88818359375 482.9278259277344 C 392.66064453125 463.3046569824219 406.4661865234375 573.7451171875 384.2434997558594 159.04039001464844"/>
    <path stroke-width="0" fill="rgb(31, 44, 80)" opacity="1.0025795" stroke="rgb(63, 146, 150)" stroke-opacity="1.0" stroke-linecap="round" stroke-linejoin="round" d="M 509.93505859375 421.3106689453125 C 499.42626953125 394.45123291015625 489.3090515136719 426.6756896972656 505.6915588378906 459.2472229003906 C 485.3659973144531 410.77520751953125 423.9396057128906 443.2408447265625 438.99407958984375 354.4619445800781 C 439.1199035644531 356.66778564453125 429.500732421875 353.57464599609375 504.4187927246094 354.5862731933594 C 495.3907775878906 357.6146240234375 512.0556030273438 371.07440185546875 509.93505859375 421.3106689453125"/>
    <path stroke-width="0" fill="rgb(27, 49, 77)" opacity="0.58084136" stroke="rgb(56, 242, 114)" stroke-opacity="1.0" stroke-linecap="round" stroke-linejoin="round" d="M 514.0323486328125 443.99176025390625 C 548.5046997070312 457.67095947265625 548.2293701171875 462.89361572265625 543.4371948242188 450.9219970703125 C 486.1336364746094 409.0834655761719 455.0773010253906 401.3148193359375 434.72698974609375 379.03466796875 C 436.7518615722656 349.4912109375 435.8055419921875 374.4365234375 436.6751708984375 455.5476989746094 C 461.3013000488281 379.2081604003906 478.5712890625 406.99322509765625 514.0323486328125 443.99176025390625"/>
    <path stroke-width="0" fill="rgb(143, 152, 178)" opacity="0.80215096" stroke="rgb(178, 75, 207)" stroke-opacity="1.0" stroke-linecap="round" stroke-linejoin="round" d="M 146.5753631591797 64.06578826904297 C 189.1266326904297 171.1562957763672 137.143798828125 189.57725524902344 95.3221435546875 112.47310638427734 C 78.98857879638672 102.02765655517578 74.55934143066406 95.71833801269531 71.77154541015625 80.24020385742188 C 108.2825698852539 47.399208068847656 86.2729721069336 65.56670379638672 112.31884765625 28.05066680908203 C 137.21372985839844 48.162620544433594 153.59127807617188 61.55515670776367 146.5753631591797 64.06578826904297"/>
    <path stroke-width="0" fill="rgb(37, 61, 104)" opacity="1.0006113" stroke="rgb(224, 148, 224)" stroke-opacity="1.0" stroke-linecap="round" stroke-linejoin="round" d="M 286.0843200683594 444.0090637207031 C 271.29266357421875 459.7745056152344 282.6534423828125 463.7519226074219 283.17669677734375 480.3121032714844 C 153.82862854003906 480.3918762207031 191.65646362304688 481.6693420410156 207.6497802734375 451.3203125 C 192.28668212890625 449.3279113769531 304.3320007324219 453.4015197753906 273.7568054199219 448.8094482421875 C 281.7405700683594 450.23577880859375 273.7974548339844 459.7892150878906 286.0843200683594 444.0090637207031"/>
    <path stroke-width="0" fill="rgb(138, 139, 144)" opacity="0.91717356" stroke="rgb(184, 127, 243)" stroke-opacity="1.0" stroke-linecap="round" stroke-linejoin="round" d="M 143.49655151367188 27.124956130981445 C 140.59703063964844 37.357181549072266 133.49749755859375 44.94435501098633 123.06793212890625 48.431209564208984 C 65.8031997680664 45.69071960449219 59.37621307373047 38.14412307739258 58.816978454589844 26.212892532348633 C 83.57508850097656 -5.169511318206787 90.54161071777344 -12.83614730834961 99.69918060302734 -15.535563468933105 C 107.08553314208984 -10.922211647033691 112.0997085571289 -1.8173046112060547 143.49655151367188 27.124956130981445"/>
    <path stroke-width="0" fill="rgb(141, 151, 155)" opacity="1.0074266" stroke="rgb(108, 154, 4)" stroke-opacity="1.0" stroke-linecap="round" stroke-linejoin="round" d="M 77.9840316772461 7.511445045471191 C 76.14800262451172 17.268510818481445 69.61963653564453 25.32618522644043 60.31010437011719 27.993755340576172 C 50.272979736328125 25.076005935668945 42.945701599121094 17.72400665283203 38.11872482299805 7.212629795074463 C 39.99248504638672 -3.1111626625061035 48.42400360107422 -10.002517700195312 59.65972137451172 -12.081259727478027 C 69.56719970703125 -9.04971694946289 76.36211395263672 -1.3726924657821655 77.9840316772461 7.511445045471191"/>
    <path stroke-width="0" fill="rgb(115, 123, 131)" opacity="0.9689905" stroke="rgb(168, 73, 157)" stroke-opacity="1.0" stroke-linecap="round" stroke-linejoin="round" d="M 73.2423324584961 16.157392501831055 C 70.39241790771484 27.009057998657227 63.19949722290039 34.489566802978516 48.01252746582031 45.498939514160156 C 21.33819007873535 48.13219451904297 12.160879135131836 48.843414306640625 42.882652282714844 38.205406188964844 C 60.9965705871582 19.847318649291992 59.98495101928711 16.16258430480957 37.5279426574707 -20.80739402770996 C 62.108070373535156 -1.447800874710083 69.45857238769531 5.910210132598877 73.2423324584961 16.157392501831055"/>
    <path stroke-width="0" fill="rgb(80, 103, 123)" opacity="0.56096345" stroke="rgb(34, 76, 145)" stroke-opacity="1.0" stroke-linecap="round" stroke-linejoin="round" d="M 219.49256896972656 10.237892150878906 C 162.88009643554688 84.1623764038086 132.45265197753906 78.49948120117188 115.84552764892578 106.29666900634766 C 84.54254150390625 111.41990661621094 79.51734924316406 103.91210174560547 93.5250473022461 90.73192596435547 C 93.38859558105469 45.93620681762695 101.09754943847656 39.384124755859375 118.86236572265625 -8.022639274597168 C 153.8007354736328 -35.09980392456055 204.68507385253906 -41.463775634765625 219.49256896972656 10.237892150878906"/>
    <path stroke-width="0" fill="rgb(110, 106, 102)" opacity="0.8627142" stroke="rgb(146, 166, 166)" stroke-opacity="1.0" stroke-linecap="round" stroke-linejoin="round" d="M 168.6959686279297 245.86795043945312 C 176.61436462402344 207.77012634277344 124.85150909423828 211.9117889404297 47.16605758666992 193.17579650878906 C 36.99614715576172 189.66331481933594 31.26698112487793 182.12478637695312 40.51610565185547 143.4242706298828 C 58.9291877746582 86.28399658203125 66.34931182861328 79.13863372802734 61.677001953125 97.86360168457031 C 121.24925231933594 108.75310516357422 25.142240524291992 188.70506286621094 168.6959686279297 245.86795043945312"/>
    <path stroke-width="0" fill="rgb(215, 209, 198)" opacity="0.3396994" stroke="rgb(228, 93, 111)" stroke-opacity="1.0" stroke-linecap="round" stroke-linejoin="round" d="M 222.23292541503906 38.865657806396484 C 188.83346557617188 38.57512283325195 155.4066162109375 154.4342803955078 164.9077606201172 167.30020141601562 C 48.184417724609375 146.3030548095703 103.17958068847656 60.72434997558594 85.3222427368164 16.061634063720703 C 86.9957504272461 6.3400702476501465 94.34245300292969 -0.9638224244117737 108.17659759521484 -4.759098052978516 C 170.21072387695312 -16.770721435546875 185.61627197265625 -57.59577178955078 222.23292541503906 38.865657806396484"/>
    <path stroke-width="0" fill="rgb(125, 127, 142)" opacity="0.91802186" stroke="rgb(205, 179, 25)" stroke-opacity="1.0" stroke-linecap="round" stroke-linejoin="round" d="M 85.12085723876953 44.6746940612793 C 35.02279281616211 73.01331329345703 33.040809631347656 82.25774383544922 -11.791783332824707 136.25682067871094 C -23.76293182373047 138.65989685058594 -30.73976707458496 131.9322509765625 -32.81601333618164 110.17607116699219 C -19.24202537536621 31.779178619384766 -11.143506050109863 25.524898529052734 62.08185577392578 26.810712814331055 C 74.79780578613281 26.92786979675293 82.16499328613281 32.92567443847656 85.12085723876953 44.6746940612793"/>
    <path stroke-width="0" fill="rgb(123, 144, 136)" opacity="1.0296926" stroke="rgb(182, 254, 38)" stroke-opacity="1.0" stroke-linecap="round" stroke-linejoin="round" d="M 231.8511962890625 230.7207794189453 C 170.88699340820312 237.96780395507812 133.14987182617188 339.576416015625 149.18588256835938 330.449951171875 C -50.73262023925781 332.6649475097656 -18.41466522216797 294.5494079589844 -12.061596870422363 198.14942932128906 C -3.915862560272217 132.6452178955078 -2.086402654647827 118.95149230957031 49.04069137573242 109.55744171142578 C 123.74405670166016 109.91998291015625 129.23110961914062 131.18154907226562 231.8511962890625 230.7207794189453"/>
    <path stroke-width="0" fill="rgb(134, 144, 147)" opacity="0.95656586" stroke="rgb(41, 156, 31)" stroke-opacity="1.0" stroke-linecap="round" stroke-linejoin="round" d="M 67.85319519042969 67.3909912109375 C 65.1668701171875 78.08479309082031 58.07563018798828 85.55111694335938 -4.344578742980957 92.31315612792969 C -18.30956268310547 92.00404357910156 -28.15337371826172 88.30581665039062 -30.40452766418457 79.21770477294922 C -26.784635543823242 3.3494513034820557 -18.000425338745117 -3.135021209716797 -10.877303123474121 -2.889314651489258 C 56.67249298095703 5.541991233825684 63.829673767089844 11.477227210998535 67.85319519042969 67.3909912109375"/>
    <path stroke-width="0" fill="rgb(149, 139, 150)" opacity="0.96810484" stroke="rgb(205, 145, 103)" stroke-opacity="1.0" stroke-linecap="round" stroke-linejoin="round" d="M 91.24761199951172 69.57716369628906 C 57.47041702270508 78.90538024902344 73.01539611816406 81.84122467041016 60.88434600830078 127.8462142944336 C 50.45081329345703 124.9291763305664 43.60502243041992 117.19660186767578 34.743045806884766 53.426666259765625 C 35.08967208862305 41.2590446472168 40.93880844116211 33.260658264160156 49.875423431396484 31.454275131225586 C 93.39346313476562 67.3219223022461 100.9609603881836 74.39827728271484 91.24761199951172 69.57716369628906"/>
    <path stroke-width="0" fill="rgb(135, 139, 145)" opacity="0.93526256" stroke="rgb(177, 115, 184)" stroke-opacity="1.0" stroke-linecap="round" stroke-linejoin="round" d="M 115.36091613769531 32.75007629394531 C 114.6943588256836 43.7172737121582 107.88692474365234 51.170127868652344 97.63020324707031 53.04787063598633 C 63.00345993041992 24.274988174438477 55.51005554199219 17.13259506225586 48.665313720703125 7.336719512939453 C 54.845375061035156 -1.477724552154541 62.20717239379883 -9.12018871307373 71.94165802001953 -12.024300575256348 C 81.55511474609375 -8.94324016571045 88.34391021728516 -1.1107181310653687 115.36091613769531 32.75007629394531"/>
    <path stroke-width="0" fill="rgb(133, 143, 143)" opacity="0.90072024" stroke="rgb(248, 218, 2)" stroke-opacity="1.0" stroke-linecap="round" stroke-linejoin="round" d="M 113.35720825195312 17.10267448425293 C 37.5704460144043 21.72525978088379 105.12437438964844 80.56153106689453 35.36349868774414 94.47201538085938 C 26.535921096801758 88.651123046875 18.72563934326172 81.51969146728516 14.40785026550293 71.5355224609375 C 49.93712615966797 29.47945785522461 58.34702682495117 23.819988250732422 92.4922866821289 -4.504341125488281 C 104.1536865234375 -3.8506760597229004 110.83425903320312 4.084891319274902 113.35720825195312 17.10267448425293"/>
    <path stroke-width="0" fill="rgb(152, 152, 157)" opacity="1.0225664" stroke="rgb(186, 43, 132)" stroke-opacity="1.0" stroke-linecap="round" stroke-linejoin="round" d="M 104.59334564208984 136.91893005371094 C 105.92633819580078 149.582763671875 104.47209167480469 162.30528259277344 95.25296020507812 176.4733123779297 C 9.990684509277344 168.87586975097656 10.001899719238281 158.57594299316406 22.92593765258789 135.8719024658203 C 41.870460510253906 97.44381713867188 49.665557861328125 90.38874816894531 82.27073669433594 65.03824615478516 C 93.67937469482422 66.91913604736328 100.9003677368164 74.36407470703125 104.59334564208984 136.91893005371094"/>
    <path stroke-width="0" fill="rgb(123, 141, 142)" opacity="0.8815072" stroke="rgb(50, 4, 202)" stroke-opacity="1.0" stroke-linecap="round" stroke-linejoin="round" d="M 164.99859619140625 230.36642456054688 C 322.512939453125 174.6304931640625 651.9920043945312 285.569091796875 140.2185821533203 267.3807678222656 C -14.7437744140625 235.14044189453125 30.954795837402344 192.33599853515625 52.48416519165039 165.84539794921875 C 97.93096160888672 112.66072082519531 95.6106185913086 113.54977416992188 72.44221496582031 95.9947738647461 C 86.33519744873047 155.9825897216797 151.6704864501953 68.32176971435547 164.99859619140625 230.36642456054688"/>
    <path stroke-width="0" fill="rgb(135, 143, 133)" opacity="0.9343572" stroke="rgb(88, 236, 179)" stroke-opacity="1.0" stroke-linecap="round" stroke-linejoin="round" d="M 130.88101196289062 28.877201080322266 C 112.9529800415039 57.63788986206055 105.8075942993164 65.17680358886719 96.30284118652344 68.03480529785156 C 87.64631652832031 64.25212860107422 86.97566223144531 52.422481536865234 63.167842864990234 25.117347717285156 C 58.43555450439453 17.06338882446289 65.24398040771484 9.302960395812988 74.73514556884766 4.41818380355835 C 129.93649291992188 6.178415298461914 136.31118774414062 14.20388412475586 130.88101196289062 28.877201080322266"/>
    <path stroke-width="0" fill="rgb(166, 145, 164)" opacity="0.8545058" stroke="rgb(41, 158, 147)" stroke-opacity="1.0" stroke-linecap="round" stroke-linejoin="round" d="M 115.41500854492188 85.74620819091797 C 87.43208312988281 189.47305297851562 166.015869140625 171.43215942382812 116.94408416748047 121.51470184326172 C 64.89872741699219 149.31903076171875 58.18461608886719 138.06588745117188 55.051490783691406 127.30814361572266 C 69.68867492675781 85.41484832763672 86.34537506103516 85.07026672363281 126.13188171386719 60.99843978881836 C 136.773681640625 60.682762145996094 146.78311157226562 66.13093566894531 115.41500854492188 85.74620819091797"/>
    <path stroke-width="0" fill="rgb(132, 143, 139)" opacity="0.9931143" stroke="rgb(238, 156, 136)" stroke-opacity="1.0" stroke-linecap="round" stroke-linejoin="round" d="M 94.41645050048828 34.164005279541016 C 57.84762191772461 58.62417984008789 66.46003723144531 63.5318717956543 76.851806640625 75.9826431274414 C 14.689064025878906 72.36449432373047 26.356197357177734 64.5654525756836 -0.9485347867012024 2.756678342819214 C 0.6167176961898804 -8.219541549682617 7.70470666885376 -15.566514015197754 20.136260986328125 -17.93915557861328 C 60.66507339477539 13.336223602294922 58.694374084472656 12.365701675415039 94.41645050048828 34.164005279541016"/>
    <path stroke-width="0" fill="rgb(128, 145, 137)" opacity="0.90358007" stroke="rgb(186, 79, 101)" stroke-opacity="1.0" stroke-linecap="round" stroke-linejoin="round" d="M 70.80725860595703 4.07202672958374 C 66.4569320678711 12.216687202453613 48.58706283569336 7.611495018005371 12.16213607788086 52.370609283447266 C 0.5164353251457214 50.04039001464844 -8.289870262145996 44.12492370605469 -31.94439125061035 10.618919372558594 C -11.457196235656738 -50.801475524902344 3.0080111026763916 -43.40044403076172 33.15960693359375 -33.32235336303711 C 54.61767578125 -17.806503295898438 62.73549270629883 -11.243059158325195 70.80725860595703 4.07202672958374"/>
    <path stroke-width="0" fill="rgb(145, 154, 158)" opacity="0.782979" stroke="rgb(47, 240, 188)" stroke-opacity="1.0" stroke-linecap="round" stroke-linejoin="round" d="M 147.5570526123047 41.74897766113281 C 174.51133728027344 119.4388198852539 169.3406982421875 63.84394073486328 135.11431884765625 88.08077239990234 C 103.9867172241211 60.2345085144043 98.11264038085938 52.99591064453125 69.97389221191406 29.189353942871094 C 68.27661895751953 14.984865188598633 74.59452056884766 6.283679485321045 87.85508728027344 5.0300750732421875 C 140.5595703125 8.227325439453125 154.66949462890625 12.493049621582031 147.5570526123047 41.74897766113281"/>
    <path stroke-width="0" fill="rgb(132, 141, 141)" opacity="0.9915325" stroke="rgb(57, 64, 14)" stroke-opacity="1.0" stroke-linecap="round" stroke-linejoin="round" d="M 117.01663208007812 165.21527099609375 C 110.4677734375 177.02256774902344 103.83705139160156 184.50796508789062 43.18109130859375 184.6535186767578 C -21.262794494628906 176.2891387939453 -32.62724304199219 173.293701171875 -36.65303421020508 136.71397399902344 C -11.269943237304688 70.24153900146484 0.8690714836120605 65.71571350097656 18.066051483154297 63.464054107666016 C 37.693668365478516 127.73137664794922 70.53900146484375 87.8223876953125 117.01663208007812 165.21527099609375"/>
    <path stroke-width="0" fill="rgb(171, 169, 176)" opacity="0.581312" stroke="rgb(79, 177, 96)" stroke-opacity="1.0" stroke-linecap="round" stroke-linejoin="round" d="M 163.89193725585938 54.897865295410156 C 117.73075866699219 79.60368347167969 128.2381591796875 97.86115264892578 113.92459869384766 108.9272232055664 C 78.091064453125 99.11512756347656 85.73281860351562 80.13976287841797 85.73016357421875 72.65630340576172 C 84.02772521972656 44.603694915771484 86.07389068603516 74.70285034179688 84.01020812988281 54.759918212890625 C 101.1846694946289 50.32381820678711 61.65492630004883 38.04655456542969 163.89193725585938 54.897865295410156"/>
    <path stroke-width="0" fill="rgb(132, 143, 143)" opacity="0.8945294" stroke="rgb(6, 17, 173)" stroke-opacity="1.0" stroke-linecap="round" stroke-linejoin="round" d="M 153.46173095703125 30.06284523010254 C 85.94214630126953 7.660745620727539 87.99347686767578 12.861190795898438 70.4111328125 45.2041130065918 C 60.77586364746094 37.370506286621094 55.864715576171875 31.423770904541016 65.8768539428711 12.801674842834473 C 74.48532104492188 -10.367140769958496 81.24718475341797 -18.06056022644043 104.16108703613281 -37.81949996948242 C 90.38848876953125 -1.001010537147522 114.65230560302734 -10.948418617248535 153.46173095703125 30.06284523010254"/>
    <path stroke-width="0" fill="rgb(128, 142, 138)" opacity="0.8348534" stroke="rgb(136, 228, 252)" stroke-opacity="1.0" stroke-linecap="round" stroke-linejoin="round" d="M 66.92343139648438 156.61253356933594 C 63.08467102050781 228.757080078125 59.447689056396484 238.47825622558594 26.303974151611328 257.45208740234375 C -64.7019271850586 246.76275634765625 -65.4352798461914 235.17222595214844 -46.545860290527344 190.45008850097656 C -51.45711898803711 127.693359375 -45.941383361816406 118.31744384765625 -0.7249093055725098 95.00048828125 C 63.86015319824219 102.17306518554688 69.65746307373047 109.15301513671875 66.92343139648438 156.61253356933594"/>
    <path stroke-width="0" fill="rgb(90, 131, 98)" opacity="0.7631452" stroke="rgb(169, 67, 5)" stroke-opacity="1.0" stroke-linecap="round" stroke-linejoin="round" d="M 933.2699584960938 229.6645965576172 C 529.73486328125 317.95361328125 419.1449890136719 162.33163452148438 395.5950622558594 350.0448303222656 C 227.22128295898438 244.36383056640625 400.00335693359375 124.55953216552734 477.65594482421875 159.10960388183594 C 488.65777587890625 -17.104997634887695 356.33349609375 396.5572204589844 370.80560302734375 0.3436344861984253 C 572.5426635742188 -65.4951400756836 602.8023071289062 -29.208887100219727 933.2699584960938 229.6645965576172"/>
    <path stroke-width="0" fill="rgb(130, 146, 133)" opacity="0.94101846" stroke="rgb(81, 97, 150)" stroke-opacity="1.0" stroke-linecap="round" stroke-linejoin="round" d="M 165.32139587402344 19.096750259399414 C 189.15769958496094 34.695858001708984 172.53170776367188 39.87309265136719 116.68608856201172 43.856651306152344 C 103.58026885986328 39.97236251831055 95.08053588867188 32.8863410949707 91.64899444580078 20.45965576171875 C 116.16466522216797 -12.53282642364502 123.82545471191406 -19.560449600219727 151.9048309326172 -32.45341873168945 C 160.65684509277344 -30.736177444458008 146.21652221679688 -5.075016021728516 165.32139587402344 19.096750259399414"/>
    <path stroke-width="0" fill="rgb(126, 142, 141)" opacity="0.9671985" stroke="rgb(160, 222, 69)" stroke-opacity="1.0" stroke-linecap="round" stroke-linejoin="round" d="M 223.14564514160156 -75.18378448486328 C 136.1608428955078 194.11886596679688 160.8168487548828 164.24102783203125 227.55052185058594 217.84800720214844 C -25.596271514892578 229.85621643066406 42.81507110595703 144.47506713867188 21.327777862548828 144.58575439453125 C 108.83918762207031 94.65892028808594 79.00189208984375 66.82594299316406 161.8340301513672 2.174145221710205 C 243.69265747070312 61.709346771240234 378.5486755371094 82.33490753173828 223.14564514160156 -75.18378448486328"/>
    <path stroke-width="0" fill="rgb(130, 143, 138)" opacity="1.0075835" stroke="rgb(47, 242, 175)" stroke-opacity="1.0" stroke-linecap="round" stroke-linejoin="round" d="M 96.10462951660156 55.440189361572266 C 89.59696960449219 117.45184326171875 82.27730560302734 127.67634582519531 39.99913787841797 121.7168960571289 C 20.31525230407715 118.57813262939453 18.367746353149414 107.48635864257812 31.340944290161133 63.33584976196289 C -0.21104273200035095 45.26288986206055 12.950675964355469 50.54058074951172 74.9189453125 29.825103759765625 C 88.98051452636719 35.38642501831055 94.83979797363281 43.916046142578125 96.10462951660156 55.440189361572266"/>
    <path stroke-width="0" fill="rgb(127, 143, 142)" opacity="0.9702909" stroke="rgb(241, 186, 64)" stroke-opacity="1.0" stroke-linecap="round" stroke-linejoin="round" d="M 116.16520690917969 47.59444808959961 C 118.71389770507812 75.37984466552734 105.81268310546875 75.90745544433594 69.86184692382812 100.63428497314453 C 58.925716400146484 100.34556579589844 52.386924743652344 92.81178283691406 51.348392486572266 83.66078186035156 C 104.64479064941406 74.18795776367188 90.43220520019531 60.06718444824219 76.10926055908203 28.517847061157227 C 100.06086730957031 45.20975112915039 111.71369934082031 49.23744583129883 116.16520690917969 47.59444808959961"/>
    <path stroke-width="0" fill="rgb(79, 89, 143)" opacity="0.56524646" stroke="rgb(132, 6, 52)" stroke-opacity="1.0" stroke-linecap="round" stroke-linejoin="round" d="M 230.31732177734375 14.957775115966797 C 403.00445556640625 223.62942504882812 261.3399658203125 264.369873046875 203.5148162841797 195.0972900390625 C 213.61268615722656 233.71234130859375 315.22576904296875 203.9427032470703 268.0774841308594 208.7808837890625 C 300.1222229003906 209.51992797851562 281.0000915527344 198.32020568847656 173.35121154785156 209.58230590820312 C 269.712646484375 204.60641479492188 329.8755187988281 178.53245544433594 230.31732177734375 14.957775115966797"/>
    <path stroke-width="0" fill="rgb(117, 133, 120)" opacity="0.57941234" stroke="rgb(95, 118, 70)" stroke-opacity="1.0" stroke-linecap="round" stroke-linejoin="round" d="M 110.70745086669922 277.1440124511719 C 102.41046905517578 460.8285827636719 148.92849731445312 410.3919372558594 0.6433834433555603 442.3424072265625 C -36.077266693115234 336.9959411621094 -36.5761833190918 324.3809509277344 -35.94852066040039 275.1544494628906 C -41.400962829589844 197.63021850585938 -41.09809494018555 183.4933319091797 -11.171974182128906 181.77398681640625 C 94.68324279785156 190.5563201904297 101.1845474243164 199.87234497070312 110.70745086669922 277.1440124511719"/>
    <path stroke-width="0" fill="rgb(163, 154, 59)" opacity="0.7877308" stroke="rgb(220, 29, 131)" stroke-opacity="1.0" stroke-linecap="round" stroke-linejoin="round" d="M 522.6812744140625 336.6890869140625 C 470.57513427734375 354.02545166015625 476.7996520996094 312.6600646972656 464.5862731933594 316.3126525878906 C 463.2364196777344 344.4137878417969 459.3149719238281 364.19207763671875 465.83587646484375 306.21563720703125 C 459.193603515625 304.8349609375 470.5782165527344 333.40081787109375 562.7493286132812 319.53082275390625 C 515.86572265625 302.6404113769531 489.4151916503906 314.3601379394531 522.6812744140625 336.6890869140625"/>
    <path stroke-width="0" fill="rgb(240, 112, 70)" opacity="0.47538537" stroke="rgb(140, 149, 245)" stroke-opacity="1.0" stroke-linecap="round" stroke-linejoin="round" d="M 572.8895874023438 352.41229248046875 C 581.4207763671875 364.1956481933594 555.505859375 358.9567565917969 440.90606689453125 345.82733154296875 C 471.1876220703125 328.6051940917969 481.62139892578125 320.72479248046875 509.7034912109375 298.78857421875 C 533.5806884765625 285.1456604003906 511.8396911621094 311.1181945800781 520.8947143554688 305.3011169433594 C 525.5113525390625 291.9359130859375 521.249755859375 311.6423645019531 572.8895874023438 352.41229248046875"/>
    <path stroke-width="0" fill="rgb(93, 125, 100)" opacity="0.74537426" stroke="rgb(170, 200, 71)" stroke-opacity="1.0" stroke-linecap="round" stroke-linejoin="round" d="M 442.23370361328125 184.7038116455078 C 437.9449157714844 186.50588989257812 428.7953186035156 194.87890625 443.34747314453125 185.781005859375 C 442.35223388671875 207.6287384033203 464.25543212890625 206.22694396972656 431.6605224609375 198.30633544921875 C 457.11297607421875 180.63204956054688 463.8782043457031 160.03717041015625 468.02252197265625 204.39407348632812 C 429.4398498535156 176.79847717285156 442.6656494140625 200.2666473388672 442.23370361328125 184.7038116455078"/>
    <path stroke-width="0" fill="rgb(136, 202, 61)" opacity="0.9097001" stroke="rgb(16, 123, 249)" stroke-opacity="1.0" stroke-linecap="round" stroke-linejoin="round" d="M 461.7845153808594 159.72525024414062 C 494.2817077636719 169.6310272216797 500.9573059082031 155.42893981933594 469.7151794433594 203.21975708007812 C 474.99951171875 155.4960479736328 479.08795166015625 136.01158142089844 479.9386901855469 115.42625427246094 C 460.77947998046875 191.2820587158203 472.93841552734375 159.6313018798828 477.85009765625 153.27137756347656 C 470.15179443359375 160.7404327392578 479.6313171386719 180.29232788085938 461.7845153808594 159.72525024414062"/>
    <path stroke-width="0" fill="rgb(135, 199, 47)" opacity="0.96175754" stroke="rgb(86, 245, 59)" stroke-opacity="1.0" stroke-linecap="round" stroke-linejoin="round" d="M 471.3667907714844 120.69623565673828 C 442.544189453125 61.48271179199219 421.7400207519531 131.38690185546875 460.12713623046875 135.13137817382812 C 498.8003234863281 155.06947326660156 470.0325622558594 165.1887969970703 470.0953369140625 146.236572265625 C 484.5945129394531 120.5138168334961 481.0115051269531 131.41323852539062 464.646728515625 137.49766540527344 C 452.389404296875 147.8204803466797 460.4193420410156 160.31143188476562 471.3667907714844 120.69623565673828"/>
    <path stroke-width="0" fill="rgb(247, 183, 105)" opacity="0.94976294" stroke="rgb(240, 203, 160)" stroke-opacity="1.0" stroke-linecap="round" stroke-linejoin="round" d="M 449.9248046875 348.32464599609375 C 422.460205078125 341.8740539550781 407.0915832519531 349.1004333496094 432.8301696777344 341.3775634765625 C 423.5131530761719 350.48162841796875 422.73065185546875 344.23876953125 414.46527099609375 360.9678955078125 C 407.8214111328125 428.5850524902344 415.1355285644531 373.9301452636719 418.066650390625 348.5179748535156 C 381.4085693359375 328.8431091308594 364.1777648925781 374.2978820800781 449.9248046875 348.32464599609375"/>
    <path stroke-width="0" fill="rgb(117, 186, 56)" opacity="0.82593346" stroke="rgb(74, 216, 157)" stroke-opacity="1.0" stroke-linecap="round" stroke-linejoin="round" d="M 460.3124694824219 128.2811737060547 C 457.222412109375 155.68743896484375 458.5355224609375 170.1395721435547 464.7915954589844 165.17481994628906 C 476.86669921875 171.24229431152344 472.9494323730469 146.48855590820312 456.2255554199219 195.98379516601562 C 467.1814880371094 134.67103576660156 483.1446838378906 124.96754455566406 459.6857604980469 134.96868896484375 C 455.5048522949219 150.97425842285156 438.04742431640625 167.53482055664062 460.3124694824219 128.2811737060547"/>
    <path stroke-width="0" fill="rgb(32, 50, 74)" opacity="0.7413346" stroke="rgb(88, 37, 250)" stroke-opacity="1.0" stroke-linecap="round" stroke-linejoin="round" d="M 383.43072509765625 414.4126892089844 C 382.3969421386719 356.7115173339844 377.7718505859375 370.5884704589844 397.1545104980469 369.42919921875 C 353.98602294921875 392.9317626953125 403.24945068359375 454.2615661621094 397.4017639160156 414.2399597167969 C 423.2688903808594 298.22467041015625 377.3177490234375 397.8251037597656 386.1379699707031 364.3027648925781 C 356.8931579589844 399.51904296875 371.8262939453125 420.8097229003906 383.43072509765625 414.4126892089844"/>
    <path stroke-width="0" fill="rgb(149, 100, 103)" opacity="0.7369396" stroke="rgb(126, 163, 93)" stroke-opacity="1.0" stroke-linecap="round" stroke-linejoin="round" d="M 562.4721069335938 297.3526611328125 C 503.48260498046875 338.0379638671875 496.94610595703125 343.2876892089844 574.4067993164062 309.5257873535156 C 482.5626525878906 332.68731689453125 448.76336669921875 303.7668151855469 495.18572998046875 311.81695556640625 C 526.0599365234375 331.515869140625 527.1475830078125 331.09381103515625 488.243896484375 290.47772216796875 C 475.5917663574219 275.5613708496094 516.7556762695312 273.48046875 562.4721069335938 297.3526611328125"/>
    <path stroke-width="0" fill="rgb(102, 110, 111)" opacity="0.48154974" stroke="rgb(209, 48, 130)" stroke-opacity="1.0" stroke-linecap="round" stroke-linejoin="round" d="M 477.7908935546875 158.35861206054688 C 483.4581298828125 149.97439575195312 470.38623046875 134.7048797607422 428.08026123046875 178.76968383789062 C 448.0997314453125 158.8102264404297 446.5716552734375 134.20672607421875 439.40283203125 171.75955200195312 C 459.99169921875 175.1248779296875 454.7605285644531 126.16654968261719 479.0833435058594 124.40323638916016 C 429.79241943359375 148.7097930908203 418.1291809082031 180.3024444580078 477.7908935546875 158.35861206054688"/>
    <path stroke-width="0" fill="rgb(107, 131, 89)" opacity="0.5795933" stroke="rgb(24, 219, 248)" stroke-opacity="1.0" stroke-linecap="round" stroke-linejoin="round" d="M 444.41119384765625 187.12689208984375 C 459.1435852050781 193.49972534179688 418.91015625 198.77162170410156 448.1555480957031 222.9774932861328 C 432.6029968261719 186.3477020263672 441.6016540527344 176.6808624267578 449.6116638183594 193.6820831298828 C 425.74298095703125 197.0502471923828 444.9242248535156 197.8787384033203 443.06146240234375 185.5953826904297 C 404.97882080078125 198.43031311035156 453.77105712890625 214.09661865234375 444.41119384765625 187.12689208984375"/>
    <path stroke-width="0" fill="rgb(253, 218, 132)" opacity="0.9900037" stroke="rgb(231, 197, 84)" stroke-opacity="1.0" stroke-linecap="round" stroke-linejoin="round" d="M 154.28408813476562 516.2620849609375 C 145.3211212158203 511.6175842285156 173.56100463867188 508.208251953125 143.8426513671875 498.849365234375 C 130.98313903808594 492.9410095214844 163.33926391601562 474.5740051269531 163.56396484375 477.4847412109375 C 126.31473541259766 492.82757568359375 141.29830932617188 504.45050048828125 144.18423461914062 450.4173889160156 C 171.13079833984375 450.1110534667969 145.69973754882812 443.2627868652344 154.28408813476562 516.2620849609375"/>
    <path stroke-width="0" fill="rgb(77, 106, 88)" opacity="0.9554923" stroke="rgb(103, 59, 33)" stroke-opacity="1.0" stroke-linecap="round" stroke-linejoin="round" d="M 522.731201171875 193.24136352539062 C 486.95489501953125 123.54131317138672 483.97454833984375 131.62229919433594 479.1600036621094 91.7054672241211 C 469.5038146972656 127.08036041259766 430.77874755859375 117.15874481201172 471.13079833984375 195.83291625976562 C 475.5680236816406 159.1649932861328 470.5742492675781 150.80604553222656 513.82861328125 130.04031372070312 C 449.9532165527344 155.279052734375 514.9260864257812 142.76271057128906 522.731201171875 193.24136352539062"/>
    <path stroke-width="0" fill="rgb(250, 220, 182)" opacity="0.83962715" stroke="rgb(185, 2, 196)" stroke-opacity="1.0" stroke-linecap="round" stroke-linejoin="round" d="M 236.09588623046875 163.0341796875 C 238.26104736328125 126.48684692382812 238.5220489501953 140.6367645263672 231.7572479248047 138.4215087890625 C 247.16099548339844 170.8521270751953 193.910400390625 167.88748168945312 209.10679626464844 141.881103515625 C 213.0143585205078 114.52338409423828 227.11207580566406 103.20208740234375 238.37283325195312 134.47447204589844 C 235.0932159423828 158.74000549316406 232.9314727783203 176.21234130859375 236.09588623046875 163.0341796875"/>
    <path stroke-width="0" fill="rgb(145, 122, 81)" opacity="0.71114737" stroke="rgb(20, 22, 171)" stroke-opacity="1.0" stroke-linecap="round" stroke-linejoin="round" d="M 572.3388671875 499.0928039550781 C 379.6827087402344 488.142333984375 380.0814514160156 507.783203125 400.1680908203125 479.5116271972656 C 385.4343566894531 493.3763427734375 398.8927917480469 495.42950439453125 388.56591796875 499.7162170410156 C 401.4830627441406 470.8901062011719 396.944580078125 473.744384765625 396.4894104003906 481.13763427734375 C 394.5528259277344 502.72259521484375 349.69915771484375 494.6254577636719 572.3388671875 499.0928039550781"/>
    <path stroke-width="0" fill="rgb(112, 172, 75)" opacity="0.36909378" stroke="rgb(107, 142, 219)" stroke-opacity="1.0" stroke-linecap="round" stroke-linejoin="round" d="M 472.7903137207031 162.15933227539062 C 465.06719970703125 152.84432983398438 431.4269714355469 197.25086975097656 434.29046630859375 171.3225860595703 C 452.0791320800781 166.84339904785156 439.04168701171875 162.21453857421875 432.6602478027344 188.24551391601562 C 423.44061279296875 204.43731689453125 436.7303161621094 185.25413513183594 457.67449951171875 173.4414520263672 C 469.6481628417969 193.2246551513672 455.9476013183594 149.57916259765625 472.7903137207031 162.15933227539062"/>
    <path stroke-width="0" fill="rgb(264, 272, 169)" opacity="0.8191945" stroke="rgb(68, 33, 14)" stroke-opacity="1.0" stroke-linecap="round" stroke-linejoin="round" d="M 227.5166778564453 86.02869415283203 C 227.0518035888672 74.263916015625 245.1071319580078 100.79576110839844 249.937255859375 149.39195251464844 C 254.57012939453125 164.04641723632812 193.09884643554688 172.81912231445312 198.56988525390625 137.05831909179688 C 209.0640106201172 73.21244049072266 236.6838836669922 59.499305725097656 224.8871307373047 96.7059097290039 C 220.6851348876953 107.39167785644531 222.62071228027344 107.23110961914062 227.5166778564453 86.02869415283203"/>
    <path stroke-width="0" fill="rgb(191, 171, 57)" opacity="0.18963699" stroke="rgb(66, 116, 174)" stroke-opacity="1.0" stroke-linecap="round" stroke-linejoin="round" d="M 512.9468994140625 297.50189208984375 C 552.3458862304688 330.3031311035156 490.8088684082031 303.6708679199219 467.6686706542969 321.37994384765625 C 512.1604614257812 333.2690734863281 473.1534729003906 310.3741760253906 477.78509521484375 344.4434814453125 C 484.9238586425781 345.1979064941406 481.7071533203125 340.4705505371094 428.4445495605469 340.03094482421875 C 508.041015625 366.2215270996094 507.7249755859375 323.442626953125 512.9468994140625 297.50189208984375"/>
    <path stroke-width="0" fill="rgb(92, 85, 61)" opacity="0.721273" stroke="rgb(72, 96, 46)" stroke-opacity="1.0" stroke-linecap="round" stroke-linejoin="round" d="M 508.7995300292969 305.3910217285156 C 482.60345458984375 280.13507080078125 467.244384765625 296.576171875 484.5783386230469 275.58868408203125 C 472.3234558105469 310.09149169921875 452.3127746582031 298.9505310058594 477.3031921386719 323.0303039550781 C 472.065185546875 330.1506042480469 484.8045349121094 314.4496154785156 457.6339416503906 301.81085205078125 C 462.5499572753906 296.73699951171875 498.7060546875 287.02734375 508.7995300292969 305.3910217285156"/>
    <path stroke-width="0" fill="rgb(105, 210, -21)" opacity="0.8388636" stroke="rgb(109, 130, 136)" stroke-opacity="1.0" stroke-linecap="round" stroke-linejoin="round" d="M 241.70396423339844 58.5467529296875 C 219.72994995117188 72.19412994384766 195.0135498046875 103.703857421875 186.42892456054688 97.34553527832031 C 199.445068359375 161.02676391601562 176.5126953125 80.9586181640625 204.0183563232422 54.30718231201172 C 237.95838928222656 41.2086181640625 272.3726806640625 92.01887512207031 220.4156036376953 95.9501724243164 C 239.10177612304688 94.03687286376953 263.14544677734375 84.73713684082031 241.70396423339844 58.5467529296875"/>
    <path stroke-width="0" fill="rgb(250, 229, 144)" opacity="0.97560936" stroke="rgb(70, 32, 100)" stroke-opacity="1.0" stroke-linecap="round" stroke-linejoin="round" d="M 187.1465301513672 479.2385559082031 C 191.4250030517578 442.6865234375 185.1259002685547 470.3038635253906 176.60643005371094 477.0821228027344 C 172.7902069091797 461.1025695800781 188.12384033203125 442.675537109375 192.60055541992188 495.1958923339844 C 201.97494506835938 481.7956237792969 195.96531677246094 470.17938232421875 204.24752807617188 451.530029296875 C 187.66798400878906 435.4190979003906 190.4459991455078 489.0178527832031 187.1465301513672 479.2385559082031"/>
    <path stroke-width="0" fill="rgb(78, 92, 106)" opacity="0.99311143" stroke="rgb(47, 230, 138)" stroke-opacity="1.0" stroke-linecap="round" stroke-linejoin="round" d="M 190.17752075195312 480.623046875 C 134.6952667236328 479.23291015625 153.01919555664062 489.9278869628906 157.0417938232422 452.6312561035156 C 206.09481811523438 452.0401916503906 198.59732055664062 452.6856994628906 163.44094848632812 463.2456970214844 C 151.94532775878906 465.87371826171875 160.80860900878906 446.05718994140625 160.11618041992188 463.67791748046875 C 215.92572021484375 450.38250732421875 187.0651397705078 435.63067626953125 190.17752075195312 480.623046875"/>
    <path stroke-width="0" fill="rgb(262, 256, 177)" opacity="0.838296" stroke="rgb(224, 116, 184)" stroke-opacity="1.0" stroke-linecap="round" stroke-linejoin="round" d="M 221.92567443847656 150.4136962890625 C 244.54835510253906 151.0087127685547 262.66229248046875 149.056396484375 192.99148559570312 144.88995361328125 C 192.30308532714844 120.08264923095703 228.31117248535156 30.436769485473633 233.05322265625 108.73815155029297 C 260.800537109375 122.70723724365234 234.22323608398438 68.21192169189453 224.35272216796875 77.7081298828125 C 237.13511657714844 87.59193420410156 233.98643493652344 125.25845336914062 221.92567443847656 150.4136962890625"/>
    <path stroke-width="0" fill="rgb(119, 213, -21)" opacity="0.740092" stroke="rgb(192, 162, 61)" stroke-opacity="1.0" stroke-linecap="round" stroke-linejoin="round" d="M 258.18328857421875 92.8674087524414 C 244.28453063964844 71.0636978149414 222.97933959960938 26.21515464782715 250.74542236328125 77.54788208007812 C 250.2386474609375 76.7952880859375 247.87442016601562 72.84410095214844 264.5513916015625 112.27922821044922 C 283.53509521484375 217.43643188476562 267.7668762207031 132.98939514160156 219.98081970214844 49.841190338134766 C 252.522216796875 44.02914810180664 245.8841552734375 80.6783218383789 258.18328857421875 92.8674087524414"/>
    <path stroke-width="0" fill="rgb(127, 211, 40)" opacity="0.7748951" stroke="rgb(203, 244, 116)" stroke-opacity="1.0" stroke-linecap="round" stroke-linejoin="round" d="M 445.5474853515625 175.98370361328125 C 480.7884826660156 140.34115600585938 461.1278076171875 167.7734832763672 438.5918273925781 177.3995819091797 C 467.5133361816406 185.58738708496094 443.79754638671875 204.2332000732422 429.3759765625 199.6631622314453 C 418.1830139160156 173.18637084960938 487.3858947753906 172.00462341308594 463.25958251953125 137.74716186523438 C 472.77777099609375 175.66610717773438 496.6814880371094 130.30975341796875 445.5474853515625 175.98370361328125"/>
    <path stroke-width="0" fill="rgb(109, 115, 158)" opacity="0.39569956" stroke="rgb(218, 116, 242)" stroke-opacity="1.0" stroke-linecap="round" stroke-linejoin="round" d="M 197.3351287841797 27.156572341918945 C 216.14871215820312 36.289833068847656 227.08628845214844 24.5930118560791 212.0961151123047 32.61525344848633 C 222.40431213378906 45.7579345703125 238.93443298339844 36.20596694946289 229.8474578857422 38.9850959777832 C 217.9970245361328 37.849037170410156 226.06800842285156 37.96975326538086 260.1430969238281 24.946847915649414 C 210.5877685546875 43.72736740112305 224.27867126464844 38.1467399597168 197.3351287841797 27.156572341918945"/>
    <path stroke-width="0" fill="rgb(109, 198, 14)" opacity="0.8497382" stroke="rgb(209, 231, 207)" stroke-opacity="1.0" stroke-linecap="round" stroke-linejoin="round" d="M 251.96226501464844 89.33924102783203 C 259.06243896484375 88.66986846923828 233.27430725097656 85.7894287109375 247.60369873046875 93.24331665039062 C 270.62744140625 90.95100402832031 258.9065856933594 91.84323120117188 252.63916015625 92.95541381835938 C 263.6474914550781 139.7300262451172 250.36099243164062 84.13448333740234 249.7898406982422 76.3582763671875 C 252.07571411132812 85.03082275390625 257.3394470214844 105.88469696044922 251.96226501464844 89.33924102783203"/>
    <path stroke-width="0" fill="rgb(127, 132, 151)" opacity="0.82630503" stroke="rgb(160, 101, 15)" stroke-opacity="1.0" stroke-linecap="round" stroke-linejoin="round" d="M 256.5077819824219 17.156131744384766 C 235.00315856933594 23.455223083496094 218.79603576660156 28.49610710144043 240.90574645996094 21.80601692199707 C 269.57501220703125 14.573226928710938 238.85421752929688 13.369046211242676 269.987548828125 38.670101165771484 C 228.5984649658203 -5.645373344421387 209.44810485839844 3.91430926322937 227.1689453125 -3.7473437786102295 C 243.55909729003906 14.62022876739502 269.15386962890625 39.75010681152344 256.5077819824219 17.156131744384766"/>
    <path stroke-width="0" fill="rgb(106, 201, -5)" opacity="0.88627684" stroke="rgb(65, 216, 8)" stroke-opacity="1.0" stroke-linecap="round" stroke-linejoin="round" d="M 197.24624633789062 174.59100341796875 C 189.0522003173828 152.00196838378906 201.07891845703125 156.01036071777344 212.65097045898438 153.69273376464844 C 229.5489044189453 141.2470703125 184.683349609375 156.11917114257812 199.6508331298828 188.0540313720703 C 183.5142059326172 120.77970123291016 195.44284057617188 123.14871978759766 209.4036102294922 74.05989837646484 C 150.38931274414062 113.7468032836914 173.9612579345703 179.5960693359375 197.24624633789062 174.59100341796875"/>
    <path stroke-width="0" fill="rgb(132, 131, 99)" opacity="0.82320946" stroke="rgb(90, 90, 4)" stroke-opacity="1.0" stroke-linecap="round" stroke-linejoin="round" d="M 231.3125 497.5738220214844 C 230.06045532226562 498.681640625 147.5702667236328 489.0185241699219 143.4017333984375 498.9700622558594 C 228.88792419433594 502.3057861328125 218.1666717529297 492.63067626953125 270.3597412109375 495.6068420410156 C 337.7432861328125 490.0846252441406 301.2840881347656 505.13812255859375 349.5085144042969 495.02008056640625 C 207.19766235351562 505.89208984375 230.3728485107422 493.7540588378906 231.3125 497.5738220214844"/>
    <path stroke-width="0" fill="rgb(95, 175, 19)" opacity="0.91467184" stroke="rgb(221, 115, 83)" stroke-opacity="1.0" stroke-linecap="round" stroke-linejoin="round" d="M 244.59410095214844 164.8166046142578 C 243.75421142578125 142.71336364746094 246.05552673339844 140.82742309570312 258.906982421875 131.83279418945312 C 259.04925537109375 177.09326171875 259.218017578125 175.98753356933594 258.7851867675781 150.0421600341797 C 267.32257080078125 151.92813110351562 275.5993957519531 153.7708282470703 231.33877563476562 143.6585693359375 C 227.3133544921875 152.74278259277344 254.35421752929688 157.0860137939453 244.59410095214844 164.8166046142578"/>
    <path stroke-width="0" fill="rgb(157, 115, 89)" opacity="0.9567356" stroke="rgb(33, 3, 29)" stroke-opacity="1.0" stroke-linecap="round" stroke-linejoin="round" d="M 536.125 294.1974182128906 C 505.2458801269531 317.268798828125 508.6228942871094 331.8068542480469 522.5209350585938 340.2116394042969 C 523.8220825195312 247.0948486328125 535.2074584960938 293.71173095703125 492.73455810546875 294.63519287109375 C 465.1565856933594 293.4638671875 489.8165283203125 294.4568786621094 523.2530517578125 296.0029296875 C 531.095947265625 267.7210388183594 536.8461303710938 289.4244079589844 536.125 294.1974182128906"/>
    <path stroke-width="0" fill="rgb(44, 56, 96)" opacity="0.6499849" stroke="rgb(248, 252, 104)" stroke-opacity="1.0" stroke-linecap="round" stroke-linejoin="round" d="M 264.8245544433594 87.17743682861328 C 277.8352355957031 66.97095489501953 257.498046875 85.81328582763672 275.7122802734375 77.43302917480469 C 263.93505859375 80.5915756225586 264.4807434082031 91.6553726196289 268.2288818359375 86.12196350097656 C 280.6843566894531 125.78813934326172 280.7815856933594 118.43753814697266 270.84039306640625 98.51325225830078 C 268.0792541503906 95.5711898803711 271.0214538574219 86.02214050292969 264.8245544433594 87.17743682861328"/>
    <path stroke-width="0" fill="rgb(52, 99, -5)" opacity="0.5775282" stroke="rgb(162, 125, 252)" stroke-opacity="1.0" stroke-linecap="round" stroke-linejoin="round" d="M 223.17898559570312 181.16099548339844 C 236.9980010986328 186.14996337890625 197.49609375 160.27615356445312 207.3004150390625 142.847900390625 C 194.28244018554688 158.53175354003906 186.09300231933594 157.00477600097656 192.6821746826172 120.20368194580078 C 195.17987060546875 186.69552612304688 200.4580078125 140.3854522705078 222.58102416992188 164.22442626953125 C 184.69342041015625 124.18000030517578 183.84129333496094 168.66546630859375 223.17898559570312 181.16099548339844"/>
    <path stroke-width="0" fill="rgb(73, 145, 0)" opacity="0.89194113" stroke="rgb(199, 73, 61)" stroke-opacity="1.0" stroke-linecap="round" stroke-linejoin="round" d="M 245.87867736816406 140.21621704101562 C 209.01585388183594 153.2750701904297 219.09642028808594 161.7857208251953 227.75885009765625 166.6807861328125 C 246.2016143798828 176.4180450439453 197.16061401367188 195.3948974609375 223.3777313232422 190.84597778320312 C 251.39173889160156 199.41650390625 251.63583374023438 187.08786010742188 245.1994171142578 175.02301025390625 C 218.9031524658203 179.3683319091797 287.8521423339844 169.80824279785156 245.87867736816406 140.21621704101562"/>
    <path stroke-width="0" fill="rgb(4, 26, 48)" opacity="0.6924581" stroke="rgb(62, 169, 131)" stroke-opacity="1.0" stroke-linecap="round" stroke-linejoin="round" d="M 168.96592712402344 163.64459228515625 C 167.1984405517578 151.6397705078125 174.59043884277344 147.36451721191406 167.94790649414062 132.637939453125 C 173.38084411621094 109.23165130615234 179.94305419921875 98.87232208251953 172.13421630859375 126.38296508789062 C 166.4875946044922 116.07903289794922 168.57962036132812 123.39892578125 171.47984313964844 141.9946746826172 C 171.1113739013672 159.86172485351562 171.60302734375 152.21522521972656 168.96592712402344 163.64459228515625"/>
    <path stroke-width="0" fill="rgb(64, 139, 14)" opacity="0.75707257" stroke="rgb(141, 73, 180)" stroke-opacity="1.0" stroke-linecap="round" stroke-linejoin="round" d="M 246.0274200439453 182.63088989257812 C 247.9658966064453 144.19314575195312 227.8543243408203 170.8039093017578 215.4552001953125 190.16468811035156 C 226.7220916748047 160.1846466064453 217.04446411132812 140.27711486816406 213.4710235595703 154.76528930664062 C 213.44842529296875 156.79904174804688 226.88906860351562 158.42208862304688 223.0463104248047 184.00970458984375 C 214.4634552001953 177.73336791992188 220.04446411132812 181.72796630859375 246.0274200439453 182.63088989257812"/>
    <path stroke-width="0" fill="rgb(265, 251, 180)" opacity="0.9606808" stroke="rgb(59, 88, 207)" stroke-opacity="1.0" stroke-linecap="round" stroke-linejoin="round" d="M 229.7218017578125 151.8137664794922 C 218.94515991210938 173.34153747558594 236.61892700195312 156.75991821289062 223.03091430664062 89.82528686523438 C 203.54251098632812 128.07188415527344 185.83360290527344 145.2652130126953 200.6714630126953 117.13668823242188 C 235.33352661132812 132.64678955078125 196.95962524414062 104.8041763305664 194.47557067871094 144.45494079589844 C 226.45779418945312 171.59710693359375 235.74293518066406 169.68405151367188 229.7218017578125 151.8137664794922"/>
    <path stroke-width="0" fill="rgb(86, 127, 43)" opacity="1.0009811" stroke="rgb(247, 230, 75)" stroke-opacity="1.0" stroke-linecap="round" stroke-linejoin="round" d="M 520.4048461914062 317.5491027832031 C 530.1004638671875 343.92352294921875 502.44219970703125 348.1446228027344 549.4546508789062 344.2416076660156 C 543.5060424804688 349.4272766113281 430.6611328125 341.9189453125 449.3545227050781 346.5497131347656 C 459.1480407714844 290.9699401855469 460.01416015625 300.2660217285156 463.9967346191406 303.1613464355469 C 546.3776245117188 299.3814392089844 596.3654174804688 277.8624267578125 520.4048461914062 317.5491027832031"/>
    <path stroke-width="0" fill="rgb(19, 34, 68)" opacity="0.99335295" stroke="rgb(63, 27, 242)" stroke-opacity="1.0" stroke-linecap="round" stroke-linejoin="round" d="M 560.0025024414062 305.58770751953125 C 521.5855712890625 315.489013671875 489.0696105957031 323.8018493652344 548.2203369140625 323.59149169921875 C 467.0202941894531 293.6339416503906 437.9301452636719 322.9429626464844 456.7172546386719 296.5597229003906 C 466.6158447265625 283.4966125488281 473.6219482421875 276.5545959472656 473.3310852050781 251.2549591064453 C 515.3637084960938 249.32769775390625 555.4263305664062 238.3203582763672 560.0025024414062 305.58770751953125"/>
    <path stroke-width="0" fill="rgb(114, 176, 67)" opacity="0.82727224" stroke="rgb(175, 14, 186)" stroke-opacity="1.0" stroke-linecap="round" stroke-linejoin="round" d="M 477.914306640625 135.47264099121094 C 483.80615234375 105.58336639404297 486.4862365722656 162.0338592529297 465.8475341796875 150.96319580078125 C 475.6258850097656 133.79461669921875 453.2124938964844 170.45603942871094 476.7240905761719 129.33827209472656 C 472.8465576171875 121.9466781616211 463.4636535644531 148.53636169433594 461.6947021484375 155.1621856689453 C 466.59613037109375 161.8719940185547 474.3280029296875 142.60279846191406 477.914306640625 135.47264099121094"/>
    <path stroke-width="0" fill="rgb(202, 213, 122)" opacity="0.83011353" stroke="rgb(69, 96, 95)" stroke-opacity="1.0" stroke-linecap="round" stroke-linejoin="round" d="M 214.1138916015625 146.25328063964844 C 225.91915893554688 178.4795684814453 226.27188110351562 180.8872528076172 233.10113525390625 164.146484375 C 244.23550415039062 160.90185546875 207.2945556640625 167.34144592285156 212.37896728515625 159.05419921875 C 216.93365478515625 154.26234436035156 222.70274353027344 148.44261169433594 237.9011993408203 171.43167114257812 C 237.07315063476562 143.43788146972656 223.07518005371094 138.6638946533203 214.1138916015625 146.25328063964844"/>
    <path stroke-width="0" fill="rgb(72, 108, 94)" opacity="0.70351547" stroke="rgb(213, 60, 128)" stroke-opacity="1.0" stroke-linecap="round" stroke-linejoin="round" d="M 499.12628173828125 161.3483123779297 C 467.9228820800781 151.560791015625 465.5397644042969 188.67471313476562 468.85113525390625 175.5919952392578 C 382.523681640625 199.1060028076172 343.46728515625 160.56517028808594 455.0322265625 148.3026123046875 C 496.7994079589844 158.52200317382812 476.58245849609375 148.02816772460938 397.2909240722656 -33.13375473022461 C 575.9535522460938 21.039226531982422 443.6894226074219 64.29496002197266 499.12628173828125 161.3483123779297"/>
    <path stroke-width="0" fill="rgb(96, 220, -18)" opacity="0.7593565" stroke="rgb(161, 221, 239)" stroke-opacity="1.0" stroke-linecap="round" stroke-linejoin="round" d="M 272.2395935058594 142.7964324951172 C 274.7117919921875 201.67239379882812 216.55169677734375 206.21560668945312 211.96029663085938 191.0601043701172 C 267.8080139160156 170.26254272460938 198.4231719970703 184.78494262695312 208.4643096923828 190.3090362548828 C 166.9879608154297 163.89833068847656 209.37347412109375 179.99600219726562 233.23243713378906 177.71243286132812 C 223.206298828125 192.76026916503906 241.9738311767578 172.0699005126953 272.2395935058594 142.7964324951172"/>
    <path stroke-width="0" fill="rgb(126, 203, 51)" opacity="0.7030034" stroke="rgb(18, 74, 38)" stroke-opacity="1.0" stroke-linecap="round" stroke-linejoin="round" d="M 475.09893798828125 145.9786834716797 C 465.4975280761719 195.79603576660156 447.0146789550781 176.69464111328125 466.7672119140625 200.67626953125 C 488.2940368652344 172.94960021972656 446.18231201171875 127.12126159667969 451.6799011230469 150.30075073242188 C 417.7414855957031 162.4020233154297 419.0439147949219 114.94876098632812 460.3372802734375 147.4672088623047 C 458.5189514160156 124.9338150024414 493.34405517578125 122.22776794433594 475.09893798828125 145.9786834716797"/>
    <path stroke-width="0" fill="rgb(92, 119, 86)" opacity="0.44818008" stroke="rgb(33, 154, 97)" stroke-opacity="1.0" stroke-linecap="round" stroke-linejoin="round" d="M 471.6375732421875 178.34178161621094 C 473.741943359375 189.48329162597656 456.4972839355469 187.4334716796875 470.12310791015625 197.74615478515625 C 442.5614929199219 205.5240020751953 443.9402160644531 199.8286590576172 462.71875 200.33740234375 C 418.123779296875 205.84930419921875 478.152099609375 212.39065551757812 449.5740661621094 208.75991821289062 C 462.11865234375 212.96005249023438 463.42010498046875 187.13644409179688 471.6375732421875 178.34178161621094"/>
    <path stroke-width="0" fill="rgb(109, 225, 0)" opacity="0.7500155" stroke="rgb(246, 139, 70)" stroke-opacity="1.0" stroke-linecap="round" stroke-linejoin="round" d="M 209.38308715820312 182.11814880371094 C 246.70481872558594 162.01925659179688 209.46267700195312 168.3466339111328 236.1913604736328 181.4276885986328 C 232.4370880126953 188.53590393066406 210.9774169921875 180.89816284179688 177.98214721679688 142.39073181152344 C 174.62013244628906 214.0308380126953 257.0182189941406 173.52964782714844 229.55599975585938 185.80690002441406 C 207.25839233398438 188.13816833496094 223.17428588867188 187.8970947265625 209.38308715820312 182.11814880371094"/>
    <path stroke-width="0" fill="rgb(259, 259, 173)" opacity="0.9984695" stroke="rgb(228, 103, 140)" stroke-opacity="1.0" stroke-linecap="round" stroke-linejoin="round" d="M 256.1426086425781 150.1303253173828 C 242.88507080078125 190.5424041748047 187.90957641601562 179.1917266845703 193.2780303955078 132.45309448242188 C 209.23190307617188 149.49050903320312 205.8198699951172 141.1248779296875 195.77410888671875 126.9462661743164 C 193.05699157714844 169.40187072753906 218.81710815429688 128.17977905273438 198.72914123535156 125.70081329345703 C 199.85633850097656 77.7200927734375 264.79559326171875 100.68688201904297 256.1426086425781 150.1303253173828"/>
    <path stroke-width="0" fill="rgb(119, 203, -14)" opacity="0.96359044" stroke="rgb(116, 102, 63)" stroke-opacity="1.0" stroke-linecap="round" stroke-linejoin="round" d="M 236.0273895263672 190.598388671875 C 228.13827514648438 198.83102416992188 215.3325653076172 190.58120727539062 208.4393310546875 180.5662841796875 C 258.9214172363281 178.12551879882812 253.94935607910156 162.85824584960938 263.1976623535156 172.1281280517578 C 227.7418212890625 199.13836669921875 235.5089874267578 183.9804229736328 229.82887268066406 187.0098876953125 C 211.19131469726562 184.6239776611328 226.6701202392578 186.5751953125 236.0273895263672 190.598388671875"/>
    <path stroke-width="0" fill="rgb(82, 106, 98)" opacity="0.71234876" stroke="rgb(85, 235, 219)" stroke-opacity="1.0" stroke-linecap="round" stroke-linejoin="round" d="M 458.5038146972656 168.15699768066406 C 524.8140258789062 134.4381866455078 463.4571533203125 143.2077178955078 448.8721618652344 173.79415893554688 C 438.0162048339844 181.20867919921875 474.56500244140625 174.49424743652344 450.6708068847656 163.33447265625 C 445.62939453125 192.96482849121094 482.33477783203125 179.32374572753906 453.711669921875 165.13389587402344 C 520.11474609375 166.23483276367188 470.8724670410156 148.985107421875 458.5038146972656 168.15699768066406"/>
    <path stroke-width="0" fill="rgb(119, 158, 120)" opacity="0.2031941" stroke="rgb(64, 113, 26)" stroke-opacity="1.0" stroke-linecap="round" stroke-linejoin="round" d="M 454.3888854980469 205.56309509277344 C 382.48492431640625 201.9492950439453 443.1389465332031 228.56463623046875 466.22198486328125 191.16136169433594 C 478.9840393066406 205.88392639160156 440.8671569824219 197.0543975830078 429.4478454589844 202.20860290527344 C 424.7086181640625 188.6006317138672 436.3834228515625 175.2363739013672 435.6029357910156 195.3286895751953 C 436.30426025390625 210.18319702148438 457.4760437011719 178.84725952148438 454.3888854980469 205.56309509277344"/>
    <path stroke-width="0" fill="rgb(125, 160, 155)" opacity="0.12482623" stroke="rgb(0, 0, 0)" stroke-opacity="0.0" stroke-linecap="round" stroke-linejoin="round" d="M 499.2245178222656 10.641484260559082 C 500.5611267089844 14.333566665649414 498.4782409667969 16.54097557067871 491.273681640625 15.24657917022705 C 487.3268127441406 16.88389778137207 486.8223876953125 13.19108772277832 486.8824768066406 5.722354412078857 C 484.257568359375 1.8202760219573975 486.6424865722656 -0.5556887984275818 492.53228759765625 -1.666210412979126 C 497.00848388671875 0.2752869725227356 498.1736145019531 5.555656433105469 499.2245178222656 10.641484260559082"/>
    <path stroke-width="0" fill="rgb(63, 182, 165)" opacity="0.637998" stroke="rgb(0, 0, 0)" stroke-opacity="0.0" stroke-linecap="round" stroke-linejoin="round" d="M 75.83821868896484 15.85974407196045 C 78.53760528564453 23.03364372253418 77.88846588134766 25.293123245239258 74.48400115966797 21.272584915161133 C 64.46647644042969 21.952220916748047 61.03999710083008 22.19953155517578 64.023681640625 17.634279251098633 C 62.38347244262695 10.453470230102539 64.78777313232422 7.5973219871521 68.53204345703125 9.664952278137207 C 74.99961853027344 10.661951065063477 77.71624755859375 11.585650444030762 75.83821868896484 15.85974407196045"/>
    <path stroke-width="0" fill="rgb(243, 82, 210)" opacity="0.09076428" stroke="rgb(0, 0, 0)" stroke-opacity="0.0" stroke-linecap="round" stroke-linejoin="round" d="M 145.60061645507812 409.2660217285156 C 143.91075134277344 413.1260986328125 140.9803924560547 416.0704040527344 137.39813232421875 417.6631164550781 C 133.908203125 416.32000732421875 131.00921630859375 413.41632080078125 130.05789184570312 409.77215576171875 C 130.77439880371094 405.6964416503906 133.1754608154297 402.3599853515625 137.10394287109375 401.450927734375 C 141.3608856201172 402.9681701660156 144.3361053466797 405.9538269042969 145.60061645507812 409.2660217285156"/>
    <path stroke-width="0" fill="rgb(110, 229, 30)" opacity="0.024532653" stroke="rgb(0, 0, 0)" stroke-opacity="0.0" stroke-linecap="round" stroke-linejoin="round" d="M 392.9662780761719 79.45719146728516 C 391.3789978027344 83.76531982421875 388.4313049316406 86.7295913696289 384.5744323730469 87.80612182617188 C 380.49676513671875 86.7081298828125 377.5315856933594 83.93063354492188 376.7662658691406 79.84991455078125 C 377.57135009765625 75.81702423095703 380.48785400390625 72.93343353271484 384.66168212890625 71.53652954101562 C 388.9422912597656 72.55933380126953 392.01519775390625 75.37371063232422 392.9662780761719 79.45719146728516"/>
    <path stroke-width="0" fill="rgb(238, 82, 97)" opacity="0.45954597" stroke="rgb(0, 0, 0)" stroke-opacity="0.0" stroke-linecap="round" stroke-linejoin="round" d="M 230.5951385498047 408.6802673339844 C 229.97499084472656 413.2903137207031 227.4995574951172 416.41015625 223.82440185546875 416.448486328125 C 219.1387176513672 415.5912780761719 216.0929718017578 412.855224609375 215.75643920898438 409.50323486328125 C 216.6236572265625 405.31866455078125 219.21878051757812 402.0206604003906 223.00660705566406 401.6139831542969 C 226.87681579589844 402.0964050292969 229.98236083984375 404.9175720214844 230.5951385498047 408.6802673339844"/>
    <path stroke-width="0" fill="rgb(105, 70, 238)" opacity="0.11915689" stroke="rgb(0, 0, 0)" stroke-opacity="0.0" stroke-linecap="round" stroke-linejoin="round" d="M 512.6536254882812 357.3231201171875 C 511.1413269042969 361.3499450683594 507.75799560546875 363.5260009765625 502.92578125 364.4313659667969 C 499.1689453125 364.61737060546875 496.5401916503906 361.46453857421875 495.5209045410156 356.9197082519531 C 496.32452392578125 352.93487548828125 499.7137756347656 350.0729675292969 503.7403869628906 348.7909851074219 C 507.9540100097656 350.0107116699219 511.14788818359375 352.6614685058594 512.6536254882812 357.3231201171875"/>
    <path stroke-width="0" fill="rgb(104, 58, 86)" opacity="0.67400014" stroke="rgb(0, 0, 0)" stroke-opacity="0.0" stroke-linecap="round" stroke-linejoin="round" d="M 147.7662811279297 24.70134735107422 C 147.997314453125 28.553518295288086 145.53717041015625 31.353885650634766 141.1975555419922 31.412988662719727 C 136.86279296875 30.320560455322266 133.9088897705078 27.794727325439453 133.49081420898438 23.379371643066406 C 134.01641845703125 20.19430923461914 137.4341278076172 17.786012649536133 140.55596923828125 16.492202758789062 C 144.05657958984375 17.65234375 147.0270538330078 20.342342376708984 147.7662811279297 24.70134735107422"/>
    <path stroke-width="0" fill="rgb(203, 228, 74)" opacity="0.34889615" stroke="rgb(0, 0, 0)" stroke-opacity="0.0" stroke-linecap="round" stroke-linejoin="round" d="M 482.0819091796875 444.9533386230469 C 482.35040283203125 447.7023620605469 478.9385681152344 450.561279296875 474.75457763671875 451.4731140136719 C 471.1734619140625 451.0528564453125 468.30450439453125 447.5165100097656 467.8088073730469 444.4295654296875 C 469.000732421875 440.6344909667969 471.8199768066406 437.3856506347656 475.37451171875 436.4819641113281 C 478.76763916015625 437.0298156738281 481.11260986328125 440.4727783203125 482.0819091796875 444.9533386230469"/>
    <path stroke-width="0" fill="rgb(76, 9, 100)" opacity="0.2920583" stroke="rgb(0, 0, 0)" stroke-opacity="0.0" stroke-linecap="round" stroke-linejoin="round" d="M 293.9463195800781 342.0374755859375 C 293.7250671386719 346.1945495605469 291.1117858886719 349.184814453125 287.0913391113281 349.94500732421875 C 283.0810241699219 348.9635925292969 280.21600341796875 345.9347839355469 279.4591369628906 341.668701171875 C 279.76806640625 337.8874206542969 282.78582763671875 335.1111145019531 286.7319641113281 335.1162109375 C 290.1482849121094 335.9306945800781 293.1570129394531 338.9212646484375 293.9463195800781 342.0374755859375"/>
    <path stroke-width="0" fill="rgb(160, 94, 136)" opacity="0.78433" stroke="rgb(0, 0, 0)" stroke-opacity="0.0" stroke-linecap="round" stroke-linejoin="round" d="M 12.487626075744629 37.31016159057617 C 11.533594131469727 40.46955490112305 8.139182090759277 43.248382568359375 4.448553085327148 44.3040885925293 C 0.7687487602233887 43.3713264465332 -2.359907865524292 40.65934371948242 -3.7985916137695312 36.401092529296875 C -2.8820157051086426 32.23887252807617 0.1434159129858017 29.460216522216797 4.447233200073242 29.804622650146484 C 8.703770637512207 29.756580352783203 11.430548667907715 32.690101623535156 12.487626075744629 37.31016159057617"/>
    <path stroke-width="0" fill="rgb(203, 200, 20)" opacity="0.60350364" stroke="rgb(0, 0, 0)" stroke-opacity="0.0" stroke-linecap="round" stroke-linejoin="round" d="M 417.84161376953125 20.82270622253418 C 416.81597900390625 25.05691146850586 414.1490478515625 27.751684188842773 409.9137268066406 28.323402404785156 C 406.8216552734375 27.54641342163086 403.8967590332031 24.36347007751465 403.1377868652344 20.794649124145508 C 403.53997802734375 17.386730194091797 406.5078125 14.663664817810059 411.2147521972656 13.735091209411621 C 414.6947326660156 13.580151557922363 417.2146911621094 16.702913284301758 417.84161376953125 20.82270622253418"/>
    <path stroke-width="0" fill="rgb(192, 154, 241)" opacity="0.94003457" stroke="rgb(0, 0, 0)" stroke-opacity="0.0" stroke-linecap="round" stroke-linejoin="round" d="M 94.17080688476562 75.40138244628906 C 93.8458251953125 80.32238006591797 91.35868072509766 83.13800811767578 88.0329818725586 82.91700744628906 C 84.08391571044922 81.58702850341797 80.57728576660156 79.07281494140625 79.64065551757812 75.30125427246094 C 79.61347198486328 71.78425598144531 83.08843231201172 69.56783294677734 87.97227478027344 68.4070816040039 C 91.1337890625 68.92119598388672 94.11516571044922 71.62882232666016 94.17080688476562 75.40138244628906"/>
    <path stroke-width="0" fill="rgb(65, 123, 190)" opacity="0.18190178" stroke="rgb(0, 0, 0)" stroke-opacity="0.0" stroke-linecap="round" stroke-linejoin="round" d="M 57.171939849853516 84.4499740600586 C 57.318748474121094 88.61006164550781 54.52001190185547 91.52533721923828 50.05125427246094 92.75820922851562 C 45.87195587158203 91.316162109375 43.1494026184082 88.24933624267578 41.9508171081543 83.96955108642578 C 43.1529426574707 80.18403625488281 46.079307556152344 77.2996826171875 50.132198333740234 76.64903259277344 C 53.93344497680664 77.33621215820312 56.78660583496094 80.26236724853516 57.171939849853516 84.4499740600586"/>
    <path stroke-width="0" fill="rgb(33, 87, 9)" opacity="0.3925907" stroke="rgb(0, 0, 0)" stroke-opacity="0.0" stroke-linecap="round" stroke-linejoin="round" d="M 102.6178207397461 52.63441848754883 C 101.18090057373047 57.54729080200195 99.2714614868164 61.06566619873047 94.84038543701172 61.51925277709961 C 90.73774719238281 61.24104690551758 88.26896667480469 57.78225326538086 87.08451080322266 54.394126892089844 C 88.98371887207031 50.096927642822266 91.29063415527344 46.784698486328125 95.18126678466797 46.55800247192383 C 98.89220428466797 47.1869010925293 102.3389892578125 49.633338928222656 102.6178207397461 52.63441848754883"/>
    <path stroke-width="0" fill="rgb(19, 74, 42)" opacity="0.94089997" stroke="rgb(0, 0, 0)" stroke-opacity="0.0" stroke-linecap="round" stroke-linejoin="round" d="M 213.04502868652344 43.78120422363281 C 211.70919799804688 47.09892654418945 208.90750122070312 50.16268539428711 205.43698120117188 51.59895324707031 C 201.92184448242188 50.71107864379883 199.14308166503906 47.60026550292969 198.33958435058594 43.94447708129883 C 198.72752380371094 39.96677780151367 201.96328735351562 37.35580062866211 206.75025939941406 35.81682205200195 C 209.56451416015625 36.54957580566406 211.93923950195312 40.49233627319336 213.04502868652344 43.78120422363281"/>
    <path stroke-width="0" fill="rgb(143, 133, 245)" opacity="0.35855708" stroke="rgb(0, 0, 0)" stroke-opacity="0.0" stroke-linecap="round" stroke-linejoin="round" d="M 420.8545837402344 300.2892761230469 C 419.2441101074219 303.314453125 415.37725830078125 305.99163818359375 411.5134582519531 307.42034912109375 C 407.6990966796875 308.0572509765625 405.4892578125 304.2929992675781 404.65386962890625 299.8289489746094 C 405.4939270019531 296.1639404296875 408.7727355957031 293.3692932128906 412.42120361328125 292.209228515625 C 416.766357421875 293.0372619628906 419.72955322265625 295.7060546875 420.8545837402344 300.2892761230469"/>
    <path stroke-width="0" fill="rgb(235, 153, 35)" opacity="0.3868877" stroke="rgb(0, 0, 0)" stroke-opacity="0.0" stroke-linecap="round" stroke-linejoin="round" d="M 13.832167625427246 -4.95795202255249 C 12.472342491149902 -1.213849425315857 9.381452560424805 1.5773359537124634 5.53849458694458 2.7057392597198486 C 1.5514212846755981 3.3275012969970703 -1.5799113512039185 1.4527603387832642 -2.560504198074341 -2.540961503982544 C -0.15053604543209076 -7.905357360839844 2.777667284011841 -10.833560943603516 6.777667045593262 -11.905357360839844 C 10.777667045593262 -10.833560943603516 13.705870628356934 -7.905357360839844 13.832167625427246 -4.95795202255249"/>
  </g>
</svg>
