<?xml version="1.0" ?>
<svg xmlns="http://www.w3.org/2000/svg" version="1.1" width="512" height="512">
  <defs/>
  <g>
    <path stroke-width="0" fill="rgb(-13, 209, 1)" opacity="1.1511568" stroke="rgb(139, 182, 153)" stroke-opacity="1.0" stroke-linecap="round" stroke-linejoin="round" d="M 213.00152587890625 172.27439880371094 C 81.23521423339844 71.28514862060547 140.4066619873047 158.08038330078125 -17.450021743774414 302.8876647949219 C -50.37307357788086 273.6133728027344 -31.961843490600586 244.50775146484375 5.263960361480713 201.69631958007812 C 61.888038635253906 85.91204071044922 64.52103424072266 74.49349212646484 78.01365661621094 107.52366638183594 C 273.6835632324219 187.66110229492188 150.1643829345703 44.65584182739258 213.00152587890625 172.27439880371094"/>
    <path stroke-width="0" fill="rgb(257, 277, 167)" opacity="0.67772186" stroke="rgb(108, 164, 111)" stroke-opacity="1.0" stroke-linecap="round" stroke-linejoin="round" d="M 137.39810180664062 -40.150352478027344 C 85.806640625 149.25958251953125 121.47962951660156 226.9274444580078 0.4249138832092285 269.0281066894531 C -46.563880920410156 225.75852966308594 -45.62082290649414 209.98471069335938 -47.316612243652344 66.32988739013672 C -49.11305618286133 -8.18151569366455 -55.94807434082031 -28.422311782836914 15.614151954650879 -48.40176773071289 C 199.6168670654297 -48.19676208496094 200.75816345214844 -41.44858932495117 137.39810180664062 -40.150352478027344"/>
    <path stroke-width="0" fill="rgb(188, 227, 69)" opacity="0.53673947" stroke="rgb(245, 97, 201)" stroke-opacity="1.0" stroke-linecap="round" stroke-linejoin="round" d="M 563.8391723632812 -46.56962203979492 C 586.0159912109375 497.6336975097656 588.2413940429688 535.3872680664062 537.2903442382812 493.92156982421875 C -101.5269546508789 500.6327209472656 -83.93482971191406 499.96240234375 -90.2482681274414 476.14788818359375 C 82.71910858154297 146.9553985595703 149.20777893066406 154.82672119140625 335.19970703125 -49.6986083984375 C 391.4353942871094 -64.82481384277344 407.0115051269531 -154.88951110839844 563.8391723632812 -46.56962203979492"/>
    <path stroke-width="0" fill="rgb(2, 120, 100)" opacity="0.76601416" stroke="rgb(144, 236, 18)" stroke-opacity="1.0" stroke-linecap="round" stroke-linejoin="round" d="M 282.1359558105469 26.434364318847656 C 62.86796188354492 244.4320831298828 198.67706298828125 70.1067123413086 512.4083251953125 373.87451171875 C 140.2265167236328 531.8253173828125 -178.8970489501953 506.9643249511719 -291.21832275390625 354.4925231933594 C 35.8984489440918 6.811275482177734 17.292037963867188 -19.633726119995117 241.36351013183594 -40.894588470458984 C 282.88037109375 -42.745121002197266 298.91455078125 -44.74505615234375 282.1359558105469 26.434364318847656"/>
    <path stroke-width="0" fill="rgb(189, 79, 50)" opacity="0.7585154" stroke="rgb(5, 212, 198)" stroke-opacity="1.0" stroke-linecap="round" stroke-linejoin="round" d="M 257.4022521972656 313.8736267089844 C 286.3172302246094 286.27972412109375 273.41357421875 290.7709655761719 216.61087036132812 339.7041931152344 C 204.45228576660156 341.41119384765625 199.228515625 333.08123779296875 199.6134033203125 287.6101379394531 C 253.41970825195312 274.1680908203125 284.8602294921875 282.68927001953125 291.77001953125 287.8571472167969 C 237.4462432861328 291.81549072265625 249.14710998535156 304.1214904785156 257.4022521972656 313.8736267089844"/>
    <path stroke-width="0" fill="rgb(235, 173, 66)" opacity="1.1353718" stroke="rgb(249, 203, 117)" stroke-opacity="1.0" stroke-linecap="round" stroke-linejoin="round" d="M 332.2597961425781 461.6253967285156 C 347.8281555175781 497.5715637207031 273.71600341796875 460.8558654785156 166.6820068359375 467.7997131347656 C 125.63729858398438 424.5091247558594 138.80160522460938 454.4009094238281 114.10137176513672 337.26019287109375 C 112.55422973632812 316.7779235839844 177.28648376464844 333.38330078125 241.53050231933594 376.1960754394531 C 240.64349365234375 290.4819030761719 322.8769226074219 261.878173828125 332.2597961425781 461.6253967285156"/>
    <path stroke-width="0" fill="rgb(250, 108, 112)" opacity="1.0751644" stroke="rgb(30, 163, 36)" stroke-opacity="1.0" stroke-linecap="round" stroke-linejoin="round" d="M 374.4368591308594 344.0575866699219 C 353.9586181640625 463.0833740234375 364.3052978515625 461.5506896972656 340.86541748046875 437.9456787109375 C 242.1952362060547 439.0401306152344 181.18333435058594 438.8893127441406 147.85940551757812 437.4126281738281 C 103.9908218383789 223.3041229248047 116.7238998413086 370.1611328125 290.2397766113281 335.4230651855469 C 341.5368957519531 347.63409423828125 362.9686279296875 316.9118347167969 374.4368591308594 344.0575866699219"/>
    <path stroke-width="0" fill="rgb(161, 98, 92)" opacity="0.6438626" stroke="rgb(133, 105, 67)" stroke-opacity="1.0" stroke-linecap="round" stroke-linejoin="round" d="M 296.3020324707031 282.1438293457031 C 306.820068359375 286.0316162109375 292.7649841308594 293.2314758300781 297.2694396972656 299.8157653808594 C 255.0496826171875 288.7711181640625 252.2179718017578 292.2362060546875 290.5771789550781 307.2881774902344 C 307.79754638671875 301.2115173339844 319.2757873535156 289.9899597167969 261.0566101074219 288.0377197265625 C 249.6914520263672 299.6400146484375 273.6206359863281 294.62066650390625 296.3020324707031 282.1438293457031"/>
    <path stroke-width="0" fill="rgb(41, 193, 144)" opacity="0.9355121" stroke="rgb(116, 144, 4)" stroke-opacity="1.0" stroke-linecap="round" stroke-linejoin="round" d="M 261.81982421875 288.0345153808594 C 263.1472473144531 328.36810302734375 256.5863952636719 318.1402893066406 210.55946350097656 331.1910095214844 C 89.8656005859375 353.52655029296875 137.16078186035156 292.3562927246094 166.2227325439453 308.78277587890625 C 170.81732177734375 259.49249267578125 147.44161987304688 274.45880126953125 280.3693542480469 277.49127197265625 C 233.8167724609375 290.8895568847656 262.930908203125 281.9533996582031 261.81982421875 288.0345153808594"/>
    <path stroke-width="0" fill="rgb(210, 60, 108)" opacity="0.48951495" stroke="rgb(156, 157, 240)" stroke-opacity="1.0" stroke-linecap="round" stroke-linejoin="round" d="M 312.0357971191406 373.3511657714844 C 290.30633544921875 367.98052978515625 327.3036193847656 350.58282470703125 266.9727783203125 356.9874572753906 C 213.4411163330078 362.6253967285156 199.8706512451172 362.7843322753906 166.491455078125 381.4775695800781 C 169.16139221191406 266.40277099609375 176.40921020507812 282.7247009277344 367.1112976074219 266.1524963378906 C 285.1201477050781 318.5877990722656 311.8726501464844 215.51687622070312 312.0357971191406 373.3511657714844"/>
    <path stroke-width="0" fill="rgb(66, 104, 123)" opacity="0.2447652" stroke="rgb(91, 111, 177)" stroke-opacity="1.0" stroke-linecap="round" stroke-linejoin="round" d="M 294.2763671875 329.5906677246094 C 346.7979736328125 280.5582580566406 347.0948791503906 355.86138916015625 312.7480163574219 327.6295166015625 C 280.68023681640625 400.9234313964844 243.4613800048828 376.36199951171875 242.1385040283203 304.1556701660156 C 224.0703887939453 269.5393371582031 226.43113708496094 278.1497497558594 320.0513000488281 276.71087646484375 C 305.05096435546875 257.5733337402344 336.1442565917969 313.8547058105469 294.2763671875 329.5906677246094"/>
    <path stroke-width="0" fill="rgb(273, 85, 83)" opacity="1.0094727" stroke="rgb(170, 171, 53)" stroke-opacity="1.0" stroke-linecap="round" stroke-linejoin="round" d="M 328.95330810546875 406.3255920410156 C 337.22735595703125 421.6806640625 339.8554382324219 419.19927978515625 215.93141174316406 425.3236389160156 C 74.06391906738281 430.0043029785156 194.7751007080078 431.4886169433594 155.92034912109375 289.32269287109375 C 152.76724243164062 253.0169677734375 111.79821014404297 255.08924865722656 298.8572082519531 253.6058807373047 C 358.1067199707031 260.733154296875 283.1701965332031 322.90533447265625 328.95330810546875 406.3255920410156"/>
    <path stroke-width="0" fill="rgb(47, -5, 105)" opacity="0.8688401" stroke="rgb(80, 92, 145)" stroke-opacity="1.0" stroke-linecap="round" stroke-linejoin="round" d="M 497.2676696777344 -60.16899490356445 C 604.5463256835938 321.4732360839844 530.0829467773438 354.8047790527344 448.3343200683594 411.2467956542969 C 438.51519775390625 382.2508850097656 466.25262451171875 387.47491455078125 476.0326232910156 341.8943176269531 C 482.93402099609375 228.9515838623047 509.96875 255.3877410888672 392.5747985839844 243.73764038085938 C 499.46563720703125 111.628173828125 425.8695983886719 18.53232765197754 497.2676696777344 -60.16899490356445"/>
    <path stroke-width="0" fill="rgb(75, 104, 105)" opacity="0.7521721" stroke="rgb(252, 26, 53)" stroke-opacity="1.0" stroke-linecap="round" stroke-linejoin="round" d="M 533.9417114257812 401.0699768066406 C 509.0830383300781 470.76904296875 493.0909423828125 472.3389587402344 485.1440734863281 459.484375 C 443.2049560546875 524.4689331054688 443.0535583496094 401.71197509765625 450.60675048828125 449.6595764160156 C 415.4212951660156 441.1661682128906 424.98406982421875 411.71844482421875 424.5619812011719 357.0259094238281 C 488.4127197265625 369.7738952636719 499.2478942871094 376.1437072753906 533.9417114257812 401.0699768066406"/>
    <path stroke-width="0" fill="rgb(0, 44, 78)" opacity="0.9650602" stroke="rgb(166, 64, 118)" stroke-opacity="1.0" stroke-linecap="round" stroke-linejoin="round" d="M 543.690673828125 484.1200866699219 C 569.2962646484375 482.6123962402344 545.0675659179688 475.9907531738281 447.1545104980469 473.4403381347656 C 421.6080322265625 474.93560791015625 399.89263916015625 494.614990234375 418.5135192871094 480.9655456542969 C 435.5271301269531 376.99017333984375 443.5264892578125 269.9486999511719 446.34490966796875 345.62908935546875 C 465.0384216308594 446.8543395996094 526.4803466796875 392.5408630371094 543.690673828125 484.1200866699219"/>
    <path stroke-width="0" fill="rgb(263, 238, 134)" opacity="0.84342283" stroke="rgb(40, 28, 167)" stroke-opacity="1.0" stroke-linecap="round" stroke-linejoin="round" d="M 395.4590759277344 488.1118469238281 C 653.140625 442.50079345703125 635.9896850585938 689.1595458984375 -114.18086242675781 480.4242248535156 C 429.0660705566406 466.22882080078125 460.7140197753906 509.7376403808594 328.216552734375 448.40338134765625 C 333.1877746582031 405.26495361328125 354.63336181640625 324.4558410644531 355.3757019042969 334.12835693359375 C 395.987060546875 346.5540466308594 369.1328430175781 302.4790344238281 395.4590759277344 488.1118469238281"/>
    <path stroke-width="0" fill="rgb(61, 5, 58)" opacity="1.0087101" stroke="rgb(50, 94, 209)" stroke-opacity="1.0" stroke-linecap="round" stroke-linejoin="round" d="M 299.3409118652344 213.92398071289062 C 220.91787719726562 194.19935607910156 355.1082763671875 233.3032989501953 250.22811889648438 210.4417724609375 C 22.134902954101562 237.38755798339844 320.5323791503906 -160.49960327148438 166.8738555908203 144.77040100097656 C 359.8562927246094 234.18605041503906 171.68711853027344 20.979270935058594 243.07650756835938 14.74142837524414 C 334.22528076171875 98.3832778930664 319.4383544921875 183.16049194335938 299.3409118652344 213.92398071289062"/>
    <path stroke-width="0" fill="rgb(73, 179, -44)" opacity="0.9923314" stroke="rgb(213, 24, 248)" stroke-opacity="1.0" stroke-linecap="round" stroke-linejoin="round" d="M 270.13006591796875 200.6851043701172 C 276.1821594238281 212.95001220703125 311.8853759765625 217.06991577148438 169.22230529785156 152.733642578125 C 216.44549560546875 281.2503662109375 292.69195556640625 103.3941421508789 221.40757751464844 75.53926849365234 C 124.5662841796875 307.63458251953125 178.07041931152344 -45.98541259765625 256.24945068359375 40.75959777832031 C 349.72003173828125 215.2374725341797 217.3773193359375 181.12440490722656 270.13006591796875 200.6851043701172"/>
    <path stroke-width="0" fill="rgb(194, 102, 122)" opacity="0.7401681" stroke="rgb(249, 154, 188)" stroke-opacity="1.0" stroke-linecap="round" stroke-linejoin="round" d="M 316.3863830566406 352.8488464355469 C 330.6856994628906 484.3538513183594 360.89453125 241.7894287109375 331.81732177734375 386.749267578125 C 54.118194580078125 383.1002502441406 188.6588592529297 404.47430419921875 139.5400390625 349.34613037109375 C 210.38479614257812 361.0762023925781 289.14697265625 345.59210205078125 220.2734375 354.40655517578125 C 266.99029541015625 351.1032409667969 241.3526153564453 352.5461730957031 316.3863830566406 352.8488464355469"/>
    <path stroke-width="0" fill="rgb(157, 197, 79)" opacity="0.8853216" stroke="rgb(72, 30, 75)" stroke-opacity="1.0" stroke-linecap="round" stroke-linejoin="round" d="M 551.6969604492188 390.8719482421875 C 527.9591674804688 417.0047607421875 484.59698486328125 425.8970947265625 450.93292236328125 362.86383056640625 C 437.8911437988281 472.9309387207031 401.7281799316406 596.195556640625 430.61383056640625 337.63262939453125 C 378.802001953125 341.4072570800781 411.159912109375 210.48220825195312 431.2124938964844 288.9263000488281 C 530.2506713867188 321.7041931152344 547.8693237304688 272.18988037109375 551.6969604492188 390.8719482421875"/>
    <path stroke-width="0" fill="rgb(133, 184, 58)" opacity="0.27344042" stroke="rgb(81, 105, 16)" stroke-opacity="1.0" stroke-linecap="round" stroke-linejoin="round" d="M 553.5099487304688 297.26202392578125 C 486.438720703125 388.6329650878906 449.2492980957031 419.2110290527344 417.8854064941406 311.35736083984375 C 434.54193115234375 504.2198181152344 392.64031982421875 589.5820922851562 432.81085205078125 348.2252502441406 C 417.6719055175781 274.4297180175781 426.1129150390625 319.74658203125 510.23614501953125 305.9041748046875 C 518.2398071289062 275.5449523925781 530.0408325195312 279.0945129394531 553.5099487304688 297.26202392578125"/>
    <path stroke-width="0" fill="rgb(83, 109, -4)" opacity="0.37561432" stroke="rgb(144, 67, 133)" stroke-opacity="1.0" stroke-linecap="round" stroke-linejoin="round" d="M 460.296875 245.83750915527344 C 479.9441833496094 85.22283935546875 481.87420654296875 189.86288452148438 426.9090270996094 141.14797973632812 C 436.62957763671875 129.61094665527344 462.6717834472656 155.45751953125 444.06658935546875 105.19329071044922 C 446.9573059082031 113.67253875732422 469.4408264160156 155.75547790527344 457.1990661621094 144.54946899414062 C 416.1435852050781 45.61854553222656 503.20074462890625 148.97206115722656 460.296875 245.83750915527344"/>
    <path stroke-width="0" fill="rgb(0, 51, 83)" opacity="0.98859054" stroke="rgb(146, 236, 81)" stroke-opacity="1.0" stroke-linecap="round" stroke-linejoin="round" d="M 556.2474975585938 485.3258361816406 C 553.0545654296875 506.82989501953125 547.32421875 512.4262084960938 530.166259765625 476.0992431640625 C 479.7360534667969 498.4888000488281 487.71673583984375 373.8293762207031 437.7860412597656 417.3717956542969 C 458.8585205078125 400.52850341796875 445.3124084472656 395.63232421875 470.8389587402344 395.57012939453125 C 516.689697265625 402.0690002441406 548.9328002929688 381.680419921875 556.2474975585938 485.3258361816406"/>
    <path stroke-width="0" fill="rgb(-68, 120, 66)" opacity="0.46056327" stroke="rgb(33, 182, 73)" stroke-opacity="1.0" stroke-linecap="round" stroke-linejoin="round" d="M 598.2689208984375 3.5376884937286377 C 594.7797241210938 301.8536682128906 561.9181518554688 299.5887451171875 462.0047302246094 323.5083923339844 C 387.9065856933594 308.1144104003906 413.52825927734375 314.0203857421875 404.17791748046875 305.5654602050781 C 312.95086669921875 404.0876159667969 305.4782409667969 72.6082992553711 233.16403198242188 -43.60517501831055 C 616.9965209960938 -80.57600402832031 610.6663208007812 -56.13962936401367 598.2689208984375 3.5376884937286377"/>
    <path stroke-width="0" fill="rgb(207, 259, 115)" opacity="0.5805584" stroke="rgb(149, 5, 211)" stroke-opacity="1.0" stroke-linecap="round" stroke-linejoin="round" d="M 456.0646667480469 370.210693359375 C 438.63177490234375 347.7582702636719 430.0956726074219 356.0829162597656 480.3120422363281 375.67138671875 C 385.2869567871094 350.0137023925781 438.55999755859375 282.620849609375 378.37762451171875 544.8004150390625 C 424.2590637207031 243.1757354736328 418.70989990234375 317.08660888671875 509.33355712890625 304.3387145996094 C 413.294677734375 386.09027099609375 433.4624328613281 341.6504821777344 456.0646667480469 370.210693359375"/>
    <path stroke-width="0" fill="rgb(10, 71, 125)" opacity="1.0500412" stroke="rgb(172, 68, 187)" stroke-opacity="1.0" stroke-linecap="round" stroke-linejoin="round" d="M 378.3679504394531 151.52540588378906 C 354.0834655761719 601.1256713867188 311.0525817871094 361.47479248046875 331.60015869140625 480.6488037109375 C 284.666015625 470.44866943359375 297.8462829589844 491.5539855957031 280.42620849609375 454.73101806640625 C 322.4908142089844 457.89581298828125 303.5875244140625 446.3656005859375 322.6896057128906 481.5235595703125 C 386.1827087402344 460.19952392578125 397.61248779296875 573.9498901367188 378.3679504394531 151.52540588378906"/>
    <path stroke-width="0" fill="rgb(8, 56, 89)" opacity="0.9801413" stroke="rgb(63, 146, 150)" stroke-opacity="1.0" stroke-linecap="round" stroke-linejoin="round" d="M 526.7396240234375 410.64996337890625 C 492.42047119140625 399.1298828125 482.45281982421875 425.76495361328125 494.45123291015625 449.39178466796875 C 483.7651062011719 407.3731384277344 424.7963562011719 450.1931457519531 440.1500244140625 361.0555114746094 C 441.4232177734375 364.7812805175781 432.4019470214844 359.70831298828125 500.0800476074219 355.90850830078125 C 506.8702392578125 352.7505187988281 534.9212646484375 362.1012878417969 526.7396240234375 410.64996337890625"/>
    <path stroke-width="0" fill="rgb(7, 55, 79)" opacity="0.18855345" stroke="rgb(56, 242, 114)" stroke-opacity="1.0" stroke-linecap="round" stroke-linejoin="round" d="M 512.1107788085938 446.7604675292969 C 548.6884155273438 456.76116943359375 548.231689453125 462.8780212402344 563.3475952148438 429.67938232421875 C 503.3986511230469 391.3389892578125 469.5365905761719 387.2188415527344 443.5233459472656 366.7467041015625 C 447.6340026855469 363.5928955078125 446.2688293457031 390.77032470703125 441.6722106933594 454.92169189453125 C 458.30419921875 381.99212646484375 471.85614013671875 418.66375732421875 512.1107788085938 446.7604675292969"/>
    <path stroke-width="0" fill="rgb(109, 136, 153)" opacity="0.6761397" stroke="rgb(178, 75, 207)" stroke-opacity="1.0" stroke-linecap="round" stroke-linejoin="round" d="M 139.51425170898438 54.49421310424805 C 177.3007354736328 163.31936645507812 125.70979309082031 186.62120056152344 96.08645629882812 108.32548522949219 C 82.84564971923828 98.38378143310547 76.12337493896484 94.23815155029297 75.71366119384766 82.67030334472656 C 114.17488098144531 52.16840362548828 90.46736145019531 69.27334594726562 112.22217559814453 29.847753524780273 C 136.52723693847656 49.0174674987793 153.67376708984375 61.96202087402344 139.51425170898438 54.49421310424805"/>
    <path stroke-width="0" fill="rgb(-19, 11, 89)" opacity="1.0226898" stroke="rgb(224, 148, 224)" stroke-opacity="1.0" stroke-linecap="round" stroke-linejoin="round" d="M 277.2916564941406 443.5990295410156 C 274.6264953613281 454.7566833496094 287.00750732421875 458.35614013671875 281.14263916015625 477.0047912597656 C 164.15415954589844 473.744873046875 197.0779571533203 472.5813903808594 198.77200317382812 454.9767761230469 C 182.3130645751953 450.9395446777344 293.6844482421875 452.7382507324219 270.4100646972656 448.000732421875 C 280.55279541015625 448.4138488769531 270.6872253417969 457.7501220703125 277.2916564941406 443.5990295410156"/>
    <path stroke-width="0" fill="rgb(114, 167, 160)" opacity="0.88853395" stroke="rgb(184, 127, 243)" stroke-opacity="1.0" stroke-linecap="round" stroke-linejoin="round" d="M 134.69403076171875 35.557044982910156 C 140.54159545898438 37.365055084228516 133.49449157714844 44.996280670166016 120.5964126586914 54.52083969116211 C 63.32358169555664 53.10505294799805 57.49493408203125 42.65486145019531 56.02781295776367 26.62307357788086 C 82.01119232177734 -6.66360330581665 89.33231353759766 -13.970669746398926 98.72138214111328 -15.478445053100586 C 105.47290802001953 -9.339625358581543 107.6491470336914 2.5455589294433594 134.69403076171875 35.557044982910156"/>
    <path stroke-width="0" fill="rgb(179, 198, 183)" opacity="1.1358172" stroke="rgb(108, 154, 4)" stroke-opacity="1.0" stroke-linecap="round" stroke-linejoin="round" d="M 80.44092559814453 3.8294363021850586 C 74.53726196289062 15.556836128234863 67.63709259033203 22.353408813476562 56.77056884765625 23.009490966796875 C 51.17718505859375 24.724687576293945 42.19004440307617 17.43191146850586 38.23099136352539 12.404149055480957 C 38.947723388671875 -3.643167734146118 47.477577209472656 -10.387263298034668 59.71836471557617 -12.281403541564941 C 70.88726806640625 -9.837309837341309 79.48298645019531 -3.0427048206329346 80.44092559814453 3.8294363021850586"/>
    <path stroke-width="0" fill="rgb(140, 149, 115)" opacity="0.8689039" stroke="rgb(168, 73, 157)" stroke-opacity="1.0" stroke-linecap="round" stroke-linejoin="round" d="M 72.39276885986328 14.838329315185547 C 67.53272247314453 24.676454544067383 60.608097076416016 31.877981185913086 44.71451950073242 41.79408645629883 C 20.630735397338867 45.69246292114258 10.5361328125 45.73300552368164 31.457040786743164 31.146251678466797 C 51.75217819213867 17.89982795715332 51.542762756347656 14.514430046081543 30.678226470947266 -21.335866928100586 C 62.028751373291016 -1.4005694389343262 69.15164184570312 6.078193187713623 72.39276885986328 14.838329315185547"/>
    <path stroke-width="0" fill="rgb(6, 155, 80)" opacity="0.58768106" stroke="rgb(34, 76, 145)" stroke-opacity="1.0" stroke-linecap="round" stroke-linejoin="round" d="M 219.43563842773438 10.733616828918457 C 164.6814727783203 86.49935150146484 133.75775146484375 80.18241882324219 112.82250213623047 102.8378677368164 C 82.7376708984375 109.61078643798828 76.7830810546875 101.75531005859375 104.34645080566406 91.2569580078125 C 105.50051879882812 49.844478607177734 108.53501892089844 40.89036560058594 117.39379119873047 -8.757986068725586 C 154.00384521484375 -35.20487976074219 205.53956604003906 -42.305355072021484 219.43563842773438 10.733616828918457"/>
    <path stroke-width="0" fill="rgb(171, 187, 172)" opacity="1.0628235" stroke="rgb(146, 166, 166)" stroke-opacity="1.0" stroke-linecap="round" stroke-linejoin="round" d="M 166.42405700683594 250.77517700195312 C 165.4462890625 220.43553161621094 115.60236358642578 222.36129760742188 46.93852996826172 194.5202178955078 C 37.90623474121094 184.78561401367188 28.671829223632812 179.0292205810547 33.76850128173828 141.21084594726562 C 57.462223052978516 85.95870208740234 64.43431091308594 79.25592041015625 60.7062873840332 95.70040893554688 C 124.09053802490234 106.88690948486328 27.51630401611328 186.98728942871094 166.42405700683594 250.77517700195312"/>
    <path stroke-width="0" fill="rgb(157, 248, 212)" opacity="0.33450738" stroke="rgb(228, 93, 111)" stroke-opacity="1.0" stroke-linecap="round" stroke-linejoin="round" d="M 220.11756896972656 25.32904052734375 C 181.91465759277344 28.16709327697754 151.08950805664062 149.11029052734375 160.24668884277344 165.3172607421875 C 43.39567184448242 146.83375549316406 98.28546142578125 59.04397201538086 79.46192932128906 10.797670364379883 C 81.32707214355469 0.413936048746109 89.02306365966797 -6.329861164093018 105.1490478515625 -8.066200256347656 C 170.1784210205078 -17.040624618530273 204.80380249023438 -72.94075012207031 220.11756896972656 25.32904052734375"/>
    <path stroke-width="0" fill="rgb(143, 187, 145)" opacity="1.0316571" stroke="rgb(205, 179, 25)" stroke-opacity="1.0" stroke-linecap="round" stroke-linejoin="round" d="M 89.99563598632812 54.45208740234375 C 41.953529357910156 79.72956848144531 37.69007873535156 87.2588119506836 -13.602560997009277 134.84262084960938 C -23.76293182373047 138.65989685058594 -30.73976707458496 131.9322509765625 -32.822574615478516 110.0689926147461 C -19.5057373046875 30.779268264770508 -11.593232154846191 22.328916549682617 61.67683792114258 23.828441619873047 C 73.09883117675781 27.846879959106445 79.3246078491211 35.12998580932617 89.99563598632812 54.45208740234375"/>
    <path stroke-width="0" fill="rgb(73, 198, 154)" opacity="0.95653236" stroke="rgb(182, 254, 38)" stroke-opacity="1.0" stroke-linecap="round" stroke-linejoin="round" d="M 206.67828369140625 228.886962890625 C 155.77122497558594 214.76182556152344 133.7710418701172 326.6065979003906 152.649169921875 334.73944091796875 C -52.38793182373047 336.2092590332031 -20.729936599731445 296.4380187988281 -14.318296432495117 199.9420623779297 C -1.5341743230819702 136.00782775878906 1.3139020204544067 123.94013977050781 53.17405700683594 114.72080993652344 C 116.86624145507812 115.9812240600586 119.75260162353516 140.58753967285156 206.67828369140625 228.886962890625"/>
    <path stroke-width="0" fill="rgb(119, 203, 105)" opacity="0.95145154" stroke="rgb(41, 156, 31)" stroke-opacity="1.0" stroke-linecap="round" stroke-linejoin="round" d="M 67.10672760009766 68.52320861816406 C 66.28713989257812 81.01140594482422 60.31308364868164 89.4454574584961 -1.6516895294189453 96.29499816894531 C -18.30956268310547 92.00404357910156 -28.15337371826172 88.30581665039062 -30.40452766418457 79.21770477294922 C -26.784635543823242 3.3494513034820557 -18.000425338745117 -3.135021209716797 -11.216747283935547 -0.9754229187965393 C 55.23806381225586 5.396751880645752 61.95399475097656 12.87847900390625 67.10672760009766 68.52320861816406"/>
    <path stroke-width="0" fill="rgb(162, 167, 196)" opacity="0.80566496" stroke="rgb(205, 145, 103)" stroke-opacity="1.0" stroke-linecap="round" stroke-linejoin="round" d="M 87.00444030761719 69.48428344726562 C 57.548648834228516 77.23955535888672 74.7694091796875 81.9117431640625 63.17868423461914 127.11029052734375 C 50.01655960083008 124.60530853271484 43.04618453979492 117.85103607177734 37.159034729003906 46.791847229003906 C 30.48794937133789 32.92372512817383 34.5319709777832 20.94637680053711 49.19003677368164 22.448410034179688 C 100.96456909179688 58.150970458984375 105.5279312133789 67.76504516601562 87.00444030761719 69.48428344726562"/>
    <path stroke-width="0" fill="rgb(137, 166, 148)" opacity="0.7199828" stroke="rgb(177, 115, 184)" stroke-opacity="1.0" stroke-linecap="round" stroke-linejoin="round" d="M 115.83003997802734 30.31138801574707 C 112.5034408569336 41.48312759399414 103.68860626220703 46.7628173828125 89.7382583618164 56.816558837890625 C 63.4943733215332 24.354598999023438 61.06746292114258 11.746770858764648 54.14812469482422 3.60237193107605 C 56.56805419921875 0.0069341049529612064 62.7996826171875 -8.587154388427734 71.73847961425781 -11.619647026062012 C 80.70140838623047 -8.10071086883545 89.11848449707031 -1.5763930082321167 115.83003997802734 30.31138801574707"/>
    <path stroke-width="0" fill="rgb(87, 191, 169)" opacity="0.8462202" stroke="rgb(248, 218, 2)" stroke-opacity="1.0" stroke-linecap="round" stroke-linejoin="round" d="M 116.08631134033203 16.332761764526367 C 38.222476959228516 23.10047721862793 106.42181396484375 82.782958984375 36.45676803588867 101.92628479003906 C 23.761926651000977 91.41944122314453 17.289928436279297 83.31858825683594 15.821090698242188 72.39207458496094 C 46.974205017089844 26.075849533081055 53.11515426635742 19.15116310119629 92.48062133789062 -5.685262680053711 C 108.21016693115234 -7.20368766784668 115.98826599121094 -0.07986771315336227 116.08631134033203 16.332761764526367"/>
    <path stroke-width="0" fill="rgb(119, 168, 158)" opacity="0.8966111" stroke="rgb(186, 43, 132)" stroke-opacity="1.0" stroke-linecap="round" stroke-linejoin="round" d="M 103.90887451171875 137.62173461914062 C 105.67562866210938 149.61148071289062 104.44487762451172 162.30740356445312 92.57865142822266 179.99671936035156 C 7.029263019561768 173.0618133544922 8.309524536132812 162.5611572265625 25.21885108947754 139.5201873779297 C 40.421695709228516 95.01801300048828 44.337188720703125 84.5748062133789 82.63238525390625 60.710533142089844 C 94.48046875 64.85289764404297 100.37555694580078 74.92220306396484 103.90887451171875 137.62173461914062"/>
    <path stroke-width="0" fill="rgb(69, 188, 142)" opacity="0.97628343" stroke="rgb(50, 4, 202)" stroke-opacity="1.0" stroke-linecap="round" stroke-linejoin="round" d="M 169.4521026611328 223.89181518554688 C 325.5688781738281 169.53562927246094 658.2388305664062 281.09356689453125 144.337646484375 264.160888671875 C -10.107483863830566 233.44970703125 37.5141487121582 189.9395751953125 57.12690734863281 162.88949584960938 C 100.85160827636719 110.70558166503906 99.49565124511719 110.55669403076172 76.09237670898438 91.72108459472656 C 89.9808349609375 152.44876098632812 164.14707946777344 60.6822509765625 169.4521026611328 223.89181518554688"/>
    <path stroke-width="0" fill="rgb(123, 206, 160)" opacity="0.8354946" stroke="rgb(88, 236, 179)" stroke-opacity="1.0" stroke-linecap="round" stroke-linejoin="round" d="M 134.34024047851562 31.725770950317383 C 108.86504364013672 54.11286544799805 102.35688781738281 62.81311798095703 96.73609161376953 73.43470764160156 C 88.48167419433594 63.1849479675293 91.12093353271484 48.953487396240234 68.26602935791016 21.445199966430664 C 60.827396392822266 16.417476654052734 66.16463470458984 8.652463912963867 69.46336364746094 -6.488201141357422 C 128.38401794433594 3.0102853775024414 137.23873901367188 16.246570587158203 134.34024047851562 31.725770950317383"/>
    <path stroke-width="0" fill="rgb(167, 141, 191)" opacity="0.758936" stroke="rgb(41, 158, 147)" stroke-opacity="1.0" stroke-linecap="round" stroke-linejoin="round" d="M 110.93279266357422 86.10333251953125 C 85.627197265625 194.8843536376953 168.98117065429688 175.77000427246094 119.90332794189453 118.34593963623047 C 64.58452606201172 149.03900146484375 57.420753479003906 136.9691162109375 60.22636413574219 131.091552734375 C 78.94874572753906 92.5691146850586 92.05925750732422 89.07537841796875 129.07211303710938 63.5412712097168 C 136.45556640625 60.71295928955078 145.48309326171875 64.75934600830078 110.93279266357422 86.10333251953125"/>
    <path stroke-width="0" fill="rgb(121, 206, 141)" opacity="0.9423934" stroke="rgb(238, 156, 136)" stroke-opacity="1.0" stroke-linecap="round" stroke-linejoin="round" d="M 107.28396606445312 33.0132942199707 C 64.14899444580078 65.20789337158203 67.89376831054688 66.02416229248047 72.41014099121094 81.63877868652344 C 8.969115257263184 78.81806945800781 19.49907112121582 71.37963104248047 2.7272958755493164 6.897833824157715 C 3.2855184078216553 -6.172659873962402 10.116805076599121 -14.147216796875 29.853727340698242 -28.40348243713379 C 71.27579498291016 2.3074991703033447 68.52843475341797 1.9824773073196411 107.28396606445312 33.0132942199707"/>
    <path stroke-width="0" fill="rgb(103, 192, 96)" opacity="0.7961915" stroke="rgb(186, 79, 101)" stroke-opacity="1.0" stroke-linecap="round" stroke-linejoin="round" d="M 64.4861831665039 -4.026966571807861 C 60.56425857543945 3.819751262664795 50.96983337402344 7.103312969207764 27.018070220947266 73.43885803222656 C -5.344696998596191 59.70029830932617 -11.630805015563965 48.75204849243164 -33.04845428466797 12.155858039855957 C -11.457196235656738 -50.801475524902344 3.0080111026763916 -43.40044403076172 33.16963577270508 -33.32826232910156 C 54.83304977416992 -17.96738052368164 63.03704071044922 -11.599830627441406 64.4861831665039 -4.026966571807861"/>
    <path stroke-width="0" fill="rgb(106, 212, 149)" opacity="0.6313256" stroke="rgb(47, 240, 188)" stroke-opacity="1.0" stroke-linecap="round" stroke-linejoin="round" d="M 150.00257873535156 41.760963439941406 C 174.42361450195312 122.43777465820312 167.70896911621094 68.26707458496094 134.73060607910156 88.53386688232422 C 104.53394317626953 59.52153396606445 94.9784927368164 55.789146423339844 70.3301773071289 39.147621154785156 C 69.71719360351562 10.044205665588379 69.92814636230469 -2.149339199066162 83.01912689208984 -3.4254887104034424 C 140.3839111328125 5.925754070281982 152.5905303955078 14.264559745788574 150.00257873535156 41.760963439941406"/>
    <path stroke-width="0" fill="rgb(109, 202, 121)" opacity="1.0215242" stroke="rgb(57, 64, 14)" stroke-opacity="1.0" stroke-linecap="round" stroke-linejoin="round" d="M 119.4853286743164 161.25518798828125 C 110.71722412109375 175.72055053710938 104.07484436035156 182.85484313964844 55.6137580871582 167.4865264892578 C -13.195690155029297 163.7504425048828 -29.33009147644043 165.65994262695312 -39.4698600769043 122.94364929199219 C -21.013648986816406 47.99201202392578 -9.389366149902344 41.78593444824219 30.89911651611328 51.479068756103516 C 44.45613098144531 119.36837005615234 77.0115966796875 81.43842315673828 119.4853286743164 161.25518798828125"/>
    <path stroke-width="0" fill="rgb(119, 179, 182)" opacity="0.2546742" stroke="rgb(79, 177, 96)" stroke-opacity="1.0" stroke-linecap="round" stroke-linejoin="round" d="M 167.23635864257812 56.651206970214844 C 117.09976959228516 79.60633087158203 128.2488555908203 97.45684814453125 114.36038970947266 104.85488891601562 C 76.67683410644531 97.52063751220703 82.80520629882812 77.7481689453125 81.37903594970703 73.44442749023438 C 80.08589172363281 46.22930145263672 83.16605377197266 77.03655242919922 75.55935668945312 52.94487762451172 C 102.77833557128906 50.71652603149414 63.88032531738281 38.05173110961914 167.23635864257812 56.651206970214844"/>
    <path stroke-width="0" fill="rgb(118, 204, 152)" opacity="0.546236" stroke="rgb(6, 17, 173)" stroke-opacity="1.0" stroke-linecap="round" stroke-linejoin="round" d="M 168.772216796875 16.779592514038086 C 96.78929138183594 7.59734582901001 102.03060913085938 23.530729293823242 84.3035659790039 59.20045471191406 C 64.42825317382812 44.15022659301758 66.97236633300781 34.94879150390625 64.56448364257812 -1.0235223770141602 C 63.48061752319336 -17.719940185546875 78.59623718261719 -19.133874893188477 106.99308013916016 -41.087581634521484 C 99.09672546386719 -10.641717910766602 127.83076477050781 -25.281511306762695 168.772216796875 16.779592514038086"/>
    <path stroke-width="0" fill="rgb(101, 198, 125)" opacity="0.6081684" stroke="rgb(136, 228, 252)" stroke-opacity="1.0" stroke-linecap="round" stroke-linejoin="round" d="M 61.94074630737305 151.07608032226562 C 55.11454772949219 221.96505737304688 50.540496826171875 231.87271118164062 24.804014205932617 257.1274108886719 C -66.24169921875 249.86753845214844 -65.80656433105469 236.5744171142578 -46.55675506591797 190.5621337890625 C -51.60627746582031 127.46013641357422 -47.68460464477539 116.07179260253906 0.05388112738728523 87.62043762207031 C 66.13407897949219 95.19831085205078 67.4442367553711 107.95687866210938 61.94074630737305 151.07608032226562"/>
    <path stroke-width="0" fill="rgb(36, 122, 102)" opacity="0.82470876" stroke="rgb(169, 67, 5)" stroke-opacity="1.0" stroke-linecap="round" stroke-linejoin="round" d="M 917.9478759765625 220.96453857421875 C 515.9183959960938 308.73565673828125 407.09490966796875 151.64210510253906 386.1920166015625 351.892333984375 C 237.4269561767578 252.19432067871094 408.73858642578125 126.16671752929688 475.25958251953125 153.84744262695312 C 489.903076171875 -29.54867172241211 370.6014709472656 380.5677795410156 388.98773193359375 -4.996850490570068 C 572.5486450195312 -65.4778823852539 602.8023071289062 -29.20888328552246 917.9478759765625 220.96453857421875"/>
    <path stroke-width="0" fill="rgb(115, 205, 153)" opacity="0.8663263" stroke="rgb(81, 97, 150)" stroke-opacity="1.0" stroke-linecap="round" stroke-linejoin="round" d="M 167.7190399169922 17.168323516845703 C 188.49441528320312 34.852027893066406 172.30410766601562 40.8106689453125 110.63326263427734 54.733577728271484 C 102.60368347167969 43.006431579589844 95.41445922851562 32.49856948852539 83.62118530273438 3.980607509613037 C 92.27438354492188 -33.339420318603516 112.6549072265625 -27.77512550354004 152.9748077392578 -33.560546875 C 166.7181854248047 -33.06595230102539 152.1601104736328 -8.348040580749512 167.7190399169922 17.168323516845703"/>
    <path stroke-width="0" fill="rgb(76, 199, 154)" opacity="1.0029256" stroke="rgb(160, 222, 69)" stroke-opacity="1.0" stroke-linecap="round" stroke-linejoin="round" d="M 226.83843994140625 -80.19246673583984 C 131.176513671875 191.05914306640625 156.49615478515625 167.82566833496094 224.43948364257812 223.52088928222656 C -19.10223388671875 235.49566650390625 53.67770767211914 137.7117156982422 30.909639358520508 136.39598083496094 C 111.48531341552734 96.0571060180664 77.143798828125 61.6320915222168 169.27037048339844 -12.06620979309082 C 267.7933349609375 50.55086135864258 406.6731262207031 74.62374114990234 226.83843994140625 -80.19246673583984"/>
    <path stroke-width="0" fill="rgb(112, 213, 145)" opacity="0.96553814" stroke="rgb(47, 242, 175)" stroke-opacity="1.0" stroke-linecap="round" stroke-linejoin="round" d="M 100.16888427734375 55.2594108581543 C 87.76895141601562 124.8252944946289 85.1596908569336 135.47015380859375 37.614845275878906 132.4607696533203 C 27.726484298706055 124.65442657470703 24.578834533691406 105.6167221069336 33.66195297241211 66.04179382324219 C 26.646591186523438 53.46543884277344 31.078510284423828 51.27461242675781 77.61133575439453 32.11299514770508 C 90.01179504394531 33.57421112060547 92.24969482421875 41.1190071105957 100.16888427734375 55.2594108581543"/>
    <path stroke-width="0" fill="rgb(112, 217, 155)" opacity="0.55029833" stroke="rgb(241, 186, 64)" stroke-opacity="1.0" stroke-linecap="round" stroke-linejoin="round" d="M 105.14684295654297 41.73928451538086 C 104.85650634765625 67.52676391601562 99.10162353515625 72.01268005371094 78.31641387939453 107.46121215820312 C 68.79289245605469 91.93294525146484 60.546722412109375 85.48065948486328 68.4884033203125 94.60772705078125 C 112.17193603515625 96.34872436523438 87.0447998046875 75.95731353759766 73.70044708251953 27.78879165649414 C 103.04348754882812 39.8397331237793 113.64872741699219 39.8132438659668 105.14684295654297 41.73928451538086"/>
    <path stroke-width="0" fill="rgb(-29, 38, 123)" opacity="0.91867507" stroke="rgb(132, 6, 52)" stroke-opacity="1.0" stroke-linecap="round" stroke-linejoin="round" d="M 245.22535705566406 9.63132095336914 C 404.61260986328125 217.5132293701172 258.25250244140625 269.150390625 206.46194458007812 200.546630859375 C 213.7805633544922 227.6979217529297 306.4977111816406 201.34805297851562 243.3904266357422 202.53509521484375 C 281.17431640625 212.37265014648438 280.8169860839844 206.48471069335938 190.1930694580078 211.77696228027344 C 278.136962890625 211.00210571289062 341.25506591796875 188.04815673828125 245.22535705566406 9.63132095336914"/>
    <path stroke-width="0" fill="rgb(119, 206, 129)" opacity="0.49563992" stroke="rgb(95, 118, 70)" stroke-opacity="1.0" stroke-linecap="round" stroke-linejoin="round" d="M 115.26978302001953 269.8280334472656 C 104.1994400024414 452.5504455566406 148.4031982421875 413.552978515625 -5.567220687866211 447.7421569824219 C -50.9125862121582 347.63446044921875 -37.154541015625 324.6271667480469 -35.95062255859375 275.15484619140625 C -41.400962829589844 197.63021850585938 -41.09809494018555 183.4933319091797 -19.77369499206543 187.8497314453125 C 89.44046783447266 195.49661254882812 100.09451293945312 205.0616912841797 115.26978302001953 269.8280334472656"/>
    <path stroke-width="0" fill="rgb(136, 247, 69)" opacity="0.5801333" stroke="rgb(220, 29, 131)" stroke-opacity="1.0" stroke-linecap="round" stroke-linejoin="round" d="M 523.0120239257812 335.04547119140625 C 468.95068359375 356.642578125 471.728759765625 319.3006286621094 468.7562561035156 332.58367919921875 C 461.66143798828125 350.92047119140625 455.9416809082031 367.5495910644531 460.28656005859375 303.876953125 C 456.068115234375 305.4618225097656 467.5722351074219 332.7137145996094 561.3299560546875 315.28680419921875 C 514.3097534179688 302.14361572265625 488.0825500488281 312.79254150390625 523.0120239257812 335.04547119140625"/>
    <path stroke-width="0" fill="rgb(142, 183, 102)" opacity="0.08487166" stroke="rgb(140, 149, 245)" stroke-opacity="1.0" stroke-linecap="round" stroke-linejoin="round" d="M 573.2178344726562 353.7228698730469 C 578.1116943359375 370.1474304199219 546.4345092773438 370.03155517578125 440.93548583984375 352.07769775390625 C 473.6121520996094 330.81536865234375 481.2061462402344 320.52001953125 502.7442626953125 291.9297180175781 C 533.462158203125 284.8540344238281 511.8355407714844 311.09954833984375 520.8947143554688 305.3006286621094 C 525.5113525390625 291.9359130859375 521.249755859375 311.6423645019531 573.2178344726562 353.7228698730469"/>
    <path stroke-width="0" fill="rgb(79, 113, 83)" opacity="0.59409624" stroke="rgb(170, 200, 71)" stroke-opacity="1.0" stroke-linecap="round" stroke-linejoin="round" d="M 450.0718078613281 191.451416015625 C 440.4509582519531 189.49066162109375 431.296630859375 192.82725524902344 442.915283203125 181.24459838867188 C 445.5958251953125 202.23764038085938 465.0466613769531 201.49925231933594 425.4226989746094 185.7347869873047 C 442.1636962890625 161.7147979736328 459.3161926269531 140.05682373046875 478.0008850097656 190.78123474121094 C 433.8072204589844 176.31787109375 447.0595703125 206.12826538085938 450.0718078613281 191.451416015625"/>
    <path stroke-width="0" fill="rgb(73, 169, 52)" opacity="0.67473996" stroke="rgb(16, 123, 249)" stroke-opacity="1.0" stroke-linecap="round" stroke-linejoin="round" d="M 449.9454345703125 157.09756469726562 C 480.6097106933594 164.63633728027344 485.5882568359375 149.76791381835938 461.55975341796875 196.8812713623047 C 460.3925476074219 144.0839385986328 464.4577331542969 135.0316619873047 482.06768798828125 120.07050323486328 C 465.5903625488281 193.99705505371094 482.8832092285156 165.3712158203125 479.49371337890625 152.44537353515625 C 466.33221435546875 156.45169067382812 474.54022216796875 173.6177978515625 449.9454345703125 157.09756469726562"/>
    <path stroke-width="0" fill="rgb(100, 188, 47)" opacity="0.87587684" stroke="rgb(86, 245, 59)" stroke-opacity="1.0" stroke-linecap="round" stroke-linejoin="round" d="M 482.54730224609375 123.85054016113281 C 454.1077880859375 77.94110870361328 419.8565673828125 155.42056274414062 446.2126159667969 141.4990234375 C 486.970703125 154.52195739746094 460.173828125 161.1737060546875 475.22235107421875 153.94125366210938 C 492.671630859375 128.067138671875 489.8388366699219 135.0535430908203 468.3714904785156 140.3334503173828 C 461.4125671386719 153.2572479248047 466.71307373046875 167.12132263183594 482.54730224609375 123.85054016113281"/>
    <path stroke-width="0" fill="rgb(161, 210, 84)" opacity="0.5815325" stroke="rgb(240, 203, 160)" stroke-opacity="1.0" stroke-linecap="round" stroke-linejoin="round" d="M 453.8110656738281 361.9375915527344 C 417.2823486328125 351.2790222167969 402.09588623046875 360.5722351074219 426.9164123535156 346.05938720703125 C 424.1523132324219 351.8357238769531 418.8926086425781 340.08367919921875 415.10552978515625 358.11395263671875 C 404.8362121582031 423.9394226074219 412.5164794921875 365.3234558105469 413.6556701660156 356.7288513183594 C 369.32708740234375 346.13818359375 354.2731018066406 382.7959289550781 453.8110656738281 361.9375915527344"/>
    <path stroke-width="0" fill="rgb(76, 176, 75)" opacity="0.80238897" stroke="rgb(74, 216, 157)" stroke-opacity="1.0" stroke-linecap="round" stroke-linejoin="round" d="M 465.6390075683594 133.7525177001953 C 455.5147399902344 157.76516723632812 461.71002197265625 174.92315673828125 467.4854736328125 165.0114288330078 C 479.7909240722656 168.53646850585938 484.80096435546875 156.33282470703125 459.8396911621094 198.37286376953125 C 468.336669921875 135.2662353515625 488.3236389160156 134.27810668945312 455.4474182128906 132.4410858154297 C 450.2648010253906 147.86676025390625 438.5700988769531 170.02395629882812 465.6390075683594 133.7525177001953"/>
    <path stroke-width="0" fill="rgb(19, 101, 110)" opacity="0.3371481" stroke="rgb(88, 37, 250)" stroke-opacity="1.0" stroke-linecap="round" stroke-linejoin="round" d="M 388.3027038574219 416.82000732421875 C 391.8436584472656 352.7630310058594 385.9839172363281 374.72021484375 384.3023376464844 357.78314208984375 C 362.5137634277344 389.91339111328125 391.8496398925781 452.6083679199219 397.03570556640625 413.3971862792969 C 430.0514831542969 315.44189453125 381.8685607910156 409.5848083496094 389.1676025390625 360.5382080078125 C 362.5712890625 397.6632080078125 376.97412109375 420.7341613769531 388.3027038574219 416.82000732421875"/>
    <path stroke-width="0" fill="rgb(59, 32, 127)" opacity="0.42314857" stroke="rgb(126, 163, 93)" stroke-opacity="1.0" stroke-linecap="round" stroke-linejoin="round" d="M 565.7063598632812 297.0022888183594 C 503.48260498046875 338.0379638671875 496.94610595703125 343.2876892089844 571.423828125 315.04632568359375 C 478.6225280761719 338.7163391113281 444.87347412109375 308.3997497558594 489.71832275390625 311.8182067871094 C 524.0393676757812 333.70111083984375 533.912841796875 324.89111328125 491.048828125 285.82452392578125 C 474.380126953125 281.7462463378906 519.0763549804688 278.6037902832031 565.7063598632812 297.0022888183594"/>
    <path stroke-width="0" fill="rgb(116, 135, 65)" opacity="0.39802063" stroke="rgb(209, 48, 130)" stroke-opacity="1.0" stroke-linecap="round" stroke-linejoin="round" d="M 484.1853332519531 162.64927673339844 C 483.19647216796875 146.2232208251953 463.4520568847656 128.79592895507812 418.14666748046875 170.76939392089844 C 450.9137878417969 163.10772705078125 440.2421569824219 137.8977813720703 430.5782165527344 178.00091552734375 C 461.6053466796875 177.27125549316406 457.0585632324219 126.5732421875 485.6182861328125 124.11090087890625 C 440.9384765625 153.6863555908203 435.5454406738281 187.32806396484375 484.1853332519531 162.64927673339844"/>
    <path stroke-width="0" fill="rgb(157, 186, 34)" opacity="0.8150742" stroke="rgb(24, 219, 248)" stroke-opacity="1.0" stroke-linecap="round" stroke-linejoin="round" d="M 444.1590576171875 196.9506378173828 C 462.2291259765625 186.5759735107422 420.7745056152344 204.35618591308594 441.6206359863281 249.51089477539062 C 434.86712646484375 171.451904296875 442.4101867675781 166.2116241455078 454.3348693847656 198.24072265625 C 432.9214172363281 210.80841064453125 455.76513671875 207.4129180908203 438.0760803222656 181.8040771484375 C 396.6097106933594 205.19625854492188 448.1266784667969 225.2359161376953 444.1590576171875 196.9506378173828"/>
    <path stroke-width="0" fill="rgb(261, 214, 80)" opacity="0.9951304" stroke="rgb(231, 197, 84)" stroke-opacity="1.0" stroke-linecap="round" stroke-linejoin="round" d="M 152.59033203125 524.7589111328125 C 142.28701782226562 525.832763671875 168.64111328125 499.1993713378906 144.45982360839844 497.4893493652344 C 132.5544891357422 487.721435546875 159.73593139648438 471.430908203125 159.86993408203125 471.6416931152344 C 131.0948028564453 487.8606262207031 146.61387634277344 504.797607421875 155.40318298339844 451.0274963378906 C 185.42897033691406 458.3653869628906 153.7258758544922 456.5552978515625 152.59033203125 524.7589111328125"/>
    <path stroke-width="0" fill="rgb(36, 123, 83)" opacity="0.6799259" stroke="rgb(103, 59, 33)" stroke-opacity="1.0" stroke-linecap="round" stroke-linejoin="round" d="M 528.959228515625 186.8737030029297 C 485.0111999511719 128.41845703125 480.3611145019531 138.4606170654297 485.3486022949219 91.16343688964844 C 474.0616455078125 133.63771057128906 432.74517822265625 124.78677368164062 463.4742431640625 191.12379455566406 C 464.2169494628906 145.63311767578125 459.064453125 148.9700927734375 507.90496826171875 132.46153259277344 C 444.5433044433594 149.6404266357422 509.9966125488281 143.40850830078125 528.959228515625 186.8737030029297"/>
    <path stroke-width="0" fill="rgb(213, 197, 187)" opacity="0.70971614" stroke="rgb(185, 2, 196)" stroke-opacity="1.0" stroke-linecap="round" stroke-linejoin="round" d="M 234.70648193359375 160.01609802246094 C 239.70347595214844 124.28363800048828 241.52198791503906 140.60728454589844 234.5900115966797 140.08934020996094 C 248.71852111816406 178.34127807617188 198.07347106933594 176.90924072265625 210.72039794921875 145.11984252929688 C 207.38674926757812 115.16934967041016 220.62254333496094 107.9543228149414 236.43310546875 137.3965606689453 C 234.91213989257812 160.8147430419922 230.95924377441406 177.5855712890625 234.70648193359375 160.01609802246094"/>
    <path stroke-width="0" fill="rgb(276, 219, 192)" opacity="0.3749851" stroke="rgb(20, 22, 171)" stroke-opacity="1.0" stroke-linecap="round" stroke-linejoin="round" d="M 588.9744262695312 493.0591735839844 C 393.086669921875 501.6731872558594 391.92333984375 515.4826049804688 407.8381652832031 488.0281982421875 C 389.6783447265625 501.3125305175781 395.93878173828125 503.443359375 372.7502746582031 496.3646545410156 C 393.0193176269531 474.85162353515625 397.5183410644531 480.3391418457031 406.0399475097656 485.3123474121094 C 401.2986755371094 496.1369323730469 357.171875 481.1150817871094 588.9744262695312 493.0591735839844"/>
    <path stroke-width="0" fill="rgb(102, 169, 49)" opacity="0.34805846" stroke="rgb(107, 142, 219)" stroke-opacity="1.0" stroke-linecap="round" stroke-linejoin="round" d="M 479.7261657714844 166.92840576171875 C 471.1898193359375 151.65171813964844 432.74090576171875 188.64561462402344 432.4835205078125 160.07212829589844 C 454.4530334472656 162.72036743164062 436.37774658203125 161.1700897216797 437.03271484375 186.97825622558594 C 435.9439697265625 208.3574676513672 445.2723693847656 189.74807739257812 453.084228515625 179.86453247070312 C 459.8070373535156 201.47885131835938 452.16290283203125 160.91757202148438 479.7261657714844 166.92840576171875"/>
    <path stroke-width="0" fill="rgb(243, 272, 86)" opacity="0.6245825" stroke="rgb(68, 33, 14)" stroke-opacity="1.0" stroke-linecap="round" stroke-linejoin="round" d="M 231.856201171875 95.3708724975586 C 228.24766540527344 74.88846588134766 242.6595001220703 102.35625457763672 234.8951873779297 153.17770385742188 C 258.1354064941406 159.3765411376953 199.17138671875 167.69869995117188 207.472412109375 143.20565795898438 C 214.5802764892578 75.3607406616211 241.33233642578125 60.485713958740234 232.23770141601562 102.92135620117188 C 218.8623809814453 103.70124816894531 232.59222412109375 112.46358489990234 231.856201171875 95.3708724975586"/>
    <path stroke-width="0" fill="rgb(126, 268, 59)" opacity="0.29123753" stroke="rgb(66, 116, 174)" stroke-opacity="1.0" stroke-linecap="round" stroke-linejoin="round" d="M 512.0264892578125 295.0284118652344 C 551.8553466796875 331.77618408203125 490.97625732421875 306.7044372558594 469.233154296875 322.2789306640625 C 510.706298828125 326.52874755859375 472.6591491699219 307.94158935546875 479.922119140625 346.9167785644531 C 489.95556640625 344.8841857910156 486.49334716796875 339.9035949707031 421.7185974121094 342.4530334472656 C 501.6140441894531 370.6097412109375 506.35528564453125 323.13458251953125 512.0264892578125 295.0284118652344"/>
    <path stroke-width="0" fill="rgb(79, 89, 92)" opacity="0.41503742" stroke="rgb(72, 96, 46)" stroke-opacity="1.0" stroke-linecap="round" stroke-linejoin="round" d="M 509.7759094238281 308.6750183105469 C 484.53778076171875 284.2513122558594 476.7344970703125 308.3393249511719 482.872802734375 271.8970031738281 C 470.82568359375 305.00079345703125 452.1653747558594 291.8528137207031 476.9084777832031 318.5045166015625 C 474.45654296875 325.88385009765625 485.72943115234375 309.60552978515625 461.3828125 300.116455078125 C 469.1824035644531 306.1219177246094 502.44256591796875 294.1666259765625 509.7759094238281 308.6750183105469"/>
    <path stroke-width="0" fill="rgb(124, 232, -79)" opacity="0.8147564" stroke="rgb(109, 130, 136)" stroke-opacity="1.0" stroke-linecap="round" stroke-linejoin="round" d="M 241.2932586669922 63.40788269042969 C 225.77410888671875 78.43328094482422 205.62353515625 114.94644927978516 191.8895721435547 111.93785095214844 C 170.35076904296875 146.5443115234375 166.4630584716797 83.60787200927734 207.42335510253906 34.50092315673828 C 244.36326599121094 8.375781059265137 277.7972412109375 87.96421813964844 227.25169372558594 97.9971923828125 C 239.13258361816406 94.82804107666016 261.4728698730469 81.92760467529297 241.2932586669922 63.40788269042969"/>
    <path stroke-width="0" fill="rgb(180, 194, 79)" opacity="0.9119093" stroke="rgb(47, 230, 138)" stroke-opacity="1.0" stroke-linecap="round" stroke-linejoin="round" d="M 184.678466796875 475.9313659667969 C 149.60813903808594 467.3393249511719 164.31851196289062 487.1270751953125 165.38433837890625 453.5240783691406 C 201.32516479492188 453.03009033203125 194.1361083984375 449.4620361328125 153.6217803955078 455.0232849121094 C 158.99154663085938 460.43743896484375 169.00289916992188 447.00927734375 166.096435546875 459.3504943847656 C 211.22247314453125 449.3770446777344 193.955322265625 443.6302490234375 184.678466796875 475.9313659667969"/>
    <path stroke-width="0" fill="rgb(308, 230, 104)" opacity="1.1263905" stroke="rgb(224, 116, 184)" stroke-opacity="1.0" stroke-linecap="round" stroke-linejoin="round" d="M 220.44960021972656 147.84690856933594 C 243.1331024169922 155.0780487060547 256.8286437988281 159.7914581298828 193.47642517089844 143.89224243164062 C 194.65731811523438 125.2876205444336 237.2764434814453 36.6114387512207 238.05421447753906 111.63835144042969 C 243.30905151367188 131.92355346679688 230.43447875976562 67.63467407226562 225.1866455078125 87.19984436035156 C 239.81149291992188 91.4297866821289 236.5164794921875 125.7493896484375 220.44960021972656 147.84690856933594"/>
    <path stroke-width="0" fill="rgb(93, 199, -11)" opacity="0.5615848" stroke="rgb(192, 162, 61)" stroke-opacity="1.0" stroke-linecap="round" stroke-linejoin="round" d="M 255.4297332763672 89.51692962646484 C 240.3074493408203 69.09466552734375 220.81617736816406 20.838623046875 251.88992309570312 74.27177429199219 C 250.88328552246094 67.87382507324219 250.50711059570312 64.95925903320312 263.42388916015625 110.08582305908203 C 283.5006103515625 218.09445190429688 264.99114990234375 135.33950805664062 223.01873779296875 48.005558013916016 C 243.1713409423828 51.326988220214844 246.262939453125 81.0437240600586 255.4297332763672 89.51692962646484"/>
    <path stroke-width="0" fill="rgb(87, 171, 24)" opacity="0.64585805" stroke="rgb(203, 244, 116)" stroke-opacity="1.0" stroke-linecap="round" stroke-linejoin="round" d="M 440.98248291015625 168.89962768554688 C 485.089599609375 146.3238067626953 463.0433349609375 171.7638702392578 444.6893310546875 176.16786193847656 C 476.95404052734375 197.62367248535156 455.3547668457031 212.83518981933594 423.6058654785156 203.27587890625 C 415.916748046875 172.44151306152344 486.1657409667969 175.62911987304688 467.2176818847656 133.91712951660156 C 479.9305725097656 170.2846221923828 490.56939697265625 124.93321228027344 440.98248291015625 168.89962768554688"/>
    <path stroke-width="0" fill="rgb(216, 145, 165)" opacity="0.12745029" stroke="rgb(218, 116, 242)" stroke-opacity="1.0" stroke-linecap="round" stroke-linejoin="round" d="M 198.85665893554688 23.290185928344727 C 211.20726013183594 36.42330551147461 209.4254913330078 20.876829147338867 218.17710876464844 23.04962730407715 C 226.4035186767578 38.099056243896484 233.72317504882812 23.92850685119629 212.97019958496094 28.290510177612305 C 217.8179931640625 34.530364990234375 229.1281280517578 37.58531188964844 256.31097412109375 17.6417293548584 C 201.07740783691406 31.46454620361328 216.16429138183594 26.185895919799805 198.85665893554688 23.290185928344727"/>
    <path stroke-width="0" fill="rgb(74, 187, -21)" opacity="0.7713246" stroke="rgb(209, 231, 207)" stroke-opacity="1.0" stroke-linecap="round" stroke-linejoin="round" d="M 241.90736389160156 87.06875610351562 C 250.52874755859375 85.51846313476562 231.9452362060547 72.0331039428711 250.77151489257812 92.66109466552734 C 253.01019287109375 104.82618713378906 255.5141143798828 102.72599792480469 247.93228149414062 98.66615295410156 C 267.35406494140625 131.31085205078125 253.70880126953125 81.13423919677734 244.37445068359375 72.08275604248047 C 237.61538696289062 79.65304565429688 249.31744384765625 99.6023178100586 241.90736389160156 87.06875610351562"/>
    <path stroke-width="0" fill="rgb(112, 181, 156)" opacity="0.029133484" stroke="rgb(160, 101, 15)" stroke-opacity="1.0" stroke-linecap="round" stroke-linejoin="round" d="M 253.9761505126953 16.868026733398438 C 239.6404266357422 22.676807403564453 235.40078735351562 31.316267013549805 242.2834014892578 14.61690616607666 C 271.8678894042969 11.442994117736816 244.7960205078125 8.120508193969727 276.7063293457031 28.345882415771484 C 239.1072540283203 -17.675201416015625 223.1680450439453 -10.515920639038086 237.89788818359375 -15.49853801727295 C 253.82313537597656 4.033880710601807 275.5719909667969 33.48881530761719 253.9761505126953 16.868026733398438"/>
    <path stroke-width="0" fill="rgb(113, 203, -60)" opacity="0.97616225" stroke="rgb(65, 216, 8)" stroke-opacity="1.0" stroke-linecap="round" stroke-linejoin="round" d="M 198.72633361816406 181.5957489013672 C 195.42776489257812 145.93728637695312 203.6374969482422 151.72080993652344 209.38815307617188 155.5746307373047 C 235.4501953125 145.5643768310547 189.96896362304688 162.74481201171875 205.09329223632812 188.55125427246094 C 186.71795654296875 123.94160461425781 205.2935333251953 131.6739959716797 205.6372528076172 71.74706268310547 C 147.63990783691406 104.52828216552734 171.42613220214844 188.30307006835938 198.72633361816406 181.5957489013672"/>
    <path stroke-width="0" fill="rgb(118, 214, 133)" opacity="0.6452443" stroke="rgb(90, 90, 4)" stroke-opacity="1.0" stroke-linecap="round" stroke-linejoin="round" d="M 231.4586944580078 496.2508850097656 C 217.90635681152344 501.0789794921875 154.6464385986328 493.9801330566406 154.37950134277344 499.08258056640625 C 217.64337158203125 493.9555358886719 211.04324340820312 487.7928161621094 269.2397766113281 478.89300537109375 C 352.6606140136719 468.99163818359375 307.2935485839844 499.366943359375 345.4479064941406 496.9444885253906 C 208.59530639648438 501.3261413574219 227.52166748046875 493.3657531738281 231.4586944580078 496.2508850097656"/>
    <path stroke-width="0" fill="rgb(86, 168, 15)" opacity="0.74309623" stroke="rgb(221, 115, 83)" stroke-opacity="1.0" stroke-linecap="round" stroke-linejoin="round" d="M 240.99440002441406 157.97158813476562 C 237.6927032470703 138.37742614746094 240.86329650878906 137.56900024414062 257.3912048339844 131.38482666015625 C 263.69036865234375 175.42649841308594 251.44361877441406 175.0854034423828 259.2652893066406 145.5499267578125 C 270.3984375 145.08560180664062 275.7665710449219 151.3411865234375 225.2407684326172 140.18099975585938 C 237.84274291992188 137.92698669433594 262.41253662109375 143.43695068359375 240.99440002441406 157.97158813476562"/>
    <path stroke-width="0" fill="rgb(95, 45, 73)" opacity="0.721676" stroke="rgb(33, 3, 29)" stroke-opacity="1.0" stroke-linecap="round" stroke-linejoin="round" d="M 536.125 294.1974182128906 C 505.2458801269531 317.268798828125 508.6228942871094 331.8068542480469 522.595703125 340.4447021484375 C 525.0206909179688 249.46376037597656 538.9813232421875 296.4712829589844 499.431396484375 297.00677490234375 C 467.7354431152344 298.2914123535156 490.66522216796875 297.0679931640625 523.2835083007812 298.7655334472656 C 531.095947265625 267.7210388183594 536.8461303710938 289.4244079589844 536.125 294.1974182128906"/>
    <path stroke-width="0" fill="rgb(13, -16, 126)" opacity="0.24785008" stroke="rgb(248, 252, 104)" stroke-opacity="1.0" stroke-linecap="round" stroke-linejoin="round" d="M 272.6469421386719 72.03133392333984 C 274.9247741699219 52.479736328125 262.2215576171875 77.7809829711914 280.73712158203125 72.94365692138672 C 268.41522216796875 68.20952606201172 266.9775695800781 78.50312042236328 286.08392333984375 68.67566680908203 C 303.8355712890625 104.10135650634766 294.9886169433594 116.2466812133789 281.59515380859375 95.34761810302734 C 275.8355407714844 81.7536849975586 277.0994567871094 67.12378692626953 272.6469421386719 72.03133392333984"/>
    <path stroke-width="0" fill="rgb(151, 86, -4)" opacity="0.5163658" stroke="rgb(162, 125, 252)" stroke-opacity="1.0" stroke-linecap="round" stroke-linejoin="round" d="M 227.4041748046875 176.3882293701172 C 235.63426208496094 186.4611358642578 193.22113037109375 158.44964599609375 212.3905029296875 142.12188720703125 C 203.34356689453125 153.8063201904297 198.3470001220703 153.80426025390625 192.7897491455078 125.2964859008789 C 194.90557861328125 179.2578582763672 208.51600646972656 130.41209411621094 224.29002380371094 169.95997619628906 C 187.34417724609375 129.1593475341797 186.57791137695312 167.82388305664062 227.4041748046875 176.3882293701172"/>
    <path stroke-width="0" fill="rgb(55, 148, 36)" opacity="0.94530475" stroke="rgb(199, 73, 61)" stroke-opacity="1.0" stroke-linecap="round" stroke-linejoin="round" d="M 247.4090118408203 129.7635498046875 C 215.8728485107422 159.34315490722656 228.14480590820312 175.32667541503906 216.08665466308594 165.08631896972656 C 241.96310424804688 181.88662719726562 198.67770385742188 201.2845001220703 225.49708557128906 194.54432678222656 C 259.7641906738281 199.8265380859375 259.8111267089844 192.01405334472656 251.6414031982422 175.4678192138672 C 228.72555541992188 176.26014709472656 298.61517333984375 164.22750854492188 247.4090118408203 129.7635498046875"/>
    <path stroke-width="0" fill="rgb(46, 38, 107)" opacity="0.34471554" stroke="rgb(62, 169, 131)" stroke-opacity="1.0" stroke-linecap="round" stroke-linejoin="round" d="M 167.65069580078125 161.3345489501953 C 163.94113159179688 141.6951446533203 168.3428955078125 146.76580810546875 164.17022705078125 136.12371826171875 C 168.63613891601562 111.53202056884766 169.70272827148438 99.76567840576172 165.69053649902344 121.12376403808594 C 169.5364227294922 107.55982208251953 174.38392639160156 117.3028564453125 170.00408935546875 135.8358612060547 C 171.7239227294922 169.71620178222656 172.0657196044922 160.20249938964844 167.65069580078125 161.3345489501953"/>
    <path stroke-width="0" fill="rgb(67, 119, 43)" opacity="0.556886" stroke="rgb(141, 73, 180)" stroke-opacity="1.0" stroke-linecap="round" stroke-linejoin="round" d="M 245.39990234375 183.2609405517578 C 243.6014404296875 129.8087615966797 223.8233184814453 161.5424041748047 208.30288696289062 169.3094940185547 C 225.77127075195312 161.90040588378906 213.8033905029297 141.58412170410156 208.84922790527344 158.73622131347656 C 208.6852264404297 158.80191040039062 224.0296630859375 164.40367126464844 223.92347717285156 177.7589874267578 C 221.0236053466797 170.80369567871094 219.70704650878906 180.0105438232422 245.39990234375 183.2609405517578"/>
    <path stroke-width="0" fill="rgb(296, 229, 130)" opacity="0.89114696" stroke="rgb(59, 88, 207)" stroke-opacity="1.0" stroke-linecap="round" stroke-linejoin="round" d="M 239.6308135986328 154.61355590820312 C 227.12986755371094 165.73770141601562 242.46043395996094 150.23150634765625 227.61398315429688 85.37025451660156 C 207.2471160888672 136.23069763183594 195.1257781982422 157.93722534179688 205.32852172851562 108.54818725585938 C 231.05072021484375 122.77174377441406 194.71047973632812 98.19839477539062 197.03656005859375 143.63076782226562 C 215.5178680419922 179.3310089111328 241.47613525390625 174.0181427001953 239.6308135986328 154.61355590820312"/>
    <path stroke-width="0" fill="rgb(-1, 60, 85)" opacity="0.9999313" stroke="rgb(247, 230, 75)" stroke-opacity="1.0" stroke-linecap="round" stroke-linejoin="round" d="M 520.4281616210938 317.5904846191406 C 530.1004638671875 343.92352294921875 502.44219970703125 348.1446228027344 540.0751342773438 362.35333251953125 C 532.2391967773438 367.8406066894531 428.6105041503906 359.6878967285156 458.16650390625 361.2254943847656 C 479.2381286621094 312.83441162109375 469.2264404296875 315.3916320800781 465.54351806640625 297.8215637207031 C 544.535888671875 295.8382263183594 596.2022094726562 276.5167541503906 520.4281616210938 317.5904846191406"/>
    <path stroke-width="0" fill="rgb(-9, 62, 81)" opacity="0.9772316" stroke="rgb(63, 27, 242)" stroke-opacity="1.0" stroke-linecap="round" stroke-linejoin="round" d="M 555.8514404296875 311.1312255859375 C 521.5855712890625 315.489013671875 489.0696105957031 323.8018493652344 558.1917114257812 320.3228454589844 C 471.28155517578125 292.516357421875 439.4414978027344 318.301025390625 459.3603210449219 301.44781494140625 C 476.5179748535156 287.1735534667969 482.6376953125 279.1818542480469 484.2294006347656 250.51007080078125 C 500.9088439941406 248.32675170898438 545.654541015625 243.60841369628906 555.8514404296875 311.1312255859375"/>
    <path stroke-width="0" fill="rgb(67, 115, 41)" opacity="0.5508195" stroke="rgb(175, 14, 186)" stroke-opacity="1.0" stroke-linecap="round" stroke-linejoin="round" d="M 477.1926574707031 136.68215942382812 C 477.7467041015625 107.633544921875 479.8609924316406 164.29393005371094 475.0704345703125 154.47251892089844 C 480.1903076171875 131.3278350830078 446.18109130859375 164.87588500976562 478.22003173828125 134.6077423095703 C 471.8603820800781 126.85926818847656 460.2931823730469 150.580810546875 464.80706787109375 154.72386169433594 C 464.0865783691406 155.43467712402344 474.32855224609375 140.43069458007812 477.1926574707031 136.68215942382812"/>
    <path stroke-width="0" fill="rgb(197, 273, 182)" opacity="1.0056937" stroke="rgb(69, 96, 95)" stroke-opacity="1.0" stroke-linecap="round" stroke-linejoin="round" d="M 219.6956787109375 133.20741271972656 C 220.28280639648438 170.02365112304688 222.29388427734375 169.218994140625 240.92059326171875 168.86398315429688 C 249.39471435546875 170.99745178222656 212.198974609375 174.12901306152344 219.2725372314453 161.6475067138672 C 214.06781005859375 171.618896484375 207.47540283203125 168.03887939453125 237.7134552001953 175.6467742919922 C 264.3146667480469 130.06637573242188 255.79537963867188 123.13288879394531 219.6956787109375 133.20741271972656"/>
    <path stroke-width="0" fill="rgb(47, 127, 105)" opacity="0.906557" stroke="rgb(213, 60, 128)" stroke-opacity="1.0" stroke-linecap="round" stroke-linejoin="round" d="M 510.66748046875 164.91065979003906 C 464.76885986328125 159.4415283203125 460.3795166015625 188.6570587158203 467.20257568359375 173.02203369140625 C 381.27392578125 204.28152465820312 341.04498291015625 164.52938842773438 457.1265869140625 157.9691162109375 C 488.57513427734375 165.5050048828125 477.4875793457031 147.12034606933594 409.4977722167969 -50.93630599975586 C 581.1996459960938 6.252917766571045 449.7616882324219 62.90523147583008 510.66748046875 164.91065979003906"/>
    <path stroke-width="0" fill="rgb(59, 186, -35)" opacity="1.030309" stroke="rgb(161, 221, 239)" stroke-opacity="1.0" stroke-linecap="round" stroke-linejoin="round" d="M 279.2733154296875 153.7959747314453 C 287.3103942871094 208.82359313964844 217.40382385253906 213.388671875 202.57151794433594 197.29075622558594 C 262.2422180175781 164.52452087402344 194.48728942871094 183.0607452392578 196.43472290039062 190.91909790039062 C 161.74420166015625 175.898681640625 207.64820861816406 187.1554718017578 242.2786407470703 178.71449279785156 C 234.34939575195312 197.96302795410156 245.445556640625 173.21920776367188 279.2733154296875 153.7959747314453"/>
    <path stroke-width="0" fill="rgb(79, 171, 38)" opacity="0.8992598" stroke="rgb(18, 74, 38)" stroke-opacity="1.0" stroke-linecap="round" stroke-linejoin="round" d="M 468.6225891113281 145.66104125976562 C 439.0363464355469 171.0074005126953 416.9504699707031 167.1103057861328 461.8345642089844 199.81236267089844 C 492.4158935546875 174.44137573242188 450.03338623046875 134.3253631591797 448.9742126464844 157.59078979492188 C 416.5563049316406 175.04171752929688 423.0556945800781 113.55673217773438 459.7101745605469 120.95288848876953 C 453.6535949707031 117.61996459960938 493.12188720703125 124.65082550048828 468.6225891113281 145.66104125976562"/>
    <path stroke-width="0" fill="rgb(116, 169, 65)" opacity="0.5551424" stroke="rgb(33, 154, 97)" stroke-opacity="1.0" stroke-linecap="round" stroke-linejoin="round" d="M 457.771484375 178.24972534179688 C 474.4847106933594 191.63214111328125 466.9728088378906 185.7301788330078 464.3199157714844 176.56155395507812 C 431.0218811035156 186.26148986816406 444.5654296875 191.07948303222656 451.21893310546875 199.0152587890625 C 415.70404052734375 213.50694274902344 475.7293395996094 217.0673370361328 456.74908447265625 195.7892303466797 C 454.98834228515625 200.25918579101562 446.5772399902344 174.25311279296875 457.771484375 178.24972534179688"/>
    <path stroke-width="0" fill="rgb(101, 221, -73)" opacity="0.7632189" stroke="rgb(246, 139, 70)" stroke-opacity="1.0" stroke-linecap="round" stroke-linejoin="round" d="M 215.1214599609375 179.4620819091797 C 251.19259643554688 168.6286163330078 205.8819122314453 178.29283142089844 231.223388671875 186.21902465820312 C 222.54345703125 194.60305786132812 218.99130249023438 176.1480255126953 175.7740936279297 144.55897521972656 C 180.29827880859375 234.57186889648438 265.4089660644531 192.19215393066406 229.56307983398438 184.78013610839844 C 205.6620635986328 184.57666015625 222.52755737304688 180.5238494873047 215.1214599609375 179.4620819091797"/>
    <path stroke-width="0" fill="rgb(275, 234, 170)" opacity="0.88863903" stroke="rgb(228, 103, 140)" stroke-opacity="1.0" stroke-linecap="round" stroke-linejoin="round" d="M 260.33087158203125 150.7545166015625 C 243.60711669921875 193.75784301757812 189.7007598876953 179.8960723876953 197.01841735839844 133.31918334960938 C 204.25015258789062 150.91453552246094 202.6957550048828 142.54910278320312 203.46034240722656 132.5081329345703 C 195.09661865234375 170.70530700683594 217.7860870361328 124.92875671386719 218.30067443847656 110.76859283447266 C 209.692138671875 62.510154724121094 263.86346435546875 94.1275634765625 260.33087158203125 150.7545166015625"/>
    <path stroke-width="0" fill="rgb(90, 181, 60)" opacity="0.79495233" stroke="rgb(85, 235, 219)" stroke-opacity="1.0" stroke-linecap="round" stroke-linejoin="round" d="M 458.02398681640625 174.62400817871094 C 516.5355224609375 135.8321990966797 450.8945617675781 136.8684844970703 427.6782531738281 165.13314819335938 C 426.68170166015625 194.84912109375 476.31317138671875 184.3251953125 451.184814453125 161.07669067382812 C 434.5147705078125 185.21078491210938 465.4747314453125 173.95126342773438 439.2413024902344 168.15565490722656 C 511.55548095703125 176.29771423339844 463.2566833496094 152.98004150390625 458.02398681640625 174.62400817871094"/>
    <path stroke-width="0" fill="rgb(92, 183, 77)" opacity="0.24095681" stroke="rgb(64, 113, 26)" stroke-opacity="1.0" stroke-linecap="round" stroke-linejoin="round" d="M 454.92645263671875 205.40286254882812 C 373.2256164550781 203.11886596679688 438.803466796875 230.57269287109375 471.72222900390625 183.93707275390625 C 486.030029296875 204.10403442382812 437.1600036621094 197.2967529296875 429.4917907714844 201.80343627929688 C 415.45208740234375 183.7192840576172 430.80322265625 169.28387451171875 444.3793640136719 183.65223693847656 C 433.1397399902344 206.70993041992188 462.7844543457031 171.47145080566406 454.92645263671875 205.40286254882812"/>
    <path stroke-width="0" fill="rgb(130, 207, 132)" opacity="0.18021218" stroke="rgb(0, 0, 0)" stroke-opacity="0.0" stroke-linecap="round" stroke-linejoin="round" d="M 82.49364471435547 6.632098197937012 C 81.67167663574219 22.091005325317383 83.2907485961914 23.83485221862793 81.46800231933594 19.06153106689453 C 60.51811981201172 11.915801048278809 60.567264556884766 12.862174034118652 67.1214370727539 19.30537986755371 C 67.47489929199219 7.674954891204834 63.20244216918945 11.293959617614746 59.68760681152344 -1.8584803342819214 C 81.03347778320312 -1.8995137214660645 82.11428833007812 0.17569327354431152 82.49364471435547 6.632098197937012"/>
    <path stroke-width="0" fill="rgb(127, 169, 150)" opacity="0.0160261" stroke="rgb(0, 0, 0)" stroke-opacity="0.0" stroke-linecap="round" stroke-linejoin="round" d="M 20.044164657592773 0.23823747038841248 C 21.32294273376465 10.934636116027832 21.83428192138672 15.013957023620605 26.47698974609375 11.751577377319336 C 25.798471450805664 6.5218305587768555 25.17941665649414 -0.4242844581604004 20.48054313659668 -3.3769798278808594 C 11.943524360656738 -1.1893250942230225 13.392111778259277 -1.1810874938964844 18.35626983642578 -2.7305030822753906 C 20.659963607788086 -2.4141833782196045 18.982967376708984 -0.23195837438106537 20.044164657592773 0.23823747038841248"/>
    <path stroke-width="0" fill="rgb(101, 114, 136)" opacity="-0.04774675" stroke="rgb(0, 0, 0)" stroke-opacity="0.0" stroke-linecap="round" stroke-linejoin="round" d="M 435.4664001464844 1.3640801906585693 C 431.2181396484375 17.254430770874023 434.331787109375 22.198102951049805 429.1979064941406 17.838058471679688 C 430.29803466796875 13.371426582336426 432.868408203125 8.444391250610352 428.67779541015625 -1.4915597438812256 C 421.31402587890625 -3.621086359024048 425.50189208984375 -3.1695635318756104 427.279541015625 2.451998233795166 C 429.90850830078125 8.589640617370605 434.8348388671875 11.634252548217773 435.4664001464844 1.3640801906585693"/>
    <path stroke-width="0" fill="rgb(102, 175, 172)" opacity="0.24009334" stroke="rgb(0, 0, 0)" stroke-opacity="0.0" stroke-linecap="round" stroke-linejoin="round" d="M 182.6663818359375 5.223489761352539 C 186.23973083496094 15.604462623596191 177.69871520996094 13.5706787109375 174.97320556640625 11.585322380065918 C 176.7601776123047 5.652988910675049 168.2330322265625 10.077186584472656 162.1178436279297 10.193456649780273 C 153.91043090820312 10.320317268371582 157.80364990234375 3.5603365898132324 167.99334716796875 -1.0422300100326538 C 182.38327026367188 -7.467661380767822 183.07785034179688 -4.694533824920654 182.6663818359375 5.223489761352539"/>
    <path stroke-width="0" fill="rgb(121, 198, 136)" opacity="0.07598864" stroke="rgb(0, 0, 0)" stroke-opacity="0.0" stroke-linecap="round" stroke-linejoin="round" d="M 75.1079330444336 15.839790344238281 C 73.76497650146484 21.560161590576172 71.67877197265625 28.9796142578125 63.746212005615234 26.668058395385742 C 65.89840698242188 24.37932586669922 61.21611785888672 22.30294418334961 60.79039001464844 17.34434700012207 C 60.78939437866211 11.368284225463867 61.64374923706055 5.249508857727051 64.82303619384766 8.33626651763916 C 71.49365234375 4.397821426391602 70.94346618652344 10.983800888061523 75.1079330444336 15.839790344238281"/>
    <path stroke-width="0" fill="rgb(43, 208, 129)" opacity="0.74649936" stroke="rgb(0, 0, 0)" stroke-opacity="0.0" stroke-linecap="round" stroke-linejoin="round" d="M 262.12164306640625 4.717851638793945 C 269.5964050292969 23.537748336791992 269.9080810546875 41.457096099853516 257.18206787109375 37.03802490234375 C 242.18568420410156 21.819778442382812 239.97055053710938 13.601486206054688 247.260009765625 8.697166442871094 C 260.272705078125 6.273255825042725 252.9357147216797 -8.253311157226562 243.15444946289062 0.8987030386924744 C 251.39645385742188 15.248095512390137 254.35406494140625 13.976030349731445 262.12164306640625 4.717851638793945"/>
    <path stroke-width="0" fill="rgb(121, 100, 216)" opacity="0.0305339" stroke="rgb(0, 0, 0)" stroke-opacity="0.0" stroke-linecap="round" stroke-linejoin="round" d="M 231.87429809570312 29.509063720703125 C 243.6702423095703 25.78706169128418 242.24095153808594 31.745840072631836 233.72496032714844 26.298791885375977 C 234.7967071533203 25.34731101989746 231.5338592529297 24.631410598754883 216.31187438964844 27.15654754638672 C 215.88632202148438 29.507831573486328 229.2108612060547 22.76329231262207 231.0172882080078 20.245323181152344 C 231.8694305419922 20.982467651367188 228.3318328857422 33.096099853515625 231.87429809570312 29.509063720703125"/>
    <path stroke-width="0" fill="rgb(61, 87, 53)" opacity="0.1510513" stroke="rgb(0, 0, 0)" stroke-opacity="0.0" stroke-linecap="round" stroke-linejoin="round" d="M 468.9396057128906 245.25637817382812 C 474.7741394042969 251.01011657714844 475.6619873046875 251.20399475097656 480.88031005859375 251.95523071289062 C 476.3396301269531 245.96392822265625 472.9000244140625 249.80691528320312 470.3869934082031 254.2097625732422 C 478.26739501953125 238.8400115966797 483.0506286621094 232.14236450195312 473.467041015625 238.63137817382812 C 478.13311767578125 237.21511840820312 479.5599060058594 244.6268768310547 468.9396057128906 245.25637817382812"/>
    <path stroke-width="0" fill="rgb(201, 145, 144)" opacity="0.04415917" stroke="rgb(0, 0, 0)" stroke-opacity="0.0" stroke-linecap="round" stroke-linejoin="round" d="M 284.668212890625 301.2113952636719 C 293.2982482910156 312.21270751953125 293.35198974609375 316.27960205078125 274.915283203125 308.1433410644531 C 269.900146484375 315.51513671875 268.639892578125 312.77862548828125 271.0553283691406 300.8182067871094 C 269.6862487792969 289.5022888183594 270.418212890625 289.3422546386719 278.7581481933594 297.88238525390625 C 273.5940856933594 297.1872253417969 278.9508972167969 300.33935546875 284.668212890625 301.2113952636719"/>
    <path stroke-width="0" fill="rgb(92, 156, 163)" opacity="0.016950317" stroke="rgb(0, 0, 0)" stroke-opacity="0.0" stroke-linecap="round" stroke-linejoin="round" d="M 123.3227310180664 86.51116180419922 C 124.74728393554688 93.58684539794922 127.27454376220703 94.9198989868164 119.5270767211914 94.35994720458984 C 112.07276153564453 92.36998748779297 122.97821044921875 91.03477478027344 123.58634948730469 89.52980041503906 C 112.46031951904297 82.9356918334961 115.81678771972656 83.44493103027344 124.30168151855469 89.61876678466797 C 123.35054016113281 74.68949890136719 125.09877014160156 76.3354721069336 123.3227310180664 86.51116180419922"/>
    <path stroke-width="0" fill="rgb(92, 206, 106)" opacity="-0.01623209" stroke="rgb(0, 0, 0)" stroke-opacity="0.0" stroke-linecap="round" stroke-linejoin="round" d="M 12.370243072509766 11.155661582946777 C 11.501166343688965 14.305185317993164 2.742206573486328 11.705779075622559 6.248340606689453 11.28996467590332 C 5.363803386688232 13.167525291442871 3.097804546356201 12.220540046691895 4.967050075531006 14.538824081420898 C 1.1741752624511719 10.766767501831055 0.5689523816108704 6.464003562927246 9.4547758102417 10.161821365356445 C 1.8228367567062378 13.791186332702637 7.48501443862915 13.600757598876953 12.370243072509766 11.155661582946777"/>
    <path stroke-width="0" fill="rgb(117, 49, 213)" opacity="0.03381853" stroke="rgb(0, 0, 0)" stroke-opacity="0.0" stroke-linecap="round" stroke-linejoin="round" d="M 425.10137939453125 113.6509780883789 C 429.9286193847656 110.99019622802734 426.64385986328125 112.9579849243164 428.08160400390625 111.16757202148438 C 425.64508056640625 108.32819366455078 421.19757080078125 107.06903839111328 417.439697265625 108.24685668945312 C 422.92596435546875 113.01258087158203 424.4156188964844 109.85762786865234 423.46502685546875 108.38260650634766 C 424.3314514160156 109.05010223388672 419.441650390625 116.537109375 425.10137939453125 113.6509780883789"/>
    <path stroke-width="0" fill="rgb(144, 136, 34)" opacity="0.67156833" stroke="rgb(0, 0, 0)" stroke-opacity="0.0" stroke-linecap="round" stroke-linejoin="round" d="M -65.47331237792969 73.55612182617188 C -66.54511260986328 77.55612182617188 -69.47331237792969 80.48432922363281 -73.47331237792969 81.55612182617188 C -77.47331237792969 80.48432922363281 -80.4015121459961 77.55612182617188 -81.47331237792969 73.55612182617188 C -80.4015121459961 69.55612182617188 -77.47331237792969 66.62792205810547 -73.47331237792969 65.55612182617188 C -69.47331237792969 66.62792205810547 -66.54511260986328 69.55612182617188 -65.47331237792969 73.55612182617188"/>
    <path stroke-width="0" fill="rgb(180, 58, 49)" opacity="0.05230581" stroke="rgb(0, 0, 0)" stroke-opacity="0.0" stroke-linecap="round" stroke-linejoin="round" d="M 427.846923828125 29.052734375 C 428.75518798828125 36.16501998901367 429.5054931640625 41.530792236328125 435.27001953125 42.88690185546875 C 436.1196594238281 34.46595764160156 428.81005859375 34.7409553527832 429.3985290527344 34.85803985595703 C 430.87109375 35.53300476074219 433.1348876953125 31.495445251464844 432.3915710449219 20.93020248413086 C 429.19305419921875 24.405981063842773 429.8396911621094 27.80190086364746 427.846923828125 29.052734375"/>
    <path stroke-width="0" fill="rgb(187, 28, 151)" opacity="0.01787602" stroke="rgb(0, 0, 0)" stroke-opacity="0.0" stroke-linecap="round" stroke-linejoin="round" d="M 310.1964111328125 185.23182678222656 C 301.2474060058594 184.52120971679688 306.1788330078125 190.07760620117188 300.4200744628906 180.8373260498047 C 295.5968322753906 187.831298828125 293.7693786621094 183.31752014160156 286.7558288574219 180.2458038330078 C 283.8675537109375 173.1363983154297 280.2682189941406 170.100830078125 285.9177551269531 173.63037109375 C 293.695068359375 179.3247528076172 301.8904113769531 182.62913513183594 310.1964111328125 185.23182678222656"/>
    <path stroke-width="0" fill="rgb(71, 114, 116)" opacity="0.01739274" stroke="rgb(0, 0, 0)" stroke-opacity="0.0" stroke-linecap="round" stroke-linejoin="round" d="M 431.1672668457031 81.85301971435547 C 428.7532653808594 79.97970581054688 432.0079040527344 82.53056335449219 436.15057373046875 96.88563537597656 C 429.49114990234375 89.26216125488281 431.2442932128906 82.40421295166016 430.24078369140625 86.74031829833984 C 428.7794189453125 82.22599029541016 426.95599365234375 76.43954467773438 431.0617980957031 84.82162475585938 C 431.8563232421875 79.08918762207031 430.6437683105469 81.62574768066406 431.1672668457031 81.85301971435547"/>
    <path stroke-width="0" fill="rgb(266, 136, 48)" opacity="0.07718273" stroke="rgb(0, 0, 0)" stroke-opacity="0.0" stroke-linecap="round" stroke-linejoin="round" d="M 244.01463317871094 270.900390625 C 245.8120574951172 274.5366516113281 254.26739501953125 276.91015625 247.05897521972656 285.741943359375 C 241.64212036132812 283.379150390625 244.53102111816406 273.1287536621094 238.31492614746094 271.4705810546875 C 234.22833251953125 271.8604431152344 248.89747619628906 272.68426513671875 244.4947509765625 270.5257568359375 C 242.98670959472656 272.17401123046875 247.94692993164062 271.88836669921875 244.01463317871094 270.900390625"/>
    <path stroke-width="0" fill="rgb(29, 74, 177)" opacity="0.33277684" stroke="rgb(0, 0, 0)" stroke-opacity="0.0" stroke-linecap="round" stroke-linejoin="round" d="M -16.759288787841797 0.30070480704307556 C -17.831087112426758 4.3007049560546875 -20.759288787841797 7.228908061981201 -24.759288787841797 8.300704956054688 C -28.759288787841797 7.228908061981201 -31.68749237060547 4.3007049560546875 -32.7592887878418 0.30070480704307556 C -31.68749237060547 -3.6992952823638916 -28.759288787841797 -6.627498626708984 -24.759288787841797 -7.6992950439453125 C -20.759288787841797 -6.627498626708984 -17.831087112426758 -3.6992952823638916 -16.759288787841797 0.30070480704307556"/>
    <path stroke-width="0" fill="rgb(167, 150, 62)" opacity="0.04950642" stroke="rgb(0, 0, 0)" stroke-opacity="0.0" stroke-linecap="round" stroke-linejoin="round" d="M 333.8288879394531 398.3527526855469 C 335.0821533203125 407.7408447265625 333.3564453125 417.01361083984375 327.48016357421875 421.5682067871094 C 326.1626892089844 406.73602294921875 320.6347961425781 407.56024169921875 333.7807312011719 395.14495849609375 C 333.96234130859375 382.6882629394531 323.98052978515625 388.5819396972656 328.232666015625 396.5725402832031 C 326.486328125 392.97357177734375 329.40765380859375 394.40240478515625 333.8288879394531 398.3527526855469"/>
  </g>
</svg>
