<?xml version="1.0" ?>
<svg xmlns="http://www.w3.org/2000/svg" version="1.1" width="512" height="512">
  <defs/>
  <g>
    <path stroke-width="0" fill="rgb(-4, 172, -5)" opacity="1.1895967" stroke="rgb(139, 182, 153)" stroke-opacity="1.0" stroke-linecap="round" stroke-linejoin="round" d="M 210.6172332763672 172.9713897705078 C 81.22816467285156 70.96532440185547 137.98098754882812 155.68988037109375 -22.45061683654785 297.7358093261719 C -50.366825103759766 273.6188659667969 -31.85327911376953 244.60296630859375 5.315326690673828 201.80227661132812 C 62.1490364074707 86.1163330078125 65.28064727783203 74.54830932617188 77.31391143798828 105.59081268310547 C 269.8737487792969 185.90560913085938 146.12384033203125 45.84914016723633 210.6172332763672 172.9713897705078"/>
    <path stroke-width="0" fill="rgb(291, 296, 149)" opacity="0.76429284" stroke="rgb(108, 164, 111)" stroke-opacity="1.0" stroke-linecap="round" stroke-linejoin="round" d="M 139.69142150878906 -38.224639892578125 C 88.20520782470703 151.19532775878906 123.90106964111328 228.39083862304688 1.3349095582962036 269.6476135253906 C -46.57625198364258 225.7718963623047 -45.62084197998047 209.9846649169922 -47.316612243652344 66.32988739013672 C -49.11305618286133 -8.18151569366455 -55.94807434082031 -28.422311782836914 15.614151954650879 -48.40176773071289 C 199.6168670654297 -48.19676208496094 200.75816345214844 -41.44858932495117 139.69142150878906 -38.224639892578125"/>
    <path stroke-width="0" fill="rgb(197, 235, 65)" opacity="0.542304" stroke="rgb(245, 97, 201)" stroke-opacity="1.0" stroke-linecap="round" stroke-linejoin="round" d="M 563.8391723632812 -46.56962203979492 C 586.0159912109375 497.6336975097656 588.2413940429688 535.3872680664062 539.5538940429688 496.656494140625 C -105.48896789550781 501.75946044921875 -87.72547149658203 502.2905578613281 -92.77007293701172 479.6768798828125 C 81.52005767822266 145.90699768066406 148.10806274414062 153.89561462402344 333.80206298828125 -51.0477294921875 C 391.4353942871094 -64.82481384277344 407.0115051269531 -154.88951110839844 563.8391723632812 -46.56962203979492"/>
    <path stroke-width="0" fill="rgb(0, 135, 97)" opacity="0.75783485" stroke="rgb(144, 236, 18)" stroke-opacity="1.0" stroke-linecap="round" stroke-linejoin="round" d="M 280.6630554199219 25.092424392700195 C 60.988582611083984 242.18775939941406 199.6138458251953 68.72930145263672 507.9988098144531 368.404052734375 C 134.93946838378906 528.8682250976562 -181.88714599609375 504.7781982421875 -293.4374694824219 352.186279296875 C 36.02015686035156 7.004572868347168 17.473190307617188 -19.3668270111084 241.4840087890625 -40.754600524902344 C 283.122802734375 -42.716148376464844 297.75506591796875 -45.396400451660156 280.6630554199219 25.092424392700195"/>
    <path stroke-width="0" fill="rgb(155, 43, 83)" opacity="0.60681313" stroke="rgb(5, 212, 198)" stroke-opacity="1.0" stroke-linecap="round" stroke-linejoin="round" d="M 257.235107421875 313.8054504394531 C 286.0947265625 286.15338134765625 273.5107421875 290.94793701171875 217.2155303955078 340.0631103515625 C 204.5343475341797 341.1761474609375 199.23751831054688 333.01910400390625 199.60630798339844 287.61151123046875 C 253.3996124267578 274.2641296386719 284.84033203125 282.8341064453125 291.88525390625 288.24737548828125 C 237.50196838378906 292.0644836425781 249.15631103515625 304.1844177246094 257.235107421875 313.8054504394531"/>
    <path stroke-width="0" fill="rgb(227, 167, 56)" opacity="1.0359459" stroke="rgb(249, 203, 117)" stroke-opacity="1.0" stroke-linecap="round" stroke-linejoin="round" d="M 330.8280334472656 453.4376525878906 C 339.4136657714844 492.5558166503906 264.43475341796875 462.0082702636719 165.32818603515625 470.29998779296875 C 121.75468444824219 428.05035400390625 137.30630493164062 459.3879089355469 111.14400482177734 341.96197509765625 C 117.46837615966797 318.35357666015625 178.67735290527344 332.9365539550781 241.21694946289062 375.2733459472656 C 241.11837768554688 289.2537536621094 324.56488037109375 260.0035705566406 330.8280334472656 453.4376525878906"/>
    <path stroke-width="0" fill="rgb(248, 119, 114)" opacity="1.1437578" stroke="rgb(30, 163, 36)" stroke-opacity="1.0" stroke-linecap="round" stroke-linejoin="round" d="M 379.0366516113281 350.6279296875 C 356.1671447753906 464.3482971191406 366.1261291503906 461.1195068359375 342.0111999511719 442.69775390625 C 237.07565307617188 441.191162109375 178.73391723632812 442.5771484375 149.52200317382812 441.4154968261719 C 103.71145629882812 224.43341064453125 114.34446716308594 375.10662841796875 287.45159912109375 338.0633850097656 C 342.5283508300781 350.5936279296875 365.91351318359375 322.0864562988281 379.0366516113281 350.6279296875"/>
    <path stroke-width="0" fill="rgb(134, 71, 79)" opacity="0.5627675" stroke="rgb(133, 105, 67)" stroke-opacity="1.0" stroke-linecap="round" stroke-linejoin="round" d="M 296.33294677734375 282.334228515625 C 306.86090087890625 286.0582580566406 292.8478698730469 293.24395751953125 297.48516845703125 299.5927734375 C 255.0537872314453 288.616455078125 252.0896453857422 292.44378662109375 290.4623718261719 307.92181396484375 C 307.8744812011719 301.4056396484375 319.2572937011719 290.3226623535156 260.9991760253906 288.4188232421875 C 249.74620056152344 299.8240661621094 273.72344970703125 294.92120361328125 296.33294677734375 282.334228515625"/>
    <path stroke-width="0" fill="rgb(44, 193, 143)" opacity="0.9405855" stroke="rgb(116, 144, 4)" stroke-opacity="1.0" stroke-linecap="round" stroke-linejoin="round" d="M 261.3863220214844 288.1424865722656 C 262.9627685546875 328.3394775390625 256.46875 317.9407958984375 206.8663330078125 336.2035217285156 C 84.25618743896484 358.3090515136719 130.90814208984375 296.4888916015625 164.42294311523438 308.28057861328125 C 171.1861572265625 259.4693603515625 147.42034912109375 274.24676513671875 280.3919372558594 277.0006408691406 C 233.81602478027344 290.9744873046875 262.907470703125 282.09368896484375 261.3863220214844 288.1424865722656"/>
    <path stroke-width="0" fill="rgb(215, 67, 118)" opacity="0.45254663" stroke="rgb(156, 157, 240)" stroke-opacity="1.0" stroke-linecap="round" stroke-linejoin="round" d="M 311.96368408203125 371.1023254394531 C 290.0719299316406 368.2713317871094 327.0977478027344 350.72906494140625 266.931396484375 357.1618347167969 C 213.5172882080078 362.86810302734375 200.06314086914062 363.2247314453125 167.1504364013672 382.1702880859375 C 169.8984832763672 266.9089050292969 176.98036193847656 283.2674865722656 366.6780700683594 266.445068359375 C 280.88934326171875 314.9909973144531 309.189697265625 212.12901306152344 311.96368408203125 371.1023254394531"/>
    <path stroke-width="0" fill="rgb(87, 129, 158)" opacity="0.15475169" stroke="rgb(91, 111, 177)" stroke-opacity="1.0" stroke-linecap="round" stroke-linejoin="round" d="M 303.0317687988281 330.6408386230469 C 357.7190856933594 279.4731750488281 356.64208984375 354.6080627441406 318.3448791503906 326.70245361328125 C 280.4494323730469 400.897705078125 242.4775848388672 376.6570739746094 240.8297119140625 304.75390625 C 224.0833740234375 269.521240234375 226.43162536621094 278.20556640625 319.8780212402344 276.8914489746094 C 304.8077392578125 257.5219421386719 335.8479309082031 313.7039489746094 303.0317687988281 330.6408386230469"/>
    <path stroke-width="0" fill="rgb(279, 112, 82)" opacity="1.0012586" stroke="rgb(170, 171, 53)" stroke-opacity="1.0" stroke-linecap="round" stroke-linejoin="round" d="M 328.99786376953125 404.0810241699219 C 337.6478576660156 426.61480712890625 343.7127380371094 424.83660888671875 222.49209594726562 427.9923400878906 C 80.05996704101562 425.5116882324219 201.2776336669922 425.31109619140625 159.2316436767578 287.3558349609375 C 155.02638244628906 250.09153747558594 113.83264923095703 256.287109375 302.5905456542969 252.5335693359375 C 360.45806884765625 258.7372741699219 283.55767822265625 322.31884765625 328.99786376953125 404.0810241699219"/>
    <path stroke-width="0" fill="rgb(59, -5, 127)" opacity="0.84603125" stroke="rgb(80, 92, 145)" stroke-opacity="1.0" stroke-linecap="round" stroke-linejoin="round" d="M 502.75579833984375 -58.04463195800781 C 603.9179077148438 320.7612609863281 529.070556640625 353.90521240234375 447.853759765625 409.79705810546875 C 434.15545654296875 377.690185546875 462.0884094238281 383.12567138671875 479.6855773925781 340.9414367675781 C 486.5504455566406 226.27243041992188 513.66015625 252.56658935546875 394.9716796875 240.4386749267578 C 502.01824951171875 111.34886169433594 430.2718811035156 20.222396850585938 502.75579833984375 -58.04463195800781"/>
    <path stroke-width="0" fill="rgb(105, 118, 93)" opacity="0.5585314" stroke="rgb(252, 26, 53)" stroke-opacity="1.0" stroke-linecap="round" stroke-linejoin="round" d="M 535.2269287109375 403.6456298828125 C 510.5463562011719 475.5499572753906 491.7347717285156 478.5055847167969 486.6181640625 455.8147277832031 C 448.0965270996094 519.9691162109375 449.2046203613281 396.51397705078125 446.1497802734375 445.31939697265625 C 415.13006591796875 438.8218688964844 424.7669982910156 410.41595458984375 426.5714416503906 360.4981689453125 C 488.14178466796875 370.13330078125 499.236572265625 376.0977478027344 535.2269287109375 403.6456298828125"/>
    <path stroke-width="0" fill="rgb(-4, 51, 88)" opacity="0.9791081" stroke="rgb(166, 64, 118)" stroke-opacity="1.0" stroke-linecap="round" stroke-linejoin="round" d="M 548.3540649414062 480.1696472167969 C 572.5173950195312 479.7188415527344 547.7778930664062 474.14923095703125 445.0142822265625 469.80572509765625 C 419.3100280761719 469.7181396484375 400.3645935058594 493.33758544921875 422.4342041015625 486.43304443359375 C 440.06243896484375 381.5649108886719 446.9182434082031 274.0395202636719 446.28839111328125 343.5740966796875 C 468.9626159667969 442.42083740234375 531.2042236328125 387.60443115234375 548.3540649414062 480.1696472167969"/>
    <path stroke-width="0" fill="rgb(261, 245, 129)" opacity="0.94529533" stroke="rgb(40, 28, 167)" stroke-opacity="1.0" stroke-linecap="round" stroke-linejoin="round" d="M 394.6994934082031 487.139404296875 C 657.6489868164062 441.0367736816406 634.3758544921875 691.9807739257812 -120.1832504272461 479.0752258300781 C 431.1985778808594 465.7080993652344 465.9859924316406 513.52734375 330.51727294921875 450.5194396972656 C 335.4952392578125 407.75262451171875 357.43377685546875 328.6452331542969 358.7501220703125 337.14794921875 C 394.95428466796875 346.886962890625 368.54510498046875 303.15997314453125 394.6994934082031 487.139404296875"/>
    <path stroke-width="0" fill="rgb(51, 4, 46)" opacity="1.0158037" stroke="rgb(50, 94, 209)" stroke-opacity="1.0" stroke-linecap="round" stroke-linejoin="round" d="M 300.9524841308594 212.10604858398438 C 215.9169158935547 191.35586547851562 349.0609436035156 233.54318237304688 246.72079467773438 210.58091735839844 C 19.681753158569336 236.33843994140625 317.1971740722656 -164.04554748535156 166.62339782714844 140.71563720703125 C 359.4348449707031 233.6025848388672 168.1501007080078 16.809879302978516 244.67877197265625 9.048895835876465 C 336.7491760253906 93.6559066772461 319.8683776855469 181.00746154785156 300.9524841308594 212.10604858398438"/>
    <path stroke-width="0" fill="rgb(62, 190, -46)" opacity="1.0163932" stroke="rgb(213, 24, 248)" stroke-opacity="1.0" stroke-linecap="round" stroke-linejoin="round" d="M 270.3345031738281 201.61109924316406 C 276.8343811035156 213.5561065673828 311.0400085449219 218.09326171875 168.1092071533203 151.42971801757812 C 214.013671875 286.9338073730469 293.9651184082031 105.1943359375 220.37889099121094 75.82775115966797 C 126.02386474609375 309.7099609375 181.50839233398438 -47.90100860595703 253.7866973876953 39.70389175415039 C 347.2911376953125 220.8564910888672 217.63575744628906 185.95468139648438 270.3345031738281 201.61109924316406"/>
    <path stroke-width="0" fill="rgb(201, 120, 114)" opacity="0.698716" stroke="rgb(249, 154, 188)" stroke-opacity="1.0" stroke-linecap="round" stroke-linejoin="round" d="M 315.6231994628906 351.0662536621094 C 328.25421142578125 482.97296142578125 356.98876953125 240.6455535888672 331.57208251953125 387.9388427734375 C 59.412479400634766 381.9307861328125 189.28089904785156 403.926513671875 139.8732452392578 349.30804443359375 C 216.2401580810547 361.0239562988281 291.8189392089844 345.33160400390625 218.2096405029297 348.4156799316406 C 266.2236328125 348.4698486328125 243.75405883789062 350.6529235839844 315.6231994628906 351.0662536621094"/>
    <path stroke-width="0" fill="rgb(169, 207, 70)" opacity="0.96809083" stroke="rgb(72, 30, 75)" stroke-opacity="1.0" stroke-linecap="round" stroke-linejoin="round" d="M 551.4763793945312 391.37152099609375 C 526.6265869140625 418.877197265625 482.8193359375 427.96917724609375 455.67205810546875 366.0353698730469 C 441.9955139160156 471.76800537109375 406.4086608886719 594.2852783203125 438.0206604003906 342.8346252441406 C 374.9271545410156 345.14019775390625 407.38836669921875 213.23040771484375 432.7527770996094 289.3343505859375 C 529.7262573242188 322.4494323730469 547.8411865234375 272.96563720703125 551.4763793945312 391.37152099609375"/>
    <path stroke-width="0" fill="rgb(123, 211, 45)" opacity="0.15399384" stroke="rgb(81, 105, 16)" stroke-opacity="1.0" stroke-linecap="round" stroke-linejoin="round" d="M 553.4678955078125 296.9980773925781 C 485.6992492675781 388.4389343261719 448.6430358886719 419.5662536621094 415.8203430175781 306.7212829589844 C 431.92535400390625 496.0560607910156 389.3275146484375 582.2890014648438 430.2562255859375 345.60028076171875 C 412.7243347167969 279.01397705078125 421.98681640625 324.70562744140625 506.9344177246094 311.145263671875 C 518.571533203125 275.686767578125 530.0607299804688 279.1019287109375 553.4678955078125 296.9980773925781"/>
    <path stroke-width="0" fill="rgb(65, 89, -13)" opacity="0.22092685" stroke="rgb(144, 67, 133)" stroke-opacity="1.0" stroke-linecap="round" stroke-linejoin="round" d="M 460.7450866699219 247.373291015625 C 480.0994873046875 85.74526977539062 480.1726379394531 191.13809204101562 423.7106018066406 144.20037841796875 C 434.62957763671875 130.5545654296875 457.3879089355469 159.63002014160156 440.6570129394531 109.34198760986328 C 445.887451171875 114.8867416381836 467.0124206542969 157.39918518066406 454.7866516113281 148.3916778564453 C 413.1214904785156 50.37080383300781 498.2760009765625 152.85646057128906 460.7450866699219 247.373291015625"/>
    <path stroke-width="0" fill="rgb(4, 58, 87)" opacity="0.9727455" stroke="rgb(146, 236, 81)" stroke-opacity="1.0" stroke-linecap="round" stroke-linejoin="round" d="M 555.5571899414062 484.39111328125 C 553.0545654296875 506.82989501953125 547.32421875 512.4262084960938 533.66552734375 473.38323974609375 C 485.2399597167969 494.79327392578125 493.48663330078125 369.8561096191406 435.13714599609375 412.4579772949219 C 457.898193359375 399.3941345214844 443.814453125 394.9814453125 474.7520446777344 392.7481689453125 C 520.6605834960938 397.7110595703125 549.748779296875 378.6960144042969 555.5571899414062 484.39111328125"/>
    <path stroke-width="0" fill="rgb(-84, 114, 66)" opacity="0.46753109" stroke="rgb(33, 182, 73)" stroke-opacity="1.0" stroke-linecap="round" stroke-linejoin="round" d="M 598.2503662109375 3.481672525405884 C 594.6508178710938 301.7290344238281 563.4708862304688 301.7057800292969 460.7214050292969 325.6902770996094 C 386.0896301269531 308.9299011230469 407.83807373046875 315.0875549316406 402.1968994140625 308.2779235839844 C 311.89239501953125 406.1352233886719 305.2326354980469 73.27363586425781 232.7595672607422 -42.766780853271484 C 616.9965209960938 -80.57600402832031 610.6663208007812 -56.13962936401367 598.2503662109375 3.481672525405884"/>
    <path stroke-width="0" fill="rgb(190, 256, 97)" opacity="0.4127493" stroke="rgb(149, 5, 211)" stroke-opacity="1.0" stroke-linecap="round" stroke-linejoin="round" d="M 456.07000732421875 369.1094665527344 C 439.07049560546875 347.3458557128906 434.33251953125 352.3944396972656 479.93450927734375 375.26715087890625 C 384.10784912109375 352.4106750488281 440.8103942871094 286.7438049316406 381.28167724609375 547.6570434570312 C 426.440185546875 247.21871948242188 421.43072509765625 321.5419921875 507.9963684082031 304.2524108886719 C 410.3368225097656 382.3293762207031 430.9976501464844 337.47369384765625 456.07000732421875 369.1094665527344"/>
    <path stroke-width="0" fill="rgb(12, 84, 109)" opacity="0.9994046" stroke="rgb(172, 68, 187)" stroke-opacity="1.0" stroke-linecap="round" stroke-linejoin="round" d="M 383.1102294921875 157.2469482421875 C 359.6470947265625 605.2930908203125 314.49139404296875 365.4908752441406 333.66387939453125 479.94525146484375 C 285.43695068359375 465.19677734375 297.5124206542969 488.32598876953125 279.61700439453125 455.72174072265625 C 324.4162902832031 456.8763427734375 304.7508544921875 445.073974609375 320.1265563964844 478.49700927734375 C 385.1881103515625 456.3437805175781 393.7842712402344 573.7384033203125 383.1102294921875 157.2469482421875"/>
    <path stroke-width="0" fill="rgb(1, 54, 91)" opacity="0.9790183" stroke="rgb(63, 146, 150)" stroke-opacity="1.0" stroke-linecap="round" stroke-linejoin="round" d="M 529.304443359375 417.0984802246094 C 490.08648681640625 404.907470703125 479.1436462402344 425.1456604003906 488.8829040527344 450.01385498046875 C 481.2709045410156 406.7348937988281 422.7904968261719 450.5183410644531 440.30340576171875 362.3556213378906 C 443.1784973144531 365.6029052734375 433.257568359375 360.49029541015625 501.338623046875 358.29644775390625 C 502.8074035644531 357.2574768066406 532.6650390625 366.2889404296875 529.304443359375 417.0984802246094"/>
    <path stroke-width="0" fill="rgb(-2, 67, 76)" opacity="0.18293372" stroke="rgb(56, 242, 114)" stroke-opacity="1.0" stroke-linecap="round" stroke-linejoin="round" d="M 514.036376953125 445.82928466796875 C 548.6885986328125 456.7596130371094 548.231689453125 462.8780212402344 561.8854370117188 431.1849060058594 C 502.213623046875 392.5861511230469 467.32513427734375 389.0086364746094 443.00274658203125 371.4457092285156 C 449.17218017578125 361.94342041015625 447.5791931152344 390.4414367675781 444.5671081542969 456.3524169921875 C 456.5760192871094 384.54296875 471.3473815917969 421.5476379394531 514.036376953125 445.82928466796875"/>
    <path stroke-width="0" fill="rgb(126, 140, 131)" opacity="0.6608349" stroke="rgb(178, 75, 207)" stroke-opacity="1.0" stroke-linecap="round" stroke-linejoin="round" d="M 139.1033477783203 53.209503173828125 C 175.18099975585938 162.05885314941406 123.85079956054688 186.0639190673828 93.45348358154297 110.93236541748047 C 80.2773666381836 100.93131256103516 74.04023742675781 96.25045776367188 71.67605590820312 79.79338073730469 C 110.8765869140625 48.63591766357422 88.88189697265625 67.35610961914062 113.66612243652344 29.73736572265625 C 137.21885681152344 48.179508209228516 153.95074462890625 61.62247085571289 139.1033477783203 53.209503173828125"/>
    <path stroke-width="0" fill="rgb(-15, 16, 92)" opacity="1.0029271" stroke="rgb(224, 148, 224)" stroke-opacity="1.0" stroke-linecap="round" stroke-linejoin="round" d="M 275.9841613769531 443.7756652832031 C 274.4316711425781 454.3926696777344 290.9264221191406 457.8187255859375 284.5535888671875 474.34613037109375 C 165.5693359375 471.5652160644531 195.2472381591797 469.24334716796875 198.79324340820312 458.2294006347656 C 188.3112335205078 455.6255798339844 299.9615173339844 458.414306640625 276.9331970214844 454.3012390136719 C 280.4386291503906 446.5315246582031 273.1123046875 457.7972412109375 275.9841613769531 443.7756652832031"/>
    <path stroke-width="0" fill="rgb(112, 180, 155)" opacity="0.9047404" stroke="rgb(184, 127, 243)" stroke-opacity="1.0" stroke-linecap="round" stroke-linejoin="round" d="M 133.2776641845703 37.01406478881836 C 140.62107849121094 37.45269775390625 133.65170288085938 45.1602897644043 123.3897933959961 49.061885833740234 C 64.3800048828125 48.456687927246094 57.175811767578125 41.41923904418945 55.48030090332031 26.72188949584961 C 81.9834213256836 -6.685445785522461 89.33135223388672 -13.97142505645752 99.01338195800781 -15.654955863952637 C 105.39887237548828 -9.095413208007812 106.54381561279297 3.7735953330993652 133.2776641845703 37.01406478881836"/>
    <path stroke-width="0" fill="rgb(196, 210, 172)" opacity="1.2312968" stroke="rgb(108, 154, 4)" stroke-opacity="1.0" stroke-linecap="round" stroke-linejoin="round" d="M 81.20684814453125 2.8078362941741943 C 74.27986145019531 15.32280445098877 67.54364013671875 22.328357696533203 56.557830810546875 26.001970291137695 C 51.1810302734375 25.406391143798828 41.92174530029297 17.685651779174805 35.79561233520508 11.830568313598633 C 38.253936767578125 -3.4183290004730225 47.84465789794922 -10.043416023254395 59.8436279296875 -12.218351364135742 C 71.0252456665039 -9.903225898742676 80.20531463623047 -3.388583183288574 81.20684814453125 2.8078362941741943"/>
    <path stroke-width="0" fill="rgb(173, 173, 118)" opacity="0.7725958" stroke="rgb(168, 73, 157)" stroke-opacity="1.0" stroke-linecap="round" stroke-linejoin="round" d="M 70.45382690429688 12.380281448364258 C 65.5196533203125 23.162181854248047 59.8620491027832 31.405805587768555 44.304744720458984 40.883209228515625 C 20.227731704711914 44.25599670410156 10.478019714355469 45.34590148925781 32.016300201416016 32.25299072265625 C 50.961055755615234 18.96986961364746 50.090972900390625 15.175207138061523 30.49969482421875 -21.83333969116211 C 63.667240142822266 -2.861229658126831 71.0478744506836 4.250778675079346 70.45382690429688 12.380281448364258"/>
    <path stroke-width="0" fill="rgb(-9, 165, 105)" opacity="0.5919479" stroke="rgb(34, 76, 145)" stroke-opacity="1.0" stroke-linecap="round" stroke-linejoin="round" d="M 216.64849853515625 8.21494197845459 C 164.43032836914062 86.95551300048828 136.93760681152344 84.13041687011719 117.17533874511719 108.59041595458984 C 84.5477066040039 112.3719253540039 79.38397979736328 104.62093353271484 106.18511962890625 94.08799743652344 C 106.53093719482422 50.07069396972656 109.21273803710938 40.943302154541016 117.90422058105469 -8.714827537536621 C 153.9960174560547 -35.20184326171875 205.3474578857422 -42.23313903808594 216.64849853515625 8.21494197845459"/>
    <path stroke-width="0" fill="rgb(170, 184, 155)" opacity="1.0401571" stroke="rgb(146, 166, 166)" stroke-opacity="1.0" stroke-linecap="round" stroke-linejoin="round" d="M 162.2698974609375 251.5142364501953 C 163.419189453125 222.10804748535156 116.16313171386719 221.5670623779297 48.86834716796875 191.34674072265625 C 38.26699447631836 184.4143829345703 28.923057556152344 178.75843811035156 33.3314208984375 140.66993713378906 C 56.99454116821289 85.74224853515625 64.19929504394531 79.1838607788086 59.82596206665039 97.14081573486328 C 123.56401824951172 107.33696746826172 27.114356994628906 187.41690063476562 162.2698974609375 251.5142364501953"/>
    <path stroke-width="0" fill="rgb(126, 252, 235)" opacity="0.32950285" stroke="rgb(228, 93, 111)" stroke-opacity="1.0" stroke-linecap="round" stroke-linejoin="round" d="M 219.3936004638672 20.479808807373047 C 179.9461212158203 25.080759048461914 149.75242614746094 147.55255126953125 158.5178985595703 164.14413452148438 C 41.17021179199219 149.25115966796875 96.34271240234375 61.168636322021484 78.54006958007812 10.932882308959961 C 80.43782043457031 -0.4782421886920929 88.23487854003906 -7.036593437194824 104.90750122070312 -8.278635025024414 C 171.2793731689453 -17.342117309570312 207.4695587158203 -75.20545196533203 219.3936004638672 20.479808807373047"/>
    <path stroke-width="0" fill="rgb(162, 214, 172)" opacity="0.9213343" stroke="rgb(205, 179, 25)" stroke-opacity="1.0" stroke-linecap="round" stroke-linejoin="round" d="M 88.83805847167969 53.02042770385742 C 43.423255920410156 80.99620819091797 39.75470733642578 89.31788635253906 -11.339472770690918 137.12826538085938 C -23.76293182373047 138.65989685058594 -30.73976707458496 131.9322509765625 -32.52988815307617 110.63780212402344 C -18.604202270507812 31.686548233032227 -10.658413887023926 23.689674377441406 62.83885192871094 23.119770050048828 C 72.46138763427734 28.26483154296875 78.945068359375 35.58079147338867 88.83805847167969 53.02042770385742"/>
    <path stroke-width="0" fill="rgb(64, 201, 151)" opacity="0.9754049" stroke="rgb(182, 254, 38)" stroke-opacity="1.0" stroke-linecap="round" stroke-linejoin="round" d="M 209.02606201171875 230.1227569580078 C 158.63343811035156 217.3230438232422 136.61074829101562 329.06976318359375 155.9995574951172 338.0929870605469 C -50.51817321777344 335.4863586425781 -19.698993682861328 294.187744140625 -14.016512870788574 198.39926147460938 C -2.1678965091705322 135.47084045410156 0.617591917514801 123.20967102050781 52.57920837402344 114.35248565673828 C 114.93767547607422 117.8165512084961 116.5644302368164 143.7126922607422 209.02606201171875 230.1227569580078"/>
    <path stroke-width="0" fill="rgb(117, 233, 131)" opacity="0.94864243" stroke="rgb(41, 156, 31)" stroke-opacity="1.0" stroke-linecap="round" stroke-linejoin="round" d="M 66.4300308227539 68.47701263427734 C 66.69169616699219 82.22785949707031 61.38138198852539 91.29133605957031 -0.40687480568885803 98.20317840576172 C -18.30956268310547 92.00404357910156 -28.15337371826172 88.30581665039062 -30.40452766418457 79.21770477294922 C -26.784635543823242 3.3494513034820557 -18.000425338745117 -3.135021209716797 -7.914709568023682 -4.5781707763671875 C 56.13712692260742 1.8028987646102905 61.38776779174805 11.903429985046387 66.4300308227539 68.47701263427734"/>
    <path stroke-width="0" fill="rgb(185, 205, 208)" opacity="0.8453657" stroke="rgb(205, 145, 103)" stroke-opacity="1.0" stroke-linecap="round" stroke-linejoin="round" d="M 87.7738265991211 70.06417846679688 C 58.5714225769043 77.54203796386719 74.98054504394531 82.1490707397461 62.60043716430664 127.195556640625 C 50.02580642700195 124.62342071533203 42.842872619628906 117.87374114990234 36.32567596435547 48.476593017578125 C 28.615530014038086 33.58101272583008 34.13017654418945 20.114002227783203 50.76190185546875 22.555246353149414 C 101.90593719482422 56.66068649291992 106.31573486328125 67.4436264038086 87.7738265991211 70.06417846679688"/>
    <path stroke-width="0" fill="rgb(157, 176, 126)" opacity="0.6299896" stroke="rgb(177, 115, 184)" stroke-opacity="1.0" stroke-linecap="round" stroke-linejoin="round" d="M 116.9927749633789 29.65766716003418 C 112.3022232055664 41.12468719482422 102.9270248413086 45.73191833496094 88.92477416992188 56.33088684082031 C 65.062255859375 23.495180130004883 63.125728607177734 10.143929481506348 54.80929183959961 2.8556442260742188 C 56.48081588745117 -0.054226502776145935 62.786128997802734 -8.597311019897461 71.72896575927734 -11.612053871154785 C 80.67313385009766 -8.070616722106934 89.28096771240234 -1.7077471017837524 116.9927749633789 29.65766716003418"/>
    <path stroke-width="0" fill="rgb(93, 196, 186)" opacity="0.8739871" stroke="rgb(248, 218, 2)" stroke-opacity="1.0" stroke-linecap="round" stroke-linejoin="round" d="M 113.67324829101562 15.499013900756836 C 37.38801193237305 22.457260131835938 106.4421157836914 82.9045181274414 36.275917053222656 102.79930877685547 C 22.975963592529297 92.18402862548828 16.83357048034668 84.05487823486328 15.989821434020996 72.62577056884766 C 47.686683654785156 26.641407012939453 52.85849380493164 18.13999366760254 89.60062408447266 -9.498513221740723 C 108.5977554321289 -8.13996410369873 115.08656311035156 -0.6103909015655518 113.67324829101562 15.499013900756836"/>
    <path stroke-width="0" fill="rgb(131, 177, 157)" opacity="0.8236965" stroke="rgb(186, 43, 132)" stroke-opacity="1.0" stroke-linecap="round" stroke-linejoin="round" d="M 105.11107635498047 136.96888732910156 C 105.67390441894531 149.61167907714844 104.44540405273438 162.307861328125 87.72711944580078 184.83819580078125 C 1.57594895362854 178.3059844970703 2.8040637969970703 168.10610961914062 22.045448303222656 144.92454528808594 C 41.36943054199219 95.81681823730469 43.743709564208984 83.14888763427734 82.8385238647461 57.5481071472168 C 96.68681335449219 62.873756408691406 102.1570053100586 73.40917205810547 105.11107635498047 136.96888732910156"/>
    <path stroke-width="0" fill="rgb(48, 199, 155)" opacity="0.9912146" stroke="rgb(50, 4, 202)" stroke-opacity="1.0" stroke-linecap="round" stroke-linejoin="round" d="M 167.80133056640625 227.37771606445312 C 329.5177307128906 172.71713256835938 657.7916870117188 280.3681945800781 143.8614959716797 262.8411560058594 C -10.163666725158691 232.36146545410156 35.8766975402832 190.33114624023438 54.49087142944336 161.22598266601562 C 101.4853744506836 110.01923370361328 100.03108978271484 110.0660171508789 76.4370346069336 89.40753173828125 C 87.58406829833984 153.38148498535156 161.1103973388672 63.19289779663086 167.80133056640625 227.37771606445312"/>
    <path stroke-width="0" fill="rgb(145, 214, 131)" opacity="0.84539366" stroke="rgb(88, 236, 179)" stroke-opacity="1.0" stroke-linecap="round" stroke-linejoin="round" d="M 134.2912139892578 33.352725982666016 C 110.16780090332031 55.13668441772461 104.713623046875 65.06178283691406 99.20362854003906 72.86261749267578 C 85.061767578125 65.87071990966797 88.05203247070312 51.95358657836914 66.58480072021484 20.996540069580078 C 58.25779724121094 18.166078567504883 63.69343566894531 8.374892234802246 65.20398712158203 -7.620214462280273 C 126.55641174316406 4.6988348960876465 135.848876953125 18.759632110595703 134.2912139892578 33.352725982666016"/>
    <path stroke-width="0" fill="rgb(153, 148, 212)" opacity="0.70679414" stroke="rgb(41, 158, 147)" stroke-opacity="1.0" stroke-linecap="round" stroke-linejoin="round" d="M 111.9810791015625 87.22562408447266 C 85.12454223632812 195.0214080810547 169.13003540039062 175.5824737548828 119.88363647460938 118.00292205810547 C 64.2709732055664 148.43133544921875 57.308448791503906 136.69869995117188 58.85086441040039 129.8951873779297 C 77.8475570678711 91.64877319335938 91.48986053466797 88.60881805419922 128.69610595703125 62.855899810791016 C 136.62864685058594 60.44246292114258 145.9899444580078 65.3783950805664 111.9810791015625 87.22562408447266"/>
    <path stroke-width="0" fill="rgb(126, 214, 147)" opacity="0.95883167" stroke="rgb(238, 156, 136)" stroke-opacity="1.0" stroke-linecap="round" stroke-linejoin="round" d="M 109.15193939208984 32.7855224609375 C 67.59728240966797 67.35203552246094 72.24188232421875 69.4822006225586 74.85762023925781 85.19068908691406 C 9.174117088317871 78.25021362304688 18.23638916015625 71.87085723876953 -1.7774208784103394 8.503283500671387 C 1.4598146677017212 -7.5750274658203125 8.743029594421387 -14.733046531677246 30.52732276916504 -29.383689880371094 C 73.55925750732422 -0.09233957529067993 72.3566665649414 -2.0068092346191406 109.15193939208984 32.7855224609375"/>
    <path stroke-width="0" fill="rgb(94, 211, 97)" opacity="0.80664617" stroke="rgb(186, 79, 101)" stroke-opacity="1.0" stroke-linecap="round" stroke-linejoin="round" d="M 63.366302490234375 -5.46799373626709 C 59.89546203613281 2.9123783111572266 51.08602523803711 7.007721424102783 27.799192428588867 74.19110870361328 C -5.36496639251709 59.74889373779297 -11.62657356262207 48.74924087524414 -33.046791076660156 12.154436111450195 C -11.457196235656738 -50.801475524902344 3.0080111026763916 -43.40044403076172 33.16963577270508 -33.32826232910156 C 54.83304977416992 -17.96738052368164 63.03704071044922 -11.599830627441406 63.366302490234375 -5.46799373626709"/>
    <path stroke-width="0" fill="rgb(124, 229, 155)" opacity="0.6024001" stroke="rgb(47, 240, 188)" stroke-opacity="1.0" stroke-linecap="round" stroke-linejoin="round" d="M 152.88287353515625 40.02191162109375 C 175.2183074951172 122.6202392578125 168.15672302246094 68.64617919921875 137.43234252929688 86.44470977783203 C 107.08605194091797 56.8905029296875 97.0360107421875 53.68738555908203 74.03812408447266 35.918495178222656 C 67.10061645507812 8.651300430297852 65.93082427978516 -3.170323133468628 81.85281372070312 -5.086521625518799 C 142.10635375976562 3.8814544677734375 154.01885986328125 12.320100784301758 152.88287353515625 40.02191162109375"/>
    <path stroke-width="0" fill="rgb(97, 204, 117)" opacity="0.99049675" stroke="rgb(57, 64, 14)" stroke-opacity="1.0" stroke-linecap="round" stroke-linejoin="round" d="M 118.6106185913086 161.0460662841797 C 110.1995849609375 175.5045166015625 103.80616760253906 183.6678924560547 51.72934341430664 172.29981994628906 C -16.64839744567871 168.303466796875 -31.86014747619629 169.69668579101562 -39.14508819580078 126.0372543334961 C -20.971717834472656 50.52899932861328 -7.935214996337891 44.127845764160156 34.39675521850586 49.924983978271484 C 43.96124267578125 120.14070129394531 76.4730224609375 82.00347137451172 118.6106185913086 161.0460662841797"/>
    <path stroke-width="0" fill="rgb(143, 205, 179)" opacity="0.182033" stroke="rgb(79, 177, 96)" stroke-opacity="1.0" stroke-linecap="round" stroke-linejoin="round" d="M 169.18495178222656 54.15114974975586 C 117.70442962646484 80.30732727050781 128.62440490722656 97.73065185546875 115.98090362548828 103.21369171142578 C 78.29593658447266 95.91136932373047 84.45771026611328 76.18456268310547 82.39924621582031 72.32957458496094 C 80.04178619384766 46.455039978027344 82.56967163085938 77.68770599365234 74.80184173583984 52.14638900756836 C 103.1810302734375 48.62308883666992 64.9762191772461 35.52617645263672 169.18495178222656 54.15114974975586"/>
    <path stroke-width="0" fill="rgb(129, 219, 155)" opacity="0.51454604" stroke="rgb(6, 17, 173)" stroke-opacity="1.0" stroke-linecap="round" stroke-linejoin="round" d="M 173.37423706054688 13.232051849365234 C 101.96682739257812 6.478257656097412 108.2984390258789 27.447296142578125 91.02286529541016 63.74259567260742 C 66.90705871582031 42.108158111572266 68.86114501953125 33.03275680541992 65.87752532958984 -2.577681303024292 C 63.50026321411133 -17.718544006347656 78.59664154052734 -19.133859634399414 107.03604888916016 -41.14643859863281 C 99.72486877441406 -11.458165168762207 130.18655395507812 -27.993112564086914 173.37423706054688 13.232051849365234"/>
    <path stroke-width="0" fill="rgb(88, 193, 118)" opacity="0.51489675" stroke="rgb(136, 228, 252)" stroke-opacity="1.0" stroke-linecap="round" stroke-linejoin="round" d="M 66.78146362304688 154.98423767089844 C 59.3800163269043 224.98338317871094 53.4503059387207 232.3634796142578 24.761486053466797 254.30284118652344 C -66.30531311035156 248.96978759765625 -65.95418548583984 237.44366455078125 -46.5633430480957 190.62423706054688 C -51.599098205566406 127.47085571289062 -47.43484115600586 116.39297485351562 4.217339038848877 82.1342544555664 C 70.91840362548828 88.61071014404297 68.23979949951172 102.80522155761719 66.78146362304688 154.98423767089844"/>
    <path stroke-width="0" fill="rgb(31, 117, 116)" opacity="0.8702217" stroke="rgb(169, 67, 5)" stroke-opacity="1.0" stroke-linecap="round" stroke-linejoin="round" d="M 916.2249755859375 222.3081512451172 C 514.8150634765625 309.7976379394531 407.51953125 152.52737426757812 388.1912536621094 354.8503112792969 C 242.05186462402344 253.79443359375 413.1903381347656 127.06108093261719 478.2687683105469 151.99856567382812 C 493.8659362792969 -25.74254608154297 374.4439392089844 381.4733581542969 393.09912109375 -5.262241363525391 C 572.5486450195312 -65.4778823852539 602.8023071289062 -29.20888328552246 916.2249755859375 222.3081512451172"/>
    <path stroke-width="0" fill="rgb(132, 217, 156)" opacity="0.88900864" stroke="rgb(81, 97, 150)" stroke-opacity="1.0" stroke-linecap="round" stroke-linejoin="round" d="M 167.62257385253906 17.72297477722168 C 190.9356689453125 35.697776794433594 173.1258544921875 40.3828239440918 108.38300323486328 56.634132385253906 C 100.13339233398438 45.34726333618164 93.3130111694336 34.379249572753906 85.35386657714844 2.692598342895508 C 91.7847900390625 -33.586639404296875 112.62236785888672 -27.78520393371582 152.9697723388672 -33.55680847167969 C 166.53102111816406 -32.96634292602539 150.89793395996094 -7.524496078491211 167.62257385253906 17.72297477722168"/>
    <path stroke-width="0" fill="rgb(56, 202, 149)" opacity="1.010787" stroke="rgb(160, 222, 69)" stroke-opacity="1.0" stroke-linecap="round" stroke-linejoin="round" d="M 224.3397216796875 -85.52104949951172 C 129.55929565429688 188.54739379882812 154.55197143554688 170.5675506591797 221.36505126953125 225.1240234375 C -18.786148071289062 233.96136474609375 54.117557525634766 137.8828125 35.51709747314453 139.37161254882812 C 114.31458282470703 98.75694274902344 77.3869400024414 60.68251419067383 168.9387969970703 -17.131366729736328 C 268.96759033203125 47.949459075927734 404.3109436035156 71.50473022460938 224.3397216796875 -85.52104949951172"/>
    <path stroke-width="0" fill="rgb(113, 215, 144)" opacity="0.9572068" stroke="rgb(47, 242, 175)" stroke-opacity="1.0" stroke-linecap="round" stroke-linejoin="round" d="M 97.6520767211914 54.30181121826172 C 85.97666931152344 126.84475708007812 87.58438110351562 136.32626342773438 41.726844787597656 133.12545776367188 C 24.50584602355957 127.09967041015625 22.287620544433594 109.49787902832031 33.92611312866211 67.04869842529297 C 32.69709396362305 56.06955337524414 34.13106918334961 50.37020492553711 76.39822387695312 29.507171630859375 C 90.7757568359375 32.32320022583008 90.07257843017578 42.490875244140625 97.6520767211914 54.30181121826172"/>
    <path stroke-width="0" fill="rgb(121, 212, 146)" opacity="0.45952713" stroke="rgb(241, 186, 64)" stroke-opacity="1.0" stroke-linecap="round" stroke-linejoin="round" d="M 104.7676773071289 36.6409912109375 C 101.5342025756836 64.29786682128906 97.75422668457031 72.02272033691406 79.93370819091797 112.15532684326172 C 64.60897827148438 95.8026123046875 59.113346099853516 88.27175903320312 67.0158920288086 92.95006561279297 C 108.36030578613281 90.771484375 82.62450408935547 73.7959976196289 69.09903717041016 31.987756729125977 C 96.77220916748047 45.20877456665039 111.51982879638672 44.75503158569336 104.7676773071289 36.6409912109375"/>
    <path stroke-width="0" fill="rgb(-20, 41, 119)" opacity="0.9755692" stroke="rgb(132, 6, 52)" stroke-opacity="1.0" stroke-linecap="round" stroke-linejoin="round" d="M 248.8555145263672 9.212191581726074 C 404.6368103027344 220.22914123535156 257.76422119140625 274.08465576171875 206.0828399658203 203.101318359375 C 213.67416381835938 226.40487670898438 307.3106689453125 200.33497619628906 242.17169189453125 203.79725646972656 C 275.46173095703125 208.2860870361328 278.5699157714844 203.06134033203125 194.18121337890625 211.21849060058594 C 284.0213317871094 212.90695190429688 346.8993835449219 189.45407104492188 248.8555145263672 9.212191581726074"/>
    <path stroke-width="0" fill="rgb(103, 210, 147)" opacity="0.49913275" stroke="rgb(95, 118, 70)" stroke-opacity="1.0" stroke-linecap="round" stroke-linejoin="round" d="M 121.23474884033203 274.0449523925781 C 110.67865753173828 457.176513671875 154.4040069580078 417.8435363769531 -3.6590771675109863 448.9765625 C -50.9125862121582 347.63446044921875 -37.154541015625 324.6271667480469 -35.95062255859375 275.15484619140625 C -41.400962829589844 197.63021850585938 -41.09809494018555 183.4933319091797 -21.062477111816406 188.92164611816406 C 87.41873168945312 196.3463134765625 100.25761413574219 207.03379821777344 121.23474884033203 274.0449523925781"/>
    <path stroke-width="0" fill="rgb(92, 224, 71)" opacity="0.50682425" stroke="rgb(220, 29, 131)" stroke-opacity="1.0" stroke-linecap="round" stroke-linejoin="round" d="M 524.2811279296875 334.21044921875 C 467.03399658203125 357.43316650390625 471.20086669921875 321.3865661621094 472.5464782714844 335.9017028808594 C 465.5633850097656 352.6731262207031 456.07916259765625 366.82135009765625 459.6820983886719 300.3333740234375 C 455.5772399902344 304.3729553222656 468.1379699707031 330.6658020019531 562.8867797851562 313.3096923828125 C 515.2623291015625 301.83746337890625 490.0188903808594 311.9698791503906 524.2811279296875 334.21044921875"/>
    <path stroke-width="0" fill="rgb(137, 212, 127)" opacity="0.16246188" stroke="rgb(140, 149, 245)" stroke-opacity="1.0" stroke-linecap="round" stroke-linejoin="round" d="M 573.1663818359375 354.019287109375 C 577.0828247070312 373.0533142089844 543.2714233398438 374.3423767089844 440.4903259277344 354.5191345214844 C 473.69488525390625 331.0494079589844 481.08087158203125 320.20068359375 502.489501953125 291.5810546875 C 533.4683837890625 284.61151123046875 511.8345947265625 311.0679016113281 520.8947143554688 305.29913330078125 C 525.5113525390625 291.9359130859375 521.249755859375 311.6423645019531 573.1663818359375 354.019287109375"/>
    <path stroke-width="0" fill="rgb(57, 87, 73)" opacity="0.4558169" stroke="rgb(170, 200, 71)" stroke-opacity="1.0" stroke-linecap="round" stroke-linejoin="round" d="M 452.4256286621094 190.6748504638672 C 438.6024475097656 191.86209106445312 428.9284362792969 193.53689575195312 441.4140319824219 182.47874450683594 C 442.1989440917969 207.2802734375 459.90582275390625 207.85064697265625 426.8004150390625 191.1393585205078 C 443.4655456542969 161.90773010253906 458.7416076660156 139.69866943359375 475.5479431152344 189.39891052246094 C 435.3191833496094 178.75674438476562 449.67230224609375 205.57183837890625 452.4256286621094 190.6748504638672"/>
    <path stroke-width="0" fill="rgb(89, 183, 49)" opacity="0.7369888" stroke="rgb(16, 123, 249)" stroke-opacity="1.0" stroke-linecap="round" stroke-linejoin="round" d="M 446.8677978515625 160.21923828125 C 476.9735412597656 163.5494384765625 481.1000671386719 146.96273803710938 451.8970031738281 190.5667266845703 C 454.70703125 142.64732360839844 463.29052734375 135.40182495117188 485.39208984375 122.19027709960938 C 468.8507080078125 193.68313598632812 484.3910217285156 164.82188415527344 477.1457214355469 151.72998046875 C 466.4422302246094 156.74954223632812 473.8647155761719 174.84494018554688 446.8677978515625 160.21923828125"/>
    <path stroke-width="0" fill="rgb(88, 185, 53)" opacity="0.7904515" stroke="rgb(86, 245, 59)" stroke-opacity="1.0" stroke-linecap="round" stroke-linejoin="round" d="M 483.91571044921875 124.82604217529297 C 460.2640380859375 80.63873291015625 425.03936767578125 160.61737060546875 446.77557373046875 142.11729431152344 C 485.1709289550781 156.0397186279297 458.10491943359375 164.6684112548828 474.2333068847656 156.09336853027344 C 487.0248107910156 129.7644500732422 481.8487854003906 134.66835021972656 465.4463806152344 137.48208618164062 C 462.3507995605469 152.67405700683594 465.81494140625 166.38685607910156 483.91571044921875 124.82604217529297"/>
    <path stroke-width="0" fill="rgb(117, 202, 56)" opacity="0.52994025" stroke="rgb(240, 203, 160)" stroke-opacity="1.0" stroke-linecap="round" stroke-linejoin="round" d="M 459.469970703125 361.4449462890625 C 420.9460144042969 345.0801086425781 401.0567321777344 355.29766845703125 422.5750732421875 341.7857971191406 C 428.7727966308594 353.3631591796875 425.26361083984375 345.0325012207031 413.3644714355469 359.0979919433594 C 405.4173278808594 427.31005859375 414.5948486328125 368.9469299316406 416.4840087890625 352.64202880859375 C 371.2956848144531 342.8318786621094 355.5148620605469 381.7565002441406 459.469970703125 361.4449462890625"/>
    <path stroke-width="0" fill="rgb(89, 189, 64)" opacity="0.86798066" stroke="rgb(74, 216, 157)" stroke-opacity="1.0" stroke-linecap="round" stroke-linejoin="round" d="M 469.41522216796875 140.24160766601562 C 454.66314697265625 157.4515838623047 462.6406555175781 177.5074005126953 467.8857727050781 165.5209197998047 C 476.6346130371094 167.2917938232422 482.50762939453125 154.6774444580078 459.9022216796875 197.02674865722656 C 473.7991943359375 139.30958557128906 493.00640869140625 137.3302764892578 453.80853271484375 134.53741455078125 C 449.8628845214844 150.6710205078125 440.81475830078125 175.8807373046875 469.41522216796875 140.24160766601562"/>
    <path stroke-width="0" fill="rgb(12, 108, 88)" opacity="0.17882358" stroke="rgb(88, 37, 250)" stroke-opacity="1.0" stroke-linecap="round" stroke-linejoin="round" d="M 384.9316711425781 415.2467041015625 C 387.4339904785156 352.235595703125 381.2703857421875 378.0218811035156 384.4871826171875 354.767578125 C 364.4885559082031 380.5238342285156 394.129638671875 442.2088317871094 401.0950622558594 404.63238525390625 C 432.517578125 311.71917724609375 378.61407470703125 405.4530029296875 386.91241455078125 358.4869079589844 C 362.0742492675781 397.0482177734375 376.9359436035156 420.31201171875 384.9316711425781 415.2467041015625"/>
    <path stroke-width="0" fill="rgb(50, 41, 140)" opacity="0.37927353" stroke="rgb(126, 163, 93)" stroke-opacity="1.0" stroke-linecap="round" stroke-linejoin="round" d="M 565.7841796875 296.9656066894531 C 503.48260498046875 338.0379638671875 496.94610595703125 343.2876892089844 569.7462768554688 315.2210388183594 C 476.14593505859375 337.2384338378906 441.16668701171875 305.3973693847656 484.8327941894531 306.1519470214844 C 525.5949096679688 331.7773742675781 533.9584350585938 324.2976989746094 491.1441650390625 285.84735107421875 C 475.0224304199219 282.2054138183594 519.3408203125 279.1015625 565.7841796875 296.9656066894531"/>
    <path stroke-width="0" fill="rgb(150, 157, 28)" opacity="0.5024511" stroke="rgb(209, 48, 130)" stroke-opacity="1.0" stroke-linecap="round" stroke-linejoin="round" d="M 480.71160888671875 159.02975463867188 C 484.98382568359375 151.27957153320312 460.9834899902344 129.78895568847656 411.6339111328125 167.30105590820312 C 452.4576721191406 167.0470733642578 438.3026428222656 137.10751342773438 425.79949951171875 176.87474060058594 C 455.6192626953125 172.033935546875 450.553955078125 121.09562683105469 484.13348388671875 119.53067016601562 C 442.453369140625 154.5041046142578 436.80450439453125 187.22052001953125 480.71160888671875 159.02975463867188"/>
    <path stroke-width="0" fill="rgb(170, 171, 33)" opacity="0.8238176" stroke="rgb(24, 219, 248)" stroke-opacity="1.0" stroke-linecap="round" stroke-linejoin="round" d="M 445.5262451171875 197.5519256591797 C 458.3301696777344 178.31422424316406 418.3409118652344 201.69700622558594 438.8422546386719 258.2363586425781 C 437.1194763183594 175.5746307373047 445.5385437011719 167.83853149414062 453.0963134765625 195.08377075195312 C 428.1312255859375 207.07786560058594 454.08905029296875 207.0316925048828 435.74932861328125 180.95761108398438 C 393.40118408203125 206.06312561035156 447.5621337890625 226.1699981689453 445.5262451171875 197.5519256591797"/>
    <path stroke-width="0" fill="rgb(265, 183, 77)" opacity="1.014526" stroke="rgb(231, 197, 84)" stroke-opacity="1.0" stroke-linecap="round" stroke-linejoin="round" d="M 153.73190307617188 527.2490844726562 C 142.11367797851562 522.6024169921875 169.96348571777344 496.62322998046875 149.3271942138672 499.26324462890625 C 135.05409240722656 486.54510498046875 159.14132690429688 471.01654052734375 159.25344848632812 470.1660461425781 C 135.55471801757812 490.1142883300781 151.1631622314453 507.9481506347656 155.05970764160156 448.3534851074219 C 190.43243408203125 458.6437683105469 157.1114044189453 458.7713317871094 153.73190307617188 527.2490844726562"/>
    <path stroke-width="0" fill="rgb(39, 124, 62)" opacity="0.57999796" stroke="rgb(103, 59, 33)" stroke-opacity="1.0" stroke-linecap="round" stroke-linejoin="round" d="M 528.8621826171875 186.5342559814453 C 483.64544677734375 128.73377990722656 476.24957275390625 140.33151245117188 480.3488464355469 87.90055847167969 C 473.3897399902344 131.93423461914062 433.5324401855469 124.30354309082031 465.6492919921875 191.7167205810547 C 461.35638427734375 141.5475311279297 457.5683288574219 149.27996826171875 510.28155517578125 135.74085998535156 C 444.1971740722656 150.34219360351562 510.31451416015625 143.8897705078125 528.8621826171875 186.5342559814453"/>
    <path stroke-width="0" fill="rgb(211, 201, 203)" opacity="0.8505625" stroke="rgb(185, 2, 196)" stroke-opacity="1.0" stroke-linecap="round" stroke-linejoin="round" d="M 235.69052124023438 160.36953735351562 C 241.0209197998047 123.8868637084961 242.29696655273438 139.33262634277344 237.9614715576172 141.53903198242188 C 249.109130859375 179.98353576660156 197.4744415283203 177.80001831054688 209.57485961914062 145.76089477539062 C 207.18099975585938 115.31977844238281 219.5979766845703 108.77356719970703 234.68533325195312 138.82354736328125 C 234.9453887939453 160.8974151611328 231.5095977783203 177.8946990966797 235.69052124023438 160.36953735351562"/>
    <path stroke-width="0" fill="rgb(282, 227, 184)" opacity="0.4102171" stroke="rgb(20, 22, 171)" stroke-opacity="1.0" stroke-linecap="round" stroke-linejoin="round" d="M 586.4297485351562 492.26171875 C 390.1240234375 497.5888366699219 393.5873718261719 511.65472412109375 413.03228759765625 488.623046875 C 391.9106750488281 506.08465576171875 394.70361328125 505.8595886230469 371.6138000488281 496.7431640625 C 391.530517578125 478.7055969238281 392.66278076171875 484.7331237792969 402.8163757324219 489.38055419921875 C 400.1219787597656 497.4696350097656 356.50164794921875 482.3953857421875 586.4297485351562 492.26171875"/>
    <path stroke-width="0" fill="rgb(107, 154, 40)" opacity="0.22629088" stroke="rgb(107, 142, 219)" stroke-opacity="1.0" stroke-linecap="round" stroke-linejoin="round" d="M 480.3434753417969 164.41629028320312 C 468.7784423828125 152.71588134765625 429.1127014160156 188.94593811035156 425.0220642089844 162.21376037597656 C 452.5530090332031 164.2329864501953 434.70556640625 160.7431182861328 431.80133056640625 190.6710205078125 C 440.16864013671875 213.73060607910156 449.5720520019531 194.60684204101562 451.8065185546875 184.0684814453125 C 461.43475341796875 204.3272705078125 457.122802734375 161.26071166992188 480.3434753417969 164.41629028320312"/>
    <path stroke-width="0" fill="rgb(233, 262, 77)" opacity="0.5700737" stroke="rgb(68, 33, 14)" stroke-opacity="1.0" stroke-linecap="round" stroke-linejoin="round" d="M 232.94090270996094 94.5446548461914 C 231.00437927246094 72.6031723022461 244.64938354492188 98.28123474121094 235.44972229003906 149.9977569580078 C 259.4647216796875 158.1593475341797 201.1075439453125 165.79437255859375 207.54029846191406 144.4478302001953 C 213.297607421875 77.58358764648438 239.73316955566406 63.47537612915039 231.57693481445312 106.5886001586914 C 218.86175537109375 103.70034790039062 232.63327026367188 112.4591064453125 232.94090270996094 94.5446548461914"/>
    <path stroke-width="0" fill="rgb(93, 252, 52)" opacity="0.24603191" stroke="rgb(66, 116, 174)" stroke-opacity="1.0" stroke-linecap="round" stroke-linejoin="round" d="M 507.65167236328125 292.5281066894531 C 551.5184326171875 330.3509216308594 488.1937561035156 302.4119567871094 466.6596374511719 316.1102600097656 C 510.48974609375 327.0209655761719 472.40289306640625 308.6324462890625 479.4204406738281 345.0287170410156 C 490.6182861328125 342.3016357421875 486.20263671875 336.9598083496094 417.3531799316406 341.2672119140625 C 497.1673278808594 373.2573547363281 503.0480041503906 323.24139404296875 507.65167236328125 292.5281066894531"/>
    <path stroke-width="0" fill="rgb(33, 71, 87)" opacity="0.47040302" stroke="rgb(72, 96, 46)" stroke-opacity="1.0" stroke-linecap="round" stroke-linejoin="round" d="M 509.39642333984375 309.4858703613281 C 488.05279541015625 283.6748962402344 478.0517578125 304.3603515625 484.5751037597656 274.6903076171875 C 475.0538024902344 306.5991516113281 453.7806091308594 292.96148681640625 475.95916748046875 320.46783447265625 C 472.97808837890625 326.3758239746094 485.0072021484375 309.56402587890625 459.99444580078125 301.27532958984375 C 469.8142395019531 304.39630126953125 503.4385070800781 292.4644775390625 509.39642333984375 309.4858703613281"/>
    <path stroke-width="0" fill="rgb(117, 228, -73)" opacity="0.7833511" stroke="rgb(109, 130, 136)" stroke-opacity="1.0" stroke-linecap="round" stroke-linejoin="round" d="M 241.63365173339844 66.23603057861328 C 227.2599334716797 79.94770812988281 204.8095703125 114.45829010009766 189.88226318359375 111.0987777709961 C 169.08045959472656 145.72650146484375 167.452880859375 85.77611541748047 211.86337280273438 33.30841064453125 C 242.81088256835938 1.7896192073822021 276.9151306152344 85.87767791748047 226.11001586914062 98.0197525024414 C 240.41912841796875 96.89188385009766 261.1539611816406 82.34596252441406 241.63365173339844 66.23603057861328"/>
    <path stroke-width="0" fill="rgb(181, 204, 89)" opacity="0.9122329" stroke="rgb(47, 230, 138)" stroke-opacity="1.0" stroke-linecap="round" stroke-linejoin="round" d="M 181.1819305419922 474.1456604003906 C 156.0369110107422 465.0619201660156 169.3765411376953 489.0735168457031 168.10708618164062 454.4082336425781 C 203.4686279296875 455.3553466796875 195.41452026367188 448.6263732910156 155.04217529296875 452.183349609375 C 161.56832885742188 461.4695129394531 170.64976501464844 450.2319641113281 168.01834106445312 457.930908203125 C 214.62310791015625 453.4255065917969 192.42520141601562 443.9429626464844 181.1819305419922 474.1456604003906"/>
    <path stroke-width="0" fill="rgb(307, 235, 114)" opacity="1.1053665" stroke="rgb(224, 116, 184)" stroke-opacity="1.0" stroke-linecap="round" stroke-linejoin="round" d="M 217.6656951904297 145.9385528564453 C 242.72337341308594 155.0756378173828 255.59373474121094 161.4910888671875 193.0304412841797 142.48477172851562 C 192.97317504882812 123.02961730957031 236.13111877441406 33.90481948852539 239.30975341796875 108.5959701538086 C 242.33560180664062 132.02447509765625 227.56216430664062 67.28167724609375 223.2832794189453 84.51924896240234 C 239.3896026611328 90.11907196044922 234.7186737060547 124.9452133178711 217.6656951904297 145.9385528564453"/>
    <path stroke-width="0" fill="rgb(95, 204, -20)" opacity="0.48202428" stroke="rgb(192, 162, 61)" stroke-opacity="1.0" stroke-linecap="round" stroke-linejoin="round" d="M 252.61769104003906 92.06437683105469 C 240.62396240234375 69.04412841796875 219.17628479003906 24.968063354492188 251.19784545898438 74.20785522460938 C 248.71014404296875 68.48615264892578 248.14938354492188 66.98395538330078 263.77862548828125 111.37997436523438 C 287.2703857421875 215.4159393310547 261.493408203125 138.76165771484375 220.07965087890625 53.519046783447266 C 240.0177764892578 54.61808776855469 243.3795623779297 83.61990356445312 252.61769104003906 92.06437683105469"/>
    <path stroke-width="0" fill="rgb(103, 193, 8)" opacity="0.7834875" stroke="rgb(203, 244, 116)" stroke-opacity="1.0" stroke-linecap="round" stroke-linejoin="round" d="M 439.22271728515625 166.09332275390625 C 487.0575866699219 148.38023376464844 467.2842102050781 176.85911560058594 448.2428283691406 177.57156372070312 C 478.5264892578125 199.10305786132812 456.3578186035156 215.4288330078125 417.9315490722656 204.28160095214844 C 408.40673828125 167.35365295410156 483.7922668457031 172.52491760253906 473.4118957519531 127.46797180175781 C 487.34100341796875 162.95823669433594 492.32098388671875 122.9542236328125 439.22271728515625 166.09332275390625"/>
    <path stroke-width="0" fill="rgb(252, 165, 155)" opacity="0.19417353" stroke="rgb(218, 116, 242)" stroke-opacity="1.0" stroke-linecap="round" stroke-linejoin="round" d="M 192.84890747070312 27.725725173950195 C 207.4412841796875 39.98445129394531 206.2458038330078 17.83421516418457 218.76998901367188 13.897592544555664 C 234.2421875 33.66279602050781 239.8607177734375 22.49355125427246 207.6593017578125 28.380754470825195 C 212.49813842773438 32.66739273071289 223.5706024169922 32.56991958618164 252.9025115966797 13.74162483215332 C 199.66688537597656 28.800138473510742 212.3611602783203 23.88627815246582 192.84890747070312 27.725725173950195"/>
    <path stroke-width="0" fill="rgb(58, 190, -41)" opacity="0.8056794" stroke="rgb(209, 231, 207)" stroke-opacity="1.0" stroke-linecap="round" stroke-linejoin="round" d="M 242.8306427001953 87.16674041748047 C 248.48863220214844 89.39175415039062 228.53355407714844 75.66497802734375 246.5789794921875 96.81395721435547 C 248.28598022460938 107.01396942138672 254.89833068847656 98.66621398925781 240.30116271972656 101.1810302734375 C 263.7255554199219 136.67550659179688 253.23114013671875 81.31875610351562 244.26046752929688 72.57695770263672 C 241.12611389160156 78.45082092285156 254.49876403808594 94.41584777832031 242.8306427001953 87.16674041748047"/>
    <path stroke-width="0" fill="rgb(131, 203, 190)" opacity="0.14274283" stroke="rgb(160, 101, 15)" stroke-opacity="1.0" stroke-linecap="round" stroke-linejoin="round" d="M 256.18927001953125 16.653615951538086 C 237.59339904785156 21.497976303100586 233.2544403076172 29.74087142944336 240.99740600585938 12.305434226989746 C 272.27349853515625 10.309759140014648 246.08067321777344 6.982397079467773 270.9673767089844 33.34621810913086 C 235.2393035888672 -13.95602798461914 221.50059509277344 -8.862051963806152 242.41549682617188 -19.358978271484375 C 259.945556640625 -1.2937259674072266 281.71337890625 28.783418655395508 256.18927001953125 16.653615951538086"/>
    <path stroke-width="0" fill="rgb(110, 215, -53)" opacity="1.0062171" stroke="rgb(65, 216, 8)" stroke-opacity="1.0" stroke-linecap="round" stroke-linejoin="round" d="M 198.651123046875 182.41932678222656 C 197.5478973388672 143.8522186279297 203.80029296875 148.4552764892578 208.1072998046875 152.0123291015625 C 231.8093719482422 142.51339721679688 186.24658203125 159.9318389892578 208.1824188232422 184.25611877441406 C 186.4550018310547 117.20661163330078 203.44447326660156 127.0013427734375 205.40213012695312 69.28032684326172 C 147.42152404785156 108.27928161621094 168.87893676757812 191.01718139648438 198.651123046875 182.41932678222656"/>
    <path stroke-width="0" fill="rgb(120, 228, 130)" opacity="0.6259946" stroke="rgb(90, 90, 4)" stroke-opacity="1.0" stroke-linecap="round" stroke-linejoin="round" d="M 233.41156005859375 497.1694030761719 C 221.42962646484375 501.48675537109375 160.59933471679688 492.3057556152344 158.72711181640625 500.17266845703125 C 215.9807891845703 493.325927734375 208.5699005126953 484.5732116699219 266.6075744628906 476.359619140625 C 355.0877380371094 468.53497314453125 307.5105285644531 501.7938537597656 340.9408264160156 497.1697082519531 C 210.85623168945312 498.6867980957031 228.87582397460938 491.2099304199219 233.41156005859375 497.1694030761719"/>
    <path stroke-width="0" fill="rgb(87, 169, 11)" opacity="0.63443935" stroke="rgb(221, 115, 83)" stroke-opacity="1.0" stroke-linecap="round" stroke-linejoin="round" d="M 241.45367431640625 158.335693359375 C 237.80545043945312 138.12741088867188 240.47775268554688 136.8028106689453 253.76573181152344 134.52981567382812 C 260.16070556640625 175.67933654785156 251.9695281982422 177.02992248535156 262.1654052734375 147.91920471191406 C 268.386474609375 146.65943908691406 273.2947692871094 150.02883911132812 223.2317352294922 138.45932006835938 C 238.44691467285156 136.4456024169922 262.7593078613281 142.44754028320312 241.45367431640625 158.335693359375"/>
    <path stroke-width="0" fill="rgb(95, 41, 68)" opacity="0.73444974" stroke="rgb(33, 3, 29)" stroke-opacity="1.0" stroke-linecap="round" stroke-linejoin="round" d="M 536.125 294.1974182128906 C 505.2458801269531 317.268798828125 508.6228942871094 331.8068542480469 522.595458984375 340.4437255859375 C 525.012939453125 249.4333038330078 538.9100341796875 296.2742004394531 499.2307434082031 296.2850646972656 C 467.7834167480469 298.2954406738281 490.6756896972656 297.12255859375 523.2714233398438 299.1992492675781 C 531.095947265625 267.7210388183594 536.8461303710938 289.4244079589844 536.125 294.1974182128906"/>
    <path stroke-width="0" fill="rgb(30, 7, 156)" opacity="0.18292515" stroke="rgb(248, 252, 104)" stroke-opacity="1.0" stroke-linecap="round" stroke-linejoin="round" d="M 279.57904052734375 69.87047576904297 C 276.64959716796875 49.335330963134766 260.0635070800781 79.7730941772461 283.0828857421875 76.52130889892578 C 270.0501708984375 66.95638275146484 267.39031982421875 72.58035278320312 289.6800537109375 64.31867980957031 C 311.26849365234375 99.73908996582031 297.84075927734375 114.0503921508789 280.79620361328125 96.70205688476562 C 276.4308776855469 80.53775024414062 277.2184143066406 65.6499252319336 279.57904052734375 69.87047576904297"/>
    <path stroke-width="0" fill="rgb(167, 91, 34)" opacity="0.52229774" stroke="rgb(162, 125, 252)" stroke-opacity="1.0" stroke-linecap="round" stroke-linejoin="round" d="M 227.61654663085938 180.073486328125 C 230.96815490722656 191.22836303710938 189.81179809570312 162.67333984375 208.904296875 146.65870666503906 C 195.80686950683594 159.40573120117188 193.49183654785156 159.15660095214844 192.32833862304688 125.86334228515625 C 198.47906494140625 174.37725830078125 213.2513885498047 125.09954833984375 223.04367065429688 166.39498901367188 C 186.46453857421875 126.04352569580078 187.33349609375 165.42103576660156 227.61654663085938 180.073486328125"/>
    <path stroke-width="0" fill="rgb(48, 178, 35)" opacity="0.97187203" stroke="rgb(199, 73, 61)" stroke-opacity="1.0" stroke-linecap="round" stroke-linejoin="round" d="M 247.91143798828125 129.66102600097656 C 217.92477416992188 160.74118041992188 229.9774627685547 176.6219482421875 217.71218872070312 166.15176391601562 C 244.16787719726562 182.9324951171875 201.39749145507812 202.75941467285156 228.31356811523438 195.94070434570312 C 259.7641906738281 199.8265380859375 259.8310852050781 192.00482177734375 249.23309326171875 175.06214904785156 C 227.28236389160156 175.36012268066406 297.41131591796875 161.60604858398438 247.91143798828125 129.66102600097656"/>
    <path stroke-width="0" fill="rgb(47, 65, 101)" opacity="0.303088" stroke="rgb(62, 169, 131)" stroke-opacity="1.0" stroke-linecap="round" stroke-linejoin="round" d="M 166.744873046875 165.08016967773438 C 159.50515747070312 139.37486267089844 165.45550537109375 142.71604919433594 164.38893127441406 131.63780212402344 C 166.8357696533203 110.52359771728516 165.7291717529297 98.30416870117188 166.19210815429688 123.11136627197266 C 167.86260986328125 110.22962188720703 173.29530334472656 122.09152221679688 169.20687866210938 138.90350341796875 C 170.32455444335938 180.53074645996094 171.33795166015625 171.1536407470703 166.744873046875 165.08016967773438"/>
    <path stroke-width="0" fill="rgb(52, 139, 33)" opacity="0.46453333" stroke="rgb(141, 73, 180)" stroke-opacity="1.0" stroke-linecap="round" stroke-linejoin="round" d="M 244.43328857421875 175.0966339111328 C 245.6156005859375 130.96859741210938 227.93344116210938 165.2259063720703 213.51324462890625 172.94337463378906 C 231.31451416015625 160.56637573242188 217.00970458984375 141.03443908691406 208.33853149414062 155.82177734375 C 211.7421417236328 156.320556640625 227.65402221679688 160.8719024658203 227.0973358154297 176.78680419921875 C 219.56761169433594 172.8848419189453 217.76187133789062 179.11888122558594 244.43328857421875 175.0966339111328"/>
    <path stroke-width="0" fill="rgb(296, 241, 141)" opacity="0.97080386" stroke="rgb(59, 88, 207)" stroke-opacity="1.0" stroke-linecap="round" stroke-linejoin="round" d="M 240.92666625976562 154.52310180664062 C 230.08175659179688 164.21554565429688 247.6289825439453 144.6206817626953 231.04200744628906 83.91893005371094 C 205.54969787597656 134.625 194.5366668701172 157.08213806152344 205.67149353027344 108.78386688232422 C 231.1406707763672 120.97015380859375 191.90139770507812 97.5181884765625 194.65318298339844 142.30967712402344 C 215.0281524658203 181.91851806640625 240.84837341308594 174.45010375976562 240.92666625976562 154.52310180664062"/>
    <path stroke-width="0" fill="rgb(3, 57, 85)" opacity="1.0017587" stroke="rgb(247, 230, 75)" stroke-opacity="1.0" stroke-linecap="round" stroke-linejoin="round" d="M 520.441650390625 317.7584533691406 C 530.1004638671875 343.92352294921875 502.44219970703125 348.1446228027344 536.8849487304688 364.76727294921875 C 525.4398803710938 370.97332763671875 424.5648193359375 362.8717041015625 455.8891906738281 361.3028564453125 C 477.56842041015625 313.9020690917969 465.402099609375 319.4804382324219 462.3891296386719 302.2713317871094 C 545.4819946289062 298.50079345703125 596.4349365234375 278.2019348144531 520.441650390625 317.7584533691406"/>
    <path stroke-width="0" fill="rgb(1, 64, 87)" opacity="0.9964871" stroke="rgb(63, 27, 242)" stroke-opacity="1.0" stroke-linecap="round" stroke-linejoin="round" d="M 557.3231201171875 308.7122802734375 C 521.5855712890625 315.489013671875 489.0696105957031 323.8018493652344 565.9830932617188 315.5553283691406 C 480.7967834472656 288.8578186035156 446.8691101074219 315.8620300292969 462.0678405761719 300.0819396972656 C 477.4179382324219 286.8992004394531 485.0712890625 280.2100830078125 486.4263000488281 250.31118774414062 C 503.2523193359375 246.1854705810547 548.5888671875 241.1912078857422 557.3231201171875 308.7122802734375"/>
    <path stroke-width="0" fill="rgb(94, 136, 51)" opacity="0.49001563" stroke="rgb(175, 14, 186)" stroke-opacity="1.0" stroke-linecap="round" stroke-linejoin="round" d="M 478.78009033203125 136.22796630859375 C 476.5722961425781 108.21066284179688 477.4596252441406 164.00482177734375 476.16339111328125 154.82984924316406 C 478.7808837890625 130.96920776367188 443.1663513183594 162.82254028320312 473.8578186035156 132.44955444335938 C 473.0046691894531 128.8854522705078 460.5807189941406 150.64170837402344 463.0626220703125 153.20005798339844 C 461.60662841796875 153.5443115234375 473.71319580078125 139.8960418701172 478.78009033203125 136.22796630859375"/>
    <path stroke-width="0" fill="rgb(182, 264, 150)" opacity="0.97157854" stroke="rgb(69, 96, 95)" stroke-opacity="1.0" stroke-linecap="round" stroke-linejoin="round" d="M 218.9416961669922 128.13816833496094 C 215.9584197998047 167.9962921142578 221.0897216796875 168.8691864013672 240.1051483154297 166.73361206054688 C 245.7013397216797 170.84649658203125 208.55418395996094 176.43942260742188 219.8826904296875 164.003662109375 C 217.88961791992188 169.8386688232422 210.3903350830078 167.47315979003906 234.68841552734375 174.0720672607422 C 267.2182922363281 129.7802276611328 257.1072082519531 121.18479919433594 218.9416961669922 128.13816833496094"/>
    <path stroke-width="0" fill="rgb(32, 108, 114)" opacity="0.8755133" stroke="rgb(213, 60, 128)" stroke-opacity="1.0" stroke-linecap="round" stroke-linejoin="round" d="M 513.6284790039062 165.878662109375 C 463.6919860839844 161.25599670410156 457.6296691894531 187.9295654296875 463.2552795410156 167.18048095703125 C 379.5233154296875 199.36717224121094 338.87646484375 163.74124145507812 461.562255859375 161.21414184570312 C 490.65802001953125 167.1758270263672 476.4438781738281 149.5582275390625 409.2598571777344 -49.097530364990234 C 584.38525390625 7.016916275024414 455.5158996582031 67.1862564086914 513.6284790039062 165.878662109375"/>
    <path stroke-width="0" fill="rgb(58, 197, -47)" opacity="1.0598779" stroke="rgb(161, 221, 239)" stroke-opacity="1.0" stroke-linecap="round" stroke-linejoin="round" d="M 280.74462890625 154.6319122314453 C 288.0361022949219 212.17898559570312 215.3658905029297 218.2976531982422 202.8034210205078 200.0965576171875 C 261.2008056640625 163.6571807861328 193.976806640625 183.32998657226562 199.51507568359375 188.6514434814453 C 166.79763793945312 173.62562561035156 208.0706787109375 185.16177368164062 246.21295166015625 177.90769958496094 C 232.80470275878906 195.8116912841797 241.82138061523438 168.37705993652344 280.74462890625 154.6319122314453"/>
    <path stroke-width="0" fill="rgb(77, 177, 49)" opacity="0.8722319" stroke="rgb(18, 74, 38)" stroke-opacity="1.0" stroke-linecap="round" stroke-linejoin="round" d="M 467.2593078613281 145.40127563476562 C 435.9933166503906 168.40267944335938 414.22918701171875 164.7299346923828 461.36572265625 200.44740295410156 C 497.06048583984375 170.75428771972656 456.7228698730469 131.3376922607422 447.3739013671875 155.69117736816406 C 418.97723388671875 179.3155517578125 425.906494140625 113.93025207519531 461.8867492675781 119.2949447631836 C 453.785400390625 112.81504821777344 490.9996337890625 122.87858581542969 467.2593078613281 145.40127563476562"/>
    <path stroke-width="0" fill="rgb(97, 175, 72)" opacity="0.62986344" stroke="rgb(33, 154, 97)" stroke-opacity="1.0" stroke-linecap="round" stroke-linejoin="round" d="M 454.44110107421875 181.231689453125 C 475.2046813964844 191.75717163085938 468.3781433105469 186.51263427734375 465.8026123046875 178.0845947265625 C 434.9000549316406 186.80557250976562 447.27099609375 190.65121459960938 453.5986633300781 199.38198852539062 C 417.01031494140625 210.05975341796875 474.4533386230469 212.67762756347656 458.7588806152344 189.2509765625 C 456.28179931640625 194.9680633544922 444.9792175292969 171.8317108154297 454.44110107421875 181.231689453125"/>
    <path stroke-width="0" fill="rgb(101, 229, -73)" opacity="0.7439327" stroke="rgb(246, 139, 70)" stroke-opacity="1.0" stroke-linecap="round" stroke-linejoin="round" d="M 215.9669647216797 180.6239776611328 C 250.0219268798828 169.23867797851562 206.12193298339844 176.94581604003906 231.75341796875 181.53334045410156 C 223.0692901611328 193.41915893554688 219.27264404296875 176.0750732421875 176.5269775390625 144.05447387695312 C 183.68344116210938 235.10324096679688 271.4869689941406 193.3341827392578 234.71871948242188 184.48098754882812 C 208.02679443359375 179.6518096923828 221.49774169921875 174.1072235107422 215.9669647216797 180.6239776611328"/>
    <path stroke-width="0" fill="rgb(277, 240, 164)" opacity="0.8840452" stroke="rgb(228, 103, 140)" stroke-opacity="1.0" stroke-linecap="round" stroke-linejoin="round" d="M 260.56390380859375 151.9789581298828 C 245.42477416992188 195.4342803955078 191.07931518554688 180.38284301757812 195.58737182617188 132.93751525878906 C 199.42596435546875 152.4877471923828 198.75 143.5485076904297 201.8699951171875 136.48837280273438 C 196.17869567871094 172.5471954345703 220.23414611816406 126.85535430908203 218.43348693847656 110.8517074584961 C 211.7286376953125 57.449710845947266 263.5692138671875 91.7925033569336 260.56390380859375 151.9789581298828"/>
    <path stroke-width="0" fill="rgb(96, 184, 59)" opacity="0.8594416" stroke="rgb(85, 235, 219)" stroke-opacity="1.0" stroke-linecap="round" stroke-linejoin="round" d="M 455.83917236328125 173.44703674316406 C 515.374267578125 130.64700317382812 450.42242431640625 132.70855712890625 427.6240234375 164.7574462890625 C 423.49859619140625 198.87754821777344 477.10595703125 185.8625030517578 453.4286804199219 163.31822204589844 C 428.463134765625 191.1348876953125 458.9978942871094 177.87623596191406 438.1432189941406 165.01934814453125 C 506.3755187988281 176.96759033203125 459.37066650390625 158.0104522705078 455.83917236328125 173.44703674316406"/>
    <path stroke-width="0" fill="rgb(69, 196, 71)" opacity="0.29537246" stroke="rgb(64, 113, 26)" stroke-opacity="1.0" stroke-linecap="round" stroke-linejoin="round" d="M 459.98724365234375 203.56138610839844 C 374.6907958984375 198.65054321289062 437.7250671386719 227.73228454589844 469.09954833984375 178.62948608398438 C 483.0184631347656 200.58908081054688 434.1190490722656 199.1955108642578 428.36663818359375 204.45281982421875 C 414.20452880859375 183.1541748046875 430.3441162109375 167.23529052734375 443.64227294921875 180.24551391601562 C 434.49700927734375 203.707275390625 469.6804504394531 166.6876983642578 459.98724365234375 203.56138610839844"/>
    <path stroke-width="0" fill="rgb(148, 231, 155)" opacity="0.14477797" stroke="rgb(0, 0, 0)" stroke-opacity="0.0" stroke-linecap="round" stroke-linejoin="round" d="M 82.91552734375 7.516541481018066 C 79.36180114746094 21.9299373626709 80.84930419921875 23.801239013671875 80.74026489257812 18.22092628479004 C 59.83287811279297 12.695509910583496 60.2967643737793 13.968583106994629 63.34471893310547 18.55752944946289 C 62.810794830322266 11.555856704711914 58.8956298828125 16.73150634765625 63.576473236083984 -1.1818969249725342 C 81.09589385986328 -2.606458902359009 81.79515075683594 -0.3958047032356262 82.91552734375 7.516541481018066"/>
    <path stroke-width="0" fill="rgb(141, 176, 154)" opacity="-0.047078814" stroke="rgb(0, 0, 0)" stroke-opacity="0.0" stroke-linecap="round" stroke-linejoin="round" d="M 18.586061477661133 0.5804365277290344 C 19.794069290161133 9.861316680908203 21.165908813476562 11.816568374633789 25.485414505004883 8.298611640930176 C 25.168045043945312 7.087136268615723 24.62685203552246 -0.2398654669523239 20.420642852783203 -3.4630534648895264 C 11.943524360656738 -1.1893250942230225 13.392111778259277 -1.1810874938964844 18.356943130493164 -2.7302308082580566 C 20.67348289489746 -2.4090542793273926 19.086332321166992 -0.1977732628583908 18.586061477661133 0.5804365277290344"/>
    <path stroke-width="0" fill="rgb(98, 109, 121)" opacity="0.079469204" stroke="rgb(0, 0, 0)" stroke-opacity="0.0" stroke-linecap="round" stroke-linejoin="round" d="M 436.776123046875 1.6388317346572876 C 433.3463134765625 16.764873504638672 435.12957763671875 21.042430877685547 429.77703857421875 20.310697555541992 C 433.9373474121094 16.245201110839844 436.39691162109375 9.977076530456543 431.09417724609375 -2.288806438446045 C 421.3368225097656 -3.6539947986602783 425.60302734375 -3.2706074714660645 427.5550231933594 1.526811122894287 C 430.40252685546875 7.858739376068115 435.2401123046875 11.160881042480469 436.776123046875 1.6388317346572876"/>
    <path stroke-width="0" fill="rgb(100, 168, 168)" opacity="0.21556832" stroke="rgb(0, 0, 0)" stroke-opacity="0.0" stroke-linecap="round" stroke-linejoin="round" d="M 176.4897918701172 7.423664569854736 C 184.913330078125 13.983601570129395 176.5102081298828 11.626983642578125 178.40870666503906 7.767764568328857 C 180.2769317626953 3.3797152042388916 168.03005981445312 8.580729484558105 160.8403778076172 12.135393142700195 C 151.57620239257812 10.00973129272461 154.8640899658203 1.418622374534607 165.9427032470703 -2.2984907627105713 C 182.5824737548828 -7.384812355041504 181.89649963378906 -4.819021224975586 176.4897918701172 7.423664569854736"/>
    <path stroke-width="0" fill="rgb(130, 212, 141)" opacity="0.06759012" stroke="rgb(0, 0, 0)" stroke-opacity="0.0" stroke-linecap="round" stroke-linejoin="round" d="M 76.47671508789062 18.591970443725586 C 72.80449676513672 21.682554244995117 71.79064178466797 30.889976501464844 65.45468139648438 27.850635528564453 C 66.98310852050781 24.18571662902832 63.78667449951172 21.429092407226562 62.345542907714844 16.636436462402344 C 60.19993209838867 11.715729713439941 60.43654251098633 5.386664867401123 62.88250732421875 8.166974067687988 C 70.11583709716797 3.685720682144165 69.32618713378906 12.407133102416992 76.47671508789062 18.591970443725586"/>
    <path stroke-width="0" fill="rgb(43, 214, 144)" opacity="0.8580686" stroke="rgb(0, 0, 0)" stroke-opacity="0.0" stroke-linecap="round" stroke-linejoin="round" d="M 264.3004455566406 3.149780035018921 C 273.4634704589844 26.353939056396484 274.7027893066406 42.16054916381836 260.78521728515625 32.51975631713867 C 244.46876525878906 19.351709365844727 241.25033569335938 13.563017845153809 247.58966064453125 7.728307723999023 C 262.50274658203125 4.2844014167785645 255.2400360107422 -10.47481632232666 243.85247802734375 -0.45941635966300964 C 249.66551208496094 14.817251205444336 252.34552001953125 10.786478996276855 264.3004455566406 3.149780035018921"/>
    <path stroke-width="0" fill="rgb(139, 49, 187)" opacity="0.11998685" stroke="rgb(0, 0, 0)" stroke-opacity="0.0" stroke-linecap="round" stroke-linejoin="round" d="M 229.30494689941406 27.821786880493164 C 243.42832946777344 24.753498077392578 241.64608764648438 29.994709014892578 233.17755126953125 26.09261703491211 C 236.98599243164062 26.981380462646484 233.86009216308594 27.248619079589844 210.43450927734375 27.7727108001709 C 209.92884826660156 23.585893630981445 222.52359008789062 15.354670524597168 228.94813537597656 18.708641052246094 C 233.7173614501953 20.834375381469727 229.05177307128906 32.4703369140625 229.30494689941406 27.821786880493164"/>
    <path stroke-width="0" fill="rgb(79, 112, 58)" opacity="0.0822163" stroke="rgb(0, 0, 0)" stroke-opacity="0.0" stroke-linecap="round" stroke-linejoin="round" d="M 467.0181884765625 245.7769775390625 C 472.7946472167969 253.21983337402344 475.1663513183594 251.648681640625 481.8539123535156 252.9999237060547 C 472.7612609863281 245.963134765625 472.4729919433594 248.08326721191406 471.31787109375 250.0870819091797 C 477.71221923828125 238.26406860351562 482.7799072265625 233.21810913085938 476.08740234375 242.79998779296875 C 478.37884521484375 238.1711883544922 477.2345275878906 242.37164306640625 467.0181884765625 245.7769775390625"/>
    <path stroke-width="0" fill="rgb(215, 138, 145)" opacity="0.04125385" stroke="rgb(0, 0, 0)" stroke-opacity="0.0" stroke-linecap="round" stroke-linejoin="round" d="M 283.13226318359375 300.1452941894531 C 289.2468566894531 315.1324157714844 288.7818603515625 318.97247314453125 274.9214172363281 311.13262939453125 C 272.4107971191406 316.1301574707031 269.1976623535156 312.2444763183594 269.9736328125 297.155029296875 C 272.2911376953125 289.97467041015625 267.1695861816406 292.1479797363281 275.5679626464844 296.8082275390625 C 275.17254638671875 293.7995300292969 280.8304138183594 298.1317443847656 283.13226318359375 300.1452941894531"/>
    <path stroke-width="0" fill="rgb(96, 160, 175)" opacity="0.006260995" stroke="rgb(0, 0, 0)" stroke-opacity="0.0" stroke-linecap="round" stroke-linejoin="round" d="M 122.57786560058594 85.78988647460938 C 125.75901794433594 93.73290252685547 128.24093627929688 95.1922607421875 120.8564224243164 94.072021484375 C 113.39111328125 93.15455627441406 123.67414855957031 91.47676086425781 123.50831604003906 89.5707778930664 C 112.51048278808594 82.23546600341797 115.24763488769531 83.77236938476562 125.27254486083984 90.89720153808594 C 125.07453918457031 74.5267562866211 124.05526733398438 76.0425033569336 122.57786560058594 85.78988647460938"/>
    <path stroke-width="0" fill="rgb(107, 214, 118)" opacity="0.06503691" stroke="rgb(0, 0, 0)" stroke-opacity="0.0" stroke-linecap="round" stroke-linejoin="round" d="M 12.047735214233398 11.762555122375488 C 11.506434440612793 14.303121566772461 2.7464091777801514 11.559255599975586 6.130836009979248 11.102803230285645 C 5.32058572769165 13.130166053771973 2.9265666007995605 12.157434463500977 5.407595634460449 13.937080383300781 C 1.2121686935424805 10.084918022155762 0.3729703426361084 5.455840110778809 8.943115234375 9.459077835083008 C 1.6574187278747559 14.210336685180664 7.454423904418945 14.234167098999023 12.047735214233398 11.762555122375488"/>
    <path stroke-width="0" fill="rgb(116, 56, 205)" opacity="0.029729681" stroke="rgb(0, 0, 0)" stroke-opacity="0.0" stroke-linecap="round" stroke-linejoin="round" d="M 424.7160339355469 111.55374908447266 C 429.8730773925781 109.31807708740234 426.8841552734375 112.7380599975586 426.5967712402344 112.74323272705078 C 425.07061767578125 108.78802490234375 421.1330261230469 106.8409194946289 416.4903259277344 107.98133087158203 C 422.71136474609375 112.7075424194336 424.7243957519531 109.31672668457031 424.0154724121094 107.91482543945312 C 424.5450439453125 108.88898468017578 420.14910888671875 116.14205169677734 424.7160339355469 111.55374908447266"/>
    <path stroke-width="0" fill="rgb(144, 136, 34)" opacity="0.67156833" stroke="rgb(0, 0, 0)" stroke-opacity="0.0" stroke-linecap="round" stroke-linejoin="round" d="M -65.47331237792969 73.55612182617188 C -66.54511260986328 77.55612182617188 -69.47331237792969 80.48432922363281 -73.47331237792969 81.55612182617188 C -77.47331237792969 80.48432922363281 -80.4015121459961 77.55612182617188 -81.47331237792969 73.55612182617188 C -80.4015121459961 69.55612182617188 -77.47331237792969 66.62792205810547 -73.47331237792969 65.55612182617188 C -69.47331237792969 66.62792205810547 -66.54511260986328 69.55612182617188 -65.47331237792969 73.55612182617188"/>
    <path stroke-width="0" fill="rgb(169, 59, 61)" opacity="-0.008199987" stroke="rgb(0, 0, 0)" stroke-opacity="0.0" stroke-linecap="round" stroke-linejoin="round" d="M 426.4787902832031 28.6169376373291 C 429.0309753417969 35.264461517333984 430.77655029296875 39.531455993652344 435.3918762207031 40.95346450805664 C 435.1134033203125 35.017024993896484 428.539306640625 34.280155181884766 428.9114990234375 34.46763229370117 C 432.1445007324219 36.00754165649414 435.9706115722656 32.333984375 435.5781555175781 21.225542068481445 C 429.1275939941406 24.272470474243164 429.8688659667969 27.86574363708496 426.4787902832031 28.6169376373291"/>
    <path stroke-width="0" fill="rgb(153, 1, 121)" opacity="-0.0023106853" stroke="rgb(0, 0, 0)" stroke-opacity="0.0" stroke-linecap="round" stroke-linejoin="round" d="M 309.6572570800781 185.3272705078125 C 304.4129638671875 182.2226104736328 309.2362060546875 185.80633544921875 305.74273681640625 178.7183380126953 C 296.97314453125 183.896240234375 290.83148193359375 180.5647430419922 288.1473388671875 180.49185180664062 C 283.5834045410156 174.03053283691406 279.3829650878906 171.6994171142578 287.50054931640625 173.7164764404297 C 290.4248352050781 182.22470092773438 299.69158935546875 184.39024353027344 309.6572570800781 185.3272705078125"/>
    <path stroke-width="0" fill="rgb(63, 105, 113)" opacity="-0.031460926" stroke="rgb(0, 0, 0)" stroke-opacity="0.0" stroke-linecap="round" stroke-linejoin="round" d="M 430.5975341796875 81.50739288330078 C 426.7200012207031 81.0815200805664 429.665283203125 84.31718444824219 433.0391845703125 98.90654754638672 C 428.55029296875 90.3082046508789 431.6636657714844 82.42403411865234 431.3080749511719 86.79339599609375 C 428.947021484375 82.15821838378906 427.2431335449219 76.3331298828125 431.4646911621094 85.55323028564453 C 431.697021484375 79.52372741699219 430.7891845703125 82.01160430908203 430.5975341796875 81.50739288330078"/>
    <path stroke-width="0" fill="rgb(244, 116, 17)" opacity="0.081574306" stroke="rgb(0, 0, 0)" stroke-opacity="0.0" stroke-linecap="round" stroke-linejoin="round" d="M 244.06459045410156 270.56097412109375 C 246.18431091308594 273.85247802734375 253.85220336914062 275.8844909667969 246.9034881591797 283.85662841796875 C 243.0145721435547 282.6552734375 244.2860870361328 273.35394287109375 237.7806854248047 268.9988708496094 C 234.3663787841797 269.0812072753906 248.52590942382812 269.6871337890625 243.88079833984375 270.514892578125 C 242.84437561035156 272.2667541503906 247.2995147705078 271.3448791503906 244.06459045410156 270.56097412109375"/>
    <path stroke-width="0" fill="rgb(29, 74, 177)" opacity="0.33277684" stroke="rgb(0, 0, 0)" stroke-opacity="0.0" stroke-linecap="round" stroke-linejoin="round" d="M -16.759288787841797 0.30070480704307556 C -17.831087112426758 4.3007049560546875 -20.759288787841797 7.228908061981201 -24.759288787841797 8.300704956054688 C -28.759288787841797 7.228908061981201 -31.68749237060547 4.3007049560546875 -32.7592887878418 0.30070480704307556 C -31.68749237060547 -3.6992952823638916 -28.759288787841797 -6.627498626708984 -24.759288787841797 -7.6992950439453125 C -20.759288787841797 -6.627498626708984 -17.831087112426758 -3.6992952823638916 -16.759288787841797 0.30070480704307556"/>
    <path stroke-width="0" fill="rgb(153, 151, 54)" opacity="0.109326944" stroke="rgb(0, 0, 0)" stroke-opacity="0.0" stroke-linecap="round" stroke-linejoin="round" d="M 332.58782958984375 397.4335021972656 C 331.5141296386719 405.7823181152344 331.5063171386719 415.0528869628906 323.4577331542969 417.71673583984375 C 326.612060546875 406.8633728027344 322.4143371582031 406.8496398925781 334.1435852050781 391.4427185058594 C 338.32159423828125 379.5018005371094 323.06793212890625 388.4638671875 324.5950927734375 399.6337890625 C 328.04522705078125 399.9339904785156 331.28619384765625 398.2513732910156 332.58782958984375 397.4335021972656"/>
  </g>
</svg>
