<?xml version="1.0" ?>
<svg xmlns="http://www.w3.org/2000/svg" version="1.1" width="512" height="512">
  <defs/>
  <g>
    <path stroke-width="0" fill="rgb(0, 249, 20)" opacity="1.0896455" stroke="rgb(139, 182, 153)" stroke-opacity="1.0" stroke-linecap="round" stroke-linejoin="round" d="M 213.78103637695312 167.65167236328125 C 86.18248748779297 67.23030853271484 143.57225036621094 166.39254760742188 -9.577240943908691 311.62933349609375 C -50.3801383972168 273.6077880859375 -32.1273078918457 244.37002563476562 2.252875566482544 199.14431762695312 C 58.14094543457031 83.50920104980469 61.6201057434082 73.90444946289062 74.24993896484375 109.57620239257812 C 270.54205322265625 192.1935272216797 146.05018615722656 49.432395935058594 213.78103637695312 167.65167236328125"/>
    <path stroke-width="0" fill="rgb(204, 235, 204)" opacity="0.61265105" stroke="rgb(108, 164, 111)" stroke-opacity="1.0" stroke-linecap="round" stroke-linejoin="round" d="M 139.3701629638672 -37.88785934448242 C 87.26654815673828 150.62705993652344 121.1700439453125 224.62225341796875 -2.2312448024749756 265.1914978027344 C -46.547916412353516 225.74099731445312 -45.62079620361328 209.98471069335938 -47.316612243652344 66.32988739013672 C -49.11305618286133 -8.18151569366455 -55.94807434082031 -28.422311782836914 15.614151954650879 -48.40176773071289 C 199.6168670654297 -48.19676208496094 200.75816345214844 -41.44858932495117 139.3701629638672 -37.88785934448242"/>
    <path stroke-width="0" fill="rgb(167, 207, 58)" opacity="0.5693504" stroke="rgb(245, 97, 201)" stroke-opacity="1.0" stroke-linecap="round" stroke-linejoin="round" d="M 563.8391723632812 -46.56962203979492 C 586.0159912109375 497.6336975097656 588.2413940429688 535.3872680664062 542.0729370117188 495.4804992675781 C -102.79269409179688 495.7008361816406 -88.81507873535156 496.3266296386719 -85.45843505859375 477.5484313964844 C 85.60438537597656 149.05995178222656 151.63624572753906 157.19427490234375 338.4071350097656 -46.54045486450195 C 391.4353942871094 -64.82481384277344 407.0115051269531 -154.88951110839844 563.8391723632812 -46.56962203979492"/>
    <path stroke-width="0" fill="rgb(4, 87, 85)" opacity="0.8033076" stroke="rgb(144, 236, 18)" stroke-opacity="1.0" stroke-linecap="round" stroke-linejoin="round" d="M 279.1645202636719 23.3533992767334 C 57.09914016723633 234.4000244140625 199.69227600097656 65.0195083618164 513.9339599609375 372.2524719238281 C 138.64060974121094 531.3262329101562 -182.6674041748047 506.9906005859375 -295.56005859375 355.2585144042969 C 33.34192657470703 3.5718820095062256 14.218827247619629 -23.42427635192871 239.5041961669922 -43.35321044921875 C 283.33538818359375 -42.62836837768555 302.49932861328125 -43.37087631225586 279.1645202636719 23.3533992767334"/>
    <path stroke-width="0" fill="rgb(219, 104, 88)" opacity="0.8722437" stroke="rgb(5, 212, 198)" stroke-opacity="1.0" stroke-linecap="round" stroke-linejoin="round" d="M 258.3491516113281 315.135498046875 C 285.2234191894531 286.4809265136719 274.2394714355469 292.29986572265625 217.40635681152344 339.87457275390625 C 205.20883178710938 340.5145263671875 199.82012939453125 332.4122314453125 199.61907958984375 288.5409240722656 C 252.5234832763672 277.0268249511719 283.4689636230469 286.2613830566406 291.8647155761719 290.5889587402344 C 238.07920837402344 293.3581848144531 249.38986206054688 304.8304443359375 258.3491516113281 315.135498046875"/>
    <path stroke-width="0" fill="rgb(225, 146, 49)" opacity="1.0155325" stroke="rgb(249, 203, 117)" stroke-opacity="1.0" stroke-linecap="round" stroke-linejoin="round" d="M 339.89178466796875 470.0251159667969 C 355.1564025878906 501.5182800292969 282.0948486328125 450.6820373535156 156.29217529296875 455.49334716796875 C 120.97711181640625 433.1422119140625 133.77857971191406 456.2696533203125 110.91549682617188 338.4810485839844 C 110.83708953857422 314.962646484375 174.66607666015625 331.9518127441406 239.86399841308594 373.2160949707031 C 245.6069793701172 285.9864501953125 328.427490234375 254.0751495361328 339.89178466796875 470.0251159667969"/>
    <path stroke-width="0" fill="rgb(235, 106, 87)" opacity="1.0062907" stroke="rgb(30, 163, 36)" stroke-opacity="1.0" stroke-linecap="round" stroke-linejoin="round" d="M 378.2093811035156 345.75579833984375 C 352.1583557128906 462.6604919433594 361.29913330078125 464.12213134765625 329.5859375 440.3324279785156 C 234.64419555664062 443.5245666503906 180.76304626464844 442.74267578125 147.53994750976562 439.3136291503906 C 106.44519805908203 221.28956604003906 120.41636657714844 364.45977783203125 296.756591796875 329.9070739746094 C 346.6998291015625 344.871826171875 367.8625793457031 318.30877685546875 378.2093811035156 345.75579833984375"/>
    <path stroke-width="0" fill="rgb(222, 125, 94)" opacity="0.88521415" stroke="rgb(133, 105, 67)" stroke-opacity="1.0" stroke-linecap="round" stroke-linejoin="round" d="M 297.3560485839844 283.7779235839844 C 306.4686279296875 286.1970520019531 291.85186767578125 293.1255798339844 296.0606384277344 299.27203369140625 C 255.37562561035156 289.1815185546875 254.14341735839844 289.8641052246094 292.4921569824219 304.3818359375 C 305.80438232421875 300.4283447265625 317.6866149902344 291.3109436035156 260.42449951171875 290.195556640625 C 250.26681518554688 301.35552978515625 274.542724609375 296.7541809082031 297.3560485839844 283.7779235839844"/>
    <path stroke-width="0" fill="rgb(70, 173, 141)" opacity="1.0222912" stroke="rgb(116, 144, 4)" stroke-opacity="1.0" stroke-linecap="round" stroke-linejoin="round" d="M 262.3177795410156 290.1496276855469 C 266.22900390625 331.35589599609375 259.305908203125 320.0782775878906 209.88970947265625 330.85784912109375 C 92.08390045166016 354.73583984375 142.56248474121094 292.81463623046875 164.32272338867188 307.8511657714844 C 162.6156005859375 257.9955139160156 143.4532012939453 276.927490234375 279.3531188964844 280.1017761230469 C 234.29971313476562 291.62957763671875 263.523193359375 281.5802307128906 262.3177795410156 290.1496276855469"/>
    <path stroke-width="0" fill="rgb(203, 59, 75)" opacity="0.47233748" stroke="rgb(156, 157, 240)" stroke-opacity="1.0" stroke-linecap="round" stroke-linejoin="round" d="M 319.040771484375 370.4762878417969 C 289.2958068847656 369.37359619140625 326.1111755371094 351.8549499511719 265.87957763671875 358.41217041015625 C 212.7871856689453 360.0260314941406 199.2550048828125 361.0014953613281 167.2025909423828 380.1231384277344 C 168.82972717285156 264.885986328125 175.443603515625 283.6531982421875 372.1923828125 268.99072265625 C 296.69744873046875 317.4667663574219 323.9815979003906 213.9596405029297 319.040771484375 370.4762878417969"/>
    <path stroke-width="0" fill="rgb(74, 101, 154)" opacity="0.57455367" stroke="rgb(91, 111, 177)" stroke-opacity="1.0" stroke-linecap="round" stroke-linejoin="round" d="M 284.97698974609375 331.53558349609375 C 343.0106201171875 284.78240966796875 346.7822265625 357.5940856933594 313.2763671875 325.63067626953125 C 287.9344177246094 406.70965576171875 245.98135375976562 377.9034423828125 244.80445861816406 305.8044128417969 C 226.005126953125 272.0487365722656 228.72540283203125 278.69647216796875 323.23309326171875 271.84552001953125 C 305.78961181640625 257.1634521484375 336.9773864746094 313.62420654296875 284.97698974609375 331.53558349609375"/>
    <path stroke-width="0" fill="rgb(261, 99, 71)" opacity="1.0130702" stroke="rgb(170, 171, 53)" stroke-opacity="1.0" stroke-linecap="round" stroke-linejoin="round" d="M 335.16156005859375 403.0955810546875 C 335.84173583984375 421.7264709472656 334.2032775878906 418.08203125 222.3920135498047 417.39019775390625 C 81.14120483398438 418.7687072753906 193.6417999267578 425.37457275390625 154.8015594482422 286.32073974609375 C 158.25894165039062 261.03424072265625 119.58460998535156 260.89178466796875 298.718017578125 257.7967224121094 C 361.2635192871094 263.21307373046875 290.8188171386719 324.0115051269531 335.16156005859375 403.0955810546875"/>
    <path stroke-width="0" fill="rgb(4, 30, 14)" opacity="0.9081385" stroke="rgb(80, 92, 145)" stroke-opacity="1.0" stroke-linecap="round" stroke-linejoin="round" d="M 499.9720458984375 -51.103057861328125 C 597.3587036132812 320.5880432128906 522.8511962890625 348.61517333984375 440.5477600097656 404.6180725097656 C 442.5635070800781 386.8408203125 471.9486083984375 392.7542724609375 466.4923400878906 335.0830078125 C 475.1949157714844 229.2786102294922 505.4493103027344 257.9224548339844 396.3276062011719 244.982666015625 C 507.0577392578125 119.1317367553711 433.6971130371094 26.235124588012695 499.9720458984375 -51.103057861328125"/>
    <path stroke-width="0" fill="rgb(61, 60, 138)" opacity="0.9949217" stroke="rgb(252, 26, 53)" stroke-opacity="1.0" stroke-linecap="round" stroke-linejoin="round" d="M 531.8582153320312 401.2881774902344 C 510.59765625 466.0450134277344 495.34710693359375 465.9202880859375 480.37469482421875 457.4113464355469 C 445.3108215332031 524.3250732421875 444.1853942871094 407.6986999511719 452.054443359375 450.5745544433594 C 415.48388671875 444.9533996582031 428.3629150390625 413.7078552246094 427.7111511230469 364.5814514160156 C 482.046142578125 377.9070129394531 495.21026611328125 381.8232421875 531.8582153320312 401.2881774902344"/>
    <path stroke-width="0" fill="rgb(0, 29, 74)" opacity="0.9921715" stroke="rgb(166, 64, 118)" stroke-opacity="1.0" stroke-linecap="round" stroke-linejoin="round" d="M 536.618408203125 496.50018310546875 C 555.357666015625 496.47845458984375 533.3294677734375 486.1575622558594 446.2502136230469 478.74603271484375 C 414.4178466796875 478.3163146972656 386.614013671875 488.8767395019531 411.2721252441406 483.2179260253906 C 430.38232421875 371.940185546875 437.1349182128906 264.7673034667969 450.22210693359375 343.7531433105469 C 464.34716796875 450.3985595703125 523.5352172851562 395.873046875 536.618408203125 496.50018310546875"/>
    <path stroke-width="0" fill="rgb(286, 227, 118)" opacity="0.67152876" stroke="rgb(40, 28, 167)" stroke-opacity="1.0" stroke-linecap="round" stroke-linejoin="round" d="M 395.75213623046875 482.4641418457031 C 641.9725952148438 441.06390380859375 633.1463012695312 688.68212890625 -99.04610443115234 485.38140869140625 C 433.8335266113281 463.45098876953125 450.9319763183594 499.3959045410156 330.7127685546875 444.0822448730469 C 335.1013488769531 407.1462097167969 354.9261474609375 323.8915100097656 348.2376708984375 330.182373046875 C 404.027099609375 343.40716552734375 373.96978759765625 298.32537841796875 395.75213623046875 482.4641418457031"/>
    <path stroke-width="0" fill="rgb(52, 10, 33)" opacity="0.97046494" stroke="rgb(50, 94, 209)" stroke-opacity="1.0" stroke-linecap="round" stroke-linejoin="round" d="M 295.4882507324219 213.10775756835938 C 225.4714813232422 193.5111541748047 357.92657470703125 231.76414489746094 254.40480041503906 201.08131408691406 C 21.962066650390625 228.99461364746094 323.99993896484375 -151.14682006835938 175.6657257080078 155.06829833984375 C 366.8110656738281 229.30325317382812 180.63418579101562 21.59916877746582 239.81344604492188 24.73542022705078 C 328.3682556152344 107.09013366699219 314.5140075683594 182.94293212890625 295.4882507324219 213.10775756835938"/>
    <path stroke-width="0" fill="rgb(91, 196, -41)" opacity="0.95451313" stroke="rgb(213, 24, 248)" stroke-opacity="1.0" stroke-linecap="round" stroke-linejoin="round" d="M 271.46905517578125 199.3822784423828 C 288.0967712402344 207.23985290527344 311.7156677246094 217.80606079101562 168.30828857421875 154.03106689453125 C 225.0620574951172 278.58355712890625 305.12420654296875 97.41765594482422 220.55613708496094 71.10794067382812 C 125.8997802734375 308.22125244140625 179.48301696777344 -36.156253814697266 255.8451690673828 47.58591079711914 C 343.5204162597656 216.8858642578125 212.07723999023438 177.1934814453125 271.46905517578125 199.3822784423828"/>
    <path stroke-width="0" fill="rgb(233, 127, 110)" opacity="0.6753644" stroke="rgb(249, 154, 188)" stroke-opacity="1.0" stroke-linecap="round" stroke-linejoin="round" d="M 322.3446960449219 348.2964782714844 C 334.9363708496094 472.1180725097656 364.3702697753906 228.95315551757812 326.8360290527344 392.9602355957031 C 57.33463668823242 387.8609924316406 193.08261108398438 405.8509216308594 143.6052703857422 347.0859375 C 216.72616577148438 357.09002685546875 293.601318359375 341.3879699707031 222.54580688476562 359.1361083984375 C 272.1923522949219 351.3858642578125 237.13645935058594 349.3748474121094 322.3446960449219 348.2964782714844"/>
    <path stroke-width="0" fill="rgb(213, 181, 73)" opacity="0.97090757" stroke="rgb(72, 30, 75)" stroke-opacity="1.0" stroke-linecap="round" stroke-linejoin="round" d="M 550.1281127929688 396.0364074707031 C 527.6184692382812 422.9534912109375 486.46923828125 425.3305969238281 438.0438232421875 356.2817687988281 C 429.32781982421875 472.1462707519531 397.504638671875 607.1988525390625 423.86322021484375 342.4118957519531 C 380.10272216796875 353.2091064453125 414.5005798339844 225.26133728027344 427.4066467285156 295.7994384765625 C 525.9270629882812 326.01031494140625 547.1563720703125 273.3119201660156 550.1281127929688 396.0364074707031"/>
    <path stroke-width="0" fill="rgb(227, 173, 54)" opacity="0.2788237" stroke="rgb(81, 105, 16)" stroke-opacity="1.0" stroke-linecap="round" stroke-linejoin="round" d="M 550.2404174804688 296.15631103515625 C 480.996826171875 389.37774658203125 444.6195068359375 422.1670837402344 421.2436218261719 313.959716796875 C 439.1120300292969 502.805908203125 399.652587890625 593.9671630859375 437.6324768066406 351.3722229003906 C 416.260498046875 273.7947692871094 430.51171875 317.3976135253906 516.2825927734375 302.91302490234375 C 518.238037109375 275.54443359375 530.0408325195312 279.0945129394531 550.2404174804688 296.15631103515625"/>
    <path stroke-width="0" fill="rgb(121, 174, 10)" opacity="0.65784895" stroke="rgb(144, 67, 133)" stroke-opacity="1.0" stroke-linecap="round" stroke-linejoin="round" d="M 465.6517028808594 258.2962951660156 C 481.7422790527344 83.73663330078125 490.07940673828125 184.196044921875 421.250732421875 134.38458251953125 C 434.1333923339844 126.81938934326172 459.5387268066406 154.41896057128906 435.7308044433594 110.944580078125 C 438.5639343261719 122.37200164794922 466.05242919921875 161.67861938476562 448.4085998535156 146.69947814941406 C 409.43804931640625 40.72640609741211 506.3273010253906 154.3861846923828 465.6517028808594 258.2962951660156"/>
    <path stroke-width="0" fill="rgb(1, 39, 82)" opacity="0.92162883" stroke="rgb(146, 236, 81)" stroke-opacity="1.0" stroke-linecap="round" stroke-linejoin="round" d="M 555.8108520507812 483.65582275390625 C 553.0545654296875 506.82989501953125 547.32421875 512.4262084960938 529.1190185546875 484.1544494628906 C 478.9365539550781 503.3132019042969 486.69775390625 383.4917907714844 433.1770935058594 424.14471435546875 C 446.821044921875 388.7421875 435.37548828125 390.2652893066406 472.69036865234375 390.00115966796875 C 518.9137573242188 395.03338623046875 548.8545532226562 376.0064392089844 555.8108520507812 483.65582275390625"/>
    <path stroke-width="0" fill="rgb(-11, 131, 57)" opacity="0.41571787" stroke="rgb(33, 182, 73)" stroke-opacity="1.0" stroke-linecap="round" stroke-linejoin="round" d="M 598.21728515625 3.384457588195801 C 594.1015625 300.241943359375 558.2255249023438 293.5010986328125 459.9274597167969 320.0435791015625 C 391.74224853515625 301.42132568359375 417.9139404296875 311.3605041503906 404.68621826171875 308.37652587890625 C 308.7566833496094 409.5592956542969 302.2906188964844 77.17254638671875 229.39793395996094 -39.47575378417969 C 616.9965209960938 -80.57600402832031 610.6663208007812 -56.13962936401367 598.21728515625 3.384457588195801"/>
    <path stroke-width="0" fill="rgb(257, 244, 132)" opacity="0.9335468" stroke="rgb(149, 5, 211)" stroke-opacity="1.0" stroke-linecap="round" stroke-linejoin="round" d="M 456.9384460449219 375.3922424316406 C 442.6112060546875 349.04766845703125 431.24853515625 359.85443115234375 483.4620056152344 374.5973205566406 C 387.2174987792969 347.72528076171875 441.8665771484375 284.40985107421875 376.6048278808594 544.0269165039062 C 417.7525634765625 240.43760681152344 413.875732421875 321.8384704589844 499.47796630859375 311.4974365234375 C 408.6719970703125 386.1674499511719 430.26934814453125 347.54412841796875 456.9384460449219 375.3922424316406"/>
    <path stroke-width="0" fill="rgb(26, 78, 92)" opacity="1.03506" stroke="rgb(172, 68, 187)" stroke-opacity="1.0" stroke-linecap="round" stroke-linejoin="round" d="M 379.99859619140625 154.09750366210938 C 359.30609130859375 607.2637939453125 320.5255432128906 359.80023193359375 329.94244384765625 483.7194519042969 C 283.7614440917969 475.74346923828125 300.2784729003906 495.371826171875 282.69830322265625 453.7240905761719 C 320.7093200683594 459.27337646484375 303.32305908203125 445.5018005371094 319.04840087890625 484.02728271484375 C 393.7048645019531 464.2255859375 405.9183654785156 578.386474609375 379.99859619140625 154.09750366210938"/>
    <path stroke-width="0" fill="rgb(9, 53, 70)" opacity="1.0050062" stroke="rgb(63, 146, 150)" stroke-opacity="1.0" stroke-linecap="round" stroke-linejoin="round" d="M 524.2359008789062 418.1731262207031 C 497.8982238769531 404.2864990234375 487.4519348144531 433.621826171875 500.84356689453125 455.08258056640625 C 479.4447021484375 412.2978210449219 419.1951599121094 450.03790283203125 437.1145935058594 359.8262023925781 C 443.361083984375 359.87921142578125 430.0478515625 357.7657775878906 503.3469543457031 358.7226257324219 C 500.29693603515625 351.95867919921875 522.6414184570312 364.0506286621094 524.2359008789062 418.1731262207031"/>
    <path stroke-width="0" fill="rgb(16, 50, 77)" opacity="0.31177473" stroke="rgb(56, 242, 114)" stroke-opacity="1.0" stroke-linecap="round" stroke-linejoin="round" d="M 514.5391235351562 445.03729248046875 C 548.53759765625 457.5411682128906 548.2296752929688 462.8915710449219 548.7003173828125 445.12640380859375 C 490.0523986816406 405.1445007324219 460.5157470703125 396.46429443359375 436.5693054199219 373.80133056640625 C 438.8506164550781 352.7775573730469 438.78045654296875 377.2696533203125 435.8621520996094 449.9153747558594 C 455.5955810546875 377.4819030761719 475.50531005859375 411.43035888671875 514.5391235351562 445.03729248046875"/>
    <path stroke-width="0" fill="rgb(116, 136, 168)" opacity="0.7181009" stroke="rgb(178, 75, 207)" stroke-opacity="1.0" stroke-linecap="round" stroke-linejoin="round" d="M 144.30284118652344 57.69237518310547 C 183.4987335205078 167.39219665527344 131.33570861816406 189.28868103027344 92.96724700927734 113.5511703491211 C 79.19439697265625 101.8051986694336 74.61859130859375 95.65938568115234 73.09137725830078 80.8180160522461 C 110.01323699951172 49.11140060424805 87.2206039428711 66.68085479736328 112.08074951171875 29.527446746826172 C 136.39926147460938 49.18181610107422 153.62095642089844 62.019100189208984 144.30284118652344 57.69237518310547"/>
    <path stroke-width="0" fill="rgb(5, 29, 76)" opacity="0.97315884" stroke="rgb(224, 148, 224)" stroke-opacity="1.0" stroke-linecap="round" stroke-linejoin="round" d="M 270.52716064453125 437.92156982421875 C 270.30938720703125 456.5422058105469 278.0310363769531 464.3940124511719 278.40411376953125 478.56494140625 C 162.84275817871094 476.90557861328125 197.4733428955078 476.9195861816406 201.34593200683594 455.756591796875 C 184.44415283203125 455.17718505859375 297.95654296875 458.6659851074219 269.2616882324219 454.14447021484375 C 278.32147216796875 451.3165283203125 267.32989501953125 460.50091552734375 270.52716064453125 437.92156982421875"/>
    <path stroke-width="0" fill="rgb(122, 153, 144)" opacity="0.89602286" stroke="rgb(184, 127, 243)" stroke-opacity="1.0" stroke-linecap="round" stroke-linejoin="round" d="M 141.99058532714844 28.698406219482422 C 140.60504150390625 37.38227462768555 133.56173706054688 45.06292724609375 122.57195281982422 50.61226272583008 C 65.20675659179688 47.721923828125 59.02211380004883 39.249385833740234 57.171268463134766 25.0687198638916 C 82.00144958496094 -6.671672821044922 89.33208465576172 -13.970821380615234 99.69829559326172 -16.315689086914062 C 108.23765563964844 -11.988337516784668 112.81578063964844 -2.4475958347320557 141.99058532714844 28.698406219482422"/>
    <path stroke-width="0" fill="rgb(177, 178, 182)" opacity="1.1323669" stroke="rgb(108, 154, 4)" stroke-opacity="1.0" stroke-linecap="round" stroke-linejoin="round" d="M 80.17760467529297 5.454099178314209 C 75.72944641113281 16.43157958984375 68.37918090820312 23.68445587158203 58.90935134887695 25.683256149291992 C 50.429107666015625 24.785572052001953 42.85345458984375 17.707040786743164 38.296302795410156 7.482781410217285 C 40.188926696777344 -3.0753698348999023 48.40599060058594 -10.022664070129395 59.88874435424805 -12.187823295593262 C 70.68966674804688 -9.720520973205566 78.62614440917969 -2.730721950531006 80.17760467529297 5.454099178314209"/>
    <path stroke-width="0" fill="rgb(152, 163, 167)" opacity="0.81844044" stroke="rgb(168, 73, 157)" stroke-opacity="1.0" stroke-linecap="round" stroke-linejoin="round" d="M 73.11225128173828 16.743806838989258 C 69.50729370117188 26.54494857788086 62.6348762512207 34.02414321899414 47.83031463623047 45.03890609741211 C 21.272693634033203 47.94562530517578 12.001195907592773 48.529541015625 44.373313903808594 38.49190139770508 C 62.19660949707031 21.76243782043457 59.63473129272461 18.721078872680664 34.68427276611328 -17.56987762451172 C 60.207759857177734 0.4516430199146271 67.5655746459961 7.681290149688721 73.11225128173828 16.743806838989258"/>
    <path stroke-width="0" fill="rgb(20, 134, 87)" opacity="0.63641995" stroke="rgb(34, 76, 145)" stroke-opacity="1.0" stroke-linecap="round" stroke-linejoin="round" d="M 222.69317626953125 14.39633560180664 C 170.24623107910156 92.40924072265625 140.73342895507812 87.38170623779297 119.09093475341797 108.8036117553711 C 84.41429138183594 111.59756469726562 79.78900909423828 104.84901428222656 99.6338882446289 93.6992416381836 C 98.53085327148438 48.11292266845703 106.16521453857422 41.15239715576172 120.98297882080078 -6.841349124908447 C 153.7562255859375 -35.078739166259766 203.98997497558594 -41.10517120361328 222.69317626953125 14.39633560180664"/>
    <path stroke-width="0" fill="rgb(121, 121, 96)" opacity="0.884056" stroke="rgb(146, 166, 166)" stroke-opacity="1.0" stroke-linecap="round" stroke-linejoin="round" d="M 168.9247283935547 245.6728973388672 C 174.20611572265625 210.46438598632812 123.67115020751953 213.19241333007812 49.62183380126953 190.98861694335938 C 39.07313919067383 187.3157958984375 32.13179397583008 180.866455078125 41.45484161376953 143.7637481689453 C 59.133506774902344 86.34754943847656 66.169921875 79.04551696777344 62.479984283447266 95.78549194335938 C 122.2200927734375 107.62120056152344 26.798986434936523 186.97137451171875 168.9247283935547 245.6728973388672"/>
    <path stroke-width="0" fill="rgb(203, 244, 221)" opacity="0.3814131" stroke="rgb(228, 93, 111)" stroke-opacity="1.0" stroke-linecap="round" stroke-linejoin="round" d="M 221.9341278076172 31.230260848999023 C 184.71470642089844 32.7238655090332 153.58396911621094 151.50645446777344 163.64944458007812 167.8828125 C 45.56212615966797 148.05807495117188 101.73422241210938 60.525245666503906 83.6996841430664 12.624767303466797 C 83.30123901367188 2.496509552001953 90.76713562011719 -4.564119815826416 105.83085632324219 -7.485677719116211 C 172.7283935546875 -18.243488311767578 197.9462432861328 -68.36148834228516 221.9341278076172 31.230260848999023"/>
    <path stroke-width="0" fill="rgb(143, 177, 150)" opacity="1.0140444" stroke="rgb(205, 179, 25)" stroke-opacity="1.0" stroke-linecap="round" stroke-linejoin="round" d="M 90.37322235107422 50.26695251464844 C 39.28830337524414 77.54666900634766 36.13246154785156 85.39620208740234 -10.070000648498535 138.0067596435547 C -23.76293182373047 138.65989685058594 -30.73976707458496 131.9322509765625 -32.78306198120117 110.21857452392578 C -19.273069381713867 31.64545249938965 -11.175442695617676 25.17100715637207 62.71833419799805 26.616960525512695 C 75.42735290527344 25.61273956298828 82.64570617675781 32.13208770751953 90.37322235107422 50.26695251464844"/>
    <path stroke-width="0" fill="rgb(101, 183, 120)" opacity="0.993512" stroke="rgb(182, 254, 38)" stroke-opacity="1.0" stroke-linecap="round" stroke-linejoin="round" d="M 213.1280517578125 231.7646942138672 C 160.0355987548828 222.3060302734375 133.68511962890625 330.8424987792969 150.68687438964844 332.3221740722656 C -57.13521957397461 338.1549987792969 -25.829566955566406 300.38641357421875 -19.804597854614258 204.4696502685547 C -3.120511531829834 134.78305053710938 0.046410877257585526 122.5101318359375 51.37373352050781 113.09609985351562 C 120.74649810791016 113.17353057861328 121.62359619140625 138.7989044189453 213.1280517578125 231.7646942138672"/>
    <path stroke-width="0" fill="rgb(109, 195, 114)" opacity="1.0398862" stroke="rgb(41, 156, 31)" stroke-opacity="1.0" stroke-linecap="round" stroke-linejoin="round" d="M 66.365234375 68.67153930664062 C 64.94280242919922 77.68673706054688 57.38493728637695 83.35501098632812 -5.477954387664795 89.00813293457031 C -18.30956268310547 92.00404357910156 -28.15337371826172 88.30581665039062 -30.40452766418457 79.21770477294922 C -26.784635543823242 3.3494513034820557 -18.000425338745117 -3.135021209716797 -11.287376403808594 -3.264281988143921 C 54.22034454345703 6.5942182540893555 61.06145095825195 13.859766006469727 66.365234375 68.67153930664062"/>
    <path stroke-width="0" fill="rgb(152, 150, 187)" opacity="0.8564938" stroke="rgb(205, 145, 103)" stroke-opacity="1.0" stroke-linecap="round" stroke-linejoin="round" d="M 91.15731811523438 71.50119018554688 C 58.393035888671875 78.63518524169922 73.49816131591797 82.4999008178711 61.23373794555664 127.31307983398438 C 52.538490295410156 123.8615951538086 46.39585494995117 115.68911743164062 33.91267013549805 50.173431396484375 C 31.471256256103516 37.84601593017578 37.10976791381836 29.968477249145508 49.89611053466797 29.42093276977539 C 96.72801971435547 64.05488586425781 103.4284439086914 73.08435821533203 91.15731811523438 71.50119018554688"/>
    <path stroke-width="0" fill="rgb(135, 142, 146)" opacity="0.81978995" stroke="rgb(177, 115, 184)" stroke-opacity="1.0" stroke-linecap="round" stroke-linejoin="round" d="M 112.63361358642578 32.707000732421875 C 112.78851318359375 42.51601028442383 106.3381576538086 49.664756774902344 97.81644439697266 51.825172424316406 C 63.16038513183594 24.124122619628906 56.4422607421875 16.22333526611328 49.103904724121094 7.80767297744751 C 55.37981414794922 -0.9561640620231628 62.44896697998047 -8.86926555633545 71.76667022705078 -11.7192964553833 C 80.59237670898438 -8.089900016784668 87.22427368164062 -0.07324488461017609 112.63361358642578 32.707000732421875"/>
    <path stroke-width="0" fill="rgb(116, 167, 135)" opacity="0.6677453" stroke="rgb(248, 218, 2)" stroke-opacity="1.0" stroke-linecap="round" stroke-linejoin="round" d="M 116.04017639160156 19.907686233520508 C 39.08556365966797 23.958744049072266 106.03205871582031 82.06792449951172 35.7056770324707 100.78237915039062 C 25.310340881347656 89.89067077636719 17.92894172668457 82.3461685180664 14.8225679397583 71.88243865966797 C 49.790164947509766 29.23894691467285 57.51472473144531 23.11421775817871 92.06464385986328 -5.523242950439453 C 106.111572265625 -5.381178855895996 113.21499633789062 2.1189684867858887 116.04017639160156 19.907686233520508"/>
    <path stroke-width="0" fill="rgb(118, 164, 153)" opacity="0.9478983" stroke="rgb(186, 43, 132)" stroke-opacity="1.0" stroke-linecap="round" stroke-linejoin="round" d="M 104.63365936279297 137.0574493408203 C 105.67660522460938 149.611328125 104.44412994384766 162.30697631835938 95.2918930053711 176.37374877929688 C 9.986863136291504 168.90711975097656 10.237548828125 158.75096130371094 22.33832550048828 135.277587890625 C 40.128108978271484 95.67376708984375 47.41044616699219 87.99555206298828 79.2303466796875 62.337955474853516 C 92.97159576416016 67.5212173461914 100.78458404541016 74.6733627319336 104.63365936279297 137.0574493408203"/>
    <path stroke-width="0" fill="rgb(78, 171, 140)" opacity="1.0038546" stroke="rgb(50, 4, 202)" stroke-opacity="1.0" stroke-linecap="round" stroke-linejoin="round" d="M 169.20822143554688 228.08660888671875 C 327.9560241699219 170.43653869628906 658.8870849609375 284.2487487792969 143.4652099609375 265.7317810058594 C -14.540313720703125 237.2751922607422 33.298343658447266 194.56515502929688 54.0698127746582 165.0881805419922 C 98.13331604003906 112.40625 96.17222595214844 113.0028076171875 74.22724151611328 94.77445220947266 C 88.29337310791016 155.19239807128906 155.7105712890625 65.30850219726562 169.20822143554688 228.08660888671875"/>
    <path stroke-width="0" fill="rgb(122, 173, 148)" opacity="0.7427179" stroke="rgb(88, 236, 179)" stroke-opacity="1.0" stroke-linecap="round" stroke-linejoin="round" d="M 133.91091918945312 29.878753662109375 C 111.62748718261719 56.577064514160156 105.32197570800781 65.39395141601562 97.05426025390625 69.86337280273438 C 88.2366714477539 63.91756057739258 89.33584594726562 50.75618362426758 65.59553527832031 23.39267921447754 C 60.592220306396484 16.417993545532227 67.31478881835938 10.065690040588379 74.20276641845703 0.30357080698013306 C 130.62371826171875 1.510477900505066 137.6319580078125 12.728557586669922 133.91091918945312 29.878753662109375"/>
    <path stroke-width="0" fill="rgb(168, 120, 171)" opacity="0.8761346" stroke="rgb(41, 158, 147)" stroke-opacity="1.0" stroke-linecap="round" stroke-linejoin="round" d="M 113.71578216552734 86.41807556152344 C 85.70664978027344 193.1479034423828 166.86195373535156 174.09336853027344 118.18379974365234 118.70770263671875 C 64.70098876953125 149.175537109375 58.365478515625 138.21148681640625 57.92868423461914 129.1492462158203 C 72.11624145507812 86.93404388427734 87.18973541259766 85.42630767822266 126.31002807617188 61.207557678222656 C 136.6058349609375 60.4934196472168 145.73153686523438 64.89337921142578 113.71578216552734 86.41807556152344"/>
    <path stroke-width="0" fill="rgb(112, 178, 136)" opacity="0.95004165" stroke="rgb(238, 156, 136)" stroke-opacity="1.0" stroke-linecap="round" stroke-linejoin="round" d="M 103.04216003417969 27.752389907836914 C 59.65108108520508 60.35511016845703 67.45571899414062 62.98044204711914 75.14806365966797 78.18992614746094 C 12.687027931213379 76.03475952148438 27.249162673950195 66.51974487304688 3.031287431716919 0.9039945602416992 C 0.4692150950431824 -8.221272468566895 7.70001220703125 -15.56667423248291 26.173534393310547 -24.269367218017578 C 67.76502227783203 6.135169506072998 67.95841217041016 2.7730839252471924 103.04216003417969 27.752389907836914"/>
    <path stroke-width="0" fill="rgb(127, 207, 129)" opacity="0.8416273" stroke="rgb(186, 79, 101)" stroke-opacity="1.0" stroke-linecap="round" stroke-linejoin="round" d="M 65.297119140625 -2.3971879482269287 C 60.002159118652344 4.316906452178955 45.50563049316406 3.240283250808716 14.213949203491211 60.546905517578125 C -0.6264820694923401 55.09670639038086 -7.214637279510498 44.485107421875 -30.134258270263672 9.127607345581055 C -11.457196235656738 -50.801475524902344 3.0080111026763916 -43.40044403076172 33.16963577270508 -33.32826232910156 C 54.83304977416992 -17.96738052368164 63.036460876464844 -11.599635124206543 65.297119140625 -2.3971879482269287"/>
    <path stroke-width="0" fill="rgb(105, 169, 130)" opacity="0.6926103" stroke="rgb(47, 240, 188)" stroke-opacity="1.0" stroke-linecap="round" stroke-linejoin="round" d="M 145.1355438232422 44.35641098022461 C 173.0994110107422 120.74738311767578 168.99481201171875 65.98310852050781 135.39002990722656 89.37358093261719 C 102.49835968017578 61.740901947021484 95.20936584472656 55.91862106323242 72.642578125 30.086374282836914 C 69.08672332763672 12.342853546142578 72.07073974609375 1.8986599445343018 85.49299621582031 0.9459821581840515 C 136.83251953125 11.009954452514648 150.5585174560547 17.553531646728516 145.1355438232422 44.35641098022461"/>
    <path stroke-width="0" fill="rgb(110, 186, 125)" opacity="1.0082861" stroke="rgb(57, 64, 14)" stroke-opacity="1.0" stroke-linecap="round" stroke-linejoin="round" d="M 117.6723861694336 164.10850524902344 C 110.66104125976562 177.53704833984375 104.07684326171875 185.31629943847656 50.10634994506836 174.72219848632812 C -16.400836944580078 169.42234802246094 -29.877758026123047 168.52821350097656 -38.5231819152832 129.81756591796875 C -19.681737899780273 60.6905403137207 -12.406533241271973 56.58859634399414 23.5378360748291 62.97126770019531 C 38.672542572021484 126.9940414428711 71.18646240234375 86.73493957519531 117.6723861694336 164.10850524902344"/>
    <path stroke-width="0" fill="rgb(148, 163, 189)" opacity="0.35053495" stroke="rgb(79, 177, 96)" stroke-opacity="1.0" stroke-linecap="round" stroke-linejoin="round" d="M 165.3029022216797 57.57246398925781 C 117.0299301147461 79.33365631103516 128.26376342773438 97.44701385498047 112.4638671875 107.27386474609375 C 77.15859985351562 100.10430145263672 85.59636688232422 80.80587005615234 88.09439849853516 72.65999603271484 C 83.68606567382812 44.61883544921875 85.17967987060547 74.96387481689453 81.25274658203125 55.364479064941406 C 102.05931854248047 51.17709732055664 62.201419830322266 38.168701171875 165.3029022216797 57.57246398925781"/>
    <path stroke-width="0" fill="rgb(106, 171, 133)" opacity="0.77526855" stroke="rgb(6, 17, 173)" stroke-opacity="1.0" stroke-linecap="round" stroke-linejoin="round" d="M 153.32720947265625 29.664670944213867 C 88.6726303100586 8.994138717651367 92.78539276123047 16.441137313842773 75.42893981933594 52.20003890991211 C 64.70524597167969 40.2578239440918 63.077857971191406 31.246440887451172 63.10770797729492 5.000656604766846 C 66.81574249267578 -15.161604881286621 79.83037567138672 -18.76555061340332 103.83341217041016 -37.289306640625 C 89.78343963623047 -0.5460432171821594 114.52616119384766 -11.327397346496582 153.32720947265625 29.664670944213867"/>
    <path stroke-width="0" fill="rgb(107, 182, 117)" opacity="0.5415299" stroke="rgb(136, 228, 252)" stroke-opacity="1.0" stroke-linecap="round" stroke-linejoin="round" d="M 59.711509704589844 150.7334747314453 C 55.10960006713867 223.6392822265625 53.5538215637207 235.6153106689453 25.009973526000977 256.8537292480469 C -65.7444839477539 249.38409423828125 -65.794677734375 236.44749450683594 -46.56294631958008 190.59295654296875 C -51.604557037353516 127.46306610107422 -47.626651763916016 116.18882751464844 3.1305694580078125 88.60084533691406 C 65.0389175415039 97.06615447998047 69.55073547363281 109.17318725585938 59.711509704589844 150.7334747314453"/>
    <path stroke-width="0" fill="rgb(50, 111, 110)" opacity="0.7982535" stroke="rgb(169, 67, 5)" stroke-opacity="1.0" stroke-linecap="round" stroke-linejoin="round" d="M 928.6151123046875 222.76316833496094 C 525.49658203125 311.8553771972656 414.8964538574219 157.06788635253906 392.0537109375 352.9235534667969 C 234.23072814941406 247.63746643066406 405.3114318847656 124.00212860107422 473.2404479980469 156.6291961669922 C 487.4782409667969 -20.120901107788086 360.9351806640625 392.0243225097656 376.619873046875 -2.453240394592285 C 572.5486450195312 -65.4778823852539 602.8023071289062 -29.20888328552246 928.6151123046875 222.76316833496094"/>
    <path stroke-width="0" fill="rgb(114, 183, 155)" opacity="0.7666208" stroke="rgb(81, 97, 150)" stroke-opacity="1.0" stroke-linecap="round" stroke-linejoin="round" d="M 166.00790405273438 19.640047073364258 C 189.21168518066406 34.47784423828125 172.63023376464844 40.39791488647461 105.42774963378906 56.6163215637207 C 98.31746673583984 45.7260856628418 93.531494140625 34.43925476074219 88.71797943115234 11.883440971374512 C 103.73637390136719 -24.282470703125 116.36019897460938 -25.617061614990234 151.2599334716797 -32.88304901123047 C 162.1803741455078 -30.430362701416016 147.7615966796875 -5.045339107513428 166.00790405273438 19.640047073364258"/>
    <path stroke-width="0" fill="rgb(94, 174, 145)" opacity="1.011759" stroke="rgb(160, 222, 69)" stroke-opacity="1.0" stroke-linecap="round" stroke-linejoin="round" d="M 229.0570068359375 -73.50252532958984 C 132.51229858398438 192.16529846191406 158.44241333007812 163.56436157226562 226.2121124267578 220.2750244140625 C -21.64539909362793 229.56549072265625 47.60082244873047 137.9678497314453 24.907573699951172 138.3120574951172 C 105.3843765258789 90.32388305664062 75.41316986083984 61.972015380859375 169.3561553955078 -4.466996192932129 C 263.46966552734375 56.718196868896484 403.5401306152344 82.10348510742188 229.0570068359375 -73.50252532958984"/>
    <path stroke-width="0" fill="rgb(101, 172, 135)" opacity="0.99691474" stroke="rgb(47, 242, 175)" stroke-opacity="1.0" stroke-linecap="round" stroke-linejoin="round" d="M 93.6386947631836 57.298316955566406 C 89.76018524169922 124.94255828857422 88.27021026611328 130.58055114746094 44.9508171081543 122.87533569335938 C 24.97531509399414 118.16224670410156 21.253101348876953 104.90145874023438 32.521400451660156 61.57073211669922 C 9.163284301757812 45.66834259033203 18.14704132080078 51.86851119995117 78.69959259033203 32.5962028503418 C 88.1318588256836 36.38542175292969 91.49846649169922 44.41525650024414 93.6386947631836 57.298316955566406"/>
    <path stroke-width="0" fill="rgb(99, 170, 135)" opacity="0.7480044" stroke="rgb(241, 186, 64)" stroke-opacity="1.0" stroke-linecap="round" stroke-linejoin="round" d="M 109.78919219970703 41.54349136352539 C 113.98030853271484 74.98060607910156 104.38330078125 75.44293212890625 72.5656967163086 102.14242553710938 C 64.12451171875 96.5226058959961 56.626461029052734 88.59423828125 52.424861907958984 86.03349304199219 C 102.88359832763672 80.9722671508789 83.8167953491211 66.42710876464844 76.12762451171875 27.698226928710938 C 103.75161743164062 40.06647872924805 115.7948989868164 42.08918380737305 109.78919219970703 41.54349136352539"/>
    <path stroke-width="0" fill="rgb(17, 108, 137)" opacity="0.6898081" stroke="rgb(132, 6, 52)" stroke-opacity="1.0" stroke-linecap="round" stroke-linejoin="round" d="M 239.9561004638672 8.217118263244629 C 395.377685546875 222.9788055419922 252.57989501953125 266.806640625 204.1442413330078 194.339599609375 C 220.75588989257812 227.11065673828125 316.59967041015625 203.90737915039062 254.92259216308594 206.20265197753906 C 286.1698303222656 213.20343017578125 277.20953369140625 203.39639282226562 185.53042602539062 210.06578063964844 C 276.1685485839844 209.5615692138672 339.8587341308594 179.60089111328125 239.9561004638672 8.217118263244629"/>
    <path stroke-width="0" fill="rgb(94, 180, 125)" opacity="0.45592266" stroke="rgb(95, 118, 70)" stroke-opacity="1.0" stroke-linecap="round" stroke-linejoin="round" d="M 110.28486633300781 270.6195373535156 C 101.7655258178711 455.1044921875 147.43490600585938 412.1031799316406 0.5994966626167297 447.97381591796875 C -40.01398849487305 339.22808837890625 -36.6249885559082 324.3980407714844 -35.94858169555664 275.1544494628906 C -41.400962829589844 197.63021850585938 -41.09809494018555 183.4933319091797 -21.136653900146484 189.93350219726562 C 86.22442626953125 197.21176147460938 97.00376892089844 208.4756622314453 110.28486633300781 270.6195373535156"/>
    <path stroke-width="0" fill="rgb(164, 194, 30)" opacity="0.72284555" stroke="rgb(220, 29, 131)" stroke-opacity="1.0" stroke-linecap="round" stroke-linejoin="round" d="M 521.6555786132812 337.4165954589844 C 469.2317810058594 357.468505859375 473.5372009277344 317.2514343261719 465.6178894042969 323.21685791015625 C 463.82379150390625 344.7458190917969 456.53369140625 361.3146057128906 462.84820556640625 307.1817626953125 C 455.60101318359375 305.7209777832031 467.74554443359375 334.35137939453125 560.7633666992188 320.2123718261719 C 514.2250366210938 300.7256164550781 487.9892883300781 312.1005554199219 521.6555786132812 337.4165954589844"/>
    <path stroke-width="0" fill="rgb(189, 121, 93)" opacity="0.3432937" stroke="rgb(140, 149, 245)" stroke-opacity="1.0" stroke-linecap="round" stroke-linejoin="round" d="M 570.673583984375 357.2749938964844 C 574.6041259765625 372.0107421875 545.4058227539062 369.4511413574219 439.9378356933594 356.5580139160156 C 475.44256591796875 332.7914733886719 484.7109069824219 323.77850341796875 510.6834411621094 299.6945495605469 C 533.4825439453125 284.9833679199219 511.8375549316406 311.11273193359375 520.8947143554688 305.3011169433594 C 525.5113525390625 291.9359130859375 521.249755859375 311.6423645019531 570.673583984375 357.2749938964844"/>
    <path stroke-width="0" fill="rgb(82, 112, 82)" opacity="0.66185623" stroke="rgb(170, 200, 71)" stroke-opacity="1.0" stroke-linecap="round" stroke-linejoin="round" d="M 447.1632385253906 183.82420349121094 C 441.6446533203125 190.4444580078125 427.4427185058594 192.9606170654297 445.7104187011719 183.17495727539062 C 447.5579833984375 202.21453857421875 465.3641052246094 202.13754272460938 431.0469055175781 191.96226501464844 C 449.104248046875 173.34393310546875 454.8828125 154.2755889892578 468.5632629394531 203.3811798095703 C 424.1942138671875 180.28221130371094 439.95025634765625 201.3100128173828 447.1632385253906 183.82420349121094"/>
    <path stroke-width="0" fill="rgb(94, 192, 58)" opacity="0.81302226" stroke="rgb(16, 123, 249)" stroke-opacity="1.0" stroke-linecap="round" stroke-linejoin="round" d="M 457.9278259277344 159.5457763671875 C 490.2455749511719 170.56344604492188 494.3412170410156 155.95803833007812 467.1489562988281 201.8285675048828 C 465.5563659667969 148.20611572265625 473.74493408203125 135.58575439453125 482.5205078125 121.01702117919922 C 460.12152099609375 189.103759765625 470.2820739746094 154.9041748046875 468.0968933105469 141.66629028320312 C 465.6405029296875 151.91065979003906 476.1880187988281 170.56544494628906 457.9278259277344 159.5457763671875"/>
    <path stroke-width="0" fill="rgb(100, 189, 81)" opacity="0.8519122" stroke="rgb(86, 245, 59)" stroke-opacity="1.0" stroke-linecap="round" stroke-linejoin="round" d="M 476.95477294921875 121.46730041503906 C 447.20849609375 69.72586059570312 419.2418518066406 142.1710662841797 450.9707336425781 137.41952514648438 C 491.77294921875 153.1381072998047 464.8199768066406 159.17965698242188 475.1098327636719 149.5155487060547 C 490.0005187988281 126.32664489746094 485.1468200683594 132.92771911621094 464.6434020996094 137.09059143066406 C 453.0039978027344 145.7700958251953 462.1089172363281 160.56228637695312 476.95477294921875 121.46730041503906"/>
    <path stroke-width="0" fill="rgb(239, 197, 117)" opacity="0.8421809" stroke="rgb(240, 203, 160)" stroke-opacity="1.0" stroke-linecap="round" stroke-linejoin="round" d="M 456.2310485839844 353.2868347167969 C 417.6092224121094 348.6930236816406 404.8168029785156 355.1441345214844 429.00469970703125 345.034423828125 C 423.04547119140625 352.4047546386719 423.77349853515625 344.98291015625 419.6542053222656 363.5881042480469 C 413.22601318359375 429.3764953613281 417.2352294921875 370.90179443359375 414.2961120605469 360.72735595703125 C 368.6950988769531 338.13690185546875 353.5654602050781 373.7550964355469 456.2310485839844 353.2868347167969"/>
    <path stroke-width="0" fill="rgb(99, 195, 82)" opacity="0.87575835" stroke="rgb(74, 216, 157)" stroke-opacity="1.0" stroke-linecap="round" stroke-linejoin="round" d="M 459.1187744140625 126.77393341064453 C 461.07958984375 156.50889587402344 465.144287109375 171.59432983398438 466.8136901855469 163.3787384033203 C 471.0440368652344 163.92259216308594 467.8963623046875 140.59738159179688 446.35345458984375 186.37258911132812 C 460.3981628417969 127.94988250732422 475.97784423828125 123.42750549316406 454.1269836425781 131.81097412109375 C 450.9511413574219 150.7360382080078 433.0467834472656 166.8821258544922 459.1187744140625 126.77393341064453"/>
    <path stroke-width="0" fill="rgb(15, 82, 103)" opacity="0.5842" stroke="rgb(88, 37, 250)" stroke-opacity="1.0" stroke-linecap="round" stroke-linejoin="round" d="M 389.85504150390625 412.460205078125 C 392.1710510253906 358.7679443359375 386.5415344238281 379.57659912109375 394.27154541015625 366.9812927246094 C 364.4515686035156 388.9473571777344 398.51055908203125 454.4879150390625 395.7428894042969 415.0790710449219 C 423.86181640625 311.5695495605469 377.0571594238281 407.5295104980469 382.9242858886719 358.1256103515625 C 355.4946594238281 390.52783203125 375.27618408203125 417.3029479980469 389.85504150390625 412.460205078125"/>
    <path stroke-width="0" fill="rgb(117, 60, 105)" opacity="0.42877644" stroke="rgb(126, 163, 93)" stroke-opacity="1.0" stroke-linecap="round" stroke-linejoin="round" d="M 564.9774780273438 295.4004211425781 C 503.48260498046875 338.0379638671875 496.94610595703125 343.2876892089844 574.9443359375 310.490478515625 C 483.23974609375 333.0555725097656 448.779541015625 302.32086181640625 497.07379150390625 306.8220520019531 C 528.14990234375 329.05267333984375 528.69189453125 329.6911315917969 483.148193359375 294.75189208984375 C 473.2051086425781 276.93218994140625 517.6860961914062 273.8064880371094 564.9774780273438 295.4004211425781"/>
    <path stroke-width="0" fill="rgb(103, 127, 105)" opacity="0.43356785" stroke="rgb(209, 48, 130)" stroke-opacity="1.0" stroke-linecap="round" stroke-linejoin="round" d="M 481.3331604003906 158.95689392089844 C 483.2011413574219 142.69854736328125 464.9782409667969 128.32012939453125 422.7669677734375 173.28720092773438 C 446.59246826171875 157.50567626953125 445.8826599121094 133.48854064941406 437.25958251953125 174.9308319091797 C 462.403564453125 177.37342834472656 456.74420166015625 125.88654327392578 478.36181640625 121.54803466796875 C 432.6208801269531 147.83407592773438 426.26727294921875 183.4015655517578 481.3331604003906 158.95689392089844"/>
    <path stroke-width="0" fill="rgb(117, 179, 45)" opacity="0.7003037" stroke="rgb(24, 219, 248)" stroke-opacity="1.0" stroke-linecap="round" stroke-linejoin="round" d="M 440.69891357421875 189.79425048828125 C 455.4165344238281 187.8839569091797 417.3982238769531 199.1941375732422 447.2347106933594 229.08209228515625 C 438.83636474609375 179.324951171875 446.5263366699219 174.82203674316406 456.9083251953125 194.78402709960938 C 429.85272216796875 205.5548553466797 452.482666015625 204.46176147460938 436.4460754394531 187.79649353027344 C 392.78070068359375 202.8697509765625 442.8525390625 219.1630401611328 440.69891357421875 189.79425048828125"/>
    <path stroke-width="0" fill="rgb(254, 195, 81)" opacity="1.0634156" stroke="rgb(231, 197, 84)" stroke-opacity="1.0" stroke-linecap="round" stroke-linejoin="round" d="M 153.5474395751953 517.3344116210938 C 141.7509765625 519.814453125 169.30838012695312 506.91632080078125 143.23428344726562 495.6114196777344 C 129.64151000976562 487.8360290527344 160.55299377441406 471.32574462890625 160.19273376464844 470.8082580566406 C 129.99197387695312 487.6563415527344 142.26556396484375 500.5716552734375 146.64224243164062 449.7564392089844 C 179.05438232421875 454.4451904296875 148.5398406982422 446.34417724609375 153.5474395751953 517.3344116210938"/>
    <path stroke-width="0" fill="rgb(54, 113, 88)" opacity="0.9365822" stroke="rgb(103, 59, 33)" stroke-opacity="1.0" stroke-linecap="round" stroke-linejoin="round" d="M 530.0496215820312 184.49472045898438 C 486.80645751953125 124.06980895996094 479.30743408203125 135.965087890625 481.0119323730469 94.35279083251953 C 472.647216796875 131.20159912109375 432.8542175292969 120.70446014404297 464.39691162109375 191.05679321289062 C 467.98651123046875 153.7755126953125 464.30621337890625 148.97000122070312 509.64697265625 129.79107666015625 C 449.6892395019531 154.6394805908203 513.682861328125 141.41197204589844 530.0496215820312 184.49472045898438"/>
    <path stroke-width="0" fill="rgb(227, 221, 189)" opacity="0.6341338" stroke="rgb(185, 2, 196)" stroke-opacity="1.0" stroke-linecap="round" stroke-linejoin="round" d="M 240.56907653808594 165.0636444091797 C 242.16061401367188 126.65449523925781 241.96917724609375 139.77809143066406 232.36399841308594 134.36045837402344 C 244.9718017578125 171.9196014404297 193.63824462890625 170.48634338378906 207.0201416015625 141.01608276367188 C 207.5057830810547 115.0127944946289 220.24874877929688 108.08187103271484 242.46090698242188 138.37196350097656 C 241.19369506835938 162.5858917236328 238.3814697265625 179.3268585205078 240.56907653808594 165.0636444091797"/>
    <path stroke-width="0" fill="rgb(243, 213, 182)" opacity="0.31648615" stroke="rgb(20, 22, 171)" stroke-opacity="1.0" stroke-linecap="round" stroke-linejoin="round" d="M 579.0664672851562 496.9411315917969 C 386.169677734375 489.3556213378906 385.8935852050781 503.9809265136719 401.6004333496094 477.6540832519531 C 386.31787109375 496.6821594238281 397.9693298339844 500.0180358886719 376.9079284667969 493.9273376464844 C 391.8963623046875 464.71368408203125 394.9979248046875 474.8604736328125 397.8966979980469 483.6092529296875 C 397.1390686035156 505.1866455078125 352.5450439453125 492.6211242675781 579.0664672851562 496.9411315917969"/>
    <path stroke-width="0" fill="rgb(102, 170, 51)" opacity="0.34369606" stroke="rgb(107, 142, 219)" stroke-opacity="1.0" stroke-linecap="round" stroke-linejoin="round" d="M 472.74261474609375 159.01734924316406 C 463.8384094238281 147.331787109375 426.4466857910156 187.90000915527344 429.916015625 169.11141967773438 C 452.59063720703125 168.3209228515625 438.6343078613281 164.28558349609375 434.6981506347656 188.58673095703125 C 422.89544677734375 203.2247772216797 434.7277526855469 182.3714141845703 454.9826965332031 169.82827758789062 C 462.4454650878906 194.6832275390625 448.56964111328125 151.52215576171875 472.74261474609375 159.01734924316406"/>
    <path stroke-width="0" fill="rgb(247, 280, 127)" opacity="0.8512678" stroke="rgb(68, 33, 14)" stroke-opacity="1.0" stroke-linecap="round" stroke-linejoin="round" d="M 231.23941040039062 86.62351989746094 C 228.33445739746094 72.55475616455078 241.64907836914062 101.00859069824219 239.6025848388672 156.2899627685547 C 256.4908752441406 163.7318878173828 195.91600036621094 171.58265686035156 198.7133331298828 133.6384735107422 C 207.6520538330078 70.25630187988281 244.36094665527344 57.660316467285156 233.41598510742188 96.04617309570312 C 224.3063201904297 108.90586853027344 226.8280487060547 110.93645477294922 231.23941040039062 86.62351989746094"/>
    <path stroke-width="0" fill="rgb(169, 270, 105)" opacity="0.20461659" stroke="rgb(66, 116, 174)" stroke-opacity="1.0" stroke-linecap="round" stroke-linejoin="round" d="M 512.7982177734375 297.26654052734375 C 552.197509765625 331.3173522949219 490.9065246582031 304.9962463378906 468.56878662109375 322.49114990234375 C 512.38525390625 333.458251953125 472.7012939453125 310.84906005859375 477.5804138183594 342.1192626953125 C 485.15087890625 341.95947265625 482.1549377441406 339.1896667480469 427.4326477050781 341.4751892089844 C 505.7696228027344 368.13629150390625 507.2801513671875 324.5909729003906 512.7982177734375 297.26654052734375"/>
    <path stroke-width="0" fill="rgb(81, 83, 72)" opacity="0.4767214" stroke="rgb(72, 96, 46)" stroke-opacity="1.0" stroke-linecap="round" stroke-linejoin="round" d="M 508.064208984375 311.8453063964844 C 482.30657958984375 283.8005065917969 475.2881164550781 303.2060241699219 483.07977294921875 272.3789978027344 C 468.45733642578125 305.58099365234375 448.4970703125 295.71038818359375 475.8471374511719 318.84619140625 C 475.41644287109375 326.12628173828125 488.4283142089844 310.7926940917969 462.00518798828125 306.2984619140625 C 470.1883239746094 308.97906494140625 502.8676452636719 297.239013671875 508.064208984375 311.8453063964844"/>
    <path stroke-width="0" fill="rgb(117, 185, -66)" opacity="0.74449456" stroke="rgb(109, 130, 136)" stroke-opacity="1.0" stroke-linecap="round" stroke-linejoin="round" d="M 243.23533630371094 60.60564041137695 C 221.1414031982422 74.0830307006836 196.61770629882812 105.65361785888672 187.32252502441406 99.54730224609375 C 184.15855407714844 154.38832092285156 171.14068603515625 82.95210266113281 206.10140991210938 47.98817443847656 C 241.63682556152344 30.504087448120117 277.2104797363281 90.87989807128906 220.64068603515625 90.50006103515625 C 236.99093627929688 92.21969604492188 264.156982421875 79.6458511352539 243.23533630371094 60.60564041137695"/>
    <path stroke-width="0" fill="rgb(127, 160, 57)" opacity="0.92600423" stroke="rgb(47, 230, 138)" stroke-opacity="1.0" stroke-linecap="round" stroke-linejoin="round" d="M 180.03433227539062 477.6503601074219 C 137.853759765625 471.878173828125 159.50906372070312 488.58819580078125 163.64637756347656 450.9710388183594 C 208.93359375 451.0831604003906 203.67196655273438 457.4216613769531 166.0494384765625 458.7310791015625 C 158.1183624267578 461.3595275878906 162.84527587890625 440.1479797363281 159.2826690673828 459.6218566894531 C 215.93783569335938 448.6920471191406 190.6543426513672 438.4544677734375 180.03433227539062 477.6503601074219"/>
    <path stroke-width="0" fill="rgb(265, 258, 133)" opacity="1.0452974" stroke="rgb(224, 116, 184)" stroke-opacity="1.0" stroke-linecap="round" stroke-linejoin="round" d="M 217.11012268066406 149.9246063232422 C 243.35887145996094 151.8167266845703 260.28192138671875 154.57081604003906 191.61558532714844 144.1273956298828 C 194.04782104492188 121.577392578125 229.7312774658203 31.744779586791992 234.111328125 110.6764144897461 C 254.6087646484375 127.68766784667969 230.39723205566406 70.95356750488281 223.3822479248047 79.13826751708984 C 237.14198303222656 87.9606704711914 232.24742126464844 124.89024353027344 217.11012268066406 149.9246063232422"/>
    <path stroke-width="0" fill="rgb(103, 183, -19)" opacity="0.77259105" stroke="rgb(192, 162, 61)" stroke-opacity="1.0" stroke-linecap="round" stroke-linejoin="round" d="M 256.8255920410156 92.67668151855469 C 241.34500122070312 70.11148071289062 219.4483184814453 25.190244674682617 253.8404541015625 73.57255554199219 C 256.6201477050781 65.00337982177734 257.07843017578125 60.063926696777344 270.3859558105469 101.0937271118164 C 287.099365234375 213.61781311035156 271.76336669921875 128.44393920898438 225.9844970703125 42.8697509765625 C 252.38430786132812 40.72428894042969 248.65342712402344 77.70323181152344 256.8255920410156 92.67668151855469"/>
    <path stroke-width="0" fill="rgb(94, 181, 34)" opacity="0.66734123" stroke="rgb(203, 244, 116)" stroke-opacity="1.0" stroke-linecap="round" stroke-linejoin="round" d="M 445.3982849121094 176.1303253173828 C 485.892333984375 146.17703247070312 461.62762451171875 168.38644409179688 447.14410400390625 173.86923217773438 C 474.54638671875 188.55496215820312 450.3451232910156 205.82992553710938 430.29241943359375 198.235107421875 C 417.46331787109375 169.86932373046875 484.815673828125 168.51947021484375 462.73260498046875 136.6772918701172 C 474.3214416503906 174.09423828125 493.4473876953125 127.23248291015625 445.3982849121094 176.1303253173828"/>
    <path stroke-width="0" fill="rgb(141, 150, 159)" opacity="0.16294366" stroke="rgb(218, 116, 242)" stroke-opacity="1.0" stroke-linecap="round" stroke-linejoin="round" d="M 201.98414611816406 25.905811309814453 C 217.4697723388672 34.90581130981445 217.03013610839844 27.347043991088867 221.88912963867188 24.7625789642334 C 226.53631591796875 44.2664794921875 232.48931884765625 31.422285079956055 216.62063598632812 39.222225189208984 C 219.40769958496094 37.67920684814453 227.64471435546875 37.3590202331543 255.91468811035156 20.729997634887695 C 206.95619201660156 39.57594680786133 220.3419647216797 34.69380187988281 201.98414611816406 25.905811309814453"/>
    <path stroke-width="0" fill="rgb(101, 180, -7)" opacity="0.59022045" stroke="rgb(209, 231, 207)" stroke-opacity="1.0" stroke-linecap="round" stroke-linejoin="round" d="M 250.20802307128906 94.92251586914062 C 253.54962158203125 85.9603271484375 228.29940795898438 72.17250061035156 249.70486450195312 86.80516052246094 C 264.409912109375 91.4604721069336 256.0467529296875 94.44102478027344 254.57546997070312 90.0566177368164 C 271.4696044921875 127.8811264038086 255.22938537597656 77.68944549560547 250.2892303466797 69.80715942382812 C 245.1752166748047 85.33961486816406 255.47911071777344 100.63494873046875 250.20802307128906 94.92251586914062"/>
    <path stroke-width="0" fill="rgb(115, 157, 150)" opacity="0.25353676" stroke="rgb(160, 101, 15)" stroke-opacity="1.0" stroke-linecap="round" stroke-linejoin="round" d="M 258.2655944824219 20.213106155395508 C 238.49632263183594 26.64701271057129 224.74656677246094 34.10918045043945 238.51341247558594 19.649677276611328 C 271.90325927734375 15.294623374938965 241.25726318359375 11.182522773742676 274.89306640625 33.46207046508789 C 235.90029907226562 -14.307037353515625 221.0478515625 -8.327616691589355 230.86532592773438 -8.57257080078125 C 248.81985473632812 8.889527320861816 273.4992370605469 34.83080291748047 258.2655944824219 20.213106155395508"/>
    <path stroke-width="0" fill="rgb(115, 180, -49)" opacity="1.0278082" stroke="rgb(65, 216, 8)" stroke-opacity="1.0" stroke-linecap="round" stroke-linejoin="round" d="M 195.63177490234375 173.1426544189453 C 187.20887756347656 139.75669860839844 196.1007537841797 142.64126586914062 210.2770538330078 146.86131286621094 C 237.47215270996094 149.20697021484375 190.15675354003906 165.23272705078125 199.7635040283203 190.61114501953125 C 183.67477416992188 127.80618286132812 202.05650329589844 131.29611206054688 210.33871459960938 76.81361389160156 C 146.316162109375 107.77177429199219 169.88560485839844 180.63626098632812 195.63177490234375 173.1426544189453"/>
    <path stroke-width="0" fill="rgb(168, 188, 171)" opacity="0.54122734" stroke="rgb(90, 90, 4)" stroke-opacity="1.0" stroke-linecap="round" stroke-linejoin="round" d="M 229.8886260986328 494.9207458496094 C 232.89073181152344 496.31884765625 154.62905883789062 487.9871520996094 149.83741760253906 499.54559326171875 C 221.92991638183594 495.341064453125 210.29681396484375 482.66668701171875 274.77947998046875 485.8351745605469 C 343.5236511230469 483.5381164550781 300.6962585449219 499.81005859375 345.7772521972656 496.20611572265625 C 208.12030029296875 502.2225036621094 225.48526000976562 488.8799133300781 229.8886260986328 494.9207458496094"/>
    <path stroke-width="0" fill="rgb(90, 177, 30)" opacity="0.90115875" stroke="rgb(221, 115, 83)" stroke-opacity="1.0" stroke-linecap="round" stroke-linejoin="round" d="M 245.85841369628906 164.41275024414062 C 245.7031707763672 144.8274383544922 246.6626739501953 141.06076049804688 261.1690673828125 129.9615936279297 C 268.3968505859375 173.99124145507812 257.6759338378906 181.34332275390625 265.02642822265625 147.2689666748047 C 269.8104553222656 150.16607666015625 276.8623046875 157.9182586669922 227.75161743164062 149.38919067382812 C 233.2507781982422 142.67672729492188 258.76409912109375 149.55589294433594 245.85841369628906 164.41275024414062"/>
    <path stroke-width="0" fill="rgb(98, 52, 75)" opacity="0.72373044" stroke="rgb(33, 3, 29)" stroke-opacity="1.0" stroke-linecap="round" stroke-linejoin="round" d="M 536.125 294.1974182128906 C 505.2458801269531 317.268798828125 508.6228942871094 331.8068542480469 522.595703125 340.4447021484375 C 525.0210571289062 249.4646759033203 538.9830932617188 296.47125244140625 499.42816162109375 296.953369140625 C 467.7422790527344 298.2801208496094 490.6683654785156 296.9319152832031 523.2850341796875 298.7074890136719 C 531.095947265625 267.7210388183594 536.8461303710938 289.4244079589844 536.125 294.1974182128906"/>
    <path stroke-width="0" fill="rgb(45, 52, 97)" opacity="0.103392504" stroke="rgb(248, 252, 104)" stroke-opacity="1.0" stroke-linecap="round" stroke-linejoin="round" d="M 270.3740234375 85.46977233886719 C 276.8955383300781 61.29179382324219 260.5076599121094 79.07701110839844 277.3294677734375 70.2251205444336 C 263.4347229003906 75.87854766845703 266.45404052734375 83.563720703125 274.9761962890625 80.15202331542969 C 290.3703918457031 115.73981475830078 287.5478820800781 112.07465362548828 275.0600280761719 94.29796600341797 C 271.91973876953125 89.90430450439453 275.1428527832031 80.20211791992188 270.3740234375 85.46977233886719"/>
    <path stroke-width="0" fill="rgb(90, 127, 5)" opacity="0.36295673" stroke="rgb(162, 125, 252)" stroke-opacity="1.0" stroke-linecap="round" stroke-linejoin="round" d="M 225.97763061523438 178.19407653808594 C 239.71881103515625 182.83999633789062 198.90505981445312 156.42318725585938 209.92471313476562 142.4688720703125 C 197.1684112548828 156.85426330566406 190.34934997558594 156.400390625 191.33062744140625 124.22862243652344 C 194.14730834960938 179.88165283203125 206.90966796875 133.47866821289062 217.69476318359375 161.74655151367188 C 182.2910919189453 119.92913818359375 185.8682861328125 166.07974243164062 225.97763061523438 178.19407653808594"/>
    <path stroke-width="0" fill="rgb(81, 164, 21)" opacity="1.0392425" stroke="rgb(199, 73, 61)" stroke-opacity="1.0" stroke-linecap="round" stroke-linejoin="round" d="M 247.66079711914062 132.4056396484375 C 218.46212768554688 161.36746215820312 230.5713653564453 176.30259704589844 217.2574920654297 167.82083129882812 C 243.18960571289062 182.29014587402344 201.72772216796875 203.74554443359375 227.90191650390625 194.32891845703125 C 259.0630187988281 201.6311492919922 257.2795104980469 194.8513641357422 246.0164031982422 177.58399963378906 C 229.41897583007812 177.77310180664062 299.3048095703125 164.13925170898438 247.66079711914062 132.4056396484375"/>
    <path stroke-width="0" fill="rgb(54, -12, 85)" opacity="0.62725776" stroke="rgb(62, 169, 131)" stroke-opacity="1.0" stroke-linecap="round" stroke-linejoin="round" d="M 169.2540283203125 162.5730438232422 C 167.01446533203125 147.18670654296875 174.50779724121094 149.0266571044922 165.95562744140625 131.46231079101562 C 168.43934631347656 104.24823760986328 178.96670532226562 96.17832946777344 169.93124389648438 127.02289581298828 C 167.58517456054688 112.11930847167969 172.25180053710938 120.88855743408203 166.67137145996094 139.5487518310547 C 171.16163635253906 169.4644317626953 173.66650390625 163.12606811523438 169.2540283203125 162.5730438232422"/>
    <path stroke-width="0" fill="rgb(44, 138, 74)" opacity="0.85570866" stroke="rgb(141, 73, 180)" stroke-opacity="1.0" stroke-linecap="round" stroke-linejoin="round" d="M 236.2792510986328 178.5340576171875 C 243.271728515625 134.03054809570312 225.2819061279297 166.15872192382812 215.46343994140625 179.2257537841797 C 229.04165649414062 162.24224853515625 217.76490783691406 142.9569091796875 212.0635528564453 160.5802764892578 C 207.80401611328125 160.84190368652344 222.76956176757812 161.15371704101562 220.61236572265625 175.689697265625 C 218.22512817382812 175.45352172851562 218.9524383544922 181.0813751220703 236.2792510986328 178.5340576171875"/>
    <path stroke-width="0" fill="rgb(274, 246, 147)" opacity="0.93796563" stroke="rgb(59, 88, 207)" stroke-opacity="1.0" stroke-linecap="round" stroke-linejoin="round" d="M 235.35348510742188 152.57943725585938 C 225.9109649658203 164.70928955078125 243.52565002441406 148.3633270263672 222.1927947998047 81.62728118896484 C 202.8056640625 127.66304779052734 191.42098999023438 147.87030029296875 201.65159606933594 120.5537109375 C 233.12872314453125 131.3741912841797 195.72210693359375 102.07038116455078 197.2786102294922 143.06874084472656 C 216.18801879882812 178.3531494140625 233.8627471923828 173.6161651611328 235.35348510742188 152.57943725585938"/>
    <path stroke-width="0" fill="rgb(14, 70, 79)" opacity="0.98692846" stroke="rgb(247, 230, 75)" stroke-opacity="1.0" stroke-linecap="round" stroke-linejoin="round" d="M 520.4171752929688 317.4305114746094 C 530.1004638671875 343.92352294921875 502.44219970703125 348.1446228027344 544.4114990234375 351.93585205078125 C 535.4852294921875 358.48162841796875 429.9013366699219 351.138916015625 454.8899230957031 356.3946838378906 C 471.6666564941406 303.0577697753906 471.06561279296875 310.12744140625 472.4239196777344 297.4823303222656 C 543.4468994140625 293.6286926269531 596.0311889648438 274.9014587402344 520.4171752929688 317.4305114746094"/>
    <path stroke-width="0" fill="rgb(13, 70, 89)" opacity="0.99925935" stroke="rgb(63, 27, 242)" stroke-opacity="1.0" stroke-linecap="round" stroke-linejoin="round" d="M 558.1552124023438 306.82598876953125 C 521.5855712890625 315.489013671875 489.0696105957031 323.8018493652344 552.5933227539062 322.7197265625 C 468.6457214355469 296.1015625 438.0548400878906 324.7991027832031 460.3000183105469 299.6171875 C 476.13629150390625 290.55914306640625 477.3180847167969 282.6965637207031 474.3402404785156 247.44354248046875 C 506.78607177734375 245.7587432861328 549.2315063476562 237.7860107421875 558.1552124023438 306.82598876953125"/>
    <path stroke-width="0" fill="rgb(83, 141, 72)" opacity="0.6666773" stroke="rgb(175, 14, 186)" stroke-opacity="1.0" stroke-linecap="round" stroke-linejoin="round" d="M 477.39544677734375 138.77688598632812 C 483.0872802734375 107.7266845703125 486.52081298828125 164.5679931640625 469.67596435546875 156.01133728027344 C 474.5749206542969 133.22787475585938 447.790771484375 164.0486297607422 476.3269958496094 130.66224670410156 C 468.3392333984375 123.39675903320312 456.9610595703125 144.5441436767578 459.5575256347656 151.8539581298828 C 463.50372314453125 157.0509033203125 473.73419189453125 140.588134765625 477.39544677734375 138.77688598632812"/>
    <path stroke-width="0" fill="rgb(200, 254, 176)" opacity="0.9159056" stroke="rgb(69, 96, 95)" stroke-opacity="1.0" stroke-linecap="round" stroke-linejoin="round" d="M 215.80670166015625 143.8870849609375 C 221.6203155517578 173.42527770996094 225.72158813476562 173.5061798095703 231.62535095214844 167.56546020507812 C 241.88987731933594 168.7163848876953 203.73326110839844 174.4634552001953 213.83798217773438 168.52537536621094 C 217.59036254882812 162.66334533691406 223.08355712890625 150.6044158935547 238.0343017578125 163.37173461914062 C 243.08474731445312 130.3255615234375 237.22457885742188 130.8694610595703 215.80670166015625 143.8870849609375"/>
    <path stroke-width="0" fill="rgb(52, 119, 106)" opacity="0.95727247" stroke="rgb(213, 60, 128)" stroke-opacity="1.0" stroke-linecap="round" stroke-linejoin="round" d="M 509.7027282714844 159.72128295898438 C 461.7367858886719 149.83193969726562 455.76300048828125 184.22763061523438 463.6214904785156 172.3389892578125 C 386.53741455078125 203.01431274414062 348.067626953125 169.02952575683594 459.21624755859375 154.65182495117188 C 492.639404296875 157.60397338867188 483.212646484375 139.8485565185547 411.5713195800781 -48.37273025512695 C 578.3751220703125 14.460071563720703 450.6012268066406 62.369449615478516 509.7027282714844 159.72128295898438"/>
    <path stroke-width="0" fill="rgb(68, 178, -29)" opacity="0.97526234" stroke="rgb(161, 221, 239)" stroke-opacity="1.0" stroke-linecap="round" stroke-linejoin="round" d="M 275.5804748535156 145.6647186279297 C 283.8240966796875 203.27029418945312 215.33270263671875 206.3751678466797 200.25624084472656 192.53839111328125 C 263.8408508300781 167.41452026367188 196.12973022460938 184.6702880859375 204.5048065185547 188.59664916992188 C 170.55332946777344 165.0967559814453 209.0252685546875 182.83705139160156 242.22488403320312 184.97906494140625 C 230.09814453125 196.75245666503906 243.44552612304688 171.32838439941406 275.5804748535156 145.6647186279297"/>
    <path stroke-width="0" fill="rgb(97, 191, 81)" opacity="0.8430146" stroke="rgb(18, 74, 38)" stroke-opacity="1.0" stroke-linecap="round" stroke-linejoin="round" d="M 472.9368896484375 146.70751953125 C 458.6476135253906 187.6490020751953 438.8695983886719 171.72654724121094 469.6963195800781 196.3142547607422 C 489.8467712402344 177.08778381347656 444.87322998046875 132.15377807617188 450.61224365234375 154.63424682617188 C 418.2322998046875 164.14028930664062 418.1408386230469 110.06709289550781 456.7771911621094 137.37083435058594 C 459.99945068359375 126.98756408691406 497.525634765625 125.19795227050781 472.9368896484375 146.70751953125"/>
    <path stroke-width="0" fill="rgb(100, 151, 68)" opacity="0.33837906" stroke="rgb(33, 154, 97)" stroke-opacity="1.0" stroke-linecap="round" stroke-linejoin="round" d="M 470.6544189453125 177.17930603027344 C 472.8542175292969 190.00624084472656 453.6064147949219 190.50245666503906 461.1919860839844 188.7028045654297 C 439.51617431640625 199.18325805664062 445.4527587890625 198.0360870361328 458.1776123046875 196.00845336914062 C 414.4935607910156 206.7475128173828 476.14971923828125 211.33450317382812 451.1927795410156 198.02511596679688 C 463.1606750488281 212.16111755371094 461.3925476074219 186.66961669921875 470.6544189453125 177.17930603027344"/>
    <path stroke-width="0" fill="rgb(125, 207, -56)" opacity="0.83083093" stroke="rgb(246, 139, 70)" stroke-opacity="1.0" stroke-linecap="round" stroke-linejoin="round" d="M 215.20706176757812 181.75967407226562 C 251.5165557861328 167.99566650390625 211.4470977783203 168.20774841308594 235.20863342285156 182.40408325195312 C 228.00985717773438 191.1413116455078 213.31304931640625 180.56858825683594 175.00172424316406 148.39356994628906 C 176.67111206054688 224.08737182617188 262.1019287109375 183.1268768310547 226.43601989746094 187.37998962402344 C 207.88294982910156 183.08973693847656 224.35308837890625 182.2381591796875 215.20706176757812 181.75967407226562"/>
    <path stroke-width="0" fill="rgb(260, 265, 169)" opacity="0.9423052" stroke="rgb(228, 103, 140)" stroke-opacity="1.0" stroke-linecap="round" stroke-linejoin="round" d="M 261.63055419921875 147.98605346679688 C 242.61935424804688 191.33172607421875 191.49298095703125 177.4636688232422 196.3355712890625 133.07608032226562 C 199.01783752441406 159.4749755859375 205.46841430664062 144.0206298828125 200.86973571777344 126.59745788574219 C 196.6082000732422 173.71920776367188 217.8297119140625 128.49891662597656 205.12274169921875 113.90909576416016 C 201.4004364013672 66.4971694946289 266.81842041015625 96.53933715820312 261.63055419921875 147.98605346679688"/>
    <path stroke-width="0" fill="rgb(82, 143, 69)" opacity="0.6461445" stroke="rgb(85, 235, 219)" stroke-opacity="1.0" stroke-linecap="round" stroke-linejoin="round" d="M 453.8966064453125 169.6340789794922 C 516.7841796875 133.04405212402344 457.9126892089844 140.28179931640625 442.08282470703125 169.0131378173828 C 435.45892333984375 181.65318298339844 474.1058654785156 173.02394104003906 449.69012451171875 157.2010955810547 C 435.7453918457031 182.3151092529297 468.87335205078125 172.1636962890625 443.5021057128906 169.34243774414062 C 520.9561767578125 171.75906372070312 472.6483459472656 153.48182678222656 453.8966064453125 169.6340789794922"/>
    <path stroke-width="0" fill="rgb(122, 189, 73)" opacity="0.26244038" stroke="rgb(64, 113, 26)" stroke-opacity="1.0" stroke-linecap="round" stroke-linejoin="round" d="M 461.40802001953125 209.78143310546875 C 380.080810546875 197.1157684326172 439.93280029296875 222.75973510742188 464.65185546875 187.35838317871094 C 482.79766845703125 210.7294464111328 439.4117736816406 200.808349609375 433.0151062011719 200.11572265625 C 417.8696594238281 186.49517822265625 431.14715576171875 174.76885986328125 441.0286560058594 186.74542236328125 C 433.2543029785156 203.7163543701172 461.5592041015625 175.3323516845703 461.40802001953125 209.78143310546875"/>
    <path stroke-width="0" fill="rgb(105, 176, 124)" opacity="0.18111865" stroke="rgb(0, 0, 0)" stroke-opacity="0.0" stroke-linecap="round" stroke-linejoin="round" d="M 77.52220916748047 12.404278755187988 C 77.39881896972656 24.790409088134766 81.20503997802734 27.402488708496094 78.4848861694336 17.16229820251465 C 61.57136917114258 13.861258506774902 62.71102523803711 16.88892364501953 69.38908386230469 20.0745849609375 C 67.17793273925781 7.400989532470703 66.16163635253906 9.100836753845215 63.255096435546875 5.638751029968262 C 75.4671859741211 4.89579439163208 75.54563903808594 6.122289180755615 77.52220916748047 12.404278755187988"/>
    <path stroke-width="0" fill="rgb(122, 174, 153)" opacity="0.20666543" stroke="rgb(0, 0, 0)" stroke-opacity="0.0" stroke-linecap="round" stroke-linejoin="round" d="M 19.03518295288086 3.618995428085327 C 21.58211898803711 12.101351737976074 20.988142013549805 19.376174926757812 29.05062484741211 17.044706344604492 C 25.515674591064453 7.892635345458984 23.250402450561523 1.3455263376235962 18.749893188476562 -1.8216902017593384 C 11.943524360656738 -1.1893250942230225 13.392111778259277 -1.1810874938964844 19.279720306396484 -2.371094226837158 C 22.51323127746582 -1.602752923965454 21.514453887939453 0.2529020309448242 19.03518295288086 3.618995428085327"/>
    <path stroke-width="0" fill="rgb(112, 109, 162)" opacity="0.008827884" stroke="rgb(0, 0, 0)" stroke-opacity="0.0" stroke-linecap="round" stroke-linejoin="round" d="M 433.7016296386719 5.388404846191406 C 431.4801940917969 14.98869514465332 434.3404846191406 19.359025955200195 428.69976806640625 16.88990592956543 C 426.1816711425781 17.652023315429688 428.5021057128906 11.276869773864746 423.3891296386719 4.540308952331543 C 418.4193420410156 -0.5931809544563293 422.9560241699219 -0.08843666315078735 429.4576110839844 1.5641542673110962 C 434.95001220703125 3.341090440750122 438.38360595703125 8.990184783935547 433.7016296386719 5.388404846191406"/>
    <path stroke-width="0" fill="rgb(104, 163, 148)" opacity="0.44168848" stroke="rgb(0, 0, 0)" stroke-opacity="0.0" stroke-linecap="round" stroke-linejoin="round" d="M 179.28968811035156 11.231681823730469 C 185.751708984375 18.863412857055664 178.53762817382812 16.33588409423828 171.985107421875 14.845972061157227 C 170.9309844970703 10.745491981506348 166.4820556640625 13.229843139648438 168.5191192626953 6.75460958480835 C 163.1084442138672 4.554017543792725 165.3848419189453 4.304660797119141 169.842041015625 -0.1317048966884613 C 179.58493041992188 -5.524167537689209 183.77268981933594 -1.3171786069869995 179.28968811035156 11.231681823730469"/>
    <path stroke-width="0" fill="rgb(114, 172, 121)" opacity="0.036793698" stroke="rgb(0, 0, 0)" stroke-opacity="0.0" stroke-linecap="round" stroke-linejoin="round" d="M 72.92416381835938 17.43780517578125 C 73.38992309570312 20.876535415649414 71.63611602783203 24.687326431274414 64.65222930908203 22.477386474609375 C 61.378074645996094 26.33641242980957 58.7684326171875 24.21746253967285 60.390933990478516 16.999004364013672 C 58.675533294677734 9.547595024108887 59.09672164916992 5.03646993637085 65.77227783203125 10.001408576965332 C 71.46375274658203 7.271803379058838 69.89598083496094 12.338052749633789 72.92416381835938 17.43780517578125"/>
    <path stroke-width="0" fill="rgb(98, 175, 144)" opacity="0.29678988" stroke="rgb(0, 0, 0)" stroke-opacity="0.0" stroke-linecap="round" stroke-linejoin="round" d="M 254.8402862548828 16.46106719970703 C 258.6224365234375 20.739885330200195 262.9980773925781 36.121089935302734 254.82437133789062 32.334903717041016 C 252.30056762695312 16.52808952331543 251.09713745117188 17.91387176513672 251.54000854492188 13.359760284423828 C 254.05519104003906 4.37025260925293 251.3238525390625 -1.2681361436843872 250.9521942138672 3.5561001300811768 C 254.39454650878906 14.166428565979004 257.4684143066406 17.724040985107422 254.8402862548828 16.46106719970703"/>
    <path stroke-width="0" fill="rgb(134, 103, 224)" opacity="0.029389292" stroke="rgb(0, 0, 0)" stroke-opacity="0.0" stroke-linecap="round" stroke-linejoin="round" d="M 236.92198181152344 30.01021385192871 C 240.99017333984375 29.726375579833984 239.81808471679688 32.07688522338867 239.89266967773438 28.820024490356445 C 233.48834228515625 27.425697326660156 230.92996215820312 24.3315372467041 222.3263702392578 22.68634033203125 C 220.9655303955078 26.075048446655273 232.2691650390625 23.586978912353516 233.79742431640625 23.014087677001953 C 231.70211791992188 21.270891189575195 233.25392150878906 28.14786720275879 236.92198181152344 30.01021385192871"/>
    <path stroke-width="0" fill="rgb(98, 131, 47)" opacity="0.30739203" stroke="rgb(0, 0, 0)" stroke-opacity="0.0" stroke-linecap="round" stroke-linejoin="round" d="M 477.67742919921875 244.81939697265625 C 482.46527099609375 246.89454650878906 476.4918518066406 247.59376525878906 474.3837585449219 249.46170043945312 C 477.1266784667969 247.42822265625 466.78253173828125 247.20851135253906 466.0641784667969 246.56932067871094 C 468.62347412109375 240.4412078857422 469.69586181640625 232.4463348388672 465.281982421875 236.87767028808594 C 475.8702087402344 242.01828002929688 480.3405456542969 244.9403533935547 477.67742919921875 244.81939697265625"/>
    <path stroke-width="0" fill="rgb(252, 167, 212)" opacity="0.046541158" stroke="rgb(0, 0, 0)" stroke-opacity="0.0" stroke-linecap="round" stroke-linejoin="round" d="M 282.87225341796875 298.5933532714844 C 286.31402587890625 311.7327575683594 285.7071228027344 315.3164978027344 280.70660400390625 310.1554870605469 C 272.241455078125 313.4627380371094 269.8758544921875 310.3692321777344 272.21343994140625 299.5666809082031 C 270.3598937988281 292.865234375 267.5509033203125 292.34527587890625 280.2332763671875 296.2156677246094 C 278.0947265625 303.7268371582031 283.6265563964844 302.51715087890625 282.87225341796875 298.5933532714844"/>
    <path stroke-width="0" fill="rgb(106, 160, 160)" opacity="0.1570912" stroke="rgb(0, 0, 0)" stroke-opacity="0.0" stroke-linecap="round" stroke-linejoin="round" d="M 124.34212493896484 84.91446685791016 C 125.4305648803711 92.5858154296875 127.65304565429688 93.11967468261719 118.93638610839844 92.26173400878906 C 114.67391967773438 95.42527770996094 121.35379791259766 93.78466796875 119.91944885253906 82.20230102539062 C 112.78485870361328 80.17028045654297 113.41226959228516 84.1275634765625 121.89151763916016 84.25287628173828 C 125.72403717041016 76.79492950439453 127.03579711914062 77.68323516845703 124.34212493896484 84.91446685791016"/>
    <path stroke-width="0" fill="rgb(101, 218, 106)" opacity="0.31917292" stroke="rgb(0, 0, 0)" stroke-opacity="0.0" stroke-linecap="round" stroke-linejoin="round" d="M 13.353667259216309 11.521095275878906 C 11.128775596618652 11.8401460647583 1.2214393615722656 8.627785682678223 5.966506481170654 10.105049133300781 C 7.001500606536865 14.7977294921875 3.548619270324707 13.287605285644531 2.089240789413452 14.7191801071167 C -0.6502811908721924 9.334659576416016 0.4803260862827301 3.3227546215057373 8.58745288848877 7.857608318328857 C 3.5268290042877197 14.355663299560547 8.563448905944824 14.460190773010254 13.353667259216309 11.521095275878906"/>
    <path stroke-width="0" fill="rgb(138, 48, 200)" opacity="-0.0073589724" stroke="rgb(0, 0, 0)" stroke-opacity="0.0" stroke-linecap="round" stroke-linejoin="round" d="M 424.970947265625 111.68596649169922 C 430.2262878417969 109.25990295410156 426.8459777832031 112.04296875 426.1512451171875 112.0898666381836 C 423.1741027832031 111.21431732177734 418.78424072265625 110.0066909790039 419.666015625 106.81098175048828 C 423.26519775390625 111.54338836669922 422.88201904296875 108.12789916992188 421.513427734375 105.416259765625 C 424.8101501464844 107.40692901611328 421.2372131347656 114.77368927001953 424.970947265625 111.68596649169922"/>
    <path stroke-width="0" fill="rgb(144, 136, 34)" opacity="0.67156833" stroke="rgb(0, 0, 0)" stroke-opacity="0.0" stroke-linecap="round" stroke-linejoin="round" d="M -65.47331237792969 73.55612182617188 C -66.54511260986328 77.55612182617188 -69.47331237792969 80.48432922363281 -73.47331237792969 81.55612182617188 C -77.47331237792969 80.48432922363281 -80.4015121459961 77.55612182617188 -81.47331237792969 73.55612182617188 C -80.4015121459961 69.55612182617188 -77.47331237792969 66.62792205810547 -73.47331237792969 65.55612182617188 C -69.47331237792969 66.62792205810547 -66.54511260986328 69.55612182617188 -65.47331237792969 73.55612182617188"/>
    <path stroke-width="0" fill="rgb(213, 53, 40)" opacity="0.03714816" stroke="rgb(0, 0, 0)" stroke-opacity="0.0" stroke-linecap="round" stroke-linejoin="round" d="M 435.19036865234375 29.89577293395996 C 434.3667297363281 37.142337799072266 434.08087158203125 41.131168365478516 432.9007568359375 43.402286529541016 C 433.013916015625 34.227901458740234 428.1746520996094 31.835908889770508 426.76898193359375 31.50292205810547 C 427.98419189453125 33.95698165893555 430.0145263671875 29.244970321655273 431.4122314453125 19.816980361938477 C 430.53717041015625 23.493135452270508 431.5967712402344 26.93366050720215 435.19036865234375 29.89577293395996"/>
    <path stroke-width="0" fill="rgb(224, 54, 196)" opacity="-0.030611608" stroke="rgb(0, 0, 0)" stroke-opacity="0.0" stroke-linecap="round" stroke-linejoin="round" d="M 303.82952880859375 183.4216766357422 C 295.2320556640625 185.56324768066406 293.9955139160156 193.04141235351562 295.34197998046875 189.62330627441406 C 296.04638671875 184.48731994628906 294.457275390625 180.2896728515625 289.90032958984375 179.6604766845703 C 282.0372314453125 174.67318725585938 283.3196716308594 170.6494598388672 293.4338684082031 174.9306640625 C 300.6971435546875 174.83541870117188 302.6460266113281 179.3162078857422 303.82952880859375 183.4216766357422"/>
    <path stroke-width="0" fill="rgb(85, 117, 124)" opacity="0.06100302" stroke="rgb(0, 0, 0)" stroke-opacity="0.0" stroke-linecap="round" stroke-linejoin="round" d="M 431.3688049316406 81.77513885498047 C 427.99835205078125 80.24156951904297 430.48614501953125 83.57559204101562 432.94146728515625 99.6843490600586 C 427.9962158203125 90.64446258544922 430.243408203125 83.93159484863281 427.1312255859375 88.284912109375 C 427.6783447265625 82.0959243774414 427.2989807128906 76.27204895019531 428.18463134765625 82.24237060546875 C 432.3182373046875 77.56280517578125 432.3756408691406 81.02678680419922 431.3688049316406 81.77513885498047"/>
    <path stroke-width="0" fill="rgb(257, 128, 54)" opacity="0.26522198" stroke="rgb(0, 0, 0)" stroke-opacity="0.0" stroke-linecap="round" stroke-linejoin="round" d="M 245.94808959960938 271.273193359375 C 244.3728790283203 278.28106689453125 248.6614532470703 283.01275634765625 255.18252563476562 279.0798034667969 C 249.1191864013672 276.15289306640625 245.8625946044922 272.37860107421875 238.4969482421875 266.84002685546875 C 234.1373748779297 266.9072265625 244.04443359375 267.8004150390625 249.0915069580078 265.8053894042969 C 247.81088256835938 268.45684814453125 249.58250427246094 273.2726745605469 245.94808959960938 271.273193359375"/>
    <path stroke-width="0" fill="rgb(29, 74, 177)" opacity="0.33277684" stroke="rgb(0, 0, 0)" stroke-opacity="0.0" stroke-linecap="round" stroke-linejoin="round" d="M -16.759288787841797 0.30070480704307556 C -17.831087112426758 4.3007049560546875 -20.759288787841797 7.228908061981201 -24.759288787841797 8.300704956054688 C -28.759288787841797 7.228908061981201 -31.68749237060547 4.3007049560546875 -32.7592887878418 0.30070480704307556 C -31.68749237060547 -3.6992952823638916 -28.759288787841797 -6.627498626708984 -24.759288787841797 -7.6992950439453125 C -20.759288787841797 -6.627498626708984 -17.831087112426758 -3.6992952823638916 -16.759288787841797 0.30070480704307556"/>
    <path stroke-width="0" fill="rgb(185, 178, 108)" opacity="0.20095456" stroke="rgb(0, 0, 0)" stroke-opacity="0.0" stroke-linecap="round" stroke-linejoin="round" d="M 335.08447265625 397.7842712402344 C 337.4452209472656 408.3968811035156 333.7736511230469 413.1112060546875 324.75067138671875 412.8382568359375 C 326.1338806152344 409.2605285644531 322.10626220703125 408.30548095703125 329.04119873046875 391.96063232421875 C 323.88604736328125 385.6785583496094 316.2552185058594 388.7559509277344 321.9588928222656 390.72271728515625 C 322.22174072265625 392.51531982421875 326.99261474609375 394.2605285644531 335.08447265625 397.7842712402344"/>
  </g>
</svg>
