<?xml version="1.0" ?>
<svg xmlns="http://www.w3.org/2000/svg" version="1.1" width="512" height="512">
  <defs/>
  <g>
    <path stroke-width="0" fill="rgb(47, 236, 12)" opacity="0.97207314" stroke="rgb(139, 182, 153)" stroke-opacity="1.0" stroke-linecap="round" stroke-linejoin="round" d="M 205.831787109375 175.67002868652344 C 84.2200698852539 69.47987365722656 142.53985595703125 168.3107452392578 -10.158064842224121 310.85693359375 C -50.38013458251953 273.6077880859375 -32.125091552734375 244.37161254882812 0.8160078525543213 198.25779724121094 C 57.36418533325195 82.95391082763672 62.12978744506836 73.32791137695312 78.612548828125 111.36034393310547 C 273.7640686035156 197.50479125976562 146.61776733398438 54.62615966796875 205.831787109375 175.67002868652344"/>
    <path stroke-width="0" fill="rgb(142, 149, 149)" opacity="0.9051367" stroke="rgb(108, 164, 111)" stroke-opacity="1.0" stroke-linecap="round" stroke-linejoin="round" d="M 145.4993896484375 -35.075233459472656 C 90.0189437866211 150.79409790039062 119.79949951171875 222.36520385742188 -4.640699863433838 262.60186767578125 C -46.547916412353516 225.74099731445312 -45.62079620361328 209.98471069335938 -47.316612243652344 66.32988739013672 C -49.11305618286133 -8.18151569366455 -55.94807434082031 -28.422311782836914 15.614151954650879 -48.40176773071289 C 199.6168670654297 -48.19676208496094 200.75816345214844 -41.44858932495117 145.4993896484375 -35.075233459472656"/>
    <path stroke-width="0" fill="rgb(186, 181, 84)" opacity="0.38047397" stroke="rgb(245, 97, 201)" stroke-opacity="1.0" stroke-linecap="round" stroke-linejoin="round" d="M 563.8391723632812 -46.56962203979492 C 586.0159912109375 497.6336975097656 588.2413940429688 535.3872680664062 530.6825561523438 497.8073425292969 C -111.65403747558594 496.63934326171875 -95.92608642578125 503.1816101074219 -73.21749114990234 491.322021484375 C 93.14771270751953 153.9982147216797 149.73818969726562 154.0609893798828 338.32708740234375 -46.883548736572266 C 391.4353942871094 -64.82481384277344 407.0115051269531 -154.88951110839844 563.8391723632812 -46.56962203979492"/>
    <path stroke-width="0" fill="rgb(33, 61, 90)" opacity="0.79036677" stroke="rgb(144, 236, 18)" stroke-opacity="1.0" stroke-linecap="round" stroke-linejoin="round" d="M 277.9932556152344 21.761531829833984 C 59.125526428222656 232.80731201171875 196.75271606445312 66.71086120605469 511.0214538574219 378.5410461425781 C 153.4287567138672 533.4700317382812 -166.08009338378906 505.2955322265625 -279.95770263671875 350.5725402832031 C 30.40373420715332 0.26292604207992554 11.276925086975098 -26.73846435546875 238.1626434326172 -44.85123825073242 C 282.7191162109375 -42.907676696777344 303.558837890625 -43.10649871826172 277.9932556152344 21.761531829833984"/>
    <path stroke-width="0" fill="rgb(218, 113, 104)" opacity="0.870626" stroke="rgb(5, 212, 198)" stroke-opacity="1.0" stroke-linecap="round" stroke-linejoin="round" d="M 257.9652404785156 314.86383056640625 C 284.39520263671875 285.97796630859375 274.6307678222656 292.9189453125 218.7607879638672 340.38092041015625 C 208.81878662109375 338.1003112792969 203.44940185546875 330.0090026855469 201.84849548339844 287.6219482421875 C 252.58143615722656 277.109619140625 283.5915832519531 286.135986328125 291.896240234375 290.1601867675781 C 237.96881103515625 293.13275146484375 249.40687561035156 304.6378479003906 257.9652404785156 314.86383056640625"/>
    <path stroke-width="0" fill="rgb(262, 142, 74)" opacity="0.976677" stroke="rgb(249, 203, 117)" stroke-opacity="1.0" stroke-linecap="round" stroke-linejoin="round" d="M 338.6150207519531 470.2479248046875 C 359.02069091796875 496.8998718261719 290.73516845703125 443.8117980957031 152.94114685058594 451.0370178222656 C 110.53175354003906 442.40838623046875 128.27752685546875 466.89971923828125 107.98076629638672 339.83013916015625 C 110.06304168701172 314.0592956542969 170.84970092773438 332.6506652832031 237.06723022460938 374.5973815917969 C 244.86514282226562 283.805908203125 327.8198547363281 252.33489990234375 338.6150207519531 470.2479248046875"/>
    <path stroke-width="0" fill="rgb(209, 98, 20)" opacity="1.0004659" stroke="rgb(30, 163, 36)" stroke-opacity="1.0" stroke-linecap="round" stroke-linejoin="round" d="M 377.04583740234375 342.1376647949219 C 355.66644287109375 461.0276184082031 368.6274108886719 459.8818054199219 336.9202575683594 446.1284484863281 C 238.2659454345703 448.3277587890625 180.45584106445312 447.5713806152344 146.32093811035156 447.2806091308594 C 121.88665771484375 210.12890625 139.57223510742188 355.5235290527344 317.1883544921875 320.4584655761719 C 357.45074462890625 341.5052185058594 368.3590087890625 316.2747497558594 377.04583740234375 342.1376647949219"/>
    <path stroke-width="0" fill="rgb(228, 120, 98)" opacity="0.90148383" stroke="rgb(133, 105, 67)" stroke-opacity="1.0" stroke-linecap="round" stroke-linejoin="round" d="M 296.997802734375 283.1882629394531 C 306.2359313964844 285.98602294921875 291.9939880371094 293.2522888183594 295.5846252441406 299.45208740234375 C 254.8929443359375 289.4755859375 254.3079376220703 289.4248046875 293.0123596191406 303.1855163574219 C 305.9015808105469 301.29217529296875 317.46063232421875 292.3818664550781 260.073486328125 291.2803039550781 C 249.96353149414062 300.6019287109375 274.1562194824219 295.94403076171875 296.997802734375 283.1882629394531"/>
    <path stroke-width="0" fill="rgb(221, 171, 123)" opacity="0.79587746" stroke="rgb(116, 144, 4)" stroke-opacity="1.0" stroke-linecap="round" stroke-linejoin="round" d="M 263.1174621582031 291.2752685546875 C 267.353759765625 333.7073669433594 260.5087890625 322.962646484375 208.64410400390625 323.1829833984375 C 94.16441345214844 348.82513427734375 147.01611328125 291.6227722167969 160.58914184570312 310.1773376464844 C 163.58740234375 256.9169616699219 145.62994384765625 275.5232238769531 280.5459289550781 279.82281494140625 C 234.2469482421875 291.294189453125 263.5751953125 281.3648681640625 263.1174621582031 291.2752685546875"/>
    <path stroke-width="0" fill="rgb(241, 157, 98)" opacity="0.8600962" stroke="rgb(156, 157, 240)" stroke-opacity="1.0" stroke-linecap="round" stroke-linejoin="round" d="M 321.39569091796875 372.5594787597656 C 289.6281433105469 369.4142150878906 325.82342529296875 351.5342102050781 263.7474365234375 355.8726806640625 C 211.03269958496094 357.54449462890625 198.65823364257812 359.0889892578125 168.36309814453125 377.85137939453125 C 168.5570068359375 263.5305480957031 173.4942626953125 283.21990966796875 372.16583251953125 267.235595703125 C 301.2027587890625 315.3175964355469 324.5838317871094 208.7106475830078 321.39569091796875 372.5594787597656"/>
    <path stroke-width="0" fill="rgb(236, 145, 101)" opacity="0.9217967" stroke="rgb(91, 111, 177)" stroke-opacity="1.0" stroke-linecap="round" stroke-linejoin="round" d="M 297.37603759765625 325.604736328125 C 350.61865234375 275.17669677734375 348.1221618652344 354.6073913574219 318.2526550292969 327.79522705078125 C 288.1401672363281 404.6101379394531 247.46620178222656 374.8561096191406 243.7578582763672 305.9420166015625 C 223.8907012939453 273.5107116699219 227.25694274902344 274.60992431640625 327.804931640625 274.9993591308594 C 313.4610900878906 270.6037902832031 342.9053649902344 323.361572265625 297.37603759765625 325.604736328125"/>
    <path stroke-width="0" fill="rgb(264, 140, 73)" opacity="1.0354136" stroke="rgb(170, 171, 53)" stroke-opacity="1.0" stroke-linecap="round" stroke-linejoin="round" d="M 335.576416015625 401.497802734375 C 332.3719787597656 422.1410217285156 334.87176513671875 414.35906982421875 229.4622344970703 415.5772399902344 C 82.45289611816406 419.1225280761719 180.77239990234375 417.98504638671875 163.42613220214844 279.9189758300781 C 179.2804718017578 267.2302551269531 123.57657623291016 267.6449890136719 297.8403015136719 267.628173828125 C 358.72064208984375 266.213623046875 287.58282470703125 320.6414489746094 335.576416015625 401.497802734375"/>
    <path stroke-width="0" fill="rgb(-3, 21, 20)" opacity="0.95731354" stroke="rgb(80, 92, 145)" stroke-opacity="1.0" stroke-linecap="round" stroke-linejoin="round" d="M 501.37884521484375 -46.99763107299805 C 594.1987915039062 317.3779602050781 519.0870971679688 344.9689636230469 436.6405029296875 400.9623107910156 C 441.1865234375 385.2505187988281 469.7119445800781 392.076904296875 455.627685546875 324.7033996582031 C 461.6639709472656 223.26011657714844 493.990478515625 258.5578918457031 392.2595520019531 251.72698974609375 C 499.77716064453125 115.17035675048828 429.08880615234375 20.27219581604004 501.37884521484375 -46.99763107299805"/>
    <path stroke-width="0" fill="rgb(80, 75, 121)" opacity="0.89022434" stroke="rgb(252, 26, 53)" stroke-opacity="1.0" stroke-linecap="round" stroke-linejoin="round" d="M 529.08056640625 402.8476257324219 C 510.7427978515625 461.2382507324219 500.5916748046875 455.4912414550781 477.9140930175781 442.5003967285156 C 444.9731750488281 520.4574584960938 445.5498352050781 409.03106689453125 447.7876281738281 448.7164611816406 C 416.9922790527344 443.0752258300781 430.3898620605469 413.8904113769531 441.25482177734375 352.77392578125 C 489.59466552734375 367.2896423339844 494.3536071777344 381.3671875 529.08056640625 402.8476257324219"/>
    <path stroke-width="0" fill="rgb(31, 44, 81)" opacity="1.0038894" stroke="rgb(166, 64, 118)" stroke-opacity="1.0" stroke-linecap="round" stroke-linejoin="round" d="M 537.4641723632812 491.8356628417969 C 560.5452880859375 492.0073547363281 537.5150146484375 483.798583984375 447.7125244140625 485.1337585449219 C 409.1968688964844 481.98504638671875 379.6838684082031 490.15838623046875 396.31585693359375 474.1764831542969 C 418.71160888671875 359.7575378417969 428.2720031738281 256.8101806640625 449.80816650390625 336.3522644042969 C 466.0714416503906 450.4757080078125 524.053466796875 397.7620849609375 537.4641723632812 491.8356628417969"/>
    <path stroke-width="0" fill="rgb(268, 228, 150)" opacity="0.5624645" stroke="rgb(40, 28, 167)" stroke-opacity="1.0" stroke-linecap="round" stroke-linejoin="round" d="M 393.03460693359375 489.3746032714844 C 634.241943359375 444.41766357421875 625.864013671875 691.9970703125 -99.06687927246094 485.09393310546875 C 428.2657775878906 466.9939270019531 450.12677001953125 506.8136901855469 338.3964538574219 448.4283447265625 C 336.7699279785156 408.1293029785156 354.1755676269531 329.7142333984375 343.46728515625 329.368408203125 C 408.1891174316406 338.5772705078125 368.21795654296875 299.6691589355469 393.03460693359375 489.3746032714844"/>
    <path stroke-width="0" fill="rgb(-26, 21, 41)" opacity="0.95871526" stroke="rgb(50, 94, 209)" stroke-opacity="1.0" stroke-linecap="round" stroke-linejoin="round" d="M 289.8941650390625 207.91476440429688 C 232.9160614013672 186.58590698242188 361.9665832519531 228.48817443847656 263.6982116699219 200.24525451660156 C 25.96674919128418 223.1808319091797 329.2806396484375 -145.2236328125 177.592041015625 159.9718780517578 C 363.2164001464844 234.75894165039062 176.2395477294922 26.06792640686035 232.74566650390625 32.15146255493164 C 327.8494567871094 109.95665740966797 312.41162109375 175.67481994628906 289.8941650390625 207.91476440429688"/>
    <path stroke-width="0" fill="rgb(92, 206, -27)" opacity="0.98879963" stroke="rgb(213, 24, 248)" stroke-opacity="1.0" stroke-linecap="round" stroke-linejoin="round" d="M 273.7764892578125 197.3791046142578 C 297.49993896484375 199.50926208496094 312.9595031738281 218.1366729736328 168.873046875 154.89999389648438 C 233.1209259033203 271.0758972167969 301.0859375 100.8671646118164 214.68467712402344 76.55255126953125 C 129.3466033935547 304.8121643066406 184.4265594482422 -26.987850189208984 250.55062866210938 52.93936538696289 C 330.6048889160156 214.741943359375 202.8642578125 173.3896942138672 273.7764892578125 197.3791046142578"/>
    <path stroke-width="0" fill="rgb(197, 108, 16)" opacity="0.93977207" stroke="rgb(249, 154, 188)" stroke-opacity="1.0" stroke-linecap="round" stroke-linejoin="round" d="M 317.0299072265625 355.4646911621094 C 336.16607666015625 474.2953186035156 370.1735534667969 224.5606231689453 317.232666015625 386.88055419921875 C 57.27241897583008 383.51885986328125 189.2696533203125 400.17669677734375 143.6739501953125 351.2472229003906 C 213.534912109375 363.1365661621094 293.9274597167969 347.2975769042969 218.92774963378906 362.05499267578125 C 267.6097106933594 352.0360107421875 237.99859619140625 356.37664794921875 317.0299072265625 355.4646911621094"/>
    <path stroke-width="0" fill="rgb(255, 224, 120)" opacity="0.94972575" stroke="rgb(72, 30, 75)" stroke-opacity="1.0" stroke-linecap="round" stroke-linejoin="round" d="M 549.4553833007812 397.0079345703125 C 526.4271850585938 424.4855041503906 488.72674560546875 423.93695068359375 437.61572265625 353.5020751953125 C 431.1006164550781 477.87554931640625 409.234375 625.2240600585938 428.4954833984375 349.2466735839844 C 392.24310302734375 373.185546875 432.9862976074219 239.15176391601562 424.5163269042969 305.31072998046875 C 519.5068969726562 334.01776123046875 543.70849609375 278.87982177734375 549.4553833007812 397.0079345703125"/>
    <path stroke-width="0" fill="rgb(246, 132, 21)" opacity="0.5113621" stroke="rgb(81, 105, 16)" stroke-opacity="1.0" stroke-linecap="round" stroke-linejoin="round" d="M 552.7025756835938 297.23468017578125 C 484.2740783691406 386.50445556640625 446.5805969238281 415.99798583984375 429.5137939453125 315.29559326171875 C 443.5269775390625 506.675537109375 402.7557678222656 594.6657104492188 440.90374755859375 354.60009765625 C 412.6526794433594 283.042724609375 428.8580627441406 325.1181335449219 516.1307373046875 307.9100341796875 C 518.238037109375 275.54443359375 530.0408325195312 279.0945129394531 552.7025756835938 297.23468017578125"/>
    <path stroke-width="0" fill="rgb(214, 255, -6)" opacity="0.962332" stroke="rgb(144, 67, 133)" stroke-opacity="1.0" stroke-linecap="round" stroke-linejoin="round" d="M 469.3009033203125 261.6961669921875 C 491.6996154785156 87.96968078613281 493.0174255371094 186.5154571533203 421.79681396484375 139.0506134033203 C 437.7015380859375 126.99034881591797 460.8466491699219 153.53570556640625 435.6571350097656 114.6938705444336 C 441.24700927734375 120.1789321899414 468.60272216796875 159.625 449.08599853515625 136.5074462890625 C 412.94610595703125 28.705846786499023 514.3282470703125 153.6436309814453 469.3009033203125 261.6961669921875"/>
    <path stroke-width="0" fill="rgb(28, 44, 83)" opacity="1.0238756" stroke="rgb(146, 236, 81)" stroke-opacity="1.0" stroke-linecap="round" stroke-linejoin="round" d="M 553.1343994140625 487.73797607421875 C 553.0545654296875 506.82989501953125 547.32421875 512.4262084960938 532.48095703125 485.92926025390625 C 484.214599609375 504.1850280761719 488.90887451171875 384.89306640625 439.61578369140625 424.2177734375 C 450.38720703125 392.54388427734375 435.3956604003906 382.7510070800781 471.1321716308594 394.5999755859375 C 514.4996948242188 401.7798767089844 544.6630249023438 381.3983154296875 553.1343994140625 487.73797607421875"/>
    <path stroke-width="0" fill="rgb(31, 56, 83)" opacity="0.4489835" stroke="rgb(33, 182, 73)" stroke-opacity="1.0" stroke-linecap="round" stroke-linejoin="round" d="M 598.2183837890625 3.3846793174743652 C 593.9190673828125 299.7571716308594 556.2720336914062 291.59539794921875 462.43255615234375 313.75067138671875 C 401.9188537597656 299.46661376953125 430.7275695800781 317.1590270996094 401.4081115722656 310.45318603515625 C 302.0931396484375 415.7728576660156 294.6367492675781 84.6103286743164 220.96060180664062 -31.297107696533203 C 616.9965209960938 -80.57600402832031 610.6663208007812 -56.13962936401367 598.2183837890625 3.3846793174743652"/>
    <path stroke-width="0" fill="rgb(240, 227, 106)" opacity="0.95031357" stroke="rgb(149, 5, 211)" stroke-opacity="1.0" stroke-linecap="round" stroke-linejoin="round" d="M 455.9149475097656 373.4070129394531 C 440.9540710449219 342.87689208984375 428.3744812011719 355.82891845703125 477.7436218261719 382.0953063964844 C 387.1175537109375 353.9193420410156 444.7653503417969 288.25537109375 379.07769775390625 546.864501953125 C 420.26300048828125 242.0733642578125 415.1707458496094 322.571533203125 495.3460388183594 308.0040588378906 C 399.2353515625 379.5063781738281 422.289306640625 345.82061767578125 455.9149475097656 373.4070129394531"/>
    <path stroke-width="0" fill="rgb(35, 55, 84)" opacity="0.98937315" stroke="rgb(172, 68, 187)" stroke-opacity="1.0" stroke-linecap="round" stroke-linejoin="round" d="M 384.1166687011719 158.21041870117188 C 365.19891357421875 615.3788452148438 334.4374084472656 361.6224670410156 337.62017822265625 482.4694519042969 C 282.28936767578125 472.1319274902344 299.4097900390625 495.0824890136719 286.1535339355469 449.62451171875 C 332.28173828125 454.4817199707031 315.4049072265625 437.5172119140625 329.3457336425781 482.74468994140625 C 392.1631164550781 463.2708740234375 406.135986328125 573.3663940429688 384.1166687011719 158.21041870117188"/>
    <path stroke-width="0" fill="rgb(30, 45, 78)" opacity="0.9998148" stroke="rgb(63, 146, 150)" stroke-opacity="1.0" stroke-linecap="round" stroke-linejoin="round" d="M 509.7473449707031 421.9167785644531 C 500.25848388671875 394.02496337890625 490.3104248046875 426.67169189453125 506.0154724121094 459.8259582519531 C 485.0255126953125 411.3987121582031 423.762451171875 443.29901123046875 438.83062744140625 354.42926025390625 C 439.0124816894531 356.76416015625 429.34686279296875 353.931884765625 503.0461120605469 355.1302185058594 C 494.10711669921875 358.3708801269531 510.99981689453125 372.2748107910156 509.7473449707031 421.9167785644531"/>
    <path stroke-width="0" fill="rgb(27, 48, 75)" opacity="0.56261474" stroke="rgb(56, 242, 114)" stroke-opacity="1.0" stroke-linecap="round" stroke-linejoin="round" d="M 514.22119140625 443.8382873535156 C 548.5046997070312 457.67095947265625 548.2293701171875 462.89361572265625 543.5504150390625 450.8100891113281 C 486.2962646484375 408.9228515625 455.1755676269531 401.1460876464844 434.75054931640625 379.1348571777344 C 436.8025207519531 349.57470703125 435.8466491699219 374.6072082519531 436.7529602050781 456.22650146484375 C 461.167236328125 379.32183837890625 478.4228515625 407.0444641113281 514.22119140625 443.8382873535156"/>
    <path stroke-width="0" fill="rgb(143, 156, 181)" opacity="0.81262314" stroke="rgb(178, 75, 207)" stroke-opacity="1.0" stroke-linecap="round" stroke-linejoin="round" d="M 146.6976776123047 63.22919845581055 C 188.57489013671875 170.59683227539062 136.28424072265625 189.54856872558594 94.80902862548828 112.62273406982422 C 78.98857879638672 102.02765655517578 74.55934143066406 95.71833801269531 71.7518310546875 80.2293701171875 C 108.19002532958984 47.33864974975586 86.13099670410156 65.4546890258789 112.2651138305664 27.828153610229492 C 137.324462890625 48.048927307128906 153.69081115722656 61.45479202270508 146.6976776123047 63.22919845581055"/>
    <path stroke-width="0" fill="rgb(34, 62, 102)" opacity="1.0042816" stroke="rgb(224, 148, 224)" stroke-opacity="1.0" stroke-linecap="round" stroke-linejoin="round" d="M 286.04571533203125 444.412109375 C 271.40191650390625 459.6854553222656 282.8279724121094 463.2715148925781 283.675048828125 480.6302490234375 C 153.92608642578125 480.540283203125 191.3364715576172 481.5802001953125 207.42184448242188 450.9455871582031 C 192.58619689941406 448.8193054199219 304.6785888671875 452.7976379394531 273.7181701660156 448.5309143066406 C 281.9549560546875 450.72802734375 273.75244140625 460.0608215332031 286.04571533203125 444.412109375"/>
    <path stroke-width="0" fill="rgb(134, 137, 140)" opacity="0.902846" stroke="rgb(184, 127, 243)" stroke-opacity="1.0" stroke-linecap="round" stroke-linejoin="round" d="M 143.4113006591797 27.183441162109375 C 140.59278869628906 37.356998443603516 133.50390625 44.95977783203125 122.89031982421875 48.60309982299805 C 65.62628173828125 45.86795425415039 59.31217575073242 38.32798385620117 58.852935791015625 26.271709442138672 C 83.620361328125 -5.129809856414795 90.56517028808594 -12.815765380859375 99.68925476074219 -15.518609046936035 C 107.0150146484375 -10.853193283081055 111.9876708984375 -1.7078865766525269 143.4113006591797 27.183441162109375"/>
    <path stroke-width="0" fill="rgb(141, 151, 156)" opacity="1.0106972" stroke="rgb(108, 154, 4)" stroke-opacity="1.0" stroke-linecap="round" stroke-linejoin="round" d="M 77.87210083007812 7.4757080078125 C 76.0114974975586 17.131580352783203 69.47274017333984 25.19709587097168 60.244876861572266 27.959606170654297 C 50.25851821899414 25.095335006713867 42.935707092285156 17.736047744750977 38.12833786010742 7.220830917358398 C 39.995460510253906 -3.1107420921325684 48.423858642578125 -10.002729415893555 59.657249450683594 -12.08018970489502 C 69.54151153564453 -9.03791332244873 76.2756576538086 -1.3298976421356201 77.87210083007812 7.4757080078125"/>
    <path stroke-width="0" fill="rgb(116, 124, 134)" opacity="0.9638826" stroke="rgb(168, 73, 157)" stroke-opacity="1.0" stroke-linecap="round" stroke-linejoin="round" d="M 73.6540298461914 16.181068420410156 C 70.66084289550781 27.16758918762207 63.304412841796875 34.56533432006836 48.046531677246094 45.53156280517578 C 21.33812713623047 48.132041931152344 12.160521507263184 48.8425178527832 42.90909194946289 38.19050598144531 C 61.103477478027344 19.774755477905273 60.131412506103516 16.044227600097656 37.67348861694336 -20.92886734008789 C 62.236305236816406 -1.5498381853103638 69.68265533447266 5.726449012756348 73.6540298461914 16.181068420410156"/>
    <path stroke-width="0" fill="rgb(78, 101, 120)" opacity="0.5579873" stroke="rgb(34, 76, 145)" stroke-opacity="1.0" stroke-linecap="round" stroke-linejoin="round" d="M 219.88568115234375 10.642754554748535 C 163.35768127441406 84.63697814941406 132.3795166015625 78.3605728149414 115.43856048583984 105.83238220214844 C 84.53643035888672 111.38067626953125 79.51688385009766 103.90812683105469 93.38416290283203 90.68817138671875 C 93.18101501464844 45.84466552734375 100.90386962890625 39.286216735839844 118.74105834960938 -8.076835632324219 C 153.80267333984375 -35.100528717041016 204.72682189941406 -41.480438232421875 219.88568115234375 10.642754554748535"/>
    <path stroke-width="0" fill="rgb(110, 107, 104)" opacity="0.8616285" stroke="rgb(146, 166, 166)" stroke-opacity="1.0" stroke-linecap="round" stroke-linejoin="round" d="M 168.6959686279297 245.86795043945312 C 176.61436462402344 207.77012634277344 124.85150909423828 211.9117889404297 47.16605758666992 193.17579650878906 C 36.99614715576172 189.66331481933594 31.26698112487793 182.12478637695312 40.51610565185547 143.4242706298828 C 58.9291877746582 86.28399658203125 66.34931182861328 79.13863372802734 61.677001953125 97.86360168457031 C 121.24925231933594 108.75310516357422 25.142240524291992 188.70506286621094 168.6959686279297 245.86795043945312"/>
    <path stroke-width="0" fill="rgb(217, 212, 197)" opacity="0.3483863" stroke="rgb(228, 93, 111)" stroke-opacity="1.0" stroke-linecap="round" stroke-linejoin="round" d="M 222.153564453125 38.906089782714844 C 189.1042938232422 38.88956069946289 155.55441284179688 154.6362762451172 165.07440185546875 167.4170379638672 C 48.07242965698242 146.3083953857422 102.84610748291016 60.75716018676758 84.89199829101562 16.160429000854492 C 87.04707336425781 6.402446269989014 94.40666961669922 -0.8849177360534668 108.2351303100586 -4.738951206207275 C 170.3201141357422 -16.874784469604492 185.74391174316406 -57.717498779296875 222.153564453125 38.906089782714844"/>
    <path stroke-width="0" fill="rgb(123, 126, 139)" opacity="0.9103925" stroke="rgb(205, 179, 25)" stroke-opacity="1.0" stroke-linecap="round" stroke-linejoin="round" d="M 85.1179428100586 44.6727409362793 C 35.00269317626953 72.99629974365234 32.99613571166992 82.21866607666016 -11.84650707244873 136.20925903320312 C -23.76293182373047 138.65989685058594 -30.73976707458496 131.9322509765625 -32.8280143737793 110.13715362548828 C -19.308401107788086 31.58078384399414 -11.267252922058105 25.175756454467773 61.99070358276367 26.541038513183594 C 74.7938232421875 26.942840576171875 82.16388702392578 32.92986297607422 85.1179428100586 44.6727409362793"/>
    <path stroke-width="0" fill="rgb(125, 144, 137)" opacity="1.0240917" stroke="rgb(182, 254, 38)" stroke-opacity="1.0" stroke-linecap="round" stroke-linejoin="round" d="M 231.7690887451172 230.097900390625 C 169.89614868164062 236.8233184814453 132.9753875732422 338.7070007324219 149.31954956054688 330.6404724121094 C -50.962623596191406 332.9059753417969 -18.650917053222656 294.7882995605469 -12.312461853027344 198.38140869140625 C -3.9303066730499268 132.62997436523438 -2.10957932472229 118.91048431396484 49.50082778930664 109.07551574707031 C 124.1380386352539 109.51472473144531 129.5952911376953 130.8136444091797 231.7690887451172 230.097900390625"/>
    <path stroke-width="0" fill="rgb(133, 143, 144)" opacity="0.9514813" stroke="rgb(41, 156, 31)" stroke-opacity="1.0" stroke-linecap="round" stroke-linejoin="round" d="M 67.85248565673828 67.37924194335938 C 65.1635513305664 78.0645751953125 58.059913635253906 85.46408081054688 -4.367997169494629 92.19418334960938 C -18.30956268310547 92.00404357910156 -28.15337371826172 88.30581665039062 -30.40452766418457 79.21770477294922 C -26.784635543823242 3.3494513034820557 -18.000425338745117 -3.135021209716797 -10.830236434936523 -2.9630517959594727 C 56.72403335571289 5.45313024520874 63.85037612915039 11.41501522064209 67.85248565673828 67.37924194335938"/>
    <path stroke-width="0" fill="rgb(148, 140, 152)" opacity="0.96674275" stroke="rgb(205, 145, 103)" stroke-opacity="1.0" stroke-linecap="round" stroke-linejoin="round" d="M 91.18270874023438 69.55473327636719 C 57.47041702270508 78.90538024902344 73.01539611816406 81.84122467041016 60.88434600830078 127.8462142944336 C 50.45081329345703 124.9291763305664 43.60502243041992 117.19660186767578 34.743858337402344 53.42913818359375 C 35.10325241088867 41.2775764465332 40.971466064453125 33.303958892822266 49.903438568115234 31.51627540588379 C 93.36273193359375 67.32827758789062 100.88735961914062 74.39759826660156 91.18270874023438 69.55473327636719"/>
    <path stroke-width="0" fill="rgb(134, 140, 148)" opacity="0.93768716" stroke="rgb(177, 115, 184)" stroke-opacity="1.0" stroke-linecap="round" stroke-linejoin="round" d="M 115.7036361694336 32.920501708984375 C 115.10574340820312 44.14213180541992 108.33495330810547 51.62621307373047 97.86510467529297 53.46464157104492 C 62.8844108581543 24.39376449584961 55.34840774536133 17.292518615722656 48.694881439208984 7.409978866577148 C 54.87059783935547 -1.4522029161453247 62.22824478149414 -9.099504470825195 71.95838928222656 -12.029455184936523 C 81.62360382080078 -9.002457618713379 88.48285675048828 -1.2316263914108276 115.7036361694336 32.920501708984375"/>
    <path stroke-width="0" fill="rgb(132, 143, 138)" opacity="0.9119407" stroke="rgb(248, 218, 2)" stroke-opacity="1.0" stroke-linecap="round" stroke-linejoin="round" d="M 112.80850219726562 16.639564514160156 C 36.92572784423828 21.160308837890625 104.75457763671875 80.2027587890625 35.30656051635742 94.41606903076172 C 26.534690856933594 88.65239715576172 18.72480583190918 81.5206069946289 14.381875038146973 71.51412963867188 C 49.989036560058594 29.53057289123535 58.33982467651367 23.795455932617188 92.70389556884766 -4.742204666137695 C 104.59114074707031 -4.308783531188965 111.2104721069336 3.6743316650390625 112.80850219726562 16.639564514160156"/>
    <path stroke-width="0" fill="rgb(152, 150, 155)" opacity="1.0173616" stroke="rgb(186, 43, 132)" stroke-opacity="1.0" stroke-linecap="round" stroke-linejoin="round" d="M 104.73115539550781 136.9003448486328 C 105.97592163085938 149.58001708984375 104.48055267333984 162.30532836914062 95.27245330810547 176.44833374023438 C 10.034764289855957 168.8111572265625 10.044635772705078 158.5165557861328 22.93416976928711 135.84918212890625 C 41.87165069580078 97.4445571899414 49.66609573364258 90.38903045654297 82.27729797363281 65.0366439819336 C 93.69692993164062 66.912109375 100.91279602050781 74.35700988769531 104.73115539550781 136.9003448486328"/>
    <path stroke-width="0" fill="rgb(124, 144, 141)" opacity="0.90463364" stroke="rgb(50, 4, 202)" stroke-opacity="1.0" stroke-linecap="round" stroke-linejoin="round" d="M 165.2418975830078 230.23556518554688 C 322.6338806152344 174.43951416015625 651.8120727539062 285.11181640625 140.14599609375 266.5105285644531 C -14.315340995788574 234.6042938232422 31.025808334350586 192.18585205078125 52.48188400268555 165.82444763183594 C 97.86895751953125 112.65620422363281 95.51567840576172 113.6105728149414 72.57626342773438 95.87589263916016 C 86.6297836303711 155.78919982910156 151.99195861816406 68.05892181396484 165.2418975830078 230.23556518554688"/>
    <path stroke-width="0" fill="rgb(129, 144, 129)" opacity="0.95409507" stroke="rgb(88, 236, 179)" stroke-opacity="1.0" stroke-linecap="round" stroke-linejoin="round" d="M 131.11497497558594 29.103286743164062 C 113.08454895019531 57.76158905029297 105.9371566772461 65.4109115600586 96.69506072998047 67.79550170898438 C 87.68524169921875 64.18099975585938 86.99111938476562 52.4080696105957 63.05819320678711 24.98180389404297 C 58.14997100830078 16.86167335510254 65.02962493896484 9.158559799194336 74.59904479980469 4.619932174682617 C 129.88328552246094 6.415089130401611 136.28256225585938 14.257853507995605 131.11497497558594 29.103286743164062"/>
    <path stroke-width="0" fill="rgb(167, 148, 164)" opacity="0.8598722" stroke="rgb(41, 158, 147)" stroke-opacity="1.0" stroke-linecap="round" stroke-linejoin="round" d="M 114.88544464111328 85.89604187011719 C 87.01134490966797 189.51321411132812 165.74588012695312 171.394775390625 117.04402923583984 121.13127136230469 C 64.99532318115234 149.4254913330078 58.2001953125 138.08969116210938 55.1210823059082 127.33792114257812 C 69.70332336425781 85.42964935302734 86.37539672851562 85.1212387084961 126.21060180664062 61.11709976196289 C 136.76239013671875 60.713775634765625 146.85301208496094 66.24263000488281 114.88544464111328 85.89604187011719"/>
    <path stroke-width="0" fill="rgb(129, 142, 140)" opacity="0.9989799" stroke="rgb(238, 156, 136)" stroke-opacity="1.0" stroke-linecap="round" stroke-linejoin="round" d="M 94.06632232666016 34.681182861328125 C 57.92064666748047 58.716896057128906 66.46560668945312 63.53977584838867 76.74344635009766 76.14313507080078 C 14.528047561645508 72.58306884765625 26.216733932495117 64.76251983642578 -1.4154670238494873 3.07000470161438 C 0.6167176961898804 -8.219541549682617 7.70470666885376 -15.566514015197754 20.00473976135254 -17.785682678222656 C 60.402225494384766 13.630722999572754 58.33055877685547 12.781181335449219 94.06632232666016 34.681182861328125"/>
    <path stroke-width="0" fill="rgb(128, 143, 140)" opacity="0.8927889" stroke="rgb(186, 79, 101)" stroke-opacity="1.0" stroke-linecap="round" stroke-linejoin="round" d="M 71.05176544189453 3.9653048515319824 C 66.37997436523438 12.134028434753418 48.67526626586914 7.576379299163818 12.561625480651855 52.539207458496094 C 0.6790754199028015 49.780208587646484 -8.216336250305176 44.01645278930664 -31.928359985351562 10.592684745788574 C -11.457196235656738 -50.801475524902344 3.0080111026763916 -43.40044403076172 33.160057067871094 -33.3226203918457 C 54.63666534423828 -17.817523956298828 62.93136978149414 -11.373497009277344 71.05176544189453 3.9653048515319824"/>
    <path stroke-width="0" fill="rgb(137, 154, 154)" opacity="0.75226057" stroke="rgb(47, 240, 188)" stroke-opacity="1.0" stroke-linecap="round" stroke-linejoin="round" d="M 147.44158935546875 41.933349609375 C 174.29237365722656 119.92068481445312 169.10255432128906 64.63752746582031 135.31016540527344 88.83723449707031 C 103.73878479003906 60.494625091552734 97.88524627685547 53.2337760925293 69.5885009765625 29.16848373413086 C 68.2240982055664 15.160325050354004 74.77713775634766 6.520613193511963 87.98242950439453 4.915943145751953 C 140.28948974609375 8.396411895751953 154.3122100830078 12.765079498291016 147.44158935546875 41.933349609375"/>
    <path stroke-width="0" fill="rgb(129, 142, 141)" opacity="0.99648625" stroke="rgb(57, 64, 14)" stroke-opacity="1.0" stroke-linecap="round" stroke-linejoin="round" d="M 117.48675537109375 164.82862854003906 C 110.70702362060547 177.36500549316406 104.05082702636719 184.68922424316406 43.02010726928711 184.1385955810547 C -21.596126556396484 176.7563934326172 -32.85017013549805 173.67726135253906 -36.84427261352539 136.64419555664062 C -11.966766357421875 69.241943359375 -0.24538394808769226 64.38862609863281 18.255475997924805 63.20188522338867 C 37.645721435546875 127.53108215332031 70.93091583251953 87.37197875976562 117.48675537109375 164.82862854003906"/>
    <path stroke-width="0" fill="rgb(168, 165, 172)" opacity="0.5636046" stroke="rgb(79, 177, 96)" stroke-opacity="1.0" stroke-linecap="round" stroke-linejoin="round" d="M 163.02439880371094 55.3789176940918 C 117.82388305664062 79.61753845214844 128.60203552246094 98.0519790649414 114.177490234375 109.29740142822266 C 78.07488250732422 99.21272277832031 85.74755859375 80.13748931884766 85.74085998535156 72.64759826660156 C 84.02772521972656 44.603694915771484 86.07389068603516 74.70285034179688 83.92597198486328 55.1861457824707 C 100.85692596435547 50.86166000366211 61.22037887573242 38.57664489746094 163.02439880371094 55.3789176940918"/>
    <path stroke-width="0" fill="rgb(129, 143, 141)" opacity="0.9010439" stroke="rgb(6, 17, 173)" stroke-opacity="1.0" stroke-linecap="round" stroke-linejoin="round" d="M 153.94036865234375 30.643617630004883 C 85.99654388427734 8.268694877624512 87.91557312011719 13.193981170654297 70.18536376953125 45.27738571166992 C 60.87382888793945 37.4515380859375 56.037940979003906 31.40876007080078 65.51546478271484 12.436182975769043 C 74.2232666015625 -10.539139747619629 81.16156768798828 -18.105714797973633 104.18470001220703 -37.8646354675293 C 90.57701110839844 -1.2156414985656738 115.10601806640625 -11.4059476852417 153.94036865234375 30.643617630004883"/>
    <path stroke-width="0" fill="rgb(126, 144, 138)" opacity="0.84148276" stroke="rgb(136, 228, 252)" stroke-opacity="1.0" stroke-linecap="round" stroke-linejoin="round" d="M 66.8924331665039 156.63662719726562 C 63.07683181762695 228.83436584472656 59.571407318115234 238.6000518798828 26.48298454284668 257.6163024902344 C -64.71121978759766 246.80828857421875 -65.43605041503906 235.17730712890625 -46.54587936401367 190.45028686523438 C -51.45711898803711 127.693359375 -45.941383361816406 118.31744384765625 -0.523456871509552 94.67595672607422 C 63.98554229736328 101.84732818603516 69.6099624633789 109.03455352783203 66.8924331665039 156.63662719726562"/>
    <path stroke-width="0" fill="rgb(88, 135, 96)" opacity="0.77434635" stroke="rgb(169, 67, 5)" stroke-opacity="1.0" stroke-linecap="round" stroke-linejoin="round" d="M 933.1881713867188 229.2068328857422 C 529.6091918945312 317.5677185058594 418.8936462402344 162.12095642089844 395.24444580078125 349.2257385253906 C 226.93386840820312 244.38705444335938 399.98895263671875 124.89993286132812 478.03961181640625 159.25958251953125 C 488.9468994140625 -17.884180068969727 356.6861572265625 395.4434814453125 370.84075927734375 -0.426384299993515 C 572.5486450195312 -65.4778823852539 602.8023071289062 -29.20888328552246 933.1881713867188 229.2068328857422"/>
    <path stroke-width="0" fill="rgb(127, 144, 137)" opacity="0.9429177" stroke="rgb(81, 97, 150)" stroke-opacity="1.0" stroke-linecap="round" stroke-linejoin="round" d="M 165.22186279296875 19.2464656829834 C 189.13160705566406 34.4864501953125 172.48800659179688 40.09568405151367 116.70532989501953 44.43436050415039 C 104.20360565185547 39.323158264160156 95.18751525878906 32.36754608154297 92.02154541015625 20.554718017578125 C 115.6558837890625 -13.04072093963623 123.36420440673828 -19.988983154296875 151.8620147705078 -32.5467643737793 C 160.8169708251953 -30.747400283813477 146.25160217285156 -4.999170303344727 165.22186279296875 19.2464656829834"/>
    <path stroke-width="0" fill="rgb(122, 145, 140)" opacity="0.9641508" stroke="rgb(160, 222, 69)" stroke-opacity="1.0" stroke-linecap="round" stroke-linejoin="round" d="M 223.46824645996094 -75.15853881835938 C 136.0244903564453 193.6507568359375 160.74171447753906 164.10630798339844 226.9932403564453 218.37403869628906 C -25.856719970703125 229.843994140625 42.552955627441406 144.4957275390625 21.47843360900879 144.9077606201172 C 108.12252807617188 94.09683227539062 78.14959716796875 66.019287109375 161.95785522460938 2.1170315742492676 C 244.0055389404297 61.68900680541992 379.0749206542969 82.34147644042969 223.46824645996094 -75.15853881835938"/>
    <path stroke-width="0" fill="rgb(127, 143, 138)" opacity="1.0049648" stroke="rgb(47, 242, 175)" stroke-opacity="1.0" stroke-linecap="round" stroke-linejoin="round" d="M 96.52146911621094 55.883758544921875 C 90.14539337158203 117.95496368408203 82.7547378540039 128.18142700195312 40.206947326660156 121.87760162353516 C 20.140993118286133 118.68946838378906 18.084306716918945 107.50402069091797 31.372472763061523 62.71933364868164 C 0.056074563413858414 45.148193359375 13.167379379272461 50.76638412475586 75.64842987060547 29.54587745666504 C 89.52174377441406 34.75352096557617 94.87384796142578 43.51523208618164 96.52146911621094 55.883758544921875"/>
    <path stroke-width="0" fill="rgb(128, 144, 140)" opacity="0.9662741" stroke="rgb(241, 186, 64)" stroke-opacity="1.0" stroke-linecap="round" stroke-linejoin="round" d="M 115.74263000488281 47.569244384765625 C 118.93742370605469 75.68917083740234 106.06048583984375 76.16961669921875 69.4468994140625 100.50515747070312 C 58.549434661865234 100.78917694091797 52.114784240722656 93.17459106445312 51.34967803955078 84.29875946044922 C 104.04597473144531 74.50669860839844 89.39320373535156 60.57185745239258 75.42932891845703 29.195898056030273 C 99.41607666015625 45.690773010253906 111.31633758544922 49.447601318359375 115.74263000488281 47.569244384765625"/>
    <path stroke-width="0" fill="rgb(76, 93, 136)" opacity="0.56729895" stroke="rgb(132, 6, 52)" stroke-opacity="1.0" stroke-linecap="round" stroke-linejoin="round" d="M 230.37562561035156 14.749310493469238 C 403.0087585449219 223.4101104736328 261.3698425292969 264.1385498046875 203.28030395507812 194.5730743408203 C 214.06639099121094 233.32553100585938 315.6153869628906 204.04617309570312 268.0234069824219 209.09034729003906 C 299.67578125 209.75082397460938 280.8905334472656 198.68759155273438 173.49391174316406 209.78587341308594 C 269.375732421875 204.61204528808594 329.9942932128906 178.0817108154297 230.37562561035156 14.749310493469238"/>
    <path stroke-width="0" fill="rgb(117, 133, 121)" opacity="0.56901425" stroke="rgb(95, 118, 70)" stroke-opacity="1.0" stroke-linecap="round" stroke-linejoin="round" d="M 110.8951187133789 276.8002624511719 C 102.90605163574219 460.71331787109375 149.41958618164062 410.27593994140625 0.33760160207748413 442.0999450683594 C -36.10030746459961 337.0097961425781 -36.57560729980469 324.3807067871094 -35.94852066040039 275.1544494628906 C -41.400962829589844 197.63021850585938 -41.09809494018555 183.4933319091797 -10.935504913330078 181.61062622070312 C 95.02638244628906 190.44651794433594 101.73394012451172 199.51364135742188 110.8951187133789 276.8002624511719"/>
    <path stroke-width="0" fill="rgb(167, 154, 54)" opacity="0.7817615" stroke="rgb(220, 29, 131)" stroke-opacity="1.0" stroke-linecap="round" stroke-linejoin="round" d="M 522.6812744140625 336.6890869140625 C 470.57513427734375 354.02545166015625 476.7996520996094 312.6600646972656 464.5862731933594 316.3126525878906 C 463.2364196777344 344.4137878417969 459.3149719238281 364.19207763671875 465.8380432128906 306.2099609375 C 459.20013427734375 304.81884765625 470.584716796875 333.3847351074219 562.7513427734375 319.52532958984375 C 515.86572265625 302.6404113769531 489.4151916503906 314.3601379394531 522.6812744140625 336.6890869140625"/>
    <path stroke-width="0" fill="rgb(239, 112, 77)" opacity="0.4771516" stroke="rgb(140, 149, 245)" stroke-opacity="1.0" stroke-linecap="round" stroke-linejoin="round" d="M 572.6614379882812 352.972900390625 C 580.9501342773438 364.7621154785156 555.2766723632812 359.2021789550781 441.4469909667969 346.08074951171875 C 471.7143859863281 329.1421813964844 481.9185791015625 321.05828857421875 509.6483459472656 298.7173156738281 C 533.5686645507812 285.1244812011719 511.8395690917969 311.1179504394531 520.8947143554688 305.3011169433594 C 525.5113525390625 291.9359130859375 521.249755859375 311.6423645019531 572.6614379882812 352.972900390625"/>
    <path stroke-width="0" fill="rgb(92, 125, 99)" opacity="0.74362576" stroke="rgb(170, 200, 71)" stroke-opacity="1.0" stroke-linecap="round" stroke-linejoin="round" d="M 442.6675109863281 185.0585174560547 C 437.6452941894531 186.4358367919922 428.5839538574219 194.9437713623047 443.0994873046875 186.49929809570312 C 441.80987548828125 208.27352905273438 463.42950439453125 205.95025634765625 431.84503173828125 197.94744873046875 C 457.1319580078125 180.68751525878906 463.43212890625 160.192626953125 467.5691833496094 204.78770446777344 C 428.6124572753906 177.717529296875 442.6777648925781 201.13613891601562 442.6675109863281 185.0585174560547"/>
    <path stroke-width="0" fill="rgb(134, 198, 66)" opacity="0.89385694" stroke="rgb(16, 123, 249)" stroke-opacity="1.0" stroke-linecap="round" stroke-linejoin="round" d="M 461.0531921386719 160.42236328125 C 493.7199401855469 170.37380981445312 500.4380798339844 155.6311798095703 469.3096008300781 202.93667602539062 C 474.7979431152344 155.26708984375 478.5815734863281 135.73870849609375 479.6547546386719 115.88373565673828 C 461.0061340332031 190.86770629882812 473.3548889160156 159.46908569335938 478.2015075683594 153.36965942382812 C 470.3957824707031 161.0726776123047 479.7125549316406 180.83816528320312 461.0531921386719 160.42236328125"/>
    <path stroke-width="0" fill="rgb(133, 198, 50)" opacity="0.955215" stroke="rgb(86, 245, 59)" stroke-opacity="1.0" stroke-linecap="round" stroke-linejoin="round" d="M 471.14520263671875 120.18989562988281 C 442.58123779296875 60.99521255493164 421.8669128417969 130.71934509277344 460.4231872558594 134.3780517578125 C 498.5672607421875 154.96669006347656 469.82281494140625 165.0072784423828 469.86993408203125 145.83953857421875 C 484.8577575683594 120.7499771118164 481.37921142578125 131.70758056640625 465.2721252441406 138.02391052246094 C 453.1724853515625 148.3986053466797 460.7096862792969 160.39198303222656 471.14520263671875 120.18989562988281"/>
    <path stroke-width="0" fill="rgb(247, 184, 110)" opacity="0.94531375" stroke="rgb(240, 203, 160)" stroke-opacity="1.0" stroke-linecap="round" stroke-linejoin="round" d="M 450.46697998046875 348.81201171875 C 422.5654296875 341.81524658203125 406.9728698730469 349.9021301269531 432.4945068359375 341.75360107421875 C 422.8204650878906 349.62921142578125 422.3825378417969 343.6913146972656 414.6047668457031 360.86895751953125 C 407.6882019042969 428.310302734375 414.6556701660156 373.3171081542969 417.330810546875 349.39666748046875 C 381.2293395996094 329.32452392578125 364.2027282714844 374.46099853515625 450.46697998046875 348.81201171875"/>
    <path stroke-width="0" fill="rgb(116, 186, 59)" opacity="0.82792413" stroke="rgb(74, 216, 157)" stroke-opacity="1.0" stroke-linecap="round" stroke-linejoin="round" d="M 460.4135437011719 128.16360473632812 C 457.64013671875 156.14891052246094 458.8365783691406 170.7240753173828 464.7398986816406 164.8157501220703 C 476.52630615234375 170.858642578125 472.9382019042969 146.35763549804688 456.302734375 195.9897003173828 C 467.2843322753906 134.76034545898438 482.93231201171875 125.19386291503906 459.4844055175781 134.81259155273438 C 454.90814208984375 150.26890563964844 437.674072265625 167.100341796875 460.4135437011719 128.16360473632812"/>
    <path stroke-width="0" fill="rgb(32, 55, 73)" opacity="0.7452872" stroke="rgb(88, 37, 250)" stroke-opacity="1.0" stroke-linecap="round" stroke-linejoin="round" d="M 382.8977966308594 414.3942565917969 C 382.2519226074219 356.95379638671875 377.7514953613281 371.2818603515625 396.5309753417969 369.3652038574219 C 354.474609375 393.0369567871094 403.1542053222656 454.4146423339844 397.0025329589844 414.6107177734375 C 422.5906066894531 298.21783447265625 376.90924072265625 397.9919128417969 385.9008483886719 364.3367919921875 C 356.76239013671875 399.4812927246094 372.03131103515625 420.24896240234375 382.8977966308594 414.3942565917969"/>
    <path stroke-width="0" fill="rgb(147, 99, 100)" opacity="0.72791415" stroke="rgb(126, 163, 93)" stroke-opacity="1.0" stroke-linecap="round" stroke-linejoin="round" d="M 562.500732421875 297.3503112792969 C 503.48260498046875 338.0379638671875 496.94610595703125 343.2876892089844 574.4067993164062 309.5257873535156 C 482.5626525878906 332.68731689453125 448.76336669921875 303.7668151855469 495.1844787597656 311.81817626953125 C 526.027587890625 331.5466613769531 527.0902709960938 331.15087890625 488.00433349609375 290.6630859375 C 475.3867492675781 275.7403869628906 516.7182006835938 273.6255187988281 562.500732421875 297.3503112792969"/>
    <path stroke-width="0" fill="rgb(103, 110, 111)" opacity="0.4861559" stroke="rgb(209, 48, 130)" stroke-opacity="1.0" stroke-linecap="round" stroke-linejoin="round" d="M 478.0458068847656 158.67974853515625 C 483.7620849609375 149.658935546875 470.228271484375 134.48379516601562 428.1593322753906 178.78570556640625 C 448.1806945800781 158.86183166503906 446.8481140136719 134.34584045410156 440.02001953125 172.2257843017578 C 461.0306701660156 175.92880249023438 455.4024658203125 126.68587493896484 479.13031005859375 123.99969482421875 C 429.65545654296875 148.5560760498047 418.06884765625 180.57957458496094 478.0458068847656 158.67974853515625"/>
    <path stroke-width="0" fill="rgb(104, 128, 91)" opacity="0.56186867" stroke="rgb(24, 219, 248)" stroke-opacity="1.0" stroke-linecap="round" stroke-linejoin="round" d="M 444.03375244140625 187.3335723876953 C 459.58782958984375 193.95326232910156 419.2552795410156 199.18841552734375 447.6904296875 223.22177124023438 C 431.8403015136719 187.04930114746094 440.9280090332031 177.31980895996094 449.40155029296875 193.8834686279297 C 425.93328857421875 197.34115600585938 445.2852783203125 197.99111938476562 443.39208984375 185.4987335205078 C 404.93829345703125 198.63037109375 453.5068664550781 214.18780517578125 444.03375244140625 187.3335723876953"/>
    <path stroke-width="0" fill="rgb(253, 215, 126)" opacity="0.98339826" stroke="rgb(231, 197, 84)" stroke-opacity="1.0" stroke-linecap="round" stroke-linejoin="round" d="M 154.37139892578125 515.67919921875 C 144.9495391845703 511.8708801269531 173.0314178466797 508.6551513671875 143.65037536621094 498.87054443359375 C 130.9589080810547 493.06585693359375 163.41867065429688 474.6748962402344 163.2515869140625 477.09515380859375 C 126.09554290771484 492.3865966796875 140.95004272460938 503.9531555175781 143.75418090820312 450.52410888671875 C 171.1037139892578 450.23590087890625 145.32839965820312 442.35888671875 154.37139892578125 515.67919921875"/>
    <path stroke-width="0" fill="rgb(74, 109, 90)" opacity="0.9400768" stroke="rgb(103, 59, 33)" stroke-opacity="1.0" stroke-linecap="round" stroke-linejoin="round" d="M 522.3592529296875 193.10694885253906 C 486.34814453125 124.11671447753906 483.5058898925781 132.0490264892578 477.9247131347656 90.63175201416016 C 468.36029052734375 125.9129867553711 429.73028564453125 116.08860778808594 470.19317626953125 194.712646484375 C 474.9964599609375 158.92774963378906 470.299072265625 151.07135009765625 513.5021362304688 129.505126953125 C 449.2076110839844 154.42477416992188 515.2464599609375 142.11489868164062 522.3592529296875 193.10694885253906"/>
    <path stroke-width="0" fill="rgb(245, 215, 178)" opacity="0.83580416" stroke="rgb(185, 2, 196)" stroke-opacity="1.0" stroke-linecap="round" stroke-linejoin="round" d="M 236.05966186523438 163.0255889892578 C 238.29428100585938 126.48809051513672 238.5408935546875 140.63291931152344 231.91473388671875 138.38754272460938 C 247.2431640625 170.8489227294922 193.9522705078125 167.86761474609375 209.1377716064453 141.8599395751953 C 213.01190185546875 114.52497100830078 227.09617614746094 103.21150207519531 238.45233154296875 134.51829528808594 C 235.15750122070312 158.7510223388672 232.91647338867188 176.21144104003906 236.05966186523438 163.0255889892578"/>
    <path stroke-width="0" fill="rgb(152, 125, 82)" opacity="0.6840854" stroke="rgb(20, 22, 171)" stroke-opacity="1.0" stroke-linecap="round" stroke-linejoin="round" d="M 572.5381469726562 498.98895263671875 C 379.25030517578125 488.34918212890625 380.0389709472656 507.8307800292969 400.0241394042969 479.5550537109375 C 385.6315002441406 493.27349853515625 398.693603515625 494.6015625 387.9812927246094 498.723876953125 C 401.74847412109375 471.18853759765625 397.62921142578125 474.35955810546875 396.9382019042969 480.6516418457031 C 394.826171875 502.004638671875 350.41107177734375 493.9263610839844 572.5381469726562 498.98895263671875"/>
    <path stroke-width="0" fill="rgb(110, 172, 75)" opacity="0.36614728" stroke="rgb(107, 142, 219)" stroke-opacity="1.0" stroke-linecap="round" stroke-linejoin="round" d="M 472.2794189453125 161.65493774414062 C 464.5244140625 152.45912170410156 430.86273193359375 197.0480499267578 433.8251647949219 170.68434143066406 C 451.86956787109375 166.4888916015625 438.23248291015625 161.95822143554688 432.1203308105469 187.4832763671875 C 423.2441711425781 204.2821807861328 436.57183837890625 185.17063903808594 457.74090576171875 173.56109619140625 C 468.9752502441406 193.08114624023438 455.59967041015625 149.65972900390625 472.2794189453125 161.65493774414062"/>
    <path stroke-width="0" fill="rgb(263, 272, 166)" opacity="0.8191923" stroke="rgb(68, 33, 14)" stroke-opacity="1.0" stroke-linecap="round" stroke-linejoin="round" d="M 227.40872192382812 86.10275268554688 C 227.38656616210938 74.25051879882812 245.45716857910156 100.5285415649414 250.2505340576172 149.09539794921875 C 254.58364868164062 163.8939208984375 193.2450408935547 172.59152221679688 198.9418182373047 136.96861267089844 C 209.27210998535156 72.81831359863281 236.79803466796875 59.00232696533203 224.6865692138672 96.17398834228516 C 220.70452880859375 107.40351104736328 222.50413513183594 107.13873291015625 227.40872192382812 86.10275268554688"/>
    <path stroke-width="0" fill="rgb(188, 176, 58)" opacity="0.17867894" stroke="rgb(66, 116, 174)" stroke-opacity="1.0" stroke-linecap="round" stroke-linejoin="round" d="M 513.1134033203125 297.529296875 C 552.3458862304688 330.3031311035156 490.8088684082031 303.6708679199219 467.6686706542969 321.37994384765625 C 512.1604614257812 333.2690734863281 473.1534729003906 310.3741760253906 477.75787353515625 344.2645568847656 C 485.032470703125 344.7042236328125 482.094482421875 339.9822692871094 429.03704833984375 339.6498107910156 C 508.641357421875 365.7720642089844 508.1842041015625 323.32220458984375 513.1134033203125 297.529296875"/>
    <path stroke-width="0" fill="rgb(92, 85, 61)" opacity="0.71395385" stroke="rgb(72, 96, 46)" stroke-opacity="1.0" stroke-linecap="round" stroke-linejoin="round" d="M 509.1422119140625 304.9447021484375 C 483.0073547363281 279.7446594238281 467.6374206542969 296.3046875 484.85528564453125 275.6982421875 C 472.41162109375 310.0811767578125 452.2403564453125 298.8674011230469 477.265380859375 322.9939880371094 C 472.065185546875 330.1507568359375 484.7962646484375 314.4660339355469 457.3863830566406 301.7312316894531 C 462.41937255859375 296.6265563964844 498.6925354003906 287.0534973144531 509.1422119140625 304.9447021484375"/>
    <path stroke-width="0" fill="rgb(108, 211, -27)" opacity="0.84305775" stroke="rgb(109, 130, 136)" stroke-opacity="1.0" stroke-linecap="round" stroke-linejoin="round" d="M 242.26904296875 58.771663665771484 C 219.4470977783203 71.9545669555664 194.66119384765625 103.37541198730469 186.331787109375 97.09890747070312 C 198.94259643554688 160.84005737304688 176.49993896484375 81.46717071533203 204.31414794921875 53.84926986694336 C 238.12078857421875 40.76234817504883 272.36004638671875 91.86673736572266 220.265625 95.54027557373047 C 238.9896697998047 94.1004638671875 263.16912841796875 84.39419555664062 242.26904296875 58.771663665771484"/>
    <path stroke-width="0" fill="rgb(249, 225, 140)" opacity="0.96626407" stroke="rgb(70, 32, 100)" stroke-opacity="1.0" stroke-linecap="round" stroke-linejoin="round" d="M 187.0175323486328 479.1775207519531 C 191.5791473388672 442.93212890625 184.925048828125 470.1904602050781 177.38400268554688 477.1932067871094 C 173.8123779296875 461.1579284667969 187.79397583007812 442.6772155761719 192.20973205566406 495.54693603515625 C 201.85585021972656 481.8827819824219 196.01222229003906 470.19427490234375 204.1333465576172 451.71710205078125 C 187.69931030273438 435.67962646484375 190.4212646484375 489.0933837890625 187.0175323486328 479.1775207519531"/>
    <path stroke-width="0" fill="rgb(77, 93, 104)" opacity="0.9941026" stroke="rgb(47, 230, 138)" stroke-opacity="1.0" stroke-linecap="round" stroke-linejoin="round" d="M 189.7841339111328 480.02752685546875 C 134.76339721679688 478.8840026855469 153.10423278808594 489.56707763671875 157.0866241455078 452.593994140625 C 206.32183837890625 452.01678466796875 198.83937072753906 452.9056701660156 163.31338500976562 463.177001953125 C 151.978515625 465.7471923828125 160.5411834716797 445.36767578125 160.44845581054688 463.718017578125 C 215.71743774414062 450.1665954589844 186.73770141601562 435.3378601074219 189.7841339111328 480.02752685546875"/>
    <path stroke-width="0" fill="rgb(261, 254, 173)" opacity="0.83346796" stroke="rgb(224, 116, 184)" stroke-opacity="1.0" stroke-linecap="round" stroke-linejoin="round" d="M 220.9285888671875 150.6226806640625 C 244.5108184814453 150.9017333984375 262.6214294433594 149.14100646972656 192.78025817871094 144.9898223876953 C 192.62208557128906 120.2211685180664 228.44482421875 30.3206844329834 233.1127166748047 108.45130157470703 C 260.9539794921875 122.41764068603516 234.47930908203125 67.76721954345703 224.47946166992188 76.94886779785156 C 236.81271362304688 87.56221008300781 233.2295379638672 125.37117767333984 220.9285888671875 150.6226806640625"/>
    <path stroke-width="0" fill="rgb(123, 212, -23)" opacity="0.75479716" stroke="rgb(192, 162, 61)" stroke-opacity="1.0" stroke-linecap="round" stroke-linejoin="round" d="M 257.6983947753906 93.25874328613281 C 243.8094482421875 71.49430084228516 222.69398498535156 26.295059204101562 251.34298706054688 76.87992095947266 C 250.33456420898438 76.7091064453125 247.98500061035156 72.73251342773438 264.8138732910156 112.24624633789062 C 283.5075378417969 217.27818298339844 268.024169921875 132.7230682373047 220.1110382080078 50.274330139160156 C 252.9606475830078 43.76081848144531 246.23870849609375 80.19175720214844 257.6983947753906 93.25874328613281"/>
    <path stroke-width="0" fill="rgb(120, 207, 44)" opacity="0.756437" stroke="rgb(203, 244, 116)" stroke-opacity="1.0" stroke-linecap="round" stroke-linejoin="round" d="M 445.8734436035156 176.3718719482422 C 480.11724853515625 139.74191284179688 460.9447326660156 167.6800994873047 438.58612060546875 177.51953125 C 467.6271667480469 186.07940673828125 444.36407470703125 204.02586364746094 429.1114501953125 198.9756317138672 C 417.72723388671875 172.84475708007812 486.6753845214844 171.61181640625 462.2900390625 137.83888244628906 C 473.3297424316406 176.29067993164062 497.43902587890625 131.1059112548828 445.8734436035156 176.3718719482422"/>
    <path stroke-width="0" fill="rgb(110, 116, 159)" opacity="0.39628965" stroke="rgb(218, 116, 242)" stroke-opacity="1.0" stroke-linecap="round" stroke-linejoin="round" d="M 197.5387420654297 26.79703712463379 C 215.8612518310547 36.278438568115234 227.11947631835938 24.589038848876953 212.3946990966797 32.300270080566406 C 222.60873413085938 45.71779251098633 238.87109375 36.09384536743164 229.84010314941406 38.6260986328125 C 218.12466430664062 37.55316925048828 226.38070678710938 38.42015838623047 259.7626953125 24.806671142578125 C 210.41297912597656 43.61901092529297 224.2290496826172 38.077510833740234 197.5387420654297 26.79703712463379"/>
    <path stroke-width="0" fill="rgb(114, 197, 12)" opacity="0.840816" stroke="rgb(209, 231, 207)" stroke-opacity="1.0" stroke-linecap="round" stroke-linejoin="round" d="M 251.9737091064453 89.25052642822266 C 258.7442626953125 88.34803009033203 233.04920959472656 85.18645477294922 247.7921142578125 92.63956451416016 C 270.5139465332031 90.9314193725586 258.9383850097656 91.8936996459961 253.53187561035156 92.47035217285156 C 263.7964172363281 139.71156311035156 250.36415100097656 84.2401351928711 249.90640258789062 76.39851379394531 C 251.9491729736328 85.1773452758789 257.9619140625 105.7567138671875 251.9737091064453 89.25052642822266"/>
    <path stroke-width="0" fill="rgb(129, 134, 152)" opacity="0.8089075" stroke="rgb(160, 101, 15)" stroke-opacity="1.0" stroke-linecap="round" stroke-linejoin="round" d="M 256.155517578125 17.098613739013672 C 234.83226013183594 23.325876235961914 218.54852294921875 28.24250030517578 240.9033966064453 21.787715911865234 C 270.05694580078125 14.843017578125 239.40219116210938 13.431131362915039 270.2805480957031 38.484432220458984 C 228.609375 -5.768551349639893 209.8812713623047 3.4655086994171143 227.7654571533203 -4.39319372177124 C 243.89662170410156 14.256118774414062 269.1833801269531 39.569801330566406 256.155517578125 17.098613739013672"/>
    <path stroke-width="0" fill="rgb(112, 199, -5)" opacity="0.9041035" stroke="rgb(65, 216, 8)" stroke-opacity="1.0" stroke-linecap="round" stroke-linejoin="round" d="M 196.6590576171875 175.1396484375 C 188.6415557861328 152.4064483642578 200.9425506591797 156.27020263671875 212.93844604492188 153.79335021972656 C 230.0748291015625 141.57521057128906 185.41180419921875 156.5100860595703 199.19552612304688 188.51589965820312 C 183.25828552246094 121.31751251220703 195.46139526367188 123.2857437133789 209.0629425048828 73.74971771240234 C 150.03421020507812 113.44184875488281 173.55996704101562 179.59059143066406 196.6590576171875 175.1396484375"/>
    <path stroke-width="0" fill="rgb(136, 136, 97)" opacity="0.7962779" stroke="rgb(90, 90, 4)" stroke-opacity="1.0" stroke-linecap="round" stroke-linejoin="round" d="M 232.1529083251953 497.4347229003906 C 230.53665161132812 498.5169677734375 148.27426147460938 489.13494873046875 144.0056915283203 499.4413757324219 C 228.60609436035156 501.9822998046875 218.0567626953125 491.7822570800781 270.3627624511719 495.2719421386719 C 337.560302734375 490.43853759765625 301.1257629394531 505.101806640625 349.4397277832031 495.4873046875 C 208.01986694335938 506.1975402832031 230.72853088378906 493.5794982910156 232.1529083251953 497.4347229003906"/>
    <path stroke-width="0" fill="rgb(96, 170, 20)" opacity="0.92789304" stroke="rgb(221, 115, 83)" stroke-opacity="1.0" stroke-linecap="round" stroke-linejoin="round" d="M 244.21775817871094 165.03421020507812 C 244.0513153076172 143.04930114746094 246.14907836914062 140.8533477783203 259.3540954589844 131.50704956054688 C 259.4252624511719 176.9644775390625 259.5420837402344 175.95318603515625 259.14434814453125 149.52774047851562 C 267.66729736328125 151.53680419921875 275.93304443359375 153.43043518066406 231.6633758544922 143.2257080078125 C 227.49131774902344 152.4930419921875 254.51231384277344 156.98202514648438 244.21775817871094 165.03421020507812"/>
    <path stroke-width="0" fill="rgb(156, 114, 90)" opacity="0.9553181" stroke="rgb(33, 3, 29)" stroke-opacity="1.0" stroke-linecap="round" stroke-linejoin="round" d="M 536.125 294.1974182128906 C 505.2458801269531 317.268798828125 508.6228942871094 331.8068542480469 522.5208740234375 340.2117919921875 C 523.8221435546875 247.0924530029297 535.2085571289062 293.8206787109375 492.95562744140625 294.81207275390625 C 465.1781921386719 293.3273010253906 489.8271789550781 294.46826171875 523.2437744140625 296.0921325683594 C 531.095947265625 267.7210388183594 536.8461303710938 289.4244079589844 536.125 294.1974182128906"/>
    <path stroke-width="0" fill="rgb(47, 58, 97)" opacity="0.623787" stroke="rgb(248, 252, 104)" stroke-opacity="1.0" stroke-linecap="round" stroke-linejoin="round" d="M 265.29278564453125 87.02462005615234 C 277.3317565917969 65.89627838134766 257.97735595703125 85.9660415649414 275.783935546875 77.40038299560547 C 263.62957763671875 80.16060638427734 264.0048522949219 90.94163513183594 268.1725769042969 85.79530334472656 C 280.77740478515625 125.73023223876953 280.92816162109375 118.30712127685547 271.4687194824219 98.03765106201172 C 269.2150573730469 94.52455139160156 271.9125061035156 85.2470703125 265.29278564453125 87.02462005615234"/>
    <path stroke-width="0" fill="rgb(57, 95, -2)" opacity="0.57677394" stroke="rgb(162, 125, 252)" stroke-opacity="1.0" stroke-linecap="round" stroke-linejoin="round" d="M 223.0540313720703 181.06509399414062 C 236.11233520507812 187.03167724609375 196.61854553222656 161.15127563476562 206.8870086669922 143.63662719726562 C 194.0748291015625 159.1236572265625 185.7477569580078 157.3755645751953 192.6343231201172 120.1136474609375 C 194.81448364257812 186.95359802246094 199.989990234375 140.32373046875 223.42681884765625 164.14024353027344 C 185.41534423828125 124.50618743896484 184.19491577148438 169.0207061767578 223.0540313720703 181.06509399414062"/>
    <path stroke-width="0" fill="rgb(73, 145, 2)" opacity="0.8953032" stroke="rgb(199, 73, 61)" stroke-opacity="1.0" stroke-linecap="round" stroke-linejoin="round" d="M 245.80943298339844 139.91909790039062 C 208.78140258789062 152.9419403076172 219.05068969726562 161.7194061279297 227.15762329101562 166.06277465820312 C 245.5901641845703 176.03990173339844 196.91552734375 195.55780029296875 223.20639038085938 190.64801025390625 C 251.72592163085938 199.0731658935547 252.16050720214844 187.10475158691406 245.67874145507812 175.50604248046875 C 218.83900451660156 179.14425659179688 287.7272033691406 169.6537322998047 245.80943298339844 139.91909790039062"/>
    <path stroke-width="0" fill="rgb(3, 23, 45)" opacity="0.68344676" stroke="rgb(62, 169, 131)" stroke-opacity="1.0" stroke-linecap="round" stroke-linejoin="round" d="M 168.82852172851562 163.33285522460938 C 167.87892150878906 151.99375915527344 174.9167022705078 147.64248657226562 167.87745666503906 132.05142211914062 C 172.95680236816406 108.92367553710938 179.5157470703125 98.69273376464844 172.08541870117188 127.1123275756836 C 166.99612426757812 116.89295196533203 169.2182159423828 123.61813354492188 171.3314666748047 141.88330078125 C 171.34336853027344 160.7404327392578 172.2130126953125 152.9767303466797 168.82852172851562 163.33285522460938"/>
    <path stroke-width="0" fill="rgb(64, 140, 21)" opacity="0.73446995" stroke="rgb(141, 73, 180)" stroke-opacity="1.0" stroke-linecap="round" stroke-linejoin="round" d="M 246.88636779785156 181.54049682617188 C 248.88311767578125 143.9187774658203 228.20155334472656 171.02236938476562 215.7262420654297 190.19622802734375 C 226.70774841308594 160.21009826660156 217.01708984375 140.27688598632812 213.42819213867188 154.81825256347656 C 213.12232971191406 156.78248596191406 226.60394287109375 158.37762451171875 222.82542419433594 183.64132690429688 C 214.66122436523438 177.30023193359375 220.0850067138672 181.3954620361328 246.88636779785156 181.54049682617188"/>
    <path stroke-width="0" fill="rgb(265, 249, 177)" opacity="0.9738094" stroke="rgb(59, 88, 207)" stroke-opacity="1.0" stroke-linecap="round" stroke-linejoin="round" d="M 229.66748046875 151.915283203125 C 218.9840545654297 173.32574462890625 236.29759216308594 157.01344299316406 222.91915893554688 90.28526306152344 C 203.01431274414062 127.63755798339844 185.23574829101562 144.59622192382812 199.98910522460938 116.38500213623047 C 235.34324645996094 132.75360107421875 196.8382568359375 104.79434967041016 194.32301330566406 144.36892700195312 C 226.3112335205078 171.9747772216797 235.9869384765625 169.9774627685547 229.66748046875 151.915283203125"/>
    <path stroke-width="0" fill="rgb(77, 126, 48)" opacity="1.0054184" stroke="rgb(247, 230, 75)" stroke-opacity="1.0" stroke-linecap="round" stroke-linejoin="round" d="M 520.4031982421875 317.5322570800781 C 530.1004638671875 343.92352294921875 502.44219970703125 348.1446228027344 549.2315063476562 344.49761962890625 C 543.2740478515625 349.7106628417969 430.6427307128906 342.0062561035156 450.1465759277344 346.69793701171875 C 460.49603271484375 292.2770690917969 461.20904541015625 301.3572082519531 464.7913513183594 302.8872985839844 C 546.1909790039062 299.0245361328125 596.3294677734375 277.66864013671875 520.4031982421875 317.5322570800781"/>
    <path stroke-width="0" fill="rgb(17, 35, 68)" opacity="0.9949646" stroke="rgb(63, 27, 242)" stroke-opacity="1.0" stroke-linecap="round" stroke-linejoin="round" d="M 560.017822265625 305.687255859375 C 521.5855712890625 315.489013671875 489.0696105957031 323.8018493652344 548.0884399414062 323.5193176269531 C 466.99951171875 293.5110778808594 438.7651672363281 322.85198974609375 457.0392761230469 296.955322265625 C 466.6321105957031 283.5299377441406 473.7324523925781 276.44415283203125 473.487060546875 251.54833984375 C 515.3377075195312 249.37100219726562 555.3694458007812 238.35438537597656 560.017822265625 305.687255859375"/>
    <path stroke-width="0" fill="rgb(108, 169, 70)" opacity="0.80120784" stroke="rgb(175, 14, 186)" stroke-opacity="1.0" stroke-linecap="round" stroke-linejoin="round" d="M 477.7940673828125 135.86439514160156 C 483.3749084472656 105.94329833984375 486.1473388671875 162.15170288085938 465.46868896484375 151.04827880859375 C 475.29425048828125 133.14418029785156 453.18731689453125 170.28761291503906 476.7459716796875 129.88140869140625 C 471.9578857421875 122.3203353881836 462.54498291015625 147.81546020507812 461.98931884765625 154.1400604248047 C 466.8349914550781 161.36683654785156 474.5448913574219 142.6760711669922 477.7940673828125 135.86439514160156"/>
    <path stroke-width="0" fill="rgb(200, 214, 124)" opacity="0.8390764" stroke="rgb(69, 96, 95)" stroke-opacity="1.0" stroke-linecap="round" stroke-linejoin="round" d="M 213.7039337158203 146.0521697998047 C 225.56588745117188 178.63414001464844 225.95660400390625 180.83355712890625 233.02989196777344 164.15985107421875 C 244.30653381347656 160.5293426513672 207.31382751464844 167.22836303710938 212.43115234375 159.11962890625 C 217.02545166015625 154.3217315673828 222.62022399902344 148.49632263183594 237.59767150878906 171.46922302246094 C 237.50534057617188 142.9285888671875 223.5406951904297 138.1832733154297 213.7039337158203 146.0521697998047"/>
    <path stroke-width="0" fill="rgb(72, 108, 94)" opacity="0.7276653" stroke="rgb(213, 60, 128)" stroke-opacity="1.0" stroke-linecap="round" stroke-linejoin="round" d="M 499.896728515625 161.42361450195312 C 468.37286376953125 152.14590454101562 465.85845947265625 189.1412811279297 468.3548889160156 175.29296875 C 381.6251220703125 198.91986083984375 342.8594970703125 161.0183563232422 454.8327941894531 148.79354858398438 C 496.30322265625 158.7489013671875 476.0838317871094 148.45501708984375 396.934814453125 -32.78583526611328 C 576.4388427734375 21.234495162963867 444.46136474609375 64.2950439453125 499.896728515625 161.42361450195312"/>
    <path stroke-width="0" fill="rgb(97, 221, -19)" opacity="0.76607066" stroke="rgb(161, 221, 239)" stroke-opacity="1.0" stroke-linecap="round" stroke-linejoin="round" d="M 272.26483154296875 142.9725799560547 C 274.55902099609375 201.67532348632812 216.20094299316406 206.4974822998047 211.7415313720703 191.63790893554688 C 268.2195129394531 170.7470245361328 198.59657287597656 184.82652282714844 208.46807861328125 190.7300567626953 C 166.61614990234375 164.63592529296875 208.71170043945312 180.57687377929688 233.76702880859375 178.05996704101562 C 224.04925537109375 193.6024169921875 242.55885314941406 172.65737915039062 272.26483154296875 142.9725799560547"/>
    <path stroke-width="0" fill="rgb(121, 203, 56)" opacity="0.7042083" stroke="rgb(18, 74, 38)" stroke-opacity="1.0" stroke-linecap="round" stroke-linejoin="round" d="M 474.7972717285156 146.5086212158203 C 465.39404296875 195.5316619873047 446.98834228515625 176.60121154785156 467.0437316894531 200.48870849609375 C 487.6982421875 173.6126708984375 445.686767578125 127.0286636352539 452.3045349121094 149.59698486328125 C 418.56256103515625 162.48095703125 419.8910217285156 115.30989837646484 460.90216064453125 147.42764282226562 C 458.3854064941406 125.24842834472656 492.74664306640625 123.04087829589844 474.7972717285156 146.5086212158203"/>
    <path stroke-width="0" fill="rgb(88, 117, 84)" opacity="0.43158963" stroke="rgb(33, 154, 97)" stroke-opacity="1.0" stroke-linecap="round" stroke-linejoin="round" d="M 471.654541015625 177.63702392578125 C 473.0281066894531 189.0958709716797 456.5126647949219 187.3037872314453 470.5745544433594 198.19573974609375 C 442.5524597167969 205.7345733642578 443.7786560058594 199.6709747314453 462.0809631347656 199.9399871826172 C 417.71173095703125 205.20123291015625 478.6725769042969 211.793701171875 449.8951110839844 208.97531127929688 C 462.44122314453125 213.29856872558594 463.7103271484375 187.5000457763672 471.654541015625 177.63702392578125"/>
    <path stroke-width="0" fill="rgb(109, 219, 0)" opacity="0.7476584" stroke="rgb(246, 139, 70)" stroke-opacity="1.0" stroke-linecap="round" stroke-linejoin="round" d="M 210.1876678466797 182.78697204589844 C 247.123046875 162.72036743164062 208.9723358154297 168.7870330810547 235.94500732421875 181.44479370117188 C 232.2584686279297 188.7959442138672 210.8751983642578 181.0204620361328 177.6521453857422 142.69293212890625 C 174.54673767089844 214.26730346679688 256.84906005859375 173.79296875 229.17921447753906 185.88478088378906 C 207.1881103515625 187.9241943359375 223.00051879882812 188.1642303466797 210.1876678466797 182.78697204589844"/>
    <path stroke-width="0" fill="rgb(257, 259, 176)" opacity="0.99841243" stroke="rgb(228, 103, 140)" stroke-opacity="1.0" stroke-linecap="round" stroke-linejoin="round" d="M 256.1017761230469 149.73207092285156 C 242.85433959960938 190.3105010986328 188.31558227539062 178.7872314453125 193.12594604492188 131.9835968017578 C 208.7167510986328 149.40782165527344 205.62594604492188 140.94033813476562 195.57736206054688 127.2960205078125 C 193.01882934570312 169.9678955078125 218.78868103027344 128.07228088378906 199.29800415039062 124.65296936035156 C 199.88099670410156 77.50544738769531 265.10491943359375 100.71338653564453 256.1017761230469 149.73207092285156"/>
    <path stroke-width="0" fill="rgb(119, 198, -18)" opacity="0.9816151" stroke="rgb(116, 102, 63)" stroke-opacity="1.0" stroke-linecap="round" stroke-linejoin="round" d="M 235.0722198486328 190.56617736816406 C 226.8101806640625 199.31982421875 213.71697998046875 191.7344207763672 208.1018524169922 180.5003662109375 C 259.3834228515625 178.6680145263672 254.49484252929688 163.1442108154297 263.9474182128906 172.51219177246094 C 228.52371215820312 199.6559600830078 236.33651733398438 184.06503295898438 230.3652801513672 187.13014221191406 C 212.0850372314453 184.339599609375 227.51271057128906 185.668701171875 235.0722198486328 190.56617736816406"/>
    <path stroke-width="0" fill="rgb(79, 103, 96)" opacity="0.69619656" stroke="rgb(85, 235, 219)" stroke-opacity="1.0" stroke-linecap="round" stroke-linejoin="round" d="M 458.5588684082031 168.157958984375 C 523.8310546875 133.6476593017578 462.4205322265625 142.17251586914062 448.2607116699219 172.76353454589844 C 438.4749450683594 181.2254180908203 474.7434387207031 174.72119140625 450.8665466308594 163.33717346191406 C 445.1100769042969 192.5504608154297 481.6825866699219 178.58111572265625 453.90625 165.517333984375 C 520.2882080078125 166.29586791992188 470.34051513671875 148.35279846191406 458.5588684082031 168.157958984375"/>
    <path stroke-width="0" fill="rgb(120, 159, 120)" opacity="0.20352572" stroke="rgb(64, 113, 26)" stroke-opacity="1.0" stroke-linecap="round" stroke-linejoin="round" d="M 453.9043273925781 205.2308349609375 C 382.7980651855469 201.8970947265625 442.9936828613281 228.84165954589844 465.581298828125 190.99185180664062 C 478.77593994140625 205.87266540527344 440.5758361816406 196.9269256591797 428.65728759765625 201.87594604492188 C 424.00433349609375 187.99758911132812 435.8705749511719 174.55511474609375 435.61590576171875 194.53018188476562 C 435.7864074707031 209.44956970214844 457.357177734375 178.29100036621094 453.9043273925781 205.2308349609375"/>
    <path stroke-width="0" fill="rgb(123, 157, 156)" opacity="0.119176194" stroke="rgb(0, 0, 0)" stroke-opacity="0.0" stroke-linecap="round" stroke-linejoin="round" d="M 499.226806640625 10.549826622009277 C 500.2798156738281 14.324975967407227 498.4083251953125 16.79149055480957 491.8396911621094 15.267223358154297 C 487.8016662597656 16.51350975036621 486.57080078125 12.747217178344727 486.3451232910156 5.9203386306762695 C 484.1488037109375 2.1311275959014893 486.77197265625 -0.20074860751628876 493.0221252441406 -1.7198375463485718 C 497.45184326171875 -0.1881403923034668 498.3746032714844 5.254414081573486 499.226806640625 10.549826622009277"/>
    <path stroke-width="0" fill="rgb(67, 178, 161)" opacity="0.5992321" stroke="rgb(0, 0, 0)" stroke-opacity="0.0" stroke-linecap="round" stroke-linejoin="round" d="M 75.3632583618164 16.24456787109375 C 78.0488510131836 23.380062103271484 77.72352600097656 25.191532135009766 75.05033111572266 21.311466217041016 C 64.62196350097656 21.462881088256836 61.06535339355469 21.699234008789062 64.1135025024414 17.42894172668457 C 62.584007263183594 10.24374008178711 64.87498474121094 7.306139945983887 68.83155822753906 9.206093788146973 C 75.48851013183594 10.355534553527832 78.2603988647461 11.187256813049316 75.3632583618164 16.24456787109375"/>
    <path stroke-width="0" fill="rgb(198, 198, 25)" opacity="0.5820582" stroke="rgb(0, 0, 0)" stroke-opacity="0.0" stroke-linecap="round" stroke-linejoin="round" d="M 417.7632141113281 20.67102813720703 C 416.9300231933594 25.529874801635742 414.7466125488281 28.545934677124023 411.0843200683594 27.95954704284668 C 407.5146179199219 26.727903366088867 404.44879150390625 23.771636962890625 403.888916015625 20.516143798828125 C 403.7390441894531 17.878185272216797 407.1285400390625 15.288628578186035 411.72564697265625 14.168992042541504 C 414.7954406738281 13.491599082946777 417.323974609375 16.6223201751709 417.7632141113281 20.67102813720703"/>
    <path stroke-width="0" fill="rgb(196, 190, 201)" opacity="0.28187913" stroke="rgb(0, 0, 0)" stroke-opacity="0.0" stroke-linecap="round" stroke-linejoin="round" d="M 402.5661926269531 256.556396484375 C 400.6360168457031 260.9856262207031 398.7047119140625 264.5365295410156 394.8138122558594 264.9908142089844 C 390.76690673828125 263.4968566894531 387.8321228027344 260.6473693847656 387.0467224121094 256.900634765625 C 387.3971862792969 252.80047607421875 389.95721435546875 249.8810577392578 394.4181823730469 249.2497100830078 C 398.2271728515625 250.11288452148438 401.2018737792969 253.21218872070312 402.5661926269531 256.556396484375"/>
    <path stroke-width="0" fill="rgb(166, 9, 25)" opacity="0.27377537" stroke="rgb(0, 0, 0)" stroke-opacity="0.0" stroke-linecap="round" stroke-linejoin="round" d="M 59.46382522583008 46.87566375732422 C 58.52980422973633 50.81535339355469 55.45446014404297 53.7000846862793 51.76987838745117 54.40634536743164 C 48.42916488647461 53.428504943847656 45.40766143798828 50.679542541503906 44.293678283691406 46.4824104309082 C 44.219261169433594 42.368534088134766 46.95048141479492 39.55258560180664 51.06722640991211 39.6432991027832 C 55.66093063354492 40.7475471496582 59.0185546875 43.04206085205078 59.46382522583008 46.87566375732422"/>
    <path stroke-width="0" fill="rgb(13, 84, 81)" opacity="0.94680715" stroke="rgb(0, 0, 0)" stroke-opacity="0.0" stroke-linecap="round" stroke-linejoin="round" d="M -28.55197525024414 39.73600769042969 C -29.62377166748047 43.73600769042969 -32.55197525024414 46.66421127319336 -36.55197525024414 47.73600769042969 C -40.55197525024414 46.66421127319336 -43.48017883300781 43.73600769042969 -44.55197525024414 39.73600769042969 C -43.48017883300781 35.73600769042969 -40.55197525024414 32.807804107666016 -36.55197525024414 31.736007690429688 C -32.55197525024414 32.807804107666016 -29.62377166748047 35.73600769042969 -28.55197525024414 39.73600769042969"/>
    <path stroke-width="0" fill="rgb(206, 163, 46)" opacity="0.97139573" stroke="rgb(0, 0, 0)" stroke-opacity="0.0" stroke-linecap="round" stroke-linejoin="round" d="M 9.871918678283691 -2.95741868019104 C 8.512483596801758 0.8143355846405029 5.4082207679748535 3.77972412109375 1.7147821187973022 5.71040678024292 C -1.9900339841842651 5.57176399230957 -4.633090019226074 2.4697318077087402 -5.398184776306152 -1.9462637901306152 C -4.2856855392456055 -6.03697395324707 -1.3574823141098022 -8.965177536010742 2.642517566680908 -10.03697395324707 C 6.642517566680908 -8.965177536010742 9.570720672607422 -6.03697395324707 9.871918678283691 -2.95741868019104"/>
    <path stroke-width="0" fill="rgb(106, 199, 173)" opacity="0.93373775" stroke="rgb(0, 0, 0)" stroke-opacity="0.0" stroke-linecap="round" stroke-linejoin="round" d="M 451.4276123046875 149.81072998046875 C 450.83831787109375 154.68177795410156 448.01629638671875 157.52943420410156 443.6594543457031 158.22714233398438 C 439.63427734375 157.87513732910156 436.9420471191406 154.91932678222656 436.0653076171875 150.46334838867188 C 437.0876159667969 146.762451171875 440.1355895996094 143.90023803710938 443.8233642578125 142.624267578125 C 447.94146728515625 143.9907684326172 451.4750671386719 146.35218811035156 451.4276123046875 149.81072998046875"/>
    <path stroke-width="0" fill="rgb(188, 175, 20)" opacity="0.36268517" stroke="rgb(0, 0, 0)" stroke-opacity="0.0" stroke-linecap="round" stroke-linejoin="round" d="M 56.674137115478516 452.8487243652344 C 56.18355941772461 455.9967346191406 53.55850601196289 459.46807861328125 50.719200134277344 460.6196594238281 C 47.20497512817383 458.6758117675781 44.20127487182617 455.5894775390625 42.55995559692383 452.1324768066406 C 43.24031066894531 448.9010925292969 45.993282318115234 445.6701965332031 49.916954040527344 445.3265075683594 C 54.52809143066406 445.55047607421875 56.60747528076172 448.6824645996094 56.674137115478516 452.8487243652344"/>
    <path stroke-width="0" fill="rgb(221, 239, 190)" opacity="0.97244" stroke="rgb(0, 0, 0)" stroke-opacity="0.0" stroke-linecap="round" stroke-linejoin="round" d="M 428.5956115722656 357.65869140625 C 427.18023681640625 362.1861267089844 424.2922668457031 365.07220458984375 419.3115234375 366.52294921875 C 415.5771179199219 367.3373718261719 413.4935607910156 363.6467590332031 412.0985107421875 358.91412353515625 C 413.412353515625 353.8699645996094 415.755615234375 350.6184387207031 419.9278259277344 350.5227355957031 C 424.73309326171875 352.10028076171875 428.3404846191406 354.5028076171875 428.5956115722656 357.65869140625"/>
    <path stroke-width="0" fill="rgb(83, 203, 221)" opacity="0.9281039" stroke="rgb(0, 0, 0)" stroke-opacity="0.0" stroke-linecap="round" stroke-linejoin="round" d="M 25.74000358581543 7.09617805480957 C 25.569124221801758 11.287875175476074 23.18482780456543 14.53584098815918 19.39673614501953 15.756874084472656 C 15.356196403503418 14.181855201721191 13.06102466583252 10.47114086151123 12.266667366027832 6.027490615844727 C 11.430981636047363 2.015016555786133 13.723786354064941 -0.12129151821136475 19.362699508666992 -0.9658283591270447 C 23.649934768676758 -0.32216158509254456 26.008455276489258 2.839226484298706 25.74000358581543 7.09617805480957"/>
    <path stroke-width="0" fill="rgb(72, 139, 243)" opacity="0.37500927" stroke="rgb(0, 0, 0)" stroke-opacity="0.0" stroke-linecap="round" stroke-linejoin="round" d="M 30.243871688842773 468.1142883300781 C 30.28174591064453 472.5950622558594 27.88758087158203 475.3063049316406 23.067028045654297 475.34124755859375 C 17.714920043945312 475.4084167480469 14.899065971374512 472.6862487792969 14.799378395080566 468.1781005859375 C 15.195026397705078 462.2666015625 17.379194259643555 459.44671630859375 21.98343276977539 460.71832275390625 C 26.72435760498047 461.0409240722656 29.52740478515625 463.6483154296875 30.243871688842773 468.1142883300781"/>
    <path stroke-width="0" fill="rgb(145, 70, 71)" opacity="0.21357384" stroke="rgb(0, 0, 0)" stroke-opacity="0.0" stroke-linecap="round" stroke-linejoin="round" d="M 212.32989501953125 393.2281494140625 C 212.02899169921875 397.52337646484375 209.6406707763672 400.72540283203125 206.5323028564453 400.6272277832031 C 202.37745666503906 399.2074890136719 199.62002563476562 396.0697937011719 198.8358154296875 392.6977844238281 C 198.4659423828125 389.1213073730469 200.8748779296875 386.0171203613281 205.19854736328125 385.05853271484375 C 209.39358520507812 386.2308654785156 212.16049194335938 389.2238464355469 212.32989501953125 393.2281494140625"/>
    <path stroke-width="0" fill="rgb(182, 198, 43)" opacity="0.35463342" stroke="rgb(0, 0, 0)" stroke-opacity="0.0" stroke-linecap="round" stroke-linejoin="round" d="M 368.4085388183594 485.2931823730469 C 366.67919921875 490.081787109375 364.822998046875 494.0877380371094 360.2857666015625 495.323486328125 C 354.8898010253906 494.14984130859375 352.7737121582031 490.8433532714844 351.4813232421875 486.18121337890625 C 352.9733581542969 481.7754211425781 355.5631103515625 478.62158203125 359.8652038574219 478.2065124511719 C 364.59033203125 478.64599609375 367.39056396484375 481.4987487792969 368.4085388183594 485.2931823730469"/>
    <path stroke-width="0" fill="rgb(78, 96, 200)" opacity="0.54712564" stroke="rgb(0, 0, 0)" stroke-opacity="0.0" stroke-linecap="round" stroke-linejoin="round" d="M 359.2270202636719 152.10052490234375 C 358.7499694824219 155.78561401367188 355.5754089355469 158.36207580566406 351.51702880859375 158.87123107910156 C 347.4347229003906 158.27162170410156 344.35797119140625 155.59617614746094 343.9832763671875 151.50791931152344 C 344.0841369628906 147.0515899658203 347.5042419433594 145.22952270507812 352.140625 143.68136596679688 C 355.524169921875 144.46267700195312 358.40301513671875 147.34744262695312 359.2270202636719 152.10052490234375"/>
    <path stroke-width="0" fill="rgb(187, 178, 174)" opacity="0.73385495" stroke="rgb(0, 0, 0)" stroke-opacity="0.0" stroke-linecap="round" stroke-linejoin="round" d="M 48.036285400390625 190.31851196289062 C 47.140377044677734 193.98828125 43.79111862182617 196.70513916015625 41.0191650390625 197.09144592285156 C 37.43409729003906 195.41143798828125 33.14474105834961 193.48117065429688 32.21360397338867 190.51483154296875 C 33.160099029541016 186.1619110107422 36.18707275390625 183.46974182128906 40.06578063964844 183.01593017578125 C 44.185333251953125 183.29730224609375 47.08503341674805 185.9042205810547 48.036285400390625 190.31851196289062"/>
    <path stroke-width="0" fill="rgb(196, 235, 73)" opacity="0.75281435" stroke="rgb(0, 0, 0)" stroke-opacity="0.0" stroke-linecap="round" stroke-linejoin="round" d="M 287.8628845214844 278.5106506347656 C 287.3674011230469 282.0745849609375 284.7132263183594 284.9445495605469 281.58056640625 284.7519226074219 C 277.5802001953125 284.0071105957031 274.32440185546875 281.49896240234375 273.353515625 277.4562683105469 C 272.8725891113281 273.3357238769531 276.04827880859375 271.26983642578125 280.06182861328125 271.4361572265625 C 283.8880920410156 272.064697265625 286.6701354980469 275.05535888671875 287.8628845214844 278.5106506347656"/>
  </g>
</svg>
