<?xml version="1.0" ?>
<svg xmlns="http://www.w3.org/2000/svg" version="1.1" width="512" height="512">
  <defs/>
  <g>
    <path stroke-width="0" fill="rgb(42, 233, -2)" opacity="1.0179019" stroke="rgb(139, 182, 153)" stroke-opacity="1.0" stroke-linecap="round" stroke-linejoin="round" d="M 204.91702270507812 176.62109375 C 84.64523315429688 69.79132080078125 142.68325805664062 169.81039428710938 -10.118715286254883 312.10784912109375 C -50.38013458251953 273.6077880859375 -32.125091552734375 244.37161254882812 0.8188456296920776 198.25918579101562 C 57.3646354675293 82.95411682128906 62.129798889160156 73.32791137695312 78.0625228881836 111.82086944580078 C 273.1363525390625 198.5200958251953 145.9168701171875 56.90587615966797 204.91702270507812 176.62109375"/>
    <path stroke-width="0" fill="rgb(137, 142, 147)" opacity="0.9397212" stroke="rgb(108, 164, 111)" stroke-opacity="1.0" stroke-linecap="round" stroke-linejoin="round" d="M 145.50735473632812 -35.10960388183594 C 90.01864624023438 150.8228759765625 120.07598876953125 222.6121368408203 -4.377351760864258 262.86309814453125 C -46.547916412353516 225.74099731445312 -45.62079620361328 209.98471069335938 -47.316612243652344 66.32988739013672 C -49.11305618286133 -8.18151569366455 -55.94807434082031 -28.422311782836914 15.614151954650879 -48.40176773071289 C 199.6168670654297 -48.19676208496094 200.75816345214844 -41.44858932495117 145.50735473632812 -35.10960388183594"/>
    <path stroke-width="0" fill="rgb(176, 171, 85)" opacity="0.37846747" stroke="rgb(245, 97, 201)" stroke-opacity="1.0" stroke-linecap="round" stroke-linejoin="round" d="M 563.8391723632812 -46.56962203979492 C 586.0159912109375 497.6336975097656 588.2413940429688 535.3872680664062 532.7034301757812 500.03387451171875 C -108.9539794921875 499.6863708496094 -93.55624389648438 506.2350769042969 -71.40086364746094 494.20367431640625 C 92.54727935791016 152.35446166992188 147.2822723388672 151.42515563964844 338.861572265625 -46.35844802856445 C 391.4353942871094 -64.82481384277344 407.0115051269531 -154.88951110839844 563.8391723632812 -46.56962203979492"/>
    <path stroke-width="0" fill="rgb(40, 55, 85)" opacity="0.7965578" stroke="rgb(144, 236, 18)" stroke-opacity="1.0" stroke-linecap="round" stroke-linejoin="round" d="M 278.0656433105469 22.309404373168945 C 58.99265670776367 235.66429138183594 194.7408905029297 69.84241485595703 512.1995239257812 380.00506591796875 C 156.21885681152344 535.4410400390625 -162.70968627929688 506.5914001464844 -276.6250915527344 351.2232360839844 C 30.472640991210938 0.280441552400589 11.31970500946045 -26.741670608520508 237.48963928222656 -44.99989700317383 C 280.1168212890625 -44.8494987487793 300.8010559082031 -45.61220169067383 278.0656433105469 22.309404373168945"/>
    <path stroke-width="0" fill="rgb(230, 121, 93)" opacity="0.91791314" stroke="rgb(5, 212, 198)" stroke-opacity="1.0" stroke-linecap="round" stroke-linejoin="round" d="M 257.9652404785156 314.86383056640625 C 284.39520263671875 285.97796630859375 274.6307678222656 292.9189453125 218.7607879638672 340.38092041015625 C 208.81878662109375 338.1003112792969 203.44940185546875 330.0090026855469 201.84849548339844 287.6219482421875 C 252.58143615722656 277.109619140625 283.5915832519531 286.135986328125 291.896240234375 290.1601867675781 C 237.96881103515625 293.13275146484375 249.40687561035156 304.6378479003906 257.9652404785156 314.86383056640625"/>
    <path stroke-width="0" fill="rgb(259, 156, 92)" opacity="0.96958244" stroke="rgb(249, 203, 117)" stroke-opacity="1.0" stroke-linecap="round" stroke-linejoin="round" d="M 339.88726806640625 467.540283203125 C 361.7406921386719 493.831787109375 294.65789794921875 441.728271484375 151.53968811035156 451.5684814453125 C 109.7447509765625 443.7528991699219 128.1339874267578 467.85992431640625 108.19330596923828 340.93536376953125 C 111.24311065673828 314.7735290527344 172.12857055664062 332.3304748535156 238.15704345703125 373.4794921875 C 244.79412841796875 283.9251708984375 328.5341796875 252.07505798339844 339.88726806640625 467.540283203125"/>
    <path stroke-width="0" fill="rgb(202, 81, 1)" opacity="0.9983919" stroke="rgb(30, 163, 36)" stroke-opacity="1.0" stroke-linecap="round" stroke-linejoin="round" d="M 377.1244812011719 342.43109130859375 C 356.8995056152344 462.0488586425781 368.69854736328125 462.882080078125 334.38360595703125 447.41943359375 C 238.2179718017578 447.8416748046875 179.514892578125 447.6349182128906 145.4617156982422 447.57080078125 C 122.21587371826172 208.9095458984375 140.1513671875 353.5434875488281 316.9149169921875 322.89599609375 C 355.6495361328125 344.2143859863281 369.60076904296875 317.7998962402344 377.1244812011719 342.43109130859375"/>
    <path stroke-width="0" fill="rgb(232, 117, 100)" opacity="0.9170367" stroke="rgb(133, 105, 67)" stroke-opacity="1.0" stroke-linecap="round" stroke-linejoin="round" d="M 296.997802734375 283.1882629394531 C 306.2359313964844 285.98602294921875 291.9939880371094 293.2522888183594 295.5846252441406 299.45208740234375 C 254.8929443359375 289.4755859375 254.3079376220703 289.4248046875 293.0123596191406 303.1855163574219 C 305.9015808105469 301.29217529296875 317.46063232421875 292.3818664550781 260.073486328125 291.2803039550781 C 249.96353149414062 300.6019287109375 274.1562194824219 295.94403076171875 296.997802734375 283.1882629394531"/>
    <path stroke-width="0" fill="rgb(250, 187, 142)" opacity="0.84342664" stroke="rgb(116, 144, 4)" stroke-opacity="1.0" stroke-linecap="round" stroke-linejoin="round" d="M 263.1174621582031 291.2752685546875 C 267.353759765625 333.7073669433594 260.5087890625 322.962646484375 206.70843505859375 325.7593688964844 C 92.07254028320312 351.46844482421875 143.61082458496094 290.9964294433594 161.78053283691406 309.7105407714844 C 164.7783203125 254.45736694335938 144.39593505859375 273.055908203125 278.3014831542969 278.7760925292969 C 234.2469482421875 291.294189453125 263.5751953125 281.3648681640625 263.1174621582031 291.2752685546875"/>
    <path stroke-width="0" fill="rgb(248, 182, 121)" opacity="0.94332826" stroke="rgb(156, 157, 240)" stroke-opacity="1.0" stroke-linecap="round" stroke-linejoin="round" d="M 320.3360595703125 373.5232849121094 C 289.6281433105469 369.4142150878906 325.82342529296875 351.5342102050781 263.7474365234375 355.8726806640625 C 211.03269958496094 357.54449462890625 198.65823364257812 359.0889892578125 168.272216796875 377.1336975097656 C 167.68727111816406 262.3399963378906 172.65223693847656 282.3213195800781 371.94354248046875 267.11041259765625 C 300.5130920410156 315.5224914550781 322.52154541015625 208.9656982421875 320.3360595703125 373.5232849121094"/>
    <path stroke-width="0" fill="rgb(250, 148, 93)" opacity="0.9841209" stroke="rgb(91, 111, 177)" stroke-opacity="1.0" stroke-linecap="round" stroke-linejoin="round" d="M 296.5072021484375 324.88739013671875 C 353.612060546875 273.1575622558594 350.38201904296875 354.05401611328125 317.7552185058594 329.24169921875 C 286.9013671875 403.72332763671875 247.41549682617188 374.83404541015625 243.75782775878906 305.9425964355469 C 223.88832092285156 273.6031188964844 227.18719482421875 275.0994873046875 325.45111083984375 276.9371337890625 C 309.5265808105469 270.4530029296875 338.9891357421875 322.5820007324219 296.5072021484375 324.88739013671875"/>
    <path stroke-width="0" fill="rgb(260, 139, 76)" opacity="1.0217099" stroke="rgb(170, 171, 53)" stroke-opacity="1.0" stroke-linecap="round" stroke-linejoin="round" d="M 337.2601013183594 398.9245910644531 C 330.4359130859375 422.1737060546875 333.8828125 414.3141174316406 229.9369659423828 415.27447509765625 C 82.2814712524414 419.162109375 179.899658203125 416.17498779296875 167.35791015625 278.4739990234375 C 181.37156677246094 270.1871337890625 125.21187591552734 271.1260986328125 295.57080078125 270.9391174316406 C 356.1092529296875 266.8380126953125 284.88232421875 317.1813659667969 337.2601013183594 398.9245910644531"/>
    <path stroke-width="0" fill="rgb(1, 17, 25)" opacity="0.95760673" stroke="rgb(80, 92, 145)" stroke-opacity="1.0" stroke-linecap="round" stroke-linejoin="round" d="M 501.1056823730469 -45.92827606201172 C 595.6019287109375 318.6830749511719 520.4249267578125 346.1943054199219 437.82208251953125 402.0595703125 C 440.9117431640625 385.45465087890625 469.4082336425781 392.3145751953125 452.5159606933594 321.9263916015625 C 459.1131286621094 221.95350646972656 492.46014404296875 259.16595458984375 391.9952697753906 252.225830078125 C 498.6778259277344 114.47490692138672 428.0861511230469 19.59377670288086 501.1056823730469 -45.92827606201172"/>
    <path stroke-width="0" fill="rgb(58, 68, 93)" opacity="0.95837504" stroke="rgb(252, 26, 53)" stroke-opacity="1.0" stroke-linecap="round" stroke-linejoin="round" d="M 526.7268676757812 405.2745666503906 C 510.83343505859375 461.20050048828125 500.56829833984375 455.54864501953125 478.1571350097656 442.45880126953125 C 444.8079833984375 519.6959838867188 445.53839111328125 408.5862731933594 447.8392639160156 448.5325012207031 C 417.2967224121094 442.9508972167969 430.6288757324219 414.12890625 440.92694091796875 353.9358825683594 C 487.8990173339844 369.2001647949219 492.26617431640625 383.5323181152344 526.7268676757812 405.2745666503906"/>
    <path stroke-width="0" fill="rgb(46, 48, 82)" opacity="1.0035837" stroke="rgb(166, 64, 118)" stroke-opacity="1.0" stroke-linecap="round" stroke-linejoin="round" d="M 538.1331787109375 488.8713073730469 C 562.9989624023438 488.5756530761719 540.51171875 480.3600158691406 449.81146240234375 483.6376647949219 C 413.32000732421875 479.3770751953125 383.6371765136719 486.9188537597656 394.44940185546875 469.7467346191406 C 416.37847900390625 356.5780029296875 428.2757263183594 255.19886779785156 449.5467834472656 335.16943359375 C 465.64892578125 451.0260925292969 523.43603515625 398.62176513671875 538.1331787109375 488.8713073730469"/>
    <path stroke-width="0" fill="rgb(257, 230, 154)" opacity="0.56273514" stroke="rgb(40, 28, 167)" stroke-opacity="1.0" stroke-linecap="round" stroke-linejoin="round" d="M 393.789794921875 487.8990783691406 C 633.9238891601562 442.8483581542969 625.7136840820312 691.1575317382812 -100.2172622680664 484.286865234375 C 423.331787109375 468.3265380859375 446.6041564941406 510.2073974609375 339.8455505371094 449.14422607421875 C 338.10076904296875 409.5335998535156 355.15899658203125 330.5963134765625 343.267578125 332.026611328125 C 407.3670654296875 338.9497375488281 368.3078308105469 296.5899658203125 393.789794921875 487.8990783691406"/>
    <path stroke-width="0" fill="rgb(-9, 9, 29)" opacity="0.9761006" stroke="rgb(50, 94, 209)" stroke-opacity="1.0" stroke-linecap="round" stroke-linejoin="round" d="M 287.9933166503906 205.90663146972656 C 231.9916534423828 187.33334350585938 361.2992858886719 229.27236938476562 262.67913818359375 200.86373901367188 C 25.68867301940918 223.54071044921875 328.247802734375 -146.6503143310547 176.06228637695312 161.37583923339844 C 362.7290344238281 236.64756774902344 175.72764587402344 26.726518630981445 231.0708770751953 34.483856201171875 C 327.71026611328125 109.55499267578125 310.3860168457031 173.6218719482422 287.9933166503906 205.90663146972656"/>
    <path stroke-width="0" fill="rgb(85, 206, -5)" opacity="0.9776577" stroke="rgb(213, 24, 248)" stroke-opacity="1.0" stroke-linecap="round" stroke-linejoin="round" d="M 273.5162048339844 197.6035614013672 C 298.2239074707031 198.8719482421875 312.6098327636719 218.6034393310547 168.67286682128906 153.2090606689453 C 235.9363555908203 267.5545349121094 296.6125793457031 100.93136596679688 212.4547119140625 76.55931854248047 C 130.3317108154297 305.30718994140625 185.75436401367188 -27.35186004638672 246.5583038330078 54.130455017089844 C 327.7169494628906 215.1790771484375 202.4373779296875 171.2327880859375 273.5162048339844 197.6035614013672"/>
    <path stroke-width="0" fill="rgb(211, 94, 6)" opacity="0.9828213" stroke="rgb(249, 154, 188)" stroke-opacity="1.0" stroke-linecap="round" stroke-linejoin="round" d="M 314.5182189941406 355.5732727050781 C 333.0271301269531 474.3564147949219 368.37481689453125 222.65170288085938 314.070556640625 387.5277099609375 C 59.76663589477539 384.7331237792969 191.96734619140625 401.3401184082031 144.87713623046875 351.9668273925781 C 212.9177703857422 363.4398193359375 294.5097351074219 347.1646423339844 218.77415466308594 362.36602783203125 C 266.7062683105469 352.109375 238.3979949951172 358.1280822753906 314.5182189941406 355.5732727050781"/>
    <path stroke-width="0" fill="rgb(249, 231, 167)" opacity="0.9466452" stroke="rgb(72, 30, 75)" stroke-opacity="1.0" stroke-linecap="round" stroke-linejoin="round" d="M 548.365966796875 398.5656433105469 C 525.157470703125 426.1164855957031 486.53485107421875 426.49810791015625 437.4076843261719 354.8058166503906 C 431.4734802246094 478.6637878417969 410.59857177734375 627.4423217773438 429.42706298828125 350.8062744140625 C 392.22662353515625 375.9510498046875 434.0544128417969 240.75955200195312 422.2138671875 303.8533630371094 C 520.2717895507812 333.1169128417969 543.99462890625 278.2222595214844 548.365966796875 398.5656433105469"/>
    <path stroke-width="0" fill="rgb(238, 117, 14)" opacity="0.5959135" stroke="rgb(81, 105, 16)" stroke-opacity="1.0" stroke-linecap="round" stroke-linejoin="round" d="M 554.7703247070312 299.35638427734375 C 486.8638916015625 388.6571044921875 448.8206481933594 416.4415588378906 429.5929870605469 314.7583923339844 C 443.8447265625 507.85589599609375 402.32440185546875 594.6852416992188 440.1597595214844 353.55413818359375 C 410.0039367675781 282.4578857421875 426.48114013671875 324.9886169433594 514.4122924804688 307.70623779296875 C 518.238037109375 275.54443359375 530.0408325195312 279.0945129394531 554.7703247070312 299.35638427734375"/>
    <path stroke-width="0" fill="rgb(238, 257, -3)" opacity="1.0050937" stroke="rgb(144, 67, 133)" stroke-opacity="1.0" stroke-linecap="round" stroke-linejoin="round" d="M 469.1805114746094 260.8813171386719 C 492.5219421386719 89.97177124023438 493.40277099609375 189.1885986328125 421.8172912597656 139.50245666503906 C 436.9908142089844 126.40066528320312 460.4935607910156 152.9005584716797 436.7417297363281 114.44869995117188 C 442.4091491699219 119.2635726928711 470.41278076171875 157.98004150390625 448.9242858886719 137.61534118652344 C 415.7683410644531 26.182392120361328 516.5068359375 153.16030883789062 469.1805114746094 260.8813171386719"/>
    <path stroke-width="0" fill="rgb(26, 35, 64)" opacity="0.96132195" stroke="rgb(146, 236, 81)" stroke-opacity="1.0" stroke-linecap="round" stroke-linejoin="round" d="M 551.9766845703125 489.4796447753906 C 553.0545654296875 506.82989501953125 547.32421875 512.4262084960938 534.4893188476562 484.4029846191406 C 486.1556701660156 502.1651306152344 490.6028747558594 383.2016906738281 441.679443359375 422.727294921875 C 450.9847106933594 392.695068359375 435.5522766113281 382.89459228515625 469.23284912109375 396.8671875 C 512.7099609375 403.91790771484375 543.0702514648438 383.37774658203125 551.9766845703125 489.4796447753906"/>
    <path stroke-width="0" fill="rgb(32, 44, 88)" opacity="0.5209488" stroke="rgb(33, 182, 73)" stroke-opacity="1.0" stroke-linecap="round" stroke-linejoin="round" d="M 598.2764892578125 3.533921480178833 C 594.277099609375 300.3841552734375 557.0569458007812 292.5927429199219 462.5067443847656 313.9727478027344 C 403.3062438964844 300.0368347167969 431.86260986328125 318.4323425292969 402.9127197265625 312.28857421875 C 303.2185363769531 416.23614501953125 294.32098388671875 84.98725128173828 219.40115356445312 -29.95490264892578 C 616.9965209960938 -80.57600402832031 610.6663208007812 -56.13962936401367 598.2764892578125 3.533921480178833"/>
    <path stroke-width="0" fill="rgb(252, 226, 128)" opacity="0.8684453" stroke="rgb(149, 5, 211)" stroke-opacity="1.0" stroke-linecap="round" stroke-linejoin="round" d="M 456.3137512207031 373.0617980957031 C 440.69549560546875 343.0758361816406 427.9718322753906 356.23382568359375 477.6311340332031 382.0716247558594 C 387.8283996582031 354.2404479980469 445.6731262207031 289.01373291015625 380.0144348144531 548.2291870117188 C 422.3417053222656 243.6082000732422 418.0152893066406 321.9186706542969 497.4926452636719 307.68377685546875 C 400.453125 379.470703125 423.01141357421875 345.4605407714844 456.3137512207031 373.0617980957031"/>
    <path stroke-width="0" fill="rgb(35, 43, 82)" opacity="1.0002441" stroke="rgb(172, 68, 187)" stroke-opacity="1.0" stroke-linecap="round" stroke-linejoin="round" d="M 386.1360168457031 161.2819061279297 C 368.949951171875 621.2349243164062 339.53387451171875 364.7836608886719 339.4564208984375 482.1399841308594 C 279.9476013183594 472.3655090332031 296.1619873046875 496.42230224609375 286.6053466796875 449.6544189453125 C 338.17236328125 455.5743408203125 320.8948059082031 436.00018310546875 334.0733947753906 483.5754699707031 C 393.93109130859375 462.7991638183594 408.16705322265625 573.0410766601562 386.1360168457031 161.2819061279297"/>
    <path stroke-width="0" fill="rgb(33, 41, 76)" opacity="1.0053582" stroke="rgb(63, 146, 150)" stroke-opacity="1.0" stroke-linecap="round" stroke-linejoin="round" d="M 508.8578796386719 421.05975341796875 C 493.88067626953125 392.94793701171875 485.5147705078125 426.21044921875 503.6670837402344 460.21356201171875 C 485.38751220703125 412.1688537597656 424.943359375 444.7750549316406 440.4350280761719 354.1786804199219 C 440.29559326171875 356.8603210449219 431.4019470214844 353.2064514160156 506.4986877441406 354.7391662597656 C 497.008544921875 358.8540344238281 512.33544921875 370.39471435546875 508.8578796386719 421.05975341796875"/>
    <path stroke-width="0" fill="rgb(63, 71, 101)" opacity="0.7322998" stroke="rgb(56, 242, 114)" stroke-opacity="1.0" stroke-linecap="round" stroke-linejoin="round" d="M 512.7274169921875 445.5672607421875 C 548.5046997070312 457.67095947265625 548.2293701171875 462.89361572265625 543.4254150390625 450.8573913574219 C 486.749755859375 408.3431701660156 455.2174072265625 401.0141296386719 435.4339904785156 380.275390625 C 437.6460876464844 349.7390441894531 436.879638671875 374.2302551269531 436.8465576171875 455.12200927734375 C 459.51904296875 379.70928955078125 477.1665954589844 408.62689208984375 512.7274169921875 445.5672607421875"/>
    <path stroke-width="0" fill="rgb(147, 149, 168)" opacity="0.7957943" stroke="rgb(178, 75, 207)" stroke-opacity="1.0" stroke-linecap="round" stroke-linejoin="round" d="M 146.47830200195312 65.17089080810547 C 189.63107299804688 171.314697265625 137.49447631835938 189.79324340820312 95.59161376953125 112.93364715576172 C 78.99130249023438 102.0242919921875 74.56010437011719 95.7173843383789 71.94161224365234 80.34854125976562 C 108.7789535522461 47.71556854248047 87.00527954101562 66.05274200439453 112.36405944824219 28.587125778198242 C 136.84213256835938 48.565067291259766 153.4362335205078 61.958763122558594 146.47830200195312 65.17089080810547"/>
    <path stroke-width="0" fill="rgb(55, 65, 98)" opacity="1.0034419" stroke="rgb(224, 148, 224)" stroke-opacity="1.0" stroke-linecap="round" stroke-linejoin="round" d="M 286.57861328125 441.9811706542969 C 273.0404052734375 459.21710205078125 284.851806640625 463.35687255859375 284.5815124511719 480.9795227050781 C 154.1741485595703 481.6021728515625 193.60733032226562 483.3022766113281 210.8314666748047 450.7249755859375 C 192.15948486328125 448.9857482910156 304.73638916015625 452.9268493652344 273.5809326171875 448.03094482421875 C 281.2997131347656 449.28936767578125 277.5030212402344 460.8487854003906 286.57861328125 441.9811706542969"/>
    <path stroke-width="0" fill="rgb(154, 152, 160)" opacity="0.9818471" stroke="rgb(184, 127, 243)" stroke-opacity="1.0" stroke-linecap="round" stroke-linejoin="round" d="M 143.44493103027344 27.920913696289062 C 140.98793029785156 37.66300964355469 133.66334533691406 44.98579025268555 124.01810455322266 47.35542297363281 C 66.5020751953125 44.61233139038086 58.99763488769531 37.44818115234375 57.891841888427734 25.77955436706543 C 82.53170013427734 -6.118160724639893 90.00257873535156 -13.318012237548828 99.53919982910156 -15.609918594360352 C 106.9352798461914 -10.770832061767578 111.77985382080078 -1.492073893547058 143.44493103027344 27.920913696289062"/>
    <path stroke-width="0" fill="rgb(143, 149, 154)" opacity="1.000994" stroke="rgb(108, 154, 4)" stroke-opacity="1.0" stroke-linecap="round" stroke-linejoin="round" d="M 80.0576400756836 8.050643920898438 C 77.49282836914062 18.218978881835938 70.26426696777344 25.63568115234375 60.062889099121094 28.223594665527344 C 49.943485260009766 25.414648056030273 42.656402587890625 18.027406692504883 37.921627044677734 7.402928829193115 C 39.98810577392578 -3.1116042137145996 48.42449188232422 -10.002082824707031 59.72758865356445 -12.11942195892334 C 69.99715423583984 -9.318828582763672 77.31362915039062 -1.9955434799194336 80.0576400756836 8.050643920898438"/>
    <path stroke-width="0" fill="rgb(127, 128, 136)" opacity="0.9453039" stroke="rgb(168, 73, 157)" stroke-opacity="1.0" stroke-linecap="round" stroke-linejoin="round" d="M 72.45604705810547 15.811630249023438 C 69.65391540527344 26.336896896362305 62.42641830444336 33.75144577026367 47.39426040649414 44.878196716308594 C 21.235258102416992 48.24556350708008 11.907376289367676 48.80889892578125 42.22996520996094 38.070255279541016 C 60.642765045166016 20.216854095458984 59.841312408447266 16.420785903930664 37.40660858154297 -20.613407135009766 C 62.18372344970703 -1.4727319478988647 69.63251495361328 5.748631477355957 72.45604705810547 15.811630249023438"/>
    <path stroke-width="0" fill="rgb(87, 93, 117)" opacity="0.64794284" stroke="rgb(34, 76, 145)" stroke-opacity="1.0" stroke-linecap="round" stroke-linejoin="round" d="M 217.86782836914062 8.778203010559082 C 163.1548614501953 84.98374938964844 134.67153930664062 80.90097045898438 117.04853820800781 108.21209716796875 C 84.67889404296875 112.06621551513672 79.58507537841797 104.04401397705078 94.00447845458984 91.11003875732422 C 93.83968353271484 46.299339294433594 101.63026428222656 39.797386169433594 119.58314514160156 -7.552111625671387 C 153.79893493652344 -35.09897232055664 204.69361877441406 -41.462703704833984 217.86782836914062 8.778203010559082"/>
    <path stroke-width="0" fill="rgb(125, 121, 113)" opacity="0.91096073" stroke="rgb(146, 166, 166)" stroke-opacity="1.0" stroke-linecap="round" stroke-linejoin="round" d="M 168.85260009765625 245.79689025878906 C 176.5503692626953 207.90602111816406 124.81317138671875 211.8815155029297 47.15973663330078 192.9461669921875 C 36.846588134765625 189.77017211914062 31.166563034057617 182.19252014160156 40.49198532104492 143.43905639648438 C 58.929100036621094 86.28396606445312 66.34925079345703 79.13863372802734 61.68156814575195 97.85921478271484 C 121.30921173095703 108.6848373413086 25.312828063964844 188.5239715576172 168.85260009765625 245.79689025878906"/>
    <path stroke-width="0" fill="rgb(220, 213, 196)" opacity="0.35570174" stroke="rgb(228, 93, 111)" stroke-opacity="1.0" stroke-linecap="round" stroke-linejoin="round" d="M 220.37014770507812 38.0173454284668 C 188.4850311279297 37.594398498535156 155.67373657226562 154.4647216796875 164.7786102294922 167.8905029296875 C 48.06608200073242 146.18247985839844 103.11631774902344 60.68366622924805 84.95772552490234 16.188215255737305 C 87.02836608886719 6.3412675857543945 94.322265625 -1.0079424381256104 108.09870910644531 -4.75645637512207 C 169.20980834960938 -16.063106536865234 183.83016967773438 -55.9877815246582 220.37014770507812 38.0173454284668"/>
    <path stroke-width="0" fill="rgb(132, 128, 142)" opacity="0.9357448" stroke="rgb(205, 179, 25)" stroke-opacity="1.0" stroke-linecap="round" stroke-linejoin="round" d="M 84.89993286132812 44.546329498291016 C 34.705238342285156 72.64096069335938 32.87061309814453 82.0682601928711 -11.903721809387207 136.12855529785156 C -23.76293182373047 138.65989685058594 -30.73976707458496 131.9322509765625 -32.7243766784668 110.46023559570312 C -18.832204818725586 32.87269973754883 -10.430169105529785 27.28647232055664 62.499473571777344 27.673521041870117 C 74.86959838867188 26.867311477661133 82.270263671875 32.814605712890625 84.89993286132812 44.546329498291016"/>
    <path stroke-width="0" fill="rgb(116, 125, 138)" opacity="0.9964215" stroke="rgb(182, 254, 38)" stroke-opacity="1.0" stroke-linecap="round" stroke-linejoin="round" d="M 231.45301818847656 232.84303283691406 C 169.45175170898438 236.76675415039062 131.95443725585938 337.92279052734375 148.4972381591797 331.7090759277344 C -51.10097885131836 334.4088439941406 -18.187461853027344 295.25628662109375 -11.517032623291016 198.3166961669922 C -3.6085245609283447 132.90740966796875 -1.7124096155166626 119.47271728515625 49.97697067260742 109.21367645263672 C 124.98692321777344 108.8471908569336 129.5426483154297 130.82620239257812 231.45301818847656 232.84303283691406"/>
    <path stroke-width="0" fill="rgb(134, 144, 148)" opacity="0.956364" stroke="rgb(41, 156, 31)" stroke-opacity="1.0" stroke-linecap="round" stroke-linejoin="round" d="M 67.7099609375 67.44202423095703 C 65.14677429199219 78.043701171875 58.02558898925781 85.63250732421875 -4.502327919006348 91.96359252929688 C -18.30956268310547 92.00404357910156 -28.15337371826172 88.30581665039062 -30.40452766418457 79.21770477294922 C -26.784635543823242 3.3494513034820557 -18.000425338745117 -3.135021209716797 -10.938031196594238 -2.9140853881835938 C 56.55989074707031 5.578875541687012 63.70320129394531 11.585875511169434 67.7099609375 67.44202423095703"/>
    <path stroke-width="0" fill="rgb(155, 148, 159)" opacity="0.99193585" stroke="rgb(205, 145, 103)" stroke-opacity="1.0" stroke-linecap="round" stroke-linejoin="round" d="M 91.29204559326172 69.50201416015625 C 57.469966888427734 78.90480041503906 73.01534271240234 81.84101104736328 60.87278366088867 127.8643798828125 C 50.684486389160156 124.90258026123047 44.11824035644531 116.99495697021484 35.165592193603516 53.14482879638672 C 34.93584060668945 41.23554229736328 40.89478302001953 33.25922775268555 50.36819076538086 30.793987274169922 C 93.89823150634766 66.79193878173828 101.28598022460938 74.03944396972656 91.29204559326172 69.50201416015625"/>
    <path stroke-width="0" fill="rgb(153, 149, 157)" opacity="0.9920133" stroke="rgb(177, 115, 184)" stroke-opacity="1.0" stroke-linecap="round" stroke-linejoin="round" d="M 115.3272705078125 31.634302139282227 C 113.12921905517578 41.971954345703125 106.08955383300781 49.508670806884766 96.41397857666016 51.74137496948242 C 62.77650833129883 24.533361434936523 55.407352447509766 17.25397491455078 47.69902420043945 6.744309902191162 C 54.18659591674805 -2.0891640186309814 62.01570129394531 -9.275810241699219 71.96842193603516 -11.984189987182617 C 81.83687591552734 -9.175621032714844 89.04625701904297 -1.7433065176010132 115.3272705078125 31.634302139282227"/>
    <path stroke-width="0" fill="rgb(153, 154, 165)" opacity="0.977411" stroke="rgb(248, 218, 2)" stroke-opacity="1.0" stroke-linecap="round" stroke-linejoin="round" d="M 112.89898681640625 17.283252716064453 C 37.07548522949219 21.63437843322754 104.59249877929688 80.33365631103516 35.43494415283203 94.11914825439453 C 26.4925479888916 88.61434173583984 18.36991310119629 81.7876968383789 15.657578468322754 72.86822509765625 C 51.31894302368164 30.75908851623535 58.7370719909668 24.103981018066406 91.3343734741211 -4.117231369018555 C 102.2701644897461 -1.6391065120697021 109.4169921875 5.785713195800781 112.89898681640625 17.283252716064453"/>
    <path stroke-width="0" fill="rgb(150, 146, 151)" opacity="1.0102795" stroke="rgb(186, 43, 132)" stroke-opacity="1.0" stroke-linecap="round" stroke-linejoin="round" d="M 104.22261047363281 136.98863220214844 C 105.79766082763672 149.55313110351562 104.36516571044922 162.3024139404297 95.09945678710938 176.67845153808594 C 9.538333892822266 169.4424591064453 9.605589866638184 159.14605712890625 23.39044761657715 136.55369567871094 C 42.052791595458984 97.5638427734375 49.74918746948242 90.4640121459961 82.18946838378906 65.00415802001953 C 93.62289428710938 66.9544677734375 100.91618347167969 74.38751983642578 104.22261047363281 136.98863220214844"/>
    <path stroke-width="0" fill="rgb(127, 132, 141)" opacity="0.80456764" stroke="rgb(50, 4, 202)" stroke-opacity="1.0" stroke-linecap="round" stroke-linejoin="round" d="M 163.38018798828125 229.91287231445312 C 320.9250793457031 174.2045440673828 651.2997436523438 287.2349548339844 140.26043701171875 269.6748962402344 C -13.769591331481934 234.54400634765625 32.83823013305664 191.60000610351562 54.06375503540039 166.4093780517578 C 97.59432983398438 112.5872573852539 95.29582214355469 113.55044555664062 72.32652282714844 95.47615814208984 C 86.27213287353516 155.4907989501953 151.2520751953125 68.13924407958984 163.38018798828125 229.91287231445312"/>
    <path stroke-width="0" fill="rgb(150, 150, 142)" opacity="0.9927014" stroke="rgb(88, 236, 179)" stroke-opacity="1.0" stroke-linecap="round" stroke-linejoin="round" d="M 130.52606201171875 28.61056137084961 C 112.77533721923828 57.51002502441406 105.73359680175781 65.09654998779297 96.10469818115234 67.83539581298828 C 87.814208984375 64.18028259277344 87.07752227783203 52.4308967590332 60.300907135009766 24.25229263305664 C 55.900535583496094 15.185774803161621 63.18698501586914 7.917167663574219 73.33694458007812 4.970975399017334 C 129.62713623046875 7.111669540405273 136.19845581054688 14.638700485229492 130.52606201171875 28.61056137084961"/>
    <path stroke-width="0" fill="rgb(164, 158, 168)" opacity="0.88766396" stroke="rgb(41, 158, 147)" stroke-opacity="1.0" stroke-linecap="round" stroke-linejoin="round" d="M 117.37401580810547 85.4741439819336 C 88.8465805053711 188.19532775878906 168.161376953125 169.29263305664062 119.38556671142578 120.73109436035156 C 65.3597183227539 149.98837280273438 58.398895263671875 138.34182739257812 56.07960891723633 127.802734375 C 69.62653350830078 85.19679260253906 85.85684967041016 84.43759155273438 125.63033294677734 60.15210723876953 C 137.27337646484375 60.84954071044922 147.20350646972656 66.31302642822266 117.37401580810547 85.4741439819336"/>
    <path stroke-width="0" fill="rgb(136, 141, 148)" opacity="0.9965952" stroke="rgb(238, 156, 136)" stroke-opacity="1.0" stroke-linecap="round" stroke-linejoin="round" d="M 93.96333312988281 33.70692443847656 C 57.625770568847656 58.36211013793945 66.36761474609375 63.568031311035156 77.3969497680664 75.10263061523438 C 15.312356948852539 71.72368621826172 27.133419036865234 63.82244110107422 -0.20400261878967285 1.8829442262649536 C 0.6142042875289917 -8.219734191894531 7.704623699188232 -15.566523551940918 19.07494354248047 -16.781253814697266 C 59.529396057128906 14.535991668701172 58.07804870605469 13.000555038452148 93.96333312988281 33.70692443847656"/>
    <path stroke-width="0" fill="rgb(142, 139, 149)" opacity="0.9296453" stroke="rgb(186, 79, 101)" stroke-opacity="1.0" stroke-linecap="round" stroke-linejoin="round" d="M 69.21500396728516 4.391557693481445 C 65.64352416992188 11.271275520324707 47.41815948486328 6.317728519439697 11.26237678527832 51.34751510620117 C 1.4519786834716797 49.6483268737793 -7.302603244781494 43.089542388916016 -31.633554458618164 10.169620513916016 C -11.457196235656738 -50.801475524902344 3.0080111026763916 -43.40044403076172 33.09538269042969 -33.28162384033203 C 53.749149322509766 -17.1284236907959 60.9333381652832 -9.620478630065918 69.21500396728516 4.391557693481445"/>
    <path stroke-width="0" fill="rgb(175, 168, 173)" opacity="0.9465919" stroke="rgb(47, 240, 188)" stroke-opacity="1.0" stroke-linecap="round" stroke-linejoin="round" d="M 148.3338165283203 41.229305267333984 C 175.20883178710938 121.1048583984375 167.36801147460938 65.44924926757812 133.00685119628906 87.35725402832031 C 104.59133911132812 59.599666595458984 97.93721008300781 53.25615310668945 68.94837188720703 31.584022521972656 C 68.51939392089844 14.964986801147461 74.70600128173828 6.594662666320801 88.63565063476562 4.726984977722168 C 142.21856689453125 6.5255208015441895 155.75906372070312 10.368237495422363 148.3338165283203 41.229305267333984"/>
    <path stroke-width="0" fill="rgb(135, 133, 142)" opacity="0.98664737" stroke="rgb(57, 64, 14)" stroke-opacity="1.0" stroke-linecap="round" stroke-linejoin="round" d="M 116.81455993652344 166.6725616455078 C 111.11289978027344 177.15972900390625 103.92254638671875 184.1566619873047 41.85888671875 185.54750061035156 C -23.336240768432617 178.65237426757812 -34.33542251586914 175.89828491210938 -38.183204650878906 137.3233184814453 C -11.81721305847168 70.48197937011719 1.232277750968933 67.59815216064453 15.812090873718262 66.28004455566406 C 35.79078674316406 129.8389129638672 69.16494750976562 88.46912384033203 116.81455993652344 166.6725616455078"/>
    <path stroke-width="0" fill="rgb(194, 182, 184)" opacity="0.6604677" stroke="rgb(79, 177, 96)" stroke-opacity="1.0" stroke-linecap="round" stroke-linejoin="round" d="M 166.35398864746094 55.5947151184082 C 116.0528793334961 79.17706298828125 125.67414855957031 95.77361297607422 113.60540008544922 108.83920288085938 C 78.9681625366211 98.41008758544922 86.2791748046875 79.51136016845703 85.4486312866211 72.64422607421875 C 84.06663513183594 44.74299240112305 86.53057861328125 74.6021499633789 84.79320526123047 53.49763488769531 C 101.86804962158203 48.751792907714844 62.396480560302734 36.854278564453125 166.35398864746094 55.5947151184082"/>
    <path stroke-width="0" fill="rgb(151, 154, 161)" opacity="0.9250074" stroke="rgb(6, 17, 173)" stroke-opacity="1.0" stroke-linecap="round" stroke-linejoin="round" d="M 151.26681518554688 29.8149356842041 C 84.55236053466797 5.698012351989746 86.9748306274414 10.979372024536133 69.02196502685547 43.857444763183594 C 59.01091384887695 40.0090446472168 53.9068489074707 31.566465377807617 62.99428939819336 10.520387649536133 C 74.98430633544922 -9.702991485595703 82.326416015625 -17.03340721130371 103.96334075927734 -37.05341720581055 C 88.4158706665039 1.3158063888549805 111.927001953125 -7.926003456115723 151.26681518554688 29.8149356842041"/>
    <path stroke-width="0" fill="rgb(126, 127, 137)" opacity="0.9298324" stroke="rgb(136, 228, 252)" stroke-opacity="1.0" stroke-linecap="round" stroke-linejoin="round" d="M 68.22604370117188 156.1996612548828 C 62.30438995361328 227.4020233154297 57.644004821777344 236.74925231933594 24.539318084716797 255.7791748046875 C -64.29017639160156 245.40077209472656 -65.56599426269531 234.96441650390625 -46.56305694580078 190.53013610839844 C -51.45711898803711 127.693359375 -45.941383361816406 118.31744384765625 -3.2702605724334717 97.79730224609375 C 62.06102752685547 105.13169860839844 70.05422973632812 110.58138275146484 68.22604370117188 156.1996612548828"/>
    <path stroke-width="0" fill="rgb(100, 107, 118)" opacity="0.7392472" stroke="rgb(169, 67, 5)" stroke-opacity="1.0" stroke-linecap="round" stroke-linejoin="round" d="M 932.4395141601562 229.39175415039062 C 528.298095703125 317.46539306640625 417.5101318359375 161.47048950195312 394.38262939453125 350.3030090332031 C 225.99325561523438 246.01211547851562 399.3597717285156 123.3555679321289 476.6416320800781 158.46292114257812 C 488.41204833984375 -16.681875228881836 356.7891540527344 397.39862060546875 370.9117126464844 2.14304518699646 C 573.3323974609375 -64.2399673461914 602.810546875 -29.18235206604004 932.4395141601562 229.39175415039062"/>
    <path stroke-width="0" fill="rgb(127, 124, 127)" opacity="0.956452" stroke="rgb(81, 97, 150)" stroke-opacity="1.0" stroke-linecap="round" stroke-linejoin="round" d="M 165.9390106201172 18.150423049926758 C 189.5056610107422 33.82973098754883 171.5567169189453 37.81065368652344 115.73910522460938 42.539344787597656 C 102.9467544555664 40.48746871948242 95.55226135253906 32.99166488647461 92.46941375732422 23.357057571411133 C 117.91754150390625 -10.768792152404785 125.10956573486328 -18.21870994567871 151.87059020996094 -31.193592071533203 C 158.8891143798828 -29.711776733398438 144.9126739501953 -4.578712463378906 165.9390106201172 18.150423049926758"/>
    <path stroke-width="0" fill="rgb(132, 139, 146)" opacity="0.9118186" stroke="rgb(160, 222, 69)" stroke-opacity="1.0" stroke-linecap="round" stroke-linejoin="round" d="M 221.33364868164062 -73.41089630126953 C 135.89083862304688 194.96661376953125 160.8933868408203 163.19308471679688 230.10040283203125 216.69168090820312 C -26.985288619995117 230.79185485839844 41.56344985961914 146.6048126220703 19.838430404663086 145.47634887695312 C 111.79326629638672 96.86522674560547 82.18457794189453 69.91870880126953 164.33370971679688 2.5909385681152344 C 244.4168701171875 62.24135971069336 377.2525939941406 83.22403717041016 221.33364868164062 -73.41089630126953"/>
    <path stroke-width="0" fill="rgb(136, 137, 141)" opacity="0.99584174" stroke="rgb(47, 242, 175)" stroke-opacity="1.0" stroke-linecap="round" stroke-linejoin="round" d="M 97.03986358642578 55.33361053466797 C 89.21315002441406 117.18009185791016 81.11298370361328 128.53134155273438 40.432342529296875 121.84933471679688 C 22.34652328491211 117.60721588134766 19.9110164642334 106.90587615966797 32.868473052978516 63.915279388427734 C 1.351688027381897 45.064544677734375 14.41466999053955 51.47819519042969 75.33847045898438 33.7589111328125 C 87.48615264892578 37.66933822631836 94.83196258544922 44.32936096191406 97.03986358642578 55.33361053466797"/>
    <path stroke-width="0" fill="rgb(133, 138, 143)" opacity="0.9960834" stroke="rgb(241, 186, 64)" stroke-opacity="1.0" stroke-linecap="round" stroke-linejoin="round" d="M 116.42864990234375 49.22947692871094 C 118.73509216308594 74.95228576660156 104.75615692138672 73.89701843261719 67.57219696044922 98.21073150634766 C 58.51203155517578 100.23591613769531 51.05305480957031 93.39688873291016 48.37788009643555 83.5294189453125 C 102.9074478149414 73.20301055908203 90.14604949951172 58.524658203125 77.24079132080078 28.279645919799805 C 100.15776824951172 45.51036834716797 110.50580596923828 50.99502944946289 116.42864990234375 49.22947692871094"/>
    <path stroke-width="0" fill="rgb(103, 111, 136)" opacity="0.58851296" stroke="rgb(132, 6, 52)" stroke-opacity="1.0" stroke-linecap="round" stroke-linejoin="round" d="M 228.87115478515625 16.481365203857422 C 404.9024353027344 223.28488159179688 263.90386962890625 263.197265625 204.46804809570312 194.21820068359375 C 212.11012268066406 234.28201293945312 315.89654541015625 203.8722381591797 266.819580078125 209.81890869140625 C 298.8729553222656 210.89720153808594 279.7242431640625 197.83570861816406 171.9669952392578 208.97271728515625 C 268.434326171875 203.56996154785156 328.24945068359375 178.79299926757812 228.87115478515625 16.481365203857422"/>
    <path stroke-width="0" fill="rgb(119, 124, 131)" opacity="0.56780535" stroke="rgb(95, 118, 70)" stroke-opacity="1.0" stroke-linecap="round" stroke-linejoin="round" d="M 112.3172607421875 277.64715576171875 C 103.760986328125 461.0533142089844 149.06138610839844 411.2151794433594 3.4667699337005615 444.0465087890625 C -33.27261734008789 334.87017822265625 -36.22731018066406 324.2464294433594 -35.94567108154297 275.15362548828125 C -41.400962829589844 197.63021850585938 -41.09809494018555 183.4933319091797 -10.59659481048584 180.9046173095703 C 94.30347442626953 190.77279663085938 99.43460845947266 200.18460083007812 112.3172607421875 277.64715576171875"/>
    <path stroke-width="0" fill="rgb(159, 139, 46)" opacity="0.84135085" stroke="rgb(220, 29, 131)" stroke-opacity="1.0" stroke-linecap="round" stroke-linejoin="round" d="M 521.9683837890625 335.8622131347656 C 472.20001220703125 352.5136413574219 478.45965576171875 311.4901428222656 464.3971862792969 316.8668212890625 C 462.2301330566406 343.67010498046875 459.9394226074219 364.80828857421875 466.1421813964844 306.90631103515625 C 458.774658203125 304.5956115722656 470.6656188964844 332.6828308105469 562.9847412109375 318.35675048828125 C 514.8566284179688 302.0840148925781 487.8896179199219 314.3299865722656 521.9683837890625 335.8622131347656"/>
    <path stroke-width="0" fill="rgb(161, 144, 51)" opacity="0.8976576" stroke="rgb(195, 190, 230)" stroke-opacity="1.0" stroke-linecap="round" stroke-linejoin="round" d="M 509.1953125 313.8931579589844 C 499.08087158203125 310.7989501953125 447.6622314453125 324.5381164550781 465.92236328125 331.00408935546875 C 463.29071044921875 337.6083984375 466.10791015625 324.2249755859375 466.00103759765625 303.87005615234375 C 469.976318359375 345.2630920410156 474.2369689941406 335.33544921875 480.5290832519531 323.43536376953125 C 492.05963134765625 321.82806396484375 458.7916259765625 325.3789367675781 509.1953125 313.8931579589844"/>
    <path stroke-width="0" fill="rgb(235, 104, 44)" opacity="0.5191428" stroke="rgb(140, 149, 245)" stroke-opacity="1.0" stroke-linecap="round" stroke-linejoin="round" d="M 573.5147094726562 350.8637390136719 C 582.4691162109375 362.9953308105469 555.6094970703125 358.8514404296875 440.92633056640625 347.2554931640625 C 471.95635986328125 329.4049377441406 482.77154541015625 321.9839782714844 510.79443359375 299.93701171875 C 533.5848388671875 285.15283203125 511.8397216796875 311.1183776855469 520.8947143554688 305.3011169433594 C 525.5113525390625 291.9359130859375 521.249755859375 311.6423645019531 573.5147094726562 350.8637390136719"/>
    <path stroke-width="0" fill="rgb(95, 109, 114)" opacity="0.7077759" stroke="rgb(170, 200, 71)" stroke-opacity="1.0" stroke-linecap="round" stroke-linejoin="round" d="M 441.732666015625 185.2059326171875 C 438.3055114746094 186.81622314453125 427.9876403808594 193.69549560546875 441.9270935058594 185.89816284179688 C 440.91766357421875 209.50439453125 462.8755187988281 206.84991455078125 431.6590576171875 197.8876190185547 C 456.39129638671875 180.2157440185547 462.6719055175781 159.7120361328125 467.781494140625 204.12350463867188 C 430.3235168457031 175.1865997314453 442.26763916015625 199.11322021484375 441.732666015625 185.2059326171875"/>
    <path stroke-width="0" fill="rgb(145, 208, 61)" opacity="0.94202334" stroke="rgb(16, 123, 249)" stroke-opacity="1.0" stroke-linecap="round" stroke-linejoin="round" d="M 462.09326171875 158.4939727783203 C 493.9878234863281 167.36085510253906 499.70880126953125 153.6866912841797 471.8135986328125 203.77757263183594 C 478.70855712890625 159.0099639892578 481.9152526855469 138.5531768798828 480.4849548339844 115.816162109375 C 462.1269226074219 190.94970703125 474.9327697753906 159.39950561523438 477.3018493652344 152.72621154785156 C 468.6881408691406 160.15713500976562 478.1903991699219 180.62847900390625 462.09326171875 158.4939727783203"/>
    <path stroke-width="0" fill="rgb(133, 203, 39)" opacity="0.99384505" stroke="rgb(86, 245, 59)" stroke-opacity="1.0" stroke-linecap="round" stroke-linejoin="round" d="M 470.26824951171875 121.28951263427734 C 442.295654296875 61.54203796386719 423.1969909667969 129.1146697998047 461.96160888671875 132.6216278076172 C 498.6316223144531 156.09300231933594 470.1156921386719 165.52943420410156 468.9836120605469 145.5319366455078 C 484.250732421875 119.7850570678711 481.0557556152344 131.11463928222656 464.71966552734375 137.75022888183594 C 451.6213684082031 147.38502502441406 458.583740234375 158.74423217773438 470.26824951171875 121.28951263427734"/>
    <path stroke-width="0" fill="rgb(252, 172, 94)" opacity="0.98534805" stroke="rgb(240, 203, 160)" stroke-opacity="1.0" stroke-linecap="round" stroke-linejoin="round" d="M 449.60003662109375 348.8246765136719 C 422.0724182128906 342.33837890625 409.3257141113281 348.654052734375 435.78369140625 342.232666015625 C 424.7983703613281 352.0714111328125 422.6774597167969 345.06146240234375 412.9105224609375 360.8237609863281 C 407.5455627441406 430.7987365722656 416.8221435546875 376.53375244140625 419.11767578125 348.85467529296875 C 383.23687744140625 329.1712951660156 365.927490234375 374.5369567871094 449.60003662109375 348.8246765136719"/>
    <path stroke-width="0" fill="rgb(130, 190, 73)" opacity="0.8566235" stroke="rgb(74, 216, 157)" stroke-opacity="1.0" stroke-linecap="round" stroke-linejoin="round" d="M 459.1785583496094 127.32186889648438 C 457.7460021972656 155.62484741210938 458.64739990234375 170.56605529785156 465.704833984375 167.68983459472656 C 476.3426208496094 172.29949951171875 471.0696716308594 145.5270538330078 456.8162536621094 195.63961791992188 C 468.881103515625 136.09213256835938 484.3155517578125 125.84979248046875 460.72955322265625 135.8623504638672 C 455.86328125 151.06747436523438 437.50848388671875 167.0133819580078 459.1785583496094 127.32186889648438"/>
    <path stroke-width="0" fill="rgb(28, 37, 71)" opacity="0.82306725" stroke="rgb(88, 37, 250)" stroke-opacity="1.0" stroke-linecap="round" stroke-linejoin="round" d="M 382.6043395996094 413.0887756347656 C 381.187744140625 356.0054931640625 376.6962890625 369.4862365722656 398.905029296875 369.6687927246094 C 354.93914794921875 394.6379089355469 405.9168395996094 456.60693359375 398.9805603027344 414.84173583984375 C 425.12310791015625 295.6984558105469 379.1955871582031 395.6083984375 386.14776611328125 364.8141174316406 C 355.7998046875 399.255615234375 371.53863525390625 420.3482360839844 382.6043395996094 413.0887756347656"/>
    <path stroke-width="0" fill="rgb(154, 103, 102)" opacity="0.76935554" stroke="rgb(126, 163, 93)" stroke-opacity="1.0" stroke-linecap="round" stroke-linejoin="round" d="M 562.52392578125 297.1927795410156 C 503.48260498046875 338.0379638671875 496.94610595703125 343.2876892089844 574.708740234375 309.59869384765625 C 482.69171142578125 332.5914001464844 448.6028747558594 303.52032470703125 495.5181579589844 311.7621765136719 C 526.126708984375 331.34100341796875 527.4609375 330.8188781738281 489.1181945800781 289.5072326660156 C 475.65740966796875 275.50421142578125 516.885986328125 273.2866516113281 562.52392578125 297.1927795410156"/>
    <path stroke-width="0" fill="rgb(118, 110, 124)" opacity="0.5124451" stroke="rgb(209, 48, 130)" stroke-opacity="1.0" stroke-linecap="round" stroke-linejoin="round" d="M 477.2605895996094 159.30874633789062 C 483.2974853515625 149.2410125732422 470.638427734375 134.7540283203125 426.9316101074219 178.35911560058594 C 446.38616943359375 157.38900756835938 447.7806396484375 135.181640625 439.3953552246094 171.0948944091797 C 457.6910095214844 173.06129455566406 452.9484558105469 124.49555969238281 475.96295166015625 120.91979217529297 C 427.8040466308594 146.5393524169922 417.2004089355469 180.85433959960938 477.2605895996094 159.30874633789062"/>
    <path stroke-width="0" fill="rgb(109, 114, 112)" opacity="0.5611977" stroke="rgb(24, 219, 248)" stroke-opacity="1.0" stroke-linecap="round" stroke-linejoin="round" d="M 442.3882751464844 186.8839569091797 C 459.4134216308594 193.32293701171875 419.9450988769531 197.55419921875 446.8222351074219 223.8467559814453 C 428.7431335449219 190.21292114257812 439.3055419921875 179.03131103515625 449.94342041015625 193.72100830078125 C 424.1107177734375 195.47898864746094 442.59136962890625 196.08236694335938 443.3619384765625 186.36802673339844 C 407.037109375 197.5615692138672 454.586181640625 213.4685821533203 442.3882751464844 186.8839569091797"/>
    <path stroke-width="0" fill="rgb(252, 225, 151)" opacity="1.0007004" stroke="rgb(231, 197, 84)" stroke-opacity="1.0" stroke-linecap="round" stroke-linejoin="round" d="M 155.40676879882812 513.7412719726562 C 145.97637939453125 509.58612060546875 175.43798828125 508.87310791015625 142.07598876953125 501.0692443847656 C 130.44625854492188 493.4363708496094 163.19024658203125 474.483642578125 162.45693969726562 476.7192687988281 C 126.00859832763672 491.8903503417969 142.17601013183594 504.517578125 145.1724395751953 450.3251647949219 C 169.95877075195312 449.51434326171875 145.8572998046875 442.48138427734375 155.40676879882812 513.7412719726562"/>
    <path stroke-width="0" fill="rgb(75, 85, 91)" opacity="0.98088866" stroke="rgb(103, 59, 33)" stroke-opacity="1.0" stroke-linecap="round" stroke-linejoin="round" d="M 520.7835083007812 194.96441650390625 C 485.4551696777344 125.0123062133789 483.1707458496094 132.52935791015625 480.3472595214844 93.20518493652344 C 469.9603576660156 128.65736389160156 430.0782470703125 118.95880126953125 471.5226135253906 197.86622619628906 C 478.49609375 161.8282012939453 473.1221618652344 152.90472412109375 515.2385864257812 130.888916015625 C 450.24066162109375 153.82211303710938 515.1619873046875 142.52430725097656 520.7835083007812 194.96441650390625"/>
    <path stroke-width="0" fill="rgb(253, 229, 188)" opacity="0.84788907" stroke="rgb(185, 2, 196)" stroke-opacity="1.0" stroke-linecap="round" stroke-linejoin="round" d="M 236.4138946533203 163.23272705078125 C 238.25274658203125 126.51438903808594 238.5130157470703 140.697265625 231.69017028808594 138.4769744873047 C 247.0734405517578 170.8606719970703 193.80059814453125 167.9190216064453 208.98460388183594 141.94119262695312 C 213.02627563476562 114.51429748535156 227.1844482421875 103.15606689453125 238.82237243652344 134.34060668945312 C 235.02610778808594 158.8129119873047 232.74339294433594 176.36318969726562 236.4138946533203 163.23272705078125"/>
    <path stroke-width="0" fill="rgb(114, 95, 78)" opacity="0.88233477" stroke="rgb(20, 22, 171)" stroke-opacity="1.0" stroke-linecap="round" stroke-linejoin="round" d="M 572.732421875 500.7155456542969 C 380.0292053222656 487.80657958984375 380.1710205078125 507.5650939941406 402.00164794921875 480.3413391113281 C 384.5558166503906 494.87445068359375 397.1755676269531 495.6309509277344 389.3580322265625 500.5715026855469 C 400.22119140625 469.80865478515625 394.62579345703125 472.0028381347656 397.1715393066406 484.3280029296875 C 393.6895751953125 505.9853820800781 347.2063903808594 497.8648681640625 572.732421875 500.7155456542969"/>
    <path stroke-width="0" fill="rgb(119, 169, 80)" opacity="0.36684757" stroke="rgb(107, 142, 219)" stroke-opacity="1.0" stroke-linecap="round" stroke-linejoin="round" d="M 472.5033874511719 162.6383819580078 C 466.401123046875 154.14459228515625 433.0768127441406 199.22096252441406 435.00689697265625 172.18101501464844 C 450.8518371582031 165.2605743408203 437.81793212890625 161.2404327392578 431.60626220703125 187.087158203125 C 424.6041259765625 205.32650756835938 437.7616882324219 186.19493103027344 457.46319580078125 173.14715576171875 C 468.4630126953125 191.31056213378906 454.7750244140625 149.59893798828125 472.5033874511719 162.6383819580078"/>
    <path stroke-width="0" fill="rgb(260, 259, 175)" opacity="0.7827272" stroke="rgb(68, 33, 14)" stroke-opacity="1.0" stroke-linecap="round" stroke-linejoin="round" d="M 227.4432373046875 86.72464752197266 C 226.0675506591797 75.63090515136719 244.06414794921875 102.35398864746094 249.6515655517578 150.0137176513672 C 254.98927307128906 164.304443359375 195.33473205566406 172.47119140625 198.09861755371094 138.0161895751953 C 210.1014862060547 75.71703338623047 237.43807983398438 61.9821662902832 224.30587768554688 98.73242950439453 C 220.82223510742188 107.52409362792969 222.2477569580078 106.88337707519531 227.4432373046875 86.72464752197266"/>
    <path stroke-width="0" fill="rgb(200, 159, 40)" opacity="0.26019862" stroke="rgb(66, 116, 174)" stroke-opacity="1.0" stroke-linecap="round" stroke-linejoin="round" d="M 511.5960388183594 298.0555419921875 C 552.3855590820312 329.935302734375 490.9611511230469 303.43646240234375 468.0821533203125 321.5470886230469 C 512.1144409179688 333.0978698730469 473.0932922363281 309.9979553222656 477.43145751953125 345.09674072265625 C 484.14715576171875 345.25238037109375 481.5004577636719 339.30157470703125 426.26971435546875 338.9579772949219 C 508.0745544433594 368.9119567871094 507.06341552734375 325.2295227050781 511.5960388183594 298.0555419921875"/>
    <path stroke-width="0" fill="rgb(94, 87, 66)" opacity="0.7618377" stroke="rgb(72, 96, 46)" stroke-opacity="1.0" stroke-linecap="round" stroke-linejoin="round" d="M 508.14886474609375 306.1138610839844 C 481.9471435546875 280.4677734375 466.5675048828125 296.67498779296875 485.85565185546875 276.59197998046875 C 472.93060302734375 310.5260314941406 452.4589538574219 298.93402099609375 477.48175048828125 323.55548095703125 C 472.5175476074219 330.48480224609375 484.4687805175781 315.0714416503906 457.0435485839844 302.34722900390625 C 462.4170837402344 296.3652038574219 498.455322265625 286.7316589355469 508.14886474609375 306.1138610839844"/>
    <path stroke-width="0" fill="rgb(72, 104, 46)" opacity="0.72777414" stroke="rgb(94, 50, 117)" stroke-opacity="1.0" stroke-linecap="round" stroke-linejoin="round" d="M 204.9053955078125 77.92556762695312 C 229.81069946289062 84.67168426513672 189.2335662841797 91.84796905517578 213.64564514160156 79.83915710449219 C 198.7086639404297 93.62632751464844 203.66700744628906 69.28390502929688 219.1151580810547 74.18804931640625 C 210.95761108398438 75.18016815185547 205.7133331298828 69.67657470703125 205.13836669921875 86.49320983886719 C 201.6496124267578 73.86170959472656 203.54542541503906 80.62945556640625 204.9053955078125 77.92556762695312"/>
    <path stroke-width="0" fill="rgb(97, 209, -7)" opacity="0.8866217" stroke="rgb(109, 130, 136)" stroke-opacity="1.0" stroke-linecap="round" stroke-linejoin="round" d="M 241.275634765625 60.654624938964844 C 221.6284637451172 73.968017578125 196.54957580566406 105.20409393310547 186.9844207763672 98.62189483642578 C 201.17333984375 162.34100341796875 177.70452880859375 81.40425872802734 205.19190979003906 56.70267105102539 C 238.25303649902344 42.56449508666992 273.20574951171875 91.52684783935547 220.5120086669922 95.5841293334961 C 239.32907104492188 94.12220001220703 262.4627990722656 85.58259582519531 241.275634765625 60.654624938964844"/>
    <path stroke-width="0" fill="rgb(250, 229, 147)" opacity="1.0023074" stroke="rgb(70, 32, 100)" stroke-opacity="1.0" stroke-linecap="round" stroke-linejoin="round" d="M 188.9620819091797 479.50299072265625 C 189.1561737060547 443.4054260253906 184.128173828125 470.439208984375 174.9622344970703 476.3002014160156 C 172.09561157226562 459.5201721191406 188.3284149169922 441.50537109375 193.87379455566406 496.1448669433594 C 204.87936401367188 483.4723815917969 196.65257263183594 468.4933776855469 204.4056396484375 450.8605651855469 C 189.38217163085938 436.403564453125 192.2008514404297 490.6202087402344 188.9620819091797 479.50299072265625"/>
    <path stroke-width="0" fill="rgb(73, 77, 99)" opacity="1.0040197" stroke="rgb(47, 230, 138)" stroke-opacity="1.0" stroke-linecap="round" stroke-linejoin="round" d="M 191.61349487304688 480.88165283203125 C 135.81016540527344 478.589111328125 152.7960662841797 488.00146484375 155.17054748535156 450.428466796875 C 206.21612548828125 451.7034606933594 197.9665069580078 451.9513854980469 163.59735107421875 463.333984375 C 153.2794952392578 468.4704895019531 161.50645446777344 449.0233459472656 160.0763397216797 463.7493896484375 C 216.32615661621094 450.7713623046875 185.3091583251953 435.4117736816406 191.61349487304688 480.88165283203125"/>
    <path stroke-width="0" fill="rgb(260, 252, 183)" opacity="0.79533213" stroke="rgb(224, 116, 184)" stroke-opacity="1.0" stroke-linecap="round" stroke-linejoin="round" d="M 223.4053955078125 149.2118377685547 C 244.4770965576172 150.77711486816406 262.6141662597656 148.89830017089844 190.9718475341797 142.5232391357422 C 189.762939453125 119.82643127441406 227.6452178955078 32.928192138671875 233.7959442138672 112.39505767822266 C 261.1924743652344 123.26810455322266 233.82089233398438 69.69849395751953 222.69766235351562 80.33486938476562 C 237.59161376953125 88.127197265625 235.2552490234375 124.81050109863281 223.4053955078125 149.2118377685547"/>
    <path stroke-width="0" fill="rgb(164, 145, 53)" opacity="0.8717879" stroke="rgb(230, 175, 178)" stroke-opacity="1.0" stroke-linecap="round" stroke-linejoin="round" d="M 490.267822265625 320.44830322265625 C 468.0074157714844 329.4438171386719 447.9189147949219 339.2248840332031 450.2638854980469 338.19525146484375 C 463.4902038574219 305.4886474609375 466.7199401855469 289.0605163574219 469.35919189453125 284.3435363769531 C 461.8290100097656 321.1736145019531 468.3716125488281 321.987548828125 466.6401672363281 331.58807373046875 C 442.04449462890625 325.6889343261719 460.6590576171875 326.7344970703125 490.267822265625 320.44830322265625"/>
    <path stroke-width="0" fill="rgb(112, 222, -4)" opacity="0.7312595" stroke="rgb(192, 162, 61)" stroke-opacity="1.0" stroke-linecap="round" stroke-linejoin="round" d="M 256.3396301269531 95.06542205810547 C 243.60545349121094 71.97180938720703 223.03543090820312 26.388402938842773 251.09698486328125 77.61530303955078 C 250.28146362304688 76.61296081542969 247.94583129882812 72.77481079101562 264.9039306640625 110.69639587402344 C 282.1842956542969 217.81573486328125 266.3117370605469 133.58694458007812 220.5658416748047 49.77669143676758 C 253.76715087890625 43.09025955200195 246.54476928710938 79.73865509033203 256.3396301269531 95.06542205810547"/>
    <path stroke-width="0" fill="rgb(147, 223, 27)" opacity="0.8617121" stroke="rgb(203, 244, 116)" stroke-opacity="1.0" stroke-linecap="round" stroke-linejoin="round" d="M 445.92425537109375 176.07826232910156 C 481.46124267578125 140.77603149414062 461.0606384277344 167.359375 437.65802001953125 178.07632446289062 C 468.38885498046875 185.6156463623047 443.96527099609375 203.1055450439453 429.60601806640625 198.864501953125 C 418.57794189453125 173.85531616210938 488.9577331542969 172.2503662109375 465.6641540527344 136.88523864746094 C 470.750732421875 176.81610107421875 495.5383605957031 129.38706970214844 445.92425537109375 176.07826232910156"/>
    <path stroke-width="0" fill="rgb(86, 91, 138)" opacity="0.46203402" stroke="rgb(218, 116, 242)" stroke-opacity="1.0" stroke-linecap="round" stroke-linejoin="round" d="M 195.0460205078125 27.788925170898438 C 216.03102111816406 35.228336334228516 228.2273406982422 23.938655853271484 213.54652404785156 32.81761169433594 C 222.1234130859375 45.225341796875 237.83322143554688 35.62158966064453 230.0184783935547 37.533363342285156 C 218.10386657714844 37.689552307128906 225.89112854003906 37.74321365356445 260.0813293457031 24.31884002685547 C 211.3838348388672 42.72388458251953 224.8691864013672 36.77476501464844 195.0460205078125 27.788925170898438"/>
    <path stroke-width="0" fill="rgb(112, 203, 15)" opacity="0.8681907" stroke="rgb(209, 231, 207)" stroke-opacity="1.0" stroke-linecap="round" stroke-linejoin="round" d="M 252.0886688232422 92.05543518066406 C 257.2615661621094 92.34329223632812 232.89053344726562 89.41638946533203 249.37106323242188 92.70477294921875 C 270.8380126953125 90.91287231445312 259.26446533203125 92.10787963867188 251.95950317382812 92.57349395751953 C 263.63885498046875 139.2373809814453 250.0827178955078 84.25973510742188 248.432861328125 77.56888580322266 C 250.6951446533203 86.23731994628906 255.70994567871094 107.65382385253906 252.0886688232422 92.05543518066406"/>
    <path stroke-width="0" fill="rgb(128, 133, 143)" opacity="0.8534053" stroke="rgb(160, 101, 15)" stroke-opacity="1.0" stroke-linecap="round" stroke-linejoin="round" d="M 254.28485107421875 18.16126251220703 C 234.91241455078125 23.35146141052246 217.85694885253906 27.506624221801758 241.06027221679688 21.836904525756836 C 271.0264587402344 14.329298973083496 239.8900146484375 13.232759475708008 269.8721923828125 39.32371520996094 C 227.92544555664062 -5.1147074699401855 209.59625244140625 3.3782124519348145 225.36048889160156 -2.0891895294189453 C 242.65594482421875 15.23029899597168 268.95855712890625 39.3160514831543 254.28485107421875 18.16126251220703"/>
    <path stroke-width="0" fill="rgb(102, 219, -2)" opacity="0.7897835" stroke="rgb(65, 216, 8)" stroke-opacity="1.0" stroke-linecap="round" stroke-linejoin="round" d="M 197.88662719726562 174.2012176513672 C 185.0413818359375 153.22174072265625 197.1259765625 156.66172790527344 209.65020751953125 153.41165161132812 C 226.4528350830078 138.98043823242188 180.36343383789062 154.66490173339844 197.98739624023438 187.9868621826172 C 181.23016357421875 118.11144256591797 191.60687255859375 119.83110046386719 209.9042205810547 73.98100280761719 C 152.4053192138672 115.26873779296875 175.58712768554688 180.23037719726562 197.88662719726562 174.2012176513672"/>
    <path stroke-width="0" fill="rgb(120, 112, 91)" opacity="0.94558746" stroke="rgb(90, 90, 4)" stroke-opacity="1.0" stroke-linecap="round" stroke-linejoin="round" d="M 231.38104248046875 496.9429931640625 C 229.1050567626953 499.9148254394531 146.4888153076172 490.7296142578125 145.6211395263672 498.9549560546875 C 230.34786987304688 503.31817626953125 219.26254272460938 493.3424987792969 270.8660583496094 496.71453857421875 C 337.15234375 491.04510498046875 302.43817138671875 507.463623046875 351.27593994140625 495.6556701660156 C 207.1267547607422 507.3496398925781 229.5730438232422 494.81585693359375 231.38104248046875 496.9429931640625"/>
    <path stroke-width="0" fill="rgb(43, 76, 37)" opacity="0.34630528" stroke="rgb(102, 236, 25)" stroke-opacity="1.0" stroke-linecap="round" stroke-linejoin="round" d="M 198.0947723388672 68.75245666503906 C 191.69813537597656 76.33089447021484 184.04429626464844 88.42900848388672 212.60655212402344 112.60429382324219 C 180.11221313476562 86.91165924072266 195.12744140625 70.5141372680664 199.697509765625 66.14167022705078 C 188.92181396484375 76.19154357910156 203.20433044433594 67.81726837158203 183.22230529785156 69.90896606445312 C 192.853515625 70.01786041259766 197.958251953125 70.1037368774414 198.0947723388672 68.75245666503906"/>
    <path stroke-width="0" fill="rgb(87, 183, 0)" opacity="0.8686374" stroke="rgb(221, 115, 83)" stroke-opacity="1.0" stroke-linecap="round" stroke-linejoin="round" d="M 245.2678680419922 164.87420654296875 C 244.4915008544922 143.29734802246094 248.3567657470703 143.29249572753906 259.6547546386719 134.89894104003906 C 259.6476745605469 177.92222595214844 261.3424987792969 176.20286560058594 259.2428894042969 149.34335327148438 C 268.7784423828125 150.8283233642578 276.36553955078125 153.0060577392578 233.1332244873047 142.9690399169922 C 227.9626922607422 153.0775146484375 254.2665557861328 157.30091857910156 245.2678680419922 164.87420654296875"/>
    <path stroke-width="0" fill="rgb(216, 250, 115)" opacity="0.6415487" stroke="rgb(156, 8, 3)" stroke-opacity="1.0" stroke-linecap="round" stroke-linejoin="round" d="M 230.68295288085938 103.05843353271484 C 232.4143524169922 111.43433380126953 243.7692108154297 120.4449691772461 253.56336975097656 131.02291870117188 C 231.1149139404297 112.20545196533203 229.20494079589844 103.29902648925781 226.5310516357422 99.35877227783203 C 231.42782592773438 108.27503967285156 230.85855102539062 96.08390808105469 230.1566925048828 95.20899963378906 C 228.97018432617188 92.29830169677734 230.607421875 101.56378936767578 230.68295288085938 103.05843353271484"/>
    <path stroke-width="0" fill="rgb(0, 8, 29)" opacity="0.7823388" stroke="rgb(17, 64, 56)" stroke-opacity="1.0" stroke-linecap="round" stroke-linejoin="round" d="M 170.0135955810547 150.93386840820312 C 170.2374725341797 134.4918212890625 175.4556121826172 135.34423828125 172.27484130859375 126.42249298095703 C 168.02687072753906 147.24000549316406 165.66824340820312 139.89979553222656 180.0234832763672 174.41360473632812 C 176.1702117919922 166.90689086914062 164.25326538085938 153.3332977294922 151.45120239257812 145.46405029296875 C 179.38784790039062 170.47315979003906 172.61619567871094 152.76101684570312 170.0135955810547 150.93386840820312"/>
    <path stroke-width="0" fill="rgb(154, 112, 87)" opacity="0.9514596" stroke="rgb(33, 3, 29)" stroke-opacity="1.0" stroke-linecap="round" stroke-linejoin="round" d="M 536.125 294.1974182128906 C 505.2458801269531 317.268798828125 508.6228942871094 331.8068542480469 522.5184936523438 340.20574951171875 C 523.7874755859375 247.01296997070312 535.057373046875 293.3463439941406 492.4154052734375 294.193603515625 C 465.1204528808594 293.75347900390625 489.7882385253906 294.51727294921875 523.3135375976562 295.4572448730469 C 531.095947265625 267.7210388183594 536.8461303710938 289.4244079589844 536.125 294.1974182128906"/>
    <path stroke-width="0" fill="rgb(52, 59, 94)" opacity="0.8044507" stroke="rgb(248, 252, 104)" stroke-opacity="1.0" stroke-linecap="round" stroke-linejoin="round" d="M 264.39154052734375 85.90237426757812 C 275.6946716308594 67.03565216064453 255.62332153320312 85.4256362915039 277.05615234375 78.1312484741211 C 261.78070068359375 79.84109497070312 262.27032470703125 90.86121368408203 267.341552734375 86.53980255126953 C 279.6921691894531 126.77693176269531 279.8658752441406 119.33985137939453 270.07232666015625 98.4415054321289 C 265.80340576171875 98.2635498046875 272.0116271972656 85.29586029052734 264.39154052734375 85.90237426757812"/>
    <path stroke-width="0" fill="rgb(52, 113, -2)" opacity="0.55357295" stroke="rgb(162, 125, 252)" stroke-opacity="1.0" stroke-linecap="round" stroke-linejoin="round" d="M 220.56593322753906 184.60858154296875 C 234.9457550048828 188.21804809570312 195.56378173828125 162.22723388671875 203.18783569335938 145.78575134277344 C 191.546142578125 161.90676879882812 184.7664337158203 161.086669921875 190.817626953125 120.75453186035156 C 195.66766357421875 185.85084533691406 202.3311309814453 139.63699340820312 220.42742919921875 165.357666015625 C 182.80160522460938 125.03564453125 182.38784790039062 170.11959838867188 220.56593322753906 184.60858154296875"/>
    <path stroke-width="0" fill="rgb(86, 162, 4)" opacity="0.854174" stroke="rgb(199, 73, 61)" stroke-opacity="1.0" stroke-linecap="round" stroke-linejoin="round" d="M 244.93019104003906 141.18930053710938 C 209.9156494140625 154.41285705566406 219.45252990722656 161.94497680664062 228.89842224121094 167.7582244873047 C 247.6538543701172 177.12738037109375 199.22512817382812 194.9151153564453 223.2137451171875 188.42575073242188 C 250.4170684814453 197.38731384277344 251.26869201660156 185.91969299316406 245.6292266845703 174.5440216064453 C 218.5526885986328 180.32530212402344 286.8522033691406 170.83583068847656 244.93019104003906 141.18930053710938"/>
    <path stroke-width="0" fill="rgb(8, 26, 35)" opacity="0.74675256" stroke="rgb(62, 169, 131)" stroke-opacity="1.0" stroke-linecap="round" stroke-linejoin="round" d="M 168.7408447265625 164.4581756591797 C 166.06051635742188 152.90711975097656 174.74606323242188 147.480712890625 167.4047393798828 132.9913330078125 C 172.7153778076172 108.50807189941406 180.06961059570312 100.5473861694336 174.54769897460938 124.44390869140625 C 166.43406677246094 113.0896224975586 168.14752197265625 121.94274139404297 172.64625549316406 143.1829833984375 C 172.791748046875 158.84527587890625 171.18026733398438 149.93692016601562 168.7408447265625 164.4581756591797"/>
    <path stroke-width="0" fill="rgb(54, 149, 1)" opacity="0.771006" stroke="rgb(141, 73, 180)" stroke-opacity="1.0" stroke-linecap="round" stroke-linejoin="round" d="M 244.20706176757812 184.95367431640625 C 246.80136108398438 146.5153350830078 228.92703247070312 172.36326599121094 216.45025634765625 191.05291748046875 C 227.8907012939453 161.16818237304688 218.27487182617188 141.2787322998047 213.83230590820312 154.82278442382812 C 212.91769409179688 155.94598388671875 226.0089111328125 157.1146240234375 221.8541717529297 181.57147216796875 C 214.34231567382812 177.60372924804688 219.98062133789062 181.50711059570312 244.20706176757812 184.95367431640625"/>
    <path stroke-width="0" fill="rgb(196, 218, 88)" opacity="0.8474655" stroke="rgb(91, 211, 235)" stroke-opacity="1.0" stroke-linecap="round" stroke-linejoin="round" d="M 203.15065002441406 142.74607849121094 C 216.17404174804688 137.7972869873047 221.6157684326172 160.7257843017578 234.13571166992188 147.1285400390625 C 193.4652557373047 142.13365173339844 190.74099731445312 149.8236541748047 199.7212371826172 153.0856475830078 C 210.8409881591797 149.16778564453125 219.76673889160156 138.3697967529297 239.47508239746094 137.1068878173828 C 200.171630859375 154.016357421875 198.86158752441406 150.13436889648438 203.15065002441406 142.74607849121094"/>
    <path stroke-width="0" fill="rgb(260, 248, 182)" opacity="0.97132313" stroke="rgb(59, 88, 207)" stroke-opacity="1.0" stroke-linecap="round" stroke-linejoin="round" d="M 229.73760986328125 151.91314697265625 C 218.4249725341797 173.69102478027344 236.03872680664062 157.33139038085938 222.02549743652344 87.38594818115234 C 204.7652587890625 129.08212280273438 188.03866577148438 146.90452575683594 202.49234008789062 118.96347045898438 C 234.7379608154297 131.86517333984375 197.37713623046875 104.11024475097656 195.9266357421875 144.84463500976562 C 226.5142822265625 171.3332061767578 235.52276611328125 169.65431213378906 229.73760986328125 151.91314697265625"/>
    <path stroke-width="0" fill="rgb(122, 117, 31)" opacity="0.9555961" stroke="rgb(247, 230, 75)" stroke-opacity="1.0" stroke-linecap="round" stroke-linejoin="round" d="M 520.4051513671875 317.5467834472656 C 530.1004638671875 343.92352294921875 502.44219970703125 348.1446228027344 549.1727294921875 344.4311828613281 C 543.5477294921875 349.30859375 430.17950439453125 341.79632568359375 446.164306640625 345.6007080078125 C 456.2705993652344 288.37091064453125 458.1509704589844 298.71551513671875 463.0859375 301.707275390625 C 546.2099609375 298.06304931640625 596.3530883789062 277.6803283691406 520.4051513671875 317.5467834472656"/>
    <path stroke-width="0" fill="rgb(26, 37, 68)" opacity="0.998074" stroke="rgb(63, 27, 242)" stroke-opacity="1.0" stroke-linecap="round" stroke-linejoin="round" d="M 559.643798828125 305.05950927734375 C 521.5855712890625 315.489013671875 489.0696105957031 323.8018493652344 549.7821655273438 322.3927917480469 C 468.03314208984375 292.72857666015625 437.2062683105469 322.2520446777344 457.4567565917969 296.7618103027344 C 466.77142333984375 283.0653076171875 475.1557922363281 277.7397766113281 475.06109619140625 251.3166961669922 C 515.1303100585938 248.90818786621094 555.1222534179688 237.7177276611328 559.643798828125 305.05950927734375"/>
    <path stroke-width="0" fill="rgb(128, 187, 62)" opacity="0.87639433" stroke="rgb(175, 14, 186)" stroke-opacity="1.0" stroke-linecap="round" stroke-linejoin="round" d="M 474.3562316894531 134.58872985839844 C 482.1401672363281 105.98767852783203 486.38165283203125 164.16607666015625 465.9590759277344 152.18585205078125 C 475.35321044921875 133.02029418945312 454.6015319824219 171.389404296875 476.424072265625 127.76012420654297 C 474.0604248046875 121.643798828125 464.43511962890625 149.51828002929688 461.1343688964844 156.08489990234375 C 464.0406494140625 159.86863708496094 470.7981262207031 139.22935485839844 474.3562316894531 134.58872985839844"/>
    <path stroke-width="0" fill="rgb(202, 214, 121)" opacity="0.8616625" stroke="rgb(69, 96, 95)" stroke-opacity="1.0" stroke-linecap="round" stroke-linejoin="round" d="M 215.8617401123047 147.969970703125 C 227.6227264404297 180.67019653320312 228.0196533203125 183.21487426757812 235.0813751220703 166.4612579345703 C 244.24757385253906 160.81350708007812 207.24610900878906 167.16224670410156 211.88986206054688 158.77206420898438 C 216.2904052734375 154.4667510986328 221.0428009033203 150.11550903320312 237.63095092773438 172.47657775878906 C 237.8118896484375 143.89564514160156 222.68284606933594 138.87921142578125 215.8617401123047 147.969970703125"/>
    <path stroke-width="0" fill="rgb(91, 97, 111)" opacity="0.6513688" stroke="rgb(213, 60, 128)" stroke-opacity="1.0" stroke-linecap="round" stroke-linejoin="round" d="M 499.6507263183594 159.573486328125 C 466.8698425292969 150.66622924804688 464.7903137207031 187.69119262695312 469.819580078125 174.76637268066406 C 384.4651184082031 198.35894775390625 345.85540771484375 161.33135986328125 456.5141906738281 148.78628540039062 C 496.7983093261719 157.76956176757812 477.0947265625 147.30233764648438 396.75933837890625 -32.81615447998047 C 575.2553100585938 21.480175018310547 443.1903381347656 64.35845947265625 499.6507263183594 159.573486328125"/>
    <path stroke-width="0" fill="rgb(105, 220, -1)" opacity="0.75510055" stroke="rgb(161, 221, 239)" stroke-opacity="1.0" stroke-linecap="round" stroke-linejoin="round" d="M 271.6706848144531 140.0121612548828 C 270.54278564453125 197.0896453857422 214.28758239746094 202.1156463623047 212.6776885986328 187.95106506347656 C 269.7482604980469 172.52505493164062 199.7862548828125 187.03964233398438 209.1879119873047 189.73663330078125 C 168.10707092285156 164.15919494628906 207.95294189453125 181.88839721679688 232.27305603027344 179.19717407226562 C 223.37246704101562 192.9903564453125 242.5746307373047 172.67098999023438 271.6706848144531 140.0121612548828"/>
    <path stroke-width="0" fill="rgb(140, 222, 31)" opacity="0.7714803" stroke="rgb(18, 74, 38)" stroke-opacity="1.0" stroke-linecap="round" stroke-linejoin="round" d="M 475.7652587890625 147.09750366210938 C 466.2964782714844 197.79391479492188 445.7179260253906 178.6377410888672 463.2116394042969 199.67369079589844 C 486.66314697265625 173.7667236328125 444.19952392578125 128.88319396972656 452.5796203613281 151.2427978515625 C 418.7659912109375 160.1737518310547 418.1737060546875 114.3257064819336 463.588134765625 147.88937377929688 C 460.3204040527344 127.29874420166016 493.672607421875 124.76042938232422 475.7652587890625 147.09750366210938"/>
    <path stroke-width="0" fill="rgb(93, 100, 102)" opacity="0.47194394" stroke="rgb(33, 154, 97)" stroke-opacity="1.0" stroke-linecap="round" stroke-linejoin="round" d="M 473.99603271484375 180.70518493652344 C 472.8461608886719 188.57034301757812 456.0947570800781 185.44908142089844 469.6844177246094 198.37051391601562 C 444.0703125 206.2479705810547 445.0191955566406 201.20338439941406 463.5606689453125 201.26084899902344 C 419.8064880371094 206.87496948242188 478.92828369140625 212.70188903808594 449.7217712402344 210.12538146972656 C 462.746337890625 213.5246124267578 464.9516296386719 188.59901428222656 473.99603271484375 180.70518493652344"/>
    <path stroke-width="0" fill="rgb(109, 221, 0)" opacity="0.71797824" stroke="rgb(246, 139, 70)" stroke-opacity="1.0" stroke-linecap="round" stroke-linejoin="round" d="M 210.40237426757812 183.44647216796875 C 248.3578338623047 163.0240020751953 212.82992553710938 165.4500732421875 239.19517517089844 178.8509063720703 C 231.1761474609375 189.4058837890625 207.8254852294922 183.3510284423828 178.17697143554688 144.8981475830078 C 177.52871704101562 210.53379821777344 259.6231384277344 170.4185028076172 232.17703247070312 184.3032989501953 C 208.274658203125 187.24176025390625 223.863037109375 187.1087646484375 210.40237426757812 183.44647216796875"/>
    <path stroke-width="0" fill="rgb(257, 251, 179)" opacity="1.0020882" stroke="rgb(228, 103, 140)" stroke-opacity="1.0" stroke-linecap="round" stroke-linejoin="round" d="M 255.4037628173828 150.07447814941406 C 242.35128784179688 190.6132354736328 186.52987670898438 180.06719970703125 191.48492431640625 134.65614318847656 C 211.04664611816406 149.23915100097656 209.67698669433594 138.3922119140625 196.3651885986328 126.04847717285156 C 191.55104064941406 168.25914001464844 215.14540100097656 129.10174560546875 198.56533813476562 127.89978790283203 C 200.19131469726562 78.24140930175781 263.48809814453125 100.89998626708984 255.4037628173828 150.07447814941406"/>
    <path stroke-width="0" fill="rgb(105, 207, 0)" opacity="0.8790954" stroke="rgb(116, 102, 63)" stroke-opacity="1.0" stroke-linecap="round" stroke-linejoin="round" d="M 235.98684692382812 188.49551391601562 C 230.08399963378906 196.40806579589844 218.25433349609375 187.042236328125 208.35366821289062 180.45619201660156 C 258.4212646484375 177.60708618164062 253.0547332763672 162.22813415527344 261.3912353515625 174.45742797851562 C 228.62481689453125 201.037841796875 236.22012329101562 185.4125518798828 229.14195251464844 186.11566162109375 C 210.0704803466797 185.23410034179688 226.1878662109375 186.34078979492188 235.98684692382812 188.49551391601562"/>
    <path stroke-width="0" fill="rgb(79, 84, 98)" opacity="0.75656694" stroke="rgb(85, 235, 219)" stroke-opacity="1.0" stroke-linecap="round" stroke-linejoin="round" d="M 460.1404113769531 170.67550659179688 C 526.4647827148438 136.13943481445312 465.5052795410156 145.23350524902344 449.31292724609375 175.09307861328125 C 436.2152404785156 179.89498901367188 473.23675537109375 173.8051300048828 451.8340148925781 163.12539672851562 C 449.3878479003906 193.6848602294922 485.840087890625 180.78591918945312 453.95025634765625 165.34217834472656 C 519.2111206054688 166.00315856933594 469.7894592285156 148.72698974609375 460.1404113769531 170.67550659179688"/>
    <path stroke-width="0" fill="rgb(136, 147, 150)" opacity="0.22678734" stroke="rgb(64, 113, 26)" stroke-opacity="1.0" stroke-linecap="round" stroke-linejoin="round" d="M 454.08819580078125 205.41229248046875 C 383.16131591796875 201.0203857421875 443.8175354003906 227.97439575195312 466.9416198730469 191.7155303955078 C 477.22412109375 206.08226013183594 439.60430908203125 197.44847106933594 430.43316650390625 201.7744598388672 C 424.4527587890625 188.74639892578125 434.7800598144531 176.55441284179688 433.12017822265625 195.01388549804688 C 436.3150939941406 209.13241577148438 457.3061828613281 177.93692016601562 454.08819580078125 205.41229248046875"/>
    <path stroke-width="0" fill="rgb(94, 131, 230)" opacity="0.070498705" stroke="rgb(0, 0, 0)" stroke-opacity="0.0" stroke-linecap="round" stroke-linejoin="round" d="M 371.9862365722656 3.8405795097351074 C 370.3699035644531 7.812506675720215 367.57672119140625 10.920406341552734 363.9459228515625 11.557759284973145 C 360.1602783203125 10.52965259552002 357.13250732421875 7.558619022369385 355.8002624511719 3.938439130783081 C 356.7706298828125 0.0314224511384964 359.6853942871094 -2.898066997528076 363.7748718261719 -4.023651599884033 C 368.0054626464844 -3.158022880554199 370.95599365234375 -0.29561686515808105 371.9862365722656 3.8405795097351074"/>
    <path stroke-width="0" fill="rgb(162, 80, 61)" opacity="0.08163974" stroke="rgb(0, 0, 0)" stroke-opacity="0.0" stroke-linecap="round" stroke-linejoin="round" d="M 21.102632522583008 175.4720458984375 C 19.84568977355957 179.91207885742188 16.984214782714844 182.92408752441406 12.988860130310059 184.2200469970703 C 8.559237480163574 182.35812377929688 6.09012508392334 178.9751739501953 4.604979991912842 174.9248046875 C 5.292571544647217 171.22604370117188 8.400439262390137 168.74478149414062 12.379234313964844 168.653564453125 C 16.436424255371094 168.834228515625 19.61949348449707 171.20806884765625 21.102632522583008 175.4720458984375"/>
    <path stroke-width="0" fill="rgb(247, 8, 157)" opacity="0.566766" stroke="rgb(0, 0, 0)" stroke-opacity="0.0" stroke-linecap="round" stroke-linejoin="round" d="M 363.4177551269531 343.799560546875 C 362.8070373535156 347.9078063964844 359.9297790527344 350.8731689453125 356.54473876953125 350.9959716796875 C 351.9091491699219 350.76031494140625 349.0387878417969 348.0965270996094 347.96124267578125 344.18023681640625 C 349.2313537597656 340.1650695800781 352.0339050292969 337.1393127441406 355.4847106933594 336.8272705078125 C 358.9800720214844 338.0771789550781 362.3302001953125 340.97637939453125 363.4177551269531 343.799560546875"/>
    <path stroke-width="0" fill="rgb(168, 198, 139)" opacity="0.29833755" stroke="rgb(0, 0, 0)" stroke-opacity="0.0" stroke-linecap="round" stroke-linejoin="round" d="M 499.48626708984375 9.20132064819336 C 500.12994384765625 13.269523620605469 497.69293212890625 16.279739379882812 492.6526184082031 16.357004165649414 C 488.4417724609375 16.203264236450195 486.24957275390625 12.90028190612793 485.82275390625 7.981916904449463 C 485.0892639160156 3.660226345062256 487.90252685546875 0.7124617099761963 492.2763366699219 0.05584191530942917 C 496.6571350097656 1.8644169569015503 499.2208251953125 5.117885589599609 499.48626708984375 9.20132064819336"/>
    <path stroke-width="0" fill="rgb(132, 176, 23)" opacity="0.2277595" stroke="rgb(0, 0, 0)" stroke-opacity="0.0" stroke-linecap="round" stroke-linejoin="round" d="M 10.985454559326172 -44.70646667480469 C 9.913658142089844 -40.70646667480469 6.985454559326172 -37.778263092041016 2.985454797744751 -36.70646667480469 C -1.0145453214645386 -37.778263092041016 -3.942748546600342 -40.70646667480469 -5.014545440673828 -44.70646667480469 C -3.942748546600342 -48.70646667480469 -1.0145453214645386 -51.63467025756836 2.985454797744751 -52.70646667480469 C 6.985454559326172 -51.63467025756836 9.913658142089844 -48.70646667480469 10.985454559326172 -44.70646667480469"/>
    <path stroke-width="0" fill="rgb(155, 40, 242)" opacity="0.831009" stroke="rgb(0, 0, 0)" stroke-opacity="0.0" stroke-linecap="round" stroke-linejoin="round" d="M 326.56915283203125 454.0583190917969 C 326.3724365234375 458.6188049316406 323.6631164550781 461.556640625 320.05511474609375 461.5788879394531 C 315.8592834472656 460.38641357421875 313.17913818359375 457.266845703125 311.84283447265625 453.25323486328125 C 312.34063720703125 450.45550537109375 315.5267639160156 447.6363525390625 319.57000732421875 446.3533630371094 C 322.9349670410156 447.4066162109375 325.9481506347656 450.27142333984375 326.56915283203125 454.0583190917969"/>
    <path stroke-width="0" fill="rgb(229, 216, 238)" opacity="0.8991256" stroke="rgb(0, 0, 0)" stroke-opacity="0.0" stroke-linecap="round" stroke-linejoin="round" d="M 480.5395812988281 277.6708068847656 C 480.0600280761719 281.49853515625 475.98175048828125 283.6925048828125 472.6789245605469 284.84515380859375 C 469.1905212402344 283.1695251464844 465.654296875 280.4421081542969 463.8542785644531 276.9266052246094 C 465.0551452636719 273.20013427734375 468.4800109863281 270.711669921875 472.45831298828125 269.3434143066406 C 475.9295349121094 270.5058898925781 479.4366455078125 273.1788024902344 480.5395812988281 277.6708068847656"/>
    <path stroke-width="0" fill="rgb(238, 82, 49)" opacity="0.85113955" stroke="rgb(0, 0, 0)" stroke-opacity="0.0" stroke-linecap="round" stroke-linejoin="round" d="M 96.78064727783203 198.9613494873047 C 96.13502502441406 203.21060180664062 93.54380798339844 206.2473602294922 89.51908874511719 206.68182373046875 C 84.8005142211914 206.35403442382812 82.08299255371094 203.82699584960938 81.64098358154297 200.03501892089844 C 83.19583129882812 195.8055419921875 86.05034637451172 193.0191650390625 89.8141098022461 192.3024444580078 C 93.58010864257812 192.65640258789062 96.48548126220703 194.9416046142578 96.78064727783203 198.9613494873047"/>
    <path stroke-width="0" fill="rgb(161, 109, 26)" opacity="0.6665118" stroke="rgb(0, 0, 0)" stroke-opacity="0.0" stroke-linecap="round" stroke-linejoin="round" d="M 471.9406433105469 81.41783905029297 C 471.3431396484375 85.87762451171875 468.7393798828125 88.69973754882812 464.34234619140625 89.70433044433594 C 460.58319091796875 89.04973602294922 457.5477294921875 86.31463623046875 457.5652160644531 81.68363189697266 C 457.18218994140625 77.00094604492188 459.80804443359375 74.53156280517578 464.9634704589844 74.90532684326172 C 469.1383056640625 75.18706512451172 471.90740966796875 77.7756118774414 471.9406433105469 81.41783905029297"/>
    <path stroke-width="0" fill="rgb(25, 223, 185)" opacity="0.8550189" stroke="rgb(0, 0, 0)" stroke-opacity="0.0" stroke-linecap="round" stroke-linejoin="round" d="M 27.27032470703125 30.69417953491211 C 26.739192962646484 34.41127395629883 24.046606063842773 37.212806701660156 20.559852600097656 37.83142852783203 C 17.07386016845703 36.75718688964844 13.817963600158691 34.062931060791016 12.565316200256348 30.611289978027344 C 13.337162971496582 26.207860946655273 15.794898986816406 23.71763038635254 19.99313735961914 24.31966781616211 C 23.826539993286133 24.23576545715332 26.256864547729492 27.352956771850586 27.27032470703125 30.69417953491211"/>
  </g>
</svg>
