<?xml version="1.0" ?>
<svg xmlns="http://www.w3.org/2000/svg" version="1.1" width="512" height="512">
  <defs/>
  <g>
    <path stroke-width="0" fill="rgb(-6, 256, 31)" opacity="1.0725973" stroke="rgb(139, 182, 153)" stroke-opacity="1.0" stroke-linecap="round" stroke-linejoin="round" d="M 212.21646118164062 170.0994873046875 C 86.14147186279297 66.3565902709961 146.50228881835938 161.947021484375 -9.50160026550293 310.8496398925781 C -50.378868103027344 273.6083984375 -32.041439056396484 244.43482971191406 1.2073835134506226 198.65945434570312 C 58.939693450927734 83.45626068115234 63.033050537109375 72.81828308105469 76.49996948242188 107.8143539428711 C 269.9324645996094 192.58985900878906 145.22451782226562 49.96593475341797 212.21646118164062 170.0994873046875"/>
    <path stroke-width="0" fill="rgb(252, 291, 210)" opacity="0.64186895" stroke="rgb(108, 164, 111)" stroke-opacity="1.0" stroke-linecap="round" stroke-linejoin="round" d="M 137.5450439453125 -39.72789764404297 C 85.64190673828125 149.4803924560547 121.30786895751953 226.376220703125 -0.3322075605392456 267.3077087402344 C -46.547916412353516 225.74099731445312 -45.62079620361328 209.98471069335938 -47.316612243652344 66.32988739013672 C -49.11305618286133 -8.18151569366455 -55.94807434082031 -28.422311782836914 15.614151954650879 -48.40176773071289 C 199.6168670654297 -48.19676208496094 200.75816345214844 -41.44858932495117 137.5450439453125 -39.72789764404297"/>
    <path stroke-width="0" fill="rgb(176, 225, 72)" opacity="0.52593106" stroke="rgb(245, 97, 201)" stroke-opacity="1.0" stroke-linecap="round" stroke-linejoin="round" d="M 563.8391723632812 -46.56962203979492 C 586.0159912109375 497.6336975097656 588.2413940429688 535.3872680664062 545.206298828125 494.8797912597656 C -94.962890625 495.2516784667969 -78.17173767089844 493.64739990234375 -87.02190399169922 470.0618591308594 C 83.84368133544922 148.251953125 151.8775634765625 157.77455139160156 338.2563171386719 -46.6005859375 C 391.4353942871094 -64.82481384277344 407.0115051269531 -154.88951110839844 563.8391723632812 -46.56962203979492"/>
    <path stroke-width="0" fill="rgb(5, 116, 93)" opacity="0.7604941" stroke="rgb(144, 236, 18)" stroke-opacity="1.0" stroke-linecap="round" stroke-linejoin="round" d="M 282.724853515625 27.017765045166016 C 61.20212936401367 241.42202758789062 199.4994659423828 67.8026123046875 515.4143676757812 372.3624267578125 C 139.19825744628906 530.1439819335938 -181.38372802734375 505.35003662109375 -293.6660461425781 353.3056945800781 C 34.29404067993164 4.751957416534424 15.33503532409668 -22.07505989074707 240.18125915527344 -42.46085739135742 C 283.04351806640625 -42.68965530395508 301.0686340332031 -43.763160705566406 282.724853515625 27.017765045166016"/>
    <path stroke-width="0" fill="rgb(207, 95, 81)" opacity="0.82330555" stroke="rgb(5, 212, 198)" stroke-opacity="1.0" stroke-linecap="round" stroke-linejoin="round" d="M 258.3553466796875 315.1386413574219 C 285.2469482421875 286.4923400878906 274.2171325683594 292.26788330078125 217.3060302734375 339.8318786621094 C 205.05032348632812 340.58917236328125 199.66281127929688 332.484619140625 199.55224609375 288.57647705078125 C 252.51907348632812 277.05010986328125 283.45977783203125 286.3007507324219 291.8605041503906 290.6253356933594 C 238.08169555664062 293.3650817871094 249.38897705078125 304.8355407714844 258.3553466796875 315.1386413574219"/>
    <path stroke-width="0" fill="rgb(224, 159, 44)" opacity="1.0012004" stroke="rgb(249, 203, 117)" stroke-opacity="1.0" stroke-linecap="round" stroke-linejoin="round" d="M 334.60577392578125 467.90216064453125 C 352.97174072265625 502.2153015136719 276.76519775390625 459.7835693359375 158.669189453125 466.2842712402344 C 121.97454833984375 429.6201171875 133.8469696044922 456.7850646972656 109.78241729736328 340.5347595214844 C 114.08905792236328 320.0484619140625 178.9064178466797 337.86614990234375 241.02406311035156 377.38299560546875 C 242.2410888671875 287.29315185546875 323.61822509765625 257.87664794921875 334.60577392578125 467.90216064453125"/>
    <path stroke-width="0" fill="rgb(229, 101, 100)" opacity="0.9797596" stroke="rgb(30, 163, 36)" stroke-opacity="1.0" stroke-linecap="round" stroke-linejoin="round" d="M 373.8227844238281 341.3562316894531 C 352.4101867675781 462.36614990234375 363.6258850097656 461.7511901855469 337.7257995605469 440.1448059082031 C 237.17408752441406 443.161376953125 178.11378479003906 442.17657470703125 149.41424560546875 441.3191223144531 C 101.48380279541016 224.8544158935547 114.14434051513672 368.63311767578125 291.3377990722656 338.78009033203125 C 340.5603942871094 348.3753967285156 361.44317626953125 315.3456115722656 373.8227844238281 341.3562316894531"/>
    <path stroke-width="0" fill="rgb(170, 101, 96)" opacity="0.6870043" stroke="rgb(133, 105, 67)" stroke-opacity="1.0" stroke-linecap="round" stroke-linejoin="round" d="M 297.38372802734375 283.8800354003906 C 306.4648742675781 286.21136474609375 291.8373107910156 293.1233825683594 296.0838928222656 299.1444396972656 C 255.4132843017578 289.0733337402344 254.1348114013672 289.88262939453125 292.44671630859375 304.4380798339844 C 305.7943115234375 300.4054260253906 317.68389892578125 291.3253479003906 260.4233093261719 290.2126770019531 C 250.27676391601562 301.3841247558594 274.56842041015625 296.8135681152344 297.38372802734375 283.8800354003906"/>
    <path stroke-width="0" fill="rgb(56, 171, 129)" opacity="0.99769324" stroke="rgb(116, 144, 4)" stroke-opacity="1.0" stroke-linecap="round" stroke-linejoin="round" d="M 262.22576904296875 290.0814514160156 C 266.1291809082031 331.18536376953125 259.2225036621094 319.86151123046875 205.42230224609375 333.28533935546875 C 84.74735260009766 356.7911376953125 131.5376739501953 293.7568054199219 159.8632354736328 307.8371887207031 C 167.01351928710938 259.6573486328125 145.04376220703125 276.9678649902344 279.4187316894531 280.02874755859375 C 234.30177307128906 291.63482666015625 263.5238952636719 281.5788269042969 262.22576904296875 290.0814514160156"/>
    <path stroke-width="0" fill="rgb(224, 73, 90)" opacity="0.50724506" stroke="rgb(156, 157, 240)" stroke-opacity="1.0" stroke-linecap="round" stroke-linejoin="round" d="M 315.62060546875 374.5740051269531 C 289.2725524902344 369.373046875 326.1137390136719 351.8763427734375 265.91046142578125 358.5438537597656 C 212.80174255371094 360.1452941894531 199.2454376220703 361.0413818359375 167.1334686279297 380.23748779296875 C 168.84909057617188 264.5705261230469 175.2981414794922 283.10162353515625 370.475830078125 269.1800842285156 C 290.50750732421875 317.9979553222656 317.8228759765625 215.13958740234375 315.62060546875 374.5740051269531"/>
    <path stroke-width="0" fill="rgb(72, 99, 107)" opacity="0.35813364" stroke="rgb(91, 111, 177)" stroke-opacity="1.0" stroke-linecap="round" stroke-linejoin="round" d="M 290.9955749511719 332.4789123535156 C 348.12652587890625 284.66387939453125 351.9964294433594 360.95941162109375 316.576171875 327.4751892089844 C 283.7305908203125 403.8645935058594 245.6754608154297 377.8740234375 244.8818817138672 305.71990966796875 C 226.08056640625 272.02679443359375 228.7523651123047 278.8064880371094 322.42803955078125 272.3273620605469 C 305.4762878417969 257.0489196777344 336.919189453125 313.5581359863281 290.9955749511719 332.4789123535156"/>
    <path stroke-width="0" fill="rgb(272, 110, 74)" opacity="0.99406636" stroke="rgb(170, 171, 53)" stroke-opacity="1.0" stroke-linecap="round" stroke-linejoin="round" d="M 333.1607360839844 402.4115905761719 C 337.9811706542969 421.0050354003906 339.9692077636719 417.5923156738281 223.2688446044922 422.1293640136719 C 74.80078887939453 418.6618957519531 191.9290008544922 422.0681457519531 156.10154724121094 285.6556701660156 C 155.25457763671875 254.0560760498047 116.20886993408203 257.5670471191406 300.7126159667969 251.9136962890625 C 359.97869873046875 257.5352478027344 286.44073486328125 320.52691650390625 333.1607360839844 402.4115905761719"/>
    <path stroke-width="0" fill="rgb(40, 8, 52)" opacity="0.87218183" stroke="rgb(80, 92, 145)" stroke-opacity="1.0" stroke-linecap="round" stroke-linejoin="round" d="M 496.52581787109375 -56.941070556640625 C 600.885009765625 320.5964660644531 526.26611328125 351.4994812011719 444.3756408691406 408.25701904296875 C 442.5581359863281 386.8849792480469 471.1454772949219 392.7396545410156 472.8518371582031 345.598388671875 C 478.8420104980469 234.29469299316406 505.7474670410156 260.2542724609375 388.583251953125 244.73101806640625 C 500.8325500488281 110.77107238769531 428.4768981933594 20.737682342529297 496.52581787109375 -56.941070556640625"/>
    <path stroke-width="0" fill="rgb(91, 91, 145)" opacity="0.8396857" stroke="rgb(252, 26, 53)" stroke-opacity="1.0" stroke-linecap="round" stroke-linejoin="round" d="M 531.9500732421875 402.67364501953125 C 507.9062194824219 471.2635803222656 491.23699951171875 472.68603515625 485.7147216796875 456.4449157714844 C 444.98406982421875 522.1895141601562 446.433837890625 401.06658935546875 454.1551513671875 447.02972412109375 C 416.4400329589844 442.6766052246094 427.0488586425781 412.0473327636719 423.9322204589844 362.0214538574219 C 484.9780578613281 373.426513671875 496.0190734863281 380.3096618652344 531.9500732421875 402.67364501953125"/>
    <path stroke-width="0" fill="rgb(1, 47, 67)" opacity="0.9975558" stroke="rgb(166, 64, 118)" stroke-opacity="1.0" stroke-linecap="round" stroke-linejoin="round" d="M 535.6375122070312 493.5281982421875 C 560.3358764648438 491.8785095214844 536.7335815429688 484.0208740234375 442.90020751953125 477.5162353515625 C 413.57464599609375 473.1338195800781 391.2501525878906 489.41668701171875 414.6907043457031 483.2711181640625 C 434.5638427734375 375.8970642089844 443.4122314453125 270.08782958984375 448.2980651855469 344.58392333984375 C 463.2094421386719 451.2506103515625 521.6632690429688 397.3211975097656 535.6375122070312 493.5281982421875"/>
    <path stroke-width="0" fill="rgb(266, 234, 120)" opacity="0.6957723" stroke="rgb(40, 28, 167)" stroke-opacity="1.0" stroke-linecap="round" stroke-linejoin="round" d="M 397.85101318359375 483.4413146972656 C 649.1026611328125 439.3709411621094 637.5042724609375 686.1680908203125 -109.34970092773438 485.3213806152344 C 430.5577697753906 469.768310546875 456.9598693847656 508.0253601074219 330.6715393066406 449.7062072753906 C 336.45294189453125 408.0344543457031 355.7299499511719 323.60382080078125 354.05828857421875 330.250244140625 C 402.7196044921875 343.5918884277344 372.5527038574219 299.93609619140625 397.85101318359375 483.4413146972656"/>
    <path stroke-width="0" fill="rgb(61, 4, 35)" opacity="1.0194978" stroke="rgb(50, 94, 209)" stroke-opacity="1.0" stroke-linecap="round" stroke-linejoin="round" d="M 299.3634948730469 215.34051513671875 C 222.92477416992188 195.53604125976562 358.2201232910156 230.94845581054688 255.86038208007812 205.85446166992188 C 22.24238395690918 235.59591674804688 322.0303649902344 -155.22642517089844 171.34629821777344 149.8654327392578 C 366.49407958984375 228.3158721923828 176.7900390625 21.60521125793457 240.4965362548828 20.14729881286621 C 331.66546630859375 103.24951171875 318.0566711425781 185.64422607421875 299.3634948730469 215.34051513671875"/>
    <path stroke-width="0" fill="rgb(61, 184, -51)" opacity="1.0262718" stroke="rgb(213, 24, 248)" stroke-opacity="1.0" stroke-linecap="round" stroke-linejoin="round" d="M 272.5247497558594 198.91647338867188 C 275.8099365234375 215.58169555664062 309.126708984375 219.6083526611328 167.74082946777344 152.6390838623047 C 219.2650604248047 278.8094482421875 294.4139099121094 102.25190734863281 222.58865356445312 75.97644805908203 C 128.4671630859375 311.4553527832031 181.5496368408203 -40.80989074707031 255.98133850097656 46.33035659790039 C 349.8511047363281 215.8487091064453 217.30393981933594 179.92535400390625 272.5247497558594 198.91647338867188"/>
    <path stroke-width="0" fill="rgb(202, 115, 119)" opacity="0.687676" stroke="rgb(249, 154, 188)" stroke-opacity="1.0" stroke-linecap="round" stroke-linejoin="round" d="M 323.85748291015625 350.15521240234375 C 332.8245849609375 478.02752685546875 361.88311767578125 236.66172790527344 330.27227783203125 391.04034423828125 C 51.01329803466797 386.0907287597656 190.53091430664062 404.91033935546875 144.9750518798828 350.7134094238281 C 212.1521759033203 364.3183898925781 288.054443359375 345.3282775878906 221.51022338867188 356.09063720703125 C 269.8666687011719 353.61187744140625 239.13720703125 350.42413330078125 323.85748291015625 350.15521240234375"/>
    <path stroke-width="0" fill="rgb(188, 177, 57)" opacity="0.9661872" stroke="rgb(72, 30, 75)" stroke-opacity="1.0" stroke-linecap="round" stroke-linejoin="round" d="M 550.4605712890625 392.6938171386719 C 525.4765625 420.6216735839844 482.2732849121094 428.806640625 444.5567626953125 361.8591613769531 C 435.5800476074219 477.1151428222656 401.98736572265625 607.0272827148438 426.9292297363281 343.5647888183594 C 377.1817321777344 346.0722961425781 408.079345703125 215.9304656982422 425.0997009277344 294.113037109375 C 530.2301025390625 320.58770751953125 550.1305541992188 267.56805419921875 550.4605712890625 392.6938171386719"/>
    <path stroke-width="0" fill="rgb(192, 177, 62)" opacity="0.31910163" stroke="rgb(81, 105, 16)" stroke-opacity="1.0" stroke-linecap="round" stroke-linejoin="round" d="M 554.8024291992188 298.72125244140625 C 486.9042053222656 390.5771789550781 450.2109680175781 420.78289794921875 417.6400451660156 309.2096862792969 C 434.281982421875 503.3198547363281 396.07415771484375 591.6097412109375 437.12225341796875 351.2688903808594 C 412.5480041503906 271.166259765625 425.4696960449219 315.54083251953125 512.1943969726562 301.7532043457031 C 518.238037109375 275.54443359375 530.0408325195312 279.0945129394531 554.8024291992188 298.72125244140625"/>
    <path stroke-width="0" fill="rgb(122, 150, 19)" opacity="0.50010467" stroke="rgb(144, 67, 133)" stroke-opacity="1.0" stroke-linecap="round" stroke-linejoin="round" d="M 461.3807373046875 251.08026123046875 C 479.1559753417969 85.71270751953125 485.7132263183594 186.94383239746094 425.3247985839844 140.9298858642578 C 436.11492919921875 133.09085083007812 461.6647033691406 156.75006103515625 443.5982971191406 104.6209487915039 C 446.1332702636719 114.42642211914062 471.1866455078125 155.42153930664062 449.0029602050781 143.33917236328125 C 408.51361083984375 43.002891540527344 504.8585510253906 151.2289276123047 461.3807373046875 251.08026123046875"/>
    <path stroke-width="0" fill="rgb(5, 55, 70)" opacity="1.0001454" stroke="rgb(146, 236, 81)" stroke-opacity="1.0" stroke-linecap="round" stroke-linejoin="round" d="M 556.6520385742188 483.99859619140625 C 553.0545654296875 506.82989501953125 547.32421875 512.4262084960938 529.0767211914062 480.3565979003906 C 479.21783447265625 501.122802734375 487.23333740234375 377.6156921386719 437.329833984375 422.85809326171875 C 453.4143371582031 395.4498596191406 442.7897644042969 394.9150695800781 471.7643737792969 394.3039855957031 C 517.6152954101562 398.97747802734375 549.5830688476562 379.05218505859375 556.6520385742188 483.99859619140625"/>
    <path stroke-width="0" fill="rgb(-54, 121, 64)" opacity="0.43834135" stroke="rgb(33, 182, 73)" stroke-opacity="1.0" stroke-linecap="round" stroke-linejoin="round" d="M 598.2545776367188 3.512051582336426 C 594.5765380859375 301.3413391113281 560.136962890625 296.5363464355469 465.3403625488281 316.29248046875 C 392.7877502441406 301.6054992675781 416.66583251953125 311.94146728515625 399.69384765625 307.6699523925781 C 306.4426574707031 410.8329772949219 298.5135498046875 80.07684326171875 225.88165283203125 -36.27175521850586 C 616.9965209960938 -80.57600402832031 610.6663208007812 -56.13962936401367 598.2545776367188 3.512051582336426"/>
    <path stroke-width="0" fill="rgb(245, 253, 130)" opacity="0.87241155" stroke="rgb(149, 5, 211)" stroke-opacity="1.0" stroke-linecap="round" stroke-linejoin="round" d="M 458.04150390625 369.5856018066406 C 440.19580078125 350.4384460449219 430.1600646972656 360.5194091796875 486.298583984375 374.38134765625 C 392.7506103515625 348.369140625 447.223876953125 288.305908203125 380.83843994140625 547.569091796875 C 418.9656677246094 239.96444702148438 414.9085388183594 318.8681945800781 507.3295593261719 309.70379638671875 C 413.21697998046875 386.4302062988281 434.1136169433594 340.82373046875 458.04150390625 369.5856018066406"/>
    <path stroke-width="0" fill="rgb(24, 91, 129)" opacity="1.0047339" stroke="rgb(172, 68, 187)" stroke-opacity="1.0" stroke-linecap="round" stroke-linejoin="round" d="M 381.942138671875 152.90403747558594 C 355.3359375 606.1412963867188 313.82647705078125 364.3063049316406 327.6744384765625 484.6886901855469 C 285.9255065917969 468.83966064453125 298.2550048828125 488.50732421875 278.5174560546875 454.5355529785156 C 317.7359924316406 464.005859375 301.14556884765625 451.01983642578125 317.3971252441406 481.2297668457031 C 387.90386962890625 461.3246154785156 401.4765625 573.185302734375 381.942138671875 152.90403747558594"/>
    <path stroke-width="0" fill="rgb(3, 59, 71)" opacity="0.9390808" stroke="rgb(63, 146, 150)" stroke-opacity="1.0" stroke-linecap="round" stroke-linejoin="round" d="M 528.1514282226562 411.78558349609375 C 494.3273620605469 400.41937255859375 483.037353515625 428.451416015625 499.05865478515625 450.7607421875 C 479.89727783203125 410.8924255371094 420.1058044433594 452.6103515625 436.1192321777344 362.4488220214844 C 438.8222961425781 364.3950500488281 433.1225280761719 361.6885986328125 497.7537841796875 358.4369201660156 C 505.9746398925781 345.5794677734375 535.29638671875 355.0396728515625 528.1514282226562 411.78558349609375"/>
    <path stroke-width="0" fill="rgb(7, 60, 81)" opacity="0.23433028" stroke="rgb(56, 242, 114)" stroke-opacity="1.0" stroke-linecap="round" stroke-linejoin="round" d="M 509.4817199707031 451.03314208984375 C 548.5370483398438 457.5455627441406 548.2296752929688 462.8917236328125 559.5117797851562 433.8433837890625 C 499.90936279296875 394.81927490234375 467.03277587890625 389.6893310546875 441.24072265625 368.8894348144531 C 440.7021484375 358.568115234375 438.1373291015625 383.29180908203125 435.66302490234375 451.05224609375 C 455.4426574707031 382.7776794433594 470.1875 421.2456970214844 509.4817199707031 451.03314208984375"/>
    <path stroke-width="0" fill="rgb(120, 143, 155)" opacity="0.7142833" stroke="rgb(178, 75, 207)" stroke-opacity="1.0" stroke-linecap="round" stroke-linejoin="round" d="M 145.01283264160156 57.02675247192383 C 183.74075317382812 166.70652770996094 130.99012756347656 188.82493591308594 92.86356353759766 113.2774887084961 C 79.80615997314453 101.42595672607422 75.10507202148438 95.25780487060547 76.76788330078125 84.0816879272461 C 114.2912368774414 53.067909240722656 90.53579711914062 69.65758514404297 113.18804931640625 30.87708282470703 C 136.46836853027344 49.08999252319336 153.64271545410156 61.99283218383789 145.01283264160156 57.02675247192383"/>
    <path stroke-width="0" fill="rgb(5, 31, 92)" opacity="0.9930323" stroke="rgb(224, 148, 224)" stroke-opacity="1.0" stroke-linecap="round" stroke-linejoin="round" d="M 275.5421447753906 445.1233215332031 C 270.8792419433594 456.6484069824219 282.3155822753906 461.09002685546875 283.330322265625 478.5602722167969 C 162.59884643554688 476.42877197265625 197.84329223632812 475.4461669921875 204.10853576660156 451.4004211425781 C 180.13796997070312 449.8359069824219 290.42236328125 451.5472717285156 267.9640808105469 445.2696838378906 C 279.6214904785156 449.0687255859375 270.130615234375 457.96990966796875 275.5421447753906 445.1233215332031"/>
    <path stroke-width="0" fill="rgb(108, 161, 150)" opacity="0.8638422" stroke="rgb(184, 127, 243)" stroke-opacity="1.0" stroke-linecap="round" stroke-linejoin="round" d="M 134.935791015625 35.20892333984375 C 140.6050567626953 37.381195068359375 133.5612335205078 45.06220626831055 122.09742736816406 50.39482116699219 C 63.813514709472656 49.472957611083984 57.391536712646484 41.802188873291016 55.54962158203125 26.338029861450195 C 81.9869384765625 -6.683027744293213 89.33184051513672 -13.97102165222168 98.61467742919922 -15.408868789672852 C 105.1318588256836 -9.123384475708008 107.59217071533203 2.470076560974121 134.935791015625 35.20892333984375"/>
    <path stroke-width="0" fill="rgb(167, 184, 192)" opacity="1.0995699" stroke="rgb(108, 154, 4)" stroke-opacity="1.0" stroke-linecap="round" stroke-linejoin="round" d="M 80.39403533935547 4.224989891052246 C 74.75698852539062 15.701108932495117 67.69998931884766 22.944875717163086 57.878883361816406 25.258012771606445 C 50.638648986816406 25.049325942993164 42.53135299682617 17.656084060668945 38.93513107299805 11.386855125427246 C 42.458866119384766 -2.0177454948425293 48.88608169555664 -9.834980964660645 59.92182922363281 -12.201756477355957 C 70.94622039794922 -9.865418434143066 79.36233520507812 -3.166045904159546 80.39403533935547 4.224989891052246"/>
    <path stroke-width="0" fill="rgb(129, 151, 127)" opacity="0.8905809" stroke="rgb(168, 73, 157)" stroke-opacity="1.0" stroke-linecap="round" stroke-linejoin="round" d="M 71.43223571777344 16.493803024291992 C 67.84442901611328 24.909645080566406 60.7718620300293 32.021976470947266 44.795833587646484 42.19160461425781 C 20.673542022705078 46.04644775390625 10.549431800842285 45.83776092529297 37.27859115600586 32.3994140625 C 57.454307556152344 18.994876861572266 56.76450729370117 15.752364158630371 34.1427116394043 -20.00917625427246 C 60.4892578125 0.07158584147691727 67.3179702758789 7.769290447235107 71.43223571777344 16.493803024291992"/>
    <path stroke-width="0" fill="rgb(5, 155, 82)" opacity="0.63903064" stroke="rgb(34, 76, 145)" stroke-opacity="1.0" stroke-linecap="round" stroke-linejoin="round" d="M 223.587890625 15.40903091430664 C 171.0900115966797 92.84627532958984 139.90090942382812 86.1398696899414 117.4942398071289 107.21285247802734 C 84.09366607666016 111.74381256103516 79.32015991210938 104.69905090332031 105.40504455566406 94.58028411865234 C 104.16548919677734 49.30092239379883 107.68038177490234 40.91935348510742 118.18899536132812 -8.30806827545166 C 153.7571258544922 -35.08024215698242 203.8349151611328 -41.0477294921875 223.587890625 15.40903091430664"/>
    <path stroke-width="0" fill="rgb(146, 155, 137)" opacity="0.96692663" stroke="rgb(146, 166, 166)" stroke-opacity="1.0" stroke-linecap="round" stroke-linejoin="round" d="M 168.68199157714844 246.7128448486328 C 170.8880157470703 214.46871948242188 121.01630401611328 216.50308227539062 46.82698059082031 192.663330078125 C 34.56595230102539 188.9881134033203 27.353164672851562 182.28733825683594 38.44423294067383 144.0788116455078 C 59.08879089355469 86.62077331542969 65.73529052734375 79.52110290527344 61.50413513183594 94.53819274902344 C 123.51952362060547 106.08199310302734 27.642566680908203 186.15737915039062 168.68199157714844 246.7128448486328"/>
    <path stroke-width="0" fill="rgb(163, 250, 216)" opacity="0.33848447" stroke="rgb(228, 93, 111)" stroke-opacity="1.0" stroke-linecap="round" stroke-linejoin="round" d="M 223.7059783935547 29.959321975708008 C 185.153564453125 33.440025329589844 152.74594116210938 151.49427795410156 161.8789825439453 166.67727661132812 C 42.07221221923828 147.501220703125 97.61076354980469 59.6528434753418 79.69066619873047 12.050655364990234 C 83.06804656982422 2.0501222610473633 90.35328674316406 -5.125019550323486 105.61080932617188 -7.707533836364746 C 172.53294372558594 -17.84931182861328 207.4004364013672 -75.553466796875 223.7059783935547 29.959321975708008"/>
    <path stroke-width="0" fill="rgb(139, 172, 140)" opacity="0.9969579" stroke="rgb(205, 179, 25)" stroke-opacity="1.0" stroke-linecap="round" stroke-linejoin="round" d="M 92.75318908691406 56.20054626464844 C 45.44049072265625 83.48448181152344 41.705543518066406 91.36968231201172 -9.247032165527344 139.2821502685547 C -23.76293182373047 138.65989685058594 -30.73976707458496 131.9322509765625 -32.85740661621094 110.02666473388672 C -19.62489128112793 30.712831497192383 -11.73022174835205 23.05607795715332 62.0225715637207 24.13468360900879 C 74.21146392822266 26.719371795654297 80.2525634765625 34.19379806518555 92.75318908691406 56.20054626464844"/>
    <path stroke-width="0" fill="rgb(90, 195, 118)" opacity="0.94738406" stroke="rgb(182, 254, 38)" stroke-opacity="1.0" stroke-linecap="round" stroke-linejoin="round" d="M 208.6424102783203 231.47357177734375 C 157.86160278320312 217.29071044921875 135.85684204101562 326.9895324707031 155.58721923828125 334.9237060546875 C -53.74295425415039 337.2168273925781 -23.033761978149414 297.5283508300781 -18.19268798828125 201.36183166503906 C -1.9157519340515137 135.7886199951172 1.1868184804916382 124.03153991699219 52.49674987792969 116.24295043945312 C 118.6207275390625 115.43745422363281 120.32026672363281 140.1294708251953 208.6424102783203 231.47357177734375"/>
    <path stroke-width="0" fill="rgb(101, 195, 100)" opacity="0.984092" stroke="rgb(41, 156, 31)" stroke-opacity="1.0" stroke-linecap="round" stroke-linejoin="round" d="M 69.07427215576172 67.33779907226562 C 65.24324798583984 78.6081771850586 58.03226089477539 85.70392608642578 -4.574740886688232 91.96394348144531 C -18.30956268310547 92.00404357910156 -28.15337371826172 88.30581665039062 -30.40452766418457 79.21770477294922 C -26.784635543823242 3.3494513034820557 -18.000425338745117 -3.135021209716797 -13.579092025756836 0.7783039808273315 C 54.76100540161133 8.777085304260254 63.30691146850586 13.22772216796875 69.07427215576172 67.33779907226562"/>
    <path stroke-width="0" fill="rgb(145, 161, 190)" opacity="0.8029634" stroke="rgb(205, 145, 103)" stroke-opacity="1.0" stroke-linecap="round" stroke-linejoin="round" d="M 86.54906463623047 69.56684875488281 C 57.452083587646484 77.55094909667969 73.77982330322266 82.15460205078125 61.727169036865234 127.35623168945312 C 49.59966278076172 124.9052963256836 41.31998825073242 118.31938171386719 34.2833251953125 48.943172454833984 C 29.901325225830078 32.87547302246094 32.57766342163086 22.004058837890625 45.5037727355957 26.154836654663086 C 97.0003433227539 62.03579330444336 103.14187622070312 70.30937194824219 86.54906463623047 69.56684875488281"/>
    <path stroke-width="0" fill="rgb(127, 150, 145)" opacity="0.7058079" stroke="rgb(177, 115, 184)" stroke-opacity="1.0" stroke-linecap="round" stroke-linejoin="round" d="M 115.15589141845703 30.696796417236328 C 111.52284240722656 40.34834671020508 102.6059799194336 45.59172439575195 90.75910186767578 54.646724700927734 C 62.051658630371094 25.331480026245117 58.068992614746094 14.521828651428223 51.89927291870117 5.425608158111572 C 56.057037353515625 -0.4061906337738037 62.662899017333984 -8.69676685333252 71.73464965820312 -11.638591766357422 C 80.71055603027344 -8.114546775817871 88.92291259765625 -1.4207818508148193 115.15589141845703 30.696796417236328"/>
    <path stroke-width="0" fill="rgb(112, 199, 168)" opacity="0.82109386" stroke="rgb(248, 218, 2)" stroke-opacity="1.0" stroke-linecap="round" stroke-linejoin="round" d="M 116.11526489257812 16.26087188720703 C 39.43254470825195 22.6995906829834 107.15390014648438 82.49788665771484 35.73535919189453 102.3126220703125 C 23.4318904876709 91.86567687988281 17.65369415283203 83.18315887451172 17.40509033203125 74.06000518798828 C 51.04989242553711 30.5792236328125 56.56979751586914 22.153148651123047 92.82066345214844 -5.5207600593566895 C 107.74425506591797 -6.856651306152344 115.30104064941406 0.40072572231292725 116.11526489257812 16.26087188720703"/>
    <path stroke-width="0" fill="rgb(108, 166, 152)" opacity="0.910377" stroke="rgb(186, 43, 132)" stroke-opacity="1.0" stroke-linecap="round" stroke-linejoin="round" d="M 103.23857879638672 138.38388061523438 C 105.67597198486328 149.61143493652344 104.44408416748047 162.30697631835938 95.45426177978516 175.97669982910156 C 10.588086128234863 168.06643676757812 10.985130310058594 158.18243408203125 24.05795669555664 136.31231689453125 C 39.79719543457031 94.85527801513672 45.01901626586914 85.19213104248047 82.005615234375 56.50545883178711 C 92.23674774169922 66.36582946777344 98.74383544921875 76.54346466064453 103.23857879638672 138.38388061523438"/>
    <path stroke-width="0" fill="rgb(60, 172, 140)" opacity="0.9648287" stroke="rgb(50, 4, 202)" stroke-opacity="1.0" stroke-linecap="round" stroke-linejoin="round" d="M 171.74400329589844 225.4484100341797 C 326.5566101074219 169.64578247070312 658.6694946289062 284.5184020996094 145.38734436035156 266.0671081542969 C -9.932884216308594 231.94827270507812 35.03713607788086 187.1820831298828 53.18525314331055 159.6279754638672 C 98.62196350097656 112.21563720703125 96.98529815673828 112.42896270751953 72.07637786865234 95.07185363769531 C 89.58564758300781 154.69677734375 165.59800720214844 61.496620178222656 171.74400329589844 225.4484100341797"/>
    <path stroke-width="0" fill="rgb(116, 196, 161)" opacity="0.69313025" stroke="rgb(88, 236, 179)" stroke-opacity="1.0" stroke-linecap="round" stroke-linejoin="round" d="M 136.322998046875 30.83786964416504 C 111.3184585571289 56.3177490234375 105.9197998046875 66.13824462890625 101.06525421142578 71.58438110351562 C 92.24003601074219 60.217769622802734 93.18389129638672 47.5617790222168 66.24208068847656 22.01304054260254 C 59.389041900634766 16.014863967895508 66.55180358886719 9.166192054748535 71.86616516113281 -5.264579772949219 C 129.90098571777344 1.285067081451416 139.03573608398438 14.67959976196289 136.322998046875 30.83786964416504"/>
    <path stroke-width="0" fill="rgb(155, 117, 169)" opacity="0.82800144" stroke="rgb(41, 158, 147)" stroke-opacity="1.0" stroke-linecap="round" stroke-linejoin="round" d="M 113.28447723388672 86.20487213134766 C 85.11714935302734 192.6015167236328 166.28958129882812 173.14564514160156 118.15312957763672 118.09671783447266 C 64.74149322509766 149.2539825439453 58.372779846191406 138.2301483154297 60.598079681396484 131.22369384765625 C 73.96613311767578 87.48030853271484 87.0159912109375 84.278076171875 125.78032684326172 60.340633392333984 C 136.60336303710938 60.4920654296875 145.71644592285156 64.8751220703125 113.28447723388672 86.20487213134766"/>
    <path stroke-width="0" fill="rgb(105, 196, 140)" opacity="0.9379166" stroke="rgb(238, 156, 136)" stroke-opacity="1.0" stroke-linecap="round" stroke-linejoin="round" d="M 108.2056655883789 34.30624771118164 C 64.3541259765625 65.00074768066406 69.9988021850586 65.63836669921875 72.60161590576172 78.77783203125 C 6.328332424163818 80.36538696289062 20.59033966064453 71.90364837646484 0.36334851384162903 5.367088317871094 C 2.1999642848968506 -7.724580764770508 7.995482921600342 -15.503079414367676 28.558353424072266 -27.010208129882812 C 70.24824523925781 3.385183572769165 68.38585662841797 2.1529195308685303 108.2056655883789 34.30624771118164"/>
    <path stroke-width="0" fill="rgb(112, 201, 111)" opacity="0.84065497" stroke="rgb(186, 79, 101)" stroke-opacity="1.0" stroke-linecap="round" stroke-linejoin="round" d="M 65.3715591430664 -2.446105718612671 C 59.473960876464844 3.8580424785614014 47.93567657470703 4.407747745513916 22.544097900390625 69.34934997558594 C -4.866485118865967 59.35980987548828 -11.197978019714355 48.259647369384766 -32.95513153076172 12.03941535949707 C -11.457196235656738 -50.801475524902344 3.0080111026763916 -43.40044403076172 33.16963577270508 -33.32826232910156 C 54.83304977416992 -17.96738052368164 63.03704071044922 -11.599830627441406 65.3715591430664 -2.446105718612671"/>
    <path stroke-width="0" fill="rgb(99, 207, 147)" opacity="0.6490007" stroke="rgb(47, 240, 188)" stroke-opacity="1.0" stroke-linecap="round" stroke-linejoin="round" d="M 146.4923095703125 43.30073547363281 C 172.81631469726562 120.78251647949219 168.8906707763672 65.71651458740234 136.86805725097656 87.8472900390625 C 103.25000762939453 61.01838684082031 93.85979461669922 57.1046257019043 68.9434585571289 37.79525375366211 C 71.15382385253906 11.800541877746582 72.90666198730469 -0.9022999405860901 84.47688293457031 -3.1341543197631836 C 139.92050170898438 7.183454513549805 152.55572509765625 14.922953605651855 146.4923095703125 43.30073547363281"/>
    <path stroke-width="0" fill="rgb(104, 202, 128)" opacity="0.98814" stroke="rgb(57, 64, 14)" stroke-opacity="1.0" stroke-linecap="round" stroke-linejoin="round" d="M 119.0339584350586 162.4984893798828 C 110.53468322753906 177.4469757080078 104.29545593261719 184.7786407470703 54.85093307495117 169.14175415039062 C -12.907402038574219 164.01979064941406 -28.588687896728516 164.78115844726562 -38.95051956176758 124.98070526123047 C -21.294570922851562 55.35004425048828 -12.572500228881836 52.5592041015625 27.34892463684082 59.65464401245117 C 42.806884765625 121.76246643066406 75.24857330322266 83.4354019165039 119.0339584350586 162.4984893798828"/>
    <path stroke-width="0" fill="rgb(136, 176, 184)" opacity="0.31245813" stroke="rgb(79, 177, 96)" stroke-opacity="1.0" stroke-linecap="round" stroke-linejoin="round" d="M 166.9282684326172 55.821327209472656 C 117.02875518798828 79.30828857421875 128.3035888671875 97.46300506591797 111.87639617919922 107.28288269042969 C 74.23455047607422 99.9581298828125 81.07788848876953 79.83849334716797 82.32345581054688 74.04780578613281 C 81.21598052978516 46.12137985229492 83.95942687988281 76.74580383300781 77.04016876220703 53.47341537475586 C 102.7143325805664 51.180904388427734 64.37249755859375 37.704917907714844 166.9282684326172 55.821327209472656"/>
    <path stroke-width="0" fill="rgb(106, 192, 141)" opacity="0.6948356" stroke="rgb(6, 17, 173)" stroke-opacity="1.0" stroke-linecap="round" stroke-linejoin="round" d="M 163.61370849609375 20.476449966430664 C 92.6933364868164 5.5639119148254395 96.97542572021484 19.25550079345703 77.32616424560547 57.153072357177734 C 62.45695114135742 44.798824310302734 64.74584197998047 36.67909622192383 62.838504791259766 1.1483055353164673 C 62.41110610961914 -17.806848526000977 78.57291412353516 -19.134960174560547 106.90292358398438 -40.96259307861328 C 98.02931213378906 -9.328569412231445 124.8037338256836 -22.002737045288086 163.61370849609375 20.476449966430664"/>
    <path stroke-width="0" fill="rgb(107, 190, 116)" opacity="0.6329983" stroke="rgb(136, 228, 252)" stroke-opacity="1.0" stroke-linecap="round" stroke-linejoin="round" d="M 56.821189880371094 147.91294860839844 C 51.05552291870117 220.3182830810547 49.77576446533203 232.85665893554688 25.777299880981445 255.99627685546875 C -65.79857635498047 248.73866271972656 -65.73015594482422 236.40423583984375 -46.55400466918945 190.55642700195312 C -51.606727600097656 127.45941162109375 -47.721107482910156 116.01736450195312 1.2706966400146484 86.9197006225586 C 63.323062896728516 98.63298797607422 67.78079223632812 110.62510681152344 56.821189880371094 147.91294860839844"/>
    <path stroke-width="0" fill="rgb(38, 117, 108)" opacity="0.9125047" stroke="rgb(169, 67, 5)" stroke-opacity="1.0" stroke-linecap="round" stroke-linejoin="round" d="M 923.2550659179688 226.59042358398438 C 519.7900390625 314.70111083984375 409.6211242675781 157.419677734375 389.0699157714844 355.56591796875 C 240.7154998779297 256.3065185546875 412.4656066894531 128.31732177734375 476.5190734863281 153.69190979003906 C 488.5648193359375 -27.196575164794922 369.7742614746094 384.6209716796875 388.39886474609375 -2.268965244293213 C 572.5486450195312 -65.4778823852539 602.8023071289062 -29.20888328552246 923.2550659179688 226.59042358398438"/>
    <path stroke-width="0" fill="rgb(109, 203, 144)" opacity="0.85898745" stroke="rgb(81, 97, 150)" stroke-opacity="1.0" stroke-linecap="round" stroke-linejoin="round" d="M 170.34373474121094 16.335914611816406 C 189.5327911376953 34.75865173339844 172.76707458496094 40.3216667175293 107.61054229736328 53.54978942871094 C 100.54067993164062 44.757694244384766 94.86795043945312 33.31888961791992 87.44974517822266 2.0987255573272705 C 92.2503662109375 -33.22373580932617 112.68793487548828 -27.76335334777832 152.9226531982422 -33.54568862915039 C 166.4689178466797 -32.961856842041016 152.3791961669922 -8.524491310119629 170.34373474121094 16.335914611816406"/>
    <path stroke-width="0" fill="rgb(81, 189, 140)" opacity="0.98246896" stroke="rgb(160, 222, 69)" stroke-opacity="1.0" stroke-linecap="round" stroke-linejoin="round" d="M 227.8096466064453 -76.79718780517578 C 132.10191345214844 192.3916473388672 157.03990173339844 166.2056121826172 227.2020263671875 220.5135955810547 C -19.83820915222168 234.1492919921875 51.3014030456543 138.9789276123047 29.421207427978516 136.6331787109375 C 109.2453384399414 94.49656677246094 77.22289276123047 62.97592544555664 169.88592529296875 -7.880984783172607 C 264.718017578125 53.612510681152344 403.7391052246094 77.51335144042969 227.8096466064453 -76.79718780517578"/>
    <path stroke-width="0" fill="rgb(102, 195, 143)" opacity="0.9621312" stroke="rgb(47, 242, 175)" stroke-opacity="1.0" stroke-linecap="round" stroke-linejoin="round" d="M 102.07784271240234 58.03855514526367 C 91.58646392822266 124.5348892211914 86.80818176269531 133.83721923828125 38.787601470947266 128.43862915039062 C 26.59835433959961 122.11199951171875 20.34441375732422 98.65888977050781 27.070940017700195 66.02145385742188 C 23.410980224609375 56.86729431152344 32.1010627746582 56.69308090209961 77.88837432861328 33.59332275390625 C 86.77835083007812 37.01582336425781 88.48410034179688 45.004093170166016 102.07784271240234 58.03855514526367"/>
    <path stroke-width="0" fill="rgb(96, 197, 147)" opacity="0.5530067" stroke="rgb(241, 186, 64)" stroke-opacity="1.0" stroke-linecap="round" stroke-linejoin="round" d="M 109.48542785644531 42.37507629394531 C 109.86279296875 71.4481430053711 101.9532241821289 73.9082260131836 74.02102661132812 103.60467529296875 C 64.16189575195312 96.07666015625 56.967552185058594 87.47925567626953 61.81807327270508 91.97671508789062 C 107.33760833740234 91.57881164550781 84.44267272949219 72.41663360595703 79.12085723876953 25.097850799560547 C 107.03260040283203 36.57505798339844 118.08716583251953 36.917633056640625 109.48542785644531 42.37507629394531"/>
    <path stroke-width="0" fill="rgb(-23, 65, 130)" opacity="0.7739518" stroke="rgb(132, 6, 52)" stroke-opacity="1.0" stroke-linecap="round" stroke-linejoin="round" d="M 242.49729919433594 9.235211372375488 C 399.1070251464844 219.76528930664062 253.84771728515625 266.2335510253906 203.77423095703125 196.5982208251953 C 213.5634002685547 228.17254638671875 310.2244567871094 204.1113739013672 251.46730041503906 204.58599853515625 C 287.0059814453125 212.9806671142578 278.74468994140625 205.0160369873047 188.34716796875 211.85943603515625 C 278.6276550292969 209.79844665527344 345.2156066894531 180.5037384033203 242.49729919433594 9.235211372375488"/>
    <path stroke-width="0" fill="rgb(107, 191, 126)" opacity="0.38643554" stroke="rgb(95, 118, 70)" stroke-opacity="1.0" stroke-linecap="round" stroke-linejoin="round" d="M 112.37332153320312 272.0933532714844 C 102.80795288085938 458.392822265625 150.17869567871094 418.1825866699219 -0.7247989773750305 452.64422607421875 C -50.88043212890625 347.6168212890625 -37.154232025146484 324.6271667480469 -35.95062255859375 275.15484619140625 C -41.400962829589844 197.63021850585938 -41.09809494018555 183.4933319091797 -19.283435821533203 185.10630798339844 C 86.27381896972656 195.17510986328125 95.85164642333984 208.41131591796875 112.37332153320312 272.0933532714844"/>
    <path stroke-width="0" fill="rgb(168, 197, 59)" opacity="0.60893065" stroke="rgb(220, 29, 131)" stroke-opacity="1.0" stroke-linecap="round" stroke-linejoin="round" d="M 524.0562744140625 336.00225830078125 C 470.50506591796875 356.4644775390625 474.569580078125 316.4956359863281 468.384521484375 330.7373962402344 C 461.15606689453125 349.89373779296875 456.24127197265625 368.01318359375 462.15985107421875 307.8884582519531 C 453.877197265625 308.1112365722656 465.1577453613281 335.9739074707031 559.24072265625 319.70587158203125 C 515.193603515625 301.6533508300781 489.42474365234375 312.5060729980469 524.0562744140625 336.00225830078125"/>
    <path stroke-width="0" fill="rgb(158, 132, 101)" opacity="0.19614321" stroke="rgb(140, 149, 245)" stroke-opacity="1.0" stroke-linecap="round" stroke-linejoin="round" d="M 573.4927368164062 352.43231201171875 C 580.159912109375 365.97381591796875 552.1207275390625 362.8167724609375 442.6328125 347.24334716796875 C 472.4997863769531 329.77874755859375 481.0692138671875 320.151611328125 506.035888671875 294.8047180175781 C 533.4825439453125 284.98193359375 511.8375549316406 311.11273193359375 520.8947143554688 305.3011169433594 C 525.5113525390625 291.9359130859375 521.249755859375 311.6423645019531 573.4927368164062 352.43231201171875"/>
    <path stroke-width="0" fill="rgb(76, 105, 62)" opacity="0.6232919" stroke="rgb(170, 200, 71)" stroke-opacity="1.0" stroke-linecap="round" stroke-linejoin="round" d="M 448.9169616699219 187.53672790527344 C 442.7989501953125 188.34344482421875 435.2037658691406 196.2709197998047 445.68115234375 183.4135284423828 C 446.3501281738281 201.14207458496094 466.9581298828125 198.14602661132812 431.8456115722656 185.3035430908203 C 446.6514892578125 167.12586975097656 457.6706848144531 146.17652893066406 474.5190734863281 198.36854553222656 C 430.5719299316406 176.1526336669922 444.58673095703125 204.7333221435547 448.9169616699219 187.53672790527344"/>
    <path stroke-width="0" fill="rgb(76, 175, 44)" opacity="0.71247524" stroke="rgb(16, 123, 249)" stroke-opacity="1.0" stroke-linecap="round" stroke-linejoin="round" d="M 456.4723815917969 158.3168487548828 C 488.33380126953125 170.92466735839844 495.2294006347656 157.13375854492188 468.735107421875 201.94635009765625 C 461.60443115234375 143.88990783691406 466.01226806640625 133.68885803222656 479.709716796875 118.29446411132812 C 460.7828063964844 188.3046417236328 478.4194641113281 160.11985778808594 477.99395751953125 150.043701171875 C 464.5252685546875 154.35227966308594 473.8693542480469 170.1326446533203 456.4723815917969 158.3168487548828"/>
    <path stroke-width="0" fill="rgb(66, 180, 79)" opacity="0.7892397" stroke="rgb(86, 245, 59)" stroke-opacity="1.0" stroke-linecap="round" stroke-linejoin="round" d="M 480.8712158203125 123.29960632324219 C 449.5104064941406 74.26947784423828 418.6442565917969 149.28431701660156 448.51190185546875 136.1233673095703 C 488.5255126953125 152.59402465820312 460.7992858886719 159.83096313476562 471.138427734375 149.521240234375 C 487.81585693359375 125.08423614501953 486.0371398925781 134.06527709960938 469.2916259765625 140.92233276367188 C 459.79681396484375 152.17056274414062 466.0837097167969 165.59310913085938 480.8712158203125 123.29960632324219"/>
    <path stroke-width="0" fill="rgb(235, 209, 97)" opacity="0.8648377" stroke="rgb(240, 203, 160)" stroke-opacity="1.0" stroke-linecap="round" stroke-linejoin="round" d="M 454.1106262207031 361.2489318847656 C 410.999755859375 354.4755554199219 400.66070556640625 363.81488037109375 427.8337097167969 347.5025329589844 C 424.2192687988281 353.113037109375 423.60015869140625 343.35540771484375 415.9717712402344 361.0046081542969 C 407.54705810546875 426.7623596191406 417.4342346191406 371.2757568359375 415.052001953125 359.951416015625 C 361.59423828125 342.65545654296875 346.76080322265625 379.5224609375 454.1106262207031 361.2489318847656"/>
    <path stroke-width="0" fill="rgb(110, 205, 85)" opacity="0.91888034" stroke="rgb(74, 216, 157)" stroke-opacity="1.0" stroke-linecap="round" stroke-linejoin="round" d="M 463.3958740234375 132.3605499267578 C 454.9344787597656 156.82864379882812 461.5949401855469 173.6978302001953 463.9361267089844 165.1335906982422 C 471.3368225097656 163.17996215820312 474.5363464355469 146.99794006347656 453.2154235839844 194.74127197265625 C 462.0328063964844 130.18243408203125 480.6466979980469 129.39401245117188 457.2276916503906 132.05674743652344 C 451.1089172363281 149.73489379882812 435.99853515625 168.75596618652344 463.3958740234375 132.3605499267578"/>
    <path stroke-width="0" fill="rgb(28, 88, 92)" opacity="0.40795633" stroke="rgb(88, 37, 250)" stroke-opacity="1.0" stroke-linecap="round" stroke-linejoin="round" d="M 388.0637512207031 415.3689270019531 C 393.149169921875 351.7438049316406 384.7835388183594 373.456787109375 386.0416564941406 359.0347595214844 C 363.15753173828125 387.5838623046875 395.0326843261719 452.41351318359375 396.3724670410156 413.3692932128906 C 425.9997863769531 313.0758972167969 380.16009521484375 409.65447998046875 387.4823303222656 359.8800048828125 C 356.82879638671875 392.4862976074219 375.1025085449219 418.3968505859375 388.0637512207031 415.3689270019531"/>
    <path stroke-width="0" fill="rgb(80, 41, 111)" opacity="0.48251167" stroke="rgb(126, 163, 93)" stroke-opacity="1.0" stroke-linecap="round" stroke-linejoin="round" d="M 565.6473999023438 295.9014892578125 C 503.48260498046875 338.0379638671875 496.94610595703125 343.2876892089844 573.1559448242188 311.2484436035156 C 481.1238098144531 335.66015625 448.45172119140625 307.3022766113281 494.5430908203125 308.7098388671875 C 526.1182250976562 331.1435546875 531.177978515625 327.2318115234375 487.1343078613281 289.76690673828125 C 472.6893310546875 278.634033203125 518.2005615234375 276.2137451171875 565.6473999023438 295.9014892578125"/>
    <path stroke-width="0" fill="rgb(81, 93, 56)" opacity="0.38706782" stroke="rgb(209, 48, 130)" stroke-opacity="1.0" stroke-linecap="round" stroke-linejoin="round" d="M 486.4654235839844 161.4853515625 C 483.3059997558594 146.33926391601562 463.8499755859375 129.03932189941406 419.8626708984375 172.25347900390625 C 447.1912841796875 160.45433044433594 441.01519775390625 135.9470977783203 435.0560607910156 178.88258361816406 C 465.1218566894531 180.7089080810547 458.4979248046875 128.4264678955078 478.0242919921875 119.57258605957031 C 436.60943603515625 148.41351318359375 433.1768798828125 185.47000122070312 486.4654235839844 161.4853515625"/>
    <path stroke-width="0" fill="rgb(139, 205, 41)" opacity="0.81996965" stroke="rgb(24, 219, 248)" stroke-opacity="1.0" stroke-linecap="round" stroke-linejoin="round" d="M 445.2986755371094 196.52757263183594 C 460.17333984375 187.05538940429688 421.2054443359375 200.6998748779297 442.8880920410156 240.06222534179688 C 435.162109375 174.77012634277344 442.88482666015625 170.4790496826172 458.675537109375 199.7490692138672 C 434.9789733886719 214.32521057128906 451.4150695800781 212.44187927246094 434.8138732910156 184.01722717285156 C 394.6860046386719 202.2416534423828 447.8846740722656 223.02862548828125 445.2986755371094 196.52757263183594"/>
    <path stroke-width="0" fill="rgb(254, 232, 93)" opacity="1.0240728" stroke="rgb(231, 197, 84)" stroke-opacity="1.0" stroke-linecap="round" stroke-linejoin="round" d="M 151.44834899902344 520.2554321289062 C 142.96461486816406 526.59423828125 168.9859619140625 500.2548828125 141.57064819335938 497.7827453613281 C 132.56668090820312 490.61505126953125 161.6624298095703 472.2843322753906 160.9678192138672 473.34637451171875 C 127.32840728759766 486.14324951171875 142.6342010498047 500.5160217285156 150.3407440185547 452.4830322265625 C 182.338134765625 457.5406799316406 150.15274047851562 450.3084411621094 151.44834899902344 520.2554321289062"/>
    <path stroke-width="0" fill="rgb(25, 113, 73)" opacity="0.7708498" stroke="rgb(103, 59, 33)" stroke-opacity="1.0" stroke-linecap="round" stroke-linejoin="round" d="M 528.5278930664062 186.07974243164062 C 482.51513671875 128.78135681152344 474.9630432128906 140.1912078857422 480.9964294433594 93.1817626953125 C 472.46051025390625 130.94509887695312 432.3124694824219 120.85064697265625 462.0005187988281 188.81634521484375 C 462.6344299316406 147.47499084472656 459.7926940917969 150.05836486816406 508.8768615722656 135.0646514892578 C 448.1629943847656 153.31414794921875 513.8870849609375 142.0245819091797 528.5278930664062 186.07974243164062"/>
    <path stroke-width="0" fill="rgb(195, 193, 172)" opacity="0.6291573" stroke="rgb(185, 2, 196)" stroke-opacity="1.0" stroke-linecap="round" stroke-linejoin="round" d="M 235.6171417236328 160.84637451171875 C 239.931884765625 124.29493713378906 241.6693572998047 140.56512451171875 230.9237823486328 136.25735473632812 C 243.6226348876953 173.50433349609375 193.12782287597656 172.76358032226562 207.636962890625 143.00172424316406 C 207.03839111328125 115.4437484741211 219.4357147216797 109.07315063476562 236.4583282470703 138.05712890625 C 235.41775512695312 161.2610321044922 231.66586303710938 178.4006805419922 235.6171417236328 160.84637451171875"/>
    <path stroke-width="0" fill="rgb(243, 241, 209)" opacity="0.301584" stroke="rgb(20, 22, 171)" stroke-opacity="1.0" stroke-linecap="round" stroke-linejoin="round" d="M 582.7286376953125 492.9836730957031 C 387.2261047363281 494.86419677734375 388.2996520996094 508.2600402832031 404.9708557128906 482.0054626464844 C 386.058349609375 496.8869323730469 397.3318786621094 499.846435546875 373.74609375 494.6971740722656 C 390.825439453125 471.909912109375 397.815673828125 477.5461120605469 406.1958923339844 482.57550048828125 C 404.3876647949219 500.11248779296875 356.3558349609375 486.1607360839844 582.7286376953125 492.9836730957031"/>
    <path stroke-width="0" fill="rgb(86, 163, 44)" opacity="0.40275306" stroke="rgb(107, 142, 219)" stroke-opacity="1.0" stroke-linecap="round" stroke-linejoin="round" d="M 476.2225341796875 163.8151092529297 C 467.0631408691406 150.50885009765625 426.6536560058594 186.74591064453125 427.7067565917969 166.5894012451172 C 453.88714599609375 166.3868408203125 438.5445251464844 164.6335906982422 432.3470458984375 188.70545959472656 C 424.230712890625 204.8957061767578 436.3447570800781 184.08665466308594 453.84112548828125 173.8785858154297 C 460.4807434082031 200.7586212158203 450.1810607910156 158.11138916015625 476.2225341796875 163.8151092529297"/>
    <path stroke-width="0" fill="rgb(246, 247, 82)" opacity="0.7845632" stroke="rgb(68, 33, 14)" stroke-opacity="1.0" stroke-linecap="round" stroke-linejoin="round" d="M 231.63473510742188 90.8273696899414 C 230.2811737060547 70.94170379638672 244.84274291992188 98.57386016845703 238.85374450683594 151.34286499023438 C 258.7662658691406 158.92543029785156 200.17115783691406 166.16700744628906 202.58328247070312 138.0868377685547 C 212.16281127929688 71.22858428955078 245.1761932373047 56.698707580566406 237.92388916015625 97.501708984375 C 218.98817443847656 104.10128784179688 230.77359008789062 111.56098937988281 231.63473510742188 90.8273696899414"/>
    <path stroke-width="0" fill="rgb(171, 296, 98)" opacity="0.23875557" stroke="rgb(66, 116, 174)" stroke-opacity="1.0" stroke-linecap="round" stroke-linejoin="round" d="M 513.3115234375 295.442138671875 C 552.399658203125 329.72760009765625 491.1207275390625 303.7471008300781 468.3363952636719 320.1557922363281 C 511.03216552734375 330.9654235839844 472.20233154296875 310.58209228515625 478.50079345703125 343.9310607910156 C 486.3386535644531 344.732666015625 485.0 339.7199401855469 424.4427795410156 338.9284973144531 C 503.1759338378906 368.70989990234375 506.4536437988281 322.5256042480469 513.3115234375 295.442138671875"/>
    <path stroke-width="0" fill="rgb(114, 100, 81)" opacity="0.38459548" stroke="rgb(72, 96, 46)" stroke-opacity="1.0" stroke-linecap="round" stroke-linejoin="round" d="M 506.3851013183594 313.39715576171875 C 480.82269287109375 286.2994689941406 473.76409912109375 305.9651794433594 478.69097900390625 269.2111511230469 C 469.3124084472656 304.5741882324219 450.47296142578125 294.2911376953125 475.2917175292969 320.13104248046875 C 475.352783203125 325.1506042480469 486.95562744140625 311.53076171875 461.23150634765625 301.8871154785156 C 468.747314453125 306.837890625 501.5758361816406 295.1883544921875 506.3851013183594 313.39715576171875"/>
    <path stroke-width="0" fill="rgb(132, 223, -72)" opacity="0.8110216" stroke="rgb(109, 130, 136)" stroke-opacity="1.0" stroke-linecap="round" stroke-linejoin="round" d="M 242.93820190429688 63.32489776611328 C 221.8944854736328 74.94207763671875 198.93971252441406 108.1317138671875 188.31185913085938 104.38919067382812 C 179.21124267578125 154.21453857421875 172.61952209472656 87.48342895507812 209.31390380859375 42.99675369262695 C 241.26913452148438 23.124332427978516 277.097900390625 91.00617218017578 225.14932250976562 95.38236999511719 C 238.929931640625 94.75357818603516 260.78839111328125 83.03885650634766 242.93820190429688 63.32489776611328"/>
    <path stroke-width="0" fill="rgb(191, 201, 83)" opacity="0.83993393" stroke="rgb(47, 230, 138)" stroke-opacity="1.0" stroke-linecap="round" stroke-linejoin="round" d="M 186.3604278564453 478.9325256347656 C 141.558349609375 469.815673828125 159.57785034179688 485.21600341796875 164.71153259277344 450.87213134765625 C 204.23670959472656 452.3416748046875 199.04190063476562 455.1248474121094 158.22288513183594 457.9267578125 C 159.4642333984375 464.15362548828125 167.2678985595703 448.7123107910156 161.58438110351562 456.2997131347656 C 210.79502868652344 448.4719543457031 195.53533935546875 446.560302734375 186.3604278564453 478.9325256347656"/>
    <path stroke-width="0" fill="rgb(305, 250, 115)" opacity="1.0988421" stroke="rgb(224, 116, 184)" stroke-opacity="1.0" stroke-linecap="round" stroke-linejoin="round" d="M 220.7349090576172 149.6563720703125 C 243.21519470214844 154.40145874023438 259.4176330566406 155.2269287109375 197.75318908691406 147.46820068359375 C 197.1807098388672 125.52860260009766 236.4118194580078 34.859214782714844 237.2064971923828 110.36410522460938 C 244.262451171875 135.02737426757812 226.1571807861328 74.52593231201172 226.2818603515625 85.60086822509766 C 239.61912536621094 87.17103576660156 235.53286743164062 124.6897964477539 220.7349090576172 149.6563720703125"/>
    <path stroke-width="0" fill="rgb(98, 194, -13)" opacity="0.6708253" stroke="rgb(192, 162, 61)" stroke-opacity="1.0" stroke-linecap="round" stroke-linejoin="round" d="M 254.18569946289062 91.0633544921875 C 240.65573120117188 69.24923706054688 220.2620086669922 22.4643497467041 250.9985809326172 75.30839538574219 C 249.8085479736328 68.7435531616211 249.21739196777344 66.58567810058594 261.7638244628906 110.16452026367188 C 286.2666931152344 213.6934814453125 268.891357421875 131.22152709960938 222.5681610107422 45.8828125 C 245.27276611328125 48.356449127197266 244.5703582763672 83.5827865600586 254.18569946289062 91.0633544921875"/>
    <path stroke-width="0" fill="rgb(81, 176, 26)" opacity="0.54776096" stroke="rgb(203, 244, 116)" stroke-opacity="1.0" stroke-linecap="round" stroke-linejoin="round" d="M 441.9353332519531 172.3460235595703 C 486.68902587890625 146.45970153808594 462.2220458984375 169.31787109375 446.26776123046875 178.42626953125 C 480.2124938964844 198.58302307128906 459.52154541015625 213.28541564941406 426.34466552734375 198.79132080078125 C 415.8117370605469 172.1930694580078 484.437744140625 173.46783447265625 466.0087890625 132.7590789794922 C 479.8022766113281 171.20606994628906 491.58203125 126.29159545898438 441.9353332519531 172.3460235595703"/>
    <path stroke-width="0" fill="rgb(180, 168, 159)" opacity="0.08379192" stroke="rgb(218, 116, 242)" stroke-opacity="1.0" stroke-linecap="round" stroke-linejoin="round" d="M 200.16648864746094 27.930166244506836 C 214.29063415527344 37.89571762084961 213.19989013671875 26.37982177734375 221.48773193359375 24.76180076599121 C 228.4024658203125 37.53913497924805 236.42086791992188 28.37409782409668 216.85537719726562 34.97495651245117 C 220.07968139648438 36.13223648071289 229.25814819335938 38.096797943115234 258.664794921875 21.678485870361328 C 203.8502960205078 34.44341278076172 217.88388061523438 29.117013931274414 200.16648864746094 27.930166244506836"/>
    <path stroke-width="0" fill="rgb(94, 185, 0)" opacity="0.69880015" stroke="rgb(209, 231, 207)" stroke-opacity="1.0" stroke-linecap="round" stroke-linejoin="round" d="M 246.87039184570312 94.58456420898438 C 255.32081604003906 82.70752716064453 231.8926239013672 68.7423095703125 249.3046875 92.77449798583984 C 256.4241638183594 103.02937316894531 258.1897277832031 103.61163330078125 250.4527587890625 94.66844177246094 C 267.1250915527344 130.3690185546875 254.31739807128906 78.70088958740234 248.50833129882812 70.83916473388672 C 239.4827117919922 83.10865020751953 250.0697479248047 101.4036865234375 246.87039184570312 94.58456420898438"/>
    <path stroke-width="0" fill="rgb(104, 172, 156)" opacity="0.094345115" stroke="rgb(160, 101, 15)" stroke-opacity="1.0" stroke-linecap="round" stroke-linejoin="round" d="M 250.25218200683594 15.460566520690918 C 234.796142578125 19.181228637695312 231.56875610351562 29.8598690032959 241.57118225097656 18.350839614868164 C 274.5799255371094 11.593914985656738 245.95388793945312 6.559011459350586 279.4813537597656 27.405597686767578 C 237.2242889404297 -15.501012802124023 221.57997131347656 -8.833233833312988 236.88775634765625 -14.70302963256836 C 252.5301055908203 4.448216915130615 273.6409912109375 33.309391021728516 250.25218200683594 15.460566520690918"/>
    <path stroke-width="0" fill="rgb(106, 194, -48)" opacity="1.0049325" stroke="rgb(65, 216, 8)" stroke-opacity="1.0" stroke-linecap="round" stroke-linejoin="round" d="M 195.2025604248047 183.49827575683594 C 191.89173889160156 143.97857666015625 200.7340850830078 150.18199157714844 210.50729370117188 151.00535583496094 C 237.39669799804688 148.51156616210938 190.14295959472656 164.93206787109375 200.38352966308594 189.6526336669922 C 184.2080841064453 125.87498474121094 203.34506225585938 131.47999572753906 208.49839782714844 78.49513244628906 C 147.17967224121094 110.23522186279297 169.61611938476562 190.26287841796875 195.2025604248047 183.49827575683594"/>
    <path stroke-width="0" fill="rgb(122, 180, 139)" opacity="0.6628714" stroke="rgb(90, 90, 4)" stroke-opacity="1.0" stroke-linecap="round" stroke-linejoin="round" d="M 229.91390991210938 496.7796936035156 C 226.81410217285156 501.9967956542969 158.46929931640625 494.347900390625 151.35435485839844 501.2054443359375 C 218.2242889404297 493.9224853515625 211.34808349609375 488.043212890625 273.0372314453125 485.8613586425781 C 348.72259521484375 475.4450988769531 303.49041748046875 495.9438781738281 345.62066650390625 494.7850036621094 C 206.6512908935547 503.07550048828125 223.81703186035156 494.6436462402344 229.91390991210938 496.7796936035156"/>
    <path stroke-width="0" fill="rgb(70, 181, 31)" opacity="0.8280508" stroke="rgb(221, 115, 83)" stroke-opacity="1.0" stroke-linecap="round" stroke-linejoin="round" d="M 239.9331512451172 157.46383666992188 C 237.71653747558594 137.6214141845703 241.92539978027344 138.5880584716797 258.2257995605469 132.62100219726562 C 265.9465637207031 176.08262634277344 254.80165100097656 176.9265899658203 260.623779296875 146.74642944335938 C 270.66949462890625 143.5014190673828 277.5591735839844 151.35987854003906 227.97055053710938 141.37608337402344 C 236.7253875732422 137.0433807373047 260.507568359375 143.52352905273438 239.9331512451172 157.46383666992188"/>
    <path stroke-width="0" fill="rgb(98, 50, 75)" opacity="0.7232378" stroke="rgb(33, 3, 29)" stroke-opacity="1.0" stroke-linecap="round" stroke-linejoin="round" d="M 536.125 294.1974182128906 C 505.2458801269531 317.268798828125 508.6228942871094 331.8068542480469 522.595703125 340.4447021484375 C 525.0210571289062 249.46438598632812 538.9827270507812 296.4679260253906 499.41973876953125 296.78875732421875 C 467.7344970703125 298.3100280761719 490.6642150878906 297.1082763671875 523.2836303710938 298.7867736816406 C 531.095947265625 267.7210388183594 536.8461303710938 289.4244079589844 536.125 294.1974182128906"/>
    <path stroke-width="0" fill="rgb(38, 3, 132)" opacity="0.25590074" stroke="rgb(248, 252, 104)" stroke-opacity="1.0" stroke-linecap="round" stroke-linejoin="round" d="M 270.8695373535156 75.0544204711914 C 276.9496154785156 59.12766647338867 261.95623779296875 81.57150268554688 279.0075988769531 71.61170196533203 C 266.88714599609375 71.85638427734375 268.9934387207031 83.3702392578125 284.5883483886719 71.41429138183594 C 304.2477722167969 104.36603546142578 299.3341064453125 109.80758666992188 280.01654052734375 93.57273864746094 C 272.15216064453125 89.37294006347656 276.81982421875 72.55656433105469 270.8695373535156 75.0544204711914"/>
    <path stroke-width="0" fill="rgb(131, 109, -12)" opacity="0.41459644" stroke="rgb(162, 125, 252)" stroke-opacity="1.0" stroke-linecap="round" stroke-linejoin="round" d="M 226.6001739501953 177.4011688232422 C 238.80992126464844 183.5594940185547 198.03411865234375 156.28172302246094 211.4841766357422 138.79859924316406 C 199.38568115234375 151.90377807617188 191.66224670410156 153.73341369628906 193.8095703125 122.60398864746094 C 197.9740447998047 176.45347595214844 211.6368408203125 130.81680297851562 222.55374145507812 165.8827667236328 C 185.3709716796875 124.5882339477539 186.34744262695312 167.10240173339844 226.6001739501953 177.4011688232422"/>
    <path stroke-width="0" fill="rgb(74, 140, 4)" opacity="0.9693947" stroke="rgb(199, 73, 61)" stroke-opacity="1.0" stroke-linecap="round" stroke-linejoin="round" d="M 246.53688049316406 134.6871337890625 C 220.9910888671875 163.5484161376953 231.86251831054688 176.69285583496094 213.375244140625 162.8623504638672 C 238.4124298095703 176.29908752441406 193.8810272216797 195.13458251953125 220.25445556640625 190.35025024414062 C 259.7629089355469 199.8292999267578 259.67828369140625 192.0833740234375 249.2577362060547 172.9122772216797 C 230.3462371826172 178.74671936035156 298.5840759277344 172.10540771484375 246.53688049316406 134.6871337890625"/>
    <path stroke-width="0" fill="rgb(49, 34, 91)" opacity="0.423354" stroke="rgb(62, 169, 131)" stroke-opacity="1.0" stroke-linecap="round" stroke-linejoin="round" d="M 170.3807830810547 162.74288940429688 C 164.38961791992188 138.35069274902344 169.66104125976562 143.33303833007812 165.6895294189453 132.657958984375 C 165.98455810546875 107.1637954711914 171.2855224609375 99.97393798828125 164.2615966796875 119.23905944824219 C 169.10189819335938 109.70402526855469 173.26962280273438 119.74311065673828 167.88967895507812 137.02085876464844 C 170.5863800048828 169.216064453125 174.53591918945312 160.92002868652344 170.3807830810547 162.74288940429688"/>
    <path stroke-width="0" fill="rgb(92, 156, 54)" opacity="0.6845027" stroke="rgb(141, 73, 180)" stroke-opacity="1.0" stroke-linecap="round" stroke-linejoin="round" d="M 239.51246643066406 182.54197692871094 C 236.3852081298828 136.98097229003906 223.4385528564453 164.78460693359375 211.1683807373047 171.94688415527344 C 228.2952423095703 160.20269775390625 217.6591796875 141.29257202148438 212.8291015625 162.38507080078125 C 208.9402313232422 161.70834350585938 228.21682739257812 162.0285186767578 226.96238708496094 173.82435607910156 C 220.17355346679688 171.26101684570312 220.69398498535156 177.32286071777344 239.51246643066406 182.54197692871094"/>
    <path stroke-width="0" fill="rgb(290, 241, 141)" opacity="0.9178021" stroke="rgb(59, 88, 207)" stroke-opacity="1.0" stroke-linecap="round" stroke-linejoin="round" d="M 237.76673889160156 156.66250610351562 C 226.7265167236328 166.39447021484375 242.2357940673828 150.03982543945312 225.11732482910156 85.46808624267578 C 209.59893798828125 137.6783447265625 194.4786376953125 156.86541748046875 201.912353515625 116.64531707763672 C 233.94110107421875 129.12152099609375 199.35824584960938 102.70426177978516 199.0911407470703 148.27069091796875 C 209.38613891601562 185.20584106445312 236.95584106445312 178.4823455810547 237.76673889160156 156.66250610351562"/>
    <path stroke-width="0" fill="rgb(8, 76, 86)" opacity="0.954157" stroke="rgb(247, 230, 75)" stroke-opacity="1.0" stroke-linecap="round" stroke-linejoin="round" d="M 520.4185180664062 317.457275390625 C 530.1004638671875 343.92352294921875 502.44219970703125 348.1446228027344 543.469482421875 356.9462585449219 C 535.7572631835938 362.86077880859375 430.90838623046875 355.011474609375 455.6851806640625 358.6925964355469 C 474.7495422363281 307.0313415527344 468.1613464355469 308.9486389160156 466.5403747558594 293.86651611328125 C 543.6015014648438 293.5389099121094 596.0567016601562 275.0203552246094 520.4185180664062 317.457275390625"/>
    <path stroke-width="0" fill="rgb(6, 70, 89)" opacity="0.9858775" stroke="rgb(63, 27, 242)" stroke-opacity="1.0" stroke-linecap="round" stroke-linejoin="round" d="M 557.0174560546875 309.888427734375 C 521.5855712890625 315.489013671875 489.0696105957031 323.8018493652344 554.9389038085938 320.71392822265625 C 466.1418762207031 292.8141784667969 433.73712158203125 319.664794921875 454.6626281738281 296.7283020019531 C 474.3077697753906 283.5422058105469 480.2005920410156 278.0572814941406 479.5174255371094 248.7779998779297 C 503.1957092285156 248.3802490234375 547.5175170898438 242.82748413085938 557.0174560546875 309.888427734375"/>
    <path stroke-width="0" fill="rgb(84, 144, 57)" opacity="0.6813773" stroke="rgb(175, 14, 186)" stroke-opacity="1.0" stroke-linecap="round" stroke-linejoin="round" d="M 479.26031494140625 138.51138305664062 C 484.1526794433594 104.96595764160156 488.5441589355469 164.7790985107422 473.4171447753906 153.1082305908203 C 476.85504150390625 131.51632690429688 444.9906921386719 164.48268127441406 477.5677185058594 131.03575134277344 C 471.383056640625 125.82874298095703 460.88018798828125 148.4312744140625 464.0827941894531 154.60873413085938 C 463.7001647949219 156.37864685058594 475.34710693359375 141.663330078125 479.26031494140625 138.51138305664062"/>
    <path stroke-width="0" fill="rgb(213, 288, 196)" opacity="0.9881658" stroke="rgb(69, 96, 95)" stroke-opacity="1.0" stroke-linecap="round" stroke-linejoin="round" d="M 219.23870849609375 138.91038513183594 C 220.09500122070312 172.11343383789062 222.2387237548828 170.14280700683594 241.66998291015625 168.89353942871094 C 250.95068359375 173.3095245361328 208.38343811035156 176.66624450683594 217.1725311279297 165.63864135742188 C 220.7687225341797 164.718994140625 218.4911651611328 156.49032592773438 237.5251007080078 169.95169067382812 C 253.25428771972656 128.45001220703125 249.3907012939453 125.26615142822266 219.23870849609375 138.91038513183594"/>
    <path stroke-width="0" fill="rgb(37, 123, 113)" opacity="0.9191971" stroke="rgb(213, 60, 128)" stroke-opacity="1.0" stroke-linecap="round" stroke-linejoin="round" d="M 509.0705871582031 168.24472045898438 C 466.6676330566406 160.51719665527344 461.1612548828125 191.07110595703125 465.8693542480469 173.8517303466797 C 384.6141357421875 204.0323028564453 344.5828857421875 166.65386962890625 458.16650390625 156.05455017089844 C 486.2403259277344 164.62939453125 475.2890319824219 148.97523498535156 407.72406005859375 -48.2725830078125 C 579.5335083007812 11.667825698852539 450.7805480957031 67.1048812866211 509.0705871582031 168.24472045898438"/>
    <path stroke-width="0" fill="rgb(53, 183, -47)" opacity="1.0630816" stroke="rgb(161, 221, 239)" stroke-opacity="1.0" stroke-linecap="round" stroke-linejoin="round" d="M 280.0018615722656 152.43502807617188 C 289.9194030761719 208.6263885498047 220.01434326171875 210.97360229492188 203.23690795898438 195.5979461669922 C 264.4373779296875 167.05294799804688 196.41256713867188 184.98374938964844 196.8495635986328 192.9104461669922 C 163.6952667236328 173.90695190429688 208.05970764160156 186.1639404296875 243.10630798339844 182.8029327392578 C 228.4723663330078 194.98922729492188 241.688720703125 170.22035217285156 280.0018615722656 152.43502807617188"/>
    <path stroke-width="0" fill="rgb(62, 149, 35)" opacity="0.78531206" stroke="rgb(18, 74, 38)" stroke-opacity="1.0" stroke-linecap="round" stroke-linejoin="round" d="M 471.89593505859375 147.33071899414062 C 447.4404602050781 177.3185577392578 424.85125732421875 166.01727294921875 465.2783508300781 201.70668029785156 C 491.19586181640625 178.92196655273438 445.9159851074219 134.92213439941406 452.88568115234375 154.19546508789062 C 418.4897766113281 166.06495666503906 418.6452941894531 109.2674560546875 455.11956787109375 130.65040588378906 C 455.0042419433594 122.1871566772461 495.799072265625 124.65185546875 471.89593505859375 147.33071899414062"/>
    <path stroke-width="0" fill="rgb(120, 168, 38)" opacity="0.51322323" stroke="rgb(33, 154, 97)" stroke-opacity="1.0" stroke-linecap="round" stroke-linejoin="round" d="M 466.30377197265625 176.38662719726562 C 474.367919921875 190.80560302734375 459.5423278808594 189.0260009765625 460.81109619140625 179.2304229736328 C 431.36395263671875 188.39178466796875 442.6768798828125 195.85133361816406 457.05126953125 200.3511505126953 C 418.5943298339844 212.80966186523438 476.87139892578125 216.4923095703125 453.87506103515625 200.47525024414062 C 457.7682800292969 206.02259826660156 453.2132568359375 179.31919860839844 466.30377197265625 176.38662719726562"/>
    <path stroke-width="0" fill="rgb(114, 220, -63)" opacity="0.8682693" stroke="rgb(246, 139, 70)" stroke-opacity="1.0" stroke-linecap="round" stroke-linejoin="round" d="M 213.95523071289062 179.3055877685547 C 248.885498046875 167.66603088378906 202.84579467773438 174.6262969970703 232.97950744628906 183.23321533203125 C 222.18020629882812 193.732666015625 213.94619750976562 181.04196166992188 173.47256469726562 146.82070922851562 C 178.57435607910156 228.95620727539062 260.658447265625 185.4480743408203 227.1859588623047 184.18072509765625 C 209.2453155517578 185.81170654296875 226.9570770263672 182.0904998779297 213.95523071289062 179.3055877685547"/>
    <path stroke-width="0" fill="rgb(274, 250, 154)" opacity="0.90795124" stroke="rgb(228, 103, 140)" stroke-opacity="1.0" stroke-linecap="round" stroke-linejoin="round" d="M 258.7370910644531 151.78802490234375 C 244.66610717773438 193.66554260253906 191.17898559570312 179.5777130126953 198.30870056152344 131.37673950195312 C 203.77806091308594 153.28195190429688 204.2815704345703 144.1609344482422 197.87478637695312 132.68373107910156 C 194.68038940429688 174.5625457763672 217.4938507080078 128.24081420898438 212.7667694091797 117.55814361572266 C 210.17739868164062 67.483642578125 264.08416748046875 95.00401306152344 258.7370910644531 151.78802490234375"/>
    <path stroke-width="0" fill="rgb(82, 156, 62)" opacity="0.63660294" stroke="rgb(85, 235, 219)" stroke-opacity="1.0" stroke-linecap="round" stroke-linejoin="round" d="M 459.5719299316406 173.98377990722656 C 520.116943359375 136.08314514160156 454.9432067871094 138.4031219482422 431.7041320800781 165.40097045898438 C 431.1365966796875 185.08876037597656 474.67010498046875 176.3740997314453 450.0184326171875 160.0289306640625 C 433.8451843261719 181.74180603027344 466.2201843261719 171.6114044189453 439.74560546875 166.39381408691406 C 513.2977294921875 175.02627563476562 465.29107666015625 154.0039520263672 459.5719299316406 173.98377990722656"/>
    <path stroke-width="0" fill="rgb(80, 160, 39)" opacity="0.1435386" stroke="rgb(64, 113, 26)" stroke-opacity="1.0" stroke-linecap="round" stroke-linejoin="round" d="M 461.6161193847656 202.78118896484375 C 377.9910583496094 197.6280059814453 440.1932067871094 224.83949279785156 469.07061767578125 189.5522003173828 C 489.5673828125 210.9608917236328 443.39703369140625 199.9352569580078 430.2911071777344 200.2362823486328 C 420.4344177246094 189.71633911132812 435.67449951171875 174.193115234375 442.9358215332031 187.544677734375 C 434.9032897949219 203.49685668945312 467.8521423339844 169.5672149658203 461.6161193847656 202.78118896484375"/>
    <path stroke-width="0" fill="rgb(116, 196, 125)" opacity="0.20121641" stroke="rgb(0, 0, 0)" stroke-opacity="0.0" stroke-linecap="round" stroke-linejoin="round" d="M 78.48472595214844 8.016756057739258 C 78.80924224853516 23.230209350585938 81.26097869873047 26.39118003845215 77.85176086425781 20.996883392333984 C 61.47365951538086 14.667304992675781 63.612754821777344 14.364351272583008 65.63035583496094 20.34384536743164 C 65.94483184814453 7.107758522033691 64.86756896972656 8.98124885559082 61.50784683227539 -2.190427541732788 C 79.18059539794922 0.028072388842701912 79.82280731201172 1.868050217628479 78.48472595214844 8.016756057739258"/>
    <path stroke-width="0" fill="rgb(134, 184, 163)" opacity="0.13713543" stroke="rgb(0, 0, 0)" stroke-opacity="0.0" stroke-linecap="round" stroke-linejoin="round" d="M 16.22516632080078 3.2139620780944824 C 18.67656707763672 14.379572868347168 18.793848037719727 19.16891098022461 27.959840774536133 14.2530517578125 C 25.880264282226562 7.52730655670166 23.194822311401367 1.172215223312378 19.234703063964844 -2.624742031097412 C 11.943524360656738 -1.1893250942230225 13.392111778259277 -1.1810874938964844 18.391756057739258 -2.7065067291259766 C 20.92961883544922 -2.215752363204956 19.63775634765625 0.2448464035987854 16.22516632080078 3.2139620780944824"/>
    <path stroke-width="0" fill="rgb(103, 111, 149)" opacity="-0.08094024" stroke="rgb(0, 0, 0)" stroke-opacity="0.0" stroke-linecap="round" stroke-linejoin="round" d="M 436.61029052734375 3.346637010574341 C 432.3450622558594 15.476569175720215 434.5859069824219 20.5783634185791 428.297119140625 18.75935173034668 C 425.8021240234375 17.817012786865234 427.7746276855469 11.516839981079102 423.4443359375 3.3288042545318604 C 420.59613037109375 -1.5259723663330078 422.9516906738281 0.20918981730937958 428.9703369140625 2.6173007488250732 C 432.30084228515625 5.509276390075684 436.3695373535156 9.970343589782715 436.61029052734375 3.346637010574341"/>
    <path stroke-width="0" fill="rgb(108, 177, 158)" opacity="0.3413332" stroke="rgb(0, 0, 0)" stroke-opacity="0.0" stroke-linecap="round" stroke-linejoin="round" d="M 183.7264404296875 9.21451473236084 C 188.3736114501953 20.68703269958496 179.84323120117188 18.510555267333984 179.31631469726562 12.329468727111816 C 179.4305877685547 2.1418297290802 168.6939239501953 8.029704093933105 166.84689331054688 4.90347957611084 C 156.38462829589844 3.575519561767578 156.97914123535156 -0.13966104388237 165.83738708496094 -3.14326810836792 C 181.53250122070312 -6.934011936187744 183.2890625 -3.7285213470458984 183.7264404296875 9.21451473236084"/>
    <path stroke-width="0" fill="rgb(116, 188, 112)" opacity="0.06983762" stroke="rgb(0, 0, 0)" stroke-opacity="0.0" stroke-linecap="round" stroke-linejoin="round" d="M 72.49385070800781 14.890588760375977 C 70.8171157836914 19.814931869506836 70.55416870117188 26.238384246826172 62.247257232666016 21.40868377685547 C 63.175907135009766 25.24884033203125 60.5119743347168 22.877460479736328 58.05680465698242 15.252814292907715 C 58.03070831298828 9.250481605529785 60.523563385009766 3.9438629150390625 65.78421020507812 9.611417770385742 C 70.76117706298828 5.46679162979126 69.769775390625 12.016597747802734 72.49385070800781 14.890588760375977"/>
    <path stroke-width="0" fill="rgb(86, 204, 123)" opacity="0.5157621" stroke="rgb(0, 0, 0)" stroke-opacity="0.0" stroke-linecap="round" stroke-linejoin="round" d="M 262.5185852050781 13.856493949890137 C 265.79766845703125 21.776893615722656 265.52606201171875 42.64619064331055 258.6772155761719 37.74885940551758 C 245.8915557861328 17.848163604736328 240.4447479248047 18.33629608154297 250.32394409179688 12.465972900390625 C 260.5199890136719 3.0899081230163574 255.33518981933594 -5.103810787200928 245.22381591796875 4.928884506225586 C 253.4791259765625 15.184439659118652 258.2355651855469 17.967525482177734 262.5185852050781 13.856493949890137"/>
    <path stroke-width="0" fill="rgb(108, 132, 211)" opacity="0.03365756" stroke="rgb(0, 0, 0)" stroke-opacity="0.0" stroke-linecap="round" stroke-linejoin="round" d="M 235.0966033935547 27.257474899291992 C 240.38926696777344 26.03182029724121 239.05369567871094 29.725357055664062 236.6890411376953 26.17112922668457 C 233.14340209960938 28.852249145507812 229.843994140625 27.373470306396484 219.9983367919922 25.94467544555664 C 221.02525329589844 29.91964340209961 233.48704528808594 26.79003143310547 232.5082244873047 27.42764663696289 C 231.84317016601562 22.34400177001953 233.35614013671875 28.502731323242188 235.0966033935547 27.257474899291992"/>
    <path stroke-width="0" fill="rgb(67, 92, 55)" opacity="0.16319509" stroke="rgb(0, 0, 0)" stroke-opacity="0.0" stroke-linecap="round" stroke-linejoin="round" d="M 475.5651550292969 245.08180236816406 C 479.980224609375 247.12574768066406 475.7464904785156 245.00735473632812 476.2967224121094 244.9650421142578 C 479.2513732910156 245.8991241455078 470.03546142578125 246.5056915283203 467.99896240234375 247.725341796875 C 473.76080322265625 238.40467834472656 476.9454040527344 232.38894653320312 468.0243225097656 239.8408966064453 C 476.1163635253906 241.24966430664062 478.9006042480469 247.0791015625 475.5651550292969 245.08180236816406"/>
    <path stroke-width="0" fill="rgb(238, 162, 181)" opacity="0.052975416" stroke="rgb(0, 0, 0)" stroke-opacity="0.0" stroke-linecap="round" stroke-linejoin="round" d="M 285.49566650390625 298.7892761230469 C 292.1247863769531 312.960205078125 291.3724365234375 316.2923278808594 275.802490234375 307.5141296386719 C 268.2961120605469 313.6849060058594 266.6861572265625 310.9476318359375 270.5997619628906 300.1563415527344 C 270.3975830078125 291.27215576171875 268.3113098144531 291.66650390625 278.9375 299.8084716796875 C 273.8108825683594 298.18902587890625 281.6341857910156 297.4593811035156 285.49566650390625 298.7892761230469"/>
    <path stroke-width="0" fill="rgb(102, 163, 166)" opacity="0.044365298" stroke="rgb(0, 0, 0)" stroke-opacity="0.0" stroke-linecap="round" stroke-linejoin="round" d="M 124.42208862304688 85.88628387451172 C 126.41981506347656 93.22174835205078 128.42044067382812 93.95645904541016 118.56903076171875 93.25309753417969 C 111.40015411376953 91.75951385498047 121.61940002441406 90.27224731445312 122.76972961425781 86.97525787353516 C 112.76010131835938 82.60842895507812 115.88093566894531 83.31390380859375 123.96196746826172 88.58358764648438 C 124.04224395751953 75.07267761230469 125.98405456542969 76.66804504394531 124.42208862304688 85.88628387451172"/>
    <path stroke-width="0" fill="rgb(100, 215, 108)" opacity="0.11553346" stroke="rgb(0, 0, 0)" stroke-opacity="0.0" stroke-linecap="round" stroke-linejoin="round" d="M 12.367751121520996 9.788678169250488 C 11.773102760314941 14.459921836853027 2.3322763442993164 11.39094352722168 6.231987476348877 10.369818687438965 C 6.056372165679932 13.87151050567627 3.4988038539886475 12.726935386657715 5.509674549102783 14.590963363647461 C 2.7195804119110107 10.393633842468262 2.65576171875 4.96637487411499 11.536946296691895 9.070110321044922 C 2.6940181255340576 15.067887306213379 7.2513909339904785 13.450821876525879 12.367751121520996 9.788678169250488"/>
    <path stroke-width="0" fill="rgb(118, 53, 209)" opacity="0.06047734" stroke="rgb(0, 0, 0)" stroke-opacity="0.0" stroke-linecap="round" stroke-linejoin="round" d="M 424.9664611816406 111.12153625488281 C 429.91619873046875 110.49816131591797 426.6357421875 112.79137420654297 425.1690673828125 112.93763732910156 C 423.87042236328125 110.4324722290039 420.40740966796875 108.3647689819336 418.8027648925781 107.86641693115234 C 423.69091796875 112.29684448242188 425.5439147949219 107.70954132080078 420.778564453125 105.93125915527344 C 423.28717041015625 108.2553482055664 421.1295471191406 114.20697021484375 424.9664611816406 111.12153625488281"/>
    <path stroke-width="0" fill="rgb(144, 136, 34)" opacity="0.67156833" stroke="rgb(0, 0, 0)" stroke-opacity="0.0" stroke-linecap="round" stroke-linejoin="round" d="M -65.47331237792969 73.55612182617188 C -66.54511260986328 77.55612182617188 -69.47331237792969 80.48432922363281 -73.47331237792969 81.55612182617188 C -77.47331237792969 80.48432922363281 -80.4015121459961 77.55612182617188 -81.47331237792969 73.55612182617188 C -80.4015121459961 69.55612182617188 -77.47331237792969 66.62792205810547 -73.47331237792969 65.55612182617188 C -69.47331237792969 66.62792205810547 -66.54511260986328 69.55612182617188 -65.47331237792969 73.55612182617188"/>
    <path stroke-width="0" fill="rgb(194, 64, 58)" opacity="-0.0027905705" stroke="rgb(0, 0, 0)" stroke-opacity="0.0" stroke-linecap="round" stroke-linejoin="round" d="M 432.8787841796875 27.54247283935547 C 431.7411193847656 36.77251434326172 430.99298095703125 42.99608612060547 435.15875244140625 45.11155700683594 C 435.50927734375 33.1219482421875 429.2688903808594 31.4405517578125 426.8491516113281 31.788713455200195 C 427.5977478027344 33.67841720581055 429.6402282714844 29.01707649230957 430.7427673339844 19.721298217773438 C 428.7982177734375 22.963998794555664 431.9237060546875 25.63979148864746 432.8787841796875 27.54247283935547"/>
    <path stroke-width="0" fill="rgb(201, 36, 162)" opacity="0.0050469" stroke="rgb(0, 0, 0)" stroke-opacity="0.0" stroke-linecap="round" stroke-linejoin="round" d="M 307.5172424316406 181.63314819335938 C 299.4715881347656 188.26866149902344 301.7193603515625 195.18435668945312 297.9773864746094 187.06192016601562 C 295.0351867675781 186.84542846679688 291.1775207519531 183.10537719726562 286.7389831542969 180.5302734375 C 282.65972900390625 172.35540771484375 279.4675598144531 167.91075134277344 288.0669250488281 173.243896484375 C 293.1471862792969 181.08285522460938 300.30206298828125 182.38006591796875 307.5172424316406 181.63314819335938"/>
    <path stroke-width="0" fill="rgb(60, 99, 106)" opacity="-0.04643364" stroke="rgb(0, 0, 0)" stroke-opacity="0.0" stroke-linecap="round" stroke-linejoin="round" d="M 430.7116394042969 81.63654327392578 C 428.142822265625 80.45892333984375 431.0239562988281 83.33943939208984 434.9573974609375 97.19692993164062 C 429.2342224121094 89.25589752197266 430.5438232421875 82.6388168334961 430.0171203613281 86.13043975830078 C 428.973876953125 81.94631958007812 427.033203125 76.43897247314453 429.6662292480469 83.91392517089844 C 431.5335998535156 78.86055755615234 430.61181640625 81.56709289550781 430.7116394042969 81.63654327392578"/>
    <path stroke-width="0" fill="rgb(270, 131, 52)" opacity="0.046775665" stroke="rgb(0, 0, 0)" stroke-opacity="0.0" stroke-linecap="round" stroke-linejoin="round" d="M 247.00108337402344 268.8204650878906 C 246.19244384765625 273.7383117675781 252.62869262695312 277.9256286621094 249.07177734375 285.24432373046875 C 243.63534545898438 281.9783020019531 245.6249542236328 272.3445129394531 238.9543914794922 268.1501159667969 C 234.3021240234375 270.1718444824219 249.0467071533203 271.8280944824219 244.42442321777344 270.70587158203125 C 243.2046661376953 271.5537109375 248.36181640625 271.82122802734375 247.00108337402344 268.8204650878906"/>
    <path stroke-width="0" fill="rgb(29, 74, 177)" opacity="0.33277684" stroke="rgb(0, 0, 0)" stroke-opacity="0.0" stroke-linecap="round" stroke-linejoin="round" d="M -16.759288787841797 0.30070480704307556 C -17.831087112426758 4.3007049560546875 -20.759288787841797 7.228908061981201 -24.759288787841797 8.300704956054688 C -28.759288787841797 7.228908061981201 -31.68749237060547 4.3007049560546875 -32.7592887878418 0.30070480704307556 C -31.68749237060547 -3.6992952823638916 -28.759288787841797 -6.627498626708984 -24.759288787841797 -7.6992950439453125 C -20.759288787841797 -6.627498626708984 -17.831087112426758 -3.6992952823638916 -16.759288787841797 0.30070480704307556"/>
    <path stroke-width="0" fill="rgb(192, 190, 101)" opacity="0.16691247" stroke="rgb(0, 0, 0)" stroke-opacity="0.0" stroke-linecap="round" stroke-linejoin="round" d="M 334.9176940917969 394.7663879394531 C 336.3037109375 409.5042419433594 335.3791809082031 419.0991516113281 326.2890319824219 423.7070007324219 C 325.4690856933594 412.89599609375 323.1037292480469 409.508056640625 330.2740783691406 394.0776672363281 C 328.6761474609375 385.5167236328125 322.0118713378906 388.7990417480469 326.5191955566406 395.2131042480469 C 328.5447082519531 389.99267578125 333.9927673339844 388.3640441894531 334.9176940917969 394.7663879394531"/>
  </g>
</svg>
