<?xml version="1.0" ?>
<svg xmlns="http://www.w3.org/2000/svg" version="1.1" width="128" height="128">
  <defs/>
  <g>
    <path d="M 80.23958587646484 107.40758514404297 C 90.1991958618164 119.86967468261719 89.97622680664062 124.1175308227539 47.39985656738281 121.3286361694336 C 14.708711624145508 94.8155517578125 14.657382011413574 88.85588073730469 -9.273834228515625 23.38193130493164 C -13.937495231628418 6.172770977020264 -13.626860618591309 -0.8123360872268677 7.49583625793457 -2.709584951400757 C 60.39110565185547 41.17537307739258 62.51474380493164 43.23137283325195 80.23958587646484 107.40758514404297" stroke-width="0.0" fill="rgb(76, 76, 92)" opacity="0.90580726" stroke="rgb(139, 182, 153)" stroke-opacity="0.5448832" stroke-linecap="round" stroke-linejoin="round"/>
    <path d="M 140.9971466064453 26.087148666381836 C 130.16177368164062 98.51940155029297 111.03526306152344 93.78793334960938 75.20208740234375 94.00335693359375 C 36.443870544433594 85.3333969116211 35.641380310058594 77.93472290039062 -12.481614112854004 0.48721176385879517 C -1.4265276193618774 -15.368059158325195 4.739459037780762 -14.878934860229492 111.56205749511719 -12.648024559020996 C 133.8255157470703 -12.188261032104492 139.07601928710938 -15.020416259765625 140.9971466064453 26.087148666381836" stroke-width="0.0" fill="rgb(115, 120, 122)" opacity="0.9567114" stroke="rgb(108, 164, 111)" stroke-opacity="0.891773" stroke-linecap="round" stroke-linejoin="round"/>
    <path d="M 74.21533966064453 130.84912109375 C 72.57430267333984 142.53158569335938 66.29369354248047 143.35865783691406 -18.34932518005371 138.7664794921875 C -19.745569229125977 117.4539566040039 -12.951138496398926 104.7552490234375 -11.57041072845459 68.14262390136719 C -14.232863426208496 40.906192779541016 -20.36682891845703 32.045413970947266 -2.423342704772949 27.43935203552246 C 36.11846923828125 47.03889465332031 38.8201904296875 48.436405181884766 74.21533966064453 130.84912109375" stroke-width="0.0" fill="rgb(122, 126, 127)" opacity="0.993521" stroke="rgb(245, 97, 201)" stroke-opacity="0.5288949" stroke-linecap="round" stroke-linejoin="round"/>
    <path d="M 139.45050048828125 124.96471405029297 C 141.1522674560547 135.2061004638672 142.64610290527344 138.7851104736328 75.42845153808594 140.11529541015625 C 57.23434066772461 143.70956420898438 50.85582733154297 150.181884765625 55.93217468261719 93.57171630859375 C 74.6915512084961 58.04369354248047 74.88776397705078 45.11140823364258 135.39186096191406 36.996299743652344 C 144.16696166992188 66.25808715820312 140.20399475097656 77.22810363769531 139.45050048828125 124.96471405029297" stroke-width="0.0" fill="rgb(120, 125, 128)" opacity="0.97974944" stroke="rgb(144, 236, 18)" stroke-opacity="0.0871293" stroke-linecap="round" stroke-linejoin="round"/>
    <path d="M 92.19586944580078 132.21961975097656 C 91.13390350341797 125.78363800048828 91.39073944091797 128.05593872070312 79.01986694335938 136.79917907714844 C 99.47505950927734 130.3650360107422 79.3538589477539 138.25672912597656 83.61880493164062 122.26490020751953 C 83.67218780517578 123.5435791015625 82.04979705810547 121.52668762207031 85.13025665283203 125.2913589477539 C 87.72295379638672 126.88273620605469 82.65239715576172 129.36929321289062 92.19586944580078 132.21961975097656" stroke-width="0.0" fill="rgb(236, 244, 243)" opacity="1.0" stroke="rgb(5, 212, 198)" stroke-opacity="0.87001216" stroke-linecap="round" stroke-linejoin="round"/>
    <path d="M 89.28973388671875 122.07915496826172 C 70.41216278076172 137.4327850341797 89.25395202636719 133.46786499023438 85.56315612792969 123.47576141357422 C 86.78631591796875 125.16485595703125 86.94186401367188 122.57848358154297 86.71720886230469 125.15113067626953 C 85.01213836669922 123.24075317382812 92.49205780029297 117.38916015625 78.36630249023438 118.4946060180664 C 91.14341735839844 114.42627716064453 103.23934936523438 127.08560943603516 89.28973388671875 122.07915496826172" stroke-width="0.0" fill="rgb(254, 252, 255)" opacity="0.8360911" stroke="rgb(249, 203, 117)" stroke-opacity="0.7805292" stroke-linecap="round" stroke-linejoin="round"/>
    <path d="M 94.92005920410156 113.96345520019531 C 95.55594635009766 109.93395233154297 89.48778533935547 116.11443328857422 96.12962341308594 114.03199005126953 C 95.84329223632812 110.17192840576172 101.88890075683594 114.27729797363281 94.5858154296875 114.01577758789062 C 103.52806854248047 119.33465576171875 99.31341552734375 113.45970153808594 97.1194839477539 112.0626220703125 C 101.61065673828125 119.03400421142578 88.623291015625 115.20732116699219 94.92005920410156 113.96345520019531" stroke-width="0.0" fill="rgb(36, 37, 37)" opacity="0.9718117" stroke="rgb(30, 163, 36)" stroke-opacity="0.9446689" stroke-linecap="round" stroke-linejoin="round"/>
    <path d="M 96.69475555419922 116.02214813232422 C 90.98783874511719 130.79942321777344 59.55409240722656 144.0731964111328 63.78348922729492 159.38821411132812 C 71.1849594116211 135.3695526123047 73.5049057006836 135.54295349121094 85.43791961669922 137.68722534179688 C 86.9633560180664 133.98057556152344 86.93020629882812 130.0499267578125 82.5778579711914 129.05511474609375 C 86.77677917480469 111.9703140258789 74.77449798583984 116.87645721435547 96.69475555419922 116.02214813232422" stroke-width="0.0" fill="rgb(251, 253, 255)" opacity="0.7392671" stroke="rgb(133, 105, 67)" stroke-opacity="0.7742337" stroke-linecap="round" stroke-linejoin="round"/>
    <path d="M 93.40335083007812 20.315704345703125 C 92.38822174072266 22.2208251953125 63.611087799072266 19.640583038330078 93.97756958007812 19.99164581298828 C 94.28004455566406 37.51950454711914 92.61192321777344 6.517606735229492 85.87728881835938 24.40485382080078 C 96.95384979248047 26.002334594726562 90.85884857177734 11.804363250732422 82.53675079345703 17.28670883178711 C 95.2539291381836 8.393415451049805 80.6960678100586 28.1668643951416 93.40335083007812 20.315704345703125" stroke-width="0.0" fill="rgb(255, 254, 255)" opacity="1.0" stroke="rgb(116, 144, 4)" stroke-opacity="0.6176355" stroke-linecap="round" stroke-linejoin="round"/>
    <path d="M 95.96446990966797 122.26995086669922 C 96.35169982910156 134.39358520507812 94.22978210449219 130.40374755859375 90.29492950439453 143.31939697265625 C 110.9959716796875 129.45619201660156 72.27880859375 126.70682525634766 80.01334381103516 118.24282836914062 C 77.61336517333984 123.49867248535156 95.74441528320312 124.10591125488281 94.98365783691406 123.97744750976562 C 95.77227020263672 114.11273193359375 112.3447036743164 113.98149871826172 95.96446990966797 122.26995086669922" stroke-width="0.0" fill="rgb(183, 190, 194)" opacity="1.0" stroke="rgb(156, 157, 240)" stroke-opacity="0.6818203" stroke-linecap="round" stroke-linejoin="round"/>
    <path d="M 89.025634765625 19.14430809020996 C 89.86060333251953 12.177773475646973 95.14347076416016 18.571428298950195 89.12979888916016 21.575719833374023 C 87.59844207763672 32.892208099365234 95.89994049072266 12.200223922729492 85.28345489501953 15.305419921875 C 91.17525482177734 6.802676200866699 88.49372863769531 23.734474182128906 95.1229248046875 19.248699188232422 C 61.07147216796875 18.920801162719727 99.99299621582031 20.997455596923828 89.025634765625 19.14430809020996" stroke-width="0.0" fill="rgb(11, 18, 20)" opacity="0.68319184" stroke="rgb(91, 111, 177)" stroke-opacity="0.06022547" stroke-linecap="round" stroke-linejoin="round"/>
    <path d="M 89.22603607177734 121.69012451171875 C 83.49832916259766 112.81950378417969 91.7309799194336 134.9462890625 83.1836166381836 156.21360778808594 C 77.00806427001953 120.87332916259766 83.81770324707031 125.4839096069336 75.2647933959961 125.10778045654297 C 75.5714111328125 125.26434326171875 75.9079818725586 124.47025299072266 89.20097351074219 120.17638397216797 C 83.38919067382812 119.20577239990234 103.22423553466797 119.7109375 89.22603607177734 121.69012451171875" stroke-width="0.0" fill="rgb(153, 159, 163)" opacity="0.8401157" stroke="rgb(170, 171, 53)" stroke-opacity="0.12892629" stroke-linecap="round" stroke-linejoin="round"/>
    <path d="M 71.00667572021484 126.46540069580078 C 1.059696912765503 63.86569595336914 21.301490783691406 45.47089767456055 22.267559051513672 52.54660415649414 C -15.04680061340332 52.185115814208984 -14.04260540008545 48.10115051269531 -8.879592895507812 31.584514617919922 C -10.195554733276367 16.14738655090332 -11.507335662841797 12.048149108886719 -2.048719644546509 -2.1527345180511475 C 71.71226501464844 -105.58712768554688 103.61307525634766 17.447601318359375 71.00667572021484 126.46540069580078" stroke-width="0.0" fill="rgb(122, 126, 128)" opacity="0.98879874" stroke="rgb(80, 92, 145)" stroke-opacity="0.43860152" stroke-linecap="round" stroke-linejoin="round"/>
    <path d="M 86.436279296875 109.8575439453125 C 91.48072052001953 113.95942687988281 79.00525665283203 114.33736419677734 91.92481231689453 104.06352996826172 C 73.05579376220703 102.34992980957031 81.43865966796875 108.54161071777344 90.10841369628906 110.45714569091797 C 75.33763122558594 100.82637023925781 78.67395782470703 129.052490234375 86.6292724609375 88.0962142944336 C 82.14421844482422 118.3070297241211 102.89453125 90.23873901367188 86.436279296875 109.8575439453125" stroke-width="0.0" fill="rgb(55, 56, 63)" opacity="0.99082094" stroke="rgb(252, 26, 53)" stroke-opacity="0.16130951" stroke-linecap="round" stroke-linejoin="round"/>
    <path d="M 82.59249877929688 60.48371124267578 C 95.985107421875 49.8029899597168 97.04359436035156 45.7911376953125 89.21585083007812 48.24790573120117 C 80.302490234375 66.50353240966797 85.34465789794922 51.62041091918945 85.38839721679688 46.75790023803711 C 83.94136047363281 27.561744689941406 85.4316635131836 24.97718048095703 87.94132232666016 43.99501419067383 C 89.41010284423828 46.651546478271484 87.01167297363281 56.493003845214844 82.59249877929688 60.48371124267578" stroke-width="0.0" fill="rgb(231, 238, 245)" opacity="0.9965265" stroke="rgb(166, 64, 118)" stroke-opacity="0.2444256" stroke-linecap="round" stroke-linejoin="round"/>
    <path d="M 78.24007415771484 107.70045471191406 C 114.23099517822266 117.64754486083984 110.142822265625 102.51731872558594 90.42797088623047 108.12799072265625 C 93.12704467773438 90.85893249511719 87.7874984741211 108.13252258300781 78.80816650390625 97.39176940917969 C 80.55451965332031 106.91227722167969 80.32771301269531 97.51216888427734 98.71878051757812 92.41242218017578 C 83.20061492919922 104.60781860351562 100.37532806396484 109.77472686767578 78.24007415771484 107.70045471191406" stroke-width="0.0" fill="rgb(44, 49, 52)" opacity="0.59447676" stroke="rgb(40, 28, 167)" stroke-opacity="0.13818295" stroke-linecap="round" stroke-linejoin="round"/>
    <path d="M 104.06194305419922 108.93280029296875 C 66.33405303955078 110.13594818115234 104.47069549560547 121.9058609008789 86.21582794189453 112.07782745361328 C 109.69364929199219 102.69120025634766 90.60289764404297 100.12922668457031 93.01519775390625 110.55128479003906 C 111.62017822265625 112.22193908691406 96.86921691894531 108.34146881103516 97.81599426269531 116.78404998779297 C 96.11722564697266 105.94316101074219 100.02558898925781 112.15258026123047 104.06194305419922 108.93280029296875" stroke-width="0.0" fill="rgb(240, 238, 249)" opacity="0.7905379" stroke="rgb(50, 94, 209)" stroke-opacity="0.09710128" stroke-linecap="round" stroke-linejoin="round"/>
    <path d="M 107.05751037597656 109.09371185302734 C 66.34358978271484 108.35639953613281 73.94770050048828 110.3497314453125 76.34117126464844 107.16300201416016 C 79.39768981933594 104.48448944091797 71.68344116210938 105.20769500732422 84.85787200927734 102.2387924194336 C 89.52849578857422 96.843994140625 67.73799133300781 104.0699691772461 76.72340393066406 111.27021789550781 C 78.29973602294922 107.8214111328125 70.63253784179688 111.78273010253906 107.05751037597656 109.09371185302734" stroke-width="0.0" fill="rgb(254, 253, 255)" opacity="0.9371521" stroke="rgb(213, 24, 248)" stroke-opacity="0.4686512" stroke-linecap="round" stroke-linejoin="round"/>
    <path d="M 85.9701156616211 49.04065704345703 C 96.21464538574219 41.568721771240234 75.3827133178711 52.418907165527344 91.01869201660156 49.39885330200195 C 93.89384460449219 48.043365478515625 90.94806671142578 46.16304397583008 88.73211669921875 52.0682373046875 C 91.22654724121094 52.3985595703125 93.12073516845703 47.96166229248047 82.70941925048828 61.170570373535156 C 87.26725006103516 59.65226364135742 91.2483901977539 54.331932067871094 85.9701156616211 49.04065704345703" stroke-width="0.0" fill="rgb(49, 41, 51)" opacity="0.9014458" stroke="rgb(249, 154, 188)" stroke-opacity="0.039187793" stroke-linecap="round" stroke-linejoin="round"/>
    <path d="M 95.88582611083984 91.08793640136719 C 83.29898834228516 88.4498062133789 78.59925842285156 83.4679946899414 83.98625946044922 90.78751373291016 C 79.11272430419922 82.55412292480469 94.47439575195312 78.83866119384766 82.62440490722656 86.09222412109375 C 78.80941009521484 82.75228881835938 83.71720886230469 72.91120910644531 89.85032653808594 78.32315826416016 C 89.4790267944336 91.2433853149414 100.32568359375 72.99161529541016 95.88582611083984 91.08793640136719" stroke-width="0.0" fill="rgb(30, 35, 42)" opacity="0.9709562" stroke="rgb(72, 30, 75)" stroke-opacity="0.11872772" stroke-linecap="round" stroke-linejoin="round"/>
    <path d="M 90.52105712890625 93.03462219238281 C 84.02671813964844 80.744140625 95.4446792602539 83.72728729248047 83.65988159179688 80.66401672363281 C 81.24303436279297 96.04381561279297 77.844482421875 88.5869140625 84.97744750976562 82.84832000732422 C 84.90544128417969 73.54151916503906 89.4583740234375 88.59562683105469 90.1706771850586 80.99737548828125 C 98.1376953125 88.33138275146484 87.17135620117188 78.4643783569336 90.52105712890625 93.03462219238281" stroke-width="0.0" fill="rgb(251, 254, 255)" opacity="0.69612837" stroke="rgb(81, 105, 16)" stroke-opacity="0.6924721" stroke-linecap="round" stroke-linejoin="round"/>
    <path d="M 90.5843505859375 117.23873138427734 C 87.83638763427734 99.83423614501953 90.44310760498047 119.50041961669922 87.60977935791016 112.61688995361328 C 94.6009521484375 115.33596801757812 84.18929290771484 118.37934112548828 106.77770233154297 116.53656005859375 C 96.6469955444336 120.77950286865234 85.64749908447266 115.05079650878906 89.5904541015625 116.82463836669922 C 44.04669952392578 117.60487365722656 107.60836029052734 119.2756576538086 90.5843505859375 117.23873138427734" stroke-width="0.0" fill="rgb(3, 3, 5)" opacity="0.784397" stroke="rgb(144, 67, 133)" stroke-opacity="0.09394051" stroke-linecap="round" stroke-linejoin="round"/>
    <path d="M 87.85554504394531 35.06249237060547 C 89.83477783203125 38.97215270996094 79.56641387939453 53.65998077392578 91.29383087158203 38.07234573364258 C 96.0615234375 37.053001403808594 82.6044921875 45.05363082885742 84.52802276611328 39.27052688598633 C 83.9829330444336 47.435062408447266 85.39894104003906 46.06402587890625 92.62945556640625 45.86240005493164 C 84.7538070678711 40.823177337646484 81.84056854248047 54.88774108886719 87.85554504394531 35.06249237060547" stroke-width="0.0" fill="rgb(48, 51, 58)" opacity="0.98486054" stroke="rgb(146, 236, 81)" stroke-opacity="0.6674104" stroke-linecap="round" stroke-linejoin="round"/>
    <path d="M 85.73285675048828 65.02368927001953 C 80.29168701171875 55.7620735168457 85.03218841552734 60.09669876098633 84.71331787109375 63.32522201538086 C 98.97177124023438 52.37150192260742 95.55789184570312 60.18876266479492 82.6811294555664 65.7620620727539 C 94.45990753173828 67.05868530273438 80.4560775756836 58.84699249267578 92.33741760253906 63.26268768310547 C 79.64641571044922 65.94744110107422 82.20645141601562 71.48721313476562 85.73285675048828 65.02368927001953" stroke-width="0.0" fill="rgb(240, 246, 255)" opacity="0.9977957" stroke="rgb(33, 182, 73)" stroke-opacity="0.18319136" stroke-linecap="round" stroke-linejoin="round"/>
    <path d="M 77.80209350585938 132.51348876953125 C 79.66242218017578 127.38463592529297 82.51632690429688 131.90811157226562 82.63627624511719 138.43228149414062 C 71.4927978515625 136.89682006835938 69.79080200195312 135.12326049804688 81.71668243408203 136.45619201660156 C 86.67060089111328 135.5032196044922 88.21051025390625 132.92645263671875 89.07300567626953 131.52804565429688 C 80.6180648803711 133.18209838867188 80.29073333740234 132.4224090576172 77.80209350585938 132.51348876953125" stroke-width="0.0" fill="rgb(207, 210, 217)" opacity="0.9033846" stroke="rgb(149, 5, 211)" stroke-opacity="0.004695476" stroke-linecap="round" stroke-linejoin="round"/>
    <path d="M 93.65933227539062 44.23890686035156 C 94.73504638671875 56.975887298583984 93.29133605957031 47.70700454711914 90.06781005859375 51.7255973815918 C 98.32534790039062 52.88105392456055 86.12590026855469 46.14769744873047 91.1395034790039 50.21455001831055 C 95.00011444091797 58.007930755615234 93.5780029296875 54.514251708984375 94.1506118774414 51.389774322509766 C 90.062744140625 51.07594299316406 93.68757629394531 49.763694763183594 93.65933227539062 44.23890686035156" stroke-width="0.0" fill="rgb(31, 14, 7)" opacity="0.7104455" stroke="rgb(172, 68, 187)" stroke-opacity="0.96218854" stroke-linecap="round" stroke-linejoin="round"/>
    <path d="M 98.66136932373047 91.18186950683594 C 93.55084228515625 86.78527069091797 88.55744934082031 83.72140502929688 100.3194808959961 97.98163604736328 C 91.1236343383789 87.52216339111328 88.22029876708984 102.87957000732422 92.1356201171875 85.59781646728516 C 104.39138793945312 94.81462860107422 88.29034423828125 79.79926300048828 95.81462860107422 85.13634490966797 C 98.054443359375 71.82312774658203 88.25859832763672 90.85061645507812 98.66136932373047 91.18186950683594" stroke-width="0.0" fill="rgb(238, 242, 253)" opacity="0.96042955" stroke="rgb(63, 146, 150)" stroke-opacity="0.5722519" stroke-linecap="round" stroke-linejoin="round"/>
    <path d="M 94.77850341796875 83.73682403564453 C 87.78160858154297 78.22948455810547 95.58668518066406 80.72909545898438 83.15375518798828 88.88079071044922 C 78.811279296875 66.28592681884766 86.46528625488281 82.0969009399414 86.25112915039062 65.1341781616211 C 92.97683715820312 75.32886505126953 72.81038665771484 83.83453369140625 88.67236328125 71.36691284179688 C 93.75068664550781 54.781105041503906 95.71440887451172 69.78683471679688 94.77850341796875 83.73682403564453" stroke-width="0.0" fill="rgb(255, 255, 255)" opacity="0.65959126" stroke="rgb(56, 242, 114)" stroke-opacity="0.84640867" stroke-linecap="round" stroke-linejoin="round"/>
    <path d="M 80.40043640136719 131.15682983398438 C 87.21747589111328 109.46666717529297 81.269775390625 125.26021575927734 79.36893463134766 127.5204849243164 C 77.14774322509766 140.1702423095703 67.56360626220703 128.97166442871094 78.61299896240234 132.15591430664062 C 75.1778335571289 129.79324340820312 78.20438385009766 131.08604431152344 78.38836669921875 127.07225799560547 C 80.68375396728516 125.8782958984375 76.7205581665039 132.61093139648438 80.40043640136719 131.15682983398438" stroke-width="0.0" fill="rgb(237, 241, 254)" opacity="0.97073376" stroke="rgb(178, 75, 207)" stroke-opacity="0.39650574" stroke-linecap="round" stroke-linejoin="round"/>
    <path d="M 102.61297607421875 113.62939453125 C 99.89680480957031 111.75223541259766 96.26222229003906 113.17057800292969 105.27455139160156 117.64170837402344 C 103.6580810546875 116.84355163574219 102.62448120117188 113.39966583251953 104.23405456542969 115.25140380859375 C 101.01824951171875 119.79765319824219 105.60233306884766 114.75514221191406 87.93965148925781 116.50345611572266 C 104.06405639648438 116.81578826904297 94.96537780761719 118.79235076904297 102.61297607421875 113.62939453125" stroke-width="0.0" fill="rgb(229, 238, 250)" opacity="0.8641152" stroke="rgb(224, 148, 224)" stroke-opacity="0.6925316" stroke-linecap="round" stroke-linejoin="round"/>
    <path d="M 87.04857635498047 15.756771087646484 C 98.7832260131836 13.198028564453125 76.72483825683594 13.775040626525879 85.6790542602539 15.38517951965332 C 79.17453002929688 22.867467880249023 91.07461547851562 16.999046325683594 83.52181243896484 15.51208782196045 C 91.5586929321289 11.979816436767578 85.6614990234375 10.568315505981445 89.33273315429688 2.3277928829193115 C 84.76463317871094 19.624435424804688 101.44454193115234 16.48021125793457 87.04857635498047 15.756771087646484" stroke-width="0.0" fill="rgb(241, 245, 253)" opacity="1.0" stroke="rgb(184, 127, 243)" stroke-opacity="0.6439902" stroke-linecap="round" stroke-linejoin="round"/>
    <path d="M 98.248779296875 100.8608627319336 C 103.11348724365234 110.24207305908203 98.59615325927734 108.030517578125 103.1580581665039 103.03172302246094 C 91.36898803710938 103.06576538085938 91.79898834228516 103.45990753173828 92.0644302368164 101.07308197021484 C 100.36679077148438 96.71682739257812 101.98422241210938 105.13339233398438 94.69188690185547 96.18114471435547 C 99.74031066894531 99.66907501220703 85.48563385009766 104.7267074584961 98.248779296875 100.8608627319336" stroke-width="0.0" fill="rgb(239, 241, 254)" opacity="0.92674357" stroke="rgb(108, 154, 4)" stroke-opacity="0.30157483" stroke-linecap="round" stroke-linejoin="round"/>
    <path d="M 84.54256439208984 9.553571701049805 C 82.03620147705078 13.830101013183594 80.51597595214844 13.36968994140625 82.2647476196289 13.151816368103027 C 85.69853210449219 12.839324951171875 84.87609100341797 14.84511947631836 83.65894317626953 3.621485471725464 C 86.0769271850586 22.889568328857422 87.47454833984375 15.621054649353027 82.0397720336914 14.894342422485352 C 86.503173828125 11.140240669250488 88.3037109375 12.109810829162598 84.54256439208984 9.553571701049805" stroke-width="0.0" fill="rgb(126, 131, 132)" opacity="0.89215297" stroke="rgb(168, 73, 157)" stroke-opacity="0.4287687" stroke-linecap="round" stroke-linejoin="round"/>
    <path d="M 105.11540985107422 120.78721618652344 C 106.51538848876953 124.64961242675781 110.15641784667969 127.23178100585938 101.35948181152344 125.89443969726562 C 101.55236053466797 120.80098724365234 90.0370864868164 123.2486801147461 100.82328033447266 121.91596984863281 C 105.53943634033203 131.26068115234375 95.15752410888672 132.94642639160156 108.45024871826172 129.3671875 C 101.64090728759766 134.924072265625 100.17234802246094 135.50082397460938 105.11540985107422 120.78721618652344" stroke-width="0.0" fill="rgb(230, 230, 237)" opacity="0.9954184" stroke="rgb(34, 76, 145)" stroke-opacity="0.59087276" stroke-linecap="round" stroke-linejoin="round"/>
    <path d="M 81.61483764648438 94.52375793457031 C 94.29877471923828 90.95355224609375 81.26705169677734 72.00006866455078 92.1775131225586 102.135009765625 C 78.88790130615234 86.71044158935547 87.32682800292969 93.41075134277344 86.21675109863281 86.8830337524414 C 93.71839904785156 90.04785919189453 85.81769561767578 80.66128540039062 80.3535385131836 97.5359878540039 C 78.15062713623047 94.5829086303711 82.62931060791016 96.17256927490234 81.61483764648438 94.52375793457031" stroke-width="0.0" fill="rgb(213, 220, 230)" opacity="0.8338619" stroke="rgb(146, 166, 166)" stroke-opacity="0.43141845" stroke-linecap="round" stroke-linejoin="round"/>
    <path d="M 92.85118865966797 101.07843780517578 C 99.1480941772461 100.76620483398438 89.0528335571289 100.14881896972656 94.75428771972656 95.95912170410156 C 99.80938720703125 98.60492706298828 100.90306854248047 100.44853973388672 91.80352783203125 91.81207275390625 C 102.5990982055664 104.35685729980469 93.04972839355469 97.603759765625 97.01103210449219 101.53286743164062 C 97.34410095214844 92.85981750488281 88.76568603515625 104.70714569091797 92.85118865966797 101.07843780517578" stroke-width="0.0" fill="rgb(249, 253, 255)" opacity="1.0" stroke="rgb(228, 93, 111)" stroke-opacity="0.89192337" stroke-linecap="round" stroke-linejoin="round"/>
    <path d="M 85.66606140136719 61.40544509887695 C 87.75558471679688 59.45069885253906 99.73320770263672 65.69050598144531 87.97355651855469 71.40144348144531 C 86.8524169921875 50.720680236816406 90.0567626953125 38.385799407958984 88.1377182006836 59.12236404418945 C 82.84163665771484 59.83805847167969 87.93828582763672 59.04460525512695 87.48756408691406 59.63664245605469 C 93.2531509399414 49.73149871826172 87.54608917236328 58.12217330932617 85.66606140136719 61.40544509887695" stroke-width="0.0" fill="rgb(0, 0, 8)" opacity="0.8657451" stroke="rgb(205, 179, 25)" stroke-opacity="0.9194826" stroke-linecap="round" stroke-linejoin="round"/>
    <path d="M 97.52958679199219 120.75106048583984 C 96.62169647216797 130.7138671875 105.93589782714844 120.08059692382812 94.04483032226562 136.50025939941406 C 95.02316284179688 128.40277099609375 93.22647094726562 124.19773864746094 96.28671264648438 134.37442016601562 C 99.64900207519531 134.41806030273438 100.85977935791016 133.5698699951172 96.6020278930664 132.94407653808594 C 100.15817260742188 119.11791229248047 95.94385528564453 132.23495483398438 97.52958679199219 120.75106048583984" stroke-width="0.0" fill="rgb(238, 238, 245)" opacity="0.98946667" stroke="rgb(182, 254, 38)" stroke-opacity="0.86812603" stroke-linecap="round" stroke-linejoin="round"/>
    <path d="M 88.4063491821289 10.864189147949219 C 90.25879669189453 13.21956729888916 85.66512298583984 10.812742233276367 82.9208984375 10.778077125549316 C 88.45722198486328 18.643924713134766 85.39347076416016 3.3740742206573486 93.01144409179688 19.082107543945312 C 97.31706237792969 18.75320816040039 86.13829040527344 11.589197158813477 88.0732421875 11.881875038146973 C 80.73272705078125 11.860748291015625 87.91555786132812 13.095352172851562 88.4063491821289 10.864189147949219" stroke-width="0.0" fill="rgb(255, 255, 255)" opacity="0.99316853" stroke="rgb(41, 156, 31)" stroke-opacity="0.8480082" stroke-linecap="round" stroke-linejoin="round"/>
    <path d="M 84.74116516113281 35.26676940917969 C 87.1074447631836 29.04831886291504 97.88272094726562 43.54882049560547 89.15657043457031 30.298093795776367 C 83.48019409179688 31.988431930541992 86.04908752441406 19.324987411499023 93.02497100830078 25.66871452331543 C 85.8767318725586 22.43211555480957 89.87496185302734 31.713407516479492 88.92610931396484 35.51016616821289 C 88.7509994506836 28.211023330688477 93.08875274658203 31.637508392333984 84.74116516113281 35.26676940917969" stroke-width="0.0" fill="rgb(198, 212, 207)" opacity="1.0" stroke="rgb(205, 145, 103)" stroke-opacity="0.069166996" stroke-linecap="round" stroke-linejoin="round"/>
    <path d="M 88.34114837646484 59.95682144165039 C 83.78726959228516 61.68449020385742 97.93700408935547 53.293731689453125 87.15380859375 56.43201446533203 C 98.29118347167969 73.58411407470703 93.82545471191406 62.35820007324219 95.56330871582031 59.13290023803711 C 94.60722351074219 62.02023696899414 91.35334777832031 55.275970458984375 90.35271453857422 55.22945022583008 C 94.33998107910156 59.68329620361328 86.27775573730469 51.799373626708984 88.34114837646484 59.95682144165039" stroke-width="0.0" fill="rgb(91, 93, 94)" opacity="0.98928124" stroke="rgb(177, 115, 184)" stroke-opacity="0.8663823" stroke-linecap="round" stroke-linejoin="round"/>
    <path d="M 79.02609252929688 125.72460174560547 C 80.2269515991211 122.82907104492188 80.44146728515625 133.28085327148438 79.30984497070312 137.67869567871094 C 73.94660186767578 134.1307830810547 74.05763244628906 130.9807586669922 80.84908294677734 115.64002227783203 C 69.38751983642578 123.03742218017578 83.75287628173828 121.90133666992188 81.93756103515625 124.20561981201172 C 67.6047134399414 121.77239227294922 67.89324188232422 130.72967529296875 79.02609252929688 125.72460174560547" stroke-width="0.0" fill="rgb(34, 28, 39)" opacity="0.73014444" stroke="rgb(248, 218, 2)" stroke-opacity="0.35997805" stroke-linecap="round" stroke-linejoin="round"/>
    <path d="M 76.19207000732422 128.56114196777344 C 81.50372314453125 121.90362548828125 67.1670913696289 133.0789031982422 73.57366180419922 121.73633575439453 C 77.83966827392578 129.43385314941406 85.6607437133789 119.61993408203125 73.69198608398438 124.47301483154297 C 79.02145385742188 127.50756072998047 81.93757629394531 117.81898498535156 73.70832061767578 127.8200454711914 C 75.34099578857422 121.61800384521484 69.59060668945312 127.15666961669922 76.19207000732422 128.56114196777344" stroke-width="0.0" fill="rgb(240, 241, 250)" opacity="0.9943719" stroke="rgb(186, 43, 132)" stroke-opacity="0.05433799" stroke-linecap="round" stroke-linejoin="round"/>
    <path d="M 91.8773422241211 62.059852600097656 C 88.22089385986328 65.75874328613281 82.84053802490234 64.39594268798828 93.32959747314453 59.90987014770508 C 90.9289779663086 57.95827102661133 82.47773742675781 58.54430389404297 81.44740295410156 71.66132354736328 C 82.21753692626953 64.44222259521484 84.03633880615234 60.74253845214844 89.81465911865234 53.705413818359375 C 93.30773162841797 57.767234802246094 94.66154479980469 55.79628372192383 91.8773422241211 62.059852600097656" stroke-width="0.0" fill="rgb(234, 243, 251)" opacity="0.96177083" stroke="rgb(50, 4, 202)" stroke-opacity="0.22392468" stroke-linecap="round" stroke-linejoin="round"/>
    <path d="M 85.88995361328125 34.81167984008789 C 94.89356994628906 47.33687210083008 87.5878677368164 40.457374572753906 91.21580505371094 21.628162384033203 C 93.80437469482422 22.197507858276367 88.34212493896484 29.335216522216797 94.22343444824219 34.15281295776367 C 84.84375762939453 24.599102020263672 85.48512268066406 35.565921783447266 90.39665985107422 28.54269790649414 C 80.8723373413086 23.53972625732422 95.73056030273438 38.372222900390625 85.88995361328125 34.81167984008789" stroke-width="0.0" fill="rgb(224, 231, 238)" opacity="0.96744186" stroke="rgb(88, 236, 179)" stroke-opacity="0.03183893" stroke-linecap="round" stroke-linejoin="round"/>
    <path d="M 99.00057983398438 107.27415466308594 C 105.7205581665039 105.15245056152344 104.34851837158203 115.21273803710938 103.93639373779297 103.43925476074219 C 100.44831848144531 111.57966613769531 102.30867767333984 97.98278045654297 99.4612808227539 101.35205078125 C 100.69863891601562 102.3977279663086 107.89116668701172 107.26509094238281 99.4780502319336 102.55005645751953 C 91.3876724243164 105.34172058105469 99.68755340576172 96.25003051757812 99.00057983398438 107.27415466308594" stroke-width="0.0" fill="rgb(255, 255, 255)" opacity="0.8784409" stroke="rgb(41, 158, 147)" stroke-opacity="0.23789282" stroke-linecap="round" stroke-linejoin="round"/>
    <path d="M 89.69474029541016 6.432945728302002 C 89.28657531738281 16.374393463134766 84.50067138671875 12.97481918334961 81.57122039794922 11.292526245117188 C 84.20503997802734 12.987126350402832 83.4272689819336 12.237975120544434 84.74151611328125 14.534046173095703 C 83.3277359008789 11.182040214538574 80.77719116210938 9.059388160705566 90.0432357788086 12.251928329467773 C 89.87601470947266 5.81095552444458 90.36137390136719 12.18730640411377 89.69474029541016 6.432945728302002" stroke-width="0.0" fill="rgb(92, 95, 99)" opacity="0.79064196" stroke="rgb(238, 156, 136)" stroke-opacity="0.58991" stroke-linecap="round" stroke-linejoin="round"/>
    <path d="M 82.20088195800781 54.98872756958008 C 89.19306945800781 48.12846755981445 88.05858612060547 49.561981201171875 87.81226348876953 60.6466064453125 C 91.59115600585938 60.72538757324219 84.84928894042969 45.303001403808594 90.28501892089844 50.22481155395508 C 79.72346496582031 54.71489715576172 90.29883575439453 53.920860290527344 92.47754669189453 57.594566345214844 C 78.84355926513672 51.27278518676758 88.31969451904297 51.02203369140625 82.20088195800781 54.98872756958008" stroke-width="0.0" fill="rgb(119, 122, 128)" opacity="1.0" stroke="rgb(186, 79, 101)" stroke-opacity="0.20984375" stroke-linecap="round" stroke-linejoin="round"/>
    <path d="M 92.83078002929688 55.92162322998047 C 98.17359161376953 64.93213653564453 86.025634765625 73.01822662353516 90.72455596923828 67.43911743164062 C 73.79299926757812 74.23702239990234 89.34883880615234 66.89151763916016 90.83232116699219 63.11208724975586 C 83.260009765625 63.184879302978516 88.67680358886719 55.138980865478516 91.4394302368164 58.3062858581543 C 88.66604614257812 68.26505279541016 84.49861907958984 62.96269607543945 92.83078002929688 55.92162322998047" stroke-width="0.0" fill="rgb(229, 233, 242)" opacity="1.0" stroke="rgb(47, 240, 188)" stroke-opacity="0.49045882" stroke-linecap="round" stroke-linejoin="round"/>
    <path d="M 88.7823715209961 53.90388870239258 C 89.72532653808594 49.75935745239258 83.1888198852539 53.271820068359375 94.07365417480469 57.65782165527344 C 87.643798828125 64.64966583251953 81.66616821289062 59.762847900390625 92.15641784667969 54.8669319152832 C 91.28598022460938 66.25344848632812 92.25666809082031 53.36815643310547 85.36034393310547 67.57638549804688 C 92.52940368652344 50.4282112121582 84.20211029052734 58.05413055419922 88.7823715209961 53.90388870239258" stroke-width="0.0" fill="rgb(47, 41, 49)" opacity="0.62700933" stroke="rgb(57, 64, 14)" stroke-opacity="0.43441662" stroke-linecap="round" stroke-linejoin="round"/>
    <path d="M 95.1541519165039 74.41948699951172 C 92.51840209960938 75.45609283447266 92.4880142211914 70.72431945800781 90.2015380859375 79.43431091308594 C 95.57494354248047 83.603759765625 92.64424133300781 74.12065124511719 93.1607666015625 78.01416015625 C 91.89653778076172 59.50206756591797 100.30850219726562 63.114139556884766 90.09771728515625 76.02757263183594 C 87.3867416381836 75.64262390136719 91.06580352783203 79.78825378417969 95.1541519165039 74.41948699951172" stroke-width="0.0" fill="rgb(24, 27, 34)" opacity="0.8765108" stroke="rgb(79, 177, 96)" stroke-opacity="0.17960368" stroke-linecap="round" stroke-linejoin="round"/>
    <path d="M 99.7119369506836 99.65461730957031 C 102.58612823486328 95.11319732666016 85.34233093261719 97.3693618774414 99.2823257446289 98.07355499267578 C 100.15349578857422 109.41022491455078 100.70714569091797 111.1355209350586 101.21898651123047 103.97736358642578 C 94.74897766113281 74.80351257324219 96.57121276855469 98.02291870117188 101.22173309326172 100.5328369140625 C 96.60362243652344 105.72769927978516 104.6757583618164 104.96729278564453 99.7119369506836 99.65461730957031" stroke-width="0.0" fill="rgb(81, 83, 86)" opacity="0.9990188" stroke="rgb(6, 17, 173)" stroke-opacity="0.45369685" stroke-linecap="round" stroke-linejoin="round"/>
    <path d="M 83.50357818603516 38.91985321044922 C 96.8169937133789 28.514902114868164 92.2020034790039 27.504756927490234 90.7156982421875 32.01835250854492 C 90.62738037109375 36.226402282714844 92.49794006347656 31.97001838684082 91.94900512695312 36.47270584106445 C 93.50446319580078 38.76788330078125 94.47821044921875 27.17485237121582 89.10545349121094 30.719371795654297 C 87.85560607910156 27.3590087890625 97.25127410888672 26.725723266601562 83.50357818603516 38.91985321044922" stroke-width="0.0" fill="rgb(12, 11, 14)" opacity="0.75436527" stroke="rgb(136, 228, 252)" stroke-opacity="0.21689698" stroke-linecap="round" stroke-linejoin="round"/>
    <path d="M 85.40806579589844 65.38200378417969 C 87.41751098632812 71.18463134765625 89.1619644165039 71.41156005859375 92.62998962402344 73.25540161132812 C 93.85492706298828 68.02751159667969 85.39803314208984 81.9619140625 87.15787506103516 73.94886016845703 C 87.8961410522461 60.548187255859375 83.7497787475586 71.36627960205078 88.76199340820312 67.37349700927734 C 88.4424057006836 69.63903045654297 86.5690689086914 71.24349212646484 85.40806579589844 65.38200378417969" stroke-width="0.0" fill="rgb(25, 33, 44)" opacity="0.7371378" stroke="rgb(169, 67, 5)" stroke-opacity="0.7583786" stroke-linecap="round" stroke-linejoin="round"/>
    <path d="M 92.25715637207031 47.145469665527344 C 84.72206115722656 28.562442779541016 90.6384048461914 58.659420013427734 93.38385009765625 42.739078521728516 C 91.2630386352539 35.670650482177734 85.46405029296875 39.36407470703125 93.25443267822266 24.58833122253418 C 80.11202239990234 40.41470718383789 84.69355010986328 26.668771743774414 93.78079986572266 29.050657272338867 C 80.03993225097656 35.20351791381836 91.50145721435547 29.19175148010254 92.25715637207031 47.145469665527344" stroke-width="0.0" fill="rgb(248, 255, 255)" opacity="0.54131615" stroke="rgb(81, 97, 150)" stroke-opacity="0.8310484" stroke-linecap="round" stroke-linejoin="round"/>
    <path d="M 91.30730438232422 67.09159088134766 C 94.23120880126953 59.677711486816406 96.02839660644531 61.626487731933594 84.62847900390625 61.03103256225586 C 86.14340209960938 64.75909423828125 82.95359802246094 70.56352233886719 83.73342895507812 54.67253112792969 C 82.88786315917969 51.33832931518555 82.2789535522461 62.29143142700195 84.69863891601562 63.0056037902832 C 95.26094055175781 54.54520797729492 90.71031188964844 44.48218536376953 91.30730438232422 67.09159088134766" stroke-width="0.0" fill="rgb(20, 24, 28)" opacity="0.71979856" stroke="rgb(160, 222, 69)" stroke-opacity="0.7980468" stroke-linecap="round" stroke-linejoin="round"/>
    <path d="M 90.38841247558594 76.62394714355469 C 93.06365966796875 88.15082550048828 99.09192657470703 63.293678283691406 94.44735717773438 83.41980743408203 C 86.26239013671875 75.88536071777344 91.18083953857422 61.06064987182617 81.19246673583984 73.91548919677734 C 94.26898193359375 63.403526306152344 85.15198516845703 71.28607940673828 87.52287292480469 74.86783599853516 C 94.00382232666016 67.15980529785156 84.80901336669922 69.28872680664062 90.38841247558594 76.62394714355469" stroke-width="0.0" fill="rgb(40, 42, 45)" opacity="0.977234" stroke="rgb(47, 242, 175)" stroke-opacity="0.21550767" stroke-linecap="round" stroke-linejoin="round"/>
    <path d="M 89.3646240234375 75.872314453125 C 82.46760559082031 71.38661193847656 94.50167083740234 70.14080047607422 87.04911804199219 72.26827239990234 C 90.13821411132812 70.57634735107422 89.07386016845703 64.09232330322266 87.86520385742188 68.62904357910156 C 93.58830261230469 68.90776824951172 91.26921844482422 61.874908447265625 86.24459075927734 74.4869155883789 C 91.30917358398438 72.25704193115234 83.4760513305664 76.61402893066406 89.3646240234375 75.872314453125" stroke-width="0.0" fill="rgb(11, 8, 8)" opacity="0.8095852" stroke="rgb(241, 186, 64)" stroke-opacity="0.21331197" stroke-linecap="round" stroke-linejoin="round"/>
    <path d="M 91.80680847167969 78.9492416381836 C 83.3243179321289 80.4747543334961 94.15867614746094 81.87166595458984 96.14094543457031 78.64047241210938 C 88.34010314941406 79.85358428955078 94.509521484375 75.22512817382812 93.98278045654297 80.45970153808594 C 93.66407775878906 84.86336517333984 100.3101577758789 82.4218978881836 91.7505874633789 81.98728942871094 C 97.61903381347656 77.68513488769531 94.46273040771484 88.56387329101562 91.80680847167969 78.9492416381836" stroke-width="0.0" fill="rgb(249, 252, 255)" opacity="1.0" stroke="rgb(132, 6, 52)" stroke-opacity="0.42468548" stroke-linecap="round" stroke-linejoin="round"/>
    <path d="M 74.0030746459961 106.8077392578125 C 72.96701049804688 103.74411010742188 82.23728942871094 103.9555435180664 77.47010040283203 101.41970825195312 C 78.39425659179688 112.42594909667969 76.85430908203125 109.60346221923828 76.68729400634766 101.78069305419922 C 77.23542022705078 104.71466827392578 78.75163269042969 103.41581726074219 74.15367126464844 105.14315032958984 C 77.07208251953125 112.31034851074219 75.71790313720703 113.72314453125 74.0030746459961 106.8077392578125" stroke-width="0.0" fill="rgb(62, 71, 76)" opacity="0.67932665" stroke="rgb(95, 118, 70)" stroke-opacity="0.58678436" stroke-linecap="round" stroke-linejoin="round"/>
    <path d="M 88.39204406738281 90.1317138671875 C 93.35148620605469 92.94581604003906 87.7914047241211 85.22200012207031 91.4072265625 86.06957244873047 C 83.61744689941406 106.96337890625 85.94274139404297 91.99264526367188 91.20834350585938 98.91100311279297 C 88.40412902832031 100.50953674316406 95.17308807373047 104.88392639160156 90.2793197631836 92.6976318359375 C 86.3576889038086 109.16864013671875 88.27218627929688 84.49650573730469 88.39204406738281 90.1317138671875" stroke-width="0.0" fill="rgb(6, 4, 16)" opacity="0.61526185" stroke="rgb(220, 29, 131)" stroke-opacity="0.13206811" stroke-linecap="round" stroke-linejoin="round"/>
    <path d="M 88.79003143310547 93.64729309082031 C 79.01775360107422 92.63703155517578 79.96466827392578 105.6029281616211 85.07478332519531 98.84957122802734 C 84.0982437133789 93.95536804199219 86.18016815185547 90.51444244384766 85.47303009033203 92.86209106445312 C 73.81183624267578 85.7323989868164 89.14842224121094 86.87823486328125 80.28480529785156 96.27890014648438 C 82.98445129394531 88.7839126586914 76.99067687988281 90.2483139038086 88.79003143310547 93.64729309082031" stroke-width="0.0" fill="rgb(239, 244, 248)" opacity="0.96930104" stroke="rgb(182, 100, 144)" stroke-opacity="0.18327984" stroke-linecap="round" stroke-linejoin="round"/>
    <path d="M 106.299072265625 114.03911590576172 C 99.6480941772461 123.97657012939453 97.47919464111328 118.45374298095703 93.1272964477539 120.6426773071289 C 97.7305908203125 119.70575714111328 93.80831146240234 120.89372253417969 98.24917602539062 118.79134368896484 C 97.76212310791016 117.42688751220703 95.22447967529297 117.15223693847656 102.69617462158203 120.99746704101562 C 97.66634368896484 119.10771942138672 107.26995086669922 119.27291870117188 106.299072265625 114.03911590576172" stroke-width="0.0" fill="rgb(127, 134, 143)" opacity="0.7288606" stroke="rgb(36, 124, 90)" stroke-opacity="0.94043195" stroke-linecap="round" stroke-linejoin="round"/>
    <path d="M 78.06852722167969 99.37528991699219 C 79.9467544555664 98.61990356445312 78.3194580078125 103.08745574951172 87.79886627197266 107.78624725341797 C 73.76193237304688 99.51583099365234 84.62871551513672 108.01407623291016 75.18804931640625 118.10797119140625 C 80.78376007080078 89.58290100097656 87.92292785644531 104.49323272705078 79.99469757080078 93.94422912597656 C 85.46720123291016 106.69618225097656 89.16783142089844 95.95572662353516 78.06852722167969 99.37528991699219" stroke-width="0.0" fill="rgb(15, 18, 22)" opacity="0.7697395" stroke="rgb(195, 190, 230)" stroke-opacity="0.08342244" stroke-linecap="round" stroke-linejoin="round"/>
    <path d="M 87.91989135742188 82.15117645263672 C 82.70674133300781 92.32694244384766 92.74718475341797 79.62024688720703 83.76033020019531 86.7700424194336 C 80.55269622802734 89.70991516113281 91.24419403076172 65.8274917602539 82.18939208984375 83.34983825683594 C 79.086181640625 86.8896713256836 82.26191711425781 84.17382049560547 82.27871704101562 83.42982482910156 C 80.55912017822266 84.10568237304688 78.78557586669922 83.52001190185547 87.91989135742188 82.15117645263672" stroke-width="0.0" fill="rgb(38, 39, 40)" opacity="0.82114065" stroke="rgb(140, 149, 245)" stroke-opacity="0.29214752" stroke-linecap="round" stroke-linejoin="round"/>
    <path d="M 83.352294921875 53.805599212646484 C 88.85091400146484 60.812767028808594 83.2760238647461 51.116146087646484 87.11900329589844 50.72466278076172 C 87.20191192626953 49.53956604003906 86.7389907836914 50.55459976196289 90.09000396728516 50.628665924072266 C 87.70748901367188 50.222007751464844 90.75582885742188 51.19142532348633 90.75668334960938 49.30620193481445 C 81.92384338378906 52.04330825805664 89.0271224975586 57.37465286254883 83.352294921875 53.805599212646484" stroke-width="0.0" fill="rgb(56, 49, 58)" opacity="0.80759984" stroke="rgb(61, 25, 4)" stroke-opacity="0.9295293" stroke-linecap="round" stroke-linejoin="round"/>
    <path d="M 92.25452423095703 69.25416564941406 C 94.11225891113281 67.21472930908203 95.96137237548828 77.56196594238281 93.69099426269531 70.59153747558594 C 97.09798431396484 76.87594604492188 92.35135650634766 77.63317108154297 93.8599624633789 65.10609436035156 C 92.37527465820312 68.18132781982422 95.29930877685547 63.180816650390625 90.91483306884766 63.0896110534668 C 93.53681945800781 67.5921859741211 93.40938568115234 61.22013473510742 92.25452423095703 69.25416564941406" stroke-width="0.0" fill="rgb(218, 218, 252)" opacity="0.44057274" stroke="rgb(170, 200, 71)" stroke-opacity="0.58641016" stroke-linecap="round" stroke-linejoin="round"/>
    <path d="M 75.82705688476562 104.40263366699219 C 82.96302795410156 102.2453384399414 68.26151275634766 113.85114288330078 78.81352233886719 107.63223266601562 C 78.65957641601562 115.5719985961914 80.47577667236328 111.61576080322266 76.8628158569336 113.78125 C 82.00389862060547 109.62946319580078 86.55662536621094 105.12353515625 79.63882446289062 111.43260955810547 C 87.72706604003906 92.09855651855469 79.76593780517578 105.98516082763672 75.82705688476562 104.40263366699219" stroke-width="0.0" fill="rgb(26, 42, 44)" opacity="0.50732094" stroke="rgb(16, 123, 249)" stroke-opacity="0.87650526" stroke-linecap="round" stroke-linejoin="round"/>
    <path d="M 82.54740142822266 71.07811737060547 C 86.71755981445312 71.61505889892578 81.67754364013672 73.3239974975586 92.45357513427734 70.425048828125 C 82.33736419677734 73.94835662841797 83.4566650390625 64.755859375 82.94821166992188 73.11990356445312 C 87.92638397216797 71.1015396118164 88.1830825805664 68.3023452758789 86.35920715332031 73.30960083007812 C 79.02447509765625 68.29048156738281 93.39999389648438 77.86764526367188 82.54740142822266 71.07811737060547" stroke-width="0.0" fill="rgb(220, 232, 247)" opacity="0.6914534" stroke="rgb(86, 245, 59)" stroke-opacity="0.9493188" stroke-linecap="round" stroke-linejoin="round"/>
    <path d="M 89.33484649658203 69.81810760498047 C 86.78833770751953 69.86051940917969 97.8106918334961 76.06692504882812 94.71875762939453 67.6959228515625 C 91.74654388427734 69.87357330322266 94.7220230102539 70.29765319824219 92.38788604736328 72.84765625 C 89.66917419433594 65.82417297363281 99.14087677001953 70.38694763183594 88.70285034179688 71.63219451904297 C 89.21922302246094 74.117919921875 87.55032348632812 74.13532257080078 89.33484649658203 69.81810760498047" stroke-width="0.0" fill="rgb(61, 68, 75)" opacity="0.7003109" stroke="rgb(240, 203, 160)" stroke-opacity="0.87428796" stroke-linecap="round" stroke-linejoin="round"/>
    <path d="M 91.85140228271484 104.58740997314453 C 92.95803833007812 102.92478942871094 92.59825897216797 101.51171875 91.21451568603516 103.85293579101562 C 94.77571868896484 99.04312896728516 91.72216033935547 86.8099365234375 90.708740234375 102.90265655517578 C 84.75411987304688 87.08154296875 88.06817626953125 97.5631332397461 86.4423828125 96.64395904541016 C 91.07633209228516 100.94286346435547 88.81547546386719 99.53762817382812 91.85140228271484 104.58740997314453" stroke-width="0.0" fill="rgb(0, 6, 6)" opacity="0.44387445" stroke="rgb(74, 216, 157)" stroke-opacity="0.013236858" stroke-linecap="round" stroke-linejoin="round"/>
    <path d="M 84.10551452636719 114.03582763671875 C 81.84756469726562 110.63398742675781 84.9597396850586 108.28777313232422 85.2857666015625 114.53946685791016 C 79.75267791748047 107.4671630859375 79.75485229492188 110.15303802490234 76.95700073242188 108.89614868164062 C 81.01394653320312 112.31619262695312 83.4705810546875 117.63765716552734 83.80854034423828 116.91604614257812 C 77.58475494384766 108.72047424316406 85.86821746826172 111.80811309814453 84.10551452636719 114.03582763671875" stroke-width="0.0" fill="rgb(215, 216, 221)" opacity="0.78248966" stroke="rgb(88, 37, 250)" stroke-opacity="0.4783703" stroke-linecap="round" stroke-linejoin="round"/>
    <path d="M 91.43818664550781 26.223318099975586 C 88.17591857910156 23.503293991088867 88.1127700805664 21.993907928466797 85.20634460449219 21.92927360534668 C 92.57628631591797 30.71274185180664 80.44908142089844 21.845895767211914 89.68605041503906 28.40795135498047 C 95.56771087646484 22.270748138427734 86.94361114501953 23.427186965942383 87.20870971679688 25.78169059753418 C 87.66548919677734 26.128034591674805 84.73324584960938 22.928422927856445 91.43818664550781 26.223318099975586" stroke-width="0.0" fill="rgb(4, 0, 13)" opacity="0.9280991" stroke="rgb(126, 163, 93)" stroke-opacity="0.13690028" stroke-linecap="round" stroke-linejoin="round"/>
    <path d="M 91.80762481689453 71.6790771484375 C 88.29593658447266 74.16545104980469 91.69091796875 70.20539093017578 87.31908416748047 72.68244171142578 C 90.35552215576172 74.83984375 91.05531311035156 69.58716583251953 92.24171447753906 73.07861328125 C 89.92510986328125 64.11774444580078 87.53348541259766 65.59033203125 95.32574462890625 64.06156158447266 C 87.50927734375 66.70574188232422 90.64806365966797 66.25081634521484 91.80762481689453 71.6790771484375" stroke-width="0.0" fill="rgb(140, 141, 148)" opacity="0.78769803" stroke="rgb(209, 48, 130)" stroke-opacity="0.22431703" stroke-linecap="round" stroke-linejoin="round"/>
    <path d="M 90.49256896972656 109.32213592529297 C 92.4347152709961 93.62367248535156 95.68878173828125 103.42782592773438 88.44367218017578 94.14646911621094 C 91.05651092529297 101.55135345458984 91.87374877929688 91.082275390625 89.78690338134766 87.75493621826172 C 96.2071533203125 101.52123260498047 99.01283264160156 87.09686279296875 89.62078094482422 91.97635650634766 C 94.53253173828125 99.2784652709961 89.83003997802734 104.75702667236328 90.49256896972656 109.32213592529297" stroke-width="0.0" fill="rgb(89, 83, 91)" opacity="0.7346472" stroke="rgb(24, 219, 248)" stroke-opacity="0.9608347" stroke-linecap="round" stroke-linejoin="round"/>
    <path d="M 89.3467025756836 55.408939361572266 C 90.94389343261719 61.5530891418457 94.6259536743164 54.56146240234375 90.24024200439453 55.63530349731445 C 100.00178527832031 53.87934494018555 88.60465240478516 63.51511764526367 92.77198028564453 59.325904846191406 C 90.69258880615234 62.42418670654297 92.25359344482422 64.93755340576172 91.43004608154297 52.20462417602539 C 98.63600158691406 60.93320083618164 89.6207504272461 62.18535232543945 89.3467025756836 55.408939361572266" stroke-width="0.0" fill="rgb(245, 247, 255)" opacity="0.69902253" stroke="rgb(231, 197, 84)" stroke-opacity="0.08110139" stroke-linecap="round" stroke-linejoin="round"/>
    <path d="M 90.97179412841797 90.09489440917969 C 94.78728485107422 86.5990219116211 97.03350067138672 85.57502746582031 91.61048889160156 88.00067901611328 C 93.06092071533203 82.08356475830078 95.47517395019531 86.65345764160156 102.59619903564453 90.9971694946289 C 97.11212158203125 86.81230926513672 93.98880767822266 81.75035858154297 89.87061309814453 89.9928207397461 C 93.85868835449219 98.21155548095703 90.5193099975586 101.33895111083984 90.97179412841797 90.09489440917969" stroke-width="0.0" fill="rgb(182, 184, 187)" opacity="0.584748" stroke="rgb(103, 59, 33)" stroke-opacity="0.053427182" stroke-linecap="round" stroke-linejoin="round"/>
    <path d="M 81.02771759033203 117.45616149902344 C 87.0372085571289 111.020263671875 91.77943420410156 114.49237823486328 86.54190826416016 115.95745849609375 C 82.73948669433594 108.3403549194336 87.40584564208984 108.5613021850586 87.31929016113281 116.82001495361328 C 91.11956787109375 111.17656707763672 80.33384704589844 111.97451782226562 79.53799438476562 114.73873901367188 C 83.76866149902344 114.02976989746094 80.68009948730469 112.92345428466797 81.02771759033203 117.45616149902344" stroke-width="0.0" fill="rgb(242, 252, 255)" opacity="0.7502013" stroke="rgb(185, 2, 196)" stroke-opacity="0.14694664" stroke-linecap="round" stroke-linejoin="round"/>
    <path d="M 106.34986877441406 120.06881713867188 C 99.7983169555664 116.35871124267578 100.33003997802734 122.94215393066406 101.57222747802734 121.96881103515625 C 108.61553192138672 123.02645111083984 98.27767944335938 116.7603759765625 95.24736022949219 122.47267150878906 C 98.52569580078125 118.73677825927734 99.36790466308594 122.01038360595703 100.29763793945312 118.36628723144531 C 101.39179229736328 119.2009048461914 95.79295349121094 120.34601593017578 106.34986877441406 120.06881713867188" stroke-width="0.0" fill="rgb(228, 229, 242)" opacity="1.0" stroke="rgb(20, 22, 171)" stroke-opacity="0.24536721" stroke-linecap="round" stroke-linejoin="round"/>
    <path d="M 97.95042419433594 86.17552947998047 C 101.32964324951172 94.36998748779297 104.88030242919922 105.67577362060547 105.2212142944336 101.86729431152344 C 105.62619018554688 101.2734603881836 102.33734893798828 109.38665771484375 102.74267578125 97.65385437011719 C 105.00919342041016 105.34095001220703 109.17288970947266 102.63481140136719 100.34542083740234 102.10556030273438 C 102.6688003540039 98.28448486328125 105.00285339355469 103.19255065917969 97.95042419433594 86.17552947998047" stroke-width="0.0" fill="rgb(101, 105, 104)" opacity="0.8209952" stroke="rgb(107, 142, 219)" stroke-opacity="0.7270443" stroke-linecap="round" stroke-linejoin="round"/>
    <path d="M 88.86812591552734 77.77057647705078 C 90.35664367675781 79.99590301513672 84.03475189208984 72.38277435302734 88.77875518798828 81.7749252319336 C 90.52325439453125 83.29896545410156 90.00214385986328 73.26238250732422 97.01795959472656 84.12323760986328 C 98.14373016357422 83.30537414550781 96.67607879638672 83.20106506347656 97.72929382324219 82.61090087890625 C 90.10289001464844 77.7206802368164 90.96745300292969 79.1956787109375 88.86812591552734 77.77057647705078" stroke-width="0.0" fill="rgb(101, 105, 114)" opacity="0.4413669" stroke="rgb(68, 33, 14)" stroke-opacity="0.30159864" stroke-linecap="round" stroke-linejoin="round"/>
    <path d="M 92.94352722167969 101.74758911132812 C 96.00247192382812 94.69275665283203 85.80635070800781 94.97480773925781 89.2425308227539 97.44112396240234 C 82.27998352050781 99.13094329833984 86.82604217529297 106.53909301757812 78.21576690673828 93.6756591796875 C 84.14217376708984 98.88471221923828 83.22169494628906 105.02131652832031 92.14315795898438 94.39875793457031 C 89.62812805175781 94.86685180664062 94.84710693359375 95.24539184570312 92.94352722167969 101.74758911132812" stroke-width="0.0" fill="rgb(176, 180, 187)" opacity="0.74307823" stroke="rgb(66, 116, 174)" stroke-opacity="0.6956254" stroke-linecap="round" stroke-linejoin="round"/>
    <path d="M 92.62322235107422 108.37881469726562 C 94.39706420898438 106.82975769042969 92.0715560913086 99.66828155517578 102.99462890625 106.3474349975586 C 94.85722351074219 101.25055694580078 95.73041534423828 98.89461517333984 96.26129150390625 109.20335388183594 C 98.30621337890625 93.09186553955078 96.24195861816406 104.21158599853516 92.08895111083984 104.57398223876953 C 91.6832046508789 98.74698638916016 99.04702758789062 110.92373657226562 92.62322235107422 108.37881469726562" stroke-width="0.0" fill="rgb(62, 70, 68)" opacity="0.754238" stroke="rgb(72, 96, 46)" stroke-opacity="0.7885455" stroke-linecap="round" stroke-linejoin="round"/>
    <path d="M 88.62161254882812 51.48937225341797 C 90.64542388916016 52.28301239013672 89.42159271240234 56.923912048339844 92.57394409179688 52.50785827636719 C 87.51254272460938 55.31270217895508 96.68702697753906 58.510066986083984 91.02996826171875 53.20170974731445 C 84.87289428710938 51.26841735839844 93.67444610595703 53.065818786621094 81.80943298339844 51.59666061401367 C 87.79802703857422 52.86251449584961 91.80021667480469 53.52791213989258 88.62161254882812 51.48937225341797" stroke-width="0.0" fill="rgb(76, 73, 76)" opacity="0.7598734" stroke="rgb(14, 177, 198)" stroke-opacity="0.7774076" stroke-linecap="round" stroke-linejoin="round"/>
    <path d="M 83.85209655761719 80.65884399414062 C 80.61486053466797 74.7247543334961 83.52818298339844 80.5617904663086 82.9465560913086 85.24948120117188 C 90.3396987915039 77.82294464111328 88.24386596679688 84.72831726074219 86.83880615234375 82.04195404052734 C 86.07331848144531 94.91226196289062 79.38391876220703 79.34439086914062 82.7795181274414 81.1637954711914 C 87.2730484008789 78.82933044433594 83.58387756347656 86.720458984375 83.85209655761719 80.65884399414062" stroke-width="0.0" fill="rgb(203, 212, 218)" opacity="0.71309066" stroke="rgb(66, 95, 149)" stroke-opacity="0.2728219" stroke-linecap="round" stroke-linejoin="round"/>
    <path d="M 103.1341781616211 105.62427520751953 C 104.15008544921875 102.44453430175781 103.42962646484375 105.38190460205078 101.93408203125 103.5754623413086 C 104.70209503173828 106.88006591796875 103.55016326904297 106.13671112060547 103.0268783569336 111.52239227294922 C 99.59841918945312 107.5345458984375 106.67096710205078 111.50701904296875 102.76465606689453 106.87428283691406 C 103.02928161621094 108.65746307373047 103.75873565673828 103.19203186035156 103.1341781616211 105.62427520751953" stroke-width="0.0" fill="rgb(211, 216, 219)" opacity="0.824305" stroke="rgb(94, 50, 117)" stroke-opacity="0.0446123" stroke-linecap="round" stroke-linejoin="round"/>
    <path d="M 84.45785522460938 22.725120544433594 C 83.61016845703125 26.99032211303711 90.03173065185547 22.538320541381836 95.06658935546875 27.757719039916992 C 92.26316833496094 28.536666870117188 88.64295959472656 21.783191680908203 92.56388092041016 21.248565673828125 C 81.20428466796875 25.279878616333008 85.19407653808594 18.416318893432617 86.02445983886719 26.652061462402344 C 87.786376953125 24.936208724975586 87.15562438964844 22.668601989746094 84.45785522460938 22.725120544433594" stroke-width="0.0" fill="rgb(201, 193, 201)" opacity="0.7050551" stroke="rgb(203, 19, 132)" stroke-opacity="0.3068101" stroke-linecap="round" stroke-linejoin="round"/>
    <path d="M 82.09413146972656 26.735544204711914 C 94.76728820800781 24.5770320892334 99.89900970458984 20.263809204101562 87.74773406982422 18.012908935546875 C 98.97977447509766 21.26715850830078 96.5821762084961 22.42102813720703 99.01734924316406 28.86773109436035 C 92.3044662475586 35.77116012573242 91.43002319335938 21.35234260559082 90.96131896972656 20.84779167175293 C 97.70419311523438 24.622451782226562 103.51592254638672 26.092571258544922 82.09413146972656 26.735544204711914" stroke-width="0.0" fill="rgb(127, 129, 128)" opacity="0.38618213" stroke="rgb(147, 244, 164)" stroke-opacity="0.035362437" stroke-linecap="round" stroke-linejoin="round"/>
    <path d="M 91.87899780273438 71.43851470947266 C 99.13813018798828 68.08091735839844 92.23020935058594 71.32666015625 95.02783966064453 69.15126037597656 C 98.40023040771484 69.77625274658203 88.10421752929688 69.2423095703125 95.70782470703125 70.4501953125 C 85.2315673828125 73.61610412597656 87.00840759277344 63.93864440917969 84.8828125 68.00879669189453 C 88.93441772460938 68.62694549560547 80.98993682861328 69.71680450439453 91.87899780273438 71.43851470947266" stroke-width="0.0" fill="rgb(174, 192, 190)" opacity="0.5571017" stroke="rgb(109, 130, 136)" stroke-opacity="0.6813925" stroke-linecap="round" stroke-linejoin="round"/>
    <path d="M 83.32162475585938 90.80585479736328 C 79.88870239257812 92.07695007324219 85.33374786376953 93.05277252197266 78.12992095947266 91.71420288085938 C 80.98078155517578 92.64199829101562 80.08551788330078 91.41863250732422 78.61268615722656 91.23696899414062 C 82.87168884277344 92.18893432617188 77.66226959228516 96.86956024169922 79.58101654052734 95.10225677490234 C 73.98750305175781 96.57808685302734 82.34693908691406 96.08796691894531 83.32162475585938 90.80585479736328" stroke-width="0.0" fill="rgb(79, 82, 79)" opacity="0.9421465" stroke="rgb(70, 32, 100)" stroke-opacity="0.9564057" stroke-linecap="round" stroke-linejoin="round"/>
    <path d="M 95.21155548095703 122.72370910644531 C 104.40672302246094 118.46430206298828 97.70829772949219 118.71868133544922 106.966552734375 121.2354507446289 C 104.85338592529297 121.24165344238281 107.93050384521484 115.38594818115234 103.25888061523438 122.62632751464844 C 103.41316223144531 123.89240264892578 96.74144744873047 135.56076049804688 105.23107147216797 121.72116088867188 C 103.29327392578125 124.14251708984375 108.63356018066406 118.02108001708984 95.21155548095703 122.72370910644531" stroke-width="0.0" fill="rgb(36, 37, 49)" opacity="0.8982859" stroke="rgb(47, 230, 138)" stroke-opacity="0.4569114" stroke-linecap="round" stroke-linejoin="round"/>
    <path d="M 92.30730438232422 27.699914932250977 C 99.68988800048828 27.257631301879883 94.2935562133789 26.575647354125977 90.06848907470703 21.76772689819336 C 88.87837982177734 29.195087432861328 91.53553771972656 31.88592529296875 97.2211685180664 21.33469581604004 C 92.06226348876953 26.749603271484375 85.2315444946289 19.96774673461914 79.4725112915039 33.90262985229492 C 83.6350326538086 25.596839904785156 87.9161148071289 26.430110931396484 92.30730438232422 27.699914932250977" stroke-width="0.0" fill="rgb(125, 127, 132)" opacity="0.38838607" stroke="rgb(224, 116, 184)" stroke-opacity="0.39902532" stroke-linecap="round" stroke-linejoin="round"/>
    <path d="M 97.86225128173828 22.976205825805664 C 99.74440002441406 13.216429710388184 99.54141998291016 17.638778686523438 95.7822494506836 24.35724449157715 C 97.51393127441406 25.029253005981445 104.58755493164062 24.143037796020508 101.07567596435547 21.348094940185547 C 91.49356842041016 30.099533081054688 81.88223266601562 23.61937141418457 80.62974548339844 25.573535919189453 C 85.7694091796875 29.495946884155273 86.76903533935547 21.090682983398438 97.86225128173828 22.976205825805664" stroke-width="0.0" fill="rgb(125, 130, 130)" opacity="0.4921395" stroke="rgb(230, 175, 178)" stroke-opacity="0.3277204" stroke-linecap="round" stroke-linejoin="round"/>
    <path d="M 89.31143951416016 85.91426086425781 C 93.63925170898438 79.96036529541016 88.43340301513672 82.8463363647461 89.50569915771484 83.82865905761719 C 93.449951171875 84.9840087890625 89.96575927734375 84.43209838867188 88.44131469726562 80.79483795166016 C 89.01580810546875 85.66513061523438 92.94288635253906 83.4169921875 91.44042205810547 83.4697036743164 C 97.84101104736328 82.07320404052734 98.24749755859375 78.73213958740234 89.31143951416016 85.91426086425781" stroke-width="0.0" fill="rgb(211, 212, 227)" opacity="0.8168022" stroke="rgb(192, 162, 61)" stroke-opacity="0.16053882" stroke-linecap="round" stroke-linejoin="round"/>
    <path d="M 98.85038757324219 99.63998413085938 C 109.47959899902344 104.76853942871094 102.94351959228516 102.48819732666016 98.04716491699219 99.51651763916016 C 97.81536865234375 108.75936126708984 100.00823974609375 111.43360137939453 88.65604400634766 101.41670989990234 C 86.30915832519531 87.55934143066406 80.5431900024414 99.0354995727539 96.40911865234375 108.1092758178711 C 99.61823272705078 97.42585754394531 101.69046783447266 96.59812927246094 98.85038757324219 99.63998413085938" stroke-width="0.0" fill="rgb(199, 206, 215)" opacity="0.5965698" stroke="rgb(203, 244, 116)" stroke-opacity="0.59098417" stroke-linecap="round" stroke-linejoin="round"/>
    <path d="M 78.41777038574219 102.61959838867188 C 80.23110961914062 112.75066375732422 75.00860595703125 111.6020736694336 84.3298110961914 103.56324005126953 C 79.50016784667969 111.89586639404297 86.6166000366211 108.54469299316406 78.1574478149414 102.9854965209961 C 77.33609771728516 111.3935775756836 81.85211944580078 110.40332794189453 79.09796905517578 101.61124420166016 C 85.06033325195312 101.8404769897461 78.78778839111328 104.17761993408203 78.41777038574219 102.61959838867188" stroke-width="0.0" fill="rgb(254, 254, 255)" opacity="0.8701513" stroke="rgb(218, 116, 242)" stroke-opacity="0.5757512" stroke-linecap="round" stroke-linejoin="round"/>
    <path d="M 91.51777648925781 -2.5784246921539307 C 89.5252685546875 -2.204350709915161 88.04603576660156 -0.365276575088501 92.3061294555664 -0.8691633343696594 C 96.81640625 -1.8938928842544556 94.32242584228516 -4.611821174621582 91.87813568115234 -8.051908493041992 C 89.32720184326172 2.584550380706787 88.44149017333984 1.7143568992614746 86.67841339111328 -8.161616325378418 C 93.74459075927734 -4.012187957763672 93.76899719238281 -2.8310043811798096 91.51777648925781 -2.5784246921539307" stroke-width="0.0" fill="rgb(123, 125, 123)" opacity="0.89333194" stroke="rgb(209, 231, 207)" stroke-opacity="0.15941447" stroke-linecap="round" stroke-linejoin="round"/>
    <path d="M 85.59386444091797 28.15492057800293 C 84.48531341552734 24.748998641967773 86.46956634521484 29.44075584411621 88.64544677734375 26.03852081298828 C 92.54572296142578 22.505319595336914 92.20050811767578 23.80893898010254 90.54718780517578 26.03443145751953 C 88.38504791259766 24.190038681030273 82.81661987304688 13.942956924438477 89.33935546875 16.066783905029297 C 82.12757873535156 23.52021026611328 92.83268737792969 31.610864639282227 85.59386444091797 28.15492057800293" stroke-width="0.0" fill="rgb(14, 31, 44)" opacity="0.4630725" stroke="rgb(160, 101, 15)" stroke-opacity="0.42403224" stroke-linecap="round" stroke-linejoin="round"/>
    <path d="M 87.20536041259766 4.237693786621094 C 87.9721450805664 0.15448933839797974 85.83502197265625 4.683900833129883 86.56207275390625 3.18269944190979 C 88.13736724853516 2.804724931716919 85.45481872558594 3.4518797397613525 87.33255767822266 2.570211410522461 C 87.82955932617188 4.765507221221924 85.25282287597656 7.2728071212768555 87.02869415283203 2.687512159347534 C 85.6136703491211 6.561963081359863 86.86907196044922 5.127936840057373 87.20536041259766 4.237693786621094" stroke-width="0.0" fill="rgb(139, 147, 157)" opacity="0.83844846" stroke="rgb(65, 216, 8)" stroke-opacity="0.9589827" stroke-linecap="round" stroke-linejoin="round"/>
    <path d="M 99.23454284667969 18.948017120361328 C 96.1192398071289 22.878204345703125 93.79586791992188 27.690765380859375 100.86707305908203 30.198516845703125 C 99.19656372070312 14.006609916687012 93.70953369140625 9.910902976989746 79.62480163574219 12.875750541687012 C 93.24748229980469 23.251367568969727 97.22689819335938 27.931669235229492 98.07099151611328 22.75479507446289 C 95.32012939453125 11.25422191619873 97.87142944335938 13.996259689331055 99.23454284667969 18.948017120361328" stroke-width="0.0" fill="rgb(143, 139, 132)" opacity="0.0" stroke="rgb(90, 90, 4)" stroke-opacity="0.18523233" stroke-linecap="round" stroke-linejoin="round"/>
    <path d="M 81.69786834716797 110.92256927490234 C 87.7123031616211 119.87215423583984 87.06458282470703 115.63493347167969 78.11837768554688 103.94577026367188 C 86.59264373779297 114.46420288085938 74.3433837890625 99.16766357421875 78.71539306640625 109.27384185791016 C 76.32937622070312 115.88560485839844 80.82894897460938 108.68185424804688 82.59368896484375 109.38170623779297 C 87.62678527832031 100.74468994140625 85.90167999267578 106.74356079101562 81.69786834716797 110.92256927490234" stroke-width="0.0" fill="rgb(99, 109, 109)" opacity="0.69867605" stroke="rgb(102, 236, 25)" stroke-opacity="0.94530153" stroke-linecap="round" stroke-linejoin="round"/>
    <path d="M 86.53504180908203 116.44715881347656 C 88.42125701904297 107.04679870605469 74.54598999023438 115.53428649902344 75.96439361572266 116.80342864990234 C 83.23081970214844 115.42930603027344 77.53060150146484 113.79441833496094 79.42774963378906 110.99083709716797 C 82.04045867919922 111.86569213867188 74.14826202392578 108.34412384033203 85.20318603515625 109.57626342773438 C 81.24339294433594 108.03388977050781 86.38780212402344 110.47517395019531 86.53504180908203 116.44715881347656" stroke-width="0.0" fill="rgb(236, 244, 255)" opacity="0.79216594" stroke="rgb(221, 115, 83)" stroke-opacity="0.23274413" stroke-linecap="round" stroke-linejoin="round"/>
    <path d="M 81.13056945800781 105.83448791503906 C 86.64519500732422 101.6921157836914 79.09229278564453 108.88589477539062 78.37718200683594 102.6824951171875 C 81.4317398071289 103.26658630371094 77.31731414794922 100.42208099365234 80.43167877197266 100.05719757080078 C 77.96595764160156 104.60939025878906 82.7895736694336 102.63761138916016 85.12081146240234 100.50789642333984 C 81.1259765625 105.2696304321289 75.50138854980469 100.48084259033203 81.13056945800781 105.83448791503906" stroke-width="0.0" fill="rgb(209, 211, 223)" opacity="0.6459776" stroke="rgb(156, 8, 3)" stroke-opacity="0.42879573" stroke-linecap="round" stroke-linejoin="round"/>
    <path d="M 93.57978820800781 17.856563568115234 C 97.7055435180664 17.6512393951416 91.22587585449219 25.491323471069336 99.42843627929688 27.709508895874023 C 94.14151000976562 26.083463668823242 90.97500610351562 17.66617202758789 95.13148498535156 29.152854919433594 C 88.87541198730469 22.359283447265625 89.8395767211914 20.655704498291016 91.11079406738281 24.264101028442383 C 78.86542510986328 22.93206214904785 96.92366027832031 27.982053756713867 93.57978820800781 17.856563568115234" stroke-width="0.0" fill="rgb(59, 54, 64)" opacity="0.59964687" stroke="rgb(17, 64, 56)" stroke-opacity="0.2531912" stroke-linecap="round" stroke-linejoin="round"/>
    <path d="M 93.94216918945312 20.9234619140625 C 94.51195526123047 32.175453186035156 93.0624771118164 19.093637466430664 84.47441864013672 20.62635040283203 C 83.31879425048828 29.30487823486328 84.869873046875 24.768239974975586 86.2422103881836 22.29003143310547 C 83.19554138183594 26.856380462646484 93.66328430175781 26.296968460083008 90.54551696777344 19.910564422607422 C 94.23543548583984 21.26630210876465 88.57743835449219 19.239072799682617 93.94216918945312 20.9234619140625" stroke-width="0.0" fill="rgb(254, 254, 255)" opacity="0.87181026" stroke="rgb(33, 3, 29)" stroke-opacity="0.61848027" stroke-linecap="round" stroke-linejoin="round"/>
    <path d="M 77.22103881835938 22.55071258544922 C 98.88641357421875 25.428754806518555 102.08027648925781 34.19740295410156 84.61882781982422 26.464052200317383 C 88.52455139160156 24.733055114746094 92.41287231445312 22.32581329345703 95.00556182861328 26.973031997680664 C 84.0053482055664 24.1527099609375 85.71432495117188 17.463104248046875 98.78099060058594 15.849871635437012 C 76.06222534179688 22.005586624145508 79.87193298339844 17.26761817932129 77.22103881835938 22.55071258544922" stroke-width="0.0" fill="rgb(116, 106, 119)" opacity="0.013587447" stroke="rgb(248, 252, 104)" stroke-opacity="0.16295442" stroke-linecap="round" stroke-linejoin="round"/>
    <path d="M 92.10676574707031 29.7777042388916 C 93.94477081298828 21.542404174804688 93.1571044921875 30.275169372558594 90.71977996826172 21.91019630432129 C 88.59578704833984 18.07874298095703 86.40936279296875 32.271446228027344 87.60892486572266 28.290733337402344 C 86.55476379394531 18.677597045898438 84.95886993408203 17.604965209960938 85.3172378540039 28.730756759643555 C 93.87715148925781 18.50934600830078 94.03284454345703 17.681304931640625 92.10676574707031 29.7777042388916" stroke-width="0.0" fill="rgb(43, 45, 47)" opacity="0.98007184" stroke="rgb(162, 125, 252)" stroke-opacity="0.065304205" stroke-linecap="round" stroke-linejoin="round"/>
    <path d="M 78.50347900390625 114.35659790039062 C 88.55850219726562 118.78422546386719 74.2656021118164 116.23681640625 88.34847259521484 115.764892578125 C 86.79521179199219 111.04734802246094 85.8635482788086 118.005615234375 88.94712829589844 118.01993560791016 C 85.83952331542969 114.98323822021484 78.32720947265625 104.38430786132812 82.32233428955078 114.2612075805664 C 88.48133087158203 110.33308410644531 83.03572082519531 117.856689453125 78.50347900390625 114.35659790039062" stroke-width="0.0" fill="rgb(0, 0, 13)" opacity="0.5578083" stroke="rgb(199, 73, 61)" stroke-opacity="0.66250455" stroke-linecap="round" stroke-linejoin="round"/>
    <path d="M 75.6051025390625 112.89999389648438 C 79.84397888183594 119.55125427246094 83.05918884277344 116.80584716796875 83.24629211425781 106.48517608642578 C 82.73133087158203 115.70299530029297 71.83519744873047 114.66229248046875 71.98193359375 125.5855484008789 C 75.61380004882812 113.37798309326172 76.99176788330078 113.79298400878906 79.9731216430664 111.96565246582031 C 80.91110229492188 107.47885131835938 76.2417221069336 116.26934051513672 75.6051025390625 112.89999389648438" stroke-width="0.0" fill="rgb(52, 52, 54)" opacity="0.74676" stroke="rgb(62, 169, 131)" stroke-opacity="0.42408898" stroke-linecap="round" stroke-linejoin="round"/>
    <path d="M 82.12696838378906 109.86990356445312 C 83.83802795410156 117.49348449707031 79.24195861816406 116.18647003173828 81.73490142822266 112.2408447265625 C 81.69993591308594 121.24385833740234 82.6910629272461 112.04174041748047 75.0909652709961 112.71698760986328 C 80.5088119506836 118.33844757080078 75.61553955078125 105.68392181396484 80.84308624267578 112.9017105102539 C 73.86727905273438 118.10669708251953 84.38558959960938 115.90674591064453 82.12696838378906 109.86990356445312" stroke-width="0.0" fill="rgb(176, 188, 199)" opacity="0.7294443" stroke="rgb(141, 73, 180)" stroke-opacity="0.41485688" stroke-linecap="round" stroke-linejoin="round"/>
    <path d="M 98.41399383544922 18.597484588623047 C 88.8796615600586 20.44427490234375 85.29314422607422 19.270755767822266 89.07199096679688 29.535282135009766 C 88.93119049072266 22.784244537353516 86.41780090332031 19.851085662841797 87.16722106933594 24.643815994262695 C 87.0312728881836 18.14346694946289 92.2975845336914 20.14185905456543 98.70681762695312 18.10990333557129 C 95.22329711914062 9.604023933410645 95.28714752197266 10.963714599609375 98.41399383544922 18.597484588623047" stroke-width="0.0" fill="rgb(123, 135, 134)" opacity="0.35862768" stroke="rgb(91, 211, 235)" stroke-opacity="0.04600731" stroke-linecap="round" stroke-linejoin="round"/>
    <path d="M 94.11144256591797 33.20893478393555 C 90.13997650146484 32.52600860595703 88.58057403564453 26.881383895874023 84.74568176269531 25.794851303100586 C 91.12467193603516 24.253267288208008 93.37336730957031 22.294179916381836 90.64408111572266 26.174907684326172 C 83.47966003417969 28.215654373168945 86.6415786743164 35.030250549316406 86.83726501464844 25.809127807617188 C 81.81910705566406 22.837398529052734 86.6474838256836 29.665056228637695 94.11144256591797 33.20893478393555" stroke-width="0.0" fill="rgb(119, 106, 135)" opacity="0.22448058" stroke="rgb(59, 88, 207)" stroke-opacity="0.98549145" stroke-linecap="round" stroke-linejoin="round"/>
    <path d="M 91.29645538330078 20.742942810058594 C 84.04473114013672 25.401748657226562 86.29497528076172 25.805091857910156 81.76461029052734 21.986568450927734 C 95.94468688964844 33.84346389770508 91.67059326171875 23.089731216430664 90.5458755493164 21.723861694335938 C 89.57547760009766 21.14162254333496 90.9943618774414 26.039514541625977 82.05126190185547 21.178905487060547 C 85.00971221923828 22.656604766845703 87.7147445678711 23.212844848632812 91.29645538330078 20.742942810058594" stroke-width="0.0" fill="rgb(220, 233, 234)" opacity="0.76698035" stroke="rgb(247, 230, 75)" stroke-opacity="0.99201125" stroke-linecap="round" stroke-linejoin="round"/>
    <path d="M 86.5430679321289 25.859586715698242 C 83.3876953125 18.388771057128906 82.53949737548828 21.405879974365234 84.20392608642578 23.087501525878906 C 92.47422790527344 26.737958908081055 91.69922637939453 20.94144630432129 91.37529754638672 20.865150451660156 C 75.91140747070312 21.232566833496094 82.54535675048828 18.773962020874023 90.81278991699219 23.05307388305664 C 87.05885314941406 15.889537811279297 88.68834686279297 25.489919662475586 86.5430679321289 25.859586715698242" stroke-width="0.0" fill="rgb(255, 255, 255)" opacity="0.44240582" stroke="rgb(63, 27, 242)" stroke-opacity="0.23342025" stroke-linecap="round" stroke-linejoin="round"/>
    <path d="M 87.91233825683594 18.420249938964844 C 93.69356536865234 16.916873931884766 94.41116333007812 29.578662872314453 84.77086639404297 22.111865997314453 C 82.94914245605469 19.328521728515625 85.1268539428711 30.731901168823242 83.68475341796875 23.143959045410156 C 83.06539916992188 24.766738891601562 95.86170196533203 21.893102645874023 89.44517517089844 20.913137435913086 C 90.98491668701172 19.98133087158203 92.9327163696289 18.452045440673828 87.91233825683594 18.420249938964844" stroke-width="0.0" fill="rgb(255, 255, 255)" opacity="0.5318997" stroke="rgb(175, 14, 186)" stroke-opacity="0.8817202" stroke-linecap="round" stroke-linejoin="round"/>
    <path d="M 88.8031005859375 119.93075561523438 C 102.41010284423828 125.43567657470703 94.66913604736328 109.91739654541016 102.0530776977539 112.20633697509766 C 96.18289184570312 113.31645202636719 99.58956909179688 112.5755386352539 98.0354995727539 116.34716033935547 C 95.99517059326172 121.33032989501953 96.87537384033203 116.298828125 98.22178649902344 118.1510009765625 C 91.15507507324219 117.56645202636719 99.91704559326172 121.24151611328125 88.8031005859375 119.93075561523438" stroke-width="0.0" fill="rgb(40, 46, 54)" opacity="0.85000527" stroke="rgb(69, 96, 95)" stroke-opacity="0.74878824" stroke-linecap="round" stroke-linejoin="round"/>
    <path d="M 86.68909454345703 108.2321548461914 C 85.52947998046875 110.3677978515625 86.79496002197266 112.61524200439453 80.77241516113281 114.5992660522461 C 89.60674285888672 110.44914245605469 86.67170715332031 115.18136596679688 85.38153839111328 109.0236587524414 C 65.85791778564453 108.47047424316406 77.87422943115234 110.65574645996094 84.51619720458984 110.20728302001953 C 80.86074829101562 109.45079040527344 86.90619659423828 112.2753677368164 86.68909454345703 108.2321548461914" stroke-width="0.0" fill="rgb(249, 246, 253)" opacity="0.86014897" stroke="rgb(60, 43, 114)" stroke-opacity="0.3044684" stroke-linecap="round" stroke-linejoin="round"/>
    <path d="M 88.87258911132812 30.878480911254883 C 87.56391906738281 27.470558166503906 85.54296875 31.949995040893555 83.63944244384766 35.002567291259766 C 88.07252502441406 27.59661293029785 92.26155853271484 25.44711685180664 86.83988952636719 30.806049346923828 C 90.02717590332031 25.27096939086914 92.33409881591797 26.2042236328125 80.926513671875 30.447893142700195 C 87.37850189208984 28.663204193115234 88.15632629394531 28.982107162475586 88.87258911132812 30.878480911254883" stroke-width="0.0" fill="rgb(120, 152, 181)" opacity="0.20853461" stroke="rgb(213, 60, 128)" stroke-opacity="0.9425836" stroke-linecap="round" stroke-linejoin="round"/>
    <path d="M 89.68988037109375 20.80134391784668 C 85.72968292236328 35.608978271484375 84.39173889160156 44.427364349365234 88.34657287597656 33.43577575683594 C 86.14851379394531 33.562374114990234 86.80339813232422 27.99393653869629 82.26676177978516 31.960926055908203 C 85.96131134033203 29.953397750854492 89.87030792236328 27.534576416015625 84.47057342529297 25.066333770751953 C 96.85113525390625 25.68482780456543 89.12490844726562 26.186664581298828 89.68988037109375 20.80134391784668" stroke-width="0.0" fill="rgb(58, 58, 62)" opacity="0.97786593" stroke="rgb(161, 221, 239)" stroke-opacity="0.75076485" stroke-linecap="round" stroke-linejoin="round"/>
    <path d="M 99.62732696533203 17.22677230834961 C 103.2245864868164 19.701278686523438 75.57730102539062 19.587806701660156 80.93605041503906 19.43523406982422 C 79.48786926269531 26.092573165893555 77.62779235839844 25.82184410095215 78.5160140991211 21.813018798828125 C 78.21464538574219 15.833024978637695 74.04761505126953 24.29558753967285 90.22782897949219 18.069520950317383 C 87.49292755126953 12.987300872802734 91.45977783203125 23.396055221557617 99.62732696533203 17.22677230834961" stroke-width="0.0" fill="rgb(108, 118, 124)" opacity="0.29539877" stroke="rgb(178, 246, 253)" stroke-opacity="0.45182168" stroke-linecap="round" stroke-linejoin="round"/>
    <path d="M 92.52193450927734 37.12028503417969 C 92.00365447998047 39.05862045288086 92.89737701416016 34.4433479309082 88.78369140625 34.478546142578125 C 89.53251647949219 31.011486053466797 88.60751342773438 35.8689079284668 93.68009185791016 31.10166358947754 C 86.1378402709961 35.028377532958984 91.0867691040039 36.37076187133789 94.23538970947266 38.70964813232422 C 91.63484191894531 36.333614349365234 92.10551452636719 38.161373138427734 92.52193450927734 37.12028503417969" stroke-width="0.0" fill="rgb(64, 62, 57)" opacity="0.60449874" stroke="rgb(18, 74, 38)" stroke-opacity="0.41748637" stroke-linecap="round" stroke-linejoin="round"/>
    <path d="M 87.92105865478516 28.943195343017578 C 87.33536529541016 29.084850311279297 88.10175323486328 30.86561393737793 87.87841796875 23.685028076171875 C 89.86319732666016 34.72890853881836 81.47016143798828 32.309547424316406 89.1029281616211 28.722095489501953 C 89.0170669555664 31.282503128051758 84.74496459960938 26.999404907226562 91.11863708496094 29.80704689025879 C 85.23241424560547 27.151660919189453 91.1976547241211 29.32450294494629 87.92105865478516 28.943195343017578" stroke-width="0.0" fill="rgb(177, 196, 221)" opacity="0.6665443" stroke="rgb(33, 154, 97)" stroke-opacity="0.89538586" stroke-linecap="round" stroke-linejoin="round"/>
    <path d="M 83.29361724853516 19.381513595581055 C 88.31135559082031 26.441938400268555 80.70509338378906 20.552093505859375 92.90922546386719 22.38914680480957 C 93.8734130859375 18.784439086914062 85.93927764892578 18.973613739013672 79.18724822998047 21.290363311767578 C 97.95659637451172 19.9973201751709 91.4054183959961 23.02644920349121 91.82510375976562 18.394737243652344 C 86.9258041381836 13.38936710357666 98.70081329345703 21.282085418701172 83.29361724853516 19.381513595581055" stroke-width="0.0" fill="rgb(26, 41, 46)" opacity="0.7128152" stroke="rgb(246, 139, 70)" stroke-opacity="0.59223044" stroke-linecap="round" stroke-linejoin="round"/>
    <path d="M 103.67842864990234 116.90916442871094 C 100.0362548828125 114.67314910888672 102.76124572753906 114.40802001953125 102.6939926147461 110.32373809814453 C 101.5793228149414 118.41545104980469 102.73806762695312 112.48207092285156 101.52717590332031 111.51502990722656 C 93.06915283203125 117.43848419189453 98.279052734375 109.62504577636719 105.86601257324219 115.63056182861328 C 98.88597869873047 110.07731628417969 106.0558090209961 118.08297729492188 103.67842864990234 116.90916442871094" stroke-width="0.0" fill="rgb(38, 44, 55)" opacity="0.7307228" stroke="rgb(228, 103, 140)" stroke-opacity="0.27165276" stroke-linecap="round" stroke-linejoin="round"/>
    <path d="M 78.62484741210938 124.35441589355469 C 71.47515106201172 118.65765380859375 72.96748352050781 115.67577362060547 75.38629150390625 118.34526062011719 C 79.22795867919922 116.2175064086914 73.6412124633789 113.52030944824219 77.57205963134766 121.76106262207031 C 69.63809967041016 119.23857879638672 81.32228088378906 121.71894836425781 74.39507293701172 118.32785034179688 C 71.83731842041016 117.13582611083984 75.26051330566406 120.53502655029297 78.62484741210938 124.35441589355469" stroke-width="0.0" fill="rgb(207, 211, 221)" opacity="0.85484356" stroke="rgb(116, 102, 63)" stroke-opacity="0.5058664" stroke-linecap="round" stroke-linejoin="round"/>
    <path d="M 98.03720092773438 28.418668746948242 C 92.4292984008789 29.878742218017578 84.67680358886719 25.516454696655273 80.67430877685547 32.81914138793945 C 93.89886474609375 35.59367370605469 87.24275970458984 38.678565979003906 82.03785705566406 32.28614807128906 C 84.24649047851562 33.12004852294922 85.83598327636719 30.01869010925293 88.40013122558594 24.74831199645996 C 81.65892791748047 27.69093894958496 87.47164154052734 28.580795288085938 98.03720092773438 28.418668746948242" stroke-width="0.0" fill="rgb(128, 134, 140)" opacity="0.96172947" stroke="rgb(79, 95, 133)" stroke-opacity="0.75059503" stroke-linecap="round" stroke-linejoin="round"/>
    <path d="M 92.9588623046875 26.74002456665039 C 86.7870864868164 28.698585510253906 94.99850463867188 26.117401123046875 92.8810043334961 29.98859214782715 C 95.13069152832031 30.29206657409668 88.02822875976562 27.677234649658203 87.8853530883789 32.16651153564453 C 81.3779525756836 30.126630783081055 86.46637725830078 26.976545333862305 89.59868621826172 38.59566116333008 C 81.17637634277344 25.884965896606445 91.00405883789062 34.523555755615234 92.9588623046875 26.74002456665039" stroke-width="0.0" fill="rgb(64, 69, 79)" opacity="0.67613703" stroke="rgb(85, 235, 219)" stroke-opacity="0.048690297" stroke-linecap="round" stroke-linejoin="round"/>
    <path d="M 91.80288696289062 25.493099212646484 C 94.91161346435547 34.98792266845703 107.15830993652344 20.41526222229004 84.39683532714844 26.391658782958984 C 89.27786254882812 16.467090606689453 73.15144348144531 22.252901077270508 80.2742919921875 18.9902286529541 C 78.29688262939453 16.547887802124023 82.10966491699219 20.63551902770996 76.39881134033203 24.288738250732422 C 89.89053344726562 17.64960479736328 85.23828125 26.879213333129883 91.80288696289062 25.493099212646484" stroke-width="0.0" fill="rgb(124, 131, 135)" opacity="0.66968775" stroke="rgb(64, 113, 26)" stroke-opacity="0.348476" stroke-linecap="round" stroke-linejoin="round"/>
  </g>
</svg>
