<?xml version="1.0" ?>
<svg xmlns="http://www.w3.org/2000/svg" version="1.1" width="512" height="512">
  <defs/>
  <g>
    <path stroke-width="0" fill="rgb(-64, -9, 22)" opacity="1.1482211" stroke="rgb(139, 182, 153)" stroke-opacity="1.0" stroke-linecap="round" stroke-linejoin="round" d="M 355.7824401855469 218.89646911621094 C 381.74737548828125 223.7050018310547 275.3236999511719 220.90606689453125 262.04205322265625 212.215087890625 C 128.99461364746094 213.81719970703125 155.33702087402344 209.56588745117188 153.4204559326172 206.89193725585938 C 210.3024444580078 204.72064208984375 263.0658874511719 212.3262939453125 266.1495361328125 207.179443359375 C 203.27288818359375 208.92857360839844 249.02468872070312 198.0759735107422 355.7824401855469 218.89646911621094"/>
    <path stroke-width="0" fill="rgb(59, 154, 48)" opacity="0.5950501" stroke="rgb(108, 164, 111)" stroke-opacity="1.0" stroke-linecap="round" stroke-linejoin="round" d="M 248.5530242919922 651.806884765625 C -229.34446716308594 572.6181030273438 300.1765441894531 108.62560272216797 176.0160675048828 425.85052490234375 C -135.2936248779297 560.374755859375 327.6782531738281 168.52557373046875 30.19744873046875 277.6443176269531 C 112.40609741210938 674.2169799804688 -112.66898345947266 704.5342407226562 -42.4720458984375 -48.570919036865234 C 461.1419677734375 -99.76082611083984 458.29449462890625 -91.94783020019531 248.5530242919922 651.806884765625"/>
    <path stroke-width="0" fill="rgb(8, 16, 44)" opacity="1.0347923" stroke="rgb(245, 97, 201)" stroke-opacity="1.0" stroke-linecap="round" stroke-linejoin="round" d="M 781.7657470703125 369.74920654296875 C 379.642822265625 604.2960815429688 207.9100341796875 622.2520751953125 281.2347717285156 313.90228271484375 C 192.17796325683594 348.2784729003906 433.15374755859375 551.3849487304688 495.5045471191406 378.1507873535156 C 522.203857421875 141.3773651123047 136.08639526367188 379.823974609375 262.5276184082031 -29.824235916137695 C 449.6614074707031 -97.54769134521484 769.5654296875 -107.06083679199219 781.7657470703125 369.74920654296875"/>
    <path stroke-width="0" fill="rgb(-7, -5, 44)" opacity="0.981778" stroke="rgb(144, 236, 18)" stroke-opacity="1.0" stroke-linecap="round" stroke-linejoin="round" d="M 419.9627380371094 346.62774658203125 C 399.7281494140625 344.7534484863281 406.008056640625 575.3375854492188 408.08294677734375 365.8602600097656 C 231.30686950683594 371.13323974609375 237.63677978515625 334.383056640625 330.7624206542969 347.6871643066406 C 439.465576171875 338.9336242675781 393.9692077636719 381.62664794921875 319.924072265625 164.86622619628906 C 409.6670837402344 346.9649353027344 405.2590637207031 345.03912353515625 419.9627380371094 346.62774658203125"/>
    <path stroke-width="0" fill="rgb(-13, 7, 33)" opacity="0.9658306" stroke="rgb(5, 212, 198)" stroke-opacity="1.0" stroke-linecap="round" stroke-linejoin="round" d="M 191.08689880371094 145.6481475830078 C 193.25474548339844 172.73609924316406 160.6517333984375 167.89149475097656 173.40357971191406 141.20582580566406 C 137.8380889892578 289.4229736328125 167.68516540527344 220.9046630859375 166.27943420410156 151.10792541503906 C 192.55242919921875 171.7789764404297 148.38868713378906 109.12064361572266 150.15957641601562 174.6719970703125 C 176.86045837402344 257.9251708984375 108.98493194580078 105.5540771484375 191.08689880371094 145.6481475830078"/>
    <path stroke-width="0" fill="rgb(260, 249, 271)" opacity="1.065359" stroke="rgb(249, 203, 117)" stroke-opacity="1.0" stroke-linecap="round" stroke-linejoin="round" d="M 136.0699462890625 277.42962646484375 C 214.0261688232422 299.239501953125 164.70523071289062 303.4328308105469 132.6148223876953 333.64404296875 C 144.39138793945312 286.2003173828125 164.10003662109375 269.05389404296875 151.96990966796875 295.2753601074219 C 161.5316162109375 295.0118713378906 176.91543579101562 295.2334289550781 162.08975219726562 286.3385009765625 C 133.12806701660156 273.1405334472656 148.6376190185547 280.2336730957031 136.0699462890625 277.42962646484375"/>
    <path stroke-width="0" fill="rgb(280, 261, 258)" opacity="0.97916675" stroke="rgb(30, 163, 36)" stroke-opacity="1.0" stroke-linecap="round" stroke-linejoin="round" d="M 152.1807403564453 321.3726806640625 C 170.67332458496094 265.2893371582031 241.4410400390625 349.3662414550781 147.63153076171875 318.43121337890625 C 119.84979248046875 342.5251770019531 94.76898193359375 355.50799560546875 118.84077453613281 334.794189453125 C 157.8074493408203 279.75390625 123.63018798828125 242.35589599609375 172.18551635742188 290.5745849609375 C 178.51272583007812 310.4195861816406 182.01217651367188 294.43023681640625 152.1807403564453 321.3726806640625"/>
    <path stroke-width="0" fill="rgb(-2, -4, 57)" opacity="0.9525728" stroke="rgb(133, 105, 67)" stroke-opacity="1.0" stroke-linecap="round" stroke-linejoin="round" d="M 132.8603973388672 443.59130859375 C 135.77127075195312 473.92510986328125 -21.685131072998047 452.36553955078125 10.874802589416504 337.8972473144531 C 15.00499153137207 481.416259765625 157.9737091064453 446.1115417480469 133.6474609375 442.87896728515625 C 109.75362396240234 483.61767578125 297.2276306152344 376.24017333984375 143.54745483398438 248.35385131835938 C 283.1212158203125 416.5630187988281 76.09796905517578 467.75677490234375 132.8603973388672 443.59130859375"/>
    <path stroke-width="0" fill="rgb(0, -8, 29)" opacity="0.921869" stroke="rgb(116, 144, 4)" stroke-opacity="1.0" stroke-linecap="round" stroke-linejoin="round" d="M 9.22400951385498 393.2767028808594 C -22.86365509033203 345.7794189453125 -20.61178207397461 370.5027770996094 -26.11788558959961 337.2369384765625 C -5.5761518478393555 381.3957824707031 -76.16055297851562 423.371337890625 28.571304321289062 372.6517028808594 C -23.517038345336914 429.95025634765625 -4.56829309463501 191.7366485595703 166.21115112304688 263.6383972167969 C -59.37217712402344 212.57351684570312 33.37016677856445 503.414306640625 9.22400951385498 393.2767028808594"/>
    <path stroke-width="0" fill="rgb(268, 259, 260)" opacity="0.9579108" stroke="rgb(156, 157, 240)" stroke-opacity="1.0" stroke-linecap="round" stroke-linejoin="round" d="M 357.1783142089844 276.1660461425781 C 332.9637451171875 378.04052734375 387.5605163574219 321.43743896484375 299.28851318359375 352.7493896484375 C 304.33160400390625 320.241455078125 326.8070068359375 280.73175048828125 339.2049560546875 288.8211669921875 C 319.5723571777344 273.24127197265625 310.6580505371094 307.65478515625 354.61065673828125 318.3951721191406 C 268.4835205078125 288.4877624511719 379.45782470703125 255.1873779296875 357.1783142089844 276.1660461425781"/>
    <path stroke-width="0" fill="rgb(-3, -7, 56)" opacity="1.0274007" stroke="rgb(91, 111, 177)" stroke-opacity="1.0" stroke-linecap="round" stroke-linejoin="round" d="M 122.15788269042969 314.2330017089844 C 124.90331268310547 300.17376708984375 108.05266571044922 356.24853515625 125.04280090332031 329.07879638671875 C 111.05632019042969 336.4163818359375 159.16419982910156 167.07943725585938 182.15432739257812 151.94871520996094 C 128.5492401123047 332.687744140625 127.18025207519531 332.37152099609375 115.6890640258789 317.5022277832031 C 133.5256805419922 282.29522705078125 123.0368423461914 297.3857421875 122.15788269042969 314.2330017089844"/>
    <path stroke-width="0" fill="rgb(-15, 5, 18)" opacity="0.98590285" stroke="rgb(170, 171, 53)" stroke-opacity="1.0" stroke-linecap="round" stroke-linejoin="round" d="M 129.61712646484375 284.9900817871094 C 101.03977966308594 418.89898681640625 118.9758529663086 289.57965087890625 100.75636291503906 399.8170471191406 C 113.05362701416016 310.63641357421875 99.23379516601562 398.411376953125 95.08383178710938 336.7608337402344 C 82.65818786621094 326.80194091796875 132.8420867919922 393.1007080078125 54.543312072753906 250.995849609375 C 115.73114776611328 356.7198181152344 90.12228393554688 379.7621154785156 129.61712646484375 284.9900817871094"/>
    <path stroke-width="0" fill="rgb(-10, -11, 69)" opacity="0.9883777" stroke="rgb(80, 92, 145)" stroke-opacity="1.0" stroke-linecap="round" stroke-linejoin="round" d="M 299.9720153808594 295.97674560546875 C 292.7465515136719 285.7448425292969 291.39007568359375 299.15814208984375 264.008056640625 308.1448669433594 C 304.6374816894531 179.89724731445312 256.0015869140625 459.0556335449219 389.2138671875 448.3984069824219 C 242.76043701171875 404.050537109375 325.2841491699219 184.0064239501953 485.0101623535156 284.8818359375 C 351.1142272949219 150.94329833984375 274.1178283691406 385.6124267578125 299.9720153808594 295.97674560546875"/>
    <path stroke-width="0" fill="rgb(140, 192, 133)" opacity="0.99067515" stroke="rgb(252, 26, 53)" stroke-opacity="1.0" stroke-linecap="round" stroke-linejoin="round" d="M 386.9447326660156 207.80630493164062 C 293.676513671875 215.0384521484375 296.8998718261719 220.79017639160156 375.3086853027344 212.81362915039062 C 237.24610900878906 204.39932250976562 183.97122192382812 194.4819793701172 167.0001678466797 201.47628784179688 C 245.94882202148438 133.46270751953125 153.75543212890625 17.914379119873047 426.5719909667969 100.65865325927734 C 450.1308288574219 223.88145446777344 265.4748840332031 107.53449249267578 386.9447326660156 207.80630493164062"/>
    <path stroke-width="0" fill="rgb(156, 200, 167)" opacity="0.82700443" stroke="rgb(166, 64, 118)" stroke-opacity="1.0" stroke-linecap="round" stroke-linejoin="round" d="M 328.5382385253906 236.8040771484375 C 288.10675048828125 284.1829833984375 281.32867431640625 326.63287353515625 233.2346649169922 359.493408203125 C 217.682373046875 350.3238220214844 216.2362823486328 335.7469787597656 229.70059204101562 257.93731689453125 C 225.97703552246094 225.10797119140625 229.57948303222656 205.4744873046875 275.9246520996094 214.2888946533203 C 354.0802001953125 212.13357543945312 337.65594482421875 205.96995544433594 328.5382385253906 236.8040771484375"/>
    <path stroke-width="0" fill="rgb(98, 182, 125)" opacity="1.0340542" stroke="rgb(40, 28, 167)" stroke-opacity="1.0" stroke-linecap="round" stroke-linejoin="round" d="M 310.9501037597656 268.64593505859375 C 311.8815002441406 263.90252685546875 313.53509521484375 272.822998046875 301.71697998046875 271.22442626953125 C 323.7270812988281 265.8049011230469 334.8857421875 259.0145568847656 327.65106201171875 251.22059631347656 C 328.5890197753906 250.43409729003906 323.7554931640625 220.39292907714844 316.5544128417969 280.0627746582031 C 269.3081970214844 333.21697998046875 337.0387268066406 315.30706787109375 310.9501037597656 268.64593505859375"/>
    <path stroke-width="0" fill="rgb(141, 196, 147)" opacity="0.73157203" stroke="rgb(50, 94, 209)" stroke-opacity="1.0" stroke-linecap="round" stroke-linejoin="round" d="M 443.906982421875 455.6029052734375 C 432.8584899902344 475.9561767578125 240.47250366210938 477.6100158691406 426.2662353515625 467.9410400390625 C 146.39251708984375 634.1176147460938 350.57073974609375 313.17926025390625 199.3280029296875 384.8544006347656 C 224.41366577148438 287.61187744140625 135.80967712402344 253.51611328125 206.236083984375 297.6913757324219 C 332.7818603515625 358.4071044921875 288.3580322265625 462.37188720703125 443.906982421875 455.6029052734375"/>
    <path stroke-width="0" fill="rgb(6, -1, 61)" opacity="0.91787714" stroke="rgb(213, 24, 248)" stroke-opacity="1.0" stroke-linecap="round" stroke-linejoin="round" d="M 250.23338317871094 275.1812744140625 C 227.98289489746094 193.6996307373047 134.01608276367188 232.00953674316406 154.5740966796875 205.949951171875 C 329.8636474609375 213.66729736328125 347.837890625 192.7648468017578 261.5296936035156 219.06163024902344 C 287.5538635253906 223.1176300048828 355.4832763671875 260.55999755859375 345.8286437988281 206.59078979492188 C 255.68362426757812 198.41468811035156 254.3706512451172 246.9507598876953 250.23338317871094 275.1812744140625"/>
    <path stroke-width="0" fill="rgb(34, 52, 120)" opacity="0.84062773" stroke="rgb(249, 154, 188)" stroke-opacity="1.0" stroke-linecap="round" stroke-linejoin="round" d="M 325.56610107421875 230.63043212890625 C 256.1611022949219 294.82244873046875 205.67027282714844 283.798583984375 234.82347106933594 267.1325378417969 C 214.73904418945312 277.46331787109375 207.62803649902344 281.3153381347656 192.09078979492188 255.4649200439453 C 144.17967224121094 281.04547119140625 149.89413452148438 201.2643280029297 180.48204040527344 222.97903442382812 C 267.4051208496094 217.39173889160156 315.0968933105469 215.63377380371094 325.56610107421875 230.63043212890625"/>
    <path stroke-width="0" fill="rgb(0, 24, -29)" opacity="0.2783329" stroke="rgb(72, 30, 75)" stroke-opacity="1.0" stroke-linecap="round" stroke-linejoin="round" d="M 206.43679809570312 21.262680053710938 C -36.67692184448242 143.29766845703125 107.97901916503906 178.2189178466797 4.5082831382751465 355.4842834472656 C -92.18130493164062 156.77906799316406 -36.22513198852539 116.56812286376953 -31.709531784057617 36.69883728027344 C -31.88047218322754 10.4307222366333 -24.965839385986328 4.1932501792907715 12.090849876403809 -3.9265451431274414 C 88.0475845336914 -3.6111233234405518 173.8690643310547 -72.85523986816406 206.43679809570312 21.262680053710938"/>
    <path stroke-width="0" fill="rgb(113, 159, 103)" opacity="0.6615084" stroke="rgb(81, 105, 16)" stroke-opacity="1.0" stroke-linecap="round" stroke-linejoin="round" d="M 285.69989013671875 47.179805755615234 C 4.394333362579346 85.52058410644531 171.7064208984375 228.60874938964844 36.440372467041016 271.06231689453125 C 9.192892074584961 74.36420440673828 167.35769653320312 22.434249877929688 192.62490844726562 13.44002628326416 C 53.40874481201172 13.504487037658691 93.48223114013672 -66.72004699707031 133.5714874267578 -89.96007537841797 C 157.20448303222656 -111.72464752197266 203.27940368652344 -175.64857482910156 285.69989013671875 47.179805755615234"/>
    <path stroke-width="0" fill="rgb(154, 182, 144)" opacity="0.5550627" stroke="rgb(144, 67, 133)" stroke-opacity="1.0" stroke-linecap="round" stroke-linejoin="round" d="M 329.7115173339844 -19.76848602294922 C 288.364013671875 213.42481994628906 207.55413818359375 173.69671630859375 219.35934448242188 188.61605834960938 C 154.63282775878906 199.15480041503906 163.81678771972656 222.6333465576172 180.55599975585938 168.93063354492188 C 268.2590026855469 173.4366912841797 163.2724609375 74.45845794677734 96.66850280761719 214.2762451171875 C 189.18499755859375 13.741129875183105 345.79669189453125 23.82585906982422 329.7115173339844 -19.76848602294922"/>
    <path stroke-width="0" fill="rgb(-5, 1, 118)" opacity="1.0226107" stroke="rgb(146, 236, 81)" stroke-opacity="1.0" stroke-linecap="round" stroke-linejoin="round" d="M 387.46148681640625 356.10546875 C 402.4975891113281 387.7345886230469 324.8062744140625 351.9957275390625 239.8639373779297 408.4005432128906 C 337.8063049316406 342.46612548828125 270.2041931152344 433.6962585449219 208.7928924560547 309.085693359375 C 128.6825408935547 196.83348083496094 106.73664855957031 261.69342041015625 330.9743957519531 219.07521057128906 C 298.6864013671875 392.3037414550781 250.43185424804688 357.4761962890625 387.46148681640625 356.10546875"/>
    <path stroke-width="0" fill="rgb(149, 229, 203)" opacity="1.0398575" stroke="rgb(33, 182, 73)" stroke-opacity="1.0" stroke-linecap="round" stroke-linejoin="round" d="M 307.25909423828125 278.82403564453125 C 266.86541748046875 366.7731018066406 310.33990478515625 310.0484313964844 268.4063415527344 337.72015380859375 C 241.7767791748047 293.1077880859375 220.21946716308594 259.8452453613281 174.71591186523438 232.1009063720703 C 160.20936584472656 213.76695251464844 133.5749969482422 220.5140380859375 271.8213806152344 217.86309814453125 C 364.0648193359375 222.59640502929688 333.8408203125 192.77310180664062 307.25909423828125 278.82403564453125"/>
    <path stroke-width="0" fill="rgb(131, 187, 132)" opacity="0.698898" stroke="rgb(149, 5, 211)" stroke-opacity="1.0" stroke-linecap="round" stroke-linejoin="round" d="M 520.9545288085938 347.6322326660156 C 416.78961181640625 135.92300415039062 383.3846435546875 211.85638427734375 386.19073486328125 221.6363983154297 C 307.0556640625 95.04401397705078 268.119140625 52.7709846496582 109.40552520751953 144.9395751953125 C 175.3896942138672 3.283383369445801 218.7476348876953 58.46348571777344 296.661865234375 -30.611404418945312 C 494.6373596191406 -49.52625274658203 597.9222412109375 -60.34662628173828 520.9545288085938 347.6322326660156"/>
    <path stroke-width="0" fill="rgb(140, 187, 129)" opacity="0.99982" stroke="rgb(172, 68, 187)" stroke-opacity="1.0" stroke-linecap="round" stroke-linejoin="round" d="M 481.21429443359375 276.9227294921875 C 511.7311706542969 297.9328918457031 446.9695739746094 219.0749969482422 362.9079895019531 253.37548828125 C 347.04644775390625 217.8836669921875 322.5926818847656 192.77357482910156 360.99969482421875 160.10140991210938 C 257.41278076171875 127.8682632446289 272.1636047363281 165.4312744140625 368.1600341796875 176.6931915283203 C 486.9840393066406 100.86493682861328 481.9346008300781 163.57131958007812 481.21429443359375 276.9227294921875"/>
    <path stroke-width="0" fill="rgb(7, 0, 26)" opacity="0.9632333" stroke="rgb(63, 146, 150)" stroke-opacity="1.0" stroke-linecap="round" stroke-linejoin="round" d="M 310.3938293457031 270.4412536621094 C 343.9433898925781 169.90245056152344 357.38525390625 177.2736358642578 326.1833801269531 263.37030029296875 C 323.01202392578125 265.49993896484375 327.2122802734375 257.9391784667969 323.97552490234375 260.9351806640625 C 324.5252685546875 256.4281311035156 323.0488586425781 265.9762878417969 323.9917907714844 264.1498107910156 C 324.3531188964844 264.6940612792969 320.10430908203125 289.1221008300781 310.3938293457031 270.4412536621094"/>
    <path stroke-width="0" fill="rgb(115, 152, 75)" opacity="0.67884535" stroke="rgb(56, 242, 114)" stroke-opacity="1.0" stroke-linecap="round" stroke-linejoin="round" d="M 15.177515983581543 163.20640563964844 C -9.331568717956543 341.616943359375 19.878538131713867 78.77558135986328 -22.625539779663086 65.43024444580078 C -33.61650848388672 65.88433074951172 -35.86575698852539 55.43598556518555 -32.55392837524414 38.516319274902344 C 1.2650407552719116 -16.7218074798584 22.73017120361328 -53.04408264160156 267.3282775878906 18.05767822265625 C 235.88958740234375 78.00244140625 141.1345977783203 -91.402587890625 15.177515983581543 163.20640563964844"/>
    <path stroke-width="0" fill="rgb(0, -6, 59)" opacity="0.9563334" stroke="rgb(178, 75, 207)" stroke-opacity="1.0" stroke-linecap="round" stroke-linejoin="round" d="M 485.344482421875 449.3088684082031 C 536.6216430664062 272.36334228515625 438.2842102050781 285.07928466796875 465.53839111328125 261.1005554199219 C 525.02783203125 304.40985107421875 500.8912048339844 334.94915771484375 505.3348083496094 316.3269958496094 C 504.7382507324219 403.1705017089844 498.1729431152344 412.55126953125 496.2633056640625 372.1341247558594 C 497.51593017578125 463.17498779296875 300.8597717285156 454.9432373046875 485.344482421875 449.3088684082031"/>
    <path stroke-width="0" fill="rgb(64, 131, -16)" opacity="0.88622296" stroke="rgb(224, 148, 224)" stroke-opacity="1.0" stroke-linecap="round" stroke-linejoin="round" d="M 61.16988754272461 479.8437194824219 C 24.407852172851562 417.9442138671875 41.99679946899414 447.9895324707031 55.15155792236328 543.08349609375 C -18.77353858947754 507.0052185058594 -8.899799346923828 479.8928527832031 -7.001059055328369 437.8932800292969 C -33.0129280090332 414.1160888671875 -26.1704158782959 417.98907470703125 2.127397060394287 428.4969177246094 C 39.41633605957031 441.8548278808594 30.444759368896484 450.59332275390625 61.16988754272461 479.8437194824219"/>
    <path stroke-width="0" fill="rgb(52, 114, 57)" opacity="0.8460932" stroke="rgb(184, 127, 243)" stroke-opacity="1.0" stroke-linecap="round" stroke-linejoin="round" d="M 127.8155288696289 456.5838928222656 C 73.55461883544922 460.01971435546875 67.51602935791016 485.7556457519531 58.40586853027344 492.01507568359375 C 15.665547370910645 490.2845153808594 73.81979370117188 436.8135986328125 -13.919384002685547 435.47113037109375 C -11.692046165466309 399.7693786621094 -12.94410228729248 384.6981201171875 5.679533004760742 377.9244384765625 C 17.060604095458984 430.73248291015625 63.05634307861328 459.5047302246094 127.8155288696289 456.5838928222656"/>
    <path stroke-width="0" fill="rgb(192, 160, 117)" opacity="0.8967311" stroke="rgb(108, 154, 4)" stroke-opacity="1.0" stroke-linecap="round" stroke-linejoin="round" d="M 99.3619613647461 365.1933898925781 C 80.318115234375 395.0274658203125 57.12455749511719 437.6796569824219 61.38900375366211 421.98663330078125 C 64.63896179199219 435.56353759765625 41.892845153808594 407.4022521972656 25.450851440429688 396.4942932128906 C -6.221304893493652 321.16278076171875 29.726484298706055 357.88177490234375 101.81169891357422 341.8843688964844 C 96.59832000732422 360.9264831542969 56.185386657714844 419.6109619140625 99.3619613647461 365.1933898925781"/>
    <path stroke-width="0" fill="rgb(55, 121, 105)" opacity="0.85520047" stroke="rgb(168, 73, 157)" stroke-opacity="1.0" stroke-linecap="round" stroke-linejoin="round" d="M 169.2384796142578 440.23931884765625 C 309.07513427734375 500.7049865722656 197.25111389160156 547.0304565429688 31.075464248657227 547.0792846679688 C 11.251142501831055 543.2071533203125 3.708277463912964 537.02392578125 9.927398681640625 532.5899047851562 C 30.026641845703125 461.9564514160156 25.615768432617188 448.9627685546875 35.30677032470703 458.6785583496094 C 120.48345947265625 465.0921630859375 146.23268127441406 442.70635986328125 169.2384796142578 440.23931884765625"/>
    <path stroke-width="0" fill="rgb(2, 10, 74)" opacity="1.0183471" stroke="rgb(34, 76, 145)" stroke-opacity="1.0" stroke-linecap="round" stroke-linejoin="round" d="M 169.14923095703125 135.4169158935547 C 159.3426055908203 148.35403442382812 154.4453887939453 147.4801788330078 189.62046813964844 145.61019897460938 C 190.93528747558594 144.38629150390625 177.02474975585938 146.3240966796875 154.20565795898438 149.55093383789062 C 189.44923400878906 152.79916381835938 201.65362548828125 152.97984313964844 165.83251953125 166.86322021484375 C 157.1532745361328 158.4693603515625 144.7008514404297 161.95338439941406 169.14923095703125 135.4169158935547"/>
    <path stroke-width="0" fill="rgb(74, 126, 77)" opacity="0.95046556" stroke="rgb(146, 166, 166)" stroke-opacity="1.0" stroke-linecap="round" stroke-linejoin="round" d="M 58.72660827636719 527.6983032226562 C 47.256099700927734 539.38818359375 38.75363540649414 545.7471313476562 27.42095375061035 546.61962890625 C -6.0 521.3204956054688 -13.320508003234863 514.0 -38.80810546875 480.6270446777344 C -40.5098876953125 466.52288818359375 -38.3253288269043 451.33673095703125 6.260611534118652 391.62786865234375 C 58.60564041137695 483.08056640625 130.7489471435547 481.64324951171875 58.72660827636719 527.6983032226562"/>
    <path stroke-width="0" fill="rgb(105, 164, 110)" opacity="0.90799034" stroke="rgb(182, 254, 38)" stroke-opacity="1.0" stroke-linecap="round" stroke-linejoin="round" d="M 524.6657104492188 377.22186279296875 C 583.1902465820312 358.1300964355469 479.9112243652344 265.0813903808594 431.0050354003906 240.0721893310547 C 468.50244140625 150.0018768310547 318.6256408691406 42.1052360534668 246.25491333007812 87.92227935791016 C 62.13936233520508 -11.730010986328125 315.4989318847656 -41.09873962402344 375.4930419921875 -3.442979097366333 C 425.1859130859375 5.329442977905273 553.3416137695312 8.78061580657959 524.6657104492188 377.22186279296875"/>
    <path stroke-width="0" fill="rgb(105, 116, 103)" opacity="0.49843407" stroke="rgb(41, 156, 31)" stroke-opacity="1.0" stroke-linecap="round" stroke-linejoin="round" d="M 105.74955749511719 478.12823486328125 C 155.2483673095703 511.3126525878906 69.16734313964844 524.3846435546875 71.88082122802734 523.0675048828125 C 55.19232177734375 491.00225830078125 57.51163864135742 431.235595703125 72.09491729736328 485.0454406738281 C -3.6594204902648926 407.8363037109375 -11.697697639465332 412.11566162109375 28.48592185974121 448.0334167480469 C 80.09489440917969 453.3458251953125 84.18180847167969 462.7318420410156 105.74955749511719 478.12823486328125"/>
    <path stroke-width="0" fill="rgb(73, 127, 93)" opacity="0.6220756" stroke="rgb(205, 145, 103)" stroke-opacity="1.0" stroke-linecap="round" stroke-linejoin="round" d="M 69.13153076171875 447.11663818359375 C 182.8965301513672 491.7975158691406 205.84593200683594 537.8041381835938 54.13311004638672 508.548095703125 C -28.414854049682617 444.4085693359375 -36.56254959106445 391.39593505859375 74.40492248535156 500.85906982421875 C -28.83077049255371 437.39044189453125 -20.301864624023438 443.0130615234375 21.841161727905273 439.155029296875 C 9.366951942443848 384.2995300292969 16.708873748779297 425.99658203125 69.13153076171875 447.11663818359375"/>
    <path stroke-width="0" fill="rgb(82, 122, 84)" opacity="0.5060513" stroke="rgb(177, 115, 184)" stroke-opacity="1.0" stroke-linecap="round" stroke-linejoin="round" d="M 97.78010559082031 499.5167541503906 C 69.82477569580078 533.7476196289062 61.43876647949219 540.36572265625 70.19639587402344 526.6411743164062 C 26.43657684326172 481.1739196777344 -42.25366973876953 497.0081787109375 -56.712650299072266 502.3186340332031 C -1.0405356884002686 455.7156066894531 -11.923786163330078 460.8006896972656 -20.629878997802734 446.09521484375 C 28.683000564575195 433.3957824707031 31.627077102661133 468.6226806640625 97.78010559082031 499.5167541503906"/>
    <path stroke-width="0" fill="rgb(269, -4, 38)" opacity="0.77329165" stroke="rgb(248, 218, 2)" stroke-opacity="1.0" stroke-linecap="round" stroke-linejoin="round" d="M 364.77398681640625 173.70909118652344 C 346.28485107421875 176.749755859375 346.5118103027344 174.1973114013672 322.47265625 163.2982177734375 C 333.41851806640625 174.2924041748047 312.24200439453125 149.9703369140625 336.3150329589844 166.4098663330078 C 373.3492431640625 190.58929443359375 347.990478515625 154.1095428466797 338.5732421875 206.86239624023438 C 349.73046875 222.03419494628906 349.98406982421875 175.9405059814453 364.77398681640625 173.70909118652344"/>
    <path stroke-width="0" fill="rgb(-9, -22, 64)" opacity="0.96018213" stroke="rgb(186, 43, 132)" stroke-opacity="1.0" stroke-linecap="round" stroke-linejoin="round" d="M 179.83436584472656 305.7962341308594 C 190.79656982421875 266.31793212890625 112.25160217285156 254.31405639648438 145.03880310058594 249.89566040039062 C 159.09022521972656 264.515625 137.21888732910156 246.51544189453125 136.8661651611328 258.27471923828125 C 136.63572692871094 248.8991241455078 190.31707763671875 245.6331787109375 82.23015594482422 259.63037109375 C 122.48501586914062 256.8636779785156 162.13525390625 272.1452941894531 179.83436584472656 305.7962341308594"/>
    <path stroke-width="0" fill="rgb(71, 121, 125)" opacity="0.41726774" stroke="rgb(50, 4, 202)" stroke-opacity="1.0" stroke-linecap="round" stroke-linejoin="round" d="M 250.9331817626953 449.02398681640625 C 236.67332458496094 577.5472412109375 138.30755615234375 552.8693237304688 159.77088928222656 562.5472412109375 C 218.84527587890625 470.9481201171875 147.42552185058594 403.4273986816406 133.8182373046875 478.1932067871094 C 60.88755416870117 442.9223327636719 103.63282012939453 477.6453857421875 82.98690795898438 449.2454528808594 C 166.49449157714844 470.3099670410156 147.71180725097656 397.61395263671875 250.9331817626953 449.02398681640625"/>
    <path stroke-width="0" fill="rgb(263, 259, 253)" opacity="0.9621093" stroke="rgb(88, 236, 179)" stroke-opacity="1.0" stroke-linecap="round" stroke-linejoin="round" d="M 91.0230484008789 361.51141357421875 C 115.24541473388672 387.4949035644531 6.858567714691162 396.41900634765625 27.503122329711914 390.56890869140625 C 89.17869567871094 404.1515197753906 108.09288787841797 334.2103271484375 57.90869140625 432.0631408691406 C 29.854393005371094 385.3698425292969 9.015063285827637 407.48065185546875 74.3356704711914 368.568359375 C -1.8673901557922363 406.95294189453125 18.39206886291504 391.1269226074219 91.0230484008789 361.51141357421875"/>
    <path stroke-width="0" fill="rgb(120, 144, 103)" opacity="0.124794774" stroke="rgb(41, 158, 147)" stroke-opacity="1.0" stroke-linecap="round" stroke-linejoin="round" d="M 377.83978271484375 2.9141652584075928 C 179.59011840820312 -15.345939636230469 264.4414978027344 102.5284194946289 518.250732421875 106.71710968017578 C 504.8874206542969 -84.52288818359375 47.61720275878906 -57.29649353027344 -7.9535813331604 281.4832458496094 C -41.21661376953125 -39.29698181152344 311.5935363769531 -44.69655990600586 300.5821228027344 -23.12848663330078 C 398.26263427734375 -0.6842736601829529 413.66986083984375 13.98637580871582 377.83978271484375 2.9141652584075928"/>
    <path stroke-width="0" fill="rgb(126, 187, 130)" opacity="0.48742092" stroke="rgb(238, 156, 136)" stroke-opacity="1.0" stroke-linecap="round" stroke-linejoin="round" d="M 449.204345703125 253.90408325195312 C 332.4131164550781 224.2091522216797 441.63739013671875 9.624207496643066 430.1159973144531 118.96359252929688 C 110.75433349609375 160.9165496826172 181.70884704589844 80.69243621826172 84.07666778564453 253.4224395751953 C -7.64208459854126 78.08270263671875 460.8441467285156 7.526660919189453 318.7978515625 40.31781005859375 C 299.06707763671875 8.062295913696289 524.5474243164062 32.41783905029297 449.204345703125 253.90408325195312"/>
    <path stroke-width="0" fill="rgb(53, 134, 125)" opacity="0.9967629" stroke="rgb(186, 79, 101)" stroke-opacity="1.0" stroke-linecap="round" stroke-linejoin="round" d="M 546.1184692382812 322.2793273925781 C 547.3452758789062 544.0161743164062 540.02099609375 551.331298828125 442.2337951660156 579.9823608398438 C 290.3721923828125 689.2379150390625 223.978759765625 741.4822998046875 216.62109375 473.7874450683594 C 354.29168701171875 408.5285949707031 427.6328125 504.6218566894531 493.885498046875 401.7546081542969 C 549.9025268554688 284.07427978515625 401.44012451171875 231.17837524414062 546.1184692382812 322.2793273925781"/>
    <path stroke-width="0" fill="rgb(72, 183, 20)" opacity="0.11220257" stroke="rgb(47, 240, 188)" stroke-opacity="1.0" stroke-linecap="round" stroke-linejoin="round" d="M 410.6929016113281 297.14935302734375 C 402.5811767578125 296.14080810546875 412.0928955078125 282.36358642578125 405.66436767578125 342.19805908203125 C 400.456787109375 250.0546875 397.00115966796875 273.30413818359375 406.4007873535156 285.98260498046875 C 401.46405029296875 279.7868347167969 400.3969421386719 250.65676879882812 401.46966552734375 260.5558166503906 C 405.17034912109375 242.98158264160156 407.68756103515625 299.2717590332031 410.6929016113281 297.14935302734375"/>
    <path stroke-width="0" fill="rgb(67, 126, 92)" opacity="0.4102825" stroke="rgb(57, 64, 14)" stroke-opacity="1.0" stroke-linecap="round" stroke-linejoin="round" d="M 142.55868530273438 464.37274169921875 C 250.00601196289062 506.4122009277344 154.75442504882812 501.8341369628906 53.46857833862305 540.5747680664062 C 42.44731140136719 537.2024536132812 37.819068908691406 530.1972045898438 94.90705108642578 514.3283081054688 C -87.07972717285156 408.2425842285156 5.280550479888916 431.4753723144531 81.35295867919922 488.0749206542969 C 14.58504867553711 405.0826110839844 30.15633201599121 449.4137878417969 142.55868530273438 464.37274169921875"/>
    <path stroke-width="0" fill="rgb(297, 24, -25)" opacity="0.9968777" stroke="rgb(79, 177, 96)" stroke-opacity="1.0" stroke-linecap="round" stroke-linejoin="round" d="M 168.46365356445312 151.89126586914062 C 183.04437255859375 150.38197326660156 168.03509521484375 150.19215393066406 162.8291473388672 154.42098999023438 C 166.1234130859375 151.1570587158203 178.4624786376953 148.2855224609375 166.65048217773438 152.027587890625 C 185.5294952392578 148.1715087890625 205.69651794433594 158.95274353027344 190.56907653808594 139.30308532714844 C 125.49691009521484 133.78956604003906 139.15798950195312 182.2152099609375 168.46365356445312 151.89126586914062"/>
    <path stroke-width="0" fill="rgb(85, 128, 73)" opacity="0.86167115" stroke="rgb(6, 17, 173)" stroke-opacity="1.0" stroke-linecap="round" stroke-linejoin="round" d="M 20.57424545288086 432.3597106933594 C 25.94276237487793 446.9134216308594 33.089725494384766 440.3848571777344 -62.681114196777344 453.30291748046875 C -25.437917709350586 456.98138427734375 -32.49625015258789 449.58746337890625 -45.608211517333984 424.2274475097656 C -70.41461944580078 352.8617248535156 -52.82404708862305 354.5439453125 2.876178026199341 361.8843078613281 C 17.919578552246094 417.47998046875 36.56050491333008 428.09869384765625 20.57424545288086 432.3597106933594"/>
    <path stroke-width="0" fill="rgb(116, 171, 114)" opacity="0.6583466" stroke="rgb(136, 228, 252)" stroke-opacity="1.0" stroke-linecap="round" stroke-linejoin="round" d="M 459.8125 225.82542419433594 C 411.7377014160156 325.06488037109375 447.76263427734375 74.6661376953125 254.96017456054688 90.33311462402344 C 250.79598999023438 92.6126708984375 245.0463104248047 31.043163299560547 69.47603607177734 158.74227905273438 C 150.22946166992188 21.039827346801758 312.2532653808594 18.920400619506836 361.0540771484375 -9.027447700500488 C 274.67291259765625 33.851112365722656 433.0860900878906 23.178424835205078 459.8125 225.82542419433594"/>
    <path stroke-width="0" fill="rgb(62, 134, 113)" opacity="0.50266355" stroke="rgb(169, 67, 5)" stroke-opacity="1.0" stroke-linecap="round" stroke-linejoin="round" d="M 383.8128356933594 452.425048828125 C 262.19183349609375 555.4375 128.283203125 389.76873779296875 106.86238098144531 612.174560546875 C 87.05445098876953 561.8491821289062 110.97525787353516 535.2816162109375 88.85175323486328 535.7109375 C 255.90081787109375 602.7904052734375 200.6045379638672 411.8205261230469 128.0225830078125 458.314697265625 C 190.2151641845703 420.3834533691406 219.98046875 384.0520324707031 383.8128356933594 452.425048828125"/>
    <path stroke-width="0" fill="rgb(115, 164, 103)" opacity="0.853215" stroke="rgb(81, 97, 150)" stroke-opacity="1.0" stroke-linecap="round" stroke-linejoin="round" d="M 591.5747680664062 212.0179901123047 C 352.6039733886719 77.38834381103516 258.2979736328125 -68.35413360595703 262.1700134277344 104.58992767333984 C 330.7413024902344 112.08179473876953 306.311279296875 112.59498596191406 257.37457275390625 96.36835479736328 C 301.8207092285156 -4.75143575668335 221.42567443847656 -58.43549728393555 426.25970458984375 -39.36119842529297 C 429.8056945800781 -16.409896850585938 517.77587890625 -22.457061767578125 591.5747680664062 212.0179901123047"/>
    <path stroke-width="0" fill="rgb(91, 119, 80)" opacity="0.57104594" stroke="rgb(160, 222, 69)" stroke-opacity="1.0" stroke-linecap="round" stroke-linejoin="round" d="M 4.263041019439697 477.59503173828125 C 30.83523941040039 480.4446716308594 30.47929573059082 487.7490539550781 -23.193387985229492 480.92315673828125 C 10.457038879394531 452.3590087890625 -18.080373764038086 413.81536865234375 -30.1299991607666 414.26678466796875 C -29.795747756958008 421.0752258300781 -21.742794036865234 415.0025329589844 -15.927735328674316 412.6157531738281 C 30.53946876525879 429.8803405761719 26.24395179748535 467.22955322265625 4.263041019439697 477.59503173828125"/>
    <path stroke-width="0" fill="rgb(139, 186, 123)" opacity="0.86514366" stroke="rgb(47, 242, 175)" stroke-opacity="1.0" stroke-linecap="round" stroke-linejoin="round" d="M 332.30584716796875 246.4888916015625 C 336.059814453125 223.9087371826172 324.33392333984375 294.50823974609375 347.7227478027344 256.22210693359375 C 342.8876953125 220.83119201660156 361.14520263671875 240.880615234375 344.75335693359375 206.88278198242188 C 378.48175048828125 221.25619506835938 386.1766662597656 239.39588928222656 352.6563720703125 229.4839630126953 C 340.0764465332031 254.0902862548828 341.52984619140625 194.07742309570312 332.30584716796875 246.4888916015625"/>
    <path stroke-width="0" fill="rgb(10, 14, -12)" opacity="0.70069367" stroke="rgb(241, 186, 64)" stroke-opacity="1.0" stroke-linecap="round" stroke-linejoin="round" d="M 539.1504516601562 350.7400817871094 C 403.7739562988281 384.95062255859375 433.2289733886719 293.07647705078125 441.5664367675781 363.9706726074219 C 390.6377868652344 332.891845703125 424.5138854980469 347.36846923828125 411.53070068359375 339.240234375 C 526.7194213867188 185.73158264160156 384.6580505371094 335.8493347167969 407.98394775390625 402.5881042480469 C 397.27044677734375 314.4139404296875 463.6285095214844 384.47479248046875 539.1504516601562 350.7400817871094"/>
    <path stroke-width="0" fill="rgb(139, 190, 134)" opacity="0.79986" stroke="rgb(132, 6, 52)" stroke-opacity="1.0" stroke-linecap="round" stroke-linejoin="round" d="M 342.378662109375 113.93608856201172 C 363.8515930175781 156.28575134277344 433.21173095703125 174.46339416503906 296.6755065917969 160.99058532714844 C 138.0690460205078 139.38633728027344 217.97727966308594 214.05250549316406 191.2881317138672 119.15101623535156 C 274.25604248046875 118.27224731445312 320.44073486328125 48.88538360595703 129.41110229492188 127.97868347167969 C 254.51242065429688 75.0428237915039 271.4367370605469 104.1777114868164 342.378662109375 113.93608856201172"/>
    <path stroke-width="0" fill="rgb(-16, 18, -42)" opacity="0.30506435" stroke="rgb(95, 118, 70)" stroke-opacity="1.0" stroke-linecap="round" stroke-linejoin="round" d="M 414.14044189453125 250.84591674804688 C 409.63385009765625 255.82415771484375 401.47235107421875 226.1239013671875 403.76812744140625 291.8078918457031 C 402.85205078125 217.10076904296875 394.4036865234375 251.59584045410156 400.8155822753906 244.0017547607422 C 406.675537109375 257.7651672363281 405.6900329589844 254.3638153076172 402.18426513671875 252.17788696289062 C 402.378662109375 255.8981475830078 409.15277099609375 244.4159393310547 414.14044189453125 250.84591674804688"/>
    <path stroke-width="0" fill="rgb(63, 109, 1)" opacity="0.5904472" stroke="rgb(182, 100, 144)" stroke-opacity="1.0" stroke-linecap="round" stroke-linejoin="round" d="M 103.97149658203125 449.8830261230469 C 106.72379302978516 359.3139343261719 101.75677490234375 420.9150390625 100.9858627319336 446.1680908203125 C 101.7400894165039 452.0588073730469 107.72936248779297 447.7559509277344 100.84687042236328 448.4222717285156 C 99.60832214355469 448.2028503417969 102.49260711669922 442.8846740722656 99.79936981201172 446.25531005859375 C 101.59519958496094 450.67437744140625 97.42030334472656 447.77972412109375 103.97149658203125 449.8830261230469"/>
    <path stroke-width="0" fill="rgb(131, 166, 202)" opacity="0.8053099" stroke="rgb(140, 149, 245)" stroke-opacity="1.0" stroke-linecap="round" stroke-linejoin="round" d="M 380.1205749511719 368.0533142089844 C 331.3558654785156 378.293701171875 360.2948913574219 375.45294189453125 350.3446960449219 375.9886474609375 C 338.781982421875 384.1108093261719 304.35992431640625 360.73333740234375 320.766357421875 386.50543212890625 C 350.2383117675781 381.10711669921875 329.499267578125 381.65447998046875 351.7671203613281 373.2491760253906 C 375.8526916503906 374.7041015625 336.8111877441406 369.207275390625 380.1205749511719 368.0533142089844"/>
    <path stroke-width="0" fill="rgb(254, 247, 242)" opacity="0.7951011" stroke="rgb(61, 25, 4)" stroke-opacity="1.0" stroke-linecap="round" stroke-linejoin="round" d="M 432.6737365722656 336.19915771484375 C 424.19964599609375 336.3828430175781 444.18853759765625 347.6046142578125 445.3775634765625 381.3057861328125 C 426.9646301269531 392.8131103515625 399.3915100097656 380.25634765625 436.0879211425781 402.6847229003906 C 382.7969970703125 332.1797790527344 456.96832275390625 368.2057800292969 460.76324462890625 344.3778991699219 C 454.8959045410156 364.7740478515625 433.65386962890625 335.48406982421875 432.6737365722656 336.19915771484375"/>
    <path stroke-width="0" fill="rgb(286, 262, 269)" opacity="0.4548065" stroke="rgb(170, 200, 71)" stroke-opacity="1.0" stroke-linecap="round" stroke-linejoin="round" d="M 351.16473388671875 290.1612243652344 C 369.4730224609375 277.49151611328125 353.06201171875 283.0255432128906 334.34832763671875 336.4213562011719 C 329.08526611328125 313.1468811035156 316.79473876953125 312.6620178222656 353.31512451171875 278.007568359375 C 354.75140380859375 280.8520202636719 345.28240966796875 248.37022399902344 331.88653564453125 274.2474060058594 C 342.3296813964844 250.83538818359375 357.90350341796875 273.1259765625 351.16473388671875 290.1612243652344"/>
    <path stroke-width="0" fill="rgb(166, 199, 154)" opacity="0.050040215" stroke="rgb(16, 123, 249)" stroke-opacity="1.0" stroke-linecap="round" stroke-linejoin="round" d="M 336.05316162109375 320.33001708984375 C 359.0422058105469 352.591796875 369.462646484375 332.0425109863281 311.2577209472656 341.0816955566406 C 403.44927978515625 346.9790344238281 346.42608642578125 337.22930908203125 346.5770263671875 322.6471252441406 C 337.8399963378906 338.66265869140625 316.8479309082031 330.4290466308594 309.3971862792969 304.5478820800781 C 329.89727783203125 345.48663330078125 342.8314514160156 326.79144287109375 336.05316162109375 320.33001708984375"/>
    <path stroke-width="0" fill="rgb(268, 253, 254)" opacity="1.0107653" stroke="rgb(86, 245, 59)" stroke-opacity="1.0" stroke-linecap="round" stroke-linejoin="round" d="M 13.977070808410645 360.5565490722656 C 23.153810501098633 236.73443603515625 78.644775390625 330.3550109863281 32.68276596069336 338.4420166015625 C 1.4893994331359863 332.97369384765625 38.27318572998047 338.7209167480469 26.1810245513916 334.7146911621094 C 28.833255767822266 328.2519226074219 39.71981430053711 313.4131164550781 67.59281921386719 309.6770935058594 C 44.78727340698242 315.0218505859375 32.3509407043457 313.5201110839844 13.977070808410645 360.5565490722656"/>
    <path stroke-width="0" fill="rgb(33, 37, 32)" opacity="0.4904551" stroke="rgb(126, 163, 93)" stroke-opacity="1.0" stroke-linecap="round" stroke-linejoin="round" d="M 357.5087890625 342.2486267089844 C 349.71319580078125 340.6672058105469 373.1576843261719 376.41448974609375 316.8293151855469 366.94122314453125 C 321.9851989746094 363.67462158203125 306.4969787597656 369.637451171875 348.89532470703125 367.7628479003906 C 361.9416198730469 354.1651611328125 361.4985046386719 335.85516357421875 321.62371826171875 340.9251403808594 C 322.9254455566406 330.33001708984375 311.5924072265625 347.0780334472656 357.5087890625 342.2486267089844"/>
    <path stroke-width="0" fill="rgb(116, 147, 84)" opacity="0.6755828" stroke="rgb(231, 197, 84)" stroke-opacity="1.0" stroke-linecap="round" stroke-linejoin="round" d="M 101.09793090820312 -12.507899284362793 C 61.6125602722168 19.63121795654297 -6.679774761199951 75.64981079101562 0.4560852646827698 118.82278442382812 C -61.7617301940918 76.40123748779297 -38.88893508911133 43.44342041015625 -21.26168441772461 2.9527673721313477 C -17.32050895690918 -10.0 -10.0 -17.32050895690918 7.241615295410156 -24.014564514160156 C 31.09577178955078 -33.32636642456055 38.93543243408203 -15.198221206665039 101.09793090820312 -12.507899284362793"/>
    <path stroke-width="0" fill="rgb(155, 177, 153)" opacity="0.5013285" stroke="rgb(103, 59, 33)" stroke-opacity="1.0" stroke-linecap="round" stroke-linejoin="round" d="M 201.96694946289062 183.7337188720703 C 225.83631896972656 172.85755920410156 213.9451141357422 176.00234985351562 204.3504638671875 182.8183135986328 C 249.4665069580078 129.21722412109375 253.7465057373047 157.47085571289062 215.77664184570312 188.37518310546875 C 220.5064239501953 183.0122833251953 228.56942749023438 174.36831665039062 230.0264434814453 175.87269592285156 C 225.00514221191406 136.1448211669922 202.13162231445312 159.35496520996094 201.96694946289062 183.7337188720703"/>
    <path stroke-width="0" fill="rgb(264, 259, 256)" opacity="0.96903515" stroke="rgb(20, 22, 171)" stroke-opacity="1.0" stroke-linecap="round" stroke-linejoin="round" d="M 69.419921875 337.1169128417969 C 57.412078857421875 329.0419921875 49.541725158691406 334.75225830078125 73.3628158569336 335.6295471191406 C 104.60833740234375 336.1827392578125 45.12532424926758 354.9132080078125 22.02092933654785 326.1319580078125 C -14.277440071105957 442.515380859375 90.01349639892578 353.56353759765625 98.83857727050781 349.0744323730469 C 97.22807312011719 314.4111022949219 82.95265197753906 358.78961181640625 69.419921875 337.1169128417969"/>
    <path stroke-width="0" fill="rgb(241, 271, 196)" opacity="0.045757454" stroke="rgb(107, 142, 219)" stroke-opacity="1.0" stroke-linecap="round" stroke-linejoin="round" d="M 103.1304702758789 310.78741455078125 C 128.90892028808594 313.1851501464844 113.22491455078125 334.9709777832031 92.92436218261719 355.904541015625 C 5.582387924194336 405.54034423828125 1.42246413230896 251.88433837890625 96.3174819946289 270.4469909667969 C 143.01678466796875 316.08544921875 51.484012603759766 338.73553466796875 116.41657257080078 307.8854675292969 C 137.13043212890625 285.19610595703125 131.3042755126953 291.2719421386719 103.1304702758789 310.78741455078125"/>
    <path stroke-width="0" fill="rgb(1, -3, 33)" opacity="0.6993811" stroke="rgb(14, 177, 198)" stroke-opacity="1.0" stroke-linecap="round" stroke-linejoin="round" d="M 28.246545791625977 294.87359619140625 C 25.77518081665039 285.2416076660156 54.16122817993164 318.30548095703125 104.2256851196289 353.5525207519531 C 60.465267181396484 314.13427734375 18.363983154296875 290.3890075683594 24.709081649780273 278.7128601074219 C 20.461584091186523 290.4249267578125 37.99553680419922 274.2263488769531 23.366331100463867 317.7892761230469 C 7.790013313293457 293.7152099609375 42.08257293701172 287.385498046875 28.246545791625977 294.87359619140625"/>
    <path stroke-width="0" fill="rgb(143, 173, 142)" opacity="0.44959965" stroke="rgb(66, 95, 149)" stroke-opacity="1.0" stroke-linecap="round" stroke-linejoin="round" d="M 346.9147644042969 129.94691467285156 C 330.87042236328125 134.61944580078125 322.1691589355469 136.9038848876953 316.7708435058594 135.94886779785156 C 380.8841552734375 128.42767333984375 367.2850036621094 135.06829833984375 356.63543701171875 114.84624481201172 C 299.4349060058594 136.19384765625 278.9878234863281 96.85633850097656 324.8752136230469 103.38351440429688 C 356.51043701171875 149.7809295654297 368.4405517578125 161.34153747558594 346.9147644042969 129.94691467285156"/>
    <path stroke-width="0" fill="rgb(5, -9, 52)" opacity="0.80967516" stroke="rgb(203, 19, 132)" stroke-opacity="1.0" stroke-linecap="round" stroke-linejoin="round" d="M 431.23443603515625 363.25604248046875 C 518.0037231445312 414.8434143066406 514.6759643554688 409.60894775390625 438.5579528808594 363.61529541015625 C 399.11895751953125 341.6954650878906 487.4312744140625 364.2711181640625 421.13671875 353.0224914550781 C 429.8255310058594 367.1771545410156 447.62890625 361.0492858886719 400.1907958984375 341.463134765625 C 377.7450866699219 365.4186706542969 418.2854919433594 352.035400390625 431.23443603515625 363.25604248046875"/>
    <path stroke-width="0" fill="rgb(168, 164, 173)" opacity="0.4954858" stroke="rgb(109, 130, 136)" stroke-opacity="1.0" stroke-linecap="round" stroke-linejoin="round" d="M 330.448486328125 133.72305297851562 C 322.0567932128906 160.36326599121094 305.1663513183594 164.17266845703125 303.0339050292969 165.685546875 C 345.11810302734375 176.78379821777344 314.12603759765625 169.0411834716797 321.7301025390625 199.5028076171875 C 311.0231628417969 186.04534912109375 325.2206115722656 169.2602081298828 301.7192687988281 157.2305145263672 C 299.76025390625 158.66448974609375 323.044677734375 162.77896118164062 330.448486328125 133.72305297851562"/>
    <path stroke-width="0" fill="rgb(0, -35, 4)" opacity="0.6684723" stroke="rgb(70, 32, 100)" stroke-opacity="1.0" stroke-linecap="round" stroke-linejoin="round" d="M 194.98257446289062 403.7248229980469 C 98.01293182373047 347.0485534667969 42.120018005371094 343.1907653808594 132.12313842773438 354.4472961425781 C 123.44134521484375 323.9517517089844 126.41136169433594 336.9913635253906 129.4899139404297 350.0805358886719 C 88.26567077636719 349.9278259277344 115.84007263183594 368.054931640625 158.2335662841797 454.86431884765625 C 76.62857055664062 309.9427795410156 99.13554382324219 359.9772033691406 194.98257446289062 403.7248229980469"/>
    <path stroke-width="0" fill="rgb(158, 177, 163)" opacity="0.8184549" stroke="rgb(224, 116, 184)" stroke-opacity="1.0" stroke-linecap="round" stroke-linejoin="round" d="M 196.1903076171875 183.16384887695312 C 169.57614135742188 173.41481018066406 165.74278259277344 180.25946044921875 178.578125 189.2632598876953 C 201.84548950195312 158.2744598388672 195.9947052001953 162.07666015625 190.59742736816406 166.75839233398438 C 180.56251525878906 193.78892517089844 199.41859436035156 181.56028747558594 210.4907989501953 184.92181396484375 C 190.7713623046875 173.72740173339844 164.15673828125 217.25579833984375 196.1903076171875 183.16384887695312"/>
    <path stroke-width="0" fill="rgb(30, 85, 24)" opacity="0.34549835" stroke="rgb(192, 162, 61)" stroke-opacity="1.0" stroke-linecap="round" stroke-linejoin="round" d="M 7.678645133972168 329.4915771484375 C 78.39970397949219 348.70526123046875 53.168094635009766 330.74444580078125 50.173030853271484 302.1014404296875 C 52.13651657104492 314.4037780761719 53.464691162109375 305.6803894042969 49.58171463012695 308.2580261230469 C 54.43609619140625 307.4509582519531 46.04365921020508 308.7616271972656 54.279876708984375 313.3252868652344 C 56.77450180053711 328.72576904296875 71.13545227050781 349.8409729003906 7.678645133972168 329.4915771484375"/>
    <path stroke-width="0" fill="rgb(16, 15, 33)" opacity="0.26883194" stroke="rgb(90, 90, 4)" stroke-opacity="1.0" stroke-linecap="round" stroke-linejoin="round" d="M 162.53640747070312 161.6775665283203 C 159.95596313476562 164.8261260986328 165.2531280517578 164.47140502929688 185.2230224609375 158.66055297851562 C 162.5975799560547 164.86302185058594 161.69540405273438 157.39840698242188 156.8791961669922 207.49496459960938 C 159.30072021484375 170.46885681152344 168.41831970214844 164.94664001464844 170.924560546875 163.84710693359375 C 157.95391845703125 165.3631134033203 183.42929077148438 145.06666564941406 162.53640747070312 161.6775665283203"/>
    <path stroke-width="0" fill="rgb(166, 157, 179)" opacity="0.39079192" stroke="rgb(248, 252, 104)" stroke-opacity="1.0" stroke-linecap="round" stroke-linejoin="round" d="M 102.64378356933594 238.9838409423828 C 103.93150329589844 219.80752563476562 103.90357971191406 240.09442138671875 127.27539825439453 244.5274658203125 C 134.6295166015625 204.6865692138672 116.5500259399414 217.20269775390625 120.9148178100586 240.74346923828125 C 110.85985565185547 233.97097778320312 128.56771850585938 150.67755126953125 118.62552642822266 187.29696655273438 C 121.1060562133789 207.43455505371094 129.2474365234375 242.8341827392578 102.64378356933594 238.9838409423828"/>
    <path stroke-width="0" fill="rgb(-1, 12, -6)" opacity="0.67464685" stroke="rgb(162, 125, 252)" stroke-opacity="1.0" stroke-linecap="round" stroke-linejoin="round" d="M 466.4178771972656 355.379150390625 C 365.08563232421875 359.6591796875 407.2763366699219 337.32342529296875 411.78192138671875 366.53668212890625 C 425.8790283203125 325.33355712890625 422.11309814453125 347.0517272949219 352.30059814453125 448.2228698730469 C 415.9422302246094 343.0671691894531 425.1121826171875 356.8892822265625 362.9883728027344 367.946533203125 C 363.1495361328125 378.0119323730469 377.2321472167969 345.24676513671875 466.4178771972656 355.379150390625"/>
    <path stroke-width="0" fill="rgb(115, 203, 122)" opacity="0.13103439" stroke="rgb(91, 211, 235)" stroke-opacity="1.0" stroke-linecap="round" stroke-linejoin="round" d="M 358.8790588378906 322.8235778808594 C 351.1429138183594 316.9234924316406 364.0606689453125 321.6881103515625 353.94781494140625 374.8174133300781 C 347.708251953125 372.75079345703125 363.87603759765625 376.30511474609375 361.7432861328125 322.2886047363281 C 355.0108947753906 323.2312927246094 357.1393127441406 318.03466796875 376.0873107910156 338.9762268066406 C 350.3697204589844 322.11395263671875 348.6944580078125 318.98577880859375 358.8790588378906 322.8235778808594"/>
    <path stroke-width="0" fill="rgb(78, 6, -8)" opacity="0.9915647" stroke="rgb(59, 88, 207)" stroke-opacity="1.0" stroke-linecap="round" stroke-linejoin="round" d="M 438.1584167480469 339.0795593261719 C 485.73565673828125 317.10430908203125 455.8679504394531 325.7431945800781 464.3926696777344 323.5630798339844 C 465.80029296875 325.90985107421875 464.8737487792969 320.43841552734375 475.7843017578125 317.87030029296875 C 464.0899658203125 324.5323791503906 473.3080139160156 315.0312805175781 482.7001037597656 318.2732238769531 C 430.83502197265625 336.08154296875 401.78851318359375 363.89892578125 438.1584167480469 339.0795593261719"/>
    <path stroke-width="0" fill="rgb(267, 244, 226)" opacity="0.016492989" stroke="rgb(63, 27, 242)" stroke-opacity="1.0" stroke-linecap="round" stroke-linejoin="round" d="M 106.33851623535156 401.53472900390625 C 43.89841079711914 431.2453308105469 57.238914489746094 448.8545837402344 24.832462310791016 387.42291259765625 C 120.22515106201172 411.07550048828125 96.85447692871094 409.6737365722656 51.97587203979492 408.7433166503906 C 78.02623748779297 448.65753173828125 114.47305297851562 460.66973876953125 97.51160430908203 410.5017395019531 C 79.57487487792969 409.26177978515625 76.92401123046875 405.990478515625 106.33851623535156 401.53472900390625"/>
    <path stroke-width="0" fill="rgb(132, 166, 123)" opacity="0.55852413" stroke="rgb(175, 14, 186)" stroke-opacity="1.0" stroke-linecap="round" stroke-linejoin="round" d="M 63.879154205322266 251.2318572998047 C 66.54330444335938 252.24514770507812 59.78373336791992 269.3763122558594 41.74427032470703 239.60736083984375 C 78.4339599609375 249.96188354492188 72.22249603271484 239.74362182617188 55.81076431274414 236.82144165039062 C 60.7423210144043 234.66708374023438 55.855712890625 118.57974243164062 41.86164093017578 245.23858642578125 C 126.34929656982422 208.95797729492188 149.06871032714844 260.2909851074219 63.879154205322266 251.2318572998047"/>
    <path stroke-width="0" fill="rgb(139, 155, 135)" opacity="0.56193435" stroke="rgb(213, 60, 128)" stroke-opacity="1.0" stroke-linecap="round" stroke-linejoin="round" d="M 62.54952621459961 248.92657470703125 C 89.5415267944336 254.7490997314453 86.5859146118164 243.62965393066406 48.11304473876953 238.9384002685547 C 38.43241882324219 244.67564392089844 75.50667572021484 236.3396453857422 120.6468734741211 228.54075622558594 C 74.84890747070312 236.16000366210938 67.112548828125 245.23703002929688 54.13254928588867 243.90431213378906 C 96.5682373046875 241.93516540527344 108.60955047607422 244.48167419433594 62.54952621459961 248.92657470703125"/>
    <path stroke-width="0" fill="rgb(2, 0, 28)" opacity="0.73112977" stroke="rgb(246, 139, 70)" stroke-opacity="1.0" stroke-linecap="round" stroke-linejoin="round" d="M 335.4427185058594 207.18280029296875 C 317.2436828613281 221.2381134033203 324.4977722167969 211.5823974609375 309.5082702636719 216.08897399902344 C 351.3028869628906 217.19093322753906 329.7776184082031 193.2642364501953 330.390625 238.96107482910156 C 332.2096862792969 234.7709503173828 337.8146057128906 205.05726623535156 340.3645324707031 221.47438049316406 C 332.5757751464844 223.4987030029297 342.3240661621094 233.50857543945312 335.4427185058594 207.18280029296875"/>
    <path stroke-width="0" fill="rgb(133, 185, 132)" opacity="0.6415119" stroke="rgb(228, 103, 140)" stroke-opacity="1.0" stroke-linecap="round" stroke-linejoin="round" d="M 406.6927185058594 218.77297973632812 C 398.85772705078125 245.62954711914062 384.6297912597656 246.3832550048828 427.16259765625 244.97256469726562 C 454.54888916015625 239.3697052001953 392.4224853515625 220.2294921875 391.13128662109375 238.18572998046875 C 398.64984130859375 231.94827270507812 398.9214782714844 251.54315185546875 402.7095947265625 238.4391632080078 C 397.5546875 247.9279327392578 407.7157287597656 241.63922119140625 406.6927185058594 218.77297973632812"/>
    <path stroke-width="0" fill="rgb(154, 166, 161)" opacity="0.6516094" stroke="rgb(64, 113, 26)" stroke-opacity="1.0" stroke-linecap="round" stroke-linejoin="round" d="M 139.39483642578125 234.3854217529297 C 107.23661041259766 228.44883728027344 114.23670196533203 223.5151824951172 120.426513671875 226.93896484375 C 139.78164672851562 241.99459838867188 100.10877227783203 243.4456329345703 70.6729965209961 237.8402099609375 C 145.87098693847656 228.58261108398438 68.66185760498047 205.72772216796875 122.50459289550781 233.93470764160156 C 108.90652465820312 244.51992797851562 148.14260864257812 249.2686309814453 139.39483642578125 234.3854217529297"/>
    <path stroke-width="0" fill="rgb(132, 142, 137)" opacity="0.30530357" stroke="rgb(0, 0, 0)" stroke-opacity="0.0" stroke-linecap="round" stroke-linejoin="round" d="M 326.3285217285156 0.5866902470588684 C 327.9635314941406 5.379046440124512 326.2581481933594 5.505492210388184 316.4690856933594 5.739525318145752 C 319.1253356933594 4.681819915771484 319.1127624511719 4.65669059753418 320.3534240722656 0.09818757325410843 C 318.82794189453125 -2.9384779930114746 320.7828674316406 -4.729885101318359 324.85809326171875 -4.880398750305176 C 328.6961975097656 -4.779848575592041 329.3521423339844 -3.8906891345977783 326.3285217285156 0.5866902470588684"/>
    <path stroke-width="0" fill="rgb(87, 136, 72)" opacity="0.29571888" stroke="rgb(0, 0, 0)" stroke-opacity="0.0" stroke-linecap="round" stroke-linejoin="round" d="M 516.8006591796875 22.05714225769043 C 516.6856689453125 29.218441009521484 515.0328369140625 36.0146484375 505.51568603515625 34.96311569213867 C 500.0318908691406 29.986169815063477 503.5730285644531 21.909135818481445 504.5293884277344 15.011534690856934 C 506.87835693359375 22.14603614807129 507.49066162109375 16.95733642578125 507.37164306640625 7.746170997619629 C 514.7539672851562 9.052909851074219 516.321044921875 15.665494918823242 516.8006591796875 22.05714225769043"/>
    <path stroke-width="0" fill="rgb(127, 109, 124)" opacity="0.4417593" stroke="rgb(0, 0, 0)" stroke-opacity="0.0" stroke-linecap="round" stroke-linejoin="round" d="M 26.635251998901367 3.2524492740631104 C 26.02791976928711 6.708593368530273 26.137842178344727 10.232470512390137 23.694910049438477 5.118422031402588 C 15.031450271606445 9.043754577636719 18.15006446838379 8.593851089477539 21.87537384033203 6.305269241333008 C 18.7327880859375 -2.6399550437927246 17.47797393798828 -3.605649948120117 21.381359100341797 -3.047898054122925 C 26.308441162109375 -0.8059508800506592 27.48615837097168 2.41308331489563 26.635251998901367 3.2524492740631104"/>
    <path stroke-width="0" fill="rgb(88, 98, 169)" opacity="0.1980816" stroke="rgb(0, 0, 0)" stroke-opacity="0.0" stroke-linecap="round" stroke-linejoin="round" d="M 516.6581420898438 13.23027515411377 C 515.3214721679688 17.856098175048828 514.0747680664062 18.70661735534668 511.9308776855469 13.097206115722656 C 504.3914794921875 15.026308059692383 500.6314392089844 14.093517303466797 498.9485778808594 12.105478286743164 C 497.64556884765625 5.193524360656738 500.5527038574219 6.205355644226074 507.1493835449219 11.483088493347168 C 513.8872680664062 11.111011505126953 515.268310546875 10.096538543701172 516.6581420898438 13.23027515411377"/>
    <path stroke-width="0" fill="rgb(170, 96, 143)" opacity="0.51248026" stroke="rgb(0, 0, 0)" stroke-opacity="0.0" stroke-linecap="round" stroke-linejoin="round" d="M 97.8885726928711 -3.2312631607055664 C 92.7127456665039 -0.5430013537406921 91.9540786743164 1.6895008087158203 98.0329818725586 2.710864543914795 C 98.60834503173828 1.8401081562042236 97.17963409423828 -1.833986759185791 94.03285217285156 -3.9711484909057617 C 89.95406341552734 -2.899209499359131 92.71546173095703 -5.8937578201293945 96.7063217163086 -6.96558141708374 C 100.74166107177734 -5.906624794006348 103.8768310546875 -3.0837278366088867 97.8885726928711 -3.2312631607055664"/>
    <path stroke-width="0" fill="rgb(147, 100, 113)" opacity="0.4635498" stroke="rgb(0, 0, 0)" stroke-opacity="0.0" stroke-linecap="round" stroke-linejoin="round" d="M 51.26845932006836 4.507081985473633 C 47.064640045166016 6.399226188659668 47.14075469970703 9.139115333557129 47.942955017089844 9.689614295959473 C 48.35104751586914 11.863231658935547 47.27650451660156 8.540693283081055 47.02104568481445 7.939871788024902 C 47.59633255004883 11.127747535705566 49.450042724609375 8.011686325073242 50.03607940673828 5.807202339172363 C 49.64705276489258 5.685389518737793 53.25895690917969 6.27233362197876 51.26845932006836 4.507081985473633"/>
    <path stroke-width="0" fill="rgb(125, 155, 121)" opacity="0.19783019" stroke="rgb(0, 0, 0)" stroke-opacity="0.0" stroke-linecap="round" stroke-linejoin="round" d="M 167.35293579101562 14.917694091796875 C 167.95413208007812 16.00115966796875 163.3754425048828 15.987434387207031 161.43362426757812 16.38777732849121 C 157.2985382080078 16.61377716064453 154.11416625976562 17.966421127319336 154.45689392089844 10.329367637634277 C 158.43663024902344 10.245823860168457 164.69400024414062 11.99966812133789 162.36581420898438 6.2499542236328125 C 161.35365295410156 7.579038619995117 166.4629364013672 8.927608489990234 167.35293579101562 14.917694091796875"/>
    <path stroke-width="0" fill="rgb(63, 149, 132)" opacity="0.12963814" stroke="rgb(0, 0, 0)" stroke-opacity="0.0" stroke-linecap="round" stroke-linejoin="round" d="M 419.79058837890625 16.913410186767578 C 423.9301452636719 23.975271224975586 423.8632507324219 24.060474395751953 421.7248840332031 18.552358627319336 C 413.9800720214844 22.717077255249023 409.8436279296875 21.92316246032715 414.7110900878906 22.795854568481445 C 415.3077697753906 15.91921329498291 414.4420471191406 7.688366889953613 413.0184020996094 13.738998413085938 C 422.36883544921875 16.96428680419922 425.8250427246094 17.726041793823242 419.79058837890625 16.913410186767578"/>
    <path stroke-width="0" fill="rgb(116, 138, 112)" opacity="0.2963728" stroke="rgb(0, 0, 0)" stroke-opacity="0.0" stroke-linecap="round" stroke-linejoin="round" d="M 56.0743408203125 4.64541482925415 C 52.87104797363281 4.468595504760742 48.06356430053711 7.040159225463867 47.67885971069336 12.871068000793457 C 46.85527038574219 4.013591766357422 42.744197845458984 2.1806583404541016 40.894840240478516 -1.196982979774475 C 39.76593780517578 -2.464306592941284 42.607784271240234 -5.353348255157471 46.534812927246094 -6.477860450744629 C 50.34416198730469 -5.341346740722656 52.26386642456055 -1.5997463464736938 56.0743408203125 4.64541482925415"/>
    <path stroke-width="0" fill="rgb(139, 116, 94)" opacity="0.38390762" stroke="rgb(0, 0, 0)" stroke-opacity="0.0" stroke-linecap="round" stroke-linejoin="round" d="M 47.94002914428711 18.220434188842773 C 50.181541442871094 16.340309143066406 47.12077331542969 15.02595329284668 47.50905227661133 17.429149627685547 C 47.24638748168945 21.4864501953125 46.13254928588867 17.9802303314209 48.4499397277832 13.107438087463379 C 46.53798294067383 14.75463581085205 48.14706039428711 12.044032096862793 49.11250686645508 11.743497848510742 C 48.691749572753906 12.040313720703125 48.025611877441406 17.27094078063965 47.94002914428711 18.220434188842773"/>
    <path stroke-width="0" fill="rgb(153, 154, 158)" opacity="0.107733324" stroke="rgb(0, 0, 0)" stroke-opacity="0.0" stroke-linecap="round" stroke-linejoin="round" d="M 389.7488098144531 445.2424621582031 C 388.4072265625 447.2243347167969 388.1540222167969 452.1749572753906 381.5349426269531 452.2197265625 C 379.8562927246094 452.9324951171875 377.26019287109375 447.85980224609375 375.070068359375 439.9670104980469 C 372.67333984375 437.75927734375 380.21661376953125 438.70147705078125 385.3898620605469 439.41900634765625 C 385.1507568359375 438.4980773925781 389.0254211425781 442.64453125 389.7488098144531 445.2424621582031"/>
    <path stroke-width="0" fill="rgb(232, 119, 54)" opacity="0.18162307" stroke="rgb(0, 0, 0)" stroke-opacity="0.0" stroke-linecap="round" stroke-linejoin="round" d="M 296.22607421875 377.4214172363281 C 300.6025085449219 377.4287414550781 295.2319641113281 378.37274169921875 288.0169372558594 378.91497802734375 C 285.64385986328125 381.7095947265625 284.9912414550781 378.57049560546875 284.0210876464844 369.48760986328125 C 278.0386657714844 366.3544616699219 279.3183898925781 364.3328857421875 287.6237487792969 365.4939270019531 C 289.4058837890625 370.36053466796875 292.8944091796875 373.2550048828125 296.22607421875 377.4214172363281"/>
    <path stroke-width="0" fill="rgb(98, 157, 136)" opacity="0.5843799" stroke="rgb(0, 0, 0)" stroke-opacity="0.0" stroke-linecap="round" stroke-linejoin="round" d="M 462.63812255859375 241.55470275878906 C 462.2466735839844 239.25079345703125 458.6493835449219 239.54397583007812 453.9597473144531 245.11073303222656 C 454.94512939453125 245.02529907226562 457.2023010253906 235.85475158691406 454.93951416015625 237.78224182128906 C 455.98663330078125 239.34732055664062 458.309814453125 234.4081268310547 460.0983581542969 230.88116455078125 C 459.9029846191406 231.18502807617188 462.919189453125 235.06607055664062 462.63812255859375 241.55470275878906"/>
    <path stroke-width="0" fill="rgb(125, 119, 141)" opacity="0.08348747" stroke="rgb(0, 0, 0)" stroke-opacity="0.0" stroke-linecap="round" stroke-linejoin="round" d="M 351.930908203125 137.38201904296875 C 356.2388000488281 134.8185272216797 351.88262939453125 137.63941955566406 349.9787292480469 137.03579711914062 C 348.25372314453125 135.09039306640625 349.1354064941406 130.8206329345703 345.5471496582031 127.30022430419922 C 340.30810546875 129.94833374023438 350.328125 130.19822692871094 349.3681335449219 130.53797912597656 C 347.7007141113281 128.76800537109375 351.0870361328125 132.01646423339844 351.930908203125 137.38201904296875"/>
    <path stroke-width="0" fill="rgb(89, 96, 227)" opacity="0.08187775" stroke="rgb(0, 0, 0)" stroke-opacity="0.0" stroke-linecap="round" stroke-linejoin="round" d="M 421.9936218261719 254.32293701171875 C 424.542724609375 256.5727233886719 414.9818115234375 255.07276916503906 410.45806884765625 255.99087524414062 C 409.3950500488281 259.8700866699219 406.312744140625 257.4646911621094 408.1627197265625 251.23379516601562 C 408.8379211425781 248.79959106445312 410.1733703613281 245.975341796875 414.4949035644531 243.47401428222656 C 420.5950622558594 241.31190490722656 421.2151794433594 243.44805908203125 421.9936218261719 254.32293701171875"/>
    <path stroke-width="0" fill="rgb(73, 54, 192)" opacity="0.33612233" stroke="rgb(0, 0, 0)" stroke-opacity="0.0" stroke-linecap="round" stroke-linejoin="round" d="M 280.0791931152344 317.1780090332031 C 284.1514892578125 319.6385803222656 284.95794677734375 325.5443420410156 278.6547546386719 328.58160400390625 C 272.42626953125 321.12689208984375 268.32977294921875 316.8822326660156 268.3018493652344 312.621337890625 C 270.1880798339844 309.1064758300781 274.44580078125 308.7251892089844 279.5235595703125 308.2941589355469 C 275.8459167480469 309.7685241699219 277.7718505859375 315.0330810546875 280.0791931152344 317.1780090332031"/>
    <path stroke-width="0" fill="rgb(253, 159, 213)" opacity="0.26904455" stroke="rgb(0, 0, 0)" stroke-opacity="0.0" stroke-linecap="round" stroke-linejoin="round" d="M 157.5474853515625 -65.91089630126953 C 156.47569274902344 -61.9109001159668 153.5474853515625 -58.982696533203125 149.5474853515625 -57.9109001159668 C 145.5474853515625 -58.982696533203125 142.61927795410156 -61.9109001159668 141.5474853515625 -65.91089630126953 C 142.61927795410156 -69.91089630126953 145.5474853515625 -72.83910369873047 149.5474853515625 -73.91089630126953 C 153.5474853515625 -72.83910369873047 156.47569274902344 -69.91089630126953 157.5474853515625 -65.91089630126953"/>
    <path stroke-width="0" fill="rgb(109, 164, 149)" opacity="0.32467362" stroke="rgb(0, 0, 0)" stroke-opacity="0.0" stroke-linecap="round" stroke-linejoin="round" d="M 45.08793640136719 289.63360595703125 C 45.32516860961914 290.4139709472656 41.876522064208984 292.5347900390625 36.95231628417969 291.6424255371094 C 36.7586784362793 297.99981689453125 36.08551025390625 298.5615539550781 38.16276168823242 297.0038757324219 C 38.31500244140625 287.6427917480469 38.732749938964844 285.6888427734375 41.88922882080078 287.8686218261719 C 38.544857025146484 293.950439453125 42.10780715942383 296.20648193359375 45.08793640136719 289.63360595703125"/>
    <path stroke-width="0" fill="rgb(148, 158, 90)" opacity="0.32604197" stroke="rgb(0, 0, 0)" stroke-opacity="0.0" stroke-linecap="round" stroke-linejoin="round" d="M 280.1336975097656 45.20254135131836 C 277.2206726074219 46.99243927001953 278.3255310058594 51.29345703125 272.207763671875 49.79399871826172 C 273.52880859375 53.52412033081055 272.9459228515625 51.97698211669922 272.7611083984375 46.327125549316406 C 272.94171142578125 41.81610870361328 272.7449951171875 39.9100456237793 274.9188537597656 42.747745513916016 C 285.3813171386719 42.516441345214844 288.0710754394531 43.14692306518555 280.1336975097656 45.20254135131836"/>
    <path stroke-width="0" fill="rgb(195, 221, 96)" opacity="0.100710645" stroke="rgb(0, 0, 0)" stroke-opacity="0.0" stroke-linecap="round" stroke-linejoin="round" d="M 21.859575271606445 7.874438285827637 C 24.16041374206543 17.94611930847168 26.218799591064453 16.862686157226562 13.232831001281738 14.997769355773926 C -2.111356019973755 15.678464889526367 4.8043718338012695 16.531599044799805 -0.14530257880687714 6.002962589263916 C 4.947896957397461 -0.8696314692497253 8.965258598327637 -3.3154823780059814 14.185864448547363 -4.505964756011963 C 21.493038177490234 -4.517516136169434 23.012948989868164 -1.5143295526504517 21.859575271606445 7.874438285827637"/>
    <path stroke-width="0" fill="rgb(125, 183, 228)" opacity="0.009263576" stroke="rgb(0, 0, 0)" stroke-opacity="0.0" stroke-linecap="round" stroke-linejoin="round" d="M 245.4122772216797 91.82199096679688 C 235.96258544921875 96.72611999511719 232.831298828125 99.58650207519531 231.54782104492188 106.43948364257812 C 229.46385192871094 103.82233428955078 228.56277465820312 98.47872924804688 227.8861541748047 96.06802368164062 C 227.0659942626953 92.80706787109375 228.74400329589844 87.59427642822266 229.71640014648438 89.31517028808594 C 236.6606903076172 89.30455780029297 242.46580505371094 89.43614959716797 245.4122772216797 91.82199096679688"/>
    <path stroke-width="0" fill="rgb(155, 213, 254)" opacity="0.0800238" stroke="rgb(0, 0, 0)" stroke-opacity="0.0" stroke-linecap="round" stroke-linejoin="round" d="M 79.19285583496094 -24.607269287109375 C 78.12105560302734 -20.607269287109375 75.19285583496094 -17.679065704345703 71.19285583496094 -16.607269287109375 C 67.19285583496094 -17.679065704345703 64.2646484375 -20.607269287109375 63.19285583496094 -24.607269287109375 C 64.2646484375 -28.607269287109375 67.19285583496094 -31.535472869873047 71.19285583496094 -32.607269287109375 C 75.19285583496094 -31.535472869873047 78.12105560302734 -28.607269287109375 79.19285583496094 -24.607269287109375"/>
    <path stroke-width="0" fill="rgb(101, 146, 97)" opacity="0.24551286" stroke="rgb(0, 0, 0)" stroke-opacity="0.0" stroke-linecap="round" stroke-linejoin="round" d="M 236.01409912109375 9.146069526672363 C 236.5052947998047 15.687889099121094 235.52719116210938 17.971681594848633 234.75006103515625 17.196897506713867 C 229.4293975830078 16.795047760009766 225.91116333007812 17.15186882019043 226.88209533691406 13.719144821166992 C 223.96340942382812 4.810229778289795 225.22988891601562 6.6804070472717285 233.90882873535156 8.031611442565918 C 236.8543243408203 6.572022438049316 234.91937255859375 8.099283218383789 236.01409912109375 9.146069526672363"/>
    <path stroke-width="0" fill="rgb(84, 212, 58)" opacity="0.014211481" stroke="rgb(0, 0, 0)" stroke-opacity="0.0" stroke-linecap="round" stroke-linejoin="round" d="M 135.59495544433594 52.297508239746094 C 130.54649353027344 54.53176498413086 127.06936645507812 57.98269271850586 122.39445495605469 62.941123962402344 C 122.47481536865234 59.875938415527344 117.91630554199219 57.208221435546875 117.2988510131836 54.51894760131836 C 121.55924224853516 52.974544525146484 125.7885513305664 50.940513610839844 128.72821044921875 49.09193420410156 C 127.63678741455078 47.85850143432617 129.54537963867188 51.22677230834961 135.59495544433594 52.297508239746094"/>
    <path stroke-width="0" fill="rgb(152, 263, 157)" opacity="-0.00745937" stroke="rgb(0, 0, 0)" stroke-opacity="0.0" stroke-linecap="round" stroke-linejoin="round" d="M 183.65101623535156 369.9943542480469 C 177.4539794921875 371.6585998535156 174.939453125 375.8391418457031 174.8692169189453 378.8464660644531 C 177.0665283203125 383.52374267578125 174.03753662109375 381.5420837402344 175.61936950683594 379.97503662109375 C 175.801513671875 373.365478515625 176.64645385742188 369.4047546386719 180.4185791015625 366.9439392089844 C 184.03692626953125 368.9344177246094 185.8174285888672 373.2199401855469 183.65101623535156 369.9943542480469"/>
    <path stroke-width="0" fill="rgb(117, 44, 6)" opacity="0.19610055" stroke="rgb(0, 0, 0)" stroke-opacity="0.0" stroke-linecap="round" stroke-linejoin="round" d="M 371.35369873046875 252.83885192871094 C 365.3326721191406 251.7118377685547 362.3804626464844 253.75057983398438 361.583984375 259.19903564453125 C 360.5869445800781 257.6625061035156 360.91796875 251.13662719726562 357.74713134765625 241.9576873779297 C 354.0541076660156 247.084716796875 360.2603454589844 247.85948181152344 358.4635314941406 249.86521911621094 C 359.54595947265625 252.29098510742188 363.5769958496094 252.4511260986328 371.35369873046875 252.83885192871094"/>
    <path stroke-width="0" fill="rgb(152, 122, 107)" opacity="0.13958278" stroke="rgb(0, 0, 0)" stroke-opacity="0.0" stroke-linecap="round" stroke-linejoin="round" d="M 61.67264938354492 436.2524719238281 C 59.29658508300781 437.2622985839844 60.24510192871094 445.4022521972656 58.7476692199707 446.5219421386719 C 49.94231033325195 440.6603088378906 44.68180465698242 439.5463562011719 45.355560302734375 435.7205810546875 C 53.65995407104492 437.72686767578125 56.82280349731445 437.3320617675781 58.913848876953125 430.4850769042969 C 56.74639129638672 425.51947021484375 57.458702087402344 431.4524841308594 61.67264938354492 436.2524719238281"/>
    <path stroke-width="0" fill="rgb(217, 219, 205)" opacity="0.16543628" stroke="rgb(0, 0, 0)" stroke-opacity="0.0" stroke-linecap="round" stroke-linejoin="round" d="M 459.00225830078125 385.24749755859375 C 454.55767822265625 389.4874572753906 451.361083984375 393.8967590332031 446.3175964355469 399.1206970214844 C 442.109619140625 392.47705078125 437.695068359375 390.4963684082031 436.9526672363281 387.0748291015625 C 438.0332946777344 379.76416015625 442.3650207519531 379.426025390625 447.0389404296875 376.4665832519531 C 455.99151611328125 372.97955322265625 458.4610290527344 374.8905334472656 459.00225830078125 385.24749755859375"/>
    <path stroke-width="0" fill="rgb(154, 172, 154)" opacity="0.34910265" stroke="rgb(0, 0, 0)" stroke-opacity="0.0" stroke-linecap="round" stroke-linejoin="round" d="M 93.33020782470703 63.721214294433594 C 93.87857818603516 59.696434020996094 94.77828216552734 66.06983947753906 95.69084930419922 64.84555053710938 C 92.81035614013672 64.16705322265625 89.5666732788086 61.07966613769531 88.23519897460938 60.40690231323242 C 90.00743865966797 63.54293441772461 90.23146057128906 58.406742095947266 90.19717407226562 56.223388671875 C 92.37482452392578 60.423824310302734 94.80703735351562 64.43975830078125 93.33020782470703 63.721214294433594"/>
    <path stroke-width="0" fill="rgb(146, 153, 146)" opacity="0.13581324" stroke="rgb(0, 0, 0)" stroke-opacity="0.0" stroke-linecap="round" stroke-linejoin="round" d="M 163.4365692138672 79.81517028808594 C 165.18910217285156 85.92652130126953 165.13565063476562 88.10752868652344 159.90859985351562 82.78013610839844 C 153.62384033203125 81.27436828613281 149.1726837158203 83.68171691894531 149.0701904296875 77.19441223144531 C 149.24459838867188 72.62379455566406 156.8713836669922 74.09483337402344 161.19058227539062 66.47048950195312 C 163.14894104003906 67.78511047363281 164.50230407714844 75.79994201660156 163.4365692138672 79.81517028808594"/>
    <path stroke-width="0" fill="rgb(75, 105, 120)" opacity="0.010033821" stroke="rgb(0, 0, 0)" stroke-opacity="0.0" stroke-linecap="round" stroke-linejoin="round" d="M 408.3302917480469 514.1307373046875 C 410.2483215332031 515.984130859375 407.32012939453125 518.9122924804688 403.32012939453125 519.984130859375 C 399.3170166015625 518.9122924804688 396.3099365234375 515.9767456054688 395.8509521484375 512.5195922851562 C 395.8141174316406 508.3420715332031 399.89984130859375 506.2134704589844 405.01031494140625 504.3502502441406 C 406.15228271484375 504.8162841796875 407.9144592285156 509.33740234375 408.3302917480469 514.1307373046875"/>
    <path stroke-width="0" fill="rgb(116, 121, 157)" opacity="0.070622995" stroke="rgb(0, 0, 0)" stroke-opacity="0.0" stroke-linecap="round" stroke-linejoin="round" d="M 303.9649658203125 233.86813354492188 C 297.5280456542969 233.27317810058594 293.1617736816406 233.8848876953125 290.3158874511719 238.7101287841797 C 289.9422912597656 241.6595458984375 292.1246643066406 240.66598510742188 289.8760070800781 237.96649169921875 C 288.8111572265625 230.66383361816406 290.0650634765625 225.08462524414062 296.9189453125 220.47340393066406 C 301.8280334472656 220.9949951171875 303.6422119140625 227.24658203125 303.9649658203125 233.86813354492188"/>
    <path stroke-width="0" fill="rgb(126, 148, 138)" opacity="0.25260788" stroke="rgb(0, 0, 0)" stroke-opacity="0.0" stroke-linecap="round" stroke-linejoin="round" d="M 319.914306640625 67.52275848388672 C 321.8632507324219 79.21137237548828 323.986083984375 80.55244445800781 321.753173828125 76.65338134765625 C 315.1222229003906 76.86246490478516 312.23486328125 76.93602752685547 316.7602844238281 76.74234771728516 C 315.4892272949219 65.55613708496094 315.348388671875 64.71510314941406 315.0971984863281 67.38114166259766 C 326.8756103515625 67.51079559326172 326.6966247558594 68.28878021240234 319.914306640625 67.52275848388672"/>
    <path stroke-width="0" fill="rgb(201, 88, 220)" opacity="0.0022224747" stroke="rgb(0, 0, 0)" stroke-opacity="0.0" stroke-linecap="round" stroke-linejoin="round" d="M 149.03033447265625 123.43639373779297 C 148.372314453125 127.69116973876953 145.79481506347656 130.69943237304688 143.85337829589844 133.98899841308594 C 142.35885620117188 132.76498413085938 138.61854553222656 128.90858459472656 139.31890869140625 125.73589324951172 C 139.44313049316406 123.31587219238281 141.43179321289062 119.76559448242188 143.6149139404297 117.47737121582031 C 148.521728515625 119.46125030517578 151.08184814453125 122.31800079345703 149.03033447265625 123.43639373779297"/>
    <path stroke-width="0" fill="rgb(58, 77, 169)" opacity="0.0126519585" stroke="rgb(0, 0, 0)" stroke-opacity="0.0" stroke-linecap="round" stroke-linejoin="round" d="M 482.78594970703125 452.46466064453125 C 478.7628479003906 452.38421630859375 474.1087646484375 453.2292175292969 469.5945739746094 453.64862060546875 C 468.4937744140625 456.322509765625 467.901611328125 453.3243713378906 466.9881896972656 446.17218017578125 C 463.0432434082031 442.4318542480469 466.1124267578125 440.2222900390625 470.707763671875 445.0633544921875 C 471.94677734375 449.11590576171875 477.42803955078125 448.70745849609375 482.78594970703125 452.46466064453125"/>
    <path stroke-width="0" fill="rgb(132, 108, 136)" opacity="0.015240913" stroke="rgb(0, 0, 0)" stroke-opacity="0.0" stroke-linecap="round" stroke-linejoin="round" d="M 182.46875 331.3072204589844 C 175.94879150390625 331.8808288574219 171.48728942871094 331.8797607421875 169.02572631835938 332.6142578125 C 173.5570831298828 332.2120056152344 174.32650756835938 327.416748046875 165.32395935058594 326.4288330078125 C 161.84112548828125 325.69970703125 165.09872436523438 319.50177001953125 170.5026092529297 319.7226867675781 C 177.83592224121094 323.7069091796875 181.40179443359375 326.0583801269531 182.46875 331.3072204589844"/>
    <path stroke-width="0" fill="rgb(87, 132, 207)" opacity="0.04542319" stroke="rgb(0, 0, 0)" stroke-opacity="0.0" stroke-linecap="round" stroke-linejoin="round" d="M 298.2567138671875 207.56201171875 C 297.5368957519531 213.45974731445312 299.1922302246094 217.69638061523438 294.89703369140625 220.0800018310547 C 287.80889892578125 218.62115478515625 290.10919189453125 208.72201538085938 286.8858337402344 203.15835571289062 C 285.970947265625 202.5676727294922 288.49737548828125 199.36981201171875 294.0234680175781 199.80303955078125 C 295.6924743652344 199.06622314453125 299.2381286621094 203.01454162597656 298.2567138671875 207.56201171875"/>
    <path stroke-width="0" fill="rgb(125, 175, 224)" opacity="0.12794048" stroke="rgb(0, 0, 0)" stroke-opacity="0.0" stroke-linecap="round" stroke-linejoin="round" d="M 186.37811279296875 283.7759094238281 C 187.4423065185547 287.2657775878906 187.37606811523438 294.26788330078125 183.11618041992188 292.6039123535156 C 182.088623046875 286.8960876464844 179.06207275390625 283.6699523925781 175.8656005859375 279.8468933105469 C 176.57977294921875 278.9663391113281 181.52198791503906 272.8961486816406 183.6164093017578 271.68072509765625 C 186.03823852539062 279.23333740234375 189.0143585205078 282.269287109375 186.37811279296875 283.7759094238281"/>
    <path stroke-width="0" fill="rgb(71, 165, 95)" opacity="0.35170966" stroke="rgb(0, 0, 0)" stroke-opacity="0.0" stroke-linecap="round" stroke-linejoin="round" d="M 41.61334228515625 6.5798821449279785 C 36.64271545410156 4.9418230056762695 36.442787170410156 10.70266056060791 34.7248420715332 15.234909057617188 C 31.43756866455078 15.438735008239746 33.886043548583984 5.552075386047363 32.04859924316406 0.13526834547519684 C 28.477882385253906 -3.071615695953369 30.783065795898438 -4.448911190032959 33.037841796875 -2.6805455684661865 C 36.08665084838867 -0.30341944098472595 38.32880401611328 3.7127227783203125 41.61334228515625 6.5798821449279785"/>
    <path stroke-width="0" fill="rgb(1, 17, 109)" opacity="0.97816974" stroke="rgb(0, 0, 0)" stroke-opacity="0.0" stroke-linecap="round" stroke-linejoin="round" d="M 470.90863037109375 257.1516418457031 C 465.90118408203125 262.951171875 461.1392822265625 262.3952331542969 457.77789306640625 258.5289611816406 C 455.385009765625 257.1481018066406 452.4486083984375 254.38478088378906 445.3348083496094 253.14588928222656 C 443.9669189453125 245.9556884765625 445.6038818359375 244.544677734375 453.1018371582031 246.90284729003906 C 465.0304260253906 245.25193786621094 469.73077392578125 245.6727294921875 470.90863037109375 257.1516418457031"/>
    <path stroke-width="0" fill="rgb(149, 134, 75)" opacity="0.41684908" stroke="rgb(0, 0, 0)" stroke-opacity="0.0" stroke-linecap="round" stroke-linejoin="round" d="M -21.84418487548828 -77.20195007324219 C -22.91598129272461 -73.20195007324219 -25.84418487548828 -70.27374267578125 -29.84418487548828 -69.20195007324219 C -33.84418487548828 -70.27374267578125 -36.77238845825195 -73.20195007324219 -37.84418487548828 -77.20195007324219 C -36.77238845825195 -81.20195007324219 -33.84418487548828 -84.1301498413086 -29.84418487548828 -85.20195007324219 C -25.84418487548828 -84.1301498413086 -22.91598129272461 -81.20195007324219 -21.84418487548828 -77.20195007324219"/>
  </g>
</svg>
