<?xml version="1.0" ?>
<svg xmlns="http://www.w3.org/2000/svg" version="1.1" width="512" height="512">
  <defs/>
  <g>
    <path stroke-width="0" fill="rgb(-7, 1, 5)" opacity="1.020165" stroke="rgb(139, 182, 153)" stroke-opacity="1.0" stroke-linecap="round" stroke-linejoin="round" d="M 356.44036865234375 216.3172149658203 C 384.955810546875 218.47610473632812 278.2284851074219 215.75088500976562 264.0684814453125 212.33775329589844 C 129.56552124023438 213.64163208007812 150.00079345703125 206.76829528808594 148.7157745361328 197.7872314453125 C 214.1817626953125 199.81033325195312 265.5320129394531 210.4837188720703 268.30218505859375 207.4208984375 C 201.80572509765625 207.97116088867188 248.04920959472656 196.05465698242188 356.44036865234375 216.3172149658203"/>
    <path stroke-width="0" fill="rgb(82, 87, 84)" opacity="0.55242044" stroke="rgb(108, 164, 111)" stroke-opacity="1.0" stroke-linecap="round" stroke-linejoin="round" d="M 248.54779052734375 650.0521850585938 C -235.0873565673828 573.4728393554688 297.55938720703125 113.75865936279297 178.2320556640625 421.5279541015625 C -127.59312438964844 552.3751220703125 333.1154479980469 167.12965393066406 29.738603591918945 276.8227233886719 C 116.3640365600586 668.1591796875 -110.55870819091797 702.1951904296875 -42.956966400146484 -49.47345733642578 C 461.3573913574219 -99.73860931396484 458.9576721191406 -91.28157806396484 248.54779052734375 650.0521850585938"/>
    <path stroke-width="0" fill="rgb(34, 34, 32)" opacity="0.9933415" stroke="rgb(245, 97, 201)" stroke-opacity="1.0" stroke-linecap="round" stroke-linejoin="round" d="M 778.927490234375 368.2381591796875 C 378.7843017578125 602.4985961914062 208.63304138183594 622.2976684570312 281.7586364746094 314.0345153808594 C 190.42742919921875 346.0757751464844 434.7510070800781 548.849853515625 497.6858215332031 374.7112121582031 C 527.11376953125 137.30564880371094 135.6326141357422 382.620849609375 256.3911437988281 -24.605527877807617 C 449.6614074707031 -97.54769134521484 769.5654296875 -107.06083679199219 778.927490234375 368.2381591796875"/>
    <path stroke-width="0" fill="rgb(-6, 3, 4)" opacity="0.99784243" stroke="rgb(144, 236, 18)" stroke-opacity="1.0" stroke-linecap="round" stroke-linejoin="round" d="M 422.26629638671875 343.4129943847656 C 402.70654296875 348.27960205078125 411.2196960449219 579.9154663085938 408.255615234375 364.9659729003906 C 241.98226928710938 359.47955322265625 249.87350463867188 323.0518493652344 330.94647216796875 348.8283386230469 C 436.7327575683594 333.0095520019531 394.11895751953125 376.756591796875 320.2743835449219 163.5185546875 C 412.3110046386719 344.4248352050781 406.96612548828125 344.002197265625 422.26629638671875 343.4129943847656"/>
    <path stroke-width="0" fill="rgb(2, 2, 4)" opacity="0.99205124" stroke="rgb(5, 212, 198)" stroke-opacity="1.0" stroke-linecap="round" stroke-linejoin="round" d="M 196.62033081054688 142.83090209960938 C 191.24688720703125 173.08230590820312 158.7156524658203 170.76304626464844 163.19351196289062 134.7420654296875 C 128.65081787109375 280.7835693359375 165.7310028076172 217.25038146972656 166.55430603027344 150.27691650390625 C 187.7657928466797 173.02685546875 138.6073760986328 111.00252532958984 145.28424072265625 173.99179077148438 C 177.62518310546875 266.39208984375 112.19102478027344 114.36099243164062 196.62033081054688 142.83090209960938"/>
    <path stroke-width="0" fill="rgb(254, 251, 248)" opacity="1.0226088" stroke="rgb(249, 203, 117)" stroke-opacity="1.0" stroke-linecap="round" stroke-linejoin="round" d="M 138.90296936035156 274.3104553222656 C 214.45401000976562 298.1455078125 163.0413360595703 301.6898193359375 131.41650390625 332.9739990234375 C 147.0599365234375 290.30169677734375 168.44149780273438 273.2421875 154.219482421875 291.8102111816406 C 159.36082458496094 295.1405334472656 174.13937377929688 295.4772033691406 162.44676208496094 284.8074951171875 C 133.49009704589844 272.1990661621094 147.29718017578125 281.1775817871094 138.90296936035156 274.3104553222656"/>
    <path stroke-width="0" fill="rgb(257, 259, 258)" opacity="0.9858092" stroke="rgb(30, 163, 36)" stroke-opacity="1.0" stroke-linecap="round" stroke-linejoin="round" d="M 152.6363525390625 320.4060974121094 C 172.94789123535156 262.23321533203125 247.10586547851562 349.3421936035156 150.14723205566406 317.4777526855469 C 121.12445068359375 343.6195983886719 94.50309753417969 354.7137451171875 118.6282958984375 335.6680908203125 C 155.8997344970703 277.9071350097656 119.77204132080078 241.89166259765625 174.15988159179688 288.52783203125 C 177.20974731445312 312.07269287109375 180.9021453857422 294.6781005859375 152.6363525390625 320.4060974121094"/>
    <path stroke-width="0" fill="rgb(-2, 1, -1)" opacity="1.0009441" stroke="rgb(133, 105, 67)" stroke-opacity="1.0" stroke-linecap="round" stroke-linejoin="round" d="M 131.23892211914062 439.543212890625 C 139.98428344726562 472.84100341796875 -18.198055267333984 450.05877685546875 10.835919380187988 337.4610290527344 C 11.698238372802734 477.6843566894531 158.9674530029297 439.8704528808594 132.39389038085938 439.9695129394531 C 108.59398651123047 481.8118591308594 298.7413024902344 379.52056884765625 147.0 250.35911560058594 C 288.3179016113281 413.0809326171875 76.18186950683594 464.15576171875 131.23892211914062 439.543212890625"/>
    <path stroke-width="0" fill="rgb(-3, -2, 0)" opacity="1.017051" stroke="rgb(116, 144, 4)" stroke-opacity="1.0" stroke-linecap="round" stroke-linejoin="round" d="M 11.420477867126465 390.8100891113281 C -18.43252182006836 341.3958740234375 -17.461515426635742 367.7455139160156 -25.773977279663086 336.8255920410156 C -7.329355716705322 378.7711181640625 -82.6480941772461 416.4699401855469 29.18656349182129 365.0084228515625 C -24.663341522216797 427.0457458496094 -6.737069606781006 190.00469970703125 165.03643798828125 262.0787353515625 C -61.19937515258789 209.3673858642578 33.59745788574219 500.54852294921875 11.420477867126465 390.8100891113281"/>
    <path stroke-width="0" fill="rgb(262, 259, 255)" opacity="0.9559745" stroke="rgb(156, 157, 240)" stroke-opacity="1.0" stroke-linecap="round" stroke-linejoin="round" d="M 361.1103820800781 281.7792053222656 C 333.2469482421875 380.1180725097656 386.4958190917969 322.2652893066406 300.59820556640625 353.57452392578125 C 307.31787109375 322.1795959472656 328.1309814453125 282.68035888671875 336.6860046386719 286.9570007324219 C 320.55792236328125 271.2793884277344 311.1083068847656 309.0153503417969 356.76580810546875 317.4739685058594 C 271.728515625 284.9953308105469 386.2572021484375 247.10951232910156 361.1103820800781 281.7792053222656"/>
    <path stroke-width="0" fill="rgb(-5, 0, 5)" opacity="0.99598575" stroke="rgb(91, 111, 177)" stroke-opacity="1.0" stroke-linecap="round" stroke-linejoin="round" d="M 124.50213623046875 308.13836669921875 C 125.2987060546875 298.7439880371094 101.04261016845703 349.0619812011719 125.5465316772461 325.60015869140625 C 113.75809478759766 337.5921630859375 154.12265014648438 161.06016540527344 172.62042236328125 142.67599487304688 C 127.50779724121094 331.32861328125 128.52584838867188 329.7539978027344 121.80702209472656 314.0554504394531 C 135.112060546875 285.8359375 119.2103500366211 293.8683166503906 124.50213623046875 308.13836669921875"/>
    <path stroke-width="0" fill="rgb(-2, 3, -2)" opacity="0.9758313" stroke="rgb(170, 171, 53)" stroke-opacity="1.0" stroke-linecap="round" stroke-linejoin="round" d="M 131.86036682128906 288.742431640625 C 97.02801513671875 409.6116943359375 123.29922485351562 284.3317565917969 102.88258361816406 398.81231689453125 C 109.26220703125 311.68206787109375 92.84906005859375 405.47308349609375 97.25513458251953 337.7152404785156 C 86.36940002441406 322.49853515625 134.17575073242188 393.1477355957031 57.377899169921875 249.34442138671875 C 123.05039978027344 343.2806091308594 83.15823364257812 372.77435302734375 131.86036682128906 288.742431640625"/>
    <path stroke-width="0" fill="rgb(0, 0, 2)" opacity="0.9883843" stroke="rgb(80, 92, 145)" stroke-opacity="1.0" stroke-linecap="round" stroke-linejoin="round" d="M 298.65679931640625 296.4949645996094 C 292.6324462890625 286.1947326660156 291.514404296875 299.6095275878906 266.2828369140625 306.2527160644531 C 306.7774353027344 177.9194793701172 257.9642333984375 455.667724609375 389.6927795410156 443.7862548828125 C 239.9038848876953 403.4952697753906 323.3477478027344 181.5174102783203 484.3619384765625 282.32305908203125 C 353.1788024902344 156.80076599121094 275.4170837402344 388.5931701660156 298.65679931640625 296.4949645996094"/>
    <path stroke-width="0" fill="rgb(185, 189, 186)" opacity="0.9724362" stroke="rgb(252, 26, 53)" stroke-opacity="1.0" stroke-linecap="round" stroke-linejoin="round" d="M 392.7810363769531 206.88885498046875 C 293.8614501953125 215.87660217285156 298.5903625488281 222.74696350097656 375.3807678222656 212.22219848632812 C 238.25657653808594 204.19834899902344 185.36767578125 196.06964111328125 158.48411560058594 201.27362060546875 C 240.1034698486328 131.35072326660156 149.03538513183594 19.729999542236328 423.170654296875 106.38248443603516 C 449.0478515625 225.29049682617188 269.13800048828125 109.0802230834961 392.7810363769531 206.88885498046875"/>
    <path stroke-width="0" fill="rgb(179, 176, 168)" opacity="0.84665906" stroke="rgb(166, 64, 118)" stroke-opacity="1.0" stroke-linecap="round" stroke-linejoin="round" d="M 329.2764587402344 241.7466278076172 C 288.1493835449219 284.2198486328125 279.9539794921875 325.70172119140625 236.91790771484375 355.8628234863281 C 219.37942504882812 347.6626892089844 217.21656799316406 335.0506896972656 229.67466735839844 258.7591247558594 C 225.48260498046875 227.3415985107422 225.287841796875 209.9765625 273.4189147949219 215.44239807128906 C 355.34503173828125 216.5221710205078 336.9105224609375 210.96653747558594 329.2764587402344 241.7466278076172"/>
    <path stroke-width="0" fill="rgb(44, 92, 171)" opacity="0.9124464" stroke="rgb(40, 28, 167)" stroke-opacity="1.0" stroke-linecap="round" stroke-linejoin="round" d="M 316.3922119140625 266.8956604003906 C 313.999755859375 265.4588928222656 315.75311279296875 274.77459716796875 305.80242919921875 275.95928955078125 C 325.8102111816406 269.59527587890625 334.1689147949219 262.3036193847656 324.78521728515625 254.07452392578125 C 327.4972229003906 249.40093994140625 322.3713073730469 219.3985595703125 312.0096130371094 273.1451416015625 C 268.2166442871094 326.9509582519531 339.5018310546875 311.89300537109375 316.3922119140625 266.8956604003906"/>
    <path stroke-width="0" fill="rgb(176, 176, 174)" opacity="0.8578129" stroke="rgb(50, 94, 209)" stroke-opacity="1.0" stroke-linecap="round" stroke-linejoin="round" d="M 445.5321350097656 454.3703308105469 C 432.6621398925781 476.00897216796875 241.46466064453125 480.25164794921875 428.2096862792969 469.1532287597656 C 147.17735290527344 632.435302734375 351.54107666015625 314.99139404296875 199.7784881591797 385.4455261230469 C 225.3511505126953 291.0616760253906 135.4900360107422 256.7836608886719 203.67808532714844 300.22552490234375 C 333.2101135253906 357.7932434082031 289.35186767578125 461.3973693847656 445.5321350097656 454.3703308105469"/>
    <path stroke-width="0" fill="rgb(-2, 0, 3)" opacity="0.9579199" stroke="rgb(213, 24, 248)" stroke-opacity="1.0" stroke-linecap="round" stroke-linejoin="round" d="M 256.9927978515625 268.1343688964844 C 233.66639709472656 184.91590881347656 134.20999145507812 221.79550170898438 154.33526611328125 198.13087463378906 C 338.4866943359375 211.5898895263672 355.5276794433594 192.07235717773438 261.38275146484375 217.2405242919922 C 283.4717102050781 216.51304626464844 352.4422607421875 253.91940307617188 343.9728698730469 206.76319885253906 C 256.0918884277344 197.84866333007812 257.757080078125 246.921142578125 256.9927978515625 268.1343688964844"/>
    <path stroke-width="0" fill="rgb(39, 93, 174)" opacity="0.7541772" stroke="rgb(249, 154, 188)" stroke-opacity="1.0" stroke-linecap="round" stroke-linejoin="round" d="M 326.71441650390625 229.13516235351562 C 256.35406494140625 295.11932373046875 205.53419494628906 283.8864440917969 235.47923278808594 268.2337646484375 C 214.114013671875 278.238037109375 206.5970458984375 282.3087463378906 190.61570739746094 247.74034118652344 C 140.63873291015625 272.97509765625 144.11537170410156 194.5677947998047 172.81761169433594 214.23104858398438 C 266.4273986816406 212.14755249023438 315.06768798828125 212.0724334716797 326.71441650390625 229.13516235351562"/>
    <path stroke-width="0" fill="rgb(3, 0, -1)" opacity="0.32542002" stroke="rgb(72, 30, 75)" stroke-opacity="1.0" stroke-linecap="round" stroke-linejoin="round" d="M 213.5076446533203 28.91611099243164 C -30.217227935791016 149.08677673339844 112.60272216796875 176.5406951904297 0.3722551167011261 346.71258544921875 C -91.27090454101562 156.0547637939453 -36.26716232299805 116.5959701538086 -31.709943771362305 36.69902801513672 C -31.88047218322754 10.4307222366333 -24.965839385986328 4.1932501792907715 12.00648307800293 -3.860191822052002 C 86.38479614257812 -2.2393345832824707 169.12294006347656 -68.49217224121094 213.5076446533203 28.91611099243164"/>
    <path stroke-width="0" fill="rgb(127, 125, 128)" opacity="0.78700674" stroke="rgb(81, 105, 16)" stroke-opacity="1.0" stroke-linecap="round" stroke-linejoin="round" d="M 289.08660888671875 50.46055221557617 C 4.157632827758789 88.24372100830078 167.7789306640625 229.65467834472656 27.017393112182617 273.6253356933594 C 4.691745281219482 73.4447021484375 167.7258758544922 25.81502342224121 196.29995727539062 19.74418830871582 C 47.92605972290039 19.471689224243164 89.65108489990234 -61.29941940307617 132.39842224121094 -87.8855209350586 C 156.80435180664062 -111.46991729736328 202.69876098632812 -175.0561981201172 289.08660888671875 50.46055221557617"/>
    <path stroke-width="0" fill="rgb(182, 184, 184)" opacity="0.7085243" stroke="rgb(144, 67, 133)" stroke-opacity="1.0" stroke-linecap="round" stroke-linejoin="round" d="M 328.7594299316406 -20.418493270874023 C 287.66363525390625 212.9421844482422 206.75701904296875 173.38978576660156 217.20101928710938 187.5296630859375 C 149.03567504882812 198.19813537597656 154.3199005126953 217.48077392578125 170.65553283691406 162.1479034423828 C 273.06158447265625 171.56964111328125 169.527099609375 78.27935028076172 97.19483947753906 215.5235595703125 C 185.89401245117188 12.401813507080078 346.97943115234375 25.795269012451172 328.7594299316406 -20.418493270874023"/>
    <path stroke-width="0" fill="rgb(55, 106, 178)" opacity="0.9614895" stroke="rgb(146, 236, 81)" stroke-opacity="1.0" stroke-linecap="round" stroke-linejoin="round" d="M 392.2808837890625 349.65643310546875 C 411.8657531738281 388.4974670410156 322.5882263183594 344.9691467285156 239.5609588623047 405.5943298339844 C 343.5769348144531 341.48333740234375 262.7374267578125 433.7635192871094 202.8157958984375 314.2476501464844 C 127.36128997802734 188.95407104492188 96.72734832763672 259.1492919921875 331.1316223144531 219.0236358642578 C 303.5426330566406 395.3406677246094 256.2414855957031 354.97735595703125 392.2808837890625 349.65643310546875"/>
    <path stroke-width="0" fill="rgb(183, 190, 186)" opacity="0.98167664" stroke="rgb(33, 182, 73)" stroke-opacity="1.0" stroke-linecap="round" stroke-linejoin="round" d="M 311.0065612792969 283.57611083984375 C 274.8559875488281 375.2607727050781 312.6671447753906 306.39569091796875 251.6468963623047 335.3250732421875 C 229.41429138183594 305.9357604980469 206.69654846191406 273.1730651855469 171.89630126953125 232.05384826660156 C 156.6861114501953 204.98257446289062 122.12984466552734 213.48712158203125 270.4844055175781 212.2119140625 C 364.0175476074219 224.33834838867188 336.3346252441406 193.688232421875 311.0065612792969 283.57611083984375"/>
    <path stroke-width="0" fill="rgb(136, 135, 132)" opacity="0.46173272" stroke="rgb(149, 5, 211)" stroke-opacity="1.0" stroke-linecap="round" stroke-linejoin="round" d="M 517.4192504882812 351.4132080078125 C 411.4672546386719 141.320556640625 378.73529052734375 218.09886169433594 380.4730529785156 228.7989959716797 C 301.7595520019531 103.62691497802734 266.2370300292969 58.87031173706055 108.83599090576172 145.56224060058594 C 171.6499786376953 -2.13790225982666 213.43394470214844 52.26444625854492 293.26373291015625 -33.41707992553711 C 493.6112365722656 -48.55717849731445 596.889404296875 -59.37101364135742 517.4192504882812 351.4132080078125"/>
    <path stroke-width="0" fill="rgb(180, 181, 172)" opacity="0.9462009" stroke="rgb(172, 68, 187)" stroke-opacity="1.0" stroke-linecap="round" stroke-linejoin="round" d="M 477.4596862792969 273.79351806640625 C 514.2439575195312 301.2503662109375 444.4674377441406 223.6091766357422 366.0350036621094 254.68516540527344 C 349.1961669921875 214.79400634765625 321.2849426269531 193.52635192871094 361.1344299316406 160.93789672851562 C 252.89593505859375 131.10098266601562 267.6107177734375 168.05210876464844 369.2516784667969 179.92971801757812 C 491.8635559082031 101.12012481689453 481.6795654296875 158.5177764892578 477.4596862792969 273.79351806640625"/>
    <path stroke-width="0" fill="rgb(-2, 0, -1)" opacity="1.0082685" stroke="rgb(63, 146, 150)" stroke-opacity="1.0" stroke-linecap="round" stroke-linejoin="round" d="M 313.2464904785156 275.8111572265625 C 343.3702087402344 172.65274047851562 355.99859619140625 183.68496704101562 325.9313049316406 264.8522033691406 C 323.97235107421875 264.84283447265625 327.55841064453125 255.7957763671875 326.34661865234375 262.4303283691406 C 327.4443359375 258.0618591308594 326.4427490234375 266.86273193359375 323.07861328125 262.4121398925781 C 328.5575866699219 264.11517333984375 319.1039733886719 290.03521728515625 313.2464904785156 275.8111572265625"/>
    <path stroke-width="0" fill="rgb(90, 91, 87)" opacity="0.7581113" stroke="rgb(56, 242, 114)" stroke-opacity="1.0" stroke-linecap="round" stroke-linejoin="round" d="M 14.615340232849121 163.67349243164062 C -10.865283012390137 348.1593933105469 17.727136611938477 83.6233139038086 -24.996963500976562 68.8592529296875 C -33.61650848388672 65.88433074951172 -35.86575698852539 55.43598556518555 -32.76543045043945 39.18471145629883 C -0.7412997484207153 -13.175549507141113 18.75796127319336 -48.181983947753906 266.85235595703125 18.411849975585938 C 236.6227569580078 78.01644134521484 141.24940490722656 -92.1536865234375 14.615340232849121 163.67349243164062"/>
    <path stroke-width="0" fill="rgb(-4, -2, 2)" opacity="1.0074213" stroke="rgb(178, 75, 207)" stroke-opacity="1.0" stroke-linecap="round" stroke-linejoin="round" d="M 484.3636474609375 448.9473876953125 C 536.5927734375 268.80865478515625 442.2241516113281 279.95184326171875 464.8971252441406 262.9715576171875 C 521.5046997070312 308.68597412109375 497.74359130859375 336.5462951660156 507.6580505371094 316.1007995605469 C 509.0299377441406 404.2821350097656 504.4530334472656 409.13653564453125 495.6713562011719 370.00616455078125 C 497.19659423828125 463.29986572265625 300.5927734375 455.4912109375 484.3636474609375 448.9473876953125"/>
    <path stroke-width="0" fill="rgb(52, 56, 57)" opacity="0.92102337" stroke="rgb(224, 148, 224)" stroke-opacity="1.0" stroke-linecap="round" stroke-linejoin="round" d="M 59.343284606933594 481.574462890625 C 24.100236892700195 418.512939453125 42.22956085205078 447.67431640625 56.178016662597656 541.1256103515625 C -19.940673828125 506.51226806640625 -12.346762657165527 481.3254089355469 -11.597484588623047 440.7764587402344 C -33.01291275024414 414.1160888671875 -26.156949996948242 417.9560241699219 1.3856194019317627 430.535400390625 C 41.45582580566406 441.9390869140625 32.21195602416992 449.3009948730469 59.343284606933594 481.574462890625"/>
    <path stroke-width="0" fill="rgb(73, 76, 75)" opacity="0.78694445" stroke="rgb(184, 127, 243)" stroke-opacity="1.0" stroke-linecap="round" stroke-linejoin="round" d="M 129.70912170410156 455.7367858886719 C 76.67957305908203 462.76708984375 70.7386245727539 489.04669189453125 58.14214324951172 495.6072998046875 C 11.034185409545898 491.1654052734375 69.58281707763672 435.8951721191406 -14.941040992736816 432.6131591796875 C -13.111061096191406 397.34967041015625 -17.41407585144043 378.87255859375 5.030691146850586 375.4050598144531 C 20.407482147216797 427.0454406738281 66.81558227539062 457.98065185546875 129.70912170410156 455.7367858886719"/>
    <path stroke-width="0" fill="rgb(123, 125, 115)" opacity="0.98303866" stroke="rgb(108, 154, 4)" stroke-opacity="1.0" stroke-linecap="round" stroke-linejoin="round" d="M 97.83432006835938 364.4265441894531 C 80.78732299804688 395.4624938964844 59.39874267578125 439.4471435546875 66.58137512207031 425.88671875 C 65.4740219116211 435.2408752441406 41.34795379638672 407.4230651855469 29.71906089782715 389.5714416503906 C -5.111090183258057 319.3700256347656 28.182371139526367 358.8965759277344 101.46469116210938 342.0903625488281 C 94.11216735839844 357.6824951171875 50.36639404296875 412.3440856933594 97.83432006835938 364.4265441894531"/>
    <path stroke-width="0" fill="rgb(101, 104, 102)" opacity="0.72967947" stroke="rgb(168, 73, 157)" stroke-opacity="1.0" stroke-linecap="round" stroke-linejoin="round" d="M 168.6880340576172 438.33831787109375 C 301.95806884765625 501.8376770019531 186.79376220703125 547.0352783203125 23.737228393554688 544.0706176757812 C 11.251142501831055 543.2071533203125 3.708277463912964 537.02392578125 4.711513042449951 528.0599365234375 C 28.037351608276367 459.9523620605469 30.228649139404297 448.4357604980469 35.707374572753906 458.2657470703125 C 119.03422546386719 464.2264404296875 144.0359344482422 441.1122741699219 168.6880340576172 438.33831787109375"/>
    <path stroke-width="0" fill="rgb(2, 3, 2)" opacity="0.9127218" stroke="rgb(34, 76, 145)" stroke-opacity="1.0" stroke-linecap="round" stroke-linejoin="round" d="M 169.7624969482422 139.11390686035156 C 161.04183959960938 149.8141326904297 155.07533264160156 147.57264709472656 189.7954864501953 144.44322204589844 C 190.955322265625 143.6230926513672 176.11424255371094 144.1517791748047 151.12940979003906 147.72015380859375 C 186.43394470214844 147.9825439453125 195.09754943847656 145.84454345703125 161.2254638671875 165.52108764648438 C 158.48828125 157.35890197753906 144.46902465820312 163.04010009765625 169.7624969482422 139.11390686035156"/>
    <path stroke-width="0" fill="rgb(78, 82, 70)" opacity="0.8754113" stroke="rgb(146, 166, 166)" stroke-opacity="1.0" stroke-linecap="round" stroke-linejoin="round" d="M 60.418582916259766 525.3652954101562 C 47.256099700927734 539.38818359375 38.75363540649414 545.7471313476562 27.42095375061035 546.61962890625 C -6.0 521.3204956054688 -13.320508003234863 514.0 -38.8088264465332 480.6268615722656 C -40.56005096435547 466.486083984375 -38.658382415771484 451.0536193847656 6.611911296844482 391.0774230957031 C 60.322139739990234 481.0400390625 132.10797119140625 479.12689208984375 60.418582916259766 525.3652954101562"/>
    <path stroke-width="0" fill="rgb(121, 121, 125)" opacity="0.8423379" stroke="rgb(182, 254, 38)" stroke-opacity="1.0" stroke-linecap="round" stroke-linejoin="round" d="M 518.435791015625 376.8128356933594 C 582.5340576171875 359.4997253417969 477.5922546386719 267.5460510253906 428.2267761230469 239.0654296875 C 469.1116638183594 149.44268798828125 318.6611022949219 40.11978530883789 247.4952392578125 86.97103118896484 C 61.96215057373047 -9.927525520324707 317.3172607421875 -34.736236572265625 372.0673522949219 3.261502265930176 C 424.453369140625 7.953607559204102 549.8616943359375 9.03351879119873 518.435791015625 376.8128356933594"/>
    <path stroke-width="0" fill="rgb(85, 86, 83)" opacity="0.59562624" stroke="rgb(41, 156, 31)" stroke-opacity="1.0" stroke-linecap="round" stroke-linejoin="round" d="M 103.53544616699219 481.9326171875 C 157.9459228515625 503.0775146484375 67.84264373779297 516.3597412109375 66.43521881103516 518.9755249023438 C 52.30848693847656 492.27655029296875 55.364749908447266 433.000244140625 72.7061538696289 486.2754211425781 C -3.108837842941284 407.1813049316406 -9.15059757232666 409.4634094238281 31.280488967895508 446.8580017089844 C 77.4060287475586 454.4584655761719 79.19505310058594 467.3269958496094 103.53544616699219 481.9326171875"/>
    <path stroke-width="0" fill="rgb(94, 95, 96)" opacity="0.6774098" stroke="rgb(205, 145, 103)" stroke-opacity="1.0" stroke-linecap="round" stroke-linejoin="round" d="M 69.26091003417969 448.0743713378906 C 185.4023895263672 490.9568176269531 210.15513610839844 533.2838134765625 55.98169708251953 503.9696350097656 C -32.15636444091797 448.2440490722656 -37.972320556640625 392.98126220703125 73.4128646850586 501.5232849121094 C -32.062469482421875 440.6073303222656 -23.878583908081055 446.3622741699219 22.01921844482422 438.0516662597656 C 10.601459503173828 382.6794738769531 18.83186912536621 424.0558166503906 69.26091003417969 448.0743713378906"/>
    <path stroke-width="0" fill="rgb(83, 81, 77)" opacity="0.71531916" stroke="rgb(177, 115, 184)" stroke-opacity="1.0" stroke-linecap="round" stroke-linejoin="round" d="M 97.69256591796875 496.73052978515625 C 66.21260833740234 530.2487182617188 58.235652923583984 537.3594360351562 65.87216186523438 530.3167114257812 C 21.82420539855957 481.8343200683594 -44.304927825927734 492.6759338378906 -56.34417724609375 496.2074890136719 C -1.0405356884002686 455.7156066894531 -11.923786163330078 460.8006896972656 -20.075332641601562 446.70477294921875 C 29.299654006958008 433.1637268066406 31.66598129272461 468.5867919921875 97.69256591796875 496.73052978515625"/>
    <path stroke-width="0" fill="rgb(255, 16, 42)" opacity="0.7431269" stroke="rgb(248, 218, 2)" stroke-opacity="1.0" stroke-linecap="round" stroke-linejoin="round" d="M 363.9062805175781 170.4398651123047 C 345.1614074707031 180.99746704101562 349.3564147949219 173.93263244628906 324.9359130859375 159.16929626464844 C 333.1932678222656 173.9438934326172 312.3683776855469 148.3982696533203 335.4856872558594 168.2481689453125 C 372.1539611816406 193.72315979003906 347.9248962402344 153.9352264404297 336.8050231933594 204.58326721191406 C 348.8551940917969 222.45811462402344 346.7026672363281 172.22959899902344 363.9062805175781 170.4398651123047"/>
    <path stroke-width="0" fill="rgb(-4, 0, 6)" opacity="0.98819196" stroke="rgb(186, 43, 132)" stroke-opacity="1.0" stroke-linecap="round" stroke-linejoin="round" d="M 180.33798217773438 301.9922180175781 C 190.7971954345703 264.84027099609375 115.6929931640625 251.32594299316406 149.1377410888672 244.07481384277344 C 159.05047607421875 261.99359130859375 136.81002807617188 237.25381469726562 138.7988739013672 254.52755737304688 C 138.6342010498047 249.0094451904297 192.41778564453125 247.34169006347656 86.4723129272461 257.70428466796875 C 124.76022338867188 253.67398071289062 166.77427673339844 268.6011657714844 180.33798217773438 301.9922180175781"/>
    <path stroke-width="0" fill="rgb(113, 112, 116)" opacity="0.6128943" stroke="rgb(50, 4, 202)" stroke-opacity="1.0" stroke-linecap="round" stroke-linejoin="round" d="M 247.17654418945312 453.5728454589844 C 232.5095977783203 575.4146118164062 137.86891174316406 552.87890625 164.2021942138672 560.23046875 C 223.02810668945312 471.1077575683594 150.92343139648438 405.6965026855469 132.40939331054688 479.7052307128906 C 57.50963592529297 447.7151794433594 98.58493041992188 484.3193664550781 77.95816040039062 447.78106689453125 C 160.7617950439453 469.76123046875 143.66412353515625 400.2396240234375 247.17654418945312 453.5728454589844"/>
    <path stroke-width="0" fill="rgb(257, 254, 254)" opacity="0.9014282" stroke="rgb(88, 236, 179)" stroke-opacity="1.0" stroke-linecap="round" stroke-linejoin="round" d="M 89.48211669921875 359.7775573730469 C 114.99120330810547 388.771240234375 6.548407554626465 399.82293701171875 27.913175582885742 389.4906921386719 C 88.78568267822266 402.96136474609375 110.6706314086914 333.580810546875 59.653438568115234 433.94244384765625 C 32.8470344543457 377.4820556640625 8.045655250549316 402.735595703125 77.36824798583984 371.8553466796875 C 0.1734718680381775 405.8997802734375 20.952512741088867 390.2295227050781 89.48211669921875 359.7775573730469"/>
    <path stroke-width="0" fill="rgb(115, 114, 116)" opacity="0.4609607" stroke="rgb(41, 158, 147)" stroke-opacity="1.0" stroke-linecap="round" stroke-linejoin="round" d="M 380.958740234375 7.892077445983887 C 184.14520263671875 -13.584604263305664 270.51507568359375 99.68856811523438 516.128173828125 109.04159545898438 C 503.97515869140625 -82.21255493164062 50.11481475830078 -55.616207122802734 -3.4400975704193115 281.7366027832031 C -42.29154968261719 -39.571598052978516 311.1370544433594 -43.757633209228516 300.9450378417969 -23.052719116210938 C 397.912109375 -0.7234331965446472 412.6079406738281 14.527918815612793 380.958740234375 7.892077445983887"/>
    <path stroke-width="0" fill="rgb(153, 156, 154)" opacity="0.5905097" stroke="rgb(238, 156, 136)" stroke-opacity="1.0" stroke-linecap="round" stroke-linejoin="round" d="M 448.16778564453125 255.45338439941406 C 331.3524169921875 221.76998901367188 438.15643310546875 4.636700630187988 429.4990539550781 124.13214111328125 C 108.03258514404297 158.91339111328125 179.90789794921875 75.991455078125 81.67900848388672 251.8480682373047 C -11.966979026794434 76.61478424072266 459.1582336425781 5.168981552124023 318.8764343261719 42.84455108642578 C 301.6518859863281 9.177979469299316 525.1856079101562 30.48850440979004 448.16778564453125 255.45338439941406"/>
    <path stroke-width="0" fill="rgb(97, 102, 104)" opacity="0.8856296" stroke="rgb(186, 79, 101)" stroke-opacity="1.0" stroke-linecap="round" stroke-linejoin="round" d="M 544.7787475585938 323.5734558105469 C 547.3452758789062 544.0161743164062 540.02099609375 551.331298828125 442.26995849609375 579.9825439453125 C 290.9891357421875 689.1616821289062 224.8623046875 741.0399169921875 219.8506317138672 474.2830810546875 C 347.4784851074219 409.0521545410156 425.3431396484375 502.5392761230469 495.27679443359375 400.8414306640625 C 550.9979248046875 283.8250732421875 401.4828796386719 231.92601013183594 544.7787475585938 323.5734558105469"/>
    <path stroke-width="0" fill="rgb(82, 101, 94)" opacity="0.40402415" stroke="rgb(47, 240, 188)" stroke-opacity="1.0" stroke-linecap="round" stroke-linejoin="round" d="M 404.4176025390625 301.4376220703125 C 401.7662353515625 294.8818054199219 407.5051574707031 271.02532958984375 398.65460205078125 333.376220703125 C 403.68890380859375 249.58229064941406 397.3045654296875 274.1474914550781 404.88360595703125 289.0514221191406 C 401.0212707519531 281.3121032714844 401.5016174316406 249.6271514892578 402.3670349121094 255.5496063232422 C 404.2168273925781 241.12892150878906 404.05059814453125 301.6697082519531 404.4176025390625 301.4376220703125"/>
    <path stroke-width="0" fill="rgb(96, 97, 96)" opacity="0.33293548" stroke="rgb(57, 64, 14)" stroke-opacity="1.0" stroke-linecap="round" stroke-linejoin="round" d="M 143.5458526611328 463.05230712890625 C 245.5916290283203 509.8330078125 152.612060546875 504.1414489746094 53.61656188964844 541.2721557617188 C 42.44731140136719 537.2024536132812 37.819068908691406 530.1972045898438 94.1119155883789 515.2276611328125 C -87.08747100830078 408.418212890625 6.179049015045166 430.74639892578125 79.74589538574219 490.07977294921875 C 12.667962074279785 406.76068115234375 29.407854080200195 449.8812255859375 143.5458526611328 463.05230712890625"/>
    <path stroke-width="0" fill="rgb(236, 15, 30)" opacity="0.9941278" stroke="rgb(79, 177, 96)" stroke-opacity="1.0" stroke-linecap="round" stroke-linejoin="round" d="M 161.4185333251953 151.47056579589844 C 184.30291748046875 152.09751892089844 167.47930908203125 148.2205352783203 165.59814453125 157.83013916015625 C 166.65292358398438 151.59385681152344 178.2739715576172 149.14688110351562 164.9935760498047 152.4173583984375 C 176.54969787597656 148.5696258544922 200.11203002929688 155.79888916015625 191.46542358398438 140.0894317626953 C 126.27230834960938 132.35745239257812 140.96163940429688 179.4130096435547 161.4185333251953 151.47056579589844"/>
    <path stroke-width="0" fill="rgb(89, 85, 90)" opacity="0.8728722" stroke="rgb(6, 17, 173)" stroke-opacity="1.0" stroke-linecap="round" stroke-linejoin="round" d="M 17.551055908203125 434.3600769042969 C 29.215213775634766 440.9650573730469 34.843994140625 438.03424072265625 -62.257080078125 453.4593811035156 C -25.437917709350586 456.98138427734375 -32.49625015258789 449.58746337890625 -45.60737609863281 424.22027587890625 C -70.3058853149414 352.1531677246094 -50.93741989135742 351.74176025390625 4.302914619445801 361.33685302734375 C 16.95953369140625 419.0651550292969 32.62788772583008 433.6244201660156 17.551055908203125 434.3600769042969"/>
    <path stroke-width="0" fill="rgb(149, 150, 150)" opacity="0.52438736" stroke="rgb(136, 228, 252)" stroke-opacity="1.0" stroke-linecap="round" stroke-linejoin="round" d="M 452.06903076171875 232.2421417236328 C 412.2633361816406 322.71661376953125 450.8297424316406 68.21853637695312 262.0203857421875 88.40977478027344 C 253.859375 91.68980407714844 250.17910766601562 33.02263259887695 69.64181518554688 163.05043029785156 C 153.24667358398438 24.145477294921875 315.330810546875 21.122892379760742 365.6378479003906 -5.816265106201172 C 271.3490905761719 39.76460266113281 426.7669372558594 28.650737762451172 452.06903076171875 232.2421417236328"/>
    <path stroke-width="0" fill="rgb(137, 137, 138)" opacity="0.63589513" stroke="rgb(169, 67, 5)" stroke-opacity="1.0" stroke-linecap="round" stroke-linejoin="round" d="M 384.6134338378906 451.5400085449219 C 261.33868408203125 555.5226440429688 125.69864654541016 389.5237121582031 103.71949768066406 610.9859008789062 C 87.05445098876953 561.8491821289062 110.97525787353516 535.2816162109375 91.70178985595703 533.7200927734375 C 258.77276611328125 600.5908813476562 204.8387451171875 411.18914794921875 125.05723571777344 455.6612854003906 C 186.37477111816406 419.37567138671875 222.75526428222656 385.0179443359375 384.6134338378906 451.5400085449219"/>
    <path stroke-width="0" fill="rgb(92, 89, 85)" opacity="0.6747052" stroke="rgb(81, 97, 150)" stroke-opacity="1.0" stroke-linecap="round" stroke-linejoin="round" d="M 591.1006469726562 212.36123657226562 C 353.0091857910156 76.43497467041016 260.21087646484375 -70.6612548828125 262.18072509765625 101.02527618408203 C 329.8269958496094 114.00613403320312 303.49127197265625 116.27196502685547 259.8369140625 101.07677459716797 C 306.6181945800781 3.315270185470581 223.65354919433594 -52.96852493286133 423.0219421386719 -30.2554931640625 C 424.4058532714844 -9.5255708694458 514.520263671875 -17.944931030273438 591.1006469726562 212.36123657226562"/>
    <path stroke-width="0" fill="rgb(86, 81, 79)" opacity="0.76398164" stroke="rgb(160, 222, 69)" stroke-opacity="1.0" stroke-linecap="round" stroke-linejoin="round" d="M 2.2119007110595703 473.2911682128906 C 29.712995529174805 476.6921691894531 29.120452880859375 481.3607177734375 -22.11836051940918 473.7367248535156 C 10.457038879394531 452.3590087890625 -18.080373764038086 413.81536865234375 -30.1299991607666 414.26678466796875 C -29.795747756958008 421.0752258300781 -21.742794036865234 415.0025329589844 -13.255517959594727 409.713134765625 C 31.936262130737305 425.8990783691406 23.405826568603516 461.96478271484375 2.2119007110595703 473.2911682128906"/>
    <path stroke-width="0" fill="rgb(181, 182, 180)" opacity="0.8307706" stroke="rgb(47, 242, 175)" stroke-opacity="1.0" stroke-linecap="round" stroke-linejoin="round" d="M 335.3488464355469 246.8123321533203 C 333.94012451171875 220.42893981933594 323.7289733886719 301.24969482421875 347.9071044921875 259.52496337890625 C 341.2184753417969 219.819091796875 361.7883605957031 240.4161834716797 348.0684509277344 207.15292358398438 C 376.0792541503906 225.98898315429688 384.6805419921875 243.8221435546875 351.754638671875 230.42173767089844 C 340.3357849121094 252.22402954101562 347.8479309082031 194.05198669433594 335.3488464355469 246.8123321533203"/>
    <path stroke-width="0" fill="rgb(12, 10, 8)" opacity="0.84207267" stroke="rgb(241, 186, 64)" stroke-opacity="1.0" stroke-linecap="round" stroke-linejoin="round" d="M 532.4493408203125 348.20904541015625 C 402.06097412109375 386.9380798339844 433.4218444824219 292.4625549316406 441.04766845703125 364.0332336425781 C 385.4617614746094 338.0188293457031 426.9891052246094 345.426025390625 410.9031677246094 338.79248046875 C 528.6724853515625 190.28619384765625 383.15582275390625 333.0310363769531 412.5721435546875 396.83477783203125 C 396.17303466796875 312.0690002441406 462.973876953125 382.36871337890625 532.4493408203125 348.20904541015625"/>
    <path stroke-width="0" fill="rgb(171, 173, 169)" opacity="0.70449185" stroke="rgb(132, 6, 52)" stroke-opacity="1.0" stroke-linecap="round" stroke-linejoin="round" d="M 342.2836608886719 115.7734146118164 C 364.3941345214844 160.1654510498047 437.173583984375 176.2169952392578 304.8837585449219 156.53172302246094 C 139.985595703125 140.38648986816406 216.8754425048828 216.33494567871094 191.7786102294922 121.06690216064453 C 280.3062438964844 127.64998626708984 318.8738708496094 51.349082946777344 126.22989654541016 127.65365600585938 C 259.6531066894531 78.0074691772461 271.2051086425781 103.76518249511719 342.2836608886719 115.7734146118164"/>
    <path stroke-width="0" fill="rgb(6, 14, 4)" opacity="0.72225535" stroke="rgb(95, 118, 70)" stroke-opacity="1.0" stroke-linecap="round" stroke-linejoin="round" d="M 413.80517578125 254.64073181152344 C 406.1537780761719 253.64512634277344 395.44488525390625 227.68284606933594 403.07147216796875 296.8327331542969 C 407.1510009765625 222.5919647216797 396.7261047363281 256.83404541015625 401.18060302734375 249.4145965576172 C 406.1517639160156 255.75454711914062 408.4103088378906 249.81585693359375 400.42913818359375 252.50604248046875 C 399.90887451171875 257.49981689453125 407.8727722167969 247.23245239257812 413.80517578125 254.64073181152344"/>
    <path stroke-width="0" fill="rgb(181, 186, 186)" opacity="0.8779672" stroke="rgb(220, 29, 131)" stroke-opacity="1.0" stroke-linecap="round" stroke-linejoin="round" d="M 244.83615112304688 314.39434814453125 C 255.43629455566406 312.6081237792969 240.70204162597656 328.5376281738281 285.3421936035156 320.94158935546875 C 274.4855651855469 306.79742431640625 256.61090087890625 294.4544372558594 257.1925964355469 301.5687255859375 C 257.1784973144531 327.39422607421875 256.8094177246094 314.42950439453125 256.8537902832031 295.8221435546875 C 270.30413818359375 296.1888427734375 264.65521240234375 314.9834289550781 244.83615112304688 314.39434814453125"/>
    <path stroke-width="0" fill="rgb(42, 60, 55)" opacity="0.8785763" stroke="rgb(182, 100, 144)" stroke-opacity="1.0" stroke-linecap="round" stroke-linejoin="round" d="M 103.78704071044922 448.1515197753906 C 102.3759765625 368.75299072265625 98.71913146972656 427.7373352050781 101.56867980957031 445.72747802734375 C 100.51390838623047 450.2400207519531 108.6619644165039 443.4908447265625 102.03360748291016 449.5791931152344 C 102.662353515625 448.89178466796875 107.52738189697266 438.6769714355469 99.54039001464844 444.1880798339844 C 104.14573669433594 451.1824035644531 98.44479370117188 445.3885498046875 103.78704071044922 448.1515197753906"/>
    <path stroke-width="0" fill="rgb(39, 95, 176)" opacity="0.69756144" stroke="rgb(36, 124, 90)" stroke-opacity="1.0" stroke-linecap="round" stroke-linejoin="round" d="M 157.0637969970703 245.0212860107422 C 140.96939086914062 255.90992736816406 143.1718292236328 256.25347900390625 153.71600341796875 231.8518524169922 C 157.78240966796875 256.5257873535156 139.30934143066406 238.9506378173828 171.94912719726562 275.3710021972656 C 137.23544311523438 245.6071014404297 142.08050537109375 259.3690490722656 139.2308807373047 237.0817108154297 C 142.03025817871094 262.4181213378906 143.7627716064453 251.0264434814453 157.0637969970703 245.0212860107422"/>
    <path stroke-width="0" fill="rgb(190, 189, 195)" opacity="0.99029875" stroke="rgb(140, 149, 245)" stroke-opacity="1.0" stroke-linecap="round" stroke-linejoin="round" d="M 376.08184814453125 368.7929992675781 C 330.4456481933594 380.4159240722656 360.5009765625 382.0877990722656 353.12786865234375 378.82391357421875 C 332.83990478515625 385.4886779785156 295.16766357421875 359.118408203125 318.2983093261719 386.10089111328125 C 349.6471862792969 384.91925048828125 327.06365966796875 382.3001403808594 347.2717590332031 365.41693115234375 C 372.8330383300781 373.8197937011719 331.9486999511719 365.54205322265625 376.08184814453125 368.7929992675781"/>
    <path stroke-width="0" fill="rgb(264, 256, 250)" opacity="1.000616" stroke="rgb(61, 25, 4)" stroke-opacity="1.0" stroke-linecap="round" stroke-linejoin="round" d="M 436.1111145019531 339.6938781738281 C 425.1636962890625 337.4723205566406 443.2970886230469 348.21734619140625 444.33636474609375 379.2587585449219 C 430.3746337890625 388.7499694824219 402.4689636230469 378.5473327636719 435.61199951171875 403.29510498046875 C 382.02215576171875 332.3242492675781 458.8933410644531 364.2261657714844 462.039794921875 341.2977294921875 C 453.2230529785156 365.9750061035156 433.3887634277344 336.4114990234375 436.1111145019531 339.6938781738281"/>
    <path stroke-width="0" fill="rgb(253, 256, 254)" opacity="0.5985952" stroke="rgb(170, 200, 71)" stroke-opacity="1.0" stroke-linecap="round" stroke-linejoin="round" d="M 350.4747314453125 289.1514892578125 C 360.9308166503906 268.6617126464844 348.1711730957031 276.7741394042969 334.26544189453125 335.69134521484375 C 335.66650390625 316.6390075683594 323.4051513671875 317.901123046875 354.68798828125 280.0985107421875 C 352.5564270019531 281.8810729980469 345.3092041015625 248.65444946289062 331.1842956542969 278.5087585449219 C 339.705810546875 252.53958129882812 358.0711975097656 274.38116455078125 350.4747314453125 289.1514892578125"/>
    <path stroke-width="0" fill="rgb(141, 144, 128)" opacity="0.32076976" stroke="rgb(16, 123, 249)" stroke-opacity="1.0" stroke-linecap="round" stroke-linejoin="round" d="M 334.4650573730469 322.07733154296875 C 358.5709533691406 351.9866943359375 373.5125732421875 334.34991455078125 316.2582702636719 342.5965576171875 C 393.2572937011719 346.2528991699219 339.3114318847656 342.5179443359375 341.21612548828125 323.9696350097656 C 332.622802734375 339.8280029296875 318.51239013671875 330.06243896484375 305.05743408203125 306.3877868652344 C 327.79302978515625 347.2285461425781 344.1483154296875 327.88446044921875 334.4650573730469 322.07733154296875"/>
    <path stroke-width="0" fill="rgb(235, 233, 229)" opacity="0.63538724" stroke="rgb(86, 245, 59)" stroke-opacity="1.0" stroke-linecap="round" stroke-linejoin="round" d="M 12.423500061035156 361.5795593261719 C 20.256967544555664 236.595703125 75.96333312988281 331.9056701660156 29.382326126098633 337.605712890625 C -6.045375347137451 331.2051086425781 35.43855285644531 332.63800048828125 30.021425247192383 333.12457275390625 C 27.37149429321289 326.2466125488281 38.3300666809082 312.8941345214844 68.26737213134766 306.2395324707031 C 46.85572052001953 316.2340393066406 34.599708557128906 315.7412414550781 12.423500061035156 361.5795593261719"/>
    <path stroke-width="0" fill="rgb(260, 255, 256)" opacity="0.7608949" stroke="rgb(88, 37, 250)" stroke-opacity="1.0" stroke-linecap="round" stroke-linejoin="round" d="M 336.3828430175781 308.14862060546875 C 321.1495666503906 298.8133239746094 325.805908203125 337.0697937011719 314.2995910644531 345.84490966796875 C 336.06817626953125 318.9748840332031 328.95458984375 339.6772155761719 336.0025939941406 333.9646911621094 C 327.64080810546875 326.2396240234375 325.0719299316406 303.8110046386719 330.8341064453125 323.38128662109375 C 341.6701965332031 345.93603515625 355.624755859375 328.587890625 336.3828430175781 308.14862060546875"/>
    <path stroke-width="0" fill="rgb(31, 42, 42)" opacity="0.8213388" stroke="rgb(126, 163, 93)" stroke-opacity="1.0" stroke-linecap="round" stroke-linejoin="round" d="M 356.62158203125 341.0447082519531 C 351.6416320800781 339.51654052734375 375.1749572753906 376.65283203125 317.033203125 367.58160400390625 C 316.1911315917969 365.0780944824219 299.57958984375 369.008056640625 351.5343933105469 367.9637756347656 C 364.29229736328125 352.41680908203125 363.2361755371094 334.3493957519531 321.9902038574219 342.646240234375 C 323.7626953125 330.6929016113281 312.14447021484375 350.04931640625 356.62158203125 341.0447082519531"/>
    <path stroke-width="0" fill="rgb(86, 87, 81)" opacity="0.80787367" stroke="rgb(231, 197, 84)" stroke-opacity="1.0" stroke-linecap="round" stroke-linejoin="round" d="M 105.02288818359375 -8.634320259094238 C 66.46072387695312 24.610637664794922 -3.378484010696411 79.64439392089844 2.3984861373901367 116.30474853515625 C -61.620845794677734 76.1476821899414 -38.90313720703125 43.4652214050293 -21.261756896972656 2.9529454708099365 C -17.32050895690918 -10.0 -10.0 -17.32050895690918 7.241615295410156 -24.014564514160156 C 31.09577178955078 -33.32636642456055 38.93543243408203 -15.198221206665039 105.02288818359375 -8.634320259094238"/>
    <path stroke-width="0" fill="rgb(180, 180, 179)" opacity="0.8160044" stroke="rgb(103, 59, 33)" stroke-opacity="1.0" stroke-linecap="round" stroke-linejoin="round" d="M 200.47650146484375 178.1609344482422 C 219.7266082763672 168.44671630859375 209.9554443359375 173.18264770507812 206.2122802734375 180.26783752441406 C 250.44970703125 120.95159149169922 254.94644165039062 148.96009826660156 215.58670043945312 183.35194396972656 C 218.0675811767578 181.10989379882812 226.09677124023438 173.2117919921875 228.4173583984375 171.3616943359375 C 224.81495666503906 130.32081604003906 202.89608764648438 154.6236572265625 200.47650146484375 178.1609344482422"/>
    <path stroke-width="0" fill="rgb(253, 250, 249)" opacity="0.74792004" stroke="rgb(20, 22, 171)" stroke-opacity="1.0" stroke-linecap="round" stroke-linejoin="round" d="M 75.67436218261719 335.37115478515625 C 60.9803581237793 326.1388244628906 54.61470031738281 331.03875732421875 70.99357604980469 331.9944763183594 C 95.45174407958984 335.1307067871094 39.639259338378906 357.92401123046875 23.316286087036133 328.3794860839844 C -17.196807861328125 437.4255676269531 85.73265838623047 348.99310302734375 104.34138488769531 349.6874084472656 C 102.1886215209961 314.7649230957031 92.69898223876953 358.7899169921875 75.67436218261719 335.37115478515625"/>
    <path stroke-width="0" fill="rgb(249, 255, 250)" opacity="0.27333254" stroke="rgb(107, 142, 219)" stroke-opacity="1.0" stroke-linecap="round" stroke-linejoin="round" d="M 102.3895034790039 312.7972412109375 C 129.0082550048828 313.32122802734375 109.29767608642578 329.8853759765625 94.41719055175781 354.99334716796875 C 3.9434051513671875 401.38409423828125 -1.489162564277649 249.79542541503906 92.62791442871094 271.990966796875 C 141.9122314453125 318.6976013183594 49.81044006347656 338.2180480957031 113.37608337402344 305.4855041503906 C 130.16700744628906 278.1901550292969 128.47828674316406 289.1398620605469 102.3895034790039 312.7972412109375"/>
    <path stroke-width="0" fill="rgb(8, 21, 10)" opacity="0.7484644" stroke="rgb(14, 177, 198)" stroke-opacity="1.0" stroke-linecap="round" stroke-linejoin="round" d="M 23.649595260620117 299.86358642578125 C 23.567659378051758 287.6224670410156 54.4581298828125 318.0752868652344 109.93806457519531 347.3757629394531 C 62.486263275146484 312.03826904296875 12.462676048278809 294.708251953125 21.860992431640625 281.05535888671875 C 18.011154174804688 294.7286682128906 24.663726806640625 275.1520080566406 22.80124855041504 309.7224426269531 C 10.287708282470703 285.88336181640625 36.4159049987793 290.3376159667969 23.649595260620117 299.86358642578125"/>
    <path stroke-width="0" fill="rgb(164, 165, 165)" opacity="0.86709464" stroke="rgb(66, 95, 149)" stroke-opacity="1.0" stroke-linecap="round" stroke-linejoin="round" d="M 344.5718688964844 134.2135009765625 C 331.5329284667969 136.83950805664062 320.8452453613281 136.04702758789062 317.85479736328125 136.3189239501953 C 382.51568603515625 130.6873779296875 367.6906433105469 138.5748748779297 352.24786376953125 116.8228988647461 C 300.43731689453125 134.79449462890625 280.8253173828125 96.6596450805664 324.18133544921875 102.97007751464844 C 356.2169494628906 150.31851196289062 369.1457824707031 162.2322998046875 344.5718688964844 134.2135009765625"/>
    <path stroke-width="0" fill="rgb(135, 135, 126)" opacity="0.17823505" stroke="rgb(94, 50, 117)" stroke-opacity="1.0" stroke-linecap="round" stroke-linejoin="round" d="M 54.86555480957031 320.9993591308594 C 44.60565948486328 324.7853088378906 23.009963989257812 313.8218688964844 49.08075714111328 272.091552734375 C 46.76518630981445 326.940673828125 46.7884407043457 298.97515869140625 50.98113250732422 270.34820556640625 C 45.450538635253906 294.1427917480469 49.910003662109375 294.6339416503906 35.807403564453125 305.7620849609375 C 36.485206604003906 313.5117492675781 39.63203430175781 299.9747009277344 54.86555480957031 320.9993591308594"/>
    <path stroke-width="0" fill="rgb(0, 1, 3)" opacity="0.8838621" stroke="rgb(203, 19, 132)" stroke-opacity="1.0" stroke-linecap="round" stroke-linejoin="round" d="M 432.8570251464844 362.3324279785156 C 528.63818359375 404.7461242675781 519.322998046875 406.2333068847656 436.1792907714844 364.5048828125 C 400.06121826171875 337.80682373046875 494.4349060058594 360.9808654785156 423.3703918457031 354.78094482421875 C 429.3343200683594 372.4659729003906 450.1405334472656 361.76458740234375 401.7537536621094 344.03204345703125 C 374.9581604003906 362.9566345214844 415.0543518066406 352.992431640625 432.8570251464844 362.3324279785156"/>
    <path stroke-width="0" fill="rgb(177, 177, 182)" opacity="0.6339644" stroke="rgb(109, 130, 136)" stroke-opacity="1.0" stroke-linecap="round" stroke-linejoin="round" d="M 330.7379150390625 128.86898803710938 C 318.1747131347656 157.57447814941406 303.0791015625 162.74293518066406 298.4298400878906 167.96224975585938 C 343.0917663574219 184.96995544433594 310.66650390625 168.01756286621094 320.9449462890625 194.2008056640625 C 315.5135192871094 186.5441436767578 327.1453552246094 173.15322875976562 299.2230529785156 158.37681579589844 C 295.9605712890625 148.93736267089844 324.0650329589844 158.85948181152344 330.7379150390625 128.86898803710938"/>
    <path stroke-width="0" fill="rgb(1, 4, -7)" opacity="0.64285403" stroke="rgb(70, 32, 100)" stroke-opacity="1.0" stroke-linecap="round" stroke-linejoin="round" d="M 200.6174774169922 401.6611328125 C 100.74430847167969 345.0711669921875 46.87505340576172 336.1958312988281 131.39707946777344 349.936767578125 C 120.13565826416016 326.26361083984375 127.30746459960938 335.1748352050781 130.3273162841797 351.27227783203125 C 89.27570343017578 350.18267822265625 119.93274688720703 364.8470153808594 159.98516845703125 454.33746337890625 C 78.99332427978516 310.60894775390625 102.50009155273438 361.2228698730469 200.6174774169922 401.6611328125"/>
    <path stroke-width="0" fill="rgb(7, 9, 20)" opacity="0.8067191" stroke="rgb(47, 230, 138)" stroke-opacity="1.0" stroke-linecap="round" stroke-linejoin="round" d="M 387.83697509765625 306.608154296875 C 379.55157470703125 294.2796936035156 380.3038330078125 287.70947265625 389.5468444824219 313.66632080078125 C 391.2015075683594 314.7570495605469 383.748779296875 308.42327880859375 392.8996276855469 311.60498046875 C 383.8299560546875 309.82305908203125 388.64080810546875 307.8200378417969 377.9327087402344 296.36248779296875 C 397.2687683105469 317.2742614746094 375.51263427734375 323.1540832519531 387.83697509765625 306.608154296875"/>
    <path stroke-width="0" fill="rgb(182, 186, 180)" opacity="0.8954391" stroke="rgb(224, 116, 184)" stroke-opacity="1.0" stroke-linecap="round" stroke-linejoin="round" d="M 199.73199462890625 181.7683868408203 C 170.97903442382812 173.48074340820312 165.58714294433594 181.9064178466797 182.5254669189453 188.72174072265625 C 207.60162353515625 163.7515106201172 199.7733612060547 165.98866271972656 187.88796997070312 166.9945068359375 C 175.3004150390625 189.1461639404297 197.15399169921875 177.741943359375 215.6112518310547 185.2338104248047 C 194.38613891601562 178.07188415527344 169.67495727539062 222.8843994140625 199.73199462890625 181.7683868408203"/>
    <path stroke-width="0" fill="rgb(216, 220, 221)" opacity="0.19156735" stroke="rgb(230, 175, 178)" stroke-opacity="1.0" stroke-linecap="round" stroke-linejoin="round" d="M 40.532447814941406 318.2320556640625 C 42.97640609741211 309.5892639160156 50.09878921508789 283.77752685546875 82.13261413574219 318.1463317871094 C 52.62260818481445 279.1904602050781 46.77739334106445 262.5143737792969 61.675479888916016 245.3518524169922 C 85.40084075927734 243.8958740234375 61.42848205566406 242.904541015625 52.37398147583008 244.16542053222656 C 57.234127044677734 244.81573486328125 64.35282897949219 232.20132446289062 40.532447814941406 318.2320556640625"/>
    <path stroke-width="0" fill="rgb(35, 38, 35)" opacity="0.6905283" stroke="rgb(192, 162, 61)" stroke-opacity="1.0" stroke-linecap="round" stroke-linejoin="round" d="M 2.1265861988067627 331.7565002441406 C 80.6368408203125 345.44683837890625 53.474979400634766 328.92608642578125 50.934627532958984 301.5836181640625 C 48.841190338134766 312.56671142578125 54.45697021484375 302.67889404296875 51.530120849609375 303.6016845703125 C 53.69301223754883 305.2746887207031 42.4978141784668 311.5287170410156 55.15922164916992 315.6164855957031 C 53.491065979003906 332.2134704589844 70.0509033203125 352.7517395019531 2.1265861988067627 331.7565002441406"/>
    <path stroke-width="0" fill="rgb(18, 16, 22)" opacity="0.8781711" stroke="rgb(160, 101, 15)" stroke-opacity="1.0" stroke-linecap="round" stroke-linejoin="round" d="M 199.02481079101562 333.2696838378906 C 200.46969604492188 330.31610107421875 197.7432098388672 336.50836181640625 200.44088745117188 338.29132080078125 C 199.09796142578125 336.7503662109375 199.70321655273438 319.96875 199.48558044433594 331.64892578125 C 201.99806213378906 373.7322082519531 201.49888610839844 361.9781494140625 196.15036010742188 371.0089111328125 C 203.05104064941406 364.1026306152344 201.51055908203125 371.33258056640625 199.02481079101562 333.2696838378906"/>
    <path stroke-width="0" fill="rgb(0, 6, -8)" opacity="0.6973411" stroke="rgb(65, 216, 8)" stroke-opacity="1.0" stroke-linecap="round" stroke-linejoin="round" d="M 400.9185791015625 347.7626037597656 C 337.57269287109375 312.97747802734375 354.6521911621094 310.8121337890625 329.2789001464844 325.8045349121094 C 363.22308349609375 302.4001770019531 354.71630859375 333.57659912109375 336.0682678222656 306.3468322753906 C 353.1047058105469 319.08819580078125 381.9162902832031 332.5133972167969 381.9889831542969 335.3838806152344 C 393.0914306640625 339.8230285644531 371.0835876464844 323.1336975097656 400.9185791015625 347.7626037597656"/>
    <path stroke-width="0" fill="rgb(2, 2, 0)" opacity="0.7171223" stroke="rgb(90, 90, 4)" stroke-opacity="1.0" stroke-linecap="round" stroke-linejoin="round" d="M 159.301513671875 162.56861877441406 C 157.08538818359375 161.28326416015625 163.59693908691406 161.3970184326172 180.7136993408203 155.84371948242188 C 158.8017120361328 160.31089782714844 160.07418823242188 153.86639404296875 154.55445861816406 202.9131622314453 C 155.0250701904297 166.5202178955078 163.77032470703125 160.1569366455078 165.62705993652344 156.56399536132812 C 158.3418426513672 164.0551300048828 183.32443237304688 143.57603454589844 159.301513671875 162.56861877441406"/>
    <path stroke-width="0" fill="rgb(172, 169, 169)" opacity="0.39013696" stroke="rgb(248, 252, 104)" stroke-opacity="1.0" stroke-linecap="round" stroke-linejoin="round" d="M 105.13195037841797 239.6376190185547 C 105.74396514892578 219.3115997314453 101.7403335571289 243.45985412597656 125.5185546875 247.4803009033203 C 131.1939697265625 205.54933166503906 114.60295104980469 218.202392578125 120.67817687988281 239.783203125 C 109.19205474853516 235.5157012939453 128.6632537841797 151.08465576171875 113.21621704101562 191.97647094726562 C 117.75358581542969 212.18226623535156 128.9910125732422 245.8579864501953 105.13195037841797 239.6376190185547"/>
    <path stroke-width="0" fill="rgb(4, 0, -1)" opacity="0.7100609" stroke="rgb(162, 125, 252)" stroke-opacity="1.0" stroke-linecap="round" stroke-linejoin="round" d="M 472.254150390625 354.3826904296875 C 366.3431701660156 362.525146484375 408.5906677246094 336.26507568359375 409.2711486816406 365.0043029785156 C 419.05889892578125 321.5527038574219 421.0867614746094 346.7781677246094 350.7329406738281 447.4348449707031 C 414.4647216796875 342.1272277832031 421.3123474121094 352.4521484375 367.6684265136719 369.8323059082031 C 366.72418212890625 381.8213806152344 380.0080261230469 344.05169677734375 472.254150390625 354.3826904296875"/>
    <path stroke-width="0" fill="rgb(0, 0, 0)" opacity="0.67010367" stroke="rgb(141, 73, 180)" stroke-opacity="1.0" stroke-linecap="round" stroke-linejoin="round" d="M 433.263916015625 241.4234619140625 C 414.6461486816406 249.318359375 365.3831787109375 259.5250549316406 375.9262390136719 256.58685302734375 C 414.6120300292969 257.5452575683594 391.0628662109375 249.3624267578125 365.5760803222656 258.0857849121094 C 373.69012451171875 252.92007446289062 402.4288635253906 243.05543518066406 413.4140319824219 252.7742919921875 C 378.0243225097656 257.806884765625 401.4209289550781 253.8019256591797 433.263916015625 241.4234619140625"/>
    <path stroke-width="0" fill="rgb(166, 176, 175)" opacity="0.44028363" stroke="rgb(91, 211, 235)" stroke-opacity="1.0" stroke-linecap="round" stroke-linejoin="round" d="M 358.09503173828125 325.5341796875 C 352.33929443359375 319.17279052734375 366.04052734375 321.7855529785156 354.978759765625 376.2889709472656 C 347.92779541015625 374.86962890625 361.2238464355469 378.0032958984375 358.3532409667969 323.2008056640625 C 360.911376953125 319.579345703125 357.3801574707031 317.6717834472656 376.8750305175781 333.2069091796875 C 357.344482421875 316.4265441894531 351.54132080078125 321.19451904296875 358.09503173828125 325.5341796875"/>
    <path stroke-width="0" fill="rgb(35, 27, 24)" opacity="0.9889292" stroke="rgb(59, 88, 207)" stroke-opacity="1.0" stroke-linecap="round" stroke-linejoin="round" d="M 436.5051574707031 336.86505126953125 C 482.7134704589844 315.6795654296875 450.8330993652344 325.6216735839844 460.6478576660156 322.7536315917969 C 466.46380615234375 327.0580749511719 465.3135986328125 321.10980224609375 472.06365966796875 316.9732360839844 C 464.93048095703125 326.0036315917969 471.68359375 311.25830078125 477.7201843261719 318.4519958496094 C 428.9839782714844 333.3205871582031 399.9872741699219 358.72467041015625 436.5051574707031 336.86505126953125"/>
    <path stroke-width="0" fill="rgb(164, 165, 164)" opacity="0.8538699" stroke="rgb(247, 230, 75)" stroke-opacity="1.0" stroke-linecap="round" stroke-linejoin="round" d="M 120.52855682373047 229.64585876464844 C 117.32009887695312 204.1742706298828 118.50201416015625 212.28797912597656 112.84965515136719 211.90101623535156 C 123.24185180664062 203.45452880859375 115.4362564086914 240.24134826660156 126.9746322631836 240.7033233642578 C 123.40074920654297 236.21890258789062 122.6925277709961 252.65086364746094 92.81316375732422 229.59190368652344 C 117.474365234375 240.18136596679688 127.67008209228516 250.83316040039062 120.52855682373047 229.64585876464844"/>
    <path stroke-width="0" fill="rgb(230, 233, 231)" opacity="0.4264803" stroke="rgb(63, 27, 242)" stroke-opacity="1.0" stroke-linecap="round" stroke-linejoin="round" d="M 109.367431640625 402.94903564453125 C 44.263267517089844 429.3369445800781 54.730220794677734 441.8387145996094 19.23369598388672 390.5924987792969 C 115.31362915039062 415.4022216796875 92.29449462890625 410.8173828125 53.93748092651367 406.1390075683594 C 79.43547058105469 448.5140686035156 111.04961395263672 463.45098876953125 92.42086029052734 410.6938781738281 C 84.34251403808594 404.9444274902344 78.72559356689453 405.05426025390625 109.367431640625 402.94903564453125"/>
    <path stroke-width="0" fill="rgb(130, 132, 130)" opacity="0.7787252" stroke="rgb(175, 14, 186)" stroke-opacity="1.0" stroke-linecap="round" stroke-linejoin="round" d="M 62.19321060180664 244.35928344726562 C 65.97264862060547 247.9100341796875 59.393714904785156 265.1183166503906 38.36015319824219 240.17861938476562 C 80.95796203613281 249.11524963378906 75.96420288085938 239.4234161376953 58.17045593261719 236.12164306640625 C 55.04033279418945 233.79052734375 48.454769134521484 114.624267578125 40.66399383544922 245.92662048339844 C 127.20599365234375 212.44381713867188 149.94578552246094 256.88519287109375 62.19321060180664 244.35928344726562"/>
    <path stroke-width="0" fill="rgb(140, 140, 142)" opacity="0.7540081" stroke="rgb(213, 60, 128)" stroke-opacity="1.0" stroke-linecap="round" stroke-linejoin="round" d="M 59.975486755371094 249.3271484375 C 88.92636108398438 256.3981628417969 85.84746551513672 245.68348693847656 47.86053466796875 238.30532836914062 C 36.467201232910156 242.09095764160156 74.45282745361328 235.41677856445312 121.35753631591797 226.35214233398438 C 76.67860412597656 237.5690460205078 69.65074920654297 247.46823120117188 56.44746398925781 247.3550262451172 C 95.2524642944336 244.6162109375 106.71493530273438 244.30703735351562 59.975486755371094 249.3271484375"/>
    <path stroke-width="0" fill="rgb(77, 87, 90)" opacity="0.5473488" stroke="rgb(161, 221, 239)" stroke-opacity="1.0" stroke-linecap="round" stroke-linejoin="round" d="M 384.6193542480469 251.25201416015625 C 376.027099609375 252.49281311035156 357.18328857421875 252.12808227539062 370.6754455566406 249.11767578125 C 364.683349609375 255.6722869873047 363.5751647949219 256.6414794921875 339.9298095703125 260.91607666015625 C 370.0185852050781 255.4635009765625 397.0245666503906 245.82176208496094 388.1086120605469 243.00283813476562 C 376.5135192871094 246.45294189453125 399.8641052246094 237.65805053710938 384.6193542480469 251.25201416015625"/>
    <path stroke-width="0" fill="rgb(40, 45, 46)" opacity="0.76012254" stroke="rgb(18, 74, 38)" stroke-opacity="1.0" stroke-linecap="round" stroke-linejoin="round" d="M 88.50740051269531 334.5120544433594 C 104.26451873779297 344.99908447265625 101.78192138671875 323.0389709472656 97.31813049316406 304.1625671386719 C 103.62794494628906 324.4644470214844 102.33647155761719 334.4830627441406 83.20924377441406 310.4067687988281 C 109.80963134765625 340.7369079589844 118.06920623779297 349.4752197265625 119.67780303955078 341.3670959472656 C 81.13835144042969 325.34423828125 100.67830657958984 353.4944763183594 88.50740051269531 334.5120544433594"/>
    <path stroke-width="0" fill="rgb(0, 6, 1)" opacity="0.840735" stroke="rgb(246, 139, 70)" stroke-opacity="1.0" stroke-linecap="round" stroke-linejoin="round" d="M 335.4151306152344 207.2452392578125 C 308.7170715332031 213.98631286621094 322.0330505371094 210.32083129882812 312.9906311035156 215.5151824951172 C 358.63555908203125 217.47268676757812 336.98187255859375 198.818115234375 329.55731201171875 233.67221069335938 C 332.26446533203125 229.8754425048828 345.8262634277344 212.7238311767578 335.6490173339844 222.2530517578125 C 333.8833312988281 221.1558837890625 348.6689147949219 233.003662109375 335.4151306152344 207.2452392578125"/>
    <path stroke-width="0" fill="rgb(157, 158, 155)" opacity="0.7892397" stroke="rgb(228, 103, 140)" stroke-opacity="1.0" stroke-linecap="round" stroke-linejoin="round" d="M 407.3902282714844 221.4352569580078 C 402.2890930175781 242.8572235107422 389.5111999511719 246.2849578857422 428.5477600097656 247.56643676757812 C 455.81146240234375 238.29627990722656 395.88616943359375 221.58531188964844 391.51385498046875 242.0720977783203 C 398.4910888671875 238.27117919921875 399.6104431152344 257.14300537109375 403.3764953613281 243.32177734375 C 397.0021057128906 244.64056396484375 408.1048278808594 242.03973388671875 407.3902282714844 221.4352569580078"/>
    <path stroke-width="0" fill="rgb(199, 203, 191)" opacity="0.19599712" stroke="rgb(116, 102, 63)" stroke-opacity="1.0" stroke-linecap="round" stroke-linejoin="round" d="M 497.3994140625 368.49481201171875 C 487.650146484375 420.2452697753906 476.7744140625 404.00909423828125 459.0635070800781 432.39117431640625 C 418.4591064453125 431.0035400390625 428.88397216796875 419.15625 380.6907653808594 360.2674255371094 C 431.40020751953125 379.1686096191406 434.6419982910156 315.3940124511719 429.7762145996094 285.0716247558594 C 491.5013122558594 267.4067077636719 506.11968994140625 319.7408752441406 497.3994140625 368.49481201171875"/>
    <path stroke-width="0" fill="rgb(68, 108, 171)" opacity="0.6885915" stroke="rgb(85, 235, 219)" stroke-opacity="1.0" stroke-linecap="round" stroke-linejoin="round" d="M 164.69776916503906 229.4195556640625 C 156.1859130859375 242.798583984375 154.385986328125 248.46380615234375 167.20327758789062 247.68161010742188 C 157.72442626953125 253.58116149902344 147.78494262695312 253.09918212890625 153.7194366455078 251.23985290527344 C 145.84921264648438 257.9262390136719 165.02584838867188 255.98599243164062 152.05979919433594 252.05059814453125 C 184.5604705810547 249.12295532226562 200.4110107421875 267.4367980957031 164.69776916503906 229.4195556640625"/>
    <path stroke-width="0" fill="rgb(168, 160, 170)" opacity="0.63765055" stroke="rgb(64, 113, 26)" stroke-opacity="1.0" stroke-linecap="round" stroke-linejoin="round" d="M 137.57412719726562 234.5810089111328 C 109.7491226196289 224.60740661621094 111.84618377685547 223.72621154785156 119.9141616821289 231.62161254882812 C 141.8873748779297 244.8463592529297 99.95391845703125 246.36732482910156 69.16676330566406 239.57952880859375 C 146.32443237304688 225.18247985839844 69.30892944335938 207.92764282226562 119.51998901367188 235.053955078125 C 105.3691635131836 249.46328735351562 149.39517211914062 254.07017517089844 137.57412719726562 234.5810089111328"/>
    <path stroke-width="0" fill="rgb(10, 29, 51)" opacity="0.40218803" stroke="rgb(0, 0, 0)" stroke-opacity="0.0" stroke-linecap="round" stroke-linejoin="round" d="M 22.029705047607422 2.203735113143921 C 21.231531143188477 6.404676914215088 18.689786911010742 9.237044334411621 14.256945610046387 9.88791275024414 C 11.649592399597168 9.712069511413574 8.991168022155762 6.64277458190918 7.083162307739258 2.6030948162078857 C 7.857906818389893 -1.1980961561203003 11.084624290466309 -3.9247069358825684 15.46423053741455 -5.002016544342041 C 19.618606567382812 -4.084782123565674 22.530866622924805 -1.1635483503341675 22.029705047607422 2.203735113143921"/>
    <path stroke-width="0" fill="rgb(11, 42, 92)" opacity="0.6487693" stroke="rgb(0, 0, 0)" stroke-opacity="0.0" stroke-linecap="round" stroke-linejoin="round" d="M 257.529296875 135.9658966064453 C 257.1058044433594 139.78309631347656 253.88607788085938 142.4802703857422 250.0687713623047 143.88595581054688 C 246.75669860839844 142.72189331054688 243.6713104248047 139.41610717773438 242.9104461669922 136.50025939941406 C 243.23580932617188 131.46092224121094 245.66549682617188 128.93362426757812 250.25738525390625 127.80296325683594 C 254.43231201171875 128.94686889648438 257.28448486328125 131.8237762451172 257.529296875 135.9658966064453"/>
    <path stroke-width="0" fill="rgb(109, 130, 24)" opacity="0.38405055" stroke="rgb(0, 0, 0)" stroke-opacity="0.0" stroke-linecap="round" stroke-linejoin="round" d="M 263.09051513671875 451.2025146484375 C 263.14031982421875 455.85205078125 260.783203125 458.75457763671875 255.99282836914062 459.21234130859375 C 251.0647430419922 458.92138671875 248.41952514648438 456.1086730957031 248.1318359375 451.4833068847656 C 248.84912109375 446.62200927734375 251.3995361328125 443.6766662597656 256.11566162109375 443.6634521484375 C 260.2684020996094 444.04315185546875 262.8759460449219 446.9612731933594 263.09051513671875 451.2025146484375"/>
    <path stroke-width="0" fill="rgb(161, 59, 119)" opacity="0.007918274" stroke="rgb(0, 0, 0)" stroke-opacity="0.0" stroke-linecap="round" stroke-linejoin="round" d="M 21.792098999023438 82.27300262451172 C 21.35399627685547 85.9782943725586 18.558835983276367 88.99420928955078 14.562629699707031 89.87174987792969 C 10.391401290893555 88.72483825683594 7.493630886077881 85.79580688476562 6.369258880615234 81.67889404296875 C 7.270449161529541 77.66952514648438 10.208563804626465 74.78057098388672 14.158777236938477 74.3270034790039 C 18.080387115478516 75.1474838256836 20.73492431640625 78.2183837890625 21.792098999023438 82.27300262451172"/>
    <path stroke-width="0" fill="rgb(124, 72, 27)" opacity="0.40423533" stroke="rgb(0, 0, 0)" stroke-opacity="0.0" stroke-linecap="round" stroke-linejoin="round" d="M 275.1810607910156 172.8599090576172 C 274.62811279296875 177.0580291748047 271.1763916015625 179.40074157714844 267.8848571777344 180.32167053222656 C 264.36712646484375 179.8540496826172 261.35382080078125 176.79708862304688 261.4618835449219 173.24525451660156 C 261.2640686035156 169.3437957763672 263.6177673339844 165.9058837890625 266.77655029296875 165.8717498779297 C 270.9977722167969 167.41807556152344 275.3160705566406 169.92332458496094 275.1810607910156 172.8599090576172"/>
    <path stroke-width="0" fill="rgb(74, 33, 154)" opacity="0.0359561" stroke="rgb(0, 0, 0)" stroke-opacity="0.0" stroke-linecap="round" stroke-linejoin="round" d="M -6.421721458435059 41.31122970581055 C -7.493518352508545 45.31122970581055 -10.421721458435059 48.23943328857422 -14.421721458435059 49.31122970581055 C -18.421722412109375 48.23943328857422 -21.349924087524414 45.31122970581055 -22.421722412109375 41.31122970581055 C -21.349924087524414 37.31122970581055 -18.421722412109375 34.383026123046875 -14.421721458435059 33.31122970581055 C -10.421721458435059 34.383026123046875 -7.493518352508545 37.31122970581055 -6.421721458435059 41.31122970581055"/>
    <path stroke-width="0" fill="rgb(148, 191, 230)" opacity="0.053044647" stroke="rgb(0, 0, 0)" stroke-opacity="0.0" stroke-linecap="round" stroke-linejoin="round" d="M 213.4268798828125 14.994429588317871 C 212.96200561523438 19.547658920288086 210.07992553710938 22.340744018554688 205.53688049316406 23.589759826660156 C 200.85540771484375 23.2779598236084 198.5069580078125 20.39950180053711 198.39317321777344 14.810766220092773 C 198.39649963378906 10.691431999206543 201.36141967773438 8.052329063415527 206.21011352539062 7.503596782684326 C 210.69601440429688 7.8205389976501465 213.81166076660156 10.544759750366211 213.4268798828125 14.994429588317871"/>
    <path stroke-width="0" fill="rgb(88, 66, 149)" opacity="0.7294353" stroke="rgb(0, 0, 0)" stroke-opacity="0.0" stroke-linecap="round" stroke-linejoin="round" d="M 6.521392822265625 19.68640899658203 C 6.175996780395508 22.466474533081055 3.2071268558502197 25.203285217285156 -0.7700484991073608 26.75971794128418 C -3.6734097003936768 26.488805770874023 -6.5887770652771 23.517528533935547 -7.660402297973633 19.516822814941406 C -6.590135097503662 15.512816429138184 -3.7142276763916016 12.463269233703613 0.6317323446273804 10.837160110473633 C 4.023457050323486 12.839057922363281 6.6052374839782715 15.952489852905273 6.521392822265625 19.68640899658203"/>
    <path stroke-width="0" fill="rgb(244, 47, 11)" opacity="0.24756894" stroke="rgb(0, 0, 0)" stroke-opacity="0.0" stroke-linecap="round" stroke-linejoin="round" d="M 296.1370544433594 148.86148071289062 C 295.2369384765625 153.03163146972656 292.9812316894531 156.32057189941406 289.3355712890625 156.3324737548828 C 284.89404296875 155.73831176757812 281.69854736328125 153.32354736328125 280.195556640625 148.97213745117188 C 281.51019287109375 144.95645141601562 284.7358093261719 142.26611328125 288.593994140625 141.51654052734375 C 292.1405029296875 142.7183380126953 295.09564208984375 146.0207061767578 296.1370544433594 148.86148071289062"/>
    <path stroke-width="0" fill="rgb(113, 54, 99)" opacity="0.7716964" stroke="rgb(0, 0, 0)" stroke-opacity="0.0" stroke-linecap="round" stroke-linejoin="round" d="M 28.220443725585938 188.4672088623047 C 27.476957321166992 193.35110473632812 24.624980926513672 196.34671020507812 21.09149169921875 196.45726013183594 C 15.76595401763916 195.12173461914062 12.39150619506836 192.8514862060547 11.481263160705566 188.8992919921875 C 13.041869163513184 184.79342651367188 16.232332229614258 182.1524658203125 19.377368927001953 181.369384765625 C 23.210010528564453 182.3019561767578 27.064979553222656 184.68130493164062 28.220443725585938 188.4672088623047"/>
    <path stroke-width="0" fill="rgb(180, 49, 235)" opacity="0.12612395" stroke="rgb(0, 0, 0)" stroke-opacity="0.0" stroke-linecap="round" stroke-linejoin="round" d="M 42.32386779785156 306.4546813964844 C 40.9367790222168 309.87677001953125 37.69195556640625 312.60845947265625 36.15475082397461 314.3288879394531 C 33.5402946472168 312.68756103515625 29.750139236450195 310.18365478515625 26.187034606933594 308.4480895996094 C 29.550447463989258 304.8357849121094 33.16569900512695 302.34442138671875 35.81666946411133 301.01336669921875 C 38.659183502197266 302.00518798828125 42.07296371459961 304.41357421875 42.32386779785156 306.4546813964844"/>
    <path stroke-width="0" fill="rgb(3, 244, 21)" opacity="0.29051182" stroke="rgb(0, 0, 0)" stroke-opacity="0.0" stroke-linecap="round" stroke-linejoin="round" d="M 230.1668701171875 84.5804672241211 C 229.40574645996094 88.75225067138672 226.69422912597656 91.63842010498047 222.6663818359375 92.80776977539062 C 219.05352783203125 91.78418731689453 216.13136291503906 88.92900848388672 215.22372436523438 84.64268493652344 C 215.6478729248047 80.6456298828125 218.710205078125 77.86688232421875 222.6394805908203 77.1329116821289 C 226.9120330810547 78.16780090332031 229.9071502685547 80.93524169921875 230.1668701171875 84.5804672241211"/>
    <path stroke-width="0" fill="rgb(136, 173, 39)" opacity="0.7425529" stroke="rgb(0, 0, 0)" stroke-opacity="0.0" stroke-linecap="round" stroke-linejoin="round" d="M -164.00164794921875 199.44883728027344 C -165.0734405517578 203.44883728027344 -168.00164794921875 206.3770294189453 -172.00164794921875 207.44883728027344 C -176.00164794921875 206.3770294189453 -178.9298553466797 203.44883728027344 -180.00164794921875 199.44883728027344 C -178.9298553466797 195.44883728027344 -176.00164794921875 192.5206298828125 -172.00164794921875 191.44883728027344 C -168.00164794921875 192.5206298828125 -165.0734405517578 195.44883728027344 -164.00164794921875 199.44883728027344"/>
    <path stroke-width="0" fill="rgb(242, 238, 15)" opacity="0.95330507" stroke="rgb(0, 0, 0)" stroke-opacity="0.0" stroke-linecap="round" stroke-linejoin="round" d="M 118.28985595703125 233.1746826171875 C 118.16161346435547 238.39218139648438 116.4100112915039 240.81356811523438 110.85032653808594 241.04588317871094 C 106.70291900634766 242.04483032226562 104.59070587158203 238.99853515625 104.80952453613281 233.1937255859375 C 103.9355239868164 228.88226318359375 107.0435562133789 226.62364196777344 112.05940246582031 226.40640258789062 C 116.36524963378906 226.77223205566406 118.80433654785156 229.57125854492188 118.28985595703125 233.1746826171875"/>
    <path stroke-width="0" fill="rgb(240, 205, 207)" opacity="0.5125234" stroke="rgb(0, 0, 0)" stroke-opacity="0.0" stroke-linecap="round" stroke-linejoin="round" d="M 425.9246826171875 165.67349243164062 C 425.90521240234375 168.30747985839844 422.3373718261719 170.8181610107422 418.3614196777344 171.55946350097656 C 415.42681884765625 172.06890869140625 412.38482666015625 168.98558044433594 411.8202209472656 165.94345092773438 C 413.6964111328125 162.3874053955078 416.2047424316406 158.32179260253906 418.03375244140625 157.3175506591797 C 422.5602722167969 159.14608764648438 425.54595947265625 161.7174072265625 425.9246826171875 165.67349243164062"/>
    <path stroke-width="0" fill="rgb(190, 76, 197)" opacity="0.8946896" stroke="rgb(0, 0, 0)" stroke-opacity="0.0" stroke-linecap="round" stroke-linejoin="round" d="M 19.179710388183594 1.9030228853225708 C 17.79181671142578 6.6647419929504395 15.494329452514648 10.002110481262207 11.699308395385742 9.488218307495117 C 7.636681079864502 8.961925506591797 4.502374649047852 6.262537002563477 3.4264161586761475 2.4186363220214844 C 4.204858303070068 -1.387757420539856 7.140264511108398 -4.301688194274902 11.302667617797852 -5.451989650726318 C 15.896280288696289 -4.87382698059082 19.016067504882812 -2.2210123538970947 19.179710388183594 1.9030228853225708"/>
    <path stroke-width="0" fill="rgb(36, 71, 44)" opacity="0.23041573" stroke="rgb(0, 0, 0)" stroke-opacity="0.0" stroke-linecap="round" stroke-linejoin="round" d="M 225.74942016601562 486.6136779785156 C 225.08042907714844 490.8194274902344 222.4833984375 494.0216369628906 218.6385040283203 494.311279296875 C 214.53163146972656 493.10784912109375 211.58950805664062 490.1677551269531 210.38327026367188 486.3554382324219 C 210.87452697753906 482.49798583984375 214.17776489257812 480.01727294921875 218.33786010742188 478.94061279296875 C 222.175537109375 479.5867004394531 225.0458526611328 482.5750732421875 225.74942016601562 486.6136779785156"/>
    <path stroke-width="0" fill="rgb(133, 76, 5)" opacity="0.44339222" stroke="rgb(0, 0, 0)" stroke-opacity="0.0" stroke-linecap="round" stroke-linejoin="round" d="M -762.1064453125 54.14612579345703 C -763.17822265625 58.14612579345703 -766.1064453125 61.0743293762207 -770.1064453125 62.14612579345703 C -774.1064453125 61.0743293762207 -777.0346069335938 58.14612579345703 -778.1064453125 54.14612579345703 C -777.0346069335938 50.14612579345703 -774.1064453125 47.217926025390625 -770.1064453125 46.14612579345703 C -766.1064453125 47.217926025390625 -763.17822265625 50.14612579345703 -762.1064453125 54.14612579345703"/>
    <path stroke-width="0" fill="rgb(71, 96, 121)" opacity="0.1592228" stroke="rgb(0, 0, 0)" stroke-opacity="0.0" stroke-linecap="round" stroke-linejoin="round" d="M 305.77496337890625 180.0868682861328 C 305.254638671875 184.13868713378906 302.72174072265625 187.2617645263672 298.1617431640625 187.5102081298828 C 293.4057922363281 186.84727478027344 290.8802490234375 184.1792449951172 290.7122802734375 179.6726531982422 C 291.6864929199219 176.42591857910156 294.69677734375 173.09329223632812 298.0532531738281 171.31588745117188 C 302.265869140625 172.3376922607422 304.6124572753906 175.7233123779297 305.77496337890625 180.0868682861328"/>
    <path stroke-width="0" fill="rgb(132, 28, 34)" opacity="0.24753499" stroke="rgb(0, 0, 0)" stroke-opacity="0.0" stroke-linecap="round" stroke-linejoin="round" d="M 148.0814666748047 160.16787719726562 C 147.4025421142578 164.29037475585938 144.60330200195312 167.43814086914062 140.99147033691406 168.08326721191406 C 136.49061584472656 166.02545166015625 132.99563598632812 163.4691162109375 133.3033905029297 160.2583465576172 C 133.08131408691406 154.9995880126953 135.22265625 152.4591064453125 140.4850616455078 152.17620849609375 C 144.27439880371094 152.1081085205078 146.6446075439453 155.85646057128906 148.0814666748047 160.16787719726562"/>
    <path stroke-width="0" fill="rgb(66, 147, 204)" opacity="0.81646377" stroke="rgb(0, 0, 0)" stroke-opacity="0.0" stroke-linecap="round" stroke-linejoin="round" d="M 514.4584350585938 290.2218322753906 C 513.4265747070312 295.3747253417969 510.5228576660156 298.2027282714844 506.1624450683594 297.7602233886719 C 501.01690673828125 297.6123352050781 498.2185363769531 295.1247863769531 498.8748474121094 291.4711608886719 C 499.44769287109375 287.1195373535156 502.17523193359375 284.00579833984375 506.0759582519531 282.4019775390625 C 510.7023620605469 282.46539306640625 513.42724609375 285.4606628417969 514.4584350585938 290.2218322753906"/>
    <path stroke-width="0" fill="rgb(12, 232, 167)" opacity="0.111572504" stroke="rgb(0, 0, 0)" stroke-opacity="0.0" stroke-linecap="round" stroke-linejoin="round" d="M -52.165199279785156 174.26580810546875 C -53.236995697021484 178.26580810546875 -56.165199279785156 181.1940155029297 -60.165199279785156 182.26580810546875 C -64.16519927978516 181.1940155029297 -67.09339904785156 178.26580810546875 -68.16519927978516 174.26580810546875 C -67.09339904785156 170.26580810546875 -64.16519927978516 167.33761596679688 -60.165199279785156 166.26580810546875 C -56.165199279785156 167.33761596679688 -53.236995697021484 170.26580810546875 -52.165199279785156 174.26580810546875"/>
    <path stroke-width="0" fill="rgb(30, 163, 180)" opacity="0.46319482" stroke="rgb(0, 0, 0)" stroke-opacity="0.0" stroke-linecap="round" stroke-linejoin="round" d="M 4.192587852478027 45.50056076049805 C 3.003024101257324 46.73935317993164 -0.02839483879506588 50.33802032470703 -3.2807769775390625 52.26797866821289 C -7.1098527908325195 51.01337814331055 -10.038055419921875 48.085174560546875 -11.10985279083252 44.085174560546875 C -10.038055419921875 40.085174560546875 -7.1098527908325195 37.15697479248047 -1.897126317024231 34.701480865478516 C 0.9105536937713623 36.42410659790039 2.300685405731201 41.08985900878906 4.192587852478027 45.50056076049805"/>
    <path stroke-width="0" fill="rgb(112, 126, 252)" opacity="0.084659256" stroke="rgb(0, 0, 0)" stroke-opacity="0.0" stroke-linecap="round" stroke-linejoin="round" d="M 43.710689544677734 -6.68243408203125 C 42.83989715576172 -2.4503555297851562 39.99436950683594 0.46652644872665405 36.262962341308594 0.8444629311561584 C 31.79184913635254 -0.012209872715175152 28.80333709716797 -2.8565311431884766 27.6804141998291 -6.791295051574707 C 28.737354278564453 -10.763440132141113 31.665557861328125 -13.691643714904785 35.665557861328125 -14.763440132141113 C 39.665557861328125 -13.691643714904785 42.5937614440918 -10.763440132141113 43.710689544677734 -6.68243408203125"/>
    <path stroke-width="0" fill="rgb(73, 227, 90)" opacity="0.03807044" stroke="rgb(0, 0, 0)" stroke-opacity="0.0" stroke-linecap="round" stroke-linejoin="round" d="M 69.968017578125 81.59400939941406 C 68.926025390625 85.34937286376953 66.14197540283203 88.5889663696289 62.58625793457031 89.95693969726562 C 58.76706314086914 88.0654067993164 55.58005142211914 85.21342468261719 54.30292510986328 81.98788452148438 C 56.008056640625 78.27190399169922 58.99086380004883 75.35820007324219 63.10160827636719 73.28863525390625 C 66.41482543945312 74.30357360839844 69.17799377441406 77.53282928466797 69.968017578125 81.59400939941406"/>
    <path stroke-width="0" fill="rgb(145, 75, 209)" opacity="0.36791313" stroke="rgb(0, 0, 0)" stroke-opacity="0.0" stroke-linecap="round" stroke-linejoin="round" d="M 87.83769226074219 102.6340103149414 C 86.60057067871094 106.66962432861328 83.75674438476562 109.82054901123047 79.9870376586914 110.99256896972656 C 76.08174896240234 110.09388732910156 73.21775817871094 107.12786102294922 72.27235412597656 102.99140930175781 C 73.07559967041016 98.99420166015625 76.0528564453125 96.24009704589844 79.98509979248047 95.59667205810547 C 84.529541015625 96.21672821044922 87.5402603149414 98.516357421875 87.83769226074219 102.6340103149414"/>
    <path stroke-width="0" fill="rgb(213, 105, 235)" opacity="0.8912402" stroke="rgb(0, 0, 0)" stroke-opacity="0.0" stroke-linecap="round" stroke-linejoin="round" d="M 210.57846069335938 378.3716125488281 C 210.6194305419922 380.6529541015625 207.78663635253906 383.6376037597656 204.73814392089844 384.4018249511719 C 201.69369506835938 383.3973388671875 198.94839477539062 380.3414611816406 198.65118408203125 377.57122802734375 C 199.1994171142578 374.90533447265625 201.80575561523438 371.3146057128906 204.95155334472656 369.5756530761719 C 208.05308532714844 370.9855651855469 210.41627502441406 374.32354736328125 210.57846069335938 378.3716125488281"/>
  </g>
</svg>
