<?xml version="1.0" ?>
<svg xmlns="http://www.w3.org/2000/svg" version="1.1" width="512" height="512">
  <defs/>
  <g>
    <path stroke-width="0" fill="rgb(-21, 3, 2)" opacity="1.0665507" stroke="rgb(139, 182, 153)" stroke-opacity="1.0" stroke-linecap="round" stroke-linejoin="round" d="M 356.4287109375 216.48870849609375 C 384.89837646484375 219.02688598632812 277.906005859375 216.7615966796875 263.2185974121094 212.9608154296875 C 128.15570068359375 214.24191284179688 150.027099609375 207.80335998535156 150.27841186523438 198.0637969970703 C 213.35586547851562 200.60861206054688 264.626953125 211.29978942871094 268.2569580078125 206.9320526123047 C 202.2117156982422 207.55377197265625 248.15512084960938 196.1830291748047 356.4287109375 216.48870849609375"/>
    <path stroke-width="0" fill="rgb(80, 90, 80)" opacity="0.55266243" stroke="rgb(108, 164, 111)" stroke-opacity="1.0" stroke-linecap="round" stroke-linejoin="round" d="M 248.86378479003906 650.2439575195312 C -234.8599395751953 572.7664794921875 297.5889892578125 112.5593032836914 177.88702392578125 422.1255798339844 C -129.7572021484375 552.4848022460938 330.65081787109375 166.50418090820312 29.918298721313477 276.9176025390625 C 116.13040924072266 668.3279418945312 -110.74038696289062 702.4229736328125 -42.80244064331055 -49.145721435546875 C 461.59674072265625 -99.40713500976562 459.2131042480469 -90.99225616455078 248.86378479003906 650.2439575195312"/>
    <path stroke-width="0" fill="rgb(28, 32, 32)" opacity="1.0172169" stroke="rgb(245, 97, 201)" stroke-opacity="1.0" stroke-linecap="round" stroke-linejoin="round" d="M 778.9478759765625 368.2440490722656 C 378.5841369628906 602.4586791992188 207.9148406982422 622.151611328125 281.18829345703125 313.5710754394531 C 191.58602905273438 346.1009216308594 436.3329772949219 549.2569580078125 497.6174011230469 375.4801330566406 C 526.706787109375 137.59104919433594 134.9761505126953 383.27764892578125 256.01116943359375 -23.859966278076172 C 449.6614074707031 -97.54769134521484 769.5654296875 -107.06083679199219 778.9478759765625 368.2440490722656"/>
    <path stroke-width="0" fill="rgb(-11, 3, 9)" opacity="0.9941409" stroke="rgb(144, 236, 18)" stroke-opacity="1.0" stroke-linecap="round" stroke-linejoin="round" d="M 421.7730407714844 342.8880310058594 C 401.81585693359375 347.65301513671875 410.4344177246094 579.1546020507812 408.45294189453125 364.56866455078125 C 240.71987915039062 360.52752685546875 248.27947998046875 324.8774719238281 330.64678955078125 348.7297668457031 C 436.74713134765625 334.4579162597656 393.33929443359375 378.392578125 319.9517822265625 163.9923553466797 C 413.0511474609375 343.6700744628906 407.6934814453125 343.0685729980469 421.7730407714844 342.8880310058594"/>
    <path stroke-width="0" fill="rgb(1, 4, 2)" opacity="0.9903234" stroke="rgb(5, 212, 198)" stroke-opacity="1.0" stroke-linecap="round" stroke-linejoin="round" d="M 196.20835876464844 144.17930603027344 C 192.26136779785156 173.55650329589844 159.83363342285156 170.5941619873047 165.3726348876953 136.48123168945312 C 130.45587158203125 282.6487731933594 166.92332458496094 218.5165252685547 166.53909301757812 149.9734649658203 C 187.90469360351562 172.87850952148438 138.91397094726562 111.02100372314453 146.22833251953125 173.10018920898438 C 177.65785217285156 265.7171325683594 111.9733657836914 113.90546417236328 196.20835876464844 144.17930603027344"/>
    <path stroke-width="0" fill="rgb(258, 254, 249)" opacity="1.0429789" stroke="rgb(249, 203, 117)" stroke-opacity="1.0" stroke-linecap="round" stroke-linejoin="round" d="M 139.46070861816406 274.265380859375 C 215.0181121826172 298.67010498046875 163.51365661621094 302.11968994140625 131.5192413330078 333.046630859375 C 146.25050354003906 289.219482421875 167.18081665039062 271.76324462890625 153.6679229736328 293.47369384765625 C 159.46343994140625 295.58892822265625 175.06137084960938 295.59771728515625 161.93429565429688 286.1246643066406 C 132.1492919921875 273.7763977050781 147.36831665039062 281.48468017578125 139.46070861816406 274.265380859375"/>
    <path stroke-width="0" fill="rgb(261, 259, 259)" opacity="0.99230987" stroke="rgb(30, 163, 36)" stroke-opacity="1.0" stroke-linecap="round" stroke-linejoin="round" d="M 152.6263885498047 320.4819641113281 C 172.96817016601562 263.0469055175781 246.71556091308594 349.78594970703125 149.90809631347656 317.93157958984375 C 120.78771209716797 343.37139892578125 94.81536865234375 355.181884765625 119.58279418945312 336.1529846191406 C 157.23875427246094 279.24505615234375 120.74835968017578 242.9771728515625 173.9009552001953 289.1894836425781 C 177.90443420410156 311.9745788574219 181.13922119140625 294.5035400390625 152.6263885498047 320.4819641113281"/>
    <path stroke-width="0" fill="rgb(0, 1, 0)" opacity="0.99472153" stroke="rgb(133, 105, 67)" stroke-opacity="1.0" stroke-linecap="round" stroke-linejoin="round" d="M 131.11463928222656 440.0499572753906 C 138.70913696289062 473.30517578125 -20.033052444458008 451.2518005371094 11.41971492767334 337.6217041015625 C 12.442903518676758 477.986328125 158.75405883789062 440.23577880859375 132.72686767578125 440.63031005859375 C 109.4132308959961 482.8363952636719 300.10400390625 379.0404052734375 146.89520263671875 249.8483428955078 C 287.0772705078125 413.5907897949219 75.83171081542969 464.5390319824219 131.11463928222656 440.0499572753906"/>
    <path stroke-width="0" fill="rgb(-1, 0, 0)" opacity="1.0040911" stroke="rgb(116, 144, 4)" stroke-opacity="1.0" stroke-linecap="round" stroke-linejoin="round" d="M 11.481965065002441 392.0046081542969 C -18.880220413208008 341.8370056152344 -17.812847137451172 368.05450439453125 -25.815929412841797 336.9087829589844 C -6.894232749938965 379.36468505859375 -81.57365417480469 417.5806884765625 29.332300186157227 365.2548522949219 C -24.386245727539062 426.5449523925781 -7.027435302734375 189.19927978515625 163.75265502929688 262.3130798339844 C -60.398193359375 209.26962280273438 34.57258224487305 500.97137451171875 11.481965065002441 392.0046081542969"/>
    <path stroke-width="0" fill="rgb(265, 259, 260)" opacity="0.98426914" stroke="rgb(156, 157, 240)" stroke-opacity="1.0" stroke-linecap="round" stroke-linejoin="round" d="M 360.6152648925781 281.80712890625 C 333.05877685546875 380.0882263183594 386.25 322.0178527832031 300.6275939941406 353.48406982421875 C 308.64300537109375 323.3794250488281 329.2020568847656 283.61663818359375 335.6440124511719 286.625 C 320.1363220214844 270.1668395996094 311.8905944824219 307.59649658203125 355.8863525390625 318.23004150390625 C 270.9550476074219 286.82745361328125 385.924560546875 249.0933074951172 360.6152648925781 281.80712890625"/>
    <path stroke-width="0" fill="rgb(-9, -2, 12)" opacity="0.99695057" stroke="rgb(91, 111, 177)" stroke-opacity="1.0" stroke-linecap="round" stroke-linejoin="round" d="M 123.4451904296875 308.7510986328125 C 123.93802642822266 299.22509765625 102.98412322998047 351.8568420410156 124.41487884521484 326.4759216308594 C 112.37555694580078 336.503662109375 153.94915771484375 161.14552307128906 174.77894592285156 144.78526306152344 C 128.86563110351562 332.515380859375 128.64671325683594 330.0820617675781 120.1679916381836 314.2532653808594 C 134.19375610351562 284.8753356933594 118.92656707763672 293.7475280761719 123.4451904296875 308.7510986328125"/>
    <path stroke-width="0" fill="rgb(-5, 4, 0)" opacity="0.9935243" stroke="rgb(170, 171, 53)" stroke-opacity="1.0" stroke-linecap="round" stroke-linejoin="round" d="M 130.96449279785156 287.4320373535156 C 97.77216339111328 410.783935546875 123.12466430664062 284.8394470214844 102.3421630859375 397.76654052734375 C 110.99284362792969 310.6535949707031 93.90237426757812 404.2633056640625 97.49049377441406 337.1912841796875 C 85.4085693359375 322.82879638671875 133.8109588623047 393.2757263183594 57.8150634765625 248.7008514404297 C 122.10484313964844 344.50933837890625 83.4238052368164 372.73516845703125 130.96449279785156 287.4320373535156"/>
    <path stroke-width="0" fill="rgb(0, -1, 7)" opacity="0.9762874" stroke="rgb(80, 92, 145)" stroke-opacity="1.0" stroke-linecap="round" stroke-linejoin="round" d="M 299.2372741699219 296.8793029785156 C 292.7848815917969 285.72369384765625 291.393310546875 299.1615295410156 266.3043212890625 306.33258056640625 C 306.65765380859375 178.38291931152344 257.59149169921875 456.9252624511719 390.0397033691406 444.3580627441406 C 241.38427734375 403.7814025878906 324.759521484375 182.40284729003906 485.7010192871094 282.8717956542969 C 353.65496826171875 156.28176879882812 275.7527770996094 388.6888122558594 299.2372741699219 296.8793029785156"/>
    <path stroke-width="0" fill="rgb(183, 187, 184)" opacity="0.9781211" stroke="rgb(252, 26, 53)" stroke-opacity="1.0" stroke-linecap="round" stroke-linejoin="round" d="M 393.33380126953125 206.53236389160156 C 292.91748046875 214.84750366210938 298.04522705078125 222.22607421875 376.1248779296875 211.99114990234375 C 239.17678833007812 203.34852600097656 185.88375854492188 195.78875732421875 159.42213439941406 201.6689910888672 C 240.53402709960938 131.7228546142578 149.10189819335938 19.427276611328125 423.3744201660156 106.1116714477539 C 448.86614990234375 225.61817932128906 269.2184143066406 109.19853210449219 393.33380126953125 206.53236389160156"/>
    <path stroke-width="0" fill="rgb(180, 181, 169)" opacity="0.8594273" stroke="rgb(166, 64, 118)" stroke-opacity="1.0" stroke-linecap="round" stroke-linejoin="round" d="M 328.92779541015625 241.26742553710938 C 288.29833984375 284.36663818359375 280.4878234863281 326.2385559082031 237.50955200195312 356.4309387207031 C 219.42837524414062 347.47235107421875 217.25491333007812 335.0611267089844 229.71153259277344 258.7813415527344 C 225.40684509277344 227.26776123046875 225.24667358398438 209.75155639648438 273.984130859375 214.9071044921875 C 355.8795166015625 216.03512573242188 337.4018859863281 210.24850463867188 328.92779541015625 241.26742553710938"/>
    <path stroke-width="0" fill="rgb(44, 90, 167)" opacity="0.929006" stroke="rgb(40, 28, 167)" stroke-opacity="1.0" stroke-linecap="round" stroke-linejoin="round" d="M 315.9945373535156 267.25189208984375 C 314.4921569824219 265.9291076660156 316.1584777832031 275.1478271484375 306.1288146972656 275.686767578125 C 326.19427490234375 269.6199951171875 334.7137756347656 262.14263916015625 325.6615905761719 252.92413330078125 C 327.6261901855469 249.38339233398438 321.92803955078125 219.1112823486328 311.5934143066406 273.5427551269531 C 268.4414978027344 328.28125 339.3627624511719 312.7082214355469 315.9945373535156 267.25189208984375"/>
    <path stroke-width="0" fill="rgb(177, 172, 170)" opacity="0.8319229" stroke="rgb(50, 94, 209)" stroke-opacity="1.0" stroke-linecap="round" stroke-linejoin="round" d="M 445.0675048828125 454.5766906738281 C 433.56231689453125 476.1086120605469 241.4235382080078 479.95257568359375 427.2626647949219 468.7238464355469 C 147.9656524658203 633.3331298828125 352.0845031738281 315.3224182128906 200.04798889160156 384.9731140136719 C 226.07962036132812 290.4522399902344 136.10447692871094 256.6131896972656 204.5360870361328 299.4317626953125 C 333.217041015625 357.8724060058594 288.9436340332031 461.717529296875 445.0675048828125 454.5766906738281"/>
    <path stroke-width="0" fill="rgb(-7, -2, 9)" opacity="0.95949066" stroke="rgb(213, 24, 248)" stroke-opacity="1.0" stroke-linecap="round" stroke-linejoin="round" d="M 256.41827392578125 269.4863586425781 C 232.4180450439453 186.73245239257812 132.48223876953125 223.98281860351562 154.54229736328125 197.7843780517578 C 338.3060302734375 211.5231475830078 355.0166931152344 192.1941680908203 260.9906921386719 216.98822021484375 C 283.8307189941406 217.5922393798828 352.31195068359375 255.12136840820312 343.7085266113281 206.4447021484375 C 256.3514099121094 197.81520080566406 257.8262939453125 247.07723999023438 256.41827392578125 269.4863586425781"/>
    <path stroke-width="0" fill="rgb(32, 87, 167)" opacity="0.7769979" stroke="rgb(249, 154, 188)" stroke-opacity="1.0" stroke-linecap="round" stroke-linejoin="round" d="M 327.31494140625 228.27223205566406 C 256.417724609375 295.0972900390625 205.6717529296875 283.8076477050781 235.72146606445312 268.3455810546875 C 214.18345642089844 278.3288269042969 206.67764282226562 282.2757568359375 191.7544708251953 247.69239807128906 C 141.76072692871094 273.4344177246094 145.1551971435547 195.5360107421875 173.8166961669922 215.2856903076172 C 266.9513244628906 212.98086547851562 315.9398193359375 211.99891662597656 327.31494140625 228.27223205566406"/>
    <path stroke-width="0" fill="rgb(4, -2, 2)" opacity="0.32031333" stroke="rgb(72, 30, 75)" stroke-opacity="1.0" stroke-linecap="round" stroke-linejoin="round" d="M 213.00103759765625 28.451709747314453 C -30.443626403808594 148.71792602539062 112.98262023925781 176.93392944335938 1.5276962518692017 347.8973388671875 C -91.08706665039062 155.9538116455078 -36.26618957519531 116.5954360961914 -31.709943771362305 36.69902801513672 C -31.88047218322754 10.4307222366333 -24.965839385986328 4.1932501792907715 12.012850761413574 -3.8657398223876953 C 86.47850036621094 -2.331214189529419 169.28826904296875 -68.68684387207031 213.00103759765625 28.451709747314453"/>
    <path stroke-width="0" fill="rgb(123, 124, 126)" opacity="0.7507196" stroke="rgb(81, 105, 16)" stroke-opacity="1.0" stroke-linecap="round" stroke-linejoin="round" d="M 288.9079895019531 50.51664733886719 C 4.720211505889893 88.41101837158203 168.6986541748047 230.255615234375 27.743715286254883 273.986083984375 C 5.626100540161133 73.69962310791016 167.7761993408203 25.28184700012207 195.78646850585938 18.698060989379883 C 48.20943832397461 18.94037628173828 90.03929138183594 -61.56882095336914 132.6010284423828 -88.09758758544922 C 156.87156677246094 -111.50469207763672 202.78915405273438 -175.1352996826172 288.9079895019531 50.51664733886719"/>
    <path stroke-width="0" fill="rgb(181, 181, 184)" opacity="0.71914226" stroke="rgb(144, 67, 133)" stroke-opacity="1.0" stroke-linecap="round" stroke-linejoin="round" d="M 328.7682800292969 -20.22173500061035 C 287.5435791015625 212.7394561767578 206.8184051513672 173.30812072753906 218.87632751464844 188.03968811035156 C 150.49595642089844 199.10818481445312 155.45181274414062 218.2726287841797 171.44827270507812 162.5826416015625 C 271.1388244628906 171.04144287109375 168.16322326660156 77.21087646484375 96.25858306884766 214.6430206298828 C 186.18209838867188 12.760194778442383 347.34637451171875 26.203594207763672 328.7682800292969 -20.22173500061035"/>
    <path stroke-width="0" fill="rgb(40, 100, 184)" opacity="0.99252367" stroke="rgb(146, 236, 81)" stroke-opacity="1.0" stroke-linecap="round" stroke-linejoin="round" d="M 391.6654968261719 349.993896484375 C 409.94207763671875 387.3388366699219 322.2967529296875 345.1095275878906 240.12911987304688 406.3688049316406 C 344.60211181640625 342.074951171875 263.4044494628906 433.2382507324219 201.84939575195312 314.64727783203125 C 127.54891204833984 188.53147888183594 97.20537567138672 258.7902526855469 332.61846923828125 220.58523559570312 C 303.95379638671875 396.2646484375 256.00665283203125 355.7062683105469 391.6654968261719 349.993896484375"/>
    <path stroke-width="0" fill="rgb(179, 197, 186)" opacity="0.9943685" stroke="rgb(33, 182, 73)" stroke-opacity="1.0" stroke-linecap="round" stroke-linejoin="round" d="M 309.4333190917969 281.84954833984375 C 273.08563232421875 373.9293212890625 311.4371032714844 307.005615234375 253.45101928710938 335.5616760253906 C 230.27928161621094 305.0726318359375 207.4917449951172 272.365966796875 172.390380859375 231.49974060058594 C 156.1856231689453 204.7971649169922 122.37030029296875 213.322265625 270.0155334472656 212.62030029296875 C 364.69573974609375 223.6484375 335.7656555175781 193.01995849609375 309.4333190917969 281.84954833984375"/>
    <path stroke-width="0" fill="rgb(141, 145, 137)" opacity="0.51847315" stroke="rgb(149, 5, 211)" stroke-opacity="1.0" stroke-linecap="round" stroke-linejoin="round" d="M 517.4640502929688 351.37481689453125 C 411.4286193847656 141.66375732421875 378.555419921875 218.1264190673828 381.093994140625 228.35745239257812 C 302.1630554199219 103.24746704101562 265.4406433105469 58.18833923339844 107.69855499267578 144.42007446289062 C 171.64234924316406 -1.9922438859939575 213.64764404296875 52.566444396972656 293.68316650390625 -33.24800109863281 C 493.98162841796875 -48.921810150146484 597.2612915039062 -59.7369270324707 517.4640502929688 351.37481689453125"/>
    <path stroke-width="0" fill="rgb(180, 180, 171)" opacity="0.98909557" stroke="rgb(172, 68, 187)" stroke-opacity="1.0" stroke-linecap="round" stroke-linejoin="round" d="M 476.932373046875 273.7635803222656 C 514.2742919921875 301.2962951660156 444.8996276855469 223.75413513183594 366.24432373046875 254.8074951171875 C 348.9620666503906 215.07861328125 321.2795715332031 193.21658325195312 360.8275451660156 160.2066650390625 C 252.54571533203125 131.6665496826172 267.0274963378906 168.6449737548828 368.85174560546875 179.04275512695312 C 491.6340026855469 100.14974975585938 481.62725830078125 158.08901977539062 476.932373046875 273.7635803222656"/>
    <path stroke-width="0" fill="rgb(-9, 0, -1)" opacity="1.0140545" stroke="rgb(63, 146, 150)" stroke-opacity="1.0" stroke-linecap="round" stroke-linejoin="round" d="M 312.76080322265625 274.0417175292969 C 342.885986328125 172.11019897460938 355.7288513183594 183.17242431640625 325.5656433105469 264.5486145019531 C 324.3798522949219 264.8984375 327.9593505859375 255.59429931640625 326.3128356933594 261.4868469238281 C 327.4073181152344 258.15533447265625 326.68756103515625 266.7587890625 323.3756103515625 261.7147521972656 C 327.7636413574219 263.6535339355469 319.4751281738281 288.8257141113281 312.76080322265625 274.0417175292969"/>
    <path stroke-width="0" fill="rgb(92, 95, 91)" opacity="0.7330205" stroke="rgb(56, 242, 114)" stroke-opacity="1.0" stroke-linecap="round" stroke-linejoin="round" d="M 14.33221435546875 163.26620483398438 C -10.687956809997559 347.92047119140625 18.149030685424805 83.15486907958984 -24.438936233520508 68.26795196533203 C -33.61650848388672 65.88433074951172 -35.86575698852539 55.43598556518555 -32.722904205322266 39.0489387512207 C -0.4453011453151703 -13.683624267578125 19.02506446838379 -48.50373840332031 266.79827880859375 18.52252769470215 C 236.08897399902344 78.14067840576172 140.35791015625 -92.09786987304688 14.33221435546875 163.26620483398438"/>
    <path stroke-width="0" fill="rgb(-5, -1, 5)" opacity="0.9906068" stroke="rgb(178, 75, 207)" stroke-opacity="1.0" stroke-linecap="round" stroke-linejoin="round" d="M 485.3197937011719 448.9219970703125 C 536.836181640625 269.6283264160156 441.6270446777344 280.97442626953125 464.43463134765625 263.491943359375 C 521.7655029296875 308.5174560546875 498.551025390625 336.4069519042969 507.5104064941406 315.9400939941406 C 508.49755859375 403.68402099609375 503.27862548828125 409.9150695800781 495.72381591796875 370.80084228515625 C 497.5813293457031 463.7563171386719 301.1626892089844 455.7491149902344 485.3197937011719 448.9219970703125"/>
    <path stroke-width="0" fill="rgb(63, 67, 54)" opacity="0.8727595" stroke="rgb(224, 148, 224)" stroke-opacity="1.0" stroke-linecap="round" stroke-linejoin="round" d="M 59.39333724975586 481.7683410644531 C 24.67121124267578 418.6004638671875 41.78999328613281 448.4278259277344 56.57682800292969 540.6651611328125 C -19.43604278564453 506.0313720703125 -11.809866905212402 480.82891845703125 -11.0649995803833 440.2989501953125 C -33.01291275024414 414.1160888671875 -26.15655517578125 417.9549255371094 1.1649742126464844 430.8079528808594 C 41.2216911315918 442.1774597167969 32.09163284301758 449.515380859375 59.39333724975586 481.7683410644531"/>
    <path stroke-width="0" fill="rgb(70, 81, 74)" opacity="0.77689034" stroke="rgb(184, 127, 243)" stroke-opacity="1.0" stroke-linecap="round" stroke-linejoin="round" d="M 128.56736755371094 455.235107421875 C 75.42105102539062 461.2103576660156 70.34288787841797 488.184814453125 57.8231086730957 495.81756591796875 C 10.711501121520996 491.6545104980469 69.07100677490234 436.3565673828125 -15.433218955993652 433.0462341308594 C -13.157365798950195 397.2071838378906 -17.736541748046875 378.3895568847656 5.226885795593262 375.6387634277344 C 19.725666046142578 427.87933349609375 65.97727966308594 458.7169494628906 128.56736755371094 455.235107421875"/>
    <path stroke-width="0" fill="rgb(131, 131, 108)" opacity="0.97415483" stroke="rgb(108, 154, 4)" stroke-opacity="1.0" stroke-linecap="round" stroke-linejoin="round" d="M 97.97766876220703 364.7557373046875 C 81.07997131347656 395.7591247558594 59.47810745239258 439.54022216796875 66.41908264160156 426.3600158691406 C 64.76700592041016 435.7106628417969 42.54291915893555 406.400390625 28.78436851501465 390.1894836425781 C -5.745224952697754 319.18133544921875 27.35405731201172 358.03729248046875 101.67353057861328 341.3162841796875 C 94.42826080322266 358.26678466796875 51.51826477050781 413.9137878417969 97.97766876220703 364.7557373046875"/>
    <path stroke-width="0" fill="rgb(93, 102, 100)" opacity="0.7656688" stroke="rgb(168, 73, 157)" stroke-opacity="1.0" stroke-linecap="round" stroke-linejoin="round" d="M 168.52963256835938 438.6696472167969 C 302.92218017578125 502.8392028808594 188.43206787109375 548.7539672851562 25.3114013671875 545.6561889648438 C 11.251142501831055 543.2071533203125 3.708277463912964 537.02392578125 7.894495964050293 531.0206298828125 C 29.943586349487305 461.5301513671875 29.455167770385742 448.3072814941406 35.155399322509766 457.80499267578125 C 118.78330993652344 463.8137512207031 144.2156982421875 441.080322265625 168.52963256835938 438.6696472167969"/>
    <path stroke-width="0" fill="rgb(-3, 5, 6)" opacity="0.92618066" stroke="rgb(34, 76, 145)" stroke-opacity="1.0" stroke-linecap="round" stroke-linejoin="round" d="M 169.71173095703125 138.69371032714844 C 160.4517059326172 149.17481994628906 155.01121520996094 147.28797912597656 189.80856323242188 144.30575561523438 C 190.96035766601562 143.6898651123047 176.1932830810547 144.4396514892578 151.8349151611328 147.44586181640625 C 187.13809204101562 148.41285705566406 195.6555938720703 146.08096313476562 161.74249267578125 165.13087463378906 C 159.0829620361328 156.8318328857422 145.1488800048828 162.47557067871094 169.71173095703125 138.69371032714844"/>
    <path stroke-width="0" fill="rgb(84, 90, 73)" opacity="0.8955153" stroke="rgb(146, 166, 166)" stroke-opacity="1.0" stroke-linecap="round" stroke-linejoin="round" d="M 61.10041427612305 526.1757202148438 C 47.256099700927734 539.38818359375 38.75363540649414 545.7471313476562 27.42095375061035 546.61962890625 C -6.0 521.3204956054688 -13.320508003234863 514.0 -38.8086051940918 480.6268615722656 C -40.550071716308594 466.4933166503906 -38.59952926635742 451.1054382324219 7.004474639892578 390.89190673828125 C 60.16699981689453 481.4521789550781 132.2002716064453 479.8658142089844 61.10041427612305 526.1757202148438"/>
    <path stroke-width="0" fill="rgb(117, 121, 123)" opacity="0.8612197" stroke="rgb(182, 254, 38)" stroke-opacity="1.0" stroke-linecap="round" stroke-linejoin="round" d="M 519.8615112304688 376.12091064453125 C 583.13330078125 358.8527526855469 478.1192932128906 267.0731201171875 428.6348876953125 239.62173461914062 C 468.9879455566406 149.339599609375 318.6951904296875 39.72963333129883 248.0524444580078 86.25051879882812 C 61.8675422668457 -11.222479820251465 316.6536560058594 -36.12660217285156 372.389404296875 2.9893407821655273 C 424.9886169433594 7.378391742706299 550.72119140625 8.556456565856934 519.8615112304688 376.12091064453125"/>
    <path stroke-width="0" fill="rgb(86, 87, 84)" opacity="0.5949522" stroke="rgb(41, 156, 31)" stroke-opacity="1.0" stroke-linecap="round" stroke-linejoin="round" d="M 102.98492431640625 482.995361328125 C 158.50572204589844 504.52923583984375 68.6982650756836 517.6566162109375 67.56340789794922 520.1279296875 C 52.606510162353516 492.427978515625 55.7494010925293 433.29632568359375 71.95480346679688 487.30145263671875 C -3.894083261489868 407.93328857421875 -9.687873840332031 409.9491882324219 31.130695343017578 446.295166015625 C 77.5678939819336 454.21722412109375 79.01081085205078 467.56378173828125 102.98492431640625 482.995361328125"/>
    <path stroke-width="0" fill="rgb(88, 94, 90)" opacity="0.6677731" stroke="rgb(205, 145, 103)" stroke-opacity="1.0" stroke-linecap="round" stroke-linejoin="round" d="M 68.53015899658203 448.6401672363281 C 185.02130126953125 491.43072509765625 210.15692138671875 533.9420776367188 55.74358367919922 504.7283630371094 C -32.2967529296875 448.3337097167969 -38.51905059814453 393.4722900390625 73.55220031738281 501.4120178222656 C -30.58936882019043 439.133544921875 -22.242128372192383 444.8020935058594 22.724157333374023 437.87396240234375 C 10.056525230407715 383.4735107421875 17.957712173461914 424.89697265625 68.53015899658203 448.6401672363281"/>
    <path stroke-width="0" fill="rgb(89, 90, 80)" opacity="0.71272933" stroke="rgb(177, 115, 184)" stroke-opacity="1.0" stroke-linecap="round" stroke-linejoin="round" d="M 97.23779296875 497.4302062988281 C 66.8955078125 530.9403076171875 59.012142181396484 538.1245727539062 67.07605743408203 529.0125732421875 C 23.163433074951172 480.82257080078125 -43.38188171386719 492.4492492675781 -56.23080825805664 496.77947998046875 C -1.0405356884002686 455.7156066894531 -11.923786163330078 460.8006896972656 -19.77652931213379 446.703857421875 C 29.316946029663086 433.1183776855469 31.53632926940918 468.6576843261719 97.23779296875 497.4302062988281"/>
    <path stroke-width="0" fill="rgb(258, 9, 38)" opacity="0.7648424" stroke="rgb(248, 218, 2)" stroke-opacity="1.0" stroke-linecap="round" stroke-linejoin="round" d="M 363.2477722167969 171.8291778564453 C 344.8974914550781 181.34950256347656 349.508544921875 174.052490234375 324.7290344238281 159.4397430419922 C 333.0284423828125 174.6211700439453 312.6847229003906 148.61915588378906 335.4502258300781 167.9077911376953 C 372.3867492675781 192.1822052001953 348.3139953613281 153.455322265625 338.1017761230469 205.06716918945312 C 349.29058837890625 222.4134063720703 347.8118896484375 173.70440673828125 363.2477722167969 171.8291778564453"/>
    <path stroke-width="0" fill="rgb(-6, -2, 14)" opacity="0.9816001" stroke="rgb(186, 43, 132)" stroke-opacity="1.0" stroke-linecap="round" stroke-linejoin="round" d="M 180.8032989501953 302.0142517089844 C 191.0321807861328 264.74517822265625 115.62027740478516 251.4190216064453 147.70152282714844 245.6022186279297 C 158.57728576660156 262.9767761230469 136.63595581054688 238.06517028808594 138.49668884277344 255.0652618408203 C 138.31027221679688 249.3158416748047 191.4778289794922 246.68368530273438 86.11882781982422 258.3924560546875 C 124.45648956298828 254.37237548828125 166.34031677246094 269.01922607421875 180.8032989501953 302.0142517089844"/>
    <path stroke-width="0" fill="rgb(112, 110, 115)" opacity="0.601597" stroke="rgb(50, 4, 202)" stroke-opacity="1.0" stroke-linecap="round" stroke-linejoin="round" d="M 247.73243713378906 452.56201171875 C 232.98178100585938 575.7340698242188 138.09889221191406 553.0169067382812 164.10157775878906 559.9893798828125 C 223.09744262695312 471.2820129394531 150.99510192871094 406.248046875 132.4398193359375 478.5213317871094 C 58.56189727783203 446.9659118652344 98.76497650146484 484.0018615722656 77.51112365722656 449.0354919433594 C 161.81597900390625 470.7587585449219 144.63543701171875 400.18353271484375 247.73243713378906 452.56201171875"/>
    <path stroke-width="0" fill="rgb(259, 255, 254)" opacity="0.909618" stroke="rgb(88, 236, 179)" stroke-opacity="1.0" stroke-linecap="round" stroke-linejoin="round" d="M 90.3271484375 359.1617126464844 C 115.03350067138672 388.2844543457031 6.040777206420898 399.1540832519531 27.143510818481445 390.3717041015625 C 89.08985137939453 403.09405517578125 111.02632904052734 334.066162109375 60.03831100463867 434.0686340332031 C 32.474674224853516 378.3646240234375 8.271829605102539 403.12335205078125 77.19823455810547 371.76220703125 C -0.2159191220998764 405.6142578125 20.862977981567383 390.2356262207031 90.3271484375 359.1617126464844"/>
    <path stroke-width="0" fill="rgb(119, 119, 120)" opacity="0.43206057" stroke="rgb(41, 158, 147)" stroke-opacity="1.0" stroke-linecap="round" stroke-linejoin="round" d="M 381.1021728515625 7.880197525024414 C 184.38265991210938 -12.778566360473633 270.5556335449219 100.0607681274414 516.7886352539062 108.0009765625 C 504.1539001464844 -82.63671875 49.744873046875 -55.9520149230957 -4.294735431671143 281.03985595703125 C -42.63593673706055 -40.339622497558594 310.416259765625 -44.9129524230957 300.0661315917969 -23.68170166015625 C 397.6994323730469 -0.5069140195846558 412.4067077636719 14.696282386779785 381.1021728515625 7.880197525024414"/>
    <path stroke-width="0" fill="rgb(156, 160, 159)" opacity="0.59297407" stroke="rgb(238, 156, 136)" stroke-opacity="1.0" stroke-linecap="round" stroke-linejoin="round" d="M 448.8620300292969 255.3160400390625 C 332.04638671875 221.14620971679688 438.25103759765625 4.423430919647217 428.3666076660156 123.4583511352539 C 109.65130615234375 158.9166259765625 181.28404235839844 76.62273406982422 82.84228515625 251.81309509277344 C -11.569867134094238 75.94369506835938 458.4175109863281 4.38194465637207 319.3070068359375 42.52049255371094 C 301.9854736328125 8.60538387298584 525.7665405273438 30.066280364990234 448.8620300292969 255.3160400390625"/>
    <path stroke-width="0" fill="rgb(93, 103, 103)" opacity="0.94883084" stroke="rgb(186, 79, 101)" stroke-opacity="1.0" stroke-linecap="round" stroke-linejoin="round" d="M 544.5504760742188 323.8764343261719 C 547.3452758789062 544.0161743164062 540.02099609375 551.331298828125 442.2588195800781 579.982421875 C 290.6767272949219 689.1915283203125 224.57534790039062 741.2799682617188 220.08673095703125 473.6907043457031 C 349.02496337890625 408.4824523925781 427.0221862792969 502.8189697265625 494.53863525390625 401.3457336425781 C 550.24462890625 283.0790710449219 401.3703308105469 231.69192504882812 544.5504760742188 323.8764343261719"/>
    <path stroke-width="0" fill="rgb(75, 104, 87)" opacity="0.34279138" stroke="rgb(47, 240, 188)" stroke-opacity="1.0" stroke-linecap="round" stroke-linejoin="round" d="M 403.53594970703125 301.954833984375 C 401.8906555175781 294.85302734375 406.59649658203125 270.1561584472656 399.67510986328125 331.0348205566406 C 403.9350280761719 250.5775146484375 396.95684814453125 274.452392578125 404.9097595214844 289.21160888671875 C 401.8308410644531 280.67572021484375 402.5177307128906 248.89236450195312 401.4016418457031 255.94064331054688 C 402.6310729980469 242.3715057373047 402.91583251953125 302.82440185546875 403.53594970703125 301.954833984375"/>
    <path stroke-width="0" fill="rgb(94, 96, 94)" opacity="0.31884497" stroke="rgb(57, 64, 14)" stroke-opacity="1.0" stroke-linecap="round" stroke-linejoin="round" d="M 143.92250061035156 463.3285827636719 C 246.6012725830078 509.9713134765625 153.39564514160156 505.2644958496094 54.55973434448242 542.7281494140625 C 42.44731140136719 537.2024536132812 37.819068908691406 530.1972045898438 94.02310180664062 515.2601318359375 C -87.1352310180664 408.44903564453125 6.573947429656982 430.3077087402344 79.6601333618164 490.0015563964844 C 12.50683879852295 406.8426208496094 29.095373153686523 450.36065673828125 143.92250061035156 463.3285827636719"/>
    <path stroke-width="0" fill="rgb(240, 18, 17)" opacity="1.0000763" stroke="rgb(79, 177, 96)" stroke-opacity="1.0" stroke-linecap="round" stroke-linejoin="round" d="M 162.74786376953125 151.2897186279297 C 183.92010498046875 151.12681579589844 167.66787719726562 148.10231018066406 165.18484497070312 157.21893310546875 C 166.1785888671875 151.2425994873047 178.2054443359375 149.28848266601562 164.64556884765625 151.93788146972656 C 177.70631408691406 148.1695556640625 201.16665649414062 156.17617797851562 191.29843139648438 140.33375549316406 C 126.83171844482422 132.39649963378906 141.854736328125 179.454345703125 162.74786376953125 151.2897186279297"/>
    <path stroke-width="0" fill="rgb(89, 88, 84)" opacity="0.8756819" stroke="rgb(6, 17, 173)" stroke-opacity="1.0" stroke-linecap="round" stroke-linejoin="round" d="M 16.322751998901367 433.8421325683594 C 28.4613094329834 442.3024597167969 34.484432220458984 438.6585998535156 -62.393516540527344 453.33673095703125 C -25.437917709350586 456.98138427734375 -32.49625015258789 449.58746337890625 -45.60737609863281 424.22027587890625 C -70.30379486083984 352.1377868652344 -50.87915802001953 351.5382995605469 3.663400650024414 361.814453125 C 16.240619659423828 419.7839660644531 31.51863670349121 434.0310974121094 16.322751998901367 433.8421325683594"/>
    <path stroke-width="0" fill="rgb(143, 150, 149)" opacity="0.5465805" stroke="rgb(136, 228, 252)" stroke-opacity="1.0" stroke-linecap="round" stroke-linejoin="round" d="M 453.2478332519531 231.48350524902344 C 412.3988037109375 323.01165771484375 450.3453063964844 69.17768859863281 261.0531311035156 88.95489501953125 C 253.4835205078125 91.90676879882812 249.49771118164062 32.77110290527344 70.22454833984375 163.1807861328125 C 153.5419464111328 24.33422088623047 315.3518371582031 21.076650619506836 365.16473388671875 -6.449429035186768 C 271.42803955078125 39.373199462890625 427.2752380371094 28.354877471923828 453.2478332519531 231.48350524902344"/>
    <path stroke-width="0" fill="rgb(135, 135, 138)" opacity="0.6015852" stroke="rgb(169, 67, 5)" stroke-opacity="1.0" stroke-linecap="round" stroke-linejoin="round" d="M 385.0557556152344 450.9932861328125 C 261.6641845703125 556.0043334960938 126.13043975830078 390.149169921875 104.33039855957031 611.5336303710938 C 87.05445098876953 561.8491821289062 110.97525787353516 535.2816162109375 90.69261932373047 534.1359252929688 C 257.82470703125 600.963623046875 203.80413818359375 410.9042053222656 126.59049987792969 456.60784912109375 C 187.9994354248047 420.0845947265625 222.66201782226562 385.08673095703125 385.0557556152344 450.9932861328125"/>
    <path stroke-width="0" fill="rgb(90, 94, 87)" opacity="0.68242806" stroke="rgb(81, 97, 150)" stroke-opacity="1.0" stroke-linecap="round" stroke-linejoin="round" d="M 591.6598510742188 211.7984619140625 C 353.1334228515625 76.18390655517578 259.6942443847656 -70.65786743164062 262.2769470214844 101.4793930053711 C 330.3053283691406 113.61998748779297 304.0203857421875 115.94395446777344 259.2682800292969 100.51624298095703 C 306.15301513671875 2.921100378036499 222.6352081298828 -53.715187072753906 422.9122619628906 -32.09810256958008 C 425.5557556152344 -10.934330940246582 515.30419921875 -18.937667846679688 591.6598510742188 211.7984619140625"/>
    <path stroke-width="0" fill="rgb(90, 89, 79)" opacity="0.7614204" stroke="rgb(160, 222, 69)" stroke-opacity="1.0" stroke-linecap="round" stroke-linejoin="round" d="M 2.7630348205566406 473.26885986328125 C 31.36043930053711 476.43572998046875 30.182863235473633 482.7278747558594 -22.391170501708984 475.73858642578125 C 10.457038879394531 452.3590087890625 -18.080373764038086 413.81536865234375 -30.1299991607666 414.26678466796875 C -29.795747756958008 421.0752258300781 -21.742794036865234 415.0025329589844 -13.917556762695312 410.4041748046875 C 31.542312622070312 426.6278991699219 23.329238891601562 462.93994140625 2.7630348205566406 473.26885986328125"/>
    <path stroke-width="0" fill="rgb(179, 178, 173)" opacity="0.8104341" stroke="rgb(47, 242, 175)" stroke-opacity="1.0" stroke-linecap="round" stroke-linejoin="round" d="M 334.5408935546875 246.3040313720703 C 333.8746643066406 220.5393829345703 323.4483947753906 300.57977294921875 347.35357666015625 260.0006103515625 C 341.58245849609375 220.2936248779297 362.4450988769531 241.15858459472656 348.7594909667969 207.97056579589844 C 376.1529541015625 225.092041015625 383.98406982421875 243.7313995361328 351.2826843261719 230.4875946044922 C 340.5044250488281 252.62356567382812 346.9817199707031 194.00057983398438 334.5408935546875 246.3040313720703"/>
    <path stroke-width="0" fill="rgb(3, 8, -6)" opacity="0.8117009" stroke="rgb(241, 186, 64)" stroke-opacity="1.0" stroke-linecap="round" stroke-linejoin="round" d="M 532.4127197265625 348.65325927734375 C 402.3015441894531 387.05743408203125 433.79254150390625 292.72723388671875 440.9472351074219 365.4862976074219 C 386.3411560058594 336.4173583984375 425.03875732421875 343.5945739746094 411.6465759277344 339.20751953125 C 530.3803100585938 191.64845275878906 384.69952392578125 334.3924560546875 412.0686950683594 397.6387939453125 C 396.6339111328125 312.36187744140625 463.4400329589844 382.52203369140625 532.4127197265625 348.65325927734375"/>
    <path stroke-width="0" fill="rgb(165, 170, 168)" opacity="0.71065044" stroke="rgb(132, 6, 52)" stroke-opacity="1.0" stroke-linecap="round" stroke-linejoin="round" d="M 342.91619873046875 115.29572296142578 C 364.861083984375 159.68772888183594 437.49853515625 175.91024780273438 304.4164123535156 156.83265686035156 C 139.74867248535156 139.71963500976562 216.1707763671875 216.4126739501953 190.84091186523438 121.26959228515625 C 279.9642639160156 126.87601470947266 319.40618896484375 51.42145919799805 126.99850463867188 127.99339294433594 C 258.8322448730469 77.16763305664062 271.4970703125 103.2620849609375 342.91619873046875 115.29572296142578"/>
    <path stroke-width="0" fill="rgb(8, 15, -1)" opacity="0.6618892" stroke="rgb(95, 118, 70)" stroke-opacity="1.0" stroke-linecap="round" stroke-linejoin="round" d="M 413.6402893066406 255.03260803222656 C 407.9018859863281 254.31961059570312 397.3295593261719 227.5249481201172 402.8590393066406 295.6321105957031 C 405.9999694824219 221.43002319335938 395.88726806640625 256.0370788574219 401.25201416015625 249.3974609375 C 406.6856384277344 256.1433410644531 408.4824523925781 250.08807373046875 400.3885803222656 252.23609924316406 C 399.606201171875 256.7713928222656 407.2975158691406 246.41229248046875 413.6402893066406 255.03260803222656"/>
    <path stroke-width="0" fill="rgb(177, 190, 189)" opacity="0.8580644" stroke="rgb(220, 29, 131)" stroke-opacity="1.0" stroke-linecap="round" stroke-linejoin="round" d="M 244.95062255859375 314.9046936035156 C 254.99964904785156 313.26025390625 240.13394165039062 329.1606750488281 285.5804138183594 321.4664611816406 C 273.8966979980469 307.3274841308594 255.5857391357422 294.61962890625 256.4822082519531 300.8148498535156 C 256.91229248046875 327.10333251953125 256.85321044921875 314.1299743652344 256.62750244140625 295.51446533203125 C 270.83917236328125 295.1531066894531 264.7082214355469 314.9901123046875 244.95062255859375 314.9046936035156"/>
    <path stroke-width="0" fill="rgb(38, 69, 43)" opacity="0.84366953" stroke="rgb(182, 100, 144)" stroke-opacity="1.0" stroke-linecap="round" stroke-linejoin="round" d="M 102.25975036621094 447.7594299316406 C 102.77059173583984 368.1507873535156 99.08573150634766 427.4546813964844 101.48207092285156 445.72747802734375 C 100.18470764160156 450.4499206542969 107.99413299560547 443.0230407714844 101.96361541748047 449.0470275878906 C 102.5544662475586 449.7447509765625 106.93321990966797 440.1915588378906 99.38505554199219 444.16021728515625 C 104.20745086669922 450.660400390625 98.56788635253906 445.11004638671875 102.25975036621094 447.7594299316406"/>
    <path stroke-width="0" fill="rgb(187, 184, 196)" opacity="0.9535041" stroke="rgb(140, 149, 245)" stroke-opacity="1.0" stroke-linecap="round" stroke-linejoin="round" d="M 376.20648193359375 368.6450500488281 C 330.8112487792969 380.177734375 360.7879638671875 381.62158203125 353.44708251953125 378.609375 C 334.1247253417969 385.22955322265625 296.7841796875 358.52972412109375 319.3643493652344 385.56488037109375 C 349.26336669921875 384.3166809082031 326.5540771484375 381.4966125488281 347.3214416503906 366.31475830078125 C 372.89068603515625 374.15362548828125 332.2484436035156 366.3939514160156 376.20648193359375 368.6450500488281"/>
    <path stroke-width="0" fill="rgb(263, 254, 251)" opacity="0.95736516" stroke="rgb(61, 25, 4)" stroke-opacity="1.0" stroke-linecap="round" stroke-linejoin="round" d="M 435.9716796875 338.85125732421875 C 424.509521484375 337.3330383300781 443.4154357910156 348.27435302734375 444.9384460449219 379.16650390625 C 430.94525146484375 389.6603698730469 402.6486511230469 379.4027404785156 435.873779296875 402.8952331542969 C 381.8208312988281 332.0763854980469 458.2079772949219 363.99993896484375 461.71588134765625 341.17645263671875 C 453.2732849121094 366.4987487792969 433.49481201171875 336.3996276855469 435.9716796875 338.85125732421875"/>
    <path stroke-width="0" fill="rgb(261, 263, 253)" opacity="0.59481126" stroke="rgb(170, 200, 71)" stroke-opacity="1.0" stroke-linecap="round" stroke-linejoin="round" d="M 349.8677673339844 289.4955749511719 C 361.33453369140625 268.8730773925781 348.6055908203125 277.17584228515625 334.4459533691406 335.76531982421875 C 333.36663818359375 314.9992980957031 321.11700439453125 316.387939453125 354.1399230957031 279.2215270996094 C 352.6908874511719 282.0688781738281 344.4595642089844 248.78399658203125 330.71783447265625 278.1556396484375 C 340.3681640625 252.61790466308594 357.673095703125 274.3739318847656 349.8677673339844 289.4955749511719"/>
    <path stroke-width="0" fill="rgb(149, 155, 136)" opacity="0.25369948" stroke="rgb(16, 123, 249)" stroke-opacity="1.0" stroke-linecap="round" stroke-linejoin="round" d="M 335.7335205078125 321.9043884277344 C 358.4811706542969 352.4234313964844 372.5766296386719 334.65875244140625 314.9440002441406 342.5646057128906 C 394.2999572753906 345.9249572753906 339.84405517578125 341.7577209472656 340.9088134765625 323.9795837402344 C 333.1907653808594 339.6992492675781 318.5507507324219 329.9774169921875 305.43878173828125 306.2464599609375 C 327.7811584472656 347.2610778808594 344.7022399902344 327.95037841796875 335.7335205078125 321.9043884277344"/>
    <path stroke-width="0" fill="rgb(251, 238, 237)" opacity="0.7122512" stroke="rgb(86, 245, 59)" stroke-opacity="1.0" stroke-linecap="round" stroke-linejoin="round" d="M 12.048847198486328 360.6575622558594 C 20.96714210510254 236.69581604003906 77.01715850830078 332.7464904785156 30.855209350585938 338.8369445800781 C -5.812053203582764 332.4398193359375 35.93851852416992 333.5558776855469 28.579875946044922 333.0569763183594 C 26.546689987182617 325.6739501953125 37.776554107666016 312.5846252441406 67.36311340332031 306.0401916503906 C 45.82818603515625 315.4303283691406 33.44462966918945 314.5345153808594 12.048847198486328 360.6575622558594"/>
    <path stroke-width="0" fill="rgb(31, 51, 45)" opacity="0.780794" stroke="rgb(126, 163, 93)" stroke-opacity="1.0" stroke-linecap="round" stroke-linejoin="round" d="M 356.44122314453125 340.8542175292969 C 352.190673828125 338.74310302734375 375.36407470703125 375.84503173828125 316.44464111328125 367.2568664550781 C 316.8647155761719 365.7107238769531 300.3050537109375 369.089599609375 351.62677001953125 367.97894287109375 C 363.6961975097656 352.7906188964844 362.93206787109375 334.899658203125 321.60833740234375 343.09930419921875 C 323.2518005371094 330.5223388671875 311.4995422363281 349.3336486816406 356.44122314453125 340.8542175292969"/>
    <path stroke-width="0" fill="rgb(90, 93, 83)" opacity="0.7677333" stroke="rgb(231, 197, 84)" stroke-opacity="1.0" stroke-linecap="round" stroke-linejoin="round" d="M 104.57891082763672 -9.071197509765625 C 66.07660675048828 24.129980087280273 -3.1377999782562256 79.53739166259766 3.6563920974731445 116.96286010742188 C -61.45771408081055 75.92117309570312 -38.9006233215332 43.461402893066406 -21.261756896972656 2.9529316425323486 C -17.32050895690918 -10.0 -10.0 -17.32050895690918 7.241615295410156 -24.014564514160156 C 31.09577178955078 -33.32636642456055 38.93543243408203 -15.198221206665039 104.57891082763672 -9.071197509765625"/>
    <path stroke-width="0" fill="rgb(181, 184, 183)" opacity="0.7692286" stroke="rgb(103, 59, 33)" stroke-opacity="1.0" stroke-linecap="round" stroke-linejoin="round" d="M 200.74786376953125 179.5287628173828 C 220.68959045410156 169.0699462890625 210.97705078125 173.79159545898438 205.95030212402344 180.67327880859375 C 250.51467895507812 121.99724578857422 254.85931396484375 150.10728454589844 215.49485778808594 184.2167205810547 C 218.24661254882812 181.27886962890625 226.2263641357422 173.30462646484375 229.2854461669922 172.44735717773438 C 225.47193908691406 132.10533142089844 203.25869750976562 156.09860229492188 200.74786376953125 179.5287628173828"/>
    <path stroke-width="0" fill="rgb(256, 251, 252)" opacity="0.78744054" stroke="rgb(20, 22, 171)" stroke-opacity="1.0" stroke-linecap="round" stroke-linejoin="round" d="M 75.79670715332031 335.7283020019531 C 61.356773376464844 325.75933837890625 54.54043197631836 330.7496337890625 70.69434356689453 331.96734619140625 C 96.16151428222656 334.3226318359375 40.1627197265625 357.044921875 23.28245735168457 329.2185974121094 C -16.323652267456055 438.8556213378906 86.50288391113281 349.84063720703125 103.73262786865234 348.7962341308594 C 101.84285736083984 315.0151062011719 92.88155364990234 359.5591125488281 75.79670715332031 335.7283020019531"/>
    <path stroke-width="0" fill="rgb(250, 254, 251)" opacity="0.26239052" stroke="rgb(107, 142, 219)" stroke-opacity="1.0" stroke-linecap="round" stroke-linejoin="round" d="M 101.79270935058594 313.44940185546875 C 127.63079071044922 313.2380676269531 108.49690246582031 329.803466796875 94.0857162475586 356.4036560058594 C 4.065525054931641 403.0972595214844 -1.2023619413375854 250.36915588378906 93.01070404052734 271.82073974609375 C 141.9841766357422 318.0433654785156 49.68122863769531 338.1593322753906 113.02222442626953 305.4741516113281 C 130.1214599609375 278.3682556152344 128.63290405273438 289.2526550292969 101.79270935058594 313.44940185546875"/>
    <path stroke-width="0" fill="rgb(1, 19, 7)" opacity="0.7317444" stroke="rgb(14, 177, 198)" stroke-opacity="1.0" stroke-linecap="round" stroke-linejoin="round" d="M 23.8985595703125 299.1236572265625 C 23.97886848449707 287.0792541503906 55.00995635986328 317.495361328125 108.45003509521484 348.96807861328125 C 61.802555084228516 312.7269287109375 13.54848575592041 293.6097412109375 22.594524383544922 279.7736511230469 C 18.50901985168457 292.630126953125 25.910934448242188 274.1859130859375 22.917030334472656 311.7289733886719 C 10.449195861816406 287.6766662597656 37.286163330078125 291.6790466308594 23.8985595703125 299.1236572265625"/>
    <path stroke-width="0" fill="rgb(162, 163, 164)" opacity="0.8090063" stroke="rgb(66, 95, 149)" stroke-opacity="1.0" stroke-linecap="round" stroke-linejoin="round" d="M 344.8625183105469 134.0147705078125 C 330.99603271484375 135.99769592285156 320.2437438964844 135.4207763671875 317.59063720703125 136.48228454589844 C 381.3036193847656 130.22254943847656 367.833984375 137.5708465576172 352.66583251953125 116.87484741210938 C 300.37872314453125 134.9154052734375 280.6511535644531 96.54723358154297 324.0519714355469 103.85691833496094 C 355.9974670410156 150.5228271484375 369.442138671875 161.51141357421875 344.8625183105469 134.0147705078125"/>
    <path stroke-width="0" fill="rgb(147, 136, 131)" opacity="0.13497895" stroke="rgb(94, 50, 117)" stroke-opacity="1.0" stroke-linecap="round" stroke-linejoin="round" d="M 56.01919174194336 321.2726135253906 C 44.40068817138672 324.6904296875 22.419103622436523 313.0574645996094 49.05584716796875 271.6959228515625 C 46.91818618774414 327.2738342285156 46.62961196899414 298.992919921875 50.59858322143555 269.652099609375 C 44.10178756713867 293.0838317871094 48.596370697021484 293.844482421875 33.526519775390625 304.9817810058594 C 35.461524963378906 313.4321594238281 39.662837982177734 299.81439208984375 56.01919174194336 321.2726135253906"/>
    <path stroke-width="0" fill="rgb(0, 0, 13)" opacity="0.86458534" stroke="rgb(203, 19, 132)" stroke-opacity="1.0" stroke-linecap="round" stroke-linejoin="round" d="M 433.09527587890625 361.887451171875 C 527.5287475585938 405.90911865234375 519.3099975585938 406.2586364746094 436.4651794433594 364.62481689453125 C 400.56231689453125 338.731689453125 494.69451904296875 361.4486389160156 423.6063537597656 353.260986328125 C 429.2767639160156 371.6451110839844 449.6560363769531 361.5696716308594 402.02972412109375 343.7388916015625 C 375.2851867675781 362.40301513671875 416.093505859375 352.0196533203125 433.09527587890625 361.887451171875"/>
    <path stroke-width="0" fill="rgb(176, 171, 182)" opacity="0.6173445" stroke="rgb(109, 130, 136)" stroke-opacity="1.0" stroke-linecap="round" stroke-linejoin="round" d="M 330.63629150390625 129.0753173828125 C 319.5794677734375 158.84938049316406 303.7043762207031 162.98944091796875 299.5766906738281 167.1859130859375 C 344.2846374511719 183.18264770507812 310.8667907714844 167.65870666503906 320.6495361328125 195.23753356933594 C 315.3453369140625 186.3321990966797 326.7022705078125 172.5054168701172 298.8732604980469 157.83035278320312 C 295.1734924316406 148.78062438964844 322.60455322265625 157.9302978515625 330.63629150390625 129.0753173828125"/>
    <path stroke-width="0" fill="rgb(5, 0, -11)" opacity="0.63777065" stroke="rgb(70, 32, 100)" stroke-opacity="1.0" stroke-linecap="round" stroke-linejoin="round" d="M 199.10647583007812 402.91668701171875 C 100.92167663574219 344.8074951171875 47.18234634399414 336.2824401855469 131.218994140625 350.2513122558594 C 121.05452728271484 325.95831298828125 126.31773376464844 336.6284484863281 130.99871826171875 350.62060546875 C 89.50189971923828 349.78826904296875 119.67858123779297 365.0367431640625 160.3603057861328 453.768798828125 C 79.6573715209961 310.047119140625 102.40400695800781 361.0334167480469 199.10647583007812 402.91668701171875"/>
    <path stroke-width="0" fill="rgb(177, 185, 180)" opacity="0.88220835" stroke="rgb(224, 116, 184)" stroke-opacity="1.0" stroke-linecap="round" stroke-linejoin="round" d="M 199.29779052734375 182.12033081054688 C 170.56089782714844 173.2394561767578 165.00839233398438 182.2088623046875 181.65684509277344 189.95590209960938 C 207.4163818359375 162.18234252929688 200.8420867919922 164.64178466796875 189.62124633789062 166.30128479003906 C 175.81951904296875 188.8141326904297 196.78179931640625 177.9408721923828 215.1082000732422 185.2870635986328 C 194.46670532226562 177.83045959472656 170.2819366455078 223.14801025390625 199.29779052734375 182.12033081054688"/>
    <path stroke-width="0" fill="rgb(221, 223, 232)" opacity="0.13352323" stroke="rgb(230, 175, 178)" stroke-opacity="1.0" stroke-linecap="round" stroke-linejoin="round" d="M 40.56858444213867 318.484130859375 C 44.1141471862793 309.47357177734375 51.6362190246582 282.8968200683594 81.43748474121094 318.3164978027344 C 52.45909881591797 280.0555725097656 47.15719223022461 263.4212951660156 62.404781341552734 245.59210205078125 C 85.72621154785156 243.51483154296875 61.781978607177734 242.73272705078125 51.737545013427734 243.9740447998047 C 56.69212341308594 244.3581085205078 64.12281036376953 232.09934997558594 40.56858444213867 318.484130859375"/>
    <path stroke-width="0" fill="rgb(30, 48, 31)" opacity="0.62071157" stroke="rgb(192, 162, 61)" stroke-opacity="1.0" stroke-linecap="round" stroke-linejoin="round" d="M 3.214153289794922 332.03314208984375 C 80.78824615478516 347.2738037109375 53.49485778808594 330.5335998535156 50.99203872680664 302.1470642089844 C 49.41880798339844 311.90338134765625 53.73140335083008 301.703369140625 52.28782653808594 303.96368408203125 C 54.07059097290039 305.4418029785156 41.96821975708008 311.3913269042969 55.3575325012207 315.7388610839844 C 54.5474967956543 330.7669372558594 70.26150512695312 351.90020751953125 3.214153289794922 332.03314208984375"/>
    <path stroke-width="0" fill="rgb(0, 4, 2)" opacity="0.68948495" stroke="rgb(90, 90, 4)" stroke-opacity="1.0" stroke-linecap="round" stroke-linejoin="round" d="M 159.8885955810547 163.04714965820312 C 156.64373779296875 160.64146423339844 162.6541290283203 160.2115936279297 180.96359252929688 156.3809814453125 C 158.9073944091797 161.35382080078125 159.69468688964844 153.8121337890625 154.3043975830078 202.59783935546875 C 155.3603973388672 166.74517822265625 164.03883361816406 160.50851440429688 165.87884521484375 156.93736267089844 C 158.5918731689453 164.40078735351562 183.61166381835938 144.0560760498047 159.8885955810547 163.04714965820312"/>
    <path stroke-width="0" fill="rgb(171, 168, 164)" opacity="0.38186416" stroke="rgb(248, 252, 104)" stroke-opacity="1.0" stroke-linecap="round" stroke-linejoin="round" d="M 104.79816436767578 238.50709533691406 C 106.2176742553711 219.652099609375 101.90518188476562 243.33493041992188 125.77378845214844 247.70433044433594 C 131.15853881835938 206.0076141357422 115.0030746459961 218.69078063964844 120.67290496826172 240.94361877441406 C 108.8582992553711 234.7632293701172 128.45059204101562 150.03387451171875 113.34941101074219 190.96482849121094 C 118.07418060302734 211.51136779785156 128.8530731201172 244.8673858642578 104.79816436767578 238.50709533691406"/>
    <path stroke-width="0" fill="rgb(0, 6, -7)" opacity="0.6793026" stroke="rgb(162, 125, 252)" stroke-opacity="1.0" stroke-linecap="round" stroke-linejoin="round" d="M 471.29248046875 354.203857421875 C 366.1575927734375 360.7886047363281 406.7052307128906 334.32696533203125 409.41241455078125 367.0611877441406 C 420.0513610839844 322.4959411621094 421.24786376953125 346.85089111328125 350.1475830078125 446.6669006347656 C 414.3767395019531 342.2968444824219 421.1192626953125 353.1080017089844 367.4374084472656 370.6354064941406 C 365.64019775390625 381.3040466308594 379.2300720214844 345.4462585449219 471.29248046875 354.203857421875"/>
    <path stroke-width="0" fill="rgb(162, 183, 169)" opacity="0.40957952" stroke="rgb(91, 211, 235)" stroke-opacity="1.0" stroke-linecap="round" stroke-linejoin="round" d="M 358.4887390136719 324.8195495605469 C 352.3234558105469 318.6495666503906 365.60772705078125 321.31201171875 354.433349609375 376.6517028808594 C 348.1779479980469 376.00592041015625 361.6015319824219 378.3022766113281 358.34075927734375 323.5316467285156 C 360.8139953613281 319.74951171875 357.98553466796875 317.1278991699219 376.36285400390625 334.137451171875 C 355.4559020996094 317.846435546875 351.23211669921875 321.11114501953125 358.4887390136719 324.8195495605469"/>
    <path stroke-width="0" fill="rgb(42, 27, 20)" opacity="0.98486733" stroke="rgb(59, 88, 207)" stroke-opacity="1.0" stroke-linecap="round" stroke-linejoin="round" d="M 437.0090026855469 337.3033142089844 C 483.26080322265625 315.7075500488281 451.6259460449219 325.2755126953125 461.2474060058594 322.91436767578125 C 466.6822814941406 327.92669677734375 465.5415954589844 321.6458740234375 472.98504638671875 317.1482238769531 C 465.97930908203125 325.6670227050781 472.47247314453125 311.572021484375 478.59002685546875 318.596435546875 C 429.8597717285156 334.0603942871094 401.3162536621094 360.0126647949219 437.0090026855469 337.3033142089844"/>
    <path stroke-width="0" fill="rgb(163, 167, 164)" opacity="0.84474444" stroke="rgb(247, 230, 75)" stroke-opacity="1.0" stroke-linecap="round" stroke-linejoin="round" d="M 121.19810485839844 229.20909118652344 C 117.79320526123047 204.4134063720703 118.78056335449219 213.0094757080078 112.78450012207031 211.9030303955078 C 123.14702606201172 203.4824981689453 115.410400390625 240.35281372070312 126.6675796508789 240.61209106445312 C 122.3773193359375 235.5798797607422 121.44550323486328 252.4239959716797 92.02182006835938 229.8961944580078 C 117.22494506835938 239.76246643066406 126.84829711914062 250.55044555664062 121.19810485839844 229.20909118652344"/>
    <path stroke-width="0" fill="rgb(235, 236, 239)" opacity="0.37625396" stroke="rgb(63, 27, 242)" stroke-opacity="1.0" stroke-linecap="round" stroke-linejoin="round" d="M 108.3636474609375 402.52020263671875 C 43.934818267822266 429.17279052734375 55.49707794189453 442.07861328125 20.04652976989746 390.5360107421875 C 115.77643585205078 414.66015625 92.73016357421875 410.0849914550781 53.16423416137695 406.5689697265625 C 78.57842254638672 449.3183898925781 110.99850463867188 463.64385986328125 93.35590362548828 410.1339416503906 C 83.76605987548828 404.4983825683594 78.39861297607422 404.9017333984375 108.3636474609375 402.52020263671875"/>
    <path stroke-width="0" fill="rgb(129, 137, 128)" opacity="0.75117296" stroke="rgb(175, 14, 186)" stroke-opacity="1.0" stroke-linecap="round" stroke-linejoin="round" d="M 62.558170318603516 244.54953002929688 C 65.64598083496094 247.76461791992188 58.75463104248047 265.3641357421875 38.156005859375 240.55282592773438 C 81.55323028564453 248.1365203857422 76.6585922241211 238.423095703125 58.44493865966797 236.38607788085938 C 55.519874572753906 233.84300231933594 49.049293518066406 115.06770324707031 40.60590744018555 245.3238067626953 C 127.51644134521484 211.66452026367188 150.22222900390625 256.78570556640625 62.558170318603516 244.54953002929688"/>
    <path stroke-width="0" fill="rgb(138, 137, 140)" opacity="0.71257323" stroke="rgb(213, 60, 128)" stroke-opacity="1.0" stroke-linecap="round" stroke-linejoin="round" d="M 60.58348083496094 250.01808166503906 C 88.78821563720703 256.68377685546875 85.81462860107422 245.6600799560547 48.25361251831055 238.4608154296875 C 37.069549560546875 242.50302124023438 74.97750854492188 235.83914184570312 120.86919403076172 226.22438049316406 C 76.0820083618164 236.97706604003906 69.32939147949219 246.9044189453125 56.07966232299805 247.15586853027344 C 95.69097137451172 245.37156677246094 107.2802963256836 245.02000427246094 60.58348083496094 250.01808166503906"/>
    <path stroke-width="0" fill="rgb(69, 94, 95)" opacity="0.49668097" stroke="rgb(161, 221, 239)" stroke-opacity="1.0" stroke-linecap="round" stroke-linejoin="round" d="M 384.3103942871094 249.86956787109375 C 375.0710754394531 251.36834716796875 359.0160827636719 252.54098510742188 370.52191162109375 250.86517333984375 C 364.9201965332031 255.90243530273438 363.5024108886719 256.2992248535156 339.6864318847656 260.4963684082031 C 369.7559814453125 255.3428497314453 396.7450866699219 245.2049560546875 388.12701416015625 242.45880126953125 C 376.52398681640625 245.990478515625 400.11798095703125 237.38424682617188 384.3103942871094 249.86956787109375"/>
    <path stroke-width="0" fill="rgb(30, 40, 37)" opacity="0.70723474" stroke="rgb(18, 74, 38)" stroke-opacity="1.0" stroke-linecap="round" stroke-linejoin="round" d="M 87.18575286865234 336.17694091796875 C 103.57756805419922 345.7494201660156 101.96560668945312 322.2173156738281 96.25772857666016 305.373046875 C 102.60211181640625 326.2597351074219 102.21685028076172 335.044677734375 82.55591583251953 311.32928466796875 C 109.41169738769531 341.026611328125 118.03734588623047 348.6050109863281 119.01464080810547 341.81695556640625 C 82.34525299072266 325.6484375 101.43423461914062 353.3269958496094 87.18575286865234 336.17694091796875"/>
    <path stroke-width="0" fill="rgb(2, 6, 6)" opacity="0.84230363" stroke="rgb(246, 139, 70)" stroke-opacity="1.0" stroke-linecap="round" stroke-linejoin="round" d="M 336.1804504394531 207.19573974609375 C 309.13555908203125 214.60455322265625 321.0829772949219 210.31268310546875 312.69000244140625 215.09034729003906 C 358.4254150390625 217.6435089111328 336.35296630859375 198.21023559570312 328.3502502441406 234.55345153808594 C 333.1062927246094 231.16766357421875 344.2181701660156 211.70297241210938 336.3061828613281 222.41580200195312 C 334.7304382324219 220.59774780273438 348.5509033203125 233.4140167236328 336.1804504394531 207.19573974609375"/>
    <path stroke-width="0" fill="rgb(162, 164, 158)" opacity="0.77230734" stroke="rgb(228, 103, 140)" stroke-opacity="1.0" stroke-linecap="round" stroke-linejoin="round" d="M 405.3939208984375 220.17637634277344 C 401.81494140625 243.4237060546875 388.92950439453125 246.87635803222656 428.42803955078125 248.20498657226562 C 455.7502136230469 237.48194885253906 395.5806884765625 220.79293823242188 391.08587646484375 241.80148315429688 C 397.6611022949219 237.8380889892578 398.75823974609375 255.79324340820312 402.635986328125 241.97052001953125 C 397.2377014160156 246.11471557617188 407.3054504394531 242.09156799316406 405.3939208984375 220.17637634277344"/>
    <path stroke-width="0" fill="rgb(209, 207, 194)" opacity="0.1546549" stroke="rgb(116, 102, 63)" stroke-opacity="1.0" stroke-linecap="round" stroke-linejoin="round" d="M 497.2452392578125 368.7425842285156 C 487.8957214355469 420.6046447753906 477.2572326660156 404.7540283203125 458.9840087890625 432.2308654785156 C 417.956298828125 431.2977294921875 428.4172668457031 419.5752258300781 380.20269775390625 359.76812744140625 C 430.6717529296875 378.1904602050781 434.00189208984375 314.6094970703125 429.3016662597656 284.037353515625 C 491.0991516113281 266.5357360839844 505.3044738769531 319.5439453125 497.2452392578125 368.7425842285156"/>
    <path stroke-width="0" fill="rgb(60, 102, 167)" opacity="0.6478627" stroke="rgb(85, 235, 219)" stroke-opacity="1.0" stroke-linecap="round" stroke-linejoin="round" d="M 164.011474609375 229.84544372558594 C 156.30789184570312 242.61737060546875 155.18052673339844 247.67127990722656 167.54237365722656 247.37841796875 C 156.82461547851562 253.74559020996094 145.9086151123047 252.91201782226562 153.06796264648438 250.5536346435547 C 146.4918212890625 258.0181579589844 166.66311645507812 256.0643310546875 153.4100341796875 252.3409881591797 C 183.39173889160156 249.1639404296875 199.3093719482422 267.73077392578125 164.011474609375 229.84544372558594"/>
    <path stroke-width="0" fill="rgb(162, 162, 167)" opacity="0.6229533" stroke="rgb(64, 113, 26)" stroke-opacity="1.0" stroke-linecap="round" stroke-linejoin="round" d="M 136.38729858398438 234.3603057861328 C 109.92463684082031 224.52874755859375 112.21723937988281 223.2257843017578 120.42678833007812 231.44528198242188 C 142.81707763671875 245.03697204589844 100.51644897460938 246.32814025878906 69.4909439086914 239.4548797607422 C 145.77688598632812 225.32666015625 68.91466522216797 208.34149169921875 119.54307556152344 235.6876983642578 C 105.40773010253906 249.7963104248047 148.2482452392578 254.1968536376953 136.38729858398438 234.3603057861328"/>
    <path stroke-width="0" fill="rgb(16, 51, 41)" opacity="0.34231853" stroke="rgb(0, 0, 0)" stroke-opacity="0.0" stroke-linecap="round" stroke-linejoin="round" d="M 19.548419952392578 0.9859714508056641 C 20.433103561401367 5.827110290527344 18.15208625793457 7.487428188323975 13.343432426452637 7.063535690307617 C 12.651383399963379 8.840538024902344 9.59246826171875 5.72429084777832 6.24104118347168 2.3476181030273438 C 7.100976943969727 -1.7893263101577759 10.613054275512695 -4.261671543121338 15.303908348083496 -5.066617488861084 C 19.36581802368164 -4.1290154457092285 22.002992630004883 -1.4389163255691528 19.548419952392578 0.9859714508056641"/>
    <path stroke-width="0" fill="rgb(178, 91, 176)" opacity="0.83495617" stroke="rgb(0, 0, 0)" stroke-opacity="0.0" stroke-linecap="round" stroke-linejoin="round" d="M 18.547330856323242 0.47570258378982544 C 17.438079833984375 5.851423263549805 14.883835792541504 8.401957511901855 11.714255332946777 7.419896125793457 C 7.797043323516846 8.10930347442627 4.580339431762695 6.080100059509277 4.123064041137695 2.5518977642059326 C 4.789022922515869 -0.863968014717102 7.588852405548096 -3.886768341064453 11.736236572265625 -5.103792667388916 C 16.636629104614258 -5.072230339050293 20.134353637695312 -2.6968789100646973 18.547330856323242 0.47570258378982544"/>
    <path stroke-width="0" fill="rgb(155, 198, 141)" opacity="0.21775717" stroke="rgb(0, 0, 0)" stroke-opacity="0.0" stroke-linecap="round" stroke-linejoin="round" d="M 436.30419921875 28.878604888916016 C 435.7280578613281 33.79331970214844 433.2558898925781 36.65177536010742 428.3709411621094 37.68964767456055 C 423.9253234863281 37.230812072753906 421.3592529296875 34.26295852661133 421.3918151855469 30.121875762939453 C 422.59136962890625 25.941936492919922 424.9147033691406 22.360023498535156 429.34014892578125 21.395559310913086 C 434.47576904296875 21.003231048583984 436.7911071777344 23.786291122436523 436.30419921875 28.878604888916016"/>
    <path stroke-width="0" fill="rgb(217, 92, 109)" opacity="0.15749831" stroke="rgb(0, 0, 0)" stroke-opacity="0.0" stroke-linecap="round" stroke-linejoin="round" d="M 311.26806640625 219.00587463378906 C 310.7694091796875 223.46388244628906 307.62799072265625 224.8854217529297 302.6112976074219 224.99266052246094 C 299.7581481933594 224.86355590820312 296.28460693359375 222.40203857421875 294.6878662109375 218.58758544921875 C 296.15338134765625 214.81089782714844 299.44989013671875 212.1889190673828 302.90216064453125 211.10911560058594 C 307.0622253417969 212.03073120117188 310.1132507324219 214.7450714111328 311.26806640625 219.00587463378906"/>
    <path stroke-width="0" fill="rgb(115, 241, 141)" opacity="0.9537894" stroke="rgb(0, 0, 0)" stroke-opacity="0.0" stroke-linecap="round" stroke-linejoin="round" d="M 73.55035400390625 404.814697265625 C 72.50468444824219 406.71044921875 69.34371185302734 409.4064025878906 67.15338134765625 411.0116882324219 C 64.11131286621094 409.8606262207031 61.01223373413086 407.02960205078125 59.56166076660156 404.43316650390625 C 60.836448669433594 400.9666748046875 63.69398498535156 397.9930725097656 66.02557373046875 397.4969482421875 C 69.19270324707031 398.9105224609375 72.1223373413086 401.85882568359375 73.55035400390625 404.814697265625"/>
    <path stroke-width="0" fill="rgb(163, 171, 53)" opacity="0.5229605" stroke="rgb(0, 0, 0)" stroke-opacity="0.0" stroke-linecap="round" stroke-linejoin="round" d="M 389.17303466796875 356.4627685546875 C 389.5670166015625 359.9401550292969 386.6183776855469 362.4403381347656 381.5790710449219 362.960693359375 C 377.84283447265625 362.5581359863281 375.3193054199219 359.4299621582031 375.0266418457031 354.6451110839844 C 374.3805847167969 350.6852111816406 378.0317687988281 349.2754211425781 381.8480224609375 349.1204528808594 C 384.9299011230469 349.6075134277344 387.842041015625 352.4934387207031 389.17303466796875 356.4627685546875"/>
    <path stroke-width="0" fill="rgb(180, 50, 204)" opacity="0.19499871" stroke="rgb(0, 0, 0)" stroke-opacity="0.0" stroke-linecap="round" stroke-linejoin="round" d="M 65.61031341552734 94.01131439208984 C 64.50350189208984 97.31813049316406 61.50495910644531 100.13613891601562 57.27096939086914 100.92752838134766 C 54.21607971191406 100.98757934570312 51.88946533203125 98.04421997070312 51.608585357666016 94.7462158203125 C 52.45646667480469 91.2210922241211 55.53369140625 88.44074249267578 59.58367156982422 86.76994323730469 C 62.41997146606445 86.81979370117188 64.67815399169922 90.4197769165039 65.61031341552734 94.01131439208984"/>
    <path stroke-width="0" fill="rgb(120, 215, 27)" opacity="0.6620334" stroke="rgb(0, 0, 0)" stroke-opacity="0.0" stroke-linecap="round" stroke-linejoin="round" d="M 167.3073272705078 79.81341552734375 C 165.9677734375 84.21623992919922 163.09413146972656 87.2364730834961 159.41993713378906 87.9607925415039 C 154.64553833007812 86.8031997680664 151.47682189941406 84.27072143554688 150.8064422607422 80.8067398071289 C 152.25672912597656 76.46684265136719 155.4563751220703 73.77327728271484 159.22523498535156 72.8222885131836 C 162.56309509277344 73.45301818847656 165.7688446044922 76.0925521850586 167.3073272705078 79.81341552734375"/>
    <path stroke-width="0" fill="rgb(229, 41, 179)" opacity="0.94711125" stroke="rgb(0, 0, 0)" stroke-opacity="0.0" stroke-linecap="round" stroke-linejoin="round" d="M 55.982025146484375 185.93296813964844 C 55.450706481933594 189.3428497314453 52.6260986328125 192.10142517089844 49.0874137878418 192.4748992919922 C 45.8755989074707 191.71571350097656 43.660640716552734 188.50840759277344 43.18242645263672 186.18170166015625 C 43.71263885498047 183.28680419921875 46.569908142089844 180.37655639648438 50.05542755126953 179.51437377929688 C 51.69867706298828 180.1920623779297 54.94171142578125 182.80624389648438 55.982025146484375 185.93296813964844"/>
    <path stroke-width="0" fill="rgb(213, 134, 146)" opacity="0.38351965" stroke="rgb(0, 0, 0)" stroke-opacity="0.0" stroke-linecap="round" stroke-linejoin="round" d="M 357.00390625 408.4122009277344 C 356.6800842285156 412.75341796875 353.8083190917969 414.8788146972656 347.9118347167969 416.17120361328125 C 345.0964660644531 416.083740234375 343.475830078125 411.63018798828125 341.45989990234375 408.6309814453125 C 343.6338806152344 404.9261169433594 345.795654296875 401.2499694824219 349.2560119628906 399.60858154296875 C 353.65533447265625 401.01312255859375 356.49493408203125 403.93096923828125 357.00390625 408.4122009277344"/>
    <path stroke-width="0" fill="rgb(101, 67, 55)" opacity="0.110916294" stroke="rgb(0, 0, 0)" stroke-opacity="0.0" stroke-linecap="round" stroke-linejoin="round" d="M 454.3175964355469 23.70030975341797 C 455.1343688964844 27.142318725585938 452.3040771484375 30.085678100585938 448.6104736328125 30.564456939697266 C 443.4963073730469 29.352571487426758 440.53338623046875 26.494787216186523 439.7204895019531 22.40137481689453 C 440.0801086425781 17.869369506835938 443.1012268066406 15.784916877746582 446.3208312988281 16.385433197021484 C 450.3090515136719 16.962947845458984 453.3935546875 19.515316009521484 454.3175964355469 23.70030975341797"/>
    <path stroke-width="0" fill="rgb(196, 244, 52)" opacity="0.015208088" stroke="rgb(0, 0, 0)" stroke-opacity="0.0" stroke-linecap="round" stroke-linejoin="round" d="M 44.513267517089844 98.794921875 C 44.40269088745117 102.44058990478516 40.877864837646484 104.69818115234375 36.09381103515625 106.62027740478516 C 32.10968017578125 106.15534210205078 29.691272735595703 103.05532836914062 29.19719886779785 98.29843139648438 C 29.9070987701416 93.8709716796875 32.682064056396484 91.2022705078125 37.00837707519531 90.50407409667969 C 41.07389450073242 91.23825073242188 43.679656982421875 94.25553894042969 44.513267517089844 98.794921875"/>
    <path stroke-width="0" fill="rgb(54, 199, 66)" opacity="0.7609099" stroke="rgb(0, 0, 0)" stroke-opacity="0.0" stroke-linecap="round" stroke-linejoin="round" d="M 188.87689208984375 411.560546875 C 187.9639129638672 415.9863586425781 185.18472290039062 418.8876953125 182.53761291503906 419.8519592285156 C 178.82737731933594 419.20074462890625 175.39544677734375 416.7220764160156 173.4651641845703 413.6125183105469 C 174.97145080566406 408.0065612792969 177.1420440673828 405.0714111328125 180.96998596191406 405.56549072265625 C 185.08055114746094 407.2669372558594 188.35955810546875 410.0777587890625 188.87689208984375 411.560546875"/>
    <path stroke-width="0" fill="rgb(137, 100, 134)" opacity="0.6806412" stroke="rgb(0, 0, 0)" stroke-opacity="0.0" stroke-linecap="round" stroke-linejoin="round" d="M 336.5939636230469 375.5655517578125 C 335.9934387207031 380.5343322753906 332.7928466796875 383.2008056640625 328.28656005859375 383.82061767578125 C 323.4700927734375 383.05224609375 320.3158264160156 380.4122619628906 320.53125 377.1409606933594 C 322.42822265625 372.777099609375 324.88043212890625 369.3115539550781 327.9377136230469 367.889404296875 C 331.8401184082031 369.0433654785156 335.541015625 371.5657043457031 336.5939636230469 375.5655517578125"/>
    <path stroke-width="0" fill="rgb(253, 171, 72)" opacity="0.31148955" stroke="rgb(0, 0, 0)" stroke-opacity="0.0" stroke-linecap="round" stroke-linejoin="round" d="M -93.62496948242188 105.63382720947266 C -94.69676971435547 109.63382720947266 -97.62496948242188 112.56202697753906 -101.62496948242188 113.63382720947266 C -105.62496948242188 112.56202697753906 -108.55317687988281 109.63382720947266 -109.62496948242188 105.63382720947266 C -108.55317687988281 101.63382720947266 -105.62496948242188 98.70561981201172 -101.62496948242188 97.63382720947266 C -97.62496948242188 98.70561981201172 -94.69676971435547 101.63382720947266 -93.62496948242188 105.63382720947266"/>
    <path stroke-width="0" fill="rgb(206, 175, 8)" opacity="0.36836508" stroke="rgb(0, 0, 0)" stroke-opacity="0.0" stroke-linecap="round" stroke-linejoin="round" d="M 115.58354949951172 83.22119140625 C 114.77041625976562 87.17147064208984 111.9766616821289 90.2583999633789 108.2060775756836 91.17668151855469 C 103.96500396728516 89.87564086914062 101.4016342163086 86.79232788085938 99.6811752319336 82.3900375366211 C 100.50273132324219 78.81879425048828 103.64795684814453 76.06352996826172 107.24235534667969 75.64710998535156 C 111.24744415283203 76.78363037109375 114.1959457397461 79.61430358886719 115.58354949951172 83.22119140625"/>
    <path stroke-width="0" fill="rgb(144, 43, 155)" opacity="0.15883517" stroke="rgb(0, 0, 0)" stroke-opacity="0.0" stroke-linecap="round" stroke-linejoin="round" d="M 327.25762939453125 220.68414306640625 C 326.3274841308594 225.1618194580078 323.34698486328125 228.1260528564453 319.5093994140625 228.83668518066406 C 314.8025817871094 227.829833984375 310.8905029296875 225.8883056640625 310.3755187988281 220.67129516601562 C 311.0709533691406 216.24217224121094 315.07391357421875 214.36659240722656 319.58477783203125 213.2217254638672 C 323.29449462890625 214.02780151367188 326.9318542480469 216.5652618408203 327.25762939453125 220.68414306640625"/>
    <path stroke-width="0" fill="rgb(29, 183, 210)" opacity="0.74016094" stroke="rgb(0, 0, 0)" stroke-opacity="0.0" stroke-linecap="round" stroke-linejoin="round" d="M 177.82447814941406 246.98316955566406 C 177.09774780273438 251.72149658203125 174.41978454589844 254.89645385742188 170.185302734375 255.70590209960938 C 164.93536376953125 255.3502197265625 162.38145446777344 252.6324005126953 162.9847869873047 248.76202392578125 C 163.8282470703125 243.92156982421875 166.38131713867188 240.83355712890625 170.4761962890625 240.18748474121094 C 174.7454376220703 240.01560974121094 177.73036193847656 242.68675231933594 177.82447814941406 246.98316955566406"/>
    <path stroke-width="0" fill="rgb(144, 82, 63)" opacity="0.6194976" stroke="rgb(0, 0, 0)" stroke-opacity="0.0" stroke-linecap="round" stroke-linejoin="round" d="M 277.4361877441406 116.31529998779297 C 277.2061462402344 120.41934967041016 273.951416015625 123.13772583007812 270.3502502441406 123.531982421875 C 266.25140380859375 123.45409393310547 263.1907653808594 120.82217407226562 262.36480712890625 116.44722747802734 C 263.24383544921875 112.87348937988281 266.86798095703125 110.28914642333984 270.2249755859375 108.7618408203125 C 274.16351318359375 110.40404510498047 277.4728088378906 112.69486236572266 277.4361877441406 116.31529998779297"/>
    <path stroke-width="0" fill="rgb(29, 118, 210)" opacity="0.45816904" stroke="rgb(0, 0, 0)" stroke-opacity="0.0" stroke-linecap="round" stroke-linejoin="round" d="M 494.501220703125 244.73487854003906 C 494.90911865234375 249.6121826171875 492.38336181640625 252.5967254638672 487.7047119140625 252.28997802734375 C 482.9781799316406 251.10963439941406 480.20947265625 248.12086486816406 480.32403564453125 245.084716796875 C 480.8865051269531 241.0113525390625 483.7342529296875 238.03109741210938 487.23193359375 237.2421875 C 491.6702575683594 237.0821533203125 494.4147033691406 239.4694366455078 494.501220703125 244.73487854003906"/>
    <path stroke-width="0" fill="rgb(25, 41, 49)" opacity="0.037663814" stroke="rgb(0, 0, 0)" stroke-opacity="0.0" stroke-linecap="round" stroke-linejoin="round" d="M -86.91079711914062 -53.64516830444336 C -87.98259735107422 -49.64516830444336 -90.91079711914062 -46.71696472167969 -94.91079711914062 -45.64516830444336 C -98.91079711914062 -46.71696472167969 -101.83900451660156 -49.64516830444336 -102.91079711914062 -53.64516830444336 C -101.83900451660156 -57.64516830444336 -98.91079711914062 -60.57337188720703 -94.91079711914062 -61.64516830444336 C -90.91079711914062 -60.57337188720703 -87.98259735107422 -57.64516830444336 -86.91079711914062 -53.64516830444336"/>
    <path stroke-width="0" fill="rgb(208, 44, 54)" opacity="0.4188563" stroke="rgb(0, 0, 0)" stroke-opacity="0.0" stroke-linecap="round" stroke-linejoin="round" d="M 362.7823181152344 276.62646484375 C 361.1634521484375 280.8361511230469 358.5168151855469 283.9663391113281 355.268798828125 284.3432312011719 C 351.4437561035156 282.51153564453125 347.57183837890625 280.14776611328125 347.0887145996094 277.5185241699219 C 348.782470703125 274.2669677734375 351.9440002441406 271.5643310546875 355.3822937011719 270.6073913574219 C 357.3100280761719 271.0079345703125 360.7092590332031 273.551025390625 362.7823181152344 276.62646484375"/>
    <path stroke-width="0" fill="rgb(181, 133, 186)" opacity="0.4422315" stroke="rgb(0, 0, 0)" stroke-opacity="0.0" stroke-linecap="round" stroke-linejoin="round" d="M 179.20010375976562 80.98062896728516 C 177.94677734375 85.81319427490234 175.366455078125 88.97575378417969 171.21514892578125 89.78783416748047 C 166.62130737304688 88.93692779541016 163.71969604492188 86.15509796142578 162.66802978515625 81.95170593261719 C 163.674560546875 77.11795806884766 166.49639892578125 74.13272094726562 169.7217254638672 74.89479064941406 C 174.33737182617188 75.93440246582031 178.08343505859375 77.97331237792969 179.20010375976562 80.98062896728516"/>
    <path stroke-width="0" fill="rgb(156, 203, 172)" opacity="0.33764634" stroke="rgb(0, 0, 0)" stroke-opacity="0.0" stroke-linecap="round" stroke-linejoin="round" d="M 212.4774627685547 181.80873107910156 C 211.56639099121094 185.88015747070312 208.82350158691406 188.85342407226562 204.77235412597656 189.5999755859375 C 201.70126342773438 189.16336059570312 198.95726013183594 186.43936157226562 198.18002319335938 182.1024932861328 C 198.03282165527344 177.99700927734375 200.87351989746094 175.14901733398438 204.85716247558594 174.66758728027344 C 209.7728271484375 175.59278869628906 212.7605438232422 178.21603393554688 212.4774627685547 181.80873107910156"/>
    <path stroke-width="0" fill="rgb(223, 162, 119)" opacity="0.07322404" stroke="rgb(0, 0, 0)" stroke-opacity="0.0" stroke-linecap="round" stroke-linejoin="round" d="M 435.1688537597656 209.08375549316406 C 433.6373291015625 212.8008270263672 430.08514404296875 215.456787109375 425.8406066894531 217.03570556640625 C 422.26409912109375 216.5815887451172 420.155029296875 212.8299102783203 419.1549072265625 209.14675903320312 C 420.3524475097656 205.91835021972656 423.4721374511719 203.0647430419922 427.4691467285156 201.65704345703125 C 431.11810302734375 201.56253051757812 434.0937194824219 204.37828063964844 435.1688537597656 209.08375549316406"/>
    <path stroke-width="0" fill="rgb(29, 99, 182)" opacity="0.032540552" stroke="rgb(0, 0, 0)" stroke-opacity="0.0" stroke-linecap="round" stroke-linejoin="round" d="M 205.67437744140625 153.5845184326172 C 204.26072692871094 158.31817626953125 201.2933807373047 161.2757568359375 196.69931030273438 162.52114868164062 C 192.1347198486328 161.2252960205078 189.47451782226562 157.90003967285156 188.8467559814453 154.2068634033203 C 190.24395751953125 150.28797912597656 193.360595703125 147.42677307128906 196.4222412109375 146.42535400390625 C 200.28707885742188 147.23684692382812 203.91197204589844 149.50279235839844 205.67437744140625 153.5845184326172"/>
    <path stroke-width="0" fill="rgb(139, 93, 239)" opacity="0.11608203" stroke="rgb(0, 0, 0)" stroke-opacity="0.0" stroke-linecap="round" stroke-linejoin="round" d="M 218.1285400390625 466.7246398925781 C 217.13522338867188 470.5812683105469 214.28335571289062 473.4577331542969 209.8379364013672 474.06500244140625 C 205.4391632080078 474.4165954589844 202.84793090820312 471.3342590332031 202.54896545410156 467.1770935058594 C 204.1920166015625 463.53778076171875 207.22621154785156 460.4968566894531 210.64598083496094 458.1080017089844 C 214.2823028564453 459.50787353515625 216.86875915527344 462.8650207519531 218.1285400390625 466.7246398925781"/>
    <path stroke-width="0" fill="rgb(221, 209, 223)" opacity="0.3996931" stroke="rgb(0, 0, 0)" stroke-opacity="0.0" stroke-linecap="round" stroke-linejoin="round" d="M 159.57749938964844 97.99223327636719 C 159.13563537597656 102.10311126708984 156.49423217773438 105.1247329711914 152.38864135742188 105.52068328857422 C 148.05819702148438 105.3299560546875 144.64002990722656 102.86583709716797 144.41563415527344 98.67744445800781 C 146.2223358154297 94.94234466552734 149.29855346679688 92.06092071533203 153.4214324951172 90.59718322753906 C 157.88558959960938 89.9079360961914 159.6461181640625 93.12945556640625 159.57749938964844 97.99223327636719"/>
    <path stroke-width="0" fill="rgb(158, 161, 5)" opacity="0.5743971" stroke="rgb(0, 0, 0)" stroke-opacity="0.0" stroke-linecap="round" stroke-linejoin="round" d="M -18.987255096435547 61.505313873291016 C -20.059051513671875 65.50531005859375 -22.987255096435547 68.43351745605469 -26.987255096435547 69.50531005859375 C -30.987255096435547 68.43351745605469 -33.91545867919922 65.50531005859375 -34.98725509643555 61.505313873291016 C -33.91545867919922 57.505313873291016 -30.987255096435547 54.577110290527344 -26.987255096435547 53.505313873291016 C -22.987255096435547 54.577110290527344 -20.059051513671875 57.505313873291016 -18.987255096435547 61.505313873291016"/>
    <path stroke-width="0" fill="rgb(116, 9, 8)" opacity="0.7600206" stroke="rgb(0, 0, 0)" stroke-opacity="0.0" stroke-linecap="round" stroke-linejoin="round" d="M 273.3820495605469 377.8782653808594 C 273.01025390625 381.1788024902344 270.03131103515625 384.2493896484375 266.3642883300781 384.5059814453125 C 262.3131103515625 383.1923828125 259.19647216796875 380.22235107421875 257.3564453125 377.0129699707031 C 259.223388671875 373.6029968261719 262.908935546875 371.322509765625 266.46209716796875 370.2630310058594 C 268.63934326171875 370.9731750488281 271.62286376953125 373.88641357421875 273.3820495605469 377.8782653808594"/>
    <path stroke-width="0" fill="rgb(107, 61, 228)" opacity="0.7291446" stroke="rgb(0, 0, 0)" stroke-opacity="0.0" stroke-linecap="round" stroke-linejoin="round" d="M 444.89495849609375 242.49087524414062 C 444.9599914550781 246.25143432617188 441.95465087890625 249.08802795410156 437.35345458984375 250.1074676513672 C 433.1842956542969 249.15252685546875 430.3810119628906 246.31942749023438 430.09130859375 241.35943603515625 C 429.90289306640625 236.86756896972656 432.6317443847656 233.99502563476562 436.9679870605469 233.30355834960938 C 441.0837707519531 235.2554931640625 443.7489318847656 238.60350036621094 444.89495849609375 242.49087524414062"/>
    <path stroke-width="0" fill="rgb(198, 30, 139)" opacity="0.08425688" stroke="rgb(0, 0, 0)" stroke-opacity="0.0" stroke-linecap="round" stroke-linejoin="round" d="M 489.030517578125 96.04174041748047 C 489.0112609863281 100.03367614746094 486.08758544921875 102.76194763183594 481.8735046386719 103.66944885253906 C 477.5312805175781 103.00615692138672 474.7220458984375 100.54419708251953 474.31170654296875 96.04703521728516 C 474.44525146484375 90.9312744140625 476.94329833984375 88.03565979003906 480.91485595703125 88.69212341308594 C 485.8367004394531 89.65131378173828 488.90802001953125 92.14421844482422 489.030517578125 96.04174041748047"/>
    <path stroke-width="0" fill="rgb(215, 100, 184)" opacity="0.74821043" stroke="rgb(0, 0, 0)" stroke-opacity="0.0" stroke-linecap="round" stroke-linejoin="round" d="M 331.32684326171875 2.5699551105499268 C 330.9792785644531 6.836027145385742 328.2682800292969 9.760481834411621 324.2342834472656 10.271027565002441 C 320.7601623535156 10.672341346740723 318.1693115234375 8.079565048217773 317.37255859375 3.2718825340270996 C 317.4067687988281 -0.9815505743026733 320.4540100097656 -3.739175319671631 325.1748962402344 -4.620315074920654 C 329.6142272949219 -3.714106798171997 332.1292724609375 -0.7840936183929443 331.32684326171875 2.5699551105499268"/>
  </g>
</svg>
