<?xml version="1.0" ?>
<svg xmlns="http://www.w3.org/2000/svg" version="1.1" width="512" height="512">
  <defs/>
  <g>
    <path stroke-width="0" fill="rgb(-48, -33, 64)" opacity="1.167208" stroke="rgb(139, 182, 153)" stroke-opacity="1.0" stroke-linecap="round" stroke-linejoin="round" d="M 361.0599060058594 213.77459716796875 C 384.27606201171875 220.52456665039062 277.34906005859375 219.2688751220703 259.29681396484375 218.33604431152344 C 128.9660186767578 223.9869384765625 153.63148498535156 218.1273651123047 152.8660430908203 208.9720916748047 C 210.36595153808594 207.29100036621094 265.98675537109375 210.0026092529297 272.94439697265625 205.34266662597656 C 205.71522521972656 209.31105041503906 252.84716796875 195.30987548828125 361.0599060058594 213.77459716796875"/>
    <path stroke-width="0" fill="rgb(52, 165, 42)" opacity="0.6775009" stroke="rgb(108, 164, 111)" stroke-opacity="1.0" stroke-linecap="round" stroke-linejoin="round" d="M 249.8624267578125 653.3016967773438 C -227.65513610839844 574.9390869140625 297.7242431640625 109.6411361694336 174.91000366210938 426.0705261230469 C -129.10183715820312 557.2874145507812 326.0174865722656 167.0471954345703 35.56663513183594 282.9756774902344 C 120.47962951660156 666.2809448242188 -106.83589935302734 700.3033447265625 -41.96708297729492 -48.117427825927734 C 461.62921142578125 -99.1298828125 459.2109069824219 -90.96826934814453 249.8624267578125 653.3016967773438"/>
    <path stroke-width="0" fill="rgb(-3, 6, 37)" opacity="1.0368342" stroke="rgb(245, 97, 201)" stroke-opacity="1.0" stroke-linecap="round" stroke-linejoin="round" d="M 786.7288208007812 377.82818603515625 C 379.9471740722656 604.7090454101562 206.10472106933594 617.0291748046875 277.2777099609375 317.7791442871094 C 181.9186553955078 349.05328369140625 429.99560546875 548.5621337890625 492.9327697753906 377.1907043457031 C 518.1397094726562 143.28292846679688 123.81220245361328 387.9806823730469 247.73080444335938 -20.267385482788086 C 449.6614074707031 -97.54769134521484 769.5654296875 -107.06083679199219 786.7288208007812 377.82818603515625"/>
    <path stroke-width="0" fill="rgb(-26, 0, 42)" opacity="1.007278" stroke="rgb(144, 236, 18)" stroke-opacity="1.0" stroke-linecap="round" stroke-linejoin="round" d="M 417.37298583984375 348.7568359375 C 397.8869934082031 342.8018798828125 404.7315673828125 574.000732421875 406.47967529296875 369.5452575683594 C 238.5546875 361.1701354980469 236.7200469970703 334.9968566894531 331.51519775390625 351.7077331542969 C 442.4664306640625 344.7345886230469 396.42938232421875 383.5544128417969 318.22735595703125 167.2095184326172 C 408.5383605957031 348.16748046875 403.0520935058594 346.65472412109375 417.37298583984375 348.7568359375"/>
    <path stroke-width="0" fill="rgb(18, 65, 88)" opacity="0.69853055" stroke="rgb(5, 212, 198)" stroke-opacity="1.0" stroke-linecap="round" stroke-linejoin="round" d="M 190.67141723632812 146.79103088378906 C 192.3938751220703 175.64785766601562 154.15866088867188 176.1211700439453 173.48045349121094 148.09217834472656 C 133.84852600097656 286.05670166015625 166.44154357910156 216.68035888671875 166.37158203125 149.60704040527344 C 185.4330596923828 178.12986755371094 142.47930908203125 114.28699493408203 150.0113067626953 172.10977172851562 C 177.73814392089844 260.0859069824219 109.28355407714844 109.76878356933594 190.67141723632812 146.79103088378906"/>
    <path stroke-width="0" fill="rgb(264, 231, 288)" opacity="1.0862998" stroke="rgb(249, 203, 117)" stroke-opacity="1.0" stroke-linecap="round" stroke-linejoin="round" d="M 138.86158752441406 271.0716552734375 C 213.74803161621094 298.9197998046875 166.28387451171875 305.7804260253906 130.7939910888672 333.3888854980469 C 144.70277404785156 286.5458984375 165.18280029296875 269.3126525878906 145.9750518798828 293.9730529785156 C 160.93109130859375 295.50628662109375 176.00808715820312 296.2189636230469 159.87416076660156 291.1828918457031 C 134.14247131347656 270.7569274902344 150.81661987304688 275.9436950683594 138.86158752441406 271.0716552734375"/>
    <path stroke-width="0" fill="rgb(269, 253, 246)" opacity="0.97764194" stroke="rgb(30, 163, 36)" stroke-opacity="1.0" stroke-linecap="round" stroke-linejoin="round" d="M 154.43284606933594 324.9701232910156 C 165.91395568847656 269.9381408691406 241.7003631591797 346.2840270996094 151.01199340820312 314.7983703613281 C 121.76710510253906 344.1561584472656 95.15340423583984 355.1731262207031 120.23992156982422 335.1396789550781 C 161.00216674804688 282.0005187988281 126.00726318359375 243.6895294189453 175.07260131835938 294.9585266113281 C 178.97447204589844 313.1822204589844 182.682373046875 295.4350891113281 154.43284606933594 324.9701232910156"/>
    <path stroke-width="0" fill="rgb(2, 0, 48)" opacity="1.0268965" stroke="rgb(133, 105, 67)" stroke-opacity="1.0" stroke-linecap="round" stroke-linejoin="round" d="M 133.51661682128906 444.89984130859375 C 138.43524169921875 477.134521484375 -22.01630210876465 453.4593811035156 11.976371765136719 337.1846008300781 C 15.683553695678711 480.2699279785156 154.62469482421875 443.503662109375 136.59474182128906 439.7899169921875 C 108.82582092285156 486.7568664550781 295.3929443359375 372.1020202636719 138.76898193359375 248.39671325683594 C 278.5597229003906 419.7738342285156 73.32494354248047 465.9464111328125 133.51661682128906 444.89984130859375"/>
    <path stroke-width="0" fill="rgb(16, -14, 52)" opacity="0.937702" stroke="rgb(116, 144, 4)" stroke-opacity="1.0" stroke-linecap="round" stroke-linejoin="round" d="M 12.400915145874023 393.67791748046875 C -28.293743133544922 351.3587951660156 -25.240135192871094 375.0357360839844 -26.971698760986328 337.4360046386719 C -8.737048149108887 377.52435302734375 -84.05805969238281 415.2081604003906 28.01863670349121 373.135986328125 C -20.465072631835938 431.82769775390625 -3.577928066253662 194.11378479003906 164.37234497070312 268.84423828125 C -58.3879508972168 215.90216064453125 33.685401916503906 506.05499267578125 12.400915145874023 393.67791748046875"/>
    <path stroke-width="0" fill="rgb(288, 257, 250)" opacity="1.0554686" stroke="rgb(156, 157, 240)" stroke-opacity="1.0" stroke-linecap="round" stroke-linejoin="round" d="M 353.59326171875 275.7295837402344 C 327.2936096191406 378.12652587890625 379.3614501953125 315.5252380371094 289.9237976074219 344.5382995605469 C 311.4251403808594 325.9900817871094 331.1385498046875 285.6158447265625 335.4554443359375 290.6490783691406 C 317.2234802246094 273.6202087402344 308.7673645019531 310.23931884765625 350.9788818359375 322.0229187011719 C 265.9847106933594 291.5020446777344 383.35992431640625 253.31521606445312 353.59326171875 275.7295837402344"/>
    <path stroke-width="0" fill="rgb(8, 1, 59)" opacity="1.0196911" stroke="rgb(91, 111, 177)" stroke-opacity="1.0" stroke-linecap="round" stroke-linejoin="round" d="M 119.18900299072266 310.7220153808594 C 120.60535430908203 298.125732421875 107.866943359375 361.4048156738281 122.0948715209961 320.73089599609375 C 108.76583099365234 336.6112976074219 158.82342529296875 166.00689697265625 183.0138397216797 149.19403076171875 C 126.38556671142578 329.5462341308594 123.60974884033203 328.7856750488281 115.71089935302734 317.96527099609375 C 133.0136260986328 284.43243408203125 120.95925903320312 297.32940673828125 119.18900299072266 310.7220153808594"/>
    <path stroke-width="0" fill="rgb(-8, 12, 3)" opacity="1.0080526" stroke="rgb(170, 171, 53)" stroke-opacity="1.0" stroke-linecap="round" stroke-linejoin="round" d="M 129.4044952392578 283.00152587890625 C 99.98554992675781 415.7212219238281 121.35958862304688 286.36541748046875 97.57017517089844 397.9692077636719 C 114.30987548828125 310.7607727050781 102.27986145019531 397.3792724609375 93.98021697998047 338.9239196777344 C 81.30814361572266 331.83428955078125 128.05645751953125 397.4280700683594 57.64012145996094 248.32798767089844 C 117.94609832763672 356.9593505859375 90.90363311767578 376.3841247558594 129.4044952392578 283.00152587890625"/>
    <path stroke-width="0" fill="rgb(-5, -17, 47)" opacity="1.0126919" stroke="rgb(80, 92, 145)" stroke-opacity="1.0" stroke-linecap="round" stroke-linejoin="round" d="M 305.911865234375 299.6224365234375 C 292.490234375 286.31048583984375 291.4190979003906 300.18829345703125 261.0983581542969 309.9280090332031 C 302.9324645996094 182.29891967773438 253.94749450683594 463.3056335449219 389.6473693847656 445.1463928222656 C 242.99180603027344 407.6639099121094 326.77099609375 188.85650634765625 485.09832763671875 288.8347473144531 C 349.82818603515625 146.43833923339844 276.1927185058594 385.1293640136719 305.911865234375 299.6224365234375"/>
    <path stroke-width="0" fill="rgb(100, 202, 105)" opacity="1.022286" stroke="rgb(252, 26, 53)" stroke-opacity="1.0" stroke-linecap="round" stroke-linejoin="round" d="M 387.8480224609375 211.64877319335938 C 293.3119812011719 216.9373779296875 296.2827453613281 222.70506286621094 376.3809509277344 209.81935119628906 C 238.5611572265625 203.89561462402344 182.2960662841797 198.31814575195312 164.96095275878906 204.764404296875 C 239.1553497314453 128.65841674804688 145.0409698486328 15.15047550201416 422.7322692871094 105.09027099609375 C 452.6683044433594 223.25216674804688 266.2825622558594 107.29670715332031 387.8480224609375 211.64877319335938"/>
    <path stroke-width="0" fill="rgb(115, 154, 177)" opacity="0.711622" stroke="rgb(166, 64, 118)" stroke-opacity="1.0" stroke-linecap="round" stroke-linejoin="round" d="M 323.1906433105469 233.68081665039062 C 287.45635986328125 283.720947265625 280.5530700683594 326.3343811035156 241.1146240234375 351.31939697265625 C 223.83924865722656 342.5699462890625 220.26522827148438 330.0477600097656 230.1940460205078 256.909912109375 C 224.1669158935547 227.19749450683594 224.39634704589844 209.09310913085938 271.507080078125 213.45904541015625 C 357.8046569824219 214.4635009765625 338.62841796875 209.1305694580078 323.1906433105469 233.68081665039062"/>
    <path stroke-width="0" fill="rgb(110, 200, 64)" opacity="0.7984976" stroke="rgb(40, 28, 167)" stroke-opacity="1.0" stroke-linecap="round" stroke-linejoin="round" d="M 309.8663635253906 264.81390380859375 C 312.7299499511719 266.6790771484375 315.4814453125 275.6085510253906 297.2593688964844 269.932373046875 C 317.2292175292969 260.8253173828125 329.1448974609375 252.2999725341797 321.27685546875 245.9644775390625 C 322.6044006347656 247.24632263183594 318.8939208984375 215.93661499023438 306.79949951171875 267.8622741699219 C 264.998779296875 327.3757019042969 334.23681640625 310.7519836425781 309.8663635253906 264.81390380859375"/>
    <path stroke-width="0" fill="rgb(99, 193, 116)" opacity="0.73013026" stroke="rgb(50, 94, 209)" stroke-opacity="1.0" stroke-linecap="round" stroke-linejoin="round" d="M 442.8784484863281 455.414794921875 C 436.6416015625 476.5683288574219 242.4101104736328 478.1998291015625 423.29315185546875 467.8658447265625 C 143.8848876953125 634.15478515625 348.8158874511719 311.3759765625 203.53543090820312 381.4523620605469 C 231.3354034423828 287.2501525878906 143.480224609375 247.548583984375 202.19261169433594 300.42498779296875 C 327.2590637207031 362.31011962890625 284.7312927246094 463.976318359375 442.8784484863281 455.414794921875"/>
    <path stroke-width="0" fill="rgb(10, 12, 54)" opacity="0.82729226" stroke="rgb(213, 24, 248)" stroke-opacity="1.0" stroke-linecap="round" stroke-linejoin="round" d="M 261.86932373046875 267.2757568359375 C 235.95553588867188 187.16038513183594 136.34181213378906 228.4191436767578 155.57992553710938 201.59326171875 C 339.6654052734375 213.93626403808594 352.36834716796875 197.17808532714844 261.04888916015625 219.4983673095703 C 295.0580139160156 229.19190979003906 367.2458801269531 268.8775634765625 348.4927673339844 208.96652221679688 C 258.4337158203125 200.6243896484375 258.3938293457031 249.36766052246094 261.86932373046875 267.2757568359375"/>
    <path stroke-width="0" fill="rgb(2, 42, 107)" opacity="0.897643" stroke="rgb(249, 154, 188)" stroke-opacity="1.0" stroke-linecap="round" stroke-linejoin="round" d="M 335.54248046875 220.90272521972656 C 257.58953857421875 292.0624694824219 209.26828002929688 279.7196350097656 238.82192993164062 269.2844543457031 C 213.36752319335938 281.52874755859375 207.3274688720703 283.6559753417969 191.68040466308594 261.27130126953125 C 145.32107543945312 286.3636474609375 152.0447235107422 206.3494110107422 181.19776916503906 215.42236328125 C 270.89239501953125 210.21331787109375 323.5942687988281 207.84251403808594 335.54248046875 220.90272521972656"/>
    <path stroke-width="0" fill="rgb(36, 82, -4)" opacity="0.035480782" stroke="rgb(72, 30, 75)" stroke-opacity="1.0" stroke-linecap="round" stroke-linejoin="round" d="M 215.8428497314453 30.62343406677246 C -30.834409713745117 152.1924285888672 109.07830810546875 180.90528869628906 3.8295176029205322 351.4845275878906 C -89.6920166015625 154.63768005371094 -36.20403289794922 116.5633773803711 -31.71027183532715 36.699134826660156 C -31.88047218322754 10.4307222366333 -24.965839385986328 4.1932501792907715 12.105835914611816 -3.935478448867798 C 88.129638671875 -3.7003631591796875 173.808349609375 -72.72647857666016 215.8428497314453 30.62343406677246"/>
    <path stroke-width="0" fill="rgb(112, 190, 116)" opacity="0.5804938" stroke="rgb(81, 105, 16)" stroke-opacity="1.0" stroke-linecap="round" stroke-linejoin="round" d="M 291.27801513671875 49.68388366699219 C 11.470175743103027 90.26756286621094 177.2092742919922 235.310546875 39.818824768066406 269.74072265625 C 13.246838569641113 81.30431365966797 174.63198852539062 30.51685333251953 200.32373046875 18.69038963317871 C 49.614009857177734 14.880308151245117 89.10580444335938 -63.154396057128906 132.2333526611328 -87.73371887207031 C 156.61679077148438 -111.45730590820312 201.82310485839844 -174.18499755859375 291.27801513671875 49.68388366699219"/>
    <path stroke-width="0" fill="rgb(112, 191, 124)" opacity="0.6968826" stroke="rgb(144, 67, 133)" stroke-opacity="1.0" stroke-linecap="round" stroke-linejoin="round" d="M 329.07891845703125 -20.691286087036133 C 290.6612854003906 217.91905212402344 211.2177276611328 177.46847534179688 224.34423828125 184.53164672851562 C 162.0950164794922 199.86671447753906 164.94773864746094 223.6289825439453 177.93336486816406 160.194091796875 C 271.6701965332031 169.71023559570312 165.0138702392578 75.48745727539062 100.6013412475586 216.26947021484375 C 193.7479248046875 16.758358001708984 346.1250915527344 22.59268569946289 329.07891845703125 -20.691286087036133"/>
    <path stroke-width="0" fill="rgb(0, -11, 35)" opacity="0.9914922" stroke="rgb(146, 236, 81)" stroke-opacity="1.0" stroke-linecap="round" stroke-linejoin="round" d="M 395.1291809082031 357.5823974609375 C 412.7616882324219 390.6323547363281 326.8039245605469 358.42108154296875 238.11553955078125 413.0171203613281 C 337.57940673828125 352.0765075683594 270.2525634765625 445.7198486328125 212.67660522460938 310.0897216796875 C 123.96749877929688 204.25697326660156 101.80448150634766 266.3218078613281 324.9573669433594 215.1079559326172 C 293.5467224121094 393.7098083496094 249.56503295898438 362.6649169921875 395.1291809082031 357.5823974609375"/>
    <path stroke-width="0" fill="rgb(122, 279, 220)" opacity="1.1492386" stroke="rgb(33, 182, 73)" stroke-opacity="1.0" stroke-linecap="round" stroke-linejoin="round" d="M 305.248046875 279.0705261230469 C 265.4708557128906 364.9931945800781 305.5291748046875 304.8687744140625 276.5152282714844 339.50885009765625 C 247.8892059326172 288.4560852050781 220.5756072998047 260.61181640625 174.90122985839844 232.33578491210938 C 156.9639892578125 212.36756896972656 130.73519897460938 218.40496826171875 273.1455993652344 219.3426055908203 C 366.01019287109375 224.8098907470703 329.7721252441406 197.29608154296875 305.248046875 279.0705261230469"/>
    <path stroke-width="0" fill="rgb(105, 197, 110)" opacity="0.96919614" stroke="rgb(149, 5, 211)" stroke-opacity="1.0" stroke-linecap="round" stroke-linejoin="round" d="M 521.2305297851562 346.9703369140625 C 418.6082458496094 131.93405151367188 386.92169189453125 206.9362335205078 376.4567565917969 227.99798583984375 C 299.3160400390625 99.62457275390625 267.1515197753906 53.84646987915039 111.94821166992188 148.3371124267578 C 175.59478759765625 3.350830554962158 219.73971557617188 59.71454620361328 302.29742431640625 -24.54909896850586 C 494.6975402832031 -49.62730026245117 597.9798583984375 -60.44581604003906 521.2305297851562 346.9703369140625"/>
    <path stroke-width="0" fill="rgb(102, 204, 103)" opacity="1.0081629" stroke="rgb(172, 68, 187)" stroke-opacity="1.0" stroke-linecap="round" stroke-linejoin="round" d="M 470.6701354980469 271.416748046875 C 510.53070068359375 300.2702331542969 447.25848388671875 219.80621337890625 360.5621337890625 254.73617553710938 C 342.36279296875 222.80789184570312 317.3195495605469 197.59910583496094 360.47039794921875 164.56300354003906 C 252.6497344970703 134.28868103027344 268.1485290527344 169.63011169433594 358.00372314453125 173.20042419433594 C 478.0299987792969 86.93833923339844 472.54840087890625 154.6395263671875 470.6701354980469 271.416748046875"/>
    <path stroke-width="0" fill="rgb(7, -6, 30)" opacity="0.98151857" stroke="rgb(63, 146, 150)" stroke-opacity="1.0" stroke-linecap="round" stroke-linejoin="round" d="M 309.0804138183594 270.5183410644531 C 342.9571533203125 165.8651580810547 360.07635498046875 172.22808837890625 322.4080810546875 256.9652099609375 C 320.2167663574219 260.43115234375 324.24420166015625 254.5443115234375 321.82098388671875 258.81060791015625 C 326.6437072753906 255.84263610839844 324.0350036621094 260.10986328125 320.63543701171875 259.85626220703125 C 321.83087158203125 257.04296875 317.3611145019531 274.8597412109375 309.0804138183594 270.5183410644531"/>
    <path stroke-width="0" fill="rgb(128, 185, 96)" opacity="0.48816654" stroke="rgb(56, 242, 114)" stroke-opacity="1.0" stroke-linecap="round" stroke-linejoin="round" d="M 20.147653579711914 166.7132568359375 C -9.392406463623047 339.60528564453125 18.283573150634766 77.20313262939453 -24.551496505737305 66.759765625 C -33.61650848388672 65.88433074951172 -35.86575698852539 55.43598556518555 -32.824039459228516 39.33262252807617 C -1.0580477714538574 -12.600809097290039 17.191038131713867 -46.058719635009766 268.7165222167969 22.914873123168945 C 240.0283660888672 81.84068298339844 144.10948181152344 -88.01237487792969 20.147653579711914 166.7132568359375"/>
    <path stroke-width="0" fill="rgb(4, -8, 63)" opacity="0.9877111" stroke="rgb(178, 75, 207)" stroke-opacity="1.0" stroke-linecap="round" stroke-linejoin="round" d="M 483.1583251953125 451.5494384765625 C 534.0797119140625 277.73114013671875 433.52508544921875 294.83734130859375 464.7168273925781 262.08935546875 C 522.1281127929688 307.9671630859375 497.1351318359375 334.74542236328125 509.4513854980469 312.4112854003906 C 512.3497314453125 402.7235107421875 500.5152587890625 410.4099426269531 497.2957458496094 367.9703674316406 C 493.7391662597656 461.8529968261719 299.5281982421875 455.59246826171875 483.1583251953125 451.5494384765625"/>
    <path stroke-width="0" fill="rgb(110, 113, 27)" opacity="0.69495785" stroke="rgb(224, 148, 224)" stroke-opacity="1.0" stroke-linecap="round" stroke-linejoin="round" d="M 58.874027252197266 481.25933837890625 C 22.924327850341797 418.2424011230469 37.2435302734375 449.3419494628906 54.660823822021484 542.5557861328125 C -18.80990982055664 506.6947937011719 -9.403016090393066 480.0587158203125 -8.300952911376953 438.8266296386719 C -33.012367248535156 414.1150817871094 -26.1403751373291 417.9101257324219 4.354428291320801 426.06903076171875 C 42.78348159790039 439.5386047363281 31.42635726928711 449.52984619140625 58.874027252197266 481.25933837890625"/>
    <path stroke-width="0" fill="rgb(17, 93, 43)" opacity="0.49709344" stroke="rgb(184, 127, 243)" stroke-opacity="1.0" stroke-linecap="round" stroke-linejoin="round" d="M 117.67106628417969 452.8102722167969 C 67.12540435791016 453.1172180175781 65.19888305664062 480.5968933105469 56.325958251953125 487.12872314453125 C 11.462019920349121 490.2021789550781 70.99812316894531 435.59765625 -14.085355758666992 433.4908447265625 C -13.19970989227295 397.87689208984375 -15.928869247436523 381.5854187011719 6.430760383605957 376.8321838378906 C 17.82549476623535 432.11334228515625 61.11089324951172 463.59979248046875 117.67106628417969 452.8102722167969"/>
    <path stroke-width="0" fill="rgb(180, 171, 125)" opacity="0.9086488" stroke="rgb(108, 154, 4)" stroke-opacity="1.0" stroke-linecap="round" stroke-linejoin="round" d="M 100.18732452392578 363.6285400390625 C 80.94410705566406 395.7585144042969 60.05415344238281 440.501953125 66.43389892578125 427.2114562988281 C 68.84984588623047 433.1621398925781 41.97862243652344 404.777587890625 27.214038848876953 395.603515625 C -4.9402174949646 313.79669189453125 31.37959098815918 350.94232177734375 98.39070129394531 338.7084045410156 C 98.12910461425781 361.8160095214844 54.26821517944336 416.96551513671875 100.18732452392578 363.6285400390625"/>
    <path stroke-width="0" fill="rgb(53, 142, 88)" opacity="0.83322304" stroke="rgb(168, 73, 157)" stroke-opacity="1.0" stroke-linecap="round" stroke-linejoin="round" d="M 160.7364501953125 439.29461669921875 C 301.1670837402344 507.66998291015625 190.65110778808594 552.9887084960938 29.13325309753418 548.7650756835938 C 11.251142501831055 543.2071533203125 3.708277463912964 537.02392578125 2.23622989654541 528.0696411132812 C 26.9124755859375 459.9902648925781 29.350982666015625 449.3757019042969 36.08898162841797 457.82318115234375 C 121.19894409179688 465.32342529296875 146.28701782226562 442.72711181640625 160.7364501953125 439.29461669921875"/>
    <path stroke-width="0" fill="rgb(-28, 42, 67)" opacity="0.9596694" stroke="rgb(34, 76, 145)" stroke-opacity="1.0" stroke-linecap="round" stroke-linejoin="round" d="M 179.9808349609375 139.82057189941406 C 162.35610961914062 151.50428771972656 155.66468811035156 149.09739685058594 190.2272491455078 143.9271240234375 C 191.1422119140625 142.84754943847656 176.21153259277344 144.20303344726562 151.80665588378906 146.32847595214844 C 184.3917236328125 147.73834228515625 193.96041870117188 149.69732666015625 172.4475860595703 163.50465393066406 C 175.39242553710938 142.86172485351562 159.42185974121094 150.8582000732422 179.9808349609375 139.82057189941406"/>
    <path stroke-width="0" fill="rgb(86, 143, 86)" opacity="0.9477309" stroke="rgb(146, 166, 166)" stroke-opacity="1.0" stroke-linecap="round" stroke-linejoin="round" d="M 54.87973403930664 526.0570068359375 C 47.256099700927734 539.38818359375 38.75363540649414 545.7471313476562 27.42095375061035 546.61962890625 C -6.0 521.3204956054688 -13.320508003234863 514.0 -38.809234619140625 480.62554931640625 C -40.55896759033203 466.4869384765625 -38.05241012573242 451.4541931152344 6.771541595458984 390.97332763671875 C 60.42008590698242 480.7736511230469 131.44284057617188 479.7287292480469 54.87973403930664 526.0570068359375"/>
    <path stroke-width="0" fill="rgb(94, 202, 107)" opacity="1.0267732" stroke="rgb(182, 254, 38)" stroke-opacity="1.0" stroke-linecap="round" stroke-linejoin="round" d="M 526.818115234375 375.9775085449219 C 581.9036865234375 359.0624694824219 479.9391174316406 264.8544006347656 429.55291748046875 241.29647827148438 C 463.2725524902344 151.1085205078125 316.0094299316406 37.63553237915039 248.5153045654297 83.86779022216797 C 63.745323181152344 -22.864078521728516 314.44842529296875 -53.579952239990234 376.8126525878906 -11.80637264251709 C 426.9720153808594 2.8444645404815674 556.170166015625 7.197431564331055 526.818115234375 375.9775085449219"/>
    <path stroke-width="0" fill="rgb(114, 125, 93)" opacity="0.49137712" stroke="rgb(41, 156, 31)" stroke-opacity="1.0" stroke-linecap="round" stroke-linejoin="round" d="M 96.7920150756836 487.09375 C 152.64190673828125 502.2706604003906 65.03610229492188 516.6909790039062 69.49335479736328 519.5712890625 C 49.94831466674805 485.8343505859375 54.52509307861328 426.7113952636719 72.89778137207031 484.60284423828125 C 0.870526134967804 404.02081298828125 -1.568688988685608 404.42529296875 28.216262817382812 445.3731994628906 C 79.16161346435547 453.2475280761719 81.52143096923828 466.186767578125 96.7920150756836 487.09375"/>
    <path stroke-width="0" fill="rgb(88, 153, 81)" opacity="0.715245" stroke="rgb(205, 145, 103)" stroke-opacity="1.0" stroke-linecap="round" stroke-linejoin="round" d="M 67.9039535522461 450.8204040527344 C 188.08470153808594 490.3218688964844 214.48277282714844 532.2611083984375 56.82404708862305 510.8373107910156 C -33.657630920410156 449.039306640625 -42.32413864135742 397.05023193359375 68.23094177246094 504.9458312988281 C -29.76854705810547 438.4856262207031 -20.604856491088867 443.3662109375 17.627941131591797 441.9449768066406 C 11.190107345581055 383.1644287109375 18.326404571533203 425.5144958496094 67.9039535522461 450.8204040527344"/>
    <path stroke-width="0" fill="rgb(102, 131, 93)" opacity="0.524558" stroke="rgb(177, 115, 184)" stroke-opacity="1.0" stroke-linecap="round" stroke-linejoin="round" d="M 95.74980163574219 496.2364807128906 C 67.37914276123047 531.3604736328125 59.156253814697266 538.195068359375 70.0589599609375 527.9757080078125 C 24.992530822753906 481.8049011230469 -43.350425720214844 496.1429138183594 -57.474178314208984 502.5368957519531 C -1.0405356884002686 455.7156066894531 -11.923786163330078 460.8006896972656 -21.448375701904297 446.4020080566406 C 26.894392013549805 434.75494384765625 30.039634704589844 470.1940002441406 95.74980163574219 496.2364807128906"/>
    <path stroke-width="0" fill="rgb(215, -9, 60)" opacity="0.7004806" stroke="rgb(248, 218, 2)" stroke-opacity="1.0" stroke-linecap="round" stroke-linejoin="round" d="M 365.3614807128906 175.7617950439453 C 344.18988037109375 179.4588623046875 347.958984375 175.0657958984375 321.2530517578125 164.00070190429688 C 330.3929443359375 173.23873901367188 303.874267578125 153.9650421142578 333.328857421875 170.3350067138672 C 371.78802490234375 190.4401092529297 345.45892333984375 154.73338317871094 335.4977722167969 200.9084014892578 C 344.1632080078125 217.67791748046875 346.30413818359375 176.98165893554688 365.3614807128906 175.7617950439453"/>
    <path stroke-width="0" fill="rgb(1, -3, 46)" opacity="0.98785424" stroke="rgb(186, 43, 132)" stroke-opacity="1.0" stroke-linecap="round" stroke-linejoin="round" d="M 174.20521545410156 307.7337951660156 C 188.0969696044922 268.3916015625 110.23397827148438 255.6361846923828 147.0347900390625 249.52285766601562 C 153.089111328125 266.6571960449219 128.5318145751953 248.3349609375 136.9712371826172 260.0989990234375 C 139.7598876953125 254.22866821289062 194.77928161621094 251.45758056640625 80.35029602050781 263.6659851074219 C 119.60980987548828 260.01483154296875 159.42282104492188 274.986328125 174.20521545410156 307.7337951660156"/>
    <path stroke-width="0" fill="rgb(57, 153, 101)" opacity="0.692044" stroke="rgb(50, 4, 202)" stroke-opacity="1.0" stroke-linecap="round" stroke-linejoin="round" d="M 256.7547302246094 448.6720886230469 C 243.07952880859375 580.0681762695312 139.53504943847656 553.8475952148438 159.0025177001953 562.6400756835938 C 219.2435302734375 474.1454772949219 151.18820190429688 408.12945556640625 139.46995544433594 477.33404541015625 C 62.36335372924805 445.8260192871094 99.77662658691406 482.77490234375 70.44828796386719 454.264892578125 C 163.4039306640625 471.17144775390625 148.96385192871094 399.1296691894531 256.7547302246094 448.6720886230469"/>
    <path stroke-width="0" fill="rgb(259, 254, 246)" opacity="0.93578196" stroke="rgb(88, 236, 179)" stroke-opacity="1.0" stroke-linecap="round" stroke-linejoin="round" d="M 92.67371368408203 361.35797119140625 C 115.1294937133789 390.89007568359375 7.248872756958008 401.8468017578125 24.62610626220703 392.2840270996094 C 88.28717803955078 403.6884460449219 107.33665466308594 335.1976623535156 59.603126525878906 437.70684814453125 C 18.190540313720703 391.01776123046875 1.085092306137085 398.7889709472656 74.12866973876953 368.4668884277344 C 3.732483386993408 410.94830322265625 29.656747817993164 399.3046875 92.67371368408203 361.35797119140625"/>
    <path stroke-width="0" fill="rgb(129, 182, 107)" opacity="0.2485086" stroke="rgb(41, 158, 147)" stroke-opacity="1.0" stroke-linecap="round" stroke-linejoin="round" d="M 384.9586486816406 9.939055442810059 C 189.0178985595703 -16.5404052734375 276.11871337890625 91.66768646240234 526.8980712890625 101.15333557128906 C 509.8195495605469 -85.45594787597656 50.85237121582031 -56.88588333129883 -4.124085903167725 285.3254089355469 C -42.680206298828125 -37.024574279785156 313.3620300292969 -42.22747039794922 301.8265380859375 -23.402891159057617 C 396.6122131347656 0.5479068160057068 411.48687744140625 15.86937427520752 384.9586486816406 9.939055442810059"/>
    <path stroke-width="0" fill="rgb(99, 200, 117)" opacity="0.49455184" stroke="rgb(238, 156, 136)" stroke-opacity="1.0" stroke-linecap="round" stroke-linejoin="round" d="M 451.0862731933594 252.78314208984375 C 326.1734619140625 218.00108337402344 427.8037109375 3.5026798248291016 423.1197814941406 121.15940856933594 C 115.50201416015625 159.42361450195312 188.44235229492188 84.75849151611328 79.65223693847656 251.422607421875 C -16.160554885864258 72.73469543457031 454.6778869628906 4.040363788604736 313.7533874511719 42.87276840209961 C 300.8024597167969 7.114678859710693 521.938720703125 29.035640716552734 451.0862731933594 252.78314208984375"/>
    <path stroke-width="0" fill="rgb(23, 161, 102)" opacity="1.0039072" stroke="rgb(186, 79, 101)" stroke-opacity="1.0" stroke-linecap="round" stroke-linejoin="round" d="M 545.268798828125 323.2109375 C 547.3452758789062 544.0161743164062 540.02099609375 551.331298828125 442.15545654296875 579.9833984375 C 286.1294860839844 689.4219360351562 212.8963623046875 744.8779907226562 213.8345947265625 468.349609375 C 353.9161071777344 407.9342041015625 427.4000244140625 505.040771484375 495.365478515625 403.07586669921875 C 552.1302490234375 284.7597351074219 401.7117004394531 230.5195770263672 545.268798828125 323.2109375"/>
    <path stroke-width="0" fill="rgb(38, 129, -28)" opacity="0.20432858" stroke="rgb(47, 240, 188)" stroke-opacity="1.0" stroke-linecap="round" stroke-linejoin="round" d="M 410.230712890625 291.7366027832031 C 402.4632873535156 289.18621826171875 413.1822814941406 275.6964111328125 406.76776123046875 353.4566650390625 C 404.2783508300781 250.56683349609375 401.6000061035156 278.7138671875 404.0277099609375 288.1119384765625 C 404.1675720214844 283.7714538574219 406.2229919433594 248.12576293945312 400.99212646484375 253.37945556640625 C 404.3653259277344 242.29202270507812 408.7665710449219 297.8877258300781 410.230712890625 291.7366027832031"/>
    <path stroke-width="0" fill="rgb(83, 148, 86)" opacity="0.32281557" stroke="rgb(57, 64, 14)" stroke-opacity="1.0" stroke-linecap="round" stroke-linejoin="round" d="M 144.34793090820312 461.502685546875 C 243.5919189453125 504.03179931640625 147.40443420410156 501.6724853515625 50.716407775878906 544.1088256835938 C 42.44731140136719 537.2024536132812 37.819068908691406 530.1972045898438 90.1518783569336 519.2083740234375 C -89.55191040039062 410.939697265625 13.92371940612793 422.7454528808594 85.57864379882812 484.6817321777344 C 6.4143595695495605 413.1716613769531 25.556241989135742 451.3188781738281 144.34793090820312 461.502685546875"/>
    <path stroke-width="0" fill="rgb(318, 21, -26)" opacity="1.0492707" stroke="rgb(79, 177, 96)" stroke-opacity="1.0" stroke-linecap="round" stroke-linejoin="round" d="M 164.38941955566406 153.9127197265625 C 179.28378295898438 150.14918518066406 166.8323211669922 150.40187072753906 166.55242919921875 157.83364868164062 C 166.7868194580078 150.27845764160156 178.4950408935547 149.8119354248047 167.44024658203125 151.98719787597656 C 180.51939392089844 149.73312377929688 208.40452575683594 157.49685668945312 193.74234008789062 140.17738342285156 C 127.10865020751953 134.74827575683594 138.9153289794922 180.2537841796875 164.38941955566406 153.9127197265625"/>
    <path stroke-width="0" fill="rgb(99, 152, 57)" opacity="0.823775" stroke="rgb(6, 17, 173)" stroke-opacity="1.0" stroke-linecap="round" stroke-linejoin="round" d="M 17.366947174072266 435.4162292480469 C 21.177059173583984 451.3713684082031 32.15926742553711 445.52587890625 -62.1677360534668 454.6897888183594 C -25.437917709350586 456.98138427734375 -32.49625015258789 449.58746337890625 -45.60762023925781 424.22174072265625 C -70.37713623046875 352.61627197265625 -52.90488815307617 356.7984313964844 3.067913293838501 361.0343933105469 C 18.0080623626709 417.8326416015625 35.112606048583984 429.5584716796875 17.366947174072266 435.4162292480469"/>
    <path stroke-width="0" fill="rgb(105, 203, 115)" opacity="0.6022009" stroke="rgb(136, 228, 252)" stroke-opacity="1.0" stroke-linecap="round" stroke-linejoin="round" d="M 457.5857849121094 225.7193603515625 C 411.4599914550781 318.7366027832031 449.0422668457031 64.77581787109375 261.49444580078125 85.29761505126953 C 250.31846618652344 93.38923645019531 247.1282958984375 31.832616806030273 64.2517318725586 155.6831512451172 C 145.70616149902344 18.407564163208008 311.34857177734375 19.65019989013672 364.757568359375 -7.765061855316162 C 277.2664489746094 32.981563568115234 433.1952819824219 22.717832565307617 457.5857849121094 225.7193603515625"/>
    <path stroke-width="0" fill="rgb(42, 159, 91)" opacity="0.6004723" stroke="rgb(169, 67, 5)" stroke-opacity="1.0" stroke-linecap="round" stroke-linejoin="round" d="M 382.22772216796875 454.3326416015625 C 260.4884948730469 561.566162109375 128.19528198242188 395.320556640625 108.53119659423828 617.3674926757812 C 87.05445098876953 561.8491821289062 110.97525787353516 535.2816162109375 91.65357971191406 531.58837890625 C 259.7574768066406 600.5755615234375 203.2046661376953 410.62689208984375 130.45147705078125 459.734130859375 C 190.4583740234375 423.6338195800781 222.02227783203125 386.81170654296875 382.22772216796875 454.3326416015625"/>
    <path stroke-width="0" fill="rgb(100, 205, 112)" opacity="1.0483344" stroke="rgb(81, 97, 150)" stroke-opacity="1.0" stroke-linecap="round" stroke-linejoin="round" d="M 595.4119873046875 209.21102905273438 C 350.2353515625 78.54312133789062 255.12362670898438 -69.9123306274414 262.806640625 94.96129608154297 C 330.38397216796875 111.66813659667969 303.74169921875 115.26904296875 258.8263244628906 101.17377471923828 C 298.7820129394531 -5.605160713195801 214.56927490234375 -62.04295349121094 431.9591369628906 -46.89352035522461 C 435.4690856933594 -22.550521850585938 522.7470092773438 -27.69462776184082 595.4119873046875 209.21102905273438"/>
    <path stroke-width="0" fill="rgb(98, 131, 93)" opacity="0.58167416" stroke="rgb(160, 222, 69)" stroke-opacity="1.0" stroke-linecap="round" stroke-linejoin="round" d="M 9.378366470336914 472.8086242675781 C 28.197181701660156 476.5638427734375 28.708724975585938 483.9210510253906 -22.31084442138672 477.6391906738281 C 10.457038879394531 452.3590087890625 -18.080373764038086 413.81536865234375 -30.1299991607666 414.26678466796875 C -29.795747756958008 421.0752258300781 -21.742794036865234 415.0025329589844 -10.350945472717285 409.18731689453125 C 36.23611068725586 422.57220458984375 28.356374740600586 460.9811706542969 9.378366470336914 472.8086242675781"/>
    <path stroke-width="0" fill="rgb(99, 199, 102)" opacity="0.9999702" stroke="rgb(47, 242, 175)" stroke-opacity="1.0" stroke-linecap="round" stroke-linejoin="round" d="M 327.7104187011719 247.83680725097656 C 329.9056396484375 227.03585815429688 319.0276184082031 298.1905517578125 351.19915771484375 250.06910705566406 C 336.4441833496094 222.40126037597656 360.0019836425781 244.3492431640625 344.2474365234375 212.94691467285156 C 380.22430419921875 223.0718536376953 386.5075988769531 242.6881561279297 349.4565734863281 231.0109100341797 C 336.48895263671875 254.29833984375 341.8284606933594 195.27723693847656 327.7104187011719 247.83680725097656"/>
    <path stroke-width="0" fill="rgb(28, 18, 2)" opacity="0.5835143" stroke="rgb(241, 186, 64)" stroke-opacity="1.0" stroke-linecap="round" stroke-linejoin="round" d="M 538.171630859375 348.0762634277344 C 402.876708984375 386.8236389160156 436.4013977050781 299.8935241699219 441.9864196777344 366.7340087890625 C 386.9425048828125 335.04296875 423.1678466796875 344.65350341796875 410.90911865234375 339.4846496582031 C 530.659912109375 191.8007049560547 384.9172058105469 337.0860595703125 407.6239929199219 399.59576416015625 C 400.11993408203125 316.3538818359375 467.3751525878906 384.63372802734375 538.171630859375 348.0762634277344"/>
    <path stroke-width="0" fill="rgb(104, 195, 120)" opacity="0.61903405" stroke="rgb(132, 6, 52)" stroke-opacity="1.0" stroke-linecap="round" stroke-linejoin="round" d="M 342.212158203125 113.132080078125 C 362.9294738769531 153.0872344970703 428.29296875 172.53135681152344 297.692138671875 161.26913452148438 C 145.298095703125 147.80856323242188 221.28289794921875 219.50888061523438 196.71966552734375 117.13957214355469 C 278.87139892578125 125.09319305419922 317.820068359375 50.17426681518555 130.05859375 130.38162231445312 C 258.0716857910156 74.2841796875 270.28033447265625 101.05995178222656 342.212158203125 113.132080078125"/>
    <path stroke-width="0" fill="rgb(-2, 26, -11)" opacity="0.41291273" stroke="rgb(95, 118, 70)" stroke-opacity="1.0" stroke-linecap="round" stroke-linejoin="round" d="M 408.48345947265625 256.1748352050781 C 408.0969543457031 257.49560546875 401.3482971191406 224.67604064941406 407.0566711425781 300.2616882324219 C 407.019775390625 222.23036193847656 397.8102722167969 254.93002319335938 400.88006591796875 247.30308532714844 C 407.7101135253906 256.1441955566406 414.21099853515625 254.360595703125 403.25726318359375 259.1041564941406 C 401.02276611328125 257.24444580078125 408.32550048828125 246.35015869140625 408.48345947265625 256.1748352050781"/>
    <path stroke-width="0" fill="rgb(252, 255, 240)" opacity="0.6904241" stroke="rgb(61, 25, 4)" stroke-opacity="1.0" stroke-linecap="round" stroke-linejoin="round" d="M 433.4823913574219 338.5967712402344 C 424.07122802734375 337.8563232421875 445.5680847167969 345.9980773925781 443.8518981933594 381.3358459472656 C 432.21240234375 390.37005615234375 407.6338806152344 371.472900390625 437.5784912109375 398.73681640625 C 378.0472106933594 332.5098876953125 455.18359375 366.6203918457031 459.0478210449219 347.7175598144531 C 450.8184814453125 374.2837829589844 431.6972961425781 341.8924865722656 433.4823913574219 338.5967712402344"/>
    <path stroke-width="0" fill="rgb(292, 226, 271)" opacity="0.008201164" stroke="rgb(170, 200, 71)" stroke-opacity="1.0" stroke-linecap="round" stroke-linejoin="round" d="M 353.6650695800781 290.9541015625 C 369.18011474609375 270.9850158691406 347.9800720214844 272.6550598144531 333.5066223144531 324.8971862792969 C 325.3107604980469 316.3175048828125 313.1555480957031 313.2379150390625 355.3396301269531 278.64593505859375 C 356.5586853027344 280.06158447265625 346.2174377441406 247.604736328125 334.6951904296875 268.1725158691406 C 343.5887756347656 249.690673828125 358.5565490722656 272.30615234375 353.6650695800781 290.9541015625"/>
    <path stroke-width="0" fill="rgb(285, 252, 253)" opacity="0.94635266" stroke="rgb(86, 245, 59)" stroke-opacity="1.0" stroke-linecap="round" stroke-linejoin="round" d="M 13.689058303833008 361.7427978515625 C 26.423139572143555 241.24232482910156 74.69441223144531 329.6293640136719 27.80508804321289 338.9418640136719 C 0.8977152705192566 330.9390563964844 40.44366455078125 335.91021728515625 27.179452896118164 333.85821533203125 C 31.71981430053711 331.3761901855469 41.57984924316406 314.1702880859375 70.22256469726562 309.5044860839844 C 45.88764953613281 316.2737121582031 32.10557174682617 313.45355224609375 13.689058303833008 361.7427978515625"/>
    <path stroke-width="0" fill="rgb(-20, 25, 15)" opacity="0.43274924" stroke="rgb(126, 163, 93)" stroke-opacity="1.0" stroke-linecap="round" stroke-linejoin="round" d="M 364.46917724609375 343.1065368652344 C 352.20660400390625 344.4747619628906 375.87152099609375 380.014892578125 320.5789489746094 369.8938903808594 C 318.3199157714844 367.9438171386719 304.7171630859375 369.6241760253906 354.8244323730469 370.42449951171875 C 369.4088439941406 349.744873046875 367.486572265625 331.6951599121094 315.1879577636719 338.4969787597656 C 322.3221740722656 327.2940673828125 327.5315246582031 340.3230285644531 364.46917724609375 343.1065368652344"/>
    <path stroke-width="0" fill="rgb(132, 167, 80)" opacity="0.50068784" stroke="rgb(231, 197, 84)" stroke-opacity="1.0" stroke-linecap="round" stroke-linejoin="round" d="M 102.24728393554688 -11.528875350952148 C 64.28358459472656 21.883901596069336 -2.621239185333252 80.86137390136719 0.9435664415359497 116.53045654296875 C -59.13998794555664 72.97115325927734 -38.83742904663086 43.3669548034668 -21.26154136657715 2.9523823261260986 C -17.32050895690918 -10.0 -10.0 -17.32050895690918 7.241615295410156 -24.014564514160156 C 31.09577178955078 -33.32636642456055 38.93543243408203 -15.198221206665039 102.24728393554688 -11.528875350952148"/>
    <path stroke-width="0" fill="rgb(130, 174, 148)" opacity="0.33467945" stroke="rgb(103, 59, 33)" stroke-opacity="1.0" stroke-linecap="round" stroke-linejoin="round" d="M 199.0548858642578 176.41241455078125 C 218.71865844726562 166.3028564453125 208.24742126464844 170.3647003173828 207.33807373046875 186.76882934570312 C 245.97555541992188 130.2876434326172 247.8815155029297 158.4179229736328 213.2443084716797 188.43521118164062 C 220.34718322753906 182.29786682128906 227.0952911376953 172.33111572265625 223.6165313720703 174.5885009765625 C 220.94772338867188 136.80838012695312 201.39085388183594 159.68528747558594 199.0548858642578 176.41241455078125"/>
    <path stroke-width="0" fill="rgb(265, 258, 248)" opacity="0.847636" stroke="rgb(20, 22, 171)" stroke-opacity="1.0" stroke-linecap="round" stroke-linejoin="round" d="M 78.12403106689453 335.8569030761719 C 62.94686508178711 325.6835632324219 60.76877212524414 324.61767578125 77.80235290527344 333.83233642578125 C 105.11939239501953 342.7763366699219 54.56904220581055 360.888916015625 25.081470489501953 327.1379699707031 C -18.718387603759766 444.2487487792969 93.15040588378906 358.11865234375 100.84199523925781 349.5595703125 C 94.80052185058594 313.93695068359375 91.83893585205078 354.3341979980469 78.12403106689453 335.8569030761719"/>
    <path stroke-width="0" fill="rgb(-23, 7, -28)" opacity="0.8951826" stroke="rgb(14, 177, 198)" stroke-opacity="1.0" stroke-linecap="round" stroke-linejoin="round" d="M 27.859739303588867 298.3909912109375 C 25.940906524658203 285.1512451171875 51.944881439208984 320.8190002441406 103.9865493774414 353.8711853027344 C 59.4976806640625 315.5202331542969 19.612009048461914 287.76727294921875 27.94285011291504 275.4868469238281 C 23.67630958557129 288.22418212890625 31.607738494873047 273.5799865722656 29.250288009643555 303.025634765625 C 24.520721435546875 282.1397705078125 44.1134147644043 294.79473876953125 27.859739303588867 298.3909912109375"/>
    <path stroke-width="0" fill="rgb(115, 184, 136)" opacity="0.10711615" stroke="rgb(66, 95, 149)" stroke-opacity="1.0" stroke-linecap="round" stroke-linejoin="round" d="M 348.7348327636719 138.1866455078125 C 336.04925537109375 142.33465576171875 320.2559814453125 137.3174591064453 313.9801940917969 131.56080627441406 C 372.44476318359375 121.267822265625 359.52593994140625 133.9946746826172 355.9625244140625 120.76823425292969 C 298.4850769042969 135.2953643798828 276.8760681152344 100.08763885498047 316.7245178222656 109.49215698242188 C 353.4534912109375 152.24740600585938 369.17584228515625 159.09910583496094 348.7348327636719 138.1866455078125"/>
    <path stroke-width="0" fill="rgb(-1, -23, 53)" opacity="0.92282975" stroke="rgb(203, 19, 132)" stroke-opacity="1.0" stroke-linecap="round" stroke-linejoin="round" d="M 432.85595703125 362.5295715332031 C 524.5875854492188 406.08343505859375 519.9725341796875 402.30780029296875 440.3016662597656 363.00701904296875 C 403.57275390625 346.1004333496094 491.0088195800781 368.20751953125 421.8208923339844 353.8748779296875 C 430.7530822753906 367.0518493652344 446.09954833984375 361.5887756347656 407.7624206542969 340.3455810546875 C 369.39544677734375 372.62677001953125 415.7027893066406 358.7281799316406 432.85595703125 362.5295715332031"/>
    <path stroke-width="0" fill="rgb(148, 157, 166)" opacity="0.4544215" stroke="rgb(109, 130, 136)" stroke-opacity="1.0" stroke-linecap="round" stroke-linejoin="round" d="M 322.328857421875 131.342529296875 C 319.0089416503906 156.9736328125 301.0965576171875 161.44606018066406 304.631591796875 169.258544921875 C 339.07452392578125 178.69546508789062 301.4432373046875 163.51380920410156 314.4696960449219 195.78956604003906 C 317.6496276855469 190.34739685058594 328.6532897949219 169.68495178222656 302.6033020019531 154.19073486328125 C 301.2829895019531 156.35940551757812 320.9930725097656 161.47857666015625 322.328857421875 131.342529296875"/>
    <path stroke-width="0" fill="rgb(8, -43, 27)" opacity="0.7980882" stroke="rgb(70, 32, 100)" stroke-opacity="1.0" stroke-linecap="round" stroke-linejoin="round" d="M 195.55886840820312 401.1216735839844 C 99.1043701171875 345.962646484375 44.36492156982422 342.9755554199219 131.28076171875 352.5413818359375 C 121.61148071289062 326.8912353515625 125.67961883544922 338.09564208984375 132.5949249267578 348.8250427246094 C 87.17575073242188 346.4463195800781 118.65220642089844 364.61962890625 167.1607666015625 444.1414794921875 C 75.16850280761719 310.87109375 98.8080825805664 358.75341796875 195.55886840820312 401.1216735839844"/>
    <path stroke-width="0" fill="rgb(26, 59, -10)" opacity="0.21794508" stroke="rgb(192, 162, 61)" stroke-opacity="1.0" stroke-linecap="round" stroke-linejoin="round" d="M 1.6455093622207642 331.4973449707031 C 78.95466613769531 343.5492248535156 53.65037536621094 327.28948974609375 49.32564926147461 303.1031494140625 C 47.603302001953125 309.74884033203125 53.910125732421875 304.42657470703125 47.0831298828125 304.5931091308594 C 47.25093460083008 302.51513671875 39.71699523925781 306.0423889160156 58.12883758544922 310.65667724609375 C 56.05852508544922 326.87969970703125 68.91567993164062 350.865478515625 1.6455093622207642 331.4973449707031"/>
    <path stroke-width="0" fill="rgb(156, 143, 163)" opacity="0.37604353" stroke="rgb(248, 252, 104)" stroke-opacity="1.0" stroke-linecap="round" stroke-linejoin="round" d="M 107.66603088378906 234.97283935546875 C 107.16453552246094 217.71438598632812 104.7801284790039 240.6049346923828 128.58164978027344 242.8509521484375 C 130.47402954101562 209.8037872314453 109.5484619140625 220.6001434326172 116.54036712646484 234.80055236816406 C 104.67160034179688 229.63101196289062 120.08570861816406 146.86212158203125 116.86251831054688 198.22317504882812 C 119.90206909179688 208.64376831054688 131.4112548828125 241.32579040527344 107.66603088378906 234.97283935546875"/>
    <path stroke-width="0" fill="rgb(21, -12, -7)" opacity="0.73829514" stroke="rgb(162, 125, 252)" stroke-opacity="1.0" stroke-linecap="round" stroke-linejoin="round" d="M 466.45489501953125 359.2146301269531 C 373.108154296875 357.15057373046875 411.01690673828125 335.8515319824219 411.19049072265625 374.0456848144531 C 427.599853515625 328.6424865722656 421.4848327636719 346.8502502441406 351.3846740722656 448.6112976074219 C 420.86419677734375 347.39892578125 428.80169677734375 353.8358154296875 368.6700439453125 371.6243896484375 C 364.00640869140625 383.2748718261719 383.637451171875 349.62762451171875 466.45489501953125 359.2146301269531"/>
    <path stroke-width="0" fill="rgb(46, 132, 58)" opacity="0.112238556" stroke="rgb(91, 211, 235)" stroke-opacity="1.0" stroke-linecap="round" stroke-linejoin="round" d="M 360.4122314453125 320.4615478515625 C 351.177734375 315.61029052734375 364.10406494140625 321.9360656738281 354.1768798828125 380.1880798339844 C 348.41937255859375 378.977783203125 362.7718200683594 378.8707275390625 359.2646484375 320.1368408203125 C 353.0570373535156 326.75042724609375 346.77655029296875 327.9278564453125 377.4225769042969 341.0397033691406 C 351.6353759765625 323.64630126953125 348.2198791503906 326.7623291015625 360.4122314453125 320.4615478515625"/>
    <path stroke-width="0" fill="rgb(97, 0, -16)" opacity="1.0251507" stroke="rgb(59, 88, 207)" stroke-opacity="1.0" stroke-linecap="round" stroke-linejoin="round" d="M 438.9178771972656 340.16619873046875 C 482.8349609375 316.52227783203125 454.185302734375 329.3218688964844 467.4470520019531 325.50543212890625 C 462.2196350097656 331.0839538574219 465.6560363769531 324.781005859375 475.1723327636719 321.3704833984375 C 462.35711669921875 327.3942565917969 473.3233337402344 316.50927734375 482.592529296875 319.2332763671875 C 436.2142333984375 341.4017028808594 406.1236877441406 369.458251953125 438.9178771972656 340.16619873046875"/>
    <path stroke-width="0" fill="rgb(202, 224, 179)" opacity="0.042980876" stroke="rgb(63, 27, 242)" stroke-opacity="1.0" stroke-linecap="round" stroke-linejoin="round" d="M 106.4649429321289 401.2003479003906 C 40.473026275634766 428.6629333496094 56.09222412109375 447.52557373046875 20.277130126953125 390.3323974609375 C 117.45621490478516 413.27044677734375 94.12773895263672 409.5012512207031 55.85213088989258 409.25750732421875 C 74.20323944091797 452.3614196777344 103.94776916503906 466.2864074707031 93.47478485107422 405.712646484375 C 76.27062225341797 402.4934387207031 73.09272003173828 401.8021240234375 106.4649429321289 401.2003479003906"/>
    <path stroke-width="0" fill="rgb(102, 185, 99)" opacity="0.63599724" stroke="rgb(175, 14, 186)" stroke-opacity="1.0" stroke-linecap="round" stroke-linejoin="round" d="M 67.18603515625 251.29734802246094 C 72.0262451171875 257.2542419433594 62.844295501708984 272.4541320800781 44.77335739135742 241.05177307128906 C 74.9425048828125 245.32382202148438 70.1827163696289 243.67953491210938 52.99392318725586 241.1117706298828 C 49.12925720214844 237.92684936523438 54.164119720458984 120.85617065429688 50.71630096435547 242.7467498779297 C 132.34786987304688 208.05699157714844 155.32669067382812 261.2159423828125 67.18603515625 251.29734802246094"/>
    <path stroke-width="0" fill="rgb(96, 192, 134)" opacity="0.5698206" stroke="rgb(228, 103, 140)" stroke-opacity="1.0" stroke-linecap="round" stroke-linejoin="round" d="M 402.4992980957031 214.01287841796875 C 399.0264892578125 243.7265625 387.8360900878906 244.32757568359375 432.21051025390625 241.7584228515625 C 459.7099609375 233.6344451904297 393.841064453125 220.7947998046875 396.76702880859375 237.6024627685547 C 402.4537353515625 231.90892028808594 404.2435607910156 250.4137725830078 404.3824157714844 240.46311950683594 C 400.88311767578125 248.9559783935547 408.22119140625 237.28878784179688 402.4992980957031 214.01287841796875"/>
    <path stroke-width="0" fill="rgb(131, 171, 153)" opacity="0.43800378" stroke="rgb(64, 113, 26)" stroke-opacity="1.0" stroke-linecap="round" stroke-linejoin="round" d="M 136.04739379882812 236.255615234375 C 102.97737884521484 232.8536376953125 110.5579833984375 225.6626739501953 111.50521850585938 233.53575134277344 C 135.6107635498047 243.37460327148438 97.68254852294922 246.23959350585938 56.38386535644531 235.39328002929688 C 131.93154907226562 209.64523315429688 67.23260498046875 200.15003967285156 122.4990463256836 236.98402404785156 C 110.90735626220703 245.32110595703125 147.53521728515625 251.5654754638672 136.04739379882812 236.255615234375"/>
    <path stroke-width="0" fill="rgb(105, 194, 102)" opacity="0.15829775" stroke="rgb(0, 0, 0)" stroke-opacity="0.0" stroke-linecap="round" stroke-linejoin="round" d="M 58.80867004394531 75.2608871459961 C 58.7789421081543 81.85004425048828 60.0960693359375 81.1176986694336 53.14778137207031 80.84529113769531 C 47.16455841064453 82.67755126953125 46.739524841308594 82.00448608398438 46.626956939697266 77.07627868652344 C 46.60248947143555 70.42668914794922 46.1977653503418 68.93460845947266 52.35725021362305 73.40890502929688 C 53.57621383666992 70.02305603027344 56.83426284790039 71.37557983398438 58.80867004394531 75.2608871459961"/>
    <path stroke-width="0" fill="rgb(101, 196, 149)" opacity="0.01783972" stroke="rgb(0, 0, 0)" stroke-opacity="0.0" stroke-linecap="round" stroke-linejoin="round" d="M 367.5199890136719 39.88209533691406 C 366.63958740234375 46.49919509887695 366.5493469238281 49.27616500854492 361.23529052734375 45.11381149291992 C 354.6459655761719 49.165218353271484 354.3968811035156 45.927955627441406 355.5164489746094 40.594764709472656 C 354.54241943359375 36.53018569946289 356.9187927246094 32.900394439697266 357.61474609375 35.924293518066406 C 363.27764892578125 36.54743957519531 367.7847595214844 35.65412521362305 367.5199890136719 39.88209533691406"/>
    <path stroke-width="0" fill="rgb(-20, 131, 162)" opacity="0.07979125" stroke="rgb(0, 0, 0)" stroke-opacity="0.0" stroke-linecap="round" stroke-linejoin="round" d="M 413.7739562988281 360.13543701171875 C 416.78717041015625 361.4621887207031 412.1175842285156 365.5871887207031 407.7016906738281 364.55364990234375 C 408.49664306640625 362.1767272949219 410.82623291015625 362.3472900390625 409.6357421875 359.3800048828125 C 406.95538330078125 361.7156066894531 413.50994873046875 360.1486511230469 411.8148498535156 358.64666748046875 C 408.6671142578125 353.210205078125 409.47021484375 358.3724060058594 413.7739562988281 360.13543701171875"/>
    <path stroke-width="0" fill="rgb(7, 112, 56)" opacity="0.0470835" stroke="rgb(0, 0, 0)" stroke-opacity="0.0" stroke-linecap="round" stroke-linejoin="round" d="M 165.7586212158203 246.25608825683594 C 169.06884765625 244.7250213623047 160.80873107910156 245.0164031982422 163.2369384765625 251.74400329589844 C 160.38304138183594 257.7538146972656 151.29901123046875 255.7760467529297 151.28794860839844 246.72488403320312 C 156.55665588378906 241.043212890625 159.8270263671875 235.0774383544922 168.11373901367188 235.28271484375 C 165.72430419921875 238.0165252685547 165.4322052001953 236.28843688964844 165.7586212158203 246.25608825683594"/>
    <path stroke-width="0" fill="rgb(131, 171, 134)" opacity="0.2835485" stroke="rgb(0, 0, 0)" stroke-opacity="0.0" stroke-linecap="round" stroke-linejoin="round" d="M 122.8095474243164 66.43478393554688 C 122.41773986816406 70.6005630493164 119.1717758178711 75.58153533935547 118.6797103881836 72.84962463378906 C 113.90106201171875 71.14869689941406 109.2470703125 68.21044921875 108.13390350341797 68.55455780029297 C 112.57171630859375 63.61692810058594 113.75257873535156 60.378719329833984 118.3122787475586 60.30590057373047 C 121.72120666503906 56.37430953979492 121.07156372070312 60.655452728271484 122.8095474243164 66.43478393554688"/>
    <path stroke-width="0" fill="rgb(231, 80, 29)" opacity="0.48778898" stroke="rgb(0, 0, 0)" stroke-opacity="0.0" stroke-linecap="round" stroke-linejoin="round" d="M 365.11932373046875 182.92031860351562 C 365.2823791503906 185.3115234375 360.7845153808594 184.92886352539062 358.34375 184.7815399169922 C 363.7925109863281 185.0545196533203 361.2835998535156 186.86424255371094 351.5668640136719 189.93722534179688 C 351.1780700683594 179.0066680908203 348.3278503417969 171.42727661132812 363.14276123046875 169.44058227539062 C 366.5804748535156 176.31260681152344 367.0341491699219 178.16673278808594 365.11932373046875 182.92031860351562"/>
    <path stroke-width="0" fill="rgb(56, 161, 201)" opacity="0.063494176" stroke="rgb(0, 0, 0)" stroke-opacity="0.0" stroke-linecap="round" stroke-linejoin="round" d="M 19.018545150756836 18.85922622680664 C 18.360326766967773 22.384511947631836 16.716398239135742 18.73434829711914 10.717062950134277 18.578739166259766 C 4.000229835510254 18.255420684814453 2.5465147495269775 19.812267303466797 3.9774303436279297 21.238142013549805 C 4.697470188140869 17.425622940063477 4.006381511688232 9.671590805053711 5.865614891052246 14.721970558166504 C 17.371742248535156 13.769707679748535 18.51101303100586 10.866790771484375 19.018545150756836 18.85922622680664"/>
    <path stroke-width="0" fill="rgb(130, 173, 117)" opacity="-0.0031168056" stroke="rgb(0, 0, 0)" stroke-opacity="0.0" stroke-linecap="round" stroke-linejoin="round" d="M 222.8562774658203 91.4863052368164 C 219.19940185546875 91.65116119384766 216.03131103515625 93.14020538330078 209.16346740722656 92.05357360839844 C 213.2787322998047 95.85130310058594 214.41648864746094 98.3392333984375 214.76028442382812 94.40396118164062 C 211.02053833007812 92.05562591552734 210.47254943847656 90.86058807373047 213.889892578125 94.00858306884766 C 223.97645568847656 91.7737045288086 227.4541015625 91.73119354248047 222.8562774658203 91.4863052368164"/>
    <path stroke-width="0" fill="rgb(136, 173, 144)" opacity="0.11438577" stroke="rgb(0, 0, 0)" stroke-opacity="0.0" stroke-linecap="round" stroke-linejoin="round" d="M 313.3265380859375 37.38246536254883 C 317.1622314453125 39.8173942565918 309.4207458496094 40.35481262207031 306.64306640625 40.19686508178711 C 295.24066162109375 36.03264236450195 289.27276611328125 38.61323547363281 293.08013916015625 32.810123443603516 C 292.61920166015625 22.87626838684082 291.4550476074219 25.433156967163086 300.8462219238281 30.558624267578125 C 306.99017333984375 28.641815185546875 310.33642578125 30.7043399810791 313.3265380859375 37.38246536254883"/>
    <path stroke-width="0" fill="rgb(120, 165, 135)" opacity="0.023782676" stroke="rgb(0, 0, 0)" stroke-opacity="0.0" stroke-linecap="round" stroke-linejoin="round" d="M 93.79646301269531 62.92987060546875 C 95.29804992675781 63.589683532714844 90.72599792480469 65.99724578857422 90.98672485351562 68.28001403808594 C 90.3343505859375 66.90726470947266 87.61091613769531 61.92832565307617 89.43717956542969 62.48479461669922 C 85.48009490966797 62.645660400390625 86.83970642089844 55.21172332763672 86.91802215576172 57.443817138671875 C 90.87217712402344 58.58372116088867 92.20674133300781 61.83941650390625 93.79646301269531 62.92987060546875"/>
    <path stroke-width="0" fill="rgb(35, 116, 66)" opacity="0.51373786" stroke="rgb(0, 0, 0)" stroke-opacity="0.0" stroke-linecap="round" stroke-linejoin="round" d="M 101.21800231933594 -269.7903137207031 C 100.14620208740234 -265.7903137207031 97.21800231933594 -262.86212158203125 93.21800231933594 -261.7903137207031 C 89.21800231933594 -262.86212158203125 86.28980255126953 -265.7903137207031 85.21800231933594 -269.7903137207031 C 86.28980255126953 -273.7903137207031 89.21800231933594 -276.7185363769531 93.21800231933594 -277.7903137207031 C 97.21800231933594 -276.7185363769531 100.14620208740234 -273.7903137207031 101.21800231933594 -269.7903137207031"/>
    <path stroke-width="0" fill="rgb(134, 164, 159)" opacity="0.22811203" stroke="rgb(0, 0, 0)" stroke-opacity="0.0" stroke-linecap="round" stroke-linejoin="round" d="M 307.4859619140625 62.73778533935547 C 306.73248291015625 60.4152946472168 304.26171875 63.302791595458984 306.22100830078125 68.92448425292969 C 305.7196044921875 65.89669036865234 302.49639892578125 63.38022994995117 306.7687683105469 65.21696472167969 C 302.273681640625 60.113765716552734 300.6988830566406 60.49647903442383 306.79443359375 60.291893005371094 C 310.51422119140625 60.68268966674805 312.033203125 61.81538009643555 307.4859619140625 62.73778533935547"/>
  </g>
</svg>
