<?xml version="1.0" ?>
<svg xmlns="http://www.w3.org/2000/svg" version="1.1" width="512" height="512">
  <defs/>
  <g>
    <path stroke-width="0" fill="rgb(-33, 0, 13)" opacity="1.0848686" stroke="rgb(139, 182, 153)" stroke-opacity="1.0" stroke-linecap="round" stroke-linejoin="round" d="M 356.35113525390625 216.61004638671875 C 384.3144836425781 220.3865966796875 277.1829833984375 218.16351318359375 262.70782470703125 213.57557678222656 C 127.32195281982422 215.98428344726562 150.71524047851562 209.73223876953125 152.66250610351562 199.5788116455078 C 213.4180908203125 200.54701232910156 264.0963134765625 211.0457000732422 267.74951171875 207.68516540527344 C 202.32833862304688 207.7029266357422 248.42335510253906 196.4156036376953 356.35113525390625 216.61004638671875"/>
    <path stroke-width="0" fill="rgb(79, 100, 70)" opacity="0.56199384" stroke="rgb(108, 164, 111)" stroke-opacity="1.0" stroke-linecap="round" stroke-linejoin="round" d="M 250.19883728027344 651.8287353515625 C -233.28164672851562 573.214111328125 297.40057373046875 111.7614517211914 176.19273376464844 425.206298828125 C -133.0347137451172 555.212890625 328.5790710449219 166.47125244140625 30.137243270874023 277.4507141113281 C 115.52762603759766 669.5671997070312 -110.57328796386719 702.85009765625 -42.027931213378906 -48.733394622802734 C 462.4911804199219 -98.5047607421875 460.2344970703125 -89.96930694580078 250.19883728027344 651.8287353515625"/>
    <path stroke-width="0" fill="rgb(20, 29, 27)" opacity="1.0350215" stroke="rgb(245, 97, 201)" stroke-opacity="1.0" stroke-linecap="round" stroke-linejoin="round" d="M 781.0328979492188 370.05078125 C 379.9076843261719 604.6876220703125 208.787109375 622.9669189453125 281.8481750488281 314.7037658691406 C 191.15948486328125 347.1278381347656 434.59918212890625 550.1104125976562 496.42108154296875 375.50146484375 C 525.6303100585938 137.6807403564453 135.2163848876953 382.0182189941406 258.0357360839844 -24.99050521850586 C 449.6614074707031 -97.54769134521484 769.5654296875 -107.06083679199219 781.0328979492188 370.05078125"/>
    <path stroke-width="0" fill="rgb(-18, 6, 23)" opacity="0.98595476" stroke="rgb(144, 236, 18)" stroke-opacity="1.0" stroke-linecap="round" stroke-linejoin="round" d="M 421.0091857910156 345.18438720703125 C 400.4653015136719 346.7158203125 408.43878173828125 577.240966796875 409.5814514160156 364.4830322265625 C 238.12069702148438 362.61370849609375 245.06781005859375 327.8900451660156 329.53955078125 348.0804138183594 C 437.03948974609375 336.7234802246094 392.70843505859375 380.47149658203125 320.6753234863281 163.650146484375 C 413.8183288574219 343.0151672363281 408.0159606933594 343.2523193359375 421.0091857910156 345.18438720703125"/>
    <path stroke-width="0" fill="rgb(0, 1, 8)" opacity="0.98915386" stroke="rgb(5, 212, 198)" stroke-opacity="1.0" stroke-linecap="round" stroke-linejoin="round" d="M 195.09835815429688 146.18124389648438 C 194.99697875976562 173.51382446289062 161.57180786132812 168.979248046875 168.30145263671875 138.12123107910156 C 132.68687438964844 284.4587097167969 166.4036865234375 217.96510314941406 166.23760986328125 150.3117218017578 C 187.3321533203125 173.81033325195312 141.22390747070312 109.32398986816406 147.74742126464844 173.12754821777344 C 178.3941192626953 259.7718811035156 111.6053237915039 107.72455596923828 195.09835815429688 146.18124389648438"/>
    <path stroke-width="0" fill="rgb(252, 255, 250)" opacity="1.0341767" stroke="rgb(249, 203, 117)" stroke-opacity="1.0" stroke-linecap="round" stroke-linejoin="round" d="M 138.97329711914062 274.5042724609375 C 214.7429656982422 298.51690673828125 163.20643615722656 301.719482421875 131.26654052734375 332.6652526855469 C 146.82411193847656 289.09564208984375 166.54266357421875 270.46136474609375 152.65016174316406 293.50640869140625 C 159.71633911132812 294.02593994140625 175.1263427734375 294.5690002441406 162.32305908203125 285.70330810546875 C 132.25958251953125 274.2710266113281 148.09014892578125 281.1825256347656 138.97329711914062 274.5042724609375"/>
    <path stroke-width="0" fill="rgb(265, 260, 258)" opacity="0.9862499" stroke="rgb(30, 163, 36)" stroke-opacity="1.0" stroke-linecap="round" stroke-linejoin="round" d="M 152.1525421142578 320.29644775390625 C 171.02308654785156 264.77789306640625 245.16903686523438 350.2655334472656 150.2242431640625 318.0042724609375 C 119.95307922363281 342.4669494628906 94.07933807373047 354.4331359863281 119.88928985595703 336.26165771484375 C 158.09039306640625 280.69757080078125 122.24390411376953 246.0106964111328 173.54737854003906 290.460205078125 C 178.5558319091797 311.70904541015625 181.5749053955078 294.6096496582031 152.1525421142578 320.29644775390625"/>
    <path stroke-width="0" fill="rgb(-1, 3, 8)" opacity="0.9783339" stroke="rgb(133, 105, 67)" stroke-opacity="1.0" stroke-linecap="round" stroke-linejoin="round" d="M 132.95315551757812 441.70062255859375 C 138.27560424804688 473.327880859375 -20.001874923706055 451.2169494628906 12.855359077453613 337.1319580078125 C 13.877901077270508 479.73236083984375 157.52996826171875 442.3961486816406 132.03564453125 441.334228515625 C 109.70710754394531 482.80999755859375 299.3739929199219 377.7809753417969 145.4806671142578 248.97686767578125 C 284.82183837890625 416.35650634765625 76.56623840332031 466.9468078613281 132.95315551757812 441.70062255859375"/>
    <path stroke-width="0" fill="rgb(0, -4, 11)" opacity="0.976817" stroke="rgb(116, 144, 4)" stroke-opacity="1.0" stroke-linecap="round" stroke-linejoin="round" d="M 12.718698501586914 393.8115539550781 C -20.858434677124023 343.8033447265625 -19.46309471130371 369.54827880859375 -26.08123016357422 337.1153564453125 C -6.9433274269104 379.3391418457031 -81.13606262207031 418.0630798339844 31.036720275878906 368.1901550292969 C -21.81173324584961 428.5266418457031 -4.952195167541504 190.35890197753906 165.27407836914062 263.7493591308594 C -58.16007614135742 211.29087829589844 36.273258209228516 503.2142028808594 12.718698501586914 393.8115539550781"/>
    <path stroke-width="0" fill="rgb(269, 262, 257)" opacity="0.9953932" stroke="rgb(156, 157, 240)" stroke-opacity="1.0" stroke-linecap="round" stroke-linejoin="round" d="M 360.4394836425781 282.1341247558594 C 333.8201904296875 380.5790100097656 387.2457580566406 321.0876159667969 299.96405029296875 352.1590576171875 C 310.3690185546875 324.5005798339844 328.5829772949219 282.5381774902344 336.1444091796875 289.1151428222656 C 319.81622314453125 272.3434753417969 310.8252868652344 308.3451232910156 354.5155029296875 319.64642333984375 C 270.10919189453125 287.7323303222656 385.8808898925781 251.1645050048828 360.4394836425781 282.1341247558594"/>
    <path stroke-width="0" fill="rgb(-16, 3, 33)" opacity="1.0055294" stroke="rgb(91, 111, 177)" stroke-opacity="1.0" stroke-linecap="round" stroke-linejoin="round" d="M 122.5325698852539 311.31292724609375 C 127.8175048828125 304.8817443847656 108.12767791748047 358.02081298828125 123.95124053955078 328.67718505859375 C 111.61859893798828 336.19287109375 155.83387756347656 163.6859893798828 177.82325744628906 148.2246856689453 C 129.18707275390625 333.2394714355469 128.82005310058594 332.4360046386719 118.4830322265625 317.3836975097656 C 134.19557189941406 282.5978698730469 120.60504150390625 294.0601806640625 122.5325698852539 311.31292724609375"/>
    <path stroke-width="0" fill="rgb(-3, 9, 3)" opacity="0.9863004" stroke="rgb(170, 171, 53)" stroke-opacity="1.0" stroke-linecap="round" stroke-linejoin="round" d="M 130.8628692626953 286.9240417480469 C 99.3899917602539 412.37774658203125 122.5749740600586 285.2955627441406 101.93965911865234 398.3807373046875 C 113.23857879638672 308.3500671386719 98.25885772705078 400.66162109375 97.8879623413086 337.1302795410156 C 83.9791259765625 324.0145263671875 132.82315063476562 393.7091064453125 58.144081115722656 248.04786682128906 C 121.67591857910156 349.7944030761719 88.70694732666016 377.1218566894531 130.8628692626953 286.9240417480469"/>
    <path stroke-width="0" fill="rgb(-11, -2, 20)" opacity="0.96293753" stroke="rgb(80, 92, 145)" stroke-opacity="1.0" stroke-linecap="round" stroke-linejoin="round" d="M 299.94378662109375 297.0743713378906 C 292.7799987792969 285.72015380859375 291.3905334472656 299.15777587890625 266.0736389160156 306.5595703125 C 306.4227600097656 178.7044677734375 257.3110656738281 457.8959045410156 389.8070068359375 444.5036315917969 C 241.45909118652344 403.65692138671875 324.69134521484375 182.94137573242188 485.36407470703125 283.5185852050781 C 353.01611328125 155.02017211914062 275.6710205078125 388.1213073730469 299.94378662109375 297.0743713378906"/>
    <path stroke-width="0" fill="rgb(171, 183, 171)" opacity="0.97875553" stroke="rgb(252, 26, 53)" stroke-opacity="1.0" stroke-linecap="round" stroke-linejoin="round" d="M 390.09295654296875 206.56976318359375 C 292.26873779296875 212.88453674316406 297.6678771972656 221.4010467529297 377.6309814453125 210.6161651611328 C 241.05126953125 201.3533935546875 187.60984802246094 193.90411376953125 161.7978057861328 200.8460693359375 C 241.21054077148438 130.92733764648438 149.00404357910156 18.12238311767578 423.8920593261719 104.03005981445312 C 449.1424865722656 225.04034423828125 266.8194274902344 108.74853515625 390.09295654296875 206.56976318359375"/>
    <path stroke-width="0" fill="rgb(190, 182, 164)" opacity="0.8609956" stroke="rgb(166, 64, 118)" stroke-opacity="1.0" stroke-linecap="round" stroke-linejoin="round" d="M 329.2946472167969 240.38075256347656 C 288.0058288574219 284.07647705078125 280.5481872558594 326.3030700683594 237.6595001220703 356.5983581542969 C 219.13052368164062 347.35784912109375 216.86685180664062 334.83221435546875 229.25595092773438 258.22479248046875 C 225.48619079589844 226.4054412841797 225.34713745117188 208.5865936279297 273.5376892089844 215.37890625 C 357.09588623046875 215.58871459960938 338.5290832519531 210.0134735107422 329.2946472167969 240.38075256347656"/>
    <path stroke-width="0" fill="rgb(87, 127, 147)" opacity="0.94651693" stroke="rgb(40, 28, 167)" stroke-opacity="1.0" stroke-linecap="round" stroke-linejoin="round" d="M 314.320068359375 269.6283874511719 C 314.56915283203125 266.11138916015625 316.3486633300781 275.4342956542969 304.6343688964844 274.0284423828125 C 325.27703857421875 267.48028564453125 335.05987548828125 260.50091552734375 326.52960205078125 253.19688415527344 C 327.62921142578125 249.38511657714844 321.6989440917969 219.00997924804688 313.25390625 276.33392333984375 C 269.8682556152344 331.5126647949219 339.2048645019531 315.49615478515625 314.320068359375 269.6283874511719"/>
    <path stroke-width="0" fill="rgb(165, 172, 166)" opacity="0.7596731" stroke="rgb(50, 94, 209)" stroke-opacity="1.0" stroke-linecap="round" stroke-linejoin="round" d="M 445.2940979003906 454.2637939453125 C 431.9479675292969 473.8377380371094 239.75753784179688 477.5834045410156 426.5830993652344 468.3538818359375 C 147.6946258544922 634.13916015625 351.7580261230469 314.77154541015625 199.74456787109375 385.2438659667969 C 225.42593383789062 291.031005859375 135.50123596191406 257.2705383300781 204.46852111816406 298.8339538574219 C 333.0993347167969 357.6979675292969 289.266357421875 461.19580078125 445.2940979003906 454.2637939453125"/>
    <path stroke-width="0" fill="rgb(-6, 0, 30)" opacity="0.9519351" stroke="rgb(213, 24, 248)" stroke-opacity="1.0" stroke-linecap="round" stroke-linejoin="round" d="M 256.2779541015625 269.7322082519531 C 231.97727966308594 188.00930786132812 131.2990264892578 226.05410766601562 153.09756469726562 198.47012329101562 C 337.5932922363281 211.38519287109375 353.9127502441406 192.40380859375 261.4147644042969 217.68548583984375 C 286.8117980957031 219.58248901367188 355.3468322753906 257.8829040527344 344.73919677734375 205.7789764404297 C 256.0376892089844 197.43777465820312 257.0400085449219 246.7907257080078 256.2779541015625 269.7322082519531"/>
    <path stroke-width="0" fill="rgb(34, 70, 158)" opacity="0.8030196" stroke="rgb(249, 154, 188)" stroke-opacity="1.0" stroke-linecap="round" stroke-linejoin="round" d="M 327.461181640625 228.51329040527344 C 256.4153137207031 295.08978271484375 205.67236328125 283.8011169433594 235.72515869140625 268.3499755859375 C 214.18841552734375 278.33599853515625 206.68313598632812 282.2743835449219 192.7228240966797 251.3796844482422 C 143.47264099121094 276.8489990234375 147.27700805664062 198.23178100585938 176.06048583984375 217.8347625732422 C 266.6975402832031 213.92962646484375 316.07049560546875 213.00645446777344 327.461181640625 228.51329040527344"/>
    <path stroke-width="0" fill="rgb(-4, 1, 0)" opacity="0.32337862" stroke="rgb(72, 30, 75)" stroke-opacity="1.0" stroke-linecap="round" stroke-linejoin="round" d="M 211.0216827392578 26.282711029052734 C -32.770362854003906 146.70091247558594 110.79580688476562 177.1076202392578 2.307732105255127 349.3993225097656 C -90.8613052368164 155.8155059814453 -36.2645378112793 116.5946044921875 -31.709943771362305 36.69902801513672 C -31.88047218322754 10.4307222366333 -24.965839385986328 4.1932501792907715 12.001792907714844 -3.855773687362671 C 86.61212158203125 -2.433533191680908 169.77987670898438 -69.2052001953125 211.0216827392578 26.282711029052734"/>
    <path stroke-width="0" fill="rgb(122, 128, 127)" opacity="0.71385175" stroke="rgb(81, 105, 16)" stroke-opacity="1.0" stroke-linecap="round" stroke-linejoin="round" d="M 288.94403076171875 51.18162155151367 C 4.984079837799072 89.08718872070312 168.739013671875 230.61837768554688 28.843046188354492 275.39764404296875 C 5.997888088226318 74.34940338134766 167.95669555664062 24.659231185913086 194.92881774902344 16.845556259155273 C 49.33818817138672 18.06624984741211 91.08216857910156 -62.54969787597656 133.10743713378906 -88.67510223388672 C 156.5106964111328 -111.31338500976562 201.7467041015625 -174.2764434814453 288.94403076171875 51.18162155151367"/>
    <path stroke-width="0" fill="rgb(176, 180, 177)" opacity="0.7547902" stroke="rgb(144, 67, 133)" stroke-opacity="1.0" stroke-linecap="round" stroke-linejoin="round" d="M 327.23907470703125 -21.2152042388916 C 286.0714111328125 211.85330200195312 206.13455200195312 172.66561889648438 221.28358459472656 189.8314971923828 C 154.43899536132812 201.07345581054688 159.4358367919922 220.54127502441406 174.59622192382812 163.16026306152344 C 268.9216003417969 171.2893524169922 166.1601104736328 76.14740753173828 95.36370086669922 213.41384887695312 C 186.57374572753906 12.912121772766113 347.4806823730469 26.180524826049805 327.23907470703125 -21.2152042388916"/>
    <path stroke-width="0" fill="rgb(8, 78, 184)" opacity="1.0153852" stroke="rgb(146, 236, 81)" stroke-opacity="1.0" stroke-linecap="round" stroke-linejoin="round" d="M 391.1106872558594 353.3462219238281 C 409.59149169921875 388.2286376953125 324.24542236328125 348.2332458496094 241.7261505126953 408.74822998046875 C 343.7939147949219 341.4537658691406 266.04510498046875 432.1155700683594 201.31918334960938 314.98992919921875 C 130.18649291992188 191.3939208984375 104.88465881347656 259.9183044433594 332.92266845703125 221.31533813476562 C 301.598876953125 396.7196960449219 252.29998779296875 358.1975402832031 391.1106872558594 353.3462219238281"/>
    <path stroke-width="0" fill="rgb(171, 201, 206)" opacity="0.9763173" stroke="rgb(33, 182, 73)" stroke-opacity="1.0" stroke-linecap="round" stroke-linejoin="round" d="M 308.8557434082031 281.43707275390625 C 271.2787170410156 370.6807861328125 312.4201965332031 306.569580078125 259.9455871582031 335.380859375 C 236.0504608154297 299.20404052734375 213.4517364501953 266.53326416015625 174.17608642578125 230.25994873046875 C 156.60655212402344 207.7190399169922 124.40579986572266 215.61180114746094 268.0171203613281 215.2280731201172 C 365.107666015625 223.8115692138672 336.5114440917969 192.68118286132812 308.8557434082031 281.43707275390625"/>
    <path stroke-width="0" fill="rgb(140, 155, 143)" opacity="0.5981965" stroke="rgb(149, 5, 211)" stroke-opacity="1.0" stroke-linecap="round" stroke-linejoin="round" d="M 516.5225830078125 352.20306396484375 C 411.80767822265625 140.8865203857422 379.3554992675781 216.30239868164062 382.02032470703125 226.74032592773438 C 303.17901611328125 100.88297271728516 266.47894287109375 55.78984832763672 106.80072784423828 143.02659606933594 C 171.64503479003906 -1.3924189805984497 214.58526611328125 53.989173889160156 295.1085510253906 -31.724693298339844 C 494.6373596191406 -49.52625274658203 597.9222412109375 -60.34662628173828 516.5225830078125 352.20306396484375"/>
    <path stroke-width="0" fill="rgb(176, 178, 161)" opacity="0.99125415" stroke="rgb(172, 68, 187)" stroke-opacity="1.0" stroke-linecap="round" stroke-linejoin="round" d="M 478.4225769042969 273.5399475097656 C 515.3109741210938 300.08843994140625 447.0221862792969 222.554443359375 367.63671875 253.9122772216797 C 348.5971374511719 215.65309143066406 321.3250732421875 194.16905212402344 359.7524108886719 159.88893127441406 C 252.8551483154297 132.042724609375 267.7042236328125 167.99591064453125 368.29205322265625 177.05819702148438 C 491.7486267089844 100.84640502929688 482.8648986816406 159.6587677001953 478.4225769042969 273.5399475097656"/>
    <path stroke-width="0" fill="rgb(-4, 7, -1)" opacity="0.9914483" stroke="rgb(63, 146, 150)" stroke-opacity="1.0" stroke-linecap="round" stroke-linejoin="round" d="M 312.3891906738281 273.2698059082031 C 344.2513122558594 172.8834228515625 356.4181823730469 183.0478973388672 325.1941223144531 264.10784912109375 C 323.94384765625 265.1522521972656 328.6371154785156 254.84730529785156 326.13592529296875 259.2242736816406 C 325.6640625 256.6183166503906 325.3564758300781 266.0357666015625 322.7330322265625 262.51885986328125 C 326.4578552246094 262.9305419921875 321.0135498046875 285.0716247558594 312.3891906738281 273.2698059082031"/>
    <path stroke-width="0" fill="rgb(94, 102, 83)" opacity="0.72141826" stroke="rgb(56, 242, 114)" stroke-opacity="1.0" stroke-linecap="round" stroke-linejoin="round" d="M 15.792410850524902 163.01551818847656 C -9.330584526062012 347.0439758300781 20.052881240844727 80.90595245361328 -21.97541046142578 65.609619140625 C -33.61650848388672 65.88433074951172 -35.86575698852539 55.43598556518555 -32.70169448852539 38.967628479003906 C -0.025117134675383568 -14.567673683166504 19.8602294921875 -49.51051330566406 267.4801025390625 18.78227996826172 C 235.04934692382812 77.18479919433594 139.8131103515625 -92.8801040649414 15.792410850524902 163.01551818847656"/>
    <path stroke-width="0" fill="rgb(-4, -9, 16)" opacity="0.9827068" stroke="rgb(178, 75, 207)" stroke-opacity="1.0" stroke-linecap="round" stroke-linejoin="round" d="M 484.0873107910156 449.4757995605469 C 536.0699462890625 269.08721923828125 441.0957336425781 280.3562927246094 463.05548095703125 264.07568359375 C 520.4010009765625 309.8867492675781 497.7711181640625 337.9607849121094 506.34014892578125 316.5852355957031 C 505.9373474121094 404.7666931152344 498.6307678222656 414.0793151855469 495.8224182128906 370.9630432128906 C 496.6299133300781 463.5760498046875 301.27825927734375 456.4429931640625 484.0873107910156 449.4757995605469"/>
    <path stroke-width="0" fill="rgb(76, 87, 27)" opacity="0.8520295" stroke="rgb(224, 148, 224)" stroke-opacity="1.0" stroke-linecap="round" stroke-linejoin="round" d="M 58.56424331665039 482.6543884277344 C 25.110401153564453 418.76251220703125 42.45448303222656 448.341796875 55.86332702636719 541.6006469726562 C -19.229719161987305 506.37744140625 -10.912970542907715 480.55010986328125 -9.835012435913086 439.6129455566406 C -33.01291275024414 414.1160888671875 -26.163516998291016 417.97113037109375 2.144901990890503 429.7020568847656 C 41.15570068359375 441.1861572265625 30.719602584838867 450.1722106933594 58.56424331665039 482.6543884277344"/>
    <path stroke-width="0" fill="rgb(72, 93, 71)" opacity="0.77082276" stroke="rgb(184, 127, 243)" stroke-opacity="1.0" stroke-linecap="round" stroke-linejoin="round" d="M 126.711669921875 454.53936767578125 C 73.87568664550781 459.2967529296875 69.2572250366211 486.72698974609375 58.047080993652344 493.5093078613281 C 11.928215026855469 491.2262878417969 69.8428726196289 436.79217529296875 -15.528162956237793 433.9500732421875 C -13.125968933105469 397.4302062988281 -16.979198455810547 379.9790954589844 8.17107105255127 374.83160400390625 C 19.668386459350586 428.9619140625 64.63954162597656 459.5948791503906 126.711669921875 454.53936767578125"/>
    <path stroke-width="0" fill="rgb(154, 142, 103)" opacity="0.9458104" stroke="rgb(108, 154, 4)" stroke-opacity="1.0" stroke-linecap="round" stroke-linejoin="round" d="M 98.24967956542969 364.63726806640625 C 81.12165832519531 395.7971496582031 59.52862548828125 439.5921630859375 65.17507934570312 425.3224182128906 C 64.45928955078125 435.7356262207031 44.10115051269531 404.92816162109375 27.21082878112793 391.0950012207031 C -7.7442169189453125 319.2815246582031 25.336883544921875 356.16009521484375 102.8679428100586 339.6656494140625 C 95.47576904296875 359.4035339355469 52.12655258178711 415.18701171875 98.24967956542969 364.63726806640625"/>
    <path stroke-width="0" fill="rgb(84, 104, 96)" opacity="0.8001833" stroke="rgb(168, 73, 157)" stroke-opacity="1.0" stroke-linecap="round" stroke-linejoin="round" d="M 167.38954162597656 440.5230407714844 C 304.2940368652344 504.7432861328125 191.78277587890625 551.39892578125 28.74102210998535 548.7534790039062 C 11.251142501831055 543.2071533203125 3.708277463912964 537.02392578125 9.82792854309082 532.6465454101562 C 30.97194480895996 462.42156982421875 27.949785232543945 449.0359802246094 36.549072265625 460.13409423828125 C 120.5251235961914 465.7127685546875 145.8084716796875 442.7818603515625 167.38954162597656 440.5230407714844"/>
    <path stroke-width="0" fill="rgb(-6, 6, 19)" opacity="0.9090591" stroke="rgb(34, 76, 145)" stroke-opacity="1.0" stroke-linecap="round" stroke-linejoin="round" d="M 172.17185974121094 136.84298706054688 C 160.16725158691406 149.00416564941406 154.94650268554688 147.60411071777344 189.81935119628906 144.5845184326172 C 190.9373779296875 143.5380401611328 176.11900329589844 144.04148864746094 152.89923095703125 148.0233917236328 C 188.49481201171875 149.84803771972656 196.89190673828125 146.91371154785156 163.09841918945312 163.0255889892578 C 161.7607879638672 154.14370727539062 147.99371337890625 159.62338256835938 172.17185974121094 136.84298706054688"/>
    <path stroke-width="0" fill="rgb(90, 101, 72)" opacity="0.889378" stroke="rgb(146, 166, 166)" stroke-opacity="1.0" stroke-linecap="round" stroke-linejoin="round" d="M 62.127410888671875 527.0099487304688 C 47.256099700927734 539.38818359375 38.75363540649414 545.7471313476562 27.42095375061035 546.61962890625 C -6.0 521.3204956054688 -13.320508003234863 514.0 -38.80818176269531 480.6268615722656 C -40.5236701965332 466.51275634765625 -38.444549560546875 451.2158203125 6.304431438446045 391.6139831542969 C 59.68480682373047 481.89794921875 132.80479431152344 479.7861633300781 62.127410888671875 527.0099487304688"/>
    <path stroke-width="0" fill="rgb(103, 119, 118)" opacity="0.9427266" stroke="rgb(182, 254, 38)" stroke-opacity="1.0" stroke-linecap="round" stroke-linejoin="round" d="M 521.678466796875 376.79840087890625 C 581.78857421875 360.00494384765625 477.08709716796875 268.07354736328125 427.0146179199219 241.50990295410156 C 468.7810974121094 147.87388610839844 320.4059753417969 38.37186813354492 249.42864990234375 86.11520385742188 C 63.12839126586914 -11.693493843078613 317.3773498535156 -36.57297134399414 374.9771423339844 0.47579583525657654 C 425.23236083984375 6.275815486907959 551.7788696289062 8.446889877319336 521.678466796875 376.79840087890625"/>
    <path stroke-width="0" fill="rgb(92, 96, 75)" opacity="0.5703664" stroke="rgb(41, 156, 31)" stroke-opacity="1.0" stroke-linecap="round" stroke-linejoin="round" d="M 103.05137634277344 482.2415771484375 C 157.1088104248047 507.0224304199219 68.90428924560547 520.5695190429688 68.6324691772461 522.4760131835938 C 52.160484313964844 491.94903564453125 54.771141052246094 432.62371826171875 72.99913024902344 485.4471740722656 C -2.514860153198242 406.62127685546875 -8.540426254272461 408.8492126464844 32.60972595214844 444.9002380371094 C 78.45128631591797 453.6094055175781 79.84491729736328 466.72930908203125 103.05137634277344 482.2415771484375"/>
    <path stroke-width="0" fill="rgb(85, 99, 80)" opacity="0.7011258" stroke="rgb(205, 145, 103)" stroke-opacity="1.0" stroke-linecap="round" stroke-linejoin="round" d="M 68.02104949951172 448.97015380859375 C 185.09849548339844 491.8435974121094 210.4779052734375 535.0519409179688 55.27352523803711 506.8267517089844 C -33.31550216674805 449.16094970703125 -39.74538040161133 394.6014404296875 73.84273529052734 500.9610290527344 C -29.759323120117188 438.2822265625 -21.518699645996094 444.5858154296875 22.588607788085938 440.2560729980469 C 8.24385929107666 385.73101806640625 15.543455123901367 427.10882568359375 68.02104949951172 448.97015380859375"/>
    <path stroke-width="0" fill="rgb(95, 98, 81)" opacity="0.67871165" stroke="rgb(177, 115, 184)" stroke-opacity="1.0" stroke-linecap="round" stroke-linejoin="round" d="M 98.0750503540039 496.9096984863281 C 67.632080078125 531.6923828125 60.54181671142578 539.5640258789062 67.81272888183594 528.1776733398438 C 24.064796447753906 480.1145935058594 -42.67673873901367 492.3243103027344 -56.04832458496094 497.21630859375 C -1.0405356884002686 455.7156066894531 -11.923786163330078 460.8006896972656 -21.99703025817871 448.92755126953125 C 27.26026153564453 435.51727294921875 30.468610763549805 469.9916076660156 98.0750503540039 496.9096984863281"/>
    <path stroke-width="0" fill="rgb(259, 9, 23)" opacity="0.77872247" stroke="rgb(248, 218, 2)" stroke-opacity="1.0" stroke-linecap="round" stroke-linejoin="round" d="M 364.11358642578125 173.93301391601562 C 345.1347961425781 179.92471313476562 349.103759765625 173.7501983642578 325.1706848144531 158.8290557861328 C 333.13525390625 174.40631103515625 312.40301513671875 149.26278686523438 334.806396484375 167.74082946777344 C 371.5657958984375 191.27456665039062 348.29632568359375 154.42083740234375 338.6451110839844 204.7880859375 C 349.4315490722656 220.2085723876953 348.2811279296875 174.4096221923828 364.11358642578125 173.93301391601562"/>
    <path stroke-width="0" fill="rgb(-6, -2, 32)" opacity="0.97648895" stroke="rgb(186, 43, 132)" stroke-opacity="1.0" stroke-linecap="round" stroke-linejoin="round" d="M 180.008056640625 303.1494140625 C 190.04689025878906 266.2319641113281 113.49519348144531 253.6846923828125 147.78855895996094 248.0770721435547 C 159.00242614746094 266.11004638671875 134.9652099609375 241.765869140625 136.0113983154297 256.39617919921875 C 137.19200134277344 247.86395263671875 190.21530151367188 245.4341583251953 84.75425720214844 260.10467529296875 C 123.91770935058594 255.82473754882812 165.03363037109375 270.03460693359375 180.008056640625 303.1494140625"/>
    <path stroke-width="0" fill="rgb(107, 110, 116)" opacity="0.52609473" stroke="rgb(50, 4, 202)" stroke-opacity="1.0" stroke-linecap="round" stroke-linejoin="round" d="M 249.97787475585938 449.7358703613281 C 232.7212677001953 575.1491088867188 137.45960998535156 552.5886840820312 162.9041290283203 560.3697509765625 C 222.00146484375 471.8129577636719 150.26490783691406 406.72210693359375 132.1651153564453 477.8962707519531 C 58.88936233520508 446.394775390625 101.89165496826172 480.5620422363281 79.92367553710938 449.559814453125 C 165.4164276123047 471.8518981933594 147.85545349121094 398.3609313964844 249.97787475585938 449.7358703613281"/>
    <path stroke-width="0" fill="rgb(257, 257, 254)" opacity="0.94500035" stroke="rgb(88, 236, 179)" stroke-opacity="1.0" stroke-linecap="round" stroke-linejoin="round" d="M 90.2205810546875 359.2433166503906 C 115.79046630859375 388.7149658203125 6.5355377197265625 399.5096740722656 25.957170486450195 391.618896484375 C 87.67760467529297 403.1449890136719 108.84164428710938 332.72760009765625 58.9310417175293 432.6418762207031 C 33.04664611816406 378.8374328613281 8.632394790649414 403.27947998046875 75.87971496582031 370.8420104980469 C -1.0070091485977173 405.4637451171875 20.961181640625 390.84307861328125 90.2205810546875 359.2433166503906"/>
    <path stroke-width="0" fill="rgb(109, 116, 118)" opacity="0.28686705" stroke="rgb(41, 158, 147)" stroke-opacity="1.0" stroke-linecap="round" stroke-linejoin="round" d="M 380.7006530761719 5.753072261810303 C 183.3170928955078 -11.888548851013184 268.9189453125 102.48035430908203 516.2114868164062 107.89876556396484 C 504.44561767578125 -83.5113525390625 48.67929458618164 -56.510597229003906 -5.10202693939209 282.4870300292969 C -40.46506118774414 -38.58985137939453 312.2197265625 -43.93606185913086 301.0163269042969 -23.181455612182617 C 398.4580078125 -1.0943365097045898 413.5813903808594 13.372902870178223 380.7006530761719 5.753072261810303"/>
    <path stroke-width="0" fill="rgb(154, 166, 158)" opacity="0.5618313" stroke="rgb(238, 156, 136)" stroke-opacity="1.0" stroke-linecap="round" stroke-linejoin="round" d="M 450.3490905761719 254.6768798828125 C 331.1414489746094 221.26966857910156 437.72479248046875 5.413268089294434 428.1047058105469 123.08954620361328 C 108.14364624023438 158.16043090820312 180.1232452392578 75.50828552246094 83.12802124023438 251.3492889404297 C -10.781205177307129 76.97915649414062 460.0315246582031 6.22174596786499 321.6954650878906 41.207454681396484 C 302.4291687011719 8.588387489318848 527.0714111328125 30.164335250854492 450.3490905761719 254.6768798828125"/>
    <path stroke-width="0" fill="rgb(90, 108, 98)" opacity="1.001025" stroke="rgb(186, 79, 101)" stroke-opacity="1.0" stroke-linecap="round" stroke-linejoin="round" d="M 543.388671875 325.1308288574219 C 547.3452758789062 544.0161743164062 540.02099609375 551.331298828125 442.2342834472656 579.9823608398438 C 290.30010986328125 689.2425537109375 224.51473999023438 741.4955444335938 219.9526824951172 473.05401611328125 C 349.5793762207031 407.03228759765625 426.3674621582031 502.23126220703125 492.7271423339844 400.55767822265625 C 548.5068969726562 284.1605529785156 399.9349670410156 232.6940155029297 543.388671875 325.1308288574219"/>
    <path stroke-width="0" fill="rgb(70, 138, 59)" opacity="0.22985956" stroke="rgb(47, 240, 188)" stroke-opacity="1.0" stroke-linecap="round" stroke-linejoin="round" d="M 404.75360107421875 300.3821716308594 C 402.2645568847656 295.5977783203125 409.59222412109375 274.2761535644531 402.9616394042969 333.8773498535156 C 402.5276794433594 250.54171752929688 395.99432373046875 274.493408203125 404.5351867675781 289.69879150390625 C 401.3206481933594 280.404052734375 401.1573181152344 249.37203979492188 400.2515869140625 256.7461242675781 C 402.8497009277344 243.0015869140625 403.89715576171875 302.5986022949219 404.75360107421875 300.3821716308594"/>
    <path stroke-width="0" fill="rgb(91, 104, 87)" opacity="0.3015774" stroke="rgb(57, 64, 14)" stroke-opacity="1.0" stroke-linecap="round" stroke-linejoin="round" d="M 143.8635711669922 462.99200439453125 C 247.31483459472656 509.5732727050781 153.9576416015625 505.3697814941406 55.0530891418457 543.6082153320312 C 42.44731140136719 537.2024536132812 37.819068908691406 530.1972045898438 94.30155944824219 515.0090942382812 C -86.5782241821289 407.7937927246094 6.686773777008057 429.9988098144531 80.57755279541016 488.61248779296875 C 13.857624053955078 404.683349609375 31.142942428588867 448.3709716796875 143.8635711669922 462.99200439453125"/>
    <path stroke-width="0" fill="rgb(261, 23, -18)" opacity="1.0106286" stroke="rgb(79, 177, 96)" stroke-opacity="1.0" stroke-linecap="round" stroke-linejoin="round" d="M 166.04727172851562 150.6393280029297 C 183.50184631347656 151.0151824951172 167.1516876220703 147.96615600585938 164.00595092773438 155.82789611816406 C 166.38177490234375 151.6667022705078 178.91360473632812 150.18649291992188 165.70359802246094 152.0714874267578 C 181.21444702148438 147.62252807617188 204.60171508789062 156.78269958496094 191.78384399414062 139.5278778076172 C 125.5921859741211 131.6551971435547 140.3108673095703 179.35848999023438 166.04727172851562 150.6393280029297"/>
    <path stroke-width="0" fill="rgb(90, 99, 76)" opacity="0.90579313" stroke="rgb(6, 17, 173)" stroke-opacity="1.0" stroke-linecap="round" stroke-linejoin="round" d="M 15.428549766540527 433.5880126953125 C 28.461769104003906 445.6868896484375 35.15643310546875 439.68243408203125 -61.979312896728516 452.444091796875 C -25.437917709350586 456.98138427734375 -32.49625015258789 449.58746337890625 -45.607425689697266 424.2201843261719 C -70.3357162475586 352.32525634765625 -51.87038803100586 353.4193420410156 5.414917945861816 360.67218017578125 C 18.445039749145508 417.39190673828125 33.56930923461914 431.0210876464844 15.428549766540527 433.5880126953125"/>
    <path stroke-width="0" fill="rgb(140, 153, 149)" opacity="0.53749394" stroke="rgb(136, 228, 252)" stroke-opacity="1.0" stroke-linecap="round" stroke-linejoin="round" d="M 454.91357421875 231.71334838867188 C 412.1526184082031 323.5810546875 450.3577880859375 69.55783081054688 261.2041931152344 89.06334686279297 C 254.7800750732422 94.19083404541016 251.58531188964844 35.305965423583984 71.13917541503906 163.72288513183594 C 151.9394989013672 23.471721649169922 314.84307861328125 21.02227020263672 363.9664611816406 -7.419068813323975 C 271.1646423339844 38.36788558959961 427.9107971191406 27.531660079956055 454.91357421875 231.71334838867188"/>
    <path stroke-width="0" fill="rgb(122, 132, 127)" opacity="0.5215375" stroke="rgb(169, 67, 5)" stroke-opacity="1.0" stroke-linecap="round" stroke-linejoin="round" d="M 386.44677734375 451.6975402832031 C 264.3907165527344 556.942626953125 131.36135864257812 391.1563720703125 110.08584594726562 614.048583984375 C 87.05445098876953 561.8491821289062 110.97525787353516 535.2816162109375 91.00248718261719 533.476806640625 C 258.30487060546875 600.8720703125 204.216064453125 411.4150390625 127.7702407836914 457.1462707519531 C 186.90016174316406 418.6296691894531 219.9146728515625 384.1887512207031 386.44677734375 451.6975402832031"/>
    <path stroke-width="0" fill="rgb(98, 106, 98)" opacity="0.72473454" stroke="rgb(81, 97, 150)" stroke-opacity="1.0" stroke-linecap="round" stroke-linejoin="round" d="M 593.3870849609375 210.0668487548828 C 355.0753173828125 74.27336120605469 260.903076171875 -72.22938537597656 261.5732727050781 100.87372589111328 C 330.887939453125 112.60202026367188 304.8661193847656 114.35763549804688 259.2646789550781 99.64775848388672 C 303.7703552246094 0.5300772786140442 220.2394561767578 -56.59040069580078 421.250244140625 -34.6403694152832 C 427.3324890136719 -12.863465309143066 517.0296020507812 -20.70957374572754 593.3870849609375 210.0668487548828"/>
    <path stroke-width="0" fill="rgb(95, 97, 81)" opacity="0.707564" stroke="rgb(160, 222, 69)" stroke-opacity="1.0" stroke-linecap="round" stroke-linejoin="round" d="M 2.503833532333374 473.8477478027344 C 31.586275100708008 477.7702331542969 30.323833465576172 484.25299072265625 -22.918657302856445 478.1661682128906 C 10.457038879394531 452.3590087890625 -18.080373764038086 413.81536865234375 -30.1299991607666 414.26678466796875 C -29.795747756958008 421.0752258300781 -21.742794036865234 415.0025329589844 -13.843433380126953 410.4908142089844 C 31.444690704345703 426.44329833984375 23.4018611907959 463.06689453125 2.503833532333374 473.8477478027344"/>
    <path stroke-width="0" fill="rgb(177, 178, 159)" opacity="0.8366093" stroke="rgb(47, 242, 175)" stroke-opacity="1.0" stroke-linecap="round" stroke-linejoin="round" d="M 334.7452697753906 247.33876037597656 C 332.21142578125 220.61141967773438 322.7350769042969 296.833740234375 347.795166015625 260.2303466796875 C 342.4316711425781 220.59805297851562 362.6878356933594 241.66188049316406 348.4172668457031 208.34695434570312 C 378.0647277832031 224.25021362304688 385.586669921875 243.36386108398438 351.8044128417969 230.73045349121094 C 343.05181884765625 254.25592041015625 347.4445495605469 194.56570434570312 334.7452697753906 247.33876037597656"/>
    <path stroke-width="0" fill="rgb(20, 16, -23)" opacity="0.75543284" stroke="rgb(241, 186, 64)" stroke-opacity="1.0" stroke-linecap="round" stroke-linejoin="round" d="M 534.1966552734375 348.4326477050781 C 403.98162841796875 386.36688232421875 434.4019470214844 293.91546630859375 440.7649841308594 365.46282958984375 C 388.3423767089844 333.5028076171875 424.8322448730469 342.7499694824219 411.24853515625 338.5135192871094 C 528.2183227539062 187.98390197753906 384.6441650390625 333.67333984375 410.7102966308594 400.11273193359375 C 396.1196594238281 314.102294921875 462.1695861816406 383.4331970214844 534.1966552734375 348.4326477050781"/>
    <path stroke-width="0" fill="rgb(160, 172, 163)" opacity="0.7479871" stroke="rgb(132, 6, 52)" stroke-opacity="1.0" stroke-linecap="round" stroke-linejoin="round" d="M 341.26092529296875 115.04619598388672 C 365.00750732421875 158.4102783203125 436.7510986328125 175.15159606933594 301.8761291503906 157.44351196289062 C 138.45603942871094 138.75555419921875 216.9427490234375 214.68165588378906 192.3361053466797 121.77074432373047 C 279.287109375 125.38278198242188 320.20794677734375 50.53398513793945 128.55943298339844 128.64317321777344 C 258.13287353515625 76.63787841796875 271.36016845703125 103.50371551513672 341.26092529296875 115.04619598388672"/>
    <path stroke-width="0" fill="rgb(5, 27, -25)" opacity="0.5516562" stroke="rgb(95, 118, 70)" stroke-opacity="1.0" stroke-linecap="round" stroke-linejoin="round" d="M 413.5964050292969 254.09072875976562 C 408.7910461425781 254.62469482421875 398.1839599609375 227.16598510742188 402.67132568359375 293.17510986328125 C 405.2296447753906 220.50848388671875 396.11627197265625 255.1694793701172 401.0737609863281 248.17666625976562 C 406.39117431640625 256.3944396972656 407.3196716308594 250.9458770751953 401.0993957519531 252.8363494873047 C 398.2281799316406 254.84950256347656 405.6502685546875 244.59300231933594 413.5964050292969 254.09072875976562"/>
    <path stroke-width="0" fill="rgb(30, 86, 14)" opacity="0.7973978" stroke="rgb(182, 100, 144)" stroke-opacity="1.0" stroke-linecap="round" stroke-linejoin="round" d="M 101.8211441040039 446.10833740234375 C 102.73265075683594 363.2005920410156 98.17442321777344 423.297607421875 101.41179656982422 444.720703125 C 100.68102264404297 449.51702880859375 108.23192596435547 442.96826171875 101.76921844482422 448.64874267578125 C 101.5245361328125 450.3634338378906 104.5692367553711 441.4280700683594 99.1864013671875 444.4716491699219 C 103.9352798461914 450.75726318359375 97.6329345703125 446.0345764160156 101.8211441040039 446.10833740234375"/>
    <path stroke-width="0" fill="rgb(172, 181, 194)" opacity="0.94744295" stroke="rgb(140, 149, 245)" stroke-opacity="1.0" stroke-linecap="round" stroke-linejoin="round" d="M 377.23260498046875 368.91363525390625 C 330.8365173339844 380.3905944824219 359.2923889160156 380.9355163574219 353.3309020996094 378.3092956542969 C 337.0701599121094 384.944091796875 298.9286804199219 359.29534912109375 319.74932861328125 386.76739501953125 C 349.16766357421875 383.00982666015625 326.0859375 379.51287841796875 347.6427917480469 369.1202697753906 C 374.0653991699219 375.6609191894531 334.7710876464844 366.28271484375 377.23260498046875 368.91363525390625"/>
    <path stroke-width="0" fill="rgb(262, 252, 239)" opacity="0.8566191" stroke="rgb(61, 25, 4)" stroke-opacity="1.0" stroke-linecap="round" stroke-linejoin="round" d="M 434.8778076171875 337.0260009765625 C 424.43316650390625 336.2122802734375 443.3232116699219 347.9730529785156 445.4657897949219 379.57550048828125 C 431.87933349609375 389.2481384277344 403.9745788574219 377.8385314941406 436.3113708496094 402.4855041503906 C 380.57647705078125 332.2815856933594 456.8905029296875 366.47869873046875 461.6772155761719 343.7188720703125 C 452.3641357421875 366.42828369140625 432.90521240234375 336.7373046875 434.8778076171875 337.0260009765625"/>
    <path stroke-width="0" fill="rgb(270, 266, 254)" opacity="0.552563" stroke="rgb(170, 200, 71)" stroke-opacity="1.0" stroke-linecap="round" stroke-linejoin="round" d="M 349.3514709472656 289.5783996582031 C 363.35760498046875 270.9080810546875 350.4599914550781 279.059326171875 334.8186950683594 336.7340393066406 C 331.109130859375 312.73809814453125 318.29736328125 313.31646728515625 353.729736328125 278.34844970703125 C 353.4529724121094 282.148681640625 343.96185302734375 249.09075927734375 330.95654296875 278.1415100097656 C 341.7229309082031 252.06068420410156 357.201416015625 273.9524841308594 349.3514709472656 289.5783996582031"/>
    <path stroke-width="0" fill="rgb(163, 170, 147)" opacity="0.16154161" stroke="rgb(16, 123, 249)" stroke-opacity="1.0" stroke-linecap="round" stroke-linejoin="round" d="M 336.4064025878906 322.03057861328125 C 358.6162414550781 352.3221435546875 371.73455810546875 333.2335510253906 309.5585632324219 341.93719482421875 C 395.423583984375 346.36053466796875 340.2413024902344 341.26971435546875 340.0190734863281 323.6780090332031 C 333.5651550292969 339.6601257324219 318.829833984375 329.88079833984375 305.7073059082031 306.13116455078125 C 327.6429443359375 347.29736328125 344.4839172363281 328.1256408691406 336.4064025878906 322.03057861328125"/>
    <path stroke-width="0" fill="rgb(266, 256, 252)" opacity="0.877249" stroke="rgb(86, 245, 59)" stroke-opacity="1.0" stroke-linecap="round" stroke-linejoin="round" d="M 13.731599807739258 360.1534118652344 C 22.272071838378906 236.7630157470703 78.30174255371094 332.9890441894531 33.19520568847656 339.44915771484375 C -3.458397388458252 331.77471923828125 37.59407424926758 333.63800048828125 26.319664001464844 333.55975341796875 C 27.779645919799805 327.0565185546875 38.92721176147461 313.1639709472656 66.6776351928711 306.5365295410156 C 44.211673736572266 313.8723449707031 32.164146423339844 313.13372802734375 13.731599807739258 360.1534118652344"/>
    <path stroke-width="0" fill="rgb(52, 67, 63)" opacity="0.68923247" stroke="rgb(126, 163, 93)" stroke-opacity="1.0" stroke-linecap="round" stroke-linejoin="round" d="M 357.2480773925781 341.1361999511719 C 352.22314453125 340.8300476074219 376.36383056640625 377.4501953125 316.4798278808594 367.6742858886719 C 320.0387878417969 364.92803955078125 303.0809631347656 369.203369140625 350.5805969238281 367.3316650390625 C 363.242431640625 355.4128723144531 361.8754577636719 337.3000793457031 321.4256896972656 342.5006408691406 C 323.55316162109375 329.3145446777344 312.1424865722656 347.2541809082031 357.2480773925781 341.1361999511719"/>
    <path stroke-width="0" fill="rgb(100, 109, 78)" opacity="0.76069105" stroke="rgb(231, 197, 84)" stroke-opacity="1.0" stroke-linecap="round" stroke-linejoin="round" d="M 103.51427459716797 -10.201416015625 C 65.36598205566406 23.22606658935547 -3.002953290939331 79.62091064453125 3.9901821613311768 118.0676498413086 C -60.83641052246094 75.15943908691406 -38.87413787841797 43.4222412109375 -21.26165771484375 2.9526588916778564 C -17.32050895690918 -10.0 -10.0 -17.32050895690918 7.241615295410156 -24.014564514160156 C 31.09577178955078 -33.32636642456055 38.93543243408203 -15.198221206665039 103.51427459716797 -10.201416015625"/>
    <path stroke-width="0" fill="rgb(173, 183, 172)" opacity="0.7068555" stroke="rgb(103, 59, 33)" stroke-opacity="1.0" stroke-linecap="round" stroke-linejoin="round" d="M 202.94334411621094 181.93873596191406 C 222.90174865722656 170.50570678710938 212.90139770507812 175.42958068847656 206.58558654785156 183.0122528076172 C 250.32920837402344 124.9141845703125 254.02316284179688 152.91485595703125 214.6851043701172 186.1659393310547 C 219.74111938476562 182.52662658691406 226.68763732910156 173.1083221435547 229.32656860351562 175.01364135742188 C 225.2019500732422 135.547607421875 203.6007843017578 159.40756225585938 202.94334411621094 181.93873596191406"/>
    <path stroke-width="0" fill="rgb(258, 256, 252)" opacity="0.8839197" stroke="rgb(20, 22, 171)" stroke-opacity="1.0" stroke-linecap="round" stroke-linejoin="round" d="M 74.44276428222656 336.0933837890625 C 60.53995132446289 326.32989501953125 52.37129592895508 331.0519104003906 71.74491882324219 332.4659729003906 C 97.96910858154297 334.9067687988281 40.39820861816406 356.2867736816406 22.996028900146484 327.64697265625 C -13.689894676208496 438.33978271484375 87.90129089355469 350.0361328125 101.33609008789062 347.9436340332031 C 99.00650024414062 315.57513427734375 90.33060455322266 360.0757141113281 74.44276428222656 336.0933837890625"/>
    <path stroke-width="0" fill="rgb(245, 255, 246)" opacity="0.15078364" stroke="rgb(107, 142, 219)" stroke-opacity="1.0" stroke-linecap="round" stroke-linejoin="round" d="M 102.08100891113281 312.22174072265625 C 130.39532470703125 313.7352294921875 112.81749725341797 333.7226867675781 93.62539672851562 356.27685546875 C 5.8266167640686035 407.2701721191406 1.5287543535232544 252.45907592773438 93.62210083007812 271.6023864746094 C 140.96189880371094 317.619140625 49.61051559448242 337.6586608886719 113.94583892822266 305.8810729980469 C 134.28712463378906 282.996826171875 130.23501586914062 290.8974304199219 102.08100891113281 312.22174072265625"/>
    <path stroke-width="0" fill="rgb(-4, 10, 9)" opacity="0.7222098" stroke="rgb(14, 177, 198)" stroke-opacity="1.0" stroke-linecap="round" stroke-linejoin="round" d="M 25.813711166381836 297.1461486816406 C 24.692277908325195 286.32513427734375 55.05880355834961 317.4050598144531 105.69599914550781 351.7173156738281 C 61.16593551635742 313.4309997558594 17.158388137817383 290.2818603515625 25.316364288330078 277.4004821777344 C 21.047502517700195 288.8407897949219 32.12592315673828 270.216064453125 24.679738998413086 313.8442077636719 C 12.393017768859863 291.7196044921875 40.9285774230957 291.60205078125 25.813711166381836 297.1461486816406"/>
    <path stroke-width="0" fill="rgb(154, 166, 163)" opacity="0.7193729" stroke="rgb(66, 95, 149)" stroke-opacity="1.0" stroke-linecap="round" stroke-linejoin="round" d="M 343.72509765625 132.82180786132812 C 329.31060791015625 133.59027099609375 319.1101379394531 134.03736877441406 316.9383544921875 136.68148803710938 C 380.2835388183594 128.03265380859375 368.4000244140625 134.50265502929688 355.7036437988281 116.21871185302734 C 300.2341613769531 133.47677612304688 278.8854675292969 94.63298034667969 321.9714050292969 103.67439270019531 C 356.4779968261719 149.86705017089844 369.2290954589844 161.33013916015625 343.72509765625 132.82180786132812"/>
    <path stroke-width="0" fill="rgb(0, -1, 34)" opacity="0.8324034" stroke="rgb(203, 19, 132)" stroke-opacity="1.0" stroke-linecap="round" stroke-linejoin="round" d="M 433.1861267089844 361.17584228515625 C 523.1817016601562 409.115478515625 516.6187133789062 407.4893798828125 436.3186950683594 364.9007263183594 C 399.314453125 339.8150329589844 492.646240234375 361.77606201171875 424.54400634765625 353.3723449707031 C 429.95245361328125 369.57598876953125 447.91949462890625 361.8017883300781 400.60498046875 344.5163879394531 C 378.39691162109375 360.6604919433594 418.5731201171875 349.0271301269531 433.1861267089844 361.17584228515625"/>
    <path stroke-width="0" fill="rgb(172, 167, 178)" opacity="0.5603394" stroke="rgb(109, 130, 136)" stroke-opacity="1.0" stroke-linecap="round" stroke-linejoin="round" d="M 331.0962219238281 131.060546875 C 320.0660705566406 159.0946502685547 303.6384582519531 162.9923095703125 300.1549072265625 166.78274536132812 C 345.0203857421875 181.22784423828125 312.0412292480469 168.9422607421875 318.9313049316406 198.12086486816406 C 312.9484558105469 187.17205810546875 324.0284118652344 172.33145141601562 298.9808044433594 157.39076232910156 C 296.31414794921875 151.10092163085938 322.8832092285156 159.20933532714844 331.0962219238281 131.060546875"/>
    <path stroke-width="0" fill="rgb(13, 4, -17)" opacity="0.6465996" stroke="rgb(70, 32, 100)" stroke-opacity="1.0" stroke-linecap="round" stroke-linejoin="round" d="M 196.3844451904297 404.3177490234375 C 100.2799301147461 345.3538818359375 47.84206771850586 336.8300476074219 131.4296417236328 350.0103759765625 C 121.66703796386719 325.315673828125 126.30277252197266 336.6567077636719 131.81825256347656 351.12109375 C 89.81501770019531 349.565673828125 119.39083099365234 365.3654479980469 161.7860870361328 452.3760070800781 C 79.7335433959961 309.9851379394531 101.9416275024414 360.2957458496094 196.3844451904297 404.3177490234375"/>
    <path stroke-width="0" fill="rgb(174, 184, 170)" opacity="0.87940437" stroke="rgb(224, 116, 184)" stroke-opacity="1.0" stroke-linecap="round" stroke-linejoin="round" d="M 199.13494873046875 181.06805419921875 C 171.5025177001953 171.71690368652344 166.0379638671875 181.4997100830078 179.92034912109375 190.69422912597656 C 204.9857635498047 160.802001953125 199.8842010498047 164.4729461669922 188.75267028808594 165.99769592285156 C 174.32359313964844 188.42031860351562 196.02455139160156 178.19020080566406 214.1376953125 185.78445434570312 C 193.5514373779297 177.00457763671875 168.6656951904297 221.58631896972656 199.13494873046875 181.06805419921875"/>
    <path stroke-width="0" fill="rgb(27, 59, 22)" opacity="0.5568194" stroke="rgb(192, 162, 61)" stroke-opacity="1.0" stroke-linecap="round" stroke-linejoin="round" d="M 4.202578544616699 331.3123779296875 C 79.35519409179688 348.4491882324219 53.27672576904297 330.8343811035156 50.584041595458984 302.0435485839844 C 50.95020294189453 312.9830627441406 54.02256393432617 303.2320861816406 52.72175979614258 304.36395263671875 C 54.66886901855469 306.67340087890625 43.25066375732422 310.362548828125 54.02701187133789 315.7626647949219 C 55.80123519897461 329.11639404296875 70.74943542480469 350.4623107910156 4.202578544616699 331.3123779296875"/>
    <path stroke-width="0" fill="rgb(3, 8, 5)" opacity="0.5424392" stroke="rgb(90, 90, 4)" stroke-opacity="1.0" stroke-linecap="round" stroke-linejoin="round" d="M 161.90191650390625 161.16714477539062 C 158.84780883789062 161.32431030273438 164.5949249267578 161.9803466796875 182.57752990722656 156.94009399414062 C 160.39317321777344 162.58070373535156 160.99227905273438 155.1035919189453 156.5614776611328 205.1699981689453 C 157.75416564941406 169.05528259277344 166.36456298828125 162.7172393798828 167.43576049804688 158.7449188232422 C 157.85311889648438 163.94900512695312 183.3160400390625 144.29306030273438 161.90191650390625 161.16714477539062"/>
    <path stroke-width="0" fill="rgb(170, 162, 172)" opacity="0.38143492" stroke="rgb(248, 252, 104)" stroke-opacity="1.0" stroke-linecap="round" stroke-linejoin="round" d="M 104.58242797851562 236.1856689453125 C 106.70366668701172 217.7328643798828 103.74101257324219 241.6225128173828 125.1790771484375 246.72421264648438 C 131.3323211669922 206.06040954589844 115.56502532958984 218.35366821289062 122.1657943725586 242.39739990234375 C 110.32496643066406 234.8861846923828 129.5024871826172 149.7360076904297 114.38663482666016 189.28500366210938 C 120.60501098632812 208.71295166015625 130.01251220703125 242.16819763183594 104.58242797851562 236.1856689453125"/>
    <path stroke-width="0" fill="rgb(9, 14, -13)" opacity="0.6814069" stroke="rgb(162, 125, 252)" stroke-opacity="1.0" stroke-linecap="round" stroke-linejoin="round" d="M 468.306640625 355.3125 C 369.7613525390625 357.85894775390625 408.3299560546875 332.33917236328125 411.39520263671875 369.7551574707031 C 422.4922790527344 324.72296142578125 421.3630676269531 346.7709655761719 350.2748718261719 446.4749755859375 C 414.8908996582031 343.0005187988281 421.82708740234375 355.62908935546875 365.9570007324219 372.5301818847656 C 363.6325988769531 379.4510803222656 376.7638244628906 345.4682922363281 468.306640625 355.3125"/>
    <path stroke-width="0" fill="rgb(152, 196, 141)" opacity="0.3307468" stroke="rgb(91, 211, 235)" stroke-opacity="1.0" stroke-linecap="round" stroke-linejoin="round" d="M 359.0043029785156 323.90155029296875 C 352.12274169921875 317.3688659667969 364.9051513671875 320.99212646484375 354.4237060546875 376.99957275390625 C 347.9430847167969 375.243896484375 362.11505126953125 377.2144470214844 358.7495422363281 323.5226745605469 C 359.7399597167969 319.65472412109375 357.9809265136719 316.9097900390625 376.1959228515625 335.4618835449219 C 352.77984619140625 319.77874755859375 350.3026428222656 320.123291015625 359.0043029785156 323.90155029296875"/>
    <path stroke-width="0" fill="rgb(58, 30, 9)" opacity="0.9546257" stroke="rgb(59, 88, 207)" stroke-opacity="1.0" stroke-linecap="round" stroke-linejoin="round" d="M 438.1842956542969 338.6957702636719 C 486.37518310546875 318.0411071777344 455.5966491699219 326.3263854980469 462.8874206542969 323.6744689941406 C 465.9347839355469 327.5204772949219 465.28521728515625 321.4799499511719 474.80609130859375 317.7599182128906 C 465.3479309082031 325.6287536621094 472.4164733886719 313.9640197753906 480.4171447753906 318.907958984375 C 430.85736083984375 335.2095642089844 401.9798278808594 361.7225036621094 438.1842956542969 338.6957702636719"/>
    <path stroke-width="0" fill="rgb(242, 248, 245)" opacity="0.18219309" stroke="rgb(63, 27, 242)" stroke-opacity="1.0" stroke-linecap="round" stroke-linejoin="round" d="M 107.17569732666016 401.54852294921875 C 43.84568786621094 429.7894592285156 56.362247467041016 444.6766662597656 21.480731964111328 387.9438781738281 C 116.07537078857422 413.5998229980469 93.04277038574219 409.06243896484375 53.46000289916992 405.6488952636719 C 78.68048858642578 449.185546875 111.64839172363281 463.4067687988281 93.06898498535156 410.8603210449219 C 82.72842407226562 404.18798828125 77.5876235961914 403.97027587890625 107.17569732666016 401.54852294921875"/>
    <path stroke-width="0" fill="rgb(131, 143, 127)" opacity="0.69813764" stroke="rgb(175, 14, 186)" stroke-opacity="1.0" stroke-linecap="round" stroke-linejoin="round" d="M 63.071292877197266 246.40402221679688 C 65.38359069824219 248.68418884277344 58.413272857666016 266.11944580078125 39.2973747253418 241.0952911376953 C 80.75840759277344 249.29660034179688 75.62733459472656 238.5775604248047 59.438720703125 236.1351318359375 C 59.551414489746094 232.52484130859375 52.708370208740234 115.45352172851562 40.31714630126953 245.53073120117188 C 127.00753021240234 211.2073974609375 150.23056030273438 257.9176025390625 63.071292877197266 246.40402221679688"/>
    <path stroke-width="0" fill="rgb(139, 134, 138)" opacity="0.7065798" stroke="rgb(213, 60, 128)" stroke-opacity="1.0" stroke-linecap="round" stroke-linejoin="round" d="M 60.92960739135742 249.34178161621094 C 88.27909851074219 258.3634338378906 84.56562805175781 248.0531005859375 46.37371826171875 241.2529296875 C 38.47481155395508 243.72161865234375 77.55589294433594 238.38909912109375 122.29937744140625 228.16468811035156 C 74.45127868652344 235.45681762695312 67.52542877197266 245.0757293701172 55.12673568725586 246.43121337890625 C 95.68022918701172 244.34646606445312 107.41725158691406 244.31082153320312 60.92960739135742 249.34178161621094"/>
    <path stroke-width="0" fill="rgb(0, 8, 16)" opacity="0.79443675" stroke="rgb(246, 139, 70)" stroke-opacity="1.0" stroke-linecap="round" stroke-linejoin="round" d="M 336.8444519042969 206.148193359375 C 310.4891662597656 216.11778259277344 320.7401123046875 210.7869873046875 311.3140869140625 216.31202697753906 C 357.6132507324219 218.90298461914062 335.9837646484375 198.501220703125 328.544677734375 235.75405883789062 C 334.2054443359375 232.49899291992188 342.57952880859375 210.699951171875 335.1827087402344 221.226318359375 C 333.7892761230469 220.75868225097656 346.6209411621094 233.8944091796875 336.8444519042969 206.148193359375"/>
    <path stroke-width="0" fill="rgb(156, 169, 166)" opacity="0.7761058" stroke="rgb(228, 103, 140)" stroke-opacity="1.0" stroke-linecap="round" stroke-linejoin="round" d="M 405.2442321777344 219.46450805664062 C 401.3323669433594 244.17881774902344 388.5319519042969 247.78648376464844 428.5641784667969 249.2120819091797 C 454.95953369140625 237.8363037109375 394.8638610839844 220.68377685546875 392.0959167480469 240.04295349121094 C 396.82208251953125 235.04161071777344 397.39404296875 254.64540100097656 401.48822021484375 241.2938690185547 C 397.0691223144531 246.91558837890625 406.8843078613281 242.09080505371094 405.2442321777344 219.46450805664062"/>
    <path stroke-width="0" fill="rgb(159, 165, 170)" opacity="0.60804784" stroke="rgb(64, 113, 26)" stroke-opacity="1.0" stroke-linecap="round" stroke-linejoin="round" d="M 135.63160705566406 234.804443359375 C 109.96832275390625 224.59356689453125 112.52377319335938 223.4760284423828 120.94387817382812 230.94046020507812 C 143.01840209960938 246.00592041015625 101.17787170410156 246.69915771484375 69.51748657226562 238.63470458984375 C 146.7643280029297 225.327880859375 69.43424224853516 208.45565795898438 119.4828109741211 236.53868103027344 C 107.25688934326172 249.02615356445312 146.23965454101562 253.48313903808594 135.63160705566406 234.804443359375"/>
    <path stroke-width="0" fill="rgb(161, 138, 146)" opacity="0.5242969" stroke="rgb(0, 0, 0)" stroke-opacity="0.0" stroke-linecap="round" stroke-linejoin="round" d="M 326.3941650390625 0.21406088769435883 C 328.1380310058594 4.863812446594238 325.27056884765625 5.130850315093994 319.47100830078125 5.205958366394043 C 321.0107116699219 7.057104587554932 318.86553955078125 6.4566521644592285 318.9981689453125 1.0798914432525635 C 318.6327819824219 -2.6695969104766846 321.01092529296875 -4.487884998321533 324.9375 -4.843067169189453 C 328.80255126953125 -4.695753574371338 329.9115905761719 -3.3708646297454834 326.3941650390625 0.21406088769435883"/>
    <path stroke-width="0" fill="rgb(100, 110, 71)" opacity="0.2783986" stroke="rgb(0, 0, 0)" stroke-opacity="0.0" stroke-linecap="round" stroke-linejoin="round" d="M 516.4559936523438 22.3212890625 C 516.300537109375 27.86853790283203 514.0968017578125 31.644969940185547 507.2208557128906 31.125185012817383 C 504.7035827636719 29.18901824951172 506.4612121582031 22.0866756439209 504.76666259765625 18.410221099853516 C 503.5232238769531 20.58367919921875 505.4677734375 15.87802791595459 507.91162109375 13.41699504852295 C 511.94342041015625 13.932756423950195 515.0901489257812 17.626174926757812 516.4559936523438 22.3212890625"/>
    <path stroke-width="0" fill="rgb(150, 75, 77)" opacity="0.5955002" stroke="rgb(0, 0, 0)" stroke-opacity="0.0" stroke-linecap="round" stroke-linejoin="round" d="M 28.03302764892578 4.845995903015137 C 27.153589248657227 8.896492004394531 26.368751525878906 13.711156845092773 23.66221809387207 11.642987251281738 C 17.268566131591797 12.918928146362305 16.12120246887207 12.402602195739746 18.655736923217773 6.222654819488525 C 16.661338806152344 -1.4346582889556885 17.208627700805664 -3.4359378814697266 21.163145065307617 -2.3382656574249268 C 26.86343765258789 -0.1527273803949356 28.975584030151367 3.033365249633789 28.03302764892578 4.845995903015137"/>
    <path stroke-width="0" fill="rgb(80, 84, 186)" opacity="0.29952398" stroke="rgb(0, 0, 0)" stroke-opacity="0.0" stroke-linecap="round" stroke-linejoin="round" d="M 516.63134765625 12.79858684539795 C 515.274658203125 17.90764808654785 513.5349731445312 19.15986442565918 511.29595947265625 16.47378158569336 C 504.1776123046875 16.457061767578125 500.980224609375 15.272855758666992 503.90625 10.602752685546875 C 498.92529296875 5.863443374633789 500.18841552734375 6.9587626457214355 507.0525207519531 8.155491828918457 C 512.7501220703125 6.325230598449707 514.9579467773438 7.453202247619629 516.63134765625 12.79858684539795"/>
    <path stroke-width="0" fill="rgb(160, 87, 135)" opacity="0.55515975" stroke="rgb(0, 0, 0)" stroke-opacity="0.0" stroke-linecap="round" stroke-linejoin="round" d="M 100.66382598876953 -3.338062286376953 C 97.52677917480469 -0.8538905382156372 95.75813293457031 3.1590867042541504 96.1441421508789 4.6958842277526855 C 97.47757720947266 2.775024175643921 94.56766510009766 -0.007658378686755896 91.65155792236328 -2.2649030685424805 C 89.95406341552734 -2.899209499359131 92.71546173095703 -5.8937578201293945 96.7063217163086 -6.96558141708374 C 100.74166107177734 -5.906624794006348 103.8768310546875 -3.0837278366088867 100.66382598876953 -3.338062286376953"/>
    <path stroke-width="0" fill="rgb(155, 61, 85)" opacity="0.64907414" stroke="rgb(0, 0, 0)" stroke-opacity="0.0" stroke-linecap="round" stroke-linejoin="round" d="M 53.615272521972656 7.316074371337891 C 49.180030822753906 9.050875663757324 47.582489013671875 13.08718204498291 50.27003860473633 15.093734741210938 C 49.45892333984375 12.790902137756348 45.94774627685547 10.86992359161377 44.003047943115234 9.00936222076416 C 42.588706970214844 7.21359920501709 45.12171173095703 4.405366897583008 47.93551254272461 5.1351118087768555 C 51.874961853027344 5.979764938354492 55.717308044433594 7.789651393890381 53.615272521972656 7.316074371337891"/>
    <path stroke-width="0" fill="rgb(178, 200, 168)" opacity="0.60847753" stroke="rgb(0, 0, 0)" stroke-opacity="0.0" stroke-linecap="round" stroke-linejoin="round" d="M 167.43408203125 13.250458717346191 C 167.95484924316406 15.032024383544922 162.80575561523438 16.851469039916992 160.18280029296875 16.66934585571289 C 155.86520385742188 16.090837478637695 151.71029663085938 16.37261199951172 153.87115478515625 13.283072471618652 C 154.16427612304688 9.335826873779297 157.94708251953125 7.455323696136475 162.00425720214844 5.789835453033447 C 163.88296508789062 4.763140678405762 165.66583251953125 8.453401565551758 167.43408203125 13.250458717346191"/>
    <path stroke-width="0" fill="rgb(40, 157, 159)" opacity="0.37583008" stroke="rgb(0, 0, 0)" stroke-opacity="0.0" stroke-linecap="round" stroke-linejoin="round" d="M 424.39593505859375 18.045257568359375 C 424.13671875 22.890884399414062 421.922119140625 25.95334243774414 418.9725646972656 23.969200134277344 C 414.6353454589844 24.166528701782227 410.3634338378906 22.55828285217285 412.4037170410156 21.480186462402344 C 413.9466552734375 15.575087547302246 414.75506591796875 9.820202827453613 417.40118408203125 11.478158950805664 C 423.9488525390625 10.791205406188965 425.9156799316406 13.150291442871094 424.39593505859375 18.045257568359375"/>
    <path stroke-width="0" fill="rgb(107, 122, 122)" opacity="0.27136067" stroke="rgb(0, 0, 0)" stroke-opacity="0.0" stroke-linecap="round" stroke-linejoin="round" d="M 56.13187789916992 3.7924931049346924 C 55.18588638305664 6.938356876373291 52.159847259521484 10.583284378051758 46.56193542480469 12.69422435760498 C 43.21760559082031 8.192138671875 40.3520622253418 4.921580791473389 39.6225471496582 0.8795318007469177 C 39.237422943115234 -2.8045811653137207 42.35356521606445 -5.44761323928833 46.528053283691406 -6.484192848205566 C 50.755714416503906 -5.58772087097168 53.454261779785156 -2.6333906650543213 56.13187789916992 3.7924931049346924"/>
    <path stroke-width="0" fill="rgb(162, 73, 50)" opacity="0.64621633" stroke="rgb(0, 0, 0)" stroke-opacity="0.0" stroke-linecap="round" stroke-linejoin="round" d="M 53.77311706542969 15.444604873657227 C 54.58897399902344 15.339680671691895 50.61345672607422 16.96430778503418 47.293113708496094 19.339494705200195 C 47.66432189941406 22.11223030090332 46.22712326049805 17.763944625854492 45.499515533447266 12.468469619750977 C 43.33501052856445 10.118064880371094 46.512386322021484 8.555130958557129 49.69450759887695 8.97001838684082 C 52.35771179199219 9.437625885009766 53.323726654052734 13.88565444946289 53.77311706542969 15.444604873657227"/>
    <path stroke-width="0" fill="rgb(175, 182, 170)" opacity="0.29312092" stroke="rgb(0, 0, 0)" stroke-opacity="0.0" stroke-linecap="round" stroke-linejoin="round" d="M 390.2513427734375 444.84130859375 C 389.3160705566406 448.0794677734375 387.0014953613281 451.45513916015625 382.26800537109375 453.351318359375 C 377.94989013671875 453.4248352050781 375.77069091796875 449.66845703125 375.1576843261719 443.48046875 C 374.76568603515625 440.27685546875 380.18218994140625 439.3729248046875 383.87847900390625 437.721435546875 C 384.6421203613281 439.9306640625 387.7555847167969 442.952392578125 390.2513427734375 444.84130859375"/>
    <path stroke-width="0" fill="rgb(209, 173, 66)" opacity="0.17709866" stroke="rgb(0, 0, 0)" stroke-opacity="0.0" stroke-linecap="round" stroke-linejoin="round" d="M 298.7021484375 374.4291687011719 C 299.838134765625 377.5978088378906 295.9993591308594 379.4900817871094 291.58905029296875 380.08660888671875 C 287.145263671875 379.4607849121094 284.03509521484375 376.62017822265625 284.5309753417969 372.5524597167969 C 284.4720153808594 368.3480529785156 287.4253234863281 366.0997619628906 291.46185302734375 365.8034973144531 C 294.9627990722656 365.89666748046875 297.31787109375 368.82269287109375 298.7021484375 374.4291687011719"/>
    <path stroke-width="0" fill="rgb(85, 125, 147)" opacity="0.7206749" stroke="rgb(0, 0, 0)" stroke-opacity="0.0" stroke-linecap="round" stroke-linejoin="round" d="M 462.27667236328125 239.15185546875 C 464.9406433105469 241.30918884277344 461.323974609375 241.51756286621094 455.013671875 243.10226440429688 C 452.71234130859375 244.4940948486328 451.20489501953125 240.28823852539062 450.56005859375 235.72830200195312 C 453.7691650390625 234.91603088378906 456.3314208984375 231.51467895507812 457.91009521484375 228.5933074951172 C 460.16180419921875 230.37411499023438 462.4236755371094 233.6208953857422 462.27667236328125 239.15185546875"/>
    <path stroke-width="0" fill="rgb(108, 57, 175)" opacity="0.38876197" stroke="rgb(0, 0, 0)" stroke-opacity="0.0" stroke-linecap="round" stroke-linejoin="round" d="M 355.91259765625 133.1086883544922 C 356.7793884277344 135.20887756347656 352.28143310546875 136.404541015625 349.0289001464844 136.59506225585938 C 345.6760559082031 136.65675354003906 342.6754150390625 135.48316955566406 342.2353515625 131.4309844970703 C 342.7232971191406 128.42347717285156 346.9401550292969 126.2635498046875 349.6007385253906 123.88838195800781 C 351.5411682128906 126.64120483398438 354.7690124511719 129.29827880859375 355.91259765625 133.1086883544922"/>
    <path stroke-width="0" fill="rgb(141, 159, 212)" opacity="0.3770343" stroke="rgb(0, 0, 0)" stroke-opacity="0.0" stroke-linecap="round" stroke-linejoin="round" d="M 420.95452880859375 253.22796630859375 C 422.0323791503906 257.7495422363281 417.9656066894531 259.5530090332031 413.8642578125 260.8769226074219 C 410.5728759765625 260.6925354003906 408.09014892578125 257.5086669921875 408.6120300292969 253.5528564453125 C 407.741943359375 249.0192108154297 409.64202880859375 245.95355224609375 413.4717712402344 245.81967163085938 C 418.9251708984375 247.00515747070312 421.8506164550781 248.8297576904297 420.95452880859375 253.22796630859375"/>
    <path stroke-width="0" fill="rgb(87, 32, 192)" opacity="0.420494" stroke="rgb(0, 0, 0)" stroke-opacity="0.0" stroke-linecap="round" stroke-linejoin="round" d="M 285.491455078125 313.5518493652344 C 285.573974609375 318.1968688964844 283.02984619140625 321.5107116699219 277.5919494628906 322.59912109375 C 273.4043273925781 319.94488525390625 269.9376525878906 316.86029052734375 269.5350036621094 313.6130065917969 C 271.08245849609375 309.677001953125 274.2779846191406 306.4381408691406 277.9817810058594 305.44482421875 C 281.5779113769531 305.5867614746094 284.3095397949219 308.7611999511719 285.491455078125 313.5518493652344"/>
    <path stroke-width="0" fill="rgb(253, 159, 213)" opacity="0.26904455" stroke="rgb(0, 0, 0)" stroke-opacity="0.0" stroke-linecap="round" stroke-linejoin="round" d="M 157.5474853515625 -65.91089630126953 C 156.47569274902344 -61.9109001159668 153.5474853515625 -58.982696533203125 149.5474853515625 -57.9109001159668 C 145.5474853515625 -58.982696533203125 142.61927795410156 -61.9109001159668 141.5474853515625 -65.91089630126953 C 142.61927795410156 -69.91089630126953 145.5474853515625 -72.83910369873047 149.5474853515625 -73.91089630126953 C 153.5474853515625 -72.83910369873047 156.47569274902344 -69.91089630126953 157.5474853515625 -65.91089630126953"/>
    <path stroke-width="0" fill="rgb(39, 180, 143)" opacity="0.50803894" stroke="rgb(0, 0, 0)" stroke-opacity="0.0" stroke-linecap="round" stroke-linejoin="round" d="M 50.030399322509766 290.2139892578125 C 48.886966705322266 294.2927551269531 47.324668884277344 298.2000427246094 45.09089279174805 299.0431823730469 C 39.73277282714844 300.2749328613281 35.707096099853516 299.72491455078125 36.52757263183594 295.1726379394531 C 37.817771911621094 288.2597961425781 40.6950569152832 286.101318359375 44.44303894042969 285.337158203125 C 47.214637756347656 288.4701843261719 49.61865234375 292.1376037597656 50.030399322509766 290.2139892578125"/>
    <path stroke-width="0" fill="rgb(202, 134, 44)" opacity="0.604624" stroke="rgb(0, 0, 0)" stroke-opacity="0.0" stroke-linecap="round" stroke-linejoin="round" d="M 281.34228515625 43.75812911987305 C 281.785888671875 49.223785400390625 280.4897155761719 52.49237060546875 275.3974609375 52.63120651245117 C 272.3377380371094 55.408695220947266 270.8836364746094 51.230228424072266 271.6446838378906 45.039337158203125 C 270.61480712890625 41.58898162841797 272.6139831542969 39.362762451171875 275.258544921875 42.0683708190918 C 281.0694274902344 41.64499282836914 284.5180969238281 42.28504180908203 281.34228515625 43.75812911987305"/>
    <path stroke-width="0" fill="rgb(235, 214, 154)" opacity="0.21921302" stroke="rgb(0, 0, 0)" stroke-opacity="0.0" stroke-linecap="round" stroke-linejoin="round" d="M 22.961441040039062 4.855623722076416 C 22.714147567749023 11.502967834472656 21.33469009399414 14.544288635253906 15.443881034851074 13.64467716217041 C 8.228509902954102 14.989742279052734 7.329254627227783 11.950054168701172 3.562049150466919 3.9616751670837402 C 6.485532283782959 0.9036034345626831 11.063716888427734 -1.0319693088531494 15.873022079467773 -2.317711591720581 C 21.23508644104004 -3.1580729484558105 23.3590030670166 -0.5467500686645508 22.961441040039062 4.855623722076416"/>
    <path stroke-width="0" fill="rgb(98, 185, 235)" opacity="0.006405542" stroke="rgb(0, 0, 0)" stroke-opacity="0.0" stroke-linecap="round" stroke-linejoin="round" d="M 241.25369262695312 95.48866271972656 C 239.02098083496094 99.2763671875 235.95465087890625 102.10880279541016 232.2973175048828 104.26017761230469 C 229.25697326660156 103.37112426757812 227.21243286132812 99.47254180908203 224.74986267089844 95.56735229492188 C 225.31997680664062 91.78089904785156 228.2996063232422 88.02861785888672 231.88650512695312 86.94354248046875 C 236.8936767578125 89.45197296142578 240.02809143066406 92.38838195800781 241.25369262695312 95.48866271972656"/>
    <path stroke-width="0" fill="rgb(155, 213, 254)" opacity="0.0800238" stroke="rgb(0, 0, 0)" stroke-opacity="0.0" stroke-linecap="round" stroke-linejoin="round" d="M 79.19285583496094 -24.607269287109375 C 78.12105560302734 -20.607269287109375 75.19285583496094 -17.679065704345703 71.19285583496094 -16.607269287109375 C 67.19285583496094 -17.679065704345703 64.2646484375 -20.607269287109375 63.19285583496094 -24.607269287109375 C 64.2646484375 -28.607269287109375 67.19285583496094 -31.535472869873047 71.19285583496094 -32.607269287109375 C 75.19285583496094 -31.535472869873047 78.12105560302734 -28.607269287109375 79.19285583496094 -24.607269287109375"/>
    <path stroke-width="0" fill="rgb(108, 90, 36)" opacity="0.57858646" stroke="rgb(0, 0, 0)" stroke-opacity="0.0" stroke-linecap="round" stroke-linejoin="round" d="M 236.26744079589844 11.720231056213379 C 237.031982421875 16.0069637298584 235.19923400878906 19.023475646972656 233.25753784179688 17.844158172607422 C 227.9354248046875 16.847627639770508 223.82017517089844 15.472053527832031 223.9652557373047 10.707474708557129 C 222.98977661132812 7.4359049797058105 226.8381805419922 6.1500420570373535 231.29986572265625 6.515926837921143 C 234.0908966064453 5.608625411987305 237.35926818847656 8.678306579589844 236.26744079589844 11.720231056213379"/>
    <path stroke-width="0" fill="rgb(89, 230, 66)" opacity="0.051150568" stroke="rgb(0, 0, 0)" stroke-opacity="0.0" stroke-linecap="round" stroke-linejoin="round" d="M 133.27822875976562 53.98567581176758 C 132.21971130371094 56.46855163574219 128.5921630859375 59.3670539855957 125.01146697998047 61.7765007019043 C 121.54226684570312 59.27476501464844 118.0169448852539 56.93438720703125 116.9566650390625 53.150150299072266 C 119.79742431640625 50.95744705200195 123.9888687133789 49.172889709472656 128.3920135498047 47.88652038574219 C 129.49183654785156 45.87206268310547 131.4102783203125 48.9475212097168 133.27822875976562 53.98567581176758"/>
    <path stroke-width="0" fill="rgb(126, 237, 112)" opacity="-0.00029608715" stroke="rgb(0, 0, 0)" stroke-opacity="0.0" stroke-linecap="round" stroke-linejoin="round" d="M 187.9678497314453 375.0069885253906 C 183.34271240234375 377.1470947265625 182.0424346923828 381.7523193359375 180.63616943359375 382.7778015136719 C 177.86280822753906 380.4826354980469 173.5251007080078 378.46148681640625 170.9107208251953 377.0157165527344 C 173.76548767089844 372.8605651855469 176.724853515625 370.0231628417969 180.9089813232422 367.1872863769531 C 183.4702606201172 368.68951416015625 185.9199676513672 372.6173400878906 187.9678497314453 375.0069885253906"/>
    <path stroke-width="0" fill="rgb(182, 28, 13)" opacity="0.37997368" stroke="rgb(0, 0, 0)" stroke-opacity="0.0" stroke-linecap="round" stroke-linejoin="round" d="M 370.8000793457031 252.22496032714844 C 368.76678466796875 253.717529296875 363.5077209472656 255.17520141601562 359.4833984375 257.62139892578125 C 356.73321533203125 260.31500244140625 355.0980224609375 256.5044860839844 353.9278564453125 249.4109344482422 C 354.5677490234375 247.9721221923828 360.2999267578125 246.8523712158203 361.5239562988281 246.68380737304688 C 364.0444641113281 247.17626953125 368.2422790527344 248.88491821289062 370.8000793457031 252.22496032714844"/>
    <path stroke-width="0" fill="rgb(198, 160, 62)" opacity="0.3885087" stroke="rgb(0, 0, 0)" stroke-opacity="0.0" stroke-linecap="round" stroke-linejoin="round" d="M 62.764366149902344 435.406005859375 C 59.44710922241211 438.24517822265625 56.51581954956055 441.59832763671875 54.63902282714844 441.7755432128906 C 51.081146240234375 439.9114990234375 46.219364166259766 438.1767578125 45.279052734375 435.5597229003906 C 48.19111251831055 433.2956848144531 51.640262603759766 430.3460998535156 54.16260528564453 427.712890625 C 56.85053634643555 428.0373840332031 59.38369369506836 431.1956481933594 62.764366149902344 435.406005859375"/>
    <path stroke-width="0" fill="rgb(237, 181, 158)" opacity="0.58398116" stroke="rgb(0, 0, 0)" stroke-opacity="0.0" stroke-linecap="round" stroke-linejoin="round" d="M 454.1652526855469 385.0207214355469 C 453.1501159667969 388.940673828125 450.5513000488281 392.3373107910156 446.9289855957031 393.435791015625 C 443.0951843261719 391.8173828125 439.9885559082031 388.84295654296875 438.5058898925781 384.5773010253906 C 438.8638000488281 380.1996765136719 441.87310791015625 377.8704528808594 447.09954833984375 377.3075256347656 C 451.5474853515625 377.43536376953125 453.6859130859375 380.7994384765625 454.1652526855469 385.0207214355469"/>
    <path stroke-width="0" fill="rgb(201, 230, 242)" opacity="0.80897605" stroke="rgb(0, 0, 0)" stroke-opacity="0.0" stroke-linecap="round" stroke-linejoin="round" d="M 97.13423919677734 62.17847442626953 C 96.63056182861328 66.16537475585938 94.49694061279297 69.96231079101562 91.4460220336914 70.2021255493164 C 89.47573852539062 69.23191833496094 87.47591400146484 64.84573364257812 84.25542449951172 62.1491813659668 C 85.65283203125 61.208431243896484 88.69640350341797 57.20224380493164 90.22412872314453 56.16999816894531 C 93.4257583618164 58.710182189941406 97.17354583740234 60.96352005004883 97.13423919677734 62.17847442626953"/>
    <path stroke-width="0" fill="rgb(174, 190, 215)" opacity="0.40109783" stroke="rgb(0, 0, 0)" stroke-opacity="0.0" stroke-linecap="round" stroke-linejoin="round" d="M 166.48370361328125 78.55107879638672 C 166.1734161376953 83.26652526855469 163.22694396972656 85.79612731933594 159.0875701904297 84.87024688720703 C 155.2644805908203 84.8927230834961 152.3693084716797 81.64146423339844 149.19288635253906 77.99481964111328 C 152.0042266845703 74.98894500732422 156.45346069335938 73.45323181152344 160.55508422851562 69.99507141113281 C 162.3302764892578 70.77337646484375 165.5903778076172 74.64458465576172 166.48370361328125 78.55107879638672"/>
    <path stroke-width="0" fill="rgb(87, 100, 94)" opacity="0.21892132" stroke="rgb(0, 0, 0)" stroke-opacity="0.0" stroke-linecap="round" stroke-linejoin="round" d="M 410.4234924316406 512.6896362304688 C 410.2483215332031 515.984130859375 407.32012939453125 518.9122924804688 403.32012939453125 519.984130859375 C 399.31903076171875 518.9122924804688 396.3890075683594 515.978271484375 396.636962890625 511.56549072265625 C 395.6246337890625 507.04962158203125 398.62103271484375 504.9586181640625 404.0114440917969 505.3330078125 C 407.6202392578125 504.7563781738281 409.6947021484375 507.872802734375 410.4234924316406 512.6896362304688"/>
    <path stroke-width="0" fill="rgb(105, 86, 160)" opacity="0.24557614" stroke="rgb(0, 0, 0)" stroke-opacity="0.0" stroke-linecap="round" stroke-linejoin="round" d="M 300.78662109375 233.41412353515625 C 300.3912048339844 236.25811767578125 297.04144287109375 238.0325927734375 292.2528381347656 240.1654510498047 C 290.66302490234375 240.75335693359375 288.18194580078125 237.36346435546875 287.8883361816406 234.02017211914062 C 288.9231872558594 230.09619140625 290.9687194824219 226.27601623535156 295.5237731933594 224.63621520996094 C 298.5835876464844 226.40760803222656 301.1714172363281 229.63356018066406 300.78662109375 233.41412353515625"/>
    <path stroke-width="0" fill="rgb(159, 105, 119)" opacity="0.4464496" stroke="rgb(0, 0, 0)" stroke-opacity="0.0" stroke-linecap="round" stroke-linejoin="round" d="M 324.1332092285156 67.93255615234375 C 324.5433654785156 76.05487823486328 324.4185791015625 78.79296875 320.67236328125 77.11764526367188 C 316.1053771972656 78.64924621582031 312.9958190917969 75.68138885498047 313.978515625 72.06245422363281 C 314.28094482421875 66.09896087646484 314.466796875 64.236572265625 317.6954650878906 66.16029357910156 C 325.7514953613281 65.14044952392578 327.13372802734375 65.36006927490234 324.1332092285156 67.93255615234375"/>
    <path stroke-width="0" fill="rgb(177, 65, 207)" opacity="0.028599422" stroke="rgb(0, 0, 0)" stroke-opacity="0.0" stroke-linecap="round" stroke-linejoin="round" d="M 149.5320587158203 124.4217529296875 C 149.43173217773438 128.5438995361328 146.72581481933594 131.53724670410156 143.04818725585938 132.49185180664062 C 140.4703826904297 132.7639923095703 137.4873046875 130.63613891601562 138.5806884765625 126.13375854492188 C 138.02328491210938 122.03849029541016 140.0960235595703 118.82833862304688 144.30506896972656 117.93299865722656 C 149.25123596191406 118.40908813476562 150.95028686523438 121.34638977050781 149.5320587158203 124.4217529296875"/>
    <path stroke-width="0" fill="rgb(46, 72, 157)" opacity="0.024311531" stroke="rgb(0, 0, 0)" stroke-opacity="0.0" stroke-linecap="round" stroke-linejoin="round" d="M 480.65997314453125 449.1380615234375 C 478.3882751464844 451.90838623046875 475.390625 454.6213684082031 472.328125 455.28570556640625 C 469.1092834472656 455.80206298828125 465.69317626953125 453.71490478515625 463.4866943359375 448.8696594238281 C 464.1922607421875 443.560791015625 467.17987060546875 440.8905944824219 471.38568115234375 443.1183776855469 C 475.8080749511719 444.28704833984375 479.21044921875 446.57135009765625 480.65997314453125 449.1380615234375"/>
    <path stroke-width="0" fill="rgb(97, 50, 117)" opacity="0.030647328" stroke="rgb(0, 0, 0)" stroke-opacity="0.0" stroke-linecap="round" stroke-linejoin="round" d="M 180.64785766601562 330.0242004394531 C 178.03280639648438 333.19561767578125 174.3242950439453 335.2422790527344 170.4066162109375 338.6390380859375 C 170.81927490234375 336.7341613769531 168.7640838623047 332.6409912109375 165.4064483642578 328.976318359375 C 164.56381225585938 326.459716796875 168.1121826171875 322.87451171875 172.47303771972656 322.64019775390625 C 177.90811157226562 323.6305236816406 181.3114471435547 326.0940856933594 180.64785766601562 330.0242004394531"/>
    <path stroke-width="0" fill="rgb(106, 103, 202)" opacity="0.085054874" stroke="rgb(0, 0, 0)" stroke-opacity="0.0" stroke-linecap="round" stroke-linejoin="round" d="M 299.72869873046875 205.14369201660156 C 299.4525451660156 210.47654724121094 297.902587890625 213.54957580566406 292.55987548828125 215.4374237060547 C 288.3319396972656 215.36351013183594 287.1340026855469 209.86358642578125 286.27569580078125 205.85305786132812 C 286.9168395996094 202.0033416748047 288.3601989746094 197.94972229003906 291.5890808105469 198.7677001953125 C 296.73602294921875 199.3092803955078 300.0546875 201.9376983642578 299.72869873046875 205.14369201660156"/>
    <path stroke-width="0" fill="rgb(124, 170, 228)" opacity="0.12626156" stroke="rgb(0, 0, 0)" stroke-opacity="0.0" stroke-linecap="round" stroke-linejoin="round" d="M 188.6975860595703 280.3035888671875 C 187.9825439453125 285.169677734375 186.93333435058594 290.2283630371094 184.82815551757812 289.6475524902344 C 182.00845336914062 286.9737243652344 178.9267120361328 283.8591003417969 176.55589294433594 280.546630859375 C 176.21714782714844 278.6732482910156 179.05555725097656 275.6884460449219 181.62448120117188 276.04168701171875 C 185.89915466308594 277.6474609375 190.5218048095703 278.9700927734375 188.6975860595703 280.3035888671875"/>
    <path stroke-width="0" fill="rgb(46, 189, 161)" opacity="0.761836" stroke="rgb(0, 0, 0)" stroke-opacity="0.0" stroke-linecap="round" stroke-linejoin="round" d="M 41.41793441772461 5.173141002655029 C 40.82110595703125 6.869488716125488 38.162784576416016 10.031468391418457 33.68668746948242 12.292614936828613 C 31.21541976928711 12.133392333984375 30.987445831298828 7.0431132316589355 29.258541107177734 1.462321400642395 C 27.502002716064453 -1.453721284866333 30.30950355529785 -3.9680252075195312 33.07472610473633 -2.2318272590637207 C 37.02962112426758 -0.7323046326637268 39.85273361206055 2.3327724933624268 41.41793441772461 5.173141002655029"/>
    <path stroke-width="0" fill="rgb(49, 30, 118)" opacity="0.85216135" stroke="rgb(0, 0, 0)" stroke-opacity="0.0" stroke-linecap="round" stroke-linejoin="round" d="M 463.96356201171875 256.7027282714844 C 461.74151611328125 259.833740234375 457.8470764160156 261.8536071777344 456.9967346191406 260.4105224609375 C 454.38275146484375 258.47967529296875 450.532470703125 256.4350891113281 446.5863952636719 254.84744262695312 C 446.6217346191406 250.88038635253906 449.80535888671875 248.77261352539062 456.0925598144531 246.59158325195312 C 460.12109375 246.59796142578125 462.6438903808594 249.97299194335938 463.96356201171875 256.7027282714844"/>
    <path stroke-width="0" fill="rgb(149, 134, 75)" opacity="0.41684908" stroke="rgb(0, 0, 0)" stroke-opacity="0.0" stroke-linecap="round" stroke-linejoin="round" d="M -21.84418487548828 -77.20195007324219 C -22.91598129272461 -73.20195007324219 -25.84418487548828 -70.27374267578125 -29.84418487548828 -69.20195007324219 C -33.84418487548828 -70.27374267578125 -36.77238845825195 -73.20195007324219 -37.84418487548828 -77.20195007324219 C -36.77238845825195 -81.20195007324219 -33.84418487548828 -84.1301498413086 -29.84418487548828 -85.20195007324219 C -25.84418487548828 -84.1301498413086 -22.91598129272461 -81.20195007324219 -21.84418487548828 -77.20195007324219"/>
  </g>
</svg>
