<?xml version="1.0" ?>
<svg xmlns="http://www.w3.org/2000/svg" version="1.1" width="512" height="512">
  <defs/>
  <g>
    <path stroke-width="0" fill="rgb(-46, 42, -2)" opacity="1.029315" stroke="rgb(139, 182, 153)" stroke-opacity="1.0" stroke-linecap="round" stroke-linejoin="round" d="M 360.0358581542969 217.1678924560547 C 382.4270935058594 223.5963592529297 279.3070068359375 218.1408233642578 266.9158630371094 209.73912048339844 C 131.02210998535156 212.68919372558594 158.0994110107422 209.9453887939453 159.43161010742188 202.7500762939453 C 212.42112731933594 200.08038330078125 264.3309631347656 207.01864624023438 265.8359375 202.8401641845703 C 205.981689453125 212.34239196777344 252.97093200683594 197.95950317382812 360.0358581542969 217.1678924560547"/>
    <path stroke-width="0" fill="rgb(44, 184, 38)" opacity="0.74654603" stroke="rgb(108, 164, 111)" stroke-opacity="1.0" stroke-linecap="round" stroke-linejoin="round" d="M 250.05374145507812 654.5733032226562 C -225.70285034179688 572.34375 302.78997802734375 105.27520751953125 174.99224853515625 425.0862731933594 C -131.46620178222656 564.5571899414062 331.24853515625 168.89146423339844 30.844024658203125 283.2713928222656 C 109.95584106445312 682.6504516601562 -111.96967315673828 707.5438232421875 -40.28277587890625 -47.435874938964844 C 463.10711669921875 -98.06666564941406 459.659912109375 -90.72696685791016 250.05374145507812 654.5733032226562"/>
    <path stroke-width="0" fill="rgb(3, 11, 57)" opacity="1.0370046" stroke="rgb(245, 97, 201)" stroke-opacity="1.0" stroke-linecap="round" stroke-linejoin="round" d="M 787.3743896484375 372.77215576171875 C 381.6935729980469 602.1958618164062 207.63914489746094 613.9265747070312 278.6476745605469 311.3604431152344 C 189.65237426757812 347.7015075683594 433.85125732421875 550.2771606445312 497.6876220703125 378.26287841796875 C 522.0980834960938 145.95213317871094 132.80404663085938 383.4666748046875 261.23345947265625 -26.983123779296875 C 449.6614074707031 -97.54769134521484 769.5654296875 -107.06083679199219 787.3743896484375 372.77215576171875"/>
    <path stroke-width="0" fill="rgb(-21, -2, 36)" opacity="1.0111898" stroke="rgb(144, 236, 18)" stroke-opacity="1.0" stroke-linecap="round" stroke-linejoin="round" d="M 417.9291076660156 348.93670654296875 C 398.0960388183594 341.3396301269531 404.7943115234375 572.2839965820312 408.18206787109375 368.38836669921875 C 232.03778076171875 378.5398864746094 231.31024169921875 342.7237854003906 335.2250061035156 352.5035705566406 C 446.2406005859375 344.90283203125 397.0499572753906 382.587646484375 318.5281066894531 166.65965270996094 C 409.1783142089844 347.426025390625 406.4944763183594 345.4933776855469 417.9291076660156 348.93670654296875"/>
    <path stroke-width="0" fill="rgb(51, 82, 57)" opacity="0.64303404" stroke="rgb(5, 212, 198)" stroke-opacity="1.0" stroke-linecap="round" stroke-linejoin="round" d="M 188.0790557861328 148.72518920898438 C 186.0585174560547 174.12747192382812 162.1092529296875 173.61709594726562 174.6455535888672 142.45440673828125 C 138.59780883789062 289.975830078125 170.14918518066406 223.2993927001953 168.9935302734375 152.54351806640625 C 190.71856689453125 172.76681518554688 145.91224670410156 108.41818237304688 152.83883666992188 171.90536499023438 C 185.14578247070312 248.41200256347656 116.60594177246094 103.74708557128906 188.0790557861328 148.72518920898438"/>
    <path stroke-width="0" fill="rgb(260, 193, 252)" opacity="1.0261542" stroke="rgb(249, 203, 117)" stroke-opacity="1.0" stroke-linecap="round" stroke-linejoin="round" d="M 132.072998046875 276.9897155761719 C 211.6494903564453 298.26171875 164.8306427001953 304.1219482421875 131.2232208251953 333.724609375 C 148.06561279296875 288.07781982421875 169.47470092773438 271.4739685058594 149.34266662597656 297.7987060546875 C 160.3724822998047 292.11480712890625 176.20468139648438 292.6573791503906 164.1076202392578 282.30499267578125 C 134.85438537597656 271.3966979980469 149.44590759277344 279.05322265625 132.072998046875 276.9897155761719"/>
    <path stroke-width="0" fill="rgb(266, 261, 255)" opacity="0.9464769" stroke="rgb(30, 163, 36)" stroke-opacity="1.0" stroke-linecap="round" stroke-linejoin="round" d="M 151.166015625 323.9057922363281 C 169.75509643554688 271.5284118652344 237.74661254882812 356.3373718261719 145.4450225830078 320.9265441894531 C 118.68671417236328 341.8006896972656 97.21832275390625 358.37518310546875 122.3020248413086 336.885009765625 C 162.98526000976562 283.6816711425781 130.4871368408203 243.5028533935547 171.677734375 295.7698669433594 C 180.20040893554688 312.8827209472656 182.93873596191406 295.13934326171875 151.166015625 323.9057922363281"/>
    <path stroke-width="0" fill="rgb(-16, -4, 54)" opacity="0.9448371" stroke="rgb(133, 105, 67)" stroke-opacity="1.0" stroke-linecap="round" stroke-linejoin="round" d="M 133.96339416503906 442.85443115234375 C 136.68450927734375 477.8104553222656 -23.12320327758789 453.9724426269531 9.472151756286621 338.34222412109375 C 15.044386863708496 481.8954162597656 154.7781219482422 444.253662109375 136.08447265625 441.6817932128906 C 107.03948211669922 490.1454772949219 292.2298583984375 376.2223815917969 137.96145629882812 249.02992248535156 C 278.6737976074219 420.4736633300781 74.81629180908203 466.3297119140625 133.96339416503906 442.85443115234375"/>
    <path stroke-width="0" fill="rgb(18, -10, 42)" opacity="0.9437662" stroke="rgb(116, 144, 4)" stroke-opacity="1.0" stroke-linecap="round" stroke-linejoin="round" d="M 10.107043266296387 394.7499084472656 C -19.756465911865234 342.93621826171875 -19.697532653808594 369.8318176269531 -26.09336280822754 337.20556640625 C -5.592156410217285 381.5599670410156 -74.91419219970703 424.87841796875 27.898826599121094 375.537353515625 C -24.16661834716797 432.4198913574219 -4.990733623504639 195.74954223632812 164.7456817626953 270.3062744140625 C -57.2558708190918 216.73992919921875 34.272499084472656 506.8314208984375 10.107043266296387 394.7499084472656"/>
    <path stroke-width="0" fill="rgb(285, 256, 254)" opacity="1.0265259" stroke="rgb(156, 157, 240)" stroke-opacity="1.0" stroke-linecap="round" stroke-linejoin="round" d="M 358.4151306152344 272.4841003417969 C 334.97308349609375 379.0343017578125 388.3529968261719 324.310791015625 304.32806396484375 356.69854736328125 C 301.7102966308594 317.9103698730469 324.4600524902344 280.2896423339844 337.5428466796875 290.08465576171875 C 318.6362609863281 272.76287841796875 310.3959045410156 307.6317138671875 354.0546875 320.35906982421875 C 270.4410705566406 287.53619384765625 383.0652770996094 257.10894775390625 358.4151306152344 272.4841003417969"/>
    <path stroke-width="0" fill="rgb(-5, -2, 42)" opacity="0.99993235" stroke="rgb(91, 111, 177)" stroke-opacity="1.0" stroke-linecap="round" stroke-linejoin="round" d="M 122.04834747314453 315.6521301269531 C 122.42497253417969 303.3381652832031 109.78050231933594 360.5116271972656 121.64473724365234 330.8966369628906 C 108.29298400878906 335.9409484863281 161.6026153564453 168.75634765625 186.1292266845703 154.10818481445312 C 124.03072357177734 328.8895263671875 123.08599853515625 331.1567687988281 117.24820709228516 324.7650146484375 C 131.36495971679688 281.15875244140625 123.64073181152344 297.58331298828125 122.04834747314453 315.6521301269531"/>
    <path stroke-width="0" fill="rgb(-20, 11, 27)" opacity="0.9993865" stroke="rgb(170, 171, 53)" stroke-opacity="1.0" stroke-linecap="round" stroke-linejoin="round" d="M 131.27651977539062 283.0189208984375 C 100.7657241821289 420.0515441894531 116.67390441894531 293.2307434082031 98.844970703125 398.94708251953125 C 112.66850280761719 309.65142822265625 103.78459930419922 397.0242919921875 94.0586929321289 340.9215087890625 C 81.24520111083984 334.5890197753906 133.47071838378906 392.7969055175781 57.03551483154297 247.01953125 C 114.15097045898438 356.71875 92.92196655273438 377.7438659667969 131.27651977539062 283.0189208984375"/>
    <path stroke-width="0" fill="rgb(-8, -14, 52)" opacity="1.0043751" stroke="rgb(80, 92, 145)" stroke-opacity="1.0" stroke-linecap="round" stroke-linejoin="round" d="M 306.3607177734375 299.7261657714844 C 295.85711669921875 282.44921875 291.9601745605469 298.4329833984375 269.79852294921875 306.1383972167969 C 307.631103515625 181.5110321044922 255.1903839111328 463.1168212890625 387.98101806640625 447.39910888671875 C 242.0617218017578 407.5295715332031 326.4235534667969 187.71221923828125 484.5237731933594 289.1859436035156 C 350.2626647949219 151.19557189941406 276.6527099609375 386.8631591796875 306.3607177734375 299.7261657714844"/>
    <path stroke-width="0" fill="rgb(97, 203, 95)" opacity="1.0026315" stroke="rgb(252, 26, 53)" stroke-opacity="1.0" stroke-linecap="round" stroke-linejoin="round" d="M 385.6739196777344 205.2625732421875 C 288.96478271484375 211.4838104248047 292.8918762207031 217.87228393554688 372.774169921875 215.217529296875 C 233.18641662597656 208.35130310058594 177.8395233154297 197.7265167236328 172.21005249023438 204.12957763671875 C 249.701416015625 135.62942504882812 154.47044372558594 17.68907356262207 425.5714416503906 98.3865966796875 C 451.7974548339844 222.58387756347656 266.97845458984375 106.18814849853516 385.6739196777344 205.2625732421875"/>
    <path stroke-width="0" fill="rgb(97, 196, 185)" opacity="0.76324844" stroke="rgb(166, 64, 118)" stroke-opacity="1.0" stroke-linecap="round" stroke-linejoin="round" d="M 333.4344787597656 238.7294921875 C 288.2011413574219 284.4435119628906 282.3162536621094 326.7667236328125 225.78384399414062 360.83795166015625 C 215.4674835205078 353.67791748046875 213.80230712890625 335.59698486328125 226.61154174804688 254.9929656982422 C 222.90139770507812 222.90480041503906 227.6133575439453 203.065185546875 280.76580810546875 212.55931091308594 C 354.24627685546875 208.00482177734375 342.2428894042969 204.37962341308594 333.4344787597656 238.7294921875"/>
    <path stroke-width="0" fill="rgb(83, 198, 105)" opacity="0.8363844" stroke="rgb(40, 28, 167)" stroke-opacity="1.0" stroke-linecap="round" stroke-linejoin="round" d="M 309.4349365234375 263.796142578125 C 309.8294982910156 265.8559875488281 313.1694641113281 274.88421630859375 307.8721923828125 276.3484802246094 C 330.1924133300781 274.8669128417969 336.06500244140625 268.5563659667969 324.5499572753906 252.42825317382812 C 326.677490234375 247.79144287109375 324.8347473144531 219.4000701904297 323.38995361328125 288.41796875 C 266.8607482910156 342.6404724121094 332.3852844238281 317.2091369628906 309.4349365234375 263.796142578125"/>
    <path stroke-width="0" fill="rgb(82, 198, 108)" opacity="0.7361471" stroke="rgb(50, 94, 209)" stroke-opacity="1.0" stroke-linecap="round" stroke-linejoin="round" d="M 440.3670349121094 459.28631591796875 C 438.2201843261719 481.1707763671875 244.736083984375 481.40093994140625 426.012451171875 470.1734619140625 C 143.16429138183594 635.7518310546875 347.8360595703125 310.41375732421875 199.23170471191406 380.3948974609375 C 229.4009246826172 277.9924621582031 143.7304229736328 246.4591522216797 208.24627685546875 297.0694885253906 C 330.9141845703125 360.7857971191406 285.3566589355469 465.7447814941406 440.3670349121094 459.28631591796875"/>
    <path stroke-width="0" fill="rgb(53, 13, 30)" opacity="0.7801857" stroke="rgb(213, 24, 248)" stroke-opacity="1.0" stroke-linecap="round" stroke-linejoin="round" d="M 247.12245178222656 276.4406433105469 C 225.50033569335938 197.85638427734375 135.34408569335938 237.44046020507812 156.13314819335938 207.90516662597656 C 326.570068359375 214.09939575195312 346.05316162109375 193.27474975585938 262.9039001464844 221.25051879882812 C 288.809814453125 230.7458953857422 357.1209716796875 266.7016296386719 345.8785400390625 208.07293701171875 C 254.4011688232422 198.4856414794922 252.20437622070312 245.8480682373047 247.12245178222656 276.4406433105469"/>
    <path stroke-width="0" fill="rgb(14, 0, 52)" opacity="1.0487227" stroke="rgb(249, 154, 188)" stroke-opacity="1.0" stroke-linecap="round" stroke-linejoin="round" d="M 325.77764892578125 231.8154754638672 C 261.1968994140625 292.1903381347656 212.23971557617188 280.490966796875 239.0162811279297 269.2278137207031 C 213.616943359375 280.264892578125 207.3798370361328 284.6357421875 195.70730590820312 260.9750671386719 C 146.71766662597656 286.0714111328125 153.85691833496094 203.35589599609375 182.74098205566406 224.96351623535156 C 267.67352294921875 217.51246643066406 311.9989318847656 215.68099975585938 325.77764892578125 231.8154754638672"/>
    <path stroke-width="0" fill="rgb(68, 83, -52)" opacity="0.05513742" stroke="rgb(72, 30, 75)" stroke-opacity="1.0" stroke-linecap="round" stroke-linejoin="round" d="M 200.34890747070312 16.67757797241211 C -44.25901794433594 136.6215057373047 102.6514892578125 175.2249755859375 7.926558494567871 364.66436767578125 C -93.10887908935547 157.49349975585938 -36.3523063659668 116.6333236694336 -31.711231231689453 36.699588775634766 C -31.88047218322754 10.4307222366333 -24.965839385986328 4.1932501792907715 12.046585083007812 -3.901413917541504 C 87.05440521240234 -2.9562368392944336 170.34593200683594 -70.03083801269531 200.34890747070312 16.67757797241211"/>
    <path stroke-width="0" fill="rgb(106, 205, 95)" opacity="0.73123574" stroke="rgb(81, 105, 16)" stroke-opacity="1.0" stroke-linecap="round" stroke-linejoin="round" d="M 286.9179382324219 47.853546142578125 C 3.2651054859161377 85.7705307006836 171.7290802001953 229.16546630859375 41.526756286621094 271.175537109375 C 12.439947128295898 77.13063049316406 169.88986206054688 25.30460548400879 195.166748046875 15.607998847961426 C 58.97827911376953 9.756023406982422 98.1559066772461 -71.85871124267578 134.47503662109375 -91.75941467285156 C 157.70440673828125 -112.07814025878906 204.23878479003906 -176.33384704589844 286.9179382324219 47.853546142578125"/>
    <path stroke-width="0" fill="rgb(115, 185, 122)" opacity="0.3360033" stroke="rgb(144, 67, 133)" stroke-opacity="1.0" stroke-linecap="round" stroke-linejoin="round" d="M 328.8420104980469 -20.578689575195312 C 288.08575439453125 215.01759338378906 208.3059844970703 177.3938751220703 218.01866149902344 184.9536895751953 C 159.4817657470703 199.17149353027344 173.7962646484375 226.65182495117188 189.098876953125 173.3880157470703 C 268.9075012207031 175.36436462402344 167.6715545654297 78.25028991699219 103.86112213134766 220.75730895996094 C 193.6543426513672 17.269977569580078 346.93634033203125 23.981603622436523 328.8420104980469 -20.578689575195312"/>
    <path stroke-width="0" fill="rgb(-3, -8, 33)" opacity="0.9940656" stroke="rgb(146, 236, 81)" stroke-opacity="1.0" stroke-linecap="round" stroke-linejoin="round" d="M 387.97900390625 353.4020690917969 C 403.29730224609375 391.130126953125 322.3248291015625 357.12652587890625 239.76905822753906 412.2084655761719 C 338.8611145019531 353.66436767578125 270.0194091796875 446.16107177734375 212.8983917236328 309.00738525390625 C 120.18598175048828 203.8627471923828 93.0208511352539 263.2899475097656 330.9442138671875 216.50314331054688 C 295.8341369628906 389.0216369628906 248.09732055664062 349.33197021484375 387.97900390625 353.4020690917969"/>
    <path stroke-width="0" fill="rgb(118, 287, 197)" opacity="1.1167878" stroke="rgb(33, 182, 73)" stroke-opacity="1.0" stroke-linecap="round" stroke-linejoin="round" d="M 306.96258544921875 278.35089111328125 C 268.2349548339844 365.517578125 304.4288330078125 307.7937927246094 277.4468688964844 339.61383056640625 C 249.54078674316406 285.88812255859375 224.0402069091797 257.5000305175781 177.23611450195312 232.15530395507812 C 157.5401611328125 220.30715942382812 132.91336059570312 220.58843994140625 271.6756591796875 218.55555725097656 C 361.9574279785156 225.1181640625 330.38421630859375 192.61192321777344 306.96258544921875 278.35089111328125"/>
    <path stroke-width="0" fill="rgb(107, 204, 103)" opacity="1.0012629" stroke="rgb(149, 5, 211)" stroke-opacity="1.0" stroke-linecap="round" stroke-linejoin="round" d="M 523.3483276367188 345.4530334472656 C 417.8834228515625 135.196533203125 383.5384826660156 211.7855987548828 384.9576416015625 222.62843322753906 C 306.0484619140625 95.29386138916016 264.1973571777344 52.78754806518555 108.42987060546875 141.77732849121094 C 178.2079315185547 6.2045369148254395 218.7710723876953 57.7515754699707 292.4224853515625 -35.1987419128418 C 494.6373596191406 -49.52625274658203 597.9222412109375 -60.34662628173828 523.3483276367188 345.4530334472656"/>
    <path stroke-width="0" fill="rgb(96, 198, 107)" opacity="0.98037726" stroke="rgb(172, 68, 187)" stroke-opacity="1.0" stroke-linecap="round" stroke-linejoin="round" d="M 482.657958984375 276.4299621582031 C 508.9875183105469 298.2404479980469 447.83135986328125 219.8509979248047 361.6205139160156 255.4593505859375 C 342.7205505371094 221.56219482421875 318.13916015625 196.6993408203125 361.06396484375 162.81292724609375 C 259.7433776855469 128.66090393066406 273.4333190917969 166.7792205810547 362.87298583984375 170.9431915283203 C 488.8544006347656 99.63497161865234 483.72894287109375 164.2388916015625 482.657958984375 276.4299621582031"/>
    <path stroke-width="0" fill="rgb(-7, 8, 64)" opacity="1.0278785" stroke="rgb(63, 146, 150)" stroke-opacity="1.0" stroke-linecap="round" stroke-linejoin="round" d="M 312.2165832519531 268.4662780761719 C 343.0507507324219 163.20355224609375 361.8407897949219 168.4208221435547 324.3539733886719 256.82879638671875 C 323.9954833984375 260.6471252441406 326.1722412109375 252.176513671875 321.65252685546875 254.53526306152344 C 324.1119384765625 256.42120361328125 321.17352294921875 261.8177795410156 322.6015930175781 259.67742919921875 C 320.4882507324219 262.7877197265625 318.1886901855469 288.6200256347656 312.2165832519531 268.4662780761719"/>
    <path stroke-width="0" fill="rgb(124, 200, 74)" opacity="0.7303429" stroke="rgb(56, 242, 114)" stroke-opacity="1.0" stroke-linecap="round" stroke-linejoin="round" d="M 15.549962997436523 164.07200622558594 C -9.874621391296387 330.3741760253906 20.81330680847168 74.79737091064453 -23.974760055541992 68.92869567871094 C -33.61650848388672 65.88433074951172 -35.86575698852539 55.43598556518555 -32.59895324707031 38.688663482666016 C 0.34075599908828735 -14.408943176269531 19.45220947265625 -48.293601989746094 264.31121826171875 19.44853401184082 C 234.7853546142578 75.43187713623047 143.46168518066406 -91.92754364013672 15.549962997436523 164.07200622558594"/>
    <path stroke-width="0" fill="rgb(-5, -6, 60)" opacity="0.9914242" stroke="rgb(178, 75, 207)" stroke-opacity="1.0" stroke-linecap="round" stroke-linejoin="round" d="M 487.1405029296875 449.1544494628906 C 539.0402221679688 273.33026123046875 436.406982421875 288.37847900390625 463.7200622558594 263.33184814453125 C 525.9102172851562 303.0888671875 501.5787048339844 332.7986145019531 508.2599182128906 316.0874938964844 C 509.9117126464844 412.4139709472656 504.7239685058594 412.1966857910156 495.0456848144531 371.2310485839844 C 498.01080322265625 466.1953430175781 302.97784423828125 455.2424621582031 487.1405029296875 449.1544494628906"/>
    <path stroke-width="0" fill="rgb(72, 197, -48)" opacity="0.84436184" stroke="rgb(224, 148, 224)" stroke-opacity="1.0" stroke-linecap="round" stroke-linejoin="round" d="M 64.32841491699219 475.99322509765625 C 25.261232376098633 416.12164306640625 43.03708267211914 446.1295471191406 56.51007080078125 542.5347290039062 C -16.84300422668457 505.6664733886719 -7.109786033630371 478.45172119140625 -6.671311855316162 437.7972412109375 C -33.0129280090332 414.1160888671875 -26.17329978942871 417.99664306640625 2.3252649307250977 427.9284973144531 C 39.80766296386719 441.3941345214844 33.215171813964844 447.75146484375 64.32841491699219 475.99322509765625"/>
    <path stroke-width="0" fill="rgb(14, 142, 51)" opacity="0.76742226" stroke="rgb(184, 127, 243)" stroke-opacity="1.0" stroke-linecap="round" stroke-linejoin="round" d="M 125.97061157226562 458.47930908203125 C 67.13807678222656 453.178955078125 63.17216491699219 479.69921875 55.93999481201172 488.9704284667969 C 15.615724563598633 489.91009521484375 75.09794616699219 435.1873474121094 -12.65430736541748 433.8810119628906 C -10.269266128540039 401.8969421386719 -10.808673858642578 386.47119140625 7.388265609741211 374.55023193359375 C 13.967560768127441 431.87469482421875 62.49154281616211 460.27191162109375 125.97061157226562 458.47930908203125"/>
    <path stroke-width="0" fill="rgb(248, 222, 201)" opacity="0.9479344" stroke="rgb(108, 154, 4)" stroke-opacity="1.0" stroke-linecap="round" stroke-linejoin="round" d="M 97.87786102294922 362.44671630859375 C 79.89722442626953 394.6202697753906 60.81564712524414 441.6349182128906 66.1869125366211 425.906982421875 C 56.412925720214844 439.0191345214844 32.042755126953125 416.3779602050781 23.623153686523438 399.4909362792969 C -5.504200458526611 323.5102233886719 32.409725189208984 359.5090637207031 102.58357238769531 342.0548095703125 C 96.89379119873047 360.75732421875 56.50373077392578 419.4684753417969 97.87786102294922 362.44671630859375"/>
    <path stroke-width="0" fill="rgb(23, 164, 100)" opacity="0.99956393" stroke="rgb(168, 73, 157)" stroke-opacity="1.0" stroke-linecap="round" stroke-linejoin="round" d="M 166.57037353515625 443.30450439453125 C 313.5357666015625 497.7303771972656 203.08685302734375 541.3516235351562 33.00965118408203 544.6422729492188 C 11.251142501831055 543.2071533203125 3.708277463912964 537.02392578125 10.286094665527344 532.4183349609375 C 28.897432327270508 461.0401611328125 23.288076400756836 448.1044921875 35.9009895324707 457.5439758300781 C 122.84660339355469 466.1065673828125 148.95697021484375 444.6911315917969 166.57037353515625 443.30450439453125"/>
    <path stroke-width="0" fill="rgb(0, 7, 75)" opacity="0.9941208" stroke="rgb(34, 76, 145)" stroke-opacity="1.0" stroke-linecap="round" stroke-linejoin="round" d="M 164.29251098632812 144.30502319335938 C 157.44253540039062 151.0131072998047 153.63812255859375 151.6097412109375 191.4205322265625 145.8402099609375 C 191.2167205810547 141.00332641601562 175.80020141601562 142.6343231201172 150.32861328125 151.38453674316406 C 183.5260772705078 151.7820587158203 197.9818878173828 157.02960205078125 173.0076446533203 165.91018676757812 C 153.3338165283203 158.78099060058594 137.7470703125 164.25311279296875 164.29251098632812 144.30502319335938"/>
    <path stroke-width="0" fill="rgb(62, 177, 84)" opacity="0.9487774" stroke="rgb(146, 166, 166)" stroke-opacity="1.0" stroke-linecap="round" stroke-linejoin="round" d="M 59.18185043334961 526.3233642578125 C 47.256099700927734 539.38818359375 38.75363540649414 545.7471313476562 27.42095375061035 546.61962890625 C -6.0 521.3204956054688 -13.320508003234863 514.0 -38.809730529785156 480.6257019042969 C -40.62813949584961 466.4346008300781 -39.82361602783203 450.002685546875 5.355597496032715 391.0887756347656 C 57.906333923339844 483.6377258300781 131.28411865234375 481.2045593261719 59.18185043334961 526.3233642578125"/>
    <path stroke-width="0" fill="rgb(101, 203, 105)" opacity="0.8531074" stroke="rgb(182, 254, 38)" stroke-opacity="1.0" stroke-linecap="round" stroke-linejoin="round" d="M 523.6118774414062 379.7471923828125 C 581.7115478515625 359.03076171875 480.390380859375 264.1204833984375 432.78179931640625 238.05784606933594 C 466.322998046875 149.99533081054688 317.7499084472656 43.04474639892578 244.5589141845703 86.58297729492188 C 61.52398681640625 -15.483924865722656 314.1459045410156 -46.247833251953125 372.3741455078125 -7.004118919372559 C 423.6727294921875 7.260873317718506 554.0872802734375 10.768107414245605 523.6118774414062 379.7471923828125"/>
    <path stroke-width="0" fill="rgb(104, 141, 107)" opacity="0.42828867" stroke="rgb(41, 156, 31)" stroke-opacity="1.0" stroke-linecap="round" stroke-linejoin="round" d="M 102.95632934570312 480.0336608886719 C 154.07327270507812 517.6290283203125 70.24340057373047 528.1548461914062 74.6197280883789 522.0748901367188 C 56.61872100830078 492.7125244140625 61.44309997558594 433.0804443359375 70.20203399658203 487.718505859375 C -7.996155261993408 412.15594482421875 -13.428532600402832 413.31695556640625 31.98285675048828 443.0830993652344 C 79.44403839111328 453.9479675292969 85.40962219238281 461.9864196777344 102.95632934570312 480.0336608886719"/>
    <path stroke-width="0" fill="rgb(58, 170, 87)" opacity="0.56965154" stroke="rgb(205, 145, 103)" stroke-opacity="1.0" stroke-linecap="round" stroke-linejoin="round" d="M 65.3730697631836 449.5486145019531 C 185.20492553710938 488.9417724609375 205.64064025878906 537.6748657226562 53.215599060058594 512.3833618164062 C -23.503589630126953 440.2244873046875 -33.56004333496094 388.8898010253906 76.7355728149414 498.94598388671875 C -28.17781639099121 436.7298278808594 -20.668371200561523 444.0550537109375 19.79876136779785 436.9392395019531 C 8.908967971801758 385.6944274902344 13.831725120544434 429.5871887207031 65.3730697631836 449.5486145019531"/>
    <path stroke-width="0" fill="rgb(89, 165, 79)" opacity="0.4656963" stroke="rgb(177, 115, 184)" stroke-opacity="1.0" stroke-linecap="round" stroke-linejoin="round" d="M 95.60433959960938 498.1695251464844 C 70.24571990966797 534.2597045898438 62.429893493652344 541.2098388671875 68.56147003173828 528.2492065429688 C 25.877046585083008 482.9764404296875 -42.28153610229492 501.2283630371094 -57.043087005615234 507.21771240234375 C -1.0405356884002686 455.7156066894531 -11.923786163330078 460.8006896972656 -14.865012168884277 439.4635314941406 C 34.5177116394043 426.79400634765625 35.11216735839844 465.2121276855469 95.60433959960938 498.1695251464844"/>
    <path stroke-width="0" fill="rgb(255, -8, 30)" opacity="0.62669104" stroke="rgb(248, 218, 2)" stroke-opacity="1.0" stroke-linecap="round" stroke-linejoin="round" d="M 360.76409912109375 168.90843200683594 C 351.2164611816406 172.77272033691406 346.29559326171875 171.59588623046875 319.16033935546875 164.0970458984375 C 334.861083984375 171.52967834472656 315.32086181640625 150.37176513671875 341.265869140625 161.54981994628906 C 376.4803161621094 187.37037658691406 347.81622314453125 154.05662536621094 335.63751220703125 204.29173278808594 C 344.43096923828125 214.34466552734375 346.6766662597656 170.24893188476562 360.76409912109375 168.90843200683594"/>
    <path stroke-width="0" fill="rgb(-1, -10, 34)" opacity="0.9787373" stroke="rgb(186, 43, 132)" stroke-opacity="1.0" stroke-linecap="round" stroke-linejoin="round" d="M 175.7390594482422 309.8707275390625 C 192.3101348876953 267.7039794921875 112.34893798828125 256.6700439453125 147.35902404785156 249.80801391601562 C 156.6031036376953 268.2096862792969 137.24911499023438 250.62271118164062 138.1847686767578 259.5088195800781 C 135.44691467285156 252.24456787109375 191.59259033203125 246.3442840576172 79.25859069824219 262.10504150390625 C 118.49383544921875 261.6827392578125 158.2791290283203 276.31658935546875 175.7390594482422 309.8707275390625"/>
    <path stroke-width="0" fill="rgb(39, 158, 117)" opacity="0.2611011" stroke="rgb(50, 4, 202)" stroke-opacity="1.0" stroke-linecap="round" stroke-linejoin="round" d="M 250.9383544921875 449.0848083496094 C 240.0103759765625 579.7252807617188 139.1856231689453 553.1444702148438 158.8279571533203 561.69384765625 C 218.7384033203125 468.15118408203125 146.90538024902344 399.2984619140625 130.52391052246094 480.1394958496094 C 59.949771881103516 442.5440673828125 105.52082061767578 475.10382080078125 77.1476058959961 454.8056640625 C 165.45968627929688 472.65301513671875 147.3303680419922 396.04931640625 250.9383544921875 449.0848083496094"/>
    <path stroke-width="0" fill="rgb(264, 256, 249)" opacity="0.98784214" stroke="rgb(88, 236, 179)" stroke-opacity="1.0" stroke-linecap="round" stroke-linejoin="round" d="M 91.72370147705078 363.1392822265625 C 114.27244567871094 389.723876953125 8.028590202331543 399.90765380859375 28.030208587646484 393.13751220703125 C 90.1292495727539 401.63568115234375 110.65665435791016 335.7478942871094 59.39201354980469 437.1710510253906 C 26.445711135864258 389.9519348144531 12.083023071289062 415.10833740234375 77.29508972167969 371.7598876953125 C 3.49733304977417 413.02947998046875 21.055700302124023 396.19329833984375 91.72370147705078 363.1392822265625"/>
    <path stroke-width="0" fill="rgb(141, 183, 88)" opacity="0.13252893" stroke="rgb(41, 158, 147)" stroke-opacity="1.0" stroke-linecap="round" stroke-linejoin="round" d="M 376.7157897949219 2.812431573867798 C 179.2772674560547 -16.626256942749023 264.5826416015625 102.27222442626953 521.5530395507812 111.82333374023438 C 506.31317138671875 -81.53874969482422 47.874427795410156 -55.44865417480469 -9.356695175170898 281.5180969238281 C -46.543094635009766 -44.40662384033203 307.1123962402344 -48.09006118774414 299.4047546386719 -24.35593032836914 C 398.65960693359375 -0.8340041041374207 414.1961669921875 14.688565254211426 376.7157897949219 2.812431573867798"/>
    <path stroke-width="0" fill="rgb(95, 207, 95)" opacity="0.56408787" stroke="rgb(238, 156, 136)" stroke-opacity="1.0" stroke-linecap="round" stroke-linejoin="round" d="M 456.7763671875 257.16510009765625 C 333.9029541015625 225.60183715820312 442.6902770996094 10.088617324829102 429.9744567871094 126.86360168457031 C 113.65005493164062 165.55787658691406 183.10385131835938 84.7349624633789 82.49146270751953 251.29165649414062 C -12.147773742675781 74.6151123046875 457.856689453125 6.622023105621338 322.2801513671875 40.29023361206055 C 302.602783203125 5.352585792541504 528.29736328125 31.083349227905273 456.7763671875 257.16510009765625"/>
    <path stroke-width="0" fill="rgb(15, 161, 107)" opacity="0.99491847" stroke="rgb(186, 79, 101)" stroke-opacity="1.0" stroke-linecap="round" stroke-linejoin="round" d="M 545.0579223632812 325.38128662109375 C 547.3452758789062 544.0161743164062 540.02099609375 551.331298828125 442.1699523925781 579.9828491210938 C 287.619873046875 689.417236328125 217.83424377441406 744.0162353515625 214.78280639648438 476.5400085449219 C 357.15289306640625 412.12109375 428.2620544433594 507.5668640136719 497.03619384765625 402.8642883300781 C 554.8593139648438 280.2405700683594 405.5928649902344 229.4482421875 545.0579223632812 325.38128662109375"/>
    <path stroke-width="0" fill="rgb(56, 226, 1)" opacity="0.027579516" stroke="rgb(47, 240, 188)" stroke-opacity="1.0" stroke-linecap="round" stroke-linejoin="round" d="M 413.7297058105469 300.2792663574219 C 403.2749938964844 296.92950439453125 415.1653747558594 286.4034118652344 407.85455322265625 351.61981201171875 C 400.28021240234375 248.2151336669922 400.4704284667969 270.771240234375 406.3582458496094 282.9507141113281 C 405.39996337890625 276.8558654785156 407.4006652832031 250.42535400390625 398.3851318359375 266.3083801269531 C 398.9461669921875 247.5402374267578 408.1070251464844 300.3211975097656 413.7297058105469 300.2792663574219"/>
    <path stroke-width="0" fill="rgb(53, 161, 95)" opacity="0.34494543" stroke="rgb(57, 64, 14)" stroke-opacity="1.0" stroke-linecap="round" stroke-linejoin="round" d="M 138.271240234375 467.7625732421875 C 245.22862243652344 514.0601806640625 153.716552734375 508.225341796875 54.01813507080078 543.4808349609375 C 42.44731140136719 537.2024536132812 37.819068908691406 530.1972045898438 94.75065612792969 514.6622924804688 C -85.81394958496094 407.1830139160156 8.317327499389648 428.60211181640625 82.42212677001953 486.5052490234375 C 10.807635307312012 407.3194580078125 26.69303321838379 450.93353271484375 138.271240234375 467.7625732421875"/>
    <path stroke-width="0" fill="rgb(337, 30, -14)" opacity="1.0081339" stroke="rgb(79, 177, 96)" stroke-opacity="1.0" stroke-linecap="round" stroke-linejoin="round" d="M 165.59095764160156 151.7898712158203 C 180.2711639404297 152.6303253173828 167.47549438476562 150.59413146972656 165.29769897460938 153.7056121826172 C 164.4155731201172 148.6205291748047 176.1584930419922 147.07162475585938 162.52540588378906 150.9477081298828 C 182.68045043945312 150.64085388183594 210.72174072265625 155.71067810058594 196.8931427001953 139.5752410888672 C 124.3938980102539 133.29269409179688 140.34947204589844 182.19393920898438 165.59095764160156 151.7898712158203"/>
    <path stroke-width="0" fill="rgb(71, 189, 59)" opacity="0.89324075" stroke="rgb(6, 17, 173)" stroke-opacity="1.0" stroke-linecap="round" stroke-linejoin="round" d="M 22.12499237060547 430.5494689941406 C 24.06554412841797 450.76470947265625 34.2395133972168 442.4743347167969 -61.62904739379883 453.79638671875 C -25.437917709350586 456.98138427734375 -32.49625015258789 449.58746337890625 -45.608245849609375 424.2277526855469 C -70.4252700805664 352.9305725097656 -53.38059616088867 355.91448974609375 0.8534114360809326 364.31707763671875 C 15.850903511047363 419.93084716796875 35.977813720703125 428.6785888671875 22.12499237060547 430.5494689941406"/>
    <path stroke-width="0" fill="rgb(101, 203, 105)" opacity="0.47016183" stroke="rgb(136, 228, 252)" stroke-opacity="1.0" stroke-linecap="round" stroke-linejoin="round" d="M 463.9019470214844 220.28318786621094 C 409.9859313964844 325.4775695800781 443.0728454589844 78.82980346679688 248.89622497558594 96.07434844970703 C 246.8164825439453 97.33040618896484 243.02772521972656 33.294010162353516 72.78003692626953 160.05709838867188 C 153.46490478515625 24.082386016845703 314.7275695800781 20.8272647857666 363.438720703125 -6.610779762268066 C 278.167236328125 30.47984504699707 437.5802001953125 19.00244140625 463.9019470214844 220.28318786621094"/>
    <path stroke-width="0" fill="rgb(19, 164, 93)" opacity="0.700011" stroke="rgb(169, 67, 5)" stroke-opacity="1.0" stroke-linecap="round" stroke-linejoin="round" d="M 381.29803466796875 456.1348571777344 C 261.9151611328125 557.5830688476562 126.11654663085938 391.48590087890625 104.64556121826172 612.0280151367188 C 87.05445098876953 561.8491821289062 110.97525787353516 535.2816162109375 88.43307495117188 536.546142578125 C 254.68222045898438 605.8834228515625 198.6302490234375 416.6325378417969 124.87483215332031 457.8155517578125 C 186.91787719726562 423.04193115234375 216.87765502929688 388.1333312988281 381.29803466796875 456.1348571777344"/>
    <path stroke-width="0" fill="rgb(102, 202, 104)" opacity="0.7374686" stroke="rgb(81, 97, 150)" stroke-opacity="1.0" stroke-linecap="round" stroke-linejoin="round" d="M 592.5258178710938 212.26490783691406 C 352.63458251953125 80.8858413696289 257.55841064453125 -62.54016876220703 260.5871887207031 108.24553680419922 C 330.7170104980469 107.83147430419922 305.94915771484375 111.0277099609375 254.26882934570312 93.12540435791016 C 297.0038146972656 -9.145994186401367 218.74224853515625 -60.108890533447266 431.8139343261719 -46.63698959350586 C 435.23529052734375 -22.609498977661133 522.3402099609375 -27.530353546142578 592.5258178710938 212.26490783691406"/>
    <path stroke-width="0" fill="rgb(89, 167, 91)" opacity="0.44874603" stroke="rgb(160, 222, 69)" stroke-opacity="1.0" stroke-linecap="round" stroke-linejoin="round" d="M 5.3487443923950195 470.55572509765625 C 25.674724578857422 479.68865966796875 25.591646194458008 489.4166259765625 -25.3996524810791 483.77886962890625 C 10.457038879394531 452.3590087890625 -18.080373764038086 413.81536865234375 -30.1299991607666 414.26678466796875 C -29.795747756958008 421.0752258300781 -21.742794036865234 415.0025329589844 -16.73131561279297 416.1391906738281 C 32.57512664794922 429.53399658203125 28.9091854095459 464.6682434082031 5.3487443923950195 470.55572509765625"/>
    <path stroke-width="0" fill="rgb(80, 201, 112)" opacity="0.8481553" stroke="rgb(47, 242, 175)" stroke-opacity="1.0" stroke-linecap="round" stroke-linejoin="round" d="M 328.15679931640625 246.6032257080078 C 335.4222412109375 226.57496643066406 324.0283203125 293.8038330078125 351.30938720703125 254.20632934570312 C 339.16827392578125 217.9979705810547 357.3948974609375 240.9664764404297 342.6092529296875 206.8851318359375 C 380.8213806152344 217.4288787841797 383.6376037597656 244.02003479003906 349.55718994140625 227.8693084716797 C 337.9612731933594 252.4463348388672 343.3231201171875 196.72222900390625 328.15679931640625 246.6032257080078"/>
    <path stroke-width="0" fill="rgb(16, -29, -5)" opacity="0.73899674" stroke="rgb(241, 186, 64)" stroke-opacity="1.0" stroke-linecap="round" stroke-linejoin="round" d="M 538.127685546875 347.8569641113281 C 397.22076416015625 385.2484130859375 426.6562805175781 303.8918151855469 439.468505859375 364.2406005859375 C 391.5948486328125 329.4225769042969 421.6349792480469 343.42950439453125 415.4425048828125 345.2136535644531 C 522.0968017578125 180.44149780273438 386.1894836425781 335.1448669433594 409.1544189453125 405.1159362792969 C 395.95428466796875 316.60186767578125 468.16302490234375 384.4348449707031 538.127685546875 347.8569641113281"/>
    <path stroke-width="0" fill="rgb(105, 195, 107)" opacity="0.5648264" stroke="rgb(132, 6, 52)" stroke-opacity="1.0" stroke-linecap="round" stroke-linejoin="round" d="M 337.65911865234375 115.5178451538086 C 359.1537780761719 149.6982879638672 429.65948486328125 168.16458129882812 299.59552001953125 159.00363159179688 C 142.39903259277344 146.59304809570312 220.16143798828125 218.83033752441406 194.55767822265625 115.05196380615234 C 274.29681396484375 117.30743408203125 323.5191955566406 52.637413024902344 129.49652099609375 127.82936096191406 C 251.72848510742188 72.39753723144531 270.17529296875 104.360107421875 337.65911865234375 115.5178451538086"/>
    <path stroke-width="0" fill="rgb(-18, 22, -49)" opacity="0.004832251" stroke="rgb(95, 118, 70)" stroke-opacity="1.0" stroke-linecap="round" stroke-linejoin="round" d="M 413.654541015625 257.6965637207031 C 407.8960876464844 261.0922546386719 402.0467224121094 226.60227966308594 404.5772705078125 290.42608642578125 C 402.6118469238281 218.69569396972656 392.13470458984375 254.23477172851562 395.01348876953125 244.50082397460938 C 398.7367248535156 260.51702880859375 403.29803466796875 251.4111328125 402.70001220703125 251.2938690185547 C 401.8013000488281 258.8188171386719 409.5089416503906 247.39259338378906 413.654541015625 257.6965637207031"/>
    <path stroke-width="0" fill="rgb(81, 108, 17)" opacity="0.39480776" stroke="rgb(182, 100, 144)" stroke-opacity="1.0" stroke-linecap="round" stroke-linejoin="round" d="M 103.37605285644531 447.5019836425781 C 106.41971588134766 355.0689697265625 99.02120208740234 415.8042297363281 100.18946838378906 450.03594970703125 C 96.0324478149414 456.7640686035156 103.05216217041016 451.6189270019531 99.7894058227539 452.0501708984375 C 101.14289855957031 456.6916809082031 99.46161651611328 448.0079345703125 101.42921447753906 451.69146728515625 C 102.27269744873047 454.22637939453125 96.22349548339844 446.85308837890625 103.37605285644531 447.5019836425781"/>
    <path stroke-width="0" fill="rgb(132, 166, 202)" opacity="0.562047" stroke="rgb(140, 149, 245)" stroke-opacity="1.0" stroke-linecap="round" stroke-linejoin="round" d="M 381.71612548828125 367.75836181640625 C 330.4122314453125 378.57135009765625 358.01348876953125 380.7351379394531 351.6435241699219 380.1700744628906 C 350.7614440917969 382.8495178222656 307.9783630371094 365.2449645996094 323.7491760253906 397.001953125 C 353.9437255859375 387.3276062011719 333.3140869140625 387.55352783203125 355.3114318847656 375.51776123046875 C 375.5799255371094 381.7045593261719 341.3690185546875 375.10687255859375 381.71612548828125 367.75836181640625"/>
    <path stroke-width="0" fill="rgb(256, 266, 243)" opacity="0.31104958" stroke="rgb(61, 25, 4)" stroke-opacity="1.0" stroke-linecap="round" stroke-linejoin="round" d="M 437.3486328125 334.5769348144531 C 432.31854248046875 331.3472595214844 454.798095703125 338.3367919921875 455.0887451171875 375.1156005859375 C 424.5981750488281 387.6084289550781 398.357666015625 374.81695556640625 433.8348388671875 403.9492492675781 C 379.24176025390625 333.49163818359375 457.963134765625 363.8326110839844 461.53643798828125 342.9239807128906 C 458.4582214355469 361.3628845214844 438.1446228027344 330.8502197265625 437.3486328125 334.5769348144531"/>
    <path stroke-width="0" fill="rgb(327, 237, 283)" opacity="0.25844127" stroke="rgb(170, 200, 71)" stroke-opacity="1.0" stroke-linecap="round" stroke-linejoin="round" d="M 349.7010498046875 287.8346862792969 C 366.13055419921875 275.37554931640625 350.7565612792969 281.3435363769531 331.0647888183594 334.6258850097656 C 326.34149169921875 316.0940246582031 315.12139892578125 312.16693115234375 352.24639892578125 277.6044921875 C 354.9390563964844 281.11065673828125 345.5216369628906 248.35704040527344 335.0223083496094 275.19403076171875 C 342.50714111328125 251.3618621826172 358.18121337890625 273.6413879394531 349.7010498046875 287.8346862792969"/>
    <path stroke-width="0" fill="rgb(182, 227, 175)" opacity="0.04469662" stroke="rgb(16, 123, 249)" stroke-opacity="1.0" stroke-linecap="round" stroke-linejoin="round" d="M 335.65423583984375 320.5103454589844 C 359.5099182128906 352.7135314941406 369.15966796875 330.6155700683594 303.4770812988281 338.3172912597656 C 400.08984375 348.9933776855469 343.2085876464844 339.3041076660156 343.97760009765625 324.61846923828125 C 339.7026672363281 336.19989013671875 318.77081298828125 328.6166687011719 311.3705749511719 302.8857116699219 C 332.0482177734375 343.5299072265625 346.6140441894531 323.6083984375 335.65423583984375 320.5103454589844"/>
    <path stroke-width="0" fill="rgb(301, 259, 262)" opacity="1.0180627" stroke="rgb(86, 245, 59)" stroke-opacity="1.0" stroke-linecap="round" stroke-linejoin="round" d="M 12.216482162475586 360.89422607421875 C 28.554044723510742 241.02926635742188 79.83534240722656 329.4590759277344 32.425315856933594 338.0886535644531 C 0.23084896802902222 335.3010559082031 37.81036376953125 338.82415771484375 24.976285934448242 334.729248046875 C 28.439001083374023 328.171875 39.81494140625 313.3699035644531 60.67157745361328 304.25048828125 C 44.19158935546875 312.5735168457031 32.67723846435547 313.7686767578125 12.216482162475586 360.89422607421875"/>
    <path stroke-width="0" fill="rgb(6, 7, 5)" opacity="0.43818682" stroke="rgb(126, 163, 93)" stroke-opacity="1.0" stroke-linecap="round" stroke-linejoin="round" d="M 364.0586853027344 345.1050109863281 C 350.3688049316406 337.6109313964844 370.899169921875 371.8348388671875 316.2164611816406 364.04193115234375 C 324.5690612792969 364.3326721191406 309.98687744140625 367.6488952636719 350.099853515625 366.7644958496094 C 364.97320556640625 356.306640625 362.223876953125 339.82763671875 313.0787353515625 339.3680114746094 C 318.3359680175781 331.0323181152344 309.8891296386719 348.4181823730469 364.0586853027344 345.1050109863281"/>
    <path stroke-width="0" fill="rgb(135, 196, 61)" opacity="0.5497804" stroke="rgb(231, 197, 84)" stroke-opacity="1.0" stroke-linecap="round" stroke-linejoin="round" d="M 100.01476287841797 -13.508398056030273 C 60.099430084228516 17.924062728881836 -6.498000621795654 74.8324203491211 2.2131593227386475 115.58171844482422 C -61.491607666015625 76.02222442626953 -38.8875617980957 43.441375732421875 -21.26168441772461 2.952770948410034 C -17.32050895690918 -10.0 -10.0 -17.32050895690918 7.241615295410156 -24.014564514160156 C 31.09577178955078 -33.32636642456055 38.93543243408203 -15.198221206665039 100.01476287841797 -13.508398056030273"/>
    <path stroke-width="0" fill="rgb(119, 170, 135)" opacity="0.23976447" stroke="rgb(103, 59, 33)" stroke-opacity="1.0" stroke-linecap="round" stroke-linejoin="round" d="M 206.20082092285156 180.0763397216797 C 222.7082061767578 170.72303771972656 214.0863494873047 176.9135284423828 207.75677490234375 185.6454620361328 C 248.821533203125 130.73081970214844 250.5969696044922 156.63632202148438 214.5419921875 188.12344360351562 C 216.84681701660156 179.3677520751953 226.92308044433594 172.10337829589844 231.15579223632812 175.3993377685547 C 227.34890747070312 133.38340759277344 204.81301879882812 157.90087890625 206.20082092285156 180.0763397216797"/>
    <path stroke-width="0" fill="rgb(269, 253, 254)" opacity="0.9715881" stroke="rgb(20, 22, 171)" stroke-opacity="1.0" stroke-linecap="round" stroke-linejoin="round" d="M 67.38961029052734 340.7020568847656 C 52.53120422363281 334.72540283203125 45.17140197753906 336.3756103515625 71.27540588378906 334.6178894042969 C 109.42518615722656 336.0445251464844 53.19820022583008 353.40509033203125 22.661331176757812 324.8099365234375 C -15.772509574890137 450.6902770996094 91.99508666992188 359.8788146972656 98.49871826171875 351.1536865234375 C 98.95223999023438 316.1963195800781 81.03598022460938 362.2685852050781 67.38961029052734 340.7020568847656"/>
    <path stroke-width="0" fill="rgb(219, 254, 136)" opacity="0.055775136" stroke="rgb(107, 142, 219)" stroke-opacity="1.0" stroke-linecap="round" stroke-linejoin="round" d="M 99.60050201416016 313.10260009765625 C 124.89677429199219 315.1396789550781 109.19490814208984 333.71063232421875 90.71782684326172 355.34429931640625 C 10.801828384399414 409.3309326171875 7.434561252593994 254.9091033935547 99.61129760742188 262.8641357421875 C 142.2379913330078 315.5548095703125 52.18696975708008 337.3756408691406 118.11598205566406 306.8741455078125 C 142.12721252441406 287.2677917480469 129.33624267578125 286.5606384277344 99.60050201416016 313.10260009765625"/>
    <path stroke-width="0" fill="rgb(-14, -11, 1)" opacity="0.83900315" stroke="rgb(14, 177, 198)" stroke-opacity="1.0" stroke-linecap="round" stroke-linejoin="round" d="M 32.05260467529297 292.7899169921875 C 29.057514190673828 281.87640380859375 55.44988250732422 317.1044921875 103.56144714355469 356.37005615234375 C 62.15979766845703 312.8398132324219 22.275802612304688 286.7925720214844 33.817806243896484 273.57843017578125 C 24.6560001373291 289.64202880859375 42.415016174316406 273.2882385253906 22.233444213867188 318.1835021972656 C 11.91593074798584 297.5777282714844 52.00797653198242 288.31170654296875 32.05260467529297 292.7899169921875"/>
    <path stroke-width="0" fill="rgb(117, 183, 125)" opacity="0.12631547" stroke="rgb(66, 95, 149)" stroke-opacity="1.0" stroke-linecap="round" stroke-linejoin="round" d="M 343.5703125 131.681640625 C 331.71343994140625 138.32174682617188 323.71295166015625 138.58653259277344 316.8472595214844 135.45883178710938 C 377.2907409667969 124.3615951538086 367.8342590332031 128.86166381835938 358.02276611328125 109.8557357788086 C 302.4394836425781 134.3292236328125 283.6621398925781 96.29450988769531 327.4917907714844 103.22010040283203 C 355.2470397949219 150.3598175048828 366.0164489746094 161.8104248046875 343.5703125 131.681640625"/>
    <path stroke-width="0" fill="rgb(5, -20, 37)" opacity="0.9404747" stroke="rgb(203, 19, 132)" stroke-opacity="1.0" stroke-linecap="round" stroke-linejoin="round" d="M 431.82763671875 361.69873046875 C 518.048828125 415.1122741699219 513.6361694335938 411.0868835449219 438.0678405761719 364.037109375 C 396.8633117675781 345.320556640625 477.0006408691406 374.6134033203125 417.6435546875 354.607421875 C 424.8648681640625 365.6094970703125 444.5058898925781 359.57525634765625 403.04693603515625 341.9112243652344 C 383.23309326171875 370.62982177734375 423.8813171386719 352.3119812011719 431.82763671875 361.69873046875"/>
    <path stroke-width="0" fill="rgb(153, 160, 157)" opacity="0.27753413" stroke="rgb(109, 130, 136)" stroke-opacity="1.0" stroke-linecap="round" stroke-linejoin="round" d="M 327.92108154296875 140.7120819091797 C 324.79840087890625 161.99038696289062 306.5809020996094 166.23324584960938 302.1958312988281 166.9119873046875 C 345.178466796875 177.9713134765625 315.6905822753906 170.96673583984375 320.9192810058594 200.81735229492188 C 307.6622619628906 186.29489135742188 323.6764831542969 169.47425842285156 302.75872802734375 158.0593719482422 C 304.1554870605469 161.984619140625 323.3148193359375 166.40565490722656 327.92108154296875 140.7120819091797"/>
    <path stroke-width="0" fill="rgb(24, -45, 16)" opacity="0.6403315" stroke="rgb(70, 32, 100)" stroke-opacity="1.0" stroke-linecap="round" stroke-linejoin="round" d="M 189.07960510253906 405.2353515625 C 96.92744445800781 342.88482666015625 30.178422927856445 342.0855407714844 131.2175750732422 354.272705078125 C 124.46436309814453 323.8231201171875 127.5768814086914 336.6051940917969 130.1353759765625 349.5835266113281 C 88.67884063720703 353.5799560546875 116.12409973144531 367.97381591796875 158.38885498046875 453.6001892089844 C 75.2204818725586 309.8358459472656 97.23118591308594 359.90478515625 189.07960510253906 405.2353515625"/>
    <path stroke-width="0" fill="rgb(128, 170, 142)" opacity="0.39409003" stroke="rgb(224, 116, 184)" stroke-opacity="1.0" stroke-linecap="round" stroke-linejoin="round" d="M 191.7489471435547 181.74267578125 C 174.09288024902344 178.4298858642578 169.69361877441406 182.80902099609375 183.659423828125 188.97427368164062 C 201.82826232910156 157.90213012695312 195.62857055664062 162.12326049804688 194.3051300048828 172.38546752929688 C 179.30612182617188 195.41368103027344 199.6836700439453 181.7492218017578 208.13479614257812 184.90081787109375 C 188.41397094726562 171.8325653076172 157.6590118408203 209.23983764648438 191.7489471435547 181.74267578125"/>
    <path stroke-width="0" fill="rgb(38, 94, 25)" opacity="0.25125352" stroke="rgb(192, 162, 61)" stroke-opacity="1.0" stroke-linecap="round" stroke-linejoin="round" d="M 8.463932991027832 326.530029296875 C 79.0504150390625 347.50433349609375 53.70359420776367 329.8291931152344 53.312721252441406 298.6459045410156 C 55.15408706665039 316.84375 56.55335235595703 309.8127746582031 48.739139556884766 313.0282897949219 C 57.40864944458008 315.0172424316406 49.28053283691406 312.95941162109375 54.33335494995117 309.88916015625 C 57.85452651977539 326.0940246582031 70.18443298339844 350.3215026855469 8.463932991027832 326.530029296875"/>
    <path stroke-width="0" fill="rgb(30, 33, 31)" opacity="0.04591929" stroke="rgb(90, 90, 4)" stroke-opacity="1.0" stroke-linecap="round" stroke-linejoin="round" d="M 163.54232788085938 163.5413818359375 C 161.6602020263672 166.74827575683594 167.11614990234375 167.503662109375 184.95555114746094 162.41151428222656 C 163.1826934814453 164.2059326171875 162.50433349609375 158.1796417236328 161.51878356933594 206.70359802246094 C 155.89076232910156 164.4745635986328 163.99929809570312 159.78375244140625 165.5018768310547 159.39967346191406 C 154.3874969482422 163.01380920410156 179.4601287841797 144.37265014648438 163.54232788085938 163.5413818359375"/>
    <path stroke-width="0" fill="rgb(150, 146, 161)" opacity="0.24055827" stroke="rgb(248, 252, 104)" stroke-opacity="1.0" stroke-linecap="round" stroke-linejoin="round" d="M 108.90267181396484 240.06280517578125 C 101.23121643066406 225.16656494140625 101.63358306884766 241.5266876220703 128.2654266357422 242.42015075683594 C 136.62786865234375 209.05242919921875 117.59041595458984 221.43063354492188 128.44412231445312 230.69662475585938 C 113.78087615966797 228.45297241210938 126.29310607910156 148.3230438232422 117.05673217773438 188.9469451904297 C 117.66639709472656 211.4861297607422 130.30923461914062 247.0078125 108.90267181396484 240.06280517578125"/>
    <path stroke-width="0" fill="rgb(-8, 3, 12)" opacity="0.81134355" stroke="rgb(162, 125, 252)" stroke-opacity="1.0" stroke-linecap="round" stroke-linejoin="round" d="M 465.5791931152344 358.32574462890625 C 364.2821350097656 360.7558898925781 402.2720947265625 340.9100646972656 415.1847229003906 369.06915283203125 C 430.3529052734375 331.5384521484375 423.0086364746094 348.34686279296875 353.2377624511719 449.2727966308594 C 417.1756286621094 344.13067626953125 429.07666015625 357.700927734375 363.0915222167969 366.3985595703125 C 361.9575500488281 379.22314453125 378.717041015625 350.5237731933594 465.5791931152344 358.32574462890625"/>
    <path stroke-width="0" fill="rgb(60, 175, 105)" opacity="0.07304786" stroke="rgb(91, 211, 235)" stroke-opacity="1.0" stroke-linecap="round" stroke-linejoin="round" d="M 361.4709167480469 318.768798828125 C 352.6371154785156 316.4114685058594 362.2177734375 321.71478271484375 353.08026123046875 378.7435302734375 C 346.52874755859375 375.7973937988281 360.8349609375 375.8059387207031 358.1357116699219 320.920654296875 C 356.51422119140625 325.3556213378906 360.08587646484375 316.701171875 380.30712890625 339.5326843261719 C 347.0552978515625 323.86767578125 344.4408874511719 316.409423828125 361.4709167480469 318.768798828125"/>
    <path stroke-width="0" fill="rgb(90, -13, -15)" opacity="1.0373118" stroke="rgb(59, 88, 207)" stroke-opacity="1.0" stroke-linecap="round" stroke-linejoin="round" d="M 441.09844970703125 342.0582275390625 C 483.4792175292969 315.8323669433594 457.5447082519531 329.7771911621094 463.92559814453125 329.0541076660156 C 463.83349609375 326.076171875 468.6388244628906 323.9523010253906 474.54437255859375 320.3365783691406 C 459.0682067871094 327.1947021484375 472.37628173828125 316.90057373046875 481.6217041015625 315.7423095703125 C 433.1380615234375 338.418212890625 405.5719909667969 368.46990966796875 441.09844970703125 342.0582275390625"/>
    <path stroke-width="0" fill="rgb(253, 220, 166)" opacity="0.0034011586" stroke="rgb(63, 27, 242)" stroke-opacity="1.0" stroke-linecap="round" stroke-linejoin="round" d="M 106.05127716064453 403.2022399902344 C 43.4146614074707 436.1481018066406 56.03800582885742 453.5724792480469 23.608495712280273 386.06793212890625 C 120.5317153930664 408.1439514160156 96.93922424316406 409.41876220703125 47.0263557434082 411.0157775878906 C 80.26225280761719 452.3436584472656 122.84467315673828 464.9605407714844 103.33573150634766 408.1559753417969 C 84.5971450805664 402.6597595214844 81.81546020507812 403.537841796875 106.05127716064453 403.2022399902344"/>
    <path stroke-width="0" fill="rgb(107, 202, 98)" opacity="0.39185613" stroke="rgb(175, 14, 186)" stroke-opacity="1.0" stroke-linecap="round" stroke-linejoin="round" d="M 61.35874557495117 251.58200073242188 C 56.946739196777344 251.73199462890625 54.13783645629883 272.1773681640625 42.33679962158203 236.82757568359375 C 78.01726531982422 246.84352111816406 72.79757690429688 235.71241760253906 53.33335876464844 241.158935546875 C 57.891693115234375 235.098388671875 54.42831039428711 119.58375549316406 39.5107307434082 246.55374145507812 C 128.06727600097656 212.4823760986328 150.79689025878906 260.36895751953125 61.35874557495117 251.58200073242188"/>
    <path stroke-width="0" fill="rgb(127, 171, 140)" opacity="0.3461279" stroke="rgb(213, 60, 128)" stroke-opacity="1.0" stroke-linecap="round" stroke-linejoin="round" d="M 62.44020462036133 251.3123779296875 C 85.54188537597656 252.59222412109375 83.94470977783203 243.4921875 47.62177276611328 239.41140747070312 C 36.363502502441406 242.10911560058594 73.5331802368164 233.92295837402344 117.31748962402344 225.1534881591797 C 77.41195678710938 238.08311462402344 70.5131607055664 247.9049072265625 56.796878814697266 245.7491912841797 C 100.08715057373047 243.53970336914062 112.78170776367188 251.52162170410156 62.44020462036133 251.3123779296875"/>
    <path stroke-width="0" fill="rgb(7, -40, 36)" opacity="0.69070023" stroke="rgb(246, 139, 70)" stroke-opacity="1.0" stroke-linecap="round" stroke-linejoin="round" d="M 336.57037353515625 206.41580200195312 C 323.98492431640625 226.39846801757812 327.3176574707031 212.8032989501953 310.8611145019531 217.02581787109375 C 350.3247375488281 218.3792724609375 330.715087890625 193.06027221679688 330.78533935546875 236.47390747070312 C 336.3700256347656 234.90353393554688 338.7901916503906 201.99566650390625 338.18804931640625 217.8502655029297 C 331.3175964355469 225.25404357910156 340.29705810546875 231.4293975830078 336.57037353515625 206.41580200195312"/>
    <path stroke-width="0" fill="rgb(104, 191, 139)" opacity="0.49958408" stroke="rgb(228, 103, 140)" stroke-opacity="1.0" stroke-linecap="round" stroke-linejoin="round" d="M 405.7673645019531 218.8904571533203 C 397.1133117675781 247.75161743164062 382.1264953613281 245.9287567138672 428.6564636230469 242.5386199951172 C 455.4295959472656 243.5940399169922 393.6590576171875 226.36387634277344 392.788330078125 239.63308715820312 C 396.8132629394531 227.205322265625 400.597412109375 248.04074096679688 406.8966064453125 235.50543212890625 C 399.70599365234375 246.97251892089844 410.18963623046875 242.91204833984375 405.7673645019531 218.8904571533203"/>
    <path stroke-width="0" fill="rgb(123, 178, 144)" opacity="0.38334295" stroke="rgb(64, 113, 26)" stroke-opacity="1.0" stroke-linecap="round" stroke-linejoin="round" d="M 134.34481811523438 234.14950561523438 C 109.09317779541016 227.50706481933594 116.4717025756836 219.93795776367188 119.63125610351562 227.6249237060547 C 140.91619873046875 244.54905700683594 105.13178253173828 241.550048828125 74.91939544677734 240.04627990722656 C 150.56643676757812 233.35104370117188 76.46711730957031 202.91592407226562 123.82666015625 229.18629455566406 C 106.05026245117188 243.4185028076172 148.1734161376953 247.91546630859375 134.34481811523438 234.14950561523438"/>
    <path stroke-width="0" fill="rgb(150, 155, 144)" opacity="0.21797642" stroke="rgb(0, 0, 0)" stroke-opacity="0.0" stroke-linecap="round" stroke-linejoin="round" d="M 324.5489807128906 0.06290780752897263 C 326.1266784667969 3.688621759414673 324.68756103515625 3.79325270652771 316.45245361328125 4.783786773681641 C 322.6998596191406 6.815250873565674 323.0552978515625 7.80512809753418 322.00067138671875 2.201827049255371 C 320.1686706542969 -3.9573168754577637 321.26348876953125 -4.993778228759766 324.8808898925781 -4.897581577301025 C 328.5985412597656 -4.866592884063721 328.6929931640625 -4.492190837860107 324.5489807128906 0.06290780752897263"/>
    <path stroke-width="0" fill="rgb(91, 209, 112)" opacity="0.3155636" stroke="rgb(0, 0, 0)" stroke-opacity="0.0" stroke-linecap="round" stroke-linejoin="round" d="M 516.55615234375 22.354049682617188 C 516.9351806640625 29.113008499145508 515.4637451171875 35.430965423583984 511.2099304199219 30.821378707885742 C 500.4808654785156 25.770612716674805 498.7389831542969 20.956676483154297 499.46923828125 10.673650741577148 C 511.427978515625 21.2097225189209 507.0436706542969 20.335397720336914 501.4317626953125 0.24398235976696014 C 516.3898315429688 4.309997081756592 515.6668090820312 15.672572135925293 516.55615234375 22.354049682617188"/>
    <path stroke-width="0" fill="rgb(148, 138, 142)" opacity="0.28663397" stroke="rgb(0, 0, 0)" stroke-opacity="0.0" stroke-linecap="round" stroke-linejoin="round" d="M 27.10665512084961 2.5940916538238525 C 27.887659072875977 8.49879264831543 25.619321823120117 12.704671859741211 23.6934757232666 0.13806548714637756 C 16.251737594604492 9.513914108276367 17.94001007080078 3.1436994075775146 19.89504623413086 1.5874648094177246 C 18.379270553588867 -2.5981223583221436 17.136119842529297 -3.560039758682251 21.004762649536133 -2.7956597805023193 C 25.90042495727539 -0.08179379254579544 27.950397491455078 3.1622984409332275 27.10665512084961 2.5940916538238525"/>
    <path stroke-width="0" fill="rgb(108, 140, 217)" opacity="0.1342909" stroke="rgb(0, 0, 0)" stroke-opacity="0.0" stroke-linecap="round" stroke-linejoin="round" d="M 516.6698608398438 13.376547813415527 C 515.3096313476562 17.86327362060547 513.9749755859375 18.769004821777344 512.2090454101562 15.249491691589355 C 499.1410217285156 17.593395233154297 492.21356201171875 19.248743057250977 494.48974609375 10.082085609436035 C 501.05914306640625 2.256532907485962 501.76007080078125 3.8350486755371094 507.2852478027344 12.169242858886719 C 514.9287719726562 14.772947311401367 515.4725341796875 11.581391334533691 516.6698608398438 13.376547813415527"/>
    <path stroke-width="0" fill="rgb(187, 114, 169)" opacity="0.4792732" stroke="rgb(0, 0, 0)" stroke-opacity="0.0" stroke-linecap="round" stroke-linejoin="round" d="M 98.99824523925781 -3.231156587600708 C 96.03031158447266 -1.0675538778305054 96.31717681884766 -0.26596516370773315 99.01737213134766 1.8176207542419434 C 94.97724151611328 3.602276086807251 94.81523895263672 -0.676089882850647 93.05213165283203 -3.7691569328308105 C 89.95406341552734 -2.899209499359131 92.71546173095703 -5.8937578201293945 96.7063217163086 -6.96558141708374 C 100.74166107177734 -5.906624794006348 103.8768310546875 -3.0837278366088867 98.99824523925781 -3.231156587600708"/>
    <path stroke-width="0" fill="rgb(182, 136, 150)" opacity="0.31467384" stroke="rgb(0, 0, 0)" stroke-opacity="0.0" stroke-linecap="round" stroke-linejoin="round" d="M 49.4098014831543 2.612027168273926 C 45.352134704589844 4.287338733673096 45.81461715698242 7.2088236808776855 49.235877990722656 10.515960693359375 C 47.028743743896484 12.289852142333984 48.924957275390625 7.9285969734191895 46.96706771850586 9.438366889953613 C 44.47878646850586 10.28004264831543 46.00527572631836 6.740045547485352 49.182579040527344 4.247528553009033 C 47.36524963378906 4.2819085121154785 50.551719665527344 4.359590530395508 49.4098014831543 2.612027168273926"/>
    <path stroke-width="0" fill="rgb(130, 151, 120)" opacity="0.10656862" stroke="rgb(0, 0, 0)" stroke-opacity="0.0" stroke-linecap="round" stroke-linejoin="round" d="M 165.4226531982422 12.650467872619629 C 167.49095153808594 15.125096321105957 164.52838134765625 16.52400779724121 162.9906005859375 15.99909782409668 C 157.28074645996094 15.735955238342285 153.89877319335938 18.358776092529297 157.68951416015625 14.785710334777832 C 161.93600463867188 13.26424789428711 167.89816284179688 15.758163452148438 163.39859008789062 6.8530120849609375 C 164.37533569335938 1.7123057842254639 167.17771911621094 6.0038323402404785 165.4226531982422 12.650467872619629"/>
    <path stroke-width="0" fill="rgb(88, 182, 155)" opacity="0.00088861893" stroke="rgb(0, 0, 0)" stroke-opacity="0.0" stroke-linecap="round" stroke-linejoin="round" d="M 418.45318603515625 19.799400329589844 C 422.05401611328125 24.663015365600586 423.7214660644531 24.043787002563477 423.2756652832031 18.869417190551758 C 413.65350341796875 20.695219039916992 410.49993896484375 19.00432777404785 412.1957702636719 20.855985641479492 C 413.1671447753906 13.145818710327148 414.56866455078125 6.276711940765381 413.32659912109375 15.047172546386719 C 422.89453125 17.403854370117188 424.6423034667969 16.742290496826172 418.45318603515625 19.799400329589844"/>
    <path stroke-width="0" fill="rgb(142, 175, 129)" opacity="0.31105003" stroke="rgb(0, 0, 0)" stroke-opacity="0.0" stroke-linecap="round" stroke-linejoin="round" d="M 56.844478607177734 1.6391304731369019 C 50.43057632446289 0.9544607400894165 46.2095832824707 4.986343860626221 46.41665267944336 12.612508773803711 C 47.789527893066406 1.1187254190444946 44.92201614379883 -0.8052728176116943 42.95656204223633 -3.229250431060791 C 39.76593780517578 -2.464306592941284 42.607784271240234 -5.353348255157471 46.592411041259766 -6.521219253540039 C 50.88168716430664 -5.748378276824951 52.987674713134766 -2.0723514556884766 56.844478607177734 1.6391304731369019"/>
    <path stroke-width="0" fill="rgb(166, 150, 128)" opacity="0.22132042" stroke="rgb(0, 0, 0)" stroke-opacity="0.0" stroke-linecap="round" stroke-linejoin="round" d="M 46.196571350097656 15.931028366088867 C 48.492855072021484 15.535415649414062 47.141605377197266 15.724252700805664 46.617698669433594 16.799179077148438 C 48.884944915771484 21.60110855102539 46.98308563232422 17.20818328857422 49.35981750488281 14.911664009094238 C 47.56429672241211 16.825572967529297 47.18403244018555 14.085054397583008 45.62794876098633 11.721796989440918 C 48.61183547973633 11.243586540222168 48.627620697021484 17.15335464477539 46.196571350097656 15.931028366088867"/>
    <path stroke-width="0" fill="rgb(111, 145, 89)" opacity="0.06378613" stroke="rgb(0, 0, 0)" stroke-opacity="0.0" stroke-linecap="round" stroke-linejoin="round" d="M 391.4397277832031 445.6014709472656 C 388.3209533691406 446.0462951660156 385.848876953125 448.42303466796875 378.90032958984375 445.2591552734375 C 379.8793640136719 451.7606201171875 375.3437805175781 448.41302490234375 370.54327392578125 435.6000671386719 C 368.8559875488281 434.3244934082031 378.95281982421875 437.8243103027344 389.11224365234375 437.81390380859375 C 388.51275634765625 436.30419921875 390.7991943359375 439.4273681640625 391.4397277832031 445.6014709472656"/>
    <path stroke-width="0" fill="rgb(295, 95, 11)" opacity="0.33732426" stroke="rgb(0, 0, 0)" stroke-opacity="0.0" stroke-linecap="round" stroke-linejoin="round" d="M 283.32550048828125 376.9786376953125 C 291.3054504394531 378.2015380859375 287.4667663574219 378.73382568359375 282.5411682128906 377.1925354003906 C 279.6950378417969 388.9817810058594 271.9243469238281 389.7084655761719 276.04693603515625 380.0309753417969 C 277.8717346191406 369.3330078125 277.0181579589844 365.7974853515625 286.611328125 367.27313232421875 C 289.4645080566406 368.61407470703125 282.8284606933594 375.1331481933594 283.32550048828125 376.9786376953125"/>
    <path stroke-width="0" fill="rgb(105, 186, 111)" opacity="0.31914407" stroke="rgb(0, 0, 0)" stroke-opacity="0.0" stroke-linecap="round" stroke-linejoin="round" d="M 462.1940002441406 238.43568420410156 C 460.1036376953125 237.2941436767578 456.677001953125 236.87709045410156 450.4113464355469 243.6110076904297 C 454.9817810058594 243.7671356201172 458.54705810546875 235.16653442382812 457.8568420410156 236.02699279785156 C 458.2261657714844 238.135498046875 456.2095642089844 230.29335021972656 460.5822448730469 221.33251953125 C 462.39093017578125 228.63771057128906 462.803466796875 235.39047241210938 462.1940002441406 238.43568420410156"/>
    <path stroke-width="0" fill="rgb(151, 162, 172)" opacity="-0.0011102345" stroke="rgb(0, 0, 0)" stroke-opacity="0.0" stroke-linecap="round" stroke-linejoin="round" d="M 348.2100524902344 137.9893798828125 C 355.0404052734375 134.31204223632812 352.6346740722656 137.5834503173828 352.37249755859375 136.45660400390625 C 351.3279724121094 132.2317657470703 353.9087219238281 127.20339965820312 348.9448547363281 127.7124252319336 C 340.3373107910156 131.01312255859375 347.7418518066406 132.92254638671875 345.15625 132.02113342285156 C 342.9108581542969 132.22686767578125 345.93359375 137.14369201660156 348.2100524902344 137.9893798828125"/>
    <path stroke-width="0" fill="rgb(100, 94, 223)" opacity="-0.096531086" stroke="rgb(0, 0, 0)" stroke-opacity="0.0" stroke-linecap="round" stroke-linejoin="round" d="M 420.2872619628906 255.45166015625 C 419.8161926269531 259.10260009765625 410.3753356933594 258.00543212890625 410.5419616699219 257.6927795410156 C 403.497802734375 257.8522033691406 402.8520812988281 259.2518310546875 405.9012451171875 255.41075134277344 C 408.5169677734375 249.85459899902344 407.2618408203125 243.28968811035156 413.28802490234375 243.10775756835938 C 420.3605041503906 243.6524658203125 420.22637939453125 244.8970184326172 420.2872619628906 255.45166015625"/>
    <path stroke-width="0" fill="rgb(171, 135, 232)" opacity="0.014727281" stroke="rgb(0, 0, 0)" stroke-opacity="0.0" stroke-linecap="round" stroke-linejoin="round" d="M 278.5627136230469 320.0467529296875 C 278.942138671875 328.28192138671875 286.0631103515625 326.763427734375 276.563232421875 325.2113952636719 C 273.0057373046875 320.4423522949219 272.6882629394531 310.6263427734375 271.6176452636719 310.478759765625 C 268.1780090332031 306.914306640625 269.84442138671875 309.5941467285156 277.5777893066406 309.4341735839844 C 276.7654724121094 304.210693359375 278.012939453125 312.4798278808594 278.5627136230469 320.0467529296875"/>
    <path stroke-width="0" fill="rgb(253, 159, 213)" opacity="0.26904455" stroke="rgb(0, 0, 0)" stroke-opacity="0.0" stroke-linecap="round" stroke-linejoin="round" d="M 157.5474853515625 -65.91089630126953 C 156.47569274902344 -61.9109001159668 153.5474853515625 -58.982696533203125 149.5474853515625 -57.9109001159668 C 145.5474853515625 -58.982696533203125 142.61927795410156 -61.9109001159668 141.5474853515625 -65.91089630126953 C 142.61927795410156 -69.91089630126953 145.5474853515625 -72.83910369873047 149.5474853515625 -73.91089630126953 C 153.5474853515625 -72.83910369873047 156.47569274902344 -69.91089630126953 157.5474853515625 -65.91089630126953"/>
    <path stroke-width="0" fill="rgb(145, 173, 183)" opacity="0.3029922" stroke="rgb(0, 0, 0)" stroke-opacity="0.0" stroke-linecap="round" stroke-linejoin="round" d="M 43.862083435058594 290.7319641113281 C 46.287471771240234 290.5080261230469 41.5539665222168 292.3863525390625 39.666194915771484 296.0245056152344 C 40.493682861328125 298.118896484375 34.97532272338867 297.3078308105469 37.618194580078125 294.09454345703125 C 38.56501007080078 289.3719787597656 38.23196029663086 288.5719299316406 36.89564895629883 289.0353698730469 C 33.954994201660156 295.62115478515625 41.8957405090332 299.2278137207031 43.862083435058594 290.7319641113281"/>
    <path stroke-width="0" fill="rgb(134, 186, 132)" opacity="0.13333274" stroke="rgb(0, 0, 0)" stroke-opacity="0.0" stroke-linecap="round" stroke-linejoin="round" d="M 275.67633056640625 44.4075927734375 C 271.43084716796875 47.76408386230469 277.06634521484375 53.069122314453125 273.3836364746094 47.992733001708984 C 273.4248046875 53.4503288269043 273.8448181152344 52.240055084228516 272.087158203125 47.510337829589844 C 270.9261474609375 41.02838897705078 271.61688232421875 37.707733154296875 276.5639953613281 41.45073318481445 C 283.530029296875 41.72654342651367 285.88323974609375 43.3802604675293 275.67633056640625 44.4075927734375"/>
    <path stroke-width="0" fill="rgb(183, 248, 54)" opacity="0.122340225" stroke="rgb(0, 0, 0)" stroke-opacity="0.0" stroke-linecap="round" stroke-linejoin="round" d="M 21.254751205444336 3.4710471630096436 C 21.230670928955078 16.080772399902344 26.964942932128906 15.468636512756348 14.431117057800293 17.12429428100586 C -1.9073189496994019 17.188810348510742 1.9477969408035278 18.135807037353516 0.364240825176239 5.0399298667907715 C 3.7654776573181152 -1.439700961112976 9.513444900512695 -2.4786782264709473 14.489882469177246 -3.8804941177368164 C 20.593172073364258 -4.62611722946167 22.79337501525879 -1.5748146772384644 21.254751205444336 3.4710471630096436"/>
    <path stroke-width="0" fill="rgb(132, 152, 187)" opacity="0.0073417127" stroke="rgb(0, 0, 0)" stroke-opacity="0.0" stroke-linecap="round" stroke-linejoin="round" d="M 241.94300842285156 91.9425048828125 C 233.31790161132812 93.32737731933594 231.46949768066406 97.30732727050781 231.61180114746094 105.60778045654297 C 229.76600646972656 103.52111053466797 228.41065979003906 98.47215270996094 228.85467529296875 96.48274230957031 C 227.806396484375 93.44635009765625 229.59654235839844 88.55767059326172 229.0219268798828 89.04170227050781 C 236.04347229003906 87.9267578125 240.94168090820312 90.78639221191406 241.94300842285156 91.9425048828125"/>
    <path stroke-width="0" fill="rgb(155, 213, 254)" opacity="0.0800238" stroke="rgb(0, 0, 0)" stroke-opacity="0.0" stroke-linecap="round" stroke-linejoin="round" d="M 79.19285583496094 -24.607269287109375 C 78.12105560302734 -20.607269287109375 75.19285583496094 -17.679065704345703 71.19285583496094 -16.607269287109375 C 67.19285583496094 -17.679065704345703 64.2646484375 -20.607269287109375 63.19285583496094 -24.607269287109375 C 64.2646484375 -28.607269287109375 67.19285583496094 -31.535472869873047 71.19285583496094 -32.607269287109375 C 75.19285583496094 -31.535472869873047 78.12105560302734 -28.607269287109375 79.19285583496094 -24.607269287109375"/>
    <path stroke-width="0" fill="rgb(153, 188, 105)" opacity="0.17557044" stroke="rgb(0, 0, 0)" stroke-opacity="0.0" stroke-linecap="round" stroke-linejoin="round" d="M 236.18934631347656 10.769840240478516 C 238.82827758789062 17.93956184387207 237.621337890625 19.363967895507812 233.79440307617188 14.408985137939453 C 230.2035675048828 13.305432319641113 225.93235778808594 15.186760902404785 223.48416137695312 13.767430305480957 C 218.32540893554688 4.6709723472595215 219.63902282714844 5.442323207855225 230.09063720703125 7.227767467498779 C 235.4495086669922 2.008779525756836 235.59388732910156 4.563894271850586 236.18934631347656 10.769840240478516"/>
    <path stroke-width="0" fill="rgb(92, 217, 49)" opacity="0.055417944" stroke="rgb(0, 0, 0)" stroke-opacity="0.0" stroke-linecap="round" stroke-linejoin="round" d="M 140.28598022460938 55.39240646362305 C 132.081298828125 55.98100662231445 127.54300689697266 58.26605224609375 122.20645141601562 62.97467803955078 C 121.55463409423828 60.21707534790039 115.42672729492188 59.12990951538086 115.7828598022461 55.67605209350586 C 121.7551498413086 53.26963806152344 125.10550689697266 50.21241760253906 126.80519104003906 47.27860641479492 C 127.99813842773438 47.14211654663086 130.75698852539062 49.418434143066406 140.28598022460938 55.39240646362305"/>
    <path stroke-width="0" fill="rgb(173, 286, 174)" opacity="-0.0058116503" stroke="rgb(0, 0, 0)" stroke-opacity="0.0" stroke-linecap="round" stroke-linejoin="round" d="M 177.93588256835938 368.4322204589844 C 177.39588928222656 369.0419006347656 177.63482666015625 376.69122314453125 176.75509643554688 379.6639099121094 C 177.4350128173828 382.294921875 173.8654327392578 380.119873046875 175.0557861328125 380.9049072265625 C 174.13111877441406 375.2044982910156 174.82530212402344 368.9361877441406 174.66976928710938 369.69940185546875 C 177.56065368652344 372.3089904785156 182.64959716796875 375.0533142089844 177.93588256835938 368.4322204589844"/>
    <path stroke-width="0" fill="rgb(100, 71, -13)" opacity="0.2688187" stroke="rgb(0, 0, 0)" stroke-opacity="0.0" stroke-linecap="round" stroke-linejoin="round" d="M 368.5907897949219 254.17958068847656 C 362.1558532714844 255.8378143310547 359.63232421875 252.64224243164062 362.1473083496094 258.99267578125 C 359.9085693359375 258.5924072265625 358.3658142089844 253.0940704345703 350.5504455566406 238.50843811035156 C 349.0647277832031 242.18112182617188 353.9962463378906 252.48800659179688 356.4194641113281 253.82371520996094 C 360.66400146484375 253.3197784423828 365.2674255371094 254.00204467773438 368.5907897949219 254.17958068847656"/>
    <path stroke-width="0" fill="rgb(128, 133, 118)" opacity="0.09141336" stroke="rgb(0, 0, 0)" stroke-opacity="0.0" stroke-linecap="round" stroke-linejoin="round" d="M 57.94244384765625 438.6092224121094 C 58.88325500488281 438.7760009765625 59.56072998046875 449.462890625 60.67647171020508 446.2183532714844 C 53.73210525512695 436.0321350097656 44.65617370605469 436.8191833496094 42.472625732421875 435.1108703613281 C 49.596500396728516 440.3247985839844 49.91550064086914 435.2345275878906 63.93384552001953 424.60223388671875 C 57.087501525878906 420.9732971191406 56.17564010620117 431.5846862792969 57.94244384765625 438.6092224121094"/>
    <path stroke-width="0" fill="rgb(216, 240, 202)" opacity="-0.0037503252" stroke="rgb(0, 0, 0)" stroke-opacity="0.0" stroke-linecap="round" stroke-linejoin="round" d="M 455.5696716308594 384.8503112792969 C 457.8487854003906 393.1153869628906 455.1883850097656 397.39764404296875 451.0492858886719 400.8865051269531 C 439.94854736328125 394.08929443359375 435.58563232421875 393.6314697265625 438.3169860839844 388.05328369140625 C 438.001953125 376.5879211425781 440.3052062988281 375.0293273925781 441.36956787109375 364.19976806640625 C 460.27728271484375 362.0335388183594 464.0542907714844 365.1336364746094 455.5696716308594 384.8503112792969"/>
    <path stroke-width="0" fill="rgb(141, 152, 138)" opacity="0.115082234" stroke="rgb(0, 0, 0)" stroke-opacity="0.0" stroke-linecap="round" stroke-linejoin="round" d="M 93.21485137939453 62.04247283935547 C 91.4319076538086 56.682125091552734 91.78062438964844 67.70487976074219 95.8176498413086 63.483577728271484 C 94.47937774658203 62.55565643310547 91.20618438720703 59.25094223022461 90.5245590209961 58.262001037597656 C 91.62989044189453 61.49854278564453 90.61016082763672 59.190406799316406 89.1876220703125 57.263404846191406 C 93.9517822265625 59.134544372558594 98.35107421875 62.97865295410156 93.21485137939453 62.04247283935547"/>
    <path stroke-width="0" fill="rgb(141, 177, 152)" opacity="0.0032268919" stroke="rgb(0, 0, 0)" stroke-opacity="0.0" stroke-linecap="round" stroke-linejoin="round" d="M 167.07901000976562 76.70832824707031 C 165.66464233398438 83.31243133544922 165.59307861328125 85.37078094482422 159.96475219726562 79.42538452148438 C 154.5104522705078 79.70494842529297 149.59890747070312 81.42398834228516 146.7356414794922 77.43315887451172 C 149.7296142578125 72.8534927368164 156.61734008789062 73.69205474853516 159.6567840576172 64.29483032226562 C 163.51234436035156 66.44684600830078 165.09402465820312 75.02607727050781 167.07901000976562 76.70832824707031"/>
    <path stroke-width="0" fill="rgb(77, 123, 132)" opacity="0.032101054" stroke="rgb(0, 0, 0)" stroke-opacity="0.0" stroke-linecap="round" stroke-linejoin="round" d="M 408.35247802734375 514.1654663085938 C 410.2483215332031 515.984130859375 407.32012939453125 518.9122924804688 403.32012939453125 519.984130859375 C 399.3170166015625 518.9122924804688 396.3099365234375 515.9767456054688 395.919189453125 512.974609375 C 396.7570495605469 509.4745788574219 401.02032470703125 507.3059387207031 404.54998779296875 504.6820373535156 C 405.1449890136719 505.5191955566406 407.489990234375 509.6691589355469 408.35247802734375 514.1654663085938"/>
    <path stroke-width="0" fill="rgb(140, 146, 210)" opacity="0.00393158" stroke="rgb(0, 0, 0)" stroke-opacity="0.0" stroke-linecap="round" stroke-linejoin="round" d="M 306.14837646484375 235.00131225585938 C 291.7674865722656 234.59115600585938 292.39056396484375 229.5938262939453 293.2400207519531 239.61721801757812 C 288.20709228515625 241.17929077148438 290.2485046386719 241.5205078125 286.6510314941406 239.32936096191406 C 286.30462646484375 230.57904052734375 286.76519775390625 224.60751342773438 293.6589660644531 222.58360290527344 C 303.1689758300781 221.46713256835938 303.0720520019531 226.5109405517578 306.14837646484375 235.00131225585938"/>
    <path stroke-width="0" fill="rgb(137, 169, 139)" opacity="0.05816284" stroke="rgb(0, 0, 0)" stroke-opacity="0.0" stroke-linecap="round" stroke-linejoin="round" d="M 321.2575988769531 67.77240753173828 C 321.8786315917969 79.14395141601562 323.4641418457031 79.91353607177734 320.47637939453125 73.9723129272461 C 315.4595947265625 75.85069274902344 313.0389404296875 76.3938980102539 316.87896728515625 75.82339477539062 C 316.26654052734375 64.55474090576172 317.1781311035156 64.16712951660156 314.9460754394531 68.28862762451172 C 325.8411560058594 67.67953491210938 325.7768859863281 68.79623413085938 321.2575988769531 67.77240753173828"/>
    <path stroke-width="0" fill="rgb(206, 113, 225)" opacity="-0.0023023086" stroke="rgb(0, 0, 0)" stroke-opacity="0.0" stroke-linecap="round" stroke-linejoin="round" d="M 150.13421630859375 127.22142791748047 C 148.1561737060547 127.96224212646484 145.2938690185547 130.5727081298828 145.01136779785156 134.82838439941406 C 141.90863037109375 133.21661376953125 138.4641876220703 129.26718139648438 141.2564239501953 127.30447387695312 C 140.99429321289062 123.77901458740234 141.73782348632812 120.13412475585938 144.4716033935547 118.49991607666016 C 148.71438598632812 119.51164245605469 151.50340270996094 121.97570037841797 150.13421630859375 127.22142791748047"/>
    <path stroke-width="0" fill="rgb(83, 91, 167)" opacity="-0.06435709" stroke="rgb(0, 0, 0)" stroke-opacity="0.0" stroke-linecap="round" stroke-linejoin="round" d="M 482.7716064453125 451.2962341308594 C 479.1148986816406 451.18359375 474.7426452636719 452.27825927734375 467.9749450683594 452.9867248535156 C 469.6999206542969 454.6704406738281 466.1930236816406 451.843994140625 464.38720703125 445.9311828613281 C 460.6227722167969 441.8018798828125 464.94854736328125 437.36248779296875 471.88665771484375 443.0288391113281 C 470.2909851074219 450.5520324707031 476.17462158203125 449.56365966796875 482.7716064453125 451.2962341308594"/>
    <path stroke-width="0" fill="rgb(175, 189, 159)" opacity="0.016478455" stroke="rgb(0, 0, 0)" stroke-opacity="0.0" stroke-linecap="round" stroke-linejoin="round" d="M 185.55909729003906 335.7110595703125 C 178.6605224609375 336.5029602050781 175.31166076660156 331.7070007324219 175.47500610351562 332.10430908203125 C 176.1186065673828 334.3556213378906 175.450927734375 330.5093688964844 159.8227996826172 330.8013610839844 C 155.625244140625 326.5909423828125 159.45155334472656 318.4791259765625 175.34654235839844 317.0422058105469 C 183.37034606933594 317.11944580078125 185.9840087890625 320.2304992675781 185.55909729003906 335.7110595703125"/>
    <path stroke-width="0" fill="rgb(62, 124, 194)" opacity="0.03018851" stroke="rgb(0, 0, 0)" stroke-opacity="0.0" stroke-linecap="round" stroke-linejoin="round" d="M 302.36822509765625 209.26515197753906 C 303.6697692871094 216.1007843017578 302.5020446777344 218.39756774902344 295.12799072265625 217.7530517578125 C 291.328125 214.4929656982422 289.239990234375 207.805908203125 284.9658508300781 204.5570831298828 C 280.9768981933594 202.22018432617188 286.1622619628906 200.92559814453125 297.53704833984375 198.1451873779297 C 295.53948974609375 200.12232971191406 296.2975158691406 207.09706115722656 302.36822509765625 209.26515197753906"/>
    <path stroke-width="0" fill="rgb(88, 140, 276)" opacity="0.20087454" stroke="rgb(0, 0, 0)" stroke-opacity="0.0" stroke-linecap="round" stroke-linejoin="round" d="M 186.2169647216797 280.3406677246094 C 186.48956298828125 293.2098388671875 188.82870483398438 304.91375732421875 181.30569458007812 297.3657531738281 C 178.85060119628906 290.8134765625 173.9738311767578 288.1438293457031 172.80160522460938 278.41644287109375 C 185.417236328125 284.5665283203125 184.09506225585938 282.32965087890625 181.26693725585938 276.57342529296875 C 184.32191467285156 285.6932678222656 187.47084045410156 287.6448974609375 186.2169647216797 280.3406677246094"/>
    <path stroke-width="0" fill="rgb(92, 202, 92)" opacity="0.25659022" stroke="rgb(0, 0, 0)" stroke-opacity="0.0" stroke-linecap="round" stroke-linejoin="round" d="M 43.576568603515625 3.7239527702331543 C 37.08933639526367 6.0361809730529785 36.55817413330078 11.170491218566895 36.526832580566406 9.96484088897705 C 31.79033851623535 11.938821792602539 34.38142395019531 3.8709375858306885 35.220401763916016 -0.8225142955780029 C 28.52496337890625 -3.1015069484710693 30.787681579589844 -4.45092248916626 32.42863082885742 -1.4300812482833862 C 33.54237747192383 2.8135321140289307 37.218502044677734 3.7767789363861084 43.576568603515625 3.7239527702331543"/>
    <path stroke-width="0" fill="rgb(-10, -11, 92)" opacity="0.91855943" stroke="rgb(0, 0, 0)" stroke-opacity="0.0" stroke-linecap="round" stroke-linejoin="round" d="M 477.5334777832031 257.7686462402344 C 468.4795227050781 262.0587463378906 455.79278564453125 262.12188720703125 454.5277404785156 266.76837158203125 C 455.8485107421875 258.9259338378906 451.829833984375 255.88140869140625 450.0874328613281 253.3116455078125 C 448.1934814453125 248.62692260742188 448.468505859375 246.07391357421875 452.5484313964844 244.44570922851562 C 474.7435607910156 244.37794494628906 483.1600646972656 240.64212036132812 477.5334777832031 257.7686462402344"/>
    <path stroke-width="0" fill="rgb(149, 134, 75)" opacity="0.41684908" stroke="rgb(0, 0, 0)" stroke-opacity="0.0" stroke-linecap="round" stroke-linejoin="round" d="M -21.84418487548828 -77.20195007324219 C -22.91598129272461 -73.20195007324219 -25.84418487548828 -70.27374267578125 -29.84418487548828 -69.20195007324219 C -33.84418487548828 -70.27374267578125 -36.77238845825195 -73.20195007324219 -37.84418487548828 -77.20195007324219 C -36.77238845825195 -81.20195007324219 -33.84418487548828 -84.1301498413086 -29.84418487548828 -85.20195007324219 C -25.84418487548828 -84.1301498413086 -22.91598129272461 -81.20195007324219 -21.84418487548828 -77.20195007324219"/>
  </g>
</svg>
