<?xml version="1.0" ?>
<svg xmlns="http://www.w3.org/2000/svg" version="1.1" width="512" height="512">
  <defs/>
  <g>
    <path stroke-width="0" fill="rgb(-69, -20, 17)" opacity="1.1912686" stroke="rgb(139, 182, 153)" stroke-opacity="1.0" stroke-linecap="round" stroke-linejoin="round" d="M 357.074951171875 218.91775512695312 C 382.8094482421875 222.59011840820312 276.11981201171875 219.87586975097656 262.7399597167969 214.58372497558594 C 126.10343170166016 216.49664306640625 151.59597778320312 212.4118194580078 153.43084716796875 204.65089416503906 C 212.21372985839844 202.6495361328125 264.7164306640625 210.3121795654297 266.7178649902344 208.15562438964844 C 203.52389526367188 210.07968139648438 249.90463256835938 198.68801879882812 357.074951171875 218.91775512695312"/>
    <path stroke-width="0" fill="rgb(66, 136, 57)" opacity="0.5503628" stroke="rgb(108, 164, 111)" stroke-opacity="1.0" stroke-linecap="round" stroke-linejoin="round" d="M 250.51022338867188 652.50048828125 C -230.76681518554688 573.091552734375 299.01995849609375 110.18140411376953 176.1150360107422 425.099365234375 C -132.86358642578125 558.3648681640625 328.4473571777344 167.73912048339844 29.3419189453125 277.3418273925781 C 113.55347442626953 673.1261596679688 -111.4902114868164 704.0496826171875 -40.750022888183594 -47.79467010498047 C 463.45013427734375 -97.6761703491211 460.56903076171875 -89.73396301269531 250.51022338867188 652.50048828125"/>
    <path stroke-width="0" fill="rgb(7, 15, 37)" opacity="1.0445409" stroke="rgb(245, 97, 201)" stroke-opacity="1.0" stroke-linecap="round" stroke-linejoin="round" d="M 781.1029663085938 369.0909118652344 C 380.0307312011719 604.465087890625 208.7554931640625 623.823486328125 282.0652160644531 314.4329528808594 C 192.318359375 347.8988342285156 434.7810974121094 551.2161254882812 496.8515625 377.7204895019531 C 523.4811401367188 139.97491455078125 135.2744903564453 380.9673767089844 260.5863037109375 -27.802581787109375 C 449.6614074707031 -97.54769134521484 769.5654296875 -107.06083679199219 781.1029663085938 369.0909118652344"/>
    <path stroke-width="0" fill="rgb(-19, -1, 37)" opacity="0.9882017" stroke="rgb(144, 236, 18)" stroke-opacity="1.0" stroke-linecap="round" stroke-linejoin="round" d="M 420.1221008300781 346.6728210449219 C 399.52423095703125 345.40313720703125 406.5707092285156 576.7078857421875 408.4469909667969 364.1922607421875 C 234.19627380371094 365.93829345703125 239.86061096191406 332.578369140625 329.327392578125 346.114013671875 C 437.9441833496094 336.0081481933594 393.1236572265625 380.49273681640625 319.7890930175781 164.767822265625 C 411.156005859375 345.59271240234375 406.2501220703125 344.6054992675781 420.1221008300781 346.6728210449219"/>
    <path stroke-width="0" fill="rgb(-7, 8, 28)" opacity="0.96443456" stroke="rgb(5, 212, 198)" stroke-opacity="1.0" stroke-linecap="round" stroke-linejoin="round" d="M 194.71047973632812 145.62664794921875 C 195.3395233154297 173.8548126220703 162.00059509277344 168.83819580078125 171.3247833251953 139.929443359375 C 135.67306518554688 287.2781066894531 167.0165252685547 219.46278381347656 166.10174560546875 150.4891815185547 C 189.27999877929688 173.82650756835938 144.7726287841797 109.01953125 148.5595245361328 174.56219482421875 C 179.09288024902344 256.8038330078125 111.51913452148438 104.63019561767578 194.71047973632812 145.62664794921875"/>
    <path stroke-width="0" fill="rgb(256, 253, 254)" opacity="1.0443966" stroke="rgb(249, 203, 117)" stroke-opacity="1.0" stroke-linecap="round" stroke-linejoin="round" d="M 138.0118408203125 275.1376037597656 C 214.45359802246094 298.3335876464844 163.58863830566406 302.0867004394531 131.5501708984375 333.0502014160156 C 146.90606689453125 289.1348571777344 167.2551727294922 271.3109130859375 153.8787078857422 293.8744812011719 C 160.63739013671875 294.08746337890625 175.44149780273438 295.8097229003906 160.93157958984375 287.1236267089844 C 131.6429901123047 274.72021484375 147.3005828857422 281.8819274902344 138.0118408203125 275.1376037597656"/>
    <path stroke-width="0" fill="rgb(268, 262, 250)" opacity="0.99207497" stroke="rgb(30, 163, 36)" stroke-opacity="1.0" stroke-linecap="round" stroke-linejoin="round" d="M 151.18983459472656 320.1502685546875 C 169.5115966796875 265.6421813964844 243.22164916992188 349.88592529296875 149.6643524169922 318.78057861328125 C 120.85235595703125 343.3387756347656 94.6542739868164 355.02655029296875 119.28787994384766 335.0149230957031 C 158.4911651611328 280.64892578125 123.65945434570312 245.3280029296875 172.17335510253906 291.1578369140625 C 178.36085510253906 310.6924743652344 181.617431640625 294.38360595703125 151.18983459472656 320.1502685546875"/>
    <path stroke-width="0" fill="rgb(-8, 0, 31)" opacity="0.96486515" stroke="rgb(133, 105, 67)" stroke-opacity="1.0" stroke-linecap="round" stroke-linejoin="round" d="M 133.98159790039062 441.5010681152344 C 136.43736267089844 472.484375 -21.930347442626953 451.5438232421875 12.486145973205566 338.5402526855469 C 13.577261924743652 481.2551574707031 157.5372772216797 445.19805908203125 133.27659606933594 442.0247497558594 C 109.85527038574219 482.2112121582031 298.3168640136719 377.3940124511719 144.9591827392578 250.01412963867188 C 285.41754150390625 415.7898864746094 77.29562377929688 466.25714111328125 133.98159790039062 441.5010681152344"/>
    <path stroke-width="0" fill="rgb(3, -10, 34)" opacity="0.951303" stroke="rgb(116, 144, 4)" stroke-opacity="1.0" stroke-linecap="round" stroke-linejoin="round" d="M 10.565244674682617 393.3142395019531 C -23.865093231201172 346.6539001464844 -20.664365768432617 370.5367126464844 -26.130088806152344 337.20465087890625 C -6.4941487312316895 380.025634765625 -79.43655395507812 419.9124450683594 31.1644344329834 368.6566162109375 C -21.591352462768555 428.6908264160156 -4.518152236938477 190.57740783691406 165.35134887695312 262.9684143066406 C -59.578128814697266 211.7593994140625 34.39897918701172 502.63665771484375 10.565244674682617 393.3142395019531"/>
    <path stroke-width="0" fill="rgb(271, 265, 255)" opacity="0.9811728" stroke="rgb(156, 157, 240)" stroke-opacity="1.0" stroke-linecap="round" stroke-linejoin="round" d="M 359.62347412109375 279.1806640625 C 334.1322326660156 378.4662780761719 387.9415283203125 320.3493347167969 299.2811279296875 351.3780212402344 C 306.82611083984375 321.76190185546875 326.9889831542969 281.3399963378906 339.1503601074219 289.84161376953125 C 320.4151916503906 272.5765380859375 311.1101379394531 308.0799865722656 353.9313659667969 319.8477478027344 C 268.34185791015625 288.741943359375 383.5828552246094 254.1251220703125 359.62347412109375 279.1806640625"/>
    <path stroke-width="0" fill="rgb(-19, -4, 54)" opacity="1.0195926" stroke="rgb(91, 111, 177)" stroke-opacity="1.0" stroke-linecap="round" stroke-linejoin="round" d="M 121.98245239257812 312.10986328125 C 126.82872009277344 303.9482727050781 109.53884887695312 360.4226989746094 123.91552734375 329.57159423828125 C 110.15599060058594 335.5087890625 156.68023681640625 164.55148315429688 181.21998596191406 150.7657928466797 C 130.21429443359375 334.4539794921875 129.15286254882812 334.23724365234375 116.64014434814453 318.7806701660156 C 133.78628540039062 282.1290588378906 120.57643127441406 295.2101135253906 121.98245239257812 312.10986328125"/>
    <path stroke-width="0" fill="rgb(-21, 4, 8)" opacity="1.0124646" stroke="rgb(170, 171, 53)" stroke-opacity="1.0" stroke-linecap="round" stroke-linejoin="round" d="M 129.63360595703125 285.3896789550781 C 101.04498291015625 416.64642333984375 120.9273452758789 289.121826171875 101.40141296386719 399.9453430175781 C 112.44316864013672 309.6310729980469 98.94744110107422 399.6098327636719 96.56315612792969 338.05029296875 C 83.45702362060547 325.2934875488281 133.65634155273438 392.2713623046875 57.48576354980469 248.23777770996094 C 118.07514953613281 354.4329833984375 88.85557556152344 378.7059326171875 129.63360595703125 285.3896789550781"/>
    <path stroke-width="0" fill="rgb(-14, -13, 52)" opacity="0.9874125" stroke="rgb(80, 92, 145)" stroke-opacity="1.0" stroke-linecap="round" stroke-linejoin="round" d="M 300.9367370605469 297.1531982421875 C 292.7799987792969 285.7201843261719 291.3905334472656 299.15777587890625 265.0923767089844 306.30963134765625 C 306.4669494628906 177.43408203125 258.38140869140625 455.9620666503906 391.2537841796875 446.2730712890625 C 244.78526306152344 404.68035888671875 327.2354431152344 185.10955810546875 486.8997802734375 285.5697326660156 C 352.4311828613281 152.0096893310547 275.49322509765625 386.87677001953125 300.9367370605469 297.1531982421875"/>
    <path stroke-width="0" fill="rgb(150, 189, 144)" opacity="0.9970928" stroke="rgb(252, 26, 53)" stroke-opacity="1.0" stroke-linecap="round" stroke-linejoin="round" d="M 387.8758850097656 206.61953735351562 C 291.7173156738281 213.88404846191406 294.9936218261719 219.49996948242188 377.947021484375 210.11241149902344 C 240.07933044433594 202.0745849609375 186.3848876953125 194.06622314453125 165.66241455078125 201.76699829101562 C 243.67185974121094 131.07359313964844 151.20350646972656 15.768110275268555 424.1507873535156 101.76303100585938 C 449.274169921875 223.5713348388672 265.7296447753906 107.34359741210938 387.8758850097656 206.61953735351562"/>
    <path stroke-width="0" fill="rgb(181, 202, 154)" opacity="0.87197256" stroke="rgb(166, 64, 118)" stroke-opacity="1.0" stroke-linecap="round" stroke-linejoin="round" d="M 328.7694091796875 237.965087890625 C 287.8858642578125 283.9666442871094 280.98565673828125 326.6768493652344 235.64382934570312 358.5037841796875 C 217.6849822998047 349.73773193359375 216.35562133789062 336.3965759277344 230.2378387451172 258.6756286621094 C 225.3935546875 226.88668823242188 226.46116638183594 209.01498413085938 274.29150390625 216.54624938964844 C 355.7030944824219 214.1055450439453 337.8817138671875 207.4634552001953 328.7694091796875 237.965087890625"/>
    <path stroke-width="0" fill="rgb(104, 166, 131)" opacity="0.99852467" stroke="rgb(40, 28, 167)" stroke-opacity="1.0" stroke-linecap="round" stroke-linejoin="round" d="M 313.5154724121094 268.1300354003906 C 314.0137023925781 265.0733642578125 315.5532531738281 274.3659362792969 301.7448425292969 271.30035400390625 C 322.6593017578125 265.0196533203125 333.3183898925781 257.64306640625 326.2926025390625 250.14361572265625 C 327.9707336425781 249.31167602539062 322.6704406738281 219.4442138671875 313.52984619140625 277.1325988769531 C 268.4447937011719 330.9365234375 337.8895568847656 314.3306884765625 313.5154724121094 268.1300354003906"/>
    <path stroke-width="0" fill="rgb(157, 184, 150)" opacity="0.699573" stroke="rgb(50, 94, 209)" stroke-opacity="1.0" stroke-linecap="round" stroke-linejoin="round" d="M 444.93701171875 454.994873046875 C 430.8804931640625 473.32403564453125 239.2615509033203 475.9051208496094 427.844970703125 466.71685791015625 C 148.69064331054688 632.5836181640625 352.91632080078125 312.6588439941406 197.87208557128906 384.6739807128906 C 222.71774291992188 290.4703674316406 133.59568786621094 256.6080627441406 205.99853515625 297.1818542480469 C 333.7253112792969 357.4324645996094 289.4618225097656 461.4518127441406 444.93701171875 454.994873046875"/>
    <path stroke-width="0" fill="rgb(-15, -4, 49)" opacity="0.8888188" stroke="rgb(213, 24, 248)" stroke-opacity="1.0" stroke-linecap="round" stroke-linejoin="round" d="M 249.918701171875 274.5008544921875 C 228.23789978027344 193.76705932617188 132.8671112060547 231.88027954101562 153.45054626464844 202.7067108154297 C 331.52276611328125 212.79397583007812 348.4798583984375 192.1803741455078 261.4822998046875 218.98074340820312 C 290.0856628417969 223.2061309814453 358.16986083984375 261.7061462402344 346.0621032714844 206.1400146484375 C 255.32485961914062 198.4127197265625 253.8772430419922 246.73106384277344 249.918701171875 274.5008544921875"/>
    <path stroke-width="0" fill="rgb(34, 45, 140)" opacity="0.8369147" stroke="rgb(249, 154, 188)" stroke-opacity="1.0" stroke-linecap="round" stroke-linejoin="round" d="M 325.91644287109375 230.1687774658203 C 256.1611022949219 294.82257080078125 205.67027282714844 283.7988586425781 235.59674072265625 268.12957763671875 C 214.2255401611328 278.1325988769531 206.77499389648438 282.09490966796875 191.46347045898438 256.35308837890625 C 144.04383850097656 280.8489074707031 149.35824584960938 199.5015411376953 179.21156311035156 220.83900451660156 C 267.66961669921875 216.82574462890625 315.4588928222656 215.14088439941406 325.91644287109375 230.1687774658203"/>
    <path stroke-width="0" fill="rgb(-16, 10, -11)" opacity="0.33184975" stroke="rgb(72, 30, 75)" stroke-opacity="1.0" stroke-linecap="round" stroke-linejoin="round" d="M 207.2777862548828 22.15927505493164 C -35.56949996948242 143.65280151367188 108.62665557861328 177.56077575683594 4.821028232574463 354.9213562011719 C -91.81739807128906 156.51173400878906 -36.29518127441406 116.60958099365234 -31.710002899169922 36.69906234741211 C -31.88047218322754 10.4307222366333 -24.965839385986328 4.1932501792907715 12.118743896484375 -3.943342685699463 C 88.4063491821289 -3.901846408843994 173.86093139648438 -73.02626037597656 207.2777862548828 22.15927505493164"/>
    <path stroke-width="0" fill="rgb(119, 143, 128)" opacity="0.657026" stroke="rgb(81, 105, 16)" stroke-opacity="1.0" stroke-linecap="round" stroke-linejoin="round" d="M 288.0615234375 50.38422775268555 C 4.73612642288208 87.94842529296875 170.4202117919922 230.24923706054688 32.23515319824219 273.6455993652344 C 6.266541957855225 73.7535629272461 166.89410400390625 23.029766082763672 193.01882934570312 14.227620124816895 C 51.91948318481445 15.810640335083008 92.63688659667969 -65.1494140625 133.39649963378906 -89.5528793334961 C 156.68983459472656 -111.36737823486328 202.4614715576172 -174.91465759277344 288.0615234375 50.38422775268555"/>
    <path stroke-width="0" fill="rgb(159, 178, 161)" opacity="0.6487339" stroke="rgb(144, 67, 133)" stroke-opacity="1.0" stroke-linecap="round" stroke-linejoin="round" d="M 329.61627197265625 -18.44650650024414 C 289.37158203125 214.5829620361328 208.7993927001953 173.92718505859375 220.028564453125 189.34620666503906 C 154.0465087890625 201.1594696044922 161.15411376953125 222.78448486328125 177.63389587402344 165.5150146484375 C 266.9282531738281 172.9654083251953 164.36453247070312 77.05998992919922 95.88006591796875 214.35250854492188 C 187.91775512695312 13.225894927978516 346.969482421875 25.142871856689453 329.61627197265625 -18.44650650024414"/>
    <path stroke-width="0" fill="rgb(-14, 27, 152)" opacity="0.9984896" stroke="rgb(146, 236, 81)" stroke-opacity="1.0" stroke-linecap="round" stroke-linejoin="round" d="M 388.0322570800781 355.81414794921875 C 404.84228515625 386.488525390625 324.50921630859375 349.7833557128906 243.66104125976562 411.1929931640625 C 343.78143310546875 342.68890380859375 271.82562255859375 430.1815490722656 206.4217071533203 310.4661865234375 C 131.36300659179688 195.46498107910156 109.64521789550781 261.2290344238281 333.06146240234375 220.79454040527344 C 300.4836120605469 395.0082092285156 251.78338623046875 358.3944396972656 388.0322570800781 355.81414794921875"/>
    <path stroke-width="0" fill="rgb(155, 223, 200)" opacity="1.0385562" stroke="rgb(33, 182, 73)" stroke-opacity="1.0" stroke-linecap="round" stroke-linejoin="round" d="M 308.9592590332031 280.6495056152344 C 269.48345947265625 368.45538330078125 313.8053894042969 308.9359436035156 265.5202941894531 336.01397705078125 C 239.1240234375 295.8706359863281 217.27780151367188 262.83831787109375 173.71066284179688 232.16468811035156 C 160.0238037109375 212.13565063476562 131.14524841308594 219.1335906982422 270.6201477050781 216.94642639160156 C 365.2659912109375 222.97354125976562 336.0750732421875 192.05966186523438 308.9592590332031 280.6495056152344"/>
    <path stroke-width="0" fill="rgb(136, 170, 143)" opacity="0.6328679" stroke="rgb(149, 5, 211)" stroke-opacity="1.0" stroke-linecap="round" stroke-linejoin="round" d="M 518.9672241210938 349.65985107421875 C 414.5703430175781 138.1314239501953 381.3653564453125 213.63351440429688 385.28369140625 222.83457946777344 C 306.044921875 97.5789794921875 269.08056640625 54.585506439208984 109.22784423828125 145.19815063476562 C 173.38746643066406 0.8257984519004822 216.7317657470703 56.270198822021484 296.06304931640625 -31.052310943603516 C 494.6373596191406 -49.52625274658203 597.9222412109375 -60.34662628173828 518.9672241210938 349.65985107421875"/>
    <path stroke-width="0" fill="rgb(160, 188, 136)" opacity="1.0010115" stroke="rgb(172, 68, 187)" stroke-opacity="1.0" stroke-linecap="round" stroke-linejoin="round" d="M 481.80975341796875 273.46624755859375 C 514.2586669921875 297.4687805175781 447.76898193359375 219.52272033691406 363.46380615234375 253.19961547851562 C 348.3475341796875 216.4127655029297 322.6408996582031 191.9365692138672 360.09771728515625 159.21131896972656 C 256.2153015136719 129.12852478027344 271.3241882324219 165.28353881835938 369.0127868652344 176.60914611816406 C 490.73419189453125 100.10877227783203 484.9969787597656 159.94947814941406 481.80975341796875 273.46624755859375"/>
    <path stroke-width="0" fill="rgb(-8, -2, 17)" opacity="0.9932348" stroke="rgb(63, 146, 150)" stroke-opacity="1.0" stroke-linecap="round" stroke-linejoin="round" d="M 312.0741882324219 272.92828369140625 C 344.3658142089844 171.97137451171875 356.4005126953125 180.6805419921875 326.329345703125 264.821533203125 C 325.760498046875 267.04095458984375 330.2996520996094 258.3553161621094 326.5086975097656 260.6823425292969 C 325.8633728027344 255.93893432617188 325.3314208984375 267.4120178222656 324.1798400878906 264.7602844238281 C 324.7471008300781 264.01287841796875 320.8938903808594 286.85369873046875 312.0741882324219 272.92828369140625"/>
    <path stroke-width="0" fill="rgb(104, 126, 84)" opacity="0.6760788" stroke="rgb(56, 242, 114)" stroke-opacity="1.0" stroke-linecap="round" stroke-linejoin="round" d="M 15.022979736328125 161.09959411621094 C -9.665210723876953 344.9676513671875 20.437274932861328 79.29972839355469 -21.067365646362305 63.86125564575195 C -33.61650848388672 65.88433074951172 -35.86575698852539 55.43598556518555 -32.55112075805664 38.50515365600586 C 1.3167983293533325 -16.90996742248535 22.795888900756836 -53.24178695678711 268.7608337402344 16.94611167907715 C 234.32882690429688 75.02332305908203 138.83157348632812 -94.6222915649414 15.022979736328125 161.09959411621094"/>
    <path stroke-width="0" fill="rgb(-9, -13, 33)" opacity="0.94245726" stroke="rgb(178, 75, 207)" stroke-opacity="1.0" stroke-linecap="round" stroke-linejoin="round" d="M 483.58489990234375 449.88604736328125 C 535.585205078125 271.8103332519531 438.6599426269531 283.9244079589844 465.32110595703125 261.0810852050781 C 524.0421752929688 306.065185546875 500.99493408203125 335.3272399902344 505.2887268066406 315.6561584472656 C 505.5005798339844 404.2981872558594 499.749755859375 412.8915100097656 495.7906188964844 372.6580505371094 C 498.3495788574219 465.5838317871094 303.0837707519531 457.45257568359375 483.58489990234375 449.88604736328125"/>
    <path stroke-width="0" fill="rgb(73, 114, 1)" opacity="0.8512428" stroke="rgb(224, 148, 224)" stroke-opacity="1.0" stroke-linecap="round" stroke-linejoin="round" d="M 60.707916259765625 480.4939270019531 C 24.39124870300293 418.3462219238281 41.57460403442383 448.3606872558594 54.949153900146484 543.0499877929688 C -19.158056259155273 507.1349182128906 -9.634011268615723 480.29742431640625 -7.800317764282227 438.41241455078125 C -33.0129280090332 414.1160888671875 -26.170312881469727 417.9886474609375 1.715709924697876 429.2760314941406 C 39.45392990112305 442.1023254394531 30.16151237487793 450.91644287109375 60.707916259765625 480.4939270019531"/>
    <path stroke-width="0" fill="rgb(55, 96, 68)" opacity="0.80838084" stroke="rgb(184, 127, 243)" stroke-opacity="1.0" stroke-linecap="round" stroke-linejoin="round" d="M 127.25879669189453 455.3370361328125 C 72.97791290283203 459.5447998046875 66.64698028564453 485.0704345703125 57.68472671508789 490.6098327636719 C 15.249077796936035 490.2212219238281 73.20137023925781 436.94903564453125 -14.225123405456543 435.28997802734375 C -12.381932258605957 398.71356201171875 -14.755867958068848 382.5710754394531 7.613182544708252 375.32220458984375 C 19.39357566833496 429.1776428222656 64.37920379638672 459.5061950683594 127.25879669189453 455.3370361328125"/>
    <path stroke-width="0" fill="rgb(182, 162, 103)" opacity="0.86498374" stroke="rgb(108, 154, 4)" stroke-opacity="1.0" stroke-linecap="round" stroke-linejoin="round" d="M 98.36506652832031 364.2312316894531 C 80.32048034667969 395.0018005371094 58.05329895019531 438.243896484375 63.032833099365234 423.67974853515625 C 65.66161346435547 435.67578125 43.63905715942383 405.5608215332031 27.329437255859375 393.719970703125 C -6.648728847503662 320.0875549316406 27.431699752807617 356.52569580078125 101.96074676513672 340.7998962402344 C 97.76911926269531 362.0075378417969 54.76367950439453 417.4728088378906 98.36506652832031 364.2312316894531"/>
    <path stroke-width="0" fill="rgb(74, 107, 90)" opacity="0.8449695" stroke="rgb(168, 73, 157)" stroke-opacity="1.0" stroke-linecap="round" stroke-linejoin="round" d="M 168.6419677734375 442.6908874511719 C 307.1343078613281 502.6398010253906 195.2833709716797 548.87353515625 30.173513412475586 548.0439453125 C 11.251142501831055 543.2071533203125 3.708277463912964 537.02392578125 10.218480110168457 532.8273315429688 C 30.772977828979492 462.48223876953125 26.432193756103516 449.8201904296875 37.881919860839844 461.560546875 C 123.28369903564453 467.86688232421875 149.7959442138672 446.0266418457031 168.6419677734375 442.6908874511719"/>
    <path stroke-width="0" fill="rgb(-6, 8, 59)" opacity="0.9757644" stroke="rgb(34, 76, 145)" stroke-opacity="1.0" stroke-linecap="round" stroke-linejoin="round" d="M 169.8282928466797 135.1830596923828 C 158.84658813476562 147.81228637695312 154.48294067382812 147.41372680664062 189.67141723632812 145.75840759277344 C 190.8999481201172 144.27671813964844 176.8971710205078 146.18577575683594 153.31629943847656 147.99839782714844 C 187.92575073242188 149.96267700195312 199.25433349609375 149.60643005371094 166.2451934814453 166.74850463867188 C 158.1550750732422 157.6200714111328 145.39883422851562 162.14291381835938 169.8282928466797 135.1830596923828"/>
    <path stroke-width="0" fill="rgb(87, 119, 82)" opacity="0.9252074" stroke="rgb(146, 166, 166)" stroke-opacity="1.0" stroke-linecap="round" stroke-linejoin="round" d="M 59.13197326660156 528.1989135742188 C 47.256099700927734 539.38818359375 38.75363540649414 545.7471313476562 27.42095375061035 546.61962890625 C -6.0 521.3204956054688 -13.320508003234863 514.0 -38.80858612060547 480.6268615722656 C -40.54939270019531 466.49322509765625 -38.961647033691406 450.8172912597656 6.698492527008057 391.4803161621094 C 58.6524543762207 483.28179931640625 130.2506866455078 482.4988708496094 59.13197326660156 528.1989135742188"/>
    <path stroke-width="0" fill="rgb(101, 130, 107)" opacity="0.9215429" stroke="rgb(182, 254, 38)" stroke-opacity="1.0" stroke-linecap="round" stroke-linejoin="round" d="M 523.744140625 376.7478942871094 C 583.6847534179688 357.73834228515625 480.1400146484375 264.8927307128906 430.1813659667969 239.0378875732422 C 469.03564453125 147.81674194335938 320.35516357421875 38.34684371948242 248.57928466796875 86.54519653320312 C 62.32062530517578 -10.534316062927246 316.808837890625 -38.226280212402344 374.70379638671875 -0.3071441352367401 C 425.17376708984375 6.48850154876709 553.0985717773438 8.743297576904297 523.744140625 376.7478942871094"/>
    <path stroke-width="0" fill="rgb(105, 104, 92)" opacity="0.5383393" stroke="rgb(41, 156, 31)" stroke-opacity="1.0" stroke-linecap="round" stroke-linejoin="round" d="M 105.38786315917969 479.3449401855469 C 157.24269104003906 510.57122802734375 70.1617431640625 524.4205932617188 70.727294921875 523.9083251953125 C 54.655277252197266 491.7676086425781 56.88756561279297 432.2095642089844 71.61326599121094 486.140625 C -4.340845584869385 408.5883483886719 -12.12474536895752 412.6365966796875 31.133703231811523 444.9084777832031 C 78.45648956298828 454.2605285644531 81.7623291015625 465.22381591796875 105.38786315917969 479.3449401855469"/>
    <path stroke-width="0" fill="rgb(84, 115, 90)" opacity="0.6478678" stroke="rgb(205, 145, 103)" stroke-opacity="1.0" stroke-linecap="round" stroke-linejoin="round" d="M 68.7308578491211 447.62713623046875 C 182.6521759033203 492.79571533203125 207.40597534179688 537.0746459960938 51.69894790649414 510.42547607421875 C -32.16648864746094 448.1153259277344 -38.6153450012207 393.43115234375 74.09811401367188 501.3039855957031 C -29.620019912719727 438.21551513671875 -21.019208908081055 443.9416809082031 19.88323402404785 441.1859130859375 C 7.641793251037598 385.792724609375 16.06215476989746 426.2308044433594 68.7308578491211 447.62713623046875"/>
    <path stroke-width="0" fill="rgb(95, 112, 87)" opacity="0.60508275" stroke="rgb(177, 115, 184)" stroke-opacity="1.0" stroke-linecap="round" stroke-linejoin="round" d="M 97.2301254272461 498.56329345703125 C 68.43206787109375 532.4613037109375 61.18797302246094 540.1441040039062 69.9701919555664 526.4881591796875 C 25.894145965576172 480.1380920410156 -42.358055114746094 494.5770568847656 -56.444679260253906 499.7340087890625 C -1.0405356884002686 455.7156066894531 -11.923786163330078 460.8006896972656 -21.497661590576172 447.60211181640625 C 27.53071403503418 435.0083312988281 30.597614288330078 469.6790466308594 97.2301254272461 498.56329345703125"/>
    <path stroke-width="0" fill="rgb(255, 11, 29)" opacity="0.73683053" stroke="rgb(248, 218, 2)" stroke-opacity="1.0" stroke-linecap="round" stroke-linejoin="round" d="M 364.8350830078125 174.0934600830078 C 345.9231872558594 178.44541931152344 347.64398193359375 174.42349243164062 322.07135009765625 162.21597290039062 C 333.8810729980469 174.88926696777344 312.7959899902344 149.2711181640625 334.7095642089844 167.8227081298828 C 371.9800109863281 191.4253387451172 349.9144287109375 155.25372314453125 339.57989501953125 205.09812927246094 C 349.42669677734375 219.02767944335938 348.8923645019531 175.04627990722656 364.8350830078125 174.0934600830078"/>
    <path stroke-width="0" fill="rgb(-12, -8, 51)" opacity="0.96326405" stroke="rgb(186, 43, 132)" stroke-opacity="1.0" stroke-linecap="round" stroke-linejoin="round" d="M 181.18325805664062 303.8916931152344 C 190.78854370117188 266.17193603515625 112.83091735839844 254.73878479003906 147.3136444091797 250.33929443359375 C 159.10873413085938 267.05224609375 135.76954650878906 245.191162109375 138.20535278320312 257.61163330078125 C 137.64503479003906 249.138671875 190.96359252929688 246.08477783203125 84.0993423461914 259.4817199707031 C 122.91448211669922 255.71270751953125 163.3542022705078 271.38525390625 181.18325805664062 303.8916931152344"/>
    <path stroke-width="0" fill="rgb(92, 110, 106)" opacity="0.44521707" stroke="rgb(50, 4, 202)" stroke-opacity="1.0" stroke-linecap="round" stroke-linejoin="round" d="M 250.0990753173828 450.81414794921875 C 234.68316650390625 576.2152709960938 137.66207885742188 552.5811767578125 162.29678344726562 561.5809326171875 C 221.73855590820312 471.5761413574219 149.72415161132812 405.9171142578125 133.4723663330078 479.4518737792969 C 59.201236724853516 445.67999267578125 101.09965515136719 480.95037841796875 80.92799377441406 449.3702697753906 C 165.30455017089844 471.3793029785156 146.4664306640625 399.0238952636719 250.0990753173828 450.81414794921875"/>
    <path stroke-width="0" fill="rgb(261, 257, 250)" opacity="0.9551733" stroke="rgb(88, 236, 179)" stroke-opacity="1.0" stroke-linecap="round" stroke-linejoin="round" d="M 89.80985260009766 359.1133728027344 C 116.81452941894531 388.3800964355469 7.640644073486328 397.6649475097656 27.36286163330078 391.4230651855469 C 87.48089599609375 403.4571838378906 109.14242553710938 333.54248046875 61.1942138671875 432.5952453613281 C 34.53787612915039 379.6349182128906 11.042476654052734 405.107421875 75.5547103881836 369.4823913574219 C -3.065951347351074 404.8206787109375 18.294553756713867 389.5447692871094 89.80985260009766 359.1133728027344"/>
    <path stroke-width="0" fill="rgb(115, 125, 111)" opacity="0.21967152" stroke="rgb(41, 158, 147)" stroke-opacity="1.0" stroke-linecap="round" stroke-linejoin="round" d="M 378.7357177734375 3.603316307067871 C 181.31588745117188 -16.295618057250977 267.1304931640625 100.97622680664062 519.0033569335938 105.8611831665039 C 504.97161865234375 -84.19597625732422 48.07013702392578 -56.98910140991211 -6.976760387420654 281.9399719238281 C -41.24552536010742 -39.019073486328125 311.783935546875 -44.63568115234375 300.3966979980469 -23.43099594116211 C 398.0796203613281 -0.5413249135017395 413.39825439453125 13.920913696289062 378.7357177734375 3.603316307067871"/>
    <path stroke-width="0" fill="rgb(142, 178, 146)" opacity="0.51071525" stroke="rgb(238, 156, 136)" stroke-opacity="1.0" stroke-linecap="round" stroke-linejoin="round" d="M 450.0191345214844 253.46705627441406 C 332.03192138671875 223.065673828125 439.8146667480469 7.612813472747803 429.01837158203125 120.58395385742188 C 109.02642059326172 160.16075134277344 180.1401824951172 79.06346893310547 85.36494445800781 253.7707061767578 C -8.780428886413574 77.95973205566406 461.0741882324219 8.461264610290527 321.25396728515625 40.442298889160156 C 302.95330810546875 5.403824329376221 526.5183715820312 28.521514892578125 450.0191345214844 253.46705627441406"/>
    <path stroke-width="0" fill="rgb(79, 114, 110)" opacity="1.0005797" stroke="rgb(186, 79, 101)" stroke-opacity="1.0" stroke-linecap="round" stroke-linejoin="round" d="M 547.8270874023438 321.4450988769531 C 547.3452758789062 544.0161743164062 540.02099609375 551.331298828125 442.23577880859375 579.9823608398438 C 290.48004150390625 689.2365112304688 225.03062438964844 741.3538818359375 217.67486572265625 472.21881103515625 C 353.14642333984375 407.0687561035156 428.5798645019531 503.32781982421875 493.7908630371094 401.28753662109375 C 550.3463134765625 281.6612548828125 402.9409484863281 229.0220489501953 547.8270874023438 321.4450988769531"/>
    <path stroke-width="0" fill="rgb(61, 165, 23)" opacity="0.15428919" stroke="rgb(47, 240, 188)" stroke-opacity="1.0" stroke-linecap="round" stroke-linejoin="round" d="M 408.056396484375 298.1127014160156 C 402.44830322265625 296.9519958496094 410.2249450683594 279.0899353027344 403.9194030761719 336.3700256347656 C 401.2397155761719 249.295654296875 397.32696533203125 271.3099670410156 407.1213073730469 287.1504821777344 C 401.3268127441406 281.4190673828125 401.3789367675781 249.14613342285156 402.7113342285156 260.8865661621094 C 403.8003845214844 244.36859130859375 404.9028015136719 301.998779296875 408.056396484375 298.1127014160156"/>
    <path stroke-width="0" fill="rgb(85, 115, 101)" opacity="0.36366338" stroke="rgb(57, 64, 14)" stroke-opacity="1.0" stroke-linecap="round" stroke-linejoin="round" d="M 143.20452880859375 463.6461486816406 C 248.89599609375 507.8977966308594 154.8345947265625 503.2255859375 53.853546142578125 541.5797119140625 C 42.44731140136719 537.2024536132812 37.819068908691406 530.1972045898438 96.22218322753906 512.973876953125 C -86.10609436035156 407.2391052246094 4.341223239898682 432.35784912109375 78.88685607910156 490.1731872558594 C 13.588265419006348 404.6893615722656 31.146364212036133 448.31829833984375 143.20452880859375 463.6461486816406"/>
    <path stroke-width="0" fill="rgb(280, 29, -21)" opacity="1.0082393" stroke="rgb(79, 177, 96)" stroke-opacity="1.0" stroke-linecap="round" stroke-linejoin="round" d="M 165.7052459716797 151.2637176513672 C 182.6846160888672 150.49984741210938 166.48573303222656 148.54104614257812 162.8737335205078 154.29690551757812 C 167.06422424316406 151.60702514648438 179.7113800048828 148.10247802734375 167.8115997314453 152.71575927734375 C 185.11842346191406 148.5145263671875 204.76840209960938 158.3949737548828 190.30882263183594 139.1047821044922 C 124.2652587890625 132.17491149902344 138.25296020507812 180.64772033691406 165.7052459716797 151.2637176513672"/>
    <path stroke-width="0" fill="rgb(79, 122, 77)" opacity="0.89728683" stroke="rgb(6, 17, 173)" stroke-opacity="1.0" stroke-linecap="round" stroke-linejoin="round" d="M 17.3458194732666 436.1324768066406 C 27.468225479125977 446.8587951660156 34.86826705932617 439.6153259277344 -62.11865997314453 452.0907897949219 C -25.437917709350586 456.98138427734375 -32.49625015258789 449.58746337890625 -45.608089447021484 424.2261657714844 C -70.40806579589844 352.8207092285156 -53.1985969543457 355.70172119140625 4.987668037414551 361.38580322265625 C 19.38014793395996 416.2879638671875 35.64899826049805 429.5739440917969 17.3458194732666 436.1324768066406"/>
    <path stroke-width="0" fill="rgb(128, 166, 133)" opacity="0.5991175" stroke="rgb(136, 228, 252)" stroke-opacity="1.0" stroke-linecap="round" stroke-linejoin="round" d="M 459.38885498046875 228.31748962402344 C 411.3628234863281 324.80804443359375 449.0422668457031 71.3804931640625 258.6191101074219 89.01128387451172 C 253.28512573242188 94.74211883544922 248.69931030273438 33.978797912597656 72.08338165283203 161.97337341308594 C 151.899169921875 22.435697555541992 313.3319091796875 19.4005069732666 361.1056213378906 -9.24669361114502 C 272.5622253417969 35.425018310546875 430.7329406738281 25.445602416992188 459.38885498046875 228.31748962402344"/>
    <path stroke-width="0" fill="rgb(93, 144, 118)" opacity="0.46879852" stroke="rgb(169, 67, 5)" stroke-opacity="1.0" stroke-linecap="round" stroke-linejoin="round" d="M 385.4315185546875 452.5393981933594 C 263.8437805175781 557.4992065429688 130.0275421142578 391.7686462402344 108.85538482666016 614.06591796875 C 87.05445098876953 561.8491821289062 110.97525787353516 535.2816162109375 90.3324203491211 535.6785278320312 C 256.78594970703125 603.1126708984375 201.1659698486328 412.56658935546875 127.2938003540039 457.8847351074219 C 189.3389434814453 419.1517028808594 220.286376953125 382.7992858886719 385.4315185546875 452.5393981933594"/>
    <path stroke-width="0" fill="rgb(107, 133, 105)" opacity="0.81243885" stroke="rgb(81, 97, 150)" stroke-opacity="1.0" stroke-linecap="round" stroke-linejoin="round" d="M 593.6478881835938 209.86741638183594 C 354.845458984375 74.87345123291016 260.1720275878906 -70.5605697631836 262.13446044921875 103.32315063476562 C 329.9202575683594 113.71336364746094 306.43438720703125 112.63345336914062 258.0116882324219 97.2684326171875 C 303.7629699707031 -1.8907983303070068 222.3151397705078 -56.74417495727539 423.2127990722656 -35.566162109375 C 427.1965026855469 -13.224404335021973 516.2613525390625 -20.295591354370117 593.6478881835938 209.86741638183594"/>
    <path stroke-width="0" fill="rgb(97, 111, 88)" opacity="0.6041274" stroke="rgb(160, 222, 69)" stroke-opacity="1.0" stroke-linecap="round" stroke-linejoin="round" d="M 3.692276954650879 475.3201599121094 C 33.15345764160156 479.39556884765625 32.41636657714844 487.46942138671875 -21.96260643005371 480.6936340332031 C 10.457038879394531 452.3590087890625 -18.080373764038086 413.81536865234375 -30.1299991607666 414.26678466796875 C -29.795747756958008 421.0752258300781 -21.742794036865234 415.0025329589844 -16.090456008911133 413.07464599609375 C 30.369966506958008 429.54498291015625 24.650943756103516 465.72930908203125 3.692276954650879 475.3201599121094"/>
    <path stroke-width="0" fill="rgb(163, 192, 135)" opacity="0.88269365" stroke="rgb(47, 242, 175)" stroke-opacity="1.0" stroke-linecap="round" stroke-linejoin="round" d="M 335.11029052734375 247.31727600097656 C 333.438720703125 220.93313598632812 322.8878479003906 296.3420104980469 348.87078857421875 258.3921203613281 C 342.8408508300781 220.38304138183594 362.616455078125 241.58853149414062 348.4681091308594 206.68917846679688 C 379.3765869140625 220.87496948242188 386.4873352050781 240.13320922851562 354.5365905761719 232.67861938476562 C 343.5697326660156 254.787353515625 345.0331726074219 193.6001739501953 335.11029052734375 247.31727600097656"/>
    <path stroke-width="0" fill="rgb(14, 15, -21)" opacity="0.7288679" stroke="rgb(241, 186, 64)" stroke-opacity="1.0" stroke-linecap="round" stroke-linejoin="round" d="M 538.4428100585938 348.7137451171875 C 405.5102233886719 385.3104248046875 435.01318359375 292.6835021972656 440.89849853515625 365.6107177734375 C 388.9972229003906 333.6083984375 423.37432861328125 344.232421875 411.56158447265625 338.9959716796875 C 527.569580078125 186.79489135742188 385.6236267089844 336.17755126953125 408.5401611328125 402.1392822265625 C 395.67352294921875 313.1333312988281 462.65972900390625 383.3519592285156 538.4428100585938 348.7137451171875"/>
    <path stroke-width="0" fill="rgb(149, 185, 142)" opacity="0.81880116" stroke="rgb(132, 6, 52)" stroke-opacity="1.0" stroke-linecap="round" stroke-linejoin="round" d="M 341.1295471191406 116.09882354736328 C 364.1343078613281 157.26219177246094 435.2251892089844 174.4747314453125 300.564453125 158.19369506835938 C 140.13735961914062 138.8725128173828 219.10511779785156 216.0477752685547 191.88560485839844 121.4007797241211 C 276.23895263671875 122.50799560546875 319.26177978515625 49.14060974121094 129.14910888671875 128.61729431152344 C 257.1559143066406 77.31883239746094 272.4403991699219 104.95246124267578 341.1295471191406 116.09882354736328"/>
    <path stroke-width="0" fill="rgb(-10, 24, -42)" opacity="0.38016686" stroke="rgb(95, 118, 70)" stroke-opacity="1.0" stroke-linecap="round" stroke-linejoin="round" d="M 414.5299987792969 251.47488403320312 C 409.8481140136719 253.7572479248047 401.0962829589844 225.23080444335938 405.3974304199219 290.72259521484375 C 403.6180114746094 218.02626037597656 394.9905090332031 252.5206298828125 401.65350341796875 245.53668212890625 C 406.0693359375 256.648193359375 405.86773681640625 252.04251098632812 400.9057312011719 250.97772216796875 C 399.69976806640625 254.28768920898438 407.43756103515625 244.1172332763672 414.5299987792969 251.47488403320312"/>
    <path stroke-width="0" fill="rgb(51, 100, 11)" opacity="0.6735769" stroke="rgb(182, 100, 144)" stroke-opacity="1.0" stroke-linecap="round" stroke-linejoin="round" d="M 102.68230438232422 446.49810791015625 C 104.60354614257812 360.6864318847656 100.9220199584961 422.1594543457031 102.23606872558594 445.6501770019531 C 104.15996551513672 450.6847229003906 109.34996795654297 445.4001159667969 102.86248779296875 448.0773010253906 C 102.13728332519531 448.8073425292969 105.46768951416016 442.67913818359375 100.27162170410156 446.7702941894531 C 101.89178466796875 450.6632080078125 98.44562530517578 445.817138671875 102.68230438232422 446.49810791015625"/>
    <path stroke-width="0" fill="rgb(148, 178, 196)" opacity="0.85749173" stroke="rgb(140, 149, 245)" stroke-opacity="1.0" stroke-linecap="round" stroke-linejoin="round" d="M 379.599853515625 368.6914978027344 C 331.0990905761719 379.1369323730469 359.7923278808594 377.155029296875 350.69964599609375 379.0838623046875 C 338.6998291015625 385.2769775390625 302.9533386230469 360.55560302734375 322.66943359375 386.71099853515625 C 351.1792907714844 382.6745910644531 328.9276123046875 380.4906311035156 350.5220031738281 370.5887145996094 C 377.0419006347656 374.81390380859375 337.4762268066406 367.0977478027344 379.599853515625 368.6914978027344"/>
    <path stroke-width="0" fill="rgb(269, 249, 233)" opacity="0.8054104" stroke="rgb(61, 25, 4)" stroke-opacity="1.0" stroke-linecap="round" stroke-linejoin="round" d="M 435.64617919921875 335.6334228515625 C 425.08807373046875 336.91986083984375 444.9128112792969 347.61627197265625 446.2675476074219 379.4064025878906 C 428.4437255859375 390.4550476074219 400.65472412109375 380.06890869140625 436.33233642578125 403.3178405761719 C 382.7821044921875 331.3548278808594 457.652587890625 368.077880859375 462.9607849121094 345.51312255859375 C 454.5130920410156 365.73809814453125 434.5131530761719 335.2957458496094 435.64617919921875 335.6334228515625"/>
    <path stroke-width="0" fill="rgb(277, 262, 262)" opacity="0.47106123" stroke="rgb(170, 200, 71)" stroke-opacity="1.0" stroke-linecap="round" stroke-linejoin="round" d="M 350.0589599609375 289.8502502441406 C 368.08599853515625 275.5887145996094 351.9708557128906 281.0051574707031 335.03399658203125 336.9160461425781 C 331.1399230957031 315.0179443359375 319.57012939453125 314.3294677734375 353.3286437988281 278.7575988769531 C 353.68896484375 281.6845397949219 343.95587158203125 248.81878662109375 329.6811828613281 277.8458557128906 C 341.6699523925781 252.60174560546875 357.0828552246094 274.37677001953125 350.0589599609375 289.8502502441406"/>
    <path stroke-width="0" fill="rgb(171, 193, 154)" opacity="0.058365207" stroke="rgb(16, 123, 249)" stroke-opacity="1.0" stroke-linecap="round" stroke-linejoin="round" d="M 335.77081298828125 322.9027404785156 C 357.8419494628906 352.93670654296875 370.17962646484375 332.0218505859375 311.7923278808594 340.50543212890625 C 399.5212097167969 347.23016357421875 342.6469421386719 340.46881103515625 341.59600830078125 323.5125427246094 C 335.80401611328125 338.7681884765625 318.4458923339844 329.59722900390625 306.7484130859375 306.5484619140625 C 327.4594421386719 346.61517333984375 343.5797424316406 327.2242126464844 335.77081298828125 322.9027404785156"/>
    <path stroke-width="0" fill="rgb(263, 252, 248)" opacity="1.0118492" stroke="rgb(86, 245, 59)" stroke-opacity="1.0" stroke-linecap="round" stroke-linejoin="round" d="M 13.338723182678223 360.18487548828125 C 21.179683685302734 234.9435272216797 79.14881134033203 329.79718017578125 34.19947814941406 338.4280090332031 C 1.5609582662582397 328.989501953125 38.00847625732422 335.8873291015625 25.83047103881836 334.08404541015625 C 28.95975112915039 328.2944641113281 39.74319076538086 312.98974609375 66.74471282958984 306.94464111328125 C 44.25035858154297 314.6463928222656 31.822654724121094 313.03704833984375 13.338723182678223 360.18487548828125"/>
    <path stroke-width="0" fill="rgb(44, 48, 62)" opacity="0.5032189" stroke="rgb(126, 163, 93)" stroke-opacity="1.0" stroke-linecap="round" stroke-linejoin="round" d="M 355.8672180175781 340.94671630859375 C 350.8049621582031 342.8093566894531 375.73443603515625 377.2803039550781 317.0883483886719 366.5804138183594 C 321.9856872558594 364.8223876953125 305.6891174316406 370.4465637207031 349.4141540527344 367.9477233886719 C 363.0079345703125 355.2555847167969 361.9459533691406 337.5904846191406 322.085205078125 342.0567321777344 C 322.66973876953125 329.7106628417969 311.3096618652344 345.8992919921875 355.8672180175781 340.94671630859375"/>
    <path stroke-width="0" fill="rgb(109, 126, 80)" opacity="0.7699956" stroke="rgb(231, 197, 84)" stroke-opacity="1.0" stroke-linecap="round" stroke-linejoin="round" d="M 102.0392074584961 -11.721549987792969 C 64.18827819824219 22.014869689941406 -3.827624797821045 78.68737030029297 3.1049880981445312 120.63520812988281 C -61.72138977050781 76.34539031982422 -38.88934326171875 43.443946838378906 -21.26168441772461 2.952768087387085 C -17.32050895690918 -10.0 -10.0 -17.32050895690918 7.241615295410156 -24.014564514160156 C 31.09577178955078 -33.32636642456055 38.93543243408203 -15.198221206665039 102.0392074584961 -11.721549987792969"/>
    <path stroke-width="0" fill="rgb(161, 179, 152)" opacity="0.5366271" stroke="rgb(103, 59, 33)" stroke-opacity="1.0" stroke-linecap="round" stroke-linejoin="round" d="M 203.21066284179688 182.58273315429688 C 225.03619384765625 171.8494873046875 213.89222717285156 175.91220092773438 205.39920043945312 183.1819305419922 C 250.36253356933594 127.67140197753906 254.85635375976562 156.53970336914062 215.0572509765625 187.06396484375 C 221.78334045410156 184.25096130371094 229.2274169921875 174.7899627685547 229.31874084472656 175.16294860839844 C 224.9457550048828 136.22593688964844 202.22434997558594 159.61636352539062 203.21066284179688 182.58273315429688"/>
    <path stroke-width="0" fill="rgb(265, 261, 252)" opacity="0.9621476" stroke="rgb(20, 22, 171)" stroke-opacity="1.0" stroke-linecap="round" stroke-linejoin="round" d="M 71.58291625976562 336.9161376953125 C 57.49015808105469 329.376708984375 52.028011322021484 331.6598815917969 74.25672149658203 335.90338134765625 C 101.67344665527344 336.7298583984375 43.17280578613281 355.893310546875 20.8364315032959 327.39202880859375 C -13.920781135559082 441.9154357910156 90.32109832763672 353.3728942871094 100.19831848144531 349.2828674316406 C 97.73785400390625 313.87213134765625 87.4070053100586 359.0381774902344 71.58291625976562 336.9161376953125"/>
    <path stroke-width="0" fill="rgb(244, 274, 212)" opacity="0.07165795" stroke="rgb(107, 142, 219)" stroke-opacity="1.0" stroke-linecap="round" stroke-linejoin="round" d="M 102.99443054199219 311.4546203613281 C 128.75904846191406 312.3139953613281 111.34003448486328 332.2463684082031 90.09782409667969 353.066650390625 C 4.372836112976074 406.071044921875 -0.3606871962547302 254.15420532226562 95.89512634277344 273.0086669921875 C 142.80079650878906 315.9906311035156 50.497314453125 337.9031066894531 114.83624267578125 306.2009582519531 C 135.98141479492188 284.1978759765625 129.14418029785156 289.4687805175781 102.99443054199219 311.4546203613281"/>
    <path stroke-width="0" fill="rgb(-3, 4, 29)" opacity="0.69401914" stroke="rgb(14, 177, 198)" stroke-opacity="1.0" stroke-linecap="round" stroke-linejoin="round" d="M 26.767196655273438 296.1088562011719 C 25.114355087280273 285.8925476074219 54.702964782714844 317.73382568359375 104.25370025634766 353.0384521484375 C 60.943336486816406 313.5870361328125 18.246517181396484 289.58209228515625 26.126893997192383 277.4674377441406 C 20.88657569885254 290.4303894042969 35.09077072143555 272.43157958984375 23.42801284790039 315.9335021972656 C 10.290695190429688 292.71148681640625 40.76506042480469 288.240478515625 26.767196655273438 296.1088562011719"/>
    <path stroke-width="0" fill="rgb(148, 173, 153)" opacity="0.54129684" stroke="rgb(66, 95, 149)" stroke-opacity="1.0" stroke-linecap="round" stroke-linejoin="round" d="M 345.3357849121094 131.0221405029297 C 329.4771423339844 133.4051513671875 320.1309814453125 134.38580322265625 315.9674987792969 134.88426208496094 C 380.6421813964844 126.55567169189453 368.21923828125 133.484130859375 355.1737060546875 117.86589813232422 C 299.8977355957031 137.8839111328125 280.4620666503906 97.9793472290039 324.05841064453125 102.4002914428711 C 357.9664306640625 148.32872009277344 370.2493591308594 160.0161895751953 345.3357849121094 131.0221405029297"/>
    <path stroke-width="0" fill="rgb(-3, -5, 40)" opacity="0.82456356" stroke="rgb(203, 19, 132)" stroke-opacity="1.0" stroke-linecap="round" stroke-linejoin="round" d="M 432.6332702636719 361.8171691894531 C 520.0142822265625 412.378173828125 512.9175415039062 411.118896484375 435.832275390625 365.8982238769531 C 399.11920166015625 340.1903991699219 487.69378662109375 362.5456237792969 422.2293395996094 353.4894714355469 C 429.0577392578125 368.81640625 447.37518310546875 361.0728759765625 401.2360534667969 341.642578125 C 378.7616882324219 363.1601867675781 417.758544921875 350.7593078613281 432.6332702636719 361.8171691894531"/>
    <path stroke-width="0" fill="rgb(171, 166, 178)" opacity="0.5470103" stroke="rgb(109, 130, 136)" stroke-opacity="1.0" stroke-linecap="round" stroke-linejoin="round" d="M 330.8298645019531 133.1769256591797 C 320.8098449707031 159.3259735107422 304.4364929199219 163.88034057617188 302.1167907714844 167.57557678222656 C 344.9390869140625 179.18527221679688 312.1009216308594 169.16671752929688 318.55548095703125 199.43679809570312 C 311.93585205078125 187.9770965576172 324.14154052734375 170.4541015625 300.55731201171875 157.05308532714844 C 299.4195861816406 156.48678588867188 323.7060546875 162.31661987304688 330.8298645019531 133.1769256591797"/>
    <path stroke-width="0" fill="rgb(15, -9, -5)" opacity="0.6482757" stroke="rgb(70, 32, 100)" stroke-opacity="1.0" stroke-linecap="round" stroke-linejoin="round" d="M 195.35748291015625 404.0267639160156 C 100.12632751464844 345.31585693359375 46.28530502319336 339.44049072265625 131.79917907714844 353.5394592285156 C 122.72250366210938 324.5611267089844 125.98165893554688 337.326416015625 131.52845764160156 350.61309814453125 C 91.03438568115234 349.2153625488281 118.62844848632812 366.5260009765625 160.87155151367188 453.12335205078125 C 78.58689880371094 310.543701171875 100.7608413696289 360.2460632324219 195.35748291015625 404.0267639160156"/>
    <path stroke-width="0" fill="rgb(166, 174, 171)" opacity="0.86511505" stroke="rgb(224, 116, 184)" stroke-opacity="1.0" stroke-linecap="round" stroke-linejoin="round" d="M 195.96188354492188 181.9114227294922 C 169.8677978515625 172.50282287597656 166.26812744140625 180.51028442382812 179.13778686523438 190.14483642578125 C 201.5918731689453 158.23062133789062 196.7001953125 163.1744842529297 192.3719940185547 168.6094512939453 C 179.59109497070312 193.65814208984375 196.19943237304688 181.84568786621094 213.11167907714844 187.17271423339844 C 192.57568359375 175.89161682128906 166.74691772460938 218.7124481201172 195.96188354492188 181.9114227294922"/>
    <path stroke-width="0" fill="rgb(25, 76, 17)" opacity="0.42957073" stroke="rgb(192, 162, 61)" stroke-opacity="1.0" stroke-linecap="round" stroke-linejoin="round" d="M 7.351019859313965 328.26312255859375 C 79.03853607177734 347.9436950683594 54.119178771972656 329.787841796875 50.3302116394043 301.4298400878906 C 50.91107177734375 313.8460388183594 53.463279724121094 304.515380859375 52.23772430419922 306.66802978515625 C 55.85043716430664 307.5349426269531 46.423240661621094 309.1983337402344 52.825687408447266 315.4306640625 C 55.484962463378906 329.3508605957031 71.98792266845703 348.9289245605469 7.351019859313965 328.26312255859375"/>
    <path stroke-width="0" fill="rgb(0, 0, 22)" opacity="0.3624838" stroke="rgb(90, 90, 4)" stroke-opacity="1.0" stroke-linecap="round" stroke-linejoin="round" d="M 161.16256713867188 160.0007781982422 C 159.6853485107422 162.894287109375 164.93276977539062 163.1510009765625 184.3656463623047 159.3721466064453 C 161.9770050048828 164.04177856445312 162.103759765625 156.55641174316406 158.49375915527344 207.87661743164062 C 158.8467559814453 169.4738006591797 166.88572692871094 162.7704315185547 168.54727172851562 161.17527770996094 C 157.8054656982422 164.6212615966797 182.62213134765625 143.72998046875 161.16256713867188 160.0007781982422"/>
    <path stroke-width="0" fill="rgb(172, 161, 177)" opacity="0.3936645" stroke="rgb(248, 252, 104)" stroke-opacity="1.0" stroke-linecap="round" stroke-linejoin="round" d="M 103.03390502929688 236.65728759765625 C 105.73872375488281 216.94847106933594 106.55821990966797 237.95651245117188 126.32494354248047 243.75079345703125 C 131.8502197265625 205.34837341308594 117.63455963134766 216.73861694335938 122.9618911743164 240.73052978515625 C 110.93147277832031 234.95404052734375 129.10667419433594 149.89955139160156 116.39179229736328 187.13853454589844 C 120.7167739868164 207.8998260498047 129.6084442138672 242.00244140625 103.03390502929688 236.65728759765625"/>
    <path stroke-width="0" fill="rgb(2, 11, -6)" opacity="0.6422508" stroke="rgb(162, 125, 252)" stroke-opacity="1.0" stroke-linecap="round" stroke-linejoin="round" d="M 470.1552429199219 355.9317626953125 C 367.6774597167969 358.16259765625 407.3604431152344 335.45977783203125 412.0273742675781 367.9830017089844 C 425.7524719238281 324.89703369140625 422.293212890625 347.1650695800781 353.9261779785156 449.7543029785156 C 416.7412109375 344.370849609375 423.0971984863281 355.9493408203125 364.55950927734375 367.9324035644531 C 365.8744812011719 381.0063781738281 379.794677734375 347.4005126953125 470.1552429199219 355.9317626953125"/>
    <path stroke-width="0" fill="rgb(130, 199, 120)" opacity="0.24129178" stroke="rgb(91, 211, 235)" stroke-opacity="1.0" stroke-linecap="round" stroke-linejoin="round" d="M 357.4091796875 324.5045471191406 C 351.1667175292969 318.9610595703125 364.562744140625 322.7897644042969 354.5574951171875 375.87652587890625 C 346.22540283203125 371.9192810058594 362.0455322265625 375.0664367675781 359.56768798828125 322.2922058105469 C 357.8268737792969 321.6706237792969 357.4992370605469 317.88519287109375 378.4512939453125 334.9396667480469 C 353.15008544921875 319.24322509765625 349.7459716796875 318.8215026855469 357.4091796875 324.5045471191406"/>
    <path stroke-width="0" fill="rgb(76, 25, 0)" opacity="0.95243895" stroke="rgb(59, 88, 207)" stroke-opacity="1.0" stroke-linecap="round" stroke-linejoin="round" d="M 438.568115234375 339.58203125 C 486.57373046875 318.13824462890625 456.781005859375 326.6832275390625 464.2458190917969 324.6455383300781 C 466.3963928222656 327.3167419433594 465.17144775390625 321.3525390625 475.451171875 318.12908935546875 C 464.8494567871094 325.9866638183594 473.1506652832031 315.9438171386719 482.00189208984375 318.398681640625 C 430.5444030761719 335.82342529296875 400.95849609375 362.85186767578125 438.568115234375 339.58203125"/>
    <path stroke-width="0" fill="rgb(257, 245, 233)" opacity="0.04321504" stroke="rgb(63, 27, 242)" stroke-opacity="1.0" stroke-linecap="round" stroke-linejoin="round" d="M 105.03176879882812 400.34185791015625 C 41.97104263305664 428.71856689453125 55.31854248046875 445.7914733886719 22.95907974243164 386.1780090332031 C 118.7628402709961 411.2680969238281 95.34380340576172 408.18768310546875 53.1056022644043 405.5611267089844 C 78.67447662353516 447.7027587890625 114.22112274169922 460.2953796386719 96.12557220458984 410.4703063964844 C 78.14781188964844 406.8016662597656 74.66275024414062 404.7876892089844 105.03176879882812 400.34185791015625"/>
    <path stroke-width="0" fill="rgb(123, 160, 119)" opacity="0.6454468" stroke="rgb(175, 14, 186)" stroke-opacity="1.0" stroke-linecap="round" stroke-linejoin="round" d="M 64.54212188720703 249.47726440429688 C 64.50634765625 248.65032958984375 57.725337982177734 266.8205261230469 41.644222259521484 239.94712829589844 C 78.61720275878906 248.80149841308594 72.603759765625 238.3370361328125 57.900028228759766 236.3177490234375 C 61.46413040161133 232.73899841308594 56.11927032470703 117.49624633789062 42.13426971435547 245.76821899414062 C 128.7948760986328 208.63882446289062 151.78753662109375 258.6595458984375 64.54212188720703 249.47726440429688"/>
    <path stroke-width="0" fill="rgb(141, 151, 140)" opacity="0.62268543" stroke="rgb(213, 60, 128)" stroke-opacity="1.0" stroke-linecap="round" stroke-linejoin="round" d="M 61.83203125 250.70858764648438 C 89.8423843383789 257.53167724609375 86.23831939697266 247.0529022216797 47.4021110534668 241.7313690185547 C 39.01091384887695 244.83033752441406 76.44208526611328 237.29074096679688 120.9461898803711 228.85653686523438 C 75.65047454833984 236.80650329589844 67.30084991455078 245.423583984375 52.70022201538086 245.41163635253906 C 95.20894622802734 244.13568115234375 107.08076477050781 244.8788299560547 61.83203125 250.70858764648438"/>
    <path stroke-width="0" fill="rgb(4, 4, 26)" opacity="0.7233665" stroke="rgb(246, 139, 70)" stroke-opacity="1.0" stroke-linecap="round" stroke-linejoin="round" d="M 337.3076171875 209.51220703125 C 316.52569580078125 221.8568115234375 323.4255676269531 212.71905517578125 309.0440979003906 216.9974822998047 C 354.4776611328125 218.288330078125 333.2298278808594 195.95407104492188 329.77130126953125 238.06454467773438 C 335.8470153808594 236.67420959472656 340.5686340332031 209.0477752685547 336.1517333984375 219.74375915527344 C 333.60223388671875 222.56112670898438 345.5853576660156 234.5237274169922 337.3076171875 209.51220703125"/>
    <path stroke-width="0" fill="rgb(143, 186, 147)" opacity="0.7383041" stroke="rgb(228, 103, 140)" stroke-opacity="1.0" stroke-linecap="round" stroke-linejoin="round" d="M 406.8165588378906 219.51052856445312 C 401.7475891113281 244.78138732910156 387.32904052734375 246.87042236328125 428.9617919921875 246.34776306152344 C 454.291015625 237.4730682373047 394.14019775390625 219.58738708496094 391.63226318359375 239.55519104003906 C 398.0244445800781 232.97967529296875 397.561767578125 251.90562438964844 401.34283447265625 239.32473754882812 C 396.1563720703125 246.32212829589844 406.74493408203125 241.0376739501953 406.8165588378906 219.51052856445312"/>
    <path stroke-width="0" fill="rgb(156, 162, 168)" opacity="0.6076537" stroke="rgb(64, 113, 26)" stroke-opacity="1.0" stroke-linecap="round" stroke-linejoin="round" d="M 136.95657348632812 234.51516723632812 C 107.21602630615234 227.8587188720703 114.39657592773438 222.93394470214844 120.15725708007812 229.1123046875 C 140.93421936035156 243.4622344970703 102.07386779785156 243.6055450439453 69.93946075439453 237.54441833496094 C 146.52732849121094 227.26795959472656 67.76827239990234 208.51727294921875 119.95824432373047 235.74586486816406 C 108.36920166015625 247.32276916503906 146.58717346191406 252.01510620117188 136.95657348632812 234.51516723632812"/>
    <path stroke-width="0" fill="rgb(122, 128, 138)" opacity="0.35038397" stroke="rgb(0, 0, 0)" stroke-opacity="0.0" stroke-linecap="round" stroke-linejoin="round" d="M 326.1853942871094 0.6980571746826172 C 327.621826171875 5.705752372741699 326.3645324707031 5.537971496582031 318.1531066894531 6.005617141723633 C 320.5653381347656 6.0124287605285645 318.9699401855469 5.750959873199463 318.7519836425781 1.07534921169281 C 318.7723388671875 -2.9278311729431152 320.7860107421875 -4.727841854095459 324.8584899902344 -4.880227565765381 C 328.7002258300781 -4.777465343475342 329.383544921875 -3.8816001415252686 326.1853942871094 0.6980571746826172"/>
    <path stroke-width="0" fill="rgb(91, 111, 88)" opacity="0.23430967" stroke="rgb(0, 0, 0)" stroke-opacity="0.0" stroke-linecap="round" stroke-linejoin="round" d="M 516.7306518554688 22.111928939819336 C 516.52685546875 28.59314727783203 514.53955078125 33.52197265625 508.1992492675781 31.5039005279541 C 504.13226318359375 28.676916122436523 507.10650634765625 21.875879287719727 506.9930725097656 15.925558090209961 C 504.81427001953125 21.755268096923828 506.2685852050781 16.305219650268555 508.3966064453125 12.488810539245605 C 513.01806640625 12.286726951599121 515.796875 16.716453552246094 516.7306518554688 22.111928939819336"/>
    <path stroke-width="0" fill="rgb(132, 100, 115)" opacity="0.49162778" stroke="rgb(0, 0, 0)" stroke-opacity="0.0" stroke-linecap="round" stroke-linejoin="round" d="M 27.58766746520996 3.9801266193389893 C 26.281211853027344 7.390598297119141 25.583316802978516 11.555137634277344 23.451168060302734 8.552374839782715 C 15.586322784423828 11.242880821228027 16.479114532470703 11.677511215209961 19.87143325805664 6.2468156814575195 C 18.135847091674805 -2.038017988204956 17.87069320678711 -3.5816760063171387 21.836002349853516 -3.2128026485443115 C 27.314247131347656 -1.1847670078277588 29.019289016723633 2.1936707496643066 27.58766746520996 3.9801266193389893"/>
    <path stroke-width="0" fill="rgb(85, 89, 158)" opacity="0.19008026" stroke="rgb(0, 0, 0)" stroke-opacity="0.0" stroke-linecap="round" stroke-linejoin="round" d="M 516.6490478515625 13.049287796020508 C 515.314697265625 17.859222412109375 513.977783203125 18.7532958984375 512.1385498046875 14.249202728271484 C 504.21636962890625 15.647326469421387 500.5893249511719 14.583847999572754 501.01873779296875 11.35098648071289 C 499.4252624511719 4.232343673706055 500.95269775390625 5.746170997619629 507.4648132324219 8.642849922180176 C 513.1049194335938 7.7312541007995605 515.1218872070312 8.627584457397461 516.6490478515625 13.049287796020508"/>
    <path stroke-width="0" fill="rgb(153, 79, 133)" opacity="0.53242284" stroke="rgb(0, 0, 0)" stroke-opacity="0.0" stroke-linecap="round" stroke-linejoin="round" d="M 99.25747680664062 -4.010519027709961 C 95.2469711303711 -2.350100040435791 94.10502624511719 0.3570592701435089 99.19583129882812 2.6976637840270996 C 99.25113677978516 1.9753998517990112 97.97119140625 -1.9883700609207153 94.4791030883789 -4.080936431884766 C 89.95406341552734 -2.899209499359131 92.71546173095703 -5.8937578201293945 96.7063217163086 -6.96558141708374 C 100.74166107177734 -5.906624794006348 103.8768310546875 -3.0837278366088867 99.25747680664062 -4.010519027709961"/>
    <path stroke-width="0" fill="rgb(146, 88, 102)" opacity="0.5304955" stroke="rgb(0, 0, 0)" stroke-opacity="0.0" stroke-linecap="round" stroke-linejoin="round" d="M 51.813941955566406 4.7118024826049805 C 46.81691360473633 6.428850173950195 46.5964469909668 8.995075225830078 48.93129348754883 10.479827880859375 C 47.734622955322266 13.099295616149902 46.68629455566406 9.270731925964355 46.33369827270508 7.418200492858887 C 47.03572463989258 11.003487586975098 49.10353469848633 7.873651504516602 49.81317901611328 5.834550857543945 C 51.12816619873047 6.296966075897217 55.09328079223633 7.605282783508301 51.813941955566406 4.7118024826049805"/>
    <path stroke-width="0" fill="rgb(136, 176, 144)" opacity="0.34560582" stroke="rgb(0, 0, 0)" stroke-opacity="0.0" stroke-linecap="round" stroke-linejoin="round" d="M 166.65097045898438 15.413531303405762 C 169.49777221679688 14.840758323669434 164.97914123535156 13.764062881469727 160.48150634765625 14.588150978088379 C 155.52102661132812 14.901154518127441 151.73057556152344 16.13719367980957 155.2957305908203 13.677525520324707 C 158.88644409179688 12.50801944732666 164.43443298339844 12.109410285949707 161.4480743408203 7.2262420654296875 C 161.0695037841797 7.995949745178223 165.71107482910156 10.150440216064453 166.65097045898438 15.413531303405762"/>
    <path stroke-width="0" fill="rgb(47, 140, 137)" opacity="0.20674486" stroke="rgb(0, 0, 0)" stroke-opacity="0.0" stroke-linecap="round" stroke-linejoin="round" d="M 423.0630187988281 15.50451374053955 C 424.4239501953125 22.366886138916016 422.8047180175781 24.336362838745117 422.00677490234375 20.7216796875 C 414.63525390625 23.280057907104492 409.518310546875 22.389360427856445 413.67034912109375 21.551799774169922 C 414.9664306640625 15.122876167297363 414.6552734375 8.155982971191406 416.1008605957031 11.848604202270508 C 424.0721435546875 14.644929885864258 426.8796691894531 14.770078659057617 423.0630187988281 15.50451374053955"/>
    <path stroke-width="0" fill="rgb(110, 127, 112)" opacity="0.28979117" stroke="rgb(0, 0, 0)" stroke-opacity="0.0" stroke-linecap="round" stroke-linejoin="round" d="M 56.448272705078125 4.3593621253967285 C 53.372100830078125 4.658370494842529 49.84138488769531 7.901749610900879 47.98488235473633 13.767205238342285 C 45.936256408691406 4.976879119873047 42.31605911254883 2.5714609622955322 40.303382873535156 -0.569750189781189 C 39.76494216918945 -2.4645438194274902 42.607749938964844 -5.353358268737793 46.53600311279297 -6.476149082183838 C 50.58704376220703 -5.483997821807861 53.21670913696289 -2.3787059783935547 56.448272705078125 4.3593621253967285"/>
    <path stroke-width="0" fill="rgb(140, 105, 70)" opacity="0.4454099" stroke="rgb(0, 0, 0)" stroke-opacity="0.0" stroke-linecap="round" stroke-linejoin="round" d="M 48.09475326538086 15.93195629119873 C 51.3502311706543 16.737228393554688 47.123748779296875 15.696986198425293 46.318504333496094 17.049175262451172 C 47.61601257324219 21.66705894470215 46.93359375 18.583942413330078 48.59335708618164 11.9957914352417 C 46.80038070678711 13.423994064331055 49.174564361572266 11.36929702758789 48.00300979614258 9.339092254638672 C 47.442962646484375 10.442338943481445 47.45063781738281 16.38736915588379 48.09475326538086 15.93195629119873"/>
    <path stroke-width="0" fill="rgb(156, 157, 169)" opacity="0.13862523" stroke="rgb(0, 0, 0)" stroke-opacity="0.0" stroke-linecap="round" stroke-linejoin="round" d="M 387.1812438964844 442.63140869140625 C 386.459716796875 445.8505554199219 387.0364990234375 451.6207275390625 382.0284423828125 451.63702392578125 C 380.9938049316406 451.45782470703125 378.23028564453125 446.9726867675781 374.23065185546875 442.1462097167969 C 373.2044982910156 439.005615234375 380.1854553222656 439.5881652832031 384.1763916015625 438.3709716796875 C 384.68414306640625 439.5330505371094 388.7684020996094 442.17205810546875 387.1812438964844 442.63140869140625"/>
    <path stroke-width="0" fill="rgb(219, 130, 65)" opacity="0.14981672" stroke="rgb(0, 0, 0)" stroke-opacity="0.0" stroke-linecap="round" stroke-linejoin="round" d="M 298.77142333984375 374.73193359375 C 300.2596435546875 376.1141357421875 293.6751403808594 376.57708740234375 288.1074523925781 378.9913024902344 C 285.7093811035156 382.364990234375 285.9540710449219 379.7870178222656 286.1605529785156 368.6553649902344 C 282.2445983886719 363.1710205078125 283.3783874511719 362.9656982421875 289.34942626953125 364.93829345703125 C 293.5227966308594 366.3261413574219 295.5011901855469 370.5304260253906 298.77142333984375 374.73193359375"/>
    <path stroke-width="0" fill="rgb(99, 133, 129)" opacity="0.61283106" stroke="rgb(0, 0, 0)" stroke-opacity="0.0" stroke-linecap="round" stroke-linejoin="round" d="M 459.0832824707031 241.0853271484375 C 463.0625915527344 240.56784057617188 460.3964538574219 241.53561401367188 454.6899719238281 244.61770629882812 C 453.2609558105469 243.88597106933594 454.1224060058594 235.60072326660156 452.58135986328125 236.20571899414062 C 454.9834899902344 237.55494689941406 457.52752685546875 233.56423950195312 459.5757751464844 229.218505859375 C 459.2207946777344 229.8918914794922 460.88238525390625 234.14599609375 459.0832824707031 241.0853271484375"/>
    <path stroke-width="0" fill="rgb(118, 104, 139)" opacity="0.14508897" stroke="rgb(0, 0, 0)" stroke-opacity="0.0" stroke-linecap="round" stroke-linejoin="round" d="M 352.49609375 136.01251220703125 C 355.87261962890625 134.75242614746094 351.45318603515625 136.1368408203125 348.7041931152344 135.3157196044922 C 347.58587646484375 135.39035034179688 347.93450927734375 132.64376831054688 344.2178955078125 128.08511352539062 C 341.6536865234375 128.74998474121094 350.6199645996094 129.81533813476562 350.5863037109375 129.44488525390625 C 348.8072204589844 128.0186309814453 352.6604309082031 131.08836364746094 352.49609375 136.01251220703125"/>
    <path stroke-width="0" fill="rgb(102, 113, 224)" opacity="0.12539649" stroke="rgb(0, 0, 0)" stroke-opacity="0.0" stroke-linecap="round" stroke-linejoin="round" d="M 420.7928161621094 254.96400451660156 C 423.03631591796875 257.7539367675781 416.8350524902344 256.27728271484375 411.8741149902344 258.95361328125 C 410.1376953125 261.4515380859375 407.94500732421875 257.8613586425781 408.6702575683594 251.52426147460938 C 408.1158447265625 248.7222442626953 410.0115661621094 246.538330078125 414.98944091796875 245.33059692382812 C 419.6922302246094 245.6641387939453 420.9320068359375 246.71243286132812 420.7928161621094 254.96400451660156"/>
    <path stroke-width="0" fill="rgb(65, 53, 183)" opacity="0.34783444" stroke="rgb(0, 0, 0)" stroke-opacity="0.0" stroke-linecap="round" stroke-linejoin="round" d="M 283.2365417480469 314.5663757324219 C 283.0751647949219 317.0032958984375 282.3697204589844 321.9588623046875 277.0805358886719 327.3982238769531 C 271.76409912109375 321.742919921875 268.3519287109375 317.79168701171875 268.6484375 312.38592529296875 C 269.8040466308594 308.7305603027344 274.22589111328125 307.5988464355469 278.55084228515625 308.6246337890625 C 278.642578125 308.3900146484375 281.3107604980469 312.0391845703125 283.2365417480469 314.5663757324219"/>
    <path stroke-width="0" fill="rgb(253, 159, 213)" opacity="0.26904455" stroke="rgb(0, 0, 0)" stroke-opacity="0.0" stroke-linecap="round" stroke-linejoin="round" d="M 157.5474853515625 -65.91089630126953 C 156.47569274902344 -61.9109001159668 153.5474853515625 -58.982696533203125 149.5474853515625 -57.9109001159668 C 145.5474853515625 -58.982696533203125 142.61927795410156 -61.9109001159668 141.5474853515625 -65.91089630126953 C 142.61927795410156 -69.91089630126953 145.5474853515625 -72.83910369873047 149.5474853515625 -73.91089630126953 C 153.5474853515625 -72.83910369873047 156.47569274902344 -69.91089630126953 157.5474853515625 -65.91089630126953"/>
    <path stroke-width="0" fill="rgb(88, 155, 160)" opacity="0.37254307" stroke="rgb(0, 0, 0)" stroke-opacity="0.0" stroke-linecap="round" stroke-linejoin="round" d="M 45.19097900390625 290.3056335449219 C 46.22407150268555 291.981201171875 43.66203308105469 294.95574951171875 38.96818161010742 294.02337646484375 C 37.897308349609375 298.7572937011719 36.55947494506836 298.9375305175781 36.58608627319336 295.8192138671875 C 37.78419494628906 288.3114318847656 40.998565673828125 286.7944641113281 43.39466857910156 286.38531494140625 C 39.80086135864258 293.3518981933594 41.99272537231445 295.5382995605469 45.19097900390625 290.3056335449219"/>
    <path stroke-width="0" fill="rgb(170, 142, 70)" opacity="0.4352585" stroke="rgb(0, 0, 0)" stroke-opacity="0.0" stroke-linecap="round" stroke-linejoin="round" d="M 279.8465881347656 43.3636589050293 C 277.9957275390625 47.43027114868164 278.6638488769531 51.359764099121094 271.30926513671875 50.519474029541016 C 272.0594177246094 54.838218688964844 272.3470764160156 52.02082824707031 272.6454772949219 46.24486541748047 C 272.2965087890625 41.08003234863281 272.32159423828125 39.03961944580078 275.6361083984375 43.46669006347656 C 283.8096618652344 43.268619537353516 285.99432373046875 43.227195739746094 279.8465881347656 43.3636589050293"/>
    <path stroke-width="0" fill="rgb(195, 213, 129)" opacity="0.09253827" stroke="rgb(0, 0, 0)" stroke-opacity="0.0" stroke-linecap="round" stroke-linejoin="round" d="M 23.74091148376465 5.070201873779297 C 22.914627075195312 16.00020980834961 24.594091415405273 16.045026779174805 13.42735767364502 14.779509544372559 C -0.45767512917518616 15.325041770935059 5.0921196937561035 15.693805694580078 -0.7430278658866882 4.250651836395264 C 5.869539737701416 0.18558360636234283 10.02418041229248 -2.227271318435669 15.045780181884766 -3.8629753589630127 C 22.533119201660156 -4.760830402374268 24.245702743530273 -2.257535457611084 23.74091148376465 5.070201873779297"/>
    <path stroke-width="0" fill="rgb(116, 192, 238)" opacity="0.048061244" stroke="rgb(0, 0, 0)" stroke-opacity="0.0" stroke-linecap="round" stroke-linejoin="round" d="M 243.52122497558594 91.8677978515625 C 235.8976287841797 96.27509307861328 233.64114379882812 99.9125747680664 231.2572021484375 106.26121520996094 C 227.91062927246094 104.81405639648438 226.40631103515625 100.39380645751953 225.5344696044922 96.2188949584961 C 225.8955841064453 91.942138671875 228.30931091308594 88.05023193359375 231.7593536376953 87.41512298583984 C 237.75584411621094 88.79835510253906 242.14601135253906 90.52782440185547 243.52122497558594 91.8677978515625"/>
    <path stroke-width="0" fill="rgb(155, 213, 254)" opacity="0.0800238" stroke="rgb(0, 0, 0)" stroke-opacity="0.0" stroke-linecap="round" stroke-linejoin="round" d="M 79.19285583496094 -24.607269287109375 C 78.12105560302734 -20.607269287109375 75.19285583496094 -17.679065704345703 71.19285583496094 -16.607269287109375 C 67.19285583496094 -17.679065704345703 64.2646484375 -20.607269287109375 63.19285583496094 -24.607269287109375 C 64.2646484375 -28.607269287109375 67.19285583496094 -31.535472869873047 71.19285583496094 -32.607269287109375 C 75.19285583496094 -31.535472869873047 78.12105560302734 -28.607269287109375 79.19285583496094 -24.607269287109375"/>
    <path stroke-width="0" fill="rgb(85, 120, 90)" opacity="0.34496775" stroke="rgb(0, 0, 0)" stroke-opacity="0.0" stroke-linecap="round" stroke-linejoin="round" d="M 234.34068298339844 10.151992797851562 C 236.16238403320312 16.542503356933594 235.26986694335938 19.634431838989258 233.1375274658203 16.470670700073242 C 225.01173400878906 16.298612594604492 221.36691284179688 18.065919876098633 224.5187530517578 13.05713176727295 C 223.31288146972656 7.402344226837158 225.89456176757812 8.671971321105957 231.94692993164062 8.834174156188965 C 235.8723602294922 6.468459606170654 234.6463165283203 8.497201919555664 234.34068298339844 10.151992797851562"/>
    <path stroke-width="0" fill="rgb(84, 219, 67)" opacity="0.020918408" stroke="rgb(0, 0, 0)" stroke-opacity="0.0" stroke-linecap="round" stroke-linejoin="round" d="M 136.1854705810547 53.19596481323242 C 131.7578887939453 55.72629165649414 128.79917907714844 59.48350524902344 123.99376678466797 64.3153305053711 C 122.94329833984375 59.32535934448242 118.13204193115234 57.05842590332031 117.6318130493164 54.79716873168945 C 122.1138916015625 53.505943298339844 125.9224624633789 51.1066780090332 129.33551025390625 48.99949645996094 C 129.18833923339844 47.20595932006836 131.26942443847656 49.28495788574219 136.1854705810547 53.19596481323242"/>
    <path stroke-width="0" fill="rgb(136, 248, 138)" opacity="0.0013473454" stroke="rgb(0, 0, 0)" stroke-opacity="0.0" stroke-linecap="round" stroke-linejoin="round" d="M 187.65460205078125 372.7434387207031 C 180.158447265625 374.3854064941406 177.22935485839844 378.1997375488281 175.86317443847656 379.29962158203125 C 177.2960205078125 380.9481201171875 172.72703552246094 379.2350769042969 173.1326904296875 377.0549011230469 C 172.81080627441406 370.9324035644531 174.0540313720703 367.8550720214844 180.0260009765625 367.7420349121094 C 184.68234252929688 368.1332092285156 187.22885131835938 371.52679443359375 187.65460205078125 372.7434387207031"/>
    <path stroke-width="0" fill="rgb(142, 33, 27)" opacity="0.23036358" stroke="rgb(0, 0, 0)" stroke-opacity="0.0" stroke-linecap="round" stroke-linejoin="round" d="M 371.0085754394531 252.07911682128906 C 365.3565368652344 250.84234619140625 362.3531799316406 253.82901000976562 360.9645080566406 259.3098449707031 C 360.9814758300781 256.832275390625 361.1847229003906 250.99256896972656 357.0830383300781 244.67471313476562 C 355.91162109375 245.9793701171875 363.58526611328125 246.7477264404297 361.95355224609375 247.48374938964844 C 362.1603088378906 249.4377899169922 365.80950927734375 251.8107452392578 371.0085754394531 252.07911682128906"/>
    <path stroke-width="0" fill="rgb(161, 126, 96)" opacity="0.17398326" stroke="rgb(0, 0, 0)" stroke-opacity="0.0" stroke-linecap="round" stroke-linejoin="round" d="M 62.62257766723633 436.889892578125 C 59.863609313964844 438.42425537109375 59.57820510864258 444.6263732910156 57.48604965209961 445.08709716796875 C 50.408504486083984 440.3275451660156 45.687992095947266 438.65057373046875 44.917442321777344 435.27752685546875 C 50.659236907958984 435.6894836425781 55.60427474975586 434.440673828125 56.98916244506836 429.58966064453125 C 57.89978790283203 425.01043701171875 58.49694061279297 430.7020568847656 62.62257766723633 436.889892578125"/>
    <path stroke-width="0" fill="rgb(221, 217, 175)" opacity="0.33691373" stroke="rgb(0, 0, 0)" stroke-opacity="0.0" stroke-linecap="round" stroke-linejoin="round" d="M 457.20330810546875 385.62274169921875 C 454.99871826171875 390.3797607421875 452.3603820800781 394.7431945800781 447.04058837890625 397.0741882324219 C 441.78192138671875 393.208984375 438.6398010253906 390.03643798828125 437.6952209472656 384.93048095703125 C 437.5730895996094 379.5491027832031 442.0176696777344 378.7847900390625 447.07489013671875 375.5478820800781 C 454.78985595703125 372.06793212890625 457.1459045410156 375.2623596191406 457.20330810546875 385.62274169921875"/>
    <path stroke-width="0" fill="rgb(173, 207, 201)" opacity="0.5414942" stroke="rgb(0, 0, 0)" stroke-opacity="0.0" stroke-linecap="round" stroke-linejoin="round" d="M 93.07099151611328 62.90296173095703 C 91.97579193115234 61.82411193847656 91.82080841064453 68.71852111816406 94.7522964477539 65.63792419433594 C 92.23007202148438 65.1479721069336 88.5541763305664 62.653587341308594 87.04395294189453 61.63401794433594 C 87.91756439208984 63.67815399169922 90.1434326171875 58.00899124145508 89.45146942138672 56.85921096801758 C 92.3622817993164 60.1856689453125 94.39286804199219 64.4667739868164 93.07099151611328 62.90296173095703"/>
    <path stroke-width="0" fill="rgb(164, 177, 176)" opacity="0.23349424" stroke="rgb(0, 0, 0)" stroke-opacity="0.0" stroke-linecap="round" stroke-linejoin="round" d="M 164.5977020263672 78.97000122070312 C 164.3658905029297 85.06573486328125 164.85946655273438 86.6490249633789 162.8646697998047 83.3121109008789 C 154.54237365722656 82.72161865234375 150.35952758789062 82.76696014404297 149.9350128173828 77.00587463378906 C 149.32778930664062 72.0031509399414 156.299560546875 73.08453369140625 161.52943420410156 66.74310302734375 C 163.3551025390625 68.25138854980469 164.86280822753906 75.0675277709961 164.5977020263672 78.97000122070312"/>
    <path stroke-width="0" fill="rgb(89, 115, 109)" opacity="0.06957825" stroke="rgb(0, 0, 0)" stroke-opacity="0.0" stroke-linecap="round" stroke-linejoin="round" d="M 408.5448303222656 514.01025390625 C 410.2483215332031 515.984130859375 407.32012939453125 518.9122924804688 403.32012939453125 519.984130859375 C 399.3170166015625 518.9122924804688 396.3099365234375 515.9767456054688 396.45025634765625 512.6375732421875 C 396.0772399902344 508.3087463378906 399.9756164550781 506.4367980957031 405.52423095703125 505.0743408203125 C 406.5103454589844 504.59759521484375 408.2913513183594 509.1158447265625 408.5448303222656 514.01025390625"/>
    <path stroke-width="0" fill="rgb(111, 117, 154)" opacity="0.09057134" stroke="rgb(0, 0, 0)" stroke-opacity="0.0" stroke-linecap="round" stroke-linejoin="round" d="M 302.7630615234375 233.87237548828125 C 299.6459655761719 235.03919982910156 295.094482421875 236.10533142089844 289.56298828125 239.13897705078125 C 288.7159729003906 242.6463165283203 291.2007141113281 241.31643676757812 291.1020812988281 237.04173278808594 C 290.4455261230469 230.72805786132812 291.3114013671875 225.91293334960938 297.01824951171875 222.5027313232422 C 301.27874755859375 222.80801391601562 302.6943664550781 227.6552734375 302.7630615234375 233.87237548828125"/>
    <path stroke-width="0" fill="rgb(124, 134, 126)" opacity="0.32762372" stroke="rgb(0, 0, 0)" stroke-opacity="0.0" stroke-linecap="round" stroke-linejoin="round" d="M 323.1836242675781 65.59268951416016 C 325.0818786621094 77.09204864501953 325.9544677734375 79.43817138671875 323.04364013671875 76.32524871826172 C 316.99102783203125 75.75196838378906 314.4093017578125 75.10696411132812 315.434814453125 76.11066436767578 C 313.7139587402344 66.94999694824219 313.35711669921875 65.38675689697266 314.9811096191406 66.75868225097656 C 326.10565185546875 66.03203582763672 326.7887878417969 66.1836166381836 323.1836242675781 65.59268951416016"/>
    <path stroke-width="0" fill="rgb(186, 77, 206)" opacity="-0.0044698655" stroke="rgb(0, 0, 0)" stroke-opacity="0.0" stroke-linecap="round" stroke-linejoin="round" d="M 149.6865234375 124.26879119873047 C 149.83985900878906 129.05494689941406 146.9026336669922 131.4546661376953 142.80003356933594 132.66177368164062 C 140.6314239501953 133.41375732421875 137.3296356201172 130.32054138183594 140.12344360351562 126.820556640625 C 139.52914428710938 123.30261993408203 141.4170684814453 119.7799072265625 143.61387634277344 118.31163787841797 C 148.5172576904297 119.54663848876953 150.9864501953125 122.3096923828125 149.6865234375 124.26879119873047"/>
    <path stroke-width="0" fill="rgb(47, 68, 165)" opacity="0.056699436" stroke="rgb(0, 0, 0)" stroke-opacity="0.0" stroke-linecap="round" stroke-linejoin="round" d="M 483.9872741699219 449.9739990234375 C 478.1103820800781 450.978271484375 473.8424377441406 452.5086975097656 470.1165466308594 453.6042785644531 C 468.68609619140625 456.42388916015625 467.1661376953125 453.72918701171875 466.25177001953125 446.5357666015625 C 463.2004699707031 442.1061096191406 466.2258605957031 439.5303649902344 469.5416564941406 444.7392883300781 C 473.1829833984375 447.48443603515625 479.089599609375 446.8904113769531 483.9872741699219 449.9739990234375"/>
    <path stroke-width="0" fill="rgb(121, 82, 119)" opacity="0.0001340301" stroke="rgb(0, 0, 0)" stroke-opacity="0.0" stroke-linecap="round" stroke-linejoin="round" d="M 181.29672241210938 331.3882141113281 C 175.94317626953125 331.14093017578125 171.97789001464844 332.1595764160156 171.31179809570312 336.2093505859375 C 173.6431884765625 333.5362243652344 173.19436645507812 329.4735412597656 166.3999786376953 326.8910827636719 C 163.6153564453125 324.2867736816406 165.9473419189453 320.5786437988281 170.93194580078125 321.9269104003906 C 176.98106384277344 324.503662109375 180.42654418945312 327.0868835449219 181.29672241210938 331.3882141113281"/>
    <path stroke-width="0" fill="rgb(98, 127, 211)" opacity="0.084621966" stroke="rgb(0, 0, 0)" stroke-opacity="0.0" stroke-linecap="round" stroke-linejoin="round" d="M 298.1037902832031 205.87644958496094 C 298.8768310546875 213.5586700439453 300.19122314453125 216.36947631835938 293.3853454589844 218.95034790039062 C 285.8249206542969 219.6212158203125 287.37353515625 211.19508361816406 284.8144836425781 205.0557098388672 C 285.12506103515625 200.38963317871094 287.23297119140625 197.60977172851562 293.5223083496094 198.97198486328125 C 297.1825866699219 198.6110076904297 299.4593505859375 201.5862579345703 298.1037902832031 205.87644958496094"/>
    <path stroke-width="0" fill="rgb(114, 175, 219)" opacity="0.13438052" stroke="rgb(0, 0, 0)" stroke-opacity="0.0" stroke-linecap="round" stroke-linejoin="round" d="M 188.8651123046875 281.69818115234375 C 190.30006408691406 286.460693359375 188.41226196289062 291.92034912109375 184.64170837402344 290.7558288574219 C 182.38101196289062 286.6905212402344 179.19671630859375 283.5223693847656 176.33958435058594 280.07830810546875 C 176.18287658691406 278.056640625 179.94715881347656 272.3900146484375 182.5756072998047 272.9537048339844 C 186.02809143066406 279.0369873046875 189.47019958496094 281.683349609375 188.8651123046875 281.69818115234375"/>
    <path stroke-width="0" fill="rgb(52, 169, 126)" opacity="0.49702466" stroke="rgb(0, 0, 0)" stroke-opacity="0.0" stroke-linecap="round" stroke-linejoin="round" d="M 39.9691047668457 5.3101372718811035 C 38.463199615478516 4.799204349517822 37.12381362915039 10.377424240112305 31.296045303344727 12.089045524597168 C 31.93523406982422 14.648380279541016 33.53767395019531 6.803370475769043 29.85103416442871 2.5148158073425293 C 28.11909294128418 -2.501964569091797 31.002517700195312 -4.463648319244385 33.19729995727539 -2.6777584552764893 C 36.5007438659668 -0.619487464427948 38.60076141357422 3.3575901985168457 39.9691047668457 5.3101372718811035"/>
    <path stroke-width="0" fill="rgb(31, 19, 109)" opacity="0.90766495" stroke="rgb(0, 0, 0)" stroke-opacity="0.0" stroke-linecap="round" stroke-linejoin="round" d="M 467.14422607421875 256.8996887207031 C 464.8428039550781 261.8734436035156 460.21502685546875 262.1006164550781 457.98504638671875 258.73529052734375 C 456.2677001953125 256.5101318359375 452.925537109375 254.13059997558594 446.45269775390625 252.51910400390625 C 444.8896484375 249.2574005126953 447.9810791015625 246.86058044433594 453.9484558105469 244.4677734375 C 463.72589111328125 244.3159942626953 467.64178466796875 246.3898468017578 467.14422607421875 256.8996887207031"/>
    <path stroke-width="0" fill="rgb(149, 134, 75)" opacity="0.41684908" stroke="rgb(0, 0, 0)" stroke-opacity="0.0" stroke-linecap="round" stroke-linejoin="round" d="M -21.84418487548828 -77.20195007324219 C -22.91598129272461 -73.20195007324219 -25.84418487548828 -70.27374267578125 -29.84418487548828 -69.20195007324219 C -33.84418487548828 -70.27374267578125 -36.77238845825195 -73.20195007324219 -37.84418487548828 -77.20195007324219 C -36.77238845825195 -81.20195007324219 -33.84418487548828 -84.1301498413086 -29.84418487548828 -85.20195007324219 C -25.84418487548828 -84.1301498413086 -22.91598129272461 -81.20195007324219 -21.84418487548828 -77.20195007324219"/>
  </g>
</svg>
