<?xml version="1.0" ?>
<svg xmlns="http://www.w3.org/2000/svg" version="1.1" width="512" height="512">
  <defs/>
  <g>
    <path stroke-width="0" fill="rgb(-21, -51, 14)" opacity="1.2275327" stroke="rgb(139, 182, 153)" stroke-opacity="1.0" stroke-linecap="round" stroke-linejoin="round" d="M 576.9832153320312 162.57676696777344 C 473.9595642089844 158.32882690429688 255.737060546875 162.25112915039062 21.5284481048584 158.87905883789062 C 149.9614715576172 41.40039825439453 217.20492553710938 78.77104187011719 174.48895263671875 -25.099302291870117 C 185.01902770996094 -33.60383224487305 197.35633850097656 -35.491127014160156 255.78379821777344 -34.26714324951172 C 358.8865661621094 -48.51179885864258 437.21392822265625 -146.50369262695312 576.9832153320312 162.57676696777344"/>
    <path stroke-width="0" fill="rgb(28, 72, 13)" opacity="0.5889261" stroke="rgb(108, 164, 111)" stroke-opacity="1.0" stroke-linecap="round" stroke-linejoin="round" d="M 315.64923095703125 713.8077392578125 C -127.13948059082031 749.043212890625 4.985049247741699 369.6114196777344 41.666542053222656 82.56013488769531 C 293.0481872558594 122.73342895507812 289.8204040527344 118.47431945800781 280.1459045410156 40.89720916748047 C 284.2266845703125 -66.92325592041016 317.0650329589844 -46.443145751953125 442.3717346191406 -36.365211486816406 C 639.143310546875 -2.5854287147521973 854.1314086914062 240.14646911621094 315.64923095703125 713.8077392578125"/>
    <path stroke-width="0" fill="rgb(90, 127, 102)" opacity="1.0887555" stroke="rgb(245, 97, 201)" stroke-opacity="1.0" stroke-linecap="round" stroke-linejoin="round" d="M 363.2080383300781 89.97440338134766 C 334.0107116699219 107.53531646728516 324.1181640625 111.74130249023438 88.02022552490234 106.91107177734375 C 110.6676025390625 103.6150894165039 112.05255126953125 111.51028442382812 120.72222900390625 67.0373764038086 C 135.6087188720703 -33.50758361816406 141.19656372070312 -41.69476318359375 171.9982147216797 -45.83034896850586 C 295.3202819824219 -30.71405601501465 321.104736328125 -39.52600860595703 363.2080383300781 89.97440338134766"/>
    <path stroke-width="0" fill="rgb(6, 3, 4)" opacity="1.0571225" stroke="rgb(144, 236, 18)" stroke-opacity="1.0" stroke-linecap="round" stroke-linejoin="round" d="M 256.6015319824219 88.48651123046875 C 196.24884033203125 109.93363189697266 292.16217041015625 73.429443359375 527.5287475585938 139.4423065185547 C 127.77822875976562 152.03732299804688 18.52583122253418 95.37230682373047 -29.854711532592773 240.63868713378906 C -45.53935623168945 -103.79988098144531 -12.785496711730957 -54.71656799316406 149.35360717773438 -35.12907028198242 C 205.4571075439453 -44.165802001953125 223.49740600585938 -50.854862213134766 256.6015319824219 88.48651123046875"/>
    <path stroke-width="0" fill="rgb(267, 266, 267)" opacity="1.031897" stroke="rgb(5, 212, 198)" stroke-opacity="1.0" stroke-linecap="round" stroke-linejoin="round" d="M 496.20831298828125 247.2493896484375 C 465.4299011230469 181.056884765625 271.2640686035156 188.55531311035156 294.60650634765625 221.34901428222656 C 192.3453826904297 182.0939178466797 155.1748809814453 184.90316772460938 130.80079650878906 160.68748474121094 C 78.31343841552734 159.15196228027344 81.66813659667969 158.14993286132812 502.0265197753906 157.8694610595703 C 498.5249938964844 159.52267456054688 499.8348693847656 139.98019409179688 496.20831298828125 247.2493896484375"/>
    <path stroke-width="0" fill="rgb(229, 226, 199)" opacity="0.56196314" stroke="rgb(30, 163, 36)" stroke-opacity="1.0" stroke-linecap="round" stroke-linejoin="round" d="M 640.8271484375 410.6409606933594 C 463.7452392578125 438.71612548828125 169.64236450195312 405.75653076171875 162.86209106445312 430.74896240234375 C 283.94158935546875 422.4066162109375 324.2896423339844 424.23248291015625 -27.307125091552734 430.133544921875 C 199.34796142578125 400.2013854980469 230.62120056152344 424.2168273925781 55.997127532958984 410.7645263671875 C 129.71156311035156 418.6999816894531 305.8313903808594 402.5326232910156 640.8271484375 410.6409606933594"/>
    <path stroke-width="0" fill="rgb(216, 187, 155)" opacity="0.43324623" stroke="rgb(133, 105, 67)" stroke-opacity="1.0" stroke-linecap="round" stroke-linejoin="round" d="M 574.1248168945312 382.2254638671875 C 753.325439453125 403.2439880371094 597.1298828125 398.0570983886719 68.3359603881836 403.6409912109375 C 183.4037322998047 392.8811340332031 -86.73039245605469 414.33782958984375 -65.07818603515625 384.14599609375 C 518.167236328125 383.8792419433594 494.4454040527344 384.85931396484375 442.19683837890625 379.4626770019531 C 394.4281921386719 381.65313720703125 407.30706787109375 378.26483154296875 574.1248168945312 382.2254638671875"/>
    <path stroke-width="0" fill="rgb(206, 194, 179)" opacity="0.966169" stroke="rgb(116, 144, 4)" stroke-opacity="1.0" stroke-linecap="round" stroke-linejoin="round" d="M 595.9380493164062 420.649169921875 C -82.47631072998047 418.2402648925781 20.64558982849121 423.0677185058594 75.6337661743164 424.5400085449219 C 220.79783630371094 410.5247802734375 -64.14599609375 441.107666015625 -80.48015594482422 412.4632873535156 C 76.6827621459961 411.09210205078125 248.86434936523438 407.4994812011719 303.9061584472656 403.9602355957031 C 126.35462188720703 420.9869689941406 222.98663330078125 394.30572509765625 595.9380493164062 420.649169921875"/>
    <path stroke-width="0" fill="rgb(273, 266, 270)" opacity="1.0206298" stroke="rgb(156, 157, 240)" stroke-opacity="1.0" stroke-linecap="round" stroke-linejoin="round" d="M 496.9442138671875 274.7272033691406 C 461.62127685546875 305.02880859375 616.474609375 297.6316833496094 -41.64718246459961 301.1212463378906 C -88.96859741210938 259.62799072265625 -98.16033935546875 269.6205749511719 254.09754943847656 272.8100280761719 C 271.1006164550781 268.05712890625 257.9779357910156 130.7353057861328 283.94854736328125 165.27154541015625 C 325.8764953613281 312.8572082519531 213.455078125 251.10862731933594 496.9442138671875 274.7272033691406"/>
    <path stroke-width="0" fill="rgb(195, 207, 156)" opacity="0.9274696" stroke="rgb(91, 111, 177)" stroke-opacity="1.0" stroke-linecap="round" stroke-linejoin="round" d="M 591.9520263671875 405.5852966308594 C 474.6920471191406 452.77294921875 262.2323303222656 372.5390930175781 169.47369384765625 420.0716552734375 C 245.82664489746094 412.146728515625 242.6600341796875 421.7816162109375 214.1917724609375 414.3296813964844 C 260.5548400878906 418.3666076660156 282.26422119140625 438.6930847167969 151.28579711914062 406.5704345703125 C 179.53030395507812 418.3557434082031 478.0507507324219 399.1595764160156 591.9520263671875 405.5852966308594"/>
    <path stroke-width="0" fill="rgb(268, 265, 266)" opacity="1.0044712" stroke="rgb(170, 171, 53)" stroke-opacity="1.0" stroke-linecap="round" stroke-linejoin="round" d="M 490.62799072265625 164.5943145751953 C 280.1382141113281 219.1414337158203 745.104736328125 200.40872192382812 23.63652992248535 203.39414978027344 C 36.82563400268555 213.7097930908203 -57.266563415527344 219.51712036132812 -50.503082275390625 157.50291442871094 C 122.22516632080078 158.93040466308594 195.66525268554688 157.4929656982422 236.8702850341797 159.00753784179688 C 140.00601196289062 159.369140625 199.39805603027344 152.19374084472656 490.62799072265625 164.5943145751953"/>
    <path stroke-width="0" fill="rgb(137, 145, 101)" opacity="1.0961531" stroke="rgb(80, 92, 145)" stroke-opacity="1.0" stroke-linecap="round" stroke-linejoin="round" d="M 520.4071655273438 102.14852142333984 C 434.9095764160156 75.6816177368164 500.0631408691406 85.9912109375 433.6293640136719 61.82516860961914 C 313.89044189453125 68.66792297363281 350.2506103515625 43.050174713134766 357.7603454589844 1.0009623765945435 C 356.9898376464844 -22.202592849731445 361.8409118652344 -30.034442901611328 368.9735412597656 -27.927961349487305 C 382.0745849609375 56.8311653137207 499.4795837402344 -9.385061264038086 520.4071655273438 102.14852142333984"/>
    <path stroke-width="0" fill="rgb(279, 262, 255)" opacity="1.0391419" stroke="rgb(252, 26, 53)" stroke-opacity="1.0" stroke-linecap="round" stroke-linejoin="round" d="M 446.8726501464844 36.33722686767578 C 399.2973327636719 50.1049919128418 358.75244140625 73.60902404785156 356.0889892578125 64.6483383178711 C 389.59613037109375 127.95014190673828 326.2939147949219 93.60549926757812 303.0131530761719 37.9760627746582 C 325.4191589355469 15.349425315856934 339.1329040527344 12.818934440612793 419.3567810058594 0.10715939849615097 C 415.4402770996094 15.947977066040039 446.9794616699219 3.2265396118164062 446.8726501464844 36.33722686767578"/>
    <path stroke-width="0" fill="rgb(4, 4, -13)" opacity="0.96402335" stroke="rgb(166, 64, 118)" stroke-opacity="1.0" stroke-linecap="round" stroke-linejoin="round" d="M 134.8626251220703 394.8008728027344 C 230.46435546875 401.68414306640625 119.37638092041016 400.6969299316406 -81.80140686035156 401.4208679199219 C 12.544684410095215 410.29986572265625 -49.18201446533203 409.4517822265625 72.819580078125 408.29205322265625 C 108.87447357177734 407.5586853027344 133.65472412109375 407.50079345703125 254.93731689453125 401.9672546386719 C 74.42698669433594 391.8102722167969 95.42920684814453 392.36883544921875 134.8626251220703 394.8008728027344"/>
    <path stroke-width="0" fill="rgb(102, 99, 117)" opacity="0.91179186" stroke="rgb(40, 28, 167)" stroke-opacity="1.0" stroke-linecap="round" stroke-linejoin="round" d="M 418.915283203125 -32.888668060302734 C 435.7940673828125 21.0203857421875 457.4183349609375 61.39580535888672 445.2795715332031 1.263584017753601 C 386.6059875488281 -19.33281898498535 374.35205078125 -16.449350357055664 312.05523681640625 -19.66069984436035 C 315.1639404296875 -29.508440017700195 323.5223083496094 -35.45821762084961 394.3455505371094 -33.86525344848633 C 406.1054382324219 -37.010616302490234 415.6422424316406 -32.56230163574219 418.915283203125 -32.888668060302734"/>
    <path stroke-width="0" fill="rgb(231, 265, 270)" opacity="0.9804588" stroke="rgb(50, 94, 209)" stroke-opacity="1.0" stroke-linecap="round" stroke-linejoin="round" d="M 484.2093505859375 105.04208374023438 C 397.1772155761719 89.84224700927734 366.0256652832031 93.04240417480469 332.58587646484375 95.23567199707031 C 396.57806396484375 100.14099884033203 374.806396484375 104.60891723632812 202.36386108398438 101.89420318603516 C 420.48773193359375 81.54598236083984 375.02288818359375 102.71733093261719 385.0679626464844 82.52874755859375 C 375.6985168457031 72.01811218261719 498.289794921875 61.139678955078125 484.2093505859375 105.04208374023438"/>
    <path stroke-width="0" fill="rgb(152, 152, 121)" opacity="1.0022618" stroke="rgb(213, 24, 248)" stroke-opacity="1.0" stroke-linecap="round" stroke-linejoin="round" d="M 475.58331298828125 39.80015563964844 C 464.83660888671875 58.73895263671875 429.8224792480469 59.44484329223633 331.4894714355469 86.05836486816406 C 280.46832275390625 91.72071838378906 217.51780700683594 78.48977661132812 -88.72480773925781 88.52181243896484 C -40.06278991699219 -346.3504638671875 68.1061782836914 -207.80335998535156 423.1689147949219 -84.74956512451172 C 471.45306396484375 -57.32025146484375 491.0303955078125 -58.981754302978516 475.58331298828125 39.80015563964844"/>
    <path stroke-width="0" fill="rgb(277, 290, 271)" opacity="1.0485163" stroke="rgb(249, 154, 188)" stroke-opacity="1.0" stroke-linecap="round" stroke-linejoin="round" d="M -15.705881118774414 80.04136657714844 C 328.770263671875 81.66621398925781 253.53807067871094 74.4747314453125 -50.96254348754883 100.3831787109375 C 208.462890625 102.43624114990234 177.17459106445312 100.63165283203125 133.63388061523438 104.01083374023438 C 165.36468505859375 98.16088104248047 226.29942321777344 119.51229095458984 360.64111328125 79.84540557861328 C 27.053632736206055 75.67276000976562 111.94430541992188 118.69256591796875 -15.705881118774414 80.04136657714844"/>
    <path stroke-width="0" fill="rgb(153, 151, 119)" opacity="0.7489023" stroke="rgb(72, 30, 75)" stroke-opacity="1.0" stroke-linecap="round" stroke-linejoin="round" d="M 269.2562255859375 47.308021545410156 C 299.3190002441406 76.3427505493164 376.715087890625 85.55776977539062 270.19354248046875 64.827392578125 C 224.18409729003906 75.45794677734375 206.8826446533203 82.665283203125 198.07632446289062 -5.627904415130615 C 262.51806640625 -37.65595626831055 279.69085693359375 -34.56483840942383 302.7576599121094 -30.423616409301758 C 375.0089111328125 -23.664871215820312 376.2524108886719 -14.971237182617188 269.2562255859375 47.308021545410156"/>
    <path stroke-width="0" fill="rgb(218, 233, 206)" opacity="0.7624684" stroke="rgb(81, 105, 16)" stroke-opacity="1.0" stroke-linecap="round" stroke-linejoin="round" d="M 545.070068359375 70.98004150390625 C 546.9356689453125 103.32501220703125 533.772705078125 109.36691284179688 527.571044921875 55.45015335083008 C 416.348876953125 52.145233154296875 449.2305908203125 61.1358528137207 461.9472961425781 42.43785095214844 C 367.3797607421875 43.144798278808594 415.4839782714844 -21.308090209960938 388.63751220703125 -20.92682647705078 C 416.0340576171875 89.18406677246094 487.12548828125 -1.501299262046814 545.070068359375 70.98004150390625"/>
    <path stroke-width="0" fill="rgb(-21, -5, 2)" opacity="0.9504575" stroke="rgb(144, 67, 133)" stroke-opacity="1.0" stroke-linecap="round" stroke-linejoin="round" d="M 132.56752014160156 405.3962707519531 C 120.8523941040039 397.5182800292969 97.1412124633789 417.07794189453125 -69.57811737060547 400.6943359375 C 217.3157501220703 396.5063171386719 293.5927734375 394.86328125 265.60595703125 399.8154296875 C 145.58697509765625 403.454345703125 172.11927795410156 390.7655334472656 254.84716796875 406.0637512207031 C 107.44383239746094 408.0216369628906 121.50129699707031 403.859130859375 132.56752014160156 405.3962707519531"/>
    <path stroke-width="0" fill="rgb(272, 265, 266)" opacity="1.0595057" stroke="rgb(146, 236, 81)" stroke-opacity="1.0" stroke-linecap="round" stroke-linejoin="round" d="M 433.7953796386719 182.59716796875 C 435.5323181152344 223.00363159179688 437.59814453125 295.71661376953125 431.2373352050781 276.3982849121094 C 366.3394775390625 299.4342346191406 419.0284118652344 239.31690979003906 399.9598083496094 266.7005310058594 C 405.69171142578125 139.6267547607422 374.1689758300781 250.56640625 442.8773498535156 174.5880584716797 C 443.6501159667969 196.75827026367188 444.93524169921875 244.51144409179688 433.7953796386719 182.59716796875"/>
    <path stroke-width="0" fill="rgb(-18, -8, -6)" opacity="0.99829495" stroke="rgb(33, 182, 73)" stroke-opacity="1.0" stroke-linecap="round" stroke-linejoin="round" d="M 304.365478515625 398.3911437988281 C 251.9080352783203 398.9739074707031 261.00372314453125 399.7633972167969 668.055419921875 396.24310302734375 C 546.625244140625 418.3475036621094 283.0783996582031 399.365966796875 282.6793212890625 408.11358642578125 C 323.3686828613281 393.9851379394531 322.5291748046875 396.0837097167969 100.10880279541016 397.67437744140625 C 281.3855285644531 409.65777587890625 299.1856994628906 409.28643798828125 304.365478515625 398.3911437988281"/>
    <path stroke-width="0" fill="rgb(192, 187, 158)" opacity="0.7359139" stroke="rgb(149, 5, 211)" stroke-opacity="1.0" stroke-linecap="round" stroke-linejoin="round" d="M 520.5083618164062 291.99884033203125 C 493.9007873535156 303.17730712890625 489.93536376953125 297.1218566894531 506.1919860839844 46.60800552368164 C 442.96246337890625 1.4052540063858032 473.08648681640625 105.0979232788086 491.99053955078125 -53.358821868896484 C 423.89288330078125 -32.06654739379883 433.3778381347656 -36.32387161254883 469.7552490234375 -42.66332244873047 C 555.4288330078125 -45.57939910888672 543.9959106445312 -55.355979919433594 520.5083618164062 291.99884033203125"/>
    <path stroke-width="0" fill="rgb(258, 258, 259)" opacity="1.0546166" stroke="rgb(172, 68, 187)" stroke-opacity="1.0" stroke-linecap="round" stroke-linejoin="round" d="M 258.83642578125 116.57601928710938 C 241.6102294921875 128.39593505859375 289.7392883300781 123.01304626464844 263.002685546875 126.4447250366211 C 291.7877502441406 115.9774169921875 263.9376220703125 136.41610717773438 18.00649642944336 109.6878662109375 C 636.2577514648438 108.47942352294922 609.2693481445312 105.88203430175781 515.2254638671875 137.5823211669922 C 433.2984619140625 113.30921936035156 226.26937866210938 134.66940307617188 258.83642578125 116.57601928710938"/>
    <path stroke-width="0" fill="rgb(-7, -20, 0)" opacity="0.98677" stroke="rgb(63, 146, 150)" stroke-opacity="1.0" stroke-linecap="round" stroke-linejoin="round" d="M 381.3753967285156 108.23994445800781 C -18.79737091064453 101.1588363647461 28.622976303100586 103.37100219726562 472.8208923339844 101.90380859375 C 159.39837646484375 88.72883605957031 -143.55691528320312 101.31951904296875 206.46939086914062 94.21109008789062 C 170.9608917236328 93.54701232910156 -8.197297096252441 103.9207534790039 -91.89202117919922 83.68805694580078 C 543.2972412109375 85.70532989501953 273.02197265625 76.08340454101562 381.3753967285156 108.23994445800781"/>
    <path stroke-width="0" fill="rgb(269, 266, 273)" opacity="1.0082898" stroke="rgb(56, 242, 114)" stroke-opacity="1.0" stroke-linecap="round" stroke-linejoin="round" d="M -17.144149780273438 131.2664031982422 C -133.589111328125 144.51663208007812 -9.283141136169434 136.98760986328125 716.4708251953125 140.22659301757812 C 660.4954833984375 120.3485336303711 392.026611328125 126.98167419433594 20.81038475036621 124.7761001586914 C -77.26919555664062 132.10435485839844 -156.10751342773438 87.7059555053711 252.6862335205078 126.52570343017578 C -37.17881774902344 126.8039779663086 -90.70480346679688 118.09335327148438 -17.144149780273438 131.2664031982422"/>
    <path stroke-width="0" fill="rgb(18, 31, 7)" opacity="0.9837775" stroke="rgb(178, 75, 207)" stroke-opacity="1.0" stroke-linecap="round" stroke-linejoin="round" d="M 186.26438903808594 325.49188232421875 C 114.6569595336914 311.0391845703125 128.26890563964844 294.7981262207031 246.22976684570312 305.9973449707031 C 189.77395629882812 327.5915832519531 110.45731353759766 326.3186950683594 34.430538177490234 321.7565612792969 C 155.2042236328125 308.4512939453125 182.35963439941406 322.1952209472656 118.37808990478516 321.7218322753906 C 132.82423400878906 326.5552978515625 146.6055908203125 309.6040954589844 186.26438903808594 325.49188232421875"/>
    <path stroke-width="0" fill="rgb(288, 261, 264)" opacity="1.0496941" stroke="rgb(224, 148, 224)" stroke-opacity="1.0" stroke-linecap="round" stroke-linejoin="round" d="M 483.9229431152344 315.9997253417969 C 482.2338562011719 253.49822998046875 486.5889892578125 273.83087158203125 480.4169921875 285.67083740234375 C 471.7562561035156 270.7120666503906 483.97589111328125 237.77589416503906 468.5198669433594 188.44134521484375 C 477.74847412109375 241.07992553710938 475.5714111328125 225.54461669921875 495.3408508300781 209.875244140625 C 497.8976135253906 257.8980712890625 499.41937255859375 348.0577087402344 483.9229431152344 315.9997253417969"/>
    <path stroke-width="0" fill="rgb(37, 12, -7)" opacity="1.0093577" stroke="rgb(184, 127, 243)" stroke-opacity="1.0" stroke-linecap="round" stroke-linejoin="round" d="M 109.3904037475586 330.8400573730469 C -21.530794143676758 336.3682861328125 -36.23299026489258 321.10040283203125 -1.0245022773742676 355.9356689453125 C 17.118940353393555 286.254638671875 -1.1033296585083008 353.2600402832031 -62.074951171875 325.6010437011719 C 33.357704162597656 313.07135009765625 63.551109313964844 310.79779052734375 83.40802764892578 314.0458068847656 C 25.036296844482422 305.5216064453125 45.278316497802734 291.98748779296875 109.3904037475586 330.8400573730469"/>
    <path stroke-width="0" fill="rgb(-2, 4, 24)" opacity="1.081067" stroke="rgb(108, 154, 4)" stroke-opacity="1.0" stroke-linecap="round" stroke-linejoin="round" d="M 192.02975463867188 311.1960754394531 C 281.9505920410156 333.8300476074219 184.38221740722656 300.5204772949219 283.69586181640625 331.7646484375 C 48.89896011352539 329.5069580078125 -24.92141342163086 336.7951354980469 173.65330505371094 314.4700927734375 C 187.0458526611328 304.8290100097656 186.02249145507812 302.32757568359375 166.16629028320312 311.8899841308594 C 189.97882080078125 322.07281494140625 192.59230041503906 319.40435791015625 192.02975463867188 311.1960754394531"/>
    <path stroke-width="0" fill="rgb(26, 36, 65)" opacity="0.6932577" stroke="rgb(168, 73, 157)" stroke-opacity="1.0" stroke-linecap="round" stroke-linejoin="round" d="M 288.6466369628906 330.7161865234375 C 167.1004180908203 313.642578125 135.50787353515625 319.73052978515625 409.3274230957031 298.8331604003906 C 366.9349060058594 298.3664245605469 118.50241088867188 298.8989562988281 -104.7946548461914 298.920654296875 C 162.91786193847656 365.1687316894531 216.52493286132812 277.90655517578125 181.78628540039062 323.2430114746094 C 181.88275146484375 325.8230285644531 216.93856811523438 304.3680419921875 288.6466369628906 330.7161865234375"/>
    <path stroke-width="0" fill="rgb(-8, 12, 5)" opacity="0.7396037" stroke="rgb(34, 76, 145)" stroke-opacity="1.0" stroke-linecap="round" stroke-linejoin="round" d="M 225.6748504638672 320.8416748046875 C 173.5393524169922 301.9042053222656 160.8343505859375 289.48687744140625 114.76469421386719 324.9024963378906 C 141.9044647216797 326.4854431152344 137.9224090576172 295.8274230957031 196.65281677246094 324.3069152832031 C 211.4659881591797 322.8750915527344 221.80343627929688 326.6151428222656 193.84536743164062 316.86962890625 C 170.9809112548828 321.9397888183594 180.4425811767578 328.1609802246094 225.6748504638672 320.8416748046875"/>
    <path stroke-width="0" fill="rgb(-6, -3, -7)" opacity="1.0266013" stroke="rgb(146, 166, 166)" stroke-opacity="1.0" stroke-linecap="round" stroke-linejoin="round" d="M 478.3425598144531 324.7170715332031 C 397.44805908203125 288.22833251953125 300.2277526855469 312.4642028808594 175.5155487060547 324.0354919433594 C 342.9850769042969 337.346435546875 334.5421447753906 325.27313232421875 308.17156982421875 335.01104736328125 C 305.6407470703125 338.30059814453125 292.43695068359375 322.24566650390625 318.7332763671875 347.9608154296875 C 326.0587463378906 344.38775634765625 316.8577575683594 325.9115905761719 478.3425598144531 324.7170715332031"/>
    <path stroke-width="0" fill="rgb(196, 190, 161)" opacity="0.7911127" stroke="rgb(228, 93, 111)" stroke-opacity="1.0" stroke-linecap="round" stroke-linejoin="round" d="M 340.0693664550781 361.40313720703125 C 402.0300598144531 367.3760070800781 296.90185546875 370.3168029785156 308.8832702636719 359.37225341796875 C 327.06842041015625 351.6234436035156 263.47265625 346.8554992675781 281.236328125 356.6533508300781 C 270.246826171875 319.078857421875 283.09967041015625 335.3117980957031 288.04510498046875 331.12847900390625 C 341.3443908691406 333.90020751953125 305.3714599609375 322.5310363769531 340.0693664550781 361.40313720703125"/>
    <path stroke-width="0" fill="rgb(-11, -14, -9)" opacity="0.9894223" stroke="rgb(205, 179, 25)" stroke-opacity="1.0" stroke-linecap="round" stroke-linejoin="round" d="M 459.9327392578125 327.0404357910156 C 615.7608642578125 331.7379455566406 541.2693481445312 330.6831359863281 496.02099609375 325.2440490722656 C 418.6888122558594 350.5218811035156 407.1508483886719 288.0669250488281 433.422119140625 307.2037658691406 C 514.2508544921875 307.1233215332031 506.6342468261719 284.65472412109375 529.1870727539062 293.6473693847656 C 456.1495361328125 290.805908203125 529.5241088867188 315.4241943359375 459.9327392578125 327.0404357910156"/>
    <path stroke-width="0" fill="rgb(33, 128, 83)" opacity="1.0047966" stroke="rgb(182, 254, 38)" stroke-opacity="1.0" stroke-linecap="round" stroke-linejoin="round" d="M 474.681640625 169.2661590576172 C 505.70245361328125 203.5143280029297 448.2366638183594 204.89920043945312 524.7919921875 206.99880981445312 C 486.794921875 208.28089904785156 514.9431762695312 202.7169647216797 492.9078063964844 205.65415954589844 C 506.1605224609375 204.5037841796875 518.01171875 205.1835479736328 433.8243408203125 206.69044494628906 C 452.4360046386719 301.6512451171875 487.60565185546875 302.2270202636719 474.681640625 169.2661590576172"/>
    <path stroke-width="0" fill="rgb(-5, 32, 4)" opacity="0.52679604" stroke="rgb(41, 156, 31)" stroke-opacity="1.0" stroke-linecap="round" stroke-linejoin="round" d="M 13.012040138244629 267.1235046386719 C 37.97709655761719 178.32369995117188 -48.43842697143555 205.3968048095703 255.58189392089844 202.8437957763672 C 186.76458740234375 228.5420379638672 18.47397232055664 173.00006103515625 49.47575759887695 271.7999572753906 C 52.34225082397461 233.4178009033203 31.831886291503906 223.9805450439453 105.76165008544922 211.2880096435547 C -12.6564302444458 215.56471252441406 47.73143768310547 186.42486572265625 13.012040138244629 267.1235046386719"/>
    <path stroke-width="0" fill="rgb(-11, -6, -5)" opacity="0.6744384" stroke="rgb(205, 145, 103)" stroke-opacity="1.0" stroke-linecap="round" stroke-linejoin="round" d="M 322.2712707519531 315.9716796875 C 423.8755187988281 307.2970275878906 361.1085510253906 327.3852844238281 345.9967956542969 327.4599914550781 C 302.2445373535156 329.5282287597656 228.26560974121094 334.07379150390625 127.18229675292969 314.15386962890625 C -66.17298126220703 302.1291809082031 93.20280456542969 306.7453918457031 483.98321533203125 297.2049560546875 C 335.2349548339844 327.5705261230469 312.0359802246094 281.5245361328125 322.2712707519531 315.9716796875"/>
    <path stroke-width="0" fill="rgb(-9, -16, -19)" opacity="0.9099137" stroke="rgb(177, 115, 184)" stroke-opacity="1.0" stroke-linecap="round" stroke-linejoin="round" d="M 433.8286437988281 350.7312316894531 C 626.9757690429688 347.0008544921875 666.5968627929688 347.3923645019531 549.2279052734375 381.4749450683594 C 96.88801574707031 380.11700439453125 -14.680656433105469 390.1567687988281 345.04937744140625 351.4971923828125 C 418.32843017578125 359.5412902832031 370.56158447265625 339.1558532714844 376.92364501953125 346.9541015625 C 307.78167724609375 322.6329650878906 524.7764282226562 322.4668884277344 433.8286437988281 350.7312316894531"/>
    <path stroke-width="0" fill="rgb(72, 36, 42)" opacity="1.034237" stroke="rgb(248, 218, 2)" stroke-opacity="1.0" stroke-linecap="round" stroke-linejoin="round" d="M -53.45005416870117 503.0504150390625 C 476.7386779785156 508.1094055175781 499.5321960449219 494.2413635253906 53.91078567504883 497.91680908203125 C 63.56535720825195 457.2838134765625 56.692256927490234 485.10772705078125 -32.864253997802734 473.35162353515625 C 62.06546401977539 466.3549499511719 63.8593635559082 473.76348876953125 58.10680389404297 469.8821105957031 C 52.94805145263672 521.1404418945312 87.63023376464844 483.4210510253906 -53.45005416870117 503.0504150390625"/>
    <path stroke-width="0" fill="rgb(36, 33, 16)" opacity="1.077814" stroke="rgb(186, 43, 132)" stroke-opacity="1.0" stroke-linecap="round" stroke-linejoin="round" d="M 321.82763671875 374.3609619140625 C 303.9200744628906 325.3031921386719 320.6494445800781 369.553955078125 7.9734110832214355 359.3096923828125 C 399.9810791015625 355.3703308105469 391.91571044921875 356.5556945800781 195.89727783203125 359.4651184082031 C 337.97479248046875 344.4692077636719 205.17701721191406 358.1788024902344 -210.21678161621094 345.8719787597656 C -49.9589958190918 377.4466552734375 -30.11880874633789 359.3004150390625 321.82763671875 374.3609619140625"/>
    <path stroke-width="0" fill="rgb(45, 124, 93)" opacity="0.39211532" stroke="rgb(50, 4, 202)" stroke-opacity="1.0" stroke-linecap="round" stroke-linejoin="round" d="M 458.5965576171875 206.09056091308594 C 481.9892272949219 336.3828125 459.32196044921875 204.37759399414062 461.44415283203125 209.38131713867188 C 461.857666015625 205.82720947265625 462.6807556152344 256.4935302734375 465.9645690917969 222.36465454101562 C 452.2375183105469 317.7248229980469 481.2193908691406 259.1005554199219 488.6203308105469 243.5718994140625 C 451.0444641113281 295.4267578125 468.8307800292969 271.54364013671875 458.5965576171875 206.09056091308594"/>
    <path stroke-width="0" fill="rgb(119, 21, -43)" opacity="0.5445842" stroke="rgb(88, 236, 179)" stroke-opacity="1.0" stroke-linecap="round" stroke-linejoin="round" d="M 497.12506103515625 145.84194946289062 C 497.44781494140625 157.031982421875 497.14898681640625 306.8819580078125 493.11968994140625 316.0645446777344 C 474.3948974609375 233.77259826660156 475.33172607421875 245.30738830566406 494.8963623046875 319.5118713378906 C 506.7422180175781 192.02137756347656 476.775634765625 195.77415466308594 533.6988525390625 205.24832153320312 C 468.02191162109375 194.62965393066406 508.6994323730469 253.85658264160156 497.12506103515625 145.84194946289062"/>
    <path stroke-width="0" fill="rgb(264, 246, 253)" opacity="1.0394814" stroke="rgb(41, 158, 147)" stroke-opacity="1.0" stroke-linecap="round" stroke-linejoin="round" d="M 314.7472229003906 304.1235656738281 C 249.34246826171875 318.43896484375 209.66964721679688 312.9097900390625 161.89564514160156 317.3987121582031 C 241.2952880859375 311.9136047363281 203.1221466064453 317.4371337890625 84.18876647949219 311.0288391113281 C 207.2814178466797 288.4056091308594 271.0865173339844 314.6092834472656 276.7352294921875 299.1614685058594 C 261.23431396484375 314.4093933105469 276.3631286621094 294.26934814453125 314.7472229003906 304.1235656738281"/>
    <path stroke-width="0" fill="rgb(273, 274, 270)" opacity="0.754316" stroke="rgb(238, 156, 136)" stroke-opacity="1.0" stroke-linecap="round" stroke-linejoin="round" d="M 423.21923828125 273.0804138183594 C 441.4163818359375 263.3264465332031 435.0852966308594 279.1069641113281 433.284912109375 230.35543823242188 C 436.17108154296875 224.64842224121094 429.56939697265625 213.2303466796875 437.8837585449219 273.9564514160156 C 431.9319152832031 279.93963623046875 435.55950927734375 264.3903503417969 418.1347351074219 272.5206604003906 C 422.306640625 285.2332458496094 412.8300476074219 254.4392852783203 423.21923828125 273.0804138183594"/>
    <path stroke-width="0" fill="rgb(19, 7, 28)" opacity="1.1588415" stroke="rgb(186, 79, 101)" stroke-opacity="1.0" stroke-linecap="round" stroke-linejoin="round" d="M 419.2317199707031 477.673095703125 C 291.7230224609375 474.0155944824219 312.9928283691406 470.4975280761719 319.8714599609375 471.9447021484375 C 316.2657470703125 472.1109619140625 281.7049560546875 469.4779357910156 607.8109130859375 470.9708251953125 C 385.2859191894531 486.7913513183594 349.0304260253906 469.0522766113281 198.6419677734375 473.5333251953125 C 144.74038696289062 478.49505615234375 205.1698760986328 476.2020263671875 419.2317199707031 477.673095703125"/>
    <path stroke-width="0" fill="rgb(-8, -8, -6)" opacity="0.8789276" stroke="rgb(47, 240, 188)" stroke-opacity="1.0" stroke-linecap="round" stroke-linejoin="round" d="M 268.5262756347656 356.83367919921875 C 299.0736389160156 333.8436279296875 304.13726806640625 365.87646484375 508.4811096191406 356.1414489746094 C 367.11602783203125 352.9228820800781 346.42120361328125 355.4782409667969 343.9373474121094 351.3591613769531 C 311.71649169921875 347.38262939453125 340.32122802734375 366.5528869628906 327.87457275390625 320.1713562011719 C 408.5377502441406 289.18994140625 408.0567626953125 369.0380859375 268.5262756347656 356.83367919921875"/>
    <path stroke-width="0" fill="rgb(-19, -26, -17)" opacity="0.9993741" stroke="rgb(57, 64, 14)" stroke-opacity="1.0" stroke-linecap="round" stroke-linejoin="round" d="M 478.03033447265625 170.95196533203125 C 464.9937438964844 245.32498168945312 485.26812744140625 451.8046875 482.7847595214844 179.27520751953125 C 416.332763671875 185.7517852783203 460.85211181640625 144.2124786376953 435.4037170410156 359.3526916503906 C 429.7256774902344 158.86163330078125 436.83795166015625 181.670166015625 438.3529052734375 175.83602905273438 C 444.2282409667969 161.93544006347656 490.38262939453125 173.14329528808594 478.03033447265625 170.95196533203125"/>
    <path stroke-width="0" fill="rgb(138, 161, 108)" opacity="1.0356411" stroke="rgb(79, 177, 96)" stroke-opacity="1.0" stroke-linecap="round" stroke-linejoin="round" d="M 633.135498046875 77.87188720703125 C 546.7650146484375 162.89456176757812 548.6542358398438 181.64479064941406 506.50823974609375 184.53683471679688 C 490.5119934082031 160.05978393554688 476.5864562988281 61.270870208740234 484.51422119140625 57.91591262817383 C 526.9957275390625 103.72161865234375 511.73291015625 78.33782958984375 494.2296447753906 47.42501449584961 C 402.96258544921875 10.09331226348877 440.2750549316406 -94.54864501953125 633.135498046875 77.87188720703125"/>
    <path stroke-width="0" fill="rgb(282, 265, 264)" opacity="0.9965116" stroke="rgb(6, 17, 173)" stroke-opacity="1.0" stroke-linecap="round" stroke-linejoin="round" d="M 489.7157897949219 301.2323913574219 C 510.9112243652344 322.0871276855469 474.22283935546875 304.203125 491.44427490234375 307.3994445800781 C 288.6834716796875 306.6770935058594 178.41261291503906 309.4880065917969 152.90216064453125 300.91204833984375 C 301.3230895996094 300.201416015625 372.779052734375 300.47821044921875 433.7892150878906 300.45574951171875 C 338.49151611328125 298.88702392578125 313.51544189453125 297.6767883300781 489.7157897949219 301.2323913574219"/>
    <path stroke-width="0" fill="rgb(5, -5, 10)" opacity="1.0076745" stroke="rgb(136, 228, 252)" stroke-opacity="1.0" stroke-linecap="round" stroke-linejoin="round" d="M -71.0686264038086 471.2589111328125 C 28.874038696289062 464.9624938964844 81.11721801757812 469.8689880371094 26.87345314025879 469.9371643066406 C 87.55794525146484 469.0480651855469 161.0098876953125 467.9443664550781 352.0027770996094 469.52935791015625 C 392.1243591308594 480.568603515625 212.42103576660156 478.5206298828125 23.6691951751709 478.10919189453125 C 54.82594299316406 475.3744201660156 35.83845901489258 480.477783203125 -71.0686264038086 471.2589111328125"/>
    <path stroke-width="0" fill="rgb(25, 41, 23)" opacity="0.9194807" stroke="rgb(169, 67, 5)" stroke-opacity="1.0" stroke-linecap="round" stroke-linejoin="round" d="M 120.07341766357422 320.7243347167969 C 111.98622131347656 340.9901428222656 51.39248275756836 314.1806335449219 23.011173248291016 315.2848815917969 C 115.7261962890625 311.3031311035156 124.65593719482422 314.97161865234375 120.39128112792969 318.5709228515625 C 91.88963317871094 323.18359375 101.69109344482422 333.1809387207031 134.9800567626953 324.2405700683594 C 49.95809555053711 319.1604919433594 46.99809646606445 300.1009826660156 120.07341766357422 320.7243347167969"/>
    <path stroke-width="0" fill="rgb(277, 270, 269)" opacity="1.0062965" stroke="rgb(81, 97, 150)" stroke-opacity="1.0" stroke-linecap="round" stroke-linejoin="round" d="M 131.71517944335938 322.6496887207031 C 115.12229919433594 312.0290832519531 109.14097595214844 314.15374755859375 113.95994567871094 322.36572265625 C 135.16160583496094 294.3981628417969 53.60541534423828 337.2287292480469 -63.09407043457031 299.8489074707031 C 208.6038055419922 300.4685974121094 249.46546936035156 300.0100402832031 193.517333984375 302.769775390625 C 91.92866516113281 323.8418884277344 120.09992980957031 309.1051940917969 131.71517944335938 322.6496887207031"/>
    <path stroke-width="0" fill="rgb(60, 8, 21)" opacity="0.9629901" stroke="rgb(160, 222, 69)" stroke-opacity="1.0" stroke-linecap="round" stroke-linejoin="round" d="M 489.2907409667969 443.39398193359375 C 354.4762878417969 435.6272277832031 416.33099365234375 427.1190490722656 -155.69561767578125 438.2840270996094 C 651.9572143554688 454.7362060546875 500.50726318359375 415.51922607421875 503.58074951171875 433.99822998046875 C 273.6452331542969 449.84912109375 544.8030395507812 436.8223876953125 247.43145751953125 432.5504150390625 C 508.54913330078125 432.90576171875 633.1467895507812 431.76116943359375 489.2907409667969 443.39398193359375"/>
    <path stroke-width="0" fill="rgb(-9, -6, -5)" opacity="0.99858975" stroke="rgb(241, 186, 64)" stroke-opacity="1.0" stroke-linecap="round" stroke-linejoin="round" d="M 375.3395080566406 306.97113037109375 C 14.577958106994629 349.4480895996094 -166.31011962890625 329.0453186035156 11.578265190124512 317.24334716796875 C 98.26351165771484 316.0986633300781 23.15294647216797 315.1313171386719 -78.67911529541016 318.7172546386719 C -1.3048661947250366 317.52337646484375 34.21998977661133 338.5412292480469 -51.26645278930664 305.288330078125 C -136.93679809570312 308.06689453125 123.57052612304688 306.33306884765625 375.3395080566406 306.97113037109375"/>
    <path stroke-width="0" fill="rgb(259, 272, 267)" opacity="0.80545634" stroke="rgb(95, 118, 70)" stroke-opacity="1.0" stroke-linecap="round" stroke-linejoin="round" d="M 545.56298828125 199.93882751464844 C 478.5826110839844 162.26251220703125 507.47576904296875 191.76759338378906 495.22698974609375 208.84719848632812 C 488.365478515625 207.7613525390625 493.4320983886719 196.27427673339844 494.3087158203125 309.460205078125 C 477.31390380859375 321.5166931152344 486.62969970703125 193.72213745117188 482.3674621582031 162.43801879882812 C 505.081787109375 211.1848602294922 473.65435791015625 210.51687622070312 545.56298828125 199.93882751464844"/>
    <path stroke-width="0" fill="rgb(39, 21, 6)" opacity="0.9678693" stroke="rgb(36, 124, 90)" stroke-opacity="1.0" stroke-linecap="round" stroke-linejoin="round" d="M 344.14239501953125 488.9145812988281 C 347.2677001953125 508.7159118652344 330.1116638183594 505.6996154785156 463.7763977050781 502.4002990722656 C 385.1862487792969 501.5108947753906 358.09832763671875 493.80322265625 306.6830749511719 501.92803955078125 C 300.73175048828125 475.2529296875 323.7851867675781 505.1842346191406 310.65240478515625 496.555419921875 C 356.34405517578125 509.21868896484375 362.56121826171875 493.025146484375 344.14239501953125 488.9145812988281"/>
    <path stroke-width="0" fill="rgb(200, 157, 182)" opacity="0.6207621" stroke="rgb(140, 149, 245)" stroke-opacity="1.0" stroke-linecap="round" stroke-linejoin="round" d="M 81.44387817382812 383.3564453125 C 65.12013244628906 367.0860595703125 34.088050842285156 356.78900146484375 84.23763275146484 368.1203308105469 C 125.04174041748047 358.8927917480469 110.13175201416016 372.95697021484375 112.5610122680664 373.0473937988281 C 30.673330307006836 373.44000244140625 58.001644134521484 368.85260009765625 87.82836151123047 385.8823547363281 C 78.48657989501953 381.9128112792969 81.53666687011719 391.4763488769531 81.44387817382812 383.3564453125"/>
    <path stroke-width="0" fill="rgb(44, 77, 35)" opacity="0.64448184" stroke="rgb(170, 200, 71)" stroke-opacity="1.0" stroke-linecap="round" stroke-linejoin="round" d="M 360.6273193359375 559.037353515625 C 346.9366760253906 525.811279296875 333.2610778808594 497.4277648925781 353.5025939941406 501.5696105957031 C 434.23797607421875 507.5664978027344 342.37457275390625 506.0072326660156 312.83843994140625 505.52099609375 C 359.46630859375 512.2993774414062 345.9481201171875 471.64581298828125 349.40045166015625 499.8127136230469 C 335.77349853515625 518.6217041015625 358.9126281738281 537.5084838867188 360.6273193359375 559.037353515625"/>
    <path stroke-width="0" fill="rgb(-5, 82, 15)" opacity="0.89154094" stroke="rgb(16, 123, 249)" stroke-opacity="1.0" stroke-linecap="round" stroke-linejoin="round" d="M 351.0809326171875 446.29034423828125 C 371.1308288574219 447.5873107910156 331.5392150878906 434.53582763671875 397.2763977050781 444.36590576171875 C 345.8018798828125 437.5893859863281 365.61468505859375 429.5262451171875 356.0332946777344 449.09356689453125 C 395.4288330078125 444.87994384765625 387.1109924316406 453.5365905761719 358.9947509765625 449.7159118652344 C 320.8436279296875 446.36175537109375 322.3626708984375 449.8399963378906 351.0809326171875 446.29034423828125"/>
    <path stroke-width="0" fill="rgb(13, 3, -12)" opacity="1.0295429" stroke="rgb(240, 203, 160)" stroke-opacity="1.0" stroke-linecap="round" stroke-linejoin="round" d="M -19.308225631713867 370.6612854003906 C 34.42695617675781 349.6470947265625 30.880847930908203 360.3621826171875 2.190483570098877 366.4224548339844 C 91.51350402832031 359.23626708984375 74.64925384521484 373.5544738769531 87.04887390136719 349.2535095214844 C 57.278900146484375 382.1268310546875 74.34867095947266 338.5370788574219 -32.179405212402344 379.1279296875 C 142.57275390625 386.3197326660156 379.7147216796875 369.22662353515625 -19.308225631713867 370.6612854003906"/>
    <path stroke-width="0" fill="rgb(24, 8, 30)" opacity="0.9945223" stroke="rgb(88, 37, 250)" stroke-opacity="1.0" stroke-linecap="round" stroke-linejoin="round" d="M 352.372802734375 505.2362976074219 C 338.3839416503906 476.066162109375 355.8625793457031 485.71484375 348.7520751953125 539.4943237304688 C 386.7698669433594 538.9655151367188 369.7977294921875 492.82269287109375 386.6678771972656 506.0798645019531 C 388.6938171386719 494.68084716796875 384.2020568847656 460.1178894042969 375.21435546875 548.9693603515625 C 338.27923583984375 512.2920532226562 351.52313232421875 505.77392578125 352.372802734375 505.2362976074219"/>
    <path stroke-width="0" fill="rgb(14, -3, 45)" opacity="1.0992981" stroke="rgb(209, 48, 130)" stroke-opacity="1.0" stroke-linecap="round" stroke-linejoin="round" d="M 67.6099853515625 447.22607421875 C 82.29252624511719 453.766845703125 14.29255485534668 445.063720703125 -56.9403190612793 447.7091369628906 C 102.38909149169922 447.70745849609375 104.25431823730469 447.26849365234375 102.08246612548828 449.51336669921875 C 90.06473541259766 446.4922790527344 87.6214599609375 446.3125 67.3124008178711 449.5418395996094 C 63.76284408569336 412.755859375 77.14313507080078 454.98211669921875 67.6099853515625 447.22607421875"/>
    <path stroke-width="0" fill="rgb(13, -15, 5)" opacity="1.2117593" stroke="rgb(185, 2, 196)" stroke-opacity="1.0" stroke-linecap="round" stroke-linejoin="round" d="M 106.454345703125 450.96624755859375 C 88.09883117675781 443.0898742675781 102.68983459472656 433.14581298828125 130.38461303710938 437.32098388671875 C 134.4228057861328 455.9521484375 120.90621948242188 444.72589111328125 -10.219637870788574 450.0265197753906 C 129.92584228515625 445.0666198730469 139.7197265625 454.2029113769531 135.70980834960938 445.33428955078125 C 135.08233642578125 436.5626525878906 92.7544174194336 428.0091247558594 106.454345703125 450.96624755859375"/>
    <path stroke-width="0" fill="rgb(39, 33, 6)" opacity="1.1525165" stroke="rgb(20, 22, 171)" stroke-opacity="1.0" stroke-linecap="round" stroke-linejoin="round" d="M 461.3708190917969 489.8597412109375 C 441.69927978515625 488.1670227050781 468.7118835449219 521.1943359375 495.2177734375 492.8258361816406 C 583.854736328125 486.846435546875 568.6043701171875 486.5954284667969 133.98141479492188 487.71234130859375 C 326.1916809082031 499.4010925292969 615.0018310546875 484.10406494140625 447.74725341796875 501.71539306640625 C 475.2276916503906 494.2117004394531 459.18505859375 508.4053955078125 461.3708190917969 489.8597412109375"/>
    <path stroke-width="0" fill="rgb(-51, 0, -22)" opacity="1.0514246" stroke="rgb(107, 142, 219)" stroke-opacity="1.0" stroke-linecap="round" stroke-linejoin="round" d="M 346.1051330566406 429.514404296875 C 284.81329345703125 431.5583801269531 343.48883056640625 428.0688781738281 313.0218200683594 435.8365173339844 C 391.504150390625 441.9488220214844 338.6435546875 445.05572509765625 320.0882568359375 439.12774658203125 C 347.2398986816406 421.6186218261719 307.6982727050781 437.49896240234375 -41.45408630371094 423.6435241699219 C 754.266845703125 419.75091552734375 731.0557250976562 430.54144287109375 346.1051330566406 429.514404296875"/>
    <path stroke-width="0" fill="rgb(20, 126, 34)" opacity="0.9638717" stroke="rgb(68, 33, 14)" stroke-opacity="1.0" stroke-linecap="round" stroke-linejoin="round" d="M 165.53759765625 435.2003479003906 C 152.41461181640625 450.70281982421875 218.7953338623047 442.8494873046875 -64.18829345703125 448.01141357421875 C 373.47552490234375 450.60687255859375 424.977294921875 444.5938415527344 172.50656127929688 448.3115234375 C 150.8876495361328 451.7938232421875 165.31869506835938 451.8743591308594 169.35572814941406 434.9267883300781 C 167.25787353515625 437.7686462402344 165.7568359375 457.6123352050781 165.53759765625 435.2003479003906"/>
    <path stroke-width="0" fill="rgb(167, 107, 155)" opacity="0.44722348" stroke="rgb(66, 116, 174)" stroke-opacity="1.0" stroke-linecap="round" stroke-linejoin="round" d="M 239.73410034179688 370.4178466796875 C 205.99908447265625 367.8460693359375 193.86289978027344 364.97662353515625 236.04739379882812 375.6526794433594 C 199.63087463378906 362.3529052734375 192.8836212158203 352.9891662597656 157.29185485839844 331.4944152832031 C 191.0107421875 349.43902587890625 197.31312561035156 365.441650390625 235.66580200195312 369.090576171875 C 60.443241119384766 378.9727783203125 90.57765197753906 364.64996337890625 239.73410034179688 370.4178466796875"/>
    <path stroke-width="0" fill="rgb(17, 20, 34)" opacity="0.9208609" stroke="rgb(14, 177, 198)" stroke-opacity="1.0" stroke-linecap="round" stroke-linejoin="round" d="M 353.112548828125 355.9394836425781 C 381.3097839355469 362.8004455566406 373.1011962890625 357.7681579589844 396.5135192871094 357.69091796875 C 418.87518310546875 348.0411682128906 412.2908020019531 343.65716552734375 414.0256652832031 340.01568603515625 C 426.79888916015625 372.0538330078125 416.8609924316406 344.0461120605469 411.1185302734375 364.8277893066406 C 424.54443359375 373.2705993652344 375.8853454589844 355.9945983886719 353.112548828125 355.9394836425781"/>
    <path stroke-width="0" fill="rgb(47, 44, 10)" opacity="0.9726362" stroke="rgb(66, 95, 149)" stroke-opacity="1.0" stroke-linecap="round" stroke-linejoin="round" d="M 427.4918212890625 521.8816528320312 C 408.6355895996094 489.45355224609375 442.7684020996094 497.7951354980469 437.0135498046875 505.23828125 C 437.4580383300781 502.24481201171875 401.5995178222656 499.7413024902344 338.1501770019531 498.03668212890625 C 406.72174072265625 505.096923828125 440.7635498046875 509.5009460449219 445.0174865722656 504.4527893066406 C 395.5516662597656 473.50543212890625 429.1730041503906 510.0919494628906 427.4918212890625 521.8816528320312"/>
    <path stroke-width="0" fill="rgb(46, 21, 22)" opacity="0.82846504" stroke="rgb(203, 19, 132)" stroke-opacity="1.0" stroke-linecap="round" stroke-linejoin="round" d="M 582.5906982421875 508.16131591796875 C 538.14013671875 499.10382080078125 247.8897705078125 514.2315673828125 197.10629272460938 496.6471862792969 C 452.8089904785156 493.9675598144531 495.55548095703125 502.5571594238281 499.3534851074219 492.8273620605469 C 525.3005981445312 498.1706237792969 581.8865356445312 489.1456604003906 414.1443176269531 491.8243103027344 C 505.35369873046875 489.8854064941406 471.77130126953125 493.89501953125 582.5906982421875 508.16131591796875"/>
    <path stroke-width="0" fill="rgb(239, 254, 256)" opacity="0.6183398" stroke="rgb(70, 32, 100)" stroke-opacity="1.0" stroke-linecap="round" stroke-linejoin="round" d="M 402.52593994140625 88.02848815917969 C 416.7552795410156 80.42201232910156 431.14923095703125 88.97274780273438 402.9763488769531 93.501220703125 C 408.5835876464844 92.59709167480469 433.10943603515625 81.73953247070312 420.9392395019531 94.15997314453125 C 426.599365234375 94.2358627319336 420.1966552734375 76.07373046875 404.3475341796875 88.3223648071289 C 394.9207458496094 94.04135131835938 398.3692321777344 90.5640640258789 402.52593994140625 88.02848815917969"/>
    <path stroke-width="0" fill="rgb(45, 27, 11)" opacity="0.92520773" stroke="rgb(47, 230, 138)" stroke-opacity="1.0" stroke-linecap="round" stroke-linejoin="round" d="M 226.7213897705078 447.5234069824219 C 224.17950439453125 435.4716491699219 235.7825927734375 440.2095031738281 230.8173370361328 449.0080871582031 C 425.52734375 449.18353271484375 402.88018798828125 443.0080261230469 260.0578308105469 448.96429443359375 C 259.5590515136719 420.153076171875 282.6634521484375 458.3688659667969 243.07994079589844 450.1840515136719 C 245.71401977539062 450.71258544921875 221.4671630859375 442.8616638183594 226.7213897705078 447.5234069824219"/>
    <path stroke-width="0" fill="rgb(216, 179, 204)" opacity="0.85153484" stroke="rgb(230, 175, 178)" stroke-opacity="1.0" stroke-linecap="round" stroke-linejoin="round" d="M 176.69581604003906 367.81512451171875 C 176.7320098876953 382.5681457519531 234.19590759277344 365.3285827636719 258.1103515625 368.31494140625 C 231.24229431152344 367.48291015625 233.92681884765625 361.4147033691406 238.33665466308594 371.4161071777344 C 229.0958709716797 372.2010192871094 226.06625366210938 374.4058532714844 426.0413818359375 369.698974609375 C 121.5330581665039 356.1441650390625 322.1559753417969 381.7241516113281 176.69581604003906 367.81512451171875"/>
    <path stroke-width="0" fill="rgb(218, 234, 307)" opacity="0.022722108" stroke="rgb(192, 162, 61)" stroke-opacity="1.0" stroke-linecap="round" stroke-linejoin="round" d="M 452.5719909667969 297.7660217285156 C 460.3250732421875 291.1358947753906 435.1461181640625 295.0116882324219 449.4194641113281 258.2747497558594 C 445.6650390625 282.1971130371094 452.40533447265625 285.82568359375 461.0765686035156 288.88226318359375 C 460.97845458984375 296.27203369140625 469.9626159667969 294.46649169921875 450.32391357421875 324.84820556640625 C 468.34100341796875 298.39617919921875 472.3608093261719 301.4246826171875 452.5719909667969 297.7660217285156"/>
    <path stroke-width="0" fill="rgb(131, 99, 121)" opacity="0.4359749" stroke="rgb(209, 231, 207)" stroke-opacity="1.0" stroke-linecap="round" stroke-linejoin="round" d="M 551.9932250976562 499.8356628417969 C 398.1465759277344 499.99871826171875 429.4091491699219 485.6051330566406 426.8014831542969 517.2390747070312 C 425.8135681152344 512.2578125 425.23992919921875 520.8436889648438 420.294921875 505.4200134277344 C 437.6553955078125 478.2031555175781 395.5762634277344 497.7394104003906 494.9383850097656 496.65167236328125 C 430.4494934082031 472.44659423828125 414.8851013183594 485.8408203125 551.9932250976562 499.8356628417969"/>
    <path stroke-width="0" fill="rgb(9, 82, 79)" opacity="0.96161723" stroke="rgb(160, 101, 15)" stroke-opacity="1.0" stroke-linecap="round" stroke-linejoin="round" d="M 373.8563537597656 272.1936340332031 C 481.37908935546875 270.67156982421875 242.49896240234375 243.1146697998047 302.81378173828125 202.79806518554688 C 439.2065124511719 200.5093994140625 393.50543212890625 191.72193908691406 402.29559326171875 270.3118591308594 C 359.40728759765625 245.5274658203125 366.7725524902344 260.47564697265625 291.8843688964844 224.65606689453125 C 304.50830078125 278.6435546875 270.99139404296875 272.3512878417969 373.8563537597656 272.1936340332031"/>
    <path stroke-width="0" fill="rgb(34, 4, -21)" opacity="1.0870233" stroke="rgb(65, 216, 8)" stroke-opacity="1.0" stroke-linecap="round" stroke-linejoin="round" d="M 224.44993591308594 492.507568359375 C 212.62281799316406 493.1439514160156 120.1052474975586 485.27581787109375 -117.00932312011719 491.7288818359375 C 241.11041259765625 496.6312561035156 216.54656982421875 480.16473388671875 209.17050170898438 504.131591796875 C 197.48251342773438 484.4621887207031 196.13783264160156 495.8059997558594 296.311279296875 489.1038513183594 C 178.16375732421875 492.0465393066406 197.22898864746094 492.0135803222656 224.44993591308594 492.507568359375"/>
    <path stroke-width="0" fill="rgb(36, 52, 27)" opacity="0.8477197" stroke="rgb(90, 90, 4)" stroke-opacity="1.0" stroke-linecap="round" stroke-linejoin="round" d="M 281.8732604980469 439.39306640625 C 279.8627624511719 433.5615539550781 279.0426330566406 440.6080627441406 292.1407775878906 432.6416320800781 C 303.493896484375 448.8121032714844 284.889892578125 440.5250244140625 290.5080871582031 429.0181884765625 C 294.7607116699219 465.695068359375 362.8917541503906 440.6203918457031 285.41705322265625 450.9789123535156 C 300.5273132324219 440.3283996582031 299.9620361328125 442.4729309082031 281.8732604980469 439.39306640625"/>
    <path stroke-width="0" fill="rgb(14, 13, -11)" opacity="0.7749856" stroke="rgb(102, 236, 25)" stroke-opacity="1.0" stroke-linecap="round" stroke-linejoin="round" d="M -23.2121524810791 434.845703125 C 61.66657257080078 450.4034423828125 28.97768783569336 432.79339599609375 -5.773169994354248 439.4782409667969 C 126.21321868896484 441.86431884765625 153.88912963867188 419.3196716308594 -75.1304702758789 425.1763610839844 C 150.70059204101562 434.4538879394531 109.9739761352539 422.4853515625 80.65760803222656 440.0962219238281 C 47.61118698120117 443.55767822265625 29.277894973754883 436.7474670410156 -23.2121524810791 434.845703125"/>
    <path stroke-width="0" fill="rgb(105, 102, 44)" opacity="1.0141145" stroke="rgb(221, 115, 83)" stroke-opacity="1.0" stroke-linecap="round" stroke-linejoin="round" d="M 563.9639282226562 363.0966796875 C 454.9715270996094 347.95355224609375 433.7199401855469 367.93670654296875 452.614501953125 357.3144226074219 C 472.4102478027344 360.4997863769531 465.994384765625 354.55615234375 471.04949951171875 359.73907470703125 C 482.7061462402344 354.98699951171875 431.69647216796875 357.1500549316406 115.46353912353516 358.822509765625 C 403.1402893066406 365.4133605957031 497.5400695800781 356.7960205078125 563.9639282226562 363.0966796875"/>
    <path stroke-width="0" fill="rgb(44, 33, 72)" opacity="0.5828761" stroke="rgb(33, 3, 29)" stroke-opacity="1.0" stroke-linecap="round" stroke-linejoin="round" d="M 435.1508483886719 510.9588623046875 C 455.2701721191406 494.0718994140625 451.919921875 514.1101684570312 450.2383728027344 523.4595336914062 C 439.65631103515625 489.03564453125 473.9565734863281 511.3489990234375 457.73968505859375 488.7298278808594 C 439.1349182128906 538.2681884765625 474.8868408203125 523.4545288085938 451.93878173828125 524.0384521484375 C 447.5072021484375 501.0000305175781 451.562255859375 488.35552978515625 435.1508483886719 510.9588623046875"/>
    <path stroke-width="0" fill="rgb(99, 104, 151)" opacity="0.11315577" stroke="rgb(162, 125, 252)" stroke-opacity="1.0" stroke-linecap="round" stroke-linejoin="round" d="M 233.6530303955078 116.1401138305664 C 241.18295288085938 93.0262680053711 239.096435546875 99.49116516113281 234.67724609375 106.3726577758789 C 229.1698455810547 109.2115478515625 234.13685607910156 104.22061157226562 239.40847778320312 105.39596557617188 C 239.57322692871094 107.3499984741211 244.5998077392578 93.08316802978516 248.55047607421875 75.727294921875 C 246.2989044189453 89.95861053466797 239.43899536132812 101.76941680908203 233.6530303955078 116.1401138305664"/>
    <path stroke-width="0" fill="rgb(49, 48, 24)" opacity="0.74992883" stroke="rgb(199, 73, 61)" stroke-opacity="1.0" stroke-linecap="round" stroke-linejoin="round" d="M 412.819580078125 442.65374755859375 C 340.86077880859375 429.4052429199219 379.4094543457031 462.7058410644531 617.8629760742188 435.150146484375 C 298.9207763671875 470.0267028808594 498.2257995605469 421.0442199707031 377.1074523925781 450.68951416015625 C 453.3791198730469 445.0168151855469 392.60235595703125 454.4733581542969 442.16650390625 439.3047180175781 C 311.9736022949219 449.8910827636719 363.230224609375 433.2397766113281 412.819580078125 442.65374755859375"/>
    <path stroke-width="0" fill="rgb(36, -19, -5)" opacity="0.90914565" stroke="rgb(62, 169, 131)" stroke-opacity="1.0" stroke-linecap="round" stroke-linejoin="round" d="M -23.28615951538086 367.2999572753906 C 10.783781051635742 441.6786193847656 -12.185037612915039 457.9698486328125 -55.81340789794922 435.6006774902344 C 27.912464141845703 429.4564208984375 42.65446853637695 429.0522155761719 42.6036491394043 448.84149169921875 C 24.41728401184082 438.5565185546875 61.01344680786133 429.4614562988281 -0.25989705324172974 432.8407897949219 C 26.7174129486084 461.7177734375 -0.3388570249080658 461.4300537109375 -23.28615951538086 367.2999572753906"/>
    <path stroke-width="0" fill="rgb(55, 13, 28)" opacity="0.8333863" stroke="rgb(141, 73, 180)" stroke-opacity="1.0" stroke-linecap="round" stroke-linejoin="round" d="M 373.640380859375 447.65631103515625 C 358.3057556152344 452.5326232910156 357.2220153808594 436.45709228515625 357.8622131347656 435.537841796875 C 367.16064453125 460.8706359863281 333.1873474121094 440.1714172363281 359.86883544921875 448.66558837890625 C 358.7221374511719 450.20965576171875 342.7803955078125 427.08551025390625 397.4339294433594 436.705810546875 C 353.765380859375 434.6075744628906 347.2081298828125 456.9798278808594 373.640380859375 447.65631103515625"/>
    <path stroke-width="0" fill="rgb(247, 204, 243)" opacity="0.9185967" stroke="rgb(247, 230, 75)" stroke-opacity="1.0" stroke-linecap="round" stroke-linejoin="round" d="M 467.0257873535156 365.5452880859375 C 409.5673522949219 363.12152099609375 347.3680725097656 369.47076416015625 461.7317199707031 372.49237060546875 C 457.0057373046875 364.7909240722656 462.48455810546875 365.3619079589844 467.95947265625 371.53173828125 C 517.3468017578125 373.8327331542969 589.9745483398438 365.64599609375 466.82659912109375 367.5480041503906 C 468.16357421875 374.1552734375 468.8816833496094 376.6354675292969 467.0257873535156 365.5452880859375"/>
    <path stroke-width="0" fill="rgb(115, 113, 131)" opacity="0.16438107" stroke="rgb(63, 27, 242)" stroke-opacity="1.0" stroke-linecap="round" stroke-linejoin="round" d="M 212.3482666015625 111.2161636352539 C 198.44789123535156 99.5379638671875 185.78616333007812 89.7247085571289 186.3385009765625 96.0408706665039 C 194.0634307861328 85.91905975341797 191.16600036621094 99.07837677001953 189.51898193359375 90.88444519042969 C 201.59207153320312 105.55402374267578 204.59181213378906 99.10102081298828 196.66848754882812 108.2890853881836 C 200.32232666015625 94.80673217773438 201.88241577148438 105.74351501464844 212.3482666015625 111.2161636352539"/>
    <path stroke-width="0" fill="rgb(259, 279, 245)" opacity="0.7576752" stroke="rgb(69, 96, 95)" stroke-opacity="1.0" stroke-linecap="round" stroke-linejoin="round" d="M 327.0177001953125 77.62980651855469 C 354.4835510253906 88.27299499511719 299.92755126953125 59.623451232910156 365.8957214355469 92.90276336669922 C 383.0765075683594 87.14535522460938 359.2286071777344 95.32372283935547 353.8853454589844 94.2503662109375 C 279.5386047363281 99.40824127197266 248.78729248046875 93.55667877197266 360.4790954589844 102.48262023925781 C 371.16168212890625 90.3478012084961 354.40997314453125 87.60449981689453 327.0177001953125 77.62980651855469"/>
    <path stroke-width="0" fill="rgb(-19, -18, 6)" opacity="0.090852134" stroke="rgb(213, 60, 128)" stroke-opacity="1.0" stroke-linecap="round" stroke-linejoin="round" d="M 319.1134948730469 157.94400024414062 C 327.98199462890625 112.85890197753906 316.2115478515625 130.3169708251953 314.9510498046875 126.88798522949219 C 329.6582336425781 123.96836853027344 322.3729553222656 126.43994903564453 319.84466552734375 127.62561798095703 C 321.999755859375 124.52996063232422 326.5909118652344 144.6142120361328 321.2926940917969 162.8627166748047 C 321.8521423339844 142.70864868164062 322.3302001953125 142.43911743164062 319.1134948730469 157.94400024414062"/>
    <path stroke-width="0" fill="rgb(55, 38, 39)" opacity="0.44533178" stroke="rgb(161, 221, 239)" stroke-opacity="1.0" stroke-linecap="round" stroke-linejoin="round" d="M 150.95803833007812 453.33642578125 C 228.32383728027344 429.7908935546875 224.76229858398438 418.13214111328125 227.39120483398438 439.98486328125 C 246.9080352783203 434.52313232421875 254.42713928222656 434.769775390625 237.20449829101562 439.51629638671875 C 213.034423828125 446.3614501953125 241.5674591064453 451.6723327636719 227.6176300048828 439.0730285644531 C 224.217529296875 417.1593322753906 224.62025451660156 431.8271484375 150.95803833007812 453.33642578125"/>
    <path stroke-width="0" fill="rgb(-17, 27, 29)" opacity="0.5904598" stroke="rgb(228, 103, 140)" stroke-opacity="1.0" stroke-linecap="round" stroke-linejoin="round" d="M 219.03665161132812 432.9776611328125 C 9.977938652038574 420.2930603027344 -86.56036376953125 429.07080078125 142.80564880371094 428.619140625 C 179.99142456054688 432.6401672363281 154.80343627929688 420.50628662109375 168.0411376953125 449.8345947265625 C 163.433349609375 428.1651306152344 175.27053833007812 438.2408447265625 155.88818359375 440.05023193359375 C 182.35203552246094 429.9500732421875 125.80493927001953 432.3658142089844 219.03665161132812 432.9776611328125"/>
    <path stroke-width="0" fill="rgb(267, 283, 248)" opacity="0.55395555" stroke="rgb(116, 102, 63)" stroke-opacity="1.0" stroke-linecap="round" stroke-linejoin="round" d="M 456.2688903808594 114.04623413085938 C 451.8357238769531 119.9236831665039 459.1648864746094 116.55947875976562 474.3152770996094 114.86624145507812 C 446.0984191894531 123.289794921875 450.77655029296875 105.0855484008789 476.4934997558594 118.69290924072266 C 471.9638366699219 112.60405731201172 460.7750549316406 103.8180923461914 440.79144287109375 111.74400329589844 C 497.3194885253906 123.16608428955078 504.0818176269531 132.0738983154297 456.2688903808594 114.04623413085938"/>
    <path stroke-width="0" fill="rgb(134, 149, 127)" opacity="-0.0029799594" stroke="rgb(85, 235, 219)" stroke-opacity="1.0" stroke-linecap="round" stroke-linejoin="round" d="M 465.3780822753906 149.889892578125 C 469.5317077636719 110.76111602783203 451.56414794921875 125.64282989501953 446.4958801269531 111.21595764160156 C 434.9320068359375 113.58537292480469 428.5779724121094 119.43833923339844 423.9101257324219 114.22504425048828 C 443.2869873046875 107.78983306884766 437.7671813964844 119.99821472167969 458.82049560546875 124.20437622070312 C 456.56610107421875 119.02484893798828 468.40936279296875 124.79854583740234 465.3780822753906 149.889892578125"/>
    <path stroke-width="0" fill="rgb(210, 270, 239)" opacity="0.6745467" stroke="rgb(64, 113, 26)" stroke-opacity="1.0" stroke-linecap="round" stroke-linejoin="round" d="M 482.43353271484375 88.34215545654297 C 464.7579650878906 78.44176483154297 480.21728515625 100.6988525390625 482.6661682128906 87.77967834472656 C 450.96282958984375 76.92354583740234 439.5494384765625 61.913814544677734 449.32745361328125 91.31874084472656 C 484.9999694824219 99.01664733886719 489.451171875 92.3329849243164 474.36688232421875 84.44673919677734 C 462.9460144042969 90.37311553955078 483.9267578125 104.04093170166016 482.43353271484375 88.34215545654297"/>
    <path stroke-width="0" fill="rgb(211, 231, 209)" opacity="0.8609319" stroke="rgb(0, 0, 0)" stroke-opacity="0.0" stroke-linecap="round" stroke-linejoin="round" d="M 282.7511291503906 19.241729736328125 C 279.1351623535156 26.335359573364258 275.06591796875 29.647991180419922 267.8651428222656 30.62141990661621 C 263.0733642578125 30.530193328857422 256.6610412597656 22.99901580810547 256.802490234375 16.896137237548828 C 257.8643493652344 12.428318977355957 260.53814697265625 10.364266395568848 266.3380126953125 6.064911842346191 C 275.6477966308594 5.732210636138916 279.8819580078125 8.74201774597168 282.7511291503906 19.241729736328125"/>
    <path stroke-width="0" fill="rgb(207, 129, 178)" opacity="0.36638677" stroke="rgb(0, 0, 0)" stroke-opacity="0.0" stroke-linecap="round" stroke-linejoin="round" d="M 9.848695755004883 8.46547794342041 C -0.7610281705856323 11.581626892089844 -2.388709306716919 10.80966567993164 2.268942356109619 21.230712890625 C -8.037101745605469 20.518756866455078 -7.091935157775879 12.597708702087402 -7.64414119720459 7.591866970062256 C -6.561120986938477 3.567819595336914 -3.6331968307495117 0.6381251215934753 0.27391159534454346 -1.114925742149353 C 8.168697357177734 -2.7014613151550293 11.239986419677734 -1.5711814165115356 9.848695755004883 8.46547794342041"/>
    <path stroke-width="0" fill="rgb(165, 146, 196)" opacity="0.821917" stroke="rgb(0, 0, 0)" stroke-opacity="0.0" stroke-linecap="round" stroke-linejoin="round" d="M 19.75463104248047 5.9800124168396 C 20.572662353515625 10.848795890808105 19.51850128173828 14.931480407714844 18.22518539428711 18.709562301635742 C 15.373513221740723 16.176048278808594 13.548851013183594 12.559914588928223 14.612091064453125 15.416247367858887 C 15.156865119934082 10.770211219787598 14.665515899658203 1.7204077243804932 15.654304504394531 4.062586784362793 C 21.958202362060547 3.519679307937622 21.089149475097656 4.8212666511535645 19.75463104248047 5.9800124168396"/>
    <path stroke-width="0" fill="rgb(180, 135, 138)" opacity="0.3574727" stroke="rgb(0, 0, 0)" stroke-opacity="0.0" stroke-linecap="round" stroke-linejoin="round" d="M 107.9698257446289 4.374913215637207 C 103.30950164794922 6.738067626953125 97.4076919555664 4.184820175170898 97.59992980957031 10.509828567504883 C 98.19293212890625 10.526077270507812 93.36477661132812 9.07480239868164 88.27377319335938 4.938788414001465 C 89.78560638427734 -4.937625408172607 94.90951538085938 -5.087512969970703 99.84738159179688 -4.617889881134033 C 103.64004516601562 -4.054096698760986 105.15132904052734 -3.5709612369537354 107.9698257446289 4.374913215637207"/>
    <path stroke-width="0" fill="rgb(94, 147, 191)" opacity="0.13976836" stroke="rgb(0, 0, 0)" stroke-opacity="0.0" stroke-linecap="round" stroke-linejoin="round" d="M 171.08966064453125 13.037068367004395 C 174.03225708007812 23.47654151916504 170.6521453857422 25.659000396728516 171.63607788085938 21.740764617919922 C 163.12696838378906 22.472719192504883 160.7862548828125 20.686321258544922 164.15394592285156 21.587581634521484 C 162.81991577148438 9.862579345703125 159.40814208984375 5.737017631530762 165.2144012451172 2.5987470149993896 C 165.6243896484375 14.04940128326416 164.8839569091797 17.403181076049805 171.08966064453125 13.037068367004395"/>
    <path stroke-width="0" fill="rgb(139, 162, 131)" opacity="0.7011997" stroke="rgb(0, 0, 0)" stroke-opacity="0.0" stroke-linecap="round" stroke-linejoin="round" d="M 21.95208740234375 11.4894380569458 C 24.792972564697266 20.17899513244629 21.087234497070312 20.425344467163086 16.478384017944336 21.23345947265625 C 13.894229888916016 13.937504768371582 12.00924301147461 8.084174156188965 3.174077272415161 8.274553298950195 C 0.899176836013794 3.531487226486206 6.282393455505371 1.8266520500183105 16.682737350463867 -1.182283878326416 C 24.85865592956543 0.5660353302955627 23.601266860961914 -0.16766463220119476 21.95208740234375 11.4894380569458"/>
    <path stroke-width="0" fill="rgb(166, 115, 131)" opacity="0.15899462" stroke="rgb(0, 0, 0)" stroke-opacity="0.0" stroke-linecap="round" stroke-linejoin="round" d="M 15.01285457611084 3.4022414684295654 C 10.775321960449219 1.169334053993225 0.9276239275932312 1.7384812831878662 3.9254305362701416 6.46441125869751 C 5.302107810974121 15.730901718139648 1.8392986059188843 8.687641143798828 -2.5607948303222656 4.6431121826171875 C -0.4701248109340668 -0.6218240261077881 1.7316957712173462 -2.7235629558563232 5.6743645668029785 -3.3981146812438965 C 10.493575096130371 -2.8702075481414795 12.730759620666504 0.41083717346191406 15.01285457611084 3.4022414684295654"/>
    <path stroke-width="0" fill="rgb(214, 219, 207)" opacity="0.49594966" stroke="rgb(0, 0, 0)" stroke-opacity="0.0" stroke-linecap="round" stroke-linejoin="round" d="M 347.9352111816406 42.0439453125 C 346.7349548339844 43.64601135253906 341.8392639160156 45.988502502441406 340.6405334472656 46.66341018676758 C 338.3006591796875 48.22487258911133 334.0224609375 46.23170471191406 335.4811706542969 42.28615188598633 C 334.8969421386719 39.47096633911133 337.6184997558594 36.361915588378906 341.4637756347656 36.171627044677734 C 344.7420959472656 36.14179992675781 347.0557861328125 39.55880355834961 347.9352111816406 42.0439453125"/>
    <path stroke-width="0" fill="rgb(149, 153, 137)" opacity="0.105740346" stroke="rgb(0, 0, 0)" stroke-opacity="0.0" stroke-linecap="round" stroke-linejoin="round" d="M 334.7655334472656 267.9203796386719 C 321.0381774902344 270.7966613769531 317.8321838378906 272.7139587402344 318.62298583984375 273.4529113769531 C 318.8942565917969 270.4723815917969 317.38177490234375 266.35284423828125 307.37939453125 267.0282287597656 C 311.90423583984375 269.2912902832031 318.1826477050781 267.9529724121094 319.2599182128906 267.4777526855469 C 325.3409423828125 266.6303405761719 328.91412353515625 266.29730224609375 334.7655334472656 267.9203796386719"/>
    <path stroke-width="0" fill="rgb(198, 201, 176)" opacity="0.92723083" stroke="rgb(0, 0, 0)" stroke-opacity="0.0" stroke-linecap="round" stroke-linejoin="round" d="M 172.4175567626953 37.81562423706055 C 171.98117065429688 42.93490219116211 167.69647216796875 46.085872650146484 162.85499572753906 46.51190948486328 C 156.17601013183594 46.25368118286133 155.47430419921875 44.723148345947266 156.69509887695312 37.97634506225586 C 155.7375946044922 32.62437057495117 160.089599609375 28.73451042175293 163.19515991210938 27.97170066833496 C 168.90658569335938 29.889965057373047 170.93496704101562 33.38331604003906 172.4175567626953 37.81562423706055"/>
    <path stroke-width="0" fill="rgb(105, 84, 187)" opacity="-0.021377899" stroke="rgb(0, 0, 0)" stroke-opacity="0.0" stroke-linecap="round" stroke-linejoin="round" d="M 402.8265380859375 137.6263885498047 C 401.0370788574219 141.46234130859375 396.0490417480469 142.17648315429688 394.4398498535156 142.91038513183594 C 393.6377258300781 139.06195068359375 390.33319091796875 135.9420166015625 387.72247314453125 134.802001953125 C 383.6648254394531 131.7467498779297 386.2008361816406 126.76985931396484 395.0050354003906 123.97291564941406 C 399.6010437011719 127.22919464111328 403.3968811035156 129.5341033935547 402.8265380859375 137.6263885498047"/>
    <path stroke-width="0" fill="rgb(206, 160, 230)" opacity="0.7487223" stroke="rgb(0, 0, 0)" stroke-opacity="0.0" stroke-linecap="round" stroke-linejoin="round" d="M -60.74114227294922 30.83562660217285 C -61.81293869018555 34.835628509521484 -64.74114227294922 37.763832092285156 -68.74114227294922 38.835628509521484 C -72.74114227294922 37.763832092285156 -75.66934967041016 34.835628509521484 -76.74114227294922 30.83562660217285 C -75.66934967041016 26.83562660217285 -72.74114227294922 23.907424926757812 -68.74114227294922 22.83562660217285 C -64.74114227294922 23.907424926757812 -61.81293869018555 26.83562660217285 -60.74114227294922 30.83562660217285"/>
    <path stroke-width="0" fill="rgb(94, 78, 196)" opacity="0.028297221" stroke="rgb(0, 0, 0)" stroke-opacity="0.0" stroke-linecap="round" stroke-linejoin="round" d="M 437.2032165527344 136.9368438720703 C 425.00872802734375 137.24908447265625 424.87994384765625 144.15724182128906 429.4210205078125 146.46109008789062 C 426.2047424316406 146.8998565673828 422.34564208984375 144.0315704345703 420.8450012207031 139.29940795898438 C 422.45849609375 139.69471740722656 426.9496154785156 137.52117919921875 427.50079345703125 135.54385375976562 C 432.5350036621094 135.48052978515625 437.4216003417969 136.33050537109375 437.2032165527344 136.9368438720703"/>
    <path stroke-width="0" fill="rgb(12, 177, 198)" opacity="0.58507615" stroke="rgb(0, 0, 0)" stroke-opacity="0.0" stroke-linecap="round" stroke-linejoin="round" d="M 174.0975799560547 257.71820068359375 C 177.07395935058594 269.3307189941406 175.30758666992188 273.25286865234375 165.34072875976562 268.4729919433594 C 157.81149291992188 269.4966735839844 155.31448364257812 267.6075134277344 158.8372344970703 259.6844177246094 C 159.93301391601562 246.1361083984375 157.7108154296875 248.68630981445312 162.43896484375 248.6783447265625 C 176.27928161621094 246.990478515625 176.49855041503906 246.95126342773438 174.0975799560547 257.71820068359375"/>
    <path stroke-width="0" fill="rgb(204, 174, 57)" opacity="0.11822397" stroke="rgb(0, 0, 0)" stroke-opacity="0.0" stroke-linecap="round" stroke-linejoin="round" d="M 494.3403625488281 495.7334289550781 C 496.5040588378906 492.8162536621094 492.66412353515625 495.44976806640625 488.6498107910156 498.5223388671875 C 483.3818359375 496.3673095703125 478.9816589355469 492.8963928222656 483.7486267089844 493.0315246582031 C 487.9841003417969 491.3060607910156 490.2235107421875 487.1972351074219 494.2626647949219 478.91168212890625 C 493.2460021972656 477.1106262207031 494.3182373046875 486.8389587402344 494.3403625488281 495.7334289550781"/>
    <path stroke-width="0" fill="rgb(106, 99, 154)" opacity="0.44294772" stroke="rgb(0, 0, 0)" stroke-opacity="0.0" stroke-linecap="round" stroke-linejoin="round" d="M 518.2559814453125 417.8555908203125 C 514.6441650390625 424.93695068359375 512.5900268554688 425.7212829589844 502.3958740234375 424.37066650390625 C 498.3942565917969 426.0256042480469 492.44329833984375 425.9396057128906 493.75274658203125 419.91729736328125 C 507.6817626953125 420.82342529296875 507.7361145019531 419.6493835449219 504.9462890625 412.04156494140625 C 513.2642822265625 409.2363586425781 519.494384765625 409.87896728515625 518.2559814453125 417.8555908203125"/>
    <path stroke-width="0" fill="rgb(131, 156, 106)" opacity="0.065921605" stroke="rgb(0, 0, 0)" stroke-opacity="0.0" stroke-linecap="round" stroke-linejoin="round" d="M 95.00677490234375 66.56597900390625 C 97.49302673339844 69.42416381835938 92.61858367919922 69.01070404052734 89.2708969116211 69.6445083618164 C 89.07106018066406 68.4146957397461 87.0686264038086 65.84796905517578 88.96700286865234 63.07272720336914 C 85.81291198730469 57.152259826660156 83.2817611694336 52.93838119506836 85.83517456054688 55.19321823120117 C 98.19864654541016 56.32503128051758 97.47991180419922 57.343650817871094 95.00677490234375 66.56597900390625"/>
    <path stroke-width="0" fill="rgb(125, 94, 100)" opacity="0.85295767" stroke="rgb(0, 0, 0)" stroke-opacity="0.0" stroke-linecap="round" stroke-linejoin="round" d="M 453.8529968261719 433.060791015625 C 450.2206115722656 437.31817626953125 446.8868408203125 440.6385803222656 441.4716491699219 440.2216796875 C 435.4773864746094 441.44732666015625 435.18939208984375 437.241455078125 436.72900390625 433.35693359375 C 437.21014404296875 432.760009765625 441.9973449707031 428.16998291015625 441.13824462890625 427.3827819824219 C 439.9410095214844 428.8728942871094 447.2229919433594 431.87603759765625 453.8529968261719 433.060791015625"/>
    <path stroke-width="0" fill="rgb(96, 80, 138)" opacity="0.5476923" stroke="rgb(0, 0, 0)" stroke-opacity="0.0" stroke-linecap="round" stroke-linejoin="round" d="M 363.3827209472656 499.0513610839844 C 358.4447937011719 496.0868835449219 356.6026306152344 497.38250732421875 354.3984680175781 500.7925720214844 C 349.5467834472656 508.0064392089844 350.4753112792969 503.64984130859375 354.75982666015625 497.9361572265625 C 356.43634033203125 491.09869384765625 355.8920593261719 489.1011047363281 347.31982421875 491.94793701171875 C 353.89501953125 497.702880859375 361.7786865234375 496.76470947265625 363.3827209472656 499.0513610839844"/>
    <path stroke-width="0" fill="rgb(116, 40, 69)" opacity="0.17776726" stroke="rgb(0, 0, 0)" stroke-opacity="0.0" stroke-linecap="round" stroke-linejoin="round" d="M 320.2249450683594 105.56644439697266 C 320.19122314453125 112.40430450439453 318.6681823730469 113.97273254394531 318.65625 109.84783172607422 C 310.3500061035156 112.04936218261719 304.5785217285156 111.88329315185547 297.24444580078125 104.4986572265625 C 302.3632507324219 103.80290985107422 309.3216552734375 101.92314147949219 310.7239074707031 105.5936508178711 C 318.6380615234375 102.2366943359375 323.5603942871094 104.79049682617188 320.2249450683594 105.56644439697266"/>
    <path stroke-width="0" fill="rgb(134, 231, 200)" opacity="0.12460423" stroke="rgb(0, 0, 0)" stroke-opacity="0.0" stroke-linecap="round" stroke-linejoin="round" d="M 486.91021728515625 93.56989288330078 C 484.4452209472656 97.59494018554688 480.18218994140625 99.25370788574219 476.8882141113281 111.00981903076172 C 470.38232421875 102.29322052001953 466.5400390625 95.54010772705078 468.95648193359375 92.69835662841797 C 477.15899658203125 95.21149444580078 473.91162109375 88.44996643066406 475.0578918457031 87.7420654296875 C 478.66143798828125 85.89691162109375 482.5337829589844 89.80580139160156 486.91021728515625 93.56989288330078"/>
    <path stroke-width="0" fill="rgb(38, 13, 57)" opacity="0.4542323" stroke="rgb(0, 0, 0)" stroke-opacity="0.0" stroke-linecap="round" stroke-linejoin="round" d="M -27.041536331176758 30.428306579589844 C -28.113332748413086 34.428306579589844 -31.041536331176758 37.356510162353516 -35.041534423828125 38.428306579589844 C -39.041534423828125 37.356510162353516 -41.9697380065918 34.428306579589844 -43.041534423828125 30.428306579589844 C -41.9697380065918 26.428306579589844 -39.041534423828125 23.500104904174805 -35.041534423828125 22.428306579589844 C -31.041536331176758 23.500104904174805 -28.113332748413086 26.428306579589844 -27.041536331176758 30.428306579589844"/>
    <path stroke-width="0" fill="rgb(251, 118, 233)" opacity="0.33664012" stroke="rgb(0, 0, 0)" stroke-opacity="0.0" stroke-linecap="round" stroke-linejoin="round" d="M -70.7625961303711 47.9467658996582 C -71.83438873291016 51.9467658996582 -74.7625961303711 54.874969482421875 -78.7625961303711 55.9467658996582 C -82.7625961303711 54.874969482421875 -85.6907958984375 51.9467658996582 -86.7625961303711 47.9467658996582 C -85.6907958984375 43.9467658996582 -82.7625961303711 41.01856231689453 -78.7625961303711 39.9467658996582 C -74.7625961303711 41.01856231689453 -71.83438873291016 43.9467658996582 -70.7625961303711 47.9467658996582"/>
    <path stroke-width="0" fill="rgb(252, 270, 273)" opacity="0.2985548" stroke="rgb(0, 0, 0)" stroke-opacity="0.0" stroke-linecap="round" stroke-linejoin="round" d="M 208.3320770263672 305.36962890625 C 208.17979431152344 307.4151916503906 203.36631774902344 311.5564880371094 201.78970336914062 308.39013671875 C 196.82008361816406 308.22198486328125 191.4228057861328 308.76629638671875 190.74497985839844 308.6029052734375 C 197.5166473388672 304.0362548828125 203.14244079589844 302.89910888671875 208.0678253173828 301.5275573730469 C 205.37298583984375 301.3732604980469 208.4265899658203 304.0660095214844 208.3320770263672 305.36962890625"/>
    <path stroke-width="0" fill="rgb(148, 43, 178)" opacity="0.1515747" stroke="rgb(0, 0, 0)" stroke-opacity="0.0" stroke-linecap="round" stroke-linejoin="round" d="M 182.74984741210938 205.711669921875 C 186.33108520507812 204.3848876953125 182.4326934814453 206.89503479003906 176.83428955078125 208.67977905273438 C 175.50550842285156 202.66070556640625 171.62184143066406 203.60678100585938 175.5042724609375 200.5794677734375 C 178.2981719970703 205.1868896484375 180.5977325439453 200.85313415527344 178.96083068847656 194.2887725830078 C 176.0818328857422 199.73728942871094 180.02049255371094 199.6717529296875 182.74984741210938 205.711669921875"/>
    <path stroke-width="0" fill="rgb(53, 208, 45)" opacity="0.085520364" stroke="rgb(0, 0, 0)" stroke-opacity="0.0" stroke-linecap="round" stroke-linejoin="round" d="M 162.4224090576172 62.02791976928711 C 165.5310821533203 61.29506301879883 163.64361572265625 61.530723571777344 159.52684020996094 61.525360107421875 C 160.67587280273438 61.481666564941406 158.8759002685547 58.9630241394043 157.45669555664062 61.223388671875 C 160.25538635253906 60.78768539428711 162.74510192871094 57.709320068359375 160.6400604248047 52.55916213989258 C 159.3383026123047 50.58910369873047 160.0370635986328 56.491065979003906 162.4224090576172 62.02791976928711"/>
    <path stroke-width="0" fill="rgb(177, 137, 179)" opacity="0.28177765" stroke="rgb(0, 0, 0)" stroke-opacity="0.0" stroke-linecap="round" stroke-linejoin="round" d="M 422.82269287109375 388.1491394042969 C 422.2975158691406 396.5362854003906 423.529541015625 398.2300720214844 417.9942626953125 395.1591491699219 C 413.9848327636719 392.43072509765625 412.15380859375 388.00042724609375 403.417236328125 383.51849365234375 C 407.78399658203125 383.3572998046875 416.7149658203125 385.1722412109375 414.69842529296875 385.1478271484375 C 416.1059265136719 385.3533935546875 423.2192687988281 385.0645446777344 422.82269287109375 388.1491394042969"/>
    <path stroke-width="0" fill="rgb(56, 8, 0)" opacity="0.721179" stroke="rgb(0, 0, 0)" stroke-opacity="0.0" stroke-linecap="round" stroke-linejoin="round" d="M 25.89064598083496 494.22314453125 C 23.08417510986328 499.0301513671875 23.45733070373535 503.64080810546875 17.60523223876953 511.4826354980469 C 23.092662811279297 502.87774658203125 16.457101821899414 499.3242492675781 15.778726577758789 493.2925109863281 C 12.001426696777344 487.7418518066406 9.213567733764648 489.69061279296875 21.44219207763672 490.7401428222656 C 29.97749900817871 488.5802001953125 30.422317504882812 489.1636047363281 25.89064598083496 494.22314453125"/>
    <path stroke-width="0" fill="rgb(176, 198, 89)" opacity="0.4343896" stroke="rgb(0, 0, 0)" stroke-opacity="0.0" stroke-linecap="round" stroke-linejoin="round" d="M 16.50494956970215 9.171819686889648 C 18.450918197631836 7.79016637802124 17.196683883666992 7.194433212280273 1.3623148202896118 5.180053234100342 C 7.219722747802734 7.827301979064941 3.4902260303497314 4.792078495025635 -0.35633909702301025 5.574574947357178 C 2.796687602996826 1.9979467391967773 5.973936080932617 -0.9369301199913025 8.909762382507324 -4.508522033691406 C 12.400362968444824 -3.742283344268799 15.148710250854492 0.03646151348948479 16.50494956970215 9.171819686889648"/>
    <path stroke-width="0" fill="rgb(121, 223, 198)" opacity="0.01809087" stroke="rgb(0, 0, 0)" stroke-opacity="0.0" stroke-linecap="round" stroke-linejoin="round" d="M 8.33309268951416 -0.6554259061813354 C 7.69933557510376 2.795797824859619 3.8975722789764404 6.195311546325684 -0.42459380626678467 7.548593997955322 C -1.8760472536087036 4.769866943359375 -5.577972412109375 3.2335848808288574 -6.836025238037109 -0.28986066579818726 C -5.775409698486328 -4.253812313079834 -2.8472065925598145 -7.182015895843506 1.1527934074401855 -8.253812789916992 C 5.1527323722839355 -7.181992530822754 8.076669692993164 -4.252244472503662 8.33309268951416 -0.6554259061813354"/>
    <path stroke-width="0" fill="rgb(55, 70, 117)" opacity="0.056632724" stroke="rgb(0, 0, 0)" stroke-opacity="0.0" stroke-linecap="round" stroke-linejoin="round" d="M 11.994117736816406 87.91427612304688 C 11.321792602539062 99.49266815185547 13.824721336364746 94.59384155273438 11.620190620422363 94.8540267944336 C -3.2366557121276855 94.71656799316406 -8.456092834472656 94.36690521240234 7.320863246917725 93.75350952148438 C 2.0947024822235107 85.27079010009766 1.2776365280151367 83.46444702148438 5.617452144622803 92.5505142211914 C 14.969219207763672 86.51490783691406 15.375744819641113 84.12374114990234 11.994117736816406 87.91427612304688"/>
    <path stroke-width="0" fill="rgb(89, 109, 61)" opacity="0.36162913" stroke="rgb(0, 0, 0)" stroke-opacity="0.0" stroke-linecap="round" stroke-linejoin="round" d="M 57.56621170043945 391.0870666503906 C 58.83885955810547 398.2591552734375 60.844112396240234 400.87744140625 47.93173599243164 400.9091796875 C 53.093360900878906 388.25054931640625 55.26591491699219 386.0302734375 46.47728729248047 383.49102783203125 C 38.87626647949219 381.7629089355469 40.77696990966797 381.8848571777344 53.77267837524414 382.9677734375 C 56.639381408691406 374.4959716796875 57.23312759399414 378.45574951171875 57.56621170043945 391.0870666503906"/>
  </g>
</svg>
