<?xml version="1.0" ?>
<svg xmlns="http://www.w3.org/2000/svg" version="1.1" width="512" height="512">
  <defs/>
  <g>
    <path stroke-width="0" fill="rgb(-16, -56, 15)" opacity="1.2276596" stroke="rgb(139, 182, 153)" stroke-opacity="1.0" stroke-linecap="round" stroke-linejoin="round" d="M 577.0913696289062 160.63365173339844 C 474.05120849609375 155.9771270751953 256.3909606933594 160.9898681640625 22.064489364624023 159.27944946289062 C 149.9614715576172 41.40039825439453 217.20492553710938 78.77104187011719 174.48895263671875 -25.099302291870117 C 185.01902770996094 -33.60383224487305 197.35633850097656 -35.491127014160156 255.80145263671875 -34.28110122680664 C 358.9736633300781 -48.58882141113281 437.3743591308594 -146.630126953125 577.0913696289062 160.63365173339844"/>
    <path stroke-width="0" fill="rgb(29, 58, 27)" opacity="0.56748074" stroke="rgb(108, 164, 111)" stroke-opacity="1.0" stroke-linecap="round" stroke-linejoin="round" d="M 318.6918640136719 713.5076904296875 C -124.35425567626953 748.9126586914062 7.078729152679443 370.2440490722656 43.72615432739258 84.44258880615234 C 293.0481872558594 122.73342895507812 289.8204040527344 118.47431945800781 280.1459045410156 40.89720916748047 C 284.2266845703125 -66.92325592041016 317.0650329589844 -46.443145751953125 442.3717346191406 -36.365211486816406 C 639.143310546875 -2.5854287147521973 854.1314086914062 240.14646911621094 318.6918640136719 713.5076904296875"/>
    <path stroke-width="0" fill="rgb(100, 123, 77)" opacity="1.1295784" stroke="rgb(245, 97, 201)" stroke-opacity="1.0" stroke-linecap="round" stroke-linejoin="round" d="M 364.49432373046875 88.9334716796875 C 333.98663330078125 107.39750671386719 324.1716613769531 111.60969543457031 88.42784881591797 106.9934310913086 C 110.6676025390625 103.6150894165039 112.05255126953125 111.51028442382812 120.72222900390625 67.0373764038086 C 135.6087188720703 -33.50758361816406 141.19656372070312 -41.69476318359375 171.87510681152344 -45.76266098022461 C 293.9641418457031 -29.8647518157959 318.78460693359375 -37.479759216308594 364.49432373046875 88.9334716796875"/>
    <path stroke-width="0" fill="rgb(3, -2, 14)" opacity="1.0523766" stroke="rgb(144, 236, 18)" stroke-opacity="1.0" stroke-linecap="round" stroke-linejoin="round" d="M 256.35015869140625 85.64112091064453 C 197.8180694580078 107.61612701416016 293.2821350097656 71.87673950195312 529.9677124023438 140.7518310546875 C 130.7259979248047 149.90682983398438 20.354272842407227 95.0206069946289 -28.12519645690918 241.85389709472656 C -45.53935623168945 -103.79988098144531 -12.785496711730957 -54.71656799316406 149.35635375976562 -35.1315803527832 C 205.4173126220703 -44.16156005859375 223.13192749023438 -50.70870590209961 256.35015869140625 85.64112091064453"/>
    <path stroke-width="0" fill="rgb(268, 260, 259)" opacity="1.0368446" stroke="rgb(5, 212, 198)" stroke-opacity="1.0" stroke-linecap="round" stroke-linejoin="round" d="M 496.19171142578125 246.10928344726562 C 465.0417785644531 181.10459899902344 269.4755554199219 188.84738159179688 294.07586669921875 218.191650390625 C 194.34854125976562 180.21109008789062 155.52308654785156 184.3958740234375 129.4305877685547 159.17471313476562 C 79.32162475585938 158.39735412597656 82.85990142822266 158.3722686767578 499.10589599609375 157.54481506347656 C 496.1566467285156 157.4451904296875 497.26123046875 138.0227508544922 496.19171142578125 246.10928344726562"/>
    <path stroke-width="0" fill="rgb(206, 234, 223)" opacity="0.58508" stroke="rgb(30, 163, 36)" stroke-opacity="1.0" stroke-linecap="round" stroke-linejoin="round" d="M 636.696044921875 412.2311096191406 C 457.77008056640625 442.1556091308594 162.86764526367188 407.58319091796875 158.4080352783203 426.5203857421875 C 282.720947265625 421.7078857421875 323.2939147949219 423.2938537597656 -32.53777313232422 425.5775451660156 C 197.87130737304688 397.09857177734375 230.5768280029297 424.21270751953125 55.893009185791016 410.1468200683594 C 131.29962158203125 416.1604309082031 305.6329650878906 400.6781311035156 636.696044921875 412.2311096191406"/>
    <path stroke-width="0" fill="rgb(224, 218, 208)" opacity="0.6395768" stroke="rgb(133, 105, 67)" stroke-opacity="1.0" stroke-linecap="round" stroke-linejoin="round" d="M 573.1989135742188 382.3429870605469 C 753.5902099609375 405.0351867675781 597.8502197265625 399.24163818359375 65.87869262695312 401.3778381347656 C 181.811767578125 391.2485656738281 -87.70307922363281 413.10028076171875 -65.21772003173828 380.4016418457031 C 519.4926147460938 380.66131591796875 496.6627197265625 380.7011413574219 444.706298828125 375.84124755859375 C 393.1831359863281 379.3030700683594 405.9287414550781 377.8699645996094 573.1989135742188 382.3429870605469"/>
    <path stroke-width="0" fill="rgb(216, 212, 215)" opacity="0.9227184" stroke="rgb(116, 144, 4)" stroke-opacity="1.0" stroke-linecap="round" stroke-linejoin="round" d="M 597.9677734375 422.78228759765625 C -80.11321258544922 421.2658386230469 23.32801055908203 425.03778076171875 79.17599487304688 427.45556640625 C 223.81651306152344 413.0643310546875 -63.1203727722168 442.3448486328125 -79.84000396728516 409.79412841796875 C 79.10061645507812 410.6266174316406 251.13340759277344 408.90460205078125 310.1343994140625 408.35601806640625 C 131.729736328125 422.5094909667969 226.5308074951172 392.3732604980469 597.9677734375 422.78228759765625"/>
    <path stroke-width="0" fill="rgb(265, 266, 267)" opacity="1.0083685" stroke="rgb(156, 157, 240)" stroke-opacity="1.0" stroke-linecap="round" stroke-linejoin="round" d="M 497.7262268066406 276.77630615234375 C 462.02862548828125 305.4085693359375 616.8499145507812 297.0757141113281 -41.18216323852539 299.17010498046875 C -88.60340118408203 261.7836608886719 -97.34354400634766 270.82916259765625 257.5574035644531 272.4799499511719 C 273.26416015625 271.7887268066406 260.03704833984375 132.61721801757812 281.9641418457031 167.60667419433594 C 321.6782531738281 314.784912109375 207.37484741210938 253.35391235351562 497.7262268066406 276.77630615234375"/>
    <path stroke-width="0" fill="rgb(211, 211, 212)" opacity="0.98502445" stroke="rgb(91, 111, 177)" stroke-opacity="1.0" stroke-linecap="round" stroke-linejoin="round" d="M 593.3338012695312 406.4825744628906 C 473.4421081542969 451.8087463378906 261.80975341796875 375.2314147949219 169.81556701660156 423.2271728515625 C 248.55299377441406 410.9336242675781 242.46002197265625 421.39532470703125 213.96728515625 415.0636901855469 C 259.9358825683594 420.23876953125 278.81793212890625 441.8316650390625 147.7047119140625 410.8115539550781 C 179.77218627929688 419.6903381347656 479.64837646484375 401.39697265625 593.3338012695312 406.4825744628906"/>
    <path stroke-width="0" fill="rgb(265, 264, 265)" opacity="0.9977465" stroke="rgb(170, 171, 53)" stroke-opacity="1.0" stroke-linecap="round" stroke-linejoin="round" d="M 488.9033508300781 164.45042419433594 C 280.3702392578125 216.17747497558594 746.576171875 200.53713989257812 21.342884063720703 203.89544677734375 C 35.25689697265625 212.0160675048828 -57.97212600708008 217.75460815429688 -49.62335968017578 156.5984649658203 C 119.73479461669922 156.79873657226562 191.57723999023438 156.1446533203125 231.87066650390625 159.70152282714844 C 133.81002807617188 161.9462127685547 194.6080780029297 155.41781616210938 488.9033508300781 164.45042419433594"/>
    <path stroke-width="0" fill="rgb(127, 137, 107)" opacity="1.0483258" stroke="rgb(80, 92, 145)" stroke-opacity="1.0" stroke-linecap="round" stroke-linejoin="round" d="M 525.02978515625 96.79653930664062 C 440.5427551269531 69.18408203125 506.2688293457031 79.76519775390625 441.7715148925781 65.8702392578125 C 321.80657958984375 76.0090103149414 355.5149841308594 49.51483154296875 360.1148681640625 4.136303424835205 C 357.03497314453125 -22.206701278686523 361.84124755859375 -30.034454345703125 368.098388671875 -27.440399169921875 C 381.71063232421875 56.6359748840332 499.2313232421875 -9.58615493774414 525.02978515625 96.79653930664062"/>
    <path stroke-width="0" fill="rgb(268, 255, 256)" opacity="1.0275104" stroke="rgb(252, 26, 53)" stroke-opacity="1.0" stroke-linecap="round" stroke-linejoin="round" d="M 450.1661376953125 39.02648162841797 C 401.2378845214844 52.11703872680664 356.9457092285156 70.7197036743164 353.69989013671875 69.77481842041016 C 391.81402587890625 128.42062377929688 331.23773193359375 89.44342803955078 308.9448547363281 33.21002960205078 C 325.7804260253906 16.88117790222168 340.3403015136719 14.232815742492676 418.4019775390625 1.7402980327606201 C 413.9178771972656 16.680845260620117 447.84161376953125 4.893942356109619 450.1661376953125 39.02648162841797"/>
    <path stroke-width="0" fill="rgb(4, 10, -14)" opacity="0.95970535" stroke="rgb(166, 64, 118)" stroke-opacity="1.0" stroke-linecap="round" stroke-linejoin="round" d="M 133.8094940185547 396.6011047363281 C 235.0870361328125 400.34698486328125 123.09197998046875 400.5212707519531 -78.9871826171875 400.5670166015625 C 13.705838203430176 409.4677734375 -48.45288848876953 409.0965576171875 74.06123352050781 409.64996337890625 C 109.23047637939453 408.0886535644531 132.19223022460938 406.3285217285156 253.9365692138672 404.19403076171875 C 73.49470520019531 392.58160400390625 91.75824737548828 394.88134765625 133.8094940185547 396.6011047363281"/>
    <path stroke-width="0" fill="rgb(117, 100, 115)" opacity="0.9519812" stroke="rgb(40, 28, 167)" stroke-opacity="1.0" stroke-linecap="round" stroke-linejoin="round" d="M 419.6012268066406 -32.826656341552734 C 435.8089904785156 22.617816925048828 456.1758117675781 63.96045684814453 443.3426208496094 3.0864391326904297 C 386.634765625 -19.40024185180664 374.353515625 -16.453153610229492 312.05523681640625 -19.66075897216797 C 315.1639404296875 -29.508440017700195 323.5223083496094 -35.45821762084961 394.3455505371094 -33.86525344848633 C 406.1054382324219 -37.010616302490234 415.6422424316406 -32.56230163574219 419.6012268066406 -32.826656341552734"/>
    <path stroke-width="0" fill="rgb(249, 255, 259)" opacity="0.9754452" stroke="rgb(50, 94, 209)" stroke-opacity="1.0" stroke-linecap="round" stroke-linejoin="round" d="M 488.8404235839844 100.12582397460938 C 396.1811828613281 90.78958129882812 364.5003356933594 92.6612548828125 336.9830627441406 92.46051025390625 C 401.7591247558594 97.77594757080078 378.12628173828125 102.3338851928711 200.45431518554688 99.9814682006836 C 411.8721618652344 83.28440856933594 366.8723449707031 104.59224700927734 383.545166015625 83.81598663330078 C 374.9001770019531 74.23809814453125 504.514404296875 61.44003677368164 488.8404235839844 100.12582397460938"/>
    <path stroke-width="0" fill="rgb(135, 141, 117)" opacity="1.0094668" stroke="rgb(213, 24, 248)" stroke-opacity="1.0" stroke-linecap="round" stroke-linejoin="round" d="M 470.6389465332031 34.623680114746094 C 461.75555419921875 55.70244598388672 429.09613037109375 58.754249572753906 332.5466613769531 87.1202163696289 C 280.47357177734375 92.03670501708984 217.56903076171875 79.16016387939453 -88.60121154785156 89.23007202148438 C -40.06278991699219 -346.3504638671875 68.1061782836914 -207.80335998535156 423.04425048828125 -84.76509857177734 C 470.13006591796875 -57.64151382446289 487.9036865234375 -60.67351150512695 470.6389465332031 34.623680114746094"/>
    <path stroke-width="0" fill="rgb(272, 275, 277)" opacity="1.0168022" stroke="rgb(249, 154, 188)" stroke-opacity="1.0" stroke-linecap="round" stroke-linejoin="round" d="M -15.33658218383789 80.05625915527344 C 326.60870361328125 82.62882995605469 250.4145965576172 73.48298645019531 -51.6932258605957 99.8019027709961 C 204.64234924316406 101.08494567871094 173.8095703125 97.99268341064453 131.31765747070312 105.55752563476562 C 161.47467041015625 98.78919219970703 221.994873046875 116.74542999267578 360.9895935058594 80.887451171875 C 26.18438720703125 74.31773376464844 112.29911804199219 114.86748504638672 -15.33658218383789 80.05625915527344"/>
    <path stroke-width="0" fill="rgb(137, 141, 119)" opacity="0.7831979" stroke="rgb(72, 30, 75)" stroke-opacity="1.0" stroke-linecap="round" stroke-linejoin="round" d="M 273.08099365234375 51.13192367553711 C 299.7593688964844 76.09092712402344 378.494140625 81.7041015625 272.1089782714844 64.33155822753906 C 220.57704162597656 77.37995910644531 203.73825073242188 85.107421875 196.5616455078125 -3.077651262283325 C 262.51806640625 -37.65595626831055 279.69085693359375 -34.56483840942383 302.6523132324219 -30.39713478088379 C 376.3472595214844 -21.772258758544922 380.0268859863281 -10.652491569519043 273.08099365234375 51.13192367553711"/>
    <path stroke-width="0" fill="rgb(217, 238, 226)" opacity="0.7980386" stroke="rgb(81, 105, 16)" stroke-opacity="1.0" stroke-linecap="round" stroke-linejoin="round" d="M 549.4806518554688 74.68220520019531 C 546.9356689453125 103.32501220703125 533.772705078125 109.36691284179688 522.620849609375 58.412315368652344 C 413.6974792480469 54.37396240234375 448.9584655761719 65.1084976196289 460.3367919921875 41.84355545043945 C 365.9194641113281 43.14122009277344 414.3631896972656 -18.695222854614258 385.8691711425781 -21.02935791015625 C 415.06219482421875 87.69519805908203 490.15765380859375 -0.5657016634941101 549.4806518554688 74.68220520019531"/>
    <path stroke-width="0" fill="rgb(-9, -2, -4)" opacity="0.8319058" stroke="rgb(144, 67, 133)" stroke-opacity="1.0" stroke-linecap="round" stroke-linejoin="round" d="M 131.7779998779297 405.904541015625 C 120.56485748291016 396.2887268066406 98.0577621459961 418.3572998046875 -67.58306121826172 400.5220947265625 C 220.08387756347656 399.1971435546875 297.4061279296875 397.9887390136719 268.2005920410156 399.98907470703125 C 144.9441680908203 406.1206970214844 169.2722930908203 395.5238952636719 253.60110473632812 404.9435729980469 C 108.3345947265625 405.37982177734375 118.64749908447266 402.65863037109375 131.7779998779297 405.904541015625"/>
    <path stroke-width="0" fill="rgb(268, 265, 268)" opacity="1.0594555" stroke="rgb(146, 236, 81)" stroke-opacity="1.0" stroke-linecap="round" stroke-linejoin="round" d="M 435.87005615234375 186.44088745117188 C 435.4167175292969 223.3596954345703 437.0998229980469 295.9666442871094 435.5138854980469 281.8617858886719 C 373.22222900390625 306.739013671875 423.03375244140625 242.3274383544922 406.7895202636719 265.5428771972656 C 415.7974548339844 138.3135986328125 383.13116455078125 252.81338500976562 441.9930419921875 174.6468963623047 C 442.2430725097656 198.99560546875 440.12750244140625 248.08535766601562 435.87005615234375 186.44088745117188"/>
    <path stroke-width="0" fill="rgb(-13, -2, -8)" opacity="1.0205628" stroke="rgb(33, 182, 73)" stroke-opacity="1.0" stroke-linecap="round" stroke-linejoin="round" d="M 303.8258361816406 399.30096435546875 C 250.20257568359375 399.49505615234375 261.43035888671875 400.7283020019531 668.3862915039062 396.0909729003906 C 544.2296752929688 416.1731262207031 282.36273193359375 398.3695068359375 282.4725341796875 407.2182922363281 C 324.6597595214844 397.1549987792969 325.2260437011719 401.02117919921875 102.3416748046875 400.3736267089844 C 281.90008544921875 408.85595703125 299.7650451660156 409.6111145019531 303.8258361816406 399.30096435546875"/>
    <path stroke-width="0" fill="rgb(191, 182, 161)" opacity="0.72765577" stroke="rgb(149, 5, 211)" stroke-opacity="1.0" stroke-linecap="round" stroke-linejoin="round" d="M 520.8279418945312 297.64813232421875 C 493.83880615234375 305.6474609375 489.5412902832031 296.0669860839844 504.0101623535156 47.98654556274414 C 441.5686950683594 3.4096994400024414 470.47314453125 104.43314361572266 489.0785827636719 -56.15156555175781 C 423.89288330078125 -32.06654739379883 433.3778381347656 -36.32387161254883 469.7552490234375 -42.66332244873047 C 555.4288330078125 -45.57939910888672 543.9959106445312 -55.355979919433594 520.8279418945312 297.64813232421875"/>
    <path stroke-width="0" fill="rgb(260, 255, 256)" opacity="1.0369394" stroke="rgb(172, 68, 187)" stroke-opacity="1.0" stroke-linecap="round" stroke-linejoin="round" d="M 257.4958801269531 115.24813079833984 C 241.41163635253906 125.94474029541016 291.9442138671875 120.43490600585938 262.9045104980469 128.27464294433594 C 288.223876953125 117.9868392944336 265.9730224609375 137.18109130859375 19.368440628051758 110.78005981445312 C 634.62890625 109.7150650024414 608.9103393554688 108.27537536621094 516.7982177734375 136.9722442626953 C 434.64312744140625 113.206787109375 225.80548095703125 135.41128540039062 257.4958801269531 115.24813079833984"/>
    <path stroke-width="0" fill="rgb(-6, -14, 18)" opacity="0.99663764" stroke="rgb(63, 146, 150)" stroke-opacity="1.0" stroke-linecap="round" stroke-linejoin="round" d="M 382.7091064453125 106.58447265625 C -11.799059867858887 102.92819213867188 30.588611602783203 102.11203002929688 472.90802001953125 97.98365020751953 C 150.72132873535156 88.67345428466797 -149.57289123535156 98.54902648925781 205.53700256347656 93.58629608154297 C 174.45053100585938 92.7844009399414 -1.3038181066513062 101.06864166259766 -89.04393768310547 84.06221771240234 C 545.2910766601562 86.20861053466797 274.0165710449219 77.20984649658203 382.7091064453125 106.58447265625"/>
    <path stroke-width="0" fill="rgb(266, 267, 270)" opacity="0.99869823" stroke="rgb(56, 242, 114)" stroke-opacity="1.0" stroke-linecap="round" stroke-linejoin="round" d="M -16.537425994873047 133.59263610839844 C -133.87896728515625 143.7516326904297 -13.064013481140137 134.7434844970703 711.4832763671875 140.47775268554688 C 658.70361328125 122.53792572021484 391.23175048828125 129.09535217285156 20.345767974853516 127.61613464355469 C -75.23682403564453 132.7694091796875 -155.9788055419922 87.87206268310547 253.6361846923828 126.65141296386719 C -38.27244186401367 126.84012603759766 -91.54998779296875 118.79879760742188 -16.537425994873047 133.59263610839844"/>
    <path stroke-width="0" fill="rgb(25, 21, 11)" opacity="0.9928525" stroke="rgb(178, 75, 207)" stroke-opacity="1.0" stroke-linecap="round" stroke-linejoin="round" d="M 187.45262145996094 324.4320373535156 C 114.0891342163086 311.4319152832031 127.83573913574219 294.07806396484375 247.09669494628906 306.5923767089844 C 189.9453582763672 329.6996765136719 109.61906433105469 328.7958679199219 34.36299514770508 321.9580383300781 C 157.08106994628906 309.5448913574219 185.11572265625 321.8128356933594 119.73652648925781 322.1784362792969 C 133.9911651611328 326.6954345703125 148.64019775390625 308.073974609375 187.45262145996094 324.4320373535156"/>
    <path stroke-width="0" fill="rgb(263, 265, 269)" opacity="1.0694809" stroke="rgb(224, 148, 224)" stroke-opacity="1.0" stroke-linecap="round" stroke-linejoin="round" d="M 485.6512145996094 311.583984375 C 484.654296875 250.50148010253906 484.8804626464844 271.9091491699219 481.14556884765625 282.8803405761719 C 475.4488220214844 270.5736389160156 488.2377624511719 233.81353759765625 470.6792907714844 184.63343811035156 C 476.280517578125 241.6189422607422 473.1492919921875 223.28456115722656 493.5853576660156 208.7212677001953 C 496.31890869140625 257.0899963378906 498.9290771484375 344.59027099609375 485.6512145996094 311.583984375"/>
    <path stroke-width="0" fill="rgb(35, 15, 26)" opacity="0.9368316" stroke="rgb(184, 127, 243)" stroke-opacity="1.0" stroke-linecap="round" stroke-linejoin="round" d="M 109.19976043701172 325.5453796386719 C -24.468076705932617 332.222412109375 -37.649085998535156 317.70556640625 1.2042783498764038 358.4940185546875 C 18.262235641479492 286.4625244140625 1.3350743055343628 354.1135559082031 -60.55176544189453 326.8968200683594 C 34.88766098022461 314.72613525390625 65.36270904541016 312.850341796875 83.00703430175781 316.7695617675781 C 25.420930862426758 305.0370178222656 47.26240539550781 289.9963684082031 109.19976043701172 325.5453796386719"/>
    <path stroke-width="0" fill="rgb(-3, -2, 20)" opacity="1.0929394" stroke="rgb(108, 154, 4)" stroke-opacity="1.0" stroke-linecap="round" stroke-linejoin="round" d="M 194.39895629882812 309.3257751464844 C 283.8667907714844 332.8578796386719 183.89556884765625 301.5882873535156 285.82135009765625 332.286376953125 C 52.83622741699219 331.6907958984375 -21.99842643737793 339.9889221191406 174.99179077148438 315.9092102050781 C 185.83184814453125 303.4627380371094 185.920654296875 301.9234313964844 165.58412170410156 312.669921875 C 189.47335815429688 323.51513671875 192.58909606933594 320.2756042480469 194.39895629882812 309.3257751464844"/>
    <path stroke-width="0" fill="rgb(37, 15, 59)" opacity="0.8471852" stroke="rgb(168, 73, 157)" stroke-opacity="1.0" stroke-linecap="round" stroke-linejoin="round" d="M 288.04583740234375 328.9285888671875 C 166.0004119873047 314.6763610839844 137.43246459960938 322.05755615234375 409.7348937988281 297.9772644042969 C 364.73333740234375 300.0679016113281 118.37692260742188 300.64886474609375 -101.6902847290039 297.8796691894531 C 165.4202423095703 362.78717041015625 218.19261169433594 276.5347900390625 180.3113250732422 319.2802734375 C 181.8582763671875 322.3188171386719 217.2717742919922 300.828369140625 288.04583740234375 328.9285888671875"/>
    <path stroke-width="0" fill="rgb(-3, 12, 5)" opacity="0.73726594" stroke="rgb(34, 76, 145)" stroke-opacity="1.0" stroke-linecap="round" stroke-linejoin="round" d="M 226.55453491210938 319.14739990234375 C 173.83212280273438 301.16619873046875 161.5994873046875 289.9861755371094 114.5117416381836 325.52978515625 C 141.7444305419922 326.53594970703125 137.80923461914062 296.49810791015625 197.23739624023438 323.70361328125 C 211.56796264648438 322.3759460449219 222.51278686523438 325.3911437988281 195.60267639160156 315.79620361328125 C 171.23886108398438 322.36468505859375 180.1794891357422 327.67352294921875 226.55453491210938 319.14739990234375"/>
    <path stroke-width="0" fill="rgb(-8, -5, -3)" opacity="1.058696" stroke="rgb(146, 166, 166)" stroke-opacity="1.0" stroke-linecap="round" stroke-linejoin="round" d="M 477.35845947265625 323.478759765625 C 397.4952392578125 293.040771484375 300.857666015625 317.51470947265625 177.09475708007812 325.8772888183594 C 342.9869079589844 337.1769104003906 334.4456787109375 326.1466064453125 308.57147216796875 336.10888671875 C 304.1781005859375 334.6463317871094 294.801513671875 316.8514099121094 316.45843505859375 343.8996887207031 C 321.5885314941406 341.93963623046875 314.3401794433594 325.0055847167969 477.35845947265625 323.478759765625"/>
    <path stroke-width="0" fill="rgb(195, 198, 166)" opacity="0.8430549" stroke="rgb(228, 93, 111)" stroke-opacity="1.0" stroke-linecap="round" stroke-linejoin="round" d="M 343.5111389160156 356.86114501953125 C 401.90625 361.44195556640625 294.3875732421875 367.07293701171875 307.23968505859375 358.97125244140625 C 329.5699462890625 350.19635009765625 263.5880126953125 346.9090881347656 281.59014892578125 356.78948974609375 C 270.57281494140625 317.87158203125 284.12158203125 336.3185729980469 288.8744201660156 331.8099670410156 C 342.4825134277344 334.6383056640625 309.6856994628906 320.2392883300781 343.5111389160156 356.86114501953125"/>
    <path stroke-width="0" fill="rgb(-14, -11, -12)" opacity="1.0198159" stroke="rgb(205, 179, 25)" stroke-opacity="1.0" stroke-linecap="round" stroke-linejoin="round" d="M 460.78741455078125 327.584716796875 C 616.341064453125 331.0975646972656 545.9315185546875 324.8205871582031 497.296142578125 321.68939208984375 C 420.412109375 349.8780822753906 408.179931640625 287.1300354003906 435.20068359375 308.0015869140625 C 517.210693359375 309.18817138671875 509.29217529296875 287.146240234375 529.1627807617188 290.6080017089844 C 458.4074401855469 289.5351257324219 533.94287109375 316.3318176269531 460.78741455078125 327.584716796875"/>
    <path stroke-width="0" fill="rgb(41, 105, 86)" opacity="1.0138022" stroke="rgb(182, 254, 38)" stroke-opacity="1.0" stroke-linecap="round" stroke-linejoin="round" d="M 474.86651611328125 174.311767578125 C 501.72430419921875 210.57675170898438 450.39251708984375 206.10992431640625 525.2566528320312 208.95352172851562 C 485.72357177734375 211.52272033691406 513.2088623046875 202.38612365722656 491.9290466308594 205.24098205566406 C 504.4426574707031 206.21133422851562 519.4611206054688 207.6526336669922 436.049560546875 207.49005126953125 C 453.9856262207031 301.0597839355469 485.98291015625 301.5777587890625 474.86651611328125 174.311767578125"/>
    <path stroke-width="0" fill="rgb(-5, 23, 11)" opacity="0.49014127" stroke="rgb(41, 156, 31)" stroke-opacity="1.0" stroke-linecap="round" stroke-linejoin="round" d="M 11.68325138092041 268.95062255859375 C 34.39848327636719 179.23110961914062 -51.839439392089844 207.0874481201172 258.4922180175781 204.21200561523438 C 185.982421875 229.57969665527344 19.65675926208496 174.79039001464844 49.313697814941406 273.8438415527344 C 49.59176254272461 233.25938415527344 30.682098388671875 224.0447540283203 104.79161834716797 211.8329620361328 C -19.794191360473633 217.69691467285156 45.74238967895508 190.2355499267578 11.68325138092041 268.95062255859375"/>
    <path stroke-width="0" fill="rgb(-11, -11, 0)" opacity="0.6678598" stroke="rgb(205, 145, 103)" stroke-opacity="1.0" stroke-linecap="round" stroke-linejoin="round" d="M 325.5157165527344 319.75872802734375 C 429.27618408203125 307.4130859375 366.74664306640625 329.79156494140625 347.9923400878906 329.9342346191406 C 297.9221496582031 332.1600341796875 226.21351623535156 336.8100891113281 127.93533325195312 316.0810546875 C -66.34562683105469 301.48040771484375 93.02766418457031 305.90167236328125 486.29071044921875 298.468505859375 C 336.77630615234375 323.8265380859375 315.30609130859375 278.69744873046875 325.5157165527344 319.75872802734375"/>
    <path stroke-width="0" fill="rgb(-3, -14, -20)" opacity="0.8920319" stroke="rgb(177, 115, 184)" stroke-opacity="1.0" stroke-linecap="round" stroke-linejoin="round" d="M 433.3597717285156 352.4186096191406 C 628.81396484375 349.4515380859375 667.8779296875 350.0624084472656 549.1160888671875 379.78460693359375 C 97.80233764648438 378.3194580078125 -15.196368217468262 388.96502685546875 347.0081481933594 352.1151428222656 C 420.9490966796875 359.11322021484375 372.0928649902344 338.9974365234375 374.707763671875 350.6639709472656 C 306.5958557128906 324.5680236816406 523.2317504882812 323.930419921875 433.3597717285156 352.4186096191406"/>
    <path stroke-width="0" fill="rgb(56, 44, 38)" opacity="1.0565819" stroke="rgb(248, 218, 2)" stroke-opacity="1.0" stroke-linecap="round" stroke-linejoin="round" d="M -51.7359619140625 505.1083068847656 C 477.3921813964844 509.9226379394531 500.57525634765625 496.50872802734375 51.26313400268555 498.31097412109375 C 62.994049072265625 452.6141052246094 58.14134216308594 482.252197265625 -30.1917724609375 470.7059326171875 C 64.69175720214844 465.7157287597656 66.71145629882812 472.72039794921875 54.87890625 470.11834716796875 C 49.97095489501953 522.6131591796875 84.53779602050781 484.9809265136719 -51.7359619140625 505.1083068847656"/>
    <path stroke-width="0" fill="rgb(30, 29, 19)" opacity="1.0628237" stroke="rgb(186, 43, 132)" stroke-opacity="1.0" stroke-linecap="round" stroke-linejoin="round" d="M 327.0109558105469 372.7900085449219 C 307.1634826660156 322.4547424316406 320.1211853027344 368.6086730957031 10.498824119567871 359.78131103515625 C 401.9254455566406 356.9992980957031 390.74188232421875 354.9859313964844 196.7196807861328 360.4400329589844 C 338.2254943847656 344.1885986328125 206.30360412597656 357.564208984375 -208.29991149902344 345.3040771484375 C -51.03590774536133 378.8145446777344 -30.962913513183594 360.79364013671875 327.0109558105469 372.7900085449219"/>
    <path stroke-width="0" fill="rgb(43, 97, 69)" opacity="0.36960083" stroke="rgb(50, 4, 202)" stroke-opacity="1.0" stroke-linecap="round" stroke-linejoin="round" d="M 459.00408935546875 205.68240356445312 C 482.3783264160156 337.0139465332031 459.55767822265625 203.98158264160156 460.7779846191406 206.97853088378906 C 461.7415466308594 203.49603271484375 458.901611328125 257.9085998535156 464.7961120605469 220.71253967285156 C 449.1882629394531 315.039306640625 477.781982421875 256.203369140625 487.1222839355469 243.8135223388672 C 451.4035339355469 297.317138671875 468.18212890625 274.4874267578125 459.00408935546875 205.68240356445312"/>
    <path stroke-width="0" fill="rgb(62, -12, -13)" opacity="0.8090814" stroke="rgb(88, 236, 179)" stroke-opacity="1.0" stroke-linecap="round" stroke-linejoin="round" d="M 497.50042724609375 145.39039611816406 C 496.5285339355469 156.8890380859375 496.36614990234375 307.84759521484375 492.6943664550781 320.7975158691406 C 473.7975769042969 234.212158203125 477.8738098144531 242.74948120117188 491.6937255859375 316.0674133300781 C 504.56640625 190.45606994628906 476.50921630859375 197.6681365966797 533.5772705078125 207.1151580810547 C 468.60107421875 195.39927673339844 509.86126708984375 254.00677490234375 497.50042724609375 145.39039611816406"/>
    <path stroke-width="0" fill="rgb(259, 255, 260)" opacity="1.0528034" stroke="rgb(41, 158, 147)" stroke-opacity="1.0" stroke-linecap="round" stroke-linejoin="round" d="M 317.93255615234375 305.58935546875 C 250.91583251953125 317.8498229980469 209.6965789794922 310.58160400390625 160.60867309570312 316.4110412597656 C 240.39175415039062 310.58062744140625 203.11500549316406 315.7746887207031 88.29141998291016 310.51678466796875 C 209.3954620361328 288.1052551269531 270.4841003417969 313.6838684082031 274.7955627441406 297.77374267578125 C 261.97601318359375 312.74072265625 275.8739013671875 293.0011901855469 317.93255615234375 305.58935546875"/>
    <path stroke-width="0" fill="rgb(273, 263, 270)" opacity="0.7356238" stroke="rgb(238, 156, 136)" stroke-opacity="1.0" stroke-linecap="round" stroke-linejoin="round" d="M 425.1416015625 273.8677978515625 C 440.3543395996094 262.84478759765625 433.3221740722656 278.2499084472656 434.2242736816406 231.42434692382812 C 436.9347839355469 225.66128540039062 429.8115539550781 214.2567901611328 436.671630859375 274.6771240234375 C 435.7611999511719 277.0232238769531 439.54852294921875 264.33905029296875 422.63092041015625 270.284912109375 C 425.84796142578125 287.6985168457031 414.868896484375 256.9635925292969 425.1416015625 273.8677978515625"/>
    <path stroke-width="0" fill="rgb(22, -3, 55)" opacity="1.1260176" stroke="rgb(186, 79, 101)" stroke-opacity="1.0" stroke-linecap="round" stroke-linejoin="round" d="M 422.8603515625 473.0605773925781 C 294.6515197753906 471.175537109375 316.2593078613281 468.8738708496094 322.9252014160156 470.005859375 C 315.23040771484375 468.8831787109375 281.9855651855469 466.54425048828125 608.425048828125 468.473388671875 C 388.2535400390625 482.7979736328125 352.25152587890625 465.05462646484375 201.03915405273438 470.5735778808594 C 147.92771911621094 472.6628723144531 209.6754150390625 471.88458251953125 422.8603515625 473.0605773925781"/>
    <path stroke-width="0" fill="rgb(-13, -10, -13)" opacity="0.79223037" stroke="rgb(47, 240, 188)" stroke-opacity="1.0" stroke-linecap="round" stroke-linejoin="round" d="M 271.7632751464844 355.32977294921875 C 296.7262878417969 335.125244140625 300.42486572265625 368.3323669433594 504.94818115234375 357.3209228515625 C 366.2638854980469 353.2173767089844 344.71490478515625 355.4606018066406 340.8922119140625 356.623046875 C 308.22149658203125 349.4365539550781 337.5531921386719 363.023681640625 328.65875244140625 319.01641845703125 C 410.99688720703125 289.0640869140625 409.307373046875 368.78472900390625 271.7632751464844 355.32977294921875"/>
    <path stroke-width="0" fill="rgb(-16, -30, -19)" opacity="0.9612599" stroke="rgb(57, 64, 14)" stroke-opacity="1.0" stroke-linecap="round" stroke-linejoin="round" d="M 477.6324768066406 174.21890258789062 C 464.5308837890625 238.44973754882812 485.0328674316406 446.3359069824219 483.8002014160156 180.657958984375 C 419.52435302734375 188.2129364013672 462.4446105957031 140.0658721923828 437.7392272949219 353.2449645996094 C 432.7640686035156 155.48129272460938 436.5845947265625 182.5373992919922 442.845703125 179.8397979736328 C 440.4166564941406 164.739501953125 490.3073425292969 176.69589233398438 477.6324768066406 174.21890258789062"/>
    <path stroke-width="0" fill="rgb(132, 140, 112)" opacity="1.002528" stroke="rgb(79, 177, 96)" stroke-opacity="1.0" stroke-linecap="round" stroke-linejoin="round" d="M 633.3372192382812 76.47967529296875 C 546.281005859375 161.73159790039062 547.8549194335938 180.1192169189453 503.3111572265625 188.06356811523438 C 490.52276611328125 164.10044860839844 484.23773193359375 58.570186614990234 491.7548828125 55.526947021484375 C 523.8975830078125 108.20762634277344 509.9052734375 81.25836944580078 496.5587463378906 48.0056037902832 C 404.9885559082031 8.759885787963867 442.7106628417969 -97.69087982177734 633.3372192382812 76.47967529296875"/>
    <path stroke-width="0" fill="rgb(281, 266, 266)" opacity="1.0225352" stroke="rgb(6, 17, 173)" stroke-opacity="1.0" stroke-linecap="round" stroke-linejoin="round" d="M 489.8034362792969 301.76409912109375 C 511.09234619140625 317.914306640625 470.2294006347656 305.8696594238281 488.5269775390625 309.3299865722656 C 286.58050537109375 307.6785583496094 179.450927734375 310.5786437988281 156.06312561035156 302.3038024902344 C 301.4093322753906 299.6114196777344 370.8832702636719 300.33392333984375 432.1530456542969 301.78131103515625 C 338.541259765625 299.7696228027344 312.5633239746094 298.9794921875 489.8034362792969 301.76409912109375"/>
    <path stroke-width="0" fill="rgb(19, -2, 40)" opacity="1.0543115" stroke="rgb(136, 228, 252)" stroke-opacity="1.0" stroke-linecap="round" stroke-linejoin="round" d="M -66.55294799804688 468.3223876953125 C 29.805278778076172 464.8014221191406 80.26322937011719 469.1058349609375 25.81192970275879 468.5232238769531 C 85.26591491699219 469.4247131347656 158.30130004882812 468.05218505859375 344.6672058105469 468.1921691894531 C 382.9775390625 475.6022033691406 206.64340209960938 473.7484436035156 21.738391876220703 474.2923583984375 C 56.32481384277344 472.60076904296875 38.89800262451172 476.61297607421875 -66.55294799804688 468.3223876953125"/>
    <path stroke-width="0" fill="rgb(21, 25, 17)" opacity="0.9194394" stroke="rgb(169, 67, 5)" stroke-opacity="1.0" stroke-linecap="round" stroke-linejoin="round" d="M 119.24398803710938 318.5641174316406 C 112.79367065429688 337.74853515625 53.528743743896484 311.1954345703125 25.883296966552734 314.91082763671875 C 116.32177734375 313.25225830078125 125.47486877441406 316.2791442871094 119.38156127929688 316.00042724609375 C 92.1955337524414 320.8094787597656 102.35189819335938 329.75701904296875 136.56170654296875 323.7392578125 C 50.48908233642578 319.2803955078125 47.323787689208984 300.1979675292969 119.24398803710938 318.5641174316406"/>
    <path stroke-width="0" fill="rgb(279, 269, 268)" opacity="1.0182747" stroke="rgb(81, 97, 150)" stroke-opacity="1.0" stroke-linecap="round" stroke-linejoin="round" d="M 131.3662567138672 324.212158203125 C 116.37313079833984 310.82159423828125 111.76860046386719 311.3768615722656 115.68756866455078 324.4288635253906 C 137.19650268554688 295.3445129394531 52.29579162597656 338.2451171875 -64.4814682006836 300.38037109375 C 206.14463806152344 300.26678466796875 246.38267517089844 299.6172790527344 188.77601623535156 300.74755859375 C 86.70512390136719 319.721435546875 119.00503540039062 307.46710205078125 131.3662567138672 324.212158203125"/>
    <path stroke-width="0" fill="rgb(51, 8, 24)" opacity="0.96750766" stroke="rgb(160, 222, 69)" stroke-opacity="1.0" stroke-linecap="round" stroke-linejoin="round" d="M 486.33233642578125 441.6597595214844 C 352.60931396484375 437.64923095703125 415.1417541503906 428.6241760253906 -155.80247497558594 437.2410583496094 C 652.5645141601562 454.4682312011719 500.1911315917969 415.7127685546875 502.65582275390625 433.4412841796875 C 275.177978515625 451.831298828125 545.736572265625 437.2350158691406 247.24710083007812 434.6947937011719 C 505.4817810058594 434.9771423339844 629.24951171875 433.4472351074219 486.33233642578125 441.6597595214844"/>
    <path stroke-width="0" fill="rgb(-10, -12, 2)" opacity="1.0004051" stroke="rgb(241, 186, 64)" stroke-opacity="1.0" stroke-linecap="round" stroke-linejoin="round" d="M 374.7171325683594 308.88592529296875 C 13.645017623901367 347.5125732421875 -164.61618041992188 328.0247802734375 15.403233528137207 316.68450927734375 C 102.52538299560547 318.0357360839844 27.450538635253906 317.1829528808594 -75.0413589477539 320.93572998046875 C -1.3048661947250366 317.52337646484375 34.21998977661133 338.5412292480469 -48.00043869018555 307.5505065917969 C -132.2846221923828 309.9167175292969 125.92381286621094 308.1269226074219 374.7171325683594 308.88592529296875"/>
    <path stroke-width="0" fill="rgb(258, 273, 271)" opacity="0.83580434" stroke="rgb(95, 118, 70)" stroke-opacity="1.0" stroke-linecap="round" stroke-linejoin="round" d="M 542.7135620117188 203.5704345703125 C 475.3642578125 163.5251007080078 506.3003234863281 192.5786895751953 498.1455993652344 210.4746551513672 C 489.7698974609375 207.68017578125 490.90106201171875 193.98971557617188 490.2448425292969 309.4256896972656 C 477.2840576171875 318.01434326171875 485.0879821777344 187.88035583496094 481.9123840332031 160.0142822265625 C 504.65087890625 214.82968139648438 472.1510314941406 214.75439453125 542.7135620117188 203.5704345703125"/>
    <path stroke-width="0" fill="rgb(40, 29, 6)" opacity="0.9545109" stroke="rgb(36, 124, 90)" stroke-opacity="1.0" stroke-linecap="round" stroke-linejoin="round" d="M 345.5140686035156 488.2273254394531 C 347.4270324707031 512.4251098632812 330.66717529296875 509.4366149902344 464.9445495605469 502.98431396484375 C 385.3421325683594 503.4586181640625 360.15606689453125 495.8377380371094 305.14471435546875 502.0180969238281 C 302.568115234375 472.0353698730469 322.3706359863281 502.3798522949219 310.05419921875 497.710693359375 C 354.4330139160156 510.9961853027344 361.1333312988281 496.5054931640625 345.5140686035156 488.2273254394531"/>
    <path stroke-width="0" fill="rgb(201, 178, 208)" opacity="0.6694731" stroke="rgb(140, 149, 245)" stroke-opacity="1.0" stroke-linecap="round" stroke-linejoin="round" d="M 81.76673126220703 384.51824951171875 C 64.22935485839844 374.57012939453125 35.406795501708984 360.13653564453125 85.54069519042969 369.84222412109375 C 126.27564239501953 359.513427734375 110.57767486572266 371.66387939453125 112.48690795898438 372.5987854003906 C 26.707910537719727 377.6356506347656 54.382537841796875 372.6673278808594 84.6602783203125 390.0064697265625 C 78.18702697753906 382.7540588378906 83.07904815673828 396.0223083496094 81.76673126220703 384.51824951171875"/>
    <path stroke-width="0" fill="rgb(70, 78, 53)" opacity="0.6344155" stroke="rgb(170, 200, 71)" stroke-opacity="1.0" stroke-linecap="round" stroke-linejoin="round" d="M 362.0658264160156 557.579345703125 C 348.3777160644531 523.8603515625 334.677734375 494.3898010253906 354.99639892578125 500.5192565917969 C 435.55096435546875 503.4327392578125 346.0350646972656 503.21661376953125 317.7203369140625 505.0386962890625 C 360.5547790527344 512.8173828125 346.4202575683594 473.0708923339844 346.6524658203125 497.5274658203125 C 333.6599426269531 516.1049194335938 357.1645202636719 534.9906616210938 362.0658264160156 557.579345703125"/>
    <path stroke-width="0" fill="rgb(27, 54, 24)" opacity="0.9097042" stroke="rgb(16, 123, 249)" stroke-opacity="1.0" stroke-linecap="round" stroke-linejoin="round" d="M 348.2866516113281 446.06170654296875 C 370.6920471191406 446.2305603027344 330.0120849609375 432.3286437988281 395.3929443359375 445.68084716796875 C 345.73199462890625 436.31805419921875 365.87628173828125 428.503173828125 359.2879638671875 449.0896911621094 C 396.5252990722656 443.11395263671875 387.7275085449219 452.341064453125 355.3104248046875 448.3270263671875 C 316.6459045410156 447.5531005859375 318.6158752441406 448.8153381347656 348.2866516113281 446.06170654296875"/>
    <path stroke-width="0" fill="rgb(23, 5, -9)" opacity="0.9963655" stroke="rgb(240, 203, 160)" stroke-opacity="1.0" stroke-linecap="round" stroke-linejoin="round" d="M -18.74485969543457 371.0618591308594 C 33.64533996582031 347.0865173339844 29.9464054107666 356.81524658203125 -0.9239935278892517 363.05718994140625 C 88.31748962402344 357.823974609375 70.81365203857422 370.24420166015625 86.41351318359375 349.46978759765625 C 59.62581253051758 385.55987548828125 77.42596435546875 342.91363525390625 -27.330718994140625 378.3695373535156 C 143.6160125732422 384.455322265625 379.6232604980469 369.64056396484375 -18.74485969543457 371.0618591308594"/>
    <path stroke-width="0" fill="rgb(18, 34, 70)" opacity="0.89886975" stroke="rgb(88, 37, 250)" stroke-opacity="1.0" stroke-linecap="round" stroke-linejoin="round" d="M 351.52349853515625 505.5184631347656 C 336.53582763671875 478.9128723144531 355.56463623046875 486.3993225097656 348.7772521972656 539.8217163085938 C 389.18426513671875 540.2278442382812 370.72650146484375 495.0155334472656 387.362060546875 506.0985107421875 C 389.1672668457031 496.88909912109375 385.1510314941406 461.4912414550781 375.8003845214844 548.44677734375 C 341.16949462890625 508.2796630859375 354.0570068359375 501.9662780761719 351.52349853515625 505.5184631347656"/>
    <path stroke-width="0" fill="rgb(6, 9, 47)" opacity="1.0656835" stroke="rgb(209, 48, 130)" stroke-opacity="1.0" stroke-linecap="round" stroke-linejoin="round" d="M 66.1742172241211 447.7673034667969 C 82.90457153320312 453.805908203125 15.939574241638184 443.0254821777344 -54.943729400634766 447.7156982421875 C 104.41482543945312 449.27880859375 107.48316955566406 447.9083557128906 99.74542236328125 449.6171569824219 C 84.20396423339844 449.6385498046875 86.40056610107422 445.81463623046875 67.75371551513672 449.3782653808594 C 65.82455444335938 411.4394226074219 77.07599639892578 456.08160400390625 66.1742172241211 447.7673034667969"/>
    <path stroke-width="0" fill="rgb(20, 1, -14)" opacity="1.0932441" stroke="rgb(185, 2, 196)" stroke-opacity="1.0" stroke-linecap="round" stroke-linejoin="round" d="M 105.5128402709961 450.840087890625 C 90.22492218017578 441.34075927734375 103.13526916503906 432.58062744140625 131.09588623046875 437.168701171875 C 137.0468292236328 457.2474365234375 121.28716278076172 443.8621520996094 -13.549201965332031 449.30145263671875 C 126.18569946289062 444.4562072753906 136.4767608642578 451.8960876464844 136.2163543701172 442.0088806152344 C 138.06088256835938 434.3737487792969 95.9582290649414 427.07440185546875 105.5128402709961 450.840087890625"/>
    <path stroke-width="0" fill="rgb(34, 34, 20)" opacity="1.1069812" stroke="rgb(20, 22, 171)" stroke-opacity="1.0" stroke-linecap="round" stroke-linejoin="round" d="M 462.7738342285156 490.8098449707031 C 441.1179504394531 491.1774597167969 469.6710205078125 523.9310913085938 499.21710205078125 493.7041015625 C 580.4883422851562 485.3356018066406 572.6693115234375 489.465576171875 137.7928466796875 490.9209899902344 C 326.931396484375 498.5381774902344 617.369384765625 483.3406982421875 450.3681945800781 502.5599365234375 C 476.42559814453125 493.856201171875 461.646240234375 508.9485168457031 462.7738342285156 490.8098449707031"/>
    <path stroke-width="0" fill="rgb(-35, -1, -12)" opacity="0.99852556" stroke="rgb(107, 142, 219)" stroke-opacity="1.0" stroke-linecap="round" stroke-linejoin="round" d="M 347.8153991699219 430.5717468261719 C 282.04559326171875 431.75115966796875 341.9228820800781 428.4740905761719 312.1628723144531 437.1853332519531 C 394.493408203125 442.16845703125 340.6059875488281 445.90179443359375 317.5444641113281 440.0494689941406 C 349.2464294433594 421.9677734375 312.3128356933594 436.739013671875 -34.06944274902344 425.10723876953125 C 751.6129760742188 421.38531494140625 728.304931640625 431.43609619140625 347.8153991699219 430.5717468261719"/>
    <path stroke-width="0" fill="rgb(7, 93, 20)" opacity="1.0390129" stroke="rgb(68, 33, 14)" stroke-opacity="1.0" stroke-linecap="round" stroke-linejoin="round" d="M 166.3157196044922 435.4959716796875 C 149.79641723632812 454.5182800292969 219.50975036621094 443.45989990234375 -61.41352844238281 447.7530822753906 C 375.5638732910156 451.4720458984375 427.6259765625 443.8141784667969 174.39744567871094 447.9388732910156 C 154.933837890625 448.055908203125 168.18577575683594 455.886474609375 166.06561279296875 434.8668518066406 C 166.2480926513672 432.0155334472656 168.42185974121094 451.0583801269531 166.3157196044922 435.4959716796875"/>
    <path stroke-width="0" fill="rgb(177, 116, 172)" opacity="0.58821696" stroke="rgb(66, 116, 174)" stroke-opacity="1.0" stroke-linecap="round" stroke-linejoin="round" d="M 237.59645080566406 369.5141296386719 C 207.0771484375 366.791259765625 194.75868225097656 362.88275146484375 235.395263671875 375.6141662597656 C 198.6945343017578 363.31109619140625 192.93048095703125 353.1067199707031 157.0397491455078 331.77752685546875 C 189.29946899414062 350.96466064453125 196.44923400878906 366.1435546875 234.9573516845703 368.45184326171875 C 57.35667037963867 374.6215515136719 86.33745574951172 362.8544921875 237.59645080566406 369.5141296386719"/>
    <path stroke-width="0" fill="rgb(14, 10, 24)" opacity="0.8639852" stroke="rgb(14, 177, 198)" stroke-opacity="1.0" stroke-linecap="round" stroke-linejoin="round" d="M 356.35687255859375 356.1326904296875 C 384.0028076171875 362.3254699707031 372.9738464355469 359.12945556640625 396.443115234375 358.1204528808594 C 418.616943359375 346.6959533691406 415.05584716796875 343.8504333496094 415.2541809082031 341.2729797363281 C 424.6376037597656 369.8996276855469 415.4055480957031 337.5227355957031 414.0253601074219 357.706787109375 C 429.4844055175781 372.25018310546875 377.6509094238281 355.6866149902344 356.35687255859375 356.1326904296875"/>
    <path stroke-width="0" fill="rgb(44, 41, 28)" opacity="0.9481764" stroke="rgb(66, 95, 149)" stroke-opacity="1.0" stroke-linecap="round" stroke-linejoin="round" d="M 427.6846618652344 522.6878051757812 C 412.2803955078125 490.97882080078125 448.81085205078125 497.0446472167969 440.67852783203125 501.8472900390625 C 438.1028137207031 500.6136779785156 403.4726867675781 497.8737487792969 338.7099304199219 498.5118713378906 C 406.61798095703125 504.9461364746094 441.262939453125 509.63555908203125 445.66180419921875 503.1215515136719 C 394.5626220703125 471.89703369140625 427.4685974121094 510.9895324707031 427.6846618652344 522.6878051757812"/>
    <path stroke-width="0" fill="rgb(50, 30, 25)" opacity="0.7885216" stroke="rgb(203, 19, 132)" stroke-opacity="1.0" stroke-linecap="round" stroke-linejoin="round" d="M 578.3280639648438 511.9272155761719 C 538.9472045898438 500.20166015625 249.22119140625 513.5585327148438 196.66629028320312 499.19091796875 C 453.39288330078125 497.67657470703125 496.27532958984375 504.8893737792969 500.52685546875 493.0385437011719 C 528.1328735351562 497.1881408691406 579.3775024414062 489.9298095703125 413.6629943847656 489.53375244140625 C 507.7317810058594 486.69403076171875 471.3588562011719 493.4318542480469 578.3280639648438 511.9272155761719"/>
    <path stroke-width="0" fill="rgb(235, 248, 248)" opacity="0.7685038" stroke="rgb(70, 32, 100)" stroke-opacity="1.0" stroke-linecap="round" stroke-linejoin="round" d="M 398.9798889160156 85.35226440429688 C 419.1620178222656 77.72211456298828 433.5755310058594 86.28543090820312 404.1077880859375 92.33549499511719 C 409.7597351074219 92.75371551513672 433.951904296875 80.24174499511719 419.025146484375 91.27616119384766 C 425.0906066894531 93.94667053222656 420.1775207519531 75.52349853515625 403.2303466796875 87.68548583984375 C 392.727294921875 96.31477355957031 393.580810546875 87.6455307006836 398.9798889160156 85.35226440429688"/>
    <path stroke-width="0" fill="rgb(34, 20, 26)" opacity="0.9492608" stroke="rgb(47, 230, 138)" stroke-opacity="1.0" stroke-linecap="round" stroke-linejoin="round" d="M 227.46014404296875 450.1414489746094 C 226.0751495361328 433.861083984375 238.92286682128906 437.9743957519531 229.94186401367188 448.57562255859375 C 429.9150390625 449.9827575683594 406.197021484375 445.70806884765625 259.08746337890625 452.1428527832031 C 257.1016845703125 419.4088134765625 279.4634094238281 456.4946594238281 242.39476013183594 448.4800109863281 C 248.782958984375 451.04595947265625 224.18690490722656 445.40130615234375 227.46014404296875 450.1414489746094"/>
    <path stroke-width="0" fill="rgb(217, 189, 206)" opacity="0.86198825" stroke="rgb(230, 175, 178)" stroke-opacity="1.0" stroke-linecap="round" stroke-linejoin="round" d="M 176.69371032714844 367.3977966308594 C 179.23695373535156 378.573974609375 232.51467895507812 361.40142822265625 259.5872497558594 362.45135498046875 C 231.69595336914062 367.52978515625 230.56521606445312 362.3702392578125 238.21270751953125 374.5882568359375 C 229.6919403076172 373.2879943847656 225.684326171875 371.2939758300781 420.59100341796875 371.5157775878906 C 116.79119873046875 358.6002502441406 315.5152587890625 384.0673828125 176.69371032714844 367.3977966308594"/>
    <path stroke-width="0" fill="rgb(237, 252, 275)" opacity="0.16525686" stroke="rgb(192, 162, 61)" stroke-opacity="1.0" stroke-linecap="round" stroke-linejoin="round" d="M 454.4526672363281 293.8498229980469 C 463.52435302734375 292.4891662597656 440.4939270019531 294.3553771972656 447.71917724609375 255.72360229492188 C 441.1278076171875 282.095458984375 448.78167724609375 288.1696472167969 458.10931396484375 290.58294677734375 C 460.62713623046875 298.42333984375 469.5877380371094 295.75830078125 451.65228271484375 328.22723388671875 C 466.369873046875 297.0391540527344 467.2882080078125 297.5643005371094 454.4526672363281 293.8498229980469"/>
    <path stroke-width="0" fill="rgb(123, 122, 148)" opacity="0.58106995" stroke="rgb(209, 231, 207)" stroke-opacity="1.0" stroke-linecap="round" stroke-linejoin="round" d="M 553.9168701171875 498.8206787109375 C 397.8832092285156 503.5029602050781 429.5954895019531 490.12982177734375 426.6226806640625 521.0455322265625 C 427.9794006347656 509.9854736328125 426.4055480957031 518.8678588867188 421.6573791503906 508.0394287109375 C 437.966796875 479.4034729003906 395.5052185058594 499.55889892578125 495.9219665527344 497.7572326660156 C 430.3835144042969 473.17852783203125 416.33807373046875 483.8516845703125 553.9168701171875 498.8206787109375"/>
    <path stroke-width="0" fill="rgb(25, 74, 99)" opacity="0.8892663" stroke="rgb(160, 101, 15)" stroke-opacity="1.0" stroke-linecap="round" stroke-linejoin="round" d="M 378.6653747558594 273.035400390625 C 482.92919921875 272.9225769042969 239.8695526123047 245.0386505126953 297.8489074707031 205.90127563476562 C 448.5375061035156 202.7698211669922 398.4360656738281 189.94711303710938 406.05389404296875 268.8623046875 C 356.968994140625 248.2485809326172 363.8104553222656 263.8501281738281 289.0733337402344 223.88389587402344 C 301.0263977050781 280.87091064453125 267.4540710449219 272.7862854003906 378.6653747558594 273.035400390625"/>
    <path stroke-width="0" fill="rgb(34, 18, 16)" opacity="0.984003" stroke="rgb(65, 216, 8)" stroke-opacity="1.0" stroke-linecap="round" stroke-linejoin="round" d="M 226.2873077392578 494.9139709472656 C 214.4778594970703 493.260986328125 120.50562286376953 489.5587463378906 -119.29571533203125 490.0688171386719 C 237.65469360351562 494.7388000488281 211.8093719482422 481.31268310546875 204.96434020996094 503.65435791015625 C 193.16307067871094 482.0614929199219 192.18968200683594 496.9863586425781 297.37774658203125 490.8358154296875 C 178.57545471191406 492.1231384277344 197.1873016357422 493.31719970703125 226.2873077392578 494.9139709472656"/>
    <path stroke-width="0" fill="rgb(17, 52, 51)" opacity="0.7999757" stroke="rgb(90, 90, 4)" stroke-opacity="1.0" stroke-linecap="round" stroke-linejoin="round" d="M 279.195556640625 439.2636413574219 C 278.5697937011719 432.2037048339844 278.7806701660156 439.23089599609375 289.1173095703125 435.97857666015625 C 300.9564208984375 449.9919738769531 286.09869384765625 439.68096923828125 289.8279724121094 430.8890075683594 C 294.30364990234375 466.4963684082031 362.9400939941406 440.2223205566406 281.556640625 449.2798156738281 C 301.1568908691406 439.6430358886719 302.0836181640625 443.6647644042969 279.195556640625 439.2636413574219"/>
    <path stroke-width="0" fill="rgb(35, 25, 0)" opacity="0.75892514" stroke="rgb(102, 236, 25)" stroke-opacity="1.0" stroke-linecap="round" stroke-linejoin="round" d="M -26.6379337310791 436.4050598144531 C 57.76645278930664 450.2718505859375 25.462997436523438 433.95892333984375 -7.6228251457214355 439.79498291015625 C 126.32112884521484 441.35992431640625 154.15902709960938 421.5864562988281 -73.98971557617188 428.2470397949219 C 150.33535766601562 434.40130615234375 108.70445251464844 421.3470764160156 82.05462646484375 440.7530212402344 C 45.408287048339844 444.3661804199219 26.40122413635254 438.7608947753906 -26.6379337310791 436.4050598144531"/>
    <path stroke-width="0" fill="rgb(95, 85, 61)" opacity="0.9416839" stroke="rgb(221, 115, 83)" stroke-opacity="1.0" stroke-linecap="round" stroke-linejoin="round" d="M 558.57568359375 364.98309326171875 C 452.2816162109375 347.6912841796875 433.13897705078125 368.3147277832031 453.5928955078125 359.5309143066406 C 475.94647216796875 359.15338134765625 467.620849609375 356.4390869140625 468.1672668457031 360.35906982421875 C 479.3909606933594 356.74639892578125 427.99981689453125 355.6199951171875 115.60848236083984 358.0790710449219 C 402.3674011230469 365.108154296875 490.5655517578125 356.42181396484375 558.57568359375 364.98309326171875"/>
    <path stroke-width="0" fill="rgb(31, 29, 90)" opacity="0.619292" stroke="rgb(33, 3, 29)" stroke-opacity="1.0" stroke-linecap="round" stroke-linejoin="round" d="M 434.44122314453125 508.7375183105469 C 454.8201599121094 491.7526550292969 453.27001953125 513.5029907226562 452.2962646484375 521.6043090820312 C 440.2973327636719 490.1435241699219 473.7777099609375 513.0158081054688 459.0611267089844 489.63531494140625 C 442.4311218261719 540.6759033203125 478.3948059082031 525.9705200195312 450.8489990234375 526.130859375 C 446.7232666015625 503.9762878417969 452.01910400390625 492.18212890625 434.44122314453125 508.7375183105469"/>
    <path stroke-width="0" fill="rgb(107, 111, 141)" opacity="0.31183276" stroke="rgb(162, 125, 252)" stroke-opacity="1.0" stroke-linecap="round" stroke-linejoin="round" d="M 233.43955993652344 118.02230072021484 C 242.8328857421875 94.47184753417969 240.08529663085938 99.38941192626953 233.78208923339844 103.93956756591797 C 231.11094665527344 105.66780090332031 233.5379638671875 102.42095184326172 234.22642517089844 103.9466552734375 C 237.3359375 103.93965911865234 244.62112426757812 92.18853759765625 249.86474609375 75.2464828491211 C 245.87826538085938 89.53276062011719 239.18894958496094 101.7803726196289 233.43955993652344 118.02230072021484"/>
    <path stroke-width="0" fill="rgb(33, 44, 24)" opacity="0.8597805" stroke="rgb(199, 73, 61)" stroke-opacity="1.0" stroke-linecap="round" stroke-linejoin="round" d="M 417.11810302734375 440.0318908691406 C 344.9213562011719 431.415283203125 385.5500183105469 465.3940124511719 620.4913330078125 438.2018127441406 C 296.0650329589844 469.60296630859375 492.172607421875 418.85784912109375 369.3595275878906 449.61724853515625 C 453.5627746582031 448.8575439453125 392.40850830078125 454.9212646484375 440.9645080566406 438.84246826171875 C 312.0460510253906 450.7913818359375 365.0140686035156 431.7642822265625 417.11810302734375 440.0318908691406"/>
    <path stroke-width="0" fill="rgb(39, -7, -4)" opacity="0.82893157" stroke="rgb(62, 169, 131)" stroke-opacity="1.0" stroke-linecap="round" stroke-linejoin="round" d="M -23.714799880981445 367.2933349609375 C 10.783781051635742 441.6786193847656 -12.185037612915039 457.9698486328125 -49.82958221435547 438.5033874511719 C 30.018352508544922 430.3023986816406 42.728485107421875 428.2430725097656 41.63056564331055 451.3490295410156 C 24.13848304748535 437.7226867675781 60.567291259765625 428.646240234375 -1.244362473487854 432.05322265625 C 27.331649780273438 464.1806335449219 -0.95610511302948 461.46875 -23.714799880981445 367.2933349609375"/>
    <path stroke-width="0" fill="rgb(57, 31, 23)" opacity="0.81102586" stroke="rgb(141, 73, 180)" stroke-opacity="1.0" stroke-linecap="round" stroke-linejoin="round" d="M 373.7315368652344 450.5831604003906 C 357.02935791015625 454.8935546875 356.3157653808594 437.6747131347656 357.4084777832031 434.9687805175781 C 362.2903747558594 463.3293762207031 329.01544189453125 443.8385314941406 357.2027282714844 449.2083740234375 C 357.6106872558594 449.22900390625 340.9444274902344 429.0215759277344 396.18994140625 438.7543640136719 C 353.3093566894531 434.5470275878906 346.9127197265625 456.6151428222656 373.7315368652344 450.5831604003906"/>
    <path stroke-width="0" fill="rgb(223, 212, 244)" opacity="0.84713966" stroke="rgb(247, 230, 75)" stroke-opacity="1.0" stroke-linecap="round" stroke-linejoin="round" d="M 466.8338317871094 368.2781677246094 C 412.6414489746094 366.1871337890625 349.45208740234375 372.2109375 460.0732116699219 372.343994140625 C 455.0558776855469 361.76434326171875 461.32550048828125 363.0409240722656 467.6827392578125 372.4504089355469 C 523.522216796875 377.12127685546875 592.31396484375 365.8047180175781 466.0228576660156 366.6910705566406 C 469.4403076171875 378.0690612792969 474.36712646484375 381.3742370605469 466.8338317871094 368.2781677246094"/>
    <path stroke-width="0" fill="rgb(107, 111, 127)" opacity="0.3141245" stroke="rgb(63, 27, 242)" stroke-opacity="1.0" stroke-linecap="round" stroke-linejoin="round" d="M 211.81773376464844 112.2845458984375 C 198.1146697998047 100.1326675415039 187.67691040039062 90.4062271118164 185.79653930664062 96.8513412475586 C 194.33494567871094 85.75548553466797 193.51329040527344 98.73526763916016 188.6630096435547 92.25345611572266 C 200.96754455566406 107.245849609375 204.5150909423828 98.26759338378906 196.96949768066406 109.63349151611328 C 202.09654235839844 96.1781005859375 203.065185546875 105.2225112915039 211.81773376464844 112.2845458984375"/>
    <path stroke-width="0" fill="rgb(212, 229, 213)" opacity="0.6419735" stroke="rgb(69, 96, 95)" stroke-opacity="1.0" stroke-linecap="round" stroke-linejoin="round" d="M 328.0229187011719 74.44450378417969 C 355.18170166015625 84.3570556640625 296.0658874511719 61.758358001708984 369.51409912109375 93.03699493408203 C 385.2969055175781 88.3056869506836 360.24053955078125 96.59854125976562 355.69500732421875 93.9718017578125 C 281.6139221191406 96.29560852050781 250.12278747558594 90.5910873413086 361.60296630859375 99.83727264404297 C 374.19671630859375 91.42948150634766 356.2190246582031 87.87489318847656 328.0229187011719 74.44450378417969"/>
    <path stroke-width="0" fill="rgb(-20, -17, 11)" opacity="0.33355957" stroke="rgb(213, 60, 128)" stroke-opacity="1.0" stroke-linecap="round" stroke-linejoin="round" d="M 320.32867431640625 161.95999145507812 C 328.62396240234375 113.50170135498047 316.8476867675781 130.5590057373047 315.1714782714844 127.40455627441406 C 327.7597961425781 123.04795837402344 321.15863037109375 126.48087310791016 320.7725524902344 127.48553466796875 C 322.5311584472656 122.62619018554688 325.7859191894531 141.74075317382812 318.44085693359375 161.9266815185547 C 319.439453125 140.78443908691406 321.13720703125 140.37875366210938 320.32867431640625 161.95999145507812"/>
    <path stroke-width="0" fill="rgb(50, 44, 46)" opacity="0.49049264" stroke="rgb(161, 221, 239)" stroke-opacity="1.0" stroke-linecap="round" stroke-linejoin="round" d="M 147.6168670654297 450.4471740722656 C 228.10975646972656 429.53265380859375 226.38677978515625 418.441650390625 229.59593200683594 441.9523010253906 C 247.12753295898438 434.8515930175781 253.3623504638672 433.1317138671875 237.56028747558594 439.6185607910156 C 212.44158935546875 448.0968322753906 241.10194396972656 454.784423828125 226.5249786376953 438.9443359375 C 224.71682739257812 418.4107360839844 224.59738159179688 431.7079772949219 147.6168670654297 450.4471740722656"/>
    <path stroke-width="0" fill="rgb(-10, 29, 17)" opacity="0.55421084" stroke="rgb(228, 103, 140)" stroke-opacity="1.0" stroke-linecap="round" stroke-linejoin="round" d="M 220.29942321777344 430.32427978515625 C 11.529728889465332 420.2597351074219 -87.7469482421875 431.2867736816406 147.7432861328125 428.9037170410156 C 180.68934631347656 432.4505310058594 154.03709411621094 421.43109130859375 166.06100463867188 452.0005187988281 C 163.5337371826172 428.3668212890625 175.12921142578125 437.933349609375 156.560791015625 437.7288818359375 C 182.35873413085938 428.08428955078125 125.3807373046875 431.8793029785156 220.29942321777344 430.32427978515625"/>
    <path stroke-width="0" fill="rgb(262, 273, 254)" opacity="0.6370097" stroke="rgb(116, 102, 63)" stroke-opacity="1.0" stroke-linecap="round" stroke-linejoin="round" d="M 459.4345703125 111.80653381347656 C 449.5498962402344 120.72935485839844 457.6560363769531 117.2585678100586 475.1776123046875 116.11375427246094 C 447.5457763671875 125.59232330322266 453.64544677734375 108.53301239013672 479.4222717285156 118.02098846435547 C 473.23077392578125 112.51043701171875 461.7027587890625 104.20967102050781 441.0054931640625 111.53972625732422 C 498.5077819824219 123.53459930419922 508.5499267578125 129.06581115722656 459.4345703125 111.80653381347656"/>
    <path stroke-width="0" fill="rgb(138, 145, 126)" opacity="0.028377566" stroke="rgb(85, 235, 219)" stroke-opacity="1.0" stroke-linecap="round" stroke-linejoin="round" d="M 463.42596435546875 152.13958740234375 C 469.7615661621094 111.04325103759766 451.48486328125 127.10517883300781 444.1703186035156 114.77703857421875 C 434.426025390625 112.69450378417969 428.7207336425781 118.24317932128906 425.12200927734375 116.05108642578125 C 440.764404296875 111.0743179321289 436.08026123046875 119.27301788330078 458.41143798828125 120.65089416503906 C 456.1501159667969 120.60972595214844 467.5155334472656 126.29853057861328 463.42596435546875 152.13958740234375"/>
    <path stroke-width="0" fill="rgb(229, 262, 242)" opacity="0.71277267" stroke="rgb(64, 113, 26)" stroke-opacity="1.0" stroke-linecap="round" stroke-linejoin="round" d="M 477.7347717285156 88.29432678222656 C 458.6768493652344 82.14388275146484 477.7538146972656 101.37258911132812 485.8415832519531 90.38007354736328 C 448.38458251953125 79.66161346435547 440.3450927734375 64.00879669189453 449.0649719238281 90.7710952758789 C 491.12823486328125 101.52855682373047 495.4627990722656 93.94430541992188 479.8861389160156 81.06539916992188 C 459.570556640625 89.84181213378906 480.9560241699219 99.45624542236328 477.7347717285156 88.29432678222656"/>
    <path stroke-width="0" fill="rgb(201, 219, 191)" opacity="0.8053637" stroke="rgb(0, 0, 0)" stroke-opacity="0.0" stroke-linecap="round" stroke-linejoin="round" d="M 277.3440246582031 17.00702476501465 C 276.2818603515625 23.219470977783203 272.2996520996094 25.664690017700195 267.6963195800781 27.616512298583984 C 262.6937255859375 27.67685890197754 256.75543212890625 22.982101440429688 256.48248291015625 18.142398834228516 C 255.85076904296875 11.064821243286133 260.6811218261719 11.06163501739502 266.3863830566406 9.388023376464844 C 272.43927001953125 9.836409568786621 275.9169921875 12.732394218444824 277.3440246582031 17.00702476501465"/>
    <path stroke-width="0" fill="rgb(210, 148, 201)" opacity="0.38499892" stroke="rgb(0, 0, 0)" stroke-opacity="0.0" stroke-linecap="round" stroke-linejoin="round" d="M 8.454583168029785 6.048461437225342 C 2.7980635166168213 8.311614036560059 2.3548622131347656 12.627881050109863 1.4968758821487427 22.568010330200195 C -7.296942710876465 19.24114990234375 -6.961208343505859 12.334836959838867 -7.640139102935791 7.582670211791992 C -6.561120986938477 3.567819595336914 -3.6331968307495117 0.6381251215934753 -0.9902448654174805 1.29533052444458 C 4.279392719268799 1.2183760404586792 8.933378219604492 3.298765182495117 8.454583168029785 6.048461437225342"/>
    <path stroke-width="0" fill="rgb(152, 136, 177)" opacity="0.76075613" stroke="rgb(0, 0, 0)" stroke-opacity="0.0" stroke-linecap="round" stroke-linejoin="round" d="M 18.83736801147461 9.295312881469727 C 22.250652313232422 11.161664009094238 20.182262420654297 14.312616348266602 19.545846939086914 15.274130821228027 C 15.545848846435547 14.82120418548584 11.232192993164062 11.707642555236816 13.829675674438477 12.882893562316895 C 17.651762008666992 10.83332347869873 16.722932815551758 4.527502059936523 18.350196838378906 0.9296079874038696 C 22.1743221282959 2.366954803466797 21.425434112548828 5.661402702331543 18.83736801147461 9.295312881469727"/>
    <path stroke-width="0" fill="rgb(165, 149, 114)" opacity="0.34945595" stroke="rgb(0, 0, 0)" stroke-opacity="0.0" stroke-linecap="round" stroke-linejoin="round" d="M 102.85774993896484 1.7869253158569336 C 101.58387756347656 4.867225170135498 96.2490463256836 2.3231935501098633 98.43546295166016 12.362832069396973 C 99.65128326416016 10.177327156066895 97.55984497070312 5.934854984283447 93.25396728515625 2.622188091278076 C 94.0357666015625 -2.607572317123413 96.21161651611328 -4.565952301025391 99.91978454589844 -4.5782151222229 C 103.35161590576172 -3.9370882511138916 103.3870620727539 -2.806969165802002 102.85774993896484 1.7869253158569336"/>
    <path stroke-width="0" fill="rgb(83, 109, 154)" opacity="0.14942977" stroke="rgb(0, 0, 0)" stroke-opacity="0.0" stroke-linecap="round" stroke-linejoin="round" d="M 172.51979064941406 16.056415557861328 C 173.2395782470703 22.774032592773438 170.16709899902344 25.471569061279297 169.72842407226562 21.304126739501953 C 164.19992065429688 19.5479679107666 160.653564453125 18.763347625732422 163.44847106933594 19.847291946411133 C 164.50439453125 8.408234596252441 162.35166931152344 6.827230453491211 163.2808380126953 7.747058868408203 C 164.9683074951172 13.512553215026855 167.3570098876953 17.81414031982422 172.51979064941406 16.056415557861328"/>
    <path stroke-width="0" fill="rgb(130, 150, 150)" opacity="0.8148032" stroke="rgb(0, 0, 0)" stroke-opacity="0.0" stroke-linecap="round" stroke-linejoin="round" d="M 20.61899757385254 11.336323738098145 C 22.029722213745117 17.503190994262695 19.14712905883789 18.876094818115234 20.416648864746094 17.919254302978516 C 13.732407569885254 15.735901832580566 7.5358052253723145 12.987824440002441 2.5619451999664307 13.594507217407227 C -0.08558716624975204 4.351008892059326 5.795050621032715 4.0995330810546875 16.88865852355957 2.326219081878662 C 25.421777725219727 1.9603509902954102 25.5100154876709 1.7052794694900513 20.61899757385254 11.336323738098145"/>
    <path stroke-width="0" fill="rgb(146, 100, 93)" opacity="0.23356353" stroke="rgb(0, 0, 0)" stroke-opacity="0.0" stroke-linecap="round" stroke-linejoin="round" d="M 17.35191535949707 4.9867377281188965 C 11.112150192260742 6.038333415985107 4.779879570007324 6.994958400726318 2.6223506927490234 9.908674240112305 C 3.846635580062866 12.144020080566406 2.214113235473633 6.61352014541626 0.6099970936775208 2.0140624046325684 C -1.1249321699142456 -0.06834173202514648 1.6609697341918945 -2.645500659942627 5.526231288909912 -3.2994964122772217 C 10.124789237976074 -2.533625364303589 13.54709529876709 -0.07763950526714325 17.35191535949707 4.9867377281188965"/>
    <path stroke-width="0" fill="rgb(227, 223, 190)" opacity="0.5502778" stroke="rgb(0, 0, 0)" stroke-opacity="0.0" stroke-linecap="round" stroke-linejoin="round" d="M 347.3848571777344 41.98632049560547 C 347.30133056640625 44.28911590576172 341.9692687988281 46.42973327636719 340.72412109375 48.21743392944336 C 338.2358703613281 49.92397689819336 333.7106628417969 46.731319427490234 331.834716796875 40.995052337646484 C 331.0143737792969 37.12531280517578 335.34454345703125 34.566184997558594 341.5585632324219 32.858680725097656 C 345.15380859375 35.16411590576172 347.3481140136719 39.28629684448242 347.3848571777344 41.98632049560547"/>
    <path stroke-width="0" fill="rgb(129, 151, 94)" opacity="0.06347237" stroke="rgb(0, 0, 0)" stroke-opacity="0.0" stroke-linecap="round" stroke-linejoin="round" d="M 329.6732177734375 268.7121276855469 C 324.2116394042969 274.2373046875 321.59210205078125 278.23175048828125 320.907958984375 275.9708251953125 C 320.09344482421875 271.70111083984375 316.8224792480469 269.36285400390625 307.898193359375 269.27032470703125 C 311.7727966308594 268.90362548828125 317.127197265625 267.66143798828125 318.9908447265625 266.1443786621094 C 322.0640869140625 265.677978515625 326.7799377441406 267.135498046875 329.6732177734375 268.7121276855469"/>
    <path stroke-width="0" fill="rgb(188, 191, 163)" opacity="0.8542897" stroke="rgb(0, 0, 0)" stroke-opacity="0.0" stroke-linecap="round" stroke-linejoin="round" d="M 173.8533935546875 37.8522834777832 C 171.6150360107422 42.30784606933594 169.12123107910156 46.83502197265625 163.97732543945312 46.8052864074707 C 158.19752502441406 47.02348327636719 156.98532104492188 43.990699768066406 157.59744262695312 39.08370590209961 C 158.140869140625 35.18279266357422 161.42715454101562 29.253509521484375 163.7897491455078 29.21906280517578 C 169.4442901611328 29.23404312133789 172.86607360839844 33.33340072631836 173.8533935546875 37.8522834777832"/>
    <path stroke-width="0" fill="rgb(100, 88, 179)" opacity="-0.0109297475" stroke="rgb(0, 0, 0)" stroke-opacity="0.0" stroke-linecap="round" stroke-linejoin="round" d="M 401.1726989746094 135.20689392089844 C 398.6078796386719 139.13197326660156 394.7633056640625 141.00892639160156 393.24542236328125 143.57498168945312 C 392.0050964355469 140.02777099609375 389.34027099609375 136.5630645751953 388.4117126464844 134.61805725097656 C 385.4870300292969 131.2797088623047 387.2851257324219 127.74773406982422 393.77587890625 125.1344223022461 C 396.401611328125 129.97059631347656 399.6837158203125 132.66358947753906 401.1726989746094 135.20689392089844"/>
    <path stroke-width="0" fill="rgb(206, 160, 230)" opacity="0.7487223" stroke="rgb(0, 0, 0)" stroke-opacity="0.0" stroke-linecap="round" stroke-linejoin="round" d="M -60.74114227294922 30.83562660217285 C -61.81293869018555 34.835628509521484 -64.74114227294922 37.763832092285156 -68.74114227294922 38.835628509521484 C -72.74114227294922 37.763832092285156 -75.66934967041016 34.835628509521484 -76.74114227294922 30.83562660217285 C -75.66934967041016 26.83562660217285 -72.74114227294922 23.907424926757812 -68.74114227294922 22.83562660217285 C -64.74114227294922 23.907424926757812 -61.81293869018555 26.83562660217285 -60.74114227294922 30.83562660217285"/>
    <path stroke-width="0" fill="rgb(99, 65, 218)" opacity="-0.012923103" stroke="rgb(0, 0, 0)" stroke-opacity="0.0" stroke-linecap="round" stroke-linejoin="round" d="M 436.9660949707031 139.0047149658203 C 429.9129333496094 141.5378875732422 427.36590576171875 145.99891662597656 431.87432861328125 144.0717010498047 C 429.6335754394531 143.5447235107422 426.6269836425781 140.08279418945312 423.33526611328125 138.76858520507812 C 422.76214599609375 139.99717712402344 426.5336608886719 137.5382843017578 428.5262756347656 135.63027954101562 C 431.8805236816406 136.0729522705078 435.4098815917969 138.30584716796875 436.9660949707031 139.0047149658203"/>
    <path stroke-width="0" fill="rgb(25, 174, 203)" opacity="0.5844723" stroke="rgb(0, 0, 0)" stroke-opacity="0.0" stroke-linecap="round" stroke-linejoin="round" d="M 175.30215454101562 258.58233642578125 C 178.30020141601562 270.3741760253906 176.53958129882812 272.5450744628906 168.6303253173828 267.5127258300781 C 157.835205078125 269.02362060546875 155.2904815673828 266.76141357421875 158.82652282714844 259.6837463378906 C 159.17495727539062 248.0745849609375 157.9517822265625 247.5549774169922 163.55551147460938 250.61219787597656 C 173.6237335205078 248.99819946289062 175.77932739257812 249.97691345214844 175.30215454101562 258.58233642578125"/>
    <path stroke-width="0" fill="rgb(198, 165, 95)" opacity="0.03713975" stroke="rgb(0, 0, 0)" stroke-opacity="0.0" stroke-linecap="round" stroke-linejoin="round" d="M 499.341064453125 491.7563781738281 C 495.5103759765625 493.1811828613281 490.7666320800781 494.6304626464844 486.5107116699219 496.0411376953125 C 484.2662048339844 497.4451904296875 481.89678955078125 495.0659484863281 482.21099853515625 492.273193359375 C 484.43841552734375 487.92578125 485.74346923828125 483.31689453125 489.2269592285156 479.3503112792969 C 496.43450927734375 480.38946533203125 499.0570068359375 483.76458740234375 499.341064453125 491.7563781738281"/>
    <path stroke-width="0" fill="rgb(88, 73, 179)" opacity="0.6140529" stroke="rgb(0, 0, 0)" stroke-opacity="0.0" stroke-linecap="round" stroke-linejoin="round" d="M 516.9115600585938 419.6625671386719 C 515.3763427734375 424.93145751953125 511.8179016113281 426.3477478027344 502.922119140625 424.5541687011719 C 497.779052734375 426.8376770019531 494.7190856933594 426.30035400390625 496.06109619140625 419.4631652832031 C 505.94281005859375 422.9293212890625 507.6114807128906 418.93212890625 507.8525390625 411.7041015625 C 510.4598388671875 412.1528625488281 514.5733032226562 414.10443115234375 516.9115600585938 419.6625671386719"/>
    <path stroke-width="0" fill="rgb(101, 132, 97)" opacity="0.17193215" stroke="rgb(0, 0, 0)" stroke-opacity="0.0" stroke-linecap="round" stroke-linejoin="round" d="M 94.4263916015625 66.40560150146484 C 97.15055847167969 69.54485321044922 93.09268188476562 68.9569320678711 91.67109680175781 68.17357635498047 C 88.8855972290039 68.4220199584961 85.94425201416016 66.16097259521484 86.61976623535156 64.36030578613281 C 84.49806213378906 59.21902847290039 84.33763122558594 55.4207763671875 88.3850326538086 56.239715576171875 C 96.79312133789062 54.7412223815918 95.7425765991211 55.630516052246094 94.4263916015625 66.40560150146484"/>
    <path stroke-width="0" fill="rgb(95, 119, 125)" opacity="0.88292074" stroke="rgb(0, 0, 0)" stroke-opacity="0.0" stroke-linecap="round" stroke-linejoin="round" d="M 451.5672302246094 431.80010986328125 C 448.6922302246094 435.726806640625 445.25286865234375 438.77655029296875 441.6151428222656 440.9737243652344 C 437.06512451171875 439.9161376953125 434.0130920410156 435.8085021972656 432.15899658203125 432.4179382324219 C 435.0124206542969 429.59637451171875 438.99896240234375 426.64202880859375 438.4413146972656 429.25299072265625 C 442.0303649902344 428.4923400878906 448.58538818359375 429.5731201171875 451.5672302246094 431.80010986328125"/>
    <path stroke-width="0" fill="rgb(61, 79, 147)" opacity="0.5845255" stroke="rgb(0, 0, 0)" stroke-opacity="0.0" stroke-linecap="round" stroke-linejoin="round" d="M 364.07470703125 498.1875305175781 C 360.71142578125 496.9365234375 355.40399169921875 498.1427307128906 353.245361328125 500.3294677734375 C 350.8714904785156 505.03948974609375 351.0486755371094 502.3169860839844 353.29644775390625 497.9480285644531 C 353.10137939453125 491.76580810546875 353.67669677734375 488.7200622558594 350.70355224609375 492.9639587402344 C 354.6109619140625 497.0513916015625 361.718505859375 496.5652770996094 364.07470703125 498.1875305175781"/>
    <path stroke-width="0" fill="rgb(105, 45, 92)" opacity="0.18657099" stroke="rgb(0, 0, 0)" stroke-opacity="0.0" stroke-linecap="round" stroke-linejoin="round" d="M 318.4451599121094 106.12201690673828 C 316.4208068847656 110.543212890625 313.699951171875 113.5737533569336 314.64422607421875 112.52687072753906 C 311.21832275390625 113.92069244384766 304.3782653808594 113.96310424804688 301.2974548339844 108.60208892822266 C 304.45947265625 105.03663635253906 310.6599426269531 102.85607147216797 313.7088928222656 106.087890625 C 318.4100036621094 101.6394271850586 321.6118469238281 102.20423889160156 318.4451599121094 106.12201690673828"/>
    <path stroke-width="0" fill="rgb(109, 199, 211)" opacity="0.027982306" stroke="rgb(0, 0, 0)" stroke-opacity="0.0" stroke-linecap="round" stroke-linejoin="round" d="M 485.59747314453125 92.07080078125 C 481.9203186035156 94.92952728271484 478.4518737792969 97.35822296142578 478.4053649902344 99.9143295288086 C 471.7787780761719 99.30626678466797 467.08306884765625 97.58280181884766 470.76544189453125 95.78178405761719 C 473.4734802246094 91.99114227294922 474.44842529296875 86.57340240478516 475.857177734375 85.16238403320312 C 477.98492431640625 86.01717376708984 481.0962829589844 91.09412384033203 485.59747314453125 92.07080078125"/>
    <path stroke-width="0" fill="rgb(38, 13, 57)" opacity="0.4542323" stroke="rgb(0, 0, 0)" stroke-opacity="0.0" stroke-linecap="round" stroke-linejoin="round" d="M -27.041536331176758 30.428306579589844 C -28.113332748413086 34.428306579589844 -31.041536331176758 37.356510162353516 -35.041534423828125 38.428306579589844 C -39.041534423828125 37.356510162353516 -41.9697380065918 34.428306579589844 -43.041534423828125 30.428306579589844 C -41.9697380065918 26.428306579589844 -39.041534423828125 23.500104904174805 -35.041534423828125 22.428306579589844 C -31.041536331176758 23.500104904174805 -28.113332748413086 26.428306579589844 -27.041536331176758 30.428306579589844"/>
    <path stroke-width="0" fill="rgb(251, 118, 233)" opacity="0.33664012" stroke="rgb(0, 0, 0)" stroke-opacity="0.0" stroke-linecap="round" stroke-linejoin="round" d="M -70.7625961303711 47.9467658996582 C -71.83438873291016 51.9467658996582 -74.7625961303711 54.874969482421875 -78.7625961303711 55.9467658996582 C -82.7625961303711 54.874969482421875 -85.6907958984375 51.9467658996582 -86.7625961303711 47.9467658996582 C -85.6907958984375 43.9467658996582 -82.7625961303711 41.01856231689453 -78.7625961303711 39.9467658996582 C -74.7625961303711 41.01856231689453 -71.83438873291016 43.9467658996582 -70.7625961303711 47.9467658996582"/>
    <path stroke-width="0" fill="rgb(247, 253, 254)" opacity="0.38883752" stroke="rgb(0, 0, 0)" stroke-opacity="0.0" stroke-linecap="round" stroke-linejoin="round" d="M 210.85580444335938 303.1180419921875 C 207.3226318359375 306.76751708984375 204.61514282226562 310.5985412597656 203.66244506835938 309.9912109375 C 198.44102478027344 311.3154602050781 194.70272827148438 310.88739013671875 190.7030487060547 307.5859680175781 C 195.98037719726562 302.3247375488281 199.83538818359375 299.40380859375 205.583251953125 297.4598693847656 C 209.7637481689453 297.35784912109375 213.30882263183594 299.5121154785156 210.85580444335938 303.1180419921875"/>
    <path stroke-width="0" fill="rgb(133, 55, 151)" opacity="0.107370764" stroke="rgb(0, 0, 0)" stroke-opacity="0.0" stroke-linecap="round" stroke-linejoin="round" d="M 183.71543884277344 203.803466796875 C 187.40838623046875 206.39178466796875 183.1836700439453 205.73008728027344 177.20530700683594 205.47193908691406 C 174.73385620117188 204.30235290527344 171.1432647705078 203.39369201660156 174.1107635498047 201.42706298828125 C 177.22357177734375 203.04641723632812 180.36216735839844 200.8264923095703 177.9408416748047 195.87808227539062 C 176.9740447998047 197.28787231445312 180.1798553466797 199.80020141601562 183.71543884277344 203.803466796875"/>
    <path stroke-width="0" fill="rgb(43, 213, 53)" opacity="0.15072718" stroke="rgb(0, 0, 0)" stroke-opacity="0.0" stroke-linecap="round" stroke-linejoin="round" d="M 162.5181121826172 62.65805435180664 C 167.84669494628906 62.92647171020508 165.0060577392578 62.53321838378906 157.8991241455078 62.331031799316406 C 155.4877471923828 64.25945281982422 154.26516723632812 61.76833724975586 156.56016540527344 61.76068115234375 C 160.99754333496094 62.459129333496094 162.7275848388672 59.42693328857422 161.19993591308594 51.760215759277344 C 160.1203155517578 51.12938690185547 160.54776000976562 56.76180648803711 162.5181121826172 62.65805435180664"/>
    <path stroke-width="0" fill="rgb(192, 167, 190)" opacity="0.3498382" stroke="rgb(0, 0, 0)" stroke-opacity="0.0" stroke-linecap="round" stroke-linejoin="round" d="M 422.5513000488281 389.1953430175781 C 423.86669921875 396.5007019042969 423.8297119140625 398.2325744628906 415.127197265625 397.3376159667969 C 410.8582763671875 395.5078125 409.85369873046875 390.1702575683594 405.1275634765625 383.55157470703125 C 405.9167175292969 383.5240783691406 414.5652770996094 383.412841796875 417.212890625 380.23577880859375 C 419.5508728027344 380.0231628417969 422.6614074707031 382.6723937988281 422.5513000488281 389.1953430175781"/>
    <path stroke-width="0" fill="rgb(68, 26, 26)" opacity="0.5089746" stroke="rgb(0, 0, 0)" stroke-opacity="0.0" stroke-linecap="round" stroke-linejoin="round" d="M 25.32370948791504 493.18707275390625 C 24.392736434936523 498.6786193847656 25.05577278137207 504.9580383300781 19.240726470947266 509.18292236328125 C 18.54026985168457 505.3724060058594 15.999542236328125 499.88427734375 15.324801445007324 494.947265625 C 13.620271682739258 489.6572265625 13.241848945617676 488.5102844238281 21.10114288330078 490.086669921875 C 28.907426834106445 488.83001708984375 30.056072235107422 488.69403076171875 25.32370948791504 493.18707275390625"/>
    <path stroke-width="0" fill="rgb(195, 200, 85)" opacity="0.4796446" stroke="rgb(0, 0, 0)" stroke-opacity="0.0" stroke-linecap="round" stroke-linejoin="round" d="M 17.115018844604492 6.881217002868652 C 16.152111053466797 7.322708606719971 9.943212509155273 8.024327278137207 1.8768820762634277 7.162982940673828 C 4.004473686218262 11.20520305633545 1.635396957397461 7.403805255889893 0.5239101052284241 5.950101375579834 C 3.5400428771972656 2.5477287769317627 5.83341121673584 -1.0583566427230835 10.275609970092773 -5.275084972381592 C 14.154640197753906 -5.301632404327393 15.089210510253906 -0.48647046089172363 17.115018844604492 6.881217002868652"/>
    <path stroke-width="0" fill="rgb(112, 213, 199)" opacity="-0.007539153" stroke="rgb(0, 0, 0)" stroke-opacity="0.0" stroke-linecap="round" stroke-linejoin="round" d="M 6.381885528564453 -0.9487369656562805 C 6.537208080291748 3.8431589603424072 5.215143203735352 7.911344051361084 2.0679123401641846 7.910055637359619 C -1.9839916229248047 4.882562160491943 -5.588017463684082 3.249608039855957 -6.835618019104004 -0.2902533710002899 C -5.775409698486328 -4.253812313079834 -2.8472065925598145 -7.182015895843506 1.1527934074401855 -8.253812789916992 C 5.1527323722839355 -7.181992530822754 8.076669692993164 -4.252244472503662 6.381885528564453 -0.9487369656562805"/>
    <path stroke-width="0" fill="rgb(129, 131, 191)" opacity="0.42095444" stroke="rgb(0, 0, 0)" stroke-opacity="0.0" stroke-linecap="round" stroke-linejoin="round" d="M 13.294093132019043 91.11856079101562 C 13.933660507202148 94.76136016845703 12.776554107666016 94.01898956298828 6.569589614868164 94.32160949707031 C -1.1030125617980957 96.22181701660156 -4.505204200744629 95.591552734375 0.4481540024280548 92.30296325683594 C 1.2755345106124878 85.78981018066406 3.8473448753356934 83.84873962402344 8.414469718933105 85.27677154541016 C 13.7208890914917 83.69845581054688 16.751731872558594 84.4674072265625 13.294093132019043 91.11856079101562"/>
    <path stroke-width="0" fill="rgb(85, 101, 54)" opacity="0.45784608" stroke="rgb(0, 0, 0)" stroke-opacity="0.0" stroke-linecap="round" stroke-linejoin="round" d="M 59.62043762207031 388.08892822265625 C 61.51856231689453 397.0174255371094 62.4681510925293 399.8886413574219 50.397186279296875 400.4267883300781 C 52.509254455566406 389.0047302246094 53.36285400390625 385.4394226074219 46.80107879638672 384.4456481933594 C 41.80044937133789 381.4085693359375 45.12455749511719 379.5383605957031 55.83017349243164 380.12799072265625 C 59.839454650878906 377.3586730957031 60.37947082519531 379.961181640625 59.62043762207031 388.08892822265625"/>
  </g>
</svg>
