<?xml version="1.0" ?>
<svg xmlns="http://www.w3.org/2000/svg" version="1.1" width="512" height="512">
  <defs/>
  <g>
    <path stroke-width="0" fill="rgb(-30, -22, 27)" opacity="1.1233048" stroke="rgb(139, 182, 153)" stroke-opacity="1.0" stroke-linecap="round" stroke-linejoin="round" d="M 574.9207153320312 162.58197021484375 C 471.62261962890625 157.2221221923828 254.95188903808594 161.83773803710938 21.49932289123535 159.2582244873047 C 149.9614715576172 41.40039825439453 217.20492553710938 78.77104187011719 174.48895263671875 -25.099302291870117 C 185.01902770996094 -33.60383224487305 197.35633850097656 -35.491127014160156 255.7978515625 -34.277156829833984 C 358.96923828125 -48.572357177734375 437.44024658203125 -146.64817810058594 574.9207153320312 162.58197021484375"/>
    <path stroke-width="0" fill="rgb(35, 52, 46)" opacity="0.6273594" stroke="rgb(108, 164, 111)" stroke-opacity="1.0" stroke-linecap="round" stroke-linejoin="round" d="M 316.8004150390625 712.7783813476562 C -124.88626098632812 747.8018188476562 7.409761905670166 369.6044616699219 44.25587844848633 84.78836822509766 C 293.0481872558594 122.73342895507812 289.8204040527344 118.47431945800781 280.1459045410156 40.89720916748047 C 284.2266845703125 -66.92325592041016 317.0650329589844 -46.443145751953125 442.3717346191406 -36.365211486816406 C 639.143310546875 -2.5854287147521973 854.1314086914062 240.14646911621094 316.8004150390625 712.7783813476562"/>
    <path stroke-width="0" fill="rgb(68, 95, 73)" opacity="1.0181649" stroke="rgb(245, 97, 201)" stroke-opacity="1.0" stroke-linecap="round" stroke-linejoin="round" d="M 363.0065002441406 89.1581039428711 C 331.9472351074219 104.82431030273438 322.7601013183594 109.19463348388672 88.37056732177734 106.62207794189453 C 110.6676025390625 103.6150894165039 112.05255126953125 111.51028442382812 120.72222900390625 67.0373764038086 C 135.6087188720703 -33.50758361816406 141.19656372070312 -41.69476318359375 171.77951049804688 -45.706722259521484 C 292.5010986328125 -28.993000030517578 316.8601989746094 -35.6390266418457 363.0065002441406 89.1581039428711"/>
    <path stroke-width="0" fill="rgb(7, 9, 23)" opacity="1.0436642" stroke="rgb(144, 236, 18)" stroke-opacity="1.0" stroke-linecap="round" stroke-linejoin="round" d="M 257.28350830078125 83.42494201660156 C 200.73757934570312 104.76615905761719 296.030517578125 68.904052734375 533.3395385742188 142.1201629638672 C 129.68516540527344 146.27915954589844 17.852121353149414 91.23262786865234 -30.860319137573242 238.730712890625 C -45.53935623168945 -103.79988098144531 -12.785496711730957 -54.71656799316406 149.37405395507812 -35.1386604309082 C 205.53846740722656 -44.217533111572266 222.8152618408203 -50.52363204956055 257.28350830078125 83.42494201660156"/>
    <path stroke-width="0" fill="rgb(265, 256, 259)" opacity="1.0373728" stroke="rgb(5, 212, 198)" stroke-opacity="1.0" stroke-linecap="round" stroke-linejoin="round" d="M 492.4081726074219 244.09263610839844 C 467.20416259765625 179.48629760742188 267.8153076171875 188.36810302734375 291.78277587890625 218.26722717285156 C 193.14373779296875 181.6228485107422 152.44100952148438 187.65469360351562 129.42254638671875 158.9965362548828 C 83.2642822265625 157.92617797851562 86.21186828613281 158.0186309814453 495.93743896484375 158.5631866455078 C 494.1874694824219 159.32749938964844 494.0321350097656 138.79595947265625 492.4081726074219 244.09263610839844"/>
    <path stroke-width="0" fill="rgb(234, 234, 234)" opacity="0.6985099" stroke="rgb(30, 163, 36)" stroke-opacity="1.0" stroke-linecap="round" stroke-linejoin="round" d="M 638.34130859375 413.0975341796875 C 458.0812072753906 443.392578125 159.30166625976562 408.6504211425781 152.5255889892578 426.13861083984375 C 284.4485778808594 425.6222229003906 324.7452392578125 425.2067565917969 -33.006343841552734 426.6719665527344 C 199.49600219726562 396.14532470703125 233.34254455566406 426.0690002441406 55.69321060180664 413.3670349121094 C 132.9092254638672 417.0118713378906 307.0588073730469 401.28033447265625 638.34130859375 413.0975341796875"/>
    <path stroke-width="0" fill="rgb(253, 252, 253)" opacity="0.94428587" stroke="rgb(133, 105, 67)" stroke-opacity="1.0" stroke-linecap="round" stroke-linejoin="round" d="M 574.6912841796875 379.82257080078125 C 752.3604736328125 403.5420227050781 596.0773315429688 397.646728515625 60.3951416015625 398.2066650390625 C 180.2654571533203 390.6466064453125 -87.62055206298828 412.709716796875 -64.2745590209961 379.636962890625 C 520.0597534179688 379.3424072265625 497.499755859375 378.0530700683594 446.6064758300781 377.09527587890625 C 394.53375244140625 379.8322448730469 407.3454895019531 376.80291748046875 574.6912841796875 379.82257080078125"/>
    <path stroke-width="0" fill="rgb(243, 240, 246)" opacity="0.9548454" stroke="rgb(116, 144, 4)" stroke-opacity="1.0" stroke-linecap="round" stroke-linejoin="round" d="M 595.6900024414062 424.6776123046875 C -78.15422821044922 423.57373046875 25.70538330078125 424.8775329589844 80.37651062011719 426.47735595703125 C 222.4513397216797 414.5897216796875 -64.67001342773438 446.030029296875 -81.16911315917969 409.0733337402344 C 79.94839477539062 410.1119384765625 251.550048828125 409.1369934082031 308.8049011230469 409.4606628417969 C 130.22579956054688 422.1678466796875 223.98870849609375 392.0841369628906 595.6900024414062 424.6776123046875"/>
    <path stroke-width="0" fill="rgb(263, 262, 263)" opacity="1.0189055" stroke="rgb(156, 157, 240)" stroke-opacity="1.0" stroke-linecap="round" stroke-linejoin="round" d="M 496.50653076171875 277.6863708496094 C 463.6337890625 304.0347900390625 620.1536865234375 294.0469055175781 -39.25685119628906 298.365478515625 C -87.78639221191406 264.9583435058594 -95.81973266601562 273.15814208984375 258.654296875 272.5022888183594 C 270.6326599121094 274.5362548828125 256.8888244628906 130.3678741455078 279.2315368652344 170.1303253173828 C 319.666015625 316.3196716308594 205.27891540527344 253.408935546875 496.50653076171875 277.6863708496094"/>
    <path stroke-width="0" fill="rgb(242, 239, 248)" opacity="0.9946562" stroke="rgb(91, 111, 177)" stroke-opacity="1.0" stroke-linecap="round" stroke-linejoin="round" d="M 595.003662109375 411.1481018066406 C 472.8221740722656 455.07440185546875 261.18670654296875 377.16705322265625 170.53074645996094 426.8858947753906 C 251.72256469726562 413.7370910644531 241.94329833984375 421.2246398925781 212.510498046875 415.0212707519531 C 258.6623229980469 420.2951354980469 278.97900390625 441.06829833984375 149.3391571044922 408.3323059082031 C 180.70037841796875 420.4340515136719 481.2930603027344 403.9371032714844 595.003662109375 411.1481018066406"/>
    <path stroke-width="0" fill="rgb(261, 261, 262)" opacity="1.0053401" stroke="rgb(170, 171, 53)" stroke-opacity="1.0" stroke-linecap="round" stroke-linejoin="round" d="M 491.0348205566406 164.3730926513672 C 282.684814453125 215.74163818359375 746.4521484375 201.61439514160156 16.256994247436523 204.02178955078125 C 32.42500305175781 211.3318328857422 -57.94619369506836 217.2323760986328 -51.37064743041992 158.38995361328125 C 117.4975814819336 159.0368194580078 190.67079162597656 158.05142211914062 231.04965209960938 160.64207458496094 C 134.2932891845703 163.78050231933594 192.7429962158203 157.90858459472656 491.0348205566406 164.3730926513672"/>
    <path stroke-width="0" fill="rgb(121, 127, 112)" opacity="1.0074365" stroke="rgb(80, 92, 145)" stroke-opacity="1.0" stroke-linecap="round" stroke-linejoin="round" d="M 525.3489379882812 96.20541381835938 C 445.9167175292969 62.224403381347656 514.399658203125 73.7582015991211 442.0888366699219 64.43155670166016 C 319.92681884765625 73.33403015136719 353.24322509765625 46.689571380615234 360.62493896484375 2.1545627117156982 C 356.9348449707031 -22.195703506469727 361.8376770019531 -30.034143447875977 365.3538818359375 -24.962961196899414 C 378.67962646484375 59.308109283447266 495.6831970214844 -6.617994785308838 525.3489379882812 96.20541381835938"/>
    <path stroke-width="0" fill="rgb(249, 254, 261)" opacity="0.99999756" stroke="rgb(252, 26, 53)" stroke-opacity="1.0" stroke-linecap="round" stroke-linejoin="round" d="M 450.96612548828125 40.636497497558594 C 401.1794128417969 52.12847137451172 356.4303894042969 69.90977478027344 352.508056640625 73.95878601074219 C 397.03216552734375 125.21763610839844 336.65472412109375 84.72095489501953 312.6243896484375 29.775293350219727 C 325.5461730957031 16.84376335144043 339.7737731933594 13.398591995239258 416.55047607421875 0.28578343987464905 C 413.8468322753906 17.123594284057617 448.407958984375 4.832734107971191 450.96612548828125 40.636497497558594"/>
    <path stroke-width="0" fill="rgb(-2, 5, -3)" opacity="0.99519587" stroke="rgb(166, 64, 118)" stroke-opacity="1.0" stroke-linecap="round" stroke-linejoin="round" d="M 130.7640380859375 397.6048278808594 C 235.55335998535156 397.8957824707031 120.84574890136719 397.6214294433594 -79.6927719116211 398.1111145019531 C 13.653604507446289 408.5753173828125 -48.003570556640625 406.7636413574219 76.65457153320312 408.0978698730469 C 110.5086669921875 408.1307678222656 135.05662536621094 408.6855773925781 254.1426239013672 407.4622497558594 C 72.64212799072266 392.77679443359375 89.63866424560547 396.1563720703125 130.7640380859375 397.6048278808594"/>
    <path stroke-width="0" fill="rgb(108, 81, 114)" opacity="0.97764444" stroke="rgb(40, 28, 167)" stroke-opacity="1.0" stroke-linecap="round" stroke-linejoin="round" d="M 417.95611572265625 -31.56892967224121 C 433.15997314453125 24.547351837158203 454.1354064941406 65.63516998291016 441.77056884765625 5.1927666664123535 C 386.544677734375 -19.20319366455078 374.34942626953125 -16.442150115966797 312.05523681640625 -19.66055679321289 C 315.1639404296875 -29.508440017700195 323.5223083496094 -35.45821762084961 394.3455505371094 -33.86525344848633 C 406.1054382324219 -37.010616302490234 415.6422424316406 -32.56230163574219 417.95611572265625 -31.56892967224121"/>
    <path stroke-width="0" fill="rgb(249, 248, 253)" opacity="0.97042584" stroke="rgb(50, 94, 209)" stroke-opacity="1.0" stroke-linecap="round" stroke-linejoin="round" d="M 492.6112060546875 96.21014404296875 C 395.7446594238281 94.30577850341797 362.47674560546875 96.83853149414062 340.0416564941406 93.47180938720703 C 406.6784973144531 97.23302459716797 383.3728942871094 102.27079010009766 200.03932189941406 99.15988159179688 C 401.5740966796875 83.654052734375 357.7510070800781 100.8183822631836 377.4185485839844 82.9205551147461 C 373.8206481933594 73.28628540039062 512.2625732421875 58.63734817504883 492.6112060546875 96.21014404296875"/>
    <path stroke-width="0" fill="rgb(117, 123, 113)" opacity="1.0056245" stroke="rgb(213, 24, 248)" stroke-opacity="1.0" stroke-linecap="round" stroke-linejoin="round" d="M 469.3349304199219 33.7325553894043 C 460.29248046875 53.95472717285156 427.4169921875 57.05221939086914 331.7767639160156 86.38873291015625 C 281.3934020996094 91.20123291015625 219.0784149169922 78.3727035522461 -86.83943939208984 88.54185485839844 C -40.06278991699219 -346.3504638671875 68.1061782836914 -207.80335998535156 423.0232238769531 -84.7677001953125 C 469.922607421875 -57.70073318481445 487.23321533203125 -61.18708801269531 469.3349304199219 33.7325553894043"/>
    <path stroke-width="0" fill="rgb(263, 253, 271)" opacity="0.93916297" stroke="rgb(249, 154, 188)" stroke-opacity="1.0" stroke-linecap="round" stroke-linejoin="round" d="M -17.5411376953125 79.87168884277344 C 325.0802307128906 82.60026550292969 250.13218688964844 73.49818420410156 -48.5224609375 99.47229766845703 C 203.90341186523438 101.46005249023438 171.8139190673828 96.89369201660156 127.13218688964844 103.53153228759766 C 157.17257690429688 98.25544738769531 214.77471923828125 112.52100372314453 361.45416259765625 81.13826751708984 C 24.833948135375977 73.3504867553711 110.70101165771484 113.74390411376953 -17.5411376953125 79.87168884277344"/>
    <path stroke-width="0" fill="rgb(120, 122, 113)" opacity="0.8221142" stroke="rgb(72, 30, 75)" stroke-opacity="1.0" stroke-linecap="round" stroke-linejoin="round" d="M 269.2239685058594 51.311283111572266 C 297.26171875 78.41956329345703 377.04168701171875 82.68855285644531 274.3214416503906 67.01155090332031 C 219.84039306640625 78.58507537841797 203.90444946289062 86.11849212646484 200.13987731933594 -3.4381749629974365 C 262.51806640625 -37.65595626831055 279.69085693359375 -34.56483840942383 301.64105224609375 -31.557395935058594 C 373.3260192871094 -24.929641723632812 376.15386962890625 -14.575190544128418 269.2239685058594 51.311283111572266"/>
    <path stroke-width="0" fill="rgb(230, 239, 243)" opacity="0.8846476" stroke="rgb(81, 105, 16)" stroke-opacity="1.0" stroke-linecap="round" stroke-linejoin="round" d="M 548.7515869140625 74.0320053100586 C 546.9356689453125 103.32501220703125 533.772705078125 109.36691284179688 521.4342041015625 57.041221618652344 C 415.5928039550781 52.680328369140625 451.7776794433594 65.36536407470703 463.9514465332031 40.80332565307617 C 366.3829650878906 42.13834762573242 414.9040832519531 -18.959672927856445 384.8247985839844 -20.234764099121094 C 414.0193786621094 87.98749542236328 489.2356262207031 -0.7881562113761902 548.7515869140625 74.0320053100586"/>
    <path stroke-width="0" fill="rgb(-4, -2, -2)" opacity="0.8604495" stroke="rgb(144, 67, 133)" stroke-opacity="1.0" stroke-linecap="round" stroke-linejoin="round" d="M 131.6500701904297 407.72625732421875 C 122.02662658691406 398.8423767089844 102.17466735839844 418.2167053222656 -63.76864242553711 398.1669616699219 C 218.36265563964844 398.1644287109375 295.3893737792969 397.65997314453125 266.10614013671875 400.80950927734375 C 144.9093475341797 405.736083984375 169.0070037841797 395.8256530761719 252.5092010498047 406.8846740722656 C 108.33892822265625 407.17608642578125 118.53219604492188 404.66107177734375 131.6500701904297 407.72625732421875"/>
    <path stroke-width="0" fill="rgb(261, 262, 261)" opacity="1.0308356" stroke="rgb(146, 236, 81)" stroke-opacity="1.0" stroke-linecap="round" stroke-linejoin="round" d="M 438.694580078125 185.96478271484375 C 438.195068359375 222.34738159179688 438.27313232421875 296.5181579589844 435.8945617675781 284.0197448730469 C 376.4400939941406 311.4329833984375 426.6273498535156 246.0471954345703 413.8345031738281 265.3168029785156 C 424.733642578125 141.01681518554688 389.1180419921875 254.47373962402344 441.4014892578125 174.8348846435547 C 442.66448974609375 200.8372802734375 441.7300109863281 247.81666564941406 438.694580078125 185.96478271484375"/>
    <path stroke-width="0" fill="rgb(-5, -1, -5)" opacity="0.9996713" stroke="rgb(33, 182, 73)" stroke-opacity="1.0" stroke-linecap="round" stroke-linejoin="round" d="M 304.92535400390625 399.2470703125 C 249.75807189941406 397.0129699707031 262.07177734375 399.2742919921875 668.2796630859375 397.467529296875 C 540.1036376953125 417.2634582519531 282.7232971191406 400.5785217285156 282.5746154785156 410.56768798828125 C 324.4074401855469 394.42034912109375 325.3296203613281 398.142333984375 102.2415542602539 398.3131408691406 C 279.7371826171875 411.6956787109375 298.852294921875 412.0625915527344 304.92535400390625 399.2470703125"/>
    <path stroke-width="0" fill="rgb(173, 180, 155)" opacity="0.6558291" stroke="rgb(149, 5, 211)" stroke-opacity="1.0" stroke-linecap="round" stroke-linejoin="round" d="M 522.4902954101562 302.3058166503906 C 495.6661071777344 306.64007568359375 489.6648254394531 293.30548095703125 501.3338623046875 48.349056243896484 C 440.04058837890625 4.1038079261779785 469.1276550292969 104.41319274902344 488.00457763671875 -57.141380310058594 C 423.89288330078125 -32.06654739379883 433.3778381347656 -36.32387161254883 469.7552490234375 -42.66332244873047 C 555.4288330078125 -45.57939910888672 543.9959106445312 -55.355979919433594 522.4902954101562 302.3058166503906"/>
    <path stroke-width="0" fill="rgb(257, 255, 253)" opacity="1.020048" stroke="rgb(172, 68, 187)" stroke-opacity="1.0" stroke-linecap="round" stroke-linejoin="round" d="M 255.1000213623047 116.31625366210938 C 240.731689453125 127.93905639648438 290.1083068847656 121.89759063720703 263.9729919433594 130.26882934570312 C 290.8338928222656 118.17066192626953 267.8694763183594 136.97991943359375 19.037199020385742 110.53648376464844 C 634.5797729492188 110.08930206298828 609.8197021484375 109.11064910888672 519.043701171875 136.50050354003906 C 436.5705261230469 114.54981994628906 225.53826904296875 137.67173767089844 255.1000213623047 116.31625366210938"/>
    <path stroke-width="0" fill="rgb(-4, 3, 10)" opacity="1.0357534" stroke="rgb(63, 146, 150)" stroke-opacity="1.0" stroke-linecap="round" stroke-linejoin="round" d="M 383.7803649902344 107.10401153564453 C -4.80888032913208 103.57340240478516 33.362457275390625 101.11800384521484 467.76165771484375 98.19426727294922 C 145.6304473876953 89.1134262084961 -151.97344970703125 97.9859848022461 203.59938049316406 93.49977111816406 C 178.3477783203125 93.64839172363281 3.8932602405548096 100.2125244140625 -86.16209411621094 83.65324401855469 C 546.6997680664062 85.72477722167969 275.44476318359375 76.21112060546875 383.7803649902344 107.10401153564453"/>
    <path stroke-width="0" fill="rgb(256, 259, 259)" opacity="1.0191959" stroke="rgb(56, 242, 114)" stroke-opacity="1.0" stroke-linecap="round" stroke-linejoin="round" d="M -14.730608940124512 136.3498077392578 C -131.64285278320312 144.71018981933594 -13.039043426513672 134.90699768066406 710.0272216796875 141.12765502929688 C 653.9869995117188 123.94647216796875 387.24029541015625 129.58245849609375 18.842336654663086 128.95936584472656 C -71.17208099365234 134.95245361328125 -155.15673828125 87.24758911132812 251.12387084960938 125.36734771728516 C -40.54613494873047 127.49043273925781 -93.1383285522461 120.3414306640625 -14.730608940124512 136.3498077392578"/>
    <path stroke-width="0" fill="rgb(32, 29, 29)" opacity="0.9507232" stroke="rgb(178, 75, 207)" stroke-opacity="1.0" stroke-linecap="round" stroke-linejoin="round" d="M 187.58334350585938 322.9703674316406 C 114.22248077392578 311.0534973144531 127.78963470458984 293.9728088378906 247.57989501953125 307.1642761230469 C 190.33642578125 330.0203857421875 109.93821716308594 328.14892578125 36.361305236816406 322.468017578125 C 157.99192810058594 312.1854553222656 185.70298767089844 321.9192199707031 118.99633026123047 319.87451171875 C 133.4597625732422 325.47509765625 148.2307586669922 306.7631530761719 187.58334350585938 322.9703674316406"/>
    <path stroke-width="0" fill="rgb(253, 272, 269)" opacity="1.0904872" stroke="rgb(224, 148, 224)" stroke-opacity="1.0" stroke-linecap="round" stroke-linejoin="round" d="M 482.8966979980469 309.8018493652344 C 483.8173522949219 252.78237915039062 486.1098937988281 275.34722900390625 483.04022216796875 284.520263671875 C 477.7763671875 273.0943298339844 490.44073486328125 235.80152893066406 473.269775390625 183.45571899414062 C 479.39312744140625 238.09896850585938 474.1053161621094 220.90997314453125 490.2796325683594 205.31060791015625 C 492.3862609863281 254.229248046875 494.73431396484375 341.9749450683594 482.8966979980469 309.8018493652344"/>
    <path stroke-width="0" fill="rgb(48, 30, 37)" opacity="0.7738177" stroke="rgb(184, 127, 243)" stroke-opacity="1.0" stroke-linecap="round" stroke-linejoin="round" d="M 107.0820541381836 323.1075439453125 C -26.649112701416016 328.6739196777344 -39.10991287231445 313.987060546875 0.9224990606307983 358.67498779296875 C 16.154972076416016 285.8407897949219 -1.084579348564148 353.3298645019531 -63.459922790527344 324.2919006347656 C 33.05337142944336 311.5542907714844 63.601375579833984 310.7984313964844 81.34796142578125 317.9956359863281 C 25.58477020263672 304.83612060546875 47.01582717895508 290.5038146972656 107.0820541381836 323.1075439453125"/>
    <path stroke-width="0" fill="rgb(-8, 24, 24)" opacity="1.0133567" stroke="rgb(108, 154, 4)" stroke-opacity="1.0" stroke-linecap="round" stroke-linejoin="round" d="M 193.74945068359375 311.1144714355469 C 283.044189453125 333.8941650390625 183.22802734375 302.039794921875 285.3193054199219 329.0700378417969 C 55.842742919921875 326.2555236816406 -18.711450576782227 334.07183837890625 178.38243103027344 310.85516357421875 C 185.78121948242188 303.41607666015625 185.9253692626953 301.9269714355469 165.3559112548828 313.2642822265625 C 189.901123046875 324.2742919921875 193.6233367919922 322.5892333984375 193.74945068359375 311.1144714355469"/>
    <path stroke-width="0" fill="rgb(54, 36, 39)" opacity="0.96992457" stroke="rgb(168, 73, 157)" stroke-opacity="1.0" stroke-linecap="round" stroke-linejoin="round" d="M 287.9124450683594 327.9226989746094 C 164.35606384277344 315.80450439453125 139.73223876953125 325.3014831542969 414.0687561035156 297.7939758300781 C 363.5541076660156 297.8620300292969 117.65312957763672 298.7691955566406 -101.53736114501953 298.05133056640625 C 165.78640747070312 362.83355712890625 218.26910400390625 277.93145751953125 180.45228576660156 320.5974426269531 C 183.0212860107422 322.0763854980469 217.8929443359375 299.38531494140625 287.9124450683594 327.9226989746094"/>
    <path stroke-width="0" fill="rgb(16, 16, 19)" opacity="0.713408" stroke="rgb(34, 76, 145)" stroke-opacity="1.0" stroke-linecap="round" stroke-linejoin="round" d="M 224.44937133789062 318.9256591796875 C 172.47300720214844 302.5060729980469 161.22000122070312 289.9137878417969 114.6885757446289 324.95654296875 C 142.02423095703125 326.1990051269531 138.43927001953125 296.03497314453125 197.89122009277344 323.22015380859375 C 211.14520263671875 322.8771667480469 222.29537963867188 325.22088623046875 196.68011474609375 315.1610412597656 C 172.05911254882812 322.86077880859375 180.4747314453125 326.1681213378906 224.44937133789062 318.9256591796875"/>
    <path stroke-width="0" fill="rgb(-7, 4, 11)" opacity="1.0403856" stroke="rgb(146, 166, 166)" stroke-opacity="1.0" stroke-linecap="round" stroke-linejoin="round" d="M 469.5176086425781 319.4977111816406 C 391.76177978515625 296.59027099609375 297.99072265625 320.3021240234375 179.6981201171875 322.5797119140625 C 346.076416015625 331.2060241699219 335.3376159667969 322.54364013671875 311.0880126953125 335.93963623046875 C 305.6695861816406 328.9703063964844 294.2879943847656 312.6226501464844 312.9832763671875 341.133056640625 C 316.8849792480469 338.96783447265625 311.1520690917969 320.3815002441406 469.5176086425781 319.4977111816406"/>
    <path stroke-width="0" fill="rgb(186, 200, 187)" opacity="0.8599156" stroke="rgb(228, 93, 111)" stroke-opacity="1.0" stroke-linecap="round" stroke-linejoin="round" d="M 342.1383056640625 357.3231201171875 C 401.0654602050781 359.5687561035156 292.5670166015625 364.9640808105469 305.0797424316406 355.6733093261719 C 331.0856628417969 347.0408935546875 265.6799011230469 344.78173828125 274.8433532714844 358.1230773925781 C 264.266845703125 313.2013854980469 280.57647705078125 330.5879821777344 291.3105773925781 329.7525939941406 C 349.4202880859375 332.12213134765625 314.28009033203125 317.8310852050781 342.1383056640625 357.3231201171875"/>
    <path stroke-width="0" fill="rgb(16, 18, 27)" opacity="1.0245023" stroke="rgb(205, 179, 25)" stroke-opacity="1.0" stroke-linecap="round" stroke-linejoin="round" d="M 462.43133544921875 327.3937072753906 C 615.853271484375 328.5611572265625 546.6149291992188 321.7957763671875 501.6393127441406 322.1977844238281 C 422.12921142578125 350.33319091796875 410.5293884277344 287.4206237792969 433.7875061035156 310.6112976074219 C 514.4418334960938 307.3134765625 506.826416015625 284.40264892578125 533.7140502929688 292.3491516113281 C 464.18695068359375 293.5980224609375 539.304931640625 319.1047058105469 462.43133544921875 327.3937072753906"/>
    <path stroke-width="0" fill="rgb(58, 85, 94)" opacity="1.0247462" stroke="rgb(182, 254, 38)" stroke-opacity="1.0" stroke-linecap="round" stroke-linejoin="round" d="M 479.7825927734375 176.16937255859375 C 496.14544677734375 213.30906677246094 451.46771240234375 206.58570861816406 525.840087890625 211.1525115966797 C 487.0663146972656 215.5635986328125 513.8567504882812 202.09405517578125 488.5732727050781 207.8891143798828 C 499.8515625 208.8138427734375 517.2152099609375 208.3843536376953 437.89617919921875 210.30105590820312 C 457.1966552734375 302.4382629394531 489.02081298828125 303.6358947753906 479.7825927734375 176.16937255859375"/>
    <path stroke-width="0" fill="rgb(6, 4, 4)" opacity="0.57882565" stroke="rgb(41, 156, 31)" stroke-opacity="1.0" stroke-linecap="round" stroke-linejoin="round" d="M 11.114717483520508 268.9384765625 C 31.09421157836914 176.88877868652344 -58.201778411865234 208.5088653564453 263.5001525878906 204.5218963623047 C 186.4616241455078 227.38072204589844 19.74325180053711 172.53536987304688 49.4606819152832 273.4609680175781 C 50.53437423706055 232.1664276123047 30.28676414489746 225.115966796875 104.71765899658203 208.68719482421875 C -21.540084838867188 215.21859741210938 46.23571014404297 188.96389770507812 11.114717483520508 268.9384765625"/>
    <path stroke-width="0" fill="rgb(9, 23, 28)" opacity="0.6425536" stroke="rgb(205, 145, 103)" stroke-opacity="1.0" stroke-linecap="round" stroke-linejoin="round" d="M 325.0038757324219 318.3979187011719 C 428.8111267089844 306.8757019042969 367.5862731933594 331.05780029296875 349.7336730957031 329.0484619140625 C 302.8919372558594 329.7931213378906 231.179443359375 332.5735168457031 131.1945037841797 311.72161865234375 C -68.31822204589844 296.9264221191406 89.88166809082031 301.511474609375 487.10723876953125 296.9881591796875 C 333.8336181640625 320.9506530761719 310.3885498046875 279.8709411621094 325.0038757324219 318.3979187011719"/>
    <path stroke-width="0" fill="rgb(-5, -12, -8)" opacity="0.85374546" stroke="rgb(177, 115, 184)" stroke-opacity="1.0" stroke-linecap="round" stroke-linejoin="round" d="M 428.5110168457031 350.61175537109375 C 628.2996826171875 352.5395202636719 667.3136596679688 355.069091796875 547.8584594726562 379.177001953125 C 96.30069732666016 378.1002197265625 -17.211938858032227 388.3857421875 347.51007080078125 350.5766296386719 C 424.0367736816406 360.4488525390625 373.3422546386719 336.7890930175781 378.3973693847656 349.3205871582031 C 311.6407470703125 328.8746643066406 519.1217041015625 326.7906188964844 428.5110168457031 350.61175537109375"/>
    <path stroke-width="0" fill="rgb(53, 44, 46)" opacity="1.0537608" stroke="rgb(248, 218, 2)" stroke-opacity="1.0" stroke-linecap="round" stroke-linejoin="round" d="M -51.25286102294922 505.832763671875 C 476.5694274902344 510.2729187011719 499.5144348144531 498.1026611328125 51.759925842285156 499.8274230957031 C 61.843910217285156 450.52362060546875 57.39522171020508 478.9046325683594 -30.582698822021484 469.5323791503906 C 64.48861694335938 463.73944091796875 65.92501068115234 470.4808044433594 55.936038970947266 469.1221618652344 C 50.54336929321289 522.7193603515625 84.42310333251953 487.2374572753906 -51.25286102294922 505.832763671875"/>
    <path stroke-width="0" fill="rgb(37, 34, 27)" opacity="1.0277103" stroke="rgb(186, 43, 132)" stroke-opacity="1.0" stroke-linecap="round" stroke-linejoin="round" d="M 326.32171630859375 371.958740234375 C 307.96661376953125 321.21820068359375 321.00408935546875 368.12347412109375 12.49268627166748 358.8495178222656 C 402.0909729003906 357.874267578125 389.5166320800781 354.1756286621094 195.2657928466797 358.4531555175781 C 336.3428649902344 343.88616943359375 205.73135375976562 358.6731262207031 -208.0706024169922 345.6974182128906 C -50.57639694213867 379.03887939453125 -29.8521785736084 360.37005615234375 326.32171630859375 371.958740234375"/>
    <path stroke-width="0" fill="rgb(16, 27, 12)" opacity="0.6240199" stroke="rgb(50, 4, 202)" stroke-opacity="1.0" stroke-linecap="round" stroke-linejoin="round" d="M 459.92938232421875 204.83746337890625 C 485.0457458496094 335.0567932128906 460.0641174316406 203.50082397460938 460.0998840332031 207.33853149414062 C 460.2289733886719 204.88504028320312 454.97198486328125 260.48089599609375 462.8868103027344 224.1861572265625 C 445.4740295410156 318.4580078125 475.9514465332031 258.90484619140625 486.16925048828125 245.9767303466797 C 448.8669128417969 298.82049560546875 466.22723388671875 276.9049072265625 459.92938232421875 204.83746337890625"/>
    <path stroke-width="0" fill="rgb(17, -16, 0)" opacity="0.94054186" stroke="rgb(88, 236, 179)" stroke-opacity="1.0" stroke-linecap="round" stroke-linejoin="round" d="M 493.3868713378906 142.35159301757812 C 491.9309997558594 152.28643798828125 492.3493957519531 305.16070556640625 490.66607666015625 321.71697998046875 C 478.36553955078125 228.9908905029297 475.3227844238281 244.87254333496094 493.9194030761719 320.6266174316406 C 506.9648742675781 194.13882446289062 478.64276123046875 200.37599182128906 535.864990234375 203.88401794433594 C 471.2367248535156 193.6943817138672 511.7762451171875 253.53424072265625 493.3868713378906 142.35159301757812"/>
    <path stroke-width="0" fill="rgb(256, 256, 259)" opacity="1.0386643" stroke="rgb(41, 158, 147)" stroke-opacity="1.0" stroke-linecap="round" stroke-linejoin="round" d="M 318.7904052734375 306.9831237792969 C 252.43836975097656 321.1188659667969 212.51141357421875 314.8897705078125 161.79437255859375 321.3605041503906 C 238.91917419433594 314.74945068359375 200.56130981445312 320.716796875 86.08049774169922 312.9521179199219 C 207.0597686767578 287.1368408203125 267.8679504394531 313.8246765136719 275.6427001953125 300.47161865234375 C 263.89691162109375 315.2817687988281 275.9215087890625 293.62652587890625 318.7904052734375 306.9831237792969"/>
    <path stroke-width="0" fill="rgb(264, 263, 263)" opacity="0.8831452" stroke="rgb(238, 156, 136)" stroke-opacity="1.0" stroke-linecap="round" stroke-linejoin="round" d="M 424.5797424316406 274.6942138671875 C 439.5692138671875 262.8779602050781 431.9034423828125 276.7629699707031 432.192138671875 230.9878692626953 C 435.5825500488281 222.5881805419922 429.350830078125 212.4885711669922 434.42767333984375 275.3102722167969 C 435.3786926269531 274.9466247558594 439.2370910644531 263.3211669921875 423.4815979003906 270.8919982910156 C 426.22015380859375 293.1734313964844 415.0314025878906 261.5203857421875 424.5797424316406 274.6942138671875"/>
    <path stroke-width="0" fill="rgb(33, 14, 50)" opacity="1.0230298" stroke="rgb(186, 79, 101)" stroke-opacity="1.0" stroke-linecap="round" stroke-linejoin="round" d="M 426.6924133300781 472.7689514160156 C 297.0185546875 468.4266052246094 317.28021240234375 467.4248046875 323.61639404296875 469.3092346191406 C 316.3098449707031 467.68243408203125 281.90704345703125 466.1134948730469 608.579345703125 467.9383544921875 C 388.7637023925781 480.1864929199219 352.6859436035156 463.3739318847656 201.75155639648438 469.9759216308594 C 147.2493133544922 472.9330139160156 208.60910034179688 472.95330810546875 426.6924133300781 472.7689514160156"/>
    <path stroke-width="0" fill="rgb(-1, -5, -5)" opacity="0.6095775" stroke="rgb(47, 240, 188)" stroke-opacity="1.0" stroke-linecap="round" stroke-linejoin="round" d="M 273.6739501953125 355.8324890136719 C 295.63006591796875 331.97601318359375 299.426025390625 368.1947937011719 503.38128662109375 353.97216796875 C 365.4703369140625 351.5149230957031 345.133056640625 353.60125732421875 341.24578857421875 355.1320495605469 C 305.89801025390625 347.561767578125 335.2797546386719 359.2934265136719 329.1641540527344 320.38726806640625 C 411.7098693847656 289.089599609375 410.1609802246094 370.76470947265625 273.6739501953125 355.8324890136719"/>
    <path stroke-width="0" fill="rgb(-23, -15, -1)" opacity="0.8635046" stroke="rgb(57, 64, 14)" stroke-opacity="1.0" stroke-linecap="round" stroke-linejoin="round" d="M 480.0437927246094 175.39486694335938 C 466.56646728515625 236.7022247314453 484.0704650878906 442.934814453125 484.56304931640625 185.6537628173828 C 419.7685241699219 195.98301696777344 460.0910339355469 141.82948303222656 437.1394348144531 349.8150939941406 C 436.208984375 151.41595458984375 437.8045654296875 181.20513916015625 443.15472412109375 183.7374267578125 C 437.2209777832031 165.0631561279297 487.90570068359375 178.5295867919922 480.0437927246094 175.39486694335938"/>
    <path stroke-width="0" fill="rgb(116, 126, 115)" opacity="1.0037937" stroke="rgb(79, 177, 96)" stroke-opacity="1.0" stroke-linecap="round" stroke-linejoin="round" d="M 632.510009765625 76.40985870361328 C 545.0375366210938 159.13052368164062 543.610107421875 175.1898956298828 503.2127685546875 189.0664825439453 C 493.9245910644531 165.1064910888672 492.69183349609375 56.87296676635742 497.2974548339844 54.04844284057617 C 520.4758911132812 111.9089126586914 506.5347595214844 85.24285888671875 495.9895935058594 47.97138595581055 C 404.7699279785156 9.255702018737793 442.5594482421875 -98.10331726074219 632.510009765625 76.40985870361328"/>
    <path stroke-width="0" fill="rgb(269, 259, 270)" opacity="0.9996037" stroke="rgb(6, 17, 173)" stroke-opacity="1.0" stroke-linecap="round" stroke-linejoin="round" d="M 489.1992492675781 301.8983154296875 C 511.4976806640625 318.4595947265625 470.5279846191406 306.5409851074219 489.0715026855469 309.7257385253906 C 286.0624084472656 308.88525390625 179.99362182617188 311.6386413574219 154.58628845214844 300.68511962890625 C 300.8235778808594 300.0400390625 370.8568115234375 300.6302795410156 432.6902770996094 300.6111755371094 C 338.33453369140625 299.72601318359375 310.58184814453125 299.2516174316406 489.1992492675781 301.8983154296875"/>
    <path stroke-width="0" fill="rgb(32, 18, 47)" opacity="0.9403095" stroke="rgb(136, 228, 252)" stroke-opacity="1.0" stroke-linecap="round" stroke-linejoin="round" d="M -65.96975708007812 468.6129150390625 C 31.829803466796875 464.7698059082031 81.53659057617188 469.0332336425781 25.110492706298828 466.4514465332031 C 86.18440246582031 467.24163818359375 157.58937072753906 466.974609375 343.3246765136719 467.125732421875 C 382.4447937011719 475.0132751464844 206.2439727783203 472.862060546875 19.5573673248291 473.4444580078125 C 55.28987503051758 471.3735656738281 38.721981048583984 476.0191650390625 -65.96975708007812 468.6129150390625"/>
    <path stroke-width="0" fill="rgb(21, 26, 30)" opacity="0.8711615" stroke="rgb(169, 67, 5)" stroke-opacity="1.0" stroke-linecap="round" stroke-linejoin="round" d="M 120.4214859008789 317.3453369140625 C 113.42135620117188 337.90911865234375 54.04624938964844 310.4043884277344 26.454431533813477 316.2411804199219 C 116.50231170654297 313.1247863769531 125.97159576416016 315.917724609375 120.92528533935547 316.4056701660156 C 93.00941467285156 320.8634338378906 102.38227081298828 327.10528564453125 134.8215789794922 322.6929931640625 C 47.62055206298828 322.2036437988281 46.18142318725586 301.1708068847656 120.4214859008789 317.3453369140625"/>
    <path stroke-width="0" fill="rgb(268, 258, 267)" opacity="1.0233595" stroke="rgb(81, 97, 150)" stroke-opacity="1.0" stroke-linecap="round" stroke-linejoin="round" d="M 134.57444763183594 323.8128356933594 C 117.3060531616211 309.22625732421875 106.32429504394531 312.6900329589844 113.47709655761719 326.2144470214844 C 140.54010009765625 296.8377990722656 58.45404815673828 337.54168701171875 -57.09225845336914 300.1391296386719 C 209.08091735839844 300.4839782714844 251.02505493164062 300.0519104003906 186.9342041015625 301.1602783203125 C 88.32071685791016 321.3890380859375 119.20931243896484 309.5189514160156 134.57444763183594 323.8128356933594"/>
    <path stroke-width="0" fill="rgb(36, 13, 37)" opacity="0.9822633" stroke="rgb(160, 222, 69)" stroke-opacity="1.0" stroke-linecap="round" stroke-linejoin="round" d="M 486.9034729003906 442.1261291503906 C 351.05523681640625 439.56292724609375 413.41912841796875 432.1351318359375 -153.66026306152344 437.7056884765625 C 653.1968994140625 454.26788330078125 499.9791564941406 415.8128662109375 500.6753234863281 433.1227722167969 C 278.5119323730469 450.6619873046875 548.2721557617188 438.179443359375 248.0711212158203 435.7159118652344 C 504.45770263671875 435.8137512207031 628.040771484375 434.6711120605469 486.9034729003906 442.1261291503906"/>
    <path stroke-width="0" fill="rgb(5, 14, 26)" opacity="0.9947195" stroke="rgb(241, 186, 64)" stroke-opacity="1.0" stroke-linecap="round" stroke-linejoin="round" d="M 372.22607421875 309.91180419921875 C 5.981451511383057 341.5908508300781 -168.85733032226562 324.25823974609375 17.123220443725586 317.26373291015625 C 104.27220153808594 318.0201721191406 28.010377883911133 315.5758361816406 -74.64879608154297 320.3018798828125 C -1.3048661947250366 317.52337646484375 34.21998977661133 338.5412292480469 -46.41012954711914 308.5140380859375 C -130.72396850585938 310.16143798828125 124.07356262207031 308.66497802734375 372.22607421875 309.91180419921875"/>
    <path stroke-width="0" fill="rgb(259, 272, 265)" opacity="0.8463359" stroke="rgb(95, 118, 70)" stroke-opacity="1.0" stroke-linecap="round" stroke-linejoin="round" d="M 543.2294311523438 200.16400146484375 C 477.4259033203125 164.6402587890625 507.6568908691406 193.92811584472656 497.8521423339844 208.7669219970703 C 488.40869140625 208.3382110595703 489.9041748046875 194.84677124023438 491.1302795410156 311.33929443359375 C 478.6866149902344 315.32745361328125 485.55572509765625 184.37161254882812 482.3752746582031 159.82469177246094 C 499.70428466796875 216.35845947265625 467.57855224609375 214.14662170410156 543.2294311523438 200.16400146484375"/>
    <path stroke-width="0" fill="rgb(41, 40, 50)" opacity="0.83528304" stroke="rgb(36, 124, 90)" stroke-opacity="1.0" stroke-linecap="round" stroke-linejoin="round" d="M 346.61553955078125 487.1775817871094 C 346.4100341796875 512.1969604492188 328.7224426269531 509.19873046875 463.51611328125 501.9490051269531 C 386.8070373535156 501.2149963378906 359.6041564941406 497.22442626953125 308.4515380859375 502.06610107421875 C 305.6133728027344 472.34759521484375 323.76507568359375 503.181396484375 311.7216491699219 501.5653381347656 C 353.2437438964844 512.8540649414062 361.8923645019531 494.33538818359375 346.61553955078125 487.1775817871094"/>
    <path stroke-width="0" fill="rgb(212, 184, 201)" opacity="0.6723977" stroke="rgb(140, 149, 245)" stroke-opacity="1.0" stroke-linecap="round" stroke-linejoin="round" d="M 84.0843505859375 386.1806335449219 C 61.53620147705078 375.58984375 32.441226959228516 361.5140686035156 85.18528747558594 370.4056701660156 C 126.00987243652344 360.6363220214844 109.8736572265625 372.2432556152344 112.03311920166016 373.37933349609375 C 30.696186065673828 373.3507080078125 58.949684143066406 367.8818359375 87.520263671875 387.71868896484375 C 79.79781341552734 384.9355773925781 85.90372467041016 395.726318359375 84.0843505859375 386.1806335449219"/>
    <path stroke-width="0" fill="rgb(64, 74, 69)" opacity="0.6419209" stroke="rgb(170, 200, 71)" stroke-opacity="1.0" stroke-linecap="round" stroke-linejoin="round" d="M 363.1845703125 556.1482543945312 C 349.0082092285156 522.4993286132812 334.93450927734375 494.42193603515625 354.8775634765625 502.76318359375 C 435.69659423828125 504.76275634765625 347.0959167480469 505.1351318359375 317.47894287109375 505.5500183105469 C 360.10223388671875 511.0769348144531 347.0650634765625 473.5199890136719 347.9663391113281 494.489501953125 C 336.3648376464844 512.8718872070312 360.164794921875 532.2737426757812 363.1845703125 556.1482543945312"/>
    <path stroke-width="0" fill="rgb(33, 35, 32)" opacity="0.9346535" stroke="rgb(16, 123, 249)" stroke-opacity="1.0" stroke-linecap="round" stroke-linejoin="round" d="M 352.3218688964844 448.3105773925781 C 371.0464172363281 446.54730224609375 328.52093505859375 431.660400390625 393.5968933105469 446.0066833496094 C 346.14410400390625 437.07958984375 364.8646545410156 428.8841857910156 358.5621337890625 447.7804870605469 C 396.0827331542969 444.7347106933594 388.17926025390625 455.6267395019531 353.5605163574219 450.23931884765625 C 314.28472900390625 449.04132080078125 317.110595703125 449.35546875 352.3218688964844 448.3105773925781"/>
    <path stroke-width="0" fill="rgb(11, 0, 3)" opacity="1.0030437" stroke="rgb(240, 203, 160)" stroke-opacity="1.0" stroke-linecap="round" stroke-linejoin="round" d="M -17.636240005493164 370.9091491699219 C 34.70256042480469 347.5428466796875 29.881975173950195 354.88287353515625 -1.4355347156524658 361.4390869140625 C 87.82279205322266 356.6258544921875 72.64642333984375 369.28277587890625 87.59165954589844 349.11273193359375 C 57.997859954833984 384.5309753417969 77.08772277832031 341.6297912597656 -27.104745864868164 378.06036376953125 C 142.8760223388672 382.18450927734375 377.84686279296875 370.01165771484375 -17.636240005493164 370.9091491699219"/>
    <path stroke-width="0" fill="rgb(33, 51, 66)" opacity="0.82846993" stroke="rgb(88, 37, 250)" stroke-opacity="1.0" stroke-linecap="round" stroke-linejoin="round" d="M 348.7297058105469 505.77154541015625 C 337.8382873535156 476.7521057128906 356.8135070800781 482.3453063964844 349.8384094238281 537.179443359375 C 391.1302795410156 541.7684326171875 372.3909606933594 496.2986755371094 388.9484558105469 503.9193420410156 C 391.807373046875 494.33984375 386.5316162109375 459.5992126464844 376.03363037109375 545.9080810546875 C 342.03125 505.37127685546875 353.7568359375 499.7529296875 348.7297058105469 505.77154541015625"/>
    <path stroke-width="0" fill="rgb(25, 27, 50)" opacity="0.99852663" stroke="rgb(209, 48, 130)" stroke-opacity="1.0" stroke-linecap="round" stroke-linejoin="round" d="M 66.47396850585938 448.27276611328125 C 86.03479766845703 452.8701171875 18.641672134399414 441.23455810546875 -54.47430419921875 451.07696533203125 C 103.0067367553711 453.0167236328125 108.3843765258789 450.8488464355469 99.58355712890625 451.8231506347656 C 82.63904571533203 450.4082336425781 86.59394073486328 446.3448791503906 67.84440612792969 452.0675354003906 C 67.36875915527344 413.2134704589844 78.38602447509766 457.9247131347656 66.47396850585938 448.27276611328125"/>
    <path stroke-width="0" fill="rgb(34, 17, 11)" opacity="0.94997805" stroke="rgb(185, 2, 196)" stroke-opacity="1.0" stroke-linecap="round" stroke-linejoin="round" d="M 105.4380111694336 451.5783996582031 C 91.25743103027344 442.32269287109375 105.78807067871094 432.2671203613281 130.89859008789062 438.1425476074219 C 138.01487731933594 458.3118896484375 121.81954956054688 445.47723388671875 -12.313754081726074 451.46392822265625 C 128.3975067138672 448.25775146484375 136.7393035888672 456.3851318359375 135.9417724609375 443.1633605957031 C 135.781494140625 435.3664245605469 95.05278015136719 428.0797424316406 105.4380111694336 451.5783996582031"/>
    <path stroke-width="0" fill="rgb(28, 34, 24)" opacity="1.0592018" stroke="rgb(20, 22, 171)" stroke-opacity="1.0" stroke-linecap="round" stroke-linejoin="round" d="M 461.4895935058594 493.468017578125 C 442.4619445800781 491.833740234375 472.9877624511719 524.2567138671875 501.117431640625 494.0057678222656 C 577.7919311523438 485.9345703125 573.2839965820312 489.39910888671875 139.55612182617188 489.5980224609375 C 327.6975402832031 498.318359375 619.6555786132812 481.82818603515625 452.1331481933594 502.95953369140625 C 470.8925476074219 490.55364990234375 458.30731201171875 506.90771484375 461.4895935058594 493.468017578125"/>
    <path stroke-width="0" fill="rgb(-11, 7, 3)" opacity="0.82435286" stroke="rgb(107, 142, 219)" stroke-opacity="1.0" stroke-linecap="round" stroke-linejoin="round" d="M 349.3569030761719 431.6419372558594 C 281.3594970703125 432.162353515625 342.3135070800781 431.4048156738281 315.03326416015625 437.2962341308594 C 395.1837158203125 440.1817932128906 341.58624267578125 445.4540710449219 315.29852294921875 440.4961242675781 C 350.2139587402344 423.8756408691406 315.100341796875 437.9221496582031 -25.370141983032227 425.7459411621094 C 748.2945556640625 422.34246826171875 722.9037475585938 431.3809509277344 349.3569030761719 431.6419372558594"/>
    <path stroke-width="0" fill="rgb(10, 42, 39)" opacity="1.0547073" stroke="rgb(68, 33, 14)" stroke-opacity="1.0" stroke-linecap="round" stroke-linejoin="round" d="M 167.13119506835938 437.1819763183594 C 150.17916870117188 455.1295471191406 221.0483856201172 443.40924072265625 -58.2879638671875 450.04815673828125 C 377.14306640625 454.1120300292969 428.6356506347656 445.1778564453125 175.4187774658203 446.6923828125 C 160.5706329345703 446.04644775390625 170.39361572265625 456.1073913574219 167.63430786132812 435.3852844238281 C 167.14930725097656 430.9764709472656 169.59912109375 450.67303466796875 167.13119506835938 437.1819763183594"/>
    <path stroke-width="0" fill="rgb(176, 153, 186)" opacity="0.7043792" stroke="rgb(66, 116, 174)" stroke-opacity="1.0" stroke-linecap="round" stroke-linejoin="round" d="M 240.60476684570312 368.5608825683594 C 206.55355834960938 365.6191101074219 194.0537567138672 362.3941345214844 237.16175842285156 374.3179931640625 C 198.52947998046875 363.1632995605469 192.0297088623047 354.0146484375 153.9255828857422 333.9839782714844 C 188.85874938964844 351.1427307128906 196.5108642578125 365.86602783203125 235.24974060058594 369.35504150390625 C 59.85303497314453 375.323974609375 89.02754974365234 363.565185546875 240.60476684570312 368.5608825683594"/>
    <path stroke-width="0" fill="rgb(18, 13, 15)" opacity="0.85608476" stroke="rgb(14, 177, 198)" stroke-opacity="1.0" stroke-linecap="round" stroke-linejoin="round" d="M 357.0453186035156 356.4469909667969 C 383.6845397949219 361.7677307128906 372.93011474609375 359.1725769042969 398.2451477050781 359.4980163574219 C 420.44482421875 349.0993347167969 415.22528076171875 345.8434143066406 413.6165466308594 342.98260498046875 C 425.7737731933594 366.9257507324219 415.6585693359375 333.6503601074219 411.69140625 355.3507080078125 C 428.6445007324219 372.5838623046875 378.361083984375 355.246337890625 357.0453186035156 356.4469909667969"/>
    <path stroke-width="0" fill="rgb(45, 47, 58)" opacity="0.8773134" stroke="rgb(66, 95, 149)" stroke-opacity="1.0" stroke-linecap="round" stroke-linejoin="round" d="M 431.0074157714844 519.805908203125 C 411.1902770996094 490.1759338378906 449.05560302734375 495.7869567871094 438.6195373535156 498.9062194824219 C 439.750732421875 500.7008056640625 405.3722229003906 499.6875305175781 337.9456787109375 501.93719482421875 C 405.25518798828125 506.254150390625 440.6588134765625 511.0238952636719 448.1270446777344 502.53521728515625 C 395.4951171875 471.40069580078125 428.9204406738281 510.4297790527344 431.0074157714844 519.805908203125"/>
    <path stroke-width="0" fill="rgb(45, 30, 42)" opacity="0.7771172" stroke="rgb(203, 19, 132)" stroke-opacity="1.0" stroke-linecap="round" stroke-linejoin="round" d="M 574.8391723632812 512.376708984375 C 538.9564208984375 499.7135314941406 248.78700256347656 513.2720336914062 195.38812255859375 500.5298156738281 C 449.23577880859375 498.3529357910156 495.9687805175781 504.0183410644531 504.8038330078125 490.2043762207031 C 529.1255493164062 496.61737060546875 578.4472045898438 491.1408386230469 412.7449035644531 489.8634948730469 C 506.4334716796875 486.6257019042969 469.54534912109375 495.0904235839844 574.8391723632812 512.376708984375"/>
    <path stroke-width="0" fill="rgb(238, 245, 243)" opacity="0.8622047" stroke="rgb(70, 32, 100)" stroke-opacity="1.0" stroke-linecap="round" stroke-linejoin="round" d="M 404.3294677734375 87.60364532470703 C 420.3877868652344 78.12586212158203 435.7213134765625 86.92780303955078 405.7652282714844 93.03767395019531 C 410.131103515625 92.81484985351562 436.1297607421875 81.41317749023438 420.0926208496094 91.3472900390625 C 426.7914733886719 92.36555480957031 424.06903076171875 74.87400817871094 402.4960021972656 86.55451965332031 C 388.24981689453125 94.2701187133789 395.6786193847656 92.79949951171875 404.3294677734375 87.60364532470703"/>
    <path stroke-width="0" fill="rgb(31, 22, 43)" opacity="0.9426851" stroke="rgb(47, 230, 138)" stroke-opacity="1.0" stroke-linecap="round" stroke-linejoin="round" d="M 229.58895874023438 451.2200622558594 C 225.9524383544922 433.30169677734375 235.9990692138672 439.3514709472656 230.81277465820312 451.16937255859375 C 431.8806457519531 454.0914611816406 403.0181884765625 444.3253173828125 260.0880126953125 449.8213806152344 C 257.0918884277344 422.821533203125 279.226806640625 459.794677734375 242.67156982421875 450.00213623046875 C 250.10818481445312 450.90814208984375 225.43316650390625 446.1339111328125 229.58895874023438 451.2200622558594"/>
    <path stroke-width="0" fill="rgb(201, 181, 208)" opacity="0.7259003" stroke="rgb(230, 175, 178)" stroke-opacity="1.0" stroke-linecap="round" stroke-linejoin="round" d="M 177.06996154785156 367.6181945800781 C 180.28321838378906 377.8631591796875 233.82176208496094 362.6304931640625 258.7332458496094 363.4152526855469 C 228.20030212402344 364.70489501953125 228.3947296142578 360.3775634765625 240.6943817138672 370.61212158203125 C 229.60992431640625 372.1313781738281 224.88534545898438 369.8710021972656 418.9516906738281 370.8641662597656 C 116.58029174804688 356.9508972167969 315.03338623046875 381.6521911621094 177.06996154785156 367.6181945800781"/>
    <path stroke-width="0" fill="rgb(214, 227, 234)" opacity="0.40901425" stroke="rgb(192, 162, 61)" stroke-opacity="1.0" stroke-linecap="round" stroke-linejoin="round" d="M 454.35546875 290.2049560546875 C 462.76513671875 292.0329895019531 439.2745361328125 294.8522033691406 446.9800720214844 256.8587646484375 C 442.6055603027344 280.70965576171875 449.7624206542969 288.6606750488281 458.1904296875 292.0127868652344 C 462.154296875 297.2469482421875 469.56939697265625 295.2635498046875 451.2859802246094 328.3690490722656 C 466.78558349609375 297.8119812011719 467.2952575683594 297.8771667480469 454.35546875 290.2049560546875"/>
    <path stroke-width="0" fill="rgb(117, 125, 136)" opacity="0.7388471" stroke="rgb(209, 231, 207)" stroke-opacity="1.0" stroke-linecap="round" stroke-linejoin="round" d="M 555.6134643554688 498.82122802734375 C 398.6300964355469 504.2576904296875 430.36199951171875 489.5203552246094 427.1876220703125 519.141357421875 C 428.23492431640625 509.7701110839844 426.1837158203125 518.6493530273438 422.3229064941406 509.6884460449219 C 437.3942565917969 479.9283752441406 394.6222839355469 496.1758728027344 498.54736328125 493.0600280761719 C 434.54443359375 468.59234619140625 417.4367980957031 482.583740234375 555.6134643554688 498.82122802734375"/>
    <path stroke-width="0" fill="rgb(49, 71, 86)" opacity="0.82688564" stroke="rgb(160, 101, 15)" stroke-opacity="1.0" stroke-linecap="round" stroke-linejoin="round" d="M 387.81988525390625 272.3732604980469 C 488.0177307128906 272.7281494140625 242.63116455078125 243.1741485595703 297.0208740234375 204.45249938964844 C 459.3574523925781 204.4919891357422 408.50335693359375 189.20738220214844 412.80523681640625 269.1222229003906 C 356.9055480957031 248.70338439941406 365.2110290527344 262.64349365234375 288.30767822265625 224.32542419433594 C 297.27276611328125 282.47149658203125 260.06488037109375 271.8997497558594 387.81988525390625 272.3732604980469"/>
    <path stroke-width="0" fill="rgb(30, 33, 25)" opacity="0.9673333" stroke="rgb(65, 216, 8)" stroke-opacity="1.0" stroke-linecap="round" stroke-linejoin="round" d="M 231.6141357421875 491.6764831542969 C 220.1331024169922 489.0422058105469 124.20723724365234 487.6751708984375 -117.18170166015625 489.7354736328125 C 237.12933349609375 496.1682434082031 210.36595153808594 483.3489074707031 204.8992156982422 505.6191711425781 C 194.36395263671875 483.74493408203125 193.13238525390625 498.1437683105469 298.21966552734375 491.56829833984375 C 178.38600158691406 491.0168762207031 198.62660217285156 494.79962158203125 231.6141357421875 491.6764831542969"/>
    <path stroke-width="0" fill="rgb(21, 31, 49)" opacity="0.7941537" stroke="rgb(90, 90, 4)" stroke-opacity="1.0" stroke-linecap="round" stroke-linejoin="round" d="M 278.8599548339844 437.6636657714844 C 276.736083984375 431.3514404296875 278.9410705566406 439.8154602050781 290.73590087890625 438.1738586425781 C 302.9596862792969 448.8351745605469 287.2283020019531 438.35693359375 287.9864807128906 434.138671875 C 292.0357971191406 469.0062255859375 363.3189392089844 441.25439453125 286.92852783203125 451.83636474609375 C 302.5595397949219 440.9409484863281 301.92626953125 444.2935791015625 278.8599548339844 437.6636657714844"/>
    <path stroke-width="0" fill="rgb(35, 23, 16)" opacity="0.7485414" stroke="rgb(102, 236, 25)" stroke-opacity="1.0" stroke-linecap="round" stroke-linejoin="round" d="M -25.082292556762695 437.6688537597656 C 58.768829345703125 449.1396179199219 25.670120239257812 432.8189697265625 -6.961166858673096 440.3166198730469 C 127.29972839355469 440.4753112792969 155.51869201660156 418.3775329589844 -73.46998596191406 426.4955749511719 C 147.9401397705078 435.34228515625 107.37907409667969 420.1231994628906 81.11515045166016 439.99591064453125 C 45.06898880004883 443.0703125 24.30055046081543 439.0614013671875 -25.082292556762695 437.6688537597656"/>
    <path stroke-width="0" fill="rgb(77, 84, 64)" opacity="0.93766654" stroke="rgb(221, 115, 83)" stroke-opacity="1.0" stroke-linecap="round" stroke-linejoin="round" d="M 558.860107421875 363.0865783691406 C 451.5632629394531 347.64404296875 432.5068359375 367.7897644042969 451.9703674316406 359.5788879394531 C 474.76116943359375 356.6731262207031 466.1335144042969 354.4346923828125 467.45013427734375 357.07440185546875 C 481.6930236816406 356.05950927734375 430.6527404785156 356.5335693359375 116.28614044189453 357.04681396484375 C 403.43890380859375 365.5793151855469 487.40716552734375 355.50360107421875 558.860107421875 363.0865783691406"/>
    <path stroke-width="0" fill="rgb(48, 50, 79)" opacity="0.49419135" stroke="rgb(33, 3, 29)" stroke-opacity="1.0" stroke-linecap="round" stroke-linejoin="round" d="M 434.9408874511719 508.994140625 C 455.1875915527344 491.417724609375 453.855712890625 513.0502319335938 451.2671813964844 518.5145263671875 C 438.9063720703125 488.72216796875 472.2779235839844 513.1952514648438 458.15972900390625 488.425048828125 C 442.7873840332031 541.677734375 478.2430725097656 525.948974609375 450.47271728515625 526.4185180664062 C 446.2312316894531 505.04254150390625 451.83447265625 492.6004333496094 434.9408874511719 508.994140625"/>
    <path stroke-width="0" fill="rgb(105, 110, 126)" opacity="0.442728" stroke="rgb(162, 125, 252)" stroke-opacity="1.0" stroke-linecap="round" stroke-linejoin="round" d="M 231.56790161132812 116.50933837890625 C 241.46275329589844 93.24961853027344 239.4482879638672 98.74374389648438 235.48245239257812 104.13313293457031 C 234.75747680664062 103.26696014404297 235.8155517578125 103.88773345947266 234.12355041503906 104.30261993408203 C 237.030517578125 103.32646179199219 244.266357421875 91.85851287841797 244.96890258789062 70.29864501953125 C 244.92459106445312 88.5829849243164 238.05311584472656 100.64945220947266 231.56790161132812 116.50933837890625"/>
    <path stroke-width="0" fill="rgb(25, 28, 32)" opacity="0.9525444" stroke="rgb(199, 73, 61)" stroke-opacity="1.0" stroke-linecap="round" stroke-linejoin="round" d="M 419.747314453125 440.2738037109375 C 347.9791564941406 432.8328552246094 389.92803955078125 468.2900390625 622.310791015625 439.4096374511719 C 293.37432861328125 466.07696533203125 489.9273376464844 416.9805603027344 369.9138488769531 450.67999267578125 C 451.7164611816406 450.4512939453125 391.2704772949219 456.07037353515625 437.5356140136719 436.587158203125 C 312.814697265625 450.1571960449219 366.65252685546875 433.3125 419.747314453125 440.2738037109375"/>
    <path stroke-width="0" fill="rgb(18, 8, 15)" opacity="0.7743873" stroke="rgb(62, 169, 131)" stroke-opacity="1.0" stroke-linecap="round" stroke-linejoin="round" d="M -23.456754684448242 366.9776611328125 C 10.783781051635742 441.6786193847656 -12.185037612915039 457.9698486328125 -51.385982513427734 435.2879943847656 C 27.892192840576172 427.7895202636719 40.11088943481445 427.3550720214844 40.54307174682617 451.8638916015625 C 24.26913070678711 438.7619934082031 59.927772521972656 428.40228271484375 -2.9023728370666504 432.4100341796875 C 26.114734649658203 465.574462890625 -1.7048530578613281 461.4732971191406 -23.456754684448242 366.9776611328125"/>
    <path stroke-width="0" fill="rgb(41, 31, 31)" opacity="0.8484512" stroke="rgb(141, 73, 180)" stroke-opacity="1.0" stroke-linecap="round" stroke-linejoin="round" d="M 374.0533447265625 450.4676818847656 C 355.7964782714844 455.7982177734375 355.14263916015625 439.1231384277344 358.0067138671875 436.1051330566406 C 362.8390808105469 463.9610595703125 329.69964599609375 444.376220703125 359.1519470214844 449.2804870605469 C 358.2579650878906 451.1853332519531 341.73248291015625 430.4317321777344 396.104736328125 438.15667724609375 C 352.05511474609375 432.12408447265625 347.6287536621094 454.9417419433594 374.0533447265625 450.4676818847656"/>
    <path stroke-width="0" fill="rgb(220, 199, 231)" opacity="0.69383776" stroke="rgb(247, 230, 75)" stroke-opacity="1.0" stroke-linecap="round" stroke-linejoin="round" d="M 466.4827575683594 367.4487609863281 C 413.5447998046875 365.1739501953125 350.6632995605469 371.8056945800781 459.6713562011719 370.65106201171875 C 452.89788818359375 360.95989990234375 460.35955810546875 361.02532958984375 466.7265930175781 370.3002624511719 C 526.334716796875 376.118408203125 591.8988037109375 366.5466613769531 465.41729736328125 366.44549560546875 C 471.77374267578125 376.956787109375 474.66217041015625 383.14990234375 466.4827575683594 367.4487609863281"/>
    <path stroke-width="0" fill="rgb(108, 109, 129)" opacity="0.49039513" stroke="rgb(63, 27, 242)" stroke-opacity="1.0" stroke-linecap="round" stroke-linejoin="round" d="M 212.82583618164062 111.52850341796875 C 198.1318359375 100.05953216552734 186.79202270507812 89.75752258300781 187.24038696289062 98.44810485839844 C 195.15841674804688 85.56233978271484 190.98695373535156 97.12775421142578 187.95663452148438 91.85247802734375 C 201.8950653076172 106.59042358398438 205.06561279296875 96.5901107788086 197.7756805419922 111.44213104248047 C 203.28721618652344 97.84370422363281 203.3716583251953 105.98993682861328 212.82583618164062 111.52850341796875"/>
    <path stroke-width="0" fill="rgb(210, 207, 192)" opacity="0.62774414" stroke="rgb(69, 96, 95)" stroke-opacity="1.0" stroke-linecap="round" stroke-linejoin="round" d="M 327.9096374511719 74.23480987548828 C 352.82159423828125 85.6492691040039 296.3058776855469 61.03535461425781 370.4020690917969 92.05086517333984 C 386.79913330078125 88.86962890625 362.5450439453125 98.85457611083984 355.71087646484375 94.21198272705078 C 282.860107421875 96.34635925292969 252.50885009765625 89.7006607055664 363.1497497558594 99.34717559814453 C 372.97894287109375 90.72310638427734 357.88604736328125 85.49845123291016 327.9096374511719 74.23480987548828"/>
    <path stroke-width="0" fill="rgb(44, 36, 54)" opacity="0.8497513" stroke="rgb(60, 43, 114)" stroke-opacity="1.0" stroke-linecap="round" stroke-linejoin="round" d="M 434.8897705078125 346.282470703125 C 419.4297790527344 334.43463134765625 424.23931884765625 336.1487121582031 429.69970703125 372.59051513671875 C 440.8955383300781 357.6300964355469 417.69085693359375 375.14996337890625 418.4468078613281 326.3849182128906 C 417.43145751953125 351.4280090332031 455.14605712890625 359.87164306640625 451.8149719238281 314.2911682128906 C 419.53802490234375 366.47564697265625 439.1163635253906 357.05682373046875 434.8897705078125 346.282470703125"/>
    <path stroke-width="0" fill="rgb(36, 43, 52)" opacity="0.6530588" stroke="rgb(213, 60, 128)" stroke-opacity="1.0" stroke-linecap="round" stroke-linejoin="round" d="M 318.1457824707031 160.9458465576172 C 328.52490234375 113.60957336425781 316.82684326171875 129.3354034423828 317.1852722167969 129.5514373779297 C 328.0995788574219 123.28490447998047 316.93310546875 124.71397399902344 320.11346435546875 125.60807037353516 C 322.3160400390625 121.77628326416016 324.9687805175781 138.8666229248047 318.184326171875 159.37498474121094 C 321.55682373046875 140.03269958496094 320.32745361328125 137.90798950195312 318.1457824707031 160.9458465576172"/>
    <path stroke-width="0" fill="rgb(51, 46, 50)" opacity="0.585623" stroke="rgb(161, 221, 239)" stroke-opacity="1.0" stroke-linecap="round" stroke-linejoin="round" d="M 148.357177734375 451.4567565917969 C 227.67803955078125 429.6632080078125 224.3479461669922 419.396240234375 230.28504943847656 443.96270751953125 C 247.668701171875 435.51275634765625 255.78152465820312 433.3241271972656 237.89639282226562 440.25732421875 C 211.73095703125 450.5647888183594 241.38351440429688 456.4674377441406 227.5159149169922 441.4322509765625 C 222.88015747070312 420.244140625 223.6237335205078 431.40264892578125 148.357177734375 451.4567565917969"/>
    <path stroke-width="0" fill="rgb(2, 26, 10)" opacity="0.6598902" stroke="rgb(228, 103, 140)" stroke-opacity="1.0" stroke-linecap="round" stroke-linejoin="round" d="M 219.96990966796875 431.5242919921875 C 11.87390422821045 424.89337158203125 -85.4059829711914 433.3475341796875 150.07337951660156 431.07232666015625 C 180.57884216308594 433.36798095703125 154.155029296875 420.0723571777344 167.66311645507812 450.1401062011719 C 162.15863037109375 426.9601745605469 173.51719665527344 437.99432373046875 156.40933227539062 439.6395263671875 C 179.87738037109375 428.6378173828125 121.70660400390625 431.6603088378906 219.96990966796875 431.5242919921875"/>
    <path stroke-width="0" fill="rgb(256, 257, 258)" opacity="0.6647675" stroke="rgb(116, 102, 63)" stroke-opacity="1.0" stroke-linecap="round" stroke-linejoin="round" d="M 457.96624755859375 112.94525146484375 C 448.9764099121094 119.08061981201172 459.08984375 116.39370727539062 476.5552673339844 119.94837188720703 C 449.8392333984375 128.11195373535156 457.5355529785156 108.35546875 481.0843811035156 118.52886962890625 C 469.5896301269531 117.59846496582031 459.7359619140625 108.08085632324219 443.3358459472656 113.9315185546875 C 500.67889404296875 121.55052947998047 508.234130859375 129.7998809814453 457.96624755859375 112.94525146484375"/>
    <path stroke-width="0" fill="rgb(110, 126, 122)" opacity="0.2338802" stroke="rgb(85, 235, 219)" stroke-opacity="1.0" stroke-linecap="round" stroke-linejoin="round" d="M 460.1611328125 151.37757873535156 C 468.4376220703125 109.93695068359375 451.07403564453125 125.68572998046875 441.98956298828125 115.91736602783203 C 433.3415832519531 112.82283782958984 427.1900939941406 117.08885192871094 427.8377990722656 117.28987884521484 C 442.7830810546875 111.1176986694336 436.91595458984375 119.28118896484375 457.8851318359375 121.52005004882812 C 456.19342041015625 119.6883544921875 468.0263977050781 127.34024047851562 460.1611328125 151.37757873535156"/>
    <path stroke-width="0" fill="rgb(240, 244, 243)" opacity="0.7685855" stroke="rgb(64, 113, 26)" stroke-opacity="1.0" stroke-linecap="round" stroke-linejoin="round" d="M 477.6817932128906 88.08338928222656 C 458.56793212890625 82.52140808105469 478.6145324707031 103.52826690673828 487.7254638671875 93.52999877929688 C 445.2564392089844 83.370849609375 437.011474609375 68.95918273925781 445.2547912597656 91.77484893798828 C 494.20501708984375 98.88557434082031 499.121826171875 89.09320831298828 485.553955078125 81.04763793945312 C 461.80316162109375 94.77362823486328 479.1424865722656 101.2023696899414 477.6817932128906 88.08338928222656"/>
    <path stroke-width="0" fill="rgb(221, 208, 157)" opacity="0.8285936" stroke="rgb(0, 0, 0)" stroke-opacity="0.0" stroke-linecap="round" stroke-linejoin="round" d="M 275.05316162109375 17.411060333251953 C 274.935302734375 22.996360778808594 272.2438049316406 25.917970657348633 267.2580261230469 26.62187385559082 C 261.9887390136719 26.253204345703125 258.299560546875 23.500715255737305 257.5845031738281 18.043127059936523 C 258.64599609375 12.524218559265137 262.1615295410156 9.969368934631348 266.4532775878906 10.194036483764648 C 272.4608459472656 10.40743637084961 275.3917236328125 12.776018142700195 275.05316162109375 17.411060333251953"/>
    <path stroke-width="0" fill="rgb(194, 164, 179)" opacity="0.3386018" stroke="rgb(0, 0, 0)" stroke-opacity="0.0" stroke-linecap="round" stroke-linejoin="round" d="M 6.549494743347168 5.714012145996094 C 5.501312255859375 10.057060241699219 3.2380428314208984 13.604719161987305 0.25670725107192993 16.32541847229004 C -3.9176852703094482 14.928001403808594 -6.577632427215576 11.606084823608398 -7.633078575134277 7.568233013153076 C -6.56112003326416 3.56783390045166 -3.6329166889190674 0.6396306753158569 0.9744219183921814 -0.8443206548690796 C 5.394718170166016 -0.21757903695106506 7.914326190948486 2.455983877182007 6.549494743347168 5.714012145996094"/>
    <path stroke-width="0" fill="rgb(221, 220, 202)" opacity="0.7823517" stroke="rgb(0, 0, 0)" stroke-opacity="0.0" stroke-linecap="round" stroke-linejoin="round" d="M 50.9405517578125 25.124019622802734 C 50.73999786376953 29.55759620666504 46.97563552856445 31.74338722229004 42.32130432128906 33.06516647338867 C 38.35912322998047 33.0557975769043 34.90434265136719 30.36606216430664 33.863929748535156 25.944623947143555 C 35.652976989746094 20.91873550415039 38.83921432495117 17.988277435302734 42.49066925048828 17.47588348388672 C 47.97786331176758 18.25660514831543 51.084686279296875 20.424453735351562 50.9405517578125 25.124019622802734"/>
    <path stroke-width="0" fill="rgb(180, 152, 206)" opacity="0.9292954" stroke="rgb(0, 0, 0)" stroke-opacity="0.0" stroke-linecap="round" stroke-linejoin="round" d="M 25.64410400390625 11.00877571105957 C 27.11220932006836 14.058394432067871 24.083040237426758 16.0655517578125 18.72467803955078 17.24871253967285 C 15.164313316345215 16.64877700805664 12.96012020111084 13.397476196289062 12.715030670166016 9.738173484802246 C 13.071516990661621 5.530298233032227 15.866301536560059 3.1380913257598877 19.901941299438477 1.6773649454116821 C 22.83207130432129 2.5796875953674316 25.094234466552734 6.581005096435547 25.64410400390625 11.00877571105957"/>
    <path stroke-width="0" fill="rgb(216, 191, 88)" opacity="0.5973171" stroke="rgb(0, 0, 0)" stroke-opacity="0.0" stroke-linecap="round" stroke-linejoin="round" d="M 107.77043151855469 2.640713691711426 C 105.2822494506836 6.54124116897583 103.16666412353516 10.220513343811035 100.18026733398438 11.618807792663574 C 96.8895263671875 11.45457935333252 94.5369644165039 8.226987838745117 93.90694427490234 3.1232285499572754 C 92.6572265625 -0.9548459053039551 95.27845001220703 -3.6721408367156982 100.21833801269531 -4.242816925048828 C 105.26908874511719 -3.0603795051574707 108.31143951416016 -0.11564077436923981 107.77043151855469 2.640713691711426"/>
    <path stroke-width="0" fill="rgb(238, 179, 212)" opacity="0.5074722" stroke="rgb(0, 0, 0)" stroke-opacity="0.0" stroke-linecap="round" stroke-linejoin="round" d="M 134.69203186035156 20.07358741760254 C 135.16610717773438 23.745180130004883 132.6711883544922 26.238910675048828 129.4062957763672 25.392065048217773 C 125.17080688476562 24.643692016601562 121.7137680053711 22.523143768310547 121.11380004882812 18.1132869720459 C 120.09410095214844 14.469612121582031 124.1867446899414 12.923574447631836 128.7946319580078 12.476852416992188 C 131.3173828125 12.794835090637207 134.32546997070312 16.0162353515625 134.69203186035156 20.07358741760254"/>
    <path stroke-width="0" fill="rgb(87, 24, 55)" opacity="0.32726187" stroke="rgb(0, 0, 0)" stroke-opacity="0.0" stroke-linecap="round" stroke-linejoin="round" d="M 270.69287109375 279.99658203125 C 269.77117919921875 283.524658203125 266.90203857421875 286.2842102050781 262.69342041015625 287.380126953125 C 258.9128112792969 287.2313537597656 255.84800720214844 284.63580322265625 256.3545227050781 280.6421813964844 C 256.9081726074219 276.69805908203125 260.48101806640625 274.4603576660156 264.44561767578125 273.34808349609375 C 266.6422119140625 273.7056884765625 269.42718505859375 276.8628845214844 270.69287109375 279.99658203125"/>
    <path stroke-width="0" fill="rgb(80, 84, 6)" opacity="0.031973984" stroke="rgb(0, 0, 0)" stroke-opacity="0.0" stroke-linecap="round" stroke-linejoin="round" d="M 310.2635803222656 370.3577880859375 C 309.0703125 373.37640380859375 306.0898132324219 376.4016418457031 302.3078918457031 377.72418212890625 C 298.5568542480469 376.7900390625 295.5699157714844 373.9298095703125 294.1811828613281 369.9201965332031 C 295.4705810546875 365.793701171875 298.57550048828125 363.0304870605469 302.5220947265625 361.5657958984375 C 306.0763244628906 363.3150329589844 309.0443420410156 366.31787109375 310.2635803222656 370.3577880859375"/>
    <path stroke-width="0" fill="rgb(193, 191, 217)" opacity="0.66917074" stroke="rgb(0, 0, 0)" stroke-opacity="0.0" stroke-linecap="round" stroke-linejoin="round" d="M 385.53564453125 323.0606994628906 C 385.66302490234375 325.32415771484375 382.40966796875 327.78985595703125 378.6466979980469 328.8872985839844 C 375.3368835449219 328.3065185546875 372.0995178222656 325.4501647949219 371.67236328125 322.2501525878906 C 372.9176025390625 318.5429992675781 375.9173278808594 315.9037170410156 379.18084716796875 315.1488037109375 C 381.8153991699219 315.9029846191406 384.5007019042969 318.9904479980469 385.53564453125 323.0606994628906"/>
    <path stroke-width="0" fill="rgb(149, 8, 254)" opacity="0.131576" stroke="rgb(0, 0, 0)" stroke-opacity="0.0" stroke-linecap="round" stroke-linejoin="round" d="M -175.21389770507812 51.31589126586914 C -176.28570556640625 55.31589126586914 -179.21389770507812 58.24409484863281 -183.21389770507812 59.31589126586914 C -187.21389770507812 58.24409484863281 -190.14210510253906 55.31589126586914 -191.21389770507812 51.31589126586914 C -190.14210510253906 47.31589126586914 -187.21389770507812 44.387691497802734 -183.21389770507812 43.31589126586914 C -179.21389770507812 44.387691497802734 -176.28570556640625 47.31589126586914 -175.21389770507812 51.31589126586914"/>
    <path stroke-width="0" fill="rgb(51, 30, 184)" opacity="0.4175493" stroke="rgb(0, 0, 0)" stroke-opacity="0.0" stroke-linecap="round" stroke-linejoin="round" d="M 171.63035583496094 17.303800582885742 C 171.40354919433594 20.738569259643555 168.24020385742188 23.387475967407227 163.89089965820312 24.618999481201172 C 160.63368225097656 23.827669143676758 158.0289764404297 20.69036293029785 156.66455078125 16.70460319519043 C 157.20526123046875 12.112367630004883 159.69894409179688 9.094727516174316 163.9053955078125 8.204850196838379 C 168.12120056152344 10.089621543884277 170.66952514648438 13.516392707824707 171.63035583496094 17.303800582885742"/>
    <path stroke-width="0" fill="rgb(234, 104, 77)" opacity="0.94306225" stroke="rgb(0, 0, 0)" stroke-opacity="0.0" stroke-linecap="round" stroke-linejoin="round" d="M 115.86470031738281 -10.069193840026855 C 114.79290771484375 -6.069194316864014 111.86470031738281 -3.140990972518921 107.86470031738281 -2.0691940784454346 C 103.86470031738281 -3.140990972518921 100.9365005493164 -6.069194316864014 99.86470031738281 -10.069193840026855 C 100.9365005493164 -14.069193840026855 103.86470031738281 -16.99739646911621 107.86470031738281 -18.069194793701172 C 111.86470031738281 -16.99739646911621 114.79290771484375 -14.069193840026855 115.86470031738281 -10.069193840026855"/>
    <path stroke-width="0" fill="rgb(34, 168, 209)" opacity="0.6670475" stroke="rgb(0, 0, 0)" stroke-opacity="0.0" stroke-linecap="round" stroke-linejoin="round" d="M 145.50633239746094 92.99159240722656 C 145.39541625976562 97.4061508178711 142.5690460205078 100.23239135742188 138.30528259277344 100.9872055053711 C 133.18707275390625 100.03169250488281 130.15676879882812 97.47090148925781 129.60086059570312 93.59419250488281 C 131.11788940429688 88.78502655029297 133.9264678955078 86.06863403320312 138.40899658203125 84.52046203613281 C 142.18701171875 85.37545776367188 144.90370178222656 88.51534271240234 145.50633239746094 92.99159240722656"/>
    <path stroke-width="0" fill="rgb(155, 226, 240)" opacity="0.04436498" stroke="rgb(0, 0, 0)" stroke-opacity="0.0" stroke-linecap="round" stroke-linejoin="round" d="M 203.69012451171875 201.3335723876953 C 202.80267333984375 205.22698974609375 200.08837890625 207.9763946533203 195.78350830078125 209.3844757080078 C 191.96060180664062 208.3798065185547 188.96554565429688 205.65228271484375 188.3062286376953 202.0519561767578 C 190.47781372070312 198.59051513671875 193.2041015625 195.1848907470703 196.27340698242188 193.23728942871094 C 199.74693298339844 194.78689575195312 202.68438720703125 197.77841186523438 203.69012451171875 201.3335723876953"/>
    <path stroke-width="0" fill="rgb(88, 132, 159)" opacity="0.6989009" stroke="rgb(0, 0, 0)" stroke-opacity="0.0" stroke-linecap="round" stroke-linejoin="round" d="M 65.82955932617188 99.19355773925781 C 64.3042984008789 102.5508041381836 60.2845344543457 104.62014770507812 57.54924774169922 105.77156829833984 C 55.15491485595703 104.1769027709961 51.895286560058594 101.4400863647461 49.32986068725586 97.85713195800781 C 50.37936782836914 95.1057357788086 53.791893005371094 92.69293212890625 57.12677764892578 92.31519317626953 C 60.27168655395508 93.21483612060547 63.8510856628418 95.94696044921875 65.82955932617188 99.19355773925781"/>
    <path stroke-width="0" fill="rgb(213, 195, 85)" opacity="0.85869956" stroke="rgb(0, 0, 0)" stroke-opacity="0.0" stroke-linecap="round" stroke-linejoin="round" d="M 144.75291442871094 86.61066436767578 C 144.41827392578125 90.38168334960938 141.83038330078125 93.7204360961914 137.24452209472656 94.08919525146484 C 133.13803100585938 93.05665588378906 130.92926025390625 89.46170806884766 129.8065643310547 84.93267822265625 C 129.68820190429688 81.27788543701172 132.6399688720703 78.9343490600586 136.57687377929688 79.21546936035156 C 140.50315856933594 79.57433319091797 143.4000701904297 82.44860076904297 144.75291442871094 86.61066436767578"/>
    <path stroke-width="0" fill="rgb(113, 163, 31)" opacity="0.62957066" stroke="rgb(0, 0, 0)" stroke-opacity="0.0" stroke-linecap="round" stroke-linejoin="round" d="M 8.672526359558105 140.14256286621094 C 5.675434112548828 142.32608032226562 2.1602020263671875 145.05099487304688 -1.2326315641403198 147.12765502929688 C -3.827881336212158 147.11428833007812 -6.740414619445801 144.15208435058594 -7.811920166015625 140.15110778808594 C -6.740122318267822 136.15110778808594 -3.811269760131836 133.22520446777344 -1.5161080360412598 133.8194122314453 C 3.599156141281128 134.35888671875 7.186698913574219 136.4004669189453 8.672526359558105 140.14256286621094"/>
    <path stroke-width="0" fill="rgb(130, 122, 198)" opacity="0.9509274" stroke="rgb(0, 0, 0)" stroke-opacity="0.0" stroke-linecap="round" stroke-linejoin="round" d="M 22.595821380615234 13.13154125213623 C 21.727880477905273 17.477397918701172 18.865907669067383 20.28583335876465 14.98825740814209 20.506528854370117 C 10.10020923614502 19.82480812072754 6.830806255340576 17.139902114868164 5.907957077026367 12.995193481445312 C 7.401648998260498 9.33259105682373 10.897737503051758 6.784832000732422 15.289356231689453 5.146080017089844 C 19.30785369873047 5.090651988983154 21.750253677368164 8.019439697265625 22.595821380615234 13.13154125213623"/>
    <path stroke-width="0" fill="rgb(22, 57, 41)" opacity="0.17966135" stroke="rgb(0, 0, 0)" stroke-opacity="0.0" stroke-linecap="round" stroke-linejoin="round" d="M 154.04248046875 201.82237243652344 C 153.6255340576172 205.82493591308594 149.92835998535156 207.95863342285156 145.69320678710938 208.80255126953125 C 141.6171112060547 207.92652893066406 138.62120056152344 205.15077209472656 137.628662109375 201.34889221191406 C 139.53021240234375 198.2006378173828 142.81961059570312 195.36843872070312 145.63494873046875 194.2951202392578 C 148.33853149414062 195.42510986328125 151.138427734375 198.50721740722656 154.04248046875 201.82237243652344"/>
    <path stroke-width="0" fill="rgb(242, 70, 183)" opacity="0.8379368" stroke="rgb(0, 0, 0)" stroke-opacity="0.0" stroke-linecap="round" stroke-linejoin="round" d="M 351.7031555175781 240.92771911621094 C 351.2185363769531 245.53192138671875 348.7539367675781 248.43687438964844 344.4039611816406 248.3390350341797 C 339.3497009277344 247.93890380859375 336.43304443359375 245.4332275390625 336.4801940917969 241.36859130859375 C 337.5501708984375 237.53819274902344 340.6055603027344 234.56271362304688 343.8916320800781 234.3553009033203 C 346.8252868652344 234.91229248046875 350.18438720703125 237.63233947753906 351.7031555175781 240.92771911621094"/>
    <path stroke-width="0" fill="rgb(118, 135, 114)" opacity="0.35398266" stroke="rgb(0, 0, 0)" stroke-opacity="0.0" stroke-linecap="round" stroke-linejoin="round" d="M 241.19677734375 305.72283935546875 C 240.71951293945312 309.38897705078125 237.6009063720703 311.9897766113281 233.5307159423828 312.40545654296875 C 229.67489624023438 312.04656982421875 226.257080078125 309.4263000488281 225.04347229003906 305.3786315917969 C 226.4287567138672 301.209228515625 229.83102416992188 298.9106750488281 233.45289611816406 298.21319580078125 C 236.77255249023438 299.0341796875 239.69830322265625 302.0944519042969 241.19677734375 305.72283935546875"/>
    <path stroke-width="0" fill="rgb(214, 191, 81)" opacity="0.35453814" stroke="rgb(0, 0, 0)" stroke-opacity="0.0" stroke-linecap="round" stroke-linejoin="round" d="M 55.16154861450195 85.29183959960938 C 54.205299377441406 89.09970092773438 51.40623092651367 92.00198364257812 46.92402267456055 94.3613052368164 C 44.528282165527344 91.67455291748047 42.024330139160156 87.94742584228516 40.889801025390625 84.6856918334961 C 41.13862991333008 81.57010650634766 43.7064094543457 78.59709167480469 47.49431228637695 77.95497131347656 C 51.092411041259766 79.06603240966797 54.12309265136719 81.60681915283203 55.16154861450195 85.29183959960938"/>
    <path stroke-width="0" fill="rgb(54, 20, 103)" opacity="0.6355513" stroke="rgb(0, 0, 0)" stroke-opacity="0.0" stroke-linecap="round" stroke-linejoin="round" d="M 185.0565948486328 33.26394271850586 C 184.45887756347656 36.771080017089844 181.43260192871094 39.56941604614258 176.932373046875 40.16533660888672 C 174.14955139160156 38.70634841918945 171.000732421875 35.53141784667969 169.4958038330078 33.488563537597656 C 171.34780883789062 29.12952995300293 173.27757263183594 25.49503517150879 177.99241638183594 25.00542640686035 C 181.70706176757812 24.729141235351562 183.65394592285156 28.424530029296875 185.0565948486328 33.26394271850586"/>
    <path stroke-width="0" fill="rgb(62, 86, 48)" opacity="0.80297536" stroke="rgb(0, 0, 0)" stroke-opacity="0.0" stroke-linecap="round" stroke-linejoin="round" d="M 35.987762451171875 -25.967348098754883 C 34.91596603393555 -21.967348098754883 31.987762451171875 -19.03914451599121 27.987762451171875 -17.967348098754883 C 23.987762451171875 -19.03914451599121 21.059558868408203 -21.967348098754883 19.987762451171875 -25.967348098754883 C 21.059558868408203 -29.967348098754883 23.987762451171875 -32.89554977416992 27.987762451171875 -33.967350006103516 C 31.987762451171875 -32.89554977416992 34.91596603393555 -29.967348098754883 35.987762451171875 -25.967348098754883"/>
    <path stroke-width="0" fill="rgb(37, 226, 33)" opacity="0.13751432" stroke="rgb(0, 0, 0)" stroke-opacity="0.0" stroke-linecap="round" stroke-linejoin="round" d="M 165.47630310058594 407.97613525390625 C 164.0648193359375 411.7955017089844 161.52793884277344 415.03912353515625 157.9608917236328 415.6662902832031 C 154.1953887939453 414.49334716796875 151.40708923339844 411.4607238769531 149.9672393798828 408.414306640625 C 151.16143798828125 404.8525390625 154.25152587890625 401.95404052734375 158.02928161621094 400.44171142578125 C 161.02719116210938 401.6963806152344 164.25770568847656 404.6038818359375 165.47630310058594 407.97613525390625"/>
    <path stroke-width="0" fill="rgb(115, 191, 230)" opacity="0.7349631" stroke="rgb(0, 0, 0)" stroke-opacity="0.0" stroke-linecap="round" stroke-linejoin="round" d="M 63.44279861450195 289.7251892089844 C 62.98479461669922 294.264892578125 60.91510772705078 297.4664306640625 55.70650863647461 298.5542297363281 C 50.89681625366211 297.8372802734375 48.373779296875 294.8464660644531 48.78112030029297 290.3172912597656 C 49.52036666870117 286.3330078125 53.10878372192383 283.8431701660156 56.62564468383789 282.312255859375 C 59.56818389892578 283.4228515625 62.29547119140625 286.2623596191406 63.44279861450195 289.7251892089844"/>
    <path stroke-width="0" fill="rgb(130, 112, 55)" opacity="0.31296146" stroke="rgb(0, 0, 0)" stroke-opacity="0.0" stroke-linecap="round" stroke-linejoin="round" d="M 14.99463176727295 4.8743577003479 C 12.619351387023926 8.0265474319458 9.081042289733887 10.640206336975098 5.053947448730469 12.287707328796387 C 1.0359642505645752 12.424933433532715 -1.512977957725525 9.24825382232666 -2.1632556915283203 4.756204605102539 C -0.975378692150116 0.6108296513557434 1.9402565956115723 -2.3297364711761475 5.76815128326416 -3.3917369842529297 C 9.686184883117676 -2.2632312774658203 12.727144241333008 0.639694333076477 14.99463176727295 4.8743577003479"/>
    <path stroke-width="0" fill="rgb(0, 215, 39)" opacity="0.20414427" stroke="rgb(0, 0, 0)" stroke-opacity="0.0" stroke-linecap="round" stroke-linejoin="round" d="M -86.75666809082031 -87.14227294921875 C -87.8284683227539 -83.14227294921875 -90.75666809082031 -80.21407318115234 -94.75666809082031 -79.14227294921875 C -98.75666809082031 -80.21407318115234 -101.68487548828125 -83.14227294921875 -102.75666809082031 -87.14227294921875 C -101.68487548828125 -91.14227294921875 -98.75666809082031 -94.07048034667969 -94.75666809082031 -95.14227294921875 C -90.75666809082031 -94.07048034667969 -87.8284683227539 -91.14227294921875 -86.75666809082031 -87.14227294921875"/>
    <path stroke-width="0" fill="rgb(198, 208, 238)" opacity="0.113896646" stroke="rgb(0, 0, 0)" stroke-opacity="0.0" stroke-linecap="round" stroke-linejoin="round" d="M 460.75994873046875 105.9312744140625 C 460.007568359375 109.80017852783203 457.0365295410156 112.84437561035156 453.4737243652344 113.76892852783203 C 449.0014343261719 112.50662231445312 445.9922180175781 109.66301727294922 444.9684753417969 106.31977081298828 C 446.67474365234375 102.49043273925781 449.50286865234375 99.10442352294922 453.1844787597656 97.3385238647461 C 456.6524963378906 98.95755767822266 459.58013916015625 101.9867172241211 460.75994873046875 105.9312744140625"/>
    <path stroke-width="0" fill="rgb(69, 47, 46)" opacity="0.47050458" stroke="rgb(0, 0, 0)" stroke-opacity="0.0" stroke-linecap="round" stroke-linejoin="round" d="M 388.4969177246094 100.91937255859375 C 387.56817626953125 104.62991333007812 384.51031494140625 107.29999542236328 380.01702880859375 108.28687286376953 C 375.9398498535156 107.60064697265625 373.1712951660156 104.76080322265625 372.4908142089844 100.07640838623047 C 372.76153564453125 95.72369384765625 375.8865661621094 93.24623107910156 380.24444580078125 93.12983703613281 C 384.3706359863281 93.47537231445312 387.3446960449219 96.28539276123047 388.4969177246094 100.91937255859375"/>
    <path stroke-width="0" fill="rgb(11, 97, 29)" opacity="0.45787135" stroke="rgb(0, 0, 0)" stroke-opacity="0.0" stroke-linecap="round" stroke-linejoin="round" d="M 172.57626342773438 219.1037139892578 C 172.4224090576172 223.20751953125 169.3871612548828 225.88775634765625 164.91612243652344 226.65298461914062 C 160.36427307128906 225.82754516601562 158.13763427734375 222.60292053222656 158.2658233642578 218.94491577148438 C 158.50453186035156 214.99972534179688 161.40223693847656 212.40867614746094 165.4320068359375 211.10064697265625 C 168.1514892578125 211.9573516845703 171.2715301513672 214.91575622558594 172.57626342773438 219.1037139892578"/>
  </g>
</svg>
