<?xml version="1.0" ?>
<svg xmlns="http://www.w3.org/2000/svg" version="1.1" width="512" height="512">
  <defs/>
  <g>
    <path stroke-width="0" fill="rgb(-23, -59, 19)" opacity="1.2476895" stroke="rgb(139, 182, 153)" stroke-opacity="1.0" stroke-linecap="round" stroke-linejoin="round" d="M 577.2264404296875 162.17874145507812 C 473.98345947265625 157.4754638671875 255.95510864257812 160.57229614257812 22.840579986572266 156.4588623046875 C 149.9614715576172 41.40039825439453 217.20492553710938 78.77104187011719 174.48895263671875 -25.099302291870117 C 185.01902770996094 -33.60383224487305 197.35633850097656 -35.491127014160156 255.7933349609375 -34.27490997314453 C 358.9736328125 -48.58330154418945 437.4599914550781 -146.71115112304688 577.2264404296875 162.17874145507812"/>
    <path stroke-width="0" fill="rgb(38, 73, 7)" opacity="0.55638427" stroke="rgb(108, 164, 111)" stroke-opacity="1.0" stroke-linecap="round" stroke-linejoin="round" d="M 318.00018310546875 715.7144775390625 C -124.65148162841797 751.4412841796875 7.088341236114502 371.58441162109375 42.775428771972656 83.50531768798828 C 293.0481872558594 122.73342895507812 289.8204040527344 118.47431945800781 280.1459045410156 40.89720916748047 C 284.2266845703125 -66.92325592041016 317.0650329589844 -46.443145751953125 442.3717346191406 -36.365211486816406 C 639.143310546875 -2.5854287147521973 854.1314086914062 240.14646911621094 318.00018310546875 715.7144775390625"/>
    <path stroke-width="0" fill="rgb(73, 142, 98)" opacity="1.0844635" stroke="rgb(245, 97, 201)" stroke-opacity="1.0" stroke-linecap="round" stroke-linejoin="round" d="M 363.8681945800781 88.64399719238281 C 332.82684326171875 106.1446304321289 323.19793701171875 110.54843139648438 87.74090576171875 106.38899230957031 C 110.6676025390625 103.6150894165039 112.05255126953125 111.51028442382812 120.72222900390625 67.0373764038086 C 135.6087188720703 -33.50758361816406 141.19656372070312 -41.69476318359375 172.11192321777344 -45.90186309814453 C 295.908935546875 -31.14438247680664 322.3116149902344 -40.41108322143555 363.8681945800781 88.64399719238281"/>
    <path stroke-width="0" fill="rgb(6, 3, 10)" opacity="1.0909572" stroke="rgb(144, 236, 18)" stroke-opacity="1.0" stroke-linecap="round" stroke-linejoin="round" d="M 259.31646728515625 87.53376770019531 C 198.05088806152344 108.51608276367188 294.424560546875 71.42314147949219 528.6289672851562 140.43243408203125 C 122.30728149414062 149.7611083984375 14.430055618286133 89.65099334716797 -32.49684524536133 235.47630310058594 C -45.53935623168945 -103.79988098144531 -12.785496711730957 -54.71656799316406 149.20785522460938 -35.06520462036133 C 204.74923706054688 -43.75870895385742 223.2073211669922 -50.44420623779297 259.31646728515625 87.53376770019531"/>
    <path stroke-width="0" fill="rgb(279, 268, 278)" opacity="1.024042" stroke="rgb(5, 212, 198)" stroke-opacity="1.0" stroke-linecap="round" stroke-linejoin="round" d="M 497.3296813964844 247.63819885253906 C 468.0953369140625 181.70111083984375 272.98492431640625 191.58450317382812 294.6385803222656 221.4889373779297 C 193.0716094970703 181.32327270507812 156.27757263183594 183.75108337402344 130.54061889648438 159.773193359375 C 77.2596206665039 157.69122314453125 81.05552673339844 156.19837951660156 503.6943664550781 156.24986267089844 C 500.7262268066406 160.9286651611328 502.3988037109375 142.2891387939453 497.3296813964844 247.63819885253906"/>
    <path stroke-width="0" fill="rgb(232, 224, 196)" opacity="0.55000263" stroke="rgb(30, 163, 36)" stroke-opacity="1.0" stroke-linecap="round" stroke-linejoin="round" d="M 643.0451049804688 410.7602844238281 C 467.04052734375 437.9355773925781 172.63316345214844 405.570068359375 165.37916564941406 431.079833984375 C 283.2208251953125 420.6227111816406 323.61199951171875 423.16180419921875 -24.754100799560547 431.29144287109375 C 200.64993286132812 401.3678283691406 231.5261688232422 422.38427734375 57.439414978027344 409.2346496582031 C 127.86031341552734 420.6932678222656 305.0764465332031 403.84716796875 643.0451049804688 410.7602844238281"/>
    <path stroke-width="0" fill="rgb(225, 175, 155)" opacity="0.44665635" stroke="rgb(133, 105, 67)" stroke-opacity="1.0" stroke-linecap="round" stroke-linejoin="round" d="M 575.6760864257812 380.7540588378906 C 753.2013549804688 400.49212646484375 596.5709228515625 394.9612731933594 67.14006042480469 401.92266845703125 C 182.03843688964844 394.4007873535156 -88.07882690429688 416.0204772949219 -62.1965217590332 382.8647155761719 C 519.893310546875 383.4912414550781 495.3509826660156 386.4985046386719 444.7681579589844 378.7803039550781 C 393.6903991699219 382.4888916015625 407.1138000488281 378.4194030761719 575.6760864257812 380.7540588378906"/>
    <path stroke-width="0" fill="rgb(212, 192, 167)" opacity="1.0036829" stroke="rgb(116, 144, 4)" stroke-opacity="1.0" stroke-linecap="round" stroke-linejoin="round" d="M 597.3893432617188 422.10650634765625 C -83.69303894042969 420.4004821777344 19.135637283325195 423.41888427734375 72.88111877441406 421.2569580078125 C 219.5196990966797 408.83428955078125 -65.10021209716797 439.6980285644531 -80.44326782226562 412.68292236328125 C 77.69242095947266 411.9183349609375 251.1140594482422 409.1994323730469 305.1563720703125 405.5062561035156 C 127.60096740722656 418.81561279296875 224.81565856933594 392.3293762207031 597.3893432617188 422.10650634765625"/>
    <path stroke-width="0" fill="rgb(274, 269, 271)" opacity="1.0139699" stroke="rgb(156, 157, 240)" stroke-opacity="1.0" stroke-linecap="round" stroke-linejoin="round" d="M 498.2602844238281 273.7100524902344 C 461.1299743652344 305.8474426269531 616.4201049804688 299.7123107910156 -41.27524185180664 304.2851257324219 C -90.18468475341797 259.8608703613281 -100.71915435791016 271.1968078613281 248.405029296875 274.82666015625 C 265.70989990234375 262.47161865234375 252.53167724609375 125.25790405273438 283.0519104003906 162.74819946289062 C 326.9088134765625 310.967041015625 215.06198120117188 248.9602508544922 498.2602844238281 273.7100524902344"/>
    <path stroke-width="0" fill="rgb(212, 201, 146)" opacity="0.861587" stroke="rgb(91, 111, 177)" stroke-opacity="1.0" stroke-linecap="round" stroke-linejoin="round" d="M 593.6571044921875 404.06805419921875 C 476.7110595703125 451.01226806640625 263.3559875488281 371.83660888671875 169.61927795410156 419.08856201171875 C 242.84178161621094 410.369140625 242.70773315429688 420.9254455566406 213.93609619140625 413.9190673828125 C 260.164794921875 417.2150573730469 282.5743103027344 437.64544677734375 152.8414764404297 404.4708557128906 C 183.6042022705078 418.7053527832031 479.07501220703125 399.627685546875 593.6571044921875 404.06805419921875"/>
    <path stroke-width="0" fill="rgb(269, 266, 269)" opacity="1.000675" stroke="rgb(170, 171, 53)" stroke-opacity="1.0" stroke-linecap="round" stroke-linejoin="round" d="M 491.6058654785156 166.33447265625 C 279.979736328125 220.73533630371094 743.671630859375 200.14459228515625 25.79688262939453 202.6258087158203 C 35.601348876953125 213.23074340820312 -58.6350212097168 219.0884246826172 -52.284427642822266 157.3742218017578 C 123.52142333984375 158.05044555664062 196.5872802734375 156.75653076171875 237.4532470703125 158.99859619140625 C 141.25082397460938 157.83213806152344 200.164306640625 151.46812438964844 491.6058654785156 166.33447265625"/>
    <path stroke-width="0" fill="rgb(142, 149, 91)" opacity="1.1091932" stroke="rgb(80, 92, 145)" stroke-opacity="1.0" stroke-linecap="round" stroke-linejoin="round" d="M 520.3951416015625 102.89917755126953 C 433.3841552734375 77.24112701416016 499.210693359375 87.37690734863281 429.9773864746094 64.52919006347656 C 313.0889587402344 67.8335952758789 348.9809875488281 42.10221481323242 355.1944885253906 -0.7571253180503845 C 356.9758605957031 -22.202505111694336 361.8409118652344 -30.034442901611328 371.5995178222656 -29.841609954833984 C 384.31744384765625 55.45487976074219 501.9856262207031 -11.203838348388672 520.3951416015625 102.89917755126953"/>
    <path stroke-width="0" fill="rgb(279, 270, 271)" opacity="1.0439488" stroke="rgb(252, 26, 53)" stroke-opacity="1.0" stroke-linecap="round" stroke-linejoin="round" d="M 445.9013977050781 35.39923858642578 C 396.5494689941406 47.23260498046875 356.74334716796875 72.98583221435547 355.48211669921875 64.20720672607422 C 388.2314758300781 129.44627380371094 325.26055908203125 96.45984649658203 302.52947998046875 39.675758361816406 C 325.4871826171875 15.511019706726074 339.3831481933594 12.930890083312988 418.1396789550781 -1.8847854137420654 C 414.90679931640625 17.102476119995117 446.7911682128906 3.959111213684082 445.9013977050781 35.39923858642578"/>
    <path stroke-width="0" fill="rgb(12, 7, -14)" opacity="0.9168446" stroke="rgb(166, 64, 118)" stroke-opacity="1.0" stroke-linecap="round" stroke-linejoin="round" d="M 134.1494140625 395.4510192871094 C 229.29722595214844 402.5712585449219 117.78551483154297 401.0721435546875 -83.14048767089844 401.8647155761719 C 11.738360404968262 411.1156921386719 -49.74982833862305 409.7933349609375 72.21266174316406 409.41253662109375 C 107.29451751708984 405.774658203125 133.93377685546875 407.5501403808594 254.2858123779297 403.49676513671875 C 74.66976928710938 391.61810302734375 95.26847839355469 393.1266174316406 134.1494140625 395.4510192871094"/>
    <path stroke-width="0" fill="rgb(80, 95, 109)" opacity="0.9181411" stroke="rgb(40, 28, 167)" stroke-opacity="1.0" stroke-linecap="round" stroke-linejoin="round" d="M 418.5368957519531 -32.526832580566406 C 434.95263671875 21.90387725830078 455.85662841796875 62.61548614501953 446.01910400390625 1.501054048538208 C 386.59857177734375 -19.31195831298828 374.35198974609375 -16.449148178100586 312.05523681640625 -19.66069984436035 C 315.1639404296875 -29.508440017700195 323.5223083496094 -35.45821762084961 394.3455505371094 -33.86525344848633 C 406.1054382324219 -37.010616302490234 415.6422424316406 -32.56230163574219 418.5368957519531 -32.526832580566406"/>
    <path stroke-width="0" fill="rgb(222, 264, 272)" opacity="0.96440977" stroke="rgb(50, 94, 209)" stroke-opacity="1.0" stroke-linecap="round" stroke-linejoin="round" d="M 482.3844909667969 106.16374206542969 C 400.7158508300781 86.78591918945312 371.218017578125 91.99540710449219 337.6004638671875 96.5910873413086 C 396.3680419921875 100.1434555053711 374.374755859375 104.73334503173828 201.4475860595703 101.38082885742188 C 420.7963562011719 82.033935546875 374.9794616699219 103.53565979003906 386.30023193359375 83.4910659790039 C 377.0653076171875 71.33716583251953 493.4739990234375 61.393959045410156 482.3844909667969 106.16374206542969"/>
    <path stroke-width="0" fill="rgb(159, 158, 112)" opacity="1.0062479" stroke="rgb(213, 24, 248)" stroke-opacity="1.0" stroke-linecap="round" stroke-linejoin="round" d="M 475.6856384277344 40.05738067626953 C 463.9476318359375 57.74893569946289 427.8841857910156 57.43272399902344 329.9850769042969 84.47969818115234 C 279.70745849609375 92.05345916748047 216.63189697265625 78.49333953857422 -89.50485229492188 88.48027801513672 C -40.06278991699219 -346.3504638671875 68.1061782836914 -207.80335998535156 423.18084716796875 -84.74834442138672 C 471.7017822265625 -57.29277038574219 491.78070068359375 -58.86750793457031 475.6856384277344 40.05738067626953"/>
    <path stroke-width="0" fill="rgb(277, 279, 287)" opacity="1.0414463" stroke="rgb(249, 154, 188)" stroke-opacity="1.0" stroke-linecap="round" stroke-linejoin="round" d="M -15.002306938171387 79.0931167602539 C 328.87542724609375 81.80522918701172 254.01638793945312 74.8448715209961 -50.7728385925293 101.08354949951172 C 207.51058959960938 102.11632537841797 175.30104064941406 99.32884216308594 134.27734375 102.5296401977539 C 169.72410583496094 98.02133178710938 231.86990356445312 120.59619903564453 361.4668884277344 79.87886810302734 C 27.775014877319336 76.32095336914062 112.86945343017578 118.14324951171875 -15.002306938171387 79.0931167602539"/>
    <path stroke-width="0" fill="rgb(156, 157, 111)" opacity="0.6951808" stroke="rgb(72, 30, 75)" stroke-opacity="1.0" stroke-linecap="round" stroke-linejoin="round" d="M 268.11126708984375 46.41301727294922 C 299.3367614746094 76.48118591308594 376.52685546875 85.9154052734375 271.5930480957031 64.06068420410156 C 225.56141662597656 75.77476501464844 208.99227905273438 81.98823547363281 201.2364044189453 -7.498382568359375 C 262.51806640625 -37.65595626831055 279.69085693359375 -34.56483840942383 302.49420166015625 -30.739627838134766 C 374.1366271972656 -24.624317169189453 375.0596618652344 -16.21329689025879 268.11126708984375 46.41301727294922"/>
    <path stroke-width="0" fill="rgb(213, 231, 194)" opacity="0.7160872" stroke="rgb(81, 105, 16)" stroke-opacity="1.0" stroke-linecap="round" stroke-linejoin="round" d="M 547.23291015625 68.59605407714844 C 546.9356689453125 103.32501220703125 533.772705078125 109.36691284179688 529.4307250976562 56.918495178222656 C 419.0877380371094 54.289249420166016 452.9949951171875 63.9652099609375 465.17926025390625 41.70663070678711 C 365.06793212890625 41.24010467529297 412.4569091796875 -20.87042999267578 389.9582214355469 -24.1140079498291 C 418.3310241699219 85.91631317138672 489.7144775390625 -4.368008613586426 547.23291015625 68.59605407714844"/>
    <path stroke-width="0" fill="rgb(-14, -7, -6)" opacity="1.0030625" stroke="rgb(144, 67, 133)" stroke-opacity="1.0" stroke-linecap="round" stroke-linejoin="round" d="M 131.6545867919922 407.5014953613281 C 122.82284545898438 399.6534423828125 97.39759826660156 417.75762939453125 -69.08790588378906 401.9932556152344 C 217.04249572753906 396.02117919921875 291.49658203125 393.1095275878906 262.9948425292969 399.3212585449219 C 145.71453857421875 403.3612976074219 172.5243377685547 389.5549011230469 254.86216735839844 405.0441589355469 C 106.31941986083984 408.011962890625 121.1634750366211 403.32305908203125 131.6545867919922 407.5014953613281"/>
    <path stroke-width="0" fill="rgb(273, 270, 267)" opacity="1.0763365" stroke="rgb(146, 236, 81)" stroke-opacity="1.0" stroke-linecap="round" stroke-linejoin="round" d="M 432.47406005859375 184.4768524169922 C 435.0435791015625 222.0999755859375 436.5202941894531 294.7267761230469 429.3092041015625 271.54608154296875 C 362.9741516113281 294.4250793457031 416.0199890136719 237.25906372070312 396.038330078125 264.4732666015625 C 400.25164794921875 141.07501220703125 368.7126770019531 249.39425659179688 441.0625 172.326416015625 C 443.5512390136719 196.81582641601562 443.66412353515625 245.4117431640625 432.47406005859375 184.4768524169922"/>
    <path stroke-width="0" fill="rgb(-5, -12, -2)" opacity="0.99156326" stroke="rgb(33, 182, 73)" stroke-opacity="1.0" stroke-linecap="round" stroke-linejoin="round" d="M 304.2110900878906 398.5008239746094 C 255.17213439941406 398.9150390625 262.9985656738281 400.34222412109375 669.3870239257812 396.1700439453125 C 549.552734375 416.8420104980469 283.9609069824219 395.8402404785156 286.21160888671875 405.53564453125 C 323.765625 394.3728942871094 321.5079650878906 395.52960205078125 98.96495056152344 397.50189208984375 C 278.8641052246094 409.069580078125 297.0597839355469 407.22802734375 304.2110900878906 398.5008239746094"/>
    <path stroke-width="0" fill="rgb(204, 196, 149)" opacity="0.7938556" stroke="rgb(149, 5, 211)" stroke-opacity="1.0" stroke-linecap="round" stroke-linejoin="round" d="M 520.4197387695312 291.5010986328125 C 494.4620361328125 303.3656005859375 491.4595642089844 298.1402282714844 507.5591125488281 48.10581588745117 C 441.1069641113281 1.320711374282837 469.7945861816406 102.53553771972656 489.0556640625 -56.17267608642578 C 423.89288330078125 -32.06654739379883 433.3778381347656 -36.32387161254883 469.7552490234375 -42.66332244873047 C 555.4288330078125 -45.57939910888672 543.9959106445312 -55.355979919433594 520.4197387695312 291.5010986328125"/>
    <path stroke-width="0" fill="rgb(263, 257, 256)" opacity="1.0504239" stroke="rgb(172, 68, 187)" stroke-opacity="1.0" stroke-linecap="round" stroke-linejoin="round" d="M 259.6112365722656 119.47925567626953 C 241.9269256591797 128.06161499023438 289.9078674316406 123.75955200195312 262.4576110839844 127.68030548095703 C 291.8900451660156 118.72071075439453 265.0046081542969 139.8987274169922 16.98518943786621 108.4848861694336 C 632.8731689453125 107.28233337402344 605.1885375976562 106.36685943603516 514.310546875 137.93710327148438 C 432.8769226074219 113.52412414550781 225.17416381835938 135.90640258789062 259.6112365722656 119.47925567626953"/>
    <path stroke-width="0" fill="rgb(-15, -25, 0)" opacity="0.98294306" stroke="rgb(63, 146, 150)" stroke-opacity="1.0" stroke-linecap="round" stroke-linejoin="round" d="M 383.3052673339844 107.86705780029297 C -21.424774169921875 102.93281555175781 26.230491638183594 102.48649597167969 470.34765625 101.1127700805664 C 160.54483032226562 89.00922393798828 -142.67930603027344 102.64944458007812 205.177490234375 94.3786849975586 C 171.36451721191406 93.92253875732422 -10.196372985839844 103.29186248779297 -93.12869262695312 84.82524108886719 C 544.8478393554688 86.94623565673828 276.0069274902344 77.33838653564453 383.3052673339844 107.86705780029297"/>
    <path stroke-width="0" fill="rgb(274, 271, 276)" opacity="1.00399" stroke="rgb(56, 242, 114)" stroke-opacity="1.0" stroke-linecap="round" stroke-linejoin="round" d="M -19.539409637451172 135.73117065429688 C -135.8049774169922 149.4770050048828 -12.94468879699707 143.03323364257812 712.9700317382812 146.20516967773438 C 661.95703125 118.7289047241211 392.2669372558594 126.80601501464844 20.843603134155273 124.18570709228516 C -76.0508804321289 129.98023986816406 -154.03958129882812 85.11734771728516 253.60687255859375 124.1419677734375 C -38.0927734375 126.7136459350586 -92.21100616455078 119.34081268310547 -19.539409637451172 135.73117065429688"/>
    <path stroke-width="0" fill="rgb(29, 34, 13)" opacity="0.9591367" stroke="rgb(178, 75, 207)" stroke-opacity="1.0" stroke-linecap="round" stroke-linejoin="round" d="M 186.25518798828125 325.489501953125 C 114.63279724121094 311.05914306640625 128.25576782226562 294.8100891113281 246.43138122558594 306.32330322265625 C 189.92227172851562 327.86767578125 110.49977111816406 326.4435729980469 34.23576354980469 321.3255920410156 C 155.00985717773438 308.28399658203125 182.27960205078125 322.2359313964844 118.36296081542969 321.7864990234375 C 132.82423400878906 326.5554504394531 146.6055908203125 309.6043395996094 186.25518798828125 325.489501953125"/>
    <path stroke-width="0" fill="rgb(280, 262, 279)" opacity="1.0488819" stroke="rgb(224, 148, 224)" stroke-opacity="1.0" stroke-linecap="round" stroke-linejoin="round" d="M 481.9490966796875 316.1893310546875 C 482.0201416015625 253.62887573242188 488.6305847167969 273.6420593261719 482.6340637207031 285.9720764160156 C 471.0032958984375 271.89129638671875 482.4221496582031 239.52711486816406 465.8556213378906 190.72923278808594 C 477.3002014160156 238.18885803222656 472.3395080566406 220.75357055664062 496.12884521484375 208.1926727294922 C 498.4767761230469 257.2378845214844 499.3357238769531 347.50384521484375 481.9490966796875 316.1893310546875"/>
    <path stroke-width="0" fill="rgb(42, 13, -24)" opacity="1.0266764" stroke="rgb(184, 127, 243)" stroke-opacity="1.0" stroke-linecap="round" stroke-linejoin="round" d="M 108.25534057617188 328.155517578125 C -22.745149612426758 332.99908447265625 -36.883358001708984 317.61383056640625 -0.23197604715824127 356.3721618652344 C 20.3575439453125 289.6219482421875 2.2095370292663574 356.63037109375 -64.00899505615234 322.99462890625 C 30.791616439819336 310.47412109375 61.10325241088867 308.2802734375 81.48036193847656 311.8371887207031 C 24.901647567749023 305.6928405761719 45.873741149902344 291.3103942871094 108.25534057617188 328.155517578125"/>
    <path stroke-width="0" fill="rgb(5, 1, 18)" opacity="1.0880152" stroke="rgb(108, 154, 4)" stroke-opacity="1.0" stroke-linecap="round" stroke-linejoin="round" d="M 191.067626953125 312.6796569824219 C 281.45556640625 334.5981140136719 184.8602294921875 299.5741882324219 285.5672607421875 330.3815612792969 C 50.14390182495117 327.628173828125 -24.216981887817383 334.61114501953125 173.2261199951172 311.81121826171875 C 187.04586791992188 304.8290100097656 186.02249145507812 302.32757568359375 165.40098571777344 312.6203918457031 C 189.24917602539062 322.79644775390625 192.12722778320312 320.1095275878906 191.067626953125 312.6796569824219"/>
    <path stroke-width="0" fill="rgb(10, 36, 77)" opacity="0.63204265" stroke="rgb(168, 73, 157)" stroke-opacity="1.0" stroke-linecap="round" stroke-linejoin="round" d="M 289.3203430175781 329.9224548339844 C 166.5057830810547 312.71856689453125 134.82083129882812 319.0287170410156 410.8062438964844 301.89044189453125 C 367.61614990234375 300.7339172363281 117.07669067382812 300.63446044921875 -106.87335205078125 300.291259765625 C 162.05349731445312 366.0099182128906 215.35935974121094 277.0951843261719 180.73681640625 320.8307800292969 C 181.17149353027344 325.00128173828125 216.27928161621094 304.740966796875 289.3203430175781 329.9224548339844"/>
    <path stroke-width="0" fill="rgb(-9, 11, 4)" opacity="0.7557635" stroke="rgb(34, 76, 145)" stroke-opacity="1.0" stroke-linecap="round" stroke-linejoin="round" d="M 224.7251739501953 321.8439025878906 C 172.70989990234375 302.7918395996094 159.81338500976562 288.75323486328125 113.5938949584961 323.58392333984375 C 141.44891357421875 326.2078857421875 136.7842559814453 296.2332763671875 195.5990447998047 325.6416931152344 C 211.4663848876953 322.8761901855469 221.7712860107422 326.7037658691406 193.13343811035156 316.6914367675781 C 170.54766845703125 321.1714782714844 180.3002471923828 327.8102111816406 224.7251739501953 321.8439025878906"/>
    <path stroke-width="0" fill="rgb(-11, -2, -5)" opacity="1.0347073" stroke="rgb(146, 166, 166)" stroke-opacity="1.0" stroke-linecap="round" stroke-linejoin="round" d="M 477.1622314453125 322.89154052734375 C 397.1582336425781 285.4822692871094 298.44775390625 308.8847351074219 175.39630126953125 323.5631408691406 C 343.2996826171875 337.9434509277344 334.4784851074219 325.4463806152344 307.5355529785156 332.7650451660156 C 307.9241027832031 336.34100341796875 293.8907165527344 320.6150207519531 321.3889465332031 346.0616149902344 C 326.9552001953125 344.4319763183594 316.8587341308594 325.129638671875 477.1622314453125 322.89154052734375"/>
    <path stroke-width="0" fill="rgb(194, 191, 129)" opacity="0.75869983" stroke="rgb(228, 93, 111)" stroke-opacity="1.0" stroke-linecap="round" stroke-linejoin="round" d="M 337.41522216796875 361.92474365234375 C 402.5621643066406 367.1281433105469 297.6184997558594 369.43450927734375 310.6851806640625 356.9830322265625 C 329.0968322753906 349.2818908691406 264.8240966796875 344.5512390136719 286.8145446777344 352.0284729003906 C 274.4017333984375 319.2833557128906 284.1191711425781 335.8626403808594 291.933837890625 330.3110046386719 C 342.3757629394531 331.1280212402344 303.4208679199219 321.12255859375 337.41522216796875 361.92474365234375"/>
    <path stroke-width="0" fill="rgb(-21, -17, -15)" opacity="1.0020529" stroke="rgb(205, 179, 25)" stroke-opacity="1.0" stroke-linecap="round" stroke-linejoin="round" d="M 460.52911376953125 327.605712890625 C 616.1610717773438 330.9360656738281 540.2178955078125 331.97222900390625 494.5860595703125 324.7192077636719 C 417.17315673828125 349.2272033691406 406.41192626953125 288.28802490234375 433.4131164550781 306.17626953125 C 513.3446655273438 306.51141357421875 506.25616455078125 284.44793701171875 531.55712890625 294.7425537109375 C 457.5146179199219 292.1584167480469 530.0547485351562 316.14898681640625 460.52911376953125 327.605712890625"/>
    <path stroke-width="0" fill="rgb(23, 147, 78)" opacity="1.0140406" stroke="rgb(182, 254, 38)" stroke-opacity="1.0" stroke-linecap="round" stroke-linejoin="round" d="M 473.68060302734375 169.2568817138672 C 502.079833984375 203.75155639648438 444.5071716308594 204.07078552246094 523.39306640625 205.39010620117188 C 485.6414794921875 206.32928466796875 514.7305297851562 204.3157196044922 490.885009765625 205.298095703125 C 501.2319641113281 204.8405303955078 516.0260009765625 204.6632080078125 434.1527099609375 205.44223022460938 C 447.2528991699219 302.3147888183594 485.8470764160156 301.552734375 473.68060302734375 169.2568817138672"/>
    <path stroke-width="0" fill="rgb(-3, 31, 12)" opacity="0.5228354" stroke="rgb(41, 156, 31)" stroke-opacity="1.0" stroke-linecap="round" stroke-linejoin="round" d="M 13.515852928161621 267.9995422363281 C 37.5931396484375 178.45260620117188 -48.611289978027344 204.58912658691406 254.74822998046875 204.2462158203125 C 186.6148223876953 228.96194458007812 18.71086883544922 173.0005340576172 51.33317184448242 270.9067077636719 C 53.26681137084961 234.1348114013672 32.04407501220703 222.62637329101562 102.87738800048828 209.92105102539062 C -17.182783126831055 215.1910400390625 42.93537902832031 185.22752380371094 13.515852928161621 267.9995422363281"/>
    <path stroke-width="0" fill="rgb(-18, -12, -7)" opacity="0.629169" stroke="rgb(205, 145, 103)" stroke-opacity="1.0" stroke-linecap="round" stroke-linejoin="round" d="M 321.7508850097656 312.64654541015625 C 421.6275329589844 306.5009765625 358.971923828125 326.18524169921875 344.1730651855469 328.1482238769531 C 301.9981384277344 330.4163513183594 227.1893768310547 334.98638916015625 125.44561767578125 315.7586364746094 C -64.52794647216797 306.0057067871094 97.29000854492188 311.4061279296875 485.6585998535156 300.9565124511719 C 337.5033264160156 329.8287658691406 313.8917541503906 282.82122802734375 321.7508850097656 312.64654541015625"/>
    <path stroke-width="0" fill="rgb(-11, -20, -17)" opacity="0.9244057" stroke="rgb(177, 115, 184)" stroke-opacity="1.0" stroke-linecap="round" stroke-linejoin="round" d="M 434.37493896484375 351.19647216796875 C 626.5755615234375 346.4217529296875 666.1309204101562 346.64166259765625 551.3365478515625 380.17523193359375 C 99.47854614257812 378.12213134765625 -11.880999565124512 389.4606628417969 348.3883056640625 349.1683349609375 C 420.6082763671875 355.85638427734375 373.8346862792969 337.2517395019531 377.6069641113281 348.4741516113281 C 307.90093994140625 322.1902160644531 525.6724853515625 322.2451171875 434.37493896484375 351.19647216796875"/>
    <path stroke-width="0" fill="rgb(64, 51, 32)" opacity="0.98166436" stroke="rgb(248, 218, 2)" stroke-opacity="1.0" stroke-linecap="round" stroke-linejoin="round" d="M -53.51618576049805 504.89617919921875 C 479.1898498535156 509.96453857421875 501.3683166503906 493.60968017578125 51.180633544921875 496.2109375 C 62.611087799072266 455.05859375 56.95128631591797 484.23095703125 -32.37785339355469 474.5035095214844 C 61.228919982910156 467.84283447265625 63.05817413330078 475.3841552734375 59.17882537841797 469.958740234375 C 55.269317626953125 520.51416015625 89.93624877929688 480.4822998046875 -53.51618576049805 504.89617919921875"/>
    <path stroke-width="0" fill="rgb(35, 29, 9)" opacity="1.1241149" stroke="rgb(186, 43, 132)" stroke-opacity="1.0" stroke-linecap="round" stroke-linejoin="round" d="M 320.3898010253906 374.1059265136719 C 302.3780212402344 324.6094665527344 320.0475769042969 369.5697937011719 3.862283945083618 358.3081970214844 C 398.2821960449219 355.5185546875 391.5449523925781 357.5529479980469 199.24258422851562 361.0431213378906 C 341.3936462402344 342.6883239746094 208.1676483154297 356.7322998046875 -209.66990661621094 345.4211120605469 C -50.407958984375 377.8317565917969 -30.322250366210938 359.3316650390625 320.3898010253906 374.1059265136719"/>
    <path stroke-width="0" fill="rgb(33, 133, 97)" opacity="0.4064848" stroke="rgb(50, 4, 202)" stroke-opacity="1.0" stroke-linecap="round" stroke-linejoin="round" d="M 457.8311767578125 207.8032989501953 C 480.62127685546875 337.3131103515625 460.2078857421875 203.61680603027344 462.70025634765625 208.81356811523438 C 463.26690673828125 205.3749542236328 465.0521240234375 256.6590270996094 467.7641906738281 219.5562744140625 C 453.7508850097656 314.9597473144531 481.186767578125 256.46697998046875 489.1156311035156 243.60682678222656 C 451.3505859375 294.3218078613281 470.9944763183594 268.7643127441406 457.8311767578125 207.8032989501953"/>
    <path stroke-width="0" fill="rgb(134, 42, -40)" opacity="0.42913294" stroke="rgb(88, 236, 179)" stroke-opacity="1.0" stroke-linecap="round" stroke-linejoin="round" d="M 498.2138671875 144.6150665283203 C 498.6449890136719 157.16604614257812 497.27850341796875 306.1700439453125 492.9757080078125 314.1478576660156 C 474.5849304199219 233.62557983398438 475.48614501953125 245.213134765625 495.3612060546875 319.2995910644531 C 508.47686767578125 188.6228485107422 477.9339599609375 195.31614685058594 534.19775390625 205.96530151367188 C 469.2132568359375 192.13937377929688 508.6765441894531 250.98541259765625 498.2138671875 144.6150665283203"/>
    <path stroke-width="0" fill="rgb(268, 253, 258)" opacity="1.0715729" stroke="rgb(41, 158, 147)" stroke-opacity="1.0" stroke-linecap="round" stroke-linejoin="round" d="M 316.0792236328125 305.4815673828125 C 251.02841186523438 319.8715515136719 211.05014038085938 313.90814208984375 163.0137176513672 317.9111022949219 C 241.94326782226562 310.8800048828125 202.6002655029297 316.22332763671875 84.53730773925781 310.2853088378906 C 208.0447998046875 286.1953430175781 271.1538391113281 311.02880859375 278.9585266113281 298.7635192871094 C 263.15447998046875 316.99237060546875 277.5108947753906 297.27130126953125 316.0792236328125 305.4815673828125"/>
    <path stroke-width="0" fill="rgb(283, 282, 285)" opacity="0.78127867" stroke="rgb(238, 156, 136)" stroke-opacity="1.0" stroke-linecap="round" stroke-linejoin="round" d="M 422.134765625 273.49847412109375 C 438.3757629394531 261.32476806640625 432.65325927734375 276.76263427734375 434.029296875 227.5247802734375 C 434.3819274902344 221.31320190429688 425.3682861328125 210.38241577148438 433.6865234375 277.8564758300781 C 427.3887634277344 282.4472351074219 432.3856506347656 262.81781005859375 416.4603576660156 270.8748779296875 C 422.4710388183594 282.3787841796875 412.6693420410156 252.1305389404297 422.134765625 273.49847412109375"/>
    <path stroke-width="0" fill="rgb(23, 2, 23)" opacity="1.1783158" stroke="rgb(186, 79, 101)" stroke-opacity="1.0" stroke-linecap="round" stroke-linejoin="round" d="M 418.8633117675781 476.13885498046875 C 291.24566650390625 474.407958984375 312.645263671875 470.87445068359375 319.83905029296875 470.7327575683594 C 316.5566101074219 470.7691345214844 283.21453857421875 467.6761779785156 614.1300048828125 470.7870178222656 C 389.8322448730469 487.3482360839844 353.0364990234375 467.26397705078125 202.7207489013672 470.1515197753906 C 145.31976318359375 477.24993896484375 206.45541381835938 473.9886474609375 418.8633117675781 476.13885498046875"/>
    <path stroke-width="0" fill="rgb(-12, -13, -5)" opacity="0.935218" stroke="rgb(47, 240, 188)" stroke-opacity="1.0" stroke-linecap="round" stroke-linejoin="round" d="M 267.4906921386719 357.6282653808594 C 300.210205078125 335.4427795410156 306.2042236328125 365.8564147949219 512.6021118164062 354.7061767578125 C 368.2904357910156 351.45025634765625 346.0268249511719 355.166015625 341.9607238769531 350.68267822265625 C 311.7886047363281 343.76214599609375 339.7718811035156 364.6798400878906 326.3570861816406 319.1577453613281 C 406.70294189453125 287.5548400878906 406.3316955566406 367.2508544921875 267.4906921386719 357.6282653808594"/>
    <path stroke-width="0" fill="rgb(-17, -27, -15)" opacity="1.0094483" stroke="rgb(57, 64, 14)" stroke-opacity="1.0" stroke-linecap="round" stroke-linejoin="round" d="M 478.56011962890625 172.853515625 C 465.2083435058594 249.7440948486328 485.243408203125 455.6720886230469 481.96435546875 180.34690856933594 C 415.7732238769531 186.22958374023438 460.99676513671875 145.56971740722656 437.4430236816406 366.2227478027344 C 430.5787048339844 158.05319213867188 437.14398193359375 181.04660034179688 437.6513671875 176.40675354003906 C 444.5184020996094 163.04193115234375 487.2010498046875 175.2156219482422 478.56011962890625 172.853515625"/>
    <path stroke-width="0" fill="rgb(151, 166, 93)" opacity="1.0032945" stroke="rgb(79, 177, 96)" stroke-opacity="1.0" stroke-linecap="round" stroke-linejoin="round" d="M 633.56640625 78.10342407226562 C 546.7739868164062 162.98252868652344 548.7805786132812 182.0442657470703 508.9711608886719 181.8883056640625 C 491.2514953613281 158.03761291503906 474.66796875 62.27037811279297 483.1911315917969 57.86488723754883 C 528.5498657226562 101.02000427246094 512.6746826171875 75.88111877441406 492.3952331542969 49.405189514160156 C 401.0409851074219 12.87961483001709 439.8540344238281 -92.5225601196289 633.56640625 78.10342407226562"/>
    <path stroke-width="0" fill="rgb(273, 266, 274)" opacity="0.9769432" stroke="rgb(6, 17, 173)" stroke-opacity="1.0" stroke-linecap="round" stroke-linejoin="round" d="M 489.087890625 300.3993835449219 C 508.5551452636719 321.543212890625 475.9139404296875 302.8005065917969 492.5059509277344 308.65472412109375 C 285.5518798828125 307.07928466796875 175.5950164794922 311.56512451171875 149.8086700439453 299.0388488769531 C 300.31744384765625 297.05377197265625 371.3021545410156 298.7301330566406 434.67279052734375 298.09405517578125 C 339.324951171875 296.99652099609375 313.4405212402344 297.5955505371094 489.087890625 300.3993835449219"/>
    <path stroke-width="0" fill="rgb(-1, -11, 4)" opacity="0.9918434" stroke="rgb(136, 228, 252)" stroke-opacity="1.0" stroke-linecap="round" stroke-linejoin="round" d="M -73.97309112548828 473.0194091796875 C 30.74058723449707 465.4784240722656 84.02351379394531 470.9434509277344 30.545801162719727 469.75921630859375 C 87.66310119628906 469.71502685546875 161.262451171875 468.6289367675781 354.6200866699219 470.2231750488281 C 395.046875 480.6639099121094 213.56948852539062 477.5428771972656 25.47016143798828 477.4753112792969 C 54.42036056518555 476.13555908203125 33.57953643798828 481.766357421875 -73.97309112548828 473.0194091796875"/>
    <path stroke-width="0" fill="rgb(26, 41, 26)" opacity="0.8670121" stroke="rgb(169, 67, 5)" stroke-opacity="1.0" stroke-linecap="round" stroke-linejoin="round" d="M 120.0499267578125 321.7260437011719 C 111.21705627441406 342.0476379394531 50.4810791015625 314.97589111328125 22.180341720581055 315.2764587402344 C 114.36731719970703 311.2690124511719 123.10028839111328 316.7519836425781 119.31729125976562 320.2504577636719 C 91.40402221679688 322.10601806640625 101.45563507080078 332.3056640625 135.2017822265625 323.48321533203125 C 50.05388641357422 319.23419189453125 46.92161560058594 300.3526611328125 120.0499267578125 321.7260437011719"/>
    <path stroke-width="0" fill="rgb(275, 266, 274)" opacity="1.0292501" stroke="rgb(81, 97, 150)" stroke-opacity="1.0" stroke-linecap="round" stroke-linejoin="round" d="M 131.90554809570312 321.4762878417969 C 116.79190826416016 311.5924072265625 109.61680603027344 314.6725158691406 113.41675567626953 318.4652404785156 C 135.67359924316406 292.34173583984375 56.03230285644531 335.0186767578125 -60.93625259399414 298.34161376953125 C 208.71939086914062 299.65362548828125 248.0995635986328 299.8321838378906 191.88494873046875 301.12359619140625 C 91.170654296875 323.1784973144531 118.3780288696289 310.3111572265625 131.90554809570312 321.4762878417969"/>
    <path stroke-width="0" fill="rgb(73, 23, 0)" opacity="0.93913084" stroke="rgb(160, 222, 69)" stroke-opacity="1.0" stroke-linecap="round" stroke-linejoin="round" d="M 487.23028564453125 443.7811279296875 C 353.63995361328125 436.2476501464844 414.8440246582031 426.3555908203125 -156.3535919189453 437.603271484375 C 654.4526977539062 457.2855529785156 502.994873046875 418.5011291503906 504.3896179199219 434.0194396972656 C 275.31964111328125 449.5014343261719 546.6728515625 434.8636779785156 249.45008850097656 431.93804931640625 C 508.0128479003906 433.97772216796875 632.5665893554688 432.5283508300781 487.23028564453125 443.7811279296875"/>
    <path stroke-width="0" fill="rgb(-15, -8, -2)" opacity="1.0067788" stroke="rgb(241, 186, 64)" stroke-opacity="1.0" stroke-linecap="round" stroke-linejoin="round" d="M 378.2151794433594 308.5911865234375 C 16.72242546081543 350.1834716796875 -164.48419189453125 328.9554443359375 8.07412338256836 314.87255859375 C 95.12647247314453 313.6971435546875 20.995649337768555 313.88116455078125 -79.50821685791016 318.3377685546875 C -1.3048661947250366 317.52337646484375 34.21998977661133 338.5412292480469 -51.391197204589844 306.0299987792969 C -137.04983520507812 308.6661682128906 124.35941314697266 306.71826171875 378.2151794433594 308.5911865234375"/>
    <path stroke-width="0" fill="rgb(270, 275, 273)" opacity="0.74972117" stroke="rgb(95, 118, 70)" stroke-opacity="1.0" stroke-linecap="round" stroke-linejoin="round" d="M 543.449462890625 198.8776092529297 C 475.3908996582031 161.94378662109375 506.45440673828125 190.72894287109375 495.9215087890625 207.654052734375 C 489.4351501464844 204.64051818847656 495.658935546875 194.14584350585938 495.0308837890625 310.66754150390625 C 475.02362060546875 323.82275390625 484.6498107910156 196.91249084472656 480.5185546875 159.54666137695312 C 506.8412170410156 208.27264404296875 476.8019104003906 208.48902893066406 543.449462890625 198.8776092529297"/>
    <path stroke-width="0" fill="rgb(40, 15, -24)" opacity="1.0117154" stroke="rgb(36, 124, 90)" stroke-opacity="1.0" stroke-linecap="round" stroke-linejoin="round" d="M 343.32379150390625 490.7266845703125 C 347.31939697265625 511.6504211425781 332.15234375 509.5032043457031 465.1679992675781 504.65447998046875 C 384.3650817871094 502.5478210449219 355.5812072753906 494.5597839355469 306.51422119140625 501.5337219238281 C 301.9156799316406 472.9413757324219 327.13751220703125 503.87493896484375 310.64093017578125 496.6115417480469 C 355.0957336425781 507.68951416015625 361.56793212890625 492.41748046875 343.32379150390625 490.7266845703125"/>
    <path stroke-width="0" fill="rgb(198, 143, 199)" opacity="0.62653327" stroke="rgb(140, 149, 245)" stroke-opacity="1.0" stroke-linecap="round" stroke-linejoin="round" d="M 79.24413299560547 385.5437316894531 C 63.7769889831543 368.3232727050781 33.95034408569336 356.61480712890625 87.3192367553711 368.88507080078125 C 126.36674499511719 359.84130859375 110.87381744384766 372.2891540527344 113.43251037597656 373.0196838378906 C 32.09971237182617 373.8245544433594 60.01803207397461 367.1648254394531 89.39571380615234 381.882568359375 C 76.52848815917969 379.5802307128906 79.3049545288086 388.7959899902344 79.24413299560547 385.5437316894531"/>
    <path stroke-width="0" fill="rgb(36, 92, 15)" opacity="0.6058306" stroke="rgb(170, 200, 71)" stroke-opacity="1.0" stroke-linecap="round" stroke-linejoin="round" d="M 360.3647766113281 560.7974853515625 C 346.87908935546875 528.0706176757812 333.8965148925781 499.447265625 354.45269775390625 503.4512023925781 C 435.55029296875 507.7654724121094 344.217529296875 504.60345458984375 314.6077575683594 502.7251892089844 C 360.7524719238281 510.4223937988281 347.73541259765625 471.35797119140625 350.5626525878906 500.30322265625 C 336.9720153808594 518.8308715820312 361.1959533691406 538.0557861328125 360.3647766113281 560.7974853515625"/>
    <path stroke-width="0" fill="rgb(-10, 97, 18)" opacity="0.870499" stroke="rgb(16, 123, 249)" stroke-opacity="1.0" stroke-linecap="round" stroke-linejoin="round" d="M 353.09271240234375 447.2323913574219 C 370.4234619140625 445.3126220703125 331.6885681152344 433.2092590332031 397.31256103515625 443.9732666015625 C 346.4917907714844 436.97430419921875 366.95428466796875 427.66485595703125 357.7261047363281 451.07916259765625 C 400.4472351074219 445.03753662109375 392.1483154296875 453.7579650878906 360.88800048828125 451.0307922363281 C 322.40081787109375 444.2445983886719 322.4427490234375 448.5749816894531 353.09271240234375 447.2323913574219"/>
    <path stroke-width="0" fill="rgb(12, 0, -18)" opacity="1.0526097" stroke="rgb(240, 203, 160)" stroke-opacity="1.0" stroke-linecap="round" stroke-linejoin="round" d="M -22.502477645874023 372.8816223144531 C 32.483154296875 350.4234924316406 30.53877067565918 363.7522277832031 2.5744693279266357 364.5239562988281 C 87.58614349365234 357.031005859375 70.88722229003906 370.0447692871094 86.54043579101562 350.18023681640625 C 57.45803451538086 382.11810302734375 72.34172821044922 338.3804626464844 -33.952308654785156 378.5455017089844 C 143.20401000976562 385.781494140625 380.0247497558594 370.665771484375 -22.502477645874023 372.8816223144531"/>
    <path stroke-width="0" fill="rgb(18, 0, 10)" opacity="1.0409148" stroke="rgb(88, 37, 250)" stroke-opacity="1.0" stroke-linecap="round" stroke-linejoin="round" d="M 351.4120178222656 503.3607177734375 C 337.6939697265625 476.4662170410156 354.745361328125 485.9018249511719 347.52520751953125 541.3629760742188 C 388.862548828125 540.82080078125 371.7387390136719 494.16357421875 388.5325927734375 505.0832214355469 C 389.6195373535156 490.23687744140625 381.7613525390625 455.6805725097656 373.34466552734375 545.5379028320312 C 338.52447509765625 510.15826416015625 350.8222961425781 503.85791015625 351.4120178222656 503.3607177734375"/>
    <path stroke-width="0" fill="rgb(36, -14, 33)" opacity="1.1048735" stroke="rgb(209, 48, 130)" stroke-opacity="1.0" stroke-linecap="round" stroke-linejoin="round" d="M 68.21514892578125 446.9440612792969 C 81.98560333251953 453.2943420410156 13.506890296936035 445.64691162109375 -58.220489501953125 447.27545166015625 C 102.32893371582031 446.5885925292969 103.22400665283203 446.5334777832031 101.07176971435547 448.07958984375 C 91.5619888305664 445.8856201171875 87.73249816894531 446.818603515625 67.91536712646484 450.19085693359375 C 64.16645050048828 411.458251953125 77.26947784423828 455.845947265625 68.21514892578125 446.9440612792969"/>
    <path stroke-width="0" fill="rgb(22, -7, 15)" opacity="1.1629834" stroke="rgb(185, 2, 196)" stroke-opacity="1.0" stroke-linecap="round" stroke-linejoin="round" d="M 106.11537170410156 451.3021240234375 C 88.21261596679688 443.48284912109375 103.38141632080078 433.0856628417969 130.32247924804688 436.57867431640625 C 135.84800720214844 457.7067565917969 122.35759735107422 442.9106750488281 -9.803464889526367 447.30877685546875 C 128.3143310546875 444.45538330078125 137.65524291992188 452.705810546875 135.22618103027344 442.9517822265625 C 136.387939453125 436.6201477050781 91.660888671875 428.27294921875 106.11537170410156 451.3021240234375"/>
    <path stroke-width="0" fill="rgb(39, 23, -1)" opacity="1.225578" stroke="rgb(20, 22, 171)" stroke-opacity="1.0" stroke-linecap="round" stroke-linejoin="round" d="M 460.4955139160156 491.5152282714844 C 439.66497802734375 490.0331726074219 465.718994140625 522.2667846679688 496.2445983886719 494.0288391113281 C 587.0237426757812 484.74786376953125 566.0545043945312 482.77325439453125 131.08447265625 487.6401672363281 C 323.2065734863281 500.2470397949219 611.0678100585938 483.4117126464844 444.5671081542969 499.8276672363281 C 476.6722412109375 495.7909240722656 461.3739318847656 509.0751647949219 460.4955139160156 491.5152282714844"/>
    <path stroke-width="0" fill="rgb(-50, -8, -21)" opacity="1.0745088" stroke="rgb(107, 142, 219)" stroke-opacity="1.0" stroke-linecap="round" stroke-linejoin="round" d="M 345.7585754394531 428.2775573730469 C 288.23992919921875 429.97760009765625 348.4477844238281 427.02392578125 317.65313720703125 436.4992370605469 C 393.4610290527344 441.7784118652344 339.5894775390625 445.1842041015625 318.8533935546875 438.7667236328125 C 341.69287109375 420.5046081542969 301.3450622558594 436.80059814453125 -46.541011810302734 425.15374755859375 C 754.8316040039062 420.96502685546875 733.488525390625 431.5945739746094 345.7585754394531 428.2775573730469"/>
    <path stroke-width="0" fill="rgb(19, 134, 49)" opacity="0.93766004" stroke="rgb(68, 33, 14)" stroke-opacity="1.0" stroke-linecap="round" stroke-linejoin="round" d="M 162.9084930419922 437.611083984375 C 154.3818359375 451.99969482421875 221.22756958007812 443.3070373535156 -65.09774017333984 448.20556640625 C 374.3116760253906 450.91143798828125 426.6749572753906 444.5382080078125 170.5816192626953 446.7236022949219 C 147.64134216308594 450.1863708496094 164.4234619140625 451.5585021972656 169.28839111328125 435.2567138671875 C 169.23402404785156 438.2369689941406 164.82257080078125 456.3158264160156 162.9084930419922 437.611083984375"/>
    <path stroke-width="0" fill="rgb(170, 107, 138)" opacity="0.3773625" stroke="rgb(66, 116, 174)" stroke-opacity="1.0" stroke-linecap="round" stroke-linejoin="round" d="M 240.42486572265625 371.0990905761719 C 205.29945373535156 370.11651611328125 195.47755432128906 363.9269714355469 236.8389434814453 374.42095947265625 C 197.99244689941406 364.1758728027344 189.57778930664062 356.2242431640625 155.79576110839844 332.5653076171875 C 193.5294189453125 347.30224609375 198.44813537597656 364.23712158203125 236.8616485595703 368.77398681640625 C 59.058528900146484 378.4792785644531 89.39685821533203 364.37677001953125 240.42486572265625 371.0990905761719"/>
    <path stroke-width="0" fill="rgb(21, 10, 19)" opacity="0.83979195" stroke="rgb(14, 177, 198)" stroke-opacity="1.0" stroke-linecap="round" stroke-linejoin="round" d="M 354.6040954589844 355.42974853515625 C 382.2901306152344 363.4195251464844 373.94189453125 359.3244934082031 397.3094787597656 359.3878479003906 C 417.427734375 348.34197998046875 410.5254821777344 343.05157470703125 415.6569519042969 340.33123779296875 C 426.85443115234375 373.4122009277344 415.25390625 344.40838623046875 409.52410888671875 367.5561218261719 C 422.4052429199219 375.1670227050781 375.4701843261719 356.38714599609375 354.6040954589844 355.42974853515625"/>
    <path stroke-width="0" fill="rgb(39, 37, 3)" opacity="1.0622313" stroke="rgb(66, 95, 149)" stroke-opacity="1.0" stroke-linecap="round" stroke-linejoin="round" d="M 427.0909118652344 521.7587890625 C 409.4807434082031 491.1667175292969 444.10809326171875 498.15020751953125 437.73779296875 502.5089416503906 C 440.0263671875 501.3900451660156 402.1962585449219 499.2699279785156 340.1844177246094 496.43011474609375 C 407.91802978515625 504.56640625 441.28076171875 510.3213195800781 444.4555969238281 506.2158508300781 C 395.8232421875 472.77813720703125 429.0839538574219 508.84405517578125 427.0909118652344 521.7587890625"/>
    <path stroke-width="0" fill="rgb(51, 21, 16)" opacity="0.77914023" stroke="rgb(203, 19, 132)" stroke-opacity="1.0" stroke-linecap="round" stroke-linejoin="round" d="M 587.2626342773438 508.0398254394531 C 539.5390625 498.4396667480469 249.059326171875 512.8731689453125 197.6005859375 497.13970947265625 C 451.5313415527344 496.4788818359375 494.2496032714844 503.6551818847656 497.6428527832031 491.440673828125 C 526.6658325195312 497.57086181640625 583.0993041992188 489.0018615722656 412.52447509765625 492.6823425292969 C 505.1044921875 491.72064208984375 474.21337890625 492.9042053222656 587.2626342773438 508.0398254394531"/>
    <path stroke-width="0" fill="rgb(241, 255, 258)" opacity="0.5652027" stroke="rgb(70, 32, 100)" stroke-opacity="1.0" stroke-linecap="round" stroke-linejoin="round" d="M 404.8348693847656 90.93937683105469 C 417.0207214355469 81.74317169189453 431.45758056640625 89.5486831665039 404.39251708984375 93.72550201416016 C 408.9779052734375 93.43603515625 432.10546875 84.72891998291016 419.9227294921875 93.06256866455078 C 426.3118896484375 92.82613372802734 420.52117919921875 75.14533996582031 404.6355285644531 87.25564575195312 C 394.6903076171875 93.06844329833984 400.8830261230469 91.64537048339844 404.8348693847656 90.93937683105469"/>
    <path stroke-width="0" fill="rgb(34, 25, 2)" opacity="0.9526836" stroke="rgb(47, 230, 138)" stroke-opacity="1.0" stroke-linecap="round" stroke-linejoin="round" d="M 227.02197265625 448.7938232421875 C 225.7259063720703 434.14617919921875 237.23944091796875 438.56060791015625 231.87342834472656 449.1550598144531 C 424.85479736328125 448.6673889160156 404.4429016113281 444.8079528808594 259.4949645996094 449.4739990234375 C 257.6556396484375 421.6518249511719 283.0137023925781 459.5272521972656 246.51419067382812 448.3683166503906 C 245.8662567138672 451.2852478027344 220.56179809570312 443.95880126953125 227.02197265625 448.7938232421875"/>
    <path stroke-width="0" fill="rgb(224, 169, 185)" opacity="0.80229086" stroke="rgb(230, 175, 178)" stroke-opacity="1.0" stroke-linecap="round" stroke-linejoin="round" d="M 176.91896057128906 368.4444580078125 C 175.7198028564453 382.1526184082031 233.30917358398438 363.44757080078125 255.4740753173828 365.9109802246094 C 229.8782196044922 368.4382019042969 233.93284606933594 361.89630126953125 238.09878540039062 370.288330078125 C 230.3946533203125 371.68603515625 226.98558044433594 374.36151123046875 425.7586975097656 370.1380920410156 C 122.0827865600586 356.9961853027344 322.42462158203125 384.3282165527344 176.91896057128906 368.4444580078125"/>
    <path stroke-width="0" fill="rgb(194, 222, 324)" opacity="0.0022926563" stroke="rgb(192, 162, 61)" stroke-opacity="1.0" stroke-linecap="round" stroke-linejoin="round" d="M 453.2984313964844 298.5668029785156 C 459.07952880859375 290.76007080078125 433.251220703125 293.9700012207031 447.0503234863281 256.4449157714844 C 447.1620788574219 280.9570007324219 454.0837097167969 285.386962890625 461.42889404296875 288.8323669433594 C 461.9466857910156 297.7093811035156 471.26531982421875 296.05145263671875 454.1407775878906 327.241455078125 C 468.7144470214844 297.30865478515625 473.3863830566406 301.44873046875 453.2984313964844 298.5668029785156"/>
    <path stroke-width="0" fill="rgb(127, 83, 123)" opacity="0.35755837" stroke="rgb(209, 231, 207)" stroke-opacity="1.0" stroke-linecap="round" stroke-linejoin="round" d="M 550.736083984375 500.0172424316406 C 397.6081848144531 498.47381591796875 427.3478698730469 485.2941589355469 424.87615966796875 517.4401245117188 C 425.98046875 512.4322509765625 426.1026916503906 520.3331909179688 421.3607482910156 507.04156494140625 C 438.13543701171875 479.5211486816406 395.4361877441406 499.68780517578125 497.4267272949219 497.06451416015625 C 430.3185119628906 474.0093078613281 414.1750183105469 487.0394592285156 550.736083984375 500.0172424316406"/>
    <path stroke-width="0" fill="rgb(14, 73, 80)" opacity="0.95425344" stroke="rgb(160, 101, 15)" stroke-opacity="1.0" stroke-linecap="round" stroke-linejoin="round" d="M 373.5750427246094 272.20343017578125 C 480.64599609375 271.3432312011719 242.31973266601562 243.98973083496094 305.320556640625 202.45077514648438 C 435.6596984863281 200.4167022705078 393.3789978027344 195.09344482421875 401.09979248046875 271.8636169433594 C 358.66107177734375 246.45664978027344 366.4381408691406 260.9388427734375 291.92108154296875 226.0708465576172 C 305.0091247558594 279.152587890625 271.7693176269531 272.9730224609375 373.5750427246094 272.20343017578125"/>
    <path stroke-width="0" fill="rgb(26, -3, -24)" opacity="1.0895009" stroke="rgb(65, 216, 8)" stroke-opacity="1.0" stroke-linecap="round" stroke-linejoin="round" d="M 223.21287536621094 490.1162109375 C 214.34735107421875 490.6075744628906 121.34973907470703 481.6878967285156 -115.91838073730469 490.32635498046875 C 242.52493286132812 498.91046142578125 216.54185485839844 482.5036315917969 210.69952392578125 504.643798828125 C 196.6380157470703 483.9682312011719 193.33828735351562 496.72900390625 293.45458984375 488.2655944824219 C 177.46026611328125 491.788818359375 195.70579528808594 493.36212158203125 223.21287536621094 490.1162109375"/>
    <path stroke-width="0" fill="rgb(45, 49, 23)" opacity="0.8098719" stroke="rgb(90, 90, 4)" stroke-opacity="1.0" stroke-linecap="round" stroke-linejoin="round" d="M 280.81463623046875 440.4293212890625 C 277.4534912109375 434.1954040527344 277.4266662597656 440.7296142578125 291.8403625488281 434.2664489746094 C 301.8843078613281 450.342041015625 285.8041687011719 441.7844543457031 290.4477844238281 430.2387390136719 C 293.29925537109375 464.64080810546875 360.6023254394531 439.253662109375 286.7427673339844 450.2240905761719 C 298.2754821777344 438.1097412109375 297.4176330566406 442.3326110839844 280.81463623046875 440.4293212890625"/>
    <path stroke-width="0" fill="rgb(6, 4, -23)" opacity="0.84996474" stroke="rgb(102, 236, 25)" stroke-opacity="1.0" stroke-linecap="round" stroke-linejoin="round" d="M -24.111055374145508 435.2401428222656 C 61.622188568115234 449.2376708984375 27.723329544067383 432.77557373046875 -5.646599769592285 440.9734802246094 C 127.73529815673828 442.7508544921875 154.9486541748047 421.0168762207031 -75.2088851928711 426.24102783203125 C 150.78858947753906 433.18011474609375 108.97291564941406 420.0632019042969 78.4698486328125 439.3106689453125 C 45.35441589355469 446.6590270996094 26.984169006347656 439.3268127441406 -24.111055374145508 435.2401428222656"/>
    <path stroke-width="0" fill="rgb(104, 105, 40)" opacity="0.9695242" stroke="rgb(221, 115, 83)" stroke-opacity="1.0" stroke-linecap="round" stroke-linejoin="round" d="M 562.6349487304688 363.116455078125 C 454.524658203125 347.7445983886719 434.2240905761719 367.73345947265625 454.31494140625 358.855712890625 C 472.9582214355469 361.7944641113281 465.15838623046875 356.1026916503906 471.93994140625 360.8095397949219 C 482.8665771484375 355.5528869628906 432.7348937988281 356.51348876953125 116.85313415527344 356.2264404296875 C 406.092041015625 363.9477844238281 500.440185546875 356.56573486328125 562.6349487304688 363.116455078125"/>
    <path stroke-width="0" fill="rgb(38, 21, 67)" opacity="0.56683266" stroke="rgb(33, 3, 29)" stroke-opacity="1.0" stroke-linecap="round" stroke-linejoin="round" d="M 433.76287841796875 509.24285888671875 C 452.4634094238281 491.9218444824219 448.7207336425781 514.3921508789062 448.10198974609375 523.032958984375 C 438.54974365234375 487.4099426269531 473.10821533203125 510.6826477050781 458.4779357910156 489.8589172363281 C 441.287353515625 540.8765258789062 476.5744934082031 525.2698974609375 454.20989990234375 522.7857055664062 C 450.0424499511719 500.981201171875 454.1493835449219 489.09722900390625 433.76287841796875 509.24285888671875"/>
    <path stroke-width="0" fill="rgb(96, 97, 151)" opacity="0.048530545" stroke="rgb(162, 125, 252)" stroke-opacity="1.0" stroke-linecap="round" stroke-linejoin="round" d="M 236.33636474609375 117.79129028320312 C 242.1266632080078 95.2135238647461 240.40017700195312 101.50567626953125 233.1275634765625 105.3258056640625 C 229.7309112548828 111.57000732421875 235.78663635253906 106.84983825683594 237.8164825439453 105.77668762207031 C 238.98324584960938 106.67066192626953 243.9934539794922 92.60385131835938 246.9066619873047 74.90823364257812 C 246.88902282714844 90.65486145019531 240.33596801757812 102.76325988769531 236.33636474609375 117.79129028320312"/>
    <path stroke-width="0" fill="rgb(50, 59, 27)" opacity="0.67775863" stroke="rgb(199, 73, 61)" stroke-opacity="1.0" stroke-linecap="round" stroke-linejoin="round" d="M 412.08740234375 444.49212646484375 C 341.2358093261719 432.213134765625 377.7239074707031 464.6554260253906 619.3323974609375 437.4161682128906 C 299.3361511230469 470.6392822265625 496.6795349121094 420.5162658691406 376.658203125 450.3486022949219 C 452.81451416015625 446.2971496582031 392.329345703125 455.5909729003906 442.09820556640625 436.4302673339844 C 310.06182861328125 447.0557556152344 363.8971862792969 432.1112365722656 412.08740234375 444.49212646484375"/>
    <path stroke-width="0" fill="rgb(27, -15, -4)" opacity="0.9195841" stroke="rgb(62, 169, 131)" stroke-opacity="1.0" stroke-linecap="round" stroke-linejoin="round" d="M -21.98821449279785 366.5129089355469 C 10.783781051635742 441.6786193847656 -12.185037612915039 457.9698486328125 -58.554931640625 436.8022766113281 C 24.516794204711914 431.062744140625 39.362613677978516 431.3120422363281 39.266746520996094 450.3036804199219 C 21.88113784790039 439.64898681640625 58.28392028808594 429.75042724609375 -2.132746934890747 432.9430236816406 C 26.301918029785156 462.10430908203125 -0.25312644243240356 461.6539611816406 -21.98821449279785 366.5129089355469"/>
    <path stroke-width="0" fill="rgb(69, 13, 14)" opacity="0.8543958" stroke="rgb(141, 73, 180)" stroke-opacity="1.0" stroke-linecap="round" stroke-linejoin="round" d="M 374.33233642578125 447.3097229003906 C 357.5440979003906 452.5518493652344 355.5146484375 437.124267578125 358.72344970703125 433.7689208984375 C 368.89935302734375 458.55657958984375 335.787353515625 440.6858825683594 362.41693115234375 448.3321533203125 C 358.30511474609375 451.02349853515625 343.0862121582031 428.6402282714844 400.30023193359375 436.8087463378906 C 357.83154296875 437.0957336425781 350.5919189453125 459.4884948730469 374.33233642578125 447.3097229003906"/>
    <path stroke-width="0" fill="rgb(258, 209, 213)" opacity="0.9065021" stroke="rgb(247, 230, 75)" stroke-opacity="1.0" stroke-linecap="round" stroke-linejoin="round" d="M 466.8039245605469 368.9272766113281 C 410.3428649902344 365.25262451171875 348.3435974121094 373.5771484375 462.58172607421875 375.2624206542969 C 459.71307373046875 364.760986328125 465.76092529296875 364.6179504394531 468.8893127441406 371.7528381347656 C 515.5051879882812 373.43450927734375 587.0960083007812 366.088623046875 465.6932373046875 367.3232727050781 C 468.1795654296875 373.9192810058594 468.2034912109375 376.2893981933594 466.8039245605469 368.9272766113281"/>
    <path stroke-width="0" fill="rgb(118, 114, 137)" opacity="0.1226635" stroke="rgb(63, 27, 242)" stroke-opacity="1.0" stroke-linecap="round" stroke-linejoin="round" d="M 212.25047302246094 111.1147232055664 C 199.43841552734375 99.017333984375 186.56057739257812 90.75955200195312 187.24449157714844 98.26112365722656 C 194.08633422851562 86.19063568115234 191.4340362548828 96.05509948730469 189.40191650390625 90.23245239257812 C 201.69448852539062 105.1793441772461 204.2367706298828 99.28250885009766 198.6688995361328 110.05394744873047 C 201.59329223632812 95.35330963134766 202.3638458251953 105.64967346191406 212.25047302246094 111.1147232055664"/>
    <path stroke-width="0" fill="rgb(275, 293, 269)" opacity="0.88658583" stroke="rgb(69, 96, 95)" stroke-opacity="1.0" stroke-linecap="round" stroke-linejoin="round" d="M 327.5992736816406 76.81623077392578 C 353.8587951660156 90.51293182373047 297.0222473144531 63.60395431518555 364.1876220703125 93.22215270996094 C 383.40301513671875 87.43302154541016 359.34539794921875 95.52799987792969 354.32257080078125 94.85719299316406 C 281.2002868652344 100.26402282714844 249.7563934326172 92.91498565673828 360.8805847167969 104.6231918334961 C 370.052978515625 88.3901596069336 354.2599792480469 87.21429443359375 327.5992736816406 76.81623077392578"/>
    <path stroke-width="0" fill="rgb(-15, -18, -12)" opacity="0.08810477" stroke="rgb(213, 60, 128)" stroke-opacity="1.0" stroke-linecap="round" stroke-linejoin="round" d="M 319.12652587890625 156.64990234375 C 328.81500244140625 114.24990844726562 318.364013671875 133.822021484375 315.9031982421875 123.71704864501953 C 330.00421142578125 121.94499969482422 322.3063049316406 125.9019775390625 318.0081787109375 126.39256286621094 C 321.6463317871094 124.72452545166016 328.0567932128906 145.82693481445312 321.6507873535156 163.00367736816406 C 321.5570983886719 141.57540893554688 324.78265380859375 144.0848846435547 319.12652587890625 156.64990234375"/>
    <path stroke-width="0" fill="rgb(54, 38, 30)" opacity="0.4302818" stroke="rgb(161, 221, 239)" stroke-opacity="1.0" stroke-linecap="round" stroke-linejoin="round" d="M 149.99749755859375 452.2158508300781 C 225.2321014404297 427.38568115234375 222.16030883789062 416.9957580566406 226.35391235351562 438.7268981933594 C 245.80816650390625 433.7891540527344 255.38336181640625 436.3295593261719 240.04794311523438 440.93206787109375 C 216.210693359375 444.89385986328125 243.1232147216797 449.40887451171875 227.67173767089844 438.9296875 C 225.01451110839844 417.4827575683594 226.4739227294922 432.41717529296875 149.99749755859375 452.2158508300781"/>
    <path stroke-width="0" fill="rgb(-33, 17, 27)" opacity="0.59065944" stroke="rgb(228, 103, 140)" stroke-opacity="1.0" stroke-linecap="round" stroke-linejoin="round" d="M 216.82989501953125 434.34521484375 C 9.954805374145508 419.6180419921875 -84.44388580322266 427.8294982910156 140.88809204101562 430.80535888671875 C 180.48558044433594 433.91326904296875 153.58006286621094 421.601806640625 167.587646484375 451.2819519042969 C 164.30880737304688 427.6899108886719 176.2834930419922 439.0220947265625 156.8076171875 440.68896484375 C 183.33802795410156 428.22052001953125 127.43718719482422 430.6087341308594 216.82989501953125 434.34521484375"/>
    <path stroke-width="0" fill="rgb(272, 279, 253)" opacity="0.5135587" stroke="rgb(116, 102, 63)" stroke-opacity="1.0" stroke-linecap="round" stroke-linejoin="round" d="M 455.352294921875 114.41366577148438 C 451.26971435546875 119.02223205566406 458.7091064453125 114.9476547241211 476.3852233886719 115.46598815917969 C 445.2919616699219 123.16844177246094 449.0007629394531 104.15436553955078 476.0920715332031 121.1204605102539 C 470.058349609375 115.84064483642578 458.75860595703125 106.88014221191406 440.895263671875 113.2992935180664 C 499.2160339355469 120.42593383789062 505.09375 131.19720458984375 455.352294921875 114.41366577148438"/>
    <path stroke-width="0" fill="rgb(143, 167, 136)" opacity="-0.009189746" stroke="rgb(85, 235, 219)" stroke-opacity="1.0" stroke-linecap="round" stroke-linejoin="round" d="M 466.0209045410156 149.88694763183594 C 467.9452819824219 112.8724594116211 450.0888366699219 127.1358413696289 447.3218078613281 108.6319580078125 C 433.8160400390625 111.51771545410156 428.6280517578125 117.56394958496094 425.50994873046875 111.89501190185547 C 444.7908630371094 106.36549377441406 438.05517578125 120.31548309326172 458.9334411621094 125.34417724609375 C 457.3612060546875 120.04528045654297 469.59844970703125 124.49180603027344 466.0209045410156 149.88694763183594"/>
    <path stroke-width="0" fill="rgb(208, 275, 226)" opacity="0.7262245" stroke="rgb(64, 113, 26)" stroke-opacity="1.0" stroke-linecap="round" stroke-linejoin="round" d="M 481.01031494140625 90.11270141601562 C 465.48272705078125 81.33312225341797 477.8231201171875 104.71114349365234 481.31256103515625 89.83431243896484 C 454.7868957519531 74.05944061279297 441.5615539550781 60.198944091796875 448.431884765625 93.098876953125 C 483.2997741699219 101.51790618896484 488.0629577636719 93.24044036865234 472.03900146484375 84.79586029052734 C 464.9195556640625 89.20211791992188 484.3740539550781 102.10652923583984 481.01031494140625 90.11270141601562"/>
    <path stroke-width="0" fill="rgb(208, 224, 204)" opacity="0.8282331" stroke="rgb(0, 0, 0)" stroke-opacity="0.0" stroke-linecap="round" stroke-linejoin="round" d="M 279.7326965332031 21.54657745361328 C 279.6196594238281 25.44264030456543 273.7272033691406 30.404645919799805 267.90057373046875 30.634809494018555 C 262.8036804199219 30.585880279541016 255.61367797851562 23.292781829833984 255.4048309326172 16.994977951049805 C 256.7040710449219 11.027289390563965 259.272705078125 9.286396980285645 264.7393798828125 5.9651384353637695 C 274.79730224609375 6.385061740875244 279.7035827636719 9.400727272033691 279.7326965332031 21.54657745361328"/>
    <path stroke-width="0" fill="rgb(212, 133, 182)" opacity="0.3793348" stroke="rgb(0, 0, 0)" stroke-opacity="0.0" stroke-linecap="round" stroke-linejoin="round" d="M 8.453641891479492 5.525864601135254 C -0.5012414455413818 10.411341667175293 -0.91642165184021 10.107889175415039 3.229179620742798 24.382164001464844 C -9.638039588928223 23.427873611450195 -7.591111660003662 13.614360809326172 -7.676539897918701 7.6951446533203125 C -6.561120986938477 3.567819595336914 -3.6331968307495117 0.6381251215934753 0.8563522696495056 -1.2024462223052979 C 10.381174087524414 -3.0110793113708496 14.503533363342285 -1.950440764427185 8.453641891479492 5.525864601135254"/>
    <path stroke-width="0" fill="rgb(162, 146, 199)" opacity="0.8243964" stroke="rgb(0, 0, 0)" stroke-opacity="0.0" stroke-linecap="round" stroke-linejoin="round" d="M 18.736154556274414 4.629933834075928 C 20.369094848632812 10.238205909729004 19.68890953063965 15.7410306930542 18.351606369018555 18.755970001220703 C 15.608081817626953 16.31259536743164 14.62681770324707 12.77260971069336 14.895337104797363 14.272595405578613 C 16.046903610229492 9.399849891662598 16.754135131835938 0.707246720790863 15.835010528564453 3.938455581665039 C 21.6690616607666 3.5707812309265137 20.47677230834961 4.354059219360352 18.736154556274414 4.629933834075928"/>
    <path stroke-width="0" fill="rgb(180, 139, 146)" opacity="0.3383433" stroke="rgb(0, 0, 0)" stroke-opacity="0.0" stroke-linecap="round" stroke-linejoin="round" d="M 111.61119079589844 5.690878391265869 C 103.13198852539062 7.376399040222168 95.1429672241211 3.459430694580078 95.88077545166016 6.815988540649414 C 99.91979217529297 7.222517967224121 95.11405181884766 6.726656436920166 87.0989761352539 4.3782453536987305 C 88.6388931274414 -5.579660892486572 94.54562377929688 -5.228421211242676 99.8640365600586 -4.645218372344971 C 104.3021469116211 -4.367059707641602 107.9949722290039 -5.261959075927734 111.61119079589844 5.690878391265869"/>
    <path stroke-width="0" fill="rgb(103, 157, 194)" opacity="0.09572341" stroke="rgb(0, 0, 0)" stroke-opacity="0.0" stroke-linecap="round" stroke-linejoin="round" d="M 171.59249877929688 12.886628150939941 C 174.15194702148438 24.104597091674805 170.58509826660156 26.21136474609375 174.00845336914062 21.925430297851562 C 163.86158752441406 22.410688400268555 161.68792724609375 20.43496322631836 165.0349884033203 21.322092056274414 C 163.50672912597656 10.03460693359375 160.56784057617188 7.081294536590576 165.58425903320312 4.709273815155029 C 164.0054168701172 15.428516387939453 163.1050262451172 17.990251541137695 171.59249877929688 12.886628150939941"/>
    <path stroke-width="0" fill="rgb(136, 161, 121)" opacity="0.68034077" stroke="rgb(0, 0, 0)" stroke-opacity="0.0" stroke-linecap="round" stroke-linejoin="round" d="M 22.582374572753906 10.72565746307373 C 22.888057708740234 19.32699203491211 19.656362533569336 21.339853286743164 14.910547256469727 21.089998245239258 C 12.598166465759277 14.78520393371582 11.703660011291504 9.76675796508789 3.226905107498169 10.21912956237793 C 2.5448265075683594 5.969419956207275 9.237748146057129 3.8229548931121826 18.117647171020508 -0.7968747615814209 C 25.014066696166992 0.06320152431726456 24.200212478637695 -0.33752205967903137 22.582374572753906 10.72565746307373"/>
    <path stroke-width="0" fill="rgb(181, 120, 137)" opacity="0.13892272" stroke="rgb(0, 0, 0)" stroke-opacity="0.0" stroke-linecap="round" stroke-linejoin="round" d="M 14.572904586791992 5.495378017425537 C 11.157724380493164 2.7490198612213135 1.5682215690612793 2.9147212505340576 4.276996612548828 3.559457540512085 C 5.2938008308410645 12.961730003356934 2.07588791847229 6.429049968719482 -1.487031102180481 2.833296775817871 C -0.4701250195503235 -0.6218240261077881 1.7316957712173462 -2.7235629558563232 5.4752516746521 -3.214367628097534 C 9.704184532165527 -2.0991594791412354 11.67264461517334 1.5211886167526245 14.572904586791992 5.495378017425537"/>
    <path stroke-width="0" fill="rgb(215, 219, 206)" opacity="0.50405794" stroke="rgb(0, 0, 0)" stroke-opacity="0.0" stroke-linecap="round" stroke-linejoin="round" d="M 349.2174072265625 40.44809341430664 C 347.0079345703125 43.55121612548828 342.42633056640625 45.31826400756836 342.5474548339844 45.165775299072266 C 339.32086181640625 46.84159469604492 335.4140930175781 45.44098663330078 337.439453125 41.423221588134766 C 334.769775390625 40.41035079956055 338.5381774902344 37.4641227722168 341.8036804199219 37.80661392211914 C 345.5481262207031 36.21503448486328 348.4676208496094 38.48788833618164 349.2174072265625 40.44809341430664"/>
    <path stroke-width="0" fill="rgb(150, 143, 145)" opacity="0.1051907" stroke="rgb(0, 0, 0)" stroke-opacity="0.0" stroke-linecap="round" stroke-linejoin="round" d="M 335.06427001953125 269.7038879394531 C 320.53387451171875 270.57110595703125 318.29205322265625 272.3638916015625 318.9412536621094 273.68438720703125 C 320.6420593261719 267.9142761230469 320.6451721191406 266.1752014160156 306.2192687988281 267.1589050292969 C 313.0819396972656 268.17462158203125 319.6290588378906 268.3147277832031 318.0824279785156 266.95989990234375 C 324.4515686035156 265.2629699707031 328.3676452636719 265.8822326660156 335.06427001953125 269.7038879394531"/>
    <path stroke-width="0" fill="rgb(201, 211, 176)" opacity="0.94576263" stroke="rgb(0, 0, 0)" stroke-opacity="0.0" stroke-linecap="round" stroke-linejoin="round" d="M 172.0321044921875 36.854576110839844 C 172.84031677246094 44.84829330444336 167.7365264892578 44.76164245605469 161.1989288330078 48.149967193603516 C 154.6041717529297 47.310508728027344 153.04164123535156 46.915870666503906 151.6075439453125 37.62223815917969 C 152.8452606201172 30.998422622680664 158.49530029296875 28.89800262451172 162.02264404296875 29.895524978637695 C 167.0455322265625 31.480985641479492 171.2107391357422 34.078338623046875 172.0321044921875 36.854576110839844"/>
    <path stroke-width="0" fill="rgb(105, 81, 185)" opacity="-0.030807588" stroke="rgb(0, 0, 0)" stroke-opacity="0.0" stroke-linecap="round" stroke-linejoin="round" d="M 401.43658447265625 135.6884765625 C 400.07806396484375 141.3197479248047 395.15423583984375 141.42941284179688 393.3233642578125 141.6260528564453 C 394.1711730957031 137.96173095703125 391.4045715332031 134.40380859375 387.6535339355469 134.04681396484375 C 383.51458740234375 133.40126037597656 386.7617492675781 126.93002319335938 398.98321533203125 120.43901824951172 C 403.7846984863281 122.95040893554688 405.25091552734375 125.65210723876953 401.43658447265625 135.6884765625"/>
    <path stroke-width="0" fill="rgb(206, 160, 230)" opacity="0.7487223" stroke="rgb(0, 0, 0)" stroke-opacity="0.0" stroke-linecap="round" stroke-linejoin="round" d="M -60.74114227294922 30.83562660217285 C -61.81293869018555 34.835628509521484 -64.74114227294922 37.763832092285156 -68.74114227294922 38.835628509521484 C -72.74114227294922 37.763832092285156 -75.66934967041016 34.835628509521484 -76.74114227294922 30.83562660217285 C -75.66934967041016 26.83562660217285 -72.74114227294922 23.907424926757812 -68.74114227294922 22.83562660217285 C -64.74114227294922 23.907424926757812 -61.81293869018555 26.83562660217285 -60.74114227294922 30.83562660217285"/>
    <path stroke-width="0" fill="rgb(112, 102, 206)" opacity="0.025476163" stroke="rgb(0, 0, 0)" stroke-opacity="0.0" stroke-linecap="round" stroke-linejoin="round" d="M 436.5455322265625 134.52713012695312 C 424.6448974609375 136.64830017089844 424.81903076171875 143.87127685546875 428.3483581542969 147.19015502929688 C 423.0704040527344 149.0912628173828 422.2331848144531 146.59866333007812 421.994384765625 140.94850158691406 C 423.62249755859375 141.51040649414062 428.3271484375 138.74160766601562 426.89752197265625 136.24237060546875 C 430.91290283203125 136.41209411621094 437.25140380859375 137.99359130859375 436.5455322265625 134.52713012695312"/>
    <path stroke-width="0" fill="rgb(22, 186, 198)" opacity="0.53517" stroke="rgb(0, 0, 0)" stroke-opacity="0.0" stroke-linecap="round" stroke-linejoin="round" d="M 175.32101440429688 260.9646911621094 C 178.1377716064453 271.1225891113281 177.8929443359375 274.81646728515625 164.9420623779297 268.9832763671875 C 155.60594177246094 271.4056396484375 154.95481872558594 269.885498046875 158.9164581298828 262.0481872558594 C 160.64132690429688 243.78219604492188 158.53005981445312 248.47067260742188 161.4570770263672 250.53492736816406 C 175.12710571289062 247.5869598388672 174.8843231201172 247.6885223388672 175.32101440429688 260.9646911621094"/>
    <path stroke-width="0" fill="rgb(209, 181, 43)" opacity="0.15217657" stroke="rgb(0, 0, 0)" stroke-opacity="0.0" stroke-linecap="round" stroke-linejoin="round" d="M 496.235595703125 496.2315979003906 C 495.6692199707031 492.5567321777344 494.6772155761719 498.2239074707031 486.77764892578125 499.6192932128906 C 481.4656677246094 498.3935241699219 478.4095764160156 492.92291259765625 486.32861328125 495.6129455566406 C 489.08538818359375 493.0368957519531 489.9972229003906 487.2193603515625 495.61273193359375 479.7010192871094 C 495.4508056640625 476.5299987792969 496.72723388671875 486.6811218261719 496.235595703125 496.2315979003906"/>
    <path stroke-width="0" fill="rgb(122, 90, 148)" opacity="0.40784326" stroke="rgb(0, 0, 0)" stroke-opacity="0.0" stroke-linecap="round" stroke-linejoin="round" d="M 519.57568359375 419.3963317871094 C 515.694580078125 425.2357177734375 513.0825805664062 425.4298400878906 502.9078369140625 422.17950439453125 C 500.7036437988281 423.5921936035156 493.9634094238281 423.4425964355469 492.5738220214844 418.6941223144531 C 506.0606689453125 421.9033508300781 504.47509765625 423.0563659667969 502.42572021484375 408.9549865722656 C 514.1127319335938 408.51165771484375 520.8432006835938 408.9888916015625 519.57568359375 419.3963317871094"/>
    <path stroke-width="0" fill="rgb(131, 167, 110)" opacity="0.064206176" stroke="rgb(0, 0, 0)" stroke-opacity="0.0" stroke-linecap="round" stroke-linejoin="round" d="M 95.23290252685547 67.96900939941406 C 97.51319885253906 70.01243591308594 92.72842407226562 69.36219024658203 89.400146484375 69.71637725830078 C 89.0412826538086 68.62427520751953 86.80687713623047 65.9361343383789 88.4712142944336 62.69881057739258 C 87.42845916748047 56.07001495361328 84.62749481201172 52.068050384521484 85.6370620727539 55.991268157958984 C 98.50428009033203 57.292362213134766 98.56586456298828 58.07452392578125 95.23290252685547 67.96900939941406"/>
    <path stroke-width="0" fill="rgb(119, 110, 101)" opacity="0.91584086" stroke="rgb(0, 0, 0)" stroke-opacity="0.0" stroke-linecap="round" stroke-linejoin="round" d="M 450.44769287109375 429.7038269042969 C 447.9250793457031 435.8755798339844 446.32598876953125 439.8666076660156 438.46124267578125 437.6661682128906 C 436.6849670410156 440.6298828125 436.7614440917969 436.877197265625 437.6366882324219 433.5843811035156 C 436.9615478515625 432.75726318359375 441.7871398925781 428.9844055175781 442.1581726074219 430.1981506347656 C 440.78521728515625 428.4860534667969 448.4853515625 430.0048828125 450.44769287109375 429.7038269042969"/>
    <path stroke-width="0" fill="rgb(98, 73, 122)" opacity="0.46995047" stroke="rgb(0, 0, 0)" stroke-opacity="0.0" stroke-linecap="round" stroke-linejoin="round" d="M 363.2019958496094 500.1812438964844 C 359.86102294921875 499.232421875 357.412841796875 500.659423828125 353.96875 500.9272155761719 C 348.9666442871094 508.0359191894531 349.50299072265625 503.78839111328125 353.57379150390625 497.20001220703125 C 354.0129089355469 493.6095886230469 352.7186584472656 491.77679443359375 348.6641845703125 491.35040283203125 C 357.0922546386719 495.0021667480469 360.5030822753906 497.876953125 363.2019958496094 500.1812438964844"/>
    <path stroke-width="0" fill="rgb(126, 38, 63)" opacity="0.19539702" stroke="rgb(0, 0, 0)" stroke-opacity="0.0" stroke-linecap="round" stroke-linejoin="round" d="M 319.0270080566406 107.22293853759766 C 315.7926025390625 110.60157012939453 316.21563720703125 113.67724609375 320.8662414550781 108.78927612304688 C 309.06561279296875 111.11810302734375 303.6705627441406 111.69789123535156 295.7196044921875 103.87944030761719 C 303.3254699707031 105.35771179199219 311.3002624511719 103.10748291015625 310.7218933105469 104.14044189453125 C 319.4757995605469 102.32572174072266 325.4825439453125 105.75992584228516 319.0270080566406 107.22293853759766"/>
    <path stroke-width="0" fill="rgb(131, 260, 185)" opacity="0.2436299" stroke="rgb(0, 0, 0)" stroke-opacity="0.0" stroke-linecap="round" stroke-linejoin="round" d="M 484.8765869140625 96.71524810791016 C 488.3325500488281 102.58955383300781 485.5635681152344 104.90444946289062 477.6045837402344 116.28068542480469 C 468.2461853027344 105.1539306640625 466.75347900390625 98.00318908691406 469.0846252441406 88.7265853881836 C 476.17877197265625 98.85965728759766 473.1556701660156 91.13168334960938 475.5735778808594 88.21463012695312 C 477.8948669433594 85.59243774414062 479.98858642578125 91.95814514160156 484.8765869140625 96.71524810791016"/>
    <path stroke-width="0" fill="rgb(38, 13, 57)" opacity="0.4542323" stroke="rgb(0, 0, 0)" stroke-opacity="0.0" stroke-linecap="round" stroke-linejoin="round" d="M -27.041536331176758 30.428306579589844 C -28.113332748413086 34.428306579589844 -31.041536331176758 37.356510162353516 -35.041534423828125 38.428306579589844 C -39.041534423828125 37.356510162353516 -41.9697380065918 34.428306579589844 -43.041534423828125 30.428306579589844 C -41.9697380065918 26.428306579589844 -39.041534423828125 23.500104904174805 -35.041534423828125 22.428306579589844 C -31.041536331176758 23.500104904174805 -28.113332748413086 26.428306579589844 -27.041536331176758 30.428306579589844"/>
    <path stroke-width="0" fill="rgb(251, 118, 233)" opacity="0.33664012" stroke="rgb(0, 0, 0)" stroke-opacity="0.0" stroke-linecap="round" stroke-linejoin="round" d="M -70.7625961303711 47.9467658996582 C -71.83438873291016 51.9467658996582 -74.7625961303711 54.874969482421875 -78.7625961303711 55.9467658996582 C -82.7625961303711 54.874969482421875 -85.6907958984375 51.9467658996582 -86.7625961303711 47.9467658996582 C -85.6907958984375 43.9467658996582 -82.7625961303711 41.01856231689453 -78.7625961303711 39.9467658996582 C -74.7625961303711 41.01856231689453 -71.83438873291016 43.9467658996582 -70.7625961303711 47.9467658996582"/>
    <path stroke-width="0" fill="rgb(265, 279, 270)" opacity="0.2240491" stroke="rgb(0, 0, 0)" stroke-opacity="0.0" stroke-linecap="round" stroke-linejoin="round" d="M 209.4273223876953 305.823974609375 C 208.0313720703125 306.2236633300781 201.38169860839844 310.2228698730469 200.3523712158203 308.7430725097656 C 197.69508361816406 308.2120056152344 192.62611389160156 309.4314880371094 190.38601684570312 308.32061767578125 C 196.08840942382812 303.695068359375 204.51756286621094 304.962158203125 209.09266662597656 303.6797180175781 C 204.71389770507812 302.52197265625 207.8906707763672 304.8462829589844 209.4273223876953 305.823974609375"/>
    <path stroke-width="0" fill="rgb(164, 68, 196)" opacity="0.19036964" stroke="rgb(0, 0, 0)" stroke-opacity="0.0" stroke-linecap="round" stroke-linejoin="round" d="M 178.32289123535156 207.28118896484375 C 184.88595581054688 202.86679077148438 182.61849975585938 207.55203247070312 173.4779815673828 210.99386596679688 C 172.0943145751953 203.9842529296875 169.5771942138672 201.53213500976562 176.6731414794922 199.1327362060547 C 176.70411682128906 203.8360595703125 177.3626251220703 198.88230895996094 181.93846130371094 196.32083129882812 C 180.30477905273438 204.70799255371094 181.69740295410156 201.9415283203125 178.32289123535156 207.28118896484375"/>
    <path stroke-width="0" fill="rgb(62, 214, 50)" opacity="0.03436288" stroke="rgb(0, 0, 0)" stroke-opacity="0.0" stroke-linecap="round" stroke-linejoin="round" d="M 163.92919921875 62.45502471923828 C 166.81985473632812 62.10814666748047 164.84629821777344 59.419246673583984 161.54672241210938 58.93068313598633 C 161.90711975097656 61.289161682128906 161.0920867919922 59.63078689575195 160.45069885253906 61.192718505859375 C 160.1015167236328 60.891353607177734 161.05130004882812 58.44076156616211 160.61166381835938 52.51458740234375 C 161.10006713867188 50.50202560424805 161.06527709960938 56.80924606323242 163.92919921875 62.45502471923828"/>
    <path stroke-width="0" fill="rgb(185, 155, 181)" opacity="0.2668886" stroke="rgb(0, 0, 0)" stroke-opacity="0.0" stroke-linecap="round" stroke-linejoin="round" d="M 421.9519348144531 387.2743835449219 C 421.44952392578125 395.20989990234375 421.60418701171875 397.5771179199219 417.83905029296875 394.4798278808594 C 412.0756530761719 394.3707580566406 408.9018249511719 391.6165466308594 399.9350891113281 384.45343017578125 C 405.29473876953125 384.91583251953125 414.11907958984375 387.758544921875 412.9114074707031 388.23187255859375 C 415.7162170410156 384.4135437011719 422.6138610839844 383.6405334472656 421.9519348144531 387.2743835449219"/>
    <path stroke-width="0" fill="rgb(40, 3, -13)" opacity="0.84959316" stroke="rgb(0, 0, 0)" stroke-opacity="0.0" stroke-linecap="round" stroke-linejoin="round" d="M 25.262775421142578 493.0747985839844 C 22.955352783203125 498.56927490234375 21.743982315063477 501.7550354003906 20.26100730895996 512.5220336914062 C 25.295927047729492 502.4928894042969 18.66364097595215 499.17724609375 14.714895248413086 494.6672668457031 C 12.230897903442383 486.1641540527344 10.852746963500977 487.9604797363281 20.959089279174805 489.5203857421875 C 28.015392303466797 489.0193786621094 26.755186080932617 487.59490966796875 25.262775421142578 493.0747985839844"/>
    <path stroke-width="0" fill="rgb(189, 189, 64)" opacity="0.47277156" stroke="rgb(0, 0, 0)" stroke-opacity="0.0" stroke-linecap="round" stroke-linejoin="round" d="M 16.367374420166016 7.729682922363281 C 17.926990509033203 7.300764560699463 16.986255645751953 7.566909313201904 0.22197116911411285 6.784024715423584 C 7.4718523025512695 8.423521041870117 3.0152065753936768 5.974992275238037 -0.5812072157859802 7.144802570343018 C 2.357140064239502 1.617508888244629 6.33003568649292 -0.7290318012237549 7.377681255340576 -4.402542591094971 C 10.557638168334961 -1.8114882707595825 14.424952507019043 1.2407206296920776 16.367374420166016 7.729682922363281"/>
    <path stroke-width="0" fill="rgb(112, 217, 196)" opacity="-0.03795652" stroke="rgb(0, 0, 0)" stroke-opacity="0.0" stroke-linecap="round" stroke-linejoin="round" d="M 7.772867202758789 -0.8326827883720398 C 7.99403190612793 3.336646556854248 4.638427257537842 7.086689472198486 0.2639438211917877 8.515162467956543 C -1.8775556087493896 4.771385669708252 -5.578082084655762 3.233703374862671 -6.836027145385742 -0.28985702991485596 C -5.775409698486328 -4.253812313079834 -2.8472065925598145 -7.182015895843506 1.1527934074401855 -8.253812789916992 C 5.1527323722839355 -7.181992530822754 8.076669692993164 -4.252244472503662 7.772867202758789 -0.8326827883720398"/>
    <path stroke-width="0" fill="rgb(42, 58, 106)" opacity="0.023320345" stroke="rgb(0, 0, 0)" stroke-opacity="0.0" stroke-linecap="round" stroke-linejoin="round" d="M 11.502077102661133 88.67354583740234 C 6.947140216827393 100.80976104736328 11.066508293151855 94.92729187011719 11.659266471862793 95.15385437011719 C -2.6798148155212402 94.67373657226562 -8.201473236083984 93.84970092773438 6.1575398445129395 93.69161987304688 C -0.33307307958602905 87.7490234375 1.1175211668014526 84.47853088378906 6.5801286697387695 91.35746002197266 C 14.761787414550781 86.10283660888672 15.15884780883789 83.38665008544922 11.502077102661133 88.67354583740234"/>
    <path stroke-width="0" fill="rgb(96, 117, 64)" opacity="0.30788064" stroke="rgb(0, 0, 0)" stroke-opacity="0.0" stroke-linecap="round" stroke-linejoin="round" d="M 55.40655517578125 394.461669921875 C 56.36513137817383 401.31890869140625 60.827693939208984 402.3864440917969 50.489017486572266 400.9124450683594 C 52.64583206176758 387.7952575683594 55.073646545410156 384.92266845703125 45.708465576171875 384.60064697265625 C 37.024696350097656 382.5432434082031 40.71488952636719 381.150634765625 57.18549346923828 383.5320129394531 C 56.37240982055664 375.78436279296875 57.327354431152344 378.7641296386719 55.40655517578125 394.461669921875"/>
  </g>
</svg>
