<?xml version="1.0" ?>
<svg xmlns="http://www.w3.org/2000/svg" version="1.1" width="512" height="512">
  <defs/>
  <g>
    <path stroke-width="0" fill="rgb(-35, -59, 29)" opacity="1.244391" stroke="rgb(139, 182, 153)" stroke-opacity="1.0" stroke-linecap="round" stroke-linejoin="round" d="M 576.4321899414062 161.12368774414062 C 474.76385498046875 155.17579650878906 257.62786865234375 158.1896514892578 22.228107452392578 155.909912109375 C 149.9614715576172 41.40039825439453 217.20492553710938 78.77104187011719 174.48895263671875 -25.099302291870117 C 185.01902770996094 -33.60383224487305 197.35633850097656 -35.491127014160156 255.7926025390625 -34.274635314941406 C 358.9578552246094 -48.57448196411133 437.38543701171875 -146.66224670410156 576.4321899414062 161.12368774414062"/>
    <path stroke-width="0" fill="rgb(43, 82, -5)" opacity="0.54515874" stroke="rgb(108, 164, 111)" stroke-opacity="1.0" stroke-linecap="round" stroke-linejoin="round" d="M 321.1588134765625 715.060302734375 C -122.2406997680664 751.443115234375 8.475361824035645 371.7757263183594 43.137935638427734 83.47924041748047 C 293.0481872558594 122.73342895507812 289.8204040527344 118.47431945800781 280.1459045410156 40.89720916748047 C 284.2266845703125 -66.92325592041016 317.0650329589844 -46.443145751953125 442.3717346191406 -36.365211486816406 C 639.143310546875 -2.5854287147521973 854.1314086914062 240.14646911621094 321.1588134765625 715.060302734375"/>
    <path stroke-width="0" fill="rgb(58, 149, 107)" opacity="1.0760132" stroke="rgb(245, 97, 201)" stroke-opacity="1.0" stroke-linecap="round" stroke-linejoin="round" d="M 364.1157531738281 88.60624694824219 C 332.9038391113281 106.0503921508789 323.2454833984375 110.44645690917969 87.70986938476562 106.3378677368164 C 110.6676025390625 103.6150894165039 112.05255126953125 111.51028442382812 120.72222900390625 67.0373764038086 C 135.6087188720703 -33.50758361816406 141.19656372070312 -41.69476318359375 172.22836303710938 -45.983985900878906 C 296.45263671875 -31.579021453857422 323.0998840332031 -41.11538314819336 364.1157531738281 88.60624694824219"/>
    <path stroke-width="0" fill="rgb(9, 1, 9)" opacity="1.0854241" stroke="rgb(144, 236, 18)" stroke-opacity="1.0" stroke-linecap="round" stroke-linejoin="round" d="M 260.86944580078125 87.59952545166016 C 197.43502807617188 109.29528045654297 293.94232177734375 71.96231079101562 528.0048828125 140.68031311035156 C 122.82402038574219 149.22238159179688 15.511326789855957 89.72205352783203 -30.941390991210938 236.13632202148438 C -45.53935623168945 -103.79988098144531 -12.785496711730957 -54.71656799316406 149.180419921875 -35.054386138916016 C 204.60076904296875 -43.682106018066406 223.8799591064453 -50.77738571166992 260.86944580078125 87.59952545166016"/>
    <path stroke-width="0" fill="rgb(273, 269, 279)" opacity="0.9878353" stroke="rgb(5, 212, 198)" stroke-opacity="1.0" stroke-linecap="round" stroke-linejoin="round" d="M 497.8135681152344 247.4317169189453 C 469.1495666503906 179.7098846435547 274.68499755859375 191.28591918945312 294.9461364746094 222.53271484375 C 192.50338745117188 181.87091064453125 155.89927673339844 184.1710662841797 129.71768188476562 159.39755249023438 C 76.3355712890625 157.3739471435547 80.39990234375 156.4322967529297 501.4770812988281 156.35446166992188 C 499.66778564453125 159.83567810058594 502.4873962402344 142.30316162109375 497.8135681152344 247.4317169189453"/>
    <path stroke-width="0" fill="rgb(237, 227, 170)" opacity="0.52507746" stroke="rgb(30, 163, 36)" stroke-opacity="1.0" stroke-linecap="round" stroke-linejoin="round" d="M 644.6679077148438 410.1757507324219 C 467.501708984375 437.0718688964844 172.24337768554688 404.0000915527344 165.2041778564453 429.6883544921875 C 286.24163818359375 422.6390380859375 325.87811279296875 422.5467224121094 -25.23431968688965 429.2518310546875 C 199.7675018310547 401.27008056640625 230.4584197998047 422.84307861328125 58.356021881103516 408.5794372558594 C 130.01441955566406 418.44390869140625 305.8818054199219 401.8779602050781 644.6679077148438 410.1757507324219"/>
    <path stroke-width="0" fill="rgb(228, 166, 141)" opacity="0.43436304" stroke="rgb(133, 105, 67)" stroke-opacity="1.0" stroke-linecap="round" stroke-linejoin="round" d="M 576.2284545898438 381.498291015625 C 752.7713012695312 399.9823303222656 596.4680786132812 394.81280517578125 67.33219909667969 402.19293212890625 C 180.02764892578125 392.5298156738281 -89.77945709228516 414.7288513183594 -61.77356719970703 382.2875671386719 C 520.0147094726562 383.1441955566406 494.52166748046875 387.7947998046875 444.0863037109375 379.6023864746094 C 393.2586669921875 382.943115234375 407.333251953125 379.7631530761719 576.2284545898438 381.498291015625"/>
    <path stroke-width="0" fill="rgb(217, 198, 157)" opacity="1.0197837" stroke="rgb(116, 144, 4)" stroke-opacity="1.0" stroke-linecap="round" stroke-linejoin="round" d="M 599.30224609375 421.4095764160156 C -83.22586822509766 421.1492004394531 19.043811798095703 424.38385009765625 74.3049545288086 422.2424621582031 C 220.58665466308594 410.0899353027344 -63.51221466064453 440.79931640625 -79.58053588867188 413.7768249511719 C 77.54735565185547 412.0545959472656 250.96044921875 409.06256103515625 304.81927490234375 404.35455322265625 C 128.9412384033203 417.4222106933594 226.5509490966797 391.13714599609375 599.30224609375 421.4095764160156"/>
    <path stroke-width="0" fill="rgb(271, 268, 267)" opacity="1.0051081" stroke="rgb(156, 157, 240)" stroke-opacity="1.0" stroke-linecap="round" stroke-linejoin="round" d="M 501.28021240234375 277.07208251953125 C 463.3424377441406 308.1361083984375 617.4237060546875 301.46630859375 -40.81273651123047 307.642333984375 C -91.76165008544922 261.9821472167969 -102.0904769897461 273.09014892578125 247.70181274414062 277.2479248046875 C 265.2093811035156 261.9617919921875 251.98602294921875 126.27605438232422 283.9971618652344 165.14378356933594 C 328.5816345214844 311.6242370605469 216.6710205078125 250.1516571044922 501.28021240234375 277.07208251953125"/>
    <path stroke-width="0" fill="rgb(203, 216, 125)" opacity="0.81576014" stroke="rgb(91, 111, 177)" stroke-opacity="1.0" stroke-linecap="round" stroke-linejoin="round" d="M 594.4195556640625 405.15216064453125 C 476.2402648925781 450.5870056152344 262.6292419433594 371.37603759765625 168.22879028320312 417.82330322265625 C 242.5856475830078 409.4793395996094 242.5518798828125 421.5012512207031 213.7654266357422 414.6361389160156 C 260.3511047363281 418.4046936035156 283.3851013183594 438.19134521484375 154.64720153808594 404.4085693359375 C 184.69293212890625 420.418701171875 480.2466125488281 400.9580993652344 594.4195556640625 405.15216064453125"/>
    <path stroke-width="0" fill="rgb(269, 264, 268)" opacity="0.98424864" stroke="rgb(170, 171, 53)" stroke-opacity="1.0" stroke-linecap="round" stroke-linejoin="round" d="M 491.5072937011719 167.87530517578125 C 280.2731628417969 221.90335083007812 743.469482421875 199.93350219726562 30.284587860107422 201.7771759033203 C 34.90578842163086 211.5648956298828 -59.77314376831055 217.57664489746094 -53.86661148071289 156.63522338867188 C 122.97665405273438 157.44473266601562 196.47877502441406 156.6703643798828 239.9004364013672 159.90985107421875 C 141.9558868408203 159.21510314941406 200.38218688964844 152.57249450683594 491.5072937011719 167.87530517578125"/>
    <path stroke-width="0" fill="rgb(144, 149, 69)" opacity="1.0902842" stroke="rgb(80, 92, 145)" stroke-opacity="1.0" stroke-linecap="round" stroke-linejoin="round" d="M 520.4072875976562 103.42596435546875 C 433.5242919921875 77.6888656616211 498.8595886230469 88.03117370605469 430.3609313964844 64.95443725585938 C 314.2738952636719 67.15541076660156 349.5998840332031 40.990291595458984 355.1022033691406 -0.9531386494636536 C 356.9755859375 -22.202505111694336 361.8409118652344 -30.034442901611328 371.3513488769531 -28.753772735595703 C 383.4101257324219 57.00634765625 501.32196044921875 -9.905380249023438 520.4072875976562 103.42596435546875"/>
    <path stroke-width="0" fill="rgb(291, 266, 260)" opacity="1.0501957" stroke="rgb(252, 26, 53)" stroke-opacity="1.0" stroke-linecap="round" stroke-linejoin="round" d="M 444.5973205566406 33.15971374511719 C 395.6322326660156 46.30140686035156 355.8895263671875 72.8408203125 356.7117614746094 59.334774017333984 C 386.96441650390625 126.51697540283203 322.78948974609375 95.15367889404297 300.0402526855469 39.959354400634766 C 326.1064147949219 16.348159790039062 340.14697265625 13.61700439453125 418.6531066894531 -2.579806089401245 C 415.00555419921875 17.741558074951172 446.295166015625 4.744470119476318 444.5973205566406 33.15971374511719"/>
    <path stroke-width="0" fill="rgb(20, 7, -11)" opacity="0.8901596" stroke="rgb(166, 64, 118)" stroke-opacity="1.0" stroke-linecap="round" stroke-linejoin="round" d="M 135.3307342529297 394.2252197265625 C 228.401123046875 403.3752746582031 117.53710174560547 400.6432189941406 -82.74053955078125 400.17724609375 C 13.24156665802002 407.9151611328125 -48.1219596862793 407.38824462890625 71.6846694946289 408.3896789550781 C 106.59046173095703 405.34039306640625 133.41517639160156 407.3811950683594 255.11236572265625 402.71173095703125 C 75.30992126464844 391.4787292480469 96.31539154052734 393.5055847167969 135.3307342529297 394.2252197265625"/>
    <path stroke-width="0" fill="rgb(82, 80, 111)" opacity="0.97689986" stroke="rgb(40, 28, 167)" stroke-opacity="1.0" stroke-linecap="round" stroke-linejoin="round" d="M 417.3957824707031 -31.778162002563477 C 434.0064392089844 22.489429473876953 455.3289794921875 62.88014602661133 446.39190673828125 1.6441689729690552 C 386.5758972167969 -19.248157501220703 374.35162353515625 -16.448049545288086 312.05523681640625 -19.66069984436035 C 315.1639404296875 -29.508440017700195 323.5223083496094 -35.45821762084961 394.3455505371094 -33.86525344848633 C 406.1054382324219 -37.010616302490234 415.6422424316406 -32.56230163574219 417.3957824707031 -31.778162002563477"/>
    <path stroke-width="0" fill="rgb(212, 270, 266)" opacity="0.93416065" stroke="rgb(50, 94, 209)" stroke-opacity="1.0" stroke-linecap="round" stroke-linejoin="round" d="M 480.13507080078125 108.13723754882812 C 400.3338623046875 86.80111694335938 371.0419006347656 91.92353057861328 337.432861328125 96.17898559570312 C 395.4088134765625 99.05156707763672 373.2831115722656 103.44642639160156 201.7587127685547 101.08631896972656 C 424.91461181640625 82.27786254882812 378.7978210449219 103.69306182861328 386.57501220703125 83.58959197998047 C 376.2139587402344 70.23104858398438 489.2425231933594 61.68549346923828 480.13507080078125 108.13723754882812"/>
    <path stroke-width="0" fill="rgb(169, 167, 97)" opacity="0.989258" stroke="rgb(213, 24, 248)" stroke-opacity="1.0" stroke-linecap="round" stroke-linejoin="round" d="M 477.35772705078125 41.41072463989258 C 465.43988037109375 59.23028564453125 429.51788330078125 59.05177688598633 331.37548828125 85.90380096435547 C 279.99603271484375 91.26554870605469 217.08737182617188 77.6263656616211 -89.11148071289062 87.59212493896484 C -40.06278991699219 -346.3504638671875 68.1061782836914 -207.80335998535156 423.1800231933594 -84.74842071533203 C 471.6896057128906 -57.29399871826172 491.8365173339844 -58.853309631347656 477.35772705078125 41.41072463989258"/>
    <path stroke-width="0" fill="rgb(271, 285, 279)" opacity="1.0028048" stroke="rgb(249, 154, 188)" stroke-opacity="1.0" stroke-linecap="round" stroke-linejoin="round" d="M -16.776384353637695 80.2051010131836 C 329.5780944824219 81.44080352783203 254.68406677246094 75.31937408447266 -49.6981201171875 100.76931762695312 C 207.7696075439453 100.86190795898438 175.95127868652344 99.7327880859375 136.49990844726562 103.49994659423828 C 170.5939483642578 96.1794662475586 232.88980102539062 119.1000747680664 360.8561706542969 79.98657989501953 C 28.14808464050293 76.9283218383789 112.25521850585938 117.16568756103516 -16.776384353637695 80.2051010131836"/>
    <path stroke-width="0" fill="rgb(167, 163, 107)" opacity="0.64961797" stroke="rgb(72, 30, 75)" stroke-opacity="1.0" stroke-linecap="round" stroke-linejoin="round" d="M 264.3085632324219 47.89530563354492 C 297.06280517578125 78.6246566772461 374.35198974609375 89.18022918701172 269.2273254394531 66.16410064697266 C 226.921875 75.94686126708984 211.05596923828125 81.13355255126953 202.79193115234375 -8.939722061157227 C 262.51806640625 -37.65595626831055 279.69085693359375 -34.56483840942383 302.389404296875 -30.890695571899414 C 373.33062744140625 -25.6751651763916 373.1971740722656 -18.360877990722656 264.3085632324219 47.89530563354492"/>
    <path stroke-width="0" fill="rgb(199, 224, 177)" opacity="0.64492416" stroke="rgb(81, 105, 16)" stroke-opacity="1.0" stroke-linecap="round" stroke-linejoin="round" d="M 547.12109375 67.2326431274414 C 546.9356689453125 103.32501220703125 533.772705078125 109.36691284179688 532.4423828125 57.686702728271484 C 421.8654479980469 54.010833740234375 453.95941162109375 61.81405258178711 461.5835266113281 39.99226379394531 C 365.0768127441406 41.06166458129883 413.0627746582031 -20.28894805908203 389.87261962890625 -24.53550910949707 C 418.5218200683594 84.62777709960938 489.83660888671875 -5.942686080932617 547.12109375 67.2326431274414"/>
    <path stroke-width="0" fill="rgb(-6, -4, -7)" opacity="0.96240085" stroke="rgb(144, 67, 133)" stroke-opacity="1.0" stroke-linecap="round" stroke-linejoin="round" d="M 131.8350830078125 407.94140625 C 121.52216339111328 400.7530517578125 96.64045715332031 418.8701171875 -69.61927032470703 402.9754333496094 C 217.29161071777344 396.84002685546875 291.1305236816406 395.27545166015625 262.2303771972656 401.78936767578125 C 145.6318359375 403.1810607910156 170.17550659179688 390.24114990234375 252.20523071289062 403.777099609375 C 107.50648498535156 407.39080810546875 123.13861083984375 401.4356384277344 131.8350830078125 407.94140625"/>
    <path stroke-width="0" fill="rgb(274, 265, 269)" opacity="1.0228271" stroke="rgb(146, 236, 81)" stroke-opacity="1.0" stroke-linecap="round" stroke-linejoin="round" d="M 434.32440185546875 182.96730041503906 C 436.4470520019531 223.3091583251953 438.35504150390625 297.67059326171875 431.7709045410156 271.3083190917969 C 363.31610107421875 292.9356384277344 415.9830627441406 236.33828735351562 394.6073303222656 264.7691345214844 C 398.1936340332031 140.03890991210938 366.4461975097656 247.467041015625 440.3210754394531 168.3294219970703 C 447.096923828125 194.8600311279297 445.86309814453125 243.7303009033203 434.32440185546875 182.96730041503906"/>
    <path stroke-width="0" fill="rgb(-1, -8, 0)" opacity="0.97308105" stroke="rgb(33, 182, 73)" stroke-opacity="1.0" stroke-linecap="round" stroke-linejoin="round" d="M 306.2393493652344 399.3999328613281 C 258.39874267578125 400.40716552734375 265.876708984375 401.9007568359375 670.8527221679688 397.31365966796875 C 551.31884765625 416.52899169921875 286.639404296875 395.03826904296875 288.2522888183594 404.6225280761719 C 324.4814147949219 392.61083984375 321.90936279296875 393.61865234375 100.01106262207031 396.6651306152344 C 278.4845275878906 407.18438720703125 297.54864501953125 405.05615234375 306.2393493652344 399.3999328613281"/>
    <path stroke-width="0" fill="rgb(212, 208, 133)" opacity="0.80959505" stroke="rgb(149, 5, 211)" stroke-opacity="1.0" stroke-linecap="round" stroke-linejoin="round" d="M 522.5274658203125 289.2892761230469 C 496.6603088378906 301.3724060058594 493.6495666503906 296.5583801269531 509.7211608886719 48.47403335571289 C 441.0420837402344 1.0002351999282837 470.16033935546875 103.072998046875 489.82696533203125 -55.499114990234375 C 423.89288330078125 -32.06654739379883 433.3778381347656 -36.32387161254883 469.7552490234375 -42.66332244873047 C 555.4288330078125 -45.57939910888672 543.9959106445312 -55.355979919433594 522.5274658203125 289.2892761230469"/>
    <path stroke-width="0" fill="rgb(264, 254, 255)" opacity="1.0468924" stroke="rgb(172, 68, 187)" stroke-opacity="1.0" stroke-linecap="round" stroke-linejoin="round" d="M 257.0852355957031 119.40670776367188 C 241.82420349121094 129.89303588867188 289.5162048339844 125.3654556274414 260.762451171875 130.87269592285156 C 288.6388854980469 122.14771270751953 261.5043029785156 143.5194549560547 14.05933666229248 109.62020111083984 C 631.8114624023438 108.65131378173828 603.8138427734375 107.32344055175781 512.1163330078125 139.22857666015625 C 430.58258056640625 113.17792510986328 223.0902557373047 134.23281860351562 257.0852355957031 119.40670776367188"/>
    <path stroke-width="0" fill="rgb(-18, -24, -8)" opacity="0.9882635" stroke="rgb(63, 146, 150)" stroke-opacity="1.0" stroke-linecap="round" stroke-linejoin="round" d="M 382.0067138671875 107.79283142089844 C -24.1400146484375 102.46492767333984 23.021869659423828 100.29383087158203 467.3912658691406 100.69812774658203 C 160.45286560058594 88.99659729003906 -143.0720672607422 101.23077392578125 205.4184112548828 93.76435852050781 C 171.45848083496094 94.45153045654297 -12.099778175354004 103.06229400634766 -93.63092041015625 84.68700408935547 C 544.5618896484375 87.42340850830078 275.1653747558594 78.10208892822266 382.0067138671875 107.79283142089844"/>
    <path stroke-width="0" fill="rgb(270, 268, 272)" opacity="1.0013673" stroke="rgb(56, 242, 114)" stroke-opacity="1.0" stroke-linecap="round" stroke-linejoin="round" d="M -20.90798568725586 137.19378662109375 C -139.28192138671875 149.78076171875 -17.06265640258789 142.76824951171875 710.6543579101562 146.26824951171875 C 663.7408447265625 116.11476135253906 392.866455078125 125.26244354248047 18.559316635131836 123.27716064453125 C -76.68008422851562 129.89381408691406 -153.62901306152344 85.93829345703125 254.6776123046875 122.28795623779297 C -35.83972930908203 124.85430145263672 -90.07237243652344 118.05928802490234 -20.90798568725586 137.19378662109375"/>
    <path stroke-width="0" fill="rgb(49, 35, 16)" opacity="0.93662417" stroke="rgb(178, 75, 207)" stroke-opacity="1.0" stroke-linecap="round" stroke-linejoin="round" d="M 186.52276611328125 325.0555725097656 C 114.98151397705078 310.53985595703125 128.40963745117188 294.5657043457031 246.75306701660156 306.5507507324219 C 190.259033203125 328.16265869140625 110.72376251220703 326.8155517578125 33.38680648803711 319.8633728027344 C 154.366455078125 307.3419189453125 182.14208984375 321.9445495605469 118.38286590576172 321.8772277832031 C 132.82423400878906 326.5554504394531 146.6055908203125 309.6043395996094 186.52276611328125 325.0555725097656"/>
    <path stroke-width="0" fill="rgb(285, 268, 277)" opacity="1.0821422" stroke="rgb(224, 148, 224)" stroke-opacity="1.0" stroke-linecap="round" stroke-linejoin="round" d="M 479.4855041503906 313.7234191894531 C 484.90252685546875 255.07949829101562 492.0231628417969 274.5700378417969 482.82830810546875 287.37835693359375 C 471.3051452636719 271.4691467285156 481.92431640625 241.31219482421875 464.19622802734375 194.0663299560547 C 478.6426696777344 238.3004608154297 472.0747375488281 222.78196716308594 495.5731506347656 206.2350311279297 C 497.0263671875 252.68734741210938 496.56451416015625 343.9033203125 479.4855041503906 313.7234191894531"/>
    <path stroke-width="0" fill="rgb(27, 7, -15)" opacity="1.0553193" stroke="rgb(184, 127, 243)" stroke-opacity="1.0" stroke-linecap="round" stroke-linejoin="round" d="M 110.2564926147461 325.74481201171875 C -22.065101623535156 332.791748046875 -36.3056640625 318.2236022949219 0.2557379901409149 357.22601318359375 C 20.460865020751953 290.9730529785156 1.9903069734573364 358.2334289550781 -65.77689361572266 321.64013671875 C 29.22983169555664 308.96905517578125 59.689605712890625 306.88092041015625 82.42061614990234 309.5665588378906 C 27.40974998474121 303.2418212890625 48.05332565307617 289.00567626953125 110.2564926147461 325.74481201171875"/>
    <path stroke-width="0" fill="rgb(7, -4, 23)" opacity="1.0986987" stroke="rgb(108, 154, 4)" stroke-opacity="1.0" stroke-linecap="round" stroke-linejoin="round" d="M 192.29620361328125 311.51513671875 C 282.3714599609375 333.4503173828125 185.19801330566406 299.1234130859375 285.7295227050781 331.6413879394531 C 49.579994201660156 329.1683044433594 -24.27465057373047 336.1776123046875 173.3665008544922 313.6305847167969 C 187.05020141601562 304.83453369140625 185.86172485351562 302.0639953613281 164.20663452148438 312.0168151855469 C 189.5876007080078 322.2784729003906 192.86972045898438 320.20208740234375 192.29620361328125 311.51513671875"/>
    <path stroke-width="0" fill="rgb(-28, 6, 54)" opacity="0.50265825" stroke="rgb(168, 73, 157)" stroke-opacity="1.0" stroke-linecap="round" stroke-linejoin="round" d="M 289.1739501953125 331.5284423828125 C 166.57566833496094 312.8997497558594 134.9043426513672 319.3424072265625 411.34912109375 302.488525390625 C 367.3063659667969 301.470458984375 116.56451416015625 301.47540283203125 -105.7126235961914 300.77349853515625 C 163.2589874267578 364.46978759765625 215.83091735839844 276.97479248046875 181.03128051757812 321.07000732421875 C 180.7999725341797 326.1066589355469 215.95806884765625 306.5767822265625 289.1739501953125 331.5284423828125"/>
    <path stroke-width="0" fill="rgb(0, 16, 6)" opacity="0.70994985" stroke="rgb(34, 76, 145)" stroke-opacity="1.0" stroke-linecap="round" stroke-linejoin="round" d="M 225.34422302246094 321.22369384765625 C 173.4129180908203 301.8687744140625 160.23129272460938 288.70263671875 114.380615234375 323.71728515625 C 140.95497131347656 325.5097351074219 134.94000244140625 296.9970703125 193.94473266601562 326.9990234375 C 211.3613739013672 322.75836181640625 221.60552978515625 326.9783630371094 192.96670532226562 317.5652160644531 C 170.78692626953125 321.3061828613281 180.41688537597656 327.7157897949219 225.34422302246094 321.22369384765625"/>
    <path stroke-width="0" fill="rgb(-13, -8, -8)" opacity="1.0164039" stroke="rgb(146, 166, 166)" stroke-opacity="1.0" stroke-linecap="round" stroke-linejoin="round" d="M 475.9328918457031 323.8882141113281 C 394.72247314453125 285.94854736328125 296.4222412109375 308.2138366699219 173.0856170654297 325.1794128417969 C 343.1681213378906 339.24462890625 335.8751220703125 325.5569152832031 308.67559814453125 332.4495849609375 C 307.8678894042969 336.6222229003906 291.7412414550781 322.7866516113281 321.106689453125 345.9940185546875 C 327.0416259765625 343.049072265625 315.65728759765625 324.47723388671875 475.9328918457031 323.8882141113281"/>
    <path stroke-width="0" fill="rgb(193, 189, 123)" opacity="0.75913054" stroke="rgb(228, 93, 111)" stroke-opacity="1.0" stroke-linecap="round" stroke-linejoin="round" d="M 337.9325256347656 360.7973937988281 C 400.7004089355469 368.3207702636719 296.6170349121094 370.5367431640625 309.1976623535156 358.4556884765625 C 327.98779296875 350.21661376953125 264.8915100097656 344.9461975097656 288.52325439453125 350.68609619140625 C 275.5165100097656 318.6296691894531 280.37591552734375 338.20806884765625 293.655517578125 332.58758544921875 C 344.0901184082031 332.41265869140625 304.8602600097656 320.3343811035156 337.9325256347656 360.7973937988281"/>
    <path stroke-width="0" fill="rgb(-23, -19, -18)" opacity="1.0059694" stroke="rgb(205, 179, 25)" stroke-opacity="1.0" stroke-linecap="round" stroke-linejoin="round" d="M 461.5355224609375 327.7124328613281 C 613.9000244140625 333.0198669433594 539.9495239257812 332.810302734375 496.31390380859375 325.6116027832031 C 416.20263671875 349.4560852050781 403.8223876953125 288.86181640625 432.44366455078125 306.3719177246094 C 513.4923706054688 306.9245910644531 506.6090087890625 285.0149841308594 533.0266723632812 295.875 C 457.87432861328125 292.5169982910156 529.3343505859375 315.79150390625 461.5355224609375 327.7124328613281"/>
    <path stroke-width="0" fill="rgb(16, 157, 78)" opacity="1.0067028" stroke="rgb(182, 254, 38)" stroke-opacity="1.0" stroke-linecap="round" stroke-linejoin="round" d="M 472.81878662109375 172.2223663330078 C 503.68438720703125 205.06668090820312 443.5360107421875 205.63096618652344 521.3070068359375 205.50564575195312 C 484.0521545410156 205.50314331054688 512.9889526367188 205.38070678710938 488.68878173828125 204.99217224121094 C 498.729248046875 203.2198944091797 513.7567749023438 202.6007843017578 434.38958740234375 204.68272399902344 C 444.8720703125 305.19573974609375 487.84417724609375 303.9881896972656 472.81878662109375 172.2223663330078"/>
    <path stroke-width="0" fill="rgb(2, 41, 21)" opacity="0.43652818" stroke="rgb(41, 156, 31)" stroke-opacity="1.0" stroke-linecap="round" stroke-linejoin="round" d="M 12.725329399108887 267.764404296875 C 38.4477424621582 180.93316650390625 -46.95518493652344 205.70834350585938 253.97512817382812 205.41796875 C 187.88827514648438 229.0447235107422 18.862491607666016 172.6937713623047 51.38201904296875 270.38385009765625 C 53.68833923339844 232.21633911132812 30.23625373840332 219.93209838867188 100.44496154785156 209.4435577392578 C -15.552783966064453 216.50453186035156 42.66547393798828 185.9104461669922 12.725329399108887 267.764404296875"/>
    <path stroke-width="0" fill="rgb(-12, -13, 0)" opacity="0.64998144" stroke="rgb(205, 145, 103)" stroke-opacity="1.0" stroke-linecap="round" stroke-linejoin="round" d="M 322.05364990234375 311.9549865722656 C 421.2344665527344 306.08056640625 358.57586669921875 326.19384765625 344.04437255859375 329.6531677246094 C 301.9336242675781 331.199462890625 226.84713745117188 335.27203369140625 125.14332580566406 314.98486328125 C -63.99956130981445 303.9264221191406 98.01847076416016 313.211181640625 485.0284423828125 299.92864990234375 C 337.5846862792969 327.4719543457031 315.07977294921875 281.27117919921875 322.05364990234375 311.9549865722656"/>
    <path stroke-width="0" fill="rgb(-15, -15, -21)" opacity="0.9229339" stroke="rgb(177, 115, 184)" stroke-opacity="1.0" stroke-linecap="round" stroke-linejoin="round" d="M 432.83233642578125 351.4185485839844 C 625.58154296875 345.38494873046875 665.4923706054688 345.8171691894531 550.9277954101562 381.14324951171875 C 99.91521453857422 378.16107177734375 -10.819780349731445 389.4549560546875 349.13128662109375 350.5101318359375 C 421.4210205078125 358.3406066894531 374.4465637207031 337.83795166015625 377.77001953125 347.2565002441406 C 306.6374206542969 322.9819641113281 525.9710083007812 323.4741516113281 432.83233642578125 351.4185485839844"/>
    <path stroke-width="0" fill="rgb(58, 48, 30)" opacity="1.0182008" stroke="rgb(248, 218, 2)" stroke-opacity="1.0" stroke-linecap="round" stroke-linejoin="round" d="M -52.78585433959961 506.0935363769531 C 481.7652587890625 511.89544677734375 503.3332824707031 494.36212158203125 52.31935501098633 496.8877258300781 C 65.5633544921875 456.095703125 60.735877990722656 485.3569641113281 -29.294973373413086 473.89404296875 C 60.95238494873047 468.09466552734375 62.89249801635742 476.0555725097656 59.78213119506836 471.40789794921875 C 57.037086486816406 521.3660888671875 91.7536392211914 480.6224060058594 -52.78585433959961 506.0935363769531"/>
    <path stroke-width="0" fill="rgb(28, 22, 12)" opacity="1.1484158" stroke="rgb(186, 43, 132)" stroke-opacity="1.0" stroke-linecap="round" stroke-linejoin="round" d="M 319.35693359375 375.1620788574219 C 301.8675842285156 321.99688720703125 318.07073974609375 367.5028991699219 0.706926703453064 357.3865966796875 C 399.3734436035156 356.75 392.5209045410156 359.84942626953125 195.7420654296875 357.69964599609375 C 338.7711486816406 342.3541259765625 206.23739624023438 358.0056457519531 -212.13375854492188 347.1070861816406 C -51.631107330322266 379.3887939453125 -31.24626922607422 360.36749267578125 319.35693359375 375.1620788574219"/>
    <path stroke-width="0" fill="rgb(16, 147, 102)" opacity="0.53576094" stroke="rgb(50, 4, 202)" stroke-opacity="1.0" stroke-linecap="round" stroke-linejoin="round" d="M 457.3479919433594 206.7351837158203 C 478.42681884765625 337.0112609863281 459.61737060546875 203.9066619873047 464.4922790527344 209.77113342285156 C 462.2498474121094 207.9155731201172 465.20477294921875 259.56597900390625 466.3259582519531 221.24378967285156 C 452.53179931640625 316.0872802734375 481.4049072265625 257.0589599609375 487.36114501953125 241.90782165527344 C 448.02423095703125 289.7684020996094 469.1717224121094 264.2212219238281 457.3479919433594 206.7351837158203"/>
    <path stroke-width="0" fill="rgb(150, 75, -55)" opacity="0.37049526" stroke="rgb(88, 236, 179)" stroke-opacity="1.0" stroke-linecap="round" stroke-linejoin="round" d="M 500.5624694824219 144.76205444335938 C 500.7626647949219 158.2113800048828 497.6466369628906 304.7530822753906 493.2694091796875 312.1415710449219 C 474.4864196777344 233.82725524902344 474.74456787109375 245.98318481445312 496.7430419921875 320.383056640625 C 510.2460632324219 187.4311981201172 477.93157958984375 195.21791076660156 532.4046630859375 205.4399871826172 C 470.4827575683594 189.98922729492188 510.4810791015625 249.59857177734375 500.5624694824219 144.76205444335938"/>
    <path stroke-width="0" fill="rgb(251, 258, 248)" opacity="1.0324153" stroke="rgb(41, 158, 147)" stroke-opacity="1.0" stroke-linecap="round" stroke-linejoin="round" d="M 317.8079833984375 306.6934814453125 C 251.23776245117188 318.61309814453125 210.3887481689453 311.4472961425781 165.33062744140625 316.8438415527344 C 243.23895263671875 311.362060546875 203.62606811523438 315.869140625 84.50666046142578 309.8133850097656 C 207.9691162109375 286.9382019042969 270.8654479980469 311.7593078613281 278.201904296875 298.374755859375 C 262.70184326171875 316.29107666015625 276.664794921875 296.5928039550781 317.8079833984375 306.6934814453125"/>
    <path stroke-width="0" fill="rgb(264, 272, 275)" opacity="0.69473827" stroke="rgb(238, 156, 136)" stroke-opacity="1.0" stroke-linecap="round" stroke-linejoin="round" d="M 422.6951599121094 273.1662902832031 C 439.4976501464844 261.31146240234375 433.2702331542969 277.19775390625 433.2871398925781 228.37164306640625 C 433.4209899902344 220.7711181640625 424.9353332519531 209.98028564453125 433.8298645019531 277.34649658203125 C 427.82110595703125 281.9649658203125 430.490966796875 264.1747131347656 417.47705078125 271.2915954589844 C 422.9955749511719 280.26226806640625 412.7132263183594 252.90216064453125 422.6951599121094 273.1662902832031"/>
    <path stroke-width="0" fill="rgb(17, 4, 25)" opacity="1.1725473" stroke="rgb(186, 79, 101)" stroke-opacity="1.0" stroke-linecap="round" stroke-linejoin="round" d="M 416.81658935546875 476.91119384765625 C 290.3091735839844 475.60491943359375 312.2078552246094 471.50390625 320.2001953125 470.52435302734375 C 316.7613525390625 470.28204345703125 284.0797119140625 466.7012023925781 616.0623168945312 470.1954040527344 C 389.59405517578125 487.9899597167969 352.7912292480469 467.7887268066406 202.59947204589844 470.3582763671875 C 145.05479431152344 477.1563720703125 206.5113525390625 473.5782775878906 416.81658935546875 476.91119384765625"/>
    <path stroke-width="0" fill="rgb(-15, -11, -9)" opacity="0.9712792" stroke="rgb(47, 240, 188)" stroke-opacity="1.0" stroke-linecap="round" stroke-linejoin="round" d="M 267.830322265625 360.046630859375 C 300.997314453125 335.6643981933594 307.6256103515625 365.3951721191406 515.8173217773438 352.84210205078125 C 368.1282043457031 349.4964599609375 344.3361511230469 353.8238525390625 340.7215576171875 351.4309387207031 C 312.4715576171875 343.7969970703125 339.3417053222656 364.133056640625 324.69573974609375 316.415771484375 C 405.75799560546875 290.54547119140625 407.50006103515625 371.1407775878906 267.830322265625 360.046630859375"/>
    <path stroke-width="0" fill="rgb(-24, -24, -16)" opacity="0.9733455" stroke="rgb(57, 64, 14)" stroke-opacity="1.0" stroke-linecap="round" stroke-linejoin="round" d="M 475.2811584472656 173.01678466796875 C 463.2829284667969 249.13064575195312 486.2189636230469 457.7344970703125 483.02691650390625 179.83474731445312 C 420.1578369140625 184.85194396972656 463.1414489746094 146.79898071289062 439.15350341796875 367.1722106933594 C 430.95648193359375 159.18789672851562 437.73504638671875 182.22247314453125 440.28216552734375 179.34365844726562 C 448.2384338378906 162.49380493164062 485.76593017578125 174.14132690429688 475.2811584472656 173.01678466796875"/>
    <path stroke-width="0" fill="rgb(162, 169, 84)" opacity="1.0066717" stroke="rgb(79, 177, 96)" stroke-opacity="1.0" stroke-linecap="round" stroke-linejoin="round" d="M 634.4483642578125 77.9085464477539 C 546.7732543945312 163.12774658203125 548.7003784179688 183.9923095703125 511.2421875 179.7244873046875 C 492.982666015625 156.05482482910156 474.5414733886719 61.25811004638672 482.2632141113281 56.594696044921875 C 529.0484008789062 100.17289733886719 512.2848510742188 75.54367065429688 493.5601806640625 48.306617736816406 C 402.9974670410156 10.734807968139648 441.2305603027344 -93.79230499267578 634.4483642578125 77.9085464477539"/>
    <path stroke-width="0" fill="rgb(271, 263, 266)" opacity="1.0166562" stroke="rgb(6, 17, 173)" stroke-opacity="1.0" stroke-linecap="round" stroke-linejoin="round" d="M 488.8855285644531 297.3619689941406 C 505.94500732421875 323.7216491699219 476.724365234375 303.84173583984375 492.7072448730469 307.41156005859375 C 284.14923095703125 305.8692932128906 173.82498168945312 310.5751037597656 147.7073974609375 298.94354248046875 C 301.1014709472656 298.0412902832031 372.0702209472656 299.2651062011719 435.3476257324219 295.37738037109375 C 339.3373107910156 294.764404296875 314.8207702636719 295.7707214355469 488.8855285644531 297.3619689941406"/>
    <path stroke-width="0" fill="rgb(-3, -15, 3)" opacity="0.97969824" stroke="rgb(136, 228, 252)" stroke-opacity="1.0" stroke-linecap="round" stroke-linejoin="round" d="M -72.40077209472656 474.30206298828125 C 32.694847106933594 466.7518310546875 85.24800109863281 470.8124084472656 31.233661651611328 468.7655944824219 C 89.57978057861328 470.4671630859375 163.95852661132812 468.60845947265625 354.31573486328125 469.63275146484375 C 395.7881164550781 479.6545104980469 213.08807373046875 476.56317138671875 26.3535213470459 476.8630065917969 C 55.5372200012207 474.8033447265625 33.88764190673828 480.0834045410156 -72.40077209472656 474.30206298828125"/>
    <path stroke-width="0" fill="rgb(25, 20, 19)" opacity="0.8310751" stroke="rgb(169, 67, 5)" stroke-opacity="1.0" stroke-linecap="round" stroke-linejoin="round" d="M 118.77568817138672 322.774169921875 C 111.0831069946289 342.2341003417969 50.011993408203125 315.55169677734375 22.254880905151367 315.18341064453125 C 115.17070770263672 310.5677795410156 124.26821899414062 314.9308166503906 119.29719543457031 318.0372009277344 C 90.5291976928711 321.7327575683594 100.49047088623047 331.668701171875 134.4571075439453 323.97259521484375 C 49.59208679199219 318.790283203125 45.951072692871094 299.8407287597656 118.77568817138672 322.774169921875"/>
    <path stroke-width="0" fill="rgb(273, 265, 271)" opacity="1.0046957" stroke="rgb(81, 97, 150)" stroke-opacity="1.0" stroke-linecap="round" stroke-linejoin="round" d="M 133.07891845703125 320.25213623046875 C 117.56462097167969 311.2262878417969 110.82550811767578 314.83123779296875 110.91064453125 315.0793762207031 C 134.92933654785156 293.4716796875 57.11128616333008 335.9980163574219 -60.43436813354492 298.6379699707031 C 209.3246307373047 297.4797668457031 248.3209228515625 298.2685546875 191.6061553955078 300.6658935546875 C 90.95409393310547 323.719482421875 117.84945678710938 310.4061584472656 133.07891845703125 320.25213623046875"/>
    <path stroke-width="0" fill="rgb(65, 17, 4)" opacity="0.9715993" stroke="rgb(160, 222, 69)" stroke-opacity="1.0" stroke-linecap="round" stroke-linejoin="round" d="M 489.42816162109375 445.3116149902344 C 351.5047912597656 437.5549011230469 413.6742858886719 426.5248107910156 -158.21836853027344 437.8321228027344 C 654.2689208984375 457.3455810546875 502.8391418457031 418.8699951171875 503.8075866699219 433.1241455078125 C 277.22821044921875 446.99560546875 549.2416381835938 433.77239990234375 251.11720275878906 433.05950927734375 C 508.7973327636719 434.7542724609375 636.3350219726562 433.2905578613281 489.42816162109375 445.3116149902344"/>
    <path stroke-width="0" fill="rgb(-15, -10, -1)" opacity="0.9922156" stroke="rgb(241, 186, 64)" stroke-opacity="1.0" stroke-linecap="round" stroke-linejoin="round" d="M 375.98553466796875 308.2932434082031 C 13.640830039978027 348.4047546386719 -167.54058837890625 327.8874816894531 8.947518348693848 315.7378234863281 C 93.59022521972656 312.0278015136719 19.345321655273438 312.7598571777344 -81.27760314941406 316.849853515625 C -1.3048661947250366 317.52337646484375 34.21998977661133 338.5412292480469 -51.19819259643555 307.849365234375 C -136.6981201171875 310.19097900390625 125.68126678466797 307.8175048828125 375.98553466796875 308.2932434082031"/>
    <path stroke-width="0" fill="rgb(270, 273, 262)" opacity="0.7259011" stroke="rgb(95, 118, 70)" stroke-opacity="1.0" stroke-linecap="round" stroke-linejoin="round" d="M 542.6885986328125 197.343994140625 C 474.3682556152344 160.8385467529297 506.5556335449219 188.9368133544922 497.2055969238281 209.74728393554688 C 487.0678405761719 204.7068634033203 492.629638671875 195.65231323242188 493.6583557128906 308.0003967285156 C 475.7001037597656 321.04595947265625 485.6225891113281 196.3462677001953 481.3127136230469 159.9072265625 C 507.733642578125 205.94837951660156 477.7309875488281 206.7317352294922 542.6885986328125 197.343994140625"/>
    <path stroke-width="0" fill="rgb(26, 11, -40)" opacity="1.0753248" stroke="rgb(36, 124, 90)" stroke-opacity="1.0" stroke-linecap="round" stroke-linejoin="round" d="M 342.5068054199219 491.71533203125 C 346.036376953125 511.2408142089844 329.8341064453125 508.9231872558594 464.2281188964844 504.5831604003906 C 384.948974609375 502.6665344238281 357.4120178222656 494.94140625 306.08306884765625 503.06671142578125 C 301.0609436035156 472.364013671875 326.4418640136719 502.3110046386719 308.4342041015625 496.66668701171875 C 354.26019287109375 507.9683837890625 361.68402099609375 492.4891357421875 342.5068054199219 491.71533203125"/>
    <path stroke-width="0" fill="rgb(202, 142, 195)" opacity="0.60286695" stroke="rgb(140, 149, 245)" stroke-opacity="1.0" stroke-linecap="round" stroke-linejoin="round" d="M 80.43327331542969 384.329345703125 C 64.8970718383789 367.0465087890625 34.604698181152344 355.9835510253906 87.13819122314453 370.4886474609375 C 124.9499282836914 362.3929138183594 109.5525894165039 374.4977111816406 112.20635986328125 374.6708068847656 C 33.81615447998047 374.4256286621094 61.19972229003906 367.0063781738281 89.6269760131836 380.60675048828125 C 76.07661437988281 378.66741943359375 79.14801788330078 388.8270568847656 80.43327331542969 384.329345703125"/>
    <path stroke-width="0" fill="rgb(49, 86, 6)" opacity="0.62407464" stroke="rgb(170, 200, 71)" stroke-opacity="1.0" stroke-linecap="round" stroke-linejoin="round" d="M 362.19842529296875 562.7738647460938 C 348.96875 530.446044921875 336.229248046875 501.55755615234375 357.7961120605469 501.6134948730469 C 437.78076171875 507.50994873046875 345.73284912109375 504.3928527832031 315.49505615234375 504.9748840332031 C 362.2374267578125 513.4140014648438 350.5857849121094 473.2152404785156 351.0591735839844 502.03253173828125 C 336.6395263671875 517.3868408203125 361.4342956542969 537.2774658203125 362.19842529296875 562.7738647460938"/>
    <path stroke-width="0" fill="rgb(0, 96, 3)" opacity="0.81495124" stroke="rgb(16, 123, 249)" stroke-opacity="1.0" stroke-linecap="round" stroke-linejoin="round" d="M 353.0547180175781 446.70672607421875 C 369.700439453125 447.4851989746094 330.2821350097656 435.37060546875 397.75970458984375 444.27301025390625 C 349.3921203613281 436.1898193359375 368.25628662109375 428.8200378417969 357.50732421875 450.6849670410156 C 398.60894775390625 444.9115295410156 390.8866882324219 450.91412353515625 359.0083923339844 449.979248046875 C 321.93572998046875 444.9639892578125 322.6060791015625 447.6664123535156 353.0547180175781 446.70672607421875"/>
    <path stroke-width="0" fill="rgb(1, 1, -8)" opacity="1.023251" stroke="rgb(240, 203, 160)" stroke-opacity="1.0" stroke-linecap="round" stroke-linejoin="round" d="M -22.206825256347656 372.7769775390625 C 33.201412200927734 350.4822998046875 31.569990158081055 363.90240478515625 2.2052245140075684 364.4517822265625 C 85.84115600585938 356.54852294921875 68.75008392333984 368.75762939453125 85.35250854492188 349.7679138183594 C 58.706993103027344 382.4339904785156 74.29568481445312 339.5478515625 -32.127349853515625 379.7509460449219 C 142.45364379882812 385.5111999511719 379.9383850097656 370.09686279296875 -22.206825256347656 372.7769775390625"/>
    <path stroke-width="0" fill="rgb(4, -7, -1)" opacity="1.0840771" stroke="rgb(88, 37, 250)" stroke-opacity="1.0" stroke-linecap="round" stroke-linejoin="round" d="M 350.6965637207031 505.3465576171875 C 336.65655517578125 477.87322998046875 354.1933288574219 486.765380859375 346.90997314453125 541.563232421875 C 386.45111083984375 537.88525390625 368.7205810546875 491.1650390625 390.71759033203125 501.4940185546875 C 391.761474609375 488.7462463378906 384.0260925292969 455.9644470214844 376.3222351074219 547.501220703125 C 338.90911865234375 511.8394470214844 351.3026123046875 504.9849548339844 350.6965637207031 505.3465576171875"/>
    <path stroke-width="0" fill="rgb(49, -9, 32)" opacity="1.0451106" stroke="rgb(209, 48, 130)" stroke-opacity="1.0" stroke-linecap="round" stroke-linejoin="round" d="M 67.66351318359375 445.4316101074219 C 79.91741943359375 451.7640075683594 12.819341659545898 445.081787109375 -58.78911209106445 448.4357604980469 C 101.56494140625 448.01483154296875 102.16646575927734 448.1774597167969 101.29934692382812 448.093017578125 C 89.83674621582031 444.9700927734375 84.86612701416016 444.33172607421875 68.10350799560547 449.5821533203125 C 65.41572570800781 410.6619567871094 77.7500228881836 455.5389709472656 67.66351318359375 445.4316101074219"/>
    <path stroke-width="0" fill="rgb(35, 0, 19)" opacity="1.1273668" stroke="rgb(185, 2, 196)" stroke-opacity="1.0" stroke-linecap="round" stroke-linejoin="round" d="M 106.09138488769531 452.0095520019531 C 89.93414306640625 441.478271484375 103.88665771484375 432.63641357421875 131.0694580078125 437.144775390625 C 136.99082946777344 457.2559814453125 123.20555877685547 442.6000061035156 -8.03050708770752 447.8017883300781 C 127.74267578125 443.947265625 136.0720977783203 452.18853759765625 134.55886840820312 442.0150146484375 C 138.63543701171875 435.8145751953125 92.5625 429.116455078125 106.09138488769531 452.0095520019531"/>
    <path stroke-width="0" fill="rgb(47, 26, 0)" opacity="1.2008717" stroke="rgb(20, 22, 171)" stroke-opacity="1.0" stroke-linecap="round" stroke-linejoin="round" d="M 462.71014404296875 490.2527770996094 C 442.2374267578125 487.94989013671875 468.7413635253906 522.2689819335938 499.6753234863281 493.1090087890625 C 586.623779296875 486.0794677734375 565.2011108398438 483.1776428222656 130.52224731445312 488.0911865234375 C 323.1388854980469 501.2644348144531 609.8995361328125 484.7624206542969 444.8484802246094 502.7925109863281 C 474.4573669433594 493.54022216796875 462.72509765625 506.6097412109375 462.71014404296875 490.2527770996094"/>
    <path stroke-width="0" fill="rgb(-56, -10, -23)" opacity="1.0959816" stroke="rgb(107, 142, 219)" stroke-opacity="1.0" stroke-linecap="round" stroke-linejoin="round" d="M 348.2991027832031 430.8204040527344 C 292.1119079589844 430.162841796875 349.49658203125 425.2127380371094 316.4956970214844 436.19873046875 C 392.184814453125 443.89630126953125 339.4608459472656 446.14886474609375 321.1056213378906 439.1131286621094 C 344.2038879394531 421.4305419921875 302.0735168457031 437.8106689453125 -46.652061462402344 425.5071105957031 C 757.3927001953125 420.53802490234375 736.2771606445312 432.5773010253906 348.2991027832031 430.8204040527344"/>
    <path stroke-width="0" fill="rgb(41, 141, 44)" opacity="0.8592287" stroke="rgb(68, 33, 14)" stroke-opacity="1.0" stroke-linecap="round" stroke-linejoin="round" d="M 164.2884979248047 437.21868896484375 C 155.87889099121094 451.9161071777344 221.750732421875 444.2885437011719 -63.93867874145508 447.9033508300781 C 376.6356506347656 451.3269958496094 429.7314147949219 445.6931457519531 173.51626586914062 447.594970703125 C 150.9073486328125 451.4229736328125 166.162109375 452.8468933105469 168.60498046875 438.34344482421875 C 166.767822265625 436.9203796386719 164.06707763671875 454.8158264160156 164.2884979248047 437.21868896484375"/>
    <path stroke-width="0" fill="rgb(180, 109, 145)" opacity="0.34874016" stroke="rgb(66, 116, 174)" stroke-opacity="1.0" stroke-linecap="round" stroke-linejoin="round" d="M 241.81234741210938 370.195068359375 C 206.36683654785156 368.4934387207031 195.27481079101562 364.1671447753906 238.75418090820312 373.1741638183594 C 201.0931854248047 361.0296936035156 191.68820190429688 353.7979431152344 156.0432891845703 333.0119934082031 C 192.97987365722656 347.9216613769531 197.9019775390625 365.0772705078125 236.40884399414062 371.19244384765625 C 59.7529411315918 379.6462097167969 90.2021255493164 363.4829406738281 241.81234741210938 370.195068359375"/>
    <path stroke-width="0" fill="rgb(25, 11, 11)" opacity="0.8160706" stroke="rgb(14, 177, 198)" stroke-opacity="1.0" stroke-linecap="round" stroke-linejoin="round" d="M 352.22137451171875 358.2314758300781 C 382.72222900390625 364.1354064941406 375.3041687011719 360.006591796875 396.08697509765625 358.1009521484375 C 415.9349670410156 346.46697998046875 409.1752624511719 340.87774658203125 415.8485107421875 340.0823669433594 C 426.8360900878906 376.1904296875 417.5275573730469 347.5445556640625 411.8122253417969 370.58929443359375 C 419.59149169921875 378.0911865234375 372.37249755859375 359.58197021484375 352.22137451171875 358.2314758300781"/>
    <path stroke-width="0" fill="rgb(44, 48, -11)" opacity="1.0863887" stroke="rgb(66, 95, 149)" stroke-opacity="1.0" stroke-linecap="round" stroke-linejoin="round" d="M 425.768798828125 522.6793212890625 C 409.7640380859375 492.0074462890625 443.0897216796875 500.5584411621094 434.5968017578125 503.4535827636719 C 439.0148620605469 501.7928161621094 400.57305908203125 501.0509033203125 341.7826232910156 497.2847900390625 C 407.2867431640625 505.53155517578125 441.9248352050781 511.38836669921875 445.2337646484375 505.61590576171875 C 396.16290283203125 471.4150085449219 428.8397521972656 507.9394226074219 425.768798828125 522.6793212890625"/>
    <path stroke-width="0" fill="rgb(37, 24, 18)" opacity="0.7884244" stroke="rgb(203, 19, 132)" stroke-opacity="1.0" stroke-linecap="round" stroke-linejoin="round" d="M 588.2020874023438 509.44915771484375 C 539.3577270507812 499.5919189453125 248.91030883789062 513.228515625 197.109619140625 500.1617736816406 C 452.5971374511719 497.9049072265625 494.51025390625 503.84063720703125 498.6544189453125 491.1715393066406 C 527.845703125 499.7745361328125 578.7677001953125 490.7039794921875 410.1274108886719 490.63031005859375 C 505.6131896972656 490.9097595214844 474.5315246582031 491.8576965332031 588.2020874023438 509.44915771484375"/>
    <path stroke-width="0" fill="rgb(233, 244, 245)" opacity="0.5080192" stroke="rgb(70, 32, 100)" stroke-opacity="1.0" stroke-linecap="round" stroke-linejoin="round" d="M 405.2831726074219 89.02210235595703 C 417.8255920410156 79.55923461914062 432.1548156738281 88.71590423583984 405.1584777832031 94.0640640258789 C 408.5380554199219 93.18775939941406 430.6565856933594 83.65232849121094 418.90008544921875 92.09649658203125 C 425.46478271484375 93.42796325683594 419.3906555175781 76.04105377197266 405.88531494140625 88.8030014038086 C 396.0100402832031 94.35553741455078 401.27685546875 90.9964599609375 405.2831726074219 89.02210235595703"/>
    <path stroke-width="0" fill="rgb(50, 29, -20)" opacity="0.93903714" stroke="rgb(47, 230, 138)" stroke-opacity="1.0" stroke-linecap="round" stroke-linejoin="round" d="M 225.305908203125 449.47821044921875 C 223.6549072265625 433.7433166503906 237.96072387695312 439.97467041015625 233.3355255126953 448.1551208496094 C 422.7366638183594 447.98175048828125 402.2521057128906 443.9992370605469 259.8663330078125 448.60272216796875 C 255.9607391357422 424.4701232910156 282.8838806152344 461.0838928222656 247.3109588623047 449.2330627441406 C 246.73622131347656 450.5480041503906 220.12806701660156 445.3836975097656 225.305908203125 449.47821044921875"/>
    <path stroke-width="0" fill="rgb(226, 173, 181)" opacity="0.82754457" stroke="rgb(230, 175, 178)" stroke-opacity="1.0" stroke-linecap="round" stroke-linejoin="round" d="M 176.85433959960938 367.7615661621094 C 173.3753662109375 382.7707824707031 232.66049194335938 363.3008728027344 252.97793579101562 363.1107177734375 C 229.85365295410156 366.8258361816406 235.9795684814453 360.17559814453125 240.6110076904297 372.2776184082031 C 230.8294677734375 372.4613952636719 226.02365112304688 375.05389404296875 425.82196044921875 370.994384765625 C 121.38835144042969 357.741943359375 321.00201416015625 384.2506103515625 176.85433959960938 367.7615661621094"/>
    <path stroke-width="0" fill="rgb(189, 206, 317)" opacity="0.015635151" stroke="rgb(192, 162, 61)" stroke-opacity="1.0" stroke-linecap="round" stroke-linejoin="round" d="M 454.39263916015625 297.6413269042969 C 458.3952941894531 291.5506286621094 432.4378967285156 294.6827392578125 445.3985290527344 256.111083984375 C 446.57659912109375 281.02362060546875 454.1845397949219 284.8268127441406 460.2188720703125 289.33056640625 C 462.8080139160156 299.1217346191406 471.4231262207031 295.94482421875 456.0561218261719 326.9382629394531 C 469.4409484863281 296.4509582519531 474.0158996582031 299.94610595703125 454.39263916015625 297.6413269042969"/>
    <path stroke-width="0" fill="rgb(105, 90, 137)" opacity="0.2831059" stroke="rgb(209, 231, 207)" stroke-opacity="1.0" stroke-linecap="round" stroke-linejoin="round" d="M 550.6619873046875 499.43914794921875 C 398.4530334472656 497.85601806640625 427.92205810546875 485.4338684082031 425.27569580078125 517.0933227539062 C 427.3760986328125 511.3750915527344 428.26922607421875 518.37353515625 419.76373291015625 503.80340576171875 C 437.31060791015625 479.4268798828125 393.4589538574219 501.1016540527344 499.4410095214844 498.6012268066406 C 428.37725830078125 476.81683349609375 413.6468200683594 487.8451232910156 550.6619873046875 499.43914794921875"/>
    <path stroke-width="0" fill="rgb(18, 65, 81)" opacity="0.9487616" stroke="rgb(160, 101, 15)" stroke-opacity="1.0" stroke-linecap="round" stroke-linejoin="round" d="M 371.0600891113281 274.1155700683594 C 478.7854309082031 272.6992492675781 242.1981964111328 244.7459259033203 308.5003356933594 199.3822021484375 C 429.1118469238281 196.4060821533203 388.58331298828125 195.53961181640625 400.1014404296875 271.33575439453125 C 359.33050537109375 245.79661560058594 367.443359375 259.9508972167969 293.3384094238281 224.8371124267578 C 305.3641052246094 277.8725891113281 273.23333740234375 274.8145751953125 371.0600891113281 274.1155700683594"/>
    <path stroke-width="0" fill="rgb(21, -1, -26)" opacity="1.0542716" stroke="rgb(65, 216, 8)" stroke-opacity="1.0" stroke-linecap="round" stroke-linejoin="round" d="M 226.3146514892578 487.155517578125 C 216.82949829101562 488.26617431640625 122.82134246826172 479.52960205078125 -115.36468505859375 490.36468505859375 C 242.9209442138672 500.210205078125 216.517822265625 483.315673828125 211.2834930419922 504.5602722167969 C 197.51715087890625 484.61517333984375 193.36184692382812 495.8185729980469 293.142333984375 486.49951171875 C 178.6167755126953 491.8117980957031 195.7817840576172 492.1498107910156 226.3146514892578 487.155517578125"/>
    <path stroke-width="0" fill="rgb(56, 55, 12)" opacity="0.8500693" stroke="rgb(90, 90, 4)" stroke-opacity="1.0" stroke-linecap="round" stroke-linejoin="round" d="M 276.53192138671875 441.6910400390625 C 274.1405334472656 433.96551513671875 275.2931213378906 440.13677978515625 289.774169921875 434.7406311035156 C 301.27130126953125 450.03857421875 285.9246520996094 441.02716064453125 289.5425720214844 429.07769775390625 C 294.7021179199219 462.1942443847656 362.2801818847656 439.4434509277344 288.9556884765625 451.43170166015625 C 296.882568359375 436.9404602050781 295.641845703125 442.8826904296875 276.53192138671875 441.6910400390625"/>
    <path stroke-width="0" fill="rgb(-1, 19, -42)" opacity="0.85465664" stroke="rgb(102, 236, 25)" stroke-opacity="1.0" stroke-linecap="round" stroke-linejoin="round" d="M -25.42314910888672 434.2127990722656 C 59.98130798339844 447.4256286621094 26.021360397338867 433.53448486328125 -8.958944320678711 441.0982360839844 C 124.78569030761719 440.6565856933594 152.65487670898438 419.0545349121094 -76.7855453491211 428.4613952636719 C 149.54989624023438 434.4664611816406 108.94799041748047 420.5424499511719 77.60584259033203 438.58282470703125 C 42.62446594238281 447.3063049316406 24.667436599731445 440.05413818359375 -25.42314910888672 434.2127990722656"/>
    <path stroke-width="0" fill="rgb(129, 101, 22)" opacity="0.9817798" stroke="rgb(221, 115, 83)" stroke-opacity="1.0" stroke-linecap="round" stroke-linejoin="round" d="M 563.9317016601562 362.48480224609375 C 456.4272766113281 349.13037109375 435.39971923828125 368.7008056640625 453.95330810546875 357.4107360839844 C 469.6006164550781 360.3125915527344 465.3719787597656 353.33319091796875 473.7738342285156 361.3337097167969 C 480.6224670410156 355.2759704589844 432.6232604980469 356.6328430175781 116.35126495361328 358.68426513671875 C 404.9761657714844 362.832275390625 500.3927001953125 355.26373291015625 563.9317016601562 362.48480224609375"/>
    <path stroke-width="0" fill="rgb(29, 17, 68)" opacity="0.5520145" stroke="rgb(33, 3, 29)" stroke-opacity="1.0" stroke-linecap="round" stroke-linejoin="round" d="M 433.4297180175781 509.17926025390625 C 449.655517578125 491.787841796875 445.99639892578125 515.2654418945312 446.82330322265625 523.1560668945312 C 438.833251953125 487.9548645019531 474.78607177734375 511.4303894042969 459.7624816894531 488.6075134277344 C 440.3358154296875 539.356201171875 476.6452941894531 524.2667236328125 453.91192626953125 523.234619140625 C 450.3213195800781 501.1204528808594 454.12530517578125 488.78216552734375 433.4297180175781 509.17926025390625"/>
    <path stroke-width="0" fill="rgb(99, 92, 147)" opacity="0.075372614" stroke="rgb(162, 125, 252)" stroke-opacity="1.0" stroke-linecap="round" stroke-linejoin="round" d="M 235.52781677246094 116.48698425292969 C 241.55960083007812 93.80850982666016 241.57748413085938 101.8641586303711 235.0823974609375 107.518310546875 C 232.02757263183594 114.08587646484375 238.6189727783203 109.130859375 237.45767211914062 105.19474029541016 C 237.67214965820312 105.41835021972656 244.01528930664062 92.35735321044922 248.47019958496094 75.94828033447266 C 246.65480041503906 90.31034088134766 240.94989013671875 103.28852844238281 235.52781677246094 116.48698425292969"/>
    <path stroke-width="0" fill="rgb(58, 65, 28)" opacity="0.6013676" stroke="rgb(199, 73, 61)" stroke-opacity="1.0" stroke-linecap="round" stroke-linejoin="round" d="M 409.878662109375 445.0584716796875 C 341.1901550292969 429.4603271484375 375.11187744140625 461.3965759277344 621.7386474609375 438.9403076171875 C 302.11737060546875 472.95513916015625 498.4579772949219 423.0279541015625 377.43548583984375 449.795166015625 C 453.36444091796875 444.780029296875 394.6346435546875 455.1304931640625 443.5638122558594 435.1795349121094 C 306.26263427734375 444.7656555175781 361.1369934082031 433.88287353515625 409.878662109375 445.0584716796875"/>
    <path stroke-width="0" fill="rgb(38, -21, -9)" opacity="0.8959112" stroke="rgb(62, 169, 131)" stroke-opacity="1.0" stroke-linecap="round" stroke-linejoin="round" d="M -24.123613357543945 367.6191101074219 C 10.783781051635742 441.6786193847656 -12.185037612915039 457.9698486328125 -59.04637908935547 436.9627990722656 C 23.935243606567383 431.4139709472656 39.56705856323242 431.7488708496094 41.52638244628906 447.98077392578125 C 23.1307373046875 438.1563415527344 60.241539001464844 429.8141784667969 -1.3552607297897339 432.04302978515625 C 25.286760330200195 460.4575500488281 -2.0289595127105713 461.47528076171875 -24.123613357543945 367.6191101074219"/>
    <path stroke-width="0" fill="rgb(65, 17, 18)" opacity="0.91331804" stroke="rgb(141, 73, 180)" stroke-opacity="1.0" stroke-linecap="round" stroke-linejoin="round" d="M 374.92547607421875 446.6453552246094 C 358.6086730957031 453.27093505859375 356.3294677734375 437.3359069824219 360.2409362792969 435.15625 C 369.1512451171875 459.1164245605469 336.1772155761719 441.39263916015625 362.5853576660156 448.65771484375 C 358.6325988769531 450.456787109375 343.01690673828125 427.68585205078125 399.5909423828125 435.2160949707031 C 356.9420166015625 436.1109619140625 350.65087890625 457.1304626464844 374.92547607421875 446.6453552246094"/>
    <path stroke-width="0" fill="rgb(261, 200, 223)" opacity="0.89841324" stroke="rgb(247, 230, 75)" stroke-opacity="1.0" stroke-linecap="round" stroke-linejoin="round" d="M 467.34716796875 367.2640380859375 C 409.6633605957031 362.15576171875 347.8182678222656 371.6170654296875 463.4773864746094 374.6898193359375 C 460.2691650390625 365.6021423339844 465.0181884765625 365.9203186035156 466.1359558105469 372.1812438964844 C 515.6473388671875 375.00103759765625 584.7691040039062 368.3028869628906 465.3998718261719 368.7608642578125 C 468.0967102050781 372.9373474121094 467.95166015625 374.2667541503906 467.34716796875 367.2640380859375"/>
    <path stroke-width="0" fill="rgb(116, 112, 135)" opacity="0.08966106" stroke="rgb(63, 27, 242)" stroke-opacity="1.0" stroke-linecap="round" stroke-linejoin="round" d="M 214.7449951171875 108.975341796875 C 202.7140655517578 97.39208221435547 189.92288208007812 91.16291046142578 187.44642639160156 99.36820983886719 C 192.98194885253906 86.02657318115234 190.8961181640625 97.02314758300781 189.476318359375 89.7093505859375 C 202.50765991210938 103.53751373291016 201.58676147460938 97.08795928955078 197.62286376953125 109.7726821899414 C 204.3516387939453 97.37826538085938 203.9845428466797 105.51093292236328 214.7449951171875 108.975341796875"/>
    <path stroke-width="0" fill="rgb(277, 284, 286)" opacity="0.9574226" stroke="rgb(69, 96, 95)" stroke-opacity="1.0" stroke-linecap="round" stroke-linejoin="round" d="M 328.1535339355469 77.10334777832031 C 351.5752868652344 91.91485595703125 297.56182861328125 62.48560333251953 363.9599304199219 92.74974060058594 C 381.009765625 87.85612487792969 358.60821533203125 95.17375946044922 353.250244140625 95.17459106445312 C 281.1927490234375 100.25402069091797 248.29824829101562 93.89845275878906 362.3740539550781 107.60616302490234 C 371.99420166015625 87.05196380615234 355.7074279785156 87.83580017089844 328.1535339355469 77.10334777832031"/>
    <path stroke-width="0" fill="rgb(-11, -5, -4)" opacity="0.01934724" stroke="rgb(213, 60, 128)" stroke-opacity="1.0" stroke-linecap="round" stroke-linejoin="round" d="M 319.5685729980469 157.05982971191406 C 330.17205810546875 114.0741195678711 320.7908935546875 131.5592041015625 320.67901611328125 123.879638671875 C 328.70892333984375 122.70064544677734 318.7969665527344 123.57754516601562 314.11907958984375 124.65623474121094 C 321.5321960449219 126.38542175292969 329.28082275390625 147.1305694580078 322.61517333984375 163.54029846191406 C 322.6639099121094 141.59593200683594 324.2803649902344 143.21807861328125 319.5685729980469 157.05982971191406"/>
    <path stroke-width="0" fill="rgb(62, 37, 27)" opacity="0.4086576" stroke="rgb(161, 221, 239)" stroke-opacity="1.0" stroke-linecap="round" stroke-linejoin="round" d="M 149.74234008789062 451.74676513671875 C 223.4967803955078 425.4542541503906 221.4538116455078 415.94049072265625 225.72842407226562 438.3407897949219 C 246.65187072753906 434.66522216796875 255.80162048339844 436.917236328125 239.05873107910156 439.5909423828125 C 215.81460571289062 444.4772644042969 243.75961303710938 448.487060546875 226.91177368164062 439.4622497558594 C 225.50030517578125 417.9046325683594 226.885009765625 433.02142333984375 149.74234008789062 451.74676513671875"/>
    <path stroke-width="0" fill="rgb(-47, 23, 11)" opacity="0.57904935" stroke="rgb(228, 103, 140)" stroke-opacity="1.0" stroke-linecap="round" stroke-linejoin="round" d="M 215.9798583984375 434.6553955078125 C 10.424153327941895 419.1385803222656 -84.32166290283203 427.9056091308594 139.7368621826172 431.3785400390625 C 179.63351440429688 432.8883361816406 153.18533325195312 423.3367614746094 167.9453125 451.8436584472656 C 163.7171173095703 427.5724792480469 175.97593688964844 440.91009521484375 156.24241638183594 440.9961853027344 C 182.34909057617188 428.49371337890625 127.38862609863281 431.1572570800781 215.9798583984375 434.6553955078125"/>
    <path stroke-width="0" fill="rgb(268, 277, 238)" opacity="0.5242501" stroke="rgb(116, 102, 63)" stroke-opacity="1.0" stroke-linecap="round" stroke-linejoin="round" d="M 455.58197021484375 113.89022064208984 C 451.589599609375 119.62958526611328 460.3197937011719 117.3635025024414 478.1104736328125 116.50927734375 C 444.9840393066406 124.77397155761719 449.1006164550781 105.65711212158203 474.28033447265625 122.9524154663086 C 472.45465087890625 113.22539520263672 462.2653503417969 105.51677703857422 443.1406555175781 112.64042663574219 C 498.7202453613281 120.498779296875 503.9117736816406 132.19898986816406 455.58197021484375 113.89022064208984"/>
    <path stroke-width="0" fill="rgb(155, 186, 142)" opacity="0.012845712" stroke="rgb(85, 235, 219)" stroke-opacity="1.0" stroke-linecap="round" stroke-linejoin="round" d="M 465.5020446777344 151.49642944335938 C 465.3713073730469 115.71568298339844 448.4586181640625 130.17259216308594 448.0345458984375 110.24598693847656 C 434.5442810058594 111.94926452636719 428.0860900878906 117.42445373535156 426.116943359375 110.6134033203125 C 447.5612487792969 103.31192016601562 440.4457702636719 118.56009674072266 461.1898498535156 125.377685546875 C 459.575927734375 118.25911712646484 470.642578125 122.849365234375 465.5020446777344 151.49642944335938"/>
    <path stroke-width="0" fill="rgb(196, 280, 221)" opacity="0.7141365" stroke="rgb(64, 113, 26)" stroke-opacity="1.0" stroke-linecap="round" stroke-linejoin="round" d="M 480.9532775878906 89.80868530273438 C 464.7956237792969 79.9886474609375 478.2688293457031 106.08517456054688 480.5592956542969 90.11849975585938 C 452.78839111328125 75.533203125 439.8180236816406 61.2113037109375 446.76324462890625 98.1050796508789 C 480.22991943359375 107.4078140258789 485.99127197265625 97.58199310302734 472.8807067871094 86.95203399658203 C 469.4527893066406 90.43396759033203 484.6894836425781 105.07880401611328 480.9532775878906 89.80868530273438"/>
    <path stroke-width="0" fill="rgb(213, 227, 188)" opacity="0.8223204" stroke="rgb(0, 0, 0)" stroke-opacity="0.0" stroke-linecap="round" stroke-linejoin="round" d="M 280.84100341796875 21.09674835205078 C 280.20233154296875 25.603384017944336 274.2500305175781 30.167129516601562 265.9017639160156 31.08865737915039 C 260.83099365234375 32.831844329833984 254.25469970703125 25.054346084594727 254.6077117919922 17.464967727661133 C 255.14283752441406 10.976632118225098 260.0679931640625 10.191099166870117 264.0919189453125 6.520015716552734 C 273.88861083984375 6.665313720703125 279.7041015625 9.921627044677734 280.84100341796875 21.09674835205078"/>
    <path stroke-width="0" fill="rgb(213, 121, 170)" opacity="0.3804265" stroke="rgb(0, 0, 0)" stroke-opacity="0.0" stroke-linecap="round" stroke-linejoin="round" d="M 10.981901168823242 7.302574157714844 C 1.6918271780014038 11.343857765197754 0.5893765687942505 10.054184913635254 3.262997627258301 24.082494735717773 C -9.994379997253418 24.634206771850586 -7.642705917358398 13.870024681091309 -7.678623199462891 7.705909729003906 C -6.561120986938477 3.567819595336914 -3.6331968307495117 0.6381251215934753 0.8367128372192383 -1.2148277759552002 C 10.291169166564941 -3.018333673477173 14.46642017364502 -1.6635522842407227 10.981901168823242 7.302574157714844"/>
    <path stroke-width="0" fill="rgb(166, 139, 196)" opacity="0.81857383" stroke="rgb(0, 0, 0)" stroke-opacity="0.0" stroke-linecap="round" stroke-linejoin="round" d="M 17.630075454711914 4.481337070465088 C 20.156957626342773 10.89555549621582 19.96006202697754 16.51555824279785 18.320053100585938 18.712831497192383 C 15.9918794631958 15.78195571899414 15.147761344909668 11.791948318481445 15.4932222366333 12.534369468688965 C 16.37129020690918 8.921897888183594 17.52303695678711 0.39244964718818665 14.97526741027832 4.915653705596924 C 20.78170394897461 4.082775115966797 19.033979415893555 3.7657105922698975 17.630075454711914 4.481337070465088"/>
    <path stroke-width="0" fill="rgb(190, 140, 141)" opacity="0.35419407" stroke="rgb(0, 0, 0)" stroke-opacity="0.0" stroke-linecap="round" stroke-linejoin="round" d="M 113.56050109863281 5.116425514221191 C 103.70938110351562 6.677822589874268 95.5641098022461 3.4522833824157715 96.68817138671875 7.177061557769775 C 99.41439819335938 8.793837547302246 94.22001647949219 8.047271728515625 85.99008178710938 5.361175537109375 C 87.70711517333984 -6.119932174682617 94.2388916015625 -5.363081932067871 99.86451721191406 -4.664165496826172 C 104.73050689697266 -4.584834098815918 109.65467834472656 -6.403759002685547 113.56050109863281 5.116425514221191"/>
    <path stroke-width="0" fill="rgb(93, 157, 194)" opacity="0.123298205" stroke="rgb(0, 0, 0)" stroke-opacity="0.0" stroke-linecap="round" stroke-linejoin="round" d="M 173.34417724609375 13.305346488952637 C 175.2498779296875 23.7283935546875 171.20999145507812 26.258588790893555 174.32640075683594 22.48680305480957 C 163.95809936523438 22.98422622680664 162.269775390625 20.74815559387207 164.64292907714844 20.68494987487793 C 163.76016235351562 9.317075729370117 159.39822387695312 5.307600021362305 166.20802307128906 2.7966341972351074 C 165.59446716308594 14.349485397338867 164.55389404296875 18.0002498626709 173.34417724609375 13.305346488952637"/>
    <path stroke-width="0" fill="rgb(147, 167, 114)" opacity="0.6329474" stroke="rgb(0, 0, 0)" stroke-opacity="0.0" stroke-linecap="round" stroke-linejoin="round" d="M 24.685556411743164 12.492613792419434 C 25.062746047973633 22.045812606811523 22.055932998657227 22.015295028686523 13.929935455322266 20.46071434020996 C 11.860490798950195 14.401567459106445 12.740333557128906 8.515365600585938 0.11634930968284607 9.162484169006348 C 0.09466233849525452 3.7560737133026123 7.153412818908691 1.8031234741210938 16.378433227539062 -3.1838676929473877 C 25.359970092773438 -0.23523926734924316 25.269893646240234 -0.33712396025657654 24.685556411743164 12.492613792419434"/>
    <path stroke-width="0" fill="rgb(170, 115, 144)" opacity="0.16345263" stroke="rgb(0, 0, 0)" stroke-opacity="0.0" stroke-linecap="round" stroke-linejoin="round" d="M 15.04989242553711 5.6252031326293945 C 11.200459480285645 1.5270602703094482 2.2720108032226562 1.0441755056381226 4.460443496704102 1.9138389825820923 C 4.875979423522949 11.732346534729004 2.3708269596099854 5.268376350402832 -1.2254465818405151 2.3118624687194824 C -0.4701250195503235 -0.6218240261077881 1.7316957712173462 -2.7235629558563232 5.520129680633545 -3.248202085494995 C 9.894247055053711 -2.207411527633667 12.073603630065918 1.3045094013214111 15.04989242553711 5.6252031326293945"/>
    <path stroke-width="0" fill="rgb(205, 199, 182)" opacity="0.4015322" stroke="rgb(0, 0, 0)" stroke-opacity="0.0" stroke-linecap="round" stroke-linejoin="round" d="M 347.00408935546875 38.79283142089844 C 345.5924987792969 43.920658111572266 344.3772277832031 47.08082962036133 344.4125671386719 45.4168815612793 C 337.48834228515625 46.206912994384766 333.510498046875 46.249847412109375 336.9193115234375 41.4575080871582 C 338.24334716796875 39.401737213134766 339.08233642578125 34.55689239501953 341.2333679199219 37.885807037353516 C 344.55810546875 38.199241638183594 346.23907470703125 41.54289627075195 347.00408935546875 38.79283142089844"/>
    <path stroke-width="0" fill="rgb(151, 127, 157)" opacity="0.0936761" stroke="rgb(0, 0, 0)" stroke-opacity="0.0" stroke-linecap="round" stroke-linejoin="round" d="M 337.579345703125 269.24188232421875 C 320.6477966308594 270.8400573730469 317.9764709472656 272.3916015625 316.87530517578125 273.1112060546875 C 318.5502014160156 272.3196716308594 316.6935119628906 270.104736328125 303.2691650390625 268.238037109375 C 313.03863525390625 266.06805419921875 319.4853210449219 266.68212890625 318.4002685546875 269.25567626953125 C 325.3482360839844 267.7538757324219 329.7397766113281 266.02203369140625 337.579345703125 269.24188232421875"/>
    <path stroke-width="0" fill="rgb(211, 211, 176)" opacity="0.9564886" stroke="rgb(0, 0, 0)" stroke-opacity="0.0" stroke-linecap="round" stroke-linejoin="round" d="M 171.56820678710938 36.978599548339844 C 173.6678924560547 45.6331672668457 169.57064819335938 46.31193923950195 161.58168029785156 49.81224060058594 C 155.52145385742188 47.555076599121094 153.141357421875 46.74889373779297 151.34588623046875 38.020301818847656 C 154.40078735351562 32.58958053588867 159.30690002441406 29.90763282775879 161.3984832763672 31.09922218322754 C 167.8083038330078 31.06121253967285 171.87466430664062 33.85785675048828 171.56820678710938 36.978599548339844"/>
    <path stroke-width="0" fill="rgb(112, 93, 190)" opacity="0.0054810736" stroke="rgb(0, 0, 0)" stroke-opacity="0.0" stroke-linecap="round" stroke-linejoin="round" d="M 398.4749450683594 132.77981567382812 C 398.8177185058594 141.92129516601562 395.3885192871094 143.232421875 391.6125793457031 143.83547973632812 C 393.3154296875 138.54600524902344 390.1849060058594 134.67855834960938 388.7373962402344 132.0978240966797 C 385.10711669921875 134.62094116210938 387.9656066894531 127.44012451171875 398.3602600097656 121.06121826171875 C 404.34326171875 124.18836212158203 406.1175842285156 123.9632339477539 398.4749450683594 132.77981567382812"/>
    <path stroke-width="0" fill="rgb(206, 160, 230)" opacity="0.7487223" stroke="rgb(0, 0, 0)" stroke-opacity="0.0" stroke-linecap="round" stroke-linejoin="round" d="M -60.74114227294922 30.83562660217285 C -61.81293869018555 34.835628509521484 -64.74114227294922 37.763832092285156 -68.74114227294922 38.835628509521484 C -72.74114227294922 37.763832092285156 -75.66934967041016 34.835628509521484 -76.74114227294922 30.83562660217285 C -75.66934967041016 26.83562660217285 -72.74114227294922 23.907424926757812 -68.74114227294922 22.83562660217285 C -64.74114227294922 23.907424926757812 -61.81293869018555 26.83562660217285 -60.74114227294922 30.83562660217285"/>
    <path stroke-width="0" fill="rgb(130, 121, 217)" opacity="0.014123204" stroke="rgb(0, 0, 0)" stroke-opacity="0.0" stroke-linecap="round" stroke-linejoin="round" d="M 436.64031982421875 134.8267364501953 C 423.1604309082031 136.60577392578125 423.5133972167969 142.4187774658203 428.7711181640625 146.70785522460938 C 422.1696472167969 148.98692321777344 420.5859069824219 146.9512176513672 421.0448913574219 142.6062774658203 C 426.02020263671875 144.33697509765625 430.8570251464844 141.42906188964844 428.7720031738281 137.2408905029297 C 431.1814880371094 135.98211669921875 437.21966552734375 137.207763671875 436.64031982421875 134.8267364501953"/>
    <path stroke-width="0" fill="rgb(35, 190, 206)" opacity="0.48922035" stroke="rgb(0, 0, 0)" stroke-opacity="0.0" stroke-linecap="round" stroke-linejoin="round" d="M 174.1226348876953 260.5646057128906 C 176.55819702148438 270.85186767578125 177.7714080810547 273.6287536621094 164.8144073486328 272.4720764160156 C 156.67442321777344 272.2834777832031 155.873046875 269.7994079589844 160.601806640625 262.1091003417969 C 159.43951416015625 243.077880859375 157.0282440185547 247.32167053222656 160.30288696289062 248.96286010742188 C 176.9158935546875 247.48497009277344 177.12579345703125 247.15061950683594 174.1226348876953 260.5646057128906"/>
    <path stroke-width="0" fill="rgb(206, 185, 40)" opacity="0.17958252" stroke="rgb(0, 0, 0)" stroke-opacity="0.0" stroke-linecap="round" stroke-linejoin="round" d="M 494.9226379394531 492.305908203125 C 493.7340393066406 490.17645263671875 491.1147155761719 495.21490478515625 485.2732849121094 499.2885437011719 C 479.49884033203125 499.009765625 474.9903259277344 494.1188049316406 484.7528991699219 496.8982849121094 C 490.7428894042969 494.3097229003906 492.82257080078125 489.94378662109375 497.5676574707031 480.9803161621094 C 497.19891357421875 477.2442626953125 497.8822937011719 485.884765625 494.9226379394531 492.305908203125"/>
    <path stroke-width="0" fill="rgb(137, 105, 151)" opacity="0.29909602" stroke="rgb(0, 0, 0)" stroke-opacity="0.0" stroke-linecap="round" stroke-linejoin="round" d="M 520.5928955078125 416.84710693359375 C 516.010498046875 425.43719482421875 512.6749267578125 425.7654724121094 502.50439453125 422.7789611816406 C 498.8455505371094 425.01025390625 492.6819763183594 425.5378723144531 492.1408996582031 420.2622375488281 C 507.4053039550781 422.5351867675781 504.05303955078125 425.3396301269531 500.21881103515625 406.6571960449219 C 517.205322265625 405.1298828125 522.9002075195312 405.27008056640625 520.5928955078125 416.84710693359375"/>
    <path stroke-width="0" fill="rgb(138, 181, 125)" opacity="0.057218965" stroke="rgb(0, 0, 0)" stroke-opacity="0.0" stroke-linecap="round" stroke-linejoin="round" d="M 93.37460327148438 65.86540222167969 C 97.05517578125 68.98126220703125 92.35445404052734 68.49018859863281 90.15585327148438 68.79988861083984 C 88.41658020019531 68.39009094238281 85.68985748291016 65.86316680908203 89.51647186279297 61.75190353393555 C 88.75627899169922 55.56399154663086 84.95064544677734 52.04470443725586 86.5240249633789 53.66764450073242 C 99.23299407958984 55.87663650512695 98.3890380859375 56.883480072021484 93.37460327148438 65.86540222167969"/>
    <path stroke-width="0" fill="rgb(116, 104, 107)" opacity="0.8824853" stroke="rgb(0, 0, 0)" stroke-opacity="0.0" stroke-linecap="round" stroke-linejoin="round" d="M 447.3036193847656 430.38092041015625 C 446.91766357421875 435.2052307128906 446.3079833984375 438.62188720703125 439.5211486816406 435.8865661621094 C 435.737060546875 443.31878662109375 434.5393371582031 436.79278564453125 435.68743896484375 432.5435485839844 C 436.2906494140625 432.1768798828125 442.44183349609375 429.133544921875 442.4338684082031 428.0966491699219 C 439.9795837402344 427.66082763671875 446.74981689453125 430.7752685546875 447.3036193847656 430.38092041015625"/>
    <path stroke-width="0" fill="rgb(93, 60, 104)" opacity="0.36713445" stroke="rgb(0, 0, 0)" stroke-opacity="0.0" stroke-linecap="round" stroke-linejoin="round" d="M 360.1527099609375 499.13970947265625 C 359.2317810058594 497.6494445800781 357.8275146484375 499.8004150390625 354.08868408203125 499.04766845703125 C 349.36773681640625 505.4604187011719 349.4563903808594 501.96868896484375 352.4837341308594 496.6634521484375 C 352.6112976074219 494.721435546875 351.18646240234375 493.302490234375 349.08551025390625 491.54571533203125 C 357.12664794921875 494.8906555175781 358.44329833984375 499.9717102050781 360.1527099609375 499.13970947265625"/>
    <path stroke-width="0" fill="rgb(132, 33, 76)" opacity="0.23167981" stroke="rgb(0, 0, 0)" stroke-opacity="0.0" stroke-linecap="round" stroke-linejoin="round" d="M 317.8841857910156 105.79842376708984 C 314.2298583984375 109.26339721679688 315.8254089355469 114.20721435546875 321.7796325683594 108.14525604248047 C 309.4275207519531 107.38323974609375 303.55853271484375 108.81893157958984 295.2900085449219 103.5929183959961 C 305.3096923828125 106.67817687988281 313.2494201660156 104.86656951904297 312.27313232421875 105.31653594970703 C 318.9959411621094 102.88008880615234 325.0954895019531 106.40980529785156 317.8841857910156 105.79842376708984"/>
    <path stroke-width="0" fill="rgb(128, 259, 180)" opacity="0.2993037" stroke="rgb(0, 0, 0)" stroke-opacity="0.0" stroke-linecap="round" stroke-linejoin="round" d="M 483.7939147949219 97.79232788085938 C 487.72021484375 107.72989654541016 489.03326416015625 109.33769226074219 478.8263244628906 114.20801544189453 C 466.89727783203125 105.36421203613281 464.2043151855469 99.65513610839844 469.1855773925781 84.40446472167969 C 476.83343505859375 102.77693939208984 472.5677795410156 96.92878723144531 474.45440673828125 86.79756164550781 C 479.9583740234375 84.10942077636719 481.03021240234375 91.04108428955078 483.7939147949219 97.79232788085938"/>
    <path stroke-width="0" fill="rgb(38, 13, 57)" opacity="0.4542323" stroke="rgb(0, 0, 0)" stroke-opacity="0.0" stroke-linecap="round" stroke-linejoin="round" d="M -27.041536331176758 30.428306579589844 C -28.113332748413086 34.428306579589844 -31.041536331176758 37.356510162353516 -35.041534423828125 38.428306579589844 C -39.041534423828125 37.356510162353516 -41.9697380065918 34.428306579589844 -43.041534423828125 30.428306579589844 C -41.9697380065918 26.428306579589844 -39.041534423828125 23.500104904174805 -35.041534423828125 22.428306579589844 C -31.041536331176758 23.500104904174805 -28.113332748413086 26.428306579589844 -27.041536331176758 30.428306579589844"/>
    <path stroke-width="0" fill="rgb(251, 118, 233)" opacity="0.33664012" stroke="rgb(0, 0, 0)" stroke-opacity="0.0" stroke-linecap="round" stroke-linejoin="round" d="M -70.7625961303711 47.9467658996582 C -71.83438873291016 51.9467658996582 -74.7625961303711 54.874969482421875 -78.7625961303711 55.9467658996582 C -82.7625961303711 54.874969482421875 -85.6907958984375 51.9467658996582 -86.7625961303711 47.9467658996582 C -85.6907958984375 43.9467658996582 -82.7625961303711 41.01856231689453 -78.7625961303711 39.9467658996582 C -74.7625961303711 41.01856231689453 -71.83438873291016 43.9467658996582 -70.7625961303711 47.9467658996582"/>
    <path stroke-width="0" fill="rgb(258, 273, 263)" opacity="0.18788402" stroke="rgb(0, 0, 0)" stroke-opacity="0.0" stroke-linecap="round" stroke-linejoin="round" d="M 209.66265869140625 306.09478759765625 C 209.11459350585938 306.10565185546875 203.5344696044922 309.57257080078125 202.3585968017578 306.9520263671875 C 199.359619140625 308.99755859375 192.2633514404297 308.7200012207031 188.6116180419922 308.8141784667969 C 194.83726501464844 302.256103515625 204.0128936767578 306.22247314453125 209.55648803710938 303.7645263671875 C 204.5850372314453 302.35650634765625 207.11410522460938 305.7963562011719 209.66265869140625 306.09478759765625"/>
    <path stroke-width="0" fill="rgb(156, 70, 192)" opacity="0.1549509" stroke="rgb(0, 0, 0)" stroke-opacity="0.0" stroke-linecap="round" stroke-linejoin="round" d="M 178.37936401367188 209.9324951171875 C 184.1963653564453 203.37625122070312 180.59693908691406 205.41578674316406 173.02740478515625 209.7833251953125 C 172.78675842285156 204.8319091796875 170.10801696777344 202.969970703125 178.3633575439453 199.91659545898438 C 175.94287109375 203.6142578125 176.62254333496094 198.6588897705078 182.52273559570312 197.11289978027344 C 181.740234375 204.8134307861328 181.85140991210938 200.74673461914062 178.37936401367188 209.9324951171875"/>
    <path stroke-width="0" fill="rgb(74, 227, 56)" opacity="0.05111605" stroke="rgb(0, 0, 0)" stroke-opacity="0.0" stroke-linecap="round" stroke-linejoin="round" d="M 163.28897094726562 63.41557693481445 C 167.2547149658203 62.48250961303711 164.8064422607422 59.566680908203125 161.08303833007812 59.091835021972656 C 162.2896728515625 61.735347747802734 161.2135467529297 60.047943115234375 160.20155334472656 61.618988037109375 C 159.44085693359375 60.91975784301758 159.92198181152344 58.35886001586914 159.85536193847656 52.29104995727539 C 161.97415161132812 50.20201110839844 161.21209716796875 56.83866882324219 163.28897094726562 63.41557693481445"/>
    <path stroke-width="0" fill="rgb(185, 145, 176)" opacity="0.24675353" stroke="rgb(0, 0, 0)" stroke-opacity="0.0" stroke-linecap="round" stroke-linejoin="round" d="M 423.1754455566406 387.8869323730469 C 421.7609558105469 394.22491455078125 420.9339904785156 395.5845031738281 419.80523681640625 392.5877685546875 C 412.0276794433594 393.5208435058594 408.08349609375 391.99029541015625 399.8441467285156 386.2977600097656 C 404.3094482421875 386.2377014160156 413.4537658691406 388.5513916015625 414.1015930175781 388.99713134765625 C 415.9189758300781 383.8848876953125 421.2391662597656 383.0269470214844 423.1754455566406 387.8869323730469"/>
    <path stroke-width="0" fill="rgb(41, 3, -8)" opacity="0.8908263" stroke="rgb(0, 0, 0)" stroke-opacity="0.0" stroke-linecap="round" stroke-linejoin="round" d="M 26.436620712280273 495.01123046875 C 23.752214431762695 499.56341552734375 19.88663673400879 500.2327575683594 19.464405059814453 511.5565490722656 C 24.57135581970215 503.6927490234375 19.702417373657227 498.8106384277344 18.094783782958984 491.0991516113281 C 13.630671501159668 484.220947265625 9.415081977844238 489.1007080078125 20.49611473083496 486.6121826171875 C 27.92669677734375 487.9296569824219 26.90192985534668 487.0497741699219 26.436620712280273 495.01123046875"/>
    <path stroke-width="0" fill="rgb(190, 193, 53)" opacity="0.502232" stroke="rgb(0, 0, 0)" stroke-opacity="0.0" stroke-linecap="round" stroke-linejoin="round" d="M 16.207773208618164 6.945694923400879 C 17.1301326751709 4.689680576324463 16.752784729003906 5.705257415771484 0.31798648834228516 6.44552755355835 C 8.082676887512207 9.264993667602539 3.902019500732422 6.071521282196045 -1.0489013195037842 6.69242000579834 C 2.3773655891418457 1.7441154718399048 6.522410869598389 -0.5469011068344116 6.824206352233887 -4.1899027824401855 C 9.05062198638916 -0.16137292981147766 13.750733375549316 2.2527923583984375 16.207773208618164 6.945694923400879"/>
    <path stroke-width="0" fill="rgb(117, 215, 199)" opacity="-0.026516877" stroke="rgb(0, 0, 0)" stroke-opacity="0.0" stroke-linecap="round" stroke-linejoin="round" d="M 6.422834396362305 -2.1617891788482666 C 5.610995769500732 1.183199405670166 2.377642869949341 5.032423496246338 -1.6509655714035034 6.813558101654053 C -1.8734105825424194 4.768919467926025 -5.576783180236816 3.232907295227051 -6.835995197296143 -0.289877712726593 C -5.775409698486328 -4.253812313079834 -2.8472065925598145 -7.182015895843506 1.1527934074401855 -8.253812789916992 C 5.1527323722839355 -7.181992530822754 8.076669692993164 -4.252244472503662 6.422834396362305 -2.1617891788482666"/>
    <path stroke-width="0" fill="rgb(51, 67, 111)" opacity="0.06490074" stroke="rgb(0, 0, 0)" stroke-opacity="0.0" stroke-linecap="round" stroke-linejoin="round" d="M 15.108039855957031 92.65177917480469 C 8.295012474060059 102.95795440673828 11.327546119689941 95.61673736572266 11.063634872436523 94.84439086914062 C -2.5934038162231445 94.84001922607422 -8.122297286987305 93.80601501464844 5.865201473236084 93.6884536743164 C -0.08230610936880112 88.55056762695312 1.3978588581085205 85.19719696044922 8.28328800201416 92.13182830810547 C 15.112227439880371 86.22026824951172 16.26137351989746 83.8092269897461 15.108039855957031 92.65177917480469"/>
    <path stroke-width="0" fill="rgb(89, 119, 45)" opacity="0.26690713" stroke="rgb(0, 0, 0)" stroke-opacity="0.0" stroke-linecap="round" stroke-linejoin="round" d="M 54.55308532714844 393.3664855957031 C 55.09184646606445 399.42205810546875 60.137264251708984 400.55780029296875 49.24576950073242 398.1386413574219 C 55.14918518066406 388.96307373046875 57.29519271850586 385.1610412597656 45.9461784362793 385.4876708984375 C 38.31930160522461 382.7057189941406 42.110618591308594 381.2508850097656 56.4571533203125 383.7761535644531 C 54.66026306152344 376.81121826171875 56.03182601928711 378.5023498535156 54.55308532714844 393.3664855957031"/>
  </g>
</svg>
