<?xml version="1.0" ?>
<svg xmlns="http://www.w3.org/2000/svg" version="1.1" width="512" height="512">
  <defs/>
  <g>
    <path stroke-width="0" fill="rgb(-43, -55, 36)" opacity="1.2392002" stroke="rgb(139, 182, 153)" stroke-opacity="1.0" stroke-linecap="round" stroke-linejoin="round" d="M 577.0360107421875 160.54898071289062 C 475.9727478027344 155.54849243164062 258.7996826171875 159.3224639892578 20.415388107299805 158.01300048828125 C 149.9614715576172 41.40039825439453 217.20492553710938 78.77104187011719 174.48895263671875 -25.099302291870117 C 185.01902770996094 -33.60383224487305 197.35633850097656 -35.491127014160156 255.7880859375 -34.271018981933594 C 358.9151306152344 -48.54005813598633 437.25836181640625 -146.5583953857422 577.0360107421875 160.54898071289062"/>
    <path stroke-width="0" fill="rgb(61, 77, -11)" opacity="0.5216082" stroke="rgb(108, 164, 111)" stroke-opacity="1.0" stroke-linecap="round" stroke-linejoin="round" d="M 322.68475341796875 713.37353515625 C -121.30622100830078 749.6517944335938 8.14207935333252 369.4713439941406 41.352298736572266 80.95393371582031 C 293.0481872558594 122.73342895507812 289.8204040527344 118.47431945800781 280.1459045410156 40.89720916748047 C 284.2266845703125 -66.92325592041016 317.0650329589844 -46.443145751953125 442.3717346191406 -36.365211486816406 C 639.143310546875 -2.5854287147521973 854.1314086914062 240.14646911621094 322.68475341796875 713.37353515625"/>
    <path stroke-width="0" fill="rgb(60, 159, 104)" opacity="1.0897881" stroke="rgb(245, 97, 201)" stroke-opacity="1.0" stroke-linecap="round" stroke-linejoin="round" d="M 362.83831787109375 88.74553680419922 C 332.5784606933594 105.53636169433594 322.9571533203125 109.97948455810547 87.63276672363281 106.13749694824219 C 110.6676025390625 103.6150894165039 112.05255126953125 111.51028442382812 120.72222900390625 67.0373764038086 C 135.6087188720703 -33.50758361816406 141.19656372070312 -41.69476318359375 172.0811767578125 -45.90406036376953 C 295.6033630371094 -31.007686614990234 321.65643310546875 -39.981937408447266 362.83831787109375 88.74553680419922"/>
    <path stroke-width="0" fill="rgb(2, -6, 3)" opacity="1.0703906" stroke="rgb(144, 236, 18)" stroke-opacity="1.0" stroke-linecap="round" stroke-linejoin="round" d="M 262.009765625 87.30208587646484 C 197.45608520507812 109.23505401611328 293.9933776855469 71.8958511352539 528.026123046875 140.5760040283203 C 123.86616516113281 148.6578826904297 17.347454071044922 90.16828155517578 -28.512313842773438 237.45753479003906 C -45.53935623168945 -103.79988098144531 -12.785496711730957 -54.71656799316406 149.14710998535156 -35.03782653808594 C 204.5077362060547 -43.604888916015625 224.6493377685547 -51.119869232177734 262.009765625 87.30208587646484"/>
    <path stroke-width="0" fill="rgb(271, 267, 283)" opacity="0.98065555" stroke="rgb(5, 212, 198)" stroke-opacity="1.0" stroke-linecap="round" stroke-linejoin="round" d="M 497.60321044921875 250.11166381835938 C 468.83538818359375 181.48651123046875 275.2242126464844 193.05865478515625 296.9295654296875 220.277587890625 C 196.72044372558594 177.57119750976562 160.5028839111328 179.4817352294922 131.17567443847656 158.91876220703125 C 76.06480407714844 156.8365478515625 79.75625610351562 156.50454711914062 499.8056335449219 156.5858154296875 C 498.92987060546875 159.1980438232422 503.5142517089844 143.18702697753906 497.60321044921875 250.11166381835938"/>
    <path stroke-width="0" fill="rgb(237, 222, 161)" opacity="0.5080356" stroke="rgb(30, 163, 36)" stroke-opacity="1.0" stroke-linecap="round" stroke-linejoin="round" d="M 645.8660278320312 409.8143310546875 C 467.1734619140625 434.9191589355469 172.09152221679688 402.8583068847656 164.66676330566406 429.6596374511719 C 287.4811706542969 423.3890686035156 327.16943359375 423.8581848144531 -25.064706802368164 428.2362060546875 C 199.2421112060547 400.5187072753906 229.25213623046875 423.0458984375 57.66755294799805 409.7170104980469 C 129.41427612304688 420.901123046875 307.05133056640625 403.9621887207031 645.8660278320312 409.8143310546875"/>
    <path stroke-width="0" fill="rgb(232, 162, 137)" opacity="0.43649676" stroke="rgb(133, 105, 67)" stroke-opacity="1.0" stroke-linecap="round" stroke-linejoin="round" d="M 575.4951171875 379.17120361328125 C 749.1072387695312 395.73748779296875 592.0640869140625 390.1040344238281 64.23868560791016 398.2732849121094 C 179.8179168701172 394.5600280761719 -90.0859603881836 416.1260681152344 -62.5733757019043 382.9552917480469 C 520.0872802734375 383.1968078613281 494.5247497558594 388.0858459472656 444.8023681640625 379.0159912109375 C 393.6502380371094 382.7201843261719 407.4425354003906 379.2792053222656 575.4951171875 379.17120361328125"/>
    <path stroke-width="0" fill="rgb(217, 201, 141)" opacity="0.97471243" stroke="rgb(116, 144, 4)" stroke-opacity="1.0" stroke-linecap="round" stroke-linejoin="round" d="M 598.6493530273438 420.6368408203125 C -85.36140441894531 419.5411376953125 16.5297908782959 423.1448974609375 73.87187957763672 421.2123718261719 C 220.5417022705078 409.3870544433594 -63.78316116333008 439.63543701171875 -81.6484375 411.4092102050781 C 77.26139068603516 411.1366882324219 251.6356201171875 409.4790954589844 304.50152587890625 403.8330078125 C 128.6428985595703 417.99456787109375 226.1055145263672 391.85498046875 598.6493530273438 420.6368408203125"/>
    <path stroke-width="0" fill="rgb(273, 269, 269)" opacity="0.9974387" stroke="rgb(156, 157, 240)" stroke-opacity="1.0" stroke-linecap="round" stroke-linejoin="round" d="M 500.67852783203125 275.6137390136719 C 463.0565185546875 307.9119873046875 617.2913818359375 301.18145751953125 -41.353275299072266 308.5626525878906 C -91.99011993408203 262.5445251464844 -101.12643432617188 272.65533447265625 250.07540893554688 276.2687072753906 C 266.504638671875 264.2166748046875 252.2182159423828 127.24835968017578 283.4149169921875 166.2115478515625 C 328.842041015625 311.0039978027344 217.37445068359375 248.7693328857422 500.67852783203125 275.6137390136719"/>
    <path stroke-width="0" fill="rgb(203, 222, 117)" opacity="0.85352445" stroke="rgb(91, 111, 177)" stroke-opacity="1.0" stroke-linecap="round" stroke-linejoin="round" d="M 594.5823974609375 405.883056640625 C 475.421875 450.8223876953125 261.95733642578125 371.2630310058594 167.95925903320312 417.0272521972656 C 241.98204040527344 409.76397705078125 241.360107421875 421.233154296875 212.71981811523438 415.2414855957031 C 258.8486633300781 420.1458435058594 282.16876220703125 438.7298889160156 157.12779235839844 404.3865051269531 C 185.59564208984375 421.9485168457031 481.2185363769531 401.9610290527344 594.5823974609375 405.883056640625"/>
    <path stroke-width="0" fill="rgb(266, 261, 261)" opacity="1.0024573" stroke="rgb(170, 171, 53)" stroke-opacity="1.0" stroke-linecap="round" stroke-linejoin="round" d="M 490.28851318359375 166.24354553222656 C 277.0495300292969 220.94435119628906 741.6184692382812 196.1986083984375 32.36058807373047 197.18069458007812 C 35.9135856628418 211.3837432861328 -59.29202651977539 217.42416381835938 -52.927879333496094 156.651611328125 C 124.28040313720703 156.83717346191406 198.43392944335938 155.453125 241.5087127685547 159.38999938964844 C 138.1880340576172 161.50999450683594 200.77825927734375 152.37451171875 490.28851318359375 166.24354553222656"/>
    <path stroke-width="0" fill="rgb(150, 155, 60)" opacity="1.1112964" stroke="rgb(80, 92, 145)" stroke-opacity="1.0" stroke-linecap="round" stroke-linejoin="round" d="M 520.038330078125 103.878173828125 C 433.4000549316406 78.11087036132812 498.2214660644531 89.16973876953125 428.00213623046875 62.644283294677734 C 315.4178466796875 63.101036071777344 349.9345703125 38.317935943603516 355.31134033203125 -0.9746610522270203 C 356.9755859375 -22.202505111694336 361.8409118652344 -30.034442901611328 371.2309265136719 -28.671987533569336 C 382.6390075683594 57.599632263183594 500.5633544921875 -9.053892135620117 520.038330078125 103.878173828125"/>
    <path stroke-width="0" fill="rgb(292, 262, 267)" opacity="1.0419257" stroke="rgb(252, 26, 53)" stroke-opacity="1.0" stroke-linecap="round" stroke-linejoin="round" d="M 442.8692626953125 31.25931167602539 C 395.18353271484375 45.21653366088867 356.6565246582031 71.50049591064453 357.1992492675781 59.62733840942383 C 387.2932434082031 127.6888427734375 322.84716796875 97.04301452636719 299.6251525878906 40.67146301269531 C 326.0915832519531 16.975366592407227 341.1031188964844 14.818436622619629 419.47064208984375 -2.462374448776245 C 415.23919677734375 17.896997451782227 446.35467529296875 4.804722785949707 442.8692626953125 31.25931167602539"/>
    <path stroke-width="0" fill="rgb(28, 17, -8)" opacity="0.8316896" stroke="rgb(166, 64, 118)" stroke-opacity="1.0" stroke-linecap="round" stroke-linejoin="round" d="M 136.48179626464844 393.8338928222656 C 228.4845428466797 403.6107177734375 116.85164642333984 401.8125915527344 -84.37196350097656 402.0438232421875 C 11.145121574401855 410.7054748535156 -50.735145568847656 410.2251892089844 72.59928131103516 411.1679382324219 C 107.9383544921875 406.94549560546875 133.90936279296875 408.0179443359375 256.14178466796875 401.4867858886719 C 76.79322814941406 390.70758056640625 100.62435150146484 392.28472900390625 136.48179626464844 393.8338928222656"/>
    <path stroke-width="0" fill="rgb(85, 82, 105)" opacity="0.9800902" stroke="rgb(40, 28, 167)" stroke-opacity="1.0" stroke-linecap="round" stroke-linejoin="round" d="M 416.0025939941406 -31.357402801513672 C 432.7204284667969 21.946998596191406 454.474853515625 61.708553314208984 446.1806640625 0.6060291528701782 C 386.57110595703125 -19.234058380126953 374.3515930175781 -16.447877883911133 312.05523681640625 -19.66069984436035 C 315.1639404296875 -29.508440017700195 323.5223083496094 -35.45821762084961 394.3455505371094 -33.86525344848633 C 406.1054382324219 -37.010616302490234 415.6422424316406 -32.56230163574219 416.0025939941406 -31.357402801513672"/>
    <path stroke-width="0" fill="rgb(203, 279, 271)" opacity="0.94540113" stroke="rgb(50, 94, 209)" stroke-opacity="1.0" stroke-linecap="round" stroke-linejoin="round" d="M 479.4442443847656 109.84022521972656 C 399.75323486328125 87.13200378417969 371.0196228027344 92.38784790039062 337.932861328125 96.74004364013672 C 395.39453125 96.93263244628906 372.6968688964844 100.92708587646484 202.46299743652344 101.14752960205078 C 427.0169982910156 82.5645980834961 380.9320983886719 103.93004608154297 385.253662109375 83.28648376464844 C 374.7077941894531 70.1017074584961 487.29058837890625 62.09966278076172 479.4442443847656 109.84022521972656"/>
    <path stroke-width="0" fill="rgb(181, 178, 87)" opacity="1.0151908" stroke="rgb(213, 24, 248)" stroke-opacity="1.0" stroke-linecap="round" stroke-linejoin="round" d="M 477.8044128417969 41.5709114074707 C 463.9607849121094 57.87527847290039 426.7762145996094 56.33137512207031 328.62628173828125 83.13336944580078 C 279.0155029296875 92.47144317626953 216.02297973632812 78.85499572753906 -90.08467864990234 88.8539810180664 C -40.06278991699219 -346.3504638671875 68.1061782836914 -207.80335998535156 423.1827697753906 -84.74824523925781 C 471.7506408691406 -57.28857421875 492.7106018066406 -58.588531494140625 477.8044128417969 41.5709114074707"/>
    <path stroke-width="0" fill="rgb(282, 287, 278)" opacity="1.0398662" stroke="rgb(249, 154, 188)" stroke-opacity="1.0" stroke-linecap="round" stroke-linejoin="round" d="M -17.648740768432617 80.28731536865234 C 328.669921875 80.22093200683594 253.74795532226562 74.21141815185547 -50.08646774291992 99.5894546508789 C 209.2793731689453 99.85540008544922 177.34849548339844 98.75395202636719 137.4655303955078 102.16270446777344 C 172.49598693847656 95.57379913330078 235.16256713867188 120.26141357421875 359.13348388671875 80.228759765625 C 26.619951248168945 75.69193267822266 110.85535430908203 115.91040802001953 -17.648740768432617 80.28731536865234"/>
    <path stroke-width="0" fill="rgb(178, 177, 95)" opacity="0.5617408" stroke="rgb(72, 30, 75)" stroke-opacity="1.0" stroke-linecap="round" stroke-linejoin="round" d="M 263.7362365722656 45.798702239990234 C 297.4391784667969 78.04197692871094 374.72357177734375 88.9809799194336 269.5879211425781 66.76082611083984 C 225.9287872314453 77.56391143798828 210.85177612304688 82.54082489013672 202.72711181640625 -8.281193733215332 C 262.51806640625 -37.65595626831055 279.69085693359375 -34.56483840942383 302.3870544433594 -30.897708892822266 C 372.8783874511719 -26.262712478637695 371.95343017578125 -19.69508934020996 263.7362365722656 45.798702239990234"/>
    <path stroke-width="0" fill="rgb(204, 211, 157)" opacity="0.59517026" stroke="rgb(81, 105, 16)" stroke-opacity="1.0" stroke-linecap="round" stroke-linejoin="round" d="M 548.0856323242188 65.57493591308594 C 546.9356689453125 103.32501220703125 533.772705078125 109.36691284179688 531.20654296875 56.67234420776367 C 420.4595642089844 52.42565155029297 452.5441589355469 60.13840103149414 461.0299377441406 40.4820671081543 C 364.01593017578125 41.97238540649414 412.8716735839844 -19.18720817565918 391.9508972167969 -26.271312713623047 C 420.8180236816406 83.03536224365234 491.7126770019531 -7.481227397918701 548.0856323242188 65.57493591308594"/>
    <path stroke-width="0" fill="rgb(-8, -1, -6)" opacity="0.9661029" stroke="rgb(144, 67, 133)" stroke-opacity="1.0" stroke-linecap="round" stroke-linejoin="round" d="M 129.59573364257812 410.0858154296875 C 117.37020111083984 400.33111572265625 94.14432525634766 418.85809326171875 -69.64805603027344 404.1639404296875 C 216.9279327392578 396.2657470703125 290.21636962890625 393.33868408203125 262.8230895996094 400.0583190917969 C 144.5092315673828 404.3662109375 169.17601013183594 391.01361083984375 251.5807647705078 403.3923645019531 C 109.58838653564453 408.3796081542969 125.80619812011719 402.93756103515625 129.59573364257812 410.0858154296875"/>
    <path stroke-width="0" fill="rgb(275, 268, 269)" opacity="1.0012532" stroke="rgb(146, 236, 81)" stroke-opacity="1.0" stroke-linecap="round" stroke-linejoin="round" d="M 432.734619140625 184.6587677001953 C 436.73712158203125 223.27554321289062 440.44378662109375 295.7408752441406 435.2981262207031 269.7135314941406 C 361.9633483886719 291.3840026855469 413.8199768066406 234.6680908203125 393.4368591308594 263.6257629394531 C 397.197998046875 137.48605346679688 363.9624328613281 243.85519409179688 438.37994384765625 164.30963134765625 C 448.9697570800781 193.33053588867188 444.8565368652344 244.50816345214844 432.734619140625 184.6587677001953"/>
    <path stroke-width="0" fill="rgb(3, -4, 0)" opacity="0.96007574" stroke="rgb(33, 182, 73)" stroke-opacity="1.0" stroke-linecap="round" stroke-linejoin="round" d="M 306.8071594238281 402.02008056640625 C 259.2613220214844 403.5151672363281 268.6151123046875 405.28399658203125 673.482177734375 400.1070556640625 C 553.7258911132812 414.4833068847656 288.7588195800781 393.64202880859375 288.4946594238281 403.9774475097656 C 324.29913330078125 392.4188537597656 320.143798828125 391.4814147949219 100.72845458984375 395.7694091796875 C 279.4587707519531 406.0240783691406 298.5175476074219 404.3230895996094 306.8071594238281 402.02008056640625"/>
    <path stroke-width="0" fill="rgb(214, 218, 114)" opacity="0.8360669" stroke="rgb(149, 5, 211)" stroke-opacity="1.0" stroke-linecap="round" stroke-linejoin="round" d="M 521.1251831054688 288.9724426269531 C 495.61029052734375 301.81463623046875 493.2080078125 297.7827453613281 509.4147033691406 47.9218864440918 C 441.769287109375 -1.2387562990188599 471.8306884765625 100.27466583251953 490.14691162109375 -56.522438049316406 C 423.89288330078125 -32.06654739379883 433.3778381347656 -36.32387161254883 469.7552490234375 -42.66332244873047 C 555.4288330078125 -45.57939910888672 543.9959106445312 -55.355979919433594 521.1251831054688 288.9724426269531"/>
    <path stroke-width="0" fill="rgb(262, 255, 256)" opacity="1.0422255" stroke="rgb(172, 68, 187)" stroke-opacity="1.0" stroke-linecap="round" stroke-linejoin="round" d="M 257.51068115234375 120.70328521728516 C 240.98252868652344 127.77734375 289.3531799316406 124.66336059570312 261.10394287109375 130.610595703125 C 289.17315673828125 121.57676696777344 262.2137145996094 142.83956909179688 17.15990447998047 109.6865463256836 C 633.8099975585938 106.03385162353516 604.9271850585938 104.55131530761719 512.3973999023438 136.81410217285156 C 431.14166259765625 112.40670013427734 224.09970092773438 134.98577880859375 257.51068115234375 120.70328521728516"/>
    <path stroke-width="0" fill="rgb(-21, -23, -5)" opacity="0.9956469" stroke="rgb(63, 146, 150)" stroke-opacity="1.0" stroke-linecap="round" stroke-linejoin="round" d="M 379.59423828125 108.2398681640625 C -28.704883575439453 101.82865142822266 18.887245178222656 98.09146118164062 465.92352294921875 99.69725799560547 C 161.8761749267578 91.9612808227539 -141.2348175048828 101.03231048583984 205.57215881347656 94.98773193359375 C 169.70477294921875 94.55867004394531 -13.979497909545898 103.00737762451172 -96.17704772949219 85.32886505126953 C 542.104248046875 87.43141174316406 272.3785095214844 77.98743438720703 379.59423828125 108.2398681640625"/>
    <path stroke-width="0" fill="rgb(271, 267, 273)" opacity="1.0010076" stroke="rgb(56, 242, 114)" stroke-opacity="1.0" stroke-linecap="round" stroke-linejoin="round" d="M -21.686927795410156 139.78070068359375 C -142.05770874023438 151.72232055664062 -20.09901237487793 144.16586303710938 708.3590698242188 147.77818298339844 C 664.867431640625 113.37757110595703 393.457275390625 124.48423767089844 16.95446014404297 122.41580963134766 C -80.427734375 130.9547119140625 -156.03318786621094 88.57311248779297 254.27264404296875 122.8828125 C -34.84781265258789 123.98896789550781 -88.90548706054688 117.87097930908203 -21.686927795410156 139.78070068359375"/>
    <path stroke-width="0" fill="rgb(54, 41, 19)" opacity="0.91222316" stroke="rgb(178, 75, 207)" stroke-opacity="1.0" stroke-linecap="round" stroke-linejoin="round" d="M 187.2748260498047 324.1852111816406 C 115.77346801757812 309.5809326171875 128.84378051757812 293.9039001464844 244.92532348632812 304.3248596191406 C 188.76040649414062 326.1785583496094 110.12353515625 325.510986328125 32.556396484375 321.1473693847656 C 153.26976013183594 309.30267333984375 181.39608764648438 324.2512512207031 118.1813735961914 323.62188720703125 C 132.82423400878906 326.5554504394531 146.6055908203125 309.6043395996094 187.2748260498047 324.1852111816406"/>
    <path stroke-width="0" fill="rgb(279, 263, 274)" opacity="1.0508403" stroke="rgb(224, 148, 224)" stroke-opacity="1.0" stroke-linecap="round" stroke-linejoin="round" d="M 476.868408203125 311.1203918457031 C 483.79290771484375 256.11724853515625 489.67108154296875 275.51251220703125 480.7063903808594 287.63336181640625 C 470.1982727050781 272.1449890136719 481.1246643066406 242.2216033935547 463.17938232421875 195.3517303466797 C 478.93243408203125 235.92405700683594 471.1421813964844 220.95066833496094 496.9311218261719 207.24400329589844 C 497.5428771972656 250.98370361328125 495.7390441894531 341.0862121582031 476.868408203125 311.1203918457031"/>
    <path stroke-width="0" fill="rgb(35, 9, -30)" opacity="1.0622715" stroke="rgb(184, 127, 243)" stroke-opacity="1.0" stroke-linecap="round" stroke-linejoin="round" d="M 109.9598159790039 325.3013916015625 C -21.999887466430664 331.9251708984375 -36.205867767333984 317.5248107910156 -1.4943162202835083 355.89288330078125 C 17.83877944946289 290.4131774902344 -1.3398957252502441 358.1584777832031 -68.38507080078125 321.5157470703125 C 28.618741989135742 308.89105224609375 58.5464973449707 306.9495544433594 79.49580383300781 311.6658630371094 C 25.062219619750977 306.0650634765625 47.25065612792969 290.351318359375 109.9598159790039 325.3013916015625"/>
    <path stroke-width="0" fill="rgb(7, 5, 8)" opacity="1.0896525" stroke="rgb(108, 154, 4)" stroke-opacity="1.0" stroke-linecap="round" stroke-linejoin="round" d="M 191.49632263183594 312.3548889160156 C 281.9292907714844 333.6745300292969 186.11183166503906 297.82745361328125 285.9356994628906 333.72174072265625 C 48.32643508911133 331.5423889160156 -24.120569229125977 337.79241943359375 173.7889404296875 313.95233154296875 C 187.0487823486328 304.8324279785156 185.8428955078125 302.02899169921875 163.95925903320312 311.7528381347656 C 189.22891235351562 322.0469665527344 192.42994689941406 319.3890075683594 191.49632263183594 312.3548889160156"/>
    <path stroke-width="0" fill="rgb(-53, -19, 37)" opacity="0.52808744" stroke="rgb(168, 73, 157)" stroke-opacity="1.0" stroke-linecap="round" stroke-linejoin="round" d="M 286.39581298828125 334.03839111328125 C 166.31179809570312 312.2009582519531 134.4391632080078 318.4764709472656 411.1216735839844 301.9857177734375 C 367.3027648925781 301.5335998535156 116.55940246582031 301.4486999511719 -106.13877868652344 300.8445129394531 C 162.8065643310547 364.392822265625 214.77459716796875 276.3044738769531 179.58944702148438 319.12225341796875 C 180.71353149414062 325.7849426269531 215.05210876464844 308.0026550292969 286.39581298828125 334.03839111328125"/>
    <path stroke-width="0" fill="rgb(-4, 10, 3)" opacity="0.6798101" stroke="rgb(34, 76, 145)" stroke-opacity="1.0" stroke-linecap="round" stroke-linejoin="round" d="M 226.09576416015625 320.3612976074219 C 173.78379821777344 301.322265625 160.1765899658203 288.385986328125 114.86792755126953 323.6101989746094 C 139.8159942626953 324.293212890625 133.9613800048828 296.1815185546875 194.9930877685547 325.3658752441406 C 211.31736755371094 322.5381164550781 221.7118682861328 326.78692626953125 192.84625244140625 316.7330322265625 C 170.7039337158203 320.91253662109375 180.41458129882812 327.7319030761719 226.09576416015625 320.3612976074219"/>
    <path stroke-width="0" fill="rgb(-14, -11, -8)" opacity="1.0135894" stroke="rgb(146, 166, 166)" stroke-opacity="1.0" stroke-linecap="round" stroke-linejoin="round" d="M 478.2344055175781 324.95343017578125 C 396.0430603027344 284.5404357910156 295.43798828125 306.8193359375 173.73536682128906 324.93560791015625 C 342.8216247558594 340.9468994140625 335.37060546875 326.6161193847656 308.6025085449219 333.0472106933594 C 309.6695861816406 336.8574523925781 292.4597473144531 322.2303466796875 321.943359375 345.5768737792969 C 328.2142028808594 343.62060546875 316.45703125 325.76727294921875 478.2344055175781 324.95343017578125"/>
    <path stroke-width="0" fill="rgb(192, 179, 112)" opacity="0.7350951" stroke="rgb(228, 93, 111)" stroke-opacity="1.0" stroke-linecap="round" stroke-linejoin="round" d="M 335.9256286621094 362.9065856933594 C 399.4869689941406 368.1886901855469 295.9931945800781 370.2082824707031 308.20751953125 358.09613037109375 C 326.90203857421875 350.7484436035156 261.9660949707031 346.1211242675781 288.8358154296875 352.1031494140625 C 274.89361572265625 318.0962219238281 277.19427490234375 337.572998046875 294.0910949707031 332.7602844238281 C 345.2383728027344 332.4257507324219 304.031005859375 322.05523681640625 335.9256286621094 362.9065856933594"/>
    <path stroke-width="0" fill="rgb(-24, -25, -17)" opacity="0.9812911" stroke="rgb(205, 179, 25)" stroke-opacity="1.0" stroke-linecap="round" stroke-linejoin="round" d="M 463.2034606933594 330.0827331542969 C 611.5547485351562 335.49847412109375 541.4443969726562 331.5142822265625 492.4625244140625 324.2937316894531 C 415.3630676269531 349.05072021484375 404.34710693359375 288.9970703125 433.4052429199219 305.4381408691406 C 513.00146484375 306.5523986816406 506.5121765136719 285.01318359375 532.4540405273438 294.13623046875 C 455.9679870605469 290.431396484375 526.3193969726562 314.3370666503906 463.2034606933594 330.0827331542969"/>
    <path stroke-width="0" fill="rgb(11, 163, 85)" opacity="0.9994013" stroke="rgb(182, 254, 38)" stroke-opacity="1.0" stroke-linecap="round" stroke-linejoin="round" d="M 470.3995666503906 170.5590362548828 C 507.3766784667969 201.24826049804688 446.25518798828125 205.06228637695312 521.481689453125 205.2699737548828 C 482.48028564453125 204.874267578125 512.10791015625 204.5548553466797 485.56585693359375 203.5727081298828 C 495.8262939453125 203.44720458984375 512.3121948242188 202.81861877441406 432.9529724121094 204.552490234375 C 442.7042236328125 307.10791015625 487.5715637207031 305.8411560058594 470.3995666503906 170.5590362548828"/>
    <path stroke-width="0" fill="rgb(8, 44, 26)" opacity="0.4130552" stroke="rgb(41, 156, 31)" stroke-opacity="1.0" stroke-linecap="round" stroke-linejoin="round" d="M 13.247588157653809 266.39300537109375 C 39.21925354003906 178.8926544189453 -47.674198150634766 204.8552703857422 252.1227264404297 205.4952392578125 C 185.91766357421875 228.1527557373047 17.185338973999023 171.7301483154297 51.61947250366211 268.73004150390625 C 53.82600021362305 233.71682739257812 31.443925857543945 220.7998046875 101.73558044433594 210.85263061523438 C -14.49994945526123 216.77862548828125 42.3736457824707 185.25930786132812 13.247588157653809 266.39300537109375"/>
    <path stroke-width="0" fill="rgb(-10, -11, 0)" opacity="0.68368655" stroke="rgb(205, 145, 103)" stroke-opacity="1.0" stroke-linecap="round" stroke-linejoin="round" d="M 321.5450744628906 310.2366027832031 C 420.1417541503906 305.7470703125 357.86297607421875 327.3514404296875 344.3994140625 330.65911865234375 C 302.6098327636719 333.2537536621094 226.7711944580078 339.1950988769531 124.02703094482422 316.5711975097656 C -64.38031768798828 303.7757263183594 97.7244873046875 312.9089050292969 485.4731140136719 299.8528137207031 C 338.3943176269531 327.35284423828125 316.1898193359375 280.9958801269531 321.5450744628906 310.2366027832031"/>
    <path stroke-width="0" fill="rgb(-19, -19, -15)" opacity="0.939105" stroke="rgb(177, 115, 184)" stroke-opacity="1.0" stroke-linecap="round" stroke-linejoin="round" d="M 432.723876953125 352.3782043457031 C 626.8153686523438 346.74713134765625 666.4154052734375 347.2718200683594 551.2247924804688 381.367919921875 C 101.17267608642578 378.2136535644531 -9.668024063110352 389.56097412109375 349.37799072265625 350.03204345703125 C 422.271484375 357.06890869140625 376.7897644042969 337.737548828125 376.9734802246094 348.46710205078125 C 302.5989074707031 321.48828125 524.0402221679688 323.5547180175781 432.723876953125 352.3782043457031"/>
    <path stroke-width="0" fill="rgb(66, 52, 27)" opacity="0.9848626" stroke="rgb(248, 218, 2)" stroke-opacity="1.0" stroke-linecap="round" stroke-linejoin="round" d="M -51.57057571411133 505.7650146484375 C 482.012451171875 511.6802673339844 503.7315673828125 493.30841064453125 53.782249450683594 496.00408935546875 C 67.71974182128906 456.133544921875 64.1556625366211 485.120361328125 -28.00029754638672 474.6071472167969 C 61.38935089111328 468.5718688964844 62.33738708496094 476.2641906738281 60.082618713378906 472.31005859375 C 59.246517181396484 521.7215576171875 94.37459564208984 480.4480285644531 -51.57057571411133 505.7650146484375"/>
    <path stroke-width="0" fill="rgb(24, 21, 15)" opacity="1.0932795" stroke="rgb(186, 43, 132)" stroke-opacity="1.0" stroke-linecap="round" stroke-linejoin="round" d="M 321.2405700683594 375.5477294921875 C 303.2102966308594 323.2522277832031 318.5078430175781 369.2530212402344 -3.655529737472534 358.9973449707031 C 395.7439270019531 357.2886047363281 388.88409423828125 362.2236022949219 195.79977416992188 358.5981750488281 C 338.72198486328125 343.606201171875 205.64791870117188 359.072021484375 -213.26364135742188 348.17437744140625 C -50.649166107177734 378.4261779785156 -30.71788787841797 359.5190124511719 321.2405700683594 375.5477294921875"/>
    <path stroke-width="0" fill="rgb(8, 156, 108)" opacity="0.6651727" stroke="rgb(50, 4, 202)" stroke-opacity="1.0" stroke-linecap="round" stroke-linejoin="round" d="M 457.31939697265625 207.7333526611328 C 476.3189697265625 338.70867919921875 458.0619201660156 206.06817626953125 463.16217041015625 212.7980499267578 C 461.5079345703125 206.8975067138672 462.8332824707031 257.6297607421875 465.833740234375 222.0380859375 C 451.54766845703125 316.9734191894531 481.3992004394531 257.9608459472656 486.42138671875 242.42486572265625 C 446.6345520019531 286.5732727050781 469.80682373046875 261.1011962890625 457.31939697265625 207.7333526611328"/>
    <path stroke-width="0" fill="rgb(170, 93, -75)" opacity="0.39056838" stroke="rgb(88, 236, 179)" stroke-opacity="1.0" stroke-linecap="round" stroke-linejoin="round" d="M 500.5920715332031 143.32069396972656 C 501.3229064941406 158.18678283691406 496.61505126953125 302.1713562011719 490.9514465332031 311.1084289550781 C 473.5034484863281 234.89939880371094 472.50439453125 248.19200134277344 496.3785705566406 324.8140869140625 C 509.75042724609375 187.21839904785156 477.4037780761719 194.13470458984375 531.6025390625 203.1311492919922 C 470.0434875488281 188.23068237304688 509.6770935058594 247.7095184326172 500.5920715332031 143.32069396972656"/>
    <path stroke-width="0" fill="rgb(248, 266, 245)" opacity="1.043795" stroke="rgb(41, 158, 147)" stroke-opacity="1.0" stroke-linecap="round" stroke-linejoin="round" d="M 318.9278259277344 307.4761047363281 C 251.5391387939453 318.5045166015625 209.0182647705078 310.2015686035156 163.69345092773438 313.9869384765625 C 242.989990234375 311.52398681640625 203.28366088867188 317.8540344238281 83.70970916748047 310.18017578125 C 206.26205444335938 286.9796142578125 268.9970703125 311.83941650390625 278.25494384765625 299.94781494140625 C 263.2167663574219 316.8555603027344 276.490478515625 296.4680480957031 318.9278259277344 307.4761047363281"/>
    <path stroke-width="0" fill="rgb(273, 281, 281)" opacity="0.7060043" stroke="rgb(238, 156, 136)" stroke-opacity="1.0" stroke-linecap="round" stroke-linejoin="round" d="M 423.4533996582031 274.6707458496094 C 440.7073669433594 263.9034729003906 433.95367431640625 279.4475402832031 432.98931884765625 230.54188537597656 C 433.0130310058594 220.10215759277344 424.8268127441406 209.5257568359375 433.9491271972656 277.91748046875 C 427.34942626953125 281.71258544921875 430.6712341308594 261.89739990234375 418.4010925292969 269.9505615234375 C 422.63568115234375 279.035888671875 412.852783203125 251.50013732910156 423.4533996582031 274.6707458496094"/>
    <path stroke-width="0" fill="rgb(19, 3, 23)" opacity="1.1727556" stroke="rgb(186, 79, 101)" stroke-opacity="1.0" stroke-linecap="round" stroke-linejoin="round" d="M 416.9530944824219 476.0591735839844 C 290.6312255859375 475.7533264160156 311.8113708496094 470.7367248535156 320.77703857421875 469.7016906738281 C 319.63818359375 469.923828125 286.96295166015625 464.2706298828125 618.7738647460938 467.5342712402344 C 390.7599792480469 487.9707336425781 352.94677734375 467.22821044921875 201.35281372070312 469.9344787597656 C 144.45709228515625 477.4345397949219 208.7784881591797 471.8173828125 416.9530944824219 476.0591735839844"/>
    <path stroke-width="0" fill="rgb(-16, -12, -5)" opacity="1.0051936" stroke="rgb(47, 240, 188)" stroke-opacity="1.0" stroke-linecap="round" stroke-linejoin="round" d="M 268.1849060058594 358.44287109375 C 302.31903076171875 335.9878845214844 308.7998352050781 365.5895080566406 517.3531494140625 354.4258117675781 C 368.5447082519531 350.48797607421875 344.48553466796875 355.2138366699219 338.8504638671875 353.3196105957031 C 312.0120849609375 342.5187072753906 337.9146423339844 363.4184875488281 322.0572204589844 316.6763000488281 C 403.9203796386719 291.51837158203125 407.1214599609375 371.6066589355469 268.1849060058594 358.44287109375"/>
    <path stroke-width="0" fill="rgb(-27, -29, -18)" opacity="0.9700758" stroke="rgb(57, 64, 14)" stroke-opacity="1.0" stroke-linecap="round" stroke-linejoin="round" d="M 476.9977111816406 174.7504119873047 C 464.4233093261719 251.92433166503906 486.5423583984375 461.225830078125 483.18780517578125 182.96006774902344 C 421.0513610839844 187.79676818847656 462.4266662597656 152.7765655517578 437.3982238769531 370.2144470214844 C 429.0916442871094 161.11392211914062 436.341064453125 183.6338653564453 439.1758728027344 178.92330932617188 C 450.6466369628906 161.87428283691406 482.911376953125 173.95152282714844 476.9977111816406 174.7504119873047"/>
    <path stroke-width="0" fill="rgb(169, 179, 79)" opacity="1.0066378" stroke="rgb(79, 177, 96)" stroke-opacity="1.0" stroke-linecap="round" stroke-linejoin="round" d="M 634.4628295898438 77.74592590332031 C 546.7732543945312 163.12754821777344 548.7156982421875 183.89273071289062 512.9866333007812 177.9609832763672 C 493.6474304199219 154.66171264648438 472.5224609375 62.08427429199219 478.5428161621094 58.37965774536133 C 528.6715087890625 98.69161224365234 509.7710266113281 76.28531646728516 491.69879150390625 49.514095306396484 C 403.461181640625 10.21799373626709 441.5269775390625 -94.24276733398438 634.4628295898438 77.74592590332031"/>
    <path stroke-width="0" fill="rgb(273, 267, 272)" opacity="0.99072737" stroke="rgb(6, 17, 173)" stroke-opacity="1.0" stroke-linecap="round" stroke-linejoin="round" d="M 488.3177185058594 297.4713439941406 C 504.5218505859375 322.8907470703125 477.2129821777344 303.9051208496094 493.4047546386719 310.0567626953125 C 282.9107971191406 309.4045104980469 173.2497100830078 312.9833984375 146.7510223388672 300.3873291015625 C 300.8172302246094 298.1959533691406 371.5342712402344 298.58575439453125 434.7492980957031 296.2195129394531 C 338.7214050292969 296.87005615234375 313.65496826171875 296.8028869628906 488.3177185058594 297.4713439941406"/>
    <path stroke-width="0" fill="rgb(0, -10, 6)" opacity="0.9815168" stroke="rgb(136, 228, 252)" stroke-opacity="1.0" stroke-linecap="round" stroke-linejoin="round" d="M -71.82984924316406 475.60479736328125 C 33.101585388183594 466.7584533691406 85.30747985839844 470.83880615234375 28.65601921081543 469.7855529785156 C 88.08992004394531 470.58978271484375 162.40841674804688 469.4317321777344 356.2976989746094 471.6377258300781 C 398.42987060546875 480.2179260253906 214.45333862304688 477.0566711425781 26.218063354492188 477.6558532714844 C 54.59695816040039 476.440673828125 32.421173095703125 482.2997741699219 -71.82984924316406 475.60479736328125"/>
    <path stroke-width="0" fill="rgb(0, -3, 6)" opacity="0.730093" stroke="rgb(169, 67, 5)" stroke-opacity="1.0" stroke-linecap="round" stroke-linejoin="round" d="M 119.21527862548828 323.3550720214844 C 111.92183685302734 340.6371154785156 51.72502136230469 313.9301452636719 24.34595489501953 315.58050537109375 C 115.87531280517578 309.933837890625 124.76759338378906 312.831298828125 119.47735595703125 317.3490295410156 C 89.38788604736328 319.86956787109375 100.19747924804688 330.64312744140625 134.62010192871094 324.45037841796875 C 50.267250061035156 317.09912109375 46.14834213256836 299.11346435546875 119.21527862548828 323.3550720214844"/>
    <path stroke-width="0" fill="rgb(274, 267, 273)" opacity="0.9910738" stroke="rgb(81, 97, 150)" stroke-opacity="1.0" stroke-linecap="round" stroke-linejoin="round" d="M 132.45375061035156 320.3283996582031 C 116.02845764160156 312.19775390625 110.35602569580078 314.7026672363281 111.5318832397461 316.3097839355469 C 138.15744018554688 294.4947509765625 60.33607864379883 335.6810302734375 -58.186248779296875 297.2286682128906 C 208.8480682373047 295.2893981933594 248.1565704345703 295.7959289550781 192.90069580078125 301.968505859375 C 91.99830627441406 324.9548034667969 118.69552612304688 310.5706787109375 132.45375061035156 320.3283996582031"/>
    <path stroke-width="0" fill="rgb(56, 9, 0)" opacity="1.0220993" stroke="rgb(160, 222, 69)" stroke-opacity="1.0" stroke-linecap="round" stroke-linejoin="round" d="M 489.9978332519531 445.6190490722656 C 351.93048095703125 436.7533264160156 414.9033508300781 425.9649658203125 -160.5384979248047 438.5877380371094 C 651.0647583007812 456.76605224609375 501.5159912109375 416.26202392578125 507.58197021484375 433.9980773925781 C 276.66143798828125 447.93609619140625 547.5072021484375 435.61517333984375 249.16148376464844 433.9024658203125 C 510.4404602050781 433.3951110839844 636.8034057617188 431.43621826171875 489.9978332519531 445.6190490722656"/>
    <path stroke-width="0" fill="rgb(-14, -9, -5)" opacity="0.9837839" stroke="rgb(241, 186, 64)" stroke-opacity="1.0" stroke-linecap="round" stroke-linejoin="round" d="M 375.9707946777344 309.5976867675781 C 16.56743621826172 350.39727783203125 -164.62643432617188 329.4803161621094 8.332176208496094 315.46783447265625 C 92.68256378173828 312.31365966796875 19.662992477416992 314.0824279785156 -79.9030990600586 318.564453125 C -1.3048661947250366 317.52337646484375 34.21998977661133 338.5412292480469 -51.110774993896484 308.4334411621094 C -136.98756408691406 310.5614318847656 125.49636840820312 308.57666015625 375.9707946777344 309.5976867675781"/>
    <path stroke-width="0" fill="rgb(276, 276, 274)" opacity="0.71524274" stroke="rgb(95, 118, 70)" stroke-opacity="1.0" stroke-linecap="round" stroke-linejoin="round" d="M 542.7586669921875 197.08604431152344 C 472.7077331542969 161.26171875 506.9466247558594 189.2528076171875 498.5677185058594 211.1593017578125 C 487.491455078125 204.24522399902344 491.8772888183594 195.57125854492188 493.1416931152344 307.2339172363281 C 477.15045166015625 319.3665771484375 486.7159729003906 194.36485290527344 482.3236389160156 161.54776000976562 C 507.3343811035156 204.62051391601562 479.08367919921875 205.76522827148438 542.7586669921875 197.08604431152344"/>
    <path stroke-width="0" fill="rgb(16, 7, -37)" opacity="1.1013212" stroke="rgb(36, 124, 90)" stroke-opacity="1.0" stroke-linecap="round" stroke-linejoin="round" d="M 342.6930236816406 490.9249572753906 C 345.6135559082031 511.3172302246094 330.458740234375 509.40167236328125 464.78338623046875 504.2123718261719 C 385.0783386230469 504.230224609375 358.0545959472656 497.0326232910156 307.1991882324219 503.6230773925781 C 302.989013671875 476.1734619140625 329.5823974609375 503.120849609375 311.32342529296875 496.0182800292969 C 356.52398681640625 506.79510498046875 364.29486083984375 492.3917541503906 342.6930236816406 490.9249572753906"/>
    <path stroke-width="0" fill="rgb(202, 137, 181)" opacity="0.5083724" stroke="rgb(140, 149, 245)" stroke-opacity="1.0" stroke-linecap="round" stroke-linejoin="round" d="M 83.8041000366211 382.6421203613281 C 67.88646697998047 367.2116394042969 36.717430114746094 357.7701416015625 87.88118743896484 370.86480712890625 C 125.7590560913086 360.10882568359375 110.55701446533203 371.93585205078125 113.40911865234375 373.77349853515625 C 31.97496795654297 375.8936462402344 58.7304573059082 369.1929016113281 87.77615356445312 383.0848083496094 C 76.43621063232422 378.9338684082031 79.568359375 391.1399230957031 83.8041000366211 382.6421203613281"/>
    <path stroke-width="0" fill="rgb(53, 95, 22)" opacity="0.5821513" stroke="rgb(170, 200, 71)" stroke-opacity="1.0" stroke-linecap="round" stroke-linejoin="round" d="M 362.9300537109375 562.9494018554688 C 349.4465026855469 530.275146484375 336.525146484375 500.6853942871094 357.9959716796875 498.5521545410156 C 440.5840759277344 506.2559814453125 347.9696350097656 505.6109313964844 315.268310546875 506.0668640136719 C 361.65057373046875 512.5919799804688 350.8932189941406 472.4862365722656 350.6629333496094 501.5812072753906 C 336.034423828125 516.0164184570312 361.1856994628906 536.470703125 362.9300537109375 562.9494018554688"/>
    <path stroke-width="0" fill="rgb(-14, 82, -3)" opacity="0.8274647" stroke="rgb(16, 123, 249)" stroke-opacity="1.0" stroke-linecap="round" stroke-linejoin="round" d="M 354.3652038574219 447.4053955078125 C 370.34027099609375 446.7696533203125 328.3152160644531 436.83770751953125 398.62591552734375 443.1902160644531 C 351.3937683105469 435.1918029785156 369.7352600097656 428.5966796875 357.4584655761719 450.1120910644531 C 397.9429931640625 444.1151123046875 390.498291015625 451.7904052734375 358.41046142578125 449.9290771484375 C 321.6738586425781 445.1495056152344 322.52032470703125 446.5817565917969 354.3652038574219 447.4053955078125"/>
    <path stroke-width="0" fill="rgb(-1, 3, -9)" opacity="1.0800008" stroke="rgb(240, 203, 160)" stroke-opacity="1.0" stroke-linecap="round" stroke-linejoin="round" d="M -24.68052864074707 374.1441345214844 C 32.30302047729492 350.9088439941406 31.210468292236328 363.1209411621094 0.5391002893447876 362.2866516113281 C 84.16736602783203 354.57098388671875 67.44290161132812 367.8315734863281 85.90484619140625 350.0453186035156 C 59.689910888671875 382.55755615234375 75.63139343261719 340.10784912109375 -30.428958892822266 380.0179748535156 C 143.63961791992188 386.4966125488281 380.1234130859375 372.52618408203125 -24.68052864074707 374.1441345214844"/>
    <path stroke-width="0" fill="rgb(2, -8, 1)" opacity="1.0827531" stroke="rgb(88, 37, 250)" stroke-opacity="1.0" stroke-linecap="round" stroke-linejoin="round" d="M 352.19219970703125 505.2032775878906 C 336.7506408691406 477.705078125 353.7295227050781 487.4058532714844 346.439453125 542.5997314453125 C 386.69427490234375 538.0885620117188 368.8926696777344 491.110595703125 393.02032470703125 500.4788818359375 C 392.1190185546875 488.66729736328125 382.1246337890625 455.9483947753906 375.6103820800781 546.7319946289062 C 340.4029846191406 511.6947937011719 352.7001647949219 504.65704345703125 352.19219970703125 505.2032775878906"/>
    <path stroke-width="0" fill="rgb(52, -13, 33)" opacity="1.0413744" stroke="rgb(209, 48, 130)" stroke-opacity="1.0" stroke-linecap="round" stroke-linejoin="round" d="M 67.00859069824219 446.7404479980469 C 78.81793975830078 451.1001892089844 12.680482864379883 444.11956787109375 -59.016998291015625 447.0272216796875 C 101.03382110595703 446.97625732421875 102.54524230957031 445.79827880859375 102.75849914550781 447.93902587890625 C 88.15631103515625 447.5438537597656 83.21028900146484 444.1099853515625 67.2771987915039 449.05621337890625 C 64.33654022216797 411.4498291015625 77.57860565185547 456.437744140625 67.00859069824219 446.7404479980469"/>
    <path stroke-width="0" fill="rgb(35, -3, 28)" opacity="1.1360548" stroke="rgb(185, 2, 196)" stroke-opacity="1.0" stroke-linecap="round" stroke-linejoin="round" d="M 104.76822662353516 451.7401428222656 C 89.15150451660156 440.6738586425781 102.66253662109375 432.6680908203125 130.2274932861328 438.11419677734375 C 137.76416015625 458.0463562011719 123.75711059570312 442.3143310546875 -7.018004894256592 448.7718505859375 C 129.97457885742188 445.4146728515625 138.73399353027344 452.7701110839844 136.15396118164062 442.60528564453125 C 139.5798797607422 435.83978271484375 93.22712707519531 429.5586242675781 104.76822662353516 451.7401428222656"/>
    <path stroke-width="0" fill="rgb(47, 28, 3)" opacity="1.1665537" stroke="rgb(20, 22, 171)" stroke-opacity="1.0" stroke-linecap="round" stroke-linejoin="round" d="M 465.2744445800781 491.9473876953125 C 438.50933837890625 489.8922424316406 465.3155212402344 523.9664916992188 500.9482727050781 493.0543212890625 C 585.97998046875 485.6032409667969 563.4568481445312 481.63848876953125 128.85684204101562 488.097900390625 C 321.2961120605469 501.495361328125 607.2268676757812 482.9920959472656 444.16162109375 502.7409973144531 C 474.8403625488281 494.4691162109375 464.4007568359375 506.5374755859375 465.2744445800781 491.9473876953125"/>
    <path stroke-width="0" fill="rgb(-45, -8, -27)" opacity="1.0536754" stroke="rgb(107, 142, 219)" stroke-opacity="1.0" stroke-linecap="round" stroke-linejoin="round" d="M 349.7139892578125 431.1604919433594 C 293.54156494140625 429.63507080078125 349.66619873046875 424.79541015625 315.62176513671875 436.1950378417969 C 392.37640380859375 444.0094909667969 340.5868225097656 444.86968994140625 322.307373046875 438.81756591796875 C 345.22802734375 422.4605407714844 301.6495056152344 438.89617919921875 -49.0247917175293 425.78997802734375 C 758.70068359375 421.1654357910156 738.2301025390625 432.92242431640625 349.7139892578125 431.1604919433594"/>
    <path stroke-width="0" fill="rgb(42, 150, 40)" opacity="0.8545837" stroke="rgb(68, 33, 14)" stroke-opacity="1.0" stroke-linecap="round" stroke-linejoin="round" d="M 164.06533813476562 437.4275817871094 C 155.08892822265625 450.4595031738281 223.02894592285156 442.9903564453125 -63.675846099853516 447.4698181152344 C 377.2576904296875 452.0429992675781 430.50299072265625 444.0744323730469 173.88711547851562 445.7075500488281 C 148.481689453125 450.4432678222656 163.52755737304688 448.94677734375 168.9852752685547 438.85455322265625 C 166.93287658691406 437.4112548828125 163.9689178466797 455.3937072753906 164.06533813476562 437.4275817871094"/>
    <path stroke-width="0" fill="rgb(183, 93, 139)" opacity="0.36626384" stroke="rgb(66, 116, 174)" stroke-opacity="1.0" stroke-linecap="round" stroke-linejoin="round" d="M 243.1704559326172 370.81475830078125 C 205.9839630126953 368.537109375 195.6856231689453 363.85345458984375 239.7087860107422 372.3013916015625 C 202.4242401123047 359.81231689453125 192.30987548828125 353.011474609375 154.2432098388672 334.02801513671875 C 191.95944213867188 348.6490173339844 197.39041137695312 365.1473693847656 236.98684692382812 371.0285949707031 C 58.33891296386719 380.48095703125 89.89338684082031 364.2238464355469 243.1704559326172 370.81475830078125"/>
    <path stroke-width="0" fill="rgb(32, 8, 6)" opacity="0.8239412" stroke="rgb(14, 177, 198)" stroke-opacity="1.0" stroke-linecap="round" stroke-linejoin="round" d="M 352.4988098144531 358.1400451660156 C 380.9898681640625 364.0608825683594 376.34930419921875 360.18792724609375 397.3078918457031 359.60382080078125 C 412.3967590332031 344.27587890625 404.4666748046875 339.0276794433594 414.4268493652344 341.7105407714844 C 425.13232421875 377.8943786621094 416.8825378417969 349.1524963378906 412.0072326660156 370.3887939453125 C 420.2419128417969 377.0903015136719 373.30169677734375 358.4848937988281 352.4988098144531 358.1400451660156"/>
    <path stroke-width="0" fill="rgb(33, 34, -19)" opacity="1.1485769" stroke="rgb(66, 95, 149)" stroke-opacity="1.0" stroke-linecap="round" stroke-linejoin="round" d="M 423.9150390625 523.2020874023438 C 410.0508728027344 490.64898681640625 442.5430908203125 500.7509765625 436.45562744140625 506.4953918457031 C 436.3193054199219 505.22344970703125 400.05230712890625 501.6123962402344 341.3870849609375 497.00115966796875 C 407.1124267578125 505.3838195800781 443.0394287109375 510.4041748046875 445.4017028808594 505.39190673828125 C 396.23077392578125 471.2945861816406 427.9818115234375 508.2281188964844 423.9150390625 523.2020874023438"/>
    <path stroke-width="0" fill="rgb(41, 24, 18)" opacity="0.77958244" stroke="rgb(203, 19, 132)" stroke-opacity="1.0" stroke-linecap="round" stroke-linejoin="round" d="M 585.9306030273438 510.8658447265625 C 538.0667114257812 500.5255432128906 248.71253967285156 513.8916015625 196.4424285888672 498.10321044921875 C 452.7828063964844 495.7160339355469 493.7948303222656 503.2815246582031 498.2723083496094 489.6319580078125 C 529.4000244140625 498.7353820800781 579.3919067382812 490.9571838378906 408.8181457519531 491.5345458984375 C 503.5098571777344 492.38336181640625 472.43145751953125 493.9142150878906 585.9306030273438 510.8658447265625"/>
    <path stroke-width="0" fill="rgb(238, 250, 246)" opacity="0.48537928" stroke="rgb(70, 32, 100)" stroke-opacity="1.0" stroke-linecap="round" stroke-linejoin="round" d="M 405.77679443359375 88.65754699707031 C 419.1204833984375 78.62207794189453 433.18096923828125 87.98464965820312 405.1713562011719 93.34820556640625 C 408.1826477050781 92.92642211914062 430.81378173828125 84.17555236816406 418.51824951171875 93.8564682006836 C 422.522216796875 95.98715209960938 416.5111999511719 77.20706939697266 405.050537109375 88.51101684570312 C 397.1891174316406 95.11202239990234 400.85308837890625 89.95121002197266 405.77679443359375 88.65754699707031"/>
    <path stroke-width="0" fill="rgb(62, 39, -24)" opacity="0.9868279" stroke="rgb(47, 230, 138)" stroke-opacity="1.0" stroke-linecap="round" stroke-linejoin="round" d="M 227.90878295898438 449.6358337402344 C 226.26751708984375 434.6505432128906 237.8666229248047 439.6832580566406 233.10008239746094 447.58184814453125 C 422.88409423828125 447.974853515625 403.6575927734375 444.8149108886719 260.6441955566406 449.0138244628906 C 255.7338104248047 420.8280944824219 283.0059509277344 458.7934265136719 247.7145233154297 447.7577819824219 C 248.76568603515625 448.9871826171875 220.87123107910156 444.9622497558594 227.90878295898438 449.6358337402344"/>
    <path stroke-width="0" fill="rgb(227, 179, 180)" opacity="0.8671463" stroke="rgb(230, 175, 178)" stroke-opacity="1.0" stroke-linecap="round" stroke-linejoin="round" d="M 174.7304229736328 368.55865478515625 C 172.38758850097656 383.9138488769531 234.0465850830078 364.9067077636719 253.81320190429688 362.5284729003906 C 229.32345581054688 365.3220520019531 235.53134155273438 359.3766784667969 240.68006896972656 371.55560302734375 C 230.70895385742188 372.53619384765625 226.66302490234375 375.7794189453125 427.9266662597656 372.1395568847656 C 123.3301773071289 358.9006652832031 321.8226013183594 384.129150390625 174.7304229736328 368.55865478515625"/>
    <path stroke-width="0" fill="rgb(172, 189, 313)" opacity="0.0038915907" stroke="rgb(192, 162, 61)" stroke-opacity="1.0" stroke-linecap="round" stroke-linejoin="round" d="M 454.7576904296875 297.8013000488281 C 459.761474609375 290.2335510253906 433.9930114746094 293.9019470214844 445.7364196777344 255.7333526611328 C 445.6698913574219 281.5709533691406 453.56640625 284.7172546386719 460.7811584472656 289.4061584472656 C 463.2428894042969 300.1422424316406 470.7335510253906 294.91339111328125 454.5511474609375 324.3276672363281 C 469.0934143066406 295.9145202636719 471.653076171875 297.5823669433594 454.7576904296875 297.8013000488281"/>
    <path stroke-width="0" fill="rgb(77, 72, 125)" opacity="0.19198442" stroke="rgb(209, 231, 207)" stroke-opacity="1.0" stroke-linecap="round" stroke-linejoin="round" d="M 550.80322265625 501.3243103027344 C 396.5331726074219 499.8690490722656 427.44036865234375 484.5166931152344 425.4754943847656 513.9129028320312 C 425.1033630371094 513.4588012695312 425.4075012207031 521.2969360351562 419.5663757324219 505.85845947265625 C 438.474609375 480.4731750488281 394.2438659667969 502.01409912109375 501.2534484863281 498.0108337402344 C 428.8818054199219 475.8743896484375 416.51373291015625 484.9976501464844 550.80322265625 501.3243103027344"/>
    <path stroke-width="0" fill="rgb(12, 69, 68)" opacity="0.939997" stroke="rgb(160, 101, 15)" stroke-opacity="1.0" stroke-linecap="round" stroke-linejoin="round" d="M 370.24908447265625 275.0082702636719 C 478.2300720214844 273.2168884277344 242.56692504882812 244.0067901611328 309.91619873046875 197.08799743652344 C 430.234375 194.30816650390625 391.2192077636719 195.5880889892578 402.71533203125 271.44873046875 C 357.7369689941406 247.5345916748047 366.593994140625 260.84124755859375 294.8611755371094 226.1973419189453 C 306.5556640625 276.00628662109375 274.9198913574219 274.8460388183594 370.24908447265625 275.0082702636719"/>
    <path stroke-width="0" fill="rgb(32, -5, -27)" opacity="1.0624629" stroke="rgb(65, 216, 8)" stroke-opacity="1.0" stroke-linecap="round" stroke-linejoin="round" d="M 227.02854919433594 487.9366149902344 C 216.85897827148438 488.7215576171875 122.60356903076172 479.8153381347656 -116.17399597167969 489.3346252441406 C 242.55075073242188 499.134765625 216.7459259033203 482.7152404785156 211.95091247558594 503.898193359375 C 196.7819061279297 484.520263671875 192.68699645996094 496.4975280761719 294.8088684082031 488.1708679199219 C 178.37322998046875 491.0035095214844 197.25335693359375 493.0939025878906 227.02854919433594 487.9366149902344"/>
    <path stroke-width="0" fill="rgb(53, 60, 14)" opacity="0.88112473" stroke="rgb(90, 90, 4)" stroke-opacity="1.0" stroke-linecap="round" stroke-linejoin="round" d="M 277.30548095703125 442.8414611816406 C 274.8611145019531 431.47991943359375 275.9674377441406 438.47052001953125 287.4708251953125 434.36669921875 C 298.6087951660156 452.3572692871094 285.6939392089844 440.8095397949219 289.3113708496094 430.0802001953125 C 293.892822265625 462.681396484375 360.6343994140625 438.728759765625 287.5593566894531 450.5302734375 C 297.2665710449219 439.61798095703125 293.54180908203125 444.6994323730469 277.30548095703125 442.8414611816406"/>
    <path stroke-width="0" fill="rgb(-11, 14, -53)" opacity="0.9483097" stroke="rgb(102, 236, 25)" stroke-opacity="1.0" stroke-linecap="round" stroke-linejoin="round" d="M -24.973718643188477 433.6909484863281 C 61.528560638427734 447.7574768066406 27.588857650756836 434.71051025390625 -6.4742937088012695 441.781005859375 C 126.52067565917969 441.7283630371094 153.8358154296875 420.6734924316406 -76.58285522460938 428.2726745605469 C 151.696533203125 434.2422180175781 110.32154846191406 420.86383056640625 78.43832397460938 438.73089599609375 C 44.3444709777832 446.479248046875 24.906381607055664 439.3069152832031 -24.973718643188477 433.6909484863281"/>
    <path stroke-width="0" fill="rgb(137, 98, 20)" opacity="0.9797346" stroke="rgb(221, 115, 83)" stroke-opacity="1.0" stroke-linecap="round" stroke-linejoin="round" d="M 561.8806762695312 364.162353515625 C 455.0831604003906 348.6205139160156 435.40216064453125 367.89324951171875 454.1520080566406 358.6592712402344 C 469.0859375 361.1246032714844 465.4645690917969 353.6697692871094 473.053955078125 360.51910400390625 C 480.8486022949219 356.08648681640625 433.75469970703125 357.98126220703125 116.70901489257812 357.3867492675781 C 406.37750244140625 362.2608337402344 502.4031677246094 356.20123291015625 561.8806762695312 364.162353515625"/>
    <path stroke-width="0" fill="rgb(25, 20, 65)" opacity="0.50405717" stroke="rgb(33, 3, 29)" stroke-opacity="1.0" stroke-linecap="round" stroke-linejoin="round" d="M 429.8603210449219 509.1205749511719 C 449.06005859375 493.5523986816406 445.5160217285156 516.3475341796875 445.3206481933594 521.8436279296875 C 438.1234436035156 486.8795471191406 475.7833557128906 511.1257019042969 457.5953369140625 487.3208923339844 C 438.19964599609375 535.6699829101562 475.5656433105469 522.0891723632812 452.2643127441406 525.5260620117188 C 448.9324035644531 502.7783203125 452.0829162597656 489.6731262207031 429.8603210449219 509.1205749511719"/>
    <path stroke-width="0" fill="rgb(91, 86, 137)" opacity="0.052704364" stroke="rgb(162, 125, 252)" stroke-opacity="1.0" stroke-linecap="round" stroke-linejoin="round" d="M 236.01100158691406 117.75560760498047 C 242.83299255371094 94.7109603881836 242.4313201904297 101.71988677978516 233.83929443359375 107.63835906982422 C 232.49610900878906 116.12651824951172 239.83050537109375 111.24280548095703 235.53759765625 102.80604553222656 C 237.18472290039062 104.52603912353516 244.37615966796875 92.61524200439453 249.205322265625 76.7204818725586 C 246.9181365966797 90.54336547851562 241.25057983398438 103.653076171875 236.01100158691406 117.75560760498047"/>
    <path stroke-width="0" fill="rgb(59, 63, 22)" opacity="0.5985908" stroke="rgb(199, 73, 61)" stroke-opacity="1.0" stroke-linecap="round" stroke-linejoin="round" d="M 408.6300354003906 446.8463134765625 C 340.64361572265625 430.3279724121094 373.9593811035156 463.1075134277344 620.5947875976562 439.71148681640625 C 300.84039306640625 472.887451171875 497.83056640625 422.5238037109375 377.47802734375 450.6201171875 C 454.4167785644531 445.6666259765625 397.00335693359375 455.98583984375 447.2152404785156 436.38055419921875 C 305.2870178222656 446.4197692871094 360.6165771484375 435.0007629394531 408.6300354003906 446.8463134765625"/>
    <path stroke-width="0" fill="rgb(49, -24, -10)" opacity="0.8951683" stroke="rgb(62, 169, 131)" stroke-opacity="1.0" stroke-linecap="round" stroke-linejoin="round" d="M -25.756729125976562 368.56402587890625 C 10.783781051635742 441.6786193847656 -12.185037612915039 457.9698486328125 -61.69034194946289 435.5633544921875 C 21.342283248901367 430.8892517089844 39.472110748291016 432.04296875 41.13395309448242 450.03985595703125 C 21.626022338867188 440.14105224609375 58.8243293762207 430.6457824707031 -3.323065996170044 432.0625915527344 C 22.841533660888672 461.09942626953125 -4.322772026062012 462.1618347167969 -25.756729125976562 368.56402587890625"/>
    <path stroke-width="0" fill="rgb(72, 16, 20)" opacity="0.92793036" stroke="rgb(141, 73, 180)" stroke-opacity="1.0" stroke-linecap="round" stroke-linejoin="round" d="M 373.37652587890625 447.64447021484375 C 359.84222412109375 453.49041748046875 357.8399963378906 437.263427734375 358.31683349609375 437.41387939453125 C 367.5821838378906 461.1639404296875 335.3663330078125 443.6719970703125 362.560546875 449.3199768066406 C 358.266357421875 451.2490539550781 342.5137023925781 428.73541259765625 400.1797790527344 435.8840637207031 C 357.0827331542969 436.3674621582031 349.23052978515625 457.2405700683594 373.37652587890625 447.64447021484375"/>
    <path stroke-width="0" fill="rgb(251, 213, 221)" opacity="0.91220295" stroke="rgb(247, 230, 75)" stroke-opacity="1.0" stroke-linecap="round" stroke-linejoin="round" d="M 466.8555603027344 369.32122802734375 C 410.1808166503906 364.37615966796875 347.339111328125 374.0756530761719 465.3413391113281 374.7162780761719 C 464.115478515625 365.50079345703125 467.3880615234375 365.2645568847656 466.58782958984375 372.9889221191406 C 516.3792114257812 376.01629638671875 586.1442260742188 367.4391784667969 466.4458312988281 367.36810302734375 C 468.7138366699219 373.2428894042969 465.58642578125 376.4543762207031 466.8555603027344 369.32122802734375"/>
    <path stroke-width="0" fill="rgb(117, 116, 141)" opacity="0.11661544" stroke="rgb(63, 27, 242)" stroke-opacity="1.0" stroke-linecap="round" stroke-linejoin="round" d="M 215.34768676757812 108.63507843017578 C 200.69537353515625 98.8045883178711 189.80279541015625 91.14813995361328 187.46246337890625 99.16600799560547 C 192.23545837402344 86.80413055419922 189.26126098632812 98.83513641357422 188.6728515625 89.18275451660156 C 202.03390502929688 103.94713592529297 201.3835906982422 97.35485076904297 197.0658416748047 108.24150848388672 C 203.9873046875 95.33570861816406 206.87359619140625 102.90384674072266 215.34768676757812 108.63507843017578"/>
    <path stroke-width="0" fill="rgb(284, 277, 285)" opacity="1.0172207" stroke="rgb(69, 96, 95)" stroke-opacity="1.0" stroke-linecap="round" stroke-linejoin="round" d="M 326.4436340332031 78.5901107788086 C 351.4420166015625 91.49231719970703 297.0302734375 62.49540328979492 361.75823974609375 92.77571868896484 C 378.95751953125 87.62181854248047 358.431884765625 95.01504516601562 351.37841796875 94.0331039428711 C 280.6840515136719 98.76055908203125 250.2360382080078 91.52388000488281 363.8256530761719 108.98501586914062 C 371.7839050292969 87.43622589111328 355.15472412109375 88.56241607666016 326.4436340332031 78.5901107788086"/>
    <path stroke-width="0" fill="rgb(5, 3, 2)" opacity="0.0020766023" stroke="rgb(213, 60, 128)" stroke-opacity="1.0" stroke-linecap="round" stroke-linejoin="round" d="M 321.3666687011719 158.67184448242188 C 331.43853759765625 115.20218658447266 320.04736328125 132.53524780273438 319.49835205078125 124.85260009765625 C 329.7380065917969 124.3355712890625 320.50787353515625 125.93367004394531 312.9143371582031 127.23402404785156 C 319.5235595703125 128.306396484375 328.443603515625 148.71682739257812 323.3935546875 163.34237670898438 C 323.0988464355469 141.6189727783203 324.2095031738281 143.10873413085938 321.3666687011719 158.67184448242188"/>
    <path stroke-width="0" fill="rgb(56, 46, 29)" opacity="0.38177577" stroke="rgb(161, 221, 239)" stroke-opacity="1.0" stroke-linecap="round" stroke-linejoin="round" d="M 149.05357360839844 450.1186218261719 C 223.22515869140625 424.69537353515625 221.2117919921875 414.0010986328125 225.7213592529297 436.1566162109375 C 245.88702392578125 434.61029052734375 255.48606872558594 438.23284912109375 240.2263641357422 441.0255126953125 C 216.80258178710938 446.36248779296875 245.212890625 448.2209777832031 225.957763671875 437.9790954589844 C 223.52151489257812 415.4366760253906 224.79006958007812 430.9062194824219 149.05357360839844 450.1186218261719"/>
    <path stroke-width="0" fill="rgb(-41, 10, 14)" opacity="0.5459842" stroke="rgb(228, 103, 140)" stroke-opacity="1.0" stroke-linecap="round" stroke-linejoin="round" d="M 214.5777130126953 435.7205505371094 C 8.330324172973633 420.9608459472656 -84.97148132324219 428.39031982421875 140.07363891601562 430.6463317871094 C 179.8202362060547 432.7422790527344 153.31170654296875 422.8145751953125 167.4954376220703 452.5887145996094 C 164.6792755126953 427.05035400390625 175.97125244140625 439.39019775390625 155.7973175048828 439.8555603027344 C 181.2655029296875 429.53131103515625 126.16712188720703 431.85174560546875 214.5777130126953 435.7205505371094"/>
    <path stroke-width="0" fill="rgb(272, 277, 249)" opacity="0.474755" stroke="rgb(116, 102, 63)" stroke-opacity="1.0" stroke-linecap="round" stroke-linejoin="round" d="M 455.76318359375 114.23290252685547 C 453.0080261230469 120.00483703613281 461.6483459472656 118.8923568725586 476.7933044433594 117.20621490478516 C 444.1324462890625 124.7768783569336 448.8919372558594 105.05067443847656 476.38336181640625 122.53609466552734 C 470.4928894042969 116.50118255615234 459.84027099609375 109.03311157226562 444.3358459472656 112.72026824951172 C 498.4728698730469 118.21412658691406 501.9063720703125 132.2701416015625 455.76318359375 114.23290252685547"/>
    <path stroke-width="0" fill="rgb(161, 195, 148)" opacity="-0.007879556" stroke="rgb(85, 235, 219)" stroke-opacity="1.0" stroke-linecap="round" stroke-linejoin="round" d="M 464.8663635253906 149.93833923339844 C 466.4023132324219 115.81903076171875 449.5544128417969 129.2764434814453 449.8448791503906 108.29463958740234 C 432.90380859375 110.57075500488281 426.5826416015625 116.91632080078125 425.5115661621094 109.3458023071289 C 448.73394775390625 100.55443572998047 442.0996398925781 115.87462615966797 461.58795166015625 125.22936248779297 C 457.9014587402344 118.33100128173828 468.0255126953125 124.18950653076172 464.8663635253906 149.93833923339844"/>
    <path stroke-width="0" fill="rgb(201, 285, 219)" opacity="0.7310016" stroke="rgb(64, 113, 26)" stroke-opacity="1.0" stroke-linecap="round" stroke-linejoin="round" d="M 482.1885070800781 89.2883071899414 C 465.5129699707031 77.48397827148438 477.16033935546875 105.01498413085938 479.02740478515625 90.7043685913086 C 452.1491394042969 75.88866424560547 440.20855712890625 61.05471420288086 446.8863830566406 99.87545776367188 C 479.0679626464844 109.74249267578125 483.4473571777344 100.73773956298828 471.0144958496094 89.70337677001953 C 471.62628173828125 91.58063507080078 487.40484619140625 106.7834701538086 482.1885070800781 89.2883071899414"/>
    <path stroke-width="0" fill="rgb(217, 225, 172)" opacity="0.8008582" stroke="rgb(0, 0, 0)" stroke-opacity="0.0" stroke-linecap="round" stroke-linejoin="round" d="M 281.195556640625 20.637126922607422 C 280.9469299316406 27.46788787841797 276.8002624511719 32.84695816040039 266.6263427734375 34.247894287109375 C 260.6307678222656 33.35190963745117 253.1493682861328 25.412832260131836 253.97486877441406 18.301834106445312 C 254.22579956054688 9.28563404083252 258.9237060546875 9.622567176818848 265.65704345703125 6.6092376708984375 C 273.7191467285156 5.888364791870117 280.537109375 9.800146102905273 281.195556640625 20.637126922607422"/>
    <path stroke-width="0" fill="rgb(231, 130, 163)" opacity="0.37267765" stroke="rgb(0, 0, 0)" stroke-opacity="0.0" stroke-linecap="round" stroke-linejoin="round" d="M 8.917205810546875 6.287045955657959 C -0.6450789570808411 8.876623153686523 -0.7871214747428894 6.883370399475098 2.645219564437866 25.7784366607666 C -10.31596565246582 25.956401824951172 -7.667734622955322 14.086274147033691 -7.679245948791504 7.711945533752441 C -6.561120986938477 3.567819595336914 -3.6331968307495117 0.6381251215934753 1.1980394124984741 -1.3307422399520874 C 10.936336517333984 -3.6253018379211426 14.851638793945312 -2.876401901245117 8.917205810546875 6.287045955657959"/>
    <path stroke-width="0" fill="rgb(170, 142, 198)" opacity="0.81283987" stroke="rgb(0, 0, 0)" stroke-opacity="0.0" stroke-linecap="round" stroke-linejoin="round" d="M 17.511852264404297 6.000004768371582 C 19.64242935180664 10.465315818786621 19.616043090820312 15.805363655090332 17.671783447265625 19.383407592773438 C 15.866864204406738 16.059215545654297 15.029027938842773 12.264222145080566 16.4090633392334 13.06248664855957 C 16.79429054260254 9.800137519836426 17.765846252441406 0.42603799700737 14.383749961853027 5.057007312774658 C 18.66794776916504 3.693859577178955 18.30154037475586 5.646991729736328 17.511852264404297 6.000004768371582"/>
    <path stroke-width="0" fill="rgb(200, 148, 146)" opacity="0.3614653" stroke="rgb(0, 0, 0)" stroke-opacity="0.0" stroke-linecap="round" stroke-linejoin="round" d="M 115.21359252929688 3.931009292602539 C 104.42414855957031 5.179959297180176 95.89087677001953 2.217836856842041 96.8674087524414 6.290042400360107 C 99.6437759399414 8.323487281799316 94.80614471435547 7.167081356048584 83.76866149902344 4.40735387802124 C 85.4654541015625 -7.199656009674072 93.6960678100586 -5.564053535461426 99.86471557617188 -4.691897869110107 C 105.24568939208984 -4.877645969390869 111.42021942138672 -7.67563009262085 115.21359252929688 3.931009292602539"/>
    <path stroke-width="0" fill="rgb(95, 172, 195)" opacity="0.116686046" stroke="rgb(0, 0, 0)" stroke-opacity="0.0" stroke-linecap="round" stroke-linejoin="round" d="M 175.81253051757812 14.11435317993164 C 177.88844299316406 23.26199722290039 171.1119384765625 26.359983444213867 173.70762634277344 20.845081329345703 C 164.49176025390625 21.939006805419922 163.07908630371094 19.983104705810547 164.61915588378906 20.06751251220703 C 164.27536010742188 10.00484561920166 160.76731872558594 6.37260627746582 167.48497009277344 5.3504438400268555 C 166.06173706054688 15.90404224395752 163.02345275878906 18.24325942993164 175.81253051757812 14.11435317993164"/>
    <path stroke-width="0" fill="rgb(152, 177, 101)" opacity="0.6173089" stroke="rgb(0, 0, 0)" stroke-opacity="0.0" stroke-linecap="round" stroke-linejoin="round" d="M 23.85224151611328 11.996560096740723 C 24.59225082397461 21.410903930664062 21.648427963256836 20.931787490844727 13.427608489990234 20.06705093383789 C 11.74427318572998 13.938834190368652 13.131940841674805 8.479471206665039 -0.537886917591095 10.595110893249512 C 2.0398521423339844 5.787395000457764 9.31863784790039 4.018838405609131 17.98950958251953 -1.2047345638275146 C 26.227684020996094 -1.1217809915542603 24.19546890258789 -1.2833861112594604 23.85224151611328 11.996560096740723"/>
    <path stroke-width="0" fill="rgb(178, 122, 146)" opacity="0.13388908" stroke="rgb(0, 0, 0)" stroke-opacity="0.0" stroke-linecap="round" stroke-linejoin="round" d="M 14.166728973388672 6.737124443054199 C 10.350793838500977 1.2976036071777344 1.7274893522262573 -0.6982899904251099 3.7565648555755615 2.044644355773926 C 5.571012496948242 11.479400634765625 4.260218143463135 3.6817612648010254 0.2975478768348694 0.8899908661842346 C -0.47251179814338684 -0.6221713423728943 1.7311981916427612 -2.7236344814300537 4.783115386962891 -2.5520689487457275 C 9.009997367858887 -1.3151284456253052 11.30681037902832 2.083545207977295 14.166728973388672 6.737124443054199"/>
    <path stroke-width="0" fill="rgb(201, 176, 157)" opacity="0.30930692" stroke="rgb(0, 0, 0)" stroke-opacity="0.0" stroke-linecap="round" stroke-linejoin="round" d="M 344.9004211425781 39.49266052246094 C 343.9135437011719 44.56575012207031 343.64862060546875 48.84535598754883 344.5000915527344 45.45108413696289 C 337.0968322753906 45.562076568603516 333.80352783203125 46.34870910644531 336.3622131347656 41.49320983886719 C 335.7107238769531 38.09332275390625 337.4393310546875 34.013023376464844 339.34014892578125 38.030418395996094 C 343.7073059082031 39.40476608276367 346.9197692871094 41.68490219116211 344.9004211425781 39.49266052246094"/>
    <path stroke-width="0" fill="rgb(145, 125, 147)" opacity="0.07302395" stroke="rgb(0, 0, 0)" stroke-opacity="0.0" stroke-linecap="round" stroke-linejoin="round" d="M 337.5209045410156 267.7712707519531 C 321.7143859863281 271.68682861328125 320.2775573730469 274.12554931640625 316.3574523925781 272.9819641113281 C 318.1933288574219 272.57171630859375 316.4896240234375 269.9538269042969 305.4998779296875 270.83642578125 C 316.41070556640625 266.87646484375 321.7729187011719 265.69171142578125 319.5904235839844 268.93536376953125 C 327.46636962890625 270.41998291015625 331.95831298828125 268.3428039550781 337.5209045410156 267.7712707519531"/>
    <path stroke-width="0" fill="rgb(209, 215, 147)" opacity="0.87863314" stroke="rgb(0, 0, 0)" stroke-opacity="0.0" stroke-linecap="round" stroke-linejoin="round" d="M 171.65350341796875 37.23304748535156 C 174.38702392578125 45.94791030883789 170.6415557861328 46.60915756225586 163.0963134765625 50.560611724853516 C 155.16844177246094 47.312767028808594 151.9144287109375 47.67180252075195 150.87051391601562 38.18901824951172 C 153.34320068359375 33.283714294433594 161.3548126220703 31.99320411682129 163.09567260742188 30.439224243164062 C 166.71775817871094 32.018394470214844 170.88099670410156 34.95389175415039 171.65350341796875 37.23304748535156"/>
    <path stroke-width="0" fill="rgb(129, 109, 206)" opacity="-0.0023674865" stroke="rgb(0, 0, 0)" stroke-opacity="0.0" stroke-linecap="round" stroke-linejoin="round" d="M 399.0107421875 132.64395141601562 C 398.72857666015625 140.52523803710938 393.9065246582031 141.34840393066406 391.28680419921875 142.39781188964844 C 394.955810546875 137.22767639160156 391.6815490722656 133.50018310546875 390.0321044921875 133.25559997558594 C 384.75665283203125 135.4475860595703 389.11517333984375 129.04563903808594 398.2490539550781 121.49357604980469 C 403.3821716308594 126.56270599365234 405.8572998046875 124.4128646850586 399.0107421875 132.64395141601562"/>
    <path stroke-width="0" fill="rgb(206, 160, 230)" opacity="0.7487223" stroke="rgb(0, 0, 0)" stroke-opacity="0.0" stroke-linecap="round" stroke-linejoin="round" d="M -60.74114227294922 30.83562660217285 C -61.81293869018555 34.835628509521484 -64.74114227294922 37.763832092285156 -68.74114227294922 38.835628509521484 C -72.74114227294922 37.763832092285156 -75.66934967041016 34.835628509521484 -76.74114227294922 30.83562660217285 C -75.66934967041016 26.83562660217285 -72.74114227294922 23.907424926757812 -68.74114227294922 22.83562660217285 C -64.74114227294922 23.907424926757812 -61.81293869018555 26.83562660217285 -60.74114227294922 30.83562660217285"/>
    <path stroke-width="0" fill="rgb(136, 128, 225)" opacity="0.007928022" stroke="rgb(0, 0, 0)" stroke-opacity="0.0" stroke-linecap="round" stroke-linejoin="round" d="M 437.0344543457031 134.63809204101562 C 423.4515075683594 137.3743133544922 421.9625549316406 144.37506103515625 426.3914794921875 148.82046508789062 C 422.0709533691406 148.1176300048828 420.5134582519531 146.45278930664062 419.7900390625 142.3434295654297 C 424.9686584472656 143.15777587890625 429.995361328125 140.25595092773438 427.5943298339844 135.87112426757812 C 431.1676025390625 135.54742431640625 437.8809509277344 137.61331176757812 437.0344543457031 134.63809204101562"/>
    <path stroke-width="0" fill="rgb(38, 190, 210)" opacity="0.4680286" stroke="rgb(0, 0, 0)" stroke-opacity="0.0" stroke-linecap="round" stroke-linejoin="round" d="M 174.33619689941406 260.7579040527344 C 175.6648712158203 271.3434143066406 177.65020751953125 273.17059326171875 165.24412536621094 271.2292785644531 C 158.16709899902344 273.10888671875 159.14991760253906 270.86688232421875 162.0671844482422 262.2173156738281 C 160.06259155273438 242.15174865722656 157.849853515625 246.4932098388672 160.4214630126953 248.828369140625 C 176.92416381835938 247.87403869628906 177.0170135498047 247.20155334472656 174.33619689941406 260.7579040527344"/>
    <path stroke-width="0" fill="rgb(202, 194, 66)" opacity="0.18721299" stroke="rgb(0, 0, 0)" stroke-opacity="0.0" stroke-linecap="round" stroke-linejoin="round" d="M 496.6705017089844 492.2576904296875 C 493.7460632324219 490.2495422363281 491.3652038574219 495.6838684082031 485.2754821777344 499.01544189453125 C 477.8270263671875 500.4226989746094 473.0885009765625 495.67266845703125 484.5897216796875 497.5602111816406 C 490.74322509765625 494.71343994140625 491.7179260253906 488.90289306640625 497.73876953125 480.0430603027344 C 499.8045349121094 479.1268615722656 500.3408203125 487.7858581542969 496.6705017089844 492.2576904296875"/>
    <path stroke-width="0" fill="rgb(143, 103, 162)" opacity="0.28568077" stroke="rgb(0, 0, 0)" stroke-opacity="0.0" stroke-linecap="round" stroke-linejoin="round" d="M 520.5179443359375 416.75006103515625 C 515.4332275390625 426.4420166015625 511.56390380859375 426.73870849609375 501.2298583984375 423.11138916015625 C 499.16162109375 423.84320068359375 493.9593505859375 424.09130859375 491.8623352050781 422.0763244628906 C 507.7050476074219 424.7379150390625 505.24169921875 425.26177978515625 501.59027099609375 404.3605651855469 C 514.5422973632812 401.5312194824219 520.8572387695312 401.6700744628906 520.5179443359375 416.75006103515625"/>
    <path stroke-width="0" fill="rgb(146, 191, 133)" opacity="0.06849542" stroke="rgb(0, 0, 0)" stroke-opacity="0.0" stroke-linecap="round" stroke-linejoin="round" d="M 93.67950439453125 66.49684143066406 C 96.38481140136719 68.440185546875 91.65714263916016 67.97999572753906 89.91767120361328 67.98052215576172 C 88.68125915527344 67.90795135498047 85.61247253417969 65.4074935913086 87.93523406982422 60.7955436706543 C 88.4786605834961 55.55979919433594 84.95242309570312 51.97480773925781 86.86272430419922 52.93291091918945 C 98.7082290649414 54.96245574951172 97.62326049804688 56.540157318115234 93.67950439453125 66.49684143066406"/>
    <path stroke-width="0" fill="rgb(114, 105, 103)" opacity="0.90590537" stroke="rgb(0, 0, 0)" stroke-opacity="0.0" stroke-linecap="round" stroke-linejoin="round" d="M 448.50579833984375 430.6741638183594 C 447.76971435546875 436.29998779296875 448.2928466796875 439.3105163574219 439.6714172363281 437.4766540527344 C 433.9035949707031 443.3824768066406 434.0393981933594 438.00439453125 435.9614562988281 433.6427307128906 C 435.2982177734375 431.2994384765625 441.2772216796875 427.9721374511719 441.7319030761719 426.7782287597656 C 439.42718505859375 428.32708740234375 445.8034973144531 431.8526916503906 448.50579833984375 430.6741638183594"/>
    <path stroke-width="0" fill="rgb(83, 46, 102)" opacity="0.34099242" stroke="rgb(0, 0, 0)" stroke-opacity="0.0" stroke-linecap="round" stroke-linejoin="round" d="M 360.0099792480469 497.38275146484375 C 358.9696960449219 497.3110046386719 356.9253845214844 499.0625 353.0818176269531 497.3268127441406 C 348.6212463378906 503.1308898925781 350.5777893066406 502.3526306152344 355.3146667480469 496.7018127441406 C 354.77398681640625 492.7481994628906 352.48944091796875 491.6504821777344 346.5407409667969 494.19952392578125 C 355.999755859375 496.25201416015625 358.7149353027344 498.58056640625 360.0099792480469 497.38275146484375"/>
    <path stroke-width="0" fill="rgb(137, 26, 81)" opacity="0.24585758" stroke="rgb(0, 0, 0)" stroke-opacity="0.0" stroke-linecap="round" stroke-linejoin="round" d="M 318.2767028808594 104.6817626953125 C 312.40338134765625 108.74285888671875 314.4256591796875 113.66320037841797 319.95098876953125 107.04507446289062 C 308.4342346191406 107.57196807861328 302.7690734863281 110.0966796875 294.12469482421875 103.35409545898438 C 307.3976135253906 103.4382553100586 314.1260986328125 102.0779037475586 314.1636962890625 105.44725799560547 C 321.96392822265625 100.1990966796875 327.5588684082031 104.19003295898438 318.2767028808594 104.6817626953125"/>
    <path stroke-width="0" fill="rgb(147, 259, 158)" opacity="0.31848347" stroke="rgb(0, 0, 0)" stroke-opacity="0.0" stroke-linecap="round" stroke-linejoin="round" d="M 485.126953125 97.2284164428711 C 489.99224853515625 108.2562484741211 491.7531433105469 111.89369201660156 479.330322265625 111.9762191772461 C 466.4933166503906 106.24189758300781 463.3616027832031 100.3778076171875 468.64471435546875 84.6238784790039 C 477.6316223144531 103.64299774169922 473.743408203125 98.56995391845703 473.2121276855469 84.62614440917969 C 481.638427734375 83.46215057373047 481.8809814453125 89.8128662109375 485.126953125 97.2284164428711"/>
    <path stroke-width="0" fill="rgb(38, 13, 57)" opacity="0.4542323" stroke="rgb(0, 0, 0)" stroke-opacity="0.0" stroke-linecap="round" stroke-linejoin="round" d="M -27.041536331176758 30.428306579589844 C -28.113332748413086 34.428306579589844 -31.041536331176758 37.356510162353516 -35.041534423828125 38.428306579589844 C -39.041534423828125 37.356510162353516 -41.9697380065918 34.428306579589844 -43.041534423828125 30.428306579589844 C -41.9697380065918 26.428306579589844 -39.041534423828125 23.500104904174805 -35.041534423828125 22.428306579589844 C -31.041536331176758 23.500104904174805 -28.113332748413086 26.428306579589844 -27.041536331176758 30.428306579589844"/>
    <path stroke-width="0" fill="rgb(251, 118, 233)" opacity="0.33664012" stroke="rgb(0, 0, 0)" stroke-opacity="0.0" stroke-linecap="round" stroke-linejoin="round" d="M -70.7625961303711 47.9467658996582 C -71.83438873291016 51.9467658996582 -74.7625961303711 54.874969482421875 -78.7625961303711 55.9467658996582 C -82.7625961303711 54.874969482421875 -85.6907958984375 51.9467658996582 -86.7625961303711 47.9467658996582 C -85.6907958984375 43.9467658996582 -82.7625961303711 41.01856231689453 -78.7625961303711 39.9467658996582 C -74.7625961303711 41.01856231689453 -71.83438873291016 43.9467658996582 -70.7625961303711 47.9467658996582"/>
    <path stroke-width="0" fill="rgb(257, 279, 258)" opacity="0.14302504" stroke="rgb(0, 0, 0)" stroke-opacity="0.0" stroke-linecap="round" stroke-linejoin="round" d="M 208.59754943847656 304.73187255859375 C 207.63111877441406 304.3260498046875 202.38284301757812 307.5776062011719 204.7693634033203 309.1353454589844 C 201.86497497558594 309.6470947265625 192.7240447998047 309.2021789550781 190.52210998535156 310.2803039550781 C 196.6564178466797 303.84521484375 204.50604248046875 307.1820373535156 209.3345184326172 302.95989990234375 C 204.61697387695312 301.96563720703125 207.1477508544922 305.8177185058594 208.59754943847656 304.73187255859375"/>
    <path stroke-width="0" fill="rgb(153, 73, 179)" opacity="0.12154659" stroke="rgb(0, 0, 0)" stroke-opacity="0.0" stroke-linecap="round" stroke-linejoin="round" d="M 177.01235961914062 208.18397521972656 C 183.80880737304688 203.93409729003906 179.9767608642578 205.04405212402344 173.40077209472656 209.04385375976562 C 173.41908264160156 202.08946228027344 168.51966857910156 200.4478302001953 177.35543823242188 198.6786346435547 C 177.74977111816406 203.92251586914062 179.204345703125 201.14956665039062 183.4653778076172 199.9058380126953 C 181.52951049804688 204.0206298828125 180.9071502685547 199.59994506835938 177.01235961914062 208.18397521972656"/>
    <path stroke-width="0" fill="rgb(67, 224, 53)" opacity="0.08452281" stroke="rgb(0, 0, 0)" stroke-opacity="0.0" stroke-linecap="round" stroke-linejoin="round" d="M 164.44427490234375 61.6458625793457 C 167.73597717285156 60.142578125 166.84320068359375 56.71741485595703 162.7615203857422 58.231021881103516 C 163.0933380126953 62.42726135253906 161.85943603515625 60.775726318359375 160.3223114013672 61.89601516723633 C 159.8651123046875 61.08409118652344 160.12770080566406 58.308902740478516 159.70791625976562 51.29485321044922 C 163.5223388671875 49.23664855957031 163.05043029785156 55.97727966308594 164.44427490234375 61.6458625793457"/>
    <path stroke-width="0" fill="rgb(198, 150, 183)" opacity="0.25212088" stroke="rgb(0, 0, 0)" stroke-opacity="0.0" stroke-linecap="round" stroke-linejoin="round" d="M 426.6345520019531 386.5608825683594 C 423.6704406738281 393.7443542480469 423.09332275390625 393.5649108886719 421.37591552734375 390.98663330078125 C 413.66571044921875 389.8446350097656 409.4164123535156 389.976806640625 399.914794921875 385.9090576171875 C 403.05157470703125 387.64788818359375 412.50732421875 390.0972900390625 415.7820129394531 390.7591552734375 C 417.9261169433594 385.2186279296875 423.91009521484375 382.9544372558594 426.6345520019531 386.5608825683594"/>
    <path stroke-width="0" fill="rgb(27, 2, -4)" opacity="0.9109733" stroke="rgb(0, 0, 0)" stroke-opacity="0.0" stroke-linecap="round" stroke-linejoin="round" d="M 27.502052307128906 495.5665588378906 C 23.27075958251953 498.88018798828125 19.614749908447266 499.5322265625 18.592731475830078 510.0279235839844 C 24.271154403686523 503.94256591796875 16.772281646728516 501.79522705078125 15.81570816040039 493.4167785644531 C 14.007871627807617 484.7271423339844 7.353849411010742 489.9282531738281 20.07284164428711 488.16485595703125 C 29.185565948486328 489.31793212890625 28.01957893371582 487.1516418457031 27.502052307128906 495.5665588378906"/>
    <path stroke-width="0" fill="rgb(194, 192, 40)" opacity="0.5222519" stroke="rgb(0, 0, 0)" stroke-opacity="0.0" stroke-linecap="round" stroke-linejoin="round" d="M 14.924894332885742 7.811404705047607 C 15.687228202819824 5.711355209350586 17.969274520874023 7.363684177398682 1.7862659692764282 8.426383972167969 C 6.7616190910339355 7.541446685791016 2.911397933959961 8.03994369506836 -2.5963826179504395 7.645386695861816 C 2.400588274002075 1.9043633937835693 6.972659587860107 -0.005272628273814917 6.949794292449951 -5.586202144622803 C 9.624824523925781 -1.0561884641647339 12.697606086730957 3.2452237606048584 14.924894332885742 7.811404705047607"/>
    <path stroke-width="0" fill="rgb(112, 213, 196)" opacity="-0.059140094" stroke="rgb(0, 0, 0)" stroke-opacity="0.0" stroke-linecap="round" stroke-linejoin="round" d="M 6.242573261260986 -2.3159189224243164 C 5.854848384857178 1.5237441062927246 2.9013724327087402 5.625151634216309 -1.2203431129455566 7.287095546722412 C -1.8734056949615479 4.768918037414551 -5.576783180236816 3.232907295227051 -6.835995197296143 -0.289877712726593 C -5.775409698486328 -4.253812313079834 -2.8472065925598145 -7.182015895843506 1.1527934074401855 -8.253812789916992 C 5.1527323722839355 -7.181992530822754 8.076669692993164 -4.252244472503662 6.242573261260986 -2.3159189224243164"/>
    <path stroke-width="0" fill="rgb(42, 64, 100)" opacity="0.040626835" stroke="rgb(0, 0, 0)" stroke-opacity="0.0" stroke-linecap="round" stroke-linejoin="round" d="M 15.270241737365723 92.94009399414062 C 8.757375717163086 103.05735778808594 11.678572654724121 95.50697326660156 10.99527359008789 96.47547149658203 C -2.6922552585601807 96.32157135009766 -8.225003242492676 94.19517517089844 5.107617378234863 93.9630126953125 C 0.160394087433815 88.66813659667969 1.3866831064224243 85.60674285888672 8.816753387451172 92.13231658935547 C 15.042807579040527 87.93492126464844 16.543048858642578 86.57727813720703 15.270241737365723 92.94009399414062"/>
    <path stroke-width="0" fill="rgb(85, 121, 26)" opacity="0.29934135" stroke="rgb(0, 0, 0)" stroke-opacity="0.0" stroke-linecap="round" stroke-linejoin="round" d="M 55.17477035522461 394.3736267089844 C 53.34791946411133 399.5099182128906 58.17542266845703 400.0466613769531 51.10172653198242 399.10137939453125 C 54.793338775634766 388.5107421875 57.53803253173828 386.18499755859375 44.61060333251953 387.3946838378906 C 37.203392028808594 383.5426330566406 41.336875915527344 381.1235046386719 55.052635192871094 384.4023132324219 C 52.56765365600586 375.8048095703125 55.30739974975586 377.0483703613281 55.17477035522461 394.3736267089844"/>
  </g>
</svg>
