<?xml version="1.0" ?>
<svg xmlns="http://www.w3.org/2000/svg" version="1.1" width="512" height="512">
  <defs/>
  <g>
    <path stroke-width="0" fill="rgb(-30, -34, 28)" opacity="1.1607249" stroke="rgb(139, 182, 153)" stroke-opacity="1.0" stroke-linecap="round" stroke-linejoin="round" d="M 575.6080932617188 161.0610809326172 C 472.29583740234375 155.6901397705078 255.24826049804688 160.40234375 21.525985717773438 158.6508026123047 C 149.9614715576172 41.40039825439453 217.20492553710938 78.77104187011719 174.48895263671875 -25.099302291870117 C 185.01902770996094 -33.60383224487305 197.35633850097656 -35.491127014160156 255.7966766357422 -34.27626037597656 C 358.9615173339844 -48.56626510620117 437.43609619140625 -146.64276123046875 575.6080932617188 161.0610809326172"/>
    <path stroke-width="0" fill="rgb(32, 54, 42)" opacity="0.6090102" stroke="rgb(108, 164, 111)" stroke-opacity="1.0" stroke-linecap="round" stroke-linejoin="round" d="M 317.6418151855469 712.2930297851562 C -124.75331115722656 747.3025512695312 7.050793170928955 368.95208740234375 43.5067138671875 83.91987609863281 C 293.0481872558594 122.73342895507812 289.8204040527344 118.47431945800781 280.1459045410156 40.89720916748047 C 284.2266845703125 -66.92325592041016 317.0650329589844 -46.443145751953125 442.3717346191406 -36.365211486816406 C 639.143310546875 -2.5854287147521973 854.1314086914062 240.14646911621094 317.6418151855469 712.2930297851562"/>
    <path stroke-width="0" fill="rgb(72, 106, 67)" opacity="1.0465094" stroke="rgb(245, 97, 201)" stroke-opacity="1.0" stroke-linecap="round" stroke-linejoin="round" d="M 363.4642028808594 88.78236389160156 C 332.3909912109375 105.58035278320312 323.168701171875 109.92387390136719 88.47693634033203 106.87052917480469 C 110.6676025390625 103.6150894165039 112.05255126953125 111.51028442382812 120.72222900390625 67.0373764038086 C 135.6087188720703 -33.50758361816406 141.19656372070312 -41.69476318359375 171.80145263671875 -45.71983337402344 C 292.85205078125 -29.190927505493164 317.5135498046875 -36.24587631225586 363.4642028808594 88.78236389160156"/>
    <path stroke-width="0" fill="rgb(3, 6, 15)" opacity="1.0139645" stroke="rgb(144, 236, 18)" stroke-opacity="1.0" stroke-linecap="round" stroke-linejoin="round" d="M 257.3230285644531 83.5904769897461 C 200.51266479492188 104.95685577392578 295.7901611328125 69.1763916015625 532.6803588867188 142.43260192871094 C 130.1888885498047 147.7972412109375 18.875513076782227 92.32295989990234 -29.688739776611328 239.70492553710938 C -45.53935623168945 -103.79988098144531 -12.785496711730957 -54.71656799316406 149.3696746826172 -35.1368408203125 C 205.52847290039062 -44.208988189697266 223.1151580810547 -50.75465393066406 257.3230285644531 83.5904769897461"/>
    <path stroke-width="0" fill="rgb(260, 260, 261)" opacity="1.0319456" stroke="rgb(5, 212, 198)" stroke-opacity="1.0" stroke-linecap="round" stroke-linejoin="round" d="M 494.4895324707031 243.05667114257812 C 468.0191650390625 178.93722534179688 268.4490051269531 188.19085693359375 292.5103759765625 218.23736572265625 C 193.58145141601562 181.10255432128906 153.54754638671875 186.442626953125 128.8953094482422 158.974853515625 C 82.04734802246094 158.14956665039062 85.15864562988281 158.1006317138672 496.4593505859375 158.31869506835938 C 494.13336181640625 158.71104431152344 494.4008483886719 138.52694702148438 494.4895324707031 243.05667114257812"/>
    <path stroke-width="0" fill="rgb(224, 231, 234)" opacity="0.651057" stroke="rgb(30, 163, 36)" stroke-opacity="1.0" stroke-linecap="round" stroke-linejoin="round" d="M 636.7587890625 412.207275390625 C 457.4173889160156 442.0784912109375 159.75262451171875 407.5288391113281 154.2032012939453 425.66339111328125 C 283.7193908691406 423.5517578125 324.50616455078125 424.73236083984375 -32.105743408203125 426.8463439941406 C 199.95603942871094 396.70855712890625 233.23890686035156 425.8241882324219 55.93584060668945 412.2044982910156 C 131.9178924560547 416.3969421386719 305.7802734375 400.8233642578125 636.7587890625 412.207275390625"/>
    <path stroke-width="0" fill="rgb(238, 245, 243)" opacity="0.85145557" stroke="rgb(133, 105, 67)" stroke-opacity="1.0" stroke-linecap="round" stroke-linejoin="round" d="M 574.0830688476562 380.3103332519531 C 752.2783203125 403.39306640625 595.7874145507812 397.52374267578125 62.29948425292969 399.3950500488281 C 180.73924255371094 390.8083801269531 -87.75373077392578 412.7088928222656 -64.2607650756836 379.8444519042969 C 520.2911376953125 379.79150390625 496.9920654296875 379.0843505859375 446.2907409667969 377.4882507324219 C 394.2410888671875 379.1699523925781 406.7449035644531 376.6490783691406 574.0830688476562 380.3103332519531"/>
    <path stroke-width="0" fill="rgb(235, 237, 233)" opacity="0.9513112" stroke="rgb(116, 144, 4)" stroke-opacity="1.0" stroke-linecap="round" stroke-linejoin="round" d="M 596.0332641601562 424.0203552246094 C -78.62094116210938 422.76007080078125 25.176197052001953 424.4546813964844 80.13629913330078 426.4499206542969 C 223.30787658691406 414.3879699707031 -63.80914306640625 444.8503112792969 -80.28169250488281 408.66717529296875 C 79.40120697021484 409.6408996582031 250.8616943359375 408.3041687011719 309.0538330078125 407.9781494140625 C 130.82705688476562 422.4701232910156 224.6989288330078 392.345458984375 596.0332641601562 424.0203552246094"/>
    <path stroke-width="0" fill="rgb(264, 265, 263)" opacity="1.0089319" stroke="rgb(156, 157, 240)" stroke-opacity="1.0" stroke-linecap="round" stroke-linejoin="round" d="M 497.0614013671875 278.01239013671875 C 462.4593811035156 303.1112060546875 618.2940063476562 294.29644775390625 -39.770870208740234 298.7121887207031 C -88.76055145263672 263.87200927734375 -96.64466094970703 272.0868225097656 257.4062194824219 271.7572021484375 C 270.8797302246094 272.57598876953125 257.51837158203125 130.2832489013672 280.64105224609375 167.2285919189453 C 321.083251953125 313.93218994140625 206.83590698242188 253.2677764892578 497.0614013671875 278.01239013671875"/>
    <path stroke-width="0" fill="rgb(235, 236, 233)" opacity="1.0128264" stroke="rgb(91, 111, 177)" stroke-opacity="1.0" stroke-linecap="round" stroke-linejoin="round" d="M 594.2954711914062 409.3974304199219 C 472.77044677734375 453.77978515625 260.515380859375 376.1932678222656 169.71224975585938 425.6816711425781 C 251.2373046875 413.4241943359375 241.5998992919922 421.75616455078125 212.88006591796875 414.10467529296875 C 258.9344177246094 419.583740234375 279.1346435546875 440.6273193359375 149.25247192382812 408.3822326660156 C 180.4630889892578 419.4790344238281 480.4076843261719 402.7106628417969 594.2954711914062 409.3974304199219"/>
    <path stroke-width="0" fill="rgb(262, 264, 263)" opacity="0.9918372" stroke="rgb(170, 171, 53)" stroke-opacity="1.0" stroke-linecap="round" stroke-linejoin="round" d="M 491.1530456542969 164.40243530273438 C 282.9911193847656 215.74057006835938 747.427978515625 201.21713256835938 17.49764060974121 204.0115966796875 C 33.5093994140625 211.2884521484375 -57.5413932800293 217.10484313964844 -50.957393646240234 157.2416534423828 C 118.06405639648438 158.31626892089844 190.5413818359375 157.77000427246094 230.8563995361328 160.6199493408203 C 134.4842529296875 161.54856872558594 193.56307983398438 155.78860473632812 491.1530456542969 164.40243530273438"/>
    <path stroke-width="0" fill="rgb(116, 132, 110)" opacity="1.0085136" stroke="rgb(80, 92, 145)" stroke-opacity="1.0" stroke-linecap="round" stroke-linejoin="round" d="M 524.4204711914062 97.18400573730469 C 444.14459228515625 64.10338592529297 512.7386474609375 73.48993682861328 440.2059326171875 63.682281494140625 C 318.88836669921875 72.38327026367188 352.5153503417969 45.94612121582031 360.0201110839844 1.4599920511245728 C 356.93157958984375 -22.195377349853516 361.8376770019531 -30.03414535522461 367.25006103515625 -26.954444885253906 C 380.68035888671875 57.279136657714844 497.6861877441406 -8.640893936157227 524.4204711914062 97.18400573730469"/>
    <path stroke-width="0" fill="rgb(252, 258, 260)" opacity="1.0134392" stroke="rgb(252, 26, 53)" stroke-opacity="1.0" stroke-linecap="round" stroke-linejoin="round" d="M 451.3236389160156 39.876766204833984 C 401.5438232421875 52.55659484863281 356.8370361328125 70.50516510009766 353.5140075683594 72.19583129882812 C 395.8504333496094 125.92857360839844 335.494873046875 85.55105590820312 312.0796813964844 30.30763816833496 C 325.76513671875 16.996780395507812 339.95184326171875 13.604376792907715 416.5794982910156 0.0883316621184349 C 413.7008056640625 17.21251678466797 448.2845458984375 4.846803188323975 451.3236389160156 39.876766204833984"/>
    <path stroke-width="0" fill="rgb(3, 6, -3)" opacity="0.9610601" stroke="rgb(166, 64, 118)" stroke-opacity="1.0" stroke-linecap="round" stroke-linejoin="round" d="M 130.5271759033203 398.3373718261719 C 234.2424774169922 398.5817565917969 121.11089324951172 399.0159912109375 -79.02387237548828 399.3497009277344 C 13.674357414245605 408.6343994140625 -48.077659606933594 406.9896545410156 76.43009185791016 407.52545166015625 C 109.87202453613281 407.8096008300781 134.0838165283203 408.16204833984375 253.70924377441406 406.8665466308594 C 72.42608642578125 392.96923828125 89.43132781982422 396.56805419921875 130.5271759033203 398.3373718261719"/>
    <path stroke-width="0" fill="rgb(112, 87, 116)" opacity="0.9571745" stroke="rgb(40, 28, 167)" stroke-opacity="1.0" stroke-linecap="round" stroke-linejoin="round" d="M 418.3301086425781 -31.788970947265625 C 433.5879821777344 24.405780792236328 454.2618408203125 65.81848907470703 441.7650146484375 4.774480819702148 C 386.6120300292969 -19.347545623779297 374.3532409667969 -16.451204299926758 312.05523681640625 -19.660741806030273 C 315.1639404296875 -29.508440017700195 323.5223083496094 -35.45821762084961 394.3455505371094 -33.86525344848633 C 406.1054382324219 -37.010616302490234 415.6422424316406 -32.56230163574219 418.3301086425781 -31.788970947265625"/>
    <path stroke-width="0" fill="rgb(239, 256, 255)" opacity="0.9649885" stroke="rgb(50, 94, 209)" stroke-opacity="1.0" stroke-linecap="round" stroke-linejoin="round" d="M 491.280517578125 96.41883087158203 C 396.2911682128906 93.2564697265625 362.9229736328125 95.72725677490234 340.2869567871094 92.67412567138672 C 407.1181945800781 97.33287048339844 384.03143310546875 103.34982299804688 201.04942321777344 100.96466064453125 C 405.451171875 83.75972747802734 361.5034484863281 103.02293395996094 380.0974426269531 82.91820526123047 C 372.2120666503906 72.62992858886719 509.6253356933594 59.04820251464844 491.280517578125 96.41883087158203"/>
    <path stroke-width="0" fill="rgb(123, 126, 114)" opacity="1.0020622" stroke="rgb(213, 24, 248)" stroke-opacity="1.0" stroke-linecap="round" stroke-linejoin="round" d="M 469.4384460449219 33.816749572753906 C 461.3070983886719 55.338741302490234 429.0873718261719 58.75648498535156 333.25958251953125 87.76666259765625 C 281.9143371582031 90.22835540771484 219.41224670410156 77.5582504272461 -86.9115982055664 87.88990020751953 C -40.06278991699219 -346.3504638671875 68.1061782836914 -207.80335998535156 423.0219421386719 -84.76795196533203 C 469.86212158203125 -57.71164321899414 486.6203918457031 -61.31787872314453 469.4384460449219 33.816749572753906"/>
    <path stroke-width="0" fill="rgb(268, 260, 276)" opacity="0.9910732" stroke="rgb(249, 154, 188)" stroke-opacity="1.0" stroke-linecap="round" stroke-linejoin="round" d="M -17.969860076904297 80.20524597167969 C 324.8343200683594 83.12913513183594 250.03384399414062 73.76045989990234 -48.407535552978516 100.0549545288086 C 203.33087158203125 101.65776824951172 171.87449645996094 98.26648712158203 127.62318420410156 105.016357421875 C 158.46871948242188 99.43756866455078 215.19863891601562 113.06166076660156 361.0716247558594 81.22718048095703 C 25.10017204284668 73.63777923583984 110.96758270263672 114.00861358642578 -17.969860076904297 80.20524597167969"/>
    <path stroke-width="0" fill="rgb(125, 124, 117)" opacity="0.82756567" stroke="rgb(72, 30, 75)" stroke-opacity="1.0" stroke-linecap="round" stroke-linejoin="round" d="M 270.1559753417969 51.26740646362305 C 298.1532897949219 77.29242706298828 377.6736755371094 82.05701446533203 274.5514221191406 66.7406005859375 C 219.6205291748047 78.27592468261719 203.34315490722656 85.94474029541016 198.96151733398438 -3.026733636856079 C 262.51806640625 -37.65595626831055 279.69085693359375 -34.56483840942383 302.1025390625 -31.059484481811523 C 374.3966369628906 -23.90351676940918 377.11572265625 -13.689723014831543 270.1559753417969 51.26740646362305"/>
    <path stroke-width="0" fill="rgb(222, 237, 238)" opacity="0.84076697" stroke="rgb(81, 105, 16)" stroke-opacity="1.0" stroke-linecap="round" stroke-linejoin="round" d="M 549.4596557617188 73.88683319091797 C 546.9356689453125 103.32501220703125 533.772705078125 109.36691284179688 519.9115600585938 57.707984924316406 C 414.2431945800781 53.4433708190918 451.05279541015625 65.8614730834961 463.8169860839844 39.98835754394531 C 366.3689880371094 41.531982421875 414.3291931152344 -19.137271881103516 385.2140808105469 -20.54144859313965 C 414.2622985839844 87.62865447998047 489.786376953125 -1.0679889917373657 549.4596557617188 73.88683319091797"/>
    <path stroke-width="0" fill="rgb(-1, -2, -2)" opacity="0.84846884" stroke="rgb(144, 67, 133)" stroke-opacity="1.0" stroke-linecap="round" stroke-linejoin="round" d="M 133.0314483642578 407.2983703613281 C 123.00237274169922 397.7380676269531 102.22766876220703 417.2720947265625 -64.21739959716797 398.22271728515625 C 218.22378540039062 398.4140930175781 295.54925537109375 397.89141845703125 266.34771728515625 400.8302001953125 C 144.90211486816406 405.8073425292969 169.03428649902344 395.58184814453125 252.8815155029297 407.43585205078125 C 108.87583923339844 407.23486328125 118.96593475341797 404.2153625488281 133.0314483642578 407.2983703613281"/>
    <path stroke-width="0" fill="rgb(268, 267, 261)" opacity="1.0651435" stroke="rgb(146, 236, 81)" stroke-opacity="1.0" stroke-linecap="round" stroke-linejoin="round" d="M 437.99560546875 185.8796844482422 C 437.6656799316406 221.66273498535156 437.66314697265625 295.71240234375 435.8499755859375 284.0173034667969 C 376.2145690917969 309.9515075683594 425.66375732421875 244.7566680908203 412.4961853027344 263.2685241699219 C 423.5623474121094 140.6106414794922 388.2716064453125 254.05667114257812 440.4935607910156 174.256103515625 C 443.2749938964844 200.4027557373047 441.3410339355469 248.1439971923828 437.99560546875 185.8796844482422"/>
    <path stroke-width="0" fill="rgb(-7, -2, -5)" opacity="1.004429" stroke="rgb(33, 182, 73)" stroke-opacity="1.0" stroke-linecap="round" stroke-linejoin="round" d="M 304.1307373046875 399.5204162597656 C 248.30641174316406 398.1528625488281 260.9007568359375 399.94476318359375 668.9683837890625 397.0616760253906 C 542.794189453125 416.93115234375 283.3512878417969 400.14996337890625 282.4224853515625 410.2264404296875 C 324.4872741699219 395.23345947265625 325.83502197265625 399.6869812011719 103.43893432617188 399.19073486328125 C 280.59539794921875 409.9322814941406 299.1904602050781 410.8758544921875 304.1307373046875 399.5204162597656"/>
    <path stroke-width="0" fill="rgb(174, 178, 162)" opacity="0.65926373" stroke="rgb(149, 5, 211)" stroke-opacity="1.0" stroke-linecap="round" stroke-linejoin="round" d="M 521.7937622070312 301.2135925292969 C 494.552978515625 306.4812927246094 489.3209228515625 293.89227294921875 502.34759521484375 47.07681655883789 C 441.17626953125 2.8591718673706055 469.7843933105469 103.4649887084961 488.37982177734375 -57.45364761352539 C 423.89288330078125 -32.06654739379883 433.3778381347656 -36.32387161254883 469.7552490234375 -42.66332244873047 C 555.4288330078125 -45.57939910888672 543.9959106445312 -55.355979919433594 521.7937622070312 301.2135925292969"/>
    <path stroke-width="0" fill="rgb(257, 256, 255)" opacity="1.0292594" stroke="rgb(172, 68, 187)" stroke-opacity="1.0" stroke-linecap="round" stroke-linejoin="round" d="M 256.3060607910156 115.97990417480469 C 241.20433044433594 128.11216735839844 289.9143981933594 121.73963928222656 264.6029968261719 130.56735229492188 C 291.3047180175781 118.45933532714844 268.32110595703125 137.41671752929688 19.872089385986328 110.60446166992188 C 634.6566772460938 110.06367492675781 609.7091674804688 108.9961929321289 517.0457763671875 138.1793670654297 C 434.7865905761719 115.6096420288086 225.5556640625 137.73306274414062 256.3060607910156 115.97990417480469"/>
    <path stroke-width="0" fill="rgb(-3, 3, 13)" opacity="1.0282393" stroke="rgb(63, 146, 150)" stroke-opacity="1.0" stroke-linecap="round" stroke-linejoin="round" d="M 383.72357177734375 107.04585266113281 C -7.585421562194824 103.30003356933594 32.49070739746094 101.82757568359375 467.9030456542969 99.12500762939453 C 145.41796875 89.89037322998047 -153.44357299804688 98.54923248291016 202.32447814941406 93.6203384399414 C 178.08731079101562 93.72372436523438 2.9528310298919678 100.47203063964844 -87.55591583251953 83.92621612548828 C 545.529296875 86.05818939208984 274.69366455078125 76.44774627685547 383.72357177734375 107.04585266113281"/>
    <path stroke-width="0" fill="rgb(264, 263, 265)" opacity="1.0100092" stroke="rgb(56, 242, 114)" stroke-opacity="1.0" stroke-linecap="round" stroke-linejoin="round" d="M -15.162819862365723 135.84127807617188 C -132.43423461914062 143.73883056640625 -14.290841102600098 134.35409545898438 708.7116088867188 141.5049591064453 C 656.1199340820312 123.79340362548828 389.28851318359375 129.9174041748047 19.872278213500977 128.4507293701172 C -72.63113403320312 133.87442016601562 -155.58126831054688 86.92133331298828 251.39141845703125 126.6601791381836 C -40.47551727294922 128.89077758789062 -93.76448059082031 121.77913665771484 -15.162819862365723 135.84127807617188"/>
    <path stroke-width="0" fill="rgb(36, 37, 31)" opacity="0.9274291" stroke="rgb(178, 75, 207)" stroke-opacity="1.0" stroke-linecap="round" stroke-linejoin="round" d="M 187.58334350585938 322.9703674316406 C 114.22248077392578 311.0534973144531 127.78963470458984 293.9728088378906 247.58314514160156 307.10821533203125 C 190.38137817382812 329.54705810546875 110.0955810546875 327.4302978515625 36.521995544433594 321.86419677734375 C 157.9392852783203 311.26202392578125 185.67788696289062 321.1957702636719 118.992431640625 319.6671142578125 C 133.4597625732422 325.47509765625 148.2307586669922 306.7631530761719 187.58334350585938 322.9703674316406"/>
    <path stroke-width="0" fill="rgb(250, 277, 277)" opacity="1.1243116" stroke="rgb(224, 148, 224)" stroke-opacity="1.0" stroke-linecap="round" stroke-linejoin="round" d="M 482.75482177734375 309.3937072753906 C 483.6600036621094 252.97161865234375 485.8756103515625 275.5613708496094 483.0258483886719 283.347412109375 C 477.0873107910156 271.6814270019531 490.23529052734375 233.82391357421875 472.8300476074219 182.63079833984375 C 478.0253601074219 239.29248046875 473.4677429199219 220.9266815185547 489.9556579589844 205.47647094726562 C 492.2684020996094 254.26687622070312 494.9076843261719 342.0719909667969 482.75482177734375 309.3937072753906"/>
    <path stroke-width="0" fill="rgb(48, 16, 39)" opacity="0.84212184" stroke="rgb(184, 127, 243)" stroke-opacity="1.0" stroke-linecap="round" stroke-linejoin="round" d="M 107.94727325439453 323.1297302246094 C -26.47995948791504 329.4256591796875 -39.003135681152344 314.9422912597656 0.3052480220794678 357.9936218261719 C 15.889992713928223 285.48626708984375 -1.1946841478347778 353.1986999511719 -63.488548278808594 325.0044860839844 C 33.3375358581543 312.6707763671875 63.735198974609375 311.72161865234375 82.02833557128906 316.8290710449219 C 25.75837516784668 304.36932373046875 47.4371223449707 289.86053466796875 107.94727325439453 323.1297302246094"/>
    <path stroke-width="0" fill="rgb(-6, 20, 25)" opacity="1.0253305" stroke="rgb(108, 154, 4)" stroke-opacity="1.0" stroke-linecap="round" stroke-linejoin="round" d="M 193.1840362548828 311.2208251953125 C 282.5910949707031 334.5837097167969 182.25863647460938 303.1404724121094 283.9624938964844 330.4353332519531 C 54.56731414794922 328.2749328613281 -20.008403778076172 336.3607482910156 177.0706329345703 312.7157287597656 C 185.76243591308594 303.40106201171875 185.9196014404297 301.9224548339844 166.11227416992188 312.11798095703125 C 190.68463134765625 323.0093078613281 193.45880126953125 321.75238037109375 193.1840362548828 311.2208251953125"/>
    <path stroke-width="0" fill="rgb(52, 31, 44)" opacity="0.9361684" stroke="rgb(168, 73, 157)" stroke-opacity="1.0" stroke-linecap="round" stroke-linejoin="round" d="M 288.1668395996094 327.2447204589844 C 164.7021942138672 314.9012756347656 138.517578125 323.7778015136719 412.14752197265625 297.23590087890625 C 363.8035583496094 298.20068359375 117.56758880615234 299.1723937988281 -101.88115692138672 298.7977600097656 C 165.39773559570312 363.0322570800781 218.13552856445312 277.84747314453125 180.99301147460938 320.54913330078125 C 183.1416015625 321.6053771972656 218.39273071289062 298.70318603515625 288.1668395996094 327.2447204589844"/>
    <path stroke-width="0" fill="rgb(13, 11, 16)" opacity="0.7059469" stroke="rgb(34, 76, 145)" stroke-opacity="1.0" stroke-linecap="round" stroke-linejoin="round" d="M 224.60467529296875 319.3080139160156 C 172.4439697265625 302.5791015625 161.33245849609375 290.0873107910156 114.90630340576172 325.3311462402344 C 142.0504150390625 326.3070068359375 138.35585021972656 296.0272216796875 197.83079528808594 323.22772216796875 C 211.4191131591797 322.47314453125 222.8457489013672 324.50726318359375 197.15740966796875 313.98199462890625 C 172.1873321533203 321.9551086425781 180.91989135742188 325.8780822753906 224.60467529296875 319.3080139160156"/>
    <path stroke-width="0" fill="rgb(-7, 2, 9)" opacity="1.0447605" stroke="rgb(146, 166, 166)" stroke-opacity="1.0" stroke-linecap="round" stroke-linejoin="round" d="M 471.8827819824219 320.2183837890625 C 394.2298278808594 294.92547607421875 299.87841796875 318.97515869140625 179.394287109375 322.9501037597656 C 345.4630432128906 332.5152282714844 335.57147216796875 323.4784851074219 311.2996520996094 335.8526306152344 C 304.7969665527344 329.8126220703125 293.6998291015625 313.5632629394531 312.69793701171875 341.2582702636719 C 317.50177001953125 339.70098876953125 311.9816589355469 321.6888427734375 471.8827819824219 320.2183837890625"/>
    <path stroke-width="0" fill="rgb(180, 195, 188)" opacity="0.824056" stroke="rgb(228, 93, 111)" stroke-opacity="1.0" stroke-linecap="round" stroke-linejoin="round" d="M 341.198486328125 357.6798095703125 C 400.5193786621094 359.12841796875 292.3434753417969 364.7179870605469 304.7239074707031 355.69940185546875 C 329.80279541015625 346.71319580078125 264.3871154785156 344.3138427734375 277.1531066894531 357.1316223144531 C 266.8533935546875 314.18829345703125 281.8484191894531 331.6153564453125 291.36077880859375 330.3133239746094 C 347.7288513183594 334.2947082519531 312.0549011230469 320.1997985839844 341.198486328125 357.6798095703125"/>
    <path stroke-width="0" fill="rgb(-2, 9, 24)" opacity="1.0228063" stroke="rgb(205, 179, 25)" stroke-opacity="1.0" stroke-linecap="round" stroke-linejoin="round" d="M 461.4869384765625 327.718505859375 C 616.3778076171875 329.1290588378906 546.3550415039062 323.3158874511719 501.90264892578125 322.9678955078125 C 422.46441650390625 350.2914733886719 411.1288757324219 287.142578125 436.1233215332031 309.9009094238281 C 514.4187622070312 307.4795227050781 506.5713195800781 284.2762756347656 534.0037841796875 293.2181701660156 C 463.62957763671875 293.75537109375 537.8375854492188 318.5567932128906 461.4869384765625 327.718505859375"/>
    <path stroke-width="0" fill="rgb(51, 93, 89)" opacity="1.0092182" stroke="rgb(182, 254, 38)" stroke-opacity="1.0" stroke-linecap="round" stroke-linejoin="round" d="M 477.80810546875 176.56788635253906 C 496.0259704589844 213.01229858398438 448.9609375 206.41644287109375 524.9083862304688 209.92185974121094 C 486.31341552734375 214.5689239501953 512.7005004882812 201.99740600585938 488.6523132324219 206.9799041748047 C 499.3309326171875 208.1281280517578 516.1522827148438 208.06068420410156 437.9382019042969 209.4995880126953 C 456.1211242675781 301.7410583496094 487.6379699707031 302.86517333984375 477.80810546875 176.56788635253906"/>
    <path stroke-width="0" fill="rgb(3, 12, 5)" opacity="0.5342435" stroke="rgb(41, 156, 31)" stroke-opacity="1.0" stroke-linecap="round" stroke-linejoin="round" d="M 10.966829299926758 269.1438903808594 C 31.08363914489746 177.9427032470703 -56.978675842285156 208.5487060546875 261.9829406738281 204.88955688476562 C 185.76272583007812 227.5643310546875 19.649658203125 172.5833740234375 50.288063049316406 273.2076721191406 C 50.35371398925781 233.2410430908203 30.73565101623535 225.3240509033203 104.77799987792969 209.5403289794922 C -20.54180145263672 215.27076721191406 45.99257278442383 188.40765380859375 10.966829299926758 269.1438903808594"/>
    <path stroke-width="0" fill="rgb(-2, 7, 21)" opacity="0.5998706" stroke="rgb(205, 145, 103)" stroke-opacity="1.0" stroke-linecap="round" stroke-linejoin="round" d="M 325.749267578125 319.56463623046875 C 429.6488952636719 307.01751708984375 367.37847900390625 330.30340576171875 349.0643310546875 329.20257568359375 C 301.5399475097656 330.04644775390625 229.2361602783203 333.65692138671875 129.17974853515625 313.6253662109375 C -67.25958251953125 299.5769348144531 91.18000793457031 303.4637145996094 484.7945556640625 296.9619140625 C 333.43621826171875 320.68701171875 312.25775146484375 279.459716796875 325.749267578125 319.56463623046875"/>
    <path stroke-width="0" fill="rgb(-7, -12, -14)" opacity="0.8716782" stroke="rgb(177, 115, 184)" stroke-opacity="1.0" stroke-linecap="round" stroke-linejoin="round" d="M 428.94830322265625 351.95758056640625 C 629.7327270507812 351.7430114746094 668.6812744140625 353.11822509765625 547.3919677734375 379.9258728027344 C 95.13094329833984 378.6554870605469 -17.48809051513672 388.8516845703125 346.5750732421875 352.0999755859375 C 421.652099609375 360.76214599609375 372.2279357910156 338.2804260253906 378.8217468261719 349.17706298828125 C 310.010009765625 327.9473571777344 519.7792358398438 326.4930419921875 428.94830322265625 351.95758056640625"/>
    <path stroke-width="0" fill="rgb(50, 41, 47)" opacity="1.068557" stroke="rgb(248, 218, 2)" stroke-opacity="1.0" stroke-linecap="round" stroke-linejoin="round" d="M -51.812904357910156 505.70318603515625 C 476.65045166015625 510.0869140625 500.68927001953125 496.6076965332031 50.53135681152344 497.8951110839844 C 61.800804138183594 449.85675048828125 57.560546875 479.0951232910156 -30.321931838989258 468.6318664550781 C 64.6375732421875 463.3616638183594 66.20831298828125 470.4266662597656 55.27055358886719 468.9911193847656 C 50.34326171875 522.4618530273438 84.47589111328125 485.9193420410156 -51.812904357910156 505.70318603515625"/>
    <path stroke-width="0" fill="rgb(37, 33, 26)" opacity="1.0238463" stroke="rgb(186, 43, 132)" stroke-opacity="1.0" stroke-linecap="round" stroke-linejoin="round" d="M 325.3851013183594 372.0739440917969 C 307.2670593261719 321.11798095703125 320.7109069824219 368.1031494140625 12.108392715454102 359.8853454589844 C 402.500732421875 358.0921936035156 390.0440673828125 354.29766845703125 195.62197875976562 359.1035461425781 C 337.2623596191406 344.4443664550781 206.27529907226562 358.53363037109375 -208.872802734375 345.75946044921875 C -50.07633590698242 378.1385192871094 -30.112667083740234 360.023681640625 325.3851013183594 372.0739440917969"/>
    <path stroke-width="0" fill="rgb(13, 41, 19)" opacity="0.5732426" stroke="rgb(50, 4, 202)" stroke-opacity="1.0" stroke-linecap="round" stroke-linejoin="round" d="M 460.33587646484375 204.5960235595703 C 483.99810791015625 335.9107360839844 460.0069580078125 203.57749938964844 459.92230224609375 206.9315948486328 C 461.5694885253906 203.4478759765625 457.2773742675781 260.7445983886719 464.847900390625 223.4580078125 C 447.20330810546875 316.734619140625 476.33050537109375 257.7052917480469 486.5031433105469 245.19607543945312 C 450.18963623046875 299.0476989746094 467.5208435058594 276.478515625 460.33587646484375 204.5960235595703"/>
    <path stroke-width="0" fill="rgb(16, -17, 0)" opacity="0.92898065" stroke="rgb(88, 236, 179)" stroke-opacity="1.0" stroke-linecap="round" stroke-linejoin="round" d="M 495.6794738769531 141.1077423095703 C 492.406982421875 153.24427795410156 492.1658020019531 304.95220947265625 491.8579406738281 320.67376708984375 C 477.4922790527344 230.43238830566406 474.5900573730469 245.86253356933594 494.30645751953125 319.9844055175781 C 506.9891357421875 193.2861785888672 478.47894287109375 199.1619873046875 535.4406127929688 202.83946228027344 C 472.2367248535156 193.2537078857422 513.518798828125 251.97149658203125 495.6794738769531 141.1077423095703"/>
    <path stroke-width="0" fill="rgb(259, 258, 256)" opacity="1.0425321" stroke="rgb(41, 158, 147)" stroke-opacity="1.0" stroke-linecap="round" stroke-linejoin="round" d="M 319.4939270019531 307.4587707519531 C 252.19943237304688 319.92449951171875 211.40496826171875 313.6258544921875 161.5842742919922 319.4644775390625 C 239.63134765625 313.50408935546875 201.43289184570312 319.4339904785156 86.49969482421875 312.0497131347656 C 207.10580444335938 287.57958984375 267.7394714355469 313.8307189941406 276.0830078125 300.2572021484375 C 264.4090576171875 315.465087890625 276.3127746582031 293.4913024902344 319.4939270019531 307.4587707519531"/>
    <path stroke-width="0" fill="rgb(268, 268, 265)" opacity="0.8350447" stroke="rgb(238, 156, 136)" stroke-opacity="1.0" stroke-linecap="round" stroke-linejoin="round" d="M 425.7430114746094 275.5951232910156 C 439.351806640625 263.2430114746094 431.6684265136719 276.9532470703125 432.2344665527344 230.98062133789062 C 435.7890319824219 224.7294158935547 429.00982666015625 213.94705200195312 434.5038146972656 275.4058532714844 C 434.72625732421875 276.2518005371094 439.182373046875 264.4601745605469 421.8129577636719 271.7237854003906 C 423.9346008300781 292.3513488769531 413.912109375 260.4468078613281 425.7430114746094 275.5951232910156"/>
    <path stroke-width="0" fill="rgb(32, 13, 55)" opacity="1.0266321" stroke="rgb(186, 79, 101)" stroke-opacity="1.0" stroke-linecap="round" stroke-linejoin="round" d="M 426.52484130859375 472.6587829589844 C 296.7268981933594 468.7593688964844 317.4418029785156 467.4564208984375 323.76226806640625 469.2655029296875 C 315.97979736328125 467.76617431640625 281.5579528808594 466.3356018066406 607.6610107421875 468.2004089355469 C 388.4638671875 480.2999267578125 352.62518310546875 463.58331298828125 201.48233032226562 469.92822265625 C 146.79293823242188 472.9419250488281 208.3015594482422 472.73583984375 426.52484130859375 472.6587829589844"/>
    <path stroke-width="0" fill="rgb(-6, -14, 1)" opacity="0.69278085" stroke="rgb(47, 240, 188)" stroke-opacity="1.0" stroke-linecap="round" stroke-linejoin="round" d="M 273.4343566894531 355.838623046875 C 296.19842529296875 332.6728210449219 300.41448974609375 368.09161376953125 505.1310729980469 354.9169921875 C 364.4933776855469 350.9298095703125 343.8818359375 352.9637451171875 341.0473937988281 354.98468017578125 C 306.27630615234375 348.3115234375 335.4724426269531 360.713623046875 329.31756591796875 320.03326416015625 C 412.1661682128906 289.6319580078125 410.4389343261719 370.37579345703125 273.4343566894531 355.838623046875"/>
    <path stroke-width="0" fill="rgb(-22, -32, -17)" opacity="0.9401843" stroke="rgb(57, 64, 14)" stroke-opacity="1.0" stroke-linecap="round" stroke-linejoin="round" d="M 478.94091796875 177.30947875976562 C 465.48406982421875 236.50180053710938 483.4237976074219 443.375 484.4290771484375 182.7913818359375 C 421.564208984375 193.68894958496094 462.1971740722656 141.05203247070312 437.11968994140625 351.74493408203125 C 434.42572021484375 151.7974395751953 436.66473388671875 180.85777282714844 442.3580017089844 182.3830108642578 C 438.38519287109375 165.3327178955078 487.8429870605469 178.88656616210938 478.94091796875 177.30947875976562"/>
    <path stroke-width="0" fill="rgb(119, 131, 115)" opacity="0.99874705" stroke="rgb(79, 177, 96)" stroke-opacity="1.0" stroke-linecap="round" stroke-linejoin="round" d="M 632.7910766601562 76.55720520019531 C 545.1890258789062 159.45333862304688 544.2413940429688 175.94375610351562 503.3910827636719 188.9677734375 C 493.7126159667969 164.4273681640625 491.3726501464844 56.23359680175781 496.73004150390625 53.88479995727539 C 521.8104858398438 110.31755828857422 507.7857360839844 83.85987854003906 496.78955078125 47.636287689208984 C 404.2291564941406 9.828866004943848 442.3376159667969 -97.3659896850586 632.7910766601562 76.55720520019531"/>
    <path stroke-width="0" fill="rgb(273, 261, 268)" opacity="0.9948104" stroke="rgb(6, 17, 173)" stroke-opacity="1.0" stroke-linecap="round" stroke-linejoin="round" d="M 489.3347473144531 301.6675109863281 C 511.5327453613281 318.2896728515625 469.670654296875 306.46142578125 487.81561279296875 309.3495178222656 C 286.90692138671875 308.6582946777344 180.95603942871094 311.0548400878906 155.82911682128906 300.87451171875 C 301.7779235839844 299.952392578125 371.68902587890625 300.1832275390625 432.4414367675781 301.2250671386719 C 337.7311706542969 299.8843078613281 310.9983825683594 298.3938903808594 489.3347473144531 301.6675109863281"/>
    <path stroke-width="0" fill="rgb(29, 16, 48)" opacity="0.96339357" stroke="rgb(136, 228, 252)" stroke-opacity="1.0" stroke-linecap="round" stroke-linejoin="round" d="M -65.50846862792969 468.6026611328125 C 31.761091232299805 464.9797668457031 82.25643157958984 469.1226501464844 25.599180221557617 466.30157470703125 C 86.70097351074219 466.92742919921875 157.89743041992188 466.8935241699219 343.5907287597656 467.5216064453125 C 382.276123046875 473.8307800292969 205.72718811035156 471.9937438964844 20.181493759155273 473.4335632324219 C 55.72645568847656 471.3268737792969 39.34202575683594 476.1763000488281 -65.50846862792969 468.6026611328125"/>
    <path stroke-width="0" fill="rgb(15, 19, 25)" opacity="0.89485765" stroke="rgb(169, 67, 5)" stroke-opacity="1.0" stroke-linecap="round" stroke-linejoin="round" d="M 120.1529769897461 317.5332336425781 C 113.68077850341797 337.69342041015625 54.30546951293945 310.1744079589844 26.774572372436523 316.03955078125 C 116.42095184326172 313.16558837890625 125.87091827392578 316.08795166015625 121.04351806640625 316.6227111816406 C 93.15453338623047 320.4185485839844 102.54837799072266 326.6102294921875 135.42478942871094 321.9261169433594 C 48.487274169921875 320.7099304199219 46.45978927612305 300.4847717285156 120.1529769897461 317.5332336425781"/>
    <path stroke-width="0" fill="rgb(272, 260, 269)" opacity="1.010507" stroke="rgb(81, 97, 150)" stroke-opacity="1.0" stroke-linecap="round" stroke-linejoin="round" d="M 133.05398559570312 324.6910705566406 C 116.03193664550781 310.97076416015625 107.00996398925781 312.7731018066406 114.05545806884766 325.0374450683594 C 140.29771423339844 296.127197265625 56.838157653808594 337.49603271484375 -58.86665344238281 300.3164367675781 C 208.75955200195312 300.5170593261719 250.82275390625 299.9477844238281 186.6348876953125 301.1972351074219 C 88.0196762084961 321.1865539550781 119.69041442871094 309.1260681152344 133.05398559570312 324.6910705566406"/>
    <path stroke-width="0" fill="rgb(42, 9, 31)" opacity="0.9927899" stroke="rgb(160, 222, 69)" stroke-opacity="1.0" stroke-linecap="round" stroke-linejoin="round" d="M 487.1197814941406 441.98101806640625 C 351.9490966796875 438.7974853515625 414.5076599121094 431.5628356933594 -154.28955078125 437.7371520996094 C 652.73193359375 454.0813903808594 500.32257080078125 415.39599609375 502.1309509277344 433.26983642578125 C 278.50006103515625 450.6230163574219 548.2415161132812 438.4604797363281 247.67086791992188 435.76025390625 C 504.17535400390625 436.0120849609375 627.7396240234375 434.8704833984375 487.1197814941406 441.98101806640625"/>
    <path stroke-width="0" fill="rgb(-3, 2, 17)" opacity="1.0021735" stroke="rgb(241, 186, 64)" stroke-opacity="1.0" stroke-linecap="round" stroke-linejoin="round" d="M 371.9825744628906 309.51953125 C 7.662308216094971 342.7770080566406 -167.4385223388672 325.1946716308594 17.06338119506836 317.2072448730469 C 103.37688446044922 317.63543701171875 27.33371925354004 315.7287292480469 -75.29705810546875 320.0519714355469 C -1.3048661947250366 317.52337646484375 34.21998977661133 338.5412292480469 -46.779571533203125 308.1431579589844 C -131.3028564453125 310.1244201660156 124.26982879638672 308.5100402832031 371.9825744628906 309.51953125"/>
    <path stroke-width="0" fill="rgb(253, 272, 270)" opacity="0.8460084" stroke="rgb(95, 118, 70)" stroke-opacity="1.0" stroke-linecap="round" stroke-linejoin="round" d="M 543.0862426757812 200.7742919921875 C 476.72723388671875 163.51255798339844 506.9667663574219 192.4501495361328 497.8218688964844 209.31765747070312 C 488.7003173828125 208.67250061035156 489.7705993652344 195.30978393554688 491.582763671875 310.787841796875 C 479.0262451171875 315.980224609375 485.6842956542969 184.4839324951172 482.1659240722656 159.4536590576172 C 501.4968566894531 216.7465057373047 468.4040832519531 214.89561462402344 543.0862426757812 200.7742919921875"/>
    <path stroke-width="0" fill="rgb(46, 29, 43)" opacity="0.8747751" stroke="rgb(36, 124, 90)" stroke-opacity="1.0" stroke-linecap="round" stroke-linejoin="round" d="M 346.8843078613281 487.48095703125 C 347.0220031738281 511.2407531738281 329.2249755859375 508.093994140625 463.06097412109375 500.95806884765625 C 386.4676513671875 501.15771484375 359.1744079589844 496.7030944824219 308.4267883300781 502.5825500488281 C 305.05084228515625 473.4684753417969 321.7043151855469 504.0565490722656 309.6377258300781 501.10382080078125 C 353.1962585449219 512.5498657226562 360.43780517578125 495.7039489746094 346.8843078613281 487.48095703125"/>
    <path stroke-width="0" fill="rgb(210, 183, 201)" opacity="0.6651435" stroke="rgb(140, 149, 245)" stroke-opacity="1.0" stroke-linecap="round" stroke-linejoin="round" d="M 82.91117858886719 386.51837158203125 C 61.3651237487793 375.34930419921875 32.268436431884766 361.1740417480469 84.57337951660156 370.4480895996094 C 124.78853607177734 360.76361083984375 108.66659545898438 372.4479675292969 110.9295883178711 373.2889709472656 C 30.078454971313477 374.0827941894531 58.73086929321289 368.2360534667969 86.86727905273438 387.5672912597656 C 78.9452896118164 384.7373046875 84.8540267944336 396.28173828125 82.91117858886719 386.51837158203125"/>
    <path stroke-width="0" fill="rgb(62, 73, 65)" opacity="0.63953775" stroke="rgb(170, 200, 71)" stroke-opacity="1.0" stroke-linecap="round" stroke-linejoin="round" d="M 364.0598449707031 555.5533447265625 C 349.96539306640625 521.808837890625 335.94244384765625 493.9071350097656 355.8594055175781 502.6933898925781 C 434.9830017089844 503.3671569824219 346.13140869140625 503.8778991699219 317.1911926269531 505.3211364746094 C 360.7024841308594 511.7557373046875 347.1651611328125 473.7290954589844 347.3531799316406 495.7400207519531 C 335.4069519042969 513.9630126953125 359.15533447265625 533.2967529296875 364.0598449707031 555.5533447265625"/>
    <path stroke-width="0" fill="rgb(32, 39, 33)" opacity="0.9285745" stroke="rgb(16, 123, 249)" stroke-opacity="1.0" stroke-linecap="round" stroke-linejoin="round" d="M 351.09442138671875 448.27569580078125 C 370.4028625488281 445.9654235839844 328.54071044921875 431.2235412597656 392.4171142578125 446.83233642578125 C 345.4300231933594 437.52880859375 364.73028564453125 430.02337646484375 358.3637390136719 447.5200500488281 C 396.3697509765625 443.8277282714844 387.33941650390625 454.6272277832031 353.2777404785156 449.76611328125 C 314.7252502441406 448.4789733886719 316.9468078613281 449.00189208984375 351.09442138671875 448.27569580078125"/>
    <path stroke-width="0" fill="rgb(10, -2, 0)" opacity="1.0433258" stroke="rgb(240, 203, 160)" stroke-opacity="1.0" stroke-linecap="round" stroke-linejoin="round" d="M -17.972091674804688 371.3320007324219 C 34.60906219482422 347.7401123046875 29.44721031188965 354.7666320800781 -2.258601665496826 361.44482421875 C 87.03180694580078 356.7237548828125 71.47871398925781 369.34918212890625 87.66004943847656 349.2642517089844 C 58.76444625854492 383.9565124511719 76.7526626586914 340.7769470214844 -27.7917537689209 379.235595703125 C 143.71726989746094 384.1831970214844 379.2427673339844 369.85528564453125 -17.972091674804688 371.3320007324219"/>
    <path stroke-width="0" fill="rgb(27, 49, 73)" opacity="0.83647" stroke="rgb(88, 37, 250)" stroke-opacity="1.0" stroke-linecap="round" stroke-linejoin="round" d="M 348.62994384765625 506.74005126953125 C 337.36798095703125 477.87713623046875 356.31011962890625 483.2716064453125 349.20428466796875 537.6343383789062 C 391.1106262207031 542.0003051757812 372.587158203125 496.7518615722656 388.2361145019531 504.5896301269531 C 391.2603759765625 494.3287048339844 386.7705383300781 459.90283203125 376.8106994628906 546.3203735351562 C 342.66827392578125 504.658935546875 354.2995300292969 499.1077880859375 348.62994384765625 506.74005126953125"/>
    <path stroke-width="0" fill="rgb(23, 32, 48)" opacity="0.9902781" stroke="rgb(209, 48, 130)" stroke-opacity="1.0" stroke-linecap="round" stroke-linejoin="round" d="M 65.6657943725586 448.69287109375 C 85.441650390625 452.9951171875 18.191944122314453 441.040283203125 -54.314239501953125 450.010009765625 C 102.6641616821289 451.7828674316406 107.12603759765625 449.3668518066406 98.53548431396484 450.585205078125 C 83.52442169189453 449.5384216308594 86.06476593017578 444.63995361328125 68.24559783935547 450.59478759765625 C 67.06303405761719 412.9569091796875 77.56814575195312 457.5465393066406 65.6657943725586 448.69287109375"/>
    <path stroke-width="0" fill="rgb(38, 10, 0)" opacity="0.9862128" stroke="rgb(185, 2, 196)" stroke-opacity="1.0" stroke-linecap="round" stroke-linejoin="round" d="M 105.06571960449219 451.134033203125 C 91.40453338623047 442.3511962890625 105.51669311523438 432.71417236328125 131.08999633789062 438.131591796875 C 137.94407653808594 458.419921875 121.69508361816406 445.28338623046875 -13.574590682983398 450.60711669921875 C 127.59803771972656 447.57232666015625 136.4644775390625 455.47625732421875 135.69667053222656 442.87994384765625 C 136.80618286132812 435.62158203125 95.05327606201172 428.4209289550781 105.06571960449219 451.134033203125"/>
    <path stroke-width="0" fill="rgb(28, 33, 21)" opacity="1.0785005" stroke="rgb(20, 22, 171)" stroke-opacity="1.0" stroke-linecap="round" stroke-linejoin="round" d="M 461.7953186035156 491.9139709472656 C 442.6360168457031 491.6803283691406 472.1419372558594 524.083740234375 500.8870544433594 494.1975402832031 C 578.8721923828125 485.80535888671875 572.7466430664062 489.22100830078125 139.43118286132812 490.2369689941406 C 327.74371337890625 498.2487487792969 618.4375 481.8887939453125 451.51300048828125 502.36083984375 C 473.48345947265625 490.3689880371094 459.55584716796875 507.63482666015625 461.7953186035156 491.9139709472656"/>
    <path stroke-width="0" fill="rgb(-18, 2, 1)" opacity="0.88744456" stroke="rgb(107, 142, 219)" stroke-opacity="1.0" stroke-linecap="round" stroke-linejoin="round" d="M 349.54583740234375 430.2336730957031 C 281.0341796875 431.8453674316406 341.5249938964844 430.760986328125 312.9720458984375 437.2637634277344 C 394.32269287109375 439.4249572753906 340.7624206542969 444.4671936035156 316.7221374511719 439.8027648925781 C 351.9560546875 423.2997131347656 316.4638366699219 438.0957946777344 -26.99619483947754 425.43756103515625 C 750.4682006835938 421.45196533203125 724.6777954101562 430.0721740722656 349.54583740234375 430.2336730957031"/>
    <path stroke-width="0" fill="rgb(10, 51, 31)" opacity="1.0478908" stroke="rgb(68, 33, 14)" stroke-opacity="1.0" stroke-linecap="round" stroke-linejoin="round" d="M 166.99606323242188 436.0894470214844 C 150.10874938964844 455.46710205078125 220.5850067138672 443.8131408691406 -58.6258659362793 449.3965759277344 C 376.65728759765625 453.2620849609375 428.4626159667969 444.96746826171875 175.96246337890625 447.6549072265625 C 159.58676147460938 447.15618896484375 169.20046997070312 455.9628601074219 166.8708038330078 433.6665954589844 C 167.20077514648438 430.84503173828125 169.58706665039062 450.5713195800781 166.99606323242188 436.0894470214844"/>
    <path stroke-width="0" fill="rgb(175, 141, 177)" opacity="0.67598456" stroke="rgb(66, 116, 174)" stroke-opacity="1.0" stroke-linecap="round" stroke-linejoin="round" d="M 240.22021484375 368.8089904785156 C 206.79852294921875 365.9476623535156 194.45558166503906 361.9931335449219 236.40333557128906 375.2120056152344 C 198.1622772216797 363.5684814453125 191.9572296142578 354.0854797363281 153.0161895751953 335.1654968261719 C 188.60818481445312 351.45465087890625 196.46250915527344 366.014892578125 235.10215759277344 369.9554748535156 C 59.501625061035156 375.1574401855469 88.86148071289062 363.16314697265625 240.22021484375 368.8089904785156"/>
    <path stroke-width="0" fill="rgb(13, 12, 19)" opacity="0.85668325" stroke="rgb(14, 177, 198)" stroke-opacity="1.0" stroke-linecap="round" stroke-linejoin="round" d="M 358.13330078125 354.9541320800781 C 384.69390869140625 360.7209777832031 373.502197265625 358.64984130859375 397.31732177734375 358.78466796875 C 419.4460754394531 347.8426818847656 414.4628601074219 344.6543884277344 413.7331237792969 342.47454833984375 C 425.4980163574219 367.885009765625 415.3484802246094 335.0933837890625 413.3191833496094 355.40594482421875 C 429.4151306152344 372.1291809082031 378.6223449707031 354.79913330078125 358.13330078125 354.9541320800781"/>
    <path stroke-width="0" fill="rgb(48, 48, 48)" opacity="0.8938431" stroke="rgb(66, 95, 149)" stroke-opacity="1.0" stroke-linecap="round" stroke-linejoin="round" d="M 430.7052917480469 519.74169921875 C 411.521240234375 490.4447326660156 449.3092346191406 495.812744140625 439.9422912597656 499.35919189453125 C 439.4015808105469 500.2711486816406 404.56488037109375 498.8734436035156 338.4698181152344 501.19915771484375 C 406.12646484375 505.77392578125 441.97381591796875 510.8835144042969 448.50091552734375 502.4713134765625 C 395.2457580566406 471.0830078125 428.69970703125 510.15301513671875 430.7052917480469 519.74169921875"/>
    <path stroke-width="0" fill="rgb(46, 27, 35)" opacity="0.79523766" stroke="rgb(203, 19, 132)" stroke-opacity="1.0" stroke-linecap="round" stroke-linejoin="round" d="M 575.8110961914062 511.96954345703125 C 539.4622192382812 499.4102783203125 249.57070922851562 513.0746459960938 196.22633361816406 500.0315856933594 C 449.5334167480469 498.152099609375 495.18048095703125 503.8756103515625 503.6590576171875 490.1136779785156 C 528.695556640625 496.9679870605469 578.2855834960938 491.4254150390625 411.81756591796875 488.88812255859375 C 506.5127868652344 486.3724365234375 470.01629638671875 494.7250061035156 575.8110961914062 511.96954345703125"/>
    <path stroke-width="0" fill="rgb(235, 246, 244)" opacity="0.8323118" stroke="rgb(70, 32, 100)" stroke-opacity="1.0" stroke-linecap="round" stroke-linejoin="round" d="M 403.7593078613281 87.08433532714844 C 419.73699951171875 77.8656005859375 435.4068908691406 87.03470611572266 405.4782409667969 92.73565673828125 C 409.4909973144531 92.64761352539062 434.9977722167969 81.0245590209961 419.45623779296875 91.06454467773438 C 426.90631103515625 92.61768341064453 424.0921936035156 75.39358520507812 403.43304443359375 87.43141174316406 C 389.3328552246094 95.20870208740234 394.8809509277344 91.83777618408203 403.7593078613281 87.08433532714844"/>
    <path stroke-width="0" fill="rgb(33, 20, 43)" opacity="0.9495558" stroke="rgb(47, 230, 138)" stroke-opacity="1.0" stroke-linecap="round" stroke-linejoin="round" d="M 228.8641357421875 450.00933837890625 C 224.93775939941406 433.9933166503906 234.74136352539062 439.3404235839844 229.61447143554688 450.82757568359375 C 432.0393371582031 452.8811950683594 404.4451599121094 445.1990966796875 259.8639221191406 451.61859130859375 C 257.03155517578125 422.2347412109375 278.6239318847656 459.02740478515625 242.43870544433594 449.2918395996094 C 251.76947021484375 449.9263610839844 226.47137451171875 445.3342590332031 228.8641357421875 450.00933837890625"/>
    <path stroke-width="0" fill="rgb(206, 178, 208)" opacity="0.74218434" stroke="rgb(230, 175, 178)" stroke-opacity="1.0" stroke-linecap="round" stroke-linejoin="round" d="M 177.01025390625 367.644775390625 C 181.62803649902344 378.22174072265625 234.43585205078125 362.9887390136719 259.4490051269531 363.09588623046875 C 229.2587890625 364.931640625 228.84323120117188 359.2569274902344 240.4513702392578 371.1492004394531 C 230.4171905517578 372.8606262207031 225.78988647460938 371.08856201171875 419.7025451660156 370.9582214355469 C 117.19102478027344 356.5323791503906 315.56915283203125 381.7984924316406 177.01025390625 367.644775390625"/>
    <path stroke-width="0" fill="rgb(221, 236, 248)" opacity="0.33768973" stroke="rgb(192, 162, 61)" stroke-opacity="1.0" stroke-linecap="round" stroke-linejoin="round" d="M 453.6615905761719 290.251953125 C 462.96807861328125 291.81689453125 439.6435852050781 294.5793762207031 447.615478515625 256.7621154785156 C 442.4153747558594 281.1384582519531 449.3602600097656 289.0510559082031 457.6807861328125 292.4731140136719 C 462.3872375488281 297.5902404785156 469.8191223144531 295.5733337402344 451.1840515136719 328.2332458496094 C 466.25799560546875 297.5296630859375 466.2702331542969 298.01690673828125 453.6615905761719 290.251953125"/>
    <path stroke-width="0" fill="rgb(114, 126, 137)" opacity="0.69882154" stroke="rgb(209, 231, 207)" stroke-opacity="1.0" stroke-linecap="round" stroke-linejoin="round" d="M 555.3944702148438 498.7728271484375 C 398.22900390625 504.2683410644531 430.05877685546875 489.4646911621094 427.09722900390625 518.910400390625 C 428.17120361328125 509.81512451171875 426.1698913574219 518.7230834960938 422.259765625 509.68023681640625 C 437.423583984375 479.978759765625 394.55908203125 496.7793884277344 498.0140075683594 493.892578125 C 433.4966735839844 469.3652038574219 417.5595703125 482.3061828613281 555.3944702148438 498.7728271484375"/>
    <path stroke-width="0" fill="rgb(37, 71, 90)" opacity="0.86197555" stroke="rgb(160, 101, 15)" stroke-opacity="1.0" stroke-linecap="round" stroke-linejoin="round" d="M 386.39605712890625 273.17279052734375 C 487.1407165527344 272.5276184082031 241.76719665527344 243.84266662597656 297.3177795410156 205.20416259765625 C 458.05291748046875 203.4026641845703 406.8389587402344 188.40000915527344 410.6268005371094 269.6399230957031 C 356.7555847167969 248.89071655273438 365.4180603027344 262.4559631347656 289.00146484375 223.1209716796875 C 299.162109375 281.6544189453125 262.90045166015625 272.2308044433594 386.39605712890625 273.17279052734375"/>
    <path stroke-width="0" fill="rgb(26, 31, 26)" opacity="0.960022" stroke="rgb(65, 216, 8)" stroke-opacity="1.0" stroke-linecap="round" stroke-linejoin="round" d="M 230.92591857910156 491.2872619628906 C 220.53359985351562 489.1492919921875 124.9066390991211 488.0989990234375 -117.90287780761719 490.3889465332031 C 237.05123901367188 496.0328674316406 211.0925750732422 483.4850769042969 204.93040466308594 505.7861328125 C 193.45584106445312 483.4605407714844 192.078125 498.6682434082031 297.2245178222656 491.4779968261719 C 178.6199188232422 491.5011901855469 198.23159790039062 494.58538818359375 230.92591857910156 491.2872619628906"/>
    <path stroke-width="0" fill="rgb(16, 35, 60)" opacity="0.8037088" stroke="rgb(90, 90, 4)" stroke-opacity="1.0" stroke-linecap="round" stroke-linejoin="round" d="M 278.3792419433594 438.7272033691406 C 276.0910339355469 432.1366882324219 278.4290466308594 439.66571044921875 290.8938293457031 438.3201904296875 C 302.263671875 450.1788024902344 286.50390625 439.5643310546875 289.2944641113281 434.1044616699219 C 292.1640930175781 468.944580078125 363.2572021484375 440.9898986816406 286.2810363769531 451.1745300292969 C 301.95489501953125 440.6110534667969 301.0022277832031 444.4607238769531 278.3792419433594 438.7272033691406"/>
    <path stroke-width="0" fill="rgb(37, 17, 16)" opacity="0.75875854" stroke="rgb(102, 236, 25)" stroke-opacity="1.0" stroke-linecap="round" stroke-linejoin="round" d="M -24.9654598236084 437.9964599609375 C 59.076107025146484 449.28106689453125 26.4925594329834 432.7485656738281 -6.301176071166992 440.4218444824219 C 127.14636993408203 440.7236633300781 155.2545623779297 418.5562744140625 -73.41045379638672 426.8119812011719 C 148.23370361328125 435.3713684082031 106.7575454711914 420.0341491699219 80.18339538574219 440.2132568359375 C 45.65522003173828 444.9258728027344 24.498559951782227 440.1453552246094 -24.9654598236084 437.9964599609375"/>
    <path stroke-width="0" fill="rgb(82, 86, 64)" opacity="0.9443351" stroke="rgb(221, 115, 83)" stroke-opacity="1.0" stroke-linecap="round" stroke-linejoin="round" d="M 559.85400390625 363.4893798828125 C 451.9618835449219 347.87213134765625 432.5034484863281 368.0202331542969 452.1319580078125 360.051513671875 C 475.3302917480469 357.2451477050781 466.2750244140625 353.4145202636719 466.1425476074219 357.19073486328125 C 480.26556396484375 355.7090148925781 429.4698486328125 356.18829345703125 115.39076232910156 358.69268798828125 C 402.17327880859375 366.1279602050781 488.414794921875 355.64727783203125 559.85400390625 363.4893798828125"/>
    <path stroke-width="0" fill="rgb(43, 40, 85)" opacity="0.53863055" stroke="rgb(33, 3, 29)" stroke-opacity="1.0" stroke-linecap="round" stroke-linejoin="round" d="M 435.6063537597656 508.1673583984375 C 454.8741149902344 490.77728271484375 453.1734313964844 512.6029663085938 450.0057067871094 519.2230224609375 C 438.3651428222656 488.7943420410156 473.35540771484375 512.55517578125 458.2624206542969 488.5060729980469 C 442.225830078125 540.9478149414062 477.9434814453125 525.7733154296875 451.7805480957031 525.2523193359375 C 447.57781982421875 503.9107971191406 452.9569396972656 492.0646667480469 435.6063537597656 508.1673583984375"/>
    <path stroke-width="0" fill="rgb(102, 105, 123)" opacity="0.3986686" stroke="rgb(162, 125, 252)" stroke-opacity="1.0" stroke-linecap="round" stroke-linejoin="round" d="M 231.48541259765625 116.32228088378906 C 242.0327911376953 93.63621520996094 239.307861328125 98.45217895507812 235.16456604003906 104.2681884765625 C 233.51272583007812 103.86510467529297 235.15603637695312 103.5236587524414 234.5387725830078 105.03265380859375 C 237.13279724121094 103.7965087890625 244.23484802246094 91.81678009033203 246.55453491210938 71.95012664794922 C 245.2865447998047 88.83890533447266 237.92593383789062 100.32971954345703 231.48541259765625 116.32228088378906"/>
    <path stroke-width="0" fill="rgb(32, 29, 25)" opacity="0.9495641" stroke="rgb(199, 73, 61)" stroke-opacity="1.0" stroke-linecap="round" stroke-linejoin="round" d="M 419.5793151855469 440.6851806640625 C 347.91522216796875 433.15716552734375 390.0214538574219 468.8086853027344 622.3312377929688 439.6236572265625 C 294.9127197265625 466.9455261230469 491.90203857421875 417.75103759765625 369.7284240722656 450.45062255859375 C 450.64013671875 449.6374206542969 390.5477600097656 454.8995666503906 437.89996337890625 437.5234375 C 313.4335632324219 450.6713562011719 366.87969970703125 434.2025451660156 419.5793151855469 440.6851806640625"/>
    <path stroke-width="0" fill="rgb(23, 2, 9)" opacity="0.7909547" stroke="rgb(62, 169, 131)" stroke-opacity="1.0" stroke-linecap="round" stroke-linejoin="round" d="M -23.779521942138672 367.2750244140625 C 10.783781051635742 441.6786193847656 -12.185037612915039 457.9698486328125 -51.60874938964844 435.36785888671875 C 27.686237335205078 428.0162048339844 40.07150650024414 427.5709228515625 41.05033493041992 451.9561767578125 C 24.726953506469727 438.5715026855469 60.721134185791016 428.3433532714844 -1.7645975351333618 432.4176940917969 C 27.363237380981445 465.0162658691406 -1.1687849760055542 461.1662902832031 -23.779521942138672 367.2750244140625"/>
    <path stroke-width="0" fill="rgb(49, 29, 29)" opacity="0.835929" stroke="rgb(141, 73, 180)" stroke-opacity="1.0" stroke-linecap="round" stroke-linejoin="round" d="M 374.29620361328125 450.1679382324219 C 355.6000671386719 455.4908752441406 355.0327453613281 438.84991455078125 357.5291442871094 435.4745788574219 C 362.1748046875 463.3294677734375 329.09063720703125 443.8031921386719 358.04998779296875 449.617431640625 C 358.11981201171875 451.9446716308594 341.6632080078125 430.5366516113281 396.5986328125 438.2212219238281 C 352.8073425292969 432.2952880859375 348.1353759765625 455.36962890625 374.29620361328125 450.1679382324219"/>
    <path stroke-width="0" fill="rgb(226, 197, 246)" opacity="0.75983953" stroke="rgb(247, 230, 75)" stroke-opacity="1.0" stroke-linecap="round" stroke-linejoin="round" d="M 465.7564697265625 366.8663024902344 C 412.4285888671875 364.0334167480469 349.5271911621094 371.5971984863281 459.4575500488281 371.6075744628906 C 453.4364013671875 361.3232116699219 460.08843994140625 362.1656188964844 465.9712219238281 370.7782287597656 C 524.51416015625 375.792236328125 592.5150146484375 365.396484375 466.3516845703125 366.09722900390625 C 472.0206298828125 376.8105163574219 474.87286376953125 383.0669860839844 465.7564697265625 366.8663024902344"/>
    <path stroke-width="0" fill="rgb(105, 111, 130)" opacity="0.42187685" stroke="rgb(63, 27, 242)" stroke-opacity="1.0" stroke-linecap="round" stroke-linejoin="round" d="M 212.9940185546875 111.25702667236328 C 198.31341552734375 99.99650573730469 187.96485900878906 90.425048828125 186.63795471191406 97.60794067382812 C 194.40252685546875 85.551513671875 191.8291015625 96.70243835449219 187.8730010986328 91.5531234741211 C 201.6800994873047 106.7016830444336 204.623291015625 97.0533447265625 196.41331481933594 110.50566101074219 C 203.18983459472656 97.35765075683594 203.02304077148438 105.80651092529297 212.9940185546875 111.25702667236328"/>
    <path stroke-width="0" fill="rgb(201, 218, 195)" opacity="0.63656515" stroke="rgb(69, 96, 95)" stroke-opacity="1.0" stroke-linecap="round" stroke-linejoin="round" d="M 327.44488525390625 74.85050964355469 C 353.4180908203125 85.2011489868164 296.5104064941406 60.85191345214844 369.6689758300781 92.1683349609375 C 386.12841796875 88.25823211669922 362.7362976074219 98.6104965209961 356.85870361328125 94.68203735351562 C 282.86541748046875 97.25479125976562 252.9599609375 89.35517883300781 363.4686584472656 99.0003433227539 C 373.4071960449219 91.61141204833984 356.7982482910156 86.7702407836914 327.44488525390625 74.85050964355469"/>
    <path stroke-width="0" fill="rgb(19, 25, 41)" opacity="0.55067635" stroke="rgb(213, 60, 128)" stroke-opacity="1.0" stroke-linecap="round" stroke-linejoin="round" d="M 318.5476989746094 160.6889190673828 C 328.6372375488281 114.29792022705078 316.6456604003906 129.0633544921875 315.6910095214844 128.68125915527344 C 328.02764892578125 123.5688247680664 317.4784240722656 125.35100555419922 320.3642578125 126.93377685546875 C 322.2700500488281 121.98383331298828 324.86468505859375 138.77000427246094 318.24072265625 159.45852661132812 C 320.8536682128906 139.40310668945312 319.7667541503906 137.2235870361328 318.5476989746094 160.6889190673828"/>
    <path stroke-width="0" fill="rgb(49, 47, 53)" opacity="0.5906291" stroke="rgb(161, 221, 239)" stroke-opacity="1.0" stroke-linecap="round" stroke-linejoin="round" d="M 149.1252899169922 452.20135498046875 C 228.93572998046875 430.6182861328125 225.79193115234375 419.7469787597656 229.62847900390625 442.8067626953125 C 246.97264099121094 434.8623352050781 254.5996856689453 432.2341003417969 237.61578369140625 439.6871337890625 C 211.69625854492188 450.4453125 241.99195861816406 457.0278625488281 228.09413146972656 440.992919921875 C 223.2858123779297 419.2093505859375 223.23831176757812 430.8456115722656 149.1252899169922 452.20135498046875"/>
    <path stroke-width="0" fill="rgb(5, 26, 11)" opacity="0.606262" stroke="rgb(228, 103, 140)" stroke-opacity="1.0" stroke-linecap="round" stroke-linejoin="round" d="M 219.3907012939453 432.22161865234375 C 13.23745346069336 422.8536376953125 -83.63248443603516 431.91436767578125 150.57275390625 431.30206298828125 C 180.1042938232422 433.9168701171875 153.85264587402344 419.56292724609375 167.4895782470703 450.5687255859375 C 162.3478240966797 426.6116638183594 173.54046630859375 437.42791748046875 157.2651824951172 438.0539855957031 C 181.1629638671875 428.7204284667969 123.18653869628906 432.28643798828125 219.3907012939453 432.22161865234375"/>
    <path stroke-width="0" fill="rgb(264, 268, 261)" opacity="0.6461095" stroke="rgb(116, 102, 63)" stroke-opacity="1.0" stroke-linecap="round" stroke-linejoin="round" d="M 458.6473693847656 112.29869079589844 C 449.48284912109375 119.36952209472656 459.02923583984375 117.5364990234375 476.613037109375 120.53377532958984 C 449.5956115722656 128.37496948242188 456.661376953125 108.93836975097656 479.7964172363281 118.81078338623047 C 470.68310546875 116.34796142578125 460.2377014160156 107.52897644042969 442.75238037109375 114.55433654785156 C 500.080810546875 122.0750503540039 508.93310546875 128.9508514404297 458.6473693847656 112.29869079589844"/>
    <path stroke-width="0" fill="rgb(120, 130, 118)" opacity="0.15952821" stroke="rgb(85, 235, 219)" stroke-opacity="1.0" stroke-linecap="round" stroke-linejoin="round" d="M 460.0688171386719 152.3161163330078 C 468.34710693359375 111.2535171508789 450.5533447265625 126.34380340576172 441.9651794433594 115.96717071533203 C 433.57843017578125 113.03563690185547 427.54254150390625 117.41414642333984 426.4673767089844 116.66620635986328 C 441.9230041503906 111.2623062133789 436.7213134765625 119.24678039550781 458.2589416503906 121.86196899414062 C 456.24859619140625 119.00775909423828 467.4522399902344 126.7292251586914 460.0688171386719 152.3161163330078"/>
    <path stroke-width="0" fill="rgb(233, 251, 239)" opacity="0.77190226" stroke="rgb(64, 113, 26)" stroke-opacity="1.0" stroke-linecap="round" stroke-linejoin="round" d="M 477.2673645019531 89.25592803955078 C 458.0567932128906 83.60232543945312 478.3054504394531 104.22672271728516 487.7750549316406 93.38775634765625 C 445.401611328125 82.84452819824219 436.71636962890625 68.57545471191406 446.0184631347656 91.6017837524414 C 495.28350830078125 99.81429290771484 500.1841735839844 90.33425903320312 484.6836242675781 79.1373062133789 C 461.0699768066406 94.2472915649414 478.93768310546875 101.76475524902344 477.2673645019531 89.25592803955078"/>
    <path stroke-width="0" fill="rgb(214, 207, 171)" opacity="0.8093117" stroke="rgb(0, 0, 0)" stroke-opacity="0.0" stroke-linecap="round" stroke-linejoin="round" d="M 276.0997619628906 17.252765655517578 C 276.0106506347656 23.525400161743164 272.52398681640625 25.513492584228516 267.0503234863281 26.426067352294922 C 261.9801940917969 26.43291664123535 256.95867919921875 23.779335021972656 257.1727600097656 17.678056716918945 C 256.4638366699219 11.264854431152344 260.8739013671875 9.531764030456543 266.3208312988281 9.411932945251465 C 272.30499267578125 10.479793548583984 275.8894958496094 12.820494651794434 276.0997619628906 17.252765655517578"/>
    <path stroke-width="0" fill="rgb(193, 149, 181)" opacity="0.31747112" stroke="rgb(0, 0, 0)" stroke-opacity="0.0" stroke-linecap="round" stroke-linejoin="round" d="M 4.844201564788818 4.265886306762695 C 2.303325653076172 7.116960525512695 1.109570860862732 11.667373657226562 0.42290985584259033 16.446269989013672 C -3.9118590354919434 14.913710594177246 -6.577579975128174 11.605947494506836 -7.633078575134277 7.56823205947876 C -6.56112003326416 3.56783390045166 -3.6329166889190674 0.6396306753158569 0.6264703869819641 -0.5442351698875427 C 4.7251739501953125 0.20547857880592346 7.068646430969238 2.7110207080841064 4.844201564788818 4.265886306762695"/>
    <path stroke-width="0" fill="rgb(165, 152, 195)" opacity="0.86337835" stroke="rgb(0, 0, 0)" stroke-opacity="0.0" stroke-linecap="round" stroke-linejoin="round" d="M 22.943008422851562 10.857911109924316 C 24.514991760253906 12.102301597595215 21.515039443969727 14.182308197021484 17.630783081054688 17.0039005279541 C 13.449187278747559 17.58586883544922 10.991268157958984 14.910428047180176 12.733623504638672 11.862350463867188 C 15.794889450073242 8.127030372619629 16.943410873413086 3.904486656188965 18.613698959350586 0.03461151942610741 C 23.055753707885742 2.1509859561920166 24.630834579467773 6.593055725097656 22.943008422851562 10.857911109924316"/>
    <path stroke-width="0" fill="rgb(195, 175, 105)" opacity="0.49251702" stroke="rgb(0, 0, 0)" stroke-opacity="0.0" stroke-linecap="round" stroke-linejoin="round" d="M 105.82379913330078 2.931150436401367 C 103.68916320800781 5.268185615539551 98.88166046142578 5.879820823669434 98.33161926269531 11.655561447143555 C 98.47654724121094 11.578208923339844 96.4815444946289 6.494690895080566 94.63134002685547 1.7691279649734497 C 93.4719467163086 -1.6382837295532227 95.97531127929688 -4.395441055297852 99.81460571289062 -4.1860198974609375 C 104.37396240234375 -2.702889919281006 106.6290512084961 0.32270199060440063 105.82379913330078 2.931150436401367"/>
    <path stroke-width="0" fill="rgb(49, 53, 169)" opacity="0.32517913" stroke="rgb(0, 0, 0)" stroke-opacity="0.0" stroke-linecap="round" stroke-linejoin="round" d="M 171.89137268066406 17.02285385131836 C 171.53515625 21.045429229736328 168.61306762695312 23.86684226989746 167.2059783935547 22.793407440185547 C 162.6312255859375 21.5727481842041 158.99703979492188 19.331071853637695 159.0607147216797 17.052701950073242 C 158.92889404296875 10.249547004699707 157.69680786132812 7.10972785949707 161.78701782226562 8.678370475769043 C 166.52415466308594 11.65982723236084 169.9768524169922 14.728361129760742 171.89137268066406 17.02285385131836"/>
    <path stroke-width="0" fill="rgb(120, 141, 180)" opacity="0.9234225" stroke="rgb(0, 0, 0)" stroke-opacity="0.0" stroke-linecap="round" stroke-linejoin="round" d="M 23.040191650390625 13.19978141784668 C 20.871631622314453 16.32341957092285 17.734970092773438 19.186960220336914 18.101890563964844 17.345605850219727 C 12.424995422363281 16.54288101196289 6.048440933227539 15.55327320098877 4.055891513824463 13.10225772857666 C 3.374706745147705 5.985799789428711 7.979075908660889 5.432063579559326 15.778388023376465 3.5175507068634033 C 21.960336685180664 3.705599784851074 23.512428283691406 5.117103099822998 23.040191650390625 13.19978141784668"/>
    <path stroke-width="0" fill="rgb(131, 105, 76)" opacity="0.25379854" stroke="rgb(0, 0, 0)" stroke-opacity="0.0" stroke-linecap="round" stroke-linejoin="round" d="M 15.38855266571045 4.8782148361206055 C 10.88669490814209 5.834191799163818 6.30022668838501 7.673666477203369 2.312307119369507 10.81992244720459 C 1.5874300003051758 13.001401901245117 -0.5133761763572693 8.715996742248535 -1.5645647048950195 4.029067039489746 C -0.8886271119117737 0.6961444616317749 2.035184621810913 -2.228989362716675 5.92443323135376 -3.4527716636657715 C 10.317691802978516 -2.825693130493164 13.222789764404297 0.043136343359947205 15.38855266571045 4.8782148361206055"/>
    <path stroke-width="0" fill="rgb(241, 194, 202)" opacity="0.54839545" stroke="rgb(0, 0, 0)" stroke-opacity="0.0" stroke-linecap="round" stroke-linejoin="round" d="M 348.4857177734375 42.96670913696289 C 348.0137023925781 47.25580596923828 345.0399169921875 49.551490783691406 340.3262023925781 49.5547981262207 C 337.01336669921875 49.70170593261719 333.1758117675781 47.050472259521484 330.9004821777344 42.9160041809082 C 332.1358337402344 37.53242111206055 335.5611572265625 35.19784164428711 341.6120910644531 34.820648193359375 C 346.0325927734375 35.153297424316406 348.69097900390625 38.077178955078125 348.4857177734375 42.96670913696289"/>
    <path stroke-width="0" fill="rgb(122, 170, 70)" opacity="0.0824903" stroke="rgb(0, 0, 0)" stroke-opacity="0.0" stroke-linecap="round" stroke-linejoin="round" d="M 325.4447937011719 270.50567626953125 C 324.2408752441406 273.53118896484375 320.8714904785156 275.9713134765625 320.1065673828125 276.2109375 C 317.1295166015625 274.75830078125 313.9529724121094 272.11456298828125 309.8553466796875 268.4151306152344 C 311.46453857421875 267.45965576171875 317.4445495605469 267.0469055175781 320.0110168457031 264.52239990234375 C 321.9383850097656 263.893798828125 324.48077392578125 267.3618469238281 325.4447937011719 270.50567626953125"/>
    <path stroke-width="0" fill="rgb(209, 187, 157)" opacity="0.9536217" stroke="rgb(0, 0, 0)" stroke-opacity="0.0" stroke-linecap="round" stroke-linejoin="round" d="M 171.26446533203125 36.83376693725586 C 170.1080322265625 41.10247802734375 167.8828125 44.9638557434082 164.4807891845703 45.2796745300293 C 158.68966674804688 45.84902572631836 155.88526916503906 43.67079544067383 156.6997528076172 38.2422981262207 C 157.4004364013672 34.194000244140625 160.36045837402344 31.406328201293945 164.96084594726562 30.547710418701172 C 169.50892639160156 29.83694076538086 172.08143615722656 32.6803092956543 171.26446533203125 36.83376693725586"/>
    <path stroke-width="0" fill="rgb(91, 69, 188)" opacity="0.044129193" stroke="rgb(0, 0, 0)" stroke-opacity="0.0" stroke-linecap="round" stroke-linejoin="round" d="M 401.6184387207031 136.44046020507812 C 399.79150390625 140.43490600585938 396.1002502441406 142.28675842285156 392.9781188964844 143.7965545654297 C 390.0201110839844 141.62921142578125 386.93701171875 138.9319305419922 385.5303649902344 136.353515625 C 386.2280578613281 132.81788635253906 388.6335144042969 128.8883514404297 392.3612976074219 126.49095916748047 C 395.59478759765625 130.3775177001953 399.4473571777344 132.54969787597656 401.6184387207031 136.44046020507812"/>
    <path stroke-width="0" fill="rgb(206, 160, 230)" opacity="0.7487223" stroke="rgb(0, 0, 0)" stroke-opacity="0.0" stroke-linecap="round" stroke-linejoin="round" d="M -60.74114227294922 30.83562660217285 C -61.81293869018555 34.835628509521484 -64.74114227294922 37.763832092285156 -68.74114227294922 38.835628509521484 C -72.74114227294922 37.763832092285156 -75.66934967041016 34.835628509521484 -76.74114227294922 30.83562660217285 C -75.66934967041016 26.83562660217285 -72.74114227294922 23.907424926757812 -68.74114227294922 22.83562660217285 C -64.74114227294922 23.907424926757812 -61.81293869018555 26.83562660217285 -60.74114227294922 30.83562660217285"/>
    <path stroke-width="0" fill="rgb(123, 85, 231)" opacity="0.12606503" stroke="rgb(0, 0, 0)" stroke-opacity="0.0" stroke-linecap="round" stroke-linejoin="round" d="M 435.40216064453125 141.34823608398438 C 433.90863037109375 145.35391235351562 431.3517761230469 148.41221618652344 428.49066162109375 149.27088928222656 C 427.3860778808594 146.7456512451172 424.8045349121094 142.93716430664062 421.2011413574219 141.16880798339844 C 422.91748046875 140.1641082763672 426.2910461425781 137.35317993164062 427.3002624511719 136.20399475097656 C 430.4917297363281 137.5559844970703 433.86749267578125 139.80189514160156 435.40216064453125 141.34823608398438"/>
    <path stroke-width="0" fill="rgb(19, 152, 219)" opacity="0.64644957" stroke="rgb(0, 0, 0)" stroke-opacity="0.0" stroke-linecap="round" stroke-linejoin="round" d="M 174.65147399902344 256.6135559082031 C 175.58958435058594 264.71826171875 174.01564025878906 267.3736877441406 168.3240203857422 264.784912109375 C 160.08853149414062 264.87799072265625 157.09402465820312 263.95556640625 159.60324096679688 259.791015625 C 158.3086395263672 250.13987731933594 159.81394958496094 248.4037628173828 166.41152954101562 249.3264923095703 C 173.4032440185547 249.11978149414062 176.14891052246094 250.7677001953125 174.65147399902344 256.6135559082031"/>
    <path stroke-width="0" fill="rgb(209, 154, 113)" opacity="0.0020575463" stroke="rgb(0, 0, 0)" stroke-opacity="0.0" stroke-linecap="round" stroke-linejoin="round" d="M 497.4988098144531 491.30877685546875 C 496.91607666015625 494.82501220703125 493.3228454589844 497.18084716796875 489.0415344238281 498.4542541503906 C 485.57489013671875 497.6734924316406 482.95361328125 494.22894287109375 481.5455017089844 489.9447021484375 C 482.232177734375 486.4234924316406 485.31317138671875 483.5345153808594 489.18267822265625 482.3096923828125 C 493.4925842285156 483.7139587402344 496.32159423828125 486.6121520996094 497.4988098144531 491.30877685546875"/>
    <path stroke-width="0" fill="rgb(91, 62, 180)" opacity="0.6334444" stroke="rgb(0, 0, 0)" stroke-opacity="0.0" stroke-linecap="round" stroke-linejoin="round" d="M 514.786865234375 421.134521484375 C 515.1754760742188 424.1521911621094 510.4186096191406 424.7725524902344 504.4353942871094 424.4510498046875 C 500.4708557128906 425.38134765625 497.80938720703125 424.8026123046875 500.30535888671875 421.8467102050781 C 501.81097412109375 417.0579528808594 504.8081359863281 414.5338134765625 507.8892517089844 411.82666015625 C 509.6636657714844 412.6316223144531 512.6058959960938 415.702880859375 514.786865234375 421.134521484375"/>
    <path stroke-width="0" fill="rgb(48, 116, 87)" opacity="0.40866724" stroke="rgb(0, 0, 0)" stroke-opacity="0.0" stroke-linecap="round" stroke-linejoin="round" d="M 96.05815887451172 65.47794342041016 C 97.45157623291016 68.50813293457031 92.97118377685547 69.3988265991211 90.69505310058594 69.49153137207031 C 87.28533172607422 69.50598907470703 83.96705627441406 67.1851577758789 83.45216369628906 63.27083206176758 C 83.16333770751953 60.14572525024414 85.47950744628906 56.97329330444336 88.74935150146484 56.948360443115234 C 94.84333801269531 56.93488693237305 96.53980255126953 58.86787796020508 96.05815887451172 65.47794342041016"/>
    <path stroke-width="0" fill="rgb(84, 142, 113)" opacity="0.9184425" stroke="rgb(0, 0, 0)" stroke-opacity="0.0" stroke-linecap="round" stroke-linejoin="round" d="M 450.786865234375 432.6162109375 C 449.5791320800781 437.06060791015625 445.78216552734375 439.33428955078125 441.11737060546875 439.8595886230469 C 437.1239013671875 439.52020263671875 433.9728698730469 436.4161071777344 433.40771484375 432.36724853515625 C 435.1469421386719 429.2940979003906 438.5050048828125 426.4848937988281 441.3204040527344 425.938720703125 C 444.0884094238281 426.32147216796875 448.24957275390625 428.7389831542969 450.786865234375 432.6162109375"/>
    <path stroke-width="0" fill="rgb(52, 63, 160)" opacity="0.67492205" stroke="rgb(0, 0, 0)" stroke-opacity="0.0" stroke-linecap="round" stroke-linejoin="round" d="M 363.68023681640625 494.7839660644531 C 362.270751953125 498.4512634277344 358.32171630859375 500.89697265625 355.41552734375 501.7365417480469 C 353.308837890625 503.4608459472656 350.63250732421875 500.6983947753906 350.8750305175781 496.5947265625 C 350.5304260253906 492.3533020019531 352.7106628417969 489.3396301269531 355.1837158203125 489.82379150390625 C 360.7264709472656 491.5084228515625 365.7695007324219 492.34967041015625 363.68023681640625 494.7839660644531"/>
    <path stroke-width="0" fill="rgb(100, 36, 91)" opacity="0.18563436" stroke="rgb(0, 0, 0)" stroke-opacity="0.0" stroke-linecap="round" stroke-linejoin="round" d="M 318.3612060546875 106.2613525390625 C 316.7152099609375 110.43666076660156 313.657470703125 113.32038879394531 314.5209655761719 112.95844268798828 C 311.6929931640625 111.18367767333984 306.4901123046875 110.88624572753906 303.909423828125 107.02202606201172 C 304.4645080566406 105.19246673583984 309.1422424316406 103.56513214111328 313.58154296875 104.33106994628906 C 317.67242431640625 102.82679748535156 320.9599914550781 103.86662292480469 318.3612060546875 106.2613525390625"/>
    <path stroke-width="0" fill="rgb(103, 158, 236)" opacity="0.12291972" stroke="rgb(0, 0, 0)" stroke-opacity="0.0" stroke-linecap="round" stroke-linejoin="round" d="M 485.570556640625 93.77613830566406 C 484.1125183105469 97.4408187866211 480.35626220703125 99.48797607421875 475.13348388671875 100.20361328125 C 471.30499267578125 100.3974838256836 467.9549255371094 97.89205932617188 469.0123291015625 94.88678741455078 C 470.1897888183594 88.60970306396484 471.411376953125 84.464111328125 474.53131103515625 85.65933227539062 C 478.5738830566406 87.1163330078125 482.3723449707031 90.10326385498047 485.570556640625 93.77613830566406"/>
    <path stroke-width="0" fill="rgb(38, 13, 57)" opacity="0.4542323" stroke="rgb(0, 0, 0)" stroke-opacity="0.0" stroke-linecap="round" stroke-linejoin="round" d="M -27.041536331176758 30.428306579589844 C -28.113332748413086 34.428306579589844 -31.041536331176758 37.356510162353516 -35.041534423828125 38.428306579589844 C -39.041534423828125 37.356510162353516 -41.9697380065918 34.428306579589844 -43.041534423828125 30.428306579589844 C -41.9697380065918 26.428306579589844 -39.041534423828125 23.500104904174805 -35.041534423828125 22.428306579589844 C -31.041536331176758 23.500104904174805 -28.113332748413086 26.428306579589844 -27.041536331176758 30.428306579589844"/>
    <path stroke-width="0" fill="rgb(251, 118, 233)" opacity="0.33664012" stroke="rgb(0, 0, 0)" stroke-opacity="0.0" stroke-linecap="round" stroke-linejoin="round" d="M -70.7625961303711 47.9467658996582 C -71.83438873291016 51.9467658996582 -74.7625961303711 54.874969482421875 -78.7625961303711 55.9467658996582 C -82.7625961303711 54.874969482421875 -85.6907958984375 51.9467658996582 -86.7625961303711 47.9467658996582 C -85.6907958984375 43.9467658996582 -82.7625961303711 41.01856231689453 -78.7625961303711 39.9467658996582 C -74.7625961303711 41.01856231689453 -71.83438873291016 43.9467658996582 -70.7625961303711 47.9467658996582"/>
    <path stroke-width="0" fill="rgb(235, 219, 225)" opacity="0.6579173" stroke="rgb(0, 0, 0)" stroke-opacity="0.0" stroke-linecap="round" stroke-linejoin="round" d="M 211.87081909179688 304.2955627441406 C 208.41246032714844 307.5714416503906 205.5054168701172 310.7861328125 203.0803680419922 311.7545471191406 C 199.1168975830078 312.4659423828125 196.72393798828125 309.7415771484375 194.5050506591797 304.6597900390625 C 196.10816955566406 301.7749328613281 199.8825225830078 299.2298889160156 204.00079345703125 298.54803466796875 C 208.11036682128906 298.7147216796875 211.7097930908203 300.5720520019531 211.87081909179688 304.2955627441406"/>
    <path stroke-width="0" fill="rgb(165, 20, 113)" opacity="0.264629" stroke="rgb(0, 0, 0)" stroke-opacity="0.0" stroke-linecap="round" stroke-linejoin="round" d="M 184.90809631347656 201.55648803710938 C 186.79425048828125 204.22071838378906 183.327880859375 205.3536376953125 177.74066162109375 205.9004364013672 C 174.00326538085938 206.00143432617188 170.92349243164062 203.73495483398438 172.1498260498047 199.75401306152344 C 172.72781372070312 196.40321350097656 176.86199951171875 194.5113067626953 179.36109924316406 192.4910430908203 C 180.8494110107422 193.23219299316406 183.42613220214844 196.6073455810547 184.90809631347656 201.55648803710938"/>
    <path stroke-width="0" fill="rgb(9, 208, 47)" opacity="0.3497068" stroke="rgb(0, 0, 0)" stroke-opacity="0.0" stroke-linecap="round" stroke-linejoin="round" d="M 165.00286865234375 58.375728607177734 C 166.30137634277344 61.74366760253906 162.7772216796875 63.63985824584961 157.4383544921875 63.96950912475586 C 153.06402587890625 65.85755157470703 150.6259765625 63.38418960571289 152.03773498535156 59.544986724853516 C 154.35025024414062 55.947452545166016 156.8837890625 52.65549850463867 159.78480529785156 51.273216247558594 C 162.76931762695312 50.38752365112305 165.298095703125 53.25782775878906 165.00286865234375 58.375728607177734"/>
    <path stroke-width="0" fill="rgb(204, 184, 214)" opacity="0.2971338" stroke="rgb(0, 0, 0)" stroke-opacity="0.0" stroke-linecap="round" stroke-linejoin="round" d="M 423.6966552734375 388.8629455566406 C 424.6470642089844 393.1900329589844 421.87109375 396.3218688964844 416.5869140625 396.1929626464844 C 411.7805480957031 394.1502990722656 409.5333251953125 390.59991455078125 407.0428161621094 385.7721252441406 C 407.1476135253906 381.947998046875 410.7810974121094 379.2555847167969 415.8117370605469 379.34735107421875 C 419.00408935546875 380.32012939453125 421.3025207519531 384.2508544921875 423.6966552734375 388.8629455566406"/>
    <path stroke-width="0" fill="rgb(71, 41, 25)" opacity="0.4215009" stroke="rgb(0, 0, 0)" stroke-opacity="0.0" stroke-linecap="round" stroke-linejoin="round" d="M 30.289352416992188 496.88531494140625 C 29.10022735595703 501.6947937011719 25.307878494262695 503.3643798828125 20.069522857666016 505.0977783203125 C 18.592374801635742 504.0047302246094 16.077510833740234 500.0754089355469 15.546370506286621 495.8452453613281 C 13.730445861816406 491.4910583496094 15.426097869873047 488.45263671875 20.183595657348633 490.96563720703125 C 27.57743263244629 489.7303161621094 30.453514099121094 491.2957458496094 30.289352416992188 496.88531494140625"/>
    <path stroke-width="0" fill="rgb(192, 221, 80)" opacity="0.5386483" stroke="rgb(0, 0, 0)" stroke-opacity="0.0" stroke-linecap="round" stroke-linejoin="round" d="M 17.107280731201172 6.535634994506836 C 16.487966537475586 8.117196083068848 10.200674057006836 8.570540428161621 5.091105937957764 9.676958084106445 C 4.598781108856201 10.595734596252441 2.1333816051483154 7.120542049407959 -0.38603466749191284 2.8947622776031494 C -0.02448614314198494 -0.7795825600624084 3.1130599975585938 -3.5059518814086914 7.958096504211426 -4.464189529418945 C 11.841334342956543 -2.972895622253418 14.13875675201416 0.6841402649879456 17.107280731201172 6.535634994506836"/>
    <path stroke-width="0" fill="rgb(101, 215, 200)" opacity="0.025589865" stroke="rgb(0, 0, 0)" stroke-opacity="0.0" stroke-linecap="round" stroke-linejoin="round" d="M 8.759002685546875 0.015484452247619629 C 8.504434585571289 4.806637763977051 6.397261619567871 8.456916809082031 3.241630792617798 7.265454292297363 C -2.4790146350860596 5.834795951843262 -5.730284214019775 3.6271262168884277 -6.84503698348999 -0.25962215662002563 C -5.775409698486328 -4.253812313079834 -2.8472065925598145 -7.182015895843506 1.1527934074401855 -8.253812789916992 C 5.1527323722839355 -7.181992530822754 8.076553344726562 -4.252223968505859 8.759002685546875 0.015484452247619629"/>
    <path stroke-width="0" fill="rgb(168, 148, 179)" opacity="0.58848655" stroke="rgb(0, 0, 0)" stroke-opacity="0.0" stroke-linecap="round" stroke-linejoin="round" d="M 12.925130844116211 92.50493621826172 C 14.668694496154785 95.8929443359375 13.288267135620117 97.4016342163086 7.245479106903076 95.17755126953125 C 1.8079700469970703 96.5555419921875 -0.8824734687805176 95.37931060791016 -0.3190043270587921 91.9643783569336 C 1.5979198217391968 87.10514068603516 5.022677421569824 84.85804748535156 7.667544364929199 84.20281219482422 C 10.601458549499512 84.66519165039062 13.829463005065918 86.72942352294922 12.925130844116211 92.50493621826172"/>
    <path stroke-width="0" fill="rgb(106, 75, 66)" opacity="0.53724825" stroke="rgb(0, 0, 0)" stroke-opacity="0.0" stroke-linecap="round" stroke-linejoin="round" d="M 59.9324951171875 387.7525634765625 C 59.71342086791992 391.8270263671875 56.9743766784668 394.2688293457031 52.645206451416016 395.9638671875 C 50.6153450012207 394.0371398925781 48.80121994018555 389.9029235839844 47.610233306884766 385.06585693359375 C 45.27461624145508 382.40692138671875 47.69967269897461 379.7261657714844 52.58114242553711 379.5638427734375 C 58.61117172241211 380.07659912109375 60.84390640258789 382.379638671875 59.9324951171875 387.7525634765625"/>
  </g>
</svg>
