<?xml version="1.0" ?>
<svg xmlns="http://www.w3.org/2000/svg" version="1.1" width="512" height="512">
  <defs/>
  <g>
    <path stroke-width="0" fill="rgb(-20, -49, 17)" opacity="1.2057059" stroke="rgb(139, 182, 153)" stroke-opacity="1.0" stroke-linecap="round" stroke-linejoin="round" d="M 576.390869140625 161.2032928466797 C 474.10137939453125 157.1814727783203 256.11029052734375 161.6129150390625 22.021900177001953 158.64830017089844 C 149.9614715576172 41.40039825439453 217.20492553710938 78.77104187011719 174.48895263671875 -25.099302291870117 C 185.01902770996094 -33.60383224487305 197.35633850097656 -35.491127014160156 255.7582550048828 -34.249855041503906 C 358.6469421386719 -48.332664489746094 436.6701965332031 -146.0474395751953 576.390869140625 161.2032928466797"/>
    <path stroke-width="0" fill="rgb(34, 64, 22)" opacity="0.5862701" stroke="rgb(108, 164, 111)" stroke-opacity="1.0" stroke-linecap="round" stroke-linejoin="round" d="M 318.124755859375 715.90234375 C -124.30436706542969 751.7208251953125 7.873350620269775 372.3929443359375 44.513587951660156 85.40876770019531 C 293.0481872558594 122.73342895507812 289.8204040527344 118.47431945800781 280.1459045410156 40.89720916748047 C 284.2266845703125 -66.92325592041016 317.0650329589844 -46.443145751953125 442.3717346191406 -36.365211486816406 C 639.143310546875 -2.5854287147521973 854.1314086914062 240.14646911621094 318.124755859375 715.90234375"/>
    <path stroke-width="0" fill="rgb(109, 121, 91)" opacity="1.1395189" stroke="rgb(245, 97, 201)" stroke-opacity="1.0" stroke-linecap="round" stroke-linejoin="round" d="M 363.5248107910156 89.42433166503906 C 333.830322265625 107.23026275634766 323.9255676269531 111.38402557373047 88.13973999023438 106.69957733154297 C 110.6676025390625 103.6150894165039 112.05255126953125 111.51028442382812 120.72222900390625 67.0373764038086 C 135.6087188720703 -33.50758361816406 141.19656372070312 -41.69476318359375 171.8855743408203 -45.76627731323242 C 294.2865295410156 -30.092605590820312 318.9493408203125 -37.63871383666992 363.5248107910156 89.42433166503906"/>
    <path stroke-width="0" fill="rgb(-3, 2, 10)" opacity="1.0199211" stroke="rgb(144, 236, 18)" stroke-opacity="1.0" stroke-linecap="round" stroke-linejoin="round" d="M 255.90670776367188 87.05416870117188 C 196.71336364746094 108.92861938476562 292.24609375 73.01045989990234 527.9239501953125 139.25970458984375 C 130.06134033203125 150.42916870117188 19.923343658447266 95.5151138305664 -29.004993438720703 241.82362365722656 C -45.53935623168945 -103.79988098144531 -12.785496711730957 -54.71656799316406 149.35586547851562 -35.13154983520508 C 205.3994903564453 -44.156890869140625 223.08375549316406 -50.6892204284668 255.90670776367188 87.05416870117188"/>
    <path stroke-width="0" fill="rgb(259, 260, 261)" opacity="1.0002028" stroke="rgb(5, 212, 198)" stroke-opacity="1.0" stroke-linecap="round" stroke-linejoin="round" d="M 495.3839416503906 245.6636199951172 C 466.55535888671875 180.99932861328125 270.59185791015625 189.367919921875 295.12713623046875 219.42593383789062 C 193.75535583496094 180.7292022705078 155.7529296875 184.24652099609375 129.69566345214844 159.48619079589844 C 79.5125503540039 158.8856964111328 83.34142303466797 159.2338409423828 501.96038818359375 158.50816345214844 C 498.5619201660156 159.32667541503906 499.33563232421875 139.69384765625 495.3839416503906 245.6636199951172"/>
    <path stroke-width="0" fill="rgb(213, 230, 214)" opacity="0.5613826" stroke="rgb(30, 163, 36)" stroke-opacity="1.0" stroke-linecap="round" stroke-linejoin="round" d="M 640.0281372070312 412.70611572265625 C 460.8154296875 440.5423889160156 165.6469268798828 405.55328369140625 160.62155151367188 427.822509765625 C 284.41326904296875 423.5087585449219 325.2804870605469 425.4960632324219 -29.167407989501953 428.7229919433594 C 198.49481201171875 397.5826110839844 231.07679748535156 424.0807189941406 57.03672409057617 410.85479736328125 C 131.2477569580078 418.6753845214844 307.4898681640625 402.5630187988281 640.0281372070312 412.70611572265625"/>
    <path stroke-width="0" fill="rgb(213, 198, 181)" opacity="0.4754" stroke="rgb(133, 105, 67)" stroke-opacity="1.0" stroke-linecap="round" stroke-linejoin="round" d="M 574.6376953125 380.8768310546875 C 753.585205078125 406.93701171875 597.8134765625 401.26513671875 65.88766479492188 402.0749816894531 C 181.99668884277344 390.0462646484375 -86.83457946777344 412.0795593261719 -63.515499114990234 380.2752380371094 C 521.6787719726562 380.8501281738281 498.4682312011719 382.0400695800781 445.80633544921875 378.1630554199219 C 394.2227783203125 377.8203125 407.4876708984375 376.225830078125 574.6376953125 380.8768310546875"/>
    <path stroke-width="0" fill="rgb(203, 205, 191)" opacity="0.8943445" stroke="rgb(116, 144, 4)" stroke-opacity="1.0" stroke-linecap="round" stroke-linejoin="round" d="M 596.994873046875 419.662353515625 C -82.31436920166016 418.0035400390625 20.995197296142578 423.0749816894531 76.85836029052734 425.6832580566406 C 222.43484497070312 412.4002380371094 -62.87202072143555 443.1015319824219 -79.9406967163086 410.4171447753906 C 78.02706146240234 411.15997314453125 250.7677764892578 409.129638671875 308.2868957519531 407.8020324707031 C 128.95584106445312 421.8104248046875 225.03012084960938 392.4732360839844 596.994873046875 419.662353515625"/>
    <path stroke-width="0" fill="rgb(268, 265, 267)" opacity="0.9784195" stroke="rgb(156, 157, 240)" stroke-opacity="1.0" stroke-linecap="round" stroke-linejoin="round" d="M 498.4596252441406 276.510986328125 C 462.46240234375 304.3454284667969 616.4192504882812 296.4347839355469 -42.54505157470703 299.1645202636719 C -88.76903533935547 260.88446044921875 -97.3984603881836 270.080322265625 256.3427734375 272.8844299316406 C 272.84405517578125 270.3962097167969 259.71820068359375 132.0906219482422 282.3649597167969 163.56378173828125 C 323.1580810546875 311.5176086425781 210.4265899658203 252.1724395751953 498.4596252441406 276.510986328125"/>
    <path stroke-width="0" fill="rgb(198, 208, 179)" opacity="0.97356415" stroke="rgb(91, 111, 177)" stroke-opacity="1.0" stroke-linecap="round" stroke-linejoin="round" d="M 592.6171264648438 406.0538635253906 C 473.7410583496094 452.44610595703125 262.5155944824219 374.4988708496094 168.77572631835938 421.11676025390625 C 247.5306396484375 410.5859069824219 240.64633178710938 421.9376220703125 214.461669921875 414.29534912109375 C 260.9552001953125 417.7434997558594 281.3078918457031 438.94879150390625 149.3234100341797 408.64654541015625 C 180.1769256591797 419.872314453125 479.55206298828125 400.9915771484375 592.6171264648438 406.0538635253906"/>
    <path stroke-width="0" fill="rgb(264, 264, 265)" opacity="0.996449" stroke="rgb(170, 171, 53)" stroke-opacity="1.0" stroke-linecap="round" stroke-linejoin="round" d="M 489.03106689453125 165.75552368164062 C 279.81939697265625 217.3646240234375 745.697998046875 200.88511657714844 21.50596046447754 204.18174743652344 C 34.72450256347656 212.1350555419922 -59.13456726074219 218.1697540283203 -51.40501403808594 158.60667419433594 C 119.13861846923828 158.82164001464844 191.5637969970703 157.62432861328125 232.7893524169922 159.77743530273438 C 136.81817626953125 159.3926544189453 195.77920532226562 153.51658630371094 489.03106689453125 165.75552368164062"/>
    <path stroke-width="0" fill="rgb(132, 150, 104)" opacity="1.1011492" stroke="rgb(80, 92, 145)" stroke-opacity="1.0" stroke-linecap="round" stroke-linejoin="round" d="M 522.8060302734375 98.9395523071289 C 436.615478515625 72.96607971191406 500.8506164550781 84.65126037597656 437.4894714355469 61.9335823059082 C 316.5778503417969 71.42354583740234 352.47906494140625 46.12055969238281 359.45855712890625 2.737269878387451 C 357.0701904296875 -22.21021842956543 361.8422546386719 -30.03455924987793 369.3782653808594 -28.67680549621582 C 382.7258605957031 55.829410552978516 500.1801452636719 -10.404294967651367 522.8060302734375 98.9395523071289"/>
    <path stroke-width="0" fill="rgb(267, 263, 258)" opacity="1.0123847" stroke="rgb(252, 26, 53)" stroke-opacity="1.0" stroke-linecap="round" stroke-linejoin="round" d="M 449.5746765136719 38.576541900634766 C 400.6240234375 51.523468017578125 357.1902160644531 71.10301208496094 353.2750549316406 66.87629699707031 C 388.4972229003906 126.49362182617188 326.0721740722656 89.59114837646484 303.5506896972656 34.252906799316406 C 325.6391906738281 16.8966121673584 340.68963623046875 14.930099487304688 419.0584411621094 2.308426856994629 C 414.4403076171875 15.954193115234375 447.4162292480469 4.1379923820495605 449.5746765136719 38.576541900634766"/>
    <path stroke-width="0" fill="rgb(-1, 2, -6)" opacity="0.97279185" stroke="rgb(166, 64, 118)" stroke-opacity="1.0" stroke-linecap="round" stroke-linejoin="round" d="M 135.79295349121094 394.57562255859375 C 234.6684112548828 401.33233642578125 122.5909194946289 400.6004943847656 -79.8036880493164 400.675048828125 C 12.375293731689453 411.31256103515625 -49.82722091674805 409.5086669921875 75.96281433105469 409.92669677734375 C 111.38457489013672 410.2996520996094 134.8271942138672 408.7774658203125 257.3874816894531 401.995849609375 C 76.02579498291016 390.26544189453125 95.30217742919922 391.33892822265625 135.79295349121094 394.57562255859375"/>
    <path stroke-width="0" fill="rgb(108, 92, 126)" opacity="0.98319787" stroke="rgb(40, 28, 167)" stroke-opacity="1.0" stroke-linecap="round" stroke-linejoin="round" d="M 419.1612243652344 -32.646419525146484 C 435.268798828125 22.453369140625 456.4995422363281 63.44389343261719 444.0957946777344 3.0685007572174072 C 386.58642578125 -19.283382415771484 374.35162353515625 -16.448270797729492 312.05523681640625 -19.660694122314453 C 315.1639404296875 -29.508440017700195 323.5223083496094 -35.45821762084961 394.3455505371094 -33.86525344848633 C 406.1054382324219 -37.010616302490234 415.6422424316406 -32.56230163574219 419.1612243652344 -32.646419525146484"/>
    <path stroke-width="0" fill="rgb(235, 259, 264)" opacity="0.9582438" stroke="rgb(50, 94, 209)" stroke-opacity="1.0" stroke-linecap="round" stroke-linejoin="round" d="M 484.88079833984375 102.7092514038086 C 395.7792663574219 90.3696060180664 365.1370544433594 92.19757843017578 334.4324645996094 93.27359008789062 C 399.45745849609375 99.95942687988281 377.1225891113281 103.96685791015625 202.7602081298828 100.93206787109375 C 416.30389404296875 82.17263793945312 370.56024169921875 103.66617584228516 382.58294677734375 84.22369384765625 C 377.0345458984375 73.49169158935547 500.4034729003906 61.18928909301758 484.88079833984375 102.7092514038086"/>
    <path stroke-width="0" fill="rgb(146, 147, 123)" opacity="1.0082861" stroke="rgb(213, 24, 248)" stroke-opacity="1.0" stroke-linecap="round" stroke-linejoin="round" d="M 473.25909423828125 36.66365432739258 C 462.5120544433594 56.49284362792969 428.8751525878906 58.53266143798828 331.5841064453125 86.16854095458984 C 280.4706726074219 92.08151245117188 217.5775604248047 79.4211654663086 -88.56086730957031 89.66985321044922 C -40.06278991699219 -346.3504638671875 68.1061782836914 -207.80335998535156 423.1267395019531 -84.7540283203125 C 471.0582580566406 -57.38637161254883 490.3458557128906 -59.22583770751953 473.25909423828125 36.66365432739258"/>
    <path stroke-width="0" fill="rgb(273, 286, 265)" opacity="1.0172677" stroke="rgb(249, 154, 188)" stroke-opacity="1.0" stroke-linecap="round" stroke-linejoin="round" d="M -17.948596954345703 79.82758331298828 C 326.297119140625 82.12086486816406 251.06375122070312 74.71546936035156 -51.26052474975586 101.25858306884766 C 207.26589965820312 102.2916030883789 175.79287719726562 99.17440032958984 131.77928161621094 104.48298645019531 C 161.8837890625 97.74462127685547 222.2013702392578 116.5794448852539 359.9096374511719 79.82141876220703 C 26.904111862182617 75.72171020507812 111.38274383544922 118.34976959228516 -17.948596954345703 79.82758331298828"/>
    <path stroke-width="0" fill="rgb(143, 147, 121)" opacity="0.7913011" stroke="rgb(72, 30, 75)" stroke-opacity="1.0" stroke-linecap="round" stroke-linejoin="round" d="M 273.6669616699219 50.30763626098633 C 300.5121765136719 75.285888671875 378.314208984375 82.31167602539062 270.82012939453125 64.71582794189453 C 220.87557983398438 77.0534896850586 203.96875 85.19552612304688 196.33056640625 -3.234872579574585 C 262.51806640625 -37.65595626831055 279.69085693359375 -34.56483840942383 302.72503662109375 -30.351491928100586 C 375.8974609375 -22.362211227416992 379.0951843261719 -11.677006721496582 273.6669616699219 50.30763626098633"/>
    <path stroke-width="0" fill="rgb(214, 231, 219)" opacity="0.76753277" stroke="rgb(81, 105, 16)" stroke-opacity="1.0" stroke-linecap="round" stroke-linejoin="round" d="M 547.9480590820312 73.01317596435547 C 546.9356689453125 103.32501220703125 533.772705078125 109.36691284179688 524.2948608398438 57.219390869140625 C 414.5066833496094 52.64128494262695 448.97259521484375 61.534141540527344 460.479736328125 41.578041076660156 C 366.39593505859375 43.451690673828125 414.60882568359375 -19.6839599609375 385.5798034667969 -20.524614334106445 C 414.2701721191406 87.83154296875 488.3799743652344 -1.5296053886413574 547.9480590820312 73.01317596435547"/>
    <path stroke-width="0" fill="rgb(-5, -11, 2)" opacity="0.8500869" stroke="rgb(144, 67, 133)" stroke-opacity="1.0" stroke-linecap="round" stroke-linejoin="round" d="M 132.71734619140625 405.56671142578125 C 119.28809356689453 397.348388671875 95.829345703125 419.07049560546875 -70.54727172851562 401.0169982910156 C 219.3382568359375 398.5428466796875 297.3509216308594 397.6132507324219 269.5990905761719 401.65777587890625 C 144.93435668945312 405.07171630859375 169.5119171142578 394.9127197265625 252.75186157226562 405.9454345703125 C 108.2677001953125 407.06646728515625 120.78443145751953 402.81597900390625 132.71734619140625 405.56671142578125"/>
    <path stroke-width="0" fill="rgb(266, 260, 264)" opacity="1.0750191" stroke="rgb(146, 236, 81)" stroke-opacity="1.0" stroke-linecap="round" stroke-linejoin="round" d="M 436.7342834472656 183.4952850341797 C 435.7037048339844 223.29129028320312 437.2321472167969 296.6803894042969 432.918212890625 280.2909240722656 C 370.5307312011719 304.4507751464844 421.3229064941406 240.71583557128906 402.54058837890625 264.8426818847656 C 410.3783874511719 138.64730834960938 377.4803466796875 250.67462158203125 442.83929443359375 172.15634155273438 C 444.3785095214844 197.18814086914062 443.37890625 245.83961486816406 436.7342834472656 183.4952850341797"/>
    <path stroke-width="0" fill="rgb(-12, -8, -2)" opacity="0.99227077" stroke="rgb(33, 182, 73)" stroke-opacity="1.0" stroke-linecap="round" stroke-linejoin="round" d="M 303.4850769042969 396.82623291015625 C 250.2289276123047 396.8529357910156 258.4234313964844 397.25103759765625 665.6165771484375 394.05767822265625 C 545.4845581054688 417.4896545410156 282.6715393066406 398.6725158691406 283.42138671875 407.125 C 324.5194396972656 394.8995361328125 324.1324768066406 397.384521484375 100.98833465576172 397.3825378417969 C 280.7251892089844 408.5970153808594 298.481201171875 408.9088439941406 303.4850769042969 396.82623291015625"/>
    <path stroke-width="0" fill="rgb(194, 189, 161)" opacity="0.7367787" stroke="rgb(149, 5, 211)" stroke-opacity="1.0" stroke-linecap="round" stroke-linejoin="round" d="M 521.2061157226562 292.9101867675781 C 494.5719909667969 302.7099304199219 490.9009094238281 295.9566345214844 505.53387451171875 47.73217010498047 C 441.8575744628906 2.8561782836914062 469.88592529296875 103.94688415527344 488.0978088378906 -56.98770523071289 C 423.89288330078125 -32.06654739379883 433.3778381347656 -36.32387161254883 469.7552490234375 -42.66332244873047 C 555.4288330078125 -45.57939910888672 543.9959106445312 -55.355979919433594 521.2061157226562 292.9101867675781"/>
    <path stroke-width="0" fill="rgb(259, 252, 257)" opacity="1.0431026" stroke="rgb(172, 68, 187)" stroke-opacity="1.0" stroke-linecap="round" stroke-linejoin="round" d="M 259.0135803222656 116.16259002685547 C 243.86563110351562 125.95833587646484 293.61041259765625 120.73026275634766 265.30755615234375 127.75633239746094 C 290.0245666503906 116.89161682128906 266.31396484375 136.32052612304688 18.363590240478516 110.71138000488281 C 635.6735229492188 109.80693817138672 609.5664672851562 107.50580596923828 515.5941772460938 138.1167449951172 C 433.58929443359375 114.38374328613281 225.15335083007812 136.24462890625 259.0135803222656 116.16259002685547"/>
    <path stroke-width="0" fill="rgb(-5, -10, 9)" opacity="0.98257107" stroke="rgb(63, 146, 150)" stroke-opacity="1.0" stroke-linecap="round" stroke-linejoin="round" d="M 382.9851379394531 107.41868591308594 C -15.433350563049316 101.07783508300781 29.85759925842285 103.16761016845703 475.7068786621094 100.20431518554688 C 154.04588317871094 89.46771240234375 -147.5489501953125 100.17208099365234 205.62896728515625 93.10261535644531 C 173.3083953857422 92.46916961669922 -3.2487897872924805 101.1590347290039 -88.21621704101562 82.33483123779297 C 546.0962524414062 84.69194030761719 275.07659912109375 75.19368743896484 382.9851379394531 107.41868591308594"/>
    <path stroke-width="0" fill="rgb(265, 265, 267)" opacity="0.9968091" stroke="rgb(56, 242, 114)" stroke-opacity="1.0" stroke-linecap="round" stroke-linejoin="round" d="M -18.210390090942383 132.1743927001953 C -136.2091827392578 143.7476348876953 -12.238762855529785 135.34451293945312 714.1171264648438 139.7498779296875 C 658.3511962890625 122.80614471435547 389.81488037109375 129.6673583984375 18.23518943786621 126.58589172363281 C -77.87831115722656 132.6981658935547 -156.76878356933594 88.87477111816406 253.4253387451172 126.23858642578125 C -37.904296875 126.9919662475586 -91.17671966552734 118.65996551513672 -18.210390090942383 132.1743927001953"/>
    <path stroke-width="0" fill="rgb(16, 16, 4)" opacity="1.0176117" stroke="rgb(178, 75, 207)" stroke-opacity="1.0" stroke-linecap="round" stroke-linejoin="round" d="M 186.12884521484375 325.33245849609375 C 114.38212585449219 311.1758117675781 128.12799072265625 293.7899169921875 246.1566162109375 304.8690185546875 C 189.68873596191406 327.800537109375 110.343017578125 326.6298522949219 33.31383514404297 320.09442138671875 C 154.428955078125 306.9129333496094 182.15557861328125 320.9905700683594 118.38018798828125 321.69232177734375 C 132.7718963623047 326.0722961425781 146.795654296875 308.7131652832031 186.12884521484375 325.33245849609375"/>
    <path stroke-width="0" fill="rgb(278, 263, 265)" opacity="1.0498478" stroke="rgb(224, 148, 224)" stroke-opacity="1.0" stroke-linecap="round" stroke-linejoin="round" d="M 485.706787109375 313.5539245605469 C 482.5004577636719 252.66619873046875 485.4007873535156 274.73004150390625 481.2582702636719 286.47491455078125 C 473.5061950683594 270.9769287109375 486.2306823730469 235.03099060058594 468.9422607421875 186.81283569335938 C 475.45947265625 243.04934692382812 473.058837890625 224.58267211914062 494.7491149902344 207.313232421875 C 496.87188720703125 256.91339111328125 499.0826110839844 346.36761474609375 485.706787109375 313.5539245605469"/>
    <path stroke-width="0" fill="rgb(30, 14, 8)" opacity="0.9815753" stroke="rgb(184, 127, 243)" stroke-opacity="1.0" stroke-linecap="round" stroke-linejoin="round" d="M 108.98990631103516 327.3563537597656 C -22.470640182495117 334.54180908203125 -36.25338363647461 319.9742736816406 1.0631694793701172 358.4853515625 C 18.589317321777344 287.2844543457031 0.8950023651123047 354.526123046875 -62.02448654174805 325.3365783691406 C 33.157203674316406 312.90521240234375 63.44875717163086 310.7394104003906 82.77127075195312 314.98468017578125 C 24.842309951782227 305.8472900390625 45.849117279052734 291.54547119140625 108.98990631103516 327.3563537597656"/>
    <path stroke-width="0" fill="rgb(-2, 8, 5)" opacity="1.0835167" stroke="rgb(108, 154, 4)" stroke-opacity="1.0" stroke-linecap="round" stroke-linejoin="round" d="M 192.47808837890625 310.7355041503906 C 282.52197265625 333.5540466308594 184.90682983398438 300.1842346191406 286.4438781738281 332.63348388671875 C 51.433387756347656 332.2338562011719 -23.02039337158203 339.99859619140625 175.07858276367188 316.7806701660156 C 187.01568603515625 304.5336608886719 186.1247100830078 302.0953369140625 166.0149383544922 312.1898193359375 C 189.93572998046875 322.30059814453125 192.63027954101562 319.3656005859375 192.47808837890625 310.7355041503906"/>
    <path stroke-width="0" fill="rgb(23, 28, 49)" opacity="0.78409916" stroke="rgb(168, 73, 157)" stroke-opacity="1.0" stroke-linecap="round" stroke-linejoin="round" d="M 288.6619873046875 328.8758850097656 C 166.8258056640625 312.4187316894531 134.3433074951172 318.3171691894531 407.51397705078125 297.4870300292969 C 366.4726257324219 299.3182678222656 119.12226867675781 298.9620666503906 -103.6361083984375 297.61041259765625 C 163.2748260498047 364.9133605957031 216.68724060058594 278.0896911621094 181.63204956054688 321.5686340332031 C 182.2030029296875 323.4542541503906 217.45289611816406 301.7248840332031 288.6619873046875 328.8758850097656"/>
    <path stroke-width="0" fill="rgb(-19, -1, -8)" opacity="0.7945337" stroke="rgb(34, 76, 145)" stroke-opacity="1.0" stroke-linecap="round" stroke-linejoin="round" d="M 226.1223907470703 320.28582763671875 C 173.6634063720703 301.3144836425781 160.45590209960938 288.94158935546875 114.20758819580078 324.5995178222656 C 141.99185180664062 326.5127258300781 138.32196044921875 295.459716796875 197.2639923095703 323.310791015625 C 211.4912872314453 322.817138671875 222.02151489257812 326.20269775390625 194.95040893554688 315.3114013671875 C 170.9883575439453 321.93035888671875 180.44113159179688 328.20361328125 226.1223907470703 320.28582763671875"/>
    <path stroke-width="0" fill="rgb(-16, -2, 5)" opacity="1.0345654" stroke="rgb(146, 166, 166)" stroke-opacity="1.0" stroke-linecap="round" stroke-linejoin="round" d="M 477.58154296875 323.3793029785156 C 396.31268310546875 289.5947570800781 298.9622497558594 313.9259033203125 175.97569274902344 324.4542236328125 C 341.99688720703125 339.5202331542969 334.0876159667969 327.8846130371094 307.5366516113281 336.56591796875 C 305.4207458496094 337.9407958984375 294.10272216796875 320.3761291503906 319.8895263671875 345.01055908203125 C 323.65313720703125 343.007568359375 315.2872314453125 325.02569580078125 477.58154296875 323.3793029785156"/>
    <path stroke-width="0" fill="rgb(195, 195, 168)" opacity="0.83156514" stroke="rgb(228, 93, 111)" stroke-opacity="1.0" stroke-linecap="round" stroke-linejoin="round" d="M 341.0845947265625 359.43768310546875 C 403.2984619140625 364.2464294433594 296.3124084472656 369.71441650390625 307.30059814453125 360.6806335449219 C 328.7331848144531 349.68743896484375 264.1052551269531 346.2442321777344 282.6100158691406 356.03607177734375 C 271.171142578125 320.96405029296875 285.1198425292969 338.76678466796875 289.0744934082031 332.3837585449219 C 341.1092529296875 334.9911193847656 306.93951416015625 322.5745544433594 341.0845947265625 359.43768310546875"/>
    <path stroke-width="0" fill="rgb(-18, -14, 0)" opacity="0.9796752" stroke="rgb(205, 179, 25)" stroke-opacity="1.0" stroke-linecap="round" stroke-linejoin="round" d="M 461.07373046875 329.2122497558594 C 615.053955078125 332.65533447265625 543.8329467773438 327.7093505859375 495.0006103515625 324.1266174316406 C 417.13873291015625 352.9714660644531 405.9208068847656 290.7358093261719 433.6792907714844 308.65411376953125 C 516.6243896484375 308.8691711425781 509.5037536621094 287.1155700683594 529.6028442382812 290.365478515625 C 458.28875732421875 288.33013916015625 532.9688720703125 316.0062255859375 461.07373046875 329.2122497558594"/>
    <path stroke-width="0" fill="rgb(34, 120, 86)" opacity="0.9847169" stroke="rgb(182, 254, 38)" stroke-opacity="1.0" stroke-linecap="round" stroke-linejoin="round" d="M 473.5267028808594 172.21946716308594 C 504.03143310546875 207.4444580078125 450.5390319824219 205.66860961914062 526.5532836914062 208.7196044921875 C 487.4210510253906 209.49313354492188 515.43798828125 202.49697875976562 493.1573181152344 205.54165649414062 C 505.49896240234375 204.46302795410156 518.4208984375 206.51231384277344 436.3664245605469 208.15306091308594 C 454.6190490722656 302.3350830078125 487.7068176269531 303.52288818359375 473.5267028808594 172.21946716308594"/>
    <path stroke-width="0" fill="rgb(-8, 30, 8)" opacity="0.5188052" stroke="rgb(41, 156, 31)" stroke-opacity="1.0" stroke-linecap="round" stroke-linejoin="round" d="M 11.808191299438477 266.92822265625 C 36.2628288269043 179.97215270996094 -50.657596588134766 206.80332946777344 256.76458740234375 203.12278747558594 C 187.46664428710938 229.35179138183594 19.96143913269043 174.3149871826172 50.430458068847656 273.4046630859375 C 50.52351760864258 234.298583984375 31.25454330444336 224.45997619628906 105.44953918457031 211.7293243408203 C -17.123477935791016 217.18528747558594 44.96728515625 187.70623779296875 11.808191299438477 266.92822265625"/>
    <path stroke-width="0" fill="rgb(-13, -4, 7)" opacity="0.7352594" stroke="rgb(205, 145, 103)" stroke-opacity="1.0" stroke-linecap="round" stroke-linejoin="round" d="M 325.8162536621094 315.84979248046875 C 426.8302307128906 307.33251953125 364.1439208984375 328.439697265625 346.90960693359375 330.2507019042969 C 299.4815673828125 333.2525939941406 225.81954956054688 338.0989685058594 126.78294372558594 316.9110107421875 C -66.97893524169922 301.85943603515625 91.96273803710938 305.1536865234375 487.48822021484375 297.7572326660156 C 337.2030334472656 326.9100036621094 315.80303955078125 280.1574401855469 325.8162536621094 315.84979248046875"/>
    <path stroke-width="0" fill="rgb(-12, -15, -12)" opacity="0.88460535" stroke="rgb(177, 115, 184)" stroke-opacity="1.0" stroke-linecap="round" stroke-linejoin="round" d="M 433.9633483886719 351.25286865234375 C 628.3885498046875 349.07061767578125 667.5077514648438 349.7450256347656 549.1735229492188 381.3067321777344 C 97.0367431640625 379.9033508300781 -15.124217987060547 389.6881408691406 345.54632568359375 349.710693359375 C 419.6441955566406 358.2069091796875 371.4011535644531 338.4894714355469 375.9141540527344 348.1022644042969 C 306.5923767089844 324.2521667480469 524.0204467773438 324.3254089355469 433.9633483886719 351.25286865234375"/>
    <path stroke-width="0" fill="rgb(58, 36, 36)" opacity="1.1092259" stroke="rgb(248, 218, 2)" stroke-opacity="1.0" stroke-linecap="round" stroke-linejoin="round" d="M -51.72652816772461 503.4122314453125 C 478.5267028808594 509.1939697265625 501.7796325683594 496.0882873535156 52.32196807861328 499.1372985839844 C 62.78833770751953 456.8609924316406 56.3446044921875 484.65264892578125 -31.92623519897461 472.86334228515625 C 64.68070220947266 465.8064880371094 66.70462799072266 472.800537109375 56.13277816772461 470.1048583984375 C 52.45148849487305 522.8040771484375 87.20951843261719 484.7325134277344 -51.72652816772461 503.4122314453125"/>
    <path stroke-width="0" fill="rgb(30, 25, 25)" opacity="1.0949172" stroke="rgb(186, 43, 132)" stroke-opacity="1.0" stroke-linecap="round" stroke-linejoin="round" d="M 321.90277099609375 372.3558044433594 C 303.85162353515625 323.6681823730469 320.42279052734375 367.7000427246094 9.310019493103027 358.44293212890625 C 400.9654541015625 356.19927978515625 390.62548828125 355.201904296875 194.65777587890625 358.02716064453125 C 337.18780517578125 343.68328857421875 205.2538604736328 357.9935302734375 -210.1403350830078 345.88055419921875 C -49.17289352416992 377.06689453125 -29.305526733398438 359.1195373535156 321.90277099609375 372.3558044433594"/>
    <path stroke-width="0" fill="rgb(43, 118, 86)" opacity="0.39746088" stroke="rgb(50, 4, 202)" stroke-opacity="1.0" stroke-linecap="round" stroke-linejoin="round" d="M 458.11285400390625 206.55210876464844 C 481.43255615234375 337.10467529296875 458.1484375 205.2529754638672 459.6114196777344 209.7081298828125 C 461.4521484375 205.16278076171875 460.5450134277344 258.0950622558594 466.72515869140625 221.34841918945312 C 453.7985534667969 316.9952087402344 481.7322692871094 258.6119384765625 487.09490966796875 243.18997192382812 C 450.78643798828125 295.3635559082031 468.8334655761719 272.85296630859375 458.11285400390625 206.55210876464844"/>
    <path stroke-width="0" fill="rgb(87, 4, -20)" opacity="0.6481351" stroke="rgb(88, 236, 179)" stroke-opacity="1.0" stroke-linecap="round" stroke-linejoin="round" d="M 496.7554016113281 146.37008666992188 C 495.9483947753906 156.40223693847656 495.7916259765625 306.567138671875 492.2430114746094 318.1075744628906 C 474.98577880859375 233.1125946044922 476.00396728515625 244.62779235839844 492.2266845703125 316.82720947265625 C 505.52789306640625 189.64364624023438 477.1783752441406 196.9546356201172 535.1326293945312 207.28099060058594 C 468.7271728515625 195.7826690673828 509.57977294921875 254.91896057128906 496.7554016113281 146.37008666992188"/>
    <path stroke-width="0" fill="rgb(256, 257, 253)" opacity="1.0415441" stroke="rgb(41, 158, 147)" stroke-opacity="1.0" stroke-linecap="round" stroke-linejoin="round" d="M 316.6998291015625 306.1441650390625 C 250.96348571777344 319.43658447265625 210.3823699951172 312.8773193359375 161.29171752929688 317.3701477050781 C 240.22802734375 311.40362548828125 201.46348571777344 318.3772888183594 84.40576934814453 311.2070617675781 C 207.66395568847656 288.64752197265625 270.4157409667969 314.5207824707031 275.940185546875 298.6161193847656 C 261.3675842285156 314.77801513671875 275.68182373046875 295.473388671875 316.6998291015625 306.1441650390625"/>
    <path stroke-width="0" fill="rgb(274, 274, 268)" opacity="0.70627934" stroke="rgb(238, 156, 136)" stroke-opacity="1.0" stroke-linecap="round" stroke-linejoin="round" d="M 424.4910583496094 274.1050109863281 C 443.4713134765625 264.1800537109375 435.84814453125 279.7640686035156 434.6763916015625 229.83709716796875 C 437.7252197265625 224.987060546875 430.6641540527344 213.83522033691406 438.0162048339844 273.7366943359375 C 433.4893798828125 278.80865478515625 436.8948059082031 264.3722229003906 418.391357421875 270.507080078125 C 423.73529052734375 287.1430358886719 413.9407043457031 256.0354919433594 424.4910583496094 274.1050109863281"/>
    <path stroke-width="0" fill="rgb(17, 8, 32)" opacity="1.1482654" stroke="rgb(186, 79, 101)" stroke-opacity="1.0" stroke-linecap="round" stroke-linejoin="round" d="M 420.71136474609375 475.6161193847656 C 292.5523376464844 473.13751220703125 314.0309143066406 469.0345458984375 322.0087585449219 468.6834411621094 C 315.0245361328125 470.3069763183594 279.75067138671875 468.6141662597656 608.6807250976562 471.0492248535156 C 388.8390808105469 484.179443359375 352.2911376953125 465.8961486816406 200.82928466796875 471.0843811035156 C 147.11448669433594 475.36199951171875 208.04132080078125 473.9960632324219 420.71136474609375 475.6161193847656"/>
    <path stroke-width="0" fill="rgb(-14, -11, -6)" opacity="0.83208305" stroke="rgb(47, 240, 188)" stroke-opacity="1.0" stroke-linecap="round" stroke-linejoin="round" d="M 268.8968505859375 355.0506591796875 C 295.9635009765625 334.92535400390625 300.9560241699219 368.3089294433594 506.5248718261719 357.796630859375 C 365.68218994140625 354.9578857421875 344.86749267578125 356.7952880859375 341.2756652832031 355.64373779296875 C 308.7973937988281 348.6866149902344 337.89263916015625 364.8797302246094 328.1909484863281 319.5545654296875 C 409.2337646484375 290.2327880859375 409.1158752441406 370.0252990722656 268.8968505859375 355.0506591796875"/>
    <path stroke-width="0" fill="rgb(-14, -21, -11)" opacity="0.9574372" stroke="rgb(57, 64, 14)" stroke-opacity="1.0" stroke-linecap="round" stroke-linejoin="round" d="M 478.977294921875 174.84234619140625 C 464.8448486328125 241.18438720703125 484.2339172363281 446.72760009765625 483.0924377441406 179.85614013671875 C 418.6691589355469 186.96116638183594 463.1669921875 142.9493865966797 436.5338134765625 356.1993408203125 C 430.57464599609375 158.51890563964844 437.4132385253906 182.1122283935547 441.7913818359375 179.42852783203125 C 443.2314453125 165.93734741210938 490.7606506347656 177.2503662109375 478.977294921875 174.84234619140625"/>
    <path stroke-width="0" fill="rgb(141, 149, 113)" opacity="0.98232985" stroke="rgb(79, 177, 96)" stroke-opacity="1.0" stroke-linecap="round" stroke-linejoin="round" d="M 632.7329711914062 77.57987976074219 C 546.488525390625 161.97373962402344 547.1703491210938 179.0548858642578 502.465087890625 188.33657836914062 C 489.0552062988281 163.5818634033203 478.84930419921875 60.51640319824219 486.6632080078125 55.6092643737793 C 525.865234375 105.37643432617188 511.35711669921875 79.00494384765625 494.9598388671875 49.78479766845703 C 402.55303955078125 10.893110275268555 440.2369079589844 -95.01529693603516 632.7329711914062 77.57987976074219"/>
    <path stroke-width="0" fill="rgb(279, 269, 271)" opacity="0.9942123" stroke="rgb(6, 17, 173)" stroke-opacity="1.0" stroke-linecap="round" stroke-linejoin="round" d="M 491.34295654296875 302.06103515625 C 511.5386047363281 318.8414001464844 471.47210693359375 304.9372253417969 486.3853454589844 308.8334655761719 C 287.425537109375 307.39794921875 179.44761657714844 310.0258483886719 155.5169219970703 301.80804443359375 C 301.4627380371094 299.3800354003906 371.2763671875 300.0544738769531 430.4669494628906 302.28619384765625 C 337.9056396484375 299.3471984863281 312.30657958984375 298.50360107421875 491.34295654296875 302.06103515625"/>
    <path stroke-width="0" fill="rgb(8, 6, 19)" opacity="1.0408682" stroke="rgb(136, 228, 252)" stroke-opacity="1.0" stroke-linecap="round" stroke-linejoin="round" d="M -70.16886138916016 471.0914306640625 C 30.035207748413086 465.0907287597656 81.2332763671875 469.3367919921875 26.23784828186035 469.19317626953125 C 87.29531860351562 468.2777404785156 159.28878784179688 467.91046142578125 346.61004638671875 470.02587890625 C 386.80694580078125 478.073974609375 209.2617950439453 476.61956787109375 23.016984939575195 477.1098327636719 C 54.160640716552734 475.7035217285156 35.61903762817383 480.3947448730469 -70.16886138916016 471.0914306640625"/>
    <path stroke-width="0" fill="rgb(37, 47, 34)" opacity="0.9447876" stroke="rgb(169, 67, 5)" stroke-opacity="1.0" stroke-linecap="round" stroke-linejoin="round" d="M 120.67607879638672 319.85162353515625 C 113.97437286376953 338.77105712890625 53.62127685546875 311.8565673828125 25.721906661987305 313.5851745605469 C 117.11014556884766 310.9450378417969 125.82318115234375 313.9725036621094 120.28304290771484 317.3125305175781 C 91.67333984375 323.57379150390625 102.59729766845703 333.9570617675781 136.5608673095703 325.4178161621094 C 49.96462631225586 319.2851867675781 46.993412017822266 300.5013122558594 120.67607879638672 319.85162353515625"/>
    <path stroke-width="0" fill="rgb(278, 271, 269)" opacity="0.9928661" stroke="rgb(81, 97, 150)" stroke-opacity="1.0" stroke-linecap="round" stroke-linejoin="round" d="M 133.25341796875 321.32611083984375 C 116.98234558105469 310.14727783203125 110.93712615966797 312.35467529296875 114.41439056396484 323.58905029296875 C 135.30287170410156 294.8041687011719 52.923545837402344 337.4775085449219 -64.02855682373047 300.33319091796875 C 205.13555908203125 300.69866943359375 245.58575439453125 300.5997314453125 190.373291015625 302.83270263671875 C 89.53907775878906 321.9488830566406 118.47410583496094 308.8638000488281 133.25341796875 321.32611083984375"/>
    <path stroke-width="0" fill="rgb(55, 12, 22)" opacity="0.9446375" stroke="rgb(160, 222, 69)" stroke-opacity="1.0" stroke-linecap="round" stroke-linejoin="round" d="M 487.66827392578125 441.9207763671875 C 354.1199645996094 436.1501770019531 416.4123229980469 427.6749572753906 -155.58192443847656 437.3245849609375 C 652.2965087890625 453.9950866699219 500.9113464355469 415.345703125 503.5116882324219 433.6129150390625 C 273.9698486328125 450.3600158691406 545.3375854492188 436.6962585449219 247.91607666015625 433.1775817871094 C 506.2273254394531 434.7678527832031 631.2368774414062 433.3738098144531 487.66827392578125 441.9207763671875"/>
    <path stroke-width="0" fill="rgb(-12, -5, 5)" opacity="0.99707484" stroke="rgb(241, 186, 64)" stroke-opacity="1.0" stroke-linecap="round" stroke-linejoin="round" d="M 375.68634033203125 308.57586669921875 C 15.20149040222168 350.0966491699219 -164.6383056640625 329.73516845703125 12.605330467224121 315.673828125 C 99.73844909667969 315.4635314941406 24.26951789855957 315.6316833496094 -78.14689636230469 318.84710693359375 C -1.3048661947250366 317.52337646484375 34.21998977661133 338.5412292480469 -49.20403289794922 306.6048889160156 C -133.8236846923828 308.9886779785156 125.80270385742188 307.1816101074219 375.68634033203125 308.57586669921875"/>
    <path stroke-width="0" fill="rgb(254, 271, 264)" opacity="0.8677066" stroke="rgb(95, 118, 70)" stroke-opacity="1.0" stroke-linecap="round" stroke-linejoin="round" d="M 544.7366943359375 201.7100067138672 C 476.4194030761719 163.3398895263672 507.10577392578125 192.09214782714844 498.18365478515625 211.34642028808594 C 491.8935241699219 208.7735595703125 494.0705261230469 196.61630249023438 491.6458435058594 310.1072692871094 C 476.9995422363281 320.66839599609375 485.6085205078125 190.73684692382812 483.0390625 159.18307495117188 C 506.5498046875 211.7703094482422 474.3656311035156 211.57835388183594 544.7366943359375 201.7100067138672"/>
    <path stroke-width="0" fill="rgb(38, 21, 9)" opacity="0.97514606" stroke="rgb(36, 124, 90)" stroke-opacity="1.0" stroke-linecap="round" stroke-linejoin="round" d="M 345.3047790527344 487.1305236816406 C 347.087890625 509.71142578125 329.7754211425781 506.1329345703125 463.2622375488281 500.9469909667969 C 384.1290283203125 503.5465087890625 358.32196044921875 495.09356689453125 306.7080383300781 501.49969482421875 C 302.3755798339844 473.1488342285156 324.5801696777344 502.677978515625 310.82696533203125 498.6451110839844 C 355.99310302734375 511.5142822265625 363.3216247558594 494.05963134765625 345.3047790527344 487.1305236816406"/>
    <path stroke-width="0" fill="rgb(201, 156, 190)" opacity="0.6553889" stroke="rgb(140, 149, 245)" stroke-opacity="1.0" stroke-linecap="round" stroke-linejoin="round" d="M 81.107177734375 383.4442138671875 C 64.09143829345703 370.26409912109375 32.12513732910156 359.2512512207031 83.02691650390625 369.83941650390625 C 125.12181854248047 357.4875183105469 110.16071319580078 371.3957824707031 112.1595687866211 372.6724853515625 C 27.639732360839844 376.8863220214844 55.318092346191406 371.72900390625 85.9286117553711 388.77056884765625 C 77.31956481933594 383.0157470703125 81.00028991699219 394.8768310546875 81.107177734375 383.4442138671875"/>
    <path stroke-width="0" fill="rgb(49, 73, 38)" opacity="0.6717814" stroke="rgb(170, 200, 71)" stroke-opacity="1.0" stroke-linecap="round" stroke-linejoin="round" d="M 360.85858154296875 558.301513671875 C 347.203369140625 524.4362182617188 333.47454833984375 494.4510803222656 353.601806640625 501.01934814453125 C 435.9600830078125 504.5152893066406 345.15826416015625 502.7539367675781 316.51611328125 504.8895263671875 C 360.427734375 512.9999389648438 347.0408020019531 472.25067138671875 348.40020751953125 499.2235107421875 C 333.972900390625 516.950439453125 357.3655090332031 535.434814453125 360.85858154296875 558.301513671875"/>
    <path stroke-width="0" fill="rgb(16, 64, 6)" opacity="0.9152053" stroke="rgb(16, 123, 249)" stroke-opacity="1.0" stroke-linecap="round" stroke-linejoin="round" d="M 349.0726013183594 444.5420837402344 C 370.7181701660156 446.1974792480469 330.1803894042969 434.06048583984375 396.48492431640625 445.0636291503906 C 346.4822082519531 436.1690979003906 365.3713684082031 429.27362060546875 356.41009521484375 448.6136779785156 C 394.62017822265625 443.9241027832031 385.7958984375 451.3338928222656 356.2966613769531 448.5098876953125 C 318.48223876953125 446.7529602050781 320.5042724609375 449.1457214355469 349.0726013183594 444.5420837402344"/>
    <path stroke-width="0" fill="rgb(10, 1, 3)" opacity="1.0001671" stroke="rgb(240, 203, 160)" stroke-opacity="1.0" stroke-linecap="round" stroke-linejoin="round" d="M -18.978273391723633 370.7970275878906 C 34.28617858886719 347.9277648925781 31.28415298461914 358.91827392578125 1.39420485496521 364.2810363769531 C 90.5221939086914 357.8553161621094 73.06472778320312 371.68408203125 87.80149841308594 351.3670654296875 C 59.67195129394531 386.3245544433594 76.6596908569336 342.0104675292969 -28.72266960144043 377.948974609375 C 145.5224151611328 384.6945495605469 381.6213684082031 369.15667724609375 -18.978273391723633 370.7970275878906"/>
    <path stroke-width="0" fill="rgb(12, 18, 53)" opacity="0.95315474" stroke="rgb(88, 37, 250)" stroke-opacity="1.0" stroke-linecap="round" stroke-linejoin="round" d="M 352.19586181640625 504.4653625488281 C 336.95367431640625 477.7375793457031 355.2027282714844 486.3878479003906 348.1703796386719 540.0375366210938 C 387.3179016113281 539.7442626953125 369.2984619140625 495.6587829589844 386.43865966796875 508.7436218261719 C 387.4056396484375 495.8558044433594 383.6906433105469 460.057861328125 375.7111511230469 548.0409545898438 C 340.93963623046875 510.184326171875 354.13916015625 504.029541015625 352.19586181640625 504.4653625488281"/>
    <path stroke-width="0" fill="rgb(6, 8, 54)" opacity="1.0676867" stroke="rgb(209, 48, 130)" stroke-opacity="1.0" stroke-linecap="round" stroke-linejoin="round" d="M 69.72172546386719 445.7608947753906 C 83.7794189453125 452.9126892089844 15.462801933288574 443.6895751953125 -55.473976135253906 447.7662048339844 C 104.52770233154297 448.4274597167969 106.51443481445312 447.4623107910156 102.61014556884766 448.900634765625 C 88.7952651977539 447.298828125 87.01091003417969 446.1509094238281 66.5491943359375 449.1721496582031 C 65.04405212402344 413.8986511230469 78.56412506103516 457.73614501953125 69.72172546386719 445.7608947753906"/>
    <path stroke-width="0" fill="rgb(5, -11, -12)" opacity="1.1755296" stroke="rgb(185, 2, 196)" stroke-opacity="1.0" stroke-linecap="round" stroke-linejoin="round" d="M 106.46989440917969 451.4281921386719 C 89.624755859375 441.788330078125 102.73521423339844 431.8436279296875 131.5362548828125 437.0067443847656 C 136.01182556152344 457.74603271484375 121.63643646240234 444.8604736328125 -11.082332611083984 449.5433349609375 C 128.31976318359375 444.1988525390625 138.69830322265625 452.8335266113281 136.81451416015625 443.1611022949219 C 137.74066162109375 434.3260498046875 94.94487762451172 426.2347717285156 106.46989440917969 451.4281921386719"/>
    <path stroke-width="0" fill="rgb(38, 31, 18)" opacity="1.1294966" stroke="rgb(20, 22, 171)" stroke-opacity="1.0" stroke-linecap="round" stroke-linejoin="round" d="M 462.8962097167969 491.106201171875 C 442.5168151855469 489.83795166015625 470.4624328613281 524.2850952148438 497.347900390625 491.72998046875 C 580.0032958984375 485.0710754394531 572.2141723632812 489.40325927734375 138.24057006835938 491.802490234375 C 328.17578125 498.8338317871094 617.6748046875 484.0434875488281 450.48828125 501.97515869140625 C 475.88299560546875 495.3564147949219 460.59912109375 509.5444641113281 462.8962097167969 491.106201171875"/>
    <path stroke-width="0" fill="rgb(-36, 0, -14)" opacity="1.0166129" stroke="rgb(107, 142, 219)" stroke-opacity="1.0" stroke-linecap="round" stroke-linejoin="round" d="M 344.1333923339844 429.2947998046875 C 282.5937194824219 431.4411315917969 342.19866943359375 426.6250915527344 312.3021240234375 435.8171081542969 C 393.47711181640625 441.64825439453125 340.1766357421875 445.8644104003906 318.2548522949219 440.4396667480469 C 348.2682189941406 422.3674621582031 310.1280517578125 437.1062316894531 -37.67501449584961 426.18035888671875 C 752.2824096679688 422.1903991699219 728.8440551757812 431.78948974609375 344.1333923339844 429.2947998046875"/>
    <path stroke-width="0" fill="rgb(5, 112, 27)" opacity="1.0227616" stroke="rgb(68, 33, 14)" stroke-opacity="1.0" stroke-linecap="round" stroke-linejoin="round" d="M 164.4395751953125 433.4788818359375 C 149.5582733154297 452.1815490722656 217.68783569335938 443.0995178222656 -63.6396484375 448.5130615234375 C 375.6759033203125 452.93292236328125 427.42529296875 446.05133056640625 174.2881317138672 448.8306884765625 C 154.16793823242188 449.0776672363281 168.03189086914062 454.46514892578125 167.24317932128906 435.8952941894531 C 165.87380981445312 434.600830078125 167.54940795898438 453.69329833984375 164.4395751953125 433.4788818359375"/>
    <path stroke-width="0" fill="rgb(169, 109, 167)" opacity="0.5118898" stroke="rgb(66, 116, 174)" stroke-opacity="1.0" stroke-linecap="round" stroke-linejoin="round" d="M 238.556396484375 369.3583068847656 C 206.4608612060547 366.223876953125 194.49842834472656 362.29779052734375 236.99929809570312 374.31854248046875 C 199.64877319335938 362.2574157714844 192.61019897460938 353.26885986328125 155.41757202148438 333.3131103515625 C 190.6171417236328 349.8243103027344 197.02374267578125 366.086669921875 234.3090057373047 369.04791259765625 C 57.20814895629883 376.7081604003906 87.0048599243164 363.1073303222656 238.556396484375 369.3583068847656"/>
    <path stroke-width="0" fill="rgb(9, 19, 39)" opacity="0.9206463" stroke="rgb(14, 177, 198)" stroke-opacity="1.0" stroke-linecap="round" stroke-linejoin="round" d="M 354.81341552734375 354.520751953125 C 382.5303955078125 362.8377990722656 372.1639099121094 358.8346862792969 397.5593566894531 359.22344970703125 C 418.6687316894531 348.0067138671875 413.6444091796875 343.1064453125 414.2845764160156 340.4617614746094 C 425.9280090332031 372.1873474121094 414.7144775390625 344.15948486328125 412.8155822753906 360.1156005859375 C 428.2369079589844 370.83001708984375 378.3455810546875 353.42425537109375 354.81341552734375 354.520751953125"/>
    <path stroke-width="0" fill="rgb(45, 35, 18)" opacity="0.9799067" stroke="rgb(66, 95, 149)" stroke-opacity="1.0" stroke-linecap="round" stroke-linejoin="round" d="M 428.14990234375 521.7070922851562 C 410.2697448730469 488.8282775878906 446.5100402832031 495.867431640625 440.1968994140625 501.7188720703125 C 438.798583984375 500.49615478515625 403.40155029296875 497.83929443359375 338.5690002441406 499.3174743652344 C 405.2544860839844 506.4638671875 439.46221923828125 510.8680419921875 445.6904296875 504.70166015625 C 395.90081787109375 473.1953125 429.0799255371094 510.3280029296875 428.14990234375 521.7070922851562"/>
    <path stroke-width="0" fill="rgb(44, 24, 20)" opacity="0.8201654" stroke="rgb(203, 19, 132)" stroke-opacity="1.0" stroke-linecap="round" stroke-linejoin="round" d="M 580.226806640625 509.9042053222656 C 539.5098876953125 498.4736328125 248.9987335205078 512.6876220703125 196.42352294921875 497.0721130371094 C 452.2995300292969 496.4691467285156 495.7496643066406 504.4768981933594 500.6748962402344 492.0372009277344 C 529.1749267578125 496.79193115234375 578.6920166015625 491.1705017089844 414.9335021972656 490.9582824707031 C 507.2904357910156 487.169921875 471.31402587890625 493.47821044921875 580.226806640625 509.9042053222656"/>
    <path stroke-width="0" fill="rgb(237, 252, 256)" opacity="0.7263926" stroke="rgb(70, 32, 100)" stroke-opacity="1.0" stroke-linecap="round" stroke-linejoin="round" d="M 402.23187255859375 87.81875610351562 C 419.2090759277344 80.12989044189453 433.7286071777344 87.41499328613281 405.0634460449219 93.68791961669922 C 410.75494384765625 93.57139587402344 434.7133483886719 81.54425811767578 420.5650939941406 92.64190673828125 C 426.0432434082031 92.96142578125 420.1341247558594 74.25727844238281 402.885009765625 86.28341674804688 C 394.7975769042969 96.52349853515625 396.5950622558594 89.57376861572266 402.23187255859375 87.81875610351562"/>
    <path stroke-width="0" fill="rgb(38, 28, 19)" opacity="0.8752281" stroke="rgb(47, 230, 138)" stroke-opacity="1.0" stroke-linecap="round" stroke-linejoin="round" d="M 226.94851684570312 449.7376403808594 C 224.84068298339844 435.7361755371094 238.3804473876953 439.4179992675781 231.33299255371094 449.146728515625 C 426.703125 448.9251403808594 406.11700439453125 445.617919921875 259.7270812988281 451.5632019042969 C 259.4762268066406 419.3051452636719 281.911865234375 455.89154052734375 242.75222778320312 447.8656311035156 C 247.9833526611328 450.46380615234375 223.25743103027344 444.4752197265625 226.94851684570312 449.7376403808594"/>
    <path stroke-width="0" fill="rgb(210, 194, 203)" opacity="0.8626005" stroke="rgb(230, 175, 178)" stroke-opacity="1.0" stroke-linecap="round" stroke-linejoin="round" d="M 176.315185546875 367.4055480957031 C 176.86854553222656 378.5478515625 231.80108642578125 362.2566223144531 257.5104675292969 364.2049255371094 C 231.77627563476562 364.69775390625 230.84744262695312 361.2492980957031 234.45591735839844 375.28765869140625 C 228.26210021972656 372.86517333984375 225.08535766601562 372.9429016113281 425.065185546875 369.443115234375 C 120.32624053955078 356.9053649902344 319.1785888671875 382.4536437988281 176.315185546875 367.4055480957031"/>
    <path stroke-width="0" fill="rgb(227, 242, 297)" opacity="0.10904646" stroke="rgb(192, 162, 61)" stroke-opacity="1.0" stroke-linecap="round" stroke-linejoin="round" d="M 455.5318298339844 297.58221435546875 C 461.3922119140625 292.9240417480469 437.899658203125 296.0224914550781 449.1462097167969 258.11474609375 C 443.348388671875 281.32452392578125 451.45074462890625 284.6538391113281 460.3369140625 287.66387939453125 C 460.6710205078125 296.9212951660156 468.92266845703125 294.79046630859375 450.8929138183594 327.00885009765625 C 468.111328125 298.39892578125 471.1468811035156 299.9730224609375 455.5318298339844 297.58221435546875"/>
    <path stroke-width="0" fill="rgb(141, 120, 137)" opacity="0.55852216" stroke="rgb(209, 231, 207)" stroke-opacity="1.0" stroke-linecap="round" stroke-linejoin="round" d="M 552.2594604492188 499.6295471191406 C 396.94830322265625 501.85186767578125 428.618896484375 487.4657287597656 426.1194763183594 518.3981323242188 C 426.5672607421875 511.2632751464844 425.128662109375 520.43310546875 422.4844055175781 507.3392333984375 C 438.455810546875 478.213134765625 395.6358642578125 499.0758056640625 496.2506408691406 497.5719909667969 C 431.0768127441406 472.89617919921875 415.2459411621094 485.4614562988281 552.2594604492188 499.6295471191406"/>
    <path stroke-width="0" fill="rgb(21, 71, 98)" opacity="0.9344669" stroke="rgb(160, 101, 15)" stroke-opacity="1.0" stroke-linecap="round" stroke-linejoin="round" d="M 376.15350341796875 272.428955078125 C 482.4523620605469 271.6100158691406 242.22933959960938 243.45042419433594 301.4368591308594 203.9494171142578 C 442.15167236328125 200.9478759765625 394.5309143066406 189.77886962890625 403.810546875 270.303466796875 C 357.2372741699219 247.59561157226562 363.7785949707031 263.4226379394531 289.6105651855469 224.96243286132812 C 303.6607666015625 279.4666748046875 269.9262390136719 272.0892333984375 376.15350341796875 272.428955078125"/>
    <path stroke-width="0" fill="rgb(37, 14, 0)" opacity="1.0252051" stroke="rgb(65, 216, 8)" stroke-opacity="1.0" stroke-linecap="round" stroke-linejoin="round" d="M 226.32540893554688 493.88116455078125 C 213.41921997070312 493.85455322265625 120.11116027832031 488.5291442871094 -119.81024169921875 490.5588684082031 C 238.68199157714844 493.9667663574219 215.31817626953125 478.98291015625 207.24652099609375 503.1370544433594 C 194.30560302734375 484.0182189941406 193.6269989013672 496.4230651855469 296.37261962890625 489.600830078125 C 178.11697387695312 491.22467041015625 198.45301818847656 490.59637451171875 226.32540893554688 493.88116455078125"/>
    <path stroke-width="0" fill="rgb(26, 68, 42)" opacity="0.84701157" stroke="rgb(90, 90, 4)" stroke-opacity="1.0" stroke-linecap="round" stroke-linejoin="round" d="M 280.39154052734375 440.3094482421875 C 279.9349670410156 431.0605163574219 279.3063659667969 438.0093994140625 289.6807556152344 434.4982604980469 C 303.1138610839844 448.7577819824219 287.0307922363281 438.9343566894531 289.2027587890625 431.38763427734375 C 293.65948486328125 467.9102783203125 362.6177978515625 440.64697265625 283.02056884765625 449.4623107910156 C 301.793701171875 440.0304260253906 301.9238586425781 443.25775146484375 280.39154052734375 440.3094482421875"/>
    <path stroke-width="0" fill="rgb(22, 17, -4)" opacity="0.7733337" stroke="rgb(102, 236, 25)" stroke-opacity="1.0" stroke-linecap="round" stroke-linejoin="round" d="M -25.221731185913086 436.4925231933594 C 58.99321746826172 451.0567932128906 26.53258514404297 433.3193359375 -8.867239952087402 438.1463623046875 C 124.05359649658203 440.9269104003906 151.76748657226562 420.7046813964844 -75.96939086914062 425.2619934082031 C 150.17135620117188 433.361328125 108.21658325195312 422.1194152832031 81.34285736083984 440.58990478515625 C 46.133583068847656 444.38360595703125 26.685697555541992 438.8046875 -25.221731185913086 436.4925231933594"/>
    <path stroke-width="0" fill="rgb(102, 91, 59)" opacity="0.99572146" stroke="rgb(221, 115, 83)" stroke-opacity="1.0" stroke-linecap="round" stroke-linejoin="round" d="M 562.8681640625 361.3078918457031 C 455.28265380859375 347.6257019042969 436.0567321777344 368.60577392578125 453.22369384765625 359.0562438964844 C 474.5212097167969 360.717041015625 468.01995849609375 356.4935302734375 470.4720458984375 360.40093994140625 C 481.31146240234375 356.94244384765625 429.81231689453125 356.4964599609375 114.75846862792969 358.42523193359375 C 402.3103332519531 364.74151611328125 494.9830017089844 354.10748291015625 562.8681640625 361.3078918457031"/>
    <path stroke-width="0" fill="rgb(36, 26, 79)" opacity="0.6111139" stroke="rgb(33, 3, 29)" stroke-opacity="1.0" stroke-linecap="round" stroke-linejoin="round" d="M 434.3202209472656 509.59661865234375 C 453.69976806640625 494.6966552734375 451.3575134277344 515.7910766601562 450.47552490234375 521.139892578125 C 438.8094787597656 489.2629699707031 474.5152893066406 513.0645141601562 459.141357421875 489.5169982910156 C 440.60650634765625 539.630126953125 476.18560791015625 524.5264282226562 452.049072265625 523.97900390625 C 448.27752685546875 500.840087890625 453.36883544921875 488.9679870605469 434.3202209472656 509.59661865234375"/>
    <path stroke-width="0" fill="rgb(96, 110, 143)" opacity="0.22251461" stroke="rgb(162, 125, 252)" stroke-opacity="1.0" stroke-linecap="round" stroke-linejoin="round" d="M 234.87437438964844 118.56517028808594 C 243.33425903320312 96.1113052368164 239.63760375976562 100.94996643066406 233.6962127685547 105.4686508178711 C 229.83172607421875 107.17594146728516 233.565673828125 102.90702819824219 236.37106323242188 102.84102630615234 C 238.31141662597656 105.46714782714844 244.50399780273438 92.52909088134766 247.65394592285156 74.37183380126953 C 245.6703338623047 89.29689025878906 238.0399627685547 100.5545883178711 234.87437438964844 118.56517028808594"/>
    <path stroke-width="0" fill="rgb(48, 34, 4)" opacity="0.8719982" stroke="rgb(199, 73, 61)" stroke-opacity="1.0" stroke-linecap="round" stroke-linejoin="round" d="M 416.6275939941406 441.4966735839844 C 343.25177001953125 431.6695556640625 381.9809875488281 464.8978271484375 617.3343505859375 435.9098815917969 C 295.8558349609375 468.7037658691406 494.74359130859375 418.38800048828125 372.8661804199219 448.4540100097656 C 453.1645202636719 447.1131591796875 391.1244201660156 453.7503662109375 440.3157653808594 437.7374572753906 C 311.8134765625 449.9657897949219 366.21142578125 432.7722473144531 416.6275939941406 441.4966735839844"/>
    <path stroke-width="0" fill="rgb(37, -2, -18)" opacity="0.8546327" stroke="rgb(62, 169, 131)" stroke-opacity="1.0" stroke-linecap="round" stroke-linejoin="round" d="M -24.764482498168945 368.5899963378906 C 10.783781051635742 441.6786193847656 -12.185037612915039 457.9698486328125 -53.544254302978516 436.2664794921875 C 27.549589157104492 429.3988342285156 40.8948860168457 428.7224426269531 40.97460174560547 450.6092834472656 C 23.362640380859375 438.9820251464844 59.99809646606445 430.1358947753906 -0.3063572645187378 433.6359558105469 C 25.76221466064453 464.7874450683594 -2.9295570850372314 463.1545715332031 -24.764482498168945 368.5899963378906"/>
    <path stroke-width="0" fill="rgb(60, 32, 18)" opacity="0.81288654" stroke="rgb(141, 73, 180)" stroke-opacity="1.0" stroke-linecap="round" stroke-linejoin="round" d="M 373.2959289550781 450.23809814453125 C 356.7043762207031 454.0727233886719 356.0206298828125 437.46209716796875 356.5110168457031 435.9562683105469 C 364.72772216796875 463.18939208984375 331.2018127441406 441.585693359375 357.68914794921875 447.78472900390625 C 357.7182922363281 450.8059387207031 342.5126647949219 427.6242980957031 397.17657470703125 437.46942138671875 C 352.210205078125 434.1173095703125 346.0920104980469 455.9557800292969 373.2959289550781 450.23809814453125"/>
    <path stroke-width="0" fill="rgb(229, 211, 248)" opacity="0.8718465" stroke="rgb(247, 230, 75)" stroke-opacity="1.0" stroke-linecap="round" stroke-linejoin="round" d="M 467.5511169433594 367.15716552734375 C 410.4487609863281 364.2537536621094 348.6418762207031 370.01678466796875 459.3802185058594 372.1169738769531 C 456.219970703125 361.76495361328125 463.60589599609375 362.0422668457031 468.5859680175781 370.88067626953125 C 518.8326416015625 374.55633544921875 591.2753295898438 365.4364929199219 465.1690368652344 366.8553466796875 C 468.6682434082031 376.7453918457031 472.29302978515625 379.1379699707031 467.5511169433594 367.15716552734375"/>
    <path stroke-width="0" fill="rgb(112, 116, 132)" opacity="0.21936083" stroke="rgb(63, 27, 242)" stroke-opacity="1.0" stroke-linecap="round" stroke-linejoin="round" d="M 214.33544921875 109.90615844726562 C 198.4342498779297 99.74756622314453 186.75161743164062 90.00033569335938 185.8413543701172 95.64691925048828 C 194.43882751464844 85.17318725585938 193.69940185546875 98.26656341552734 189.65675354003906 91.29052734375 C 202.1223907470703 105.63668823242188 204.33599853515625 96.5412368774414 197.2015380859375 108.17019653320312 C 203.569580078125 96.08435821533203 203.9771728515625 104.35144805908203 214.33544921875 109.90615844726562"/>
    <path stroke-width="0" fill="rgb(226, 247, 215)" opacity="0.6317425" stroke="rgb(69, 96, 95)" stroke-opacity="1.0" stroke-linecap="round" stroke-linejoin="round" d="M 326.91546630859375 77.61556243896484 C 355.26409912109375 86.24797821044922 297.05474853515625 60.842342376708984 365.1070861816406 92.35130310058594 C 383.84466552734375 86.96517181396484 359.5877380371094 95.39364624023438 354.9272766113281 94.9581069946289 C 280.6988220214844 98.39193725585938 248.6156005859375 92.13570404052734 360.28424072265625 100.82144165039062 C 372.18121337890625 90.18685913085938 354.6881103515625 88.4438705444336 326.91546630859375 77.61556243896484"/>
    <path stroke-width="0" fill="rgb(-16, -12, 10)" opacity="0.17228946" stroke="rgb(213, 60, 128)" stroke-opacity="1.0" stroke-linecap="round" stroke-linejoin="round" d="M 320.70660400390625 159.8069305419922 C 328.9158935546875 113.9834976196289 316.700439453125 131.07029724121094 316.1568603515625 128.12879943847656 C 329.33984375 124.6016616821289 321.7298278808594 126.80277252197266 320.01629638671875 127.41253662109375 C 322.3137512207031 123.7193374633789 326.05059814453125 143.04190063476562 317.1982727050781 160.31060791015625 C 319.8254699707031 141.81765747070312 321.38946533203125 141.52049255371094 320.70660400390625 159.8069305419922"/>
    <path stroke-width="0" fill="rgb(51, 35, 39)" opacity="0.4810709" stroke="rgb(161, 221, 239)" stroke-opacity="1.0" stroke-linecap="round" stroke-linejoin="round" d="M 149.6517333984375 452.0900573730469 C 229.44876098632812 430.92547607421875 227.1383514404297 419.7398681640625 229.6307830810547 440.5406799316406 C 246.46543884277344 434.6207275390625 254.2967987060547 435.2232971191406 237.616455078125 439.4680480957031 C 212.14817810058594 446.9066467285156 241.974609375 452.8604431152344 225.85415649414062 438.5010986328125 C 222.89376831054688 416.98895263671875 223.79653930664062 431.1109619140625 149.6517333984375 452.0900573730469"/>
    <path stroke-width="0" fill="rgb(-8, 27, 32)" opacity="0.55381817" stroke="rgb(228, 103, 140)" stroke-opacity="1.0" stroke-linecap="round" stroke-linejoin="round" d="M 221.66058349609375 432.0264892578125 C 11.495340347290039 422.35772705078125 -88.22483825683594 433.2424011230469 146.27322387695312 428.6880798339844 C 179.1822509765625 432.5026550292969 154.4475555419922 419.4628601074219 167.58534240722656 450.1667785644531 C 164.7720489501953 432.19366455078125 177.47657775878906 439.38189697265625 155.97149658203125 438.0294494628906 C 183.1088104248047 429.01568603515625 127.19640350341797 432.14154052734375 221.66058349609375 432.0264892578125"/>
    <path stroke-width="0" fill="rgb(258, 277, 257)" opacity="0.53414387" stroke="rgb(116, 102, 63)" stroke-opacity="1.0" stroke-linecap="round" stroke-linejoin="round" d="M 457.8601379394531 112.98735046386719 C 451.4702453613281 120.1585464477539 458.6734313964844 116.2978744506836 476.2519226074219 115.2708740234375 C 445.65191650390625 124.37438201904297 451.1087646484375 106.5858154296875 478.3299560546875 118.43025207519531 C 472.7035827636719 112.38691711425781 462.5061950683594 104.22953033447266 441.8031311035156 113.1602554321289 C 497.7680969238281 123.30497741699219 506.1893005371094 131.2334747314453 457.8601379394531 112.98735046386719"/>
    <path stroke-width="0" fill="rgb(149, 152, 137)" opacity="-0.0052917562" stroke="rgb(85, 235, 219)" stroke-opacity="1.0" stroke-linecap="round" stroke-linejoin="round" d="M 464.3948669433594 150.95986938476562 C 469.14825439453125 111.62464904785156 450.8567199707031 127.08137512207031 445.4581604003906 113.43135070800781 C 435.78363037109375 114.05207061767578 430.3057556152344 118.99864196777344 424.97906494140625 114.94672393798828 C 441.7141418457031 109.60527038574219 437.2748718261719 119.00752258300781 460.92266845703125 121.41451263427734 C 458.17657470703125 118.57319641113281 469.37286376953125 124.325927734375 464.3948669433594 150.95986938476562"/>
    <path stroke-width="0" fill="rgb(215, 262, 234)" opacity="0.71755266" stroke="rgb(64, 113, 26)" stroke-opacity="1.0" stroke-linecap="round" stroke-linejoin="round" d="M 481.3835144042969 89.53327178955078 C 461.6880187988281 79.4007339477539 480.35174560546875 100.64947509765625 485.0146484375 90.21089935302734 C 448.9963073730469 78.0435791015625 438.0392761230469 62.20463180541992 447.5451354980469 90.57841491699219 C 487.77081298828125 101.17680358886719 492.3270568847656 93.77680969238281 476.3340148925781 82.12322235107422 C 458.95721435546875 89.8736801147461 481.90899658203125 102.46694946289062 481.3835144042969 89.53327178955078"/>
    <path stroke-width="0" fill="rgb(208, 231, 201)" opacity="0.8479802" stroke="rgb(0, 0, 0)" stroke-opacity="0.0" stroke-linecap="round" stroke-linejoin="round" d="M 279.47589111328125 18.16477394104004 C 278.1908264160156 26.619670867919922 275.54632568359375 29.717851638793945 267.99652099609375 29.730701446533203 C 262.2122802734375 29.38846206665039 256.5642395019531 23.273569107055664 256.0820617675781 17.629150390625 C 256.25994873046875 11.384870529174805 260.8576965332031 11.801284790039062 266.5584411621094 8.32809066772461 C 273.2563171386719 8.078400611877441 276.60345458984375 11.75773811340332 279.47589111328125 18.16477394104004"/>
    <path stroke-width="0" fill="rgb(220, 148, 189)" opacity="0.4113579" stroke="rgb(0, 0, 0)" stroke-opacity="0.0" stroke-linecap="round" stroke-linejoin="round" d="M 9.546626091003418 6.300875186920166 C 1.2032127380371094 9.372836112976074 0.19013705849647522 12.011825561523438 1.59187650680542 22.41399383544922 C -7.989926338195801 19.983379364013672 -7.110884189605713 12.639751434326172 -7.644460201263428 7.592718124389648 C -6.561120986938477 3.567819595336914 -3.6331968307495117 0.6381251215934753 -0.8391010761260986 1.1460061073303223 C 6.057008266448975 0.12375423312187195 10.366371154785156 1.2598357200622559 9.546626091003418 6.300875186920166"/>
    <path stroke-width="0" fill="rgb(144, 137, 193)" opacity="0.824837" stroke="rgb(0, 0, 0)" stroke-opacity="0.0" stroke-linecap="round" stroke-linejoin="round" d="M 18.45322608947754 9.463644027709961 C 21.688024520874023 11.235623359680176 19.601621627807617 14.347360610961914 18.50682830810547 18.566619873046875 C 14.965577125549316 16.333965301513672 12.271265983581543 12.673871994018555 15.414828300476074 13.842475891113281 C 15.691534042358398 11.037351608276367 14.465434074401855 2.388751983642578 15.988513946533203 1.4991682767868042 C 22.251005172729492 2.6768879890441895 21.370777130126953 5.083340167999268 18.45322608947754 9.463644027709961"/>
    <path stroke-width="0" fill="rgb(164, 135, 115)" opacity="0.32602182" stroke="rgb(0, 0, 0)" stroke-opacity="0.0" stroke-linecap="round" stroke-linejoin="round" d="M 104.0121078491211 2.667348861694336 C 101.65988159179688 4.780542373657227 96.65950012207031 1.9296261072158813 98.81803131103516 10.324936866760254 C 97.7943344116211 11.0570068359375 94.78643035888672 7.689289569854736 90.98733520507812 4.3827738761901855 C 92.87867736816406 -3.3489725589752197 95.78213500976562 -4.758376121520996 99.88690185546875 -4.591961860656738 C 103.35099792480469 -3.9487948417663574 103.53077697753906 -2.8994736671447754 104.0121078491211 2.667348861694336"/>
    <path stroke-width="0" fill="rgb(98, 141, 182)" opacity="0.11334454" stroke="rgb(0, 0, 0)" stroke-opacity="0.0" stroke-linecap="round" stroke-linejoin="round" d="M 172.45840454101562 12.802986145019531 C 173.6644287109375 23.27399253845215 170.09881591796875 25.844993591308594 169.71762084960938 22.50542640686035 C 163.4666290283203 21.32061004638672 160.69444274902344 19.511878967285156 164.45065307617188 20.859766006469727 C 163.43246459960938 10.94352912902832 162.03121948242188 9.582096099853516 165.4475860595703 7.088796615600586 C 166.3250274658203 12.50632095336914 166.91835021972656 16.467891693115234 172.45840454101562 12.802986145019531"/>
    <path stroke-width="0" fill="rgb(127, 150, 140)" opacity="0.754322" stroke="rgb(0, 0, 0)" stroke-opacity="0.0" stroke-linecap="round" stroke-linejoin="round" d="M 21.921154022216797 10.528349876403809 C 24.139076232910156 19.423620223999023 20.61734390258789 20.822324752807617 18.838523864746094 20.154808044433594 C 14.423552513122559 14.532049179077148 10.147442817687988 11.365370750427246 3.150113105773926 10.767823219299316 C 0.28499636054039 2.7469117641448975 5.791017532348633 2.184837818145752 16.35881996154785 0.2905726432800293 C 25.782869338989258 1.8384356498718262 25.22130584716797 1.2825758457183838 21.921154022216797 10.528349876403809"/>
    <path stroke-width="0" fill="rgb(154, 107, 117)" opacity="0.18996848" stroke="rgb(0, 0, 0)" stroke-opacity="0.0" stroke-linecap="round" stroke-linejoin="round" d="M 14.840826988220215 6.393626689910889 C 10.2913236618042 4.41870641708374 2.7385783195495605 5.036874294281006 2.431079626083374 7.514290809631348 C 3.892152786254883 13.208649635314941 2.080355405807495 6.832345485687256 -1.5279614925384521 3.4436042308807373 C -0.45978888869285583 -0.6162224411964417 1.7359882593154907 -2.721386432647705 5.516366004943848 -3.29992413520813 C 9.871908187866211 -2.3204290866851807 12.363048553466797 0.9881006479263306 14.840826988220215 6.393626689910889"/>
    <path stroke-width="0" fill="rgb(218, 226, 212)" opacity="0.55465806" stroke="rgb(0, 0, 0)" stroke-opacity="0.0" stroke-linecap="round" stroke-linejoin="round" d="M 349.08734130859375 42.629600524902344 C 348.9949035644531 45.80675506591797 343.77398681640625 48.106258392333984 341.2393798828125 48.21512222290039 C 338.90228271484375 48.633079528808594 334.0389709472656 45.897701263427734 333.3941345214844 41.591583251953125 C 333.11688232421875 37.931236267089844 336.1755065917969 35.34828567504883 343.3973388671875 34.821231842041016 C 347.0580139160156 33.89644241333008 349.2266540527344 37.31101989746094 349.08734130859375 42.629600524902344"/>
    <path stroke-width="0" fill="rgb(138, 146, 119)" opacity="0.055810306" stroke="rgb(0, 0, 0)" stroke-opacity="0.0" stroke-linecap="round" stroke-linejoin="round" d="M 331.6095886230469 267.2908935546875 C 323.73468017578125 273.240478515625 321.0067138671875 275.58526611328125 320.9710998535156 273.6878967285156 C 320.7425842285156 269.24688720703125 318.86151123046875 266.9391784667969 309.215087890625 267.28009033203125 C 311.0358581542969 267.99237060546875 316.02996826171875 266.51373291015625 319.64898681640625 267.1105041503906 C 325.2227478027344 267.1676025390625 328.916748046875 267.105712890625 331.6095886230469 267.2908935546875"/>
    <path stroke-width="0" fill="rgb(196, 198, 176)" opacity="0.9108293" stroke="rgb(0, 0, 0)" stroke-opacity="0.0" stroke-linecap="round" stroke-linejoin="round" d="M 171.61770629882812 39.27287673950195 C 172.4094696044922 42.57133483886719 167.64430236816406 45.590293884277344 162.80833435058594 45.98897171020508 C 157.67982482910156 46.6754035949707 156.6959991455078 44.7496223449707 156.54486083984375 38.4114875793457 C 156.74917602539062 33.878135681152344 160.69320678710938 28.35934829711914 162.35830688476562 29.400774002075195 C 169.2666473388672 30.230804443359375 172.6946258544922 33.38404083251953 171.61770629882812 39.27287673950195"/>
    <path stroke-width="0" fill="rgb(99, 81, 180)" opacity="-0.028952237" stroke="rgb(0, 0, 0)" stroke-opacity="0.0" stroke-linecap="round" stroke-linejoin="round" d="M 400.66534423828125 135.5442352294922 C 398.439453125 138.71151733398438 394.01165771484375 140.26022338867188 391.3067932128906 142.78457641601562 C 391.8726501464844 140.2234649658203 389.4765319824219 136.75172424316406 389.9849548339844 132.98382568359375 C 386.1251220703125 130.466552734375 386.9377136230469 127.18638610839844 394.3164978027344 124.52239990234375 C 398.0040283203125 128.3148956298828 401.0196838378906 130.71485900878906 400.66534423828125 135.5442352294922"/>
    <path stroke-width="0" fill="rgb(206, 160, 230)" opacity="0.7487223" stroke="rgb(0, 0, 0)" stroke-opacity="0.0" stroke-linecap="round" stroke-linejoin="round" d="M -60.74114227294922 30.83562660217285 C -61.81293869018555 34.835628509521484 -64.74114227294922 37.763832092285156 -68.74114227294922 38.835628509521484 C -72.74114227294922 37.763832092285156 -75.66934967041016 34.835628509521484 -76.74114227294922 30.83562660217285 C -75.66934967041016 26.83562660217285 -72.74114227294922 23.907424926757812 -68.74114227294922 22.83562660217285 C -64.74114227294922 23.907424926757812 -61.81293869018555 26.83562660217285 -60.74114227294922 30.83562660217285"/>
    <path stroke-width="0" fill="rgb(98, 69, 213)" opacity="0.0071734553" stroke="rgb(0, 0, 0)" stroke-opacity="0.0" stroke-linecap="round" stroke-linejoin="round" d="M 437.4195251464844 139.31768798828125 C 427.2575378417969 140.69070434570312 424.29559326171875 146.66409301757812 429.6824645996094 145.25985717773438 C 428.4195861816406 144.73297119140625 424.901611328125 141.52383422851562 423.0228576660156 137.57420349121094 C 422.8476867675781 138.94073486328125 427.45965576171875 137.52175903320312 428.6388854980469 136.64402770996094 C 431.39996337890625 136.85760498046875 435.77716064453125 137.99276733398438 437.4195251464844 139.31768798828125"/>
    <path stroke-width="0" fill="rgb(27, 178, 194)" opacity="0.5568747" stroke="rgb(0, 0, 0)" stroke-opacity="0.0" stroke-linecap="round" stroke-linejoin="round" d="M 173.4173126220703 259.0595703125 C 177.4499053955078 268.4882507324219 175.3667449951172 271.50787353515625 168.0957794189453 267.9781188964844 C 157.62179565429688 269.6155700683594 153.423095703125 266.2834777832031 158.88717651367188 260.66314697265625 C 161.15823364257812 248.58502197265625 160.67901611328125 247.48561096191406 165.8795623779297 249.95236206054688 C 174.02215576171875 250.08773803710938 175.77545166015625 250.2501220703125 173.4173126220703 259.0595703125"/>
    <path stroke-width="0" fill="rgb(194, 171, 75)" opacity="0.046868652" stroke="rgb(0, 0, 0)" stroke-opacity="0.0" stroke-linecap="round" stroke-linejoin="round" d="M 498.7664489746094 495.6253662109375 C 495.9844055175781 494.3346252441406 491.12823486328125 495.3297119140625 488.1205139160156 496.1859130859375 C 483.3007507324219 496.034912109375 479.19781494140625 493.8864440917969 483.3890380859375 493.2490234375 C 486.2522277832031 489.76934814453125 488.50433349609375 485.7190246582031 492.2117919921875 478.4858093261719 C 496.3409423828125 478.0668640136719 498.0227966308594 484.44512939453125 498.7664489746094 495.6253662109375"/>
    <path stroke-width="0" fill="rgb(83, 93, 167)" opacity="0.5817556" stroke="rgb(0, 0, 0)" stroke-opacity="0.0" stroke-linecap="round" stroke-linejoin="round" d="M 518.5308227539062 419.1839294433594 C 515.4692993164062 425.97698974609375 513.5062255859375 426.3065185546875 502.8297119140625 422.74700927734375 C 498.5062255859375 426.40350341796875 494.73785400390625 426.0753479003906 494.3533630371094 417.6147155761719 C 507.957763671875 420.7886047363281 510.37237548828125 418.2051086425781 507.5111083984375 411.6763916015625 C 511.05535888671875 409.0455017089844 517.7926025390625 410.8092041015625 518.5308227539062 419.1839294433594"/>
    <path stroke-width="0" fill="rgb(115, 142, 103)" opacity="0.117475025" stroke="rgb(0, 0, 0)" stroke-opacity="0.0" stroke-linecap="round" stroke-linejoin="round" d="M 94.00943756103516 64.79905700683594 C 96.94255828857422 69.28568267822266 92.5492935180664 68.78907012939453 90.53408813476562 67.98042297363281 C 89.90275573730469 67.30172729492188 87.06694793701172 64.93594360351562 87.587158203125 63.548038482666016 C 84.60069274902344 58.679107666015625 82.81829833984375 55.112613677978516 87.46199035644531 56.480655670166016 C 97.01363372802734 54.29963684082031 95.21280670166016 54.821563720703125 94.00943756103516 64.79905700683594"/>
    <path stroke-width="0" fill="rgb(110, 111, 111)" opacity="0.83573353" stroke="rgb(0, 0, 0)" stroke-opacity="0.0" stroke-linecap="round" stroke-linejoin="round" d="M 451.4761657714844 431.601318359375 C 448.0609436035156 435.2769470214844 445.6438293457031 439.3331298828125 441.37872314453125 441.08160400390625 C 437.23223876953125 439.9076843261719 434.7320251464844 435.52764892578125 434.5273132324219 432.2398681640625 C 436.01629638671875 431.0924987792969 441.1597595214844 427.2010803222656 438.77789306640625 427.0208740234375 C 439.4391784667969 429.07684326171875 447.3136291503906 431.01165771484375 451.4761657714844 431.601318359375"/>
    <path stroke-width="0" fill="rgb(77, 81, 148)" opacity="0.5820052" stroke="rgb(0, 0, 0)" stroke-opacity="0.0" stroke-linecap="round" stroke-linejoin="round" d="M 363.1853942871094 498.3975830078125 C 358.1076354980469 494.82305908203125 354.5550537109375 495.9086608886719 353.611572265625 501.125 C 351.1772155761719 507.0835876464844 350.5373840332031 502.5770263671875 355.1214904785156 497.7964172363281 C 355.767578125 491.1912841796875 354.53326416015625 488.29559326171875 347.9376220703125 492.0015563964844 C 353.8575439453125 497.8213195800781 361.60137939453125 496.9767150878906 363.1853942871094 498.3975830078125"/>
    <path stroke-width="0" fill="rgb(84, 30, 99)" opacity="0.1256097" stroke="rgb(0, 0, 0)" stroke-opacity="0.0" stroke-linecap="round" stroke-linejoin="round" d="M 319.1671447753906 106.87075805664062 C 318.2479553222656 112.82669067382812 315.9017639160156 115.27172088623047 315.3105773925781 111.75083923339844 C 309.5328674316406 113.3158950805664 303.4699401855469 113.87651824951172 300.84649658203125 108.27558135986328 C 303.5289611816406 104.27198028564453 309.26409912109375 101.87683868408203 312.2987365722656 106.77528381347656 C 319.5499572753906 104.3387680053711 323.5829772949219 105.08341979980469 319.1671447753906 106.87075805664062"/>
    <path stroke-width="0" fill="rgb(125, 223, 209)" opacity="0.03584838" stroke="rgb(0, 0, 0)" stroke-opacity="0.0" stroke-linecap="round" stroke-linejoin="round" d="M 488.0458068847656 91.41804504394531 C 482.3414306640625 95.28621673583984 478.43206787109375 97.3729248046875 477.2716369628906 103.73332214355469 C 469.41522216796875 102.1269760131836 464.6490478515625 99.08716583251953 469.8001403808594 96.69242858886719 C 477.3630676269531 94.28257751464844 475.822265625 87.589599609375 476.0633850097656 84.63518524169922 C 478.6338195800781 85.22856903076172 482.9731140136719 89.342041015625 488.0458068847656 91.41804504394531"/>
    <path stroke-width="0" fill="rgb(38, 13, 57)" opacity="0.4542323" stroke="rgb(0, 0, 0)" stroke-opacity="0.0" stroke-linecap="round" stroke-linejoin="round" d="M -27.041536331176758 30.428306579589844 C -28.113332748413086 34.428306579589844 -31.041536331176758 37.356510162353516 -35.041534423828125 38.428306579589844 C -39.041534423828125 37.356510162353516 -41.9697380065918 34.428306579589844 -43.041534423828125 30.428306579589844 C -41.9697380065918 26.428306579589844 -39.041534423828125 23.500104904174805 -35.041534423828125 22.428306579589844 C -31.041536331176758 23.500104904174805 -28.113332748413086 26.428306579589844 -27.041536331176758 30.428306579589844"/>
    <path stroke-width="0" fill="rgb(251, 118, 233)" opacity="0.33664012" stroke="rgb(0, 0, 0)" stroke-opacity="0.0" stroke-linecap="round" stroke-linejoin="round" d="M -70.7625961303711 47.9467658996582 C -71.83438873291016 51.9467658996582 -74.7625961303711 54.874969482421875 -78.7625961303711 55.9467658996582 C -82.7625961303711 54.874969482421875 -85.6907958984375 51.9467658996582 -86.7625961303711 47.9467658996582 C -85.6907958984375 43.9467658996582 -82.7625961303711 41.01856231689453 -78.7625961303711 39.9467658996582 C -74.7625961303711 41.01856231689453 -71.83438873291016 43.9467658996582 -70.7625961303711 47.9467658996582"/>
    <path stroke-width="0" fill="rgb(251, 271, 273)" opacity="0.3332243" stroke="rgb(0, 0, 0)" stroke-opacity="0.0" stroke-linecap="round" stroke-linejoin="round" d="M 209.03041076660156 303.98187255859375 C 208.114501953125 307.83734130859375 205.4163055419922 311.5445251464844 204.46078491210938 309.5561828613281 C 198.38197326660156 310.70025634765625 191.84666442871094 310.2310791015625 190.0767822265625 310.6441345214844 C 196.86119079589844 303.040771484375 200.0994415283203 299.58770751953125 205.2174072265625 297.7274169921875 C 208.52174377441406 298.2178039550781 211.8471221923828 300.798095703125 209.03041076660156 303.98187255859375"/>
    <path stroke-width="0" fill="rgb(139, 48, 169)" opacity="0.1336199" stroke="rgb(0, 0, 0)" stroke-opacity="0.0" stroke-linecap="round" stroke-linejoin="round" d="M 182.5377655029297 204.93174743652344 C 185.8616485595703 203.86936950683594 181.5093536376953 206.0148468017578 177.0655517578125 207.13914489746094 C 175.05270385742188 203.568603515625 171.48443603515625 202.49945068359375 173.8990020751953 201.2515869140625 C 176.08493041992188 204.07322692871094 179.1131591796875 200.0577392578125 178.70111083984375 195.52688598632812 C 177.20826721191406 200.11302185058594 178.77566528320312 201.8869171142578 182.5377655029297 204.93174743652344"/>
    <path stroke-width="0" fill="rgb(54, 208, 49)" opacity="0.10159245" stroke="rgb(0, 0, 0)" stroke-opacity="0.0" stroke-linecap="round" stroke-linejoin="round" d="M 161.79222106933594 62.04838180541992 C 166.4081268310547 61.587852478027344 164.4188995361328 62.36418533325195 158.95059204101562 61.28050994873047 C 158.2838897705078 63.6123046875 156.85751342773438 61.37437438964844 157.7581787109375 62.308570861816406 C 160.89735412597656 61.57093048095703 163.4566192626953 58.13236618041992 161.45660400390625 52.22172546386719 C 159.28184509277344 51.05583190917969 159.77978515625 56.89287185668945 161.79222106933594 62.04838180541992"/>
    <path stroke-width="0" fill="rgb(193, 158, 191)" opacity="0.31480145" stroke="rgb(0, 0, 0)" stroke-opacity="0.0" stroke-linecap="round" stroke-linejoin="round" d="M 422.97821044921875 389.7820739746094 C 423.513916015625 395.7025451660156 423.0943908691406 397.09844970703125 415.5170593261719 396.0157775878906 C 411.2879943847656 395.09747314453125 410.19061279296875 389.8260803222656 403.928955078125 384.4122009277344 C 406.46893310546875 384.6934509277344 415.7262878417969 385.3501281738281 416.828125 382.8674621582031 C 417.0688781738281 383.09552001953125 422.0140075683594 385.1053161621094 422.97821044921875 389.7820739746094"/>
    <path stroke-width="0" fill="rgb(60, 18, 28)" opacity="0.595077" stroke="rgb(0, 0, 0)" stroke-opacity="0.0" stroke-linecap="round" stroke-linejoin="round" d="M 24.31664276123047 494.58514404296875 C 21.045730590820312 497.2756652832031 24.202470779418945 504.5693664550781 17.18860626220703 510.8516540527344 C 20.84009552001953 503.2643127441406 14.803021430969238 500.7497253417969 14.184464454650879 495.37579345703125 C 12.260123252868652 487.5097351074219 9.716333389282227 489.0160217285156 19.427024841308594 489.83740234375 C 28.05284309387207 488.0880432128906 30.240676879882812 489.5455017089844 24.31664276123047 494.58514404296875"/>
    <path stroke-width="0" fill="rgb(193, 197, 94)" opacity="0.45649096" stroke="rgb(0, 0, 0)" stroke-opacity="0.0" stroke-linecap="round" stroke-linejoin="round" d="M 16.366914749145508 9.181934356689453 C 19.01313591003418 8.395468711853027 14.573655128479004 9.026755332946777 3.656494379043579 7.1526360511779785 C 6.580413341522217 10.858630180358887 1.615882396697998 7.469461441040039 0.8092793226242065 5.748929977416992 C 2.9125797748565674 2.0202367305755615 5.396870136260986 -1.3820440769195557 9.157645225524902 -4.820572376251221 C 12.88253116607666 -4.175595760345459 14.665556907653809 0.09572646766901016 16.366914749145508 9.181934356689453"/>
    <path stroke-width="0" fill="rgb(117, 214, 204)" opacity="0.01887563" stroke="rgb(0, 0, 0)" stroke-opacity="0.0" stroke-linecap="round" stroke-linejoin="round" d="M 7.0308966636657715 -0.4870656132698059 C 7.566926956176758 3.54665470123291 4.724593162536621 7.052685260772705 0.8752279877662659 7.05883264541626 C -1.6419199705123901 4.5062479972839355 -5.552098751068115 3.2038321495056152 -6.835175037384033 -0.29083898663520813 C -5.775409698486328 -4.253812313079834 -2.8472065925598145 -7.182015895843506 1.1527934074401855 -8.253812789916992 C 5.1527323722839355 -7.181992530822754 8.076669692993164 -4.252244472503662 7.0308966636657715 -0.4870656132698059"/>
    <path stroke-width="0" fill="rgb(96, 110, 160)" opacity="0.25566232" stroke="rgb(0, 0, 0)" stroke-opacity="0.0" stroke-linecap="round" stroke-linejoin="round" d="M 14.069366455078125 86.94192504882812 C 14.379474639892578 97.29685974121094 14.203001976013184 96.08907318115234 9.493395805358887 95.96598052978516 C -3.1782217025756836 95.89759063720703 -7.65729284286499 95.68797302246094 2.6266579627990723 93.09197998046875 C 1.857556700706482 84.26839447021484 1.8933871984481812 83.32990264892578 4.62128210067749 87.66950988769531 C 13.290956497192383 85.47467041015625 15.415353775024414 85.32669830322266 14.069366455078125 86.94192504882812"/>
    <path stroke-width="0" fill="rgb(86, 99, 61)" opacity="0.43359426" stroke="rgb(0, 0, 0)" stroke-opacity="0.0" stroke-linecap="round" stroke-linejoin="round" d="M 59.61969757080078 389.7196044921875 C 59.27389907836914 398.8927001953125 61.845001220703125 401.5055847167969 48.8757438659668 401.3249206542969 C 52.67781066894531 390.25030517578125 52.55587387084961 385.7991943359375 45.73319625854492 384.76190185546875 C 41.48625946044922 381.5920104980469 44.74010467529297 378.6283264160156 56.20229721069336 381.395263671875 C 58.258304595947266 378.56854248046875 59.04730987548828 381.6944885253906 59.61969757080078 389.7196044921875"/>
  </g>
</svg>
