<?xml version="1.0" ?>
<svg xmlns="http://www.w3.org/2000/svg" version="1.1" width="512" height="512">
  <defs/>
  <g>
    <path stroke-width="0" fill="rgb(-26, -17, 25)" opacity="1.1010151" stroke="rgb(139, 182, 153)" stroke-opacity="1.0" stroke-linecap="round" stroke-linejoin="round" d="M 574.9724731445312 162.57131958007812 C 471.684326171875 157.2074432373047 255.02822875976562 161.8192138671875 21.520235061645508 159.2789764404297 C 149.9614715576172 41.40039825439453 217.20492553710938 78.77104187011719 174.48895263671875 -25.099302291870117 C 185.01902770996094 -33.60383224487305 197.35633850097656 -35.491127014160156 255.7974395751953 -34.276790618896484 C 358.9655456542969 -48.56909942626953 437.4306640625 -146.63949584960938 574.9724731445312 162.57131958007812"/>
    <path stroke-width="0" fill="rgb(36, 55, 46)" opacity="0.6409469" stroke="rgb(108, 164, 111)" stroke-opacity="1.0" stroke-linecap="round" stroke-linejoin="round" d="M 316.8450622558594 712.0940551757812 C -124.95912170410156 747.3942260742188 7.413478851318359 369.59783935546875 44.436546325683594 84.96856689453125 C 292.9519958496094 122.72144317626953 289.656005859375 118.43458557128906 279.9749755859375 40.84785461425781 C 284.2266845703125 -66.92325592041016 317.0650329589844 -46.443145751953125 442.3717346191406 -36.365211486816406 C 639.143310546875 -2.5854287147521973 854.1314086914062 240.14646911621094 316.8450622558594 712.0940551757812"/>
    <path stroke-width="0" fill="rgb(65, 88, 74)" opacity="0.996531" stroke="rgb(245, 97, 201)" stroke-opacity="1.0" stroke-linecap="round" stroke-linejoin="round" d="M 362.1741638183594 89.26345825195312 C 331.61376953125 104.43582153320312 322.6105041503906 108.96636962890625 88.35086822509766 106.57009887695312 C 110.6676025390625 103.6150894165039 112.05255126953125 111.51028442382812 120.72222900390625 67.0373764038086 C 135.6087188720703 -33.50758361816406 141.19656372070312 -41.69476318359375 171.7762908935547 -45.70519256591797 C 292.3306884765625 -28.91624641418457 316.0923156738281 -35.01140213012695 362.1741638183594 89.26345825195312"/>
    <path stroke-width="0" fill="rgb(11, 10, 21)" opacity="1.044658" stroke="rgb(144, 236, 18)" stroke-opacity="1.0" stroke-linecap="round" stroke-linejoin="round" d="M 256.8772888183594 83.15692138671875 C 200.72328186035156 104.74311828613281 296.20989990234375 68.78075408935547 533.71240234375 141.87002563476562 C 129.61141967773438 145.88079833984375 17.517160415649414 91.02965545654297 -31.38100242614746 238.4862060546875 C -45.53935623168945 -103.79988098144531 -12.785496711730957 -54.71656799316406 149.37364196777344 -35.13842010498047 C 205.53195190429688 -44.215057373046875 222.66920471191406 -50.46322250366211 256.8772888183594 83.15692138671875"/>
    <path stroke-width="0" fill="rgb(263, 254, 258)" opacity="1.026647" stroke="rgb(5, 212, 198)" stroke-opacity="1.0" stroke-linecap="round" stroke-linejoin="round" d="M 491.969482421875 244.44422912597656 C 466.8716735839844 180.05975341796875 267.8143005371094 188.75515747070312 291.7752685546875 217.8430633544922 C 193.8606414794922 180.9110565185547 153.02598571777344 187.07260131835938 129.76025390625 159.4457550048828 C 83.59687042236328 158.25196838378906 86.35896301269531 158.34242248535156 495.7654113769531 159.1334228515625 C 493.4477844238281 159.0303192138672 493.1365661621094 138.2474822998047 491.969482421875 244.44422912597656"/>
    <path stroke-width="0" fill="rgb(268, 261, 256)" opacity="1.045728" stroke="rgb(249, 203, 117)" stroke-opacity="1.0" stroke-linecap="round" stroke-linejoin="round" d="M 560.4947509765625 381.8973083496094 C 584.936279296875 395.2995300292969 512.948486328125 392.20709228515625 402.2611083984375 390.2257385253906 C 473.3954772949219 384.255126953125 366.65386962890625 394.0808410644531 376.6387634277344 378.13311767578125 C 530.158935546875 378.4945068359375 523.473876953125 377.62548828125 509.8897705078125 379.2917785644531 C 433.24176025390625 380.1673583984375 453.796875 379.0388488769531 560.4947509765625 381.8973083496094"/>
    <path stroke-width="0" fill="rgb(235, 234, 235)" opacity="0.70132405" stroke="rgb(30, 163, 36)" stroke-opacity="1.0" stroke-linecap="round" stroke-linejoin="round" d="M 638.8505249023438 412.8950500488281 C 458.4341735839844 443.9330749511719 159.40509033203125 409.048095703125 152.4124298095703 426.00421142578125 C 284.8252868652344 426.34014892578125 324.9557189941406 425.5020446777344 -32.56983947753906 427.41943359375 C 199.6123809814453 396.70416259765625 233.13522338867188 425.8417663574219 55.39330291748047 413.01385498046875 C 132.61976623535156 416.43243408203125 306.8789367675781 400.6263732910156 638.8505249023438 412.8950500488281"/>
    <path stroke-width="0" fill="rgb(256, 253, 253)" opacity="0.951277" stroke="rgb(133, 105, 67)" stroke-opacity="1.0" stroke-linecap="round" stroke-linejoin="round" d="M 575.0594482421875 379.2496337890625 C 752.3786010742188 402.89764404296875 596.1682739257812 396.92852783203125 60.299346923828125 397.89105224609375 C 179.73361206054688 389.96185302734375 -88.23579406738281 412.1024169921875 -64.82010650634766 379.018798828125 C 519.7616577148438 378.6951904296875 497.2308044433594 377.63006591796875 446.1138916015625 377.01898193359375 C 394.23046875 379.08477783203125 407.448486328125 376.21722412109375 575.0594482421875 379.2496337890625"/>
    <path stroke-width="0" fill="rgb(245, 243, 245)" opacity="0.9595355" stroke="rgb(116, 144, 4)" stroke-opacity="1.0" stroke-linecap="round" stroke-linejoin="round" d="M 595.3892211914062 425.82598876953125 C -78.33639526367188 424.76611328125 25.60989761352539 425.7514953613281 80.5931396484375 426.69415283203125 C 222.2318878173828 414.2524719238281 -65.1512680053711 445.95428466796875 -81.50648498535156 408.7923278808594 C 79.86151123046875 409.880615234375 251.1975860595703 408.9657287597656 309.0578308105469 409.6083984375 C 130.37969970703125 422.3276672363281 223.9773712158203 392.4116516113281 595.3892211914062 425.82598876953125"/>
    <path stroke-width="0" fill="rgb(261, 260, 261)" opacity="1.011544" stroke="rgb(156, 157, 240)" stroke-opacity="1.0" stroke-linecap="round" stroke-linejoin="round" d="M 496.2926025390625 277.40667724609375 C 463.7304992675781 303.8744812011719 620.3439331054688 293.43365478515625 -39.62607192993164 297.7047424316406 C -87.78492736816406 264.7781982421875 -95.7326431274414 272.9862060546875 259.4300842285156 272.680419921875 C 271.04779052734375 275.52008056640625 257.11383056640625 130.86671447753906 278.8724365234375 170.5377197265625 C 319.28265380859375 316.42987060546875 204.87164306640625 253.33506774902344 496.2926025390625 277.40667724609375"/>
    <path stroke-width="0" fill="rgb(244, 243, 246)" opacity="0.996409" stroke="rgb(91, 111, 177)" stroke-opacity="1.0" stroke-linecap="round" stroke-linejoin="round" d="M 595.4297485351562 411.90545654296875 C 473.0829772949219 455.7769470214844 261.5671691894531 377.77740478515625 170.5120849609375 427.1390075683594 C 251.57691955566406 413.5023193359375 241.8579559326172 420.9269714355469 212.38916015625 415.30401611328125 C 258.60821533203125 420.5313415527344 278.9048767089844 441.3109130859375 149.15699768066406 408.6076354980469 C 181.09780883789062 421.058349609375 481.83990478515625 404.53759765625 595.4297485351562 411.90545654296875"/>
    <path stroke-width="0" fill="rgb(261, 260, 261)" opacity="0.9955552" stroke="rgb(170, 171, 53)" stroke-opacity="1.0" stroke-linecap="round" stroke-linejoin="round" d="M 491.25506591796875 164.4597625732422 C 283.01141357421875 215.26332092285156 747.0636596679688 201.2130584716797 16.473318099975586 203.6856689453125 C 32.632164001464844 211.12142944335938 -57.7154541015625 216.9923858642578 -51.15517807006836 158.59764099121094 C 117.54315185546875 159.15866088867188 190.81614685058594 158.0791015625 231.01019287109375 160.46536254882812 C 134.21368408203125 164.02334594726562 192.7541961669922 158.22592163085938 491.25506591796875 164.4597625732422"/>
    <path stroke-width="0" fill="rgb(116, 128, 109)" opacity="0.99140763" stroke="rgb(80, 92, 145)" stroke-opacity="1.0" stroke-linecap="round" stroke-linejoin="round" d="M 526.3484497070312 95.26974487304688 C 447.0592956542969 61.17762756347656 515.4624633789062 73.46075439453125 442.68328857421875 64.58055114746094 C 320.05926513671875 73.30706787109375 353.106689453125 46.57969665527344 360.78997802734375 2.1034014225006104 C 356.93389892578125 -22.19556999206543 361.8376770019531 -30.034143447875977 365.21282958984375 -24.868755340576172 C 378.419189453125 59.50565719604492 495.3245849609375 -6.317409038543701 526.3484497070312 95.26974487304688"/>
    <path stroke-width="0" fill="rgb(248, 256, 262)" opacity="1.0044001" stroke="rgb(252, 26, 53)" stroke-opacity="1.0" stroke-linecap="round" stroke-linejoin="round" d="M 450.6971130371094 41.152305603027344 C 401.5296630859375 52.661460876464844 356.7522277832031 70.43756866455078 352.9700622558594 73.58625030517578 C 397.4362487792969 125.13284301757812 336.4541931152344 84.98876190185547 312.3795471191406 30.0522518157959 C 325.5881042480469 16.93482208251953 339.8561096191406 13.595346450805664 416.63909912109375 0.43468356132507324 C 413.82720947265625 17.09375 448.2005920410156 4.874030590057373 450.6971130371094 41.152305603027344"/>
    <path stroke-width="0" fill="rgb(-2, 2, -2)" opacity="1.007345" stroke="rgb(166, 64, 118)" stroke-opacity="1.0" stroke-linecap="round" stroke-linejoin="round" d="M 130.8120880126953 397.34954833984375 C 235.74114990234375 397.7436828613281 120.80077362060547 397.28106689453125 -79.81079864501953 397.4574279785156 C 13.54269790649414 408.79156494140625 -48.14875411987305 406.9371337890625 76.58699798583984 408.2326354980469 C 109.91558837890625 408.44891357421875 134.9108428955078 408.678955078125 253.90904235839844 407.6496887207031 C 72.4651870727539 393.0050964355469 89.64273834228516 396.20550537109375 130.8120880126953 397.34954833984375"/>
    <path stroke-width="0" fill="rgb(110, 84, 114)" opacity="0.97268814" stroke="rgb(40, 28, 167)" stroke-opacity="1.0" stroke-linecap="round" stroke-linejoin="round" d="M 418.0368347167969 -31.61398696899414 C 433.2604675292969 24.469602584838867 454.088623046875 65.57493591308594 441.6436462402344 5.246513843536377 C 386.5438232421875 -19.201189041137695 374.3493347167969 -16.44205665588379 312.05523681640625 -19.66054916381836 C 315.1639404296875 -29.508440017700195 323.5223083496094 -35.45821762084961 394.3455505371094 -33.86525344848633 C 406.1054382324219 -37.010616302490234 415.6422424316406 -32.56230163574219 418.0368347167969 -31.61398696899414"/>
    <path stroke-width="0" fill="rgb(249, 250, 254)" opacity="0.97398525" stroke="rgb(50, 94, 209)" stroke-opacity="1.0" stroke-linecap="round" stroke-linejoin="round" d="M 492.3263854980469 96.1036376953125 C 395.3572692871094 94.35359191894531 362.1969909667969 96.82347106933594 340.1861267089844 93.82726287841797 C 407.21600341796875 97.95155334472656 384.274169921875 102.33850860595703 200.76223754882812 98.50934600830078 C 400.8113098144531 83.7124252319336 356.7801208496094 100.02877044677734 376.2060852050781 82.69174194335938 C 374.0020751953125 73.69013214111328 512.8394165039062 58.89154815673828 492.3263854980469 96.1036376953125"/>
    <path stroke-width="0" fill="rgb(120, 120, 110)" opacity="1.0015081" stroke="rgb(213, 24, 248)" stroke-opacity="1.0" stroke-linecap="round" stroke-linejoin="round" d="M 469.034912109375 33.616764068603516 C 460.9107360839844 54.64642333984375 428.1611328125 57.80038070678711 332.45623779296875 87.07257080078125 C 281.3934020996094 91.20123291015625 219.0784149169922 78.3727035522461 -86.83943939208984 88.54185485839844 C -40.06278991699219 -346.3504638671875 68.1061782836914 -207.80335998535156 423.0233154296875 -84.7677001953125 C 469.9184265136719 -57.701751708984375 486.9224548339844 -61.37751770019531 469.034912109375 33.616764068603516"/>
    <path stroke-width="0" fill="rgb(260, 252, 266)" opacity="0.91639817" stroke="rgb(249, 154, 188)" stroke-opacity="1.0" stroke-linecap="round" stroke-linejoin="round" d="M -17.73443031311035 78.9687271118164 C 324.6757507324219 81.85271453857422 249.81655883789062 73.23579406738281 -48.35092544555664 99.67163848876953 C 204.4613800048828 101.31774139404297 172.58651733398438 96.74015045166016 127.80553436279297 103.756591796875 C 156.78553771972656 97.9058609008789 214.34754943847656 112.0879898071289 361.43109130859375 80.88150787353516 C 24.583942413330078 73.20362091064453 110.36614990234375 113.54861450195312 -17.73443031311035 78.9687271118164"/>
    <path stroke-width="0" fill="rgb(124, 118, 112)" opacity="0.8361126" stroke="rgb(72, 30, 75)" stroke-opacity="1.0" stroke-linecap="round" stroke-linejoin="round" d="M 269.7846374511719 51.41170120239258 C 297.08673095703125 78.74761962890625 376.95880126953125 82.6277847290039 274.36767578125 66.50064086914062 C 219.9676513671875 78.033447265625 203.8408203125 85.65805053710938 199.5204315185547 -3.454176664352417 C 262.51806640625 -37.65595626831055 279.69085693359375 -34.56483840942383 301.6642761230469 -31.521224975585938 C 373.4644470214844 -24.762475967407227 376.3723449707031 -14.341562271118164 269.7846374511719 51.41170120239258"/>
    <path stroke-width="0" fill="rgb(234, 238, 246)" opacity="0.9010451" stroke="rgb(81, 105, 16)" stroke-opacity="1.0" stroke-linecap="round" stroke-linejoin="round" d="M 548.0917358398438 73.73995208740234 C 546.9356689453125 103.32501220703125 533.772705078125 109.36691284179688 521.7030029296875 56.92433166503906 C 415.9054260253906 52.73324203491211 452.2650451660156 65.80747985839844 464.46893310546875 40.719486236572266 C 366.8897705078125 41.75885009765625 415.46978759765625 -19.338603973388672 384.2195129394531 -19.648353576660156 C 413.37115478515625 88.42222595214844 488.5753173828125 -0.7739357352256775 548.0917358398438 73.73995208740234"/>
    <path stroke-width="0" fill="rgb(-4, -3, -1)" opacity="0.86866355" stroke="rgb(144, 67, 133)" stroke-opacity="1.0" stroke-linecap="round" stroke-linejoin="round" d="M 131.9340057373047 407.68798828125 C 122.74649810791016 399.39520263671875 102.53533172607422 418.6500549316406 -63.562442779541016 397.41400146484375 C 218.88784790039062 397.2681884765625 295.78411865234375 396.8134460449219 266.2401123046875 400.0867004394531 C 144.908447265625 405.6343688964844 169.0086669921875 395.8250732421875 252.62060546875 406.9600830078125 C 108.58847045898438 407.24810791015625 118.89043426513672 404.6020812988281 131.9340057373047 407.68798828125"/>
    <path stroke-width="0" fill="rgb(260, 261, 261)" opacity="1.0273464" stroke="rgb(146, 236, 81)" stroke-opacity="1.0" stroke-linecap="round" stroke-linejoin="round" d="M 438.93487548828125 185.7286834716797 C 438.3064880371094 222.56106567382812 438.46954345703125 296.9237060546875 436.23907470703125 284.287109375 C 376.4397277832031 312.02734375 426.8645935058594 246.7971954345703 414.617431640625 266.4187927246094 C 424.8170166015625 141.2237548828125 388.5752868652344 254.2848358154297 440.42401123046875 174.46571350097656 C 441.80499267578125 200.7816925048828 441.2781066894531 247.3813934326172 438.93487548828125 185.7286834716797"/>
    <path stroke-width="0" fill="rgb(-4, -4, -3)" opacity="1.0123236" stroke="rgb(33, 182, 73)" stroke-opacity="1.0" stroke-linecap="round" stroke-linejoin="round" d="M 304.6946716308594 398.801513671875 C 249.93089294433594 396.01824951171875 261.9403991699219 398.2384033203125 667.8031005859375 396.6942138671875 C 539.914794921875 418.1092529296875 282.6593933105469 401.4732360839844 282.6809997558594 411.3770751953125 C 324.00299072265625 393.874755859375 324.84814453125 397.6402282714844 101.59373474121094 397.89697265625 C 279.3510437011719 412.2242736816406 298.61175537109375 412.2455139160156 304.6946716308594 398.801513671875"/>
    <path stroke-width="0" fill="rgb(171, 179, 158)" opacity="0.6565011" stroke="rgb(149, 5, 211)" stroke-opacity="1.0" stroke-linecap="round" stroke-linejoin="round" d="M 522.4730224609375 303.06915283203125 C 495.8466491699219 307.0401916503906 489.5655822753906 293.17041015625 501.0566101074219 48.41379928588867 C 440.1037902832031 4.187107563018799 469.245849609375 104.53011322021484 488.13458251953125 -56.9991455078125 C 423.89288330078125 -32.06654739379883 433.3778381347656 -36.32387161254883 469.7552490234375 -42.66332244873047 C 555.4288330078125 -45.57939910888672 543.9959106445312 -55.355979919433594 522.4730224609375 303.06915283203125"/>
    <path stroke-width="0" fill="rgb(253, 254, 253)" opacity="1.0051733" stroke="rgb(172, 68, 187)" stroke-opacity="1.0" stroke-linecap="round" stroke-linejoin="round" d="M 255.0433349609375 116.74976348876953 C 240.45248413085938 127.97714233398438 289.71087646484375 122.22869873046875 264.0400085449219 130.07186889648438 C 291.5137939453125 117.7759780883789 268.6676330566406 136.61073303222656 18.400259017944336 110.49037170410156 C 634.186767578125 110.42119598388672 609.4732055664062 109.5373764038086 519.2266235351562 136.46656799316406 C 436.65057373046875 114.62255096435547 225.53903198242188 137.9312286376953 255.0433349609375 116.74976348876953"/>
    <path stroke-width="0" fill="rgb(0, 6, 6)" opacity="1.0422816" stroke="rgb(63, 146, 150)" stroke-opacity="1.0" stroke-linecap="round" stroke-linejoin="round" d="M 383.8269348144531 107.27940368652344 C -4.964405536651611 103.10811614990234 32.890750885009766 100.33956909179688 467.4829406738281 98.08362579345703 C 145.461669921875 89.0031509399414 -152.0462188720703 97.95002746582031 203.62750244140625 93.57942199707031 C 178.9501953125 94.09685516357422 4.5347490310668945 100.18081665039062 -85.74063110351562 83.36078643798828 C 546.9201049804688 85.42520904541016 275.56365966796875 75.82848358154297 383.8269348144531 107.27940368652344"/>
    <path stroke-width="0" fill="rgb(255, 257, 257)" opacity="1.0113726" stroke="rgb(56, 242, 114)" stroke-opacity="1.0" stroke-linecap="round" stroke-linejoin="round" d="M -14.94614315032959 135.9459991455078 C -132.2592315673828 144.59278869628906 -14.05056381225586 135.19419860839844 708.9248046875 141.84654235839844 C 653.2726440429688 124.69053649902344 386.50677490234375 130.2338104248047 19.702451705932617 129.680419921875 C -69.8624267578125 134.6280517578125 -154.0985107421875 86.49325561523438 251.58447265625 125.11834716796875 C -40.305206298828125 127.16999053955078 -92.73558044433594 119.85652923583984 -14.94614315032959 135.9459991455078"/>
    <path stroke-width="0" fill="rgb(31, 27, 27)" opacity="0.9591363" stroke="rgb(178, 75, 207)" stroke-opacity="1.0" stroke-linecap="round" stroke-linejoin="round" d="M 187.5138397216797 322.98236083984375 C 114.40697479248047 310.81732177734375 127.8719253540039 293.8025817871094 247.4859161376953 307.0176696777344 C 190.1995849609375 329.94085693359375 109.8600845336914 328.1393127441406 36.6062126159668 322.10284423828125 C 158.02682495117188 312.2323913574219 185.7367706298828 321.6262512207031 119.02538299560547 319.3957214355469 C 133.36082458496094 325.2645568847656 148.02139282226562 306.5908203125 187.5138397216797 322.98236083984375"/>
    <path stroke-width="0" fill="rgb(252, 269, 270)" opacity="1.0905849" stroke="rgb(224, 148, 224)" stroke-opacity="1.0" stroke-linecap="round" stroke-linejoin="round" d="M 482.42926025390625 309.60394287109375 C 483.4031066894531 252.56800842285156 485.9278259277344 275.35345458984375 483.350341796875 284.68865966796875 C 478.10284423828125 273.14739990234375 490.62109375 236.34689331054688 473.1102294921875 184.01930236816406 C 480.1698303222656 237.640625 474.844970703125 221.18850708007812 489.9618225097656 205.8284454345703 C 492.0436706542969 254.68853759765625 494.5234375 342.44012451171875 482.42926025390625 309.60394287109375"/>
    <path stroke-width="0" fill="rgb(47, 35, 36)" opacity="0.74544734" stroke="rgb(184, 127, 243)" stroke-opacity="1.0" stroke-linecap="round" stroke-linejoin="round" d="M 107.0147705078125 323.226318359375 C -26.593263626098633 328.879638671875 -39.063114166259766 314.1997375488281 1.3242324590682983 359.09490966796875 C 16.395977020263672 285.9859619140625 -0.8045011758804321 353.2292785644531 -63.03129577636719 324.0906066894531 C 33.0198860168457 311.33953857421875 63.589168548583984 310.64068603515625 81.44050598144531 317.7745666503906 C 25.592206954956055 304.801513671875 46.974971771240234 290.5762634277344 107.0147705078125 323.226318359375"/>
    <path stroke-width="0" fill="rgb(-4, 28, 24)" opacity="0.9931119" stroke="rgb(108, 154, 4)" stroke-opacity="1.0" stroke-linecap="round" stroke-linejoin="round" d="M 193.88133239746094 311.5888366699219 C 282.9917297363281 334.4476318359375 182.60984802246094 302.8269348144531 285.01409912109375 329.0063781738281 C 55.601993560791016 326.0459899902344 -18.963836669921875 334.02349853515625 178.17861938476562 310.95953369140625 C 185.78121948242188 303.41607666015625 185.9253692626953 301.9269714355469 165.61602783203125 312.94757080078125 C 190.25128173828125 323.9753723144531 193.934326171875 322.45135498046875 193.88133239746094 311.5888366699219"/>
    <path stroke-width="0" fill="rgb(55, 37, 43)" opacity="0.967727" stroke="rgb(168, 73, 157)" stroke-opacity="1.0" stroke-linecap="round" stroke-linejoin="round" d="M 288.25811767578125 327.6583557128906 C 164.5299530029297 315.5649719238281 139.58782958984375 325.11541748046875 413.9686584472656 297.69512939453125 C 363.3935241699219 297.4378662109375 117.67349243164062 298.29547119140625 -101.2804946899414 297.4611511230469 C 166.00830078125 362.5191345214844 218.45309448242188 277.3758544921875 180.90188598632812 320.2735595703125 C 183.09335327148438 322.3624572753906 217.6082763671875 299.83172607421875 288.25811767578125 327.6583557128906"/>
    <path stroke-width="0" fill="rgb(23, 21, 24)" opacity="0.73113567" stroke="rgb(34, 76, 145)" stroke-opacity="1.0" stroke-linecap="round" stroke-linejoin="round" d="M 224.722412109375 319.1258850097656 C 172.51368713378906 302.40130615234375 161.208984375 289.8901062011719 114.66229248046875 325.00726318359375 C 142.1309814453125 326.35382080078125 138.4462127685547 296.1539306640625 197.6172332763672 323.66766357421875 C 211.15806579589844 322.7923278808594 222.346923828125 325.0235595703125 196.41839599609375 315.08038330078125 C 171.86947631835938 322.9538269042969 180.52381896972656 326.35595703125 224.722412109375 319.1258850097656"/>
    <path stroke-width="0" fill="rgb(-5, 5, 11)" opacity="1.0201485" stroke="rgb(146, 166, 166)" stroke-opacity="1.0" stroke-linecap="round" stroke-linejoin="round" d="M 468.7020568847656 319.4751892089844 C 390.5144958496094 297.7361145019531 297.4384765625 321.1187438964844 180.0985565185547 322.2268371582031 C 346.073974609375 330.6615295410156 334.996337890625 322.7082214355469 310.7083740234375 336.5736083984375 C 305.3700256347656 329.2462158203125 294.7451171875 312.1196594238281 313.3833923339844 340.88201904296875 C 316.87628173828125 339.0269470214844 311.1672058105469 320.05804443359375 468.7020568847656 319.4751892089844"/>
    <path stroke-width="0" fill="rgb(189, 204, 186)" opacity="0.8777633" stroke="rgb(228, 93, 111)" stroke-opacity="1.0" stroke-linecap="round" stroke-linejoin="round" d="M 342.3674621582031 357.63836669921875 C 401.4012145996094 360.0195007324219 292.8411865234375 365.5672912597656 304.87371826171875 356.2784118652344 C 331.115234375 347.0274963378906 265.7716979980469 344.7095947265625 274.4112854003906 358.30755615234375 C 263.8244934082031 313.0328063964844 280.32196044921875 330.1317138671875 291.7610168457031 329.3276672363281 C 350.0028991699219 331.48846435546875 314.8575134277344 317.0732727050781 342.3674621582031 357.63836669921875"/>
    <path stroke-width="0" fill="rgb(19, 22, 25)" opacity="1.0055449" stroke="rgb(205, 179, 25)" stroke-opacity="1.0" stroke-linecap="round" stroke-linejoin="round" d="M 462.2351379394531 327.6187438964844 C 615.4154663085938 328.30078125 546.2130737304688 322.00274658203125 501.46044921875 321.4712829589844 C 421.4490051269531 349.5720520019531 409.8348693847656 287.09619140625 433.2535705566406 310.3975830078125 C 514.265380859375 307.0341491699219 506.6199951171875 284.1640319824219 533.0195922851562 292.2731628417969 C 463.45880126953125 293.58428955078125 538.7858276367188 319.0680236816406 462.2351379394531 327.6187438964844"/>
    <path stroke-width="0" fill="rgb(61, 86, 92)" opacity="1.0220592" stroke="rgb(182, 254, 38)" stroke-opacity="1.0" stroke-linecap="round" stroke-linejoin="round" d="M 479.6499938964844 175.89356994628906 C 496.4493713378906 213.19422912597656 452.1089782714844 206.6844940185547 525.5081787109375 211.53453063964844 C 486.8448486328125 216.09359741210938 513.7991333007812 202.1394805908203 488.3063049316406 207.2197265625 C 499.9601745605469 209.04103088378906 517.6492919921875 208.92587280273438 438.3944091796875 210.61099243164062 C 457.7436218261719 302.4549865722656 488.616455078125 303.908203125 479.6499938964844 175.89356994628906"/>
    <path stroke-width="0" fill="rgb(3, 7, 4)" opacity="0.57816494" stroke="rgb(41, 156, 31)" stroke-opacity="1.0" stroke-linecap="round" stroke-linejoin="round" d="M 11.05939769744873 268.3603210449219 C 30.949684143066406 176.7146759033203 -58.575504302978516 208.3433074951172 264.11474609375 204.30123901367188 C 186.47894287109375 227.49700927734375 20.026397705078125 172.5869903564453 49.605709075927734 273.8492736816406 C 50.31334686279297 231.9419403076172 29.90462875366211 225.17068481445312 104.97179412841797 208.56808471679688 C -21.821834564208984 214.68850708007812 46.333045959472656 188.34121704101562 11.05939769744873 268.3603210449219"/>
    <path stroke-width="0" fill="rgb(12, 28, 28)" opacity="0.65341234" stroke="rgb(205, 145, 103)" stroke-opacity="1.0" stroke-linecap="round" stroke-linejoin="round" d="M 324.91375732421875 318.6797790527344 C 429.0592956542969 307.0085144042969 367.47552490234375 330.38958740234375 349.5907287597656 328.35272216796875 C 303.2273864746094 329.29229736328125 231.71566772460938 332.0770568847656 131.78173828125 311.09686279296875 C -69.06946563720703 295.8719177246094 89.39873504638672 301.0038757324219 487.2139892578125 296.5731506347656 C 333.3467102050781 320.4842529296875 309.4913330078125 279.9066467285156 324.91375732421875 318.6797790527344"/>
    <path stroke-width="0" fill="rgb(-1, -9, -9)" opacity="0.8343563" stroke="rgb(177, 115, 184)" stroke-opacity="1.0" stroke-linecap="round" stroke-linejoin="round" d="M 428.1579284667969 350.9226989746094 C 627.975341796875 352.82293701171875 667.011962890625 355.512939453125 547.5475463867188 378.497314453125 C 96.43580627441406 377.01104736328125 -17.056394577026367 387.40997314453125 347.2389221191406 351.0445251464844 C 424.30584716796875 361.0982666015625 373.1021423339844 336.7906799316406 378.169189453125 349.83526611328125 C 311.92877197265625 329.5726013183594 518.8662109375 327.2766418457031 428.1579284667969 350.9226989746094"/>
    <path stroke-width="0" fill="rgb(52, 43, 49)" opacity="1.0449665" stroke="rgb(248, 218, 2)" stroke-opacity="1.0" stroke-linecap="round" stroke-linejoin="round" d="M -50.78639221191406 505.9701232910156 C 476.6631164550781 510.1642150878906 499.90740966796875 497.728759765625 51.94257354736328 499.6937255859375 C 61.994346618652344 450.7718811035156 57.54638671875 479.1656188964844 -30.51308822631836 470.05902099609375 C 64.56205749511719 464.4552917480469 66.05895233154297 470.82574462890625 55.843624114990234 468.7375183105469 C 50.40257263183594 522.4905395507812 84.63388061523438 487.2530212402344 -50.78639221191406 505.9701232910156"/>
    <path stroke-width="0" fill="rgb(36, 34, 28)" opacity="1.0343244" stroke="rgb(186, 43, 132)" stroke-opacity="1.0" stroke-linecap="round" stroke-linejoin="round" d="M 326.8285827636719 371.7734069824219 C 308.3305358886719 320.73016357421875 320.8251647949219 367.74639892578125 12.639591217041016 358.5715637207031 C 402.0731506347656 358.0557861328125 389.45294189453125 354.2339782714844 194.8551788330078 357.95513916015625 C 336.13507080078125 343.42730712890625 206.05599975585938 358.3982238769531 -207.60992431640625 345.3973388671875 C -50.44245147705078 378.708740234375 -29.790821075439453 360.1636657714844 326.8285827636719 371.7734069824219"/>
    <path stroke-width="0" fill="rgb(14, 23, 8)" opacity="0.6554074" stroke="rgb(50, 4, 202)" stroke-opacity="1.0" stroke-linecap="round" stroke-linejoin="round" d="M 459.8638000488281 205.1103973388672 C 484.9708251953125 335.1684875488281 460.28985595703125 203.28921508789062 459.65655517578125 207.2421417236328 C 458.52081298828125 204.0365447998047 453.6822509765625 260.3077392578125 461.8299560546875 223.69447326660156 C 444.3421936035156 318.3973083496094 475.9593505859375 259.014892578125 486.2416687011719 246.12734985351562 C 448.74005126953125 298.93499755859375 466.4975280761719 277.41607666015625 459.8638000488281 205.1103973388672"/>
    <path stroke-width="0" fill="rgb(13, -14, 1)" opacity="0.94746536" stroke="rgb(88, 236, 179)" stroke-opacity="1.0" stroke-linecap="round" stroke-linejoin="round" d="M 492.71502685546875 142.3863983154297 C 491.1222839355469 151.24923706054688 491.9469299316406 304.5489196777344 490.7436218261719 320.8912353515625 C 478.65020751953125 228.71377563476562 475.23834228515625 244.98135375976562 493.5162658691406 320.5936279296875 C 506.65576171875 193.53167724609375 478.3302917480469 200.2534942626953 535.5138549804688 203.79974365234375 C 471.6650085449219 193.61679077148438 512.0614013671875 253.8820037841797 492.71502685546875 142.3863983154297"/>
    <path stroke-width="0" fill="rgb(251, 257, 257)" opacity="1.0208923" stroke="rgb(41, 158, 147)" stroke-opacity="1.0" stroke-linecap="round" stroke-linejoin="round" d="M 318.7679443359375 306.9510192871094 C 252.34207153320312 320.9492492675781 212.66184997558594 315.03125 162.0183868408203 321.74835205078125 C 238.6290283203125 314.81085205078125 200.18017578125 321.13128662109375 85.72052764892578 313.44970703125 C 207.13699340820312 286.47576904296875 267.8699951171875 313.3345031738281 275.33685302734375 300.30975341796875 C 263.8603820800781 315.7153625488281 275.96624755859375 294.01861572265625 318.7679443359375 306.9510192871094"/>
    <path stroke-width="0" fill="rgb(263, 262, 265)" opacity="0.87852573" stroke="rgb(238, 156, 136)" stroke-opacity="1.0" stroke-linecap="round" stroke-linejoin="round" d="M 424.74346923828125 274.2248229980469 C 439.62664794921875 263.4280700683594 431.5983581542969 277.4543762207031 432.0783996582031 231.31744384765625 C 435.5213623046875 222.47561645507812 429.4971923828125 212.26498413085938 434.3639831542969 275.1933898925781 C 435.5979309082031 274.6432800292969 439.3374328613281 263.04974365234375 423.6002502441406 270.73089599609375 C 426.6791076660156 292.9234313964844 415.718994140625 261.3530578613281 424.74346923828125 274.2248229980469"/>
    <path stroke-width="0" fill="rgb(31, 17, 53)" opacity="1.0136434" stroke="rgb(186, 79, 101)" stroke-opacity="1.0" stroke-linecap="round" stroke-linejoin="round" d="M 426.020263671875 472.2419738769531 C 296.6768493652344 468.8010559082031 317.139404296875 467.6871032714844 323.70263671875 468.7861633300781 C 315.8343811035156 467.522705078125 281.3614807128906 466.28704833984375 608.4666748046875 468.2501525878906 C 388.947265625 479.9145812988281 352.8345031738281 463.12200927734375 201.55064392089844 469.7348937988281 C 146.6092071533203 472.5578918457031 208.24656677246094 472.2916259765625 426.020263671875 472.2419738769531"/>
    <path stroke-width="0" fill="rgb(-2, -4, -4)" opacity="0.5866334" stroke="rgb(47, 240, 188)" stroke-opacity="1.0" stroke-linecap="round" stroke-linejoin="round" d="M 273.55908203125 355.8751525878906 C 295.5658874511719 331.78369140625 299.2845764160156 368.2103576660156 503.3082275390625 353.8832092285156 C 366.0512390136719 350.987548828125 345.51019287109375 353.5758972167969 341.2802734375 354.9936828613281 C 305.3060302734375 347.4814758300781 334.9883728027344 358.9310607910156 329.3758239746094 320.534423828125 C 411.5877380371094 289.24090576171875 410.11480712890625 370.8373107910156 273.55908203125 355.8751525878906"/>
    <path stroke-width="0" fill="rgb(-22, -11, 2)" opacity="0.83671045" stroke="rgb(57, 64, 14)" stroke-opacity="1.0" stroke-linecap="round" stroke-linejoin="round" d="M 480.9750061035156 175.12686157226562 C 467.5752258300781 236.8460235595703 484.9488830566406 442.5103759765625 485.0072326660156 186.14971923828125 C 419.2788391113281 196.49432373046875 459.8990478515625 141.98680114746094 437.63372802734375 349.8431091308594 C 436.72723388671875 151.10244750976562 437.6902160644531 181.4815673828125 443.1631164550781 183.97491455078125 C 436.4172668457031 165.41961669921875 488.1766052246094 178.75082397460938 480.9750061035156 175.12686157226562"/>
    <path stroke-width="0" fill="rgb(119, 127, 113)" opacity="1.0002228" stroke="rgb(79, 177, 96)" stroke-opacity="1.0" stroke-linecap="round" stroke-linejoin="round" d="M 632.7093505859375 76.21236419677734 C 544.9718017578125 158.99862670898438 543.33935546875 174.86480712890625 503.51153564453125 188.8536376953125 C 494.5543518066406 165.04489135742188 493.83709716796875 56.87636184692383 498.1853332519531 53.84091567993164 C 519.75439453125 112.37792205810547 506.24383544921875 85.48368072509766 495.9313049316406 47.90610885620117 C 405.1875305175781 8.97336196899414 443.13824462890625 -98.59856414794922 632.7093505859375 76.21236419677734"/>
    <path stroke-width="0" fill="rgb(266, 259, 270)" opacity="0.9983572" stroke="rgb(6, 17, 173)" stroke-opacity="1.0" stroke-linecap="round" stroke-linejoin="round" d="M 488.6364440917969 302.4192810058594 C 510.6938781738281 319.43280029296875 470.0277404785156 307.5351867675781 488.9072570800781 310.2314758300781 C 285.5758972167969 309.8124694824219 179.98495483398438 312.4657287597656 154.98558044433594 300.8992919921875 C 300.7858581542969 300.2125549316406 370.8282165527344 300.678955078125 432.15411376953125 300.9255065917969 C 337.9823913574219 300.1661682128906 310.5740661621094 299.2566833496094 488.6364440917969 302.4192810058594"/>
    <path stroke-width="0" fill="rgb(32, 19, 49)" opacity="0.9396034" stroke="rgb(136, 228, 252)" stroke-opacity="1.0" stroke-linecap="round" stroke-linejoin="round" d="M -66.0650634765625 468.9004821777344 C 31.668184280395508 465.0111999511719 81.1471939086914 469.5107116699219 24.780309677124023 466.81524658203125 C 86.078369140625 467.6666259765625 157.39805603027344 467.49346923828125 343.20465087890625 467.4486999511719 C 382.47412109375 474.6081237792969 206.2384490966797 472.43426513671875 19.595134735107422 472.8523254394531 C 55.017967224121094 471.55877685546875 38.54133605957031 476.0635070800781 -66.0650634765625 468.9004821777344"/>
    <path stroke-width="0" fill="rgb(27, 31, 33)" opacity="0.8684839" stroke="rgb(169, 67, 5)" stroke-opacity="1.0" stroke-linecap="round" stroke-linejoin="round" d="M 120.90129852294922 317.73382568359375 C 113.44517517089844 338.2126770019531 54.008243560791016 310.4654541015625 26.449338912963867 316.2768249511719 C 116.52142333984375 313.2419128417969 126.01630401611328 315.897705078125 121.04287719726562 316.6044616699219 C 92.95323181152344 320.7005615234375 102.3965835571289 326.94195556640625 134.96336364746094 322.5617980957031 C 47.520286560058594 322.2576599121094 46.0826301574707 301.3492736816406 120.90129852294922 317.73382568359375"/>
    <path stroke-width="0" fill="rgb(264, 259, 265)" opacity="1.0180821" stroke="rgb(81, 97, 150)" stroke-opacity="1.0" stroke-linecap="round" stroke-linejoin="round" d="M 135.07095336914062 323.8615417480469 C 117.94342041015625 308.62713623046875 106.07505798339844 312.50616455078125 112.97550201416016 326.48089599609375 C 140.5816192626953 297.058349609375 58.97092056274414 337.6661682128906 -56.70280838012695 300.6064758300781 C 208.960693359375 300.8485412597656 250.82688903808594 300.2157897949219 186.30538940429688 300.77685546875 C 87.7137680053711 320.8138732910156 118.45436096191406 309.5564880371094 135.07095336914062 323.8615417480469"/>
    <path stroke-width="0" fill="rgb(38, 14, 36)" opacity="0.9694478" stroke="rgb(160, 222, 69)" stroke-opacity="1.0" stroke-linecap="round" stroke-linejoin="round" d="M 487.0210876464844 441.8978271484375 C 351.1388244628906 439.38922119140625 413.7494201660156 432.2042236328125 -153.6387939453125 437.8778076171875 C 652.8875732421875 454.2445068359375 499.5469970703125 415.66558837890625 501.03253173828125 432.839599609375 C 278.2311096191406 450.1361999511719 548.275146484375 438.22515869140625 247.99142456054688 435.9272766113281 C 504.06866455078125 435.7543029785156 627.071044921875 434.619384765625 487.0210876464844 441.8978271484375"/>
    <path stroke-width="0" fill="rgb(9, 19, 27)" opacity="0.98796755" stroke="rgb(241, 186, 64)" stroke-opacity="1.0" stroke-linecap="round" stroke-linejoin="round" d="M 372.9571533203125 310.2829895019531 C 5.705233573913574 341.4313659667969 -169.14878845214844 324.2037353515625 16.657922744750977 317.5801696777344 C 104.28176879882812 318.3139953613281 28.520349502563477 315.21832275390625 -74.15055847167969 320.3333740234375 C -1.3048661947250366 317.52337646484375 34.21998977661133 338.5412292480469 -46.36701965332031 308.892822265625 C -130.78724670410156 310.5526123046875 123.69717407226562 309.1135559082031 372.9571533203125 310.2829895019531"/>
    <path stroke-width="0" fill="rgb(256, 268, 268)" opacity="0.84675205" stroke="rgb(95, 118, 70)" stroke-opacity="1.0" stroke-linecap="round" stroke-linejoin="round" d="M 543.5322875976562 200.34779357910156 C 477.3759460449219 165.52500915527344 507.7224426269531 194.8422393798828 497.837890625 208.6503448486328 C 488.48846435546875 208.06761169433594 489.73681640625 194.74258422851562 491.1661376953125 311.7646484375 C 478.8506164550781 315.4981689453125 485.95196533203125 184.1962127685547 483.1509094238281 159.75555419921875 C 499.7644348144531 216.19667053222656 467.87493896484375 214.07748413085938 543.5322875976562 200.34779357910156"/>
    <path stroke-width="0" fill="rgb(40, 40, 50)" opacity="0.8355185" stroke="rgb(36, 124, 90)" stroke-opacity="1.0" stroke-linecap="round" stroke-linejoin="round" d="M 347.1263732910156 487.1216125488281 C 346.068115234375 512.1731567382812 328.610595703125 509.34423828125 463.2870178222656 502.1860656738281 C 386.48101806640625 501.40362548828125 359.7413635253906 497.26788330078125 308.24212646484375 502.0634765625 C 305.3871765136719 471.89190673828125 324.0546569824219 502.9852600097656 312.0972900390625 501.68170166015625 C 353.58135986328125 512.8818969726562 362.2532958984375 494.4056091308594 347.1263732910156 487.1216125488281"/>
    <path stroke-width="0" fill="rgb(212, 184, 202)" opacity="0.6786313" stroke="rgb(140, 149, 245)" stroke-opacity="1.0" stroke-linecap="round" stroke-linejoin="round" d="M 84.39193725585938 385.4637451171875 C 61.934329986572266 375.2521667480469 32.54261016845703 361.7557373046875 85.14066314697266 370.31744384765625 C 125.55262756347656 360.8034362792969 109.51493835449219 372.55010986328125 111.72407531738281 373.6165771484375 C 30.147296905517578 374.0069580078125 58.23628234863281 368.59600830078125 87.17523956298828 388.13018798828125 C 80.65398406982422 383.81256103515625 86.59553527832031 394.8771667480469 84.39193725585938 385.4637451171875"/>
    <path stroke-width="0" fill="rgb(64, 72, 68)" opacity="0.64815277" stroke="rgb(170, 200, 71)" stroke-opacity="1.0" stroke-linecap="round" stroke-linejoin="round" d="M 362.8849182128906 556.4615478515625 C 348.6849365234375 522.8554077148438 334.6247253417969 494.7762451171875 354.5821228027344 503.5404052734375 C 435.7102355957031 505.0774841308594 347.1727294921875 505.2679443359375 317.87054443359375 505.34027099609375 C 360.332275390625 511.4473571777344 347.1927795410156 473.7210388183594 348.3710021972656 494.18017578125 C 336.7447509765625 512.5146484375 360.53936767578125 531.9108276367188 362.8849182128906 556.4615478515625"/>
    <path stroke-width="0" fill="rgb(38, 37, 29)" opacity="0.9218753" stroke="rgb(16, 123, 249)" stroke-opacity="1.0" stroke-linecap="round" stroke-linejoin="round" d="M 353.10894775390625 449.08245849609375 C 371.5003356933594 447.3111572265625 328.7767639160156 431.5420227050781 393.94354248046875 445.7669982910156 C 346.61102294921875 437.3639221191406 365.7150573730469 429.4042053222656 359.44244384765625 447.6341857910156 C 396.3184814453125 444.69873046875 388.1180725097656 456.1172790527344 353.25030517578125 450.8498840332031 C 314.6236877441406 448.9803161621094 317.5724792480469 449.90325927734375 353.10894775390625 449.08245849609375"/>
    <path stroke-width="0" fill="rgb(12, 2, 6)" opacity="0.98278636" stroke="rgb(240, 203, 160)" stroke-opacity="1.0" stroke-linecap="round" stroke-linejoin="round" d="M -17.155170440673828 370.9643859863281 C 35.241172790527344 348.085693359375 30.24398422241211 354.9724426269531 -1.483791708946228 361.39483642578125 C 87.65882110595703 356.7442626953125 72.6316909790039 369.3110656738281 87.53529357910156 349.0952453613281 C 58.00362777709961 384.66754150390625 77.11175537109375 341.710205078125 -27.078927993774414 377.56884765625 C 142.37002563476562 381.7514343261719 377.25347900390625 370.2243347167969 -17.155170440673828 370.9643859863281"/>
    <path stroke-width="0" fill="rgb(34, 51, 65)" opacity="0.8313124" stroke="rgb(88, 37, 250)" stroke-opacity="1.0" stroke-linecap="round" stroke-linejoin="round" d="M 348.9002990722656 505.7523498535156 C 338.3059387207031 477.1127014160156 357.1513366699219 482.4989318847656 350.11431884765625 536.9154663085938 C 390.3490905761719 541.003173828125 371.59466552734375 495.5345458984375 389.3590087890625 503.71539306640625 C 392.29461669921875 494.6806640625 386.5247802734375 459.7971496582031 375.91143798828125 545.64208984375 C 342.1996154785156 505.1724853515625 353.8270568847656 499.59124755859375 348.9002990722656 505.7523498535156"/>
    <path stroke-width="0" fill="rgb(27, 27, 48)" opacity="0.99184954" stroke="rgb(209, 48, 130)" stroke-opacity="1.0" stroke-linecap="round" stroke-linejoin="round" d="M 66.80657196044922 448.28668212890625 C 86.28619384765625 452.8839416503906 18.939712524414062 441.4405822753906 -54.33543395996094 451.1213684082031 C 102.6287612915039 452.86572265625 108.28882598876953 450.6719970703125 100.05533599853516 451.4684753417969 C 83.08213806152344 449.87762451171875 86.6918716430664 446.4015808105469 67.85674285888672 452.2516174316406 C 67.40619659423828 413.3641357421875 78.68006896972656 458.2888488769531 66.80657196044922 448.28668212890625"/>
    <path stroke-width="0" fill="rgb(33, 15, 15)" opacity="0.95274746" stroke="rgb(185, 2, 196)" stroke-opacity="1.0" stroke-linecap="round" stroke-linejoin="round" d="M 105.8448257446289 451.827392578125 C 90.83628845214844 442.11590576171875 105.39228820800781 432.0242004394531 130.66175842285156 438.01806640625 C 137.85939025878906 458.2436218261719 121.75789642333984 445.87841796875 -12.0670166015625 451.72021484375 C 128.2039337158203 448.2218933105469 136.76693725585938 455.978271484375 136.465087890625 443.0007019042969 C 135.9407501220703 434.8038024902344 95.94817352294922 427.5113525390625 105.8448257446289 451.827392578125"/>
    <path stroke-width="0" fill="rgb(27, 38, 23)" opacity="1.044428" stroke="rgb(20, 22, 171)" stroke-opacity="1.0" stroke-linecap="round" stroke-linejoin="round" d="M 461.4605407714844 493.0423889160156 C 442.4744567871094 491.7054748535156 473.4676818847656 524.2290649414062 501.4521484375 494.24542236328125 C 578.1177978515625 485.7593688964844 573.4996337890625 489.517333984375 140.494873046875 489.4424743652344 C 328.31378173828125 497.46173095703125 620.4872436523438 481.5246276855469 452.70849609375 503.3682861328125 C 470.33905029296875 490.337890625 458.0782775878906 506.6145324707031 461.4605407714844 493.0423889160156"/>
    <path stroke-width="0" fill="rgb(-10, 7, 5)" opacity="0.8077993" stroke="rgb(107, 142, 219)" stroke-opacity="1.0" stroke-linecap="round" stroke-linejoin="round" d="M 349.4594421386719 431.5125427246094 C 281.5945129394531 432.36962890625 342.4030456542969 431.4172668457031 315.1260986328125 437.1310729980469 C 395.5662536621094 440.088134765625 341.9010009765625 445.40594482421875 314.79034423828125 440.4097595214844 C 349.20501708984375 423.93475341796875 314.3693542480469 437.7508850097656 -24.818336486816406 426.3876647949219 C 747.652099609375 423.0458068847656 721.6520385742188 431.37335205078125 349.4594421386719 431.5125427246094"/>
    <path stroke-width="0" fill="rgb(14, 44, 39)" opacity="1.0448816" stroke="rgb(68, 33, 14)" stroke-opacity="1.0" stroke-linecap="round" stroke-linejoin="round" d="M 167.1632537841797 437.4031066894531 C 149.9683837890625 455.0924987792969 220.998291015625 443.2451477050781 -58.397640228271484 450.4023742675781 C 377.3927917480469 454.67633056640625 428.6373291015625 445.535888671875 175.84378051757812 447.3828125 C 160.95587158203125 445.9941101074219 170.7047882080078 456.46258544921875 167.8410186767578 435.7333068847656 C 167.10211181640625 430.47650146484375 169.83432006835938 450.1945495605469 167.1632537841797 437.4031066894531"/>
    <path stroke-width="0" fill="rgb(179, 157, 186)" opacity="0.7129009" stroke="rgb(66, 116, 174)" stroke-opacity="1.0" stroke-linecap="round" stroke-linejoin="round" d="M 240.90652465820312 368.49627685546875 C 206.58973693847656 365.47235107421875 193.72030639648438 362.71343994140625 237.21775817871094 374.3330383300781 C 198.6495819091797 363.0297546386719 191.7451629638672 354.25677490234375 153.56520080566406 334.3509826660156 C 189.26712036132812 350.7837829589844 196.59715270996094 365.786376953125 235.27658081054688 369.86773681640625 C 59.30479049682617 376.5330810546875 88.94786834716797 363.777099609375 240.90652465820312 368.49627685546875"/>
    <path stroke-width="0" fill="rgb(20, 19, 13)" opacity="0.8741321" stroke="rgb(14, 177, 198)" stroke-opacity="1.0" stroke-linecap="round" stroke-linejoin="round" d="M 357.7561340332031 356.1574401855469 C 383.9953918457031 361.2698669433594 372.8243713378906 358.8912353515625 397.7911376953125 359.0616149902344 C 419.8707580566406 348.6373291015625 414.4504089355469 345.31640625 413.4642028808594 343.067138671875 C 426.3724365234375 366.8481750488281 415.85614013671875 333.306884765625 411.17022705078125 354.77935791015625 C 428.576416015625 372.1481628417969 378.7628173828125 354.85980224609375 357.7561340332031 356.1574401855469"/>
    <path stroke-width="0" fill="rgb(47, 46, 62)" opacity="0.87676525" stroke="rgb(66, 95, 149)" stroke-opacity="1.0" stroke-linecap="round" stroke-linejoin="round" d="M 431.30755615234375 519.4226684570312 C 410.6280212402344 490.52825927734375 448.14996337890625 496.1939697265625 437.8342590332031 499.0328063964844 C 439.6390686035156 500.7893371582031 405.47845458984375 499.8713073730469 337.8407287597656 501.69439697265625 C 405.24462890625 506.09698486328125 440.69329833984375 510.8221130371094 448.303955078125 502.39300537109375 C 395.649658203125 471.6462707519531 429.17669677734375 510.403076171875 431.30755615234375 519.4226684570312"/>
    <path stroke-width="0" fill="rgb(46, 31, 44)" opacity="0.76288486" stroke="rgb(203, 19, 132)" stroke-opacity="1.0" stroke-linecap="round" stroke-linejoin="round" d="M 575.2395629882812 512.0809326171875 C 539.3185424804688 499.5937194824219 249.01808166503906 513.2672729492188 194.92108154296875 500.5102233886719 C 449.03118896484375 498.4524230957031 496.06097412109375 504.1314697265625 505.103515625 490.03509521484375 C 529.7208862304688 496.7518310546875 578.1384887695312 491.51947021484375 412.590576171875 489.849365234375 C 506.5083312988281 486.42694091796875 469.66790771484375 494.9311828613281 575.2395629882812 512.0809326171875"/>
    <path stroke-width="0" fill="rgb(238, 244, 242)" opacity="0.8644073" stroke="rgb(70, 32, 100)" stroke-opacity="1.0" stroke-linecap="round" stroke-linejoin="round" d="M 404.03717041015625 87.31038665771484 C 420.17535400390625 78.05748748779297 435.62542724609375 87.05721282958984 405.60260009765625 92.94425201416016 C 410.18206787109375 92.41423034667969 436.9281005859375 81.09712219238281 420.873046875 91.7628173828125 C 426.6708984375 92.14250946044922 424.3334045410156 74.85196685791016 402.7944030761719 86.8838119506836 C 388.0068054199219 94.16275024414062 395.3760681152344 92.53575897216797 404.03717041015625 87.31038665771484"/>
    <path stroke-width="0" fill="rgb(30, 26, 41)" opacity="0.94738114" stroke="rgb(47, 230, 138)" stroke-opacity="1.0" stroke-linecap="round" stroke-linejoin="round" d="M 229.7948455810547 451.5790100097656 C 226.20648193359375 433.5160827636719 236.11273193359375 439.5226135253906 230.95521545410156 450.8993225097656 C 432.4061584472656 454.1993713378906 402.48175048828125 444.4981384277344 259.86572265625 449.5471496582031 C 257.0003356933594 422.9826965332031 279.4276428222656 459.876708984375 242.7179412841797 450.0723571777344 C 249.75823974609375 451.25494384765625 225.06072998046875 446.4836120605469 229.7948455810547 451.5790100097656"/>
    <path stroke-width="0" fill="rgb(203, 182, 206)" opacity="0.7362356" stroke="rgb(230, 175, 178)" stroke-opacity="1.0" stroke-linecap="round" stroke-linejoin="round" d="M 177.30931091308594 367.46649169921875 C 179.8549041748047 377.66046142578125 233.33644104003906 362.1427917480469 258.53668212890625 363.27740478515625 C 227.9727783203125 364.8194885253906 228.08607482910156 360.32232666015625 240.5367889404297 370.75054931640625 C 229.8065185546875 372.3403015136719 225.23228454589844 369.924560546875 418.46221923828125 371.0478820800781 C 116.07148742675781 356.6544494628906 314.9255676269531 381.26513671875 177.30931091308594 367.46649169921875"/>
    <path stroke-width="0" fill="rgb(213, 225, 232)" opacity="0.42840418" stroke="rgb(192, 162, 61)" stroke-opacity="1.0" stroke-linecap="round" stroke-linejoin="round" d="M 454.5679626464844 290.11932373046875 C 463.309326171875 291.51727294921875 439.7437744140625 294.32611083984375 447.2984924316406 256.2887268066406 C 442.11260986328125 281.24560546875 449.2651062011719 289.16424560546875 457.9115295410156 292.2067565917969 C 462.59033203125 297.4585266113281 470.2073669433594 295.80023193359375 451.8017272949219 328.8663024902344 C 466.50335693359375 297.70562744140625 466.9419250488281 297.9637756347656 454.5679626464844 290.11932373046875"/>
    <path stroke-width="0" fill="rgb(118, 126, 137)" opacity="0.7415129" stroke="rgb(209, 231, 207)" stroke-opacity="1.0" stroke-linecap="round" stroke-linejoin="round" d="M 555.85498046875 498.2312316894531 C 399.0374450683594 504.05706787109375 430.9577331542969 489.57293701171875 427.5989074707031 519.3497314453125 C 428.2388916015625 509.76226806640625 426.0038146972656 518.7562866210938 422.7453308105469 509.9070739746094 C 437.6809997558594 479.3147277832031 394.9783630371094 495.5283508300781 498.3871765136719 493.13232421875 C 434.466064453125 468.652587890625 417.4785461425781 482.3504333496094 555.85498046875 498.2312316894531"/>
    <path stroke-width="0" fill="rgb(54, 71, 86)" opacity="0.81483334" stroke="rgb(160, 101, 15)" stroke-opacity="1.0" stroke-linecap="round" stroke-linejoin="round" d="M 388.47705078125 272.5160217285156 C 488.3276672363281 272.6693420410156 242.604248046875 243.0573272705078 296.5466003417969 204.37693786621094 C 459.8321228027344 204.4493865966797 409.0691833496094 189.1032257080078 413.7162780761719 268.7515869140625 C 356.7781066894531 248.8229217529297 365.11444091796875 262.7527770996094 288.2008056640625 224.38052368164062 C 296.85333251953125 282.6400146484375 259.2889099121094 271.89178466796875 388.47705078125 272.5160217285156"/>
    <path stroke-width="0" fill="rgb(31, 33, 26)" opacity="0.97457993" stroke="rgb(65, 216, 8)" stroke-opacity="1.0" stroke-linecap="round" stroke-linejoin="round" d="M 231.535400390625 491.7369384765625 C 219.79342651367188 489.2077331542969 123.8159408569336 487.5797424316406 -117.03169250488281 489.36572265625 C 237.17523193359375 495.95074462890625 210.3413848876953 483.1837463378906 204.64813232421875 505.1315002441406 C 193.84251403808594 483.401123046875 192.79513549804688 497.652587890625 297.9111633300781 490.9277648925781 C 178.3585205078125 490.5765380859375 198.49105834960938 494.39068603515625 231.535400390625 491.7369384765625"/>
    <path stroke-width="0" fill="rgb(21, 34, 47)" opacity="0.791035" stroke="rgb(90, 90, 4)" stroke-opacity="1.0" stroke-linecap="round" stroke-linejoin="round" d="M 279.04833984375 437.3039245605469 C 276.40447998046875 431.35003662109375 278.78338623046875 439.8406066894531 290.89166259765625 437.92059326171875 C 302.2415771484375 449.3955993652344 286.4363098144531 438.97515869140625 287.7445983886719 434.3467102050781 C 291.9635925292969 469.1997375488281 363.3597412109375 441.2748107910156 287.66461181640625 452.4165344238281 C 303.0972900390625 441.27899169921875 302.5425109863281 444.5535583496094 279.04833984375 437.3039245605469"/>
    <path stroke-width="0" fill="rgb(37, 22, 16)" opacity="0.7529001" stroke="rgb(102, 236, 25)" stroke-opacity="1.0" stroke-linecap="round" stroke-linejoin="round" d="M -25.497838973999023 438.00634765625 C 58.504581451416016 449.1385498046875 25.399124145507812 432.7237854003906 -6.691558837890625 440.3140563964844 C 127.7301254272461 440.8149108886719 155.85658264160156 418.6195983886719 -73.53141784667969 426.3482666015625 C 147.6100616455078 435.0469055175781 107.42677307128906 419.69854736328125 81.49385833740234 440.24169921875 C 45.3597297668457 442.8669128417969 24.177978515625 438.9315185546875 -25.497838973999023 438.00634765625"/>
    <path stroke-width="0" fill="rgb(75, 81, 66)" opacity="0.9227111" stroke="rgb(221, 115, 83)" stroke-opacity="1.0" stroke-linecap="round" stroke-linejoin="round" d="M 559.5173950195312 363.07196044921875 C 452.1512451171875 348.20379638671875 432.9966735839844 368.3734436035156 451.58209228515625 359.43255615234375 C 474.3708801269531 356.3486022949219 465.6376647949219 354.0036315917969 467.54345703125 356.72265625 C 482.10113525390625 355.8563232421875 431.0425720214844 356.5738830566406 116.42613983154297 356.6869201660156 C 404.361328125 364.9254150390625 487.4898986816406 355.1907958984375 559.5173950195312 363.07196044921875"/>
    <path stroke-width="0" fill="rgb(49, 52, 77)" opacity="0.48867413" stroke="rgb(33, 3, 29)" stroke-opacity="1.0" stroke-linecap="round" stroke-linejoin="round" d="M 435.162109375 509.359375 C 454.9694519042969 491.645751953125 453.5202941894531 513.1890258789062 451.05523681640625 518.2578735351562 C 438.85882568359375 488.54254150390625 472.2203674316406 513.4703979492188 457.85302734375 488.38861083984375 C 442.7300720214844 541.5817260742188 478.3243103027344 525.8926391601562 450.456787109375 526.456787109375 C 446.251708984375 505.2289123535156 451.8792724609375 492.9591064453125 435.162109375 509.359375"/>
    <path stroke-width="0" fill="rgb(108, 109, 125)" opacity="0.45933768" stroke="rgb(162, 125, 252)" stroke-opacity="1.0" stroke-linecap="round" stroke-linejoin="round" d="M 231.36940002441406 116.29827880859375 C 241.68089294433594 93.43651580810547 239.3524932861328 98.47150421142578 235.07717895507812 103.86360168457031 C 234.7204132080078 103.37861633300781 235.64651489257812 103.48531341552734 234.26927185058594 104.47300720214844 C 237.06399536132812 103.51343536376953 244.14564514160156 91.81132507324219 244.73106384277344 69.89884185791016 C 244.849609375 88.52147674560547 237.8486785888672 100.38862609863281 231.36940002441406 116.29827880859375"/>
    <path stroke-width="0" fill="rgb(22, 30, 38)" opacity="0.9423519" stroke="rgb(199, 73, 61)" stroke-opacity="1.0" stroke-linecap="round" stroke-linejoin="round" d="M 419.085693359375 440.2232360839844 C 347.4545593261719 432.5475158691406 389.572265625 468.08355712890625 622.1295776367188 439.602783203125 C 292.8393249511719 466.47442626953125 489.4654235839844 417.55023193359375 369.60870361328125 450.6269226074219 C 451.71417236328125 450.64849853515625 391.2851257324219 456.1912841796875 437.4415588378906 436.8512268066406 C 312.7994384765625 450.5372314453125 366.4330749511719 433.3520812988281 419.085693359375 440.2232360839844"/>
    <path stroke-width="0" fill="rgb(18, 8, 15)" opacity="0.77830404" stroke="rgb(62, 169, 131)" stroke-opacity="1.0" stroke-linecap="round" stroke-linejoin="round" d="M -23.855792999267578 367.3152160644531 C 10.783781051635742 441.6786193847656 -12.185037612915039 457.9698486328125 -51.73887252807617 434.79345703125 C 27.50496482849121 427.47088623046875 40.185150146484375 427.4049377441406 40.63668441772461 452.0381774902344 C 23.776212692260742 438.2832336425781 59.787174224853516 427.94061279296875 -2.655712366104126 432.0895080566406 C 26.104307174682617 465.71185302734375 -2.130993604660034 461.8253479003906 -23.855792999267578 367.3152160644531"/>
    <path stroke-width="0" fill="rgb(41, 29, 31)" opacity="0.8478825" stroke="rgb(141, 73, 180)" stroke-opacity="1.0" stroke-linecap="round" stroke-linejoin="round" d="M 374.5111999511719 451.0292053222656 C 356.0856628417969 455.4460754394531 355.3444519042969 438.8486022949219 358.0761413574219 436.0827941894531 C 363.21282958984375 463.8617248535156 330.10174560546875 444.2619934082031 359.1741027832031 449.47698974609375 C 358.1361389160156 450.749267578125 341.5028991699219 429.9738464355469 396.3194580078125 438.1868896484375 C 352.5076599121094 432.4830322265625 348.0582275390625 455.44744873046875 374.5111999511719 451.0292053222656"/>
    <path stroke-width="0" fill="rgb(219, 198, 228)" opacity="0.6753097" stroke="rgb(247, 230, 75)" stroke-opacity="1.0" stroke-linecap="round" stroke-linejoin="round" d="M 466.2734680175781 367.9566955566406 C 413.9328308105469 365.58624267578125 351.01141357421875 372.3856506347656 458.5300598144531 370.9125671386719 C 453.140869140625 361.47698974609375 461.162841796875 360.3656921386719 466.653076171875 370.3554382324219 C 526.7517700195312 376.33203125 592.5033569335938 366.39605712890625 465.170166015625 366.3052062988281 C 471.6822814941406 377.08245849609375 474.0111389160156 383.8001403808594 466.2734680175781 367.9566955566406"/>
    <path stroke-width="0" fill="rgb(109, 112, 130)" opacity="0.52104676" stroke="rgb(63, 27, 242)" stroke-opacity="1.0" stroke-linecap="round" stroke-linejoin="round" d="M 212.9881134033203 111.37706756591797 C 198.112548828125 100.08042907714844 186.67062377929688 89.74372863769531 186.82920837402344 98.03990173339844 C 194.40313720703125 84.77696990966797 190.09259033203125 97.19515991210938 187.59750366210938 92.01709747314453 C 201.78775024414062 106.63094329833984 205.32679748535156 97.07945251464844 197.9546356201172 111.48880767822266 C 203.39669799804688 97.30278015136719 203.8035125732422 105.5542984008789 212.9881134033203 111.37706756591797"/>
    <path stroke-width="0" fill="rgb(212, 210, 187)" opacity="0.61413676" stroke="rgb(69, 96, 95)" stroke-opacity="1.0" stroke-linecap="round" stroke-linejoin="round" d="M 327.77496337890625 74.37126159667969 C 352.8468933105469 85.60163879394531 296.385009765625 60.93513870239258 370.7919616699219 91.72944641113281 C 386.3818054199219 88.69212341308594 361.6189270019531 98.94213104248047 354.8496398925781 93.55587005615234 C 282.1385498046875 96.14681243896484 252.01820373535156 90.21922302246094 363.2030944824219 99.33580017089844 C 373.5766906738281 90.41654205322266 358.17449951171875 85.34437561035156 327.77496337890625 74.37126159667969"/>
    <path stroke-width="0" fill="rgb(42, 38, 52)" opacity="0.83880574" stroke="rgb(60, 43, 114)" stroke-opacity="1.0" stroke-linecap="round" stroke-linejoin="round" d="M 434.7372741699219 346.3060607910156 C 419.2962951660156 334.1151428222656 423.40325927734375 336.6850891113281 429.53338623046875 373.5279541015625 C 440.9643249511719 358.3385314941406 417.6614685058594 375.4129943847656 418.6921691894531 326.0001525878906 C 417.7980041503906 350.9438781738281 455.3354187011719 359.3934020996094 452.2550048828125 314.7206115722656 C 419.9928283691406 366.88958740234375 439.3354187011719 357.3255310058594 434.7372741699219 346.3060607910156"/>
    <path stroke-width="0" fill="rgb(39, 47, 54)" opacity="0.66851306" stroke="rgb(213, 60, 128)" stroke-opacity="1.0" stroke-linecap="round" stroke-linejoin="round" d="M 318.1258239746094 160.76608276367188 C 328.4295654296875 113.64188385009766 316.56866455078125 129.0944061279297 317.17041015625 129.9459228515625 C 327.4840087890625 123.56591033935547 316.24176025390625 124.83660888671875 320.323486328125 125.04496765136719 C 322.3826904296875 121.11231994628906 324.76849365234375 138.30894470214844 317.79046630859375 158.97293090820312 C 321.3551940917969 139.90049743652344 320.8580017089844 138.4786376953125 318.1258239746094 160.76608276367188"/>
    <path stroke-width="0" fill="rgb(52, 43, 46)" opacity="0.5817793" stroke="rgb(161, 221, 239)" stroke-opacity="1.0" stroke-linecap="round" stroke-linejoin="round" d="M 148.4666290283203 451.5798034667969 C 227.6580352783203 429.7555847167969 223.840576171875 419.6560974121094 229.70770263671875 444.4654235839844 C 247.86465454101562 435.69366455078125 255.5027313232422 432.95599365234375 238.2921600341797 440.43011474609375 C 212.2801513671875 451.1897888183594 241.6650390625 456.7937316894531 228.17791748046875 441.3799743652344 C 222.922119140625 420.23101806640625 223.7086944580078 431.5181884765625 148.4666290283203 451.5798034667969"/>
    <path stroke-width="0" fill="rgb(3, 25, 10)" opacity="0.66030616" stroke="rgb(228, 103, 140)" stroke-opacity="1.0" stroke-linecap="round" stroke-linejoin="round" d="M 220.05657958984375 431.8998718261719 C 11.962238311767578 425.2698059082031 -85.47357940673828 433.55560302734375 149.87648010253906 430.86199951171875 C 180.63514709472656 432.77923583984375 154.18411254882812 419.91424560546875 167.80299377441406 450.11651611328125 C 161.9702911376953 426.7994079589844 173.27389526367188 437.8633728027344 157.2624053955078 440.309326171875 C 180.5705108642578 429.10302734375 122.12421417236328 431.9793701171875 220.05657958984375 431.8998718261719"/>
    <path stroke-width="0" fill="rgb(256, 259, 259)" opacity="0.6671467" stroke="rgb(116, 102, 63)" stroke-opacity="1.0" stroke-linecap="round" stroke-linejoin="round" d="M 458.3602600097656 112.75111389160156 C 449.2756652832031 119.31773376464844 459.06536865234375 116.38885498046875 476.7320251464844 119.74983215332031 C 450.0776672363281 128.18089294433594 458.11871337890625 108.27613830566406 481.01629638671875 118.67345428466797 C 469.3085632324219 117.98998260498047 459.5959777832031 108.062255859375 443.7091064453125 113.5523910522461 C 500.8047790527344 121.40361022949219 508.5831298828125 129.35911560058594 458.3602600097656 112.75111389160156"/>
    <path stroke-width="0" fill="rgb(109, 123, 120)" opacity="0.24871635" stroke="rgb(85, 235, 219)" stroke-opacity="1.0" stroke-linecap="round" stroke-linejoin="round" d="M 460.185791015625 151.26502990722656 C 468.7547302246094 109.9097900390625 451.3235168457031 125.65717315673828 441.6582946777344 116.18699645996094 C 433.3558654785156 113.04473114013672 427.3310546875 117.31914520263672 428.0668640136719 117.1097640991211 C 442.9898986816406 110.7593765258789 437.0623779296875 119.22211456298828 457.8883972167969 121.50483703613281 C 455.8219909667969 119.5936508178711 467.8251647949219 127.42449188232422 460.185791015625 151.26502990722656"/>
    <path stroke-width="0" fill="rgb(239, 246, 242)" opacity="0.77978194" stroke="rgb(64, 113, 26)" stroke-opacity="1.0" stroke-linecap="round" stroke-linejoin="round" d="M 476.95477294921875 87.98893737792969 C 458.3161315917969 82.72078704833984 478.2246398925781 103.5892333984375 487.3302307128906 93.36146545410156 C 445.5336608886719 83.59799194335938 437.8465576171875 69.22010803222656 445.58050537109375 91.92545318603516 C 493.8935546875 98.78955078125 498.79022216796875 89.15885925292969 484.8277587890625 81.04798889160156 C 461.54937744140625 94.59282684326172 478.60906982421875 101.24423217773438 476.95477294921875 87.98893737792969"/>
    <path stroke-width="0" fill="rgb(226, 205, 152)" opacity="0.83638066" stroke="rgb(0, 0, 0)" stroke-opacity="0.0" stroke-linecap="round" stroke-linejoin="round" d="M 275.053955078125 18.00640106201172 C 275.065185546875 22.907087326049805 272.13336181640625 25.576448440551758 266.9751892089844 26.507774353027344 C 261.63323974609375 26.220962524414062 258.3546142578125 23.847909927368164 258.5384826660156 18.729209899902344 C 259.86767578125 13.473160743713379 262.78973388671875 10.486604690551758 266.5972595214844 10.229560852050781 C 271.6761474609375 10.981029510498047 274.6975402832031 13.572927474975586 275.053955078125 18.00640106201172"/>
    <path stroke-width="0" fill="rgb(142, 125, 227)" opacity="0.47002417" stroke="rgb(0, 0, 0)" stroke-opacity="0.0" stroke-linecap="round" stroke-linejoin="round" d="M 120.474609375 119.92540740966797 C 120.6036605834961 123.92770385742188 118.52085876464844 127.17927551269531 114.11032104492188 127.62797546386719 C 108.30326843261719 126.74950408935547 105.50016021728516 123.94506072998047 106.25711059570312 119.9783935546875 C 107.11830139160156 115.55752563476562 109.76387023925781 112.31912231445312 112.91744232177734 110.61720275878906 C 116.31026458740234 112.91234588623047 118.74642944335938 116.23248291015625 120.474609375 119.92540740966797"/>
    <path stroke-width="0" fill="rgb(108, 131, 156)" opacity="0.4376783" stroke="rgb(0, 0, 0)" stroke-opacity="0.0" stroke-linecap="round" stroke-linejoin="round" d="M 21.294994354248047 42.98164749145508 C 20.526729583740234 46.8369140625 17.582277297973633 49.63847351074219 13.292285919189453 49.95710754394531 C 8.775115013122559 50.364585876464844 5.8083415031433105 48.29281997680664 6.278671741485596 43.061309814453125 C 5.826837539672852 37.91476058959961 8.58958911895752 35.20368194580078 13.236404418945312 35.59074783325195 C 17.71114730834961 36.41447830200195 20.69367027282715 39.189090728759766 21.294994354248047 42.98164749145508"/>
    <path stroke-width="0" fill="rgb(196, 163, 183)" opacity="0.3470184" stroke="rgb(0, 0, 0)" stroke-opacity="0.0" stroke-linecap="round" stroke-linejoin="round" d="M 7.31918478012085 6.175139427185059 C 6.037689208984375 10.57190990447998 3.7000014781951904 14.03565788269043 0.5323892831802368 16.1707763671875 C -3.6408491134643555 14.534456253051758 -6.560880184173584 11.567858695983887 -7.632907390594482 7.5678205490112305 C -6.56112003326416 3.56783390045166 -3.6329166889190674 0.6396306753158569 0.1849975883960724 -0.08142514526844025 C 4.7914323806762695 0.5864337086677551 7.7320237159729 2.984422445297241 7.31918478012085 6.175139427185059"/>
    <path stroke-width="0" fill="rgb(21, 32, 200)" opacity="0.082156695" stroke="rgb(0, 0, 0)" stroke-opacity="0.0" stroke-linecap="round" stroke-linejoin="round" d="M 248.5183868408203 371.5604553222656 C 247.19007873535156 375.380126953125 244.08279418945312 378.0206298828125 240.4050750732422 379.1212158203125 C 237.34608459472656 377.2215881347656 234.25230407714844 374.2927551269531 232.15435791015625 370.5875549316406 C 232.80091857910156 366.8306579589844 235.75006103515625 364.1764831542969 240.2690887451172 363.7375793457031 C 243.99765014648438 364.5663757324219 246.9444122314453 367.5912780761719 248.5183868408203 371.5604553222656"/>
    <path stroke-width="0" fill="rgb(225, 218, 201)" opacity="0.7952019" stroke="rgb(0, 0, 0)" stroke-opacity="0.0" stroke-linecap="round" stroke-linejoin="round" d="M 50.96745681762695 24.961013793945312 C 50.384395599365234 29.52964973449707 47.201385498046875 32.11965560913086 42.77593994140625 33.33506774902344 C 38.54479217529297 32.72959518432617 35.20182418823242 30.20016098022461 34.31331253051758 26.085355758666992 C 35.997859954833984 21.06077766418457 38.83302307128906 18.079744338989258 42.8382682800293 17.765085220336914 C 47.54330825805664 18.380403518676758 50.696075439453125 20.938213348388672 50.96745681762695 24.961013793945312"/>
    <path stroke-width="0" fill="rgb(122, 198, 193)" opacity="0.82375324" stroke="rgb(0, 0, 0)" stroke-opacity="0.0" stroke-linecap="round" stroke-linejoin="round" d="M 190.9701690673828 139.40036010742188 C 189.72105407714844 142.67930603027344 186.88711547851562 145.78562927246094 183.3407440185547 146.36465454101562 C 180.6455535888672 145.16033935546875 177.9707794189453 141.6904296875 176.35418701171875 138.54965209960938 C 176.78175354003906 135.66270446777344 179.88446044921875 132.8235626220703 183.64137268066406 131.2073516845703 C 186.07281494140625 133.34762573242188 189.0889892578125 136.58360290527344 190.9701690673828 139.40036010742188"/>
    <path stroke-width="0" fill="rgb(231, 54, 14)" opacity="0.39452764" stroke="rgb(0, 0, 0)" stroke-opacity="0.0" stroke-linecap="round" stroke-linejoin="round" d="M 20.147668838500977 16.079702377319336 C 18.871408462524414 19.93790054321289 16.014020919799805 22.989171981811523 13.098085403442383 23.463138580322266 C 9.112176895141602 22.38996124267578 5.9959259033203125 19.85692024230957 5.738122463226318 17.28951644897461 C 6.727578639984131 13.477316856384277 9.307483673095703 10.301549911499023 13.219594955444336 9.257755279541016 C 16.056140899658203 9.927289962768555 19.111108779907227 12.653385162353516 20.147668838500977 16.079702377319336"/>
    <path stroke-width="0" fill="rgb(179, 143, 138)" opacity="0.63524187" stroke="rgb(0, 0, 0)" stroke-opacity="0.0" stroke-linecap="round" stroke-linejoin="round" d="M 278.852294921875 241.66412353515625 C 278.03009033203125 244.14151000976562 275.1908874511719 247.14166259765625 272.39984130859375 248.11195373535156 C 267.09637451171875 247.60726928710938 263.7969665527344 246.17996215820312 263.2210693359375 241.40228271484375 C 263.678955078125 235.6859893798828 267.08673095703125 234.49769592285156 271.88104248046875 234.23406982421875 C 274.7456359863281 235.04344177246094 277.4952392578125 238.44967651367188 278.852294921875 241.66412353515625"/>
    <path stroke-width="0" fill="rgb(82, 221, 168)" opacity="0.7286121" stroke="rgb(0, 0, 0)" stroke-opacity="0.0" stroke-linecap="round" stroke-linejoin="round" d="M 39.69515609741211 416.077880859375 C 39.46220779418945 419.927978515625 36.19095993041992 422.564453125 31.352706909179688 423.79638671875 C 28.007457733154297 422.634521484375 25.861127853393555 418.5822448730469 23.976938247680664 414.26312255859375 C 23.977479934692383 410.75665283203125 27.41284942626953 408.3511657714844 31.261005401611328 408.23126220703125 C 35.42844009399414 409.0086975097656 38.628658294677734 411.614501953125 39.69515609741211 416.077880859375"/>
    <path stroke-width="0" fill="rgb(87, 110, 214)" opacity="0.018533926" stroke="rgb(0, 0, 0)" stroke-opacity="0.0" stroke-linecap="round" stroke-linejoin="round" d="M 87.83016204833984 333.6644287109375 C 86.75627136230469 337.3661193847656 83.6197509765625 340.08172607421875 79.72882843017578 341.1701354980469 C 76.01466369628906 340.32977294921875 73.02384185791016 337.50048828125 71.7785873413086 333.2369689941406 C 72.62330627441406 329.1822204589844 75.55543518066406 326.2889099121094 79.75614929199219 325.33111572265625 C 83.7989273071289 326.7593994140625 86.75428771972656 329.6556091308594 87.83016204833984 333.6644287109375"/>
    <path stroke-width="0" fill="rgb(32, 109, 36)" opacity="0.14075226" stroke="rgb(0, 0, 0)" stroke-opacity="0.0" stroke-linecap="round" stroke-linejoin="round" d="M 24.697359085083008 21.005563735961914 C 24.254241943359375 24.76300048828125 20.913814544677734 26.979209899902344 15.920112609863281 27.59695816040039 C 12.350669860839844 27.640169143676758 9.686907768249512 24.48812484741211 8.41853141784668 19.834667205810547 C 9.119583129882812 15.690407752990723 12.072937965393066 12.809934616088867 16.209131240844727 11.867496490478516 C 20.407766342163086 13.643767356872559 23.62990951538086 16.398681640625 24.697359085083008 21.005563735961914"/>
    <path stroke-width="0" fill="rgb(190, 143, 211)" opacity="0.96747756" stroke="rgb(0, 0, 0)" stroke-opacity="0.0" stroke-linecap="round" stroke-linejoin="round" d="M 26.555240631103516 10.020505905151367 C 27.055269241333008 13.670951843261719 23.811046600341797 15.97498607635498 18.68290138244629 17.320114135742188 C 14.895391464233398 17.073753356933594 12.811450004577637 13.630205154418945 11.846159934997559 8.544907569885254 C 11.829155921936035 4.4847822189331055 15.016658782958984 2.5616559982299805 20.155536651611328 1.406879186630249 C 23.624481201171875 1.9354873895645142 25.95584487915039 5.739337921142578 26.555240631103516 10.020505905151367"/>
    <path stroke-width="0" fill="rgb(52, 7, 219)" opacity="0.08571198" stroke="rgb(0, 0, 0)" stroke-opacity="0.0" stroke-linecap="round" stroke-linejoin="round" d="M 80.64678955078125 483.2338562011719 C 80.259765625 487.0787048339844 77.53797912597656 490.0092468261719 72.84222412109375 490.92132568359375 C 68.97589111328125 490.1019592285156 66.15626525878906 487.1447448730469 65.5246353149414 483.25054931640625 C 66.62713623046875 478.95208740234375 69.24114990234375 475.872314453125 73.10466003417969 475.0949401855469 C 77.0273208618164 476.11041259765625 79.80616760253906 479.1611022949219 80.64678955078125 483.2338562011719"/>
    <path stroke-width="0" fill="rgb(23, 173, 152)" opacity="0.12623836" stroke="rgb(0, 0, 0)" stroke-opacity="0.0" stroke-linecap="round" stroke-linejoin="round" d="M 118.33351135253906 104.82905578613281 C 116.14692687988281 108.89131164550781 113.6951904296875 112.30360412597656 110.1990966796875 114.18610382080078 C 106.28553009033203 112.36593627929688 103.47722625732422 109.205078125 101.31369018554688 105.14543151855469 C 102.93169403076172 101.41219329833984 106.10281372070312 98.7669677734375 109.61284637451172 98.45957946777344 C 113.92610168457031 99.05864715576172 117.27176666259766 101.39892578125 118.33351135253906 104.82905578613281"/>
    <path stroke-width="0" fill="rgb(117, 131, 228)" opacity="0.23329772" stroke="rgb(0, 0, 0)" stroke-opacity="0.0" stroke-linecap="round" stroke-linejoin="round" d="M 344.7701110839844 484.53631591796875 C 343.9615173339844 488.21282958984375 340.5106506347656 490.8853454589844 336.68304443359375 491.699462890625 C 332.2017822265625 490.70953369140625 328.7884521484375 488.67608642578125 328.4910583496094 484.87872314453125 C 330.27630615234375 480.727294921875 332.9492492675781 477.1641845703125 336.5460205078125 475.43048095703125 C 340.3139953613281 477.00445556640625 343.16229248046875 480.4195861816406 344.7701110839844 484.53631591796875"/>
    <path stroke-width="0" fill="rgb(186, 98, 49)" opacity="0.2694826" stroke="rgb(0, 0, 0)" stroke-opacity="0.0" stroke-linecap="round" stroke-linejoin="round" d="M 483.7728576660156 191.66455078125 C 482.99310302734375 194.99627685546875 479.93023681640625 197.8001708984375 476.2865905761719 199.25027465820312 C 473.0686340332031 197.49517822265625 469.68072509765625 194.3226776123047 467.76226806640625 191.6038818359375 C 469.6985168457031 187.73056030273438 472.995361328125 185.1864471435547 476.7646484375 184.3936309814453 C 479.3722229003906 185.185546875 482.4588623046875 187.9734649658203 483.7728576660156 191.66455078125"/>
    <path stroke-width="0" fill="rgb(25, 137, 150)" opacity="0.29928702" stroke="rgb(0, 0, 0)" stroke-opacity="0.0" stroke-linecap="round" stroke-linejoin="round" d="M 121.56861114501953 373.8732604980469 C 120.15052032470703 377.56427001953125 117.41075134277344 380.4303283691406 113.54280090332031 381.3376770019531 C 110.08419036865234 380.27484130859375 107.63706970214844 376.9317932128906 106.4332275390625 373.3077087402344 C 107.0147476196289 370.1590576171875 109.97560119628906 367.2629089355469 113.8515625 365.8165588378906 C 117.51920318603516 366.96246337890625 120.58441925048828 369.60076904296875 121.56861114501953 373.8732604980469"/>
    <path stroke-width="0" fill="rgb(214, 238, 72)" opacity="0.08715789" stroke="rgb(0, 0, 0)" stroke-opacity="0.0" stroke-linecap="round" stroke-linejoin="round" d="M 269.3346252441406 32.714988708496094 C 269.2199401855469 36.810340881347656 266.3560485839844 39.336055755615234 262.0938720703125 39.60114288330078 C 258.39404296875 39.498619079589844 255.785400390625 36.433616638183594 254.6508026123047 32.037498474121094 C 254.88165283203125 28.036577224731445 257.5686950683594 25.052982330322266 262.677001953125 24.208269119262695 C 267.30206298828125 24.668460845947266 269.4111633300781 27.861589431762695 269.3346252441406 32.714988708496094"/>
    <path stroke-width="0" fill="rgb(221, 195, 83)" opacity="0.6157348" stroke="rgb(0, 0, 0)" stroke-opacity="0.0" stroke-linecap="round" stroke-linejoin="round" d="M 108.1767807006836 3.043043613433838 C 106.07775115966797 7.145779132843018 103.47225189208984 10.524081230163574 100.37895202636719 11.651345252990723 C 96.78308868408203 11.333046913146973 94.26271057128906 8.353936195373535 93.75703430175781 3.5699214935302734 C 92.81092834472656 -0.3871867060661316 95.76718139648438 -3.1641647815704346 100.56085205078125 -4.09667444229126 C 105.44891357421875 -3.083115816116333 108.43800354003906 -0.2570078670978546 108.1767807006836 3.043043613433838"/>
    <path stroke-width="0" fill="rgb(15, 158, 120)" opacity="0.85610116" stroke="rgb(0, 0, 0)" stroke-opacity="0.0" stroke-linecap="round" stroke-linejoin="round" d="M 192.0946044921875 301.8072509765625 C 191.68673706054688 307.08099365234375 189.72763061523438 310.1685791015625 184.97494506835938 310.3606262207031 C 180.7579803466797 310.3313293457031 179.06393432617188 306.87957763671875 177.4602813720703 302.1011962890625 C 179.26080322265625 300.0589599609375 182.49148559570312 296.94207763671875 185.20420837402344 295.3009338378906 C 188.42481994628906 296.68951416015625 191.99241638183594 299.40814208984375 192.0946044921875 301.8072509765625"/>
    <path stroke-width="0" fill="rgb(36, 177, 207)" opacity="0.03503389" stroke="rgb(0, 0, 0)" stroke-opacity="0.0" stroke-linecap="round" stroke-linejoin="round" d="M 251.56280517578125 263.8768310546875 C 250.11309814453125 267.5828552246094 246.37677001953125 269.77423095703125 242.62693786621094 270.5255432128906 C 238.8900604248047 270.2391662597656 235.7271728515625 267.58538818359375 235.0125732421875 264.1628723144531 C 236.3801727294922 259.93212890625 238.99807739257812 256.7265930175781 242.69949340820312 255.39137268066406 C 246.75718688964844 256.6247863769531 249.70481872558594 259.59075927734375 251.56280517578125 263.8768310546875"/>
    <path stroke-width="0" fill="rgb(168, 235, 142)" opacity="0.77126426" stroke="rgb(0, 0, 0)" stroke-opacity="0.0" stroke-linecap="round" stroke-linejoin="round" d="M 26.025150299072266 489.0638427734375 C 24.922155380249023 492.5346984863281 22.509737014770508 495.90289306640625 19.62149429321289 498.0234069824219 C 16.653263092041016 495.6681823730469 14.155393600463867 492.1854248046875 13.262969970703125 489.3638000488281 C 14.135148048400879 487.2070007324219 16.47442054748535 483.3587646484375 18.83616828918457 482.0910339355469 C 22.38208770751953 484.048095703125 25.94841194152832 486.36376953125 26.025150299072266 489.0638427734375"/>
    <path stroke-width="0" fill="rgb(167, 100, 222)" opacity="0.94009674" stroke="rgb(0, 0, 0)" stroke-opacity="0.0" stroke-linecap="round" stroke-linejoin="round" d="M 188.00082397460938 192.97488403320312 C 187.02645874023438 196.787841796875 185.28884887695312 201.0220489501953 181.97756958007812 202.2347412109375 C 177.56658935546875 200.11520385742188 174.45309448242188 197.3645782470703 174.5135040283203 194.31581115722656 C 175.38555908203125 190.3504180908203 177.62234497070312 187.3212890625 180.77330017089844 186.65769958496094 C 184.36851501464844 187.8009490966797 187.82540893554688 190.11074829101562 188.00082397460938 192.97488403320312"/>
    <path stroke-width="0" fill="rgb(18, 64, 107)" opacity="0.8060298" stroke="rgb(0, 0, 0)" stroke-opacity="0.0" stroke-linecap="round" stroke-linejoin="round" d="M 106.99385833740234 57.44961929321289 C 105.74740600585938 61.3010139465332 103.19602966308594 64.66231536865234 99.5123062133789 65.60636138916016 C 95.74708557128906 63.869197845458984 92.76721954345703 60.89889907836914 91.75794219970703 57.507755279541016 C 92.59622192382812 53.6886100769043 95.25281524658203 50.70840835571289 99.65650177001953 49.104156494140625 C 102.98717498779297 50.55155563354492 105.70279693603516 53.76151657104492 106.99385833740234 57.44961929321289"/>
    <path stroke-width="0" fill="rgb(172, 199, 141)" opacity="0.9702818" stroke="rgb(0, 0, 0)" stroke-opacity="0.0" stroke-linecap="round" stroke-linejoin="round" d="M 260.7274169921875 476.0565185546875 C 259.56640625 479.6549377441406 256.5981140136719 482.6103210449219 252.8095703125 483.7231750488281 C 248.95889282226562 482.8091735839844 246.0013427734375 479.9096984863281 244.9780731201172 475.8548278808594 C 246.09185791015625 472.06884765625 248.95870971679688 468.9927978515625 252.0816650390625 468.1961364746094 C 256.86651611328125 469.38104248046875 259.974365234375 471.90289306640625 260.7274169921875 476.0565185546875"/>
    <path stroke-width="0" fill="rgb(111, 151, 195)" opacity="0.38635883" stroke="rgb(0, 0, 0)" stroke-opacity="0.0" stroke-linecap="round" stroke-linejoin="round" d="M 31.106718063354492 101.73838806152344 C 31.036243438720703 106.28233337402344 28.19008445739746 108.66452026367188 23.85137367248535 109.04015350341797 C 19.91712760925293 107.76853942871094 17.28085708618164 104.64241790771484 17.15045928955078 101.77882385253906 C 17.022043228149414 97.63910675048828 19.392574310302734 94.33674621582031 23.166357040405273 93.24004364013672 C 27.304880142211914 94.41055297851562 30.256174087524414 97.35440063476562 31.106718063354492 101.73838806152344"/>
    <path stroke-width="0" fill="rgb(245, 171, 218)" opacity="0.53632224" stroke="rgb(0, 0, 0)" stroke-opacity="0.0" stroke-linecap="round" stroke-linejoin="round" d="M 135.62278747558594 19.800548553466797 C 135.50877380371094 23.557247161865234 132.4744110107422 26.34067726135254 128.74581909179688 26.56639289855957 C 124.68626403808594 25.398698806762695 121.58785247802734 22.701873779296875 120.47859954833984 18.734806060791016 C 120.5608901977539 14.550368309020996 124.13373565673828 12.559739112854004 128.47251892089844 11.523189544677734 C 131.42300415039062 12.7005615234375 134.42416381835938 15.954147338867188 135.62278747558594 19.800548553466797"/>
    <path stroke-width="0" fill="rgb(38, 139, 112)" opacity="0.9144212" stroke="rgb(0, 0, 0)" stroke-opacity="0.0" stroke-linecap="round" stroke-linejoin="round" d="M 76.72283935546875 255.90899658203125 C 76.47447204589844 260.32232666015625 73.89594268798828 263.26788330078125 69.44247436523438 263.600341796875 C 64.79827880859375 263.2765808105469 62.009979248046875 260.7860107421875 62.169918060302734 255.7448272705078 C 62.0983772277832 251.4666748046875 65.07939147949219 248.89540100097656 69.7768325805664 248.50613403320312 C 73.88135528564453 248.74110412597656 76.70039367675781 251.6688995361328 76.72283935546875 255.90899658203125"/>
    <path stroke-width="0" fill="rgb(28, 130, 174)" opacity="0.702381" stroke="rgb(0, 0, 0)" stroke-opacity="0.0" stroke-linecap="round" stroke-linejoin="round" d="M 509.71875 449.4262390136719 C 510.92498779296875 453.11077880859375 507.5541076660156 454.60577392578125 503.15386962890625 455.2057189941406 C 499.45166015625 454.4118347167969 495.76275634765625 452.31591796875 494.9266357421875 449.1305236816406 C 496.45355224609375 444.3699035644531 499.0172424316406 440.89923095703125 502.15692138671875 440.62127685546875 C 506.26031494140625 442.2524719238281 509.3004455566406 444.85211181640625 509.71875 449.4262390136719"/>
  </g>
</svg>
