<?xml version="1.0" ?>
<svg xmlns="http://www.w3.org/2000/svg" version="1.1" width="512" height="512">
  <defs/>
  <g>
    <path stroke-width="0" fill="rgb(-30, -25, 29)" opacity="1.130467" stroke="rgb(139, 182, 153)" stroke-opacity="1.0" stroke-linecap="round" stroke-linejoin="round" d="M 575.33349609375 161.98873901367188 C 472.00518798828125 156.63182067871094 255.14686584472656 161.2635498046875 21.523466110229492 158.8279266357422 C 149.9614715576172 41.40039825439453 217.20492553710938 78.77104187011719 174.48895263671875 -25.099302291870117 C 185.01902770996094 -33.60383224487305 197.35633850097656 -35.491127014160156 255.79783630371094 -34.2771110534668 C 358.9682922363281 -48.57168960571289 437.43682861328125 -146.64566040039062 575.33349609375 161.98873901367188"/>
    <path stroke-width="0" fill="rgb(32, 55, 44)" opacity="0.6294985" stroke="rgb(108, 164, 111)" stroke-opacity="1.0" stroke-linecap="round" stroke-linejoin="round" d="M 317.6708679199219 713.0101318359375 C -124.22361755371094 748.2094116210938 7.936387062072754 370.0074768066406 44.64472579956055 85.1148910522461 C 293.0481872558594 122.73342895507812 289.8204040527344 118.47431945800781 280.1459045410156 40.89720916748047 C 284.2266845703125 -66.92325592041016 317.0650329589844 -46.443145751953125 442.3717346191406 -36.365211486816406 C 639.143310546875 -2.5854287147521973 854.1314086914062 240.14646911621094 317.6708679199219 713.0101318359375"/>
    <path stroke-width="0" fill="rgb(70, 100, 70)" opacity="1.0332394" stroke="rgb(245, 97, 201)" stroke-opacity="1.0" stroke-linecap="round" stroke-linejoin="round" d="M 363.3072509765625 88.85893249511719 C 332.10870361328125 105.11856079101562 322.95147705078125 109.4781265258789 88.4394760131836 106.76026916503906 C 110.6676025390625 103.6150894165039 112.05255126953125 111.51028442382812 120.72222900390625 67.0373764038086 C 135.6087188720703 -33.50758361816406 141.19656372070312 -41.69476318359375 171.7787322998047 -45.70570373535156 C 292.6195983886719 -29.046566009521484 317.1937561035156 -35.946231842041016 363.3072509765625 88.85893249511719"/>
    <path stroke-width="0" fill="rgb(5, 10, 23)" opacity="1.0255086" stroke="rgb(144, 236, 18)" stroke-opacity="1.0" stroke-linecap="round" stroke-linejoin="round" d="M 257.2657775878906 83.73709869384766 C 200.46035766601562 105.03968811035156 295.72412109375 69.22026824951172 532.9593505859375 141.91575622558594 C 129.69126892089844 146.59654235839844 18.09648895263672 91.45891571044922 -30.495662689208984 238.9378662109375 C -45.53935623168945 -103.79988098144531 -12.785496711730957 -54.71656799316406 149.37416076660156 -35.13868713378906 C 205.5410919189453 -44.21831130981445 222.84848022460938 -50.53631591796875 257.2657775878906 83.73709869384766"/>
    <path stroke-width="0" fill="rgb(266, 258, 260)" opacity="1.0447915" stroke="rgb(5, 212, 198)" stroke-opacity="1.0" stroke-linecap="round" stroke-linejoin="round" d="M 493.031005859375 243.87142944335938 C 467.2929992675781 179.41026306152344 268.09649658203125 188.19407653808594 292.06756591796875 218.73330688476562 C 192.56646728515625 182.14666748046875 152.42539978027344 187.6421356201172 129.0947723388672 159.39854431152344 C 82.81420135498047 158.31886291503906 85.76834869384766 158.4188690185547 496.20159912109375 158.67755126953125 C 494.5018615722656 158.72732543945312 494.5314025878906 138.5621337890625 493.031005859375 243.87142944335938"/>
    <path stroke-width="0" fill="rgb(234, 232, 235)" opacity="0.69315356" stroke="rgb(30, 163, 36)" stroke-opacity="1.0" stroke-linecap="round" stroke-linejoin="round" d="M 637.9895629882812 412.697998046875 C 458.2637023925781 442.7908935546875 159.62295532226562 407.9739990234375 152.79351806640625 425.6377258300781 C 284.3742370605469 425.0494689941406 324.6139221191406 424.8289489746094 -32.81849670410156 426.5141906738281 C 199.594970703125 396.35980224609375 233.22894287109375 426.11907958984375 55.21453857421875 413.3198547363281 C 132.5446319580078 416.636474609375 306.3997497558594 400.9446716308594 637.9895629882812 412.697998046875"/>
    <path stroke-width="0" fill="rgb(247, 250, 248)" opacity="0.91137457" stroke="rgb(133, 105, 67)" stroke-opacity="1.0" stroke-linecap="round" stroke-linejoin="round" d="M 574.0596313476562 380.4201965332031 C 752.3068237304688 404.0419921875 595.9124755859375 398.169921875 61.39427185058594 399.27459716796875 C 180.2678680419922 390.610595703125 -87.85995483398438 412.5495300292969 -64.37407684326172 379.7186279296875 C 520.0035400390625 379.4681396484375 497.22076416015625 378.2416076660156 446.3180236816406 377.2960510253906 C 394.31378173828125 379.97149658203125 406.77386474609375 377.1271057128906 574.0596313476562 380.4201965332031"/>
    <path stroke-width="0" fill="rgb(241, 239, 240)" opacity="0.94305855" stroke="rgb(116, 144, 4)" stroke-opacity="1.0" stroke-linecap="round" stroke-linejoin="round" d="M 596.1438598632812 424.2850036621094 C -77.98002624511719 423.22088623046875 25.84137725830078 424.7416076660156 80.22728729248047 426.15374755859375 C 222.68759155273438 414.1938171386719 -64.256591796875 445.066162109375 -80.49526977539062 408.62811279296875 C 79.8111343383789 409.60748291015625 251.19271850585938 408.50537109375 309.4314880371094 408.8450012207031 C 131.11932373046875 422.29486083984375 224.8160400390625 392.1606140136719 596.1438598632812 424.2850036621094"/>
    <path stroke-width="0" fill="rgb(262, 263, 264)" opacity="1.0136416" stroke="rgb(156, 157, 240)" stroke-opacity="1.0" stroke-linecap="round" stroke-linejoin="round" d="M 496.2423400878906 277.594482421875 C 462.905517578125 303.7226867675781 619.4747314453125 294.08636474609375 -39.626155853271484 298.3236999511719 C -88.29437255859375 264.8498840332031 -96.3453369140625 273.14697265625 257.714111328125 271.99578857421875 C 270.7003173828125 273.16583251953125 257.2492370605469 130.1892547607422 279.4969787597656 169.28125 C 319.6799621582031 315.6717224121094 205.12489318847656 253.37294006347656 496.2423400878906 277.594482421875"/>
    <path stroke-width="0" fill="rgb(239, 239, 243)" opacity="0.9948003" stroke="rgb(91, 111, 177)" stroke-opacity="1.0" stroke-linecap="round" stroke-linejoin="round" d="M 594.1100463867188 410.0986633300781 C 472.3241271972656 454.22119140625 260.6555480957031 376.396240234375 170.0492401123047 426.2778015136719 C 251.5849609375 413.69952392578125 241.5771942138672 421.54095458984375 213.25277709960938 414.1230773925781 C 259.35052490234375 419.5375061035156 279.587890625 440.5386962890625 149.63406372070312 408.2696228027344 C 180.13755798339844 420.1814270019531 480.76605224609375 403.3000793457031 594.1100463867188 410.0986633300781"/>
    <path stroke-width="0" fill="rgb(262, 262, 262)" opacity="0.9964278" stroke="rgb(170, 171, 53)" stroke-opacity="1.0" stroke-linecap="round" stroke-linejoin="round" d="M 491.0167541503906 164.3227996826172 C 282.82464599609375 215.40708923339844 747.0338745117188 201.2333526611328 16.423139572143555 203.86984252929688 C 31.94202995300293 210.54769897460938 -58.61238098144531 216.45875549316406 -51.78136444091797 158.16334533691406 C 117.54499053955078 159.02838134765625 190.5645294189453 158.12841796875 230.93331909179688 160.65513610839844 C 134.3089141845703 163.20639038085938 192.73338317871094 157.62625122070312 491.0167541503906 164.3227996826172"/>
    <path stroke-width="0" fill="rgb(117, 128, 113)" opacity="1.003074" stroke="rgb(80, 92, 145)" stroke-opacity="1.0" stroke-linecap="round" stroke-linejoin="round" d="M 525.3621215820312 96.13394927978516 C 445.4320983886719 62.6666145324707 513.6057739257812 73.62630462646484 441.28741455078125 63.366966247558594 C 318.88092041015625 72.44221496582031 352.6554260253906 46.11817169189453 360.514404296875 1.8264474868774414 C 356.9375 -22.19609832763672 361.8376770019531 -30.034149169921875 366.07666015625 -25.73137855529785 C 379.4181823730469 58.53825378417969 496.3987121582031 -7.365200996398926 525.3621215820312 96.13394927978516"/>
    <path stroke-width="0" fill="rgb(253, 256, 264)" opacity="1.018773" stroke="rgb(252, 26, 53)" stroke-opacity="1.0" stroke-linecap="round" stroke-linejoin="round" d="M 451.068603515625 40.54111862182617 C 401.20050048828125 52.16971969604492 356.4346923828125 69.91865539550781 352.931884765625 73.28514862060547 C 396.3783874511719 125.66123962402344 336.010498046875 85.24629974365234 312.1283874511719 30.24957847595215 C 325.5777893066406 16.841659545898438 339.7434997558594 13.329479217529297 416.4774169921875 0.232587531208992 C 413.7850646972656 17.20695686340332 448.490966796875 4.818176746368408 451.068603515625 40.54111862182617"/>
    <path stroke-width="0" fill="rgb(1, 2, -2)" opacity="0.99217075" stroke="rgb(166, 64, 118)" stroke-opacity="1.0" stroke-linecap="round" stroke-linejoin="round" d="M 131.1441192626953 397.7560729980469 C 235.16612243652344 397.6006164550781 120.8214111328125 397.65179443359375 -79.49562072753906 398.42095947265625 C 13.410626411437988 408.8979797363281 -48.31657409667969 407.10968017578125 76.19973754882812 408.3373107910156 C 110.5775146484375 408.27740478515625 134.8666534423828 408.6162414550781 253.56838989257812 407.3316955566406 C 72.11405944824219 393.35858154296875 89.46383666992188 396.3739013671875 131.1441192626953 397.7560729980469"/>
    <path stroke-width="0" fill="rgb(108, 80, 114)" opacity="0.98380226" stroke="rgb(40, 28, 167)" stroke-opacity="1.0" stroke-linecap="round" stroke-linejoin="round" d="M 417.8609924316406 -31.503767013549805 C 433.0490417480469 24.637937545776367 454.0602722167969 65.71690368652344 441.8150939941406 5.254290580749512 C 386.5411682128906 -19.19524383544922 374.34918212890625 -16.441537857055664 312.05523681640625 -19.66054344177246 C 315.1639404296875 -29.508440017700195 323.5223083496094 -35.45821762084961 394.3455505371094 -33.86525344848633 C 406.1054382324219 -37.010616302490234 415.6422424316406 -32.56230163574219 417.8609924316406 -31.503767013549805"/>
    <path stroke-width="0" fill="rgb(247, 249, 256)" opacity="0.9714386" stroke="rgb(50, 94, 209)" stroke-opacity="1.0" stroke-linecap="round" stroke-linejoin="round" d="M 492.339599609375 96.0103988647461 C 396.1471862792969 93.85531616210938 362.8205871582031 96.49566650390625 339.71142578125 93.56929779052734 C 406.47027587890625 97.41997528076172 383.26776123046875 102.60934448242188 200.10601806640625 99.7287826538086 C 402.8359680175781 82.96735382080078 359.15081787109375 101.18614196777344 378.4657897949219 82.61737823486328 C 372.99566650390625 72.80475616455078 511.1563720703125 58.68040466308594 492.339599609375 96.0103988647461"/>
    <path stroke-width="0" fill="rgb(119, 124, 113)" opacity="0.99609226" stroke="rgb(213, 24, 248)" stroke-opacity="1.0" stroke-linecap="round" stroke-linejoin="round" d="M 469.5923767089844 34.05524444580078 C 460.7849426269531 54.56181335449219 428.1758117675781 57.822303771972656 332.3643493652344 86.98448181152344 C 281.3934020996094 91.20123291015625 219.0784149169922 78.3727035522461 -86.83943939208984 88.54185485839844 C -40.06278991699219 -346.3504638671875 68.1061782836914 -207.80335998535156 423.0232238769531 -84.7677001953125 C 469.9377746582031 -57.697811126708984 487.5870056152344 -60.934452056884766 469.5923767089844 34.05524444580078"/>
    <path stroke-width="0" fill="rgb(265, 256, 274)" opacity="0.960237" stroke="rgb(249, 154, 188)" stroke-opacity="1.0" stroke-linecap="round" stroke-linejoin="round" d="M -17.79025650024414 79.71688079833984 C 324.84820556640625 82.52375793457031 249.99560546875 73.5796127319336 -48.745201110839844 99.81954956054688 C 204.26055908203125 101.62188720703125 172.43145751953125 97.5223159790039 127.6634750366211 104.17378234863281 C 157.36024475097656 98.3036880493164 214.76422119140625 112.35968780517578 361.2281494140625 81.38097381591797 C 24.515233993530273 73.19359588623047 110.45957946777344 113.46251678466797 -17.79025650024414 79.71688079833984"/>
    <path stroke-width="0" fill="rgb(122, 121, 114)" opacity="0.82633924" stroke="rgb(72, 30, 75)" stroke-opacity="1.0" stroke-linecap="round" stroke-linejoin="round" d="M 269.5964660644531 51.635372161865234 C 297.18817138671875 78.45817565917969 376.82550048828125 82.80966186523438 274.76080322265625 66.50814819335938 C 219.61248779296875 78.07884979248047 203.49932861328125 85.8509750366211 199.37680053710938 -3.256981611251831 C 262.51806640625 -37.65595626831055 279.69085693359375 -34.56483840942383 301.75946044921875 -31.430219650268555 C 373.5752868652344 -24.695520401000977 376.3927917480469 -14.342316627502441 269.5964660644531 51.635372161865234"/>
    <path stroke-width="0" fill="rgb(226, 239, 241)" opacity="0.8704004" stroke="rgb(81, 105, 16)" stroke-opacity="1.0" stroke-linecap="round" stroke-linejoin="round" d="M 549.070068359375 74.08311462402344 C 546.9356689453125 103.32501220703125 533.772705078125 109.36691284179688 520.9010620117188 57.70164108276367 C 415.1880798339844 53.267547607421875 451.39447021484375 65.64807891845703 463.9861145019531 40.05454635620117 C 366.7608337402344 41.42134094238281 414.87188720703125 -19.4553165435791 384.9044494628906 -20.32474708557129 C 413.9855041503906 87.88771057128906 489.4418640136719 -0.8209565877914429 549.070068359375 74.08311462402344"/>
    <path stroke-width="0" fill="rgb(0, -4, -1)" opacity="0.8635684" stroke="rgb(144, 67, 133)" stroke-opacity="1.0" stroke-linecap="round" stroke-linejoin="round" d="M 131.9326171875 408.1449279785156 C 122.41234588623047 399.2433166503906 102.27250671386719 418.548583984375 -63.89756774902344 398.1571044921875 C 218.5239715576172 397.97296142578125 295.47894287109375 397.3321838378906 266.0495910644531 400.46490478515625 C 144.9018096923828 405.7911071777344 169.0334930419922 395.5882568359375 252.37855529785156 407.1702575683594 C 108.02529907226562 407.7770690917969 118.39945983886719 405.34820556640625 131.9326171875 408.1449279785156"/>
    <path stroke-width="0" fill="rgb(260, 262, 263)" opacity="1.0378811" stroke="rgb(146, 236, 81)" stroke-opacity="1.0" stroke-linecap="round" stroke-linejoin="round" d="M 439.072265625 185.77992248535156 C 438.63031005859375 222.6296844482422 438.62042236328125 296.54534912109375 436.1733093261719 284.5221252441406 C 376.6987609863281 311.65179443359375 426.73175048828125 246.15196228027344 413.3712158203125 265.06658935546875 C 424.26715087890625 141.0401153564453 388.923095703125 254.50401306152344 441.29644775390625 174.84652709960938 C 442.51708984375 200.2095489501953 441.3471984863281 247.4254150390625 439.072265625 185.77992248535156"/>
    <path stroke-width="0" fill="rgb(-4, -3, -4)" opacity="1.0019481" stroke="rgb(33, 182, 73)" stroke-opacity="1.0" stroke-linecap="round" stroke-linejoin="round" d="M 304.77825927734375 399.2751770019531 C 249.39678955078125 397.21771240234375 261.5732116699219 399.4144287109375 669.0294799804688 397.57781982421875 C 541.2710571289062 418.1421203613281 282.92181396484375 401.12164306640625 282.3434753417969 411.012451171875 C 324.5964050292969 394.62646484375 325.5545654296875 398.4564514160156 102.60347747802734 398.72735595703125 C 279.627197265625 411.2170104980469 298.7663269042969 411.5232238769531 304.77825927734375 399.2751770019531"/>
    <path stroke-width="0" fill="rgb(173, 181, 156)" opacity="0.6576338" stroke="rgb(149, 5, 211)" stroke-opacity="1.0" stroke-linecap="round" stroke-linejoin="round" d="M 522.4830322265625 301.7750244140625 C 495.62841796875 306.43048095703125 489.90594482421875 293.4106140136719 501.73748779296875 47.94111633300781 C 439.8895263671875 3.6145474910736084 469.01055908203125 104.08932495117188 487.8952941894531 -57.325714111328125 C 423.89288330078125 -32.06654739379883 433.3778381347656 -36.32387161254883 469.7552490234375 -42.66332244873047 C 555.4288330078125 -45.57939910888672 543.9959106445312 -55.355979919433594 522.4830322265625 301.7750244140625"/>
    <path stroke-width="0" fill="rgb(257, 254, 256)" opacity="1.0233161" stroke="rgb(172, 68, 187)" stroke-opacity="1.0" stroke-linecap="round" stroke-linejoin="round" d="M 255.9596710205078 116.57266998291016 C 240.4656219482422 128.5372314453125 289.3865051269531 122.22989654541016 264.2157287597656 130.4506378173828 C 291.3693542480469 117.98110961914062 268.4194030761719 136.8131103515625 19.28600311279297 110.58557891845703 C 634.67138671875 110.01322174072266 609.8563842773438 109.00127410888672 517.5559692382812 137.9226531982422 C 435.2039794921875 115.69104766845703 225.82272338867188 138.17588806152344 255.9596710205078 116.57266998291016"/>
    <path stroke-width="0" fill="rgb(-4, 2, 12)" opacity="1.0328536" stroke="rgb(63, 146, 150)" stroke-opacity="1.0" stroke-linecap="round" stroke-linejoin="round" d="M 383.4743347167969 107.27605438232422 C -5.706734657287598 103.56398010253906 33.02959060668945 101.21492767333984 468.1690368652344 98.4487533569336 C 145.4690704345703 89.20825958251953 -152.8080291748047 97.84526062011719 203.2271728515625 93.25746154785156 C 178.61080932617188 94.00843048095703 3.798950672149658 100.57312774658203 -86.34181213378906 83.969970703125 C 546.3934326171875 85.89776611328125 275.1322021484375 76.11901092529297 383.4743347167969 107.27605438232422"/>
    <path stroke-width="0" fill="rgb(257, 262, 260)" opacity="1.0082382" stroke="rgb(56, 242, 114)" stroke-opacity="1.0" stroke-linecap="round" stroke-linejoin="round" d="M -14.362329483032227 136.559814453125 C -131.2403564453125 144.4390106201172 -12.613277435302734 134.22206115722656 710.5177612304688 140.3809814453125 C 655.2183837890625 123.4556655883789 388.31195068359375 129.39805603027344 18.809616088867188 128.3822479248047 C -72.16271209716797 134.44354248046875 -155.6727752685547 87.59822082519531 250.76123046875 125.30748748779297 C -40.70461654663086 127.62265014648438 -93.29695129394531 120.76969909667969 -14.362329483032227 136.559814453125"/>
    <path stroke-width="0" fill="rgb(34, 35, 31)" opacity="0.9336771" stroke="rgb(178, 75, 207)" stroke-opacity="1.0" stroke-linecap="round" stroke-linejoin="round" d="M 187.58334350585938 322.9703674316406 C 114.22248077392578 311.0534973144531 127.78963470458984 293.9728088378906 247.58029174804688 307.157958984375 C 190.3411407470703 329.9647216796875 109.94586944580078 328.12127685546875 36.29010009765625 322.56085205078125 C 157.99700927734375 312.246337890625 185.70396423339844 321.9288024902344 118.99635314941406 319.87408447265625 C 133.4597625732422 325.47509765625 148.2307586669922 306.7631530761719 187.58334350585938 322.9703674316406"/>
    <path stroke-width="0" fill="rgb(254, 272, 273)" opacity="1.0940259" stroke="rgb(224, 148, 224)" stroke-opacity="1.0" stroke-linecap="round" stroke-linejoin="round" d="M 483.199462890625 309.95233154296875 C 484.2486877441406 253.07713317871094 486.2029113769531 275.3006896972656 483.046630859375 284.13214111328125 C 477.60406494140625 272.571044921875 490.44744873046875 234.96388244628906 473.63616943359375 182.92218017578125 C 479.7076110839844 237.916748046875 474.37005615234375 220.67149353027344 490.4737854003906 205.03497314453125 C 492.5947265625 254.09788513183594 494.95819091796875 341.9102783203125 483.199462890625 309.95233154296875"/>
    <path stroke-width="0" fill="rgb(46, 25, 41)" opacity="0.80377424" stroke="rgb(184, 127, 243)" stroke-opacity="1.0" stroke-linecap="round" stroke-linejoin="round" d="M 107.21540069580078 323.3411560058594 C -26.629472732543945 328.9741516113281 -39.113243103027344 314.2192077636719 0.518146812915802 358.33599853515625 C 15.68943977355957 285.37103271484375 -1.5786635875701904 352.76995849609375 -63.89509201049805 323.9067687988281 C 33.03659439086914 311.5369567871094 63.58645248413086 310.7777404785156 81.61540222167969 317.384765625 C 25.626253128051758 304.6938171386719 47.046539306640625 290.4344177246094 107.21540069580078 323.3411560058594"/>
    <path stroke-width="0" fill="rgb(-9, 19, 28)" opacity="1.025179" stroke="rgb(108, 154, 4)" stroke-opacity="1.0" stroke-linecap="round" stroke-linejoin="round" d="M 193.7083740234375 311.0596923828125 C 282.9192199707031 334.06488037109375 182.52137756347656 302.8775329589844 284.4862365722656 329.474853515625 C 55.36175537109375 326.7433166503906 -19.198293685913086 334.5953369140625 177.94955444335938 311.4302978515625 C 185.76406860351562 303.4023132324219 185.92005920410156 301.9227600097656 165.41769409179688 312.9913635253906 C 190.0191650390625 323.87774658203125 193.63638305664062 322.293701171875 193.7083740234375 311.0596923828125"/>
    <path stroke-width="0" fill="rgb(51, 36, 39)" opacity="0.95909643" stroke="rgb(168, 73, 157)" stroke-opacity="1.0" stroke-linecap="round" stroke-linejoin="round" d="M 288.5543518066406 327.8236389160156 C 164.61428833007812 315.3544616699219 139.60687255859375 325.0790710449219 413.8385009765625 297.8446044921875 C 363.4674377441406 297.8328857421875 117.45113372802734 298.8407897949219 -101.75882720947266 298.3635559082031 C 165.57781982421875 363.082763671875 218.07875061035156 278.2032470703125 180.36874389648438 320.485107421875 C 182.9525909423828 321.8316955566406 218.40797424316406 298.7548828125 288.5543518066406 327.8236389160156"/>
    <path stroke-width="0" fill="rgb(11, 11, 15)" opacity="0.7122565" stroke="rgb(34, 76, 145)" stroke-opacity="1.0" stroke-linecap="round" stroke-linejoin="round" d="M 224.49160766601562 318.6038513183594 C 172.4475555419922 302.57891845703125 161.3576202392578 290.0988464355469 115.07772064208984 325.3699035644531 C 141.93836975097656 326.0787048339844 138.4028778076172 295.8268127441406 197.98696899414062 323.0836486816406 C 211.14776611328125 322.8726501464844 222.30014038085938 325.2154235839844 196.98153686523438 314.8070068359375 C 172.43861389160156 322.48150634765625 180.83506774902344 325.81402587890625 224.49160766601562 318.6038513183594"/>
    <path stroke-width="0" fill="rgb(-5, 4, 11)" opacity="1.043469" stroke="rgb(146, 166, 166)" stroke-opacity="1.0" stroke-linecap="round" stroke-linejoin="round" d="M 470.8850402832031 319.9985656738281 C 392.7917785644531 295.6562194824219 298.64276123046875 319.4254150390625 179.9161376953125 322.2914123535156 C 345.8565979003906 331.61431884765625 335.3107604980469 322.6815185546875 310.9634094238281 335.8844299316406 C 305.5489807128906 328.9837646484375 294.1835021972656 312.67230224609375 313.1300048828125 341.1258239746094 C 317.359130859375 339.8190612792969 312.0189514160156 321.45684814453125 470.8850402832031 319.9985656738281"/>
    <path stroke-width="0" fill="rgb(187, 202, 186)" opacity="0.8613081" stroke="rgb(228, 93, 111)" stroke-opacity="1.0" stroke-linecap="round" stroke-linejoin="round" d="M 341.7853088378906 357.4100036621094 C 400.98651123046875 359.72784423828125 292.4853210449219 365.31732177734375 304.8561706542969 356.1068115234375 C 331.028564453125 347.0716552734375 265.6124572753906 344.83917236328125 275.1103820800781 358.1641540527344 C 264.7998962402344 313.234619140625 281.13763427734375 330.5407409667969 291.528564453125 329.8892517089844 C 349.44287109375 332.4834289550781 313.62103271484375 318.4247131347656 341.7853088378906 357.4100036621094"/>
    <path stroke-width="0" fill="rgb(9, 17, 28)" opacity="1.0314835" stroke="rgb(205, 179, 25)" stroke-opacity="1.0" stroke-linecap="round" stroke-linejoin="round" d="M 462.4105224609375 327.31097412109375 C 616.0326538085938 328.5479736328125 546.4293212890625 322.70867919921875 502.137939453125 322.8606872558594 C 422.3433532714844 350.4224548339844 410.778076171875 287.3314514160156 434.4971618652344 310.2756042480469 C 514.4913940429688 307.39971923828125 506.8843078613281 284.5047912597656 534.0047607421875 292.3975830078125 C 464.38006591796875 293.64813232421875 539.3535766601562 319.2526550292969 462.4105224609375 327.31097412109375"/>
    <path stroke-width="0" fill="rgb(59, 89, 92)" opacity="1.0179138" stroke="rgb(182, 254, 38)" stroke-opacity="1.0" stroke-linecap="round" stroke-linejoin="round" d="M 479.6369934082031 176.93873596191406 C 496.3004455566406 213.14578247070312 451.4397277832031 206.661865234375 525.6900024414062 211.50582885742188 C 486.823486328125 215.54762268066406 513.587158203125 202.23330688476562 488.51043701171875 207.81700134277344 C 499.4761047363281 208.91903686523438 516.9144897460938 208.4534149169922 437.453125 210.17933654785156 C 456.2695617675781 302.7652893066406 488.98870849609375 303.75445556640625 479.6369934082031 176.93873596191406"/>
    <path stroke-width="0" fill="rgb(5, 8, 5)" opacity="0.55781853" stroke="rgb(41, 156, 31)" stroke-opacity="1.0" stroke-linecap="round" stroke-linejoin="round" d="M 10.645623207092285 269.07635498046875 C 30.80882453918457 177.00326538085938 -57.89551544189453 208.41395568847656 262.88677978515625 204.7458953857422 C 186.1647186279297 227.34490966796875 19.791818618774414 172.29660034179688 50.17518615722656 272.9449157714844 C 50.80632781982422 232.96258544921875 30.862247467041016 225.66009521484375 105.32736206054688 209.25181579589844 C -21.675724029541016 214.9191131591797 45.60049819946289 188.73756408691406 10.645623207092285 269.07635498046875"/>
    <path stroke-width="0" fill="rgb(5, 18, 30)" opacity="0.6288024" stroke="rgb(205, 145, 103)" stroke-opacity="1.0" stroke-linecap="round" stroke-linejoin="round" d="M 325.6762390136719 318.6660461425781 C 429.02484130859375 306.9770812988281 367.41595458984375 330.7528381347656 349.50115966796875 329.30865478515625 C 302.6146545410156 330.11114501953125 230.6313934326172 332.9955749511719 130.6638641357422 312.27935791015625 C -67.90391540527344 297.8669128417969 90.48059844970703 302.3424377441406 485.400634765625 296.7072448730469 C 333.01495361328125 320.1704406738281 311.3090515136719 279.221923828125 325.6762390136719 318.6660461425781"/>
    <path stroke-width="0" fill="rgb(-3, -14, -10)" opacity="0.8636558" stroke="rgb(177, 115, 184)" stroke-opacity="1.0" stroke-linecap="round" stroke-linejoin="round" d="M 428.615478515625 351.01226806640625 C 628.6741943359375 352.2701416015625 667.7907104492188 354.4635009765625 547.9257202148438 379.1741027832031 C 95.85724639892578 378.1126708984375 -17.66607093811035 388.0216064453125 346.82806396484375 351.25738525390625 C 423.4220275878906 360.91802978515625 373.2825012207031 337.24395751953125 378.4682312011719 349.3891296386719 C 311.10089111328125 328.4595947265625 519.5956420898438 326.5409240722656 428.615478515625 351.01226806640625"/>
    <path stroke-width="0" fill="rgb(54, 43, 43)" opacity="1.0678097" stroke="rgb(248, 218, 2)" stroke-opacity="1.0" stroke-linecap="round" stroke-linejoin="round" d="M -50.77486038208008 505.9856872558594 C 476.5777587890625 510.2649841308594 500.2726135253906 497.34100341796875 51.523860931396484 498.8755187988281 C 61.92448425292969 450.7159729003906 57.34153366088867 478.7646179199219 -30.737150192260742 469.1327209472656 C 64.26486206054688 463.6590881347656 65.62139129638672 470.5582580566406 55.5186653137207 469.2242126464844 C 50.736480712890625 522.5280151367188 85.29640197753906 486.4415588378906 -50.77486038208008 505.9856872558594"/>
    <path stroke-width="0" fill="rgb(39, 34, 25)" opacity="1.02835" stroke="rgb(186, 43, 132)" stroke-opacity="1.0" stroke-linecap="round" stroke-linejoin="round" d="M 325.8434753417969 372.27886962890625 C 307.4452209472656 320.98492431640625 320.70013427734375 367.7594299316406 12.163202285766602 359.03350830078125 C 401.892578125 357.70849609375 389.8499755859375 354.4219665527344 195.07366943359375 358.46368408203125 C 336.4334411621094 344.1136169433594 205.78659057617188 358.7991027832031 -208.4739532470703 345.9066467285156 C -50.775020599365234 379.2066345214844 -30.140216827392578 360.662841796875 325.8434753417969 372.27886962890625"/>
    <path stroke-width="0" fill="rgb(19, 28, 10)" opacity="0.62260646" stroke="rgb(50, 4, 202)" stroke-opacity="1.0" stroke-linecap="round" stroke-linejoin="round" d="M 460.4077453613281 204.5757598876953 C 485.0898132324219 334.9504699707031 460.2848815917969 203.30502319335938 459.7701110839844 207.10244750976562 C 460.2037353515625 204.81385803222656 455.4822082519531 261.16705322265625 463.4936828613281 223.78599548339844 C 446.3241271972656 317.6308288574219 476.20703125 258.31781005859375 487.2844543457031 246.26333618164062 C 449.8314514160156 298.79351806640625 467.3082275390625 276.2131042480469 460.4077453613281 204.5757598876953"/>
    <path stroke-width="0" fill="rgb(18, -18, 0)" opacity="0.9356654" stroke="rgb(88, 236, 179)" stroke-opacity="1.0" stroke-linecap="round" stroke-linejoin="round" d="M 494.24725341796875 141.982421875 C 492.56353759765625 152.92417907714844 492.7890930175781 305.5545654296875 490.956298828125 321.6258850097656 C 478.1307373046875 229.18968200683594 474.74432373046875 245.35348510742188 494.1043395996094 320.8228454589844 C 507.2820739746094 194.3208465576172 478.9080505371094 200.35836791992188 536.0317993164062 203.93112182617188 C 471.7281188964844 193.72279357910156 512.492919921875 253.1643829345703 494.24725341796875 141.982421875"/>
    <path stroke-width="0" fill="rgb(258, 256, 259)" opacity="1.0425521" stroke="rgb(41, 158, 147)" stroke-opacity="1.0" stroke-linecap="round" stroke-linejoin="round" d="M 318.6279602050781 306.8072509765625 C 252.2529296875 320.94866943359375 212.5750732421875 315.1612854003906 161.2464141845703 320.4023742675781 C 238.4803924560547 314.5170593261719 200.3726348876953 320.905517578125 86.15823364257812 312.9873352050781 C 207.07400512695312 287.1165771484375 267.9095153808594 313.797119140625 275.7959899902344 300.54779052734375 C 263.91986083984375 315.010498046875 275.92230224609375 293.1543273925781 318.6279602050781 306.8072509765625"/>
    <path stroke-width="0" fill="rgb(265, 264, 267)" opacity="0.86887604" stroke="rgb(238, 156, 136)" stroke-opacity="1.0" stroke-linecap="round" stroke-linejoin="round" d="M 424.6582336425781 274.5984802246094 C 439.8549499511719 262.4327087402344 432.2760314941406 276.27020263671875 432.2108154296875 231.0606231689453 C 435.924072265625 222.72042846679688 429.3979797363281 212.6734161376953 434.197265625 276.1678161621094 C 435.7467956542969 275.65106201171875 439.27099609375 263.74267578125 422.99212646484375 270.7392578125 C 426.04559326171875 292.7855224609375 415.3056945800781 261.1582336425781 424.6582336425781 274.5984802246094"/>
    <path stroke-width="0" fill="rgb(31, 16, 54)" opacity="1.0190147" stroke="rgb(186, 79, 101)" stroke-opacity="1.0" stroke-linecap="round" stroke-linejoin="round" d="M 426.62335205078125 472.69219970703125 C 296.963623046875 468.5410461425781 317.5832214355469 467.20819091796875 323.6646423339844 469.235595703125 C 316.0657043457031 467.6544189453125 281.7428894042969 466.0638732910156 608.1854858398438 468.2958679199219 C 388.66082763671875 480.5049133300781 352.7005920410156 463.6040954589844 201.7275848388672 470.0688171386719 C 147.33316040039062 472.506591796875 208.68621826171875 472.37347412109375 426.62335205078125 472.69219970703125"/>
    <path stroke-width="0" fill="rgb(1, -10, -2)" opacity="0.6380856" stroke="rgb(47, 240, 188)" stroke-opacity="1.0" stroke-linecap="round" stroke-linejoin="round" d="M 273.7859802246094 356.6382751464844 C 296.2019348144531 332.4568786621094 300.1675720214844 368.1606140136719 503.955810546875 354.9078369140625 C 364.6435852050781 352.5750427246094 344.3602294921875 354.3162841796875 341.37420654296875 354.8066711425781 C 306.4155578613281 348.16741943359375 335.6183166503906 360.2476806640625 328.9868469238281 320.6413269042969 C 411.9085998535156 289.87969970703125 410.52301025390625 371.35369873046875 273.7859802246094 356.6382751464844"/>
    <path stroke-width="0" fill="rgb(-25, -22, -6)" opacity="0.89033186" stroke="rgb(57, 64, 14)" stroke-opacity="1.0" stroke-linecap="round" stroke-linejoin="round" d="M 479.9419860839844 176.40933227539062 C 466.3482971191406 236.4403076171875 483.970458984375 442.9327392578125 484.3490905761719 183.93951416015625 C 420.1217041015625 194.38934326171875 460.6994934082031 140.82077026367188 436.489013671875 350.36767578125 C 434.99298095703125 151.97154235839844 437.0456237792969 181.6177215576172 442.99273681640625 183.97828674316406 C 437.7431640625 165.5130615234375 487.6349792480469 178.9892578125 479.9419860839844 176.40933227539062"/>
    <path stroke-width="0" fill="rgb(116, 130, 113)" opacity="0.9997758" stroke="rgb(79, 177, 96)" stroke-opacity="1.0" stroke-linecap="round" stroke-linejoin="round" d="M 632.8668212890625 76.25083923339844 C 545.0569458007812 159.1729278564453 543.6807250976562 175.2869873046875 503.05804443359375 189.11370849609375 C 493.6396484375 164.9937286376953 492.04473876953125 56.70566940307617 497.3146667480469 53.566383361816406 C 521.4527587890625 110.89503479003906 506.3314208984375 85.37703704833984 495.84063720703125 48.15763473510742 C 404.76702880859375 9.385738372802734 442.92657470703125 -98.12025451660156 632.8668212890625 76.25083923339844"/>
    <path stroke-width="0" fill="rgb(270, 262, 269)" opacity="1.0032752" stroke="rgb(6, 17, 173)" stroke-opacity="1.0" stroke-linecap="round" stroke-linejoin="round" d="M 489.08514404296875 301.5316467285156 C 511.32867431640625 318.1424255371094 470.3901062011719 306.0055236816406 488.9284362792969 309.8441162109375 C 286.0968933105469 309.32049560546875 180.15142822265625 312.0136413574219 154.72825622558594 300.55279541015625 C 300.8971862792969 299.8041687011719 371.0029602050781 300.6047668457031 433.3710021972656 300.58038330078125 C 338.38250732421875 299.5642395019531 310.80633544921875 298.96099853515625 489.08514404296875 301.5316467285156"/>
    <path stroke-width="0" fill="rgb(31, 20, 50)" opacity="0.9405374" stroke="rgb(136, 228, 252)" stroke-opacity="1.0" stroke-linecap="round" stroke-linejoin="round" d="M -65.91254425048828 468.5181579589844 C 32.00422286987305 464.4779052734375 82.076904296875 468.64739990234375 25.522966384887695 466.0785827636719 C 86.37562561035156 467.46881103515625 157.34381103515625 467.2427978515625 343.4573059082031 467.0318603515625 C 382.20513916015625 474.6413879394531 205.7161865234375 472.5892333984375 19.0992431640625 472.9923095703125 C 54.7059211730957 471.436767578125 38.52912902832031 476.42816162109375 -65.91254425048828 468.5181579589844"/>
    <path stroke-width="0" fill="rgb(20, 26, 31)" opacity="0.87391216" stroke="rgb(169, 67, 5)" stroke-opacity="1.0" stroke-linecap="round" stroke-linejoin="round" d="M 120.20516967773438 317.6550598144531 C 113.1124267578125 338.3340148925781 53.65654373168945 310.8391418457031 26.09864616394043 316.6818542480469 C 116.47760772705078 313.2159423828125 125.92410278320312 316.1033935546875 121.11034393310547 316.744140625 C 93.16238403320312 320.6891174316406 102.51322937011719 326.59222412109375 135.13034057617188 321.9985046386719 C 47.89332580566406 321.5261535644531 46.23668670654297 300.9769287109375 120.20516967773438 317.6550598144531"/>
    <path stroke-width="0" fill="rgb(271, 260, 266)" opacity="1.0260788" stroke="rgb(81, 97, 150)" stroke-opacity="1.0" stroke-linecap="round" stroke-linejoin="round" d="M 133.81259155273438 324.2058410644531 C 117.10801696777344 309.7720947265625 106.36278533935547 313.29144287109375 113.7111587524414 325.4886779785156 C 140.83572387695312 296.40582275390625 58.19535827636719 337.40838623046875 -57.60798645019531 300.2835388183594 C 208.94729614257812 300.5838928222656 250.97073364257812 300.1094970703125 187.11065673828125 301.384521484375 C 88.45103454589844 321.62628173828125 119.3209457397461 309.76031494140625 133.81259155273438 324.2058410644531"/>
    <path stroke-width="0" fill="rgb(40, 9, 35)" opacity="0.9922211" stroke="rgb(160, 222, 69)" stroke-opacity="1.0" stroke-linecap="round" stroke-linejoin="round" d="M 487.921142578125 442.1517028808594 C 351.4076232910156 439.0047302246094 413.88372802734375 431.5663757324219 -153.63589477539062 437.8323974609375 C 653.3986206054688 454.5197448730469 500.3486633300781 416.0647888183594 501.2369079589844 432.80560302734375 C 278.0033264160156 450.3060302734375 548.0479125976562 438.1766052246094 247.93072509765625 435.0857849121094 C 504.52117919921875 435.2300720214844 628.3792114257812 434.447021484375 487.921142578125 442.1517028808594"/>
    <path stroke-width="0" fill="rgb(4, 9, 24)" opacity="0.9984988" stroke="rgb(241, 186, 64)" stroke-opacity="1.0" stroke-linecap="round" stroke-linejoin="round" d="M 372.1161804199219 309.2102355957031 C 6.385973930358887 341.7619934082031 -168.58326721191406 324.3754577636719 17.491546630859375 317.3868103027344 C 103.98818969726562 317.66900634765625 27.577129364013672 315.5780334472656 -75.1563720703125 320.0145568847656 C -1.3048661947250366 317.52337646484375 34.21998977661133 338.5412292480469 -46.60916519165039 308.107177734375 C -130.97438049316406 309.6570129394531 124.30745697021484 307.96044921875 372.1161804199219 309.2102355957031"/>
    <path stroke-width="0" fill="rgb(257, 272, 268)" opacity="0.8487098" stroke="rgb(95, 118, 70)" stroke-opacity="1.0" stroke-linecap="round" stroke-linejoin="round" d="M 542.98779296875 199.85479736328125 C 477.8013000488281 163.8325958251953 507.9512634277344 193.12872314453125 498.095458984375 208.74024963378906 C 488.7336120605469 208.2734832763672 489.7625427246094 194.89822387695312 491.5960388183594 310.8397216796875 C 479.13140869140625 314.93408203125 485.87347412109375 184.02316284179688 482.46673583984375 160.02622985839844 C 499.6669006347656 216.5657958984375 467.1414794921875 214.20785522460938 542.98779296875 199.85479736328125"/>
    <path stroke-width="0" fill="rgb(42, 35, 48)" opacity="0.8496305" stroke="rgb(36, 124, 90)" stroke-opacity="1.0" stroke-linecap="round" stroke-linejoin="round" d="M 346.5010681152344 487.4779968261719 C 346.3589782714844 511.4794921875 328.86773681640625 508.6303405761719 463.2271728515625 501.6875305175781 C 386.8154602050781 501.3978271484375 359.57049560546875 497.3634948730469 308.2521057128906 502.1377258300781 C 305.07293701171875 472.4275817871094 322.8935852050781 503.3165283203125 311.02789306640625 501.2200927734375 C 353.6097106933594 512.3803100585938 362.10986328125 494.57421875 346.5010681152344 487.4779968261719"/>
    <path stroke-width="0" fill="rgb(211, 182, 201)" opacity="0.6681933" stroke="rgb(140, 149, 245)" stroke-opacity="1.0" stroke-linecap="round" stroke-linejoin="round" d="M 84.29680633544922 386.5081481933594 C 61.50162124633789 376.0902404785156 32.610591888427734 361.7790832519531 84.99771881103516 370.2845764160156 C 125.77932739257812 360.723876953125 109.7673110961914 372.38714599609375 112.00372314453125 373.4425964355469 C 30.697704315185547 373.3887023925781 59.1136360168457 367.7450866699219 87.55883026123047 387.50433349609375 C 79.54156494140625 385.1241149902344 86.03833770751953 396.0964050292969 84.29680633544922 386.5081481933594"/>
    <path stroke-width="0" fill="rgb(66, 75, 66)" opacity="0.63401777" stroke="rgb(170, 200, 71)" stroke-opacity="1.0" stroke-linecap="round" stroke-linejoin="round" d="M 363.33154296875 556.1729125976562 C 349.140625 522.534423828125 335.100341796875 494.4847106933594 355.05987548828125 502.77642822265625 C 435.5290222167969 504.37548828125 346.7838134765625 504.6285400390625 318.0149230957031 505.8474426269531 C 360.26470947265625 511.88067626953125 347.1872863769531 473.8745422363281 348.28289794921875 494.5582275390625 C 336.45928955078125 512.85205078125 360.2336730957031 532.2334594726562 363.33154296875 556.1729125976562"/>
    <path stroke-width="0" fill="rgb(36, 32, 29)" opacity="0.93271446" stroke="rgb(16, 123, 249)" stroke-opacity="1.0" stroke-linecap="round" stroke-linejoin="round" d="M 351.8141784667969 447.87353515625 C 370.9666442871094 446.51885986328125 328.55419921875 431.7340087890625 393.6050720214844 445.839599609375 C 346.3589172363281 436.94683837890625 365.57476806640625 429.27984619140625 358.86767578125 447.6435546875 C 396.0863952636719 444.43572998046875 387.704345703125 455.45025634765625 353.5012512207031 450.22637939453125 C 314.8025207519531 448.6312255859375 317.10809326171875 449.17230224609375 351.8141784667969 447.87353515625"/>
    <path stroke-width="0" fill="rgb(14, -1, 0)" opacity="1.0085791" stroke="rgb(240, 203, 160)" stroke-opacity="1.0" stroke-linecap="round" stroke-linejoin="round" d="M -18.165546417236328 370.69775390625 C 34.173553466796875 347.1044006347656 29.52651023864746 354.76922607421875 -1.5554707050323486 361.1380615234375 C 88.00836944580078 356.308349609375 72.77677917480469 369.4366455078125 87.26443481445312 348.7842712402344 C 57.761390686035156 384.0928955078125 76.2633285522461 340.8877258300781 -28.01154327392578 377.6094055175781 C 143.26202392578125 382.44482421875 378.4270935058594 369.77435302734375 -18.165546417236328 370.69775390625"/>
    <path stroke-width="0" fill="rgb(31, 51, 68)" opacity="0.8291864" stroke="rgb(88, 37, 250)" stroke-opacity="1.0" stroke-linecap="round" stroke-linejoin="round" d="M 349.0141906738281 505.2854309082031 C 337.94097900390625 476.7275085449219 356.6982727050781 482.4833679199219 349.6406555175781 537.2423706054688 C 390.9967346191406 541.7152709960938 372.3172912597656 496.3114318847656 388.7703552246094 504.2329406738281 C 391.6945495605469 494.6624755859375 386.8812255859375 460.0394592285156 376.6139831542969 546.5379028320312 C 341.9972839355469 505.3013916015625 353.5989074707031 499.7834777832031 349.0141906738281 505.2854309082031"/>
    <path stroke-width="0" fill="rgb(25, 28, 49)" opacity="0.99987614" stroke="rgb(209, 48, 130)" stroke-opacity="1.0" stroke-linecap="round" stroke-linejoin="round" d="M 66.51921081542969 448.6764221191406 C 85.54476928710938 453.1900329589844 18.236431121826172 441.4761962890625 -54.9185905456543 450.89727783203125 C 102.54106903076172 452.5981750488281 107.98578643798828 450.25006103515625 99.23648834228516 451.7291564941406 C 82.29790496826172 450.7762145996094 86.46992492675781 446.2962951660156 67.8901596069336 451.8072204589844 C 67.49590301513672 413.47003173828125 78.427001953125 458.09954833984375 66.51921081542969 448.6764221191406"/>
    <path stroke-width="0" fill="rgb(36, 13, 6)" opacity="0.96811575" stroke="rgb(185, 2, 196)" stroke-opacity="1.0" stroke-linecap="round" stroke-linejoin="round" d="M 105.64771270751953 451.4412536621094 C 91.00166320800781 442.5144958496094 105.42970275878906 432.59088134765625 130.6924591064453 437.9658508300781 C 137.7182159423828 457.9873962402344 121.46558380126953 445.39117431640625 -12.613920211791992 451.2306213378906 C 128.2720489501953 448.2518310546875 136.83743286132812 456.1206970214844 136.30284118652344 443.0019226074219 C 136.15719604492188 435.1637878417969 95.53014373779297 427.7523193359375 105.64771270751953 451.4412536621094"/>
    <path stroke-width="0" fill="rgb(32, 34, 21)" opacity="1.0572612" stroke="rgb(20, 22, 171)" stroke-opacity="1.0" stroke-linecap="round" stroke-linejoin="round" d="M 462.1702575683594 492.73760986328125 C 442.89031982421875 491.6434631347656 472.851318359375 524.0214233398438 501.010009765625 494.1009521484375 C 578.45556640625 486.15069580078125 573.5162963867188 489.76641845703125 139.58489990234375 490.2856140136719 C 327.3771667480469 497.9636535644531 619.3194580078125 481.106201171875 451.9635009765625 502.1591796875 C 471.7674560546875 490.3801574707031 459.4660339355469 507.1661071777344 462.1702575683594 492.73760986328125"/>
    <path stroke-width="0" fill="rgb(-13, 6, 5)" opacity="0.84125346" stroke="rgb(107, 142, 219)" stroke-opacity="1.0" stroke-linecap="round" stroke-linejoin="round" d="M 349.2998352050781 431.24859619140625 C 281.1799011230469 432.1268310546875 342.1562805175781 431.3512268066406 314.6490783691406 437.368896484375 C 394.6986999511719 440.00927734375 341.2420959472656 445.3272705078125 315.71563720703125 440.3957824707031 C 350.63433837890625 423.7651062011719 315.4086608886719 438.0372009277344 -25.766355514526367 425.6025390625 C 748.8047485351562 422.0052185058594 723.0523071289062 431.09210205078125 349.2998352050781 431.24859619140625"/>
    <path stroke-width="0" fill="rgb(10, 46, 36)" opacity="1.0401341" stroke="rgb(68, 33, 14)" stroke-opacity="1.0" stroke-linecap="round" stroke-linejoin="round" d="M 167.2714385986328 436.7454528808594 C 150.13099670410156 454.9816589355469 221.03485107421875 443.293701171875 -57.978851318359375 450.44879150390625 C 376.9605407714844 454.3753356933594 428.368896484375 445.51019287109375 175.32249450683594 447.0746154785156 C 160.48977661132812 446.0130920410156 170.2544403076172 455.9739685058594 167.45318603515625 435.0631408691406 C 167.04898071289062 430.8464660644531 169.46302795410156 450.4863586425781 167.2714385986328 436.7454528808594"/>
    <path stroke-width="0" fill="rgb(175, 152, 181)" opacity="0.68828356" stroke="rgb(66, 116, 174)" stroke-opacity="1.0" stroke-linecap="round" stroke-linejoin="round" d="M 240.37240600585938 369.1385803222656 C 206.56004333496094 365.9233703613281 194.1721649169922 362.43328857421875 237.2459259033203 374.2738037109375 C 198.55368041992188 363.1116943359375 192.05267333984375 353.9775390625 153.4973907470703 334.4793701171875 C 188.72854614257812 351.34228515625 196.27920532226562 366.1736145019531 234.87835693359375 369.6233215332031 C 59.86933517456055 375.41790771484375 89.05812072753906 364.1257019042969 240.37240600585938 369.1385803222656"/>
    <path stroke-width="0" fill="rgb(15, 12, 18)" opacity="0.8616839" stroke="rgb(14, 177, 198)" stroke-opacity="1.0" stroke-linecap="round" stroke-linejoin="round" d="M 357.5681457519531 356.0291442871094 C 384.1425476074219 361.24688720703125 373.0589599609375 358.9363098144531 397.9194030761719 359.16827392578125 C 420.1849670410156 348.9455261230469 414.84991455078125 345.940185546875 414.0680847167969 342.47479248046875 C 425.8564758300781 366.98876953125 415.4940185546875 333.96142578125 412.3515625 355.234619140625 C 428.82476806640625 372.4974670410156 378.5105285644531 355.1922912597656 357.5681457519531 356.0291442871094"/>
    <path stroke-width="0" fill="rgb(49, 48, 52)" opacity="0.8836371" stroke="rgb(66, 95, 149)" stroke-opacity="1.0" stroke-linecap="round" stroke-linejoin="round" d="M 430.9156188964844 519.7731323242188 C 411.3500061035156 490.7680969238281 448.83709716796875 496.32720947265625 438.6523742675781 499.0472412109375 C 439.2952880859375 500.2056579589844 404.854248046875 499.0979309082031 337.8502197265625 501.916015625 C 405.0557556152344 506.54364013671875 440.7031555175781 511.3450012207031 448.5432434082031 502.0899963378906 C 395.2544860839844 470.9234924316406 428.7505187988281 510.1591491699219 430.9156188964844 519.7731323242188"/>
    <path stroke-width="0" fill="rgb(49, 29, 37)" opacity="0.77804685" stroke="rgb(203, 19, 132)" stroke-opacity="1.0" stroke-linecap="round" stroke-linejoin="round" d="M 574.9391479492188 512.6583251953125 C 538.8609008789062 500.1445007324219 248.68211364746094 513.6990356445312 195.4990692138672 500.46234130859375 C 448.74786376953125 498.2484130859375 494.960693359375 503.8914489746094 503.48199462890625 489.9541931152344 C 528.1318969726562 496.9637451171875 578.4884033203125 491.1228942871094 412.6687927246094 489.4988708496094 C 506.3417663574219 486.5889587402344 469.50537109375 495.1212158203125 574.9391479492188 512.6583251953125"/>
    <path stroke-width="0" fill="rgb(237, 244, 243)" opacity="0.8565258" stroke="rgb(70, 32, 100)" stroke-opacity="1.0" stroke-linecap="round" stroke-linejoin="round" d="M 404.31439208984375 87.64583587646484 C 420.4176025390625 78.19393157958984 435.7148132324219 86.73787689208984 405.68292236328125 92.87162780761719 C 410.3712463378906 93.09249114990234 436.2082824707031 81.6459732055664 419.9461975097656 91.49897766113281 C 426.40484619140625 92.69098663330078 423.67291259765625 75.12447357177734 402.79046630859375 86.82506561279297 C 388.8404541015625 94.71171569824219 395.390869140625 92.35464477539062 404.31439208984375 87.64583587646484"/>
    <path stroke-width="0" fill="rgb(35, 20, 45)" opacity="0.9472288" stroke="rgb(47, 230, 138)" stroke-opacity="1.0" stroke-linecap="round" stroke-linejoin="round" d="M 229.6862030029297 450.6789855957031 C 225.99859619140625 434.1938171386719 235.98666381835938 439.8352355957031 230.9750213623047 451.06854248046875 C 432.028076171875 453.8271789550781 403.6401062011719 444.5741271972656 260.07562255859375 450.0823974609375 C 257.47308349609375 422.9609680175781 279.29638671875 459.91094970703125 243.18707275390625 449.72052001953125 C 250.6984405517578 450.2857971191406 226.07716369628906 445.50823974609375 229.6862030029297 450.6789855957031"/>
    <path stroke-width="0" fill="rgb(200, 179, 208)" opacity="0.7145013" stroke="rgb(230, 175, 178)" stroke-opacity="1.0" stroke-linecap="round" stroke-linejoin="round" d="M 177.09144592285156 367.626220703125 C 181.15121459960938 377.8591003417969 234.4246826171875 362.8659973144531 258.5372314453125 363.2947082519531 C 228.51393127441406 364.7707824707031 228.9766387939453 359.8606262207031 241.45724487304688 370.22869873046875 C 229.50364685058594 372.3605041503906 224.6914825439453 370.3514099121094 418.7787780761719 371.380859375 C 116.50540924072266 357.32891845703125 315.11883544921875 382.0863342285156 177.09144592285156 367.626220703125"/>
    <path stroke-width="0" fill="rgb(216, 229, 237)" opacity="0.39107" stroke="rgb(192, 162, 61)" stroke-opacity="1.0" stroke-linecap="round" stroke-linejoin="round" d="M 454.22564697265625 290.29931640625 C 462.92041015625 291.7141418457031 439.31744384765625 294.6273498535156 446.6595458984375 256.6743469238281 C 442.6650085449219 280.8005676269531 449.64947509765625 288.8813171386719 457.9765930175781 292.3187561035156 C 462.16314697265625 296.6034851074219 469.5403747558594 295.1971740722656 451.07421875 328.19085693359375 C 466.5450439453125 297.7301025390625 467.0742492675781 298.2366638183594 454.22564697265625 290.29931640625"/>
    <path stroke-width="0" fill="rgb(117, 123, 136)" opacity="0.72373253" stroke="rgb(209, 231, 207)" stroke-opacity="1.0" stroke-linecap="round" stroke-linejoin="round" d="M 555.816650390625 498.63116455078125 C 398.6095275878906 504.1374206542969 430.4490661621094 489.4058837890625 427.3771667480469 518.9959716796875 C 428.16326904296875 509.82098388671875 426.19622802734375 518.6868286132812 422.18017578125 509.2488098144531 C 437.5612487792969 479.68255615234375 394.68280029296875 496.3034973144531 498.5245056152344 493.1174011230469 C 434.762451171875 468.43780517578125 418.0778503417969 482.03741455078125 555.816650390625 498.63116455078125"/>
    <path stroke-width="0" fill="rgb(45, 69, 92)" opacity="0.8454268" stroke="rgb(160, 101, 15)" stroke-opacity="1.0" stroke-linecap="round" stroke-linejoin="round" d="M 387.2070617675781 272.71484375 C 487.5292053222656 272.44659423828125 242.02015686035156 243.57102966308594 296.97015380859375 205.18026733398438 C 458.9621887207031 204.6514129638672 408.1365661621094 189.46975708007812 412.1868896484375 269.3618469238281 C 356.8305358886719 248.76670837402344 365.4373779296875 262.4313049316406 287.943359375 223.55076599121094 C 297.4537353515625 281.5146484375 261.50067138671875 271.61651611328125 387.2070617675781 272.71484375"/>
    <path stroke-width="0" fill="rgb(33, 35, 24)" opacity="0.95236516" stroke="rgb(65, 216, 8)" stroke-opacity="1.0" stroke-linecap="round" stroke-linejoin="round" d="M 231.65744018554688 491.9350280761719 C 220.13882446289062 489.20733642578125 124.58395385742188 488.0111999511719 -117.25698852539062 490.1258544921875 C 237.19752502441406 495.8781433105469 210.66455078125 482.93878173828125 205.0564422607422 505.3831787109375 C 193.79367065429688 483.8544921875 192.60462951660156 498.431640625 297.9194030761719 491.61480712890625 C 178.56678771972656 491.48870849609375 198.84446716308594 495.1773376464844 231.65744018554688 491.9350280761719"/>
    <path stroke-width="0" fill="rgb(18, 33, 52)" opacity="0.80271876" stroke="rgb(90, 90, 4)" stroke-opacity="1.0" stroke-linecap="round" stroke-linejoin="round" d="M 279.1593322753906 438.18048095703125 C 276.6219787597656 431.7130432128906 278.64569091796875 440.0292053222656 290.9212951660156 438.4324951171875 C 302.5171203613281 449.25244140625 287.0602722167969 438.677734375 287.8889465332031 434.3930358886719 C 291.5942077636719 468.98101806640625 362.80340576171875 440.8641357421875 286.53179931640625 450.93218994140625 C 302.4541931152344 440.7535705566406 301.7737731933594 444.34088134765625 279.1593322753906 438.18048095703125"/>
    <path stroke-width="0" fill="rgb(37, 21, 14)" opacity="0.7692601" stroke="rgb(102, 236, 25)" stroke-opacity="1.0" stroke-linecap="round" stroke-linejoin="round" d="M -25.521780014038086 437.4593811035156 C 58.34180450439453 448.6213073730469 25.67243003845215 432.2188415527344 -7.008885383605957 440.2791748046875 C 127.15338897705078 440.2903137207031 155.35205078125 418.13421630859375 -73.74617004394531 426.47662353515625 C 147.82431030273438 435.36181640625 107.41188049316406 419.9007263183594 81.11328125 440.0547790527344 C 45.57924270629883 443.2071228027344 24.839937210083008 438.8856201171875 -25.521780014038086 437.4593811035156"/>
    <path stroke-width="0" fill="rgb(79, 83, 66)" opacity="0.9282644" stroke="rgb(221, 115, 83)" stroke-opacity="1.0" stroke-linecap="round" stroke-linejoin="round" d="M 559.1978759765625 363.01141357421875 C 452.0666198730469 347.804931640625 432.9637145996094 367.9486389160156 452.1433410644531 359.8712158203125 C 474.8741455078125 356.8836975097656 466.2322082519531 354.3916320800781 467.5126953125 357.702392578125 C 481.6517028808594 356.1370849609375 430.45782470703125 356.4725341796875 115.85421752929688 357.50469970703125 C 403.06103515625 365.6805419921875 487.6571350097656 355.3461608886719 559.1978759765625 363.01141357421875"/>
    <path stroke-width="0" fill="rgb(43, 46, 80)" opacity="0.51416445" stroke="rgb(33, 3, 29)" stroke-opacity="1.0" stroke-linecap="round" stroke-linejoin="round" d="M 434.2700500488281 508.44671630859375 C 454.23297119140625 490.94256591796875 453.07830810546875 513.5021362304688 450.9222106933594 518.8974609375 C 439.1594543457031 488.4527587890625 472.81121826171875 512.5267944335938 458.587158203125 488.6453857421875 C 442.57659912109375 541.7711791992188 477.8448791503906 525.875 450.5764465332031 526.3861694335938 C 446.2982482910156 505.09515380859375 451.9408264160156 492.9178771972656 434.2700500488281 508.44671630859375"/>
    <path stroke-width="0" fill="rgb(106, 110, 126)" opacity="0.44121435" stroke="rgb(162, 125, 252)" stroke-opacity="1.0" stroke-linecap="round" stroke-linejoin="round" d="M 231.98854064941406 116.88270568847656 C 241.9039764404297 93.5709457397461 239.42071533203125 98.45945739746094 235.4832000732422 104.00797271728516 C 234.47804260253906 102.65748596191406 234.85008239746094 102.8710708618164 234.18930053710938 104.76984405517578 C 237.04837036132812 103.6043930053711 244.1273651123047 91.76895141601562 245.35513305664062 70.8110122680664 C 245.2548828125 88.85337829589844 238.19277954101562 100.6967544555664 231.98854064941406 116.88270568847656"/>
    <path stroke-width="0" fill="rgb(27, 28, 29)" opacity="0.95293623" stroke="rgb(199, 73, 61)" stroke-opacity="1.0" stroke-linecap="round" stroke-linejoin="round" d="M 419.72808837890625 440.72637939453125 C 347.9273986816406 432.8876647949219 390.046875 468.2924499511719 622.76904296875 439.587158203125 C 293.7580261230469 466.33026123046875 490.7314147949219 417.3739013671875 370.4124450683594 450.7623596191406 C 451.0512390136719 449.9783020019531 390.853515625 455.595947265625 437.3970947265625 436.6390075683594 C 313.24212646484375 450.2069396972656 367.08709716796875 433.4316101074219 419.72808837890625 440.72637939453125"/>
    <path stroke-width="0" fill="rgb(24, 4, 11)" opacity="0.7838365" stroke="rgb(62, 169, 131)" stroke-opacity="1.0" stroke-linecap="round" stroke-linejoin="round" d="M -23.562429428100586 367.25872802734375 C 10.783781051635742 441.6786193847656 -12.185037612915039 457.9698486328125 -51.636940002441406 435.6158447265625 C 27.808277130126953 428.2139892578125 40.12839889526367 427.7135009765625 40.12527847290039 451.8636169433594 C 23.733644485473633 439.1482849121094 59.710479736328125 428.53076171875 -2.5330374240875244 432.3770446777344 C 26.3427791595459 465.4344787597656 -1.6790238618850708 461.71771240234375 -23.562429428100586 367.25872802734375"/>
    <path stroke-width="0" fill="rgb(46, 26, 27)" opacity="0.85474104" stroke="rgb(141, 73, 180)" stroke-opacity="1.0" stroke-linecap="round" stroke-linejoin="round" d="M 374.46148681640625 450.3692321777344 C 356.28515625 455.0526428222656 355.7083435058594 438.6072998046875 357.6846008300781 436.246337890625 C 362.54638671875 464.1491394042969 329.55029296875 444.6557312011719 358.6380615234375 449.8716735839844 C 357.8218078613281 451.5732727050781 341.2918395996094 430.3484191894531 395.9960021972656 438.2665710449219 C 352.37799072265625 432.30450439453125 347.62213134765625 455.4480895996094 374.46148681640625 450.3692321777344"/>
    <path stroke-width="0" fill="rgb(224, 198, 235)" opacity="0.72019744" stroke="rgb(247, 230, 75)" stroke-opacity="1.0" stroke-linecap="round" stroke-linejoin="round" d="M 466.2713928222656 367.3670654296875 C 413.3148498535156 364.7549133300781 350.4641418457031 372.0265808105469 459.37921142578125 371.16619873046875 C 452.92620849609375 360.97021484375 460.2158508300781 361.36956787109375 466.9049987792969 369.978515625 C 525.9247436523438 375.90484619140625 592.3911743164062 366.1607360839844 465.5612487792969 366.4499206542969 C 471.9905700683594 376.7666931152344 474.471923828125 383.38067626953125 466.2713928222656 367.3670654296875"/>
    <path stroke-width="0" fill="rgb(107, 110, 132)" opacity="0.46429998" stroke="rgb(63, 27, 242)" stroke-opacity="1.0" stroke-linecap="round" stroke-linejoin="round" d="M 212.61557006835938 111.73435974121094 C 198.1553497314453 100.09687042236328 187.55380249023438 89.91813659667969 187.15028381347656 97.87860870361328 C 194.70005798339844 85.51274108886719 191.50271606445312 97.48332214355469 187.65785217285156 92.35610961914062 C 201.67539978027344 106.69254302978516 205.04042053222656 96.8140869140625 197.6701202392578 111.0613021850586 C 203.3083953857422 97.30830383300781 203.46481323242188 105.57046508789062 212.61557006835938 111.73435974121094"/>
    <path stroke-width="0" fill="rgb(206, 209, 194)" opacity="0.62480634" stroke="rgb(69, 96, 95)" stroke-opacity="1.0" stroke-linecap="round" stroke-linejoin="round" d="M 327.5569152832031 74.66051483154297 C 353.3314208984375 85.17031860351562 296.5504150390625 60.81742858886719 369.98504638671875 92.3952407836914 C 386.4380187988281 89.09587097167969 362.9229736328125 98.8775634765625 356.6785888671875 94.41185760498047 C 283.2092590332031 96.92677307128906 253.0650177001953 89.4173583984375 363.0655517578125 99.33956909179688 C 372.9603271484375 90.57280731201172 357.2157287597656 86.28839874267578 327.5569152832031 74.66051483154297"/>
    <path stroke-width="0" fill="rgb(29, 37, 48)" opacity="0.61685354" stroke="rgb(213, 60, 128)" stroke-opacity="1.0" stroke-linecap="round" stroke-linejoin="round" d="M 318.4642333984375 161.23190307617188 C 328.6901550292969 114.23193359375 316.8741760253906 129.77471923828125 317.0828552246094 129.8319854736328 C 327.6115417480469 123.48457336425781 316.78228759765625 125.1303939819336 320.1823425292969 125.11721801757812 C 322.26171875 121.05976867675781 324.8165588378906 138.41409301757812 317.86639404296875 159.1052703857422 C 321.30377197265625 139.78909301757812 320.3313293457031 137.80018615722656 318.4642333984375 161.23190307617188"/>
    <path stroke-width="0" fill="rgb(53, 48, 49)" opacity="0.58650213" stroke="rgb(161, 221, 239)" stroke-opacity="1.0" stroke-linecap="round" stroke-linejoin="round" d="M 148.73548889160156 451.82940673828125 C 228.12025451660156 430.006591796875 225.11065673828125 419.5216369628906 230.2216796875 443.87139892578125 C 247.67813110351562 435.5423889160156 255.20155334472656 432.8077087402344 238.0254669189453 440.3229064941406 C 211.9881591796875 451.0079040527344 241.80184936523438 457.0667419433594 227.54965209960938 440.9884948730469 C 222.81561279296875 419.42901611328125 223.47976684570312 431.143310546875 148.73548889160156 451.82940673828125"/>
    <path stroke-width="0" fill="rgb(4, 26, 12)" opacity="0.639966" stroke="rgb(228, 103, 140)" stroke-opacity="1.0" stroke-linecap="round" stroke-linejoin="round" d="M 219.8774871826172 431.9292297363281 C 12.602543830871582 424.46124267578125 -84.58848571777344 433.04058837890625 151.10293579101562 431.2154235839844 C 180.73764038085938 433.7421875 154.1797637939453 420.2884521484375 167.69244384765625 450.37664794921875 C 162.2275848388672 426.77325439453125 173.30032348632812 437.5897521972656 156.1758575439453 439.0010986328125 C 179.7821044921875 428.7841491699219 121.64635467529297 432.1895446777344 219.8774871826172 431.9292297363281"/>
    <path stroke-width="0" fill="rgb(256, 256, 259)" opacity="0.6640639" stroke="rgb(116, 102, 63)" stroke-opacity="1.0" stroke-linecap="round" stroke-linejoin="round" d="M 457.6010437011719 112.97042846679688 C 448.7366638183594 119.0714111328125 458.76885986328125 116.832275390625 476.2142333984375 119.91606140136719 C 449.943603515625 128.23207092285156 457.5223083496094 108.74030303955078 480.7353210449219 118.44194030761719 C 469.9572448730469 117.28648376464844 459.7272644042969 108.37391662597656 443.825927734375 113.44935607910156 C 501.11297607421875 120.95475769042969 508.1300354003906 129.8584747314453 457.6010437011719 112.97042846679688"/>
    <path stroke-width="0" fill="rgb(111, 125, 120)" opacity="0.21848737" stroke="rgb(85, 235, 219)" stroke-opacity="1.0" stroke-linecap="round" stroke-linejoin="round" d="M 460.0684509277344 151.72645568847656 C 468.4184875488281 110.2956771850586 451.0908508300781 125.47624206542969 442.09765625 115.77328491210938 C 432.85479736328125 113.11663055419922 426.7371520996094 116.85690307617188 427.8681640625 117.43697357177734 C 442.7383728027344 111.44735717773438 436.70660400390625 119.5302734375 457.77001953125 121.79373931884766 C 456.2929382324219 119.2894515991211 467.75811767578125 126.94622802734375 460.0684509277344 151.72645568847656"/>
    <path stroke-width="0" fill="rgb(240, 244, 244)" opacity="0.76028144" stroke="rgb(64, 113, 26)" stroke-opacity="1.0" stroke-linecap="round" stroke-linejoin="round" d="M 477.6956787109375 88.21720886230469 C 458.7699279785156 82.36933898925781 478.9918518066406 103.31198120117188 488.4112243652344 93.33930969238281 C 445.6874694824219 83.06343078613281 437.57672119140625 68.86064147949219 445.71063232421875 91.59146881103516 C 494.4268493652344 98.90703582763672 499.280517578125 89.17994689941406 485.6537170410156 80.71150970458984 C 461.82476806640625 94.96066284179688 478.9117431640625 101.45747375488281 477.6956787109375 88.21720886230469"/>
    <path stroke-width="0" fill="rgb(221, 207, 162)" opacity="0.8282977" stroke="rgb(0, 0, 0)" stroke-opacity="0.0" stroke-linecap="round" stroke-linejoin="round" d="M 275.3097229003906 17.456457138061523 C 274.9812927246094 23.019420623779297 272.22186279296875 25.704654693603516 266.9080810546875 26.365148544311523 C 262.4874572753906 26.12002944946289 258.56011962890625 23.00271987915039 257.0709533691406 17.395488739013672 C 257.7955627441406 11.648675918579102 261.2796630859375 9.447789192199707 266.3909606933594 9.812505722045898 C 272.5005798339844 10.045099258422852 275.3715515136719 12.754317283630371 275.3097229003906 17.456457138061523"/>
    <path stroke-width="0" fill="rgb(191, 160, 180)" opacity="0.32635078" stroke="rgb(0, 0, 0)" stroke-opacity="0.0" stroke-linecap="round" stroke-linejoin="round" d="M 5.809760570526123 5.006442070007324 C 4.20385217666626 8.817519187927246 2.036777973175049 12.634902954101562 -0.07417242974042892 16.041736602783203 C -3.911717176437378 14.910581588745117 -6.5775885581970215 11.605952262878418 -7.633078575134277 7.568233013153076 C -6.56112003326416 3.56783390045166 -3.6329166889190674 0.6396306753158569 1.1533679962158203 -1.102948546409607 C 5.383993625640869 -0.5086501836776733 7.610290050506592 2.2834689617156982 5.809760570526123 5.006442070007324"/>
    <path stroke-width="0" fill="rgb(172, 158, 204)" opacity="0.89954555" stroke="rgb(0, 0, 0)" stroke-opacity="0.0" stroke-linecap="round" stroke-linejoin="round" d="M 24.293678283691406 11.300482749938965 C 26.03170394897461 13.203124046325684 23.08652114868164 15.458857536315918 18.265270233154297 16.852365493774414 C 14.614505767822266 16.624099731445312 11.987668991088867 14.06656265258789 11.975789070129395 10.407937049865723 C 13.72838020324707 6.114310264587402 16.19291114807129 3.28696346282959 19.228961944580078 1.5073585510253906 C 22.053003311157227 3.4482483863830566 24.379472732543945 7.318556785583496 24.293678283691406 11.300482749938965"/>
    <path stroke-width="0" fill="rgb(208, 184, 97)" opacity="0.5588147" stroke="rgb(0, 0, 0)" stroke-opacity="0.0" stroke-linecap="round" stroke-linejoin="round" d="M 106.88031768798828 2.9137439727783203 C 104.55722045898438 5.765599727630615 101.97615814208984 9.021235466003418 99.22936248779297 11.399637222290039 C 97.1568374633789 11.918012619018555 95.4183120727539 7.694101333618164 94.67362213134766 2.266977548599243 C 92.09382629394531 -0.5742034912109375 94.81655883789062 -3.714425563812256 99.94097137451172 -4.251109600067139 C 104.99286651611328 -2.999518394470215 107.60411071777344 -0.0034437801223248243 106.88031768798828 2.9137439727783203"/>
    <path stroke-width="0" fill="rgb(49, 39, 175)" opacity="0.3780973" stroke="rgb(0, 0, 0)" stroke-opacity="0.0" stroke-linecap="round" stroke-linejoin="round" d="M 171.4799346923828 17.753156661987305 C 171.53118896484375 20.869735717773438 168.33270263671875 23.458141326904297 164.11386108398438 24.78362464904785 C 160.91055297851562 23.676694869995117 158.55133056640625 20.297548294067383 157.8011932373047 16.88544464111328 C 158.02854919433594 11.946365356445312 159.37367248535156 8.834968566894531 163.1475067138672 8.937355995178223 C 166.7412109375 11.473026275634766 169.86392211914062 14.661678314208984 171.4799346923828 17.753156661987305"/>
    <path stroke-width="0" fill="rgb(127, 132, 191)" opacity="0.93411165" stroke="rgb(0, 0, 0)" stroke-opacity="0.0" stroke-linecap="round" stroke-linejoin="round" d="M 23.46485137939453 12.845789909362793 C 21.50248146057129 17.179460525512695 18.476255416870117 19.996767044067383 15.838939666748047 19.365278244018555 C 10.720420837402344 18.90974235534668 7.134324550628662 16.676937103271484 6.018041133880615 12.269768714904785 C 6.105951309204102 8.193617820739746 10.132648468017578 6.309245586395264 15.468907356262207 4.766857624053955 C 20.48865509033203 4.6636128425598145 23.210859298706055 6.754002094268799 23.46485137939453 12.845789909362793"/>
    <path stroke-width="0" fill="rgb(125, 113, 64)" opacity="0.28298977" stroke="rgb(0, 0, 0)" stroke-opacity="0.0" stroke-linecap="round" stroke-linejoin="round" d="M 15.124051094055176 5.059749126434326 C 12.01936149597168 7.240840435028076 7.9485907554626465 9.39889144897461 3.6762197017669678 12.37848949432373 C 0.9247891306877136 13.090492248535156 -1.3373295068740845 9.300840377807617 -1.9821009635925293 4.638293266296387 C -0.9055466651916504 0.6716956496238708 1.9961764812469482 -2.2815117835998535 5.783045291900635 -3.376587390899658 C 9.688360214233398 -2.2693111896514893 12.581721305847168 0.7307510375976562 15.124051094055176 5.059749126434326"/>
    <path stroke-width="0" fill="rgb(246, 185, 208)" opacity="0.5627519" stroke="rgb(0, 0, 0)" stroke-opacity="0.0" stroke-linecap="round" stroke-linejoin="round" d="M 348.84039306640625 43.5549430847168 C 347.9837646484375 47.15981674194336 344.9620361328125 49.95065689086914 340.80218505859375 50.929931640625 C 336.5083923339844 50.57086181640625 333.51055908203125 47.606658935546875 332.8910827636719 42.715232849121094 C 333.2134094238281 38.30282211303711 336.23626708984375 35.584468841552734 341.31707763671875 34.78656005859375 C 345.6299743652344 35.40238952636719 347.91339111328125 38.7482795715332 348.84039306640625 43.5549430847168"/>
    <path stroke-width="0" fill="rgb(116, 182, 57)" opacity="0.1247678" stroke="rgb(0, 0, 0)" stroke-opacity="0.0" stroke-linecap="round" stroke-linejoin="round" d="M 326.1248474121094 270.2208251953125 C 324.4253234863281 273.6773376464844 321.1053466796875 276.2175598144531 319.030517578125 277.4357604980469 C 315.4322509765625 276.44036865234375 312.23809814453125 273.8487243652344 310.7163391113281 270.454833984375 C 312.2353820800781 267.84368896484375 315.8540344238281 265.3123779296875 318.8719482421875 264.4338684082031 C 322.1045837402344 264.20660400390625 325.1191101074219 266.9654541015625 326.1248474121094 270.2208251953125"/>
    <path stroke-width="0" fill="rgb(213, 192, 146)" opacity="0.9721034" stroke="rgb(0, 0, 0)" stroke-opacity="0.0" stroke-linecap="round" stroke-linejoin="round" d="M 172.4409942626953 37.318389892578125 C 171.1650848388672 42.03466033935547 168.26553344726562 44.838478088378906 164.42745971679688 45.53763961791992 C 159.58775329589844 45.183197021484375 156.6622314453125 42.76669692993164 156.78399658203125 37.982784271240234 C 156.90786743164062 33.68345642089844 160.0604248046875 31.051651000976562 164.74295043945312 29.868988037109375 C 169.36390686035156 29.993227005004883 172.11904907226562 32.79755783081055 172.4409942626953 37.318389892578125"/>
    <path stroke-width="0" fill="rgb(88, 60, 192)" opacity="0.10950284" stroke="rgb(0, 0, 0)" stroke-opacity="0.0" stroke-linecap="round" stroke-linejoin="round" d="M 400.3124084472656 137.43350219726562 C 399.9569091796875 140.9858856201172 396.8415222167969 143.1502227783203 392.76898193359375 143.6759796142578 C 389.3934020996094 142.27366638183594 386.41864013671875 139.67872619628906 385.2912902832031 136.09014892578125 C 385.56719970703125 132.02503967285156 388.0495300292969 128.7637481689453 392.3882141113281 128.0482635498047 C 395.75189208984375 130.14239501953125 398.53326416015625 133.27488708496094 400.3124084472656 137.43350219726562"/>
    <path stroke-width="0" fill="rgb(206, 160, 230)" opacity="0.7487223" stroke="rgb(0, 0, 0)" stroke-opacity="0.0" stroke-linecap="round" stroke-linejoin="round" d="M -60.74114227294922 30.83562660217285 C -61.81293869018555 34.835628509521484 -64.74114227294922 37.763832092285156 -68.74114227294922 38.835628509521484 C -72.74114227294922 37.763832092285156 -75.66934967041016 34.835628509521484 -76.74114227294922 30.83562660217285 C -75.66934967041016 26.83562660217285 -72.74114227294922 23.907424926757812 -68.74114227294922 22.83562660217285 C -64.74114227294922 23.907424926757812 -61.81293869018555 26.83562660217285 -60.74114227294922 30.83562660217285"/>
    <path stroke-width="0" fill="rgb(134, 79, 245)" opacity="0.19976711" stroke="rgb(0, 0, 0)" stroke-opacity="0.0" stroke-linecap="round" stroke-linejoin="round" d="M 435.7792053222656 141.8665313720703 C 434.5399169921875 145.65492248535156 431.5730895996094 148.50567626953125 427.8923034667969 149.49749755859375 C 425.0299377441406 148.76348876953125 422.54962158203125 145.3035125732422 420.353759765625 141.44393920898438 C 421.79193115234375 139.0015106201172 425.1682434082031 136.30987548828125 428.2693176269531 134.4683837890625 C 431.8558044433594 136.100341796875 434.9652099609375 138.61019897460938 435.7792053222656 141.8665313720703"/>
    <path stroke-width="0" fill="rgb(10, 145, 220)" opacity="0.6839017" stroke="rgb(0, 0, 0)" stroke-opacity="0.0" stroke-linecap="round" stroke-linejoin="round" d="M 174.81825256347656 257.1768798828125 C 174.62083435058594 262.38238525390625 171.95428466796875 265.2872009277344 167.47872924804688 265.2951354980469 C 161.93348693847656 264.7498474121094 158.5712127685547 262.3631286621094 159.26608276367188 258.3039855957031 C 158.98849487304688 252.05047607421875 161.5801544189453 249.22573852539062 166.23133850097656 249.08563232421875 C 171.40069580078125 249.92202758789062 174.40382385253906 252.69114685058594 174.81825256347656 257.1768798828125"/>
    <path stroke-width="0" fill="rgb(208, 155, 119)" opacity="0.0036626125" stroke="rgb(0, 0, 0)" stroke-opacity="0.0" stroke-linecap="round" stroke-linejoin="round" d="M 497.7099304199219 490.62432861328125 C 496.4238586425781 494.48016357421875 493.1301574707031 497.15777587890625 489.26123046875 498.1053466796875 C 485.8848571777344 497.3399353027344 483.2546081542969 493.93902587890625 481.4674072265625 489.6154479980469 C 481.9594421386719 486.11712646484375 485.0150146484375 483.27349853515625 489.0333251953125 482.7545471191406 C 493.4636535644531 483.9159851074219 496.592529296875 486.45880126953125 497.7099304199219 490.62432861328125"/>
    <path stroke-width="0" fill="rgb(90, 47, 190)" opacity="0.704035" stroke="rgb(0, 0, 0)" stroke-opacity="0.0" stroke-linecap="round" stroke-linejoin="round" d="M 514.21044921875 420.01959228515625 C 513.9356079101562 423.06201171875 510.0562744140625 425.0928039550781 505.9052734375 425.86810302734375 C 501.38330078125 425.86456298828125 498.4070739746094 423.9845275878906 498.9554443359375 419.88458251953125 C 499.4874267578125 414.6902160644531 502.4039611816406 412.162353515625 506.39154052734375 411.09136962890625 C 509.4285888671875 412.9041748046875 512.4561157226562 415.81292724609375 514.21044921875 420.01959228515625"/>
    <path stroke-width="0" fill="rgb(31, 119, 83)" opacity="0.48419425" stroke="rgb(0, 0, 0)" stroke-opacity="0.0" stroke-linecap="round" stroke-linejoin="round" d="M 97.9604263305664 64.44151306152344 C 96.92991638183594 68.1195068359375 93.37224578857422 70.44386291503906 89.98652648925781 71.36554718017578 C 86.49449157714844 70.5068359375 83.72048950195312 67.4373550415039 82.46083068847656 63.51311111450195 C 82.61042785644531 59.96242141723633 85.5963363647461 57.15678787231445 89.50523376464844 56.04528045654297 C 93.96202850341797 57.16513442993164 96.82633209228516 60.01166534423828 97.9604263305664 64.44151306152344"/>
    <path stroke-width="0" fill="rgb(81, 149, 108)" opacity="0.92235035" stroke="rgb(0, 0, 0)" stroke-opacity="0.0" stroke-linecap="round" stroke-linejoin="round" d="M 449.5196533203125 432.2311706542969 C 448.6651916503906 436.96343994140625 445.927490234375 439.9156799316406 441.4705810546875 439.8750915527344 C 436.4489440917969 440.034423828125 433.6826171875 437.06939697265625 433.7096862792969 432.7994689941406 C 434.8968505859375 428.9744873046875 437.9476623535156 425.9319763183594 441.240234375 425.03314208984375 C 444.4568176269531 426.0835266113281 448.2381896972656 428.51629638671875 449.5196533203125 432.2311706542969"/>
    <path stroke-width="0" fill="rgb(44, 55, 170)" opacity="0.7463035" stroke="rgb(0, 0, 0)" stroke-opacity="0.0" stroke-linecap="round" stroke-linejoin="round" d="M 365.4388122558594 496.48638916015625 C 363.69970703125 500.0968017578125 360.3111267089844 502.8889465332031 357.02789306640625 503.9288024902344 C 353.3824768066406 503.53302001953125 350.38958740234375 500.6789855957031 349.9115905761719 496.68939208984375 C 349.92889404296875 492.2247619628906 352.60595703125 489.3983154296875 356.66021728515625 489.01739501953125 C 361.1227111816406 490.19989013671875 364.5851135253906 492.6658020019531 365.4388122558594 496.48638916015625"/>
    <path stroke-width="0" fill="rgb(112, 33, 88)" opacity="0.24556427" stroke="rgb(0, 0, 0)" stroke-opacity="0.0" stroke-linecap="round" stroke-linejoin="round" d="M 318.8353576660156 108.30458068847656 C 318.164794921875 111.8275375366211 314.8900451660156 114.5190658569336 312.9724426269531 115.20315551757812 C 309.25927734375 114.14726257324219 305.35858154296875 112.53103637695312 304.052734375 108.08930206298828 C 304.74786376953125 104.83641052246094 308.58673095703125 102.82818603515625 312.5648193359375 102.20826721191406 C 316.22607421875 102.21810150146484 319.08074951171875 104.77477264404297 318.8353576660156 108.30458068847656"/>
    <path stroke-width="0" fill="rgb(104, 156, 242)" opacity="0.11834266" stroke="rgb(0, 0, 0)" stroke-opacity="0.0" stroke-linecap="round" stroke-linejoin="round" d="M 484.4924621582031 93.06912231445312 C 483.0888671875 96.55170440673828 479.7912292480469 99.20235443115234 475.68585205078125 100.42933654785156 C 472.3287048339844 99.65877532958984 469.3336181640625 96.71429443359375 467.8713073730469 92.96900939941406 C 469.4092102050781 88.81108856201172 472.0866394042969 85.61013793945312 476.06707763671875 85.01361083984375 C 480.4100341796875 85.54068756103516 483.0743103027344 88.74771118164062 484.4924621582031 93.06912231445312"/>
    <path stroke-width="0" fill="rgb(38, 13, 57)" opacity="0.4542323" stroke="rgb(0, 0, 0)" stroke-opacity="0.0" stroke-linecap="round" stroke-linejoin="round" d="M -27.041536331176758 30.428306579589844 C -28.113332748413086 34.428306579589844 -31.041536331176758 37.356510162353516 -35.041534423828125 38.428306579589844 C -39.041534423828125 37.356510162353516 -41.9697380065918 34.428306579589844 -43.041534423828125 30.428306579589844 C -41.9697380065918 26.428306579589844 -39.041534423828125 23.500104904174805 -35.041534423828125 22.428306579589844 C -31.041536331176758 23.500104904174805 -28.113332748413086 26.428306579589844 -27.041536331176758 30.428306579589844"/>
    <path stroke-width="0" fill="rgb(251, 118, 233)" opacity="0.33664012" stroke="rgb(0, 0, 0)" stroke-opacity="0.0" stroke-linecap="round" stroke-linejoin="round" d="M -70.7625961303711 47.9467658996582 C -71.83438873291016 51.9467658996582 -74.7625961303711 54.874969482421875 -78.7625961303711 55.9467658996582 C -82.7625961303711 54.874969482421875 -85.6907958984375 51.9467658996582 -86.7625961303711 47.9467658996582 C -85.6907958984375 43.9467658996582 -82.7625961303711 41.01856231689453 -78.7625961303711 39.9467658996582 C -74.7625961303711 41.01856231689453 -71.83438873291016 43.9467658996582 -70.7625961303711 47.9467658996582"/>
    <path stroke-width="0" fill="rgb(233, 205, 216)" opacity="0.7485595" stroke="rgb(0, 0, 0)" stroke-opacity="0.0" stroke-linecap="round" stroke-linejoin="round" d="M 211.0950469970703 304.8523864746094 C 209.42678833007812 308.57257080078125 206.32659912109375 311.4269714355469 203.10711669921875 312.7851867675781 C 199.32276916503906 312.4942932128906 196.4888153076172 309.6613464355469 194.99575805664062 305.134033203125 C 195.9459686279297 301.3731994628906 199.57217407226562 299.08990478515625 203.796630859375 298.34307861328125 C 207.72085571289062 298.53924560546875 210.75466918945312 301.1483154296875 211.0950469970703 304.8523864746094"/>
    <path stroke-width="0" fill="rgb(169, 14, 107)" opacity="0.29474857" stroke="rgb(0, 0, 0)" stroke-opacity="0.0" stroke-linecap="round" stroke-linejoin="round" d="M 186.028564453125 199.846435546875 C 186.5493927001953 203.63165283203125 183.01312255859375 205.589599609375 178.29222106933594 206.5117950439453 C 174.801025390625 205.6683349609375 171.7069854736328 202.9492645263672 171.1657257080078 198.91346740722656 C 171.96498107910156 195.46554565429688 175.59934997558594 193.1499786376953 179.34559631347656 191.74227905273438 C 182.55519104003906 192.16192626953125 184.732177734375 195.4298553466797 186.028564453125 199.846435546875"/>
    <path stroke-width="0" fill="rgb(8, 224, 45)" opacity="0.43473628" stroke="rgb(0, 0, 0)" stroke-opacity="0.0" stroke-linecap="round" stroke-linejoin="round" d="M 166.6515655517578 57.64022445678711 C 165.88560485839844 61.83454132080078 162.88177490234375 64.54721069335938 158.48704528808594 64.0368881225586 C 153.81166076660156 64.84784698486328 150.78277587890625 62.45452117919922 150.90367126464844 58.7640266418457 C 153.18362426757812 54.68039321899414 155.40713500976562 51.18514633178711 158.6573028564453 50.649658203125 C 162.3696746826172 51.14528274536133 165.84799194335938 53.5836181640625 166.6515655517578 57.64022445678711"/>
    <path stroke-width="0" fill="rgb(204, 185, 216)" opacity="0.29169843" stroke="rgb(0, 0, 0)" stroke-opacity="0.0" stroke-linecap="round" stroke-linejoin="round" d="M 423.1446533203125 387.7885437011719 C 423.3204040527344 392.0077819824219 420.6190490722656 394.93023681640625 417.02215576171875 394.8951110839844 C 412.0556640625 393.51849365234375 409.25225830078125 390.7927551269531 408.0202941894531 386.6546630859375 C 408.3335876464844 382.865478515625 411.6683349609375 380.26849365234375 416.1130065917969 379.5361328125 C 419.909423828125 379.9234313964844 422.29132080078125 383.1604919433594 423.1446533203125 387.7885437011719"/>
    <path stroke-width="0" fill="rgb(76, 52, 20)" opacity="0.4338508" stroke="rgb(0, 0, 0)" stroke-opacity="0.0" stroke-linecap="round" stroke-linejoin="round" d="M 29.82628059387207 496.9759826660156 C 28.698657989501953 501.4844665527344 25.465412139892578 504.04254150390625 21.051128387451172 506.1720886230469 C 17.947111129760742 504.3318176269531 15.124852180480957 500.891357421875 14.446837425231934 497.0775146484375 C 14.347033500671387 492.6456604003906 16.67904281616211 489.3030090332031 20.65226173400879 490.3303527832031 C 26.234899520874023 490.3714294433594 29.35041046142578 492.601318359375 29.82628059387207 496.9759826660156"/>
    <path stroke-width="0" fill="rgb(190, 232, 72)" opacity="0.5568482" stroke="rgb(0, 0, 0)" stroke-opacity="0.0" stroke-linecap="round" stroke-linejoin="round" d="M 16.148761749267578 4.432987689971924 C 15.180280685424805 7.748382568359375 10.889081954956055 9.767072677612305 7.066021919250488 10.681854248046875 C 4.613950729370117 10.421114921569824 1.5569179058074951 7.547621250152588 -0.10638336092233658 3.3976097106933594 C 0.4562370479106903 -0.4055382311344147 3.4145429134368896 -3.2823050022125244 8.238687515258789 -4.470982074737549 C 12.734682083129883 -3.629331350326538 15.28144645690918 -0.4341244101524353 16.148761749267578 4.432987689971924"/>
    <path stroke-width="0" fill="rgb(94, 228, 195)" opacity="0.04852577" stroke="rgb(0, 0, 0)" stroke-opacity="0.0" stroke-linecap="round" stroke-linejoin="round" d="M 9.692422866821289 0.20642758905887604 C 8.737781524658203 4.505823135375977 6.000863552093506 7.679954528808594 2.039928674697876 7.790743827819824 C -2.723212718963623 6.402513027191162 -5.763704299926758 3.7162721157073975 -6.846820831298828 -0.25479376316070557 C -5.775409698486328 -4.253812313079834 -2.8472065925598145 -7.182015895843506 1.1527934074401855 -8.253812789916992 C 5.152807235717773 -7.18202018737793 8.082481384277344 -4.254365921020508 9.692422866821289 0.20642758905887604"/>
    <path stroke-width="0" fill="rgb(176, 145, 175)" opacity="0.61895853" stroke="rgb(0, 0, 0)" stroke-opacity="0.0" stroke-linecap="round" stroke-linejoin="round" d="M 15.159363746643066 90.85584259033203 C 14.881025314331055 94.35546112060547 11.774718284606934 96.4920654296875 6.898705959320068 96.76533508300781 C 2.95424747467041 97.22047424316406 0.17386072874069214 94.72154998779297 -0.04769913852214813 91.23600006103516 C 1.246352195739746 86.42813873291016 3.9042820930480957 83.2501449584961 7.217299461364746 81.89044952392578 C 11.100380897521973 83.68640899658203 13.881903648376465 86.5540771484375 15.159363746643066 90.85584259033203"/>
    <path stroke-width="0" fill="rgb(118, 57, 76)" opacity="0.59657365" stroke="rgb(0, 0, 0)" stroke-opacity="0.0" stroke-linecap="round" stroke-linejoin="round" d="M 60.91020965576172 388.2359619140625 C 60.395965576171875 391.8730163574219 57.08076858520508 394.43194580078125 52.71614456176758 395.88433837890625 C 49.128936767578125 394.91339111328125 46.67741775512695 391.71942138671875 46.26948547363281 387.2961730957031 C 46.615943908691406 384.0055847167969 49.26023864746094 380.8554992675781 53.37258529663086 379.5550537109375 C 57.5806999206543 380.4957275390625 60.346595764160156 383.3918762207031 60.91020965576172 388.2359619140625"/>
  </g>
</svg>
