<?xml version="1.0" ?>
<svg xmlns="http://www.w3.org/2000/svg" version="1.1" width="512" height="512">
  <defs/>
  <g>
    <path stroke-width="0" fill="rgb(-7, -5, 12)" opacity="1.0207037" stroke="rgb(139, 182, 153)" stroke-opacity="1.0" stroke-linecap="round" stroke-linejoin="round" d="M 574.4296875 163.0923309326172 C 471.47216796875 157.61988830566406 255.5352020263672 161.2208251953125 22.197919845581055 158.6695556640625 C 150.11532592773438 41.545928955078125 217.3163604736328 78.87670135498047 174.5537109375 -25.031808853149414 C 185.01902770996094 -33.60383224487305 197.35633850097656 -35.491127014160156 255.78097534179688 -34.26483917236328 C 358.8087463378906 -48.45305252075195 437.0047912597656 -146.3014373779297 574.4296875 163.0923309326172"/>
    <path stroke-width="0" fill="rgb(41, 53, 51)" opacity="0.6926825" stroke="rgb(108, 164, 111)" stroke-opacity="1.0" stroke-linecap="round" stroke-linejoin="round" d="M 317.2802734375 711.5108642578125 C -124.5766830444336 747.1234130859375 7.637848854064941 369.475341796875 44.489845275878906 84.73873901367188 C 292.9687805175781 122.70869445800781 289.4940185546875 118.47193908691406 279.76593017578125 40.67778015136719 C 284.2266845703125 -66.92325592041016 317.0650329589844 -46.443145751953125 442.3717346191406 -36.365211486816406 C 639.143310546875 -2.5854287147521973 854.1314086914062 240.14646911621094 317.2802734375 711.5108642578125"/>
    <path stroke-width="0" fill="rgb(65, 75, 77)" opacity="0.9657954" stroke="rgb(245, 97, 201)" stroke-opacity="1.0" stroke-linecap="round" stroke-linejoin="round" d="M 362.3849182128906 89.0892333984375 C 331.7814025878906 104.75296020507812 323.2216796875 109.82799530029297 88.72010040283203 107.31561279296875 C 110.67733764648438 103.53909301757812 112.19343566894531 111.51972198486328 120.89744567871094 67.14401245117188 C 135.6087188720703 -33.50758361816406 141.19656372070312 -41.69476318359375 171.77635192871094 -45.7051887512207 C 292.3212890625 -28.91219711303711 315.9372863769531 -34.910335540771484 362.3849182128906 89.0892333984375"/>
    <path stroke-width="0" fill="rgb(15, 16, 17)" opacity="0.99478805" stroke="rgb(144, 236, 18)" stroke-opacity="1.0" stroke-linecap="round" stroke-linejoin="round" d="M 256.16583251953125 83.56690979003906 C 199.76605224609375 105.60948944091797 295.17291259765625 69.78794860839844 532.6256713867188 143.65858459472656 C 128.82582092285156 146.5944061279297 16.59056854248047 90.4773941040039 -32.266387939453125 237.69259643554688 C -45.53935623168945 -103.79988098144531 -12.785496711730957 -54.71656799316406 149.37364196777344 -35.13842010498047 C 205.53208923339844 -44.215091705322266 222.68519592285156 -50.4676399230957 256.16583251953125 83.56690979003906"/>
    <path stroke-width="0" fill="rgb(256, 253, 259)" opacity="1.0064154" stroke="rgb(5, 212, 198)" stroke-opacity="1.0" stroke-linecap="round" stroke-linejoin="round" d="M 491.8251953125 243.53822326660156 C 467.3360290527344 179.72645568847656 266.6591491699219 188.71253967285156 290.2867126464844 217.71034240722656 C 193.3662872314453 181.44923400878906 152.8221435546875 187.5196990966797 130.35562133789062 160.22019958496094 C 83.1738052368164 159.0142364501953 85.66171264648438 159.3108673095703 494.6462707519531 159.5716094970703 C 492.10491943359375 159.67605590820312 492.34722900390625 138.58279418945312 491.8251953125 243.53822326660156"/>
    <path stroke-width="0" fill="rgb(258, 259, 256)" opacity="1.0275972" stroke="rgb(249, 203, 117)" stroke-opacity="1.0" stroke-linecap="round" stroke-linejoin="round" d="M 560.4390869140625 381.64703369140625 C 584.479736328125 396.5372009277344 512.2405395507812 393.4250183105469 401.1914367675781 390.07464599609375 C 473.84869384765625 382.734375 368.0815124511719 392.48199462890625 377.697509765625 376.7447509765625 C 530.8391723632812 376.8593444824219 523.7990112304688 375.35247802734375 508.8080749511719 378.2680358886719 C 433.70355224609375 380.5561218261719 453.9463195800781 378.7771911621094 560.4390869140625 381.64703369140625"/>
    <path stroke-width="0" fill="rgb(233, 238, 238)" opacity="0.71119136" stroke="rgb(30, 163, 36)" stroke-opacity="1.0" stroke-linecap="round" stroke-linejoin="round" d="M 638.1937866210938 413.78778076171875 C 457.87890625 446.17498779296875 158.8420867919922 410.8456726074219 151.75804138183594 426.5126647949219 C 284.979736328125 427.84100341796875 325.48358154296875 427.0655822753906 -32.64372253417969 427.6253967285156 C 199.6605224609375 397.7042236328125 232.8135986328125 426.7729187011719 54.843563079833984 412.9559020996094 C 132.59478759765625 416.5166320800781 306.5250244140625 400.88323974609375 638.1937866210938 413.78778076171875"/>
    <path stroke-width="0" fill="rgb(254, 254, 256)" opacity="0.97736436" stroke="rgb(133, 105, 67)" stroke-opacity="1.0" stroke-linecap="round" stroke-linejoin="round" d="M 576.84716796875 377.5190734863281 C 752.3078002929688 402.2562561035156 595.6703491210938 395.9165954589844 61.15109634399414 397.3751525878906 C 180.1138458251953 389.5390930175781 -87.74646759033203 411.3944091796875 -64.17865753173828 376.7249450683594 C 519.2288208007812 376.67169189453125 497.4014587402344 376.4366760253906 446.2910461425781 376.8521423339844 C 394.66595458984375 378.6800231933594 408.6640930175781 375.2029724121094 576.84716796875 377.5190734863281"/>
    <path stroke-width="0" fill="rgb(253, 247, 252)" opacity="0.9726057" stroke="rgb(116, 144, 4)" stroke-opacity="1.0" stroke-linecap="round" stroke-linejoin="round" d="M 594.8807983398438 427.3528137207031 C -78.53801727294922 427.211669921875 26.031225204467773 427.7393493652344 80.80189514160156 427.7013854980469 C 222.25057983398438 414.74688720703125 -65.58114624023438 446.8505554199219 -82.21073150634766 408.8623046875 C 79.65092468261719 409.8299865722656 250.82583618164062 408.91766357421875 308.8453674316406 409.7763366699219 C 129.82794189453125 423.1348876953125 223.55638122558594 392.72271728515625 594.8807983398438 427.3528137207031"/>
    <path stroke-width="0" fill="rgb(256, 257, 259)" opacity="1.0086286" stroke="rgb(156, 157, 240)" stroke-opacity="1.0" stroke-linecap="round" stroke-linejoin="round" d="M 494.8105773925781 277.6586608886719 C 465.4466552734375 303.87457275390625 622.1770629882812 292.4605712890625 -39.69955062866211 296.6494140625 C -87.51471710205078 265.6543273925781 -95.44659423828125 273.27874755859375 260.05560302734375 272.73944091796875 C 268.64447021484375 279.2933654785156 254.4557342529297 129.92413330078125 278.4347229003906 171.48997497558594 C 318.77862548828125 317.1512145996094 203.7786407470703 252.95120239257812 494.8105773925781 277.6586608886719"/>
    <path stroke-width="0" fill="rgb(256, 250, 251)" opacity="0.96982944" stroke="rgb(91, 111, 177)" stroke-opacity="1.0" stroke-linecap="round" stroke-linejoin="round" d="M 594.5531616210938 410.8450622558594 C 472.948486328125 456.0911865234375 261.7422790527344 378.1937561035156 170.10821533203125 426.5983581542969 C 251.04043579101562 413.06292724609375 241.42544555664062 421.75384521484375 212.11587524414062 415.4799499511719 C 257.9644470214844 420.7732238769531 278.0222473144531 441.77947998046875 148.15643310546875 408.6828918457031 C 180.48733520507812 420.4437255859375 481.2547912597656 403.3997802734375 594.5531616210938 410.8450622558594"/>
    <path stroke-width="0" fill="rgb(257, 256, 257)" opacity="1.0054367" stroke="rgb(170, 171, 53)" stroke-opacity="1.0" stroke-linecap="round" stroke-linejoin="round" d="M 492.7018127441406 165.11216735839844 C 283.8035583496094 214.56895446777344 745.4596557617188 201.39089965820312 15.920879364013672 203.80224609375 C 33.71176528930664 210.6478729248047 -56.17646408081055 216.17620849609375 -49.539710998535156 159.7412109375 C 117.27566528320312 160.3582000732422 190.72552490234375 158.79444885253906 231.61782836914062 160.61846923828125 C 134.4298858642578 163.91165161132812 192.86541748046875 158.10899353027344 492.7018127441406 165.11216735839844"/>
    <path stroke-width="0" fill="rgb(114, 121, 116)" opacity="0.97167045" stroke="rgb(80, 92, 145)" stroke-opacity="1.0" stroke-linecap="round" stroke-linejoin="round" d="M 528.1991577148438 93.6234359741211 C 449.2454833984375 58.73428726196289 517.7471923828125 72.10100555419922 443.8621520996094 65.74868774414062 C 322.3856201171875 74.83949279785156 354.7023620605469 47.36560821533203 360.8955993652344 2.2876970767974854 C 356.93389892578125 -22.19556999206543 361.8376770019531 -30.034143447875977 365.255859375 -24.908470153808594 C 378.47503662109375 59.489898681640625 495.4701843261719 -6.36467981338501 528.1991577148438 93.6234359741211"/>
    <path stroke-width="0" fill="rgb(249, 256, 257)" opacity="0.9979592" stroke="rgb(252, 26, 53)" stroke-opacity="1.0" stroke-linecap="round" stroke-linejoin="round" d="M 450.5606689453125 41.25227355957031 C 401.53240966796875 52.669822692871094 356.7530517578125 70.44053649902344 353.477783203125 73.46239471435547 C 398.4472961425781 124.56513977050781 336.4616394042969 85.11016845703125 312.1312561035156 30.318397521972656 C 325.5863342285156 16.928510665893555 339.84576416015625 13.552166938781738 416.6120910644531 0.3575037121772766 C 413.8183288574219 17.101238250732422 448.12054443359375 4.898090839385986 450.5606689453125 41.25227355957031"/>
    <path stroke-width="0" fill="rgb(0, 1, 0)" opacity="0.9977811" stroke="rgb(166, 64, 118)" stroke-opacity="1.0" stroke-linecap="round" stroke-linejoin="round" d="M 130.42041015625 397.4654235839844 C 235.74891662597656 397.62493896484375 120.8879623413086 397.1090393066406 -79.94422912597656 397.2296447753906 C 12.479048728942871 410.07464599609375 -49.379981994628906 407.7261962890625 76.13906860351562 408.11517333984375 C 110.44047546386719 408.52752685546875 135.26686096191406 408.4367980957031 255.29408264160156 407.4590759277344 C 73.84871673583984 391.482666015625 90.21574401855469 395.6385192871094 130.42041015625 397.4654235839844"/>
    <path stroke-width="0" fill="rgb(112, 94, 113)" opacity="0.95045406" stroke="rgb(40, 28, 167)" stroke-opacity="1.0" stroke-linecap="round" stroke-linejoin="round" d="M 418.0352478027344 -31.612974166870117 C 433.24639892578125 24.47430419921875 454.05517578125 65.58061218261719 441.60174560546875 5.251083850860596 C 386.5438232421875 -19.201128005981445 374.3493347167969 -16.442058563232422 312.05523681640625 -19.66054916381836 C 315.1639404296875 -29.508440017700195 323.5223083496094 -35.45821762084961 394.3455505371094 -33.86525344848633 C 406.1054382324219 -37.010616302490234 415.6422424316406 -32.56230163574219 418.0352478027344 -31.612974166870117"/>
    <path stroke-width="0" fill="rgb(249, 251, 251)" opacity="0.97524226" stroke="rgb(50, 94, 209)" stroke-opacity="1.0" stroke-linecap="round" stroke-linejoin="round" d="M 493.7146301269531 95.21770477294922 C 395.8946838378906 94.98005676269531 363.51275634765625 96.79644775390625 340.0898132324219 93.98863983154297 C 406.9816589355469 98.62901306152344 384.33697509765625 102.63484191894531 201.19142150878906 97.95732116699219 C 399.6424865722656 84.38599395751953 355.3888854980469 100.26734161376953 374.3632507324219 82.84416961669922 C 375.3575744628906 74.03555297851562 516.176513671875 57.900577545166016 493.7146301269531 95.21770477294922"/>
    <path stroke-width="0" fill="rgb(116, 116, 109)" opacity="1.0030617" stroke="rgb(213, 24, 248)" stroke-opacity="1.0" stroke-linecap="round" stroke-linejoin="round" d="M 468.6080017089844 34.059513092041016 C 461.84423828125 55.13455581665039 428.05572509765625 57.6396369934082 331.8743896484375 86.48554992675781 C 281.3934020996094 91.20123291015625 219.0784149169922 78.3727035522461 -86.83943939208984 88.54185485839844 C -40.06278991699219 -346.3504638671875 68.1061782836914 -207.80335998535156 423.0348205566406 -84.76612091064453 C 470.0932922363281 -57.67600631713867 486.5203552246094 -61.85758590698242 468.6080017089844 34.059513092041016"/>
    <path stroke-width="0" fill="rgb(261, 253, 260)" opacity="0.8865511" stroke="rgb(249, 154, 188)" stroke-opacity="1.0" stroke-linecap="round" stroke-linejoin="round" d="M -18.307010650634766 78.93889617919922 C 323.4363098144531 82.05150604248047 248.28298950195312 72.40884399414062 -50.2424430847168 98.44605255126953 C 203.6057586669922 100.96310424804688 171.77886962890625 95.18866729736328 126.91276550292969 102.85914611816406 C 156.0528564453125 97.49639892578125 214.62449645996094 112.39363098144531 362.5842590332031 80.40364837646484 C 24.401948928833008 72.68046569824219 110.08378601074219 113.14431762695312 -18.307010650634766 78.93889617919922"/>
    <path stroke-width="0" fill="rgb(118, 112, 108)" opacity="0.8671317" stroke="rgb(72, 30, 75)" stroke-opacity="1.0" stroke-linecap="round" stroke-linejoin="round" d="M 270.8764343261719 51.80190658569336 C 296.78680419921875 79.39614868164062 376.2945251464844 83.20677185058594 275.02679443359375 67.06002044677734 C 220.30694580078125 77.96668243408203 204.31350708007812 85.43132019042969 200.43667602539062 -3.793017625808716 C 262.51806640625 -37.65595626831055 279.69085693359375 -34.56483840942383 301.7040710449219 -31.45866584777832 C 373.8060302734375 -24.323888778686523 377.03857421875 -13.638051986694336 270.8764343261719 51.80190658569336"/>
    <path stroke-width="0" fill="rgb(244, 242, 253)" opacity="0.95764714" stroke="rgb(81, 105, 16)" stroke-opacity="1.0" stroke-linecap="round" stroke-linejoin="round" d="M 548.0684204101562 74.04696655273438 C 546.9356689453125 103.32501220703125 533.772705078125 109.36691284179688 520.7123413085938 55.848140716552734 C 415.44122314453125 51.37269592285156 451.8376770019531 64.94486999511719 465.856201171875 39.27321243286133 C 368.36712646484375 40.64617156982422 417.2803039550781 -20.356231689453125 383.39404296875 -19.326065063476562 C 412.67816162109375 88.67411804199219 488.4945373535156 -0.46553483605384827 548.0684204101562 74.04696655273438"/>
    <path stroke-width="0" fill="rgb(-3, -2, -2)" opacity="0.89559025" stroke="rgb(144, 67, 133)" stroke-opacity="1.0" stroke-linecap="round" stroke-linejoin="round" d="M 132.54843139648438 407.85406494140625 C 123.26240539550781 399.6587829589844 102.87705993652344 418.87969970703125 -63.384891510009766 397.5504455566406 C 219.1419219970703 397.0758361816406 295.9201354980469 396.2956848144531 266.29095458984375 399.3639831542969 C 144.908447265625 405.6343688964844 169.0086669921875 395.8250732421875 252.41456604003906 407.5227966308594 C 108.23531341552734 408.0829772949219 118.96000671386719 405.7902526855469 132.54843139648438 407.85406494140625"/>
    <path stroke-width="0" fill="rgb(255, 259, 259)" opacity="1.0119371" stroke="rgb(146, 236, 81)" stroke-opacity="1.0" stroke-linecap="round" stroke-linejoin="round" d="M 440.1204833984375 186.38143920898438 C 440.00732421875 223.93798828125 439.85595703125 298.2552490234375 438.0896911621094 286.8133544921875 C 378.08648681640625 313.3226318359375 427.6448059082031 247.0107879638672 417.5196838378906 266.84588623046875 C 426.2862548828125 142.81625366210938 386.7685852050781 253.62034606933594 439.3230895996094 173.38247680664062 C 441.1947937011719 200.5502166748047 441.08551025390625 246.72850036621094 440.1204833984375 186.38143920898438"/>
    <path stroke-width="0" fill="rgb(-2, -1, -3)" opacity="1.0166258" stroke="rgb(33, 182, 73)" stroke-opacity="1.0" stroke-linecap="round" stroke-linejoin="round" d="M 304.7691650390625 397.88134765625 C 249.27972412109375 395.0986633300781 261.1955261230469 397.5722961425781 667.622802734375 396.2435607910156 C 540.4453735351562 418.3323669433594 283.080322265625 401.7631530761719 282.65142822265625 411.5578308105469 C 324.0039978027344 393.1693115234375 325.2051696777344 396.76019287109375 102.0005111694336 396.970458984375 C 279.8710632324219 411.7703857421875 298.78546142578125 411.8555603027344 304.7691650390625 397.88134765625"/>
    <path stroke-width="0" fill="rgb(165, 168, 169)" opacity="0.643226" stroke="rgb(149, 5, 211)" stroke-opacity="1.0" stroke-linecap="round" stroke-linejoin="round" d="M 522.74853515625 303.016357421875 C 495.3764343261719 306.76434326171875 488.3869934082031 292.4974365234375 500.01934814453125 48.962257385253906 C 439.7120361328125 4.498615741729736 469.0611877441406 104.34766387939453 488.0660400390625 -57.297882080078125 C 423.89288330078125 -32.06654739379883 433.3778381347656 -36.32387161254883 469.7552490234375 -42.66332244873047 C 555.4288330078125 -45.57939910888672 543.9959106445312 -55.355979919433594 522.74853515625 303.016357421875"/>
    <path stroke-width="0" fill="rgb(251, 252, 257)" opacity="0.99510163" stroke="rgb(172, 68, 187)" stroke-opacity="1.0" stroke-linecap="round" stroke-linejoin="round" d="M 254.91598510742188 116.7340316772461 C 240.24932861328125 127.950927734375 289.85833740234375 121.90777587890625 263.8782653808594 129.37437438964844 C 291.2862854003906 116.95882415771484 268.8383483886719 135.92115783691406 19.322704315185547 109.89923095703125 C 634.668212890625 110.072998046875 609.9268798828125 109.0997543334961 519.7886962890625 135.93544006347656 C 437.2138366699219 114.16498565673828 225.61434936523438 137.71981811523438 254.91598510742188 116.7340316772461"/>
    <path stroke-width="0" fill="rgb(4, 6, 16)" opacity="1.0391893" stroke="rgb(63, 146, 150)" stroke-opacity="1.0" stroke-linecap="round" stroke-linejoin="round" d="M 383.5427551269531 107.52791595458984 C -4.547157287597656 102.18840789794922 32.409019470214844 98.90022277832031 466.9622802734375 98.34944152832031 C 144.7533721923828 88.81131744384766 -152.7998046875 98.06082153320312 203.6241912841797 94.31999206542969 C 180.4494171142578 94.55944061279297 6.143133163452148 99.95584106445312 -84.24443054199219 83.16734313964844 C 547.133056640625 85.57783508300781 275.396728515625 75.73782348632812 383.5427551269531 107.52791595458984"/>
    <path stroke-width="0" fill="rgb(254, 254, 255)" opacity="1.0143577" stroke="rgb(56, 242, 114)" stroke-opacity="1.0" stroke-linecap="round" stroke-linejoin="round" d="M -14.505526542663574 136.3075714111328 C -132.4616241455078 145.37832641601562 -15.071080207824707 136.09881591796875 707.6139526367188 143.004150390625 C 651.8665161132812 125.79029846191406 385.05865478515625 131.11265563964844 19.11784553527832 131.18157958984375 C -69.3470458984375 134.8909912109375 -152.74049377441406 85.75556945800781 250.86834716796875 125.0765151977539 C -40.05841827392578 127.69087982177734 -92.05259704589844 119.50099182128906 -14.505526542663574 136.3075714111328"/>
    <path stroke-width="0" fill="rgb(34, 30, 32)" opacity="0.94574535" stroke="rgb(178, 75, 207)" stroke-opacity="1.0" stroke-linecap="round" stroke-linejoin="round" d="M 186.8798370361328 323.86138916015625 C 114.0416488647461 311.5904846191406 127.87918090820312 293.93719482421875 247.03369140625 306.43597412109375 C 189.6640167236328 329.3814697265625 109.5144271850586 327.138427734375 37.217376708984375 320.9964904785156 C 158.0337371826172 312.43914794921875 185.71694946289062 321.6011962890625 119.18292999267578 319.3800048828125 C 133.3887939453125 325.30084228515625 148.19482421875 305.9794921875 186.8798370361328 323.86138916015625"/>
    <path stroke-width="0" fill="rgb(250, 258, 264)" opacity="1.0437032" stroke="rgb(224, 148, 224)" stroke-opacity="1.0" stroke-linecap="round" stroke-linejoin="round" d="M 483.0617980957031 309.0194091796875 C 483.6881408691406 252.3245086669922 485.971435546875 274.99749755859375 483.5187683105469 283.5387268066406 C 478.4164123535156 272.7737731933594 490.3556823730469 236.6171112060547 472.6556091308594 184.490478515625 C 479.6128845214844 237.61651611328125 474.0668029785156 220.7432403564453 490.795166015625 205.45916748046875 C 493.0200500488281 254.1359405517578 495.5255432128906 342.2194519042969 483.0617980957031 309.0194091796875"/>
    <path stroke-width="0" fill="rgb(37, 48, 48)" opacity="0.6779591" stroke="rgb(184, 127, 243)" stroke-opacity="1.0" stroke-linecap="round" stroke-linejoin="round" d="M 107.4254379272461 324.94317626953125 C -26.52328872680664 330.4970703125 -39.104312896728516 315.1842041015625 1.3715505599975586 359.0664367675781 C 15.858847618103027 285.25616455078125 -1.5200122594833374 352.0047607421875 -63.385555267333984 323.0531005859375 C 32.84404373168945 310.9603576660156 63.481895446777344 310.3024597167969 81.36625671386719 317.8773193359375 C 25.592849731445312 304.82672119140625 47.10367965698242 290.34765625 107.4254379272461 324.94317626953125"/>
    <path stroke-width="0" fill="rgb(10, 27, 28)" opacity="0.9717388" stroke="rgb(108, 154, 4)" stroke-opacity="1.0" stroke-linecap="round" stroke-linejoin="round" d="M 193.7054443359375 311.4144592285156 C 282.5213317871094 334.7909240722656 181.2649688720703 303.9494323730469 284.2098083496094 328.75006103515625 C 55.227291107177734 325.9000549316406 -19.70149803161621 334.0210266113281 177.457763671875 311.2027282714844 C 185.78121948242188 303.41607666015625 185.9253692626953 301.9269714355469 165.66244506835938 312.8197937011719 C 190.02618408203125 324.0574951171875 193.3968048095703 322.8536071777344 193.7054443359375 311.4144592285156"/>
    <path stroke-width="0" fill="rgb(48, 38, 46)" opacity="0.99341863" stroke="rgb(168, 73, 157)" stroke-opacity="1.0" stroke-linecap="round" stroke-linejoin="round" d="M 288.8271179199219 327.1111145019531 C 165.29904174804688 314.60858154296875 139.33477783203125 324.5873107910156 413.8841857910156 297.10736083984375 C 362.8732604980469 295.6286315917969 116.94188690185547 296.50384521484375 -100.67990112304688 295.8609619140625 C 166.6282501220703 361.9255065917969 219.05874633789062 276.78326416015625 181.53834533691406 319.8068542480469 C 182.89572143554688 322.2476806640625 217.74644470214844 299.19024658203125 288.8271179199219 327.1111145019531"/>
    <path stroke-width="0" fill="rgb(27, 26, 28)" opacity="0.75955164" stroke="rgb(34, 76, 145)" stroke-opacity="1.0" stroke-linecap="round" stroke-linejoin="round" d="M 224.02545166015625 319.1697082519531 C 172.19142150878906 302.77203369140625 160.82928466796875 289.8114318847656 113.92220306396484 324.39044189453125 C 142.8965301513672 327.2682189941406 139.1356964111328 296.2546691894531 197.92864990234375 322.9108581542969 C 210.70388793945312 322.13568115234375 221.68209838867188 324.86614990234375 196.09193420410156 315.7880859375 C 171.0430145263672 323.4460754394531 179.7161865234375 326.5829162597656 224.02545166015625 319.1697082519531"/>
    <path stroke-width="0" fill="rgb(1, 5, 15)" opacity="0.9640902" stroke="rgb(146, 166, 166)" stroke-opacity="1.0" stroke-linecap="round" stroke-linejoin="round" d="M 466.8535461425781 319.2073059082031 C 388.2874755859375 298.7359924316406 296.28656005859375 321.6936950683594 179.95689392089844 322.31378173828125 C 346.39324951171875 330.3060302734375 334.9103698730469 322.8391418457031 310.0909118652344 336.9671325683594 C 305.4291076660156 329.1148376464844 294.73065185546875 311.70947265625 313.6122131347656 340.88983154296875 C 316.48248291015625 338.16265869140625 310.2705993652344 319.0354309082031 466.8535461425781 319.2073059082031"/>
    <path stroke-width="0" fill="rgb(193, 200, 205)" opacity="0.8918445" stroke="rgb(228, 93, 111)" stroke-opacity="1.0" stroke-linecap="round" stroke-linejoin="round" d="M 343.1659851074219 357.00799560546875 C 401.3668212890625 359.8556823730469 292.8468933105469 365.2446594238281 304.8609619140625 355.7799987792969 C 331.23529052734375 346.6499938964844 265.8396911621094 344.0963439941406 274.6418762207031 358.0656433105469 C 263.6654357910156 312.9231872558594 280.0924072265625 330.0797119140625 290.5797119140625 328.00213623046875 C 349.3312683105469 330.1247253417969 315.77166748046875 315.97705078125 343.1659851074219 357.00799560546875"/>
    <path stroke-width="0" fill="rgb(20, 25, 24)" opacity="0.9955995" stroke="rgb(205, 179, 25)" stroke-opacity="1.0" stroke-linecap="round" stroke-linejoin="round" d="M 463.2901916503906 326.3640441894531 C 615.7080078125 327.5141906738281 546.7160034179688 319.26068115234375 501.2618103027344 320.69879150390625 C 421.1991882324219 349.5765075683594 409.55230712890625 287.2261962890625 432.7953186035156 311.5043640136719 C 513.6173706054688 306.4433288574219 505.94097900390625 283.42138671875 532.2127685546875 291.96600341796875 C 462.7199401855469 293.69146728515625 538.2633666992188 319.7318420410156 463.2901916503906 326.3640441894531"/>
    <path stroke-width="0" fill="rgb(70, 83, 91)" opacity="1.0175292" stroke="rgb(182, 254, 38)" stroke-opacity="1.0" stroke-linecap="round" stroke-linejoin="round" d="M 480.327880859375 174.7537078857422 C 496.88433837890625 212.4702606201172 452.976806640625 205.5979766845703 525.3477783203125 211.01983642578125 C 486.1250915527344 218.24168395996094 513.7586059570312 203.51876831054688 487.54302978515625 207.48446655273438 C 499.6573486328125 209.07435607910156 516.7086181640625 207.73606872558594 439.91021728515625 208.64622497558594 C 458.8865661621094 302.1979064941406 487.38525390625 303.9859619140625 480.327880859375 174.7537078857422"/>
    <path stroke-width="0" fill="rgb(7, -1, 1)" opacity="0.62425256" stroke="rgb(41, 156, 31)" stroke-opacity="1.0" stroke-linecap="round" stroke-linejoin="round" d="M 11.618085861206055 269.2067565917969 C 30.36615753173828 177.63650512695312 -59.644832611083984 209.5194091796875 266.4825134277344 203.7555694580078 C 185.70709228515625 227.93048095703125 18.926984786987305 172.49183654785156 48.77696990966797 274.02777099609375 C 52.50640869140625 231.99981689453125 31.07469367980957 226.3399658203125 106.10906219482422 209.1564483642578 C -20.638349533081055 214.23646545410156 48.799407958984375 188.8105926513672 11.618085861206055 269.2067565917969"/>
    <path stroke-width="0" fill="rgb(26, 31, 35)" opacity="0.6600326" stroke="rgb(205, 145, 103)" stroke-opacity="1.0" stroke-linecap="round" stroke-linejoin="round" d="M 325.43023681640625 317.7882385253906 C 430.5596008300781 305.6739501953125 369.75311279296875 331.6618347167969 351.4252014160156 327.4779357910156 C 303.26959228515625 328.1367492675781 231.80831909179688 331.4730224609375 131.88177490234375 310.8284912109375 C -70.43659973144531 293.59808349609375 88.11320495605469 299.2341003417969 488.9424133300781 296.64178466796875 C 334.271240234375 321.594482421875 308.61962890625 280.57196044921875 325.43023681640625 317.7882385253906"/>
    <path stroke-width="0" fill="rgb(-1, -5, -3)" opacity="0.7921534" stroke="rgb(177, 115, 184)" stroke-opacity="1.0" stroke-linecap="round" stroke-linejoin="round" d="M 427.6300964355469 351.5482482910156 C 626.191650390625 354.4900207519531 665.2394409179688 357.66265869140625 547.1878662109375 377.14715576171875 C 96.72118377685547 374.8709411621094 -16.746858596801758 385.06024169921875 347.0396728515625 350.26373291015625 C 423.75640869140625 360.5072326660156 371.5422058105469 336.2110900878906 379.052734375 349.8118896484375 C 312.5242919921875 330.81781005859375 517.6402587890625 328.3991394042969 427.6300964355469 351.5482482910156"/>
    <path stroke-width="0" fill="rgb(54, 42, 47)" opacity="1.036965" stroke="rgb(248, 218, 2)" stroke-opacity="1.0" stroke-linecap="round" stroke-linejoin="round" d="M -51.98609924316406 505.83624267578125 C 476.19219970703125 510.48333740234375 498.93365478515625 498.001708984375 52.38662338256836 499.8404846191406 C 61.91947937011719 450.717529296875 57.41877365112305 477.6026306152344 -30.78999137878418 469.7763977050781 C 65.11121368408203 465.7148742675781 66.1152114868164 471.4850158691406 55.74962615966797 467.5240173339844 C 49.1040153503418 521.221435546875 81.8542709350586 486.8502197265625 -51.98609924316406 505.83624267578125"/>
    <path stroke-width="0" fill="rgb(35, 37, 32)" opacity="1.0047599" stroke="rgb(186, 43, 132)" stroke-opacity="1.0" stroke-linecap="round" stroke-linejoin="round" d="M 327.0901184082031 370.95452880859375 C 309.9693298339844 321.24822998046875 321.92327880859375 368.0751953125 13.849405288696289 358.41510009765625 C 401.9944763183594 358.1854553222656 389.4750061035156 354.35003662109375 194.915771484375 358.0946350097656 C 336.0511779785156 344.3946838378906 205.66648864746094 359.487548828125 -207.9852752685547 346.17974853515625 C -49.33167266845703 377.6340026855469 -28.941131591796875 359.1839904785156 327.0901184082031 370.95452880859375"/>
    <path stroke-width="0" fill="rgb(0, 12, 4)" opacity="0.7353162" stroke="rgb(50, 4, 202)" stroke-opacity="1.0" stroke-linecap="round" stroke-linejoin="round" d="M 460.0192565917969 205.24061584472656 C 484.4533386230469 335.6208190917969 460.3705749511719 203.25657653808594 458.9951171875 207.61973571777344 C 457.33721923828125 202.57777404785156 453.49676513671875 259.7607421875 460.5774841308594 222.947021484375 C 443.1690979003906 318.97161865234375 475.8056335449219 259.4562072753906 486.1435241699219 246.39755249023438 C 448.93231201171875 299.4161071777344 466.5553283691406 278.54754638671875 460.0192565917969 205.24061584472656"/>
    <path stroke-width="0" fill="rgb(9, -8, 0)" opacity="0.95932424" stroke="rgb(88, 236, 179)" stroke-opacity="1.0" stroke-linecap="round" stroke-linejoin="round" d="M 492.5955505371094 142.2118377685547 C 490.48724365234375 150.57904052734375 491.561767578125 304.4561462402344 490.8271179199219 319.9627380371094 C 478.587158203125 228.81893920898438 476.6689758300781 243.8083953857422 493.295654296875 321.72918701171875 C 505.68988037109375 194.06898498535156 476.7860412597656 200.93272399902344 533.7498168945312 203.225830078125 C 471.7837219238281 192.79891967773438 512.5292358398438 253.43896484375 492.5955505371094 142.2118377685547"/>
    <path stroke-width="0" fill="rgb(256, 253, 258)" opacity="1.0220447" stroke="rgb(41, 158, 147)" stroke-opacity="1.0" stroke-linecap="round" stroke-linejoin="round" d="M 318.88916015625 307.1287536621094 C 252.4899444580078 320.816162109375 212.44573974609375 315.6847229003906 161.6576690673828 322.82647705078125 C 238.28759765625 313.93646240234375 199.7729034423828 320.6080322265625 85.94520568847656 312.8094787597656 C 206.72433471679688 286.67724609375 267.8413391113281 313.8323974609375 273.8888244628906 299.887939453125 C 262.46875 315.31805419921875 275.41632080078125 294.76739501953125 318.88916015625 307.1287536621094"/>
    <path stroke-width="0" fill="rgb(257, 257, 256)" opacity="0.8767367" stroke="rgb(238, 156, 136)" stroke-opacity="1.0" stroke-linecap="round" stroke-linejoin="round" d="M 423.120849609375 273.9018859863281 C 440.1410217285156 263.13812255859375 432.81719970703125 277.4568176269531 432.65185546875 231.59840393066406 C 435.6810607910156 221.9825439453125 429.29937744140625 212.200439453125 434.83355712890625 274.3381652832031 C 434.6642150878906 274.1775207519531 439.2123718261719 263.18719482421875 423.8163146972656 271.9091796875 C 428.9389343261719 291.4821472167969 418.3080749511719 260.05859375 423.120849609375 273.9018859863281"/>
    <path stroke-width="0" fill="rgb(33, 21, 44)" opacity="0.998567" stroke="rgb(186, 79, 101)" stroke-opacity="1.0" stroke-linecap="round" stroke-linejoin="round" d="M 425.6429443359375 472.5246887207031 C 296.7194519042969 468.86810302734375 317.5116271972656 467.3788757324219 322.9795837402344 469.3193359375 C 314.7862243652344 468.4447326660156 279.8927917480469 467.57574462890625 607.4961547851562 469.4063720703125 C 388.88385009765625 479.7099304199219 352.71478271484375 463.2577819824219 201.4224395751953 469.99114990234375 C 146.365478515625 472.41839599609375 208.2346649169922 472.41461181640625 425.6429443359375 472.5246887207031"/>
    <path stroke-width="0" fill="rgb(-2, -2, -3)" opacity="0.53807575" stroke="rgb(47, 240, 188)" stroke-opacity="1.0" stroke-linecap="round" stroke-linejoin="round" d="M 273.7701416015625 356.2156982421875 C 294.40167236328125 331.9194030761719 298.1593322753906 368.7778625488281 502.6806945800781 352.9430236816406 C 366.937744140625 349.89373779296875 347.08758544921875 353.4604797363281 341.9244384765625 354.56884765625 C 305.0205383300781 346.630126953125 335.594970703125 358.1876525878906 330.8961181640625 321.8343505859375 C 411.4704895019531 290.0861511230469 410.5502014160156 371.7510986328125 273.7701416015625 356.2156982421875"/>
    <path stroke-width="0" fill="rgb(-6, -1, 0)" opacity="0.76012343" stroke="rgb(57, 64, 14)" stroke-opacity="1.0" stroke-linecap="round" stroke-linejoin="round" d="M 482.8665771484375 172.74745178222656 C 470.0308532714844 236.21360778808594 485.7500915527344 440.12445068359375 484.0224304199219 189.41043090820312 C 419.0130920410156 199.85684204101562 459.4928894042969 144.32777404785156 439.39642333984375 350.16448974609375 C 439.32196044921875 149.7439422607422 438.8887023925781 181.41954040527344 443.9791564941406 183.80633544921875 C 435.3775939941406 166.0346221923828 487.4123840332031 178.8592987060547 482.8665771484375 172.74745178222656"/>
    <path stroke-width="0" fill="rgb(111, 120, 114)" opacity="0.98999643" stroke="rgb(79, 177, 96)" stroke-opacity="1.0" stroke-linecap="round" stroke-linejoin="round" d="M 632.4261474609375 76.39852905273438 C 544.8383178710938 158.75448608398438 542.7714233398438 174.1903839111328 503.15380859375 188.7548828125 C 494.6434020996094 165.77650451660156 494.7410888671875 57.296173095703125 498.9718322753906 52.865867614746094 C 519.5326538085938 111.73749542236328 507.207763671875 84.518310546875 495.9555358886719 47.79468536376953 C 404.64764404296875 9.561230659484863 442.7022399902344 -98.17008972167969 632.4261474609375 76.39852905273438"/>
    <path stroke-width="0" fill="rgb(261, 258, 261)" opacity="0.9997886" stroke="rgb(6, 17, 173)" stroke-opacity="1.0" stroke-linecap="round" stroke-linejoin="round" d="M 489.39532470703125 301.5876159667969 C 510.61383056640625 319.3404235839844 468.8545227050781 308.3383483886719 488.4026794433594 310.2022399902344 C 285.2139587402344 309.7004089355469 179.47955322265625 312.63397216796875 154.09805297851562 300.7304382324219 C 300.202880859375 300.1829528808594 370.49969482421875 300.7396545410156 431.43109130859375 301.1659240722656 C 337.3064880371094 300.9241943359375 310.3744812011719 299.4668884277344 489.39532470703125 301.5876159667969"/>
    <path stroke-width="0" fill="rgb(35, 20, 42)" opacity="0.93486494" stroke="rgb(136, 228, 252)" stroke-opacity="1.0" stroke-linecap="round" stroke-linejoin="round" d="M -66.84112548828125 469.8023986816406 C 32.387882232666016 465.7049255371094 80.7070083618164 470.2582702636719 23.661136627197266 467.5343017578125 C 85.50416564941406 468.3133239746094 156.8035125732422 467.9881896972656 343.0062255859375 468.435302734375 C 381.411865234375 474.3637390136719 205.78892517089844 472.2729797363281 19.037221908569336 472.31494140625 C 53.20446014404297 471.1020812988281 36.78581619262695 475.75665283203125 -66.84112548828125 469.8023986816406"/>
    <path stroke-width="0" fill="rgb(38, 37, 39)" opacity="0.88369596" stroke="rgb(169, 67, 5)" stroke-opacity="1.0" stroke-linecap="round" stroke-linejoin="round" d="M 120.22833251953125 317.75408935546875 C 113.16525268554688 338.14068603515625 53.98237609863281 310.4119567871094 26.452327728271484 315.8934326171875 C 116.87983703613281 312.4689636230469 126.45346069335938 315.20330810546875 121.42863464355469 316.07513427734375 C 93.57733917236328 320.0089416503906 103.05296325683594 326.0067138671875 134.68621826171875 322.26190185546875 C 47.08910369873047 323.10552978515625 45.83845138549805 302.13330078125 120.22833251953125 317.75408935546875"/>
    <path stroke-width="0" fill="rgb(257, 254, 259)" opacity="1.0216427" stroke="rgb(81, 97, 150)" stroke-opacity="1.0" stroke-linecap="round" stroke-linejoin="round" d="M 135.8126678466797 324.64312744140625 C 118.8421630859375 308.3135070800781 105.38270568847656 313.69622802734375 112.4985580444336 326.45196533203125 C 141.7711944580078 297.9057312011719 60.267147064208984 338.25799560546875 -55.766178131103516 300.4413146972656 C 208.11085510253906 300.56768798828125 249.91690063476562 299.7959899902344 187.81271362304688 301.8871765136719 C 88.66813659667969 322.0414733886719 118.0896224975586 310.9656982421875 135.8126678466797 324.64312744140625"/>
    <path stroke-width="0" fill="rgb(30, 23, 32)" opacity="0.9841792" stroke="rgb(160, 222, 69)" stroke-opacity="1.0" stroke-linecap="round" stroke-linejoin="round" d="M 486.85296630859375 442.1749572753906 C 350.7313537597656 439.2879638671875 413.2857360839844 431.2662658691406 -153.38844299316406 437.63397216796875 C 653.4872436523438 454.7488098144531 500.10968017578125 416.2832946777344 500.87957763671875 433.0496520996094 C 278.7743225097656 450.102783203125 549.2654418945312 438.3518371582031 248.27032470703125 435.7979736328125 C 504.1606750488281 435.8609313964844 625.8421020507812 434.38262939453125 486.85296630859375 442.1749572753906"/>
    <path stroke-width="0" fill="rgb(20, 24, 30)" opacity="0.9980349" stroke="rgb(241, 186, 64)" stroke-opacity="1.0" stroke-linecap="round" stroke-linejoin="round" d="M 373.8372497558594 310.5964050292969 C 5.513877868652344 341.3793029785156 -169.2964324951172 324.2507629394531 16.553852081298828 317.4493103027344 C 105.3213882446289 319.1405029296875 29.612464904785156 315.4964904785156 -73.09542083740234 321.0126647949219 C -1.3048661947250366 317.52337646484375 34.21998977661133 338.5412292480469 -46.343875885009766 308.8419494628906 C -130.97129821777344 310.7142639160156 123.16048431396484 309.6404724121094 373.8372497558594 310.5964050292969"/>
    <path stroke-width="0" fill="rgb(255, 258, 268)" opacity="0.86607736" stroke="rgb(95, 118, 70)" stroke-opacity="1.0" stroke-linecap="round" stroke-linejoin="round" d="M 544.0394287109375 200.28211975097656 C 477.3898010253906 165.8119354248047 507.63671875 195.41014099121094 497.66351318359375 208.72744750976562 C 488.8401184082031 207.85740661621094 489.63311767578125 195.03271484375 489.9486389160156 311.7921447753906 C 478.65460205078125 315.7082214355469 485.955322265625 184.5755615234375 483.80841064453125 159.44879150390625 C 499.3370361328125 216.13819885253906 467.6238098144531 213.8855438232422 544.0394287109375 200.28211975097656"/>
    <path stroke-width="0" fill="rgb(49, 47, 56)" opacity="0.9095737" stroke="rgb(182, 100, 144)" stroke-opacity="1.0" stroke-linecap="round" stroke-linejoin="round" d="M -17.49186134338379 489.1849060058594 C -5.977394104003906 498.39141845703125 8.566134452819824 474.3080749511719 11.198375701904297 502.94586181640625 C 11.145813941955566 482.3726806640625 70.47527313232422 484.0235900878906 40.441532135009766 506.7732238769531 C 77.20208740234375 491.9166564941406 48.08522415161133 484.18634033203125 -1.9646635055541992 494.10797119140625 C -17.093894958496094 497.2995910644531 14.672460556030273 488.5734558105469 -17.49186134338379 489.1849060058594"/>
    <path stroke-width="0" fill="rgb(43, 43, 50)" opacity="0.82110256" stroke="rgb(36, 124, 90)" stroke-opacity="1.0" stroke-linecap="round" stroke-linejoin="round" d="M 347.3597106933594 487.375244140625 C 345.1981201171875 512.6627197265625 328.6478576660156 510.0352478027344 463.1286315917969 501.8587646484375 C 385.5934143066406 502.1313171386719 360.0172424316406 497.7286376953125 308.35302734375 502.142578125 C 306.4373474121094 471.3229064941406 324.076416015625 502.3545837402344 312.0259094238281 502.47265625 C 355.15582275390625 513.7509765625 363.97052001953125 494.7515869140625 347.3597106933594 487.375244140625"/>
    <path stroke-width="0" fill="rgb(204, 191, 202)" opacity="0.669709" stroke="rgb(140, 149, 245)" stroke-opacity="1.0" stroke-linecap="round" stroke-linejoin="round" d="M 83.80162048339844 385.8702087402344 C 62.2873420715332 375.9460144042969 33.080562591552734 362.16552734375 85.31768035888672 369.458740234375 C 124.75182342529297 360.202880859375 109.1194076538086 372.5916442871094 111.28667449951172 373.5224304199219 C 29.455326080322266 374.7228088378906 57.71968078613281 369.19970703125 87.13436126708984 388.36749267578125 C 81.57125091552734 382.88861083984375 87.2254638671875 394.04156494140625 83.80162048339844 385.8702087402344"/>
    <path stroke-width="0" fill="rgb(247, 251, 259)" opacity="0.9220446" stroke="rgb(61, 25, 4)" stroke-opacity="1.0" stroke-linecap="round" stroke-linejoin="round" d="M 425.3034973144531 334.3442077636719 C 378.0108337402344 332.6796875 387.29888916015625 343.66668701171875 381.4687194824219 324.92303466796875 C 418.095947265625 321.681640625 414.9285583496094 322.83203125 389.5691833496094 323.6710510253906 C 371.46160888671875 321.76611328125 405.9691467285156 325.3836669921875 408.1670227050781 322.1445617675781 C 393.79559326171875 326.51300048828125 459.4389343261719 317.6835021972656 425.3034973144531 334.3442077636719"/>
    <path stroke-width="0" fill="rgb(70, 67, 65)" opacity="0.66812587" stroke="rgb(170, 200, 71)" stroke-opacity="1.0" stroke-linecap="round" stroke-linejoin="round" d="M 363.16851806640625 555.9332885742188 C 348.9744873046875 522.2594604492188 334.79302978515625 494.165771484375 354.6045227050781 504.4358825683594 C 435.7437438964844 505.1310119628906 347.2730407714844 504.8543395996094 318.9830627441406 505.55975341796875 C 360.7744140625 512.2329711914062 347.4831848144531 474.2377014160156 347.5268859863281 494.33599853515625 C 336.0495910644531 513.1236572265625 359.8448181152344 532.5415649414062 363.16851806640625 555.9332885742188"/>
    <path stroke-width="0" fill="rgb(37, 37, 31)" opacity="0.9062567" stroke="rgb(16, 123, 249)" stroke-opacity="1.0" stroke-linecap="round" stroke-linejoin="round" d="M 352.7322692871094 448.98895263671875 C 370.8844299316406 447.7607727050781 328.10162353515625 432.31634521484375 392.74786376953125 447.0591735839844 C 346.83074951171875 438.1139831542969 366.8623962402344 429.613037109375 359.890380859375 448.23651123046875 C 395.1463928222656 444.5492858886719 387.4005126953125 455.6884765625 352.0564270019531 451.4095458984375 C 314.415771484375 449.8580322265625 317.76873779296875 450.099853515625 352.7322692871094 448.98895263671875"/>
    <path stroke-width="0" fill="rgb(9, 0, 5)" opacity="0.97274685" stroke="rgb(240, 203, 160)" stroke-opacity="1.0" stroke-linecap="round" stroke-linejoin="round" d="M -16.577394485473633 370.81793212890625 C 35.69036865234375 348.5053405761719 30.297121047973633 355.0992431640625 -0.8418092727661133 361.9538879394531 C 87.12106323242188 357.1473083496094 72.32803344726562 368.9900207519531 87.50779724121094 348.9678649902344 C 58.083885192871094 385.2222595214844 77.25740051269531 342.46258544921875 -26.226606369018555 376.2365417480469 C 140.14028930664062 379.30780029296875 375.7587890625 369.7781982421875 -16.577394485473633 370.81793212890625"/>
    <path stroke-width="0" fill="rgb(178, 155, 182)" opacity="0.79599154" stroke="rgb(74, 216, 157)" stroke-opacity="1.0" stroke-linecap="round" stroke-linejoin="round" d="M 593.88671875 370.6297607421875 C 354.9434509277344 364.0257568359375 297.155517578125 369.6310119628906 286.80859375 368.19439697265625 C 338.67962646484375 370.96881103515625 330.7057189941406 370.3632507324219 338.6172790527344 369.11370849609375 C 322.8453063964844 364.33251953125 329.86407470703125 375.9652099609375 337.3048095703125 368.5682373046875 C 277.8208923339844 368.7572021484375 262.3389587402344 372.3966979980469 593.88671875 370.6297607421875"/>
    <path stroke-width="0" fill="rgb(45, 49, 61)" opacity="0.8113027" stroke="rgb(88, 37, 250)" stroke-opacity="1.0" stroke-linecap="round" stroke-linejoin="round" d="M 349.3354797363281 505.029296875 C 338.2701416015625 477.6978759765625 357.6878967285156 482.76397705078125 350.6934814453125 536.3240966796875 C 389.36578369140625 540.0335693359375 370.56158447265625 494.57958984375 389.19122314453125 503.07318115234375 C 392.5492858886719 494.82208251953125 386.60064697265625 459.8398742675781 375.8769226074219 545.088134765625 C 342.68780517578125 504.71044921875 354.2835388183594 499.0814208984375 349.3354797363281 505.029296875"/>
    <path stroke-width="0" fill="rgb(29, 29, 43)" opacity="0.98851997" stroke="rgb(209, 48, 130)" stroke-opacity="1.0" stroke-linecap="round" stroke-linejoin="round" d="M 67.16175079345703 448.0809631347656 C 87.11519622802734 453.16107177734375 19.79287338256836 442.0865478515625 -53.76118087768555 450.99041748046875 C 102.41717529296875 452.5792541503906 108.13729858398438 450.4887390136719 100.56877899169922 451.3503723144531 C 83.06861114501953 450.1103515625 87.51298522949219 447.2362060546875 68.04647064208984 453.0894775390625 C 66.7518081665039 415.16436767578125 78.34296417236328 459.8464660644531 67.16175079345703 448.0809631347656"/>
    <path stroke-width="0" fill="rgb(34, 20, 24)" opacity="0.9178102" stroke="rgb(185, 2, 196)" stroke-opacity="1.0" stroke-linecap="round" stroke-linejoin="round" d="M 105.37976837158203 451.9698791503906 C 90.59628295898438 442.9776611328125 105.9127197265625 432.7849426269531 129.9913787841797 440.1513977050781 C 138.82955932617188 458.8016357421875 122.9466552734375 446.2218322753906 -11.1229887008667 452.5391845703125 C 128.97207641601562 449.2286376953125 137.02825927734375 457.0787353515625 135.9817352294922 443.56829833984375 C 136.05809020996094 434.8896789550781 95.02974700927734 427.7873840332031 105.37976837158203 451.9698791503906"/>
    <path stroke-width="0" fill="rgb(34, 37, 26)" opacity="1.0147817" stroke="rgb(20, 22, 171)" stroke-opacity="1.0" stroke-linecap="round" stroke-linejoin="round" d="M 461.85498046875 493.5668640136719 C 443.1017761230469 491.36175537109375 474.2668151855469 523.9901733398438 501.5094909667969 494.5935363769531 C 579.3165283203125 486.4322204589844 574.1927490234375 489.791748046875 141.2355194091797 488.79547119140625 C 329.0340576171875 497.8619384765625 621.4077758789062 482.01702880859375 451.90350341796875 503.1836853027344 C 468.0282897949219 487.8113708496094 456.3671875 504.3401184082031 461.85498046875 493.5668640136719"/>
    <path stroke-width="0" fill="rgb(-5, 5, 1)" opacity="0.7771992" stroke="rgb(107, 142, 219)" stroke-opacity="1.0" stroke-linecap="round" stroke-linejoin="round" d="M 349.235595703125 431.09295654296875 C 282.67364501953125 432.0059814453125 343.5216064453125 430.4050598144531 315.4576721191406 437.9353332519531 C 395.50054931640625 439.2393493652344 341.08721923828125 444.5297546386719 313.1073913574219 440.7408752441406 C 347.6813659667969 424.4451904296875 313.3084716796875 437.75537109375 -24.5247802734375 426.57861328125 C 745.8462524414062 423.7521057128906 718.9014282226562 431.7967834472656 349.235595703125 431.09295654296875"/>
    <path stroke-width="0" fill="rgb(28, 40, 42)" opacity="1.0016183" stroke="rgb(68, 33, 14)" stroke-opacity="1.0" stroke-linecap="round" stroke-linejoin="round" d="M 167.07553100585938 438.12286376953125 C 150.19625854492188 455.23541259765625 221.56838989257812 443.6581726074219 -57.05732345581055 450.60064697265625 C 377.83642578125 454.587646484375 428.96710205078125 445.8999328613281 175.5973663330078 448.2906188964844 C 161.4458465576172 446.44549560546875 170.88461303710938 457.2655334472656 167.5797119140625 437.0335693359375 C 168.85400390625 431.0726013183594 171.60169982910156 451.04888916015625 167.07553100585938 438.12286376953125"/>
    <path stroke-width="0" fill="rgb(179, 170, 185)" opacity="0.7564402" stroke="rgb(66, 116, 174)" stroke-opacity="1.0" stroke-linecap="round" stroke-linejoin="round" d="M 241.24961853027344 368.49383544921875 C 206.89979553222656 364.7873229980469 193.78514099121094 362.095458984375 237.33665466308594 374.2738037109375 C 198.79110717773438 362.88897705078125 191.5254364013672 354.4453125 153.24887084960938 334.8129577636719 C 189.54212951660156 350.5151062011719 196.68382263183594 365.5296325683594 235.49713134765625 369.5406188964844 C 59.52519226074219 376.0974426269531 89.26380157470703 363.5455017089844 241.24961853027344 368.49383544921875"/>
    <path stroke-width="0" fill="rgb(25, 22, 21)" opacity="0.8788789" stroke="rgb(14, 177, 198)" stroke-opacity="1.0" stroke-linecap="round" stroke-linejoin="round" d="M 356.9216613769531 357.5469055175781 C 383.9505920410156 361.96630859375 373.0460510253906 360.1129455566406 398.872802734375 360.2861328125 C 420.3149108886719 349.5823974609375 414.1011657714844 345.4704895019531 413.4814147949219 343.0523986816406 C 427.27642822265625 366.1057434082031 416.3587951660156 333.3354187011719 410.73095703125 354.1241455078125 C 429.0660400390625 372.8234558105469 378.1464538574219 355.88922119140625 356.9216613769531 357.5469055175781"/>
    <path stroke-width="0" fill="rgb(51, 49, 53)" opacity="0.8576984" stroke="rgb(66, 95, 149)" stroke-opacity="1.0" stroke-linecap="round" stroke-linejoin="round" d="M 432.3741760253906 519.097412109375 C 411.3396301269531 490.0999755859375 447.905517578125 496.1703186035156 437.22430419921875 498.4342956542969 C 439.3641662597656 499.914306640625 405.0623474121094 499.3251037597656 337.0892028808594 502.43499755859375 C 405.14324951171875 506.7624816894531 441.3459777832031 511.7937316894531 450.0888671875 502.6134338378906 C 396.5562438964844 471.9599914550781 429.90972900390625 510.6894836425781 432.3741760253906 519.097412109375"/>
    <path stroke-width="0" fill="rgb(46, 34, 40)" opacity="0.76878303" stroke="rgb(203, 19, 132)" stroke-opacity="1.0" stroke-linecap="round" stroke-linejoin="round" d="M 574.386474609375 512.1610107421875 C 539.0698852539062 500.39898681640625 248.04977416992188 514.4807739257812 193.62796020507812 500.1756896972656 C 448.5325622558594 498.1297912597656 495.8611755371094 504.8231506347656 504.4940185546875 490.3837890625 C 530.410400390625 494.3213806152344 580.05908203125 489.7216796875 412.78436279296875 489.38037109375 C 505.25323486328125 485.91827392578125 468.2006530761719 495.7375183105469 574.386474609375 512.1610107421875"/>
    <path stroke-width="0" fill="rgb(54, 55, 56)" opacity="1.001638" stroke="rgb(109, 130, 136)" stroke-opacity="1.0" stroke-linecap="round" stroke-linejoin="round" d="M 131.1698455810547 504.0826110839844 C 134.07366943359375 475.1800231933594 128.47671508789062 497.48388671875 126.18856048583984 488.67645263671875 C 125.19261932373047 525.107666015625 126.4158935546875 495.1677551269531 126.28496551513672 504.7740173339844 C 124.2686538696289 505.0568542480469 145.88467407226562 508.40631103515625 116.6790771484375 505.8614807128906 C 118.354736328125 498.81024169921875 123.84683990478516 510.9346618652344 131.1698455810547 504.0826110839844"/>
    <path stroke-width="0" fill="rgb(246, 247, 246)" opacity="0.87791795" stroke="rgb(70, 32, 100)" stroke-opacity="1.0" stroke-linecap="round" stroke-linejoin="round" d="M 403.5326232910156 86.83125305175781 C 420.1689453125 77.94731140136719 435.33428955078125 86.75381469726562 405.480224609375 93.25935363769531 C 410.4483642578125 92.6116714477539 437.2159118652344 81.49193572998047 420.5357666015625 91.17129516601562 C 426.8802490234375 91.86023712158203 424.5325012207031 74.75296783447266 403.3391418457031 87.32000732421875 C 388.44122314453125 94.6279067993164 395.21563720703125 92.28083038330078 403.5326232910156 86.83125305175781"/>
    <path stroke-width="0" fill="rgb(34, 27, 37)" opacity="0.94493437" stroke="rgb(47, 230, 138)" stroke-opacity="1.0" stroke-linecap="round" stroke-linejoin="round" d="M 229.33770751953125 452.1099853515625 C 225.74459838867188 435.0960693359375 236.42294311523438 441.2550964355469 231.2720489501953 451.01885986328125 C 431.6810302734375 454.5549621582031 401.59588623046875 444.74005126953125 260.4444274902344 449.5791320800781 C 257.57855224609375 423.67694091796875 278.90924072265625 459.86480712890625 242.66961669921875 449.4178466796875 C 250.0172882080078 451.050537109375 224.2827911376953 446.4835510253906 229.33770751953125 452.1099853515625"/>
    <path stroke-width="0" fill="rgb(208, 184, 204)" opacity="0.75362587" stroke="rgb(230, 175, 178)" stroke-opacity="1.0" stroke-linecap="round" stroke-linejoin="round" d="M 176.15037536621094 367.77569580078125 C 179.26629638671875 377.2649230957031 233.36549377441406 361.9591369628906 259.28692626953125 363.7111511230469 C 228.61656188964844 364.9216613769531 228.19363403320312 359.90545654296875 240.7333526611328 370.5674133300781 C 229.8057403564453 372.4005432128906 224.5853271484375 370.3830261230469 417.5191955566406 371.9329833984375 C 116.09685516357422 356.5180358886719 315.342041015625 381.3490905761719 176.15037536621094 367.77569580078125"/>
    <path stroke-width="0" fill="rgb(208, 213, 214)" opacity="0.47256243" stroke="rgb(192, 162, 61)" stroke-opacity="1.0" stroke-linecap="round" stroke-linejoin="round" d="M 454.8191833496094 289.9317626953125 C 463.4359436035156 291.81243896484375 439.6377258300781 294.4417419433594 447.8116455078125 256.2698669433594 C 442.88848876953125 281.2311706542969 449.4844970703125 288.8467102050781 457.9865417480469 291.6678466796875 C 462.9270935058594 298.7672119140625 470.1601867675781 295.6526184082031 452.6466369628906 329.3423767089844 C 467.2583312988281 298.39581298828125 467.1822204589844 297.4896240234375 454.8191833496094 289.9317626953125"/>
    <path stroke-width="0" fill="rgb(131, 134, 141)" opacity="0.78297436" stroke="rgb(209, 231, 207)" stroke-opacity="1.0" stroke-linecap="round" stroke-linejoin="round" d="M 556.734619140625 498.470703125 C 400.0310974121094 504.84625244140625 431.8434753417969 489.48175048828125 428.0367736816406 518.3479614257812 C 428.4158630371094 509.6270446777344 426.119873046875 518.546630859375 424.177734375 511.2345275878906 C 438.4835205078125 480.0025634765625 395.5177917480469 496.2851867675781 498.9534912109375 493.2293395996094 C 435.2305908203125 467.30413818359375 418.10699462890625 481.6224060058594 556.734619140625 498.470703125"/>
    <path stroke-width="0" fill="rgb(60, 71, 80)" opacity="0.7958921" stroke="rgb(160, 101, 15)" stroke-opacity="1.0" stroke-linecap="round" stroke-linejoin="round" d="M 391.3172302246094 272.41937255859375 C 489.6613464355469 272.7777099609375 243.06842041015625 242.95733642578125 294.99737548828125 204.1278839111328 C 461.0814208984375 205.02835083007812 410.07562255859375 189.4612579345703 415.20794677734375 269.1881408691406 C 356.6923828125 248.8734130859375 365.43292236328125 262.5897216796875 288.25177001953125 223.943359375 C 295.5553283691406 282.9332580566406 257.19012451171875 271.4479064941406 391.3172302246094 272.41937255859375"/>
    <path stroke-width="0" fill="rgb(34, 34, 32)" opacity="0.97877115" stroke="rgb(65, 216, 8)" stroke-opacity="1.0" stroke-linecap="round" stroke-linejoin="round" d="M 231.5578155517578 491.0760192871094 C 220.31845092773438 489.26507568359375 124.14617919921875 487.95098876953125 -114.85250854492188 489.824951171875 C 238.12757873535156 496.30657958984375 210.42791748046875 483.2323303222656 205.00857543945312 504.547119140625 C 193.84246826171875 483.5435791015625 192.9416046142578 497.2684326171875 298.0917053222656 490.6546325683594 C 178.04002380371094 490.45098876953125 197.95579528808594 493.51318359375 231.5578155517578 491.0760192871094"/>
    <path stroke-width="0" fill="rgb(27, 36, 38)" opacity="0.77061653" stroke="rgb(90, 90, 4)" stroke-opacity="1.0" stroke-linecap="round" stroke-linejoin="round" d="M 278.04644775390625 437.85540771484375 C 275.59423828125 431.559814453125 278.25213623046875 440.00408935546875 289.8304748535156 438.0006408691406 C 301.9141540527344 449.11334228515625 286.26116943359375 438.6357116699219 287.248046875 433.66656494140625 C 292.3345031738281 468.8217468261719 363.3045654296875 441.3077087402344 287.8961181640625 452.419189453125 C 303.3621826171875 441.2834167480469 302.90899658203125 445.28961181640625 278.04644775390625 437.85540771484375"/>
    <path stroke-width="0" fill="rgb(27, 23, 19)" opacity="0.7680097" stroke="rgb(102, 236, 25)" stroke-opacity="1.0" stroke-linecap="round" stroke-linejoin="round" d="M -26.176950454711914 438.0696105957031 C 57.714176177978516 448.5919494628906 24.555429458618164 432.04693603515625 -6.8721771240234375 439.3266906738281 C 128.34228515625 440.82342529296875 156.5057373046875 419.5284423828125 -73.33502197265625 428.46185302734375 C 146.96031188964844 436.8590393066406 107.8833999633789 420.46844482421875 82.60182189941406 440.8235778808594 C 45.291648864746094 443.0923156738281 23.84092140197754 439.250732421875 -26.176950454711914 438.0696105957031"/>
    <path stroke-width="0" fill="rgb(75, 73, 73)" opacity="0.9107474" stroke="rgb(221, 115, 83)" stroke-opacity="1.0" stroke-linecap="round" stroke-linejoin="round" d="M 559.501708984375 361.4388122558594 C 452.1694030761719 347.2152404785156 433.1667175292969 367.9526672363281 452.1822814941406 359.82830810546875 C 474.9408264160156 356.6990051269531 466.78717041015625 354.3067321777344 468.62847900390625 357.09124755859375 C 482.5292663574219 356.21075439453125 431.1200866699219 356.7887878417969 117.00126647949219 357.0595397949219 C 405.1553039550781 365.82086181640625 488.20416259765625 355.6141052246094 559.501708984375 361.4388122558594"/>
    <path stroke-width="0" fill="rgb(62, 61, 69)" opacity="0.4371023" stroke="rgb(33, 3, 29)" stroke-opacity="1.0" stroke-linecap="round" stroke-linejoin="round" d="M 435.2966613769531 509.5518798828125 C 454.6630859375 491.3295593261719 453.9330749511719 513.8875732421875 451.1445617675781 519.3573608398438 C 438.82391357421875 489.471923828125 471.1448059082031 514.9661254882812 457.9515686035156 489.5173034667969 C 442.5965270996094 541.5440673828125 478.3212890625 525.6044311523438 450.37213134765625 526.4104614257812 C 446.3427734375 505.5278015136719 452.4481506347656 493.9742736816406 435.2966613769531 509.5518798828125"/>
    <path stroke-width="0" fill="rgb(114, 116, 127)" opacity="0.5206443" stroke="rgb(162, 125, 252)" stroke-opacity="1.0" stroke-linecap="round" stroke-linejoin="round" d="M 232.13023376464844 117.24211120605469 C 241.6543426513672 93.38272857666016 239.2755889892578 98.35704803466797 235.0428009033203 103.70649719238281 C 235.46783447265625 104.46463775634766 236.23670959472656 104.829345703125 233.59844970703125 104.34227752685547 C 236.8640899658203 103.08477783203125 244.14413452148438 91.7108154296875 245.01307678222656 70.00698852539062 C 244.91770935058594 88.65367889404297 237.95867919921875 100.56108856201172 232.13023376464844 117.24211120605469"/>
    <path stroke-width="0" fill="rgb(27, 29, 37)" opacity="0.9233385" stroke="rgb(199, 73, 61)" stroke-opacity="1.0" stroke-linecap="round" stroke-linejoin="round" d="M 418.6319274902344 439.43817138671875 C 347.2030029296875 432.3931884765625 389.2688293457031 468.0028076171875 621.4356079101562 439.52374267578125 C 291.02716064453125 466.2777099609375 488.3664245605469 418.4198303222656 370.8447570800781 451.5835876464844 C 453.308837890625 450.7548522949219 392.4033203125 457.06805419921875 437.29248046875 436.21026611328125 C 312.1503601074219 450.61505126953125 365.8370666503906 433.447998046875 418.6319274902344 439.43817138671875"/>
    <path stroke-width="0" fill="rgb(17, 14, 18)" opacity="0.75565463" stroke="rgb(62, 169, 131)" stroke-opacity="1.0" stroke-linecap="round" stroke-linejoin="round" d="M -25.190702438354492 368.41058349609375 C 10.783781051635742 441.6786193847656 -12.185037612915039 457.9698486328125 -51.59636688232422 434.1546936035156 C 27.64670753479004 426.62579345703125 39.888980865478516 426.8479309082031 40.098907470703125 452.31634521484375 C 23.080848693847656 438.4501953125 59.077674865722656 428.11553955078125 -2.6021437644958496 432.3442687988281 C 26.29842185974121 465.6941223144531 -2.6188197135925293 462.2640380859375 -25.190702438354492 368.41058349609375"/>
    <path stroke-width="0" fill="rgb(38, 34, 38)" opacity="0.8350596" stroke="rgb(141, 73, 180)" stroke-opacity="1.0" stroke-linecap="round" stroke-linejoin="round" d="M 374.3906555175781 450.54498291015625 C 356.1141357421875 455.22772216796875 355.8255920410156 439.0653991699219 358.1690979003906 436.78167724609375 C 363.21807861328125 464.1651611328125 330.2818603515625 444.58001708984375 359.5958557128906 449.6884460449219 C 358.3806457519531 450.6962890625 341.6474304199219 429.69970703125 396.4313659667969 438.103271484375 C 352.86077880859375 432.8950500488281 348.1700134277344 455.89569091796875 374.3906555175781 450.54498291015625"/>
    <path stroke-width="0" fill="rgb(214, 201, 215)" opacity="0.61468434" stroke="rgb(247, 230, 75)" stroke-opacity="1.0" stroke-linecap="round" stroke-linejoin="round" d="M 467.0447082519531 367.47528076171875 C 414.1584777832031 366.1334533691406 351.042236328125 373.1597595214844 458.9184875488281 370.49053955078125 C 453.420654296875 361.3231506347656 461.50152587890625 359.8256530761719 467.0154113769531 369.7382507324219 C 527.9749755859375 376.00665283203125 593.4675903320312 365.39581298828125 464.7874450683594 365.2651672363281 C 470.8474426269531 377.96685791015625 473.9759521484375 383.9713439941406 467.0447082519531 367.47528076171875"/>
    <path stroke-width="0" fill="rgb(121, 121, 126)" opacity="0.5846352" stroke="rgb(63, 27, 242)" stroke-opacity="1.0" stroke-linecap="round" stroke-linejoin="round" d="M 213.12559509277344 111.311767578125 C 198.1893768310547 99.9561996459961 186.43309020996094 89.19694519042969 186.38685607910156 97.54728698730469 C 192.70567321777344 83.90467834472656 189.4852752685547 97.63510131835938 188.10345458984375 91.76395416259766 C 201.85284423828125 106.20459747314453 205.7384796142578 96.50651550292969 197.71180725097656 111.90408325195312 C 202.87677001953125 97.7100601196289 204.00454711914062 105.7745132446289 213.12559509277344 111.311767578125"/>
    <path stroke-width="0" fill="rgb(53, 49, 50)" opacity="0.84826535" stroke="rgb(175, 14, 186)" stroke-opacity="1.0" stroke-linecap="round" stroke-linejoin="round" d="M 13.323480606079102 489.22222900390625 C 26.793317794799805 509.250732421875 15.133220672607422 502.2047119140625 -38.77321243286133 508.7369384765625 C -16.438310623168945 524.45751953125 -25.518293380737305 508.7591857910156 -15.978522300720215 488.513671875 C -21.320514678955078 458.57012939453125 -29.26004981994629 447.3262939453125 -37.44046401977539 494.2614440917969 C -30.548009872436523 513.3566284179688 1.3098098039627075 528.7844848632812 13.323480606079102 489.22222900390625"/>
    <path stroke-width="0" fill="rgb(208, 208, 196)" opacity="0.56509995" stroke="rgb(69, 96, 95)" stroke-opacity="1.0" stroke-linecap="round" stroke-linejoin="round" d="M 328.32745361328125 73.6396484375 C 353.0799255371094 85.39514923095703 296.5151672363281 60.91331100463867 371.8708801269531 91.0238265991211 C 386.9940490722656 88.37407684326172 361.49761962890625 98.60480499267578 353.65106201171875 93.18537139892578 C 281.3589782714844 95.96643829345703 251.33250427246094 90.68504333496094 362.783935546875 98.55121612548828 C 374.8221740722656 89.92388153076172 359.60784912109375 84.45262908935547 328.32745361328125 73.6396484375"/>
    <path stroke-width="0" fill="rgb(47, 42, 49)" opacity="0.7972874" stroke="rgb(60, 43, 114)" stroke-opacity="1.0" stroke-linecap="round" stroke-linejoin="round" d="M 435.5968322753906 346.89312744140625 C 418.6946716308594 334.0848388671875 422.4997863769531 337.35589599609375 429.2565002441406 374.5266418457031 C 441.9541320800781 357.7616271972656 418.4616394042969 374.48297119140625 419.39007568359375 325.3789367675781 C 417.93646240234375 350.6991271972656 455.20208740234375 359.2657165527344 452.14129638671875 315.6415710449219 C 419.9748840332031 366.36572265625 439.3004150390625 356.29730224609375 435.5968322753906 346.89312744140625"/>
    <path stroke-width="0" fill="rgb(52, 60, 58)" opacity="0.73126817" stroke="rgb(213, 60, 128)" stroke-opacity="1.0" stroke-linecap="round" stroke-linejoin="round" d="M 318.01123046875 160.6861572265625 C 328.4554138183594 113.05786895751953 316.764404296875 128.9461212158203 317.22357177734375 129.59202575683594 C 327.0560302734375 124.14136505126953 316.1224365234375 125.3921127319336 319.955810546875 125.64891815185547 C 322.6146545410156 121.41983795166016 324.9381103515625 138.23828125 317.49822998046875 158.2014617919922 C 322.2761535644531 140.6568603515625 320.0760803222656 137.77288818359375 318.01123046875 160.6861572265625"/>
    <path stroke-width="0" fill="rgb(52, 44, 48)" opacity="0.5952336" stroke="rgb(161, 221, 239)" stroke-opacity="1.0" stroke-linecap="round" stroke-linejoin="round" d="M 148.85867309570312 451.9379577636719 C 227.34910583496094 429.8315124511719 222.5026092529297 419.9357604980469 228.5251922607422 445.5072326660156 C 247.80545043945312 435.54815673828125 255.64891052246094 433.0016784667969 238.13427734375 440.3996887207031 C 212.02877807617188 451.7133483886719 241.58078002929688 457.5112609863281 228.33383178710938 441.7893981933594 C 223.42893981933594 420.1394348144531 223.36636352539062 431.0306396484375 148.85867309570312 451.9379577636719"/>
    <path stroke-width="0" fill="rgb(7, 16, 11)" opacity="0.681649" stroke="rgb(228, 103, 140)" stroke-opacity="1.0" stroke-linecap="round" stroke-linejoin="round" d="M 220.96368408203125 431.1253356933594 C 11.621376037597656 425.66412353515625 -86.1934814453125 434.6739807128906 149.4433135986328 431.77960205078125 C 180.71600341796875 432.29541015625 154.29013061523438 419.610595703125 168.46958923339844 450.0751647949219 C 162.55416870117188 425.85076904296875 172.63282775878906 437.41766357421875 157.0566864013672 440.4136657714844 C 180.92405700683594 428.38970947265625 122.7301254272461 431.3696594238281 220.96368408203125 431.1253356933594"/>
    <path stroke-width="0" fill="rgb(249, 251, 255)" opacity="0.6990195" stroke="rgb(116, 102, 63)" stroke-opacity="1.0" stroke-linecap="round" stroke-linejoin="round" d="M 456.83087158203125 114.65948486328125 C 449.6004333496094 118.87675476074219 459.8266296386719 115.45699310302734 478.2874755859375 119.29273223876953 C 450.7319030761719 129.33016967773438 458.4413757324219 109.16324615478516 481.0062255859375 120.04605865478516 C 469.0959777832031 118.49754333496094 459.4535217285156 108.58123016357422 445.0445251464844 113.11754608154297 C 502.443603515625 119.9727783203125 507.8133239746094 130.74856567382812 456.83087158203125 114.65948486328125"/>
    <path stroke-width="0" fill="rgb(96, 108, 111)" opacity="0.31627348" stroke="rgb(85, 235, 219)" stroke-opacity="1.0" stroke-linecap="round" stroke-linejoin="round" d="M 460.1341247558594 151.6390838623047 C 469.089111328125 110.23241424560547 451.0118713378906 125.59561920166016 441.0115661621094 116.45954132080078 C 433.0574035644531 113.2625732421875 426.9985046386719 117.50922393798828 428.0682067871094 116.99591827392578 C 443.15081787109375 110.38578033447266 437.09820556640625 119.47113800048828 458.08941650390625 121.67113494873047 C 455.8215026855469 118.82897186279297 467.5508117675781 127.8467788696289 460.1341247558594 151.6390838623047"/>
    <path stroke-width="0" fill="rgb(245, 247, 248)" opacity="0.8163921" stroke="rgb(64, 113, 26)" stroke-opacity="1.0" stroke-linecap="round" stroke-linejoin="round" d="M 476.6934814453125 87.3036880493164 C 458.7685546875 82.34355926513672 478.3601989746094 103.41796112060547 487.181640625 93.24591064453125 C 445.8724365234375 83.35948944091797 437.89971923828125 68.97835540771484 445.4783935546875 91.72212982177734 C 493.1896057128906 97.87491607666016 497.52606201171875 89.35047912597656 483.1747131347656 81.26277923583984 C 460.78851318359375 93.74271392822266 477.8072509765625 100.75330352783203 476.6934814453125 87.3036880493164"/>
    <path stroke-width="0" fill="rgb(225, 152, 218)" opacity="0.7749144" stroke="rgb(0, 0, 0)" stroke-opacity="0.0" stroke-linecap="round" stroke-linejoin="round" d="M 66.64730072021484 23.17763900756836 C 65.81483459472656 26.657358169555664 62.803524017333984 29.634191513061523 58.9692268371582 30.17900276184082 C 55.37624740600586 29.028783798217773 52.47534942626953 25.650636672973633 51.85945510864258 22.483631134033203 C 52.150413513183594 18.884849548339844 55.002708435058594 15.62975025177002 58.48406219482422 14.576103210449219 C 62.93603515625 15.413816452026367 65.50769805908203 18.416698455810547 66.64730072021484 23.17763900756836"/>
    <path stroke-width="0" fill="rgb(111, 47, 101)" opacity="0.9109504" stroke="rgb(0, 0, 0)" stroke-opacity="0.0" stroke-linecap="round" stroke-linejoin="round" d="M 445.3937683105469 30.823184967041016 C 446.2223815917969 33.518707275390625 443.5433044433594 36.372379302978516 439.8644104003906 37.481414794921875 C 436.3135681152344 36.710296630859375 433.47747802734375 33.824100494384766 434.41229248046875 30.14655876159668 C 433.532958984375 26.23249626159668 436.6395263671875 23.87863540649414 438.7638854980469 23.39330291748047 C 442.7894592285156 24.70703125 445.7470397949219 26.956594467163086 445.3937683105469 30.823184967041016"/>
    <path stroke-width="0" fill="rgb(38, 55, 103)" opacity="0.5107404" stroke="rgb(0, 0, 0)" stroke-opacity="0.0" stroke-linecap="round" stroke-linejoin="round" d="M 403.2260437011719 234.47708129882812 C 402.74468994140625 237.4058074951172 399.786376953125 240.52963256835938 395.5375671386719 242.68728637695312 C 391.733642578125 241.22036743164062 389.33343505859375 237.5414276123047 388.3738098144531 234.73370361328125 C 389.72528076171875 229.6317596435547 391.2978515625 225.6751708984375 395.9460754394531 225.5049285888672 C 399.5652770996094 226.5010528564453 401.7270812988281 230.75750732421875 403.2260437011719 234.47708129882812"/>
    <path stroke-width="0" fill="rgb(232, 14, 220)" opacity="0.36626938" stroke="rgb(0, 0, 0)" stroke-opacity="0.0" stroke-linecap="round" stroke-linejoin="round" d="M 406.3148498535156 385.0572509765625 C 406.2554016113281 388.3077392578125 404.10052490234375 391.5352478027344 400.0188293457031 392.3558654785156 C 396.56976318359375 391.24114990234375 394.0383605957031 387.83416748046875 393.1936950683594 384.23406982421875 C 393.23834228515625 380.17205810546875 395.6173095703125 377.1204528808594 399.96026611328125 376.20501708984375 C 403.8908996582031 377.70770263671875 405.7700500488281 381.0703125 406.3148498535156 385.0572509765625"/>
    <path stroke-width="0" fill="rgb(187, 99, 128)" opacity="0.37073153" stroke="rgb(0, 0, 0)" stroke-opacity="0.0" stroke-linecap="round" stroke-linejoin="round" d="M 445.46240234375 109.62256622314453 C 445.2907409667969 113.43849182128906 442.4189453125 116.4161376953125 438.5941162109375 117.16688537597656 C 434.8903503417969 115.5698471069336 431.8603820800781 112.67242431640625 430.5526123046875 108.86227416992188 C 430.642333984375 104.4625244140625 433.514892578125 101.68083953857422 437.7076721191406 101.39521026611328 C 442.13177490234375 102.4681396484375 444.8066101074219 105.46723175048828 445.46240234375 109.62256622314453"/>
    <path stroke-width="0" fill="rgb(165, 79, 132)" opacity="0.08005534" stroke="rgb(0, 0, 0)" stroke-opacity="0.0" stroke-linecap="round" stroke-linejoin="round" d="M 140.89056396484375 253.87501525878906 C 140.0631561279297 257.6217956542969 137.5243377685547 260.9526672363281 133.92820739746094 262.347412109375 C 129.94851684570312 260.5831604003906 126.8349838256836 257.6625061035156 126.12482452392578 254.24920654296875 C 127.02009582519531 250.12863159179688 129.61904907226562 246.9156036376953 133.29550170898438 245.9629364013672 C 137.25515747070312 247.27151489257812 140.0592803955078 250.3214874267578 140.89056396484375 253.87501525878906"/>
    <path stroke-width="0" fill="rgb(2, 41, 153)" opacity="0.069246925" stroke="rgb(0, 0, 0)" stroke-opacity="0.0" stroke-linecap="round" stroke-linejoin="round" d="M 31.501041412353516 496.7212219238281 C 30.59359359741211 500.7472229003906 27.68257713317871 503.5623779296875 24.156923294067383 504.2509765625 C 20.478174209594727 503.4700622558594 17.65248680114746 500.4578857421875 16.449054718017578 496.3205871582031 C 16.39084815979004 492.37030029296875 19.408464431762695 489.9857177734375 24.034534454345703 489.4172058105469 C 28.05057144165039 490.1577453613281 31.119525909423828 492.819091796875 31.501041412353516 496.7212219238281"/>
    <path stroke-width="0" fill="rgb(128, 83, 132)" opacity="0.9053232" stroke="rgb(0, 0, 0)" stroke-opacity="0.0" stroke-linecap="round" stroke-linejoin="round" d="M 322.94219970703125 489.70477294921875 C 323.2309265136719 493.51483154296875 320.0478210449219 496.0298156738281 316.65631103515625 496.2845458984375 C 312.7059020996094 495.40625 310.15484619140625 492.1667785644531 308.5653076171875 488.51165771484375 C 308.99072265625 485.208740234375 311.9012145996094 482.2833251953125 316.1083679199219 480.962158203125 C 319.5173645019531 482.5569152832031 322.24432373046875 485.80474853515625 322.94219970703125 489.70477294921875"/>
    <path stroke-width="0" fill="rgb(89, 4, 61)" opacity="0.30117103" stroke="rgb(0, 0, 0)" stroke-opacity="0.0" stroke-linecap="round" stroke-linejoin="round" d="M 144.91880798339844 448.7705993652344 C 142.9053955078125 452.4565124511719 140.2634735107422 455.98187255859375 137.4313507080078 457.0980529785156 C 133.1764678955078 455.7083740234375 130.1042938232422 452.9263000488281 129.2777099609375 449.6990661621094 C 130.40489196777344 445.58404541015625 132.96815490722656 442.15277099609375 135.9584197998047 441.5411682128906 C 140.43431091308594 443.0221252441406 143.80845642089844 445.3565368652344 144.91880798339844 448.7705993652344"/>
    <path stroke-width="0" fill="rgb(85, 224, 240)" opacity="0.9918903" stroke="rgb(0, 0, 0)" stroke-opacity="0.0" stroke-linecap="round" stroke-linejoin="round" d="M -592.4356079101562 49.20535659790039 C -593.5074462890625 53.20535659790039 -596.4356079101562 56.13356018066406 -600.4356079101562 57.20535659790039 C -604.4356079101562 56.13356018066406 -607.3638305664062 53.20535659790039 -608.4356079101562 49.20535659790039 C -607.3638305664062 45.20535659790039 -604.4356079101562 42.27715301513672 -600.4356079101562 41.20535659790039 C -596.4356079101562 42.27715301513672 -593.5074462890625 45.20535659790039 -592.4356079101562 49.20535659790039"/>
    <path stroke-width="0" fill="rgb(162, 62, 60)" opacity="0.12963921" stroke="rgb(0, 0, 0)" stroke-opacity="0.0" stroke-linecap="round" stroke-linejoin="round" d="M 501.6641540527344 406.2654724121094 C 501.5173645019531 409.50213623046875 498.6181945800781 412.0757751464844 494.3555603027344 412.87432861328125 C 490.97540283203125 412.2025146484375 488.1225891113281 409.08740234375 487.6992492675781 405.88922119140625 C 488.18853759765625 401.3901672363281 490.3607482910156 398.2232971191406 493.6723327636719 398.5904846191406 C 497.9239501953125 399.4075622558594 500.72869873046875 402.2548828125 501.6641540527344 406.2654724121094"/>
    <path stroke-width="0" fill="rgb(129, 198, 212)" opacity="0.13278438" stroke="rgb(0, 0, 0)" stroke-opacity="0.0" stroke-linecap="round" stroke-linejoin="round" d="M 385.6062316894531 45.64889907836914 C 384.6998596191406 49.24222183227539 381.8465270996094 52.3301887512207 377.9162292480469 53.50149917602539 C 373.4385070800781 52.620086669921875 370.6526794433594 49.658790588378906 369.5196533203125 45.24420166015625 C 370.41888427734375 40.83142852783203 373.4049377441406 37.98808670043945 377.2059631347656 37.656532287597656 C 381.52801513671875 38.788795471191406 384.4805908203125 41.5573844909668 385.6062316894531 45.64889907836914"/>
    <path stroke-width="0" fill="rgb(25, 41, 75)" opacity="0.07134441" stroke="rgb(0, 0, 0)" stroke-opacity="0.0" stroke-linecap="round" stroke-linejoin="round" d="M 438.66302490234375 419.0205078125 C 438.67626953125 423.2613830566406 436.00262451171875 426.0755310058594 431.4235534667969 426.84423828125 C 427.337646484375 426.02252197265625 424.52838134765625 422.9010009765625 423.4176025390625 418.6559753417969 C 424.32513427734375 414.76898193359375 427.7231750488281 412.3101501464844 432.0423583984375 411.0484924316406 C 435.5979309082031 411.8288879394531 438.3994140625 414.8016052246094 438.66302490234375 419.0205078125"/>
    <path stroke-width="0" fill="rgb(71, 147, 39)" opacity="0.9345097" stroke="rgb(0, 0, 0)" stroke-opacity="0.0" stroke-linecap="round" stroke-linejoin="round" d="M 61.99775695800781 290.0662536621094 C 61.01453399658203 294.09149169921875 58.464866638183594 297.2572326660156 53.82548141479492 298.98248291015625 C 50.198822021484375 299.1066589355469 47.95789337158203 295.7093200683594 48.78456497192383 291.159912109375 C 48.62946319580078 286.77362060546875 50.73101806640625 283.62750244140625 54.284202575683594 284.0981750488281 C 58.691402435302734 284.7667236328125 61.66614532470703 287.1529846191406 61.99775695800781 290.0662536621094"/>
    <path stroke-width="0" fill="rgb(74, 127, 18)" opacity="0.5966151" stroke="rgb(0, 0, 0)" stroke-opacity="0.0" stroke-linecap="round" stroke-linejoin="round" d="M 6.241294860839844 27.74946403503418 C 5.869556903839111 30.22102928161621 3.47516131401062 33.33436584472656 -0.5786123275756836 34.27061462402344 C -3.839508056640625 34.016075134277344 -6.762734413146973 31.070680618286133 -7.834487438201904 27.07051658630371 C -6.762622356414795 23.07074546813965 -3.8300375938415527 20.15669822692871 -1.0741772651672363 20.018009185791016 C 2.909834146499634 21.35773277282715 5.42132568359375 24.477741241455078 6.241294860839844 27.74946403503418"/>
    <path stroke-width="0" fill="rgb(186, 234, 96)" opacity="0.8648104" stroke="rgb(0, 0, 0)" stroke-opacity="0.0" stroke-linecap="round" stroke-linejoin="round" d="M 200.61375427246094 413.5345458984375 C 199.25157165527344 417.36163330078125 196.09048461914062 420.01116943359375 192.89810180664062 421.5523376464844 C 190.27252197265625 420.4659118652344 187.52603149414062 417.2080078125 185.69769287109375 413.1755676269531 C 185.89859008789062 410.2212829589844 189.40280151367188 407.95831298828125 193.8209991455078 407.2860107421875 C 198.00550842285156 406.93377685546875 200.95436096191406 409.5243835449219 200.61375427246094 413.5345458984375"/>
    <path stroke-width="0" fill="rgb(72, 218, 34)" opacity="0.19016673" stroke="rgb(0, 0, 0)" stroke-opacity="0.0" stroke-linecap="round" stroke-linejoin="round" d="M 31.981637954711914 13.59261417388916 C 31.324966430664062 18.29463768005371 29.18317985534668 21.456892013549805 25.04934310913086 22.056550979614258 C 20.22553062438965 20.733020782470703 17.392948150634766 17.537206649780273 16.40213394165039 13.114954948425293 C 16.48495101928711 8.813179016113281 19.55092430114746 6.06061315536499 23.822294235229492 5.690921306610107 C 28.230575561523438 6.9874491691589355 31.202510833740234 9.574666976928711 31.981637954711914 13.59261417388916"/>
    <path stroke-width="0" fill="rgb(135, 119, 2)" opacity="0.4206868" stroke="rgb(0, 0, 0)" stroke-opacity="0.0" stroke-linecap="round" stroke-linejoin="round" d="M 214.23577880859375 381.2292785644531 C 212.8790283203125 385.31939697265625 210.52561950683594 389.1210021972656 206.72727966308594 390.7013244628906 C 202.70791625976562 388.4288635253906 200.07994079589844 384.9414367675781 198.5684814453125 381.3699035644531 C 199.5235595703125 377.7879638671875 202.85972595214844 375.4151611328125 206.54734802246094 373.6558837890625 C 209.81297302246094 375.13946533203125 213.0026092529297 377.9820556640625 214.23577880859375 381.2292785644531"/>
    <path stroke-width="0" fill="rgb(59, 213, 200)" opacity="0.13421623" stroke="rgb(0, 0, 0)" stroke-opacity="0.0" stroke-linecap="round" stroke-linejoin="round" d="M 114.54736328125 477.30035400390625 C 113.4762191772461 481.34466552734375 110.60504150390625 484.3259582519531 106.10982513427734 485.8865051269531 C 101.82659149169922 485.1189270019531 99.72969818115234 481.85540771484375 98.96864318847656 476.86181640625 C 99.5431900024414 473.5831604003906 103.29904174804688 471.5506591796875 107.82733917236328 469.5724182128906 C 111.07127380371094 469.8577880859375 113.77471160888672 473.0389099121094 114.54736328125 477.30035400390625"/>
    <path stroke-width="0" fill="rgb(166, 197, 124)" opacity="0.905815" stroke="rgb(0, 0, 0)" stroke-opacity="0.0" stroke-linecap="round" stroke-linejoin="round" d="M 66.74064636230469 372.9595642089844 C 66.08673858642578 376.64306640625 63.24091720581055 379.7183837890625 60.11602020263672 380.5029602050781 C 56.09260559082031 378.5161437988281 52.54097366333008 376.13580322265625 52.19544219970703 373.3485107421875 C 53.632469177246094 369.96392822265625 56.16452407836914 366.5046081542969 59.82011032104492 364.33233642578125 C 63.1112174987793 365.5208435058594 65.94712829589844 368.8905029296875 66.74064636230469 372.9595642089844"/>
    <path stroke-width="0" fill="rgb(98, 41, 32)" opacity="0.8168327" stroke="rgb(0, 0, 0)" stroke-opacity="0.0" stroke-linecap="round" stroke-linejoin="round" d="M 158.03021240234375 366.36016845703125 C 157.02293395996094 370.29949951171875 154.08018493652344 372.9781188964844 150.1186981201172 373.4422607421875 C 146.17559814453125 372.7618103027344 143.2484893798828 369.892333984375 142.61659240722656 365.9956359863281 C 142.72293090820312 361.7523498535156 145.8221893310547 359.2991638183594 150.4816436767578 358.0173645019531 C 154.25267028808594 358.5835876464844 156.84677124023438 362.0196533203125 158.03021240234375 366.36016845703125"/>
    <path stroke-width="0" fill="rgb(106, 96, 125)" opacity="0.8835078" stroke="rgb(0, 0, 0)" stroke-opacity="0.0" stroke-linecap="round" stroke-linejoin="round" d="M 459.0381774902344 375.4010314941406 C 457.89324951171875 378.5718688964844 455.2208251953125 382.1277770996094 452.3837585449219 383.1269226074219 C 448.3016052246094 381.80206298828125 445.0416564941406 379.0152282714844 443.8074035644531 376.10687255859375 C 445.4541931152344 371.89434814453125 447.8501281738281 368.3582763671875 451.65570068359375 366.8379821777344 C 455.89837646484375 368.3304748535156 458.5832824707031 371.35845947265625 459.0381774902344 375.4010314941406"/>
    <path stroke-width="0" fill="rgb(233, 179, 51)" opacity="0.46808523" stroke="rgb(0, 0, 0)" stroke-opacity="0.0" stroke-linecap="round" stroke-linejoin="round" d="M 108.5855941772461 61.14670944213867 C 106.3602294921875 64.23905181884766 103.8696060180664 68.29031372070312 101.21673583984375 69.40914916992188 C 96.84454345703125 67.77020263671875 93.87592315673828 65.26461791992188 93.35537719726562 61.48993682861328 C 93.85916900634766 57.726619720458984 96.87760162353516 54.814579010009766 100.3802261352539 53.71946334838867 C 104.37127685546875 54.67964553833008 107.4545669555664 57.52567672729492 108.5855941772461 61.14670944213867"/>
    <path stroke-width="0" fill="rgb(232, 72, 83)" opacity="0.5882075" stroke="rgb(0, 0, 0)" stroke-opacity="0.0" stroke-linecap="round" stroke-linejoin="round" d="M 191.07879638671875 479.4090576171875 C 190.45562744140625 483.6860046386719 187.7503662109375 486.72088623046875 183.66835021972656 487.7545166015625 C 179.19921875 487.376220703125 176.26473999023438 484.4318542480469 176.23538208007812 480.3133850097656 C 177.17721557617188 476.100341796875 180.1179962158203 473.3758239746094 184.11654663085938 472.0233459472656 C 188.33241271972656 472.31817626953125 191.0429229736328 475.3900146484375 191.07879638671875 479.4090576171875"/>
    <path stroke-width="0" fill="rgb(220, 126, 221)" opacity="0.16146496" stroke="rgb(0, 0, 0)" stroke-opacity="0.0" stroke-linecap="round" stroke-linejoin="round" d="M 12.608898162841797 7.677338600158691 C 12.863558769226074 11.953397750854492 9.752476692199707 14.39798641204834 4.971665859222412 15.229879379272461 C 0.25396469235420227 15.191057205200195 -2.39542293548584 12.0830078125 -3.298264265060425 7.261009693145752 C -2.138157606124878 2.778998851776123 0.7523844242095947 -0.18418186902999878 4.26636266708374 -0.9123777151107788 C 8.825154304504395 0.734976053237915 12.033612251281738 3.544032573699951 12.608898162841797 7.677338600158691"/>
  </g>
</svg>
