<?xml version="1.0" ?>
<svg xmlns="http://www.w3.org/2000/svg" version="1.1" width="512" height="512">
  <defs/>
  <g>
    <path stroke-width="0" fill="rgb(-10, -12, 19)" opacity="1.0511919" stroke="rgb(139, 182, 153)" stroke-opacity="1.0" stroke-linecap="round" stroke-linejoin="round" d="M 574.47265625 162.83013916015625 C 471.6370544433594 157.415771484375 255.34140014648438 161.59915161132812 21.943342208862305 158.8165740966797 C 149.9614715576172 41.40039825439453 217.20492553710938 78.77104187011719 174.48895263671875 -25.099302291870117 C 185.01902770996094 -33.60383224487305 197.35633850097656 -35.491127014160156 255.7720184326172 -34.258113861083984 C 358.7196350097656 -48.384517669677734 436.7663269042969 -146.10423278808594 574.47265625 162.83013916015625"/>
    <path stroke-width="0" fill="rgb(39, 54, 50)" opacity="0.6719562" stroke="rgb(108, 164, 111)" stroke-opacity="1.0" stroke-linecap="round" stroke-linejoin="round" d="M 317.1797180175781 711.280029296875 C -124.74977111816406 746.8740234375 7.460904598236084 369.2817077636719 44.376895904541016 84.7960433959961 C 292.95172119140625 122.72144317626953 289.6540832519531 118.43473815917969 279.9697265625 40.848323822021484 C 284.2266845703125 -66.92325592041016 317.0650329589844 -46.443145751953125 442.3717346191406 -36.365211486816406 C 639.143310546875 -2.5854287147521973 854.1314086914062 240.14646911621094 317.1797180175781 711.280029296875"/>
    <path stroke-width="0" fill="rgb(65, 75, 76)" opacity="0.96697104" stroke="rgb(245, 97, 201)" stroke-opacity="1.0" stroke-linecap="round" stroke-linejoin="round" d="M 361.6444091796875 88.5867919921875 C 331.4573059082031 104.48995208740234 323.0592956542969 109.59981536865234 88.58167266845703 106.95152282714844 C 110.6676025390625 103.6150894165039 112.05255126953125 111.51028442382812 120.72222900390625 67.0373764038086 C 135.6087188720703 -33.50758361816406 141.19656372070312 -41.69476318359375 171.7762451171875 -45.705169677734375 C 292.3150939941406 -28.910104751586914 315.7779846191406 -34.79841232299805 361.6444091796875 88.5867919921875"/>
    <path stroke-width="0" fill="rgb(13, 14, 17)" opacity="1.0291672" stroke="rgb(144, 236, 18)" stroke-opacity="1.0" stroke-linecap="round" stroke-linejoin="round" d="M 256.56707763671875 83.09381866455078 C 200.23106384277344 105.10363006591797 295.6690979003906 69.28810119628906 533.1353149414062 142.72921752929688 C 129.1871337890625 146.04820251464844 16.915855407714844 90.63681030273438 -32.00532531738281 237.9893798828125 C -45.53935623168945 -103.79988098144531 -12.785496711730957 -54.71656799316406 149.37364196777344 -35.13842010498047 C 205.53208923339844 -44.215091705322266 222.68519592285156 -50.4676399230957 256.56707763671875 83.09381866455078"/>
    <path stroke-width="0" fill="rgb(262, 255, 259)" opacity="1.0274212" stroke="rgb(5, 212, 198)" stroke-opacity="1.0" stroke-linecap="round" stroke-linejoin="round" d="M 492.25384521484375 243.77040100097656 C 467.3723449707031 179.81900024414062 266.9891662597656 188.75045776367188 290.48583984375 217.99453735351562 C 193.2096710205078 181.6045684814453 152.72479248046875 187.60533142089844 130.10191345214844 159.64857482910156 C 82.96971130371094 158.96034240722656 85.44979095458984 159.1998748779297 495.3467102050781 159.38357543945312 C 493.1131591796875 159.47349548339844 492.906982421875 138.6189422607422 492.25384521484375 243.77040100097656"/>
    <path stroke-width="0" fill="rgb(265, 258, 257)" opacity="1.0378827" stroke="rgb(249, 203, 117)" stroke-opacity="1.0" stroke-linecap="round" stroke-linejoin="round" d="M 560.0060424804688 382.57879638671875 C 584.6814575195312 396.0760498046875 512.6299438476562 392.9046630859375 401.6829528808594 390.1510925292969 C 473.26397705078125 383.81201171875 367.47174072265625 393.5719909667969 377.28961181640625 376.9949951171875 C 530.81884765625 377.4941711425781 523.8907470703125 376.3334045410156 509.280029296875 378.85498046875 C 433.49493408203125 380.65765380859375 453.5470275878906 379.4678955078125 560.0060424804688 382.57879638671875"/>
    <path stroke-width="0" fill="rgb(235, 239, 238)" opacity="0.7271975" stroke="rgb(30, 163, 36)" stroke-opacity="1.0" stroke-linecap="round" stroke-linejoin="round" d="M 638.4620971679688 414.1053161621094 C 457.9830627441406 445.448486328125 158.75010681152344 410.3319396972656 151.92543029785156 425.9560546875 C 284.9001770019531 427.0609130859375 325.2822570800781 426.4029541015625 -32.44818878173828 427.46484375 C 199.7010955810547 396.99102783203125 232.86436462402344 426.1820983886719 54.63530731201172 413.4322814941406 C 132.8419189453125 417.0987548828125 306.85723876953125 401.4950256347656 638.4620971679688 414.1053161621094"/>
    <path stroke-width="0" fill="rgb(259, 253, 255)" opacity="0.98055995" stroke="rgb(133, 105, 67)" stroke-opacity="1.0" stroke-linecap="round" stroke-linejoin="round" d="M 576.114013671875 377.9794006347656 C 752.3203735351562 402.1826171875 595.683837890625 395.8583068847656 61.28245162963867 397.150146484375 C 179.53160095214844 389.5033874511719 -88.52821350097656 411.54632568359375 -65.09552764892578 377.2167663574219 C 519.3223876953125 377.0969543457031 497.4547119140625 377.033935546875 446.0716247558594 376.97186279296875 C 394.33349609375 378.54058837890625 408.1300964355469 375.3224182128906 576.114013671875 377.9794006347656"/>
    <path stroke-width="0" fill="rgb(251, 245, 250)" opacity="0.9649058" stroke="rgb(116, 144, 4)" stroke-opacity="1.0" stroke-linecap="round" stroke-linejoin="round" d="M 594.9231567382812 426.9085388183594 C -78.44217681884766 426.2080383300781 26.147666931152344 426.98541259765625 80.44336700439453 427.19683837890625 C 221.90187072753906 414.3191833496094 -65.83236694335938 446.3059997558594 -82.3916244506836 408.92523193359375 C 79.67704010009766 409.9610595703125 250.89199829101562 409.03045654296875 309.0463562011719 409.766845703125 C 130.21636962890625 422.7876281738281 223.661376953125 392.7287292480469 594.9231567382812 426.9085388183594"/>
    <path stroke-width="0" fill="rgb(257, 258, 261)" opacity="1.0121137" stroke="rgb(156, 157, 240)" stroke-opacity="1.0" stroke-linecap="round" stroke-linejoin="round" d="M 494.7703857421875 277.89013671875 C 464.8532409667969 303.83282470703125 621.6239013671875 292.6893005371094 -39.85276412963867 296.78607177734375 C -88.0439682006836 265.0244140625 -95.9703140258789 273.1385192871094 259.2193908691406 273.1414794921875 C 268.9998474121094 277.16998291015625 254.96385192871094 129.4591522216797 278.3385925292969 171.2909393310547 C 318.67913818359375 316.93914794921875 203.8311767578125 253.16314697265625 494.7703857421875 277.89013671875"/>
    <path stroke-width="0" fill="rgb(253, 245, 250)" opacity="0.97951794" stroke="rgb(91, 111, 177)" stroke-opacity="1.0" stroke-linecap="round" stroke-linejoin="round" d="M 594.7449951171875 411.60589599609375 C 472.8760681152344 455.8526611328125 261.6658020019531 377.7799377441406 170.32537841796875 426.5047302246094 C 251.06715393066406 412.9681396484375 241.40142822265625 420.8399963378906 212.08837890625 414.8500061035156 C 258.1403503417969 420.3569030761719 278.4356994628906 441.2178039550781 149.0072479248047 408.0926208496094 C 180.46070861816406 420.3395080566406 481.26806640625 403.7334289550781 594.7449951171875 411.60589599609375"/>
    <path stroke-width="0" fill="rgb(258, 258, 259)" opacity="1.0048805" stroke="rgb(170, 171, 53)" stroke-opacity="1.0" stroke-linecap="round" stroke-linejoin="round" d="M 492.09661865234375 164.9659423828125 C 283.19415283203125 214.7240447998047 746.2733154296875 201.20213317871094 15.974603652954102 203.77017211914062 C 33.34882354736328 211.12327575683594 -56.72488021850586 216.8075408935547 -50.170623779296875 159.28465270996094 C 117.03360748291016 159.7630157470703 190.5668182373047 158.56939697265625 231.1929168701172 160.7758331298828 C 134.28656005859375 164.39352416992188 192.63702392578125 158.59963989257812 492.09661865234375 164.9659423828125"/>
    <path stroke-width="0" fill="rgb(116, 124, 113)" opacity="0.9807262" stroke="rgb(80, 92, 145)" stroke-opacity="1.0" stroke-linecap="round" stroke-linejoin="round" d="M 527.4952392578125 94.19471740722656 C 448.2121276855469 59.64506530761719 516.809814453125 72.48468780517578 443.3833923339844 65.17808532714844 C 321.5571594238281 74.28421783447266 354.12982177734375 46.97983932495117 360.8529968261719 2.074366807937622 C 356.93389892578125 -22.19556999206543 361.8376770019531 -30.034143447875977 365.0763854980469 -24.674570083618164 C 378.3323974609375 59.687862396240234 495.3766174316406 -6.210768699645996 527.4952392578125 94.19471740722656"/>
    <path stroke-width="0" fill="rgb(248, 254, 257)" opacity="0.99217176" stroke="rgb(252, 26, 53)" stroke-opacity="1.0" stroke-linecap="round" stroke-linejoin="round" d="M 450.5606689453125 41.25227355957031 C 401.53240966796875 52.669822692871094 356.7530517578125 70.44053649902344 353.11273193359375 73.61811065673828 C 398.5748291015625 124.28298950195312 337.1031494140625 84.47124481201172 312.88946533203125 29.585023880004883 C 325.5863342285156 16.928510665893555 339.84576416015625 13.552166938781738 416.6120910644531 0.3575037121772766 C 413.8183288574219 17.101238250732422 448.12054443359375 4.898090839385986 450.5606689453125 41.25227355957031"/>
    <path stroke-width="0" fill="rgb(-2, 2, -3)" opacity="1.009156" stroke="rgb(166, 64, 118)" stroke-opacity="1.0" stroke-linecap="round" stroke-linejoin="round" d="M 130.62596130371094 397.4520263671875 C 235.60743713378906 398.156494140625 120.63650512695312 397.5522155761719 -80.08881378173828 397.5516357421875 C 12.882566452026367 409.1821594238281 -48.63113784790039 406.6829833984375 76.7269515991211 407.4277648925781 C 110.00255584716797 408.05078125 135.17433166503906 408.2002258300781 255.08404541015625 407.4436340332031 C 73.80217742919922 391.6587219238281 90.33151245117188 395.6534729003906 130.62596130371094 397.4520263671875"/>
    <path stroke-width="0" fill="rgb(109, 88, 113)" opacity="0.95927525" stroke="rgb(40, 28, 167)" stroke-opacity="1.0" stroke-linecap="round" stroke-linejoin="round" d="M 418.0352478027344 -31.612974166870117 C 433.24639892578125 24.47430419921875 454.05517578125 65.58061218261719 441.60174560546875 5.251083850860596 C 386.5438232421875 -19.201128005981445 374.3493347167969 -16.442058563232422 312.05523681640625 -19.66054916381836 C 315.1639404296875 -29.508440017700195 323.5223083496094 -35.45821762084961 394.3455505371094 -33.86525344848633 C 406.1054382324219 -37.010616302490234 415.6422424316406 -32.56230163574219 418.0352478027344 -31.612974166870117"/>
    <path stroke-width="0" fill="rgb(249, 250, 254)" opacity="0.97362137" stroke="rgb(50, 94, 209)" stroke-opacity="1.0" stroke-linecap="round" stroke-linejoin="round" d="M 493.2476806640625 95.34085083007812 C 395.9456787109375 95.18535614013672 363.0146789550781 97.06140899658203 340.1061096191406 93.97979736328125 C 406.92962646484375 98.38411712646484 384.22882080078125 102.4764404296875 200.97772216796875 97.83869934082031 C 399.84735107421875 84.1011962890625 355.8537902832031 100.20658874511719 375.1197509765625 83.07573699951172 C 375.2653503417969 73.77059936523438 515.2282104492188 57.68036651611328 493.2476806640625 95.34085083007812"/>
    <path stroke-width="0" fill="rgb(117, 118, 108)" opacity="1.0027494" stroke="rgb(213, 24, 248)" stroke-opacity="1.0" stroke-linecap="round" stroke-linejoin="round" d="M 468.6060791015625 33.833648681640625 C 461.5088806152344 54.997047424316406 428.2231750488281 57.82930374145508 332.326904296875 86.9383544921875 C 281.3934020996094 91.20123291015625 219.0784149169922 78.3727035522461 -86.83943939208984 88.54185485839844 C -40.06278991699219 -346.3504638671875 68.1061782836914 -207.80335998535156 423.02874755859375 -84.76692199707031 C 470.019775390625 -57.68671417236328 486.80572509765625 -61.59973907470703 468.6060791015625 33.833648681640625"/>
    <path stroke-width="0" fill="rgb(257, 254, 261)" opacity="0.8913066" stroke="rgb(249, 154, 188)" stroke-opacity="1.0" stroke-linecap="round" stroke-linejoin="round" d="M -18.828147888183594 79.28279113769531 C 323.51068115234375 82.19679260253906 248.62281799316406 72.777099609375 -49.52256393432617 98.48229217529297 C 204.036865234375 100.8396224975586 171.9774627685547 96.01705169677734 127.26783752441406 103.4979248046875 C 155.88644409179688 97.27116394042969 214.5362548828125 112.25276184082031 361.75421142578125 80.51301574707031 C 24.50693702697754 72.76470184326172 110.29615020751953 113.22589111328125 -18.828147888183594 79.28279113769531"/>
    <path stroke-width="0" fill="rgb(118, 116, 108)" opacity="0.8495306" stroke="rgb(72, 30, 75)" stroke-opacity="1.0" stroke-linecap="round" stroke-linejoin="round" d="M 270.2346496582031 51.629024505615234 C 296.6064453125 79.44536590576172 376.573974609375 82.91622924804688 275.1476745605469 67.35240936279297 C 220.21603393554688 77.93900299072266 204.0987091064453 85.39681243896484 200.4010009765625 -3.7318100929260254 C 262.51806640625 -37.65595626831055 279.69085693359375 -34.56483840942383 301.5310363769531 -31.670854568481445 C 373.2652282714844 -24.890260696411133 376.4798278808594 -14.186290740966797 270.2346496582031 51.629024505615234"/>
    <path stroke-width="0" fill="rgb(240, 243, 250)" opacity="0.9448798" stroke="rgb(81, 105, 16)" stroke-opacity="1.0" stroke-linecap="round" stroke-linejoin="round" d="M 547.764404296875 74.2581787109375 C 546.9356689453125 103.32501220703125 533.772705078125 109.36691284179688 520.8856811523438 56.647613525390625 C 415.4866943359375 52.341060638427734 452.1053161621094 65.88800048828125 465.50274658203125 39.765872955322266 C 368.1144714355469 41.18354415893555 417.039794921875 -20.13672637939453 383.7262268066406 -19.328195571899414 C 412.999755859375 88.81101989746094 488.4148864746094 -0.2829440236091614 547.764404296875 74.2581787109375"/>
    <path stroke-width="0" fill="rgb(-5, -2, -2)" opacity="0.886474" stroke="rgb(144, 67, 133)" stroke-opacity="1.0" stroke-linecap="round" stroke-linejoin="round" d="M 132.11712646484375 408.1422424316406 C 123.08757019042969 399.7359313964844 102.72712707519531 418.9748229980469 -63.370140075683594 397.7170715332031 C 219.16262817382812 397.1441650390625 295.9105224609375 396.2691955566406 266.2896728515625 399.2936706542969 C 144.908447265625 405.6343688964844 169.0086669921875 395.8250732421875 252.4862823486328 407.5203552246094 C 108.30854034423828 408.0417175292969 118.7272720336914 405.7543029785156 132.11712646484375 408.1422424316406"/>
    <path stroke-width="0" fill="rgb(257, 260, 259)" opacity="1.0197905" stroke="rgb(146, 236, 81)" stroke-opacity="1.0" stroke-linecap="round" stroke-linejoin="round" d="M 440.12481689453125 185.6356964111328 C 439.3193054199219 223.75518798828125 439.7276306152344 298.2272033691406 437.878173828125 286.1791076660156 C 377.5051574707031 312.80963134765625 427.25006103515625 246.7637481689453 416.6639099121094 266.5788879394531 C 426.189697265625 141.9413604736328 387.56121826171875 253.85699462890625 439.5013732910156 173.81756591796875 C 440.8554992675781 200.7436065673828 441.5042724609375 246.57872009277344 440.12481689453125 185.6356964111328"/>
    <path stroke-width="0" fill="rgb(-4, -2, -3)" opacity="1.0138385" stroke="rgb(33, 182, 73)" stroke-opacity="1.0" stroke-linecap="round" stroke-linejoin="round" d="M 305.1758728027344 398.1679992675781 C 249.462890625 395.3636474609375 261.4141845703125 397.85888671875 667.0860595703125 396.234130859375 C 539.7905883789062 417.2253112792969 283.0847473144531 400.559814453125 282.705810546875 410.6221618652344 C 323.88055419921875 393.3751525878906 324.9543762207031 397.0558776855469 101.85968780517578 397.3631286621094 C 279.6868591308594 411.9564514160156 298.9751281738281 412.0119323730469 305.1758728027344 398.1679992675781"/>
    <path stroke-width="0" fill="rgb(165, 172, 163)" opacity="0.6414033" stroke="rgb(149, 5, 211)" stroke-opacity="1.0" stroke-linecap="round" stroke-linejoin="round" d="M 522.3250732421875 303.2557373046875 C 495.0352478027344 307.07391357421875 488.2531433105469 292.72796630859375 499.9774475097656 48.600830078125 C 439.97552490234375 4.212290287017822 469.04443359375 104.25731658935547 487.94500732421875 -57.36228942871094 C 423.89288330078125 -32.06654739379883 433.3778381347656 -36.32387161254883 469.7552490234375 -42.66332244873047 C 555.4288330078125 -45.57939910888672 543.9959106445312 -55.355979919433594 522.3250732421875 303.2557373046875"/>
    <path stroke-width="0" fill="rgb(253, 251, 257)" opacity="0.9959903" stroke="rgb(172, 68, 187)" stroke-opacity="1.0" stroke-linecap="round" stroke-linejoin="round" d="M 255.11807250976562 116.72724914550781 C 240.42100524902344 127.89219665527344 289.50433349609375 121.82048034667969 264.0893859863281 130.09190368652344 C 291.7702941894531 117.56436157226562 269.07958984375 136.3481903076172 18.78432846069336 109.40031433105469 C 634.4531860351562 109.94561004638672 609.7291259765625 109.26861572265625 519.7171020507812 136.00779724121094 C 437.3031311035156 114.3270492553711 225.7430877685547 137.86717224121094 255.11807250976562 116.72724914550781"/>
    <path stroke-width="0" fill="rgb(1, 5, 12)" opacity="1.0450008" stroke="rgb(63, 146, 150)" stroke-opacity="1.0" stroke-linecap="round" stroke-linejoin="round" d="M 383.6725158691406 107.0516128540039 C -4.799867630004883 102.38629150390625 32.43146514892578 99.4734878540039 467.0476989746094 98.29275512695312 C 144.59666442871094 88.54811096191406 -153.04054260253906 97.595458984375 203.4361572265625 94.04212951660156 C 179.39547729492188 93.96758270263672 5.305044174194336 99.88177490234375 -84.62921905517578 82.8398208618164 C 547.2520751953125 85.08063507080078 275.66455078125 75.33445739746094 383.6725158691406 107.0516128540039"/>
    <path stroke-width="0" fill="rgb(253, 255, 257)" opacity="1.0185165" stroke="rgb(56, 242, 114)" stroke-opacity="1.0" stroke-linecap="round" stroke-linejoin="round" d="M -14.643328666687012 136.3573760986328 C -132.3568115234375 145.10890197753906 -14.816241264343262 135.78916931152344 707.9118041992188 142.69273376464844 C 651.994384765625 125.34805297851562 384.9268798828125 130.4960174560547 19.34815788269043 130.14820861816406 C -69.12646484375 134.32586669921875 -152.821533203125 85.31504821777344 251.43214416503906 125.24391174316406 C -40.14406967163086 127.70550537109375 -92.39131164550781 119.71273040771484 -14.643328666687012 136.3573760986328"/>
    <path stroke-width="0" fill="rgb(31, 28, 31)" opacity="0.953485" stroke="rgb(178, 75, 207)" stroke-opacity="1.0" stroke-linecap="round" stroke-linejoin="round" d="M 187.3545379638672 323.34185791015625 C 114.3033447265625 311.0470886230469 127.92119598388672 293.80047607421875 247.0472412109375 306.5023193359375 C 189.68223571777344 329.4609069824219 109.4958724975586 327.31158447265625 37.027408599853516 321.37579345703125 C 158.01832580566406 312.2255554199219 185.70062255859375 321.5193786621094 119.15312957763672 319.38055419921875 C 133.37908935546875 325.29681396484375 148.26046752929688 305.97430419921875 187.3545379638672 323.34185791015625"/>
    <path stroke-width="0" fill="rgb(252, 262, 265)" opacity="1.0571048" stroke="rgb(224, 148, 224)" stroke-opacity="1.0" stroke-linecap="round" stroke-linejoin="round" d="M 483.043701171875 309.19830322265625 C 483.5095520019531 252.28211975097656 485.6128845214844 274.9576110839844 483.4637756347656 283.3341369628906 C 478.13592529296875 272.4911193847656 490.2637023925781 236.27268981933594 472.87371826171875 184.22215270996094 C 479.7683410644531 237.9305877685547 474.7162170410156 221.34512329101562 490.47528076171875 206.1240692138672 C 492.60845947265625 254.4570770263672 495.21612548828125 342.40460205078125 483.043701171875 309.19830322265625"/>
    <path stroke-width="0" fill="rgb(41, 45, 44)" opacity="0.69309026" stroke="rgb(184, 127, 243)" stroke-opacity="1.0" stroke-linecap="round" stroke-linejoin="round" d="M 107.50641632080078 324.51519775390625 C -26.575355529785156 330.136474609375 -39.11957931518555 314.9427185058594 1.3675285577774048 359.05792236328125 C 16.11354637145996 285.5617370605469 -1.1943720579147339 352.5103454589844 -63.24968719482422 323.3456115722656 C 32.845703125 310.9647216796875 63.482757568359375 310.30645751953125 81.47743225097656 317.69769287109375 C 25.617355346679688 304.75714111328125 47.1663932800293 290.2408447265625 107.50641632080078 324.51519775390625"/>
    <path stroke-width="0" fill="rgb(4, 26, 28)" opacity="0.9820493" stroke="rgb(108, 154, 4)" stroke-opacity="1.0" stroke-linecap="round" stroke-linejoin="round" d="M 193.492919921875 311.7225646972656 C 282.7059326171875 334.65496826171875 181.8278045654297 303.3769836425781 284.974853515625 328.69049072265625 C 55.379302978515625 326.0450439453125 -19.309101104736328 334.14825439453125 177.91053771972656 311.2624816894531 C 185.78121948242188 303.41607666015625 185.9253692626953 301.9269714355469 165.52049255371094 313.0439758300781 C 189.875 324.2460632324219 193.28404235839844 322.8572692871094 193.492919921875 311.7225646972656"/>
    <path stroke-width="0" fill="rgb(51, 36, 43)" opacity="0.9983287" stroke="rgb(168, 73, 157)" stroke-opacity="1.0" stroke-linecap="round" stroke-linejoin="round" d="M 288.7001647949219 327.24444580078125 C 164.98072814941406 315.00543212890625 139.7269744873047 325.1395568847656 414.41900634765625 296.912353515625 C 363.13140869140625 295.28857421875 117.03959655761719 296.3660583496094 -101.18466186523438 295.92877197265625 C 166.13607788085938 362.431884765625 218.640625 277.271484375 181.24644470214844 320.08172607421875 C 183.0316925048828 322.0203552246094 217.85084533691406 299.0317077636719 288.7001647949219 327.24444580078125"/>
    <path stroke-width="0" fill="rgb(26, 24, 26)" opacity="0.7509799" stroke="rgb(34, 76, 145)" stroke-opacity="1.0" stroke-linecap="round" stroke-linejoin="round" d="M 224.10572814941406 319.2618713378906 C 172.27603149414062 302.6679382324219 160.8684539794922 289.59320068359375 114.0680160522461 324.5378723144531 C 142.9710235595703 327.37738037109375 139.16966247558594 296.2215881347656 197.9518585205078 322.75775146484375 C 210.57679748535156 322.204833984375 221.71835327148438 324.94873046875 196.06561279296875 315.9092102050781 C 171.0683135986328 323.4941101074219 179.79660034179688 326.6430358886719 224.10572814941406 319.2618713378906"/>
    <path stroke-width="0" fill="rgb(0, 7, 11)" opacity="0.9813456" stroke="rgb(146, 166, 166)" stroke-opacity="1.0" stroke-linecap="round" stroke-linejoin="round" d="M 466.9817199707031 318.7627258300781 C 389.2377014160156 298.0179748535156 296.9555358886719 321.1474304199219 180.3135223388672 321.9749450683594 C 346.477294921875 330.1971435546875 334.82391357421875 323.0916442871094 310.7472229003906 336.9260559082031 C 305.65911865234375 328.8990478515625 294.2243957519531 312.1932678222656 313.014892578125 341.34698486328125 C 316.4692687988281 338.0955505371094 310.21392822265625 318.8771057128906 466.9817199707031 318.7627258300781"/>
    <path stroke-width="0" fill="rgb(191, 202, 198)" opacity="0.89023554" stroke="rgb(228, 93, 111)" stroke-opacity="1.0" stroke-linecap="round" stroke-linejoin="round" d="M 343.06878662109375 357.078125 C 401.3308410644531 359.9851989746094 292.7303161621094 365.4749450683594 304.77685546875 356.10357666015625 C 331.4300231933594 346.9241638183594 266.23431396484375 344.32733154296875 274.4660949707031 358.701171875 C 263.71539306640625 313.6465148925781 280.16522216796875 330.896728515625 290.7017822265625 328.77349853515625 C 350.0226745605469 330.47833251953125 316.1494445800781 315.90728759765625 343.06878662109375 357.078125"/>
    <path stroke-width="0" fill="rgb(23, 26, 21)" opacity="1.0000787" stroke="rgb(205, 179, 25)" stroke-opacity="1.0" stroke-linecap="round" stroke-linejoin="round" d="M 462.7167663574219 326.8207092285156 C 615.2783203125 327.59796142578125 546.3965454101562 320.4320373535156 500.9844055175781 320.7973327636719 C 420.93133544921875 349.4111328125 409.4445495605469 287.2335510253906 432.97509765625 310.9490661621094 C 513.5878295898438 306.4396667480469 505.8482666015625 283.3585205078125 532.3517456054688 291.9495544433594 C 462.9312744140625 293.68182373046875 538.4436645507812 319.3567810058594 462.7167663574219 326.8207092285156"/>
    <path stroke-width="0" fill="rgb(67, 85, 90)" opacity="1.0125693" stroke="rgb(182, 254, 38)" stroke-opacity="1.0" stroke-linecap="round" stroke-linejoin="round" d="M 480.2447509765625 174.8405303955078 C 496.3805847167969 211.88783264160156 452.45562744140625 205.2439422607422 525.8843383789062 210.6503448486328 C 486.7001037597656 217.24954223632812 514.05224609375 202.4091033935547 487.82623291015625 207.2718048095703 C 499.7991027832031 208.4589080810547 516.5985107421875 207.39601135253906 439.2919006347656 208.64598083496094 C 458.57208251953125 302.4978332519531 487.8720703125 304.1471862792969 480.2447509765625 174.8405303955078"/>
    <path stroke-width="0" fill="rgb(6, 1, 1)" opacity="0.611377" stroke="rgb(41, 156, 31)" stroke-opacity="1.0" stroke-linecap="round" stroke-linejoin="round" d="M 11.474504470825195 268.7197570800781 C 30.401859283447266 177.00149536132812 -59.519195556640625 208.9196319580078 265.7049560546875 204.20518493652344 C 186.29833984375 227.63624572753906 19.592594146728516 172.43304443359375 49.1109504699707 273.96331787109375 C 51.66223907470703 231.65167236328125 30.427352905273438 225.6622314453125 105.73822021484375 209.39588928222656 C -20.999370574951172 214.41864013671875 47.984771728515625 188.43988037109375 11.474504470825195 268.7197570800781"/>
    <path stroke-width="0" fill="rgb(22, 29, 33)" opacity="0.65471524" stroke="rgb(205, 145, 103)" stroke-opacity="1.0" stroke-linecap="round" stroke-linejoin="round" d="M 325.1266174316406 317.8570861816406 C 429.93145751953125 305.8671875 368.62652587890625 330.7574768066406 350.5711364746094 327.533447265625 C 302.72918701171875 328.7388610839844 231.20361328125 332.11407470703125 131.23098754882812 311.4812316894531 C -69.83431243896484 294.40032958984375 88.59815216064453 299.8262634277344 488.7237548828125 296.6134338378906 C 334.0535888671875 321.21734619140625 308.7732849121094 280.3244934082031 325.1266174316406 317.8570861816406"/>
    <path stroke-width="0" fill="rgb(0, -9, -4)" opacity="0.8040069" stroke="rgb(177, 115, 184)" stroke-opacity="1.0" stroke-linecap="round" stroke-linejoin="round" d="M 427.40411376953125 351.385498046875 C 626.9378051757812 353.8597412109375 666.1593627929688 356.6660461425781 547.0546264648438 377.97845458984375 C 96.50306701660156 375.99908447265625 -16.68258285522461 386.046630859375 347.75030517578125 351.00738525390625 C 424.3506774902344 360.84576416015625 372.2452087402344 336.642333984375 378.7643737792969 349.6072082519531 C 312.1211242675781 330.53704833984375 517.6405639648438 328.2173156738281 427.40411376953125 351.385498046875"/>
    <path stroke-width="0" fill="rgb(52, 44, 46)" opacity="1.0397723" stroke="rgb(248, 218, 2)" stroke-opacity="1.0" stroke-linecap="round" stroke-linejoin="round" d="M -51.664772033691406 505.6112060546875 C 475.94677734375 510.00146484375 498.9119873046875 497.88214111328125 52.13140869140625 499.8193664550781 C 61.82048416137695 450.84320068359375 57.38850021362305 478.5209045410156 -30.796276092529297 470.2029724121094 C 64.71500396728516 465.5589904785156 65.99140930175781 471.6563415527344 56.077545166015625 467.85467529296875 C 49.665340423583984 521.5128173828125 82.6275634765625 487.03656005859375 -51.664772033691406 505.6112060546875"/>
    <path stroke-width="0" fill="rgb(36, 35, 32)" opacity="1.0155947" stroke="rgb(186, 43, 132)" stroke-opacity="1.0" stroke-linecap="round" stroke-linejoin="round" d="M 326.94677734375 371.0064392089844 C 309.49920654296875 321.2838134765625 321.6749572753906 367.93658447265625 13.54369068145752 358.4040222167969 C 401.9557189941406 358.1523132324219 389.45758056640625 354.3320617675781 194.9956817626953 358.09417724609375 C 336.40142822265625 344.18115234375 206.1532440185547 359.04937744140625 -207.51336669921875 345.71527099609375 C -49.70928955078125 378.2618103027344 -29.136049270629883 359.48150634765625 326.94677734375 371.0064392089844"/>
    <path stroke-width="0" fill="rgb(7, 15, 5)" opacity="0.7054819" stroke="rgb(50, 4, 202)" stroke-opacity="1.0" stroke-linecap="round" stroke-linejoin="round" d="M 459.68890380859375 205.53196716308594 C 484.5287780761719 335.5042419433594 460.39434814453125 203.2119598388672 459.1788024902344 207.2641143798828 C 457.2955017089844 202.7052764892578 453.0936279296875 259.9173583984375 460.773193359375 223.15145874023438 C 443.4173278808594 319.1351318359375 475.857666015625 259.5784912109375 486.16314697265625 246.47918701171875 C 448.6923828125 299.27874755859375 466.3074951171875 278.2550964355469 459.68890380859375 205.53196716308594"/>
    <path stroke-width="0" fill="rgb(12, -11, 0)" opacity="0.96162295" stroke="rgb(88, 236, 179)" stroke-opacity="1.0" stroke-linecap="round" stroke-linejoin="round" d="M 492.828125 141.8911895751953 C 490.7313232421875 150.59091186523438 491.92950439453125 304.6767272949219 490.95245361328125 320.5726318359375 C 478.62542724609375 228.80642700195312 476.6300354003906 243.86239624023438 494.0650329589844 321.33984375 C 506.4095764160156 194.16400146484375 477.6721496582031 200.85784912109375 534.2778930664062 203.51162719726562 C 471.3842468261719 192.8136749267578 512.4066772460938 252.91744995117188 492.828125 141.8911895751953"/>
    <path stroke-width="0" fill="rgb(254, 255, 260)" opacity="1.0279335" stroke="rgb(41, 158, 147)" stroke-opacity="1.0" stroke-linecap="round" stroke-linejoin="round" d="M 319.7260437011719 307.964111328125 C 253.29432678222656 321.59344482421875 212.5518341064453 315.2589111328125 161.9320068359375 322.2920227050781 C 238.70606994628906 314.4727478027344 200.1275634765625 320.605712890625 86.10457611083984 312.6845703125 C 206.69854736328125 286.8502502441406 267.7463684082031 313.738525390625 274.0718994140625 300.1454162597656 C 262.74224853515625 315.4662780761719 275.5398254394531 294.51715087890625 319.7260437011719 307.964111328125"/>
    <path stroke-width="0" fill="rgb(259, 259, 258)" opacity="0.8659117" stroke="rgb(238, 156, 136)" stroke-opacity="1.0" stroke-linecap="round" stroke-linejoin="round" d="M 423.117919921875 274.30126953125 C 439.8229064941406 263.51666259765625 432.33721923828125 278.0692443847656 432.2535095214844 231.17352294921875 C 435.6053161621094 222.71099853515625 429.52978515625 212.60836791992188 434.73876953125 274.59564208984375 C 434.8735656738281 274.4515380859375 439.5200500488281 263.4867248535156 424.1699523925781 272.1014099121094 C 428.16448974609375 292.4073181152344 417.3897399902344 260.9349060058594 423.117919921875 274.30126953125"/>
    <path stroke-width="0" fill="rgb(34, 19, 45)" opacity="1.0098448" stroke="rgb(186, 79, 101)" stroke-opacity="1.0" stroke-linecap="round" stroke-linejoin="round" d="M 425.9855651855469 472.5392150878906 C 296.8724365234375 468.7084045410156 317.6357116699219 467.2289733886719 323.4837341308594 469.17645263671875 C 314.86651611328125 468.424072265625 279.9024963378906 467.5621643066406 607.91943359375 469.4151306152344 C 388.90374755859375 479.8002624511719 352.6523742675781 463.2861633300781 201.20603942871094 469.9971923828125 C 146.28302001953125 472.6324768066406 208.1088104248047 472.7123107910156 425.9855651855469 472.5392150878906"/>
    <path stroke-width="0" fill="rgb(-2, -2, -6)" opacity="0.55868536" stroke="rgb(47, 240, 188)" stroke-opacity="1.0" stroke-linecap="round" stroke-linejoin="round" d="M 273.5477294921875 355.83404541015625 C 294.3148498535156 332.0605163574219 298.1111755371094 369.1153259277344 503.0380859375 353.6666259765625 C 367.05291748046875 350.47906494140625 346.5393981933594 353.9061279296875 341.9726257324219 354.4696350097656 C 305.4998474121094 346.6699523925781 335.5526428222656 358.3082275390625 330.40545654296875 321.3786926269531 C 411.70147705078125 289.8987731933594 410.41302490234375 371.153076171875 273.5477294921875 355.83404541015625"/>
    <path stroke-width="0" fill="rgb(-11, -4, 1)" opacity="0.7871671" stroke="rgb(57, 64, 14)" stroke-opacity="1.0" stroke-linecap="round" stroke-linejoin="round" d="M 481.76678466796875 173.46607971191406 C 468.9505615234375 236.19094848632812 484.9649963378906 441.0037841796875 483.5128479003906 188.10108947753906 C 418.70989990234375 198.56964111328125 459.3111877441406 143.50830078125 438.9913635253906 349.6627502441406 C 438.8213195800781 150.2056121826172 438.555908203125 181.3744659423828 443.03271484375 183.5298309326172 C 435.0325012207031 165.92758178710938 487.8507080078125 178.99610900878906 481.76678466796875 173.46607971191406"/>
    <path stroke-width="0" fill="rgb(113, 124, 111)" opacity="0.99005234" stroke="rgb(79, 177, 96)" stroke-opacity="1.0" stroke-linecap="round" stroke-linejoin="round" d="M 632.5534057617188 76.34449005126953 C 544.9313354492188 158.9220733642578 543.1211547851562 174.59600830078125 503.49261474609375 188.82455444335938 C 494.84906005859375 165.33888244628906 494.8136901855469 57.070011138916016 498.97369384765625 53.378509521484375 C 519.6875610351562 111.5688247680664 507.53924560546875 84.13920593261719 496.0457763671875 48.0761604309082 C 404.6491394042969 9.593363761901855 442.79364013671875 -98.17121124267578 632.5534057617188 76.34449005126953"/>
    <path stroke-width="0" fill="rgb(263, 258, 266)" opacity="0.9980482" stroke="rgb(6, 17, 173)" stroke-opacity="1.0" stroke-linecap="round" stroke-linejoin="round" d="M 489.08856201171875 301.82476806640625 C 510.7329406738281 319.5347900390625 468.96807861328125 308.5219421386719 488.1271667480469 310.14453125 C 285.8775634765625 309.6067199707031 180.23606872558594 312.1544189453125 154.78079223632812 300.8686218261719 C 300.3451843261719 300.1457824707031 370.2698669433594 300.7878112792969 431.40338134765625 301.3408508300781 C 337.6138610839844 300.6946105957031 310.552734375 299.2662658691406 489.08856201171875 301.82476806640625"/>
    <path stroke-width="0" fill="rgb(32, 21, 44)" opacity="0.9321658" stroke="rgb(136, 228, 252)" stroke-opacity="1.0" stroke-linecap="round" stroke-linejoin="round" d="M -66.15676879882812 469.30572509765625 C 32.30452346801758 465.39208984375 81.09668731689453 469.8785400390625 24.0396785736084 467.02105712890625 C 86.00654602050781 467.63751220703125 157.40048217773438 467.3684997558594 343.4066162109375 467.7875061035156 C 381.6532287597656 474.48291015625 205.96998596191406 472.3204650878906 19.05116081237793 472.4734802246094 C 53.91854476928711 471.49212646484375 37.82436752319336 475.63775634765625 -66.15676879882812 469.30572509765625"/>
    <path stroke-width="0" fill="rgb(35, 36, 39)" opacity="0.87972385" stroke="rgb(169, 67, 5)" stroke-opacity="1.0" stroke-linecap="round" stroke-linejoin="round" d="M 120.28189849853516 318.1141662597656 C 112.97095489501953 338.5272216796875 53.719295501708984 310.8017578125 26.25779914855957 316.1960144042969 C 116.9293441772461 312.23272705078125 126.55647277832031 314.8279724121094 121.47405242919922 315.7012023925781 C 93.51945495605469 320.1574401855469 102.979736328125 326.1783142089844 134.46241760253906 322.57275390625 C 46.901126861572266 323.3372497558594 45.67952346801758 302.34539794921875 120.28189849853516 318.1141662597656"/>
    <path stroke-width="0" fill="rgb(259, 255, 264)" opacity="1.0196172" stroke="rgb(81, 97, 150)" stroke-opacity="1.0" stroke-linecap="round" stroke-linejoin="round" d="M 135.893310546875 324.2706298828125 C 118.63462829589844 308.503662109375 105.84710693359375 313.5234375 112.8811264038086 326.2496337890625 C 142.08909606933594 297.3000793457031 60.489227294921875 337.5617370605469 -55.632362365722656 300.5607604980469 C 208.40878295898438 300.6441650390625 250.19357299804688 299.90447998046875 186.75946044921875 301.386962890625 C 88.01044464111328 321.3840637207031 118.01099395751953 310.3899230957031 135.893310546875 324.2706298828125"/>
    <path stroke-width="0" fill="rgb(34, 17, 33)" opacity="0.98324025" stroke="rgb(160, 222, 69)" stroke-opacity="1.0" stroke-linecap="round" stroke-linejoin="round" d="M 487.0751647949219 441.9814147949219 C 351.0476379394531 439.0767822265625 413.62579345703125 431.3191833496094 -153.11595153808594 437.6639709472656 C 653.4434814453125 454.621337890625 500.0439147949219 416.1870422363281 501.15594482421875 433.11285400390625 C 278.44451904296875 449.9588928222656 549.0333251953125 438.1305236816406 248.32318115234375 435.8656005859375 C 504.1217956542969 435.9242248535156 626.0347900390625 434.60491943359375 487.0751647949219 441.9814147949219"/>
    <path stroke-width="0" fill="rgb(17, 22, 28)" opacity="0.9950803" stroke="rgb(241, 186, 64)" stroke-opacity="1.0" stroke-linecap="round" stroke-linejoin="round" d="M 373.7623596191406 310.50958251953125 C 5.697152614593506 341.7065734863281 -169.374755859375 324.5328674316406 16.006671905517578 317.53582763671875 C 104.51786041259766 318.5980529785156 29.090925216674805 315.2658996582031 -73.40277862548828 320.7421569824219 C -1.3048661947250366 317.52337646484375 34.21998977661133 338.5412292480469 -46.467350006103516 308.9552307128906 C -131.14617919921875 310.7562561035156 123.1883316040039 309.6114807128906 373.7623596191406 310.50958251953125"/>
    <path stroke-width="0" fill="rgb(257, 261, 266)" opacity="0.8570718" stroke="rgb(95, 118, 70)" stroke-opacity="1.0" stroke-linecap="round" stroke-linejoin="round" d="M 543.6445922851562 200.45477294921875 C 477.1918029785156 165.8175811767578 507.61688232421875 195.40802001953125 498.0787658691406 208.81484985351562 C 489.2410583496094 207.91192626953125 490.0655517578125 195.1358184814453 489.8205871582031 311.9944763183594 C 478.5819396972656 316.1622619628906 485.9687805175781 184.7780303955078 483.6912536621094 159.79725646972656 C 499.35479736328125 216.34429931640625 467.6910400390625 214.1575164794922 543.6445922851562 200.45477294921875"/>
    <path stroke-width="0" fill="rgb(39, 42, 51)" opacity="0.8277478" stroke="rgb(36, 124, 90)" stroke-opacity="1.0" stroke-linecap="round" stroke-linejoin="round" d="M 347.471435546875 487.5459289550781 C 345.6899719238281 513.0342407226562 328.7658386230469 510.28271484375 463.083740234375 501.8577880859375 C 385.81085205078125 501.7428894042969 359.4102478027344 497.4956359863281 307.95770263671875 501.87841796875 C 305.5593566894531 471.6915588378906 324.0107727050781 502.7240295410156 311.8471984863281 501.9655456542969 C 354.08538818359375 513.08740234375 362.8580627441406 494.3200988769531 347.471435546875 487.5459289550781"/>
    <path stroke-width="0" fill="rgb(206, 190, 202)" opacity="0.67407614" stroke="rgb(140, 149, 245)" stroke-opacity="1.0" stroke-linecap="round" stroke-linejoin="round" d="M 83.77216339111328 385.9796142578125 C 61.89402389526367 375.8026428222656 32.687042236328125 362.2026672363281 85.42371368408203 370.1507568359375 C 125.38591766357422 360.8044738769531 109.58468627929688 372.66766357421875 111.78250122070312 373.5506591796875 C 29.58829689025879 374.54803466796875 57.88286590576172 369.0245056152344 87.09405517578125 388.3009948730469 C 80.98452758789062 383.3746337890625 86.5166244506836 394.63568115234375 83.77216339111328 385.9796142578125"/>
    <path stroke-width="0" fill="rgb(69, 68, 65)" opacity="0.6609416" stroke="rgb(170, 200, 71)" stroke-opacity="1.0" stroke-linecap="round" stroke-linejoin="round" d="M 363.4412536621094 555.8133544921875 C 349.22821044921875 522.1339111328125 335.081787109375 494.0289611816406 354.92913818359375 504.14111328125 C 435.7018737792969 505.3460998535156 347.3243103027344 505.13916015625 318.2334899902344 505.3939208984375 C 360.1354675292969 511.46307373046875 346.8536071777344 473.7121887207031 347.7476806640625 494.82379150390625 C 336.08148193359375 513.2757568359375 359.8310852050781 532.603759765625 363.4412536621094 555.8133544921875"/>
    <path stroke-width="0" fill="rgb(39, 37, 31)" opacity="0.906399" stroke="rgb(16, 123, 249)" stroke-opacity="1.0" stroke-linecap="round" stroke-linejoin="round" d="M 352.71728515625 448.92034912109375 C 370.9840393066406 447.22930908203125 328.2671203613281 431.880615234375 393.1560974121094 446.52947998046875 C 346.9527893066406 437.7254333496094 366.5303039550781 429.908203125 359.7780456542969 448.0317687988281 C 395.5396423339844 444.88702392578125 387.843505859375 456.01190185546875 352.55670166015625 451.1529846191406 C 314.67333984375 449.5514831542969 317.9220886230469 449.8828430175781 352.71728515625 448.92034912109375"/>
    <path stroke-width="0" fill="rgb(12, 0, 3)" opacity="0.98208135" stroke="rgb(240, 203, 160)" stroke-opacity="1.0" stroke-linecap="round" stroke-linejoin="round" d="M -16.768653869628906 371.1748352050781 C 35.57627868652344 348.3840637207031 30.19972801208496 354.9589538574219 -1.1961019039154053 361.6388854980469 C 86.86453247070312 356.87872314453125 72.04621124267578 368.7304992675781 87.38351440429688 348.9632263183594 C 58.15200424194336 385.0945739746094 77.21231842041016 342.28851318359375 -26.49744415283203 377.2070007324219 C 140.58460998535156 380.4181823730469 376.0885009765625 370.1141052246094 -16.768653869628906 371.1748352050781"/>
    <path stroke-width="0" fill="rgb(42, 52, 61)" opacity="0.812134" stroke="rgb(88, 37, 250)" stroke-opacity="1.0" stroke-linecap="round" stroke-linejoin="round" d="M 349.1144714355469 505.1842346191406 C 338.3883361816406 477.29315185546875 357.8191833496094 482.6258544921875 350.873046875 536.3493041992188 C 389.8780212402344 540.511474609375 371.0663757324219 495.0354919433594 389.3467102050781 503.5929870605469 C 392.5089416503906 494.7204895019531 386.8127746582031 459.86871337890625 375.8858337402344 545.5221557617188 C 342.2678527832031 505.1520080566406 353.8761291503906 499.49444580078125 349.1144714355469 505.1842346191406"/>
    <path stroke-width="0" fill="rgb(28, 27, 44)" opacity="0.99463415" stroke="rgb(209, 48, 130)" stroke-opacity="1.0" stroke-linecap="round" stroke-linejoin="round" d="M 66.91763305664062 447.7650146484375 C 87.39856719970703 452.78436279296875 20.164875030517578 441.66473388671875 -53.68292999267578 451.00390625 C 102.32266235351562 452.6553039550781 108.21210479736328 450.5165710449219 100.54461669921875 451.4608154296875 C 83.11644744873047 450.0901794433594 87.46400451660156 447.18115234375 68.09114074707031 452.7658996582031 C 67.1998519897461 414.34527587890625 78.42081451416016 459.3218688964844 66.91763305664062 447.7650146484375"/>
    <path stroke-width="0" fill="rgb(35, 18, 22)" opacity="0.9195366" stroke="rgb(185, 2, 196)" stroke-opacity="1.0" stroke-linecap="round" stroke-linejoin="round" d="M 105.78878021240234 451.5994567871094 C 91.12901306152344 442.85369873046875 106.29024505615234 433.0267028808594 130.1890106201172 439.208984375 C 138.41329956054688 458.43585205078125 122.42161560058594 446.58795166015625 -11.223699569702148 452.5783996582031 C 128.4095916748047 448.8450012207031 136.5991973876953 456.3663635253906 136.21697998046875 442.6624755859375 C 136.52743530273438 434.3685607910156 95.53401947021484 427.3510437011719 105.78878021240234 451.5994567871094"/>
    <path stroke-width="0" fill="rgb(31, 36, 25)" opacity="1.0325474" stroke="rgb(20, 22, 171)" stroke-opacity="1.0" stroke-linecap="round" stroke-linejoin="round" d="M 461.49212646484375 493.35980224609375 C 442.49951171875 491.6138000488281 473.83245849609375 524.318115234375 501.52703857421875 494.63134765625 C 579.2174072265625 486.30950927734375 574.135986328125 489.62872314453125 141.27037048339844 488.9056091308594 C 329.1954345703125 497.7732238769531 621.427490234375 482.2111511230469 452.4053649902344 503.7331848144531 C 468.79541015625 488.8358154296875 457.208740234375 505.29510498046875 461.49212646484375 493.35980224609375"/>
    <path stroke-width="0" fill="rgb(-8, 8, 1)" opacity="0.78061044" stroke="rgb(107, 142, 219)" stroke-opacity="1.0" stroke-linecap="round" stroke-linejoin="round" d="M 349.0658874511719 431.34320068359375 C 282.2349853515625 431.9555358886719 343.13116455078125 430.6281433105469 315.25665283203125 438.38421630859375 C 395.595703125 439.7442932128906 341.645263671875 444.286865234375 313.68109130859375 440.0877990722656 C 348.2117004394531 423.6558837890625 313.8746643066406 436.984375 -24.393238067626953 426.17816162109375 C 746.395263671875 423.3506774902344 719.927734375 431.692626953125 349.0658874511719 431.34320068359375"/>
    <path stroke-width="0" fill="rgb(24, 41, 43)" opacity="1.0146564" stroke="rgb(68, 33, 14)" stroke-opacity="1.0" stroke-linecap="round" stroke-linejoin="round" d="M 167.22100830078125 437.2518005371094 C 150.0799102783203 454.56451416015625 221.22976684570312 443.28289794921875 -57.82534408569336 450.29364013671875 C 377.37640380859375 454.27008056640625 428.8500671386719 445.46820068359375 176.03297424316406 448.12335205078125 C 160.66357421875 445.7055358886719 170.27903747558594 456.3814392089844 167.45318603515625 436.1475830078125 C 168.82406616210938 430.4894714355469 171.55609130859375 450.2014465332031 167.22100830078125 437.2518005371094"/>
    <path stroke-width="0" fill="rgb(181, 165, 185)" opacity="0.7448258" stroke="rgb(66, 116, 174)" stroke-opacity="1.0" stroke-linecap="round" stroke-linejoin="round" d="M 240.77572631835938 368.40509033203125 C 206.50714111328125 364.9614562988281 193.43675231933594 362.2820129394531 237.4329376220703 374.1335144042969 C 198.81393432617188 362.83807373046875 191.71484375 354.2623596191406 153.84527587890625 334.1580810546875 C 189.4858856201172 350.5735168457031 196.78843688964844 365.498046875 235.49232482910156 369.6474609375 C 59.3115119934082 376.05462646484375 88.88493347167969 363.3003845214844 240.77572631835938 368.40509033203125"/>
    <path stroke-width="0" fill="rgb(26, 22, 17)" opacity="0.8815149" stroke="rgb(14, 177, 198)" stroke-opacity="1.0" stroke-linecap="round" stroke-linejoin="round" d="M 357.3163146972656 357.147216796875 C 383.8787536621094 361.72344970703125 373.01275634765625 359.7001037597656 398.40338134765625 359.7759094238281 C 419.9841613769531 349.1329345703125 414.3778381347656 345.1490173339844 413.68548583984375 342.91009521484375 C 427.5528259277344 365.67779541015625 416.5285949707031 333.13311767578125 411.1915588378906 354.8450927734375 C 428.77783203125 372.4519348144531 378.46112060546875 355.4217224121094 357.3163146972656 357.147216796875"/>
    <path stroke-width="0" fill="rgb(49, 47, 58)" opacity="0.8617248" stroke="rgb(66, 95, 149)" stroke-opacity="1.0" stroke-linecap="round" stroke-linejoin="round" d="M 432.2452697753906 519.1763916015625 C 411.3390808105469 490.65093994140625 448.5400390625 496.2970275878906 437.95904541015625 498.8537292480469 C 439.7334899902344 500.3421630859375 405.3865966796875 499.6145935058594 337.58599853515625 502.12359619140625 C 405.27691650390625 506.02044677734375 440.9398498535156 510.8026123046875 449.31671142578125 502.4224548339844 C 396.18499755859375 472.0132751464844 429.8729553222656 510.4551086425781 432.2452697753906 519.1763916015625"/>
    <path stroke-width="0" fill="rgb(44, 34, 41)" opacity="0.770886" stroke="rgb(203, 19, 132)" stroke-opacity="1.0" stroke-linecap="round" stroke-linejoin="round" d="M 574.7289428710938 511.9038391113281 C 539.5424194335938 499.8789978027344 248.4086456298828 513.798583984375 193.82205200195312 500.43408203125 C 448.8853759765625 498.43896484375 496.12322998046875 504.4298400878906 504.84808349609375 490.21514892578125 C 530.17724609375 495.14630126953125 579.4149169921875 490.33203125 413.1072998046875 489.2119445800781 C 505.9490661621094 485.5785217285156 468.7016906738281 495.14996337890625 574.7289428710938 511.9038391113281"/>
    <path stroke-width="0" fill="rgb(54, 56, 59)" opacity="1.0125333" stroke="rgb(109, 130, 136)" stroke-opacity="1.0" stroke-linecap="round" stroke-linejoin="round" d="M 131.39022827148438 504.4581604003906 C 134.29299926757812 475.4842834472656 128.66014099121094 497.7826843261719 125.57046508789062 488.4496154785156 C 124.63084411621094 524.574951171875 126.26455688476562 494.939208984375 126.73809814453125 504.5888671875 C 124.97041320800781 504.9238586425781 146.6865692138672 508.35791015625 117.37298583984375 505.9048767089844 C 118.60369873046875 499.0660705566406 123.83116912841797 511.2637939453125 131.39022827148438 504.4581604003906"/>
    <path stroke-width="0" fill="rgb(244, 246, 245)" opacity="0.8704188" stroke="rgb(70, 32, 100)" stroke-opacity="1.0" stroke-linecap="round" stroke-linejoin="round" d="M 403.42022705078125 86.70809173583984 C 420.11968994140625 77.86222839355469 435.3888854980469 86.71717834472656 405.49066162109375 93.24859619140625 C 410.3086242675781 92.5979232788086 437.09112548828125 81.42192840576172 420.6693115234375 91.38543701171875 C 426.7276611328125 91.71121215820312 424.52484130859375 74.74003601074219 403.3995056152344 87.33729553222656 C 388.6026916503906 94.75495910644531 394.8553161621094 91.91931915283203 403.42022705078125 86.70809173583984"/>
    <path stroke-width="0" fill="rgb(34, 28, 38)" opacity="0.9322275" stroke="rgb(47, 230, 138)" stroke-opacity="1.0" stroke-linecap="round" stroke-linejoin="round" d="M 229.6713409423828 451.9731140136719 C 226.27157592773438 434.41015625 235.9585418701172 440.6647033691406 230.79502868652344 450.6786193847656 C 432.003173828125 454.2682800292969 402.0645751953125 444.74041748046875 260.15692138671875 449.5937805175781 C 257.3369445800781 423.693359375 279.1716003417969 459.8724670410156 242.56802368164062 449.5194396972656 C 249.8334503173828 451.5796203613281 224.66297912597656 446.9038391113281 229.6713409423828 451.9731140136719"/>
    <path stroke-width="0" fill="rgb(208, 181, 205)" opacity="0.74405086" stroke="rgb(230, 175, 178)" stroke-opacity="1.0" stroke-linecap="round" stroke-linejoin="round" d="M 176.8173828125 367.8128967285156 C 179.94381713867188 377.5333557128906 233.39955139160156 362.19158935546875 259.4229736328125 363.89630126953125 C 228.45230102539062 364.6784362792969 228.2498016357422 359.69476318359375 241.14498901367188 370.8201904296875 C 229.78634643554688 372.51043701171875 225.51388549804688 369.62786865234375 417.92974853515625 371.2933044433594 C 116.07608032226562 356.5333251953125 315.0648498535156 381.3161926269531 176.8173828125 367.8128967285156"/>
    <path stroke-width="0" fill="rgb(210, 217, 221)" opacity="0.45247188" stroke="rgb(192, 162, 61)" stroke-opacity="1.0" stroke-linecap="round" stroke-linejoin="round" d="M 454.6686706542969 290.153076171875 C 463.3446960449219 291.81256103515625 439.5945129394531 294.48394775390625 447.20330810546875 256.2877502441406 C 442.6614990234375 281.1387634277344 449.5169982910156 288.7727355957031 458.2296142578125 291.590087890625 C 462.8882141113281 298.2374267578125 470.11871337890625 295.5694580078125 452.4877624511719 329.2514953613281 C 466.99713134765625 298.2129211425781 467.0623779296875 297.7333679199219 454.6686706542969 290.153076171875"/>
    <path stroke-width="0" fill="rgb(124, 129, 139)" opacity="0.7617495" stroke="rgb(209, 231, 207)" stroke-opacity="1.0" stroke-linecap="round" stroke-linejoin="round" d="M 556.4476318359375 498.4819030761719 C 399.96942138671875 504.33465576171875 431.8369140625 489.14306640625 428.30914306640625 518.538818359375 C 428.48480224609375 509.5971374511719 426.5582275390625 518.2174682617188 423.3047180175781 510.7582092285156 C 437.5931091308594 479.71728515625 394.96588134765625 495.5852966308594 498.42633056640625 493.4876403808594 C 435.10992431640625 468.1238708496094 418.0740966796875 482.04071044921875 556.4476318359375 498.4819030761719"/>
    <path stroke-width="0" fill="rgb(58, 73, 80)" opacity="0.79558104" stroke="rgb(160, 101, 15)" stroke-opacity="1.0" stroke-linecap="round" stroke-linejoin="round" d="M 390.1763000488281 272.64593505859375 C 488.64019775390625 273.4964294433594 242.53089904785156 243.79237365722656 295.6575927734375 203.969970703125 C 461.1739807128906 204.4925079345703 410.10467529296875 188.8040008544922 415.2203369140625 268.9423522949219 C 357.1981201171875 248.44708251953125 365.6462707519531 262.31964111328125 288.2687683105469 223.69308471679688 C 295.64520263671875 283.66021728515625 257.3840637207031 272.1746520996094 390.1763000488281 272.64593505859375"/>
    <path stroke-width="0" fill="rgb(32, 33, 30)" opacity="0.9831547" stroke="rgb(65, 216, 8)" stroke-opacity="1.0" stroke-linecap="round" stroke-linejoin="round" d="M 231.61972045898438 491.5315246582031 C 220.23916625976562 489.29583740234375 124.14057159423828 488.0560302734375 -114.99458312988281 489.7929992675781 C 238.03497314453125 495.7741394042969 210.24295043945312 482.5322570800781 204.56556701660156 504.6726379394531 C 193.98895263671875 484.0086364746094 193.26788330078125 497.7984313964844 298.5070495605469 491.02154541015625 C 178.04881286621094 490.4494934082031 198.20538330078125 493.7743225097656 231.61972045898438 491.5315246582031"/>
    <path stroke-width="0" fill="rgb(26, 34, 39)" opacity="0.7716494" stroke="rgb(90, 90, 4)" stroke-opacity="1.0" stroke-linecap="round" stroke-linejoin="round" d="M 278.35687255859375 437.73883056640625 C 276.2208557128906 431.27423095703125 278.7774963378906 439.7796936035156 289.901123046875 438.1039123535156 C 302.12945556640625 448.8032531738281 286.2143249511719 438.3690490722656 287.4925231933594 433.7161560058594 C 292.1806640625 468.69818115234375 363.28515625 440.9568786621094 287.4797058105469 452.2892150878906 C 303.30194091796875 441.3398132324219 302.8472900390625 445.3016052246094 278.35687255859375 437.73883056640625"/>
    <path stroke-width="0" fill="rgb(32, 22, 15)" opacity="0.7658828" stroke="rgb(102, 236, 25)" stroke-opacity="1.0" stroke-linecap="round" stroke-linejoin="round" d="M -26.038808822631836 438.23046875 C 57.875701904296875 448.9884338378906 24.73710823059082 432.4617614746094 -6.682705879211426 439.4345397949219 C 128.44418334960938 440.5848388671875 156.5771942138672 418.6952819824219 -73.43981170654297 427.54522705078125 C 146.86399841308594 436.3922424316406 107.63201141357422 420.2313232421875 82.20143127441406 440.8265075683594 C 45.37938690185547 443.15667724609375 23.918107986450195 439.24346923828125 -26.038808822631836 438.23046875"/>
    <path stroke-width="0" fill="rgb(75, 75, 69)" opacity="0.9115299" stroke="rgb(221, 115, 83)" stroke-opacity="1.0" stroke-linecap="round" stroke-linejoin="round" d="M 559.28662109375 362.45050048828125 C 452.23553466796875 347.84423828125 433.3105773925781 368.2669982910156 451.7508850097656 359.5799560546875 C 474.8697814941406 356.5954284667969 466.93438720703125 354.27606201171875 468.8692626953125 357.1507568359375 C 482.85614013671875 356.1861267089844 431.20159912109375 356.6690979003906 116.32339477539062 356.9397277832031 C 404.75030517578125 365.6570129394531 488.0794677734375 355.604248046875 559.28662109375 362.45050048828125"/>
    <path stroke-width="0" fill="rgb(58, 59, 70)" opacity="0.45228064" stroke="rgb(33, 3, 29)" stroke-opacity="1.0" stroke-linecap="round" stroke-linejoin="round" d="M 435.2318115234375 509.6080017089844 C 454.6524658203125 491.4736328125 453.6170959472656 513.7974853515625 450.8541259765625 518.9952392578125 C 438.58154296875 489.00384521484375 471.38995361328125 514.5389404296875 457.97967529296875 489.1812438964844 C 442.6661682128906 541.6817016601562 478.2369689941406 525.7545166015625 450.5695495605469 526.3966064453125 C 446.4642028808594 505.5941162109375 452.3126525878906 493.748291015625 435.2318115234375 509.6080017089844"/>
    <path stroke-width="0" fill="rgb(108, 110, 124)" opacity="0.48533192" stroke="rgb(162, 125, 252)" stroke-opacity="1.0" stroke-linecap="round" stroke-linejoin="round" d="M 231.5751190185547 116.64326477050781 C 241.291259765625 93.13983154296875 239.36231994628906 98.66688537597656 235.09361267089844 104.0146255493164 C 234.5550537109375 103.86737060546875 235.8020477294922 103.89579010009766 234.14454650878906 104.35615539550781 C 237.05653381347656 103.42625427246094 244.15382385253906 91.82255554199219 245.11184692382812 70.26081848144531 C 244.95840454101562 88.6550064086914 238.03221130371094 100.66278076171875 231.5751190185547 116.64326477050781"/>
    <path stroke-width="0" fill="rgb(25, 31, 34)" opacity="0.9435831" stroke="rgb(199, 73, 61)" stroke-opacity="1.0" stroke-linecap="round" stroke-linejoin="round" d="M 419.0860290527344 439.73321533203125 C 347.59759521484375 432.5403137207031 389.7097473144531 468.07977294921875 621.8712768554688 439.6026306152344 C 291.3405456542969 466.186279296875 488.20953369140625 417.9276428222656 370.0156555175781 451.22039794921875 C 452.61505126953125 450.94000244140625 392.1911315917969 457.15362548828125 437.661376953125 436.55462646484375 C 312.13616943359375 450.4134521484375 365.52197265625 433.0799255371094 419.0860290527344 439.73321533203125"/>
    <path stroke-width="0" fill="rgb(19, 12, 17)" opacity="0.7613605" stroke="rgb(62, 169, 131)" stroke-opacity="1.0" stroke-linecap="round" stroke-linejoin="round" d="M -24.258569717407227 367.64996337890625 C 10.783781051635742 441.6786193847656 -12.185037612915039 457.9698486328125 -51.644073486328125 434.25811767578125 C 27.624366760253906 426.7044677734375 40.041831970214844 426.8701171875 40.634727478027344 451.65618896484375 C 23.7198543548584 437.7961120605469 59.84273910522461 427.9051513671875 -2.413996934890747 432.1488342285156 C 26.565053939819336 465.474853515625 -1.9293380975723267 461.7649841308594 -24.258569717407227 367.64996337890625"/>
    <path stroke-width="0" fill="rgb(37, 32, 36)" opacity="0.8441542" stroke="rgb(141, 73, 180)" stroke-opacity="1.0" stroke-linecap="round" stroke-linejoin="round" d="M 374.322998046875 451.0419616699219 C 356.2303771972656 455.226806640625 355.6846923828125 438.9302062988281 358.3927307128906 437.0805358886719 C 363.38006591796875 464.4807434082031 330.31683349609375 444.7810974121094 359.7229309082031 449.7115478515625 C 358.539794921875 450.5913391113281 341.77667236328125 429.61932373046875 396.23089599609375 437.9879150390625 C 352.3857421875 432.44964599609375 347.73199462890625 455.5813293457031 374.322998046875 451.0419616699219"/>
    <path stroke-width="0" fill="rgb(218, 198, 221)" opacity="0.63944674" stroke="rgb(247, 230, 75)" stroke-opacity="1.0" stroke-linecap="round" stroke-linejoin="round" d="M 466.2806091308594 367.5867004394531 C 413.76055908203125 365.6494140625 350.7379455566406 372.69525146484375 458.5265197753906 370.73223876953125 C 452.9482421875 361.2716064453125 461.1686096191406 360.1355285644531 466.9289855957031 370.34259033203125 C 527.3198852539062 376.35504150390625 593.2232055664062 365.5780334472656 465.00384521484375 365.39300537109375 C 471.21484375 377.6109313964844 473.600341796875 384.33868408203125 466.2806091308594 367.5867004394531"/>
    <path stroke-width="0" fill="rgb(115, 116, 124)" opacity="0.55921537" stroke="rgb(63, 27, 242)" stroke-opacity="1.0" stroke-linecap="round" stroke-linejoin="round" d="M 213.04037475585938 111.31964111328125 C 198.3377685546875 99.75056457519531 186.94252014160156 88.8582763671875 186.79344177246094 97.63407897949219 C 193.5343780517578 84.70964050292969 189.75674438476562 97.91197967529297 187.5634002685547 92.50701141357422 C 201.2926025390625 106.61638641357422 205.21542358398438 96.63300323486328 197.6532745361328 111.97716522216797 C 203.06895446777344 97.72478485107422 203.7763214111328 105.97775268554688 213.04037475585938 111.31964111328125"/>
    <path stroke-width="0" fill="rgb(52, 49, 48)" opacity="0.8540508" stroke="rgb(175, 14, 186)" stroke-opacity="1.0" stroke-linecap="round" stroke-linejoin="round" d="M 13.922478675842285 488.9762268066406 C 26.822824478149414 508.80450439453125 14.966818809509277 501.9093933105469 -39.02767562866211 508.4479064941406 C -16.438310623168945 524.45751953125 -25.518293380737305 508.7591857910156 -15.978522300720215 488.513671875 C -21.320514678955078 458.57012939453125 -29.26004981994629 447.3262939453125 -37.37915802001953 494.3634948730469 C -30.341567993164062 513.5123291015625 1.7204045057296753 529.089111328125 13.922478675842285 488.9762268066406"/>
    <path stroke-width="0" fill="rgb(210, 209, 197)" opacity="0.58009005" stroke="rgb(69, 96, 95)" stroke-opacity="1.0" stroke-linecap="round" stroke-linejoin="round" d="M 328.1412048339844 73.9238510131836 C 352.7323913574219 85.72355651855469 296.3580017089844 61.0190544128418 371.3518371582031 91.25144958496094 C 386.9854431152344 88.70064544677734 361.79400634765625 99.0272216796875 354.6854553222656 93.99117279052734 C 281.6087951660156 96.5866470336914 251.626953125 90.69722747802734 362.9378967285156 98.9934310913086 C 374.482421875 90.33357238769531 358.8611145019531 85.17964172363281 328.1412048339844 73.9238510131836"/>
    <path stroke-width="0" fill="rgb(44, 40, 49)" opacity="0.8077713" stroke="rgb(60, 43, 114)" stroke-opacity="1.0" stroke-linecap="round" stroke-linejoin="round" d="M 435.12847900390625 347.4141845703125 C 419.2922058105469 334.4702453613281 423.175537109375 337.23675537109375 429.3458251953125 374.1739501953125 C 441.7314147949219 357.8995666503906 418.1080322265625 374.9006042480469 418.78289794921875 325.745361328125 C 417.98150634765625 350.7508239746094 455.29443359375 359.4285583496094 452.1289367675781 315.6423645019531 C 420.3307189941406 366.75433349609375 439.7613830566406 356.81268310546875 435.12847900390625 347.4141845703125"/>
    <path stroke-width="0" fill="rgb(50, 56, 58)" opacity="0.71759146" stroke="rgb(213, 60, 128)" stroke-opacity="1.0" stroke-linecap="round" stroke-linejoin="round" d="M 317.9076843261719 160.5740509033203 C 328.2382507324219 112.86095428466797 316.619140625 129.01895141601562 317.0073547363281 129.2261962890625 C 327.1331787109375 123.5555648803711 315.95556640625 124.95477294921875 319.76544189453125 126.03356170654297 C 322.39801025390625 121.94081115722656 324.8526916503906 138.65635681152344 317.586669921875 158.5486297607422 C 321.87762451171875 140.19068908691406 320.7904968261719 138.3737335205078 317.9076843261719 160.5740509033203"/>
    <path stroke-width="0" fill="rgb(51, 41, 46)" opacity="0.5822216" stroke="rgb(161, 221, 239)" stroke-opacity="1.0" stroke-linecap="round" stroke-linejoin="round" d="M 148.6339569091797 451.6874084472656 C 227.6371612548828 429.8138732910156 223.28689575195312 419.6588439941406 229.19004821777344 444.84228515625 C 247.9663848876953 435.79022216796875 255.3253173828125 432.7607116699219 238.17694091796875 440.5357971191406 C 212.00314331054688 451.52825927734375 241.50057983398438 457.32647705078125 228.2602996826172 441.7527770996094 C 222.9125518798828 420.3785705566406 223.29835510253906 431.09930419921875 148.6339569091797 451.6874084472656"/>
    <path stroke-width="0" fill="rgb(5, 20, 10)" opacity="0.6729578" stroke="rgb(228, 103, 140)" stroke-opacity="1.0" stroke-linecap="round" stroke-linejoin="round" d="M 220.10305786132812 431.4420166015625 C 11.830789566040039 425.3851623535156 -85.73533630371094 434.3494873046875 149.52935791015625 431.27520751953125 C 180.74217224121094 432.3159484863281 154.34983825683594 419.626220703125 168.42156982421875 450.16180419921875 C 162.81492614746094 426.2261657714844 173.24758911132812 437.8564758300781 157.0232391357422 440.61639404296875 C 180.46986389160156 428.5805969238281 122.21659851074219 431.5145263671875 220.10305786132812 431.4420166015625"/>
    <path stroke-width="0" fill="rgb(249, 249, 256)" opacity="0.6999115" stroke="rgb(116, 102, 63)" stroke-opacity="1.0" stroke-linecap="round" stroke-linejoin="round" d="M 457.22418212890625 114.10700225830078 C 449.4779357910156 119.45182800292969 459.714599609375 115.85118865966797 478.04669189453125 119.60980987548828 C 450.443115234375 129.1953887939453 458.1493225097656 108.48871612548828 481.2253723144531 119.16574096679688 C 469.720703125 117.75328063964844 460.1065673828125 107.8269271850586 445.09588623046875 112.82593536376953 C 502.3998107910156 119.72523498535156 507.9036865234375 130.12571716308594 457.22418212890625 114.10700225830078"/>
    <path stroke-width="0" fill="rgb(100, 112, 112)" opacity="0.2909513" stroke="rgb(85, 235, 219)" stroke-opacity="1.0" stroke-linecap="round" stroke-linejoin="round" d="M 459.94183349609375 151.28744506835938 C 469.4516296386719 110.3358383178711 451.3352966308594 125.77799224853516 441.26593017578125 116.23823547363281 C 432.86492919921875 112.82864379882812 426.89764404296875 117.18231964111328 428.16729736328125 117.14071655273438 C 443.04132080078125 110.7132797241211 437.06317138671875 119.3974609375 458.1263427734375 121.59199523925781 C 455.4324035644531 119.27263641357422 467.1040344238281 127.45993041992188 459.94183349609375 151.28744506835938"/>
    <path stroke-width="0" fill="rgb(243, 246, 244)" opacity="0.8034232" stroke="rgb(64, 113, 26)" stroke-opacity="1.0" stroke-linecap="round" stroke-linejoin="round" d="M 477.1011962890625 87.38648223876953 C 459.0401306152344 82.52269744873047 478.7041320800781 103.67948913574219 487.55059814453125 93.53681182861328 C 446.0568542480469 83.44062805175781 438.4619445800781 69.20610046386719 446.0049133300781 91.5917739868164 C 493.4547424316406 98.06912994384766 497.8930358886719 89.38298797607422 483.7853088378906 81.12407684326172 C 460.86163330078125 93.92021179199219 477.9781188964844 100.84661102294922 477.1011962890625 87.38648223876953"/>
    <path stroke-width="0" fill="rgb(67, 212, 39)" opacity="0.16082634" stroke="rgb(0, 0, 0)" stroke-opacity="0.0" stroke-linecap="round" stroke-linejoin="round" d="M 31.078519821166992 13.902603149414062 C 31.28336524963379 19.009319305419922 29.94489860534668 22.137981414794922 26.252809524536133 21.44110870361328 C 20.632125854492188 20.228618621826172 17.657705307006836 17.2012882232666 16.562606811523438 12.977127075195312 C 16.417062759399414 8.561359405517578 19.042823791503906 4.856308460235596 23.40605354309082 4.1996917724609375 C 27.727867126464844 7.322387218475342 30.59795379638672 10.195877075195312 31.078519821166992 13.902603149414062"/>
    <path stroke-width="0" fill="rgb(215, 134, 220)" opacity="0.14681877" stroke="rgb(0, 0, 0)" stroke-opacity="0.0" stroke-linecap="round" stroke-linejoin="round" d="M 11.9038724899292 8.953378677368164 C 14.085556983947754 13.508434295654297 11.195260047912598 15.014567375183105 4.973257541656494 15.043045997619629 C -0.4919950067996979 15.872220993041992 -3.1294994354248047 12.771886825561523 -3.3189146518707275 7.750926494598389 C -1.6666021347045898 3.3373382091522217 1.4091662168502808 0.5855275988578796 4.46805477142334 -0.16318872570991516 C 8.597360610961914 0.9891060590744019 11.646219253540039 3.7938146591186523 11.9038724899292 8.953378677368164"/>
    <path stroke-width="0" fill="rgb(88, 60, 21)" opacity="0.8408088" stroke="rgb(0, 0, 0)" stroke-opacity="0.0" stroke-linecap="round" stroke-linejoin="round" d="M 220.67921447753906 414.343505859375 C 219.49136352539062 418.1683349609375 216.07565307617188 420.7029724121094 212.812744140625 422.5422668457031 C 209.76748657226562 421.6961364746094 206.83847045898438 418.7205810546875 205.41168212890625 414.5279846191406 C 205.23239135742188 409.6873779296875 207.851318359375 406.8804626464844 212.57882690429688 406.89349365234375 C 218.40322875976562 407.4970703125 221.15673828125 410.02459716796875 220.67921447753906 414.343505859375"/>
    <path stroke-width="0" fill="rgb(44, 29, 229)" opacity="0.05687726" stroke="rgb(0, 0, 0)" stroke-opacity="0.0" stroke-linecap="round" stroke-linejoin="round" d="M -63.52384948730469 10.535773277282715 C -64.59564208984375 14.535773277282715 -67.52384948730469 17.46397590637207 -71.52384948730469 18.53577423095703 C -75.52384948730469 17.46397590637207 -78.4520492553711 14.535773277282715 -79.52384948730469 10.535773277282715 C -78.4520492553711 6.535773754119873 -75.52384948730469 3.6075704097747803 -71.52384948730469 2.535773515701294 C -67.52384948730469 3.6075704097747803 -64.59564208984375 6.535773754119873 -63.52384948730469 10.535773277282715"/>
    <path stroke-width="0" fill="rgb(140, 98, 88)" opacity="0.72946817" stroke="rgb(0, 0, 0)" stroke-opacity="0.0" stroke-linecap="round" stroke-linejoin="round" d="M 47.32484436035156 188.07789611816406 C 46.264984130859375 191.1738739013672 43.53385925292969 194.3165283203125 40.6058464050293 195.28759765625 C 36.581207275390625 193.70599365234375 33.4094352722168 191.1851806640625 32.69844436645508 188.10028076171875 C 34.21826171875 184.98886108398438 37.196720123291016 181.84686279296875 40.29963684082031 180.38949584960938 C 43.844383239746094 180.51390075683594 46.29065704345703 184.00413513183594 47.32484436035156 188.07789611816406"/>
    <path stroke-width="0" fill="rgb(114, 220, 151)" opacity="0.7875985" stroke="rgb(0, 0, 0)" stroke-opacity="0.0" stroke-linecap="round" stroke-linejoin="round" d="M 343.64886474609375 264.6175537109375 C 342.9291687011719 268.6727294921875 340.6031494140625 271.8288269042969 337.3471374511719 271.593017578125 C 333.58636474609375 270.66552734375 330.20355224609375 268.01641845703125 329.76123046875 264.0751953125 C 328.9969482421875 260.0028991699219 332.0382385253906 257.9134216308594 336.71295166015625 257.42352294921875 C 340.9085388183594 257.525634765625 343.4711608886719 260.63385009765625 343.64886474609375 264.6175537109375"/>
    <path stroke-width="0" fill="rgb(53, 226, 19)" opacity="0.31503686" stroke="rgb(0, 0, 0)" stroke-opacity="0.0" stroke-linecap="round" stroke-linejoin="round" d="M 208.2893524169922 79.87018585205078 C 207.93479919433594 84.30730438232422 205.27371215820312 87.26612091064453 201.39515686035156 87.64828491210938 C 197.9556427001953 86.34480285644531 195.1040802001953 83.2175064086914 193.027587890625 79.8585205078125 C 194.42938232421875 76.36500549316406 197.02516174316406 72.93074798583984 201.04307556152344 71.40252685546875 C 205.06581115722656 73.2044677734375 208.03738403320312 76.22836303710938 208.2893524169922 79.87018585205078"/>
    <path stroke-width="0" fill="rgb(71, 47, 85)" opacity="0.7683786" stroke="rgb(0, 0, 0)" stroke-opacity="0.0" stroke-linecap="round" stroke-linejoin="round" d="M 251.0843048095703 419.80157470703125 C 250.6729278564453 424.3416748046875 248.03466796875 427.2850646972656 243.16880798339844 427.3973693847656 C 238.5178680419922 427.71636962890625 235.67726135253906 424.8300476074219 236.56686401367188 420.9635925292969 C 237.09510803222656 416.07354736328125 239.69058227539062 413.1328430175781 243.61376953125 411.8549499511719 C 247.46160888671875 412.96246337890625 250.5069122314453 415.8245544433594 251.0843048095703 419.80157470703125"/>
    <path stroke-width="0" fill="rgb(175, 103, 83)" opacity="0.69323707" stroke="rgb(0, 0, 0)" stroke-opacity="0.0" stroke-linecap="round" stroke-linejoin="round" d="M 123.91722106933594 35.09712219238281 C 123.25942993164062 39.337928771972656 120.54784393310547 42.2662467956543 116.75237274169922 42.83921432495117 C 112.74327850341797 41.68117904663086 109.6927261352539 39.01886749267578 108.70763397216797 35.34132766723633 C 109.80816650390625 31.32062339782715 112.2873764038086 28.04194450378418 115.32612609863281 28.322050094604492 C 120.12467956542969 28.92529296875 123.17121887207031 31.433183670043945 123.91722106933594 35.09712219238281"/>
    <path stroke-width="0" fill="rgb(52, 240, 45)" opacity="0.29097897" stroke="rgb(0, 0, 0)" stroke-opacity="0.0" stroke-linecap="round" stroke-linejoin="round" d="M 381.23748779296875 417.7598571777344 C 379.95538330078125 421.6220397949219 376.6318359375 424.2299499511719 372.4400329589844 425.41778564453125 C 368.84228515625 424.1038818359375 365.4585876464844 421.3754577636719 363.9316101074219 417.3910827636719 C 365.1441955566406 413.0221252441406 368.41680908203125 410.40826416015625 372.3451232910156 408.9184875488281 C 376.0289306640625 410.88922119140625 379.0690612792969 414.0013427734375 381.23748779296875 417.7598571777344"/>
    <path stroke-width="0" fill="rgb(130, 211, 226)" opacity="0.19188496" stroke="rgb(0, 0, 0)" stroke-opacity="0.0" stroke-linecap="round" stroke-linejoin="round" d="M 184.1819610595703 245.78045654296875 C 183.05203247070312 249.4180450439453 181.053466796875 253.1644287109375 177.34996032714844 253.72659301757812 C 173.58993530273438 252.2084503173828 170.6435089111328 249.0810089111328 168.770751953125 245.4808349609375 C 169.68089294433594 241.51959228515625 172.66180419921875 238.57533264160156 177.489501953125 237.21084594726562 C 180.8223419189453 238.51568603515625 183.38682556152344 242.1050567626953 184.1819610595703 245.78045654296875"/>
    <path stroke-width="0" fill="rgb(80, 89, 121)" opacity="0.7134022" stroke="rgb(0, 0, 0)" stroke-opacity="0.0" stroke-linecap="round" stroke-linejoin="round" d="M 64.29637908935547 235.7443084716797 C 64.10893249511719 239.53627014160156 61.87908172607422 242.97825622558594 57.48311233520508 242.9405517578125 C 52.502532958984375 242.37161254882812 49.702049255371094 239.5819854736328 48.22504425048828 234.88482666015625 C 49.38003921508789 230.20834350585938 52.60481643676758 227.96397399902344 56.94312286376953 226.47254943847656 C 60.124881744384766 228.7374267578125 62.92817306518555 232.1155242919922 64.29637908935547 235.7443084716797"/>
    <path stroke-width="0" fill="rgb(55, 227, 131)" opacity="0.94865835" stroke="rgb(0, 0, 0)" stroke-opacity="0.0" stroke-linecap="round" stroke-linejoin="round" d="M 456.9813537597656 376.9106140136719 C 456.363037109375 379.4135437011719 453.19488525390625 382.16583251953125 450.14697265625 383.7976379394531 C 446.9217834472656 382.17626953125 442.3857421875 379.9927978515625 442.01129150390625 377.8550109863281 C 445.3334045410156 374.402099609375 448.1809997558594 371.1439208984375 449.18365478515625 369.494140625 C 452.4346008300781 371.1890563964844 455.9889221191406 373.5296325683594 456.9813537597656 376.9106140136719"/>
    <path stroke-width="0" fill="rgb(74, 142, 230)" opacity="0.7715012" stroke="rgb(0, 0, 0)" stroke-opacity="0.0" stroke-linecap="round" stroke-linejoin="round" d="M 280.2754211425781 147.8526153564453 C 280.2176208496094 152.48599243164062 277.829345703125 155.40087890625 273.45306396484375 156.2051239013672 C 270.04052734375 155.57179260253906 267.6089172363281 152.20529174804688 267.0006408691406 147.97653198242188 C 266.5319519042969 144.05856323242188 269.3143310546875 141.3760528564453 273.5384216308594 141.55999755859375 C 278.4207458496094 141.6041717529297 281.0070495605469 144.01177978515625 280.2754211425781 147.8526153564453"/>
    <path stroke-width="0" fill="rgb(131, 222, 216)" opacity="0.1881725" stroke="rgb(0, 0, 0)" stroke-opacity="0.0" stroke-linecap="round" stroke-linejoin="round" d="M 360.85235595703125 192.491455078125 C 359.8792724609375 196.4105224609375 357.3350830078125 199.68289184570312 353.6933288574219 200.3617706298828 C 349.8176574707031 199.46214294433594 347.0945129394531 196.37632751464844 345.3723449707031 192.04786682128906 C 346.44317626953125 188.8802032470703 349.9596862792969 186.67544555664062 353.863525390625 185.6216583251953 C 357.6719970703125 185.8563232421875 360.3758544921875 188.65257263183594 360.85235595703125 192.491455078125"/>
    <path stroke-width="0" fill="rgb(60, 129, 186)" opacity="0.088685565" stroke="rgb(0, 0, 0)" stroke-opacity="0.0" stroke-linecap="round" stroke-linejoin="round" d="M 46.694149017333984 78.60354614257812 C 45.77583312988281 82.58702087402344 42.78617477416992 85.35728454589844 38.9922981262207 86.48253631591797 C 35.10625076293945 85.01624298095703 32.01578140258789 82.5099105834961 30.882015228271484 78.31809997558594 C 31.171920776367188 73.91629028320312 34.34607696533203 71.35286712646484 38.64685821533203 70.50101470947266 C 42.6170768737793 71.88939666748047 45.64122009277344 74.90536499023438 46.694149017333984 78.60354614257812"/>
    <path stroke-width="0" fill="rgb(168, 145, 8)" opacity="0.471877" stroke="rgb(0, 0, 0)" stroke-opacity="0.0" stroke-linecap="round" stroke-linejoin="round" d="M 488.1926574707031 117.40184783935547 C 487.6795959472656 121.27525329589844 484.5559387207031 123.93074035644531 480.9380187988281 124.562744140625 C 477.0191345214844 123.46702575683594 474.3003845214844 120.3863525390625 472.7658386230469 116.12015533447266 C 473.412353515625 112.96417236328125 476.60284423828125 110.5777587890625 480.88800048828125 109.96995544433594 C 484.844970703125 110.09461212158203 487.5030822753906 112.73924255371094 488.1926574707031 117.40184783935547"/>
    <path stroke-width="0" fill="rgb(128, 16, 55)" opacity="0.9120151" stroke="rgb(0, 0, 0)" stroke-opacity="0.0" stroke-linecap="round" stroke-linejoin="round" d="M 188.93922424316406 295.6658630371094 C 187.50100708007812 298.6026611328125 184.4039306640625 301.2463073730469 180.46397399902344 301.7237548828125 C 177.1334228515625 301.97216796875 173.35740661621094 299.7740478515625 172.8498992919922 295.86590576171875 C 175.5369415283203 292.5257263183594 178.33775329589844 289.3018798828125 180.17230224609375 288.8148193359375 C 183.92510986328125 289.806396484375 187.32464599609375 292.4978332519531 188.93922424316406 295.6658630371094"/>
    <path stroke-width="0" fill="rgb(109, 12, 105)" opacity="0.45953915" stroke="rgb(0, 0, 0)" stroke-opacity="0.0" stroke-linecap="round" stroke-linejoin="round" d="M 62.040714263916016 146.7783966064453 C 61.746219635009766 151.3883056640625 59.366371154785156 154.35581970214844 55.864933013916016 154.24105834960938 C 51.32648849487305 153.6413116455078 48.77095413208008 150.8600311279297 48.01053237915039 146.517578125 C 47.680458068847656 142.76136779785156 50.77070617675781 140.5161590576172 55.751136779785156 139.43870544433594 C 59.146366119384766 140.02841186523438 61.96255111694336 143.19549560546875 62.040714263916016 146.7783966064453"/>
    <path stroke-width="0" fill="rgb(68, 157, 163)" opacity="0.91957724" stroke="rgb(0, 0, 0)" stroke-opacity="0.0" stroke-linecap="round" stroke-linejoin="round" d="M 309.6312561035156 385.9281311035156 C 308.1302795410156 389.4744873046875 305.20037841796875 392.4956970214844 301.15289306640625 393.8230895996094 C 297.3768310546875 392.6579284667969 294.3130798339844 389.695556640625 293.4117126464844 385.9905700683594 C 293.9388732910156 380.5134582519531 295.8923034667969 377.077880859375 300.92620849609375 376.7995300292969 C 306.0785217285156 377.91644287109375 308.30438232421875 381.2754211425781 309.6312561035156 385.9281311035156"/>
    <path stroke-width="0" fill="rgb(51, 253, 34)" opacity="0.4585621" stroke="rgb(0, 0, 0)" stroke-opacity="0.0" stroke-linecap="round" stroke-linejoin="round" d="M 32.378353118896484 63.510005950927734 C 31.42009735107422 67.92267608642578 29.150714874267578 71.39126586914062 26.165836334228516 71.7995834350586 C 21.16364860534668 69.98600769042969 17.799772262573242 67.66136932373047 16.885448455810547 63.87251281738281 C 17.84248161315918 59.85428237915039 20.86499786376953 57.164093017578125 24.834806442260742 56.15788269042969 C 28.4855899810791 57.22711944580078 31.532182693481445 59.99886703491211 32.378353118896484 63.510005950927734"/>
    <path stroke-width="0" fill="rgb(176, 95, 72)" opacity="0.23257548" stroke="rgb(0, 0, 0)" stroke-opacity="0.0" stroke-linecap="round" stroke-linejoin="round" d="M 492.0056457519531 494.5035095214844 C 491.1809997558594 498.8495788574219 487.813232421875 501.31591796875 483.4328918457031 501.9089660644531 C 479.79425048828125 500.4126892089844 476.6025085449219 497.5426025390625 474.85308837890625 494.6772155761719 C 477.2294616699219 491.01910400390625 480.3219299316406 488.04339599609375 483.22650146484375 487.2071228027344 C 486.8365173339844 488.015869140625 490.490966796875 489.9712219238281 492.0056457519531 494.5035095214844"/>
    <path stroke-width="0" fill="rgb(81, 160, 184)" opacity="0.023567155" stroke="rgb(0, 0, 0)" stroke-opacity="0.0" stroke-linecap="round" stroke-linejoin="round" d="M 277.50335693359375 73.10101318359375 C 276.40838623046875 76.79972076416016 273.3720703125 79.68817901611328 269.3846740722656 80.80311584472656 C 265.3327331542969 79.45598602294922 262.6118469238281 76.42431640625 261.5859069824219 72.19998168945312 C 262.01904296875 68.34517669677734 264.9570617675781 65.49140167236328 268.96502685546875 64.86920166015625 C 272.76373291015625 66.05606079101562 275.7586975097656 69.10742950439453 277.50335693359375 73.10101318359375"/>
    <path stroke-width="0" fill="rgb(122, 244, 70)" opacity="-0.0070903855" stroke="rgb(0, 0, 0)" stroke-opacity="0.0" stroke-linecap="round" stroke-linejoin="round" d="M 342.1261901855469 437.08099365234375 C 340.0508117675781 440.0657958984375 337.1153564453125 443.0355224609375 333.6331787109375 444.5380554199219 C 329.92303466796875 443.7421569824219 326.95562744140625 440.8424072265625 325.3445739746094 436.6559143066406 C 326.7496337890625 432.7547607421875 329.84393310546875 429.92156982421875 333.6365661621094 428.99603271484375 C 337.4147644042969 430.39617919921875 340.5104064941406 433.2669677734375 342.1261901855469 437.08099365234375"/>
    <path stroke-width="0" fill="rgb(64, 86, 194)" opacity="0.6796388" stroke="rgb(0, 0, 0)" stroke-opacity="0.0" stroke-linecap="round" stroke-linejoin="round" d="M 138.95755004882812 421.7186279296875 C 137.74322509765625 425.2652587890625 134.45127868652344 427.8330383300781 130.97434997558594 429.4078369140625 C 127.14399719238281 428.32208251953125 123.68480682373047 426.08660888671875 123.08861541748047 421.64837646484375 C 123.62406921386719 417.25238037109375 126.61824798583984 414.3716735839844 131.06529235839844 413.5859375 C 135.19833374023438 414.6655578613281 138.0037078857422 417.7480773925781 138.95755004882812 421.7186279296875"/>
    <path stroke-width="0" fill="rgb(3, 4, 131)" opacity="0.07647167" stroke="rgb(0, 0, 0)" stroke-opacity="0.0" stroke-linecap="round" stroke-linejoin="round" d="M 367.950927734375 214.10475158691406 C 367.74151611328125 218.23452758789062 364.7189636230469 220.71371459960938 359.9146728515625 221.44886779785156 C 355.6341552734375 221.9569091796875 353.9827575683594 218.95294189453125 353.52777099609375 213.41326904296875 C 353.4789123535156 209.7832489013672 356.4802551269531 207.153564453125 360.9045715332031 206.4923095703125 C 365.0137634277344 207.34130859375 367.715087890625 210.27249145507812 367.950927734375 214.10475158691406"/>
    <path stroke-width="0" fill="rgb(43, 1, 230)" opacity="0.23986253" stroke="rgb(0, 0, 0)" stroke-opacity="0.0" stroke-linecap="round" stroke-linejoin="round" d="M 502.4794921875 439.31268310546875 C 501.0370788574219 443.7519836425781 498.2950744628906 446.46343994140625 494.04632568359375 447.4991455078125 C 489.98626708984375 447.0919189453125 487.34991455078125 444.0885314941406 486.6311340332031 439.6314392089844 C 487.18310546875 435.98797607421875 491.2094421386719 434.0665283203125 494.5602111816406 433.3409423828125 C 497.1328125 434.0243835449219 501.14056396484375 436.6408996582031 502.4794921875 439.31268310546875"/>
    <path stroke-width="0" fill="rgb(73, 248, 160)" opacity="0.5145804" stroke="rgb(0, 0, 0)" stroke-opacity="0.0" stroke-linecap="round" stroke-linejoin="round" d="M 362.3570251464844 55.920780181884766 C 361.6552734375 60.673675537109375 359.1148681640625 63.847450256347656 354.7437438964844 64.69165802001953 C 349.9613342285156 63.026039123535156 347.7556457519531 59.45830535888672 346.7864685058594 55.07390594482422 C 347.32135009765625 52.3482780456543 350.9554748535156 49.87639236450195 354.91510009765625 47.87869644165039 C 358.5832824707031 48.331993103027344 361.5703430175781 51.19226837158203 362.3570251464844 55.920780181884766"/>
  </g>
</svg>
