<?xml version="1.0" ?>
<svg xmlns="http://www.w3.org/2000/svg" version="1.1" width="512" height="512">
  <defs/>
  <g>
    <path stroke-width="0" fill="rgb(-19, -15, 21)" opacity="1.0811025" stroke="rgb(139, 182, 153)" stroke-opacity="1.0" stroke-linecap="round" stroke-linejoin="round" d="M 574.7584228515625 162.74705505371094 C 471.6419677734375 157.38482666015625 255.0478057861328 162.01028442382812 21.53708839416504 159.26315307617188 C 149.9614715576172 41.40039825439453 217.20492553710938 78.77104187011719 174.48895263671875 -25.099302291870117 C 185.01902770996094 -33.60383224487305 197.35633850097656 -35.491127014160156 255.78790283203125 -34.26942443847656 C 358.87811279296875 -48.50017166137695 437.2099609375 -146.4530487060547 574.7584228515625 162.74705505371094"/>
    <path stroke-width="0" fill="rgb(37, 54, 47)" opacity="0.65919673" stroke="rgb(108, 164, 111)" stroke-opacity="1.0" stroke-linecap="round" stroke-linejoin="round" d="M 317.0570373535156 711.6587524414062 C -124.72020721435547 747.2634887695312 7.654268264770508 369.6714782714844 44.70672607421875 85.21232604980469 C 292.95172119140625 122.72144317626953 289.6540832519531 118.43473815917969 279.9697265625 40.848323822021484 C 284.2266845703125 -66.92325592041016 317.0650329589844 -46.443145751953125 442.3717346191406 -36.365211486816406 C 639.143310546875 -2.5854287147521973 854.1314086914062 240.14646911621094 317.0570373535156 711.6587524414062"/>
    <path stroke-width="0" fill="rgb(64, 80, 76)" opacity="0.97551554" stroke="rgb(245, 97, 201)" stroke-opacity="1.0" stroke-linecap="round" stroke-linejoin="round" d="M 361.8531799316406 88.73902893066406 C 331.52294921875 104.54106140136719 322.8199768066406 109.3435287475586 88.4058837890625 106.71861267089844 C 110.6676025390625 103.6150894165039 112.05255126953125 111.51028442382812 120.72222900390625 67.0373764038086 C 135.6087188720703 -33.50758361816406 141.19656372070312 -41.69476318359375 171.77622985839844 -45.70515823364258 C 292.3215026855469 -28.912521362304688 316.02593994140625 -34.95655822753906 361.8531799316406 88.73902893066406"/>
    <path stroke-width="0" fill="rgb(10, 13, 20)" opacity="1.0350431" stroke="rgb(144, 236, 18)" stroke-opacity="1.0" stroke-linecap="round" stroke-linejoin="round" d="M 256.6469421386719 83.13104248046875 C 200.43603515625 104.97477722167969 295.8432922363281 69.1187515258789 533.2391967773438 142.76644897460938 C 129.54605102539062 146.4970245361328 17.39429473876953 91.08611297607422 -31.547155380249023 238.43246459960938 C -45.53935623168945 -103.79988098144531 -12.785496711730957 -54.71656799316406 149.37364196777344 -35.13842010498047 C 205.53208923339844 -44.215091705322266 222.68519592285156 -50.4676399230957 256.6469421386719 83.13104248046875"/>
    <path stroke-width="0" fill="rgb(262, 253, 261)" opacity="1.0253752" stroke="rgb(5, 212, 198)" stroke-opacity="1.0" stroke-linecap="round" stroke-linejoin="round" d="M 491.9890441894531 244.34164428710938 C 466.9046936035156 179.9695587158203 267.05157470703125 188.6073455810547 290.7691650390625 217.83139038085938 C 193.34324645996094 181.45718383789062 152.9232940673828 187.3927001953125 130.17828369140625 159.5374298095703 C 83.09922790527344 158.75390625 85.65363311767578 158.9918212890625 495.69464111328125 159.51356506347656 C 493.29046630859375 159.01052856445312 492.6515197753906 138.12289428710938 491.9890441894531 244.34164428710938"/>
    <path stroke-width="0" fill="rgb(266, 261, 256)" opacity="1.0419214" stroke="rgb(249, 203, 117)" stroke-opacity="1.0" stroke-linecap="round" stroke-linejoin="round" d="M 559.9067993164062 382.65093994140625 C 584.7872314453125 395.72259521484375 512.7515258789062 392.59014892578125 401.7181701660156 389.9794616699219 C 473.0617370605469 383.8438415527344 367.06878662109375 393.9153137207031 376.9866943359375 377.7259521484375 C 530.3485717773438 378.2021789550781 523.5697021484375 377.136474609375 509.6113586425781 379.059326171875 C 433.0356140136719 380.78857421875 453.3036804199219 379.639404296875 559.9067993164062 382.65093994140625"/>
    <path stroke-width="0" fill="rgb(234, 237, 236)" opacity="0.7110945" stroke="rgb(30, 163, 36)" stroke-opacity="1.0" stroke-linecap="round" stroke-linejoin="round" d="M 638.53955078125 413.75439453125 C 458.166259765625 444.4941101074219 159.03143310546875 409.6148681640625 152.521728515625 425.86749267578125 C 284.85418701171875 426.11676025390625 325.1455078125 425.8388366699219 -32.728050231933594 427.5751953125 C 199.2871551513672 396.756103515625 232.65228271484375 426.0494689941406 54.76984405517578 413.3768615722656 C 132.77310180664062 416.97021484375 306.8005065917969 401.2972412109375 638.53955078125 413.75439453125"/>
    <path stroke-width="0" fill="rgb(255, 254, 255)" opacity="0.95993686" stroke="rgb(133, 105, 67)" stroke-opacity="1.0" stroke-linecap="round" stroke-linejoin="round" d="M 575.38818359375 378.84539794921875 C 752.3585205078125 402.51678466796875 596.0142822265625 396.4605712890625 61.22039031982422 397.96734619140625 C 179.98876953125 389.733154296875 -88.195068359375 411.65582275390625 -64.69515228271484 378.35052490234375 C 519.5701293945312 378.11553955078125 497.450927734375 377.25860595703125 446.3770751953125 376.68194580078125 C 394.36590576171875 378.9204406738281 407.7980041503906 375.8894958496094 575.38818359375 378.84539794921875"/>
    <path stroke-width="0" fill="rgb(249, 244, 249)" opacity="0.96803117" stroke="rgb(116, 144, 4)" stroke-opacity="1.0" stroke-linecap="round" stroke-linejoin="round" d="M 594.9139404296875 426.3177490234375 C -78.15572357177734 425.1015625 26.103120803833008 426.19805908203125 81.01637268066406 427.36737060546875 C 222.27015686035156 414.3793640136719 -65.33820343017578 446.19000244140625 -81.77471923828125 408.6481018066406 C 80.09526062011719 409.8009338378906 251.40481567382812 408.8866882324219 308.6741027832031 409.2418518066406 C 130.30960083007812 422.4394836425781 223.80496215820312 392.79901123046875 594.9139404296875 426.3177490234375"/>
    <path stroke-width="0" fill="rgb(260, 259, 262)" opacity="1.0132695" stroke="rgb(156, 157, 240)" stroke-opacity="1.0" stroke-linecap="round" stroke-linejoin="round" d="M 495.61004638671875 277.75457763671875 C 464.0774841308594 303.86956787109375 620.8954467773438 293.177001953125 -39.76851272583008 297.3486328125 C -87.43411254882812 264.82806396484375 -95.43599700927734 272.9884338378906 258.8626708984375 272.88092041015625 C 269.90521240234375 275.90435791015625 256.05328369140625 129.94544982910156 278.5741271972656 171.37953186035156 C 318.9718017578125 316.9569091796875 204.29652404785156 253.2609100341797 495.61004638671875 277.75457763671875"/>
    <path stroke-width="0" fill="rgb(249, 243, 249)" opacity="0.9921946" stroke="rgb(91, 111, 177)" stroke-opacity="1.0" stroke-linecap="round" stroke-linejoin="round" d="M 594.7801513671875 411.7052307128906 C 472.843994140625 456.22015380859375 261.5583190917969 378.51361083984375 170.49110412597656 427.3278503417969 C 251.54867553710938 413.46148681640625 241.77609252929688 420.8988342285156 211.9842529296875 415.3511962890625 C 258.1488037109375 420.7415771484375 278.4607238769531 441.5018310546875 149.3951873779297 408.0463562011719 C 180.81048583984375 420.3690490722656 481.17547607421875 403.8826599121094 594.7801513671875 411.7052307128906"/>
    <path stroke-width="0" fill="rgb(260, 259, 260)" opacity="0.995258" stroke="rgb(170, 171, 53)" stroke-opacity="1.0" stroke-linecap="round" stroke-linejoin="round" d="M 491.4805603027344 164.8881378173828 C 283.16424560546875 215.0794677734375 746.6336059570312 201.31532287597656 16.295093536376953 203.85299682617188 C 32.74078369140625 211.0301971435547 -57.48893356323242 216.8805389404297 -50.84602355957031 158.8818359375 C 117.38275146484375 159.3595733642578 190.7570037841797 158.15704345703125 231.0244903564453 160.51710510253906 C 134.1850128173828 164.36581420898438 192.55130004882812 158.67352294921875 491.4805603027344 164.8881378173828"/>
    <path stroke-width="0" fill="rgb(114, 126, 111)" opacity="0.98084456" stroke="rgb(80, 92, 145)" stroke-opacity="1.0" stroke-linecap="round" stroke-linejoin="round" d="M 527.0843505859375 94.65536499023438 C 447.96612548828125 60.10392761230469 516.627685546875 72.58401489257812 443.1084899902344 64.32018280029297 C 320.22406005859375 73.47032165527344 353.28851318359375 46.71525955200195 360.8018798828125 2.157055139541626 C 356.93389892578125 -22.19556999206543 361.8376770019531 -30.034143447875977 365.04888916015625 -24.6541805267334 C 378.272705078125 59.70846176147461 495.23809814453125 -6.1584577560424805 527.0843505859375 94.65536499023438"/>
    <path stroke-width="0" fill="rgb(247, 256, 261)" opacity="0.9983122" stroke="rgb(252, 26, 53)" stroke-opacity="1.0" stroke-linecap="round" stroke-linejoin="round" d="M 450.5606689453125 41.25227355957031 C 401.53240966796875 52.669822692871094 356.7530517578125 70.44053649902344 353.4018859863281 73.3455581665039 C 398.4495544433594 124.40327453613281 336.9898986816406 84.58602905273438 312.7306823730469 29.729124069213867 C 325.5863342285156 16.928510665893555 339.84576416015625 13.552166938781738 416.6120910644531 0.3575037121772766 C 413.8183288574219 17.101238250732422 448.12054443359375 4.898090839385986 450.5606689453125 41.25227355957031"/>
    <path stroke-width="0" fill="rgb(-3, 2, -2)" opacity="1.0095392" stroke="rgb(166, 64, 118)" stroke-opacity="1.0" stroke-linecap="round" stroke-linejoin="round" d="M 130.7342529296875 397.4149169921875 C 235.6181640625 398.01409912109375 120.67292785644531 397.4608459472656 -80.00968170166016 397.5585632324219 C 13.130961418151855 409.07269287109375 -48.40123748779297 406.76788330078125 76.67650604248047 407.6580810546875 C 109.83951568603516 408.4937438964844 135.12054443359375 408.7177429199219 254.50978088378906 407.7274475097656 C 73.14264678955078 392.30535888671875 90.17305755615234 395.6885986328125 130.7342529296875 397.4149169921875"/>
    <path stroke-width="0" fill="rgb(108, 85, 112)" opacity="0.97145575" stroke="rgb(40, 28, 167)" stroke-opacity="1.0" stroke-linecap="round" stroke-linejoin="round" d="M 418.0352478027344 -31.612974166870117 C 433.24639892578125 24.47430419921875 454.05517578125 65.58061218261719 441.60174560546875 5.251083850860596 C 386.5438232421875 -19.201128005981445 374.3493347167969 -16.442058563232422 312.05523681640625 -19.66054916381836 C 315.1639404296875 -29.508440017700195 323.5223083496094 -35.45821762084961 394.3455505371094 -33.86525344848633 C 406.1054382324219 -37.010616302490234 415.6422424316406 -32.56230163574219 418.0352478027344 -31.612974166870117"/>
    <path stroke-width="0" fill="rgb(248, 250, 253)" opacity="0.97039104" stroke="rgb(50, 94, 209)" stroke-opacity="1.0" stroke-linecap="round" stroke-linejoin="round" d="M 492.2137145996094 96.00421142578125 C 395.76751708984375 94.83272552490234 362.8186340332031 96.84536743164062 340.091796875 93.57269287109375 C 406.9281921386719 97.85762786865234 384.072998046875 102.189208984375 200.7684783935547 98.28287506103516 C 400.25653076171875 83.95964813232422 356.3576965332031 100.11334228515625 376.0031433105469 82.98407745361328 C 374.5028381347656 73.7767562866211 513.5027465820312 58.4932861328125 492.2137145996094 96.00421142578125"/>
    <path stroke-width="0" fill="rgb(121, 120, 107)" opacity="1.0149779" stroke="rgb(213, 24, 248)" stroke-opacity="1.0" stroke-linecap="round" stroke-linejoin="round" d="M 469.16748046875 34.0524787902832 C 461.3351135253906 54.97500228881836 428.30120849609375 57.922489166259766 332.37158203125 86.98603057861328 C 281.3934020996094 91.20123291015625 219.0784149169922 78.3727035522461 -86.83943939208984 88.54185485839844 C -40.06278991699219 -346.3504638671875 68.1061782836914 -207.80335998535156 423.0226745605469 -84.76789855957031 C 469.8737487792969 -57.71448516845703 486.7623596191406 -61.49342727661133 469.16748046875 34.0524787902832"/>
    <path stroke-width="0" fill="rgb(256, 254, 262)" opacity="0.8953548" stroke="rgb(249, 154, 188)" stroke-opacity="1.0" stroke-linecap="round" stroke-linejoin="round" d="M -18.507965087890625 79.13751220703125 C 323.6288146972656 82.08357238769531 248.7589874267578 72.80584716796875 -49.16281509399414 99.3640365600586 C 204.56784057617188 101.5717544555664 172.59356689453125 96.83097076416016 127.43971252441406 103.6272201538086 C 156.31201171875 97.53595733642578 214.23602294921875 111.9514389038086 361.62152099609375 80.88306427001953 C 24.70344352722168 73.07568359375 110.48405456542969 113.48477935791016 -18.507965087890625 79.13751220703125"/>
    <path stroke-width="0" fill="rgb(122, 118, 110)" opacity="0.8364029" stroke="rgb(72, 30, 75)" stroke-opacity="1.0" stroke-linecap="round" stroke-linejoin="round" d="M 269.7879638671875 51.626129150390625 C 296.48956298828125 79.54454803466797 376.4053649902344 83.28917694091797 274.563720703125 67.47332000732422 C 220.1566619873047 77.9144287109375 203.89256286621094 85.42740631103516 199.80062866210938 -3.57033371925354 C 262.51806640625 -37.65595626831055 279.69085693359375 -34.56483840942383 301.50006103515625 -31.693674087524414 C 373.19659423828125 -24.96415138244629 376.311279296875 -14.356565475463867 269.7879638671875 51.626129150390625"/>
    <path stroke-width="0" fill="rgb(235, 239, 249)" opacity="0.9174904" stroke="rgb(81, 105, 16)" stroke-opacity="1.0" stroke-linecap="round" stroke-linejoin="round" d="M 547.43212890625 74.47723388671875 C 546.9356689453125 103.32501220703125 533.772705078125 109.36691284179688 521.3381958007812 56.96046447753906 C 415.8577575683594 52.57476043701172 452.24822998046875 65.73784637451172 465.1927795410156 39.850242614746094 C 367.45123291015625 41.206058502197266 416.30303955078125 -19.77588653564453 383.8020935058594 -19.023841857910156 C 412.8183898925781 89.14762115478516 488.00152587890625 -0.0029859221540391445 547.43212890625 74.47723388671875"/>
    <path stroke-width="0" fill="rgb(-5, -2, -1)" opacity="0.8770478" stroke="rgb(144, 67, 133)" stroke-opacity="1.0" stroke-linecap="round" stroke-linejoin="round" d="M 132.47862243652344 407.9383239746094 C 123.2768325805664 399.75616455078125 102.93242645263672 418.9170837402344 -63.29801559448242 397.7464904785156 C 219.1197509765625 397.4715881347656 295.937255859375 396.89727783203125 266.2953796386719 400.0775451660156 C 144.908447265625 405.6343688964844 169.0086669921875 395.8250732421875 252.55137634277344 407.279541015625 C 108.59199523925781 407.4612121582031 119.14287567138672 404.6670227050781 132.47862243652344 407.9383239746094"/>
    <path stroke-width="0" fill="rgb(255, 260, 261)" opacity="1.0220432" stroke="rgb(146, 236, 81)" stroke-opacity="1.0" stroke-linecap="round" stroke-linejoin="round" d="M 439.7852478027344 185.34068298339844 C 438.98773193359375 223.13768005371094 439.088623046875 297.3863220214844 436.8761901855469 284.7386169433594 C 376.9044494628906 312.3292236328125 427.1289367675781 246.91934204101562 415.7438659667969 266.92498779296875 C 425.56695556640625 141.43389892578125 388.29705810546875 254.20726013183594 440.3959655761719 174.4472198486328 C 440.92608642578125 200.66680908203125 441.3841552734375 246.67391967773438 439.7852478027344 185.34068298339844"/>
    <path stroke-width="0" fill="rgb(-5, -3, -3)" opacity="1.0153283" stroke="rgb(33, 182, 73)" stroke-opacity="1.0" stroke-linecap="round" stroke-linejoin="round" d="M 305.04345703125 398.28857421875 C 249.81422424316406 395.3481140136719 261.8263854980469 397.66607666015625 667.6197509765625 396.318115234375 C 540.2393798828125 417.9316101074219 283.1941833496094 401.21759033203125 282.50341796875 410.97601318359375 C 323.6861267089844 393.8614196777344 324.6174621582031 397.6836242675781 101.34200286865234 397.958740234375 C 279.49688720703125 411.92559814453125 298.8961181640625 411.8815002441406 305.04345703125 398.28857421875"/>
    <path stroke-width="0" fill="rgb(167, 176, 159)" opacity="0.64746916" stroke="rgb(149, 5, 211)" stroke-opacity="1.0" stroke-linecap="round" stroke-linejoin="round" d="M 522.3455810546875 303.1763000488281 C 495.4725341796875 307.0797119140625 489.0689697265625 292.947021484375 500.4757995605469 48.31883239746094 C 439.9559326171875 4.115331649780273 468.9542541503906 104.26095581054688 487.8153381347656 -57.35927963256836 C 423.89288330078125 -32.06654739379883 433.3778381347656 -36.32387161254883 469.7552490234375 -42.66332244873047 C 555.4288330078125 -45.57939910888672 543.9959106445312 -55.355979919433594 522.3455810546875 303.1763000488281"/>
    <path stroke-width="0" fill="rgb(253, 253, 256)" opacity="1.0073383" stroke="rgb(172, 68, 187)" stroke-opacity="1.0" stroke-linecap="round" stroke-linejoin="round" d="M 255.30299377441406 116.57077026367188 C 240.62399291992188 128.22933959960938 289.7927551269531 122.53827667236328 263.79754638671875 130.1170196533203 C 291.1116943359375 117.6865005493164 268.598388671875 136.6187286376953 18.520544052124023 110.17876434326172 C 634.3399047851562 110.30794525146484 609.6507568359375 109.44975280761719 519.0551147460938 136.52369689941406 C 436.5361022949219 114.64630126953125 225.4662628173828 137.7974090576172 255.30299377441406 116.57077026367188"/>
    <path stroke-width="0" fill="rgb(-1, 7, 8)" opacity="1.0435466" stroke="rgb(63, 146, 150)" stroke-opacity="1.0" stroke-linecap="round" stroke-linejoin="round" d="M 384.0184020996094 107.22953033447266 C -5.029547691345215 102.80502319335938 32.60545349121094 99.98604583740234 467.1530456542969 98.44603729248047 C 144.96661376953125 88.72734069824219 -152.2934112548828 97.80850219726562 203.88772583007812 94.09551239013672 C 179.03346252441406 93.69763946533203 4.852518081665039 99.86564636230469 -85.19735717773438 83.31315612792969 C 547.2107543945312 85.44816589355469 275.8482360839844 75.65028381347656 384.0184020996094 107.22953033447266"/>
    <path stroke-width="0" fill="rgb(252, 257, 258)" opacity="1.0152864" stroke="rgb(56, 242, 114)" stroke-opacity="1.0" stroke-linecap="round" stroke-linejoin="round" d="M -14.691079139709473 136.09255981445312 C -132.25254821777344 144.7244873046875 -14.4995698928833 135.38258361816406 708.5689697265625 142.14097595214844 C 653.1626586914062 124.47594451904297 386.2524108886719 129.9279022216797 20.031322479248047 129.8574981689453 C -69.17124938964844 134.3370819091797 -153.16726684570312 85.98883819580078 252.2041778564453 125.38748168945312 C -39.79403305053711 127.35554504394531 -92.35240936279297 119.58544158935547 -14.691079139709473 136.09255981445312"/>
    <path stroke-width="0" fill="rgb(31, 29, 30)" opacity="0.9520063" stroke="rgb(178, 75, 207)" stroke-opacity="1.0" stroke-linecap="round" stroke-linejoin="round" d="M 187.74822998046875 322.8795166015625 C 114.49947357177734 310.7689208984375 127.971923828125 293.6691589355469 247.16537475585938 306.6106262207031 C 189.81532287597656 329.5709533691406 109.50505065917969 327.85040283203125 36.66131591796875 322.000732421875 C 157.97979736328125 311.9233093261719 185.68307495117188 321.2312927246094 119.1358871459961 319.11273193359375 C 133.4384765625 325.2967224121094 148.39926147460938 306.102783203125 187.74822998046875 322.8795166015625"/>
    <path stroke-width="0" fill="rgb(251, 264, 269)" opacity="1.0709074" stroke="rgb(224, 148, 224)" stroke-opacity="1.0" stroke-linecap="round" stroke-linejoin="round" d="M 482.3565979003906 309.3792419433594 C 483.2711181640625 252.7762451171875 485.9021301269531 275.4824523925781 483.2154846191406 284.14892578125 C 478.0148620605469 273.17877197265625 490.33905029296875 236.49636840820312 472.9419250488281 184.14625549316406 C 480.05230712890625 237.69677734375 474.98052978515625 221.399169921875 490.2914123535156 206.12469482421875 C 492.40521240234375 254.5612335205078 495.0444641113281 342.5163879394531 482.3565979003906 309.3792419433594"/>
    <path stroke-width="0" fill="rgb(44, 41, 41)" opacity="0.71188986" stroke="rgb(184, 127, 243)" stroke-opacity="1.0" stroke-linecap="round" stroke-linejoin="round" d="M 107.41926574707031 323.8316955566406 C -26.49407958984375 329.67840576171875 -39.049468994140625 314.8769836425781 1.2357169389724731 358.90045166015625 C 16.201095581054688 285.6308898925781 -0.9685333371162415 352.8483581542969 -63.115943908691406 323.55206298828125 C 32.825836181640625 310.8869934082031 63.47324752807617 310.2439880371094 81.3882827758789 317.81658935546875 C 25.610336303710938 304.7931823730469 47.142555236816406 290.30914306640625 107.41926574707031 323.8316955566406"/>
    <path stroke-width="0" fill="rgb(0, 25, 27)" opacity="0.991088" stroke="rgb(108, 154, 4)" stroke-opacity="1.0" stroke-linecap="round" stroke-linejoin="round" d="M 193.64486694335938 311.385498046875 C 282.84320068359375 334.2458190917969 182.24908447265625 302.91485595703125 285.11041259765625 328.8963623046875 C 55.65550231933594 326.0036315917969 -19.02750015258789 333.9731140136719 178.1066131591797 310.97821044921875 C 185.78121948242188 303.41607666015625 185.9253692626953 301.9269714355469 165.42127990722656 313.1964416503906 C 189.8465576171875 324.4225769042969 193.3976593017578 323.00909423828125 193.64486694335938 311.385498046875"/>
    <path stroke-width="0" fill="rgb(52, 37, 43)" opacity="0.9790288" stroke="rgb(168, 73, 157)" stroke-opacity="1.0" stroke-linecap="round" stroke-linejoin="round" d="M 288.9096984863281 327.04302978515625 C 164.89883422851562 315.4406433105469 139.87171936035156 325.29754638671875 414.31878662109375 297.4566650390625 C 363.0208740234375 296.618408203125 117.21446990966797 297.7421875 -101.09808349609375 297.13348388671875 C 166.1932373046875 362.3171691894531 218.6179656982422 277.11669921875 180.9012908935547 319.9320068359375 C 182.63973999023438 321.68206787109375 217.83262634277344 298.97332763671875 288.9096984863281 327.04302978515625"/>
    <path stroke-width="0" fill="rgb(22, 19, 23)" opacity="0.7420964" stroke="rgb(34, 76, 145)" stroke-opacity="1.0" stroke-linecap="round" stroke-linejoin="round" d="M 224.5673065185547 319.60052490234375 C 172.3932647705078 302.46697998046875 160.96224975585938 289.6205139160156 114.57258605957031 325.0041198730469 C 142.77317810058594 327.1475830078125 138.91612243652344 296.1700744628906 197.87924194335938 323.33636474609375 C 211.2310791015625 322.6905822753906 222.44464111328125 325.1324768066406 196.36521911621094 315.8088684082031 C 171.4444580078125 323.66033935546875 180.25234985351562 326.936767578125 224.5673065185547 319.60052490234375"/>
    <path stroke-width="0" fill="rgb(-3, 7, 14)" opacity="0.99694157" stroke="rgb(146, 166, 166)" stroke-opacity="1.0" stroke-linecap="round" stroke-linejoin="round" d="M 467.6650695800781 318.9728698730469 C 389.51171875 298.3152160644531 296.9454345703125 321.41778564453125 180.3334503173828 322.0061950683594 C 346.1099548339844 330.6588439941406 334.7861633300781 323.3941650390625 311.40704345703125 336.315673828125 C 306.3071594238281 328.298095703125 294.1927490234375 312.17431640625 312.74322509765625 341.4582824707031 C 316.9881896972656 338.7782897949219 310.9021911621094 319.3220520019531 467.6650695800781 318.9728698730469"/>
    <path stroke-width="0" fill="rgb(190, 202, 192)" opacity="0.87571716" stroke="rgb(228, 93, 111)" stroke-opacity="1.0" stroke-linecap="round" stroke-linejoin="round" d="M 342.47296142578125 357.298095703125 C 401.0614013671875 359.65570068359375 292.49176025390625 365.179443359375 304.57244873046875 355.8496398925781 C 331.4270935058594 346.9237976074219 266.28033447265625 344.28607177734375 274.48626708984375 358.208984375 C 263.55816650390625 313.1478576660156 280.0765380859375 330.3508605957031 291.5436706542969 329.1313171386719 C 350.23822021484375 331.4246520996094 315.5558776855469 316.64324951171875 342.47296142578125 357.298095703125"/>
    <path stroke-width="0" fill="rgb(21, 26, 22)" opacity="0.99489987" stroke="rgb(205, 179, 25)" stroke-opacity="1.0" stroke-linecap="round" stroke-linejoin="round" d="M 462.34271240234375 326.8535461425781 C 614.9152221679688 327.4918212890625 545.982177734375 321.2833557128906 502.14312744140625 321.62591552734375 C 421.515625 349.57025146484375 409.53448486328125 287.00274658203125 433.0887756347656 310.6207275390625 C 514.0173950195312 306.8060302734375 506.2532653808594 283.781005859375 532.7442016601562 292.319091796875 C 463.2077331542969 293.8153991699219 538.5901489257812 319.2469177246094 462.34271240234375 326.8535461425781"/>
    <path stroke-width="0" fill="rgb(65, 85, 92)" opacity="1.014122" stroke="rgb(182, 254, 38)" stroke-opacity="1.0" stroke-linecap="round" stroke-linejoin="round" d="M 479.3589782714844 175.7154998779297 C 496.342041015625 212.879638671875 452.48114013671875 206.2513885498047 525.632568359375 211.4391326904297 C 486.7776184082031 216.64971923828125 513.947998046875 202.1239471435547 488.1521301269531 207.0735321044922 C 500.20416259765625 208.95785522460938 517.5040893554688 208.40028381347656 438.8948974609375 209.83990478515625 C 458.3039245605469 302.1382141113281 488.297607421875 303.8485412597656 479.3589782714844 175.7154998779297"/>
    <path stroke-width="0" fill="rgb(4, 5, 1)" opacity="0.5940965" stroke="rgb(41, 156, 31)" stroke-opacity="1.0" stroke-linecap="round" stroke-linejoin="round" d="M 11.1801118850708 268.85760498046875 C 30.499238967895508 177.1914520263672 -59.12269592285156 208.9928436279297 264.7947082519531 204.3001708984375 C 186.44845581054688 227.5276641845703 20.00633430480957 172.52517700195312 49.583824157714844 274.09783935546875 C 50.939720153808594 231.61631774902344 29.986082077026367 225.33779907226562 105.21270751953125 209.19851684570312 C -21.715984344482422 214.81507873535156 46.963138580322266 188.4071044921875 11.1801118850708 268.85760498046875"/>
    <path stroke-width="0" fill="rgb(17, 27, 32)" opacity="0.65401286" stroke="rgb(205, 145, 103)" stroke-opacity="1.0" stroke-linecap="round" stroke-linejoin="round" d="M 324.9589538574219 318.4954528808594 C 429.40789794921875 306.7544250488281 368.06396484375 330.7303771972656 350.1396484375 328.2681579589844 C 302.8370666503906 329.5882873535156 231.26043701171875 332.44549560546875 131.24571228027344 311.515625 C -69.70339965820312 294.79229736328125 88.83283233642578 300.37005615234375 488.3895568847656 296.92877197265625 C 333.98193359375 321.10784912109375 309.4156188964844 280.06829833984375 324.9589538574219 318.4954528808594"/>
    <path stroke-width="0" fill="rgb(-1, -9, -6)" opacity="0.82647526" stroke="rgb(177, 115, 184)" stroke-opacity="1.0" stroke-linecap="round" stroke-linejoin="round" d="M 428.01971435546875 350.93365478515625 C 627.3221435546875 353.4642028808594 666.4497680664062 356.249755859375 547.2835693359375 378.1440734863281 C 96.22358703613281 376.61151123046875 -17.056793212890625 386.983154296875 347.55975341796875 350.9372253417969 C 424.3778991699219 361.18475341796875 372.5068054199219 337.2656555175781 378.1001892089844 350.1221618652344 C 312.2079162597656 329.6285095214844 518.3856811523438 327.201416015625 428.01971435546875 350.93365478515625"/>
    <path stroke-width="0" fill="rgb(53, 44, 45)" opacity="1.0474076" stroke="rgb(248, 218, 2)" stroke-opacity="1.0" stroke-linecap="round" stroke-linejoin="round" d="M -51.58101272583008 506.1647644042969 C 475.85101318359375 509.93316650390625 499.6968688964844 497.28729248046875 52.23623275756836 499.23638916015625 C 62.05046081542969 450.8688659667969 57.63058853149414 478.9258117675781 -30.43915557861328 470.09466552734375 C 64.43745422363281 465.1031494140625 65.773681640625 471.5498046875 55.990013122558594 467.9649658203125 C 50.216365814208984 521.7224731445312 83.91580963134766 487.2215881347656 -51.58101272583008 506.1647644042969"/>
    <path stroke-width="0" fill="rgb(35, 34, 31)" opacity="1.0268754" stroke="rgb(186, 43, 132)" stroke-opacity="1.0" stroke-linecap="round" stroke-linejoin="round" d="M 326.8778076171875 371.1150207519531 C 308.5973205566406 320.8601379394531 320.9410705566406 367.70562744140625 13.023703575134277 358.5660705566406 C 401.7394714355469 357.98431396484375 389.0401306152344 353.8185119628906 194.98516845703125 357.88372802734375 C 336.367431640625 343.6491394042969 206.0995635986328 358.6551513671875 -207.72305297851562 345.6191711425781 C -49.976070404052734 378.6935119628906 -29.190269470214844 359.859619140625 326.8778076171875 371.1150207519531"/>
    <path stroke-width="0" fill="rgb(12, 18, 5)" opacity="0.68425226" stroke="rgb(50, 4, 202)" stroke-opacity="1.0" stroke-linecap="round" stroke-linejoin="round" d="M 459.939453125 205.18038940429688 C 484.5976867675781 335.5770263671875 460.1903991699219 203.39137268066406 459.36572265625 206.96202087402344 C 458.0987548828125 203.39892578125 453.56268310546875 260.2249450683594 461.527587890625 223.74642944335938 C 444.06646728515625 318.8361511230469 475.9611511230469 259.380859375 486.2158203125 246.3840789794922 C 448.84136962890625 299.2687683105469 466.4479675292969 278.1578674316406 459.939453125 205.18038940429688"/>
    <path stroke-width="0" fill="rgb(9, -11, 2)" opacity="0.94846797" stroke="rgb(88, 236, 179)" stroke-opacity="1.0" stroke-linecap="round" stroke-linejoin="round" d="M 492.20635986328125 142.69842529296875 C 490.71441650390625 150.54977416992188 491.6056213378906 304.1925354003906 490.4755859375 320.677978515625 C 478.7588195800781 228.6803741455078 476.0818786621094 244.34388732910156 493.8638000488281 320.8970642089844 C 506.4964599609375 193.81700134277344 477.96685791015625 200.7185516357422 534.7362670898438 203.68597412109375 C 471.4978332519531 193.01687622070312 512.0925903320312 253.72242736816406 492.20635986328125 142.69842529296875"/>
    <path stroke-width="0" fill="rgb(256, 255, 257)" opacity="1.0254064" stroke="rgb(41, 158, 147)" stroke-opacity="1.0" stroke-linecap="round" stroke-linejoin="round" d="M 319.6911315917969 307.9648132324219 C 253.2270965576172 321.5360107421875 212.24325561523438 314.8202209472656 162.0337371826172 322.1881408691406 C 239.07373046875 314.9764099121094 200.5629119873047 320.6714782714844 86.24598693847656 312.67291259765625 C 206.98028564453125 285.9356994628906 267.8929748535156 312.8419189453125 274.76947021484375 299.944091796875 C 263.3975524902344 315.4701843261719 275.93701171875 293.8959045410156 319.6911315917969 307.9648132324219"/>
    <path stroke-width="0" fill="rgb(261, 263, 263)" opacity="0.8734041" stroke="rgb(238, 156, 136)" stroke-opacity="1.0" stroke-linecap="round" stroke-linejoin="round" d="M 423.7978210449219 274.26214599609375 C 439.7180480957031 263.8531799316406 431.9403991699219 278.1264343261719 432.102783203125 231.2771759033203 C 435.55377197265625 222.70272827148438 429.5216979980469 212.5865478515625 434.47540283203125 274.9659118652344 C 435.3376159667969 274.6092834472656 439.85162353515625 263.6248474121094 424.4952392578125 271.7341003417969 C 427.4493713378906 292.9840087890625 416.6871032714844 261.4770202636719 423.7978210449219 274.26214599609375"/>
    <path stroke-width="0" fill="rgb(33, 19, 49)" opacity="1.0009193" stroke="rgb(186, 79, 101)" stroke-opacity="1.0" stroke-linecap="round" stroke-linejoin="round" d="M 425.68524169921875 472.76751708984375 C 296.5459289550781 469.00482177734375 317.2977600097656 467.61309814453125 323.4015808105469 468.74267578125 C 315.2696228027344 467.66668701171875 280.7877502441406 466.5610046386719 608.4248657226562 468.73236083984375 C 389.1127624511719 479.867431640625 352.77215576171875 463.2065124511719 201.3594207763672 470.11260986328125 C 146.32272338867188 473.06842041015625 207.9940948486328 472.9863586425781 425.68524169921875 472.76751708984375"/>
    <path stroke-width="0" fill="rgb(-4, -4, -2)" opacity="0.5766788" stroke="rgb(47, 240, 188)" stroke-opacity="1.0" stroke-linecap="round" stroke-linejoin="round" d="M 273.447265625 356.05133056640625 C 295.3272399902344 331.5920715332031 299.1258850097656 368.27960205078125 503.2377624511719 353.4090576171875 C 366.6021728515625 350.76446533203125 345.7869567871094 353.77947998046875 341.1587219238281 355.1974792480469 C 305.1873779296875 347.60382080078125 335.3144836425781 358.8875427246094 330.0513916015625 321.07452392578125 C 411.55303955078125 289.81695556640625 410.2826232910156 371.21661376953125 273.447265625 356.05133056640625"/>
    <path stroke-width="0" fill="rgb(-19, -8, 3)" opacity="0.8157874" stroke="rgb(57, 64, 14)" stroke-opacity="1.0" stroke-linecap="round" stroke-linejoin="round" d="M 481.4315490722656 173.99835205078125 C 467.7491760253906 236.8694610595703 484.7303771972656 441.94610595703125 484.2377624511719 187.3659210205078 C 419.1517333984375 197.66954040527344 459.67596435546875 142.73046875 438.0896301269531 349.70330810546875 C 437.6063232421875 150.9186248779297 438.1585998535156 181.6774139404297 443.2571105957031 184.11785888671875 C 435.7776184082031 165.76377868652344 488.7242736816406 178.6726531982422 481.4315490722656 173.99835205078125"/>
    <path stroke-width="0" fill="rgb(119, 126, 111)" opacity="0.99439377" stroke="rgb(79, 177, 96)" stroke-opacity="1.0" stroke-linecap="round" stroke-linejoin="round" d="M 632.4391479492188 76.45697021484375 C 545.0701904296875 159.1778564453125 543.6494750976562 175.21255493164062 503.5592346191406 188.83921813964844 C 494.7705078125 165.13401794433594 494.3840026855469 56.93125915527344 498.6247863769531 53.4965705871582 C 519.5245361328125 112.39383697509766 507.02447509765625 84.69261169433594 495.8746643066406 47.844173431396484 C 404.99127197265625 9.10575008392334 442.735595703125 -98.33503723144531 632.4391479492188 76.45697021484375"/>
    <path stroke-width="0" fill="rgb(262, 260, 266)" opacity="0.9955295" stroke="rgb(6, 17, 173)" stroke-opacity="1.0" stroke-linecap="round" stroke-linejoin="round" d="M 489.0002746582031 302.21844482421875 C 510.87969970703125 319.3556823730469 469.5168762207031 308.1712951660156 488.6556396484375 310.2413024902344 C 285.7453308105469 309.75750732421875 180.03005981445312 312.3074645996094 154.7771453857422 300.6584777832031 C 300.5213317871094 299.859619140625 370.4134216308594 300.5406799316406 431.6005859375 301.27264404296875 C 337.76885986328125 300.38519287109375 310.3925476074219 299.44830322265625 489.0002746582031 302.21844482421875"/>
    <path stroke-width="0" fill="rgb(33, 21, 46)" opacity="0.9316899" stroke="rgb(136, 228, 252)" stroke-opacity="1.0" stroke-linecap="round" stroke-linejoin="round" d="M -65.8210220336914 469.1814880371094 C 31.515384674072266 465.34271240234375 80.85215759277344 469.9098815917969 24.379175186157227 466.7964782714844 C 86.29232025146484 467.4284973144531 157.52767944335938 467.33697509765625 343.3089294433594 467.3656921386719 C 382.007080078125 474.7762145996094 206.1677703857422 472.52947998046875 19.393848419189453 472.72955322265625 C 54.69053649902344 471.75830078125 38.51462173461914 476.0524597167969 -65.8210220336914 469.1814880371094"/>
    <path stroke-width="0" fill="rgb(29, 32, 34)" opacity="0.87405336" stroke="rgb(169, 67, 5)" stroke-opacity="1.0" stroke-linecap="round" stroke-linejoin="round" d="M 120.55853271484375 317.5776672363281 C 113.3100357055664 338.05731201171875 54.03091049194336 310.4205627441406 26.491352081298828 315.9718322753906 C 116.79642486572266 312.6440734863281 126.34800720214844 315.28912353515625 121.02654266357422 315.8240051269531 C 93.1181869506836 320.3919677734375 102.62603759765625 326.5584716796875 134.64251708984375 322.57501220703125 C 47.24560546875 322.60009765625 45.87565231323242 301.7952880859375 120.55853271484375 317.5776672363281"/>
    <path stroke-width="0" fill="rgb(265, 258, 265)" opacity="1.0296663" stroke="rgb(81, 97, 150)" stroke-opacity="1.0" stroke-linecap="round" stroke-linejoin="round" d="M 135.42311096191406 324.0184631347656 C 118.29707336425781 308.4463806152344 105.6347885131836 312.96160888671875 112.8336181640625 326.7918701171875 C 141.474853515625 297.27386474609375 59.61088943481445 337.6893005371094 -56.42129135131836 300.3675537109375 C 208.91970825195312 300.3885498046875 250.8663330078125 299.65570068359375 187.12823486328125 301.2192687988281 C 88.35426330566406 321.65399169921875 118.17806243896484 310.15728759765625 135.42311096191406 324.0184631347656"/>
    <path stroke-width="0" fill="rgb(37, 15, 32)" opacity="0.9808503" stroke="rgb(160, 222, 69)" stroke-opacity="1.0" stroke-linecap="round" stroke-linejoin="round" d="M 487.28564453125 441.8382873535156 C 351.59307861328125 438.7104187011719 414.1763916015625 431.49139404296875 -153.30340576171875 437.8562927246094 C 653.301025390625 454.52093505859375 499.9071960449219 415.9804992675781 500.7456970214844 432.77813720703125 C 278.4588928222656 449.9911804199219 548.9161376953125 437.9437255859375 248.43878173828125 435.6035461425781 C 503.67523193359375 435.9547119140625 626.3193969726562 434.83203125 487.28564453125 441.8382873535156"/>
    <path stroke-width="0" fill="rgb(12, 20, 29)" opacity="0.9901074" stroke="rgb(241, 186, 64)" stroke-opacity="1.0" stroke-linecap="round" stroke-linejoin="round" d="M 373.1196594238281 310.1803894042969 C 5.326426029205322 341.3721923828125 -169.78643798828125 324.2121887207031 16.128589630126953 317.3957824707031 C 104.47421264648438 318.5806884765625 28.914758682250977 315.304931640625 -73.76036071777344 320.5723571777344 C -1.3048661947250366 317.52337646484375 34.21998977661133 338.5412292480469 -46.24688720703125 308.4594421386719 C -130.69720458984375 310.3245849609375 123.62739562988281 309.2111511230469 373.1196594238281 310.1803894042969"/>
    <path stroke-width="0" fill="rgb(255, 264, 269)" opacity="0.8570031" stroke="rgb(95, 118, 70)" stroke-opacity="1.0" stroke-linecap="round" stroke-linejoin="round" d="M 543.114501953125 200.17344665527344 C 477.00677490234375 165.827392578125 507.5122375488281 195.21389770507812 498.0964660644531 208.26058959960938 C 489.07757568359375 207.65383911132812 490.0428161621094 194.77182006835938 490.6405334472656 311.7771911621094 C 478.8958740234375 315.65399169921875 486.0415344238281 184.426025390625 483.4213562011719 159.467529296875 C 499.8853759765625 216.0148468017578 467.81781005859375 213.82781982421875 543.114501953125 200.17344665527344"/>
    <path stroke-width="0" fill="rgb(40, 43, 51)" opacity="0.82888055" stroke="rgb(36, 124, 90)" stroke-opacity="1.0" stroke-linecap="round" stroke-linejoin="round" d="M 347.4455871582031 487.3768005371094 C 346.1234436035156 512.5881958007812 328.7800598144531 509.8800354003906 463.25714111328125 501.79638671875 C 386.76446533203125 501.32513427734375 359.908935546875 497.41851806640625 308.0725402832031 501.82598876953125 C 305.539306640625 471.366455078125 323.8125915527344 502.5309143066406 311.7267761230469 501.74505615234375 C 353.707275390625 512.7843017578125 362.5350036621094 494.0514831542969 347.4455871582031 487.3768005371094"/>
    <path stroke-width="0" fill="rgb(208, 190, 202)" opacity="0.68345106" stroke="rgb(140, 149, 245)" stroke-opacity="1.0" stroke-linecap="round" stroke-linejoin="round" d="M 83.88858795166016 385.9934387207031 C 61.74463653564453 375.7215576171875 32.52119827270508 362.04986572265625 85.28398895263672 370.38299560546875 C 125.17416381835938 361.1846008300781 109.38818359375 373.0764465332031 111.56123352050781 373.75537109375 C 30.18885612487793 373.9849548339844 58.4256706237793 368.4593505859375 87.58613586425781 387.781494140625 C 81.06175994873047 383.4233703613281 86.85092163085938 394.71710205078125 83.88858795166016 385.9934387207031"/>
    <path stroke-width="0" fill="rgb(67, 71, 66)" opacity="0.6543633" stroke="rgb(170, 200, 71)" stroke-opacity="1.0" stroke-linecap="round" stroke-linejoin="round" d="M 363.1175537109375 556.2103271484375 C 348.92156982421875 522.6312866210938 334.8482360839844 494.552001953125 354.7927551269531 503.4830017089844 C 435.8959655761719 505.51495361328125 347.3890075683594 505.478271484375 317.9975891113281 505.4974060058594 C 360.2607116699219 511.514404296875 347.0526428222656 473.703125 348.048828125 494.52447509765625 C 336.4144287109375 512.8499755859375 360.2179260253906 532.178466796875 363.1175537109375 556.2103271484375"/>
    <path stroke-width="0" fill="rgb(41, 36, 29)" opacity="0.9168896" stroke="rgb(16, 123, 249)" stroke-opacity="1.0" stroke-linecap="round" stroke-linejoin="round" d="M 353.3505554199219 449.20684814453125 C 371.3922424316406 447.5177917480469 328.5243225097656 431.5740051269531 393.58935546875 446.05364990234375 C 346.81219482421875 437.3359069824219 365.8189697265625 429.2117004394531 359.51202392578125 447.3960876464844 C 395.9933166503906 444.4089050292969 387.8458557128906 455.6641540527344 352.4956970214844 450.7890319824219 C 314.7357177734375 449.36724853515625 317.83917236328125 449.3650207519531 353.3505554199219 449.20684814453125"/>
    <path stroke-width="0" fill="rgb(12, 0, 3)" opacity="0.9857655" stroke="rgb(240, 203, 160)" stroke-opacity="1.0" stroke-linecap="round" stroke-linejoin="round" d="M -16.875452041625977 371.2172546386719 C 35.56942367553711 348.41961669921875 29.986764907836914 354.8240051269531 -1.4828338623046875 361.37261962890625 C 87.22521209716797 356.6439514160156 72.47515106201172 368.9846496582031 87.27183532714844 348.8498840332031 C 57.8520393371582 384.9483642578125 76.94296264648438 342.0328369140625 -26.78483772277832 377.58148193359375 C 141.10040283203125 381.1495361328125 376.0987243652344 370.4227600097656 -16.875452041625977 371.2172546386719"/>
    <path stroke-width="0" fill="rgb(37, 53, 62)" opacity="0.82079625" stroke="rgb(88, 37, 250)" stroke-opacity="1.0" stroke-linecap="round" stroke-linejoin="round" d="M 349.1328430175781 505.25787353515625 C 338.6228332519531 476.70404052734375 357.62945556640625 481.9934997558594 350.60186767578125 536.2670288085938 C 389.8941955566406 540.435302734375 371.01568603515625 494.862060546875 388.7636413574219 503.1728515625 C 391.8816223144531 494.38671875 386.0467834472656 459.5030517578125 375.3992614746094 545.3748779296875 C 341.9754943847656 505.40472412109375 353.5589904785156 499.8040466308594 349.1328430175781 505.25787353515625"/>
    <path stroke-width="0" fill="rgb(27, 28, 48)" opacity="0.9899631" stroke="rgb(209, 48, 130)" stroke-opacity="1.0" stroke-linecap="round" stroke-linejoin="round" d="M 66.80716705322266 448.189208984375 C 86.72071075439453 452.99713134765625 19.45366668701172 441.6971435546875 -54.312957763671875 451.5660705566406 C 102.3042221069336 453.2403869628906 108.40451049804688 450.9977111816406 100.20088958740234 452.06005859375 C 83.04933166503906 450.1785888671875 87.52455139160156 447.254150390625 67.72164916992188 452.7828674316406 C 66.78314208984375 413.7234802246094 78.3878173828125 458.984375 66.80716705322266 448.189208984375"/>
    <path stroke-width="0" fill="rgb(36, 16, 19)" opacity="0.9305875" stroke="rgb(185, 2, 196)" stroke-opacity="1.0" stroke-linecap="round" stroke-linejoin="round" d="M 106.02428436279297 451.5924072265625 C 90.91399383544922 442.48272705078125 105.75724792480469 432.5547180175781 130.62208557128906 438.3616943359375 C 138.14662170410156 458.2378234863281 122.02101135253906 446.0254211425781 -11.54283332824707 452.0858459472656 C 128.04783630371094 448.50567626953125 136.27044677734375 456.06646728515625 135.9015350341797 442.5227966308594 C 136.33802795410156 434.4420166015625 95.80558776855469 427.2326965332031 106.02428436279297 451.5924072265625"/>
    <path stroke-width="0" fill="rgb(31, 36, 24)" opacity="1.0386313" stroke="rgb(20, 22, 171)" stroke-opacity="1.0" stroke-linecap="round" stroke-linejoin="round" d="M 461.8968505859375 493.2719421386719 C 443.12396240234375 492.12060546875 473.7877502441406 524.7998046875 501.07025146484375 494.5238342285156 C 578.7705078125 485.9982604980469 573.7947387695312 489.6539001464844 140.2964324951172 489.6546936035156 C 328.20709228515625 498.0419616699219 620.3638305664062 481.94976806640625 451.9602355957031 502.8398742675781 C 469.42999267578125 489.596923828125 457.64898681640625 505.9942321777344 461.8968505859375 493.2719421386719"/>
    <path stroke-width="0" fill="rgb(-9, 7, 3)" opacity="0.79899746" stroke="rgb(107, 142, 219)" stroke-opacity="1.0" stroke-linecap="round" stroke-linejoin="round" d="M 349.13519287109375 431.2735290527344 C 281.6858215332031 432.0558776855469 342.4867858886719 430.82421875 314.8787841796875 437.66973876953125 C 394.9223327636719 439.70062255859375 341.0788879394531 444.7041320800781 313.87841796875 440.3086242675781 C 348.4371643066406 423.68560791015625 313.961181640625 437.3380432128906 -24.65077018737793 426.27960205078125 C 747.3682861328125 423.09100341796875 720.9442749023438 431.06256103515625 349.13519287109375 431.2735290527344"/>
    <path stroke-width="0" fill="rgb(19, 43, 40)" opacity="1.0228044" stroke="rgb(68, 33, 14)" stroke-opacity="1.0" stroke-linecap="round" stroke-linejoin="round" d="M 167.22544860839844 437.47625732421875 C 150.06240844726562 455.1711730957031 221.2492218017578 443.6695861816406 -57.77961730957031 450.44476318359375 C 377.5492858886719 454.2437438964844 428.87677001953125 445.3751220703125 175.64219665527344 447.5693054199219 C 160.8974151611328 445.8481140136719 170.3950958251953 456.7882080078125 167.34884643554688 436.28314208984375 C 168.1435089111328 430.5437316894531 170.7508544921875 450.2601013183594 167.22544860839844 437.47625732421875"/>
    <path stroke-width="0" fill="rgb(179, 161, 185)" opacity="0.7289547" stroke="rgb(66, 116, 174)" stroke-opacity="1.0" stroke-linecap="round" stroke-linejoin="round" d="M 240.60401916503906 368.7314453125 C 206.28070068359375 364.83306884765625 193.31173706054688 362.0391540527344 237.35720825195312 374.099853515625 C 198.54554748535156 363.086669921875 191.58363342285156 354.40716552734375 153.4586181640625 334.52606201171875 C 189.50665283203125 350.579345703125 196.8105010986328 365.635498046875 235.29080200195312 369.92498779296875 C 59.06129455566406 376.5892639160156 88.75788879394531 363.86798095703125 240.60401916503906 368.7314453125"/>
    <path stroke-width="0" fill="rgb(24, 23, 15)" opacity="0.88569987" stroke="rgb(14, 177, 198)" stroke-opacity="1.0" stroke-linecap="round" stroke-linejoin="round" d="M 357.8613586425781 356.4518737792969 C 383.83331298828125 361.5262756347656 372.9608459472656 359.2212829589844 398.08349609375 359.4412841796875 C 419.7757568359375 348.9761657714844 414.19171142578125 344.9916076660156 413.8016052246094 342.6474914550781 C 427.0654602050781 365.90850830078125 416.82305908203125 333.3805236816406 411.68914794921875 354.9271240234375 C 428.9585266113281 371.94354248046875 378.9904479980469 354.7093811035156 357.8613586425781 356.4518737792969"/>
    <path stroke-width="0" fill="rgb(48, 48, 59)" opacity="0.8683811" stroke="rgb(66, 95, 149)" stroke-opacity="1.0" stroke-linecap="round" stroke-linejoin="round" d="M 431.4224548339844 519.26806640625 C 410.95751953125 490.51611328125 448.3855285644531 495.98004150390625 437.9347839355469 498.8839416503906 C 439.7778625488281 500.3818054199219 405.3082275390625 499.5035095214844 337.66497802734375 501.6925964355469 C 405.0727233886719 506.3601989746094 440.6846008300781 511.1459045410156 448.41375732421875 502.8309631347656 C 395.4036865234375 471.9201354980469 429.0889587402344 510.5030517578125 431.4224548339844 519.26806640625"/>
    <path stroke-width="0" fill="rgb(46, 33, 40)" opacity="0.7648381" stroke="rgb(203, 19, 132)" stroke-opacity="1.0" stroke-linecap="round" stroke-linejoin="round" d="M 575.134765625 511.9687805175781 C 539.49951171875 499.6028137207031 248.67233276367188 513.5142211914062 194.5318145751953 500.42083740234375 C 449.3287048339844 498.38970947265625 496.6136474609375 504.4445495605469 505.46087646484375 490.39849853515625 C 530.1943359375 495.8256530761719 578.78759765625 490.9004821777344 412.8797607421875 489.2116394042969 C 506.3934326171875 485.62994384765625 469.3051452636719 494.8368225097656 575.134765625 511.9687805175781"/>
    <path stroke-width="0" fill="rgb(54, 56, 59)" opacity="1.0318254" stroke="rgb(109, 130, 136)" stroke-opacity="1.0" stroke-linecap="round" stroke-linejoin="round" d="M 131.24752807617188 504.79150390625 C 134.02584838867188 475.8218688964844 128.34315490722656 498.14874267578125 125.78882598876953 488.2376708984375 C 124.97686767578125 523.9232788085938 126.56754302978516 494.184326171875 126.46974182128906 504.668212890625 C 124.78257751464844 504.7769470214844 146.44110107421875 507.8899841308594 117.32696533203125 505.49786376953125 C 118.21646881103516 499.56378173828125 123.63932037353516 511.7482604980469 131.24752807617188 504.79150390625"/>
    <path stroke-width="0" fill="rgb(242, 245, 244)" opacity="0.8650143" stroke="rgb(70, 32, 100)" stroke-opacity="1.0" stroke-linecap="round" stroke-linejoin="round" d="M 403.84832763671875 87.17831420898438 C 420.1105651855469 78.20500183105469 435.3050231933594 86.81010437011719 405.3039245605469 92.877197265625 C 410.4438171386719 92.7484359741211 437.0294189453125 81.47766876220703 420.86590576171875 91.58946228027344 C 426.69952392578125 91.69277954101562 424.4411315917969 74.78702545166016 402.9898986816406 87.07574462890625 C 388.164794921875 94.35057830810547 395.2494812011719 92.42019653320312 403.84832763671875 87.17831420898438"/>
    <path stroke-width="0" fill="rgb(29, 29, 40)" opacity="0.93442744" stroke="rgb(47, 230, 138)" stroke-opacity="1.0" stroke-linecap="round" stroke-linejoin="round" d="M 229.51560974121094 451.91302490234375 C 225.99070739746094 433.68170166015625 235.78355407714844 440.0226135253906 230.77146911621094 451.1260986328125 C 432.5496826171875 454.71435546875 402.2783203125 444.7982482910156 260.3157043457031 449.5257568359375 C 257.06005859375 423.4326477050781 279.199462890625 459.4296875 242.77671813964844 448.98529052734375 C 249.2747802734375 451.9383850097656 224.73468017578125 447.3045959472656 229.51560974121094 451.91302490234375"/>
    <path stroke-width="0" fill="rgb(209, 180, 207)" opacity="0.74959815" stroke="rgb(230, 175, 178)" stroke-opacity="1.0" stroke-linecap="round" stroke-linejoin="round" d="M 177.3363494873047 367.0608825683594 C 180.0421142578125 377.7504577636719 233.5108184814453 362.3235778808594 259.2742004394531 363.6352233886719 C 228.08743286132812 364.5350646972656 227.9975128173828 359.920166015625 241.02320861816406 370.76025390625 C 229.62159729003906 372.6559753417969 225.34994506835938 370.2568054199219 418.4874572753906 371.1743469238281 C 116.3436508178711 356.55517578125 315.27197265625 381.2304382324219 177.3363494873047 367.0608825683594"/>
    <path stroke-width="0" fill="rgb(211, 219, 225)" opacity="0.4486748" stroke="rgb(192, 162, 61)" stroke-opacity="1.0" stroke-linecap="round" stroke-linejoin="round" d="M 454.9070129394531 289.6888732910156 C 463.3228759765625 291.6229248046875 439.4864196777344 294.3993835449219 446.9273376464844 256.23529052734375 C 442.6693420410156 281.07952880859375 449.4934997558594 288.9745178222656 457.89898681640625 292.11285400390625 C 462.965576171875 298.318359375 470.5265197753906 295.9781188964844 452.20465087890625 329.0859375 C 466.61578369140625 297.8085021972656 467.118408203125 297.4636535644531 454.9070129394531 289.6888732910156"/>
    <path stroke-width="0" fill="rgb(122, 128, 139)" opacity="0.75515217" stroke="rgb(209, 231, 207)" stroke-opacity="1.0" stroke-linecap="round" stroke-linejoin="round" d="M 556.3359985351562 498.1529235839844 C 399.5890808105469 503.9938659667969 431.54132080078125 489.0923767089844 428.1604309082031 518.7724609375 C 428.40771484375 509.64349365234375 426.2764892578125 518.4710693359375 422.6556091308594 510.4434509277344 C 437.2001953125 480.0693359375 394.7458190917969 495.9914855957031 498.4765625 493.3343505859375 C 434.71697998046875 468.3180236816406 417.78564453125 482.0502014160156 556.3359985351562 498.1529235839844"/>
    <path stroke-width="0" fill="rgb(53, 72, 84)" opacity="0.8022771" stroke="rgb(160, 101, 15)" stroke-opacity="1.0" stroke-linecap="round" stroke-linejoin="round" d="M 388.9801940917969 272.53485107421875 C 488.1845703125 273.30731201171875 242.37734985351562 243.70989990234375 295.93450927734375 204.52059936523438 C 460.78717041015625 204.48281860351562 409.82928466796875 188.8086700439453 414.5093994140625 268.4886169433594 C 357.30029296875 248.32980346679688 365.7437744140625 262.16650390625 288.62677001953125 223.65283203125 C 296.2668762207031 283.2477111816406 258.4228210449219 272.12310791015625 388.9801940917969 272.53485107421875"/>
    <path stroke-width="0" fill="rgb(30, 34, 29)" opacity="0.97984576" stroke="rgb(65, 216, 8)" stroke-opacity="1.0" stroke-linecap="round" stroke-linejoin="round" d="M 231.2344207763672 491.5823669433594 C 219.86083984375 489.413818359375 124.00111389160156 488.05157470703125 -115.49105834960938 489.7513122558594 C 237.62191772460938 495.93902587890625 210.1412811279297 482.79168701171875 204.47732543945312 504.5254821777344 C 193.96969604492188 483.6676025390625 193.0135498046875 497.6561279296875 298.5433349609375 491.0349426269531 C 178.27947998046875 490.82794189453125 198.2301788330078 494.2662048339844 231.2344207763672 491.5823669433594"/>
    <path stroke-width="0" fill="rgb(24, 34, 43)" opacity="0.77938753" stroke="rgb(90, 90, 4)" stroke-opacity="1.0" stroke-linecap="round" stroke-linejoin="round" d="M 278.8711242675781 437.5624694824219 C 276.4482727050781 431.1627502441406 279.0169677734375 439.6035461425781 290.5669250488281 438.0692443847656 C 302.5647277832031 448.9263916015625 286.7112731933594 438.49603271484375 287.7926330566406 433.8951721191406 C 292.13287353515625 468.65625 363.01531982421875 440.8437805175781 288.2396545410156 452.29705810546875 C 303.4636535644531 441.7711486816406 302.796630859375 445.3144836425781 278.8711242675781 437.5624694824219"/>
    <path stroke-width="0" fill="rgb(36, 21, 13)" opacity="0.76141506" stroke="rgb(102, 236, 25)" stroke-opacity="1.0" stroke-linecap="round" stroke-linejoin="round" d="M -26.10923957824707 437.9122619628906 C 57.76887512207031 448.62615966796875 24.68079948425293 432.07769775390625 -6.480884075164795 440.064453125 C 128.5210418701172 441.1938171386719 156.55490112304688 418.9405517578125 -73.36803436279297 427.1651611328125 C 147.05740356445312 435.8738098144531 107.43468475341797 419.8517150878906 81.65554809570312 440.2650451660156 C 45.727195739746094 442.7641906738281 24.37674903869629 438.7867126464844 -26.10923957824707 437.9122619628906"/>
    <path stroke-width="0" fill="rgb(76, 78, 67)" opacity="0.917415" stroke="rgb(221, 115, 83)" stroke-opacity="1.0" stroke-linecap="round" stroke-linejoin="round" d="M 559.7550659179688 363.0625 C 452.69476318359375 348.2080383300781 433.55322265625 368.578125 451.5179138183594 359.3830871582031 C 474.371826171875 356.251953125 466.15850830078125 353.8536071777344 468.36480712890625 356.7649841308594 C 482.4254455566406 356.1912536621094 431.5020751953125 356.9842529296875 116.2822265625 357.1653747558594 C 404.49578857421875 365.310791015625 487.5157165527344 355.40435791015625 559.7550659179688 363.0625"/>
    <path stroke-width="0" fill="rgb(54, 56, 74)" opacity="0.46670058" stroke="rgb(33, 3, 29)" stroke-opacity="1.0" stroke-linecap="round" stroke-linejoin="round" d="M 435.164794921875 509.6379699707031 C 454.7461242675781 491.4227294921875 453.6797180175781 513.605224609375 450.9617614746094 518.7550048828125 C 438.7997741699219 488.98974609375 472.05157470703125 514.2057495117188 457.9197692871094 488.8003234863281 C 442.21160888671875 541.4478149414062 477.7248229980469 525.5718994140625 450.40374755859375 526.6309204101562 C 446.2268371582031 505.948486328125 452.0496826171875 493.8280029296875 435.164794921875 509.6379699707031"/>
    <path stroke-width="0" fill="rgb(109, 110, 124)" opacity="0.47914615" stroke="rgb(162, 125, 252)" stroke-opacity="1.0" stroke-linecap="round" stroke-linejoin="round" d="M 231.23794555664062 116.12651062011719 C 241.27978515625 93.06230926513672 239.08705139160156 98.26416778564453 234.81362915039062 103.59881591796875 C 234.69418334960938 103.54104614257812 235.824462890625 103.57039642333984 234.3143768310547 104.49700164794922 C 237.11123657226562 103.56025695800781 244.16163635253906 91.84606170654297 245.63601684570312 70.806640625 C 245.19790649414062 88.85853576660156 238.255859375 100.80397033691406 231.23794555664062 116.12651062011719"/>
    <path stroke-width="0" fill="rgb(24, 32, 36)" opacity="0.93499523" stroke="rgb(199, 73, 61)" stroke-opacity="1.0" stroke-linecap="round" stroke-linejoin="round" d="M 418.9913635253906 440.12677001953125 C 347.60546875 432.58856201171875 389.6106872558594 468.1431884765625 621.8834228515625 439.7791748046875 C 292.2042236328125 466.42840576171875 489.0821838378906 417.77191162109375 369.79901123046875 450.9910888671875 C 452.2632141113281 450.68353271484375 391.8578796386719 456.46868896484375 437.59027099609375 436.628173828125 C 312.60870361328125 450.3522033691406 365.90362548828125 433.1594543457031 418.9913635253906 440.12677001953125"/>
    <path stroke-width="0" fill="rgb(17, 11, 17)" opacity="0.7648056" stroke="rgb(62, 169, 131)" stroke-opacity="1.0" stroke-linecap="round" stroke-linejoin="round" d="M -24.410078048706055 367.787841796875 C 10.783781051635742 441.6786193847656 -12.185037612915039 457.9698486328125 -51.58866882324219 434.6750183105469 C 27.450538635253906 427.3717346191406 39.85029602050781 427.3681640625 40.42649459838867 451.9617004394531 C 23.651865005493164 437.7272644042969 59.79945373535156 427.6391296386719 -2.427917003631592 432.4366455078125 C 26.494857788085938 465.6657409667969 -2.4087352752685547 462.11676025390625 -24.410078048706055 367.787841796875"/>
    <path stroke-width="0" fill="rgb(36, 31, 36)" opacity="0.8532493" stroke="rgb(141, 73, 180)" stroke-opacity="1.0" stroke-linecap="round" stroke-linejoin="round" d="M 374.2970886230469 450.6150207519531 C 356.13092041015625 454.9852600097656 354.9572448730469 438.30511474609375 358.27734375 436.2723388671875 C 363.8480529785156 464.00433349609375 330.8452453613281 444.3043518066406 359.0160827636719 449.69793701171875 C 357.85467529296875 450.5536804199219 341.11102294921875 429.2184143066406 396.0236511230469 438.33135986328125 C 352.35198974609375 432.8154296875 347.6373596191406 455.70355224609375 374.2970886230469 450.6150207519531"/>
    <path stroke-width="0" fill="rgb(218, 198, 226)" opacity="0.6554367" stroke="rgb(247, 230, 75)" stroke-opacity="1.0" stroke-linecap="round" stroke-linejoin="round" d="M 466.53717041015625 367.91253662109375 C 413.57427978515625 365.44390869140625 350.7030944824219 372.4355773925781 458.3095703125 371.01568603515625 C 453.287353515625 361.23138427734375 461.34033203125 359.9632568359375 466.7890930175781 369.9786376953125 C 527.3990478515625 375.9253234863281 592.6171264648438 366.2425842285156 464.69677734375 366.0435485839844 C 471.29052734375 377.5042724609375 473.8348693847656 384.05987548828125 466.53717041015625 367.91253662109375"/>
    <path stroke-width="0" fill="rgb(113, 114, 129)" opacity="0.5444331" stroke="rgb(63, 27, 242)" stroke-opacity="1.0" stroke-linecap="round" stroke-linejoin="round" d="M 213.06959533691406 111.27188873291016 C 198.06704711914062 100.08787536621094 186.45008850097656 89.50597381591797 186.1407470703125 97.51318359375 C 193.18544006347656 84.2879638671875 189.6763153076172 97.62397003173828 187.6947021484375 92.17203521728516 C 201.71197509765625 106.26009368896484 205.3750457763672 96.253662109375 198.04806518554688 111.69581604003906 C 203.26927185058594 97.52527618408203 203.6949005126953 105.75115966796875 213.06959533691406 111.27188873291016"/>
    <path stroke-width="0" fill="rgb(208, 208, 192)" opacity="0.58994997" stroke="rgb(69, 96, 95)" stroke-opacity="1.0" stroke-linecap="round" stroke-linejoin="round" d="M 327.4865417480469 74.57809448242188 C 352.73260498046875 85.64273834228516 296.5804748535156 60.71747589111328 371.42425537109375 91.23480987548828 C 387.2125549316406 89.0865478515625 362.39190673828125 99.42386627197266 355.3365478515625 93.98881530761719 C 282.0045166015625 96.4544906616211 252.00343322753906 90.37753295898438 363.0134582519531 99.31092834472656 C 374.25299072265625 90.5784912109375 358.3711853027344 85.60919189453125 327.4865417480469 74.57809448242188"/>
    <path stroke-width="0" fill="rgb(44, 38, 49)" opacity="0.8267427" stroke="rgb(60, 43, 114)" stroke-opacity="1.0" stroke-linecap="round" stroke-linejoin="round" d="M 435.13671875 346.88397216796875 C 419.6353759765625 334.36279296875 423.628662109375 336.9295349121094 429.87103271484375 373.5107421875 C 441.30755615234375 358.0234680175781 418.3414611816406 374.82586669921875 419.1992492675781 326.07574462890625 C 417.4837951660156 351.00653076171875 455.095458984375 359.33721923828125 452.36993408203125 314.9523620605469 C 420.02484130859375 366.8612976074219 439.7364196777344 357.2135925292969 435.13671875 346.88397216796875"/>
    <path stroke-width="0" fill="rgb(45, 53, 56)" opacity="0.69805247" stroke="rgb(213, 60, 128)" stroke-opacity="1.0" stroke-linecap="round" stroke-linejoin="round" d="M 318.0267639160156 160.78387451171875 C 328.3870544433594 113.4488296508789 316.5799255371094 128.99876403808594 317.33282470703125 129.14503479003906 C 327.5805969238281 122.83943939208984 316.0584716796875 124.2779541015625 319.93731689453125 125.53059387207031 C 322.43304443359375 121.6164321899414 324.697509765625 138.08023071289062 317.5124206542969 158.612548828125 C 321.4558410644531 139.93460083007812 320.404541015625 138.10003662109375 318.0267639160156 160.78387451171875"/>
    <path stroke-width="0" fill="rgb(50, 42, 47)" opacity="0.578181" stroke="rgb(161, 221, 239)" stroke-opacity="1.0" stroke-linecap="round" stroke-linejoin="round" d="M 148.50927734375 451.5523986816406 C 227.69044494628906 429.8357238769531 223.5845947265625 419.5867919921875 229.3380126953125 444.8053283691406 C 248.04638671875 435.8747863769531 255.30123901367188 432.7283935546875 238.2439422607422 440.3879089355469 C 212.20016479492188 451.48773193359375 241.21792602539062 457.0534362792969 228.3817138671875 441.5379943847656 C 222.57749938964844 420.6225891113281 223.3590545654297 431.2221374511719 148.50927734375 451.5523986816406"/>
    <path stroke-width="0" fill="rgb(5, 21, 10)" opacity="0.675094" stroke="rgb(228, 103, 140)" stroke-opacity="1.0" stroke-linecap="round" stroke-linejoin="round" d="M 219.48123168945312 431.97686767578125 C 11.694601058959961 425.2550048828125 -85.69770050048828 433.9866027832031 149.92283630371094 431.469970703125 C 180.16043090820312 433.1165466308594 153.43997192382812 419.9851989746094 167.58175659179688 450.47259521484375 C 162.20257568359375 426.4785461425781 172.9036407470703 437.6063537597656 157.61061096191406 440.3345031738281 C 180.76551818847656 428.6654357910156 122.08724975585938 431.5412902832031 219.48123168945312 431.97686767578125"/>
    <path stroke-width="0" fill="rgb(252, 254, 257)" opacity="0.6829013" stroke="rgb(116, 102, 63)" stroke-opacity="1.0" stroke-linecap="round" stroke-linejoin="round" d="M 457.74871826171875 113.49141693115234 C 449.5340270996094 118.63448333740234 459.6241149902344 115.39432525634766 477.52685546875 119.97295379638672 C 450.297607421875 128.75180053710938 458.2539978027344 108.2740478515625 481.2812805175781 118.80220031738281 C 469.6311340332031 117.77671813964844 459.9403381347656 107.76587677001953 444.4050598144531 113.27220153808594 C 501.60052490234375 120.69002532958984 508.0426025390625 130.15313720703125 457.74871826171875 113.49141693115234"/>
    <path stroke-width="0" fill="rgb(103, 116, 115)" opacity="0.27280205" stroke="rgb(85, 235, 219)" stroke-opacity="1.0" stroke-linecap="round" stroke-linejoin="round" d="M 460.1115417480469 151.50184631347656 C 468.9959411621094 110.64320373535156 451.0410461425781 125.87474060058594 442.0594177246094 115.69307708740234 C 433.79010009765625 113.40499877929688 427.79296875 117.98130798339844 427.76806640625 116.9887924194336 C 442.3647155761719 111.22122955322266 436.4519348144531 119.83048248291016 458.16131591796875 121.5368423461914 C 456.14947509765625 118.75102996826172 467.6139221191406 126.59817504882812 460.1115417480469 151.50184631347656"/>
    <path stroke-width="0" fill="rgb(240, 244, 243)" opacity="0.77522594" stroke="rgb(64, 113, 26)" stroke-opacity="1.0" stroke-linecap="round" stroke-linejoin="round" d="M 477.31549072265625 87.2859115600586 C 458.8241271972656 82.2944107055664 478.58245849609375 103.30647277832031 487.3994140625 93.16140747070312 C 445.8556823730469 83.469970703125 438.3111267089844 69.096923828125 445.92816162109375 91.58441162109375 C 493.61590576171875 98.40723419189453 498.2928466796875 89.08261108398438 484.4006652832031 80.99356842041016 C 461.1597595214844 94.10824584960938 478.3651123046875 100.88200378417969 477.31549072265625 87.2859115600586"/>
    <path stroke-width="0" fill="rgb(62, 205, 46)" opacity="0.12601064" stroke="rgb(0, 0, 0)" stroke-opacity="0.0" stroke-linecap="round" stroke-linejoin="round" d="M 30.74102210998535 13.151050567626953 C 30.462909698486328 18.42769432067871 29.35321807861328 21.5458927154541 27.07900619506836 20.285839080810547 C 21.73812484741211 19.022064208984375 18.514984130859375 16.19255256652832 16.593141555786133 11.969586372375488 C 15.666297912597656 7.662064075469971 18.110824584960938 3.8594255447387695 22.955400466918945 3.516099214553833 C 27.685279846191406 7.4490156173706055 30.8966007232666 10.119134902954102 30.74102210998535 13.151050567626953"/>
    <path stroke-width="0" fill="rgb(105, 83, 52)" opacity="0.40423563" stroke="rgb(0, 0, 0)" stroke-opacity="0.0" stroke-linecap="round" stroke-linejoin="round" d="M 231.85816955566406 103.24323272705078 C 230.66888427734375 107.65310668945312 228.53012084960938 110.87293243408203 225.03785705566406 110.68578338623047 C 221.12229919433594 110.20683288574219 218.36195373535156 106.84725952148438 216.17083740234375 103.93509674072266 C 218.03463745117188 100.48434448242188 221.3005828857422 98.13622283935547 224.73031616210938 97.43448638916016 C 227.88760375976562 97.60050964355469 231.37396240234375 100.0467758178711 231.85816955566406 103.24323272705078"/>
    <path stroke-width="0" fill="rgb(226, 204, 147)" opacity="0.83666414" stroke="rgb(0, 0, 0)" stroke-opacity="0.0" stroke-linecap="round" stroke-linejoin="round" d="M 275.246337890625 18.382793426513672 C 274.94439697265625 22.887739181518555 272.18682861328125 25.766056060791016 267.5909729003906 26.44536590576172 C 262.62615966796875 25.528789520263672 259.50726318359375 22.753952026367188 258.7455139160156 18.566783905029297 C 260.203857421875 13.762166976928711 263.0675354003906 10.738000869750977 266.60211181640625 10.055764198303223 C 271.123291015625 11.410622596740723 274.0482177734375 14.155084609985352 275.246337890625 18.382793426513672"/>
    <path stroke-width="0" fill="rgb(254, 246, 161)" opacity="0.12418643" stroke="rgb(0, 0, 0)" stroke-opacity="0.0" stroke-linecap="round" stroke-linejoin="round" d="M 20.485822677612305 34.374874114990234 C 18.728778839111328 38.0965576171875 15.885812759399414 41.24156188964844 12.54336929321289 42.43545913696289 C 8.579527854919434 40.945438385009766 5.40728759765625 38.20834732055664 4.155056953430176 34.50590896606445 C 5.5149030685424805 30.945981979370117 8.943133354187012 28.100780487060547 12.3862886428833 26.54875373840332 C 16.11858558654785 27.62396812438965 19.053770065307617 30.541776657104492 20.485822677612305 34.374874114990234"/>
    <path stroke-width="0" fill="rgb(236, 87, 167)" opacity="0.246021" stroke="rgb(0, 0, 0)" stroke-opacity="0.0" stroke-linecap="round" stroke-linejoin="round" d="M 8.39338493347168 102.3899154663086 C 7.264519691467285 105.38707733154297 5.0820159912109375 109.29385375976562 1.745874285697937 110.82122039794922 C -3.200591564178467 109.12960815429688 -5.913355350494385 105.94603729248047 -6.937503814697266 101.8660888671875 C -5.704292297363281 98.12567138671875 -2.5293986797332764 95.38668823242188 0.7950904369354248 94.44356536865234 C 3.674792766571045 95.99765014648438 6.300941467285156 99.51664733886719 8.39338493347168 102.3899154663086"/>
    <path stroke-width="0" fill="rgb(201, 27, 100)" opacity="0.22121812" stroke="rgb(0, 0, 0)" stroke-opacity="0.0" stroke-linecap="round" stroke-linejoin="round" d="M -0.9174094200134277 5.647294521331787 C -1.9892061948776245 9.647294044494629 -4.917409420013428 12.5754976272583 -8.917409896850586 13.647294044494629 C -12.917409896850586 12.5754976272583 -15.845612525939941 9.647294044494629 -16.917409896850586 5.647294521331787 C -15.845612525939941 1.647294521331787 -12.917409896850586 -1.2809088230133057 -8.917409896850586 -2.352705478668213 C -4.917409420013428 -1.2809088230133057 -1.9892061948776245 1.647294521331787 -0.9174094200134277 5.647294521331787"/>
    <path stroke-width="0" fill="rgb(78, 119, 96)" opacity="0.6714507" stroke="rgb(0, 0, 0)" stroke-opacity="0.0" stroke-linecap="round" stroke-linejoin="round" d="M 59.9278678894043 204.13360595703125 C 59.88983917236328 207.6633758544922 56.736351013183594 210.09681701660156 51.76059341430664 210.7606201171875 C 48.22898864746094 210.5090789794922 45.591651916503906 207.36785888671875 44.46634292602539 203.1647491455078 C 45.89020538330078 199.81103515625 48.964839935302734 196.46791076660156 51.131961822509766 196.4250946044922 C 55.13383865356445 197.71856689453125 58.28596496582031 200.47607421875 59.9278678894043 204.13360595703125"/>
    <path stroke-width="0" fill="rgb(78, 209, 242)" opacity="0.27620023" stroke="rgb(0, 0, 0)" stroke-opacity="0.0" stroke-linecap="round" stroke-linejoin="round" d="M 331.72418212890625 117.36517333984375 C 331.5126037597656 122.78720092773438 329.59613037109375 126.0072021484375 324.3758239746094 126.98564147949219 C 319.85009765625 125.92267608642578 317.4739074707031 122.5965347290039 316.8629150390625 118.10920715332031 C 317.75689697265625 113.8904800415039 320.37152099609375 110.88622283935547 324.6243896484375 110.5599594116211 C 329.5639343261719 110.80988311767578 332.2676086425781 113.1113510131836 331.72418212890625 117.36517333984375"/>
    <path stroke-width="0" fill="rgb(182, 48, 100)" opacity="0.8598794" stroke="rgb(0, 0, 0)" stroke-opacity="0.0" stroke-linecap="round" stroke-linejoin="round" d="M 120.53617858886719 80.34383392333984 C 119.30350494384766 82.74395751953125 115.78145599365234 85.22340393066406 112.5699691772461 86.5284652709961 C 109.87740325927734 85.13211822509766 106.66312408447266 82.54389953613281 105.70191955566406 80.00231170654297 C 106.94650268554688 76.36361694335938 109.66416931152344 73.28355407714844 111.63951110839844 72.40312194824219 C 115.18080139160156 74.08641052246094 118.1080551147461 77.09729766845703 120.53617858886719 80.34383392333984"/>
    <path stroke-width="0" fill="rgb(119, 205, 239)" opacity="0.2581648" stroke="rgb(0, 0, 0)" stroke-opacity="0.0" stroke-linecap="round" stroke-linejoin="round" d="M 16.491025924682617 301.2449035644531 C 14.72865104675293 305.04571533203125 12.294508934020996 308.8906555175781 9.842120170593262 309.8839416503906 C 5.641033172607422 308.4820861816406 1.9683963060379028 306.5219421386719 0.658627986907959 302.58026123046875 C 1.8019272089004517 298.49066162109375 5.970848560333252 296.3597717285156 10.048768997192383 294.9689636230469 C 13.882708549499512 294.8621826171875 16.58854103088379 297.7900085449219 16.491025924682617 301.2449035644531"/>
    <path stroke-width="0" fill="rgb(245, 181, 106)" opacity="0.23457387" stroke="rgb(0, 0, 0)" stroke-opacity="0.0" stroke-linecap="round" stroke-linejoin="round" d="M 256.6560974121094 300.8340148925781 C 255.0055389404297 304.3994445800781 252.7124786376953 308.1512451171875 249.15245056152344 309.0581359863281 C 245.26113891601562 307.7908630371094 242.39285278320312 304.8460998535156 240.9521484375 300.8539733886719 C 242.67628479003906 298.0697326660156 246.07640075683594 295.25909423828125 249.23391723632812 293.84417724609375 C 252.0727081298828 294.9583740234375 255.11810302734375 298.18707275390625 256.6560974121094 300.8340148925781"/>
    <path stroke-width="0" fill="rgb(232, 165, 113)" opacity="0.19237083" stroke="rgb(0, 0, 0)" stroke-opacity="0.0" stroke-linecap="round" stroke-linejoin="round" d="M 120.02017211914062 161.61795043945312 C 118.5615463256836 164.8335723876953 114.57646179199219 167.1513671875 111.07266235351562 169.27908325195312 C 108.35266876220703 167.98960876464844 105.40350341796875 165.14666748046875 104.51546478271484 161.5078125 C 105.34487915039062 157.8603057861328 108.0887680053711 154.89013671875 112.29512786865234 153.708251953125 C 116.17254638671875 154.4214630126953 118.93000030517578 157.37643432617188 120.02017211914062 161.61795043945312"/>
    <path stroke-width="0" fill="rgb(230, 218, 213)" opacity="0.87270427" stroke="rgb(0, 0, 0)" stroke-opacity="0.0" stroke-linecap="round" stroke-linejoin="round" d="M 369.0329895019531 332.4979248046875 C 368.1482238769531 335.6301574707031 364.88787841796875 338.4814453125 360.90972900390625 339.9938049316406 C 357.8503723144531 339.71539306640625 355.2307434082031 336.50946044921875 355.091796875 332.37725830078125 C 355.2397155761719 328.79974365234375 357.9667663574219 325.6806640625 361.6640319824219 324.8370666503906 C 365.4402770996094 326.10101318359375 368.59991455078125 328.9397277832031 369.0329895019531 332.4979248046875"/>
    <path stroke-width="0" fill="rgb(142, 170, 76)" opacity="0.015579279" stroke="rgb(0, 0, 0)" stroke-opacity="0.0" stroke-linecap="round" stroke-linejoin="round" d="M 196.92959594726562 194.07064819335938 C 195.7353973388672 198.26914978027344 193.2014617919922 201.5759735107422 189.4584503173828 202.5324249267578 C 185.15704345703125 201.35855102539062 182.12466430664062 198.63287353515625 181.4160614013672 194.57139587402344 C 182.25814819335938 190.60018920898438 185.35806274414062 187.77081298828125 188.7920379638672 186.36378479003906 C 192.87628173828125 187.99050903320312 196.10423278808594 190.63241577148438 196.92959594726562 194.07064819335938"/>
    <path stroke-width="0" fill="rgb(225, 219, 165)" opacity="0.33619583" stroke="rgb(0, 0, 0)" stroke-opacity="0.0" stroke-linecap="round" stroke-linejoin="round" d="M 165.99453735351562 482.25341796875 C 165.47213745117188 486.987548828125 162.62937927246094 490.1143493652344 158.5857391357422 490.1838073730469 C 153.8385772705078 489.2024841308594 150.8231658935547 486.64862060546875 150.8477783203125 482.3468933105469 C 150.85447692871094 477.7027587890625 152.918701171875 473.9039306640625 157.70535278320312 473.2582092285156 C 162.17532348632812 475.2438049316406 165.1730194091797 478.1881408691406 165.99453735351562 482.25341796875"/>
    <path stroke-width="0" fill="rgb(199, 17, 198)" opacity="0.7641088" stroke="rgb(0, 0, 0)" stroke-opacity="0.0" stroke-linecap="round" stroke-linejoin="round" d="M 423.7921447753906 50.25841522216797 C 422.74334716796875 52.9423942565918 419.9208068847656 56.0249137878418 416.6281433105469 57.422359466552734 C 414.5389404296875 56.39619827270508 411.7821960449219 53.25407409667969 411.1070861816406 51.50251388549805 C 412.47698974609375 48.50177001953125 415.38037109375 45.534847259521484 417.8039245605469 44.4858283996582 C 419.59686279296875 45.42000961303711 422.7320251464844 48.17874526977539 423.7921447753906 50.25841522216797"/>
    <path stroke-width="0" fill="rgb(42, 41, 195)" opacity="0.53623235" stroke="rgb(0, 0, 0)" stroke-opacity="0.0" stroke-linecap="round" stroke-linejoin="round" d="M 327.67742919921875 257.8161926269531 C 327.8951416015625 261.5460510253906 325.89715576171875 265.367919921875 321.4121398925781 266.41668701171875 C 316.8429260253906 264.470458984375 313.9934997558594 261.47943115234375 313.61614990234375 257.5699462890625 C 314.5451965332031 253.39022827148438 317.20733642578125 250.4646453857422 321.1881103515625 249.60313415527344 C 324.6773376464844 250.42112731933594 326.8420715332031 254.04144287109375 327.67742919921875 257.8161926269531"/>
    <path stroke-width="0" fill="rgb(29, 229, 70)" opacity="0.41361454" stroke="rgb(0, 0, 0)" stroke-opacity="0.0" stroke-linecap="round" stroke-linejoin="round" d="M 331.0931396484375 313.20916748046875 C 330.21197509765625 317.68310546875 326.98553466796875 320.0847473144531 322.95697021484375 321.08270263671875 C 319.833984375 320.11578369140625 317.3726806640625 316.4150695800781 315.8482666015625 312.9731750488281 C 316.87451171875 310.4705505371094 320.2357482910156 307.9732666015625 323.14776611328125 307.22222900390625 C 325.76513671875 307.9761047363281 329.8003845214844 310.3370056152344 331.0931396484375 313.20916748046875"/>
    <path stroke-width="0" fill="rgb(42, 36, 24)" opacity="0.33066854" stroke="rgb(0, 0, 0)" stroke-opacity="0.0" stroke-linecap="round" stroke-linejoin="round" d="M 11.519689559936523 53.231380462646484 C 9.27822494506836 56.21459197998047 5.812828540802002 59.20225143432617 3.725748300552368 60.854270935058594 C 0.5706982016563416 59.306610107421875 -2.3513448238372803 56.304359436035156 -3.813403844833374 52.946048736572266 C -3.0956647396087646 50.10929489135742 -0.19263625144958496 47.11370086669922 3.616288661956787 45.36412811279297 C 7.250372409820557 46.93910598754883 10.708398818969727 49.37790298461914 11.519689559936523 53.231380462646484"/>
    <path stroke-width="0" fill="rgb(97, 27, 13)" opacity="0.25506938" stroke="rgb(0, 0, 0)" stroke-opacity="0.0" stroke-linecap="round" stroke-linejoin="round" d="M 224.44105529785156 340.2387390136719 C 223.54104614257812 343.28961181640625 220.87159729003906 346.43438720703125 217.5792236328125 347.5199890136719 C 214.43414306640625 346.4209289550781 211.40194702148438 343.18463134765625 209.82122802734375 339.3800964355469 C 209.84542846679688 335.3478088378906 212.92262268066406 332.7654113769531 218.48736572265625 331.716064453125 C 221.8527374267578 332.11248779296875 223.9311981201172 336.130126953125 224.44105529785156 340.2387390136719"/>
    <path stroke-width="0" fill="rgb(194, 156, 147)" opacity="0.47767213" stroke="rgb(0, 0, 0)" stroke-opacity="0.0" stroke-linecap="round" stroke-linejoin="round" d="M 501.08392333984375 77.27412414550781 C 501.0795593261719 81.71432495117188 498.58428955078125 84.96355438232422 495.3194274902344 85.46517944335938 C 491.3757019042969 83.20183563232422 488.590087890625 80.04082489013672 487.2828063964844 77.64856719970703 C 487.5722961425781 73.41295623779297 489.7469482421875 69.91481018066406 494.4896545410156 69.70946502685547 C 499.6522521972656 69.12788391113281 501.4234924316406 72.0125732421875 501.08392333984375 77.27412414550781"/>
    <path stroke-width="0" fill="rgb(117, 248, 194)" opacity="0.020802705" stroke="rgb(0, 0, 0)" stroke-opacity="0.0" stroke-linecap="round" stroke-linejoin="round" d="M 338.632568359375 317.5835266113281 C 338.3714294433594 323.236572265625 336.0038757324219 326.2539367675781 331.7803039550781 327.0052795410156 C 326.55242919921875 325.54376220703125 323.9086608886719 322.9020690917969 323.86260986328125 318.62091064453125 C 324.36895751953125 314.48785400390625 327.165771484375 311.5201416015625 330.29656982421875 310.58807373046875 C 334.99578857421875 311.8636779785156 338.6325378417969 314.1626281738281 338.632568359375 317.5835266113281"/>
    <path stroke-width="0" fill="rgb(63, 43, 49)" opacity="0.96335346" stroke="rgb(0, 0, 0)" stroke-opacity="0.0" stroke-linecap="round" stroke-linejoin="round" d="M 158.33346557617188 134.11692810058594 C 157.51698303222656 138.73963928222656 155.25833129882812 141.91053771972656 152.12322998046875 141.8568572998047 C 147.64300537109375 141.44631958007812 144.79122924804688 138.72093200683594 145.02999877929688 135.5377655029297 C 145.32550048828125 131.30340576171875 147.20684814453125 127.88496398925781 151.6431884765625 127.79204559326172 C 156.2978515625 127.22589111328125 159.00701904296875 130.0638427734375 158.33346557617188 134.11692810058594"/>
    <path stroke-width="0" fill="rgb(230, 165, 69)" opacity="0.2903546" stroke="rgb(0, 0, 0)" stroke-opacity="0.0" stroke-linecap="round" stroke-linejoin="round" d="M 518.1536254882812 337.0252685546875 C 516.5695190429688 340.52337646484375 513.7857055664062 343.8180847167969 510.1422119140625 346.0116271972656 C 507.9699401855469 342.4835205078125 505.14373779296875 339.2897644042969 502.59161376953125 335.8740539550781 C 502.1249694824219 331.6865539550781 504.54290771484375 328.3850402832031 508.7768859863281 328.0482482910156 C 514.8428955078125 329.572509765625 517.4290771484375 332.793701171875 518.1536254882812 337.0252685546875"/>
    <path stroke-width="0" fill="rgb(32, 66, 47)" opacity="0.5848578" stroke="rgb(0, 0, 0)" stroke-opacity="0.0" stroke-linecap="round" stroke-linejoin="round" d="M 65.39922332763672 38.17298126220703 C 64.26895141601562 42.49463653564453 61.4300422668457 45.609859466552734 58.709388732910156 45.83197021484375 C 54.78199768066406 44.67940139770508 52.25576400756836 41.37891387939453 49.59412384033203 37.88117218017578 C 50.13242721557617 34.55233383178711 53.61241912841797 31.98563575744629 57.550811767578125 31.377666473388672 C 61.7099494934082 32.56145095825195 65.32048034667969 34.4660530090332 65.39922332763672 38.17298126220703"/>
    <path stroke-width="0" fill="rgb(61, 62, 66)" opacity="0.8703051" stroke="rgb(0, 0, 0)" stroke-opacity="0.0" stroke-linecap="round" stroke-linejoin="round" d="M 232.93125915527344 283.3586120605469 C 232.37252807617188 286.4324645996094 229.2375030517578 289.168212890625 226.23007202148438 289.6477355957031 C 222.8392333984375 288.7579040527344 219.75938415527344 285.68267822265625 218.26388549804688 282.99688720703125 C 219.92697143554688 280.1556701660156 223.1117706298828 277.23828125 226.18496704101562 275.7725524902344 C 229.01937866210938 276.6991882324219 231.98492431640625 279.5047607421875 232.93125915527344 283.3586120605469"/>
    <path stroke-width="0" fill="rgb(231, 98, 95)" opacity="0.4377414" stroke="rgb(0, 0, 0)" stroke-opacity="0.0" stroke-linecap="round" stroke-linejoin="round" d="M 71.93215942382812 104.88109588623047 C 71.0343246459961 108.96583557128906 68.52574157714844 111.87622833251953 64.77674865722656 112.18535614013672 C 60.896705627441406 111.22664642333984 57.46111297607422 108.83757781982422 56.96162796020508 105.37364959716797 C 57.69152069091797 101.23949432373047 60.7939567565918 98.59922790527344 64.46517944335938 98.38369750976562 C 68.00997161865234 98.65815734863281 71.29918670654297 101.19610595703125 71.93215942382812 104.88109588623047"/>
    <path stroke-width="0" fill="rgb(222, 175, 9)" opacity="0.93664396" stroke="rgb(0, 0, 0)" stroke-opacity="0.0" stroke-linecap="round" stroke-linejoin="round" d="M 180.64544677734375 187.9999542236328 C 179.85986328125 191.33941650390625 176.8043212890625 193.96902465820312 172.87046813964844 194.65509033203125 C 169.68045043945312 193.95994567871094 166.3975830078125 191.33868408203125 165.6736297607422 188.22662353515625 C 166.5855712890625 183.68023681640625 169.10128784179688 180.7076873779297 172.6014404296875 180.36900329589844 C 176.65396118164062 181.27783203125 179.54029846191406 184.18795776367188 180.64544677734375 187.9999542236328"/>
    <path stroke-width="0" fill="rgb(175, 249, 32)" opacity="0.7466881" stroke="rgb(0, 0, 0)" stroke-opacity="0.0" stroke-linecap="round" stroke-linejoin="round" d="M -4.753452301025391 -11.26461410522461 C -5.825249195098877 -7.264614582061768 -8.75345230102539 -4.336410999298096 -12.75345230102539 -3.2646143436431885 C -16.75345230102539 -4.336410999298096 -19.681655883789062 -7.264614582061768 -20.75345230102539 -11.26461410522461 C -19.681655883789062 -15.26461410522461 -16.75345230102539 -18.19281768798828 -12.75345230102539 -19.26461410522461 C -8.75345230102539 -18.19281768798828 -5.825249195098877 -15.26461410522461 -4.753452301025391 -11.26461410522461"/>
  </g>
</svg>
