<?xml version="1.0" ?>
<svg xmlns="http://www.w3.org/2000/svg" version="1.1" width="512" height="512">
  <defs/>
  <g>
    <path stroke-width="0" fill="rgb(-22, -45, 25)" opacity="1.1903832" stroke="rgb(139, 182, 153)" stroke-opacity="1.0" stroke-linecap="round" stroke-linejoin="round" d="M 576.20458984375 160.9332733154297 C 473.16265869140625 155.9579620361328 255.8714141845703 160.87615966796875 21.719175338745117 159.3325958251953 C 149.9614715576172 41.40039825439453 217.20492553710938 78.77104187011719 174.48895263671875 -25.099302291870117 C 185.01902770996094 -33.60383224487305 197.35633850097656 -35.491127014160156 255.80075073242188 -34.28067398071289 C 358.966064453125 -48.58316421508789 437.3557434082031 -146.61329650878906 576.20458984375 160.9332733154297"/>
    <path stroke-width="0" fill="rgb(33, 58, 36)" opacity="0.57853216" stroke="rgb(108, 164, 111)" stroke-opacity="1.0" stroke-linecap="round" stroke-linejoin="round" d="M 319.32080078125 712.1721801757812 C -123.50276947021484 747.3795166015625 7.5245795249938965 368.8645324707031 43.37661361694336 83.52869415283203 C 293.0481872558594 122.73342895507812 289.8204040527344 118.47431945800781 280.1459045410156 40.89720916748047 C 284.2266845703125 -66.92325592041016 317.0650329589844 -46.443145751953125 442.3717346191406 -36.365211486816406 C 639.143310546875 -2.5854287147521973 854.1314086914062 240.14646911621094 319.32080078125 712.1721801757812"/>
    <path stroke-width="0" fill="rgb(78, 110, 66)" opacity="1.0594244" stroke="rgb(245, 97, 201)" stroke-opacity="1.0" stroke-linecap="round" stroke-linejoin="round" d="M 364.07916259765625 88.61966705322266 C 332.8064880371094 106.12300109863281 323.66973876953125 110.73318481445312 88.56259155273438 107.0931625366211 C 110.6676025390625 103.6150894165039 112.05255126953125 111.51028442382812 120.72222900390625 67.0373764038086 C 135.6087188720703 -33.50758361816406 141.19656372070312 -41.69476318359375 171.8328399658203 -45.73848342895508 C 293.27679443359375 -29.451234817504883 318.1731872558594 -36.872032165527344 364.07916259765625 88.61966705322266"/>
    <path stroke-width="0" fill="rgb(7, 3, 19)" opacity="1.0156956" stroke="rgb(144, 236, 18)" stroke-opacity="1.0" stroke-linecap="round" stroke-linejoin="round" d="M 257.29925537109375 84.2656021118164 C 199.76077270507812 105.83260345458984 295.340576171875 69.86231231689453 532.3873901367188 141.62355041503906 C 130.81253051757812 149.06373596191406 19.77372169494629 93.98300170898438 -28.992650985717773 241.17164611816406 C -45.53935623168945 -103.79988098144531 -12.785496711730957 -54.71656799316406 149.3677215576172 -35.13600158691406 C 205.51968383789062 -44.204017639160156 223.28128051757812 -50.80670166015625 257.29925537109375 84.2656021118164"/>
    <path stroke-width="0" fill="rgb(266, 263, 256)" opacity="1.0414416" stroke="rgb(5, 212, 198)" stroke-opacity="1.0" stroke-linecap="round" stroke-linejoin="round" d="M 494.691162109375 244.13546752929688 C 467.08367919921875 180.59312438964844 269.61126708984375 189.30712890625 293.0985412597656 219.2471466064453 C 193.1451873779297 181.46653747558594 154.13491821289062 185.8671417236328 129.6368408203125 158.96731567382812 C 81.35518646240234 158.4273223876953 84.67025756835938 158.42425537109375 497.99127197265625 158.4647674560547 C 494.37396240234375 156.53341674804688 494.8313293457031 136.6573486328125 494.691162109375 244.13546752929688"/>
    <path stroke-width="0" fill="rgb(217, 231, 228)" opacity="0.6206659" stroke="rgb(30, 163, 36)" stroke-opacity="1.0" stroke-linecap="round" stroke-linejoin="round" d="M 636.0071411132812 411.86376953125 C 456.384521484375 442.4601135253906 159.89776611328125 407.9049987792969 155.90818786621094 425.5112609863281 C 282.6910705566406 422.1183166503906 323.9399108886719 423.82879638671875 -33.47682571411133 425.4133605957031 C 198.293212890625 395.2823181152344 232.03768920898438 423.5634460449219 57.03318405151367 411.091064453125 C 131.87698364257812 416.6135559082031 306.1593017578125 400.7962341308594 636.0071411132812 411.86376953125"/>
    <path stroke-width="0" fill="rgb(230, 234, 228)" opacity="0.7581058" stroke="rgb(133, 105, 67)" stroke-opacity="1.0" stroke-linecap="round" stroke-linejoin="round" d="M 573.4888916015625 381.70147705078125 C 752.6484985351562 402.36041259765625 595.98291015625 396.35772705078125 62.83686828613281 398.6755676269531 C 180.71315002441406 391.35400390625 -87.82186126708984 413.4144287109375 -64.29767608642578 379.4815979003906 C 520.1357421875 379.59820556640625 496.521484375 380.365234375 446.25054931640625 377.8059997558594 C 394.0234375 381.354736328125 406.1573181152344 378.656005859375 573.4888916015625 381.70147705078125"/>
    <path stroke-width="0" fill="rgb(227, 224, 227)" opacity="0.93815964" stroke="rgb(116, 144, 4)" stroke-opacity="1.0" stroke-linecap="round" stroke-linejoin="round" d="M 597.3067016601562 423.0762939453125 C -79.74163055419922 421.9620056152344 23.953344345092773 424.4676818847656 79.12586212158203 426.282958984375 C 223.18011474609375 412.87548828125 -62.99019241333008 442.7099609375 -78.80663299560547 409.0385437011719 C 80.44149780273438 410.6907958984375 251.6732940673828 409.3473205566406 308.8692321777344 408.2672424316406 C 131.79490661621094 422.5559997558594 226.25686645507812 392.1924743652344 597.3067016601562 423.0762939453125"/>
    <path stroke-width="0" fill="rgb(267, 265, 265)" opacity="1.0145774" stroke="rgb(156, 157, 240)" stroke-opacity="1.0" stroke-linecap="round" stroke-linejoin="round" d="M 498.03167724609375 277.99542236328125 C 462.6797790527344 304.5550842285156 617.6449584960938 295.8750915527344 -40.23125076293945 298.9305419921875 C -88.79256439208984 264.00634765625 -96.796875 272.4207458496094 256.32342529296875 272.16802978515625 C 271.0904235839844 270.99273681640625 258.1199645996094 130.4245147705078 281.5054931640625 168.32078552246094 C 322.3319396972656 314.89825439453125 208.10643005371094 254.1702117919922 498.03167724609375 277.99542236328125"/>
    <path stroke-width="0" fill="rgb(227, 223, 230)" opacity="0.98352313" stroke="rgb(91, 111, 177)" stroke-opacity="1.0" stroke-linecap="round" stroke-linejoin="round" d="M 594.1835327148438 407.90325927734375 C 475.2022705078125 452.6888732910156 262.9412536621094 375.9639587402344 170.81106567382812 425.9881591796875 C 250.60308837890625 412.7353210449219 241.89859008789062 421.79644775390625 213.8297882080078 413.7543640136719 C 259.4653015136719 420.0281982421875 278.7674865722656 441.6358337402344 148.6899871826172 409.1498718261719 C 180.10601806640625 419.08355712890625 479.9405212402344 401.8368835449219 594.1835327148438 407.90325927734375"/>
    <path stroke-width="0" fill="rgb(264, 264, 264)" opacity="1.0091368" stroke="rgb(170, 171, 53)" stroke-opacity="1.0" stroke-linecap="round" stroke-linejoin="round" d="M 489.0363464355469 165.5042266845703 C 282.6131591796875 216.68309020996094 748.678955078125 201.41384887695312 19.244686126708984 204.28585815429688 C 33.414981842041016 211.40997314453125 -59.3029899597168 217.50460815429688 -52.6939811706543 158.16305541992188 C 117.35249328613281 159.0706329345703 190.06275939941406 158.47189331054688 231.1527557373047 161.45855712890625 C 133.40267944335938 163.4031219482422 192.9032745361328 157.15126037597656 489.0363464355469 165.5042266845703"/>
    <path stroke-width="0" fill="rgb(127, 132, 117)" opacity="1.0427231" stroke="rgb(80, 92, 145)" stroke-opacity="1.0" stroke-linecap="round" stroke-linejoin="round" d="M 523.9085083007812 97.68203735351562 C 443.2773742675781 65.45106506347656 510.8893127441406 75.22885131835938 440.3817443847656 65.26221466064453 C 320.9811706542969 74.39386749267578 354.08648681640625 47.69736862182617 359.4963684082031 2.4037415981292725 C 356.92034912109375 -22.19441032409668 361.8374328613281 -30.03411102294922 367.84271240234375 -27.7027645111084 C 381.0766296386719 56.59177017211914 497.8004150390625 -9.089073181152344 523.9085083007812 97.68203735351562"/>
    <path stroke-width="0" fill="rgb(264, 259, 258)" opacity="1.0391525" stroke="rgb(252, 26, 53)" stroke-opacity="1.0" stroke-linecap="round" stroke-linejoin="round" d="M 451.77374267578125 40.68803405761719 C 402.3000793457031 53.5868034362793 357.011962890625 70.91474151611328 353.002197265625 72.06694793701172 C 393.6954345703125 127.49068450927734 333.72979736328125 86.9058609008789 311.1521911621094 31.23326873779297 C 325.5731201171875 16.743988037109375 339.9295654296875 13.719206809997559 417.2138977050781 0.7246676087379456 C 414.02630615234375 16.867048263549805 448.4535217285156 4.549082279205322 451.77374267578125 40.68803405761719"/>
    <path stroke-width="0" fill="rgb(7, 11, -9)" opacity="0.9387539" stroke="rgb(166, 64, 118)" stroke-opacity="1.0" stroke-linecap="round" stroke-linejoin="round" d="M 132.20008850097656 397.6434326171875 C 233.73570251464844 399.9114685058594 121.67059326171875 399.51654052734375 -78.66193389892578 399.1402893066406 C 12.849431991577148 409.8684997558594 -49.30447769165039 408.4110107421875 75.12171936035156 409.0860900878906 C 110.09151458740234 408.7549133300781 133.2463836669922 407.4752197265625 252.57763671875 405.7278137207031 C 71.69459533691406 394.1059875488281 89.58740997314453 397.3794250488281 132.20008850097656 397.6434326171875"/>
    <path stroke-width="0" fill="rgb(112, 90, 117)" opacity="0.9488047" stroke="rgb(40, 28, 167)" stroke-opacity="1.0" stroke-linecap="round" stroke-linejoin="round" d="M 418.6342468261719 -32.07743453979492 C 434.4682922363281 23.7982177734375 455.11016845703125 65.00762939453125 442.3533630371094 3.941852331161499 C 386.6174011230469 -19.35970687866211 374.3526916503906 -16.450927734375 312.05523681640625 -19.66071319580078 C 315.1639404296875 -29.508440017700195 323.5223083496094 -35.45821762084961 394.3455505371094 -33.86525344848633 C 406.1054382324219 -37.010616302490234 415.6422424316406 -32.56230163574219 418.6342468261719 -32.07743453979492"/>
    <path stroke-width="0" fill="rgb(242, 256, 259)" opacity="0.9715196" stroke="rgb(50, 94, 209)" stroke-opacity="1.0" stroke-linecap="round" stroke-linejoin="round" d="M 489.3587341308594 97.195068359375 C 396.7962951660156 91.68942260742188 363.6745910644531 93.82100677490234 338.0836486816406 92.6435317993164 C 404.350341796875 99.13098907470703 381.3837585449219 104.05123901367188 201.5246124267578 100.22053527832031 C 409.3623352050781 84.02000427246094 364.4148864746094 105.08665466308594 381.8062438964844 81.64461517333984 C 371.30072021484375 71.88821411132812 506.01953125 59.575679779052734 489.3587341308594 97.195068359375"/>
    <path stroke-width="0" fill="rgb(129, 130, 116)" opacity="1.0020915" stroke="rgb(213, 24, 248)" stroke-opacity="1.0" stroke-linecap="round" stroke-linejoin="round" d="M 470.18597412109375 34.90748977661133 C 462.1956481933594 56.06241989135742 429.48736572265625 59.14707565307617 333.05255126953125 87.56756591796875 C 281.6954650878906 90.22515106201172 218.94354248046875 77.35186767578125 -87.44034576416016 87.45294189453125 C -40.06278991699219 -346.3504638671875 68.1061782836914 -207.80335998535156 423.01361083984375 -84.76898193359375 C 469.69842529296875 -57.7348747253418 486.6575927734375 -61.27244567871094 470.18597412109375 34.90748977661133"/>
    <path stroke-width="0" fill="rgb(271, 270, 282)" opacity="1.0363765" stroke="rgb(249, 154, 188)" stroke-opacity="1.0" stroke-linecap="round" stroke-linejoin="round" d="M -17.811573028564453 81.02481842041016 C 325.5580139160156 82.82195281982422 250.5312957763672 73.8447265625 -48.9534912109375 101.02101135253906 C 203.3177490234375 102.36542510986328 171.84912109375 99.11609649658203 128.4735565185547 106.27272033691406 C 160.443603515625 100.70330047607422 218.5162811279297 116.02544403076172 361.1723327636719 81.90131378173828 C 25.067277908325195 74.0547103881836 111.17179870605469 114.12935638427734 -17.811573028564453 81.02481842041016"/>
    <path stroke-width="0" fill="rgb(132, 129, 116)" opacity="0.8223527" stroke="rgb(72, 30, 75)" stroke-opacity="1.0" stroke-linecap="round" stroke-linejoin="round" d="M 270.1416931152344 50.56995391845703 C 298.99151611328125 76.37413787841797 378.3712463378906 81.53429412841797 273.93389892578125 65.7723617553711 C 219.4481658935547 78.3615951538086 203.0196990966797 86.1368637084961 197.8383026123047 -2.6515448093414307 C 262.51806640625 -37.65595626831055 279.69085693359375 -34.56483840942383 302.31378173828125 -30.821247100830078 C 375.09771728515625 -23.180419921875 377.827392578125 -12.9807710647583 270.1416931152344 50.56995391845703"/>
    <path stroke-width="0" fill="rgb(220, 234, 229)" opacity="0.79856545" stroke="rgb(81, 105, 16)" stroke-opacity="1.0" stroke-linecap="round" stroke-linejoin="round" d="M 549.7883911132812 73.74185943603516 C 546.9356689453125 103.32501220703125 533.772705078125 109.36691284179688 522.2376708984375 57.44085693359375 C 415.21478271484375 54.110504150390625 451.986572265625 66.98680877685547 463.8690185546875 40.815181732177734 C 366.32684326171875 41.61924362182617 414.074951171875 -19.549236297607422 385.4306640625 -21.01801872253418 C 414.65997314453125 87.21790313720703 490.1374816894531 -1.3399578332901 549.7883911132812 73.74185943603516"/>
    <path stroke-width="0" fill="rgb(-10, -4, -1)" opacity="0.8433843" stroke="rgb(144, 67, 133)" stroke-opacity="1.0" stroke-linecap="round" stroke-linejoin="round" d="M 132.1571502685547 406.62261962890625 C 121.43659210205078 396.820068359375 100.29716491699219 417.5691223144531 -66.00096893310547 398.77227783203125 C 218.60899353027344 398.4450988769531 296.438720703125 397.84423828125 267.4516296386719 400.42315673828125 C 144.9387664794922 406.027587890625 169.26971435546875 395.52490234375 254.38912963867188 405.8315124511719 C 110.26588439941406 405.7249755859375 120.45063018798828 402.9149169921875 132.1571502685547 406.62261962890625"/>
    <path stroke-width="0" fill="rgb(268, 266, 265)" opacity="1.0646179" stroke="rgb(146, 236, 81)" stroke-opacity="1.0" stroke-linecap="round" stroke-linejoin="round" d="M 437.55902099609375 185.03427124023438 C 436.8665466308594 222.35301208496094 437.8312072753906 296.10400390625 435.9259338378906 283.48406982421875 C 375.1273498535156 308.8266906738281 425.2552490234375 244.10887145996094 409.7292175292969 262.8249816894531 C 420.0706481933594 138.5479736328125 385.9216003417969 252.1592254638672 440.55816650390625 172.7736358642578 C 442.8555603027344 199.67454528808594 441.4363098144531 247.75311279296875 437.55902099609375 185.03427124023438"/>
    <path stroke-width="0" fill="rgb(-10, -2, -8)" opacity="1.0136234" stroke="rgb(33, 182, 73)" stroke-opacity="1.0" stroke-linecap="round" stroke-linejoin="round" d="M 304.0646667480469 400.068115234375 C 249.2203826904297 398.448974609375 261.2312316894531 400.3341369628906 668.7362060546875 396.9549255371094 C 542.6287231445312 416.7032470703125 282.4730224609375 399.1421203613281 282.3823547363281 408.3910217285156 C 324.57354736328125 395.3536682128906 325.95062255859375 400.011474609375 102.1684799194336 400.32586669921875 C 281.2084045410156 409.9649353027344 299.8887634277344 410.7976989746094 304.0646667480469 400.068115234375"/>
    <path stroke-width="0" fill="rgb(181, 171, 167)" opacity="0.6788556" stroke="rgb(149, 5, 211)" stroke-opacity="1.0" stroke-linecap="round" stroke-linejoin="round" d="M 521.5687866210938 299.72760009765625 C 494.2910461425781 305.94061279296875 489.33489990234375 293.9651184082031 502.4942932128906 47.425086975097656 C 441.6051025390625 3.2010250091552734 469.265380859375 103.24140930175781 487.442626953125 -58.34601974487305 C 423.89288330078125 -32.06654739379883 433.3778381347656 -36.32387161254883 469.7552490234375 -42.66332244873047 C 555.4288330078125 -45.57939910888672 543.9959106445312 -55.355979919433594 521.5687866210938 299.72760009765625"/>
    <path stroke-width="0" fill="rgb(260, 255, 254)" opacity="1.0365443" stroke="rgb(172, 68, 187)" stroke-opacity="1.0" stroke-linecap="round" stroke-linejoin="round" d="M 256.7730712890625 116.18683624267578 C 241.0401153564453 126.68671417236328 290.23541259765625 120.6582260131836 264.18157958984375 129.30601501464844 C 291.3739013671875 118.20980072021484 268.2500305175781 137.15158081054688 20.201190948486328 110.6358871459961 C 634.4724731445312 109.99018096923828 609.1526489257812 108.8304672241211 517.219482421875 137.30441284179688 C 435.141845703125 114.4046401977539 225.6458282470703 136.87393188476562 256.7730712890625 116.18683624267578"/>
    <path stroke-width="0" fill="rgb(-5, -10, 10)" opacity="1.0176399" stroke="rgb(63, 146, 150)" stroke-opacity="1.0" stroke-linecap="round" stroke-linejoin="round" d="M 383.6783447265625 106.94355773925781 C -7.413761138916016 103.2646713256836 33.71442794799805 103.73126983642578 472.006591796875 99.4551010131836 C 148.86839294433594 89.3997573852539 -150.82098388671875 99.1265640258789 204.54364013671875 94.7682113647461 C 175.44558715820312 93.76815032958984 -0.6720112562179565 101.62556457519531 -89.0451431274414 84.32720947265625 C 545.613525390625 86.3057861328125 274.9694519042969 76.9150161743164 383.6783447265625 106.94355773925781"/>
    <path stroke-width="0" fill="rgb(267, 264, 267)" opacity="1.0048363" stroke="rgb(56, 242, 114)" stroke-opacity="1.0" stroke-linecap="round" stroke-linejoin="round" d="M -16.53730583190918 134.52198791503906 C -133.65570068359375 143.24777221679688 -14.635664939880371 134.23741149902344 708.781494140625 141.4920196533203 C 656.8904418945312 123.29756164550781 389.7044372558594 129.5174560546875 19.43739128112793 128.3812713623047 C -73.52420043945312 133.3108673095703 -155.95144653320312 86.63409423828125 252.3318634033203 126.82836151123047 C -39.73128890991211 128.1820831298828 -93.05879974365234 120.52357482910156 -16.53730583190918 134.52198791503906"/>
    <path stroke-width="0" fill="rgb(35, 31, 24)" opacity="0.9482484" stroke="rgb(178, 75, 207)" stroke-opacity="1.0" stroke-linecap="round" stroke-linejoin="round" d="M 187.52777099609375 323.35284423828125 C 114.15331268310547 311.2071228027344 127.76934051513672 294.02716064453125 247.52305603027344 307.0072937011719 C 190.28721618652344 330.07635498046875 109.87378692626953 328.3096618652344 36.15608215332031 322.490478515625 C 157.89134216308594 311.2074890136719 185.6553497314453 321.2923583984375 119.2489242553711 320.2768249511719 C 133.53341674804688 325.81024169921875 148.31394958496094 307.25616455078125 187.52777099609375 323.35284423828125"/>
    <path stroke-width="0" fill="rgb(253, 274, 274)" opacity="1.1107193" stroke="rgb(224, 148, 224)" stroke-opacity="1.0" stroke-linecap="round" stroke-linejoin="round" d="M 483.26007080078125 310.4982604980469 C 483.0961608886719 252.52684020996094 484.2200012207031 273.82696533203125 481.2232360839844 283.595458984375 C 476.8895568847656 271.4491882324219 490.11456298828125 233.97412109375 472.8174133300781 182.902099609375 C 478.1723327636719 239.501220703125 474.2040710449219 221.7079620361328 491.89453125 205.25440979003906 C 493.4283447265625 252.91152954101562 495.140380859375 341.2021179199219 483.26007080078125 310.4982604980469"/>
    <path stroke-width="0" fill="rgb(45, 14, 31)" opacity="0.88971716" stroke="rgb(184, 127, 243)" stroke-opacity="1.0" stroke-linecap="round" stroke-linejoin="round" d="M 108.80943298339844 324.4000244140625 C -25.53335189819336 330.73760986328125 -38.44355773925781 316.2068786621094 0.6451607942581177 357.9179992675781 C 17.105567932128906 286.1026306152344 0.444882333278656 353.9766845703125 -61.90728759765625 325.18768310546875 C 33.47146224975586 313.13446044921875 63.834388732910156 312.1424255371094 82.3598403930664 316.51611328125 C 25.808242797851562 304.1861572265625 47.45317459106445 289.8045959472656 108.80943298339844 324.4000244140625"/>
    <path stroke-width="0" fill="rgb(-6, 9, 18)" opacity="1.0588869" stroke="rgb(108, 154, 4)" stroke-opacity="1.0" stroke-linecap="round" stroke-linejoin="round" d="M 193.22808837890625 311.0816650390625 C 283.0625915527344 334.17376708984375 182.75416564941406 302.6488342285156 284.5335998535156 330.66510009765625 C 53.445194244384766 329.032958984375 -21.079627990722656 337.5200500488281 175.9536895751953 314.04583740234375 C 185.76243591308594 303.40106201171875 185.9196014404297 301.9224548339844 165.96754455566406 312.35223388671875 C 189.9696807861328 323.6206970214844 192.9918670654297 321.5617370605469 193.22808837890625 311.0816650390625"/>
    <path stroke-width="0" fill="rgb(41, 24, 52)" opacity="0.88467014" stroke="rgb(168, 73, 157)" stroke-opacity="1.0" stroke-linecap="round" stroke-linejoin="round" d="M 287.1241455078125 328.47650146484375 C 164.51983642578125 313.0537109375 137.02403259277344 321.8911437988281 410.9827575683594 298.1486511230469 C 364.6080322265625 298.6854248046875 117.57986450195312 299.26348876953125 -101.31419372558594 298.72576904296875 C 165.8575897216797 362.2091064453125 218.1537628173828 276.6251525878906 179.49217224121094 319.5548400878906 C 181.9667205810547 321.6868591308594 216.94638061523438 300.25738525390625 287.1241455078125 328.47650146484375"/>
    <path stroke-width="0" fill="rgb(8, 14, 14)" opacity="0.702739" stroke="rgb(34, 76, 145)" stroke-opacity="1.0" stroke-linecap="round" stroke-linejoin="round" d="M 224.6479949951172 320.6227111816406 C 172.23208618164062 302.5997619628906 160.68858337402344 289.30340576171875 113.7054443359375 324.20379638671875 C 141.92074584960938 326.0498962402344 138.71868896484375 295.2610778808594 198.52842712402344 322.34136962890625 C 211.36624145507812 322.4898376464844 222.48614501953125 325.0734558105469 196.48727416992188 315.2411193847656 C 172.0608367919922 322.8291015625 180.66770935058594 327.2221374511719 224.6479949951172 320.6227111816406"/>
    <path stroke-width="0" fill="rgb(-8, 0, 5)" opacity="1.0424042" stroke="rgb(146, 166, 166)" stroke-opacity="1.0" stroke-linecap="round" stroke-linejoin="round" d="M 474.9449768066406 321.0506286621094 C 396.9759216308594 293.7035217285156 301.43914794921875 318.32183837890625 178.25491333007812 324.3465576171875 C 343.4259033203125 334.5760803222656 334.33245849609375 325.3373107910156 310.8348693847656 336.4595947265625 C 304.3639831542969 331.08056640625 295.3795166015625 313.1219177246094 313.88214111328125 341.790771484375 C 318.79998779296875 340.5271301269531 312.8669738769531 323.1702880859375 474.9449768066406 321.0506286621094"/>
    <path stroke-width="0" fill="rgb(181, 201, 171)" opacity="0.83818203" stroke="rgb(228, 93, 111)" stroke-opacity="1.0" stroke-linecap="round" stroke-linejoin="round" d="M 341.17572021484375 357.2294921875 C 400.631591796875 359.6488952636719 293.04315185546875 365.2431945800781 305.4441223144531 356.96954345703125 C 328.927978515625 348.2474060058594 263.71728515625 345.61920166015625 278.65142822265625 357.94329833984375 C 269.4924011230469 315.72802734375 283.5701599121094 333.25018310546875 289.58245849609375 329.7156677246094 C 343.4050598144531 333.6587219238281 308.93609619140625 321.6261901855469 341.17572021484375 357.2294921875"/>
    <path stroke-width="0" fill="rgb(-12, -10, 7)" opacity="1.0059742" stroke="rgb(205, 179, 25)" stroke-opacity="1.0" stroke-linecap="round" stroke-linejoin="round" d="M 461.3551940917969 328.0143737792969 C 616.6282348632812 330.3212585449219 545.4851684570312 324.9259033203125 500.406005859375 322.20831298828125 C 422.53497314453125 349.64605712890625 411.4394226074219 286.44757080078125 436.01171875 309.3565979003906 C 516.3733520507812 309.1252136230469 508.3450927734375 286.1610107421875 531.69580078125 291.5933837890625 C 460.96563720703125 291.6156005859375 536.104736328125 317.027099609375 461.3551940917969 328.0143737792969"/>
    <path stroke-width="0" fill="rgb(45, 103, 82)" opacity="1.0101956" stroke="rgb(182, 254, 38)" stroke-opacity="1.0" stroke-linecap="round" stroke-linejoin="round" d="M 477.22576904296875 175.17518615722656 C 499.21710205078125 212.2209014892578 448.82861328125 206.8402557373047 524.5297241210938 209.83465576171875 C 486.50592041015625 211.44671630859375 512.6871337890625 200.40716552734375 488.22625732421875 205.40655517578125 C 500.9292907714844 208.37901306152344 517.9415893554688 208.84963989257812 437.3305358886719 208.79000854492188 C 455.0141296386719 302.596923828125 487.79705810546875 303.54156494140625 477.22576904296875 175.17518615722656"/>
    <path stroke-width="0" fill="rgb(0, 14, 12)" opacity="0.5213106" stroke="rgb(41, 156, 31)" stroke-opacity="1.0" stroke-linecap="round" stroke-linejoin="round" d="M 12.474920272827148 269.3873596191406 C 33.734066009521484 177.82032775878906 -54.04866409301758 207.5580291748047 261.1755065917969 205.1085662841797 C 185.59976196289062 228.5254364013672 18.745437622070312 173.32730102539062 49.91228485107422 273.2944641113281 C 52.419307708740234 234.78981018066406 32.6885986328125 226.0432586669922 105.15990447998047 208.4676971435547 C -19.608583450317383 215.11488342285156 46.345943450927734 188.77786254882812 12.474920272827148 269.3873596191406"/>
    <path stroke-width="0" fill="rgb(-6, -3, 11)" opacity="0.6165149" stroke="rgb(205, 145, 103)" stroke-opacity="1.0" stroke-linecap="round" stroke-linejoin="round" d="M 324.9188537597656 318.908203125 C 428.1905517578125 305.8526916503906 365.6716613769531 328.2129211425781 346.8788146972656 329.7120666503906 C 300.37042236328125 331.25164794921875 228.02059936523438 335.0614929199219 128.5376739501953 314.8799133300781 C -66.78759765625 300.8448181152344 92.57413482666016 305.249267578125 484.0459289550781 298.2602844238281 C 334.06817626953125 321.19403076171875 313.61236572265625 279.2290344238281 324.9188537597656 318.908203125"/>
    <path stroke-width="0" fill="rgb(-12, -14, -14)" opacity="0.89722407" stroke="rgb(177, 115, 184)" stroke-opacity="1.0" stroke-linecap="round" stroke-linejoin="round" d="M 429.2712097167969 352.2108154296875 C 629.6044921875 350.4004821777344 668.4805297851562 351.1806335449219 547.373291015625 381.244384765625 C 95.50991821289062 379.225341796875 -16.24755096435547 389.77618408203125 346.4617614746094 353.0633239746094 C 420.6982727050781 360.64013671875 372.061767578125 338.8414306640625 377.2274169921875 350.10321044921875 C 308.7475280761719 325.2841491699219 520.5075073242188 323.9587097167969 429.2712097167969 352.2108154296875"/>
    <path stroke-width="0" fill="rgb(55, 41, 38)" opacity="1.07827" stroke="rgb(248, 218, 2)" stroke-opacity="1.0" stroke-linecap="round" stroke-linejoin="round" d="M -50.81087875366211 504.5899658203125 C 477.08038330078125 509.34942626953125 500.39666748046875 496.30877685546875 50.09461212158203 497.5531005859375 C 61.89701843261719 450.4569396972656 57.610252380371094 480.3870849609375 -29.936399459838867 469.5741882324219 C 65.52812957763672 464.2104797363281 67.37909698486328 471.2027282714844 54.724884033203125 470.83087158203125 C 50.4162712097168 522.5142822265625 85.5745620727539 484.61883544921875 -50.81087875366211 504.5899658203125"/>
    <path stroke-width="0" fill="rgb(26, 31, 27)" opacity="1.0461066" stroke="rgb(186, 43, 132)" stroke-opacity="1.0" stroke-linecap="round" stroke-linejoin="round" d="M 327.3299255371094 370.62652587890625 C 307.7468566894531 321.6314697265625 320.8112487792969 369.238525390625 10.75570011138916 360.6151428222656 C 402.1795654296875 357.4039611816406 389.6064453125 354.0036926269531 196.28294372558594 359.662841796875 C 337.95635986328125 345.33843994140625 206.77442932128906 358.85162353515625 -208.8751983642578 346.272216796875 C -50.01322937011719 378.2962646484375 -29.314523696899414 359.495849609375 327.3299255371094 370.62652587890625"/>
    <path stroke-width="0" fill="rgb(18, 67, 43)" opacity="0.4793482" stroke="rgb(50, 4, 202)" stroke-opacity="1.0" stroke-linecap="round" stroke-linejoin="round" d="M 459.7139892578125 205.96319580078125 C 482.4939880371094 337.17864990234375 459.0506591796875 204.47384643554688 460.3821716308594 206.8590545654297 C 462.1062316894531 203.33229064941406 458.80859375 259.8243408203125 464.70526123046875 223.0928497314453 C 447.95513916015625 316.9996032714844 476.5893249511719 257.7548828125 486.0907287597656 244.95985412597656 C 450.0682678222656 298.86968994140625 468.5314025878906 275.52294921875 459.7139892578125 205.96319580078125"/>
    <path stroke-width="0" fill="rgb(31, -20, -4)" opacity="0.9005741" stroke="rgb(88, 236, 179)" stroke-opacity="1.0" stroke-linecap="round" stroke-linejoin="round" d="M 495.22796630859375 142.53955078125 C 493.2673645019531 154.27670288085938 493.4207458496094 305.9724426269531 492.3478698730469 321.3277282714844 C 475.3953552246094 232.5889434814453 475.15771484375 245.34002685546875 493.6666259765625 318.9831237792969 C 507.3889465332031 193.15548706054688 479.4727478027344 200.1869354248047 536.1713256835938 204.53982543945312 C 470.02740478515625 193.4767608642578 511.1636657714844 252.13795471191406 495.22796630859375 142.53955078125"/>
    <path stroke-width="0" fill="rgb(252, 258, 260)" opacity="1.03763" stroke="rgb(41, 158, 147)" stroke-opacity="1.0" stroke-linecap="round" stroke-linejoin="round" d="M 319.0934143066406 307.073974609375 C 251.9603729248047 320.09381103515625 211.6697540283203 313.26153564453125 161.08367919921875 318.4361877441406 C 239.39959716796875 312.6702880859375 202.26368713378906 318.3180236816406 88.2550277709961 312.0091857910156 C 208.50660705566406 288.0352478027344 269.2189636230469 313.7245178222656 275.8122863769531 299.3440856933594 C 263.4186706542969 314.08758544921875 275.92681884765625 292.2705993652344 319.0934143066406 307.073974609375"/>
    <path stroke-width="0" fill="rgb(275, 270, 272)" opacity="0.80153763" stroke="rgb(238, 156, 136)" stroke-opacity="1.0" stroke-linecap="round" stroke-linejoin="round" d="M 426.4325256347656 276.4150390625 C 440.3365478515625 264.2557067871094 432.236083984375 277.1376647949219 432.65155029296875 229.9219512939453 C 435.9651794433594 225.06602478027344 429.1234436035156 214.6593780517578 434.84521484375 274.9097900390625 C 435.137939453125 275.7784423828125 439.696044921875 264.305908203125 422.2981872558594 272.23956298828125 C 424.7547302246094 290.0233154296875 414.5067443847656 258.25653076171875 426.4325256347656 276.4150390625"/>
    <path stroke-width="0" fill="rgb(32, -2, 60)" opacity="1.0755134" stroke="rgb(186, 79, 101)" stroke-opacity="1.0" stroke-linecap="round" stroke-linejoin="round" d="M 425.0757751464844 473.381103515625 C 296.0462646484375 469.5063171386719 317.0341491699219 467.8473815917969 322.9985656738281 469.5320129394531 C 315.2223815917969 468.3157043457031 281.6593933105469 466.30731201171875 609.2175903320312 468.4695739746094 C 389.0641174316406 481.7746276855469 353.1258239746094 463.9937438964844 201.96478271484375 469.5984802246094 C 147.55931091308594 473.03851318359375 208.68563842773438 472.9449768066406 425.0757751464844 473.381103515625"/>
    <path stroke-width="0" fill="rgb(-13, -13, 0)" opacity="0.75902194" stroke="rgb(47, 240, 188)" stroke-opacity="1.0" stroke-linecap="round" stroke-linejoin="round" d="M 272.67071533203125 355.6849060058594 C 296.6387634277344 333.26116943359375 301.08447265625 367.3824768066406 505.2285461425781 355.501708984375 C 362.8936767578125 350.7412109375 341.8414306640625 352.13665771484375 341.092041015625 354.5326843261719 C 308.62335205078125 348.15655517578125 337.36859130859375 361.73358154296875 329.30169677734375 320.0360107421875 C 411.91229248046875 289.1081848144531 409.71087646484375 369.4054260253906 272.67071533203125 355.6849060058594"/>
    <path stroke-width="0" fill="rgb(-26, -32, -16)" opacity="0.97420084" stroke="rgb(57, 64, 14)" stroke-opacity="1.0" stroke-linecap="round" stroke-linejoin="round" d="M 477.12890625 175.4688720703125 C 464.33514404296875 236.4171142578125 484.3795471191406 444.5924072265625 484.19012451171875 182.93414306640625 C 420.2873840332031 192.38075256347656 462.3924560546875 141.20309448242188 437.44219970703125 353.15924072265625 C 434.0821228027344 152.66726684570312 436.98199462890625 180.45233154296875 442.7305603027344 179.71372985839844 C 439.32232666015625 164.9461669921875 489.0611572265625 177.7902374267578 477.12890625 175.4688720703125"/>
    <path stroke-width="0" fill="rgb(124, 137, 112)" opacity="1.00018" stroke="rgb(79, 177, 96)" stroke-opacity="1.0" stroke-linecap="round" stroke-linejoin="round" d="M 633.1582641601562 76.56881713867188 C 545.3565673828125 159.8628692626953 545.2268676757812 177.18612670898438 502.6653137207031 188.73544311523438 C 491.7174987792969 164.8642120361328 487.7969970703125 57.535648345947266 494.79412841796875 53.84852981567383 C 522.7049560546875 109.68470001220703 509.9063720703125 81.6439208984375 496.8164367675781 47.86186599731445 C 403.9458312988281 10.077592849731445 442.15496826171875 -96.97455596923828 633.1582641601562 76.56881713867188"/>
    <path stroke-width="0" fill="rgb(277, 259, 268)" opacity="0.99710363" stroke="rgb(6, 17, 173)" stroke-opacity="1.0" stroke-linecap="round" stroke-linejoin="round" d="M 490.3218994140625 301.27001953125 C 512.1681518554688 317.3547058105469 470.3049011230469 305.5208740234375 487.5564270019531 308.6800537109375 C 287.9527893066406 308.08770751953125 181.01051330566406 311.1425476074219 155.71621704101562 301.37115478515625 C 300.98333740234375 300.32672119140625 370.8584899902344 300.7351379394531 432.3587646484375 302.2675476074219 C 338.41204833984375 299.8308410644531 312.1351318359375 298.23443603515625 490.3218994140625 301.27001953125"/>
    <path stroke-width="0" fill="rgb(28, 1, 49)" opacity="1.0184132" stroke="rgb(136, 228, 252)" stroke-opacity="1.0" stroke-linecap="round" stroke-linejoin="round" d="M -66.45379638671875 468.42498779296875 C 31.086669921875 464.5203857421875 81.66938781738281 469.1234436035156 26.2509708404541 466.1691589355469 C 86.325927734375 466.80474853515625 157.6014404296875 466.9613342285156 343.465087890625 467.983154296875 C 382.5009460449219 475.1363525390625 206.32797241210938 473.3494873046875 21.06494903564453 474.41357421875 C 55.77531433105469 472.8844909667969 38.60277557373047 477.144287109375 -66.45379638671875 468.42498779296875"/>
    <path stroke-width="0" fill="rgb(14, 18, 21)" opacity="0.9010728" stroke="rgb(169, 67, 5)" stroke-opacity="1.0" stroke-linecap="round" stroke-linejoin="round" d="M 119.78878784179688 317.6256103515625 C 113.04741668701172 337.9085388183594 53.91291809082031 310.7069396972656 26.422264099121094 315.9789733886719 C 116.30906677246094 313.9595947265625 125.58698272705078 316.7294616699219 120.05655670166016 315.16241455078125 C 92.44979095458984 319.7630615234375 102.12741088867188 326.9463806152344 134.98297119140625 323.05926513671875 C 48.605167388916016 321.3162841796875 46.58924865722656 300.542724609375 119.78878784179688 317.6256103515625"/>
    <path stroke-width="0" fill="rgb(276, 261, 273)" opacity="1.0092336" stroke="rgb(81, 97, 150)" stroke-opacity="1.0" stroke-linecap="round" stroke-linejoin="round" d="M 133.22769165039062 323.8669738769531 C 117.17235565185547 309.7037658691406 109.07757568359375 311.29046630859375 115.21302032470703 324.62237548828125 C 139.77517700195312 294.6468811035156 54.983192443847656 336.7443542480469 -61.70463180541992 300.623046875 C 207.97303771972656 300.5997009277344 249.89288330078125 300.15057373046875 184.80369567871094 300.68865966796875 C 86.05244445800781 319.3496398925781 118.62776184082031 308.29815673828125 133.22769165039062 323.8669738769531"/>
    <path stroke-width="0" fill="rgb(45, 8, 29)" opacity="0.98252267" stroke="rgb(160, 222, 69)" stroke-opacity="1.0" stroke-linecap="round" stroke-linejoin="round" d="M 485.51837158203125 441.3431701660156 C 351.9309387207031 438.58331298828125 414.4861755371094 430.20458984375 -154.6967315673828 437.2576599121094 C 652.5950927734375 454.5903625488281 499.8698425292969 415.6418762207031 503.04412841796875 434.42578125 C 275.87152099609375 451.48675537109375 546.0718994140625 438.0746154785156 246.90980529785156 434.90301513671875 C 505.1164855957031 435.1994934082031 628.2144775390625 433.9403381347656 485.51837158203125 441.3431701660156"/>
    <path stroke-width="0" fill="rgb(-7, -4, 8)" opacity="0.9807065" stroke="rgb(241, 186, 64)" stroke-opacity="1.0" stroke-linecap="round" stroke-linejoin="round" d="M 373.0237121582031 309.5292663574219 C 10.788379669189453 345.6802062988281 -165.92709350585938 327.19049072265625 16.42230224609375 317.74560546875 C 102.99775695800781 318.48773193359375 27.66184425354004 317.0238342285156 -74.77127075195312 320.94744873046875 C -1.3048661947250366 317.52337646484375 34.21998977661133 338.5412292480469 -47.263790130615234 308.1596984863281 C -131.6812744140625 310.1411437988281 124.58649444580078 308.22216796875 373.0237121582031 309.5292663574219"/>
    <path stroke-width="0" fill="rgb(258, 273, 271)" opacity="0.83856434" stroke="rgb(95, 118, 70)" stroke-opacity="1.0" stroke-linecap="round" stroke-linejoin="round" d="M 542.9009399414062 201.68434143066406 C 476.659912109375 163.09500122070312 507.2453918457031 192.2646026611328 498.5910339355469 209.8426055908203 C 489.5903015136719 207.7210693359375 489.946533203125 194.88462829589844 491.64471435546875 310.5618896484375 C 478.15985107421875 317.5267028808594 485.47796630859375 186.6855010986328 481.9212646484375 159.91799926757812 C 501.33941650390625 216.71966552734375 468.4595031738281 215.24932861328125 542.9009399414062 201.68434143066406"/>
    <path stroke-width="0" fill="rgb(43, 27, 27)" opacity="0.93001795" stroke="rgb(36, 124, 90)" stroke-opacity="1.0" stroke-linecap="round" stroke-linejoin="round" d="M 346.3633117675781 487.1512756347656 C 347.3276672363281 511.23675537109375 329.5118103027344 507.8325500488281 463.5186462402344 500.5672302246094 C 386.8955078125 501.2174377441406 359.94677734375 496.8560485839844 306.74554443359375 502.4005126953125 C 304.0772705078125 472.2299499511719 323.0013427734375 502.07952880859375 310.34722900390625 498.8226318359375 C 353.8144836425781 512.74365234375 360.91082763671875 496.3451232910156 346.3633117675781 487.1512756347656"/>
    <path stroke-width="0" fill="rgb(209, 181, 213)" opacity="0.6790318" stroke="rgb(140, 149, 245)" stroke-opacity="1.0" stroke-linecap="round" stroke-linejoin="round" d="M 83.50627136230469 385.5326843261719 C 62.38906478881836 375.15655517578125 33.27809524536133 361.38543701171875 85.07186889648438 369.8943176269531 C 126.87326049804688 359.5643615722656 111.08404541015625 371.5953063964844 112.68887329101562 372.44921875 C 28.659303665161133 375.64678955078125 57.21682357788086 369.80279541015625 85.132080078125 389.4371643066406 C 78.89716339111328 385.1189270019531 84.63136291503906 396.5058288574219 83.50627136230469 385.5326843261719"/>
    <path stroke-width="0" fill="rgb(68, 81, 66)" opacity="0.6222798" stroke="rgb(170, 200, 71)" stroke-opacity="1.0" stroke-linecap="round" stroke-linejoin="round" d="M 362.9172668457031 556.4151000976562 C 349.0119934082031 522.4527587890625 335.0233154296875 493.9760437011719 354.9494323730469 501.7676696777344 C 434.49114990234375 502.4764404296875 345.20343017578125 502.5936279296875 316.2335205078125 505.9159240722656 C 359.3629455566406 512.9717407226562 345.8407897949219 473.0581970214844 346.4006652832031 497.4287414550781 C 333.9284973144531 515.580322265625 357.55682373046875 534.5034790039062 362.9172668457031 556.4151000976562"/>
    <path stroke-width="0" fill="rgb(37, 52, 32)" opacity="0.8915567" stroke="rgb(16, 123, 249)" stroke-opacity="1.0" stroke-linecap="round" stroke-linejoin="round" d="M 349.0562438964844 447.51513671875 C 370.1029052734375 445.1481018066406 328.7950744628906 432.2060241699219 393.4643249511719 446.54742431640625 C 346.29486083984375 437.1199951171875 365.94744873046875 429.3913879394531 358.96893310546875 448.495849609375 C 397.6558532714844 444.3406066894531 388.4739685058594 453.3262023925781 353.9667053222656 448.964599609375 C 315.55108642578125 448.1094055175781 318.3538513183594 448.86572265625 349.0562438964844 447.51513671875"/>
    <path stroke-width="0" fill="rgb(17, 8, -9)" opacity="1.0213679" stroke="rgb(240, 203, 160)" stroke-opacity="1.0" stroke-linecap="round" stroke-linejoin="round" d="M -17.500911712646484 371.17156982421875 C 34.64827346801758 347.7884216308594 28.862926483154297 354.4184265136719 -2.1692399978637695 361.0285949707031 C 87.12909698486328 356.2878723144531 70.77587127685547 368.844482421875 86.92340087890625 349.1861572265625 C 59.270729064941406 384.7104187011719 76.78376007080078 341.3396301269531 -28.285966873168945 378.4957580566406 C 143.95387268066406 383.88616943359375 380.0816955566406 368.85638427734375 -17.500911712646484 371.17156982421875"/>
    <path stroke-width="0" fill="rgb(13, 39, 79)" opacity="0.88941175" stroke="rgb(88, 37, 250)" stroke-opacity="1.0" stroke-linecap="round" stroke-linejoin="round" d="M 349.2140808105469 507.0573425292969 C 337.44683837890625 477.7104797363281 355.8766784667969 484.3876647949219 348.7408447265625 538.4072265625 C 389.897216796875 540.6600952148438 371.2202453613281 495.3191223144531 387.5820007324219 504.4436340332031 C 390.1608581542969 494.7723388671875 385.9119873046875 459.8414611816406 376.6829833984375 546.5645751953125 C 341.5885009765625 505.8376770019531 353.5728454589844 500.1930236816406 349.2140808105469 507.0573425292969"/>
    <path stroke-width="0" fill="rgb(16, 23, 50)" opacity="1.0203369" stroke="rgb(209, 48, 130)" stroke-opacity="1.0" stroke-linecap="round" stroke-linejoin="round" d="M 65.33333587646484 448.2781066894531 C 84.67569732666016 453.89642333984375 17.417142868041992 442.3565673828125 -55.15837860107422 448.94085693359375 C 102.79560852050781 449.8230895996094 106.28026580810547 447.5453796386719 98.32998657226562 449.3681335449219 C 83.25521850585938 450.0521545410156 85.36632537841797 445.95635986328125 68.06427001953125 449.3228759765625 C 66.8245849609375 411.3307189941406 77.53828430175781 455.81402587890625 65.33333587646484 448.2781066894531"/>
    <path stroke-width="0" fill="rgb(34, 2, -2)" opacity="1.0236425" stroke="rgb(185, 2, 196)" stroke-opacity="1.0" stroke-linecap="round" stroke-linejoin="round" d="M 104.89862823486328 451.9063720703125 C 90.92820739746094 442.448974609375 104.78463745117188 432.9117126464844 129.75833129882812 437.22308349609375 C 136.06922912597656 457.59307861328125 120.08588409423828 445.1662902832031 -14.436904907226562 449.7475280761719 C 127.27958679199219 446.21661376953125 136.1744384765625 453.91180419921875 136.3072509765625 441.83935546875 C 138.46514892578125 434.3531188964844 96.0946273803711 427.13665771484375 104.89862823486328 451.9063720703125"/>
    <path stroke-width="0" fill="rgb(30, 33, 17)" opacity="1.0980939" stroke="rgb(20, 22, 171)" stroke-opacity="1.0" stroke-linecap="round" stroke-linejoin="round" d="M 461.9390869140625 490.7754211425781 C 441.13897705078125 491.15509033203125 469.8694152832031 523.1801147460938 499.0653076171875 493.7748718261719 C 580.5590209960938 486.23028564453125 573.00732421875 489.84039306640625 138.39324951171875 491.59796142578125 C 325.3758544921875 498.6878356933594 616.4635009765625 482.9637451171875 450.0130310058594 503.38006591796875 C 473.4532165527344 491.9560546875 460.0020446777344 508.3807678222656 461.9390869140625 490.7754211425781"/>
    <path stroke-width="0" fill="rgb(-23, 2, -11)" opacity="0.94807446" stroke="rgb(107, 142, 219)" stroke-opacity="1.0" stroke-linecap="round" stroke-linejoin="round" d="M 350.6595458984375 429.9409484863281 C 282.4237060546875 431.19281005859375 341.189208984375 428.6242980957031 311.70355224609375 438.3872375488281 C 393.8249206542969 440.9615783691406 340.3681640625 445.1173400878906 319.0910949707031 440.8047180175781 C 353.0328674316406 421.85870361328125 316.3883056640625 436.6166687011719 -29.916440963745117 425.2155456542969 C 750.9716186523438 421.0107116699219 726.661376953125 430.7382507324219 350.6595458984375 429.9409484863281"/>
    <path stroke-width="0" fill="rgb(5, 67, 27)" opacity="1.0404075" stroke="rgb(68, 33, 14)" stroke-opacity="1.0" stroke-linecap="round" stroke-linejoin="round" d="M 166.75735473632812 437.419677734375 C 150.55291748046875 456.2568359375 221.0290069580078 444.541259765625 -58.690311431884766 448.5573425292969 C 376.2948303222656 452.9397277832031 427.85235595703125 445.3012390136719 176.3712158203125 448.72821044921875 C 158.29788208007812 448.6551208496094 168.8848114013672 457.1556396484375 166.80101013183594 434.84283447265625 C 166.4436798095703 431.7544250488281 168.39059448242188 450.49957275390625 166.75735473632812 437.419677734375"/>
    <path stroke-width="0" fill="rgb(172, 130, 173)" opacity="0.62187606" stroke="rgb(66, 116, 174)" stroke-opacity="1.0" stroke-linecap="round" stroke-linejoin="round" d="M 240.30026245117188 369.6807861328125 C 207.41477966308594 365.6171875 195.09800720214844 361.6807556152344 235.6180877685547 375.57769775390625 C 197.1353302001953 364.57537841796875 190.99464416503906 355.02001953125 154.29013061523438 334.2911376953125 C 189.51687622070312 350.7219543457031 197.02320861816406 365.5488586425781 235.6488800048828 369.6121520996094 C 60.097679138183594 375.9138488769531 88.98020935058594 364.093505859375 240.30026245117188 369.6807861328125"/>
    <path stroke-width="0" fill="rgb(18, 11, 26)" opacity="0.87846774" stroke="rgb(14, 177, 198)" stroke-opacity="1.0" stroke-linecap="round" stroke-linejoin="round" d="M 356.86981201171875 356.3685302734375 C 384.2718505859375 360.9855651855469 373.2323913574219 358.71038818359375 397.2857360839844 358.9805603027344 C 418.7063293457031 347.2823181152344 413.73492431640625 343.9960632324219 414.3162841796875 341.98272705078125 C 427.1418151855469 367.11236572265625 416.3901672363281 334.24951171875 414.62213134765625 354.78387451171875 C 429.517822265625 371.9782409667969 377.8624267578125 355.3899230957031 356.86981201171875 356.3685302734375"/>
    <path stroke-width="0" fill="rgb(53, 43, 38)" opacity="0.93523467" stroke="rgb(66, 95, 149)" stroke-opacity="1.0" stroke-linecap="round" stroke-linejoin="round" d="M 428.13177490234375 521.5726928710938 C 411.9837951660156 491.5474853515625 449.9891052246094 496.7809753417969 442.1332702636719 500.8569641113281 C 438.6136474609375 500.28045654296875 403.88104248046875 497.7094421386719 338.9324951171875 499.16510009765625 C 406.98126220703125 504.9510498046875 442.0557861328125 510.10321044921875 446.2154846191406 502.6359558105469 C 393.4707946777344 471.4429931640625 426.79644775390625 510.3787841796875 428.13177490234375 521.5726928710938"/>
    <path stroke-width="0" fill="rgb(50, 26, 27)" opacity="0.7780861" stroke="rgb(203, 19, 132)" stroke-opacity="1.0" stroke-linecap="round" stroke-linejoin="round" d="M 576.4357299804688 511.5492858886719 C 539.8236083984375 499.1249084472656 250.03765869140625 512.7915649414062 196.06356811523438 499.5806579589844 C 451.5038757324219 497.6226806640625 494.6813659667969 504.0050048828125 501.38946533203125 491.06781005859375 C 527.6240844726562 498.4840393066406 577.1493530273438 492.8935546875 411.2621765136719 491.4991455078125 C 506.77960205078125 487.1703186035156 470.3868713378906 494.6885986328125 576.4357299804688 511.5492858886719"/>
    <path stroke-width="0" fill="rgb(234, 243, 242)" opacity="0.82897717" stroke="rgb(70, 32, 100)" stroke-opacity="1.0" stroke-linecap="round" stroke-linejoin="round" d="M 402.0544738769531 85.88320922851562 C 420.69329833984375 77.7085189819336 435.91949462890625 87.03863525390625 405.8892517089844 92.74723815917969 C 409.31915283203125 92.44469451904297 434.6418151855469 80.66400146484375 418.7547302246094 90.02281951904297 C 425.98565673828125 92.03185272216797 422.2371826171875 74.70561981201172 404.1632080078125 87.85148620605469 C 390.8942565917969 96.94021606445312 392.7319030761719 89.54457092285156 402.0544738769531 85.88320922851562"/>
    <path stroke-width="0" fill="rgb(31, 19, 41)" opacity="0.9502272" stroke="rgb(47, 230, 138)" stroke-opacity="1.0" stroke-linecap="round" stroke-linejoin="round" d="M 228.55198669433594 451.571044921875 C 224.95594787597656 434.5431213378906 235.56964111328125 439.57733154296875 229.5212860107422 450.1415710449219 C 431.3033447265625 451.2039489746094 405.70599365234375 445.3251037597656 260.5714111328125 452.37738037109375 C 259.1081237792969 422.1493835449219 280.1969299316406 458.6791076660156 242.90428161621094 449.44061279296875 C 250.003662109375 451.6251220703125 226.3141632080078 446.64508056640625 228.55198669433594 451.571044921875"/>
    <path stroke-width="0" fill="rgb(209, 185, 202)" opacity="0.76981" stroke="rgb(230, 175, 178)" stroke-opacity="1.0" stroke-linecap="round" stroke-linejoin="round" d="M 177.89698791503906 366.8995666503906 C 181.58045959472656 378.9774169921875 234.35096740722656 363.08941650390625 259.4228210449219 364.86322021484375 C 228.99868774414062 365.6558532714844 228.4002227783203 359.801513671875 238.42002868652344 371.9242248535156 C 230.43614196777344 371.4346923828125 224.49700927734375 369.47882080078125 419.5968322753906 371.4039611816406 C 116.58806610107422 357.214599609375 316.0741882324219 382.3018493652344 177.89698791503906 366.8995666503906"/>
    <path stroke-width="0" fill="rgb(226, 240, 259)" opacity="0.25244766" stroke="rgb(192, 162, 61)" stroke-opacity="1.0" stroke-linecap="round" stroke-linejoin="round" d="M 453.6639709472656 290.7590637207031 C 463.1542053222656 292.1336975097656 440.2782287597656 294.55865478515625 448.5878601074219 256.7947692871094 C 441.6840515136719 281.3811950683594 448.95831298828125 288.9719543457031 457.8286437988281 291.99725341796875 C 461.30523681640625 297.0087585449219 469.3418884277344 295.27923583984375 452.4822998046875 329.2167663574219 C 466.85791015625 297.9645690917969 467.17022705078125 297.8992004394531 453.6639709472656 290.7590637207031"/>
    <path stroke-width="0" fill="rgb(112, 126, 148)" opacity="0.64139235" stroke="rgb(209, 231, 207)" stroke-opacity="1.0" stroke-linecap="round" stroke-linejoin="round" d="M 555.3338623046875 498.2890319824219 C 399.35589599609375 504.0577697753906 431.29107666015625 489.3663024902344 428.31298828125 519.1326904296875 C 427.6125793457031 510.127685546875 424.4607849121094 520.2059936523438 422.0766906738281 509.00189208984375 C 438.383056640625 480.6717224121094 395.376220703125 498.9541931152344 496.6689453125 495.2755432128906 C 432.33026123046875 470.9471435546875 417.7385559082031 482.3427734375 555.3338623046875 498.2890319824219"/>
    <path stroke-width="0" fill="rgb(31, 81, 84)" opacity="0.86839056" stroke="rgb(160, 101, 15)" stroke-opacity="1.0" stroke-linecap="round" stroke-linejoin="round" d="M 384.3113098144531 272.55426025390625 C 486.16876220703125 272.2535095214844 241.4349822998047 243.98507690429688 298.0748291015625 205.76165771484375 C 454.4261779785156 203.93844604492188 404.3293762207031 190.06344604492188 409.4017028808594 270.2773132324219 C 356.7671813964844 248.83453369140625 365.4341125488281 262.4126281738281 288.9214172363281 222.94317626953125 C 300.2258605957031 280.16412353515625 266.1468811035156 272.06658935546875 384.3113098144531 272.55426025390625"/>
    <path stroke-width="0" fill="rgb(28, 27, 25)" opacity="0.9592438" stroke="rgb(65, 216, 8)" stroke-opacity="1.0" stroke-linecap="round" stroke-linejoin="round" d="M 229.06443786621094 492.6101989746094 C 217.6993408203125 490.153076171875 123.1103515625 487.894287109375 -118.27738189697266 490.0566711425781 C 238.00534057617188 495.9573974609375 211.96849060058594 483.2519836425781 205.268798828125 504.38238525390625 C 193.43504333496094 482.030517578125 191.8266143798828 498.50982666015625 297.7579345703125 491.9453125 C 179.24960327148438 492.6007995605469 198.0309600830078 495.27789306640625 229.06443786621094 492.6101989746094"/>
    <path stroke-width="0" fill="rgb(17, 42, 56)" opacity="0.80649567" stroke="rgb(90, 90, 4)" stroke-opacity="1.0" stroke-linecap="round" stroke-linejoin="round" d="M 280.27069091796875 436.88726806640625 C 276.8030090332031 432.11431884765625 278.4201965332031 439.73297119140625 290.4006042480469 437.4914245605469 C 301.4259033203125 450.165771484375 285.95257568359375 439.61126708984375 288.3480224609375 433.0011901855469 C 293.3830261230469 467.91961669921875 364.7577209472656 440.763671875 284.8482360839844 450.59625244140625 C 301.47442626953125 439.01422119140625 302.1581726074219 442.2341003417969 280.27069091796875 436.88726806640625"/>
    <path stroke-width="0" fill="rgb(37, 18, 8)" opacity="0.75697047" stroke="rgb(102, 236, 25)" stroke-opacity="1.0" stroke-linecap="round" stroke-linejoin="round" d="M -25.752408981323242 437.7435607910156 C 58.36371612548828 451.3675537109375 25.520198822021484 435.00457763671875 -7.452001571655273 440.6044006347656 C 126.59968566894531 440.93975830078125 154.69822692871094 419.03240966796875 -73.00739288330078 426.6473693847656 C 150.0964813232422 434.88580322265625 108.01519012451172 421.07720947265625 80.66063690185547 439.9912414550781 C 46.08148193359375 444.09600830078125 25.657350540161133 439.12689208984375 -25.752408981323242 437.7435607910156"/>
    <path stroke-width="0" fill="rgb(84, 94, 57)" opacity="0.96846676" stroke="rgb(221, 115, 83)" stroke-opacity="1.0" stroke-linecap="round" stroke-linejoin="round" d="M 558.6136474609375 363.782958984375 C 451.88238525390625 348.1257019042969 432.9114990234375 367.8631286621094 452.21551513671875 358.87646484375 C 476.29083251953125 358.2731628417969 467.90753173828125 354.6653137207031 466.8537292480469 358.0446472167969 C 479.4098815917969 355.9103698730469 428.4286804199219 355.4275207519531 115.49403381347656 358.1282653808594 C 403.7221984863281 364.61053466796875 490.57891845703125 355.0411071777344 558.6136474609375 363.782958984375"/>
    <path stroke-width="0" fill="rgb(34, 28, 92)" opacity="0.5867052" stroke="rgb(33, 3, 29)" stroke-opacity="1.0" stroke-linecap="round" stroke-linejoin="round" d="M 434.3605041503906 507.9420166015625 C 454.5580749511719 491.2327880859375 452.841552734375 513.2672729492188 450.7169494628906 520.5098876953125 C 438.9053955078125 489.1072692871094 473.8591613769531 511.9662170410156 457.6727600097656 487.8482971191406 C 441.22991943359375 539.697265625 477.26239013671875 524.8988647460938 451.4924011230469 525.91162109375 C 447.1266784667969 504.3565673828125 452.1445617675781 492.1780700683594 434.3605041503906 507.9420166015625"/>
    <path stroke-width="0" fill="rgb(108, 111, 131)" opacity="0.350384" stroke="rgb(162, 125, 252)" stroke-opacity="1.0" stroke-linecap="round" stroke-linejoin="round" d="M 232.4141387939453 117.21028900146484 C 242.37771606445312 94.08162689208984 239.94915771484375 99.52552032470703 234.84384155273438 104.8567886352539 C 230.91885375976562 105.30322265625 233.44773864746094 103.17291259765625 234.7789764404297 104.60664367675781 C 237.71157836914062 104.36638641357422 244.61756896972656 92.30326080322266 248.62191772460938 74.25656127929688 C 245.7220916748047 89.31053924560547 238.58880615234375 101.08992004394531 232.4141387939453 117.21028900146484"/>
    <path stroke-width="0" fill="rgb(27, 29, 32)" opacity="0.9394067" stroke="rgb(199, 73, 61)" stroke-opacity="1.0" stroke-linecap="round" stroke-linejoin="round" d="M 417.130859375 440.49127197265625 C 346.1343078613281 432.7148742675781 388.1651916503906 468.210205078125 620.673828125 438.7231750488281 C 294.8664245605469 467.5187683105469 491.3878173828125 417.5715026855469 368.3491516113281 449.0831298828125 C 452.0535583496094 449.68255615234375 391.4432373046875 455.5905456542969 438.8275146484375 437.3721008300781 C 313.26171875 450.6404724121094 366.2962646484375 434.2630310058594 417.130859375 440.49127197265625"/>
    <path stroke-width="0" fill="rgb(31, 0, 4)" opacity="0.80336285" stroke="rgb(62, 169, 131)" stroke-opacity="1.0" stroke-linecap="round" stroke-linejoin="round" d="M -24.040441513061523 367.5067443847656 C 10.783781051635742 441.6786193847656 -12.185037612915039 457.9698486328125 -51.16194534301758 437.3093566894531 C 28.007938385009766 429.4504089355469 40.645782470703125 428.3468017578125 40.96239471435547 452.5865783691406 C 24.873159408569336 438.61236572265625 60.5908317565918 428.86767578125 -1.7434377670288086 432.6504211425781 C 27.451705932617188 465.3072814941406 -1.452595591545105 461.5248107910156 -24.040441513061523 367.5067443847656"/>
    <path stroke-width="0" fill="rgb(51, 29, 30)" opacity="0.8202877" stroke="rgb(141, 73, 180)" stroke-opacity="1.0" stroke-linecap="round" stroke-linejoin="round" d="M 372.3719787597656 451.33636474609375 C 356.0726013183594 455.469482421875 356.05328369140625 438.7789306640625 356.41851806640625 435.4977111816406 C 360.52850341796875 464.0614013671875 327.3927307128906 445.178955078125 356.49383544921875 449.84979248046875 C 357.2525939941406 451.8953552246094 341.02203369140625 430.9020080566406 396.9866638183594 438.70318603515625 C 351.9382019042969 433.3721923828125 345.71185302734375 456.7684020996094 372.3719787597656 451.33636474609375"/>
    <path stroke-width="0" fill="rgb(222, 205, 248)" opacity="0.7989102" stroke="rgb(247, 230, 75)" stroke-opacity="1.0" stroke-linecap="round" stroke-linejoin="round" d="M 466.35595703125 367.3323974609375 C 413.6517639160156 366.1988220214844 349.9358825683594 373.1566162109375 460.2360534667969 371.28411865234375 C 455.5541687011719 361.6692810058594 461.4388122558594 362.3057861328125 466.66375732421875 372.323486328125 C 523.0840454101562 376.7208251953125 592.3546752929688 365.7272033691406 466.32196044921875 366.8060302734375 C 471.37115478515625 377.2598571777344 474.5683288574219 382.56842041015625 466.35595703125 367.3323974609375"/>
    <path stroke-width="0" fill="rgb(111, 113, 128)" opacity="0.4201869" stroke="rgb(63, 27, 242)" stroke-opacity="1.0" stroke-linecap="round" stroke-linejoin="round" d="M 212.710205078125 111.48725891113281 C 198.47882080078125 99.76729583740234 187.75257873535156 90.10905456542969 186.690673828125 97.44352722167969 C 194.7906494140625 85.48579406738281 193.69908142089844 97.87081146240234 188.89364624023438 91.52256774902344 C 201.38499450683594 106.87501525878906 204.2666473388672 97.23722839355469 195.62266540527344 110.138671875 C 202.58802795410156 97.29100799560547 202.76351928710938 105.98462677001953 212.710205078125 111.48725891113281"/>
    <path stroke-width="0" fill="rgb(201, 222, 204)" opacity="0.61518836" stroke="rgb(69, 96, 95)" stroke-opacity="1.0" stroke-linecap="round" stroke-linejoin="round" d="M 327.0946960449219 75.26488494873047 C 353.18670654296875 85.50212860107422 296.66412353515625 60.75774002075195 370.3935852050781 91.92414093017578 C 386.50732421875 88.87203979492188 361.55615234375 97.58033752441406 356.73272705078125 94.80107116699219 C 282.3984680175781 97.18655395507812 251.80117797851562 90.6541519165039 364.21295166015625 99.45285034179688 C 375.8252258300781 90.95894622802734 357.7503967285156 86.44828796386719 327.0946960449219 75.26488494873047"/>
    <path stroke-width="0" fill="rgb(6, 8, 27)" opacity="0.4453528" stroke="rgb(213, 60, 128)" stroke-opacity="1.0" stroke-linecap="round" stroke-linejoin="round" d="M 318.8172912597656 161.49815368652344 C 327.81756591796875 113.6922378540039 315.79925537109375 129.1956329345703 315.82647705078125 128.99429321289062 C 329.2255859375 124.87288665771484 318.8757019042969 126.26334381103516 320.6727294921875 127.61368560791016 C 322.3678283691406 122.35660552978516 325.19012451171875 140.0553741455078 318.2148742675781 159.08570861816406 C 321.3947448730469 139.84312438964844 320.824462890625 137.50331115722656 318.8172912597656 161.49815368652344"/>
    <path stroke-width="0" fill="rgb(57, 46, 52)" opacity="0.5576949" stroke="rgb(161, 221, 239)" stroke-opacity="1.0" stroke-linecap="round" stroke-linejoin="round" d="M 149.38906860351562 452.370849609375 C 228.80503845214844 430.2890625 226.65451049804688 418.8055114746094 229.4711151123047 441.93292236328125 C 247.2744598388672 434.90380859375 253.83282470703125 431.23712158203125 238.25497436523438 440.208740234375 C 212.01368713378906 450.5397033691406 241.0500030517578 456.67822265625 227.5041046142578 440.91986083984375 C 225.00193786621094 419.5815734863281 224.11329650878906 431.4578857421875 149.38906860351562 452.370849609375"/>
    <path stroke-width="0" fill="rgb(8, 30, 16)" opacity="0.56537557" stroke="rgb(228, 103, 140)" stroke-opacity="1.0" stroke-linecap="round" stroke-linejoin="round" d="M 220.05084228515625 431.26904296875 C 13.66279411315918 420.7515869140625 -84.26042938232422 431.4859924316406 149.0169219970703 430.0585632324219 C 179.55165100097656 432.2130432128906 153.47740173339844 420.46417236328125 167.9291229248047 450.9354248046875 C 163.5159149169922 426.72735595703125 174.56687927246094 438.3555908203125 158.39048767089844 438.91864013671875 C 181.8649444580078 428.3016052246094 123.90689849853516 432.25433349609375 220.05084228515625 431.26904296875"/>
    <path stroke-width="0" fill="rgb(270, 272, 260)" opacity="0.63253284" stroke="rgb(116, 102, 63)" stroke-opacity="1.0" stroke-linecap="round" stroke-linejoin="round" d="M 458.043701171875 113.16006469726562 C 448.03631591796875 121.61927032470703 457.3004150390625 118.95643615722656 474.43585205078125 118.1903076171875 C 448.8077392578125 126.20213317871094 455.5853271484375 108.45439910888672 479.4753112792969 119.04839324951172 C 472.260009765625 114.72946166992188 460.5943603515625 106.78469848632812 441.4388427734375 114.09081268310547 C 500.51275634765625 121.60185241699219 508.45001220703125 129.4580841064453 458.043701171875 113.16006469726562"/>
    <path stroke-width="0" fill="rgb(135, 143, 126)" opacity="0.07593253" stroke="rgb(85, 235, 219)" stroke-opacity="1.0" stroke-linecap="round" stroke-linejoin="round" d="M 460.4114685058594 151.58053588867188 C 468.1120910644531 110.48220825195312 450.8968811035156 126.21669006347656 441.7513427734375 115.94300842285156 C 433.55126953125 111.50883483886719 427.9770812988281 117.19898223876953 426.1968688964844 116.20079040527344 C 442.9012756347656 110.34347534179688 437.6070251464844 118.34317779541016 458.0506286621094 121.73445892333984 C 455.9629821777344 121.02145385742188 468.14154052734375 126.86698913574219 460.4114685058594 151.58053588867188"/>
    <path stroke-width="0" fill="rgb(232, 249, 245)" opacity="0.7259119" stroke="rgb(64, 113, 26)" stroke-opacity="1.0" stroke-linecap="round" stroke-linejoin="round" d="M 475.9891052246094 87.6755599975586 C 458.0037841796875 82.41543579101562 477.68084716796875 102.97129821777344 486.02813720703125 92.11070251464844 C 445.3809509277344 83.35041046142578 437.3851623535156 68.56085968017578 446.86773681640625 92.62905883789062 C 493.2701416015625 101.44445037841797 497.86468505859375 92.60356140136719 483.6778869628906 80.47801971435547 C 462.1492919921875 93.83700561523438 480.2917785644531 101.00186920166016 475.9891052246094 87.6755599975586"/>
    <path stroke-width="0" fill="rgb(201, 211, 185)" opacity="0.7824828" stroke="rgb(0, 0, 0)" stroke-opacity="0.0" stroke-linecap="round" stroke-linejoin="round" d="M 276.8812561035156 16.796470642089844 C 276.3568115234375 23.23859214782715 271.990234375 24.899696350097656 266.0665588378906 25.833961486816406 C 262.2246398925781 27.5136661529541 256.7252197265625 23.333892822265625 257.34979248046875 18.370342254638672 C 257.00274658203125 10.708847999572754 260.6116943359375 10.09011459350586 266.8973693847656 9.275003433227539 C 272.2655029296875 10.084121704101562 275.9208984375 12.925865173339844 276.8812561035156 16.796470642089844"/>
    <path stroke-width="0" fill="rgb(198, 148, 190)" opacity="0.33764806" stroke="rgb(0, 0, 0)" stroke-opacity="0.0" stroke-linecap="round" stroke-linejoin="round" d="M 5.637966156005859 5.653713226318359 C 1.0074211359024048 6.934557914733887 0.8802564740180969 10.872025489807129 1.0851924419403076 20.127248764038086 C -5.7051472663879395 17.276649475097656 -6.7615580558776855 11.957483291625977 -7.636411666870117 7.5749735832214355 C -6.561120986938477 3.567819595336914 -3.6331968307495117 0.638126015663147 -0.8086261749267578 1.0884913206100464 C 3.7866549491882324 1.6720232963562012 7.5212273597717285 3.917170763015747 5.637966156005859 5.653713226318359"/>
    <path stroke-width="0" fill="rgb(161, 140, 186)" opacity="0.8251827" stroke="rgb(0, 0, 0)" stroke-opacity="0.0" stroke-linecap="round" stroke-linejoin="round" d="M 20.417280197143555 10.082620620727539 C 22.850200653076172 11.058338165283203 20.688940048217773 13.679084777832031 18.398786544799805 15.745506286621094 C 14.12246036529541 16.229055404663086 10.572489738464355 13.935155868530273 12.726411819458008 12.163047790527344 C 16.829303741455078 9.278462409973145 16.982196807861328 4.11311149597168 18.018512725830078 0.36581024527549744 C 22.765161514282227 2.0618486404418945 23.576082229614258 6.218532562255859 20.417280197143555 10.082620620727539"/>
    <path stroke-width="0" fill="rgb(171, 166, 116)" opacity="0.38842624" stroke="rgb(0, 0, 0)" stroke-opacity="0.0" stroke-linecap="round" stroke-linejoin="round" d="M 103.21826934814453 1.506883978843689 C 101.92408752441406 4.744098663330078 97.26188659667969 4.058835983276367 98.0995864868164 12.163172721862793 C 98.98202514648438 11.040185928344727 97.55611419677734 5.462571144104004 95.95687866210938 0.2870577871799469 C 94.2721176147461 -2.615769624710083 96.22372436523438 -4.570152282714844 100.00940704345703 -4.536307334899902 C 104.22056579589844 -3.434697151184082 105.80232238769531 -1.2049198150634766 103.21826934814453 1.506883978843689"/>
    <path stroke-width="0" fill="rgb(72, 83, 149)" opacity="0.199158" stroke="rgb(0, 0, 0)" stroke-opacity="0.0" stroke-linecap="round" stroke-linejoin="round" d="M 171.2251434326172 18.120798110961914 C 172.5572052001953 22.446678161621094 169.51063537597656 25.39490509033203 168.11282348632812 22.753629684448242 C 163.0374755859375 20.507312774658203 158.6370849609375 19.86319351196289 161.48793029785156 19.376604080200195 C 161.6922149658203 8.734265327453613 159.73793029785156 6.778312683105469 161.6835479736328 8.774346351623535 C 165.26683044433594 12.628562927246094 167.84461975097656 16.788488388061523 171.2251434326172 18.120798110961914"/>
    <path stroke-width="0" fill="rgb(122, 145, 169)" opacity="0.88170844" stroke="rgb(0, 0, 0)" stroke-opacity="0.0" stroke-linecap="round" stroke-linejoin="round" d="M 21.10293197631836 11.865278244018555 C 21.67286491394043 16.815073013305664 18.3828067779541 18.597915649414062 20.808454513549805 17.030208587646484 C 13.791727066040039 15.29617691040039 6.83656120300293 14.089017868041992 4.327337741851807 12.08795166015625 C 0.4779280126094818 4.333240032196045 6.028634548187256 5.037144660949707 17.675048828125 2.368131160736084 C 24.25006675720215 0.5604495406150818 24.715238571166992 1.527127742767334 21.10293197631836 11.865278244018555"/>
    <path stroke-width="0" fill="rgb(133, 94, 88)" opacity="0.2561481" stroke="rgb(0, 0, 0)" stroke-opacity="0.0" stroke-linecap="round" stroke-linejoin="round" d="M 16.460580825805664 3.875321865081787 C 10.247952461242676 5.20387077331543 4.946320533752441 6.351672172546387 1.6504541635513306 9.753814697265625 C 2.3101871013641357 13.28549861907959 0.35834234952926636 8.242392539978027 -0.8847590088844299 3.3720436096191406 C -1.3984062671661377 0.26197654008865356 1.653698444366455 -2.5461313724517822 5.939132213592529 -3.6224398612976074 C 10.943729400634766 -3.3308353424072266 14.33810806274414 -0.9171402454376221 16.460580825805664 3.875321865081787"/>
    <path stroke-width="0" fill="rgb(234, 216, 190)" opacity="0.55642796" stroke="rgb(0, 0, 0)" stroke-opacity="0.0" stroke-linecap="round" stroke-linejoin="round" d="M 348.4920959472656 42.57999801635742 C 348.6854248046875 47.50644302368164 345.27606201171875 49.642398834228516 340.7706298828125 49.336185455322266 C 336.36639404296875 50.099971771240234 331.98516845703125 47.970848083496094 330.4301452636719 42.50071334838867 C 330.0065002441406 36.719242095947266 334.9176330566406 33.73036575317383 341.5502624511719 33.98506164550781 C 346.1273193359375 34.941410064697266 349.0257263183594 38.34344482421875 348.4920959472656 42.57999801635742"/>
    <path stroke-width="0" fill="rgb(133, 163, 85)" opacity="0.07347348" stroke="rgb(0, 0, 0)" stroke-opacity="0.0" stroke-linecap="round" stroke-linejoin="round" d="M 328.2819519042969 269.3713073730469 C 325.1864318847656 274.5185852050781 321.81085205078125 276.7010192871094 321.102294921875 275.3984680175781 C 318.5132141113281 273.37750244140625 315.6732177734375 270.3764953613281 307.96240234375 268.4887390136719 C 311.5421142578125 267.79168701171875 318.11688232421875 267.5422058105469 321.8789367675781 266.5173034667969 C 323.6538391113281 263.65234375 327.185302734375 265.31689453125 328.2819519042969 269.3713073730469"/>
    <path stroke-width="0" fill="rgb(195, 184, 170)" opacity="0.9086103" stroke="rgb(0, 0, 0)" stroke-opacity="0.0" stroke-linecap="round" stroke-linejoin="round" d="M 171.4715118408203 38.06326675415039 C 171.47071838378906 41.97261428833008 168.38482666015625 45.0230598449707 164.28521728515625 46.24441909790039 C 158.9999542236328 46.2919921875 155.8125457763672 43.30109405517578 156.19822692871094 38.227848052978516 C 157.40953063964844 34.20085906982422 160.0757598876953 30.24302864074707 164.05532836914062 29.84980583190918 C 169.077880859375 29.613466262817383 171.4979705810547 33.62928771972656 171.4715118408203 38.06326675415039"/>
    <path stroke-width="0" fill="rgb(92, 78, 188)" opacity="-0.00058248057" stroke="rgb(0, 0, 0)" stroke-opacity="0.0" stroke-linecap="round" stroke-linejoin="round" d="M 402.47467041015625 136.46580505371094 C 399.7887268066406 140.29759216308594 395.8497314453125 142.07608032226562 392.8847961425781 144.09548950195312 C 390.7479248046875 141.21519470214844 388.0417785644531 137.8157958984375 387.1187438964844 135.99716186523438 C 386.56597900390625 132.84454345703125 388.2938232421875 128.4857635498047 393.61688232421875 125.3065185546875 C 396.2239074707031 130.013671875 400.0887451171875 132.2073211669922 402.47467041015625 136.46580505371094"/>
    <path stroke-width="0" fill="rgb(206, 160, 230)" opacity="0.7487223" stroke="rgb(0, 0, 0)" stroke-opacity="0.0" stroke-linecap="round" stroke-linejoin="round" d="M -60.74114227294922 30.83562660217285 C -61.81293869018555 34.835628509521484 -64.74114227294922 37.763832092285156 -68.74114227294922 38.835628509521484 C -72.74114227294922 37.763832092285156 -75.66934967041016 34.835628509521484 -76.74114227294922 30.83562660217285 C -75.66934967041016 26.83562660217285 -72.74114227294922 23.907424926757812 -68.74114227294922 22.83562660217285 C -64.74114227294922 23.907424926757812 -61.81293869018555 26.83562660217285 -60.74114227294922 30.83562660217285"/>
    <path stroke-width="0" fill="rgb(108, 73, 216)" opacity="0.050169516" stroke="rgb(0, 0, 0)" stroke-opacity="0.0" stroke-linecap="round" stroke-linejoin="round" d="M 436.2572021484375 140.7023468017578 C 431.07525634765625 142.3583221435547 428.74444580078125 146.1943817138672 430.04010009765625 145.54429626464844 C 427.7481384277344 145.8639678955078 425.4255676269531 141.54989624023438 423.41827392578125 140.00209045410156 C 424.175537109375 141.45494079589844 428.0257873535156 139.1367950439453 429.0382995605469 136.95249938964844 C 430.2936096191406 137.69178771972656 433.61517333984375 140.0711212158203 436.2572021484375 140.7023468017578"/>
    <path stroke-width="0" fill="rgb(25, 167, 207)" opacity="0.5922833" stroke="rgb(0, 0, 0)" stroke-opacity="0.0" stroke-linecap="round" stroke-linejoin="round" d="M 174.81640625 256.8931884765625 C 176.8851318359375 268.1587829589844 175.00035095214844 271.3834228515625 167.69166564941406 266.0496826171875 C 158.1283721923828 265.4134216308594 154.81309509277344 265.22882080078125 159.6988983154297 259.24517822265625 C 159.45663452148438 248.53697204589844 158.68780517578125 247.69009399414062 165.44100952148438 250.1483612060547 C 173.73023986816406 249.4810791015625 176.28529357910156 250.49822998046875 174.81640625 256.8931884765625"/>
    <path stroke-width="0" fill="rgb(197, 171, 109)" opacity="0.003358025" stroke="rgb(0, 0, 0)" stroke-opacity="0.0" stroke-linecap="round" stroke-linejoin="round" d="M 497.8279113769531 490.79791259765625 C 495.6343078613281 493.2146911621094 491.262451171875 495.0864562988281 487.2946472167969 497.6365661621094 C 485.1358642578125 498.1653747558594 482.56182861328125 494.5755615234375 482.2160339355469 490.1583557128906 C 482.6660461425781 486.7587585449219 485.4513854980469 483.4404602050781 489.00140380859375 481.9370422363281 C 494.6959228515625 482.88763427734375 497.55963134765625 485.4978942871094 497.8279113769531 490.79791259765625"/>
    <path stroke-width="0" fill="rgb(96, 68, 177)" opacity="0.5801323" stroke="rgb(0, 0, 0)" stroke-opacity="0.0" stroke-linecap="round" stroke-linejoin="round" d="M 515.0786743164062 421.3492431640625 C 515.4094848632812 424.64898681640625 510.8913269042969 425.2969055175781 503.3940734863281 424.14373779296875 C 498.6784362792969 425.8001403808594 495.75018310546875 425.2889404296875 498.8780212402344 421.37255859375 C 504.33416748046875 419.4557800292969 508.0910949707031 417.459716796875 509.1502990722656 412.7943420410156 C 509.27679443359375 413.1174011230469 512.7515258789062 415.7286682128906 515.0786743164062 421.3492431640625"/>
    <path stroke-width="0" fill="rgb(79, 121, 85)" opacity="0.2836046" stroke="rgb(0, 0, 0)" stroke-opacity="0.0" stroke-linecap="round" stroke-linejoin="round" d="M 95.10086822509766 66.69303131103516 C 98.5753173828125 69.90898132324219 94.18319702148438 69.54499816894531 90.98599243164062 68.89847564697266 C 86.99876403808594 69.5948257446289 83.95791625976562 67.56012725830078 85.86447143554688 63.59405517578125 C 84.88611602783203 60.08150863647461 85.65094757080078 56.899391174316406 89.55580139160156 58.09182357788086 C 95.26582336425781 56.69304275512695 95.29619598388672 58.210243225097656 95.10086822509766 66.69303131103516"/>
    <path stroke-width="0" fill="rgb(90, 129, 122)" opacity="0.90841436" stroke="rgb(0, 0, 0)" stroke-opacity="0.0" stroke-linecap="round" stroke-linejoin="round" d="M 452.0885009765625 431.9963684082031 C 449.03680419921875 436.04144287109375 444.70025634765625 438.23504638671875 440.5798034667969 440.50042724609375 C 435.5909423828125 440.67596435546875 432.01812744140625 437.990478515625 431.4330749511719 433.9989013671875 C 436.0426330566406 430.14959716796875 439.2703857421875 426.92987060546875 440.931884765625 427.4658508300781 C 442.99957275390625 428.0509948730469 449.03179931640625 428.3396911621094 452.0885009765625 431.9963684082031"/>
    <path stroke-width="0" fill="rgb(59, 74, 146)" opacity="0.6005999" stroke="rgb(0, 0, 0)" stroke-opacity="0.0" stroke-linecap="round" stroke-linejoin="round" d="M 362.94769287109375 495.8840637207031 C 361.1799011230469 497.0592041015625 356.8068542480469 499.57061767578125 353.578857421875 500.953857421875 C 351.1033630371094 505.3656921386719 351.06414794921875 502.5796203613281 352.38885498046875 496.7686767578125 C 351.8174743652344 492.42437744140625 352.9659729003906 489.4268493652344 353.5457458496094 491.25775146484375 C 357.4801940917969 494.5906066894531 362.7204895019531 495.33984375 362.94769287109375 495.8840637207031"/>
    <path stroke-width="0" fill="rgb(105, 44, 97)" opacity="0.20042391" stroke="rgb(0, 0, 0)" stroke-opacity="0.0" stroke-linecap="round" stroke-linejoin="round" d="M 319.0971984863281 105.93775939941406 C 317.71051025390625 111.53630065917969 314.8572082519531 114.23716735839844 315.4629211425781 111.90187072753906 C 311.2134094238281 111.02666473388672 304.97161865234375 111.9048843383789 301.3623046875 107.74170684814453 C 303.776611328125 105.2091293334961 309.4258117675781 104.07696533203125 314.43310546875 105.88871002197266 C 319.96209716796875 102.42396545410156 323.1303405761719 102.598876953125 319.0971984863281 105.93775939941406"/>
    <path stroke-width="0" fill="rgb(111, 176, 226)" opacity="0.05720655" stroke="rgb(0, 0, 0)" stroke-opacity="0.0" stroke-linecap="round" stroke-linejoin="round" d="M 485.9797668457031 93.3077621459961 C 482.9472961425781 95.82230377197266 478.9889221191406 97.92320251464844 476.3668212890625 100.3213119506836 C 472.02862548828125 99.345703125 467.8472900390625 96.74872589111328 469.5782775878906 94.8689193725586 C 471.4724426269531 89.92437744140625 472.5043640136719 85.43952178955078 475.11395263671875 86.2835693359375 C 479.1488342285156 85.57435607910156 482.13653564453125 90.1976547241211 485.9797668457031 93.3077621459961"/>
    <path stroke-width="0" fill="rgb(38, 13, 57)" opacity="0.4542323" stroke="rgb(0, 0, 0)" stroke-opacity="0.0" stroke-linecap="round" stroke-linejoin="round" d="M -27.041536331176758 30.428306579589844 C -28.113332748413086 34.428306579589844 -31.041536331176758 37.356510162353516 -35.041534423828125 38.428306579589844 C -39.041534423828125 37.356510162353516 -41.9697380065918 34.428306579589844 -43.041534423828125 30.428306579589844 C -41.9697380065918 26.428306579589844 -39.041534423828125 23.500104904174805 -35.041534423828125 22.428306579589844 C -31.041536331176758 23.500104904174805 -28.113332748413086 26.428306579589844 -27.041536331176758 30.428306579589844"/>
    <path stroke-width="0" fill="rgb(251, 118, 233)" opacity="0.33664012" stroke="rgb(0, 0, 0)" stroke-opacity="0.0" stroke-linecap="round" stroke-linejoin="round" d="M -70.7625961303711 47.9467658996582 C -71.83438873291016 51.9467658996582 -74.7625961303711 54.874969482421875 -78.7625961303711 55.9467658996582 C -82.7625961303711 54.874969482421875 -85.6907958984375 51.9467658996582 -86.7625961303711 47.9467658996582 C -85.6907958984375 43.9467658996582 -82.7625961303711 41.01856231689453 -78.7625961303711 39.9467658996582 C -74.7625961303711 41.01856231689453 -71.83438873291016 43.9467658996582 -70.7625961303711 47.9467658996582"/>
    <path stroke-width="0" fill="rgb(244, 231, 242)" opacity="0.5312558" stroke="rgb(0, 0, 0)" stroke-opacity="0.0" stroke-linecap="round" stroke-linejoin="round" d="M 212.87855529785156 304.3446044921875 C 209.1199951171875 308.2254943847656 206.11334228515625 311.3326416015625 205.2159423828125 309.911865234375 C 199.91949462890625 310.4211730957031 197.4556884765625 308.7290344238281 193.43624877929688 305.04559326171875 C 196.4219512939453 302.2333068847656 200.332763671875 299.6496887207031 205.05723571777344 297.2778015136719 C 209.10708618164062 297.644775390625 212.97586059570312 299.57275390625 212.87855529785156 304.3446044921875"/>
    <path stroke-width="0" fill="rgb(155, 34, 132)" opacity="0.18454155" stroke="rgb(0, 0, 0)" stroke-opacity="0.0" stroke-linecap="round" stroke-linejoin="round" d="M 183.3397979736328 203.3751983642578 C 186.9015350341797 203.68927001953125 182.82290649414062 204.45150756835938 176.68072509765625 205.57553100585938 C 173.76869201660156 205.87281799316406 170.03274536132812 203.81661987304688 171.63931274414062 199.72186279296875 C 174.3448486328125 198.6087188720703 179.36524963378906 197.5122833251953 178.4337615966797 194.22979736328125 C 177.2637176513672 196.8714599609375 179.80612182617188 200.10836791992188 183.3397979736328 203.3751983642578"/>
    <path stroke-width="0" fill="rgb(24, 209, 54)" opacity="0.26016438" stroke="rgb(0, 0, 0)" stroke-opacity="0.0" stroke-linecap="round" stroke-linejoin="round" d="M 164.45281982421875 60.06214141845703 C 168.19332885742188 62.87599182128906 164.2935333251953 63.62337875366211 156.789306640625 63.135047912597656 C 153.52554321289062 65.49945068359375 152.33328247070312 63.48385238647461 154.34487915039062 60.15105056762695 C 157.22938537597656 58.78142547607422 160.31675720214844 56.11202621459961 161.0052032470703 51.07967758178711 C 162.00888061523438 49.72328567504883 163.37205505371094 54.01201248168945 164.45281982421875 60.06214141845703"/>
    <path stroke-width="0" fill="rgb(200, 179, 207)" opacity="0.32137698" stroke="rgb(0, 0, 0)" stroke-opacity="0.0" stroke-linecap="round" stroke-linejoin="round" d="M 423.3064880371094 388.59185791015625 C 424.7424011230469 394.6094970703125 423.0204772949219 397.5187072753906 416.89093017578125 396.7045593261719 C 413.0404968261719 393.32159423828125 410.8625793457031 389.2563781738281 405.623291015625 385.107666015625 C 405.9753723144531 383.6752624511719 413.1623229980469 382.0770568847656 417.0378723144531 380.8862609863281 C 418.9231262207031 380.7718505859375 422.4417724609375 383.4128723144531 423.3064880371094 388.59185791015625"/>
    <path stroke-width="0" fill="rgb(75, 36, 31)" opacity="0.4559351" stroke="rgb(0, 0, 0)" stroke-opacity="0.0" stroke-linecap="round" stroke-linejoin="round" d="M 28.54256820678711 495.2471008300781 C 28.39075469970703 501.6976013183594 26.13775634765625 505.3583984375 20.877716064453125 506.7168884277344 C 19.03234100341797 503.8917236328125 16.39058494567871 499.63763427734375 15.2008056640625 495.8507995605469 C 14.16057300567627 490.322998046875 15.030613899230957 488.2303161621094 21.659469604492188 490.5337829589844 C 28.904125213623047 489.2602844238281 31.115293502807617 490.3109130859375 28.54256820678711 495.2471008300781"/>
    <path stroke-width="0" fill="rgb(192, 206, 90)" opacity="0.4771786" stroke="rgb(0, 0, 0)" stroke-opacity="0.0" stroke-linecap="round" stroke-linejoin="round" d="M 17.617883682250977 6.144557476043701 C 15.690673828125 7.061932563781738 10.070050239562988 8.502982139587402 4.3055853843688965 9.594524383544922 C 4.5522565841674805 10.9309720993042 2.3796708583831787 6.823538303375244 -0.05615024268627167 2.775904417037964 C 0.9558700323104858 0.044384025037288666 3.781411647796631 -3.003507375717163 9.34288215637207 -5.6040167808532715 C 13.338664054870605 -4.483641147613525 15.233948707580566 -0.5088369250297546 17.617883682250977 6.144557476043701"/>
    <path stroke-width="0" fill="rgb(105, 213, 205)" opacity="0.019455552" stroke="rgb(0, 0, 0)" stroke-opacity="0.0" stroke-linecap="round" stroke-linejoin="round" d="M 7.904231071472168 -0.41279616951942444 C 7.616525650024414 4.349766731262207 5.8384928703308105 8.211244583129883 3.3294785022735596 6.550748825073242 C -2.1470744609832764 5.130187511444092 -5.668654918670654 3.4339821338653564 -6.841336250305176 -0.27296870946884155 C -5.775409698486328 -4.253812313079834 -2.8472065925598145 -7.182015895843506 1.1527934074401855 -8.253812789916992 C 5.1527323722839355 -7.181992530822754 8.076669692993164 -4.252244472503662 7.904231071472168 -0.41279616951942444"/>
    <path stroke-width="0" fill="rgb(152, 144, 188)" opacity="0.5157884" stroke="rgb(0, 0, 0)" stroke-opacity="0.0" stroke-linecap="round" stroke-linejoin="round" d="M 13.042792320251465 91.92644500732422 C 13.390999794006348 94.79631805419922 11.96184253692627 95.43040466308594 7.2877068519592285 95.56612396240234 C 0.5257787704467773 96.83726501464844 -2.7352099418640137 96.22123718261719 -0.718890368938446 91.63227844238281 C 0.8402240872383118 86.29295349121094 4.367809772491455 84.57353210449219 8.057217597961426 84.69573211669922 C 11.774652481079102 84.36151885986328 15.1062593460083 85.8077621459961 13.042792320251465 91.92644500732422"/>
    <path stroke-width="0" fill="rgb(94, 92, 61)" opacity="0.4975591" stroke="rgb(0, 0, 0)" stroke-opacity="0.0" stroke-linecap="round" stroke-linejoin="round" d="M 60.81063461303711 388.1766662597656 C 59.9454231262207 392.1021423339844 57.20261764526367 394.435546875 52.34803771972656 397.5747375488281 C 52.397254943847656 392.3818054199219 50.76460647583008 388.01519775390625 47.27866744995117 384.0729064941406 C 43.759765625 380.9934387207031 46.12328338623047 378.37109375 52.025299072265625 379.2030944824219 C 58.23884201049805 379.84716796875 60.855106353759766 382.5612487792969 60.81063461303711 388.1766662597656"/>
  </g>
</svg>
