<?xml version="1.0" ?>
<svg xmlns="http://www.w3.org/2000/svg" version="1.1" width="512" height="512">
  <defs/>
  <g>
    <path stroke-width="0" fill="rgb(131, 128, 129)" opacity="0.9973858" stroke="rgb(139, 182, 153)" stroke-opacity="1.0" stroke-linecap="round" stroke-linejoin="round" d="M 222.9732208251953 1.027063250541687 C 160.18873596191406 3.02822208404541 192.0867462158203 48.61771011352539 66.11257934570312 128.5819091796875 C 58.17640686035156 122.41986083984375 55.610050201416016 110.8427734375 54.831825256347656 87.56220245361328 C 59.0836181640625 -68.68290710449219 69.83731842041016 -69.64936828613281 85.66956329345703 -59.82537841796875 C 196.88177490234375 -32.08750534057617 205.10635375976562 -25.661888122558594 222.9732208251953 1.027063250541687"/>
    <path stroke-width="0" fill="rgb(132, 129, 129)" opacity="0.99795157" stroke="rgb(108, 164, 111)" stroke-opacity="1.0" stroke-linecap="round" stroke-linejoin="round" d="M 144.30905151367188 83.2042236328125 C 155.1301727294922 158.44419860839844 160.5310516357422 170.90150451660156 96.71031188964844 174.85882568359375 C -62.45086669921875 168.9764862060547 -48.63068389892578 138.35858154296875 -41.254844665527344 85.9067611694336 C -38.50617218017578 -35.472816467285156 -31.483736038208008 -40.57529067993164 49.71525573730469 -37.51689147949219 C 115.77605438232422 -40.62742233276367 134.3967742919922 -48.12049102783203 144.30905151367188 83.2042236328125"/>
    <path stroke-width="0" fill="rgb(129, 127, 127)" opacity="0.98273456" stroke="rgb(245, 97, 201)" stroke-opacity="1.0" stroke-linecap="round" stroke-linejoin="round" d="M 494.0089416503906 530.5343017578125 C 350.8706970214844 582.8856811523438 327.6231384277344 574.8817749023438 -39.52774429321289 555.3480224609375 C -75.76151275634766 413.1372375488281 -51.65288543701172 351.97052001953125 -46.984493255615234 138.42605590820312 C -52.88449478149414 99.44678497314453 -56.87239074707031 85.87863159179688 144.9219512939453 85.41275024414062 C 262.3959655761719 80.32359313964844 395.0132141113281 33.10142517089844 494.0089416503906 530.5343017578125"/>
    <path stroke-width="0" fill="rgb(130, 128, 129)" opacity="0.9958866" stroke="rgb(144, 236, 18)" stroke-opacity="1.0" stroke-linecap="round" stroke-linejoin="round" d="M 552.1807861328125 550.1394653320312 C 341.9647521972656 511.00885009765625 282.35748291015625 425.55816650390625 161.12002563476562 319.60186767578125 C 78.14413452148438 169.7255859375 59.96965408325195 158.70553588867188 57.50757598876953 142.41397094726562 C 184.35986328125 29.28360366821289 135.1324462890625 -23.733501434326172 456.44622802734375 -46.42323303222656 C 555.062744140625 -124.77310180664062 573.008544921875 -219.4150390625 552.1807861328125 550.1394653320312"/>
    <path stroke-width="0" fill="rgb(248, 224, 181)" opacity="0.9629722" stroke="rgb(5, 212, 198)" stroke-opacity="1.0" stroke-linecap="round" stroke-linejoin="round" d="M 366.7120361328125 368.8316345214844 C 336.24859619140625 299.2168273925781 381.5894775390625 423.1226806640625 327.0607604980469 377.73687744140625 C 342.7007141113281 280.78125 243.61251831054688 475.60833740234375 287.11004638671875 312.6174621582031 C 236.5823211669922 246.0377197265625 283.3026123046875 228.28518676757812 279.9266662597656 304.9347229003906 C 374.9103698730469 218.41441345214844 339.2500305175781 340.1436462402344 366.7120361328125 368.8316345214844"/>
    <path stroke-width="0" fill="rgb(246, 243, 233)" opacity="0.9930069" stroke="rgb(249, 203, 117)" stroke-opacity="1.0" stroke-linecap="round" stroke-linejoin="round" d="M 253.62042236328125 349.95770263671875 C 236.57833862304688 361.84051513671875 287.3700866699219 359.8047790527344 216.57833862304688 359.9868469238281 C 209.71629333496094 363.1304626464844 204.6392059326172 325.94720458984375 202.16119384765625 352.1703796386719 C 184.1044158935547 299.9216613769531 181.1771697998047 293.146240234375 193.97885131835938 292.6729431152344 C 262.63458251953125 315.3806457519531 249.82273864746094 282.79925537109375 253.62042236328125 349.95770263671875"/>
    <path stroke-width="0" fill="rgb(248, 196, 75)" opacity="1.0" stroke="rgb(30, 163, 36)" stroke-opacity="1.0" stroke-linecap="round" stroke-linejoin="round" d="M 387.7835693359375 332.9245910644531 C 390.4806823730469 385.83453369140625 380.0350036621094 378.40863037109375 347.35595703125 352.5350646972656 C 388.5635681152344 338.30352783203125 328.4058532714844 330.153564453125 281.0706481933594 312.0823669433594 C 237.81619262695312 290.4031982421875 304.7792053222656 222.1409454345703 348.7137145996094 287.96148681640625 C 338.2078552246094 303.5034484863281 364.97991943359375 267.0972900390625 387.7835693359375 332.9245910644531"/>
    <path stroke-width="0" fill="rgb(252, 194, 63)" opacity="0.9687341" stroke="rgb(133, 105, 67)" stroke-opacity="1.0" stroke-linecap="round" stroke-linejoin="round" d="M 314.0273742675781 94.62178039550781 C 316.8329772949219 243.2610626220703 145.733642578125 256.09576416015625 235.3917236328125 72.20970153808594 C 174.2401885986328 162.25677490234375 162.57623291015625 254.72727966308594 188.79074096679688 117.4081802368164 C 223.2727813720703 51.48823547363281 219.3308563232422 65.81290435791016 235.71749877929688 64.0103530883789 C 252.2638397216797 112.38424682617188 227.8674774169922 133.8424530029297 314.0273742675781 94.62178039550781"/>
    <path stroke-width="0" fill="rgb(232, 157, 31)" opacity="0.92361337" stroke="rgb(116, 144, 4)" stroke-opacity="1.0" stroke-linecap="round" stroke-linejoin="round" d="M 301.5075378417969 320.383544921875 C 317.8748779296875 323.2177429199219 389.56524658203125 337.8978271484375 207.9467010498047 301.8980712890625 C 197.27503967285156 293.23638916015625 152.49705505371094 426.0785827636719 160.54327392578125 250.08924865722656 C 230.74081420898438 -31.459096908569336 142.5209197998047 240.46900939941406 260.3115234375 240.78555297851562 C 295.6463928222656 256.9105224609375 257.3110656738281 150.53005981445312 301.5075378417969 320.383544921875"/>
    <path stroke-width="0" fill="rgb(248, 247, 245)" opacity="0.94720906" stroke="rgb(156, 157, 240)" stroke-opacity="1.0" stroke-linecap="round" stroke-linejoin="round" d="M 228.58096313476562 206.4932098388672 C 305.4532775878906 271.16851806640625 176.31134033203125 239.48887634277344 195.96343994140625 195.6602783203125 C 298.44720458984375 316.8691101074219 168.5524139404297 115.9966812133789 234.34597778320312 236.41290283203125 C 181.81527709960938 189.95944213867188 141.42434692382812 121.11040496826172 270.3860168457031 193.9351348876953 C 308.17852783203125 272.5429992675781 167.94598388671875 162.78785705566406 228.58096313476562 206.4932098388672"/>
    <path stroke-width="0" fill="rgb(248, 193, 68)" opacity="0.9833321" stroke="rgb(91, 111, 177)" stroke-opacity="1.0" stroke-linecap="round" stroke-linejoin="round" d="M 175.5787811279297 285.799560546875 C 138.73130798339844 257.624755859375 226.5667724609375 265.1510314941406 187.82708740234375 407.9505615234375 C 93.8830795288086 409.1156311035156 196.86795043945312 418.5814208984375 160.1549072265625 313.4942932128906 C 161.3302001953125 162.3282470703125 186.5403289794922 284.2897644042969 183.77359008789062 136.6637420654297 C 376.19671630859375 48.30522537231445 105.5296630859375 220.1083526611328 175.5787811279297 285.799560546875"/>
    <path stroke-width="0" fill="rgb(247, 196, 79)" opacity="0.9999256" stroke="rgb(170, 171, 53)" stroke-opacity="1.0" stroke-linecap="round" stroke-linejoin="round" d="M 283.38348388671875 320.42816162109375 C 258.4610595703125 402.0776672363281 283.3529968261719 432.90814208984375 273.71533203125 397.1252746582031 C 230.69830322265625 393.38671875 242.52200317382812 433.44256591796875 245.4329071044922 346.83258056640625 C 255.6357879638672 339.1142272949219 233.11306762695312 318.4898376464844 266.7239685058594 272.8146667480469 C 274.2005920410156 203.2620391845703 294.4790344238281 231.2595672607422 283.38348388671875 320.42816162109375"/>
    <path stroke-width="0" fill="rgb(251, 235, 189)" opacity="1.0" stroke="rgb(80, 92, 145)" stroke-opacity="1.0" stroke-linecap="round" stroke-linejoin="round" d="M 158.39266967773438 397.028076171875 C 176.27142333984375 375.6172180175781 142.2560272216797 380.56732177734375 146.7230987548828 408.0339050292969 C 209.48837280273438 406.4841003417969 178.54734802246094 413.9217529296875 191.91339111328125 389.6054992675781 C 137.66671752929688 406.37969970703125 146.5230255126953 379.27294921875 187.36883544921875 401.2791442871094 C 139.55836486816406 368.3101806640625 180.7382049560547 410.6659851074219 158.39266967773438 397.028076171875"/>
    <path stroke-width="0" fill="rgb(6, 5, 10)" opacity="0.98755306" stroke="rgb(252, 26, 53)" stroke-opacity="1.0" stroke-linecap="round" stroke-linejoin="round" d="M 230.1487579345703 153.8157196044922 C 255.00064086914062 171.62283325195312 222.9783172607422 149.9663848876953 255.07254028320312 156.89024353027344 C 251.32054138183594 153.73431396484375 252.4923553466797 154.4005889892578 259.8255615234375 163.91390991210938 C 268.510498046875 160.5436248779297 252.96939086914062 148.85458374023438 256.5283508300781 183.40689086914062 C 244.6859893798828 175.14431762695312 246.05361938476562 172.9032440185547 230.1487579345703 153.8157196044922"/>
    <path stroke-width="0" fill="rgb(255, 176, 25)" opacity="0.87926966" stroke="rgb(166, 64, 118)" stroke-opacity="1.0" stroke-linecap="round" stroke-linejoin="round" d="M 195.8779754638672 335.3282775878906 C 207.358642578125 342.10992431640625 187.7091522216797 345.11712646484375 199.56936645507812 325.6858825683594 C 192.3138427734375 371.8476867675781 220.75172424316406 315.8444519042969 204.74679565429688 355.60821533203125 C 220.3964385986328 359.0907287597656 208.17860412597656 338.164794921875 192.33035278320312 364.1665954589844 C 192.95863342285156 351.0290222167969 194.12112426757812 369.9565124511719 195.8779754638672 335.3282775878906"/>
    <path stroke-width="0" fill="rgb(247, 243, 236)" opacity="0.9719722" stroke="rgb(40, 28, 167)" stroke-opacity="1.0" stroke-linecap="round" stroke-linejoin="round" d="M 275.9381408691406 397.1147155761719 C 279.75634765625 423.8678283691406 259.3195495605469 412.076416015625 259.74566650390625 417.95355224609375 C 260.2765808105469 382.3178405761719 258.82086181640625 403.40606689453125 260.4659729003906 399.0236511230469 C 252.38111877441406 398.0712890625 257.21600341796875 392.3568115234375 255.75865173339844 416.1606750488281 C 223.3094940185547 406.8837890625 245.6868133544922 382.8329772949219 275.9381408691406 397.1147155761719"/>
    <path stroke-width="0" fill="rgb(242, 238, 232)" opacity="0.8761985" stroke="rgb(50, 94, 209)" stroke-opacity="1.0" stroke-linecap="round" stroke-linejoin="round" d="M 191.09706115722656 386.58056640625 C 196.1973114013672 407.8821716308594 180.1983642578125 405.1401672363281 214.1460418701172 396.8722839355469 C 145.3551483154297 416.3462829589844 176.2360382080078 414.173583984375 147.05638122558594 407.082275390625 C 151.2951202392578 374.6375732421875 160.03567504882812 410.7702941894531 160.3871307373047 389.5822448730469 C 120.81591033935547 372.6801452636719 179.00225830078125 403.09796142578125 191.09706115722656 386.58056640625"/>
    <path stroke-width="0" fill="rgb(232, 196, 113)" opacity="0.5374183" stroke="rgb(213, 24, 248)" stroke-opacity="1.0" stroke-linecap="round" stroke-linejoin="round" d="M 157.4511260986328 383.6820373535156 C 152.77783203125 373.0573425292969 167.03720092773438 411.19451904296875 142.43045043945312 417.04254150390625 C 165.2076873779297 408.7887268066406 148.8229522705078 385.1067199707031 154.87225341796875 401.0867614746094 C 150.0150146484375 393.69287109375 156.22457885742188 392.132080078125 155.0647735595703 402.8497314453125 C 151.6791534423828 401.3867492675781 169.01451110839844 379.9819030761719 157.4511260986328 383.6820373535156"/>
    <path stroke-width="0" fill="rgb(27, 20, 18)" opacity="0.95477223" stroke="rgb(249, 154, 188)" stroke-opacity="1.0" stroke-linecap="round" stroke-linejoin="round" d="M 144.39035034179688 412.711181640625 C 140.57296752929688 378.3714904785156 156.47711181640625 402.73876953125 151.17672729492188 385.19146728515625 C 160.93594360351562 379.7702331542969 155.8438720703125 395.6690368652344 161.96827697753906 378.4723815917969 C 162.58001708984375 393.0085144042969 141.7044219970703 386.427001953125 147.5296173095703 386.8869934082031 C 148.5904998779297 423.74853515625 149.51077270507812 408.25140380859375 144.39035034179688 412.711181640625"/>
    <path stroke-width="0" fill="rgb(132, 129, 129)" opacity="1.0" stroke="rgb(72, 30, 75)" stroke-opacity="1.0" stroke-linecap="round" stroke-linejoin="round" d="M 442.8973388671875 621.3689575195312 C -28.96674156188965 435.7297668457031 497.3899841308594 363.4299011230469 514.0655517578125 331.0105285644531 C 263.9459228515625 415.0955505371094 496.1962890625 358.7214050292969 316.2933349609375 257.03387451171875 C 242.17788696289062 260.7566833496094 305.5799560546875 222.96780395507812 296.2478332519531 127.50389099121094 C 356.1859130859375 66.7723388671875 698.04638671875 -17.301050186157227 442.8973388671875 621.3689575195312"/>
    <path stroke-width="0" fill="rgb(248, 230, 206)" opacity="0.999432" stroke="rgb(81, 105, 16)" stroke-opacity="1.0" stroke-linecap="round" stroke-linejoin="round" d="M 194.353271484375 122.28870391845703 C 188.8673095703125 123.2362289428711 197.1417236328125 123.29100036621094 196.25271606445312 116.59868621826172 C 211.6385955810547 110.55581665039062 190.62937927246094 103.45103454589844 206.9401397705078 121.17008209228516 C 187.581298828125 146.97018432617188 193.54873657226562 125.8671875 194.5488739013672 120.1298828125 C 191.22494506835938 131.71482849121094 192.69070434570312 125.85026550292969 194.353271484375 122.28870391845703"/>
    <path stroke-width="0" fill="rgb(252, 185, 24)" opacity="0.6904121" stroke="rgb(144, 67, 133)" stroke-opacity="1.0" stroke-linecap="round" stroke-linejoin="round" d="M 358.7987365722656 350.0920104980469 C 341.1935729980469 363.5220642089844 340.2841491699219 336.54296875 350.330810546875 343.0126953125 C 380.12664794921875 338.8852233886719 344.5323181152344 345.0025939941406 342.3520202636719 376.798828125 C 350.0220947265625 362.6627502441406 363.510009765625 387.8963928222656 353.233642578125 348.989501953125 C 354.65771484375 356.68756103515625 355.71209716796875 351.2411193847656 358.7987365722656 350.0920104980469"/>
    <path stroke-width="0" fill="rgb(158, 94, 51)" opacity="0.7653268" stroke="rgb(146, 236, 81)" stroke-opacity="1.0" stroke-linecap="round" stroke-linejoin="round" d="M 192.4613800048828 81.28673553466797 C 197.4663848876953 110.79637908935547 198.1465301513672 109.36273956298828 194.88885498046875 113.38213348388672 C 197.0845184326172 127.82315826416016 189.69839477539062 114.27423095703125 200.35000610351562 116.31307220458984 C 199.37547302246094 104.72434997558594 197.50033569335938 107.98757934570312 191.8314208984375 108.15311431884766 C 194.07534790039062 95.67243194580078 199.21392822265625 117.7169418334961 192.4613800048828 81.28673553466797"/>
    <path stroke-width="0" fill="rgb(52, 47, 44)" opacity="0.87139624" stroke="rgb(33, 182, 73)" stroke-opacity="1.0" stroke-linecap="round" stroke-linejoin="round" d="M 293.4403381347656 128.90347290039062 C 307.3218994140625 176.4043426513672 294.2630310058594 127.77603912353516 302.84320068359375 137.74217224121094 C 300.3418273925781 139.22348022460938 307.4589538574219 138.69020080566406 301.9800109863281 127.81314849853516 C 288.05670166015625 178.05209350585938 308.967041015625 137.48248291015625 295.7980651855469 170.9081573486328 C 296.9382019042969 116.13797760009766 289.2281494140625 183.873046875 293.4403381347656 128.90347290039062"/>
    <path stroke-width="0" fill="rgb(246, 189, 66)" opacity="0.9913886" stroke="rgb(149, 5, 211)" stroke-opacity="1.0" stroke-linecap="round" stroke-linejoin="round" d="M 269.9599609375 194.67971801757812 C 286.4965515136719 193.67918395996094 269.9145202636719 192.78038024902344 262.25750732421875 187.6966552734375 C 292.6268005371094 179.93650817871094 250.9684600830078 192.8187713623047 241.17431640625 186.22579956054688 C 183.09619140625 146.43565368652344 303.79547119140625 183.2388153076172 297.6833801269531 170.74232482910156 C 287.02850341796875 201.14593505859375 315.4605407714844 196.38169860839844 269.9599609375 194.67971801757812"/>
    <path stroke-width="0" fill="rgb(24, 4, 0)" opacity="0.6799182" stroke="rgb(172, 68, 187)" stroke-opacity="1.0" stroke-linecap="round" stroke-linejoin="round" d="M 305.01593017578125 106.79252624511719 C 295.1426696777344 99.28358459472656 339.0452880859375 76.12991333007812 295.7795715332031 135.02719116210938 C 333.72088623046875 97.36480712890625 326.2352294921875 80.76375579833984 280.0433654785156 112.76527404785156 C 267.076171875 108.58434295654297 354.7100830078125 74.20752716064453 278.6934509277344 117.50486755371094 C 284.789794921875 131.12420654296875 271.5423278808594 119.7030258178711 305.01593017578125 106.79252624511719"/>
    <path stroke-width="0" fill="rgb(33, 30, 21)" opacity="0.7432418" stroke="rgb(63, 146, 150)" stroke-opacity="1.0" stroke-linecap="round" stroke-linejoin="round" d="M 296.93695068359375 103.84683990478516 C 291.02685546875 105.22412872314453 308.80230712890625 93.34352111816406 296.16552734375 95.61978912353516 C 318.4093322753906 95.03089141845703 304.68988037109375 102.52657318115234 307.2629089355469 92.77055358886719 C 301.853759765625 115.42041778564453 328.15533447265625 97.87596893310547 292.4897766113281 100.20543670654297 C 288.0423278808594 118.77494812011719 240.2113800048828 114.26051330566406 296.93695068359375 103.84683990478516"/>
    <path stroke-width="0" fill="rgb(0, 0, 0)" opacity="0.8150992" stroke="rgb(56, 242, 114)" stroke-opacity="1.0" stroke-linecap="round" stroke-linejoin="round" d="M 180.00364685058594 153.68829345703125 C 179.29444885253906 132.73484802246094 183.96212768554688 133.45962524414062 182.30442810058594 142.82110595703125 C 202.61532592773438 84.89423370361328 178.38465881347656 110.22676086425781 184.84584045410156 157.1385040283203 C 168.99237060546875 160.68190002441406 176.3256378173828 182.2982940673828 183.3479766845703 170.88169860839844 C 170.54833984375 176.05491638183594 184.71609497070312 180.6863555908203 180.00364685058594 153.68829345703125"/>
    <path stroke-width="0" fill="rgb(14, 0, 0)" opacity="0.9269481" stroke="rgb(178, 75, 207)" stroke-opacity="1.0" stroke-linecap="round" stroke-linejoin="round" d="M 221.2321014404297 89.21192169189453 C 232.87245178222656 80.09846496582031 224.4837646484375 79.54206085205078 227.60092163085938 108.72806549072266 C 182.26344299316406 153.6653594970703 214.33177185058594 107.7230453491211 224.92919921875 91.36509704589844 C 214.9656982421875 127.60650634765625 208.38136291503906 96.91018676757812 215.0947723388672 103.15263366699219 C 232.8082733154297 90.20125579833984 205.15594482421875 111.96504974365234 221.2321014404297 89.21192169189453"/>
    <path stroke-width="0" fill="rgb(4, 5, 10)" opacity="0.950364" stroke="rgb(224, 148, 224)" stroke-opacity="1.0" stroke-linecap="round" stroke-linejoin="round" d="M 286.3450012207031 224.4031982421875 C 283.29742431640625 213.44146728515625 273.48443603515625 222.59646606445312 296.3020324707031 206.37376403808594 C 296.78729248046875 190.81805419921875 278.6126403808594 210.08802795410156 272.25579833984375 198.84214782714844 C 289.9759216308594 185.85488891601562 268.26080322265625 219.07366943359375 275.50689697265625 195.71664428710938 C 275.37701416015625 220.81407165527344 278.0449523925781 209.2751007080078 286.3450012207031 224.4031982421875"/>
    <path stroke-width="0" fill="rgb(18, 11, 4)" opacity="0.8281046" stroke="rgb(184, 127, 243)" stroke-opacity="1.0" stroke-linecap="round" stroke-linejoin="round" d="M 360.74407958984375 376.3323669433594 C 352.89056396484375 345.7042236328125 359.2734069824219 381.9966125488281 379.728271484375 369.3435363769531 C 361.0955505371094 363.7242126464844 371.9237060546875 375.60870361328125 350.17626953125 350.80535888671875 C 364.0671081542969 370.1934509277344 345.8853759765625 392.4765625 360.573974609375 387.79034423828125 C 361.8929748535156 382.1462707519531 346.0841064453125 384.45782470703125 360.74407958984375 376.3323669433594"/>
    <path stroke-width="0" fill="rgb(15, 15, 19)" opacity="0.8326715" stroke="rgb(108, 154, 4)" stroke-opacity="1.0" stroke-linecap="round" stroke-linejoin="round" d="M 238.47567749023438 413.6435546875 C 249.2035369873047 381.0791320800781 220.05557250976562 426.0423889160156 281.2962646484375 413.8165588378906 C 249.11167907714844 404.7630920410156 295.5182189941406 434.24749755859375 274.9844665527344 389.3157958984375 C 281.64178466796875 432.629638671875 263.4247131347656 409.40478515625 269.1106872558594 420.3175964355469 C 209.52005004882812 417.48406982421875 259.944091796875 393.32513427734375 238.47567749023438 413.6435546875"/>
    <path stroke-width="0" fill="rgb(135, 134, 141)" opacity="0.7956064" stroke="rgb(168, 73, 157)" stroke-opacity="1.0" stroke-linecap="round" stroke-linejoin="round" d="M 150.28231811523438 356.0620422363281 C 195.86001586914062 383.6800842285156 141.6410675048828 380.39031982421875 172.46673583984375 377.0391540527344 C 177.95138549804688 376.1568298339844 165.57801818847656 379.2496643066406 159.00389099121094 346.05096435546875 C 145.81239318847656 384.60711669921875 155.24974060058594 365.0989685058594 158.42758178710938 343.398681640625 C 174.7578582763672 360.8581848144531 168.1830291748047 374.86474609375 150.28231811523438 356.0620422363281"/>
    <path stroke-width="0" fill="rgb(43, 1, 0)" opacity="0.64580387" stroke="rgb(34, 76, 145)" stroke-opacity="1.0" stroke-linecap="round" stroke-linejoin="round" d="M 234.05783081054688 113.25979614257812 C 199.3966827392578 118.86520385742188 215.17897033691406 93.27666473388672 224.29562377929688 105.20974731445312 C 188.28355407714844 68.19252014160156 219.3445281982422 76.98280334472656 192.62127685546875 101.9892578125 C 186.93971252441406 147.58132934570312 192.9537811279297 70.58501434326172 221.67054748535156 104.10924530029297 C 228.9237060546875 77.13369750976562 170.22979736328125 84.57029724121094 234.05783081054688 113.25979614257812"/>
    <path stroke-width="0" fill="rgb(17, 16, 23)" opacity="0.88242465" stroke="rgb(146, 166, 166)" stroke-opacity="1.0" stroke-linecap="round" stroke-linejoin="round" d="M 176.8656768798828 204.60263061523438 C 176.07334899902344 199.94662475585938 175.28526306152344 199.1657257080078 176.65142822265625 197.12576293945312 C 165.66294860839844 209.39389038085938 178.0546112060547 149.72467041015625 175.89932250976562 200.5919647216797 C 166.94744873046875 205.83389282226562 176.08815002441406 193.282470703125 170.5950164794922 202.70407104492188 C 180.88356018066406 200.08546447753906 174.75985717773438 204.3623046875 176.8656768798828 204.60263061523438"/>
    <path stroke-width="0" fill="rgb(6, 0, 0)" opacity="0.6143014" stroke="rgb(228, 93, 111)" stroke-opacity="1.0" stroke-linecap="round" stroke-linejoin="round" d="M 234.06817626953125 112.76094818115234 C 245.55897521972656 97.30354309082031 234.9388885498047 55.61677551269531 245.83779907226562 86.80301666259766 C 218.32972717285156 122.02902221679688 228.92391967773438 134.78152465820312 219.4547882080078 102.80088806152344 C 234.9287567138672 92.9869384765625 287.6163635253906 140.86537170410156 264.896484375 112.29940032958984 C 231.86553955078125 111.0456314086914 262.955810546875 88.42188262939453 234.06817626953125 112.76094818115234"/>
    <path stroke-width="0" fill="rgb(227, 167, 170)" opacity="0.64093375" stroke="rgb(205, 179, 25)" stroke-opacity="1.0" stroke-linecap="round" stroke-linejoin="round" d="M 202.03785705566406 106.54826354980469 C 241.5668487548828 92.81807708740234 188.6281280517578 135.279541015625 208.56710815429688 99.13328552246094 C 245.67115783691406 108.5115737915039 224.95681762695312 55.02961349487305 214.72793579101562 95.82342529296875 C 176.76719665527344 66.808837890625 221.72457885742188 86.2105484008789 215.72860717773438 120.293212890625 C 253.0235137939453 77.87260437011719 216.57177734375 103.77827453613281 202.03785705566406 106.54826354980469"/>
    <path stroke-width="0" fill="rgb(12, 27, 46)" opacity="0.81181735" stroke="rgb(182, 254, 38)" stroke-opacity="1.0" stroke-linecap="round" stroke-linejoin="round" d="M 291.93182373046875 203.941650390625 C 287.8470764160156 210.2169952392578 274.2244873046875 200.85888671875 286.5668640136719 204.90374755859375 C 287.4621276855469 204.3061065673828 272.6648254394531 191.1435089111328 273.935302734375 199.8970489501953 C 274.9115905761719 202.6063995361328 279.4559020996094 199.83737182617188 284.901611328125 208.40151977539062 C 278.487060546875 201.0863494873047 289.7454528808594 209.40921020507812 291.93182373046875 203.941650390625"/>
    <path stroke-width="0" fill="rgb(141, 112, 42)" opacity="0.83471763" stroke="rgb(41, 156, 31)" stroke-opacity="1.0" stroke-linecap="round" stroke-linejoin="round" d="M 261.9566345214844 181.01390075683594 C 259.9758605957031 171.1370086669922 268.8676452636719 140.2198028564453 259.3594055175781 146.76722717285156 C 280.37066650390625 146.18743896484375 259.0733947753906 164.71905517578125 251.80331420898438 170.16062927246094 C 254.4607391357422 180.4943084716797 260.6843566894531 153.0895538330078 264.3236083984375 157.93270874023438 C 266.6200866699219 154.86233520507812 261.00653076171875 154.5026092529297 261.9566345214844 181.01390075683594"/>
    <path stroke-width="0" fill="rgb(253, 228, 178)" opacity="0.67237824" stroke="rgb(205, 145, 103)" stroke-opacity="1.0" stroke-linecap="round" stroke-linejoin="round" d="M 292.0113525390625 144.86167907714844 C 280.6048583984375 117.91251373291016 254.04119873046875 142.42300415039062 285.98419189453125 129.55117797851562 C 291.0778503417969 154.44561767578125 273.08880615234375 143.115966796875 289.9739990234375 144.8994903564453 C 295.05242919921875 149.7060089111328 297.0033874511719 109.44251251220703 301.42462158203125 142.90541076660156 C 272.1342468261719 136.61627197265625 292.27935791015625 146.09510803222656 292.0113525390625 144.86167907714844"/>
    <path stroke-width="0" fill="rgb(69, 77, 107)" opacity="0.7534471" stroke="rgb(177, 115, 184)" stroke-opacity="1.0" stroke-linecap="round" stroke-linejoin="round" d="M 152.13780212402344 193.4595184326172 C 167.4036407470703 202.92657470703125 170.14732360839844 197.61073303222656 167.1343231201172 210.76718139648438 C 171.06565856933594 218.61009216308594 157.87852478027344 219.5648651123047 166.9747314453125 229.43032836914062 C 166.5131378173828 212.76910400390625 167.8009490966797 218.11639404296875 165.1181182861328 219.3326416015625 C 176.74075317382812 205.79103088378906 173.890625 203.9755096435547 152.13780212402344 193.4595184326172"/>
    <path stroke-width="0" fill="rgb(155, 181, 216)" opacity="0.7111843" stroke="rgb(248, 218, 2)" stroke-opacity="1.0" stroke-linecap="round" stroke-linejoin="round" d="M 285.8815002441406 216.93490600585938 C 295.7395935058594 192.9208984375 314.9676513671875 221.74984741210938 242.39834594726562 236.02183532714844 C 249.68533325195312 246.19290161132812 243.1804962158203 227.4479217529297 262.62530517578125 229.6812744140625 C 282.50665283203125 220.3065185546875 281.79022216796875 243.4800567626953 258.8328552246094 239.57215881347656 C 232.21151733398438 219.822265625 291.88531494140625 204.72970581054688 285.8815002441406 216.93490600585938"/>
    <path stroke-width="0" fill="rgb(23, 49, 97)" opacity="0.6492712" stroke="rgb(186, 43, 132)" stroke-opacity="1.0" stroke-linecap="round" stroke-linejoin="round" d="M 214.97293090820312 202.3606719970703 C 226.2501220703125 188.54920959472656 216.40078735351562 230.15419006347656 226.50921630859375 211.69900512695312 C 236.6190643310547 217.23110961914062 249.12571716308594 203.22750854492188 220.77427673339844 216.29173278808594 C 218.58267211914062 193.68885803222656 224.6436004638672 197.30287170410156 223.5160369873047 209.45359802246094 C 213.9728546142578 214.18270874023438 241.75230407714844 229.04566955566406 214.97293090820312 202.3606719970703"/>
    <path stroke-width="0" fill="rgb(0, 0, 16)" opacity="0.7971454" stroke="rgb(50, 4, 202)" stroke-opacity="1.0" stroke-linecap="round" stroke-linejoin="round" d="M 214.9530792236328 199.08705139160156 C 232.5382843017578 213.41275024414062 221.8893280029297 214.02947998046875 224.13600158691406 201.83787536621094 C 213.6693878173828 190.7640380859375 219.12413024902344 227.5590362548828 242.93894958496094 238.4835662841797 C 230.08309936523438 221.56997680664062 230.98062133789062 226.77317810058594 231.8821563720703 238.42965698242188 C 234.3458709716797 226.2539520263672 230.74978637695312 211.06292724609375 214.9530792236328 199.08705139160156"/>
    <path stroke-width="0" fill="rgb(175, 99, 0)" opacity="0.5937348" stroke="rgb(88, 236, 179)" stroke-opacity="1.0" stroke-linecap="round" stroke-linejoin="round" d="M 288.16046142578125 262.3992614746094 C 276.4666748046875 255.25814819335938 292.1862487792969 248.79324340820312 286.4215393066406 260.01788330078125 C 289.5744934082031 262.0035095214844 276.102783203125 259.881103515625 290.90863037109375 265.319580078125 C 330.8309326171875 265.4345397949219 346.07720947265625 260.9478454589844 280.1128845214844 259.0450134277344 C 302.76727294921875 257.4344177246094 302.243896484375 338.9122619628906 288.16046142578125 262.3992614746094"/>
    <path stroke-width="0" fill="rgb(26, 19, 19)" opacity="0.65346843" stroke="rgb(41, 158, 147)" stroke-opacity="1.0" stroke-linecap="round" stroke-linejoin="round" d="M 228.8035125732422 204.9864959716797 C 236.10543823242188 214.69210815429688 221.63648986816406 207.2344970703125 280.6788330078125 228.6542205810547 C 287.8267822265625 212.01300048828125 238.52096557617188 227.02073669433594 251.4105224609375 232.87258911132812 C 215.53282165527344 203.5302276611328 256.55364990234375 214.34869384765625 231.4291534423828 211.45408630371094 C 236.13433837890625 214.71530151367188 240.8891143798828 209.44439697265625 228.8035125732422 204.9864959716797"/>
    <path stroke-width="0" fill="rgb(34, 25, 22)" opacity="0.96003586" stroke="rgb(238, 156, 136)" stroke-opacity="1.0" stroke-linecap="round" stroke-linejoin="round" d="M 304.8437194824219 192.9675750732422 C 292.091796875 175.7221221923828 268.56695556640625 167.4724884033203 286.2994079589844 160.2327117919922 C 302.6404724121094 167.42027282714844 286.6852111816406 152.65194702148438 293.3985595703125 166.8519287109375 C 285.3943786621094 171.27276611328125 287.0786437988281 175.74374389648438 307.0087585449219 211.04701232910156 C 284.0977783203125 178.10975646972656 291.4356689453125 173.9425048828125 304.8437194824219 192.9675750732422"/>
    <path stroke-width="0" fill="rgb(47, 36, 16)" opacity="0.7304539" stroke="rgb(186, 79, 101)" stroke-opacity="1.0" stroke-linecap="round" stroke-linejoin="round" d="M 166.39671325683594 217.6462860107422 C 166.6268310546875 213.7707061767578 173.51113891601562 220.01173400878906 171.18260192871094 213.87611389160156 C 172.44479370117188 224.58644104003906 175.60052490234375 176.12664794921875 160.7620391845703 241.92893981933594 C 156.76622009277344 232.79869079589844 169.4195556640625 228.8186798095703 163.57977294921875 230.9225616455078 C 168.51138305664062 223.67674255371094 171.7898712158203 245.5022735595703 166.39671325683594 217.6462860107422"/>
    <path stroke-width="0" fill="rgb(230, 160, 41)" opacity="0.8468472" stroke="rgb(47, 240, 188)" stroke-opacity="1.0" stroke-linecap="round" stroke-linejoin="round" d="M 275.91290283203125 288.5982666015625 C 245.41473388671875 282.5941162109375 198.32467651367188 288.97113037109375 239.9549102783203 279.15057373046875 C 237.1300811767578 278.0237731933594 231.24534606933594 275.4072265625 231.85470581054688 284.85308837890625 C 225.2818603515625 265.4384765625 237.65536499023438 284.7829284667969 234.94265747070312 283.8094787597656 C 230.6055450439453 273.8096618652344 202.7916259765625 291.5203857421875 275.91290283203125 288.5982666015625"/>
    <path stroke-width="0" fill="rgb(9, 9, 6)" opacity="0.9158975" stroke="rgb(57, 64, 14)" stroke-opacity="1.0" stroke-linecap="round" stroke-linejoin="round" d="M 156.1502685546875 270.07269287109375 C 158.0193328857422 266.7688293457031 155.61082458496094 280.44915771484375 155.90609741210938 254.6706085205078 C 174.91400146484375 227.64105224609375 155.16082763671875 207.63479614257812 155.89268493652344 311.66693115234375 C 163.1753387451172 322.8029479980469 158.1466522216797 316.32562255859375 160.4614715576172 238.4446563720703 C 153.9150848388672 292.559326171875 157.92457580566406 277.5943603515625 156.1502685546875 270.07269287109375"/>
    <path stroke-width="0" fill="rgb(14, 6, 3)" opacity="0.6662726" stroke="rgb(79, 177, 96)" stroke-opacity="1.0" stroke-linecap="round" stroke-linejoin="round" d="M 164.24281311035156 220.0366668701172 C 170.6209259033203 216.50436401367188 165.58262634277344 232.00555419921875 171.17266845703125 217.18722534179688 C 160.99798583984375 201.73634338378906 186.2706756591797 198.050537109375 160.48687744140625 239.4468536376953 C 161.8583221435547 252.08969116210938 164.06239318847656 239.97146606445312 165.21217346191406 241.3999481201172 C 164.09999084472656 241.2450408935547 163.94876098632812 261.415771484375 164.24281311035156 220.0366668701172"/>
    <path stroke-width="0" fill="rgb(246, 249, 254)" opacity="0.78686357" stroke="rgb(6, 17, 173)" stroke-opacity="1.0" stroke-linecap="round" stroke-linejoin="round" d="M 347.322509765625 373.89495849609375 C 351.9498291015625 402.9646911621094 379.6579895019531 363.14190673828125 334.64697265625 378.455078125 C 369.4671936035156 323.4029846191406 310.4165954589844 367.15875244140625 324.6158447265625 345.2747802734375 C 289.48333740234375 328.2849426269531 352.95147705078125 315.9595031738281 352.159423828125 343.1566467285156 C 315.0538330078125 350.0645751953125 325.5958557128906 384.9604187011719 347.322509765625 373.89495849609375"/>
    <path stroke-width="0" fill="rgb(49, 45, 27)" opacity="0.8532096" stroke="rgb(136, 228, 252)" stroke-opacity="1.0" stroke-linecap="round" stroke-linejoin="round" d="M 316.24774169921875 258.85333251953125 C 410.16094970703125 325.23773193359375 381.0865783691406 309.0189514160156 352.27734375 288.42108154296875 C 348.10211181640625 282.8028869628906 361.1224670410156 284.1868896484375 351.08990478515625 293.3894958496094 C 361.6878356933594 389.9110412597656 360.7989501953125 365.3620910644531 355.40948486328125 293.5590515136719 C 345.31597900390625 300.99407958984375 353.09735107421875 267.6450500488281 316.24774169921875 258.85333251953125"/>
    <path stroke-width="0" fill="rgb(14, 21, 26)" opacity="0.83737534" stroke="rgb(169, 67, 5)" stroke-opacity="1.0" stroke-linecap="round" stroke-linejoin="round" d="M 284.0367431640625 281.11859130859375 C 285.9150695800781 199.79168701171875 276.4680480957031 259.5987548828125 281.67340087890625 247.26303100585938 C 284.1225280761719 254.69879150390625 290.597900390625 256.8347473144531 288.22869873046875 250.67449951171875 C 287.9802551269531 259.1878356933594 288.73480224609375 265.97412109375 283.39764404296875 259.0056457519531 C 294.7093505859375 270.6184997558594 290.5020446777344 241.600830078125 284.0367431640625 281.11859130859375"/>
    <path stroke-width="0" fill="rgb(0, 0, 0)" opacity="0.7215413" stroke="rgb(81, 97, 150)" stroke-opacity="1.0" stroke-linecap="round" stroke-linejoin="round" d="M 253.977294921875 222.900146484375 C 240.48329162597656 204.44215393066406 213.84750366210938 211.96510314941406 271.4781494140625 229.28729248046875 C 265.85894775390625 215.29116821289062 233.06333923339844 216.3662872314453 252.6612091064453 239.3214111328125 C 275.723876953125 252.259033203125 276.0462646484375 235.4701385498047 261.7486267089844 240.3036651611328 C 256.0909729003906 230.0856170654297 250.30226135253906 243.3612060546875 253.977294921875 222.900146484375"/>
    <path stroke-width="0" fill="rgb(250, 233, 214)" opacity="0.66405445" stroke="rgb(160, 222, 69)" stroke-opacity="1.0" stroke-linecap="round" stroke-linejoin="round" d="M 173.4943389892578 386.39215087890625 C 198.57308959960938 371.6849670410156 153.8133087158203 400.5013427734375 162.77044677734375 369.2387390136719 C 161.7166290283203 398.3507080078125 165.49330139160156 382.9460144042969 158.21714782714844 394.3387756347656 C 176.12875366210938 362.3660888671875 157.2165069580078 355.2638244628906 165.91421508789062 351.9872131347656 C 165.74478149414062 374.3917236328125 185.21246337890625 345.5311279296875 173.4943389892578 386.39215087890625"/>
    <path stroke-width="0" fill="rgb(127, 124, 124)" opacity="0.97672546" stroke="rgb(47, 242, 175)" stroke-opacity="1.0" stroke-linecap="round" stroke-linejoin="round" d="M 322.4568786621094 354.8899230957031 C 320.3952941894531 365.5788879394531 324.2725524902344 343.6397705078125 318.852294921875 359.1382751464844 C 310.12359619140625 363.37811279296875 301.165771484375 326.85968017578125 294.287109375 376.1208801269531 C 340.05487060546875 358.2178649902344 322.5279541015625 332.8312072753906 284.5244445800781 319.8009033203125 C 339.6536865234375 344.9261169433594 310.760009765625 334.1513366699219 322.4568786621094 354.8899230957031"/>
    <path stroke-width="0" fill="rgb(20, 20, 10)" opacity="0.6918708" stroke="rgb(241, 186, 64)" stroke-opacity="1.0" stroke-linecap="round" stroke-linejoin="round" d="M 283.7330017089844 264.5501708984375 C 283.39532470703125 245.8426513671875 287.6309509277344 271.6698303222656 308.0487976074219 257.6484069824219 C 304.6380920410156 260.2857971191406 292.6740417480469 260.0882263183594 316.22369384765625 260.0811767578125 C 333.56903076171875 254.92684936523438 384.178466796875 329.0595397949219 325.6297607421875 262.2110595703125 C 313.4183349609375 271.67681884765625 317.61273193359375 247.46923828125 283.7330017089844 264.5501708984375"/>
    <path stroke-width="0" fill="rgb(14, 6, 0)" opacity="0.8056652" stroke="rgb(132, 6, 52)" stroke-opacity="1.0" stroke-linecap="round" stroke-linejoin="round" d="M 201.56761169433594 105.08272552490234 C 205.04168701171875 98.85484313964844 193.55099487304688 81.14482116699219 203.28826904296875 90.37077331542969 C 200.99642944335938 90.3022689819336 216.6222686767578 60.766357421875 186.53477478027344 117.3123550415039 C 221.89352416992188 66.96449279785156 212.37582397460938 61.09403610229492 236.2537078857422 65.00640869140625 C 220.05526733398438 43.565738677978516 196.93496704101562 89.0341567993164 201.56761169433594 105.08272552490234"/>
    <path stroke-width="0" fill="rgb(11, 12, 20)" opacity="0.8482559" stroke="rgb(95, 118, 70)" stroke-opacity="1.0" stroke-linecap="round" stroke-linejoin="round" d="M 165.16561889648438 375.9989929199219 C 164.21810913085938 382.7312927246094 160.76974487304688 376.46466064453125 164.27737426757812 379.8045959472656 C 154.00570678710938 377.2762145996094 165.007080078125 395.5694580078125 164.91488647460938 375.2563171386719 C 168.55746459960938 399.22039794921875 172.46444702148438 328.9683532714844 156.06097412109375 311.2933349609375 C 173.53103637695312 361.0152282714844 159.98211669921875 386.1817321777344 165.16561889648438 375.9989929199219"/>
    <path stroke-width="0" fill="rgb(20, 22, 31)" opacity="0.87419605" stroke="rgb(220, 29, 131)" stroke-opacity="1.0" stroke-linecap="round" stroke-linejoin="round" d="M 323.8584899902344 352.0611877441406 C 328.32159423828125 352.510498046875 312.4065246582031 345.6519775390625 323.9010314941406 344.89520263671875 C 322.1760559082031 371.6412658691406 330.37774658203125 321.1212158203125 327.2525329589844 387.68218994140625 C 336.88763427734375 394.86236572265625 328.5474548339844 370.675048828125 322.1190490722656 368.6856689453125 C 334.75372314453125 370.568115234375 322.965576171875 395.75262451171875 323.8584899902344 352.0611877441406"/>
    <path stroke-width="0" fill="rgb(18, 18, 11)" opacity="0.81528664" stroke="rgb(182, 100, 144)" stroke-opacity="1.0" stroke-linecap="round" stroke-linejoin="round" d="M 303.5662536621094 190.71119689941406 C 300.8100891113281 191.59671020507812 312.2426452636719 219.98477172851562 303.4951171875 221.02577209472656 C 300.2802734375 192.6866912841797 319.6324768066406 203.35171508789062 297.8661804199219 221.26010131835938 C 291.3487548828125 223.22174072265625 326.9579772949219 232.2877197265625 269.59564208984375 228.13002014160156 C 285.3359069824219 221.52980041503906 306.96929931640625 214.7158660888672 303.5662536621094 190.71119689941406"/>
    <path stroke-width="0" fill="rgb(248, 190, 68)" opacity="0.72055686" stroke="rgb(36, 124, 90)" stroke-opacity="1.0" stroke-linecap="round" stroke-linejoin="round" d="M 348.2491760253906 348.5996398925781 C 364.7033996582031 353.5680236816406 354.1236877441406 357.0238952636719 352.5898742675781 344.453125 C 357.07464599609375 349.2502136230469 346.62335205078125 348.963623046875 326.9558410644531 349.3274841308594 C 342.19287109375 348.99066162109375 402.9970397949219 345.7806091308594 361.55987548828125 357.95086669921875 C 387.6236572265625 355.0914306640625 369.7275695800781 375.0658264160156 348.2491760253906 348.5996398925781"/>
    <path stroke-width="0" fill="rgb(11, 10, 14)" opacity="0.88228655" stroke="rgb(195, 190, 230)" stroke-opacity="1.0" stroke-linecap="round" stroke-linejoin="round" d="M 199.8175506591797 349.9154357910156 C 211.79434204101562 360.8270263671875 195.90432739257812 346.1829528808594 200.87342834472656 368.8434753417969 C 229.18795776367188 348.101318359375 246.28424072265625 370.8267517089844 213.09107971191406 362.36895751953125 C 194.83743286132812 373.32659912109375 204.84893798828125 363.0038757324219 194.43600463867188 371.8769836425781 C 208.14993286132812 372.5042419433594 188.12745666503906 374.3360900878906 199.8175506591797 349.9154357910156"/>
    <path stroke-width="0" fill="rgb(199, 129, 100)" opacity="0.57331586" stroke="rgb(140, 149, 245)" stroke-opacity="1.0" stroke-linecap="round" stroke-linejoin="round" d="M 220.21994018554688 73.0116958618164 C 227.79083251953125 96.45912170410156 201.57745361328125 91.65386962890625 214.84689331054688 96.32611083984375 C 231.5809783935547 67.05704498291016 208.902099609375 70.62065887451172 181.4456024169922 76.66053009033203 C 201.63369750976562 85.07676696777344 177.51828002929688 100.88542175292969 188.56378173828125 75.0711669921875 C 217.7492218017578 70.0772705078125 247.37974548339844 84.17217254638672 220.21994018554688 73.0116958618164"/>
    <path stroke-width="0" fill="rgb(36, 24, 27)" opacity="0.854086" stroke="rgb(61, 25, 4)" stroke-opacity="1.0" stroke-linecap="round" stroke-linejoin="round" d="M 276.7406005859375 240.63134765625 C 279.9536437988281 230.30209350585938 234.9362335205078 229.17495727539062 268.1458435058594 230.9386444091797 C 270.60479736328125 236.17210388183594 256.2054443359375 222.67852783203125 263.1368103027344 233.05422973632812 C 272.20556640625 230.49441528320312 279.29254150390625 240.71279907226562 257.0288391113281 247.7238311767578 C 271.12664794921875 242.84754943847656 269.1839599609375 239.87384033203125 276.7406005859375 240.63134765625"/>
    <path stroke-width="0" fill="rgb(18, 22, 33)" opacity="0.9375796" stroke="rgb(170, 200, 71)" stroke-opacity="1.0" stroke-linecap="round" stroke-linejoin="round" d="M 244.54454040527344 364.7096252441406 C 228.5425567626953 364.2268981933594 253.37118530273438 351.1639099121094 240.47288513183594 372.50006103515625 C 239.1925506591797 363.02227783203125 224.0089111328125 357.6138610839844 242.7924041748047 369.5467224121094 C 247.92214965820312 418.09442138671875 231.9953155517578 385.1353759765625 244.34906005859375 371.61151123046875 C 234.57073974609375 378.71624755859375 241.5274200439453 374.1775207519531 244.54454040527344 364.7096252441406"/>
    <path stroke-width="0" fill="rgb(78, 82, 104)" opacity="0.80666167" stroke="rgb(16, 123, 249)" stroke-opacity="1.0" stroke-linecap="round" stroke-linejoin="round" d="M 151.11109924316406 243.5065155029297 C 145.78565979003906 252.2093505859375 150.2163848876953 251.14651489257812 146.37954711914062 249.7883758544922 C 157.94488525390625 254.5221710205078 141.55516052246094 251.94155883789062 147.63206481933594 280.1241149902344 C 142.94998168945312 267.50091552734375 148.0845489501953 254.76129150390625 151.0887451171875 252.5546875 C 139.02447509765625 249.70266723632812 165.03663635253906 232.6088409423828 151.11109924316406 243.5065155029297"/>
    <path stroke-width="0" fill="rgb(248, 180, 50)" opacity="0.8632545" stroke="rgb(86, 245, 59)" stroke-opacity="1.0" stroke-linecap="round" stroke-linejoin="round" d="M 276.4268493652344 315.4272155761719 C 278.82110595703125 316.45404052734375 269.4359130859375 335.3966369628906 331.4884033203125 276.3968200683594 C 262.0229797363281 226.70916748046875 289.80548095703125 322.937744140625 325.7853088378906 290.7073974609375 C 311.425537109375 349.55523681640625 274.41845703125 302.12384033203125 290.3172302246094 293.2826232910156 C 318.1022644042969 283.2589416503906 289.38427734375 347.1786804199219 276.4268493652344 315.4272155761719"/>
    <path stroke-width="0" fill="rgb(248, 245, 231)" opacity="0.5222457" stroke="rgb(240, 203, 160)" stroke-opacity="1.0" stroke-linecap="round" stroke-linejoin="round" d="M 258.7563171386719 186.56541442871094 C 261.4072265625 202.2260284423828 267.1729431152344 213.99472045898438 296.1736755371094 236.79200744628906 C 300.81768798828125 216.57733154296875 308.9496154785156 217.45388793945312 305.8892822265625 210.7864532470703 C 308.5599060058594 258.099365234375 268.1729431152344 232.09463500976562 289.6812744140625 226.4464874267578 C 256.1264343261719 198.35716247558594 265.26080322265625 218.9932098388672 258.7563171386719 186.56541442871094"/>
    <path stroke-width="0" fill="rgb(84, 80, 81)" opacity="0.90498143" stroke="rgb(74, 216, 157)" stroke-opacity="1.0" stroke-linecap="round" stroke-linejoin="round" d="M 164.0046844482422 424.0060729980469 C 166.9095001220703 407.757568359375 145.38800048828125 421.65606689453125 154.34793090820312 413.52655029296875 C 196.51124572753906 408.37298583984375 155.1076202392578 422.80218505859375 163.74525451660156 415.9837341308594 C 162.77536010742188 425.90606689453125 172.56088256835938 425.8770446777344 166.1673583984375 424.1600341796875 C 139.60797119140625 434.9037780761719 151.4566650390625 430.1302490234375 164.0046844482422 424.0060729980469"/>
    <path stroke-width="0" fill="rgb(54, 35, 22)" opacity="0.8730712" stroke="rgb(88, 37, 250)" stroke-opacity="1.0" stroke-linecap="round" stroke-linejoin="round" d="M 273.3673095703125 348.6194763183594 C 296.00146484375 314.41473388671875 281.4078063964844 315.8451232910156 286.19244384765625 325.0228576660156 C 291.6064758300781 327.6064453125 285.5837097167969 259.8266906738281 283.3468322753906 316.0151672363281 C 295.390380859375 339.5921630859375 289.30584716796875 304.85345458984375 317.82977294921875 322.9390563964844 C 255.479736328125 301.837158203125 294.5896301269531 368.964599609375 273.3673095703125 348.6194763183594"/>
    <path stroke-width="0" fill="rgb(129, 143, 156)" opacity="0.4223851" stroke="rgb(126, 163, 93)" stroke-opacity="1.0" stroke-linecap="round" stroke-linejoin="round" d="M 202.37501525878906 71.53060150146484 C 211.29653930664062 64.17880249023438 219.43130493164062 72.62405395507812 202.8585205078125 65.93588256835938 C 208.37222290039062 60.267276763916016 212.9027557373047 34.36349105834961 208.13685607910156 61.59229278564453 C 207.54823303222656 68.82246398925781 226.83526611328125 57.053260803222656 229.75079345703125 56.476627349853516 C 199.39659118652344 55.01398849487305 219.81503295898438 81.97380065917969 202.37501525878906 71.53060150146484"/>
    <path stroke-width="0" fill="rgb(130, 128, 128)" opacity="0.8648985" stroke="rgb(209, 48, 130)" stroke-opacity="1.0" stroke-linecap="round" stroke-linejoin="round" d="M 230.8780975341797 48.58041000366211 C 195.03013610839844 51.79678726196289 180.7464599609375 50.55024719238281 184.4364776611328 68.46865844726562 C 164.66624450683594 98.98037719726562 160.96458435058594 109.16693115234375 181.12083435058594 104.4277114868164 C 231.98236083984375 60.356571197509766 209.4158477783203 20.58208465576172 177.99464416503906 35.412818908691406 C 148.40159606933594 84.30319213867188 190.6881866455078 73.75074768066406 230.8780975341797 48.58041000366211"/>
    <path stroke-width="0" fill="rgb(246, 140, 38)" opacity="0.3560617" stroke="rgb(24, 219, 248)" stroke-opacity="1.0" stroke-linecap="round" stroke-linejoin="round" d="M 230.9864959716797 106.47477722167969 C 225.90150451660156 89.71908569335938 223.30487060546875 82.30642700195312 236.81594848632812 85.02886199951172 C 215.3619384765625 65.9985580444336 234.49942016601562 72.72468566894531 229.47691345214844 89.02542877197266 C 233.56373596191406 91.73816680908203 231.66392517089844 86.8625717163086 235.02301025390625 79.53987121582031 C 233.48736572265625 83.44631958007812 241.70481872558594 61.9738655090332 230.9864959716797 106.47477722167969"/>
    <path stroke-width="0" fill="rgb(27, 25, 23)" opacity="0.88939416" stroke="rgb(231, 197, 84)" stroke-opacity="1.0" stroke-linecap="round" stroke-linejoin="round" d="M 376.42230224609375 304.8605651855469 C 399.10595703125 327.61737060546875 380.27154541015625 346.5497741699219 392.146240234375 352.8818054199219 C 386.6464538574219 349.6383056640625 390.169677734375 349.94146728515625 391.6696472167969 355.7856140136719 C 394.89056396484375 326.3307189941406 385.3599853515625 329.8348388671875 390.2410888671875 336.4927062988281 C 380.3399963378906 327.990234375 398.3548278808594 353.4955139160156 376.42230224609375 304.8605651855469"/>
    <path stroke-width="0" fill="rgb(255, 157, 65)" opacity="0.37939167" stroke="rgb(103, 59, 33)" stroke-opacity="1.0" stroke-linecap="round" stroke-linejoin="round" d="M 228.8579864501953 67.50049591064453 C 218.4949188232422 68.24455261230469 221.39906311035156 78.10716247558594 234.64491271972656 89.2261734008789 C 240.15907287597656 112.55706024169922 232.4803924560547 122.72171020507812 230.49853515625 117.67367553710938 C 240.35626220703125 115.62008666992188 237.1131134033203 77.75569152832031 216.63116455078125 94.37908172607422 C 213.65904235839844 84.38745880126953 219.2645721435547 84.59488677978516 228.8579864501953 67.50049591064453"/>
    <path stroke-width="0" fill="rgb(191, 120, 39)" opacity="0.86922956" stroke="rgb(185, 2, 196)" stroke-opacity="1.0" stroke-linecap="round" stroke-linejoin="round" d="M 177.71322631835938 100.74730682373047 C 186.5290985107422 81.82437896728516 192.30563354492188 114.05744171142578 202.28590393066406 95.28065490722656 C 209.32240295410156 169.1375274658203 211.13275146484375 79.20821380615234 202.8544464111328 110.25811004638672 C 209.65618896484375 94.82630157470703 173.77845764160156 105.65650177001953 173.24853515625 95.5340576171875 C 195.6891326904297 107.81318664550781 198.1892547607422 82.69215393066406 177.71322631835938 100.74730682373047"/>
    <path stroke-width="0" fill="rgb(91, 65, 40)" opacity="0.78094304" stroke="rgb(20, 22, 171)" stroke-opacity="1.0" stroke-linecap="round" stroke-linejoin="round" d="M 296.76177978515625 117.28148651123047 C 288.9096984863281 122.38080596923828 304.61102294921875 144.0978240966797 299.3553771972656 112.72112274169922 C 298.529296875 128.43603515625 300.3963623046875 125.76058959960938 300.6573181152344 114.58133697509766 C 297.793701171875 120.75273132324219 302.2824401855469 111.50241088867188 302.2569885253906 117.66693878173828 C 294.27581787109375 124.21766662597656 295.29144287109375 120.64002227783203 296.76177978515625 117.28148651123047"/>
    <path stroke-width="0" fill="rgb(249, 228, 191)" opacity="0.96518666" stroke="rgb(107, 142, 219)" stroke-opacity="1.0" stroke-linecap="round" stroke-linejoin="round" d="M 308.3780212402344 339.0290832519531 C 292.4309387207031 347.2057800292969 281.9156799316406 376.3877868652344 304.8691101074219 345.8852844238281 C 311.4382019042969 352.2337341308594 308.0547180175781 342.49078369140625 295.38519287109375 344.7513427734375 C 268.6567687988281 392.3811340332031 289.97222900390625 372.24578857421875 296.4203796386719 366.4696044921875 C 289.0005187988281 375.7010192871094 310.61224365234375 333.154052734375 308.3780212402344 339.0290832519531"/>
    <path stroke-width="0" fill="rgb(176, 120, 41)" opacity="0.7322923" stroke="rgb(68, 33, 14)" stroke-opacity="1.0" stroke-linecap="round" stroke-linejoin="round" d="M 293.95526123046875 123.94126892089844 C 272.4677734375 132.65390014648438 296.44036865234375 118.17613983154297 290.21405029296875 112.1667709350586 C 294.20111083984375 130.70677185058594 292.5418395996094 120.11602783203125 289.19744873046875 118.01408386230469 C 290.29827880859375 117.3127212524414 303.3749084472656 130.65191650390625 305.07867431640625 117.51407623291016 C 289.49932861328125 119.04236602783203 299.17962646484375 122.48773193359375 293.95526123046875 123.94126892089844"/>
    <path stroke-width="0" fill="rgb(135, 134, 136)" opacity="0.9077619" stroke="rgb(66, 116, 174)" stroke-opacity="1.0" stroke-linecap="round" stroke-linejoin="round" d="M 178.04266357421875 100.2571792602539 C 177.0801239013672 94.1312484741211 193.0179901123047 169.72906494140625 171.32366943359375 106.96934509277344 C 150.03317260742188 111.8497085571289 133.91334533691406 140.493408203125 163.33905029296875 111.43035125732422 C 174.27679443359375 107.29801940917969 173.6556854248047 102.48120880126953 171.7587432861328 56.9505500793457 C 189.64627075195312 110.86164093017578 180.24415588378906 111.97925567626953 178.04266357421875 100.2571792602539"/>
    <path stroke-width="0" fill="rgb(168, 117, 122)" opacity="0.64122844" stroke="rgb(72, 96, 46)" stroke-opacity="1.0" stroke-linecap="round" stroke-linejoin="round" d="M 223.05711364746094 90.08917999267578 C 214.0480194091797 92.16439819335938 255.15745544433594 93.61027526855469 225.19798278808594 76.55892944335938 C 240.05010986328125 79.68241119384766 227.04383850097656 113.77043151855469 214.2543487548828 100.36457061767578 C 213.71527099609375 111.62410736083984 238.65383911132812 80.60801696777344 214.9512481689453 77.22579193115234 C 225.27520751953125 82.78729248046875 233.31736755371094 101.30357360839844 223.05711364746094 90.08917999267578"/>
    <path stroke-width="0" fill="rgb(35, 29, 24)" opacity="0.8691948" stroke="rgb(14, 177, 198)" stroke-opacity="1.0" stroke-linecap="round" stroke-linejoin="round" d="M 191.7172393798828 388.40618896484375 C 192.427490234375 372.5378723144531 200.4567413330078 364.40374755859375 202.52906799316406 389.23919677734375 C 200.2104949951172 383.58758544921875 204.32362365722656 386.312744140625 199.54489135742188 390.4158020019531 C 206.05258178710938 382.926513671875 193.3491668701172 379.7429504394531 195.26513671875 351.000244140625 C 196.3523406982422 387.91986083984375 198.26319885253906 420.5568542480469 191.7172393798828 388.40618896484375"/>
    <path stroke-width="0" fill="rgb(85, 82, 98)" opacity="0.8572608" stroke="rgb(66, 95, 149)" stroke-opacity="1.0" stroke-linecap="round" stroke-linejoin="round" d="M 251.45883178710938 89.92890930175781 C 253.76304626464844 87.55540466308594 244.95343017578125 85.41815185546875 259.4478759765625 89.57271575927734 C 260.3553161621094 90.18331146240234 246.79443359375 84.97806549072266 252.56207275390625 88.87345886230469 C 251.04632568359375 92.65312957763672 251.68609619140625 91.1449203491211 251.93328857421875 89.14936828613281 C 251.63475036621094 85.4601058959961 253.40484619140625 113.83409881591797 251.45883178710938 89.92890930175781"/>
    <path stroke-width="0" fill="rgb(147, 92, 28)" opacity="0.7685069" stroke="rgb(94, 50, 117)" stroke-opacity="1.0" stroke-linecap="round" stroke-linejoin="round" d="M 300.87298583984375 116.94267272949219 C 311.6089782714844 114.26266479492188 318.9201354980469 109.16023254394531 311.7105712890625 115.74272918701172 C 302.8050842285156 107.5643310546875 296.75299072265625 133.9540252685547 280.48077392578125 120.05101013183594 C 304.6773681640625 153.70205688476562 278.7276611328125 105.09955596923828 310.8397521972656 113.38536834716797 C 292.2608947753906 109.0967025756836 293.9173583984375 120.34407806396484 300.87298583984375 116.94267272949219"/>
    <path stroke-width="0" fill="rgb(103, 102, 109)" opacity="0.70982385" stroke="rgb(203, 19, 132)" stroke-opacity="1.0" stroke-linecap="round" stroke-linejoin="round" d="M 178.4041748046875 98.56736755371094 C 174.98707580566406 104.87743377685547 167.87429809570312 121.20005798339844 182.64784240722656 117.43463897705078 C 175.260986328125 121.59922790527344 175.2486114501953 122.43045043945312 162.39236450195312 125.90225219726562 C 163.83834838867188 118.3597640991211 183.6724090576172 122.74312591552734 185.81161499023438 121.69822692871094 C 168.7673797607422 118.96104431152344 179.7731475830078 134.13433837890625 178.4041748046875 98.56736755371094"/>
    <path stroke-width="0" fill="rgb(132, 130, 130)" opacity="0.5891977" stroke="rgb(147, 244, 164)" stroke-opacity="1.0" stroke-linecap="round" stroke-linejoin="round" d="M 226.468994140625 79.05670928955078 C 176.1594696044922 77.46731567382812 203.71005249023438 83.6543960571289 183.85853576660156 96.050537109375 C 169.1695556640625 163.95936584472656 108.23493194580078 259.8038330078125 -41.22764205932617 121.2736587524414 C 181.07421875 19.082576751708984 156.4393310546875 84.91140747070312 228.4505157470703 79.37548065185547 C 237.3460235595703 73.98664855957031 226.8448486328125 94.28788757324219 226.468994140625 79.05670928955078"/>
    <path stroke-width="0" fill="rgb(130, 128, 130)" opacity="0.89568055" stroke="rgb(109, 130, 136)" stroke-opacity="1.0" stroke-linecap="round" stroke-linejoin="round" d="M 198.59173583984375 91.3917236328125 C 200.6502227783203 83.32057189941406 152.05007934570312 83.83192443847656 164.83795166015625 96.87943267822266 C 179.13082885742188 128.6397705078125 153.8973846435547 137.6691131591797 172.82830810546875 81.7216567993164 C 152.03814697265625 91.09373474121094 161.92982482910156 76.6369857788086 157.14674377441406 76.74917602539062 C 187.0442352294922 98.10606384277344 184.9749298095703 120.09764099121094 198.59173583984375 91.3917236328125"/>
    <path stroke-width="0" fill="rgb(145, 140, 135)" opacity="0.65806085" stroke="rgb(70, 32, 100)" stroke-opacity="1.0" stroke-linecap="round" stroke-linejoin="round" d="M 287.3794860839844 122.59280395507812 C 296.7862548828125 111.5311279296875 286.3694763183594 123.98018646240234 299.9949951171875 133.2141571044922 C 283.0533447265625 117.60714721679688 316.4752502441406 97.96717834472656 311.6329650878906 136.6986083984375 C 308.106689453125 125.41665649414062 313.8509521484375 108.65953826904297 336.7901916503906 104.4730224609375 C 325.84429931640625 109.19589233398438 328.979248046875 106.22138977050781 287.3794860839844 122.59280395507812"/>
    <path stroke-width="0" fill="rgb(213, 169, 80)" opacity="0.63885266" stroke="rgb(47, 230, 138)" stroke-opacity="1.0" stroke-linecap="round" stroke-linejoin="round" d="M 278.0757751464844 321.3001708984375 C 282.4903564453125 311.9374694824219 277.439697265625 277.5479736328125 290.59295654296875 317.6684265136719 C 311.5600280761719 319.1109313964844 282.47088623046875 331.45947265625 289.78857421875 295.3648986816406 C 290.9031677246094 248.33111572265625 288.6263122558594 255.27220153808594 279.77886962890625 323.4602355957031 C 287.18487548828125 325.821533203125 290.35205078125 319.69183349609375 278.0757751464844 321.3001708984375"/>
    <path stroke-width="0" fill="rgb(248, 194, 85)" opacity="0.64785767" stroke="rgb(224, 116, 184)" stroke-opacity="1.0" stroke-linecap="round" stroke-linejoin="round" d="M 309.01885986328125 118.52201843261719 C 290.0359191894531 100.57200622558594 297.5255126953125 67.29633331298828 300.3783874511719 120.18305206298828 C 297.3815612792969 114.72218322753906 297.1474914550781 86.72184753417969 299.93060302734375 120.55752563476562 C 315.7187194824219 140.7145233154297 294.2774353027344 118.61656951904297 289.1889343261719 128.36514282226562 C 286.2564697265625 122.89061737060547 284.8146057128906 119.06477355957031 309.01885986328125 118.52201843261719"/>
    <path stroke-width="0" fill="rgb(255, 204, 50)" opacity="0.59812886" stroke="rgb(230, 175, 178)" stroke-opacity="1.0" stroke-linecap="round" stroke-linejoin="round" d="M 310.4548034667969 107.03849792480469 C 296.857421875 117.1258544921875 286.8457336425781 130.8896942138672 275.024658203125 143.1664276123047 C 295.46063232421875 122.05479431152344 293.512939453125 102.35640716552734 289.4778137207031 134.64181518554688 C 312.5443115234375 94.02999114990234 285.76983642578125 101.7486572265625 301.8957214355469 123.46955108642578 C 286.2377624511719 101.9471664428711 310.7265319824219 136.2227020263672 310.4548034667969 107.03849792480469"/>
    <path stroke-width="0" fill="rgb(93, 94, 103)" opacity="0.7842371" stroke="rgb(192, 162, 61)" stroke-opacity="1.0" stroke-linecap="round" stroke-linejoin="round" d="M 399.5762939453125 314.9660339355469 C 400.63641357421875 297.5802917480469 396.150146484375 300.7878112792969 369.04693603515625 317.5864562988281 C 395.7759094238281 299.9275207519531 401.37310791015625 296.9300537109375 399.51715087890625 319.7611999511719 C 395.3308410644531 344.0467834472656 397.8111267089844 333.5355224609375 398.4274597167969 332.5856018066406 C 397.49078369140625 330.4175109863281 397.3081359863281 340.6784362792969 399.5762939453125 314.9660339355469"/>
    <path stroke-width="0" fill="rgb(218, 155, 37)" opacity="0.70274085" stroke="rgb(203, 244, 116)" stroke-opacity="1.0" stroke-linecap="round" stroke-linejoin="round" d="M 284.42529296875 139.58518981933594 C 296.7362976074219 121.83140563964844 295.06591796875 105.68782806396484 291.6062927246094 132.0062255859375 C 312.58221435546875 96.0615234375 293.92999267578125 123.19823455810547 304.0878601074219 111.70321655273438 C 310.5435485839844 114.74102020263672 279.91839599609375 123.00016784667969 312.0047607421875 106.38202667236328 C 292.1567077636719 128.1336669921875 297.08612060546875 118.18831634521484 284.42529296875 139.58518981933594"/>
    <path stroke-width="0" fill="rgb(39, 37, 50)" opacity="0.8507223" stroke="rgb(218, 116, 242)" stroke-opacity="1.0" stroke-linecap="round" stroke-linejoin="round" d="M 169.35000610351562 143.2271728515625 C 164.96258544921875 133.83729553222656 179.9017333984375 139.12973022460938 184.17893981933594 143.28121948242188 C 184.92091369628906 142.1409149169922 184.31182861328125 138.78436279296875 173.8883056640625 146.92193603515625 C 183.39671325683594 136.2084503173828 193.81629943847656 139.70640563964844 170.4379425048828 139.5625457763672 C 166.53094482421875 157.20437622070312 168.57781982421875 168.48580932617188 169.35000610351562 143.2271728515625"/>
    <path stroke-width="0" fill="rgb(85, 63, 41)" opacity="0.8145097" stroke="rgb(209, 231, 207)" stroke-opacity="1.0" stroke-linecap="round" stroke-linejoin="round" d="M 298.0123291015625 317.1299133300781 C 309.9042053222656 321.93505859375 300.47613525390625 318.664794921875 312.6448974609375 314.8648681640625 C 304.972412109375 317.8123474121094 310.2470397949219 320.6580505371094 305.5202331542969 308.8016662597656 C 322.0535888671875 365.0596008300781 321.41522216796875 343.2762756347656 311.72003173828125 318.109375 C 310.8907775878906 325.3026428222656 328.8358459472656 318.5089111328125 298.0123291015625 317.1299133300781"/>
    <path stroke-width="0" fill="rgb(191, 150, 68)" opacity="0.78688127" stroke="rgb(160, 101, 15)" stroke-opacity="1.0" stroke-linecap="round" stroke-linejoin="round" d="M 271.1780700683594 155.13897705078125 C 269.6022644042969 150.49424743652344 275.61175537109375 164.30101013183594 268.9888916015625 174.15602111816406 C 275.9736022949219 154.67300415039062 273.4100646972656 166.8831024169922 267.94183349609375 144.0000762939453 C 262.4488830566406 145.33689880371094 273.1695861816406 147.98049926757812 264.7069091796875 142.53729248046875 C 271.1838684082031 149.1328887939453 266.30181884765625 137.92796325683594 271.1780700683594 155.13897705078125"/>
    <path stroke-width="0" fill="rgb(230, 189, 90)" opacity="0.69916195" stroke="rgb(65, 216, 8)" stroke-opacity="1.0" stroke-linecap="round" stroke-linejoin="round" d="M 296.64068603515625 116.7669906616211 C 278.86871337890625 136.4715576171875 282.0604248046875 141.53720092773438 278.98895263671875 129.19961547851562 C 275.0472412109375 141.62466430664062 284.3490295410156 130.8001251220703 279.53564453125 160.78773498535156 C 276.89678955078125 144.4574432373047 285.1181335449219 136.9863739013672 269.09771728515625 141.16241455078125 C 276.85894775390625 132.8995361328125 274.0144348144531 154.28115844726562 296.64068603515625 116.7669906616211"/>
    <path stroke-width="0" fill="rgb(89, 77, 37)" opacity="0.6986148" stroke="rgb(90, 90, 4)" stroke-opacity="1.0" stroke-linecap="round" stroke-linejoin="round" d="M 274.3445129394531 341.5864562988281 C 281.02252197265625 343.65765380859375 273.7057800292969 342.72430419921875 277.63336181640625 340.5811767578125 C 274.7509765625 333.2900085449219 269.8577575683594 309.44598388671875 280.31964111328125 350.5356140136719 C 273.9866943359375 370.45721435546875 278.1356201171875 336.3059387207031 283.166748046875 318.49639892578125 C 275.9121398925781 361.14642333984375 284.25048828125 341.97369384765625 274.3445129394531 341.5864562988281"/>
    <path stroke-width="0" fill="rgb(34, 29, 20)" opacity="0.8345031" stroke="rgb(102, 236, 25)" stroke-opacity="1.0" stroke-linecap="round" stroke-linejoin="round" d="M 241.25973510742188 174.3783416748047 C 252.5042266845703 156.07266235351562 245.46609497070312 162.9639434814453 245.458251953125 156.46836853027344 C 249.80032348632812 168.36770629882812 249.48385620117188 159.1813201904297 252.23121643066406 162.3531494140625 C 239.75503540039062 174.30291748046875 249.18621826171875 165.3315887451172 253.6478729248047 160.90338134765625 C 241.5478973388672 165.79348754882812 253.10910034179688 158.4699249267578 241.25973510742188 174.3783416748047"/>
    <path stroke-width="0" fill="rgb(244, 184, 71)" opacity="0.57546324" stroke="rgb(221, 115, 83)" stroke-opacity="1.0" stroke-linecap="round" stroke-linejoin="round" d="M 295.5067443847656 241.13735961914062 C 309.2895812988281 180.61231994628906 319.22998046875 206.46588134765625 300.1718444824219 236.89712524414062 C 280.546142578125 183.8321990966797 270.1481018066406 149.88037109375 264.6131286621094 170.06834411621094 C 277.1497497558594 146.15097045898438 283.60491943359375 148.17330932617188 270.52557373046875 170.945068359375 C 277.22760009765625 164.51394653320312 288.15716552734375 186.64561462402344 295.5067443847656 241.13735961914062"/>
    <path stroke-width="0" fill="rgb(57, 56, 59)" opacity="0.85906935" stroke="rgb(156, 8, 3)" stroke-opacity="1.0" stroke-linecap="round" stroke-linejoin="round" d="M 206.4877471923828 377.5332336425781 C 204.00953674316406 375.16748046875 202.09181213378906 373.12164306640625 217.98110961914062 374.09527587890625 C 237.23902893066406 374.993408203125 230.33236694335938 367.5108642578125 235.2351531982422 368.19427490234375 C 230.5504150390625 367.6266174316406 236.3311004638672 373.142333984375 222.18263244628906 374.40509033203125 C 194.16624450683594 372.22900390625 208.09170532226562 377.3697204589844 206.4877471923828 377.5332336425781"/>
    <path stroke-width="0" fill="rgb(131, 130, 131)" opacity="0.8113538" stroke="rgb(17, 64, 56)" stroke-opacity="1.0" stroke-linecap="round" stroke-linejoin="round" d="M 170.43276977539062 143.56907653808594 C 179.65066528320312 122.3214340209961 168.7635498046875 127.96814727783203 171.72640991210938 169.26927185058594 C 180.86610412597656 165.6969757080078 176.4596710205078 141.25975036621094 160.50865173339844 144.91900634765625 C 179.7512664794922 152.24114990234375 191.44973754882812 122.60083770751953 148.67762756347656 132.4903564453125 C 161.44947814941406 159.0986785888672 177.40618896484375 167.8557586669922 170.43276977539062 143.56907653808594"/>
    <path stroke-width="0" fill="rgb(246, 186, 61)" opacity="0.8061316" stroke="rgb(33, 3, 29)" stroke-opacity="1.0" stroke-linecap="round" stroke-linejoin="round" d="M 226.41134643554688 154.6944122314453 C 195.92543029785156 137.14157104492188 203.15635681152344 162.81484985351562 194.98106384277344 182.3173065185547 C 209.22396850585938 132.34173583984375 201.5001678466797 140.38592529296875 192.71978759765625 149.7106475830078 C 181.28656005859375 125.42042541503906 200.41148376464844 127.94100952148438 191.74649047851562 178.1036376953125 C 180.28330993652344 179.96331787109375 189.50975036621094 179.70037841796875 226.41134643554688 154.6944122314453"/>
    <path stroke-width="0" fill="rgb(64, 52, 34)" opacity="0.91670185" stroke="rgb(248, 252, 104)" stroke-opacity="1.0" stroke-linecap="round" stroke-linejoin="round" d="M 383.3012390136719 372.377197265625 C 394.9034423828125 374.0767822265625 387.5546875 355.9114074707031 393.4542236328125 347.5187683105469 C 385.3905029296875 364.7994079589844 389.0287780761719 350.14776611328125 388.0105895996094 372.3486633300781 C 389.06488037109375 373.4959411621094 391.35919189453125 362.89874267578125 390.2566223144531 339.9779052734375 C 390.93157958984375 361.6724853515625 385.3851623535156 352.8997497558594 383.3012390136719 372.377197265625"/>
    <path stroke-width="0" fill="rgb(46, 53, 57)" opacity="0.8302318" stroke="rgb(162, 125, 252)" stroke-opacity="1.0" stroke-linecap="round" stroke-linejoin="round" d="M 298.60687255859375 218.8622283935547 C 294.9015197753906 273.94586181640625 279.1458435058594 209.48284912109375 303.2029113769531 242.24412536621094 C 287.29345703125 219.7490234375 299.82427978515625 209.8263397216797 296.5038146972656 236.08273315429688 C 290.99725341796875 189.9181671142578 286.4485778808594 212.75567626953125 289.9729919433594 205.46694946289062 C 293.6921081542969 223.43051147460938 322.5932312011719 252.36117553710938 298.60687255859375 218.8622283935547"/>
    <path stroke-width="0" fill="rgb(156, 153, 144)" opacity="0.72730625" stroke="rgb(199, 73, 61)" stroke-opacity="1.0" stroke-linecap="round" stroke-linejoin="round" d="M 320.39080810546875 214.1569366455078 C 303.5669250488281 218.35243225097656 296.06573486328125 222.435791015625 317.22259521484375 234.4098663330078 C 301.82598876953125 224.34616088867188 306.2429504394531 215.78118896484375 285.6622314453125 238.08273315429688 C 305.1484375 244.6730499267578 312.00433349609375 235.39987182617188 298.1580505371094 234.77603149414062 C 300.9300537109375 229.92222595214844 323.5113830566406 207.90196228027344 320.39080810546875 214.1569366455078"/>
    <path stroke-width="0" fill="rgb(11, 7, 2)" opacity="0.8282129" stroke="rgb(62, 169, 131)" stroke-opacity="1.0" stroke-linecap="round" stroke-linejoin="round" d="M 271.7685546875 369.32183837890625 C 276.7424621582031 337.04559326171875 270.7470397949219 377.9970703125 280.7373352050781 364.23345947265625 C 264.3487854003906 363.806884765625 280.3450012207031 337.8841552734375 275.2087097167969 394.0953369140625 C 275.52313232421875 399.2298889160156 272.38201904296875 394.33172607421875 277.5751647949219 387.783203125 C 271.62408447265625 396.36834716796875 272.3873596191406 407.7787780761719 271.7685546875 369.32183837890625"/>
    <path stroke-width="0" fill="rgb(87, 105, 148)" opacity="0.81761855" stroke="rgb(141, 73, 180)" stroke-opacity="1.0" stroke-linecap="round" stroke-linejoin="round" d="M 212.44789123535156 215.4386444091797 C 205.6827850341797 201.01736450195312 206.5719451904297 206.15084838867188 207.33804321289062 190.45779418945312 C 203.10902404785156 221.75047302246094 219.7711181640625 217.85275268554688 228.10696411132812 213.44647216796875 C 222.8881378173828 213.88475036621094 222.37181091308594 216.23886108398438 208.80433654785156 214.5111846923828 C 209.93338012695312 216.19625854492188 214.64645385742188 218.5712432861328 212.44789123535156 215.4386444091797"/>
    <path stroke-width="0" fill="rgb(147, 200, 216)" opacity="0.7089813" stroke="rgb(91, 211, 235)" stroke-opacity="1.0" stroke-linecap="round" stroke-linejoin="round" d="M 277.1571960449219 202.9635772705078 C 282.3450927734375 195.60948181152344 309.65679931640625 180.37120056152344 290.1603088378906 239.23289489746094 C 307.77960205078125 233.36854553222656 337.33447265625 213.48355102539062 272.0936279296875 213.94430541992188 C 303.04229736328125 208.29701232910156 310.794921875 207.1276397705078 309.6369323730469 215.25657653808594 C 313.42913818359375 196.95779418945312 292.0641784667969 198.53346252441406 277.1571960449219 202.9635772705078"/>
    <path stroke-width="0" fill="rgb(58, 57, 58)" opacity="1.0" stroke="rgb(59, 88, 207)" stroke-opacity="1.0" stroke-linecap="round" stroke-linejoin="round" d="M 275.58013916015625 389.562255859375 C 272.8724060058594 387.1103515625 275.2117919921875 364.0362854003906 270.66461181640625 370.4981994628906 C 271.7911376953125 376.8247985839844 273.3561706542969 388.24334716796875 275.7353210449219 382.2476806640625 C 276.8658142089844 375.9299011230469 262.219482421875 383.1036682128906 293.7409973144531 380.4690246582031 C 283.6054992675781 368.6011657714844 266.19488525390625 384.5746154785156 275.58013916015625 389.562255859375"/>
    <path stroke-width="0" fill="rgb(247, 243, 238)" opacity="0.9243357" stroke="rgb(247, 230, 75)" stroke-opacity="1.0" stroke-linecap="round" stroke-linejoin="round" d="M 201.03106689453125 208.3369140625 C 208.64466857910156 215.3020477294922 200.3257598876953 199.07083129882812 216.87283325195312 209.1679229736328 C 215.54458618164062 202.7506866455078 221.7271728515625 207.56204223632812 221.51400756835938 229.2073974609375 C 224.06906127929688 234.9041748046875 189.8232421875 230.9838104248047 214.8696746826172 177.26412963867188 C 220.86244201660156 169.6539764404297 195.76119995117188 183.85281372070312 201.03106689453125 208.3369140625"/>
    <path stroke-width="0" fill="rgb(241, 249, 253)" opacity="0.75821143" stroke="rgb(63, 27, 242)" stroke-opacity="1.0" stroke-linecap="round" stroke-linejoin="round" d="M 301.7068176269531 223.45985412597656 C 284.8408203125 225.97010803222656 313.1572570800781 216.3385772705078 319.9574890136719 216.09432983398438 C 308.6275634765625 186.6053924560547 293.9068603515625 225.99179077148438 263.44561767578125 215.88619995117188 C 244.69151306152344 195.2950439453125 224.81417846679688 200.80307006835938 277.28594970703125 216.04505920410156 C 318.944580078125 230.99041748046875 329.65277099609375 206.6611785888672 301.7068176269531 223.45985412597656"/>
    <path stroke-width="0" fill="rgb(37, 36, 35)" opacity="0.908446" stroke="rgb(175, 14, 186)" stroke-opacity="1.0" stroke-linecap="round" stroke-linejoin="round" d="M 196.2118682861328 423.1086120605469 C 192.6886749267578 420.54638671875 177.4351348876953 404.9548034667969 169.48175048828125 410.7720031738281 C 197.59573364257812 407.7378234863281 196.00160217285156 396.33648681640625 179.98072814941406 422.99798583984375 C 183.9613037109375 415.3808288574219 190.7141876220703 410.1326904296875 181.93820190429688 412.6347961425781 C 194.50521850585938 419.23095703125 189.3551483154297 417.8996276855469 196.2118682861328 423.1086120605469"/>
    <path stroke-width="0" fill="rgb(0, 0, 2)" opacity="0.79039514" stroke="rgb(69, 96, 95)" stroke-opacity="1.0" stroke-linecap="round" stroke-linejoin="round" d="M 299.032958984375 192.3868408203125 C 277.035400390625 225.85667419433594 310.7178649902344 243.20701599121094 319.20428466796875 235.5025177001953 C 301.08868408203125 240.57347106933594 287.40509033203125 247.01768493652344 306.3445129394531 226.1644287109375 C 309.8283386230469 239.4298553466797 308.78045654296875 223.4549560546875 274.85772705078125 202.056884765625 C 319.0791320800781 192.0880126953125 305.54376220703125 214.21900939941406 299.032958984375 192.3868408203125"/>
    <path stroke-width="0" fill="rgb(120, 135, 175)" opacity="0.77446723" stroke="rgb(60, 43, 114)" stroke-opacity="1.0" stroke-linecap="round" stroke-linejoin="round" d="M 273.94415283203125 215.3574981689453 C 284.5578308105469 245.72190856933594 256.9102783203125 233.3972930908203 262.8690185546875 240.19151306152344 C 256.5657653808594 238.14146423339844 255.0050048828125 224.7128448486328 259.8580017089844 231.13597106933594 C 261.26373291015625 229.77468872070312 257.1999816894531 231.72848510742188 265.3970947265625 233.491943359375 C 225.25759887695312 221.34756469726562 269.3186950683594 240.7154083251953 273.94415283203125 215.3574981689453"/>
    <path stroke-width="0" fill="rgb(250, 191, 39)" opacity="0.7183693" stroke="rgb(213, 60, 128)" stroke-opacity="1.0" stroke-linecap="round" stroke-linejoin="round" d="M 212.45285034179688 81.50949096679688 C 245.57749938964844 88.8750228881836 234.00990295410156 104.64099884033203 234.33041381835938 88.17440032958984 C 208.01275634765625 79.1529541015625 197.43919372558594 98.66421508789062 225.01966857910156 64.7259521484375 C 227.3264617919922 85.31927490234375 248.14544677734375 67.46142578125 224.72625732421875 76.2987289428711 C 231.55259704589844 64.05867767333984 265.98992919921875 79.41178894042969 212.45285034179688 81.50949096679688"/>
    <path stroke-width="0" fill="rgb(56, 52, 62)" opacity="0.81300855" stroke="rgb(161, 221, 239)" stroke-opacity="1.0" stroke-linecap="round" stroke-linejoin="round" d="M 163.22947692871094 233.33624267578125 C 160.27008056640625 232.703857421875 159.75341796875 236.1881561279297 161.6419677734375 236.93116760253906 C 159.07774353027344 238.39727783203125 159.85345458984375 237.65640258789062 161.6023406982422 236.880126953125 C 160.8516082763672 233.48672485351562 161.58750915527344 243.9821014404297 161.0386962890625 240.58889770507812 C 161.85903930664062 241.1088409423828 158.70907592773438 242.6844482421875 163.22947692871094 233.33624267578125"/>
    <path stroke-width="0" fill="rgb(95, 82, 63)" opacity="0.740042" stroke="rgb(178, 246, 253)" stroke-opacity="1.0" stroke-linecap="round" stroke-linejoin="round" d="M 232.5110626220703 56.386451721191406 C 231.6083984375 48.903079986572266 217.6619873046875 51.22100830078125 222.788818359375 52.85641098022461 C 234.65188598632812 42.18353271484375 228.20556640625 63.39216232299805 245.5781707763672 70.69989776611328 C 241.57318115234375 65.03858184814453 233.39517211914062 79.09573364257812 236.0066680908203 57.176971435546875 C 231.76806640625 64.52017211914062 238.6454620361328 60.31336212158203 232.5110626220703 56.386451721191406"/>
    <path stroke-width="0" fill="rgb(222, 153, 62)" opacity="0.69152105" stroke="rgb(18, 74, 38)" stroke-opacity="1.0" stroke-linecap="round" stroke-linejoin="round" d="M 279.8941345214844 256.8746337890625 C 268.64093017578125 257.342041015625 258.7234191894531 251.97779846191406 264.3465881347656 254.33663940429688 C 214.53359985351562 255.7014923095703 221.19361877441406 244.83059692382812 189.00680541992188 219.6296844482422 C 229.6822052001953 264.8828430175781 259.01220703125 250.48985290527344 206.33921813964844 254.55374145507812 C 186.17306518554688 256.97076416015625 250.36004638671875 249.87208557128906 279.8941345214844 256.8746337890625"/>
    <path stroke-width="0" fill="rgb(132, 86, 61)" opacity="0.74271166" stroke="rgb(33, 154, 97)" stroke-opacity="1.0" stroke-linecap="round" stroke-linejoin="round" d="M 224.1927490234375 53.01009750366211 C 198.82241821289062 66.30570983886719 216.51309204101562 81.87350463867188 211.34519958496094 72.80590057373047 C 209.99032592773438 76.46959686279297 208.20648193359375 67.81316375732422 214.31988525390625 82.05400848388672 C 215.30001831054688 101.66030883789062 235.9974822998047 65.59337615966797 215.17349243164062 86.08992004394531 C 206.27500915527344 62.686561584472656 206.55462646484375 63.38471984863281 224.1927490234375 53.01009750366211"/>
    <path stroke-width="0" fill="rgb(129, 126, 126)" opacity="1.0" stroke="rgb(246, 139, 70)" stroke-opacity="1.0" stroke-linecap="round" stroke-linejoin="round" d="M 305.0870666503906 240.9070281982422 C 292.1728210449219 244.86614990234375 274.37115478515625 226.50787353515625 336.3741455078125 224.66136169433594 C 317.38690185546875 236.98391723632812 295.3246765136719 225.7020721435547 263.338134765625 228.2053680419922 C 303.9588623046875 229.37908935546875 284.8498840332031 242.06494140625 302.1114196777344 192.65054321289062 C 276.2584533691406 161.70948791503906 337.42730712890625 196.85963439941406 305.0870666503906 240.9070281982422"/>
    <path stroke-width="0" fill="rgb(164, 129, 109)" opacity="0.48718676" stroke="rgb(228, 103, 140)" stroke-opacity="1.0" stroke-linecap="round" stroke-linejoin="round" d="M 219.5132598876953 98.3401870727539 C 223.90673828125 91.8927230834961 216.7373504638672 90.08464813232422 223.02638244628906 96.1091537475586 C 206.76609802246094 58.26565170288086 202.8001251220703 59.91994857788086 205.6842498779297 63.365211486816406 C 209.87069702148438 57.434471130371094 208.1287384033203 68.4969482421875 199.44374084472656 52.75217056274414 C 213.8107147216797 76.44380950927734 224.7454376220703 98.65467834472656 219.5132598876953 98.3401870727539"/>
    <path stroke-width="0" fill="rgb(132, 130, 129)" opacity="1.0" stroke="rgb(116, 102, 63)" stroke-opacity="1.0" stroke-linecap="round" stroke-linejoin="round" d="M 325.15447998046875 198.22886657714844 C 286.5289611816406 228.34774780273438 288.2633361816406 231.85513305664062 317.0738220214844 222.2908172607422 C 302.08245849609375 232.33816528320312 279.96295166015625 213.00796508789062 279.5207214355469 238.2001495361328 C 305.39111328125 276.11871337890625 308.1961975097656 248.0496826171875 294.1296081542969 233.73780822753906 C 306.3455810546875 248.9214324951172 326.05096435546875 272.75677490234375 325.15447998046875 198.22886657714844"/>
    <path stroke-width="0" fill="rgb(121, 75, 22)" opacity="0.7527753" stroke="rgb(79, 95, 133)" stroke-opacity="1.0" stroke-linecap="round" stroke-linejoin="round" d="M 231.59597778320312 91.52690887451172 C 258.3072814941406 100.35008239746094 269.61273193359375 101.39525604248047 247.86154174804688 97.2811508178711 C 241.52020263671875 92.01866912841797 246.8712158203125 110.31673431396484 224.2220458984375 76.85334014892578 C 256.4409484863281 93.89832305908203 234.0634765625 104.15310668945312 243.10787963867188 91.35039520263672 C 230.9582977294922 77.63410186767578 238.70799255371094 95.39336395263672 231.59597778320312 91.52690887451172"/>
    <path stroke-width="0" fill="rgb(128, 125, 125)" opacity="0.90702516" stroke="rgb(85, 235, 219)" stroke-opacity="1.0" stroke-linecap="round" stroke-linejoin="round" d="M 313.3631591796875 242.16297912597656 C 310.88592529296875 241.6375274658203 301.8080139160156 238.9688262939453 365.73199462890625 240.34353637695312 C 350.1758117675781 244.1993408203125 341.7175598144531 234.38677978515625 339.9418640136719 228.58602905273438 C 361.2091979980469 279.849365234375 313.55535888671875 270.6761169433594 333.5892028808594 232.0802001953125 C 309.54803466796875 230.29800415039062 367.57220458984375 262.655029296875 313.3631591796875 242.16297912597656"/>
    <path stroke-width="0" fill="rgb(252, 192, 45)" opacity="0.8566136" stroke="rgb(64, 113, 26)" stroke-opacity="1.0" stroke-linecap="round" stroke-linejoin="round" d="M 304.0565185546875 105.92153930664062 C 294.7688293457031 89.10279083251953 324.9509582519531 127.0814208984375 313.5672302246094 95.0968017578125 C 311.9957275390625 117.35501861572266 288.8968200683594 143.55601501464844 284.70477294921875 114.1291275024414 C 315.5520935058594 120.64073944091797 314.70855712890625 89.7759017944336 295.8746643066406 116.3986587524414 C 315.8642883300781 112.97100067138672 301.5990295410156 99.41531372070312 304.0565185546875 105.92153930664062"/>
  </g>
</svg>
