<?xml version="1.0" ?>
<svg xmlns="http://www.w3.org/2000/svg" version="1.1" width="128" height="128">
  <defs/>
  <g>
    <path d="M 89.22795104980469 53.98231506347656 C 96.20984649658203 54.64152908325195 69.61564636230469 53.92861557006836 66.14335632324219 52.95649719238281 C 32.533294677734375 53.266292572021484 37.47251510620117 51.53730392456055 36.99231719970703 49.32345199584961 C 53.6246452331543 49.85991668701172 66.3974609375 52.55234146118164 67.07791900634766 51.67230987548828 C 50.53252410888672 51.84327697753906 62.16380310058594 48.9127311706543 89.22795104980469 53.98231506347656" stroke-width="0.0" fill="rgb(0, 0, 6)" opacity="0.99827075" stroke="rgb(139, 182, 153)" stroke-opacity="0.5448832" stroke-linecap="round" stroke-linejoin="round"/>
    <path d="M 61.984962463378906 162.42193603515625 C -58.71488571166992 143.54360961914062 74.45394134521484 28.651575088500977 44.61762619018555 105.20841217041016 C -31.619802474975586 138.1470489501953 83.42784881591797 41.8847541809082 7.514394283294678 69.1405258178711 C 28.94140625 166.7713623046875 -27.94849395751953 175.54176330566406 -11.027787208557129 -12.425102233886719 C 115.1155014038086 -25.08656120300293 114.55164337158203 -22.98467254638672 61.984962463378906 162.42193603515625" stroke-width="0.0" fill="rgb(86, 85, 88)" opacity="0.545081" stroke="rgb(108, 164, 111)" stroke-opacity="0.891773" stroke-linecap="round" stroke-linejoin="round"/>
    <path d="M 194.29483032226562 91.6157455444336 C 94.29972076416016 150.18324279785156 52.025203704833984 155.23464965820312 70.32434844970703 78.52196502685547 C 47.354244232177734 86.61842346191406 108.37733459472656 137.2071990966797 124.60330200195312 93.5484619140625 C 131.91610717773438 34.31528091430664 33.85536575317383 95.68563079833984 63.914676666259766 -6.080121994018555 C 112.41535186767578 -24.38692283630371 192.391357421875 -26.765209197998047 194.29483032226562 91.6157455444336" stroke-width="0.0" fill="rgb(36, 32, 34)" opacity="1.0" stroke="rgb(245, 97, 201)" stroke-opacity="0.5288949" stroke-linecap="round" stroke-linejoin="round"/>
    <path d="M 105.72396087646484 86.16055297851562 C 100.92326354980469 87.33583068847656 102.87589263916016 145.252197265625 101.84902954101562 91.29826354980469 C 60.69733428955078 89.7449951171875 62.638328552246094 80.73416137695312 82.70867919921875 87.33880615234375 C 109.2255859375 83.1987075805664 98.6767349243164 93.97692108154297 80.10528564453125 40.83340835571289 C 102.75873565673828 86.43199157714844 101.4438705444336 86.3294448852539 105.72396087646484 86.16055297851562" stroke-width="0.0" fill="rgb(0, 0, 0)" opacity="0.9999605" stroke="rgb(144, 236, 18)" stroke-opacity="0.0871293" stroke-linecap="round" stroke-linejoin="round"/>
    <path d="M 49.18465805053711 35.61949157714844 C 47.69392395019531 43.494468688964844 39.559913635253906 42.94660949707031 40.619850158691406 33.659881591796875 C 32.01730728149414 70.07150268554688 41.37071228027344 54.28866195678711 41.57817459106445 37.52082824707031 C 46.84870147705078 43.19506072998047 34.462764739990234 27.6834716796875 36.128055572509766 43.5125617980957 C 44.312774658203125 66.85826873779297 28.02191162109375 28.916942596435547 49.18465805053711 35.61949157714844" stroke-width="0.0" fill="rgb(3, 2, 5)" opacity="0.9852731" stroke="rgb(5, 212, 198)" stroke-opacity="0.87001216" stroke-linecap="round" stroke-linejoin="round"/>
    <path d="M 34.34722900390625 68.47789001464844 C 53.19608688354492 74.18208312988281 40.4132194519043 75.11373138427734 32.680747985839844 83.04145050048828 C 36.900753021240234 72.70304870605469 42.224727630615234 68.41014862060547 38.605491638183594 73.08541107177734 C 39.70630645751953 73.85828399658203 43.44377136230469 73.90191650390625 40.7816047668457 71.0184555053711 C 33.46910858154297 67.94097900390625 36.71361541748047 70.32733154296875 34.34722900390625 68.47789001464844" stroke-width="0.0" fill="rgb(248, 249, 247)" opacity="1.0" stroke="rgb(249, 203, 117)" stroke-opacity="0.7805292" stroke-linecap="round" stroke-linejoin="round"/>
    <path d="M 38.22312545776367 80.11868286132812 C 43.2366943359375 65.48819732666016 61.85201644897461 87.30093383789062 37.442623138427734 79.28233337402344 C 30.005754470825195 85.62107849121094 23.306903839111328 88.34654998779297 29.57637596130371 83.84453582763672 C 38.870147705078125 69.35064697265625 29.804235458374023 60.418697357177734 43.44297409057617 72.19759368896484 C 44.325218200683594 78.1209487915039 45.27602767944336 73.74597930908203 38.22312545776367 80.11868286132812" stroke-width="0.0" fill="rgb(254, 255, 255)" opacity="0.97474897" stroke="rgb(30, 163, 36)" stroke-opacity="0.9446689" stroke-linecap="round" stroke-linejoin="round"/>
    <path d="M 32.71419143676758 109.78531646728516 C 35.202510833740234 118.17095184326172 -4.2701849937438965 112.3767318725586 2.7169556617736816 84.20636749267578 C 2.954190492630005 119.26836395263672 39.88612365722656 109.84622192382812 33.07255935668945 109.9604721069336 C 27.023731231689453 120.38062286376953 74.53131866455078 94.91903686523438 36.82552719116211 62.59229278564453 C 72.24437713623047 103.19586181640625 19.054521560668945 115.9346694946289 32.71419143676758 109.78531646728516" stroke-width="0.0" fill="rgb(0, 0, 0)" opacity="1.0" stroke="rgb(133, 105, 67)" stroke-opacity="0.7742337" stroke-linecap="round" stroke-linejoin="round"/>
    <path d="M 2.790972948074341 97.4156494140625 C -4.464743614196777 85.21298217773438 -4.275814533233643 91.8584213256836 -6.439751625061035 84.18080139160156 C -1.9313914775848389 94.57638549804688 -20.79823112487793 103.979248046875 7.242489337921143 91.10200500488281 C -6.173578262329102 106.9003677368164 -1.603104591369629 47.755367279052734 41.42231750488281 65.81901550292969 C -15.42725944519043 52.56669616699219 8.146098136901855 125.18817901611328 2.790972948074341 97.4156494140625" stroke-width="0.0" fill="rgb(0, 0, 0)" opacity="1.0" stroke="rgb(116, 144, 4)" stroke-opacity="0.6176355" stroke-linecap="round" stroke-linejoin="round"/>
    <path d="M 90.24951171875 70.38358306884766 C 83.29339599609375 95.07283020019531 96.6153564453125 80.75674438476562 75.3046646118164 88.6136245727539 C 76.83738708496094 80.61408233642578 81.98978424072266 70.81939697265625 84.28937530517578 71.92096710205078 C 80.21055603027344 67.79849243164062 77.79638671875 77.29934692382812 89.41363525390625 79.20450592041016 C 68.01277923583984 70.89266967773438 96.69275665283203 61.48230743408203 90.24951171875 70.38358306884766" stroke-width="0.0" fill="rgb(255, 255, 255)" opacity="0.9315586" stroke="rgb(156, 157, 240)" stroke-opacity="0.6818203" stroke-linecap="round" stroke-linejoin="round"/>
    <path d="M 31.291257858276367 76.759033203125 C 31.476085662841797 74.5088882446289 24.992624282836914 86.88504028320312 31.48973274230957 81.27840423583984 C 28.483362197875977 84.41595458984375 38.51161193847656 40.22987365722656 43.04330062866211 35.54841995239258 C 31.76848030090332 82.73104858398438 32.04145050048828 82.38677978515625 30.411497116088867 78.64164733886719 C 33.941993713378906 71.53945922851562 29.840879440307617 73.43836975097656 31.291257858276367 76.759033203125" stroke-width="0.0" fill="rgb(0, 0, 0)" opacity="1.0" stroke="rgb(91, 111, 177)" stroke-opacity="0.06022547" stroke-linecap="round" stroke-linejoin="round"/>
    <path d="M 33.1201171875 72.39620971679688 C 23.99855613708496 102.100830078125 31.026357650756836 71.10285949707031 25.929126739501953 99.99781036376953 C 27.120105743408203 77.99076843261719 22.990983963012695 101.42913818359375 24.189062118530273 84.48751831054688 C 21.595794677734375 80.63585662841797 33.349098205566406 98.5047378540039 14.162059783935547 62.50600814819336 C 31.06299591064453 85.47803497314453 20.969318389892578 93.1300048828125 33.1201171875 72.39620971679688" stroke-width="0.0" fill="rgb(0, 0, 0)" opacity="0.9726333" stroke="rgb(170, 171, 53)" stroke-opacity="0.12892629" stroke-linecap="round" stroke-linejoin="round"/>
    <path d="M 74.55113983154297 74.02191925048828 C 73.12552642822266 71.60405731201172 72.9211196899414 74.98027801513672 66.5263900756836 76.63694763183594 C 76.63025665283203 44.55301284790039 64.41620635986328 113.9478988647461 97.03089904785156 111.24694061279297 C 59.593894958496094 100.93262481689453 80.51005554199219 45.20326614379883 120.75572967529297 70.48978424072266 C 88.16946411132812 39.13069152832031 68.74352264404297 97.04854583740234 74.55113983154297 74.02191925048828" stroke-width="0.0" fill="rgb(0, 0, 0)" opacity="1.0" stroke="rgb(80, 92, 145)" stroke-opacity="0.43860152" stroke-linecap="round" stroke-linejoin="round"/>
    <path d="M 98.28851318359375 51.80243682861328 C 73.48145294189453 54.0713005065918 74.59123229980469 55.685489654541016 93.60211181640625 53.18674850463867 C 59.36289596557617 51.25204849243164 46.19575119018555 49.133811950683594 39.42552947998047 50.2657356262207 C 59.97173309326172 32.923126220703125 37.182315826416016 5.091902732849121 105.81178283691406 26.6748104095459 C 112.41132354736328 56.28193664550781 67.41221618652344 27.224794387817383 98.28851318359375 51.80243682861328" stroke-width="0.0" fill="rgb(190, 189, 189)" opacity="0.9741977" stroke="rgb(252, 26, 53)" stroke-opacity="0.16130951" stroke-linecap="round" stroke-linejoin="round"/>
    <path d="M 82.32134246826172 60.42387008666992 C 71.9873275756836 71.00651550292969 69.8874740600586 81.32483673095703 59.140602111816406 88.88066864013672 C 54.83972930908203 86.91238403320312 54.28274917602539 83.74044799804688 57.391178131103516 64.665283203125 C 56.33193588256836 56.8141975402832 56.290218353271484 52.476261138916016 68.41044616699219 53.75835037231445 C 88.86536407470703 54.03255844116211 84.2950439453125 52.65360641479492 82.32134246826172 60.42387008666992" stroke-width="0.0" fill="rgb(182, 178, 173)" opacity="0.84953535" stroke="rgb(166, 64, 118)" stroke-opacity="0.2444256" stroke-linecap="round" stroke-linejoin="round"/>
    <path d="M 79.18775177001953 66.6278305053711 C 78.40132141113281 66.2699966430664 78.87887573242188 68.62004852294922 76.39038848876953 68.9168701171875 C 81.39061737060547 67.37379455566406 83.46160888671875 65.59363555908203 81.10025787353516 63.63569641113281 C 81.87983703613281 62.34041976928711 80.57874298095703 54.82645034790039 77.86018371582031 67.986572265625 C 66.97822570800781 81.47681427001953 84.9051513671875 77.77598571777344 79.18775177001953 66.6278305053711" stroke-width="0.0" fill="rgb(46, 92, 171)" opacity="0.89781064" stroke="rgb(40, 28, 167)" stroke-opacity="0.13818295" stroke-linecap="round" stroke-linejoin="round"/>
    <path d="M 111.20621490478516 113.64896392822266 C 108.00057220458984 118.87512969970703 60.2613410949707 119.982177734375 107.14107513427734 117.27098083496094 C 36.653873443603516 158.0507049560547 87.69877624511719 78.78343963623047 49.90265655517578 96.37139892578125 C 56.356834411621094 72.66394805908203 33.91368865966797 63.96821975708008 50.90715408325195 75.09020233154297 C 83.23049926757812 89.58280181884766 72.18708038330078 115.5182876586914 111.20621490478516 113.64896392822266" stroke-width="0.0" fill="rgb(177, 176, 177)" opacity="0.8645109" stroke="rgb(50, 94, 209)" stroke-opacity="0.09710128" stroke-linecap="round" stroke-linejoin="round"/>
    <path d="M 64.25981903076172 67.02392578125 C 58.4144287109375 46.218082427978516 33.568275451660156 55.447818756103516 38.44041442871094 49.753173828125 C 84.52111053466797 53.06972885131836 88.85728454589844 48.059600830078125 65.3338623046875 54.32273864746094 C 70.65341186523438 54.226680755615234 87.97057342529297 63.30125427246094 85.93102264404297 51.71607971191406 C 63.97591781616211 49.4593391418457 64.40409088134766 61.69590759277344 64.25981903076172 67.02392578125" stroke-width="0.0" fill="rgb(0, 0, 0)" opacity="0.94655615" stroke="rgb(213, 24, 248)" stroke-opacity="0.4686512" stroke-linecap="round" stroke-linejoin="round"/>
    <path d="M 81.60640716552734 57.321144104003906 C 64.08184051513672 73.78245544433594 51.34793472290039 70.97986602783203 58.80870056152344 67.02242279052734 C 53.52878952026367 69.52531433105469 51.65092468261719 70.552978515625 47.68410110473633 61.980140686035156 C 35.08993911743164 67.98085021972656 35.82875442504883 48.4984016418457 42.936065673828125 53.55035400390625 C 66.59725952148438 53.011810302734375 78.71736907958984 52.98098373413086 81.60640716552734 57.321144104003906" stroke-width="0.0" fill="rgb(42, 93, 175)" opacity="0.74328464" stroke="rgb(249, 154, 188)" stroke-opacity="0.039187793" stroke-linecap="round" stroke-linejoin="round"/>
    <path d="M 53.41630554199219 7.254919528961182 C -7.429021835327148 37.382896423339844 28.180936813354492 44.154754638671875 -0.04978938028216362 86.52883911132812 C -22.818159103393555 39.01389694213867 -9.066790580749512 29.14899253845215 -7.927485942840576 9.17475700378418 C -7.970118045806885 2.607680559158325 -6.241459846496582 1.0483125448226929 2.992154359817505 -0.9567469358444214 C 21.518442153930664 -0.486895889043808 42.14671325683594 -16.994998931884766 53.41630554199219 7.254919528961182" stroke-width="0.0" fill="rgb(8, 1, 0)" opacity="0.3185892" stroke="rgb(72, 30, 75)" stroke-opacity="0.11872772" stroke-linecap="round" stroke-linejoin="round"/>
    <path d="M 72.23735809326172 12.675253868103027 C 1.0537371635437012 22.099451065063477 41.85026168823242 57.39897537231445 6.637424468994141 68.3308334350586 C 1.0367522239685059 18.261762619018555 41.84208679199219 6.400694847106934 49.07728576660156 4.888916015625 C 12.042318344116211 4.8098626136779785 22.450050354003906 -15.388039588928223 33.10399627685547 -22.00792694091797 C 39.056854248046875 -27.773305892944336 50.46286392211914 -43.560665130615234 72.23735809326172 12.675253868103027" stroke-width="0.0" fill="rgb(130, 128, 128)" opacity="0.79442453" stroke="rgb(81, 105, 16)" stroke-opacity="0.6924721" stroke-linecap="round" stroke-linejoin="round"/>
    <path d="M 82.28093719482422 -5.145474910736084 C 72.03700256347656 53.34497833251953 51.74542236328125 43.41498565673828 54.07526397705078 46.79850769042969 C 36.8773193359375 49.32333755493164 38.248146057128906 54.100765228271484 42.581825256347656 40.26759338378906 C 68.53076934814453 42.78757858276367 42.61944580078125 19.75686264038086 24.31866455078125 53.99104690551758 C 46.39060592651367 3.0046732425689697 86.61181640625 6.3185343742370605 82.28093719482422 -5.145474910736084" stroke-width="0.0" fill="rgb(184, 182, 184)" opacity="0.69623417" stroke="rgb(144, 67, 133)" stroke-opacity="0.09394051" stroke-linecap="round" stroke-linejoin="round"/>
    <path d="M 98.04081726074219 87.16088104248047 C 103.15704345703125 97.21344757080078 80.72151947021484 86.2581787109375 59.74398422241211 101.23148345947266 C 85.74478149414062 85.23623657226562 65.45198059082031 108.40288543701172 50.71220016479492 78.56285095214844 C 31.888307571411133 47.02458190917969 24.132272720336914 64.51605224609375 82.55418395996094 54.44197463989258 C 75.69698333740234 98.5053939819336 63.93446350097656 88.38534545898438 98.04081726074219 87.16088104248047" stroke-width="0.0" fill="rgb(64, 109, 178)" opacity="0.9448462" stroke="rgb(146, 236, 81)" stroke-opacity="0.6674104" stroke-linecap="round" stroke-linejoin="round"/>
    <path d="M 77.69367218017578 70.88951110839844 C 68.82833099365234 94.04065704345703 78.20085906982422 76.56220245361328 62.63463592529297 83.8166275024414 C 57.139564514160156 76.69808959960938 51.46235275268555 68.50332641601562 42.9277458190918 58.04118347167969 C 39.29774856567383 51.25151824951172 30.58216094970703 53.34939956665039 67.68344116210938 52.94157028198242 C 90.84286499023438 56.1737060546875 84.02271270751953 48.57322311401367 77.69367218017578 70.88951110839844" stroke-width="0.0" fill="rgb(188, 187, 187)" opacity="0.9769358" stroke="rgb(33, 182, 73)" stroke-opacity="0.18319136" stroke-linecap="round" stroke-linejoin="round"/>
    <path d="M 129.36058044433594 87.85197448730469 C 102.88275909423828 35.186607360839844 94.64347076416016 54.416812896728516 95.09784698486328 57.15897750854492 C 75.52853393554688 25.840944290161133 66.67806243896484 14.748788833618164 27.24785804748535 36.445953369140625 C 42.83618927001953 -0.6725265383720398 53.226898193359375 12.918981552124023 73.26200103759766 -8.319329261779785 C 123.2745132446289 -12.012578964233398 149.09339904785156 -14.71535873413086 129.36058044433594 87.85197448730469" stroke-width="0.0" fill="rgb(133, 132, 132)" opacity="0.43381524" stroke="rgb(149, 5, 211)" stroke-opacity="0.004695476" stroke-linecap="round" stroke-linejoin="round"/>
    <path d="M 119.30116271972656 68.59060668945312 C 128.365478515625 75.50863647460938 110.89130401611328 56.07032012939453 91.4373779296875 63.83194351196289 C 87.29835510253906 53.71035385131836 80.42377471923828 48.40863037109375 90.50489807128906 40.47646713256836 C 63.24341583251953 32.7037239074707 66.9019775390625 41.999122619628906 92.33738708496094 44.999244689941406 C 123.03627014160156 25.192564010620117 120.41912841796875 39.51178741455078 119.30116271972656 68.59060668945312" stroke-width="0.0" fill="rgb(180, 178, 179)" opacity="0.93299496" stroke="rgb(172, 68, 187)" stroke-opacity="0.96218854" stroke-linecap="round" stroke-linejoin="round"/>
    <path d="M 78.4215316772461 69.09680938720703 C 85.8792724609375 43.24876403808594 88.93754577636719 45.97352600097656 81.43194580078125 66.17828369140625 C 81.09772491455078 66.29410552978516 82.06256866455078 64.01789093017578 81.64923858642578 65.69412231445312 C 81.94454956054688 64.5987548828125 81.56793212890625 66.82463836669922 80.71156311035156 65.64694213867188 C 82.23239135742188 66.01875305175781 79.72956848144531 72.54855346679688 78.4215316772461 69.09680938720703" stroke-width="0.0" fill="rgb(0, 0, 0)" opacity="1.0" stroke="rgb(63, 146, 150)" stroke-opacity="0.5722519" stroke-linecap="round" stroke-linejoin="round"/>
    <path d="M 3.4894192218780518 40.875003814697266 C -2.934175491333008 87.17945098876953 4.252352714538574 20.997501373291016 -6.387210845947266 17.272544860839844 C -8.40412712097168 16.47108268737793 -8.966439247131348 13.858996391296387 -8.19589614868164 9.812167167663574 C -0.22965961694717407 -3.2283337116241455 4.615945816040039 -11.968221664428711 66.65428161621094 4.700954437255859 C 59.135459899902344 19.530353546142578 35.250308990478516 -23.060564041137695 3.4894192218780518 40.875003814697266" stroke-width="0.0" fill="rgb(91, 89, 90)" opacity="0.7626015" stroke="rgb(56, 242, 114)" stroke-opacity="0.84640867" stroke-linecap="round" stroke-linejoin="round"/>
    <path d="M 121.18154907226562 112.18050384521484 C 134.21148681640625 67.20880126953125 110.60859680175781 69.9305648803711 116.19351196289062 65.77281951904297 C 130.3422393798828 77.2340087890625 124.38829803466797 84.11772918701172 126.85054016113281 79.03668975830078 C 127.28163146972656 100.96297454833984 126.43231201171875 101.96636199951172 123.9842529296875 92.37206268310547 C 124.25267028808594 115.77590942382812 75.09844970703125 113.8401870727539 121.18154907226562 112.18050384521484" stroke-width="0.0" fill="rgb(0, 0, 0)" opacity="1.0" stroke="rgb(178, 75, 207)" stroke-opacity="0.39650574" stroke-linecap="round" stroke-linejoin="round"/>
    <path d="M 14.949631690979004 120.27677917480469 C 6.070442199707031 104.49515533447266 10.551671028137207 111.84352111816406 13.736303329467773 135.56201171875 C -5.320740699768066 126.93657684326172 -3.4486446380615234 120.66712951660156 -3.241631031036377 110.5111083984375 C -8.253228187561035 103.52902221679688 -6.539204120635986 104.48896789550781 0.2902211546897888 107.73674774169922 C 10.4049711227417 110.52289581298828 8.127312660217285 112.29156494140625 14.949631690979004 120.27677917480469" stroke-width="0.0" fill="rgb(39, 42, 61)" opacity="0.9794029" stroke="rgb(224, 148, 224)" stroke-opacity="0.6925316" stroke-linecap="round" stroke-linejoin="round"/>
    <path d="M 32.53770446777344 113.79961395263672 C 19.119400024414062 115.6268081665039 17.685171127319336 122.21783447265625 14.54253101348877 123.88890075683594 C 2.7001490592956543 122.854736328125 17.347606658935547 109.03654479980469 -3.7881228923797607 108.21320343017578 C -3.2623345851898193 99.37347412109375 -4.288724899291992 94.78447723388672 1.3661073446273804 93.66304016113281 C 5.333288669586182 106.52950286865234 16.93231773376465 114.34113311767578 32.53770446777344 113.79961395263672" stroke-width="0.0" fill="rgb(79, 77, 81)" opacity="0.7684449" stroke="rgb(184, 127, 243)" stroke-opacity="0.6439902" stroke-linecap="round" stroke-linejoin="round"/>
    <path d="M 24.423494338989258 91.14420318603516 C 20.258264541625977 98.92066192626953 14.992573738098145 109.98197174072266 16.890701293945312 106.51338958740234 C 16.420120239257812 108.8057861328125 10.244375228881836 101.93098449707031 7.506419658660889 97.32893371582031 C -1.205193042755127 79.7132339477539 7.113498687744141 89.60929870605469 25.255041122436523 85.42688751220703 C 23.40750503540039 89.30484008789062 12.477428436279297 102.95521545410156 24.423494338989258 91.14420318603516" stroke-width="0.0" fill="rgb(120, 121, 119)" opacity="1.0" stroke="rgb(108, 154, 4)" stroke-opacity="0.30157483" stroke-linecap="round" stroke-linejoin="round"/>
    <path d="M 42.223472595214844 109.50465393066406 C 75.43949127197266 125.421142578125 46.55315399169922 136.6747589111328 5.819560527801514 135.9263153076172 C 2.8127856254577637 135.80178833007812 0.927069365978241 134.2559814453125 0.675346314907074 131.52877807617188 C 6.5924906730651855 114.6138687133789 7.432918548583984 112.19664764404297 8.886302947998047 114.5560073852539 C 29.727725982666016 116.02241516113281 35.97244644165039 110.24256896972656 42.223472595214844 109.50465393066406" stroke-width="0.0" fill="rgb(106, 104, 103)" opacity="0.7082414" stroke="rgb(168, 73, 157)" stroke-opacity="0.4287687" stroke-linecap="round" stroke-linejoin="round"/>
    <path d="M 42.557735443115234 34.6641845703125 C 40.59712600708008 37.78544616699219 38.894561767578125 36.99281692504883 47.44860076904297 36.09866714477539 C 47.739166259765625 35.9107666015625 44.02828598022461 36.04036331176758 37.82435989379883 37.05348205566406 C 46.61888122558594 36.94645690917969 48.624080657958984 36.2784423828125 40.18849563598633 41.128787994384766 C 39.74953079223633 39.235618591308594 36.20730209350586 40.61838912963867 42.557735443115234 34.6641845703125" stroke-width="0.0" fill="rgb(0, 0, 0)" opacity="0.8967675" stroke="rgb(34, 76, 145)" stroke-opacity="0.59087276" stroke-linecap="round" stroke-linejoin="round"/>
    <path d="M 15.020658493041992 131.17062377929688 C 11.814024925231934 134.8470458984375 9.688408851623535 136.43678283691406 6.855238437652588 136.6549072265625 C -1.5 130.3301239013672 -3.330127000808716 128.5 -9.702300071716309 120.1567153930664 C -10.14669132232666 116.61651611328125 -9.767696380615234 112.67761993408203 1.3416236639022827 97.99559783935547 C 14.994220733642578 120.29647064208984 33.024410247802734 119.66732025146484 15.020658493041992 131.17062377929688" stroke-width="0.0" fill="rgb(72, 70, 68)" opacity="0.84560084" stroke="rgb(146, 166, 166)" stroke-opacity="0.43141845" stroke-linecap="round" stroke-linejoin="round"/>
    <path d="M 97.5429458618164 41.2198600769043 C 101.35105895996094 43.903751373291016 85.42054748535156 46.582279205322266 85.56977081298828 44.173038482666016 C 88.0154800415039 47.526023864746094 80.01118469238281 42.12974166870117 79.82597351074219 41.07111740112305 C 79.76839447021484 39.38823318481445 83.70344543457031 40.45167922973633 83.9686508178711 39.90814971923828 C 83.58221435546875 42.17875671386719 102.18885040283203 39.75668716430664 97.5429458618164 41.2198600769043" stroke-width="0.0" fill="rgb(236, 0, 29)" opacity="0.99907744" stroke="rgb(228, 93, 111)" stroke-opacity="0.89192337" stroke-linecap="round" stroke-linejoin="round"/>
    <path d="M 51.65744400024414 87.14179229736328 C 49.125545501708984 87.35749053955078 49.63669204711914 82.87352752685547 49.55898666381836 81.56410217285156 C 50.393184661865234 81.2882308959961 49.043880462646484 80.60162353515625 49.80915451049805 85.60612487792969 C 48.02159881591797 87.04037475585938 50.50135803222656 88.28948211669922 50.32449722290039 85.8510971069336 C 28.633743286132812 86.96155548095703 30.530048370361328 86.45076751708984 51.65744400024414 87.14179229736328" stroke-width="0.0" fill="rgb(14, 21, 16)" opacity="0.79359156" stroke="rgb(205, 179, 25)" stroke-opacity="0.9194826" stroke-linecap="round" stroke-linejoin="round"/>
    <path d="M 129.355224609375 94.34169006347656 C 145.49058532714844 90.01724243164062 119.27725219726562 66.99881744384766 107.0616226196289 59.73847198486328 C 117.27198791503906 37.294227600097656 79.729248046875 9.910340309143066 62.0416145324707 21.643827438354492 C 15.57523250579834 -2.438344955444336 79.41219329833984 -8.633378982543945 93.03568267822266 0.7980002760887146 C 106.05414581298828 1.9791289567947388 137.30343627929688 2.297398328781128 129.355224609375 94.34169006347656" stroke-width="0.0" fill="rgb(125, 123, 123)" opacity="0.82178605" stroke="rgb(182, 254, 38)" stroke-opacity="0.86812603" stroke-linecap="round" stroke-linejoin="round"/>
    <path d="M 25.91632652282715 120.50688934326172 C 39.54772186279297 125.68820190429688 16.985925674438477 129.07411193847656 16.56427574157715 129.85360717773438 C 13.049590110778809 123.15460968017578 13.816423416137695 108.31493377685547 18.230039596557617 121.47760772705078 C -0.643654465675354 101.66461181640625 -2.1513123512268066 102.23540496826172 7.828976154327393 111.72206115722656 C 19.203880310058594 113.72211456298828 19.63961410522461 116.96656799316406 25.91632652282715 120.50688934326172" stroke-width="0.0" fill="rgb(84, 83, 84)" opacity="0.59232175" stroke="rgb(41, 156, 31)" stroke-opacity="0.8480082" stroke-linecap="round" stroke-linejoin="round"/>
    <path d="M 17.23668098449707 112.0844955444336 C 46.23862838745117 122.83824920654297 52.43354034423828 133.46002197265625 13.807747840881348 126.26559448242188 C -7.970057010650635 112.01111602783203 -9.121537208557129 97.86881256103516 18.53917694091797 125.21334838867188 C -8.071229934692383 110.20404815673828 -6.087111949920654 111.67578125 5.480733871459961 109.56953430175781 C 2.6385176181793213 95.7845230102539 4.709162712097168 106.08689880371094 17.23668098449707 112.0844955444336" stroke-width="0.0" fill="rgb(97, 95, 97)" opacity="0.6750757" stroke="rgb(205, 145, 103)" stroke-opacity="0.069166996" stroke-linecap="round" stroke-linejoin="round"/>
    <path d="M 24.48665428161621 124.28845977783203 C 16.615737915039062 132.62274169921875 14.544583320617676 134.32501220703125 16.272563934326172 132.6068572998047 C 5.44464635848999 120.22297668457031 -10.875892639160156 122.7603988647461 -13.86035442352295 123.61040496826172 C -0.26013392210006714 113.92890167236328 -2.9809465408325195 115.2001724243164 -5.075539588928223 111.86054992675781 C 7.350109100341797 108.32931518554688 7.917641639709473 117.17967987060547 24.48665428161621 124.28845977783203" stroke-width="0.0" fill="rgb(79, 77, 78)" opacity="0.69691736" stroke="rgb(177, 115, 184)" stroke-opacity="0.8663823" stroke-linecap="round" stroke-linejoin="round"/>
    <path d="M 90.96769714355469 42.4547119140625 C 86.25806427001953 45.41716766357422 87.16523742675781 43.631656646728516 81.11780548095703 39.885894775390625 C 83.42777252197266 43.403053283691406 78.10026550292969 37.108360290527344 83.99490356445312 41.95214080810547 C 93.08482360839844 48.44889831542969 86.92607879638672 38.57270812988281 83.92866516113281 51.03789520263672 C 86.90978240966797 55.48810577392578 86.25306701660156 42.603546142578125 90.96769714355469 42.4547119140625" stroke-width="0.0" fill="rgb(255, 19, 46)" opacity="0.7306056" stroke="rgb(248, 218, 2)" stroke-opacity="0.35997805" stroke-linecap="round" stroke-linejoin="round"/>
    <path d="M 45.01020431518555 75.51596069335938 C 47.69332504272461 66.2411880493164 28.715633392333984 63.06949234008789 37.23015594482422 61.201602935791016 C 39.907833099365234 65.24842834472656 34.30794143676758 59.1260986328125 34.681007385253906 63.59910583496094 C 34.557891845703125 62.14305114746094 48.04642105102539 61.78584289550781 21.682357788085938 64.31742095947266 C 31.223020553588867 63.32130813598633 41.69654846191406 67.12380981445312 45.01020431518555 75.51596069335938" stroke-width="0.0" fill="rgb(0, 0, 0)" opacity="0.9881259" stroke="rgb(186, 43, 132)" stroke-opacity="0.05433799" stroke-linecap="round" stroke-linejoin="round"/>
    <path d="M 61.63657760620117 113.5527572631836 C 58.01951217651367 143.75401306152344 34.38094711303711 138.16500854492188 41.12845230102539 139.99961853027344 C 55.84322738647461 117.74199676513672 37.852317810058594 101.5425796508789 33.11476516723633 120.06507873535156 C 14.285135269165039 111.97563934326172 24.554109573364258 121.16249084472656 19.51280975341797 111.95512390136719 C 40.112606048583984 117.4189224243164 35.801979064941406 100.1988754272461 61.63657760620117 113.5527572631836" stroke-width="0.0" fill="rgb(116, 114, 116)" opacity="0.6226583" stroke="rgb(50, 4, 202)" stroke-opacity="0.22392468" stroke-linecap="round" stroke-linejoin="round"/>
    <path d="M 22.151308059692383 90.02317810058594 C 28.562950134277344 97.0973892211914 1.6089729070663452 99.80437469482422 7.027136325836182 97.39305114746094 C 22.099403381347656 100.70328521728516 27.557729721069336 83.19914245605469 14.79546070098877 108.52701568603516 C 8.165738105773926 94.33543395996094 1.947467565536499 100.65393829345703 19.2811336517334 92.93079376220703 C 0.09472157806158066 101.54239654541016 5.2610273361206055 97.62820434570312 22.151308059692383 90.02317810058594" stroke-width="0.0" fill="rgb(255, 255, 255)" opacity="0.8940514" stroke="rgb(88, 236, 179)" stroke-opacity="0.03183893" stroke-linecap="round" stroke-linejoin="round"/>
    <path d="M 95.15223693847656 2.0479958057403564 C 46.095340728759766 -3.3390049934387207 67.69417572021484 24.928020477294922 129.03819274902344 27.25564193725586 C 126.13763427734375 -20.478452682495117 12.734088897705078 -13.763611793518066 -0.8000666499137878 70.46516418457031 C -10.704485893249512 -10.006321907043457 77.667236328125 -11.036772727966309 75.10013580322266 -5.726231098175049 C 99.38782501220703 -0.09024184942245483 103.06201171875 3.722537040710449 95.15223693847656 2.0479958057403564" stroke-width="0.0" fill="rgb(116, 114, 113)" opacity="0.47169438" stroke="rgb(41, 158, 147)" stroke-opacity="0.23789282" stroke-linecap="round" stroke-linejoin="round"/>
    <path d="M 111.99421691894531 63.807247161865234 C 82.8030776977539 55.591278076171875 109.65730285644531 1.2134132385253906 107.4654541015625 31.16514015197754 C 26.898357391357422 39.80794906616211 44.90085220336914 19.037349700927734 20.435287475585938 63.13213348388672 C -3.0267252922058105 19.188486099243164 114.7546157836914 1.281808853149414 79.72157287597656 10.693650245666504 C 75.4466323852539 2.2136096954345703 131.323486328125 7.57129430770874 111.99421691894531 63.807247161865234" stroke-width="0.0" fill="rgb(156, 155, 155)" opacity="0.60214865" stroke="rgb(238, 156, 136)" stroke-opacity="0.58991" stroke-linecap="round" stroke-linejoin="round"/>
    <path d="M 136.1322021484375 81.02317810058594 C 136.83631896972656 136.00404357910156 135.0052490234375 137.83282470703125 110.56867218017578 144.99563598632812 C 72.78451538085938 172.28701782226562 56.24358367919922 185.2303466796875 55.00008773803711 118.5462417602539 C 86.82508087158203 102.29578399658203 106.36841583251953 125.72400665283203 124.03502655029297 100.30284881591797 C 137.98574829101562 70.92493438720703 100.49169158935547 58.035240173339844 136.1322021484375 81.02317810058594" stroke-width="0.0" fill="rgb(103, 102, 102)" opacity="0.8587162" stroke="rgb(186, 79, 101)" stroke-opacity="0.20984375" stroke-linecap="round" stroke-linejoin="round"/>
    <path d="M 101.07595825195312 75.448974609375 C 100.43156433105469 73.74626922607422 101.93771362304688 67.81950378417969 99.44144439697266 83.58241271972656 C 100.77870178222656 62.331783294677734 99.23951721191406 68.64898681640625 101.13031005859375 72.30801391601562 C 99.97264099121094 70.47582244873047 100.0862808227539 62.63975524902344 100.60757446289062 64.03672790527344 C 101.07352447509766 60.259037017822266 100.99921417236328 75.40364074707031 101.07595825195312 75.448974609375" stroke-width="0.0" fill="rgb(86, 95, 97)" opacity="0.43830562" stroke="rgb(47, 240, 188)" stroke-opacity="0.49045882" stroke-linecap="round" stroke-linejoin="round"/>
    <path d="M 35.814754486083984 115.79261016845703 C 61.24442672729492 127.45822143554688 37.9428825378418 125.77379608154297 13.121720314025879 134.9486846923828 C 10.611827850341797 134.3006134033203 9.454767227172852 132.54930114746094 23.56229019165039 128.7769775390625 C -21.7464656829834 102.09675598144531 1.4277511835098267 107.84573364257812 20.005306243896484 122.4955062866211 C 3.231248378753662 101.77498626708984 7.150485515594482 112.65406036376953 35.814754486083984 115.79261016845703" stroke-width="0.0" fill="rgb(99, 97, 97)" opacity="0.33994138" stroke="rgb(57, 64, 14)" stroke-opacity="0.43441662" stroke-linecap="round" stroke-linejoin="round"/>
    <path d="M 40.393733978271484 38.01240921020508 C 46.104270935058594 38.164058685302734 41.814456939697266 37.07368850708008 41.39427947998047 39.55643081665039 C 41.710758209228516 37.876487731933594 44.49822235107422 37.12518310546875 41.1351432800293 38.12814712524414 C 43.92536926269531 37.1541862487793 49.734840393066406 38.856327056884766 47.54208755493164 35.15767288208008 C 31.561800003051758 33.06233215332031 35.28416061401367 44.947139739990234 40.393733978271484 38.01240921020508" stroke-width="0.0" fill="rgb(235, 12, 37)" opacity="1.0" stroke="rgb(79, 177, 96)" stroke-opacity="0.17960368" stroke-linecap="round" stroke-linejoin="round"/>
    <path d="M 4.067894458770752 108.7791976928711 C 7.085487365722656 110.54588317871094 8.71852970123291 109.55303192138672 -15.546924591064453 113.35232543945312 C -6.3594794273376465 114.24534606933594 -8.124062538146973 112.39686584472656 -11.401844024658203 106.05506896972656 C -17.576171875 88.03662109375 -12.744613647460938 87.9546127319336 1.0019221305847168 90.47801208496094 C 4.0356245040893555 104.98615264892578 7.8744425773620605 108.53497314453125 4.067894458770752 108.7791976928711" stroke-width="0.0" fill="rgb(93, 91, 94)" opacity="0.8519505" stroke="rgb(6, 17, 173)" stroke-opacity="0.45369685" stroke-linecap="round" stroke-linejoin="round"/>
    <path d="M 112.78167724609375 58.16707229614258 C 102.92826843261719 80.85400390625 112.49494171142578 17.307859420776367 65.33900451660156 22.4085636138916 C 63.59116744995117 22.958372116088867 62.57320022583008 8.285511016845703 17.46858024597168 40.881507873535156 C 38.48063278198242 6.199284553527832 78.96346282958984 5.355422496795654 91.38385009765625 -1.419054627418518 C 67.69207000732422 10.015003204345703 106.57173156738281 7.241527557373047 112.78167724609375 58.16707229614258" stroke-width="0.0" fill="rgb(149, 147, 146)" opacity="0.53300303" stroke="rgb(136, 228, 252)" stroke-opacity="0.21689698" stroke-linecap="round" stroke-linejoin="round"/>
    <path d="M 95.97946166992188 113.0604476928711 C 65.27300262451172 138.95126342773438 31.320650100708008 97.38095092773438 25.760814666748047 152.68663024902344 C 21.763612747192383 140.46229553222656 27.74381446838379 133.82040405273438 23.196435928344727 133.39341735839844 C 64.9493179321289 150.14784240722656 51.436588287353516 102.87693786621094 31.11357307434082 113.932861328125 C 46.437652587890625 104.9784927368164 55.668975830078125 96.44249725341797 95.97946166992188 113.0604476928711" stroke-width="0.0" fill="rgb(140, 138, 138)" opacity="0.6316082" stroke="rgb(169, 67, 5)" stroke-opacity="0.7583786" stroke-linecap="round" stroke-linejoin="round"/>
    <path d="M 147.7394561767578 53.11687088012695 C 88.22601318359375 19.17258644104004 65.14912414550781 -17.53366470336914 65.66493225097656 25.443994522094727 C 82.3542709350586 28.569625854492188 75.7504653930664 29.137409210205078 64.84689331054688 25.202102661132812 C 76.59980773925781 0.7327340841293335 55.93817138671875 -13.229360580444336 105.58679962158203 -7.300297737121582 C 105.83341217041016 -2.112346649169922 128.36508178710938 -4.2189717292785645 147.7394561767578 53.11687088012695" stroke-width="0.0" fill="rgb(88, 86, 87)" opacity="0.68712294" stroke="rgb(81, 97, 150)" stroke-opacity="0.8310484" stroke-linecap="round" stroke-linejoin="round"/>
    <path d="M 0.4878104031085968 118.2259292602539 C 7.111547470092773 119.20941162109375 7.001549243927002 120.25650024414062 -5.507717609405518 118.26799011230469 C 2.614259719848633 113.08975219726562 -4.5200934410095215 103.45384216308594 -7.53249979019165 103.56669616699219 C -7.448936939239502 105.26880645751953 -5.435698509216309 103.7506332397461 -3.5820465087890625 102.73306274414062 C 7.747926235198975 106.68379974365234 5.65848970413208 115.57048034667969 0.4878104031085968 118.2259292602539" stroke-width="0.0" fill="rgb(84, 81, 81)" opacity="0.76027495" stroke="rgb(160, 222, 69)" stroke-opacity="0.7980468" stroke-linecap="round" stroke-linejoin="round"/>
    <path d="M 83.68046569824219 61.5193977355957 C 83.25153350830078 54.87925338745117 80.74067687988281 75.1874771118164 87.11129760742188 64.84840393066406 C 85.40547943115234 55.01262664794922 90.50457000732422 60.15081787109375 87.03809356689453 51.88503646850586 C 94.22028350830078 56.54281234741211 96.37310028076172 60.98938751220703 87.85419464111328 57.50811767578125 C 84.94261169433594 62.95402526855469 86.85725402832031 48.437355041503906 83.68046569824219 61.5193977355957" stroke-width="0.0" fill="rgb(183, 182, 182)" opacity="0.82384723" stroke="rgb(47, 242, 175)" stroke-opacity="0.21550767" stroke-linecap="round" stroke-linejoin="round"/>
    <path d="M 132.94349670410156 86.9247055053711 C 100.41972351074219 96.55184936523438 108.29505920410156 72.84510803222656 110.29238891601562 90.80876922607422 C 96.0594253540039 84.80097961425781 106.66676330566406 86.59459686279297 102.76638793945312 84.81407928466797 C 132.06666564941406 47.53485870361328 95.55901336669922 83.03270721435547 102.97611999511719 99.08214569091797 C 98.75857543945312 78.02183532714844 115.5612564086914 95.66537475585938 132.94349670410156 86.9247055053711" stroke-width="0.0" fill="rgb(14, 14, 17)" opacity="0.8635885" stroke="rgb(241, 186, 64)" stroke-opacity="0.21331197" stroke-linecap="round" stroke-linejoin="round"/>
    <path d="M 85.55365753173828 29.02647590637207 C 91.21774291992188 39.96712112426758 109.49900817871094 43.998443603515625 76.3570785522461 38.9759407043457 C 34.9658317565918 35.06406021118164 54.22234344482422 54.06606674194336 47.98589324951172 30.33594512939453 C 70.19232177734375 32.08296203613281 79.68692779541016 12.90288257598877 31.559720993041992 31.957351684570312 C 65.08106231689453 19.642019271850586 67.72653198242188 26.03234100341797 85.55365753173828 29.02647590637207" stroke-width="0.0" fill="rgb(175, 173, 174)" opacity="0.7105038" stroke="rgb(132, 6, 52)" stroke-opacity="0.42468548" stroke-linecap="round" stroke-linejoin="round"/>
    <path d="M 103.14470672607422 63.573604583740234 C 101.24053192138672 63.379146575927734 98.60348510742188 57.02042007446289 100.80210876464844 74.44364929199219 C 101.8414077758789 55.793312072753906 99.14453887939453 64.22621154785156 100.1368408203125 62.35691452026367 C 101.52381134033203 63.935020446777344 102.0940933227539 62.4181022644043 99.97644805908203 63.115535736083984 C 100.07719421386719 64.47455596923828 102.01968383789062 61.91830062866211 103.14470672607422 63.573604583740234" stroke-width="0.0" fill="rgb(0, 7, 8)" opacity="0.7609753" stroke="rgb(95, 118, 70)" stroke-opacity="0.58678436" stroke-linecap="round" stroke-linejoin="round"/>
    <path d="M 61.02788543701172 78.7188720703125 C 63.7185173034668 78.28201293945312 60.09132766723633 82.24694061279297 71.3291244506836 80.38137817382812 C 68.5676498413086 76.80657958984375 64.05048370361328 73.91019439697266 64.33834075927734 75.61802673339844 C 64.34735107421875 81.8984603881836 64.25233459472656 78.63645935058594 64.20639038085938 73.8763198852539 C 67.63700103759766 74.0069351196289 66.1893539428711 78.75045013427734 61.02788543701172 78.7188720703125" stroke-width="0.0" fill="rgb(183, 182, 184)" opacity="0.90330285" stroke="rgb(220, 29, 131)" stroke-opacity="0.13206811" stroke-linecap="round" stroke-linejoin="round"/>
    <path d="M 26.136396408081055 112.09532928466797 C 25.5123233795166 92.30963134765625 24.497350692749023 107.05935668945312 25.290925979614258 111.38116455078125 C 25.110715866088867 112.54156494140625 27.159339904785156 110.83104705810547 25.566312789916992 112.38941955566406 C 25.764663696289062 112.37837219238281 26.91950798034668 109.72467041015625 24.86935043334961 111.1314926147461 C 26.00246810913086 112.868408203125 24.575117111206055 111.42168426513672 26.136396408081055 112.09532928466797" stroke-width="0.0" fill="rgb(44, 56, 61)" opacity="0.9030066" stroke="rgb(182, 100, 144)" stroke-opacity="0.18327984" stroke-linecap="round" stroke-linejoin="round"/>
    <path d="M 39.34180450439453 61.438602447509766 C 34.91398239135742 63.85841751098633 35.5283317565918 63.868370056152344 38.60139846801758 57.97954177856445 C 39.674407958984375 64.13885498046875 34.863525390625 59.795753479003906 42.81273651123047 69.0202407836914 C 34.334449768066406 61.35303497314453 35.52244186401367 64.71068572998047 34.940086364746094 59.185813903808594 C 35.53874588012695 65.71314239501953 35.92594909667969 62.82256317138672 39.34180450439453 61.438602447509766" stroke-width="0.0" fill="rgb(40, 90, 176)" opacity="0.73370695" stroke="rgb(36, 124, 90)" stroke-opacity="0.94043195" stroke-linecap="round" stroke-linejoin="round"/>
    <path d="M 83.34934997558594 70.43402099609375 C 84.47119903564453 71.38273620605469 82.579833984375 67.30359649658203 94.11817169189453 64.54632568359375 C 91.07628631591797 65.65052032470703 85.18253326416016 66.68734741210938 84.0513916015625 69.94210815429688 C 84.75828552246094 67.86566925048828 84.52276611328125 69.38048553466797 83.46006774902344 70.71344757080078 C 82.22089385986328 69.85481262207031 85.26612091064453 71.87196350097656 83.34934997558594 70.43402099609375" stroke-width="0.0" fill="rgb(5, 4, 4)" opacity="0.85284734" stroke="rgb(195, 190, 230)" stroke-opacity="0.08342244" stroke-linecap="round" stroke-linejoin="round"/>
    <path d="M 94.0165786743164 92.24154663085938 C 82.6836929321289 94.98725128173828 90.3108901977539 95.46803283691406 88.40638732910156 94.78377532958984 C 83.09622955322266 96.56425476074219 73.79712677001953 89.9280014038086 79.54402160644531 96.73179626464844 C 87.67707824707031 96.540771484375 81.94670104980469 95.8011474609375 86.9043960571289 91.34835815429688 C 93.37355041503906 93.34596252441406 83.00689697265625 91.38665771484375 94.0165786743164 92.24154663085938" stroke-width="0.0" fill="rgb(190, 191, 192)" opacity="1.0" stroke="rgb(140, 149, 245)" stroke-opacity="0.29214752" stroke-linecap="round" stroke-linejoin="round"/>
    <path d="M 108.97514343261719 85.2162094116211 C 106.48609161376953 84.36492156982422 110.97708129882812 86.9166488647461 111.16691589355469 94.75727081298828 C 107.5980224609375 97.1615219116211 100.5796127319336 94.67546081542969 108.93666076660156 100.85359191894531 C 95.609130859375 83.0123291015625 114.82183074951172 91.17865753173828 115.64861297607422 85.44595336914062 C 113.27434539794922 91.55606079101562 108.2789077758789 84.17804718017578 108.97514343261719 85.2162094116211" stroke-width="0.0" fill="rgb(255, 255, 255)" opacity="1.0" stroke="rgb(61, 25, 4)" stroke-opacity="0.9295293" stroke-linecap="round" stroke-linejoin="round"/>
    <path d="M 87.6417007446289 72.17985534667969 C 90.02133178710938 66.92091369628906 86.86041259765625 68.97119903564453 83.5336685180664 83.8506088256836 C 83.96501922607422 79.29254150390625 81.02357482910156 79.68707275390625 88.84691619873047 70.29651641845703 C 88.02794647216797 70.531494140625 86.35307312011719 62.233306884765625 82.8822250366211 69.65647888183594 C 84.84881591796875 63.025638580322266 89.58406829833984 68.51509094238281 87.6417007446289 72.17985534667969" stroke-width="0.0" fill="rgb(244, 248, 248)" opacity="0.6390126" stroke="rgb(170, 200, 71)" stroke-opacity="0.58641016" stroke-linecap="round" stroke-linejoin="round"/>
    <path d="M 83.53291320800781 80.56854248046875 C 89.57853698730469 88.04505157470703 93.31807708740234 83.52152252197266 79.09365844726562 85.67030334472656 C 98.34881591796875 86.54615783691406 84.90582275390625 85.57505798339844 85.40292358398438 80.95767211914062 C 83.14762115478516 85.00531768798828 79.6471939086914 82.53085327148438 76.27313232421875 76.57444763183594 C 81.92522430419922 86.78540802001953 86.0299072265625 81.92523193359375 83.53291320800781 80.56854248046875" stroke-width="0.0" fill="rgb(138, 138, 129)" opacity="0.3433173" stroke="rgb(16, 123, 249)" stroke-opacity="0.87650526" stroke-linecap="round" stroke-linejoin="round"/>
    <path d="M 2.8683810234069824 90.05236053466797 C 4.621629238128662 58.73806381225586 18.570911407470703 82.72608947753906 7.340864181518555 84.22769927978516 C -1.6250759363174438 82.46112060546875 8.692181587219238 82.80950927734375 7.366396427154541 82.9857406616211 C 6.695629596710205 81.4491195678711 9.584814071655273 78.28839111328125 17.236482620239258 76.71524810791016 C 11.84128189086914 79.12744140625 8.837910652160645 79.11052703857422 2.8683810234069824 90.05236053466797" stroke-width="0.0" fill="rgb(229, 228, 227)" opacity="0.6081657" stroke="rgb(86, 245, 59)" stroke-opacity="0.9493188" stroke-linecap="round" stroke-linejoin="round"/>
    <path d="M 46.89730453491211 75.70502471923828 C 44.00502014160156 68.78752136230469 45.05744934082031 71.80307006835938 45.744075775146484 70.78128051757812 C 44.67112731933594 68.64796447753906 46.415435791015625 66.12451171875 40.06648635864258 71.67278289794922 C 42.61717224121094 69.51236724853516 45.727378845214844 66.35011291503906 45.16175842285156 70.3797378540039 C 42.624671936035156 69.12344360351562 45.420204162597656 71.45976257324219 46.89730453491211 75.70502471923828" stroke-width="0.0" fill="rgb(17, 49, 111)" opacity="0.48181662" stroke="rgb(240, 203, 160)" stroke-opacity="0.87428796" stroke-linecap="round" stroke-linejoin="round"/>
    <path d="M 88.72453308105469 90.4261474609375 C 98.05245971679688 86.63512420654297 95.76971435546875 92.26889038085938 100.77324676513672 90.6829833984375 C 93.87720489501953 88.56201171875 88.4506607055664 89.87946319580078 88.36482238769531 89.46439361572266 C 86.09020233154297 88.40210723876953 92.46826171875 91.27404022216797 89.94294738769531 89.14094543457031 C 92.34831237792969 95.46053314208984 96.83966827392578 92.06348419189453 88.72453308105469 90.4261474609375" stroke-width="0.0" fill="rgb(53, 92, 151)" opacity="0.98842156" stroke="rgb(74, 216, 157)" stroke-opacity="0.013236858" stroke-linecap="round" stroke-linejoin="round"/>
    <path d="M 83.97918701171875 77.19551849365234 C 80.51740264892578 74.87761688232422 81.72631072998047 84.4825439453125 78.60295104980469 86.3973388671875 C 83.96237182617188 79.6556167602539 82.22686767578125 84.84069061279297 83.85259246826172 83.55587005615234 C 81.74256134033203 81.69579315185547 81.29855346679688 75.90229797363281 82.7630615234375 80.74830627441406 C 85.36937713623047 86.3717269897461 88.77198791503906 82.0262451171875 83.97918701171875 77.19551849365234" stroke-width="0.0" fill="rgb(255, 255, 255)" opacity="0.7395391" stroke="rgb(88, 37, 250)" stroke-opacity="0.4783703" stroke-linecap="round" stroke-linejoin="round"/>
    <path d="M 89.17318725585938 85.386962890625 C 87.8766098022461 84.91020965576172 93.7579574584961 94.24186706542969 79.2612075805664 91.99752044677734 C 79.07341003417969 91.26768493652344 74.78128814697266 92.25857543945312 87.8959732055664 91.87325286865234 C 91.21874237060547 87.8790283203125 90.96379089355469 83.31515502929688 80.5327377319336 85.42728424072266 C 80.85144805908203 82.90064239501953 77.93317413330078 87.69728088378906 89.17318725585938 85.386962890625" stroke-width="0.0" fill="rgb(30, 36, 43)" opacity="0.8413977" stroke="rgb(126, 163, 93)" stroke-opacity="0.13690028" stroke-linecap="round" stroke-linejoin="round"/>
    <path d="M 39.7100830078125 43.68041229248047 C 39.098907470703125 46.078575134277344 37.6527099609375 46.825157165527344 39.51692581176758 44.00630569458008 C 41.90850830078125 41.51163864135742 40.49388885498047 40.80702209472656 39.952457427978516 44.77024459838867 C 39.70438003540039 48.566001892089844 38.871826171875 46.27782440185547 37.67219161987305 38.11553955078125 C 37.013267517089844 47.18903732299805 36.76772689819336 49.69508743286133 39.7100830078125 43.68041229248047" stroke-width="0.0" fill="rgb(0, 0, 0)" opacity="0.8662994" stroke="rgb(209, 48, 130)" stroke-opacity="0.22431703" stroke-linecap="round" stroke-linejoin="round"/>
    <path d="M 28.609983444213867 85.73103332519531 C 21.881811141967773 80.13935852050781 26.394189834594727 82.77208709716797 27.12735939025879 90.74093627929688 C 32.14322280883789 87.84352111816406 26.095195770263672 85.73439025878906 27.53855323791504 89.40487670898438 C 25.061010360717773 80.93264770507812 25.246618270874023 85.14350128173828 26.96503448486328 85.2288589477539 C 28.521730422973633 87.99629211425781 30.173765182495117 89.76826477050781 28.609983444213867 85.73103332519531" stroke-width="0.0" fill="rgb(0, 0, 0)" opacity="0.87219876" stroke="rgb(24, 219, 248)" stroke-opacity="0.9608347" stroke-linecap="round" stroke-linejoin="round"/>
    <path d="M 26.303911209106445 -2.1061959266662598 C 16.634031295776367 6.181089401245117 -0.8935039043426514 19.895849227905273 0.4512527883052826 29.026762008666992 C -15.440322875976562 19.084888458251953 -9.726012229919434 10.866669654846191 -5.315439224243164 0.7382364869117737 C -4.330127239227295 -2.5 -2.5 -4.330127239227295 1.810403823852539 -6.003641128540039 C 7.773942947387695 -8.331591606140137 9.733858108520508 -3.7995553016662598 26.303911209106445 -2.1061959266662598" stroke-width="0.0" fill="rgb(85, 83, 84)" opacity="0.8201396" stroke="rgb(231, 197, 84)" stroke-opacity="0.08110139" stroke-linecap="round" stroke-linejoin="round"/>
    <path d="M 50.200218200683594 44.474327087402344 C 54.997901916503906 42.19327163696289 52.505245208740234 43.36090850830078 51.5182991027832 45.08760070800781 C 62.54912567138672 30.227327346801758 63.726383209228516 37.26724624633789 53.8682975769043 45.82841110229492 C 54.51901626586914 45.28179931640625 56.54810333251953 43.331844329833984 56.981143951416016 42.79595947265625 C 56.09576416015625 32.48808288574219 50.751564025878906 38.57974624633789 50.200218200683594 44.474327087402344" stroke-width="0.0" fill="rgb(182, 181, 180)" opacity="0.8416187" stroke="rgb(103, 59, 33)" stroke-opacity="0.053427182" stroke-linecap="round" stroke-linejoin="round"/>
    <path d="M 47.3612060546875 73.84020233154297 C 48.679229736328125 74.30118560791016 44.59575653076172 73.45327758789062 47.5137939453125 72.6001968383789 C 47.12993240356445 73.02111053466797 46.29572677612305 71.53804016113281 48.0150260925293 77.1913070678711 C 46.511478424072266 71.69937133789062 47.694339752197266 74.0664291381836 49.52405548095703 74.5760498046875 C 48.55834197998047 74.26509094238281 47.24531555175781 73.24579620361328 47.3612060546875 73.84020233154297" stroke-width="0.0" fill="rgb(52, 60, 75)" opacity="0.7988677" stroke="rgb(185, 2, 196)" stroke-opacity="0.14694664" stroke-linecap="round" stroke-linejoin="round"/>
    <path d="M 18.96735954284668 83.81251525878906 C 15.12358570098877 81.62451934814453 13.644255638122559 82.91277313232422 17.938154220581055 82.93817138671875 C 23.701148986816406 83.94281005859375 9.718462944030762 89.72579193115234 6.097179412841797 82.18974304199219 C -4.34572696685791 109.16002655029297 21.242399215698242 86.96305084228516 26.194091796875 87.20645904541016 C 25.540563583374023 78.49722290039062 23.0920467376709 89.53459930419922 18.96735954284668 83.81251525878906" stroke-width="0.0" fill="rgb(251, 249, 249)" opacity="0.72547835" stroke="rgb(20, 22, 171)" stroke-opacity="0.24536721" stroke-linecap="round" stroke-linejoin="round"/>
    <path d="M 25.595979690551758 78.1114501953125 C 32.3322868347168 78.259765625 27.264404296875 82.3431167602539 23.650320053100586 88.55646514892578 C 0.9989900588989258 100.12381744384766 -0.36750608682632446 62.480377197265625 23.004446029663086 68.12931060791016 C 35.540000915527344 79.83290100097656 12.543754577636719 84.65043640136719 28.279035568237305 76.35621643066406 C 32.412445068359375 69.40848541259766 32.192481994628906 72.33822631835938 25.595979690551758 78.1114501953125" stroke-width="0.0" fill="rgb(250, 254, 255)" opacity="0.2685246" stroke="rgb(107, 142, 219)" stroke-opacity="0.7270443" stroke-linecap="round" stroke-linejoin="round"/>
    <path d="M 82.95542907714844 46.06315231323242 C 86.02267456054688 40.837345123291016 81.68577575683594 41.8936767578125 79.43626403808594 40.14430618286133 C 83.40013885498047 36.34811019897461 87.33140563964844 41.33597946166992 80.81166076660156 38.214847564697266 C 85.10706329345703 42.10923385620117 84.20824432373047 41.52537536621094 81.87886810302734 46.101295471191406 C 84.08659362792969 41.859222412109375 86.33201599121094 39.664329528808594 82.95542907714844 46.06315231323242" stroke-width="0.0" fill="rgb(163, 23, 61)" opacity="0.040695693" stroke="rgb(68, 33, 14)" stroke-opacity="0.30159864" stroke-linecap="round" stroke-linejoin="round"/>
    <path d="M 93.4717788696289 62.70487594604492 C 95.22505950927734 58.26068115234375 92.67488098144531 58.631813049316406 94.40186309814453 61.54597854614258 C 99.05973052978516 64.10932922363281 98.287353515625 65.41903686523438 90.26609802246094 66.8910903930664 C 99.75863647460938 70.09701538085938 107.40534210205078 71.52111053466797 98.28850555419922 76.13810729980469 C 103.01869201660156 56.96284866333008 98.63465881347656 66.7688217163086 93.4717788696289 62.70487594604492" stroke-width="0.0" fill="rgb(227, 245, 253)" opacity="0.08400737" stroke="rgb(66, 116, 174)" stroke-opacity="0.6956254" stroke-linecap="round" stroke-linejoin="round"/>
    <path d="M 5.6720428466796875 77.52753448486328 C 11.073542594909668 86.44242858886719 15.206046104431152 82.68528747558594 11.084954261779785 80.73271942138672 C 8.31734848022461 81.11917877197266 15.996140480041504 81.76576232910156 10.237268447875977 80.99687194824219 C 11.020834922790527 82.76679992675781 12.910429954528809 78.64292907714844 12.261137962341309 83.52166748046875 C 12.789355278015137 81.05682373046875 9.645158767700195 84.62091064453125 5.6720428466796875 77.52753448486328" stroke-width="0.0" fill="rgb(122, 120, 120)" opacity="0.6229192" stroke="rgb(72, 96, 46)" stroke-opacity="0.7885455" stroke-linecap="round" stroke-linejoin="round"/>
    <path d="M 5.581341743469238 75.34329223632812 C 5.587783336639404 72.22618103027344 13.341435432434082 79.79878997802734 27.645248413085938 86.68537139892578 C 15.806751251220703 77.8302993774414 3.137073278427124 73.67633819580078 5.43449068069458 70.25114440917969 C 4.374244689941406 73.80589294433594 6.206640243530273 68.74331665039062 5.634085178375244 77.20658874511719 C 2.4194107055664062 71.38742065429688 9.037814140319824 72.57479858398438 5.581341743469238 75.34329223632812" stroke-width="0.0" fill="rgb(13, 14, 17)" opacity="0.7660858" stroke="rgb(14, 177, 198)" stroke-opacity="0.7774076" stroke-linecap="round" stroke-linejoin="round"/>
    <path d="M 86.04764556884766 33.433319091796875 C 82.74592590332031 34.10011291503906 80.20755767822266 34.11750411987305 79.59801483154297 34.219242095947266 C 95.81169891357422 32.80311965942383 91.90654754638672 34.708431243896484 87.9500732421875 29.339488983154297 C 75.1085433959961 33.80078125 70.22555541992188 24.168800354003906 81.05540466308594 25.700550079345703 C 89.18717956542969 37.44709396362305 92.43699645996094 40.460384368896484 86.04764556884766 33.433319091796875" stroke-width="0.0" fill="rgb(165, 164, 164)" opacity="0.8926309" stroke="rgb(66, 95, 149)" stroke-opacity="0.2728219" stroke-linecap="round" stroke-linejoin="round"/>
    <path d="M 13.423595428466797 80.2706069946289 C 10.769126892089844 81.5014419555664 5.543716907501221 78.70561218261719 12.126922607421875 68.11820983886719 C 11.726113319396973 81.84101104736328 11.916304588317871 74.95915222167969 12.998921394348145 67.79261779785156 C 11.398603439331055 73.54257202148438 12.50167465209961 73.63090515136719 8.91931438446045 76.5673828125 C 9.344605445861816 78.38078308105469 9.966114044189453 74.89244842529297 13.423595428466797 80.2706069946289" stroke-width="0.0" fill="rgb(129, 131, 129)" opacity="0.20879495" stroke="rgb(94, 50, 117)" stroke-opacity="0.0446123" stroke-linecap="round" stroke-linejoin="round"/>
    <path d="M 108.52374267578125 90.33567810058594 C 132.54800415039062 100.83207702636719 129.70889282226562 101.72312927246094 108.91149139404297 91.34173583984375 C 100.15186309814453 84.56002044677734 123.80913543701172 90.44036102294922 105.75129699707031 88.87677001953125 C 107.20957946777344 93.29185485839844 112.60002899169922 90.41513061523438 100.51516723632812 85.99331665039062 C 93.71446990966797 90.83345794677734 103.64498138427734 88.42253875732422 108.52374267578125 90.33567810058594" stroke-width="0.0" fill="rgb(0, 0, 0)" opacity="0.8844052" stroke="rgb(203, 19, 132)" stroke-opacity="0.3068101" stroke-linecap="round" stroke-linejoin="round"/>
    <path d="M 92.30058288574219 98.6445541381836 C 99.50096130371094 83.07890319824219 94.69400787353516 72.86896514892578 100.39854431152344 83.35283660888672 C 96.81581115722656 88.66462707519531 92.25337982177734 87.38117980957031 94.35063934326172 81.36710357666016 C 92.45618438720703 77.46782684326172 100.56257629394531 72.90257263183594 95.27408599853516 56.340423583984375 C 101.44300079345703 74.11189270019531 85.00838470458984 89.77649688720703 92.30058288574219 98.6445541381836" stroke-width="0.0" fill="rgb(242, 245, 249)" opacity="0.0" stroke="rgb(147, 244, 164)" stroke-opacity="0.035362437" stroke-linecap="round" stroke-linejoin="round"/>
    <path d="M 82.71732330322266 32.14419174194336 C 79.52863311767578 39.38752746582031 75.78388214111328 40.68201446533203 74.7616195678711 41.92961502075195 C 85.71309661865234 46.26471710205078 77.58148193359375 41.9908561706543 80.14176940917969 48.48241424560547 C 78.87201690673828 46.70942687988281 81.77564239501953 43.36668395996094 74.78665924072266 39.74573516845703 C 73.94310760498047 37.23773956298828 81.01405334472656 39.659481048583984 82.71732330322266 32.14419174194336" stroke-width="0.0" fill="rgb(180, 180, 181)" opacity="0.635838" stroke="rgb(109, 130, 136)" stroke-opacity="0.6813925" stroke-linecap="round" stroke-linejoin="round"/>
    <path d="M 50.178688049316406 100.43511962890625 C 25.25358772277832 86.19462585449219 11.785661697387695 83.93132019042969 32.71162033081055 87.4083023071289 C 29.85157012939453 81.60266876220703 31.959577560424805 83.53424835205078 32.497047424316406 87.91815185546875 C 22.18714714050293 87.5412368774414 30.06357765197754 91.06417846679688 39.8359489440918 113.80316925048828 C 19.40091896057129 78.17046356201172 25.24835968017578 90.77820587158203 50.178688049316406 100.43511962890625" stroke-width="0.0" fill="rgb(0, 0, 0)" opacity="0.64893657" stroke="rgb(70, 32, 100)" stroke-opacity="0.9564057" stroke-linecap="round" stroke-linejoin="round"/>
    <path d="M 96.86764526367188 76.7818832397461 C 94.79727935791016 73.62992858886719 95.0507583618164 71.90973663330078 97.3636245727539 78.43092346191406 C 97.79391479492188 78.64728546142578 95.88824462890625 77.13289642333984 98.13842010498047 77.98735046386719 C 95.93925476074219 77.47724151611328 96.9697494506836 77.12666320800781 94.6253890991211 74.30879211425781 C 99.38259887695312 79.64368438720703 93.80038452148438 81.0810546875 96.86764526367188 76.7818832397461" stroke-width="0.0" fill="rgb(11, 8, 17)" opacity="0.8495001" stroke="rgb(47, 230, 138)" stroke-opacity="0.4569114" stroke-linecap="round" stroke-linejoin="round"/>
    <path d="M 49.82951736450195 45.41597366333008 C 42.743408203125 43.408817291259766 41.472503662109375 45.346858978271484 45.722633361816406 46.96274948120117 C 51.79143524169922 40.961578369140625 49.79686737060547 41.637210845947266 46.88726806640625 41.88496017456055 C 43.813716888427734 47.293067932128906 49.37651824951172 44.373779296875 53.992332458496094 46.134857177734375 C 48.697940826416016 44.56555938720703 42.47407531738281 55.79295349121094 49.82951736450195 45.41597366333008" stroke-width="0.0" fill="rgb(183, 183, 183)" opacity="0.8917291" stroke="rgb(224, 116, 184)" stroke-opacity="0.39902532" stroke-linecap="round" stroke-linejoin="round"/>
    <path d="M 9.979124069213867 79.412841796875 C 10.716466903686523 77.35282897949219 12.534923553466797 70.8608627319336 20.70671844482422 79.34052276611328 C 13.3970947265625 69.60880279541016 11.830598831176758 65.5101089477539 15.462020874023438 61.33807373046875 C 21.280166625976562 61.02892303466797 15.308232307434082 60.780967712402344 13.0503511428833 61.08458709716797 C 14.264744758605957 61.15416717529297 15.997179985046387 57.935325622558594 9.979124069213867 79.412841796875" stroke-width="0.0" fill="rgb(216, 219, 218)" opacity="0.20641367" stroke="rgb(230, 175, 178)" stroke-opacity="0.3277204" stroke-linecap="round" stroke-linejoin="round"/>
    <path d="M 0.5097712874412537 82.88797760009766 C 20.26565170288086 86.2359848022461 13.546002388000488 82.04264831542969 12.762205123901367 75.41818237304688 C 12.240033149719238 78.15284729003906 13.65230655670166 75.62316131591797 12.868720054626465 75.76303100585938 C 13.387138366699219 76.2856674194336 10.651402473449707 77.85322570800781 13.654268264770508 78.80824279785156 C 13.171337127685547 83.02825164794922 17.449504852294922 88.1592025756836 0.5097712874412537 82.88797760009766" stroke-width="0.0" fill="rgb(37, 36, 37)" opacity="0.698943" stroke="rgb(192, 162, 61)" stroke-opacity="0.16053882" stroke-linecap="round" stroke-linejoin="round"/>
    <path d="M 46.622337341308594 43.13617706298828 C 51.32150650024414 36.30206298828125 50.179569244384766 42.66859817504883 46.03089141845703 42.25074768066406 C 52.38802719116211 39.66050720214844 47.922054290771484 40.49519729614258 49.75679397583008 38.613773345947266 C 48.21529769897461 40.33568572998047 47.347896575927734 41.68780517578125 50.36368179321289 35.2998046875 C 50.545162200927734 37.12038803100586 47.02996826171875 42.77652359008789 46.622337341308594 43.13617706298828" stroke-width="0.0" fill="rgb(163, 165, 163)" opacity="0.6725489" stroke="rgb(203, 244, 116)" stroke-opacity="0.59098417" stroke-linecap="round" stroke-linejoin="round"/>
    <path d="M 91.51260375976562 88.24559020996094 C 90.90113830566406 93.38076782226562 78.6021728515625 94.82931518554688 75.77313995361328 91.15634155273438 C 78.5539321899414 92.4156265258789 78.20731353759766 90.5011215209961 79.72893524169922 89.90748596191406 C 80.67189025878906 93.15390014648438 86.25509643554688 89.23993682861328 82.39849853515625 89.3364028930664 C 77.164306640625 91.22640228271484 80.7600326538086 91.57099151611328 91.51260375976562 88.24559020996094" stroke-width="0.0" fill="rgb(54, 104, 170)" opacity="0.8057855" stroke="rgb(218, 116, 242)" stroke-opacity="0.5757512" stroke-linecap="round" stroke-linejoin="round"/>
    <path d="M 70.11612701416016 52.87002944946289 C 75.06385803222656 52.89071273803711 73.7790298461914 53.46174621582031 82.65579986572266 52.994632720947266 C 79.18515014648438 53.8265380859375 76.4605941772461 53.64289855957031 77.73713684082031 52.95161437988281 C 79.56568908691406 53.588077545166016 83.09577178955078 50.474124908447266 79.69149017333984 52.787044525146484 C 73.5590591430664 54.504337310791016 75.71965789794922 52.4078483581543 70.11612701416016 52.87002944946289" stroke-width="0.0" fill="rgb(28, 29, 34)" opacity="0.83181244" stroke="rgb(209, 231, 207)" stroke-opacity="0.15941447" stroke-linecap="round" stroke-linejoin="round"/>
    <path d="M 49.85062789916992 83.24201965332031 C 50.13778305053711 82.53894805908203 49.54119873046875 84.02283477783203 50.05775451660156 84.5438003540039 C 49.6459846496582 84.30035400390625 49.82207107543945 80.05709075927734 49.780818939208984 83.02459716796875 C 50.469181060791016 93.5468521118164 50.435794830322266 90.6861801147461 49.20690155029297 92.84746551513672 C 50.736446380615234 90.86883544921875 50.39866256713867 92.7775650024414 49.85062789916992 83.24201965332031" stroke-width="0.0" fill="rgb(21, 19, 25)" opacity="0.8874925" stroke="rgb(160, 101, 15)" stroke-opacity="0.42403224" stroke-linecap="round" stroke-linejoin="round"/>
    <path d="M 100.13239288330078 87.05644989013672 C 84.21206665039062 78.34770965576172 88.72675323486328 77.68219757080078 82.31607818603516 81.40119171142578 C 90.85685729980469 75.5604019165039 88.54509735107422 83.48973083496094 84.08897399902344 76.45626831054688 C 88.47357940673828 79.57878112792969 95.60679626464844 82.99967956542969 95.46184539794922 83.74114990234375 C 98.17320251464844 84.79197692871094 92.94339752197266 80.64112854003906 100.13239288330078 87.05644989013672" stroke-width="0.0" fill="rgb(0, 0, 0)" opacity="0.7134521" stroke="rgb(65, 216, 8)" stroke-opacity="0.9589827" stroke-linecap="round" stroke-linejoin="round"/>
    <path d="M 39.95240783691406 40.71317672729492 C 39.29228591918945 40.29103469848633 40.971065521240234 40.42414093017578 45.350135803222656 39.024620056152344 C 39.65157699584961 39.905704498291016 40.07179260253906 38.42105484008789 38.7496337890625 50.71559524536133 C 38.70119857788086 41.61439895629883 40.940059661865234 40.07249450683594 41.4764404296875 39.228511810302734 C 39.588134765625 41.02323532104492 45.8270378112793 35.89132308959961 39.95240783691406 40.71317672729492" stroke-width="0.0" fill="rgb(2, 0, 0)" opacity="0.75095654" stroke="rgb(90, 90, 4)" stroke-opacity="0.18523233" stroke-linecap="round" stroke-linejoin="round"/>
    <path d="M 83.87566375732422 56.2276611328125 C 83.06694793701172 57.50101852416992 83.15400695800781 57.281761169433594 84.10546112060547 55.117061614990234 C 89.14141082763672 57.3484001159668 85.2608871459961 54.69256591796875 86.92132568359375 55.877384185791016 C 85.33782958984375 56.315765380859375 87.7855453491211 54.96532440185547 84.17655181884766 55.84368133544922 C 83.80119323730469 53.2445068359375 82.84542846679688 58.822784423828125 83.87566375732422 56.2276611328125" stroke-width="0.0" fill="rgb(16, 15, 18)" opacity="0.80266136" stroke="rgb(102, 236, 25)" stroke-opacity="0.94530153" stroke-linecap="round" stroke-linejoin="round"/>
    <path d="M 122.62936401367188 76.98560333251953 C 121.3874740600586 75.55757904052734 114.24909973144531 82.6630859375 117.68241882324219 82.77205657958984 C 115.85202026367188 81.15172576904297 116.2697525024414 82.05683135986328 117.69865417480469 79.14136505126953 C 111.70928192138672 82.3707046508789 113.07080078125 80.53218841552734 114.05316162109375 81.50418853759766 C 107.16288757324219 84.5100326538086 115.91620635986328 82.64035034179688 122.62936401367188 76.98560333251953" stroke-width="0.0" fill="rgb(92, 92, 86)" opacity="0.9727121" stroke="rgb(221, 115, 83)" stroke-opacity="0.23274413" stroke-linecap="round" stroke-linejoin="round"/>
    <path d="M 116.98634338378906 79.25460815429688 C 117.03524780273438 80.41597747802734 121.34387969970703 79.90023040771484 121.42601776123047 80.5924301147461 C 123.9928207397461 83.36870574951172 125.20094299316406 79.72174835205078 122.27622985839844 80.68896484375 C 113.24717712402344 78.95734405517578 122.21366882324219 79.3348617553711 118.04463195800781 79.49594116210938 C 110.28758239746094 82.62022399902344 109.3167724609375 83.9099349975586 116.98634338378906 79.25460815429688" stroke-width="0.0" fill="rgb(121, 117, 113)" opacity="0.50425667" stroke="rgb(156, 8, 3)" stroke-opacity="0.42879573" stroke-linecap="round" stroke-linejoin="round"/>
    <path d="M 85.10150909423828 41.159732818603516 C 84.40785217285156 41.358821868896484 78.81590270996094 40.52294921875 80.79035186767578 40.77901840209961 C 82.76274871826172 40.421756744384766 83.22621154785156 41.757659912109375 83.68116760253906 41.869422912597656 C 83.54349517822266 42.48569869995117 83.31824493408203 43.05100631713867 83.01810455322266 41.53783416748047 C 81.48863220214844 37.80764389038086 82.89441680908203 41.710784912109375 85.10150909423828 41.159732818603516" stroke-width="0.0" fill="rgb(209, 44, 67)" opacity="0.6939896" stroke="rgb(17, 64, 56)" stroke-opacity="0.2531912" stroke-linecap="round" stroke-linejoin="round"/>
    <path d="M 93.30429077148438 99.07976531982422 C 92.39437103271484 98.16533660888672 76.73783874511719 100.46105194091797 81.84611511230469 97.95587158203125 C 85.21533203125 97.45946502685547 87.02855682373047 101.06783294677734 83.35603332519531 99.94192504882812 C 86.1249008178711 102.48172760009766 90.72470092773438 101.01097869873047 76.13837432861328 93.09131622314453 C 92.4596176147461 90.08238220214844 94.20262908935547 100.5114517211914 93.30429077148438 99.07976531982422" stroke-width="0.0" fill="rgb(245, 253, 254)" opacity="0.1424185" stroke="rgb(33, 3, 29)" stroke-opacity="0.61848027" stroke-linecap="round" stroke-linejoin="round"/>
    <path d="M 26.362062454223633 59.64946365356445 C 26.25190544128418 54.94942092895508 25.29552459716797 61.01485061645508 31.469308853149414 62.0222282409668 C 32.88187789916992 51.248355865478516 28.477935791015625 54.404476165771484 30.026559829711914 59.766014099121094 C 27.196088790893555 58.80691146850586 32.04736328125 37.69470977783203 28.283355712890625 47.94569778442383 C 29.50517463684082 53.00418472290039 32.34111785888672 61.487247467041016 26.362062454223633 59.64946365356445" stroke-width="0.0" fill="rgb(177, 174, 171)" opacity="0.40721992" stroke="rgb(248, 252, 104)" stroke-opacity="0.16295442" stroke-linecap="round" stroke-linejoin="round"/>
    <path d="M 118.0851821899414 88.49473571777344 C 91.57738494873047 90.53936004638672 102.18829345703125 83.96917724609375 102.15516662597656 91.15174102783203 C 105.02787017822266 80.66050720214844 105.51758575439453 86.93096923828125 87.48506927490234 111.68623352050781 C 103.2530746459961 85.14705657958984 105.06511688232422 87.9196548461914 91.76200103759766 92.27777862548828 C 91.78962707519531 95.58100891113281 95.10535430908203 86.12115478515625 118.0851821899414 88.49473571777344" stroke-width="0.0" fill="rgb(0, 0, 0)" opacity="0.7225405" stroke="rgb(162, 125, 252)" stroke-opacity="0.065304205" stroke-linecap="round" stroke-linejoin="round"/>
    <path d="M 17.696712493896484 84.19222259521484 C 18.42316436767578 79.83574676513672 7.073248863220215 78.15579986572266 19.143268585205078 84.46931457519531 C 20.29081916809082 85.58883666992188 12.682780265808105 77.98162078857422 18.21438980102539 84.45333862304688 C 11.715545654296875 81.51346588134766 13.6185884475708 79.79991912841797 9.139188766479492 80.66011047363281 C 11.584485054016113 77.81105041503906 17.62095832824707 83.27729797363281 17.696712493896484 84.19222259521484" stroke-width="0.0" fill="rgb(140, 144, 147)" opacity="0.14924192" stroke="rgb(199, 73, 61)" stroke-opacity="0.66250455" stroke-linecap="round" stroke-linejoin="round"/>
    <path d="M 86.9421615600586 59.81700134277344 C 88.89389038085938 61.86964797973633 85.42631530761719 62.864341735839844 85.15848541259766 57.171653747558594 C 88.87886047363281 61.256195068359375 88.98812866210938 70.42926025390625 85.25747680664062 58.443485260009766 C 86.47802734375 54.25646209716797 84.07565307617188 57.64006423950195 85.6991958618164 58.03749084472656 C 82.32010650634766 53.842769622802734 83.809814453125 63.82133865356445 86.9421615600586 59.81700134277344" stroke-width="0.0" fill="rgb(205, 201, 201)" opacity="0.4883879" stroke="rgb(62, 169, 131)" stroke-opacity="0.42408898" stroke-linecap="round" stroke-linejoin="round"/>
    <path d="M 108.06214904785156 60.084136962890625 C 103.77916717529297 62.39257049560547 91.27549743652344 64.78772735595703 93.94739532470703 64.04350280761719 C 103.6607666015625 64.32939147949219 97.77091217041016 62.37795639038086 91.5339584350586 64.6816177368164 C 93.56794738769531 63.381683349609375 100.73423767089844 60.887664794921875 103.60794830322266 63.512245178222656 C 94.49250030517578 64.4808349609375 100.16647338867188 63.2718620300293 108.06214904785156 60.084136962890625" stroke-width="0.0" fill="rgb(0, 0, 0)" opacity="0.69816554" stroke="rgb(141, 73, 180)" stroke-opacity="0.41485688" stroke-linecap="round" stroke-linejoin="round"/>
    <path d="M 89.50882720947266 81.3543701171875 C 87.93408203125 79.88994598388672 91.3531723022461 80.46208953857422 88.59574890136719 94.16678619384766 C 86.99896240234375 93.73114776611328 90.39749145507812 94.4940414428711 89.69100189208984 80.88085174560547 C 90.2081527709961 80.00370788574219 89.29676055908203 79.51676940917969 94.08978271484375 83.3963394165039 C 89.32915496826172 79.01629638671875 87.93187713623047 80.20189666748047 89.50882720947266 81.3543701171875" stroke-width="0.0" fill="rgb(168, 173, 177)" opacity="0.4769481" stroke="rgb(91, 211, 235)" stroke-opacity="0.04600731" stroke-linecap="round" stroke-linejoin="round"/>
    <path d="M 109.2749252319336 84.37107849121094 C 120.7493896484375 79.10770416259766 112.70643615722656 81.60301208496094 115.10429382324219 80.58256530761719 C 116.71527099609375 81.73393249511719 116.41621398925781 80.3309555053711 118.05313873291016 79.38822937011719 C 116.16724395751953 81.43270111083984 117.79094696044922 77.6933822631836 119.4173583984375 79.6795425415039 C 107.1693115234375 83.2743148803711 99.97885131835938 89.69036865234375 109.2749252319336 84.37107849121094" stroke-width="0.0" fill="rgb(29, 27, 30)" opacity="0.9978162" stroke="rgb(59, 88, 207)" stroke-opacity="0.98549145" stroke-linecap="round" stroke-linejoin="round"/>
    <path d="M 30.12136459350586 57.424835205078125 C 29.342824935913086 51.059574127197266 29.5811710357666 53.01625061035156 28.24125862121582 52.84097671508789 C 30.857139587402344 50.758018493652344 28.89105224609375 59.99240493774414 31.7860107421875 60.181060791015625 C 30.895057678222656 59.21284866333008 30.65151023864746 63.274078369140625 23.257577896118164 57.33926773071289 C 29.284391403198242 60.101375579833984 31.8908748626709 62.69396209716797 30.12136459350586 57.424835205078125" stroke-width="0.0" fill="rgb(166, 166, 166)" opacity="0.86048836" stroke="rgb(247, 230, 75)" stroke-opacity="0.99201125" stroke-linecap="round" stroke-linejoin="round"/>
    <path d="M 27.362001419067383 100.6821517944336 C 11.074974060058594 107.32867431640625 13.717334747314453 110.47885131835938 4.72948694229126 97.75173950195312 C 28.999197006225586 103.85200500488281 23.31169891357422 102.73155975341797 13.518664360046387 101.48775482177734 C 19.8939208984375 112.0476303100586 27.68317985534668 115.80908203125 22.89932632446289 102.71546173095703 C 21.14415740966797 101.28201293945312 19.703474044799805 101.15808868408203 27.362001419067383 100.6821517944336" stroke-width="0.0" fill="rgb(229, 230, 231)" opacity="0.44679964" stroke="rgb(63, 27, 242)" stroke-opacity="0.23342025" stroke-linecap="round" stroke-linejoin="round"/>
    <path d="M 15.554591178894043 61.10296630859375 C 16.435821533203125 61.87686538696289 14.721680641174316 66.22917175292969 9.512003898620605 60.019893646240234 C 20.2894229888916 62.16600036621094 19.001819610595703 59.77938461303711 14.639322280883789 58.91231918334961 C 13.75493049621582 58.337486267089844 12.109745979309082 28.51675033569336 10.059396743774414 61.518699645996094 C 31.773237228393555 53.08686447143555 37.4282341003418 64.3718490600586 15.554591178894043 61.10296630859375" stroke-width="0.0" fill="rgb(133, 131, 131)" opacity="0.78262496" stroke="rgb(175, 14, 186)" stroke-opacity="0.8817202" stroke-linecap="round" stroke-linejoin="round"/>
    <path d="M 128.61434936523438 89.21761322021484 C 117.96675872802734 88.27835083007812 121.30261993408203 89.0341567993164 117.07972717285156 89.18426513671875 C 125.54399871826172 92.02486419677734 125.68598937988281 87.7808609008789 126.6802749633789 89.85661315917969 C 126.36343383789062 89.42201232910156 124.57752227783203 89.65017700195312 128.6886444091797 88.33451843261719 C 122.40219116210938 90.05071258544922 126.23881530761719 88.4079360961914 128.61434936523438 89.21761322021484" stroke-width="0.0" fill="rgb(26, 25, 25)" opacity="0.8997183" stroke="rgb(69, 96, 95)" stroke-opacity="0.74878824" stroke-linecap="round" stroke-linejoin="round"/>
    <path d="M 19.00543975830078 82.5745620727539 C 5.155057430267334 86.39534759521484 12.611406326293945 83.71550750732422 22.09031105041504 85.05926513671875 C 17.187074661254883 88.55502319335938 10.844115257263184 82.51913452148438 11.099671363830566 84.72944641113281 C 12.652922630310059 83.04631805419922 8.174278259277344 82.2236328125 14.275424003601074 85.01712036132812 C 8.434287071228027 84.91062927246094 13.502434730529785 84.47240447998047 19.00543975830078 82.5745620727539" stroke-width="0.0" fill="rgb(111, 113, 114)" opacity="1.0" stroke="rgb(60, 43, 114)" stroke-opacity="0.3044684" stroke-linecap="round" stroke-linejoin="round"/>
    <path d="M 15.110478401184082 62.50044250488281 C 22.467870712280273 64.07786560058594 21.58316421508789 61.479434967041016 12.01826000213623 59.63296127319336 C 9.227444648742676 60.60969161987305 18.628387451171875 58.90629959106445 30.456893920898438 56.6574821472168 C 19.303712844848633 59.55327224731445 17.481311798095703 61.90782928466797 14.172296524047852 61.94378662109375 C 23.839824676513672 61.218589782714844 26.74138641357422 61.196075439453125 15.110478401184082 62.50044250488281" stroke-width="0.0" fill="rgb(143, 142, 141)" opacity="0.7585428" stroke="rgb(213, 60, 128)" stroke-opacity="0.9425836" stroke-linecap="round" stroke-linejoin="round"/>
    <path d="M 96.28453063964844 62.82481002807617 C 94.04422760009766 63.01947021484375 89.31687927246094 62.88350296020508 92.69219970703125 62.30961608886719 C 91.03514099121094 63.77092742919922 90.64456939697266 63.8840446472168 84.97628784179688 65.30329132080078 C 92.56181335449219 63.962379455566406 99.23320770263672 61.467227935791016 97.04004669189453 60.784339904785156 C 94.03856658935547 61.66615676879883 99.98184204101562 59.44524002075195 96.28453063964844 62.82481002807617" stroke-width="0.0" fill="rgb(82, 86, 89)" opacity="0.56576985" stroke="rgb(161, 221, 239)" stroke-opacity="0.75076485" stroke-linecap="round" stroke-linejoin="round"/>
    <path d="M 24.13782501220703 85.54596710205078 C 24.793306350708008 89.91399383544922 27.295658111572266 88.72795867919922 22.921142578125 86.210693359375 C 25.790918350219727 85.14327239990234 27.39059829711914 88.42906188964844 27.582517623901367 85.20108032226562 C 26.28959846496582 88.91354370117188 21.28569221496582 84.49320220947266 29.06248664855957 83.7856216430664 C 26.005142211914062 85.09403991699219 26.200361251831055 92.28841400146484 24.13782501220703 85.54596710205078" stroke-width="0.0" fill="rgb(0, 0, 0)" opacity="0.8412732" stroke="rgb(178, 246, 253)" stroke-opacity="0.45182168" stroke-linecap="round" stroke-linejoin="round"/>
    <path d="M 22.16484260559082 83.3395767211914 C 26.084997177124023 85.98005676269531 25.487314224243164 80.601806640625 24.28766441345215 75.98412322998047 C 25.90302276611328 80.8887939453125 25.540069580078125 83.56338500976562 20.74098777770996 77.60779571533203 C 27.603620529174805 85.03907775878906 29.73284339904785 87.32648468017578 30.2205867767334 85.24845886230469 C 20.333660125732422 81.32945251464844 25.169219970703125 88.28225708007812 22.16484260559082 83.3395767211914" stroke-width="0.0" fill="rgb(43, 47, 53)" opacity="0.7866317" stroke="rgb(18, 74, 38)" stroke-opacity="0.41748637" stroke-linecap="round" stroke-linejoin="round"/>
    <path d="M 18.628570556640625 59.30677795410156 C 22.523666381835938 60.54294204711914 20.09988784790039 60.430824279785156 21.779266357421875 60.725486755371094 C 33.3758544921875 58.969364166259766 31.417131423950195 61.73955154418945 30.4611873626709 60.111392974853516 C 31.695499420166016 62.25767517089844 38.41792678833008 59.36534881591797 33.68122482299805 61.0050048828125 C 32.377586364746094 61.454017639160156 32.97861862182617 59.562705993652344 18.628570556640625 59.30677795410156" stroke-width="0.0" fill="rgb(108, 112, 111)" opacity="0.8067492" stroke="rgb(33, 154, 97)" stroke-opacity="0.89538586" stroke-linecap="round" stroke-linejoin="round"/>
    <path d="M 83.61284637451172 51.87932205200195 C 77.16891479492188 53.48625183105469 80.45884704589844 52.50416946411133 78.14031982421875 53.83794403076172 C 89.58267211914062 54.270572662353516 84.33689880371094 49.6613655090332 82.66474914550781 58.475711822509766 C 82.94391632080078 57.37084197998047 86.42121124267578 53.253379821777344 83.60417938232422 55.452152252197266 C 83.37428283691406 55.48424530029297 87.05025482177734 58.45905685424805 83.61284637451172 51.87932205200195" stroke-width="0.0" fill="rgb(0, 0, 0)" opacity="0.83572596" stroke="rgb(246, 139, 70)" stroke-opacity="0.59223044" stroke-linecap="round" stroke-linejoin="round"/>
    <path d="M 102.15858459472656 55.34183120727539 C 100.50670623779297 60.63938903808594 97.38906860351562 61.55694580078125 107.3012924194336 61.94590759277344 C 113.97859191894531 59.69439697265625 98.93787384033203 55.47075653076172 97.87725830078125 60.49348068237305 C 99.68781280517578 59.594993591308594 99.9835433959961 64.3117904663086 100.90099334716797 60.85475158691406 C 99.1591796875 61.02198791503906 102.2321548461914 60.53555679321289 102.15858459472656 55.34183120727539" stroke-width="0.0" fill="rgb(154, 152, 152)" opacity="0.79439676" stroke="rgb(228, 103, 140)" stroke-opacity="0.27165276" stroke-linecap="round" stroke-linejoin="round"/>
    <path d="M 124.65618133544922 92.1988525390625 C 121.9897689819336 105.10070037841797 119.12496185302734 100.87328338623047 114.96891784667969 108.04621887207031 C 104.85029602050781 107.50572204589844 107.39932250976562 104.54910278320312 95.25308990478516 90.2101058959961 C 107.82829284667969 94.86280059814453 108.74850463867188 78.80927276611328 107.57572937011719 71.41722106933594 C 122.92343139648438 67.02718353271484 126.7471923828125 79.99280548095703 124.65618133544922 92.1988525390625" stroke-width="0.0" fill="rgb(192, 196, 198)" opacity="0.22844861" stroke="rgb(116, 102, 63)" stroke-opacity="0.5058664" stroke-linecap="round" stroke-linejoin="round"/>
    <path d="M 91.76016235351562 78.1532974243164 C 92.98409271240234 78.66943359375 93.25961303710938 78.1269760131836 96.65797424316406 78.34660339355469 C 98.18933868408203 77.90264129638672 96.71612548828125 79.30481719970703 97.43268585205078 78.13389587402344 C 96.58096313476562 78.49183654785156 95.09252166748047 78.04835510253906 91.70218658447266 78.59139251708984 C 92.08365631103516 78.18573760986328 92.51617431640625 78.2415771484375 91.76016235351562 78.1532974243164" stroke-width="0.0" fill="rgb(68, 64, 70)" opacity="0.5869063" stroke="rgb(79, 95, 133)" stroke-opacity="0.75059503" stroke-linecap="round" stroke-linejoin="round"/>
    <path d="M 41.07478713989258 57.57630157470703 C 39.05150604248047 60.61931228637695 38.6065673828125 61.778038024902344 42.10264587402344 61.743865966796875 C 39.65804672241211 63.48469543457031 36.94554901123047 63.25080490112305 38.643733978271484 62.763858795166016 C 36.50325393676758 64.62283325195312 41.20278549194336 64.16405487060547 37.7713737487793 62.98900604248047 C 45.97886657714844 62.10505294799805 49.87826156616211 67.00263977050781 41.07478713989258 57.57630157470703" stroke-width="0.0" fill="rgb(76, 116, 177)" opacity="0.72383785" stroke="rgb(85, 235, 219)" stroke-opacity="0.048690297" stroke-linecap="round" stroke-linejoin="round"/>
    <path d="M 34.68278884887695 58.885135650634766 C 27.277162551879883 56.31950759887695 27.879146575927734 56.0905647277832 30.1499080657959 57.78562927246094 C 35.52206039428711 61.0493278503418 24.96802520751953 61.54795455932617 17.2404727935791 59.95880126953125 C 36.67256546020508 56.39544677734375 17.317148208618164 52.03615188598633 30.034902572631836 58.86458969116211 C 26.610017776489258 62.38849639892578 37.662776947021484 63.64686584472656 34.68278884887695 58.885135650634766" stroke-width="0.0" fill="rgb(170, 167, 167)" opacity="0.6645694" stroke="rgb(64, 113, 26)" stroke-opacity="0.348476" stroke-linecap="round" stroke-linejoin="round"/>
  </g>
</svg>
