<?xml version="1.0" ?>
<svg xmlns="http://www.w3.org/2000/svg" version="1.1" width="512" height="512">
  <defs/>
  <g>
    <path stroke-width="0" fill="rgb(193, 105, 0)" opacity="0.72366124" stroke="rgb(139, 182, 153)" stroke-opacity="1.0" stroke-linecap="round" stroke-linejoin="round" d="M 562.9614868164062 192.14981079101562 C 379.35546875 362.6851806640625 345.0602722167969 360.1447448730469 27.59012794494629 377.9518127441406 C -18.84420394897461 340.5329895019531 -48.74386978149414 333.791748046875 -43.48234176635742 -36.02407455444336 C 1.394530177116394 -35.48497772216797 8.717000007629395 -47.45117950439453 384.3945617675781 -53.3182373046875 C 494.4046630859375 -70.86492919921875 554.4064331054688 -110.67241668701172 562.9614868164062 192.14981079101562"/>
    <path stroke-width="0" fill="rgb(200, 0, 0)" opacity="1.0" stroke="rgb(108, 164, 111)" stroke-opacity="1.0" stroke-linecap="round" stroke-linejoin="round" d="M 350.07830810546875 530.8661499023438 C 328.962158203125 570.5418701171875 314.6295166015625 566.5646362304688 114.65472412109375 561.3896484375 C 51.08308410644531 548.6567993164062 35.62660217285156 529.9259643554688 39.050437927246094 327.311767578125 C 58.63908767700195 303.5375671386719 62.3763542175293 292.1286926269531 356.044189453125 253.53662109375 C 383.3831481933594 260.96405029296875 380.7657775878906 265.67529296875 350.07830810546875 530.8661499023438"/>
    <path stroke-width="0" fill="rgb(217, 134, 64)" opacity="1.0" stroke="rgb(245, 97, 201)" stroke-opacity="1.0" stroke-linecap="round" stroke-linejoin="round" d="M 58.35737228393555 411.16546630859375 C 206.81602478027344 436.4178466796875 153.75157165527344 498.8922119140625 73.35311889648438 544.4368286132812 C -74.3127212524414 557.3082885742188 -42.93982696533203 507.84814453125 -33.053165435791016 439.6483459472656 C -41.043212890625 331.30853271484375 -98.13959503173828 236.49588012695312 -76.59748077392578 218.8569793701172 C 62.614173889160156 289.46826171875 19.074989318847656 329.4662780761719 58.35737228393555 411.16546630859375"/>
    <path stroke-width="0" fill="rgb(208, 117, 40)" opacity="0.99599993" stroke="rgb(144, 236, 18)" stroke-opacity="1.0" stroke-linecap="round" stroke-linejoin="round" d="M 561.2971801757812 380.3938293457031 C 550.22802734375 576.3759765625 530.4161376953125 561.5236206054688 215.1353759765625 543.6046142578125 C 197.636962890625 554.3902587890625 151.43313598632812 580.3515625 246.8850555419922 376.1265563964844 C 314.2154235839844 287.8556213378906 200.74205017089844 268.6769104003906 266.2144470214844 212.00392150878906 C 598.56689453125 187.18174743652344 574.1541137695312 256.6072692871094 561.2971801757812 380.3938293457031"/>
    <path stroke-width="0" fill="rgb(0, 0, 0)" opacity="1.0" stroke="rgb(5, 212, 198)" stroke-opacity="1.0" stroke-linecap="round" stroke-linejoin="round" d="M 214.53189086914062 185.8211669921875 C 203.0865478515625 252.39691162109375 246.78076171875 263.18414306640625 122.70088195800781 262.3566589355469 C 108.40581512451172 268.5468444824219 117.4444808959961 270.5275573730469 122.41564178466797 152.72792053222656 C 141.63775634765625 6.554853916168213 119.61150360107422 -14.101519584655762 223.5057830810547 61.57000732421875 C 283.2016906738281 169.11737060546875 402.1454162597656 114.32877349853516 214.53189086914062 185.8211669921875"/>
    <path stroke-width="0" fill="rgb(16, 1, 6)" opacity="0.9947285" stroke="rgb(249, 203, 117)" stroke-opacity="1.0" stroke-linecap="round" stroke-linejoin="round" d="M 230.07919311523438 438.4319763183594 C 202.21435546875 424.4876403808594 229.21365356445312 502.2788391113281 77.91029357910156 698.2053833007812 C 141.734619140625 500.2808532714844 35.45008087158203 453.9859924316406 141.55364990234375 462.5631408691406 C 75.36502838134766 424.086669921875 122.32733154296875 347.8413391113281 180.9236297607422 358.8606262207031 C 214.6006622314453 367.3769226074219 232.23126220703125 380.57861328125 230.07919311523438 438.4319763183594"/>
    <path stroke-width="0" fill="rgb(9, 1, 5)" opacity="0.99942124" stroke="rgb(30, 163, 36)" stroke-opacity="1.0" stroke-linecap="round" stroke-linejoin="round" d="M 546.5746459960938 348.824951171875 C 548.5777587890625 571.50244140625 526.6546020507812 556.8327026367188 460.8313293457031 544.185546875 C 310.7366027832031 574.1254272460938 215.20925903320312 662.4441528320312 170.2448272705078 466.0094299316406 C 310.1106872558594 459.3197021484375 427.3587646484375 464.10455322265625 506.20428466796875 462.78192138671875 C 456.6947937011719 389.1158447265625 465.7784423828125 402.5770263671875 546.5746459960938 348.824951171875"/>
    <path stroke-width="0" fill="rgb(0, 183, 135)" opacity="0.99434245" stroke="rgb(133, 105, 67)" stroke-opacity="1.0" stroke-linecap="round" stroke-linejoin="round" d="M 368.84088134765625 209.3968048095703 C 223.1158447265625 193.9330291748047 255.35733032226562 311.3756103515625 234.44998168945312 292.66455078125 C 147.6436004638672 264.70513916015625 129.70249938964844 278.2951965332031 151.07806396484375 212.2489776611328 C 139.9369354248047 201.4674072265625 110.98081970214844 154.3616180419922 236.65835571289062 149.95361328125 C 301.26177978515625 221.39744567871094 280.064697265625 32.783905029296875 368.84088134765625 209.3968048095703"/>
    <path stroke-width="0" fill="rgb(0, 0, 0)" opacity="0.9852457" stroke="rgb(116, 144, 4)" stroke-opacity="1.0" stroke-linecap="round" stroke-linejoin="round" d="M 214.97254943847656 452.1482238769531 C 183.41941833496094 485.61187744140625 137.99293518066406 473.604736328125 155.84864807128906 508.2794189453125 C 113.67610168457031 456.34344482421875 90.15081024169922 383.6081237792969 101.30451965332031 430.0827331542969 C 112.9854507446289 409.6392822265625 117.5411605834961 366.8708190917969 164.07701110839844 359.63983154296875 C 204.02880859375 354.1070556640625 252.8495330810547 393.7752685546875 214.97254943847656 452.1482238769531"/>
    <path stroke-width="0" fill="rgb(0, 0, 0)" opacity="0.9960059" stroke="rgb(156, 157, 240)" stroke-opacity="1.0" stroke-linecap="round" stroke-linejoin="round" d="M 243.01405334472656 294.43310546875 C 305.0414733886719 301.4151306152344 81.32274627685547 297.2474365234375 72.37812042236328 300.6950378417969 C 115.045654296875 294.8557434082031 91.24722290039062 318.29913330078125 104.72087860107422 227.45230102539062 C 141.30096435546875 175.14971923828125 78.86215209960938 192.3724365234375 202.38795471191406 128.35125732421875 C 222.3571319580078 195.77346801757812 191.07180786132812 200.7935028076172 243.01405334472656 294.43310546875"/>
    <path stroke-width="0" fill="rgb(0, 0, 3)" opacity="0.99844277" stroke="rgb(91, 111, 177)" stroke-opacity="1.0" stroke-linecap="round" stroke-linejoin="round" d="M 60.001380920410156 415.4080505371094 C 59.05793380737305 500.25384521484375 77.0721435546875 442.44512939453125 31.472810745239258 470.90087890625 C 48.299354553222656 405.105712890625 -42.05097198486328 408.2292785644531 1.6653376817703247 482.8209228515625 C -36.75901412963867 262.928955078125 -4.21132230758667 373.5727844238281 28.882761001586914 323.401611328125 C -7.896056652069092 387.3299255371094 39.2335319519043 400.27886962890625 60.001380920410156 415.4080505371094"/>
    <path stroke-width="0" fill="rgb(0, 169, 123)" opacity="1.0" stroke="rgb(170, 171, 53)" stroke-opacity="1.0" stroke-linecap="round" stroke-linejoin="round" d="M 657.5538940429688 250.59840393066406 C 611.4579467773438 351.1081848144531 612.96630859375 230.00723266601562 371.5155944824219 210.74363708496094 C 151.31320190429688 73.42924499511719 370.4230651855469 127.6637954711914 427.9286804199219 105.87442779541016 C 505.70068359375 43.28387451171875 199.66172790527344 149.78538513183594 437.9750061035156 97.00973510742188 C 410.9656677246094 -2.55784010887146 583.9244995117188 71.84903717041016 657.5538940429688 250.59840393066406"/>
    <path stroke-width="0" fill="rgb(208, 0, 0)" opacity="0.99988663" stroke="rgb(80, 92, 145)" stroke-opacity="1.0" stroke-linecap="round" stroke-linejoin="round" d="M 615.4375 263.1094055175781 C 291.0926818847656 172.3087921142578 263.5957336425781 206.05844116210938 251.0465545654297 266.4671630859375 C 254.0111846923828 499.71185302734375 118.4345474243164 417.11505126953125 473.3722839355469 438.36468505859375 C 608.18896484375 172.47500610351562 469.3432312011719 369.8399963378906 384.65093994140625 253.6669921875 C 288.1097106933594 212.02484130859375 383.3888244628906 350.3292236328125 615.4375 263.1094055175781"/>
    <path stroke-width="0" fill="rgb(0, 157, 112)" opacity="0.9965585" stroke="rgb(252, 26, 53)" stroke-opacity="1.0" stroke-linecap="round" stroke-linejoin="round" d="M 241.71389770507812 62.42613220214844 C 236.7982940673828 -54.72345733642578 121.32466125488281 91.1888198852539 120.71035766601562 195.078125 C -138.31353759765625 52.238182067871094 134.8523712158203 153.35284423828125 59.10918426513672 89.45435333251953 C -107.07058715820312 68.35248565673828 -16.480682373046875 44.5828971862793 175.58279418945312 -35.25399398803711 C 403.6829833984375 111.11967468261719 253.6924285888672 -34.16453170776367 241.71389770507812 62.42613220214844"/>
    <path stroke-width="0" fill="rgb(0, 129, 103)" opacity="1.0" stroke="rgb(166, 64, 118)" stroke-opacity="1.0" stroke-linecap="round" stroke-linejoin="round" d="M 439.6534423828125 25.607616424560547 C 412.7022705078125 41.33711624145508 328.662841796875 143.32872009277344 363.265869140625 88.97734832763672 C 339.5751037597656 14.292641639709473 296.7677307128906 36.82490158081055 145.6039581298828 8.341421127319336 C 203.63612365722656 -114.8594970703125 294.8564453125 -45.6025505065918 351.62176513671875 -38.818729400634766 C 397.8366394042969 -21.2685546875 463.3095703125 -29.713594436645508 439.6534423828125 25.607616424560547"/>
    <path stroke-width="0" fill="rgb(53, 0, 7)" opacity="0.71529377" stroke="rgb(40, 28, 167)" stroke-opacity="1.0" stroke-linecap="round" stroke-linejoin="round" d="M 481.0371398925781 248.63548278808594 C 519.4287109375 337.2136535644531 491.383544921875 286.5661926269531 487.5748291015625 299.247314453125 C 270.6131286621094 299.7830810546875 234.97427368164062 301.7168273925781 282.9610595703125 295.51251220703125 C 314.6343078613281 232.96456909179688 316.220947265625 247.79141235351562 286.47119140625 233.12266540527344 C 390.848388671875 212.89073181152344 511.47467041015625 265.7129821777344 481.0371398925781 248.63548278808594"/>
    <path stroke-width="0" fill="rgb(0, 156, 114)" opacity="0.9985707" stroke="rgb(50, 94, 209)" stroke-opacity="1.0" stroke-linecap="round" stroke-linejoin="round" d="M 7.1058149337768555 254.2567138671875 C 66.89977264404297 383.9383850097656 83.62683868408203 553.6534423828125 26.71799087524414 308.2005310058594 C -5.94350528717041 256.0406188964844 -35.31795120239258 389.434814453125 -57.60841751098633 97.24253845214844 C 113.89405059814453 116.6003646850586 113.14051055908203 183.0097198486328 -41.337806701660156 207.40647888183594 C 65.29955291748047 229.61932373046875 106.59436798095703 209.88270568847656 7.1058149337768555 254.2567138671875"/>
    <path stroke-width="0" fill="rgb(0, 168, 117)" opacity="0.98700655" stroke="rgb(213, 24, 248)" stroke-opacity="1.0" stroke-linecap="round" stroke-linejoin="round" d="M 477.4486083984375 53.152854919433594 C 433.09490966796875 35.02762222290039 558.0690307617188 75.95922088623047 355.2125549316406 135.51258850097656 C 385.8446960449219 -4.133944511413574 271.3104553222656 103.0584945678711 294.30230712890625 20.509647369384766 C 332.7491455078125 -10.696939468383789 386.92877197265625 18.777725219726562 422.2691345214844 -23.869853973388672 C 464.5804138183594 -59.730045318603516 479.2181396484375 -62.949275970458984 477.4486083984375 53.152854919433594"/>
    <path stroke-width="0" fill="rgb(0, 138, 105)" opacity="0.9780802" stroke="rgb(249, 154, 188)" stroke-opacity="1.0" stroke-linecap="round" stroke-linejoin="round" d="M 110.48640441894531 223.603515625 C 83.6816177368164 263.3292236328125 102.3172836303711 307.99322509765625 96.17569732666016 296.82562255859375 C 37.40797424316406 310.8736267089844 -59.6261100769043 310.7752685546875 -5.065151691436768 156.5404052734375 C 62.24633026123047 222.71141052246094 -75.08162689208984 209.41139221191406 113.72956848144531 213.08018493652344 C 114.01396179199219 222.3834991455078 109.81583404541016 211.13978576660156 110.48640441894531 223.603515625"/>
    <path stroke-width="0" fill="rgb(0, 169, 121)" opacity="0.9875192" stroke="rgb(72, 30, 75)" stroke-opacity="1.0" stroke-linecap="round" stroke-linejoin="round" d="M 100.17852783203125 297.820556640625 C 95.64407348632812 306.7916564941406 31.59242057800293 276.96087646484375 51.28401184082031 395.80902099609375 C 178.97047424316406 454.2168884277344 9.061470985412598 446.5954284667969 14.719574928283691 350.6509704589844 C 58.394256591796875 271.5206298828125 -8.603292465209961 348.11187744140625 50.4169807434082 218.75624084472656 C 126.36439514160156 205.6185302734375 96.96699523925781 213.33985900878906 100.17852783203125 297.820556640625"/>
    <path stroke-width="0" fill="rgb(0, 158, 106)" opacity="0.97801256" stroke="rgb(81, 105, 16)" stroke-opacity="1.0" stroke-linecap="round" stroke-linejoin="round" d="M 477.71051025390625 294.0181579589844 C 497.5775451660156 295.01165771484375 424.4801330566406 295.4541015625 376.0349426269531 295.8134460449219 C 253.9590301513672 295.9704284667969 247.22235107421875 296.47979736328125 259.21209716796875 300.4114990234375 C 287.2837219238281 225.7449951171875 274.5008239746094 238.0586395263672 324.26080322265625 228.8407745361328 C 383.6910095214844 232.9265899658203 458.3961486816406 231.1898956298828 477.71051025390625 294.0181579589844"/>
    <path stroke-width="0" fill="rgb(2, 60, 59)" opacity="0.31621283" stroke="rgb(144, 67, 133)" stroke-opacity="1.0" stroke-linecap="round" stroke-linejoin="round" d="M 578.2940673828125 103.47928619384766 C 383.340576171875 56.00669860839844 354.4376220703125 126.91517639160156 551.2667236328125 95.13716125488281 C 476.8475646972656 161.81109619140625 393.0105285644531 125.59385681152344 414.6598815917969 122.8339614868164 C 467.4627990722656 165.37100219726562 534.1154174804688 74.92887115478516 545.1758422851562 170.45729064941406 C 369.0540771484375 165.0452880859375 281.662109375 89.78588104248047 578.2940673828125 103.47928619384766"/>
    <path stroke-width="0" fill="rgb(230, 123, 51)" opacity="0.8356986" stroke="rgb(146, 236, 81)" stroke-opacity="1.0" stroke-linecap="round" stroke-linejoin="round" d="M 459.2104797363281 128.59934997558594 C 455.53338623046875 140.01104736328125 474.3647766113281 135.56234741210938 357.3092346191406 136.45521545410156 C 335.9498596191406 130.7753448486328 385.9189147949219 109.36003112792969 398.49041748046875 133.0882568359375 C 397.0508728027344 99.43899536132812 415.2210998535156 98.72012329101562 426.7509765625 94.90666961669922 C 423.6463623046875 94.21276092529297 459.6828918457031 91.22612762451172 459.2104797363281 128.59934997558594"/>
    <path stroke-width="0" fill="rgb(209, 138, 64)" opacity="0.9700539" stroke="rgb(33, 182, 73)" stroke-opacity="1.0" stroke-linecap="round" stroke-linejoin="round" d="M 537.121337890625 79.1081771850586 C 539.8573608398438 80.49052429199219 542.2550048828125 80.72805786132812 423.72674560546875 80.29601287841797 C 406.46661376953125 79.2120590209961 381.2962341308594 84.9951171875 377.3343811035156 53.57996368408203 C 381.4976501464844 24.131385803222656 406.9059143066406 26.311580657958984 396.0322570800781 26.036571502685547 C 448.8017272949219 11.733074188232422 449.3254699707031 48.27431106567383 537.121337890625 79.1081771850586"/>
    <path stroke-width="0" fill="rgb(10, 14, 6)" opacity="0.30271265" stroke="rgb(149, 5, 211)" stroke-opacity="1.0" stroke-linecap="round" stroke-linejoin="round" d="M 552.9684448242188 62.71660232543945 C 553.423583984375 103.61359405517578 545.878662109375 91.6702651977539 464.8200378417969 85.68358612060547 C 343.07281494140625 87.9683837890625 408.9337158203125 78.09439086914062 470.0514831542969 79.47305297851562 C 413.2781677246094 24.64702033996582 420.9241943359375 17.975772857666016 535.41015625 -29.29816436767578 C 546.21826171875 -42.78408432006836 552.2257690429688 -37.50634002685547 552.9684448242188 62.71660232543945"/>
    <path stroke-width="0" fill="rgb(202, 124, 51)" opacity="0.9999581" stroke="rgb(172, 68, 187)" stroke-opacity="1.0" stroke-linecap="round" stroke-linejoin="round" d="M 104.0337905883789 7.599745750427246 C 116.06388092041016 60.25556182861328 51.42536926269531 59.93204879760742 49.858009338378906 32.75165557861328 C 21.350011825561523 72.85591125488281 8.98598575592041 64.33097839355469 -3.9269275665283203 31.734149932861328 C -0.39638569951057434 -22.852750778198242 5.150468826293945 -29.642675399780273 105.14653015136719 -34.69610595703125 C 123.73168182373047 -42.88504409790039 113.10247039794922 -61.82058334350586 104.0337905883789 7.599745750427246"/>
    <path stroke-width="0" fill="rgb(207, 123, 64)" opacity="0.9237291" stroke="rgb(63, 146, 150)" stroke-opacity="1.0" stroke-linecap="round" stroke-linejoin="round" d="M 72.11468505859375 15.370140075683594 C 35.62453842163086 53.39699172973633 31.868879318237305 59.03529357910156 20.5279541015625 82.49481201171875 C -30.939844131469727 68.83262634277344 -36.205814361572266 59.36222839355469 -35.03880310058594 48.51361846923828 C -28.75462532043457 -17.499849319458008 -21.549537658691406 -24.91741371154785 49.66368865966797 -38.775726318359375 C 61.61861038208008 -39.435855865478516 68.7505874633789 -33.031829833984375 72.11468505859375 15.370140075683594"/>
    <path stroke-width="0" fill="rgb(213, 130, 63)" opacity="0.982775" stroke="rgb(56, 242, 114)" stroke-opacity="1.0" stroke-linecap="round" stroke-linejoin="round" d="M 44.17237854003906 81.259033203125 C 22.831920623779297 89.70103454589844 54.35490417480469 120.90723419189453 -9.224658012390137 149.43026733398438 C -52.49724197387695 158.8673858642578 -37.723915100097656 117.98123931884766 -31.166486740112305 68.38406372070312 C -25.72877311706543 14.324484825134277 -16.55060577392578 9.662073135375977 -3.4324557781219482 55.16290283203125 C 30.033611297607422 49.155540466308594 81.79100799560547 4.469543933868408 44.17237854003906 81.259033203125"/>
    <path stroke-width="0" fill="rgb(249, 168, 72)" opacity="0.60077125" stroke="rgb(178, 75, 207)" stroke-opacity="1.0" stroke-linecap="round" stroke-linejoin="round" d="M 214.42950439453125 447.8043518066406 C 234.9053497314453 454.3938293457031 209.6078643798828 450.9538269042969 205.87022399902344 459.96051025390625 C 387.20281982421875 468.291748046875 296.5622863769531 456.22210693359375 250.06651306152344 455.2398986816406 C 231.86233520507812 460.00347900390625 243.482177734375 446.78350830078125 256.3852233886719 461.0049133300781 C 217.05963134765625 421.5543212890625 230.87612915039062 446.4877624511719 214.42950439453125 447.8043518066406"/>
    <path stroke-width="0" fill="rgb(233, 242, 184)" opacity="0.9213372" stroke="rgb(224, 148, 224)" stroke-opacity="1.0" stroke-linecap="round" stroke-linejoin="round" d="M 192.57144165039062 30.49698257446289 C 210.62066650390625 73.85457611083984 243.94186401367188 11.252116203308105 239.94442749023438 41.969051361083984 C 225.1118621826172 41.97658920288086 196.14755249023438 73.68694305419922 202.8362579345703 62.475608825683594 C 197.76873779296875 55.08340072631836 192.0050048828125 66.252197265625 199.08383178710938 48.75209426879883 C 172.42588806152344 4.2832794189453125 182.8637237548828 29.417022705078125 192.57144165039062 30.49698257446289"/>
    <path stroke-width="0" fill="rgb(0, 191, 144)" opacity="0.7129237" stroke="rgb(184, 127, 243)" stroke-opacity="1.0" stroke-linecap="round" stroke-linejoin="round" d="M 352.68328857421875 276.2843017578125 C 339.0040283203125 270.29205322265625 334.6673583984375 270.17193603515625 346.9820251464844 274.484130859375 C 435.0650939941406 300.8348083496094 537.94140625 294.95245361328125 257.0050964355469 295.5356140136719 C 283.5840759277344 298.05230712890625 260.96234130859375 228.7855987548828 311.6236572265625 233.21310424804688 C 406.68231201171875 211.09893798828125 474.6607360839844 304.64959716796875 352.68328857421875 276.2843017578125"/>
    <path stroke-width="0" fill="rgb(0, 167, 110)" opacity="0.7537796" stroke="rgb(108, 154, 4)" stroke-opacity="1.0" stroke-linecap="round" stroke-linejoin="round" d="M 243.07269287109375 161.1393585205078 C 238.7915496826172 187.50765991210938 291.499267578125 142.7089385986328 271.619873046875 167.16665649414062 C 281.3849182128906 185.1666259765625 212.3466033935547 158.10748291015625 207.42088317871094 141.2030487060547 C 257.7841796875 151.31529235839844 263.35858154296875 157.5610809326172 234.96115112304688 163.50689697265625 C 248.27294921875 168.53086853027344 258.33782958984375 162.52670288085938 243.07269287109375 161.1393585205078"/>
    <path stroke-width="0" fill="rgb(4, 134, 75)" opacity="0.81166023" stroke="rgb(168, 73, 157)" stroke-opacity="1.0" stroke-linecap="round" stroke-linejoin="round" d="M 247.188232421875 150.53036499023438 C 268.7997131347656 191.3220977783203 241.6909637451172 153.7608642578125 211.44729614257812 152.1351776123047 C 225.11444091796875 156.40133666992188 216.39541625976562 145.82363891601562 208.72079467773438 157.71958923339844 C 206.86085510253906 122.93205261230469 215.69483947753906 149.5706787109375 233.3921661376953 159.43661499023438 C 204.7486114501953 136.72044372558594 223.47677612304688 147.5258026123047 247.188232421875 150.53036499023438"/>
    <path stroke-width="0" fill="rgb(199, 128, 61)" opacity="1.0" stroke="rgb(34, 76, 145)" stroke-opacity="1.0" stroke-linecap="round" stroke-linejoin="round" d="M 487.45001220703125 19.118452072143555 C 460.40863037109375 142.4884033203125 373.76556396484375 26.311017990112305 398.1175537109375 26.381410598754883 C 426.7102355957031 16.85539436340332 451.7874755859375 29.401866912841797 447.0009765625 38.26784896850586 C 442.73846435546875 1.4936686754226685 463.3562316894531 4.201364517211914 480.0396423339844 -14.45159912109375 C 494.6380920410156 -14.497703552246094 538.8656005859375 3.1531150341033936 487.45001220703125 19.118452072143555"/>
    <path stroke-width="0" fill="rgb(37, 33, 0)" opacity="0.24677223" stroke="rgb(146, 166, 166)" stroke-opacity="1.0" stroke-linecap="round" stroke-linejoin="round" d="M 237.47586059570312 23.205768585205078 C 210.82534790039062 6.450226306915283 147.41928100585938 42.91358947753906 280.99072265625 23.69612693786621 C 326.63690185546875 74.28482055664062 290.3912048339844 -9.652620315551758 263.4245300292969 55.683311462402344 C 269.7630310058594 7.044919490814209 336.6804504394531 53.82011413574219 249.27505493164062 45.2022819519043 C 238.35523986816406 67.7448959350586 241.92994689941406 57.82838439941406 237.47586059570312 23.205768585205078"/>
    <path stroke-width="0" fill="rgb(0, 192, 142)" opacity="0.7374297" stroke="rgb(228, 93, 111)" stroke-opacity="1.0" stroke-linecap="round" stroke-linejoin="round" d="M 48.19515609741211 179.33871459960938 C 44.58323669433594 161.60093688964844 61.35279083251953 166.7886199951172 105.24786376953125 45.224395751953125 C 271.3611145019531 49.846397399902344 80.50262451171875 83.60441589355469 118.59221649169922 167.511962890625 C 85.03276824951172 180.08631896972656 121.27519226074219 158.0609130859375 58.14249038696289 170.77505493164062 C 64.79630279541016 175.98045349121094 45.98115158081055 159.0864715576172 48.19515609741211 179.33871459960938"/>
    <path stroke-width="0" fill="rgb(139, 12, 4)" opacity="0.98613983" stroke="rgb(205, 179, 25)" stroke-opacity="1.0" stroke-linecap="round" stroke-linejoin="round" d="M 176.49246215820312 61.7392578125 C 159.9564971923828 78.65470123291016 179.71495056152344 48.46112823486328 167.5965576171875 80.86099243164062 C 179.6185302734375 49.06453323364258 165.31544494628906 71.8240737915039 161.69850158691406 61.16499710083008 C 153.83778381347656 35.14555358886719 178.8135223388672 71.22615814208984 187.787841796875 33.86677551269531 C 177.0186767578125 10.260958671569824 173.61367797851562 72.72750854492188 176.49246215820312 61.7392578125"/>
    <path stroke-width="0" fill="rgb(0, 2, 0)" opacity="0.9020868" stroke="rgb(182, 254, 38)" stroke-opacity="1.0" stroke-linecap="round" stroke-linejoin="round" d="M 471.1907653808594 258.3454284667969 C 510.0124206542969 250.5855255126953 455.0986022949219 249.14564514160156 449.8299560546875 248.7490997314453 C 487.327880859375 326.98248291015625 534.7245483398438 292.5491638183594 503.4043273925781 295.17950439453125 C 506.1050720214844 322.08294677734375 479.33258056640625 244.4072723388672 484.4720764160156 254.42425537109375 C 465.6662902832031 260.2332763671875 472.9502868652344 267.31976318359375 471.1907653808594 258.3454284667969"/>
    <path stroke-width="0" fill="rgb(0, 139, 69)" opacity="0.948564" stroke="rgb(41, 156, 31)" stroke-opacity="1.0" stroke-linecap="round" stroke-linejoin="round" d="M 489.7655029296875 292.8017578125 C 466.2447509765625 225.4345703125 489.8433532714844 280.3704833984375 456.8498840332031 262.268310546875 C 472.76031494140625 306.52484130859375 472.282958984375 244.31494140625 458.4708557128906 267.1890869140625 C 406.84979248046875 246.03013610839844 382.9790954589844 224.0240478515625 480.0802307128906 257.5312805175781 C 459.48028564453125 272.9158020019531 465.0326843261719 302.0892639160156 489.7655029296875 292.8017578125"/>
    <path stroke-width="0" fill="rgb(0, 9, 2)" opacity="0.9972767" stroke="rgb(205, 145, 103)" stroke-opacity="1.0" stroke-linecap="round" stroke-linejoin="round" d="M 231.5023651123047 63.13006591796875 C 222.42398071289062 67.3573989868164 234.00955200195312 77.29624938964844 213.3563232421875 60.1064338684082 C 232.39334106445312 51.12852478027344 207.13902282714844 72.26625061035156 233.8511199951172 71.18838500976562 C 216.73739624023438 64.60025787353516 207.9506378173828 51.12214660644531 226.14208984375 34.7789421081543 C 240.59878540039062 54.5837287902832 221.65921020507812 54.22761535644531 231.5023651123047 63.13006591796875"/>
    <path stroke-width="0" fill="rgb(232, 168, 75)" opacity="0.91785496" stroke="rgb(177, 115, 184)" stroke-opacity="1.0" stroke-linecap="round" stroke-linejoin="round" d="M 81.62676239013672 207.14999389648438 C 79.35343933105469 166.85546875 81.43535614013672 185.2249755859375 112.97301483154297 192.00376892089844 C 119.6499252319336 237.24166870117188 28.5035400390625 193.70726013183594 73.96764373779297 168.08572387695312 C 124.55628967285156 221.43511962890625 117.07469177246094 160.8948974609375 73.77804565429688 166.56214904785156 C 46.387386322021484 187.24603271484375 69.52332305908203 202.68087768554688 81.62676239013672 207.14999389648438"/>
    <path stroke-width="0" fill="rgb(52, 31, 0)" opacity="0.7741866" stroke="rgb(248, 218, 2)" stroke-opacity="1.0" stroke-linecap="round" stroke-linejoin="round" d="M 259.6011962890625 283.0987854003906 C 263.0923767089844 302.2792663574219 259.4098205566406 278.5194396972656 255.8480224609375 299.1555480957031 C 319.1219177246094 302.6798400878906 304.64019775390625 290.9714660644531 300.8714904785156 291.3107604980469 C 310.4387512207031 290.98651123046875 299.4298400878906 298.194580078125 301.9804382324219 295.9332275390625 C 247.84368896484375 294.46484375 265.4796142578125 299.055419921875 259.6011962890625 283.0987854003906"/>
    <path stroke-width="0" fill="rgb(14, 1, 9)" opacity="0.9685402" stroke="rgb(186, 43, 132)" stroke-opacity="1.0" stroke-linecap="round" stroke-linejoin="round" d="M 100.091552734375 490.04229736328125 C 170.878662109375 450.69110107421875 66.3431167602539 470.7247009277344 33.19837951660156 453.1415100097656 C 72.31389617919922 466.55084228515625 65.1653060913086 457.408935546875 32.22256088256836 456.750244140625 C 73.61849212646484 458.7299499511719 85.15799713134766 471.19390869140625 90.73587799072266 484.89990234375 C 97.0607681274414 472.9085693359375 86.50676727294922 467.7756652832031 100.091552734375 490.04229736328125"/>
    <path stroke-width="0" fill="rgb(11, 139, 80)" opacity="0.9510409" stroke="rgb(50, 4, 202)" stroke-opacity="1.0" stroke-linecap="round" stroke-linejoin="round" d="M 44.625823974609375 198.51828002929688 C 48.6492805480957 172.41094970703125 -21.27851104736328 214.1627655029297 27.566837310791016 185.6396484375 C 18.35747528076172 188.9498291015625 24.021486282348633 190.30123901367188 39.99381637573242 174.6645050048828 C 21.41860008239746 191.3666534423828 23.920330047607422 188.880615234375 -4.456233501434326 190.65248107910156 C 69.80524444580078 192.0174102783203 62.20457077026367 150.96530151367188 44.625823974609375 198.51828002929688"/>
    <path stroke-width="0" fill="rgb(2, 130, 109)" opacity="0.59589523" stroke="rgb(88, 236, 179)" stroke-opacity="1.0" stroke-linecap="round" stroke-linejoin="round" d="M 212.298095703125 149.51022338867188 C 215.82081604003906 154.8897705078125 205.32655334472656 197.50497436523438 220.809326171875 229.71939086914062 C 200.6632537841797 180.08615112304688 209.37879943847656 144.0806121826172 211.42520141601562 152.86288452148438 C 217.538818359375 175.1744842529297 210.34400939941406 153.62538146972656 212.27337646484375 139.9127960205078 C 213.52223205566406 148.92306518554688 206.32249450683594 135.11598205566406 212.298095703125 149.51022338867188"/>
    <path stroke-width="0" fill="rgb(240, 187, 102)" opacity="0.42861158" stroke="rgb(41, 158, 147)" stroke-opacity="1.0" stroke-linecap="round" stroke-linejoin="round" d="M 219.43067932128906 438.5515441894531 C 529.266845703125 422.088134765625 173.26394653320312 464.1716613769531 520.1714477539062 459.1812438964844 C 265.5503845214844 469.6258239746094 167.15638732910156 463.9755859375 222.28973388671875 452.5843811035156 C 214.9020233154297 459.14007568359375 232.32591247558594 457.69244384765625 251.2210693359375 458.6163635253906 C 204.74647521972656 459.6667785644531 217.9405517578125 445.18255615234375 219.43067932128906 438.5515441894531"/>
    <path stroke-width="0" fill="rgb(28, 0, 0)" opacity="0.59355575" stroke="rgb(238, 156, 136)" stroke-opacity="1.0" stroke-linecap="round" stroke-linejoin="round" d="M 233.2471923828125 291.81597900390625 C 254.57029724121094 255.45663452148438 256.67059326171875 246.16958618164062 244.00338745117188 259.53033447265625 C 266.3081970214844 241.46682739257812 281.1398620605469 184.46478271484375 243.18426513671875 295.34478759765625 C 272.8486022949219 297.3659362792969 242.82122802734375 325.2489929199219 290.37091064453125 226.9718017578125 C 248.82125854492188 285.3301696777344 267.26409912109375 309.9306640625 233.2471923828125 291.81597900390625"/>
    <path stroke-width="0" fill="rgb(0, 200, 153)" opacity="0.5330054" stroke="rgb(186, 79, 101)" stroke-opacity="1.0" stroke-linecap="round" stroke-linejoin="round" d="M 396.15380859375 273.54254150390625 C 390.7854919433594 265.88092041015625 380.0902099609375 270.3808288574219 371.3043212890625 273.9351501464844 C 433.5535888671875 273.36126708984375 427.04803466796875 286.655517578125 343.2933654785156 273.75738525390625 C 357.63555908203125 183.91690063476562 389.4853515625 286.1001281738281 471.7475280761719 296.19671630859375 C 147.5021209716797 296.7217102050781 267.0207214355469 297.449951171875 396.15380859375 273.54254150390625"/>
    <path stroke-width="0" fill="rgb(208, 113, 57)" opacity="0.94656265" stroke="rgb(47, 240, 188)" stroke-opacity="1.0" stroke-linecap="round" stroke-linejoin="round" d="M 566.2839965820312 37.0387077331543 C 686.119873046875 62.28223419189453 468.4016418457031 100.45558166503906 411.5687561035156 67.0610122680664 C 451.48114013671875 91.22901916503906 439.65032958984375 69.80126190185547 484.9388732910156 32.08009719848633 C 430.75433349609375 6.583921432495117 486.94329833984375 34.467994689941406 475.34429931640625 -26.329370498657227 C 503.5650634765625 21.553752899169922 525.0847778320312 -18.475341796875 566.2839965820312 37.0387077331543"/>
    <path stroke-width="0" fill="rgb(0, 176, 114)" opacity="0.76205313" stroke="rgb(57, 64, 14)" stroke-opacity="1.0" stroke-linecap="round" stroke-linejoin="round" d="M 466.6693420410156 293.05328369140625 C 379.1759948730469 275.7074279785156 367.1910400390625 267.4721374511719 412.4219055175781 275.4425048828125 C 423.4468078613281 270.10015869140625 414.7714538574219 280.6151428222656 396.3559875488281 281.65814208984375 C 396.19720458984375 251.46841430664062 375.7889404296875 242.80960083007812 348.8926696777344 237.73878479003906 C 370.7580261230469 240.0045166015625 377.91070556640625 206.28575134277344 466.6693420410156 293.05328369140625"/>
    <path stroke-width="0" fill="rgb(0, 197, 141)" opacity="0.7208093" stroke="rgb(79, 177, 96)" stroke-opacity="1.0" stroke-linecap="round" stroke-linejoin="round" d="M 403.7394714355469 266.3488464355469 C 345.68133544921875 287.754150390625 344.7496643066406 300.0506286621094 431.8392639160156 275.809326171875 C 405.5768737792969 275.83221435546875 397.6594543457031 258.1502380371094 414.2207946777344 263.12457275390625 C 285.8158264160156 316.3997497558594 258.515625 249.9585418701172 352.6920166015625 236.37010192871094 C 407.86651611328125 231.0090789794922 436.8472900390625 310.1557312011719 403.7394714355469 266.3488464355469"/>
    <path stroke-width="0" fill="rgb(0, 162, 112)" opacity="0.60731864" stroke="rgb(6, 17, 173)" stroke-opacity="1.0" stroke-linecap="round" stroke-linejoin="round" d="M 239.9000701904297 156.18405151367188 C 218.6927490234375 155.60093688964844 214.739013671875 173.45608520507812 228.95628356933594 151.2730255126953 C 223.41111755371094 157.71267700195312 191.9275360107422 154.82936096191406 225.14109802246094 163.05831909179688 C 230.60504150390625 171.00180053710938 224.8207244873047 159.7853240966797 209.80003356933594 143.5620880126953 C 207.56089782714844 141.4043426513672 201.2797393798828 172.90440368652344 239.9000701904297 156.18405151367188"/>
    <path stroke-width="0" fill="rgb(0, 8, 17)" opacity="0.24240938" stroke="rgb(136, 228, 252)" stroke-opacity="1.0" stroke-linecap="round" stroke-linejoin="round" d="M 29.005374908447266 268.4025573730469 C 13.783258438110352 379.22308349609375 63.42991638183594 425.8096008300781 38.327980041503906 384.0750732421875 C 107.46896362304688 375.7937316894531 69.93765258789062 381.31402587890625 33.89139175415039 383.7974548339844 C 91.30192565917969 463.58270263671875 63.648651123046875 411.6889953613281 67.54460906982422 311.342041015625 C -8.417576789855957 288.1533508300781 50.734493255615234 472.7356872558594 29.005374908447266 268.4025573730469"/>
    <path stroke-width="0" fill="rgb(196, 13, 10)" opacity="0.865246" stroke="rgb(169, 67, 5)" stroke-opacity="1.0" stroke-linecap="round" stroke-linejoin="round" d="M 369.2496032714844 309.05841064453125 C 365.7578430175781 311.1408386230469 323.960693359375 305.63897705078125 340.11309814453125 307.6652526855469 C 372.2742614746094 311.2431335449219 372.1883239746094 307.6849365234375 349.8705749511719 312.5343933105469 C 356.96990966796875 310.911865234375 366.54058837890625 309.6147766113281 314.68603515625 318.4894714355469 C 311.1832580566406 319.5111083984375 321.0562438964844 317.2219543457031 369.2496032714844 309.05841064453125"/>
    <path stroke-width="0" fill="rgb(144, 0, 0)" opacity="0.8921457" stroke="rgb(81, 97, 150)" stroke-opacity="1.0" stroke-linecap="round" stroke-linejoin="round" d="M 532.764404296875 367.9017333984375 C 495.2733459472656 373.2679748535156 514.7278442382812 390.689208984375 491.92431640625 368.4598083496094 C 220.8762664794922 458.6872863769531 66.40538787841797 428.8865661621094 488.5583190917969 437.76318359375 C 492.44598388671875 349.6024169921875 540.5528564453125 398.523193359375 451.7981872558594 332.598388671875 C 546.7251586914062 264.85809326171875 463.182861328125 369.2451477050781 532.764404296875 367.9017333984375"/>
    <path stroke-width="0" fill="rgb(0, 126, 69)" opacity="0.6035296" stroke="rgb(160, 222, 69)" stroke-opacity="1.0" stroke-linecap="round" stroke-linejoin="round" d="M 237.82435607910156 251.94093322753906 C 239.0287322998047 237.870849609375 239.39906311035156 246.93075561523438 238.39967346191406 249.1614990234375 C 227.77882385253906 335.6796569824219 251.4966583251953 278.4704284667969 244.70838928222656 253.6397705078125 C 242.28831481933594 244.55569458007812 242.33213806152344 242.067138671875 245.82461547851562 257.45465087890625 C 219.96954345703125 296.76214599609375 236.825927734375 281.9971618652344 237.82435607910156 251.94093322753906"/>
    <path stroke-width="0" fill="rgb(222, 181, 82)" opacity="0.42071602" stroke="rgb(47, 242, 175)" stroke-opacity="1.0" stroke-linecap="round" stroke-linejoin="round" d="M 546.82373046875 -0.48106956481933594 C 529.9327392578125 47.69393539428711 531.8772583007812 25.513994216918945 462.1391296386719 26.088472366333008 C 459.7081604003906 -1.316287636756897 427.6767272949219 39.05574417114258 468.7033386230469 -11.727535247802734 C 447.3170166015625 -20.65669822692871 481.67584228515625 -15.862959861755371 500.60137939453125 -12.660518646240234 C 520.63427734375 -45.353782653808594 535.6817626953125 -51.24779510498047 546.82373046875 -0.48106956481933594"/>
    <path stroke-width="0" fill="rgb(0, 133, 105)" opacity="0.8584923" stroke="rgb(241, 186, 64)" stroke-opacity="1.0" stroke-linecap="round" stroke-linejoin="round" d="M 202.0569305419922 23.24001121520996 C 177.0199737548828 73.34905242919922 202.65792846679688 -34.130088806152344 85.62950134277344 49.7056770324707 C 121.95531463623047 27.841970443725586 97.84805297851562 -3.909141778945923 76.32247161865234 -14.486825942993164 C 69.79615783691406 -32.208030700683594 99.79993438720703 -13.44342041015625 180.5605926513672 -127.52741241455078 C -6.6507720947265625 24.464048385620117 262.54669189453125 5.847505569458008 202.0569305419922 23.24001121520996"/>
    <path stroke-width="0" fill="rgb(208, 129, 67)" opacity="0.9003206" stroke="rgb(132, 6, 52)" stroke-opacity="1.0" stroke-linecap="round" stroke-linejoin="round" d="M 72.49801635742188 -16.17527198791504 C 74.43991088867188 -13.36443042755127 73.28853607177734 0.04172750934958458 75.04837799072266 12.220538139343262 C 73.79481506347656 56.117774963378906 84.59671020507812 9.026805877685547 69.91014099121094 4.217236518859863 C 80.28716278076172 27.30756378173828 21.590272903442383 37.17460250854492 27.17585563659668 39.11542892456055 C 99.96693420410156 60.41740798950195 104.27835845947266 52.65812301635742 72.49801635742188 -16.17527198791504"/>
    <path stroke-width="0" fill="rgb(223, 240, 166)" opacity="0.6668583" stroke="rgb(95, 118, 70)" stroke-opacity="1.0" stroke-linecap="round" stroke-linejoin="round" d="M 237.7367706298828 461.9393005371094 C 207.90460205078125 459.2681884765625 182.2862091064453 478.1725769042969 229.69178771972656 438.9719543457031 C 211.73565673828125 430.7892761230469 225.2149200439453 436.1378479003906 217.58380126953125 435.5162658691406 C 229.82525634765625 474.761962890625 229.10379028320312 467.51116943359375 225.6574249267578 453.6374206542969 C 231.1610870361328 408.5377502441406 222.3685760498047 471.19171142578125 237.7367706298828 461.9393005371094"/>
    <path stroke-width="0" fill="rgb(0, 89, 0)" opacity="0.5424384" stroke="rgb(220, 29, 131)" stroke-opacity="1.0" stroke-linecap="round" stroke-linejoin="round" d="M 147.29649353027344 40.784908294677734 C 153.01394653320312 47.371917724609375 160.01393127441406 55.8009147644043 160.94329833984375 44.16279220581055 C 162.72579956054688 44.66633987426758 209.2600860595703 51.977294921875 161.09950256347656 51.116241455078125 C 168.27349853515625 65.5241470336914 172.92019653320312 60.52212142944336 159.86373901367188 67.42707824707031 C 147.8088836669922 48.1897087097168 167.50039672851562 63.97942352294922 147.29649353027344 40.784908294677734"/>
    <path stroke-width="0" fill="rgb(0, 162, 90)" opacity="0.8174266" stroke="rgb(182, 100, 144)" stroke-opacity="1.0" stroke-linecap="round" stroke-linejoin="round" d="M 112.84383392333984 431.8763732910156 C 98.30309295654297 438.4093322753906 64.788330078125 423.1571960449219 66.6894760131836 411.93646240234375 C 62.27941131591797 420.02191162109375 101.71456909179688 432.97503662109375 74.94261932373047 433.8175964355469 C 44.19254684448242 436.1487121582031 66.2142562866211 406.1788024902344 72.23949432373047 415.27752685546875 C 24.099822998046875 411.8804016113281 86.1884536743164 397.2334899902344 112.84383392333984 431.8763732910156"/>
    <path stroke-width="0" fill="rgb(0, 0, 0)" opacity="1.0" stroke="rgb(36, 124, 90)" stroke-opacity="1.0" stroke-linecap="round" stroke-linejoin="round" d="M 189.8169403076172 68.29180908203125 C 202.6050262451172 25.942276000976562 180.36859130859375 24.398183822631836 173.79464721679688 56.01934051513672 C 202.27488708496094 50.259368896484375 210.42298889160156 96.63600158691406 186.19886779785156 60.9103889465332 C 186.5634002685547 54.10624313354492 199.40573120117188 61.025474548339844 190.24537658691406 58.431880950927734 C 173.35482788085938 49.92536544799805 197.66783142089844 53.976951599121094 189.8169403076172 68.29180908203125"/>
    <path stroke-width="0" fill="rgb(58, 231, 172)" opacity="0.4431971" stroke="rgb(195, 190, 230)" stroke-opacity="1.0" stroke-linecap="round" stroke-linejoin="round" d="M 250.99826049804688 75.22114562988281 C 242.81863403320312 59.652198791503906 235.1229248046875 85.04191589355469 213.31756591796875 92.3377685546875 C 228.16018676757812 96.34674835205078 213.7560577392578 65.4977035522461 232.69198608398438 26.02359962463379 C 239.3090057373047 86.52423858642578 251.35134887695312 108.00059509277344 217.16949462890625 77.6227798461914 C 229.15945434570312 98.69422912597656 239.3802032470703 89.75411224365234 250.99826049804688 75.22114562988281"/>
    <path stroke-width="0" fill="rgb(13, 85, 79)" opacity="0.84935236" stroke="rgb(140, 149, 245)" stroke-opacity="1.0" stroke-linecap="round" stroke-linejoin="round" d="M 44.38014221191406 417.2976989746094 C 22.302684783935547 404.51617431640625 20.279138565063477 404.5345458984375 44.32184982299805 415.7591552734375 C 31.47251319885254 407.68157958984375 33.12841796875 415.04248046875 13.629597663879395 402.7017822265625 C 24.102922439575195 408.8247985839844 54.66719436645508 427.4084777832031 25.19538688659668 409.6213073730469 C 34.46079635620117 409.4947509765625 36.52774429321289 413.28619384765625 44.38014221191406 417.2976989746094"/>
    <path stroke-width="0" fill="rgb(205, 167, 71)" opacity="0.87519866" stroke="rgb(61, 25, 4)" stroke-opacity="1.0" stroke-linecap="round" stroke-linejoin="round" d="M 293.8658447265625 73.79928588867188 C 283.0699768066406 18.45209503173828 294.4379577636719 24.071855545043945 304.8318786621094 62.99986267089844 C 293.5078430175781 54.8801155090332 292.39373779296875 48.769073486328125 296.2502746582031 51.19198226928711 C 290.8742980957031 51.79942321777344 308.2248229980469 54.118770599365234 282.6225891113281 56.15781784057617 C 294.59417724609375 49.50320053100586 289.7463073730469 66.12617492675781 293.8658447265625 73.79928588867188"/>
    <path stroke-width="0" fill="rgb(253, 13, 4)" opacity="0.70694613" stroke="rgb(170, 200, 71)" stroke-opacity="1.0" stroke-linecap="round" stroke-linejoin="round" d="M 174.45657348632812 53.347347259521484 C 160.29856872558594 50.23937225341797 157.3715057373047 66.81919860839844 154.56341552734375 51.54960632324219 C 156.84542846679688 63.481658935546875 170.91024780273438 52.430538177490234 159.89393615722656 55.37259292602539 C 171.52142333984375 68.5968246459961 175.8275604248047 59.85686492919922 176.98727416992188 37.88401794433594 C 198.4723358154297 18.053056716918945 178.17054748535156 38.54862976074219 174.45657348632812 53.347347259521484"/>
    <path stroke-width="0" fill="rgb(247, 178, 96)" opacity="0.38808656" stroke="rgb(16, 123, 249)" stroke-opacity="1.0" stroke-linecap="round" stroke-linejoin="round" d="M 356.98236083984375 103.68905639648438 C 337.928466796875 36.45246505737305 223.80905151367188 72.61639404296875 273.7044677734375 57.133766174316406 C 282.8486022949219 91.53119659423828 274.0987243652344 84.16619110107422 283.419921875 77.34619903564453 C 273.0269470214844 117.07325744628906 282.8290710449219 126.78548431396484 262.1329650878906 138.95388793945312 C 258.6585998535156 99.2773208618164 310.81494140625 130.80421447753906 356.98236083984375 103.68905639648438"/>
    <path stroke-width="0" fill="rgb(0, 143, 83)" opacity="0.83232623" stroke="rgb(86, 245, 59)" stroke-opacity="1.0" stroke-linecap="round" stroke-linejoin="round" d="M 308.9132995605469 122.05081939697266 C 295.7605285644531 109.51333618164062 219.9378204345703 119.25917053222656 251.18930053710938 113.39124298095703 C 262.9473876953125 120.40133666992188 271.4426574707031 127.23072814941406 267.9755859375 114.80036163330078 C 266.9486083984375 136.9147491455078 264.23211669921875 131.62550354003906 250.81375122070312 121.20638275146484 C 263.980712890625 119.3632583618164 273.9686584472656 117.92717742919922 308.9132995605469 122.05081939697266"/>
    <path stroke-width="0" fill="rgb(0, 0, 1)" opacity="0.9944391" stroke="rgb(240, 203, 160)" stroke-opacity="1.0" stroke-linecap="round" stroke-linejoin="round" d="M 267.250732421875 134.8174591064453 C 279.26849365234375 142.81349182128906 268.5402526855469 148.4676055908203 248.05154418945312 138.3571319580078 C 251.3314208984375 128.43093872070312 242.14047241210938 147.16818237304688 236.506591796875 135.22760009765625 C 242.7305450439453 102.5802230834961 234.0228271484375 118.40323638916016 241.62588500976562 108.1109390258789 C 282.997314453125 113.74869537353516 290.0325927734375 130.69314575195312 267.250732421875 134.8174591064453"/>
    <path stroke-width="0" fill="rgb(0, 80, 49)" opacity="0.7342393" stroke="rgb(74, 216, 157)" stroke-opacity="1.0" stroke-linecap="round" stroke-linejoin="round" d="M 266.8037414550781 118.53266906738281 C 265.1337585449219 121.93506622314453 260.944091796875 131.7544708251953 259.9524230957031 134.0215301513672 C 264.3930358886719 126.88887023925781 261.80462646484375 131.51063537597656 255.054443359375 142.33450317382812 C 254.23388671875 156.73890686035156 256.7620849609375 136.98410034179688 257.2688903808594 121.72027587890625 C 259.1561279296875 136.13414001464844 246.09312438964844 164.5460205078125 266.8037414550781 118.53266906738281"/>
    <path stroke-width="0" fill="rgb(66, 0, 0)" opacity="0.61816627" stroke="rgb(88, 37, 250)" stroke-opacity="1.0" stroke-linecap="round" stroke-linejoin="round" d="M 274.1665344238281 186.65087890625 C 291.5502014160156 196.78550720214844 261.70233154296875 210.9817352294922 284.6845397949219 190.13970947265625 C 306.4577941894531 188.32774353027344 289.1081848144531 200.62393188476562 269.4806213378906 210.77049255371094 C 292.93475341796875 231.2808380126953 250.7205352783203 207.9752655029297 338.54241943359375 211.32664489746094 C 251.4212188720703 200.70484924316406 294.7447204589844 214.47618103027344 274.1665344238281 186.65087890625"/>
    <path stroke-width="0" fill="rgb(0, 103, 91)" opacity="0.54191947" stroke="rgb(126, 163, 93)" stroke-opacity="1.0" stroke-linecap="round" stroke-linejoin="round" d="M 248.0811309814453 40.86335372924805 C 229.2445831298828 6.580615043640137 211.9005126953125 19.046247482299805 263.2494201660156 16.726118087768555 C 248.95960998535156 46.267940521240234 240.3929901123047 30.087984085083008 256.3542175292969 30.579055786132812 C 236.78414916992188 26.37882423400879 185.86074829101562 23.354080200195312 284.8128356933594 5.298074722290039 C 183.2952117919922 -19.47046661376953 216.33554077148438 3.703195810317993 248.0811309814453 40.86335372924805"/>
    <path stroke-width="0" fill="rgb(208, 124, 85)" opacity="0.52740884" stroke="rgb(209, 48, 130)" stroke-opacity="1.0" stroke-linecap="round" stroke-linejoin="round" d="M 194.11878967285156 34.47709274291992 C 208.4024200439453 37.873538970947266 229.69671630859375 12.224331855773926 240.99180603027344 37.05175018310547 C 233.0012664794922 45.001136779785156 235.7858428955078 31.21684455871582 206.9219970703125 41.15044021606445 C 187.47665405273438 15.292367935180664 227.80233764648438 25.471603393554688 243.63633728027344 28.50898551940918 C 214.40452575683594 16.821434020996094 210.3865509033203 38.09357452392578 194.11878967285156 34.47709274291992"/>
    <path stroke-width="0" fill="rgb(199, 144, 71)" opacity="0.7066011" stroke="rgb(24, 219, 248)" stroke-opacity="1.0" stroke-linecap="round" stroke-linejoin="round" d="M 272.2177734375 37.320438385009766 C 294.9867248535156 31.19512939453125 297.34674072265625 40.77393341064453 256.689208984375 37.285888671875 C 283.8313293457031 67.5050277709961 308.39215087890625 35.95738220214844 296.8627624511719 69.21650695800781 C 307.8123779296875 53.97964096069336 313.2068176269531 21.742788314819336 245.46058654785156 51.34675979614258 C 272.1761474609375 52.33323669433594 274.307373046875 55.259788513183594 272.2177734375 37.320438385009766"/>
    <path stroke-width="0" fill="rgb(0, 0, 0)" opacity="0.7742154" stroke="rgb(231, 197, 84)" stroke-opacity="1.0" stroke-linecap="round" stroke-linejoin="round" d="M 188.70606994628906 53.02703857421875 C 188.18307495117188 60.456050872802734 177.38778686523438 85.03831481933594 189.52163696289062 44.32404327392578 C 208.0936737060547 46.653961181640625 164.9781951904297 81.82139587402344 178.28611755371094 67.93445587158203 C 184.71527099609375 52.97712326049805 194.9848175048828 51.66323471069336 185.6811065673828 49.890899658203125 C 174.93772888183594 43.289039611816406 192.4971160888672 64.15047454833984 188.70606994628906 53.02703857421875"/>
    <path stroke-width="0" fill="rgb(75, 108, 78)" opacity="0.6228329" stroke="rgb(103, 59, 33)" stroke-opacity="1.0" stroke-linecap="round" stroke-linejoin="round" d="M 223.85263061523438 65.43218994140625 C 224.4314422607422 68.4952392578125 229.59573364257812 74.36388397216797 225.14224243164062 30.155376434326172 C 220.3651885986328 42.661136627197266 219.04116821289062 30.364347457885742 196.16018676757812 18.91596794128418 C 151.82208251953125 -2.6713311672210693 151.1409454345703 -2.342785120010376 196.85910034179688 19.743337631225586 C 222.64810180664062 32.10044860839844 224.4214324951172 43.95366287231445 223.85263061523438 65.43218994140625"/>
    <path stroke-width="0" fill="rgb(0, 1, 1)" opacity="0.9669024" stroke="rgb(185, 2, 196)" stroke-opacity="1.0" stroke-linecap="round" stroke-linejoin="round" d="M 216.2664794921875 73.5374755859375 C 208.1540985107422 86.83793640136719 242.35305786132812 78.19149017333984 219.29739379882812 89.68121337890625 C 201.76002502441406 84.8091812133789 215.86314392089844 69.50772857666016 236.07424926757812 101.0466079711914 C 254.77914428710938 83.29471588134766 242.1734619140625 84.04595184326172 218.4491729736328 58.57285690307617 C 216.9633331298828 7.952106952667236 246.8917694091797 46.53694534301758 216.2664794921875 73.5374755859375"/>
    <path stroke-width="0" fill="rgb(55, 194, 85)" opacity="0.6135997" stroke="rgb(20, 22, 171)" stroke-opacity="1.0" stroke-linecap="round" stroke-linejoin="round" d="M 249.32147216796875 39.16070556640625 C 244.59010314941406 52.542572021484375 227.2259521484375 66.04912567138672 232.20188903808594 97.79763793945312 C 239.8786163330078 52.143760681152344 227.11434936523438 59.805599212646484 259.4347839355469 67.33275604248047 C 251.18463134765625 69.80223846435547 237.01039123535156 51.370479583740234 241.7451171875 39.13108444213867 C 228.87669372558594 51.1773567199707 248.41233825683594 100.01373291015625 249.32147216796875 39.16070556640625"/>
    <path stroke-width="0" fill="rgb(243, 253, 246)" opacity="0.85749686" stroke="rgb(107, 142, 219)" stroke-opacity="1.0" stroke-linecap="round" stroke-linejoin="round" d="M 201.04547119140625 33.76834487915039 C 211.5133056640625 99.03050231933594 230.33473205566406 54.28197479248047 207.56314086914062 48.667259216308594 C 192.49427795410156 46.446014404296875 199.55569458007812 67.69081115722656 218.28883361816406 71.14563751220703 C 199.9999237060547 65.75418853759766 203.04043579101562 68.65184020996094 202.93502807617188 77.19575500488281 C 207.96420288085938 51.57328796386719 204.16140747070312 60.12162399291992 201.04547119140625 33.76834487915039"/>
    <path stroke-width="0" fill="rgb(176, 183, 127)" opacity="0.68055725" stroke="rgb(68, 33, 14)" stroke-opacity="1.0" stroke-linecap="round" stroke-linejoin="round" d="M 229.8651123046875 84.52682495117188 C 217.10252380371094 94.38636016845703 218.5009002685547 77.22347259521484 247.43783569335938 70.5813980102539 C 256.4983825683594 72.32624816894531 247.8790283203125 73.63140106201172 210.74305725097656 70.58708190917969 C 214.8782196044922 66.51420593261719 232.91798400878906 59.87472915649414 235.6204833984375 62.23065948486328 C 236.6230926513672 39.89878463745117 239.32395935058594 56.78590393066406 229.8651123046875 84.52682495117188"/>
    <path stroke-width="0" fill="rgb(0, 175, 120)" opacity="0.6564732" stroke="rgb(66, 116, 174)" stroke-opacity="1.0" stroke-linecap="round" stroke-linejoin="round" d="M 150.24908447265625 51.6654052734375 C 142.593994140625 45.0651969909668 134.59938049316406 65.46121978759766 138.65289306640625 56.233795166015625 C 158.5841827392578 39.7682991027832 131.17184448242188 5.898238182067871 144.2809295654297 69.34022521972656 C 145.48526000976562 69.76075744628906 127.9498291015625 34.08489227294922 182.35989379882812 26.237548828125 C 161.604736328125 52.56014633178711 155.03729248046875 82.69395446777344 150.24908447265625 51.6654052734375"/>
    <path stroke-width="0" fill="rgb(0, 0, 0)" opacity="0.9999729" stroke="rgb(72, 96, 46)" stroke-opacity="1.0" stroke-linecap="round" stroke-linejoin="round" d="M 215.5724334716797 113.73046112060547 C 240.70330810546875 103.15924072265625 243.78271484375 104.3144302368164 220.24310302734375 113.9765396118164 C 252.35791015625 70.51576232910156 241.78500366210938 67.75981140136719 188.83065795898438 79.86738586425781 C 205.40809631347656 64.606201171875 229.26174926757812 34.003910064697266 230.3689422607422 69.77271270751953 C 199.09251403808594 95.3102035522461 210.76071166992188 108.58533477783203 215.5724334716797 113.73046112060547"/>
    <path stroke-width="0" fill="rgb(27, 54, 35)" opacity="0.73904496" stroke="rgb(14, 177, 198)" stroke-opacity="1.0" stroke-linecap="round" stroke-linejoin="round" d="M 273.2183532714844 94.09099578857422 C 229.11012268066406 80.96212768554688 268.58001708984375 103.32679748535156 269.16046142578125 106.8680648803711 C 267.2113342285156 100.44625091552734 246.26551818847656 75.4709243774414 256.55413818359375 88.89240264892578 C 228.631103515625 71.45100402832031 257.6453552246094 82.53279113769531 241.11447143554688 71.56731414794922 C 241.04910278320312 75.15081787109375 258.16241455078125 99.5518798828125 273.2183532714844 94.09099578857422"/>
    <path stroke-width="0" fill="rgb(226, 240, 169)" opacity="0.8832402" stroke="rgb(66, 95, 149)" stroke-opacity="1.0" stroke-linecap="round" stroke-linejoin="round" d="M 264.1497802734375 107.02775573730469 C 262.0010070800781 109.44078063964844 243.8836212158203 79.40477752685547 250.99136352539062 80.62761688232422 C 267.9462890625 62.346805572509766 270.1844482421875 58.674713134765625 258.51959228515625 72.39421081542969 C 244.55690002441406 99.5833740234375 203.61781311035156 49.94211196899414 247.30401611328125 68.13823699951172 C 253.06553649902344 89.03651428222656 225.33151245117188 82.97258758544922 264.1497802734375 107.02775573730469"/>
    <path stroke-width="0" fill="rgb(239, 219, 129)" opacity="0.70080435" stroke="rgb(94, 50, 117)" stroke-opacity="1.0" stroke-linecap="round" stroke-linejoin="round" d="M 262.116455078125 92.43805694580078 C 253.592041015625 80.0168685913086 232.38539123535156 22.784198760986328 252.898681640625 87.99456787109375 C 257.3252868652344 76.53387451171875 256.03289794921875 73.74372863769531 261.0418395996094 68.17422485351562 C 243.37124633789062 96.16558074951172 229.59169006347656 91.08399963378906 231.60206604003906 24.95355987548828 C 258.3370361328125 105.3891830444336 238.20750427246094 93.53718566894531 262.116455078125 92.43805694580078"/>
    <path stroke-width="0" fill="rgb(238, 165, 77)" opacity="0.65906346" stroke="rgb(203, 19, 132)" stroke-opacity="1.0" stroke-linecap="round" stroke-linejoin="round" d="M 272.2790832519531 109.06858825683594 C 224.22305297851562 71.26496887207031 213.63192749023438 31.65575408935547 333.5154724121094 93.86660766601562 C 265.6940612792969 98.08163452148438 243.18092346191406 91.88482666015625 239.0601806640625 65.6646728515625 C 251.27593994140625 102.96833801269531 264.0301208496094 108.38529968261719 267.1298522949219 92.46271514892578 C 250.36334228515625 84.99126434326172 275.0933532714844 84.7977523803711 272.2790832519531 109.06858825683594"/>
    <path stroke-width="0" fill="rgb(254, 181, 89)" opacity="0.671879" stroke="rgb(147, 244, 164)" stroke-opacity="1.0" stroke-linecap="round" stroke-linejoin="round" d="M 282.0159606933594 107.21900939941406 C 285.6519470214844 106.10546112060547 242.78424072265625 95.95547485351562 269.06396484375 85.63382720947266 C 273.94384765625 89.40730285644531 264.614990234375 83.71439361572266 257.9274597167969 94.77385711669922 C 354.0071105957031 108.30416870117188 263.9148864746094 132.72854614257812 280.2633972167969 87.78215026855469 C 274.36578369140625 77.46035766601562 279.868408203125 75.35806274414062 282.0159606933594 107.21900939941406"/>
    <path stroke-width="0" fill="rgb(247, 255, 192)" opacity="0.6802054" stroke="rgb(109, 130, 136)" stroke-opacity="1.0" stroke-linecap="round" stroke-linejoin="round" d="M 277.9817810058594 115.78217315673828 C 265.4469909667969 114.87470245361328 231.96893310546875 84.54608154296875 268.55712890625 95.24903106689453 C 277.830078125 92.79607391357422 268.8651123046875 92.8528060913086 274.46044921875 91.648193359375 C 263.8943176269531 99.10124969482422 278.49078369140625 95.07867431640625 257.2704772949219 92.42950439453125 C 276.9135437011719 113.43277740478516 292.69171142578125 97.68172454833984 277.9817810058594 115.78217315673828"/>
    <path stroke-width="0" fill="rgb(242, 171, 87)" opacity="0.8125113" stroke="rgb(70, 32, 100)" stroke-opacity="1.0" stroke-linecap="round" stroke-linejoin="round" d="M 274.712158203125 94.93824768066406 C 271.9830017089844 108.0129165649414 264.4140319824219 109.83787536621094 294.2248229980469 85.73481750488281 C 292.9462585449219 99.69697570800781 286.892822265625 92.657958984375 248.67384338378906 84.95470428466797 C 259.8125915527344 114.81900024414062 321.3186950683594 122.5214614868164 272.7030334472656 89.85591125488281 C 385.8152770996094 93.15349578857422 307.05560302734375 136.39715576171875 274.712158203125 94.93824768066406"/>
    <path stroke-width="0" fill="rgb(0, 207, 147)" opacity="0.71602577" stroke="rgb(47, 230, 138)" stroke-opacity="1.0" stroke-linecap="round" stroke-linejoin="round" d="M 329.6361389160156 196.892822265625 C 344.563232421875 108.88784790039062 367.02227783203125 114.66947937011719 279.1864318847656 114.0655288696289 C 285.7086486816406 244.79226684570312 345.9386901855469 215.7186279296875 346.0075378417969 156.11338806152344 C 345.0560607910156 124.66419982910156 343.83056640625 112.72596740722656 351.826171875 125.53925323486328 C 326.5299987792969 129.65689086914062 349.3455810546875 143.58895874023438 329.6361389160156 196.892822265625"/>
    <path stroke-width="0" fill="rgb(6, 0, 0)" opacity="0.7879721" stroke="rgb(224, 116, 184)" stroke-opacity="1.0" stroke-linecap="round" stroke-linejoin="round" d="M 126.63707733154297 153.2945556640625 C 128.28353881835938 91.22273254394531 162.3711395263672 80.97020721435547 174.5819091796875 80.55792236328125 C 153.78407287597656 84.70225524902344 150.77670288085938 88.44425964355469 144.56558227539062 107.43013763427734 C 151.1335906982422 138.21023559570312 148.51568603515625 126.32905578613281 147.5541229248047 112.59001159667969 C 156.41378784179688 95.86015319824219 144.52853393554688 112.42575073242188 126.63707733154297 153.2945556640625"/>
    <path stroke-width="0" fill="rgb(213, 175, 86)" opacity="0.7753946" stroke="rgb(230, 175, 178)" stroke-opacity="1.0" stroke-linecap="round" stroke-linejoin="round" d="M 356.81353759765625 130.72142028808594 C 345.5188293457031 116.3501968383789 391.2682189941406 128.25634765625 377.72039794921875 120.73192596435547 C 390.0700378417969 113.08229064941406 392.8387145996094 132.95140075683594 377.9576721191406 127.04145812988281 C 385.01800537109375 120.08258819580078 422.60198974609375 137.56993103027344 363.5859680175781 135.28977966308594 C 347.754150390625 139.53941345214844 359.8329772949219 125.04265594482422 356.81353759765625 130.72142028808594"/>
    <path stroke-width="0" fill="rgb(161, 140, 89)" opacity="0.78302026" stroke="rgb(192, 162, 61)" stroke-opacity="1.0" stroke-linecap="round" stroke-linejoin="round" d="M 372.892822265625 112.05989837646484 C 372.8293151855469 131.93392944335938 363.70611572265625 134.59808349609375 364.5992126464844 131.1551971435547 C 379.68853759765625 134.13949584960938 374.1311340332031 126.95164489746094 371.51873779296875 130.90574645996094 C 366.82086181640625 140.47872924804688 387.71429443359375 127.88594818115234 368.0610046386719 134.12254333496094 C 364.1205139160156 136.1351318359375 373.4910583496094 128.5971221923828 372.892822265625 112.05989837646484"/>
    <path stroke-width="0" fill="rgb(46, 118, 67)" opacity="0.88398266" stroke="rgb(203, 244, 116)" stroke-opacity="1.0" stroke-linecap="round" stroke-linejoin="round" d="M -14.204627990722656 180.29443359375 C -5.220807075500488 162.10040283203125 -4.377093315124512 166.27081298828125 -4.735772132873535 172.84962463378906 C -19.030765533447266 143.7572479248047 -10.846087455749512 167.4990997314453 -25.748985290527344 148.1840057373047 C -10.915008544921875 131.12686157226562 -2.7696762084960938 105.36648559570312 -49.502403259277344 147.35519409179688 C -30.33656120300293 166.69644165039062 -21.076322555541992 173.50375366210938 -14.204627990722656 180.29443359375"/>
    <path stroke-width="0" fill="rgb(0, 115, 86)" opacity="0.3861435" stroke="rgb(218, 116, 242)" stroke-opacity="1.0" stroke-linecap="round" stroke-linejoin="round" d="M 14.381879806518555 142.03062438964844 C 53.36587905883789 123.28981018066406 -24.99353790283203 143.30686950683594 -77.783447265625 181.74732971191406 C -1.4958552122116089 154.4781494140625 -8.798752784729004 149.2505645751953 -29.0648250579834 149.6452178955078 C -15.85763931274414 131.6955108642578 -11.688822746276855 125.98810577392578 -41.14418029785156 162.97909545898438 C -30.799026489257812 167.03176879882812 12.31722640991211 193.5321807861328 14.381879806518555 142.03062438964844"/>
    <path stroke-width="0" fill="rgb(0, 188, 137)" opacity="0.85690457" stroke="rgb(209, 231, 207)" stroke-opacity="1.0" stroke-linecap="round" stroke-linejoin="round" d="M 303.895751953125 182.96112060546875 C 316.1684875488281 180.5463409423828 306.250732421875 210.5456085205078 391.1489562988281 207.7539825439453 C 359.80548095703125 155.97280883789062 324.3733215332031 157.4591522216797 274.11334228515625 208.39854431152344 C 311.36126708984375 200.90985107421875 298.9070739746094 198.35769653320312 319.54461669921875 184.4652557373047 C 299.2591857910156 185.56971740722656 317.8712158203125 203.29345703125 303.895751953125 182.96112060546875"/>
    <path stroke-width="0" fill="rgb(195, 2, 3)" opacity="0.8623195" stroke="rgb(160, 101, 15)" stroke-opacity="1.0" stroke-linecap="round" stroke-linejoin="round" d="M 344.75701904296875 227.77423095703125 C 354.05889892578125 209.88890075683594 347.0505676269531 215.41436767578125 330.20806884765625 210.09207153320312 C 378.54736328125 220.6751708984375 377.0328063964844 224.7422637939453 375.9802551269531 228.3619384765625 C 372.21978759765625 229.83413696289062 387.4858093261719 224.70692443847656 355.6051330566406 216.26914978027344 C 341.8385925292969 209.6497344970703 352.439208984375 230.34274291992188 344.75701904296875 227.77423095703125"/>
    <path stroke-width="0" fill="rgb(12, 148, 124)" opacity="0.7934539" stroke="rgb(65, 216, 8)" stroke-opacity="1.0" stroke-linecap="round" stroke-linejoin="round" d="M 295.0662536621094 206.06146240234375 C 273.7147216796875 204.581787109375 265.7778015136719 204.98275756835938 260.0234069824219 201.97909545898438 C 319.61651611328125 212.2818145751953 293.5879821777344 201.1377716064453 285.1853942871094 188.6509246826172 C 290.6573791503906 203.2131805419922 285.57763671875 200.05227661132812 285.4029541015625 203.49940490722656 C 306.5287780761719 185.2634735107422 322.1056213378906 187.86181640625 295.0662536621094 206.06146240234375"/>
    <path stroke-width="0" fill="rgb(0, 125, 119)" opacity="0.84518826" stroke="rgb(90, 90, 4)" stroke-opacity="1.0" stroke-linecap="round" stroke-linejoin="round" d="M 480.3341369628906 181.2621307373047 C 432.32415771484375 214.60140991210938 452.3101806640625 204.72389221191406 463.7300720214844 191.64051818847656 C 441.634765625 207.80691528320312 442.83258056640625 200.9361114501953 447.4281005859375 151.8991241455078 C 478.17041015625 196.7734832763672 520.9069213867188 184.41392517089844 520.8898315429688 219.5753936767578 C 412.5142822265625 218.58099365234375 439.37164306640625 206.02777099609375 480.3341369628906 181.2621307373047"/>
    <path stroke-width="0" fill="rgb(188, 0, 0)" opacity="0.84023273" stroke="rgb(102, 236, 25)" stroke-opacity="1.0" stroke-linecap="round" stroke-linejoin="round" d="M 423.9269714355469 234.67962646484375 C 451.9078063964844 218.1906280517578 418.4317932128906 237.1417999267578 439.50933837890625 234.21620178222656 C 433.158447265625 211.60752868652344 438.6261901855469 243.9578094482422 440.2115783691406 231.22349548339844 C 458.7067565917969 245.37545776367188 474.8466796875 239.48004150390625 436.7454528808594 227.7241668701172 C 424.2360534667969 233.89132690429688 426.8141174316406 233.23695373535156 423.9269714355469 234.67962646484375"/>
    <path stroke-width="0" fill="rgb(124, 30, 17)" opacity="0.7608782" stroke="rgb(221, 115, 83)" stroke-opacity="1.0" stroke-linecap="round" stroke-linejoin="round" d="M 283.722900390625 207.15005493164062 C 266.2151794433594 228.77255249023438 243.23512268066406 214.79270935058594 279.96905517578125 205.91412353515625 C 302.5282897949219 218.09695434570312 277.1781005859375 204.85357666015625 282.7148132324219 206.57591247558594 C 289.2288818359375 227.04864501953125 282.3168640136719 208.7650604248047 294.0681457519531 216.55926513671875 C 280.2624816894531 208.66700744628906 259.0647888183594 202.0631561279297 283.722900390625 207.15005493164062"/>
    <path stroke-width="0" fill="rgb(0, 148, 109)" opacity="0.9098358" stroke="rgb(156, 8, 3)" stroke-opacity="1.0" stroke-linecap="round" stroke-linejoin="round" d="M 236.4990234375 244.04861450195312 C 235.58531188964844 210.44175720214844 225.03277587890625 203.4820556640625 255.40650939941406 214.225830078125 C 246.76528930664062 210.24830627441406 237.46963500976562 204.4116973876953 232.51467895507812 219.87026977539062 C 238.61338806152344 258.669921875 242.0453338623047 252.25686645507812 236.70742797851562 242.05166625976562 C 229.70777893066406 175.40696716308594 230.9552459716797 184.48916625976562 236.4990234375 244.04861450195312"/>
    <path stroke-width="0" fill="rgb(15, 95, 119)" opacity="0.8136057" stroke="rgb(17, 64, 56)" stroke-opacity="1.0" stroke-linecap="round" stroke-linejoin="round" d="M 505.9244384765625 191.42372131347656 C 528.135498046875 241.10902404785156 489.59600830078125 233.24578857421875 502.6845397949219 196.5587158203125 C 531.243896484375 205.15562438964844 522.0946044921875 205.20469665527344 511.4040222167969 214.31829833984375 C 492.395263671875 241.476806640625 502.1634521484375 224.2400665283203 535.522216796875 232.326416015625 C 521.2036743164062 234.23812866210938 480.7930603027344 211.1435089111328 505.9244384765625 191.42372131347656"/>
    <path stroke-width="0" fill="rgb(188, 103, 48)" opacity="0.7869822" stroke="rgb(33, 3, 29)" stroke-opacity="1.0" stroke-linecap="round" stroke-linejoin="round" d="M -12.62734317779541 291.3504333496094 C -4.420615196228027 319.9958190917969 -21.74894142150879 312.7575988769531 -29.706558227539062 292.7660827636719 C 70.92841339111328 287.2037048339844 18.148170471191406 344.7552185058594 -33.119625091552734 339.83416748046875 C -9.808289527893066 359.7878723144531 11.951510429382324 333.5517883300781 -29.75970458984375 345.6997985839844 C -31.523014068603516 342.8145751953125 -32.149898529052734 339.06610107421875 -12.62734317779541 291.3504333496094"/>
    <path stroke-width="0" fill="rgb(0, 23, 34)" opacity="0.3574227" stroke="rgb(248, 252, 104)" stroke-opacity="1.0" stroke-linecap="round" stroke-linejoin="round" d="M 28.037059783935547 422.51776123046875 C 47.974082946777344 306.79693603515625 61.29801940917969 274.05419921875 64.34545135498047 403.15020751953125 C 35.30788803100586 383.35784912109375 41.06676483154297 366.9549255371094 44.65229415893555 430.84344482421875 C 50.02592086791992 389.1665954589844 33.77055740356445 385.2615051269531 44.75746536254883 319.55084228515625 C 37.53008270263672 343.1922912597656 41.020748138427734 356.72698974609375 28.037059783935547 422.51776123046875"/>
    <path stroke-width="0" fill="rgb(0, 102, 112)" opacity="0.4057347" stroke="rgb(162, 125, 252)" stroke-opacity="1.0" stroke-linecap="round" stroke-linejoin="round" d="M 8.22572135925293 374.011962890625 C 61.648101806640625 431.3853759765625 36.82664108276367 415.73883056640625 33.108787536621094 323.9728088378906 C -0.6434155106544495 371.50958251953125 17.92801856994629 373.7362060546875 11.007232666015625 356.9730529785156 C 17.391523361206055 389.3175048828125 19.12901496887207 393.4557189941406 17.759138107299805 379.88739013671875 C 30.024904251098633 376.1941833496094 29.297683715820312 380.470703125 8.22572135925293 374.011962890625"/>
    <path stroke-width="0" fill="rgb(0, 0, 0)" opacity="0.92935526" stroke="rgb(199, 73, 61)" stroke-opacity="1.0" stroke-linecap="round" stroke-linejoin="round" d="M 53.946170806884766 417.0046081542969 C 5.574843406677246 373.96923828125 4.171936511993408 366.9932861328125 1.2631316184997559 343.9669494628906 C -11.113463401794434 442.7288513183594 32.716609954833984 402.13720703125 3.595229387283325 356.6815490722656 C 3.9381892681121826 328.52703857421875 13.322894096374512 391.71527099609375 3.4449713230133057 423.4722900390625 C 3.1901931762695312 411.3288269042969 20.682090759277344 433.3760681152344 53.946170806884766 417.0046081542969"/>
    <path stroke-width="0" fill="rgb(85, 0, 21)" opacity="0.6040415" stroke="rgb(62, 169, 131)" stroke-opacity="1.0" stroke-linecap="round" stroke-linejoin="round" d="M 65.2614517211914 404.9233093261719 C 54.12515640258789 362.3904113769531 42.03782272338867 392.8475036621094 73.81767272949219 401.52423095703125 C 64.95065307617188 401.55865478515625 51.95603942871094 389.63665771484375 58.472129821777344 387.41278076171875 C 31.412817001342773 371.6617431640625 63.34852600097656 336.2390441894531 56.71979522705078 394.9195251464844 C 77.1727294921875 419.2113037109375 134.09536743164062 427.583984375 65.2614517211914 404.9233093261719"/>
    <path stroke-width="0" fill="rgb(196, 129, 0)" opacity="0.42443293" stroke="rgb(141, 73, 180)" stroke-opacity="1.0" stroke-linecap="round" stroke-linejoin="round" d="M 108.87930297851562 424.61126708984375 C 88.48670959472656 432.7745056152344 85.79236602783203 431.4826354980469 70.84539031982422 427.3946228027344 C 115.3466567993164 436.92779541015625 104.07150268554688 400.6553039550781 116.59967041015625 463.3325500488281 C 57.747657775878906 423.9630126953125 132.99978637695312 424.2174072265625 81.58973693847656 440.6925964355469 C 91.04328918457031 434.7833251953125 111.2635726928711 432.3138122558594 108.87930297851562 424.61126708984375"/>
    <path stroke-width="0" fill="rgb(0, 131, 64)" opacity="0.6709002" stroke="rgb(91, 211, 235)" stroke-opacity="1.0" stroke-linecap="round" stroke-linejoin="round" d="M 85.14524841308594 419.1206970214844 C 104.40035247802734 421.1800537109375 92.60065460205078 428.5742492675781 92.19064331054688 420.3674011230469 C 98.0865478515625 435.5799255371094 106.19542694091797 426.4579772949219 67.1787109375 408.0784912109375 C 113.83789825439453 421.0732116699219 122.48023986816406 429.1067810058594 102.17975616455078 432.5087890625 C 92.06916046142578 419.9925231933594 95.97480773925781 432.97845458984375 85.14524841308594 419.1206970214844"/>
    <path stroke-width="0" fill="rgb(24, 72, 46)" opacity="0.48961186" stroke="rgb(59, 88, 207)" stroke-opacity="1.0" stroke-linecap="round" stroke-linejoin="round" d="M 122.01023864746094 400.1993713378906 C 124.01892852783203 400.9786071777344 112.09245300292969 397.8938903808594 121.58258819580078 400.0940856933594 C 117.60958862304688 439.950439453125 101.84223937988281 420.4849548339844 78.38815307617188 437.6316833496094 C 103.39470672607422 421.4831848144531 122.47476196289062 431.34722900390625 107.71271514892578 432.28753662109375 C 125.08147430419922 413.1474609375 117.58245086669922 404.3049011230469 122.01023864746094 400.1993713378906"/>
    <path stroke-width="0" fill="rgb(201, 169, 72)" opacity="0.82262367" stroke="rgb(247, 230, 75)" stroke-opacity="1.0" stroke-linecap="round" stroke-linejoin="round" d="M 67.3009262084961 443.12567138671875 C 83.0150146484375 420.07318115234375 21.04459571838379 439.4424133300781 102.79586029052734 440.2275695800781 C 60.32738494873047 442.26446533203125 68.13328552246094 426.5898132324219 68.75420379638672 457.021240234375 C 76.89551544189453 459.68505859375 87.07758331298828 457.59869384765625 94.29268646240234 459.2026672363281 C 52.56175231933594 458.05914306640625 70.70964813232422 456.0644226074219 67.3009262084961 443.12567138671875"/>
    <path stroke-width="0" fill="rgb(181, 200, 132)" opacity="0.8372175" stroke="rgb(63, 27, 242)" stroke-opacity="1.0" stroke-linecap="round" stroke-linejoin="round" d="M 210.1436004638672 440.43670654296875 C 192.30044555664062 457.314208984375 203.71469116210938 446.1029052734375 197.71690368652344 441.8591003417969 C 203.21360778808594 458.9596252441406 210.42222595214844 436.60906982421875 201.36160278320312 438.8491516113281 C 216.6951904296875 448.8326110839844 223.77572631835938 452.0809631347656 224.9927978515625 444.1908874511719 C 196.46051025390625 442.3011169433594 209.8869171142578 454.7236633300781 210.1436004638672 440.43670654296875"/>
    <path stroke-width="0" fill="rgb(79, 4, 0)" opacity="0.61144245" stroke="rgb(175, 14, 186)" stroke-opacity="1.0" stroke-linecap="round" stroke-linejoin="round" d="M 483.02191162109375 430.00946044921875 C 451.8731384277344 440.5232238769531 439.4156799316406 430.29620361328125 457.4722900390625 438.23223876953125 C 468.0549621582031 440.19158935546875 484.5777282714844 446.55047607421875 494.33892822265625 436.71710205078125 C 491.309326171875 442.9798889160156 510.2434387207031 448.0200500488281 449.4632263183594 431.4880676269531 C 495.73931884765625 446.3664855957031 503.13494873046875 442.6302795410156 483.02191162109375 430.00946044921875"/>
    <path stroke-width="0" fill="rgb(0, 0, 0)" opacity="0.94129646" stroke="rgb(69, 96, 95)" stroke-opacity="1.0" stroke-linecap="round" stroke-linejoin="round" d="M 192.08641052246094 447.1437683105469 C 183.0126190185547 424.3411865234375 176.88504028320312 433.33697509765625 169.14651489257812 435.3321533203125 C 178.12855529785156 408.4629821777344 175.15267944335938 425.20361328125 222.4032745361328 430.64654541015625 C 217.7218780517578 400.46221923828125 214.82237243652344 427.08258056640625 236.15786743164062 420.6593933105469 C 232.806396484375 396.1762390136719 210.6990509033203 491.4527893066406 192.08641052246094 447.1437683105469"/>
    <path stroke-width="0" fill="rgb(207, 100, 21)" opacity="0.8165603" stroke="rgb(60, 43, 114)" stroke-opacity="1.0" stroke-linecap="round" stroke-linejoin="round" d="M 488.3860778808594 439.0084228515625 C 485.6213684082031 444.6900634765625 476.1813049316406 426.90338134765625 400.2057189941406 447.5672912597656 C 496.88861083984375 467.26446533203125 478.7943420410156 438.3193359375 488.14013671875 452.7428894042969 C 470.4534912109375 442.283935546875 518.91259765625 429.4673767089844 475.6274719238281 452.84149169921875 C 487.3600769042969 459.77532958984375 474.2713928222656 455.0691223144531 488.3860778808594 439.0084228515625"/>
    <path stroke-width="0" fill="rgb(31, 43, 12)" opacity="0.63841164" stroke="rgb(213, 60, 128)" stroke-opacity="1.0" stroke-linecap="round" stroke-linejoin="round" d="M 55.90512466430664 444.7370300292969 C 58.92235565185547 430.386474609375 63.65428924560547 462.783447265625 54.60636901855469 449.0396728515625 C 69.09770202636719 463.2425537109375 63.93472671508789 438.8018493652344 62.42589569091797 427.98577880859375 C 66.96853637695312 430.5946044921875 56.500484466552734 437.74884033203125 70.19340515136719 424.4395751953125 C 58.54528045654297 433.93316650390625 44.900394439697266 474.2557373046875 55.90512466430664 444.7370300292969"/>
    <path stroke-width="0" fill="rgb(225, 134, 39)" opacity="0.6627222" stroke="rgb(239, 191, 178)" stroke-opacity="1.0" stroke-linecap="round" stroke-linejoin="round" d="M 311.04864501953125 449.00616455078125 C 188.03164672851562 457.7007141113281 195.69677734375 431.1018371582031 401.6004943847656 447.7235412597656 C 317.4549255371094 451.4479675292969 392.5716552734375 463.69683837890625 333.40557861328125 452.47222900390625 C 343.8166198730469 457.6717529296875 346.1348876953125 458.0074462890625 338.62847900390625 454.5724792480469 C 293.6361389160156 450.9979248046875 304.21954345703125 459.7461853027344 311.04864501953125 449.00616455078125"/>
    <path stroke-width="0" fill="rgb(0, 126, 109)" opacity="0.6973843" stroke="rgb(18, 74, 38)" stroke-opacity="1.0" stroke-linecap="round" stroke-linejoin="round" d="M 558.6224975585938 59.31177520751953 C 507.11114501953125 214.4398651123047 498.8274230957031 227.00355529785156 546.1083984375 218.53407287597656 C 532.5650634765625 256.6180419921875 556.0125732421875 248.34925842285156 483.75811767578125 230.61798095703125 C 406.3458557128906 205.94039916992188 398.5705871582031 231.8600311279297 410.56329345703125 157.1834259033203 C 568.9788208007812 97.52198028564453 527.6028442382812 31.477563858032227 558.6224975585938 59.31177520751953"/>
    <path stroke-width="0" fill="rgb(180, 0, 0)" opacity="0.7997758" stroke="rgb(97, 228, 246)" stroke-opacity="1.0" stroke-linecap="round" stroke-linejoin="round" d="M 57.76118469238281 326.3304748535156 C 121.45942687988281 292.56573486328125 90.49898529052734 462.49066162109375 48.62543869018555 380.47442626953125 C 43.5 308.2611999511719 68.9398422241211 289.1761474609375 88.37128448486328 336.9659118652344 C 90.42108917236328 340.7807312011719 95.91944885253906 331.35797119140625 87.02519989013672 318.7387390136719 C 43.508056640625 325.3623046875 60.013755798339844 331.7068786621094 57.76118469238281 326.3304748535156"/>
    <path stroke-width="0" fill="rgb(181, 0, 0)" opacity="0.9024024" stroke="rgb(228, 103, 140)" stroke-opacity="1.0" stroke-linecap="round" stroke-linejoin="round" d="M 133.2822723388672 335.58172607421875 C 118.89452362060547 312.2036437988281 125.83969116210938 318.7604064941406 139.03993225097656 319.2986145019531 C 126.7767105102539 318.1927795410156 146.7819061279297 319.55950927734375 155.57557678222656 323.58758544921875 C 153.05337524414062 324.52313232421875 160.4515838623047 321.77294921875 126.96607208251953 317.9311828613281 C 122.47055053710938 319.15301513671875 125.81202697753906 328.2195129394531 133.2822723388672 335.58172607421875"/>
    <path stroke-width="0" fill="rgb(0, 198, 147)" opacity="0.98144805" stroke="rgb(63, 128, 79)" stroke-opacity="1.0" stroke-linecap="round" stroke-linejoin="round" d="M 275.9705810546875 217.58021545410156 C 245.16847229003906 221.6806640625 251.17408752441406 246.89468383789062 236.78785705566406 261.0042419433594 C 215.18869018554688 251.9257049560547 214.05337524414062 167.9628143310547 220.65890502929688 153.55386352539062 C 216.5622100830078 208.0175323486328 197.70860290527344 134.8039093017578 242.97323608398438 173.06675720214844 C 434.824951171875 219.8809356689453 332.59954833984375 187.69435119628906 275.9705810546875 217.58021545410156"/>
    <path stroke-width="0" fill="rgb(174, 0, 0)" opacity="0.82823294" stroke="rgb(85, 235, 219)" stroke-opacity="1.0" stroke-linecap="round" stroke-linejoin="round" d="M 546.120361328125 307.6716003417969 C 472.42706298828125 450.6150817871094 440.5650329589844 429.34649658203125 239.49667358398438 430.5754699707031 C 224.22189331054688 435.0155334472656 233.07733154296875 445.9658203125 227.70668029785156 383.3337707519531 C 268.79705810546875 425.9470520019531 293.9900817871094 361.2332763671875 274.60992431640625 398.351806640625 C 478.7890319824219 395.3899230957031 244.37245178222656 325.9194641113281 546.120361328125 307.6716003417969"/>
    <path stroke-width="0" fill="rgb(0, 0, 0)" opacity="0.74438596" stroke="rgb(26, 88, 188)" stroke-opacity="1.0" stroke-linecap="round" stroke-linejoin="round" d="M 191.44326782226562 169.56834411621094 C 82.210205078125 221.42864990234375 139.73875427246094 212.02488708496094 161.47900390625 270.09844970703125 C 85.34339141845703 199.86912536621094 130.9864959716797 219.12326049804688 162.9393310546875 264.0042419433594 C 144.7449951171875 260.445068359375 185.04002380371094 250.52630615234375 199.86199951171875 172.4117889404297 C 135.00437927246094 197.46331787109375 153.87908935546875 183.92086791992188 191.44326782226562 169.56834411621094"/>
    <path stroke-width="0" fill="rgb(191, 0, 0)" opacity="0.58607024" stroke="rgb(52, 87, 172)" stroke-opacity="1.0" stroke-linecap="round" stroke-linejoin="round" d="M 391.3153076171875 388.3409423828125 C 364.5212097167969 408.824462890625 335.67950439453125 308.71539306640625 232.6527862548828 322.90576171875 C 215.6839141845703 370.5705871582031 190.20628356933594 447.7785339355469 403.6944885253906 414.90167236328125 C 303.2421569824219 319.69903564453125 257.5960693359375 321.861328125 339.8143005371094 320.9206237792969 C 585.2567138671875 275.033203125 544.5921630859375 319.5520324707031 391.3153076171875 388.3409423828125"/>
    <path stroke-width="0" fill="rgb(0, 0, 0)" opacity="0.914073" stroke="rgb(7, 181, 2)" stroke-opacity="1.0" stroke-linecap="round" stroke-linejoin="round" d="M 266.7466735839844 128.15859985351562 C 266.6003112792969 102.93093872070312 256.6438903808594 120.82662200927734 247.11610412597656 137.40328979492188 C 262.2386474609375 151.55162048339844 239.47483825683594 161.4821014404297 232.98992919921875 116.81668090820312 C 231.4418487548828 99.88703155517578 234.3217315673828 96.65882110595703 243.27581787109375 111.94746398925781 C 256.1512451171875 164.3184051513672 258.5875244140625 176.1259307861328 266.7466735839844 128.15859985351562"/>
    <path stroke-width="0" fill="rgb(16, 5, 8)" opacity="0.88530904" stroke="rgb(22, 103, 6)" stroke-opacity="1.0" stroke-linecap="round" stroke-linejoin="round" d="M 271.72369384765625 504.9017333984375 C 229.0862579345703 470.0804443359375 270.2919921875 504.7603759765625 422.5112609863281 470.3011474609375 C 208.270751953125 453.61761474609375 -27.99330711364746 484.5960388183594 256.7820739746094 531.046875 C 279.1374816894531 483.31817626953125 295.46142578125 482.51123046875 239.52577209472656 489.0498962402344 C 249.1829376220703 487.01190185546875 261.0286560058594 488.0010986328125 271.72369384765625 504.9017333984375"/>
  </g>
</svg>
