<?xml version="1.0" ?>
<svg xmlns="http://www.w3.org/2000/svg" version="1.1" width="512" height="512">
  <defs/>
  <g>
    <path d="M 256.9847106933594 289.5672912597656 C 243.09799194335938 291.18798828125 312.2031555175781 288.5952453613281 256.8215026855469 378.46405029296875 C 271.8063049316406 243.27223205566406 241.50033569335938 320.26971435546875 123.24798583984375 300.77410888671875 C 256.8384704589844 297.5120544433594 195.5149688720703 321.1088562011719 332.6394958496094 192.20555114746094 C 376.1932678222656 178.37423706054688 348.57427978515625 197.12196350097656 256.9847106933594 289.5672912597656" stroke-width="0.0" fill="rgb(1, 3, 2)" opacity="0.99440277" stroke="rgb(170, 139, 84)" stroke-opacity="0.050821435" stroke-linecap="round" stroke-linejoin="round"/>
    <path d="M 516.43212890625 498.7295227050781 C 376.9022521972656 650.4232177734375 295.3418273925781 530.3466796875 253.082763671875 523.4234008789062 C 195.9990234375 532.6673583984375 108.17437744140625 667.6182861328125 -12.338410377502441 498.7746887207031 C 236.2625732421875 498.812255859375 281.79278564453125 498.43402099609375 206.7488250732422 499.2326354980469 C 253.1879425048828 498.09368896484375 287.9825439453125 498.9219970703125 516.43212890625 498.7295227050781" stroke-width="0.0" fill="rgb(0, 0, 0)" opacity="0.984365" stroke="rgb(80, 252, 26)" stroke-opacity="0.56032526" stroke-linecap="round" stroke-linejoin="round"/>
    <path d="M 352.7715759277344 177.14646911621094 C 359.7535400390625 196.2224884033203 358.5559997558594 191.52658081054688 202.23875427246094 193.17349243164062 C 168.57376098632812 174.66171264648438 318.0581359863281 407.9751892089844 119.83309936523438 348.59759521484375 C 180.54147338867188 96.9060287475586 182.50650024414062 118.7327880859375 387.37799072265625 169.7124481201172 C 107.25820922851562 168.96363830566406 142.56129455566406 182.0119171142578 352.7715759277344 177.14646911621094" stroke-width="0.0" fill="rgb(2, 2, 3)" opacity="1.0" stroke="rgb(43, 117, 139)" stroke-opacity="0.5780002" stroke-linecap="round" stroke-linejoin="round"/>
    <path d="M 451.23211669921875 158.76087951660156 C 443.6767883300781 196.3798370361328 450.79046630859375 191.81277465820312 493.7588806152344 199.56985473632812 C 533.2869262695312 379.620361328125 403.9266662597656 492.4132080078125 306.57696533203125 380.116943359375 C 311.1584167480469 66.36197662353516 432.1624450683594 94.45646667480469 399.4397888183594 168.1036376953125 C 281.3149719238281 171.4149627685547 421.63287353515625 192.03297424316406 451.23211669921875 158.76087951660156" stroke-width="0.0" fill="rgb(25, 32, 38)" opacity="0.07941546" stroke="rgb(111, 80, 100)" stroke-opacity="0.95613897" stroke-linecap="round" stroke-linejoin="round"/>
    <path d="M 331.1553649902344 408.0982360839844 C 373.5373840332031 383.250732421875 116.06173706054688 399.5033264160156 202.4097900390625 392.4519348144531 C 161.0432586669922 436.368408203125 111.99530029296875 420.15789794921875 140.095458984375 423.324462890625 C 42.61414337158203 433.9681091308594 -21.14984893798828 296.9169006347656 80.07779693603516 232.97821044921875 C 150.58822631835938 238.41661071777344 173.23654174804688 250.193603515625 331.1553649902344 408.0982360839844" stroke-width="0.0" fill="rgb(208, 209, 210)" opacity="1.0" stroke="rgb(82, 174, 6)" stroke-opacity="0.41710854" stroke-linecap="round" stroke-linejoin="round"/>
    <path d="M 351.791015625 17.114341735839844 C 340.49334716796875 33.3789176940918 329.1170349121094 39.72978591918945 292.428955078125 77.18418884277344 C 389.2643127441406 132.91259765625 354.8572082519531 204.82821655273438 40.32337188720703 169.06869506835938 C 23.584341049194336 -161.79917907714844 112.31639099121094 -75.74439239501953 337.1654968261719 -49.23283767700195 C 418.75469970703125 41.873741149902344 377.1745910644531 -10.232346534729004 351.791015625 17.114341735839844" stroke-width="0.0" fill="rgb(245, 245, 245)" opacity="0.99238014" stroke="rgb(214, 67, 91)" stroke-opacity="0.5799526" stroke-linecap="round" stroke-linejoin="round"/>
    <path d="M 502.6194763183594 424.5723571777344 C 364.0502624511719 219.78570556640625 414.779296875 35.472450256347656 446.52484130859375 50.845306396484375 C 348.9390563964844 144.7377166748047 344.00335693359375 144.71240234375 472.9226989746094 25.58662986755371 C 402.3157043457031 46.627166748046875 354.520751953125 192.07037353515625 349.2974548339844 8.955421447753906 C 530.32666015625 -50.303138732910156 558.2801513671875 -61.74583053588867 502.6194763183594 424.5723571777344" stroke-width="0.0" fill="rgb(241, 242, 242)" opacity="0.9733309" stroke="rgb(246, 196, 84)" stroke-opacity="0.39978218" stroke-linecap="round" stroke-linejoin="round"/>
    <path d="M 382.323486328125 57.779544830322266 C 361.47760009765625 83.13088989257812 351.37542724609375 81.03895568847656 329.8018798828125 108.12255859375 C 466.78216552734375 163.15438842773438 247.60592651367188 155.1543731689453 332.9918212890625 106.01132202148438 C 357.7056579589844 87.45530700683594 355.65948486328125 76.06940460205078 370.25238037109375 65.90176391601562 C 411.7609558105469 24.68230628967285 436.2655944824219 10.78720760345459 382.323486328125 57.779544830322266" stroke-width="0.0" fill="rgb(210, 210, 213)" opacity="0.5659335" stroke="rgb(152, 16, 52)" stroke-opacity="0.9329711" stroke-linecap="round" stroke-linejoin="round"/>
    <path d="M 200.3843994140625 336.564453125 C 132.64382934570312 487.6090087890625 -9.171420097351074 282.57147216796875 130.9307403564453 391.743408203125 C 245.60980224609375 307.6306457519531 110.59065246582031 367.3689270019531 109.36583709716797 323.27978515625 C 201.0091094970703 115.8279800415039 196.85595703125 155.42236328125 139.8961181640625 310.1380615234375 C 194.96409606933594 364.7464904785156 113.3260498046875 311.8853454589844 200.3843994140625 336.564453125" stroke-width="0.0" fill="rgb(0, 0, 0)" opacity="0.99460727" stroke="rgb(137, 54, 45)" stroke-opacity="0.41533804" stroke-linecap="round" stroke-linejoin="round"/>
    <path d="M 386.34722900390625 303.6077575683594 C 415.6636962890625 300.7685546875 413.6421813964844 355.0921325683594 371.7727966308594 337.2781677246094 C 365.7028503417969 295.9676208496094 379.669921875 340.2806091308594 361.4866027832031 274.9592590332031 C 219.71139526367188 246.86436462402344 543.4537353515625 191.97708129882812 428.6916198730469 401.3244323730469 C 421.0336608886719 290.4732360839844 356.2084045410156 225.83541870117188 386.34722900390625 303.6077575683594" stroke-width="0.0" fill="rgb(1, 2, 2)" opacity="0.999979" stroke="rgb(191, 204, 1)" stroke-opacity="0.34894884" stroke-linecap="round" stroke-linejoin="round"/>
    <path d="M 13.860505104064941 513.6473388671875 C -0.7629922032356262 525.6937866210938 -29.337675094604492 470.47283935546875 -80.6737060546875 381.927734375 C -31.491758346557617 279.568603515625 -12.905618667602539 260.0481872558594 -9.995203971862793 213.46231079101562 C -23.01592254638672 185.41966247558594 -161.64720153808594 85.98015594482422 14.084107398986816 -1.3208163976669312 C 14.013556480407715 193.82179260253906 14.266263961791992 211.52651977539062 13.860505104064941 513.6473388671875" stroke-width="0.0" fill="rgb(0, 0, 0)" opacity="0.99648106" stroke="rgb(47, 64, 149)" stroke-opacity="0.6830455" stroke-linecap="round" stroke-linejoin="round"/>
    <path d="M 523.357177734375 158.0501251220703 C 530.404052734375 213.48162841796875 601.9305419921875 274.572998046875 498.38427734375 331.50054931640625 C 498.3889465332031 168.37693786621094 498.0658874511719 170.4840850830078 498.9142761230469 196.40081787109375 C 497.5741271972656 162.07614135742188 498.8091125488281 155.77487182617188 498.0747375488281 -13.974359512329102 C 614.9943237304688 51.907081604003906 530.5985107421875 118.30343627929688 523.357177734375 158.0501251220703" stroke-width="0.0" fill="rgb(0, 0, 2)" opacity="0.99704605" stroke="rgb(193, 194, 12)" stroke-opacity="0.21132392" stroke-linecap="round" stroke-linejoin="round"/>
    <path d="M 508.2501525878906 9.59953498840332 C 231.19293212890625 9.4877290725708 216.36094665527344 9.566702842712402 175.95123291015625 9.530648231506348 C 194.7204132080078 9.455185890197754 181.40780639648438 9.571667671203613 -12.131648063659668 9.5639009475708 C 78.74935913085938 -154.2582244873047 158.52261352539062 -31.09916114807129 215.83668518066406 -14.034294128417969 C 257.5479736328125 -34.96685028076172 353.9222717285156 -210.81109619140625 508.2501525878906 9.59953498840332" stroke-width="0.0" fill="rgb(0, 0, 1)" opacity="1.0" stroke="rgb(97, 74, 146)" stroke-opacity="0.5802139" stroke-linecap="round" stroke-linejoin="round"/>
    <path d="M 483.8363342285156 336.07757568359375 C 479.24566650390625 385.24591064453125 429.1623229980469 426.7347412109375 387.0116882324219 423.7603759765625 C 319.4144592285156 427.3796081542969 273.25653076171875 334.0758056640625 318.00390625 382.8039855957031 C 427.96173095703125 416.545166015625 426.48126220703125 393.31842041015625 395.88623046875 402.4775695800781 C 415.2967529296875 405.28533935546875 417.5052490234375 414.5811462402344 483.8363342285156 336.07757568359375" stroke-width="0.0" fill="rgb(1, 1, 2)" opacity="1.0" stroke="rgb(128, 98, 221)" stroke-opacity="0.42758134" stroke-linecap="round" stroke-linejoin="round"/>
    <path d="M 404.4256591796875 134.63592529296875 C 401.4595031738281 176.1034698486328 424.67779541015625 176.49917602539062 300.2303771972656 156.68223571777344 C 412.044677734375 149.43272399902344 382.91357421875 165.248291015625 388.1561584472656 133.26637268066406 C 387.5766906738281 135.65859985351562 394.85577392578125 134.6649932861328 306.30810546875 135.06813049316406 C 383.920166015625 118.5722885131836 405.7718811035156 105.6748275756836 404.4256591796875 134.63592529296875" stroke-width="0.0" fill="rgb(0, 0, 0)" opacity="0.9955461" stroke="rgb(61, 210, 154)" stroke-opacity="0.6955237" stroke-linecap="round" stroke-linejoin="round"/>
    <path d="M 174.8110809326172 122.30157470703125 C 193.17431640625 191.5690155029297 205.79922485351562 206.76126098632812 169.56980895996094 194.208740234375 C 176.5343475341797 181.1192169189453 167.00856018066406 158.9391326904297 157.36495971679688 121.67314910888672 C 134.5167236328125 130.74102783203125 94.47314453125 106.84662628173828 193.9266815185547 109.3345947265625 C 209.90057373046875 129.3990478515625 161.90374755859375 120.2553482055664 174.8110809326172 122.30157470703125" stroke-width="0.0" fill="rgb(0, 0, 0)" opacity="0.9954205" stroke="rgb(252, 58, 0)" stroke-opacity="0.18257004" stroke-linecap="round" stroke-linejoin="round"/>
    <path d="M 481.69366455078125 295.426513671875 C 497.1122741699219 361.33477783203125 447.7003479003906 405.6422424316406 471.0885925292969 342.1058044433594 C 482.0848083496094 284.2822570800781 436.4582824707031 249.47328186035156 476.046630859375 294.0232238769531 C 443.7480773925781 259.51068115234375 448.73834228515625 233.6058807373047 346.4955749511719 225.0849609375 C 440.4514465332031 201.10205078125 479.11175537109375 272.6374816894531 481.69366455078125 295.426513671875" stroke-width="0.0" fill="rgb(0, 0, 1)" opacity="0.99473923" stroke="rgb(95, 106, 246)" stroke-opacity="0.117677495" stroke-linecap="round" stroke-linejoin="round"/>
    <path d="M 467.9561462402344 329.3834533691406 C 314.19415283203125 464.7662658691406 339.8729553222656 245.77938842773438 329.0262756347656 389.2213439941406 C 276.8606872558594 358.9501953125 301.253662109375 380.5412902832031 292.08001708984375 344.3471984863281 C 271.7859802246094 270.5327453613281 348.6499938964844 208.63380432128906 410.5361022949219 215.47276306152344 C 276.93524169921875 322.8661804199219 321.27764892578125 537.9262084960938 467.9561462402344 329.3834533691406" stroke-width="0.0" fill="rgb(0, 1, 1)" opacity="0.9971361" stroke="rgb(97, 226, 87)" stroke-opacity="0.58145016" stroke-linecap="round" stroke-linejoin="round"/>
    <path d="M 521.3400268554688 461.88671875 C 526.6401977539062 475.2190856933594 543.4560546875 498.6643371582031 496.28765869140625 513.425048828125 C 499.0142517089844 496.0996398925781 498.35833740234375 484.80169677734375 498.2962951660156 368.9746398925781 C 498.5478210449219 364.2061767578125 498.1091613769531 339.1653137207031 498.49359130859375 302.93316650390625 C 594.1724853515625 365.71868896484375 524.1542358398438 427.93206787109375 521.3400268554688 461.88671875" stroke-width="0.0" fill="rgb(0, 0, 1)" opacity="0.998858" stroke="rgb(63, 219, 41)" stroke-opacity="0.031810686" stroke-linecap="round" stroke-linejoin="round"/>
    <path d="M 302.21929931640625 168.62814331054688 C 287.15057373046875 170.7367401123047 313.9351806640625 169.5361328125 189.4564208984375 170.15480041503906 C 184.7741241455078 175.24822998046875 170.42019653320312 174.9723663330078 171.33518981933594 153.8701171875 C 176.19371032714844 154.74871826171875 187.00184631347656 154.31912231445312 324.9202880859375 154.43389892578125 C 357.9371643066406 158.15249633789062 339.9333801269531 173.41705322265625 302.21929931640625 168.62814331054688" stroke-width="0.0" fill="rgb(0, 0, 0)" opacity="0.9980457" stroke="rgb(189, 52, 15)" stroke-opacity="0.08609188" stroke-linecap="round" stroke-linejoin="round"/>
    <path d="M 324.6219787597656 299.29132080078125 C 311.8326110839844 330.9187316894531 322.41064453125 343.19158935546875 323.4953308105469 352.48944091796875 C 296.41387939453125 345.4066467285156 304.0252380371094 327.636962890625 303.7376403808594 307.2943420410156 C 303.9185485839844 293.1696472167969 319.7740478515625 260.8061828613281 350.2708435058594 239.14166259765625 C 364.1622619628906 280.1988830566406 341.3126525878906 246.7134246826172 324.6219787597656 299.29132080078125" stroke-width="0.0" fill="rgb(243, 242, 247)" opacity="0.95580107" stroke="rgb(121, 174, 39)" stroke-opacity="0.28448308" stroke-linecap="round" stroke-linejoin="round"/>
    <path d="M 393.4768981933594 118.016845703125 C 298.34442138671875 124.19021606445312 379.6314392089844 154.72592163085938 329.03765869140625 169.69461059570312 C 328.9202880859375 106.61986541748047 316.135986328125 155.69419860839844 305.49713134765625 128.60604858398438 C 327.475830078125 107.0828628540039 331.02545166015625 104.31632232666016 336.303466796875 107.6827392578125 C 346.2454833984375 123.51863098144531 318.74334716796875 115.90252685546875 393.4768981933594 118.016845703125" stroke-width="0.0" fill="rgb(0, 0, 0)" opacity="0.9850748" stroke="rgb(111, 45, 90)" stroke-opacity="0.8989571" stroke-linecap="round" stroke-linejoin="round"/>
    <path d="M 456.519287109375 304.5240478515625 C 501.14605712890625 376.4067687988281 409.6539611816406 403.7002258300781 397.6734619140625 411.35089111328125 C 368.0942077636719 410.3859558105469 354.75177001953125 409.3558044433594 334.74774169921875 392.0662536621094 C 334.67901611328125 369.59942626953125 337.68328857421875 379.4589538574219 370.98651123046875 393.43267822265625 C 383.5418395996094 401.81121826171875 457.7891845703125 392.4668273925781 456.519287109375 304.5240478515625" stroke-width="0.0" fill="rgb(241, 241, 242)" opacity="1.0" stroke="rgb(6, 200, 66)" stroke-opacity="0.09268279" stroke-linecap="round" stroke-linejoin="round"/>
    <path d="M 351.50433349609375 384.4187927246094 C 363.5347900390625 403.2489929199219 360.1222839355469 409.9217224121094 342.8578796386719 397.5465087890625 C 320.4992370605469 383.08099365234375 318.2232360839844 373.7347106933594 308.33135986328125 362.8658752441406 C 308.4464416503906 329.893310546875 287.47381591796875 325.30029296875 318.9944763183594 323.1825866699219 C 320.357421875 355.7012939453125 334.57470703125 369.364013671875 351.50433349609375 384.4187927246094" stroke-width="0.0" fill="rgb(251, 252, 254)" opacity="0.90753204" stroke="rgb(101, 90, 182)" stroke-opacity="0.4928144" stroke-linecap="round" stroke-linejoin="round"/>
    <path d="M 215.3289031982422 393.5648498535156 C 105.3500747680664 395.9617614746094 325.03692626953125 341.3893737792969 157.18775939941406 351.7743225097656 C 117.80155944824219 315.643798828125 193.89605712890625 341.3743591308594 186.7180938720703 342.0224304199219 C 197.277099609375 331.2581481933594 181.896484375 364.4587707519531 141.5339813232422 316.7490539550781 C 210.8567352294922 305.8987121582031 301.2854919433594 266.13214111328125 215.3289031982422 393.5648498535156" stroke-width="0.0" fill="rgb(1, 2, 2)" opacity="0.9728845" stroke="rgb(167, 119, 193)" stroke-opacity="0.67449707" stroke-linecap="round" stroke-linejoin="round"/>
    <path d="M 94.6831283569336 279.6575012207031 C 93.06224822998047 281.0005187988281 75.05440521240234 294.5212707519531 72.89787292480469 315.5439147949219 C 69.77206420898438 363.83758544921875 125.84583282470703 378.0431823730469 71.15103912353516 362.2287292480469 C 39.45331954956055 308.5740661621094 76.92070007324219 236.77806091308594 151.9171600341797 256.4786071777344 C 159.05307006835938 284.4474792480469 120.22537231445312 256.1893615722656 94.6831283569336 279.6575012207031" stroke-width="0.0" fill="rgb(0, 0, 0)" opacity="0.9961857" stroke="rgb(237, 120, 135)" stroke-opacity="0.16613126" stroke-linecap="round" stroke-linejoin="round"/>
    <path d="M 192.68936157226562 298.3282470703125 C 292.37725830078125 269.7548828125 291.93011474609375 294.2194519042969 111.70423126220703 318.4399719238281 C 140.0651397705078 288.835693359375 206.59722900390625 319.5858459472656 164.33016967773438 280.5821533203125 C 131.1431884765625 261.3341064453125 120.6535415649414 257.878662109375 159.2490692138672 259.4215087890625 C 184.43157958984375 272.97430419921875 190.68829345703125 287.2914123535156 192.68936157226562 298.3282470703125" stroke-width="0.0" fill="rgb(0, 0, 0)" opacity="0.99208593" stroke="rgb(86, 93, 89)" stroke-opacity="0.095284194" stroke-linecap="round" stroke-linejoin="round"/>
    <path d="M 212.36036682128906 103.07100677490234 C 212.92416381835938 104.005859375 204.09423828125 103.47080993652344 136.543701171875 103.90634155273438 C 130.41510009765625 105.91702270507812 124.62167358398438 102.21814727783203 125.94886016845703 94.2568359375 C 132.7421112060547 87.91059875488281 117.93672180175781 89.83747863769531 208.37535095214844 89.40253448486328 C 213.31402587890625 89.25501251220703 221.5581817626953 97.76637268066406 212.36036682128906 103.07100677490234" stroke-width="0.0" fill="rgb(0, 0, 1)" opacity="0.9957264" stroke="rgb(141, 96, 217)" stroke-opacity="0.27781582" stroke-linecap="round" stroke-linejoin="round"/>
    <path d="M 449.99212646484375 184.69512939453125 C 448.8973693847656 199.02484130859375 442.6457824707031 189.71690368652344 362.0845642089844 194.3457489013672 C 338.1100158691406 150.04713439941406 391.23028564453125 271.72857666015625 349.4979248046875 233.867431640625 C 337.3820495605469 162.6367645263672 325.6134948730469 217.55860900878906 363.14251708984375 178.62493896484375 C 458.8579406738281 178.34982299804688 443.7151184082031 175.8870849609375 449.99212646484375 184.69512939453125" stroke-width="0.0" fill="rgb(0, 0, 0)" opacity="0.9915218" stroke="rgb(231, 49, 118)" stroke-opacity="0.5357109" stroke-linecap="round" stroke-linejoin="round"/>
    <path d="M 369.26971435546875 325.80865478515625 C 343.2334289550781 348.4800720214844 339.1502380371094 361.6336669921875 352.3756408691406 342.72320556640625 C 342.4166259765625 343.59344482421875 346.6588439941406 371.9149475097656 333.10980224609375 333.24267578125 C 330.1286926269531 301.88232421875 332.6175537109375 315.7876281738281 339.2308654785156 343.68560791015625 C 366.5194091796875 317.7663879394531 370.3365173339844 308.27117919921875 369.26971435546875 325.80865478515625" stroke-width="0.0" fill="rgb(254, 255, 255)" opacity="0.6862664" stroke="rgb(97, 241, 218)" stroke-opacity="0.97484493" stroke-linecap="round" stroke-linejoin="round"/>
    <path d="M 400.4571533203125 196.12110900878906 C 382.49249267578125 209.09243774414062 384.3132629394531 212.63650512695312 365.62921142578125 224.24746704101562 C 363.634765625 214.69993591308594 363.4483642578125 219.21363830566406 374.9233093261719 207.7316131591797 C 383.277587890625 195.25955200195312 390.9083251953125 209.04747009277344 356.78570556640625 192.8304443359375 C 443.4419860839844 194.654541015625 408.1153259277344 191.3646240234375 400.4571533203125 196.12110900878906" stroke-width="0.0" fill="rgb(255, 255, 255)" opacity="0.5786955" stroke="rgb(163, 199, 55)" stroke-opacity="0.3265264" stroke-linecap="round" stroke-linejoin="round"/>
    <path d="M 412.1258239746094 222.02308654785156 C 436.8460693359375 202.33937072753906 520.5943603515625 129.2789764404297 419.6064147949219 225.8086700439453 C 405.13836669921875 221.1547393798828 385.7887268066406 218.25624084472656 364.6260070800781 223.63601684570312 C 391.0516357421875 208.60887145996094 406.3039855957031 219.78746032714844 411.29449462890625 211.03518676757812 C 445.4541320800781 182.13548278808594 441.77545166015625 188.16885375976562 412.1258239746094 222.02308654785156" stroke-width="0.0" fill="rgb(250, 251, 251)" opacity="0.9590569" stroke="rgb(10, 124, 184)" stroke-opacity="0.9290447" stroke-linecap="round" stroke-linejoin="round"/>
    <path d="M 432.9683837890625 311.8730773925781 C 414.0684814453125 324.0535888671875 414.34173583984375 329.704345703125 416.0576171875 341.48724365234375 C 434.74737548828125 328.20538330078125 421.371826171875 325.1611328125 404.18280029296875 336.0702819824219 C 407.8802490234375 328.0166015625 406.7110900878906 320.7575988769531 426.5189514160156 316.1396484375 C 430.818603515625 294.9830627441406 442.19915771484375 301.7888488769531 432.9683837890625 311.8730773925781" stroke-width="0.0" fill="rgb(249, 249, 249)" opacity="0.8412227" stroke="rgb(149, 83, 56)" stroke-opacity="0.96022433" stroke-linecap="round" stroke-linejoin="round"/>
    <path d="M 392.9134521484375 215.51268005371094 C 400.70281982421875 216.08206176757812 389.16802978515625 212.65049743652344 394.24652099609375 215.0059051513672 C 388.1214294433594 216.79808044433594 390.17626953125 218.9950714111328 415.6544494628906 192.0157470703125 C 385.50616455078125 220.1966552734375 385.75518798828125 222.89044189453125 394.3475036621094 211.4011993408203 C 359.1933898925781 220.78224182128906 351.3158874511719 229.20748901367188 392.9134521484375 215.51268005371094" stroke-width="0.0" fill="rgb(255, 254, 254)" opacity="0.77078366" stroke="rgb(12, 62, 177)" stroke-opacity="0.81475484" stroke-linecap="round" stroke-linejoin="round"/>
    <path d="M 420.6780090332031 240.62913513183594 C 403.3495178222656 234.94175720214844 413.36669921875 236.04530334472656 396.1222839355469 252.48953247070312 C 378.3988037109375 253.73536682128906 382.2866516113281 253.09910583496094 395.3131408691406 242.1315460205078 C 404.9498596191406 231.15484619140625 405.9182434082031 239.36866760253906 396.0595703125 231.97593688964844 C 402.2651062011719 231.3365478515625 429.61248779296875 241.91946411132812 420.6780090332031 240.62913513183594" stroke-width="0.0" fill="rgb(252, 251, 254)" opacity="0.75624573" stroke="rgb(103, 29, 69)" stroke-opacity="0.7916234" stroke-linecap="round" stroke-linejoin="round"/>
    <path d="M 440.1492614746094 333.62353515625 C 437.42755126953125 355.5779113769531 404.2366943359375 379.8743591308594 422.26397705078125 359.1805725097656 C 418.0726013183594 329.6823425292969 414.52783203125 321.15380859375 408.9073181152344 326.9277038574219 C 417.92974853515625 329.0664367675781 414.9582824707031 329.86456298828125 397.68621826171875 284.56396484375 C 422.0392150878906 265.1626892089844 446.5977783203125 305.0133361816406 440.1492614746094 333.62353515625" stroke-width="0.0" fill="rgb(255, 255, 255)" opacity="0.9314783" stroke="rgb(164, 185, 53)" stroke-opacity="0.8797344" stroke-linecap="round" stroke-linejoin="round"/>
    <path d="M 163.47195434570312 365.9584045410156 C 158.01451110839844 399.5997314453125 140.70655822753906 388.4776306152344 132.7624053955078 392.8083190917969 C 101.5436019897461 389.4964599609375 76.48057556152344 397.09844970703125 91.59082794189453 362.6374206542969 C 103.42881774902344 374.2278747558594 119.56468963623047 376.90106201171875 126.30329895019531 378.1575012207031 C 119.01069641113281 375.94598388671875 142.28883361816406 382.8381652832031 163.47195434570312 365.9584045410156" stroke-width="0.0" fill="rgb(0, 0, 0)" opacity="0.98778653" stroke="rgb(83, 119, 240)" stroke-opacity="0.3116184" stroke-linecap="round" stroke-linejoin="round"/>
    <path d="M 395.50421142578125 241.16465759277344 C 373.3995056152344 258.21502685546875 384.5472412109375 251.15402221679688 373.21710205078125 253.47332763671875 C 373.6336364746094 258.8099670410156 370.9670715332031 247.33531188964844 366.72015380859375 232.4384307861328 C 368.0326232910156 234.37539672851562 371.3300476074219 232.4784393310547 367.6136169433594 232.5001220703125 C 393.3567199707031 229.6344451904297 397.8092956542969 230.70480346679688 395.50421142578125 241.16465759277344" stroke-width="0.0" fill="rgb(253, 253, 253)" opacity="0.7680449" stroke="rgb(193, 123, 234)" stroke-opacity="0.2320535" stroke-linecap="round" stroke-linejoin="round"/>
    <path d="M 415.4476623535156 259.4660339355469 C 400.1318664550781 252.3251495361328 387.1300964355469 252.20941162109375 371.4219055175781 254.51480102539062 C 375.6561584472656 254.8382568359375 371.1330871582031 250.25973510742188 367.6941223144531 233.34849548339844 C 363.8875732421875 231.74818420410156 400.86334228515625 231.00814819335938 388.5057373046875 233.04629516601562 C 365.6539001464844 254.01910400390625 379.68927001953125 240.16355895996094 415.4476623535156 259.4660339355469" stroke-width="0.0" fill="rgb(255, 255, 255)" opacity="0.8653186" stroke="rgb(158, 241, 146)" stroke-opacity="0.484081" stroke-linecap="round" stroke-linejoin="round"/>
    <path d="M 361.877197265625 282.4396057128906 C 343.34454345703125 299.74139404296875 342.585205078125 302.5473327636719 364.1055908203125 280.46240234375 C 341.3087463378906 299.35418701171875 354.3719482421875 290.9325866699219 342.0505676269531 298.67974853515625 C 333.4444274902344 308.6624755859375 339.4078674316406 292.7268981933594 346.0539245605469 288.1461486816406 C 349.1372375488281 279.52276611328125 366.9372253417969 273.26043701171875 361.877197265625 282.4396057128906" stroke-width="0.0" fill="rgb(249, 248, 246)" opacity="0.7801182" stroke="rgb(200, 32, 67)" stroke-opacity="0.7529367" stroke-linecap="round" stroke-linejoin="round"/>
    <path d="M 382.4258117675781 340.5417785644531 C 363.84149169921875 339.1983337402344 379.6069030761719 329.73199462890625 351.86419677734375 354.5386657714844 C 351.5600280761719 356.8150634765625 338.6121520996094 352.1148986816406 369.1332702636719 327.3730163574219 C 336.9921569824219 358.0597839355469 355.2093811035156 343.05987548828125 368.67578125 327.8817443847656 C 373.0734558105469 322.9418029785156 368.404541015625 336.0454406738281 382.4258117675781 340.5417785644531" stroke-width="0.0" fill="rgb(251, 251, 251)" opacity="0.9011305" stroke="rgb(133, 38, 222)" stroke-opacity="0.11806431" stroke-linecap="round" stroke-linejoin="round"/>
    <path d="M 343.7558898925781 308.2982482910156 C 350.4619140625 315.0006408691406 336.50701904296875 307.6043395996094 336.08697509765625 332.5538330078125 C 333.3406066894531 318.5452880859375 332.824951171875 317.5433349609375 336.1324462890625 332.7433166503906 C 333.31097412109375 335.99407958984375 323.7750549316406 306.15606689453125 349.42938232421875 282.3691711425781 C 371.54815673828125 263.7069091796875 344.9647521972656 291.9679260253906 343.7558898925781 308.2982482910156" stroke-width="0.0" fill="rgb(254, 254, 254)" opacity="0.9428766" stroke="rgb(143, 96, 230)" stroke-opacity="0.77382076" stroke-linecap="round" stroke-linejoin="round"/>
    <path d="M 419.0292663574219 341.5457763671875 C 409.95184326171875 349.8723449707031 402.9964294433594 358.7884521484375 391.8577880859375 365.6643371582031 C 379.98760986328125 373.1326599121094 389.466796875 354.1971740722656 416.93597412109375 329.3591613769531 C 386.7138671875 360.3055419921875 400.128662109375 347.616943359375 404.7278137207031 342.7047424316406 C 423.3681640625 323.75177001953125 417.1171875 327.08099365234375 419.0292663574219 341.5457763671875" stroke-width="0.0" fill="rgb(244, 244, 245)" opacity="0.93682563" stroke="rgb(12, 132, 63)" stroke-opacity="0.1233458" stroke-linecap="round" stroke-linejoin="round"/>
    <path d="M 404.2973327636719 362.0719909667969 C 421.68011474609375 350.5671691894531 408.96685791015625 349.0546569824219 382.3553771972656 377.4481506347656 C 357.0887756347656 373.3994140625 374.5648498535156 379.5845947265625 401.97607421875 342.39190673828125 C 373.8164978027344 375.8940734863281 372.8443603515625 365.4350891113281 411.42523193359375 347.2860107421875 C 409.0708923339844 337.0588073730469 386.6835021972656 353.16766357421875 404.2973327636719 362.0719909667969" stroke-width="0.0" fill="rgb(251, 252, 252)" opacity="0.8195174" stroke="rgb(245, 226, 75)" stroke-opacity="0.45395374" stroke-linecap="round" stroke-linejoin="round"/>
    <path d="M 400.95184326171875 373.49176025390625 C 418.958251953125 354.17120361328125 406.9272155761719 364.5160217285156 423.6662292480469 361.3792419433594 C 404.1532897949219 386.6383361816406 359.42095947265625 375.1035461425781 387.4530029296875 373.8307189941406 C 410.39385986328125 353.3575744628906 412.6307373046875 347.5723876953125 430.17828369140625 332.35931396484375 C 454.3629455566406 307.7445068359375 432.64935302734375 345.6503601074219 400.95184326171875 373.49176025390625" stroke-width="0.0" fill="rgb(249, 249, 250)" opacity="0.95231724" stroke="rgb(114, 69, 121)" stroke-opacity="0.61731213" stroke-linecap="round" stroke-linejoin="round"/>
    <path d="M 383.99005126953125 140.92324829101562 C 386.1980285644531 141.78660583496094 386.1256103515625 136.54397583007812 388.1607971191406 154.4244842529297 C 377.5252685546875 158.42919921875 380.6570129394531 138.27325439453125 379.931884765625 141.19064331054688 C 379.1656494140625 140.62445068359375 388.11541748046875 141.67652893066406 385.9626770019531 139.9949188232422 C 383.4529113769531 140.0833740234375 384.11627197265625 139.697265625 383.99005126953125 140.92324829101562" stroke-width="0.0" fill="rgb(254, 254, 253)" opacity="0.5353459" stroke="rgb(165, 57, 196)" stroke-opacity="0.0118126115" stroke-linecap="round" stroke-linejoin="round"/>
    <path d="M 422.2299499511719 250.0714111328125 C 421.27716064453125 252.4779510498047 420.91058349609375 252.80426025390625 414.3666076660156 251.969970703125 C 407.51666259765625 253.89468383789062 414.6015625 248.70391845703125 423.4396667480469 241.1053009033203 C 421.71710205078125 260.076416015625 420.961181640625 247.9123992919922 406.9647216796875 253.95542907714844 C 423.2249755859375 239.6390838623047 424.9139709472656 233.83364868164062 422.2299499511719 250.0714111328125" stroke-width="0.0" fill="rgb(154, 157, 154)" opacity="0.37854615" stroke="rgb(210, 67, 216)" stroke-opacity="0.86138165" stroke-linecap="round" stroke-linejoin="round"/>
    <path d="M 350.7440185546875 318.63934326171875 C 337.1814880371094 331.91595458984375 331.04180908203125 336.0472106933594 345.50189208984375 323.0067443847656 C 350.1949462890625 318.1883544921875 349.8016052246094 322.4870910644531 334.4709777832031 333.5008850097656 C 329.8317565917969 329.4736633300781 335.2126159667969 321.9443359375 353.478271484375 305.07513427734375 C 346.9100341796875 300.9134216308594 366.5499572753906 307.6551208496094 350.7440185546875 318.63934326171875" stroke-width="0.0" fill="rgb(254, 254, 254)" opacity="0.7603463" stroke="rgb(109, 140, 248)" stroke-opacity="0.8040914" stroke-linecap="round" stroke-linejoin="round"/>
    <path d="M 417.3359375 260.1564636230469 C 415.6719665527344 261.0030822753906 456.280517578125 236.0646209716797 429.10784912109375 264.2165832519531 C 429.8188781738281 271.14129638671875 418.5234680175781 256.4266357421875 406.6249694824219 256.1151428222656 C 411.48681640625 253.3544921875 422.8835754394531 242.25799560546875 422.2093200683594 239.857421875 C 435.0336608886719 247.0015106201172 433.6947021484375 242.75030517578125 417.3359375 260.1564636230469" stroke-width="0.0" fill="rgb(255, 255, 255)" opacity="0.6659014" stroke="rgb(240, 14, 250)" stroke-opacity="0.9496313" stroke-linecap="round" stroke-linejoin="round"/>
    <path d="M 198.77857971191406 340.4626770019531 C 186.48194885253906 341.1138000488281 170.42359924316406 335.6261901855469 156.9703369140625 335.0241394042969 C 164.90045166015625 335.3429870605469 170.02284240722656 336.56097412109375 147.90707397460938 332.8030700683594 C 152.22317504882812 326.3475646972656 158.81765747070312 332.2548828125 189.260498046875 334.3924255371094 C 155.4326629638672 331.666015625 191.5684051513672 334.4996337890625 198.77857971191406 340.4626770019531" stroke-width="0.0" fill="rgb(251, 250, 255)" opacity="0.98871094" stroke="rgb(223, 77, 52)" stroke-opacity="0.88245356" stroke-linecap="round" stroke-linejoin="round"/>
    <path d="M 170.15512084960938 237.02549743652344 C 153.1009063720703 234.74855041503906 108.92337799072266 219.07321166992188 75.2500228881836 250.43601989746094 C -47.639747619628906 371.78302001953125 223.7484588623047 440.2911071777344 71.5951156616211 420.7596740722656 C -44.83827590942383 271.1869201660156 126.00595092773438 208.81275939941406 64.45509338378906 243.6209716796875 C 111.67623901367188 203.3465576171875 173.3194580078125 224.25621032714844 170.15512084960938 237.02549743652344" stroke-width="0.0" fill="rgb(0, 0, 0)" opacity="0.993647" stroke="rgb(86, 165, 94)" stroke-opacity="0.8095109" stroke-linecap="round" stroke-linejoin="round"/>
    <path d="M 429.4830322265625 291.6571350097656 C 409.0904541015625 299.29962158203125 413.8841552734375 288.72979736328125 400.705810546875 305.43389892578125 C 393.06884765625 295.597900390625 395.071533203125 306.06201171875 403.5628967285156 290.1788330078125 C 394.36578369140625 300.5977478027344 408.60931396484375 289.16729736328125 375.3169860839844 270.8128356933594 C 399.2845458984375 265.77685546875 420.195068359375 275.99029541015625 429.4830322265625 291.6571350097656" stroke-width="0.0" fill="rgb(255, 255, 254)" opacity="0.94115907" stroke="rgb(244, 196, 83)" stroke-opacity="0.62077934" stroke-linecap="round" stroke-linejoin="round"/>
    <path d="M 434.7101745605469 298.3550109863281 C 423.6773986816406 281.58099365234375 438.0264892578125 301.70361328125 403.7157287597656 301.08135986328125 C 408.6700744628906 292.0201110839844 414.3150634765625 298.3868103027344 419.283203125 279.2402648925781 C 391.21551513671875 303.56488037109375 383.732177734375 311.1151428222656 403.4095458984375 288.7032470703125 C 414.36492919921875 270.968505859375 421.5438232421875 278.1203308105469 434.7101745605469 298.3550109863281" stroke-width="0.0" fill="rgb(215, 214, 216)" opacity="0.41711426" stroke="rgb(100, 137, 167)" stroke-opacity="0.3389222" stroke-linecap="round" stroke-linejoin="round"/>
    <path d="M 369.0123596191406 312.6326904296875 C 355.9031677246094 326.8082275390625 349.1136474609375 330.5622863769531 338.8749084472656 343.3635559082031 C 333.64385986328125 333.2857360839844 337.4246826171875 334.208251953125 340.4288330078125 329.89044189453125 C 343.08642578125 327.8307189941406 352.2323913574219 319.002197265625 357.3131103515625 314.21441650390625 C 363.43341064453125 305.85577392578125 364.71392822265625 307.9017639160156 369.0123596191406 312.6326904296875" stroke-width="0.0" fill="rgb(253, 253, 253)" opacity="0.7163691" stroke="rgb(253, 5, 54)" stroke-opacity="0.9086618" stroke-linecap="round" stroke-linejoin="round"/>
    <path d="M 424.3692626953125 319.7283630371094 C 418.09014892578125 325.68316650390625 417.9190368652344 327.31640625 403.6510009765625 341.1549072265625 C 379.58349609375 340.17218017578125 399.8345031738281 342.9322814941406 405.49725341796875 327.35760498046875 C 408.31591796875 328.5994567871094 402.604736328125 310.0700378417969 411.508544921875 319.7801208496094 C 399.1719055175781 333.87139892578125 420.64337158203125 320.26171875 424.3692626953125 319.7283630371094" stroke-width="0.0" fill="rgb(255, 255, 255)" opacity="0.54938704" stroke="rgb(233, 248, 9)" stroke-opacity="0.35736838" stroke-linecap="round" stroke-linejoin="round"/>
    <path d="M 421.82501220703125 305.8270263671875 C 409.74322509765625 327.8700866699219 402.367919921875 325.76483154296875 412.85101318359375 331.13134765625 C 406.6563415527344 332.1449890136719 405.92822265625 319.28253173828125 407.46282958984375 317.7713623046875 C 408.1916809082031 325.4078369140625 408.27825927734375 305.359130859375 407.3037414550781 314.0609436035156 C 423.87457275390625 302.66265869140625 425.7349853515625 296.71990966796875 421.82501220703125 305.8270263671875" stroke-width="0.0" fill="rgb(255, 255, 255)" opacity="0.7018454" stroke="rgb(28, 152, 31)" stroke-opacity="0.53096485" stroke-linecap="round" stroke-linejoin="round"/>
    <path d="M 301.4438781738281 382.8660583496094 C 293.1033020019531 398.28192138671875 294.83453369140625 392.27618408203125 242.22427368164062 393.6259765625 C 209.6314239501953 392.9095458984375 205.4156951904297 397.291748046875 219.20425415039062 380.7281494140625 C 303.6293029785156 370.5343322753906 202.5352020263672 343.7706604003906 279.2444763183594 323.8603515625 C 304.15838623046875 377.5871276855469 306.2506103515625 348.2524108886719 301.4438781738281 382.8660583496094" stroke-width="0.0" fill="rgb(1, 2, 2)" opacity="0.9723752" stroke="rgb(222, 82, 174)" stroke-opacity="0.056934815" stroke-linecap="round" stroke-linejoin="round"/>
    <path d="M 111.98847961425781 324.78753662109375 C 98.65090942382812 340.19488525390625 90.06460571289062 344.3318176269531 85.07613372802734 353.9365539550781 C 81.93496704101562 348.47393798828125 77.35801696777344 346.3550109863281 86.25547790527344 339.7383728027344 C 91.60920715332031 335.4809875488281 94.57716369628906 332.1436462402344 104.37555694580078 322.97412109375 C 125.80384063720703 290.50372314453125 110.54435729980469 308.4368591308594 111.98847961425781 324.78753662109375" stroke-width="0.0" fill="rgb(254, 255, 255)" opacity="0.9361148" stroke="rgb(102, 147, 71)" stroke-opacity="0.37769476" stroke-linecap="round" stroke-linejoin="round"/>
    <path d="M 187.92880249023438 386.8089904785156 C 183.42893981933594 393.64361572265625 200.3584442138672 393.76092529296875 182.87625122070312 394.9072265625 C 161.04888916015625 411.0902404785156 136.6074981689453 412.246337890625 145.185791015625 410.1050109863281 C 181.20877075195312 388.1231384277344 181.49134826660156 379.7226257324219 200.316650390625 363.8751525878906 C 224.90676879882812 383.6546325683594 195.50576782226562 375.1995544433594 187.92880249023438 386.8089904785156" stroke-width="0.0" fill="rgb(252, 252, 252)" opacity="0.9492026" stroke="rgb(206, 227, 28)" stroke-opacity="0.008895419" stroke-linecap="round" stroke-linejoin="round"/>
    <path d="M 149.5616455078125 233.7264404296875 C 139.3531494140625 262.2154541015625 142.43130493164062 252.3043670654297 139.63754272460938 252.95816040039062 C 81.65464782714844 250.9523468017578 78.49762725830078 268.3117980957031 101.94245910644531 256.82635498046875 C 129.78245544433594 239.8392333984375 141.1571502685547 221.41909790039062 119.34911346435547 237.00975036621094 C 141.7511749267578 250.927734375 129.23501586914062 229.4919891357422 149.5616455078125 233.7264404296875" stroke-width="0.0" fill="rgb(239, 240, 241)" opacity="0.84246135" stroke="rgb(190, 51, 56)" stroke-opacity="0.34747666" stroke-linecap="round" stroke-linejoin="round"/>
    <path d="M 78.80810546875 250.4172821044922 C 71.93212890625 275.4349060058594 45.55573654174805 283.7149963378906 44.205997467041016 312.640380859375 C 41.72031784057617 292.6815185546875 52.28129196166992 275.84332275390625 62.28683090209961 263.0780334472656 C 59.583152770996094 267.6226806640625 61.367698669433594 263.546142578125 67.36796569824219 258.072509765625 C 79.86565399169922 243.9672088623047 84.74624633789062 248.16213989257812 78.80810546875 250.4172821044922" stroke-width="0.0" fill="rgb(255, 255, 255)" opacity="0.83297354" stroke="rgb(187, 185, 200)" stroke-opacity="0.54856086" stroke-linecap="round" stroke-linejoin="round"/>
    <path d="M 102.95556640625 321.553466796875 C 87.2449722290039 334.8309631347656 81.5409164428711 341.5205993652344 80.99109649658203 341.9454650878906 C 85.99726867675781 355.38250732421875 76.680908203125 343.9099426269531 74.25582885742188 328.9811706542969 C 81.07754516601562 336.9089660644531 75.4666976928711 338.5391845703125 117.96482849121094 298.82177734375 C 131.06951904296875 296.97235107421875 125.98310089111328 295.7564392089844 102.95556640625 321.553466796875" stroke-width="0.0" fill="rgb(252, 252, 252)" opacity="0.9640394" stroke="rgb(149, 213, 17)" stroke-opacity="0.18754332" stroke-linecap="round" stroke-linejoin="round"/>
    <path d="M 217.52410888671875 306.0389404296875 C 182.64266967773438 312.09619140625 176.63951110839844 307.70977783203125 211.72048950195312 308.3743591308594 C 190.54949951171875 311.0425720214844 177.37942504882812 317.7759704589844 144.62338256835938 317.72833251953125 C 136.72608947753906 310.4609069824219 190.95266723632812 308.77734375 166.63934326171875 310.8013610839844 C 177.21990966796875 311.32196044921875 202.46072387695312 299.3197326660156 217.52410888671875 306.0389404296875" stroke-width="0.0" fill="rgb(246, 246, 251)" opacity="0.9910656" stroke="rgb(245, 41, 37)" stroke-opacity="0.55616057" stroke-linecap="round" stroke-linejoin="round"/>
    <path d="M 241.34194946289062 303.0738525390625 C 200.09278869628906 312.2886047363281 195.58192443847656 311.8489990234375 211.7636260986328 309.41656494140625 C 204.44009399414062 310.0387268066406 194.26611328125 315.1930847167969 162.8233184814453 316.6405944824219 C 177.38475036621094 301.1654968261719 208.4048309326172 310.04296875 186.5875244140625 306.96514892578125 C 204.6838836669922 304.684326171875 234.34512329101562 291.91339111328125 241.34194946289062 303.0738525390625" stroke-width="0.0" fill="rgb(253, 254, 255)" opacity="0.9496602" stroke="rgb(75, 0, 191)" stroke-opacity="0.4020151" stroke-linecap="round" stroke-linejoin="round"/>
    <path d="M 179.7416229248047 346.3117370605469 C 164.49693298339844 371.9462585449219 142.75636291503906 375.8911437988281 137.80445861816406 375.9351501464844 C 156.54786682128906 358.54541015625 160.4459228515625 358.7201232910156 142.95233154296875 355.9708557128906 C 166.1168212890625 347.5571594238281 134.93704223632812 340.3907775878906 154.72537231445312 343.1268615722656 C 175.12484741210938 345.38433837890625 178.6985321044922 349.05743408203125 179.7416229248047 346.3117370605469" stroke-width="0.0" fill="rgb(249, 249, 250)" opacity="0.9758706" stroke="rgb(120, 112, 162)" stroke-opacity="0.0064257425" stroke-linecap="round" stroke-linejoin="round"/>
    <path d="M 92.41302490234375 245.66806030273438 C 88.12921142578125 249.47572326660156 86.14468383789062 251.05934143066406 79.91361236572266 257.86895751953125 C 61.40314865112305 277.6288146972656 53.11534118652344 282.7371826171875 71.33700561523438 255.09593200683594 C 80.5643081665039 247.10397338867188 82.58514404296875 245.06106567382812 89.71278381347656 241.30377197265625 C 106.1053466796875 233.42176818847656 107.66548156738281 231.53878784179688 92.41302490234375 245.66806030273438" stroke-width="0.0" fill="rgb(252, 252, 253)" opacity="0.9671482" stroke="rgb(17, 133, 204)" stroke-opacity="0.6621873" stroke-linecap="round" stroke-linejoin="round"/>
    <path d="M 230.6083984375 415.2609558105469 C 210.8623809814453 443.1891784667969 190.2855987548828 458.7845458984375 168.81661987304688 480.28472900390625 C 95.23291778564453 503.76507568359375 163.9915771484375 507.5634765625 231.04095458984375 405.0215148925781 C 143.83779907226562 495.488037109375 132.2357177734375 498.00537109375 233.92124938964844 399.93365478515625 C 176.76284790039062 483.1216125488281 300.5743408203125 347.2206726074219 230.6083984375 415.2609558105469" stroke-width="0.0" fill="rgb(65, 63, 71)" opacity="0.24953692" stroke="rgb(109, 25, 77)" stroke-opacity="0.22975346" stroke-linecap="round" stroke-linejoin="round"/>
    <path d="M 137.36715698242188 345.17083740234375 C 121.11050415039062 359.0445251464844 118.20207214355469 362.60101318359375 114.97662353515625 365.0616149902344 C 108.04972076416016 371.8978576660156 108.4320068359375 370.9763488769531 101.82481384277344 368.0168762207031 C 110.75958251953125 356.0008850097656 119.36804962158203 351.5611877441406 127.2398452758789 341.94287109375 C 160.1778564453125 342.87615966796875 152.31358337402344 346.27117919921875 137.36715698242188 345.17083740234375" stroke-width="0.0" fill="rgb(243, 243, 243)" opacity="0.8169417" stroke="rgb(177, 162, 206)" stroke-opacity="0.92386895" stroke-linecap="round" stroke-linejoin="round"/>
    <path d="M 191.8332977294922 48.706485748291016 C 188.7063446044922 54.96279525756836 185.3055877685547 55.84695816040039 182.0087432861328 60.18767166137695 C 165.96527099609375 74.07266998291016 133.6488494873047 104.54338836669922 167.98397827148438 75.71150970458984 C 187.70851135253906 56.956295013427734 185.40528869628906 58.75700759887695 211.3211212158203 36.8226318359375 C 193.08876037597656 47.81439208984375 184.43601989746094 59.83781814575195 191.8332977294922 48.706485748291016" stroke-width="0.0" fill="rgb(190, 188, 190)" opacity="0.94738996" stroke="rgb(22, 12, 215)" stroke-opacity="0.7071137" stroke-linecap="round" stroke-linejoin="round"/>
    <path d="M 140.57395935058594 412.91156005859375 C 167.21588134765625 417.5204162597656 150.02354431152344 413.6771240234375 132.0914764404297 414.7891540527344 C 105.60289764404297 409.180419921875 104.36766052246094 407.20538330078125 122.70201873779297 394.7545166015625 C 164.87139892578125 392.87469482421875 154.0999755859375 381.0755310058594 132.88645935058594 407.6733703613281 C 169.89845275878906 377.7915954589844 177.33934020996094 376.7817687988281 140.57395935058594 412.91156005859375" stroke-width="0.0" fill="rgb(255, 255, 255)" opacity="0.8112077" stroke="rgb(129, 172, 44)" stroke-opacity="0.12135903" stroke-linecap="round" stroke-linejoin="round"/>
    <path d="M 147.5643310546875 61.778900146484375 C 91.54216003417969 117.12351989746094 84.41349792480469 124.46893310546875 90.7679672241211 117.02625274658203 C 80.0724868774414 129.68328857421875 28.19920539855957 174.38418579101562 19.34325408935547 189.69485473632812 C 91.44042205810547 120.78376770019531 95.2967758178711 116.5378646850586 93.64631652832031 118.34823608398438 C 122.3212890625 87.77267456054688 217.7253875732422 -0.4506676495075226 147.5643310546875 61.778900146484375" stroke-width="0.0" fill="rgb(109, 105, 110)" opacity="0.357858" stroke="rgb(203, 135, 218)" stroke-opacity="0.5061726" stroke-linecap="round" stroke-linejoin="round"/>
    <path d="M 407.8470153808594 421.4139099121094 C 353.2069396972656 471.9310302734375 351.82025146484375 474.4924621582031 328.1642150878906 496.3694152832031 C 273.42132568359375 502.05810546875 325.4095764160156 498.665771484375 366.88714599609375 499.6816711425781 C 343.5332946777344 472.8586120605469 366.84197998046875 453.696533203125 355.8155517578125 497.3226013183594 C 437.4935607910156 503.49212646484375 431.51629638671875 505.2975769042969 407.8470153808594 421.4139099121094" stroke-width="0.0" fill="rgb(195, 198, 201)" opacity="0.26681295" stroke="rgb(145, 215, 166)" stroke-opacity="0.44203547" stroke-linecap="round" stroke-linejoin="round"/>
    <path d="M 92.97264862060547 255.93603515625 C 84.42282104492188 273.88372802734375 40.1148681640625 290.61376953125 67.90311431884766 359.4139099121094 C 42.77847671508789 369.412841796875 29.6494197845459 302.9913635253906 58.68273162841797 286.1871032714844 C 70.48101806640625 259.27069091796875 70.82588958740234 257.62469482421875 60.96956253051758 280.9870300292969 C 90.84851837158203 248.11798095703125 132.97702026367188 207.95016479492188 92.97264862060547 255.93603515625" stroke-width="0.0" fill="rgb(248, 248, 248)" opacity="0.91433585" stroke="rgb(186, 49, 238)" stroke-opacity="0.26954624" stroke-linecap="round" stroke-linejoin="round"/>
    <path d="M 154.42433166503906 355.4285888671875 C 145.6450958251953 362.1943664550781 139.5947265625 370.4881286621094 133.26072692871094 375.31903076171875 C 127.72393798828125 367.7437744140625 116.90359497070312 378.29461669921875 130.5067596435547 374.7131042480469 C 126.51226043701172 348.7144470214844 141.2884063720703 337.9531555175781 160.96322631835938 345.32550048828125 C 138.97177124023438 345.9241638183594 135.96640014648438 365.8179016113281 154.42433166503906 355.4285888671875" stroke-width="0.0" fill="rgb(247, 247, 247)" opacity="1.0" stroke="rgb(133, 253, 199)" stroke-opacity="0.40215218" stroke-linecap="round" stroke-linejoin="round"/>
    <path d="M 129.1159210205078 284.7560729980469 C 118.98751831054688 306.2793884277344 135.46434020996094 292.4563293457031 105.57530975341797 303.79010009765625 C 70.45787811279297 350.294677734375 63.169578552246094 333.0129699707031 103.17989349365234 301.7408752441406 C 108.88552856445312 292.205810546875 114.89894104003906 291.8642883300781 118.8216323852539 283.12005615234375 C 137.0791473388672 266.9324951171875 140.29615783691406 261.0554504394531 129.1159210205078 284.7560729980469" stroke-width="0.0" fill="rgb(231, 232, 233)" opacity="1.0" stroke="rgb(41, 237, 114)" stroke-opacity="0.49673584" stroke-linecap="round" stroke-linejoin="round"/>
    <path d="M 341.06878662109375 461.7586975097656 C 289.5387268066406 506.9457092285156 321.1376953125 498.95916748046875 222.98997497558594 500.06719970703125 C 260.3872985839844 495.7336730957031 276.5906066894531 470.7393493652344 289.35296630859375 466.8028564453125 C 282.8912658691406 466.4391784667969 284.0420227050781 462.3329162597656 292.5931701660156 452.4705810546875 C 310.81536865234375 441.1923522949219 318.9320373535156 436.7790222167969 341.06878662109375 461.7586975097656" stroke-width="0.0" fill="rgb(199, 205, 211)" opacity="0.19974901" stroke="rgb(223, 181, 239)" stroke-opacity="0.7124447" stroke-linecap="round" stroke-linejoin="round"/>
    <path d="M 367.4882507324219 59.21988296508789 C 348.56982421875 75.72721099853516 344.9261474609375 83.29248046875 319.4271545410156 103.96959686279297 C 247.0323944091797 176.25570678710938 278.8591003417969 136.59146118164062 332.3024597167969 89.92636108398438 C 345.46173095703125 76.83911895751953 347.2843322753906 74.31986999511719 361.3589172363281 61.527687072753906 C 429.5028381347656 -2.776740789413452 444.2347717285156 -13.327449798583984 367.4882507324219 59.21988296508789" stroke-width="0.0" fill="rgb(114, 112, 117)" opacity="0.35776794" stroke="rgb(13, 151, 187)" stroke-opacity="0.6961685" stroke-linecap="round" stroke-linejoin="round"/>
    <path d="M 149.80032348632812 423.582763671875 C 211.53758239746094 511.6791687011719 115.2793197631836 513.5459594726562 13.612987518310547 474.64410400390625 C 30.21668815612793 439.80078125 61.733978271484375 427.5558776855469 66.64351654052734 412.421142578125 C 29.233673095703125 463.1971130371094 -11.079383850097656 473.7441711425781 32.868404388427734 349.9712829589844 C 45.39147186279297 389.30670166015625 89.35334777832031 432.45751953125 149.80032348632812 423.582763671875" stroke-width="0.0" fill="rgb(243, 243, 243)" opacity="0.9689215" stroke="rgb(192, 105, 117)" stroke-opacity="0.4012319" stroke-linecap="round" stroke-linejoin="round"/>
    <path d="M 262.254150390625 10.467700004577637 C 254.44857788085938 17.075403213500977 246.75770568847656 25.887643814086914 237.34774780273438 33.85589599609375 C 176.16647338867188 91.47142791748047 157.83921813964844 115.64590454101562 233.80679321289062 40.989768981933594 C 248.72933959960938 26.479413986206055 252.72605895996094 22.279417037963867 263.133544921875 11.393421173095703 C 253.33822631835938 13.493754386901855 264.86376953125 11.52725601196289 262.254150390625 10.467700004577637" stroke-width="0.0" fill="rgb(193, 192, 195)" opacity="0.9195021" stroke="rgb(151, 12, 86)" stroke-opacity="0.5008954" stroke-linecap="round" stroke-linejoin="round"/>
    <path d="M 119.41168975830078 340.21795654296875 C 110.97380828857422 335.7402038574219 109.0127182006836 341.7113342285156 104.97049713134766 346.1814270019531 C 103.07044982910156 348.8569030761719 89.36412048339844 361.4208679199219 91.00393676757812 347.83062744140625 C 106.7574462890625 335.8580627441406 108.10726928710938 335.655517578125 112.96680450439453 314.241943359375 C 110.70207214355469 332.3232421875 118.49811553955078 332.6528015136719 119.41168975830078 340.21795654296875" stroke-width="0.0" fill="rgb(214, 206, 218)" opacity="0.46153983" stroke="rgb(87, 75, 64)" stroke-opacity="0.45567787" stroke-linecap="round" stroke-linejoin="round"/>
    <path d="M 326.8672180175781 458.6098937988281 C 321.0654296875 464.0027160644531 321.7933044433594 464.73455810546875 316.6437683105469 467.36798095703125 C 307.8223571777344 474.03997802734375 321.4793701171875 468.3736877441406 334.01470947265625 449.45501708984375 C 313.0096740722656 467.2362976074219 321.7953796386719 473.4485168457031 307.9455871582031 452.41900634765625 C 325.58050537109375 442.18359375 339.2533874511719 450.3177795410156 326.8672180175781 458.6098937988281" stroke-width="0.0" fill="rgb(255, 255, 255)" opacity="0.33603698" stroke="rgb(228, 253, 230)" stroke-opacity="0.46054614" stroke-linecap="round" stroke-linejoin="round"/>
    <path d="M 189.79928588867188 227.7367401123047 C 196.97821044921875 250.57693481445312 197.2607879638672 244.4180145263672 182.36814880371094 234.74337768554688 C 165.14276123046875 226.70228576660156 169.51792907714844 230.69073486328125 170.4751434326172 223.830810546875 C 177.29434204101562 206.0650634765625 180.14320373535156 195.09652709960938 181.1741943359375 197.51748657226562 C 182.57212829589844 205.3115234375 185.10401916503906 209.71090698242188 189.79928588867188 227.7367401123047" stroke-width="0.0" fill="rgb(249, 248, 250)" opacity="0.9731793" stroke="rgb(254, 2, 97)" stroke-opacity="0.74298054" stroke-linecap="round" stroke-linejoin="round"/>
    <path d="M 107.90380096435547 305.6172790527344 C 81.18897247314453 331.05615234375 74.1279296875 335.61883544921875 80.114990234375 338.6805114746094 C 77.2269058227539 338.580810546875 74.63517761230469 326.3227233886719 73.09143829345703 327.375732421875 C 72.05311584472656 311.52593994140625 76.22452545166016 279.3978576660156 127.1739273071289 278.0207214355469 C 139.0574951171875 276.998291015625 119.5350341796875 292.5080871582031 107.90380096435547 305.6172790527344" stroke-width="0.0" fill="rgb(255, 255, 255)" opacity="0.7008851" stroke="rgb(95, 9, 148)" stroke-opacity="0.1242582" stroke-linecap="round" stroke-linejoin="round"/>
    <path d="M 258.0711975097656 215.5514373779297 C 251.4493865966797 215.37744140625 256.359375 220.70448303222656 246.32054138183594 230.3199920654297 C 223.16455078125 253.32595825195312 229.919921875 239.51231384277344 251.05844116210938 222.75238037109375 C 257.4460144042969 217.87911987304688 253.88101196289062 220.49102783203125 249.77554321289062 209.3551483154297 C 263.87896728515625 208.53065490722656 265.99310302734375 213.3683624267578 258.0711975097656 215.5514373779297" stroke-width="0.0" fill="rgb(187, 186, 189)" opacity="0.7225565" stroke="rgb(176, 238, 52)" stroke-opacity="0.69225687" stroke-linecap="round" stroke-linejoin="round"/>
    <path d="M 247.8964080810547 176.98561096191406 C 210.6780548095703 181.92306518554688 192.17079162597656 170.99514770507812 195.62310791015625 189.2974853515625 C 202.2069091796875 189.55328369140625 205.88006591796875 233.7542724609375 190.19699096679688 177.45965576171875 C 214.5625 175.06520080566406 210.75657653808594 176.35935974121094 208.3700408935547 176.7984619140625 C 205.3053741455078 175.5147705078125 209.1367645263672 173.31874084472656 247.8964080810547 176.98561096191406" stroke-width="0.0" fill="rgb(247, 247, 250)" opacity="0.9261383" stroke="rgb(95, 29, 106)" stroke-opacity="0.19902813" stroke-linecap="round" stroke-linejoin="round"/>
    <path d="M 147.4277801513672 118.32112121582031 C 149.0634307861328 106.5415267944336 147.95208740234375 110.9671401977539 188.56251525878906 109.83536529541016 C 148.4014892578125 108.22349548339844 137.1923828125 110.27014923095703 153.3175811767578 111.84405517578125 C 152.04788208007812 110.87348175048828 157.72381591796875 112.00897216796875 150.27940368652344 110.72697448730469 C 148.09075927734375 112.59297943115234 148.21957397460938 113.45417785644531 147.4277801513672 118.32112121582031" stroke-width="0.0" fill="rgb(75, 91, 91)" opacity="0.75885093" stroke="rgb(158, 248, 243)" stroke-opacity="0.38609102" stroke-linecap="round" stroke-linejoin="round"/>
    <path d="M 448.7308349609375 32.55824661254883 C 372.7115478515625 104.38398742675781 365.9335021972656 111.07758331298828 376.64825439453125 105.22933959960938 C 363.7074279785156 119.146484375 357.20770263671875 119.19686126708984 372.06231689453125 105.45768737792969 C 375.5392761230469 110.6415023803711 385.84405517578125 94.34648132324219 379.75189208984375 102.87725830078125 C 399.1771545410156 82.7496337890625 459.1166076660156 27.29956817626953 448.7308349609375 32.55824661254883" stroke-width="0.0" fill="rgb(112, 109, 116)" opacity="0.31278965" stroke="rgb(56, 232, 115)" stroke-opacity="0.3548745" stroke-linecap="round" stroke-linejoin="round"/>
    <path d="M 159.70721435546875 350.0905456542969 C 161.33860778808594 372.8263854980469 140.04441833496094 380.9968566894531 114.96284484863281 375.48565673828125 C 120.0376205444336 376.7611999511719 104.17478942871094 375.6728820800781 104.62295532226562 366.777587890625 C 109.49713897705078 373.34857177734375 110.7173843383789 371.8350524902344 117.05982208251953 366.37420654296875 C 136.39950561523438 348.01397705078125 131.88568115234375 348.4623107910156 159.70721435546875 350.0905456542969" stroke-width="0.0" fill="rgb(251, 251, 251)" opacity="0.7246306" stroke="rgb(6, 173, 229)" stroke-opacity="0.52838695" stroke-linecap="round" stroke-linejoin="round"/>
    <path d="M 112.19706726074219 339.5641174316406 C 108.00664520263672 344.63592529296875 104.38469696044922 346.80938720703125 91.62246704101562 359.2383117675781 C 102.34484100341797 364.74639892578125 87.1011734008789 362.1773986816406 85.45669555664062 353.5584716796875 C 94.89747619628906 347.1490478515625 105.45484161376953 335.9560546875 110.46966552734375 329.5596618652344 C 111.3816146850586 324.6747131347656 118.92185974121094 336.1192321777344 112.19706726074219 339.5641174316406" stroke-width="0.0" fill="rgb(254, 255, 254)" opacity="0.9111575" stroke="rgb(57, 131, 82)" stroke-opacity="0.27527875" stroke-linecap="round" stroke-linejoin="round"/>
    <path d="M 479.4682922363281 451.9024963378906 C 478.5633850097656 452.0018005371094 485.23638916015625 445.7191467285156 470.7888488769531 459.6562805175781 C 425.74444580078125 507.56304931640625 398.6128845214844 525.4243774414062 424.8772277832031 446.3223571777344 C 445.6544189453125 427.1869201660156 456.7856140136719 417.79302978515625 479.1723327636719 387.23858642578125 C 507.2372741699219 426.7409362792969 501.97308349609375 429.5215759277344 479.4682922363281 451.9024963378906" stroke-width="0.0" fill="rgb(170, 171, 174)" opacity="0.17393894" stroke="rgb(167, 68, 12)" stroke-opacity="0.7508476" stroke-linecap="round" stroke-linejoin="round"/>
    <path d="M 152.96566772460938 129.11915588378906 C 133.92108154296875 145.88882446289062 136.76641845703125 145.63136291503906 80.51348876953125 205.21458435058594 C 88.66154479980469 206.38449096679688 123.01339721679688 157.8696746826172 135.48910522460938 150.4401092529297 C 128.9303741455078 155.0530548095703 138.91400146484375 146.68777465820312 136.75619506835938 147.59329223632812 C 144.5471954345703 139.77627563476562 171.69163513183594 110.37619018554688 152.96566772460938 129.11915588378906" stroke-width="0.0" fill="rgb(111, 107, 110)" opacity="0.3341768" stroke="rgb(160, 254, 89)" stroke-opacity="0.7186108" stroke-linecap="round" stroke-linejoin="round"/>
    <path d="M 254.72482299804688 421.257080078125 C 239.5773162841797 437.6983947753906 243.68214416503906 427.4892578125 228.92446899414062 444.5423278808594 C 159.3971405029297 510.4547424316406 154.81954956054688 520.8096923828125 225.86181640625 450.7646179199219 C 249.4859161376953 425.7000427246094 250.0362548828125 427.5175476074219 237.1928253173828 435.44921875 C 278.17779541015625 393.6368408203125 302.2353210449219 375.4438171386719 254.72482299804688 421.257080078125" stroke-width="0.0" fill="rgb(48, 44, 51)" opacity="0.2528471" stroke="rgb(8, 166, 68)" stroke-opacity="0.3505849" stroke-linecap="round" stroke-linejoin="round"/>
    <path d="M 287.8288879394531 317.2077941894531 C 291.0313415527344 374.2626647949219 312.815185546875 353.7338562011719 272.50201416015625 364.0528869628906 C 263.84136962890625 371.3335876464844 264.02020263671875 355.3785095214844 257.9056091308594 342.7284851074219 C 269.4005126953125 342.6863098144531 271.3774719238281 344.4682922363281 267.707275390625 345.3273010253906 C 286.86883544921875 334.20062255859375 272.5623474121094 306.96429443359375 287.8288879394531 317.2077941894531" stroke-width="0.0" fill="rgb(244, 244, 244)" opacity="0.9840295" stroke="rgb(90, 105, 222)" stroke-opacity="0.735908" stroke-linecap="round" stroke-linejoin="round"/>
    <path d="M 160.36764526367188 113.27275085449219 C 161.0711669921875 108.80352783203125 159.2641143798828 110.84828186035156 150.34251403808594 110.94579315185547 C 195.46578979492188 109.48362731933594 183.00909423828125 110.33001708984375 169.60606384277344 110.31342315673828 C 174.2079620361328 111.1963119506836 178.08413696289062 110.43388366699219 159.6708984375 110.2889175415039 C 160.7249298095703 111.09629821777344 160.60464477539062 112.41903686523438 160.36764526367188 113.27275085449219" stroke-width="0.0" fill="rgb(54, 66, 64)" opacity="0.7824373" stroke="rgb(181, 88, 86)" stroke-opacity="0.94805735" stroke-linecap="round" stroke-linejoin="round"/>
    <path d="M 128.2261505126953 171.47731018066406 C 73.64154815673828 233.28170776367188 63.52879333496094 225.21563720703125 96.71617126464844 219.4311981201172 C 74.64288330078125 219.18252563476562 52.92073440551758 244.61952209472656 86.32161712646484 211.03823852539062 C 94.32400512695312 204.75062561035156 98.02269744873047 199.3625946044922 105.77822875976562 192.24240112304688 C 141.49839782714844 150.4051971435547 197.17335510253906 99.67987060546875 128.2261505126953 171.47731018066406" stroke-width="0.0" fill="rgb(108, 103, 109)" opacity="0.29730648" stroke="rgb(211, 51, 168)" stroke-opacity="0.79877204" stroke-linecap="round" stroke-linejoin="round"/>
    <path d="M 494.6674499511719 56.115081787109375 C 466.6664123535156 83.10523986816406 463.32891845703125 88.11052703857422 424.3890380859375 122.9482421875 C 368.6427917480469 178.57725524902344 436.611572265625 116.22561645507812 468.7703552246094 85.72576904296875 C 466.10626220703125 87.99213409423828 466.86126708984375 86.61972045898438 468.2620849609375 86.0115737915039 C 473.9122314453125 79.56298828125 494.70477294921875 59.57071304321289 494.6674499511719 56.115081787109375" stroke-width="0.0" fill="rgb(136, 134, 139)" opacity="0.3902683" stroke="rgb(163, 121, 249)" stroke-opacity="0.17100628" stroke-linecap="round" stroke-linejoin="round"/>
    <path d="M 461.7398681640625 413.60919189453125 C 437.18487548828125 440.2386169433594 433.3955993652344 441.3784484863281 428.07318115234375 447.60369873046875 C 412.44720458984375 462.2339782714844 381.9421691894531 491.6761474609375 393.733642578125 475.7124328613281 C 432.9061279296875 438.6846923828125 439.32659912109375 434.53125 450.18951416015625 423.68280029296875 C 484.5914611816406 384.915283203125 527.6026000976562 345.2926940917969 461.7398681640625 413.60919189453125" stroke-width="0.0" fill="rgb(131, 129, 132)" opacity="0.4078329" stroke="rgb(228, 35, 59)" stroke-opacity="0.92254883" stroke-linecap="round" stroke-linejoin="round"/>
    <path d="M 221.823486328125 358.2926940917969 C 202.9686279296875 389.5771789550781 202.54286193847656 387.446044921875 202.1126708984375 373.0994873046875 C 166.5463409423828 384.6735534667969 168.78033447265625 384.145263671875 188.77978515625 377.6888732910156 C 185.37252807617188 375.24456787109375 204.6486358642578 358.94659423828125 213.1209716796875 351.746337890625 C 229.0176239013672 355.7410888671875 227.54322814941406 352.2186279296875 221.823486328125 358.2926940917969" stroke-width="0.0" fill="rgb(246, 247, 248)" opacity="0.975375" stroke="rgb(48, 135, 237)" stroke-opacity="0.89183146" stroke-linecap="round" stroke-linejoin="round"/>
    <path d="M 55.72914123535156 177.62026977539062 C 22.91706657409668 206.81179809570312 29.65776824951172 211.54542541503906 17.80907440185547 219.1099395751953 C 21.85565948486328 204.53656005859375 25.525278091430664 200.47134399414062 55.38459014892578 165.4840545654297 C 9.081586837768555 209.1393585205078 15.550064086914062 203.34579467773438 32.06023406982422 203.31765747070312 C 66.57645416259766 173.1775360107422 121.5689468383789 114.4399185180664 55.72914123535156 177.62026977539062" stroke-width="0.0" fill="rgb(132, 131, 135)" opacity="0.30757105" stroke="rgb(223, 92, 167)" stroke-opacity="0.04220398" stroke-linecap="round" stroke-linejoin="round"/>
    <path d="M 209.03538513183594 352.3397521972656 C 200.18179321289062 359.8988952636719 196.06373596191406 363.82598876953125 182.1331024169922 377.5189514160156 C 167.83004760742188 383.6619873046875 174.35902404785156 375.92779541015625 186.98422241210938 362.6826477050781 C 189.3977508544922 358.5259704589844 193.4850616455078 350.22760009765625 193.69192504882812 348.968994140625 C 212.54786682128906 347.8191833496094 215.7031707763672 356.9487609863281 209.03538513183594 352.3397521972656" stroke-width="0.0" fill="rgb(255, 254, 255)" opacity="0.87748796" stroke="rgb(74, 33, 163)" stroke-opacity="0.030891988" stroke-linecap="round" stroke-linejoin="round"/>
    <path d="M 142.64952087402344 124.62467956542969 C 126.37462615966797 139.9016571044922 121.08927154541016 145.12477111816406 105.99246215820312 159.5015106201172 C 93.29766082763672 175.8424072265625 111.89948272705078 156.65476989746094 134.5277862548828 134.776123046875 C 129.8339385986328 149.95265197753906 132.44789123535156 124.2006607055664 157.29824829101562 122.27043151855469 C 106.23614501953125 122.91011810302734 168.3480224609375 123.99691009521484 142.64952087402344 124.62467956542969" stroke-width="0.0" fill="rgb(199, 199, 200)" opacity="1.0" stroke="rgb(90, 129, 92)" stroke-opacity="0.12903257" stroke-linecap="round" stroke-linejoin="round"/>
    <path d="M 380.3491516113281 34.497703552246094 C 349.11395263671875 60.97227478027344 346.0768737792969 66.71038055419922 329.72344970703125 81.57062530517578 C 270.9657897949219 139.07054138183594 263.46063232421875 139.00735473632812 329.7209777832031 78.33053588867188 C 339.2628479003906 64.70126342773438 333.972900390625 71.96747589111328 330.4696350097656 77.4350814819336 C 339.3799743652344 70.4791259765625 366.56036376953125 41.135414123535156 380.3491516113281 34.497703552246094" stroke-width="0.0" fill="rgb(100, 97, 103)" opacity="0.34469885" stroke="rgb(74, 145, 154)" stroke-opacity="0.42222822" stroke-linecap="round" stroke-linejoin="round"/>
    <path d="M 317.18939208984375 468.768798828125 C 311.10858154296875 478.62908935546875 300.169189453125 476.88525390625 298.23583984375 488.43585205078125 C 282.9052429199219 500.6942443847656 279.9119873046875 505.2230529785156 295.8544006347656 487.28021240234375 C 308.816162109375 482.4411315917969 309.1194152832031 476.818115234375 313.49407958984375 470.0140075683594 C 360.8516845703125 422.91851806640625 358.3489074707031 432.3214111328125 317.18939208984375 468.768798828125" stroke-width="0.0" fill="rgb(125, 124, 128)" opacity="0.41835165" stroke="rgb(187, 214, 5)" stroke-opacity="0.9268077" stroke-linecap="round" stroke-linejoin="round"/>
    <path d="M 140.89454650878906 231.71775817871094 C 111.47396850585938 264.54998779296875 110.487548828125 249.57064819335938 90.07001495361328 262.14697265625 C 63.90114974975586 289.109375 71.25370025634766 267.1312561035156 96.84584045410156 245.54473876953125 C 103.74285125732422 231.79710388183594 112.56402587890625 234.8179168701172 98.4760971069336 234.69076538085938 C 116.65142822265625 234.4988555908203 117.19161224365234 227.55059814453125 140.89454650878906 231.71775817871094" stroke-width="0.0" fill="rgb(250, 250, 251)" opacity="0.6418915" stroke="rgb(11, 115, 166)" stroke-opacity="0.78743553" stroke-linecap="round" stroke-linejoin="round"/>
    <path d="M 201.30918884277344 359.2359619140625 C 184.69091796875 373.5182189941406 181.73109436035156 383.31781005859375 144.99505615234375 408.6747741699219 C 151.5673828125 391.5084533691406 174.91976928710938 377.9815979003906 186.34523010253906 365.51812744140625 C 181.9672393798828 374.4798583984375 181.02627563476562 372.37945556640625 180.74102783203125 372.92193603515625 C 185.0303497314453 363.5261535644531 195.0193328857422 355.43206787109375 201.30918884277344 359.2359619140625" stroke-width="0.0" fill="rgb(251, 250, 250)" opacity="0.9590924" stroke="rgb(51, 226, 53)" stroke-opacity="0.69330835" stroke-linecap="round" stroke-linejoin="round"/>
    <path d="M 345.54638671875 53.455223083496094 C 326.44940185546875 73.18498229980469 322.35992431640625 73.87786865234375 298.45147705078125 98.37071228027344 C 208.5218505859375 187.42245483398438 243.4912567138672 147.28228759765625 315.3829345703125 78.79731750488281 C 322.00897216796875 72.04513549804688 323.83843994140625 71.3509521484375 342.1324157714844 53.53489685058594 C 404.8990173339844 -6.842005729675293 410.3995666503906 -7.99806022644043 345.54638671875 53.455223083496094" stroke-width="0.0" fill="rgb(102, 97, 104)" opacity="0.32090068" stroke="rgb(175, 98, 215)" stroke-opacity="0.50190973" stroke-linecap="round" stroke-linejoin="round"/>
    <path d="M 241.23648071289062 212.1110076904297 C 252.5557403564453 237.6142578125 275.0346984863281 252.45228576660156 224.25714111328125 291.4917297363281 C 205.72987365722656 224.0524139404297 189.9117889404297 192.6556854248047 218.7247772216797 209.89523315429688 C 214.6192626953125 232.5417022705078 243.28636169433594 224.00247192382812 236.2762451171875 198.8147430419922 C 179.94273376464844 200.8212432861328 208.70916748046875 217.3324737548828 241.23648071289062 212.1110076904297" stroke-width="0.0" fill="rgb(249, 250, 250)" opacity="0.8604749" stroke="rgb(92, 111, 182)" stroke-opacity="0.7346775" stroke-linecap="round" stroke-linejoin="round"/>
    <path d="M 152.41322326660156 110.5892562866211 C 144.38087463378906 112.85263061523438 137.5583038330078 112.65316009521484 146.95321655273438 114.52996826171875 C 145.73388671875 122.63377380371094 120.10322570800781 121.86813354492188 131.61647033691406 109.5623779296875 C 150.28750610351562 108.6597671508789 173.62619018554688 109.7750015258789 173.09129333496094 108.95994567871094 C 133.7545623779297 116.1729736328125 135.64671325683594 115.08030700683594 152.41322326660156 110.5892562866211" stroke-width="0.0" fill="rgb(0, 0, 0)" opacity="0.9576483" stroke="rgb(96, 193, 188)" stroke-opacity="0.57883036" stroke-linecap="round" stroke-linejoin="round"/>
    <path d="M 77.21855163574219 173.08111572265625 C 112.36551666259766 168.0251922607422 102.72523498535156 162.07423400878906 68.7454605102539 240.83349609375 C 1.7052119970321655 315.4250183105469 2.842121124267578 228.1380615234375 34.330657958984375 211.52389526367188 C 58.99605941772461 186.49073791503906 62.25704574584961 184.0533447265625 69.56291198730469 175.91915893554688 C 111.83268737792969 134.6613311767578 162.6681365966797 103.1438217163086 77.21855163574219 173.08111572265625" stroke-width="0.0" fill="rgb(196, 196, 198)" opacity="0.29016268" stroke="rgb(198, 238, 8)" stroke-opacity="0.34959382" stroke-linecap="round" stroke-linejoin="round"/>
    <path d="M 289.0198974609375 224.91014099121094 C 278.68487548828125 234.3876190185547 275.7967224121094 240.11878967285156 237.86422729492188 271.9352722167969 C 198.06739807128906 307.2336120605469 257.3194580078125 249.82948303222656 273.16888427734375 238.11007690429688 C 268.6298522949219 242.0363311767578 271.56219482421875 235.5054931640625 269.08612060546875 241.12648010253906 C 279.8114013671875 229.59414672851562 292.17626953125 220.29302978515625 289.0198974609375 224.91014099121094" stroke-width="0.0" fill="rgb(91, 86, 93)" opacity="0.31425798" stroke="rgb(68, 93, 237)" stroke-opacity="0.59648526" stroke-linecap="round" stroke-linejoin="round"/>
    <path d="M 327.1087951660156 483.3318176269531 C 426.28326416015625 390.140625 410.7925720214844 412.1589660644531 318.15863037109375 495.9877014160156 C 278.4137268066406 508.4388427734375 304.6241760253906 493.4098815917969 347.4533386230469 449.9255676269531 C 358.7419128417969 456.3981628417969 340.1155090332031 451.9129638671875 337.13934326171875 415.9920654296875 C 413.7258605957031 427.46484375 366.290771484375 417.990478515625 327.1087951660156 483.3318176269531" stroke-width="0.0" fill="rgb(142, 142, 147)" opacity="0.21407327" stroke="rgb(201, 237, 59)" stroke-opacity="0.81198114" stroke-linecap="round" stroke-linejoin="round"/>
    <path d="M 292.2048034667969 218.29481506347656 C 294.162841796875 224.42819213867188 283.6519775390625 225.48277282714844 282.5467224121094 228.8346710205078 C 270.04632568359375 230.3769989013672 279.5440673828125 229.0468292236328 281.84393310546875 229.15631103515625 C 283.5566711425781 226.5048065185547 295.008544921875 214.48814392089844 292.11700439453125 220.98175048828125 C 319.214599609375 196.8628387451172 334.37127685546875 176.8550567626953 292.2048034667969 218.29481506347656" stroke-width="0.0" fill="rgb(125, 121, 122)" opacity="0.37355775" stroke="rgb(131, 212, 109)" stroke-opacity="0.49696735" stroke-linecap="round" stroke-linejoin="round"/>
    <path d="M 129.8832550048828 351.3016357421875 C 115.96915435791016 365.2569885253906 109.89033508300781 369.378173828125 107.80587005615234 372.36669921875 C 110.28685760498047 371.7200927734375 97.12512969970703 370.6251525878906 91.29375457763672 359.03302001953125 C 105.24726104736328 369.8250427246094 95.58802032470703 369.3562927246094 117.76533508300781 353.160400390625 C 129.95819091796875 338.5213317871094 147.6671142578125 339.074462890625 129.8832550048828 351.3016357421875" stroke-width="0.0" fill="rgb(252, 253, 252)" opacity="0.9059937" stroke="rgb(171, 88, 250)" stroke-opacity="0.49088967" stroke-linecap="round" stroke-linejoin="round"/>
    <path d="M 246.2522430419922 203.8238983154297 C 240.8549346923828 208.06423950195312 238.74066162109375 202.83201599121094 234.15792846679688 214.9387664794922 C 195.0970458984375 261.3874816894531 212.79776000976562 227.81063842773438 235.50070190429688 213.14163208007812 C 233.60887145996094 218.89613342285156 246.0446014404297 201.51480102539062 241.22792053222656 205.60488891601562 C 252.1031036376953 196.22610473632812 263.42578125 187.22842407226562 246.2522430419922 203.8238983154297" stroke-width="0.0" fill="rgb(146, 145, 144)" opacity="0.44301713" stroke="rgb(247, 175, 244)" stroke-opacity="0.08997617" stroke-linecap="round" stroke-linejoin="round"/>
    <path d="M 129.77951049804688 280.25811767578125 C 112.00414276123047 289.3505554199219 113.33975982666016 265.9659118652344 90.67536926269531 293.650390625 C 65.80339050292969 324.51654052734375 76.49333953857422 292.9884948730469 96.1176986694336 279.1925354003906 C 104.97372436523438 271.9899597167969 102.8566665649414 275.4006652832031 105.84101104736328 275.0263977050781 C 92.70606231689453 275.1969909667969 148.88128662109375 260.0814514160156 129.77951049804688 280.25811767578125" stroke-width="0.0" fill="rgb(253, 253, 254)" opacity="0.8150897" stroke="rgb(92, 236, 30)" stroke-opacity="0.4332446" stroke-linecap="round" stroke-linejoin="round"/>
    <path d="M 203.59730529785156 268.4830017089844 C 213.2781524658203 302.0906066894531 213.36331176757812 291.7492370605469 192.9434051513672 297.7537841796875 C 188.05126953125 271.9606628417969 171.649658203125 269.996337890625 161.1689910888672 257.7632751464844 C 172.95428466796875 253.75779724121094 168.97286987304688 244.32150268554688 177.16554260253906 252.35543823242188 C 187.2880401611328 253.94866943359375 200.44996643066406 253.54608154296875 203.59730529785156 268.4830017089844" stroke-width="0.0" fill="rgb(249, 250, 250)" opacity="0.9533362" stroke="rgb(118, 99, 30)" stroke-opacity="0.47516862" stroke-linecap="round" stroke-linejoin="round"/>
    <path d="M 132.50314331054688 394.0284423828125 C 129.73361206054688 403.7898254394531 129.6543731689453 410.5033874511719 108.72021484375 409.839111328125 C 109.28156280517578 409.2475280761719 72.49311828613281 401.1805114746094 50.66901397705078 360.6798400878906 C 34.177001953125 318.6641540527344 51.03541564941406 337.95703125 81.63130950927734 375.3216857910156 C 99.37281036376953 390.68359375 116.58163452148438 394.4876708984375 132.50314331054688 394.0284423828125" stroke-width="0.0" fill="rgb(242, 243, 244)" opacity="1.0" stroke="rgb(110, 135, 197)" stroke-opacity="0.4958518" stroke-linecap="round" stroke-linejoin="round"/>
    <path d="M 167.158203125 170.8023681640625 C 146.80099487304688 192.88278198242188 145.24746704101562 194.14761352539062 132.99046325683594 205.9503173828125 C 100.77764892578125 238.3824005126953 123.25885772705078 212.2386932373047 137.8002471923828 198.4724884033203 C 145.8236541748047 189.3419952392578 152.32762145996094 184.29718017578125 155.98780822753906 179.45530700683594 C 147.59075927734375 188.8214111328125 171.15341186523438 162.6043701171875 167.158203125 170.8023681640625" stroke-width="0.0" fill="rgb(77, 73, 78)" opacity="0.31186855" stroke="rgb(194, 99, 186)" stroke-opacity="0.7373061" stroke-linecap="round" stroke-linejoin="round"/>
    <path d="M 48.08438491821289 393.4210205078125 C 40.63023376464844 400.1766052246094 41.7904052734375 401.1768493652344 27.243650436401367 412.85552978515625 C 9.392078399658203 437.60137939453125 17.02103042602539 419.4807434082031 34.21828842163086 403.3910217285156 C 36.96811294555664 401.2426452636719 39.125938415527344 399.241455078125 43.47346115112305 395.4613342285156 C 51.160526275634766 385.8078918457031 54.228843688964844 386.1386413574219 48.08438491821289 393.4210205078125" stroke-width="0.0" fill="rgb(114, 112, 114)" opacity="0.37823102" stroke="rgb(21, 77, 194)" stroke-opacity="0.23689294" stroke-linecap="round" stroke-linejoin="round"/>
    <path d="M 206.34002685546875 393.2566833496094 C 204.97235107421875 390.2900695800781 199.7560577392578 398.6065979003906 177.4475555419922 412.0219421386719 C 155.2763671875 425.80267333984375 100.84387969970703 431.37420654296875 105.41883087158203 408.5059814453125 C 168.05245971679688 429.0758361816406 208.2931671142578 369.4850158691406 203.07550048828125 380.369384765625 C 200.91140747070312 375.4295959472656 272.8993835449219 387.47393798828125 206.34002685546875 393.2566833496094" stroke-width="0.0" fill="rgb(0, 0, 0)" opacity="0.9935058" stroke="rgb(247, 206, 118)" stroke-opacity="0.61113435" stroke-linecap="round" stroke-linejoin="round"/>
    <path d="M 308.64398193359375 193.69573974609375 C 293.9458923339844 238.5988311767578 266.95587158203125 230.1034393310547 231.2006072998047 265.8212890625 C 222.4993438720703 239.13955688476562 237.1380615234375 230.41217041015625 205.47154235839844 227.015869140625 C 185.75009155273438 178.7469482421875 201.79495239257812 194.94729614257812 259.5408630371094 191.5218048095703 C 277.8045959472656 198.76385498046875 294.4236755371094 187.4203338623047 308.64398193359375 193.69573974609375" stroke-width="0.0" fill="rgb(147, 151, 165)" opacity="0.10848645" stroke="rgb(33, 133, 45)" stroke-opacity="0.89514995" stroke-linecap="round" stroke-linejoin="round"/>
    <path d="M 501.31414794921875 359.14630126953125 C 436.6529235839844 426.1302490234375 434.8304443359375 427.7036437988281 407.34991455078125 452.9524841308594 C 378.82733154296875 459.4544677734375 403.8379211425781 440.0290832519531 424.5603942871094 421.1367492675781 C 432.4152526855469 411.1745300292969 449.9400939941406 402.9085693359375 399.8852844238281 447.1254577636719 C 421.4800109863281 448.6655578613281 465.77325439453125 386.34686279296875 501.31414794921875 359.14630126953125" stroke-width="0.0" fill="rgb(98, 97, 98)" opacity="0.27001092" stroke="rgb(49, 16, 70)" stroke-opacity="0.19410841" stroke-linecap="round" stroke-linejoin="round"/>
    <path d="M 39.41181564331055 155.84364318847656 C 32.543601989746094 166.1402130126953 26.25554656982422 165.63690185546875 16.65751838684082 182.7535400390625 C 34.2390251159668 149.69667053222656 38.92695617675781 172.3502960205078 13.75456714630127 231.612548828125 C 13.983598709106445 172.6743927001953 13.285314559936523 131.98876953125 13.772805213928223 9.266707420349121 C 173.4415283203125 29.234689712524414 114.61217498779297 95.66047668457031 39.41181564331055 155.84364318847656" stroke-width="0.0" fill="rgb(211, 211, 214)" opacity="0.24364647" stroke="rgb(95, 128, 249)" stroke-opacity="0.4092814" stroke-linecap="round" stroke-linejoin="round"/>
    <path d="M 194.85691833496094 255.6959686279297 C 191.41380310058594 271.6989440917969 165.61227416992188 279.59515380859375 182.1370086669922 260.27264404296875 C 172.37429809570312 266.1173095703125 169.5135040283203 264.17352294921875 158.1709442138672 258.41473388671875 C 165.52642822265625 243.52456665039062 165.02108764648438 237.00360107421875 168.4940948486328 238.7706298828125 C 183.15440368652344 246.56002807617188 188.71188354492188 252.34298706054688 194.85691833496094 255.6959686279297" stroke-width="0.0" fill="rgb(248, 248, 248)" opacity="0.95740324" stroke="rgb(93, 251, 193)" stroke-opacity="0.7473245" stroke-linecap="round" stroke-linejoin="round"/>
    <path d="M 343.60235595703125 413.4573669433594 C 333.4744567871094 457.9673767089844 299.720947265625 505.40277099609375 177.52850341796875 499.718994140625 C 211.51182556152344 482.8972473144531 241.31414794921875 438.07232666015625 260.6445617675781 425.778564453125 C 264.4275817871094 420.1925354003906 268.4259948730469 417.6232604980469 272.4915466308594 412.95654296875 C 292.2875671386719 393.3783264160156 300.231689453125 381.8874206542969 343.60235595703125 413.4573669433594" stroke-width="0.0" fill="rgb(172, 174, 177)" opacity="0.234338" stroke="rgb(140, 195, 238)" stroke-opacity="0.7388841" stroke-linecap="round" stroke-linejoin="round"/>
    <path d="M 172.1853790283203 175.86834716796875 C 156.3521270751953 200.86614990234375 161.8129119873047 235.70066833496094 129.1859893798828 215.69017028808594 C 136.24769592285156 192.06906127929688 165.0139923095703 183.32191467285156 160.3614501953125 172.46336364746094 C 158.0348358154297 181.07858276367188 178.40505981445312 179.72674560546875 166.52761840820312 172.1832733154297 C 172.14340209960938 179.169921875 170.08547973632812 165.98304748535156 172.1853790283203 175.86834716796875" stroke-width="0.0" fill="rgb(231, 233, 233)" opacity="0.45406032" stroke="rgb(233, 187, 34)" stroke-opacity="0.6676835" stroke-linecap="round" stroke-linejoin="round"/>
    <path d="M 140.99862670898438 344.62255859375 C 121.2914047241211 341.2038269042969 133.4236297607422 334.9465637207031 99.50093841552734 366.2630920410156 C 85.25152587890625 359.7386474609375 90.72966766357422 364.51251220703125 114.61714172363281 340.0249938964844 C 116.26490020751953 335.6120300292969 97.13442993164062 312.3592529296875 111.63996124267578 324.305419921875 C 116.7647933959961 338.9662170410156 122.95948028564453 341.06109619140625 140.99862670898438 344.62255859375" stroke-width="0.0" fill="rgb(255, 255, 255)" opacity="0.84222484" stroke="rgb(136, 0, 96)" stroke-opacity="0.979159" stroke-linecap="round" stroke-linejoin="round"/>
    <path d="M 332.2351989746094 407.51995849609375 C 324.33050537109375 417.0577087402344 326.510009765625 419.6793212890625 292.19512939453125 416.97003173828125 C 290.68048095703125 413.5149841308594 287.3030090332031 390.56329345703125 294.9894104003906 392.4906005859375 C 304.2735900878906 378.2435302734375 278.3804626464844 381.0055847167969 299.95172119140625 372.0089111328125 C 306.4681396484375 382.3345031738281 313.67138671875 391.87493896484375 332.2351989746094 407.51995849609375" stroke-width="0.0" fill="rgb(242, 242, 242)" opacity="0.99171734" stroke="rgb(114, 231, 167)" stroke-opacity="0.7615293" stroke-linecap="round" stroke-linejoin="round"/>
  </g>
</svg>
