<?xml version="1.0" ?>
<svg xmlns="http://www.w3.org/2000/svg" version="1.1" width="128" height="128">
  <defs/>
  <g>
    <path d="M 143.48150634765625 40.8798828125 C 117.77481842041016 39.52173614501953 63.76520919799805 40.45450210571289 5.64980411529541 39.88296127319336 C 37.629608154296875 10.46994686126709 54.36427688598633 19.7455997467041 43.64793014526367 -6.2559814453125 C 46.254756927490234 -8.400958061218262 49.33908462524414 -8.872781753540039 63.94213104248047 -8.563769340515137 C 89.688232421875 -12.102030754089355 109.2166748046875 -36.55021286010742 143.48150634765625 40.8798828125" stroke-width="0.0" fill="rgb(0, 0, 0)" opacity="1.0" stroke="rgb(139, 182, 153)" stroke-opacity="0.5448832" stroke-linecap="round" stroke-linejoin="round"/>
    <path d="M 79.4969482421875 177.8444061279297 C -30.966108322143555 186.79873657226562 2.0486607551574707 92.41091918945312 11.176513671875 21.47931480407715 C 73.09689331054688 30.854036331176758 72.4139633178711 29.75416374206543 70.06376647949219 10.303915023803711 C 71.05667114257812 -16.73081398010254 79.2662582397461 -11.610786437988281 110.59293365478516 -9.091302871704102 C 159.78582763671875 -0.6463571786880493 213.53285217285156 60.036617279052734 79.4969482421875 177.8444061279297" stroke-width="0.0" fill="rgb(50, 48, 49)" opacity="0.7098463" stroke="rgb(108, 164, 111)" stroke-opacity="0.891773" stroke-linecap="round" stroke-linejoin="round"/>
    <path d="M 90.3791732788086 21.979358673095703 C 82.73255157470703 26.062091827392578 80.69733428955078 27.55077362060547 22.07452392578125 26.915170669555664 C 27.552282333374023 25.6796875 28.005271911621094 27.750093460083008 30.233448028564453 16.75670623779297 C 33.903079986572266 -8.376755714416504 35.299198150634766 -10.42368221282959 42.94404602050781 -11.426250457763672 C 73.08741760253906 -7.231125354766846 78.99128723144531 -8.741739273071289 90.3791732788086 21.979358673095703" stroke-width="0.0" fill="rgb(75, 74, 75)" opacity="0.9791461" stroke="rgb(245, 97, 201)" stroke-opacity="0.5288949" stroke-linecap="round" stroke-linejoin="round"/>
    <path d="M 64.11004638671875 20.856449127197266 C 49.98392105102539 26.36569595336914 73.8630142211914 17.38831329345703 133.23776245117188 36.28770446777344 C 32.115699768066406 36.96639633178711 4.020420551300049 22.619056701660156 -8.227533340454102 59.33081817626953 C -11.384839057922363 -25.949970245361328 -3.1963741779327393 -13.679141998291016 37.34342956542969 -8.784612655639648 C 51.38334655761719 -11.053890228271484 55.67303466796875 -12.617534637451172 64.11004638671875 20.856449127197266" stroke-width="0.0" fill="rgb(15, 16, 16)" opacity="0.9565157" stroke="rgb(144, 236, 18)" stroke-opacity="0.0871293" stroke-linecap="round" stroke-linejoin="round"/>
    <path d="M 122.97926330566406 60.765907287597656 C 116.79132843017578 44.74607849121094 66.42002868652344 47.084510803222656 72.30848693847656 54.29120635986328 C 48.26924133300781 45.43819046020508 38.12165069580078 46.97077560424805 32.53384780883789 40.19873809814453 C 20.7641544342041 39.99348068237305 21.396690368652344 40.00825881958008 123.38335418701172 40.0090446472168 C 122.85350799560547 40.022865295410156 123.03907012939453 34.65559768676758 122.97926330566406 60.765907287597656" stroke-width="0.0" fill="rgb(254, 255, 254)" opacity="0.9998159" stroke="rgb(5, 212, 198)" stroke-opacity="0.87001216" stroke-linecap="round" stroke-linejoin="round"/>
    <path d="M 140.1642303466797 95.24578857421875 C 146.1121063232422 99.05349731445312 128.0180206298828 98.31948852539062 100.40138244628906 97.44691467285156 C 118.59868621826172 95.70276641845703 92.10833740234375 98.00997924804688 94.17599487304688 94.01626586914062 C 132.61268615722656 94.05902099609375 130.82505798339844 93.76307678222656 127.0020980834961 94.574951171875 C 108.46543884277344 95.13738250732422 113.5357437133789 94.53250122070312 140.1642303466797 95.24578857421875" stroke-width="0.0" fill="rgb(254, 254, 254)" opacity="1.0" stroke="rgb(249, 203, 117)" stroke-opacity="0.7805292" stroke-linecap="round" stroke-linejoin="round"/>
    <path d="M 159.58706665039062 103.3720474243164 C 114.57611846923828 111.5821533203125 39.78440475463867 102.73307037353516 37.69828796386719 106.85391235351562 C 71.17813873291016 107.21041107177734 81.41368103027344 106.91584014892578 -8.24563980102539 107.01783752441406 C 49.886837005615234 99.8189926147461 58.11216354370117 107.2151870727539 13.531051635742188 103.21405029296875 C 33.143009185791016 104.0150375366211 76.60933685302734 100.08192443847656 159.58706665039062 103.3720474243164" stroke-width="0.0" fill="rgb(231, 235, 240)" opacity="0.6883176" stroke="rgb(30, 163, 36)" stroke-opacity="0.9446689" stroke-linecap="round" stroke-linejoin="round"/>
    <path d="M 144.15252685546875 94.18582916259766 C 187.84832763671875 100.21340942382812 148.6859130859375 98.63141632080078 15.261096954345703 99.00724792480469 C 44.97039031982422 97.20974731445312 -21.906679153442383 102.69036102294922 -15.998124122619629 94.00516510009766 C 129.74444580078125 94.00184631347656 124.3167724609375 94.0047378540039 111.31765747070312 94.00868225097656 C 98.51164245605469 94.50152587890625 102.06827545166016 93.66790008544922 144.15252685546875 94.18582916259766" stroke-width="0.0" fill="rgb(254, 255, 255)" opacity="0.99501145" stroke="rgb(133, 105, 67)" stroke-opacity="0.7742337" stroke-linecap="round" stroke-linejoin="round"/>
    <path d="M 148.78126525878906 107.00137329101562 C -19.546266555786133 106.96936798095703 6.590344429016113 107.09829711914062 19.95762825012207 106.78297424316406 C 55.55911636352539 103.62359619140625 -16.321712493896484 111.71558380126953 -20.513683319091797 102.22989654541016 C 19.874475479125977 102.42904663085938 62.65299606323242 102.13831329345703 77.20030975341797 102.40097045898438 C 32.46754837036133 105.85798645019531 55.8813591003418 98.20681762695312 148.78126525878906 107.00137329101562" stroke-width="0.0" fill="rgb(255, 255, 255)" opacity="0.9824985" stroke="rgb(116, 144, 4)" stroke-opacity="0.6176355" stroke-linecap="round" stroke-linejoin="round"/>
    <path d="M 123.25404357910156 69.53384399414062 C 116.83377838134766 76.14422607421875 155.9858856201172 73.2105484008789 -9.809914588928223 74.22655487060547 C -21.478160858154297 66.60856628417969 -23.392091751098633 68.24069213867188 65.36526489257812 67.98595428466797 C 67.27411651611328 70.74957275390625 63.7762565612793 33.137210845947266 69.45445251464844 43.527889251708984 C 79.44442749023438 79.72725677490234 50.569339752197266 63.259193420410156 123.25404357910156 69.53384399414062" stroke-width="0.0" fill="rgb(254, 255, 254)" opacity="0.99555486" stroke="rgb(156, 157, 240)" stroke-opacity="0.6818203" stroke-linecap="round" stroke-linejoin="round"/>
    <path d="M 148.6864776611328 102.58818817138672 C 118.42754364013672 113.88744354248047 65.60313415527344 94.4808120727539 42.479888916015625 106.51029205322266 C 62.55870819091797 102.99991607666016 60.258323669433594 105.29973602294922 53.063751220703125 104.03312683105469 C 64.542724609375 105.32720184326172 69.50640869140625 110.51673126220703 36.896087646484375 102.33891296386719 C 45.202842712402344 105.20057678222656 120.4059066772461 100.84768676757812 148.6864776611328 102.58818817138672" stroke-width="0.0" fill="rgb(254, 255, 255)" opacity="0.92187375" stroke="rgb(91, 111, 177)" stroke-opacity="0.06022547" stroke-linecap="round" stroke-linejoin="round"/>
    <path d="M 122.8345718383789 40.9169807434082 C 70.5335922241211 53.5555419921875 185.78530883789062 50.39125442504883 3.9617745876312256 51.08372497558594 C 8.451563835144043 52.685829162597656 -14.039440155029297 54.069705963134766 -12.28320026397705 39.907684326171875 C 29.345745086669922 40.14810562133789 47.69221115112305 39.814212799072266 58.02777099609375 40.211246490478516 C 33.667293548583984 40.93339920043945 48.313724517822266 39.4327278137207 122.8345718383789 40.9169807434082" stroke-width="0.0" fill="rgb(253, 254, 253)" opacity="1.0" stroke="rgb(170, 171, 53)" stroke-opacity="0.12892629" stroke-linecap="round" stroke-linejoin="round"/>
    <path d="M 132.37051391601562 23.157062530517578 C 112.75604248046875 14.307960510253906 129.8764190673828 18.006633758544922 111.03080749511719 16.57103157043457 C 80.6904525756836 18.744224548339844 88.74697875976562 11.848065376281738 90.22586059570312 0.5467166304588318 C 89.23355102539062 -5.548905849456787 90.45941925048828 -7.508535861968994 91.36724853515625 -6.275461196899414 C 94.69635772705078 14.818695068359375 123.97760772705078 -1.6653141975402832 132.37051391601562 23.157062530517578" stroke-width="0.0" fill="rgb(118, 118, 118)" opacity="0.9688936" stroke="rgb(80, 92, 145)" stroke-opacity="0.43860152" stroke-linecap="round" stroke-linejoin="round"/>
    <path d="M 112.67395782470703 10.270663261413574 C 100.37926483154297 13.155782699584961 89.18692779541016 17.606725692749023 88.35630798339844 18.395658493041992 C 99.52137756347656 31.274702072143555 83.94950866699219 21.437957763671875 77.85707092285156 7.7604079246521 C 81.42874908447266 4.271461009979248 84.983642578125 3.43424129486084 104.18085479736328 0.1436377316713333 C 103.46197509765625 4.269924163818359 112.0670166015625 1.2044533491134644 112.67395782470703 10.270663261413574" stroke-width="0.0" fill="rgb(255, 255, 255)" opacity="1.0" stroke="rgb(252, 26, 53)" stroke-opacity="0.16130951" stroke-linecap="round" stroke-linejoin="round"/>
    <path d="M 32.61699295043945 99.35433959960938 C 59.01388168334961 99.142822265625 30.385671615600586 98.96453857421875 -19.773685455322266 98.9824447631836 C 3.130690574645996 102.58332061767578 -12.318999290466309 101.97494506835938 19.023258209228516 101.9866943359375 C 27.51919937133789 102.01036071777344 33.750511169433594 101.98065185546875 63.96595001220703 101.98052215576172 C 18.524856567382812 97.922607421875 22.59574317932129 98.99789428710938 32.61699295043945 99.35433959960938" stroke-width="0.0" fill="rgb(4, 0, 0)" opacity="0.99331135" stroke="rgb(166, 64, 118)" stroke-opacity="0.2444256" stroke-linecap="round" stroke-linejoin="round"/>
    <path d="M 104.50081634521484 -7.901144027709961 C 108.28018951416016 6.131839752197266 113.48155212402344 16.423477172851562 110.3697738647461 1.3474146127700806 C 96.63567352294922 -4.799566268920898 93.58733367919922 -4.110480785369873 78.01380920410156 -4.91513729095459 C 78.79098510742188 -7.377110004425049 80.88057708740234 -8.864554405212402 98.58638763427734 -8.466313362121582 C 101.52635955810547 -9.252654075622559 103.91056060791016 -8.140575408935547 104.50081634521484 -7.901144027709961" stroke-width="0.0" fill="rgb(105, 105, 106)" opacity="0.94711226" stroke="rgb(40, 28, 167)" stroke-opacity="0.13818295" stroke-linecap="round" stroke-linejoin="round"/>
    <path d="M 123.58045959472656 24.000978469848633 C 99.09500122070312 23.858444213867188 91.03976440429688 24.273588180541992 85.26905822753906 23.606491088867188 C 101.97187805175781 24.844589233398438 96.3381118774414 25.66746711730957 50.60882568359375 24.23965835571289 C 99.66739654541016 21.115558624267578 88.50928497314453 24.907611846923828 93.21021270751953 20.483774185180664 C 93.92439270019531 18.47568130493164 129.50909423828125 14.358918190002441 123.58045959472656 24.000978469848633" stroke-width="0.0" fill="rgb(254, 255, 254)" opacity="0.997351" stroke="rgb(50, 94, 209)" stroke-opacity="0.09710128" stroke-linecap="round" stroke-linejoin="round"/>
    <path d="M 117.05492401123047 8.390146255493164 C 115.41584777832031 13.724085807800293 106.88291931152344 14.282702445983887 82.82048034667969 21.472970962524414 C 70.33330535888672 22.873647689819336 54.76105880737305 19.68812370300293 -21.7034969329834 22.211824417114258 C -10.015697479248047 -86.58761596679688 17.02654457092285 -51.95083999633789 105.75897979736328 -21.19140625 C 117.53861999511719 -14.411218643188477 121.65847778320312 -15.455979347229004 117.05492401123047 8.390146255493164" stroke-width="0.0" fill="rgb(113, 112, 112)" opacity="1.0" stroke="rgb(213, 24, 248)" stroke-opacity="0.4686512" stroke-linecap="round" stroke-linejoin="round"/>
    <path d="M -4.444634437561035 19.825481414794922 C 81.07154083251953 20.57193374633789 62.2010498046875 18.068944931030273 -12.64704704284668 24.615501403808594 C 50.927433013916016 25.29497718811035 42.96211242675781 23.7138729095459 31.67870330810547 25.682336807250977 C 38.99913787841797 24.347997665405273 53.53562927246094 27.9733829498291 90.54508209228516 20.145292282104492 C 5.979365825653076 18.109743118286133 27.424259185791016 28.171676635742188 -4.444634437561035 19.825481414794922" stroke-width="0.0" fill="rgb(255, 255, 255)" opacity="0.8505578" stroke="rgb(249, 154, 188)" stroke-opacity="0.039187793" stroke-linecap="round" stroke-linejoin="round"/>
    <path d="M 67.7042465209961 12.902539253234863 C 74.28273010253906 19.750282287597656 94.25155639648438 20.52068519592285 68.61068725585938 16.518333435058594 C 54.830318450927734 19.488224029541016 50.8392219543457 21.545948028564453 49.89888381958008 -0.6896430850028992 C 65.6295166015625 -9.413989067077637 69.92271423339844 -8.641209602355957 75.47931671142578 -7.804568767547607 C 93.54712677001953 -5.984157562255859 94.3086166381836 -3.3679258823394775 67.7042465209961 12.902539253234863" stroke-width="0.0" fill="rgb(110, 109, 109)" opacity="0.8936518" stroke="rgb(72, 30, 75)" stroke-opacity="0.11872772" stroke-linecap="round" stroke-linejoin="round"/>
    <path d="M 137.17315673828125 18.580432891845703 C 136.73391723632812 25.831253051757812 133.44317626953125 27.34172821044922 130.0939483642578 13.846551895141602 C 103.61825561523438 12.750009536743164 112.76937103271484 16.192262649536133 116.1744155883789 9.890569686889648 C 91.90789794921875 10.54894733428955 104.4722671508789 -4.760200500488281 95.76121520996094 -4.961685657501221 C 103.25035095214844 22.013574600219727 122.33399963378906 -0.1696382611989975 137.17315673828125 18.580432891845703" stroke-width="0.0" fill="rgb(250, 251, 251)" opacity="0.9968302" stroke="rgb(81, 105, 16)" stroke-opacity="0.6924721" stroke-linecap="round" stroke-linejoin="round"/>
    <path d="M 32.98902130126953 102.00100708007812 C 30.8853759765625 99.70835876464844 26.01018524169922 104.39607238769531 -15.53268814086914 99.1391372680664 C 54.74177551269531 99.28104400634766 73.96591186523438 99.09867858886719 66.57054138183594 99.83755493164062 C 36.22711181640625 101.4085922241211 42.252166748046875 98.95626831054688 63.089210510253906 101.77710723876953 C 27.049375534057617 101.98611450195312 29.741104125976562 101.4625244140625 32.98902130126953 102.00100708007812" stroke-width="0.0" fill="rgb(0, 0, 0)" opacity="0.88261676" stroke="rgb(144, 67, 133)" stroke-opacity="0.09394051" stroke-linecap="round" stroke-linejoin="round"/>
    <path d="M 109.87983703613281 46.89878845214844 C 110.05274963378906 56.0716552734375 110.07673645019531 74.70023345947266 109.69202423095703 72.07786560058594 C 94.88944244384766 78.66802215576172 107.1731185913086 61.99047088623047 104.6603012084961 66.95439910888672 C 106.96533966064453 35.97844696044922 96.81885528564453 63.60755920410156 109.60749053955078 43.24517822265625 C 110.20833587646484 50.318397521972656 110.02374267578125 62.019832611083984 109.87983703613281 46.89878845214844" stroke-width="0.0" fill="rgb(255, 255, 254)" opacity="1.0" stroke="rgb(146, 236, 81)" stroke-opacity="0.6674104" stroke-linecap="round" stroke-linejoin="round"/>
    <path d="M 76.2365951538086 99.35321807861328 C 62.59680938720703 98.55574035644531 65.59137725830078 99.21460723876953 166.73690795898438 98.9009017944336 C 134.88563537597656 104.54560089111328 70.9117431640625 100.4138412475586 70.61021423339844 102.73421478271484 C 81.27861022949219 98.13340759277344 81.73989868164062 99.0008544921875 25.7343692779541 99.05767059326172 C 69.9713363647461 102.9554672241211 74.6903076171875 103.0169906616211 76.2365951538086 99.35321807861328" stroke-width="0.0" fill="rgb(1, 0, 0)" opacity="1.0" stroke="rgb(33, 182, 73)" stroke-opacity="0.18319136" stroke-linecap="round" stroke-linejoin="round"/>
    <path d="M 130.8723602294922 75.91850280761719 C 124.03782653808594 76.64717102050781 122.03770446777344 72.8613510131836 124.87816619873047 12.186983108520508 C 109.8791275024414 1.0685802698135376 117.29995727539062 26.027145385742188 122.1001968383789 -14.301774978637695 C 105.97322082519531 -8.016636848449707 108.3444595336914 -9.080967903137207 117.43881225585938 -10.665830612182617 C 138.85720825195312 -11.39484977722168 135.9989776611328 -13.838994979858398 130.8723602294922 75.91850280761719" stroke-width="0.0" fill="rgb(169, 168, 170)" opacity="0.65625495" stroke="rgb(149, 5, 211)" stroke-opacity="0.004695476" stroke-linecap="round" stroke-linejoin="round"/>
    <path d="M 63.82072067260742 28.914552688598633 C 60.0423469543457 31.591703414916992 72.48072052001953 30.087310791015625 65.89433288574219 32.10575485229492 C 72.93334197998047 29.220966339111328 67.33998107910156 33.97041702270508 4.904887676239014 27.377639770507812 C 158.86997985839844 27.440399169921875 152.68910217285156 27.114137649536133 130.2674102783203 33.47243881225586 C 109.51722717285156 27.99060821533203 56.42697525024414 33.984283447265625 63.82072067260742 28.914552688598633" stroke-width="0.0" fill="rgb(253, 254, 252)" opacity="0.9929572" stroke="rgb(172, 68, 187)" stroke-opacity="0.96218854" stroke-linecap="round" stroke-linejoin="round"/>
    <path d="M 95.98731994628906 26.777536392211914 C -0.8253934979438782 25.258005142211914 8.12719440460205 24.54082489013672 116.81475067138672 24.646677017211914 C 36.042720794677734 21.751449584960938 -38.39625549316406 24.188650131225586 50.86808395385742 23.491207122802734 C 45.425228118896484 23.777442932128906 1.8008829355239868 24.92145538330078 -20.949769973754883 20.902273178100586 C 136.68031311035156 21.581493377685547 68.82152557373047 18.952486038208008 95.98731994628906 26.777536392211914" stroke-width="0.0" fill="rgb(16, 14, 17)" opacity="0.9896772" stroke="rgb(63, 146, 150)" stroke-opacity="0.5722519" stroke-linecap="round" stroke-linejoin="round"/>
    <path d="M -3.5109803676605225 33.96645736694336 C -33.095916748046875 36.33195877075195 -3.7502822875976562 34.00263214111328 176.88333129882812 35.780189514160156 C 162.60394287109375 31.990406036376953 95.99919891357422 33.25853729248047 4.453352451324463 32.982112884521484 C -17.31081771850586 33.91216278076172 -37.95492172241211 21.62567901611328 62.619232177734375 30.97749900817871 C -9.800437927246094 31.567264556884766 -22.704967498779297 29.445228576660156 -3.5109803676605225 33.96645736694336" stroke-width="0.0" fill="rgb(252, 252, 252)" opacity="0.997979" stroke="rgb(56, 242, 114)" stroke-opacity="0.84640867" stroke-linecap="round" stroke-linejoin="round"/>
    <path d="M 46.7618522644043 80.85513305664062 C 28.524852752685547 77.89730072021484 31.99529266357422 73.45941162109375 61.802528381347656 76.68461608886719 C 47.45930862426758 82.4103012084961 27.421545028686523 81.64248657226562 9.391669273376465 79.99970245361328 C 39.51080322265625 78.13292694091797 46.43547821044922 80.34336853027344 29.808963775634766 79.71247863769531 C 33.34796905517578 81.30763244628906 37.06865310668945 76.44721221923828 46.7618522644043 80.85513305664062" stroke-width="0.0" fill="rgb(34, 32, 33)" opacity="0.9430624" stroke="rgb(178, 75, 207)" stroke-opacity="0.39650574" stroke-linecap="round" stroke-linejoin="round"/>
    <path d="M 120.88617706298828 77.13927459716797 C 120.94282531738281 63.03793716430664 121.34656524658203 68.74332427978516 120.8371353149414 70.89717102050781 C 119.3419189453125 68.41018676757812 122.31285095214844 59.40263366699219 117.94945526123047 46.186946868896484 C 120.03868865966797 59.2193489074707 118.39726257324219 55.04473876953125 122.85150146484375 51.22898483276367 C 123.32138061523438 63.53445053100586 124.0568618774414 85.70745849609375 120.88617706298828 77.13927459716797" stroke-width="0.0" fill="rgb(255, 255, 255)" opacity="1.0" stroke="rgb(224, 148, 224)" stroke-opacity="0.6925316" stroke-linecap="round" stroke-linejoin="round"/>
    <path d="M 26.864261627197266 81.24040985107422 C -6.636303901672363 82.69124603271484 -9.78742790222168 78.84888458251953 0.0928361639380455 89.57455444335938 C 3.7301242351531982 71.07487487792969 -0.5844876766204834 87.80603790283203 -16.031612396240234 80.71952056884766 C 8.215763092041016 77.77478790283203 15.87276554107666 77.59661102294922 20.465364456176758 79.31356048583984 C 6.48811674118042 76.10079956054688 11.835259437561035 72.50830841064453 26.864261627197266 81.24040985107422" stroke-width="0.0" fill="rgb(45, 51, 56)" opacity="0.64610344" stroke="rgb(184, 127, 243)" stroke-opacity="0.6439902" stroke-linecap="round" stroke-linejoin="round"/>
    <path d="M 48.347923278808594 77.88375854492188 C 70.55955505371094 83.7237777709961 45.30120086669922 76.005615234375 71.03450775146484 82.20227813720703 C 13.857806205749512 81.44925689697266 -4.856219291687012 83.38749694824219 44.3898811340332 77.68616485595703 C 46.45841979980469 75.86578369140625 46.4202766418457 75.40858459472656 41.24850845336914 78.2180404663086 C 47.4306526184082 81.18299102783203 48.32815170288086 80.84465789794922 48.347923278808594 77.88375854492188" stroke-width="0.0" fill="rgb(26, 23, 25)" opacity="0.95968175" stroke="rgb(108, 154, 4)" stroke-opacity="0.30157483" stroke-linecap="round" stroke-linejoin="round"/>
    <path d="M 71.97848510742188 82.06989288330078 C 41.08222198486328 78.95439910888672 34.85622024536133 81.29238891601562 103.57308197021484 74.36416625976562 C 90.6466064453125 73.81241607666016 29.164276123046875 74.03279113769531 -25.346298217773438 73.991943359375 C 41.493377685546875 90.65824890136719 54.660797119140625 69.41300964355469 45.46237564086914 80.16673278808594 C 45.660308837890625 80.6156005859375 54.28483963012695 74.98326110839844 71.97848510742188 82.06989288330078" stroke-width="0.0" fill="rgb(42, 46, 43)" opacity="1.0" stroke="rgb(168, 73, 157)" stroke-opacity="0.4287687" stroke-linecap="round" stroke-linejoin="round"/>
    <path d="M 55.79288101196289 79.88615417480469 C 43.011016845703125 75.74803161621094 40.15761184692383 72.4406967163086 28.45152473449707 81.1219711303711 C 35.68252182006836 81.74305725097656 34.836429595947266 73.97643280029297 49.70759582519531 81.01463317871094 C 52.57855987548828 80.76333618164062 55.3258171081543 81.3772201538086 49.03178024291992 79.30443572998047 C 42.76755142211914 81.17124938964844 44.83993911743164 81.89720153808594 55.79288101196289 79.88615417480469" stroke-width="0.0" fill="rgb(41, 39, 41)" opacity="0.8111225" stroke="rgb(34, 76, 145)" stroke-opacity="0.59087276" stroke-linecap="round" stroke-linejoin="round"/>
    <path d="M 116.42310333251953 79.75585174560547 C 96.92274475097656 74.8892593383789 73.98863983154297 80.59681701660156 45.159080505371094 80.44062805175781 C 86.83218383789062 82.374267578125 83.9149398803711 80.57453155517578 77.53433227539062 84.21770477294922 C 76.2701644897461 82.3612289428711 73.59400177001953 78.00267028808594 78.32254028320312 85.17713928222656 C 78.90618133544922 84.32266998291016 77.35346984863281 79.59552001953125 116.42310333251953 79.75585174560547" stroke-width="0.0" fill="rgb(10, 7, 9)" opacity="0.9423295" stroke="rgb(146, 166, 166)" stroke-opacity="0.43141845" stroke-linecap="round" stroke-linejoin="round"/>
    <path d="M 85.74158477783203 89.11775207519531 C 100.25668334960938 89.80814361572266 73.11480712890625 91.17113494873047 76.19923400878906 88.82910919189453 C 82.94718933105469 86.5962905883789 66.51856994628906 86.0084457397461 68.39969635009766 89.66796112060547 C 65.7083740234375 78.27191925048828 69.9459457397461 82.52003479003906 72.79692840576172 81.81753540039062 C 87.44608306884766 82.2906723022461 78.9913101196289 78.85067749023438 85.74158477783203 89.11775207519531" stroke-width="0.0" fill="rgb(201, 204, 203)" opacity="0.9179607" stroke="rgb(228, 93, 111)" stroke-opacity="0.89192337" stroke-linecap="round" stroke-linejoin="round"/>
    <path d="M 116.30323791503906 81.96463775634766 C 153.97116088867188 82.00257110595703 136.65379333496094 79.59510803222656 125.09657287597656 80.01168060302734 C 105.15533447265625 87.340087890625 102.2317886352539 71.81818389892578 108.10272216796875 77.83328247070312 C 128.58462524414062 76.73727416992188 126.67618560791016 71.0340805053711 132.8465576171875 72.6959228515625 C 115.60696411132812 73.3254165649414 134.82521057128906 80.39568328857422 116.30323791503906 81.96463775634766" stroke-width="0.0" fill="rgb(26, 24, 25)" opacity="1.0" stroke="rgb(205, 179, 25)" stroke-opacity="0.9194826" stroke-linecap="round" stroke-linejoin="round"/>
    <path d="M 120.22462463378906 43.45142364501953 C 124.33922576904297 52.82716369628906 113.47657775878906 51.20146179199219 131.09039306640625 52.75918197631836 C 121.10813903808594 54.9465217590332 128.4029998779297 51.295780181884766 122.12863159179688 51.921363830566406 C 125.00093841552734 52.26642990112305 129.15194702148438 51.81451416015625 110.08033752441406 52.053096771240234 C 114.72465515136719 75.81494903564453 121.646484375 76.29573822021484 120.22462463378906 43.45142364501953" stroke-width="0.0" fill="rgb(83, 82, 83)" opacity="1.0" stroke="rgb(182, 254, 38)" stroke-opacity="0.86812603" stroke-linecap="round" stroke-linejoin="round"/>
    <path d="M 3.149094581604004 67.50176239013672 C 7.626887321472168 44.571311950683594 -15.110029220581055 52.63028335571289 67.31780242919922 50.849212646484375 C 46.38957977294922 56.92924880981445 4.423457622528076 42.92340850830078 12.10177230834961 68.38389587402344 C 13.386913299560547 57.98875427246094 7.9204277992248535 56.73029708862305 26.687753677368164 52.14364242553711 C -4.859916687011719 53.45914840698242 12.600116729736328 47.305931091308594 3.149094581604004 67.50176239013672" stroke-width="0.0" fill="rgb(0, 0, 0)" opacity="0.64969456" stroke="rgb(41, 156, 31)" stroke-opacity="0.8480082" stroke-linecap="round" stroke-linejoin="round"/>
    <path d="M 81.25341796875 79.50613403320312 C 108.03380584716797 76.3382797241211 92.89247131347656 83.0793685913086 88.10226440429688 81.71480560302734 C 75.7729721069336 82.0064697265625 57.8555908203125 82.90989685058594 32.890506744384766 77.76747131347656 C -17.506038665771484 73.04373931884766 22.03390884399414 74.52018737792969 122.72648620605469 73.96798706054688 C 83.76920318603516 80.70721435546875 76.81524658203125 70.5730209350586 81.25341796875 79.50613403320312" stroke-width="0.0" fill="rgb(35, 36, 36)" opacity="0.7052977" stroke="rgb(205, 145, 103)" stroke-opacity="0.069166996" stroke-linecap="round" stroke-linejoin="round"/>
    <path d="M 106.86236572265625 87.97307586669922 C 156.44247436523438 88.72267150878906 166.2014923095703 89.5396499633789 136.88388061523438 94.12953186035156 C 24.39066505432129 93.5007095336914 -3.9643516540527344 96.17133331298828 86.88787841796875 87.67613220214844 C 106.12662506103516 90.27801513671875 92.9378662109375 84.32839965820312 94.86544799804688 87.60118865966797 C 78.17154693603516 83.1662826538086 129.22952270507812 82.48575592041016 106.86236572265625 87.97307586669922" stroke-width="0.0" fill="rgb(0, 0, 0)" opacity="0.7510254" stroke="rgb(177, 115, 184)" stroke-opacity="0.8663823" stroke-linecap="round" stroke-linejoin="round"/>
    <path d="M -12.805936813354492 126.65491485595703 C 119.13582611083984 127.79082489013672 124.76277923583984 124.5640640258789 13.002354621887207 125.03907775878906 C 15.412116050720215 112.48163604736328 14.320261001586914 119.23969268798828 -7.686118125915527 117.36551666259766 C 16.37750816345215 116.43234252929688 16.39527702331543 117.8753433227539 13.971659660339355 117.03128814697266 C 12.288285255432129 130.39820861816406 20.532363891601562 121.8716049194336 -12.805936813354492 126.65491485595703" stroke-width="0.0" fill="rgb(51, 49, 51)" opacity="1.0" stroke="rgb(248, 218, 2)" stroke-opacity="0.35997805" stroke-linecap="round" stroke-linejoin="round"/>
    <path d="M 81.87682342529297 92.54082489013672 C 77.65450286865234 80.33049011230469 80.55321502685547 92.06439971923828 3.4666762351989746 89.62576293945312 C 100.51773834228516 89.53687286376953 97.49012756347656 88.64335632324219 48.935386657714844 89.6951904296875 C 84.19207763671875 86.20357513427734 51.582313537597656 90.12936401367188 -52.03544998168945 86.7840805053711 C -12.135631561279297 94.23170471191406 -7.068207740783691 89.62017822265625 81.87682342529297 92.54082489013672" stroke-width="0.0" fill="rgb(39, 36, 38)" opacity="0.96991277" stroke="rgb(186, 43, 132)" stroke-opacity="0.05433799" stroke-linecap="round" stroke-linejoin="round"/>
    <path d="M 114.88147735595703 51.34250259399414 C 121.11339569091797 83.93601989746094 115.17341613769531 50.74809265136719 114.64190673828125 51.8424072265625 C 114.02332305908203 50.55010986328125 113.33814239501953 65.22373962402344 114.84874725341797 55.73414993286133 C 110.5690689086914 79.81204223632812 118.82120513916016 64.83484649658203 121.6348648071289 61.681175231933594 C 112.20466613769531 74.90036010742188 116.25984954833984 69.58767700195312 114.88147735595703 51.34250259399414" stroke-width="0.0" fill="rgb(0, 0, 0)" opacity="0.7941987" stroke="rgb(50, 4, 202)" stroke-opacity="0.22392468" stroke-linecap="round" stroke-linejoin="round"/>
    <path d="M 123.167724609375 35.57442092895508 C 122.8282241821289 37.63220977783203 123.16461944580078 76.06195831298828 122.95348358154297 79.93656921386719 C 119.63954162597656 57.196693420410156 119.39681243896484 60.739837646484375 123.4422607421875 80.7384262084961 C 126.36842346191406 48.52804946899414 119.10758972167969 50.319889068603516 133.3753204345703 50.80961608886719 C 118.00823211669922 48.2656364440918 127.9876480102539 63.78066635131836 123.167724609375 35.57442092895508" stroke-width="0.0" fill="rgb(2, 0, 1)" opacity="0.9479801" stroke="rgb(88, 236, 179)" stroke-opacity="0.03183893" stroke-linecap="round" stroke-linejoin="round"/>
    <path d="M 79.80651092529297 76.89797973632812 C 63.172088623046875 80.2308349609375 53.14621353149414 78.87466430664062 40.30576705932617 80.54866790771484 C 59.56195831298828 78.1651840209961 50.0743293762207 79.87866973876953 21.502079010009766 78.25923156738281 C 51.54853439331055 71.87800598144531 66.9113540649414 78.68932342529297 68.32723999023438 75.0782699584961 C 65.5182876586914 79.09197998046875 68.8741683959961 74.02535247802734 79.80651092529297 76.89797973632812" stroke-width="0.0" fill="rgb(255, 253, 252)" opacity="0.99962944" stroke="rgb(41, 158, 147)" stroke-opacity="0.23789282" stroke-linecap="round" stroke-linejoin="round"/>
    <path d="M 105.63278198242188 68.50493621826172 C 110.06171417236328 65.90623474121094 108.04955291748047 69.549560546875 107.82415771484375 57.83707046508789 C 109.13243103027344 55.19829559326172 107.68818664550781 52.74884033203125 109.0075454711914 68.3641586303711 C 108.59373474121094 68.64201354980469 109.75090026855469 65.80841064453125 106.08772277832031 67.98558044433594 C 107.50962829589844 72.70943450927734 104.7659912109375 64.84551239013672 105.63278198242188 68.50493621826172" stroke-width="0.0" fill="rgb(252, 252, 250)" opacity="0.90458715" stroke="rgb(238, 156, 136)" stroke-opacity="0.58991" stroke-linecap="round" stroke-linejoin="round"/>
    <path d="M 106.62925720214844 117.92994689941406 C 74.47230529785156 116.9376220703125 79.55445861816406 116.65411376953125 80.74920654296875 117.31482696533203 C 78.7149887084961 117.05148315429688 70.03180694580078 116.82469940185547 151.8948211669922 117.1766357421875 C 97.2750473022461 119.68101501464844 88.1876220703125 115.70419311523438 50.351097106933594 117.45204162597656 C 36.65853500366211 117.99559783935547 52.0780143737793 118.01276397705078 106.62925720214844 117.92994689941406" stroke-width="0.0" fill="rgb(32, 30, 33)" opacity="1.0" stroke="rgb(186, 79, 101)" stroke-opacity="0.20984375" stroke-linecap="round" stroke-linejoin="round"/>
    <path d="M 68.52445983886719 88.94969177246094 C 73.49447631835938 83.03504180908203 74.35726165771484 92.29801177978516 125.42560577392578 88.2968978881836 C 91.60929107666016 87.45720672607422 86.76600646972656 88.305908203125 85.46588134765625 88.52850341796875 C 76.20687866210938 86.50465393066406 84.03093719482422 89.43981170654297 83.17375946044922 80.66717529296875 C 102.76036071777344 72.61466217041016 102.62166595458984 92.9421615600586 68.52445983886719 88.94969177246094" stroke-width="0.0" fill="rgb(0, 0, 0)" opacity="0.5007094" stroke="rgb(47, 240, 188)" stroke-opacity="0.49045882" stroke-linecap="round" stroke-linejoin="round"/>
    <path d="M 121.15663146972656 43.24089813232422 C 118.02325439453125 59.14714431762695 121.8723373413086 109.90728759765625 121.02297973632812 47.67851257324219 C 104.367919921875 50.45042419433594 114.56777954101562 36.44977951049805 110.01748657226562 87.7054214477539 C 110.0054931640625 37.00102233886719 109.74622344970703 45.053585052490234 110.89469146728516 46.11324691772461 C 108.96669006347656 41.753360748291016 121.88472747802734 44.81938171386719 121.15663146972656 43.24089813232422" stroke-width="0.0" fill="rgb(0, 0, 0)" opacity="0.73228353" stroke="rgb(57, 64, 14)" stroke-opacity="0.43441662" stroke-linecap="round" stroke-linejoin="round"/>
    <path d="M 158.1838836669922 18.960002899169922 C 136.1720428466797 39.62397766113281 135.50680541992188 43.29866409301758 125.54618072509766 47.00565719604492 C 123.41231536865234 41.79503631591797 123.75142669677734 14.881407737731934 124.57027435302734 13.31690788269043 C 129.539794921875 28.27471923828125 126.86793518066406 21.057613372802734 124.20870971679688 11.663086891174316 C 101.39407348632812 2.181196928024292 110.8866195678711 -24.795631408691406 158.1838836669922 18.960002899169922" stroke-width="0.0" fill="rgb(113, 113, 113)" opacity="0.97786486" stroke="rgb(79, 177, 96)" stroke-opacity="0.17960368" stroke-linecap="round" stroke-linejoin="round"/>
    <path d="M 122.64070892333984 75.15167236328125 C 127.81827545166016 79.81742095947266 117.05353546142578 77.26353454589844 121.91939544677734 78.0324478149414 C 71.37615203857422 77.93587493896484 44.94224548339844 78.61136627197266 38.543277740478516 75.22806549072266 C 75.15196990966797 74.94410705566406 92.66038513183594 75.03704071044922 107.7832260131836 75.34265899658203 C 84.2523193359375 75.23124694824219 77.5566177368164 74.69051361083984 122.64070892333984 75.15167236328125" stroke-width="0.0" fill="rgb(255, 255, 255)" opacity="0.9657263" stroke="rgb(6, 17, 173)" stroke-opacity="0.45369685" stroke-linecap="round" stroke-linejoin="round"/>
    <path d="M -16.433061599731445 117.40193176269531 C 8.246177673339844 116.4489517211914 20.139141082763672 117.54034423828125 5.742433547973633 116.99283599853516 C 21.29585838317871 117.10115051269531 39.1350212097168 116.94658660888672 85.60272979736328 117.2159194946289 C 95.29255676269531 118.3543930053711 51.41453552246094 117.85578155517578 4.798804759979248 118.02204132080078 C 13.443951606750488 117.55996704101562 9.309600830078125 118.73665618896484 -16.433061599731445 117.40193176269531" stroke-width="0.0" fill="rgb(30, 29, 32)" opacity="0.9625534" stroke="rgb(136, 228, 252)" stroke-opacity="0.21689698" stroke-linecap="round" stroke-linejoin="round"/>
    <path d="M 30.06467056274414 79.52017974853516 C 28.256290435791016 84.61028289794922 13.460883140563965 77.69344329833984 6.597103118896484 79.03146362304688 C 29.220905303955078 78.13533782958984 31.615575790405273 78.82115936279297 30.347332000732422 78.99504852294922 C 23.394325256347656 80.01998138427734 25.750118255615234 81.50813293457031 33.5778694152832 80.57867431640625 C 11.76738452911377 80.84323120117188 11.455145835876465 75.55349731445312 30.06467056274414 79.52017974853516" stroke-width="0.0" fill="rgb(38, 39, 38)" opacity="0.8783269" stroke="rgb(169, 67, 5)" stroke-opacity="0.7583786" stroke-linecap="round" stroke-linejoin="round"/>
    <path d="M 34.28267288208008 80.9708251953125 C 29.993440628051758 76.89524841308594 26.57274055480957 78.39325714111328 28.305065155029297 81.43775939941406 C 35.59926223754883 74.21602630615234 15.116199493408203 84.30736541748047 -13.782191276550293 75.05301666259766 C 52.05002212524414 75.22443389892578 62.430660247802734 75.03656005859375 47.183021545410156 75.69035339355469 C 22.246496200561523 80.58990478515625 29.536596298217773 77.84202575683594 34.28267288208008 80.9708251953125" stroke-width="0.0" fill="rgb(249, 250, 250)" opacity="0.99790317" stroke="rgb(81, 97, 150)" stroke-opacity="0.8310484" stroke-linecap="round" stroke-linejoin="round"/>
    <path d="M 121.49320220947266 110.63377380371094 C 87.44314575195312 110.07715606689453 103.1786880493164 108.01393127441406 -38.38300704956055 109.53373718261719 C 163.30064392089844 113.69416809082031 124.95189666748047 104.04076385498047 125.20785522460938 108.30223846435547 C 69.77191162109375 112.6357650756836 137.37533569335938 109.73309326171875 61.97456741333008 109.02790832519531 C 125.61305236816406 109.00431060791016 155.94918823242188 108.74333953857422 121.49320220947266 110.63377380371094" stroke-width="0.0" fill="rgb(29, 28, 30)" opacity="0.9822946" stroke="rgb(160, 222, 69)" stroke-opacity="0.7980468" stroke-linecap="round" stroke-linejoin="round"/>
    <path d="M 3.5607850551605225 105.11714935302734 C 6.5230278968811035 101.91136169433594 5.443962574005127 105.09889221191406 -3.0022382736206055 106.47035217285156 C 5.248746871948242 105.19346618652344 6.623619556427002 101.84304809570312 3.5638973712921143 105.1186294555664 C 6.255343914031982 105.34477996826172 7.777533054351807 105.52032470703125 4.192841053009033 105.16280364990234 C 0.9171769022941589 104.87024688720703 1.0945745706558228 104.90364837646484 3.5607850551605225 105.11714935302734" stroke-width="0.0" fill="rgb(213, 213, 215)" opacity="0.83960605" stroke="rgb(47, 242, 175)" stroke-opacity="0.21550767" stroke-linecap="round" stroke-linejoin="round"/>
    <path d="M 93.41161346435547 78.01266479492188 C 1.0510064363479614 85.119873046875 -42.68344497680664 80.94932556152344 4.251439571380615 79.3938980102539 C 26.50702476501465 79.86502838134766 7.567972660064697 78.94686126708984 -18.07863998413086 80.39288330078125 C -0.32621654868125916 79.38084411621094 8.554997444152832 84.63530731201172 -11.707560539245605 77.68907928466797 C -32.95319366455078 78.18460083007812 30.49477195739746 77.90872192382812 93.41161346435547 78.01266479492188" stroke-width="0.0" fill="rgb(27, 25, 26)" opacity="1.0" stroke="rgb(241, 186, 64)" stroke-opacity="0.21331197" stroke-linecap="round" stroke-linejoin="round"/>
    <path d="M 107.76432800292969 79.19507598876953 C 106.88377380371094 79.64545440673828 110.24108123779297 79.36524963378906 110.3450698852539 78.74710845947266 C 108.24382019042969 79.10125732421875 106.75006103515625 80.51868438720703 87.37857818603516 79.44562530517578 C 107.53888702392578 77.47891998291016 107.22616577148438 81.74490356445312 108.6460952758789 78.97351837158203 C 104.56768035888672 79.25385284423828 102.7879867553711 78.80272674560547 107.76432800292969 79.19507598876953" stroke-width="0.0" fill="rgb(28, 27, 28)" opacity="0.80663425" stroke="rgb(132, 6, 52)" stroke-opacity="0.42468548" stroke-linecap="round" stroke-linejoin="round"/>
    <path d="M 136.25994873046875 50.19008255004883 C 119.61123657226562 41.9099006652832 127.0796890258789 49.3018798828125 124.31346893310547 52.06424331665039 C 122.1489486694336 51.8051643371582 122.39293670654297 48.587669372558594 122.51402282714844 77.8399429321289 C 119.56324768066406 78.60518646240234 121.42790222167969 46.088111877441406 120.95081329345703 39.89021682739258 C 124.64327239990234 54.05679702758789 116.83834075927734 53.49461364746094 136.25994873046875 50.19008255004883" stroke-width="0.0" fill="rgb(255, 255, 255)" opacity="0.87523246" stroke="rgb(95, 118, 70)" stroke-opacity="0.58678436" stroke-linecap="round" stroke-linejoin="round"/>
    <path d="M 70.33259582519531 122.28257751464844 C 59.0537223815918 122.9493637084961 52.96827697753906 122.49855041503906 69.98889923095703 122.19558715820312 C 73.36778259277344 127.3860855102539 66.85719299316406 127.06668853759766 68.44762420654297 122.71764373779297 C 70.34109497070312 122.53132629394531 80.57431030273438 121.8406753540039 70.4049301147461 122.33126068115234 C 69.54498291015625 125.96444702148438 71.70037841796875 128.54795837402344 70.33259582519531 122.28257751464844" stroke-width="0.0" fill="rgb(53, 52, 53)" opacity="0.9316716" stroke="rgb(220, 29, 131)" stroke-opacity="0.13206811" stroke-linecap="round" stroke-linejoin="round"/>
    <path d="M -4.574792385101318 122.44713592529297 C -1.9734394550323486 124.81671142578125 1.5094213485717773 118.92848205566406 2.3030929565429688 125.95238494873047 C 2.878347396850586 120.42884063720703 17.617107391357422 120.88090515136719 10.095890998840332 126.77336883544922 C 19.248397827148438 123.25164794921875 11.879598617553711 121.20728302001953 -0.6680378913879395 123.4176254272461 C -4.273473739624023 124.32489776611328 3.6681151390075684 122.14336395263672 -4.574792385101318 122.44713592529297" stroke-width="0.0" fill="rgb(49, 47, 49)" opacity="0.9218021" stroke="rgb(182, 100, 144)" stroke-opacity="0.18327984" stroke-linecap="round" stroke-linejoin="round"/>
    <path d="M 86.91856384277344 121.7815933227539 C 85.87162780761719 127.86551666259766 81.76215362548828 127.2528305053711 115.54004669189453 125.35517120361328 C 96.161376953125 125.69554138183594 89.99036407470703 124.47885131835938 77.07306671142578 125.45879364013672 C 76.67928314208984 117.70989990234375 80.97697448730469 125.42804718017578 77.94048309326172 125.62287139892578 C 88.9342269897461 128.37579345703125 91.15978240966797 123.65960693359375 86.91856384277344 121.7815933227539" stroke-width="0.0" fill="rgb(49, 49, 49)" opacity="0.7961813" stroke="rgb(36, 124, 90)" stroke-opacity="0.94043195" stroke-linecap="round" stroke-linejoin="round"/>
    <path d="M 35.85056686401367 122.76273345947266 C 27.338821411132812 123.25202941894531 30.72100067138672 122.44634246826172 29.28278923034668 122.86438751220703 C 26.556278228759766 122.33988952636719 26.511638641357422 122.37506103515625 28.7533016204834 122.76982879638672 C 26.89594268798828 122.6259536743164 27.331022262573242 122.51750183105469 33.50162124633789 122.62147521972656 C 28.03682518005371 121.68988800048828 25.350460052490234 122.7683334350586 35.85056686401367 122.76273345947266" stroke-width="0.0" fill="rgb(77, 74, 77)" opacity="0.8410623" stroke="rgb(195, 190, 230)" stroke-opacity="0.08342244" stroke-linecap="round" stroke-linejoin="round"/>
    <path d="M 20.926034927368164 96.43565368652344 C 15.428742408752441 94.09386444091797 8.2311372756958 90.38121032714844 21.40971565246582 92.3747329711914 C 31.035924911499023 90.22836303710938 27.113521575927734 93.3976821899414 27.640766143798828 93.48235321044922 C 7.493693828582764 93.5264663696289 14.5038480758667 92.2026138305664 21.772796630859375 97.13286590576172 C 20.513988494873047 95.9356460571289 21.688215255737305 98.77149963378906 20.926034927368164 96.43565368652344" stroke-width="0.0" fill="rgb(204, 202, 200)" opacity="0.7150283" stroke="rgb(140, 149, 245)" stroke-opacity="0.29214752" stroke-linecap="round" stroke-linejoin="round"/>
    <path d="M 106.49797821044922 83.97772979736328 C 94.44651794433594 83.31037902832031 96.70381164550781 85.93775177001953 95.21479797363281 81.15533447265625 C 104.51132202148438 80.22309112548828 103.71678161621094 80.5125503540039 97.38182067871094 80.98391723632812 C 93.13750457763672 80.3756103515625 101.86087799072266 81.38558959960938 102.20417022705078 80.6725082397461 C 98.37516784667969 81.71573638916016 114.88967895507812 79.57701110839844 106.49797821044922 83.97772979736328" stroke-width="0.0" fill="rgb(255, 255, 255)" opacity="0.94308424" stroke="rgb(61, 25, 4)" stroke-opacity="0.9295293" stroke-linecap="round" stroke-linejoin="round"/>
    <path d="M 90.724609375 139.03189086914062 C 87.18074035644531 130.64752197265625 83.63957214355469 123.6581039428711 88.59756469726562 126.31147766113281 C 108.97775268554688 126.32491302490234 86.86653137207031 126.26781463623047 79.96117401123047 126.54175567626953 C 90.45723724365234 128.2866973876953 87.17265319824219 118.76216125488281 86.75082397460938 123.31632995605469 C 83.9489974975586 128.10202026367188 89.97374725341797 133.04420471191406 90.724609375 139.03189086914062" stroke-width="0.0" fill="rgb(66, 67, 68)" opacity="0.6843057" stroke="rgb(170, 200, 71)" stroke-opacity="0.58641016" stroke-linecap="round" stroke-linejoin="round"/>
    <path d="M 88.32548522949219 112.11048126220703 C 92.77581024169922 112.0701904296875 81.95777130126953 108.12395477294922 98.08601379394531 111.88558959960938 C 86.44125366210938 109.86970520019531 91.66968536376953 107.4448013305664 89.70700073242188 112.00289154052734 C 98.62179565429688 111.18663024902344 96.9737319946289 113.81951141357422 88.1427993774414 112.81761932373047 C 78.65843963623047 112.64722442626953 79.7275390625 112.60761260986328 88.32548522949219 112.11048126220703" stroke-width="0.0" fill="rgb(35, 32, 35)" opacity="0.92820305" stroke="rgb(16, 123, 249)" stroke-opacity="0.87650526" stroke-linecap="round" stroke-linejoin="round"/>
    <path d="M 64.59501647949219 112.2895736694336 C 65.95320129394531 113.68570709228516 66.47840881347656 111.49986267089844 61.568912506103516 107.14720916748047 C 65.20293426513672 110.83467864990234 67.88724517822266 114.55109405517578 67.67920684814453 112.26348114013672 C 71.16780090332031 112.91458892822266 73.09963989257812 111.72746276855469 65.08423614501953 112.62533569335938 C 59.580780029296875 111.78730773925781 62.32209014892578 113.35901641845703 64.59501647949219 112.2895736694336" stroke-width="0.0" fill="rgb(52, 51, 53)" opacity="0.8868116" stroke="rgb(86, 245, 59)" stroke-opacity="0.9493188" stroke-linecap="round" stroke-linejoin="round"/>
    <path d="M -4.128876209259033 93.086181640625 C 8.821637153625488 86.99778747558594 7.6927666664123535 88.87921905517578 -0.10794174671173096 90.81855773925781 C 21.578977584838867 89.4495849609375 17.86284637451172 92.17179107666016 22.200334548950195 87.61357879638672 C 14.744675636291504 96.57856750488281 19.208532333374023 85.58650207519531 -6.914583683013916 93.88229370117188 C 34.766971588134766 94.62808990478516 93.86273193359375 92.56094360351562 -4.128876209259033 93.086181640625" stroke-width="0.0" fill="rgb(7, 4, 6)" opacity="0.95627874" stroke="rgb(240, 203, 160)" stroke-opacity="0.87428796" stroke-linecap="round" stroke-linejoin="round"/>
    <path d="M 148.38133239746094 92.76691436767578 C 88.69622039794922 90.97013854980469 74.2423095703125 92.36112976074219 71.57978820800781 91.99423217773438 C 84.651123046875 92.68623352050781 82.61981964111328 92.43790435791016 84.3073959350586 92.429931640625 C 80.52879333496094 91.2164077758789 82.25897216796875 94.12451934814453 84.349609375 92.49459838867188 C 69.46675872802734 92.56352996826172 65.46699523925781 93.45630645751953 148.38133239746094 92.76691436767578" stroke-width="0.0" fill="rgb(174, 171, 173)" opacity="0.807363" stroke="rgb(74, 216, 157)" stroke-opacity="0.013236858" stroke-linecap="round" stroke-linejoin="round"/>
    <path d="M 87.34136199951172 126.37959289550781 C 84.65990447998047 119.5739974975586 89.39844512939453 120.89651489257812 87.68668365478516 134.1835479736328 C 97.42742919921875 135.08782958984375 92.71989440917969 123.71534729003906 97.18331909179688 125.84135437011719 C 97.99810791015625 123.71018981933594 96.52189636230469 114.8642807006836 93.70531463623047 136.26663208007812 C 85.46037292480469 126.4033432006836 88.38414001464844 124.98030853271484 87.34136199951172 126.37959289550781" stroke-width="0.0" fill="rgb(54, 53, 55)" opacity="0.8037279" stroke="rgb(88, 37, 250)" stroke-opacity="0.4783703" stroke-linecap="round" stroke-linejoin="round"/>
    <path d="M 135.206787109375 127.61965942382812 C 116.34494018554688 125.89396667480469 110.04761505126953 125.71728515625 105.338623046875 126.41680145263672 C 130.6085205078125 128.2938995361328 120.3148193359375 124.33880615234375 125.09341430664062 124.85863494873047 C 123.5726089477539 128.04656982421875 127.2912826538086 123.7229995727539 114.24811553955078 126.01171112060547 C 122.2274398803711 125.56433868408203 130.1284942626953 122.42053985595703 135.206787109375 127.61965942382812" stroke-width="0.0" fill="rgb(57, 52, 55)" opacity="0.9526404" stroke="rgb(126, 163, 93)" stroke-opacity="0.13690028" stroke-linecap="round" stroke-linejoin="round"/>
    <path d="M 16.78487205505371 112.2037582397461 C 21.556827545166016 113.6090087890625 4.706377029418945 110.82215881347656 -13.512784957885742 112.97722625732422 C 25.602685928344727 113.28968811035156 26.989980697631836 112.70802307128906 25.05795669555664 112.86262512207031 C 20.639970779418945 112.49351501464844 21.697263717651367 111.64007568359375 16.96613883972168 113.15426635742188 C 16.915836334228516 103.81190490722656 19.64008331298828 114.91345977783203 16.78487205505371 112.2037582397461" stroke-width="0.0" fill="rgb(38, 37, 40)" opacity="0.96073896" stroke="rgb(209, 48, 130)" stroke-opacity="0.22431703" stroke-linecap="round" stroke-linejoin="round"/>
    <path d="M 59.66823196411133 107.21086883544922 C 62.625335693359375 109.06834411621094 57.17323303222656 106.75928497314453 64.16704559326172 107.70867919921875 C 76.82284545898438 108.08338165283203 74.57392883300781 106.30833435058594 57.709083557128906 107.43944549560547 C 69.09719848632812 107.64789581298828 67.30947875976562 107.39286804199219 50.467567443847656 107.73912811279297 C 59.04553985595703 107.66183471679688 58.57464599609375 106.64534759521484 59.66823196411133 107.21086883544922" stroke-width="0.0" fill="rgb(58, 55, 57)" opacity="0.65097314" stroke="rgb(24, 219, 248)" stroke-opacity="0.9608347" stroke-linecap="round" stroke-linejoin="round"/>
    <path d="M 94.74642944335938 125.30733489990234 C 110.45946502685547 126.3470687866211 110.98075866699219 127.7129898071289 108.73834991455078 123.5431900024414 C 110.30621337890625 128.37525939941406 106.98918914794922 123.10033416748047 109.83904266357422 124.9820327758789 C 106.46466064453125 124.79759979248047 108.31963348388672 127.32793426513672 113.68636322021484 124.72557830810547 C 100.52347564697266 125.07543182373047 100.03087615966797 125.61746215820312 94.74642944335938 125.30733489990234" stroke-width="0.0" fill="rgb(62, 59, 62)" opacity="0.8935165" stroke="rgb(231, 197, 84)" stroke-opacity="0.08110139" stroke-linecap="round" stroke-linejoin="round"/>
    <path d="M 14.956216812133789 23.280757904052734 C 14.30337905883789 22.273090362548828 5.146658897399902 24.262292861938477 -2.0719118118286133 24.368240356445312 C 10.80367374420166 22.951122283935547 14.346658706665039 22.13750648498535 11.733880043029785 25.448835372924805 C 13.195154190063477 25.597766876220703 16.345399856567383 23.46335792541504 12.040792465209961 25.6898250579834 C 11.810239791870117 26.08068084716797 13.207693099975586 23.7382755279541 14.956216812133789 23.280757904052734" stroke-width="0.0" fill="rgb(152, 145, 155)" opacity="0.5633459" stroke="rgb(103, 59, 33)" stroke-opacity="0.053427182" stroke-linecap="round" stroke-linejoin="round"/>
    <path d="M 26.3304386138916 113.16807556152344 C 22.852832794189453 110.82350158691406 26.737396240234375 108.21884155273438 32.56292724609375 109.9557113647461 C 34.77253341674805 114.62553405761719 30.8303279876709 111.65589904785156 -2.769650936126709 112.98360443115234 C 32.11106872558594 112.1212387084961 34.05236053466797 114.1134262084961 33.914527893066406 110.78326416015625 C 33.832279205322266 109.07754516601562 23.661670684814453 107.06455993652344 26.3304386138916 113.16807556152344" stroke-width="0.0" fill="rgb(30, 28, 31)" opacity="0.8822371" stroke="rgb(185, 2, 196)" stroke-opacity="0.14694664" stroke-linecap="round" stroke-linejoin="round"/>
    <path d="M 115.37897491455078 123.22462463378906 C 110.65052795410156 122.59674072265625 118.51899719238281 130.6581573486328 125.3230209350586 123.49686431884766 C 144.7829132080078 121.5645751953125 143.7187957763672 122.25794219970703 35.51835250854492 121.98094940185547 C 82.18404388427734 124.67137145996094 155.27865600585938 120.60240173339844 112.88007354736328 125.79216766357422 C 116.77762603759766 121.65164184570312 114.03932189941406 125.75360107421875 115.37897491455078 123.22462463378906" stroke-width="0.0" fill="rgb(36, 34, 36)" opacity="1.0" stroke="rgb(20, 22, 171)" stroke-opacity="0.24536721" stroke-linecap="round" stroke-linejoin="round"/>
    <path d="M 87.2569808959961 107.91960144042969 C 70.6484603881836 108.0208511352539 85.82158660888672 107.56155395507812 78.79540252685547 109.6589584350586 C 98.9405746459961 109.82447052001953 85.35308837890625 110.96564483642578 78.39524841308594 110.12063598632812 C 86.9823989868164 106.04592895507812 78.38748168945312 109.39977264404297 -5.647078037261963 107.2770767211914 C 186.53521728515625 106.37576293945312 179.4273681640625 108.14348602294922 87.2569808959961 107.91960144042969" stroke-width="0.0" fill="rgb(0, 0, 1)" opacity="0.78013885" stroke="rgb(107, 142, 219)" stroke-opacity="0.7270443" stroke-linecap="round" stroke-linejoin="round"/>
    <path d="M 41.67691421508789 109.54021453857422 C 37.50710678100586 113.6788330078125 55.393184661865234 110.82093048095703 -14.144571304321289 112.72240447998047 C 94.47225952148438 113.80859375 107.28234100341797 111.68109893798828 43.856624603271484 112.20911407470703 C 40.230567932128906 111.5440673828125 42.652320861816406 114.18763732910156 41.809879302978516 109.21504974365234 C 42.305870056152344 108.03467559814453 42.98842239379883 113.02825164794922 41.67691421508789 109.54021453857422" stroke-width="0.0" fill="rgb(37, 36, 39)" opacity="1.0" stroke="rgb(68, 33, 14)" stroke-opacity="0.30159864" stroke-linecap="round" stroke-linejoin="round"/>
    <path d="M 60.08858871459961 92.01806640625 C 51.735191345214844 91.22185516357422 48.31657409667969 90.7382583618164 59.19868850708008 93.75558471679688 C 49.69169998168945 90.73600006103516 47.92313766479492 88.57603454589844 38.19845199584961 83.8006591796875 C 47.333946228027344 87.67658233642578 49.11668395996094 91.41337585449219 58.85120391845703 92.54107666015625 C 14.540410041809082 94.29034423828125 22.015287399291992 90.77735900878906 60.08858871459961 92.01806640625" stroke-width="0.0" fill="rgb(186, 185, 185)" opacity="0.82562935" stroke="rgb(66, 116, 174)" stroke-opacity="0.6956254" stroke-linecap="round" stroke-linejoin="round"/>
    <path d="M 111.77215576171875 50.22315979003906 C 113.63307189941406 49.5853157043457 117.62474822998047 51.47747802734375 122.17005157470703 51.18016815185547 C 116.52095031738281 50.66960144042969 114.33087921142578 48.460872650146484 116.39927673339844 49.71643829345703 C 118.98965454101562 51.56815719604492 123.13890838623047 50.830810546875 112.46544647216797 50.05223846435547 C 110.80445861816406 51.96096420288086 114.23612213134766 51.95541763305664 111.77215576171875 50.22315979003906" stroke-width="0.0" fill="rgb(249, 251, 250)" opacity="0.8158614" stroke="rgb(72, 96, 46)" stroke-opacity="0.7885455" stroke-linecap="round" stroke-linejoin="round"/>
    <path d="M 89.25885009765625 89.3360366821289 C 95.97038269042969 90.4873046875 93.22813415527344 90.03636932373047 99.71521759033203 90.14264678955078 C 105.10391998291016 87.4192123413086 103.5409927368164 86.37297058105469 103.23950958251953 85.85023498535156 C 106.71992492675781 91.59394073486328 104.24446868896484 83.43473052978516 102.59197235107422 88.67573547363281 C 107.1472396850586 93.18597412109375 94.57634735107422 88.91988372802734 89.25885009765625 89.3360366821289" stroke-width="0.0" fill="rgb(25, 23, 24)" opacity="0.88500357" stroke="rgb(14, 177, 198)" stroke-opacity="0.7774076" stroke-linecap="round" stroke-linejoin="round"/>
    <path d="M 107.98143005371094 129.7794952392578 C 102.82017517089844 122.49856567382812 112.00421905517578 123.8705062866211 109.29138946533203 124.46566009521484 C 109.86190795898438 124.97325134277344 101.36231231689453 124.91886901855469 83.99201965332031 125.89529418945312 C 101.09497833251953 126.81610870361328 110.5129165649414 127.99352264404297 112.58699035644531 125.90424346923828 C 99.08494567871094 118.26262664794922 107.4310531616211 127.87886810302734 107.98143005371094 129.7794952392578" stroke-width="0.0" fill="rgb(53, 51, 53)" opacity="0.86497504" stroke="rgb(66, 95, 149)" stroke-opacity="0.2728219" stroke-linecap="round" stroke-linejoin="round"/>
    <path d="M 117.39599609375 70.96400451660156 C 112.52996063232422 70.77589416503906 115.05713653564453 70.86994171142578 117.08809661865234 70.96886444091797 C 115.26229858398438 72.3504409790039 116.30014038085938 71.89315795898438 118.20125579833984 71.23311614990234 C 117.74866485595703 71.29808807373047 118.25031280517578 71.31145477294922 115.08338165283203 72.25660705566406 C 111.00263214111328 74.57916259765625 114.74880981445312 72.45909881591797 117.39599609375 70.96400451660156" stroke-width="0.0" fill="rgb(243, 245, 243)" opacity="0.8679171" stroke="rgb(94, 50, 117)" stroke-opacity="0.0446123" stroke-linecap="round" stroke-linejoin="round"/>
    <path d="M 143.38320922851562 128.27166748046875 C 134.62277221679688 125.26605987548828 61.90180206298828 128.76156616210938 48.239540100097656 125.23786163330078 C 111.94805908203125 124.54683685302734 123.73722839355469 126.14707946777344 126.0087890625 122.35612487792969 C 132.6715850830078 123.39181518554688 145.13482666015625 122.2881088256836 103.24092864990234 122.33628845214844 C 126.33141326904297 121.427490234375 117.02751922607422 123.91999053955078 143.38320922851562 128.27166748046875" stroke-width="0.0" fill="rgb(43, 41, 43)" opacity="0.7621946" stroke="rgb(203, 19, 132)" stroke-opacity="0.3068101" stroke-linecap="round" stroke-linejoin="round"/>
    <path d="M 22.147470474243164 122.6445083618164 C 5.570550918579102 122.6084213256836 -3.3711252212524414 122.28443908691406 20.111833572387695 123.05838775634766 C 19.6166934967041 120.80792999267578 21.279327392578125 123.74988555908203 22.463542938232422 129.9231414794922 C 21.992876052856445 123.21295928955078 22.3027400970459 125.65233612060547 22.470355987548828 126.14571380615234 C 17.05997657775879 123.54519653320312 23.634496688842773 129.61752319335938 22.147470474243164 122.6445083618164" stroke-width="0.0" fill="rgb(53, 51, 53)" opacity="0.92711216" stroke="rgb(147, 244, 164)" stroke-opacity="0.035362437" stroke-linecap="round" stroke-linejoin="round"/>
    <path d="M 32.8726692199707 126.15275573730469 C 33.49073791503906 118.84474182128906 32.07732009887695 124.3432388305664 31.409160614013672 122.09723663330078 C 31.060260772705078 131.09307861328125 31.44032096862793 123.85552215576172 31.649320602416992 126.12989807128906 C 30.994293212890625 126.06309509277344 36.43964767456055 126.87796020507812 29.4220027923584 126.24176788330078 C 29.616008758544922 124.7079086303711 30.8856201171875 127.73664855957031 32.8726692199707 126.15275573730469" stroke-width="0.0" fill="rgb(52, 50, 52)" opacity="0.95938754" stroke="rgb(109, 130, 136)" stroke-opacity="0.6813925" stroke-linecap="round" stroke-linejoin="round"/>
    <path d="M 100.88812255859375 21.72177505493164 C 105.2271499633789 19.545730590820312 108.85084533691406 21.595970153808594 101.31388854980469 23.202381134033203 C 102.56525421142578 23.061880111694336 109.3386001586914 20.339496612548828 105.3870620727539 22.963197708129883 C 106.62295532226562 22.9508056640625 105.98968505859375 18.617069244384766 100.83274841308594 21.8502197265625 C 97.18994140625 23.72093391418457 98.68743133544922 22.937898635864258 100.88812255859375 21.72177505493164" stroke-width="0.0" fill="rgb(243, 244, 243)" opacity="0.8997092" stroke="rgb(70, 32, 100)" stroke-opacity="0.9564057" stroke-linecap="round" stroke-linejoin="round"/>
    <path d="M 57.31265640258789 113.00774383544922 C 56.4450569152832 108.9275894165039 58.905731201171875 110.3239517211914 57.62789535522461 112.81163787841797 C 107.76549530029297 113.66267395019531 100.31495666503906 111.19876098632812 65.14228057861328 112.38500213623047 C 64.41558074951172 105.80833435058594 69.71221160888672 114.8692855834961 60.64800262451172 112.2661361694336 C 62.63670349121094 112.8124771118164 56.09874725341797 111.67691802978516 57.31265640258789 113.00774383544922" stroke-width="0.0" fill="rgb(35, 33, 37)" opacity="0.93636876" stroke="rgb(47, 230, 138)" stroke-opacity="0.4569114" stroke-linecap="round" stroke-linejoin="round"/>
    <path d="M 50.26382064819336 89.1327133178711 C 53.29945373535156 87.43319702148438 51.37037658691406 88.86273193359375 59.57626724243164 89.7125015258789 C 63.701744079589844 88.8204116821289 59.95713424682617 87.05986022949219 60.21757888793945 89.14088439941406 C 59.83236312866211 87.49250793457031 48.95268630981445 90.66558837890625 42.88821029663086 88.2767333984375 C 53.23395538330078 87.85200500488281 58.97138977050781 90.6395263671875 50.26382064819336 89.1327133178711" stroke-width="0.0" fill="rgb(55, 53, 54)" opacity="0.889911" stroke="rgb(224, 116, 184)" stroke-opacity="0.39902532" stroke-linecap="round" stroke-linejoin="round"/>
    <path d="M 44.10175704956055 92.0057144165039 C 44.66677474975586 94.3216552734375 58.27540969848633 90.41078186035156 64.82058715820312 91.06977081298828 C 57.25581741333008 91.35266876220703 57.09471130371094 90.05313873291016 60.13159942626953 92.93637084960938 C 57.536373138427734 93.2633056640625 56.133296966552734 92.86334228515625 104.70415496826172 93.05482482910156 C 29.333187103271484 89.05622863769531 79.08544158935547 95.4758071899414 44.10175704956055 92.0057144165039" stroke-width="0.0" fill="rgb(205, 203, 203)" opacity="0.7932668" stroke="rgb(230, 175, 178)" stroke-opacity="0.3277204" stroke-linecap="round" stroke-linejoin="round"/>
    <path d="M 113.6329116821289 72.6333236694336 C 115.82353973388672 72.94527435302734 109.94865417480469 73.65742492675781 112.05473327636719 64.05227661132812 C 110.68175506591797 70.23192596435547 112.43512725830078 72.09272003173828 114.6221923828125 72.81771087646484 C 115.56568145751953 74.43447875976562 117.31707000732422 73.72030639648438 113.27912139892578 82.44479370117188 C 117.07235717773438 74.81136322021484 117.02885437011719 74.51837921142578 113.6329116821289 72.6333236694336" stroke-width="0.0" fill="rgb(204, 205, 204)" opacity="0.5091053" stroke="rgb(192, 162, 61)" stroke-opacity="0.16053882" stroke-linecap="round" stroke-linejoin="round"/>
    <path d="M 30.378293991088867 104.44287109375 C 30.762725830078125 102.8631591796875 29.46506690979004 106.14444732666016 30.084810256958008 104.80264282226562 C 31.598499298095703 103.67198944091797 24.17778205871582 104.67937469482422 30.288509368896484 104.92955780029297 C 36.202781677246094 105.4085693359375 38.07872009277344 105.48123168945312 28.226200103759766 104.75821685791016 C 26.802736282348633 104.3293228149414 29.797773361206055 104.1089096069336 30.378293991088867 104.44287109375" stroke-width="0.0" fill="rgb(216, 216, 215)" opacity="0.8694568" stroke="rgb(203, 244, 116)" stroke-opacity="0.59098417" stroke-linecap="round" stroke-linejoin="round"/>
    <path d="M 111.41193389892578 125.98854064941406 C 106.99308776855469 124.80028533935547 104.57350158691406 126.74333190917969 116.10128021240234 124.90817260742188 C 104.94013977050781 126.09690856933594 99.97061920166016 126.6121826171875 113.9217300415039 125.97172546386719 C 114.46134185791016 126.79531860351562 118.40240478515625 126.43374633789062 124.86468505859375 124.9570541381836 C 106.2349624633789 122.71961975097656 109.52735900878906 127.03687286376953 111.41193389892578 125.98854064941406" stroke-width="0.0" fill="rgb(42, 41, 43)" opacity="0.79835" stroke="rgb(218, 116, 242)" stroke-opacity="0.5757512" stroke-linecap="round" stroke-linejoin="round"/>
    <path d="M 139.1854705810547 124.68962097167969 C 99.7904281616211 126.26982116699219 107.72477722167969 122.34685516357422 106.76433563232422 129.46644592285156 C 107.12113952636719 127.39948272705078 106.68802642822266 129.52076721191406 106.10995483398438 127.87319946289062 C 109.70655059814453 120.13754272460938 99.1186752319336 124.25318908691406 124.91040802001953 123.16574096679688 C 108.95013427734375 116.66361999511719 104.44367980957031 120.44789123535156 139.1854705810547 124.68962097167969" stroke-width="0.0" fill="rgb(140, 140, 140)" opacity="0.79525095" stroke="rgb(209, 231, 207)" stroke-opacity="0.15941447" stroke-linecap="round" stroke-linejoin="round"/>
    <path d="M 98.09749603271484 68.08978271484375 C 122.43437957763672 68.41746520996094 60.783905029296875 60.85722351074219 73.61835479736328 50.97940444946289 C 114.86479949951172 51.618629455566406 102.11183166503906 47.71859359741211 103.89080047607422 67.13070678710938 C 89.40461730957031 61.98020935058594 91.50127410888672 65.47212219238281 71.9833755493164 55.88685607910156 C 73.73336791992188 70.78182983398438 64.05094909667969 67.76753234863281 98.09749603271484 68.08978271484375" stroke-width="0.0" fill="rgb(72, 72, 72)" opacity="0.7600521" stroke="rgb(160, 101, 15)" stroke-opacity="0.42403224" stroke-linecap="round" stroke-linejoin="round"/>
    <path d="M 57.57013702392578 122.60215759277344 C 54.998558044433594 122.1552734375 30.933088302612305 121.75445556640625 -28.85384750366211 122.43238067626953 C 59.5560188293457 124.20990753173828 52.6494140625 120.93170928955078 51.03446578979492 126.1827392578125 C 48.31388473510742 120.66783905029297 48.20766067504883 124.14710235595703 74.50753021240234 122.56551361083984 C 44.445762634277344 122.67025756835938 49.28868103027344 123.17447662353516 57.57013702392578 122.60215759277344" stroke-width="0.0" fill="rgb(36, 34, 36)" opacity="0.9728808" stroke="rgb(65, 216, 8)" stroke-opacity="0.9589827" stroke-linecap="round" stroke-linejoin="round"/>
    <path d="M 69.77556610107422 109.51353454589844 C 68.66360473632812 108.13872528076172 69.35227966308594 110.22357177734375 72.43877410888672 109.53890228271484 C 75.55296325683594 112.1694564819336 71.68336486816406 109.49859619140625 71.86986541748047 108.34162139892578 C 73.25993347167969 117.19739532470703 90.86370086669922 110.30148315429688 72.01858520507812 113.10541534423828 C 76.09654998779297 110.35836791992188 76.03997802734375 111.42002868652344 69.77556610107422 109.51353454589844" stroke-width="0.0" fill="rgb(34, 33, 35)" opacity="0.77235264" stroke="rgb(90, 90, 4)" stroke-opacity="0.18523233" stroke-linecap="round" stroke-linejoin="round"/>
    <path d="M -6.619659900665283 109.72972869873047 C 14.409231185913086 112.2822494506836 6.1931939125061035 108.06993103027344 -1.7715041637420654 109.82884979248047 C 31.994802474975586 110.31122589111328 39.04535675048828 105.26286315917969 -18.51129722595215 107.52538299560547 C 36.760589599609375 109.21922302246094 27.06950569152832 105.16923522949219 20.83316993713379 110.24849700927734 C 11.429811477661133 110.74703979492188 5.935401916503906 109.78451538085938 -6.619659900665283 109.72972869873047" stroke-width="0.0" fill="rgb(22, 21, 22)" opacity="0.7673329" stroke="rgb(102, 236, 25)" stroke-opacity="0.94530153" stroke-linecap="round" stroke-linejoin="round"/>
    <path d="M 140.28245544433594 90.23816680908203 C 113.2684555053711 86.78335571289062 108.454833984375 92.12177276611328 112.95282745361328 89.7968978881836 C 118.77619934082031 89.1144027709961 116.89257049560547 88.59113311767578 117.42814636230469 89.34156799316406 C 120.92578887939453 88.992919921875 107.85777282714844 89.02242279052734 29.38921546936035 89.04642486572266 C 101.57508850097656 91.4065170288086 122.29682159423828 89.00630187988281 140.28245544433594 90.23816680908203" stroke-width="0.0" fill="rgb(73, 71, 73)" opacity="0.9123918" stroke="rgb(221, 115, 83)" stroke-opacity="0.23274413" stroke-linecap="round" stroke-linejoin="round"/>
    <path d="M 76.83213806152344 89.32327270507812 C 81.39930725097656 87.03205871582031 75.91849517822266 86.13489532470703 76.9482650756836 90.7516098022461 C 92.06063842773438 87.52188110351562 94.798828125 86.95416259765625 84.08744812011719 87.02346801757812 C 76.18695831298828 95.45731353759766 79.62854766845703 87.0858154296875 87.91016387939453 89.22241973876953 C 79.35172271728516 88.55036163330078 77.06615447998047 93.56378173828125 76.83213806152344 89.32327270507812" stroke-width="0.0" fill="rgb(14, 12, 14)" opacity="0.86382174" stroke="rgb(156, 8, 3)" stroke-opacity="0.42879573" stroke-linecap="round" stroke-linejoin="round"/>
    <path d="M 112.1998062133789 20.933340072631836 C 117.86600494384766 21.63857078552246 120.91431427001953 24.4379825592041 117.0065689086914 22.40804672241211 C 118.68440246582031 23.781415939331055 121.59191131591797 21.175199508666992 122.4146728515625 20.641298294067383 C 122.23464965820312 23.5629940032959 123.82361602783203 21.303613662719727 120.85441589355469 21.535627365112305 C 119.87873840332031 22.871309280395508 120.7451400756836 23.51439666748047 112.1998062133789 20.933340072631836" stroke-width="0.0" fill="rgb(201, 201, 201)" opacity="0.68154496" stroke="rgb(17, 64, 56)" stroke-opacity="0.2531912" stroke-linecap="round" stroke-linejoin="round"/>
    <path d="M 108.91038513183594 127.36832427978516 C 113.84307098388672 122.83818817138672 113.67674255371094 128.4104766845703 112.82540893554688 129.7632598876953 C 109.60626983642578 122.39849853515625 117.54660034179688 128.8741912841797 114.41181182861328 122.53211212158203 C 110.6174545288086 135.35293579101562 119.5656967163086 131.325439453125 112.6338882446289 131.53579711914062 C 111.6447525024414 126.29790496826172 113.18203735351562 123.42630767822266 108.91038513183594 127.36832427978516" stroke-width="0.0" fill="rgb(69, 65, 69)" opacity="0.41379306" stroke="rgb(33, 3, 29)" stroke-opacity="0.61848027" stroke-linecap="round" stroke-linejoin="round"/>
    <path d="M 113.93465423583984 126.25302124023438 C 116.68457794189453 121.90953826904297 114.05853271484375 122.84329223632812 103.30427551269531 121.8581314086914 C 133.53709411621094 124.39179992675781 121.75309753417969 120.92880249023438 125.91400909423828 126.3245849609375 C 118.63822174072266 122.83607482910156 121.63768768310547 123.39398956298828 137.92160034179688 122.63282012939453 C 111.85102081298828 122.2608871459961 112.49746704101562 120.73837280273438 113.93465423583984 126.25302124023438" stroke-width="0.0" fill="rgb(37, 34, 37)" opacity="0.77646327" stroke="rgb(248, 252, 104)" stroke-opacity="0.16295442" stroke-linecap="round" stroke-linejoin="round"/>
    <path d="M 58.15788650512695 29.50400161743164 C 60.098384857177734 23.079978942871094 59.69352722167969 24.604339599609375 58.86949157714844 26.078105926513672 C 58.95083236694336 26.150253295898438 59.0764274597168 26.320758819580078 58.29151153564453 26.007991790771484 C 59.229122161865234 25.686403274536133 61.1805534362793 22.998214721679688 61.34745407104492 17.562028884887695 C 61.12872314453125 22.119844436645508 59.58967590332031 25.29104232788086 58.15788650512695 29.50400161743164" stroke-width="0.0" fill="rgb(126, 124, 124)" opacity="0.5613378" stroke="rgb(162, 125, 252)" stroke-opacity="0.065304205" stroke-linecap="round" stroke-linejoin="round"/>
    <path d="M 104.52754974365234 109.88753509521484 C 86.67235565185547 108.49710083007812 97.1473617553711 117.40914916992188 155.21029663085938 110.1295394897461 C 72.64519500732422 116.7132339477539 122.01526641845703 104.71029663085938 92.66161346435547 112.94960021972656 C 113.20296478271484 112.7696533203125 98.04659271240234 114.33172607421875 109.4351806640625 109.21891021728516 C 78.19132232666016 112.7488784790039 91.28274536132812 108.2254867553711 104.52754974365234 109.88753509521484" stroke-width="0.0" fill="rgb(33, 31, 35)" opacity="0.9035071" stroke="rgb(199, 73, 61)" stroke-opacity="0.66250455" stroke-linecap="round" stroke-linejoin="round"/>
    <path d="M -6.294195652008057 92.10601806640625 C 2.6959452629089355 110.4196548461914 -3.0462594032287598 114.49246215820312 -12.837430000305176 108.43582153320312 C 7.06326961517334 106.56336975097656 10.167672157287598 106.60919189453125 10.11752700805664 112.987548828125 C 5.454632759094238 109.60022735595703 14.552760124206543 106.99761962890625 -0.4383856952190399 107.99746704101562 C 6.702544212341309 116.33393096923828 -0.5288196802139282 115.5662612915039 -6.294195652008057 92.10601806640625" stroke-width="0.0" fill="rgb(18, 15, 19)" opacity="0.7437247" stroke="rgb(62, 169, 131)" stroke-opacity="0.42408898" stroke-linecap="round" stroke-linejoin="round"/>
    <path d="M 93.36285400390625 112.72169494628906 C 88.88674926757812 114.07660675048828 88.92868041992188 109.98686218261719 89.61444854736328 109.27931213378906 C 90.67842864990234 116.1253890991211 82.49490356445312 111.29006958007812 89.6511001586914 112.61033630371094 C 89.36482238769531 112.84905242919922 85.19037628173828 107.54793548583984 99.01170349121094 109.53331756591797 C 88.20091247558594 108.25416564941406 87.01829528808594 113.9925537109375 93.36285400390625 112.72169494628906" stroke-width="0.0" fill="rgb(35, 34, 36)" opacity="0.83250463" stroke="rgb(141, 73, 180)" stroke-opacity="0.41485688" stroke-linecap="round" stroke-linejoin="round"/>
    <path d="M -2.499352216720581 24.914785385131836 C -2.9729485511779785 25.636030197143555 -4.541457653045654 25.13566780090332 -4.741886615753174 21.435880661010742 C -3.5374398231506348 20.68776512145996 -7.576735019683838 26.123268127441406 -9.683703422546387 24.554723739624023 C -1.7479301691055298 19.803680419921875 -0.8742486834526062 20.881446838378906 -8.746451377868652 25.992000579833984 C -2.801602840423584 26.740028381347656 2.074707269668579 25.446741104125977 -2.499352216720581 24.914785385131836" stroke-width="0.0" fill="rgb(125, 126, 128)" opacity="0.8419748" stroke="rgb(91, 211, 235)" stroke-opacity="0.04600731" stroke-linecap="round" stroke-linejoin="round"/>
    <path d="M 109.94557189941406 48.16956329345703 C 110.99876403808594 45.72452163696289 111.23463439941406 44.655860900878906 111.54297637939453 44.809715270996094 C 114.13067626953125 45.486934661865234 110.27426147460938 43.636863708496094 110.38872528076172 47.51056671142578 C 110.1422348022461 58.3503303527832 110.5458984375 49.07503128051758 111.32659149169922 45.15135955810547 C 107.79086303710938 48.3415641784668 112.96586608886719 43.37672805786133 109.94557189941406 48.16956329345703" stroke-width="0.0" fill="rgb(14, 12, 14)" opacity="0.8741537" stroke="rgb(59, 88, 207)" stroke-opacity="0.98549145" stroke-linecap="round" stroke-linejoin="round"/>
    <path d="M 116.55624389648438 91.74787902832031 C 103.51210021972656 91.43109130859375 87.71648406982422 93.34593200683594 114.66841888427734 92.87734985351562 C 113.22868347167969 90.43480682373047 115.15267944335938 90.1883544921875 116.6881103515625 92.4869155883789 C 131.9622039794922 93.91825866699219 148.2012176513672 91.40058135986328 116.27363586425781 91.33741760253906 C 117.87309265136719 94.33707427978516 118.26988983154297 96.2102279663086 116.55624389648438 91.74787902832031" stroke-width="0.0" fill="rgb(212, 211, 211)" opacity="0.638312" stroke="rgb(247, 230, 75)" stroke-opacity="0.99201125" stroke-linecap="round" stroke-linejoin="round"/>
    <path d="M 53.233177185058594 27.924222946166992 C 49.497161865234375 25.046567916870117 46.80126953125 22.291627883911133 46.62239074707031 24.35527992248535 C 48.24663162231445 20.833585739135742 47.514488220214844 24.317434310913086 47.125213623046875 22.84673309326172 C 50.430301666259766 26.60765266418457 51.62830352783203 24.305906295776367 49.36219024658203 27.93014144897461 C 50.558589935302734 24.13926124572754 51.31785202026367 26.09355354309082 53.233177185058594 27.924222946166992" stroke-width="0.0" fill="rgb(128, 128, 125)" opacity="0.623313" stroke="rgb(63, 27, 242)" stroke-opacity="0.23342025" stroke-linecap="round" stroke-linejoin="round"/>
    <path d="M 3.086696147918701 122.53694152832031 C 6.588892459869385 127.52124786376953 3.737516403198242 125.52651977539062 -9.776137351989746 127.08148956298828 C -4.109577655792236 131.1143798828125 -6.379573345184326 127.1897964477539 -3.9946305751800537 122.12841796875 C -5.3301286697387695 114.64253234863281 -7.315012454986572 111.83157348632812 -9.473601341247559 123.4157485961914 C -7.718253135681152 128.20201110839844 0.3143483102321625 132.11349487304688 3.086696147918701 122.53694152832031" stroke-width="0.0" fill="rgb(53, 52, 53)" opacity="0.8198047" stroke="rgb(175, 14, 186)" stroke-opacity="0.8817202" stroke-linecap="round" stroke-linejoin="round"/>
    <path d="M 81.97464752197266 18.459230422973633 C 88.35383605957031 21.283239364624023 74.20548248291016 15.170310020446777 93.10987854003906 22.612640380859375 C 96.802001953125 21.95041275024414 90.1905288696289 24.819395065307617 87.88301849365234 23.04136848449707 C 70.25096893310547 23.6688232421875 62.77608871459961 22.600133895874023 90.54581451416016 24.84741973876953 C 93.95186614990234 22.32642364501953 90.14000701904297 20.968273162841797 81.97464752197266 18.459230422973633" stroke-width="0.0" fill="rgb(209, 207, 205)" opacity="0.5347985" stroke="rgb(69, 96, 95)" stroke-opacity="0.74878824" stroke-linecap="round" stroke-linejoin="round"/>
    <path d="M 108.98345947265625 86.62126159667969 C 104.60159301757812 83.4941635131836 105.53620910644531 84.3050537109375 107.28167724609375 93.52229309082031 C 110.56271362304688 89.28126525878906 104.68043518066406 93.48667907714844 104.85198211669922 81.49044799804688 C 104.32685852050781 87.89027404785156 113.77015686035156 90.07917785644531 113.0806884765625 79.06819152832031 C 104.94078063964844 91.47981262207031 109.73969268798828 88.88248443603516 108.98345947265625 86.62126159667969" stroke-width="0.0" fill="rgb(48, 46, 48)" opacity="0.7923113" stroke="rgb(60, 43, 114)" stroke-opacity="0.3044684" stroke-linecap="round" stroke-linejoin="round"/>
    <path d="M 79.48221588134766 40.06909942626953 C 82.22919464111328 28.27602767944336 79.38713836669922 32.371002197265625 79.4838638305664 32.483219146728516 C 81.57918548583984 31.024456024169922 78.9668960571289 31.411306381225586 79.73158264160156 31.548816680908203 C 80.45623016357422 30.58654022216797 81.15213775634766 34.80148696899414 79.42289733886719 39.65239334106445 C 80.4058609008789 35.033409118652344 80.1139907836914 34.583805084228516 79.48221588134766 40.06909942626953" stroke-width="0.0" fill="rgb(58, 60, 62)" opacity="0.761971" stroke="rgb(213, 60, 128)" stroke-opacity="0.9425836" stroke-linecap="round" stroke-linejoin="round"/>
    <path d="M 37.27640914916992 113.04916381835938 C 56.96526336669922 107.478515625 55.76871109008789 104.97901153564453 57.23691940307617 111.38736724853516 C 61.98158645629883 108.909423828125 63.964263916015625 108.26387786865234 59.52054977416992 110.07064819335938 C 53.00402069091797 113.03718566894531 60.39802169799805 114.53230285644531 57.0446891784668 110.48717498779297 C 55.765926361083984 105.2082290649414 55.83726119995117 107.83295440673828 37.27640914916992 113.04916381835938" stroke-width="0.0" fill="rgb(49, 47, 50)" opacity="0.60728854" stroke="rgb(161, 221, 239)" stroke-opacity="0.75076485" stroke-linecap="round" stroke-linejoin="round"/>
    <path d="M 22.823944091796875 126.15119171142578 C 23.35651206970215 121.23360443115234 20.451988220214844 122.71694946289062 33.03993225097656 122.52277374267578 C 30.64525604248047 122.64271545410156 22.896656036376953 122.30757141113281 21.803300857543945 122.5829086303711 C 20.416963577270508 128.02536010742188 27.55232048034668 126.49561309814453 27.185405731201172 126.63191986083984 C 14.751193046569824 124.66779327392578 17.168437957763672 125.0416259765625 22.823944091796875 126.15119171142578" stroke-width="0.0" fill="rgb(44, 42, 44)" opacity="0.8826261" stroke="rgb(178, 246, 253)" stroke-opacity="0.45182168" stroke-linecap="round" stroke-linejoin="round"/>
    <path d="M 104.68071746826172 112.95763397216797 C 106.29202270507812 106.87886810302734 104.53728485107422 108.40096282958984 106.33636474609375 112.87353515625 C 100.61279296875 113.9837417602539 104.7750473022461 110.2161636352539 110.2033462524414 110.70233917236328 C 111.98995971679688 110.01513671875 114.66870880126953 110.92453002929688 100.89307403564453 109.71572875976562 C 104.36500549316406 110.61287689208984 107.78099822998047 111.78553771972656 104.68071746826172 112.95763397216797" stroke-width="0.0" fill="rgb(60, 60, 62)" opacity="0.893337" stroke="rgb(18, 74, 38)" stroke-opacity="0.41748637" stroke-linecap="round" stroke-linejoin="round"/>
    <path d="M 116.21033477783203 30.172521591186523 C 113.57042694091797 31.391347885131836 119.12263488769531 28.800174713134766 116.07032775878906 30.31907844543457 C 117.74708557128906 29.373109817504883 116.20258331298828 30.244503021240234 116.43047332763672 30.072046279907227 C 114.43079376220703 26.9154052734375 111.07212829589844 29.499155044555664 104.294921875 28.59492301940918 C 111.46100616455078 29.59366798400879 114.9927749633789 27.035531997680664 116.21033477783203 30.172521591186523" stroke-width="0.0" fill="rgb(185, 189, 188)" opacity="0.6924898" stroke="rgb(33, 154, 97)" stroke-opacity="0.89538586" stroke-linecap="round" stroke-linejoin="round"/>
    <path d="M 128.54074096679688 7.322307586669922 C 123.12811279296875 13.561120986938477 123.27536010742188 18.907142639160156 131.36720275878906 24.641759872436523 C 125.68366241455078 24.804798126220703 120.23746490478516 19.928524017333984 131.80154418945312 21.38204002380371 C 127.57330322265625 17.864177703857422 130.10562133789062 16.7811279296875 137.0830535888672 20.830806732177734 C 125.09663391113281 24.238569259643555 130.0646514892578 23.15107536315918 128.54074096679688 7.322307586669922" stroke-width="0.0" fill="rgb(120, 120, 120)" opacity="0.8158251" stroke="rgb(246, 139, 70)" stroke-opacity="0.59223044" stroke-linecap="round" stroke-linejoin="round"/>
    <path d="M 55.459861755371094 107.39575958251953 C 2.913374662399292 106.19862365722656 -21.592634201049805 108.5322494506836 37.18557357788086 107.92969512939453 C 45.06600570678711 107.98091888427734 38.49199676513672 104.78109741210938 42.139400482177734 112.33235931396484 C 40.2701530456543 106.744140625 42.90222930908203 109.57395935058594 39.32450866699219 110.0626449584961 C 45.31238555908203 106.88072967529297 30.810190200805664 107.78414916992188 55.459861755371094 107.39575958251953" stroke-width="0.0" fill="rgb(11, 8, 11)" opacity="0.7053569" stroke="rgb(228, 103, 140)" stroke-opacity="0.27165276" stroke-linecap="round" stroke-linejoin="round"/>
    <path d="M 114.23186492919922 28.619470596313477 C 112.36738586425781 29.752107620239258 114.90572357177734 28.888513565063477 119.5392837524414 29.95952796936035 C 112.62194061279297 32.39201736450195 114.56363677978516 27.397804260253906 120.24459838867188 30.0393123626709 C 117.3034439086914 29.573999404907227 114.85320281982422 27.161712646484375 111.23714447021484 28.3393497467041 C 125.7358169555664 29.956144332885742 127.07239532470703 32.71807098388672 114.23186492919922 28.619470596313477" stroke-width="0.0" fill="rgb(255, 255, 255)" opacity="0.7254357" stroke="rgb(116, 102, 63)" stroke-opacity="0.5058664" stroke-linecap="round" stroke-linejoin="round"/>
    <path d="M 66.27021789550781 88.9548568725586 C 67.12963104248047 91.11216735839844 63.65696334838867 88.37798309326172 72.0103759765625 89.42356872558594 C 73.6238784790039 89.09060668945312 70.94319915771484 90.1907958984375 66.27864837646484 87.79426574707031 C 56.13406753540039 91.09988403320312 59.841575622558594 88.63887786865234 68.82905578613281 90.08505249023438 C 63.798492431640625 88.04090881347656 55.7941780090332 87.1213607788086 66.27021789550781 88.9548568725586" stroke-width="0.0" fill="rgb(56, 54, 56)" opacity="0.8784401" stroke="rgb(79, 95, 133)" stroke-opacity="0.75059503" stroke-linecap="round" stroke-linejoin="round"/>
    <path d="M 115.19242095947266 38.057212829589844 C 117.30117797851562 27.46417999267578 112.78543853759766 31.418712615966797 110.36006164550781 29.043100357055664 C 108.35555267333984 28.341875076293945 106.8196792602539 29.46489906311035 107.01558685302734 29.252334594726562 C 110.7479476928711 27.731285095214844 109.26555633544922 29.906522750854492 114.45423889160156 30.34907341003418 C 114.05271911621094 29.49772834777832 116.9942855834961 32.165382385253906 115.19242095947266 38.057212829589844" stroke-width="0.0" fill="rgb(94, 100, 102)" opacity="0.37955222" stroke="rgb(85, 235, 219)" stroke-opacity="0.048690297" stroke-linecap="round" stroke-linejoin="round"/>
    <path d="M 119.13700103759766 21.8359317779541 C 114.72119903564453 20.34177017211914 119.6149673461914 25.628036499023438 121.67231750488281 23.250839233398438 C 111.3679428100586 20.981599807739258 109.36630249023438 17.425220489501953 111.20872497558594 23.21367835998535 C 123.42730712890625 24.60081672668457 124.59439086914062 22.202707290649414 120.90370178222656 20.094985961914062 C 115.1613998413086 23.383018493652344 119.5855484008789 25.217336654663086 119.13700103759766 21.8359317779541" stroke-width="0.0" fill="rgb(254, 254, 253)" opacity="0.8397956" stroke="rgb(64, 113, 26)" stroke-opacity="0.348476" stroke-linecap="round" stroke-linejoin="round"/>
  </g>
</svg>
