<?xml version="1.0" ?>
<svg xmlns="http://www.w3.org/2000/svg" version="1.1" width="512" height="512">
  <defs/>
  <g>
    <path stroke-width="0" fill="rgb(0, 0, 0)" opacity="1.0" stroke="rgb(139, 182, 153)" stroke-opacity="1.0" stroke-linecap="round" stroke-linejoin="round" d="M 573.926025390625 163.51953125 C 471.0992736816406 158.08694458007812 255.0608367919922 161.81800842285156 22.59921646118164 159.53184509277344 C 150.5184326171875 41.87978744506836 217.4571075439453 78.9823989868164 174.5917205810547 -25.02392578125 C 185.01902770996094 -33.60383224487305 197.35633850097656 -35.491127014160156 255.76852416992188 -34.25507736206055 C 358.7529296875 -48.40812301635742 436.86669921875 -146.2008514404297 573.926025390625 163.51953125"/>
    <path stroke-width="0" fill="rgb(50, 48, 49)" opacity="0.7098463" stroke="rgb(108, 164, 111)" stroke-opacity="1.0" stroke-linecap="round" stroke-linejoin="round" d="M 317.98779296875 711.3776245117188 C -123.86443328857422 747.1949462890625 8.194643020629883 369.6436767578125 44.7060546875 85.9172592163086 C 292.3875732421875 123.41614532470703 289.6558532714844 119.01665496826172 280.25506591796875 41.215660095214844 C 284.2266845703125 -66.92325592041016 317.0650329589844 -46.443145751953125 442.3717346191406 -36.365211486816406 C 639.143310546875 -2.5854287147521973 854.1314086914062 240.14646911621094 317.98779296875 711.3776245117188"/>
    <path stroke-width="0" fill="rgb(75, 74, 75)" opacity="0.9791461" stroke="rgb(245, 97, 201)" stroke-opacity="1.0" stroke-linecap="round" stroke-linejoin="round" d="M 361.5166931152344 87.91743469238281 C 330.9302062988281 104.24836730957031 322.7893371582031 110.20309448242188 88.298095703125 107.66068267822266 C 110.2091293334961 102.71875 112.02108764648438 111.00037384033203 120.93379211425781 67.02682495117188 C 135.61231994628906 -33.507022857666016 141.19679260253906 -41.69472885131836 171.77618408203125 -45.70500183105469 C 292.34967041015625 -28.924501419067383 315.96514892578125 -34.966957092285156 361.5166931152344 87.91743469238281"/>
    <path stroke-width="0" fill="rgb(15, 16, 16)" opacity="0.9565157" stroke="rgb(144, 236, 18)" stroke-opacity="1.0" stroke-linecap="round" stroke-linejoin="round" d="M 256.440185546875 83.42579650878906 C 199.93568420410156 105.46278381347656 295.4520568847656 69.55325317382812 532.9510498046875 145.15081787109375 C 128.46279907226562 147.86558532714844 16.081682205200195 90.47622680664062 -32.910133361816406 237.32327270507812 C -45.53935623168945 -103.79988098144531 -12.785496711730957 -54.71656799316406 149.37371826171875 -35.138450622558594 C 205.53338623046875 -44.21556091308594 222.692138671875 -50.47013854980469 256.440185546875 83.42579650878906"/>
    <path stroke-width="0" fill="rgb(254, 255, 254)" opacity="0.9998159" stroke="rgb(5, 212, 198)" stroke-opacity="1.0" stroke-linecap="round" stroke-linejoin="round" d="M 491.91705322265625 243.06362915039062 C 467.1653137207031 178.98431396484375 265.68011474609375 188.33804321289062 289.23394775390625 217.16482543945312 C 193.07696533203125 181.7527618408203 152.48660278320312 187.8831024169922 130.13539123535156 160.79495239257812 C 83.0566177368164 159.9739227294922 85.58676147460938 160.0330352783203 493.5334167480469 160.0361785888672 C 491.4140319824219 160.09146118164062 492.1562805175781 138.6223907470703 491.91705322265625 243.06362915039062"/>
    <path stroke-width="0" fill="rgb(254, 254, 254)" opacity="1.0" stroke="rgb(249, 203, 117)" stroke-opacity="1.0" stroke-linecap="round" stroke-linejoin="round" d="M 560.6569213867188 380.983154296875 C 584.4484252929688 396.2139892578125 512.0720825195312 393.2779541015625 401.60552978515625 389.78765869140625 C 474.3947448730469 382.8110656738281 368.433349609375 392.0399169921875 376.7039794921875 376.0650634765625 C 530.4507446289062 376.236083984375 523.3002319335938 375.05230712890625 508.0083923339844 378.2998046875 C 433.86175537109375 380.5495300292969 454.1429748535156 378.1300048828125 560.6569213867188 380.983154296875"/>
    <path stroke-width="0" fill="rgb(231, 235, 240)" opacity="0.6883176" stroke="rgb(30, 163, 36)" stroke-opacity="1.0" stroke-linecap="round" stroke-linejoin="round" d="M 638.3482666015625 413.4881896972656 C 458.3044738769531 446.32861328125 159.1376190185547 410.9322814941406 150.79315185546875 427.4156494140625 C 284.7125549316406 428.8416442871094 325.65472412109375 427.6633605957031 -32.98255920410156 428.07135009765625 C 199.54734802246094 399.2759704589844 232.4486541748047 428.8607482910156 54.12420654296875 412.856201171875 C 132.57203674316406 416.0601501464844 306.4373474121094 400.32769775390625 638.3482666015625 413.4881896972656"/>
    <path stroke-width="0" fill="rgb(254, 255, 255)" opacity="0.99501145" stroke="rgb(133, 105, 67)" stroke-opacity="1.0" stroke-linecap="round" stroke-linejoin="round" d="M 576.610107421875 376.7433166503906 C 751.393310546875 400.8536376953125 594.74365234375 394.5256652832031 61.04438781738281 396.02899169921875 C 179.88156127929688 388.8389892578125 -87.62671661376953 410.7614440917969 -63.992496490478516 376.0206604003906 C 518.977783203125 376.00738525390625 497.26708984375 376.0189514160156 445.2706298828125 376.03472900390625 C 394.04656982421875 378.006103515625 408.2731018066406 374.6716003417969 576.610107421875 376.7433166503906"/>
    <path stroke-width="0" fill="rgb(255, 255, 255)" opacity="0.9824985" stroke="rgb(116, 144, 4)" stroke-opacity="1.0" stroke-linecap="round" stroke-linejoin="round" d="M 595.1250610351562 428.0054931640625 C -78.18506622314453 427.8774719238281 26.361377716064453 428.3931884765625 79.83051300048828 427.13189697265625 C 222.23646545410156 414.494384765625 -65.28684997558594 446.8623352050781 -82.05473327636719 408.9195861816406 C 79.4979019165039 409.7161865234375 250.6119842529297 408.5532531738281 308.8012390136719 409.6038818359375 C 129.8701934814453 423.43194580078125 223.5254364013672 392.8272705078125 595.1250610351562 428.0054931640625"/>
    <path stroke-width="0" fill="rgb(254, 255, 254)" opacity="0.99555486" stroke="rgb(156, 157, 240)" stroke-opacity="1.0" stroke-linecap="round" stroke-linejoin="round" d="M 493.01617431640625 278.1353759765625 C 467.3351135253906 304.576904296875 623.9435424804688 292.8421936035156 -39.23965835571289 296.9062194824219 C -85.91264343261719 266.43426513671875 -93.56836700439453 272.9627685546875 261.4610595703125 271.9438171386719 C 269.0964660644531 282.998291015625 255.1050262451172 132.54884338378906 277.81781005859375 174.11155700683594 C 317.7777099609375 318.9090270996094 202.27735900878906 253.03677368164062 493.01617431640625 278.1353759765625"/>
    <path stroke-width="0" fill="rgb(254, 255, 255)" opacity="0.92187375" stroke="rgb(91, 111, 177)" stroke-opacity="1.0" stroke-linecap="round" stroke-linejoin="round" d="M 594.7459106445312 410.3527526855469 C 473.7101745605469 455.5497741699219 262.41253662109375 377.9232482910156 169.9195556640625 426.0411682128906 C 250.23483276367188 411.9996643066406 241.03329467773438 421.1989440917969 212.2550048828125 416.13250732421875 C 258.1708984375 421.3088073730469 278.025634765625 442.0669250488281 147.5843505859375 409.35565185546875 C 180.81137084960938 420.80230712890625 481.6236267089844 403.3907470703125 594.7459106445312 410.3527526855469"/>
    <path stroke-width="0" fill="rgb(253, 254, 253)" opacity="1.0" stroke="rgb(170, 171, 53)" stroke-opacity="1.0" stroke-linecap="round" stroke-linejoin="round" d="M 491.3382873535156 163.6679229736328 C 282.1343688964844 214.22216796875 743.1412353515625 201.5650177001953 15.847098350524902 204.33489990234375 C 33.80625534057617 210.74331665039062 -56.15776062011719 216.27882385253906 -49.1328010559082 159.6307373046875 C 117.38298034667969 160.59242248535156 190.7688446044922 159.25685119628906 232.111083984375 160.84498596191406 C 134.66917419433594 163.7335968017578 193.25489807128906 157.7309112548828 491.3382873535156 163.6679229736328"/>
    <path stroke-width="0" fill="rgb(118, 118, 118)" opacity="0.9688936" stroke="rgb(80, 92, 145)" stroke-opacity="1.0" stroke-linecap="round" stroke-linejoin="round" d="M 529.4820556640625 92.62825012207031 C 451.024169921875 57.231842041015625 519.5056762695312 72.02653503417969 444.12322998046875 66.28412628173828 C 322.7618103027344 74.97689819335938 354.9879150390625 47.39226150512695 360.9034423828125 2.186866521835327 C 356.9342041015625 -22.19562339782715 361.8376770019531 -30.034143447875977 365.468994140625 -25.101844787597656 C 378.7854309082031 59.2747802734375 495.9104309082031 -6.661256790161133 529.4820556640625 92.62825012207031"/>
    <path stroke-width="0" fill="rgb(255, 255, 255)" opacity="1.0" stroke="rgb(252, 26, 53)" stroke-opacity="1.0" stroke-linecap="round" stroke-linejoin="round" d="M 450.6958312988281 41.0826530456543 C 401.5170593261719 52.623130798339844 356.7477111816406 70.4269027709961 353.42523193359375 73.58263397216797 C 398.08551025390625 125.09880828857422 335.79803466796875 85.7518310546875 311.42828369140625 31.0416316986084 C 325.7149963378906 17.085844039916992 339.9345703125 13.73696517944336 416.7234191894531 0.5745509266853333 C 413.847900390625 17.079696655273438 448.26806640625 4.817813396453857 450.6958312988281 41.0826530456543"/>
    <path stroke-width="0" fill="rgb(4, 0, 0)" opacity="0.99331135" stroke="rgb(166, 64, 118)" stroke-opacity="1.0" stroke-linecap="round" stroke-linejoin="round" d="M 130.4679718017578 397.4173583984375 C 236.05552673339844 396.5712890625 121.54268646240234 395.858154296875 -79.09474182128906 395.9297790527344 C 12.522762298583984 410.3332824707031 -49.275997161865234 407.8997802734375 76.09303283691406 407.94677734375 C 110.07679748535156 408.04144287109375 135.00204467773438 407.922607421875 255.86380004882812 407.9220886230469 C 74.09942626953125 391.6904296875 90.38297271728516 395.9915771484375 130.4679718017578 397.4173583984375"/>
    <path stroke-width="0" fill="rgb(105, 105, 106)" opacity="0.94711226" stroke="rgb(40, 28, 167)" stroke-opacity="1.0" stroke-linecap="round" stroke-linejoin="round" d="M 418.0032653808594 -31.604576110839844 C 433.1207580566406 24.527359008789062 453.92620849609375 65.69390869140625 441.4790954589844 5.389658451080322 C 386.5426940917969 -19.198265075683594 374.3493347167969 -16.441923141479492 312.05523681640625 -19.66054916381836 C 315.1639404296875 -29.508440017700195 323.5223083496094 -35.45821762084961 394.3455505371094 -33.86525344848633 C 406.1054382324219 -37.010616302490234 415.6422424316406 -32.56230163574219 418.0032653808594 -31.604576110839844"/>
    <path stroke-width="0" fill="rgb(254, 255, 254)" opacity="0.997351" stroke="rgb(50, 94, 209)" stroke-opacity="1.0" stroke-linecap="round" stroke-linejoin="round" d="M 494.32183837890625 96.00391387939453 C 396.3800048828125 95.43377685546875 364.1590576171875 97.09435272216797 341.07623291015625 94.42596435546875 C 407.88751220703125 99.37835693359375 385.3524475097656 102.66986846923828 202.435302734375 96.95863342285156 C 398.6695861816406 84.46223449707031 354.0371398925781 99.63044738769531 372.8408508300781 81.93509674072266 C 375.69757080078125 73.90272521972656 518.036376953125 57.435672760009766 494.32183837890625 96.00391387939453"/>
    <path stroke-width="0" fill="rgb(113, 112, 112)" opacity="1.0" stroke="rgb(213, 24, 248)" stroke-opacity="1.0" stroke-linecap="round" stroke-linejoin="round" d="M 468.2196960449219 33.560585021972656 C 461.66339111328125 54.89634323120117 427.53167724609375 57.13080978393555 331.28192138671875 85.89188385009766 C 281.3332214355469 91.49459075927734 219.0442352294922 78.75249481201172 -86.8139877319336 88.84729766845703 C -40.06278991699219 -346.3504638671875 68.1061782836914 -207.80335998535156 423.0359191894531 -84.765625 C 470.15447998046875 -57.644874572753906 486.6339111328125 -61.823917388916016 468.2196960449219 33.560585021972656"/>
    <path stroke-width="0" fill="rgb(255, 255, 255)" opacity="0.8505578" stroke="rgb(249, 154, 188)" stroke-opacity="1.0" stroke-linecap="round" stroke-linejoin="round" d="M -17.77853775024414 79.30192565917969 C 324.2861633300781 82.28773498535156 248.80419921875 72.2757797241211 -50.58818817138672 98.46200561523438 C 203.70973205566406 101.1799087524414 171.84844970703125 94.8554916381836 126.71481323242188 102.7293472290039 C 155.99655151367188 97.3919906616211 214.14251708984375 111.8935317993164 362.1803283691406 80.58116912841797 C 23.917463302612305 72.43897247314453 109.69703674316406 112.68670654296875 -17.77853775024414 79.30192565917969"/>
    <path stroke-width="0" fill="rgb(110, 109, 109)" opacity="0.8936518" stroke="rgb(72, 30, 75)" stroke-opacity="1.0" stroke-linecap="round" stroke-linejoin="round" d="M 270.8169860839844 51.61015701293945 C 297.13092041015625 79.00112915039062 377.0062255859375 82.0827407836914 274.4427490234375 66.07333374023438 C 219.32127380371094 77.95289611816406 203.3568878173828 86.18379211425781 199.5955352783203 -2.7585723400115967 C 262.51806640625 -37.65595626831055 279.69085693359375 -34.56483840942383 301.9172668457031 -31.21827507019043 C 374.1885070800781 -23.936630249023438 377.2344665527344 -13.47170352935791 270.8169860839844 51.61015701293945"/>
    <path stroke-width="0" fill="rgb(250, 251, 251)" opacity="0.9968302" stroke="rgb(81, 105, 16)" stroke-opacity="1.0" stroke-linecap="round" stroke-linejoin="round" d="M 548.692626953125 74.32173156738281 C 546.9356689453125 103.32501220703125 533.772705078125 109.36691284179688 520.3757934570312 55.386207580566406 C 414.4730224609375 51.000038146972656 451.0774841308594 64.76905059814453 464.6976623535156 39.562278747558594 C 367.631591796875 42.1957893371582 417.8890686035156 -19.040802001953125 383.04486083984375 -19.846742630004883 C 413.00140380859375 88.0542984008789 489.33599853515625 -0.67855304479599 548.692626953125 74.32173156738281"/>
    <path stroke-width="0" fill="rgb(0, 0, 0)" opacity="0.88261676" stroke="rgb(144, 67, 133)" stroke-opacity="1.0" stroke-linecap="round" stroke-linejoin="round" d="M 131.95608520507812 408.0040283203125 C 123.54150390625 398.83343505859375 104.04074096679688 417.58428955078125 -62.13075256347656 396.5565490722656 C 218.96710205078125 397.1241760253906 295.8636474609375 396.39471435546875 266.28216552734375 399.3502197265625 C 144.908447265625 405.6343688964844 169.0086669921875 395.8250732421875 252.35684204101562 407.1084289550781 C 108.19750213623047 407.9444580078125 118.96441650390625 405.85009765625 131.95608520507812 408.0040283203125"/>
    <path stroke-width="0" fill="rgb(255, 255, 254)" opacity="1.0" stroke="rgb(146, 236, 81)" stroke-opacity="1.0" stroke-linecap="round" stroke-linejoin="round" d="M 439.51934814453125 187.59515380859375 C 440.21099853515625 224.28662109375 440.30694580078125 298.8009338378906 438.7680969238281 288.31146240234375 C 379.5577697753906 314.6720886230469 428.6924743652344 247.96188354492188 418.6412048339844 267.8175964355469 C 427.8613586425781 143.91378784179688 387.2754211425781 254.43023681640625 438.4299621582031 172.980712890625 C 440.8333435058594 201.27359008789062 440.094970703125 248.07933044433594 439.51934814453125 187.59515380859375"/>
    <path stroke-width="0" fill="rgb(1, 0, 0)" opacity="1.0" stroke="rgb(33, 182, 73)" stroke-opacity="1.0" stroke-linecap="round" stroke-linejoin="round" d="M 304.9463806152344 397.4128723144531 C 250.38723754882812 394.22296142578125 262.3655090332031 396.8584289550781 666.9476318359375 395.6036071777344 C 539.5425415039062 418.1824035644531 283.64697265625 401.6553649902344 282.44085693359375 410.9368591308594 C 325.11444091796875 392.53363037109375 326.9595947265625 396.00341796875 102.9374771118164 396.2306823730469 C 279.8853454589844 411.8218688964844 298.76123046875 412.0679626464844 304.9463806152344 397.4128723144531"/>
    <path stroke-width="0" fill="rgb(169, 168, 170)" opacity="0.65625495" stroke="rgb(149, 5, 211)" stroke-opacity="1.0" stroke-linecap="round" stroke-linejoin="round" d="M 523.4894409179688 303.67401123046875 C 496.15130615234375 306.58868408203125 488.15081787109375 291.4454040527344 499.5126647949219 48.74793243408203 C 439.5165100097656 4.27432107925415 469.1998291015625 104.10858154296875 488.4007873535156 -57.20709991455078 C 423.89288330078125 -32.06654739379883 433.3778381347656 -36.32387161254883 469.7552490234375 -42.66332244873047 C 555.4288330078125 -45.57939910888672 543.9959106445312 -55.355979919433594 523.4894409179688 303.67401123046875"/>
    <path stroke-width="0" fill="rgb(253, 254, 252)" opacity="0.9929572" stroke="rgb(172, 68, 187)" stroke-opacity="1.0" stroke-linecap="round" stroke-linejoin="round" d="M 255.2828826904297 115.65821075439453 C 240.1693878173828 126.36681365966797 289.9228820800781 120.3492431640625 263.57733154296875 128.4230194091797 C 291.7333679199219 116.88386535644531 269.35992431640625 135.8816680908203 19.619550704956055 109.51055908203125 C 635.4799194335938 109.7615966796875 610.7564086914062 108.45655059814453 521.0696411132812 133.88975524902344 C 438.06890869140625 111.96243286132812 225.70790100097656 135.9371337890625 255.2828826904297 115.65821075439453"/>
    <path stroke-width="0" fill="rgb(16, 14, 17)" opacity="0.9896772" stroke="rgb(63, 146, 150)" stroke-opacity="1.0" stroke-linecap="round" stroke-linejoin="round" d="M 383.94927978515625 107.11014556884766 C -3.3015739917755127 101.03202056884766 32.5087776184082 98.16329956054688 467.2590026855469 98.58670806884766 C 144.17088317871094 87.00579833984375 -153.58502197265625 96.75460052490234 203.4723358154297 93.96482849121094 C 181.70091247558594 95.10977172851562 7.203531742095947 99.68582153320312 -83.79907989501953 83.60909271240234 C 546.7212524414062 86.32597351074219 275.2861022949219 75.80994415283203 383.94927978515625 107.11014556884766"/>
    <path stroke-width="0" fill="rgb(252, 252, 252)" opacity="0.997979" stroke="rgb(56, 242, 114)" stroke-opacity="1.0" stroke-linecap="round" stroke-linejoin="round" d="M -14.04392147064209 135.86582946777344 C -132.3836669921875 145.3278350830078 -15.001129150390625 136.01052856445312 707.5333251953125 143.12075805664062 C 650.415771484375 127.96162414550781 383.9967956542969 133.03414916992188 17.81340980529785 131.92845153808594 C -69.24327087402344 135.64865112304688 -151.81968688964844 86.50271606445312 250.4769287109375 123.90999603271484 C -39.201751708984375 126.26905822753906 -90.81986999511719 117.78091430664062 -14.04392147064209 135.86582946777344"/>
    <path stroke-width="0" fill="rgb(34, 32, 33)" opacity="0.9430624" stroke="rgb(178, 75, 207)" stroke-opacity="1.0" stroke-linecap="round" stroke-linejoin="round" d="M 187.0474090576172 323.4205322265625 C 114.09941101074219 311.5892028808594 127.98117065429688 293.837646484375 247.21011352539062 306.73846435546875 C 189.8372344970703 329.6412048339844 109.6861801147461 326.5699462890625 37.56667709350586 319.9988098144531 C 158.043212890625 312.5317077636719 185.74191284179688 321.37347412109375 119.23585510253906 318.84991455078125 C 133.39187622070312 325.23052978515625 148.2746124267578 305.7888488769531 187.0474090576172 323.4205322265625"/>
    <path stroke-width="0" fill="rgb(255, 255, 255)" opacity="1.0" stroke="rgb(224, 148, 224)" stroke-opacity="1.0" stroke-linecap="round" stroke-linejoin="round" d="M 483.5447082519531 308.5570983886719 C 483.77130126953125 252.15174865722656 485.3862609863281 274.9732971191406 483.3485412597656 283.58868408203125 C 477.36767578125 273.6407470703125 489.25140380859375 237.61053466796875 471.7978210449219 184.74778747558594 C 480.1547546386719 236.8773956298828 473.58905029296875 220.178955078125 491.406005859375 204.9159393310547 C 493.2855224609375 254.13780212402344 496.2274475097656 342.829833984375 483.5447082519531 308.5570983886719"/>
    <path stroke-width="0" fill="rgb(45, 51, 56)" opacity="0.64610344" stroke="rgb(184, 127, 243)" stroke-opacity="1.0" stroke-linecap="round" stroke-linejoin="round" d="M 107.45704650878906 324.9616394042969 C -26.545215606689453 330.7649841308594 -39.14971160888672 315.3955383300781 0.371344655752182 358.2982177734375 C 14.920496940612793 284.29949951171875 -2.3379507064819336 351.2241516113281 -64.12644958496094 322.8780822753906 C 32.86305236816406 311.0991516113281 63.49106216430664 310.3864440917969 81.86145782470703 317.2542419433594 C 25.95246696472168 304.4031982421875 47.34103775024414 290.0332336425781 107.45704650878906 324.9616394042969"/>
    <path stroke-width="0" fill="rgb(26, 23, 25)" opacity="0.95968175" stroke="rgb(108, 154, 4)" stroke-opacity="1.0" stroke-linecap="round" stroke-linejoin="round" d="M 193.39169311523438 311.5350341796875 C 282.23822021484375 334.8951110839844 181.20480346679688 304.0224609375 284.1380310058594 328.8091125488281 C 55.43122482299805 325.7970275878906 -19.424877166748047 333.54998779296875 177.5595245361328 310.7446594238281 C 185.83367919921875 303.463134765625 185.6811065673828 301.63433837890625 164.99403381347656 312.8721618652344 C 189.7226104736328 324.7319641113281 193.31260681152344 323.3786315917969 193.39169311523438 311.5350341796875"/>
    <path stroke-width="0" fill="rgb(42, 46, 43)" opacity="1.0" stroke="rgb(168, 73, 157)" stroke-opacity="1.0" stroke-linecap="round" stroke-linejoin="round" d="M 287.9139404296875 328.2795715332031 C 164.32888793945312 315.8175964355469 139.4248809814453 325.1695556640625 414.2923278808594 297.4566650390625 C 362.58642578125 295.2496643066406 116.6571044921875 296.13116455078125 -101.38519287109375 295.9677734375 C 165.9735107421875 362.63299560546875 218.6431884765625 277.65203857421875 181.84950256347656 320.66693115234375 C 182.6412353515625 322.46240234375 217.1393585205078 299.93304443359375 287.9139404296875 328.2795715332031"/>
    <path stroke-width="0" fill="rgb(41, 39, 41)" opacity="0.8111225" stroke="rgb(34, 76, 145)" stroke-opacity="1.0" stroke-linecap="round" stroke-linejoin="round" d="M 223.17152404785156 319.54461669921875 C 172.0440673828125 302.99212646484375 160.6304473876953 289.7627868652344 113.80609893798828 324.4878845214844 C 142.73008728027344 326.97222900390625 139.34571838378906 295.9057312011719 198.83038330078125 324.05853271484375 C 210.31423950195312 323.0533447265625 221.3032684326172 325.5088806152344 196.1271209716797 317.2177429199219 C 171.07020568847656 324.68499755859375 179.35975646972656 327.58880615234375 223.17152404785156 319.54461669921875"/>
    <path stroke-width="0" fill="rgb(10, 7, 9)" opacity="0.9423295" stroke="rgb(146, 166, 166)" stroke-opacity="1.0" stroke-linecap="round" stroke-linejoin="round" d="M 465.6924133300781 319.0234069824219 C 387.69097900390625 299.5570373535156 295.9545593261719 322.38726806640625 180.63632202148438 321.76251220703125 C 347.3287353515625 329.4970703125 335.6597595214844 322.2981262207031 310.1373291015625 336.8708190917969 C 305.0806579589844 329.4449157714844 294.3760070800781 312.01068115234375 313.2901611328125 340.70855712890625 C 315.6247253417969 337.2906799316406 309.41387939453125 318.382080078125 465.6924133300781 319.0234069824219"/>
    <path stroke-width="0" fill="rgb(201, 204, 203)" opacity="0.9179607" stroke="rgb(228, 93, 111)" stroke-opacity="1.0" stroke-linecap="round" stroke-linejoin="round" d="M 342.9663391113281 356.47100830078125 C 401.0267333984375 359.2325744628906 292.459228515625 364.6845397949219 304.79693603515625 355.3164367675781 C 331.78875732421875 346.3851623535156 266.07427978515625 344.0337829589844 273.5987854003906 358.6718444824219 C 262.83349609375 313.0876770019531 279.7837829589844 330.08013916015625 291.1877136230469 327.2701416015625 C 349.7843322753906 329.1626892089844 315.9652404785156 315.4027099609375 342.9663391113281 356.47100830078125"/>
    <path stroke-width="0" fill="rgb(26, 24, 25)" opacity="1.0" stroke="rgb(205, 179, 25)" stroke-opacity="1.0" stroke-linecap="round" stroke-linejoin="round" d="M 465.21295166015625 327.8585510253906 C 615.8846435546875 328.0102844238281 546.6151733398438 318.38043212890625 500.38629150390625 320.0467224121094 C 420.621337890625 349.3603515625 408.9271545410156 287.2727355957031 432.410888671875 311.3331298828125 C 514.3385009765625 306.9490966796875 506.7047424316406 284.1363220214844 531.38623046875 290.78369140625 C 462.4278564453125 293.3016662597656 539.3008422851562 321.5827331542969 465.21295166015625 327.8585510253906"/>
    <path stroke-width="0" fill="rgb(83, 82, 83)" opacity="1.0" stroke="rgb(182, 254, 38)" stroke-opacity="1.0" stroke-linecap="round" stroke-linejoin="round" d="M 480.89849853515625 173.80569458007812 C 497.3569030761719 211.30865478515625 453.90631103515625 204.80584716796875 524.361572265625 211.03672790527344 C 484.43255615234375 219.7860870361328 513.6119995117188 205.18312072753906 488.5145263671875 207.68545532226562 C 500.0037536621094 209.0657196044922 516.6077880859375 207.258056640625 440.32135009765625 208.21238708496094 C 458.89862060546875 303.2597961425781 486.5859375 305.1829528808594 480.89849853515625 173.80569458007812"/>
    <path stroke-width="0" fill="rgb(0, 0, 0)" opacity="0.64969456" stroke="rgb(41, 156, 31)" stroke-opacity="1.0" stroke-linecap="round" stroke-linejoin="round" d="M 12.596378326416016 270.0070495605469 C 30.507549285888672 178.28524780273438 -60.44011688232422 210.52113342285156 269.2712097167969 203.3968505859375 C 185.55831909179688 227.7169952392578 17.693830490112305 171.69363403320312 48.40708923339844 273.53558349609375 C 53.54765319824219 231.95501708984375 31.681711196899414 226.9211883544922 106.75101470947266 208.57456970214844 C -19.439666748046875 213.8365936279297 50.40046691894531 189.22372436523438 12.596378326416016 270.0070495605469"/>
    <path stroke-width="0" fill="rgb(35, 36, 36)" opacity="0.7052977" stroke="rgb(205, 145, 103)" stroke-opacity="1.0" stroke-linecap="round" stroke-linejoin="round" d="M 325.013671875 318.0245361328125 C 432.1352233886719 305.3531188964844 371.56988525390625 332.3174743652344 352.4090576171875 326.8592224121094 C 303.0918884277344 328.02587890625 231.42236328125 331.63958740234375 131.56202697753906 311.06988525390625 C -70.02415466308594 292.1749572753906 88.13563537597656 298.08074951171875 490.90594482421875 295.8719482421875 C 335.0768127441406 322.828857421875 307.260986328125 282.2920837402344 325.013671875 318.0245361328125"/>
    <path stroke-width="0" fill="rgb(0, 0, 0)" opacity="0.7510254" stroke="rgb(177, 115, 184)" stroke-opacity="1.0" stroke-linecap="round" stroke-linejoin="round" d="M 427.449462890625 351.8923034667969 C 625.7698974609375 354.89068603515625 664.8059692382812 358.1585998535156 547.5355224609375 376.51812744140625 C 97.56266021728516 374.0028381347656 -15.857406616210938 384.6853332519531 347.551513671875 350.70452880859375 C 424.5065002441406 361.112060546875 371.75146484375 337.3135986328125 379.4617919921875 350.4047546386719 C 312.6861877441406 332.6651306152344 516.9180908203125 329.9430236816406 427.449462890625 351.8923034667969"/>
    <path stroke-width="0" fill="rgb(51, 49, 51)" opacity="1.0" stroke="rgb(248, 218, 2)" stroke-opacity="1.0" stroke-linecap="round" stroke-linejoin="round" d="M -51.22374725341797 506.6196594238281 C 476.5433044433594 511.1632995605469 499.0511169433594 498.2562561035156 52.00941848754883 500.15631103515625 C 61.64846420288086 449.9265441894531 57.281044006347656 476.9587707519531 -30.74447250366211 469.4620666503906 C 65.5100326538086 465.7293701171875 65.58110809326172 471.5013732910156 55.88663864135742 468.1251525878906 C 49.153141021728516 521.5928344726562 82.12945556640625 487.4864196777344 -51.22374725341797 506.6196594238281"/>
    <path stroke-width="0" fill="rgb(39, 36, 38)" opacity="0.96991277" stroke="rgb(186, 43, 132)" stroke-opacity="1.0" stroke-linecap="round" stroke-linejoin="round" d="M 327.5072937011719 370.1632995605469 C 310.6180114746094 321.32196044921875 322.2128601074219 368.2575988769531 13.866704940795898 358.5030517578125 C 402.0709533691406 358.1474914550781 389.96051025390625 354.57342529296875 195.74154663085938 358.78076171875 C 336.768310546875 344.8143005371094 206.32925415039062 360.5174560546875 -208.1417999267578 347.1363220214844 C -48.54252624511719 376.92681884765625 -28.272830963134766 358.480712890625 327.5072937011719 370.1632995605469"/>
    <path stroke-width="0" fill="rgb(0, 0, 0)" opacity="0.7941987" stroke="rgb(50, 4, 202)" stroke-opacity="1.0" stroke-linecap="round" stroke-linejoin="round" d="M 459.5259094238281 205.37001037597656 C 484.4535827636719 335.74407958984375 460.69366455078125 202.99237060546875 458.567626953125 207.36962890625 C 456.0932922363281 202.200439453125 453.3525695800781 260.89495849609375 459.3949890136719 222.9365997314453 C 442.2762756347656 319.2481689453125 475.2848205566406 259.3393859863281 486.5394592285156 246.72470092773438 C 448.81866455078125 299.6014404296875 465.0393981933594 278.3507080078125 459.5259094238281 205.37001037597656"/>
    <path stroke-width="0" fill="rgb(2, 0, 1)" opacity="0.9479801" stroke="rgb(88, 236, 179)" stroke-opacity="1.0" stroke-linecap="round" stroke-linejoin="round" d="M 492.6708984375 142.2976837158203 C 491.3128967285156 150.52883911132812 492.6584777832031 304.2478332519531 491.8139343261719 319.74627685546875 C 478.55816650390625 228.78677368164062 477.5872497558594 242.9593505859375 493.76904296875 322.9537048339844 C 505.47369384765625 194.11219787597656 476.43035888671875 201.27955627441406 533.5012817382812 203.23846435546875 C 472.0329284667969 193.0625457763672 511.9505920410156 255.12266540527344 492.6708984375 142.2976837158203"/>
    <path stroke-width="0" fill="rgb(255, 253, 252)" opacity="0.99962944" stroke="rgb(41, 158, 147)" stroke-opacity="1.0" stroke-linecap="round" stroke-linejoin="round" d="M 319.2260437011719 307.5919189453125 C 252.6883544921875 320.92333984375 212.58485412597656 315.4986572265625 161.2230682373047 322.1946716308594 C 238.24783325195312 312.6607360839844 200.2973175048828 319.5146789550781 86.00831604003906 313.03692626953125 C 206.1941375732422 287.51202392578125 267.6454162597656 314.7572937011719 273.3089599609375 300.3130798339844 C 262.0731506347656 316.367919921875 275.4966735839844 296.1014099121094 319.2260437011719 307.5919189453125"/>
    <path stroke-width="0" fill="rgb(252, 252, 250)" opacity="0.90458715" stroke="rgb(238, 156, 136)" stroke-opacity="1.0" stroke-linecap="round" stroke-linejoin="round" d="M 422.5311279296875 274.0197448730469 C 440.2468566894531 263.62493896484375 432.1982116699219 278.1982421875 431.296630859375 231.34828186035156 C 436.52972412109375 220.79318237304688 430.75274658203125 210.995361328125 436.0301818847656 273.4566345214844 C 434.37493896484375 274.56805419921875 439.00360107421875 263.233642578125 424.35089111328125 271.94232177734375 C 430.03851318359375 290.8377380371094 419.06396484375 259.3820495605469 422.5311279296875 274.0197448730469"/>
    <path stroke-width="0" fill="rgb(32, 30, 33)" opacity="1.0" stroke="rgb(186, 79, 101)" stroke-opacity="1.0" stroke-linecap="round" stroke-linejoin="round" d="M 426.51702880859375 471.71978759765625 C 297.88922119140625 467.75048828125 318.21783447265625 466.616455078125 322.996826171875 469.2593078613281 C 314.8599548339844 468.2059326171875 280.1272277832031 467.2987976074219 607.5792846679688 468.70654296875 C 389.1001892089844 478.72406005859375 352.75048828125 462.8167724609375 201.40438842773438 469.80816650390625 C 146.63414001464844 471.9823913574219 208.3120574951172 472.0510559082031 426.51702880859375 471.71978759765625"/>
    <path stroke-width="0" fill="rgb(0, 0, 0)" opacity="0.5007094" stroke="rgb(47, 240, 188)" stroke-opacity="1.0" stroke-linecap="round" stroke-linejoin="round" d="M 274.09783935546875 355.79876708984375 C 293.9779052734375 332.1401672363281 297.4290466308594 369.1920471191406 501.7024230957031 353.1875915527344 C 366.4371643066406 349.8288269042969 347.06402587890625 353.2236328125 341.863525390625 354.114013671875 C 304.8275146484375 346.01861572265625 336.1237487792969 357.7592468261719 332.6950378417969 322.668701171875 C 411.04144287109375 290.4586486816406 410.4866638183594 371.7686462402344 274.09783935546875 355.79876708984375"/>
    <path stroke-width="0" fill="rgb(0, 0, 0)" opacity="0.73228353" stroke="rgb(57, 64, 14)" stroke-opacity="1.0" stroke-linecap="round" stroke-linejoin="round" d="M 484.62652587890625 172.96359252929688 C 472.093017578125 236.5885772705078 487.4893493652344 439.629150390625 484.0919189453125 190.71405029296875 C 417.4716796875 201.80169677734375 458.2711181640625 145.7991180419922 440.0699462890625 350.8216857910156 C 440.02197265625 148.00408935546875 438.9848937988281 180.21434020996094 443.5787658691406 184.45298767089844 C 435.86676025390625 167.01344299316406 487.5389099121094 179.27752685546875 484.62652587890625 172.96359252929688"/>
    <path stroke-width="0" fill="rgb(113, 113, 113)" opacity="0.97786486" stroke="rgb(79, 177, 96)" stroke-opacity="1.0" stroke-linecap="round" stroke-linejoin="round" d="M 632.7355346679688 75.84001159667969 C 544.6881713867188 158.49591064453125 542.0272216796875 173.1946563720703 502.1847229003906 188.0226287841797 C 493.6492614746094 167.18014526367188 495.0057067871094 59.525630950927734 498.2810974121094 53.26763153076172 C 518.1591796875 113.098876953125 507.47174072265625 84.23045349121094 496.8348388671875 46.652347564697266 C 405.5762939453125 8.724787712097168 443.5464782714844 -99.18252563476562 632.7355346679688 75.84001159667969"/>
    <path stroke-width="0" fill="rgb(255, 255, 255)" opacity="0.9657263" stroke="rgb(6, 17, 173)" stroke-opacity="1.0" stroke-linecap="round" stroke-linejoin="round" d="M 490.5628356933594 300.606689453125 C 511.2731018066406 319.2696838378906 468.2141418457031 309.05413818359375 487.6775817871094 312.1297912597656 C 285.5046081542969 311.7434997558594 179.76898193359375 314.4454650878906 154.17311096191406 300.9122619628906 C 300.6078796386719 299.77642822265625 370.64154052734375 300.1481628417969 431.1329040527344 301.3706359863281 C 337.00927734375 300.92498779296875 310.2264709472656 298.7620544433594 490.5628356933594 300.606689453125"/>
    <path stroke-width="0" fill="rgb(30, 29, 32)" opacity="0.9625534" stroke="rgb(136, 228, 252)" stroke-opacity="1.0" stroke-linecap="round" stroke-linejoin="round" d="M -65.73224639892578 469.60772705078125 C 32.984710693359375 465.7958068847656 80.55656433105469 470.161376953125 22.96973419189453 467.9713439941406 C 85.18343353271484 468.40460205078125 156.5400848388672 467.7863464355469 342.4109191894531 468.8636779785156 C 381.17022705078125 473.4175720214844 205.65814208984375 471.4231262207031 19.195219039916992 472.0881652832031 C 53.77580642700195 470.2398681640625 37.2384033203125 474.9466247558594 -65.73224639892578 469.60772705078125"/>
    <path stroke-width="0" fill="rgb(38, 39, 38)" opacity="0.8783269" stroke="rgb(169, 67, 5)" stroke-opacity="1.0" stroke-linecap="round" stroke-linejoin="round" d="M 120.25868225097656 318.0807189941406 C 113.02516174316406 338.4411315917969 53.84353256225586 310.7737731933594 26.388412475585938 316.1258544921875 C 116.88362121582031 312.5413513183594 126.4623031616211 315.2846374511719 121.38932800292969 315.9801940917969 C 93.57730102539062 320.0799255371094 103.00047302246094 326.03253173828125 134.3114776611328 322.314697265625 C 47.06953811645508 323.3729248046875 45.82058334350586 302.2139892578125 120.25868225097656 318.0807189941406"/>
    <path stroke-width="0" fill="rgb(249, 250, 250)" opacity="0.99790317" stroke="rgb(81, 97, 150)" stroke-opacity="1.0" stroke-linecap="round" stroke-linejoin="round" d="M 137.1306915283203 323.88330078125 C 119.97376251220703 307.58099365234375 106.29096221923828 313.5730285644531 113.22026062011719 325.75103759765625 C 142.3970489501953 296.8641052246094 60.46479797363281 337.2294616699219 -55.12876510620117 300.2120666503906 C 208.20008850097656 300.8977355957031 249.72264099121094 300.146240234375 188.73208618164062 302.76141357421875 C 88.9859848022461 322.359619140625 118.1463851928711 311.36810302734375 137.1306915283203 323.88330078125"/>
    <path stroke-width="0" fill="rgb(29, 28, 30)" opacity="0.9822946" stroke="rgb(160, 222, 69)" stroke-opacity="1.0" stroke-linecap="round" stroke-linejoin="round" d="M 485.9728088378906 442.53509521484375 C 349.7725830078125 440.3086242675781 412.7147521972656 432.05572509765625 -153.5320281982422 438.13494873046875 C 653.2025756835938 454.77667236328125 499.8075866699219 416.1630554199219 500.8314208984375 433.2089538574219 C 279.087646484375 450.5430603027344 549.5013427734375 438.932373046875 247.8982696533203 436.11163330078125 C 502.45220947265625 436.0172424316406 623.7967529296875 434.9733581542969 485.9728088378906 442.53509521484375"/>
    <path stroke-width="0" fill="rgb(213, 213, 215)" opacity="0.83960605" stroke="rgb(47, 242, 175)" stroke-opacity="1.0" stroke-linecap="round" stroke-linejoin="round" d="M 14.24314022064209 420.4685974121094 C 26.092111587524414 407.64544677734375 21.775850296020508 420.39556884765625 -12.008953094482422 425.88140869140625 C 20.99498748779297 420.77386474609375 26.494478225708008 407.3721923828125 14.255589485168457 420.4745178222656 C 25.02137565612793 421.3791198730469 31.110132217407227 422.081298828125 16.771364212036133 420.6512145996094 C 3.6687076091766357 419.4809875488281 4.378298282623291 419.6145935058594 14.24314022064209 420.4685974121094"/>
    <path stroke-width="0" fill="rgb(27, 25, 26)" opacity="1.0" stroke="rgb(241, 186, 64)" stroke-opacity="1.0" stroke-linecap="round" stroke-linejoin="round" d="M 373.6464538574219 312.0506591796875 C 4.204025745391846 340.4794921875 -170.73377990722656 323.79730224609375 17.00575828552246 317.5755920410156 C 106.0280990600586 319.4601135253906 30.27189064025879 315.7874450683594 -72.31455993652344 321.571533203125 C -1.3048661947250366 317.52337646484375 34.21998977661133 338.5412292480469 -46.83024215698242 310.7563171386719 C -131.81277465820312 312.7384033203125 121.97908782958984 311.6348876953125 373.6464538574219 312.0506591796875"/>
    <path stroke-width="0" fill="rgb(28, 27, 28)" opacity="0.80663425" stroke="rgb(132, 6, 52)" stroke-opacity="1.0" stroke-linecap="round" stroke-linejoin="round" d="M 431.05731201171875 316.7803039550781 C 427.53509521484375 318.5818176269531 440.9643249511719 317.46099853515625 441.3802795410156 314.9884338378906 C 432.97528076171875 316.405029296875 427.000244140625 322.0747375488281 349.5143127441406 317.7825012207031 C 430.1555480957031 309.9156799316406 428.9046630859375 326.9796142578125 434.5843811035156 315.8940734863281 C 418.2707214355469 317.0154113769531 411.1519470214844 315.2109069824219 431.05731201171875 316.7803039550781"/>
    <path stroke-width="0" fill="rgb(255, 255, 255)" opacity="0.87523246" stroke="rgb(95, 118, 70)" stroke-opacity="1.0" stroke-linecap="round" stroke-linejoin="round" d="M 545.039794921875 200.7603302001953 C 478.4449462890625 167.6396026611328 508.3187561035156 197.20751953125 497.2538757324219 208.25697326660156 C 488.5957946777344 207.2206573486328 489.5717468261719 194.35067749023438 490.05609130859375 311.3597717285156 C 478.25299072265625 314.4207458496094 485.71160888671875 184.35244750976562 483.8032531738281 159.5608673095703 C 498.5730895996094 216.22718811035156 467.3533630371094 213.97845458984375 545.039794921875 200.7603302001953"/>
    <path stroke-width="0" fill="rgb(53, 52, 53)" opacity="0.9316716" stroke="rgb(220, 29, 131)" stroke-opacity="1.0" stroke-linecap="round" stroke-linejoin="round" d="M 281.33038330078125 489.13031005859375 C 236.2148895263672 491.7974548339844 211.87310791015625 489.99420166015625 279.9555969238281 488.7823486328125 C 293.47113037109375 509.5443420410156 267.42877197265625 508.2667541503906 273.7904968261719 490.8705749511719 C 281.3643798828125 490.12530517578125 322.2972412109375 487.3627014160156 281.6197204589844 489.3250427246094 C 278.179931640625 503.8577880859375 286.801513671875 514.1918334960938 281.33038330078125 489.13031005859375"/>
    <path stroke-width="0" fill="rgb(49, 47, 49)" opacity="0.9218021" stroke="rgb(182, 100, 144)" stroke-opacity="1.0" stroke-linecap="round" stroke-linejoin="round" d="M -18.299169540405273 489.7885437011719 C -7.8937578201293945 499.266845703125 6.037685394287109 475.71392822265625 9.212371826171875 503.8095397949219 C 11.513389587402344 481.7153625488281 70.46842956542969 483.52362060546875 40.38356399536133 507.0934753417969 C 76.99359130859375 493.006591796875 47.518394470214844 484.8291320800781 -2.672151565551758 493.6705017089844 C -17.093894958496094 497.2995910644531 14.672460556030273 488.5734558105469 -18.299169540405273 489.7885437011719"/>
    <path stroke-width="0" fill="rgb(49, 49, 49)" opacity="0.7961813" stroke="rgb(36, 124, 90)" stroke-opacity="1.0" stroke-linecap="round" stroke-linejoin="round" d="M 347.67425537109375 487.1263732910156 C 343.48651123046875 511.4620666503906 327.0486145019531 509.0113220214844 462.1601867675781 501.4206848144531 C 384.6455078125 502.78216552734375 359.9614562988281 497.9154052734375 308.2922668457031 501.8351745605469 C 306.7171325683594 470.839599609375 323.90789794921875 501.7121887207031 311.7619323730469 502.4914855957031 C 355.7369079589844 513.503173828125 364.6391296386719 494.638427734375 347.67425537109375 487.1263732910156"/>
    <path stroke-width="0" fill="rgb(77, 74, 77)" opacity="0.8410623" stroke="rgb(195, 190, 230)" stroke-opacity="1.0" stroke-linecap="round" stroke-linejoin="round" d="M 143.4022674560547 491.0509338378906 C 109.35528564453125 493.00811767578125 122.88400268554688 489.7853698730469 117.13115692138672 491.4575500488281 C 106.22511291503906 489.35955810546875 106.04655456542969 489.500244140625 115.0132064819336 491.0793151855469 C 107.58377075195312 490.5038146972656 109.32408905029297 490.07000732421875 134.00648498535156 490.48590087890625 C 112.14730072021484 486.7595520019531 101.40184020996094 491.0733337402344 143.4022674560547 491.0509338378906"/>
    <path stroke-width="0" fill="rgb(204, 202, 200)" opacity="0.7150283" stroke="rgb(140, 149, 245)" stroke-opacity="1.0" stroke-linecap="round" stroke-linejoin="round" d="M 83.70413970947266 385.74261474609375 C 61.714969635009766 376.3754577636719 32.9245491027832 361.52484130859375 85.63886260986328 369.4989318847656 C 124.1436996459961 360.9134521484375 108.45408630371094 373.5907287597656 110.56306457519531 373.9294128417969 C 29.974775314331055 374.1058654785156 58.0153923034668 368.8104553222656 87.0911865234375 388.5314636230469 C 82.05595397949219 383.7425842285156 86.75286102294922 395.08599853515625 83.70413970947266 385.74261474609375"/>
    <path stroke-width="0" fill="rgb(255, 255, 255)" opacity="0.94308424" stroke="rgb(61, 25, 4)" stroke-opacity="1.0" stroke-linecap="round" stroke-linejoin="round" d="M 425.9919128417969 335.9109191894531 C 377.78607177734375 333.24151611328125 386.81524658203125 343.7510070800781 380.85919189453125 324.621337890625 C 418.0452880859375 320.8923645019531 414.86712646484375 322.0502014160156 389.52728271484375 323.9356689453125 C 372.5500183105469 321.50244140625 407.4435119628906 325.5423583984375 408.8166809082031 322.6900329589844 C 393.50067138671875 326.8629455566406 459.5587158203125 318.30804443359375 425.9919128417969 335.9109191894531"/>
    <path stroke-width="0" fill="rgb(66, 67, 68)" opacity="0.6843057" stroke="rgb(170, 200, 71)" stroke-opacity="1.0" stroke-linecap="round" stroke-linejoin="round" d="M 362.8984375 556.1275634765625 C 348.72296142578125 522.590087890625 334.55828857421875 494.6324157714844 354.3902587890625 505.24591064453125 C 435.9110107421875 505.2996520996094 347.46612548828125 505.0712585449219 319.8446960449219 506.1670227050781 C 361.8289489746094 513.1467895507812 348.69061279296875 475.04864501953125 347.0032958984375 493.26531982421875 C 335.7959899902344 512.4080810546875 359.8949890136719 532.1768188476562 362.8984375 556.1275634765625"/>
    <path stroke-width="0" fill="rgb(35, 32, 35)" opacity="0.92820305" stroke="rgb(16, 123, 249)" stroke-opacity="1.0" stroke-linecap="round" stroke-linejoin="round" d="M 353.30194091796875 448.4419250488281 C 371.1032409667969 448.28076171875 327.8310852050781 432.4958190917969 392.34405517578125 447.5423583984375 C 345.7650146484375 439.47882080078125 366.6787414550781 429.7792053222656 358.8280029296875 448.0115661621094 C 394.4871826171875 444.74652099609375 387.8949279785156 455.2780456542969 352.5711975097656 451.2704772949219 C 314.6337585449219 450.5888977050781 318.91015625 450.4304504394531 353.30194091796875 448.4419250488281"/>
    <path stroke-width="0" fill="rgb(52, 51, 53)" opacity="0.8868116" stroke="rgb(86, 245, 59)" stroke-opacity="1.0" stroke-linecap="round" stroke-linejoin="round" d="M 258.38006591796875 449.1582946777344 C 263.81280517578125 454.7428283691406 265.91363525390625 445.99945068359375 246.27565002441406 428.5888366699219 C 260.8117370605469 443.3387145996094 271.5489807128906 458.2043762207031 270.7168273925781 449.0539245605469 C 284.67120361328125 451.6583557128906 292.3985595703125 446.90985107421875 260.3369445800781 450.5013427734375 C 238.3231201171875 447.14923095703125 249.28836059570312 453.4360656738281 258.38006591796875 449.1582946777344"/>
    <path stroke-width="0" fill="rgb(7, 4, 6)" opacity="0.95627874" stroke="rgb(240, 203, 160)" stroke-opacity="1.0" stroke-linecap="round" stroke-linejoin="round" d="M -16.515504837036133 372.3447265625 C 35.28654861450195 347.99114990234375 30.771066665649414 355.5168762207031 -0.43176698684692383 363.27423095703125 C 86.31591033935547 357.79833984375 71.45138549804688 368.6871643066406 88.80133819580078 350.4543151855469 C 58.978702545166016 386.31427001953125 76.8341293334961 342.34600830078125 -27.658334732055664 375.5291748046875 C 139.06788635253906 378.5123596191406 375.450927734375 370.2437744140625 -16.515504837036133 372.3447265625"/>
    <path stroke-width="0" fill="rgb(174, 171, 173)" opacity="0.807363" stroke="rgb(74, 216, 157)" stroke-opacity="1.0" stroke-linecap="round" stroke-linejoin="round" d="M 593.5253295898438 371.0676574707031 C 354.7848815917969 363.88055419921875 296.96923828125 369.44451904296875 286.31915283203125 367.9769287109375 C 338.6044921875 370.74493408203125 330.4792785644531 369.7516174316406 337.2295837402344 369.7197265625 C 322.11517333984375 364.8656311035156 329.035888671875 376.4980773925781 337.3984375 369.9783935546875 C 277.8670349121094 370.2541198730469 261.86798095703125 373.8252258300781 593.5253295898438 371.0676574707031"/>
    <path stroke-width="0" fill="rgb(54, 53, 55)" opacity="0.8037279" stroke="rgb(88, 37, 250)" stroke-opacity="1.0" stroke-linecap="round" stroke-linejoin="round" d="M 349.3654479980469 505.51837158203125 C 338.6396179199219 478.2959899902344 357.5937805175781 483.5860595703125 350.7467346191406 536.7341918945312 C 389.709716796875 540.351318359375 370.87957763671875 494.86138916015625 388.7332763671875 503.36541748046875 C 391.992431640625 494.84075927734375 386.08758544921875 459.4571228027344 374.8212585449219 545.0665283203125 C 341.84149169921875 505.6133728027344 353.53656005859375 499.9212341308594 349.3654479980469 505.51837158203125"/>
    <path stroke-width="0" fill="rgb(57, 52, 55)" opacity="0.9526404" stroke="rgb(126, 163, 93)" stroke-opacity="1.0" stroke-linecap="round" stroke-linejoin="round" d="M 540.8271484375 510.4786376953125 C 465.3797607421875 503.57586669921875 440.1904602050781 502.869140625 421.3544921875 505.6672058105469 C 522.43408203125 513.1755981445312 481.25927734375 497.355224609375 500.3736572265625 499.4345397949219 C 494.2904357910156 512.186279296875 509.1651306152344 494.8919982910156 456.9924621582031 504.0468444824219 C 488.9097595214844 502.2573547363281 520.5139770507812 489.6821594238281 540.8271484375 510.4786376953125"/>
    <path stroke-width="0" fill="rgb(38, 37, 40)" opacity="0.96073896" stroke="rgb(209, 48, 130)" stroke-opacity="1.0" stroke-linecap="round" stroke-linejoin="round" d="M 67.13948822021484 448.8150329589844 C 86.22731018066406 454.43603515625 18.82550811767578 443.28863525390625 -54.05113983154297 451.9089050292969 C 102.4107437133789 453.15875244140625 107.95992279052734 450.83209228515625 100.23182678222656 451.45050048828125 C 82.55988311767578 449.97406005859375 86.78905487060547 446.560302734375 67.86455535888672 452.6170654296875 C 67.66334533691406 415.24761962890625 78.56033325195312 459.6538391113281 67.13948822021484 448.8150329589844"/>
    <path stroke-width="0" fill="rgb(58, 55, 57)" opacity="0.65097314" stroke="rgb(24, 219, 248)" stroke-opacity="1.0" stroke-linecap="round" stroke-linejoin="round" d="M 238.6729278564453 428.8434753417969 C 250.5013427734375 436.27337646484375 228.69293212890625 427.0371398925781 256.6681823730469 430.834716796875 C 307.2913818359375 432.3335266113281 298.29571533203125 425.23333740234375 230.83633422851562 429.7577819824219 C 276.3887939453125 430.5915832519531 269.2379150390625 429.57147216796875 201.87026977539062 430.9565124511719 C 236.18215942382812 430.6473388671875 234.298583984375 426.5813903808594 238.6729278564453 428.8434753417969"/>
    <path stroke-width="0" fill="rgb(62, 59, 62)" opacity="0.8935165" stroke="rgb(231, 197, 84)" stroke-opacity="1.0" stroke-linecap="round" stroke-linejoin="round" d="M 378.9857177734375 501.2293395996094 C 441.8378601074219 505.3882751464844 443.92303466796875 510.8519592285156 434.9533996582031 494.1727600097656 C 441.224853515625 513.5010375976562 427.9567565917969 492.4013366699219 439.3561706542969 499.9281311035156 C 425.858642578125 499.1903991699219 433.2785339355469 509.3117370605469 454.7454528808594 498.9023132324219 C 402.0939025878906 500.3017272949219 400.1235046386719 502.4698486328125 378.9857177734375 501.2293395996094"/>
    <path stroke-width="0" fill="rgb(152, 145, 155)" opacity="0.5633459" stroke="rgb(103, 59, 33)" stroke-opacity="1.0" stroke-linecap="round" stroke-linejoin="round" d="M 59.824867248535156 93.12303161621094 C 57.21351623535156 89.09236145019531 20.58663558959961 97.0491714477539 -8.287647247314453 97.47296142578125 C 43.21469497680664 91.80448913574219 57.386634826660156 88.5500259399414 46.93552017211914 101.79534149169922 C 52.780616760253906 102.39106750488281 65.38159942626953 93.85343170166016 48.163169860839844 102.7593002319336 C 47.24095916748047 104.32272338867188 52.830772399902344 94.9531021118164 59.824867248535156 93.12303161621094"/>
    <path stroke-width="0" fill="rgb(30, 28, 31)" opacity="0.8822371" stroke="rgb(185, 2, 196)" stroke-opacity="1.0" stroke-linecap="round" stroke-linejoin="round" d="M 105.3217544555664 452.67230224609375 C 91.41133117675781 443.29400634765625 106.9495849609375 432.8753662109375 130.251708984375 439.8228454589844 C 139.0901336669922 458.50213623046875 123.3213119506836 446.62359619140625 -11.078603744506836 451.9344177246094 C 128.44427490234375 448.4849548339844 136.20944213867188 456.4537048339844 135.65811157226562 443.133056640625 C 135.32911682128906 436.3101806640625 94.64668273925781 428.25823974609375 105.3217544555664 452.67230224609375"/>
    <path stroke-width="0" fill="rgb(36, 34, 36)" opacity="1.0" stroke="rgb(20, 22, 171)" stroke-opacity="1.0" stroke-linecap="round" stroke-linejoin="round" d="M 461.5158996582031 492.89849853515625 C 442.60211181640625 490.386962890625 474.07598876953125 522.6326293945312 501.2920837402344 493.9874572753906 C 579.1316528320312 486.25830078125 574.8751831054688 489.0317687988281 142.0734100341797 487.9237976074219 C 328.7361755371094 498.68548583984375 621.1146240234375 482.40960693359375 451.5202941894531 503.1686706542969 C 467.1105041503906 486.6065673828125 456.15728759765625 503.014404296875 461.5158996582031 492.89849853515625"/>
    <path stroke-width="0" fill="rgb(0, 0, 1)" opacity="0.78013885" stroke="rgb(107, 142, 219)" stroke-opacity="1.0" stroke-linecap="round" stroke-linejoin="round" d="M 349.0279235839844 431.67840576171875 C 282.5938415527344 432.0834045410156 343.2863464355469 430.2462158203125 315.1816101074219 438.6358337402344 C 395.7622985839844 439.2978820800781 341.412353515625 443.8625793457031 313.58099365234375 440.4825439453125 C 347.9295959472656 424.1837158203125 313.5499267578125 437.5990905761719 -22.58831214904785 429.1083068847656 C 746.140869140625 425.5030517578125 717.70947265625 432.5739440917969 349.0279235839844 431.67840576171875"/>
    <path stroke-width="0" fill="rgb(37, 36, 39)" opacity="1.0" stroke="rgb(68, 33, 14)" stroke-opacity="1.0" stroke-linecap="round" stroke-linejoin="round" d="M 166.70765686035156 438.1608581542969 C 150.02842712402344 454.71533203125 221.57273864746094 443.2837219238281 -56.578285217285156 450.8896179199219 C 377.8890380859375 455.234375 429.1293640136719 446.7243957519531 175.42649841308594 448.8364562988281 C 160.92227172851562 446.17626953125 170.60928344726562 456.75054931640625 167.23951721191406 436.8601989746094 C 169.22348022460938 432.1387023925781 171.9536895751953 452.1130065917969 166.70765686035156 438.1608581542969"/>
    <path stroke-width="0" fill="rgb(186, 185, 185)" opacity="0.82562935" stroke="rgb(66, 116, 174)" stroke-opacity="1.0" stroke-linecap="round" stroke-linejoin="round" d="M 240.35435485839844 368.072265625 C 206.94076538085938 364.8874206542969 193.26629638671875 362.9530334472656 236.7947540283203 375.0223388671875 C 198.7667999267578 362.9440002441406 191.6925506591797 354.30413818359375 152.79380798339844 335.20263671875 C 189.33578491210938 350.7063293457031 196.46673583984375 365.65350341796875 235.40481567382812 370.164306640625 C 58.16164016723633 377.161376953125 88.06114959716797 363.10943603515625 240.35435485839844 368.072265625"/>
    <path stroke-width="0" fill="rgb(249, 251, 250)" opacity="0.8158614" stroke="rgb(72, 96, 46)" stroke-opacity="1.0" stroke-linecap="round" stroke-linejoin="round" d="M 447.088623046875 200.89263916015625 C 454.53228759765625 198.3412628173828 470.4989929199219 205.909912109375 488.6802062988281 204.72067260742188 C 466.08380126953125 202.67840576171875 457.3235168457031 193.84349060058594 465.59710693359375 198.86575317382812 C 475.9586181640625 206.2726287841797 492.5556335449219 203.3232421875 449.8617858886719 200.20895385742188 C 443.21783447265625 207.84385681152344 456.9444885253906 207.82167053222656 447.088623046875 200.89263916015625"/>
    <path stroke-width="0" fill="rgb(25, 23, 24)" opacity="0.88500357" stroke="rgb(14, 177, 198)" stroke-opacity="1.0" stroke-linecap="round" stroke-linejoin="round" d="M 357.035400390625 357.3441467285156 C 383.88153076171875 361.94921875 372.91253662109375 360.1454772949219 398.8608703613281 360.5705871582031 C 420.4156799316406 349.6768493652344 414.1639709472656 345.49188232421875 412.9580383300781 343.40093994140625 C 426.87969970703125 366.3757629394531 416.9778747558594 333.7389221191406 410.3678894042969 354.70294189453125 C 428.5889587402344 372.743896484375 378.3053894042969 355.6795349121094 357.035400390625 357.3441467285156"/>
    <path stroke-width="0" fill="rgb(53, 51, 53)" opacity="0.86497504" stroke="rgb(66, 95, 149)" stroke-opacity="1.0" stroke-linecap="round" stroke-linejoin="round" d="M 431.92572021484375 519.1179809570312 C 411.28070068359375 489.9942626953125 448.0168762207031 495.4820251464844 437.1655578613281 497.8626403808594 C 439.4476318359375 499.89300537109375 405.4492492675781 499.67547607421875 335.96807861328125 503.5811767578125 C 404.3799133300781 507.2644348144531 442.0516662597656 511.9740905761719 450.34796142578125 503.6169738769531 C 396.33978271484375 473.0505065917969 429.7242126464844 511.5154724121094 431.92572021484375 519.1179809570312"/>
    <path stroke-width="0" fill="rgb(243, 245, 243)" opacity="0.8679171" stroke="rgb(94, 50, 117)" stroke-opacity="1.0" stroke-linecap="round" stroke-linejoin="round" d="M 469.583984375 283.85601806640625 C 450.1198425292969 283.10357666015625 460.2285461425781 283.4797668457031 468.3523864746094 283.8754577636719 C 461.0491943359375 289.4017639160156 465.2005615234375 287.5726318359375 472.8050231933594 284.9324645996094 C 470.9946594238281 285.1923522949219 473.0012512207031 285.2458190917969 460.3335266113281 289.02642822265625 C 444.0105285644531 298.316650390625 458.9952392578125 289.8363952636719 469.583984375 283.85601806640625"/>
    <path stroke-width="0" fill="rgb(43, 41, 43)" opacity="0.7621946" stroke="rgb(203, 19, 132)" stroke-opacity="1.0" stroke-linecap="round" stroke-linejoin="round" d="M 573.5328369140625 513.086669921875 C 538.4910888671875 501.0642395019531 247.60720825195312 515.0462646484375 192.95816040039062 500.9514465332031 C 447.792236328125 498.1873474121094 494.94891357421875 504.58831787109375 504.03515625 489.42449951171875 C 530.6863403320312 493.5672607421875 580.539306640625 489.1524353027344 412.9637145996094 489.34515380859375 C 505.3256530761719 485.7099609375 468.1100769042969 495.6799621582031 573.5328369140625 513.086669921875"/>
    <path stroke-width="0" fill="rgb(53, 51, 53)" opacity="0.92711216" stroke="rgb(147, 244, 164)" stroke-opacity="1.0" stroke-linecap="round" stroke-linejoin="round" d="M 88.58988189697266 490.5780334472656 C 22.282203674316406 490.4336853027344 -13.484500885009766 489.13775634765625 80.44733428955078 492.2335510253906 C 78.4667739868164 483.2317199707031 85.1173095703125 494.9995422363281 89.85417175292969 519.6925659179688 C 87.97150421142578 492.8518371582031 89.2109603881836 502.6093444824219 89.88142395019531 504.5828552246094 C 68.23990631103516 494.1807861328125 94.5379867553711 518.4700927734375 88.58988189697266 490.5780334472656"/>
    <path stroke-width="0" fill="rgb(52, 50, 52)" opacity="0.95938754" stroke="rgb(109, 130, 136)" stroke-opacity="1.0" stroke-linecap="round" stroke-linejoin="round" d="M 131.4906768798828 504.61102294921875 C 133.96295166015625 475.37896728515625 128.3092803955078 497.3729553222656 125.63664245605469 488.3889465332031 C 124.24104309082031 524.372314453125 125.76128387451172 495.4220886230469 126.59728240966797 504.51959228515625 C 123.9771728515625 504.25238037109375 145.7585906982422 507.5118408203125 117.6880111694336 504.9670715332031 C 118.46403503417969 498.8316345214844 123.54248046875 510.94659423828125 131.4906768798828 504.61102294921875"/>
    <path stroke-width="0" fill="rgb(243, 244, 243)" opacity="0.8997092" stroke="rgb(70, 32, 100)" stroke-opacity="1.0" stroke-linecap="round" stroke-linejoin="round" d="M 403.552490234375 86.88710021972656 C 420.9085998535156 78.18292236328125 435.40338134765625 86.38388061523438 405.25555419921875 92.80952453613281 C 410.2610168457031 92.24752044677734 437.3544006347656 81.35798645019531 421.5482482910156 91.85279083251953 C 426.4918212890625 91.80322265625 423.958740234375 74.46827697753906 403.33099365234375 87.40087890625 C 388.759765625 94.88373565673828 394.7497253417969 91.75159454345703 403.552490234375 86.88710021972656"/>
    <path stroke-width="0" fill="rgb(35, 33, 37)" opacity="0.93636876" stroke="rgb(47, 230, 138)" stroke-opacity="1.0" stroke-linecap="round" stroke-linejoin="round" d="M 229.25062561035156 452.0309753417969 C 225.7802276611328 435.7103576660156 235.6229248046875 441.2958068847656 230.51158142089844 451.2465515136719 C 431.0619812011719 454.65069580078125 401.25982666015625 444.7950439453125 260.5691223144531 449.5400085449219 C 257.6623229980469 423.23333740234375 278.8488464355469 459.4771423339844 242.59201049804688 449.0645446777344 C 250.54681396484375 451.2499084472656 224.39498901367188 446.7076721191406 229.25062561035156 452.0309753417969"/>
    <path stroke-width="0" fill="rgb(55, 53, 54)" opacity="0.889911" stroke="rgb(224, 116, 184)" stroke-opacity="1.0" stroke-linecap="round" stroke-linejoin="round" d="M 201.05528259277344 356.5308532714844 C 213.19781494140625 349.7327880859375 205.48150634765625 355.450927734375 238.30506896972656 358.8500061035156 C 254.80697631835938 355.2816467285156 239.8285369873047 348.23944091796875 240.8703155517578 356.56353759765625 C 239.32945251464844 349.97003173828125 195.8107452392578 362.662353515625 171.55284118652344 353.10693359375 C 212.93582153320312 351.40802001953125 235.88555908203125 362.55810546875 201.05528259277344 356.5308532714844"/>
    <path stroke-width="0" fill="rgb(205, 203, 203)" opacity="0.7932668" stroke="rgb(230, 175, 178)" stroke-opacity="1.0" stroke-linecap="round" stroke-linejoin="round" d="M 176.4070281982422 368.0228576660156 C 178.66709899902344 377.28662109375 233.1016387939453 361.64312744140625 259.2823486328125 364.2790832519531 C 229.0232696533203 365.4106750488281 228.37884521484375 360.2125549316406 240.52639770507812 371.7454833984375 C 230.14549255371094 373.05322265625 224.53318786621094 371.453369140625 418.8166198730469 372.21929931640625 C 117.33274841308594 356.22491455078125 316.3417663574219 381.9032287597656 176.4070281982422 368.0228576660156"/>
    <path stroke-width="0" fill="rgb(204, 205, 204)" opacity="0.5091053" stroke="rgb(192, 162, 61)" stroke-opacity="1.0" stroke-linecap="round" stroke-linejoin="round" d="M 454.5316467285156 290.5332946777344 C 463.2941589355469 291.7810974121094 439.79461669921875 294.62969970703125 448.21893310546875 256.2091064453125 C 442.7270202636719 280.9277038574219 449.7405090332031 288.3708801269531 458.48876953125 291.2708435058594 C 462.2627258300781 297.7379150390625 469.2682800292969 294.8812255859375 453.1164855957031 329.7791748046875 C 468.2894287109375 299.2454528808594 468.11541748046875 298.0735168457031 454.5316467285156 290.5332946777344"/>
    <path stroke-width="0" fill="rgb(216, 216, 215)" opacity="0.8694568" stroke="rgb(203, 244, 116)" stroke-opacity="1.0" stroke-linecap="round" stroke-linejoin="round" d="M 121.51317596435547 417.771484375 C 123.0509033203125 411.45263671875 117.86026763916016 424.5777893066406 120.33924102783203 419.2105712890625 C 126.39399719238281 414.6879577636719 96.71112823486328 418.7174987792969 121.15403747558594 419.7182312011719 C 144.81112670898438 421.63427734375 152.31488037109375 421.9249267578125 112.90480041503906 419.0328674316406 C 107.21094512939453 417.3172912597656 119.19109344482422 416.4356384277344 121.51317596435547 417.771484375"/>
    <path stroke-width="0" fill="rgb(42, 41, 43)" opacity="0.79835" stroke="rgb(218, 116, 242)" stroke-opacity="1.0" stroke-linecap="round" stroke-linejoin="round" d="M 445.6477355957031 503.95416259765625 C 427.97235107421875 499.2011413574219 418.29400634765625 506.97332763671875 464.4051208496094 499.6326904296875 C 419.76055908203125 504.38763427734375 399.8824768066406 506.44873046875 455.6869201660156 503.88690185546875 C 457.8453674316406 507.1812744140625 473.609619140625 505.7349853515625 499.458740234375 499.8282165527344 C 424.9398498535156 490.87847900390625 438.10943603515625 508.1474914550781 445.6477355957031 503.95416259765625"/>
    <path stroke-width="0" fill="rgb(140, 140, 140)" opacity="0.79525095" stroke="rgb(209, 231, 207)" stroke-opacity="1.0" stroke-linecap="round" stroke-linejoin="round" d="M 556.7418823242188 498.75848388671875 C 399.1617126464844 505.07928466796875 430.89910888671875 489.3874206542969 427.0573425292969 517.8657836914062 C 428.48455810546875 509.5979309082031 426.7521057128906 518.0830688476562 424.4398193359375 511.4927978515625 C 438.8262023925781 480.5501708984375 396.4747009277344 497.01275634765625 499.6416320800781 492.6629638671875 C 435.800537109375 466.65447998046875 417.77471923828125 481.79156494140625 556.7418823242188 498.75848388671875"/>
    <path stroke-width="0" fill="rgb(72, 72, 72)" opacity="0.7600521" stroke="rgb(160, 101, 15)" stroke-opacity="1.0" stroke-linecap="round" stroke-linejoin="round" d="M 392.3899841308594 272.359130859375 C 489.7375183105469 273.66986083984375 243.1356201171875 243.42889404296875 294.4734191894531 203.91761779785156 C 459.4591979980469 206.47451782226562 408.44732666015625 190.87437438964844 415.5632019042969 268.5228271484375 C 357.61846923828125 247.92083740234375 366.0050964355469 261.88848876953125 287.9335021972656 223.54742431640625 C 294.9334716796875 283.1273193359375 256.20379638671875 271.07012939453125 392.3899841308594 272.359130859375"/>
    <path stroke-width="0" fill="rgb(36, 34, 36)" opacity="0.9728808" stroke="rgb(65, 216, 8)" stroke-opacity="1.0" stroke-linecap="round" stroke-linejoin="round" d="M 230.28054809570312 490.40863037109375 C 219.99423217773438 488.62109375 123.73235321044922 487.017822265625 -115.41539001464844 489.7295227050781 C 238.2240753173828 496.8396301269531 210.59765625 483.7268371582031 204.1378631591797 504.73095703125 C 193.2555389404297 482.6713562011719 192.8306427001953 496.5884094238281 298.0301208496094 490.2620544433594 C 177.78305053710938 490.6810302734375 197.15472412109375 492.6979064941406 230.28054809570312 490.40863037109375"/>
    <path stroke-width="0" fill="rgb(34, 33, 35)" opacity="0.77235264" stroke="rgb(90, 90, 4)" stroke-opacity="1.0" stroke-linecap="round" stroke-linejoin="round" d="M 279.1022644042969 438.05413818359375 C 274.6544189453125 432.5549011230469 277.40911865234375 440.894287109375 289.7550964355469 438.1556091308594 C 302.21185302734375 448.6778259277344 286.73345947265625 437.994384765625 287.4794616699219 433.3664855957031 C 293.03973388671875 468.7895812988281 363.4548034667969 441.2059326171875 288.0743408203125 452.4216613769531 C 304.3861999511719 441.4334716796875 304.159912109375 445.68011474609375 279.1022644042969 438.05413818359375"/>
    <path stroke-width="0" fill="rgb(22, 21, 22)" opacity="0.7673329" stroke="rgb(102, 236, 25)" stroke-opacity="1.0" stroke-linecap="round" stroke-linejoin="round" d="M -26.478639602661133 438.9189147949219 C 57.636924743652344 449.1289978027344 24.772775650024414 432.27972412109375 -7.086016654968262 439.3153991699219 C 127.97920989990234 441.2449035644531 156.18142700195312 421.05145263671875 -74.0451889038086 430.1015319824219 C 147.0423583984375 436.87689208984375 108.27802276611328 420.67694091796875 83.33267974853516 440.9939880371094 C 45.71924591064453 442.9881591796875 23.741607666015625 439.1380615234375 -26.478639602661133 438.9189147949219"/>
    <path stroke-width="0" fill="rgb(73, 71, 73)" opacity="0.9123918" stroke="rgb(221, 115, 83)" stroke-opacity="1.0" stroke-linecap="round" stroke-linejoin="round" d="M 561.1298217773438 360.9526672363281 C 453.0738220214844 347.1334228515625 433.8193359375 368.4870910644531 451.8113098144531 359.1875915527344 C 475.10479736328125 356.4576110839844 467.5702819824219 354.3645324707031 469.71258544921875 357.36627197265625 C 483.7031555175781 355.9716796875 431.43109130859375 356.0896911621094 117.5568618774414 356.1856994628906 C 406.30035400390625 365.6260681152344 489.1872863769531 356.02520751953125 561.1298217773438 360.9526672363281"/>
    <path stroke-width="0" fill="rgb(14, 12, 14)" opacity="0.86382174" stroke="rgb(156, 8, 3)" stroke-opacity="1.0" stroke-linecap="round" stroke-linejoin="round" d="M 307.32855224609375 357.2930908203125 C 325.59722900390625 348.12823486328125 303.6739807128906 344.5395812988281 307.7930603027344 363.0064392089844 C 368.2425537109375 350.0875244140625 379.1953125 347.816650390625 336.34979248046875 348.0938720703125 C 304.7478332519531 381.8292541503906 318.5141906738281 348.34326171875 351.6406555175781 356.8896789550781 C 317.4068908691406 354.2014465332031 308.2646179199219 374.255126953125 307.32855224609375 357.2930908203125"/>
    <path stroke-width="0" fill="rgb(201, 201, 201)" opacity="0.68154496" stroke="rgb(17, 64, 56)" stroke-opacity="1.0" stroke-linecap="round" stroke-linejoin="round" d="M 448.7992248535156 83.73336029052734 C 471.4640197753906 86.55428314208984 483.6572570800781 97.7519302368164 468.0262756347656 89.63218688964844 C 474.73760986328125 95.12566375732422 486.3676452636719 84.70079803466797 489.65869140625 82.56519317626953 C 488.9385986328125 94.2519760131836 495.2944641113281 85.2144546508789 483.41766357421875 86.14250946044922 C 479.51495361328125 91.48523712158203 482.9805603027344 94.05758666992188 448.7992248535156 83.73336029052734"/>
    <path stroke-width="0" fill="rgb(69, 65, 69)" opacity="0.41379306" stroke="rgb(33, 3, 29)" stroke-opacity="1.0" stroke-linecap="round" stroke-linejoin="round" d="M 435.64154052734375 509.4732971191406 C 455.3722839355469 491.3527526855469 454.70697021484375 513.6419067382812 451.3016357421875 519.0530395507812 C 438.4250793457031 489.593994140625 470.1864013671875 515.4967651367188 457.6472473144531 490.1284484863281 C 442.4698181152344 541.4117431640625 478.2627868652344 525.3017578125 450.5355529785156 526.1431884765625 C 446.5790100097656 505.1916198730469 452.7281494140625 493.7052307128906 435.64154052734375 509.4732971191406"/>
    <path stroke-width="0" fill="rgb(37, 34, 37)" opacity="0.77646327" stroke="rgb(248, 252, 104)" stroke-opacity="1.0" stroke-linecap="round" stroke-linejoin="round" d="M 455.7386169433594 505.0120849609375 C 466.7383117675781 487.6381530761719 456.234130859375 491.3731689453125 413.21710205078125 487.4325256347656 C 534.1483764648438 497.56719970703125 487.01239013671875 483.7152099609375 503.6560363769531 505.29833984375 C 474.5528869628906 491.34429931640625 486.5507507324219 493.5759582519531 551.6864013671875 490.5312805175781 C 447.4040832519531 489.0435485839844 449.9898681640625 482.9534912109375 455.7386169433594 505.0120849609375"/>
    <path stroke-width="0" fill="rgb(126, 124, 124)" opacity="0.5613378" stroke="rgb(162, 125, 252)" stroke-opacity="1.0" stroke-linecap="round" stroke-linejoin="round" d="M 232.6315460205078 118.01600646972656 C 240.39353942871094 92.31991577148438 238.77410888671875 98.4173583984375 235.47796630859375 104.31242370605469 C 235.80332946777344 104.60101318359375 236.3057098388672 105.28303527832031 233.16604614257812 104.03196716308594 C 236.91648864746094 102.74561309814453 244.7222137451172 91.99285888671875 245.3898162841797 70.24811553955078 C 244.514892578125 88.47937774658203 238.35870361328125 101.16416931152344 232.6315460205078 118.01600646972656"/>
    <path stroke-width="0" fill="rgb(33, 31, 35)" opacity="0.9035071" stroke="rgb(199, 73, 61)" stroke-opacity="1.0" stroke-linecap="round" stroke-linejoin="round" d="M 418.1101989746094 439.5501403808594 C 346.6894226074219 433.9884033203125 388.5894470214844 469.6365966796875 620.8411865234375 440.5181579589844 C 290.5807800292969 466.8529357910156 488.0610656738281 418.8411865234375 370.6464538574219 451.79840087890625 C 452.8118591308594 451.07861328125 392.1863708496094 457.326904296875 437.74072265625 436.8756408691406 C 312.7652893066406 450.9955139160156 365.1309814453125 432.9019470214844 418.1101989746094 439.5501403808594"/>
    <path stroke-width="0" fill="rgb(18, 15, 19)" opacity="0.7437247" stroke="rgb(62, 169, 131)" stroke-opacity="1.0" stroke-linecap="round" stroke-linejoin="round" d="M -25.176782608032227 368.424072265625 C 10.783781051635742 441.6786193847656 -12.185037612915039 457.9698486328125 -51.3497200012207 433.7432861328125 C 28.25307846069336 426.25347900390625 40.67068862915039 426.436767578125 40.47010803222656 451.9501953125 C 21.818531036376953 438.4009094238281 58.21104049682617 427.990478515625 -1.7535427808761597 431.9898681640625 C 26.810176849365234 465.3357238769531 -2.115278720855713 462.2650451660156 -25.176782608032227 368.424072265625"/>
    <path stroke-width="0" fill="rgb(35, 34, 36)" opacity="0.83250463" stroke="rgb(141, 73, 180)" stroke-opacity="1.0" stroke-linecap="round" stroke-linejoin="round" d="M 373.451416015625 450.88677978515625 C 355.5469970703125 456.3064270019531 355.7147216796875 439.94744873046875 358.4577941894531 437.11724853515625 C 362.7137145996094 464.5015563964844 329.9796142578125 445.1602783203125 358.6044006347656 450.44134521484375 C 357.45928955078125 451.3962097167969 340.7615051269531 430.1917419433594 396.04681396484375 438.1332702636719 C 352.80364990234375 433.01666259765625 348.07318115234375 455.97021484375 373.451416015625 450.88677978515625"/>
    <path stroke-width="0" fill="rgb(125, 126, 128)" opacity="0.8419748" stroke="rgb(91, 211, 235)" stroke-opacity="1.0" stroke-linecap="round" stroke-linejoin="round" d="M -9.997408866882324 99.65914154052734 C -11.891794204711914 102.54412078857422 -18.165830612182617 100.54267120361328 -18.967546463012695 85.74352264404297 C -14.149759292602539 82.75106048583984 -30.30694007873535 104.49307250976562 -38.73481369018555 98.2188949584961 C -6.991720676422119 79.2147216796875 -3.496994733810425 83.52578735351562 -34.98580551147461 103.96800231933594 C -11.206411361694336 106.96011352539062 8.298829078674316 101.7869644165039 -9.997408866882324 99.65914154052734"/>
    <path stroke-width="0" fill="rgb(14, 12, 14)" opacity="0.8741537" stroke="rgb(59, 88, 207)" stroke-opacity="1.0" stroke-linecap="round" stroke-linejoin="round" d="M 439.78228759765625 192.67825317382812 C 443.99505615234375 182.89808654785156 444.93853759765625 178.62344360351562 446.1719055175781 179.23886108398438 C 456.522705078125 181.94773864746094 441.0970458984375 174.54745483398438 441.5549011230469 190.04226684570312 C 440.5689392089844 233.4013214111328 442.18359375 196.3001251220703 445.3063659667969 180.60543823242188 C 431.1634521484375 193.3662567138672 451.86346435546875 173.5069122314453 439.78228759765625 192.67825317382812"/>
    <path stroke-width="0" fill="rgb(212, 211, 211)" opacity="0.638312" stroke="rgb(247, 230, 75)" stroke-opacity="1.0" stroke-linecap="round" stroke-linejoin="round" d="M 466.2249755859375 366.99151611328125 C 414.04840087890625 365.724365234375 350.8659362792969 373.38372802734375 458.6736755371094 371.5093994140625 C 452.91473388671875 361.7392272949219 460.6107177734375 360.75341796875 466.75244140625 369.9476623535156 C 527.8488159179688 375.67303466796875 592.8048706054688 365.6023254394531 465.09454345703125 365.34967041015625 C 471.49237060546875 377.3482971191406 473.0795593261719 384.8409118652344 466.2249755859375 366.99151611328125"/>
    <path stroke-width="0" fill="rgb(128, 128, 125)" opacity="0.623313" stroke="rgb(63, 27, 242)" stroke-opacity="1.0" stroke-linecap="round" stroke-linejoin="round" d="M 212.93270874023438 111.69689178466797 C 197.9886474609375 100.18627166748047 187.205078125 89.16651153564453 186.48956298828125 97.4211196899414 C 192.9865264892578 83.33434295654297 190.05795288085938 97.26973724365234 188.5008544921875 91.38693237304688 C 201.72120666503906 106.43061065673828 206.51321411132812 97.22362518310547 197.44876098632812 111.72056579589844 C 202.23435974121094 96.55704498291016 205.2714080810547 104.37421417236328 212.93270874023438 111.69689178466797"/>
    <path stroke-width="0" fill="rgb(53, 52, 53)" opacity="0.8198047" stroke="rgb(175, 14, 186)" stroke-opacity="1.0" stroke-linecap="round" stroke-linejoin="round" d="M 12.346784591674805 490.14776611328125 C 26.35556983947754 510.0849914550781 14.950065612792969 502.1060791015625 -39.104549407958984 508.3259582519531 C -16.438310623168945 524.45751953125 -25.518293380737305 508.7591857910156 -15.978522300720215 488.513671875 C -21.320514678955078 458.57012939453125 -29.26004981994629 447.3262939453125 -37.894405364990234 493.6629943847656 C -30.87301254272461 512.8080444335938 1.25739324092865 528.4539794921875 12.346784591674805 490.14776611328125"/>
    <path stroke-width="0" fill="rgb(209, 207, 205)" opacity="0.5347985" stroke="rgb(69, 96, 95)" stroke-opacity="1.0" stroke-linecap="round" stroke-linejoin="round" d="M 327.8985900878906 73.83692169189453 C 353.41534423828125 85.1329574584961 296.8219299316406 60.68124008178711 372.43951416015625 90.4505615234375 C 387.2080078125 87.80165100097656 360.7621154785156 99.27758026123047 351.5320739746094 92.16547393798828 C 281.0038757324219 94.67529296875 251.10435485839844 90.4005355834961 362.1832580566406 99.38967895507812 C 375.8074645996094 89.30569458007812 360.5600280761719 83.87309265136719 327.8985900878906 73.83692169189453"/>
    <path stroke-width="0" fill="rgb(48, 46, 48)" opacity="0.7923113" stroke="rgb(60, 43, 114)" stroke-opacity="1.0" stroke-linecap="round" stroke-linejoin="round" d="M 435.933837890625 346.48504638671875 C 418.4063720703125 333.9766540527344 422.14483642578125 337.22021484375 429.126708984375 374.08917236328125 C 442.2508544921875 357.12506103515625 418.72174072265625 373.94671630859375 419.4079284667969 325.9617919921875 C 417.30743408203125 351.56109619140625 455.08062744140625 360.31671142578125 452.32275390625 316.27276611328125 C 419.76312255859375 365.91925048828125 438.9587707519531 355.5299377441406 435.933837890625 346.48504638671875"/>
    <path stroke-width="0" fill="rgb(58, 60, 62)" opacity="0.761971" stroke="rgb(213, 60, 128)" stroke-opacity="1.0" stroke-linecap="round" stroke-linejoin="round" d="M 317.9288635253906 160.27639770507812 C 328.9167785644531 113.10411071777344 317.5485534667969 129.4840087890625 317.9354553222656 129.93287658691406 C 326.3167419433594 124.09782409667969 315.8675842285156 125.64522552490234 318.92633056640625 126.19526672363281 C 321.8249206542969 122.34616088867188 324.6085510253906 139.20594787597656 317.69158935546875 158.6095733642578 C 321.6234436035156 140.13363647460938 320.4559631347656 138.33522033691406 317.9288635253906 160.27639770507812"/>
    <path stroke-width="0" fill="rgb(49, 47, 50)" opacity="0.60728854" stroke="rgb(161, 221, 239)" stroke-opacity="1.0" stroke-linecap="round" stroke-linejoin="round" d="M 149.1056365966797 452.1966552734375 C 227.86105346679688 429.9140625 223.07484436035156 419.9160461425781 228.9476776123047 445.5494689941406 C 247.9263458251953 435.6376953125 255.8570556640625 433.0555114746094 238.0821990966797 440.2825927734375 C 212.01608276367188 452.14874267578125 241.5920867919922 458.12921142578125 228.1787567138672 441.9486999511719 C 223.06370544433594 420.8329162597656 223.3490447998047 431.3318176269531 149.1056365966797 452.1966552734375"/>
    <path stroke-width="0" fill="rgb(44, 42, 44)" opacity="0.8826261" stroke="rgb(178, 246, 253)" stroke-opacity="1.0" stroke-linecap="round" stroke-linejoin="round" d="M 91.2957763671875 504.6047668457031 C 93.4260482788086 484.9344177246094 81.80795288085938 490.8677978515625 132.15972900390625 490.0910949707031 C 122.58102416992188 490.57086181640625 91.58662414550781 489.23028564453125 87.21320343017578 490.3316345214844 C 81.66785430908203 512.1014404296875 110.20928192138672 505.9824523925781 108.74162292480469 506.5276794433594 C 59.0047721862793 498.6711730957031 68.67375183105469 500.16650390625 91.2957763671875 504.6047668457031"/>
    <path stroke-width="0" fill="rgb(60, 60, 62)" opacity="0.893337" stroke="rgb(18, 74, 38)" stroke-opacity="1.0" stroke-linecap="round" stroke-linejoin="round" d="M 418.7228698730469 451.8305358886719 C 425.1680908203125 427.5154724121094 418.1491394042969 433.6038513183594 425.345458984375 451.494140625 C 402.451171875 455.9349670410156 419.1001892089844 440.8646545410156 440.8133850097656 442.8093566894531 C 447.9598388671875 440.060546875 458.6748352050781 443.6981201171875 403.5722961425781 438.8629150390625 C 417.46002197265625 442.4515075683594 431.1239929199219 447.14215087890625 418.7228698730469 451.8305358886719"/>
    <path stroke-width="0" fill="rgb(185, 189, 188)" opacity="0.6924898" stroke="rgb(33, 154, 97)" stroke-opacity="1.0" stroke-linecap="round" stroke-linejoin="round" d="M 464.8413391113281 120.6900863647461 C 454.2817077636719 125.56539154052734 476.49053955078125 115.20069885253906 464.28131103515625 121.27631378173828 C 470.98834228515625 117.49243927001953 464.8103332519531 120.97801208496094 465.7218933105469 120.2881851196289 C 457.7231750488281 107.66162109375 444.28851318359375 117.99662017822266 417.1796875 114.37969207763672 C 445.8440246582031 118.37467193603516 459.9710998535156 108.14212799072266 464.8413391113281 120.6900863647461"/>
    <path stroke-width="0" fill="rgb(120, 120, 120)" opacity="0.8158251" stroke="rgb(246, 139, 70)" stroke-opacity="1.0" stroke-linecap="round" stroke-linejoin="round" d="M 514.1629638671875 29.289230346679688 C 492.512451171875 54.244483947753906 493.1014404296875 75.62857055664062 525.4688110351562 98.5670394897461 C 502.7346496582031 99.21919250488281 480.9498596191406 79.71409606933594 527.2061767578125 85.52816009521484 C 510.293212890625 71.45671081542969 520.4224853515625 67.12451171875 548.3322143554688 83.32322692871094 C 500.38653564453125 96.95427703857422 520.2586059570312 92.60430145263672 514.1629638671875 29.289230346679688"/>
    <path stroke-width="0" fill="rgb(11, 8, 11)" opacity="0.7053569" stroke="rgb(228, 103, 140)" stroke-opacity="1.0" stroke-linecap="round" stroke-linejoin="round" d="M 221.83944702148438 429.5830383300781 C 11.653498649597168 424.79449462890625 -86.37053680419922 434.1289978027344 148.74229431152344 431.7187805175781 C 180.26402282714844 431.9236755371094 153.96798706054688 419.1243896484375 168.55760192871094 449.3294372558594 C 161.0806121826172 426.9765625 171.60891723632812 438.29583740234375 157.29803466796875 440.2505798339844 C 181.24954223632812 427.5229187011719 123.24076080322266 431.1365966796875 221.83944702148438 429.5830383300781"/>
    <path stroke-width="0" fill="rgb(255, 255, 255)" opacity="0.7254357" stroke="rgb(116, 102, 63)" stroke-opacity="1.0" stroke-linecap="round" stroke-linejoin="round" d="M 456.9274597167969 114.4778823852539 C 449.46954345703125 119.00843048095703 459.6228942871094 115.5540542602539 478.1571350097656 119.8381118774414 C 450.4877624511719 129.5680694580078 458.2545471191406 109.59121704101562 480.9783935546875 120.1572494506836 C 469.2137756347656 118.2959976196289 459.4128112792969 108.6468505859375 444.9485778808594 113.3573989868164 C 502.9432678222656 119.82457733154297 508.2895812988281 130.87228393554688 456.9274597167969 114.4778823852539"/>
    <path stroke-width="0" fill="rgb(56, 54, 56)" opacity="0.8784401" stroke="rgb(79, 95, 133)" stroke-opacity="1.0" stroke-linecap="round" stroke-linejoin="round" d="M 265.08087158203125 355.8194274902344 C 268.5185241699219 364.44866943359375 254.6278533935547 353.5119323730469 288.04150390625 357.69427490234375 C 294.4955139160156 356.3624267578125 283.7727966308594 360.76318359375 265.1145935058594 351.17706298828125 C 224.53627014160156 364.3995361328125 239.36630249023438 354.5555114746094 275.31622314453125 360.3402099609375 C 255.1939697265625 352.16363525390625 223.1767120361328 348.4854431152344 265.08087158203125 355.8194274902344"/>
    <path stroke-width="0" fill="rgb(94, 100, 102)" opacity="0.37955222" stroke="rgb(85, 235, 219)" stroke-opacity="1.0" stroke-linecap="round" stroke-linejoin="round" d="M 460.7696838378906 152.22885131835938 C 469.2047119140625 109.85671997070312 451.1417541503906 125.67485046386719 441.44024658203125 116.17240142822266 C 433.4222106933594 113.36750030517578 427.2787170410156 117.8595962524414 428.0623474121094 117.00933837890625 C 442.9917907714844 110.92514038085938 437.0622253417969 119.62609100341797 457.81695556640625 121.39629364013672 C 456.21087646484375 117.99091339111328 467.9771423339844 128.66152954101562 460.7696838378906 152.22885131835938"/>
    <path stroke-width="0" fill="rgb(254, 254, 253)" opacity="0.8397956" stroke="rgb(64, 113, 26)" stroke-opacity="1.0" stroke-linecap="round" stroke-linejoin="round" d="M 476.5480041503906 87.3437271118164 C 458.8847961425781 81.36708068847656 478.4598693847656 102.51214599609375 486.68927001953125 93.00335693359375 C 445.4717712402344 83.92639923095703 437.4652099609375 69.70088195800781 444.83489990234375 92.8547134399414 C 493.709228515625 98.40326690673828 498.3775634765625 88.81082916259766 483.61480712890625 80.37994384765625 C 460.6455993652344 93.53207397460938 478.3421936035156 100.86934661865234 476.5480041503906 87.3437271118164"/>
  </g>
</svg>
