<?xml version="1.0" ?>
<svg xmlns="http://www.w3.org/2000/svg" version="1.1" width="128" height="128">
  <defs/>
  <g>
    <path d="M 135.3300018310547 77.01377868652344 C 144.56080627441406 179.38771057128906 130.9799041748047 151.89138793945312 102.44432067871094 140.06838989257812 C -1.2039884328842163 143.7495880126953 -10.987972259521484 152.5664520263672 -12.999080657958984 93.0784912109375 C -8.882375717163086 76.28897857666016 -5.010634422302246 75.55074310302734 -13.846273422241211 81.82395935058594 C 42.963592529296875 103.16322326660156 68.89712524414062 111.53779602050781 135.3300018310547 77.01377868652344" stroke-width="0.0" fill="rgb(92, 91, 93)" opacity="0.9872551" stroke="rgb(139, 182, 153)" stroke-opacity="0.5448832" stroke-linecap="round" stroke-linejoin="round"/>
    <path d="M 132.8828582763672 -6.81385612487793 C 124.41378784179688 32.15152359008789 129.67994689941406 51.103614807128906 90.8436279296875 56.65740203857422 C 46.72220230102539 57.987396240234375 41.47434616088867 74.33047485351562 42.3459587097168 -1.8562557697296143 C 52.729705810546875 -24.87625503540039 71.74656677246094 -12.907451629638672 100.78445434570312 -10.293274879455566 C 127.95784759521484 -10.591588973999023 132.27734375 -11.308704376220703 132.8828582763672 -6.81385612487793" stroke-width="0.0" fill="rgb(159, 146, 125)" opacity="1.0" stroke="rgb(108, 164, 111)" stroke-opacity="0.891773" stroke-linecap="round" stroke-linejoin="round"/>
    <path d="M 46.9578971862793 44.741214752197266 C 47.68776321411133 88.03666687011719 42.70737838745117 94.64447784423828 59.6616096496582 104.97417449951172 C -12.679418563842773 105.52146911621094 -13.228729248046875 101.97949981689453 -12.29407024383545 93.1610336303711 C -13.09383773803711 19.790771484375 -13.859424591064453 13.741146087646484 -3.5157406330108643 -12.14851188659668 C 89.88298797607422 -11.667268753051758 86.515380859375 -1.4422476291656494 46.9578971862793 44.741214752197266" stroke-width="0.0" fill="rgb(43, 40, 41)" opacity="0.74106586" stroke="rgb(245, 97, 201)" stroke-opacity="0.5288949" stroke-linecap="round" stroke-linejoin="round"/>
    <path d="M 141.91000366210938 103.37898254394531 C 157.30877685546875 115.01002502441406 164.81932067871094 116.45471954345703 73.1351089477539 104.92498016357422 C 81.96923065185547 37.1396598815918 71.97996520996094 97.67333221435547 77.04389953613281 43.358795166015625 C 64.8939437866211 -20.415008544921875 84.70379638671875 -13.321395874023438 120.79732513427734 -10.036237716674805 C 144.64065551757812 -7.038321018218994 141.70680236816406 -2.635516405105591 141.91000366210938 103.37898254394531" stroke-width="0.0" fill="rgb(49, 34, 14)" opacity="0.9992563" stroke="rgb(144, 236, 18)" stroke-opacity="0.0871293" stroke-linecap="round" stroke-linejoin="round"/>
    <path d="M 47.90662384033203 70.11812591552734 C 43.14739990234375 68.69378662109375 62.168487548828125 118.1579360961914 45.77778244018555 110.3016357421875 C 53.863121032714844 72.40158081054688 -9.371066093444824 49.64839553833008 21.07537841796875 32.22645568847656 C 13.701677322387695 46.44020080566406 14.213499069213867 44.598655700683594 7.506008148193359 58.44993209838867 C 25.442638397216797 59.63481903076172 53.71717834472656 42.83301544189453 47.90662384033203 70.11812591552734" stroke-width="0.0" fill="rgb(41, 28, 9)" opacity="0.9902518" stroke="rgb(5, 212, 198)" stroke-opacity="0.87001216" stroke-linecap="round" stroke-linejoin="round"/>
    <path d="M 88.22554779052734 29.395397186279297 C 86.84964752197266 47.88199234008789 74.60572052001953 39.45654296875 62.46198272705078 42.92289352416992 C 25.07308578491211 20.784809112548828 -1.555477261543274 49.14449691772461 13.768437385559082 19.11231803894043 C 20.686622619628906 -6.533839225769043 23.089006423950195 -7.623106956481934 49.00645446777344 -6.955923080444336 C 54.85198211669922 -10.640826225280762 70.67382049560547 -20.32315444946289 88.22554779052734 29.395397186279297" stroke-width="0.0" fill="rgb(26, 14, 2)" opacity="0.9999882" stroke="rgb(249, 203, 117)" stroke-opacity="0.7805292" stroke-linecap="round" stroke-linejoin="round"/>
    <path d="M 144.62290954589844 101.19689178466797 C 173.50961303710938 109.82634735107422 211.6459503173828 132.4710235595703 63.49887466430664 128.63572692871094 C 110.8038330078125 48.13340377807617 71.3330078125 75.29976654052734 79.5915298461914 28.184375762939453 C 95.7320556640625 -7.202150821685791 102.44926452636719 -3.6422126293182373 121.3252944946289 -8.065601348876953 C 141.4463348388672 -3.6289150714874268 140.57740783691406 0.9602726697921753 144.62290954589844 101.19689178466797" stroke-width="0.0" fill="rgb(96, 95, 96)" opacity="1.0" stroke="rgb(30, 163, 36)" stroke-opacity="0.9446689" stroke-linecap="round" stroke-linejoin="round"/>
    <path d="M 30.965152740478516 16.083053588867188 C 30.34306526184082 28.515626907348633 28.514549255371094 32.35197830200195 18.914447784423828 35.27569580078125 C -4.213469982147217 34.35540771484375 -6.858204364776611 33.18708038330078 -8.667471885681152 11.716650009155273 C -7.115323066711426 -4.424068927764893 -5.075547218322754 -6.794174671173096 11.491823196411133 -7.117941379547119 C 27.169971466064453 -0.35576480627059937 28.31914710998535 2.2247278690338135 30.965152740478516 16.083053588867188" stroke-width="0.0" fill="rgb(92, 92, 93)" opacity="0.95803934" stroke="rgb(133, 105, 67)" stroke-opacity="0.7742337" stroke-linecap="round" stroke-linejoin="round"/>
    <path d="M 27.808374404907227 13.96988582611084 C 16.564739227294922 44.707275390625 23.098587036132812 52.563201904296875 -2.4482996463775635 84.3176040649414 C -10.180331230163574 60.79227828979492 -8.771417617797852 54.35356521606445 -8.893832206726074 23.792709350585938 C -6.04580020904541 16.87295913696289 -3.8214364051818848 15.078547477722168 19.96914291381836 14.876866340637207 C 30.05704689025879 16.41741943359375 32.822811126708984 17.83775520324707 27.808374404907227 13.96988582611084" stroke-width="0.0" fill="rgb(95, 94, 95)" opacity="0.87394685" stroke="rgb(116, 144, 4)" stroke-opacity="0.6176355" stroke-linecap="round" stroke-linejoin="round"/>
    <path d="M 58.28887939453125 10.23316478729248 C 52.219058990478516 29.979022979736328 46.992244720458984 28.720008850097656 29.403636932373047 27.25509262084961 C 12.52615737915039 26.884000778198242 11.665616035461426 22.082813262939453 8.513516426086426 0.27790382504463196 C 7.9870429039001465 -7.837520599365234 10.645613670349121 -8.973677635192871 23.51835823059082 -9.30627727508545 C 55.25065994262695 -22.807193756103516 54.58576965332031 -19.606395721435547 58.28887939453125 10.23316478729248" stroke-width="0.0" fill="rgb(94, 94, 95)" opacity="1.0" stroke="rgb(156, 157, 240)" stroke-opacity="0.6818203" stroke-linecap="round" stroke-linejoin="round"/>
    <path d="M 48.85356903076172 32.27853012084961 C 39.765743255615234 89.73485565185547 36.08739471435547 16.203155517578125 41.3406867980957 134.4901123046875 C -31.75383758544922 137.59327697753906 -22.184650421142578 123.78361511230469 -6.363142967224121 109.33784484863281 C 13.014139175415039 28.179967880249023 13.064355850219727 19.067794799804688 83.01385498046875 16.546470642089844 C 67.6608657836914 6.318720817565918 66.42920684814453 47.95574951171875 48.85356903076172 32.27853012084961" stroke-width="0.0" fill="rgb(95, 94, 96)" opacity="1.0" stroke="rgb(91, 111, 177)" stroke-opacity="0.06022547" stroke-linecap="round" stroke-linejoin="round"/>
    <path d="M 130.83438110351562 -0.15984070301055908 C 123.80020141601562 29.85852813720703 149.55120849609375 41.221309661865234 66.02616882324219 59.18196105957031 C 98.88663482666016 44.683406829833984 62.81778335571289 40.68138122558594 50.23786163330078 -5.09584379196167 C 76.22474670410156 -21.5028133392334 83.94349670410156 -13.422417640686035 96.75399017333984 -11.27896785736084 C 129.74514770507812 -10.575427055358887 132.03257751464844 -9.39603328704834 130.83438110351562 -0.15984070301055908" stroke-width="0.0" fill="rgb(96, 95, 96)" opacity="0.8482617" stroke="rgb(170, 171, 53)" stroke-opacity="0.12892629" stroke-linecap="round" stroke-linejoin="round"/>
    <path d="M 104.12171936035156 -0.1297016739845276 C 107.09080505371094 43.889427185058594 69.49835205078125 13.915314674377441 71.08851623535156 14.876562118530273 C 27.046682357788086 14.148831367492676 43.79785919189453 24.389585494995117 37.26176834106445 -6.342184543609619 C 38.72194290161133 -7.974138259887695 42.27545166015625 -7.371750354766846 54.058746337890625 -7.135876655578613 C 67.80259704589844 -9.404898643493652 70.95610809326172 -9.307145118713379 104.12171936035156 -0.1297016739845276" stroke-width="0.0" fill="rgb(118, 114, 113)" opacity="0.99146616" stroke="rgb(80, 92, 145)" stroke-opacity="0.43860152" stroke-linecap="round" stroke-linejoin="round"/>
    <path d="M 58.113277435302734 19.068408966064453 C 57.42116165161133 22.004003524780273 54.53495788574219 23.02216148376465 50.176361083984375 23.510299682617188 C 37.204132080078125 23.950517654418945 38.42454147338867 21.950448989868164 34.999725341796875 6.22166633605957 C 34.70692443847656 3.144569158554077 35.48931884765625 0.14024122059345245 38.01219940185547 -2.1643905639648438 C 51.412261962890625 11.74646282196045 58.95378875732422 0.0648939460515976 58.113277435302734 19.068408966064453" stroke-width="0.0" fill="rgb(125, 112, 97)" opacity="0.5655312" stroke="rgb(252, 26, 53)" stroke-opacity="0.16130951" stroke-linecap="round" stroke-linejoin="round"/>
    <path d="M 60.591026306152344 14.897388458251953 C 46.82387924194336 13.811689376831055 55.42815017700195 19.54374122619629 55.712894439697266 24.719402313232422 C 50.111454010009766 3.095534086227417 37.655853271484375 36.27800750732422 33.35964584350586 0.2804301977157593 C 34.047306060791016 -3.3908846378326416 35.298423767089844 -5.846062183380127 37.363494873046875 -6.97189474105835 C 80.5784683227539 -5.310904026031494 67.83887481689453 0.47183239459991455 60.591026306152344 14.897388458251953" stroke-width="0.0" fill="rgb(94, 93, 95)" opacity="1.0" stroke="rgb(166, 64, 118)" stroke-opacity="0.2444256" stroke-linecap="round" stroke-linejoin="round"/>
    <path d="M 73.35001373291016 52.92403030395508 C 60.59769058227539 52.76224899291992 67.46758270263672 61.29567337036133 75.4974594116211 54.5053825378418 C 74.69854736328125 53.312255859375 64.64682006835938 54.589962005615234 68.5030746459961 57.22856521606445 C 53.81804656982422 57.77642822265625 74.17985534667969 47.84634780883789 59.074806213378906 47.55148696899414 C 71.33807373046875 30.756084442138672 82.58650970458984 49.38642501831055 73.35001373291016 52.92403030395508" stroke-width="0.0" fill="rgb(221, 220, 219)" opacity="0.79106003" stroke="rgb(40, 28, 167)" stroke-opacity="0.13818295" stroke-linecap="round" stroke-linejoin="round"/>
    <path d="M 72.00519561767578 50.117469787597656 C 74.99385070800781 38.06216049194336 83.71562194824219 49.44813537597656 60.53046798706055 60.52787399291992 C 70.54560089111328 25.96453285217285 50.599945068359375 77.07221221923828 46.78948974609375 44.57249450683594 C 71.07120513916016 44.9661750793457 69.14239501953125 32.60284423828125 76.74470520019531 42.48011779785156 C 71.49421691894531 44.97197723388672 69.34181213378906 49.99600601196289 72.00519561767578 50.117469787597656" stroke-width="0.0" fill="rgb(253, 255, 253)" opacity="0.98063445" stroke="rgb(50, 94, 209)" stroke-opacity="0.09710128" stroke-linecap="round" stroke-linejoin="round"/>
    <path d="M 73.93672180175781 47.27834701538086 C 76.75474548339844 46.98484802246094 79.08560180664062 49.76213455200195 76.08460235595703 47.17812728881836 C 78.31428527832031 45.70481491088867 67.40805053710938 39.68572235107422 65.44488525390625 47.3836555480957 C 69.66020965576172 52.5312614440918 74.03125762939453 47.03523635864258 77.12982940673828 46.46059036254883 C 68.58549499511719 44.99492263793945 74.68576049804688 50.2723503112793 73.93672180175781 47.27834701538086" stroke-width="0.0" fill="rgb(0, 0, 0)" opacity="1.0" stroke="rgb(213, 24, 248)" stroke-opacity="0.4686512" stroke-linecap="round" stroke-linejoin="round"/>
    <path d="M 89.65432739257812 104.90408325195312 C 82.64605712890625 106.17079162597656 101.2730484008789 101.87281799316406 48.27871322631836 110.26994323730469 C 42.642154693603516 95.70309448242188 21.189598083496094 99.22554779052734 80.53984832763672 99.55706024169922 C 91.77458190917969 106.17424774169922 87.92225646972656 105.04633331298828 89.24223327636719 98.87722778320312 C 76.09257507324219 100.42772674560547 72.83184814453125 94.62824249267578 89.65432739257812 104.90408325195312" stroke-width="0.0" fill="rgb(35, 22, 6)" opacity="0.8204225" stroke="rgb(249, 154, 188)" stroke-opacity="0.039187793" stroke-linecap="round" stroke-linejoin="round"/>
    <path d="M 78.89344787597656 105.03304290771484 C 81.60145568847656 115.30860137939453 71.51593017578125 105.92070770263672 63.74078369140625 107.02761840820312 C 62.3508415222168 107.08169555664062 63.70627212524414 103.97835540771484 63.088748931884766 100.20443725585938 C 64.1263656616211 98.19346618652344 62.55691909790039 105.9673080444336 63.19353485107422 106.00820922851562 C 62.4035758972168 104.62870788574219 62.79313278198242 105.08194732666016 78.89344787597656 105.03304290771484" stroke-width="0.0" fill="rgb(254, 254, 254)" opacity="0.9952166" stroke="rgb(72, 30, 75)" stroke-opacity="0.11872772" stroke-linecap="round" stroke-linejoin="round"/>
    <path d="M 67.98726654052734 96.95249938964844 C 75.54560852050781 97.08892822265625 66.53939056396484 107.65371704101562 66.76557922363281 104.20552062988281 C 50.463016510009766 103.69157409667969 58.78800964355469 105.81297302246094 54.602840423583984 97.47428131103516 C 54.58750915527344 98.3391342163086 59.337833404541016 93.14926147460938 58.38192367553711 103.21959686279297 C 54.319862365722656 96.0736312866211 68.15209197998047 103.68500518798828 67.98726654052734 96.95249938964844" stroke-width="0.0" fill="rgb(249, 146, 2)" opacity="1.0" stroke="rgb(81, 105, 16)" stroke-opacity="0.6924721" stroke-linecap="round" stroke-linejoin="round"/>
    <path d="M 71.81664276123047 48.149131774902344 C 68.7198715209961 36.25171661376953 60.99150848388672 54.239559173583984 75.1285171508789 46.43977355957031 C 71.23780822753906 50.81266784667969 67.76693725585938 52.41924285888672 65.11056518554688 47.44624710083008 C 63.64582824707031 41.88296127319336 72.20089721679688 39.46516418457031 72.44013214111328 45.044124603271484 C 78.17231750488281 45.255340576171875 74.287841796875 45.697166442871094 71.81664276123047 48.149131774902344" stroke-width="0.0" fill="rgb(125, 77, 25)" opacity="1.0" stroke="rgb(144, 67, 133)" stroke-opacity="0.09394051" stroke-linecap="round" stroke-linejoin="round"/>
    <path d="M 61.32818603515625 104.92354583740234 C 49.56356430053711 105.57535552978516 52.45172119140625 103.0845718383789 51.989871978759766 109.84102630615234 C 54.677181243896484 105.4596939086914 55.8811149597168 110.2375259399414 55.44831085205078 107.71847534179688 C 58.33226013183594 105.58403015136719 63.358436584472656 109.23350524902344 61.81979751586914 104.6006088256836 C 62.182804107666016 105.0557632446289 60.21440124511719 104.37462615966797 61.32818603515625 104.92354583740234" stroke-width="0.0" fill="rgb(254, 254, 255)" opacity="0.9997346" stroke="rgb(146, 236, 81)" stroke-opacity="0.6674104" stroke-linecap="round" stroke-linejoin="round"/>
    <path d="M 77.78307342529297 46.01731872558594 C 78.78268432617188 46.17839431762695 76.89088439941406 58.85569381713867 65.4594497680664 57.04009246826172 C 68.36348724365234 52.2833137512207 73.86812591552734 54.75653839111328 74.07430267333984 55.409488677978516 C 69.33312225341797 55.252967834472656 76.30990600585938 49.065773010253906 70.82264709472656 37.82447814941406 C 76.72679138183594 38.884765625 78.82866668701172 48.45103454589844 77.78307342529297 46.01731872558594" stroke-width="0.0" fill="rgb(253, 253, 253)" opacity="0.96298754" stroke="rgb(33, 182, 73)" stroke-opacity="0.18319136" stroke-linecap="round" stroke-linejoin="round"/>
    <path d="M 126.5526351928711 123.64976501464844 C 117.45559692382812 118.2343978881836 103.3794937133789 109.91477966308594 135.18692016601562 128.8227996826172 C 106.63723754882812 105.3762435913086 104.70586395263672 101.8197250366211 99.79351043701172 96.58134460449219 C 93.30071258544922 88.61936950683594 78.3246841430664 69.09030151367188 89.71668243408203 86.44486999511719 C 105.59393310546875 106.34391021728516 108.0281982421875 107.93717956542969 126.5526351928711 123.64976501464844" stroke-width="0.0" fill="rgb(254, 254, 254)" opacity="0.98108757" stroke="rgb(149, 5, 211)" stroke-opacity="0.004695476" stroke-linecap="round" stroke-linejoin="round"/>
    <path d="M 70.122802734375 97.58269500732422 C 68.06078338623047 114.97749328613281 84.69876098632812 93.54545593261719 78.60045623779297 111.04034423828125 C 75.31475830078125 111.76725769042969 71.16259002685547 106.73700714111328 74.23197174072266 110.31289672851562 C 74.43705749511719 112.47630310058594 72.4209213256836 85.46003723144531 77.78727722167969 99.1084976196289 C 106.96472930908203 97.8553237915039 70.84616088867188 104.63301086425781 70.122802734375 97.58269500732422" stroke-width="0.0" fill="rgb(23, 12, 0)" opacity="0.9097306" stroke="rgb(172, 68, 187)" stroke-opacity="0.96218854" stroke-linecap="round" stroke-linejoin="round"/>
    <path d="M 123.41460418701172 -0.8790884613990784 C 45.95688247680664 38.497493743896484 96.57624053955078 39.35199737548828 56.04610061645508 33.57884216308594 C 38.082908630371094 11.965288162231445 54.162776947021484 95.70235443115234 -5.048549175262451 122.02801513671875 C -10.927275657653809 7.1327924728393555 40.12549591064453 18.719181060791016 30.54932403564453 14.292119026184082 C 68.94998168945312 15.52070140838623 74.14384460449219 22.740375518798828 123.41460418701172 -0.8790884613990784" stroke-width="0.0" fill="rgb(95, 94, 96)" opacity="0.99938625" stroke="rgb(63, 146, 150)" stroke-opacity="0.5722519" stroke-linecap="round" stroke-linejoin="round"/>
    <path d="M 56.01926803588867 43.632747650146484 C 61.087772369384766 39.925819396972656 61.635963439941406 50.370765686035156 57.683528900146484 50.186668395996094 C 52.114803314208984 53.3349609375 47.92452621459961 40.37987518310547 58.153778076171875 41.591102600097656 C 59.439186096191406 44.78343963623047 54.398380279541016 43.74909210205078 57.62978744506836 43.98545455932617 C 46.15594482421875 46.698143005371094 60.87173080444336 40.61859893798828 56.01926803588867 43.632747650146484" stroke-width="0.0" fill="rgb(66, 38, 12)" opacity="0.8898906" stroke="rgb(56, 242, 114)" stroke-opacity="0.84640867" stroke-linecap="round" stroke-linejoin="round"/>
    <path d="M 57.047691345214844 34.41325759887695 C 61.12718200683594 37.540916442871094 51.0516471862793 47.864349365234375 46.18672180175781 38.640052795410156 C 66.30997467041016 35.53788375854492 60.147377014160156 33.58431625366211 55.59345626831055 48.454044342041016 C 60.95054244995117 43.294654846191406 56.23723220825195 36.22378158569336 55.78425979614258 47.15747833251953 C 57.33991241455078 39.818450927734375 60.94353485107422 41.734256744384766 57.047691345214844 34.41325759887695" stroke-width="0.0" fill="rgb(151, 54, 17)" opacity="0.0005002086" stroke="rgb(178, 75, 207)" stroke-opacity="0.39650574" stroke-linecap="round" stroke-linejoin="round"/>
    <path d="M 21.836380004882812 106.39981842041016 C 19.71144676208496 106.63184356689453 20.22140884399414 107.93244171142578 17.33684539794922 109.89229583740234 C 20.545360565185547 108.97698974609375 20.55483627319336 103.75936126708984 12.225859642028809 116.11029815673828 C 13.726822853088379 113.47727966308594 34.36305618286133 98.35987091064453 43.42225646972656 75.81377410888672 C 20.523874282836914 112.76313018798828 12.0681734085083 109.50171661376953 21.836380004882812 106.39981842041016" stroke-width="0.0" fill="rgb(255, 255, 250)" opacity="0.9765039" stroke="rgb(224, 148, 224)" stroke-opacity="0.6925316" stroke-linecap="round" stroke-linejoin="round"/>
    <path d="M 65.5460433959961 51.6287841796875 C 67.67509460449219 51.98582077026367 79.81365203857422 45.664222717285156 66.72256469726562 43.6119499206543 C 74.71355438232422 41.194034576416016 71.76747131347656 46.21683883666992 66.73320770263672 54.832763671875 C 74.36964416503906 54.26426315307617 73.471923828125 53.14921569824219 69.26214599609375 53.51945495605469 C 64.91559600830078 52.807167053222656 69.2831802368164 60.50651550292969 65.5460433959961 51.6287841796875" stroke-width="0.0" fill="rgb(255, 174, 0)" opacity="0.9757716" stroke="rgb(184, 127, 243)" stroke-opacity="0.6439902" stroke-linecap="round" stroke-linejoin="round"/>
    <path d="M 65.84998321533203 43.260135650634766 C 56.7097053527832 46.89610290527344 57.50163650512695 36.00468826293945 50.14210891723633 46.97339630126953 C 48.619606018066406 62.85110092163086 43.150604248046875 42.45295715332031 52.00707244873047 38.742401123046875 C 52.367244720458984 35.298526763916016 54.36228942871094 37.048240661621094 52.08746337890625 34.98046875 C 49.01687240600586 35.034210205078125 51.13014221191406 39.00910568237305 65.84998321533203 43.260135650634766" stroke-width="0.0" fill="rgb(255, 255, 255)" opacity="1.0" stroke="rgb(108, 154, 4)" stroke-opacity="0.30157483" stroke-linecap="round" stroke-linejoin="round"/>
    <path d="M 46.30076599121094 55.4977912902832 C 48.24093246459961 56.1607780456543 47.990108489990234 52.495635986328125 47.54876708984375 54.31625747680664 C 57.75135040283203 64.77931213378906 66.56803131103516 54.695377349853516 63.12626266479492 56.76831817626953 C 49.82978820800781 59.61135482788086 46.14390563964844 51.63628387451172 46.42049789428711 42.35841369628906 C 44.413551330566406 55.518009185791016 51.00102996826172 57.04520797729492 46.30076599121094 55.4977912902832" stroke-width="0.0" fill="rgb(22, 9, 0)" opacity="0.90650964" stroke="rgb(168, 73, 157)" stroke-opacity="0.4287687" stroke-linecap="round" stroke-linejoin="round"/>
    <path d="M 57.36899185180664 37.13632583618164 C 53.279747009277344 33.95347595214844 50.168373107910156 42.35769271850586 46.03611373901367 42.914066314697266 C 44.23845672607422 59.41999053955078 47.77634048461914 37.12205505371094 50.203102111816406 38.25322723388672 C 45.13705062866211 38.36460876464844 47.608943939208984 29.746559143066406 47.03160858154297 29.235300064086914 C 48.41482162475586 33.762943267822266 53.10051727294922 34.26677322387695 57.36899185180664 37.13632583618164" stroke-width="0.0" fill="rgb(26, 13, 0)" opacity="0.89813447" stroke="rgb(34, 76, 145)" stroke-opacity="0.59087276" stroke-linecap="round" stroke-linejoin="round"/>
    <path d="M 56.877037048339844 49.157894134521484 C 62.10963821411133 36.18900680541992 46.15976333618164 45.29384231567383 56.10871887207031 50.10293197631836 C 65.45987701416016 47.14543914794922 55.19306564331055 38.88783264160156 58.123619079589844 45.054080963134766 C 53.78659439086914 43.20388412475586 54.47704315185547 45.363746643066406 56.610313415527344 45.402530670166016 C 54.75279235839844 43.674129486083984 51.77879333496094 44.996803283691406 56.877037048339844 49.157894134521484" stroke-width="0.0" fill="rgb(255, 168, 5)" opacity="1.0" stroke="rgb(146, 166, 166)" stroke-opacity="0.43141845" stroke-linecap="round" stroke-linejoin="round"/>
    <path d="M 11.756760597229004 61.141441345214844 C 11.181729316711426 58.43153381347656 11.040815353393555 59.4796142578125 11.699134826660156 60.296932220458984 C 11.351597785949707 62.19346237182617 14.551292419433594 58.498924255371094 11.124360084533691 55.61335754394531 C 10.553380012512207 74.75321197509766 11.66101360321045 65.9950180053711 12.266878128051758 69.17420959472656 C 9.992398262023926 68.84910583496094 12.78016471862793 70.0298843383789 11.756760597229004 61.141441345214844" stroke-width="0.0" fill="rgb(61, 45, 35)" opacity="0.9585306" stroke="rgb(228, 93, 111)" stroke-opacity="0.89192337" stroke-linecap="round" stroke-linejoin="round"/>
    <path d="M 67.0477294921875 100.59362030029297 C 66.0885238647461 96.34725189208984 69.03032684326172 98.075927734375 71.21438598632812 99.06183624267578 C 70.47306823730469 96.99602508544922 66.91606903076172 94.05696868896484 68.1456069946289 101.73442077636719 C 67.3078842163086 107.05583953857422 68.40306091308594 103.85813903808594 75.08709716796875 104.36690521240234 C 65.26578521728516 105.3236083984375 67.06877136230469 102.34870147705078 67.0477294921875 100.59362030029297" stroke-width="0.0" fill="rgb(0, 2, 8)" opacity="0.926128" stroke="rgb(205, 179, 25)" stroke-opacity="0.9194826" stroke-linecap="round" stroke-linejoin="round"/>
    <path d="M 71.67921447753906 34.46666717529297 C 73.24336242675781 38.452022552490234 70.5252456665039 35.938453674316406 73.32659912109375 35.98697280883789 C 71.89482116699219 36.144039154052734 73.95633697509766 32.401058197021484 72.00227355957031 40.61750793457031 C 73.19432067871094 42.58665084838867 74.02965545654297 40.29195785522461 69.2129135131836 40.46770477294922 C 70.92562866210938 40.23318099975586 75.31029510498047 42.249454498291016 71.67921447753906 34.46666717529297" stroke-width="0.0" fill="rgb(240, 237, 232)" opacity="0.65996253" stroke="rgb(182, 254, 38)" stroke-opacity="0.86812603" stroke-linecap="round" stroke-linejoin="round"/>
    <path d="M 54.7808952331543 46.621124267578125 C 52.297576904296875 44.41710662841797 54.66767120361328 46.339168548583984 59.74454116821289 46.13371658325195 C 53.49319076538086 45.43330001831055 51.880271911621094 50.847110748291016 58.92866134643555 46.53326416015625 C 54.74003219604492 43.03117370605469 58.358192443847656 40.93016815185547 55.78300857543945 49.17115783691406 C 59.47731399536133 46.427364349365234 54.023380279541016 42.33049011230469 54.7808952331543 46.621124267578125" stroke-width="0.0" fill="rgb(47, 26, 27)" opacity="0.27035773" stroke="rgb(41, 156, 31)" stroke-opacity="0.8480082" stroke-linecap="round" stroke-linejoin="round"/>
    <path d="M 56.49576187133789 46.27094650268555 C 57.86581039428711 42.77454376220703 58.801055908203125 47.73103713989258 55.649322509765625 47.895103454589844 C 59.87849044799805 47.281185150146484 59.82889175415039 44.90206527709961 57.84959411621094 46.319419860839844 C 57.486358642578125 43.93700408935547 56.924007415771484 43.389930725097656 56.75646209716797 47.637718200683594 C 58.94529342651367 45.53713607788086 58.088478088378906 51.0513916015625 56.49576187133789 46.27094650268555" stroke-width="0.0" fill="rgb(208, 112, 19)" opacity="0.81404275" stroke="rgb(205, 145, 103)" stroke-opacity="0.069166996" stroke-linecap="round" stroke-linejoin="round"/>
    <path d="M 63.688594818115234 43.55928421020508 C 61.414886474609375 47.9273796081543 62.00819396972656 40.440269470214844 53.039981842041016 40.348018646240234 C 47.66570281982422 49.04105758666992 47.20508575439453 38.47306823730469 56.02818298339844 40.837677001953125 C 58.887630462646484 40.93571853637695 61.930301666259766 44.443084716796875 64.39292907714844 43.67182159423828 C 51.6899299621582 32.496246337890625 59.0139045715332 36.83440017700195 63.688594818115234 43.55928421020508" stroke-width="0.0" fill="rgb(239, 241, 252)" opacity="0.5961239" stroke="rgb(177, 115, 184)" stroke-opacity="0.8663823" stroke-linecap="round" stroke-linejoin="round"/>
    <path d="M 61.20265579223633 40.16474533081055 C 54.71316146850586 60.301605224609375 48.4553337097168 42.47359085083008 57.68475341796875 44.08350372314453 C 59.69998550415039 57.87177658081055 51.76175308227539 55.505977630615234 59.292667388916016 51.23884963989258 C 48.9012336730957 46.38534164428711 53.53971862792969 39.190284729003906 60.48268508911133 47.47152328491211 C 51.74446105957031 46.07892990112305 63.265586853027344 44.69840621948242 61.20265579223633 40.16474533081055" stroke-width="0.0" fill="rgb(255, 208, 32)" opacity="0.6764098" stroke="rgb(248, 218, 2)" stroke-opacity="0.35997805" stroke-linecap="round" stroke-linejoin="round"/>
    <path d="M 56.73469161987305 42.28976058959961 C 57.64017105102539 40.88836669921875 60.642982482910156 44.33989715576172 57.70022964477539 47.86433792114258 C 55.10478973388672 49.57119369506836 51.0305061340332 46.22987365722656 57.278602600097656 42.70450973510742 C 51.94004440307617 45.875030517578125 63.70744705200195 41.759056091308594 58.086273193359375 45.24773025512695 C 56.43646240234375 42.430946350097656 63.97676467895508 44.93491744995117 56.73469161987305 42.28976058959961" stroke-width="0.0" fill="rgb(4, 0, 0)" opacity="0.92100596" stroke="rgb(186, 43, 132)" stroke-opacity="0.05433799" stroke-linecap="round" stroke-linejoin="round"/>
    <path d="M 73.55643463134766 79.53091430664062 C 70.37203979492188 62.168304443359375 83.53058624267578 61.418025970458984 77.35724639892578 83.16838073730469 C 61.639068603515625 70.26761627197266 70.50320434570312 64.76143646240234 72.25674438476562 63.95567321777344 C 73.26168823242188 61.804141998291016 78.63168334960938 65.96936798095703 68.18765258789062 72.92086791992188 C 67.59872436523438 78.5157470703125 70.94432830810547 80.68257904052734 73.55643463134766 79.53091430664062" stroke-width="0.0" fill="rgb(252, 252, 253)" opacity="0.0" stroke="rgb(50, 4, 202)" stroke-opacity="0.22392468" stroke-linecap="round" stroke-linejoin="round"/>
    <path d="M 70.59227752685547 58.27463912963867 C 59.718528747558594 51.80101776123047 52.7794189453125 56.88639450073242 56.92145919799805 53.685909271240234 C 67.22630310058594 55.95112228393555 60.76018142700195 57.41033935546875 53.79978561401367 58.37385940551758 C 63.180206298828125 57.805931091308594 56.65139389038086 56.71963882446289 62.84070587158203 57.612117767333984 C 56.58503341674805 60.97795486450195 48.939510345458984 55.184383392333984 70.59227752685547 58.27463912963867" stroke-width="0.0" fill="rgb(32, 25, 5)" opacity="0.9105078" stroke="rgb(88, 236, 179)" stroke-opacity="0.03183893" stroke-linecap="round" stroke-linejoin="round"/>
    <path d="M 46.60331344604492 55.91832733154297 C 49.026912689208984 46.83567428588867 43.15961837768555 54.04814910888672 39.88127517700195 69.7939224243164 C 46.095516204833984 50.979827880859375 45.22880935668945 50.2381591796875 48.04342269897461 54.64446258544922 C 46.340824127197266 50.90033721923828 50.40134811401367 59.30029296875 43.6617546081543 54.47151565551758 C 42.484554290771484 56.818382263183594 42.60285186767578 55.50421142578125 46.60331344604492 55.91832733154297" stroke-width="0.0" fill="rgb(86, 79, 69)" opacity="0.80050373" stroke="rgb(41, 158, 147)" stroke-opacity="0.23789282" stroke-linecap="round" stroke-linejoin="round"/>
    <path d="M 45.5565071105957 82.43477630615234 C 42.041236877441406 70.0777359008789 41.10066223144531 73.85083770751953 44.45286178588867 72.65526580810547 C 48.59258270263672 87.46463012695312 50.167179107666016 68.65445709228516 43.98795700073242 70.02684783935547 C 44.61954116821289 89.20075988769531 45.024017333984375 64.64678955078125 40.47651672363281 79.71551513671875 C 37.67333984375 78.70381927490234 42.13920974731445 81.71281433105469 45.5565071105957 82.43477630615234" stroke-width="0.0" fill="rgb(38, 28, 8)" opacity="0.8753339" stroke="rgb(238, 156, 136)" stroke-opacity="0.58991" stroke-linecap="round" stroke-linejoin="round"/>
    <path d="M 54.64550018310547 39.82321548461914 C 65.47380828857422 44.9032096862793 64.77546691894531 50.93564987182617 60.70543670654297 42.48942184448242 C 52.023563385009766 37.05890655517578 47.93490982055664 47.460899353027344 49.78823471069336 50.61012268066406 C 50.0013313293457 36.62803649902344 55.109100341796875 38.75505065917969 50.04450225830078 43.64316940307617 C 49.69450378417969 42.17880630493164 50.837284088134766 42.836483001708984 54.64550018310547 39.82321548461914" stroke-width="0.0" fill="rgb(248, 250, 251)" opacity="0.7515925" stroke="rgb(186, 79, 101)" stroke-opacity="0.20984375" stroke-linecap="round" stroke-linejoin="round"/>
    <path d="M 61.73112869262695 48.44232177734375 C 83.35631561279297 59.66827392578125 72.33633422851562 56.40929412841797 53.39912033081055 57.042537689208984 C 51.37729263305664 52.268768310546875 56.204917907714844 52.93065643310547 48.94548034667969 53.337196350097656 C 58.78255844116211 49.438629150390625 59.68879318237305 49.99932098388672 61.34736251831055 52.87726593017578 C 62.396732330322266 54.043975830078125 62.47856903076172 57.2553825378418 61.73112869262695 48.44232177734375" stroke-width="0.0" fill="rgb(254, 254, 254)" opacity="0.95987386" stroke="rgb(47, 240, 188)" stroke-opacity="0.49045882" stroke-linecap="round" stroke-linejoin="round"/>
    <path d="M 77.07271575927734 79.41354370117188 C 80.90023040771484 82.57177734375 78.01905059814453 76.80543518066406 79.1762924194336 85.53072357177734 C 73.05448913574219 79.36688995361328 83.51272583007812 79.12317657470703 79.10549926757812 75.05131530761719 C 77.29051971435547 80.79116821289062 80.61691284179688 81.762451171875 78.12226867675781 74.84312438964844 C 87.0383071899414 68.27415466308594 82.23365020751953 67.21266174316406 77.07271575927734 79.41354370117188" stroke-width="0.0" fill="rgb(68, 49, 17)" opacity="0.8601814" stroke="rgb(57, 64, 14)" stroke-opacity="0.43441662" stroke-linecap="round" stroke-linejoin="round"/>
    <path d="M 63.60576629638672 49.71651840209961 C 58.08894348144531 48.49467086791992 62.947181701660156 61.88587951660156 62.04938507080078 49.429134368896484 C 62.46575164794922 57.59900665283203 62.6909294128418 49.5577278137207 63.10795593261719 48.59358215332031 C 59.13207244873047 56.172935485839844 59.60523986816406 46.4221076965332 63.91402053833008 48.90888595581055 C 68.23810577392578 49.10131072998047 58.052486419677734 65.05990600585938 63.60576629638672 49.71651840209961" stroke-width="0.0" fill="rgb(31, 19, 9)" opacity="0.993957" stroke="rgb(79, 177, 96)" stroke-opacity="0.17960368" stroke-linecap="round" stroke-linejoin="round"/>
    <path d="M 71.70557403564453 52.456642150878906 C 76.06754302978516 49.09828567504883 72.6245346069336 57.40446090698242 72.03547668457031 57.75200271606445 C 79.97380065917969 58.775943756103516 78.20208740234375 55.42899703979492 65.86515045166016 54.02936553955078 C 62.727169036865234 51.26826095581055 68.86782836914062 49.9375 74.33081817626953 50.85907745361328 C 70.20562744140625 50.79346466064453 76.69898223876953 54.00600051879883 71.70557403564453 52.456642150878906" stroke-width="0.0" fill="rgb(251, 252, 251)" opacity="0.9685009" stroke="rgb(6, 17, 173)" stroke-opacity="0.45369685" stroke-linecap="round" stroke-linejoin="round"/>
    <path d="M 68.35324096679688 69.98426055908203 C 68.01065826416016 84.21000671386719 60.33294677734375 88.21619415283203 75.74919891357422 95.38777160644531 C 77.73268127441406 94.26402282714844 69.80809020996094 82.23877716064453 78.25752258300781 87.5475082397461 C 79.76277923583984 69.97621154785156 78.66175842285156 63.56016540527344 73.05552673339844 68.43453979492188 C 68.25079345703125 76.10564422607422 62.133872985839844 80.73946380615234 68.35324096679688 69.98426055908203" stroke-width="0.0" fill="rgb(232, 234, 237)" opacity="0.0035830927" stroke="rgb(136, 228, 252)" stroke-opacity="0.21689698" stroke-linecap="round" stroke-linejoin="round"/>
    <path d="M 46.82015609741211 57.48904037475586 C 53.30797576904297 63.35924530029297 57.09596633911133 57.14308166503906 59.92593765258789 50.63582992553711 C 51.49677658081055 54.09812927246094 49.411808013916016 52.259979248046875 49.96353530883789 51.88547134399414 C 44.24352264404297 58.284210205078125 59.6453971862793 60.21605682373047 60.91431427001953 55.6701774597168 C 53.93382263183594 47.6323127746582 53.970359802246094 47.74454116821289 46.82015609741211 57.48904037475586" stroke-width="0.0" fill="rgb(254, 255, 255)" opacity="0.4392209" stroke="rgb(169, 67, 5)" stroke-opacity="0.7583786" stroke-linecap="round" stroke-linejoin="round"/>
    <path d="M 26.784597396850586 100.59969329833984 C 15.235169410705566 116.2909164428711 -2.417365550994873 125.67178344726562 -3.6397645473480225 131.19952392578125 C -0.850301206111908 120.28347778320312 -13.98836898803711 126.39069366455078 -7.376016139984131 122.10921478271484 C -2.563537120819092 123.66046905517578 3.1394448280334473 127.4892807006836 -5.326009273529053 130.83131408691406 C -5.45011043548584 127.13496398925781 -0.9434432983398438 126.07705688476562 26.784597396850586 100.59969329833984" stroke-width="0.0" fill="rgb(255, 255, 255)" opacity="0.9903631" stroke="rgb(81, 97, 150)" stroke-opacity="0.8310484" stroke-linecap="round" stroke-linejoin="round"/>
    <path d="M 54.75307083129883 81.31491088867188 C 53.032936096191406 84.54552459716797 55.70771026611328 83.45545959472656 53.35746765136719 81.451416015625 C 53.6066780090332 82.11126708984375 53.816646575927734 84.35865020751953 52.32139587402344 83.0006332397461 C 53.78297424316406 84.85999298095703 53.32257843017578 82.04720306396484 53.56052017211914 83.37861633300781 C 53.4984245300293 81.97808074951172 53.11302947998047 82.62833404541016 54.75307083129883 81.31491088867188" stroke-width="0.0" fill="rgb(225, 219, 211)" opacity="0.5729113" stroke="rgb(160, 222, 69)" stroke-opacity="0.7980468" stroke-linecap="round" stroke-linejoin="round"/>
    <path d="M 73.90026092529297 56.72428512573242 C 82.48286437988281 47.278106689453125 77.0791244506836 53.54116439819336 70.73241424560547 57.0713005065918 C 59.911075592041016 57.50132369995117 69.38785552978516 56.95735168457031 66.4156265258789 57.8567008972168 C 64.389892578125 55.531036376953125 56.76343536376953 58.85128402709961 68.85450744628906 57.79228973388672 C 61.17165756225586 55.555023193359375 64.04176330566406 62.59362030029297 73.90026092529297 56.72428512573242" stroke-width="0.0" fill="rgb(14, 12, 0)" opacity="0.86098725" stroke="rgb(47, 242, 175)" stroke-opacity="0.21550767" stroke-linecap="round" stroke-linejoin="round"/>
    <path d="M 58.340694427490234 58.7083740234375 C 52.77322769165039 56.07310104370117 53.65904998779297 58.57121658325195 67.77691650390625 57.2091178894043 C 64.35270690917969 57.9105339050293 57.59830093383789 58.884281158447266 50.64310073852539 56.627376556396484 C 57.63495635986328 57.09054946899414 63.455665588378906 59.17559051513672 56.511863708496094 57.80717086791992 C 52.13673782348633 57.75676345825195 54.31061553955078 59.982181549072266 58.340694427490234 58.7083740234375" stroke-width="0.0" fill="rgb(38, 27, 0)" opacity="0.74107814" stroke="rgb(241, 186, 64)" stroke-opacity="0.21331197" stroke-linecap="round" stroke-linejoin="round"/>
    <path d="M 77.36394500732422 34.32914352416992 C 69.04402923583984 36.80398178100586 78.54237365722656 44.47360610961914 79.0685043334961 29.46712875366211 C 68.18376159667969 40.995182037353516 48.665245056152344 39.42353439331055 58.20663833618164 37.476646423339844 C 77.73936462402344 37.14171600341797 74.42401885986328 35.543819427490234 73.92314910888672 34.13679122924805 C 76.16325378417969 38.62638854980469 70.31790924072266 37.76982498168945 77.36394500732422 34.32914352416992" stroke-width="0.0" fill="rgb(33, 20, 4)" opacity="0.9999069" stroke="rgb(132, 6, 52)" stroke-opacity="0.42468548" stroke-linecap="round" stroke-linejoin="round"/>
    <path d="M 75.63897705078125 55.89263153076172 C 77.39511108398438 66.4246826171875 73.49308013916016 61.73987579345703 66.10836029052734 66.90950012207031 C 62.588932037353516 65.20536041259766 64.98080444335938 54.73337936401367 73.8669662475586 48.479122161865234 C 68.41361236572266 55.63257598876953 61.931209564208984 52.04987716674805 70.71952819824219 54.41389846801758 C 70.18605041503906 55.99235534667969 62.228458404541016 62.61501693725586 75.63897705078125 55.89263153076172" stroke-width="0.0" fill="rgb(255, 255, 254)" opacity="0.089931786" stroke="rgb(95, 118, 70)" stroke-opacity="0.58678436" stroke-linecap="round" stroke-linejoin="round"/>
    <path d="M 59.19521713256836 48.50939178466797 C 67.56140899658203 48.95121383666992 62.20183563232422 54.75287628173828 62.5146484375 55.473880767822266 C 61.04550552368164 40.69992446899414 63.6163330078125 45.34249496459961 53.3863410949707 50.69786071777344 C 61.058082580566406 46.51840591430664 59.728485107421875 41.807777404785156 64.15117645263672 46.462711334228516 C 59.92766571044922 43.497928619384766 61.272220611572266 51.2510871887207 59.19521713256836 48.50939178466797" stroke-width="0.0" fill="rgb(255, 140, 0)" opacity="0.88227206" stroke="rgb(220, 29, 131)" stroke-opacity="0.13206811" stroke-linecap="round" stroke-linejoin="round"/>
    <path d="M 63.332923889160156 47.89936828613281 C 67.37867736816406 39.79298782348633 65.50473022460938 44.83849334716797 66.14600372314453 51.09117126464844 C 67.68180084228516 46.54060745239258 59.32451248168945 46.57331848144531 62.27542495727539 39.24523162841797 C 57.04290008544922 41.78237533569336 60.325721740722656 38.6832389831543 63.02086639404297 38.24580764770508 C 60.44877243041992 42.969261169433594 62.89875793457031 45.97636032104492 63.332923889160156 47.89936828613281" stroke-width="0.0" fill="rgb(0, 0, 10)" opacity="0.5773837" stroke="rgb(182, 100, 144)" stroke-opacity="0.18327984" stroke-linecap="round" stroke-linejoin="round"/>
    <path d="M 67.71814727783203 37.242210388183594 C 55.55109786987305 37.97706985473633 49.80548858642578 31.957468032836914 47.876956939697266 34.29566192626953 C 57.043128967285156 34.37679672241211 65.11669158935547 39.59471130371094 61.084083557128906 43.80492401123047 C 63.51075744628906 39.489532470703125 61.28275680541992 31.92398452758789 63.60931396484375 38.57997512817383 C 67.78190612792969 35.14503860473633 64.52442932128906 38.513458251953125 67.71814727783203 37.242210388183594" stroke-width="0.0" fill="rgb(67, 56, 35)" opacity="0.47212574" stroke="rgb(36, 124, 90)" stroke-opacity="0.94043195" stroke-linecap="round" stroke-linejoin="round"/>
    <path d="M 57.11248779296875 105.31476593017578 C 56.707908630371094 96.22444915771484 50.072784423828125 98.48571014404297 62.766536712646484 90.14440155029297 C 58.00932693481445 93.3499984741211 54.16777038574219 96.50163269042969 55.90546798706055 95.3395767211914 C 56.87904739379883 102.86064910888672 55.43767547607422 100.5848388671875 55.380924224853516 91.01306915283203 C 52.300113677978516 104.46231079101562 61.22122573852539 100.70404815673828 57.11248779296875 105.31476593017578" stroke-width="0.0" fill="rgb(52, 16, 13)" opacity="0.8156473" stroke="rgb(195, 190, 230)" stroke-opacity="0.08342244" stroke-linecap="round" stroke-linejoin="round"/>
    <path d="M 63.28882598876953 38.35283660888672 C 60.53013229370117 41.036983489990234 62.49812698364258 36.05364990234375 51.5782470703125 34.11164093017578 C 60.6802864074707 39.6122932434082 63.36404037475586 43.237281799316406 61.456668853759766 39.78987121582031 C 56.02574157714844 39.3874626159668 64.8604965209961 37.60737991333008 59.7028923034668 37.57904815673828 C 54.37961959838867 37.443302154541016 59.6357421875 37.951900482177734 63.28882598876953 38.35283660888672" stroke-width="0.0" fill="rgb(165, 163, 151)" opacity="0.24084917" stroke="rgb(140, 149, 245)" stroke-opacity="0.29214752" stroke-linecap="round" stroke-linejoin="round"/>
    <path d="M 60.07174301147461 40.77616500854492 C 60.58684158325195 34.19742965698242 61.40433120727539 36.26804733276367 64.17288208007812 38.07225799560547 C 60.26637268066406 42.27368927001953 62.13528823852539 45.610355377197266 63.8043327331543 47.758758544921875 C 59.51930618286133 40.062294006347656 60.45950698852539 38.284969329833984 65.40538024902344 37.827335357666016 C 62.45374298095703 36.640830993652344 61.67724609375 41.09189987182617 60.07174301147461 40.77616500854492" stroke-width="0.0" fill="rgb(141, 135, 126)" opacity="0.7495368" stroke="rgb(61, 25, 4)" stroke-opacity="0.9295293" stroke-linecap="round" stroke-linejoin="round"/>
    <path d="M 58.35163116455078 38.47987365722656 C 62.184471130371094 41.688140869140625 56.57808303833008 39.03413009643555 59.40265655517578 36.4464225769043 C 64.54076385498047 44.484031677246094 61.580196380615234 45.420135498046875 52.872474670410156 45.810482025146484 C 50.452674865722656 46.70669937133789 54.59844970703125 45.74047088623047 51.672420501708984 45.90946960449219 C 64.67574310302734 45.17435836791992 60.9154167175293 44.117374420166016 58.35163116455078 38.47987365722656" stroke-width="0.0" fill="rgb(79, 60, 36)" opacity="0.64573574" stroke="rgb(170, 200, 71)" stroke-opacity="0.58641016" stroke-linecap="round" stroke-linejoin="round"/>
    <path d="M 74.94518280029297 63.04316711425781 C 69.3188705444336 86.66957092285156 52.56346130371094 81.95197296142578 45.598121643066406 70.4526596069336 C 49.80263137817383 74.27308654785156 49.58807373046875 69.61910247802734 52.04191589355469 69.26133728027344 C 53.3093376159668 68.73265838623047 51.61674880981445 65.93756866455078 45.977699279785156 57.900936126708984 C 59.000457763671875 59.30821228027344 62.847286224365234 55.02036666870117 74.94518280029297 63.04316711425781" stroke-width="0.0" fill="rgb(228, 229, 221)" opacity="0.089607105" stroke="rgb(16, 123, 249)" stroke-opacity="0.87650526" stroke-linecap="round" stroke-linejoin="round"/>
    <path d="M 55.214599609375 94.29512786865234 C 61.511539459228516 92.5140380859375 58.47964859008789 92.67131042480469 47.08399963378906 95.9508056640625 C 48.142906188964844 96.22811889648438 46.49725341796875 95.8275146484375 47.12681198120117 94.90094757080078 C 47.904090881347656 92.23460388183594 43.58246612548828 92.9262924194336 46.238731384277344 87.81969451904297 C 50.280853271484375 95.75492858886719 43.5257568359375 94.51030731201172 55.214599609375 94.29512786865234" stroke-width="0.0" fill="rgb(105, 76, 26)" opacity="0.22203308" stroke="rgb(86, 245, 59)" stroke-opacity="0.9493188" stroke-linecap="round" stroke-linejoin="round"/>
    <path d="M 56.44218063354492 91.74685668945312 C 54.6649284362793 92.30574035644531 56.862571716308594 91.50759887695312 59.67015838623047 92.91229248046875 C 55.56538009643555 91.07839965820312 56.847965240478516 93.08085632324219 57.1583251953125 91.81222534179688 C 57.602142333984375 107.42233276367188 62.2888298034668 99.20155334472656 54.93152618408203 94.38807678222656 C 56.382164001464844 96.12255096435547 58.78480911254883 97.17694091796875 56.44218063354492 91.74685668945312" stroke-width="0.0" fill="rgb(27, 20, 27)" opacity="0.70297486" stroke="rgb(240, 203, 160)" stroke-opacity="0.87428796" stroke-linecap="round" stroke-linejoin="round"/>
    <path d="M 55.75661087036133 92.1827163696289 C 57.362037658691406 96.45000457763672 56.74013137817383 94.73323822021484 58.810791015625 93.93199157714844 C 56.3220100402832 96.78162384033203 54.0063591003418 89.62831115722656 59.450016021728516 94.5496826171875 C 56.43541717529297 92.87006378173828 57.679420471191406 91.63097381591797 55.4449462890625 93.62500762939453 C 54.59210205078125 97.83200073242188 54.51783752441406 98.17376708984375 55.75661087036133 92.1827163696289" stroke-width="0.0" fill="rgb(177, 107, 33)" opacity="0.6827126" stroke="rgb(74, 216, 157)" stroke-opacity="0.013236858" stroke-linecap="round" stroke-linejoin="round"/>
    <path d="M 57.67220687866211 106.6423110961914 C 61.51511764526367 109.36682891845703 56.78062438964844 107.69264221191406 52.65867233276367 107.79854583740234 C 54.06720733642578 107.35264587402344 58.48720169067383 108.2264404296875 56.03499984741211 105.93080139160156 C 64.4247817993164 111.01024627685547 56.80965042114258 108.06148529052734 56.8231201171875 109.24440002441406 C 54.04181671142578 107.20296478271484 54.10311508178711 107.1461181640625 57.67220687866211 106.6423110961914" stroke-width="0.0" fill="rgb(170, 182, 183)" opacity="0.38776654" stroke="rgb(88, 37, 250)" stroke-opacity="0.4783703" stroke-linecap="round" stroke-linejoin="round"/>
    <path d="M 62.85486602783203 39.26369857788086 C 62.81252670288086 38.76274871826172 61.69575500488281 32.66722106933594 61.50724792480469 39.05167770385742 C 60.869632720947266 43.3021125793457 57.65234375 33.3596076965332 60.88792419433594 38.24305725097656 C 60.923744201660156 43.78834915161133 61.23265838623047 43.37568283081055 60.53069305419922 44.147132873535156 C 59.2883186340332 38.26176834106445 62.17213439941406 37.892391204833984 62.85486602783203 39.26369857788086" stroke-width="0.0" fill="rgb(202, 199, 192)" opacity="0.85264134" stroke="rgb(126, 163, 93)" stroke-opacity="0.13690028" stroke-linecap="round" stroke-linejoin="round"/>
    <path d="M 69.81150817871094 37.381961822509766 C 60.8060302734375 37.92891311645508 62.89175796508789 41.17371368408203 65.32102966308594 38.73908233642578 C 62.03525924682617 38.08589553833008 65.30211639404297 34.81264877319336 66.98686981201172 37.99317932128906 C 64.2395248413086 41.16872024536133 63.56169128417969 36.15289306640625 62.91669464111328 37.319644927978516 C 57.88923263549805 37.13249969482422 62.706443786621094 36.5291748046875 69.81150817871094 37.381961822509766" stroke-width="0.0" fill="rgb(198, 197, 189)" opacity="0.5364854" stroke="rgb(209, 48, 130)" stroke-opacity="0.22431703" stroke-linecap="round" stroke-linejoin="round"/>
    <path d="M 61.619842529296875 44.89447021484375 C 66.09619903564453 45.065616607666016 67.17172241210938 37.214149475097656 62.34016036987305 46.539093017578125 C 60.615543365478516 36.92127227783203 60.502994537353516 35.72575759887695 58.580650329589844 39.597145080566406 C 65.09654998779297 38.19243240356445 70.16785430908203 38.785736083984375 62.849708557128906 37.906898498535156 C 62.29605484008789 35.92625427246094 62.82179641723633 36.99237823486328 61.619842529296875 44.89447021484375" stroke-width="0.0" fill="rgb(239, 240, 242)" opacity="0.6835917" stroke="rgb(24, 219, 248)" stroke-opacity="0.9608347" stroke-linecap="round" stroke-linejoin="round"/>
    <path d="M 64.95417785644531 36.11525344848633 C 68.07572174072266 37.891998291015625 67.00495910644531 38.83442687988281 58.57567596435547 39.859981536865234 C 64.1742172241211 41.078765869140625 70.98770904541016 35.03180694580078 73.80651092529297 32.392147064208984 C 54.10365676879883 34.12533187866211 52.87017822265625 35.306243896484375 69.48457336425781 34.86463165283203 C 64.24321746826172 40.274593353271484 61.2510986328125 43.340328216552734 64.95417785644531 36.11525344848633" stroke-width="0.0" fill="rgb(98, 99, 100)" opacity="0.8615783" stroke="rgb(231, 197, 84)" stroke-opacity="0.08110139" stroke-linecap="round" stroke-linejoin="round"/>
    <path d="M 61.417423248291016 47.78312683105469 C 62.8950080871582 47.371307373046875 63.82940673828125 47.10041809082031 59.457889556884766 42.41773986816406 C 62.323402404785156 42.39871597290039 59.41355514526367 44.62640380859375 62.830997467041016 47.284812927246094 C 58.306861877441406 44.306793212890625 68.02925109863281 43.98368835449219 61.527645111083984 47.251991271972656 C 66.55840301513672 46.20653533935547 62.524593353271484 44.04536819458008 61.417423248291016 47.78312683105469" stroke-width="0.0" fill="rgb(183, 119, 41)" opacity="0.7545872" stroke="rgb(103, 59, 33)" stroke-opacity="0.053427182" stroke-linecap="round" stroke-linejoin="round"/>
    <path d="M 61.64564514160156 38.38783645629883 C 63.391422271728516 45.972808837890625 60.14030456542969 53.43287658691406 61.10709762573242 39.095821380615234 C 61.71207809448242 41.03689956665039 62.32363510131836 44.413211822509766 63.87262725830078 43.780006408691406 C 60.47065734863281 44.382606506347656 62.53990936279297 47.4228401184082 61.28748321533203 47.72105026245117 C 60.28517150878906 46.69634246826172 64.16209411621094 48.52394485473633 61.64564514160156 38.38783645629883" stroke-width="0.0" fill="rgb(224, 136, 26)" opacity="0.4509655" stroke="rgb(185, 2, 196)" stroke-opacity="0.14694664" stroke-linecap="round" stroke-linejoin="round"/>
    <path d="M 62.92580032348633 46.84598159790039 C 59.78605270385742 50.11400604248047 62.97942352294922 43.66010284423828 64.12152862548828 46.630550384521484 C 59.46852111816406 42.156593322753906 59.56836700439453 41.82316589355469 60.605430603027344 40.027462005615234 C 60.04005432128906 42.47359085083008 63.206764221191406 41.66457748413086 61.17927551269531 42.65968704223633 C 61.655128479003906 46.19123077392578 62.76662826538086 45.59059524536133 62.92580032348633 46.84598159790039" stroke-width="0.0" fill="rgb(153, 125, 90)" opacity="0.7096461" stroke="rgb(20, 22, 171)" stroke-opacity="0.24536721" stroke-linecap="round" stroke-linejoin="round"/>
    <path d="M 61.582340240478516 52.523075103759766 C 68.13765716552734 44.70098114013672 66.7968521118164 49.51677322387695 69.23918151855469 51.20762634277344 C 63.860347747802734 46.543983459472656 70.7713394165039 41.66043472290039 66.20820617675781 44.16713333129883 C 64.54121398925781 53.3732795715332 75.54496002197266 49.528175354003906 65.64608764648438 47.639373779296875 C 67.37470245361328 46.887489318847656 64.35559844970703 49.490501403808594 61.582340240478516 52.523075103759766" stroke-width="0.0" fill="rgb(255, 190, 11)" opacity="0.7400919" stroke="rgb(107, 142, 219)" stroke-opacity="0.7270443" stroke-linecap="round" stroke-linejoin="round"/>
    <path d="M 73.72083282470703 51.80535125732422 C 67.1560287475586 53.643287658691406 62.64999008178711 53.663299560546875 69.02066802978516 53.238094329833984 C 68.723876953125 52.193660736083984 66.33229064941406 48.490257263183594 61.254520416259766 45.234004974365234 C 62.04508972167969 46.89712142944336 65.6491470336914 49.37762451171875 60.399784088134766 41.963531494140625 C 64.9488296508789 50.8324089050293 67.72379302978516 54.2785758972168 73.72083282470703 51.80535125732422" stroke-width="0.0" fill="rgb(254, 255, 254)" opacity="0.8195405" stroke="rgb(68, 33, 14)" stroke-opacity="0.30159864" stroke-linecap="round" stroke-linejoin="round"/>
    <path d="M 69.80765533447266 45.58662796020508 C 61.19601058959961 48.004486083984375 60.18668746948242 44.96185302734375 61.69557189941406 50.73902893066406 C 61.24391174316406 48.3416748046875 60.659358978271484 45.41973114013672 61.87422561645508 45.72462844848633 C 63.67138671875 34.48871994018555 59.112762451171875 41.0145378112793 63.3012580871582 39.77779006958008 C 59.9736213684082 48.75060272216797 66.57272338867188 46.44287872314453 69.80765533447266 45.58662796020508" stroke-width="0.0" fill="rgb(72, 62, 56)" opacity="0.7300729" stroke="rgb(66, 116, 174)" stroke-opacity="0.6956254" stroke-linecap="round" stroke-linejoin="round"/>
    <path d="M 72.43972778320312 59.09904479980469 C 72.02849578857422 60.163516998291016 71.23136138916016 54.40311813354492 77.6423568725586 55.90815734863281 C 81.0372314453125 63.771148681640625 75.5239486694336 53.067386627197266 76.75696563720703 55.010921478271484 C 71.65011596679688 56.60236740112305 72.45573425292969 57.06324005126953 71.91808319091797 59.978729248046875 C 72.40376281738281 58.40324783325195 72.14610290527344 59.400943756103516 72.43972778320312 59.09904479980469" stroke-width="0.0" fill="rgb(115, 107, 96)" opacity="0.4616596" stroke="rgb(72, 96, 46)" stroke-opacity="0.7885455" stroke-linecap="round" stroke-linejoin="round"/>
    <path d="M 71.83768463134766 57.6261100769043 C 68.07756805419922 57.06489944458008 70.91301727294922 61.07542419433594 77.13587951660156 52.49029541015625 C 77.71729278564453 56.602500915527344 73.39913177490234 54.5618896484375 71.04054260253906 56.687782287597656 C 63.768131256103516 59.23432922363281 69.20970153808594 57.68613052368164 72.15849304199219 57.893653869628906 C 68.91500091552734 57.84539031982422 69.03748321533203 56.82502365112305 71.83768463134766 57.6261100769043" stroke-width="0.0" fill="rgb(28, 20, 4)" opacity="0.5021385" stroke="rgb(14, 177, 198)" stroke-opacity="0.7774076" stroke-linecap="round" stroke-linejoin="round"/>
    <path d="M 64.8841781616211 58.76063919067383 C 73.01182556152344 56.63424301147461 71.08394622802734 57.88334655761719 77.13134002685547 54.054264068603516 C 75.55753326416016 55.44821548461914 68.86307525634766 58.58749008178711 65.56757354736328 58.640689849853516 C 68.27120208740234 57.69489288330078 64.25914001464844 57.0860595703125 67.55431365966797 57.27055740356445 C 59.51076889038086 58.35577392578125 65.30892181396484 57.953651428222656 64.8841781616211 58.76063919067383" stroke-width="0.0" fill="rgb(28, 23, 3)" opacity="0.7656467" stroke="rgb(66, 95, 149)" stroke-opacity="0.2728219" stroke-linecap="round" stroke-linejoin="round"/>
    <path d="M 52.97314453125 66.4591064453125 C 57.980628967285156 63.38974380493164 52.80366134643555 70.55390167236328 54.07548141479492 64.42457580566406 C 53.91859817504883 60.47023391723633 53.33087158203125 60.20030975341797 51.10438919067383 59.97624588012695 C 51.131526947021484 64.5628890991211 53.2353401184082 64.21681213378906 54.83129119873047 64.40082550048828 C 54.06471252441406 63.37959289550781 53.527339935302734 67.18560028076172 52.97314453125 66.4591064453125" stroke-width="0.0" fill="rgb(253, 253, 252)" opacity="0.7884162" stroke="rgb(94, 50, 117)" stroke-opacity="0.0446123" stroke-linecap="round" stroke-linejoin="round"/>
    <path d="M 72.17159271240234 63.27656936645508 C 72.4438705444336 60.06331253051758 74.53414154052734 62.0822868347168 74.4459228515625 59.082706451416016 C 74.453857421875 60.899749755859375 75.76882934570312 58.871055603027344 72.74453735351562 61.6269416809082 C 72.18118286132812 60.08012390136719 74.36473083496094 59.6846809387207 72.86467742919922 59.4510383605957 C 74.3419418334961 57.89908218383789 70.30647277832031 67.21217346191406 72.17159271240234 63.27656936645508" stroke-width="0.0" fill="rgb(201, 200, 193)" opacity="0.7364198" stroke="rgb(203, 19, 132)" stroke-opacity="0.3068101" stroke-linecap="round" stroke-linejoin="round"/>
    <path d="M 48.98577880859375 73.72896575927734 C 45.49174499511719 75.70528411865234 43.836788177490234 70.49131774902344 46.42124938964844 69.50151824951172 C 44.07146453857422 73.4358901977539 43.572052001953125 69.94080352783203 52.12174987792969 69.63101959228516 C 49.38779067993164 66.40718078613281 46.38508987426758 66.05789184570312 47.271846771240234 67.08729553222656 C 48.23079299926758 64.21279907226562 47.085872650146484 66.45073699951172 48.98577880859375 73.72896575927734" stroke-width="0.0" fill="rgb(255, 255, 255)" opacity="0.15109073" stroke="rgb(147, 244, 164)" stroke-opacity="0.035362437" stroke-linecap="round" stroke-linejoin="round"/>
    <path d="M 47.5306396484375 84.25372314453125 C 43.79410934448242 72.77775573730469 45.2049674987793 72.57402038574219 45.84028625488281 72.21273803710938 C 46.468963623046875 73.90007019042969 41.08502960205078 69.7956314086914 40.83613967895508 59.58573913574219 C 46.382652282714844 74.54307556152344 43.81970977783203 75.23551177978516 47.44635009765625 59.051265716552734 C 49.918399810791016 54.144065856933594 45.42280960083008 62.03038024902344 47.5306396484375 84.25372314453125" stroke-width="0.0" fill="rgb(61, 42, 16)" opacity="0.9876491" stroke="rgb(109, 130, 136)" stroke-opacity="0.6813925" stroke-linecap="round" stroke-linejoin="round"/>
    <path d="M 91.29358673095703 72.06986236572266 C 90.23123168945312 76.5660400390625 89.12307739257812 74.29566955566406 89.97644805908203 75.56245422363281 C 90.89692687988281 73.94152069091797 91.25816345214844 73.64659118652344 87.40574645996094 79.40010833740234 C 89.20556640625 82.32814025878906 91.12481689453125 81.6979751586914 93.0024185180664 82.35884094238281 C 80.48807525634766 77.87665557861328 88.25616455078125 85.2863540649414 91.29358673095703 72.06986236572266" stroke-width="0.0" fill="rgb(115, 112, 111)" opacity="0.857637" stroke="rgb(70, 32, 100)" stroke-opacity="0.9564057" stroke-linecap="round" stroke-linejoin="round"/>
    <path d="M 45.78450012207031 88.79027557373047 C 41.047325134277344 89.98231506347656 43.4904899597168 92.14552307128906 43.02473068237305 82.30457305908203 C 44.99373245239258 83.50340270996094 43.72734451293945 81.27796173095703 49.394996643066406 91.03092956542969 C 44.68522262573242 80.02440643310547 38.86540603637695 64.35072326660156 41.76716995239258 76.39861297607422 C 44.30975341796875 83.60908508300781 45.00926971435547 86.21798706054688 45.78450012207031 88.79027557373047" stroke-width="0.0" fill="rgb(64, 46, 16)" opacity="0.849707" stroke="rgb(47, 230, 138)" stroke-opacity="0.4569114" stroke-linecap="round" stroke-linejoin="round"/>
    <path d="M 81.33428955078125 86.27142333984375 C 84.98807525634766 76.35554504394531 81.87903594970703 82.32015991210938 76.06336212158203 92.45890045166016 C 80.89742279052734 84.17852783203125 85.40679931640625 76.77241516113281 78.1197280883789 90.2060546875 C 77.26676177978516 84.29862213134766 80.1275634765625 83.66146087646484 83.5995864868164 82.875 C 75.3681411743164 84.84569549560547 79.54684448242188 85.94441986083984 81.33428955078125 86.27142333984375" stroke-width="0.0" fill="rgb(18, 10, 4)" opacity="0.93926835" stroke="rgb(224, 116, 184)" stroke-opacity="0.39902532" stroke-linecap="round" stroke-linejoin="round"/>
    <path d="M 40.606163024902344 81.219970703125 C 38.10575866699219 74.3936767578125 33.74918746948242 78.75210571289062 30.26787757873535 75.3385238647461 C 35.430721282958984 78.2989501953125 37.48627853393555 79.29252624511719 35.55590057373047 77.46497344970703 C 38.05011749267578 79.7234115600586 33.60856246948242 79.81805419921875 39.92177200317383 81.67874145507812 C 45.52068328857422 63.09431076049805 47.44346237182617 68.02702331542969 40.606163024902344 81.219970703125" stroke-width="0.0" fill="rgb(104, 101, 99)" opacity="0.64497304" stroke="rgb(230, 175, 178)" stroke-opacity="0.3277204" stroke-linecap="round" stroke-linejoin="round"/>
    <path d="M 72.51458740234375 81.98458099365234 C 74.4660873413086 85.97003173828125 80.11034393310547 92.20088958740234 81.92994689941406 83.70341491699219 C 77.46729278564453 85.47254180908203 69.72860717773438 85.50323486328125 70.42253112792969 83.37786102294922 C 67.3446044921875 75.65850067138672 68.20085906982422 74.07628631591797 76.0830078125 71.41401672363281 C 75.34822845458984 80.40559387207031 74.11981201171875 87.09984588623047 72.51458740234375 81.98458099365234" stroke-width="0.0" fill="rgb(239, 240, 234)" opacity="0.23695508" stroke="rgb(192, 162, 61)" stroke-opacity="0.16053882" stroke-linecap="round" stroke-linejoin="round"/>
    <path d="M 64.36937713623047 83.80408477783203 C 58.22200393676758 95.84954071044922 53.04378890991211 101.93992614746094 54.577415466308594 93.1486587524414 C 47.22057342529297 79.7837142944336 54.19525909423828 77.69033813476562 53.81093215942383 87.7025146484375 C 53.66549301147461 90.14552307128906 53.12079620361328 88.9002914428711 53.42820739746094 72.91397094726562 C 58.18191909790039 72.0899887084961 56.71879577636719 74.65214538574219 64.36937713623047 83.80408477783203" stroke-width="0.0" fill="rgb(251, 251, 250)" opacity="0.49234423" stroke="rgb(203, 244, 116)" stroke-opacity="0.59098417" stroke-linecap="round" stroke-linejoin="round"/>
    <path d="M 41.26012420654297 85.17698669433594 C 43.17646408081055 85.23184204101562 39.30587387084961 84.2785873413086 38.445953369140625 82.34777069091797 C 38.58638381958008 86.2682113647461 39.94398498535156 83.33720397949219 43.20512008666992 86.07826232910156 C 45.82115173339844 88.85811614990234 43.74281692504883 84.75048828125 46.037147521972656 83.06526184082031 C 40.327354431152344 83.96519470214844 40.61691665649414 89.51016998291016 41.26012420654297 85.17698669433594" stroke-width="0.0" fill="rgb(195, 197, 191)" opacity="0.78592056" stroke="rgb(218, 116, 242)" stroke-opacity="0.5757512" stroke-linecap="round" stroke-linejoin="round"/>
    <path d="M 76.34087371826172 84.03545379638672 C 80.16928100585938 77.31861114501953 71.47909545898438 90.14027404785156 81.4701156616211 84.21432495117188 C 82.63362121582031 78.95893096923828 81.3390121459961 75.89974212646484 80.119140625 78.59566497802734 C 80.56533813476562 91.21034240722656 78.9052963256836 91.27311706542969 78.92086029052734 83.73772430419922 C 75.60191345214844 82.41439819335938 77.65553283691406 84.13194274902344 76.34087371826172 84.03545379638672" stroke-width="0.0" fill="rgb(189, 166, 133)" opacity="0.6765626" stroke="rgb(209, 231, 207)" stroke-opacity="0.15941447" stroke-linecap="round" stroke-linejoin="round"/>
    <path d="M 59.7688102722168 85.02271270751953 C 43.718318939208984 109.7572250366211 49.330020904541016 109.06330108642578 59.62790298461914 94.0983657836914 C 52.46678161621094 94.43701171875 49.28801727294922 95.65985107421875 48.20458221435547 90.41626739501953 C 55.6986083984375 91.61278533935547 58.285377502441406 89.82257843017578 48.36983108520508 91.87806701660156 C 42.25465393066406 52.77621841430664 54.81620407104492 65.34131622314453 59.7688102722168 85.02271270751953" stroke-width="0.0" fill="rgb(226, 227, 220)" opacity="0.02307491" stroke="rgb(160, 101, 15)" stroke-opacity="0.42403224" stroke-linecap="round" stroke-linejoin="round"/>
    <path d="M 46.754817962646484 99.25916290283203 C 44.05606460571289 85.02738952636719 49.784095764160156 84.35845184326172 49.86385726928711 92.51907348632812 C 48.59988021850586 101.35916900634766 45.946571350097656 99.86559295654297 41.41769790649414 87.15656280517578 C 38.91327667236328 84.66244506835938 42.08146667480469 80.94837188720703 48.84121322631836 83.86297607421875 C 50.957401275634766 91.81234741210938 48.825355529785156 94.37092590332031 46.754817962646484 99.25916290283203" stroke-width="0.0" fill="rgb(47, 33, 12)" opacity="1.0" stroke="rgb(65, 216, 8)" stroke-opacity="0.9589827" stroke-linecap="round" stroke-linejoin="round"/>
    <path d="M 36.139339447021484 95.15489959716797 C 37.11475372314453 95.35340881347656 36.087181091308594 94.66140747070312 39.46233367919922 92.00218963623047 C 37.98958206176758 92.19808959960938 37.48184585571289 92.3166275024414 35.20719528198242 93.46987915039062 C 38.11103057861328 93.43040466308594 46.89031982421875 91.2082290649414 37.685279846191406 91.37407684326172 C 37.12325668334961 95.38956451416016 38.723480224609375 91.91944885253906 36.139339447021484 95.15489959716797" stroke-width="0.0" fill="rgb(97, 98, 102)" opacity="0.7823498" stroke="rgb(90, 90, 4)" stroke-opacity="0.18523233" stroke-linecap="round" stroke-linejoin="round"/>
    <path d="M 71.38916015625 89.24890899658203 C 68.47810363769531 92.37677001953125 54.85381317138672 98.46566009521484 53.782169342041016 96.63359832763672 C 54.90798568725586 92.08063507080078 55.421905517578125 87.15434265136719 55.336490631103516 83.37913513183594 C 57.19032669067383 97.17707061767578 57.296409606933594 94.72017669677734 54.58212661743164 82.05397033691406 C 57.67189025878906 86.40376281738281 62.821380615234375 88.31258392333984 71.38916015625 89.24890899658203" stroke-width="0.0" fill="rgb(254, 254, 253)" opacity="0.87549216" stroke="rgb(102, 236, 25)" stroke-opacity="0.94530153" stroke-linecap="round" stroke-linejoin="round"/>
    <path d="M 73.67166137695312 89.48721313476562 C 72.7601089477539 90.72868347167969 70.73534393310547 90.45199584960938 58.38094711303711 89.74371337890625 C 74.2216796875 96.37415313720703 67.61283874511719 94.33012390136719 72.32357025146484 94.40048217773438 C 68.24454498291016 92.2703857421875 66.92230224609375 91.57611846923828 72.27298736572266 94.36048126220703 C 70.02371978759766 93.67113494873047 74.31747436523438 93.39030456542969 73.67166137695312 89.48721313476562" stroke-width="0.0" fill="rgb(251, 251, 250)" opacity="0.59744614" stroke="rgb(221, 115, 83)" stroke-opacity="0.23274413" stroke-linecap="round" stroke-linejoin="round"/>
    <path d="M 72.28917694091797 100.18560791015625 C 64.63955688476562 100.7644271850586 74.41069030761719 99.5007095336914 83.60138702392578 98.53260803222656 C 65.04998779296875 93.69400787353516 68.98369598388672 94.47594451904297 62.171173095703125 92.12171936035156 C 64.55016326904297 97.53790283203125 62.975563049316406 92.39995574951172 72.41120910644531 115.8752212524414 C 70.059814453125 102.14389038085938 62.814945220947266 99.59113311767578 72.28917694091797 100.18560791015625" stroke-width="0.0" fill="rgb(28, 53, 60)" opacity="0.017202692" stroke="rgb(156, 8, 3)" stroke-opacity="0.42879573" stroke-linecap="round" stroke-linejoin="round"/>
    <path d="M 77.0387954711914 96.73756408691406 C 71.69722747802734 96.33643341064453 73.23648071289062 101.28031158447266 77.19171905517578 96.0830307006836 C 77.68634796142578 97.5185546875 73.68566131591797 96.74212646484375 76.66477966308594 91.19606018066406 C 71.34249877929688 95.37690734863281 76.50505065917969 94.72612762451172 77.882080078125 94.08113861083984 C 77.62862396240234 93.59970092773438 78.1072769165039 93.70549011230469 77.0387954711914 96.73756408691406" stroke-width="0.0" fill="rgb(166, 160, 148)" opacity="0.577183" stroke="rgb(17, 64, 56)" stroke-opacity="0.2531912" stroke-linecap="round" stroke-linejoin="round"/>
    <path d="M 58.079345703125 97.17678833007812 C 53.626399993896484 95.17857360839844 55.426029205322266 101.78536224365234 54.646968841552734 104.28609466552734 C 43.145896911621094 102.25503540039062 37.71367645263672 110.05760192871094 40.64784240722656 100.05754852294922 C 38.4173698425293 100.81800079345703 57.22966003417969 99.45507049560547 59.0904655456543 99.35550689697266 C 54.716854095458984 99.87053680419922 52.381446838378906 100.65263366699219 58.079345703125 97.17678833007812" stroke-width="0.0" fill="rgb(62, 47, 23)" opacity="1.0" stroke="rgb(33, 3, 29)" stroke-opacity="0.61848027" stroke-linecap="round" stroke-linejoin="round"/>
    <path d="M 62.254451751708984 95.23412322998047 C 63.92581558227539 95.27485656738281 64.08026123046875 94.39104461669922 65.89141845703125 91.86908721923828 C 62.24740219116211 97.98120880126953 61.694969177246094 94.40274810791016 64.7562255859375 95.60517120361328 C 64.5750503540039 95.77718353271484 62.86982727050781 94.69133758544922 61.78996276855469 95.4718017578125 C 63.25223159790039 94.92552185058594 63.66581726074219 94.57208251953125 62.254451751708984 95.23412322998047" stroke-width="0.0" fill="rgb(214, 199, 89)" opacity="0.46427643" stroke="rgb(248, 252, 104)" stroke-opacity="0.16295442" stroke-linecap="round" stroke-linejoin="round"/>
    <path d="M 99.89098358154297 97.4674072265625 C 105.72714233398438 97.61996459960938 101.42184448242188 94.62104797363281 99.98528289794922 96.55233001708984 C 104.5418472290039 93.51764678955078 100.88863372802734 102.66078186035156 100.65379333496094 96.951416015625 C 101.3198013305664 96.15145111083984 96.54171752929688 100.76902770996094 98.98799133300781 100.42952728271484 C 100.43023681640625 100.81462860107422 97.59851837158203 102.14634704589844 99.89098358154297 97.4674072265625" stroke-width="0.0" fill="rgb(191, 179, 167)" opacity="0.68165493" stroke="rgb(162, 125, 252)" stroke-opacity="0.065304205" stroke-linecap="round" stroke-linejoin="round"/>
    <path d="M 70.45626068115234 102.10255432128906 C 72.91284942626953 98.353515625 66.94157409667969 101.4072036743164 70.91362762451172 99.80972290039062 C 71.6551513671875 102.94139099121094 70.7401351928711 98.89238739013672 70.48920440673828 100.19989013671875 C 71.90328216552734 98.86532592773438 67.21807098388672 100.41883850097656 88.66217041015625 100.0274429321289 C 92.93207550048828 105.50243377685547 63.77231979370117 105.70024871826172 70.45626068115234 102.10255432128906" stroke-width="0.0" fill="rgb(79, 60, 29)" opacity="0.70092624" stroke="rgb(199, 73, 61)" stroke-opacity="0.66250455" stroke-linecap="round" stroke-linejoin="round"/>
    <path d="M 23.258689880371094 103.42787170410156 C 22.744155883789062 103.43466186523438 23.598031997680664 102.29015350341797 26.227705001831055 103.0841064453125 C 25.119552612304688 102.6114730834961 23.3074893951416 101.67738342285156 22.744653701782227 104.88642883300781 C 23.063953399658203 103.86014556884766 23.432838439941406 104.48042297363281 21.850065231323242 104.469970703125 C 22.804658889770508 104.65914154052734 22.20634651184082 104.47715759277344 23.258689880371094 103.42787170410156" stroke-width="0.0" fill="rgb(214, 213, 210)" opacity="0.8296303" stroke="rgb(62, 169, 131)" stroke-opacity="0.42408898" stroke-linecap="round" stroke-linejoin="round"/>
    <path d="M 62.594688415527344 102.21520233154297 C 64.49029541015625 105.27364349365234 67.13472747802734 104.62518310546875 64.2916259765625 104.34020233154297 C 67.5606689453125 107.30868530273438 71.95586395263672 107.03279113769531 72.03014373779297 113.65254211425781 C 71.76950073242188 107.58101654052734 68.48860168457031 107.61316680908203 68.73980712890625 108.26536560058594 C 67.79057312011719 105.78109741210938 64.90814208984375 105.41535186767578 62.594688415527344 102.21520233154297" stroke-width="0.0" fill="rgb(206, 192, 186)" opacity="0.6545893" stroke="rgb(141, 73, 180)" stroke-opacity="0.41485688" stroke-linecap="round" stroke-linejoin="round"/>
    <path d="M 53.99266815185547 105.50048065185547 C 52.691341400146484 104.43407440185547 51.2924919128418 106.16588592529297 59.963600158691406 105.57441711425781 C 60.839508056640625 106.94461822509766 60.852806091308594 106.08186340332031 57.674564361572266 105.5224380493164 C 54.94329833984375 107.63059997558594 53.749168395996094 107.06199645996094 56.92298889160156 106.24275970458984 C 51.04887771606445 104.54286193847656 53.56650161743164 107.75494384765625 53.99266815185547 105.50048065185547" stroke-width="0.0" fill="rgb(242, 243, 245)" opacity="0.86245203" stroke="rgb(91, 211, 235)" stroke-opacity="0.04600731" stroke-linecap="round" stroke-linejoin="round"/>
    <path d="M 68.53349304199219 107.79132080078125 C 66.63876342773438 104.71446990966797 68.49359893798828 105.99552917480469 66.99040222167969 105.45793914794922 C 67.22718048095703 105.77454376220703 67.28370666503906 105.71824645996094 67.59201049804688 105.54753112792969 C 67.64371490478516 106.27133178710938 67.10403442382812 103.57339477539062 68.00082397460938 109.25117492675781 C 71.72003173828125 109.76673126220703 66.09034729003906 109.56489562988281 68.53349304199219 107.79132080078125" stroke-width="0.0" fill="rgb(201, 176, 150)" opacity="0.6552578" stroke="rgb(59, 88, 207)" stroke-opacity="0.98549145" stroke-linecap="round" stroke-linejoin="round"/>
    <path d="M 132.1490020751953 113.18409729003906 C 135.95965576171875 112.68257904052734 122.04934692382812 114.62593841552734 131.56158447265625 113.44059753417969 C 129.41493225097656 112.1753158569336 127.70330047607422 110.40933227539062 125.74445343017578 108.24071502685547 C 130.94631958007812 114.28602600097656 124.97821044921875 107.0187759399414 129.92535400390625 114.4111099243164 C 128.66680908203125 113.6107406616211 129.877197265625 111.74169921875 132.1490020751953 113.18409729003906" stroke-width="0.0" fill="rgb(98, 99, 100)" opacity="0.9346471" stroke="rgb(75, 252, 63)" stroke-opacity="0.10590615" stroke-linecap="round" stroke-linejoin="round"/>
    <path d="M 122.72674560546875 33.50177764892578 C 111.63103485107422 46.596351623535156 128.79974365234375 66.12393951416016 160.02801513671875 32.826358795166016 C 127.94586944580078 19.785987854003906 152.0361785888672 -0.919126033782959 85.58099365234375 -20.43463897705078 C 32.7547721862793 38.72147750854492 56.75125503540039 0.5813495516777039 91.732666015625 21.725194931030273 C 125.39263916015625 39.738277435302734 113.53933715820312 31.97245979309082 122.72674560546875 33.50177764892578" stroke-width="0.0" fill="rgb(95, 94, 96)" opacity="1.0" stroke="rgb(175, 14, 186)" stroke-opacity="0.8817202" stroke-linecap="round" stroke-linejoin="round"/>
    <path d="M 35.189605712890625 40.596134185791016 C 32.4708366394043 48.462181091308594 23.794715881347656 37.465553283691406 18.852689743041992 51.680294036865234 C 34.4173469543457 65.6799545288086 33.99515914916992 45.67799377441406 44.247947692871094 41.546119689941406 C 34.278751373291016 49.566680908203125 33.45751190185547 52.211421966552734 43.31068420410156 44.935062408447266 C 41.42162322998047 40.4848747253418 42.4986572265625 46.4316291809082 35.189605712890625 40.596134185791016" stroke-width="0.0" fill="rgb(94, 93, 95)" opacity="0.8826824" stroke="rgb(95, 190, 60)" stroke-opacity="0.1718531" stroke-linecap="round" stroke-linejoin="round"/>
    <path d="M 62.254852294921875 37.86845016479492 C 64.79037475585938 47.83622741699219 61.53169631958008 40.677303314208984 55.364585876464844 37.88045883178711 C 58.57155227661133 40.101280212402344 56.168033599853516 38.36215591430664 53.49229431152344 37.78548812866211 C 46.508506774902344 30.400041580200195 45.652503967285156 30.398656845092773 48.54344940185547 37.34977340698242 C 52.78604507446289 34.783912658691406 89.64802551269531 35.826961517333984 62.254852294921875 37.86845016479492" stroke-width="0.0" fill="rgb(51, 36, 12)" opacity="1.0" stroke="rgb(213, 60, 128)" stroke-opacity="0.9425836" stroke-linecap="round" stroke-linejoin="round"/>
    <path d="M 78.0202865600586 118.18419647216797 C 85.82695007324219 117.63597106933594 86.85832977294922 114.29495239257812 80.80564880371094 114.65614318847656 C 87.89318084716797 121.20883178710938 79.73062896728516 114.6987533569336 82.87020874023438 117.81497192382812 C 84.23542785644531 115.93919372558594 85.99468231201172 113.62071228027344 88.12227630615234 112.01719665527344 C 84.1782455444336 123.46749114990234 79.09562683105469 128.1968994140625 78.0202865600586 118.18419647216797" stroke-width="0.0" fill="rgb(95, 95, 95)" opacity="0.9283568" stroke="rgb(239, 191, 178)" stroke-opacity="0.96796554" stroke-linecap="round" stroke-linejoin="round"/>
    <path d="M 132.77049255371094 57.476219177246094 C 133.73556518554688 60.82744598388672 132.85940551757812 65.815673828125 131.59182739257812 62.5911865234375 C 130.1103515625 56.62752914428711 128.3839874267578 53.89329528808594 130.9276580810547 72.81385040283203 C 133.7329559326172 61.12508773803711 128.30874633789062 61.621944427490234 128.2163543701172 54.14605712890625 C 131.891845703125 54.439456939697266 129.14891052246094 55.60261535644531 132.77049255371094 57.476219177246094" stroke-width="0.0" fill="rgb(90, 92, 97)" opacity="0.8957138" stroke="rgb(18, 74, 38)" stroke-opacity="0.41748637" stroke-linecap="round" stroke-linejoin="round"/>
    <path d="M 15.627073287963867 79.17943572998047 C 12.248533248901367 80.45149993896484 11.954554557800293 72.39738464355469 13.372942924499512 73.74362182617188 C 12.728658676147461 73.1566390991211 12.607709884643555 76.39280700683594 11.64820384979248 73.59920501708984 C 11.185660362243652 74.49396514892578 13.667021751403809 66.21769714355469 12.391529083251953 76.38546752929688 C 15.49478530883789 73.5193862915039 12.541228294372559 83.20664978027344 15.627073287963867 79.17943572998047" stroke-width="0.0" fill="rgb(76, 63, 57)" opacity="0.92691094" stroke="rgb(97, 228, 246)" stroke-opacity="0.5468849" stroke-linecap="round" stroke-linejoin="round"/>
    <path d="M 32.060977935791016 69.36825561523438 C 37.89823913574219 77.42025756835938 38.99961853027344 77.4748306274414 27.84177589416504 81.85939025878906 C 23.960121154785156 85.3113784790039 17.376585006713867 80.27396392822266 31.004714965820312 68.14228820800781 C 29.78235626220703 70.05180358886719 36.26753616333008 64.61280822753906 34.27363204956055 74.86000061035156 C 34.83888244628906 75.0093765258789 38.264034271240234 71.61731719970703 32.060977935791016 69.36825561523438" stroke-width="0.0" fill="rgb(94, 94, 96)" opacity="0.931357" stroke="rgb(228, 103, 140)" stroke-opacity="0.27165276" stroke-linecap="round" stroke-linejoin="round"/>
    <path d="M 62.373573303222656 48.050926208496094 C 52.51536178588867 53.52898406982422 54.31085205078125 56.706382751464844 59.54768753051758 54.977352142333984 C 56.296592712402344 53.19450378417969 54.73883819580078 55.33000946044922 51.47309494018555 45.64579391479492 C 53.325836181640625 58.571800231933594 62.05837631225586 54.861480712890625 60.048973083496094 43.93428039550781 C 51.771995544433594 36.242279052734375 71.71851348876953 46.24822235107422 62.373573303222656 48.050926208496094" stroke-width="0.0" fill="rgb(251, 253, 254)" opacity="0.9877257" stroke="rgb(63, 128, 79)" stroke-opacity="0.37303486" stroke-linecap="round" stroke-linejoin="round"/>
    <path d="M 74.41818237304688 97.14950561523438 C 75.7168960571289 101.5340805053711 67.4281005859375 95.27225494384766 67.36172485351562 96.64761352539062 C 60.74150085449219 98.26193237304688 45.54831314086914 95.84623718261719 56.90780258178711 91.58488464355469 C 51.62153625488281 73.99543762207031 60.126277923583984 70.8685302734375 73.664306640625 79.29352569580078 C 70.1605224609375 89.20814514160156 75.84020233154297 89.77730560302734 74.41818237304688 97.14950561523438" stroke-width="0.0" fill="rgb(244, 246, 245)" opacity="0.23280321" stroke="rgb(85, 235, 219)" stroke-opacity="0.048690297" stroke-linecap="round" stroke-linejoin="round"/>
    <path d="M 37.463321685791016 40.99702835083008 C 24.16755485534668 52.36491394042969 21.75699806213379 61.68660354614258 26.68659019470215 57.53626251220703 C 39.966251373291016 56.083621978759766 36.39217758178711 53.701412200927734 35.64849853515625 50.230648040771484 C 36.06039047241211 63.75322341918945 34.78949737548828 65.6505355834961 34.32198715209961 53.43548583984375 C 27.987831115722656 63.633758544921875 29.129201889038086 59.568546295166016 37.463321685791016 40.99702835083008" stroke-width="0.0" fill="rgb(94, 93, 95)" opacity="0.7797437" stroke="rgb(26, 88, 188)" stroke-opacity="0.68051445" stroke-linecap="round" stroke-linejoin="round"/>
    <path d="M 75.82398223876953 86.36518096923828 C 79.49805450439453 99.42528533935547 79.90115356445312 90.25914764404297 77.7811050415039 97.44925689697266 C 75.20254516601562 99.29081726074219 74.15638732910156 104.75984191894531 75.79536437988281 79.5256118774414 C 77.26139068603516 83.86363983154297 80.13314056396484 84.82621765136719 80.16796875 69.3280258178711 C 84.65706634521484 86.87196350097656 81.69869995117188 93.2497787475586 75.82398223876953 86.36518096923828" stroke-width="0.0" fill="rgb(40, 26, 6)" opacity="0.8330123" stroke="rgb(52, 87, 172)" stroke-opacity="0.8792348" stroke-linecap="round" stroke-linejoin="round"/>
    <path d="M 75.92088317871094 34.316612243652344 C 69.71200561523438 38.20014190673828 64.01524353027344 38.112884521484375 74.10977172851562 36.56880187988281 C 67.9163818359375 38.3011589050293 57.62420654296875 46.22590637207031 61.40830993652344 36.07487869262695 C 69.26994323730469 35.0288200378418 79.01799774169922 41.00974655151367 78.08425903320312 31.595081329345703 C 68.05166625976562 38.89508056640625 67.51731872558594 38.55522537231445 75.92088317871094 34.316612243652344" stroke-width="0.0" fill="rgb(59, 42, 16)" opacity="0.9782885" stroke="rgb(7, 181, 2)" stroke-opacity="0.37267908" stroke-linecap="round" stroke-linejoin="round"/>
    <path d="M 70.3406982421875 121.5769271850586 C 67.0855712890625 122.36643981933594 85.37662506103516 125.71835327148438 51.253326416015625 135.3529815673828 C 20.410953521728516 122.65560150146484 64.74458312988281 117.26573181152344 62.53317642211914 116.9095687866211 C 63.766849517822266 118.22023010253906 72.87881469726562 128.1250762939453 57.68535232543945 124.32543182373047 C 53.37247085571289 118.67566680908203 56.909088134765625 111.77950286865234 70.3406982421875 121.5769271850586" stroke-width="0.0" fill="rgb(94, 94, 96)" opacity="0.80814874" stroke="rgb(22, 103, 6)" stroke-opacity="0.34261099" stroke-linecap="round" stroke-linejoin="round"/>
    <path d="M 84.26364135742188 39.51860427856445 C 78.8134536743164 22.447895050048828 83.95950317382812 13.464676856994629 97.95809936523438 28.116952896118164 C 91.46455383300781 51.888675689697266 84.69063568115234 33.86157989501953 83.4675064086914 34.07554244995117 C 84.20541381835938 41.35429763793945 85.93144989013672 39.718570709228516 87.78498077392578 38.271183013916016 C 81.37614440917969 39.07573699951172 85.79019165039062 38.79686737060547 84.26364135742188 39.51860427856445" stroke-width="0.0" fill="rgb(95, 94, 96)" opacity="1.0" stroke="rgb(53, 29, 147)" stroke-opacity="0.69527" stroke-linecap="round" stroke-linejoin="round"/>
    <path d="M 113.52273559570312 130.58651733398438 C 95.01828002929688 125.97987365722656 73.37639617919922 120.137939453125 90.04129791259766 126.34871673583984 C 89.58550262451172 121.73775482177734 62.444278717041016 128.3677520751953 61.37770080566406 119.56149291992188 C 76.25350952148438 107.1946792602539 84.69529724121094 115.02198791503906 82.2994384765625 119.57362365722656 C 89.80831909179688 107.99630737304688 102.00292205810547 105.39569854736328 113.52273559570312 130.58651733398438" stroke-width="0.0" fill="rgb(93, 93, 95)" opacity="0.73270404" stroke="rgb(0, 165, 153)" stroke-opacity="0.58873963" stroke-linecap="round" stroke-linejoin="round"/>
  </g>
</svg>
