<?xml version="1.0" ?>
<svg xmlns="http://www.w3.org/2000/svg" version="1.1" width="512" height="512">
  <defs/>
  <g>
    <path stroke-width="0" fill="rgb(-7, 0, 6)" opacity="1.0244591" stroke="rgb(139, 182, 153)" stroke-opacity="1.0" stroke-linecap="round" stroke-linejoin="round" d="M 356.7119140625 216.18040466308594 C 384.9081115722656 218.55081176757812 278.4678649902344 215.70126342773438 264.2834777832031 212.3840789794922 C 130.01693725585938 213.46261596679688 150.11375427246094 206.35208129882812 148.30807495117188 197.8430938720703 C 213.93357849121094 199.9873809814453 264.9114074707031 210.91567993164062 267.88848876953125 207.13442993164062 C 202.08946228027344 208.2401580810547 248.56802368164062 196.12881469726562 356.7119140625 216.18040466308594"/>
    <path stroke-width="0" fill="rgb(82, 88, 84)" opacity="0.550805" stroke="rgb(108, 164, 111)" stroke-opacity="1.0" stroke-linecap="round" stroke-linejoin="round" d="M 248.42669677734375 649.9942016601562 C -234.71888732910156 573.552490234375 297.682861328125 113.79656219482422 178.3060302734375 421.280517578125 C -127.49382781982422 552.24072265625 332.8783264160156 167.43630981445312 29.712936401367188 276.9710693359375 C 116.3918685913086 667.7467651367188 -110.71585845947266 701.9743041992188 -42.98749542236328 -49.247127532958984 C 461.3453063964844 -99.60035705566406 458.8609924316406 -91.35690307617188 248.42669677734375 649.9942016601562"/>
    <path stroke-width="0" fill="rgb(33, 35, 32)" opacity="0.99366504" stroke="rgb(245, 97, 201)" stroke-opacity="1.0" stroke-linecap="round" stroke-linejoin="round" d="M 778.8880004882812 368.20684814453125 C 378.14495849609375 602.4176025390625 207.59429931640625 622.0272827148438 280.7298278808594 314.0997314453125 C 190.29624938964844 346.565185546875 434.6272888183594 549.2227783203125 497.8752746582031 374.834228515625 C 527.3715209960938 137.19590759277344 135.5292205810547 382.7652282714844 256.27630615234375 -24.033004760742188 C 449.6614074707031 -97.54769134521484 769.5654296875 -107.06083679199219 778.8880004882812 368.20684814453125"/>
    <path stroke-width="0" fill="rgb(-6, 2, 4)" opacity="0.99847037" stroke="rgb(144, 236, 18)" stroke-opacity="1.0" stroke-linecap="round" stroke-linejoin="round" d="M 422.1767578125 343.7795715332031 C 402.81866455078125 348.28759765625 410.7935485839844 580.1055297851562 408.1787109375 364.7603454589844 C 241.73721313476562 359.5788269042969 249.6326141357422 323.3610534667969 330.7253723144531 348.9818420410156 C 436.7993469238281 332.93994140625 394.1897888183594 376.6476135253906 320.42364501953125 163.34732055664062 C 412.3594970703125 344.39471435546875 406.9568176269531 344.0600891113281 422.1767578125 343.7795715332031"/>
    <path stroke-width="0" fill="rgb(3, 4, 1)" opacity="0.9844413" stroke="rgb(5, 212, 198)" stroke-opacity="1.0" stroke-linecap="round" stroke-linejoin="round" d="M 196.3376922607422 142.973388671875 C 190.98959350585938 173.48439025878906 158.17481994628906 171.45590209960938 163.38250732421875 135.287841796875 C 129.1475067138672 281.4224853515625 166.36436462402344 217.9927215576172 166.67466735839844 150.13328552246094 C 187.5931854248047 173.392333984375 138.52700805664062 111.60826110839844 145.10232543945312 173.93856811523438 C 177.64662170410156 266.5644226074219 112.16378021240234 114.43551635742188 196.3376922607422 142.973388671875"/>
    <path stroke-width="0" fill="rgb(253, 253, 249)" opacity="1.0250939" stroke="rgb(249, 203, 117)" stroke-opacity="1.0" stroke-linecap="round" stroke-linejoin="round" d="M 138.63218688964844 274.27386474609375 C 214.31700134277344 298.1463623046875 163.16790771484375 301.89898681640625 131.44305419921875 333.0484313964844 C 147.5039825439453 290.77294921875 169.0669708251953 273.7481994628906 154.3375244140625 291.6262512207031 C 159.40151977539062 294.75323486328125 173.94174194335938 295.53631591796875 162.27127075195312 284.9849853515625 C 133.32891845703125 272.3226623535156 147.1199951171875 281.1943359375 138.63218688964844 274.27386474609375"/>
    <path stroke-width="0" fill="rgb(256, 259, 257)" opacity="0.9864584" stroke="rgb(30, 163, 36)" stroke-opacity="1.0" stroke-linecap="round" stroke-linejoin="round" d="M 152.34889221191406 320.21636962890625 C 172.25668334960938 262.5988464355469 246.46554565429688 349.7042541503906 149.68905639648438 317.83306884765625 C 121.09735107421875 343.5906677246094 94.45793914794922 354.64849853515625 118.77274322509766 336.0032958984375 C 155.94772338867188 277.8760070800781 120.02154541015625 241.85983276367188 174.2850341796875 288.5142517089844 C 177.40692138671875 312.286865234375 180.9526824951172 294.7102966308594 152.34889221191406 320.21636962890625"/>
    <path stroke-width="0" fill="rgb(0, 0, 0)" opacity="0.9974618" stroke="rgb(133, 105, 67)" stroke-opacity="1.0" stroke-linecap="round" stroke-linejoin="round" d="M 130.83204650878906 439.61083984375 C 140.00100708007812 472.93865966796875 -18.396198272705078 450.2647705078125 10.668108940124512 337.7469177246094 C 11.527530670166016 477.85247802734375 158.64422607421875 439.8716125488281 132.25045776367188 440.0435791015625 C 108.36730194091797 481.9548645019531 298.4203186035156 379.7324523925781 147.01109313964844 250.4664306640625 C 288.50140380859375 413.1212158203125 76.22605895996094 464.1886901855469 130.83204650878906 439.61083984375"/>
    <path stroke-width="0" fill="rgb(-2, -1, 0)" opacity="1.0129225" stroke="rgb(116, 144, 4)" stroke-opacity="1.0" stroke-linecap="round" stroke-linejoin="round" d="M 11.994574546813965 390.4555358886719 C -18.18808364868164 341.1596984863281 -17.286136627197266 367.5843811035156 -25.747968673706055 336.78948974609375 C -7.4144062995910645 378.67962646484375 -82.74238586425781 416.3761901855469 28.540681838989258 364.5857849121094 C -25.06808853149414 426.96136474609375 -6.931014537811279 190.12399291992188 164.90960693359375 262.1330871582031 C -61.14323043823242 209.32081604003906 33.77276611328125 500.38629150390625 11.994574546813965 390.4555358886719"/>
    <path stroke-width="0" fill="rgb(262, 260, 252)" opacity="0.9592312" stroke="rgb(156, 157, 240)" stroke-opacity="1.0" stroke-linecap="round" stroke-linejoin="round" d="M 360.3489685058594 281.525146484375 C 332.6559143066406 379.90545654296875 385.9492492675781 322.9073181152344 300.75360107421875 354.1944885253906 C 307.1756591796875 321.8296813964844 326.9599609375 282.6982727050781 337.29705810546875 287.2447509765625 C 321.1274719238281 270.7709045410156 311.5986022949219 308.68756103515625 357.648193359375 317.1394348144531 C 272.2981262207031 284.5805969238281 386.6761779785156 246.88714599609375 360.3489685058594 281.525146484375"/>
    <path stroke-width="0" fill="rgb(-6, 0, 4)" opacity="0.9980533" stroke="rgb(91, 111, 177)" stroke-opacity="1.0" stroke-linecap="round" stroke-linejoin="round" d="M 124.39646911621094 307.7357482910156 C 125.35245513916016 298.55499267578125 101.17255401611328 349.3126525878906 125.53724670410156 325.2330017089844 C 113.90089416503906 337.7897033691406 154.5648651123047 161.5496826171875 173.5984649658203 143.66372680664062 C 127.8487777709961 331.67706298828125 128.82078552246094 329.9466857910156 121.84104919433594 314.1898193359375 C 135.35421752929688 286.0727233886719 119.15599060058594 293.864501953125 124.39646911621094 307.7357482910156"/>
    <path stroke-width="0" fill="rgb(0, 0, 0)" opacity="0.97467005" stroke="rgb(170, 171, 53)" stroke-opacity="1.0" stroke-linecap="round" stroke-linejoin="round" d="M 131.72433471679688 288.4458312988281 C 96.78217315673828 408.9906921386719 123.1908187866211 283.8468933105469 102.59651184082031 398.6812744140625 C 109.1686019897461 311.4251403808594 92.78583526611328 405.5896301269531 97.27422332763672 337.7164306640625 C 86.35388946533203 322.40301513671875 134.00296020507812 393.2798156738281 57.28082275390625 249.27015686035156 C 123.20671844482422 343.0502624511719 83.58450317382812 372.29571533203125 131.72433471679688 288.4458312988281"/>
    <path stroke-width="0" fill="rgb(-2, 1, 3)" opacity="0.9895421" stroke="rgb(80, 92, 145)" stroke-opacity="1.0" stroke-linecap="round" stroke-linejoin="round" d="M 298.6025695800781 296.3508605957031 C 292.95965576171875 285.7393493652344 291.68829345703125 299.51788330078125 266.21612548828125 306.2327880859375 C 306.6864929199219 177.9593048095703 257.9206848144531 455.7045593261719 389.6259765625 443.79766845703125 C 239.9173583984375 403.1269226074219 323.2862854003906 181.1588592529297 484.0790710449219 282.03204345703125 C 352.8328857421875 156.258056640625 275.1771545410156 388.2688293457031 298.6025695800781 296.3508605957031"/>
    <path stroke-width="0" fill="rgb(186, 190, 186)" opacity="0.9714513" stroke="rgb(252, 26, 53)" stroke-opacity="1.0" stroke-linecap="round" stroke-linejoin="round" d="M 393.1736755371094 206.87705993652344 C 293.4472961425781 215.69442749023438 297.7187805175781 222.0130615234375 374.6613464355469 212.2198028564453 C 237.6939239501953 204.77687072753906 184.94424438476562 196.47543334960938 158.6104278564453 201.27102661132812 C 240.29147338867188 131.61204528808594 149.136962890625 19.47746467590332 423.0089416503906 106.07888793945312 C 449.85198974609375 225.39065551757812 269.92919921875 109.09416198730469 393.1736755371094 206.87705993652344"/>
    <path stroke-width="0" fill="rgb(178, 176, 168)" opacity="0.84954786" stroke="rgb(166, 64, 118)" stroke-opacity="1.0" stroke-linecap="round" stroke-linejoin="round" d="M 330.1634216308594 242.6122589111328 C 288.8101501464844 284.88995361328125 279.9676513671875 325.7218933105469 236.98211669921875 355.9029235839844 C 219.42431640625 347.82470703125 217.2765655517578 335.16680908203125 229.72714233398438 258.8385314941406 C 225.28932189941406 227.25146484375 225.14614868164062 209.83151245117188 273.5304870605469 215.25547790527344 C 355.28155517578125 216.35838317871094 336.9850769042969 210.8529510498047 330.1634216308594 242.6122589111328"/>
    <path stroke-width="0" fill="rgb(46, 91, 174)" opacity="0.90054035" stroke="rgb(40, 28, 167)" stroke-opacity="1.0" stroke-linecap="round" stroke-linejoin="round" d="M 317.138427734375 266.59283447265625 C 313.6490783691406 265.069091796875 315.5286865234375 274.52813720703125 305.8530578613281 276.0608215332031 C 325.7081604003906 269.8387451171875 333.80572509765625 262.58453369140625 324.2515563964844 254.64524841308594 C 327.131103515625 249.74761962890625 321.9142150878906 219.6849822998047 312.165283203125 273.36920166015625 C 268.5271301269531 327.2809143066406 339.85968017578125 311.989013671875 317.138427734375 266.59283447265625"/>
    <path stroke-width="0" fill="rgb(176, 175, 174)" opacity="0.84776634" stroke="rgb(50, 94, 209)" stroke-opacity="1.0" stroke-linecap="round" stroke-linejoin="round" d="M 445.2984924316406 454.13775634765625 C 432.4665222167969 475.9151306152344 241.14056396484375 479.972412109375 428.0193176269531 468.9520263671875 C 147.46495056152344 632.1372680664062 351.61590576171875 314.05267333984375 199.73208618164062 384.31500244140625 C 225.31256103515625 290.98828125 135.3465576171875 256.70166015625 204.02574157714844 299.8370666503906 C 333.49664306640625 357.55499267578125 289.46197509765625 461.3795471191406 445.2984924316406 454.13775634765625"/>
    <path stroke-width="0" fill="rgb(-2, 0, 4)" opacity="0.9616317" stroke="rgb(213, 24, 248)" stroke-opacity="1.0" stroke-linecap="round" stroke-linejoin="round" d="M 256.9361572265625 268.69415283203125 C 233.09478759765625 185.6964111328125 133.49488830566406 222.8020477294922 154.1287841796875 198.35076904296875 C 338.3748474121094 211.72767639160156 355.5421142578125 192.1899871826172 261.3973693847656 217.3685302734375 C 283.3787536621094 217.26658630371094 352.6883850097656 254.19544982910156 344.12127685546875 206.6567840576172 C 255.8682861328125 197.68179321289062 257.57086181640625 246.71937561035156 256.9361572265625 268.69415283203125"/>
    <path stroke-width="0" fill="rgb(38, 90, 172)" opacity="0.7552294" stroke="rgb(249, 154, 188)" stroke-opacity="1.0" stroke-linecap="round" stroke-linejoin="round" d="M 326.8798828125 229.00746154785156 C 256.4594421386719 295.18353271484375 205.54734802246094 283.81707763671875 235.3216552734375 268.0882263183594 C 214.01358032226562 278.39166259765625 206.50189208984375 282.4788818359375 191.3933563232422 248.1515350341797 C 141.37921142578125 273.4618225097656 144.5439910888672 195.38137817382812 172.93006896972656 215.28048706054688 C 266.4095764160156 211.28184509277344 315.127685546875 211.54052734375 326.8798828125 229.00746154785156"/>
    <path stroke-width="0" fill="rgb(4, 0, -1)" opacity="0.33250594" stroke="rgb(72, 30, 75)" stroke-opacity="1.0" stroke-linecap="round" stroke-linejoin="round" d="M 213.383056640625 28.892728805541992 C -29.93528938293457 149.3315887451172 112.80241394042969 176.87106323242188 0.4359875023365021 346.7468566894531 C -91.2841796875 156.06124877929688 -36.26716232299805 116.5959701538086 -31.709943771362305 36.69902801513672 C -31.88047218322754 10.4307222366333 -24.965839385986328 4.1932501792907715 11.95653247833252 -3.8155696392059326 C 86.1406021118164 -1.9999607801437378 168.89219665527344 -68.28374481201172 213.383056640625 28.892728805541992"/>
    <path stroke-width="0" fill="rgb(128, 126, 129)" opacity="0.7774963" stroke="rgb(81, 105, 16)" stroke-opacity="1.0" stroke-linecap="round" stroke-linejoin="round" d="M 289.5768737792969 51.195003509521484 C 4.817383289337158 89.10453796386719 168.2803955078125 230.46310424804688 27.773412704467773 273.8236999511719 C 5.26033878326416 73.83439636230469 168.0781707763672 26.032304763793945 196.87269592285156 19.551664352416992 C 48.1390266418457 19.104534149169922 89.6795654296875 -61.552650451660156 132.34701538085938 -87.96956634521484 C 156.38316345214844 -111.20108032226562 202.07139587402344 -174.45477294921875 289.5768737792969 51.195003509521484"/>
    <path stroke-width="0" fill="rgb(181, 183, 183)" opacity="0.7063147" stroke="rgb(144, 67, 133)" stroke-opacity="1.0" stroke-linecap="round" stroke-linejoin="round" d="M 329.3124084472656 -20.520570755004883 C 288.3508605957031 213.5352020263672 207.18960571289062 173.70599365234375 216.90138244628906 187.19036865234375 C 148.6958770751953 197.5819091796875 154.3314971923828 217.32431030273438 170.89427185058594 161.29647827148438 C 273.40301513671875 171.012451171875 169.46755981445312 78.34198760986328 96.92555236816406 215.3948516845703 C 185.53526306152344 11.813817977905273 346.3670654296875 24.940284729003906 329.3124084472656 -20.520570755004883"/>
    <path stroke-width="0" fill="rgb(55, 106, 177)" opacity="0.9631648" stroke="rgb(146, 236, 81)" stroke-opacity="1.0" stroke-linecap="round" stroke-linejoin="round" d="M 391.66815185546875 349.1409606933594 C 411.5570983886719 388.1159973144531 323.1904602050781 345.3680419921875 239.021240234375 405.1970520019531 C 342.7518005371094 340.8884582519531 262.53076171875 433.4266357421875 202.8750457763672 314.2091369628906 C 127.46043395996094 188.97633361816406 96.82998657226562 259.0754699707031 330.69720458984375 218.79373168945312 C 303.2954406738281 395.2393798828125 256.1417236328125 354.80413818359375 391.66815185546875 349.1409606933594"/>
    <path stroke-width="0" fill="rgb(183, 190, 186)" opacity="0.9775514" stroke="rgb(33, 182, 73)" stroke-opacity="1.0" stroke-linecap="round" stroke-linejoin="round" d="M 310.8447265625 283.5030517578125 C 274.62335205078125 375.471923828125 312.6071472167969 306.34600830078125 251.7066650390625 334.971923828125 C 229.82235717773438 305.52001953125 207.25958251953125 272.6029052734375 172.34906005859375 231.49896240234375 C 156.75779724121094 204.4183807373047 121.8574447631836 212.91815185546875 270.8873596191406 211.53636169433594 C 363.8160095214844 224.22747802734375 336.31549072265625 193.443359375 310.8447265625 283.5030517578125"/>
    <path stroke-width="0" fill="rgb(136, 137, 133)" opacity="0.46028572" stroke="rgb(149, 5, 211)" stroke-opacity="1.0" stroke-linecap="round" stroke-linejoin="round" d="M 517.6177978515625 351.2157287597656 C 411.0628662109375 140.8859100341797 378.39215087890625 217.52694702148438 380.8905944824219 227.99891662597656 C 302.59228515625 102.62859344482422 266.7735595703125 58.157073974609375 109.00617218017578 145.39443969726562 C 171.72915649414062 -2.286196708679199 213.2733612060547 52.065643310546875 293.4759521484375 -33.441131591796875 C 493.5397033691406 -48.48533248901367 596.818115234375 -59.29945755004883 517.6177978515625 351.2157287597656"/>
    <path stroke-width="0" fill="rgb(180, 180, 173)" opacity="0.9476329" stroke="rgb(172, 68, 187)" stroke-opacity="1.0" stroke-linecap="round" stroke-linejoin="round" d="M 476.89825439453125 273.74676513671875 C 514.6700439453125 300.95501708984375 444.81427001953125 223.54818725585938 366.0378723144531 254.8839874267578 C 348.7917175292969 215.2356719970703 321.2014465332031 194.03887939453125 361.6994934082031 162.0107879638672 C 252.9460906982422 131.08021545410156 267.8990478515625 167.83364868164062 369.6953125 180.17893981933594 C 491.5767517089844 101.4998550415039 481.1212463378906 158.7914276123047 476.89825439453125 273.74676513671875"/>
    <path stroke-width="0" fill="rgb(-1, 0, -1)" opacity="1.0086981" stroke="rgb(63, 146, 150)" stroke-opacity="1.0" stroke-linecap="round" stroke-linejoin="round" d="M 313.0915222167969 275.4599609375 C 343.216796875 172.56861877441406 356.3568420410156 184.15631103515625 326.3336486816406 265.3660888671875 C 324.3192443847656 265.4019470214844 328.353759765625 256.2873229980469 326.1907958984375 262.6346130371094 C 327.1400146484375 257.98480224609375 326.3326721191406 267.016845703125 322.7672424316406 262.5724182128906 C 328.5687255859375 263.7821350097656 318.9097595214844 289.70947265625 313.0915222167969 275.4599609375"/>
    <path stroke-width="0" fill="rgb(90, 90, 87)" opacity="0.7651086" stroke="rgb(56, 242, 114)" stroke-opacity="1.0" stroke-linecap="round" stroke-linejoin="round" d="M 14.770242691040039 163.96263122558594 C -10.568188667297363 348.4452819824219 18.13311195373535 83.39330291748047 -24.49011993408203 68.44405364990234 C -33.61650848388672 65.88433074951172 -35.86575698852539 55.43598556518555 -32.752586364746094 39.138885498046875 C -0.5623602867126465 -13.426560401916504 19.04776954650879 -48.489505767822266 267.2601318359375 18.121437072753906 C 237.2993927001953 78.23009490966797 141.3181915283203 -91.9648666381836 14.770242691040039 163.96263122558594"/>
    <path stroke-width="0" fill="rgb(-2, 0, 3)" opacity="1.003221" stroke="rgb(178, 75, 207)" stroke-opacity="1.0" stroke-linecap="round" stroke-linejoin="round" d="M 484.518310546875 449.75726318359375 C 536.667236328125 268.6045837402344 442.44891357421875 279.68902587890625 464.9580078125 262.93927001953125 C 521.3167724609375 308.9254455566406 497.61846923828125 336.6200866699219 507.6781311035156 315.8073425292969 C 509.22283935546875 403.93255615234375 504.81988525390625 408.861083984375 495.64227294921875 370.18695068359375 C 497.51104736328125 463.83050537109375 301.1619567871094 456.1609191894531 484.518310546875 449.75726318359375"/>
    <path stroke-width="0" fill="rgb(51, 55, 57)" opacity="0.92474985" stroke="rgb(224, 148, 224)" stroke-opacity="1.0" stroke-linecap="round" stroke-linejoin="round" d="M 60.11796569824219 481.0592041015625 C 24.507719039916992 418.04327392578125 42.25883483886719 447.5267028808594 56.141109466552734 541.1503295898438 C -19.984140396118164 506.54449462890625 -12.399822235107422 481.3741760253906 -11.67162799835205 440.8501281738281 C -33.01291275024414 414.1160888671875 -26.156923294067383 417.95587158203125 0.90252685546875 431.0152893066406 C 40.840675354003906 442.5537109375 31.722009658813477 449.89434814453125 60.11796569824219 481.0592041015625"/>
    <path stroke-width="0" fill="rgb(74, 76, 75)" opacity="0.7856533" stroke="rgb(184, 127, 243)" stroke-opacity="1.0" stroke-linecap="round" stroke-linejoin="round" d="M 129.19386291503906 455.3070068359375 C 75.48871612548828 461.44677734375 70.34597778320312 488.08447265625 58.08562088012695 495.4624328613281 C 10.833800315856934 491.31793212890625 69.31763458251953 436.25213623046875 -15.262909889221191 433.0105895996094 C -13.060815811157227 397.4816589355469 -17.094615936279297 379.2901611328125 5.06087589263916 375.4460144042969 C 20.34775733947754 427.0344543457031 66.89219665527344 458.04052734375 129.19386291503906 455.3070068359375"/>
    <path stroke-width="0" fill="rgb(123, 124, 115)" opacity="0.9824474" stroke="rgb(108, 154, 4)" stroke-opacity="1.0" stroke-linecap="round" stroke-linejoin="round" d="M 97.60761260986328 364.2378234863281 C 80.81814575195312 395.48748779296875 59.61342239379883 439.6811218261719 67.2979736328125 426.0791931152344 C 65.78583526611328 434.9769287109375 41.50923538208008 407.2147521972656 29.364931106567383 389.9735107421875 C -5.424434185028076 319.5401611328125 27.8579158782959 358.8249206542969 101.44127655029297 341.8630676269531 C 93.8868179321289 357.46630859375 50.06815719604492 411.8564147949219 97.60761260986328 364.2378234863281"/>
    <path stroke-width="0" fill="rgb(100, 102, 104)" opacity="0.7187261" stroke="rgb(168, 73, 157)" stroke-opacity="1.0" stroke-linecap="round" stroke-linejoin="round" d="M 168.72227478027344 438.423828125 C 301.5679931640625 501.6621398925781 186.15020751953125 546.776123046875 23.25110626220703 543.7135009765625 C 11.251142501831055 543.2071533203125 3.708277463912964 537.02392578125 4.433314800262451 527.7969360351562 C 28.015378952026367 459.98773193359375 30.487051010131836 449.14215087890625 35.27226638793945 458.00604248046875 C 118.66764068603516 463.8263854980469 143.7476806640625 440.76177978515625 168.72227478027344 438.423828125"/>
    <path stroke-width="0" fill="rgb(0, 4, 2)" opacity="0.909572" stroke="rgb(34, 76, 145)" stroke-opacity="1.0" stroke-linecap="round" stroke-linejoin="round" d="M 169.79022216796875 138.6543426513672 C 161.46676635742188 150.2299346923828 155.10382080078125 147.57403564453125 189.78176879882812 144.3843231201172 C 190.9567108154297 143.64413452148438 176.11285400390625 144.15988159179688 151.23837280273438 148.13470458984375 C 186.41748046875 147.7262420654297 194.42039489746094 145.02554321289062 160.42774963378906 164.9559326171875 C 158.8021240234375 157.21267700195312 144.95584106445312 162.71841430664062 169.79022216796875 138.6543426513672"/>
    <path stroke-width="0" fill="rgb(76, 80, 67)" opacity="0.8790427" stroke="rgb(146, 166, 166)" stroke-opacity="1.0" stroke-linecap="round" stroke-linejoin="round" d="M 60.244144439697266 524.89599609375 C 47.256099700927734 539.38818359375 38.75363540649414 545.7471313476562 27.42095375061035 546.61962890625 C -6.0 521.3204956054688 -13.320508003234863 514.0 -38.808834075927734 480.6268615722656 C -40.557289123535156 466.488037109375 -38.65681457519531 451.06243896484375 6.230077266693115 391.45831298828125 C 59.68473434448242 481.6979064941406 131.9085693359375 479.3219909667969 60.244144439697266 524.89599609375"/>
    <path stroke-width="0" fill="rgb(120, 121, 125)" opacity="0.83771265" stroke="rgb(182, 254, 38)" stroke-opacity="1.0" stroke-linecap="round" stroke-linejoin="round" d="M 518.3406372070312 376.8545837402344 C 582.4417724609375 359.6313781738281 477.2923278808594 267.88970947265625 428.216796875 239.45004272460938 C 469.0238342285156 149.48951721191406 318.6733093261719 40.27648162841797 247.76904296875 87.34520721435547 C 62.34059524536133 -9.657928466796875 317.62030029296875 -34.49909210205078 371.67974853515625 2.873002767562866 C 424.4833068847656 7.424505710601807 549.7338256835938 8.984110832214355 518.3406372070312 376.8545837402344"/>
    <path stroke-width="0" fill="rgb(85, 85, 84)" opacity="0.5947466" stroke="rgb(41, 156, 31)" stroke-opacity="1.0" stroke-linecap="round" stroke-linejoin="round" d="M 103.61003112792969 482.27813720703125 C 158.1619873046875 503.37884521484375 68.15335083007812 516.5589599609375 66.94711303710938 519.10546875 C 52.845401763916016 492.2257080078125 55.53099060058594 433.2883605957031 73.04644775390625 485.7425231933594 C -1.8263776302337646 405.9565734863281 -8.743086814880371 408.9031982421875 31.064699172973633 446.9328918457031 C 77.66870880126953 454.1211853027344 79.2523193359375 467.2064208984375 103.61003112792969 482.27813720703125"/>
    <path stroke-width="0" fill="rgb(92, 94, 95)" opacity="0.6776964" stroke="rgb(205, 145, 103)" stroke-opacity="1.0" stroke-linecap="round" stroke-linejoin="round" d="M 69.03916931152344 448.3476867675781 C 185.17369079589844 491.2774353027344 210.06021118164062 533.707763671875 55.68717575073242 504.3514709472656 C -32.221099853515625 448.26995849609375 -37.02593231201172 392.152587890625 73.77627563476562 501.3634338378906 C -32.26154327392578 440.806884765625 -24.071731567382812 446.53057861328125 22.04404067993164 437.9263610839844 C 10.965116500854492 382.6297302246094 18.722007751464844 424.1011047363281 69.03916931152344 448.3476867675781"/>
    <path stroke-width="0" fill="rgb(84, 82, 79)" opacity="0.6951168" stroke="rgb(177, 115, 184)" stroke-opacity="1.0" stroke-linecap="round" stroke-linejoin="round" d="M 97.40476989746094 497.1898193359375 C 66.15821075439453 530.1918334960938 58.09123992919922 537.216552734375 66.1187973022461 529.9104614257812 C 22.245676040649414 481.3826599121094 -43.9832763671875 492.5362854003906 -56.39823913574219 496.2497253417969 C -1.0405356884002686 455.7156066894531 -11.923786163330078 460.8006896972656 -20.511131286621094 446.77691650390625 C 28.847517013549805 433.6315612792969 31.221797943115234 469.0812072753906 97.40476989746094 497.1898193359375"/>
    <path stroke-width="0" fill="rgb(256, 15, 43)" opacity="0.74418896" stroke="rgb(248, 218, 2)" stroke-opacity="1.0" stroke-linecap="round" stroke-linejoin="round" d="M 363.9637451171875 170.4635467529297 C 344.89434814453125 181.01048278808594 349.22625732421875 174.0535125732422 324.79705810546875 159.24530029296875 C 333.3058776855469 173.61184692382812 312.24542236328125 148.35244750976562 335.4093933105469 168.2722930908203 C 372.2408142089844 193.54241943359375 347.9972229003906 154.09347534179688 336.982421875 204.2550048828125 C 349.13336181640625 222.50054931640625 347.0513000488281 172.4346160888672 363.9637451171875 170.4635467529297"/>
    <path stroke-width="0" fill="rgb(-3, -1, 6)" opacity="0.9884879" stroke="rgb(186, 43, 132)" stroke-opacity="1.0" stroke-linecap="round" stroke-linejoin="round" d="M 180.3228302001953 301.8357849121094 C 191.16429138183594 264.5855712890625 115.41462707519531 251.6660614013672 149.76686096191406 244.42172241210938 C 159.5780487060547 261.4002380371094 137.0518798828125 237.1472930908203 138.9359893798828 254.8761444091797 C 138.1868133544922 248.60951232910156 192.03150939941406 247.13827514648438 86.28077697753906 257.4521789550781 C 124.59429931640625 253.57168579101562 166.68650817871094 268.7624206542969 180.3228302001953 301.8357849121094"/>
    <path stroke-width="0" fill="rgb(114, 115, 116)" opacity="0.62406605" stroke="rgb(50, 4, 202)" stroke-opacity="1.0" stroke-linecap="round" stroke-linejoin="round" d="M 246.4224853515625 453.82733154296875 C 231.8188018798828 574.7963256835938 137.3128204345703 552.4778442382812 163.6944122314453 560.2634887695312 C 222.53208923339844 471.002197265625 150.387451171875 405.43536376953125 131.78012084960938 480.3167724609375 C 56.9390869140625 447.8780822753906 97.98661804199219 484.68603515625 77.7651138305664 449.0379638671875 C 160.82901000976562 470.64691162109375 143.2392120361328 401.0869445800781 246.4224853515625 453.82733154296875"/>
    <path stroke-width="0" fill="rgb(258, 254, 253)" opacity="0.90157104" stroke="rgb(88, 236, 179)" stroke-opacity="1.0" stroke-linecap="round" stroke-linejoin="round" d="M 89.02581024169922 359.6529846191406 C 114.88262176513672 388.6044921875 6.561975479125977 399.3318786621094 27.860919952392578 389.3490905761719 C 88.2782211303711 402.7693786621094 110.33060455322266 332.9540710449219 59.37001037597656 434.5295715332031 C 32.897945404052734 377.9445495605469 8.474032402038574 403.1962890625 77.6712417602539 372.2019348144531 C -0.03908848762512207 405.7174987792969 20.520172119140625 389.9859619140625 89.02581024169922 359.6529846191406"/>
    <path stroke-width="0" fill="rgb(113, 114, 115)" opacity="0.45941675" stroke="rgb(41, 158, 147)" stroke-opacity="1.0" stroke-linecap="round" stroke-linejoin="round" d="M 379.96990966796875 7.721439838409424 C 183.9299774169922 -13.967206001281738 270.33721923828125 99.68890380859375 516.3008422851562 109.00566101074219 C 504.4789123535156 -81.7660903930664 50.83103561401367 -54.97273635864258 -3.2264766693115234 281.847900390625 C -42.47114562988281 -39.88802719116211 310.83135986328125 -44.087547302246094 300.2120361328125 -22.49898910522461 C 397.13201904296875 0.05445520207285881 411.8187561035156 15.318129539489746 379.96990966796875 7.721439838409424"/>
    <path stroke-width="0" fill="rgb(155, 158, 155)" opacity="0.59364015" stroke="rgb(238, 156, 136)" stroke-opacity="1.0" stroke-linecap="round" stroke-linejoin="round" d="M 448.1932373046875 255.24505615234375 C 331.6262512207031 221.69366455078125 438.51507568359375 4.194931983947754 429.6091003417969 124.71810150146484 C 107.74701690673828 159.4176025390625 179.69830322265625 76.26251220703125 81.44801330566406 252.1111297607422 C -12.785893440246582 76.24221801757812 458.6772766113281 4.971771240234375 319.3940734863281 42.78255844116211 C 301.69012451171875 9.289254188537598 524.9677734375 30.626041412353516 448.1932373046875 255.24505615234375"/>
    <path stroke-width="0" fill="rgb(97, 101, 104)" opacity="0.89378595" stroke="rgb(186, 79, 101)" stroke-opacity="1.0" stroke-linecap="round" stroke-linejoin="round" d="M 544.9950561523438 323.4038391113281 C 547.3452758789062 544.0161743164062 540.02099609375 551.331298828125 442.3004455566406 579.9813842773438 C 291.3222351074219 689.0814208984375 225.21014404296875 740.706787109375 220.4015655517578 474.016357421875 C 347.71533203125 408.8323059082031 425.8170166015625 502.749267578125 495.487060546875 401.2480773925781 C 551.3010864257812 283.4446105957031 401.8110046386719 231.7515106201172 544.9950561523438 323.4038391113281"/>
    <path stroke-width="0" fill="rgb(83, 101, 92)" opacity="0.40339106" stroke="rgb(47, 240, 188)" stroke-opacity="1.0" stroke-linecap="round" stroke-linejoin="round" d="M 403.93011474609375 301.69207763671875 C 401.1209716796875 294.67169189453125 407.1302490234375 270.7218322753906 398.9476623535156 333.40545654296875 C 403.97869873046875 249.39529418945312 397.6904296875 273.96820068359375 405.1136474609375 288.84759521484375 C 400.44085693359375 281.7357177734375 400.98565673828125 250.14776611328125 402.17218017578125 256.275390625 C 403.9477844238281 241.32447814941406 403.7578125 301.98583984375 403.93011474609375 301.69207763671875"/>
    <path stroke-width="0" fill="rgb(95, 97, 96)" opacity="0.33855692" stroke="rgb(57, 64, 14)" stroke-opacity="1.0" stroke-linecap="round" stroke-linejoin="round" d="M 143.2681121826172 462.9947204589844 C 245.33595275878906 509.41900634765625 152.12789916992188 503.32623291015625 53.00127410888672 540.6471557617188 C 42.44731140136719 537.2024536132812 37.819068908691406 530.1972045898438 94.11065673828125 515.2423706054688 C -87.04983520507812 408.4034118652344 6.0937724113464355 430.85858154296875 79.7015380859375 490.2208557128906 C 12.906583786010742 406.6476135253906 29.2662296295166 450.0605773925781 143.2681121826172 462.9947204589844"/>
    <path stroke-width="0" fill="rgb(237, 14, 31)" opacity="1.000525" stroke="rgb(79, 177, 96)" stroke-opacity="1.0" stroke-linecap="round" stroke-linejoin="round" d="M 161.56491088867188 151.58041381835938 C 184.16709899902344 151.78594970703125 167.44232177734375 148.09884643554688 165.65504455566406 158.0247344970703 C 166.55654907226562 151.56454467773438 178.19195556640625 149.17294311523438 164.71078491210938 152.50469970703125 C 176.5231475830078 148.3611602783203 200.4095916748047 155.35714721679688 191.9073028564453 140.1005096435547 C 126.16624450683594 132.49703979492188 140.68902587890625 180.03260803222656 161.56491088867188 151.58041381835938"/>
    <path stroke-width="0" fill="rgb(89, 84, 90)" opacity="0.8757955" stroke="rgb(6, 17, 173)" stroke-opacity="1.0" stroke-linecap="round" stroke-linejoin="round" d="M 18.13765525817871 434.52667236328125 C 29.014995574951172 440.0892333984375 33.811439514160156 436.6143798828125 -63.27461242675781 452.06488037109375 C -25.437917709350586 456.98138427734375 -32.49625015258789 449.58746337890625 -45.60737609863281 424.22027587890625 C -70.30825805664062 352.16619873046875 -51.093727111816406 352.0928955078125 4.153043270111084 361.58966064453125 C 16.877561569213867 419.1863098144531 32.497215270996094 434.3629150390625 18.13765525817871 434.52667236328125"/>
    <path stroke-width="0" fill="rgb(147, 148, 149)" opacity="0.53674054" stroke="rgb(136, 228, 252)" stroke-opacity="1.0" stroke-linecap="round" stroke-linejoin="round" d="M 451.88226318359375 232.12115478515625 C 412.063720703125 323.0477294921875 450.4206237792969 68.76246643066406 261.79351806640625 88.93006896972656 C 254.2164306640625 91.27183532714844 249.74874877929688 32.521484375 69.59500122070312 162.98129272460938 C 153.75486755371094 24.84344482421875 316.1122131347656 21.869321823120117 366.07757568359375 -5.241255283355713 C 271.5961608886719 39.40715789794922 427.0118103027344 28.29727554321289 451.88226318359375 232.12115478515625"/>
    <path stroke-width="0" fill="rgb(137, 138, 138)" opacity="0.6257217" stroke="rgb(169, 67, 5)" stroke-opacity="1.0" stroke-linecap="round" stroke-linejoin="round" d="M 384.56536865234375 452.91241455078125 C 261.6827392578125 556.3877563476562 125.30730438232422 389.75299072265625 102.95389556884766 610.671142578125 C 87.05445098876953 561.8491821289062 110.97525787353516 535.2816162109375 91.79496002197266 533.709228515625 C 258.9912109375 600.7064208984375 205.1142120361328 411.293701171875 124.91462707519531 455.9475402832031 C 186.36505126953125 420.373046875 222.88824462890625 385.93536376953125 384.56536865234375 452.91241455078125"/>
    <path stroke-width="0" fill="rgb(91, 89, 85)" opacity="0.67578965" stroke="rgb(81, 97, 150)" stroke-opacity="1.0" stroke-linecap="round" stroke-linejoin="round" d="M 590.9833984375 212.4850616455078 C 352.66571044921875 76.8438491821289 260.0784606933594 -69.9251708984375 261.9256896972656 101.85431671142578 C 329.6642761230469 114.13285064697266 303.31744384765625 116.3953857421875 259.19525146484375 100.64641571044922 C 306.4710388183594 2.872159719467163 223.90426635742188 -52.91889953613281 423.1029357910156 -30.159666061401367 C 424.2981872558594 -9.451197624206543 514.3656616210938 -17.816265106201172 590.9833984375 212.4850616455078"/>
    <path stroke-width="0" fill="rgb(86, 83, 80)" opacity="0.7660762" stroke="rgb(160, 222, 69)" stroke-opacity="1.0" stroke-linecap="round" stroke-linejoin="round" d="M 2.351865530014038 473.0218200683594 C 29.776716232299805 476.67535400390625 29.049922943115234 481.4447937011719 -22.048513412475586 474.0072326660156 C 10.457038879394531 452.3590087890625 -18.080373764038086 413.81536865234375 -30.1299991607666 414.26678466796875 C -29.795747756958008 421.0752258300781 -21.742794036865234 415.0025329589844 -13.622394561767578 410.30218505859375 C 31.85966682434082 426.0025634765625 23.177757263183594 461.6832275390625 2.351865530014038 473.0218200683594"/>
    <path stroke-width="0" fill="rgb(183, 182, 180)" opacity="0.8342726" stroke="rgb(47, 242, 175)" stroke-opacity="1.0" stroke-linecap="round" stroke-linejoin="round" d="M 334.43121337890625 246.14244079589844 C 332.4254150390625 219.72532653808594 322.5187072753906 300.63104248046875 347.821044921875 259.65228271484375 C 341.3813171386719 219.94422912597656 361.8601989746094 240.70831298828125 348.2543640136719 207.06146240234375 C 377.3411865234375 225.07106018066406 385.4374694824219 243.2191619873047 351.0485534667969 230.3254852294922 C 341.0463562011719 252.0816192626953 347.9375305175781 193.5045623779297 334.43121337890625 246.14244079589844"/>
    <path stroke-width="0" fill="rgb(14, 9, 10)" opacity="0.8395049" stroke="rgb(241, 186, 64)" stroke-opacity="1.0" stroke-linecap="round" stroke-linejoin="round" d="M 531.8775634765625 348.1336669921875 C 401.98699951171875 386.8462219238281 433.6312561035156 292.4412536621094 441.7375183105469 363.9838562011719 C 385.4541931152344 338.2945556640625 427.02813720703125 345.6856384277344 411.2049560546875 339.1692199707031 C 528.2061157226562 189.91981506347656 382.7207946777344 332.64923095703125 412.48956298828125 396.22564697265625 C 395.91864013671875 311.90338134765625 462.7733154296875 382.4289855957031 531.8775634765625 348.1336669921875"/>
    <path stroke-width="0" fill="rgb(169, 172, 169)" opacity="0.7074608" stroke="rgb(132, 6, 52)" stroke-opacity="1.0" stroke-linecap="round" stroke-linejoin="round" d="M 342.288818359375 115.80284118652344 C 364.4767150878906 160.0592498779297 437.3024597167969 176.18576049804688 304.9319152832031 155.85226440429688 C 140.01487731933594 139.8675079345703 217.49502563476562 215.97607421875 192.44622802734375 121.78386688232422 C 280.25732421875 128.4770050048828 318.7837829589844 52.33024978637695 126.9551010131836 128.5681915283203 C 259.6169128417969 78.35236358642578 270.9388122558594 104.07298278808594 342.288818359375 115.80284118652344"/>
    <path stroke-width="0" fill="rgb(4, 12, 4)" opacity="0.72429687" stroke="rgb(95, 118, 70)" stroke-opacity="1.0" stroke-linecap="round" stroke-linejoin="round" d="M 413.4638977050781 255.00259399414062 C 405.8335876464844 253.775634765625 395.1628112792969 227.72308349609375 403.0820617675781 296.66943359375 C 406.98828125 222.07876586914062 396.6279602050781 256.4393005371094 401.2503662109375 248.95199584960938 C 406.42974853515625 255.48876953125 408.3409118652344 249.83798217773438 400.0378723144531 252.61146545410156 C 400.9401550292969 258.1837158203125 408.6748046875 247.9178466796875 413.4638977050781 255.00259399414062"/>
    <path stroke-width="0" fill="rgb(181, 186, 187)" opacity="0.878468" stroke="rgb(220, 29, 131)" stroke-opacity="1.0" stroke-linecap="round" stroke-linejoin="round" d="M 244.8609161376953 314.3150634765625 C 255.32749938964844 312.7247009277344 240.65243530273438 328.75732421875 285.1539611816406 321.6068420410156 C 273.8235168457031 307.4692077636719 256.0755615234375 294.9645080566406 257.4141540527344 301.5931701660156 C 257.3567810058594 327.74969482421875 256.5627746582031 314.906494140625 256.7139587402344 295.72723388671875 C 269.9643249511719 296.0677185058594 264.3411865234375 314.81451416015625 244.8609161376953 314.3150634765625"/>
    <path stroke-width="0" fill="rgb(43, 62, 58)" opacity="0.88591623" stroke="rgb(182, 100, 144)" stroke-opacity="1.0" stroke-linecap="round" stroke-linejoin="round" d="M 103.63911437988281 447.9275207519531 C 102.27493286132812 368.4917907714844 98.90585327148438 427.5115051269531 101.2815170288086 445.993896484375 C 100.28144836425781 450.65472412109375 108.58082580566406 443.46636962890625 101.88433074951172 449.0860900878906 C 103.07218933105469 449.388916015625 107.82328796386719 439.5936279296875 99.3001937866211 445.3178405761719 C 104.01346588134766 451.32916259765625 98.3286361694336 445.3860778808594 103.63911437988281 447.9275207519531"/>
    <path stroke-width="0" fill="rgb(39, 93, 176)" opacity="0.7061666" stroke="rgb(36, 124, 90)" stroke-opacity="1.0" stroke-linecap="round" stroke-linejoin="round" d="M 157.54067993164062 245.07164001464844 C 140.76385498046875 255.273681640625 142.65261840820312 255.33978271484375 154.038330078125 231.52406311035156 C 158.14663696289062 256.7076721191406 139.31790161132812 239.16062927246094 171.72528076171875 275.55218505859375 C 136.98443603515625 245.9183349609375 142.227783203125 259.4233093261719 139.16712951660156 237.3435516357422 C 141.7089080810547 263.0012512207031 143.35585021972656 251.13829040527344 157.54067993164062 245.07164001464844"/>
    <path stroke-width="0" fill="rgb(189, 190, 195)" opacity="0.98158574" stroke="rgb(140, 149, 245)" stroke-opacity="1.0" stroke-linecap="round" stroke-linejoin="round" d="M 376.0416259765625 368.479248046875 C 330.72796630859375 380.2350158691406 360.7126770019531 381.8787536621094 353.10223388671875 378.755126953125 C 333.010498046875 385.72705078125 295.4725646972656 359.1283874511719 318.432373046875 386.0199279785156 C 350.0859375 384.7847595214844 327.4282531738281 382.08905029296875 347.07135009765625 365.3074951171875 C 372.87255859375 373.7098083496094 332.5528259277344 365.1243896484375 376.0416259765625 368.479248046875"/>
    <path stroke-width="0" fill="rgb(262, 255, 249)" opacity="1.0007287" stroke="rgb(61, 25, 4)" stroke-opacity="1.0" stroke-linecap="round" stroke-linejoin="round" d="M 436.3179626464844 339.90338134765625 C 426.0698547363281 336.8658142089844 443.882080078125 347.7070007324219 443.8861999511719 378.4368896484375 C 430.2964782714844 388.15863037109375 402.34674072265625 377.84326171875 436.5432434082031 402.5972595214844 C 383.177490234375 331.68426513671875 459.36907958984375 364.6380310058594 462.4107666015625 342.014892578125 C 453.8785400390625 366.787353515625 433.46099853515625 336.5914306640625 436.3179626464844 339.90338134765625"/>
    <path stroke-width="0" fill="rgb(255, 257, 249)" opacity="0.5952154" stroke="rgb(170, 200, 71)" stroke-opacity="1.0" stroke-linecap="round" stroke-linejoin="round" d="M 350.57568359375 288.7470703125 C 360.722900390625 268.07012939453125 348.4469909667969 276.9844055175781 334.35107421875 335.43560791015625 C 335.9388122558594 317.0105895996094 323.7329406738281 318.1773681640625 354.7580871582031 280.0589294433594 C 352.3176574707031 281.9303283691406 345.3455810546875 248.6070556640625 331.5379943847656 278.62530517578125 C 339.58087158203125 252.47193908691406 358.3287048339844 274.3511657714844 350.57568359375 288.7470703125"/>
    <path stroke-width="0" fill="rgb(144, 143, 123)" opacity="0.31735945" stroke="rgb(16, 123, 249)" stroke-opacity="1.0" stroke-linecap="round" stroke-linejoin="round" d="M 334.67303466796875 322.4094543457031 C 358.1711120605469 352.4554443359375 373.10540771484375 334.58721923828125 316.29595947265625 342.94744873046875 C 393.4508972167969 346.0630798339844 339.6014099121094 342.21142578125 341.23211669921875 323.7724304199219 C 332.7396240234375 339.8050537109375 318.65667724609375 329.9584655761719 305.10540771484375 306.2972412109375 C 327.753173828125 347.1817626953125 344.3832702636719 327.8138427734375 334.67303466796875 322.4094543457031"/>
    <path stroke-width="0" fill="rgb(235, 233, 229)" opacity="0.62118906" stroke="rgb(86, 245, 59)" stroke-opacity="1.0" stroke-linecap="round" stroke-linejoin="round" d="M 12.55576229095459 361.4271240234375 C 20.028635025024414 236.53720092773438 75.55224609375 332.0980529785156 29.582077026367188 337.7532958984375 C -6.323966979980469 331.0472412109375 34.86625289916992 332.522216796875 30.032426834106445 333.3266906738281 C 27.681079864501953 326.47900390625 38.6575813293457 313.45208740234375 69.0866928100586 307.1907653808594 C 46.79758071899414 315.9919128417969 34.38677215576172 315.70587158203125 12.55576229095459 361.4271240234375"/>
    <path stroke-width="0" fill="rgb(30, 42, 42)" opacity="0.8287077" stroke="rgb(126, 163, 93)" stroke-opacity="1.0" stroke-linecap="round" stroke-linejoin="round" d="M 356.0523986816406 340.8592834472656 C 351.1907653808594 340.1847839355469 375.2634582519531 376.990234375 317.2583923339844 367.8501281738281 C 316.2555236816406 365.185791015625 299.44122314453125 368.9557800292969 351.87298583984375 367.71258544921875 C 365.0258483886719 351.8199768066406 364.061767578125 334.0765686035156 321.9717712402344 342.6640625 C 323.54656982421875 331.158935546875 311.86199951171875 349.6703796386719 356.0523986816406 340.8592834472656"/>
    <path stroke-width="0" fill="rgb(87, 88, 80)" opacity="0.80002755" stroke="rgb(231, 197, 84)" stroke-opacity="1.0" stroke-linecap="round" stroke-linejoin="round" d="M 104.82559204101562 -8.828156471252441 C 66.30633544921875 24.451560974121094 -3.4159247875213623 79.66891479492188 2.0846056938171387 116.01243591308594 C -61.462154388427734 75.93083953857422 -38.90156173706055 43.46274185180664 -21.261756896972656 2.952939987182617 C -17.32050895690918 -10.0 -10.0 -17.32050895690918 7.241615295410156 -24.014564514160156 C 31.09577178955078 -33.32636642456055 38.93543243408203 -15.198221206665039 104.82559204101562 -8.828156471252441"/>
    <path stroke-width="0" fill="rgb(180, 181, 179)" opacity="0.8243535" stroke="rgb(103, 59, 33)" stroke-opacity="1.0" stroke-linecap="round" stroke-linejoin="round" d="M 200.43174743652344 178.20941162109375 C 220.05294799804688 168.90016174316406 209.7878875732422 173.0999755859375 206.07119750976562 180.27195739746094 C 250.24606323242188 120.84696960449219 255.0166778564453 149.03138732910156 215.58056640625 183.3799285888672 C 218.12930297851562 181.16900634765625 226.3408966064453 173.47389221191406 227.9454345703125 171.23143005371094 C 224.1886749267578 129.92141723632812 202.87644958496094 154.2299041748047 200.43174743652344 178.20941162109375"/>
    <path stroke-width="0" fill="rgb(252, 249, 249)" opacity="0.7490758" stroke="rgb(20, 22, 171)" stroke-opacity="1.0" stroke-linecap="round" stroke-linejoin="round" d="M 75.9175796508789 334.9059753417969 C 60.90428161621094 325.75927734375 54.089378356933594 331.25518798828125 71.51367950439453 332.557861328125 C 95.77139282226562 335.267822265625 39.59138107299805 358.0693664550781 23.60712242126465 329.0667419433594 C -17.214773178100586 437.69281005859375 85.54251098632812 348.71539306640625 104.04137420654297 349.4712219238281 C 101.71432495117188 314.6194152832031 92.04463195800781 358.82525634765625 75.9175796508789 334.9059753417969"/>
    <path stroke-width="0" fill="rgb(249, 256, 250)" opacity="0.2835544" stroke="rgb(107, 142, 219)" stroke-opacity="1.0" stroke-linecap="round" stroke-linejoin="round" d="M 102.63552856445312 312.2131652832031 C 129.3052978515625 312.3591613769531 109.0890884399414 329.3526916503906 94.27130126953125 355.1911926269531 C 3.9291160106658936 401.8070068359375 -1.5230908393859863 249.83773803710938 92.44239044189453 271.9719543457031 C 142.323486328125 319.2535400390625 50.23067092895508 338.8662414550781 113.60379791259766 306.06707763671875 C 130.10215759277344 278.18212890625 128.9561004638672 289.5950927734375 102.63552856445312 312.2131652832031"/>
    <path stroke-width="0" fill="rgb(6, 21, 11)" opacity="0.7626394" stroke="rgb(14, 177, 198)" stroke-opacity="1.0" stroke-linecap="round" stroke-linejoin="round" d="M 23.54594612121582 299.9889221191406 C 23.36469268798828 287.833984375 54.08652877807617 318.4762878417969 109.88275146484375 347.5700378417969 C 62.50270462036133 312.0527038574219 12.466197967529297 294.8890380859375 22.312232971191406 281.00250244140625 C 17.784257888793945 295.0584411621094 24.663122177124023 275.2522888183594 22.969587326049805 309.21429443359375 C 10.139674186706543 285.3612976074219 36.25579071044922 289.7773742675781 23.54594612121582 299.9889221191406"/>
    <path stroke-width="0" fill="rgb(163, 165, 162)" opacity="0.8630345" stroke="rgb(66, 95, 149)" stroke-opacity="1.0" stroke-linecap="round" stroke-linejoin="round" d="M 344.3435974121094 134.06082153320312 C 331.4997863769531 136.89210510253906 320.91888427734375 136.31236267089844 318.2458801269531 136.67092895507812 C 382.8847961425781 131.1285858154297 367.3745422363281 139.15171813964844 351.9294738769531 116.65153503417969 C 299.9983825683594 135.0811004638672 280.517822265625 97.19821166992188 324.7361145019531 102.76428985595703 C 356.7399597167969 149.79995727539062 370.18780517578125 161.39932250976562 344.3435974121094 134.06082153320312"/>
    <path stroke-width="0" fill="rgb(134, 135, 127)" opacity="0.18470453" stroke="rgb(94, 50, 117)" stroke-opacity="1.0" stroke-linecap="round" stroke-linejoin="round" d="M 55.14982986450195 320.5691223144531 C 44.628963470458984 324.8011474609375 22.955829620361328 314.0086669921875 48.771453857421875 272.0413818359375 C 46.3770637512207 326.5034484863281 47.13350296020508 299.2901916503906 51.25677490234375 270.3277587890625 C 45.19737243652344 293.5832824707031 49.25282287597656 293.7757873535156 35.06801223754883 305.8011169433594 C 36.751953125 313.8175048828125 39.8236083984375 299.9571228027344 55.14982986450195 320.5691223144531"/>
    <path stroke-width="0" fill="rgb(0, 0, 4)" opacity="0.8866216" stroke="rgb(203, 19, 132)" stroke-opacity="1.0" stroke-linecap="round" stroke-linejoin="round" d="M 432.87310791015625 362.31317138671875 C 528.5360717773438 404.8956298828125 519.0146484375 406.4375915527344 436.33349609375 364.48663330078125 C 400.4214782714844 337.77679443359375 495.2150573730469 360.9372863769531 423.1053771972656 354.54913330078125 C 428.90283203125 372.60919189453125 450.060791015625 361.76873779296875 401.8072204589844 343.9936828613281 C 374.95953369140625 363.0121154785156 414.9475402832031 352.9287414550781 432.87310791015625 362.31317138671875"/>
    <path stroke-width="0" fill="rgb(176, 176, 180)" opacity="0.6305527" stroke="rgb(109, 130, 136)" stroke-opacity="1.0" stroke-linecap="round" stroke-linejoin="round" d="M 329.9908142089844 127.99578094482422 C 318.6169128417969 158.05929565429688 303.6026306152344 163.1151123046875 298.77410888671875 167.72842407226562 C 343.2555847167969 184.5127410888672 310.74847412109375 167.8050994873047 320.8177795410156 194.2317352294922 C 315.5330810546875 186.6949005126953 326.876708984375 173.41946411132812 299.0428771972656 158.68832397460938 C 295.23748779296875 148.37115478515625 323.4945983886719 158.10232543945312 329.9908142089844 127.99578094482422"/>
    <path stroke-width="0" fill="rgb(2, 2, -8)" opacity="0.64381087" stroke="rgb(70, 32, 100)" stroke-opacity="1.0" stroke-linecap="round" stroke-linejoin="round" d="M 200.52337646484375 401.81365966796875 C 100.50901794433594 345.2417907714844 46.73760986328125 336.1488342285156 131.24485778808594 349.8298645019531 C 120.10604858398438 326.40142822265625 127.23042297363281 335.1307067871094 130.3556365966797 350.99658203125 C 89.48747253417969 349.9777526855469 120.17394256591797 364.68145751953125 160.03030395507812 454.3312072753906 C 79.05726623535156 310.4863586425781 102.59095764160156 361.18609619140625 200.52337646484375 401.81365966796875"/>
    <path stroke-width="0" fill="rgb(6, 8, 19)" opacity="0.8045573" stroke="rgb(47, 230, 138)" stroke-opacity="1.0" stroke-linecap="round" stroke-linejoin="round" d="M 387.95843505859375 306.75469970703125 C 379.4202575683594 294.417236328125 380.3557434082031 287.62945556640625 389.6498107910156 313.4208679199219 C 391.5699768066406 314.2644958496094 384.1209411621094 308.2572021484375 393.04547119140625 311.6444091796875 C 384.19775390625 309.5318908691406 388.56719970703125 307.85614013671875 377.822509765625 296.2319030761719 C 397.14227294921875 317.0863037109375 375.5434265136719 322.9699401855469 387.95843505859375 306.75469970703125"/>
    <path stroke-width="0" fill="rgb(183, 186, 181)" opacity="0.88723385" stroke="rgb(224, 116, 184)" stroke-opacity="1.0" stroke-linecap="round" stroke-linejoin="round" d="M 199.25819396972656 181.6175079345703 C 171.34402465820312 173.66531372070312 166.0938262939453 181.91635131835938 182.4093017578125 188.75624084472656 C 206.56903076171875 164.25453186035156 198.67767333984375 167.24232482910156 187.2526092529297 168.13038635253906 C 175.0222930908203 189.01315307617188 197.2871856689453 177.6510009765625 215.78070068359375 184.60462951660156 C 194.6195831298828 178.0919952392578 169.65643310546875 222.9821319580078 199.25819396972656 181.6175079345703"/>
    <path stroke-width="0" fill="rgb(216, 218, 221)" opacity="0.1922701" stroke="rgb(230, 175, 178)" stroke-opacity="1.0" stroke-linecap="round" stroke-linejoin="round" d="M 40.600467681884766 318.1099548339844 C 42.77815246582031 309.67962646484375 50.05511474609375 283.6329650878906 82.11541748046875 318.1380310058594 C 52.63945388793945 279.33538818359375 46.759761810302734 263.08270263671875 61.85999298095703 245.88108825683594 C 85.4974594116211 244.41818237304688 61.400020599365234 243.12730407714844 52.02186584472656 244.14308166503906 C 57.03655242919922 244.32801818847656 64.28099060058594 232.09820556640625 40.600467681884766 318.1099548339844"/>
    <path stroke-width="0" fill="rgb(35, 38, 34)" opacity="0.6892957" stroke="rgb(192, 162, 61)" stroke-opacity="1.0" stroke-linecap="round" stroke-linejoin="round" d="M 2.4489269256591797 331.8578186035156 C 80.74266052246094 345.5703125 53.45051956176758 329.0451965332031 50.809932708740234 302.20843505859375 C 49.35496520996094 312.42059326171875 54.678810119628906 302.22406005859375 51.4234504699707 302.6199951171875 C 53.237693786621094 304.9512634277344 42.984134674072266 310.8055114746094 54.4846076965332 314.5711364746094 C 53.22886657714844 332.4581604003906 70.28280639648438 352.9161682128906 2.4489269256591797 331.8578186035156"/>
    <path stroke-width="0" fill="rgb(-1, 6, -7)" opacity="0.6976897" stroke="rgb(65, 216, 8)" stroke-opacity="1.0" stroke-linecap="round" stroke-linejoin="round" d="M 400.8922119140625 347.8099060058594 C 337.25799560546875 313.1216125488281 354.3587646484375 310.61334228515625 329.0316162109375 325.4993896484375 C 363.85650634765625 302.20416259765625 355.0805969238281 333.07232666015625 335.7735900878906 306.5627136230469 C 353.06341552734375 319.139892578125 381.9496765136719 332.4874572753906 382.39703369140625 335.2548522949219 C 393.37701416015625 339.6473388671875 371.4629211425781 322.9259948730469 400.8922119140625 347.8099060058594"/>
    <path stroke-width="0" fill="rgb(2, 2, 2)" opacity="0.72820747" stroke="rgb(90, 90, 4)" stroke-opacity="1.0" stroke-linecap="round" stroke-linejoin="round" d="M 159.31112670898438 162.7022705078125 C 157.05264282226562 161.17669677734375 163.48202514648438 161.273681640625 180.6052703857422 154.853271484375 C 158.5621795654297 159.59481811523438 159.86990356445312 153.57322692871094 154.25738525390625 202.5093994140625 C 154.95733642578125 166.45126342773438 163.70864868164062 160.13320922851562 165.52456665039062 156.62738037109375 C 158.00257873535156 163.72982788085938 183.04417419433594 143.30923461914062 159.31112670898438 162.7022705078125"/>
    <path stroke-width="0" fill="rgb(174, 169, 171)" opacity="0.39539397" stroke="rgb(248, 252, 104)" stroke-opacity="1.0" stroke-linecap="round" stroke-linejoin="round" d="M 104.78053283691406 239.2218475341797 C 104.92662811279297 220.02772521972656 100.92257690429688 244.22608947753906 125.50753021240234 247.8116455078125 C 130.823974609375 206.04254150390625 113.48111724853516 218.71405029296875 119.86927032470703 240.01905822753906 C 108.91455841064453 235.0618133544922 128.2957305908203 151.05357360839844 112.6072769165039 192.2672882080078 C 117.22508239746094 212.6664581298828 128.46607971191406 246.48751831054688 104.78053283691406 239.2218475341797"/>
    <path stroke-width="0" fill="rgb(3, 1, 0)" opacity="0.7143973" stroke="rgb(162, 125, 252)" stroke-opacity="1.0" stroke-linecap="round" stroke-linejoin="round" d="M 472.8727111816406 354.1517028808594 C 365.8890075683594 362.733642578125 408.0939636230469 336.60382080078125 408.9930114746094 365.0357971191406 C 419.19085693359375 321.67413330078125 421.18341064453125 346.8743896484375 350.8099365234375 447.49249267578125 C 414.50274658203125 342.0315246582031 421.3188781738281 352.1391906738281 367.4097595214844 369.54522705078125 C 367.71844482421875 382.8401794433594 381.0417175292969 344.75830078125 472.8727111816406 354.1517028808594"/>
    <path stroke-width="0" fill="rgb(167, 176, 174)" opacity="0.4526241" stroke="rgb(91, 211, 235)" stroke-opacity="1.0" stroke-linecap="round" stroke-linejoin="round" d="M 358.1101989746094 325.7314453125 C 351.98504638671875 319.0467834472656 365.6436767578125 321.7183532714844 354.70330810546875 376.86016845703125 C 347.5740966796875 374.75238037109375 361.11236572265625 377.6400146484375 358.46875 323.503662109375 C 360.6194763183594 320.3581848144531 357.3083801269531 318.1400451660156 376.2637023925781 333.7032165527344 C 357.40838623046875 316.304931640625 351.8408203125 321.2697448730469 358.1101989746094 325.7314453125"/>
    <path stroke-width="0" fill="rgb(35, 28, 24)" opacity="0.98763555" stroke="rgb(59, 88, 207)" stroke-opacity="1.0" stroke-linecap="round" stroke-linejoin="round" d="M 436.12823486328125 336.4739685058594 C 482.215576171875 315.3992919921875 450.7061767578125 325.5806579589844 460.5672607421875 323.0875549316406 C 466.1656799316406 327.2923583984375 465.2055969238281 321.14654541015625 471.980712890625 316.77069091796875 C 464.599853515625 325.8252868652344 471.8813171386719 311.3090515136719 477.9139404296875 318.4504699707031 C 428.97784423828125 333.2828369140625 399.90045166015625 358.6297302246094 436.12823486328125 336.4739685058594"/>
    <path stroke-width="0" fill="rgb(229, 235, 232)" opacity="0.42297706" stroke="rgb(63, 27, 242)" stroke-opacity="1.0" stroke-linecap="round" stroke-linejoin="round" d="M 109.68769073486328 402.8970031738281 C 44.05721664428711 429.04986572265625 54.690059661865234 441.81787109375 19.09710693359375 390.7261962890625 C 115.3684310913086 415.15924072265625 92.29417419433594 410.80426025390625 53.76668930053711 406.2039489746094 C 79.46019744873047 447.9559020996094 110.67300415039062 462.8206481933594 92.25983428955078 410.0653991699219 C 84.83216857910156 405.4014587402344 79.1238021850586 404.8219909667969 109.68769073486328 402.8970031738281"/>
    <path stroke-width="0" fill="rgb(131, 129, 132)" opacity="0.7717923" stroke="rgb(175, 14, 186)" stroke-opacity="1.0" stroke-linecap="round" stroke-linejoin="round" d="M 62.253597259521484 244.21774291992188 C 66.0438003540039 247.70657348632812 59.122562408447266 264.94647216796875 38.614418029785156 240.19773864746094 C 80.42325592041016 248.5511016845703 75.10940551757812 239.25384521484375 58.60662841796875 236.13941955566406 C 55.299278259277344 233.4078369140625 48.393760681152344 114.27684783935547 39.76567077636719 246.00762939453125 C 126.80978393554688 211.95867919921875 149.46990966796875 257.0199279785156 62.253597259521484 244.21774291992188"/>
    <path stroke-width="0" fill="rgb(140, 144, 140)" opacity="0.7704577" stroke="rgb(213, 60, 128)" stroke-opacity="1.0" stroke-linecap="round" stroke-linejoin="round" d="M 59.615882873535156 248.9042510986328 C 89.656982421875 256.14495849609375 86.84253692626953 245.0329132080078 48.706520080566406 237.75831604003906 C 36.628150939941406 241.94725036621094 74.25344848632812 235.32383728027344 121.22857666015625 226.17599487304688 C 76.701416015625 237.63037109375 69.61837768554688 247.4461212158203 56.963687896728516 248.33155822753906 C 95.52864074707031 245.03201293945312 106.42852783203125 244.0813446044922 59.615882873535156 248.9042510986328"/>
    <path stroke-width="0" fill="rgb(0, 5, 0)" opacity="0.839501" stroke="rgb(246, 139, 70)" stroke-opacity="1.0" stroke-linecap="round" stroke-linejoin="round" d="M 335.0674743652344 206.8734130859375 C 308.1370849609375 213.3892364501953 321.9560546875 209.96133422851562 312.8412170410156 215.05694580078125 C 358.4319152832031 217.21652221679688 336.75115966796875 198.6314697265625 329.74658203125 233.34381103515625 C 332.1917724609375 229.87403869628906 345.7024841308594 213.1431427001953 335.585693359375 222.34878540039062 C 334.0788269042969 220.86961364746094 348.78662109375 233.1292266845703 335.0674743652344 206.8734130859375"/>
    <path stroke-width="0" fill="rgb(156, 156, 155)" opacity="0.7533768" stroke="rgb(228, 103, 140)" stroke-opacity="1.0" stroke-linecap="round" stroke-linejoin="round" d="M 407.549560546875 220.6822052001953 C 402.4125061035156 242.76800537109375 389.9866638183594 246.33973693847656 429.774169921875 248.489013671875 C 456.4833679199219 238.6537628173828 395.3316345214844 221.64820861816406 391.337890625 241.90670776367188 C 398.4002685546875 238.47177124023438 399.42767333984375 257.1448669433594 403.0570068359375 243.1815185546875 C 396.5610656738281 244.0832977294922 408.046630859375 241.60008239746094 407.549560546875 220.6822052001953"/>
    <path stroke-width="0" fill="rgb(199, 202, 191)" opacity="0.19820619" stroke="rgb(116, 102, 63)" stroke-opacity="1.0" stroke-linecap="round" stroke-linejoin="round" d="M 497.9270935058594 368.8040771484375 C 487.65869140625 420.3621520996094 476.8817138671875 404.06048583984375 459.5241394042969 431.9847412109375 C 419.0753173828125 430.35015869140625 429.0832214355469 418.67999267578125 380.813232421875 360.5848083496094 C 431.5357971191406 379.2608337402344 435.1604919433594 315.3140563964844 429.987548828125 284.8541564941406 C 491.387451171875 267.7377014160156 506.3255920410156 320.02386474609375 497.9270935058594 368.8040771484375"/>
    <path stroke-width="0" fill="rgb(168, 161, 169)" opacity="0.6387308" stroke="rgb(64, 113, 26)" stroke-opacity="1.0" stroke-linecap="round" stroke-linejoin="round" d="M 137.3280487060547 235.087158203125 C 108.8945541381836 225.53195190429688 111.88589477539062 223.8991241455078 119.9896011352539 231.4190673828125 C 141.26202392578125 244.9441375732422 100.18475341796875 246.6676788330078 69.21509552001953 239.9808807373047 C 146.8144989013672 225.42388916015625 69.24469757080078 208.19459533691406 120.04161834716797 235.251220703125 C 105.1780776977539 249.14212036132812 149.14962768554688 254.03094482421875 137.3280487060547 235.087158203125"/>
    <path stroke-width="0" fill="rgb(8, 41, 93)" opacity="0.65457207" stroke="rgb(0, 0, 0)" stroke-opacity="0.0" stroke-linecap="round" stroke-linejoin="round" d="M 257.23828125 135.57614135742188 C 256.80841064453125 139.3455810546875 253.6046905517578 142.43968200683594 250.7017822265625 143.50848388671875 C 247.30703735351562 142.0204315185547 244.117919921875 138.99342346191406 242.24136352539062 136.17591857910156 C 243.392578125 131.76316833496094 245.85470581054688 128.7164306640625 250.23133850097656 127.62706756591797 C 254.87396240234375 128.73049926757812 257.65484619140625 131.37510681152344 257.23828125 135.57614135742188"/>
    <path stroke-width="0" fill="rgb(107, 131, 25)" opacity="0.38031492" stroke="rgb(0, 0, 0)" stroke-opacity="0.0" stroke-linecap="round" stroke-linejoin="round" d="M 262.98199462890625 450.82012939453125 C 262.6253967285156 455.4384765625 260.3028564453125 458.42291259765625 255.99392700195312 458.7127990722656 C 251.2861328125 458.7433776855469 248.6884307861328 455.88323974609375 248.1415557861328 451.24395751953125 C 248.78781127929688 446.4780578613281 251.16453552246094 443.2891845703125 255.5498504638672 443.6780700683594 C 260.3753662109375 443.864013671875 262.8498840332031 446.93402099609375 262.98199462890625 450.82012939453125"/>
    <path stroke-width="0" fill="rgb(160, 59, 117)" opacity="0.0032762235" stroke="rgb(0, 0, 0)" stroke-opacity="0.0" stroke-linecap="round" stroke-linejoin="round" d="M 22.0267333984375 82.33566284179688 C 21.46767807006836 86.03298950195312 18.58655548095703 89.00647735595703 14.506362915039062 89.99651336669922 C 10.37059211730957 88.75641632080078 7.51130485534668 85.7979507446289 6.633585453033447 81.87967681884766 C 7.624489784240723 78.02284240722656 10.554224014282227 75.14270782470703 14.390572547912598 74.19786071777344 C 18.048049926757812 75.09629821777344 20.684255599975586 78.3096694946289 22.0267333984375 82.33566284179688"/>
    <path stroke-width="0" fill="rgb(125, 72, 28)" opacity="0.40693912" stroke="rgb(0, 0, 0)" stroke-opacity="0.0" stroke-linecap="round" stroke-linejoin="round" d="M 275.2962646484375 173.2245635986328 C 275.0306396484375 177.37135314941406 271.5910339355469 180.33575439453125 268.22998046875 180.71240234375 C 264.332763671875 179.80810546875 260.9120178222656 176.87535095214844 261.4310302734375 173.5692901611328 C 261.2430114746094 169.6043243408203 263.9939880371094 166.47747802734375 267.1072998046875 165.87530517578125 C 271.0473327636719 167.28138732910156 274.4454040527344 170.02023315429688 275.2962646484375 173.2245635986328"/>
    <path stroke-width="0" fill="rgb(74, 33, 154)" opacity="0.0359561" stroke="rgb(0, 0, 0)" stroke-opacity="0.0" stroke-linecap="round" stroke-linejoin="round" d="M -6.421721458435059 41.31122970581055 C -7.493518352508545 45.31122970581055 -10.421721458435059 48.23943328857422 -14.421721458435059 49.31122970581055 C -18.421722412109375 48.23943328857422 -21.349924087524414 45.31122970581055 -22.421722412109375 41.31122970581055 C -21.349924087524414 37.31122970581055 -18.421722412109375 34.383026123046875 -14.421721458435059 33.31122970581055 C -10.421721458435059 34.383026123046875 -7.493518352508545 37.31122970581055 -6.421721458435059 41.31122970581055"/>
    <path stroke-width="0" fill="rgb(145, 190, 231)" opacity="0.052341457" stroke="rgb(0, 0, 0)" stroke-opacity="0.0" stroke-linecap="round" stroke-linejoin="round" d="M 213.5248565673828 14.625463485717773 C 213.17454528808594 19.95606231689453 210.49752807617188 22.393905639648438 205.15806579589844 22.620784759521484 C 200.62266540527344 23.410934448242188 198.64598083496094 20.420900344848633 198.69593811035156 14.869013786315918 C 198.3594512939453 10.51115894317627 201.20913696289062 8.244897842407227 207.0646209716797 7.733139991760254 C 211.45033264160156 7.071338176727295 214.24929809570312 9.993195533752441 213.5248565673828 14.625463485717773"/>
    <path stroke-width="0" fill="rgb(86, 67, 151)" opacity="0.723952" stroke="rgb(0, 0, 0)" stroke-opacity="0.0" stroke-linecap="round" stroke-linejoin="round" d="M 6.613893985748291 19.781557083129883 C 5.917511463165283 22.18511962890625 2.973099708557129 25.055309295654297 -0.7753487825393677 27.006183624267578 C -3.69758677482605 26.551898956298828 -6.589298725128174 23.519132614135742 -7.660386085510254 19.516868591308594 C -6.589449882507324 15.514154434204102 -3.709454298019409 12.451263427734375 0.4241463243961334 10.985647201538086 C 3.325352907180786 13.223840713500977 5.7244977951049805 16.92742919921875 6.613893985748291 19.781557083129883"/>
    <path stroke-width="0" fill="rgb(244, 46, 12)" opacity="0.25845498" stroke="rgb(0, 0, 0)" stroke-opacity="0.0" stroke-linecap="round" stroke-linejoin="round" d="M 295.66363525390625 149.54164123535156 C 295.28668212890625 152.7996826171875 292.55072021484375 155.9070281982422 289.2089538574219 156.3213348388672 C 285.0455627441406 155.7390594482422 282.0509338378906 153.01515197753906 281.2408447265625 148.84999084472656 C 281.7295837402344 145.05128479003906 284.6763916015625 142.01251220703125 288.6836853027344 141.1898193359375 C 292.14019775390625 142.53445434570312 295.06591796875 145.8316192626953 295.66363525390625 149.54164123535156"/>
    <path stroke-width="0" fill="rgb(112, 55, 99)" opacity="0.76809126" stroke="rgb(0, 0, 0)" stroke-opacity="0.0" stroke-linecap="round" stroke-linejoin="round" d="M 28.08454132080078 188.09169006347656 C 27.001379013061523 192.92294311523438 24.203214645385742 195.79434204101562 20.707033157348633 195.80120849609375 C 15.60265064239502 195.10166931152344 12.2542724609375 193.02439880371094 11.10883903503418 188.4470672607422 C 12.491960525512695 184.34349060058594 15.814001083374023 181.73904418945312 19.213573455810547 181.07135009765625 C 23.014671325683594 182.48580932617188 27.05475616455078 184.86993408203125 28.08454132080078 188.09169006347656"/>
    <path stroke-width="0" fill="rgb(180, 50, 236)" opacity="0.12504004" stroke="rgb(0, 0, 0)" stroke-opacity="0.0" stroke-linecap="round" stroke-linejoin="round" d="M 43.185333251953125 306.7774963378906 C 41.896976470947266 310.96240234375 38.73134994506836 313.5899963378906 36.36570739746094 314.89105224609375 C 33.22294998168945 312.96893310546875 29.231168746948242 310.62200927734375 26.231204986572266 308.6700439453125 C 29.759010314941406 304.9354553222656 33.148616790771484 302.2548522949219 35.95750427246094 300.0273132324219 C 39.48617935180664 301.13568115234375 42.78820037841797 303.6402282714844 43.185333251953125 306.7774963378906"/>
    <path stroke-width="0" fill="rgb(3, 246, 21)" opacity="0.3026463" stroke="rgb(0, 0, 0)" stroke-opacity="0.0" stroke-linecap="round" stroke-linejoin="round" d="M 230.44305419921875 84.5069351196289 C 229.65225219726562 88.8690185546875 226.80657958984375 91.76173400878906 222.47801208496094 92.95084381103516 C 218.99273681640625 92.07018280029297 216.64315795898438 88.6098403930664 215.60818481445312 84.64173126220703 C 216.0559539794922 81.08198547363281 219.03521728515625 78.22164154052734 222.768798828125 77.30435943603516 C 227.0565185546875 78.1729965209961 230.32469177246094 80.6731185913086 230.44305419921875 84.5069351196289"/>
    <path stroke-width="0" fill="rgb(136, 173, 39)" opacity="0.7425529" stroke="rgb(0, 0, 0)" stroke-opacity="0.0" stroke-linecap="round" stroke-linejoin="round" d="M -164.00164794921875 199.44883728027344 C -165.0734405517578 203.44883728027344 -168.00164794921875 206.3770294189453 -172.00164794921875 207.44883728027344 C -176.00164794921875 206.3770294189453 -178.9298553466797 203.44883728027344 -180.00164794921875 199.44883728027344 C -178.9298553466797 195.44883728027344 -176.00164794921875 192.5206298828125 -172.00164794921875 191.44883728027344 C -168.00164794921875 192.5206298828125 -165.0734405517578 195.44883728027344 -164.00164794921875 199.44883728027344"/>
    <path stroke-width="0" fill="rgb(242, 238, 15)" opacity="0.95432514" stroke="rgb(0, 0, 0)" stroke-opacity="0.0" stroke-linecap="round" stroke-linejoin="round" d="M 118.40433502197266 233.54368591308594 C 118.52312469482422 238.547607421875 116.54779052734375 241.23809814453125 111.15264129638672 241.62832641601562 C 106.8224105834961 242.0322265625 104.37837982177734 238.9309844970703 104.08902740478516 233.8699951171875 C 104.19701385498047 229.0289764404297 107.15211486816406 226.774658203125 112.45311737060547 226.366943359375 C 116.36701202392578 226.55430603027344 118.67626953125 229.57522583007812 118.40433502197266 233.54368591308594"/>
    <path stroke-width="0" fill="rgb(240, 203, 210)" opacity="0.5144242" stroke="rgb(0, 0, 0)" stroke-opacity="0.0" stroke-linecap="round" stroke-linejoin="round" d="M 426.3423767089844 165.23757934570312 C 425.6376647949219 168.14990234375 422.2073669433594 170.70306396484375 418.4100646972656 172.0482940673828 C 415.4302673339844 172.20254516601562 412.6539001464844 168.91793823242188 412.8641357421875 165.89346313476562 C 413.8210144042969 162.39859008789062 416.11767578125 157.89181518554688 418.0024108886719 157.5070343017578 C 423.0611877441406 158.83645629882812 426.25445556640625 161.1671905517578 426.3423767089844 165.23757934570312"/>
    <path stroke-width="0" fill="rgb(193, 73, 198)" opacity="0.90364873" stroke="rgb(0, 0, 0)" stroke-opacity="0.0" stroke-linecap="round" stroke-linejoin="round" d="M 18.537858963012695 1.5395467281341553 C 16.895767211914062 5.385879993438721 13.798221588134766 8.138531684875488 11.441995620727539 8.578276634216309 C 8.22954273223877 8.369794845581055 4.999452114105225 5.713183879852295 3.462702751159668 1.6825026273727417 C 3.7336974143981934 -1.8556164503097534 6.726325035095215 -4.622992992401123 11.245733261108398 -5.478956699371338 C 15.757012367248535 -4.758524417877197 18.703676223754883 -1.978438377380371 18.537858963012695 1.5395467281341553"/>
    <path stroke-width="0" fill="rgb(37, 71, 48)" opacity="0.224614" stroke="rgb(0, 0, 0)" stroke-opacity="0.0" stroke-linecap="round" stroke-linejoin="round" d="M 225.5089874267578 486.5555114746094 C 224.68109130859375 490.3147888183594 221.9158172607422 493.61541748046875 218.36643981933594 494.4923095703125 C 214.2100830078125 493.28619384765625 211.36471557617188 490.51568603515625 210.35787963867188 486.13189697265625 C 210.9178466796875 482.4617919921875 214.0448760986328 479.7730712890625 217.93414306640625 478.95843505859375 C 221.72337341308594 480.18316650390625 224.71717834472656 482.899169921875 225.5089874267578 486.5555114746094"/>
    <path stroke-width="0" fill="rgb(133, 76, 5)" opacity="0.44339222" stroke="rgb(0, 0, 0)" stroke-opacity="0.0" stroke-linecap="round" stroke-linejoin="round" d="M -762.1064453125 54.14612579345703 C -763.17822265625 58.14612579345703 -766.1064453125 61.0743293762207 -770.1064453125 62.14612579345703 C -774.1064453125 61.0743293762207 -777.0346069335938 58.14612579345703 -778.1064453125 54.14612579345703 C -777.0346069335938 50.14612579345703 -774.1064453125 47.217926025390625 -770.1064453125 46.14612579345703 C -766.1064453125 47.217926025390625 -763.17822265625 50.14612579345703 -762.1064453125 54.14612579345703"/>
    <path stroke-width="0" fill="rgb(73, 95, 123)" opacity="0.15336464" stroke="rgb(0, 0, 0)" stroke-opacity="0.0" stroke-linecap="round" stroke-linejoin="round" d="M 305.65582275390625 179.892333984375 C 305.2563171386719 184.0824737548828 302.574951171875 187.28817749023438 298.0955810546875 187.74085998535156 C 293.1722106933594 187.22691345214844 290.6431579589844 184.38861083984375 290.5037536621094 179.6450653076172 C 291.7195129394531 176.6419219970703 295.115234375 173.77378845214844 299.0025634765625 171.6662139892578 C 302.05914306640625 172.40391540527344 304.6824035644531 175.8187713623047 305.65582275390625 179.892333984375"/>
    <path stroke-width="0" fill="rgb(132, 28, 30)" opacity="0.24860738" stroke="rgb(0, 0, 0)" stroke-opacity="0.0" stroke-linecap="round" stroke-linejoin="round" d="M 147.78062438964844 160.1187744140625 C 147.51487731933594 164.7786865234375 145.34933471679688 168.0209197998047 140.7289276123047 168.1417694091797 C 135.59092712402344 166.94607543945312 132.54296875 164.22093200683594 133.3056182861328 160.61500549316406 C 133.3179168701172 155.25604248046875 135.341796875 152.36659240722656 140.5472869873047 152.179931640625 C 144.0910186767578 152.24290466308594 146.5933837890625 155.90054321289062 147.78062438964844 160.1187744140625"/>
    <path stroke-width="0" fill="rgb(64, 147, 202)" opacity="0.81229466" stroke="rgb(0, 0, 0)" stroke-opacity="0.0" stroke-linecap="round" stroke-linejoin="round" d="M 514.116943359375 290.6518249511719 C 513.310546875 295.21038818359375 510.33465576171875 298.034912109375 506.2333984375 297.9224548339844 C 501.0504150390625 297.5289611816406 498.1022033691406 295.1334533691406 498.7386474609375 291.2193908691406 C 499.0888366699219 286.7047424316406 501.76629638671875 283.6398620605469 506.2927551269531 282.6195983886719 C 510.3091125488281 282.52569580078125 513.0430297851562 285.8821105957031 514.116943359375 290.6518249511719"/>
    <path stroke-width="0" fill="rgb(12, 232, 167)" opacity="0.111572504" stroke="rgb(0, 0, 0)" stroke-opacity="0.0" stroke-linecap="round" stroke-linejoin="round" d="M -52.165199279785156 174.26580810546875 C -53.236995697021484 178.26580810546875 -56.165199279785156 181.1940155029297 -60.165199279785156 182.26580810546875 C -64.16519927978516 181.1940155029297 -67.09339904785156 178.26580810546875 -68.16519927978516 174.26580810546875 C -67.09339904785156 170.26580810546875 -64.16519927978516 167.33761596679688 -60.165199279785156 166.26580810546875 C -56.165199279785156 167.33761596679688 -53.236995697021484 170.26580810546875 -52.165199279785156 174.26580810546875"/>
    <path stroke-width="0" fill="rgb(31, 164, 180)" opacity="0.4671039" stroke="rgb(0, 0, 0)" stroke-opacity="0.0" stroke-linecap="round" stroke-linejoin="round" d="M 3.7363522052764893 45.58372116088867 C 2.6386961936950684 46.84284591674805 0.06520619988441467 50.503517150878906 -3.070967197418213 52.42334747314453 C -7.1098527908325195 51.01337814331055 -10.038055419921875 48.085174560546875 -11.10985279083252 44.085174560546875 C -10.038055419921875 40.085174560546875 -7.1098527908325195 37.15697479248047 -1.8270258903503418 34.66508102416992 C 1.068068027496338 36.3818473815918 1.7703267335891724 41.25236892700195 3.7363522052764893 45.58372116088867"/>
    <path stroke-width="0" fill="rgb(110, 125, 250)" opacity="0.07738768" stroke="rgb(0, 0, 0)" stroke-opacity="0.0" stroke-linecap="round" stroke-linejoin="round" d="M 43.679569244384766 -6.740291595458984 C 42.641197204589844 -2.7321653366088867 39.643985748291016 0.0764937475323677 36.32950973510742 0.6915181875228882 C 32.06757354736328 -0.3127327561378479 28.912633895874023 -3.05596661567688 27.681222915649414 -6.799420356750488 C 28.737354278564453 -10.763440132141113 31.665557861328125 -13.691643714904785 35.665557861328125 -14.763440132141113 C 39.665557861328125 -13.691643714904785 42.5937614440918 -10.763440132141113 43.679569244384766 -6.740291595458984"/>
    <path stroke-width="0" fill="rgb(75, 230, 89)" opacity="0.046832997" stroke="rgb(0, 0, 0)" stroke-opacity="0.0" stroke-linecap="round" stroke-linejoin="round" d="M 69.51215362548828 81.88129425048828 C 68.7647476196289 85.14302062988281 65.9893569946289 88.53240203857422 62.87761688232422 90.02609252929688 C 58.79378890991211 87.99254608154297 55.4255485534668 85.2848129272461 53.761478424072266 81.61128234863281 C 55.731285095214844 78.02459716796875 58.746925354003906 75.06555938720703 62.68321228027344 72.95511627197266 C 66.18923950195312 74.34062957763672 68.7179946899414 77.96781158447266 69.51215362548828 81.88129425048828"/>
    <path stroke-width="0" fill="rgb(146, 77, 209)" opacity="0.37546209" stroke="rgb(0, 0, 0)" stroke-opacity="0.0" stroke-linecap="round" stroke-linejoin="round" d="M 87.85337829589844 102.73072052001953 C 86.63842010498047 106.6141586303711 83.57465362548828 109.87516784667969 79.32050323486328 111.0658187866211 C 75.76818084716797 110.4516372680664 73.06468963623047 107.39644622802734 71.99606323242188 103.0394058227539 C 72.9300765991211 98.80741882324219 75.85566711425781 96.13562774658203 79.92556762695312 95.55663299560547 C 84.1405258178711 96.32247161865234 87.30982971191406 98.89183044433594 87.85337829589844 102.73072052001953"/>
    <path stroke-width="0" fill="rgb(213, 103, 236)" opacity="0.8925281" stroke="rgb(0, 0, 0)" stroke-opacity="0.0" stroke-linecap="round" stroke-linejoin="round" d="M 211.0902862548828 378.1260070800781 C 211.36183166503906 381.2421569824219 208.20506286621094 383.7518615722656 204.6471710205078 384.37701416015625 C 201.71096801757812 383.43609619140625 199.025390625 380.274658203125 198.34596252441406 376.9903259277344 C 198.70703125 374.4092712402344 201.30311584472656 370.95428466796875 204.56260681152344 369.50885009765625 C 208.37586975097656 370.8184814453125 211.13136291503906 373.7724609375 211.0902862548828 378.1260070800781"/>
    <path stroke-width="0" fill="rgb(160, 206, 50)" opacity="0.62447536" stroke="rgb(0, 0, 0)" stroke-opacity="0.0" stroke-linecap="round" stroke-linejoin="round" d="M 282.67279052734375 392.0075378417969 C 280.7342529296875 395.5590515136719 277.9679870605469 398.9117431640625 275.4790954589844 401.01336669921875 C 271.59967041015625 399.13775634765625 268.44580078125 396.31109619140625 266.5575866699219 392.485107421875 C 267.9395446777344 388.8188781738281 271.409423828125 386.2098083496094 275.45867919921875 385.0919189453125 C 279.35748291015625 385.5819396972656 282.17578125 388.5013732910156 282.67279052734375 392.0075378417969"/>
    <path stroke-width="0" fill="rgb(93, 147, 195)" opacity="0.7208298" stroke="rgb(0, 0, 0)" stroke-opacity="0.0" stroke-linecap="round" stroke-linejoin="round" d="M 515.5719604492188 202.85899353027344 C 514.1946411132812 206.66461181640625 511.2227783203125 209.55738830566406 507.40704345703125 211.7725067138672 C 503.4578857421875 210.3668212890625 500.37823486328125 207.51876831054688 500.80389404296875 203.76016235351562 C 501.44989013671875 199.24049377441406 503.6311340332031 196.11990356445312 507.6534423828125 195.82144165039062 C 511.76220703125 196.24478149414062 514.6656494140625 199.1974639892578 515.5719604492188 202.85899353027344"/>
    <path stroke-width="0" fill="rgb(135, 16, 197)" opacity="0.91967916" stroke="rgb(0, 0, 0)" stroke-opacity="0.0" stroke-linecap="round" stroke-linejoin="round" d="M 345.17791748046875 295.2037048339844 C 343.8035888671875 297.8268127441406 341.2102966308594 301.1833801269531 339.6898498535156 302.3028259277344 C 337.04693603515625 301.2032165527344 334.4668884277344 297.7622375488281 333.34130859375 294.66986083984375 C 333.8668212890625 293.6723937988281 337.04229736328125 291.1108703613281 339.69085693359375 290.0776672363281 C 340.7565612792969 291.2894287109375 343.8393249511719 294.2244873046875 345.17791748046875 295.2037048339844"/>
    <path stroke-width="0" fill="rgb(160, 128, 118)" opacity="0.7700486" stroke="rgb(0, 0, 0)" stroke-opacity="0.0" stroke-linecap="round" stroke-linejoin="round" d="M 2.255204677581787 109.08707427978516 C 1.9139151573181152 114.05561065673828 0.294100821018219 117.57416534423828 -3.3914849758148193 118.83317565917969 C -8.432901382446289 116.6694107055664 -11.361104965209961 113.7412109375 -12.432901382446289 109.7412109375 C -11.361104965209961 105.7412109375 -8.432901382446289 102.81300354003906 -3.563270330429077 100.83041381835938 C 0.24975891411304474 101.93889617919922 2.317990779876709 105.31482696533203 2.255204677581787 109.08707427978516"/>
    <path stroke-width="0" fill="rgb(113, 170, 13)" opacity="0.6074729" stroke="rgb(0, 0, 0)" stroke-opacity="0.0" stroke-linecap="round" stroke-linejoin="round" d="M 15.865117073059082 -4.5975446701049805 C 14.610675811767578 -0.7754610180854797 11.71920394897461 2.2282872200012207 8.51690673828125 3.927161931991577 C 5.817149639129639 3.2369186878204346 2.8458480834960938 0.3818470239639282 1.6908780336380005 -3.552283763885498 C 2.386101007461548 -7.1437554359436035 5.314304351806641 -10.071958541870117 9.31430435180664 -11.143754959106445 C 13.31430435180664 -10.071958541870117 16.242507934570312 -7.1437554359436035 15.865117073059082 -4.5975446701049805"/>
    <path stroke-width="0" fill="rgb(128, 11, 233)" opacity="0.005102556" stroke="rgb(0, 0, 0)" stroke-opacity="0.0" stroke-linecap="round" stroke-linejoin="round" d="M 106.54862213134766 81.58883666992188 C 105.72296905517578 85.60621643066406 102.8009033203125 88.52860260009766 98.75969696044922 89.6822509765625 C 95.24762725830078 88.58383178710938 92.34228515625 85.54827880859375 91.11138153076172 81.61975860595703 C 91.96958923339844 77.68733215332031 94.8796157836914 74.74615478515625 99.27328491210938 73.644775390625 C 103.22518157958984 74.66683959960938 106.1623764038086 77.61200714111328 106.54862213134766 81.58883666992188"/>
    <path stroke-width="0" fill="rgb(84, 146, 46)" opacity="0.51267445" stroke="rgb(0, 0, 0)" stroke-opacity="0.0" stroke-linecap="round" stroke-linejoin="round" d="M 58.46479034423828 229.8264923095703 C 58.48088455200195 233.65670776367188 55.85456848144531 236.55455017089844 51.41233444213867 236.9509735107422 C 46.955657958984375 236.17494201660156 43.64006805419922 233.5821990966797 43.2697868347168 230.00254821777344 C 45.26817321777344 225.95571899414062 47.968406677246094 222.74639892578125 51.724098205566406 221.5055694580078 C 55.25652313232422 222.01243591308594 57.3776741027832 225.68533325195312 58.46479034423828 229.8264923095703"/>
    <path stroke-width="0" fill="rgb(209, 197, 214)" opacity="0.013180699" stroke="rgb(0, 0, 0)" stroke-opacity="0.0" stroke-linecap="round" stroke-linejoin="round" d="M 68.7632064819336 127.09231567382812 C 67.71245574951172 130.5072784423828 64.84172821044922 133.49444580078125 60.77945327758789 134.46937561035156 C 56.70614242553711 133.28074645996094 53.573341369628906 130.60696411132812 52.574222564697266 126.3934555053711 C 53.43191146850586 121.99149322509766 56.30482864379883 119.123046875 60.754417419433594 117.67803955078125 C 64.41121673583984 119.5094985961914 67.03437042236328 123.02474975585938 68.7632064819336 127.09231567382812"/>
  </g>
</svg>
