<?xml version="1.0" ?>
<svg xmlns="http://www.w3.org/2000/svg" version="1.1" width="512" height="512">
  <defs/>
  <g>
    <path stroke-width="0" fill="rgb(-16, -1, 6)" opacity="1.0576351" stroke="rgb(139, 182, 153)" stroke-opacity="1.0" stroke-linecap="round" stroke-linejoin="round" d="M 356.7804870605469 215.5670928955078 C 384.7737121582031 219.2056427001953 278.1783142089844 216.83444213867188 262.9295349121094 213.55813598632812 C 128.86074829101562 214.8373565673828 150.28060913085938 208.05206298828125 149.74583435058594 198.4230194091797 C 213.138427734375 200.9384307861328 264.42156982421875 211.46524047851562 267.6514892578125 207.05056762695312 C 202.22958374023438 207.50979614257812 248.530517578125 195.2967071533203 356.7804870605469 215.5670928955078"/>
    <path stroke-width="0" fill="rgb(85, 93, 80)" opacity="0.53533554" stroke="rgb(108, 164, 111)" stroke-opacity="1.0" stroke-linecap="round" stroke-linejoin="round" d="M 249.219970703125 650.5380859375 C -235.38461303710938 572.732666015625 296.83917236328125 112.8390121459961 177.85702514648438 422.3777770996094 C -128.61050415039062 552.6981811523438 331.5051574707031 166.8299560546875 29.48375701904297 276.76251220703125 C 117.14546966552734 668.7648315429688 -109.20188903808594 701.8903198242188 -42.15978240966797 -49.099571228027344 C 461.9129333496094 -99.04987335205078 459.5688781738281 -90.63247680664062 249.219970703125 650.5380859375"/>
    <path stroke-width="0" fill="rgb(27, 33, 31)" opacity="1.0142254" stroke="rgb(245, 97, 201)" stroke-opacity="1.0" stroke-linecap="round" stroke-linejoin="round" d="M 781.2973022460938 370.53546142578125 C 380.3355407714844 604.6211547851562 208.82534790039062 623.3867797851562 281.5528869628906 313.54931640625 C 191.69064331054688 345.8796081542969 436.2953796386719 548.9588623046875 497.9582214355469 375.0687255859375 C 527.3421630859375 137.09503173828125 135.64791870117188 383.06976318359375 256.7149963378906 -23.25617027282715 C 449.6614074707031 -97.54769134521484 769.5654296875 -107.06083679199219 781.2973022460938 370.53546142578125"/>
    <path stroke-width="0" fill="rgb(-11, 3, 10)" opacity="0.99197817" stroke="rgb(144, 236, 18)" stroke-opacity="1.0" stroke-linecap="round" stroke-linejoin="round" d="M 421.68743896484375 343.86700439453125 C 401.6897277832031 347.5559387207031 410.178466796875 579.2237548828125 408.7235107421875 364.6952209472656 C 240.72914123535156 360.443603515625 248.18626403808594 324.7309875488281 329.8451232910156 347.592529296875 C 436.3464660644531 332.9363708496094 393.09234619140625 378.1343688964844 319.965087890625 163.8717041015625 C 413.1822814941406 343.5480651855469 407.79193115234375 343.0130615234375 421.68743896484375 343.86700439453125"/>
    <path stroke-width="0" fill="rgb(1, 2, 0)" opacity="0.99862677" stroke="rgb(5, 212, 198)" stroke-opacity="1.0" stroke-linecap="round" stroke-linejoin="round" d="M 196.1068572998047 144.28228759765625 C 192.12071228027344 173.07638549804688 159.0719451904297 170.75704956054688 165.624755859375 137.06040954589844 C 131.14901733398438 283.4866638183594 167.7876739501953 219.29905700683594 167.62518310546875 151.58233642578125 C 187.92332458496094 173.75982666015625 139.23316955566406 111.94117736816406 145.2945556640625 174.1190643310547 C 177.83131408691406 265.9020080566406 111.96857452392578 113.57669067382812 196.1068572998047 144.28228759765625"/>
    <path stroke-width="0" fill="rgb(257, 254, 250)" opacity="1.0375259" stroke="rgb(249, 203, 117)" stroke-opacity="1.0" stroke-linecap="round" stroke-linejoin="round" d="M 139.42813110351562 273.9024658203125 C 214.8233184814453 298.3883361816406 163.62969970703125 302.1943054199219 131.1366424560547 332.8905944824219 C 146.99034118652344 289.9571838378906 167.95706176757812 272.4345397949219 154.7237091064453 292.61724853515625 C 159.34986877441406 295.388671875 174.36708068847656 296.5753173828125 161.22781372070312 286.456298828125 C 132.69503784179688 273.1628112792969 147.6088104248047 280.8734436035156 139.42813110351562 273.9024658203125"/>
    <path stroke-width="0" fill="rgb(261, 260, 259)" opacity="0.99058986" stroke="rgb(30, 163, 36)" stroke-opacity="1.0" stroke-linecap="round" stroke-linejoin="round" d="M 152.28456115722656 320.0552673339844 C 172.4434051513672 262.6962585449219 246.50210571289062 349.6521911621094 149.54551696777344 317.8013610839844 C 120.73724365234375 343.31109619140625 94.76778411865234 355.0375061035156 119.60286712646484 336.59552001953125 C 156.96484375 279.3274230957031 120.32260131835938 242.85427856445312 173.98828125 289.1900634765625 C 178.02175903320312 312.046875 181.14405822753906 294.64031982421875 152.28456115722656 320.0552673339844"/>
    <path stroke-width="0" fill="rgb(-2, 0, 2)" opacity="1.002243" stroke="rgb(133, 105, 67)" stroke-opacity="1.0" stroke-linecap="round" stroke-linejoin="round" d="M 131.3585205078125 439.9403076171875 C 139.21206665039062 473.419189453125 -20.083110809326172 451.29168701171875 11.55434513092041 337.3810119628906 C 12.6133394241333 477.53265380859375 159.04615783691406 439.89239501953125 132.84825134277344 440.5089111328125 C 109.26325225830078 482.52880859375 300.03839111328125 378.90771484375 147.49114990234375 249.46922302246094 C 287.55474853515625 412.79681396484375 75.86357879638672 464.1163024902344 131.3585205078125 439.9403076171875"/>
    <path stroke-width="0" fill="rgb(0, -3, 3)" opacity="1.0105118" stroke="rgb(116, 144, 4)" stroke-opacity="1.0" stroke-linecap="round" stroke-linejoin="round" d="M 12.77526569366455 390.6871643066406 C -18.936994552612305 341.90863037109375 -17.907426834106445 368.1485900878906 -25.871997833251953 336.8102111816406 C -7.750002384185791 378.2618408203125 -82.9468002319336 416.1632080078125 27.682647705078125 364.7797546386719 C -24.89314079284668 426.4779357910156 -7.302565574645996 189.13497924804688 163.46600341796875 262.25970458984375 C -60.42562484741211 209.13961791992188 34.697853088378906 500.58514404296875 12.77526569366455 390.6871643066406"/>
    <path stroke-width="0" fill="rgb(265, 260, 257)" opacity="0.9837799" stroke="rgb(156, 157, 240)" stroke-opacity="1.0" stroke-linecap="round" stroke-linejoin="round" d="M 359.9622497558594 282.045654296875 C 331.963134765625 380.0155334472656 385.3777160644531 323.0378112792969 300.21209716796875 353.7131652832031 C 308.4047546386719 322.9306945800781 327.62841796875 283.3395080566406 337.9619140625 286.96441650390625 C 322.4836120605469 269.1866760253906 313.15765380859375 307.2258605957031 357.9306945800781 316.5747375488281 C 270.8186340332031 285.4490966796875 385.299560546875 247.29859924316406 359.9622497558594 282.045654296875"/>
    <path stroke-width="0" fill="rgb(-7, -1, 12)" opacity="0.9983754" stroke="rgb(91, 111, 177)" stroke-opacity="1.0" stroke-linecap="round" stroke-linejoin="round" d="M 123.21401977539062 308.0943603515625 C 123.33576202392578 299.1485595703125 103.67352294921875 352.3882141113281 124.2979507446289 325.931396484375 C 112.46894073486328 336.525634765625 153.99729919433594 161.25833129882812 174.92494201660156 144.9344482421875 C 128.6474151611328 332.42828369140625 129.1072235107422 330.5497741699219 120.53260040283203 315.18524169921875 C 134.29696655273438 285.9240417480469 118.515380859375 293.87713623046875 123.21401977539062 308.0943603515625"/>
    <path stroke-width="0" fill="rgb(-1, 0, 0)" opacity="0.9934299" stroke="rgb(170, 171, 53)" stroke-opacity="1.0" stroke-linecap="round" stroke-linejoin="round" d="M 130.86215209960938 287.21478271484375 C 97.69412231445312 410.060546875 122.96275329589844 283.8959045410156 102.1842041015625 398.1369934082031 C 111.16218566894531 311.2027587890625 94.3351821899414 404.9764404296875 97.75525665283203 337.38787841796875 C 84.66523742675781 323.6327209472656 133.45510864257812 393.53082275390625 57.252586364746094 249.09947204589844 C 121.86019134521484 345.46295166015625 84.4553451538086 373.12139892578125 130.86215209960938 287.21478271484375"/>
    <path stroke-width="0" fill="rgb(0, 0, 7)" opacity="0.9869326" stroke="rgb(80, 92, 145)" stroke-opacity="1.0" stroke-linecap="round" stroke-linejoin="round" d="M 298.9945068359375 296.6175842285156 C 293.1314392089844 285.4875793457031 291.7491455078125 299.4649963378906 265.9615173339844 306.5748291015625 C 306.3410949707031 178.5140838623047 257.4410095214844 457.1523132324219 390.11346435546875 444.07635498046875 C 241.2415771484375 403.12469482421875 324.3909912109375 181.52940368652344 485.0221862792969 282.09832763671875 C 353.07305908203125 155.98643493652344 275.3395690917969 388.3367919921875 298.9945068359375 296.6175842285156"/>
    <path stroke-width="0" fill="rgb(183, 188, 183)" opacity="0.9772705" stroke="rgb(252, 26, 53)" stroke-opacity="1.0" stroke-linecap="round" stroke-linejoin="round" d="M 392.96417236328125 206.67880249023438 C 293.6226501464844 215.8336639404297 298.3023376464844 222.43359375 375.4648742675781 212.32749938964844 C 238.45364379882812 204.06729125976562 185.3947296142578 195.8751220703125 158.43247985839844 200.7024383544922 C 238.99774169921875 130.2394256591797 147.6036834716797 18.00318717956543 423.5734558105469 105.04649353027344 C 449.53125 224.7802734375 269.1023254394531 108.46864318847656 392.96417236328125 206.67880249023438"/>
    <path stroke-width="0" fill="rgb(177, 176, 169)" opacity="0.8432372" stroke="rgb(166, 64, 118)" stroke-opacity="1.0" stroke-linecap="round" stroke-linejoin="round" d="M 330.15936279296875 242.69570922851562 C 288.6885681152344 284.7666015625 279.97589111328125 325.74639892578125 237.0704345703125 356.00732421875 C 219.4828643798828 347.7046203613281 217.3116455078125 335.16790771484375 229.76934814453125 258.866455078125 C 225.19961547851562 227.22048950195312 225.09451293945312 209.73590087890625 273.2624206542969 215.5115203857422 C 354.95843505859375 216.79063415527344 336.7734375 211.3653106689453 330.15936279296875 242.69570922851562"/>
    <path stroke-width="0" fill="rgb(48, 96, 171)" opacity="0.91062" stroke="rgb(40, 28, 167)" stroke-opacity="1.0" stroke-linecap="round" stroke-linejoin="round" d="M 316.2492980957031 266.1488037109375 C 312.9862365722656 264.3828125 314.9061279296875 273.9256591796875 306.1350402832031 276.2727355957031 C 326.0271911621094 270.19293212890625 334.16082763671875 262.7245788574219 324.66455078125 254.06454467773438 C 327.4063720703125 249.63841247558594 322.25885009765625 219.66839599609375 311.5069274902344 272.6960144042969 C 267.9945373535156 327.0665588378906 339.13470458984375 311.6533203125 316.2492980957031 266.1488037109375"/>
    <path stroke-width="0" fill="rgb(177, 173, 170)" opacity="0.8326436" stroke="rgb(50, 94, 209)" stroke-opacity="1.0" stroke-linecap="round" stroke-linejoin="round" d="M 444.793212890625 454.5600280761719 C 433.02093505859375 476.26953125 242.19032287597656 480.67816162109375 426.6833190917969 469.2149353027344 C 146.93246459960938 632.658203125 351.6355285644531 313.46240234375 200.25595092773438 383.88433837890625 C 225.9720458984375 290.0173034667969 136.12347412109375 256.17578125 204.17604064941406 299.9029235839844 C 333.4555358886719 357.7365417480469 289.22479248046875 461.84088134765625 444.793212890625 454.5600280761719"/>
    <path stroke-width="0" fill="rgb(-6, -2, 10)" opacity="0.9760393" stroke="rgb(213, 24, 248)" stroke-opacity="1.0" stroke-linecap="round" stroke-linejoin="round" d="M 256.62481689453125 269.73260498046875 C 232.01852416992188 187.1273956298828 132.16860961914062 224.44937133789062 154.80429077148438 197.44139099121094 C 339.0069885253906 211.3865203857422 355.38177490234375 192.4701690673828 261.0956726074219 217.2982635498047 C 282.89910888671875 219.30099487304688 352.5779113769531 255.67369079589844 343.81500244140625 205.585693359375 C 256.03521728515625 196.96311950683594 257.6177062988281 246.73248291015625 256.62481689453125 269.73260498046875"/>
    <path stroke-width="0" fill="rgb(28, 81, 165)" opacity="0.7895457" stroke="rgb(249, 154, 188)" stroke-opacity="1.0" stroke-linecap="round" stroke-linejoin="round" d="M 327.2401428222656 229.043701171875 C 256.4326477050781 295.2973327636719 205.5160369873047 284.0188903808594 235.3009490966797 268.2659912109375 C 214.11827087402344 278.23065185546875 206.73294067382812 282.22711181640625 192.08506774902344 248.24671936035156 C 142.28636169433594 274.72625732421875 145.6730499267578 196.3587646484375 173.97486877441406 216.4153594970703 C 266.18841552734375 211.65306091308594 315.23004150390625 211.83937072753906 327.2401428222656 229.043701171875"/>
    <path stroke-width="0" fill="rgb(5, -2, 0)" opacity="0.31944248" stroke="rgb(72, 30, 75)" stroke-opacity="1.0" stroke-linecap="round" stroke-linejoin="round" d="M 212.4779052734375 27.82967185974121 C -30.387237548828125 148.95042419433594 112.74740600585938 177.4592742919922 0.9931830763816833 347.5879211425781 C -91.37572479248047 156.1116485595703 -36.26746368408203 116.59605407714844 -31.709943771362305 36.69902801513672 C -31.88047218322754 10.4307222366333 -24.965839385986328 4.1932501792907715 11.933391571044922 -3.7952632904052734 C 85.91292572021484 -1.7858511209487915 168.60267639160156 -67.96898651123047 212.4779052734375 27.82967185974121"/>
    <path stroke-width="0" fill="rgb(121, 124, 126)" opacity="0.7550737" stroke="rgb(81, 105, 16)" stroke-opacity="1.0" stroke-linecap="round" stroke-linejoin="round" d="M 289.6941223144531 50.27173614501953 C 4.462655067443848 88.72016906738281 167.67970275878906 229.60252380371094 27.558876037597656 273.4697570800781 C 6.14435338973999 74.89833068847656 168.88075256347656 26.462806701660156 197.43307495117188 19.112056732177734 C 48.124969482421875 18.877225875854492 89.59734344482422 -61.538818359375 132.30319213867188 -87.9290542602539 C 156.80975341796875 -111.48149108886719 202.99356079101562 -175.27825927734375 289.6941223144531 50.27173614501953"/>
    <path stroke-width="0" fill="rgb(182, 184, 182)" opacity="0.72406584" stroke="rgb(144, 67, 133)" stroke-opacity="1.0" stroke-linecap="round" stroke-linejoin="round" d="M 329.5725402832031 -19.713184356689453 C 287.82366943359375 213.031982421875 206.7063751220703 173.3188934326172 218.31272888183594 187.89743041992188 C 150.79412841796875 198.6092529296875 156.4741668701172 218.65414428710938 172.3815155029297 162.43441772460938 C 272.12713623046875 171.26068115234375 168.06275939941406 77.7305679321289 96.62437438964844 214.54559326171875 C 185.93209838867188 12.240056037902832 347.00823974609375 25.72663688659668 329.5725402832031 -19.713184356689453"/>
    <path stroke-width="0" fill="rgb(39, 100, 181)" opacity="1.0128305" stroke="rgb(146, 236, 81)" stroke-opacity="1.0" stroke-linecap="round" stroke-linejoin="round" d="M 390.8598937988281 349.6649169921875 C 410.5546875 388.3967590332031 324.0604553222656 346.8767395019531 239.50994873046875 405.99267578125 C 342.2695007324219 340.3209228515625 264.10992431640625 432.40460205078125 202.7519989013672 313.9413757324219 C 127.7030029296875 189.19276428222656 97.68526458740234 258.7057189941406 332.5390625 220.05624389648438 C 303.98089599609375 395.5835876464844 255.9585723876953 355.1638488769531 390.8598937988281 349.6649169921875"/>
    <path stroke-width="0" fill="rgb(180, 195, 187)" opacity="0.9852471" stroke="rgb(33, 182, 73)" stroke-opacity="1.0" stroke-linecap="round" stroke-linejoin="round" d="M 308.64788818359375 281.3663635253906 C 272.74761962890625 374.2666931152344 310.98565673828125 306.7667236328125 254.05987548828125 334.4000549316406 C 230.97866821289062 304.3702392578125 207.8473663330078 272.01239013671875 172.44635009765625 231.8428955078125 C 156.1497802734375 206.1779327392578 121.59123992919922 214.861572265625 270.0427551269531 213.50653076171875 C 363.4244079589844 223.33160400390625 334.9302062988281 192.08592224121094 308.64788818359375 281.3663635253906"/>
    <path stroke-width="0" fill="rgb(143, 147, 142)" opacity="0.50569767" stroke="rgb(149, 5, 211)" stroke-opacity="1.0" stroke-linecap="round" stroke-linejoin="round" d="M 517.7266845703125 351.2290344238281 C 411.2513122558594 141.1492919921875 378.90216064453125 217.88124084472656 381.339599609375 227.53485107421875 C 302.101318359375 101.64195251464844 265.7098693847656 57.074275970458984 108.12015533447266 144.7140350341797 C 172.2876434326172 -1.554484248161316 213.9281005859375 52.73239517211914 293.46295166015625 -33.023338317871094 C 493.5572204589844 -48.497928619384766 596.8362426757812 -59.31291961669922 517.7266845703125 351.2290344238281"/>
    <path stroke-width="0" fill="rgb(179, 179, 171)" opacity="0.9818287" stroke="rgb(172, 68, 187)" stroke-opacity="1.0" stroke-linecap="round" stroke-linejoin="round" d="M 475.9407958984375 274.1118469238281 C 514.7896728515625 300.46209716796875 445.2118835449219 223.010498046875 366.177001953125 254.3971405029297 C 348.7061462402344 215.42678833007812 321.37921142578125 193.6513671875 360.9227600097656 160.63645935058594 C 253.13375854492188 131.23904418945312 268.2395324707031 167.62196350097656 370.32916259765625 180.52389526367188 C 490.6053161621094 102.41499328613281 479.83062744140625 159.7687530517578 475.9407958984375 274.1118469238281"/>
    <path stroke-width="0" fill="rgb(-8, 1, -2)" opacity="1.018111" stroke="rgb(63, 146, 150)" stroke-opacity="1.0" stroke-linecap="round" stroke-linejoin="round" d="M 311.73333740234375 273.54608154296875 C 342.21759033203125 171.54098510742188 355.71990966796875 183.16542053222656 325.3799133300781 264.5088806152344 C 323.4930419921875 265.2737731933594 328.2281799316406 255.9310760498047 326.09820556640625 261.7799377441406 C 327.01171875 257.9964294433594 326.81011962890625 266.5586242675781 322.65771484375 262.77484130859375 C 328.15960693359375 264.00885009765625 319.7652587890625 288.99676513671875 311.73333740234375 273.54608154296875"/>
    <path stroke-width="0" fill="rgb(92, 93, 89)" opacity="0.74311036" stroke="rgb(56, 242, 114)" stroke-opacity="1.0" stroke-linecap="round" stroke-linejoin="round" d="M 14.250514030456543 164.0989227294922 C -10.61659049987793 347.7724914550781 18.51384735107422 82.5767822265625 -23.80272674560547 67.60088348388672 C -33.61650848388672 65.88433074951172 -35.86575698852539 55.43598556518555 -32.79499435424805 39.282981872558594 C -0.872494101524353 -13.039509773254395 18.82747459411621 -48.238311767578125 267.4422302246094 18.358060836791992 C 237.50360107421875 79.09123229980469 141.51177978515625 -91.10284423828125 14.250514030456543 164.0989227294922"/>
    <path stroke-width="0" fill="rgb(-5, -3, 7)" opacity="1.0049677" stroke="rgb(178, 75, 207)" stroke-opacity="1.0" stroke-linecap="round" stroke-linejoin="round" d="M 484.8652038574219 449.5395812988281 C 536.8015747070312 268.73577880859375 441.82373046875 280.50537109375 465.3099670410156 262.4067687988281 C 522.0423583984375 308.32269287109375 498.52398681640625 336.23089599609375 507.7469177246094 315.0406799316406 C 509.5483703613281 404.6298828125 503.38726806640625 410.2569580078125 496.1796569824219 371.297119140625 C 497.9391784667969 463.95343017578125 301.5161437988281 456.8496398925781 484.8652038574219 449.5395812988281"/>
    <path stroke-width="0" fill="rgb(66, 68, 61)" opacity="0.8653819" stroke="rgb(224, 148, 224)" stroke-opacity="1.0" stroke-linecap="round" stroke-linejoin="round" d="M 60.7277717590332 480.7120361328125 C 25.411840438842773 417.9283752441406 42.38458251953125 447.83935546875 56.64561080932617 540.65771484375 C -19.449947357177734 506.04412841796875 -11.81474781036377 480.838623046875 -11.036704063415527 440.2754211425781 C -33.01291275024414 414.1160888671875 -26.157032012939453 417.9560852050781 1.084439754486084 430.7410583496094 C 40.757041931152344 442.31243896484375 31.33389663696289 450.0634765625 60.7277717590332 480.7120361328125"/>
    <path stroke-width="0" fill="rgb(68, 81, 72)" opacity="0.77718914" stroke="rgb(184, 127, 243)" stroke-opacity="1.0" stroke-linecap="round" stroke-linejoin="round" d="M 128.8313751220703 455.44708251953125 C 74.86170196533203 460.85296630859375 69.75880432128906 487.4620666503906 57.34272766113281 494.63494873046875 C 10.788137435913086 491.41046142578125 69.29451751708984 436.2904357910156 -15.291884422302246 433.09228515625 C -13.070661544799805 397.44696044921875 -17.15758514404297 379.21923828125 5.02900505065918 376.0073547363281 C 19.664947509765625 427.7256164550781 66.23540496826172 458.4825439453125 128.8313751220703 455.44708251953125"/>
    <path stroke-width="0" fill="rgb(133, 131, 110)" opacity="0.9549934" stroke="rgb(108, 154, 4)" stroke-opacity="1.0" stroke-linecap="round" stroke-linejoin="round" d="M 98.12277221679688 364.35198974609375 C 81.16667938232422 395.8533935546875 59.66690444946289 439.81915283203125 67.06688690185547 426.0503234863281 C 65.71903228759766 434.9007568359375 42.2312126159668 406.5757141113281 28.571924209594727 390.32867431640625 C -6.525217533111572 318.2159423828125 27.42731475830078 356.91790771484375 101.00746154785156 340.33880615234375 C 93.3709945678711 357.1224365234375 50.21102523803711 412.10577392578125 98.12277221679688 364.35198974609375"/>
    <path stroke-width="0" fill="rgb(95, 101, 104)" opacity="0.73745906" stroke="rgb(168, 73, 157)" stroke-opacity="1.0" stroke-linecap="round" stroke-linejoin="round" d="M 169.352294921875 438.38079833984375 C 302.0166320800781 502.68475341796875 187.14694213867188 548.077392578125 24.252124786376953 544.7784423828125 C 11.251142501831055 543.2071533203125 3.708277463912964 537.02392578125 7.292978763580322 530.4509887695312 C 29.903305053710938 461.5914611816406 30.17385482788086 449.26458740234375 35.26543045043945 458.2870788574219 C 118.80767822265625 464.0277099609375 143.94058227539062 440.95062255859375 169.352294921875 438.38079833984375"/>
    <path stroke-width="0" fill="rgb(-2, 5, 2)" opacity="0.924762" stroke="rgb(34, 76, 145)" stroke-opacity="1.0" stroke-linecap="round" stroke-linejoin="round" d="M 170.71165466308594 139.38626098632812 C 161.53277587890625 150.296630859375 155.09542846679688 147.5544891357422 189.7833251953125 144.40321350097656 C 190.95849609375 143.65492248535156 176.13795471191406 144.27767944335938 151.56558227539062 148.22305297851562 C 186.91354370117188 148.07504272460938 194.70799255371094 145.2539825439453 160.8264923095703 165.40386962890625 C 158.51922607421875 157.50857543945312 144.59434509277344 163.03294372558594 170.71165466308594 139.38626098632812"/>
    <path stroke-width="0" fill="rgb(86, 91, 75)" opacity="0.8989037" stroke="rgb(146, 166, 166)" stroke-opacity="1.0" stroke-linecap="round" stroke-linejoin="round" d="M 61.068267822265625 525.7094116210938 C 47.256099700927734 539.38818359375 38.75363540649414 545.7471313476562 27.42095375061035 546.61962890625 C -6.0 521.3204956054688 -13.320508003234863 514.0 -38.808624267578125 480.6268615722656 C -40.54470443725586 466.4974060058594 -38.54525375366211 451.149658203125 7.056288719177246 390.8499450683594 C 59.86128234863281 481.7101745605469 132.19082641601562 479.94659423828125 61.068267822265625 525.7094116210938"/>
    <path stroke-width="0" fill="rgb(118, 122, 125)" opacity="0.8629919" stroke="rgb(182, 254, 38)" stroke-opacity="1.0" stroke-linecap="round" stroke-linejoin="round" d="M 519.73583984375 375.88934326171875 C 583.8037109375 358.2513427734375 478.568603515625 266.649169921875 429.04486083984375 238.5249481201172 C 469.3614501953125 148.66659545898438 319.5114440917969 39.99498748779297 248.396240234375 87.20861053466797 C 62.613582611083984 -10.14599323272705 317.6542053222656 -34.72661590576172 372.2624816894531 1.9821895360946655 C 424.93023681640625 6.482152462005615 550.4539794921875 8.543387413024902 519.73583984375 375.88934326171875"/>
    <path stroke-width="0" fill="rgb(86, 86, 85)" opacity="0.59137946" stroke="rgb(41, 156, 31)" stroke-opacity="1.0" stroke-linecap="round" stroke-linejoin="round" d="M 102.66119384765625 482.93426513671875 C 157.694580078125 504.268310546875 68.23191833496094 516.8920288085938 67.26422119140625 519.3334350585938 C 52.441593170166016 491.35675048828125 55.80809783935547 431.9715881347656 72.60555267333984 486.14752197265625 C -2.84995698928833 406.9841613769531 -9.520901679992676 409.6698913574219 30.357332229614258 447.2200012207031 C 77.48927307128906 454.13055419921875 79.0118637084961 467.4497375488281 102.66119384765625 482.93426513671875"/>
    <path stroke-width="0" fill="rgb(87, 91, 90)" opacity="0.6727329" stroke="rgb(205, 145, 103)" stroke-opacity="1.0" stroke-linecap="round" stroke-linejoin="round" d="M 68.01388549804688 449.2340087890625 C 183.81884765625 492.3452453613281 208.784912109375 534.2894897460938 55.940914154052734 503.84814453125 C -32.32497024536133 448.1850280761719 -37.19206619262695 392.13958740234375 73.44981384277344 501.6489562988281 C -30.452007293701172 438.9775390625 -22.035030364990234 444.5423889160156 22.116472244262695 437.18084716796875 C 11.241986274719238 382.38946533203125 18.579666137695312 424.3839416503906 68.01388549804688 449.2340087890625"/>
    <path stroke-width="0" fill="rgb(87, 89, 79)" opacity="0.70470434" stroke="rgb(177, 115, 184)" stroke-opacity="1.0" stroke-linecap="round" stroke-linejoin="round" d="M 97.49697875976562 497.4779052734375 C 66.29582214355469 530.3274536132812 57.86009979248047 536.98193359375 66.68476104736328 529.20947265625 C 23.129253387451172 481.0644226074219 -43.415740966796875 493.1353454589844 -56.449214935302734 497.6046142578125 C -1.0405356884002686 455.7156066894531 -11.923786163330078 460.8006896972656 -20.488203048706055 446.87744140625 C 28.92423439025879 433.5455322265625 31.42746925354004 468.8981628417969 97.49697875976562 497.4779052734375"/>
    <path stroke-width="0" fill="rgb(258, 10, 37)" opacity="0.76486576" stroke="rgb(248, 218, 2)" stroke-opacity="1.0" stroke-linecap="round" stroke-linejoin="round" d="M 363.9836730957031 171.9378204345703 C 345.0130310058594 181.2557373046875 349.7110900878906 173.9927520751953 325.1539611816406 159.21798706054688 C 332.1025695800781 174.8380889892578 311.947021484375 148.70645141601562 335.3907165527344 167.95790100097656 C 372.7178649902344 192.33966064453125 348.6339416503906 153.85585021972656 338.0746765136719 204.83299255371094 C 349.670654296875 222.64926147460938 348.3524169921875 174.30648803710938 363.9836730957031 171.9378204345703"/>
    <path stroke-width="0" fill="rgb(-7, -3, 12)" opacity="0.9854188" stroke="rgb(186, 43, 132)" stroke-opacity="1.0" stroke-linecap="round" stroke-linejoin="round" d="M 181.09896850585938 301.64697265625 C 191.87367248535156 263.90380859375 116.03605651855469 250.98150634765625 148.49261474609375 245.17161560058594 C 159.15171813964844 261.05548095703125 137.3449249267578 236.52536010742188 139.20147705078125 254.4317626953125 C 138.700927734375 249.28041076660156 192.41403198242188 247.50448608398438 85.66915893554688 257.9453125 C 123.89215087890625 254.37034606933594 166.33349609375 269.5325927734375 181.09896850585938 301.64697265625"/>
    <path stroke-width="0" fill="rgb(114, 114, 116)" opacity="0.62660193" stroke="rgb(50, 4, 202)" stroke-opacity="1.0" stroke-linecap="round" stroke-linejoin="round" d="M 246.3122100830078 454.5970764160156 C 232.534423828125 575.3900146484375 137.78475952148438 552.846923828125 161.84678649902344 560.87255859375 C 220.96170043945312 471.400634765625 148.73117065429688 405.1565856933594 132.3769073486328 478.7760925292969 C 58.261077880859375 447.0332336425781 98.87369537353516 484.12933349609375 77.69811248779297 449.6859436035156 C 161.75689697265625 471.4088134765625 143.54991149902344 401.60760498046875 246.3122100830078 454.5970764160156"/>
    <path stroke-width="0" fill="rgb(259, 256, 255)" opacity="0.9084382" stroke="rgb(88, 236, 179)" stroke-opacity="1.0" stroke-linecap="round" stroke-linejoin="round" d="M 89.99612426757812 359.48175048828125 C 115.6952896118164 389.03521728515625 6.995908260345459 399.7845458984375 27.416107177734375 389.9881896972656 C 88.81346130371094 402.92681884765625 110.77255249023438 333.5485534667969 60.164039611816406 435.56170654296875 C 32.714996337890625 377.9417419433594 8.435625076293945 403.1825256347656 78.01592254638672 372.6304626464844 C 0.0009526735520921648 405.7440185546875 21.28791618347168 390.6595764160156 89.99612426757812 359.48175048828125"/>
    <path stroke-width="0" fill="rgb(118, 120, 121)" opacity="0.44385067" stroke="rgb(41, 158, 147)" stroke-opacity="1.0" stroke-linecap="round" stroke-linejoin="round" d="M 380.1029968261719 8.49020767211914 C 184.56961059570312 -14.120867729187012 270.98052978515625 99.2626953125 516.5518188476562 108.68082427978516 C 504.6465148925781 -82.69733428955078 50.24280548095703 -55.811710357666016 -4.191319942474365 280.9373779296875 C -42.64822769165039 -40.71714401245117 310.07843017578125 -45.2712516784668 299.1662292480469 -23.407180786132812 C 397.3404541015625 -0.1448473036289215 412.0550842285156 15.016568183898926 380.1029968261719 8.49020767211914"/>
    <path stroke-width="0" fill="rgb(156, 162, 160)" opacity="0.6104634" stroke="rgb(238, 156, 136)" stroke-opacity="1.0" stroke-linecap="round" stroke-linejoin="round" d="M 448.99951171875 254.8807373046875 C 331.3926696777344 220.57957458496094 438.0821228027344 3.8998606204986572 428.924560546875 124.47985076904297 C 109.17974090576172 159.2215576171875 180.2540740966797 76.18976593017578 81.254150390625 251.69882202148438 C -12.151532173156738 75.922119140625 458.4810485839844 4.693567752838135 318.87628173828125 43.128108978271484 C 302.01251220703125 9.463990211486816 525.8243408203125 30.55804443359375 448.99951171875 254.8807373046875"/>
    <path stroke-width="0" fill="rgb(93, 102, 103)" opacity="0.924552" stroke="rgb(186, 79, 101)" stroke-opacity="1.0" stroke-linecap="round" stroke-linejoin="round" d="M 544.9442138671875 323.8344421386719 C 547.3452758789062 544.0161743164062 540.02099609375 551.331298828125 442.2797546386719 579.9818115234375 C 290.78955078125 689.1327514648438 224.37490844726562 741.1798095703125 219.87619018554688 473.8976745605469 C 348.1392517089844 408.52728271484375 426.4971618652344 502.5558776855469 494.99359130859375 401.2923889160156 C 550.9813842773438 282.6627502441406 401.9889831542969 231.0972137451172 544.9442138671875 323.8344421386719"/>
    <path stroke-width="0" fill="rgb(78, 112, 83)" opacity="0.33698514" stroke="rgb(47, 240, 188)" stroke-opacity="1.0" stroke-linecap="round" stroke-linejoin="round" d="M 404.3914489746094 301.7928771972656 C 401.927490234375 295.04119873046875 408.0751953125 271.5375061035156 400.9930419921875 332.59442138671875 C 404.85235595703125 250.52989196777344 398.00775146484375 275.1971130371094 404.6241455078125 289.8987121582031 C 401.3983459472656 281.0606384277344 402.0484619140625 249.56129455566406 401.6910095214844 254.97315979003906 C 402.804931640625 240.73963928222656 402.7944641113281 302.5295715332031 404.3914489746094 301.7928771972656"/>
    <path stroke-width="0" fill="rgb(89, 95, 92)" opacity="0.31665954" stroke="rgb(57, 64, 14)" stroke-opacity="1.0" stroke-linecap="round" stroke-linejoin="round" d="M 142.57205200195312 463.48297119140625 C 244.71029663085938 509.4670715332031 151.62974548339844 504.2797546386719 53.341556549072266 541.9815063476562 C 42.44731140136719 537.2024536132812 37.819068908691406 530.1972045898438 94.00320434570312 515.37451171875 C -87.16448974609375 408.50091552734375 5.826367378234863 431.03594970703125 79.48257446289062 490.4307861328125 C 12.948010444641113 406.5632629394531 29.24089813232422 450.2271728515625 142.57205200195312 463.48297119140625"/>
    <path stroke-width="0" fill="rgb(241, 17, 18)" opacity="1.0038828" stroke="rgb(79, 177, 96)" stroke-opacity="1.0" stroke-linecap="round" stroke-linejoin="round" d="M 162.77566528320312 151.7216796875 C 184.34063720703125 151.62088012695312 167.66392517089844 148.25225830078125 166.0248565673828 157.91590881347656 C 166.3735809326172 151.21051025390625 178.24114990234375 148.93141174316406 165.3888702392578 152.37640380859375 C 177.636962890625 148.52423095703125 202.030517578125 155.99099731445312 192.31045532226562 140.27828979492188 C 126.22288513183594 132.82208251953125 140.48135375976562 180.71873474121094 162.77566528320312 151.7216796875"/>
    <path stroke-width="0" fill="rgb(88, 87, 85)" opacity="0.86641526" stroke="rgb(6, 17, 173)" stroke-opacity="1.0" stroke-linecap="round" stroke-linejoin="round" d="M 17.05603790283203 434.8058776855469 C 28.18637466430664 441.3152160644531 33.26767349243164 436.96795654296875 -63.615352630615234 451.6359558105469 C -25.437917709350586 456.98138427734375 -32.49625015258789 449.58746337890625 -45.60737609863281 424.22027587890625 C -70.31021881103516 352.1773681640625 -51.061767578125 351.9571838378906 3.6108572483062744 361.3887634277344 C 16.577194213867188 419.443603515625 32.084312438964844 434.3017578125 17.05603790283203 434.8058776855469"/>
    <path stroke-width="0" fill="rgb(143, 147, 146)" opacity="0.5568985" stroke="rgb(136, 228, 252)" stroke-opacity="1.0" stroke-linecap="round" stroke-linejoin="round" d="M 452.97198486328125 231.30081176757812 C 412.473876953125 322.934814453125 450.3623046875 68.83647155761719 261.9724426269531 89.20671844482422 C 254.77359008789062 91.4131851196289 249.81297302246094 32.655906677246094 69.56553649902344 162.5979461669922 C 152.6092987060547 24.076208114624023 315.5522155761719 21.58931541442871 366.5799255371094 -6.063917636871338 C 273.0135498046875 38.62221908569336 427.7493591308594 27.77808380126953 452.97198486328125 231.30081176757812"/>
    <path stroke-width="0" fill="rgb(134, 137, 139)" opacity="0.5856196" stroke="rgb(169, 67, 5)" stroke-opacity="1.0" stroke-linecap="round" stroke-linejoin="round" d="M 384.50897216796875 452.6895446777344 C 262.2918701171875 556.64892578125 125.81977844238281 389.5430908203125 103.95692443847656 610.2706298828125 C 87.05445098876953 561.8491821289062 110.97525787353516 535.2816162109375 91.74787139892578 533.4312133789062 C 259.0834655761719 600.3667602539062 205.26028442382812 410.91717529296875 126.6803970336914 456.7512512207031 C 187.50205993652344 420.16583251953125 223.41969299316406 384.77838134765625 384.50897216796875 452.6895446777344"/>
    <path stroke-width="0" fill="rgb(89, 92, 88)" opacity="0.7027974" stroke="rgb(81, 97, 150)" stroke-opacity="1.0" stroke-linecap="round" stroke-linejoin="round" d="M 591.8165893554688 211.60794067382812 C 353.1098937988281 76.38318634033203 260.30352783203125 -70.05469512939453 262.4966125488281 101.66751098632812 C 329.7395324707031 113.85200500488281 303.767578125 115.95147705078125 259.5899353027344 100.7313232421875 C 306.9289855957031 3.3698031902313232 223.78514099121094 -53.10721206665039 423.869873046875 -31.788330078125 C 425.2476806640625 -10.70883846282959 514.821533203125 -18.556629180908203 591.8165893554688 211.60794067382812"/>
    <path stroke-width="0" fill="rgb(88, 89, 80)" opacity="0.7496052" stroke="rgb(160, 222, 69)" stroke-opacity="1.0" stroke-linecap="round" stroke-linejoin="round" d="M 3.006680488586426 473.6224365234375 C 30.852317810058594 476.3447265625 29.991270065307617 481.47552490234375 -22.32145881652832 474.74444580078125 C 10.457038879394531 452.3590087890625 -18.080373764038086 413.81536865234375 -30.1299991607666 414.26678466796875 C -29.795747756958008 421.0752258300781 -21.742794036865234 415.0025329589844 -13.750836372375488 410.168701171875 C 31.006380081176758 425.99481201171875 22.822996139526367 462.67431640625 3.006680488586426 473.6224365234375"/>
    <path stroke-width="0" fill="rgb(181, 178, 174)" opacity="0.81379855" stroke="rgb(47, 242, 175)" stroke-opacity="1.0" stroke-linecap="round" stroke-linejoin="round" d="M 334.401123046875 247.05389404296875 C 333.4736022949219 221.33934020996094 323.1194763183594 300.2675476074219 348.0682678222656 259.57818603515625 C 341.5655517578125 220.0537567138672 362.34832763671875 240.93797302246094 349.2497253417969 206.14236450195312 C 377.9327392578125 223.315673828125 384.8289794921875 241.82293701171875 350.9922790527344 230.33531188964844 C 341.6524658203125 252.8353729248047 347.0218200683594 193.9356689453125 334.401123046875 247.05389404296875"/>
    <path stroke-width="0" fill="rgb(3, 7, -4)" opacity="0.7869943" stroke="rgb(241, 186, 64)" stroke-opacity="1.0" stroke-linecap="round" stroke-linejoin="round" d="M 533.0633544921875 348.56463623046875 C 402.4510498046875 386.9548034667969 433.3758850097656 292.9651794433594 440.8934020996094 365.8165283203125 C 386.4986572265625 336.95782470703125 426.1096496582031 343.4721374511719 411.2376708984375 338.3985900878906 C 529.79443359375 191.0567169189453 384.4789123535156 334.31219482421875 412.8800354003906 396.6573181152344 C 396.0948486328125 312.2056579589844 463.2716979980469 382.2818908691406 533.0633544921875 348.56463623046875"/>
    <path stroke-width="0" fill="rgb(162, 167, 165)" opacity="0.69826365" stroke="rgb(132, 6, 52)" stroke-opacity="1.0" stroke-linecap="round" stroke-linejoin="round" d="M 342.4765625 115.10008239746094 C 364.14300537109375 159.21841430664062 437.00860595703125 175.27268981933594 304.8247985839844 156.44618225097656 C 139.57334899902344 140.6510467529297 216.4884796142578 216.83424377441406 190.75111389160156 122.39459991455078 C 280.0921936035156 127.9600601196289 320.0865173339844 52.945945739746094 127.73633575439453 128.9237823486328 C 258.6217346191406 77.36552429199219 270.5799560546875 103.21847534179688 342.4765625 115.10008239746094"/>
    <path stroke-width="0" fill="rgb(13, 17, 1)" opacity="0.65423745" stroke="rgb(95, 118, 70)" stroke-opacity="1.0" stroke-linecap="round" stroke-linejoin="round" d="M 415.0681457519531 254.69923400878906 C 407.7354736328125 254.7413330078125 397.70550537109375 227.180908203125 403.36822509765625 295.37347412109375 C 405.1153259277344 222.50732421875 395.8514404296875 256.7593688964844 400.9026184082031 248.3897705078125 C 405.60125732421875 256.1238098144531 407.7606506347656 249.5885467529297 400.8634033203125 252.85885620117188 C 401.0815734863281 257.7098693847656 409.5477600097656 247.2957763671875 415.0681457519531 254.69923400878906"/>
    <path stroke-width="0" fill="rgb(35, 66, 49)" opacity="0.85217035" stroke="rgb(182, 100, 144)" stroke-opacity="1.0" stroke-linecap="round" stroke-linejoin="round" d="M 102.94051361083984 448.30059814453125 C 103.1648178100586 368.0190124511719 99.42970275878906 427.2588806152344 101.05494689941406 446.26470947265625 C 101.20321655273438 451.39129638671875 108.72808074951172 444.1767578125 101.51596069335938 448.9192199707031 C 102.31180572509766 449.4917907714844 107.07190704345703 441.0754089355469 99.46846771240234 445.69158935546875 C 104.10063171386719 450.95147705078125 98.00336456298828 445.6393127441406 102.94051361083984 448.30059814453125"/>
    <path stroke-width="0" fill="rgb(188, 187, 200)" opacity="0.9444896" stroke="rgb(140, 149, 245)" stroke-opacity="1.0" stroke-linecap="round" stroke-linejoin="round" d="M 376.671630859375 368.5273742675781 C 331.6329040527344 380.6153259277344 361.0680236816406 382.20587158203125 353.038818359375 378.26800537109375 C 333.8365173339844 385.2565002441406 296.8292541503906 358.69427490234375 319.69830322265625 386.0227966308594 C 349.8438720703125 384.76708984375 327.1377258300781 381.6217956542969 347.22625732421875 366.29693603515625 C 372.3744812011719 374.099609375 331.9112243652344 365.0655822753906 376.671630859375 368.5273742675781"/>
    <path stroke-width="0" fill="rgb(263, 254, 250)" opacity="0.9769067" stroke="rgb(61, 25, 4)" stroke-opacity="1.0" stroke-linecap="round" stroke-linejoin="round" d="M 436.48199462890625 338.3254699707031 C 426.0758972167969 335.8152770996094 444.1597595214844 347.36285400390625 444.26861572265625 379.0279235839844 C 431.52081298828125 388.82293701171875 403.6867980957031 377.6419677734375 437.9749755859375 401.23046875 C 384.1130065917969 331.26873779296875 460.0469055175781 365.3194274902344 462.3818664550781 342.8297424316406 C 453.3774108886719 366.8473815917969 433.08880615234375 336.9041442871094 436.48199462890625 338.3254699707031"/>
    <path stroke-width="0" fill="rgb(263, 265, 254)" opacity="0.58763885" stroke="rgb(170, 200, 71)" stroke-opacity="1.0" stroke-linecap="round" stroke-linejoin="round" d="M 349.8944091796875 289.02508544921875 C 361.4407043457031 268.5387878417969 349.2367858886719 277.69012451171875 335.0255432128906 335.79925537109375 C 334.4132385253906 314.93878173828125 321.67828369140625 316.2450256347656 354.4457702636719 279.1994934082031 C 352.6145935058594 282.0468444824219 344.70343017578125 248.8186798095703 330.6477355957031 278.4362487792969 C 340.094970703125 252.51089477539062 357.9604797363281 274.3447570800781 349.8944091796875 289.02508544921875"/>
    <path stroke-width="0" fill="rgb(152, 150, 128)" opacity="0.26760718" stroke="rgb(16, 123, 249)" stroke-opacity="1.0" stroke-linecap="round" stroke-linejoin="round" d="M 335.9360656738281 322.2239685058594 C 358.7309265136719 352.19830322265625 373.3486022949219 335.0165100097656 314.3149108886719 343.80596923828125 C 393.3521728515625 347.10443115234375 339.4060363769531 342.4798889160156 340.56011962890625 323.83953857421875 C 333.3956298828125 339.86138916015625 318.6797180175781 329.9617004394531 305.2527770996094 306.1452331542969 C 327.7475891113281 347.0006103515625 344.79010009765625 327.78997802734375 335.9360656738281 322.2239685058594"/>
    <path stroke-width="0" fill="rgb(252, 239, 235)" opacity="0.69904053" stroke="rgb(86, 245, 59)" stroke-opacity="1.0" stroke-linecap="round" stroke-linejoin="round" d="M 12.246546745300293 361.6046447753906 C 20.665603637695312 237.58396911621094 76.27251434326172 333.8607177734375 30.730199813842773 339.2359619140625 C -5.491968631744385 332.2503356933594 35.83161926269531 333.3299560546875 29.337692260742188 334.146728515625 C 29.052087783813477 328.3341979980469 40.799598693847656 315.7787780761719 69.65130615234375 308.0101013183594 C 45.570438385009766 314.5826721191406 33.60931396484375 314.7226257324219 12.246546745300293 361.6046447753906"/>
    <path stroke-width="0" fill="rgb(29, 45, 47)" opacity="0.79863036" stroke="rgb(126, 163, 93)" stroke-opacity="1.0" stroke-linecap="round" stroke-linejoin="round" d="M 357.3603820800781 341.6275634765625 C 352.30511474609375 340.7379150390625 376.6339416503906 378.1307678222656 318.6315002441406 368.6827697753906 C 316.3960266113281 366.62420654296875 300.2381286621094 368.9807434082031 350.5294494628906 366.95062255859375 C 364.1329040527344 351.655029296875 363.6257629394531 334.4257507324219 322.389404296875 343.0595703125 C 323.58294677734375 330.869873046875 312.1485595703125 348.9423522949219 357.3603820800781 341.6275634765625"/>
    <path stroke-width="0" fill="rgb(90, 93, 84)" opacity="0.77191293" stroke="rgb(231, 197, 84)" stroke-opacity="1.0" stroke-linecap="round" stroke-linejoin="round" d="M 103.82986450195312 -9.839201927185059 C 65.73355865478516 23.719308853149414 -2.917754888534546 79.9027328491211 3.456556558609009 116.60591888427734 C -61.2769660949707 75.67533111572266 -38.89860916137695 43.458229064941406 -21.261756896972656 2.9529244899749756 C -17.32050895690918 -10.0 -10.0 -17.32050895690918 7.241615295410156 -24.014564514160156 C 31.09577178955078 -33.32636642456055 38.93543243408203 -15.198221206665039 103.82986450195312 -9.839201927185059"/>
    <path stroke-width="0" fill="rgb(180, 185, 181)" opacity="0.78531533" stroke="rgb(103, 59, 33)" stroke-opacity="1.0" stroke-linecap="round" stroke-linejoin="round" d="M 200.14266967773438 178.2057647705078 C 221.0799560546875 170.33123779296875 210.01852416992188 173.58645629882812 207.09889221191406 181.54443359375 C 251.23915100097656 122.27467346191406 255.5838165283203 150.1512908935547 215.61770629882812 183.4781494140625 C 218.23068237304688 181.23397827148438 226.7020263671875 173.80636596679688 228.15953063964844 170.82904052734375 C 223.96034240722656 129.29257202148438 202.33592224121094 153.35812377929688 200.14266967773438 178.2057647705078"/>
    <path stroke-width="0" fill="rgb(258, 253, 254)" opacity="0.80230147" stroke="rgb(20, 22, 171)" stroke-opacity="1.0" stroke-linecap="round" stroke-linejoin="round" d="M 74.75444793701172 335.3761291503906 C 60.193603515625 326.1282043457031 53.6943473815918 331.08465576171875 71.41585540771484 333.76934814453125 C 97.33798217773438 334.53753662109375 40.0787467956543 356.71331787109375 23.66533660888672 330.06329345703125 C -15.999924659729004 438.4090576171875 86.65509796142578 349.61328125 102.48731231689453 349.5009460449219 C 100.22968292236328 315.41650390625 90.72299194335938 359.7691345214844 74.75444793701172 335.3761291503906"/>
    <path stroke-width="0" fill="rgb(250, 257, 250)" opacity="0.2726048" stroke="rgb(107, 142, 219)" stroke-opacity="1.0" stroke-linecap="round" stroke-linejoin="round" d="M 102.63091278076172 312.13763427734375 C 128.83078002929688 311.7392578125 108.98880767822266 329.3535461425781 94.12931060791016 356.78411865234375 C 4.87269926071167 403.7099609375 -0.821360170841217 249.96807861328125 92.60485076904297 271.51654052734375 C 141.958251953125 318.9436950683594 49.51850891113281 338.7101745605469 113.59733581542969 305.6972351074219 C 130.43077087402344 278.6235046386719 128.98939514160156 289.5545959472656 102.63091278076172 312.13763427734375"/>
    <path stroke-width="0" fill="rgb(0, 13, 11)" opacity="0.74042755" stroke="rgb(14, 177, 198)" stroke-opacity="1.0" stroke-linecap="round" stroke-linejoin="round" d="M 23.632713317871094 299.2500915527344 C 23.77120018005371 287.3121032714844 54.431236267089844 318.1319580078125 107.89166259765625 349.58148193359375 C 61.7125129699707 312.8385925292969 13.285286903381348 294.1451721191406 22.59453582763672 280.1119384765625 C 17.983627319335938 293.5308532714844 25.437713623046875 274.6751708984375 22.943424224853516 310.6218566894531 C 10.509411811828613 287.3072814941406 37.74589538574219 290.7611999511719 23.632713317871094 299.2500915527344"/>
    <path stroke-width="0" fill="rgb(159, 164, 162)" opacity="0.81648093" stroke="rgb(66, 95, 149)" stroke-opacity="1.0" stroke-linecap="round" stroke-linejoin="round" d="M 344.442138671875 133.8975830078125 C 331.06658935546875 136.36129760742188 320.32720947265625 135.77857971191406 318.2214660644531 136.7242431640625 C 382.3246154785156 130.94557189941406 367.4757995605469 138.91836547851562 351.9265441894531 116.2052001953125 C 299.7524719238281 135.271484375 280.9080505371094 97.46109008789062 325.4058532714844 102.27310943603516 C 356.4264221191406 150.1250762939453 370.356201171875 160.72862243652344 344.442138671875 133.8975830078125"/>
    <path stroke-width="0" fill="rgb(0, 0, 14)" opacity="0.86609876" stroke="rgb(203, 19, 132)" stroke-opacity="1.0" stroke-linecap="round" stroke-linejoin="round" d="M 432.8949890136719 362.1653747558594 C 527.6828002929688 405.8719787597656 519.1859130859375 406.18963623046875 436.4558410644531 364.3514099121094 C 400.0749816894531 338.1261901855469 495.0044250488281 361.1981201171875 423.63922119140625 353.293701171875 C 428.90362548828125 371.0372314453125 449.8968200683594 361.0094299316406 402.3548583984375 343.7623596191406 C 376.34954833984375 362.62188720703125 416.3406677246094 352.134765625 432.8949890136719 362.1653747558594"/>
    <path stroke-width="0" fill="rgb(177, 170, 180)" opacity="0.6190423" stroke="rgb(109, 130, 136)" stroke-opacity="1.0" stroke-linecap="round" stroke-linejoin="round" d="M 329.513427734375 128.0165252685547 C 319.1134948730469 158.58294677734375 304.12884521484375 163.59341430664062 299.4791259765625 166.8482666015625 C 344.0422668457031 182.695068359375 311.2776794433594 167.08895874023438 320.8087463378906 194.04248046875 C 315.9975280761719 185.5213165283203 327.1885986328125 172.90321350097656 299.24755859375 158.28314208984375 C 294.701416015625 147.78756713867188 322.8822021484375 157.4310302734375 329.513427734375 128.0165252685547"/>
    <path stroke-width="0" fill="rgb(4, 2, -12)" opacity="0.64250535" stroke="rgb(70, 32, 100)" stroke-opacity="1.0" stroke-linecap="round" stroke-linejoin="round" d="M 199.49281311035156 402.57373046875 C 100.76494598388672 345.07244873046875 47.341426849365234 336.2430419921875 131.1207733154297 349.8671875 C 120.96973419189453 325.9236145019531 126.37459564208984 336.29669189453125 130.84423828125 350.3109130859375 C 89.81546020507812 350.0155334472656 119.98279571533203 364.98565673828125 160.58120727539062 453.6913146972656 C 79.9697036743164 310.02374267578125 102.77860260009766 361.0503845214844 199.49281311035156 402.57373046875"/>
    <path stroke-width="0" fill="rgb(177, 187, 177)" opacity="0.8883542" stroke="rgb(224, 116, 184)" stroke-opacity="1.0" stroke-linecap="round" stroke-linejoin="round" d="M 198.43130493164062 182.15835571289062 C 170.38059997558594 173.37899780273438 165.3744354248047 181.53663635253906 181.5126495361328 188.9835968017578 C 205.81008911132812 163.72308349609375 198.2706756591797 167.14512634277344 188.34896850585938 168.7181854248047 C 175.8915557861328 187.68295288085938 198.04953002929688 175.9561004638672 216.50582885742188 183.3545379638672 C 194.96543884277344 178.6864471435547 169.55682373046875 223.10977172851562 198.43130493164062 182.15835571289062"/>
    <path stroke-width="0" fill="rgb(221, 221, 232)" opacity="0.14097147" stroke="rgb(230, 175, 178)" stroke-opacity="1.0" stroke-linecap="round" stroke-linejoin="round" d="M 40.11313247680664 317.7090759277344 C 43.161624908447266 309.9311828613281 51.02641296386719 283.14501953125 81.40892791748047 318.3651123046875 C 52.64021301269531 279.8918151855469 47.06402587890625 263.5843200683594 62.02032470703125 245.69845581054688 C 85.261962890625 244.3058319091797 61.27123260498047 242.94544982910156 52.142417907714844 243.80885314941406 C 57.189151763916016 244.57408142089844 64.16812896728516 231.9060516357422 40.11313247680664 317.7090759277344"/>
    <path stroke-width="0" fill="rgb(35, 46, 32)" opacity="0.625669" stroke="rgb(192, 162, 61)" stroke-opacity="1.0" stroke-linecap="round" stroke-linejoin="round" d="M 2.562974452972412 331.97906494140625 C 78.99510955810547 347.53472900390625 52.02376174926758 330.743408203125 49.77667999267578 302.9458312988281 C 48.82133865356445 311.5361633300781 53.48998260498047 301.9936218261719 51.302635192871094 303.5223083496094 C 53.69578552246094 305.38262939453125 42.65951919555664 310.44549560546875 54.58271026611328 315.01300048828125 C 54.26616287231445 330.8043212890625 70.6302490234375 351.5279541015625 2.562974452972412 331.97906494140625"/>
    <path stroke-width="0" fill="rgb(0, 1, 0)" opacity="0.70416784" stroke="rgb(90, 90, 4)" stroke-opacity="1.0" stroke-linecap="round" stroke-linejoin="round" d="M 158.7476043701172 161.89634704589844 C 157.156005859375 160.8170623779297 162.84959411621094 160.6414337158203 180.7266387939453 155.87847900390625 C 158.97386169433594 160.90269470214844 160.0543670654297 153.98094177246094 154.413818359375 202.10000610351562 C 154.6153564453125 166.13356018066406 163.46694946289062 160.1824188232422 166.2532501220703 157.83628845214844 C 158.504638671875 164.3400115966797 182.4468231201172 142.76412963867188 158.7476043701172 161.89634704589844"/>
    <path stroke-width="0" fill="rgb(169, 164, 169)" opacity="0.3891497" stroke="rgb(248, 252, 104)" stroke-opacity="1.0" stroke-linecap="round" stroke-linejoin="round" d="M 104.77924346923828 238.96768188476562 C 105.45494842529297 219.81727600097656 101.24058532714844 243.92625427246094 125.7745361328125 247.27967834472656 C 130.87188720703125 206.49691772460938 112.9940414428711 218.86105346679688 120.07303619384766 240.5386199951172 C 108.72428131103516 234.7073211669922 127.78325653076172 150.77249145507812 113.14745330810547 191.3594970703125 C 117.78157043457031 211.7764129638672 128.54710388183594 246.21957397460938 104.77924346923828 238.96768188476562"/>
    <path stroke-width="0" fill="rgb(3, 2, -4)" opacity="0.6979156" stroke="rgb(162, 125, 252)" stroke-opacity="1.0" stroke-linecap="round" stroke-linejoin="round" d="M 471.66131591796875 354.3907775878906 C 366.41973876953125 361.0998840332031 406.3772888183594 334.7088928222656 409.56903076171875 367.11785888671875 C 420.0379943847656 322.4888916015625 421.2994384765625 346.9122314453125 350.19793701171875 446.8325500488281 C 414.52557373046875 342.40289306640625 421.345703125 353.0978698730469 367.5022888183594 370.4388427734375 C 366.3644714355469 381.6163330078125 379.80218505859375 344.33795166015625 471.66131591796875 354.3907775878906"/>
    <path stroke-width="0" fill="rgb(160, 179, 169)" opacity="0.41951817" stroke="rgb(91, 211, 235)" stroke-opacity="1.0" stroke-linecap="round" stroke-linejoin="round" d="M 357.7832946777344 325.1185302734375 C 351.4793395996094 319.2015075683594 365.2142333984375 321.7403869628906 354.57672119140625 376.92529296875 C 348.2821350097656 375.674072265625 361.4757995605469 378.6998596191406 358.1764831542969 324.0871276855469 C 361.288330078125 320.127197265625 356.6224365234375 318.8105773925781 376.33477783203125 333.7701416015625 C 358.2872619628906 315.818603515625 351.51470947265625 321.73187255859375 357.7832946777344 325.1185302734375"/>
    <path stroke-width="0" fill="rgb(44, 29, 20)" opacity="0.97255164" stroke="rgb(59, 88, 207)" stroke-opacity="1.0" stroke-linecap="round" stroke-linejoin="round" d="M 436.7441711425781 337.1864013671875 C 482.6431884765625 315.688232421875 451.2502136230469 325.6855163574219 461.1867370605469 322.6722717285156 C 466.2262878417969 327.41119384765625 465.7773132324219 321.7799072265625 471.87384033203125 316.8540344238281 C 464.6793518066406 326.6534729003906 472.6295471191406 312.0201110839844 477.911376953125 318.3748474121094 C 429.4176940917969 333.5781555175781 400.7944641113281 359.40936279296875 436.7441711425781 337.1864013671875"/>
    <path stroke-width="0" fill="rgb(237, 238, 237)" opacity="0.3766472" stroke="rgb(63, 27, 242)" stroke-opacity="1.0" stroke-linecap="round" stroke-linejoin="round" d="M 108.73267364501953 401.807861328125 C 44.30012512207031 429.10308837890625 55.5819091796875 441.65936279296875 19.81505012512207 390.29156494140625 C 114.91187286376953 415.1026306152344 91.84491729736328 410.71551513671875 54.26896286010742 406.0674133300781 C 79.56149291992188 448.3798828125 110.90998840332031 463.4916076660156 93.06780242919922 410.6577453613281 C 85.13502502441406 405.3577880859375 79.67239379882812 404.549072265625 108.73267364501953 401.807861328125"/>
    <path stroke-width="0" fill="rgb(130, 137, 130)" opacity="0.7470403" stroke="rgb(175, 14, 186)" stroke-opacity="1.0" stroke-linecap="round" stroke-linejoin="round" d="M 62.055145263671875 244.2842254638672 C 66.54647064208984 248.51902770996094 59.1080207824707 265.9443359375 38.54848861694336 240.7462615966797 C 80.81096649169922 248.5035400390625 75.84091186523438 239.07537841796875 58.291866302490234 236.13482666015625 C 56.203487396240234 233.73512268066406 50.22911071777344 115.04275512695312 40.07368469238281 245.23858642578125 C 126.75590515136719 210.14639282226562 149.25279235839844 256.2616882324219 62.055145263671875 244.2842254638672"/>
    <path stroke-width="0" fill="rgb(133, 146, 141)" opacity="0.7399304" stroke="rgb(213, 60, 128)" stroke-opacity="1.0" stroke-linecap="round" stroke-linejoin="round" d="M 59.384422302246094 247.99603271484375 C 89.66983795166016 255.6227264404297 87.06953430175781 244.69007873535156 49.04497146606445 238.1270751953125 C 37.031070709228516 242.46343994140625 75.13488006591797 236.20652770996094 121.4402847290039 226.91156005859375 C 75.72102355957031 236.4995574951172 68.79386138916016 246.62289428710938 57.14191436767578 248.86415100097656 C 96.406005859375 246.01522827148438 105.78668212890625 243.3154754638672 59.384422302246094 247.99603271484375"/>
    <path stroke-width="0" fill="rgb(158, 159, 161)" opacity="0.7125213" stroke="rgb(228, 103, 140)" stroke-opacity="1.0" stroke-linecap="round" stroke-linejoin="round" d="M 405.985595703125 218.9877166748047 C 401.59759521484375 241.87551879882812 390.0145568847656 246.02793884277344 429.6257019042969 248.3698272705078 C 456.00567626953125 237.5738983154297 394.6522216796875 220.4241180419922 391.9725036621094 241.59100341796875 C 399.1104736328125 237.78623962402344 399.77349853515625 256.443603515625 402.7610168457031 242.56927490234375 C 396.02178955078125 244.08084106445312 407.1196594238281 240.84120178222656 405.985595703125 218.9877166748047"/>
    <path stroke-width="0" fill="rgb(208, 206, 193)" opacity="0.15782417" stroke="rgb(116, 102, 63)" stroke-opacity="1.0" stroke-linecap="round" stroke-linejoin="round" d="M 497.7292175292969 369.0212707519531 C 487.6955261230469 420.485107421875 477.27764892578125 404.6604919433594 458.5525817871094 432.85894775390625 C 418.0688781738281 431.58563232421875 427.9384460449219 419.9903564453125 379.48272705078125 360.90289306640625 C 431.15728759765625 378.2283935546875 433.9735412597656 315.1465759277344 428.997802734375 283.9291687011719 C 491.7601318359375 266.2974548339844 505.853271484375 319.0433349609375 497.7292175292969 369.0212707519531"/>
    <path stroke-width="0" fill="rgb(163, 163, 166)" opacity="0.6047207" stroke="rgb(64, 113, 26)" stroke-opacity="1.0" stroke-linecap="round" stroke-linejoin="round" d="M 136.1930389404297 235.22438049316406 C 107.60171508789062 226.87261962890625 111.56529998779297 224.53402709960938 120.257080078125 230.7881317138672 C 140.46844482421875 244.6249542236328 100.937255859375 245.9465789794922 69.541015625 238.80059814453125 C 146.23056030273438 224.96656799316406 69.45315551757812 207.1945343017578 120.47213745117188 234.75888061523438 C 105.1195297241211 249.48159790039062 148.51248168945312 254.09022521972656 136.1930389404297 235.22438049316406"/>
    <path stroke-width="0" fill="rgb(103, 51, 63)" opacity="0.20569094" stroke="rgb(0, 0, 0)" stroke-opacity="0.0" stroke-linecap="round" stroke-linejoin="round" d="M 270.2756652832031 16.480571746826172 C 271.2532043457031 21.314861297607422 268.5270690917969 24.015588760375977 264.0601806640625 25.526391983032227 C 260.1890563964844 23.897432327270508 256.693115234375 20.953611373901367 257.4517517089844 18.7308292388916 C 258.4315185546875 11.96842098236084 259.0502624511719 8.463275909423828 263.458251953125 9.855237007141113 C 269.7539367675781 9.306344985961914 271.8977355957031 11.446897506713867 270.2756652832031 16.480571746826172"/>
    <path stroke-width="0" fill="rgb(86, 166, 4)" opacity="0.68356884" stroke="rgb(0, 0, 0)" stroke-opacity="0.0" stroke-linecap="round" stroke-linejoin="round" d="M 218.9733123779297 478.196533203125 C 218.1298065185547 482.88226318359375 215.62098693847656 485.885986328125 210.94798278808594 486.8485107421875 C 207.17149353027344 486.1716613769531 204.31686401367188 483.20440673828125 203.7999725341797 479.31878662109375 C 204.6082000732422 474.5848083496094 207.01756286621094 471.5030212402344 211.09764099121094 470.6967468261719 C 215.76068115234375 471.7811279296875 218.69725036621094 474.62115478515625 218.9733123779297 478.196533203125"/>
    <path stroke-width="0" fill="rgb(98, 115, 127)" opacity="0.80076355" stroke="rgb(0, 0, 0)" stroke-opacity="0.0" stroke-linecap="round" stroke-linejoin="round" d="M -41.27164840698242 162.5719757080078 C -42.34344482421875 166.5719757080078 -45.27164840698242 169.50018310546875 -49.27164840698242 170.5719757080078 C -53.27164840698242 169.50018310546875 -56.19984817504883 166.5719757080078 -57.27164840698242 162.5719757080078 C -56.19984817504883 158.5719757080078 -53.27164840698242 155.64378356933594 -49.27164840698242 154.5719757080078 C -45.27164840698242 155.64378356933594 -42.34344482421875 158.5719757080078 -41.27164840698242 162.5719757080078"/>
    <path stroke-width="0" fill="rgb(76, 83, 46)" opacity="0.8346343" stroke="rgb(0, 0, 0)" stroke-opacity="0.0" stroke-linecap="round" stroke-linejoin="round" d="M 234.35845947265625 329.501708984375 C 233.6717987060547 334.19720458984375 230.8024444580078 336.5496520996094 225.78076171875 336.89495849609375 C 222.27093505859375 337.1259460449219 219.75401306152344 333.8447570800781 219.07212829589844 329.7421569824219 C 219.96543884277344 326.30303955078125 222.9459228515625 323.46026611328125 227.2512664794922 322.7428283691406 C 230.99658203125 322.5819091796875 233.69259643554688 325.4017028808594 234.35845947265625 329.501708984375"/>
    <path stroke-width="0" fill="rgb(87, 234, 102)" opacity="0.73376673" stroke="rgb(0, 0, 0)" stroke-opacity="0.0" stroke-linecap="round" stroke-linejoin="round" d="M 383.9776306152344 82.63491821289062 C 383.25543212890625 87.18498229980469 380.6824951171875 90.0511474609375 376.0392150878906 90.70489501953125 C 371.0904846191406 90.05596160888672 368.2472229003906 87.31523132324219 367.6529541015625 82.71630859375 C 368.7782287597656 78.18795013427734 371.40191650390625 75.02745056152344 375.89697265625 74.20909118652344 C 380.5988464355469 74.93209838867188 383.13311767578125 77.87986755371094 383.9776306152344 82.63491821289062"/>
    <path stroke-width="0" fill="rgb(60, 38, 186)" opacity="0.47653177" stroke="rgb(0, 0, 0)" stroke-opacity="0.0" stroke-linecap="round" stroke-linejoin="round" d="M 156.3663330078125 33.9471549987793 C 155.2648162841797 37.93397521972656 152.38600158691406 40.90306854248047 148.44468688964844 41.62290954589844 C 143.88914489746094 41.82969665527344 141.60052490234375 39.16556930541992 141.5560302734375 34.08143615722656 C 141.74330139160156 30.623149871826172 145.35916137695312 27.989734649658203 148.51339721679688 26.101306915283203 C 152.508056640625 27.96404266357422 155.95648193359375 30.530879974365234 156.3663330078125 33.9471549987793"/>
    <path stroke-width="0" fill="rgb(26, 247, 152)" opacity="0.4138345" stroke="rgb(0, 0, 0)" stroke-opacity="0.0" stroke-linecap="round" stroke-linejoin="round" d="M 418.57275390625 37.43717956542969 C 418.11773681640625 41.79562759399414 415.02032470703125 44.26063537597656 410.39166259765625 44.64873123168945 C 406.3475646972656 44.893287658691406 403.4147644042969 42.04723358154297 403.04962158203125 38.24651336669922 C 404.2534484863281 33.773826599121094 407.19769287109375 30.84902572631836 411.2646484375 29.716135025024414 C 415.4716796875 29.984209060668945 418.1861572265625 33.03990173339844 418.57275390625 37.43717956542969"/>
    <path stroke-width="0" fill="rgb(185, 226, 160)" opacity="0.015131628" stroke="rgb(0, 0, 0)" stroke-opacity="0.0" stroke-linecap="round" stroke-linejoin="round" d="M 38.18849563598633 205.87644958496094 C 37.379695892333984 209.1678924560547 33.9759635925293 211.58596801757812 29.72224998474121 212.45323181152344 C 27.023717880249023 211.7596435546875 24.5624942779541 208.29067993164062 23.16671371459961 204.39901733398438 C 23.44438362121582 201.1508331298828 26.21707534790039 198.2724609375 30.30338478088379 197.3054962158203 C 34.030941009521484 198.50486755371094 36.74763107299805 201.6354217529297 38.18849563598633 205.87644958496094"/>
    <path stroke-width="0" fill="rgb(184, 233, 26)" opacity="0.7147436" stroke="rgb(0, 0, 0)" stroke-opacity="0.0" stroke-linecap="round" stroke-linejoin="round" d="M 310.8341369628906 133.55145263671875 C 310.5429992675781 138.13204956054688 307.948974609375 140.89959716796875 303.75244140625 141.41970825195312 C 299.5489196777344 140.02297973632812 296.7794189453125 136.87844848632812 296.0655517578125 133.41824340820312 C 296.620361328125 129.70449829101562 299.342041015625 126.61697387695312 302.7173767089844 126.14619445800781 C 306.486572265625 127.1778335571289 309.7088623046875 129.9023895263672 310.8341369628906 133.55145263671875"/>
    <path stroke-width="0" fill="rgb(24, 22, 23)" opacity="0.3072536" stroke="rgb(0, 0, 0)" stroke-opacity="0.0" stroke-linecap="round" stroke-linejoin="round" d="M 12.754746437072754 12.033655166625977 C 13.018536567687988 16.51545524597168 9.390275001525879 17.95328140258789 3.986302137374878 18.984516143798828 C 1.3639657497406006 18.493236541748047 -1.2844451665878296 15.006701469421387 -2.3430304527282715 11.082527160644531 C -1.029900074005127 8.679250717163086 1.534397840499878 5.004847049713135 3.9619340896606445 4.2914886474609375 C 7.976117134094238 5.912825584411621 11.915242195129395 8.156814575195312 12.754746437072754 12.033655166625977"/>
    <path stroke-width="0" fill="rgb(39, 20, 153)" opacity="0.050121177" stroke="rgb(0, 0, 0)" stroke-opacity="0.0" stroke-linecap="round" stroke-linejoin="round" d="M 187.95089721679688 442.8744812011719 C 185.9464874267578 446.5867919921875 183.378662109375 450.0830078125 179.71739196777344 450.3681640625 C 175.61814880371094 449.6912841796875 173.11094665527344 446.4925537109375 171.67886352539062 442.00439453125 C 171.67636108398438 438.42230224609375 175.21939086914062 436.039306640625 179.0864715576172 435.8836975097656 C 182.79220581054688 436.60321044921875 186.06704711914062 439.4055480957031 187.95089721679688 442.8744812011719"/>
    <path stroke-width="0" fill="rgb(220, 147, 103)" opacity="0.54222983" stroke="rgb(0, 0, 0)" stroke-opacity="0.0" stroke-linecap="round" stroke-linejoin="round" d="M 275.06689453125 -682.0233154296875 C 273.9950866699219 -678.0233154296875 271.06689453125 -675.0950927734375 267.06689453125 -674.0233154296875 C 263.06689453125 -675.0950927734375 260.138671875 -678.0233154296875 259.06689453125 -682.0233154296875 C 260.138671875 -686.0233154296875 263.06689453125 -688.9514770507812 267.06689453125 -690.0233154296875 C 271.06689453125 -688.9514770507812 273.9950866699219 -686.0233154296875 275.06689453125 -682.0233154296875"/>
    <path stroke-width="0" fill="rgb(210, 222, 115)" opacity="0.7750039" stroke="rgb(0, 0, 0)" stroke-opacity="0.0" stroke-linecap="round" stroke-linejoin="round" d="M 97.92292785644531 82.91795349121094 C 98.15483856201172 87.5678482055664 95.14717864990234 90.20289611816406 90.46439361572266 90.76300811767578 C 86.02558898925781 90.55584716796875 83.25593566894531 87.51471710205078 83.33173370361328 83.6244125366211 C 84.12976837158203 79.24922943115234 86.7750244140625 76.08832550048828 90.58453369140625 75.66089630126953 C 95.05731201171875 76.18558502197266 98.06794738769531 78.212646484375 97.92292785644531 82.91795349121094"/>
    <path stroke-width="0" fill="rgb(83, 111, 153)" opacity="0.1731599" stroke="rgb(0, 0, 0)" stroke-opacity="0.0" stroke-linecap="round" stroke-linejoin="round" d="M 169.7144317626953 36.51728057861328 C 169.38986206054688 40.42921447753906 166.45620727539062 42.68983840942383 161.62660217285156 43.59187698364258 C 157.33375549316406 43.51153564453125 154.50143432617188 40.66876983642578 153.67987060546875 36.134498596191406 C 154.5144805908203 31.235549926757812 157.50584411621094 28.69234848022461 161.9193115234375 28.092021942138672 C 165.66909790039062 29.212268829345703 167.9792938232422 32.67778015136719 169.7144317626953 36.51728057861328"/>
    <path stroke-width="0" fill="rgb(151, 132, 135)" opacity="0.50464934" stroke="rgb(0, 0, 0)" stroke-opacity="0.0" stroke-linecap="round" stroke-linejoin="round" d="M 96.85106658935547 234.024658203125 C 96.21260070800781 237.4459991455078 93.35420989990234 240.5042724609375 89.10326385498047 242.59632873535156 C 85.43263244628906 241.06350708007812 83.0830307006836 237.50294494628906 81.47384643554688 233.04727172851562 C 82.19075012207031 229.20835876464844 85.08438110351562 226.33302307128906 89.88265228271484 225.69583129882812 C 93.48638916015625 226.532470703125 95.7364273071289 230.23008728027344 96.85106658935547 234.024658203125"/>
    <path stroke-width="0" fill="rgb(69, 53, 16)" opacity="0.6876716" stroke="rgb(0, 0, 0)" stroke-opacity="0.0" stroke-linecap="round" stroke-linejoin="round" d="M 116.83293151855469 281.5670471191406 C 116.73177337646484 284.6806335449219 114.04833221435547 287.7062683105469 109.95465087890625 289.569091796875 C 106.73954010009766 287.5819091796875 103.81127166748047 284.678955078125 103.23170471191406 281.0272521972656 C 103.4894790649414 277.1972961425781 106.65569305419922 274.7758483886719 109.72775268554688 273.9636535644531 C 113.39128875732422 275.1607360839844 116.15345001220703 278.0236511230469 116.83293151855469 281.5670471191406"/>
    <path stroke-width="0" fill="rgb(151, 133, 177)" opacity="0.17645153" stroke="rgb(0, 0, 0)" stroke-opacity="0.0" stroke-linecap="round" stroke-linejoin="round" d="M 202.60812377929688 167.02806091308594 C 200.12730407714844 171.2939910888672 197.30221557617188 174.48013305664062 193.63308715820312 176.45892333984375 C 189.49082946777344 175.76356506347656 187.176513671875 172.5668182373047 186.69674682617188 167.64743041992188 C 186.925048828125 163.85235595703125 189.7237091064453 160.9190673828125 194.38902282714844 160.185302734375 C 198.65399169921875 160.68331909179688 202.0519256591797 163.489501953125 202.60812377929688 167.02806091308594"/>
    <path stroke-width="0" fill="rgb(170, 153, 192)" opacity="0.405575" stroke="rgb(0, 0, 0)" stroke-opacity="0.0" stroke-linecap="round" stroke-linejoin="round" d="M -0.10505025088787079 74.58863067626953 C -1.176846981048584 78.58863067626953 -4.105050086975098 81.51683044433594 -8.105050086975098 82.58863067626953 C -12.105050086975098 81.51683044433594 -15.03325366973877 78.58863067626953 -16.105051040649414 74.58863067626953 C -15.03325366973877 70.58863067626953 -12.105050086975098 67.6604232788086 -8.105050086975098 66.58863067626953 C -4.105050086975098 67.6604232788086 -1.176846981048584 70.58863067626953 -0.10505025088787079 74.58863067626953"/>
    <path stroke-width="0" fill="rgb(151, 214, 149)" opacity="0.5254155" stroke="rgb(0, 0, 0)" stroke-opacity="0.0" stroke-linecap="round" stroke-linejoin="round" d="M 22.038494110107422 55.11931228637695 C 21.191146850585938 58.8006706237793 18.453598022460938 62.31962966918945 14.390357971191406 62.266944885253906 C 10.158952713012695 61.97780990600586 6.948080062866211 59.18327713012695 5.885776519775391 54.96506118774414 C 7.1780924797058105 50.643333435058594 10.02225399017334 47.83794403076172 14.733757972717285 47.533836364746094 C 18.407468795776367 47.585365295410156 21.124263763427734 51.059486389160156 22.038494110107422 55.11931228637695"/>
    <path stroke-width="0" fill="rgb(64, 227, 50)" opacity="0.56746703" stroke="rgb(0, 0, 0)" stroke-opacity="0.0" stroke-linecap="round" stroke-linejoin="round" d="M 7.586681365966797 -0.8013855814933777 C 6.10363245010376 2.852266788482666 2.9566614627838135 5.645986557006836 -0.7382215261459351 7.800006866455078 C -3.293292760848999 7.778099060058594 -6.0965142250061035 4.705744743347168 -7.146310806274414 0.6528633236885071 C -6.074071407318115 -3.3484880924224854 -3.1458680629730225 -6.276691436767578 0.8541262745857239 -7.348496913909912 C 4.849083423614502 -6.2758283615112305 7.6742472648620605 -3.3023595809936523 7.586681365966797 -0.8013855814933777"/>
    <path stroke-width="0" fill="rgb(81, 61, 155)" opacity="0.6219001" stroke="rgb(0, 0, 0)" stroke-opacity="0.0" stroke-linecap="round" stroke-linejoin="round" d="M 386.95562744140625 195.92869567871094 C 386.4791259765625 199.393798828125 383.5506286621094 202.74203491210938 380.0780334472656 202.80625915527344 C 375.4914855957031 202.3955841064453 373.236328125 199.13758850097656 371.8478088378906 194.6799774169922 C 372.28533935546875 191.47450256347656 375.63873291015625 188.6770782470703 379.642822265625 187.62847900390625 C 383.5013732910156 188.26358032226562 386.1957702636719 191.49176025390625 386.95562744140625 195.92869567871094"/>
    <path stroke-width="0" fill="rgb(74, 153, 208)" opacity="0.015360396" stroke="rgb(0, 0, 0)" stroke-opacity="0.0" stroke-linecap="round" stroke-linejoin="round" d="M -24.382102966308594 -43.28525924682617 C -25.453899383544922 -39.28525924682617 -28.382102966308594 -36.3570556640625 -32.382102966308594 -35.28525924682617 C -36.382102966308594 -36.3570556640625 -39.310306549072266 -39.28525924682617 -40.382102966308594 -43.28525924682617 C -39.310306549072266 -47.28525924682617 -36.382102966308594 -50.213462829589844 -32.382102966308594 -51.28525924682617 C -28.382102966308594 -50.213462829589844 -25.453899383544922 -47.28525924682617 -24.382102966308594 -43.28525924682617"/>
    <path stroke-width="0" fill="rgb(118, 182, 47)" opacity="0.9279929" stroke="rgb(0, 0, 0)" stroke-opacity="0.0" stroke-linecap="round" stroke-linejoin="round" d="M 89.09622192382812 143.6302490234375 C 88.44155883789062 149.29556274414062 86.03875732421875 152.4212646484375 81.7132339477539 153.00967407226562 C 76.36994934082031 151.33018493652344 73.44712829589844 148.61373901367188 72.93233489990234 144.32351684570312 C 73.91643524169922 140.26602172851562 76.91050720214844 137.57070922851562 81.54814147949219 136.51939392089844 C 85.70389556884766 136.4953155517578 88.54590606689453 139.17428588867188 89.09622192382812 143.6302490234375"/>
    <path stroke-width="0" fill="rgb(178, 73, 84)" opacity="0.90461427" stroke="rgb(0, 0, 0)" stroke-opacity="0.0" stroke-linecap="round" stroke-linejoin="round" d="M 397.39154052734375 396.407958984375 C 397.2890625 400.7786865234375 394.5328369140625 403.51824951171875 389.8878173828125 403.7232360839844 C 386.2927551269531 402.9320068359375 383.5697021484375 399.7313232421875 382.03472900390625 395.8282165527344 C 382.9794921875 392.4930419921875 386.31005859375 389.7374267578125 390.20098876953125 388.40118408203125 C 394.7638244628906 388.6148376464844 397.3370666503906 391.3979797363281 397.39154052734375 396.407958984375"/>
    <path stroke-width="0" fill="rgb(27, 79, 176)" opacity="0.085261144" stroke="rgb(0, 0, 0)" stroke-opacity="0.0" stroke-linecap="round" stroke-linejoin="round" d="M 206.81100463867188 -206.64044189453125 C 205.7392120361328 -202.64044189453125 202.81100463867188 -199.71224975585938 198.81100463867188 -198.64044189453125 C 194.81100463867188 -199.71224975585938 191.8828125 -202.64044189453125 190.81100463867188 -206.64044189453125 C 191.8828125 -210.64044189453125 194.81100463867188 -213.5686492919922 198.81100463867188 -214.64044189453125 C 202.81100463867188 -213.5686492919922 205.7392120361328 -210.64044189453125 206.81100463867188 -206.64044189453125"/>
    <path stroke-width="0" fill="rgb(45, 50, 88)" opacity="0.20541143" stroke="rgb(0, 0, 0)" stroke-opacity="0.0" stroke-linecap="round" stroke-linejoin="round" d="M 108.57720947265625 107.9575424194336 C 107.44042205810547 112.48125457763672 104.59261322021484 115.53347778320312 100.23726654052734 115.57377624511719 C 95.96073150634766 115.03543090820312 93.7904052734375 111.93704223632812 92.6512451171875 107.15708923339844 C 92.44678497314453 103.3779067993164 95.49027252197266 100.47806549072266 99.53160858154297 100.30126190185547 C 103.88276672363281 101.4178466796875 107.76737976074219 103.7542953491211 108.57720947265625 107.9575424194336"/>
    <path stroke-width="0" fill="rgb(8, 0, 19)" opacity="0.26908493" stroke="rgb(0, 0, 0)" stroke-opacity="0.0" stroke-linecap="round" stroke-linejoin="round" d="M 346.984619140625 450.9795837402344 C 345.6875915527344 454.3645324707031 343.4382019042969 457.9996032714844 338.8858642578125 458.55084228515625 C 334.26910400390625 458.0966796875 332.2708435058594 454.52972412109375 330.8937683105469 450.0290832519531 C 331.9427185058594 446.2203369140625 334.6577453613281 442.8537292480469 339.20587158203125 441.8759765625 C 342.3544006347656 443.1752624511719 344.7399597167969 447.5085754394531 346.984619140625 450.9795837402344"/>
    <path stroke-width="0" fill="rgb(226, 135, 190)" opacity="0.8867809" stroke="rgb(0, 0, 0)" stroke-opacity="0.0" stroke-linecap="round" stroke-linejoin="round" d="M 310.9985656738281 269.414794921875 C 310.60699462890625 273.37030029296875 307.63873291015625 276.189453125 303.7402038574219 276.5227355957031 C 300.0736999511719 275.64111328125 296.9605712890625 273.034912109375 296.2578430175781 268.40655517578125 C 296.6559143066406 265.5357666015625 300.186279296875 263.2420654296875 304.7848205566406 261.99969482421875 C 307.55621337890625 262.43524169921875 310.358642578125 265.51123046875 310.9985656738281 269.414794921875"/>
    <path stroke-width="0" fill="rgb(174, 168, -1)" opacity="0.017976513" stroke="rgb(0, 0, 0)" stroke-opacity="0.0" stroke-linecap="round" stroke-linejoin="round" d="M 77.88428497314453 43.293914794921875 C 76.69893646240234 47.294986724853516 73.66499328613281 50.05695724487305 70.04965209960938 50.84514617919922 C 66.36585998535156 50.060211181640625 63.405235290527344 47.11589813232422 61.75837326049805 43.26801300048828 C 62.833805084228516 39.61372756958008 66.10327911376953 36.65851593017578 70.1055679321289 35.627967834472656 C 74.11509704589844 36.375633239746094 77.05076599121094 39.36520004272461 77.88428497314453 43.293914794921875"/>
    <path stroke-width="0" fill="rgb(62, 155, 224)" opacity="0.6603528" stroke="rgb(0, 0, 0)" stroke-opacity="0.0" stroke-linecap="round" stroke-linejoin="round" d="M 384.8063049316406 22.191184997558594 C 384.4370422363281 25.95209312438965 381.8248596191406 29.100997924804688 377.9109802246094 31.08321189880371 C 374.0857238769531 28.987123489379883 371.20684814453125 25.9272518157959 370.19744873046875 22.018638610839844 C 371.0868835449219 18.146278381347656 373.8876647949219 15.4495849609375 377.1514892578125 15.55113697052002 C 381.19110107421875 16.112974166870117 384.114013671875 18.82790756225586 384.8063049316406 22.191184997558594"/>
    <path stroke-width="0" fill="rgb(19, 211, 28)" opacity="0.12118789" stroke="rgb(0, 0, 0)" stroke-opacity="0.0" stroke-linecap="round" stroke-linejoin="round" d="M 300.7664489746094 111.38956451416016 C 299.42572021484375 115.29450225830078 296.28033447265625 118.02369689941406 292.6364440917969 118.94453430175781 C 289.4423828125 117.21482849121094 286.2684020996094 114.83370208740234 285.5704650878906 110.89875793457031 C 285.14019775390625 106.88001251220703 288.03363037109375 104.26624298095703 292.449951171875 103.66373443603516 C 297.1258239746094 104.2898941040039 300.275146484375 106.82357788085938 300.7664489746094 111.38956451416016"/>
    <path stroke-width="0" fill="rgb(151, 100, 180)" opacity="0.73729753" stroke="rgb(0, 0, 0)" stroke-opacity="0.0" stroke-linecap="round" stroke-linejoin="round" d="M 34.877044677734375 242.95443725585938 C 34.84046173095703 245.7254180908203 30.804725646972656 247.5491485595703 27.508277893066406 248.2631072998047 C 24.496065139770508 247.9908905029297 21.377056121826172 245.27688598632812 20.87771987915039 242.14346313476562 C 21.43560028076172 238.68472290039062 24.31279945373535 235.69895935058594 27.273820877075195 235.43572998046875 C 30.955934524536133 235.9613037109375 33.87613296508789 238.6514434814453 34.877044677734375 242.95443725585938"/>
    <path stroke-width="0" fill="rgb(39, 60, 78)" opacity="0.5028824" stroke="rgb(0, 0, 0)" stroke-opacity="0.0" stroke-linecap="round" stroke-linejoin="round" d="M 250.86134338378906 71.90283966064453 C 250.5180206298828 75.68895721435547 247.3092041015625 78.35676574707031 243.0537567138672 79.71397399902344 C 239.73092651367188 78.87061309814453 236.65977478027344 75.85601806640625 235.95440673828125 72.39444732666016 C 236.7349853515625 67.51333618164062 239.0545196533203 64.25737762451172 242.9500732421875 64.15524291992188 C 247.72047424316406 65.0667495727539 250.93861389160156 67.62307739257812 250.86134338378906 71.90283966064453"/>
    <path stroke-width="0" fill="rgb(49, 108, 162)" opacity="0.2611791" stroke="rgb(0, 0, 0)" stroke-opacity="0.0" stroke-linecap="round" stroke-linejoin="round" d="M 20.25887680053711 336.1916198730469 C 19.88787269592285 339.6310119628906 16.56761932373047 341.8302307128906 14.204878807067871 342.1914367675781 C 10.262434005737305 341.09521484375 6.040340423583984 339.2596130371094 4.54522180557251 336.16790771484375 C 5.9884185791015625 331.9051208496094 9.410080909729004 329.46337890625 13.165350914001465 328.3819274902344 C 15.84383487701416 329.7654113769531 18.871150970458984 332.9591064453125 20.25887680053711 336.1916198730469"/>
    <path stroke-width="0" fill="rgb(92, 27, 209)" opacity="0.83022755" stroke="rgb(0, 0, 0)" stroke-opacity="0.0" stroke-linecap="round" stroke-linejoin="round" d="M 236.4857635498047 0.5530346035957336 C 236.11605834960938 4.981207370758057 233.1510772705078 7.54502534866333 230.20004272460938 7.97296142578125 C 228.58297729492188 6.646868705749512 225.4051513671875 4.00153112411499 223.8440704345703 0.1783699095249176 C 222.3503875732422 -2.7542245388031006 225.59840393066406 -5.2598652839660645 230.27427673339844 -5.985796928405762 C 234.70394897460938 -5.082787036895752 237.71353149414062 -2.6068954467773438 236.4857635498047 0.5530346035957336"/>
    <path stroke-width="0" fill="rgb(56, 26, 162)" opacity="0.03909725" stroke="rgb(0, 0, 0)" stroke-opacity="0.0" stroke-linecap="round" stroke-linejoin="round" d="M 266.9823303222656 117.96492004394531 C 266.10455322265625 122.19247436523438 263.53265380859375 125.36360168457031 258.9378967285156 126.27027893066406 C 254.79551696777344 125.12606811523438 251.88705444335938 122.22574615478516 251.8797607421875 118.184814453125 C 252.5075225830078 114.33159637451172 255.59828186035156 111.68595886230469 259.4136962890625 110.5850830078125 C 262.791748046875 111.3260726928711 265.72796630859375 114.22383880615234 266.9823303222656 117.96492004394531"/>
    <path stroke-width="0" fill="rgb(110, 191, 97)" opacity="0.49575514" stroke="rgb(0, 0, 0)" stroke-opacity="0.0" stroke-linecap="round" stroke-linejoin="round" d="M 361.9202880859375 59.75304412841797 C 361.26959228515625 62.68919372558594 358.9760437011719 65.96916198730469 355.23638916015625 66.64946746826172 C 351.15380859375 65.67842102050781 348.1788024902344 62.82987594604492 347.3971862792969 58.905399322509766 C 348.0147399902344 54.56698226928711 350.5624694824219 51.736000061035156 353.79510498046875 52.18476104736328 C 357.8372802734375 53.18219757080078 360.771240234375 56.11585235595703 361.9202880859375 59.75304412841797"/>
    <path stroke-width="0" fill="rgb(150, 198, 127)" opacity="0.60105884" stroke="rgb(0, 0, 0)" stroke-opacity="0.0" stroke-linecap="round" stroke-linejoin="round" d="M 304.99627685546875 107.71951293945312 C 304.8585205078125 111.2450942993164 302.0068664550781 114.06083679199219 298.67620849609375 114.31784057617188 C 294.8739318847656 113.49325561523438 291.9039306640625 110.49746704101562 289.8744201660156 107.20421600341797 C 291.11029052734375 103.73480987548828 294.7478942871094 101.0764389038086 298.4936218261719 99.15442657470703 C 302.0549621582031 100.09208679199219 304.4578552246094 103.59591674804688 304.99627685546875 107.71951293945312"/>
    <path stroke-width="0" fill="rgb(74, 71, 146)" opacity="-0.007068393" stroke="rgb(0, 0, 0)" stroke-opacity="0.0" stroke-linecap="round" stroke-linejoin="round" d="M 453.2581481933594 311.2528381347656 C 452.4264831542969 314.9162902832031 449.8672180175781 318.1533508300781 446.42626953125 318.4918212890625 C 442.34832763671875 317.51654052734375 439.5534973144531 314.69378662109375 438.0465393066406 310.8750915527344 C 439.6726379394531 307.9761657714844 442.73187255859375 304.94122314453125 446.23968505859375 303.28668212890625 C 449.37103271484375 304.5921630859375 452.197509765625 307.7721862792969 453.2581481933594 311.2528381347656"/>
    <path stroke-width="0" fill="rgb(170, 233, 235)" opacity="0.095782846" stroke="rgb(0, 0, 0)" stroke-opacity="0.0" stroke-linecap="round" stroke-linejoin="round" d="M 79.401123046875 77.47740173339844 C 79.00138092041016 81.43172454833984 76.02942657470703 84.14507293701172 71.76883697509766 84.41661071777344 C 67.42742156982422 83.99696350097656 64.22671508789062 81.65131378173828 64.52970123291016 78.56834411621094 C 66.39128112792969 74.5914306640625 69.16510772705078 71.43404388427734 72.55335998535156 70.37449645996094 C 75.60969543457031 70.25726318359375 78.17646789550781 73.45112609863281 79.401123046875 77.47740173339844"/>
  </g>
</svg>
