<?xml version="1.0" ?>
<svg xmlns="http://www.w3.org/2000/svg" version="1.1" width="512" height="512">
  <defs/>
  <g>
    <path stroke-width="0" fill="rgb(-59, -55, 46)" opacity="1.2797498" stroke="rgb(139, 182, 153)" stroke-opacity="1.0" stroke-linecap="round" stroke-linejoin="round" d="M 361.3182678222656 216.49012756347656 C 383.20050048828125 221.16390991210938 274.5205383300781 221.32569885253906 260.6646728515625 215.53968811035156 C 132.82037353515625 215.39431762695312 155.88290405273438 208.69546508789062 155.73280334472656 206.81948852539062 C 211.42420959472656 203.33856201171875 264.6510314941406 209.46438598632812 269.4870910644531 204.6952667236328 C 203.25425720214844 208.46728515625 251.5076904296875 197.24708557128906 361.3182678222656 216.49012756347656"/>
    <path stroke-width="0" fill="rgb(26, 166, 32)" opacity="0.6658005" stroke="rgb(108, 164, 111)" stroke-opacity="1.0" stroke-linecap="round" stroke-linejoin="round" d="M 249.1680145263672 650.942138671875 C -231.33453369140625 571.6543579101562 296.64251708984375 107.9258041381836 173.63255310058594 427.03009033203125 C -129.1887969970703 560.1889038085938 327.81170654296875 164.6824951171875 32.69770050048828 272.5247497558594 C 117.08134460449219 665.4635620117188 -112.28523254394531 699.0878295898438 -45.705379486083984 -50.27276611328125 C 460.7829895019531 -100.12561798095703 458.6651916503906 -91.49775695800781 249.1680145263672 650.942138671875"/>
    <path stroke-width="0" fill="rgb(2, 19, 60)" opacity="1.0538442" stroke="rgb(245, 97, 201)" stroke-opacity="1.0" stroke-linecap="round" stroke-linejoin="round" d="M 789.5031127929688 371.16693115234375 C 388.246826171875 599.3734741210938 213.44827270507812 615.0375366210938 283.4176330566406 309.7635803222656 C 194.4839324951172 348.4295959472656 436.4636535644531 551.7472534179688 496.247314453125 379.7305603027344 C 520.4182739257812 145.5999298095703 128.7526092529297 383.5814208984375 262.14691162109375 -25.187664031982422 C 449.6614074707031 -97.54769134521484 769.5654296875 -107.06083679199219 789.5031127929688 371.16693115234375"/>
    <path stroke-width="0" fill="rgb(-19, -2, 56)" opacity="0.9941186" stroke="rgb(144, 236, 18)" stroke-opacity="1.0" stroke-linecap="round" stroke-linejoin="round" d="M 422.4667053222656 350.82666015625 C 399.2797546386719 348.5167541503906 403.26837158203125 576.5679321289062 406.4352111816406 370.5738220214844 C 234.15647888183594 370.64935302734375 241.64231872558594 329.3966979980469 332.3923034667969 350.3023681640625 C 442.0142517089844 342.60205078125 395.10198974609375 380.91192626953125 318.14532470703125 166.38111877441406 C 410.01025390625 346.9935607910156 405.2362060546875 346.6247863769531 422.4667053222656 350.82666015625"/>
    <path stroke-width="0" fill="rgb(30, 12, 8)" opacity="0.90034324" stroke="rgb(5, 212, 198)" stroke-opacity="1.0" stroke-linecap="round" stroke-linejoin="round" d="M 185.6529083251953 144.97567749023438 C 188.06773376464844 170.4858856201172 155.42547607421875 170.31663513183594 171.8965606689453 142.4488067626953 C 139.9911651611328 291.4820251464844 172.22547912597656 223.5835723876953 171.1707305908203 154.07504272460938 C 189.03271484375 179.73532104492188 148.93154907226562 117.8101577758789 148.84864807128906 182.0814971923828 C 181.49713134765625 252.4774932861328 109.8949203491211 104.9728012084961 185.6529083251953 144.97567749023438"/>
    <path stroke-width="0" fill="rgb(259, 235, 280)" opacity="1.0977432" stroke="rgb(249, 203, 117)" stroke-opacity="1.0" stroke-linecap="round" stroke-linejoin="round" d="M 136.1942596435547 275.62054443359375 C 215.4659423828125 300.45379638671875 165.72824096679688 304.95892333984375 131.22674560546875 332.9972839355469 C 147.72000122070312 289.4111328125 167.30560302734375 270.956298828125 150.67645263671875 291.65570068359375 C 162.25418090820312 293.6587829589844 176.31431579589844 295.8703918457031 156.5612335205078 290.3384704589844 C 130.00634765625 276.51690673828125 146.85565185546875 281.99859619140625 136.1942596435547 275.62054443359375"/>
    <path stroke-width="0" fill="rgb(284, 267, 257)" opacity="0.9876453" stroke="rgb(30, 163, 36)" stroke-opacity="1.0" stroke-linecap="round" stroke-linejoin="round" d="M 155.49359130859375 320.4197998046875 C 175.83445739746094 270.1998596191406 243.55897521972656 354.4398498535156 151.692138671875 319.0749816894531 C 122.06446075439453 345.2421569824219 99.49414825439453 360.3648376464844 121.5822525024414 337.2372131347656 C 160.41729736328125 284.2911376953125 119.95748901367188 244.94300842285156 172.06805419921875 297.0068054199219 C 183.9669952392578 313.3822937011719 182.9274139404297 295.2000732421875 155.49359130859375 320.4197998046875"/>
    <path stroke-width="0" fill="rgb(0, -4, 63)" opacity="0.9407274" stroke="rgb(133, 105, 67)" stroke-opacity="1.0" stroke-linecap="round" stroke-linejoin="round" d="M 133.3137664794922 442.8445739746094 C 138.57337951660156 480.3932189941406 -20.976219177246094 455.2051696777344 9.124205589294434 338.0284118652344 C 13.346052169799805 483.7972106933594 154.54510498046875 445.80181884765625 135.4663543701172 441.8690490722656 C 109.17745971679688 487.4797058105469 298.7071533203125 373.4488830566406 141.67005920410156 253.74838256835938 C 282.49871826171875 419.9701232910156 75.29708099365234 464.99395751953125 133.3137664794922 442.8445739746094"/>
    <path stroke-width="0" fill="rgb(2, -2, 29)" opacity="0.93645346" stroke="rgb(116, 144, 4)" stroke-opacity="1.0" stroke-linecap="round" stroke-linejoin="round" d="M 16.34769058227539 389.4269714355469 C -25.23115348815918 349.1513977050781 -27.828542709350586 378.3475036621094 -27.171085357666016 337.86993408203125 C -7.45706844329834 378.6806945800781 -82.24654388427734 416.89447021484375 24.474706649780273 372.62890625 C -23.647756576538086 432.0396423339844 -3.9194834232330322 191.02203369140625 163.3921356201172 268.08367919921875 C -61.17670440673828 216.39584350585938 31.58810806274414 504.5460510253906 16.34769058227539 389.4269714355469"/>
    <path stroke-width="0" fill="rgb(268, 255, 253)" opacity="1.0080411" stroke="rgb(156, 157, 240)" stroke-opacity="1.0" stroke-linecap="round" stroke-linejoin="round" d="M 360.3584289550781 275.8677062988281 C 334.8187255859375 375.0203857421875 387.5711975097656 319.5157470703125 301.30908203125 356.1916809082031 C 302.7671813964844 315.937744140625 317.0362243652344 277.9549865722656 337.2072448730469 291.30377197265625 C 319.4768371582031 270.6213073730469 313.462646484375 303.8692626953125 357.33587646484375 317.35321044921875 C 272.5017395019531 286.9516906738281 381.50994873046875 247.05996704101562 360.3584289550781 275.8677062988281"/>
    <path stroke-width="0" fill="rgb(-4, -3, 53)" opacity="1.0250607" stroke="rgb(91, 111, 177)" stroke-opacity="1.0" stroke-linecap="round" stroke-linejoin="round" d="M 124.33071899414062 311.2994384765625 C 124.30386352539062 306.51824951171875 107.98767852783203 363.07684326171875 122.45296478271484 329.37603759765625 C 109.2115249633789 335.4239196777344 158.79150390625 166.49942016601562 184.61376953125 151.03189086914062 C 127.95004272460938 331.565673828125 125.387451171875 330.7701110839844 115.53877258300781 320.5225524902344 C 136.79139709472656 287.1014099121094 122.14733123779297 296.5694580078125 124.33071899414062 311.2994384765625"/>
    <path stroke-width="0" fill="rgb(-13, -5, 26)" opacity="1.0613946" stroke="rgb(170, 171, 53)" stroke-opacity="1.0" stroke-linecap="round" stroke-linejoin="round" d="M 130.99986267089844 284.2733459472656 C 102.3411636352539 417.5077819824219 121.386962890625 292.5120849609375 98.98420715332031 397.5586242675781 C 114.73329162597656 310.1620178222656 107.433837890625 401.0128173828125 90.9074935913086 340.748291015625 C 81.20934295654297 328.2896423339844 129.8220977783203 395.3161926269531 54.497047424316406 250.5400848388672 C 116.30961608886719 354.9933166503906 90.60184478759766 376.1525573730469 130.99986267089844 284.2733459472656"/>
    <path stroke-width="0" fill="rgb(-8, -15, 53)" opacity="0.99759847" stroke="rgb(80, 92, 145)" stroke-opacity="1.0" stroke-linecap="round" stroke-linejoin="round" d="M 308.96112060546875 301.6168212890625 C 292.9936218261719 285.7552795410156 291.6870422363281 299.6922912597656 267.5872802734375 307.7215881347656 C 305.7529602050781 182.12034606933594 254.39979553222656 463.95404052734375 389.0102233886719 447.8190612792969 C 243.33058166503906 406.6326599121094 326.95556640625 188.89588928222656 487.4453125 287.6343078613281 C 348.2098693847656 146.0266571044922 277.1102600097656 384.72503662109375 308.96112060546875 301.6168212890625"/>
    <path stroke-width="0" fill="rgb(108, 196, 114)" opacity="1.0090654" stroke="rgb(252, 26, 53)" stroke-opacity="1.0" stroke-linecap="round" stroke-linejoin="round" d="M 386.2874755859375 206.06634521484375 C 291.18096923828125 210.4479217529297 296.1986389160156 217.39186096191406 375.6590881347656 210.92593383789062 C 235.9063262939453 205.89736938476562 178.6314697265625 199.57855224609375 166.10389709472656 201.9248504638672 C 252.01475524902344 136.9685516357422 148.6331024169922 12.835023880004883 420.005126953125 99.11570739746094 C 451.6131286621094 220.20989990234375 263.6058044433594 105.293212890625 386.2874755859375 206.06634521484375"/>
    <path stroke-width="0" fill="rgb(157, 173, 143)" opacity="0.92247236" stroke="rgb(166, 64, 118)" stroke-opacity="1.0" stroke-linecap="round" stroke-linejoin="round" d="M 328.3861083984375 238.51197814941406 C 285.9466247558594 282.1758117675781 276.83990478515625 322.73370361328125 236.7906951904297 351.3394775390625 C 222.5541534423828 345.3193359375 219.6526641845703 332.6553039550781 231.9907989501953 259.7634582519531 C 227.284423828125 230.21170043945312 225.7006072998047 214.98776245117188 268.17034912109375 216.21817016601562 C 349.70623779296875 211.6377716064453 333.1964111328125 207.02500915527344 328.3861083984375 238.51197814941406"/>
    <path stroke-width="0" fill="rgb(44, 118, 175)" opacity="0.8710514" stroke="rgb(40, 28, 167)" stroke-opacity="1.0" stroke-linecap="round" stroke-linejoin="round" d="M 309.83929443359375 262.33087158203125 C 312.24066162109375 263.6719970703125 314.1385498046875 273.66424560546875 303.381103515625 275.9925231933594 C 321.87835693359375 267.99859619140625 329.0338439941406 258.3838806152344 319.8543395996094 247.4928436279297 C 327.3631896972656 249.63839721679688 322.14300537109375 219.6313934326172 306.5784606933594 268.0943908691406 C 262.67474365234375 321.7626953125 332.91497802734375 306.3482360839844 309.83929443359375 262.33087158203125"/>
    <path stroke-width="0" fill="rgb(98, 216, 112)" opacity="0.74805045" stroke="rgb(50, 94, 209)" stroke-opacity="1.0" stroke-linecap="round" stroke-linejoin="round" d="M 440.7154541015625 459.1064147949219 C 436.1648254394531 478.3047790527344 247.85797119140625 480.7713928222656 424.9917907714844 469.00714111328125 C 147.6797332763672 628.3109130859375 354.6790466308594 301.9706115722656 200.1844940185547 377.4571533203125 C 221.72653198242188 290.658203125 134.4265899658203 252.5009002685547 203.37965393066406 301.2497863769531 C 330.27142333984375 360.7962646484375 286.6016845703125 465.1776428222656 440.7154541015625 459.1064147949219"/>
    <path stroke-width="0" fill="rgb(13, -12, 63)" opacity="0.81593823" stroke="rgb(213, 24, 248)" stroke-opacity="1.0" stroke-linecap="round" stroke-linejoin="round" d="M 249.0859832763672 278.0928039550781 C 227.5850372314453 196.169677734375 131.2744598388672 233.9346160888672 154.6771697998047 208.74337768554688 C 337.1959228515625 218.63388061523438 357.4573059082031 195.62948608398438 263.7430419921875 216.15953063964844 C 291.1669006347656 218.8037567138672 353.6034851074219 256.6258850097656 338.7603759765625 208.82606506347656 C 254.1780242919922 196.86444091796875 254.79368591308594 245.7112274169922 249.0859832763672 278.0928039550781"/>
    <path stroke-width="0" fill="rgb(9, -14, 63)" opacity="1.0588247" stroke="rgb(249, 154, 188)" stroke-opacity="1.0" stroke-linecap="round" stroke-linejoin="round" d="M 325.0449523925781 234.17855834960938 C 257.1451416015625 294.33203125 206.21707153320312 282.8580017089844 236.86880493164062 269.5732421875 C 216.53709411621094 279.139892578125 208.17214965820312 281.62353515625 188.24195861816406 253.48634338378906 C 139.89735412597656 283.01434326171875 151.16651916503906 211.16778564453125 185.13711547851562 228.89340209960938 C 264.72784423828125 217.11534118652344 313.06671142578125 218.0125274658203 325.0449523925781 234.17855834960938"/>
    <path stroke-width="0" fill="rgb(0, 38, -21)" opacity="0.15760727" stroke="rgb(72, 30, 75)" stroke-opacity="1.0" stroke-linecap="round" stroke-linejoin="round" d="M 215.14881896972656 29.757221221923828 C -28.07395362854004 150.52474975585938 115.35286712646484 186.0335235595703 6.669388294219971 355.8904724121094 C -92.38231658935547 157.29408264160156 -36.71645736694336 116.81813049316406 -31.713043212890625 36.70050811767578 C -31.88047218322754 10.4307222366333 -24.965839385986328 4.1932501792907715 12.061247825622559 -3.898876190185547 C 86.85095977783203 -2.6597602367401123 169.8484344482422 -69.23867797851562 215.14881896972656 29.757221221923828"/>
    <path stroke-width="0" fill="rgb(119, 197, 110)" opacity="0.7738273" stroke="rgb(81, 105, 16)" stroke-opacity="1.0" stroke-linecap="round" stroke-linejoin="round" d="M 294.2379150390625 54.48031997680664 C 5.524844646453857 92.68409729003906 165.08334350585938 227.4907684326172 34.36835479736328 274.699951171875 C 11.383499145507812 77.84701538085938 171.16734313964844 26.624805450439453 197.0724639892578 16.04766273498535 C 51.9317741394043 13.748498916625977 93.26934051513672 -64.91300201416016 135.0199737548828 -90.34864807128906 C 158.90525817871094 -112.57023620605469 209.656494140625 -180.4506072998047 294.2379150390625 54.48031997680664"/>
    <path stroke-width="0" fill="rgb(107, 191, 127)" opacity="0.62509364" stroke="rgb(144, 67, 133)" stroke-opacity="1.0" stroke-linecap="round" stroke-linejoin="round" d="M 329.7891540527344 -19.403423309326172 C 290.71044921875 219.0968017578125 212.66796875 181.27603149414062 219.88265991210938 186.68704223632812 C 158.0200958251953 198.18939208984375 166.05055236816406 221.62045288085938 182.0286865234375 163.88418579101562 C 270.5072326660156 170.43421936035156 165.77847290039062 79.1570816040039 101.98724365234375 218.63433837890625 C 190.5089569091797 13.46534538269043 343.24365234375 21.451826095581055 329.7891540527344 -19.403423309326172"/>
    <path stroke-width="0" fill="rgb(-5, -12, 32)" opacity="0.9989126" stroke="rgb(146, 236, 81)" stroke-opacity="1.0" stroke-linecap="round" stroke-linejoin="round" d="M 392.8296203613281 357.98638916015625 C 414.7464599609375 389.8165588378906 331.54559326171875 358.310791015625 242.77171325683594 416.1895446777344 C 336.6421203613281 354.160888671875 272.18194580078125 446.63812255859375 209.34317016601562 312.3725891113281 C 129.7523651123047 199.80360412597656 107.31632995605469 265.0708923339844 328.928955078125 215.5006866455078 C 295.1215515136719 394.75518798828125 245.5670928955078 362.2431335449219 392.8296203613281 357.98638916015625"/>
    <path stroke-width="0" fill="rgb(139, 269, 203)" opacity="1.0963852" stroke="rgb(33, 182, 73)" stroke-opacity="1.0" stroke-linecap="round" stroke-linejoin="round" d="M 305.6632385253906 277.60443115234375 C 266.490966796875 366.9771728515625 309.2473449707031 311.2088317871094 275.1278381347656 338.8155212402344 C 248.1780242919922 287.27850341796875 223.26622009277344 257.33514404296875 178.4333038330078 230.167724609375 C 161.793701171875 215.6333465576172 133.6756591796875 220.1521453857422 273.74981689453125 218.61434936523438 C 366.3519592285156 223.4514617919922 333.8686828613281 193.70175170898438 305.6632385253906 277.60443115234375"/>
    <path stroke-width="0" fill="rgb(119, 195, 120)" opacity="0.79240656" stroke="rgb(149, 5, 211)" stroke-opacity="1.0" stroke-linecap="round" stroke-linejoin="round" d="M 523.8557739257812 344.8931579589844 C 417.96246337890625 133.8602294921875 383.5098571777344 211.35696411132812 380.36260986328125 225.91244506835938 C 305.328369140625 100.67607116699219 272.21240234375 58.97490692138672 110.02670288085938 146.11660766601562 C 174.73715209960938 1.2185157537460327 216.85147094726562 57.184059143066406 297.48577880859375 -28.046794891357422 C 494.49603271484375 -49.40734100341797 597.7794799804688 -60.22636413574219 523.8557739257812 344.8931579589844"/>
    <path stroke-width="0" fill="rgb(122, 199, 102)" opacity="0.99267817" stroke="rgb(172, 68, 187)" stroke-opacity="1.0" stroke-linecap="round" stroke-linejoin="round" d="M 475.8779296875 267.45013427734375 C 513.1296997070312 298.2884826660156 445.6647644042969 218.9321746826172 361.6903991699219 252.36477661132812 C 342.0317687988281 222.50245666503906 315.8319396972656 199.2189483642578 355.18914794921875 159.25453186035156 C 257.72296142578125 130.59078979492188 271.0679016113281 167.75584411621094 367.6270751953125 177.77330017089844 C 484.93304443359375 95.7599105834961 477.4611511230469 158.89559936523438 475.8779296875 267.45013427734375"/>
    <path stroke-width="0" fill="rgb(5, 14, 33)" opacity="1.0047543" stroke="rgb(63, 146, 150)" stroke-opacity="1.0" stroke-linecap="round" stroke-linejoin="round" d="M 307.7578125 271.56585693359375 C 341.4537048339844 166.1659698486328 359.4754943847656 174.56932067871094 324.88189697265625 258.7122802734375 C 324.74139404296875 259.08135986328125 325.3113708496094 249.19830322265625 322.5845642089844 261.1188049316406 C 322.87982177734375 258.6843566894531 322.448974609375 263.4554748535156 322.0538330078125 260.8153381347656 C 323.3404541015625 258.04736328125 318.16168212890625 278.8182678222656 307.7578125 271.56585693359375"/>
    <path stroke-width="0" fill="rgb(119, 176, 79)" opacity="0.59926945" stroke="rgb(56, 242, 114)" stroke-opacity="1.0" stroke-linecap="round" stroke-linejoin="round" d="M 14.360573768615723 161.4687957763672 C -14.31782341003418 345.00408935546875 16.454187393188477 80.26990509033203 -24.756982803344727 66.73939514160156 C -33.61650848388672 65.88433074951172 -35.86575698852539 55.43598556518555 -33.1386604309082 39.857364654541016 C -1.4263089895248413 -12.445168495178223 19.025442123413086 -48.191375732421875 262.94378662109375 18.524118423461914 C 238.27565002441406 77.6908950805664 140.1600341796875 -92.66909790039062 14.360573768615723 161.4687957763672"/>
    <path stroke-width="0" fill="rgb(-13, -19, 52)" opacity="0.972294" stroke="rgb(178, 75, 207)" stroke-opacity="1.0" stroke-linecap="round" stroke-linejoin="round" d="M 487.05780029296875 451.21624755859375 C 537.7564697265625 276.4736328125 434.5880126953125 291.0294189453125 464.3819885253906 260.51617431640625 C 524.8865356445312 304.8374328613281 499.4637145996094 333.68634033203125 510.23443603515625 313.5830078125 C 509.4949951171875 405.6087646484375 502.6234436035156 415.6789855957031 499.26666259765625 373.855712890625 C 499.11578369140625 464.419189453125 300.51568603515625 456.03753662109375 487.05780029296875 451.21624755859375"/>
    <path stroke-width="0" fill="rgb(33, 145, -14)" opacity="0.8783829" stroke="rgb(224, 148, 224)" stroke-opacity="1.0" stroke-linecap="round" stroke-linejoin="round" d="M 60.2640266418457 481.59942626953125 C 26.58078956604004 417.79083251953125 41.90558624267578 448.4150695800781 54.870216369628906 543.7952880859375 C -19.55062484741211 507.7294006347656 -10.257174491882324 480.9729919433594 -8.945090293884277 439.4953308105469 C -33.0115966796875 414.10955810546875 -26.143714904785156 417.8689880371094 4.387271404266357 425.3271789550781 C 39.96906661987305 441.0614013671875 27.589950561523438 452.4704284667969 60.2640266418457 481.59942626953125"/>
    <path stroke-width="0" fill="rgb(39, 106, 88)" opacity="0.6156062" stroke="rgb(184, 127, 243)" stroke-opacity="1.0" stroke-linecap="round" stroke-linejoin="round" d="M 124.64794921875 458.29205322265625 C 73.86152648925781 459.44842529296875 69.80403137207031 486.74798583984375 59.494590759277344 493.7911682128906 C 12.715476989746094 490.7709045410156 70.80228424072266 437.3202819824219 -15.467123985290527 434.9066162109375 C -13.435310363769531 396.5916442871094 -18.967519760131836 376.19903564453125 3.497286796569824 376.9751281738281 C 16.8719425201416 431.88311767578125 62.77718734741211 465.2508850097656 124.64794921875 458.29205322265625"/>
    <path stroke-width="0" fill="rgb(209, 191, 139)" opacity="0.9055962" stroke="rgb(108, 154, 4)" stroke-opacity="1.0" stroke-linecap="round" stroke-linejoin="round" d="M 99.90412902832031 363.974609375 C 80.88151550292969 395.59063720703125 60.827049255371094 441.065185546875 64.91178131103516 427.5382995605469 C 66.50753784179688 433.45550537109375 43.72005081176758 405.80712890625 21.520402908325195 396.6571044921875 C -11.651320457458496 318.4589538574219 28.28407096862793 353.8517761230469 100.35814666748047 345.084716796875 C 98.46161651611328 362.70074462890625 49.650421142578125 412.7435607910156 99.90412902832031 363.974609375"/>
    <path stroke-width="0" fill="rgb(29, 140, 93)" opacity="0.8061933" stroke="rgb(168, 73, 157)" stroke-opacity="1.0" stroke-linecap="round" stroke-linejoin="round" d="M 168.46627807617188 441.8074951171875 C 310.1388244628906 500.5337219238281 200.7237548828125 546.701904296875 35.78398895263672 547.9451293945312 C 11.251142501831055 543.2071533203125 3.708277463912964 537.02392578125 8.713281631469727 531.5846557617188 C 31.095979690551758 463.1017150878906 28.156280517578125 452.4724426269531 41.3626708984375 461.53369140625 C 126.75794219970703 470.52288818359375 148.94219970703125 447.6434326171875 168.46627807617188 441.8074951171875"/>
    <path stroke-width="0" fill="rgb(-5, 16, 89)" opacity="1.0444682" stroke="rgb(34, 76, 145)" stroke-opacity="1.0" stroke-linecap="round" stroke-linejoin="round" d="M 170.04937744140625 143.6703338623047 C 161.9353485107422 151.18495178222656 156.34201049804688 150.72061157226562 190.1214599609375 146.3936309814453 C 190.50775146484375 140.14683532714844 177.22718811035156 144.601806640625 152.00604248046875 146.21669006347656 C 184.64053344726562 147.32627868652344 196.44204711914062 151.3444061279297 170.63475036621094 170.0274200439453 C 154.35032653808594 159.3438720703125 140.78857421875 164.53475952148438 170.04937744140625 143.6703338623047"/>
    <path stroke-width="0" fill="rgb(64, 152, 79)" opacity="0.93420523" stroke="rgb(146, 166, 166)" stroke-opacity="1.0" stroke-linecap="round" stroke-linejoin="round" d="M 63.208404541015625 525.2677001953125 C 47.256099700927734 539.38818359375 38.75363540649414 545.7471313476562 27.42095375061035 546.61962890625 C -6.0 521.3204956054688 -13.320508003234863 514.0 -38.805625915527344 480.6279602050781 C -40.46461868286133 466.5559997558594 -39.71683120727539 450.0908203125 6.235546588897705 391.4842224121094 C 57.62162399291992 483.25860595703125 131.75404357910156 479.0445556640625 63.208404541015625 525.2677001953125"/>
    <path stroke-width="0" fill="rgb(123, 193, 119)" opacity="0.99674207" stroke="rgb(182, 254, 38)" stroke-opacity="1.0" stroke-linecap="round" stroke-linejoin="round" d="M 526.7575073242188 376.7177734375 C 580.4351196289062 360.0115051269531 480.3063049316406 263.97698974609375 433.5005798339844 237.2093505859375 C 467.3189697265625 149.18115234375 318.4615783691406 40.38727951049805 249.0873565673828 79.32626342773438 C 57.404380798339844 -21.68267250061035 304.3687438964844 -49.66630172729492 378.54913330078125 -11.374831199645996 C 431.2110595703125 -1.6266846656799316 559.929931640625 2.7601702213287354 526.7575073242188 376.7177734375"/>
    <path stroke-width="0" fill="rgb(94, 107, 120)" opacity="0.4713565" stroke="rgb(41, 156, 31)" stroke-opacity="1.0" stroke-linecap="round" stroke-linejoin="round" d="M 101.85568237304688 480.84918212890625 C 154.33006286621094 504.28082275390625 67.1925277709961 519.4912109375 70.08421325683594 520.9055786132812 C 51.94614028930664 483.8104553222656 55.60246276855469 422.51580810546875 73.41902923583984 483.8345031738281 C -2.2197468280792236 408.4482116699219 -12.492634773254395 413.3203125 29.436779022216797 449.0375061035156 C 81.94820404052734 450.0989990234375 81.25975036621094 464.36376953125 101.85568237304688 480.84918212890625"/>
    <path stroke-width="0" fill="rgb(58, 150, 77)" opacity="0.76539904" stroke="rgb(205, 145, 103)" stroke-opacity="1.0" stroke-linecap="round" stroke-linejoin="round" d="M 65.45372009277344 450.90179443359375 C 180.6014404296875 492.95526123046875 203.50393676757812 539.0914916992188 46.88064193725586 513.6262817382812 C -34.300254821777344 449.80352783203125 -37.626853942871094 391.912353515625 74.1946792602539 500.8446350097656 C -23.710243225097656 431.9769592285156 -17.369386672973633 438.6683349609375 17.206802368164062 437.5173645019531 C 3.2340810298919678 389.39471435546875 11.889787673950195 430.8942565917969 65.45372009277344 450.90179443359375"/>
    <path stroke-width="0" fill="rgb(76, 138, 87)" opacity="0.4723008" stroke="rgb(177, 115, 184)" stroke-opacity="1.0" stroke-linecap="round" stroke-linejoin="round" d="M 95.6400375366211 496.2054443359375 C 68.58306884765625 532.7214965820312 59.51765060424805 538.567138671875 70.56416320800781 526.521240234375 C 26.444053649902344 481.778076171875 -42.5904541015625 499.3306579589844 -57.069732666015625 504.1963806152344 C -1.0405356884002686 455.7156066894531 -11.923786163330078 460.8006896972656 -22.15631866455078 448.9107666015625 C 26.613658905029297 435.8299255371094 28.474502563476562 471.73779296875 95.6400375366211 496.2054443359375"/>
    <path stroke-width="0" fill="rgb(297, 1, 37)" opacity="0.7741782" stroke="rgb(248, 218, 2)" stroke-opacity="1.0" stroke-linecap="round" stroke-linejoin="round" d="M 364.755615234375 174.79974365234375 C 348.9587707519531 179.48037719726562 350.94073486328125 172.8123779296875 320.61474609375 165.7155303955078 C 324.20184326171875 176.526611328125 303.7500915527344 146.62472534179688 334.373291015625 166.25791931152344 C 369.7556457519531 191.4197235107422 346.42926025390625 153.5100555419922 333.9499206542969 205.13388061523438 C 344.1315612792969 218.28778076171875 347.50616455078125 174.8132781982422 364.755615234375 174.79974365234375"/>
    <path stroke-width="0" fill="rgb(0, -12, 37)" opacity="0.99935865" stroke="rgb(186, 43, 132)" stroke-opacity="1.0" stroke-linecap="round" stroke-linejoin="round" d="M 179.12168884277344 305.6202697753906 C 191.4469757080078 268.876220703125 114.5172348022461 252.3177032470703 146.29171752929688 252.94822692871094 C 164.45082092285156 254.84092712402344 140.61192321777344 236.0931396484375 136.47134399414062 255.62042236328125 C 138.97352600097656 254.0921630859375 194.4121856689453 249.38758850097656 81.55835723876953 262.3957824707031 C 119.23223876953125 258.838134765625 159.5829620361328 275.10284423828125 179.12168884277344 305.6202697753906"/>
    <path stroke-width="0" fill="rgb(46, 153, 112)" opacity="0.37547296" stroke="rgb(50, 4, 202)" stroke-opacity="1.0" stroke-linecap="round" stroke-linejoin="round" d="M 252.51466369628906 452.8891296386719 C 244.3914337158203 579.8418579101562 138.84654235839844 553.2125854492188 155.71124267578125 562.4880981445312 C 217.16580200195312 471.5498352050781 146.4191436767578 403.6381530761719 130.0324249267578 483.38946533203125 C 55.044639587402344 448.8623962402344 93.87782287597656 484.9249267578125 73.19978332519531 455.6116943359375 C 170.1089630126953 473.9620361328125 146.7057342529297 403.6255187988281 252.51466369628906 452.8891296386719"/>
    <path stroke-width="0" fill="rgb(256, 255, 251)" opacity="0.96869344" stroke="rgb(88, 236, 179)" stroke-opacity="1.0" stroke-linecap="round" stroke-linejoin="round" d="M 88.46539306640625 362.31439208984375 C 114.42271423339844 390.9364013671875 7.845725059509277 400.8888854980469 23.824230194091797 392.8365478515625 C 89.29092407226562 404.7579650878906 108.07979583740234 338.0134582519531 56.73176956176758 439.8789978027344 C 12.980478286743164 396.96826171875 3.648521661758423 404.45025634765625 76.22134399414062 371.0011291503906 C 6.743167400360107 413.7102966308594 25.85349464416504 396.58087158203125 88.46539306640625 362.31439208984375"/>
    <path stroke-width="0" fill="rgb(106, 163, 106)" opacity="0.2340752" stroke="rgb(41, 158, 147)" stroke-opacity="1.0" stroke-linecap="round" stroke-linejoin="round" d="M 388.2000427246094 14.225929260253906 C 192.7073516845703 -8.26889705657959 275.8238830566406 102.2323989868164 523.3961791992188 107.8710708618164 C 501.1018981933594 -85.51693725585938 39.102272033691406 -62.142581939697266 -10.079380989074707 278.01544189453125 C -43.78627395629883 -42.83336639404297 308.22784423828125 -48.752017974853516 295.9017333984375 -26.79374122619629 C 395.24481201171875 1.6104375123977661 410.3039245605469 15.416504859924316 388.2000427246094 14.225929260253906"/>
    <path stroke-width="0" fill="rgb(100, 203, 128)" opacity="0.5189516" stroke="rgb(238, 156, 136)" stroke-opacity="1.0" stroke-linecap="round" stroke-linejoin="round" d="M 448.3191223144531 251.5428009033203 C 329.1518859863281 218.41807556152344 436.30853271484375 6.1713128089904785 428.56475830078125 120.77737426757812 C 111.02497863769531 159.68399047851562 187.5480194091797 81.09728240966797 82.67644500732422 251.3460235595703 C -13.509806632995605 69.89368438720703 453.7178039550781 -0.9921939969062805 323.0213928222656 37.280479431152344 C 299.3025817871094 11.607200622558594 521.3954467773438 34.07072067260742 448.3191223144531 251.5428009033203"/>
    <path stroke-width="0" fill="rgb(27, 152, 117)" opacity="0.99153405" stroke="rgb(186, 79, 101)" stroke-opacity="1.0" stroke-linecap="round" stroke-linejoin="round" d="M 545.7301635742188 325.6316223144531 C 547.3452758789062 544.0161743164062 540.02099609375 551.331298828125 442.2347412109375 579.9813842773438 C 289.34649658203125 689.2335815429688 221.6728515625 742.4891357421875 213.83963012695312 469.0920715332031 C 347.1558837890625 410.14031982421875 424.0514831542969 508.67071533203125 497.570068359375 405.8007507324219 C 555.1324462890625 281.37060546875 406.3681640625 228.44110107421875 545.7301635742188 325.6316223144531"/>
    <path stroke-width="0" fill="rgb(127, 162, -2)" opacity="0.08870282" stroke="rgb(47, 240, 188)" stroke-opacity="1.0" stroke-linecap="round" stroke-linejoin="round" d="M 403.9397277832031 290.929443359375 C 406.0143737792969 286.35052490234375 423.606689453125 269.7978820800781 412.01171875 347.2508239746094 C 405.7919616699219 248.41358947753906 403.579345703125 270.2922668457031 414.5559387207031 286.51495361328125 C 413.10113525390625 270.1977233886719 409.7928466796875 247.99270629882812 402.41973876953125 262.4671325683594 C 407.5849304199219 241.7014617919922 405.1337585449219 296.4036560058594 403.9397277832031 290.929443359375"/>
    <path stroke-width="0" fill="rgb(44, 154, 87)" opacity="0.32136655" stroke="rgb(57, 64, 14)" stroke-opacity="1.0" stroke-linecap="round" stroke-linejoin="round" d="M 142.41787719726562 462.5400390625 C 249.59812927246094 506.91339111328125 155.12362670898438 508.42474365234375 56.69755935668945 549.585693359375 C 42.44731140136719 537.2024536132812 37.819068908691406 530.1972045898438 91.52074432373047 518.1481323242188 C -86.28895568847656 407.5104675292969 8.727128982543945 428.02044677734375 85.50038146972656 486.4696044921875 C 10.718754768371582 411.42822265625 25.65416717529297 452.82781982421875 142.41787719726562 462.5400390625"/>
    <path stroke-width="0" fill="rgb(328, 14, -24)" opacity="1.034537" stroke="rgb(79, 177, 96)" stroke-opacity="1.0" stroke-linecap="round" stroke-linejoin="round" d="M 158.79222106933594 152.95811462402344 C 177.961669921875 149.6784210205078 166.099609375 150.31423950195312 164.58848571777344 152.90834045410156 C 166.03053283691406 149.7705078125 175.22311401367188 148.40354919433594 164.74362182617188 151.61817932128906 C 183.67477416992188 148.51885986328125 207.9386749267578 157.5325164794922 192.499267578125 140.3527069091797 C 121.63074493408203 130.1656951904297 136.9195556640625 178.0343017578125 158.79222106933594 152.95811462402344"/>
    <path stroke-width="0" fill="rgb(75, 156, 55)" opacity="0.7333837" stroke="rgb(6, 17, 173)" stroke-opacity="1.0" stroke-linecap="round" stroke-linejoin="round" d="M 16.752117156982422 437.2348937988281 C 32.27659606933594 440.0922546386719 36.79623794555664 435.5374450683594 -62.73432159423828 449.2904968261719 C -25.437917709350586 456.98138427734375 -32.49625015258789 449.58746337890625 -45.60750198364258 424.2211608886719 C -70.35607147216797 352.47515869140625 -52.7089958190918 355.025390625 -0.19359315931797028 365.64251708984375 C 16.826976776123047 419.5246276855469 33.59514236450195 431.8505859375 16.752117156982422 437.2348937988281"/>
    <path stroke-width="0" fill="rgb(111, 199, 117)" opacity="0.7890314" stroke="rgb(136, 228, 252)" stroke-opacity="1.0" stroke-linecap="round" stroke-linejoin="round" d="M 463.377685546875 224.07403564453125 C 409.25885009765625 326.1286315917969 448.0537414550781 71.95576477050781 256.89459228515625 90.90288543701172 C 246.62400817871094 94.70972442626953 243.25721740722656 30.71573829650879 78.4410171508789 163.584228515625 C 151.00924682617188 19.703123092651367 310.2201843261719 17.1743106842041 367.55657958984375 -9.192670822143555 C 279.9162902832031 31.83725929260254 438.64227294921875 18.982479095458984 463.377685546875 224.07403564453125"/>
    <path stroke-width="0" fill="rgb(43, 155, 97)" opacity="0.4664482" stroke="rgb(169, 67, 5)" stroke-opacity="1.0" stroke-linecap="round" stroke-linejoin="round" d="M 370.9169006347656 454.3258056640625 C 261.2370300292969 548.7566528320312 131.3428192138672 383.5830993652344 112.31124877929688 608.7401733398438 C 87.05445098876953 561.8491821289062 110.97525787353516 535.2816162109375 87.59960174560547 539.076416015625 C 252.61676025390625 608.0172729492188 196.58815002441406 414.7197570800781 136.19056701660156 461.9043273925781 C 189.9600830078125 415.0325012207031 211.5452117919922 379.1842041015625 370.9169006347656 454.3258056640625"/>
    <path stroke-width="0" fill="rgb(118, 197, 116)" opacity="0.9039577" stroke="rgb(81, 97, 150)" stroke-opacity="1.0" stroke-linecap="round" stroke-linejoin="round" d="M 594.628173828125 209.33001708984375 C 359.7203674316406 71.71256256103516 268.1609191894531 -72.06478881835938 268.6350402832031 104.00057220458984 C 325.1204528808594 118.91769409179688 301.5873107910156 118.80522918701172 260.65814208984375 109.61354064941406 C 301.2168884277344 -2.186055898666382 219.06143188476562 -58.940425872802734 423.4481201171875 -38.99711990356445 C 426.87200927734375 -14.235339164733887 513.89697265625 -18.958101272583008 594.628173828125 209.33001708984375"/>
    <path stroke-width="0" fill="rgb(88, 142, 86)" opacity="0.37800282" stroke="rgb(160, 222, 69)" stroke-opacity="1.0" stroke-linecap="round" stroke-linejoin="round" d="M 0.06975342333316803 469.9260559082031 C 30.663637161254883 480.9130554199219 31.14284896850586 488.2231750488281 -21.33606719970703 481.25927734375 C 10.457038879394531 452.3590087890625 -18.080373764038086 413.81536865234375 -30.1299991607666 414.26678466796875 C -29.795747756958008 421.0752258300781 -21.742794036865234 415.0025329589844 -16.99398422241211 418.4964599609375 C 33.582393646240234 431.0645751953125 26.877172470092773 464.0602722167969 0.06975342333316803 469.9260559082031"/>
    <path stroke-width="0" fill="rgb(111, 206, 95)" opacity="0.9386143" stroke="rgb(47, 242, 175)" stroke-opacity="1.0" stroke-linecap="round" stroke-linejoin="round" d="M 329.5696716308594 247.8145294189453 C 335.91888427734375 222.6710662841797 323.7747497558594 292.3593444824219 350.9983825683594 254.57142639160156 C 342.7804260253906 224.8737030029297 365.24053955078125 249.79452514648438 346.6756896972656 215.90867614746094 C 377.0313415527344 219.0601043701172 380.3974304199219 233.22918701171875 354.6833801269531 235.8591766357422 C 340.5811462402344 260.2250061035156 339.14111328125 196.0253448486328 329.5696716308594 247.8145294189453"/>
    <path stroke-width="0" fill="rgb(57, 2, -47)" opacity="0.7426393" stroke="rgb(241, 186, 64)" stroke-opacity="1.0" stroke-linecap="round" stroke-linejoin="round" d="M 539.2034301757812 349.6661682128906 C 406.7957763671875 390.1748046875 439.6282653808594 300.40167236328125 444.92120361328125 362.83099365234375 C 387.48486328125 333.7367858886719 425.3843994140625 342.4678039550781 411.2084655761719 339.71759033203125 C 529.8880615234375 188.35443115234375 389.1162414550781 339.449462890625 406.0213928222656 400.076904296875 C 401.4826354980469 316.6980285644531 469.59735107421875 380.3825378417969 539.2034301757812 349.6661682128906"/>
    <path stroke-width="0" fill="rgb(109, 194, 130)" opacity="0.79746366" stroke="rgb(132, 6, 52)" stroke-opacity="1.0" stroke-linecap="round" stroke-linejoin="round" d="M 341.23394775390625 114.17693328857422 C 368.02142333984375 151.98965454101562 439.0995788574219 167.83651733398438 298.06976318359375 158.85919189453125 C 139.40536499023438 143.48228454589844 216.38827514648438 216.3837127685547 192.56723022460938 122.50334167480469 C 275.1132507324219 119.56977081298828 318.8894348144531 45.75232696533203 127.20157623291016 122.6888427734375 C 256.6431884765625 72.96231842041016 272.0911865234375 102.07706451416016 341.23394775390625 114.17693328857422"/>
    <path stroke-width="0" fill="rgb(-10, 47, -27)" opacity="0.2783691" stroke="rgb(95, 118, 70)" stroke-opacity="1.0" stroke-linecap="round" stroke-linejoin="round" d="M 413.0039978027344 257.83526611328125 C 412.3864440917969 254.56495666503906 402.9844970703125 225.15074157714844 408.0789794921875 303.25177001953125 C 408.77581787109375 220.42185974121094 399.3270568847656 257.39208984375 403.43963623046875 245.89344787597656 C 406.43414306640625 249.09744262695312 408.1376953125 246.50152587890625 404.7853698730469 248.14431762695312 C 406.1033935546875 257.33270263671875 406.6159362792969 247.99569702148438 413.0039978027344 257.83526611328125"/>
    <path stroke-width="0" fill="rgb(38, 112, -3)" opacity="0.65164626" stroke="rgb(182, 100, 144)" stroke-opacity="1.0" stroke-linecap="round" stroke-linejoin="round" d="M 102.55916595458984 447.32012939453125 C 107.9002685546875 363.535888671875 101.40919494628906 421.77490234375 101.86920166015625 444.32330322265625 C 98.63390350341797 448.42095947265625 102.6240234375 440.88140869140625 100.6631851196289 449.08172607421875 C 105.72441864013672 450.6327209472656 107.50749206542969 442.3695983886719 101.61798858642578 442.61798095703125 C 103.31417846679688 452.720458984375 97.71952056884766 447.4637756347656 102.55916595458984 447.32012939453125"/>
    <path stroke-width="0" fill="rgb(253, 262, 250)" opacity="0.8007858" stroke="rgb(61, 25, 4)" stroke-opacity="1.0" stroke-linecap="round" stroke-linejoin="round" d="M 445.4231262207031 334.8149719238281 C 424.39630126953125 344.11236572265625 449.5733642578125 345.24468994140625 448.0771179199219 379.271484375 C 435.10546875 395.2675476074219 405.0357666015625 380.3357849121094 442.8191833496094 397.3565979003906 C 385.1006164550781 328.70947265625 458.8720397949219 368.63348388671875 465.7032165527344 347.89508056640625 C 460.4837341308594 362.2864685058594 441.86151123046875 328.15142822265625 445.4231262207031 334.8149719238281"/>
    <path stroke-width="0" fill="rgb(298, 265, 266)" opacity="0.031766504" stroke="rgb(170, 200, 71)" stroke-opacity="1.0" stroke-linecap="round" stroke-linejoin="round" d="M 348.5366516113281 285.6728820800781 C 365.189453125 269.01263427734375 352.2920227050781 279.7159118652344 336.92803955078125 338.7122497558594 C 328.7916259765625 319.165283203125 316.28216552734375 314.96270751953125 352.9915771484375 278.00372314453125 C 355.44525146484375 279.9421081542969 346.3466796875 246.55821228027344 338.07269287109375 268.46820068359375 C 342.60333251953125 249.135986328125 357.01220703125 273.00408935546875 348.5366516113281 285.6728820800781"/>
    <path stroke-width="0" fill="rgb(207, 240, 173)" opacity="0.009463812" stroke="rgb(16, 123, 249)" stroke-opacity="1.0" stroke-linecap="round" stroke-linejoin="round" d="M 338.1677551269531 320.0137939453125 C 361.9019775390625 346.95574951171875 376.82281494140625 331.8389587402344 312.3723449707031 346.75823974609375 C 398.33514404296875 345.3238830566406 346.3453063964844 336.1435241699219 347.3788757324219 320.2900085449219 C 336.4141845703125 341.65362548828125 319.5003356933594 329.5899658203125 310.1291198730469 301.87274169921875 C 329.5903625488281 344.572998046875 347.6578674316406 325.70465087890625 338.1677551269531 320.0137939453125"/>
    <path stroke-width="0" fill="rgb(267, 248, 246)" opacity="0.98410714" stroke="rgb(86, 245, 59)" stroke-opacity="1.0" stroke-linecap="round" stroke-linejoin="round" d="M 10.64942741394043 362.6436462402344 C 23.20853614807129 238.2437286376953 78.18635559082031 333.3688659667969 33.816009521484375 339.9705810546875 C 2.282315254211426 332.8087463378906 38.61530685424805 334.1549987792969 32.044185638427734 337.4991760253906 C 33.44547653198242 331.8794250488281 43.42170715332031 318.2777404785156 74.67329406738281 313.2758483886719 C 49.72783660888672 318.6262512207031 38.2330207824707 319.558349609375 10.64942741394043 362.6436462402344"/>
    <path stroke-width="0" fill="rgb(-24, 4, 20)" opacity="0.48798883" stroke="rgb(126, 163, 93)" stroke-opacity="1.0" stroke-linecap="round" stroke-linejoin="round" d="M 358.5959777832031 343.0793762207031 C 347.2845764160156 342.2987060546875 372.8169250488281 375.6539611816406 318.095947265625 368.0213623046875 C 322.79730224609375 365.13507080078125 306.4978332519531 368.6690979003906 346.3335266113281 369.88232421875 C 362.5721130371094 355.99615478515625 360.1305236816406 337.4907531738281 307.9737548828125 340.7351989746094 C 318.9093017578125 332.6541442871094 315.3466491699219 345.7408752441406 358.5959777832031 343.0793762207031"/>
    <path stroke-width="0" fill="rgb(94, 159, 74)" opacity="0.52652127" stroke="rgb(231, 197, 84)" stroke-opacity="1.0" stroke-linecap="round" stroke-linejoin="round" d="M 104.91358184814453 -8.998128890991211 C 68.66798400878906 26.019906997680664 2.6068058013916016 85.92545318603516 7.193377494812012 116.29278564453125 C -57.557395935058594 71.17485046386719 -38.79773712158203 43.31696701049805 -21.26150131225586 2.9523637294769287 C -17.32050895690918 -10.0 -10.0 -17.32050895690918 7.241615295410156 -24.014564514160156 C 31.09577178955078 -33.32636642456055 38.93543243408203 -15.198221206665039 104.91358184814453 -8.998128890991211"/>
    <path stroke-width="0" fill="rgb(126, 175, 152)" opacity="0.28032222" stroke="rgb(103, 59, 33)" stroke-opacity="1.0" stroke-linecap="round" stroke-linejoin="round" d="M 209.7165069580078 180.4396209716797 C 220.3503875732422 172.39561462402344 210.90623474121094 174.39759826660156 207.2508087158203 182.9496612548828 C 255.00588989257812 129.57762145996094 254.54074096679688 151.89968872070312 217.6046905517578 179.80545043945312 C 224.86614990234375 182.248046875 231.5098419189453 179.62759399414062 221.8416748046875 179.31468200683594 C 219.351318359375 132.76876831054688 205.21298217773438 156.43978881835938 209.7165069580078 180.4396209716797"/>
    <path stroke-width="0" fill="rgb(263, 258, 257)" opacity="0.9375911" stroke="rgb(20, 22, 171)" stroke-opacity="1.0" stroke-linecap="round" stroke-linejoin="round" d="M 72.29611206054688 340.4477844238281 C 59.050113677978516 326.50604248046875 54.39276123046875 330.0978088378906 73.16328430175781 338.52178955078125 C 102.5431137084961 335.8050537109375 45.51156234741211 354.68865966796875 21.091529846191406 331.22509765625 C -16.15386199951172 446.7295227050781 92.03823852539062 356.9744873046875 98.46011352539062 351.5050354003906 C 99.86822509765625 311.8927917480469 86.6517562866211 358.230712890625 72.29611206054688 340.4477844238281"/>
    <path stroke-width="0" fill="rgb(225, 264, 181)" opacity="0.06282059" stroke="rgb(107, 142, 219)" stroke-opacity="1.0" stroke-linecap="round" stroke-linejoin="round" d="M 102.23738098144531 310.35552978515625 C 131.01611328125 308.89373779296875 110.96356964111328 328.4713134765625 88.5312728881836 353.0531921386719 C 6.802366733551025 409.2804260253906 4.023757457733154 248.8436279296875 95.17561340332031 263.80682373046875 C 140.20956420898438 317.4013977050781 49.968788146972656 341.8749694824219 118.1497802734375 309.3399658203125 C 132.3368377685547 276.30328369140625 125.00080871582031 284.7438659667969 102.23738098144531 310.35552978515625"/>
    <path stroke-width="0" fill="rgb(4, -4, 17)" opacity="0.84324604" stroke="rgb(14, 177, 198)" stroke-opacity="1.0" stroke-linecap="round" stroke-linejoin="round" d="M 29.425626754760742 293.403076171875 C 26.56739616394043 284.07763671875 53.04792022705078 319.39837646484375 103.14659118652344 355.5222473144531 C 58.80588912963867 315.70892333984375 15.789288520812988 292.78033447265625 27.665000915527344 282.8211975097656 C 20.969884872436523 292.3619384765625 32.033626556396484 274.4254150390625 22.814468383789062 318.08837890625 C 11.160565376281738 284.8816223144531 47.38286209106445 286.1914978027344 29.425626754760742 293.403076171875"/>
    <path stroke-width="0" fill="rgb(124, 185, 143)" opacity="0.24288194" stroke="rgb(66, 95, 149)" stroke-opacity="1.0" stroke-linecap="round" stroke-linejoin="round" d="M 347.8237609863281 132.17510986328125 C 329.7264709472656 136.9772491455078 318.76971435546875 137.68057250976562 314.8558654785156 138.0624237060547 C 377.1535339355469 127.6363525390625 363.7422180175781 135.14898681640625 354.9662780761719 118.59834289550781 C 303.43914794921875 131.96788024902344 283.3602600097656 94.77507019042969 324.973388671875 99.87044525146484 C 351.185791015625 157.37530517578125 370.1165466308594 164.05682373046875 347.8237609863281 132.17510986328125"/>
    <path stroke-width="0" fill="rgb(-10, -28, 43)" opacity="0.8248013" stroke="rgb(203, 19, 132)" stroke-opacity="1.0" stroke-linecap="round" stroke-linejoin="round" d="M 430.6952819824219 362.6895751953125 C 515.2105712890625 416.5972900390625 511.7657470703125 411.5910339355469 437.70684814453125 364.1922912597656 C 400.9061584472656 341.7165222167969 490.76043701171875 364.4177551269531 422.4903564453125 354.35076904296875 C 435.1225891113281 366.26507568359375 448.67938232421875 362.92047119140625 405.0437927246094 340.37286376953125 C 381.87091064453125 371.3235778808594 419.5068664550781 354.1811828613281 430.6952819824219 362.6895751953125"/>
    <path stroke-width="0" fill="rgb(151, 167, 167)" opacity="0.3290611" stroke="rgb(109, 130, 136)" stroke-opacity="1.0" stroke-linecap="round" stroke-linejoin="round" d="M 324.2874450683594 131.1185760498047 C 320.6647033691406 160.71141052246094 305.626708984375 168.94508361816406 305.6944580078125 164.3056640625 C 348.75164794921875 182.92137145996094 317.4354248046875 173.15325927734375 321.5404357910156 194.97496032714844 C 311.1138916015625 186.44830322265625 321.024169921875 174.27626037597656 295.47369384765625 158.75303649902344 C 299.38494873046875 159.97023010253906 323.32440185546875 165.38352966308594 324.2874450683594 131.1185760498047"/>
    <path stroke-width="0" fill="rgb(8, -35, 2)" opacity="0.684015" stroke="rgb(70, 32, 100)" stroke-opacity="1.0" stroke-linecap="round" stroke-linejoin="round" d="M 192.863525390625 405.9571228027344 C 99.30924987792969 347.6195373535156 44.53315734863281 348.8723449707031 132.2426300048828 353.2427978515625 C 123.66473388671875 326.17266845703125 125.91902160644531 338.8663330078125 129.98753356933594 351.38458251953125 C 88.33042907714844 353.47509765625 115.095703125 370.1888732910156 157.77772521972656 454.6004943847656 C 74.9752426147461 312.6679992675781 97.68490600585938 361.5508728027344 192.863525390625 405.9571228027344"/>
    <path stroke-width="0" fill="rgb(133, 176, 160)" opacity="0.55105793" stroke="rgb(224, 116, 184)" stroke-opacity="1.0" stroke-linecap="round" stroke-linejoin="round" d="M 197.70631408691406 183.90089416503906 C 174.16455078125 181.22036743164062 168.93243408203125 187.83155822753906 183.3397979736328 184.85311889648438 C 200.53445434570312 157.73431396484375 196.296875 169.11280822753906 190.90960693359375 172.65797424316406 C 176.90931701660156 187.42282104492188 196.91380310058594 178.30442810058594 212.13385009765625 180.38385009765625 C 196.40135192871094 176.68849182128906 175.33035278320312 224.68382263183594 197.70631408691406 183.90089416503906"/>
    <path stroke-width="0" fill="rgb(72, 109, 55)" opacity="0.120098814" stroke="rgb(192, 162, 61)" stroke-opacity="1.0" stroke-linecap="round" stroke-linejoin="round" d="M 6.793201446533203 330.6634216308594 C 77.6379165649414 347.4935302734375 50.620243072509766 332.16070556640625 51.50584411621094 305.6306457519531 C 50.156009674072266 324.03302001953125 55.25807571411133 309.903076171875 52.84964370727539 309.8000183105469 C 56.536041259765625 310.7950134277344 49.34550094604492 311.53460693359375 56.52655029296875 312.2926025390625 C 56.553504943847656 328.6792907714844 71.97154235839844 351.2154846191406 6.793201446533203 330.6634216308594"/>
    <path stroke-width="0" fill="rgb(2, 0, 60)" opacity="0.34420106" stroke="rgb(90, 90, 4)" stroke-opacity="1.0" stroke-linecap="round" stroke-linejoin="round" d="M 155.15737915039062 155.64700317382812 C 157.52947998046875 160.5985870361328 162.14723205566406 161.22283935546875 184.1782989501953 161.0425567626953 C 166.4161376953125 164.51014709472656 164.4397735595703 161.2508544921875 158.85304260253906 210.35894775390625 C 159.02584838867188 172.54367065429688 170.23397827148438 165.310791015625 172.29293823242188 166.8566131591797 C 163.29469299316406 167.6336212158203 181.82870483398438 140.23574829101562 155.15737915039062 155.64700317382812"/>
    <path stroke-width="0" fill="rgb(154, 147, 164)" opacity="0.3174332" stroke="rgb(248, 252, 104)" stroke-opacity="1.0" stroke-linecap="round" stroke-linejoin="round" d="M 101.03618621826172 235.58680725097656 C 110.39060974121094 210.417236328125 111.38896179199219 232.7332000732422 126.2388687133789 245.55960083007812 C 129.3215789794922 204.40867614746094 116.43452453613281 219.1877899169922 114.69922637939453 240.24960327148438 C 101.4172134399414 232.33367919921875 123.56138610839844 145.79098510742188 115.2539291381836 194.53018188476562 C 113.91673278808594 214.6661376953125 123.86663818359375 249.76947021484375 101.03618621826172 235.58680725097656"/>
    <path stroke-width="0" fill="rgb(-1, -10, 19)" opacity="0.67261916" stroke="rgb(162, 125, 252)" stroke-opacity="1.0" stroke-linecap="round" stroke-linejoin="round" d="M 465.096435546875 357.8633728027344 C 371.9552001953125 355.66650390625 411.8596496582031 328.9906311035156 412.01708984375 373.07550048828125 C 431.1790771484375 331.3569030761719 423.421875 348.6132507324219 352.6954040527344 448.634033203125 C 417.46527099609375 346.1575622558594 424.62139892578125 360.86688232421875 366.60516357421875 370.8359680175781 C 357.1187438964844 372.8103942871094 368.4874572753906 346.2560119628906 465.096435546875 357.8633728027344"/>
    <path stroke-width="0" fill="rgb(78, 176, 108)" opacity="0.02940988" stroke="rgb(91, 211, 235)" stroke-opacity="1.0" stroke-linecap="round" stroke-linejoin="round" d="M 356.477294921875 329.93890380859375 C 349.50726318359375 319.04681396484375 362.9584655761719 324.4438171386719 355.55096435546875 381.46478271484375 C 348.99212646484375 379.1676025390625 363.3825988769531 379.14697265625 357.18072509765625 321.54876708984375 C 364.5390625 315.0449523925781 353.1323547363281 322.94219970703125 380.0602722167969 334.4006042480469 C 362.4468994140625 315.0912170410156 351.2801513671875 325.3075866699219 356.477294921875 329.93890380859375"/>
    <path stroke-width="0" fill="rgb(81, 7, -13)" opacity="0.9880994" stroke="rgb(59, 88, 207)" stroke-opacity="1.0" stroke-linecap="round" stroke-linejoin="round" d="M 440.89208984375 341.92572021484375 C 483.93310546875 313.3212890625 456.5619201660156 321.9149169921875 465.5899353027344 324.45196533203125 C 462.61248779296875 326.40753173828125 462.156494140625 319.63330078125 474.25262451171875 317.4488830566406 C 465.6446533203125 328.905029296875 475.3230285644531 316.2032165527344 478.0171813964844 317.0470886230469 C 435.0246887207031 339.0129699707031 408.6487121582031 371.52679443359375 440.89208984375 341.92572021484375"/>
    <path stroke-width="0" fill="rgb(250, 240, 197)" opacity="0.005010705" stroke="rgb(63, 27, 242)" stroke-opacity="1.0" stroke-linecap="round" stroke-linejoin="round" d="M 104.3891372680664 395.1046142578125 C 44.0966911315918 433.4600830078125 52.4039306640625 450.8181457519531 19.55753517150879 391.4441223144531 C 109.19633483886719 421.9432373046875 86.05612182617188 415.23211669921875 57.875 412.0941162109375 C 83.02354431152344 453.2368469238281 118.83438110351562 470.48980712890625 102.70530700683594 408.8200378417969 C 85.22781372070312 402.1540222167969 74.62992858886719 397.2082824707031 104.3891372680664 395.1046142578125"/>
    <path stroke-width="0" fill="rgb(117, 195, 114)" opacity="0.66352206" stroke="rgb(175, 14, 186)" stroke-opacity="1.0" stroke-linecap="round" stroke-linejoin="round" d="M 65.04249572753906 248.4963836669922 C 69.55540466308594 251.88218688964844 62.493019104003906 268.0176086425781 48.30070877075195 238.37701416015625 C 76.31314849853516 250.9951934814453 74.77913665771484 240.04400634765625 57.52763366699219 235.58424377441406 C 58.541263580322266 236.27110290527344 55.51076889038086 118.38394165039062 49.349124908447266 245.10459899902344 C 126.46172332763672 208.40171813964844 150.26571655273438 260.3777160644531 65.04249572753906 248.4963836669922"/>
    <path stroke-width="0" fill="rgb(113, 183, 139)" opacity="0.4213896" stroke="rgb(213, 60, 128)" stroke-opacity="1.0" stroke-linecap="round" stroke-linejoin="round" d="M 63.45330047607422 246.24411010742188 C 88.62324523925781 252.46038818359375 88.29033660888672 242.34205627441406 51.23075866699219 240.3582305908203 C 36.438053131103516 241.7120361328125 70.71292114257812 234.25076293945312 112.37066650390625 229.68621826171875 C 74.97659301757812 234.8186492919922 71.47207641601562 248.4095458984375 65.71162414550781 250.37733459472656 C 93.9830093383789 244.54322814941406 104.09740447998047 242.0031280517578 63.45330047607422 246.24411010742188"/>
    <path stroke-width="0" fill="rgb(110, 204, 113)" opacity="0.5717695" stroke="rgb(228, 103, 140)" stroke-opacity="1.0" stroke-linecap="round" stroke-linejoin="round" d="M 404.703857421875 208.1573944091797 C 398.4256591796875 242.52040100097656 387.39178466796875 244.41143798828125 428.1461486816406 246.5683135986328 C 454.14239501953125 237.3472137451172 395.611083984375 221.787109375 398.71624755859375 242.74681091308594 C 393.92578125 235.1324005126953 394.3895263671875 255.09420776367188 402.7543029785156 241.27650451660156 C 398.0009765625 248.99227905273438 404.27978515625 239.61026000976562 404.703857421875 208.1573944091797"/>
    <path stroke-width="0" fill="rgb(125, 192, 127)" opacity="0.39284003" stroke="rgb(64, 113, 26)" stroke-opacity="1.0" stroke-linecap="round" stroke-linejoin="round" d="M 141.11094665527344 228.53977966308594 C 109.56047058105469 224.7379150390625 114.04363250732422 222.435791015625 112.28964233398438 234.23443603515625 C 133.03541564941406 241.14932250976562 95.69194030761719 242.66725158691406 67.58019256591797 239.82212829589844 C 139.34609985351562 222.42835998535156 65.35391998291016 209.6424560546875 119.6814956665039 235.29855346679688 C 103.9740219116211 253.42564392089844 141.5531005859375 256.9226989746094 141.11094665527344 228.53977966308594"/>
    <path stroke-width="0" fill="rgb(130, 125, 92)" opacity="-0.0026329942" stroke="rgb(0, 0, 0)" stroke-opacity="0.0" stroke-linecap="round" stroke-linejoin="round" d="M 272.9725036621094 15.008459091186523 C 273.9161376953125 22.476810455322266 270.9542541503906 23.919933319091797 268.2369079589844 25.430519104003906 C 262.50262451171875 23.223060607910156 259.83184814453125 21.01851463317871 266.24761962890625 20.61935043334961 C 265.3378601074219 14.524001121520996 260.00604248046875 3.2273483276367188 264.8945617675781 5.772926330566406 C 270.9473571777344 5.364304065704346 271.8793640136719 7.689544677734375 272.9725036621094 15.008459091186523"/>
    <path stroke-width="0" fill="rgb(101, 183, -15)" opacity="0.09892548" stroke="rgb(0, 0, 0)" stroke-opacity="0.0" stroke-linecap="round" stroke-linejoin="round" d="M 14.95469856262207 14.067688941955566 C 15.07617473602295 20.962800979614258 6.275845527648926 17.293691635131836 0.50033038854599 20.990772247314453 C -0.9896782636642456 18.724266052246094 -2.727133274078369 11.482662200927734 -2.1026337146759033 5.201716423034668 C -0.9129668474197388 7.19938325881958 0.6154868602752686 4.862659454345703 -1.1607035398483276 4.6125383377075195 C 10.116676330566406 -0.48767176270484924 17.012062072753906 -3.0767393112182617 14.95469856262207 14.067688941955566"/>
    <path stroke-width="0" fill="rgb(82, 179, 79)" opacity="0.5280513" stroke="rgb(0, 0, 0)" stroke-opacity="0.0" stroke-linecap="round" stroke-linejoin="round" d="M 181.8025360107422 16.542993545532227 C 183.94461059570312 20.598705291748047 183.0915069580078 21.932605743408203 173.1689453125 20.583072662353516 C 173.87744140625 26.538862228393555 174.9331817626953 24.396574020385742 167.6474151611328 22.736980438232422 C 161.83999633789062 10.266690254211426 163.8402099609375 4.218474864959717 173.17108154296875 4.434546947479248 C 184.00396728515625 -0.947105348110199 182.77342224121094 1.1614214181900024 181.8025360107422 16.542993545532227"/>
    <path stroke-width="0" fill="rgb(171, 152, 83)" opacity="0.14480934" stroke="rgb(0, 0, 0)" stroke-opacity="0.0" stroke-linecap="round" stroke-linejoin="round" d="M 99.60474395751953 6.635741710662842 C 97.45731353759766 11.799304962158203 96.00625610351562 14.181188583374023 97.68843078613281 11.239031791687012 C 93.15668487548828 11.087889671325684 87.65155792236328 9.340218544006348 90.06915283203125 7.680294990539551 C 88.95458221435547 0.7071696519851685 88.08356475830078 -3.3948140144348145 94.9381103515625 -5.594902515411377 C 102.656982421875 -3.3488776683807373 103.52090454101562 1.9491685628890991 99.60474395751953 6.635741710662842"/>
    <path stroke-width="0" fill="rgb(84, 178, 239)" opacity="0.054648302" stroke="rgb(0, 0, 0)" stroke-opacity="0.0" stroke-linecap="round" stroke-linejoin="round" d="M 313.0920715332031 147.47406005859375 C 312.08404541015625 154.14947509765625 309.4825134277344 157.53688049316406 303.7137756347656 163.16561889648438 C 293.04168701171875 161.65028381347656 293.01165771484375 157.5344696044922 295.86798095703125 153.4558868408203 C 298.1990661621094 148.98910522460938 299.99273681640625 144.182373046875 303.9601745605469 141.95913696289062 C 309.6888427734375 141.4209747314453 315.60247802734375 141.39892578125 313.0920715332031 147.47406005859375"/>
    <path stroke-width="0" fill="rgb(89, 140, 118)" opacity="0.016461076" stroke="rgb(0, 0, 0)" stroke-opacity="0.0" stroke-linecap="round" stroke-linejoin="round" d="M 332.4492492675781 86.57494354248047 C 335.40069580078125 91.27420043945312 333.7832336425781 94.9628677368164 332.169921875 96.6395034790039 C 324.2922058105469 93.59846496582031 319.84490966796875 91.04944610595703 318.9354553222656 83.36168670654297 C 317.09039306640625 81.67020416259766 323.7689208984375 82.28910064697266 333.8975830078125 80.2504653930664 C 334.232177734375 78.64663696289062 334.5135192871094 81.8203353881836 332.4492492675781 86.57494354248047"/>
    <path stroke-width="0" fill="rgb(101, 110, 60)" opacity="0.0014837693" stroke="rgb(0, 0, 0)" stroke-opacity="0.0" stroke-linecap="round" stroke-linejoin="round" d="M 39.819244384765625 91.25260925292969 C 45.05940628051758 93.31497955322266 42.05125045776367 92.72272491455078 35.76308822631836 88.24105072021484 C 33.94382095336914 91.80402374267578 33.882904052734375 87.34361267089844 30.527114868164062 86.63916015625 C 29.894786834716797 82.84820556640625 36.18233108520508 83.83277130126953 42.00383377075195 82.5938949584961 C 38.72588348388672 80.88603973388672 37.26313400268555 85.89736938476562 39.819244384765625 91.25260925292969"/>
    <path stroke-width="0" fill="rgb(43, 141, 134)" opacity="0.11159328" stroke="rgb(0, 0, 0)" stroke-opacity="0.0" stroke-linecap="round" stroke-linejoin="round" d="M 367.14923095703125 497.8177490234375 C 377.6182556152344 498.9248352050781 374.95904541015625 499.4985656738281 367.4422302246094 500.88299560546875 C 356.63983154296875 498.06427001953125 357.1218566894531 498.54046630859375 357.962890625 485.1383972167969 C 357.8865661621094 480.5044860839844 357.5800476074219 483.5452880859375 366.3836975097656 485.6560974121094 C 368.875244140625 487.1322021484375 367.5230407714844 487.7255554199219 367.14923095703125 497.8177490234375"/>
    <path stroke-width="0" fill="rgb(243, 284, 77)" opacity="0.028195525" stroke="rgb(0, 0, 0)" stroke-opacity="0.0" stroke-linecap="round" stroke-linejoin="round" d="M 99.91963958740234 272.326416015625 C 100.40533447265625 281.7648010253906 92.18415069580078 280.8203125 90.01838684082031 278.8405456542969 C 88.76454162597656 272.8926696777344 88.43343353271484 270.21795654296875 79.24411010742188 271.3316955566406 C 74.9683609008789 267.16571044921875 77.64152526855469 262.456787109375 83.5186996459961 263.7235412597656 C 96.8490219116211 262.78826904296875 100.33544921875 265.3348083496094 99.91963958740234 272.326416015625"/>
    <path stroke-width="0" fill="rgb(82, 195, 169)" opacity="0.22191975" stroke="rgb(0, 0, 0)" stroke-opacity="0.0" stroke-linecap="round" stroke-linejoin="round" d="M 169.66473388671875 78.38679504394531 C 175.42042541503906 79.103515625 172.33937072753906 80.07625579833984 173.90576171875 77.51693725585938 C 167.8594970703125 80.62541198730469 167.52166748046875 81.63932037353516 171.25997924804688 78.43180084228516 C 171.40438842773438 63.051414489746094 168.515869140625 65.2450942993164 170.51263427734375 73.09744262695312 C 171.21316528320312 66.91509246826172 167.63458251953125 68.78168487548828 169.66473388671875 78.38679504394531"/>
    <path stroke-width="0" fill="rgb(122, 160, 176)" opacity="0.09572629" stroke="rgb(0, 0, 0)" stroke-opacity="0.0" stroke-linecap="round" stroke-linejoin="round" d="M 322.4190368652344 393.41583251953125 C 325.6614990234375 404.96331787109375 317.74871826171875 402.1628112792969 312.0779113769531 401.70123291015625 C 317.6042785644531 407.07440185546875 317.31640625 403.054443359375 313.31878662109375 387.248779296875 C 309.7822265625 385.06658935546875 308.4234619140625 394.1588134765625 318.7755126953125 402.5596923828125 C 329.66680908203125 395.80438232421875 328.2784729003906 388.0706481933594 322.4190368652344 393.41583251953125"/>
    <path stroke-width="0" fill="rgb(45, 226, 135)" opacity="0.18442877" stroke="rgb(0, 0, 0)" stroke-opacity="0.0" stroke-linecap="round" stroke-linejoin="round" d="M 84.27464294433594 251.36663818359375 C 72.88362121582031 252.6031494140625 66.38726806640625 252.2053985595703 64.50344848632812 256.46392822265625 C 67.16716766357422 255.39761352539062 65.79010009765625 251.9880828857422 63.405311584472656 242.76927185058594 C 60.96685791015625 237.69334411621094 58.56700897216797 240.37615966796875 65.44808197021484 242.15171813964844 C 75.34136962890625 240.70947265625 81.00426483154297 242.4949951171875 84.27464294433594 251.36663818359375"/>
    <path stroke-width="0" fill="rgb(35, 184, 165)" opacity="0.061453827" stroke="rgb(0, 0, 0)" stroke-opacity="0.0" stroke-linecap="round" stroke-linejoin="round" d="M 221.81227111816406 28.234088897705078 C 228.4097900390625 36.96443557739258 228.2561798095703 36.628761291503906 223.08201599121094 32.632301330566406 C 210.9789276123047 31.975379943847656 210.5393524169922 32.7935905456543 219.33511352539062 31.008649826049805 C 217.297119140625 21.17182731628418 216.3705596923828 14.288412094116211 221.6669921875 18.92186737060547 C 232.2274169921875 22.389205932617188 231.06997680664062 24.415340423583984 221.81227111816406 28.234088897705078"/>
    <path stroke-width="0" fill="rgb(181, 288, 222)" opacity="-0.034513146" stroke="rgb(0, 0, 0)" stroke-opacity="0.0" stroke-linecap="round" stroke-linejoin="round" d="M 106.48478698730469 371.56939697265625 C 96.95264434814453 375.50079345703125 90.09483337402344 376.4021301269531 89.22614288330078 379.25616455078125 C 83.60871124267578 375.6717529296875 77.08929443359375 379.4067687988281 75.64993286132812 368.6572265625 C 76.4918441772461 363.5433044433594 84.7071533203125 363.778564453125 91.13900756835938 357.7599182128906 C 94.67532348632812 359.6156311035156 97.1714859008789 364.1297607421875 106.48478698730469 371.56939697265625"/>
    <path stroke-width="0" fill="rgb(116, 4, 92)" opacity="0.46301" stroke="rgb(0, 0, 0)" stroke-opacity="0.0" stroke-linecap="round" stroke-linejoin="round" d="M 383.6241760253906 265.0169982910156 C 374.8700256347656 265.88922119140625 373.53765869140625 265.9744567871094 373.3343200683594 264.5430603027344 C 374.2914123535156 263.10308837890625 373.274658203125 264.6372985839844 373.01593017578125 265.4474182128906 C 379.8174133300781 263.0328674316406 380.7945861816406 260.797607421875 373.3489990234375 265.6468811035156 C 373.19476318359375 263.4111022949219 381.1454772949219 263.8282775878906 383.6241760253906 265.0169982910156"/>
    <path stroke-width="0" fill="rgb(135, 179, 145)" opacity="0.20201594" stroke="rgb(0, 0, 0)" stroke-opacity="0.0" stroke-linecap="round" stroke-linejoin="round" d="M 287.51690673828125 22.833147048950195 C 287.5059509277344 34.93877029418945 290.53326416015625 32.24789047241211 290.552734375 26.22039031982422 C 281.0997619628906 23.01731300354004 272.92608642578125 23.811084747314453 268.2472229003906 20.952735900878906 C 264.12628173828125 19.066387176513672 267.54437255859375 19.799100875854492 273.6417541503906 22.021547317504883 C 275.6689453125 26.9471492767334 283.603515625 24.35237693786621 287.51690673828125 22.833147048950195"/>
    <path stroke-width="0" fill="rgb(204, 125, 108)" opacity="0.36967587" stroke="rgb(0, 0, 0)" stroke-opacity="0.0" stroke-linecap="round" stroke-linejoin="round" d="M 457.7861022949219 316.4129638671875 C 461.18023681640625 311.50042724609375 459.7035827636719 315.6390380859375 458.10552978515625 319.2216796875 C 459.9020690917969 315.8546447753906 459.6413879394531 312.8250427246094 458.8672180175781 311.6856384277344 C 456.6302185058594 314.9297180175781 458.962646484375 315.27557373046875 456.3622131347656 316.13446044921875 C 455.70965576171875 316.6067810058594 459.2417297363281 322.46820068359375 457.7861022949219 316.4129638671875"/>
    <path stroke-width="0" fill="rgb(127, 189, 123)" opacity="0.42901713" stroke="rgb(0, 0, 0)" stroke-opacity="0.0" stroke-linecap="round" stroke-linejoin="round" d="M 133.36050415039062 161.42356872558594 C 133.26498413085938 168.05340576171875 134.72293090820312 176.93699645996094 131.14178466796875 180.1724853515625 C 130.0325164794922 168.41371154785156 130.74282836914062 161.99977111816406 130.6734619140625 164.82980346679688 C 130.7013397216797 169.84568786621094 132.15396118164062 165.80044555664062 135.64791870117188 160.95025634765625 C 132.3351593017578 160.1160888671875 135.89492797851562 161.80868530273438 133.36050415039062 161.42356872558594"/>
    <path stroke-width="0" fill="rgb(91, 121, 136)" opacity="0.14727944" stroke="rgb(0, 0, 0)" stroke-opacity="0.0" stroke-linecap="round" stroke-linejoin="round" d="M 193.96766662597656 494.167724609375 C 191.1106719970703 500.2315368652344 185.1024627685547 499.2587585449219 183.63504028320312 499.902587890625 C 176.21376037597656 496.06121826171875 166.323974609375 495.55511474609375 168.8189239501953 488.04541015625 C 172.40219116210938 486.49517822265625 174.2501220703125 483.11669921875 182.08164978027344 481.8542175292969 C 183.87228393554688 485.0462646484375 186.25242614746094 488.8490295410156 193.96766662597656 494.167724609375"/>
    <path stroke-width="0" fill="rgb(45, 210, 134)" opacity="0.044596214" stroke="rgb(0, 0, 0)" stroke-opacity="0.0" stroke-linecap="round" stroke-linejoin="round" d="M 182.00262451171875 139.46337890625 C 177.05499267578125 141.70152282714844 172.28280639648438 141.35353088378906 169.62062072753906 141.43756103515625 C 168.5825653076172 143.7266387939453 168.23309326171875 138.5085906982422 163.3231201171875 137.32427978515625 C 155.8626251220703 134.2732696533203 160.31297302246094 129.2044677734375 168.79144287109375 129.56422424316406 C 174.95645141601562 131.9563751220703 180.70361328125 132.81674194335938 182.00262451171875 139.46337890625"/>
    <path stroke-width="0" fill="rgb(118, 191, 93)" opacity="0.3467873" stroke="rgb(0, 0, 0)" stroke-opacity="0.0" stroke-linecap="round" stroke-linejoin="round" d="M 311.68499755859375 177.41146850585938 C 313.1708984375 184.71192932128906 313.611328125 187.56082153320312 312.6735534667969 184.15634155273438 C 303.4488220214844 189.1160430908203 301.1499328613281 187.34422302246094 303.87579345703125 178.52940368652344 C 305.0807189941406 177.15249633789062 303.6925048828125 173.06861877441406 311.50164794921875 169.10983276367188 C 313.26141357421875 174.77975463867188 311.8236389160156 178.0058135986328 311.68499755859375 177.41146850585938"/>
    <path stroke-width="0" fill="rgb(223, 11, 172)" opacity="0.53544265" stroke="rgb(0, 0, 0)" stroke-opacity="0.0" stroke-linecap="round" stroke-linejoin="round" d="M 276.3790283203125 405.0549621582031 C 283.1934814453125 407.9721984863281 277.55804443359375 408.2572937011719 278.2695007324219 410.2372741699219 C 275.58544921875 410.4017333984375 268.04364013671875 409.53717041015625 274.1879577636719 407.22735595703125 C 273.17559814453125 402.4388427734375 272.0890808105469 394.6932067871094 277.7177429199219 382.4014587402344 C 283.8825988769531 386.9324951171875 281.5060119628906 394.9444885253906 276.3790283203125 405.0549621582031"/>
    <path stroke-width="0" fill="rgb(185, 189, 153)" opacity="0.39303264" stroke="rgb(0, 0, 0)" stroke-opacity="0.0" stroke-linecap="round" stroke-linejoin="round" d="M 442.2241516113281 324.2685546875 C 442.1860046386719 328.85784912109375 437.6357421875 331.77862548828125 437.0860900878906 331.28912353515625 C 434.0877685546875 331.57110595703125 431.7950439453125 328.71295166015625 433.16339111328125 333.54998779296875 C 435.9888000488281 329.01226806640625 439.91119384765625 325.7779235839844 443.76751708984375 326.8404846191406 C 443.0535583496094 322.4279479980469 445.5232238769531 323.63275146484375 442.2241516113281 324.2685546875"/>
    <path stroke-width="0" fill="rgb(157, 98, 18)" opacity="0.81011844" stroke="rgb(0, 0, 0)" stroke-opacity="0.0" stroke-linecap="round" stroke-linejoin="round" d="M 1.4296234846115112 -4.969107151031494 C 2.9181249141693115 2.1312620639801025 2.022599697113037 4.254247188568115 -2.8794660568237305 5.153469085693359 C -3.5170350074768066 7.0069427490234375 -6.452382564544678 4.086506366729736 -7.523895740509033 0.08595649152994156 C -6.45209264755249 -3.9140632152557373 -3.5238893032073975 -6.84226655960083 0.4761103391647339 -7.914062976837158 C 4.4759521484375 -6.842222213745117 7.38714599609375 -3.908703327178955 1.4296234846115112 -4.969107151031494"/>
    <path stroke-width="0" fill="rgb(81, 86, 100)" opacity="0.5557726" stroke="rgb(0, 0, 0)" stroke-opacity="0.0" stroke-linecap="round" stroke-linejoin="round" d="M 92.88951110839844 350.68182373046875 C 89.17133331298828 356.7916564941406 77.67291259765625 349.88250732421875 73.09492492675781 349.1938781738281 C 79.01165008544922 348.3908386230469 70.23561096191406 350.04473876953125 56.17839050292969 344.1748046875 C 77.44286346435547 344.3804016113281 80.46306610107422 342.74847412109375 67.50108337402344 342.6407165527344 C 70.69384765625 349.3106994628906 75.32749938964844 347.9960632324219 92.88951110839844 350.68182373046875"/>
    <path stroke-width="0" fill="rgb(177, 147, 241)" opacity="0.09894374" stroke="rgb(0, 0, 0)" stroke-opacity="0.0" stroke-linecap="round" stroke-linejoin="round" d="M 206.63169860839844 405.9061584472656 C 198.15138244628906 405.42138671875 193.5855255126953 407.005859375 192.75965881347656 414.3100280761719 C 189.1436309814453 416.78656005859375 188.0506134033203 416.4762878417969 187.81488037109375 411.59857177734375 C 190.87255859375 407.1300964355469 193.44338989257812 403.5386657714844 195.43399047851562 400.9527282714844 C 204.84588623046875 401.38519287109375 208.63021850585938 401.7630310058594 206.63169860839844 405.9061584472656"/>
    <path stroke-width="0" fill="rgb(129, 115, 154)" opacity="0.020001505" stroke="rgb(0, 0, 0)" stroke-opacity="0.0" stroke-linecap="round" stroke-linejoin="round" d="M 357.0045471191406 31.892009735107422 C 360.8352355957031 41.38666915893555 358.51531982421875 44.33446502685547 349.4834289550781 41.404815673828125 C 343.75677490234375 41.94108200073242 342.2889709472656 41.564083099365234 344.4527893066406 35.10350799560547 C 349.2959899902344 30.465381622314453 349.765625 22.067277908325195 350.0014953613281 26.982498168945312 C 357.0691223144531 26.172252655029297 356.2320251464844 29.363168716430664 357.0045471191406 31.892009735107422"/>
    <path stroke-width="0" fill="rgb(142, 116, 143)" opacity="0.21983238" stroke="rgb(0, 0, 0)" stroke-opacity="0.0" stroke-linecap="round" stroke-linejoin="round" d="M 134.92086791992188 19.229158401489258 C 137.28317260742188 30.99129295349121 138.9850616455078 27.916732788085938 139.13865661621094 27.582717895507812 C 134.06790161132812 29.20104217529297 135.4285430908203 32.00967788696289 138.08230590820312 31.313169479370117 C 137.71392822265625 23.8945369720459 140.11138916015625 23.45032501220703 135.83074951171875 26.222387313842773 C 141.30906677246094 20.402467727661133 141.26490783691406 18.962759017944336 134.92086791992188 19.229158401489258"/>
    <path stroke-width="0" fill="rgb(-9, 77, 78)" opacity="0.10069731" stroke="rgb(0, 0, 0)" stroke-opacity="0.0" stroke-linecap="round" stroke-linejoin="round" d="M 172.73898315429688 430.0819396972656 C 175.54071044921875 434.75238037109375 167.25643920898438 434.5493469238281 165.1792449951172 435.9999084472656 C 156.742431640625 435.2959899902344 151.99742126464844 441.0997314453125 151.3198699951172 429.1400451660156 C 152.90176391601562 429.8026428222656 158.28941345214844 429.5838928222656 159.9708251953125 431.87786865234375 C 173.08578491210938 423.833251953125 177.0912628173828 421.41387939453125 172.73898315429688 430.0819396972656"/>
    <path stroke-width="0" fill="rgb(126, 53, 246)" opacity="-0.096470624" stroke="rgb(0, 0, 0)" stroke-opacity="0.0" stroke-linecap="round" stroke-linejoin="round" d="M 24.374401092529297 308.6819152832031 C 21.267892837524414 318.115966796875 15.70881462097168 319.24444580078125 15.1094331741333 320.27276611328125 C 11.505706787109375 314.7492370605469 9.387125015258789 313.0941467285156 7.592283725738525 313.8565979003906 C 4.8431782722473145 307.83355712890625 4.742437839508057 303.2377014160156 4.04517126083374 305.2190246582031 C 8.450672149658203 308.5724792480469 16.026878356933594 309.0295104980469 24.374401092529297 308.6819152832031"/>
    <path stroke-width="0" fill="rgb(88, 188, 30)" opacity="0.34969556" stroke="rgb(0, 0, 0)" stroke-opacity="0.0" stroke-linecap="round" stroke-linejoin="round" d="M 26.278446197509766 3.2181670665740967 C 23.723541259765625 4.027307033538818 24.94668197631836 12.721776962280273 23.88949966430664 13.631860733032227 C 17.645069122314453 11.75252628326416 17.783361434936523 8.554646492004395 11.218698501586914 6.791337966918945 C 10.236478805541992 -0.8705742955207825 14.8651762008667 -3.500258207321167 20.553752899169922 -4.440915584564209 C 27.066577911376953 -4.114591598510742 33.08704376220703 1.497160792350769 26.278446197509766 3.2181670665740967"/>
    <path stroke-width="0" fill="rgb(105, 146, 109)" opacity="0.3497853" stroke="rgb(0, 0, 0)" stroke-opacity="0.0" stroke-linecap="round" stroke-linejoin="round" d="M 20.743724822998047 7.409674167633057 C 23.717927932739258 15.180909156799316 18.885051727294922 14.873767852783203 18.58065414428711 12.994057655334473 C 17.59982681274414 23.377836227416992 11.367621421813965 18.87848472595215 13.328920364379883 13.15678882598877 C 15.828603744506836 6.74243688583374 17.229278564453125 0.6738775968551636 19.11890411376953 -4.002139091491699 C 24.25912857055664 -5.442457675933838 24.274581909179688 0.5520280003547668 20.743724822998047 7.409674167633057"/>
    <path stroke-width="0" fill="rgb(166, 233, 106)" opacity="0.05184234" stroke="rgb(0, 0, 0)" stroke-opacity="0.0" stroke-linecap="round" stroke-linejoin="round" d="M 74.17826843261719 -52.415428161621094 C 73.10647583007812 -48.415428161621094 70.17826843261719 -45.48722457885742 66.17826843261719 -44.415428161621094 C 62.17827224731445 -45.48722457885742 59.25006866455078 -48.415428161621094 58.17827224731445 -52.415428161621094 C 59.25006866455078 -56.415428161621094 62.17827224731445 -59.3436279296875 66.17826843261719 -60.415428161621094 C 70.17826843261719 -59.3436279296875 73.10647583007812 -56.415428161621094 74.17826843261719 -52.415428161621094"/>
    <path stroke-width="0" fill="rgb(93, 145, 113)" opacity="0.45170963" stroke="rgb(0, 0, 0)" stroke-opacity="0.0" stroke-linecap="round" stroke-linejoin="round" d="M 109.16488647460938 62.527835845947266 C 105.23475646972656 65.98949432373047 99.27693176269531 65.57502746582031 102.31538391113281 67.484130859375 C 100.46206665039062 64.90095520019531 97.29395294189453 60.100101470947266 93.53327941894531 61.899166107177734 C 94.78038787841797 64.64307403564453 96.80050659179688 58.11874771118164 95.24948120117188 55.71924591064453 C 98.50025939941406 59.92411422729492 103.3636474609375 61.72402572631836 109.16488647460938 62.527835845947266"/>
    <path stroke-width="0" fill="rgb(144, 155, 191)" opacity="0.11674234" stroke="rgb(0, 0, 0)" stroke-opacity="0.0" stroke-linecap="round" stroke-linejoin="round" d="M 288.9680480957031 192.7889404296875 C 287.1089782714844 207.45790100097656 284.3789367675781 207.24974060058594 273.3337097167969 207.4005889892578 C 270.12567138671875 207.1713104248047 264.2868347167969 205.8187255859375 266.5138244628906 202.2784881591797 C 271.1195068359375 193.7704620361328 268.4869689941406 187.29718017578125 269.1620178222656 192.3400115966797 C 275.95086669921875 201.21481323242188 279.09942626953125 201.67359924316406 288.9680480957031 192.7889404296875"/>
    <path stroke-width="0" fill="rgb(135, 158, 109)" opacity="0.23495518" stroke="rgb(0, 0, 0)" stroke-opacity="0.0" stroke-linecap="round" stroke-linejoin="round" d="M 152.12576293945312 22.088911056518555 C 152.5399932861328 29.322071075439453 152.9148406982422 30.784210205078125 152.6526641845703 26.122220993041992 C 148.3155975341797 26.45603370666504 143.66949462890625 23.008508682250977 132.4349365234375 21.15825653076172 C 132.75140380859375 14.266374588012695 135.9430389404297 14.372458457946777 144.200927734375 16.81037139892578 C 148.902587890625 15.075313568115234 150.36300659179688 17.412742614746094 152.12576293945312 22.088911056518555"/>
    <path stroke-width="0" fill="rgb(142, 196, 95)" opacity="0.021161957" stroke="rgb(0, 0, 0)" stroke-opacity="0.0" stroke-linecap="round" stroke-linejoin="round" d="M 223.0430908203125 62.98448181152344 C 217.64352416992188 65.97140502929688 208.6002655029297 62.618587493896484 206.8775177001953 70.7369384765625 C 205.1316375732422 74.29759216308594 204.4043731689453 67.83518981933594 204.72804260253906 61.81837844848633 C 207.57159423828125 59.883296966552734 210.88648986816406 56.60979461669922 212.28976440429688 58.281227111816406 C 213.976318359375 57.297386169433594 217.7953643798828 59.14767074584961 223.0430908203125 62.98448181152344"/>
    <path stroke-width="0" fill="rgb(118, 92, 104)" opacity="0.10239392" stroke="rgb(0, 0, 0)" stroke-opacity="0.0" stroke-linecap="round" stroke-linejoin="round" d="M 136.64834594726562 447.793212890625 C 125.63426971435547 448.5263366699219 123.74536895751953 450.0844421386719 125.20927429199219 451.30389404296875 C 127.02909088134766 449.49713134765625 131.55076599121094 443.0489501953125 118.59701538085938 449.1877136230469 C 118.408203125 443.0412902832031 118.76371002197266 441.4871826171875 124.03710174560547 439.9862976074219 C 132.6809844970703 435.18133544921875 137.2302703857422 436.11114501953125 136.64834594726562 447.793212890625"/>
    <path stroke-width="0" fill="rgb(157, 165, 205)" opacity="0.15668483" stroke="rgb(0, 0, 0)" stroke-opacity="0.0" stroke-linecap="round" stroke-linejoin="round" d="M 213.1721954345703 188.7905731201172 C 213.7326202392578 192.90457153320312 214.18580627441406 199.27896118164062 209.1446075439453 205.86849975585938 C 204.43209838867188 208.07638549804688 206.73141479492188 201.6395721435547 207.71279907226562 187.94715881347656 C 207.09378051757812 184.94053649902344 207.48231506347656 187.18527221679688 212.28204345703125 190.18528747558594 C 214.99295043945312 188.99667358398438 217.72604370117188 189.11679077148438 213.1721954345703 188.7905731201172"/>
    <path stroke-width="0" fill="rgb(232, 275, 147)" opacity="0.0020202065" stroke="rgb(0, 0, 0)" stroke-opacity="0.0" stroke-linecap="round" stroke-linejoin="round" d="M 401.6343994140625 279.4511413574219 C 402.1292724609375 286.79644775390625 403.8946838378906 289.8370666503906 396.46673583984375 287.3153381347656 C 383.8671569824219 288.9433288574219 384.93048095703125 283.8190612792969 385.8482971191406 269.1878662109375 C 392.8697814941406 271.41522216796875 395.0807800292969 273.9953308105469 400.1355285644531 271.364990234375 C 399.77142333984375 268.28924560546875 400.8918762207031 272.56451416015625 401.6343994140625 279.4511413574219"/>
    <path stroke-width="0" fill="rgb(169, 44, 133)" opacity="0.14438054" stroke="rgb(0, 0, 0)" stroke-opacity="0.0" stroke-linecap="round" stroke-linejoin="round" d="M 180.59622192382812 421.1466064453125 C 176.947509765625 426.5172424316406 180.9875030517578 426.6455383300781 179.15530395507812 423.19415283203125 C 177.05722045898438 429.961181640625 178.42640686035156 424.5245361328125 175.7647247314453 420.71331787109375 C 174.65328979492188 420.7040100097656 181.37982177734375 417.0863342285156 186.59933471679688 412.574951171875 C 188.30990600585938 415.87725830078125 189.69085693359375 418.9384765625 180.59622192382812 421.1466064453125"/>
    <path stroke-width="0" fill="rgb(207, 155, 157)" opacity="-0.0036055571" stroke="rgb(0, 0, 0)" stroke-opacity="0.0" stroke-linecap="round" stroke-linejoin="round" d="M 374.2481994628906 8.988715171813965 C 375.58746337890625 11.306675910949707 374.4891357421875 16.10294532775879 372.2212219238281 15.07736873626709 C 367.6826171875 12.366971969604492 362.81109619140625 12.211668014526367 364.2773742675781 8.335686683654785 C 363.7872009277344 4.464865684509277 368.1500244140625 3.0929784774780273 373.51898193359375 0.6142145991325378 C 372.2012023925781 -0.9981163144111633 371.739501953125 5.596303939819336 374.2481994628906 8.988715171813965"/>
    <path stroke-width="0" fill="rgb(5, 6, 83)" opacity="0.49865702" stroke="rgb(0, 0, 0)" stroke-opacity="0.0" stroke-linecap="round" stroke-linejoin="round" d="M 369.0274658203125 271.3988037109375 C 372.7708740234375 271.8501281738281 371.06158447265625 277.785400390625 363.964599609375 280.56842041015625 C 360.4844055175781 278.7049865722656 365.108154296875 272.0918884277344 367.0516662597656 267.33544921875 C 366.15313720703125 270.7441711425781 367.37615966796875 265.8639831542969 372.3880920410156 267.160888671875 C 368.82415771484375 267.4355773925781 366.9091796875 272.99114990234375 369.0274658203125 271.3988037109375"/>
  </g>
</svg>
