<?xml version="1.0" ?>
<svg xmlns="http://www.w3.org/2000/svg" version="1.1" width="512" height="512">
  <defs/>
  <g>
    <path stroke-width="0" fill="rgb(-23, 0, 6)" opacity="1.0802792" stroke="rgb(139, 182, 153)" stroke-opacity="1.0" stroke-linecap="round" stroke-linejoin="round" d="M 356.7574768066406 216.0008087158203 C 384.7537841796875 219.3848114013672 278.0679016113281 217.38043212890625 263.24969482421875 213.60604858398438 C 129.61981201171875 214.80406188964844 150.90371704101562 207.8641815185547 149.98463439941406 198.8052520751953 C 213.30099487304688 200.88233947753906 264.87664794921875 211.18299865722656 268.27984619140625 206.77073669433594 C 202.19305419921875 207.7095184326172 248.4854278564453 195.8194122314453 356.7574768066406 216.0008087158203"/>
    <path stroke-width="0" fill="rgb(84, 93, 79)" opacity="0.53872293" stroke="rgb(108, 164, 111)" stroke-opacity="1.0" stroke-linecap="round" stroke-linejoin="round" d="M 249.10597229003906 650.5423583984375 C -235.041015625 572.9984130859375 296.5917663574219 112.992919921875 177.55303955078125 422.99029541015625 C -128.66995239257812 552.8578491210938 330.7779846191406 166.26065063476562 29.050395965576172 276.3358154296875 C 117.17376708984375 669.0826416015625 -109.0311279296875 702.0001220703125 -42.07316589355469 -49.147178649902344 C 461.8636779785156 -99.12438201904297 459.4533386230469 -90.755615234375 249.10597229003906 650.5423583984375"/>
    <path stroke-width="0" fill="rgb(27, 34, 30)" opacity="1.0133731" stroke="rgb(245, 97, 201)" stroke-opacity="1.0" stroke-linecap="round" stroke-linejoin="round" d="M 782.2415771484375 371.4686584472656 C 380.8673095703125 605.5010375976562 208.2014923095703 623.8026123046875 280.6557922363281 312.88470458984375 C 192.0811309814453 345.4389953613281 436.8749694824219 548.7225341796875 498.0059509277344 374.52386474609375 C 527.9738159179688 135.8302764892578 136.73719787597656 381.8121032714844 257.0101318359375 -24.076356887817383 C 449.6614074707031 -97.54769134521484 769.5654296875 -107.06083679199219 782.2415771484375 371.4686584472656"/>
    <path stroke-width="0" fill="rgb(-13, 3, 13)" opacity="0.98893493" stroke="rgb(144, 236, 18)" stroke-opacity="1.0" stroke-linecap="round" stroke-linejoin="round" d="M 421.1424560546875 343.30877685546875 C 400.9373779296875 346.9891052246094 409.29302978515625 578.6078491210938 408.7649230957031 364.26959228515625 C 240.3197784423828 360.6697692871094 247.8450927734375 325.12469482421875 329.9322204589844 347.64678955078125 C 436.73663330078125 333.0081481933594 393.31793212890625 378.0304260253906 320.295166015625 163.5330810546875 C 413.39508056640625 343.3196716308594 408.0136413574219 342.5955505371094 421.1424560546875 343.30877685546875"/>
    <path stroke-width="0" fill="rgb(1, 3, -1)" opacity="1.0023764" stroke="rgb(5, 212, 198)" stroke-opacity="1.0" stroke-linecap="round" stroke-linejoin="round" d="M 195.97340393066406 144.44017028808594 C 192.4102783203125 172.74462890625 159.0030975341797 170.4524383544922 166.66961669921875 137.83428955078125 C 132.11941528320312 284.460693359375 168.4185333251953 219.9149627685547 168.26901245117188 151.50213623046875 C 188.25723266601562 173.4113311767578 139.24240112304688 112.0267562866211 145.72154235839844 174.2154083251953 C 177.76942443847656 265.3883361816406 111.81993103027344 112.39714050292969 195.97340393066406 144.44017028808594"/>
    <path stroke-width="0" fill="rgb(256, 255, 252)" opacity="1.0425117" stroke="rgb(249, 203, 117)" stroke-opacity="1.0" stroke-linecap="round" stroke-linejoin="round" d="M 139.7506103515625 273.9188232421875 C 214.92062377929688 298.46826171875 163.771728515625 302.3006591796875 131.69696044921875 333.28680419921875 C 146.88876342773438 289.7180480957031 167.77325439453125 272.06756591796875 153.99453735351562 292.39080810546875 C 159.29908752441406 294.9680480957031 174.57254028320312 295.7683410644531 161.20556640625 286.5752868652344 C 132.9862060546875 273.3231201171875 148.28668212890625 280.3052062988281 139.7506103515625 273.9188232421875"/>
    <path stroke-width="0" fill="rgb(261, 260, 256)" opacity="0.99033755" stroke="rgb(30, 163, 36)" stroke-opacity="1.0" stroke-linecap="round" stroke-linejoin="round" d="M 152.001708984375 319.8639221191406 C 172.4665069580078 262.3055114746094 246.78379821777344 349.21844482421875 149.97021484375 317.47802734375 C 120.89502716064453 343.47705078125 94.7994613647461 355.0904541015625 119.66123962402344 336.4238586425781 C 157.1474609375 279.7481384277344 120.66791534423828 243.2270965576172 174.05078125 289.43048095703125 C 178.04380798339844 311.88031005859375 181.0795440673828 294.50958251953125 152.001708984375 319.8639221191406"/>
    <path stroke-width="0" fill="rgb(0, 3, 0)" opacity="0.99067956" stroke="rgb(133, 105, 67)" stroke-opacity="1.0" stroke-linecap="round" stroke-linejoin="round" d="M 132.01742553710938 440.7232360839844 C 138.61305236816406 473.89373779296875 -20.53217887878418 451.85491943359375 11.554576873779297 337.77349853515625 C 12.425729751586914 477.8553771972656 158.60635375976562 440.0285949707031 132.20970153808594 440.1941223144531 C 109.0699234008789 482.505615234375 299.59637451171875 378.6480407714844 146.58799743652344 249.7607421875 C 286.90045166015625 413.7861633300781 76.3093490600586 464.9817810058594 132.01742553710938 440.7232360839844"/>
    <path stroke-width="0" fill="rgb(3, 0, 3)" opacity="0.9946282" stroke="rgb(116, 144, 4)" stroke-opacity="1.0" stroke-linecap="round" stroke-linejoin="round" d="M 12.56712532043457 391.2995910644531 C -19.692140579223633 342.68359375 -18.672706604003906 368.875244140625 -26.10035514831543 336.8692321777344 C -8.465991973876953 377.36370849609375 -83.87321472167969 415.2097473144531 26.91286849975586 365.0964050292969 C -24.61810874938965 426.97607421875 -7.0514702796936035 189.2245330810547 163.27993774414062 262.7052307128906 C -59.91477584838867 209.50701904296875 35.26788330078125 501.0118103027344 12.56712532043457 391.2995910644531"/>
    <path stroke-width="0" fill="rgb(266, 258, 259)" opacity="0.9875049" stroke="rgb(156, 157, 240)" stroke-opacity="1.0" stroke-linecap="round" stroke-linejoin="round" d="M 359.7266540527344 281.81512451171875 C 331.8516845703125 380.0615234375 385.1998596191406 322.6468200683594 299.9873046875 353.2850036621094 C 308.65191650390625 322.914794921875 327.0437927246094 282.8597412109375 337.6770324707031 286.8962707519531 C 322.0045166015625 269.54913330078125 312.9263916015625 307.0347595214844 357.83544921875 316.4909362792969 C 271.02874755859375 285.4685974121094 384.7823181152344 247.617919921875 359.7266540527344 281.81512451171875"/>
    <path stroke-width="0" fill="rgb(-10, 1, 12)" opacity="0.99704695" stroke="rgb(91, 111, 177)" stroke-opacity="1.0" stroke-linecap="round" stroke-linejoin="round" d="M 123.236572265625 308.8123779296875 C 123.99808502197266 299.9371643066406 104.74614715576172 353.41033935546875 124.37285614013672 326.2188415527344 C 112.64014434814453 336.87152099609375 155.148681640625 162.59420776367188 175.87411499023438 145.97003173828125 C 129.05789184570312 332.8119201660156 129.37750244140625 330.9206237792969 120.32675170898438 315.4095764160156 C 135.43247985839844 285.4032897949219 119.46055603027344 294.02740478515625 123.236572265625 308.8123779296875"/>
    <path stroke-width="0" fill="rgb(-1, 0, 0)" opacity="0.99940145" stroke="rgb(170, 171, 53)" stroke-opacity="1.0" stroke-linecap="round" stroke-linejoin="round" d="M 131.2047119140625 287.3238525390625 C 98.03125762939453 410.14581298828125 123.25428771972656 283.9205322265625 102.16102600097656 397.8399963378906 C 111.89895629882812 310.66839599609375 95.04536437988281 404.8142395019531 97.60413360595703 337.480712890625 C 83.89993286132812 323.66082763671875 133.40731811523438 393.0329895019531 57.93524169921875 248.2976531982422 C 121.63357543945312 346.5280456542969 85.39246368408203 373.8387756347656 131.2047119140625 287.3238525390625"/>
    <path stroke-width="0" fill="rgb(2, 1, 9)" opacity="0.97820264" stroke="rgb(80, 92, 145)" stroke-opacity="1.0" stroke-linecap="round" stroke-linejoin="round" d="M 298.61846923828125 296.1104431152344 C 293.1314392089844 285.4875793457031 291.7491455078125 299.4649963378906 265.24786376953125 307.1822509765625 C 305.6915283203125 179.10678100585938 256.8470458984375 457.9256286621094 389.5110778808594 444.3412170410156 C 240.44662475585938 402.8203430175781 323.5505065917969 181.440185546875 484.42584228515625 282.1246643066406 C 352.552734375 154.95748901367188 274.7755126953125 387.6407470703125 298.61846923828125 296.1104431152344"/>
    <path stroke-width="0" fill="rgb(181, 187, 183)" opacity="0.98045015" stroke="rgb(252, 26, 53)" stroke-opacity="1.0" stroke-linecap="round" stroke-linejoin="round" d="M 392.91363525390625 206.77392578125 C 293.57220458984375 215.9088897705078 298.2023010253906 222.31436157226562 375.92864990234375 211.55322265625 C 239.18910217285156 203.2718963623047 185.9462432861328 195.27728271484375 158.71726989746094 200.33599853515625 C 238.65623474121094 129.8990478515625 147.0361328125 17.016157150268555 423.3112487792969 104.5679702758789 C 449.5881652832031 224.14620971679688 269.0230712890625 107.7970962524414 392.91363525390625 206.77392578125"/>
    <path stroke-width="0" fill="rgb(181, 176, 166)" opacity="0.85095495" stroke="rgb(166, 64, 118)" stroke-opacity="1.0" stroke-linecap="round" stroke-linejoin="round" d="M 330.15753173828125 242.8043670654297 C 288.6885681152344 284.7666015625 279.97589111328125 325.74639892578125 237.0704345703125 356.00732421875 C 219.4828643798828 347.7046203613281 217.3116455078125 335.16790771484375 229.716064453125 258.86444091796875 C 225.10739135742188 227.24072265625 225.05055236816406 209.8418426513672 273.2744445800781 215.96810913085938 C 354.8883056640625 217.04408264160156 336.7500305175781 211.5504150390625 330.15753173828125 242.8043670654297"/>
    <path stroke-width="0" fill="rgb(56, 104, 175)" opacity="0.8992585" stroke="rgb(40, 28, 167)" stroke-opacity="1.0" stroke-linecap="round" stroke-linejoin="round" d="M 315.7666015625 265.04742431640625 C 312.9862365722656 264.3828125 314.9061279296875 273.9256591796875 305.85589599609375 275.8621520996094 C 325.9026794433594 269.7840270996094 334.27301025390625 262.17724609375 325.10711669921875 253.0081024169922 C 327.4063720703125 249.63841247558594 322.25885009765625 219.66839599609375 310.22259521484375 271.4696960449219 C 266.8239440917969 325.654296875 338.307373046875 310.3161926269531 315.7666015625 265.04742431640625"/>
    <path stroke-width="0" fill="rgb(178, 173, 168)" opacity="0.8302031" stroke="rgb(50, 94, 209)" stroke-opacity="1.0" stroke-linecap="round" stroke-linejoin="round" d="M 444.40301513671875 453.9601745605469 C 432.3548583984375 475.42327880859375 241.75819396972656 480.4771423339844 426.3926086425781 469.5208740234375 C 146.8858184814453 632.8242797851562 351.6775817871094 313.1385192871094 199.58013916015625 383.8465270996094 C 225.2434844970703 290.2561950683594 135.51260375976562 256.7120666503906 203.0768280029297 300.87017822265625 C 332.6908264160156 358.24853515625 288.8027648925781 461.96636962890625 444.40301513671875 453.9601745605469"/>
    <path stroke-width="0" fill="rgb(-6, -3, 16)" opacity="0.9767487" stroke="rgb(213, 24, 248)" stroke-opacity="1.0" stroke-linecap="round" stroke-linejoin="round" d="M 256.203857421875 270.02374267578125 C 231.473876953125 187.76351928710938 131.43495178222656 225.26683044433594 154.38356018066406 197.72059631347656 C 338.4245910644531 211.7266845703125 354.8124694824219 192.36444091796875 260.5128173828125 216.80999755859375 C 283.242431640625 220.1446990966797 352.6103210449219 256.3946228027344 343.6854553222656 205.27432250976562 C 256.2903137207031 197.05764770507812 257.7624816894531 246.91993713378906 256.203857421875 270.02374267578125"/>
    <path stroke-width="0" fill="rgb(24, 77, 160)" opacity="0.8050403" stroke="rgb(249, 154, 188)" stroke-opacity="1.0" stroke-linecap="round" stroke-linejoin="round" d="M 326.4205322265625 229.73646545410156 C 256.4326477050781 295.2973327636719 205.5160369873047 284.0188903808594 235.3009490966797 268.2659912109375 C 214.11827087402344 278.23065185546875 206.73294067382812 282.22711181640625 192.0109100341797 249.921630859375 C 142.7229461669922 276.36614990234375 146.597412109375 197.7275848388672 175.07675170898438 217.3553009033203 C 265.7309875488281 212.18397521972656 314.6136474609375 212.50599670410156 326.4205322265625 229.73646545410156"/>
    <path stroke-width="0" fill="rgb(3, -4, 0)" opacity="0.3258258" stroke="rgb(72, 30, 75)" stroke-opacity="1.0" stroke-linecap="round" stroke-linejoin="round" d="M 212.91941833496094 28.225292205810547 C -30.289033889770508 149.40863037109375 112.60004425048828 177.81695556640625 1.175247311592102 348.0718078613281 C -91.50006103515625 156.17527770996094 -36.26777648925781 116.59616088867188 -31.709943771362305 36.69902801513672 C -31.88047218322754 10.4307222366333 -24.965839385986328 4.1932501792907715 11.939438819885254 -3.800295114517212 C 86.01246643066406 -1.8715534210205078 168.85804748535156 -68.22240447998047 212.91941833496094 28.225292205810547"/>
    <path stroke-width="0" fill="rgb(121, 126, 129)" opacity="0.7327943" stroke="rgb(81, 105, 16)" stroke-opacity="1.0" stroke-linecap="round" stroke-linejoin="round" d="M 289.3992919921875 50.04087829589844 C 4.319096565246582 88.47895812988281 167.88607788085938 229.96670532226562 27.514963150024414 273.9702453613281 C 6.1396307945251465 75.03440856933594 168.97518920898438 26.560836791992188 196.9679412841797 19.71807861328125 C 47.393402099609375 19.612205505371094 89.03448486328125 -60.8135871887207 132.1599884033203 -87.55677032470703 C 156.85772705078125 -111.5304946899414 202.79727172851562 -175.13909912109375 289.3992919921875 50.04087829589844"/>
    <path stroke-width="0" fill="rgb(185, 181, 181)" opacity="0.7331909" stroke="rgb(144, 67, 133)" stroke-opacity="1.0" stroke-linecap="round" stroke-linejoin="round" d="M 329.9135437011719 -19.4531307220459 C 288.3244934082031 213.49105834960938 207.3506622314453 173.5584259033203 219.51922607421875 188.88571166992188 C 151.42691040039062 199.39324951171875 156.91281127929688 219.2398681640625 172.65744018554688 162.61935424804688 C 271.9325256347656 171.26002502441406 167.77210998535156 77.6924819946289 96.82769012451172 214.6558837890625 C 186.533447265625 12.81455135345459 347.4570617675781 25.991676330566406 329.9135437011719 -19.4531307220459"/>
    <path stroke-width="0" fill="rgb(31, 97, 181)" opacity="1.0134091" stroke="rgb(146, 236, 81)" stroke-opacity="1.0" stroke-linecap="round" stroke-linejoin="round" d="M 390.4505615234375 349.87176513671875 C 409.73541259765625 388.4189758300781 324.3132629394531 347.39776611328125 239.9811248779297 406.7613525390625 C 341.89678955078125 340.49267578125 263.9132385253906 432.9163818359375 202.9711151123047 314.109619140625 C 128.66552734375 189.45062255859375 99.33013153076172 258.922119140625 332.79656982421875 220.2781982421875 C 303.3294677734375 395.60162353515625 255.03292846679688 355.5137939453125 390.4505615234375 349.87176513671875"/>
    <path stroke-width="0" fill="rgb(182, 193, 191)" opacity="0.97924244" stroke="rgb(33, 182, 73)" stroke-opacity="1.0" stroke-linecap="round" stroke-linejoin="round" d="M 308.6059875488281 281.2858581542969 C 271.8760681152344 374.02679443359375 310.52862548828125 307.3035888671875 254.67251586914062 335.14471435546875 C 231.49745178222656 303.8460693359375 208.58604431152344 271.2484130859375 172.76318359375 231.6020965576172 C 155.265380859375 206.6766357421875 121.28894805908203 215.1521759033203 269.9954528808594 213.678466796875 C 363.61083984375 222.78990173339844 335.393310546875 191.74603271484375 308.6059875488281 281.2858581542969"/>
    <path stroke-width="0" fill="rgb(142, 151, 144)" opacity="0.53683" stroke="rgb(149, 5, 211)" stroke-opacity="1.0" stroke-linecap="round" stroke-linejoin="round" d="M 518.1970825195312 350.71722412109375 C 411.16644287109375 140.83956909179688 378.3944396972656 217.4381866455078 380.7881164550781 227.9458465576172 C 301.8465576171875 101.95591735839844 265.5484924316406 57.287960052490234 107.60102081298828 144.58001708984375 C 172.11117553710938 -1.7064061164855957 213.87686157226562 52.748207092285156 293.6252136230469 -32.77848815917969 C 493.5559387207031 -48.494998931884766 596.8359985351562 -59.310951232910156 518.1970825195312 350.71722412109375"/>
    <path stroke-width="0" fill="rgb(179, 177, 167)" opacity="0.99312556" stroke="rgb(172, 68, 187)" stroke-opacity="1.0" stroke-linecap="round" stroke-linejoin="round" d="M 476.30450439453125 274.1429443359375 C 514.8977661132812 300.37298583984375 445.723388671875 223.0178680419922 366.5614013671875 254.25096130371094 C 348.3904113769531 215.829345703125 321.3922119140625 193.8815460205078 360.8300476074219 160.91099548339844 C 253.0929718017578 131.2294921875 268.3939514160156 167.23690795898438 370.1443786621094 179.50308227539062 C 490.0286865234375 101.9919204711914 479.6441955566406 159.7534942626953 476.30450439453125 274.1429443359375"/>
    <path stroke-width="0" fill="rgb(-8, 3, -3)" opacity="1.0163288" stroke="rgb(63, 146, 150)" stroke-opacity="1.0" stroke-linecap="round" stroke-linejoin="round" d="M 311.42608642578125 273.49676513671875 C 342.72479248046875 172.0438690185547 355.707275390625 183.10855102539062 324.48394775390625 263.780029296875 C 322.8868713378906 264.8590393066406 327.6934814453125 255.3114013671875 325.2107849121094 261.0223388671875 C 325.997314453125 257.6263427734375 325.9924011230469 266.6291809082031 322.8948059082031 262.4749755859375 C 327.5855712890625 263.58563232421875 319.64593505859375 288.0983581542969 311.42608642578125 273.49676513671875"/>
    <path stroke-width="0" fill="rgb(90, 94, 89)" opacity="0.7419946" stroke="rgb(56, 242, 114)" stroke-opacity="1.0" stroke-linecap="round" stroke-linejoin="round" d="M 14.017646789550781 163.92015075683594 C -10.946741104125977 348.055419921875 18.148399353027344 83.07403564453125 -24.15226173400879 67.93862915039062 C -33.61650848388672 65.88433074951172 -35.86575698852539 55.43598556518555 -32.79597473144531 39.28541946411133 C -0.7914336919784546 -13.143448829650879 19.075258255004883 -48.477718353271484 267.9240417480469 17.79015350341797 C 237.90347290039062 78.73320007324219 141.7592315673828 -91.26657104492188 14.017646789550781 163.92015075683594"/>
    <path stroke-width="0" fill="rgb(-3, -2, 7)" opacity="0.99878085" stroke="rgb(178, 75, 207)" stroke-opacity="1.0" stroke-linecap="round" stroke-linejoin="round" d="M 484.62725830078125 449.80462646484375 C 536.6991577148438 268.1012878417969 441.9259338378906 280.1070556640625 465.8092956542969 261.789306640625 C 522.3575439453125 307.9368591308594 498.4803771972656 336.1557312011719 508.3490295410156 314.60772705078125 C 509.8675231933594 404.11529541015625 503.04443359375 410.433349609375 496.5287170410156 370.8212890625 C 497.2913513183594 463.4101867675781 301.0511474609375 456.7935791015625 484.62725830078125 449.80462646484375"/>
    <path stroke-width="0" fill="rgb(70, 73, 63)" opacity="0.84637946" stroke="rgb(224, 148, 224)" stroke-opacity="1.0" stroke-linecap="round" stroke-linejoin="round" d="M 61.196659088134766 480.31671142578125 C 25.96845817565918 417.5581970214844 42.87192153930664 447.5640563964844 56.80898666381836 540.5399780273438 C -19.242712020874023 505.88726806640625 -11.539850234985352 480.62603759765625 -10.711276054382324 440.0195007324219 C -33.01291275024414 414.1160888671875 -26.157522201538086 417.9567565917969 1.1909987926483154 430.489990234375 C 40.59609603881836 442.3118896484375 30.935483932495117 450.3309326171875 61.196659088134766 480.31671142578125"/>
    <path stroke-width="0" fill="rgb(70, 83, 73)" opacity="0.76719403" stroke="rgb(184, 127, 243)" stroke-opacity="1.0" stroke-linecap="round" stroke-linejoin="round" d="M 127.72805786132812 455.4952392578125 C 74.04375457763672 460.07427978515625 69.13787078857422 486.6525573730469 57.07304382324219 493.78387451171875 C 10.845930099487305 491.3980407714844 69.28565979003906 436.46575927734375 -15.380285263061523 433.38140869140625 C -13.020670890808105 397.5890197753906 -16.848112106323242 379.6319885253906 5.230027675628662 376.2010192871094 C 19.360719680786133 428.33343505859375 65.51956176757812 459.3714599609375 127.72805786132812 455.4952392578125"/>
    <path stroke-width="0" fill="rgb(136, 131, 113)" opacity="0.9437423" stroke="rgb(108, 154, 4)" stroke-opacity="1.0" stroke-linecap="round" stroke-linejoin="round" d="M 98.00859832763672 364.4822998046875 C 81.15580749511719 395.8399658203125 59.852664947509766 440.0173034667969 67.0503158569336 426.5810852050781 C 65.29795837402344 435.36431884765625 42.30147171020508 406.5699157714844 28.31769371032715 390.4406433105469 C -7.429335117340088 318.1693115234375 27.405426025390625 356.6138610839844 101.3829574584961 340.2517395019531 C 94.35507202148438 358.1744689941406 51.0433349609375 412.97186279296875 98.00859832763672 364.4822998046875"/>
    <path stroke-width="0" fill="rgb(92, 102, 102)" opacity="0.74810344" stroke="rgb(168, 73, 157)" stroke-opacity="1.0" stroke-linecap="round" stroke-linejoin="round" d="M 168.85130310058594 438.8872375488281 C 301.6987609863281 503.63616943359375 187.3929901123047 548.9113159179688 24.73571014404297 545.3172607421875 C 11.251142501831055 543.2071533203125 3.708277463912964 537.02392578125 7.464663028717041 530.5662841796875 C 29.6900691986084 461.4822082519531 29.564273834228516 449.34100341796875 35.3253288269043 458.5164794921875 C 119.15279388427734 464.3157958984375 144.3870391845703 441.3420715332031 168.85130310058594 438.8872375488281"/>
    <path stroke-width="0" fill="rgb(-3, 5, 2)" opacity="0.934232" stroke="rgb(34, 76, 145)" stroke-opacity="1.0" stroke-linecap="round" stroke-linejoin="round" d="M 170.9777069091797 139.82180786132812 C 161.4750518798828 150.4020538330078 155.09091186523438 147.82980346679688 189.78060913085938 144.55210876464844 C 190.956298828125 143.6424102783203 176.13063049316406 144.2265167236328 151.7235107421875 147.8061065673828 C 186.99964904785156 148.08822631835938 194.85914611816406 145.43338012695312 160.84730529785156 165.559326171875 C 158.51995849609375 157.38192749023438 144.67813110351562 162.88035583496094 170.9777069091797 139.82180786132812"/>
    <path stroke-width="0" fill="rgb(85, 93, 78)" opacity="0.9153241" stroke="rgb(146, 166, 166)" stroke-opacity="1.0" stroke-linecap="round" stroke-linejoin="round" d="M 61.44197463989258 525.5297241210938 C 47.256099700927734 539.38818359375 38.75363540649414 545.7471313476562 27.42095375061035 546.61962890625 C -6.0 521.3204956054688 -13.320508003234863 514.0 -38.80848693847656 480.6268615722656 C -40.54057693481445 466.5003356933594 -38.61910629272461 451.0874938964844 7.053826808929443 390.7019348144531 C 60.263614654541016 481.3287048339844 132.85140991210938 479.4942932128906 61.44197463989258 525.5297241210938"/>
    <path stroke-width="0" fill="rgb(116, 120, 126)" opacity="0.88174397" stroke="rgb(182, 254, 38)" stroke-opacity="1.0" stroke-linecap="round" stroke-linejoin="round" d="M 520.2500610351562 375.74444580078125 C 583.8010864257812 358.1766357421875 478.8765563964844 266.2720947265625 429.26025390625 238.41744995117188 C 469.04302978515625 149.0358123779297 319.18817138671875 40.19253158569336 248.76869201660156 86.57557678222656 C 62.82746887207031 -11.230770111083984 317.16448974609375 -35.642417907714844 372.8686828613281 1.116315484046936 C 425.2283935546875 6.105627059936523 550.8779907226562 8.265186309814453 520.2500610351562 375.74444580078125"/>
    <path stroke-width="0" fill="rgb(86, 86, 85)" opacity="0.5922393" stroke="rgb(41, 156, 31)" stroke-opacity="1.0" stroke-linecap="round" stroke-linejoin="round" d="M 103.14842987060547 482.97808837890625 C 158.1489715576172 504.7179260253906 68.66963958740234 517.28759765625 67.68489837646484 519.6796875 C 52.87519073486328 490.90545654296875 56.18683624267578 431.44415283203125 72.6410140991211 485.9968566894531 C -2.621123790740967 406.7732849121094 -9.53084945678711 409.7132873535156 30.06542205810547 447.26068115234375 C 77.85429382324219 453.8796081542969 79.60343933105469 466.8884582519531 103.14842987060547 482.97808837890625"/>
    <path stroke-width="0" fill="rgb(85, 91, 90)" opacity="0.6726262" stroke="rgb(205, 145, 103)" stroke-opacity="1.0" stroke-linecap="round" stroke-linejoin="round" d="M 67.58950805664062 449.65948486328125 C 183.8026580810547 492.3523864746094 208.46546936035156 534.589599609375 55.17157745361328 504.42352294921875 C -32.780784606933594 448.6286926269531 -37.6417350769043 392.5904846191406 72.63859558105469 502.5374450683594 C -30.239089965820312 438.78662109375 -21.661035537719727 444.06536865234375 22.155746459960938 437.18463134765625 C 11.219415664672852 382.44097900390625 18.345582962036133 424.765380859375 67.58950805664062 449.65948486328125"/>
    <path stroke-width="0" fill="rgb(87, 89, 81)" opacity="0.69874257" stroke="rgb(177, 115, 184)" stroke-opacity="1.0" stroke-linecap="round" stroke-linejoin="round" d="M 97.41938018798828 497.6872253417969 C 66.2830810546875 530.3163452148438 57.902626037597656 537.0244750976562 65.99160766601562 530.0078125 C 22.416372299194336 481.87445068359375 -43.94486618041992 493.8432312011719 -56.57990646362305 497.96551513671875 C -1.0405356884002686 455.7156066894531 -11.923786163330078 460.8006896972656 -21.315292358398438 447.5960998535156 C 27.96526336669922 434.4901123046875 30.802019119262695 469.489013671875 97.41938018798828 497.6872253417969"/>
    <path stroke-width="0" fill="rgb(260, 11, 33)" opacity="0.77242345" stroke="rgb(248, 218, 2)" stroke-opacity="1.0" stroke-linecap="round" stroke-linejoin="round" d="M 364.1458740234375 171.9884033203125 C 344.7803955078125 181.13290405273438 349.5970764160156 174.0608367919922 324.834716796875 159.2886505126953 C 331.4485168457031 175.035400390625 311.4170227050781 148.31500244140625 335.3033447265625 167.78965759277344 C 372.3554992675781 191.93370056152344 348.494384765625 153.81546020507812 338.44775390625 204.4390106201172 C 349.59130859375 221.9997100830078 348.6440124511719 174.8727264404297 364.1458740234375 171.9884033203125"/>
    <path stroke-width="0" fill="rgb(-4, -1, 15)" opacity="0.97370374" stroke="rgb(186, 43, 132)" stroke-opacity="1.0" stroke-linecap="round" stroke-linejoin="round" d="M 181.068603515625 301.9463806152344 C 192.07533264160156 263.64239501953125 116.39773559570312 250.544677734375 148.3534393310547 245.16575622558594 C 158.64588928222656 261.4867248535156 136.55032348632812 236.9600067138672 140.15545654296875 255.0660400390625 C 139.1231689453125 249.90164184570312 192.29627990722656 247.33578491210938 85.4022216796875 257.91986083984375 C 123.81585693359375 254.51356506347656 166.06968688964844 269.6886291503906 181.068603515625 301.9463806152344"/>
    <path stroke-width="0" fill="rgb(114, 115, 117)" opacity="0.61839044" stroke="rgb(50, 4, 202)" stroke-opacity="1.0" stroke-linecap="round" stroke-linejoin="round" d="M 245.8253936767578 454.93505859375 C 232.1777801513672 574.943115234375 137.3273162841797 552.4457397460938 161.04710388183594 561.5624389648438 C 219.92759704589844 472.04608154296875 147.50030517578125 405.3548889160156 132.6488800048828 478.3350830078125 C 58.212772369384766 446.6020202636719 98.77326965332031 483.6432189941406 77.6748275756836 449.4363098144531 C 161.8040771484375 471.2090148925781 143.15957641601562 401.7152099609375 245.8253936767578 454.93505859375"/>
    <path stroke-width="0" fill="rgb(257, 257, 256)" opacity="0.9105985" stroke="rgb(88, 236, 179)" stroke-opacity="1.0" stroke-linecap="round" stroke-linejoin="round" d="M 90.04434967041016 359.3421936035156 C 115.47286224365234 388.6697692871094 6.519465923309326 399.44317626953125 27.103946685791016 389.92498779296875 C 88.36714935302734 402.6689758300781 110.28207397460938 333.13720703125 59.83777618408203 436.309814453125 C 32.43733215332031 377.95562744140625 8.31398868560791 403.01934814453125 77.73594665527344 372.277099609375 C 0.11890749633312225 405.6392822265625 21.17312240600586 390.40802001953125 90.04434967041016 359.3421936035156"/>
    <path stroke-width="0" fill="rgb(119, 120, 124)" opacity="0.42419422" stroke="rgb(41, 158, 147)" stroke-opacity="1.0" stroke-linecap="round" stroke-linejoin="round" d="M 380.0023498535156 8.29671573638916 C 184.1533203125 -13.493548393249512 270.145263671875 100.50233459472656 515.9989624023438 109.48651885986328 C 504.02044677734375 -82.11641693115234 49.61405563354492 -55.5888557434082 -4.336336135864258 281.2173156738281 C -42.30589294433594 -40.43251419067383 310.38067626953125 -45.023765563964844 299.40093994140625 -23.186599731445312 C 396.99664306640625 0.22529186308383942 411.7372741699219 15.277546882629395 380.0023498535156 8.29671573638916"/>
    <path stroke-width="0" fill="rgb(158, 164, 163)" opacity="0.6068271" stroke="rgb(238, 156, 136)" stroke-opacity="1.0" stroke-linecap="round" stroke-linejoin="round" d="M 449.2868347167969 254.5924835205078 C 330.8439025878906 220.46348571777344 437.54058837890625 3.9283249378204346 429.4850158691406 124.03080749511719 C 110.03235626220703 158.84571838378906 181.0430450439453 76.00617980957031 81.30033111572266 251.7611083984375 C -11.823863983154297 75.67706298828125 458.492919921875 4.394887447357178 319.0150146484375 43.10679244995117 C 302.5627136230469 9.30170726776123 526.0564575195312 30.300186157226562 449.2868347167969 254.5924835205078"/>
    <path stroke-width="0" fill="rgb(92, 101, 104)" opacity="0.94194204" stroke="rgb(186, 79, 101)" stroke-opacity="1.0" stroke-linecap="round" stroke-linejoin="round" d="M 545.4334716796875 323.26470947265625 C 547.3452758789062 544.0161743164062 540.02099609375 551.331298828125 442.27313232421875 579.9818115234375 C 290.6298522949219 689.1488037109375 224.14622497558594 741.32958984375 219.68031311035156 473.7563171386719 C 348.0509033203125 408.4919128417969 426.4625244140625 502.59698486328125 494.6787414550781 401.195556640625 C 550.775390625 282.44097900390625 402.03515625 230.788330078125 545.4334716796875 323.26470947265625"/>
    <path stroke-width="0" fill="rgb(81, 118, 79)" opacity="0.31232774" stroke="rgb(47, 240, 188)" stroke-opacity="1.0" stroke-linecap="round" stroke-linejoin="round" d="M 404.20806884765625 301.5154724121094 C 401.7583312988281 294.7412414550781 408.5392150878906 271.7123718261719 401.5713806152344 333.3123779296875 C 405.14935302734375 250.21949768066406 398.30230712890625 275.102294921875 404.680908203125 289.9388732910156 C 401.2978210449219 281.1748352050781 401.73431396484375 249.85562133789062 400.8553466796875 254.83529663085938 C 402.44097900390625 240.4643096923828 402.83538818359375 302.188232421875 404.20806884765625 301.5154724121094"/>
    <path stroke-width="0" fill="rgb(89, 95, 90)" opacity="0.30708438" stroke="rgb(57, 64, 14)" stroke-opacity="1.0" stroke-linecap="round" stroke-linejoin="round" d="M 142.7126007080078 462.9254455566406 C 244.81436157226562 509.3494567871094 151.67747497558594 504.4885559082031 53.58428192138672 542.579345703125 C 42.44731140136719 537.2024536132812 37.819068908691406 530.1972045898438 93.95085144042969 515.41015625 C -87.07605743408203 408.4173583984375 5.939902305603027 430.9140930175781 79.1175537109375 490.699951171875 C 12.384722709655762 406.8280029296875 29.64764404296875 449.32171630859375 142.7126007080078 462.9254455566406"/>
    <path stroke-width="0" fill="rgb(241, 19, 14)" opacity="0.99608684" stroke="rgb(79, 177, 96)" stroke-opacity="1.0" stroke-linecap="round" stroke-linejoin="round" d="M 163.65939331054688 151.95982360839844 C 183.83432006835938 151.15554809570312 167.52902221679688 147.82537841796875 165.77978515625 157.51954650878906 C 166.4199676513672 151.09805297851562 178.37254333496094 148.822265625 165.43556213378906 152.24530029296875 C 178.69537353515625 148.67063903808594 202.83303833007812 156.51426696777344 192.9494171142578 140.05494689941406 C 126.82884979248047 133.13912963867188 140.7688751220703 181.39773559570312 163.65939331054688 151.95982360839844"/>
    <path stroke-width="0" fill="rgb(88, 89, 86)" opacity="0.86708415" stroke="rgb(6, 17, 173)" stroke-opacity="1.0" stroke-linecap="round" stroke-linejoin="round" d="M 16.680465698242188 434.4462890625 C 28.561256408691406 442.05194091796875 33.68242263793945 437.6667785644531 -63.37234878540039 452.0724182128906 C -25.437917709350586 456.98138427734375 -32.49625015258789 449.58746337890625 -45.60737609863281 424.22027587890625 C -70.31465148925781 352.2030334472656 -51.31205368041992 352.5863037109375 3.722062587738037 361.4435119628906 C 16.48162078857422 419.5426330566406 31.83529281616211 434.2726745605469 16.680465698242188 434.4462890625"/>
    <path stroke-width="0" fill="rgb(142, 148, 148)" opacity="0.5561847" stroke="rgb(136, 228, 252)" stroke-opacity="1.0" stroke-linecap="round" stroke-linejoin="round" d="M 452.8554382324219 231.21829223632812 C 411.9327392578125 323.3465270996094 449.8706970214844 69.37641143798828 261.7773132324219 89.71343231201172 C 255.06410217285156 91.40605163574219 249.834716796875 32.69259262084961 69.7217025756836 162.57066345214844 C 151.83114624023438 23.203821182250977 314.71295166015625 20.783580780029297 366.3864440917969 -6.346107006072998 C 273.2261657714844 38.9334602355957 427.91070556640625 27.756134033203125 452.8554382324219 231.21829223632812"/>
    <path stroke-width="0" fill="rgb(134, 137, 136)" opacity="0.57380074" stroke="rgb(169, 67, 5)" stroke-opacity="1.0" stroke-linecap="round" stroke-linejoin="round" d="M 384.63104248046875 452.5554504394531 C 262.45599365234375 556.737060546875 126.23384857177734 389.7763366699219 104.5870590209961 610.7190551757812 C 87.05445098876953 561.8491821289062 110.97525787353516 535.2816162109375 91.46723175048828 533.7041625976562 C 258.6412048339844 600.6439208984375 204.75148010253906 410.859619140625 127.05870819091797 456.7877502441406 C 187.73574829101562 419.53125 223.3408966064453 383.88909912109375 384.63104248046875 452.5554504394531"/>
    <path stroke-width="0" fill="rgb(90, 93, 88)" opacity="0.71365076" stroke="rgb(81, 97, 150)" stroke-opacity="1.0" stroke-linecap="round" stroke-linejoin="round" d="M 592.2542724609375 211.1871337890625 C 353.8436584472656 75.78883361816406 261.2486572265625 -70.60452270507812 262.9398193359375 102.16470336914062 C 328.7966613769531 115.02973937988281 303.7152404785156 116.168701171875 260.2347412109375 100.5757827758789 C 306.9404296875 3.660349130630493 223.34048461914062 -53.32936477661133 423.5909118652344 -32.35201644897461 C 425.89959716796875 -11.336971282958984 515.4774169921875 -19.22865104675293 592.2542724609375 211.1871337890625"/>
    <path stroke-width="0" fill="rgb(89, 89, 82)" opacity="0.74568975" stroke="rgb(160, 222, 69)" stroke-opacity="1.0" stroke-linecap="round" stroke-linejoin="round" d="M 2.783729076385498 473.126953125 C 30.81029510498047 476.63079833984375 29.82164192199707 482.55914306640625 -22.474489212036133 475.86932373046875 C 10.457038879394531 452.3590087890625 -18.080373764038086 413.81536865234375 -30.1299991607666 414.26678466796875 C -29.795747756958008 421.0752258300781 -21.742794036865234 415.0025329589844 -13.931568145751953 410.4271545410156 C 30.77219009399414 425.7918701171875 22.563608169555664 462.5133361816406 2.783729076385498 473.126953125"/>
    <path stroke-width="0" fill="rgb(184, 181, 173)" opacity="0.835078" stroke="rgb(47, 242, 175)" stroke-opacity="1.0" stroke-linecap="round" stroke-linejoin="round" d="M 334.125 246.57432556152344 C 333.2603454589844 220.92965698242188 323.4677734375 300.4926452636719 348.1231994628906 260.1808776855469 C 341.3981628417969 220.0966796875 362.4178466796875 241.12335205078125 349.12939453125 206.5245361328125 C 378.40093994140625 223.9069366455078 385.3815002441406 242.64842224121094 351.276611328125 230.45626831054688 C 342.5415954589844 252.4674072265625 347.2123107910156 193.2494354248047 334.125 246.57432556152344"/>
    <path stroke-width="0" fill="rgb(0, 8, -11)" opacity="0.78627735" stroke="rgb(241, 186, 64)" stroke-opacity="1.0" stroke-linecap="round" stroke-linejoin="round" d="M 533.357421875 349.3418273925781 C 402.8280029296875 386.9299011230469 433.61639404296875 293.248779296875 441.0615234375 366.2632141113281 C 385.94415283203125 336.792236328125 425.2614440917969 342.8984069824219 411.5664367675781 338.59283447265625 C 529.7406005859375 190.87332153320312 384.0377502441406 333.86126708984375 412.96722412109375 396.65240478515625 C 396.2132568359375 312.7603759765625 463.1981506347656 382.8775329589844 533.357421875 349.3418273925781"/>
    <path stroke-width="0" fill="rgb(163, 167, 165)" opacity="0.6896965" stroke="rgb(132, 6, 52)" stroke-opacity="1.0" stroke-linecap="round" stroke-linejoin="round" d="M 342.4842224121094 114.8663558959961 C 364.2509765625 159.347900390625 437.3951110839844 175.338134765625 304.77740478515625 156.36915588378906 C 139.74740600585938 140.3750762939453 216.64540100097656 216.88751220703125 190.89027404785156 122.3646011352539 C 279.8702392578125 127.69879913330078 319.821044921875 52.42743682861328 127.6308364868164 128.705322265625 C 259.1094970703125 77.94642639160156 271.0234375 103.70362854003906 342.4842224121094 114.8663558959961"/>
    <path stroke-width="0" fill="rgb(15, 22, -4)" opacity="0.6302749" stroke="rgb(95, 118, 70)" stroke-opacity="1.0" stroke-linecap="round" stroke-linejoin="round" d="M 414.6824645996094 255.2517547607422 C 408.01629638671875 254.96917724609375 398.13720703125 226.82391357421875 403.6261901855469 294.77740478515625 C 405.25360107421875 222.22952270507812 396.14453125 256.6402587890625 400.18853759765625 248.62631225585938 C 404.6224060058594 256.6255798339844 406.94580078125 250.34046936035156 401.0286560058594 252.7460174560547 C 401.49163818359375 257.84637451171875 409.7431945800781 247.3841094970703 414.6824645996094 255.2517547607422"/>
    <path stroke-width="0" fill="rgb(31, 72, 41)" opacity="0.84723824" stroke="rgb(182, 100, 144)" stroke-opacity="1.0" stroke-linecap="round" stroke-linejoin="round" d="M 103.0684814453125 448.0605163574219 C 103.92452239990234 367.4855041503906 99.7116928100586 426.8620910644531 101.27436065673828 446.022705078125 C 101.3575668334961 451.4006652832031 109.32886505126953 443.9765319824219 101.54473114013672 448.7657470703125 C 102.18407440185547 449.6985168457031 106.81831359863281 441.3404541015625 99.41737365722656 445.1007080078125 C 104.406005859375 450.6114807128906 97.90129089355469 445.5457763671875 103.0684814453125 448.0605163574219"/>
    <path stroke-width="0" fill="rgb(262, 253, 251)" opacity="0.9781086" stroke="rgb(61, 25, 4)" stroke-opacity="1.0" stroke-linecap="round" stroke-linejoin="round" d="M 435.86907958984375 338.7140808105469 C 425.484130859375 336.3749084472656 443.4574279785156 347.885498046875 444.1294250488281 379.7069396972656 C 431.93603515625 389.0838928222656 404.0115966796875 377.62347412109375 437.8664855957031 401.3570556640625 C 384.0909729003906 331.5648498535156 459.7984924316406 365.37054443359375 462.26361083984375 342.7240905761719 C 453.41986083984375 366.6745910644531 433.19439697265625 336.76593017578125 435.86907958984375 338.7140808105469"/>
    <path stroke-width="0" fill="rgb(267, 266, 256)" opacity="0.5733632" stroke="rgb(170, 200, 71)" stroke-opacity="1.0" stroke-linecap="round" stroke-linejoin="round" d="M 349.3394470214844 289.3675842285156 C 361.062255859375 268.0741882324219 348.7984313964844 277.2147521972656 334.3995056152344 335.5700378417969 C 334.11456298828125 315.90869140625 321.9471740722656 316.9429626464844 354.98846435546875 279.23321533203125 C 352.87847900390625 282.1911315917969 344.30560302734375 249.0677490234375 330.6648254394531 278.96917724609375 C 340.34564208984375 252.51206970214844 357.4841613769531 274.41253662109375 349.3394470214844 289.3675842285156"/>
    <path stroke-width="0" fill="rgb(155, 153, 130)" opacity="0.25164995" stroke="rgb(16, 123, 249)" stroke-opacity="1.0" stroke-linecap="round" stroke-linejoin="round" d="M 336.4461669921875 321.8702392578125 C 359.0036315917969 352.03411865234375 373.5186462402344 334.8207702636719 313.8056945800781 343.7512512207031 C 393.8304443359375 347.266357421875 339.75091552734375 342.3614807128906 341.2103576660156 323.757080078125 C 333.6716613769531 339.7747497558594 318.3544006347656 330.0222473144531 305.7193603515625 305.9644775390625 C 327.8237609863281 346.931884765625 344.21923828125 327.8393859863281 336.4461669921875 321.8702392578125"/>
    <path stroke-width="0" fill="rgb(256, 241, 243)" opacity="0.7268745" stroke="rgb(86, 245, 59)" stroke-opacity="1.0" stroke-linecap="round" stroke-linejoin="round" d="M 12.483097076416016 361.8206481933594 C 20.687408447265625 237.25546264648438 76.85110473632812 334.00616455078125 31.661865234375 339.8035888671875 C -5.321234703063965 332.02386474609375 35.47288131713867 333.00201416015625 28.68171501159668 333.6451416015625 C 28.789976119995117 328.1276550292969 40.57221221923828 315.5615234375 69.986572265625 308.2333679199219 C 45.85551452636719 314.89251708984375 33.91261672973633 315.0400085449219 12.483097076416016 361.8206481933594"/>
    <path stroke-width="0" fill="rgb(28, 49, 51)" opacity="0.7783006" stroke="rgb(126, 163, 93)" stroke-opacity="1.0" stroke-linecap="round" stroke-linejoin="round" d="M 357.47955322265625 341.97857666015625 C 351.6510314941406 341.3272399902344 376.01495361328125 378.8937072753906 318.5291442871094 369.17047119140625 C 315.6935729980469 367.5816955566406 300.24603271484375 369.5025634765625 351.2352294921875 367.33935546875 C 364.39691162109375 351.97503662109375 363.6219787597656 334.5627136230469 322.6097412109375 343.4102478027344 C 323.989501953125 330.184814453125 313.1720275878906 348.6357727050781 357.47955322265625 341.97857666015625"/>
    <path stroke-width="0" fill="rgb(89, 93, 85)" opacity="0.768647" stroke="rgb(231, 197, 84)" stroke-opacity="1.0" stroke-linecap="round" stroke-linejoin="round" d="M 103.74002838134766 -9.93387222290039 C 65.75395202636719 23.675344467163086 -2.4957826137542725 80.27726745605469 3.749103307723999 116.93632507324219 C -60.966026306152344 75.25569915771484 -38.89187240600586 43.448062896728516 -21.26175308227539 2.9528732299804688 C -17.32050895690918 -10.0 -10.0 -17.32050895690918 7.241615295410156 -24.014564514160156 C 31.09577178955078 -33.32636642456055 38.93543243408203 -15.198221206665039 103.74002838134766 -9.93387222290039"/>
    <path stroke-width="0" fill="rgb(178, 185, 181)" opacity="0.7817969" stroke="rgb(103, 59, 33)" stroke-opacity="1.0" stroke-linecap="round" stroke-linejoin="round" d="M 200.72821044921875 178.5814666748047 C 221.04420471191406 170.62164306640625 210.6648712158203 174.2305145263672 207.3844451904297 181.80172729492188 C 251.5626983642578 122.58379364013672 255.90237426757812 150.4818572998047 215.7273712158203 183.5587615966797 C 218.2380828857422 181.2247772216797 226.82485961914062 173.92173767089844 227.5473175048828 171.38307189941406 C 223.99435424804688 129.7696533203125 202.80291748046875 153.74972534179688 200.72821044921875 178.5814666748047"/>
    <path stroke-width="0" fill="rgb(259, 253, 260)" opacity="0.8137451" stroke="rgb(20, 22, 171)" stroke-opacity="1.0" stroke-linecap="round" stroke-linejoin="round" d="M 74.21353912353516 335.19769287109375 C 59.84830093383789 326.1224670410156 53.375457763671875 331.329833984375 71.83800506591797 333.5946044921875 C 98.11011505126953 334.3629150390625 40.57333755493164 356.2439270019531 23.8006591796875 329.8243713378906 C -15.478981018066406 438.5364685058594 86.92028045654297 349.77069091796875 101.4952163696289 349.2211608886719 C 99.26966094970703 315.7409362792969 90.20975494384766 359.6153869628906 74.21353912353516 335.19769287109375"/>
    <path stroke-width="0" fill="rgb(249, 255, 251)" opacity="0.26085848" stroke="rgb(107, 142, 219)" stroke-opacity="1.0" stroke-linecap="round" stroke-linejoin="round" d="M 102.72845458984375 312.62774658203125 C 128.9310302734375 311.84710693359375 108.77428436279297 329.005615234375 93.59015655517578 356.5997619628906 C 5.084047317504883 404.41827392578125 -0.40050646662712097 250.3311767578125 92.08658599853516 271.8985900878906 C 141.6854248046875 319.2023010253906 49.39645004272461 338.6703186035156 113.16812896728516 305.0879821777344 C 130.9661865234375 279.1449890136719 128.9449920654297 289.553955078125 102.72845458984375 312.62774658203125"/>
    <path stroke-width="0" fill="rgb(-3, 13, 8)" opacity="0.73326045" stroke="rgb(14, 177, 198)" stroke-opacity="1.0" stroke-linecap="round" stroke-linejoin="round" d="M 23.738006591796875 299.0594787597656 C 23.71583366394043 287.3337707519531 54.44333267211914 318.08673095703125 107.75982666015625 349.61895751953125 C 61.73357009887695 312.8075866699219 13.901729583740234 293.64434814453125 23.046201705932617 279.671630859375 C 17.618013381958008 292.64434814453125 26.13619041442871 274.0295104980469 23.32830238342285 310.28302001953125 C 10.704285621643066 287.7562561035156 38.522117614746094 290.8014221191406 23.738006591796875 299.0594787597656"/>
    <path stroke-width="0" fill="rgb(158, 165, 163)" opacity="0.80486304" stroke="rgb(66, 95, 149)" stroke-opacity="1.0" stroke-linecap="round" stroke-linejoin="round" d="M 345.0800476074219 133.61981201171875 C 331.2173156738281 136.24456787109375 320.0960998535156 135.31600952148438 317.8018798828125 136.153564453125 C 381.95745849609375 130.3809814453125 367.6603088378906 138.56068420410156 352.177734375 116.2284164428711 C 300.031005859375 135.3516082763672 281.2509765625 97.26019287109375 325.295166015625 102.21497344970703 C 355.8664245605469 150.66705322265625 370.0782470703125 160.81504821777344 345.0800476074219 133.61981201171875"/>
    <path stroke-width="0" fill="rgb(2, -1, 17)" opacity="0.8675795" stroke="rgb(203, 19, 132)" stroke-opacity="1.0" stroke-linecap="round" stroke-linejoin="round" d="M 433.1216125488281 361.79656982421875 C 527.0601196289062 406.2770080566406 518.6926879882812 406.4798278808594 436.35858154296875 364.4774475097656 C 400.3251953125 338.2203063964844 495.25494384765625 361.09075927734375 423.0805358886719 353.2113037109375 C 428.5459899902344 370.866455078125 449.234619140625 361.48590087890625 401.572021484375 344.2762145996094 C 376.71380615234375 361.9058837890625 416.88555908203125 351.4150695800781 433.1216125488281 361.79656982421875"/>
    <path stroke-width="0" fill="rgb(175, 169, 181)" opacity="0.61384845" stroke="rgb(109, 130, 136)" stroke-opacity="1.0" stroke-linecap="round" stroke-linejoin="round" d="M 328.74981689453125 127.55998992919922 C 319.1145324707031 158.5240478515625 304.33172607421875 164.24427795410156 300.32293701171875 166.515625 C 343.9146423339844 181.93214416503906 310.9552307128906 166.9593048095703 321.2552185058594 194.13729858398438 C 316.7651062011719 185.69676208496094 327.5571594238281 173.3728485107422 298.5061340332031 158.5457763671875 C 294.8954162597656 148.4008026123047 322.4391784667969 157.6898193359375 328.74981689453125 127.55998992919922"/>
    <path stroke-width="0" fill="rgb(9, 3, -17)" opacity="0.6483825" stroke="rgb(70, 32, 100)" stroke-opacity="1.0" stroke-linecap="round" stroke-linejoin="round" d="M 198.9314727783203 402.9189453125 C 100.53778839111328 345.1666259765625 46.99190902709961 336.3661193847656 131.0562744140625 350.064453125 C 121.14208221435547 325.76507568359375 126.3109130859375 336.35406494140625 130.9160614013672 350.74615478515625 C 89.48200988769531 350.2336120605469 119.70313262939453 365.27978515625 161.09091186523438 453.2221374511719 C 80.14824676513672 310.0595397949219 102.59513854980469 361.1429138183594 198.9314727783203 402.9189453125"/>
    <path stroke-width="0" fill="rgb(180, 186, 179)" opacity="0.87483394" stroke="rgb(224, 116, 184)" stroke-opacity="1.0" stroke-linecap="round" stroke-linejoin="round" d="M 198.0996856689453 181.73065185546875 C 170.40689086914062 172.86160278320312 165.40847778320312 181.7721710205078 180.2919464111328 188.6361541748047 C 204.59922790527344 163.10455322265625 197.7924346923828 166.87733459472656 188.58242797851562 168.51467895507812 C 176.2291717529297 188.02182006835938 197.57887268066406 176.7684326171875 216.0599822998047 183.9805908203125 C 195.4268798828125 178.7076873779297 169.72027587890625 223.2229766845703 198.0996856689453 181.73065185546875"/>
    <path stroke-width="0" fill="rgb(32, 48, 30)" opacity="0.607033" stroke="rgb(192, 162, 61)" stroke-opacity="1.0" stroke-linecap="round" stroke-linejoin="round" d="M 2.9909863471984863 331.37005615234375 C 79.12442779541016 347.0697937011719 52.14404296875 330.672119140625 49.96650314331055 302.9264221191406 C 49.098472595214844 311.8818664550781 53.5797119140625 302.8251953125 52.305328369140625 304.45751953125 C 53.92337417602539 305.66253662109375 42.85872268676758 310.99658203125 54.11524200439453 315.5534973144531 C 54.19853210449219 330.2702331542969 70.57394409179688 351.18463134765625 2.9909863471984863 331.37005615234375"/>
    <path stroke-width="0" fill="rgb(0, 4, 0)" opacity="0.6852946" stroke="rgb(90, 90, 4)" stroke-opacity="1.0" stroke-linecap="round" stroke-linejoin="round" d="M 159.135498046875 162.24270629882812 C 156.813720703125 160.3749542236328 162.5352783203125 160.35398864746094 181.04730224609375 156.3094482421875 C 159.2954864501953 161.10679626464844 160.3028564453125 154.14903259277344 155.2731475830078 203.2818145751953 C 155.8293914794922 167.58152770996094 164.94456481933594 161.688232421875 167.7015838623047 158.90736389160156 C 158.55023193359375 164.52008056640625 182.8023681640625 143.17303466796875 159.135498046875 162.24270629882812"/>
    <path stroke-width="0" fill="rgb(172, 158, 172)" opacity="0.4085602" stroke="rgb(248, 252, 104)" stroke-opacity="1.0" stroke-linecap="round" stroke-linejoin="round" d="M 104.92384338378906 239.3348846435547 C 105.6597671508789 219.58901977539062 101.45235443115234 243.6471710205078 125.90716552734375 246.6153106689453 C 130.97584533691406 206.04112243652344 113.03488159179688 218.60333251953125 120.62818908691406 240.44586181640625 C 109.17745208740234 235.0582275390625 128.08511352539062 151.08221435546875 112.5422592163086 191.5266876220703 C 117.74615478515625 212.00238037109375 128.62940979003906 246.4389190673828 104.92384338378906 239.3348846435547"/>
    <path stroke-width="0" fill="rgb(6, 4, -7)" opacity="0.70004445" stroke="rgb(162, 125, 252)" stroke-opacity="1.0" stroke-linecap="round" stroke-linejoin="round" d="M 471.66790771484375 354.1542663574219 C 366.7777404785156 360.2229309082031 405.6941223144531 333.8033142089844 409.38525390625 368.4316101074219 C 420.61846923828125 323.048828125 421.5347595214844 347.109375 350.0246887207031 446.6268310546875 C 414.22259521484375 342.236083984375 420.9854736328125 353.6514892578125 367.76531982421875 371.0022888183594 C 366.1009826660156 381.3298034667969 379.5506286621094 344.5215759277344 471.66790771484375 354.1542663574219"/>
    <path stroke-width="0" fill="rgb(161, 179, 169)" opacity="0.40534097" stroke="rgb(91, 211, 235)" stroke-opacity="1.0" stroke-linecap="round" stroke-linejoin="round" d="M 357.62652587890625 325.55438232421875 C 351.5498962402344 319.03424072265625 365.1922607421875 321.7144775390625 354.643310546875 376.5313720703125 C 348.5242919921875 375.9815673828125 361.46759033203125 378.7616271972656 358.1657409667969 323.91217041015625 C 361.7098083496094 319.5564880371094 356.57684326171875 318.7466125488281 376.4044189453125 333.87713623046875 C 358.8511962890625 315.65087890625 351.4482421875 321.9926452636719 357.62652587890625 325.55438232421875"/>
    <path stroke-width="0" fill="rgb(51, 25, 21)" opacity="0.9762962" stroke="rgb(59, 88, 207)" stroke-opacity="1.0" stroke-linecap="round" stroke-linejoin="round" d="M 437.1985168457031 337.7325134277344 C 483.3616027832031 316.1458740234375 451.6922912597656 325.682861328125 461.0149230957031 323.0179443359375 C 465.9285583496094 327.60870361328125 465.53936767578125 321.7158508300781 471.862548828125 316.9726257324219 C 464.99853515625 327.148681640625 473.0489196777344 312.49395751953125 478.4441833496094 318.5398254394531 C 429.86163330078125 334.090087890625 401.1538391113281 360.1801452636719 437.1985168457031 337.7325134277344"/>
    <path stroke-width="0" fill="rgb(239, 240, 242)" opacity="0.34810993" stroke="rgb(63, 27, 242)" stroke-opacity="1.0" stroke-linecap="round" stroke-linejoin="round" d="M 108.7678451538086 401.5669860839844 C 44.25281524658203 429.2144775390625 55.96080780029297 441.9970397949219 20.752338409423828 389.7735900878906 C 114.95228576660156 414.886474609375 91.99250030517578 410.35845947265625 54.37517166137695 405.87054443359375 C 79.47721099853516 448.7301330566406 111.3235855102539 463.8899230957031 93.908203125 410.4910888671875 C 85.2666015625 404.6685791015625 79.43843078613281 404.12860107421875 108.7678451538086 401.5669860839844"/>
    <path stroke-width="0" fill="rgb(130, 137, 130)" opacity="0.74407685" stroke="rgb(175, 14, 186)" stroke-opacity="1.0" stroke-linecap="round" stroke-linejoin="round" d="M 63.03962326049805 244.70120239257812 C 67.35517883300781 249.40899658203125 59.698028564453125 266.4768371582031 38.4418830871582 241.1207733154297 C 80.50213623046875 248.74696350097656 75.76006317138672 239.00222778320312 59.0999641418457 235.45828247070312 C 57.46858215332031 233.22341918945312 51.60918426513672 115.16927337646484 40.4898567199707 245.29904174804688 C 127.45528411865234 210.7167205810547 150.0225830078125 256.9610290527344 63.03962326049805 244.70120239257812"/>
    <path stroke-width="0" fill="rgb(130, 143, 136)" opacity="0.7393428" stroke="rgb(213, 60, 128)" stroke-opacity="1.0" stroke-linecap="round" stroke-linejoin="round" d="M 59.345699310302734 247.9666290283203 C 89.27708435058594 255.641845703125 87.0292739868164 244.17160034179688 48.87502670288086 238.02333068847656 C 37.232635498046875 242.6255645751953 75.85391235351562 236.8826141357422 121.98532104492188 227.67001342773438 C 75.29493713378906 236.05682373046875 68.17713928222656 245.98974609375 56.85538864135742 248.503662109375 C 96.03091430664062 245.64060974121094 105.68360900878906 243.31422424316406 59.345699310302734 247.9666290283203"/>
    <path stroke-width="0" fill="rgb(158, 163, 158)" opacity="0.69459987" stroke="rgb(228, 103, 140)" stroke-opacity="1.0" stroke-linecap="round" stroke-linejoin="round" d="M 405.0975036621094 218.0113525390625 C 400.85760498046875 241.45225524902344 390.08306884765625 245.76559448242188 429.8035583496094 248.2237091064453 C 456.41851806640625 237.39706420898438 394.8002624511719 220.55506896972656 392.1582336425781 242.10556030273438 C 399.3109130859375 237.9021759033203 400.4153137207031 256.43182373046875 403.31878662109375 242.64552307128906 C 396.0472106933594 243.81411743164062 407.0478210449219 240.7063446044922 405.0975036621094 218.0113525390625"/>
    <path stroke-width="0" fill="rgb(213, 209, 193)" opacity="0.13839139" stroke="rgb(116, 102, 63)" stroke-opacity="1.0" stroke-linecap="round" stroke-linejoin="round" d="M 497.8477783203125 369.2546081542969 C 487.920166015625 420.5035095214844 476.8983459472656 404.36248779296875 457.6280212402344 432.69171142578125 C 417.40850830078125 432.3217468261719 427.79461669921875 420.2828674316406 379.3559875488281 360.554443359375 C 431.58868408203125 377.62322998046875 434.714111328125 315.15350341796875 429.4210205078125 284.3912048339844 C 492.1724853515625 266.5801696777344 505.9034729003906 318.6377258300781 497.8477783203125 369.2546081542969"/>
    <path stroke-width="0" fill="rgb(159, 165, 161)" opacity="0.5950959" stroke="rgb(64, 113, 26)" stroke-opacity="1.0" stroke-linecap="round" stroke-linejoin="round" d="M 136.30397033691406 235.79055786132812 C 107.78422546386719 226.93701171875 112.09102630615234 224.48587036132812 120.16506958007812 230.28512573242188 C 139.955810546875 244.2230224609375 100.43531799316406 245.8587646484375 69.22909545898438 238.10076904296875 C 146.56846618652344 224.78155517578125 69.6548080444336 207.2912139892578 120.1930160522461 235.3357391357422 C 105.582763671875 249.37625122070312 148.89419555664062 254.27206420898438 136.30397033691406 235.79055786132812"/>
    <path stroke-width="0" fill="rgb(98, 54, 67)" opacity="0.19435832" stroke="rgb(0, 0, 0)" stroke-opacity="0.0" stroke-linecap="round" stroke-linejoin="round" d="M 270.85833740234375 16.18558692932129 C 271.3955383300781 20.944644927978516 268.259521484375 23.86766815185547 264.22479248046875 25.49390411376953 C 260.0146179199219 24.12862205505371 256.7051696777344 21.098407745361328 257.8446044921875 18.79376220703125 C 258.9637756347656 12.375078201293945 259.3854064941406 8.71113109588623 263.92083740234375 9.454588890075684 C 270.21209716796875 8.78478717803955 272.2218017578125 10.998796463012695 270.85833740234375 16.18558692932129"/>
    <path stroke-width="0" fill="rgb(29, 28, 16)" opacity="0.26713514" stroke="rgb(0, 0, 0)" stroke-opacity="0.0" stroke-linecap="round" stroke-linejoin="round" d="M 12.231499671936035 11.926395416259766 C 13.324101448059082 16.439668655395508 9.100350379943848 16.963199615478516 3.5167181491851807 18.874589920043945 C 2.3015530109405518 17.901517868041992 -0.0227788258343935 13.829197883605957 -0.6205553412437439 12.340520858764648 C 0.7405899167060852 10.414209365844727 3.0857045650482178 6.491063117980957 3.7580983638763428 4.219625949859619 C 7.234550476074219 6.876803874969482 12.221083641052246 8.325160026550293 12.231499671936035 11.926395416259766"/>
    <path stroke-width="0" fill="rgb(23, 179, 66)" opacity="0.5819747" stroke="rgb(0, 0, 0)" stroke-opacity="0.0" stroke-linecap="round" stroke-linejoin="round" d="M 248.81961059570312 201.2585906982422 C 246.94540405273438 204.40773010253906 243.9198760986328 207.4571075439453 240.8055419921875 208.66357421875 C 237.4228057861328 206.98373413085938 234.5730743408203 203.87815856933594 233.1053009033203 200.69891357421875 C 234.34205627441406 197.74197387695312 237.3084716796875 195.0146942138672 241.0865936279297 194.25253295898438 C 243.39215087890625 194.97885131835938 246.20028686523438 198.09324645996094 248.81961059570312 201.2585906982422"/>
    <path stroke-width="0" fill="rgb(100, 53, 227)" opacity="0.50450605" stroke="rgb(0, 0, 0)" stroke-opacity="0.0" stroke-linecap="round" stroke-linejoin="round" d="M 513.66064453125 12.939275741577148 C 512.7721557617188 16.84421157836914 509.92901611328125 19.710031509399414 507.5456237792969 18.77079963684082 C 502.2938232421875 17.68726921081543 498.3066711425781 16.630712509155273 498.7483825683594 12.763497352600098 C 497.6338195800781 7.3090996742248535 500.5694580078125 5.360610485076904 504.90869140625 5.140301704406738 C 509.40045166015625 6.012115955352783 512.4381103515625 8.808862686157227 513.66064453125 12.939275741577148"/>
    <path stroke-width="0" fill="rgb(101, 155, 229)" opacity="0.3675501" stroke="rgb(0, 0, 0)" stroke-opacity="0.0" stroke-linecap="round" stroke-linejoin="round" d="M 20.139301300048828 -11.20470905303955 C 19.0675048828125 -7.204709053039551 16.139301300048828 -4.276505470275879 12.139301300048828 -3.2047088146209717 C 8.139301300048828 -4.276505470275879 5.2110981941223145 -7.204709053039551 4.139301300048828 -11.20470905303955 C 5.2110981941223145 -15.20470905303955 8.139301300048828 -18.132911682128906 12.139301300048828 -19.204708099365234 C 16.139301300048828 -18.132911682128906 19.0675048828125 -15.20470905303955 20.139301300048828 -11.20470905303955"/>
    <path stroke-width="0" fill="rgb(86, 32, 7)" opacity="0.5346534" stroke="rgb(0, 0, 0)" stroke-opacity="0.0" stroke-linecap="round" stroke-linejoin="round" d="M 469.57244873046875 213.8109588623047 C 469.17340087890625 218.76693725585938 466.317138671875 221.33737182617188 461.54425048828125 222.07614135742188 C 457.4299011230469 222.0132293701172 454.3814697265625 219.4141387939453 454.3081970214844 215.20843505859375 C 455.3810119628906 210.48643493652344 457.9382019042969 207.3103485107422 461.7537841796875 206.98036193847656 C 466.0027770996094 208.0849151611328 470.23486328125 210.02687072753906 469.57244873046875 213.8109588623047"/>
    <path stroke-width="0" fill="rgb(74, 84, 42)" opacity="0.13278139" stroke="rgb(0, 0, 0)" stroke-opacity="0.0" stroke-linecap="round" stroke-linejoin="round" d="M 27.73770523071289 492.6603088378906 C 25.83946990966797 496.95391845703125 22.59096908569336 499.718017578125 19.914609909057617 500.4258117675781 C 16.00504493713379 499.4951171875 12.65588665008545 497.0467529296875 11.39585018157959 493.1076965332031 C 12.731660842895508 490.0341491699219 16.076284408569336 487.40386962890625 19.996204376220703 485.83050537109375 C 23.829853057861328 486.2903137207031 27.111242294311523 488.83197021484375 27.73770523071289 492.6603088378906"/>
    <path stroke-width="0" fill="rgb(186, 99, 234)" opacity="0.9332113" stroke="rgb(0, 0, 0)" stroke-opacity="0.0" stroke-linecap="round" stroke-linejoin="round" d="M 33.703128814697266 105.24835968017578 C 33.31972122192383 108.81497955322266 30.672828674316406 112.17556762695312 26.52185821533203 112.97750091552734 C 22.023637771606445 113.1895980834961 20.652864456176758 109.84038543701172 20.37206268310547 104.19586181640625 C 20.18450355529785 101.67770385742188 23.47345733642578 98.83226013183594 27.10944366455078 97.81900024414062 C 30.895456314086914 98.25700378417969 33.13181686401367 101.45541381835938 33.703128814697266 105.24835968017578"/>
    <path stroke-width="0" fill="rgb(88, 188, 235)" opacity="0.9440177" stroke="rgb(0, 0, 0)" stroke-opacity="0.0" stroke-linecap="round" stroke-linejoin="round" d="M 398.0401306152344 326.5685119628906 C 396.935302734375 330.4217224121094 394.644775390625 334.450439453125 391.151123046875 336.00457763671875 C 386.76995849609375 334.302001953125 383.8638610839844 331.3820495605469 383.3341369628906 326.7127685546875 C 383.3016052246094 322.529541015625 386.3395080566406 320.1204528808594 389.9788513183594 320.4298095703125 C 394.3015441894531 321.17822265625 397.4952392578125 323.674072265625 398.0401306152344 326.5685119628906"/>
    <path stroke-width="0" fill="rgb(73, 209, 228)" opacity="0.4046399" stroke="rgb(0, 0, 0)" stroke-opacity="0.0" stroke-linecap="round" stroke-linejoin="round" d="M 123.31100463867188 122.93189239501953 C 122.7170181274414 126.92700958251953 119.93798828125 129.96449279785156 115.92971801757812 130.0996856689453 C 111.45655059814453 129.5430145263672 108.4959945678711 126.92078399658203 107.64083862304688 122.74472045898438 C 108.5937271118164 118.30516052246094 111.19080352783203 115.32110595703125 115.67771911621094 115.0342788696289 C 120.08489227294922 115.24598693847656 122.7020492553711 118.2763900756836 123.31100463867188 122.93189239501953"/>
    <path stroke-width="0" fill="rgb(190, 200, 63)" opacity="0.9508188" stroke="rgb(0, 0, 0)" stroke-opacity="0.0" stroke-linecap="round" stroke-linejoin="round" d="M 127.65734100341797 98.27609252929688 C 127.33393096923828 103.13250732421875 125.01073455810547 106.27149963378906 120.67495727539062 106.69601440429688 C 115.52967071533203 105.552734375 112.38933563232422 103.01408386230469 112.78921508789062 99.0978775024414 C 113.78423309326172 95.13362121582031 116.88739013671875 92.49461364746094 120.23441314697266 91.81013488769531 C 123.86984252929688 91.96819305419922 127.22756958007812 94.27893829345703 127.65734100341797 98.27609252929688"/>
    <path stroke-width="0" fill="rgb(94, 170, 11)" opacity="0.7603352" stroke="rgb(0, 0, 0)" stroke-opacity="0.0" stroke-linecap="round" stroke-linejoin="round" d="M 186.69602966308594 17.03633689880371 C 185.2738037109375 20.528928756713867 182.61306762695312 23.50368309020996 178.6410675048828 24.52423858642578 C 175.33792114257812 24.082782745361328 172.95887756347656 20.460039138793945 171.8785400390625 17.32219886779785 C 172.7869110107422 13.620343208312988 175.4769287109375 10.48896312713623 179.2812042236328 9.86540412902832 C 183.00296020507812 10.303659439086914 185.82261657714844 13.315526962280273 186.69602966308594 17.03633689880371"/>
    <path stroke-width="0" fill="rgb(158, 121, 96)" opacity="0.777138" stroke="rgb(0, 0, 0)" stroke-opacity="0.0" stroke-linecap="round" stroke-linejoin="round" d="M 31.117721557617188 142.96490478515625 C 31.661052703857422 146.82017517089844 28.523447036743164 149.35585021972656 24.042768478393555 150.72291564941406 C 20.854907989501953 149.57412719726562 18.667264938354492 146.03445434570312 18.187118530273438 141.82742309570312 C 17.770509719848633 138.89439392089844 21.073741912841797 136.77671813964844 25.544782638549805 136.1044921875 C 29.078899383544922 135.34271240234375 31.122848510742188 138.16448974609375 31.117721557617188 142.96490478515625"/>
    <path stroke-width="0" fill="rgb(50, 69, 140)" opacity="0.12485514" stroke="rgb(0, 0, 0)" stroke-opacity="0.0" stroke-linecap="round" stroke-linejoin="round" d="M 157.66685485839844 382.8001708984375 C 157.3633575439453 386.7211608886719 154.08262634277344 388.9104919433594 150.40933227539062 390.2342529296875 C 146.7126922607422 388.8600769042969 144.1650848388672 385.7400817871094 142.88272094726562 381.98236083984375 C 143.69725036621094 378.91168212890625 146.67369079589844 376.17242431640625 150.68382263183594 374.62451171875 C 153.8345184326172 375.5448913574219 156.10154724121094 379.3369445800781 157.66685485839844 382.8001708984375"/>
    <path stroke-width="0" fill="rgb(239, 168, 221)" opacity="0.535762" stroke="rgb(0, 0, 0)" stroke-opacity="0.0" stroke-linecap="round" stroke-linejoin="round" d="M 416.10626220703125 45.48110580444336 C 415.88214111328125 49.64106369018555 412.8490905761719 52.51115798950195 409.4035949707031 53.35823440551758 C 405.5453796386719 51.10450744628906 402.2331237792969 48.49432373046875 400.2763671875 45.10824203491211 C 401.0767822265625 40.96515655517578 404.53009033203125 38.65532684326172 408.6857604980469 38.25307846069336 C 412.44073486328125 38.68537139892578 415.53765869140625 41.2503776550293 416.10626220703125 45.48110580444336"/>
    <path stroke-width="0" fill="rgb(81, 246, 140)" opacity="0.30777535" stroke="rgb(0, 0, 0)" stroke-opacity="0.0" stroke-linecap="round" stroke-linejoin="round" d="M 79.35814666748047 309.9427490234375 C 78.76830291748047 313.8754577636719 76.35514831542969 317.2015380859375 72.48616027832031 317.07611083984375 C 67.95547485351562 316.0491638183594 64.78768157958984 313.37005615234375 63.9661979675293 310.172119140625 C 65.52486419677734 306.0352783203125 68.28089904785156 302.9886474609375 71.54464721679688 301.95794677734375 C 75.10746002197266 303.16552734375 78.13509368896484 306.0901794433594 79.35814666748047 309.9427490234375"/>
    <path stroke-width="0" fill="rgb(98, 244, 97)" opacity="0.8838626" stroke="rgb(0, 0, 0)" stroke-opacity="0.0" stroke-linecap="round" stroke-linejoin="round" d="M 414.4109802246094 76.40277099609375 C 414.21563720703125 80.42518615722656 411.18731689453125 82.97330474853516 407.19451904296875 83.08769989013672 C 402.962646484375 82.22117614746094 399.5433349609375 79.73152923583984 399.0533447265625 76.10640716552734 C 399.5946960449219 71.66698455810547 402.5667419433594 68.90387725830078 407.22760009765625 68.18771362304688 C 411.503662109375 68.19644927978516 413.8498229980469 71.15775299072266 414.4109802246094 76.40277099609375"/>
    <path stroke-width="0" fill="rgb(23, 199, 151)" opacity="0.6186336" stroke="rgb(0, 0, 0)" stroke-opacity="0.0" stroke-linecap="round" stroke-linejoin="round" d="M 84.09814453125 170.65615844726562 C 83.7754898071289 174.2832489013672 80.2958755493164 176.57200622558594 75.65685272216797 177.9188995361328 C 72.10453796386719 178.4146728515625 69.30294799804688 175.2789764404297 68.65865325927734 171.00132751464844 C 69.81505584716797 166.3534393310547 72.76719665527344 163.46392822265625 77.01143646240234 162.44442749023438 C 81.493408203125 163.03065490722656 83.81669616699219 166.10511779785156 84.09814453125 170.65615844726562"/>
    <path stroke-width="0" fill="rgb(75, 173, 0)" opacity="0.06637456" stroke="rgb(0, 0, 0)" stroke-opacity="0.0" stroke-linecap="round" stroke-linejoin="round" d="M 22.272005081176758 310.904052734375 C 21.376842498779297 314.581298828125 18.355894088745117 317.42095947265625 13.435461044311523 319.5941467285156 C 9.868942260742188 318.7655029296875 7.131065368652344 315.58660888671875 6.01224422454834 311.1018981933594 C 7.438143730163574 306.55810546875 10.357202529907227 303.5444030761719 14.639906883239746 302.79278564453125 C 18.506221771240234 304.04327392578125 21.412809371948242 307.1142272949219 22.272005081176758 310.904052734375"/>
    <path stroke-width="0" fill="rgb(243, 179, 221)" opacity="-0.0012889329" stroke="rgb(0, 0, 0)" stroke-opacity="0.0" stroke-linecap="round" stroke-linejoin="round" d="M 41.62311935424805 31.29531478881836 C 41.03837966918945 35.63866424560547 38.348514556884766 38.59471893310547 34.318458557128906 39.39154815673828 C 30.76891326904297 37.81930923461914 27.810546875 34.80859375 26.170269012451172 30.751638412475586 C 26.587608337402344 27.039562225341797 29.803829193115234 24.33497428894043 33.93450927734375 23.401281356811523 C 37.873470306396484 24.779525756835938 40.864341735839844 27.69260597229004 41.62311935424805 31.29531478881836"/>
    <path stroke-width="0" fill="rgb(99, 55, 140)" opacity="0.44960395" stroke="rgb(0, 0, 0)" stroke-opacity="0.0" stroke-linecap="round" stroke-linejoin="round" d="M 388.7900390625 136.1549835205078 C 388.96044921875 140.29612731933594 385.2536315917969 142.6035919189453 381.64404296875 143.3335418701172 C 377.40118408203125 141.61386108398438 374.12109375 138.908447265625 373.50018310546875 135.74041748046875 C 374.13702392578125 131.52294921875 376.6337585449219 128.30535888671875 380.3020935058594 127.32208251953125 C 384.5509033203125 128.62274169921875 387.3720703125 131.70518493652344 388.7900390625 136.1549835205078"/>
    <path stroke-width="0" fill="rgb(176, 192, 201)" opacity="0.95898986" stroke="rgb(0, 0, 0)" stroke-opacity="0.0" stroke-linecap="round" stroke-linejoin="round" d="M 42.92578887939453 203.91232299804688 C 41.699249267578125 208.4673614501953 38.77898406982422 211.5095672607422 34.946590423583984 212.47459411621094 C 31.28335189819336 210.44532775878906 27.63216781616211 207.82650756835938 27.408987045288086 204.2152099609375 C 27.869173049926758 200.6585235595703 30.804279327392578 197.48101806640625 34.48910140991211 195.56617736816406 C 39.01976776123047 196.84133911132812 42.07777786254883 199.68869018554688 42.92578887939453 203.91232299804688"/>
    <path stroke-width="0" fill="rgb(152, 16, 10)" opacity="0.31355205" stroke="rgb(0, 0, 0)" stroke-opacity="0.0" stroke-linecap="round" stroke-linejoin="round" d="M 284.1658630371094 22.07476806640625 C 283.6259460449219 25.402851104736328 280.2087097167969 28.160654067993164 276.6941223144531 29.2729434967041 C 273.5779113769531 28.307762145996094 270.5142517089844 25.769540786743164 269.5946960449219 21.8122615814209 C 269.90704345703125 17.882591247558594 273.3330383300781 15.67769718170166 277.3390808105469 14.596969604492188 C 280.9806823730469 15.342381477355957 284.18182373046875 18.218856811523438 284.1658630371094 22.07476806640625"/>
    <path stroke-width="0" fill="rgb(201, 62, 158)" opacity="0.708976" stroke="rgb(0, 0, 0)" stroke-opacity="0.0" stroke-linecap="round" stroke-linejoin="round" d="M 104.30097961425781 0.3843647837638855 C 103.01314544677734 4.988244533538818 100.5517349243164 8.113701820373535 97.59268188476562 8.715106010437012 C 93.25891876220703 7.6480488777160645 90.2008056640625 4.839713096618652 89.33772277832031 1.160191297531128 C 90.2086181640625 -2.3836233615875244 92.89358520507812 -5.54417610168457 96.74725341796875 -6.689070701599121 C 100.77670288085938 -5.632345676422119 103.9475326538086 -2.8558590412139893 104.30097961425781 0.3843647837638855"/>
    <path stroke-width="0" fill="rgb(40, 94, 132)" opacity="0.31544665" stroke="rgb(0, 0, 0)" stroke-opacity="0.0" stroke-linecap="round" stroke-linejoin="round" d="M 237.35855102539062 217.140625 C 236.72467041015625 221.39675903320312 234.19821166992188 224.58753967285156 230.38092041015625 224.9380645751953 C 226.11834716796875 224.52113342285156 223.75796508789062 221.4261016845703 222.57217407226562 217.10084533691406 C 223.0622100830078 213.52037048339844 226.51097106933594 211.2734832763672 231.00389099121094 210.73548889160156 C 234.33192443847656 210.7620086669922 236.9757843017578 213.40345764160156 237.35855102539062 217.140625"/>
    <path stroke-width="0" fill="rgb(76, 73, 225)" opacity="0.56198645" stroke="rgb(0, 0, 0)" stroke-opacity="0.0" stroke-linecap="round" stroke-linejoin="round" d="M 263.3352355957031 333.0621643066406 C 263.25616455078125 335.96624755859375 260.0939636230469 338.5366516113281 255.7639617919922 339.1796569824219 C 252.22328186035156 338.7799072265625 249.93685913085938 335.4756774902344 249.18260192871094 330.9403991699219 C 248.7508544921875 327.01861572265625 251.20156860351562 323.9931640625 255.5360107421875 323.65252685546875 C 259.58148193359375 325.1332702636719 262.00970458984375 328.61993408203125 263.3352355957031 333.0621643066406"/>
    <path stroke-width="0" fill="rgb(144, 78, 74)" opacity="0.7355448" stroke="rgb(0, 0, 0)" stroke-opacity="0.0" stroke-linecap="round" stroke-linejoin="round" d="M 93.73219299316406 196.77732849121094 C 92.80377960205078 200.9078369140625 89.85987854003906 203.95455932617188 87.14968872070312 203.82730102539062 C 82.9867935180664 202.94517517089844 79.10138702392578 200.6990966796875 78.04745483398438 197.2952423095703 C 78.57957458496094 192.59967041015625 81.49124145507812 189.51600646972656 85.13658905029297 189.710205078125 C 89.76866912841797 190.61737060546875 93.184814453125 193.27365112304688 93.73219299316406 196.77732849121094"/>
    <path stroke-width="0" fill="rgb(60, 107, 130)" opacity="0.23362176" stroke="rgb(0, 0, 0)" stroke-opacity="0.0" stroke-linecap="round" stroke-linejoin="round" d="M 437.5866394042969 79.79718017578125 C 436.43768310546875 83.49695587158203 433.1605224609375 86.26519012451172 429.0487060546875 87.85197448730469 C 425.1552734375 86.73408508300781 422.2153015136719 83.75531005859375 420.678955078125 79.01510620117188 C 421.7130432128906 75.24190521240234 425.2544860839844 72.5929183959961 429.49969482421875 71.26699829101562 C 433.3210754394531 72.61193084716797 436.17547607421875 75.64518737792969 437.5866394042969 79.79718017578125"/>
    <path stroke-width="0" fill="rgb(71, 179, 141)" opacity="0.5493899" stroke="rgb(0, 0, 0)" stroke-opacity="0.0" stroke-linecap="round" stroke-linejoin="round" d="M 54.462642669677734 371.72308349609375 C 53.14225769042969 375.7900695800781 50.63319778442383 379.0160217285156 46.48141860961914 380.1202392578125 C 42.57542419433594 378.9892272949219 40.20003890991211 375.53607177734375 39.27263259887695 371.6742248535156 C 40.07807922363281 367.93316650390625 42.26521682739258 364.6999206542969 46.613582611083984 364.6131591796875 C 50.50181198120117 364.9252624511719 52.99674987792969 368.2219543457031 54.462642669677734 371.72308349609375"/>
    <path stroke-width="0" fill="rgb(106, 137, 103)" opacity="0.22534013" stroke="rgb(0, 0, 0)" stroke-opacity="0.0" stroke-linecap="round" stroke-linejoin="round" d="M 345.6127624511719 309.06219482421875 C 345.8759765625 312.3314514160156 342.6903991699219 314.5103454589844 338.4925231933594 315.6823425292969 C 335.8907775878906 313.96844482421875 332.7608947753906 310.8536376953125 331.5356140136719 307.93621826171875 C 332.42816162109375 304.36492919921875 334.81060791015625 301.6582336425781 338.2925109863281 301.2207946777344 C 341.5908508300781 302.0069885253906 344.50738525390625 305.2916259765625 345.6127624511719 309.06219482421875"/>
    <path stroke-width="0" fill="rgb(229, 179, 212)" opacity="0.8620857" stroke="rgb(0, 0, 0)" stroke-opacity="0.0" stroke-linecap="round" stroke-linejoin="round" d="M 285.57568359375 104.67345428466797 C 285.4361267089844 108.62261962890625 282.86883544921875 111.62875366210938 278.5014343261719 111.88148498535156 C 273.5148620605469 111.31605529785156 270.3637390136719 108.90796661376953 270.08477783203125 104.20669555664062 C 271.3363342285156 100.04605102539062 274.05316162109375 97.14738464355469 277.70867919921875 97.1285629272461 C 281.1297607421875 98.01376342773438 284.1461181640625 101.18473815917969 285.57568359375 104.67345428466797"/>
    <path stroke-width="0" fill="rgb(41, 61, 79)" opacity="0.36761323" stroke="rgb(0, 0, 0)" stroke-opacity="0.0" stroke-linecap="round" stroke-linejoin="round" d="M 48.45664596557617 206.20069885253906 C 48.25666046142578 210.88902282714844 45.8306770324707 213.9807586669922 41.99879837036133 214.14927673339844 C 38.079925537109375 213.1272735595703 34.85188293457031 210.51727294921875 33.76300048828125 206.93331909179688 C 34.358360290527344 202.323486328125 36.91780471801758 199.422607421875 41.390106201171875 198.84725952148438 C 45.92209243774414 199.85389709472656 49.02277374267578 202.45529174804688 48.45664596557617 206.20069885253906"/>
    <path stroke-width="0" fill="rgb(204, 190, 228)" opacity="0.69366044" stroke="rgb(0, 0, 0)" stroke-opacity="0.0" stroke-linecap="round" stroke-linejoin="round" d="M 422.4395446777344 178.92822265625 C 421.8893737792969 183.17837524414062 418.7828369140625 185.7344970703125 415.96826171875 185.85256958007812 C 411.9920349121094 184.6392364501953 408.45635986328125 182.1547088623047 407.4491882324219 178.4975128173828 C 407.3104248046875 174.59225463867188 410.5440673828125 172.42977905273438 415.3019714355469 171.71456909179688 C 418.88775634765625 172.00631713867188 421.986328125 174.8675994873047 422.4395446777344 178.92822265625"/>
    <path stroke-width="0" fill="rgb(125, 162, 239)" opacity="0.60008305" stroke="rgb(0, 0, 0)" stroke-opacity="0.0" stroke-linecap="round" stroke-linejoin="round" d="M 85.94661712646484 327.2821350097656 C 85.2576675415039 331.2379455566406 82.8044204711914 334.59521484375 80.02333068847656 334.5459899902344 C 75.79297637939453 333.6437683105469 72.14404296875 331.4101867675781 71.32227325439453 327.7547302246094 C 71.9613037109375 323.7284240722656 75.2519302368164 321.42926025390625 78.6499252319336 320.4138488769531 C 82.85775756835938 321.4775695800781 85.90271759033203 323.7751159667969 85.94661712646484 327.2821350097656"/>
    <path stroke-width="0" fill="rgb(10, 239, 111)" opacity="0.49366853" stroke="rgb(0, 0, 0)" stroke-opacity="0.0" stroke-linecap="round" stroke-linejoin="round" d="M 385.7539978027344 502.122802734375 C 385.7313537597656 506.4222106933594 383.11541748046875 509.43743896484375 379.12255859375 509.6146240234375 C 375.15826416015625 508.5558776855469 372.488525390625 505.4585876464844 371.7044982910156 501.279296875 C 371.8177795410156 498.4887390136719 375.6127014160156 496.0535583496094 379.2651062011719 494.6498718261719 C 382.7525939941406 495.2142028808594 385.64105224609375 497.9093933105469 385.7539978027344 502.122802734375"/>
    <path stroke-width="0" fill="rgb(208, 31, 137)" opacity="0.7751731" stroke="rgb(0, 0, 0)" stroke-opacity="0.0" stroke-linecap="round" stroke-linejoin="round" d="M 256.6965026855469 263.1504211425781 C 256.32598876953125 266.54620361328125 253.8997802734375 269.7120056152344 249.8685760498047 270.3662414550781 C 246.4617462158203 270.37451171875 244.15829467773438 266.7364501953125 243.43060302734375 262.1793212890625 C 243.04367065429688 258.5155334472656 245.8724822998047 256.16314697265625 249.7952880859375 256.4416809082031 C 253.1162872314453 257.3505554199219 255.67080688476562 260.5684814453125 256.6965026855469 263.1504211425781"/>
    <path stroke-width="0" fill="rgb(61, 70, 239)" opacity="0.5301869" stroke="rgb(0, 0, 0)" stroke-opacity="0.0" stroke-linecap="round" stroke-linejoin="round" d="M 210.1017303466797 304.4388122558594 C 208.10317993164062 307.0187683105469 204.7960968017578 309.6820373535156 202.54788208007812 310.1462097167969 C 199.1201629638672 309.2841491699219 195.45782470703125 307.1640930175781 194.04393005371094 303.3902587890625 C 193.8674774169922 298.5165100097656 196.39007568359375 295.45635986328125 201.43556213378906 295.6467590332031 C 205.93409729003906 296.9339294433594 208.69888305664062 299.98785400390625 210.1017303466797 304.4388122558594"/>
    <path stroke-width="0" fill="rgb(10, 21, 66)" opacity="0.34173477" stroke="rgb(0, 0, 0)" stroke-opacity="0.0" stroke-linecap="round" stroke-linejoin="round" d="M 344.4881286621094 57.192161560058594 C 344.5783386230469 61.45761489868164 342.0762023925781 64.7120361328125 337.4155578613281 65.4549789428711 C 332.6801452636719 64.3125991821289 330.0254821777344 61.11445236206055 329.2962341308594 57.239959716796875 C 330.7799072265625 53.12398910522461 333.2569580078125 49.87645721435547 337.0418395996094 49.678794860839844 C 341.5326232910156 49.964263916015625 344.384765625 52.3526611328125 344.4881286621094 57.192161560058594"/>
    <path stroke-width="0" fill="rgb(247, 67, 38)" opacity="0.59064263" stroke="rgb(0, 0, 0)" stroke-opacity="0.0" stroke-linecap="round" stroke-linejoin="round" d="M 103.25501251220703 106.00133514404297 C 102.41780090332031 110.30841827392578 99.9174575805664 113.36963653564453 96.6203842163086 114.27879333496094 C 92.67113494873047 112.64392852783203 89.40098571777344 110.31903076171875 89.19308471679688 107.1083984375 C 89.70608520507812 103.0909194946289 92.68903350830078 100.63742065429688 96.81105041503906 99.96538543701172 C 100.29759216308594 99.7480697631836 103.07196044921875 102.4117202758789 103.25501251220703 106.00133514404297"/>
    <path stroke-width="0" fill="rgb(155, 127, 177)" opacity="0.21461001" stroke="rgb(0, 0, 0)" stroke-opacity="0.0" stroke-linecap="round" stroke-linejoin="round" d="M 338.19012451171875 37.225074768066406 C 335.98846435546875 40.84276580810547 333.20098876953125 43.92703628540039 329.5396728515625 45.848358154296875 C 326.4436340332031 44.79096221923828 323.65618896484375 41.585079193115234 322.37823486328125 37.600311279296875 C 323.05029296875 33.89167785644531 326.2569885253906 31.496992111206055 330.6418151855469 31.178707122802734 C 334.5313415527344 30.8472900390625 337.6206970214844 33.54426956176758 338.19012451171875 37.225074768066406"/>
    <path stroke-width="0" fill="rgb(126, 129, 214)" opacity="0.31635448" stroke="rgb(0, 0, 0)" stroke-opacity="0.0" stroke-linecap="round" stroke-linejoin="round" d="M -49.43589401245117 -59.57809829711914 C -50.5076904296875 -55.57809829711914 -53.43589401245117 -52.64989471435547 -57.43589401245117 -51.57809829711914 C -61.43589401245117 -52.64989471435547 -64.36409759521484 -55.57809829711914 -65.4358901977539 -59.57809829711914 C -64.36409759521484 -63.57809829711914 -61.43589401245117 -66.50630187988281 -57.43589401245117 -67.5781021118164 C -53.43589401245117 -66.50630187988281 -50.5076904296875 -63.57809829711914 -49.43589401245117 -59.57809829711914"/>
    <path stroke-width="0" fill="rgb(130, 81, 54)" opacity="0.81173116" stroke="rgb(0, 0, 0)" stroke-opacity="0.0" stroke-linecap="round" stroke-linejoin="round" d="M 116.62841796875 379.0550537109375 C 115.12065124511719 383.0785827636719 111.77188110351562 385.4967346191406 107.08465576171875 386.50054931640625 C 103.43242645263672 386.2950134277344 100.2921142578125 383.8804931640625 99.96441650390625 379.695068359375 C 101.79489135742188 375.7626037597656 104.44092559814453 372.38427734375 108.24203491210938 371.51654052734375 C 111.66316223144531 372.5782165527344 114.96765899658203 375.29925537109375 116.62841796875 379.0550537109375"/>
  </g>
</svg>
