<?xml version="1.0" ?>
<svg xmlns="http://www.w3.org/2000/svg" version="1.1" width="512" height="512">
  <defs/>
  <g>
    <path stroke-width="0" fill="rgb(-64, -53, 65)" opacity="1.268341" stroke="rgb(139, 182, 153)" stroke-opacity="1.0" stroke-linecap="round" stroke-linejoin="round" d="M 359.6368103027344 218.8601531982422 C 383.31915283203125 221.29107666015625 274.7152099609375 221.11325073242188 260.2795104980469 215.9635009765625 C 133.80380249023438 214.78680419921875 157.1160125732422 207.7343292236328 156.77902221679688 207.55264282226562 C 212.97999572753906 203.54595947265625 267.3965148925781 207.94288635253906 268.7796325683594 204.891845703125 C 202.4737091064453 211.166015625 250.07427978515625 199.71270751953125 359.6368103027344 218.8601531982422"/>
    <path stroke-width="0" fill="rgb(31, 165, 50)" opacity="0.6120133" stroke="rgb(108, 164, 111)" stroke-opacity="1.0" stroke-linecap="round" stroke-linejoin="round" d="M 248.7626495361328 649.9573364257812 C -233.4463348388672 570.7877197265625 296.69305419921875 107.9661636352539 174.3324432373047 426.9470520019531 C -130.0752716064453 560.205810546875 327.8610534667969 165.22744750976562 31.99938201904297 273.4269714355469 C 118.7846908569336 665.8972778320312 -109.6131591796875 699.7515869140625 -44.533817291259766 -50.19242477416992 C 461.15899658203125 -99.80958557128906 458.9903564453125 -91.19110870361328 248.7626495361328 649.9573364257812"/>
    <path stroke-width="0" fill="rgb(3, 18, 57)" opacity="1.0580647" stroke="rgb(245, 97, 201)" stroke-opacity="1.0" stroke-linecap="round" stroke-linejoin="round" d="M 786.4130249023438 369.2057800292969 C 385.4480285644531 601.6588745117188 211.25765991210938 619.4259033203125 281.9901428222656 310.0544738769531 C 193.00680541992188 347.2329406738281 434.2315368652344 550.3988037109375 496.29156494140625 378.6396789550781 C 520.58056640625 146.33251953125 127.071044921875 386.57305908203125 258.42724609375 -22.321969985961914 C 449.6614074707031 -97.54769134521484 769.5654296875 -107.06083679199219 786.4130249023438 369.2057800292969"/>
    <path stroke-width="0" fill="rgb(-24, -4, 47)" opacity="0.99648637" stroke="rgb(144, 236, 18)" stroke-opacity="1.0" stroke-linecap="round" stroke-linejoin="round" d="M 420.2680358886719 348.6034240722656 C 397.4248352050781 346.7374572753906 402.8318176269531 575.7059326171875 407.26837158203125 367.23223876953125 C 235.6186981201172 367.1614074707031 240.4442901611328 333.0504455566406 332.54595947265625 350.87005615234375 C 440.3182067871094 343.285400390625 393.3663024902344 383.1485900878906 318.7076721191406 165.8848114013672 C 411.4385986328125 345.6664733886719 405.173095703125 346.6743469238281 420.2680358886719 348.6034240722656"/>
    <path stroke-width="0" fill="rgb(30, 19, 14)" opacity="0.87193155" stroke="rgb(5, 212, 198)" stroke-opacity="1.0" stroke-linecap="round" stroke-linejoin="round" d="M 189.19436645507812 144.81468200683594 C 189.57098388671875 169.28271484375 156.16702270507812 168.2127227783203 173.89212036132812 143.92706298828125 C 140.951416015625 292.3817138671875 170.16748046875 221.896240234375 169.18678283691406 152.28680419921875 C 186.73043823242188 177.8653106689453 146.39352416992188 115.65343475341797 148.6063232421875 178.9124755859375 C 180.1536102294922 255.6260986328125 109.73295593261719 106.7882308959961 189.19436645507812 144.81468200683594"/>
    <path stroke-width="0" fill="rgb(254, 230, 269)" opacity="1.0608513" stroke="rgb(249, 203, 117)" stroke-opacity="1.0" stroke-linecap="round" stroke-linejoin="round" d="M 138.15313720703125 275.0198974609375 C 216.2986297607422 300.60662841796875 166.3362274169922 305.2690124511719 131.7921600341797 333.3572998046875 C 147.42298889160156 289.18011474609375 167.00042724609375 270.6640930175781 151.00608825683594 291.7852478027344 C 162.34490966796875 293.58587646484375 176.4846954345703 295.7118225097656 156.2750701904297 290.7224426269531 C 129.54734802246094 277.00848388671875 146.5288543701172 282.3875732421875 138.15313720703125 275.0198974609375"/>
    <path stroke-width="0" fill="rgb(279, 266, 257)" opacity="1.0116664" stroke="rgb(30, 163, 36)" stroke-opacity="1.0" stroke-linecap="round" stroke-linejoin="round" d="M 154.77415466308594 320.02020263671875 C 173.82716369628906 268.1657409667969 242.9644012451172 354.7955627441406 149.42222595214844 319.13226318359375 C 120.46549987792969 343.5798034667969 97.70576477050781 358.5450439453125 120.01655578613281 336.1868896484375 C 158.4584503173828 281.8884582519531 120.97940063476562 241.8323211669922 175.41909790039062 293.3516540527344 C 182.28228759765625 312.3507995605469 183.04873657226562 294.9569091796875 154.77415466308594 320.02020263671875"/>
    <path stroke-width="0" fill="rgb(-12, -5, 53)" opacity="0.96322364" stroke="rgb(133, 105, 67)" stroke-opacity="1.0" stroke-linecap="round" stroke-linejoin="round" d="M 134.55731201171875 442.28900146484375 C 137.71405029296875 478.7868957519531 -20.92848014831543 454.62139892578125 9.798320770263672 335.940673828125 C 14.873656272888184 480.0667419433594 158.65701293945312 443.11090087890625 134.84243774414062 441.8664245605469 C 110.91797637939453 487.91387939453125 301.77020263671875 372.76715087890625 144.3981170654297 249.7972869873047 C 283.5262756347656 418.9346923828125 75.8613510131836 465.4247741699219 134.55731201171875 442.28900146484375"/>
    <path stroke-width="0" fill="rgb(1, -13, 38)" opacity="0.96365976" stroke="rgb(116, 144, 4)" stroke-opacity="1.0" stroke-linecap="round" stroke-linejoin="round" d="M 15.412598609924316 390.50335693359375 C -26.324073791503906 350.1701354980469 -28.873985290527344 379.26983642578125 -27.766992568969727 338.5818176269531 C -7.446192741394043 378.7196960449219 -82.30607604980469 416.8310241699219 24.155229568481445 371.7366638183594 C -24.031641006469727 430.192138671875 -4.585677623748779 188.97042846679688 162.9782257080078 265.18328857421875 C -59.8515625 216.09735107421875 33.26818084716797 505.10394287109375 15.412598609924316 390.50335693359375"/>
    <path stroke-width="0" fill="rgb(278, 256, 252)" opacity="1.0239166" stroke="rgb(156, 157, 240)" stroke-opacity="1.0" stroke-linecap="round" stroke-linejoin="round" d="M 359.87188720703125 276.0921325683594 C 335.0353698730469 376.7261657714844 388.066650390625 321.1158752441406 298.7443542480469 354.3289489746094 C 302.8275451660156 316.0771789550781 317.2403869628906 277.9112854003906 337.47869873046875 291.1366271972656 C 319.2824401855469 271.15240478515625 312.6656494140625 305.27935791015625 356.2901306152344 318.7662048339844 C 272.8912353515625 286.50439453125 385.2522888183594 248.73110961914062 359.87188720703125 276.0921325683594"/>
    <path stroke-width="0" fill="rgb(1, -12, 67)" opacity="1.0447786" stroke="rgb(91, 111, 177)" stroke-opacity="1.0" stroke-linecap="round" stroke-linejoin="round" d="M 122.85279846191406 309.79132080078125 C 122.53797149658203 305.0721740722656 106.35521697998047 361.40093994140625 122.43699645996094 327.51519775390625 C 109.9223403930664 335.69207763671875 158.88365173339844 166.80882263183594 183.54965209960938 150.8064422607422 C 129.8456573486328 333.7535400390625 128.1470489501953 332.8045654296875 116.04524993896484 319.78717041015625 C 135.1199951171875 285.11126708984375 121.11715698242188 295.2952575683594 122.85279846191406 309.79132080078125"/>
    <path stroke-width="0" fill="rgb(-18, 0, 20)" opacity="1.0472436" stroke="rgb(170, 171, 53)" stroke-opacity="1.0" stroke-linecap="round" stroke-linejoin="round" d="M 130.4573974609375 283.9787292480469 C 100.96375274658203 415.6824645996094 121.83361053466797 290.8804016113281 100.25566864013672 398.5386962890625 C 115.90080261230469 310.7274169921875 104.98511505126953 401.2759094238281 91.19654083251953 341.1204528808594 C 82.05841827392578 327.8916931152344 130.17127990722656 395.2303466796875 52.17128372192383 252.93045043945312 C 115.85931396484375 355.2457580566406 90.4518051147461 376.171630859375 130.4573974609375 283.9787292480469"/>
    <path stroke-width="0" fill="rgb(-6, -12, 59)" opacity="1.0116549" stroke="rgb(80, 92, 145)" stroke-opacity="1.0" stroke-linecap="round" stroke-linejoin="round" d="M 306.000732421875 299.7253112792969 C 293.1335144042969 285.48553466796875 291.7492370605469 299.4648132324219 265.8292541503906 308.675048828125 C 304.54730224609375 182.34744262695312 253.95774841308594 463.1618957519531 390.1797790527344 446.2296142578125 C 243.8583526611328 404.7293701171875 326.8427734375 187.49520874023438 486.3777770996094 287.5164794921875 C 348.2852783203125 147.67391967773438 275.9018249511719 385.09356689453125 306.000732421875 299.7253112792969"/>
    <path stroke-width="0" fill="rgb(113, 195, 125)" opacity="1.015091" stroke="rgb(252, 26, 53)" stroke-opacity="1.0" stroke-linecap="round" stroke-linejoin="round" d="M 387.2939147949219 203.71292114257812 C 287.5936279296875 208.34307861328125 292.89935302734375 215.60594177246094 375.0708312988281 210.69773864746094 C 236.61964416503906 205.39279174804688 180.12539672851562 198.4086151123047 166.26260375976562 200.65182495117188 C 252.34878540039062 137.7351837158203 150.05055236816406 14.453640937805176 422.4746398925781 99.96806335449219 C 452.0606384277344 220.4201202392578 264.8722839355469 104.752197265625 387.2939147949219 203.71292114257812"/>
    <path stroke-width="0" fill="rgb(160, 166, 144)" opacity="0.85774803" stroke="rgb(166, 64, 118)" stroke-opacity="1.0" stroke-linecap="round" stroke-linejoin="round" d="M 329.90313720703125 243.3336639404297 C 287.5639343261719 283.6916809082031 278.78607177734375 324.5887756347656 236.62271118164062 354.1407470703125 C 220.12313842773438 347.04693603515625 217.69012451171875 334.7224426269531 230.96939086914062 260.78070068359375 C 226.98390197753906 230.018310546875 226.31167602539062 214.45260620117188 272.1474304199219 218.98609924316406 C 354.3495178222656 217.69505310058594 336.54791259765625 212.9629364013672 329.90313720703125 243.3336639404297"/>
    <path stroke-width="0" fill="rgb(51, 119, 181)" opacity="0.86301666" stroke="rgb(40, 28, 167)" stroke-opacity="1.0" stroke-linecap="round" stroke-linejoin="round" d="M 309.6260986328125 263.7473449707031 C 311.9807434082031 263.8353271484375 313.96173095703125 273.27679443359375 302.5242004394531 274.8455505371094 C 321.4275817871094 266.0494079589844 329.4397277832031 256.8789367675781 321.0621032714844 246.79310607910156 C 327.3634948730469 249.6384735107422 322.2561340332031 219.66839599609375 308.06427001953125 269.2965087890625 C 263.2838439941406 322.4579162597656 333.3019104003906 307.1713562011719 309.6260986328125 263.7473449707031"/>
    <path stroke-width="0" fill="rgb(105, 204, 120)" opacity="0.7042172" stroke="rgb(50, 94, 209)" stroke-opacity="1.0" stroke-linecap="round" stroke-linejoin="round" d="M 440.8962097167969 458.40484619140625 C 436.2791748046875 478.81005859375 248.47686767578125 481.413818359375 428.7001953125 468.7305603027344 C 150.18124389648438 628.4380493164062 356.7537841796875 304.647216796875 201.34298706054688 377.5803527832031 C 222.77232360839844 291.9615783691406 134.0646514892578 254.83644104003906 203.65834045410156 300.9461975097656 C 330.9567565917969 360.39349365234375 286.759521484375 464.90093994140625 440.8962097167969 458.40484619140625"/>
    <path stroke-width="0" fill="rgb(10, -12, 58)" opacity="0.9299576" stroke="rgb(213, 24, 248)" stroke-opacity="1.0" stroke-linecap="round" stroke-linejoin="round" d="M 248.3869171142578 276.3530578613281 C 228.29254150390625 195.37770080566406 131.75534057617188 233.11285400390625 155.65927124023438 205.842041015625 C 335.959228515625 216.05679321289062 354.1400451660156 192.90353393554688 262.3924255371094 215.03411865234375 C 291.2940673828125 218.59913635253906 356.4181823730469 255.9633026123047 338.93670654296875 207.90184020996094 C 252.19720458984375 195.6058807373047 252.90463256835938 243.6966094970703 248.3869171142578 276.3530578613281"/>
    <path stroke-width="0" fill="rgb(-1, 3, 101)" opacity="1.0080715" stroke="rgb(249, 154, 188)" stroke-opacity="1.0" stroke-linecap="round" stroke-linejoin="round" d="M 324.718505859375 234.5831298828125 C 256.4341125488281 295.3438720703125 205.51625061035156 284.0762634277344 235.58551025390625 268.3229675292969 C 214.65762329101562 277.8056335449219 206.87364196777344 281.7689208984375 185.5919952392578 255.72389221191406 C 139.46084594726562 285.57318115234375 151.68701171875 211.34715270996094 185.18040466308594 227.26307678222656 C 264.7257995605469 217.00782775878906 313.0654602050781 217.9224395751953 324.718505859375 234.5831298828125"/>
    <path stroke-width="0" fill="rgb(-1, 41, 0)" opacity="0.19686128" stroke="rgb(72, 30, 75)" stroke-opacity="1.0" stroke-linecap="round" stroke-linejoin="round" d="M 213.68841552734375 28.261394500732422 C -28.99740219116211 149.0146942138672 113.9131851196289 183.7923126220703 5.171349048614502 351.8096618652344 C -90.7962417602539 155.95774841308594 -36.617305755615234 116.77466583251953 -31.712446212768555 36.70023727416992 C -31.88047218322754 10.4307222366333 -24.965839385986328 4.1932501792907715 12.060745239257812 -3.8985612392425537 C 86.83008575439453 -2.6463379859924316 169.6218719482422 -69.07942962646484 213.68841552734375 28.261394500732422"/>
    <path stroke-width="0" fill="rgb(105, 173, 111)" opacity="0.7283443" stroke="rgb(81, 105, 16)" stroke-opacity="1.0" stroke-linecap="round" stroke-linejoin="round" d="M 292.33551025390625 54.15037536621094 C 3.0489566326141357 91.89662170410156 164.0762939453125 228.14291381835938 32.79862976074219 275.6817626953125 C 13.556774139404297 80.30304718017578 173.78529357910156 29.344820022583008 199.61019897460938 19.014223098754883 C 48.262935638427734 16.39961814880371 89.63722229003906 -61.36531448364258 132.95343017578125 -87.6413345336914 C 158.8822021484375 -112.56051635742188 209.48602294921875 -180.36387634277344 292.33551025390625 54.15037536621094"/>
    <path stroke-width="0" fill="rgb(126, 188, 138)" opacity="0.704768" stroke="rgb(144, 67, 133)" stroke-opacity="1.0" stroke-linecap="round" stroke-linejoin="round" d="M 329.9757385253906 -20.05478858947754 C 290.684814453125 217.24891662597656 211.7344512939453 179.11279296875 221.14242553710938 187.1776580810547 C 158.8221435546875 199.93194580078125 166.00865173339844 223.4467010498047 180.33319091796875 166.4859161376953 C 271.6882629394531 171.5077362060547 165.21148681640625 78.28595733642578 101.94966888427734 218.49130249023438 C 192.65863037109375 15.360207557678223 344.3157043457031 22.050636291503906 329.9757385253906 -20.05478858947754"/>
    <path stroke-width="0" fill="rgb(-3, -7, 64)" opacity="1.0016073" stroke="rgb(146, 236, 81)" stroke-opacity="1.0" stroke-linecap="round" stroke-linejoin="round" d="M 394.43597412109375 357.927001953125 C 414.8173522949219 389.7384033203125 328.7209167480469 355.7669372558594 242.9360809326172 414.2518615722656 C 341.3509521484375 350.4788818359375 270.4935302734375 441.1293640136719 203.9177703857422 315.57916259765625 C 132.84434509277344 196.6512451171875 112.04703521728516 264.3431396484375 329.7761535644531 216.24530029296875 C 297.5749206542969 395.3864440917969 250.5467987060547 361.3573303222656 394.43597412109375 357.927001953125"/>
    <path stroke-width="0" fill="rgb(140, 243, 210)" opacity="1.0446401" stroke="rgb(33, 182, 73)" stroke-opacity="1.0" stroke-linecap="round" stroke-linejoin="round" d="M 305.70654296875 277.84295654296875 C 266.2166748046875 366.25189208984375 312.61614990234375 310.42254638671875 270.94384765625 340.7276306152344 C 244.9876251220703 289.68487548828125 222.64967346191406 257.8373718261719 174.96383666992188 233.54750061035156 C 159.679443359375 215.94757080078125 133.09915161132812 220.0072021484375 275.3499755859375 218.68405151367188 C 366.0945129394531 224.7647705078125 333.4286193847656 194.2911834716797 305.70654296875 277.84295654296875"/>
    <path stroke-width="0" fill="rgb(125, 188, 121)" opacity="0.75758713" stroke="rgb(149, 5, 211)" stroke-opacity="1.0" stroke-linecap="round" stroke-linejoin="round" d="M 520.7291259765625 348.02630615234375 C 414.7076110839844 137.08897399902344 381.1121520996094 214.294189453125 380.58831787109375 225.97860717773438 C 304.4082336425781 99.35218048095703 268.9443664550781 55.51970291137695 108.19950103759766 143.8504180908203 C 172.9022216796875 -0.6064504384994507 215.1284637451172 55.258392333984375 295.9526062011719 -29.810035705566406 C 494.49603271484375 -49.40734100341797 597.7794799804688 -60.22636413574219 520.7291259765625 348.02630615234375"/>
    <path stroke-width="0" fill="rgb(132, 196, 111)" opacity="0.99906605" stroke="rgb(172, 68, 187)" stroke-opacity="1.0" stroke-linecap="round" stroke-linejoin="round" d="M 473.23004150390625 269.3230285644531 C 513.946044921875 298.8981628417969 446.5378723144531 220.71234130859375 362.0063171386719 253.7624969482422 C 344.90338134765625 219.85223388671875 319.0033874511719 195.7796630859375 355.9630432128906 158.502685546875 C 258.24072265625 128.99032592773438 273.10272216796875 164.82891845703125 367.86669921875 177.1997833251953 C 485.2105407714844 96.32891082763672 476.903076171875 159.81466674804688 473.23004150390625 269.3230285644531"/>
    <path stroke-width="0" fill="rgb(9, 5, 43)" opacity="1.0380026" stroke="rgb(63, 146, 150)" stroke-opacity="1.0" stroke-linecap="round" stroke-linejoin="round" d="M 308.6687316894531 271.39276123046875 C 342.0205078125 167.48052978515625 358.2553405761719 175.06370544433594 324.8811950683594 259.7183532714844 C 324.6529235839844 260.2361145019531 326.9300231933594 251.1930694580078 322.4851989746094 260.89697265625 C 323.80499267578125 256.98883056640625 324.41094970703125 262.4887390136719 322.7747497558594 260.3453674316406 C 324.7531433105469 259.2185974121094 318.9310302734375 280.31597900390625 308.6687316894531 271.39276123046875"/>
    <path stroke-width="0" fill="rgb(106, 156, 84)" opacity="0.5681868" stroke="rgb(56, 242, 114)" stroke-opacity="1.0" stroke-linecap="round" stroke-linejoin="round" d="M 15.374836921691895 162.60079956054688 C -11.41724967956543 349.2652587890625 19.047739028930664 82.93560028076172 -21.915376663208008 66.64300537109375 C -33.61650848388672 65.88433074951172 -35.86575698852539 55.43598556518555 -33.13859939575195 39.857173919677734 C -1.423429012298584 -12.4551420211792 19.079315185546875 -48.30388641357422 263.77093505859375 19.727872848510742 C 238.8218231201172 78.83390045166016 140.68544006347656 -91.87162780761719 15.374836921691895 162.60079956054688"/>
    <path stroke-width="0" fill="rgb(-11, -12, 59)" opacity="0.9328196" stroke="rgb(178, 75, 207)" stroke-opacity="1.0" stroke-linecap="round" stroke-linejoin="round" d="M 487.260009765625 451.7346496582031 C 538.3513793945312 275.2832336425781 436.0104675292969 290.13262939453125 466.13653564453125 259.5914306640625 C 526.478515625 303.54022216796875 501.6474914550781 331.9407958984375 510.6507568359375 314.662841796875 C 510.3921203613281 406.5662536621094 502.9708557128906 415.3656005859375 497.5883483886719 371.77435302734375 C 497.3160705566406 462.7808532714844 299.56866455078125 455.7442321777344 487.260009765625 451.7346496582031"/>
    <path stroke-width="0" fill="rgb(32, 126, -3)" opacity="0.8930498" stroke="rgb(224, 148, 224)" stroke-opacity="1.0" stroke-linecap="round" stroke-linejoin="round" d="M 60.27206039428711 482.76873779296875 C 25.92866325378418 419.8477478027344 41.718353271484375 450.27557373046875 56.37071990966797 542.52490234375 C -17.725698471069336 506.0888977050781 -8.376043319702148 479.2503662109375 -7.569640636444092 438.2978210449219 C -33.01327133178711 414.1166687011719 -26.176368713378906 418.0024108886719 2.843317985534668 427.4858703613281 C 39.2484130859375 441.9267883300781 26.79246711730957 453.2137145996094 60.27206039428711 482.76873779296875"/>
    <path stroke-width="0" fill="rgb(41, 95, 81)" opacity="0.6063623" stroke="rgb(184, 127, 243)" stroke-opacity="1.0" stroke-linecap="round" stroke-linejoin="round" d="M 125.0930404663086 458.52630615234375 C 73.52749633789062 459.8130798339844 69.07115936279297 486.36871337890625 59.209651947021484 492.90740966796875 C 13.083498001098633 490.0100402832031 71.47298431396484 436.0097961425781 -14.428622245788574 433.1953430175781 C -13.449408531188965 396.7617492675781 -18.880815505981445 377.721923828125 3.6034939289093018 377.43658447265625 C 17.691373825073242 430.76153564453125 63.76769256591797 463.7085266113281 125.0930404663086 458.52630615234375"/>
    <path stroke-width="0" fill="rgb(190, 172, 138)" opacity="0.8160747" stroke="rgb(108, 154, 4)" stroke-opacity="1.0" stroke-linecap="round" stroke-linejoin="round" d="M 99.98997497558594 363.74853515625 C 81.37583923339844 396.06732177734375 60.841461181640625 441.0960693359375 64.87418365478516 428.61944580078125 C 63.94820022583008 435.27825927734375 43.057586669921875 405.8276672363281 23.299062728881836 397.14837646484375 C -9.749349594116211 318.7801818847656 29.499006271362305 354.1722106933594 100.7254638671875 343.6546630859375 C 97.68632507324219 361.9494934082031 49.149478912353516 412.25531005859375 99.98997497558594 363.74853515625"/>
    <path stroke-width="0" fill="rgb(47, 138, 105)" opacity="0.7723034" stroke="rgb(168, 73, 157)" stroke-opacity="1.0" stroke-linecap="round" stroke-linejoin="round" d="M 167.75701904296875 441.0188293457031 C 308.55670166015625 501.8184814453125 198.33815002441406 548.3468627929688 34.1055908203125 548.8031616210938 C 11.251142501831055 543.2071533203125 3.708277463912964 537.02392578125 9.504833221435547 532.1619873046875 C 32.03596496582031 463.4844970703125 28.435894012451172 451.82122802734375 39.27320098876953 459.6220397949219 C 125.0320816040039 468.4557800292969 148.1025390625 445.9427795410156 167.75701904296875 441.0188293457031"/>
    <path stroke-width="0" fill="rgb(-8, 13, 102)" opacity="1.0315399" stroke="rgb(34, 76, 145)" stroke-opacity="1.0" stroke-linecap="round" stroke-linejoin="round" d="M 170.13525390625 144.3893585205078 C 162.80758666992188 153.40261840820312 157.59674072265625 152.7442626953125 190.95925903320312 147.9873504638672 C 190.47679138183594 139.767333984375 176.84805297851562 143.69422912597656 155.64370727539062 148.88906860351562 C 189.26243591308594 150.05865478515625 199.3843231201172 150.63265991210938 168.08224487304688 168.62928771972656 C 154.30908203125 159.7722625732422 141.22726440429688 164.84625244140625 170.13525390625 144.3893585205078"/>
    <path stroke-width="0" fill="rgb(64, 138, 92)" opacity="0.95998484" stroke="rgb(146, 166, 166)" stroke-opacity="1.0" stroke-linecap="round" stroke-linejoin="round" d="M 62.80158996582031 526.953369140625 C 47.256099700927734 539.38818359375 38.75363540649414 545.7471313476562 27.42095375061035 546.61962890625 C -6.0 521.3204956054688 -13.320508003234863 514.0 -38.80558395385742 480.6279602050781 C -40.4522590637207 466.5654296875 -39.41844177246094 450.3391418457031 8.30440616607666 389.5544128417969 C 59.0747184753418 482.1874084472656 131.74009704589844 479.5588684082031 62.80158996582031 526.953369140625"/>
    <path stroke-width="0" fill="rgb(125, 189, 111)" opacity="0.9929121" stroke="rgb(182, 254, 38)" stroke-opacity="1.0" stroke-linecap="round" stroke-linejoin="round" d="M 525.294677734375 377.19293212890625 C 581.2283935546875 359.6286315917969 479.5481872558594 265.11163330078125 431.2951965332031 239.74581909179688 C 467.27777099609375 149.49850463867188 318.3170471191406 40.03139114379883 249.6485595703125 79.87580108642578 C 58.34560012817383 -20.35886573791504 305.879150390625 -46.961753845214844 374.193359375 -5.465539455413818 C 426.8855895996094 3.3001151084899902 555.8815307617188 7.0902886390686035 525.294677734375 377.19293212890625"/>
    <path stroke-width="0" fill="rgb(104, 110, 127)" opacity="0.5142888" stroke="rgb(41, 156, 31)" stroke-opacity="1.0" stroke-linecap="round" stroke-linejoin="round" d="M 102.44561767578125 482.6452331542969 C 155.22042846679688 507.8697814941406 68.84136962890625 521.9393920898438 68.85662078857422 522.6901245117188 C 50.79853057861328 485.38909912109375 54.007293701171875 424.99346923828125 71.259033203125 485.5589294433594 C -3.051438570022583 408.19476318359375 -11.669498443603516 412.4975891113281 29.228151321411133 449.7707214355469 C 82.5688247680664 449.8901062011719 82.37913513183594 463.372314453125 102.44561767578125 482.6452331542969"/>
    <path stroke-width="0" fill="rgb(66, 142, 94)" opacity="0.6955889" stroke="rgb(205, 145, 103)" stroke-opacity="1.0" stroke-linecap="round" stroke-linejoin="round" d="M 66.4248046875 450.2867736816406 C 179.70901489257812 493.7861022949219 202.66419982910156 539.44287109375 50.561187744140625 509.7112731933594 C -31.1072940826416 446.7109680175781 -37.41960144042969 391.5982971191406 71.47643280029297 503.7823791503906 C -26.126506805419922 434.6144714355469 -18.544010162353516 439.9906921386719 17.446264266967773 436.0738525390625 C 6.096436977386475 386.8793029785156 14.377959251403809 428.4006042480469 66.4248046875 450.2867736816406"/>
    <path stroke-width="0" fill="rgb(80, 134, 99)" opacity="0.49475783" stroke="rgb(177, 115, 184)" stroke-opacity="1.0" stroke-linecap="round" stroke-linejoin="round" d="M 96.95294189453125 496.8458251953125 C 69.3433609008789 533.3934936523438 59.67922592163086 538.7011108398438 70.56298065185547 526.0558471679688 C 26.70591926574707 480.5196228027344 -42.165138244628906 497.29296875 -56.87710952758789 502.54736328125 C -1.0405356884002686 455.7156066894531 -11.923786163330078 460.8006896972656 -21.373584747314453 447.9182434082031 C 27.579273223876953 434.73699951171875 29.279041290283203 471.01898193359375 96.95294189453125 496.8458251953125"/>
    <path stroke-width="0" fill="rgb(281, -14, 36)" opacity="0.8020399" stroke="rgb(248, 218, 2)" stroke-opacity="1.0" stroke-linecap="round" stroke-linejoin="round" d="M 365.2159423828125 172.90972900390625 C 348.7101745605469 179.1409912109375 350.0791931152344 173.55233764648438 321.7146911621094 166.25375366210938 C 330.5614929199219 174.2394256591797 310.2137451171875 145.69320678710938 336.0862731933594 166.17691040039062 C 370.3352966308594 191.1109619140625 348.854736328125 154.33975219726562 338.0020751953125 205.24537658691406 C 345.4845275878906 218.514404296875 349.08306884765625 175.3180694580078 365.2159423828125 172.90972900390625"/>
    <path stroke-width="0" fill="rgb(4, -6, 33)" opacity="1.034888" stroke="rgb(186, 43, 132)" stroke-opacity="1.0" stroke-linecap="round" stroke-linejoin="round" d="M 180.09780883789062 302.8573913574219 C 192.37156677246094 265.4609680175781 117.5549087524414 249.06077575683594 148.9249725341797 249.7661590576172 C 164.64895629882812 255.53475952148438 139.08120727539062 236.6741485595703 135.2835235595703 255.7537841796875 C 138.27195739746094 251.24476623535156 191.12582397460938 246.0366973876953 83.0816879272461 262.1170959472656 C 123.62857818603516 256.85675048828125 164.5472869873047 270.70672607421875 180.09780883789062 302.8573913574219"/>
    <path stroke-width="0" fill="rgb(60, 144, 112)" opacity="0.4339845" stroke="rgb(50, 4, 202)" stroke-opacity="1.0" stroke-linecap="round" stroke-linejoin="round" d="M 252.49949645996094 452.675537109375 C 242.26280212402344 579.3016967773438 138.697998046875 553.1509399414062 158.39598083496094 562.7229614257812 C 218.198974609375 472.3935852050781 146.4872589111328 404.249267578125 130.8694610595703 482.3565979003906 C 53.97353744506836 448.3074035644531 93.669189453125 483.9237976074219 76.53201293945312 452.10101318359375 C 171.26815795898438 473.1326599121094 147.5665740966797 403.87689208984375 252.49949645996094 452.675537109375"/>
    <path stroke-width="0" fill="rgb(253, 255, 256)" opacity="0.95509356" stroke="rgb(88, 236, 179)" stroke-opacity="1.0" stroke-linecap="round" stroke-linejoin="round" d="M 88.90200805664062 361.801513671875 C 113.77057647705078 390.60040283203125 7.91595458984375 400.6069030761719 25.742170333862305 392.4096984863281 C 89.66612243652344 404.4297790527344 108.66458892822266 338.3612365722656 59.14399719238281 437.0194396972656 C 17.047475814819336 390.77679443359375 3.655482530593872 403.0276184082031 74.60325622558594 369.4757385253906 C 4.410661220550537 411.2198486328125 29.159080505371094 399.68194580078125 88.90200805664062 361.801513671875"/>
    <path stroke-width="0" fill="rgb(102, 148, 108)" opacity="0.25384337" stroke="rgb(41, 158, 147)" stroke-opacity="1.0" stroke-linecap="round" stroke-linejoin="round" d="M 386.85943603515625 13.481070518493652 C 192.24754333496094 -9.706358909606934 274.8382873535156 104.23145294189453 522.026611328125 109.03023529052734 C 502.2083740234375 -85.3016586303711 40.71430587768555 -61.23434829711914 -8.235761642456055 279.7137145996094 C -39.786556243896484 -39.96816635131836 311.0515441894531 -46.63103485107422 297.73907470703125 -25.995647430419922 C 396.6878662109375 0.4008481502532959 412.2085876464844 14.016703605651855 386.85943603515625 13.481070518493652"/>
    <path stroke-width="0" fill="rgb(109, 200, 133)" opacity="0.47345084" stroke="rgb(238, 156, 136)" stroke-opacity="1.0" stroke-linecap="round" stroke-linejoin="round" d="M 450.0384521484375 251.57757568359375 C 331.6540832519531 217.28846740722656 438.0883483886719 5.857274055480957 429.564697265625 121.24498748779297 C 115.46719360351562 163.9643096923828 190.38304138183594 85.68862915039062 83.3182373046875 250.57984924316406 C -14.002863883972168 68.9284896850586 453.01873779296875 -1.2163426876068115 326.6419677734375 38.20060729980469 C 302.9114685058594 10.1651029586792 523.5833129882812 30.954984664916992 450.0384521484375 251.57757568359375"/>
    <path stroke-width="0" fill="rgb(42, 146, 118)" opacity="0.9944259" stroke="rgb(186, 79, 101)" stroke-opacity="1.0" stroke-linecap="round" stroke-linejoin="round" d="M 544.5935668945312 326.59478759765625 C 547.3452758789062 544.0161743164062 540.02099609375 551.331298828125 442.2264709472656 579.9821166992188 C 289.2713928222656 689.2523193359375 221.79647827148438 742.5154418945312 215.478271484375 470.6827392578125 C 347.62701416015625 410.9018859863281 424.2293395996094 509.1777038574219 497.0235900878906 406.80743408203125 C 551.9417114257812 282.30712890625 404.18634033203125 229.9623260498047 544.5935668945312 326.59478759765625"/>
    <path stroke-width="0" fill="rgb(133, 173, 20)" opacity="0.026161136" stroke="rgb(47, 240, 188)" stroke-opacity="1.0" stroke-linecap="round" stroke-linejoin="round" d="M 404.2789001464844 292.6942138671875 C 405.4940185546875 286.2708740234375 422.3918762207031 270.5865173339844 409.17706298828125 347.34197998046875 C 402.25286865234375 250.2933349609375 400.95477294921875 271.18475341796875 414.96343994140625 285.7643737792969 C 411.1294250488281 272.27862548828125 407.0623779296875 250.1024169921875 399.87603759765625 260.7842102050781 C 406.988525390625 242.28921508789062 406.13677978515625 299.23052978515625 404.2789001464844 292.6942138671875"/>
    <path stroke-width="0" fill="rgb(56, 144, 98)" opacity="0.31266975" stroke="rgb(57, 64, 14)" stroke-opacity="1.0" stroke-linecap="round" stroke-linejoin="round" d="M 141.17233276367188 464.1932067871094 C 249.1907196044922 507.8846130371094 155.3379364013672 509.3909606933594 57.1644172668457 550.0966796875 C 42.44731140136719 537.2024536132812 37.819068908691406 530.1972045898438 95.03239440917969 514.5111083984375 C -84.47236633300781 405.7481384277344 7.067486763000488 429.41375732421875 82.11441802978516 489.7409362792969 C 12.162450790405273 410.38421630859375 26.03243064880371 453.0513610839844 141.17233276367188 464.1932067871094"/>
    <path stroke-width="0" fill="rgb(307, 14, -15)" opacity="0.9947306" stroke="rgb(79, 177, 96)" stroke-opacity="1.0" stroke-linecap="round" stroke-linejoin="round" d="M 160.7289581298828 153.46224975585938 C 179.34950256347656 149.3927764892578 166.60751342773438 148.21566772460938 165.31585693359375 152.74305725097656 C 166.19911193847656 149.74557495117188 177.4972381591797 148.9683380126953 165.59902954101562 150.89967346191406 C 180.461669921875 149.36961364746094 205.62615966796875 158.47679138183594 192.5357208251953 140.0548095703125 C 123.99385833740234 132.26873779296875 137.90048217773438 180.09457397460938 160.7289581298828 153.46224975585938"/>
    <path stroke-width="0" fill="rgb(71, 137, 79)" opacity="0.70143884" stroke="rgb(6, 17, 173)" stroke-opacity="1.0" stroke-linecap="round" stroke-linejoin="round" d="M 16.29352569580078 437.2607421875 C 31.48886489868164 439.06549072265625 35.7783088684082 434.4139099121094 -63.90329360961914 447.9435119628906 C -25.437917709350586 456.98138427734375 -32.49625015258789 449.58746337890625 -45.60750198364258 424.2211608886719 C -70.35572814941406 352.4736022949219 -52.401397705078125 353.9585876464844 1.662808895111084 363.4976806640625 C 17.82872772216797 418.0043029785156 33.01743698120117 431.395751953125 16.29352569580078 437.2607421875"/>
    <path stroke-width="0" fill="rgb(116, 198, 125)" opacity="0.8443222" stroke="rgb(136, 228, 252)" stroke-opacity="1.0" stroke-linecap="round" stroke-linejoin="round" d="M 462.4281311035156 225.64056396484375 C 408.8096923828125 326.4200439453125 447.7720947265625 72.64582824707031 257.46197509765625 91.5850601196289 C 247.14817810058594 91.44970703125 242.5607147216797 27.751665115356445 78.73192596435547 163.7426300048828 C 151.0623321533203 19.734407424926758 310.4165344238281 17.8905086517334 367.13873291015625 -7.937276840209961 C 277.9288024902344 33.6164436340332 436.268798828125 21.08414649963379 462.4281311035156 225.64056396484375"/>
    <path stroke-width="0" fill="rgb(56, 155, 103)" opacity="0.49036235" stroke="rgb(169, 67, 5)" stroke-opacity="1.0" stroke-linecap="round" stroke-linejoin="round" d="M 369.7043762207031 451.5420837402344 C 259.3545227050781 549.1701049804688 130.83082580566406 384.390869140625 113.46125793457031 609.5302124023438 C 87.05445098876953 561.8491821289062 110.97525787353516 535.2816162109375 88.17196655273438 537.8238525390625 C 254.14817810058594 605.6466064453125 198.62008666992188 411.7711181640625 137.02235412597656 461.0368347167969 C 192.47604370117188 413.02032470703125 213.9554443359375 376.4609375 369.7043762207031 451.5420837402344"/>
    <path stroke-width="0" fill="rgb(124, 188, 112)" opacity="0.8448779" stroke="rgb(81, 97, 150)" stroke-opacity="1.0" stroke-linecap="round" stroke-linejoin="round" d="M 595.7215576171875 207.8636016845703 C 360.7303161621094 70.32313537597656 267.9127197265625 -73.93971252441406 267.5324401855469 101.33890533447266 C 324.7711181640625 119.55023193359375 301.68377685546875 118.63160705566406 261.3871765136719 106.39261627197266 C 304.5817565917969 0.550685465335846 221.12591552734375 -57.141502380371094 424.0058898925781 -39.38629913330078 C 427.3410949707031 -14.742232322692871 514.2337036132812 -19.37124252319336 595.7215576171875 207.8636016845703"/>
    <path stroke-width="0" fill="rgb(81, 133, 91)" opacity="0.39876917" stroke="rgb(160, 222, 69)" stroke-opacity="1.0" stroke-linecap="round" stroke-linejoin="round" d="M -1.1899651288986206 469.6471862792969 C 32.41438293457031 478.48809814453125 31.49294090270996 485.4859313964844 -21.726118087768555 479.08685302734375 C 10.457038879394531 452.3590087890625 -18.080373764038086 413.81536865234375 -30.1299991607666 414.26678466796875 C -29.795747756958008 421.0752258300781 -21.742794036865234 415.0025329589844 -17.087017059326172 415.8564758300781 C 30.0279598236084 429.54229736328125 22.8593807220459 463.2766418457031 -1.1899651288986206 469.6471862792969"/>
    <path stroke-width="0" fill="rgb(122, 205, 99)" opacity="0.9010598" stroke="rgb(47, 242, 175)" stroke-opacity="1.0" stroke-linecap="round" stroke-linejoin="round" d="M 330.4333190917969 248.08035278320312 C 336.43157958984375 220.00149536132812 326.3587341308594 288.6249084472656 349.1789245605469 256.3828125 C 344.29266357421875 225.2762908935547 367.0080261230469 248.48867797851562 351.59539794921875 211.72836303710938 C 378.4950866699219 219.62005615234375 383.2539978027344 235.37249755859375 355.69134521484375 234.6432647705078 C 343.08477783203125 257.7348327636719 341.9311828613281 195.22659301757812 330.4333190917969 248.08035278320312"/>
    <path stroke-width="0" fill="rgb(52, -6, -51)" opacity="0.7576531" stroke="rgb(241, 186, 64)" stroke-opacity="1.0" stroke-linecap="round" stroke-linejoin="round" d="M 541.235107421875 347.54315185546875 C 407.411865234375 389.037109375 438.2069091796875 297.3893737792969 446.277587890625 362.4443054199219 C 387.5558776855469 334.2840576171875 425.9825439453125 343.567138671875 413.1340637207031 341.4324951171875 C 531.637939453125 190.52720642089844 389.26806640625 339.2557373046875 408.04193115234375 399.94915771484375 C 401.0896911621094 315.1414794921875 469.8621826171875 378.4789733886719 541.235107421875 347.54315185546875"/>
    <path stroke-width="0" fill="rgb(118, 190, 126)" opacity="0.8279621" stroke="rgb(132, 6, 52)" stroke-opacity="1.0" stroke-linecap="round" stroke-linejoin="round" d="M 341.2207946777344 114.6698226928711 C 366.57366943359375 152.97462463378906 438.8185119628906 168.72683715820312 299.1667175292969 158.97793579101562 C 138.6370086669922 142.18507385253906 215.50254821777344 216.38255310058594 191.36663818359375 122.32879638671875 C 273.9763488769531 119.5229263305664 318.0255126953125 45.738861083984375 128.7317352294922 126.06204223632812 C 258.09503173828125 74.76004028320312 271.46502685546875 102.66727447509766 341.2207946777344 114.6698226928711"/>
    <path stroke-width="0" fill="rgb(-21, 32, -38)" opacity="0.3586711" stroke="rgb(95, 118, 70)" stroke-opacity="1.0" stroke-linecap="round" stroke-linejoin="round" d="M 412.97003173828125 258.4984436035156 C 414.1750183105469 255.56495666503906 403.5870056152344 227.8858184814453 406.0936584472656 304.1224670410156 C 407.5989990234375 221.67799377441406 397.8216247558594 257.7860412597656 405.6857604980469 248.5306854248047 C 405.7252502441406 251.81663513183594 406.5977478027344 247.35313415527344 402.4634094238281 249.246337890625 C 404.769287109375 257.4798278808594 407.00439453125 246.64947509765625 412.97003173828125 258.4984436035156"/>
    <path stroke-width="0" fill="rgb(25, 96, 6)" opacity="0.6981382" stroke="rgb(182, 100, 144)" stroke-opacity="1.0" stroke-linecap="round" stroke-linejoin="round" d="M 101.18061828613281 446.2789001464844 C 106.46619415283203 365.1714782714844 101.9978256225586 424.69525146484375 104.3745346069336 444.6542053222656 C 101.92594909667969 447.5289611816406 103.82237243652344 439.2716979980469 101.27323150634766 445.83367919921875 C 104.1714859008789 448.8486633300781 106.21409606933594 443.8756103515625 98.96569061279297 446.32049560546875 C 104.30693054199219 452.21197509765625 102.3336410522461 445.53497314453125 101.18061828613281 446.2789001464844"/>
    <path stroke-width="0" fill="rgb(264, 253, 243)" opacity="0.834195" stroke="rgb(61, 25, 4)" stroke-opacity="1.0" stroke-linecap="round" stroke-linejoin="round" d="M 441.7987976074219 333.4027099609375 C 425.02099609375 339.3748779296875 450.2250671386719 343.7290954589844 448.01300048828125 378.5923767089844 C 433.3097839355469 393.4288024902344 403.8298645019531 380.0455322265625 439.41009521484375 398.7702941894531 C 382.9089050292969 330.3388366699219 458.8679504394531 368.21429443359375 464.5184020996094 346.64068603515625 C 457.6860046386719 363.2884826660156 438.5816650390625 331.1524963378906 441.7987976074219 333.4027099609375"/>
    <path stroke-width="0" fill="rgb(287, 265, 261)" opacity="0.15793493" stroke="rgb(170, 200, 71)" stroke-opacity="1.0" stroke-linecap="round" stroke-linejoin="round" d="M 350.4485778808594 284.8614196777344 C 364.448974609375 268.0849304199219 352.5271911621094 279.9150085449219 336.78033447265625 338.2263488769531 C 326.88232421875 317.1332092285156 314.5185852050781 313.4019470214844 351.56170654296875 278.1952819824219 C 354.4455261230469 280.3840026855469 345.92071533203125 246.34446716308594 335.787353515625 270.1319885253906 C 342.5768127441406 250.98150634765625 358.14508056640625 273.5030822753906 350.4485778808594 284.8614196777344"/>
    <path stroke-width="0" fill="rgb(194, 216, 152)" opacity="-0.0016735165" stroke="rgb(16, 123, 249)" stroke-opacity="1.0" stroke-linecap="round" stroke-linejoin="round" d="M 336.1549987792969 322.6213073730469 C 360.4892883300781 350.7825927734375 375.95220947265625 335.3621826171875 310.5407409667969 344.6806945800781 C 397.16094970703125 344.28485107421875 345.5113525390625 336.7449645996094 346.4925537109375 320.8426513671875 C 336.71295166015625 340.700927734375 320.7005920410156 328.58709716796875 310.31024169921875 301.9182434082031 C 328.569580078125 345.100341796875 346.8174743652344 325.16522216796875 336.1549987792969 322.6213073730469"/>
    <path stroke-width="0" fill="rgb(278, 248, 250)" opacity="1.0327463" stroke="rgb(86, 245, 59)" stroke-opacity="1.0" stroke-linecap="round" stroke-linejoin="round" d="M 12.98015022277832 361.5016174316406 C 22.65414810180664 236.6211395263672 78.61550903320312 334.0281982421875 34.791656494140625 340.25604248046875 C 1.2691943645477295 332.8236999511719 37.96340560913086 336.03521728515625 33.10621643066406 337.77337646484375 C 32.17691421508789 330.224365234375 41.912872314453125 316.6798400878906 73.99087524414062 312.235107421875 C 50.02225875854492 319.6178283691406 37.06692886352539 319.0159606933594 12.98015022277832 361.5016174316406"/>
    <path stroke-width="0" fill="rgb(-3, 24, 40)" opacity="0.5815804" stroke="rgb(126, 163, 93)" stroke-opacity="1.0" stroke-linecap="round" stroke-linejoin="round" d="M 360.638671875 343.3634033203125 C 350.2052001953125 341.288330078125 374.2251892089844 376.56610107421875 318.9731140136719 367.71185302734375 C 320.10247802734375 366.9256286621094 303.617919921875 370.3890075683594 347.66802978515625 369.211181640625 C 363.1416015625 355.0968017578125 360.8638610839844 337.2425231933594 310.0150451660156 340.076904296875 C 319.6882629394531 332.85247802734375 314.8267822265625 346.4112243652344 360.638671875 343.3634033203125"/>
    <path stroke-width="0" fill="rgb(94, 147, 79)" opacity="0.57798856" stroke="rgb(231, 197, 84)" stroke-opacity="1.0" stroke-linecap="round" stroke-linejoin="round" d="M 105.07247924804688 -8.755040168762207 C 68.10987854003906 25.7027530670166 0.8337457776069641 84.10953521728516 6.345537185668945 115.84915924072266 C -58.17131805419922 71.91737365722656 -38.80270004272461 43.324668884277344 -21.26143455505371 2.9522812366485596 C -17.32050895690918 -10.0 -10.0 -17.32050895690918 7.241615295410156 -24.014564514160156 C 31.09577178955078 -33.32636642456055 38.93543243408203 -15.198221206665039 105.07247924804688 -8.755040168762207"/>
    <path stroke-width="0" fill="rgb(139, 174, 152)" opacity="0.36405337" stroke="rgb(103, 59, 33)" stroke-opacity="1.0" stroke-linecap="round" stroke-linejoin="round" d="M 209.54051208496094 180.85366821289062 C 221.2510986328125 171.96595764160156 211.552734375 174.13360595703125 208.7560577392578 184.26499938964844 C 255.60186767578125 129.33261108398438 253.90692138671875 150.42054748535156 214.86721801757812 179.56434631347656 C 223.59429931640625 183.46978759765625 230.85574340820312 180.60084533691406 223.6623077392578 178.06451416015625 C 222.8878631591797 131.84107971191406 207.01806640625 156.63824462890625 209.54051208496094 180.85366821289062"/>
    <path stroke-width="0" fill="rgb(266, 258, 258)" opacity="0.9415414" stroke="rgb(20, 22, 171)" stroke-opacity="1.0" stroke-linecap="round" stroke-linejoin="round" d="M 72.18370056152344 338.1285705566406 C 57.7907829284668 327.7930908203125 54.9071159362793 329.560791015625 75.15599060058594 335.68878173828125 C 103.08273315429688 335.5971984863281 44.75263977050781 354.86138916015625 23.144723892211914 329.8067932128906 C -15.668375968933105 442.56243896484375 89.4836654663086 353.3140563964844 98.15206146240234 351.1130676269531 C 96.59748840332031 314.39862060546875 84.16136932373047 358.1313171386719 72.18370056152344 338.1285705566406"/>
    <path stroke-width="0" fill="rgb(234, 266, 203)" opacity="0.02754174" stroke="rgb(107, 142, 219)" stroke-opacity="1.0" stroke-linecap="round" stroke-linejoin="round" d="M 103.00923919677734 310.9568176269531 C 131.28245544433594 309.6094055175781 111.57249450683594 329.0821228027344 88.78107452392578 353.899169921875 C 4.954449653625488 408.21551513671875 1.2167456150054932 247.8175811767578 94.40771484375 266.5258483886719 C 140.99365234375 318.7732238769531 50.89999771118164 341.7826843261719 118.23033905029297 309.74163818359375 C 133.06529235839844 278.3616638183594 126.0488510131836 286.1665344238281 103.00923919677734 310.9568176269531"/>
    <path stroke-width="0" fill="rgb(-3, -14, 13)" opacity="0.8244143" stroke="rgb(14, 177, 198)" stroke-opacity="1.0" stroke-linecap="round" stroke-linejoin="round" d="M 27.583024978637695 295.3045349121094 C 25.5976505279541 285.0829772949219 53.02326202392578 319.4664001464844 102.76658630371094 355.5136413574219 C 59.67415237426758 314.97747802734375 16.21259880065918 292.4018859863281 27.562299728393555 282.0790100097656 C 22.050289154052734 291.18701171875 31.725492477416992 272.3044128417969 23.46995735168457 317.1618347167969 C 12.005614280700684 286.614501953125 49.514007568359375 288.75555419921875 27.583024978637695 295.3045349121094"/>
    <path stroke-width="0" fill="rgb(133, 183, 147)" opacity="0.35750908" stroke="rgb(66, 95, 149)" stroke-opacity="1.0" stroke-linecap="round" stroke-linejoin="round" d="M 347.0669860839844 131.68312072753906 C 329.706298828125 136.53652954101562 318.7840881347656 137.68089294433594 314.7530212402344 137.7679901123047 C 377.0069885253906 128.21868896484375 362.7151184082031 137.23806762695312 352.2842102050781 120.70243835449219 C 301.18951416015625 134.10311889648438 281.1906433105469 96.10710906982422 324.3546142578125 101.66100311279297 C 351.1839294433594 156.4593963623047 369.7151184082031 162.60684204101562 347.0669860839844 131.68312072753906"/>
    <path stroke-width="0" fill="rgb(3, -19, 43)" opacity="0.8130187" stroke="rgb(203, 19, 132)" stroke-opacity="1.0" stroke-linecap="round" stroke-linejoin="round" d="M 432.9881896972656 361.0578918457031 C 518.6625366210938 413.0417785644531 511.2103271484375 412.00341796875 437.02679443359375 365.0786437988281 C 402.0034484863281 341.31561279296875 493.84912109375 363.7552490234375 424.5204772949219 352.4701843261719 C 432.283447265625 367.50811767578125 447.2776184082031 362.8323059082031 404.67205810546875 340.15679931640625 C 380.1236267089844 368.1748962402344 418.8204040527344 352.38165283203125 432.9881896972656 361.0578918457031"/>
    <path stroke-width="0" fill="rgb(152, 166, 170)" opacity="0.42191866" stroke="rgb(109, 130, 136)" stroke-opacity="1.0" stroke-linecap="round" stroke-linejoin="round" d="M 323.2135925292969 128.55294799804688 C 320.0336608886719 160.02520751953125 305.39898681640625 167.0794219970703 304.1703186035156 164.27432250976562 C 346.6170349121094 180.3790740966797 315.03863525390625 168.74459838867188 320.55328369140625 195.35137939453125 C 309.99609375 187.80490112304688 320.2908935546875 174.71170043945312 296.4848937988281 158.66281127929688 C 298.2832946777344 158.4941864013672 323.3671875 164.14654541015625 323.2135925292969 128.55294799804688"/>
    <path stroke-width="0" fill="rgb(0, -32, 1)" opacity="0.6693238" stroke="rgb(70, 32, 100)" stroke-opacity="1.0" stroke-linecap="round" stroke-linejoin="round" d="M 194.6419219970703 404.8996276855469 C 98.23883819580078 348.6475830078125 43.00316619873047 347.5832824707031 131.22988891601562 352.08685302734375 C 122.16455841064453 326.6568298339844 125.18431854248047 338.7302551269531 130.73931884765625 350.1714172363281 C 89.69381713867188 351.2012939453125 116.70500183105469 368.5339660644531 159.68617248535156 453.0372314453125 C 76.4686050415039 311.6399841308594 98.95342254638672 360.98931884765625 194.6419219970703 404.8996276855469"/>
    <path stroke-width="0" fill="rgb(142, 171, 159)" opacity="0.68826866" stroke="rgb(224, 116, 184)" stroke-opacity="1.0" stroke-linecap="round" stroke-linejoin="round" d="M 197.93505859375 184.32545471191406 C 171.32032775878906 179.03282165527344 166.3613739013672 186.15371704101562 181.28689575195312 184.91500854492188 C 202.5562286376953 159.78207397460938 199.42236328125 171.08140563964844 189.99583435058594 171.06642150878906 C 177.36251831054688 186.3952178955078 197.90914916992188 177.4869842529297 211.8353729248047 179.35400390625 C 194.61582946777344 175.86688232421875 172.10707092285156 222.7209930419922 197.93505859375 184.32545471191406"/>
    <path stroke-width="0" fill="rgb(53, 92, 51)" opacity="0.20848787" stroke="rgb(192, 162, 61)" stroke-opacity="1.0" stroke-linecap="round" stroke-linejoin="round" d="M 7.963467121124268 330.0267333984375 C 78.84503173828125 347.6951904296875 51.152732849121094 332.77777099609375 51.78880310058594 306.4114074707031 C 50.230403900146484 320.65679931640625 54.81364440917969 308.1039123535156 52.24061584472656 308.8392028808594 C 56.789833068847656 308.26702880859375 49.4610481262207 310.4949951171875 57.51811981201172 312.68060302734375 C 56.47459411621094 327.8882141113281 71.42813110351562 350.5677185058594 7.963467121124268 330.0267333984375"/>
    <path stroke-width="0" fill="rgb(0, -5, 54)" opacity="0.4438549" stroke="rgb(90, 90, 4)" stroke-opacity="1.0" stroke-linecap="round" stroke-linejoin="round" d="M 156.84115600585938 155.74258422851562 C 159.32839965820312 159.4331512451172 163.0433807373047 160.39425659179688 188.1412811279297 162.24658203125 C 164.87379455566406 166.78504943847656 163.83348083496094 159.8897247314453 160.06800842285156 209.558837890625 C 158.91270446777344 172.6836700439453 170.4344024658203 166.2614288330078 173.97947692871094 163.1454620361328 C 162.47364807128906 164.54217529296875 180.3019256591797 138.94619750976562 156.84115600585938 155.74258422851562"/>
    <path stroke-width="0" fill="rgb(154, 148, 172)" opacity="0.3318857" stroke="rgb(248, 252, 104)" stroke-opacity="1.0" stroke-linecap="round" stroke-linejoin="round" d="M 99.63552856445312 236.23741149902344 C 110.64453887939453 210.42710876464844 110.73262023925781 234.00233459472656 125.829345703125 244.62832641601562 C 130.95599365234375 205.14218139648438 117.10786437988281 219.61973571777344 115.81999206542969 242.44009399414062 C 103.56818389892578 234.4373016357422 125.77611541748047 148.21510314941406 112.79044342041016 193.78970336914062 C 113.5572280883789 215.06661987304688 124.07303619384766 249.38258361816406 99.63552856445312 236.23741149902344"/>
    <path stroke-width="0" fill="rgb(0, -7, 6)" opacity="0.6098806" stroke="rgb(162, 125, 252)" stroke-opacity="1.0" stroke-linecap="round" stroke-linejoin="round" d="M 466.22943115234375 356.04620361328125 C 370.53558349609375 354.96514892578125 410.49688720703125 331.00701904296875 413.6874084472656 374.49261474609375 C 430.19000244140625 330.7771301269531 423.1042785644531 348.3725891113281 349.66448974609375 446.4136047363281 C 417.3923645019531 346.0841369628906 425.7462463378906 361.7771911621094 366.6856689453125 371.0239562988281 C 359.2395935058594 375.77618408203125 371.6952819824219 347.30157470703125 466.22943115234375 356.04620361328125"/>
    <path stroke-width="0" fill="rgb(120, 202, 130)" opacity="0.06174148" stroke="rgb(91, 211, 235)" stroke-opacity="1.0" stroke-linecap="round" stroke-linejoin="round" d="M 357.77972412109375 329.3414611816406 C 350.31475830078125 316.22222900390625 362.3229064941406 319.92413330078125 352.2430725097656 377.9049987792969 C 349.6237487792969 379.7644958496094 363.12640380859375 380.1455993652344 356.5814208984375 321.7642517089844 C 363.2470397949219 315.3270568847656 353.7691650390625 321.72735595703125 377.1493835449219 336.8195495605469 C 358.5714416503906 318.6180725097656 350.81005859375 327.10101318359375 357.77972412109375 329.3414611816406"/>
    <path stroke-width="0" fill="rgb(77, 5, 0)" opacity="0.9851388" stroke="rgb(59, 88, 207)" stroke-opacity="1.0" stroke-linecap="round" stroke-linejoin="round" d="M 439.4409484863281 340.7179870605469 C 484.7239990234375 314.9682922363281 455.32318115234375 322.9239807128906 466.4197692871094 323.15625 C 464.5875549316406 325.0481872558594 461.8602294921875 316.8014831542969 474.3438720703125 317.9179992675781 C 465.5350646972656 329.23223876953125 474.58148193359375 315.9786682128906 478.45062255859375 317.3688049316406 C 432.509033203125 336.6268005371094 405.1993103027344 367.7453918457031 439.4409484863281 340.7179870605469"/>
    <path stroke-width="0" fill="rgb(249, 247, 218)" opacity="-0.0006220486" stroke="rgb(63, 27, 242)" stroke-opacity="1.0" stroke-linecap="round" stroke-linejoin="round" d="M 104.83255004882812 397.8580322265625 C 42.117984771728516 430.1278381347656 53.10173034667969 448.8612365722656 21.330080032348633 389.16180419921875 C 113.04456329345703 418.35205078125 89.70816802978516 413.3243408203125 58.33040237426758 410.86480712890625 C 81.87332916259766 453.22802734375 116.4873275756836 471.35516357421875 99.00863647460938 411.3774108886719 C 86.2370834350586 402.36962890625 77.05256652832031 399.7561340332031 104.83255004882812 397.8580322265625"/>
    <path stroke-width="0" fill="rgb(115, 181, 113)" opacity="0.69114846" stroke="rgb(175, 14, 186)" stroke-opacity="1.0" stroke-linecap="round" stroke-linejoin="round" d="M 64.72246551513672 245.81333923339844 C 71.26443481445312 251.93455505371094 65.00201416015625 266.61114501953125 49.968929290771484 239.4715118408203 C 76.07711029052734 251.42068481445312 74.05516815185547 240.46127319335938 56.137969970703125 234.67840576171875 C 56.15003967285156 235.12733459472656 53.27775573730469 116.2125244140625 46.69822692871094 243.5294189453125 C 127.45499420166016 208.9312744140625 150.95680236816406 258.537353515625 64.72246551513672 245.81333923339844"/>
    <path stroke-width="0" fill="rgb(122, 176, 140)" opacity="0.47315252" stroke="rgb(213, 60, 128)" stroke-opacity="1.0" stroke-linecap="round" stroke-linejoin="round" d="M 63.2709846496582 248.0314483642578 C 88.92279052734375 251.82594299316406 88.98695373535156 241.70260620117188 52.58181381225586 239.28086853027344 C 36.460899353027344 241.61248779296875 69.3676528930664 232.0536346435547 115.4570083618164 228.4906463623047 C 78.2264404296875 239.01426696777344 73.07357788085938 251.08714294433594 65.38541412353516 250.40843200683594 C 94.18568420410156 244.11953735351562 105.48782348632812 243.7292938232422 63.2709846496582 248.0314483642578"/>
    <path stroke-width="0" fill="rgb(118, 205, 109)" opacity="0.6046198" stroke="rgb(228, 103, 140)" stroke-opacity="1.0" stroke-linecap="round" stroke-linejoin="round" d="M 405.31805419921875 208.4101104736328 C 398.36407470703125 240.73939514160156 388.6929626464844 243.32489013671875 429.3539123535156 245.85414123535156 C 455.4938659667969 236.2957000732422 395.562255859375 220.85121154785156 396.17071533203125 241.82748413085938 C 393.2672119140625 233.26597595214844 394.2779235839844 252.8559112548828 402.5637512207031 239.09410095214844 C 397.8417053222656 248.91734313964844 405.3746032714844 240.0504608154297 405.31805419921875 208.4101104736328"/>
    <path stroke-width="0" fill="rgb(122, 181, 137)" opacity="0.5142211" stroke="rgb(64, 113, 26)" stroke-opacity="1.0" stroke-linecap="round" stroke-linejoin="round" d="M 142.17942810058594 230.23692321777344 C 109.53589630126953 224.981689453125 114.15614318847656 222.97886657714844 116.00235748291016 232.25416564941406 C 136.71339416503906 242.281494140625 97.8699951171875 243.32208251953125 67.75223541259766 237.99758911132812 C 139.8000946044922 223.4438018798828 66.31021118164062 210.42506408691406 120.58975982666016 233.64508056640625 C 104.34794616699219 253.9744110107422 142.49862670898438 257.1986083984375 142.17942810058594 230.23692321777344"/>
    <path stroke-width="0" fill="rgb(118, 111, 85)" opacity="0.030713102" stroke="rgb(0, 0, 0)" stroke-opacity="0.0" stroke-linecap="round" stroke-linejoin="round" d="M 270.8951721191406 15.69650650024414 C 274.0384521484375 23.248071670532227 271.4719543457031 25.051376342773438 269.892333984375 23.76889419555664 C 263.8827819824219 21.07834815979004 259.805419921875 18.745258331298828 265.60498046875 19.36936378479004 C 265.74346923828125 14.363875389099121 259.6392822265625 3.79880952835083 264.6310729980469 6.249684810638428 C 271.08819580078125 4.520884990692139 270.8331604003906 7.266879558563232 270.8951721191406 15.69650650024414"/>
    <path stroke-width="0" fill="rgb(82, 149, -14)" opacity="0.08260429" stroke="rgb(0, 0, 0)" stroke-opacity="0.0" stroke-linecap="round" stroke-linejoin="round" d="M 14.845405578613281 13.885523796081543 C 14.95324993133545 19.86731719970703 5.4663543701171875 15.71137809753418 0.027157779783010483 17.953506469726562 C -0.38134390115737915 18.254924774169922 -2.6064000129699707 11.419328689575195 -1.1072968244552612 6.212204456329346 C 1.125357985496521 8.252832412719727 2.9534716606140137 5.384556770324707 -0.1435566544532776 4.462888717651367 C 10.20904541015625 1.1381571292877197 16.858837127685547 -1.2932270765304565 14.845405578613281 13.885523796081543"/>
    <path stroke-width="0" fill="rgb(93, 166, 77)" opacity="0.47614923" stroke="rgb(0, 0, 0)" stroke-opacity="0.0" stroke-linecap="round" stroke-linejoin="round" d="M 180.41079711914062 14.742170333862305 C 183.54156494140625 20.28489112854004 182.80335998535156 20.826631546020508 174.01853942871094 20.24555015563965 C 173.544921875 25.934789657592773 175.65699768066406 22.929594039916992 168.38633728027344 20.748271942138672 C 162.45819091796875 11.489076614379883 164.8527069091797 6.360785484313965 173.54266357421875 5.445903778076172 C 182.935791015625 1.2291510105133057 183.28233337402344 3.772952079772949 180.41079711914062 14.742170333862305"/>
    <path stroke-width="0" fill="rgb(167, 145, 89)" opacity="0.13801172" stroke="rgb(0, 0, 0)" stroke-opacity="0.0" stroke-linecap="round" stroke-linejoin="round" d="M 99.44181060791016 6.827032566070557 C 98.5608901977539 12.4480619430542 97.06197357177734 14.329386711120605 97.89623260498047 10.663328170776367 C 93.61119079589844 11.073481559753418 88.39309692382812 9.259869575500488 90.74600219726562 7.975390434265137 C 88.4311752319336 1.5850569009780884 88.38451385498047 -2.5804967880249023 94.87397766113281 -5.43383264541626 C 100.924560546875 -3.579833507537842 101.29881286621094 1.6083366870880127 99.44181060791016 6.827032566070557"/>
    <path stroke-width="0" fill="rgb(82, 171, 238)" opacity="-0.012215821" stroke="rgb(0, 0, 0)" stroke-opacity="0.0" stroke-linecap="round" stroke-linejoin="round" d="M 313.0281982421875 147.65000915527344 C 311.7622985839844 153.9272918701172 307.3608703613281 155.4127960205078 301.4827575683594 160.26168823242188 C 293.8106994628906 160.61123657226562 293.0907287597656 156.45654296875 294.8600769042969 152.31744384765625 C 298.1981201171875 148.9357147216797 300.64715576171875 144.84521484375 304.757568359375 143.04888916015625 C 309.542724609375 141.51771545410156 315.0386962890625 141.4642791748047 313.0281982421875 147.65000915527344"/>
    <path stroke-width="0" fill="rgb(86, 135, 109)" opacity="-0.006784585" stroke="rgb(0, 0, 0)" stroke-opacity="0.0" stroke-linecap="round" stroke-linejoin="round" d="M 332.63690185546875 86.69641876220703 C 335.48956298828125 90.89435577392578 332.9529724121094 94.06986999511719 330.83013916015625 96.49623107910156 C 323.6212158203125 94.16527557373047 319.0203857421875 91.71987915039062 318.49383544921875 84.11087799072266 C 317.44415283203125 80.9896240234375 323.5886535644531 81.25164794921875 333.8629455566406 80.05322265625 C 334.30975341796875 78.52291107177734 334.6180725097656 81.76337432861328 332.63690185546875 86.69641876220703"/>
    <path stroke-width="0" fill="rgb(97, 101, 52)" opacity="0.01744309" stroke="rgb(0, 0, 0)" stroke-opacity="0.0" stroke-linecap="round" stroke-linejoin="round" d="M 39.45256423950195 91.30181884765625 C 45.08992385864258 93.34855651855469 41.86894989013672 92.91669464111328 36.192020416259766 89.63363647460938 C 33.9614372253418 92.97792053222656 34.09477996826172 87.17056274414062 29.195358276367188 86.48240661621094 C 29.24207305908203 83.2048110961914 36.11861038208008 84.61885070800781 41.75187683105469 82.60624694824219 C 38.7297248840332 80.66110229492188 37.04375457763672 85.97438049316406 39.45256423950195 91.30181884765625"/>
    <path stroke-width="0" fill="rgb(57, 129, 137)" opacity="0.2318573" stroke="rgb(0, 0, 0)" stroke-opacity="0.0" stroke-linecap="round" stroke-linejoin="round" d="M 369.5505676269531 493.39202880859375 C 376.8196105957031 496.8630065917969 373.7841491699219 498.1035461425781 366.006103515625 500.95654296875 C 357.244873046875 499.51104736328125 357.5219421386719 497.6902770996094 357.5158996582031 485.07586669921875 C 357.41827392578125 481.2866516113281 356.9935302734375 484.3685607910156 366.8809509277344 485.28546142578125 C 369.1045227050781 486.603759765625 367.4896545410156 487.5226135253906 369.5505676269531 493.39202880859375"/>
    <path stroke-width="0" fill="rgb(233, 276, 79)" opacity="0.009391289" stroke="rgb(0, 0, 0)" stroke-opacity="0.0" stroke-linecap="round" stroke-linejoin="round" d="M 102.00188446044922 273.471435546875 C 100.40775299072266 281.33636474609375 91.71266174316406 281.1609802246094 87.50643157958984 279.29412841796875 C 86.93423461914062 274.7330627441406 86.3740234375 271.2159423828125 78.60684967041016 272.1708984375 C 76.5060806274414 268.9153137207031 79.59809112548828 264.28240966796875 84.6173324584961 264.25457763671875 C 95.52963256835938 263.8318176269531 99.61270141601562 266.5894775390625 102.00188446044922 273.471435546875"/>
    <path stroke-width="0" fill="rgb(75, 191, 168)" opacity="0.26392406" stroke="rgb(0, 0, 0)" stroke-opacity="0.0" stroke-linecap="round" stroke-linejoin="round" d="M 169.20579528808594 78.64581298828125 C 175.9048614501953 78.42999267578125 172.9258575439453 79.89781188964844 173.71038818359375 77.82171630859375 C 165.28372192382812 79.25112915039062 165.42007446289062 82.18083190917969 173.00808715820312 77.50382232666016 C 173.00973510742188 62.774444580078125 170.2724609375 64.91651153564453 171.84194946289062 72.46858978271484 C 171.9906005859375 66.18619537353516 168.22315979003906 68.4427719116211 169.20579528808594 78.64581298828125"/>
    <path stroke-width="0" fill="rgb(147, 167, 169)" opacity="0.21727146" stroke="rgb(0, 0, 0)" stroke-opacity="0.0" stroke-linecap="round" stroke-linejoin="round" d="M 324.1490478515625 393.7054138183594 C 324.2738952636719 401.9438781738281 316.2461242675781 399.4107666015625 310.396240234375 400.5764465332031 C 314.5544738769531 406.20623779296875 314.50128173828125 402.22509765625 314.2194519042969 391.0155029296875 C 310.41094970703125 389.4841003417969 311.12811279296875 391.7261047363281 319.1441955566406 402.0743103027344 C 331.6897888183594 396.2962951660156 330.6848449707031 388.234375 324.1490478515625 393.7054138183594"/>
    <path stroke-width="0" fill="rgb(24, 217, 146)" opacity="0.23893765" stroke="rgb(0, 0, 0)" stroke-opacity="0.0" stroke-linecap="round" stroke-linejoin="round" d="M 82.94921112060547 249.5828094482422 C 71.06909942626953 250.5514373779297 64.54058837890625 250.18690490722656 62.906524658203125 255.20486450195312 C 65.87467193603516 256.6678161621094 63.310829162597656 253.57908630371094 62.66597366333008 243.173583984375 C 60.297019958496094 237.52520751953125 58.85744857788086 240.84603881835938 65.37676239013672 241.60964965820312 C 74.1846694946289 239.9356689453125 78.82913208007812 243.23138427734375 82.94921112060547 249.5828094482422"/>
    <path stroke-width="0" fill="rgb(37, 182, 170)" opacity="0.05816262" stroke="rgb(0, 0, 0)" stroke-opacity="0.0" stroke-linecap="round" stroke-linejoin="round" d="M 222.86264038085938 26.844778060913086 C 228.62428283691406 34.53108596801758 227.26812744140625 34.424251556396484 221.48631286621094 33.31319046020508 C 210.53927612304688 32.713623046875 210.15052795410156 32.92437744140625 216.17332458496094 30.098546981811523 C 215.90757751464844 21.541236877441406 215.9284210205078 14.63133430480957 220.79965209960938 20.188905715942383 C 230.141357421875 22.461462020874023 228.79127502441406 22.11516761779785 222.86264038085938 26.844778060913086"/>
    <path stroke-width="0" fill="rgb(145, 287, 233)" opacity="-0.060494665" stroke="rgb(0, 0, 0)" stroke-opacity="0.0" stroke-linecap="round" stroke-linejoin="round" d="M 106.14181518554688 370.69622802734375 C 96.54161071777344 375.0572509765625 90.35005950927734 376.5726318359375 88.65092468261719 380.3098449707031 C 83.06912994384766 376.30963134765625 76.89707946777344 378.3155822753906 75.27254486083984 370.3195495605469 C 78.51222229003906 365.5654602050781 85.54463958740234 364.44403076171875 89.73663330078125 358.35015869140625 C 94.03427124023438 360.7259216308594 99.26609802246094 361.8677062988281 106.14181518554688 370.69622802734375"/>
    <path stroke-width="0" fill="rgb(131, 20, 116)" opacity="0.528139" stroke="rgb(0, 0, 0)" stroke-opacity="0.0" stroke-linecap="round" stroke-linejoin="round" d="M 379.80352783203125 264.4677734375 C 377.86187744140625 263.235107421875 375.368896484375 263.3548583984375 375.2781066894531 266.3876037597656 C 372.0556945800781 264.9129943847656 371.36309814453125 266.7066955566406 373.1385192871094 265.3193054199219 C 381.1253662109375 264.4693298339844 382.4656677246094 261.6180419921875 372.96759033203125 265.0198669433594 C 371.0909423828125 263.45306396484375 375.9105529785156 265.11737060546875 379.80352783203125 264.4677734375"/>
    <path stroke-width="0" fill="rgb(126, 172, 148)" opacity="0.23932944" stroke="rgb(0, 0, 0)" stroke-opacity="0.0" stroke-linecap="round" stroke-linejoin="round" d="M 290.67791748046875 23.643728256225586 C 288.369140625 34.173057556152344 287.9877624511719 32.48370361328125 286.65997314453125 29.47185707092285 C 277.5518493652344 27.499286651611328 269.4424743652344 28.087779998779297 268.457275390625 23.831722259521484 C 267.01123046875 18.347875595092773 269.5210266113281 17.979721069335938 275.46453857421875 18.696142196655273 C 278.2586975097656 24.124597549438477 284.8582458496094 22.486446380615234 290.67791748046875 23.643728256225586"/>
    <path stroke-width="0" fill="rgb(193, 126, 110)" opacity="0.3917767" stroke="rgb(0, 0, 0)" stroke-opacity="0.0" stroke-linecap="round" stroke-linejoin="round" d="M 460.3181457519531 318.76641845703125 C 462.54205322265625 313.19671630859375 460.3883972167969 315.92572021484375 459.998046875 319.85894775390625 C 459.8999938964844 317.7046203613281 458.58453369140625 314.8638610839844 458.4574890136719 314.30975341796875 C 458.6900634765625 316.21832275390625 460.6543884277344 312.326171875 457.425048828125 312.89599609375 C 456.9868469238281 315.1650390625 461.01007080078125 319.6872863769531 460.3181457519531 318.76641845703125"/>
    <path stroke-width="0" fill="rgb(119, 182, 111)" opacity="0.4760593" stroke="rgb(0, 0, 0)" stroke-opacity="0.0" stroke-linecap="round" stroke-linejoin="round" d="M 134.69235229492188 160.8694610595703 C 134.4490203857422 169.97119140625 136.2547149658203 178.19309997558594 133.2170867919922 179.61553955078125 C 127.95929718017578 169.76219177246094 128.73138427734375 162.7839813232422 127.76338958740234 163.7395477294922 C 127.0743179321289 166.2467803955078 129.4251708984375 163.4611358642578 135.50784301757812 161.1358184814453 C 132.81956481933594 161.0097198486328 135.49734497070312 161.7223358154297 134.69235229492188 160.8694610595703"/>
    <path stroke-width="0" fill="rgb(91, 120, 158)" opacity="0.25708976" stroke="rgb(0, 0, 0)" stroke-opacity="0.0" stroke-linecap="round" stroke-linejoin="round" d="M 194.27481079101562 494.5294189453125 C 192.2231903076172 501.7607727050781 186.20840454101562 500.8380126953125 183.31881713867188 500.3467712402344 C 173.9781951904297 498.3331298828125 165.38145446777344 497.7334289550781 170.83242797851562 490.1474304199219 C 173.73135375976562 487.3283386230469 174.9224090576172 482.98681640625 181.12110900878906 480.9098815917969 C 183.20245361328125 486.01397705078125 185.27862548828125 489.75567626953125 194.27481079101562 494.5294189453125"/>
    <path stroke-width="0" fill="rgb(51, 221, 143)" opacity="0.077556625" stroke="rgb(0, 0, 0)" stroke-opacity="0.0" stroke-linecap="round" stroke-linejoin="round" d="M 183.44607543945312 141.25048828125 C 178.51040649414062 144.04722595214844 173.1345977783203 143.3956756591797 170.044677734375 141.92724609375 C 168.57080078125 143.31065368652344 167.53955078125 139.1456756591797 163.3127899169922 137.30865478515625 C 156.65126037597656 133.13558959960938 160.26927185058594 128.56655883789062 167.21017456054688 131.27639770507812 C 174.32452392578125 132.84902954101562 180.18087768554688 133.6028289794922 183.44607543945312 141.25048828125"/>
    <path stroke-width="0" fill="rgb(113, 192, 88)" opacity="0.36975017" stroke="rgb(0, 0, 0)" stroke-opacity="0.0" stroke-linecap="round" stroke-linejoin="round" d="M 310.2308654785156 176.00079345703125 C 311.9859619140625 185.40036010742188 314.1262512207031 187.83486938476562 313.7899475097656 181.977294921875 C 302.8730773925781 187.6204376220703 301.7080993652344 187.30767822265625 304.05413818359375 179.009033203125 C 305.199462890625 177.3231964111328 304.292724609375 174.57879638671875 309.5882568359375 171.40565490722656 C 312.9432067871094 175.64028930664062 312.53424072265625 177.14456176757812 310.2308654785156 176.00079345703125"/>
    <path stroke-width="0" fill="rgb(228, 30, 156)" opacity="0.49393678" stroke="rgb(0, 0, 0)" stroke-opacity="0.0" stroke-linecap="round" stroke-linejoin="round" d="M 276.98291015625 404.3648681640625 C 283.6051330566406 409.9360046386719 279.8349914550781 410.9022521972656 278.4203796386719 409.0897216796875 C 275.33203125 410.6077880859375 269.0298767089844 410.7680358886719 273.7938232421875 406.467529296875 C 274.6337585449219 402.40667724609375 274.26776123046875 395.7079162597656 275.51177978515625 383.67108154296875 C 283.45648193359375 387.39129638671875 281.1732177734375 394.0351257324219 276.98291015625 404.3648681640625"/>
    <path stroke-width="0" fill="rgb(189, 182, 147)" opacity="0.4496475" stroke="rgb(0, 0, 0)" stroke-opacity="0.0" stroke-linecap="round" stroke-linejoin="round" d="M 444.8653259277344 325.8103332519531 C 442.072021484375 328.2261657714844 436.8458251953125 329.6894836425781 435.93927001953125 329.57025146484375 C 433.64410400390625 328.6705627441406 430.4016418457031 324.3888854980469 431.34539794921875 331.5660705566406 C 435.87908935546875 329.0223083496094 440.3794250488281 326.2976989746094 441.75341796875 326.4923400878906 C 440.46051025390625 320.0740966796875 446.4968566894531 321.7933044433594 444.8653259277344 325.8103332519531"/>
    <path stroke-width="0" fill="rgb(133, 91, 31)" opacity="0.79468435" stroke="rgb(0, 0, 0)" stroke-opacity="0.0" stroke-linecap="round" stroke-linejoin="round" d="M 1.6209853887557983 -3.925931453704834 C 3.324270009994507 2.3465499877929688 2.2684290409088135 4.797942161560059 -2.5035881996154785 6.349856853485107 C -3.5170350074768066 7.0069427490234375 -6.452382564544678 4.086506366729736 -7.523895740509033 0.08595649152994156 C -6.45209264755249 -3.9140632152557373 -3.5238893032073975 -6.84226655960083 0.4761103391647339 -7.914062976837158 C 4.4759521484375 -6.842222213745117 7.38714599609375 -3.908703327178955 1.6209853887557983 -3.925931453704834"/>
    <path stroke-width="0" fill="rgb(70, 85, 90)" opacity="0.5832597" stroke="rgb(0, 0, 0)" stroke-opacity="0.0" stroke-linecap="round" stroke-linejoin="round" d="M 93.008544921875 350.37158203125 C 91.23836517333984 353.46954345703125 78.68445587158203 348.2439270019531 73.74907684326172 349.780517578125 C 79.0439453125 349.51483154296875 70.8328857421875 350.1485595703125 57.81745529174805 344.0654602050781 C 73.53331756591797 342.72576904296875 76.92516326904297 341.8672790527344 66.62984466552734 343.32672119140625 C 72.78713989257812 347.5924072265625 76.17259979248047 348.7586364746094 93.008544921875 350.37158203125"/>
    <path stroke-width="0" fill="rgb(178, 136, 222)" opacity="0.05705779" stroke="rgb(0, 0, 0)" stroke-opacity="0.0" stroke-linecap="round" stroke-linejoin="round" d="M 203.54928588867188 406.8704833984375 C 199.35496520996094 407.4490966796875 193.65798950195312 408.4931945800781 191.26051330566406 413.47723388671875 C 189.23085021972656 417.1019287109375 189.45599365234375 416.7431640625 189.31436157226562 412.0797424316406 C 192.4696044921875 408.4144287109375 195.01089477539062 404.99603271484375 195.512939453125 401.3509521484375 C 202.6040802001953 403.9925231933594 205.79446411132812 404.2569274902344 203.54928588867188 406.8704833984375"/>
    <path stroke-width="0" fill="rgb(127, 111, 141)" opacity="0.014175709" stroke="rgb(0, 0, 0)" stroke-opacity="0.0" stroke-linecap="round" stroke-linejoin="round" d="M 356.29547119140625 33.702796936035156 C 360.6556396484375 42.20391082763672 358.57818603515625 45.542930603027344 349.216796875 40.656463623046875 C 343.39410400390625 42.58028793334961 342.2130432128906 42.39936828613281 344.5821533203125 35.185386657714844 C 348.7984619140625 29.96753692626953 349.7378845214844 21.82085418701172 350.5770568847656 24.892047882080078 C 357.6243896484375 25.357423782348633 357.6588439941406 29.672630310058594 356.29547119140625 33.702796936035156"/>
    <path stroke-width="0" fill="rgb(150, 122, 155)" opacity="0.26795706" stroke="rgb(0, 0, 0)" stroke-opacity="0.0" stroke-linecap="round" stroke-linejoin="round" d="M 134.79908752441406 21.09013557434082 C 137.1641387939453 30.665250778198242 139.75108337402344 27.46560287475586 140.26231384277344 28.700641632080078 C 135.56082153320312 30.569896697998047 134.26991271972656 31.046363830566406 136.21990966796875 29.51630210876465 C 137.6600341796875 23.555763244628906 139.68724060058594 21.99820327758789 135.14956665039062 24.99721908569336 C 141.62399291992188 21.96257972717285 141.68788146972656 21.43901824951172 134.79908752441406 21.09013557434082"/>
    <path stroke-width="0" fill="rgb(-17, 64, 67)" opacity="0.14969724" stroke="rgb(0, 0, 0)" stroke-opacity="0.0" stroke-linecap="round" stroke-linejoin="round" d="M 172.879638671875 430.61566162109375 C 174.99420166015625 434.5648498535156 167.52227783203125 434.95068359375 165.01214599609375 436.411376953125 C 155.9680938720703 434.1773376464844 150.70358276367188 440.5874328613281 151.79763793945312 426.7861022949219 C 156.3807830810547 426.7749938964844 161.00335693359375 427.3599853515625 161.69082641601562 430.92230224609375 C 173.30322265625 424.63409423828125 175.8926544189453 421.7002258300781 172.879638671875 430.61566162109375"/>
    <path stroke-width="0" fill="rgb(115, 24, 241)" opacity="-0.08700097" stroke="rgb(0, 0, 0)" stroke-opacity="0.0" stroke-linecap="round" stroke-linejoin="round" d="M 23.583925247192383 307.0531921386719 C 18.99844741821289 315.56463623046875 12.819987297058105 316.29364013671875 11.224369049072266 320.2221984863281 C 6.809901237487793 319.6681823730469 5.663305759429932 317.5326232910156 6.484257698059082 315.44677734375 C 6.93298864364624 307.12127685546875 6.908984661102295 303.2406005859375 5.310449123382568 303.8575744628906 C 9.808233261108398 308.18896484375 15.42509651184082 308.42181396484375 23.583925247192383 307.0531921386719"/>
    <path stroke-width="0" fill="rgb(74, 177, 23)" opacity="0.3711058" stroke="rgb(0, 0, 0)" stroke-opacity="0.0" stroke-linecap="round" stroke-linejoin="round" d="M 25.95189094543457 2.496279716491699 C 23.134788513183594 3.896338701248169 23.134111404418945 10.922433853149414 21.518329620361328 11.965909957885742 C 16.932857513427734 11.560635566711426 16.95511817932129 9.11191463470459 14.303205490112305 5.188946723937988 C 12.801441192626953 -0.7547935843467712 16.070539474487305 -3.320640802383423 20.643808364868164 -4.4095563888549805 C 26.423629760742188 -4.295356273651123 31.520648956298828 0.357290118932724 25.95189094543457 2.496279716491699"/>
    <path stroke-width="0" fill="rgb(98, 140, 105)" opacity="0.37428778" stroke="rgb(0, 0, 0)" stroke-opacity="0.0" stroke-linecap="round" stroke-linejoin="round" d="M 20.026262283325195 7.4061665534973145 C 24.91544532775879 15.220864295959473 19.53091812133789 15.819428443908691 17.422956466674805 14.171643257141113 C 14.163840293884277 20.060192108154297 10.353869438171387 17.327972412109375 12.657171249389648 12.388434410095215 C 13.995473861694336 5.460475921630859 15.557744979858398 -0.31683969497680664 18.17966651916504 -4.39179801940918 C 23.56525230407715 -5.617851257324219 21.949426651000977 -0.4185445010662079 20.026262283325195 7.4061665534973145"/>
    <path stroke-width="0" fill="rgb(166, 233, 106)" opacity="0.05184234" stroke="rgb(0, 0, 0)" stroke-opacity="0.0" stroke-linecap="round" stroke-linejoin="round" d="M 74.17826843261719 -52.415428161621094 C 73.10647583007812 -48.415428161621094 70.17826843261719 -45.48722457885742 66.17826843261719 -44.415428161621094 C 62.17827224731445 -45.48722457885742 59.25006866455078 -48.415428161621094 58.17827224731445 -52.415428161621094 C 59.25006866455078 -56.415428161621094 62.17827224731445 -59.3436279296875 66.17826843261719 -60.415428161621094 C 70.17826843261719 -59.3436279296875 73.10647583007812 -56.415428161621094 74.17826843261719 -52.415428161621094"/>
    <path stroke-width="0" fill="rgb(100, 147, 114)" opacity="0.50303423" stroke="rgb(0, 0, 0)" stroke-opacity="0.0" stroke-linecap="round" stroke-linejoin="round" d="M 107.91106414794922 60.946102142333984 C 105.0500259399414 66.09223175048828 99.39163970947266 66.13396453857422 99.77178955078125 70.50873565673828 C 97.56521606445312 67.53189849853516 95.03817749023438 62.32606506347656 93.61486053466797 60.41190719604492 C 95.57936096191406 64.07499694824219 94.84318542480469 59.95120620727539 94.1633529663086 53.64554214477539 C 100.5199966430664 57.79171371459961 105.55110931396484 59.15753173828125 107.91106414794922 60.946102142333984"/>
    <path stroke-width="0" fill="rgb(157, 145, 179)" opacity="0.1941255" stroke="rgb(0, 0, 0)" stroke-opacity="0.0" stroke-linecap="round" stroke-linejoin="round" d="M 286.980712890625 193.30007934570312 C 286.3962707519531 207.88462829589844 284.118408203125 208.2395477294922 273.3337707519531 207.9214324951172 C 271.9217834472656 208.10826110839844 265.4732360839844 205.38514709472656 268.1445007324219 202.75547790527344 C 270.8104553222656 193.72628784179688 268.48681640625 187.85888671875 271.5323791503906 189.95065307617188 C 278.1582946777344 198.4471435546875 280.6029052734375 199.43496704101562 286.980712890625 193.30007934570312"/>
    <path stroke-width="0" fill="rgb(123, 142, 101)" opacity="0.27084613" stroke="rgb(0, 0, 0)" stroke-opacity="0.0" stroke-linecap="round" stroke-linejoin="round" d="M 152.2023162841797 22.43412208557129 C 153.17657470703125 31.366300582885742 151.76527404785156 33.63386535644531 150.4082794189453 28.118465423583984 C 145.87954711914062 28.420700073242188 140.1967010498047 26.81060791015625 134.0902862548828 22.880794525146484 C 134.78424072265625 16.507890701293945 137.16514587402344 17.103839874267578 144.7078094482422 18.74826431274414 C 152.58840942382812 15.006599426269531 154.11717224121094 16.33741569519043 152.2023162841797 22.43412208557129"/>
    <path stroke-width="0" fill="rgb(154, 197, 91)" opacity="0.07527117" stroke="rgb(0, 0, 0)" stroke-opacity="0.0" stroke-linecap="round" stroke-linejoin="round" d="M 222.29579162597656 61.68063735961914 C 217.10801696777344 64.35626983642578 208.76771545410156 61.87214279174805 207.6163330078125 71.229248046875 C 205.04583740234375 74.40708923339844 204.28640747070312 67.8794937133789 204.62527465820312 61.77553939819336 C 206.82289123535156 58.90473937988281 210.09605407714844 55.280609130859375 212.45640563964844 57.77341079711914 C 214.58822631835938 57.032875061035156 218.1259307861328 58.62155532836914 222.29579162597656 61.68063735961914"/>
    <path stroke-width="0" fill="rgb(113, 102, 108)" opacity="0.11629964" stroke="rgb(0, 0, 0)" stroke-opacity="0.0" stroke-linecap="round" stroke-linejoin="round" d="M 134.27108764648438 448.3174133300781 C 125.39079284667969 448.9095764160156 122.65715026855469 450.58599853515625 125.15332794189453 453.23248291015625 C 127.01919555664062 448.640625 128.1746063232422 441.1748962402344 120.64768981933594 446.02313232421875 C 119.14214324951172 441.37872314453125 116.73081970214844 439.5870666503906 121.59440612792969 440.63787841796875 C 132.67286682128906 437.7182922363281 134.8272705078125 438.37939453125 134.27108764648438 448.3174133300781"/>
    <path stroke-width="0" fill="rgb(165, 171, 209)" opacity="0.18930802" stroke="rgb(0, 0, 0)" stroke-opacity="0.0" stroke-linecap="round" stroke-linejoin="round" d="M 212.68849182128906 188.3337860107422 C 214.13619995117188 192.56576538085938 214.14501953125 198.8528289794922 210.31045532226562 206.39730834960938 C 205.52333068847656 206.43258666992188 206.34915161132812 199.66517639160156 205.39425659179688 188.8287353515625 C 205.88433837890625 186.76075744628906 206.23919677734375 188.39212036132812 209.7650604248047 187.39158630371094 C 214.62257385253906 187.7471923828125 217.70681762695312 188.44305419921875 212.68849182128906 188.3337860107422"/>
    <path stroke-width="0" fill="rgb(217, 254, 168)" opacity="0.00484037" stroke="rgb(0, 0, 0)" stroke-opacity="0.0" stroke-linecap="round" stroke-linejoin="round" d="M 400.8725280761719 278.2407531738281 C 401.5575866699219 283.36688232421875 400.5883483886719 287.66748046875 393.1029357910156 288.4780578613281 C 384.4784851074219 287.9763488769531 386.17852783203125 283.60040283203125 387.730712890625 269.0963439941406 C 392.3812255859375 271.9195861816406 395.1326599121094 274.181640625 400.8342590332031 271.9806823730469 C 398.60394287109375 268.5691833496094 400.6227722167969 272.9515686035156 400.8725280761719 278.2407531738281"/>
    <path stroke-width="0" fill="rgb(183, 59, 112)" opacity="0.09860026" stroke="rgb(0, 0, 0)" stroke-opacity="0.0" stroke-linecap="round" stroke-linejoin="round" d="M 181.26025390625 421.0581970214844 C 180.5558319091797 428.2160339355469 181.42787170410156 429.3944396972656 178.18885803222656 425.493896484375 C 178.96775817871094 430.5451965332031 179.99093627929688 423.984130859375 176.5908203125 421.3111877441406 C 174.7345733642578 419.4433288574219 180.81736755371094 416.6996765136719 184.53582763671875 413.2854309082031 C 186.3128204345703 417.4298095703125 188.48944091796875 419.6925354003906 181.26025390625 421.0581970214844"/>
    <path stroke-width="0" fill="rgb(222, 179, 170)" opacity="0.018730486" stroke="rgb(0, 0, 0)" stroke-opacity="0.0" stroke-linecap="round" stroke-linejoin="round" d="M 373.68072509765625 9.359992027282715 C 375.448974609375 11.989999771118164 375.4450378417969 16.898029327392578 372.3570861816406 16.62386131286621 C 367.07769775390625 13.21480941772461 361.7929382324219 12.691755294799805 363.8460693359375 8.759123802185059 C 364.37054443359375 5.014801502227783 368.5622253417969 3.561856985092163 373.578125 0.7301188111305237 C 372.2239990234375 -1.028433918952942 372.0709228515625 5.456411838531494 373.68072509765625 9.359992027282715"/>
    <path stroke-width="0" fill="rgb(4, 14, 102)" opacity="0.5451483" stroke="rgb(0, 0, 0)" stroke-opacity="0.0" stroke-linecap="round" stroke-linejoin="round" d="M 371.9315490722656 271.3749084472656 C 375.576171875 271.334228515625 372.24810791015625 277.4607849121094 365.8352966308594 281.75537109375 C 364.391357421875 278.3443908691406 366.47784423828125 271.8783874511719 367.42828369140625 266.2579345703125 C 365.8514099121094 270.3404541015625 367.9857177734375 266.5063781738281 372.13604736328125 265.6542663574219 C 368.32049560546875 266.0567626953125 367.9056091308594 271.5760498046875 371.9315490722656 271.3749084472656"/>
  </g>
</svg>
