<?xml version="1.0" ?>
<svg xmlns="http://www.w3.org/2000/svg" version="1.1" width="512" height="512">
  <defs/>
  <g>
    <path stroke-width="0" fill="rgb(-23, 4, 4)" opacity="1.0681423" stroke="rgb(139, 182, 153)" stroke-opacity="1.0" stroke-linecap="round" stroke-linejoin="round" d="M 356.75518798828125 216.3251190185547 C 384.76824951171875 219.2730712890625 278.0466003417969 217.23825073242188 262.8694152832031 213.8437042236328 C 129.9635009765625 215.2364959716797 151.650146484375 208.3849334716797 151.17355346679688 198.21267700195312 C 214.24586486816406 199.8536834716797 265.450927734375 210.24774169921875 267.5163269042969 206.0511932373047 C 202.12332153320312 208.0588836669922 248.4834747314453 196.24783325195312 356.75518798828125 216.3251190185547"/>
    <path stroke-width="0" fill="rgb(83, 95, 79)" opacity="0.5394557" stroke="rgb(108, 164, 111)" stroke-opacity="1.0" stroke-linecap="round" stroke-linejoin="round" d="M 249.53517150878906 651.0526733398438 C -234.7397003173828 573.2612915039062 297.10284423828125 113.13524627685547 177.76632690429688 423.6142883300781 C -129.79656982421875 553.2166137695312 329.8501892089844 166.1439971923828 28.991533279418945 276.33819580078125 C 116.89800262451172 669.2200317382812 -109.28445434570312 702.176513671875 -42.20512771606445 -49.10404586791992 C 462.00323486328125 -98.94029998779297 459.76690673828125 -90.40750122070312 249.53517150878906 651.0526733398438"/>
    <path stroke-width="0" fill="rgb(26, 32, 27)" opacity="1.0214106" stroke="rgb(245, 97, 201)" stroke-opacity="1.0" stroke-linecap="round" stroke-linejoin="round" d="M 782.5999145507812 371.94146728515625 C 380.9881591796875 606.0545654296875 208.1334686279297 624.2476806640625 280.4855651855469 312.9079284667969 C 192.67770385742188 345.7930603027344 437.2336730957031 549.1924438476562 497.71343994140625 374.98150634765625 C 527.5654907226562 136.0283660888672 136.3826904296875 381.90960693359375 256.87445068359375 -23.817340850830078 C 449.6614074707031 -97.54769134521484 769.5654296875 -107.06083679199219 782.5999145507812 371.94146728515625"/>
    <path stroke-width="0" fill="rgb(-15, 4, 17)" opacity="0.98288715" stroke="rgb(144, 236, 18)" stroke-opacity="1.0" stroke-linecap="round" stroke-linejoin="round" d="M 420.72711181640625 344.06549072265625 C 400.3991394042969 346.7596435546875 408.8302001953125 577.9910278320312 408.8604431152344 363.6127624511719 C 240.3988494873047 360.5180358886719 247.9632568359375 324.9448547363281 330.3363952636719 347.78375244140625 C 437.0729675292969 333.83685302734375 393.3371887207031 378.5079650878906 320.3861083984375 163.5143585205078 C 412.9413146972656 343.8068542480469 407.3090515136719 343.2628173828125 420.72711181640625 344.06549072265625"/>
    <path stroke-width="0" fill="rgb(3, 4, -1)" opacity="0.98797613" stroke="rgb(5, 212, 198)" stroke-opacity="1.0" stroke-linecap="round" stroke-linejoin="round" d="M 194.49603271484375 144.26478576660156 C 192.9711456298828 172.47750854492188 159.49693298339844 169.86260986328125 168.05892944335938 138.6568603515625 C 133.63511657714844 285.7165222167969 169.35206604003906 220.77964782714844 168.84658813476562 152.4913330078125 C 187.948486328125 173.52423095703125 139.67605590820312 111.7419662475586 146.2149658203125 173.79815673828125 C 176.8131866455078 264.36822509765625 110.43232727050781 111.11356353759766 194.49603271484375 144.26478576660156"/>
    <path stroke-width="0" fill="rgb(255, 254, 253)" opacity="1.0407969" stroke="rgb(249, 203, 117)" stroke-opacity="1.0" stroke-linecap="round" stroke-linejoin="round" d="M 139.6291961669922 273.3709411621094 C 214.66990661621094 298.140625 163.47222900390625 301.984375 131.17527770996094 332.7966613769531 C 146.47166442871094 289.3674621582031 167.57974243164062 271.8428039550781 154.26541137695312 292.57623291015625 C 159.0933837890625 294.93438720703125 174.08009338378906 296.0043029785156 160.9413299560547 286.56201171875 C 132.81260681152344 273.4760437011719 148.18902587890625 280.4693908691406 139.6291961669922 273.3709411621094"/>
    <path stroke-width="0" fill="rgb(263, 261, 260)" opacity="0.9918449" stroke="rgb(30, 163, 36)" stroke-opacity="1.0" stroke-linecap="round" stroke-linejoin="round" d="M 152.15170288085938 320.2618103027344 C 172.03256225585938 262.824462890625 246.38241577148438 349.4744567871094 149.5147705078125 317.9654235839844 C 120.86022186279297 343.44122314453125 94.74954986572266 355.0711975097656 119.81446075439453 336.2306823730469 C 157.6374053955078 279.9037780761719 121.3182373046875 242.82566833496094 174.06407165527344 289.3118896484375 C 178.04550170898438 311.4693298339844 181.08331298828125 294.4915466308594 152.15170288085938 320.2618103027344"/>
    <path stroke-width="0" fill="rgb(1, 2, 1)" opacity="0.98963624" stroke="rgb(133, 105, 67)" stroke-opacity="1.0" stroke-linecap="round" stroke-linejoin="round" d="M 132.497802734375 440.62322998046875 C 138.42770385742188 473.72332763671875 -20.377628326416016 451.8403015136719 12.525915145874023 337.1349792480469 C 13.269976615905762 477.7582092285156 158.96461486816406 440.1534423828125 132.41770935058594 440.36444091796875 C 109.1805419921875 482.9778137207031 299.3547058105469 378.8644714355469 146.13902282714844 250.22528076171875 C 286.6261901855469 414.2674560546875 76.66561126708984 465.3000793457031 132.497802734375 440.62322998046875"/>
    <path stroke-width="0" fill="rgb(3, -2, 4)" opacity="0.98915297" stroke="rgb(116, 144, 4)" stroke-opacity="1.0" stroke-linecap="round" stroke-linejoin="round" d="M 13.005369186401367 390.8768615722656 C -19.76067352294922 342.81622314453125 -19.156475067138672 369.35931396484375 -26.320608139038086 336.8699645996094 C -9.040389060974121 376.6976013183594 -84.59100341796875 414.4803161621094 27.662338256835938 365.08123779296875 C -23.346261978149414 427.5412292480469 -6.166108131408691 189.51058959960938 163.25982666015625 262.8182373046875 C -59.59028244018555 209.30393981933594 35.56888961791992 501.14801025390625 13.005369186401367 390.8768615722656"/>
    <path stroke-width="0" fill="rgb(266, 258, 258)" opacity="0.9862804" stroke="rgb(156, 157, 240)" stroke-opacity="1.0" stroke-linecap="round" stroke-linejoin="round" d="M 359.12213134765625 281.0724182128906 C 331.72369384765625 379.3564453125 385.20880126953125 322.1348571777344 299.6453857421875 352.81915283203125 C 308.6518859863281 322.8565979003906 326.49835205078125 283.1856384277344 338.0498352050781 287.65576171875 C 322.6708984375 268.9453125 313.54986572265625 306.45843505859375 357.60797119140625 316.4574890136719 C 270.279052734375 286.54241943359375 384.70294189453125 248.5539093017578 359.12213134765625 281.0724182128906"/>
    <path stroke-width="0" fill="rgb(-16, 4, 17)" opacity="0.9922063" stroke="rgb(91, 111, 177)" stroke-opacity="1.0" stroke-linecap="round" stroke-linejoin="round" d="M 123.12858581542969 308.91351318359375 C 124.45523834228516 300.6936340332031 105.75849914550781 354.4267578125 124.4287338256836 327.0587463378906 C 112.76386260986328 337.1172180175781 155.65956115722656 163.16746520996094 176.21754455566406 146.34629821777344 C 129.05377197265625 332.82879638671875 129.40020751953125 331.1643371582031 119.98947143554688 315.951416015625 C 135.07679748535156 284.9306945800781 119.4420394897461 293.78271484375 123.12858581542969 308.91351318359375"/>
    <path stroke-width="0" fill="rgb(1, 2, 0)" opacity="0.994264" stroke="rgb(170, 171, 53)" stroke-opacity="1.0" stroke-linecap="round" stroke-linejoin="round" d="M 131.19773864746094 287.2420654296875 C 98.37088012695312 410.3843688964844 123.50358581542969 284.2169494628906 102.26714324951172 397.7694396972656 C 112.46243286132812 309.6108093261719 95.9032211303711 403.6605529785156 97.37313079833984 336.30438232421875 C 83.5056381225586 323.7577209472656 133.5117645263672 392.8623352050781 58.21971893310547 247.9916229248047 C 121.5395736694336 347.30145263671875 86.5932388305664 374.6015625 131.19773864746094 287.2420654296875"/>
    <path stroke-width="0" fill="rgb(3, -1, 13)" opacity="0.9839698" stroke="rgb(80, 92, 145)" stroke-opacity="1.0" stroke-linecap="round" stroke-linejoin="round" d="M 299.8246154785156 297.1476745605469 C 293.1314392089844 285.4875793457031 291.7491455078125 299.4649963378906 265.10748291015625 307.35272216796875 C 305.52142333984375 179.35211181640625 256.6211853027344 458.3390197753906 389.6418151855469 444.0892333984375 C 240.6304168701172 403.21722412109375 323.8750915527344 182.1416015625 485.3219299316406 282.5453796386719 C 353.35150146484375 155.25489807128906 275.71734619140625 388.3915710449219 299.8246154785156 297.1476745605469"/>
    <path stroke-width="0" fill="rgb(180, 187, 179)" opacity="0.9764479" stroke="rgb(252, 26, 53)" stroke-opacity="1.0" stroke-linecap="round" stroke-linejoin="round" d="M 392.7481689453125 206.93017578125 C 293.3727111816406 215.73480224609375 298.05059814453125 222.16737365722656 376.45672607421875 211.12754821777344 C 239.72718811035156 202.71791076660156 186.42269897460938 194.73367309570312 159.98394775390625 200.86309814453125 C 239.7285919189453 131.07838439941406 147.80235290527344 17.746692657470703 424.14337158203125 104.3902587890625 C 449.8137512207031 224.1123046875 268.68792724609375 108.00592041015625 392.7481689453125 206.93017578125"/>
    <path stroke-width="0" fill="rgb(184, 175, 167)" opacity="0.8473165" stroke="rgb(166, 64, 118)" stroke-opacity="1.0" stroke-linecap="round" stroke-linejoin="round" d="M 330.1578063964844 242.79486083984375 C 288.6885681152344 284.7666015625 279.97589111328125 325.74639892578125 237.0704345703125 356.00732421875 C 219.4828643798828 347.7046203613281 217.3116455078125 335.16790771484375 229.7170867919922 258.85638427734375 C 225.10955810546875 227.15353393554688 225.06861877441406 209.4995574951172 273.41571044921875 215.3558807373047 C 354.89208984375 216.78797912597656 336.75146484375 211.43362426757812 330.1578063964844 242.79486083984375"/>
    <path stroke-width="0" fill="rgb(62, 104, 177)" opacity="0.88991207" stroke="rgb(40, 28, 167)" stroke-opacity="1.0" stroke-linecap="round" stroke-linejoin="round" d="M 314.8292236328125 264.2232360839844 C 312.9862365722656 264.3828125 314.9061279296875 273.9256591796875 306.1605529785156 276.1274719238281 C 326.2548828125 270.0224609375 334.53118896484375 262.3200378417969 325.5475158691406 252.6679229736328 C 327.4063720703125 249.63841247558594 322.25885009765625 219.66839599609375 309.45489501953125 270.8034973144531 C 265.963134765625 324.8838806152344 337.39630126953125 309.5250244140625 314.8292236328125 264.2232360839844"/>
    <path stroke-width="0" fill="rgb(177, 175, 164)" opacity="0.8211726" stroke="rgb(50, 94, 209)" stroke-opacity="1.0" stroke-linecap="round" stroke-linejoin="round" d="M 444.23468017578125 454.27362060546875 C 432.1124572753906 475.06353759765625 241.35400390625 480.0732421875 426.5604553222656 469.6283874511719 C 147.19329833984375 633.3785400390625 351.8404846191406 313.3985900878906 199.87564086914062 384.0106201171875 C 225.28683471679688 290.3827209472656 135.59078979492188 256.63775634765625 202.91368103027344 300.9374694824219 C 332.51116943359375 358.4201965332031 288.65234375 462.0341491699219 444.23468017578125 454.27362060546875"/>
    <path stroke-width="0" fill="rgb(-7, 0, 22)" opacity="0.9738257" stroke="rgb(213, 24, 248)" stroke-opacity="1.0" stroke-linecap="round" stroke-linejoin="round" d="M 256.43890380859375 269.5500793457031 C 231.96897888183594 187.32894897460938 131.96556091308594 224.8649444580078 154.78443908691406 197.53421020507812 C 337.90087890625 211.84060668945312 354.17694091796875 191.9985809326172 260.2084045410156 216.53790283203125 C 283.5395202636719 220.4259490966797 353.0206298828125 256.6565246582031 343.9256896972656 205.4584503173828 C 256.3084411621094 197.27882385253906 257.55755615234375 247.0228271484375 256.43890380859375 269.5500793457031"/>
    <path stroke-width="0" fill="rgb(22, 76, 158)" opacity="0.81181985" stroke="rgb(249, 154, 188)" stroke-opacity="1.0" stroke-linecap="round" stroke-linejoin="round" d="M 326.8100891113281 229.39393615722656 C 256.4326477050781 295.2973327636719 205.5160369873047 284.0188903808594 235.3009490966797 268.2659912109375 C 214.11827087402344 278.23065185546875 206.73294067382812 282.22711181640625 192.0789031982422 251.43218994140625 C 143.1428680419922 277.8632507324219 147.30506896972656 199.06846618652344 176.0435791015625 218.36143493652344 C 265.9158935546875 212.1300048828125 314.909912109375 212.2584686279297 326.8100891113281 229.39393615722656"/>
    <path stroke-width="0" fill="rgb(0, -3, 0)" opacity="0.32954764" stroke="rgb(72, 30, 75)" stroke-opacity="1.0" stroke-linecap="round" stroke-linejoin="round" d="M 212.43528747558594 27.76645278930664 C -30.89707374572754 148.9354248046875 111.97219848632812 177.6126708984375 1.176652193069458 348.3593444824219 C -91.4556884765625 156.14981079101562 -36.267425537109375 116.59597778320312 -31.709943771362305 36.69902801513672 C -31.88047218322754 10.4307222366333 -24.965839385986328 4.1932501792907715 11.936320304870605 -3.7977490425109863 C 85.98799133300781 -1.8479959964752197 169.00021362304688 -68.30719757080078 212.43528747558594 27.76645278930664"/>
    <path stroke-width="0" fill="rgb(123, 125, 131)" opacity="0.73313105" stroke="rgb(81, 105, 16)" stroke-opacity="1.0" stroke-linecap="round" stroke-linejoin="round" d="M 289.9152526855469 50.323219299316406 C 4.876823425292969 88.9874267578125 167.87918090820312 230.36061096191406 27.702383041381836 274.30322265625 C 5.932220935821533 74.59927368164062 168.50100708007812 26.018638610839844 196.66468811035156 18.95181655883789 C 48.36605453491211 18.71641731262207 89.89347076416016 -61.75664520263672 132.53868103027344 -88.14286041259766 C 157.0618896484375 -111.64551544189453 203.13720703125 -175.4508056640625 289.9152526855469 50.323219299316406"/>
    <path stroke-width="0" fill="rgb(182, 179, 180)" opacity="0.73116654" stroke="rgb(144, 67, 133)" stroke-opacity="1.0" stroke-linecap="round" stroke-linejoin="round" d="M 329.3533630371094 -19.962873458862305 C 288.18817138671875 213.4408721923828 207.67263793945312 173.66099548339844 219.65411376953125 188.86886596679688 C 151.9268035888672 199.54342651367188 157.561767578125 219.37725830078125 173.64195251464844 162.57205200195312 C 270.59912109375 170.17440795898438 166.30047607421875 76.1814193725586 96.778564453125 214.08209228515625 C 187.1393280029297 13.247953414916992 347.5592956542969 25.933612823486328 329.3533630371094 -19.962873458862305"/>
    <path stroke-width="0" fill="rgb(24, 94, 180)" opacity="1.0063559" stroke="rgb(146, 236, 81)" stroke-opacity="1.0" stroke-linecap="round" stroke-linejoin="round" d="M 390.3072814941406 349.8460998535156 C 410.08599853515625 389.1835021972656 324.9581298828125 348.2860412597656 240.116455078125 407.3311462402344 C 341.6092834472656 340.01190185546875 264.3855285644531 432.4656677246094 202.91769409179688 314.0804748535156 C 129.68751525878906 189.2670440673828 100.69003295898438 258.9364929199219 332.9035949707031 220.5863037109375 C 302.84197998046875 395.58135986328125 254.17222595214844 355.64935302734375 390.3072814941406 349.8460998535156"/>
    <path stroke-width="0" fill="rgb(182, 192, 195)" opacity="0.9827675" stroke="rgb(33, 182, 73)" stroke-opacity="1.0" stroke-linecap="round" stroke-linejoin="round" d="M 308.77508544921875 281.3026123046875 C 272.4056091308594 373.58843994140625 311.35565185546875 307.1346130371094 255.04234313964844 335.3328552246094 C 231.76025390625 303.55731201171875 209.30740356445312 270.51068115234375 173.05662536621094 231.337158203125 C 154.55609130859375 206.8901824951172 120.86116790771484 215.06661987304688 269.6935729980469 213.3322296142578 C 363.5875549316406 222.119384765625 335.24456787109375 191.2410888671875 308.77508544921875 281.3026123046875"/>
    <path stroke-width="0" fill="rgb(142, 150, 145)" opacity="0.552653" stroke="rgb(149, 5, 211)" stroke-opacity="1.0" stroke-linecap="round" stroke-linejoin="round" d="M 517.6832275390625 351.1231384277344 C 410.6861877441406 141.12709045410156 378.1264953613281 217.08053588867188 381.4390563964844 227.33047485351562 C 302.3383483886719 101.45741271972656 265.8385314941406 56.88951110839844 107.4164810180664 144.2916259765625 C 171.84730529785156 -1.7729315757751465 213.88641357421875 53.04628372192383 294.09124755859375 -32.49821853637695 C 494.33380126953125 -49.264404296875 597.6151123046875 -60.0814323425293 517.6832275390625 351.1231384277344"/>
    <path stroke-width="0" fill="rgb(177, 177, 164)" opacity="0.9923154" stroke="rgb(172, 68, 187)" stroke-opacity="1.0" stroke-linecap="round" stroke-linejoin="round" d="M 475.65826416015625 274.09075927734375 C 514.6932373046875 300.4222412109375 445.8352966308594 223.03883361816406 366.6827087402344 254.33514404296875 C 348.3346862792969 216.05538940429688 321.88232421875 193.56973266601562 360.9774475097656 160.34628295898438 C 253.4496307373047 130.99533081054688 268.4848327636719 167.523681640625 369.7182312011719 179.30606079101562 C 490.3503723144531 101.39266967773438 479.7922058105469 158.8775177001953 475.65826416015625 274.09075927734375"/>
    <path stroke-width="0" fill="rgb(-5, 3, -2)" opacity="1.0110323" stroke="rgb(63, 146, 150)" stroke-opacity="1.0" stroke-linecap="round" stroke-linejoin="round" d="M 311.9748840332031 273.93902587890625 C 343.60888671875 172.8468780517578 356.0462646484375 183.36656188964844 324.5811767578125 263.59747314453125 C 322.6891784667969 264.44818115234375 327.68609619140625 255.16221618652344 324.8651428222656 260.6247253417969 C 325.8567810058594 257.2945251464844 326.04473876953125 266.79168701171875 322.3219909667969 262.74993896484375 C 327.0422058105469 263.72119140625 320.057861328125 287.537109375 311.9748840332031 273.93902587890625"/>
    <path stroke-width="0" fill="rgb(89, 94, 90)" opacity="0.7423761" stroke="rgb(56, 242, 114)" stroke-opacity="1.0" stroke-linecap="round" stroke-linejoin="round" d="M 14.794239044189453 163.87081909179688 C -10.522578239440918 348.65130615234375 18.433704376220703 83.12732696533203 -23.81129264831543 67.61949157714844 C -33.61650848388672 65.88433074951172 -35.86575698852539 55.43598556518555 -32.77946472167969 39.24637985229492 C -0.7150424122810364 -13.219094276428223 19.267343521118164 -48.66254806518555 267.88232421875 17.323965072631836 C 237.33346557617188 78.39041137695312 141.32061767578125 -91.6087875366211 14.794239044189453 163.87081909179688"/>
    <path stroke-width="0" fill="rgb(0, -3, 4)" opacity="0.99802303" stroke="rgb(178, 75, 207)" stroke-opacity="1.0" stroke-linecap="round" stroke-linejoin="round" d="M 484.6576843261719 449.7157287597656 C 536.8779296875 267.6124267578125 442.0868835449219 280.24627685546875 464.9806213378906 262.3409729003906 C 521.7589721679688 308.5860595703125 498.16168212890625 336.6613464355469 508.0482482910156 314.445068359375 C 509.1028137207031 404.0578918457031 502.4961853027344 410.8997802734375 496.60931396484375 371.0278015136719 C 497.3960876464844 463.64996337890625 301.2688903808594 456.9950866699219 484.6576843261719 449.7157287597656"/>
    <path stroke-width="0" fill="rgb(73, 77, 57)" opacity="0.8368608" stroke="rgb(224, 148, 224)" stroke-opacity="1.0" stroke-linecap="round" stroke-linejoin="round" d="M 61.33468246459961 480.306884765625 C 26.037364959716797 417.63507080078125 42.54899597167969 447.8435363769531 56.4545783996582 540.8178100585938 C -19.311622619628906 506.0487365722656 -11.487136840820312 480.6897888183594 -10.59770679473877 440.0127868652344 C -33.01291275024414 414.1160888671875 -26.158159255981445 417.95770263671875 1.1609303951263428 430.43017578125 C 40.427799224853516 442.423095703125 30.864776611328125 450.42626953125 61.33468246459961 480.306884765625"/>
    <path stroke-width="0" fill="rgb(68, 82, 72)" opacity="0.7764424" stroke="rgb(184, 127, 243)" stroke-opacity="1.0" stroke-linecap="round" stroke-linejoin="round" d="M 127.9865951538086 455.56304931640625 C 74.23070526123047 460.34271240234375 69.3568115234375 486.8309020996094 57.5571403503418 494.0242919921875 C 10.628966331481934 491.8506164550781 68.90339660644531 437.0079650878906 -15.843199729919434 433.9373779296875 C -12.885756492614746 397.8892517089844 -16.31598663330078 380.25579833984375 6.018253803253174 375.4859924316406 C 20.096363067626953 427.834716796875 65.90277099609375 459.16705322265625 127.9865951538086 455.56304931640625"/>
    <path stroke-width="0" fill="rgb(142, 133, 109)" opacity="0.9347754" stroke="rgb(108, 154, 4)" stroke-opacity="1.0" stroke-linecap="round" stroke-linejoin="round" d="M 98.17559051513672 364.552001953125 C 80.78955078125 395.4650573730469 59.50339889526367 439.6795959472656 66.38666534423828 426.6504821777344 C 64.81855010986328 436.2401428222656 42.34840393066406 406.6163635253906 28.00777244567871 390.3464050292969 C -7.805635452270508 317.5940246582031 27.301284790039062 355.6678771972656 101.5402603149414 339.83148193359375 C 95.00254821777344 358.9320373535156 51.76276397705078 413.82354736328125 98.17559051513672 364.552001953125"/>
    <path stroke-width="0" fill="rgb(93, 100, 101)" opacity="0.7532516" stroke="rgb(168, 73, 157)" stroke-opacity="1.0" stroke-linecap="round" stroke-linejoin="round" d="M 169.2789764404297 438.67437744140625 C 301.71380615234375 503.5381164550781 187.48924255371094 548.9073486328125 24.782005310058594 545.3782958984375 C 11.251142501831055 543.2071533203125 3.708277463912964 537.02392578125 8.829134941101074 531.5206298828125 C 30.658422470092773 462.0135498046875 29.465503692626953 449.1812744140625 35.833473205566406 458.9457702636719 C 119.68677520751953 464.8279724121094 144.8546142578125 441.81732177734375 169.2789764404297 438.67437744140625"/>
    <path stroke-width="0" fill="rgb(-3, 6, 4)" opacity="0.9491333" stroke="rgb(34, 76, 145)" stroke-opacity="1.0" stroke-linecap="round" stroke-linejoin="round" d="M 171.65017700195312 139.6032257080078 C 161.50637817382812 150.4279022216797 155.08807373046875 147.82020568847656 189.77691650390625 144.53939819335938 C 190.9550323486328 143.64163208007812 176.1208038330078 144.16323852539062 151.764892578125 147.7166748046875 C 187.1393585205078 148.31951904296875 195.0892333984375 145.737060546875 162.12356567382812 164.27528381347656 C 159.55409240722656 156.53167724609375 145.33612060546875 162.22576904296875 171.65017700195312 139.6032257080078"/>
    <path stroke-width="0" fill="rgb(84, 94, 78)" opacity="0.9121309" stroke="rgb(146, 166, 166)" stroke-opacity="1.0" stroke-linecap="round" stroke-linejoin="round" d="M 61.80848693847656 525.8056030273438 C 47.256099700927734 539.38818359375 38.75363540649414 545.7471313476562 27.42095375061035 546.61962890625 C -6.0 521.3204956054688 -13.320508003234863 514.0 -38.80834197998047 480.6268615722656 C -40.53716278076172 466.50299072265625 -38.7006721496582 451.0181579589844 6.997116565704346 390.7171325683594 C 60.3050422668457 481.28375244140625 132.97531127929688 479.4950256347656 61.80848693847656 525.8056030273438"/>
    <path stroke-width="0" fill="rgb(112, 120, 125)" opacity="0.89916295" stroke="rgb(182, 254, 38)" stroke-opacity="1.0" stroke-linecap="round" stroke-linejoin="round" d="M 520.9113159179688 375.63519287109375 C 583.1727905273438 358.7691955566406 478.3147277832031 266.83123779296875 428.71368408203125 239.2239227294922 C 468.82232666015625 149.2522735595703 318.8085632324219 40.12185287475586 248.63282775878906 86.55259704589844 C 63.01993179321289 -11.649467468261719 317.1072082519531 -36.0932731628418 373.1937561035156 0.6280273199081421 C 425.4673156738281 5.817039966583252 551.2667846679688 8.06075382232666 520.9113159179688 375.63519287109375"/>
    <path stroke-width="0" fill="rgb(88, 86, 84)" opacity="0.60446286" stroke="rgb(41, 156, 31)" stroke-opacity="1.0" stroke-linecap="round" stroke-linejoin="round" d="M 103.31609344482422 483.12335205078125 C 158.38653564453125 505.3496398925781 69.50607299804688 518.4143676757812 67.94831085205078 520.9268798828125 C 52.57462692260742 490.6929626464844 55.98640441894531 431.0580139160156 72.83512878417969 485.6365051269531 C -2.3258259296417236 406.50531005859375 -9.576262474060059 409.7969055175781 30.133407592773438 446.84014892578125 C 78.2789306640625 453.2909240722656 79.8338394165039 466.61181640625 103.31609344482422 483.12335205078125"/>
    <path stroke-width="0" fill="rgb(86, 91, 90)" opacity="0.66321415" stroke="rgb(205, 145, 103)" stroke-opacity="1.0" stroke-linecap="round" stroke-linejoin="round" d="M 67.0031509399414 450.1551818847656 C 183.55844116210938 492.6942443847656 208.8441925048828 535.08935546875 55.33238983154297 505.4209899902344 C -32.96967697143555 448.7717590332031 -37.827064514160156 392.7293701171875 72.17861938476562 503.03375244140625 C -30.04785919189453 438.6277160644531 -21.275999069213867 443.74163818359375 22.264005661010742 437.64483642578125 C 10.885376930236816 382.7915954589844 17.869218826293945 425.3025207519531 67.0031509399414 450.1551818847656"/>
    <path stroke-width="0" fill="rgb(87, 91, 81)" opacity="0.68479854" stroke="rgb(177, 115, 184)" stroke-opacity="1.0" stroke-linecap="round" stroke-linejoin="round" d="M 96.78671264648438 498.3963317871094 C 67.08626556396484 531.11767578125 58.42477035522461 537.534912109375 66.87351989746094 529.0983276367188 C 23.209993362426758 481.1407470703125 -43.548954010009766 493.6534423828125 -56.55971908569336 498.08148193359375 C -1.0405356884002686 455.7156066894531 -11.923786163330078 460.8006896972656 -22.04436683654785 448.3812255859375 C 27.286273956298828 435.2958679199219 30.255361557006836 470.23895263671875 96.78671264648438 498.3963317871094"/>
    <path stroke-width="0" fill="rgb(260, 10, 31)" opacity="0.77933717" stroke="rgb(248, 218, 2)" stroke-opacity="1.0" stroke-linecap="round" stroke-linejoin="round" d="M 363.9117431640625 172.59234619140625 C 345.4374694824219 180.85531616210938 349.7862243652344 173.7696075439453 324.89276123046875 159.4723358154297 C 332.0577087402344 174.72463989257812 311.61151123046875 148.25775146484375 335.19305419921875 167.89488220214844 C 371.4728088378906 191.96832275390625 347.9111022949219 153.33839416503906 338.32373046875 204.70362854003906 C 349.3936462402344 222.29547119140625 348.5330810546875 175.2459716796875 363.9117431640625 172.59234619140625"/>
    <path stroke-width="0" fill="rgb(-6, 1, 20)" opacity="0.99064016" stroke="rgb(186, 43, 132)" stroke-opacity="1.0" stroke-linecap="round" stroke-linejoin="round" d="M 180.8284454345703 301.9511413574219 C 192.29933166503906 263.419189453125 116.54956817626953 250.44020080566406 148.0136260986328 245.42947387695312 C 158.27926635742188 261.64520263671875 136.19732666015625 236.90310668945312 140.3452911376953 255.30728149414062 C 139.4038543701172 250.4716033935547 192.71116638183594 247.65945434570312 85.21367645263672 258.3726501464844 C 123.53683471679688 254.8720703125 165.95535278320312 269.92950439453125 180.8284454345703 301.9511413574219"/>
    <path stroke-width="0" fill="rgb(114, 111, 122)" opacity="0.61934584" stroke="rgb(50, 4, 202)" stroke-opacity="1.0" stroke-linecap="round" stroke-linejoin="round" d="M 246.02206420898438 454.9477233886719 C 232.32818603515625 575.0653686523438 137.41049194335938 552.504638671875 161.18641662597656 561.220703125 C 220.10011291503906 471.6445617675781 147.68426513671875 404.9916076660156 133.19313049316406 477.6081848144531 C 58.470726013183594 445.7877197265625 98.75122833251953 483.01226806640625 77.30364990234375 449.76092529296875 C 162.4180908203125 471.6123962402344 143.44317626953125 401.9930725097656 246.02206420898438 454.9477233886719"/>
    <path stroke-width="0" fill="rgb(258, 257, 259)" opacity="0.9312529" stroke="rgb(88, 236, 179)" stroke-opacity="1.0" stroke-linecap="round" stroke-linejoin="round" d="M 89.99510192871094 359.8031005859375 C 115.3951187133789 388.5180969238281 6.2711968421936035 399.1752014160156 26.557432174682617 390.66033935546875 C 88.31141662597656 402.8618469238281 109.98562622070312 333.3306884765625 60.32563400268555 436.53619384765625 C 32.29964065551758 377.78228759765625 8.288249969482422 403.0036926269531 77.42923736572266 372.0009765625 C 0.388105571269989 405.7752990722656 22.080678939819336 391.14947509765625 89.99510192871094 359.8031005859375"/>
    <path stroke-width="0" fill="rgb(119, 118, 124)" opacity="0.40890336" stroke="rgb(41, 158, 147)" stroke-opacity="1.0" stroke-linecap="round" stroke-linejoin="round" d="M 380.29998779296875 8.123739242553711 C 184.7178955078125 -13.102489471435547 270.4635925292969 100.94074249267578 516.2028198242188 109.60829162597656 C 504.1248474121094 -82.09558868408203 49.896976470947266 -55.31387710571289 -3.9248597621917725 281.9024353027344 C -41.725521087646484 -39.78107833862305 311.0296325683594 -44.398128509521484 299.9369201660156 -22.495031356811523 C 396.38861083984375 0.8287414908409119 411.18951416015625 15.726202011108398 380.29998779296875 8.123739242553711"/>
    <path stroke-width="0" fill="rgb(158, 162, 164)" opacity="0.6061212" stroke="rgb(238, 156, 136)" stroke-opacity="1.0" stroke-linecap="round" stroke-linejoin="round" d="M 449.8133544921875 255.18560791015625 C 330.6947326660156 220.7703399658203 437.98187255859375 4.30472469329834 429.47552490234375 124.16349792480469 C 110.45980834960938 158.6964111328125 181.1930389404297 76.04113006591797 80.84044647216797 251.1772918701172 C -12.276658058166504 75.1102294921875 458.05609130859375 4.031335353851318 319.0774841308594 42.59363555908203 C 302.75506591796875 9.440025329589844 526.3994140625 30.36554718017578 449.8133544921875 255.18560791015625"/>
    <path stroke-width="0" fill="rgb(92, 102, 102)" opacity="0.940989" stroke="rgb(186, 79, 101)" stroke-opacity="1.0" stroke-linecap="round" stroke-linejoin="round" d="M 545.0903930664062 323.7585144042969 C 547.3452758789062 544.0161743164062 540.02099609375 551.331298828125 442.28131103515625 579.9818115234375 C 290.79144287109375 689.1271362304688 224.35292053222656 741.1688842773438 219.95556640625 474.3264465332031 C 348.5779113769531 408.81304931640625 426.5149841308594 502.935791015625 494.48236083984375 401.34033203125 C 550.727783203125 282.3045349121094 402.0280456542969 230.75631713867188 545.0903930664062 323.7585144042969"/>
    <path stroke-width="0" fill="rgb(79, 126, 74)" opacity="0.29427156" stroke="rgb(47, 240, 188)" stroke-opacity="1.0" stroke-linecap="round" stroke-linejoin="round" d="M 404.6098937988281 300.74212646484375 C 401.9170837402344 293.9700012207031 409.4917297363281 271.55126953125 402.4607238769531 333.6939697265625 C 405.66876220703125 249.5268096923828 399.0218200683594 274.6537170410156 405.1685791015625 289.5288391113281 C 401.26824951171875 281.2180480957031 401.530517578125 249.89059448242188 400.9288024902344 254.96409606933594 C 402.8791809082031 240.25665283203125 403.46734619140625 301.54180908203125 404.6098937988281 300.74212646484375"/>
    <path stroke-width="0" fill="rgb(89, 94, 91)" opacity="0.29988393" stroke="rgb(57, 64, 14)" stroke-opacity="1.0" stroke-linecap="round" stroke-linejoin="round" d="M 142.8682098388672 462.8551330566406 C 245.2034912109375 508.99676513671875 151.8141632080078 504.73974609375 53.95590591430664 543.0746459960938 C 42.44731140136719 537.2024536132812 37.819068908691406 530.1972045898438 93.78961181640625 515.5606689453125 C -87.0211410522461 408.3005065917969 6.260392665863037 430.5108337402344 79.1914291381836 490.5142822265625 C 12.40802001953125 406.7616882324219 29.751569747924805 449.23486328125 142.8682098388672 462.8551330566406"/>
    <path stroke-width="0" fill="rgb(245, 19, 7)" opacity="1.0046498" stroke="rgb(79, 177, 96)" stroke-opacity="1.0" stroke-linecap="round" stroke-linejoin="round" d="M 164.315185546875 151.7984161376953 C 183.5452117919922 150.96815490722656 167.43849182128906 148.26597595214844 165.47389221191406 157.72682189941406 C 166.51902770996094 151.35614013671875 178.4573974609375 149.20176696777344 164.9846649169922 151.60301208496094 C 179.55987548828125 148.1750030517578 203.39930725097656 156.51341247558594 192.92483520507812 139.84991455078125 C 126.30349731445312 132.80099487304688 140.11349487304688 181.4398193359375 164.315185546875 151.7984161376953"/>
    <path stroke-width="0" fill="rgb(87, 89, 85)" opacity="0.863607" stroke="rgb(6, 17, 173)" stroke-opacity="1.0" stroke-linecap="round" stroke-linejoin="round" d="M 16.86422348022461 434.8660583496094 C 28.22271728515625 442.76776123046875 33.527835845947266 438.0425109863281 -63.39077377319336 451.9971008300781 C -25.437917709350586 456.98138427734375 -32.49625015258789 449.58746337890625 -45.60737609863281 424.22027587890625 C -70.31904602050781 352.2294006347656 -51.51760482788086 352.9572448730469 3.9097936153411865 361.5660095214844 C 16.699487686157227 419.3217468261719 32.081703186035156 434.0158996582031 16.86422348022461 434.8660583496094"/>
    <path stroke-width="0" fill="rgb(142, 149, 153)" opacity="0.5767148" stroke="rgb(136, 228, 252)" stroke-opacity="1.0" stroke-linecap="round" stroke-linejoin="round" d="M 452.88507080078125 230.7428436279297 C 411.380615234375 323.6377258300781 449.234375 69.82705688476562 261.70440673828125 89.58036041259766 C 255.294189453125 90.66326904296875 249.4148406982422 32.23128128051758 69.51406860351562 162.11666870117188 C 151.5240020751953 23.11366844177246 314.70263671875 20.839221954345703 366.5541687011719 -6.5378828048706055 C 273.573486328125 38.762916564941406 428.1322937011719 27.67119598388672 452.88507080078125 230.7428436279297"/>
    <path stroke-width="0" fill="rgb(134, 135, 137)" opacity="0.57262677" stroke="rgb(169, 67, 5)" stroke-opacity="1.0" stroke-linecap="round" stroke-linejoin="round" d="M 384.4236755371094 451.73309326171875 C 261.6380615234375 556.4437866210938 126.13937377929688 389.483642578125 104.89820098876953 610.451904296875 C 87.05445098876953 561.8491821289062 110.97525787353516 535.2816162109375 91.64524841308594 534.2803955078125 C 258.7099609375 601.0847778320312 204.66268920898438 410.8731689453125 127.23751831054688 456.78240966796875 C 188.08436584472656 419.439697265625 223.52381896972656 383.27984619140625 384.4236755371094 451.73309326171875"/>
    <path stroke-width="0" fill="rgb(92, 94, 90)" opacity="0.7189229" stroke="rgb(81, 97, 150)" stroke-opacity="1.0" stroke-linecap="round" stroke-linejoin="round" d="M 592.6554565429688 210.79830932617188 C 354.0504150390625 75.5796890258789 260.75244140625 -70.51492309570312 262.76104736328125 101.87096405029297 C 328.4454345703125 114.96683502197266 303.5373840332031 116.13285827636719 260.3869934082031 100.49018859863281 C 306.53765869140625 3.404737949371338 222.85623168945312 -53.77963638305664 423.1238708496094 -32.693389892578125 C 425.9204406738281 -11.36478042602539 515.5113525390625 -19.25348663330078 592.6554565429688 210.79830932617188"/>
    <path stroke-width="0" fill="rgb(88, 92, 79)" opacity="0.7384383" stroke="rgb(160, 222, 69)" stroke-opacity="1.0" stroke-linecap="round" stroke-linejoin="round" d="M 3.256775379180908 473.1537170410156 C 30.59677505493164 476.9492492675781 29.615524291992188 483.0653991699219 -22.610872268676758 476.54986572265625 C 10.457038879394531 452.3590087890625 -18.080373764038086 413.81536865234375 -30.1299991607666 414.26678466796875 C -29.795747756958008 421.0752258300781 -21.742794036865234 415.0025329589844 -13.058985710144043 410.0833740234375 C 31.901023864746094 425.2506408691406 23.45575523376465 462.0753479003906 3.256775379180908 473.1537170410156"/>
    <path stroke-width="0" fill="rgb(184, 179, 172)" opacity="0.83654845" stroke="rgb(47, 242, 175)" stroke-opacity="1.0" stroke-linecap="round" stroke-linejoin="round" d="M 333.79266357421875 246.4030303955078 C 333.0338134765625 220.78732299804688 323.6734619140625 300.6362609863281 348.1195983886719 260.6778259277344 C 341.3055725097656 220.3201904296875 362.5460205078125 241.46978759765625 349.37725830078125 206.56466674804688 C 378.4296875 223.39239501953125 384.9774475097656 242.10595703125 351.096435546875 230.99269104003906 C 342.7405700683594 252.67568969726562 346.84771728515625 193.25775146484375 333.79266357421875 246.4030303955078"/>
    <path stroke-width="0" fill="rgb(2, 11, -19)" opacity="0.78402185" stroke="rgb(241, 186, 64)" stroke-opacity="1.0" stroke-linecap="round" stroke-linejoin="round" d="M 534.05615234375 349.3876953125 C 403.24005126953125 387.0995178222656 434.40167236328125 293.4258117675781 441.38311767578125 366.7332763671875 C 385.40765380859375 337.02386474609375 424.96258544921875 343.0439453125 411.6831970214844 338.69183349609375 C 529.677490234375 190.60623168945312 384.3952941894531 333.8745422363281 412.6321716308594 397.0740661621094 C 396.3099365234375 312.7212219238281 463.6837158203125 382.4895324707031 534.05615234375 349.3876953125"/>
    <path stroke-width="0" fill="rgb(163, 167, 167)" opacity="0.70578974" stroke="rgb(132, 6, 52)" stroke-opacity="1.0" stroke-linecap="round" stroke-linejoin="round" d="M 342.34246826171875 114.36514282226562 C 364.73223876953125 158.51318359375 438.4128112792969 174.31944274902344 305.62786865234375 156.27133178710938 C 139.88243103027344 140.95989990234375 216.7139892578125 217.36546325683594 190.4831085205078 122.13349151611328 C 279.1645812988281 127.27165222167969 319.7052917480469 52.62355041503906 127.8113021850586 128.80178833007812 C 258.683837890625 77.30821990966797 270.69818115234375 103.05670166015625 342.34246826171875 114.36514282226562"/>
    <path stroke-width="0" fill="rgb(13, 22, -3)" opacity="0.6161719" stroke="rgb(95, 118, 70)" stroke-opacity="1.0" stroke-linecap="round" stroke-linejoin="round" d="M 414.1194763183594 255.63336181640625 C 408.2879943847656 255.49417114257812 398.6334228515625 227.10984802246094 404.152099609375 294.6549987792969 C 405.40264892578125 221.9932403564453 396.4323425292969 256.54364013671875 400.1841125488281 248.2653350830078 C 404.64501953125 256.8157653808594 407.2134704589844 250.34539794921875 401.0953063964844 252.7410125732422 C 400.79974365234375 257.190185546875 408.92987060546875 247.1186981201172 414.1194763183594 255.63336181640625"/>
    <path stroke-width="0" fill="rgb(26, 72, 36)" opacity="0.8476728" stroke="rgb(182, 100, 144)" stroke-opacity="1.0" stroke-linecap="round" stroke-linejoin="round" d="M 102.74626159667969 447.921630859375 C 103.71764373779297 367.04302978515625 99.45618438720703 426.4589538574219 100.9495849609375 445.8576965332031 C 101.59689331054688 451.2633972167969 109.22998046875 443.653564453125 101.61397552490234 448.85693359375 C 101.85208892822266 449.6865234375 106.51619720458984 441.90875244140625 99.56642150878906 445.2391052246094 C 105.00678253173828 449.9949951171875 98.30215454101562 445.22430419921875 102.74626159667969 447.921630859375"/>
    <path stroke-width="0" fill="rgb(264, 254, 248)" opacity="0.95918256" stroke="rgb(61, 25, 4)" stroke-opacity="1.0" stroke-linecap="round" stroke-linejoin="round" d="M 436.2735900878906 338.11212158203125 C 425.6156311035156 336.08148193359375 443.9879150390625 347.47332763671875 444.49755859375 378.9748840332031 C 431.93609619140625 388.37579345703125 404.17547607421875 376.85369873046875 437.4981384277344 401.55810546875 C 383.5672912597656 331.98797607421875 459.3045959472656 365.43072509765625 462.4515686035156 342.4881896972656 C 453.7533264160156 366.33673095703125 433.7732238769531 336.1917419433594 436.2735900878906 338.11212158203125"/>
    <path stroke-width="0" fill="rgb(266, 266, 258)" opacity="0.5698961" stroke="rgb(170, 200, 71)" stroke-opacity="1.0" stroke-linecap="round" stroke-linejoin="round" d="M 349.52105712890625 289.2367248535156 C 361.0775146484375 268.04351806640625 348.95794677734375 277.3603210449219 334.4496154785156 335.5846862792969 C 334.19036865234375 315.7685241699219 321.96417236328125 317.01318359375 355.1085510253906 279.34063720703125 C 352.94866943359375 282.1606750488281 344.25384521484375 249.02655029296875 330.77801513671875 278.8558349609375 C 340.69366455078125 252.4671630859375 357.6271667480469 274.29815673828125 349.52105712890625 289.2367248535156"/>
    <path stroke-width="0" fill="rgb(155, 157, 129)" opacity="0.23896977" stroke="rgb(16, 123, 249)" stroke-opacity="1.0" stroke-linecap="round" stroke-linejoin="round" d="M 336.60955810546875 321.9980163574219 C 358.8539733886719 352.33148193359375 373.4879455566406 335.02825927734375 312.6944274902344 343.7603454589844 C 394.5345764160156 346.9404602050781 340.2295227050781 341.9871520996094 341.3885803222656 323.91241455078125 C 333.6767883300781 339.90399169921875 318.41644287109375 330.04046630859375 305.4631652832031 306.0483093261719 C 327.73114013671875 346.8710021972656 344.4797058105469 327.72564697265625 336.60955810546875 321.9980163574219"/>
    <path stroke-width="0" fill="rgb(258, 245, 242)" opacity="0.7549633" stroke="rgb(86, 245, 59)" stroke-opacity="1.0" stroke-linecap="round" stroke-linejoin="round" d="M 13.09719181060791 361.6449890136719 C 21.22777557373047 237.37144470214844 77.23504638671875 333.8005065917969 31.930622100830078 340.197265625 C -5.252641677856445 332.337158203125 35.48918533325195 333.4982604980469 29.014827728271484 334.0323791503906 C 29.074737548828125 328.2058410644531 40.356292724609375 314.97210693359375 69.6252670288086 307.82861328125 C 45.87444305419922 315.3232116699219 33.436004638671875 314.8443298339844 13.09719181060791 361.6449890136719"/>
    <path stroke-width="0" fill="rgb(26, 53, 53)" opacity="0.7704858" stroke="rgb(126, 163, 93)" stroke-opacity="1.0" stroke-linecap="round" stroke-linejoin="round" d="M 357.8256530761719 341.7770080566406 C 351.56903076171875 341.0028381347656 375.6534729003906 378.30450439453125 317.92291259765625 369.15692138671875 C 315.5627746582031 367.236083984375 300.3516540527344 369.3190002441406 351.2876892089844 367.70269775390625 C 364.4267272949219 351.4975891113281 363.8253173828125 333.9965515136719 322.1453857421875 342.541015625 C 323.693115234375 329.8916015625 313.3362731933594 348.1941833496094 357.8256530761719 341.7770080566406"/>
    <path stroke-width="0" fill="rgb(89, 95, 82)" opacity="0.7748493" stroke="rgb(231, 197, 84)" stroke-opacity="1.0" stroke-linecap="round" stroke-linejoin="round" d="M 103.81425476074219 -9.872465133666992 C 65.92169189453125 23.82181739807129 -2.2216742038726807 80.5430908203125 4.017312049865723 116.90198516845703 C -60.72051239013672 74.93541717529297 -38.88621139526367 43.439605712890625 -21.261737823486328 2.9528255462646484 C -17.32050895690918 -10.0 -10.0 -17.32050895690918 7.241615295410156 -24.014564514160156 C 31.09577178955078 -33.32636642456055 38.93543243408203 -15.198221206665039 103.81425476074219 -9.872465133666992"/>
    <path stroke-width="0" fill="rgb(178, 183, 179)" opacity="0.7766045" stroke="rgb(103, 59, 33)" stroke-opacity="1.0" stroke-linecap="round" stroke-linejoin="round" d="M 201.59164428710938 178.54638671875 C 221.29043579101562 170.8020477294922 211.2782440185547 174.72198486328125 207.37399291992188 181.52012634277344 C 251.84634399414062 122.40261840820312 256.4111633300781 150.56686401367188 216.03158569335938 183.59909057617188 C 218.6403045654297 181.6182861328125 227.16455078125 174.3057861328125 227.24276733398438 171.23814392089844 C 224.16079711914062 129.4084930419922 203.48135375976562 153.58721923828125 201.59164428710938 178.54638671875"/>
    <path stroke-width="0" fill="rgb(260, 256, 258)" opacity="0.8320261" stroke="rgb(20, 22, 171)" stroke-opacity="1.0" stroke-linecap="round" stroke-linejoin="round" d="M 73.7738037109375 334.5122375488281 C 59.401981353759766 326.0802917480469 53.502559661865234 331.0089111328125 71.91576385498047 333.3362731933594 C 98.10256958007812 334.5495300292969 40.62606430053711 356.275634765625 23.686664581298828 330.23321533203125 C -15.199718475341797 438.80853271484375 87.2377700805664 350.05908203125 100.52316284179688 349.24896240234375 C 98.95130157470703 315.8612976074219 90.08811950683594 359.1617736816406 73.7738037109375 334.5122375488281"/>
    <path stroke-width="0" fill="rgb(251, 256, 249)" opacity="0.25095397" stroke="rgb(107, 142, 219)" stroke-opacity="1.0" stroke-linecap="round" stroke-linejoin="round" d="M 102.85893249511719 312.5883483886719 C 130.22544860839844 312.0440673828125 109.8475341796875 329.783203125 93.39642333984375 356.35003662109375 C 5.34954833984375 404.845703125 -0.24002140760421753 250.2010498046875 92.50789642333984 271.9454650878906 C 142.03909301757812 319.85260009765625 50.19712448120117 339.5708312988281 113.42902374267578 305.4958801269531 C 131.33746337890625 279.4574279785156 128.861328125 289.46746826171875 102.85893249511719 312.5883483886719"/>
    <path stroke-width="0" fill="rgb(-6, 10, 7)" opacity="0.7375596" stroke="rgb(14, 177, 198)" stroke-opacity="1.0" stroke-linecap="round" stroke-linejoin="round" d="M 23.351375579833984 299.2493591308594 C 23.406522750854492 287.6214904785156 54.2733268737793 318.2446594238281 106.93148040771484 350.4097900390625 C 60.877620697021484 313.6654968261719 14.079156875610352 293.4601135253906 23.560771942138672 279.5472412109375 C 18.406448364257812 292.1705627441406 26.903688430786133 273.39959716796875 23.668087005615234 310.45751953125 C 10.68118953704834 288.4017333984375 38.471622467041016 291.04827880859375 23.351375579833984 299.2493591308594"/>
    <path stroke-width="0" fill="rgb(160, 167, 161)" opacity="0.7918237" stroke="rgb(66, 95, 149)" stroke-opacity="1.0" stroke-linecap="round" stroke-linejoin="round" d="M 344.8208923339844 133.92391967773438 C 330.84368896484375 135.55892944335938 319.8453369140625 134.78233337402344 317.99102783203125 136.55966186523438 C 381.3287658691406 130.0882568359375 366.9016418457031 138.14573669433594 352.3208312988281 116.1904067993164 C 299.5906677246094 134.87049865722656 280.54107666015625 96.82921600341797 325.9458923339844 101.34385681152344 C 356.69293212890625 149.86447143554688 370.6826477050781 160.298828125 344.8208923339844 133.92391967773438"/>
    <path stroke-width="0" fill="rgb(2, 2, 21)" opacity="0.8639287" stroke="rgb(203, 19, 132)" stroke-opacity="1.0" stroke-linecap="round" stroke-linejoin="round" d="M 433.0011291503906 361.7884521484375 C 526.4780883789062 406.5762939453125 517.9268188476562 406.9579162597656 436.1359558105469 364.7723388671875 C 399.6484680175781 338.78082275390625 494.13726806640625 361.9998779296875 422.9774169921875 353.33282470703125 C 427.8853759765625 371.1980285644531 448.5472412109375 361.5950927734375 401.3564453125 344.3452453613281 C 377.8558044433594 360.9266052246094 417.59808349609375 350.41705322265625 433.0011291503906 361.7884521484375"/>
    <path stroke-width="0" fill="rgb(175, 166, 179)" opacity="0.5997196" stroke="rgb(109, 130, 136)" stroke-opacity="1.0" stroke-linecap="round" stroke-linejoin="round" d="M 328.86041259765625 127.71312713623047 C 319.04644775390625 158.41427612304688 304.1700744628906 164.23358154296875 301.1281433105469 165.63694763183594 C 344.1217956542969 181.56980895996094 310.8761901855469 166.82919311523438 321.2530517578125 194.1028289794922 C 317.05401611328125 184.57913208007812 328.14031982421875 172.2815399169922 298.62322998046875 157.98638916015625 C 294.70513916015625 148.2198028564453 322.4660949707031 157.82861328125 328.86041259765625 127.71312713623047"/>
    <path stroke-width="0" fill="rgb(13, 1, -17)" opacity="0.66174215" stroke="rgb(70, 32, 100)" stroke-opacity="1.0" stroke-linecap="round" stroke-linejoin="round" d="M 198.37771606445312 403.2687683105469 C 100.67041015625 345.08624267578125 47.14479064941406 336.67413330078125 131.1016387939453 350.33929443359375 C 121.39688110351562 325.52838134765625 125.83683013916016 336.84759521484375 130.79580688476562 350.9534912109375 C 89.67183685302734 349.8096923828125 119.8198013305664 365.2056579589844 161.134521484375 453.132080078125 C 79.38050842285156 310.2127685546875 101.78204345703125 361.3181457519531 198.37771606445312 403.2687683105469"/>
    <path stroke-width="0" fill="rgb(178, 184, 175)" opacity="0.8709674" stroke="rgb(224, 116, 184)" stroke-opacity="1.0" stroke-linecap="round" stroke-linejoin="round" d="M 197.48011779785156 181.7366943359375 C 170.7084197998047 172.55584716796875 165.86314392089844 181.53451538085938 180.04055786132812 188.47616577148438 C 204.68374633789062 162.23252868652344 198.28236389160156 166.13121032714844 188.4351043701172 167.4370880126953 C 175.85252380371094 187.11752319335938 197.17872619628906 176.91973876953125 216.0248565673828 184.6610107421875 C 195.80677795410156 178.71560668945312 169.4464874267578 222.7832794189453 197.48011779785156 181.7366943359375"/>
    <path stroke-width="0" fill="rgb(35, 49, 30)" opacity="0.5877322" stroke="rgb(192, 162, 61)" stroke-opacity="1.0" stroke-linecap="round" stroke-linejoin="round" d="M 2.903602361679077 331.7453308105469 C 79.22273254394531 347.3860778808594 52.182640075683594 330.71441650390625 49.497230529785156 303.2923278808594 C 49.60737609863281 312.2436828613281 53.65827941894531 303.1162414550781 52.563114166259766 304.7678527832031 C 54.166831970214844 305.5313415527344 43.4219856262207 310.5462341308594 54.07028579711914 315.07891845703125 C 53.87772750854492 330.2216796875 70.26925659179688 351.2923889160156 2.903602361679077 331.7453308105469"/>
    <path stroke-width="0" fill="rgb(1, 5, -2)" opacity="0.65578246" stroke="rgb(90, 90, 4)" stroke-opacity="1.0" stroke-linecap="round" stroke-linejoin="round" d="M 159.33444213867188 161.2908477783203 C 157.77394104003906 160.134521484375 163.39306640625 160.54225158691406 181.9195098876953 156.8030548095703 C 160.06741333007812 161.96914672851562 160.99215698242188 154.9564666748047 156.28468322753906 204.50338745117188 C 156.47186279296875 168.26828002929688 165.63929748535156 162.33984375 168.4429931640625 159.538330078125 C 159.40478515625 165.36810302734375 183.0618133544922 143.24334716796875 159.33444213867188 161.2908477783203"/>
    <path stroke-width="0" fill="rgb(169, 155, 174)" opacity="0.40278354" stroke="rgb(248, 252, 104)" stroke-opacity="1.0" stroke-linecap="round" stroke-linejoin="round" d="M 104.89796447753906 239.62701416015625 C 105.882568359375 219.29598999023438 101.78126525878906 243.3637237548828 126.50331115722656 246.2130889892578 C 131.6044158935547 205.56614685058594 113.50668334960938 218.2801971435547 120.20247650146484 240.91514587402344 C 108.66114044189453 235.01210021972656 127.69181823730469 150.47357177734375 111.932861328125 191.3043975830078 C 118.0567398071289 211.72764587402344 128.90707397460938 246.22750854492188 104.89796447753906 239.62701416015625"/>
    <path stroke-width="0" fill="rgb(9, 11, -6)" opacity="0.6927361" stroke="rgb(162, 125, 252)" stroke-opacity="1.0" stroke-linecap="round" stroke-linejoin="round" d="M 470.9781188964844 355.3070373535156 C 367.8874816894531 360.04180908203125 406.16632080078125 333.1825866699219 409.5994873046875 368.37506103515625 C 420.64410400390625 323.0309753417969 421.20928955078125 346.7620849609375 349.582763671875 446.1965637207031 C 414.4211730957031 342.41259765625 421.2012634277344 353.87860107421875 367.4146728515625 371.5628356933594 C 365.7486877441406 381.3608093261719 379.4276428222656 345.3523864746094 470.9781188964844 355.3070373535156"/>
    <path stroke-width="0" fill="rgb(159, 183, 167)" opacity="0.37905055" stroke="rgb(91, 211, 235)" stroke-opacity="1.0" stroke-linecap="round" stroke-linejoin="round" d="M 358.1012268066406 325.2980651855469 C 351.8203125 318.1427001953125 365.1461486816406 320.9166564941406 354.5316162109375 376.2998046875 C 348.3256530761719 375.5028076171875 361.623046875 378.3926086425781 358.3197326660156 324.456787109375 C 362.3712463378906 319.4290771484375 356.7371826171875 318.6905822753906 376.4092102050781 334.08673095703125 C 358.87933349609375 316.06005859375 351.158447265625 322.5413513183594 358.1012268066406 325.2980651855469"/>
    <path stroke-width="0" fill="rgb(51, 25, 18)" opacity="0.98318475" stroke="rgb(59, 88, 207)" stroke-opacity="1.0" stroke-linecap="round" stroke-linejoin="round" d="M 437.39990234375 337.8676452636719 C 483.924072265625 316.7308349609375 452.3083801269531 326.16217041015625 461.830322265625 323.36431884765625 C 465.4158630371094 327.3210144042969 465.490234375 321.77239990234375 471.884033203125 317.61151123046875 C 465.05419921875 327.7283020019531 473.855224609375 312.9146423339844 478.64453125 318.6801452636719 C 430.6028747558594 334.7040100097656 401.9598388671875 360.7542419433594 437.39990234375 337.8676452636719"/>
    <path stroke-width="0" fill="rgb(240, 243, 243)" opacity="0.31248945" stroke="rgb(63, 27, 242)" stroke-opacity="1.0" stroke-linecap="round" stroke-linejoin="round" d="M 108.95579528808594 401.6511535644531 C 44.57960891723633 429.781982421875 56.33320236206055 442.6539001464844 20.95349884033203 390.0941467285156 C 114.39990997314453 415.1004638671875 91.70344543457031 410.08526611328125 54.2933349609375 405.7016906738281 C 79.41658782958984 448.9957580566406 111.68267822265625 464.1940002441406 94.6046142578125 410.07403564453125 C 85.52037811279297 404.2641906738281 79.46842193603516 403.9358215332031 108.95579528808594 401.6511535644531"/>
    <path stroke-width="0" fill="rgb(131, 140, 132)" opacity="0.7371083" stroke="rgb(175, 14, 186)" stroke-opacity="1.0" stroke-linecap="round" stroke-linejoin="round" d="M 62.8328742980957 244.75775146484375 C 67.1553955078125 249.28146362304688 59.717830657958984 266.26043701171875 38.816341400146484 241.39659118652344 C 80.28369903564453 249.5920867919922 75.94835662841797 239.73568725585938 59.59926223754883 235.72457885742188 C 58.44682312011719 232.6689910888672 52.653594970703125 114.8816146850586 40.53981399536133 245.0360107421875 C 126.6507797241211 211.19635009765625 149.57913208007812 257.1989440917969 62.8328742980957 244.75775146484375"/>
    <path stroke-width="0" fill="rgb(129, 140, 136)" opacity="0.7391391" stroke="rgb(213, 60, 128)" stroke-opacity="1.0" stroke-linecap="round" stroke-linejoin="round" d="M 59.47395706176758 248.36965942382812 C 89.32414245605469 255.7002410888672 87.22369384765625 243.8502655029297 49.35890579223633 237.46206665039062 C 37.68959426879883 242.9766387939453 76.38639831542969 237.4105987548828 122.01212310791016 227.8686981201172 C 74.99034118652344 235.67356872558594 68.27986145019531 245.98350524902344 56.950069427490234 248.5760040283203 C 96.16352844238281 245.80381774902344 106.13872528076172 243.802978515625 59.47395706176758 248.36965942382812"/>
    <path stroke-width="0" fill="rgb(159, 167, 154)" opacity="0.6989423" stroke="rgb(228, 103, 140)" stroke-opacity="1.0" stroke-linecap="round" stroke-linejoin="round" d="M 405.9533386230469 218.5174102783203 C 401.4882507324219 241.98834228515625 390.3480224609375 246.16065979003906 430.1134033203125 248.7351837158203 C 456.9073791503906 237.23361206054688 394.7911071777344 220.3564910888672 392.283447265625 241.88490295410156 C 399.552978515625 237.76687622070312 400.49188232421875 256.4505920410156 403.2751159667969 242.5930938720703 C 396.80889892578125 243.8512420654297 407.44622802734375 241.09239196777344 405.9533386230469 218.5174102783203"/>
    <path stroke-width="0" fill="rgb(157, 166, 154)" opacity="0.58600086" stroke="rgb(64, 113, 26)" stroke-opacity="1.0" stroke-linecap="round" stroke-linejoin="round" d="M 136.38543701171875 235.37135314941406 C 107.21168518066406 227.1662139892578 111.56561279296875 224.56256103515625 120.86405944824219 229.4678955078125 C 140.1571044921875 243.93807983398438 100.20899200439453 245.85763549804688 69.01155853271484 238.11422729492188 C 146.9796600341797 224.71136474609375 69.73722076416016 207.27455139160156 120.57070922851562 235.782470703125 C 105.54792022705078 249.6840362548828 148.19956970214844 254.2579345703125 136.38543701171875 235.37135314941406"/>
    <path stroke-width="0" fill="rgb(96, 55, 69)" opacity="0.18273845" stroke="rgb(0, 0, 0)" stroke-opacity="0.0" stroke-linecap="round" stroke-linejoin="round" d="M 270.9542541503906 16.07839584350586 C 271.6431579589844 21.228599548339844 268.5167541503906 24.04275131225586 264.0745544433594 25.756994247436523 C 259.7207946777344 24.386234283447266 256.39239501953125 21.343406677246094 258.0704040527344 19.156192779541016 C 259.5709533691406 12.399908065795898 259.4120788574219 8.362530708312988 263.5321350097656 9.832796096801758 C 270.4556884765625 9.253518104553223 272.31298828125 10.718769073486328 270.9542541503906 16.07839584350586"/>
    <path stroke-width="0" fill="rgb(29, 31, 12)" opacity="0.26720312" stroke="rgb(0, 0, 0)" stroke-opacity="0.0" stroke-linecap="round" stroke-linejoin="round" d="M 12.247459411621094 12.583206176757812 C 13.671428680419922 16.901233673095703 9.312244415283203 16.762733459472656 3.2239794731140137 18.594297409057617 C 2.566283941268921 17.712369918823242 0.8442268967628479 13.053613662719727 0.8859364986419678 11.948308944702148 C 2.158851146697998 11.858510971069336 4.684863090515137 7.826621055603027 4.827755451202393 3.8926634788513184 C 7.980832099914551 6.239354133605957 12.565957069396973 7.638909339904785 12.247459411621094 12.583206176757812"/>
    <path stroke-width="0" fill="rgb(91, 164, 14)" opacity="0.7365763" stroke="rgb(0, 0, 0)" stroke-opacity="0.0" stroke-linecap="round" stroke-linejoin="round" d="M 185.46133422851562 17.360143661499023 C 184.7483673095703 20.227596282958984 182.4608612060547 23.388647079467773 178.63735961914062 24.118289947509766 C 175.2188262939453 24.093564987182617 173.26658630371094 20.351707458496094 172.17745971679688 16.529224395751953 C 172.2313995361328 13.249842643737793 175.26617431640625 10.466399192810059 179.32168579101562 9.850943565368652 C 182.5796661376953 10.417411804199219 185.04006958007812 13.918768882751465 185.46133422851562 17.360143661499023"/>
    <path stroke-width="0" fill="rgb(189, 61, 147)" opacity="0.66971856" stroke="rgb(0, 0, 0)" stroke-opacity="0.0" stroke-linecap="round" stroke-linejoin="round" d="M 103.5892333984375 -0.48229068517684937 C 101.26537322998047 3.3040781021118164 99.21293640136719 7.045966625213623 97.09698486328125 7.888429164886475 C 93.39076232910156 7.428577899932861 90.73682403564453 4.6407647132873535 90.2763900756836 0.8382198214530945 C 90.61405181884766 -2.2106549739837646 92.95861053466797 -5.527967929840088 96.74906921386719 -6.688626766204834 C 100.77532196044922 -5.6320929527282715 103.9214096069336 -2.8491270542144775 103.5892333984375 -0.48229068517684937"/>
    <path stroke-width="0" fill="rgb(183, 17, 97)" opacity="0.5778884" stroke="rgb(0, 0, 0)" stroke-opacity="0.0" stroke-linecap="round" stroke-linejoin="round" d="M 484.6604919433594 237.33157348632812 C 484.1210021972656 240.98104858398438 481.89373779296875 244.29798889160156 479.1151428222656 244.18470764160156 C 474.8990173339844 243.49420166015625 471.897216796875 240.73648071289062 470.7878723144531 237.23703002929688 C 471.6053466796875 234.14244079589844 474.9722595214844 231.60995483398438 478.72021484375 230.9196014404297 C 481.2566833496094 231.4955596923828 484.19256591796875 234.30213928222656 484.6604919433594 237.33157348632812"/>
    <path stroke-width="0" fill="rgb(5, 148, 215)" opacity="0.022144679" stroke="rgb(0, 0, 0)" stroke-opacity="0.0" stroke-linecap="round" stroke-linejoin="round" d="M 218.93173217773438 413.8113098144531 C 217.9668426513672 417.8262939453125 214.9630584716797 420.6571960449219 210.81837463378906 421.57806396484375 C 207.15594482421875 420.4950256347656 204.2248992919922 417.4268493652344 203.57867431640625 414.0036926269531 C 204.2408447265625 409.60638427734375 206.68121337890625 406.5345458984375 210.63284301757812 405.5736083984375 C 214.7978515625 406.9549255371094 217.91590881347656 409.72955322265625 218.93173217773438 413.8113098144531"/>
    <path stroke-width="0" fill="rgb(251, 24, 9)" opacity="0.31036136" stroke="rgb(0, 0, 0)" stroke-opacity="0.0" stroke-linecap="round" stroke-linejoin="round" d="M 210.51724243164062 491.1375732421875 C 209.61875915527344 495.26141357421875 206.8853759765625 498.2392883300781 203.27769470214844 499.4609069824219 C 199.1983642578125 498.51873779296875 196.1900177001953 495.7721862792969 195.57801818847656 491.75372314453125 C 196.22769165039062 487.59881591796875 199.078125 484.6637268066406 203.03326416015625 484.14208984375 C 207.05943298339844 484.97076416015625 210.2737579345703 487.79052734375 210.51724243164062 491.1375732421875"/>
    <path stroke-width="0" fill="rgb(35, 103, 74)" opacity="0.6834551" stroke="rgb(0, 0, 0)" stroke-opacity="0.0" stroke-linecap="round" stroke-linejoin="round" d="M -3.0916974544525146 32.441959381103516 C -4.163494110107422 36.441959381103516 -7.091697692871094 39.37016296386719 -11.091697692871094 40.441959381103516 C -15.091697692871094 39.37016296386719 -18.019901275634766 36.441959381103516 -19.091697692871094 32.441959381103516 C -18.019901275634766 28.441957473754883 -15.091697692871094 25.513755798339844 -11.091697692871094 24.441957473754883 C -7.091697692871094 25.513755798339844 -4.163494110107422 28.441957473754883 -3.0916974544525146 32.441959381103516"/>
    <path stroke-width="0" fill="rgb(0, 19, 145)" opacity="0.10359624" stroke="rgb(0, 0, 0)" stroke-opacity="0.0" stroke-linecap="round" stroke-linejoin="round" d="M 163.9923095703125 209.13186645507812 C 162.1453094482422 213.1723175048828 159.46263122558594 216.40078735351562 156.32943725585938 217.3433074951172 C 153.14601135253906 216.2906494140625 150.3300018310547 213.0782470703125 148.3724822998047 210.43910217285156 C 149.6478729248047 206.47447204589844 152.50563049316406 202.86557006835938 156.38319396972656 201.98147583007812 C 161.63999938964844 201.8848114013672 163.94564819335938 204.97694396972656 163.9923095703125 209.13186645507812"/>
    <path stroke-width="0" fill="rgb(197, 156, 130)" opacity="0.93283606" stroke="rgb(0, 0, 0)" stroke-opacity="0.0" stroke-linecap="round" stroke-linejoin="round" d="M -1.8688490390777588 27.140506744384766 C -2.940645933151245 31.140506744384766 -5.868849277496338 34.06871032714844 -9.86884880065918 35.140506744384766 C -13.86884880065918 34.06871032714844 -16.79705238342285 31.140506744384766 -17.86884880065918 27.140506744384766 C -16.79705238342285 23.140506744384766 -13.86884880065918 20.212305068969727 -9.86884880065918 19.140506744384766 C -5.868849277496338 20.212305068969727 -2.940645933151245 23.140506744384766 -1.8688490390777588 27.140506744384766"/>
    <path stroke-width="0" fill="rgb(41, 129, 160)" opacity="0.52062815" stroke="rgb(0, 0, 0)" stroke-opacity="0.0" stroke-linecap="round" stroke-linejoin="round" d="M 42.09111022949219 54.614498138427734 C 41.28692626953125 58.781253814697266 38.28057861328125 61.77406311035156 33.938655853271484 63.02914047241211 C 30.110820770263672 61.92890548706055 26.990955352783203 59.10044860839844 26.919923782348633 54.609031677246094 C 26.54680824279785 49.91312789916992 29.451095581054688 47.333370208740234 34.3050422668457 47.79098892211914 C 38.713645935058594 47.62593078613281 41.690528869628906 50.247314453125 42.09111022949219 54.614498138427734"/>
    <path stroke-width="0" fill="rgb(200, 77, 160)" opacity="0.16756035" stroke="rgb(0, 0, 0)" stroke-opacity="0.0" stroke-linecap="round" stroke-linejoin="round" d="M 75.09274291992188 53.3358039855957 C 75.16991424560547 57.642513275146484 72.63904571533203 59.84673309326172 67.64598083496094 60.23529815673828 C 63.826805114746094 60.649532318115234 61.361663818359375 57.935611724853516 61.50099563598633 54.121604919433594 C 62.399166107177734 50.24103546142578 65.26197052001953 47.171607971191406 69.18833923339844 45.56428527832031 C 72.95133972167969 45.804443359375 75.20701599121094 49.1324348449707 75.09274291992188 53.3358039855957"/>
    <path stroke-width="0" fill="rgb(187, 121, 63)" opacity="0.22509839" stroke="rgb(0, 0, 0)" stroke-opacity="0.0" stroke-linecap="round" stroke-linejoin="round" d="M 123.73469543457031 236.65789794921875 C 123.00820922851562 240.21339416503906 120.35795593261719 243.39601135253906 115.77135467529297 244.67684936523438 C 111.92369842529297 244.16152954101562 109.4219970703125 240.67124938964844 108.47325134277344 235.9021453857422 C 109.33544921875 232.40823364257812 112.42555236816406 229.41441345214844 116.2069091796875 228.19224548339844 C 119.93433380126953 229.78977966308594 122.7512435913086 232.99505615234375 123.73469543457031 236.65789794921875"/>
    <path stroke-width="0" fill="rgb(151, 195, 72)" opacity="0.46204418" stroke="rgb(0, 0, 0)" stroke-opacity="0.0" stroke-linecap="round" stroke-linejoin="round" d="M 84.33976745605469 -18.902538299560547 C 83.26797485351562 -14.902539253234863 80.33976745605469 -11.974335670471191 76.33976745605469 -10.902539253234863 C 72.33976745605469 -11.974335670471191 69.41156768798828 -14.902539253234863 68.33976745605469 -18.902538299560547 C 69.41156768798828 -22.902538299560547 72.33976745605469 -25.83074188232422 76.33976745605469 -26.902538299560547 C 80.33976745605469 -25.83074188232422 83.26797485351562 -22.902538299560547 84.33976745605469 -18.902538299560547"/>
    <path stroke-width="0" fill="rgb(45, 231, 11)" opacity="0.033601556" stroke="rgb(0, 0, 0)" stroke-opacity="0.0" stroke-linecap="round" stroke-linejoin="round" d="M 217.5704803466797 133.58633422851562 C 216.77618408203125 137.1741943359375 213.795654296875 140.05984497070312 209.47463989257812 141.09963989257812 C 205.13522338867188 140.97909545898438 202.40333557128906 137.9186248779297 202.3204345703125 134.37655639648438 C 203.79566955566406 129.85296630859375 206.3912353515625 126.83805084228516 210.4280242919922 125.45472717285156 C 213.6531524658203 126.52811431884766 216.54571533203125 129.52029418945312 217.5704803466797 133.58633422851562"/>
    <path stroke-width="0" fill="rgb(81, 15, 184)" opacity="0.85660166" stroke="rgb(0, 0, 0)" stroke-opacity="0.0" stroke-linecap="round" stroke-linejoin="round" d="M 444.6395568847656 204.26055908203125 C 444.18267822265625 209.6331329345703 441.6451416015625 212.5810089111328 438.05364990234375 213.18955993652344 C 434.32501220703125 212.0855255126953 431.1803894042969 209.72093200683594 431.08770751953125 204.8196258544922 C 430.51422119140625 202.0823974609375 434.3586120605469 199.91876220703125 438.8685607910156 198.51568603515625 C 442.36419677734375 198.8883056640625 445.7455139160156 201.13375854492188 444.6395568847656 204.26055908203125"/>
    <path stroke-width="0" fill="rgb(56, 189, 79)" opacity="0.75888026" stroke="rgb(0, 0, 0)" stroke-opacity="0.0" stroke-linecap="round" stroke-linejoin="round" d="M 395.6126403808594 153.4692840576172 C 395.72137451171875 157.6428680419922 392.5478210449219 160.31951904296875 388.3325500488281 161.53004455566406 C 384.2955322265625 160.87351989746094 381.3675537109375 158.14524841308594 381.14764404296875 154.3262176513672 C 382.1907653808594 149.7754364013672 384.65643310546875 146.6146697998047 389.0391540527344 145.51666259765625 C 393.22662353515625 146.2286834716797 395.9527893066406 149.18008422851562 395.6126403808594 153.4692840576172"/>
    <path stroke-width="0" fill="rgb(163, 243, 99)" opacity="0.09045555" stroke="rgb(0, 0, 0)" stroke-opacity="0.0" stroke-linecap="round" stroke-linejoin="round" d="M 452.81988525390625 486.5041198730469 C 452.65234375 491.3848571777344 449.9761962890625 493.74212646484375 444.7655029296875 494.0723876953125 C 440.89117431640625 494.4273681640625 438.76898193359375 490.8104553222656 437.82611083984375 485.89215087890625 C 438.036376953125 481.9125061035156 440.6902160644531 479.1854553222656 446.0502014160156 478.62152099609375 C 450.5435791015625 478.4683837890625 452.6471252441406 481.7168273925781 452.81988525390625 486.5041198730469"/>
    <path stroke-width="0" fill="rgb(188, 94, 21)" opacity="0.14863375" stroke="rgb(0, 0, 0)" stroke-opacity="0.0" stroke-linecap="round" stroke-linejoin="round" d="M 446.9617614746094 74.84762573242188 C 446.2375183105469 79.24917602539062 443.5887451171875 82.20713806152344 439.51220703125 82.83785247802734 C 435.7414855957031 81.8773193359375 433.0272521972656 78.73175048828125 431.7240905761719 74.6775894165039 C 432.7797546386719 71.45530700683594 435.73883056640625 68.51935577392578 439.9253234863281 67.66194152832031 C 443.82232666015625 67.87700653076172 446.7153625488281 70.79241943359375 446.9617614746094 74.84762573242188"/>
    <path stroke-width="0" fill="rgb(253, 144, 55)" opacity="0.70126325" stroke="rgb(0, 0, 0)" stroke-opacity="0.0" stroke-linecap="round" stroke-linejoin="round" d="M 361.94317626953125 385.8453063964844 C 360.7745666503906 388.68621826171875 357.39361572265625 391.2545166015625 354.4112854003906 393.7412109375 C 352.1379089355469 391.8489685058594 348.1903381347656 389.6031188964844 346.0743713378906 386.3411560058594 C 347.7156982421875 381.58551025390625 350.5921325683594 378.6706848144531 354.87249755859375 377.8499450683594 C 358.9095764160156 379.211181640625 361.5465087890625 382.3521423339844 361.94317626953125 385.8453063964844"/>
    <path stroke-width="0" fill="rgb(250, 93, 230)" opacity="0.58020025" stroke="rgb(0, 0, 0)" stroke-opacity="0.0" stroke-linecap="round" stroke-linejoin="round" d="M 425.79718017578125 330.70794677734375 C 425.77471923828125 333.3162536621094 422.53955078125 335.8880615234375 419.0041198730469 337.1347961425781 C 415.0423583984375 335.8289489746094 411.75946044921875 333.50335693359375 411.28289794921875 329.6159973144531 C 412.2087097167969 325.9557189941406 415.9911804199219 323.7487487792969 419.77410888671875 322.0062255859375 C 422.4015808105469 322.72808837890625 424.54217529296875 326.37469482421875 425.79718017578125 330.70794677734375"/>
    <path stroke-width="0" fill="rgb(208, 19, 39)" opacity="0.67726725" stroke="rgb(0, 0, 0)" stroke-opacity="0.0" stroke-linecap="round" stroke-linejoin="round" d="M 100.19400787353516 6.733165264129639 C 100.30525207519531 11.913662910461426 97.86774444580078 14.863274574279785 94.23467254638672 14.120965003967285 C 90.58377075195312 13.319454193115234 87.44727325439453 10.418356895446777 86.8404541015625 7.871156692504883 C 87.17932891845703 3.8337056636810303 89.4842300415039 0.44352635741233826 93.90740966796875 -1.104469656944275 C 98.70976257324219 -0.7469473481178284 101.35540008544922 2.261091709136963 100.19400787353516 6.733165264129639"/>
    <path stroke-width="0" fill="rgb(74, 165, 55)" opacity="0.8330978" stroke="rgb(0, 0, 0)" stroke-opacity="0.0" stroke-linecap="round" stroke-linejoin="round" d="M 265.7448425292969 204.50640869140625 C 264.97882080078125 209.7441864013672 262.9591979980469 213.38331604003906 258.08709716796875 214.1322784423828 C 254.29571533203125 212.7383270263672 252.12059020996094 208.71205139160156 250.94024658203125 204.1048126220703 C 250.34239196777344 200.57196044921875 253.69122314453125 198.19818115234375 258.07135009765625 196.93060302734375 C 261.7284851074219 198.49163818359375 265.1663818359375 201.73648071289062 265.7448425292969 204.50640869140625"/>
    <path stroke-width="0" fill="rgb(36, 34, 19)" opacity="0.6224525" stroke="rgb(0, 0, 0)" stroke-opacity="0.0" stroke-linecap="round" stroke-linejoin="round" d="M 8.319633483886719 5.7318267822265625 C 8.095749855041504 10.38906192779541 5.902362823486328 13.752495765686035 2.4112770557403564 13.290033340454102 C -1.4632155895233154 11.262378692626953 -5.00737190246582 8.740691184997559 -6.852952480316162 5.711842060089111 C -5.8698320388793945 1.8920007944107056 -2.9416286945343018 -1.0362024307250977 2.35520076751709 -3.420159101486206 C 6.035626411437988 -2.2507925033569336 8.407416343688965 1.118578553199768 8.319633483886719 5.7318267822265625"/>
    <path stroke-width="0" fill="rgb(154, 223, 203)" opacity="0.025198273" stroke="rgb(0, 0, 0)" stroke-opacity="0.0" stroke-linecap="round" stroke-linejoin="round" d="M 15.414763450622559 282.98590087890625 C 14.46707820892334 287.846923828125 11.849005699157715 290.96026611328125 7.997430324554443 290.6827697753906 C 3.8210885524749756 289.6427307128906 0.5260867476463318 287.0919494628906 -1.159774899482727 282.8917236328125 C -0.4404652416706085 278.5531311035156 2.4651377201080322 275.7550964355469 7.095060348510742 275.8483581542969 C 12.110905647277832 276.21820068359375 15.081493377685547 278.60260009765625 15.414763450622559 282.98590087890625"/>
    <path stroke-width="0" fill="rgb(174, 164, 76)" opacity="0.50819093" stroke="rgb(0, 0, 0)" stroke-opacity="0.0" stroke-linecap="round" stroke-linejoin="round" d="M 407.079345703125 328.1278076171875 C 406.4574890136719 332.9631652832031 401.5331726074219 333.7627868652344 396.1971740722656 335.3739318847656 C 392.9288635253906 336.3238220214844 391.4046325683594 332.1840515136719 390.9119567871094 327.12200927734375 C 390.68743896484375 323.833740234375 393.63128662109375 320.7125549316406 397.7186279296875 318.9187927246094 C 402.3529357910156 320.4071960449219 405.23504638671875 323.4029541015625 407.079345703125 328.1278076171875"/>
    <path stroke-width="0" fill="rgb(135, 14, 168)" opacity="0.6402087" stroke="rgb(0, 0, 0)" stroke-opacity="0.0" stroke-linecap="round" stroke-linejoin="round" d="M 374.8226318359375 85.22908782958984 C 375.1080322265625 88.33016967773438 372.2783203125 91.01164245605469 367.6167907714844 91.68951416015625 C 364.5921936035156 91.2318115234375 362.27777099609375 87.77120971679688 361.5791015625 84.11119842529297 C 362.14337158203125 81.0457534790039 364.850830078125 77.85430908203125 367.797607421875 77.13858795166016 C 371.2998352050781 78.42102813720703 373.978759765625 81.4332504272461 374.8226318359375 85.22908782958984"/>
    <path stroke-width="0" fill="rgb(233, 136, 36)" opacity="0.7788412" stroke="rgb(0, 0, 0)" stroke-opacity="0.0" stroke-linecap="round" stroke-linejoin="round" d="M 93.5701904296875 150.9431610107422 C 92.6952896118164 155.24285888671875 90.07073211669922 158.10655212402344 85.78330993652344 158.8214111328125 C 82.19773864746094 158.9954071044922 79.81212615966797 156.10372924804688 79.4418716430664 151.48406982421875 C 79.56925964355469 147.6018829345703 82.3964614868164 144.99998474121094 86.7530746459961 144.37950134277344 C 91.03843688964844 144.7470245361328 93.57662200927734 147.2955780029297 93.5701904296875 150.9431610107422"/>
    <path stroke-width="0" fill="rgb(47, 207, 1)" opacity="0.8988842" stroke="rgb(0, 0, 0)" stroke-opacity="0.0" stroke-linecap="round" stroke-linejoin="round" d="M -7.770774841308594 -2.824073314666748 C -8.842571258544922 1.1759265661239624 -11.770774841308594 4.104129791259766 -15.770774841308594 5.175926685333252 C -19.770774841308594 4.104129791259766 -22.698978424072266 1.1759265661239624 -23.770774841308594 -2.824073314666748 C -22.698978424072266 -6.824073314666748 -19.770774841308594 -9.752276420593262 -15.770774841308594 -10.824073791503906 C -11.770774841308594 -9.752276420593262 -8.842571258544922 -6.824073314666748 -7.770774841308594 -2.824073314666748"/>
    <path stroke-width="0" fill="rgb(98, 188, 191)" opacity="0.7880353" stroke="rgb(0, 0, 0)" stroke-opacity="0.0" stroke-linecap="round" stroke-linejoin="round" d="M 316.60968017578125 156.65463256835938 C 315.5243835449219 160.966552734375 313.0322570800781 164.3863983154297 308.7754821777344 165.62881469726562 C 303.7993469238281 164.5266571044922 300.8446350097656 161.8976287841797 301.30615234375 157.6240997314453 C 301.959228515625 152.9650421142578 304.72393798828125 149.96743774414062 308.5805358886719 149.27960205078125 C 312.6815490722656 150.06082153320312 315.7829284667969 152.80601501464844 316.60968017578125 156.65463256835938"/>
    <path stroke-width="0" fill="rgb(143, 146, 164)" opacity="0.68090904" stroke="rgb(0, 0, 0)" stroke-opacity="0.0" stroke-linecap="round" stroke-linejoin="round" d="M 125.80094146728516 97.9997329711914 C 125.39315795898438 101.95472717285156 122.31103515625 104.53840637207031 117.65998077392578 105.03672790527344 C 114.36106872558594 104.6993179321289 111.93368530273438 101.12535858154297 111.16021728515625 96.79150390625 C 111.14134216308594 93.49364471435547 113.87388610839844 90.62259674072266 117.84850311279297 90.45397186279297 C 121.57522583007812 91.34632110595703 124.49714660644531 94.17604064941406 125.80094146728516 97.9997329711914"/>
    <path stroke-width="0" fill="rgb(76, 24, 12)" opacity="0.8077725" stroke="rgb(0, 0, 0)" stroke-opacity="0.0" stroke-linecap="round" stroke-linejoin="round" d="M 494.26220703125 172.26266479492188 C 494.2633361816406 175.92198181152344 491.01361083984375 178.53782653808594 487.3529968261719 179.67539978027344 C 483.9953308105469 178.16664123535156 481.10205078125 175.0192108154297 479.442626953125 171.3137664794922 C 480.4356384277344 168.1700439453125 483.34161376953125 165.0039520263672 487.2742004394531 163.49636840820312 C 491.6212463378906 164.32298278808594 494.1558532714844 167.6686248779297 494.26220703125 172.26266479492188"/>
    <path stroke-width="0" fill="rgb(45, 11, 147)" opacity="0.75377816" stroke="rgb(0, 0, 0)" stroke-opacity="0.0" stroke-linecap="round" stroke-linejoin="round" d="M 156.7541961669922 266.18096923828125 C 154.93014526367188 270.66064453125 152.05776977539062 273.65826416015625 147.83071899414062 274.3675842285156 C 144.17698669433594 274.2481689453125 141.5364990234375 271.0296630859375 141.19052124023438 266.75811767578125 C 141.6058807373047 263.1917419433594 144.79454040527344 260.77099609375 149.16897583007812 259.4461975097656 C 152.42543029785156 259.8968811035156 155.82577514648438 262.8240966796875 156.7541961669922 266.18096923828125"/>
    <path stroke-width="0" fill="rgb(24, 17, 77)" opacity="0.4456951" stroke="rgb(0, 0, 0)" stroke-opacity="0.0" stroke-linecap="round" stroke-linejoin="round" d="M 81.50322723388672 115.50817108154297 C 79.98202514648438 118.64989471435547 77.39546203613281 122.4478759765625 74.81108093261719 123.41730499267578 C 70.73193359375 122.11129760742188 67.5085678100586 119.64613342285156 66.59850311279297 115.39410400390625 C 66.7533950805664 111.5712661743164 70.21449279785156 109.578369140625 74.90666198730469 107.9837875366211 C 78.14030456542969 108.71006774902344 80.96751403808594 112.16326904296875 81.50322723388672 115.50817108154297"/>
    <path stroke-width="0" fill="rgb(190, 212, 185)" opacity="0.34092858" stroke="rgb(0, 0, 0)" stroke-opacity="0.0" stroke-linecap="round" stroke-linejoin="round" d="M 302.2795715332031 143.89288330078125 C 301.533935546875 148.2731475830078 298.5038146972656 151.03982543945312 293.4870910644531 151.81646728515625 C 288.9365539550781 151.72625732421875 286.5394592285156 148.8498992919922 286.2289733886719 143.64810180664062 C 286.25823974609375 139.07608032226562 289.4300537109375 136.4596710205078 293.5179138183594 136.51576232910156 C 297.7874450683594 137.23480224609375 301.12615966796875 139.67257690429688 302.2795715332031 143.89288330078125"/>
    <path stroke-width="0" fill="rgb(131, 28, 93)" opacity="0.81871283" stroke="rgb(0, 0, 0)" stroke-opacity="0.0" stroke-linecap="round" stroke-linejoin="round" d="M 309.92584228515625 403.3604736328125 C 309.31982421875 407.06182861328125 305.7737121582031 409.36492919921875 301.0539245605469 409.97576904296875 C 296.971923828125 410.3777770996094 294.6442565917969 407.4720764160156 294.0832214355469 402.2715148925781 C 294.7431945800781 398.9786071777344 298.147216796875 396.2348937988281 301.86212158203125 394.90228271484375 C 305.5451965332031 396.0294189453125 308.6359558105469 399.01336669921875 309.92584228515625 403.3604736328125"/>
    <path stroke-width="0" fill="rgb(47, 187, 191)" opacity="0.6566783" stroke="rgb(0, 0, 0)" stroke-opacity="0.0" stroke-linecap="round" stroke-linejoin="round" d="M 296.29931640625 105.93933868408203 C 296.1238098144531 109.72775268554688 292.7390441894531 111.91339874267578 288.7820129394531 112.24018859863281 C 285.0773620605469 111.20691680908203 281.6536865234375 108.8218994140625 281.1619873046875 105.58871459960938 C 281.81597900390625 100.72229766845703 283.5881042480469 97.16614532470703 287.7738952636719 97.44718933105469 C 293.2118835449219 97.61074829101562 295.648193359375 100.50398254394531 296.29931640625 105.93933868408203"/>
    <path stroke-width="0" fill="rgb(66, 51, 76)" opacity="0.8937053" stroke="rgb(0, 0, 0)" stroke-opacity="0.0" stroke-linecap="round" stroke-linejoin="round" d="M 305.1379699707031 178.30555725097656 C 304.2847900390625 182.44302368164062 301.9930114746094 186.1036376953125 297.7191467285156 186.38731384277344 C 293.33660888671875 185.6924285888672 291.1355895996094 182.366455078125 290.46142578125 179.12681579589844 C 292.0289306640625 175.62525939941406 294.61822509765625 171.75086975097656 298.1360168457031 170.88546752929688 C 301.6548767089844 170.8945770263672 304.52655029296875 174.42405700683594 305.1379699707031 178.30555725097656"/>
    <path stroke-width="0" fill="rgb(26, -1, 103)" opacity="0.4296522" stroke="rgb(0, 0, 0)" stroke-opacity="0.0" stroke-linecap="round" stroke-linejoin="round" d="M 12.152304649353027 -2.3407087326049805 C 10.728177070617676 1.3109575510025024 7.538736820220947 4.056182384490967 5.481055736541748 4.960191249847412 C 3.343158721923828 3.8662705421447754 0.20140397548675537 1.1946040391921997 -1.1103390455245972 -2.545807123184204 C -1.5652016401290894 -4.993467807769775 1.3630015850067139 -7.921670913696289 5.363001823425293 -8.993467330932617 C 9.363001823425293 -7.921670913696289 12.291204452514648 -4.993467807769775 12.152304649353027 -2.3407087326049805"/>
    <path stroke-width="0" fill="rgb(7, 200, 256)" opacity="0.034603793" stroke="rgb(0, 0, 0)" stroke-opacity="0.0" stroke-linecap="round" stroke-linejoin="round" d="M 141.2863006591797 314.28857421875 C 140.8555450439453 317.2326965332031 138.04959106445312 320.2529602050781 134.11900329589844 320.7509765625 C 130.17054748535156 319.9023132324219 126.74170684814453 317.5584716796875 127.06409454345703 314.314208984375 C 127.99014282226562 309.9082946777344 130.41842651367188 306.7118225097656 134.49342346191406 305.94091796875 C 137.513427734375 306.7835693359375 139.95977783203125 310.2012634277344 141.2863006591797 314.28857421875"/>
    <path stroke-width="0" fill="rgb(100, 101, 180)" opacity="0.2972453" stroke="rgb(0, 0, 0)" stroke-opacity="0.0" stroke-linecap="round" stroke-linejoin="round" d="M 327.07244873046875 441.1867370605469 C 326.92041015625 445.5307312011719 324.1566467285156 448.5126037597656 319.72381591796875 449.4479064941406 C 315.71368408203125 448.18011474609375 312.9877014160156 445.020751953125 312.36334228515625 440.5509033203125 C 311.8900146484375 436.029541015625 314.5934753417969 433.2704772949219 319.68914794921875 432.62921142578125 C 324.0246276855469 433.89141845703125 326.8211364746094 436.85491943359375 327.07244873046875 441.1867370605469"/>
    <path stroke-width="0" fill="rgb(33, 10, 190)" opacity="0.14354448" stroke="rgb(0, 0, 0)" stroke-opacity="0.0" stroke-linecap="round" stroke-linejoin="round" d="M 466.262451171875 201.88113403320312 C 465.64471435546875 205.4525146484375 463.1009521484375 208.87051391601562 459.44635009765625 209.9363250732422 C 455.43646240234375 208.70343017578125 452.4575500488281 205.7551727294922 452.01025390625 201.84860229492188 C 452.20526123046875 197.3430938720703 454.7470397949219 194.60699462890625 460.0091857910156 193.88470458984375 C 463.95550537109375 194.04815673828125 466.2220764160156 197.45301818847656 466.262451171875 201.88113403320312"/>
    <path stroke-width="0" fill="rgb(195, 161, 19)" opacity="0.26183325" stroke="rgb(0, 0, 0)" stroke-opacity="0.0" stroke-linecap="round" stroke-linejoin="round" d="M 414.1983337402344 101.24305725097656 C 413.7341003417969 105.1552963256836 411.8905029296875 108.7462387084961 407.9875183105469 109.39869689941406 C 403.2048034667969 107.99678802490234 400.2125549316406 105.53329467773438 399.93426513671875 101.35736846923828 C 400.2694396972656 96.78560638427734 402.984375 93.85804748535156 408.22552490234375 92.87907409667969 C 412.3203430175781 93.23078155517578 414.0842590332031 97.02914428710938 414.1983337402344 101.24305725097656"/>
  </g>
</svg>
