<?xml version="1.0" ?>
<svg xmlns="http://www.w3.org/2000/svg" version="1.1" width="512" height="512">
  <defs/>
  <g>
    <path stroke-width="0" fill="rgb(92, 91, 93)" opacity="0.9872551" stroke="rgb(139, 182, 153)" stroke-opacity="1.0" stroke-linecap="round" stroke-linejoin="round" d="M 541.3200073242188 308.05511474609375 C 578.2432250976562 717.5508422851562 523.9196166992188 607.5655517578125 409.77728271484375 560.2735595703125 C -4.815953731536865 574.9983520507812 -43.95188903808594 610.2658081054688 -51.99632263183594 372.31396484375 C -35.529502868652344 305.1559143066406 -20.042537689208984 302.2029724121094 -55.385093688964844 327.29583740234375 C 171.8543701171875 412.65289306640625 275.5885009765625 446.15118408203125 541.3200073242188 308.05511474609375"/>
    <path stroke-width="0" fill="rgb(159, 146, 125)" opacity="1.0" stroke="rgb(108, 164, 111)" stroke-opacity="1.0" stroke-linecap="round" stroke-linejoin="round" d="M 531.5314331054688 -27.25542449951172 C 497.6551513671875 128.60609436035156 518.7197875976562 204.41445922851562 363.37451171875 226.62960815429688 C 186.88880920410156 231.9495849609375 165.8973846435547 297.3218994140625 169.3838348388672 -7.425023078918457 C 210.9188232421875 -99.50502014160156 286.98626708984375 -51.62980651855469 403.1378173828125 -41.173099517822266 C 511.8313903808594 -42.366355895996094 529.109375 -45.23481750488281 531.5314331054688 -27.25542449951172"/>
    <path stroke-width="0" fill="rgb(43, 40, 41)" opacity="0.74106586" stroke="rgb(245, 97, 201)" stroke-opacity="1.0" stroke-linecap="round" stroke-linejoin="round" d="M 187.8315887451172 178.96485900878906 C 190.7510528564453 352.14666748046875 170.8295135498047 378.5779113769531 238.6464385986328 419.8966979980469 C -50.717674255371094 422.08587646484375 -52.9149169921875 407.9179992675781 -49.1762809753418 372.6441345214844 C -52.37535095214844 79.1630859375 -55.43769836425781 54.96458435058594 -14.062962532043457 -48.59404754638672 C 359.5319519042969 -46.66907501220703 346.0615234375 -5.768990516662598 187.8315887451172 178.96485900878906"/>
    <path stroke-width="0" fill="rgb(49, 34, 14)" opacity="0.9992563" stroke="rgb(144, 236, 18)" stroke-opacity="1.0" stroke-linecap="round" stroke-linejoin="round" d="M 567.6400146484375 413.51593017578125 C 629.235107421875 460.04010009765625 659.2772827148438 465.8188781738281 292.5404357910156 419.6999206542969 C 327.8769226074219 148.5586395263672 287.91986083984375 390.6933288574219 308.17559814453125 173.4351806640625 C 259.5757751464844 -81.6600341796875 338.815185546875 -53.28558349609375 483.1893005371094 -40.14495086669922 C 578.5626220703125 -28.153284072875977 566.8272094726562 -10.542065620422363 567.6400146484375 413.51593017578125"/>
    <path stroke-width="0" fill="rgb(41, 28, 9)" opacity="0.9902518" stroke="rgb(5, 212, 198)" stroke-opacity="1.0" stroke-linecap="round" stroke-linejoin="round" d="M 191.62649536132812 280.4725036621094 C 172.589599609375 274.775146484375 248.6739501953125 472.6317443847656 183.1111297607422 441.20654296875 C 215.45248413085938 289.6063232421875 -37.4842643737793 198.5935821533203 84.301513671875 128.90582275390625 C 54.80670928955078 185.76080322265625 56.85399627685547 178.39462280273438 30.024032592773438 233.7997283935547 C 101.77055358886719 238.53927612304688 214.86871337890625 171.33206176757812 191.62649536132812 280.4725036621094"/>
    <path stroke-width="0" fill="rgb(26, 14, 2)" opacity="0.9999882" stroke="rgb(249, 203, 117)" stroke-opacity="1.0" stroke-linecap="round" stroke-linejoin="round" d="M 352.9021911621094 117.58158874511719 C 347.3985900878906 191.52796936035156 298.4228820800781 157.826171875 249.84793090820312 171.6915740966797 C 100.29234313964844 83.13923645019531 -6.221909046173096 196.57798767089844 55.07374954223633 76.44927215576172 C 82.74649047851562 -26.135356903076172 92.35602569580078 -30.492427825927734 196.02581787109375 -27.823692321777344 C 219.40792846679688 -42.56330490112305 282.6952819824219 -81.29261779785156 352.9021911621094 117.58158874511719"/>
    <path stroke-width="0" fill="rgb(96, 95, 96)" opacity="1.0" stroke="rgb(30, 163, 36)" stroke-opacity="1.0" stroke-linecap="round" stroke-linejoin="round" d="M 578.4916381835938 404.7875671386719 C 694.0384521484375 439.3053894042969 846.5838012695312 529.8840942382812 253.99549865722656 514.5429077148438 C 443.21533203125 192.5336151123047 285.33203125 301.1990661621094 318.3661193847656 112.73750305175781 C 382.92822265625 -28.808603286743164 409.79705810546875 -14.56885051727295 485.3011779785156 -32.26240539550781 C 565.7853393554688 -14.515660285949707 562.3096313476562 3.841090679168701 578.4916381835938 404.7875671386719"/>
    <path stroke-width="0" fill="rgb(92, 92, 93)" opacity="0.95803934" stroke="rgb(133, 105, 67)" stroke-opacity="1.0" stroke-linecap="round" stroke-linejoin="round" d="M 123.86061096191406 64.33221435546875 C 121.37226104736328 114.06250762939453 114.05819702148438 129.4079132080078 75.65779113769531 141.102783203125 C -16.853879928588867 137.421630859375 -27.432817459106445 132.74832153320312 -34.66988754272461 46.866600036621094 C -28.461292266845703 -17.69627571105957 -20.302188873291016 -27.176698684692383 45.96729278564453 -28.471765518188477 C 108.67988586425781 -1.4230592250823975 113.2765884399414 8.898911476135254 123.86061096191406 64.33221435546875"/>
    <path stroke-width="0" fill="rgb(95, 94, 95)" opacity="0.87394685" stroke="rgb(116, 144, 4)" stroke-opacity="1.0" stroke-linecap="round" stroke-linejoin="round" d="M 111.2334976196289 55.87954330444336 C 66.25895690917969 178.8291015625 92.39434814453125 210.2528076171875 -9.793198585510254 337.2704162597656 C -40.7213249206543 243.1691131591797 -35.085670471191406 217.4142608642578 -35.5753288269043 95.17083740234375 C -24.18320083618164 67.49183654785156 -15.285745620727539 60.31418991088867 79.87657165527344 59.50746536254883 C 120.22818756103516 65.669677734375 131.29124450683594 71.35102081298828 111.2334976196289 55.87954330444336"/>
    <path stroke-width="0" fill="rgb(94, 94, 95)" opacity="1.0" stroke="rgb(156, 157, 240)" stroke-opacity="1.0" stroke-linecap="round" stroke-linejoin="round" d="M 233.155517578125 40.93265914916992 C 208.87623596191406 119.91609191894531 187.96897888183594 114.88003540039062 117.61454772949219 109.02037048339844 C 50.10462951660156 107.53600311279297 46.6624641418457 88.33125305175781 34.0540657043457 1.1116153001785278 C 31.948171615600586 -31.350082397460938 42.582454681396484 -35.894710540771484 94.07343292236328 -37.2251091003418 C 221.0026397705078 -91.22877502441406 218.34307861328125 -78.42558288574219 233.155517578125 40.93265914916992"/>
    <path stroke-width="0" fill="rgb(95, 94, 96)" opacity="1.0" stroke="rgb(91, 111, 177)" stroke-opacity="1.0" stroke-linecap="round" stroke-linejoin="round" d="M 195.41427612304688 129.11412048339844 C 159.06297302246094 358.9394226074219 144.34957885742188 64.8126220703125 165.3627471923828 537.96044921875 C -127.01535034179688 550.3731079101562 -88.73860168457031 495.13446044921875 -25.452571868896484 437.35137939453125 C 52.056556701660156 112.7198715209961 52.257423400878906 76.27117919921875 332.055419921875 66.18588256835938 C 270.6434631347656 25.274883270263672 265.7168273925781 191.822998046875 195.41427612304688 129.11412048339844"/>
    <path stroke-width="0" fill="rgb(96, 95, 96)" opacity="0.8482617" stroke="rgb(170, 171, 53)" stroke-opacity="1.0" stroke-linecap="round" stroke-linejoin="round" d="M 523.3375244140625 -0.6393628120422363 C 495.2008056640625 119.43411254882812 598.204833984375 164.88523864746094 264.10467529296875 236.72784423828125 C 395.5465393066406 178.73362731933594 251.27113342285156 162.72552490234375 200.95144653320312 -20.38337516784668 C 304.89898681640625 -86.0112533569336 335.77398681640625 -53.68967056274414 387.0159606933594 -45.11587142944336 C 518.9805908203125 -42.30170822143555 528.1303100585938 -37.58413314819336 523.3375244140625 -0.6393628120422363"/>
    <path stroke-width="0" fill="rgb(118, 114, 113)" opacity="0.99146616" stroke="rgb(80, 92, 145)" stroke-opacity="1.0" stroke-linecap="round" stroke-linejoin="round" d="M 416.48687744140625 -0.5188066959381104 C 428.36322021484375 175.55770874023438 277.993408203125 55.661258697509766 284.35406494140625 59.506248474121094 C 108.18672943115234 56.5953254699707 175.19143676757812 97.55834197998047 149.0470733642578 -25.368738174438477 C 154.8877716064453 -31.89655303955078 169.101806640625 -29.487001419067383 216.2349853515625 -28.543506622314453 C 271.21038818359375 -37.61959457397461 283.8244323730469 -37.228580474853516 416.48687744140625 -0.5188066959381104"/>
    <path stroke-width="0" fill="rgb(125, 112, 97)" opacity="0.5655312" stroke="rgb(252, 26, 53)" stroke-opacity="1.0" stroke-linecap="round" stroke-linejoin="round" d="M 232.45310974121094 76.27363586425781 C 229.6846466064453 88.0160140991211 218.13983154296875 92.0886459350586 200.7054443359375 94.04119873046875 C 148.8165283203125 95.80207061767578 153.6981658935547 87.80179595947266 139.9989013671875 24.88666534423828 C 138.82769775390625 12.578276634216309 141.957275390625 0.5609648823738098 152.04879760742188 -8.657562255859375 C 205.6490478515625 46.9858512878418 235.81515502929688 0.2595757842063904 232.45310974121094 76.27363586425781"/>
    <path stroke-width="0" fill="rgb(94, 93, 95)" opacity="1.0" stroke="rgb(166, 64, 118)" stroke-opacity="1.0" stroke-linecap="round" stroke-linejoin="round" d="M 242.36410522460938 59.58955383300781 C 187.29551696777344 55.24675750732422 221.7126007080078 78.17496490478516 222.85157775878906 98.87760925292969 C 200.44581604003906 12.382136344909668 150.6234130859375 145.11203002929688 133.43858337402344 1.121720790863037 C 136.18922424316406 -13.563538551330566 141.19369506835938 -23.384248733520508 149.4539794921875 -27.8875789642334 C 322.3138732910156 -21.243616104125977 271.3554992675781 1.8873295783996582 242.36410522460938 59.58955383300781"/>
    <path stroke-width="0" fill="rgb(221, 220, 219)" opacity="0.79106003" stroke="rgb(40, 28, 167)" stroke-opacity="1.0" stroke-linecap="round" stroke-linejoin="round" d="M 293.4000549316406 211.6961212158203 C 242.39076232910156 211.0489959716797 269.8703308105469 245.1826934814453 301.9898376464844 218.0215301513672 C 298.794189453125 213.2490234375 258.5872802734375 218.35984802246094 274.0122985839844 228.9142608642578 C 215.27218627929688 231.105712890625 296.71942138671875 191.38539123535156 236.29922485351562 190.20594787597656 C 285.352294921875 123.02433776855469 330.3460388183594 197.5457000732422 293.4000549316406 211.6961212158203"/>
    <path stroke-width="0" fill="rgb(253, 255, 253)" opacity="0.98063445" stroke="rgb(50, 94, 209)" stroke-opacity="1.0" stroke-linecap="round" stroke-linejoin="round" d="M 288.0207824707031 200.46987915039062 C 299.97540283203125 152.24864196777344 334.86248779296875 197.79254150390625 242.1218719482422 242.1114959716797 C 282.1824035644531 103.8581314086914 202.3997802734375 308.2888488769531 187.157958984375 178.28997802734375 C 284.2848205566406 179.8647003173828 276.569580078125 130.411376953125 306.97882080078125 169.92047119140625 C 285.97686767578125 179.88790893554688 277.36724853515625 199.98402404785156 288.0207824707031 200.46987915039062"/>
    <path stroke-width="0" fill="rgb(0, 0, 0)" opacity="1.0" stroke="rgb(213, 24, 248)" stroke-opacity="1.0" stroke-linecap="round" stroke-linejoin="round" d="M 295.74688720703125 189.11338806152344 C 307.01898193359375 187.93939208984375 316.3424072265625 199.0485382080078 304.3384094238281 188.71250915527344 C 313.25714111328125 182.8192596435547 269.6322021484375 158.74288940429688 261.779541015625 189.5346221923828 C 278.6408386230469 210.1250457763672 296.1250305175781 188.1409454345703 308.5193176269531 185.8423614501953 C 274.34197998046875 179.9796905517578 298.7430419921875 201.0894012451172 295.74688720703125 189.11338806152344"/>
    <path stroke-width="0" fill="rgb(35, 22, 6)" opacity="0.8204225" stroke="rgb(249, 154, 188)" stroke-opacity="1.0" stroke-linecap="round" stroke-linejoin="round" d="M 358.6173095703125 419.6163330078125 C 330.584228515625 424.68316650390625 405.0921936035156 407.49127197265625 193.11485290527344 441.07977294921875 C 170.56861877441406 382.8123779296875 84.75839233398438 396.9021911621094 322.1593933105469 398.2282409667969 C 367.09832763671875 424.6969909667969 351.68902587890625 420.1853332519531 356.96893310546875 395.5089111328125 C 304.37030029296875 401.7109069824219 291.327392578125 378.5129699707031 358.6173095703125 419.6163330078125"/>
    <path stroke-width="0" fill="rgb(254, 254, 254)" opacity="0.9952166" stroke="rgb(72, 30, 75)" stroke-opacity="1.0" stroke-linecap="round" stroke-linejoin="round" d="M 315.57379150390625 420.1321716308594 C 326.40582275390625 461.2344055175781 286.063720703125 423.6828308105469 254.963134765625 428.1104736328125 C 249.4033660888672 428.3267822265625 254.82508850097656 415.9134216308594 252.35499572753906 400.8177490234375 C 256.5054626464844 392.77386474609375 250.22767639160156 423.8692321777344 252.77413940429688 424.0328369140625 C 249.6143035888672 418.51483154296875 251.1725311279297 420.3277893066406 315.57379150390625 420.1321716308594"/>
    <path stroke-width="0" fill="rgb(249, 146, 2)" opacity="1.0" stroke="rgb(81, 105, 16)" stroke-opacity="1.0" stroke-linecap="round" stroke-linejoin="round" d="M 271.9490661621094 387.80999755859375 C 302.18243408203125 388.355712890625 266.1575622558594 430.6148681640625 267.06231689453125 416.82208251953125 C 201.85206604003906 414.76629638671875 235.15203857421875 423.25189208984375 218.41136169433594 389.8971252441406 C 218.35003662109375 393.3565368652344 237.35133361816406 372.5970458984375 233.52769470214844 412.8783874511719 C 217.27944946289062 384.2945251464844 272.6083679199219 414.7400207519531 271.9490661621094 387.80999755859375"/>
    <path stroke-width="0" fill="rgb(125, 77, 25)" opacity="1.0" stroke="rgb(144, 67, 133)" stroke-opacity="1.0" stroke-linecap="round" stroke-linejoin="round" d="M 287.2665710449219 192.59652709960938 C 274.8794860839844 145.00686645507812 243.96603393554688 216.95823669433594 300.5140686035156 185.75909423828125 C 284.95123291015625 203.25067138671875 271.0677490234375 209.67697143554688 260.4422607421875 189.7849884033203 C 254.58331298828125 167.53184509277344 288.8035888671875 157.86065673828125 289.7605285644531 180.17649841308594 C 312.68927001953125 181.0213623046875 297.1513671875 182.78866577148438 287.2665710449219 192.59652709960938"/>
    <path stroke-width="0" fill="rgb(253, 253, 253)" opacity="0.96298754" stroke="rgb(33, 182, 73)" stroke-opacity="1.0" stroke-linecap="round" stroke-linejoin="round" d="M 311.1322937011719 184.06927490234375 C 315.1307373046875 184.7135772705078 307.56353759765625 235.4227752685547 261.8377990722656 228.16036987304688 C 273.4539489746094 209.1332550048828 295.4725036621094 219.02615356445312 296.2972106933594 221.63795471191406 C 277.3324890136719 221.01187133789062 305.2396240234375 196.26309204101562 283.29058837890625 151.29791259765625 C 306.90716552734375 155.5390625 315.3146667480469 193.80413818359375 311.1322937011719 184.06927490234375"/>
    <path stroke-width="0" fill="rgb(254, 254, 254)" opacity="0.98108757" stroke="rgb(149, 5, 211)" stroke-opacity="1.0" stroke-linecap="round" stroke-linejoin="round" d="M 506.2105407714844 494.59906005859375 C 469.8223876953125 472.9375915527344 413.5179748535156 439.65911865234375 540.7476806640625 515.2911987304688 C 426.5489501953125 421.5049743652344 418.8234558105469 407.2789001464844 399.1740417480469 386.32537841796875 C 373.2028503417969 354.47747802734375 313.2987365722656 276.3612060546875 358.8667297363281 345.77947998046875 C 422.375732421875 425.3756408691406 432.11279296875 431.74871826171875 506.2105407714844 494.59906005859375"/>
    <path stroke-width="0" fill="rgb(23, 12, 0)" opacity="0.9097306" stroke="rgb(172, 68, 187)" stroke-opacity="1.0" stroke-linecap="round" stroke-linejoin="round" d="M 280.4912109375 390.3307800292969 C 272.2431335449219 459.90997314453125 338.7950439453125 374.18182373046875 314.4018249511719 444.161376953125 C 301.259033203125 447.06903076171875 284.6503601074219 426.9480285644531 296.9278869628906 441.2515869140625 C 297.74822998046875 449.90521240234375 289.6836853027344 341.84014892578125 311.14910888671875 396.4339904785156 C 427.8589172363281 391.4212951660156 283.3846435546875 418.53204345703125 280.4912109375 390.3307800292969"/>
    <path stroke-width="0" fill="rgb(95, 94, 96)" opacity="0.99938625" stroke="rgb(63, 146, 150)" stroke-opacity="1.0" stroke-linecap="round" stroke-linejoin="round" d="M 493.6584167480469 -3.5163538455963135 C 183.82752990722656 153.98997497558594 386.3049621582031 157.40798950195312 224.1844024658203 134.31536865234375 C 152.33163452148438 47.86115264892578 216.65110778808594 382.8094177246094 -20.194196701049805 488.112060546875 C -43.709102630615234 28.531169891357422 160.50198364257812 74.87672424316406 122.19729614257812 57.16847610473633 C 275.7999267578125 62.08280563354492 296.57537841796875 90.96150207519531 493.6584167480469 -3.5163538455963135"/>
    <path stroke-width="0" fill="rgb(66, 38, 12)" opacity="0.8898906" stroke="rgb(56, 242, 114)" stroke-opacity="1.0" stroke-linecap="round" stroke-linejoin="round" d="M 224.0770721435547 174.53099060058594 C 244.35108947753906 159.70327758789062 246.54385375976562 201.48306274414062 230.73411560058594 200.74667358398438 C 208.45921325683594 213.33984375 191.69810485839844 161.51950073242188 232.6151123046875 166.36441040039062 C 237.75674438476562 179.13375854492188 217.59352111816406 174.99636840820312 230.51914978027344 175.9418182373047 C 184.623779296875 186.79257202148438 243.48692321777344 162.47439575195312 224.0770721435547 174.53099060058594"/>
    <path stroke-width="0" fill="rgb(255, 255, 250)" opacity="0.9765039" stroke="rgb(224, 148, 224)" stroke-opacity="1.0" stroke-linecap="round" stroke-linejoin="round" d="M 87.34552001953125 425.5992736816406 C 78.84578704833984 426.5273742675781 80.88563537597656 431.7297668457031 69.34738159179688 439.5691833496094 C 82.18144226074219 435.907958984375 82.21934509277344 415.0374450683594 48.903438568115234 464.4411926269531 C 54.907291412353516 453.90911865234375 137.4522247314453 393.4394836425781 173.68902587890625 303.2550964355469 C 82.09549713134766 451.0525207519531 48.2726936340332 438.0068664550781 87.34552001953125 425.5992736816406"/>
    <path stroke-width="0" fill="rgb(255, 174, 0)" opacity="0.9757716" stroke="rgb(184, 127, 243)" stroke-opacity="1.0" stroke-linecap="round" stroke-linejoin="round" d="M 262.1841735839844 206.51513671875 C 270.70037841796875 207.9432830810547 319.2546081542969 182.65689086914062 266.8902587890625 174.4477996826172 C 298.8542175292969 164.77613830566406 287.06988525390625 184.8673553466797 266.9328308105469 219.3310546875 C 297.47857666015625 217.0570526123047 293.8876953125 212.59686279296875 277.048583984375 214.07781982421875 C 259.6623840332031 211.22866821289062 277.1327209472656 242.02606201171875 262.1841735839844 206.51513671875"/>
    <path stroke-width="0" fill="rgb(255, 255, 255)" opacity="1.0" stroke="rgb(108, 154, 4)" stroke-opacity="1.0" stroke-linecap="round" stroke-linejoin="round" d="M 263.3999328613281 173.04054260253906 C 226.8388214111328 187.58441162109375 230.0065460205078 144.0187530517578 200.5684356689453 187.89358520507812 C 194.47842407226562 251.40440368652344 172.6024169921875 169.81182861328125 208.02828979492188 154.9696044921875 C 209.46897888183594 141.19410705566406 217.44915771484375 148.19296264648438 208.349853515625 139.921875 C 196.06748962402344 140.1368408203125 204.52056884765625 156.0364227294922 263.3999328613281 173.04054260253906"/>
    <path stroke-width="0" fill="rgb(22, 9, 0)" opacity="0.90650964" stroke="rgb(168, 73, 157)" stroke-opacity="1.0" stroke-linecap="round" stroke-linejoin="round" d="M 185.20306396484375 221.9911651611328 C 192.96372985839844 224.6431121826172 191.96043395996094 209.9825439453125 190.195068359375 217.26502990722656 C 231.00540161132812 259.11724853515625 266.2721252441406 218.78150939941406 252.5050506591797 227.07327270507812 C 199.31915283203125 238.44541931152344 184.57562255859375 206.54513549804688 185.68199157714844 169.43365478515625 C 177.65420532226562 222.07203674316406 204.00411987304688 228.1808319091797 185.20306396484375 221.9911651611328"/>
    <path stroke-width="0" fill="rgb(26, 13, 0)" opacity="0.89813447" stroke="rgb(34, 76, 145)" stroke-opacity="1.0" stroke-linecap="round" stroke-linejoin="round" d="M 229.47596740722656 148.54530334472656 C 213.11898803710938 135.81390380859375 200.67349243164062 169.43077087402344 184.1444549560547 171.65626525878906 C 176.95382690429688 237.67996215820312 191.10536193847656 148.48822021484375 200.81240844726562 153.01290893554688 C 180.54820251464844 153.45843505859375 190.43577575683594 118.98623657226562 188.12643432617188 116.94120025634766 C 193.65928649902344 135.05177307128906 212.40206909179688 137.0670928955078 229.47596740722656 148.54530334472656"/>
    <path stroke-width="0" fill="rgb(255, 168, 5)" opacity="1.0" stroke="rgb(146, 166, 166)" stroke-opacity="1.0" stroke-linecap="round" stroke-linejoin="round" d="M 227.50814819335938 196.63157653808594 C 248.4385528564453 144.7560272216797 184.63905334472656 181.1753692626953 224.43487548828125 200.41172790527344 C 261.8395080566406 188.58175659179688 220.7722625732422 155.55133056640625 232.49447631835938 180.21632385253906 C 215.14637756347656 172.81553649902344 217.90817260742188 181.45498657226562 226.44125366210938 181.61012268066406 C 219.01116943359375 174.69651794433594 207.11517333984375 179.98721313476562 227.50814819335938 196.63157653808594"/>
    <path stroke-width="0" fill="rgb(240, 237, 232)" opacity="0.65996253" stroke="rgb(182, 254, 38)" stroke-opacity="1.0" stroke-linecap="round" stroke-linejoin="round" d="M 286.71685791015625 137.86666870117188 C 292.97344970703125 153.80809020996094 282.1009826660156 143.75381469726562 293.306396484375 143.94789123535156 C 287.57928466796875 144.57615661621094 295.8253479003906 129.60423278808594 288.00909423828125 162.47003173828125 C 292.77728271484375 170.3466033935547 296.1186218261719 161.16783142089844 276.8516540527344 161.87081909179688 C 283.7025146484375 160.93272399902344 301.2411804199219 168.99781799316406 286.71685791015625 137.86666870117188"/>
    <path stroke-width="0" fill="rgb(239, 241, 252)" opacity="0.5961239" stroke="rgb(177, 115, 184)" stroke-opacity="1.0" stroke-linecap="round" stroke-linejoin="round" d="M 254.75437927246094 174.2371368408203 C 245.6595458984375 191.7095184326172 248.03277587890625 161.76107788085938 212.15992736816406 161.39207458496094 C 190.66281127929688 196.1642303466797 188.82034301757812 153.89227294921875 224.11273193359375 163.3507080078125 C 235.55052185058594 163.7428741455078 247.72120666503906 177.7723388671875 257.57171630859375 174.68728637695312 C 206.7597198486328 129.9849853515625 236.0556182861328 147.3376007080078 254.75437927246094 174.2371368408203"/>
    <path stroke-width="0" fill="rgb(255, 208, 32)" opacity="0.6764098" stroke="rgb(248, 218, 2)" stroke-opacity="1.0" stroke-linecap="round" stroke-linejoin="round" d="M 244.8106231689453 160.6589813232422 C 218.85264587402344 241.2064208984375 193.8213348388672 169.8943634033203 230.739013671875 176.33401489257812 C 238.79994201660156 231.4871063232422 207.04701232910156 222.02391052246094 237.17066955566406 204.9553985595703 C 195.6049346923828 185.54136657714844 214.15887451171875 156.76113891601562 241.9307403564453 189.88609313964844 C 206.97784423828125 184.3157196044922 253.06234741210938 178.7936248779297 244.8106231689453 160.6589813232422"/>
    <path stroke-width="0" fill="rgb(32, 25, 5)" opacity="0.9105078" stroke="rgb(88, 236, 179)" stroke-opacity="1.0" stroke-linecap="round" stroke-linejoin="round" d="M 282.3691101074219 233.0985565185547 C 238.87411499023438 207.20407104492188 211.11767578125 227.5455780029297 227.6858367919922 214.74363708496094 C 268.90521240234375 223.8044891357422 243.0407257080078 229.641357421875 215.1991424560547 233.4954376220703 C 252.7208251953125 231.22372436523438 226.60557556152344 226.87855529785156 251.36282348632812 230.44847106933594 C 226.3401336669922 243.9118194580078 195.75804138183594 220.73753356933594 282.3691101074219 233.0985565185547"/>
    <path stroke-width="0" fill="rgb(86, 79, 69)" opacity="0.80050373" stroke="rgb(41, 158, 147)" stroke-opacity="1.0" stroke-linecap="round" stroke-linejoin="round" d="M 186.4132537841797 223.67330932617188 C 196.10765075683594 187.3426971435547 172.6384735107422 216.19259643554688 159.5251007080078 279.1756896972656 C 184.38206481933594 203.9193115234375 180.9152374267578 200.95263671875 192.17369079589844 218.57785034179688 C 185.36329650878906 203.60134887695312 201.6053924560547 237.201171875 174.6470184326172 217.8860626220703 C 169.93821716308594 227.27352905273438 170.41140747070312 222.016845703125 186.4132537841797 223.67330932617188"/>
    <path stroke-width="0" fill="rgb(38, 28, 8)" opacity="0.8753339" stroke="rgb(238, 156, 136)" stroke-opacity="1.0" stroke-linecap="round" stroke-linejoin="round" d="M 182.2260284423828 329.7391052246094 C 168.16494750976562 280.3109436035156 164.40264892578125 295.4033508300781 177.8114471435547 290.6210632324219 C 194.37033081054688 349.8585205078125 200.66871643066406 274.6178283691406 175.9518280029297 280.1073913574219 C 178.47816467285156 356.80303955078125 180.0960693359375 258.587158203125 161.90606689453125 318.862060546875 C 150.693359375 314.8152770996094 168.5568389892578 326.85125732421875 182.2260284423828 329.7391052246094"/>
    <path stroke-width="0" fill="rgb(248, 250, 251)" opacity="0.7515925" stroke="rgb(186, 79, 101)" stroke-opacity="1.0" stroke-linecap="round" stroke-linejoin="round" d="M 218.58200073242188 159.29286193847656 C 261.8952331542969 179.6128387451172 259.10186767578125 203.7425994873047 242.82174682617188 169.9576873779297 C 208.09425354003906 148.23562622070312 191.73963928222656 189.84359741210938 199.15293884277344 202.44049072265625 C 200.0053253173828 146.51214599609375 220.4364013671875 155.02020263671875 200.17800903320312 174.5726776123047 C 198.77801513671875 168.71522521972656 203.34913635253906 171.34593200683594 218.58200073242188 159.29286193847656"/>
    <path stroke-width="0" fill="rgb(254, 254, 254)" opacity="0.95987386" stroke="rgb(47, 240, 188)" stroke-opacity="1.0" stroke-linecap="round" stroke-linejoin="round" d="M 246.9245147705078 193.769287109375 C 333.4252624511719 238.673095703125 289.3453369140625 225.63717651367188 213.5964813232422 228.17015075683594 C 205.50917053222656 209.0750732421875 224.81967163085938 211.72262573242188 195.78192138671875 213.34878540039062 C 235.13023376464844 197.7545166015625 238.7551727294922 199.99728393554688 245.3894500732422 211.50906372070312 C 249.58692932128906 216.1759033203125 249.91427612304688 229.0215301513672 246.9245147705078 193.769287109375"/>
    <path stroke-width="0" fill="rgb(68, 49, 17)" opacity="0.8601814" stroke="rgb(57, 64, 14)" stroke-opacity="1.0" stroke-linecap="round" stroke-linejoin="round" d="M 308.2908630371094 317.6541748046875 C 323.6009216308594 330.287109375 312.0762023925781 307.22174072265625 316.7051696777344 342.1228942871094 C 292.21795654296875 317.4675598144531 334.0509033203125 316.4927062988281 316.4219970703125 300.20526123046875 C 309.1620788574219 323.1646728515625 322.4676513671875 327.0498046875 312.48907470703125 299.37249755859375 C 348.1532287597656 273.09661865234375 328.9346008300781 268.85064697265625 308.2908630371094 317.6541748046875"/>
    <path stroke-width="0" fill="rgb(254, 255, 255)" opacity="0.4392209" stroke="rgb(169, 67, 5)" stroke-opacity="1.0" stroke-linecap="round" stroke-linejoin="round" d="M 187.28062438964844 229.95616149902344 C 213.23190307617188 253.43698120117188 228.3838653564453 228.57232666015625 239.70375061035156 202.54331970214844 C 205.9871063232422 216.39251708984375 197.64723205566406 209.0399169921875 199.85414123535156 207.54188537597656 C 176.97409057617188 233.1368408203125 238.5815887451172 240.86422729492188 243.65725708007812 222.6807098388672 C 215.73529052734375 190.5292510986328 215.88143920898438 190.97816467285156 187.28062438964844 229.95616149902344"/>
    <path stroke-width="0" fill="rgb(255, 255, 255)" opacity="0.9903631" stroke="rgb(81, 97, 150)" stroke-opacity="1.0" stroke-linecap="round" stroke-linejoin="round" d="M 107.13838958740234 402.3987731933594 C 60.940677642822266 465.1636657714844 -9.669462203979492 502.6871337890625 -14.55905818939209 524.798095703125 C -3.401204824447632 481.1339111328125 -55.95347595214844 505.5627746582031 -29.504064559936523 488.4368591308594 C -10.254148483276367 494.6418762207031 12.557779312133789 509.9571228027344 -21.30403709411621 523.3252563476562 C -21.80044174194336 508.53985595703125 -3.773773193359375 504.3082275390625 107.13838958740234 402.3987731933594"/>
    <path stroke-width="0" fill="rgb(14, 12, 0)" opacity="0.86098725" stroke="rgb(47, 242, 175)" stroke-opacity="1.0" stroke-linecap="round" stroke-linejoin="round" d="M 295.6010437011719 226.8971405029297 C 329.93145751953125 189.1124267578125 308.3164978027344 214.16465759277344 282.9296569824219 228.2852020263672 C 239.64430236816406 230.0052947998047 277.5514221191406 227.82940673828125 265.6625061035156 231.4268035888672 C 257.5595703125 222.1241455078125 227.05374145507812 235.40513610839844 275.41802978515625 231.16915893554688 C 244.68663024902344 222.2200927734375 256.16705322265625 250.37448120117188 295.6010437011719 226.8971405029297"/>
    <path stroke-width="0" fill="rgb(33, 20, 4)" opacity="0.9999069" stroke="rgb(132, 6, 52)" stroke-opacity="1.0" stroke-linecap="round" stroke-linejoin="round" d="M 309.4557800292969 137.3165740966797 C 276.1761169433594 147.21592712402344 314.16949462890625 177.89442443847656 316.2740173339844 117.86851501464844 C 272.73504638671875 163.98072814941406 194.66098022460938 157.6941375732422 232.82655334472656 149.90658569335938 C 310.95745849609375 148.56686401367188 297.6960754394531 142.17527770996094 295.6925964355469 136.5471649169922 C 304.65301513671875 154.50555419921875 281.2716369628906 151.0792999267578 309.4557800292969 137.3165740966797"/>
    <path stroke-width="0" fill="rgb(255, 140, 0)" opacity="0.88227206" stroke="rgb(220, 29, 131)" stroke-opacity="1.0" stroke-linecap="round" stroke-linejoin="round" d="M 236.78086853027344 194.03756713867188 C 270.2456359863281 195.8048553466797 248.80734252929688 219.01150512695312 250.05859375 221.89552307128906 C 244.18202209472656 162.79969787597656 254.46533203125 181.36997985839844 213.5453643798828 202.79144287109375 C 244.23233032226562 186.07362365722656 238.9139404296875 167.23110961914062 256.6047058105469 185.85084533691406 C 239.71066284179688 173.99171447753906 245.08888244628906 205.0043487548828 236.78086853027344 194.03756713867188"/>
    <path stroke-width="0" fill="rgb(67, 56, 35)" opacity="0.47212574" stroke="rgb(36, 124, 90)" stroke-opacity="1.0" stroke-linecap="round" stroke-linejoin="round" d="M 270.8725891113281 148.96884155273438 C 222.2043914794922 151.9082794189453 199.22195434570312 127.82987213134766 191.50782775878906 137.18264770507812 C 228.17251586914062 137.50718688964844 260.4667663574219 158.37884521484375 244.33633422851562 175.21969604492188 C 254.04302978515625 157.9581298828125 245.1310272216797 127.69593811035156 254.437255859375 154.3199005126953 C 271.12762451171875 140.5801544189453 258.09771728515625 154.0538330078125 270.8725891113281 148.96884155273438"/>
    <path stroke-width="0" fill="rgb(52, 16, 13)" opacity="0.8156473" stroke="rgb(195, 190, 230)" stroke-opacity="1.0" stroke-linecap="round" stroke-linejoin="round" d="M 228.449951171875 421.2590637207031 C 226.83163452148438 384.8977966308594 200.2911376953125 393.9428405761719 251.06614685058594 360.5776062011719 C 232.0373077392578 373.3999938964844 216.67108154296875 386.00653076171875 223.6218719482422 381.3583068847656 C 227.5161895751953 411.4425964355469 221.75070190429688 402.33935546875 221.52369689941406 364.0522766113281 C 209.20045471191406 417.8492431640625 244.88490295410156 402.8161926269531 228.449951171875 421.2590637207031"/>
    <path stroke-width="0" fill="rgb(141, 135, 126)" opacity="0.7495368" stroke="rgb(61, 25, 4)" stroke-opacity="1.0" stroke-linecap="round" stroke-linejoin="round" d="M 240.28697204589844 163.1046600341797 C 242.3473663330078 136.7897186279297 245.61732482910156 145.0721893310547 256.6915283203125 152.28903198242188 C 241.06549072265625 169.09475708007812 248.54115295410156 182.44142150878906 255.2173309326172 191.0350341796875 C 238.0772247314453 160.24917602539062 241.83802795410156 153.13987731933594 261.62152099609375 151.30934143066406 C 249.81497192382812 146.56332397460938 246.708984375 164.3675994873047 240.28697204589844 163.1046600341797"/>
    <path stroke-width="0" fill="rgb(79, 60, 36)" opacity="0.64573574" stroke="rgb(170, 200, 71)" stroke-opacity="1.0" stroke-linecap="round" stroke-linejoin="round" d="M 233.40652465820312 153.91949462890625 C 248.73788452148438 166.7525634765625 226.3123321533203 156.1365203857422 237.61062622070312 145.7856903076172 C 258.1630554199219 177.93612670898438 246.32078552246094 181.6805419921875 211.48989868164062 183.24192810058594 C 201.81069946289062 186.82679748535156 218.393798828125 182.96188354492188 206.68968200683594 183.63787841796875 C 258.7029724121094 180.6974334716797 243.6616668701172 176.46949768066406 233.40652465820312 153.91949462890625"/>
    <path stroke-width="0" fill="rgb(239, 240, 242)" opacity="0.6835917" stroke="rgb(24, 219, 248)" stroke-opacity="1.0" stroke-linecap="round" stroke-linejoin="round" d="M 246.4793701171875 179.577880859375 C 264.3847961425781 180.26246643066406 268.6868896484375 148.85659790039062 249.3606414794922 186.1563720703125 C 242.46217346191406 147.68508911132812 242.01197814941406 142.9030303955078 234.32260131835938 158.38858032226562 C 260.3861999511719 152.7697296142578 280.6714172363281 155.1429443359375 251.39883422851562 151.62759399414062 C 249.18421936035156 143.70501708984375 251.2871856689453 147.96951293945312 246.4793701171875 179.577880859375"/>
    <path stroke-width="0" fill="rgb(98, 99, 100)" opacity="0.8615783" stroke="rgb(231, 197, 84)" stroke-opacity="1.0" stroke-linecap="round" stroke-linejoin="round" d="M 259.81671142578125 144.4610137939453 C 272.3028869628906 151.5679931640625 268.01983642578125 155.33770751953125 234.30270385742188 159.43992614746094 C 256.6968688964844 164.3150634765625 283.9508361816406 140.12722778320312 295.2260437011719 129.56858825683594 C 216.4146270751953 136.50132751464844 211.480712890625 141.2249755859375 277.93829345703125 139.45852661132812 C 256.9728698730469 161.09837341308594 245.00439453125 173.36131286621094 259.81671142578125 144.4610137939453"/>
    <path stroke-width="0" fill="rgb(255, 190, 11)" opacity="0.7400919" stroke="rgb(107, 142, 219)" stroke-opacity="1.0" stroke-linecap="round" stroke-linejoin="round" d="M 246.32936096191406 210.09230041503906 C 272.5506286621094 178.80392456054688 267.1874084472656 198.0670928955078 276.95672607421875 204.83050537109375 C 255.44139099121094 186.17593383789062 283.0853576660156 166.64173889160156 264.83282470703125 176.6685333251953 C 258.16485595703125 213.4931182861328 302.1798400878906 198.11270141601562 262.5843505859375 190.5574951171875 C 269.4988098144531 187.54995727539062 257.4223937988281 197.96200561523438 246.32936096191406 210.09230041503906"/>
    <path stroke-width="0" fill="rgb(254, 255, 254)" opacity="0.8195405" stroke="rgb(68, 33, 14)" stroke-opacity="1.0" stroke-linecap="round" stroke-linejoin="round" d="M 294.8833312988281 207.22140502929688 C 268.6241149902344 214.57315063476562 250.59996032714844 214.6531982421875 276.0826721191406 212.95237731933594 C 274.8955078125 208.77464294433594 265.32916259765625 193.96102905273438 245.01808166503906 180.93601989746094 C 248.18035888671875 187.58848571777344 262.5965881347656 197.510498046875 241.59913635253906 167.8541259765625 C 259.7953186035156 203.3296356201172 270.8951721191406 217.1143035888672 294.8833312988281 207.22140502929688"/>
    <path stroke-width="0" fill="rgb(72, 62, 56)" opacity="0.7300729" stroke="rgb(66, 116, 174)" stroke-opacity="1.0" stroke-linecap="round" stroke-linejoin="round" d="M 279.2306213378906 182.3465118408203 C 244.78404235839844 192.0179443359375 240.7467498779297 179.847412109375 246.78228759765625 202.95611572265625 C 244.97564697265625 193.36669921875 242.63743591308594 181.67892456054688 247.4969024658203 182.8985137939453 C 254.685546875 137.9548797607422 236.4510498046875 164.0581512451172 253.2050323486328 159.1111602783203 C 239.8944854736328 195.00241088867188 266.2908935546875 185.77151489257812 279.2306213378906 182.3465118408203"/>
    <path stroke-width="0" fill="rgb(61, 42, 16)" opacity="0.9876491" stroke="rgb(109, 130, 136)" stroke-opacity="1.0" stroke-linecap="round" stroke-linejoin="round" d="M 190.12255859375 337.014892578125 C 175.1764373779297 291.11102294921875 180.8198699951172 290.29608154296875 183.36114501953125 288.8509521484375 C 185.8758544921875 295.60028076171875 164.34011840820312 279.1825256347656 163.3445587158203 238.34295654296875 C 185.53060913085938 298.17230224609375 175.27883911132812 300.9420471191406 189.785400390625 236.20506286621094 C 199.67359924316406 216.57626342773438 181.6912384033203 248.12152099609375 190.12255859375 337.014892578125"/>
    <path stroke-width="0" fill="rgb(64, 46, 16)" opacity="0.849707" stroke="rgb(47, 230, 138)" stroke-opacity="1.0" stroke-linecap="round" stroke-linejoin="round" d="M 183.13800048828125 355.1611022949219 C 164.18930053710938 359.92926025390625 173.9619598388672 368.58209228515625 172.0989227294922 329.2182922363281 C 179.9749298095703 334.01361083984375 174.9093780517578 325.1118469238281 197.57998657226562 364.12371826171875 C 178.7408905029297 320.0976257324219 155.4616241455078 257.40289306640625 167.0686798095703 305.5944519042969 C 177.239013671875 334.43634033203125 180.03707885742188 344.8719482421875 183.13800048828125 355.1611022949219"/>
    <path stroke-width="0" fill="rgb(18, 10, 4)" opacity="0.93926835" stroke="rgb(224, 116, 184)" stroke-opacity="1.0" stroke-linecap="round" stroke-linejoin="round" d="M 325.337158203125 345.085693359375 C 339.9523010253906 305.42218017578125 327.5161437988281 329.2806396484375 304.2534484863281 369.8356018066406 C 323.5896911621094 336.714111328125 341.627197265625 307.08966064453125 312.4789123535156 360.82421875 C 309.0670471191406 337.1944885253906 320.51025390625 334.6458435058594 334.3983459472656 331.5 C 301.4725646972656 339.3827819824219 318.1873779296875 343.7776794433594 325.337158203125 345.085693359375"/>
    <path stroke-width="0" fill="rgb(104, 101, 99)" opacity="0.64497304" stroke="rgb(230, 175, 178)" stroke-opacity="1.0" stroke-linecap="round" stroke-linejoin="round" d="M 162.42465209960938 324.8798828125 C 152.42303466796875 297.57470703125 134.9967498779297 315.0084228515625 121.0715103149414 301.3540954589844 C 141.72288513183594 313.19580078125 149.9451141357422 317.17010498046875 142.22360229492188 309.8598937988281 C 152.20046997070312 318.8936462402344 134.4342498779297 319.272216796875 159.6870880126953 326.7149658203125 C 182.08273315429688 252.3772430419922 189.7738494873047 272.10809326171875 162.42465209960938 324.8798828125"/>
    <path stroke-width="0" fill="rgb(251, 251, 250)" opacity="0.49234423" stroke="rgb(203, 244, 116)" stroke-opacity="1.0" stroke-linecap="round" stroke-linejoin="round" d="M 257.4775085449219 335.2163391113281 C 232.8880157470703 383.3981628417969 212.17515563964844 407.75970458984375 218.30966186523438 372.5946350097656 C 188.88229370117188 319.1348571777344 216.78103637695312 310.7613525390625 215.2437286376953 350.81005859375 C 214.66197204589844 360.58209228515625 212.48318481445312 355.6011657714844 213.71282958984375 291.6558837890625 C 232.72767639160156 288.3599548339844 226.87518310546875 298.60858154296875 257.4775085449219 335.2163391113281"/>
    <path stroke-width="0" fill="rgb(189, 166, 133)" opacity="0.6765626" stroke="rgb(209, 231, 207)" stroke-opacity="1.0" stroke-linecap="round" stroke-linejoin="round" d="M 305.3634948730469 336.1418151855469 C 320.6771240234375 309.2744445800781 285.9163818359375 360.56109619140625 325.8804626464844 336.8572998046875 C 330.53448486328125 315.8357238769531 325.3560485839844 303.5989685058594 320.4765625 314.3826599121094 C 322.2613525390625 364.84136962890625 315.6211853027344 365.09246826171875 315.6834411621094 334.9508972167969 C 302.40765380859375 329.6575927734375 310.62213134765625 336.52777099609375 305.3634948730469 336.1418151855469"/>
    <path stroke-width="0" fill="rgb(47, 33, 12)" opacity="1.0" stroke="rgb(65, 216, 8)" stroke-opacity="1.0" stroke-linecap="round" stroke-linejoin="round" d="M 187.01927185058594 397.0366516113281 C 176.22425842285156 340.10955810546875 199.13638305664062 337.4338073730469 199.45542907714844 370.0762939453125 C 194.39952087402344 405.4366760253906 183.78628540039062 399.4623718261719 165.67079162597656 348.6262512207031 C 155.65310668945312 338.6497802734375 168.32586669921875 323.7934875488281 195.36485290527344 335.451904296875 C 203.82960510253906 367.2493896484375 195.30142211914062 377.48370361328125 187.01927185058594 397.0366516113281"/>
    <path stroke-width="0" fill="rgb(254, 254, 253)" opacity="0.87549216" stroke="rgb(102, 236, 25)" stroke-opacity="1.0" stroke-linecap="round" stroke-linejoin="round" d="M 285.556640625 356.9956359863281 C 273.91241455078125 369.507080078125 219.41525268554688 393.8626403808594 215.12867736816406 386.5343933105469 C 219.63194274902344 368.3225402832031 221.6876220703125 348.61737060546875 221.34596252441406 333.51654052734375 C 228.7613067626953 388.7082824707031 229.18563842773438 378.8807067871094 218.32850646972656 328.21588134765625 C 230.68756103515625 345.61505126953125 251.2855224609375 353.2503356933594 285.556640625 356.9956359863281"/>
    <path stroke-width="0" fill="rgb(62, 47, 23)" opacity="1.0" stroke="rgb(33, 3, 29)" stroke-opacity="1.0" stroke-linecap="round" stroke-linejoin="round" d="M 232.3173828125 388.7071533203125 C 214.50559997558594 380.71429443359375 221.70411682128906 407.1414489746094 218.58787536621094 417.1443786621094 C 172.58358764648438 409.0201416015625 150.85470581054688 440.23040771484375 162.59136962890625 400.2301940917969 C 153.6694793701172 403.2720031738281 228.91864013671875 397.8202819824219 236.3618621826172 397.4220275878906 C 218.86741638183594 399.4821472167969 209.52578735351562 402.61053466796875 232.3173828125 388.7071533203125"/>
    <path stroke-width="0" fill="rgb(79, 60, 29)" opacity="0.70092624" stroke="rgb(199, 73, 61)" stroke-opacity="1.0" stroke-linecap="round" stroke-linejoin="round" d="M 281.8250427246094 408.41021728515625 C 291.6513977050781 393.4140625 267.76629638671875 405.6288146972656 283.6545104980469 399.2388916015625 C 286.62060546875 411.76556396484375 282.9605407714844 395.5695495605469 281.9568176269531 400.799560546875 C 287.6131286621094 395.4613037109375 268.8722839355469 401.67535400390625 354.648681640625 400.1097717285156 C 371.7283020019531 422.0097351074219 255.0892791748047 422.8009948730469 281.8250427246094 408.41021728515625"/>
    <path stroke-width="0" fill="rgb(95, 94, 96)" opacity="1.0" stroke="rgb(175, 14, 186)" stroke-opacity="1.0" stroke-linecap="round" stroke-linejoin="round" d="M 490.906982421875 134.00711059570312 C 446.5241394042969 186.38540649414062 515.198974609375 264.4957580566406 640.112060546875 131.30543518066406 C 511.7834777832031 79.14395141601562 608.1447143554688 -3.676504135131836 342.323974609375 -81.73855590820312 C 131.0190887451172 154.8859100341797 227.00502014160156 2.3253982067108154 366.9306640625 86.9007797241211 C 501.570556640625 158.95310974121094 454.1573486328125 127.88983917236328 490.906982421875 134.00711059570312"/>
    <path stroke-width="0" fill="rgb(94, 93, 95)" opacity="0.8826824" stroke="rgb(95, 190, 60)" stroke-opacity="1.0" stroke-linecap="round" stroke-linejoin="round" d="M 140.7584228515625 162.38453674316406 C 129.8833465576172 193.84872436523438 95.17886352539062 149.86221313476562 75.41075897216797 206.72117614746094 C 137.6693878173828 262.7198181152344 135.9806365966797 182.71197509765625 176.99179077148438 166.18447875976562 C 137.11500549316406 198.2667236328125 133.83004760742188 208.84568786621094 173.24273681640625 179.74024963378906 C 165.68649291992188 161.9394989013672 169.99462890625 185.7265167236328 140.7584228515625 162.38453674316406"/>
    <path stroke-width="0" fill="rgb(51, 36, 12)" opacity="1.0" stroke="rgb(213, 60, 128)" stroke-opacity="1.0" stroke-linecap="round" stroke-linejoin="round" d="M 249.0194091796875 151.4738006591797 C 259.1614990234375 191.34490966796875 246.1267852783203 162.70921325683594 221.45834350585938 151.52183532714844 C 234.2862091064453 160.40512084960938 224.67213439941406 153.44862365722656 213.96917724609375 151.14195251464844 C 186.03402709960938 121.60016632080078 182.61001586914062 121.5946273803711 194.17379760742188 149.3990936279297 C 211.14418029785156 139.13565063476562 358.59210205078125 143.30784606933594 249.0194091796875 151.4738006591797"/>
    <path stroke-width="0" fill="rgb(76, 63, 57)" opacity="0.92691094" stroke="rgb(97, 228, 246)" stroke-opacity="1.0" stroke-linecap="round" stroke-linejoin="round" d="M 62.50829315185547 316.7177429199219 C 48.99413299560547 321.8059997558594 47.81821823120117 289.58953857421875 53.49177169799805 294.9744873046875 C 50.914634704589844 292.6265563964844 50.43083953857422 305.57122802734375 46.59281539916992 294.3968200683594 C 44.74264144897461 297.9758605957031 54.668087005615234 264.87078857421875 49.56611633300781 305.5418701171875 C 61.97914123535156 294.0775451660156 50.164913177490234 332.82659912109375 62.50829315185547 316.7177429199219"/>
    <path stroke-width="0" fill="rgb(94, 94, 96)" opacity="0.931357" stroke="rgb(228, 103, 140)" stroke-opacity="1.0" stroke-linecap="round" stroke-linejoin="round" d="M 128.24391174316406 277.4730224609375 C 151.59295654296875 309.6810302734375 155.99847412109375 309.8993225097656 111.36710357666016 327.43756103515625 C 95.84048461914062 341.2455139160156 69.50634002685547 321.0958557128906 124.01885986328125 272.56915283203125 C 119.12942504882812 280.20721435546875 145.0701446533203 258.45123291015625 137.0945281982422 299.44000244140625 C 139.35552978515625 300.0375061035156 153.05613708496094 286.4692687988281 128.24391174316406 277.4730224609375"/>
    <path stroke-width="0" fill="rgb(251, 253, 254)" opacity="0.9877257" stroke="rgb(63, 128, 79)" stroke-opacity="1.0" stroke-linecap="round" stroke-linejoin="round" d="M 249.49429321289062 192.20370483398438 C 210.0614471435547 214.11593627929688 217.243408203125 226.82553100585938 238.1907501220703 219.90940856933594 C 225.18637084960938 212.77801513671875 218.95535278320312 221.32003784179688 205.8923797607422 182.5831756591797 C 213.3033447265625 234.28720092773438 248.23350524902344 219.4459228515625 240.19589233398438 175.73712158203125 C 207.08798217773438 144.9691162109375 286.8740539550781 184.99288940429688 249.49429321289062 192.20370483398438"/>
    <path stroke-width="0" fill="rgb(94, 93, 95)" opacity="0.7797437" stroke="rgb(26, 88, 188)" stroke-opacity="1.0" stroke-linecap="round" stroke-linejoin="round" d="M 149.85328674316406 163.9881134033203 C 96.67021942138672 209.45965576171875 87.02799224853516 246.7464141845703 106.7463607788086 230.14505004882812 C 159.86500549316406 224.33448791503906 145.56871032714844 214.80564880371094 142.593994140625 200.92259216308594 C 144.24156188964844 255.0128936767578 139.15798950195312 262.6021423339844 137.28794860839844 213.741943359375 C 111.95132446289062 254.5350341796875 116.51680755615234 238.27418518066406 149.85328674316406 163.9881134033203"/>
    <path stroke-width="0" fill="rgb(40, 26, 6)" opacity="0.8330123" stroke="rgb(52, 87, 172)" stroke-opacity="1.0" stroke-linecap="round" stroke-linejoin="round" d="M 303.2959289550781 345.4607238769531 C 317.9922180175781 397.7011413574219 319.6046142578125 361.0365905761719 311.1244201660156 389.7970275878906 C 300.8101806640625 397.16326904296875 296.62554931640625 419.03936767578125 303.18145751953125 318.1024475097656 C 309.0455627441406 335.4545593261719 320.5325622558594 339.30487060546875 320.671875 277.3121032714844 C 338.6282653808594 347.48785400390625 326.7947998046875 372.9991149902344 303.2959289550781 345.4607238769531"/>
    <path stroke-width="0" fill="rgb(59, 42, 16)" opacity="0.9782885" stroke="rgb(7, 181, 2)" stroke-opacity="1.0" stroke-linecap="round" stroke-linejoin="round" d="M 303.68353271484375 137.26644897460938 C 278.8480224609375 152.80056762695312 256.06097412109375 152.4515380859375 296.4390869140625 146.27520751953125 C 271.66552734375 153.2046356201172 230.496826171875 184.90362548828125 245.63323974609375 144.2995147705078 C 277.07977294921875 140.1152801513672 316.0719909667969 164.0389862060547 312.3370361328125 126.38032531738281 C 272.2066650390625 155.580322265625 270.06927490234375 154.2209014892578 303.68353271484375 137.26644897460938"/>
    <path stroke-width="0" fill="rgb(94, 94, 96)" opacity="0.80814874" stroke="rgb(22, 103, 6)" stroke-opacity="1.0" stroke-linecap="round" stroke-linejoin="round" d="M 281.36279296875 486.3077087402344 C 268.34228515625 489.46575927734375 341.5065002441406 502.8734130859375 205.0133056640625 541.4119262695312 C 81.64381408691406 490.6224060058594 258.97833251953125 469.06292724609375 250.13270568847656 467.6382751464844 C 255.06739807128906 472.88092041015625 291.5152587890625 512.5003051757812 230.7414093017578 497.3017272949219 C 213.48988342285156 474.7026672363281 227.6363525390625 447.1180114746094 281.36279296875 486.3077087402344"/>
    <path stroke-width="0" fill="rgb(95, 94, 96)" opacity="1.0" stroke="rgb(53, 29, 147)" stroke-opacity="1.0" stroke-linecap="round" stroke-linejoin="round" d="M 337.0545654296875 158.0744171142578 C 315.2538146972656 89.79158020019531 335.8380126953125 53.858707427978516 391.8323974609375 112.46781158447266 C 365.85821533203125 207.55470275878906 338.7625427246094 135.44631958007812 333.8700256347656 136.3021697998047 C 336.8216552734375 165.4171905517578 343.7257995605469 158.87428283691406 351.1399230957031 153.08473205566406 C 325.50457763671875 156.30294799804688 343.1607666015625 155.18746948242188 337.0545654296875 158.0744171142578"/>
    <path stroke-width="0" fill="rgb(93, 93, 95)" opacity="0.73270404" stroke="rgb(0, 165, 153)" stroke-opacity="1.0" stroke-linecap="round" stroke-linejoin="round" d="M 454.0909423828125 522.3460693359375 C 380.0731201171875 503.91949462890625 293.5055847167969 480.5517578125 360.1651916503906 505.3948669433594 C 358.3420104980469 486.9510192871094 249.77711486816406 513.4710083007812 245.51080322265625 478.2459716796875 C 305.0140380859375 428.7787170410156 338.78118896484375 460.08795166015625 329.19775390625 478.29449462890625 C 359.2332763671875 431.9852294921875 408.0116882324219 421.5827941894531 454.0909423828125 522.3460693359375"/>
    <path stroke-width="0" fill="rgb(118, 4, 226)" opacity="0.49559397" stroke="rgb(0, 0, 0)" stroke-opacity="0.0" stroke-linecap="round" stroke-linejoin="round" d="M 335.8302001953125 111.36113739013672 C 334.7583923339844 115.36113739013672 331.8302001953125 118.28933715820312 327.8302001953125 119.36113739013672 C 323.8302001953125 118.28933715820312 320.9020080566406 115.36113739013672 319.8302001953125 111.36113739013672 C 320.9020080566406 107.36113739013672 323.8302001953125 104.43293762207031 327.8302001953125 103.36113739013672 C 331.8302001953125 104.43293762207031 334.7583923339844 107.36113739013672 335.8302001953125 111.36113739013672"/>
    <path stroke-width="0" fill="rgb(26, 113, 180)" opacity="0.99030244" stroke="rgb(0, 0, 0)" stroke-opacity="0.0" stroke-linecap="round" stroke-linejoin="round" d="M -16.912019729614258 -17.81928062438965 C -17.983816146850586 -13.819280624389648 -20.912019729614258 -10.891077041625977 -24.912019729614258 -9.819280624389648 C -28.912019729614258 -10.891077041625977 -31.84022331237793 -13.819280624389648 -32.912017822265625 -17.81928062438965 C -31.84022331237793 -21.81928062438965 -28.912019729614258 -24.74748420715332 -24.912019729614258 -25.81928062438965 C -20.912019729614258 -24.74748420715332 -17.983816146850586 -21.81928062438965 -16.912019729614258 -17.81928062438965"/>
    <path stroke-width="0" fill="rgb(154, 9, 153)" opacity="0.40227506" stroke="rgb(0, 0, 0)" stroke-opacity="0.0" stroke-linecap="round" stroke-linejoin="round" d="M 157.54327392578125 67.70799255371094 C 156.4714813232422 71.70799255371094 153.54327392578125 74.63619232177734 149.54327392578125 75.70799255371094 C 145.54327392578125 74.63619232177734 142.6150665283203 71.70799255371094 141.54327392578125 67.70799255371094 C 142.6150665283203 63.70799255371094 145.54327392578125 60.779788970947266 149.54327392578125 59.70799255371094 C 153.54327392578125 60.779788970947266 156.4714813232422 63.70799255371094 157.54327392578125 67.70799255371094"/>
    <path stroke-width="0" fill="rgb(241, 23, 40)" opacity="0.0006633119" stroke="rgb(0, 0, 0)" stroke-opacity="0.0" stroke-linecap="round" stroke-linejoin="round" d="M 305.97137451171875 401.1411437988281 C 304.8995666503906 405.1411437988281 301.97137451171875 408.0693359375 297.97137451171875 409.1411437988281 C 293.97137451171875 408.0693359375 291.0431823730469 405.1411437988281 289.97137451171875 401.1411437988281 C 291.0431823730469 397.1411437988281 293.97137451171875 394.21295166015625 297.97137451171875 393.1411437988281 C 301.97137451171875 394.21295166015625 304.8995666503906 397.1411437988281 305.97137451171875 401.1411437988281"/>
    <path stroke-width="0" fill="rgb(153, 197, 123)" opacity="0.5640737" stroke="rgb(0, 0, 0)" stroke-opacity="0.0" stroke-linecap="round" stroke-linejoin="round" d="M 162.91720581054688 111.0474853515625 C 161.8454132080078 115.0474853515625 158.91720581054688 117.9756851196289 154.91720581054688 119.0474853515625 C 150.91720581054688 117.9756851196289 147.98899841308594 115.0474853515625 146.91720581054688 111.0474853515625 C 147.98899841308594 107.0474853515625 150.91720581054688 104.1192855834961 154.91720581054688 103.0474853515625 C 158.91720581054688 104.1192855834961 161.8454132080078 107.0474853515625 162.91720581054688 111.0474853515625"/>
    <path stroke-width="0" fill="rgb(13, 72, 10)" opacity="0.03871708" stroke="rgb(0, 0, 0)" stroke-opacity="0.0" stroke-linecap="round" stroke-linejoin="round" d="M 510.8577880859375 78.00540924072266 C 509.7859802246094 82.00540924072266 506.8577880859375 84.93360900878906 502.8577880859375 86.00540924072266 C 498.8577880859375 84.93360900878906 495.9295959472656 82.00540924072266 494.8577880859375 78.00540924072266 C 495.9295959472656 74.00540924072266 498.8577880859375 71.07720947265625 502.8577880859375 70.00540924072266 C 506.8577880859375 71.07720947265625 509.7859802246094 74.00540924072266 510.8577880859375 78.00540924072266"/>
    <path stroke-width="0" fill="rgb(105, 206, 156)" opacity="0.06961484" stroke="rgb(0, 0, 0)" stroke-opacity="0.0" stroke-linecap="round" stroke-linejoin="round" d="M 249.4541473388672 89.00887298583984 C 248.38235473632812 93.00887298583984 245.4541473388672 95.93707275390625 241.4541473388672 97.00887298583984 C 237.4541473388672 95.93707275390625 234.52593994140625 93.00887298583984 233.4541473388672 89.00887298583984 C 234.52593994140625 85.00887298583984 237.4541473388672 82.08067321777344 241.4541473388672 81.00887298583984 C 245.4541473388672 82.08067321777344 248.38235473632812 85.00887298583984 249.4541473388672 89.00887298583984"/>
    <path stroke-width="0" fill="rgb(230, 43, 226)" opacity="0.5591533" stroke="rgb(0, 0, 0)" stroke-opacity="0.0" stroke-linecap="round" stroke-linejoin="round" d="M 362.318359375 78.33941650390625 C 361.2465515136719 82.33941650390625 358.318359375 85.26761627197266 354.318359375 86.33941650390625 C 350.318359375 85.26761627197266 347.3901672363281 82.33941650390625 346.318359375 78.33941650390625 C 347.3901672363281 74.33941650390625 350.318359375 71.41121673583984 354.318359375 70.33941650390625 C 358.318359375 71.41121673583984 361.2465515136719 74.33941650390625 362.318359375 78.33941650390625"/>
    <path stroke-width="0" fill="rgb(19, 82, 217)" opacity="0.43898162" stroke="rgb(0, 0, 0)" stroke-opacity="0.0" stroke-linecap="round" stroke-linejoin="round" d="M -46.13517379760742 308.1306457519531 C -47.20697021484375 312.1306457519531 -50.13517379760742 315.058837890625 -54.13517379760742 316.1306457519531 C -58.13517379760742 315.058837890625 -61.063377380371094 312.1306457519531 -62.13517379760742 308.1306457519531 C -61.063377380371094 304.1306457519531 -58.13517379760742 301.2024230957031 -54.13517379760742 300.1306457519531 C -50.13517379760742 301.2024230957031 -47.20697021484375 304.1306457519531 -46.13517379760742 308.1306457519531"/>
    <path stroke-width="0" fill="rgb(39, 189, 243)" opacity="0.6902455" stroke="rgb(0, 0, 0)" stroke-opacity="0.0" stroke-linecap="round" stroke-linejoin="round" d="M 281.85540771484375 347.9134826660156 C 280.7835998535156 351.9134826660156 277.85540771484375 354.8416748046875 273.85540771484375 355.9134826660156 C 269.85540771484375 354.8416748046875 266.9272155761719 351.9134826660156 265.85540771484375 347.9134826660156 C 266.9272155761719 343.9134826660156 269.85540771484375 340.98529052734375 273.85540771484375 339.9134826660156 C 277.85540771484375 340.98529052734375 280.7835998535156 343.9134826660156 281.85540771484375 347.9134826660156"/>
    <path stroke-width="0" fill="rgb(17, 244, 112)" opacity="0.8190525" stroke="rgb(0, 0, 0)" stroke-opacity="0.0" stroke-linecap="round" stroke-linejoin="round" d="M 247.49868774414062 371.8391418457031 C 246.42689514160156 375.8391418457031 243.49868774414062 378.767333984375 239.49868774414062 379.8391418457031 C 235.49868774414062 378.767333984375 232.57049560546875 375.8391418457031 231.49868774414062 371.8391418457031 C 232.57049560546875 367.8391418457031 235.49868774414062 364.9109191894531 239.49868774414062 363.8391418457031 C 243.49868774414062 364.9109191894531 246.42689514160156 367.8391418457031 247.49868774414062 371.8391418457031"/>
    <path stroke-width="0" fill="rgb(218, 142, 188)" opacity="0.6688595" stroke="rgb(0, 0, 0)" stroke-opacity="0.0" stroke-linecap="round" stroke-linejoin="round" d="M 514.76806640625 392.4996337890625 C 513.6962890625 396.4996337890625 510.7680969238281 399.4278259277344 506.7680969238281 400.4996337890625 C 502.7680969238281 399.4278259277344 499.83990478515625 396.4996337890625 498.7680969238281 392.4996337890625 C 499.83990478515625 388.4996337890625 502.7680969238281 385.5714416503906 506.7680969238281 384.4996337890625 C 510.7680969238281 385.5714416503906 513.6962890625 388.4996337890625 514.76806640625 392.4996337890625"/>
    <path stroke-width="0" fill="rgb(209, 237, 31)" opacity="0.42595854" stroke="rgb(0, 0, 0)" stroke-opacity="0.0" stroke-linecap="round" stroke-linejoin="round" d="M 404.7701110839844 133.84271240234375 C 403.69830322265625 137.84271240234375 400.7701110839844 140.7709197998047 396.7701110839844 141.84271240234375 C 392.7701110839844 140.7709197998047 389.8419189453125 137.84271240234375 388.7701110839844 133.84271240234375 C 389.8419189453125 129.84271240234375 392.7701110839844 126.91451263427734 396.7701110839844 125.84271240234375 C 400.7701110839844 126.91451263427734 403.69830322265625 129.84271240234375 404.7701110839844 133.84271240234375"/>
    <path stroke-width="0" fill="rgb(41, 64, 233)" opacity="0.29767254" stroke="rgb(0, 0, 0)" stroke-opacity="0.0" stroke-linecap="round" stroke-linejoin="round" d="M -3.707253932952881 -3.645521640777588 C -4.779050827026367 0.3544783592224121 -7.707253932952881 3.282681703567505 -11.707254409790039 4.354478359222412 C -15.707254409790039 3.282681703567505 -18.63545799255371 0.3544783592224121 -19.70725440979004 -3.645521640777588 C -18.63545799255371 -7.645521640777588 -15.707254409790039 -10.573724746704102 -11.707254409790039 -11.64552116394043 C -7.707253932952881 -10.573724746704102 -4.779050827026367 -7.645521640777588 -3.707253932952881 -3.645521640777588"/>
    <path stroke-width="0" fill="rgb(5, 113, 62)" opacity="0.58200115" stroke="rgb(0, 0, 0)" stroke-opacity="0.0" stroke-linecap="round" stroke-linejoin="round" d="M 275.57415771484375 153.8661346435547 C 274.5023498535156 157.8661346435547 271.57415771484375 160.79434204101562 267.57415771484375 161.8661346435547 C 263.57415771484375 160.79434204101562 260.6459655761719 157.8661346435547 259.57415771484375 153.8661346435547 C 260.6459655761719 149.8661346435547 263.57415771484375 146.93792724609375 267.57415771484375 145.8661346435547 C 271.57415771484375 146.93792724609375 274.5023498535156 149.8661346435547 275.57415771484375 153.8661346435547"/>
    <path stroke-width="0" fill="rgb(127, 47, 58)" opacity="0.27340814" stroke="rgb(0, 0, 0)" stroke-opacity="0.0" stroke-linecap="round" stroke-linejoin="round" d="M 137.5762481689453 187.48207092285156 C 136.50445556640625 191.48207092285156 133.5762481689453 194.4102783203125 129.5762481689453 195.48207092285156 C 125.57624816894531 194.4102783203125 122.6480484008789 191.48207092285156 121.57624816894531 187.48207092285156 C 122.6480484008789 183.48207092285156 125.57624816894531 180.55386352539062 129.5762481689453 179.48207092285156 C 133.5762481689453 180.55386352539062 136.50445556640625 183.48207092285156 137.5762481689453 187.48207092285156"/>
    <path stroke-width="0" fill="rgb(37, 66, 45)" opacity="0.98754215" stroke="rgb(0, 0, 0)" stroke-opacity="0.0" stroke-linecap="round" stroke-linejoin="round" d="M 268.4692687988281 47.00565719604492 C 267.3974609375 51.00565719604492 264.4692687988281 53.933860778808594 260.4692687988281 55.00565719604492 C 256.4692687988281 53.933860778808594 253.5410614013672 51.00565719604492 252.46926879882812 47.00565719604492 C 253.5410614013672 43.00565719604492 256.4692687988281 40.07745361328125 260.4692687988281 39.00565719604492 C 264.4692687988281 40.07745361328125 267.3974609375 43.00565719604492 268.4692687988281 47.00565719604492"/>
    <path stroke-width="0" fill="rgb(214, 221, 247)" opacity="0.077390075" stroke="rgb(0, 0, 0)" stroke-opacity="0.0" stroke-linecap="round" stroke-linejoin="round" d="M 141.4794921875 316.2145690917969 C 140.40769958496094 320.2145690917969 137.4794921875 323.14276123046875 133.4794921875 324.2145690917969 C 129.4794921875 323.14276123046875 126.5512924194336 320.2145690917969 125.4794921875 316.2145690917969 C 126.5512924194336 312.2145690917969 129.4794921875 309.286376953125 133.4794921875 308.2145690917969 C 137.4794921875 309.286376953125 140.40769958496094 312.2145690917969 141.4794921875 316.2145690917969"/>
    <path stroke-width="0" fill="rgb(167, 28, 191)" opacity="0.538885" stroke="rgb(0, 0, 0)" stroke-opacity="0.0" stroke-linecap="round" stroke-linejoin="round" d="M 33.437103271484375 466.2999267578125 C 32.36530685424805 470.2999267578125 29.437103271484375 473.2281188964844 25.437103271484375 474.2999267578125 C 21.437103271484375 473.2281188964844 18.508899688720703 470.2999267578125 17.437103271484375 466.2999267578125 C 18.508899688720703 462.2999267578125 21.437103271484375 459.3717346191406 25.437103271484375 458.2999267578125 C 29.437103271484375 459.3717346191406 32.36530685424805 462.2999267578125 33.437103271484375 466.2999267578125"/>
    <path stroke-width="0" fill="rgb(176, 123, 233)" opacity="0.73225534" stroke="rgb(0, 0, 0)" stroke-opacity="0.0" stroke-linecap="round" stroke-linejoin="round" d="M 44.855796813964844 329.4999084472656 C 43.784000396728516 333.4999084472656 40.855796813964844 336.4281005859375 36.855796813964844 337.4999084472656 C 32.855796813964844 336.4281005859375 29.927593231201172 333.4999084472656 28.855796813964844 329.4999084472656 C 29.927593231201172 325.4999084472656 32.855796813964844 322.57171630859375 36.855796813964844 321.4999084472656 C 40.855796813964844 322.57171630859375 43.784000396728516 325.4999084472656 44.855796813964844 329.4999084472656"/>
    <path stroke-width="0" fill="rgb(252, 20, 128)" opacity="0.121595934" stroke="rgb(0, 0, 0)" stroke-opacity="0.0" stroke-linecap="round" stroke-linejoin="round" d="M 230.53909301757812 253.32313537597656 C 229.46730041503906 257.3231201171875 226.53909301757812 260.2513427734375 222.53909301757812 261.3231201171875 C 218.53909301757812 260.2513427734375 215.6108856201172 257.3231201171875 214.53909301757812 253.32313537597656 C 215.6108856201172 249.32313537597656 218.53909301757812 246.39492797851562 222.53909301757812 245.32313537597656 C 226.53909301757812 246.39492797851562 229.46730041503906 249.32313537597656 230.53909301757812 253.32313537597656"/>
    <path stroke-width="0" fill="rgb(90, 15, 14)" opacity="0.15648448" stroke="rgb(0, 0, 0)" stroke-opacity="0.0" stroke-linecap="round" stroke-linejoin="round" d="M 158.60157775878906 469.0921936035156 C 157.52978515625 473.0921936035156 154.60157775878906 476.0203857421875 150.60157775878906 477.0921936035156 C 146.60157775878906 476.0203857421875 143.67337036132812 473.0921936035156 142.60157775878906 469.0921936035156 C 143.67337036132812 465.0921936035156 146.60157775878906 462.16400146484375 150.60157775878906 461.0921936035156 C 154.60157775878906 462.16400146484375 157.52978515625 465.0921936035156 158.60157775878906 469.0921936035156"/>
    <path stroke-width="0" fill="rgb(217, 103, 48)" opacity="0.39965627" stroke="rgb(0, 0, 0)" stroke-opacity="0.0" stroke-linecap="round" stroke-linejoin="round" d="M 295.976806640625 144.74148559570312 C 294.9049987792969 148.74148559570312 291.976806640625 151.66969299316406 287.976806640625 152.74148559570312 C 283.976806640625 151.66969299316406 281.0486145019531 148.74148559570312 279.976806640625 144.74148559570312 C 281.0486145019531 140.74148559570312 283.976806640625 137.8132781982422 287.976806640625 136.74148559570312 C 291.976806640625 137.8132781982422 294.9049987792969 140.74148559570312 295.976806640625 144.74148559570312"/>
    <path stroke-width="0" fill="rgb(249, 241, 98)" opacity="0.5372101" stroke="rgb(0, 0, 0)" stroke-opacity="0.0" stroke-linecap="round" stroke-linejoin="round" d="M 27.268707275390625 -19.61988639831543 C 26.196910858154297 -15.61988639831543 23.268707275390625 -12.691682815551758 19.268707275390625 -11.61988639831543 C 15.268706321716309 -12.691682815551758 12.340503692626953 -15.61988639831543 11.268706321716309 -19.61988639831543 C 12.340503692626953 -23.61988639831543 15.268706321716309 -26.5480899810791 19.268707275390625 -27.61988639831543 C 23.268707275390625 -26.5480899810791 26.196910858154297 -23.61988639831543 27.268707275390625 -19.61988639831543"/>
    <path stroke-width="0" fill="rgb(51, 162, 100)" opacity="0.9917118" stroke="rgb(0, 0, 0)" stroke-opacity="0.0" stroke-linecap="round" stroke-linejoin="round" d="M 151.4636688232422 216.43060302734375 C 150.39187622070312 220.43060302734375 147.4636688232422 223.3588104248047 143.4636688232422 224.43060302734375 C 139.4636688232422 223.3588104248047 136.5354766845703 220.43060302734375 135.4636688232422 216.43060302734375 C 136.5354766845703 212.43060302734375 139.4636688232422 209.50241088867188 143.4636688232422 208.43060302734375 C 147.4636688232422 209.50241088867188 150.39187622070312 212.43060302734375 151.4636688232422 216.43060302734375"/>
    <path stroke-width="0" fill="rgb(203, 193, 44)" opacity="0.6623213" stroke="rgb(0, 0, 0)" stroke-opacity="0.0" stroke-linecap="round" stroke-linejoin="round" d="M 192.0045928955078 312.5293884277344 C 190.93280029296875 316.5293884277344 188.0045928955078 319.45758056640625 184.0045928955078 320.5293884277344 C 180.0045928955078 319.45758056640625 177.07638549804688 316.5293884277344 176.0045928955078 312.5293884277344 C 177.07638549804688 308.5293884277344 180.0045928955078 305.6011962890625 184.0045928955078 304.5293884277344 C 188.0045928955078 305.6011962890625 190.93280029296875 308.5293884277344 192.0045928955078 312.5293884277344"/>
    <path stroke-width="0" fill="rgb(210, 249, 220)" opacity="0.39388606" stroke="rgb(0, 0, 0)" stroke-opacity="0.0" stroke-linecap="round" stroke-linejoin="round" d="M 263.5216979980469 6.661797523498535 C 262.44989013671875 10.661797523498535 259.5216979980469 13.590001106262207 255.52169799804688 14.661797523498535 C 251.52169799804688 13.590001106262207 248.59349060058594 10.661797523498535 247.52169799804688 6.661797523498535 C 248.59349060058594 2.661797523498535 251.52169799804688 -0.26640570163726807 255.52169799804688 -1.3382024765014648 C 259.5216979980469 -0.26640570163726807 262.44989013671875 2.661797523498535 263.5216979980469 6.661797523498535"/>
    <path stroke-width="0" fill="rgb(123, 202, 202)" opacity="0.7581936" stroke="rgb(0, 0, 0)" stroke-opacity="0.0" stroke-linecap="round" stroke-linejoin="round" d="M 348.01885986328125 245.45164489746094 C 346.9470520019531 249.45164489746094 344.01885986328125 252.37985229492188 340.01885986328125 253.45164489746094 C 336.01885986328125 252.37985229492188 333.0906677246094 249.45164489746094 332.01885986328125 245.45164489746094 C 333.0906677246094 241.45164489746094 336.01885986328125 238.5234375 340.01885986328125 237.45164489746094 C 344.01885986328125 238.5234375 346.9470520019531 241.45164489746094 348.01885986328125 245.45164489746094"/>
    <path stroke-width="0" fill="rgb(4, 164, 19)" opacity="0.19339167" stroke="rgb(0, 0, 0)" stroke-opacity="0.0" stroke-linecap="round" stroke-linejoin="round" d="M 216.51307678222656 356.756103515625 C 215.4412841796875 360.756103515625 212.51307678222656 363.6842956542969 208.51307678222656 364.756103515625 C 204.51307678222656 363.6842956542969 201.58486938476562 360.756103515625 200.51307678222656 356.756103515625 C 201.58486938476562 352.756103515625 204.51307678222656 349.8279113769531 208.51307678222656 348.756103515625 C 212.51307678222656 349.8279113769531 215.4412841796875 352.756103515625 216.51307678222656 356.756103515625"/>
    <path stroke-width="0" fill="rgb(235, 1, 226)" opacity="0.54398733" stroke="rgb(0, 0, 0)" stroke-opacity="0.0" stroke-linecap="round" stroke-linejoin="round" d="M 267.8396911621094 25.704605102539062 C 266.76788330078125 29.704605102539062 263.8396911621094 32.632808685302734 259.8396911621094 33.70460510253906 C 255.83969116210938 32.632808685302734 252.91148376464844 29.704605102539062 251.83969116210938 25.704605102539062 C 252.91148376464844 21.704605102539062 255.83969116210938 18.77640151977539 259.8396911621094 17.704605102539062 C 263.8396911621094 18.77640151977539 266.76788330078125 21.704605102539062 267.8396911621094 25.704605102539062"/>
    <path stroke-width="0" fill="rgb(37, 138, 8)" opacity="0.11864226" stroke="rgb(0, 0, 0)" stroke-opacity="0.0" stroke-linecap="round" stroke-linejoin="round" d="M 77.49143981933594 33.03004837036133 C 76.41963958740234 37.03004837036133 73.49143981933594 39.958251953125 69.49143981933594 41.03004837036133 C 65.49143981933594 39.958251953125 62.563232421875 37.03004837036133 61.49143600463867 33.03004837036133 C 62.563232421875 29.03005027770996 65.49143981933594 26.10184669494629 69.49143981933594 25.03005027770996 C 73.49143981933594 26.10184669494629 76.41963958740234 29.03005027770996 77.49143981933594 33.03004837036133"/>
    <path stroke-width="0" fill="rgb(215, 7, 76)" opacity="0.7371423" stroke="rgb(0, 0, 0)" stroke-opacity="0.0" stroke-linecap="round" stroke-linejoin="round" d="M 433.4818115234375 406.893310546875 C 432.4100036621094 410.893310546875 429.4818115234375 413.8215026855469 425.4818115234375 414.893310546875 C 421.4818115234375 413.8215026855469 418.5536193847656 410.893310546875 417.4818115234375 406.893310546875 C 418.5536193847656 402.893310546875 421.4818115234375 399.9651184082031 425.4818115234375 398.893310546875 C 429.4818115234375 399.9651184082031 432.4100036621094 402.893310546875 433.4818115234375 406.893310546875"/>
    <path stroke-width="0" fill="rgb(240, 77, 39)" opacity="0.008179253" stroke="rgb(0, 0, 0)" stroke-opacity="0.0" stroke-linecap="round" stroke-linejoin="round" d="M 34.65869140625 440.62176513671875 C 33.58689498901367 444.62176513671875 30.658693313598633 447.5499572753906 26.658693313598633 448.62176513671875 C 22.658693313598633 447.5499572753906 19.73048973083496 444.62176513671875 18.658693313598633 440.62176513671875 C 19.73048973083496 436.62176513671875 22.658693313598633 433.6935729980469 26.658693313598633 432.62176513671875 C 30.658693313598633 433.6935729980469 33.58689498901367 436.62176513671875 34.65869140625 440.62176513671875"/>
    <path stroke-width="0" fill="rgb(123, 96, 50)" opacity="0.70683247" stroke="rgb(0, 0, 0)" stroke-opacity="0.0" stroke-linecap="round" stroke-linejoin="round" d="M 252.06832885742188 145.2482147216797 C 250.9965362548828 149.2482147216797 248.06832885742188 152.17642211914062 244.06832885742188 153.2482147216797 C 240.06832885742188 152.17642211914062 237.14012145996094 149.2482147216797 236.06832885742188 145.2482147216797 C 237.14012145996094 141.2482147216797 240.06832885742188 138.32000732421875 244.06832885742188 137.2482147216797 C 248.06832885742188 138.32000732421875 250.9965362548828 141.2482147216797 252.06832885742188 145.2482147216797"/>
    <path stroke-width="0" fill="rgb(111, 229, 193)" opacity="0.021017589" stroke="rgb(0, 0, 0)" stroke-opacity="0.0" stroke-linecap="round" stroke-linejoin="round" d="M 491.3192443847656 268.1874084472656 C 490.2474365234375 272.1874084472656 487.3192443847656 275.1156005859375 483.3192443847656 276.1874084472656 C 479.3192443847656 275.1156005859375 476.39105224609375 272.1874084472656 475.3192443847656 268.1874084472656 C 476.39105224609375 264.1874084472656 479.3192443847656 261.25921630859375 483.3192443847656 260.1874084472656 C 487.3192443847656 261.25921630859375 490.2474365234375 264.1874084472656 491.3192443847656 268.1874084472656"/>
    <path stroke-width="0" fill="rgb(79, 112, 114)" opacity="0.8822376" stroke="rgb(0, 0, 0)" stroke-opacity="0.0" stroke-linecap="round" stroke-linejoin="round" d="M 82.7997055053711 479.35089111328125 C 81.7279052734375 483.35089111328125 78.7997055053711 486.2790832519531 74.7997055053711 487.35089111328125 C 70.7997055053711 486.2790832519531 67.87150573730469 483.35089111328125 66.7997055053711 479.35089111328125 C 67.87150573730469 475.35089111328125 70.7997055053711 472.4226989746094 74.7997055053711 471.35089111328125 C 78.7997055053711 472.4226989746094 81.7279052734375 475.35089111328125 82.7997055053711 479.35089111328125"/>
    <path stroke-width="0" fill="rgb(190, 138, 214)" opacity="0.25546354" stroke="rgb(0, 0, 0)" stroke-opacity="0.0" stroke-linecap="round" stroke-linejoin="round" d="M 207.00946044921875 407.1042175292969 C 205.9376678466797 411.1042175292969 203.00946044921875 414.03240966796875 199.00946044921875 415.1042175292969 C 195.00946044921875 414.03240966796875 192.0812530517578 411.1042175292969 191.00946044921875 407.1042175292969 C 192.0812530517578 403.1042175292969 195.00946044921875 400.176025390625 199.00946044921875 399.1042175292969 C 203.00946044921875 400.176025390625 205.9376678466797 403.1042175292969 207.00946044921875 407.1042175292969"/>
    <path stroke-width="0" fill="rgb(184, 234, 15)" opacity="0.36183453" stroke="rgb(0, 0, 0)" stroke-opacity="0.0" stroke-linecap="round" stroke-linejoin="round" d="M -22.591733932495117 -111.45404052734375 C -23.663530349731445 -107.45404052734375 -26.591733932495117 -104.52583312988281 -30.591733932495117 -103.45404052734375 C -34.591732025146484 -104.52583312988281 -37.519935607910156 -107.45404052734375 -38.591732025146484 -111.45404052734375 C -37.519935607910156 -115.45404052734375 -34.591732025146484 -118.38224029541016 -30.591733932495117 -119.45404052734375 C -26.591733932495117 -118.38224029541016 -23.663530349731445 -115.45404052734375 -22.591733932495117 -111.45404052734375"/>
    <path stroke-width="0" fill="rgb(127, 241, 112)" opacity="0.038157187" stroke="rgb(0, 0, 0)" stroke-opacity="0.0" stroke-linecap="round" stroke-linejoin="round" d="M 319.1648864746094 100.3433609008789 C 318.09307861328125 104.3433609008789 315.1648864746094 107.27156066894531 311.1648864746094 108.3433609008789 C 307.1648864746094 107.27156066894531 304.2366943359375 104.3433609008789 303.1648864746094 100.3433609008789 C 304.2366943359375 96.3433609008789 307.1648864746094 93.4151611328125 311.1648864746094 92.3433609008789 C 315.1648864746094 93.4151611328125 318.09307861328125 96.3433609008789 319.1648864746094 100.3433609008789"/>
    <path stroke-width="0" fill="rgb(41, 186, 176)" opacity="0.3674275" stroke="rgb(0, 0, 0)" stroke-opacity="0.0" stroke-linecap="round" stroke-linejoin="round" d="M 134.64682006835938 496.3563537597656 C 133.57501220703125 500.3563537597656 130.64682006835938 503.2845458984375 126.64681243896484 504.3563537597656 C 122.64681243896484 503.2845458984375 119.71861267089844 500.3563537597656 118.64681243896484 496.3563537597656 C 119.71861267089844 492.3563537597656 122.64681243896484 489.42816162109375 126.64681243896484 488.3563537597656 C 130.64682006835938 489.42816162109375 133.57501220703125 492.3563537597656 134.64682006835938 496.3563537597656"/>
    <path stroke-width="0" fill="rgb(202, 155, 140)" opacity="0.76854795" stroke="rgb(0, 0, 0)" stroke-opacity="0.0" stroke-linecap="round" stroke-linejoin="round" d="M 10.800244331359863 150.84701538085938 C 9.728446960449219 154.84701538085938 6.800243854522705 157.7752227783203 2.800244092941284 158.84701538085938 C -1.1997560262680054 157.7752227783203 -4.127959251403809 154.84701538085938 -5.199756145477295 150.84701538085938 C -4.127959251403809 146.84701538085938 -1.1997560262680054 143.91880798339844 2.800244092941284 142.84701538085938 C 6.800243854522705 143.91880798339844 9.728446960449219 146.84701538085938 10.800244331359863 150.84701538085938"/>
    <path stroke-width="0" fill="rgb(43, 196, 210)" opacity="0.8999558" stroke="rgb(0, 0, 0)" stroke-opacity="0.0" stroke-linecap="round" stroke-linejoin="round" d="M 2.628420114517212 -4.565553188323975 C 1.5566233396530151 -0.5655533671379089 -1.371579885482788 2.362649917602539 -5.371580123901367 3.4344465732574463 C -9.371580123901367 2.362649917602539 -12.299782752990723 -0.5655533671379089 -13.371580123901367 -4.565553188323975 C -12.299782752990723 -8.565553665161133 -9.371580123901367 -11.493756294250488 -5.371580123901367 -12.565553665161133 C -1.371579885482788 -11.493756294250488 1.5566233396530151 -8.565553665161133 2.628420114517212 -4.565553188323975"/>
    <path stroke-width="0" fill="rgb(212, 230, 19)" opacity="0.8489167" stroke="rgb(0, 0, 0)" stroke-opacity="0.0" stroke-linecap="round" stroke-linejoin="round" d="M 331.4261169433594 372.5509338378906 C 330.35430908203125 376.5509338378906 327.4261169433594 379.4791259765625 323.4261169433594 380.5509338378906 C 319.4261169433594 379.4791259765625 316.4979248046875 376.5509338378906 315.4261169433594 372.5509338378906 C 316.4979248046875 368.5509338378906 319.4261169433594 365.62274169921875 323.4261169433594 364.5509338378906 C 327.4261169433594 365.62274169921875 330.35430908203125 368.5509338378906 331.4261169433594 372.5509338378906"/>
    <path stroke-width="0" fill="rgb(69, 86, 157)" opacity="0.55898094" stroke="rgb(0, 0, 0)" stroke-opacity="0.0" stroke-linecap="round" stroke-linejoin="round" d="M -365.3277282714844 -24.602197647094727 C -366.3995056152344 -20.602197647094727 -369.3277282714844 -17.673994064331055 -373.3277282714844 -16.602197647094727 C -377.3277282714844 -17.673994064331055 -380.25592041015625 -20.602197647094727 -381.3277282714844 -24.602197647094727 C -380.25592041015625 -28.602197647094727 -377.3277282714844 -31.5304012298584 -373.3277282714844 -32.602195739746094 C -369.3277282714844 -31.5304012298584 -366.3995056152344 -28.602197647094727 -365.3277282714844 -24.602197647094727"/>
    <path stroke-width="0" fill="rgb(67, 15, 15)" opacity="0.7389069" stroke="rgb(0, 0, 0)" stroke-opacity="0.0" stroke-linecap="round" stroke-linejoin="round" d="M 514.6972045898438 205.12203979492188 C 513.6254272460938 209.12203979492188 510.69720458984375 212.0502471923828 506.69720458984375 213.12203979492188 C 502.69720458984375 212.0502471923828 499.7690124511719 209.12203979492188 498.69720458984375 205.12203979492188 C 499.7690124511719 201.12203979492188 502.69720458984375 198.19383239746094 506.69720458984375 197.12203979492188 C 510.69720458984375 198.19383239746094 513.6254272460938 201.12203979492188 514.6972045898438 205.12203979492188"/>
    <path stroke-width="0" fill="rgb(38, 93, 142)" opacity="0.45437342" stroke="rgb(0, 0, 0)" stroke-opacity="0.0" stroke-linecap="round" stroke-linejoin="round" d="M 196.62652587890625 407.9544982910156 C 195.5547332763672 411.9544982910156 192.62652587890625 414.8826904296875 188.62652587890625 415.9544982910156 C 184.62652587890625 414.8826904296875 181.6983184814453 411.9544982910156 180.62652587890625 407.9544982910156 C 181.6983184814453 403.9544982910156 184.62652587890625 401.02630615234375 188.62652587890625 399.9544982910156 C 192.62652587890625 401.02630615234375 195.5547332763672 403.9544982910156 196.62652587890625 407.9544982910156"/>
    <path stroke-width="0" fill="rgb(146, 122, 76)" opacity="0.48311925" stroke="rgb(0, 0, 0)" stroke-opacity="0.0" stroke-linecap="round" stroke-linejoin="round" d="M 284.9772033691406 342.3665771484375 C 283.9053955078125 346.3665771484375 280.9772033691406 349.2947692871094 276.9772033691406 350.3665771484375 C 272.9772033691406 349.2947692871094 270.04901123046875 346.3665771484375 268.9772033691406 342.3665771484375 C 270.04901123046875 338.3665771484375 272.9772033691406 335.4383850097656 276.9772033691406 334.3665771484375 C 280.9772033691406 335.4383850097656 283.9053955078125 338.3665771484375 284.9772033691406 342.3665771484375"/>
    <path stroke-width="0" fill="rgb(69, 143, 126)" opacity="0.5908492" stroke="rgb(0, 0, 0)" stroke-opacity="0.0" stroke-linecap="round" stroke-linejoin="round" d="M 266.44488525390625 468.0406188964844 C 265.3730773925781 472.0406188964844 262.44488525390625 474.96881103515625 258.44488525390625 476.0406188964844 C 254.44488525390625 474.96881103515625 251.5166778564453 472.0406188964844 250.44488525390625 468.0406188964844 C 251.5166778564453 464.0406188964844 254.44488525390625 461.1124267578125 258.44488525390625 460.0406188964844 C 262.44488525390625 461.1124267578125 265.3730773925781 464.0406188964844 266.44488525390625 468.0406188964844"/>
    <path stroke-width="0" fill="rgb(160, 237, 18)" opacity="0.8706081" stroke="rgb(0, 0, 0)" stroke-opacity="0.0" stroke-linecap="round" stroke-linejoin="round" d="M 168.6452178955078 380.7897033691406 C 167.57342529296875 384.7897033691406 164.6452178955078 387.7178955078125 160.6452178955078 388.7897033691406 C 156.6452178955078 387.7178955078125 153.71701049804688 384.7897033691406 152.6452178955078 380.7897033691406 C 153.71701049804688 376.7897033691406 156.6452178955078 373.86151123046875 160.6452178955078 372.7897033691406 C 164.6452178955078 373.86151123046875 167.57342529296875 376.7897033691406 168.6452178955078 380.7897033691406"/>
    <path stroke-width="0" fill="rgb(146, 88, 43)" opacity="0.7118957" stroke="rgb(0, 0, 0)" stroke-opacity="0.0" stroke-linecap="round" stroke-linejoin="round" d="M 383.40130615234375 469.829345703125 C 382.3294982910156 473.829345703125 379.40130615234375 476.7575378417969 375.40130615234375 477.829345703125 C 371.40130615234375 476.7575378417969 368.4731140136719 473.829345703125 367.40130615234375 469.829345703125 C 368.4731140136719 465.829345703125 371.40130615234375 462.9011535644531 375.40130615234375 461.829345703125 C 379.40130615234375 462.9011535644531 382.3294982910156 465.829345703125 383.40130615234375 469.829345703125"/>
  </g>
</svg>
