<?xml version="1.0" ?>
<svg xmlns="http://www.w3.org/2000/svg" version="1.1" width="512" height="512">
  <defs/>
  <g>
    <path stroke-width="0" fill="rgb(92, 91, 93)" opacity="0.9872551" stroke="rgb(139, 182, 153)" stroke-opacity="1.0" stroke-linecap="round" stroke-linejoin="round" d="M 541.3200073242188 308.05511474609375 C 578.2432250976562 717.5508422851562 523.9196166992188 607.5655517578125 409.77728271484375 560.2735595703125 C -4.815953731536865 574.9983520507812 -43.95188903808594 610.2658081054688 -51.99632263183594 372.31396484375 C -35.529502868652344 305.1559143066406 -20.042537689208984 302.2029724121094 -55.385093688964844 327.29583740234375 C 171.8543701171875 412.65289306640625 275.5885009765625 446.15118408203125 541.3200073242188 308.05511474609375"/>
    <path stroke-width="0" fill="rgb(159, 146, 125)" opacity="1.0" stroke="rgb(108, 164, 111)" stroke-opacity="1.0" stroke-linecap="round" stroke-linejoin="round" d="M 531.5314331054688 -27.25542449951172 C 497.6551513671875 128.60609436035156 518.7197875976562 204.41445922851562 363.37451171875 226.62960815429688 C 186.88880920410156 231.9495849609375 165.8973846435547 297.3218994140625 169.3838348388672 -7.425023078918457 C 210.9188232421875 -99.50502014160156 286.98626708984375 -51.62980651855469 403.1378173828125 -41.173099517822266 C 511.8313903808594 -42.366355895996094 529.109375 -45.23481750488281 531.5314331054688 -27.25542449951172"/>
    <path stroke-width="0" fill="rgb(43, 40, 41)" opacity="0.74106586" stroke="rgb(245, 97, 201)" stroke-opacity="1.0" stroke-linecap="round" stroke-linejoin="round" d="M 187.8315887451172 178.96485900878906 C 190.7510528564453 352.14666748046875 170.8295135498047 378.5779113769531 238.6464385986328 419.8966979980469 C -50.717674255371094 422.08587646484375 -52.9149169921875 407.9179992675781 -49.1762809753418 372.6441345214844 C -52.37535095214844 79.1630859375 -55.43769836425781 54.96458435058594 -14.062962532043457 -48.59404754638672 C 359.5319519042969 -46.66907501220703 346.0615234375 -5.768990516662598 187.8315887451172 178.96485900878906"/>
    <path stroke-width="0" fill="rgb(49, 34, 14)" opacity="0.9992563" stroke="rgb(144, 236, 18)" stroke-opacity="1.0" stroke-linecap="round" stroke-linejoin="round" d="M 567.6400146484375 413.51593017578125 C 629.235107421875 460.04010009765625 659.2772827148438 465.8188781738281 292.5404357910156 419.6999206542969 C 327.8769226074219 148.5586395263672 287.91986083984375 390.6933288574219 308.17559814453125 173.4351806640625 C 259.5757751464844 -81.6600341796875 338.815185546875 -53.28558349609375 483.1893005371094 -40.14495086669922 C 578.5626220703125 -28.153284072875977 566.8272094726562 -10.542065620422363 567.6400146484375 413.51593017578125"/>
    <path stroke-width="0" fill="rgb(41, 28, 9)" opacity="0.9902518" stroke="rgb(5, 212, 198)" stroke-opacity="1.0" stroke-linecap="round" stroke-linejoin="round" d="M 191.62649536132812 280.4725036621094 C 172.589599609375 274.775146484375 248.6739501953125 472.6317443847656 183.1111297607422 441.20654296875 C 215.45248413085938 289.6063232421875 -37.4842643737793 198.5935821533203 84.301513671875 128.90582275390625 C 54.80670928955078 185.76080322265625 56.85399627685547 178.39462280273438 30.024032592773438 233.7997283935547 C 101.77055358886719 238.53927612304688 214.86871337890625 171.33206176757812 191.62649536132812 280.4725036621094"/>
    <path stroke-width="0" fill="rgb(26, 14, 2)" opacity="0.9999882" stroke="rgb(249, 203, 117)" stroke-opacity="1.0" stroke-linecap="round" stroke-linejoin="round" d="M 352.9021911621094 117.58158874511719 C 347.3985900878906 191.52796936035156 298.4228820800781 157.826171875 249.84793090820312 171.6915740966797 C 100.29234313964844 83.13923645019531 -6.221909046173096 196.57798767089844 55.07374954223633 76.44927215576172 C 82.74649047851562 -26.135356903076172 92.35602569580078 -30.492427825927734 196.02581787109375 -27.823692321777344 C 219.40792846679688 -42.56330490112305 282.6952819824219 -81.29261779785156 352.9021911621094 117.58158874511719"/>
    <path stroke-width="0" fill="rgb(96, 95, 96)" opacity="1.0" stroke="rgb(30, 163, 36)" stroke-opacity="1.0" stroke-linecap="round" stroke-linejoin="round" d="M 578.4916381835938 404.7875671386719 C 694.0384521484375 439.3053894042969 846.5838012695312 529.8840942382812 253.99549865722656 514.5429077148438 C 443.21533203125 192.5336151123047 285.33203125 301.1990661621094 318.3661193847656 112.73750305175781 C 382.92822265625 -28.808603286743164 409.79705810546875 -14.56885051727295 485.3011779785156 -32.26240539550781 C 565.7853393554688 -14.515660285949707 562.3096313476562 3.841090679168701 578.4916381835938 404.7875671386719"/>
    <path stroke-width="0" fill="rgb(92, 92, 93)" opacity="0.95803934" stroke="rgb(133, 105, 67)" stroke-opacity="1.0" stroke-linecap="round" stroke-linejoin="round" d="M 123.86061096191406 64.33221435546875 C 121.37226104736328 114.06250762939453 114.05819702148438 129.4079132080078 75.65779113769531 141.102783203125 C -16.853879928588867 137.421630859375 -27.432817459106445 132.74832153320312 -34.66988754272461 46.866600036621094 C -28.461292266845703 -17.69627571105957 -20.302188873291016 -27.176698684692383 45.96729278564453 -28.471765518188477 C 108.67988586425781 -1.4230592250823975 113.2765884399414 8.898911476135254 123.86061096191406 64.33221435546875"/>
    <path stroke-width="0" fill="rgb(95, 94, 95)" opacity="0.87394685" stroke="rgb(116, 144, 4)" stroke-opacity="1.0" stroke-linecap="round" stroke-linejoin="round" d="M 111.2334976196289 55.87954330444336 C 66.25895690917969 178.8291015625 92.39434814453125 210.2528076171875 -9.793198585510254 337.2704162597656 C -40.7213249206543 243.1691131591797 -35.085670471191406 217.4142608642578 -35.5753288269043 95.17083740234375 C -24.18320083618164 67.49183654785156 -15.285745620727539 60.31418991088867 79.87657165527344 59.50746536254883 C 120.22818756103516 65.669677734375 131.29124450683594 71.35102081298828 111.2334976196289 55.87954330444336"/>
    <path stroke-width="0" fill="rgb(94, 94, 95)" opacity="1.0" stroke="rgb(156, 157, 240)" stroke-opacity="1.0" stroke-linecap="round" stroke-linejoin="round" d="M 233.155517578125 40.93265914916992 C 208.87623596191406 119.91609191894531 187.96897888183594 114.88003540039062 117.61454772949219 109.02037048339844 C 50.10462951660156 107.53600311279297 46.6624641418457 88.33125305175781 34.0540657043457 1.1116153001785278 C 31.948171615600586 -31.350082397460938 42.582454681396484 -35.894710540771484 94.07343292236328 -37.2251091003418 C 221.0026397705078 -91.22877502441406 218.34307861328125 -78.42558288574219 233.155517578125 40.93265914916992"/>
    <path stroke-width="0" fill="rgb(95, 94, 96)" opacity="1.0" stroke="rgb(91, 111, 177)" stroke-opacity="1.0" stroke-linecap="round" stroke-linejoin="round" d="M 195.41427612304688 129.11412048339844 C 159.06297302246094 358.9394226074219 144.34957885742188 64.8126220703125 165.3627471923828 537.96044921875 C -127.01535034179688 550.3731079101562 -88.73860168457031 495.13446044921875 -25.452571868896484 437.35137939453125 C 52.056556701660156 112.7198715209961 52.257423400878906 76.27117919921875 332.055419921875 66.18588256835938 C 270.6434631347656 25.274883270263672 265.7168273925781 191.822998046875 195.41427612304688 129.11412048339844"/>
    <path stroke-width="0" fill="rgb(96, 95, 96)" opacity="0.8482617" stroke="rgb(170, 171, 53)" stroke-opacity="1.0" stroke-linecap="round" stroke-linejoin="round" d="M 523.3375244140625 -0.6393628120422363 C 495.2008056640625 119.43411254882812 598.204833984375 164.88523864746094 264.10467529296875 236.72784423828125 C 395.5465393066406 178.73362731933594 251.27113342285156 162.72552490234375 200.95144653320312 -20.38337516784668 C 304.89898681640625 -86.0112533569336 335.77398681640625 -53.68967056274414 387.0159606933594 -45.11587142944336 C 518.9805908203125 -42.30170822143555 528.1303100585938 -37.58413314819336 523.3375244140625 -0.6393628120422363"/>
    <path stroke-width="0" fill="rgb(118, 114, 113)" opacity="0.99146616" stroke="rgb(80, 92, 145)" stroke-opacity="1.0" stroke-linecap="round" stroke-linejoin="round" d="M 416.48687744140625 -0.5188066959381104 C 428.36322021484375 175.55770874023438 277.993408203125 55.661258697509766 284.35406494140625 59.506248474121094 C 108.18672943115234 56.5953254699707 175.19143676757812 97.55834197998047 149.0470733642578 -25.368738174438477 C 154.8877716064453 -31.89655303955078 169.101806640625 -29.487001419067383 216.2349853515625 -28.543506622314453 C 271.21038818359375 -37.61959457397461 283.8244323730469 -37.228580474853516 416.48687744140625 -0.5188066959381104"/>
    <path stroke-width="0" fill="rgb(125, 112, 97)" opacity="0.5655312" stroke="rgb(252, 26, 53)" stroke-opacity="1.0" stroke-linecap="round" stroke-linejoin="round" d="M 232.45310974121094 76.27363586425781 C 229.6846466064453 88.0160140991211 218.13983154296875 92.0886459350586 200.7054443359375 94.04119873046875 C 148.8165283203125 95.80207061767578 153.6981658935547 87.80179595947266 139.9989013671875 24.88666534423828 C 138.82769775390625 12.578276634216309 141.957275390625 0.5609648823738098 152.04879760742188 -8.657562255859375 C 205.6490478515625 46.9858512878418 235.81515502929688 0.2595757842063904 232.45310974121094 76.27363586425781"/>
    <path stroke-width="0" fill="rgb(94, 93, 95)" opacity="1.0" stroke="rgb(166, 64, 118)" stroke-opacity="1.0" stroke-linecap="round" stroke-linejoin="round" d="M 242.36410522460938 59.58955383300781 C 187.29551696777344 55.24675750732422 221.7126007080078 78.17496490478516 222.85157775878906 98.87760925292969 C 200.44581604003906 12.382136344909668 150.6234130859375 145.11203002929688 133.43858337402344 1.121720790863037 C 136.18922424316406 -13.563538551330566 141.19369506835938 -23.384248733520508 149.4539794921875 -27.8875789642334 C 322.3138732910156 -21.243616104125977 271.3554992675781 1.8873295783996582 242.36410522460938 59.58955383300781"/>
    <path stroke-width="0" fill="rgb(221, 220, 219)" opacity="0.79106003" stroke="rgb(40, 28, 167)" stroke-opacity="1.0" stroke-linecap="round" stroke-linejoin="round" d="M 293.4000549316406 211.6961212158203 C 242.39076232910156 211.0489959716797 269.8703308105469 245.1826934814453 301.9898376464844 218.0215301513672 C 298.794189453125 213.2490234375 258.5872802734375 218.35984802246094 274.0122985839844 228.9142608642578 C 215.27218627929688 231.105712890625 296.71942138671875 191.38539123535156 236.29922485351562 190.20594787597656 C 285.352294921875 123.02433776855469 330.3460388183594 197.5457000732422 293.4000549316406 211.6961212158203"/>
    <path stroke-width="0" fill="rgb(253, 255, 253)" opacity="0.98063445" stroke="rgb(50, 94, 209)" stroke-opacity="1.0" stroke-linecap="round" stroke-linejoin="round" d="M 288.0207824707031 200.46987915039062 C 299.97540283203125 152.24864196777344 334.86248779296875 197.79254150390625 242.1218719482422 242.1114959716797 C 282.1824035644531 103.8581314086914 202.3997802734375 308.2888488769531 187.157958984375 178.28997802734375 C 284.2848205566406 179.8647003173828 276.569580078125 130.411376953125 306.97882080078125 169.92047119140625 C 285.97686767578125 179.88790893554688 277.36724853515625 199.98402404785156 288.0207824707031 200.46987915039062"/>
    <path stroke-width="0" fill="rgb(0, 0, 0)" opacity="1.0" stroke="rgb(213, 24, 248)" stroke-opacity="1.0" stroke-linecap="round" stroke-linejoin="round" d="M 295.74688720703125 189.11338806152344 C 307.01898193359375 187.93939208984375 316.3424072265625 199.0485382080078 304.3384094238281 188.71250915527344 C 313.25714111328125 182.8192596435547 269.6322021484375 158.74288940429688 261.779541015625 189.5346221923828 C 278.6408386230469 210.1250457763672 296.1250305175781 188.1409454345703 308.5193176269531 185.8423614501953 C 274.34197998046875 179.9796905517578 298.7430419921875 201.0894012451172 295.74688720703125 189.11338806152344"/>
    <path stroke-width="0" fill="rgb(35, 22, 6)" opacity="0.8204225" stroke="rgb(249, 154, 188)" stroke-opacity="1.0" stroke-linecap="round" stroke-linejoin="round" d="M 358.6173095703125 419.6163330078125 C 330.584228515625 424.68316650390625 405.0921936035156 407.49127197265625 193.11485290527344 441.07977294921875 C 170.56861877441406 382.8123779296875 84.75839233398438 396.9021911621094 322.1593933105469 398.2282409667969 C 367.09832763671875 424.6969909667969 351.68902587890625 420.1853332519531 356.96893310546875 395.5089111328125 C 304.37030029296875 401.7109069824219 291.327392578125 378.5129699707031 358.6173095703125 419.6163330078125"/>
    <path stroke-width="0" fill="rgb(254, 254, 254)" opacity="0.9952166" stroke="rgb(72, 30, 75)" stroke-opacity="1.0" stroke-linecap="round" stroke-linejoin="round" d="M 315.57379150390625 420.1321716308594 C 326.40582275390625 461.2344055175781 286.063720703125 423.6828308105469 254.963134765625 428.1104736328125 C 249.4033660888672 428.3267822265625 254.82508850097656 415.9134216308594 252.35499572753906 400.8177490234375 C 256.5054626464844 392.77386474609375 250.22767639160156 423.8692321777344 252.77413940429688 424.0328369140625 C 249.6143035888672 418.51483154296875 251.1725311279297 420.3277893066406 315.57379150390625 420.1321716308594"/>
    <path stroke-width="0" fill="rgb(249, 146, 2)" opacity="1.0" stroke="rgb(81, 105, 16)" stroke-opacity="1.0" stroke-linecap="round" stroke-linejoin="round" d="M 271.9490661621094 387.80999755859375 C 302.18243408203125 388.355712890625 266.1575622558594 430.6148681640625 267.06231689453125 416.82208251953125 C 201.85206604003906 414.76629638671875 235.15203857421875 423.25189208984375 218.41136169433594 389.8971252441406 C 218.35003662109375 393.3565368652344 237.35133361816406 372.5970458984375 233.52769470214844 412.8783874511719 C 217.27944946289062 384.2945251464844 272.6083679199219 414.7400207519531 271.9490661621094 387.80999755859375"/>
    <path stroke-width="0" fill="rgb(125, 77, 25)" opacity="1.0" stroke="rgb(144, 67, 133)" stroke-opacity="1.0" stroke-linecap="round" stroke-linejoin="round" d="M 287.2665710449219 192.59652709960938 C 274.8794860839844 145.00686645507812 243.96603393554688 216.95823669433594 300.5140686035156 185.75909423828125 C 284.95123291015625 203.25067138671875 271.0677490234375 209.67697143554688 260.4422607421875 189.7849884033203 C 254.58331298828125 167.53184509277344 288.8035888671875 157.86065673828125 289.7605285644531 180.17649841308594 C 312.68927001953125 181.0213623046875 297.1513671875 182.78866577148438 287.2665710449219 192.59652709960938"/>
    <path stroke-width="0" fill="rgb(254, 254, 255)" opacity="0.9997346" stroke="rgb(146, 236, 81)" stroke-opacity="1.0" stroke-linecap="round" stroke-linejoin="round" d="M 245.312744140625 419.6941833496094 C 198.25425720214844 422.3014221191406 209.806884765625 412.3382873535156 207.95948791503906 439.3641052246094 C 218.70872497558594 421.8387756347656 223.5244598388672 440.9501037597656 221.79324340820312 430.8739013671875 C 233.32904052734375 422.33612060546875 253.43374633789062 436.93402099609375 247.27919006347656 418.4024353027344 C 248.73121643066406 420.2230529785156 240.85760498046875 417.4985046386719 245.312744140625 419.6941833496094"/>
    <path stroke-width="0" fill="rgb(253, 253, 253)" opacity="0.96298754" stroke="rgb(33, 182, 73)" stroke-opacity="1.0" stroke-linecap="round" stroke-linejoin="round" d="M 311.1322937011719 184.06927490234375 C 315.1307373046875 184.7135772705078 307.56353759765625 235.4227752685547 261.8377990722656 228.16036987304688 C 273.4539489746094 209.1332550048828 295.4725036621094 219.02615356445312 296.2972106933594 221.63795471191406 C 277.3324890136719 221.01187133789062 305.2396240234375 196.26309204101562 283.29058837890625 151.29791259765625 C 306.90716552734375 155.5390625 315.3146667480469 193.80413818359375 311.1322937011719 184.06927490234375"/>
    <path stroke-width="0" fill="rgb(254, 254, 254)" opacity="0.98108757" stroke="rgb(149, 5, 211)" stroke-opacity="1.0" stroke-linecap="round" stroke-linejoin="round" d="M 506.2105407714844 494.59906005859375 C 469.8223876953125 472.9375915527344 413.5179748535156 439.65911865234375 540.7476806640625 515.2911987304688 C 426.5489501953125 421.5049743652344 418.8234558105469 407.2789001464844 399.1740417480469 386.32537841796875 C 373.2028503417969 354.47747802734375 313.2987365722656 276.3612060546875 358.8667297363281 345.77947998046875 C 422.375732421875 425.3756408691406 432.11279296875 431.74871826171875 506.2105407714844 494.59906005859375"/>
    <path stroke-width="0" fill="rgb(23, 12, 0)" opacity="0.9097306" stroke="rgb(172, 68, 187)" stroke-opacity="1.0" stroke-linecap="round" stroke-linejoin="round" d="M 280.4912109375 390.3307800292969 C 272.2431335449219 459.90997314453125 338.7950439453125 374.18182373046875 314.4018249511719 444.161376953125 C 301.259033203125 447.06903076171875 284.6503601074219 426.9480285644531 296.9278869628906 441.2515869140625 C 297.74822998046875 449.90521240234375 289.6836853027344 341.84014892578125 311.14910888671875 396.4339904785156 C 427.8589172363281 391.4212951660156 283.3846435546875 418.53204345703125 280.4912109375 390.3307800292969"/>
    <path stroke-width="0" fill="rgb(95, 94, 96)" opacity="0.99938625" stroke="rgb(63, 146, 150)" stroke-opacity="1.0" stroke-linecap="round" stroke-linejoin="round" d="M 493.6584167480469 -3.5163538455963135 C 183.82752990722656 153.98997497558594 386.3049621582031 157.40798950195312 224.1844024658203 134.31536865234375 C 152.33163452148438 47.86115264892578 216.65110778808594 382.8094177246094 -20.194196701049805 488.112060546875 C -43.709102630615234 28.531169891357422 160.50198364257812 74.87672424316406 122.19729614257812 57.16847610473633 C 275.7999267578125 62.08280563354492 296.57537841796875 90.96150207519531 493.6584167480469 -3.5163538455963135"/>
    <path stroke-width="0" fill="rgb(66, 38, 12)" opacity="0.8898906" stroke="rgb(56, 242, 114)" stroke-opacity="1.0" stroke-linecap="round" stroke-linejoin="round" d="M 224.0770721435547 174.53099060058594 C 244.35108947753906 159.70327758789062 246.54385375976562 201.48306274414062 230.73411560058594 200.74667358398438 C 208.45921325683594 213.33984375 191.69810485839844 161.51950073242188 232.6151123046875 166.36441040039062 C 237.75674438476562 179.13375854492188 217.59352111816406 174.99636840820312 230.51914978027344 175.9418182373047 C 184.623779296875 186.79257202148438 243.48692321777344 162.47439575195312 224.0770721435547 174.53099060058594"/>
    <path stroke-width="0" fill="rgb(151, 54, 17)" opacity="0.0005002086" stroke="rgb(178, 75, 207)" stroke-opacity="1.0" stroke-linecap="round" stroke-linejoin="round" d="M 228.19076538085938 137.6530303955078 C 244.50872802734375 150.16366577148438 204.2065887451172 191.4573974609375 184.74688720703125 154.56021118164062 C 265.2398986816406 142.1515350341797 240.58950805664062 134.33726501464844 222.3738250732422 193.81617736816406 C 243.8021697998047 173.17861938476562 224.9489288330078 144.89512634277344 223.1370391845703 188.62991333007812 C 229.35964965820312 159.2738037109375 243.77413940429688 166.93702697753906 228.19076538085938 137.6530303955078"/>
    <path stroke-width="0" fill="rgb(255, 255, 250)" opacity="0.9765039" stroke="rgb(224, 148, 224)" stroke-opacity="1.0" stroke-linecap="round" stroke-linejoin="round" d="M 87.34552001953125 425.5992736816406 C 78.84578704833984 426.5273742675781 80.88563537597656 431.7297668457031 69.34738159179688 439.5691833496094 C 82.18144226074219 435.907958984375 82.21934509277344 415.0374450683594 48.903438568115234 464.4411926269531 C 54.907291412353516 453.90911865234375 137.4522247314453 393.4394836425781 173.68902587890625 303.2550964355469 C 82.09549713134766 451.0525207519531 48.2726936340332 438.0068664550781 87.34552001953125 425.5992736816406"/>
    <path stroke-width="0" fill="rgb(255, 174, 0)" opacity="0.9757716" stroke="rgb(184, 127, 243)" stroke-opacity="1.0" stroke-linecap="round" stroke-linejoin="round" d="M 262.1841735839844 206.51513671875 C 270.70037841796875 207.9432830810547 319.2546081542969 182.65689086914062 266.8902587890625 174.4477996826172 C 298.8542175292969 164.77613830566406 287.06988525390625 184.8673553466797 266.9328308105469 219.3310546875 C 297.47857666015625 217.0570526123047 293.8876953125 212.59686279296875 277.048583984375 214.07781982421875 C 259.6623840332031 211.22866821289062 277.1327209472656 242.02606201171875 262.1841735839844 206.51513671875"/>
    <path stroke-width="0" fill="rgb(255, 255, 255)" opacity="1.0" stroke="rgb(108, 154, 4)" stroke-opacity="1.0" stroke-linecap="round" stroke-linejoin="round" d="M 263.3999328613281 173.04054260253906 C 226.8388214111328 187.58441162109375 230.0065460205078 144.0187530517578 200.5684356689453 187.89358520507812 C 194.47842407226562 251.40440368652344 172.6024169921875 169.81182861328125 208.02828979492188 154.9696044921875 C 209.46897888183594 141.19410705566406 217.44915771484375 148.19296264648438 208.349853515625 139.921875 C 196.06748962402344 140.1368408203125 204.52056884765625 156.0364227294922 263.3999328613281 173.04054260253906"/>
    <path stroke-width="0" fill="rgb(22, 9, 0)" opacity="0.90650964" stroke="rgb(168, 73, 157)" stroke-opacity="1.0" stroke-linecap="round" stroke-linejoin="round" d="M 185.20306396484375 221.9911651611328 C 192.96372985839844 224.6431121826172 191.96043395996094 209.9825439453125 190.195068359375 217.26502990722656 C 231.00540161132812 259.11724853515625 266.2721252441406 218.78150939941406 252.5050506591797 227.07327270507812 C 199.31915283203125 238.44541931152344 184.57562255859375 206.54513549804688 185.68199157714844 169.43365478515625 C 177.65420532226562 222.07203674316406 204.00411987304688 228.1808319091797 185.20306396484375 221.9911651611328"/>
    <path stroke-width="0" fill="rgb(26, 13, 0)" opacity="0.89813447" stroke="rgb(34, 76, 145)" stroke-opacity="1.0" stroke-linecap="round" stroke-linejoin="round" d="M 229.47596740722656 148.54530334472656 C 213.11898803710938 135.81390380859375 200.67349243164062 169.43077087402344 184.1444549560547 171.65626525878906 C 176.95382690429688 237.67996215820312 191.10536193847656 148.48822021484375 200.81240844726562 153.01290893554688 C 180.54820251464844 153.45843505859375 190.43577575683594 118.98623657226562 188.12643432617188 116.94120025634766 C 193.65928649902344 135.05177307128906 212.40206909179688 137.0670928955078 229.47596740722656 148.54530334472656"/>
    <path stroke-width="0" fill="rgb(255, 168, 5)" opacity="1.0" stroke="rgb(146, 166, 166)" stroke-opacity="1.0" stroke-linecap="round" stroke-linejoin="round" d="M 227.50814819335938 196.63157653808594 C 248.4385528564453 144.7560272216797 184.63905334472656 181.1753692626953 224.43487548828125 200.41172790527344 C 261.8395080566406 188.58175659179688 220.7722625732422 155.55133056640625 232.49447631835938 180.21632385253906 C 215.14637756347656 172.81553649902344 217.90817260742188 181.45498657226562 226.44125366210938 181.61012268066406 C 219.01116943359375 174.69651794433594 207.11517333984375 179.98721313476562 227.50814819335938 196.63157653808594"/>
    <path stroke-width="0" fill="rgb(61, 45, 35)" opacity="0.9585306" stroke="rgb(228, 93, 111)" stroke-opacity="1.0" stroke-linecap="round" stroke-linejoin="round" d="M 47.027042388916016 244.56576538085938 C 44.7269172668457 233.72613525390625 44.16326141357422 237.91845703125 46.796539306640625 241.18772888183594 C 45.40639114379883 248.7738494873047 58.205169677734375 233.99569702148438 44.497440338134766 222.45343017578125 C 42.21352005004883 299.0128479003906 46.6440544128418 263.9800720214844 49.06751251220703 276.69683837890625 C 39.9695930480957 275.39642333984375 51.12065887451172 280.1195373535156 47.027042388916016 244.56576538085938"/>
    <path stroke-width="0" fill="rgb(0, 2, 8)" opacity="0.926128" stroke="rgb(205, 179, 25)" stroke-opacity="1.0" stroke-linecap="round" stroke-linejoin="round" d="M 268.19091796875 402.3744812011719 C 264.3540954589844 385.3890075683594 276.1213073730469 392.3037109375 284.8575439453125 396.2473449707031 C 281.89227294921875 387.9841003417969 267.6642761230469 376.2278747558594 272.5824279785156 406.93768310546875 C 269.2315368652344 428.2233581542969 273.61224365234375 415.43255615234375 300.348388671875 417.4676208496094 C 261.0631408691406 421.29443359375 268.27508544921875 409.3948059082031 268.19091796875 402.3744812011719"/>
    <path stroke-width="0" fill="rgb(240, 237, 232)" opacity="0.65996253" stroke="rgb(182, 254, 38)" stroke-opacity="1.0" stroke-linecap="round" stroke-linejoin="round" d="M 286.71685791015625 137.86666870117188 C 292.97344970703125 153.80809020996094 282.1009826660156 143.75381469726562 293.306396484375 143.94789123535156 C 287.57928466796875 144.57615661621094 295.8253479003906 129.60423278808594 288.00909423828125 162.47003173828125 C 292.77728271484375 170.3466033935547 296.1186218261719 161.16783142089844 276.8516540527344 161.87081909179688 C 283.7025146484375 160.93272399902344 301.2411804199219 168.99781799316406 286.71685791015625 137.86666870117188"/>
    <path stroke-width="0" fill="rgb(47, 26, 27)" opacity="0.27035773" stroke="rgb(41, 156, 31)" stroke-opacity="1.0" stroke-linecap="round" stroke-linejoin="round" d="M 219.1235809326172 186.4844970703125 C 209.1903076171875 177.66842651367188 218.67068481445312 185.35667419433594 238.97816467285156 184.5348663330078 C 213.97276306152344 181.7332000732422 207.52108764648438 203.38844299316406 235.7146453857422 186.133056640625 C 218.9601287841797 172.12469482421875 233.43276977539062 163.72067260742188 223.1320343017578 196.68463134765625 C 237.9092559814453 185.70945739746094 216.09352111816406 169.32196044921875 219.1235809326172 186.4844970703125"/>
    <path stroke-width="0" fill="rgb(208, 112, 19)" opacity="0.81404275" stroke="rgb(205, 145, 103)" stroke-opacity="1.0" stroke-linecap="round" stroke-linejoin="round" d="M 225.98304748535156 185.0837860107422 C 231.46324157714844 171.09817504882812 235.2042236328125 190.9241485595703 222.5972900390625 191.58041381835938 C 239.5139617919922 189.12474060058594 239.31556701660156 179.60826110839844 231.39837646484375 185.27767944335938 C 229.9454345703125 175.74801635742188 227.69602966308594 173.55972290039062 227.02584838867188 190.55087280273438 C 235.7811737060547 182.14854431152344 232.35391235351562 204.20556640625 225.98304748535156 185.0837860107422"/>
    <path stroke-width="0" fill="rgb(239, 241, 252)" opacity="0.5961239" stroke="rgb(177, 115, 184)" stroke-opacity="1.0" stroke-linecap="round" stroke-linejoin="round" d="M 254.75437927246094 174.2371368408203 C 245.6595458984375 191.7095184326172 248.03277587890625 161.76107788085938 212.15992736816406 161.39207458496094 C 190.66281127929688 196.1642303466797 188.82034301757812 153.89227294921875 224.11273193359375 163.3507080078125 C 235.55052185058594 163.7428741455078 247.72120666503906 177.7723388671875 257.57171630859375 174.68728637695312 C 206.7597198486328 129.9849853515625 236.0556182861328 147.3376007080078 254.75437927246094 174.2371368408203"/>
    <path stroke-width="0" fill="rgb(255, 208, 32)" opacity="0.6764098" stroke="rgb(248, 218, 2)" stroke-opacity="1.0" stroke-linecap="round" stroke-linejoin="round" d="M 244.8106231689453 160.6589813232422 C 218.85264587402344 241.2064208984375 193.8213348388672 169.8943634033203 230.739013671875 176.33401489257812 C 238.79994201660156 231.4871063232422 207.04701232910156 222.02391052246094 237.17066955566406 204.9553985595703 C 195.6049346923828 185.54136657714844 214.15887451171875 156.76113891601562 241.9307403564453 189.88609313964844 C 206.97784423828125 184.3157196044922 253.06234741210938 178.7936248779297 244.8106231689453 160.6589813232422"/>
    <path stroke-width="0" fill="rgb(4, 0, 0)" opacity="0.92100596" stroke="rgb(186, 43, 132)" stroke-opacity="1.0" stroke-linecap="round" stroke-linejoin="round" d="M 226.9387664794922 169.15904235839844 C 230.56068420410156 163.553466796875 242.57192993164062 177.35958862304688 230.80091857910156 191.4573516845703 C 220.41915893554688 198.28477478027344 204.1220245361328 184.91949462890625 229.11441040039062 170.8180389404297 C 207.7601776123047 183.5001220703125 254.8297882080078 167.03622436523438 232.3450927734375 180.9909210205078 C 225.745849609375 169.72378540039062 255.9070587158203 179.7396697998047 226.9387664794922 169.15904235839844"/>
    <path stroke-width="0" fill="rgb(252, 252, 253)" opacity="0.0" stroke="rgb(50, 4, 202)" stroke-opacity="1.0" stroke-linecap="round" stroke-linejoin="round" d="M 294.2257385253906 318.1236572265625 C 281.4881591796875 248.6732177734375 334.1223449707031 245.67210388183594 309.4289855957031 332.67352294921875 C 246.5562744140625 281.0704650878906 282.0128173828125 259.0457458496094 289.0269775390625 255.82269287109375 C 293.0467529296875 247.21656799316406 314.5267333984375 263.8774719238281 272.7506103515625 291.6834716796875 C 270.3948974609375 314.06298828125 283.7773132324219 322.7303161621094 294.2257385253906 318.1236572265625"/>
    <path stroke-width="0" fill="rgb(32, 25, 5)" opacity="0.9105078" stroke="rgb(88, 236, 179)" stroke-opacity="1.0" stroke-linecap="round" stroke-linejoin="round" d="M 282.3691101074219 233.0985565185547 C 238.87411499023438 207.20407104492188 211.11767578125 227.5455780029297 227.6858367919922 214.74363708496094 C 268.90521240234375 223.8044891357422 243.0407257080078 229.641357421875 215.1991424560547 233.4954376220703 C 252.7208251953125 231.22372436523438 226.60557556152344 226.87855529785156 251.36282348632812 230.44847106933594 C 226.3401336669922 243.9118194580078 195.75804138183594 220.73753356933594 282.3691101074219 233.0985565185547"/>
    <path stroke-width="0" fill="rgb(86, 79, 69)" opacity="0.80050373" stroke="rgb(41, 158, 147)" stroke-opacity="1.0" stroke-linecap="round" stroke-linejoin="round" d="M 186.4132537841797 223.67330932617188 C 196.10765075683594 187.3426971435547 172.6384735107422 216.19259643554688 159.5251007080078 279.1756896972656 C 184.38206481933594 203.9193115234375 180.9152374267578 200.95263671875 192.17369079589844 218.57785034179688 C 185.36329650878906 203.60134887695312 201.6053924560547 237.201171875 174.6470184326172 217.8860626220703 C 169.93821716308594 227.27352905273438 170.41140747070312 222.016845703125 186.4132537841797 223.67330932617188"/>
    <path stroke-width="0" fill="rgb(38, 28, 8)" opacity="0.8753339" stroke="rgb(238, 156, 136)" stroke-opacity="1.0" stroke-linecap="round" stroke-linejoin="round" d="M 182.2260284423828 329.7391052246094 C 168.16494750976562 280.3109436035156 164.40264892578125 295.4033508300781 177.8114471435547 290.6210632324219 C 194.37033081054688 349.8585205078125 200.66871643066406 274.6178283691406 175.9518280029297 280.1073913574219 C 178.47816467285156 356.80303955078125 180.0960693359375 258.587158203125 161.90606689453125 318.862060546875 C 150.693359375 314.8152770996094 168.5568389892578 326.85125732421875 182.2260284423828 329.7391052246094"/>
    <path stroke-width="0" fill="rgb(248, 250, 251)" opacity="0.7515925" stroke="rgb(186, 79, 101)" stroke-opacity="1.0" stroke-linecap="round" stroke-linejoin="round" d="M 218.58200073242188 159.29286193847656 C 261.8952331542969 179.6128387451172 259.10186767578125 203.7425994873047 242.82174682617188 169.9576873779297 C 208.09425354003906 148.23562622070312 191.73963928222656 189.84359741210938 199.15293884277344 202.44049072265625 C 200.0053253173828 146.51214599609375 220.4364013671875 155.02020263671875 200.17800903320312 174.5726776123047 C 198.77801513671875 168.71522521972656 203.34913635253906 171.34593200683594 218.58200073242188 159.29286193847656"/>
    <path stroke-width="0" fill="rgb(254, 254, 254)" opacity="0.95987386" stroke="rgb(47, 240, 188)" stroke-opacity="1.0" stroke-linecap="round" stroke-linejoin="round" d="M 246.9245147705078 193.769287109375 C 333.4252624511719 238.673095703125 289.3453369140625 225.63717651367188 213.5964813232422 228.17015075683594 C 205.50917053222656 209.0750732421875 224.81967163085938 211.72262573242188 195.78192138671875 213.34878540039062 C 235.13023376464844 197.7545166015625 238.7551727294922 199.99728393554688 245.3894500732422 211.50906372070312 C 249.58692932128906 216.1759033203125 249.91427612304688 229.0215301513672 246.9245147705078 193.769287109375"/>
    <path stroke-width="0" fill="rgb(68, 49, 17)" opacity="0.8601814" stroke="rgb(57, 64, 14)" stroke-opacity="1.0" stroke-linecap="round" stroke-linejoin="round" d="M 308.2908630371094 317.6541748046875 C 323.6009216308594 330.287109375 312.0762023925781 307.22174072265625 316.7051696777344 342.1228942871094 C 292.21795654296875 317.4675598144531 334.0509033203125 316.4927062988281 316.4219970703125 300.20526123046875 C 309.1620788574219 323.1646728515625 322.4676513671875 327.0498046875 312.48907470703125 299.37249755859375 C 348.1532287597656 273.09661865234375 328.9346008300781 268.85064697265625 308.2908630371094 317.6541748046875"/>
    <path stroke-width="0" fill="rgb(31, 19, 9)" opacity="0.993957" stroke="rgb(79, 177, 96)" stroke-opacity="1.0" stroke-linecap="round" stroke-linejoin="round" d="M 254.42306518554688 198.86607360839844 C 232.35577392578125 193.9786834716797 251.78872680664062 247.54351806640625 248.19754028320312 197.71653747558594 C 249.86300659179688 230.39602661132812 250.7637176513672 198.2309112548828 252.43182373046875 194.37432861328125 C 236.52828979492188 224.69174194335938 238.42095947265625 185.6884307861328 255.6560821533203 195.6355438232422 C 272.9524230957031 196.40524291992188 232.20994567871094 260.2396240234375 254.42306518554688 198.86607360839844"/>
    <path stroke-width="0" fill="rgb(251, 252, 251)" opacity="0.9685009" stroke="rgb(6, 17, 173)" stroke-opacity="1.0" stroke-linecap="round" stroke-linejoin="round" d="M 286.8222961425781 209.82656860351562 C 304.2701721191406 196.3931427001953 290.4981384277344 229.6178436279297 288.14190673828125 231.0080108642578 C 319.89520263671875 235.10377502441406 312.808349609375 221.7159881591797 263.4606018066406 216.11746215820312 C 250.90867614746094 205.0730438232422 275.4713134765625 199.75 297.3232727050781 203.43630981445312 C 280.822509765625 203.17385864257812 306.7959289550781 216.0240020751953 286.8222961425781 209.82656860351562"/>
    <path stroke-width="0" fill="rgb(232, 234, 237)" opacity="0.0035830927" stroke="rgb(136, 228, 252)" stroke-opacity="1.0" stroke-linecap="round" stroke-linejoin="round" d="M 273.4129638671875 279.9370422363281 C 272.0426330566406 336.84002685546875 241.331787109375 352.8647766113281 302.9967956542969 381.55108642578125 C 310.93072509765625 377.05609130859375 279.23236083984375 328.9551086425781 313.03009033203125 350.1900329589844 C 319.0511169433594 279.90484619140625 314.64703369140625 254.24066162109375 292.22210693359375 273.7381591796875 C 273.003173828125 304.4225769042969 248.53549194335938 322.9578552246094 273.4129638671875 279.9370422363281"/>
    <path stroke-width="0" fill="rgb(254, 255, 255)" opacity="0.4392209" stroke="rgb(169, 67, 5)" stroke-opacity="1.0" stroke-linecap="round" stroke-linejoin="round" d="M 187.28062438964844 229.95616149902344 C 213.23190307617188 253.43698120117188 228.3838653564453 228.57232666015625 239.70375061035156 202.54331970214844 C 205.9871063232422 216.39251708984375 197.64723205566406 209.0399169921875 199.85414123535156 207.54188537597656 C 176.97409057617188 233.1368408203125 238.5815887451172 240.86422729492188 243.65725708007812 222.6807098388672 C 215.73529052734375 190.5292510986328 215.88143920898438 190.97816467285156 187.28062438964844 229.95616149902344"/>
    <path stroke-width="0" fill="rgb(255, 255, 255)" opacity="0.9903631" stroke="rgb(81, 97, 150)" stroke-opacity="1.0" stroke-linecap="round" stroke-linejoin="round" d="M 107.13838958740234 402.3987731933594 C 60.940677642822266 465.1636657714844 -9.669462203979492 502.6871337890625 -14.55905818939209 524.798095703125 C -3.401204824447632 481.1339111328125 -55.95347595214844 505.5627746582031 -29.504064559936523 488.4368591308594 C -10.254148483276367 494.6418762207031 12.557779312133789 509.9571228027344 -21.30403709411621 523.3252563476562 C -21.80044174194336 508.53985595703125 -3.773773193359375 504.3082275390625 107.13838958740234 402.3987731933594"/>
    <path stroke-width="0" fill="rgb(225, 219, 211)" opacity="0.5729113" stroke="rgb(160, 222, 69)" stroke-opacity="1.0" stroke-linecap="round" stroke-linejoin="round" d="M 219.0122833251953 325.2596435546875 C 212.13174438476562 338.1820983886719 222.83084106445312 333.82183837890625 213.42987060546875 325.8056640625 C 214.4267120361328 328.445068359375 215.26658630371094 337.4346008300781 209.28558349609375 332.0025329589844 C 215.13189697265625 339.4399719238281 213.29031372070312 328.1888122558594 214.24208068847656 333.51446533203125 C 213.9936981201172 327.9123229980469 212.45211791992188 330.5133361816406 219.0122833251953 325.2596435546875"/>
    <path stroke-width="0" fill="rgb(14, 12, 0)" opacity="0.86098725" stroke="rgb(47, 242, 175)" stroke-opacity="1.0" stroke-linecap="round" stroke-linejoin="round" d="M 295.6010437011719 226.8971405029297 C 329.93145751953125 189.1124267578125 308.3164978027344 214.16465759277344 282.9296569824219 228.2852020263672 C 239.64430236816406 230.0052947998047 277.5514221191406 227.82940673828125 265.6625061035156 231.4268035888672 C 257.5595703125 222.1241455078125 227.05374145507812 235.40513610839844 275.41802978515625 231.16915893554688 C 244.68663024902344 222.2200927734375 256.16705322265625 250.37448120117188 295.6010437011719 226.8971405029297"/>
    <path stroke-width="0" fill="rgb(38, 27, 0)" opacity="0.74107814" stroke="rgb(241, 186, 64)" stroke-opacity="1.0" stroke-linecap="round" stroke-linejoin="round" d="M 233.36277770996094 234.83349609375 C 211.09291076660156 224.2924041748047 214.63619995117188 234.2848663330078 271.107666015625 228.8364715576172 C 257.41082763671875 231.6421356201172 230.39320373535156 235.53712463378906 202.57240295410156 226.50950622558594 C 230.53982543945312 228.36219787597656 253.82266235351562 236.70236206054688 226.04745483398438 231.2286834716797 C 208.5469512939453 231.0270538330078 217.24246215820312 239.92872619628906 233.36277770996094 234.83349609375"/>
    <path stroke-width="0" fill="rgb(33, 20, 4)" opacity="0.9999069" stroke="rgb(132, 6, 52)" stroke-opacity="1.0" stroke-linecap="round" stroke-linejoin="round" d="M 309.4557800292969 137.3165740966797 C 276.1761169433594 147.21592712402344 314.16949462890625 177.89442443847656 316.2740173339844 117.86851501464844 C 272.73504638671875 163.98072814941406 194.66098022460938 157.6941375732422 232.82655334472656 149.90658569335938 C 310.95745849609375 148.56686401367188 297.6960754394531 142.17527770996094 295.6925964355469 136.5471649169922 C 304.65301513671875 154.50555419921875 281.2716369628906 151.0792999267578 309.4557800292969 137.3165740966797"/>
    <path stroke-width="0" fill="rgb(255, 255, 254)" opacity="0.089931786" stroke="rgb(95, 118, 70)" stroke-opacity="1.0" stroke-linecap="round" stroke-linejoin="round" d="M 302.555908203125 223.57052612304688 C 309.5804443359375 265.69873046875 293.9723205566406 246.95950317382812 264.4334411621094 267.63800048828125 C 250.35572814941406 260.8214416503906 259.9232177734375 218.9335174560547 295.4678649902344 193.91648864746094 C 273.6544494628906 222.53030395507812 247.72483825683594 208.1995086669922 282.87811279296875 217.6555938720703 C 280.74420166015625 223.96942138671875 248.91383361816406 250.46006774902344 302.555908203125 223.57052612304688"/>
    <path stroke-width="0" fill="rgb(255, 140, 0)" opacity="0.88227206" stroke="rgb(220, 29, 131)" stroke-opacity="1.0" stroke-linecap="round" stroke-linejoin="round" d="M 236.78086853027344 194.03756713867188 C 270.2456359863281 195.8048553466797 248.80734252929688 219.01150512695312 250.05859375 221.89552307128906 C 244.18202209472656 162.79969787597656 254.46533203125 181.36997985839844 213.5453643798828 202.79144287109375 C 244.23233032226562 186.07362365722656 238.9139404296875 167.23110961914062 256.6047058105469 185.85084533691406 C 239.71066284179688 173.99171447753906 245.08888244628906 205.0043487548828 236.78086853027344 194.03756713867188"/>
    <path stroke-width="0" fill="rgb(0, 0, 10)" opacity="0.5773837" stroke="rgb(182, 100, 144)" stroke-opacity="1.0" stroke-linecap="round" stroke-linejoin="round" d="M 253.33169555664062 191.59747314453125 C 269.51470947265625 159.1719512939453 262.0189208984375 179.35397338867188 264.5840148925781 204.36468505859375 C 270.7272033691406 186.1624298095703 237.2980499267578 186.29327392578125 249.10169982910156 156.98092651367188 C 228.17160034179688 167.12950134277344 241.30288696289062 154.7329559326172 252.08346557617188 152.9832305908203 C 241.7950897216797 171.87704467773438 251.59503173828125 183.9054412841797 253.33169555664062 191.59747314453125"/>
    <path stroke-width="0" fill="rgb(67, 56, 35)" opacity="0.47212574" stroke="rgb(36, 124, 90)" stroke-opacity="1.0" stroke-linecap="round" stroke-linejoin="round" d="M 270.8725891113281 148.96884155273438 C 222.2043914794922 151.9082794189453 199.22195434570312 127.82987213134766 191.50782775878906 137.18264770507812 C 228.17251586914062 137.50718688964844 260.4667663574219 158.37884521484375 244.33633422851562 175.21969604492188 C 254.04302978515625 157.9581298828125 245.1310272216797 127.69593811035156 254.437255859375 154.3199005126953 C 271.12762451171875 140.5801544189453 258.09771728515625 154.0538330078125 270.8725891113281 148.96884155273438"/>
    <path stroke-width="0" fill="rgb(52, 16, 13)" opacity="0.8156473" stroke="rgb(195, 190, 230)" stroke-opacity="1.0" stroke-linecap="round" stroke-linejoin="round" d="M 228.449951171875 421.2590637207031 C 226.83163452148438 384.8977966308594 200.2911376953125 393.9428405761719 251.06614685058594 360.5776062011719 C 232.0373077392578 373.3999938964844 216.67108154296875 386.00653076171875 223.6218719482422 381.3583068847656 C 227.5161895751953 411.4425964355469 221.75070190429688 402.33935546875 221.52369689941406 364.0522766113281 C 209.20045471191406 417.8492431640625 244.88490295410156 402.8161926269531 228.449951171875 421.2590637207031"/>
    <path stroke-width="0" fill="rgb(165, 163, 151)" opacity="0.24084917" stroke="rgb(140, 149, 245)" stroke-opacity="1.0" stroke-linecap="round" stroke-linejoin="round" d="M 253.15530395507812 153.41134643554688 C 242.1205291748047 164.14793395996094 249.9925079345703 144.214599609375 206.31298828125 136.44656372070312 C 242.7211456298828 158.4491729736328 253.45616149902344 172.94912719726562 245.82667541503906 159.15948486328125 C 224.10296630859375 157.5498504638672 259.4419860839844 150.4295196533203 238.8115692138672 150.31619262695312 C 217.5184783935547 149.77320861816406 238.54296875 151.80760192871094 253.15530395507812 153.41134643554688"/>
    <path stroke-width="0" fill="rgb(141, 135, 126)" opacity="0.7495368" stroke="rgb(61, 25, 4)" stroke-opacity="1.0" stroke-linecap="round" stroke-linejoin="round" d="M 240.28697204589844 163.1046600341797 C 242.3473663330078 136.7897186279297 245.61732482910156 145.0721893310547 256.6915283203125 152.28903198242188 C 241.06549072265625 169.09475708007812 248.54115295410156 182.44142150878906 255.2173309326172 191.0350341796875 C 238.0772247314453 160.24917602539062 241.83802795410156 153.13987731933594 261.62152099609375 151.30934143066406 C 249.81497192382812 146.56332397460938 246.708984375 164.3675994873047 240.28697204589844 163.1046600341797"/>
    <path stroke-width="0" fill="rgb(79, 60, 36)" opacity="0.64573574" stroke="rgb(170, 200, 71)" stroke-opacity="1.0" stroke-linecap="round" stroke-linejoin="round" d="M 233.40652465820312 153.91949462890625 C 248.73788452148438 166.7525634765625 226.3123321533203 156.1365203857422 237.61062622070312 145.7856903076172 C 258.1630554199219 177.93612670898438 246.32078552246094 181.6805419921875 211.48989868164062 183.24192810058594 C 201.81069946289062 186.82679748535156 218.393798828125 182.96188354492188 206.68968200683594 183.63787841796875 C 258.7029724121094 180.6974334716797 243.6616668701172 176.46949768066406 233.40652465820312 153.91949462890625"/>
    <path stroke-width="0" fill="rgb(228, 229, 221)" opacity="0.089607105" stroke="rgb(16, 123, 249)" stroke-opacity="1.0" stroke-linecap="round" stroke-linejoin="round" d="M 299.7807312011719 252.17266845703125 C 277.2754821777344 346.67828369140625 210.25384521484375 327.8078918457031 182.39248657226562 281.8106384277344 C 199.2105255126953 297.09234619140625 198.352294921875 278.4764099121094 208.16766357421875 277.04534912109375 C 213.2373504638672 274.9306335449219 206.4669952392578 263.7502746582031 183.91079711914062 231.60374450683594 C 236.0018310546875 237.23284912109375 251.38914489746094 220.0814666748047 299.7807312011719 252.17266845703125"/>
    <path stroke-width="0" fill="rgb(105, 76, 26)" opacity="0.22203308" stroke="rgb(86, 245, 59)" stroke-opacity="1.0" stroke-linecap="round" stroke-linejoin="round" d="M 220.8583984375 377.1805114746094 C 246.04615783691406 370.05615234375 233.91859436035156 370.68524169921875 188.33599853515625 383.80322265625 C 192.57162475585938 384.9124755859375 185.989013671875 383.31005859375 188.5072479248047 379.6037902832031 C 191.61636352539062 368.93841552734375 174.32986450195312 371.7051696777344 184.95492553710938 351.2787780761719 C 201.1234130859375 383.01971435546875 174.10302734375 378.0412292480469 220.8583984375 377.1805114746094"/>
    <path stroke-width="0" fill="rgb(27, 20, 27)" opacity="0.70297486" stroke="rgb(240, 203, 160)" stroke-opacity="1.0" stroke-linecap="round" stroke-linejoin="round" d="M 225.7687225341797 366.9874267578125 C 218.6597137451172 369.22296142578125 227.45028686523438 366.0303955078125 238.68063354492188 371.649169921875 C 222.2615203857422 364.3135986328125 227.39186096191406 372.32342529296875 228.63330078125 367.2489013671875 C 230.4085693359375 429.6893310546875 249.1553192138672 396.80621337890625 219.72610473632812 377.55230712890625 C 225.52865600585938 384.4902038574219 235.1392364501953 388.707763671875 225.7687225341797 366.9874267578125"/>
    <path stroke-width="0" fill="rgb(177, 107, 33)" opacity="0.6827126" stroke="rgb(74, 216, 157)" stroke-opacity="1.0" stroke-linecap="round" stroke-linejoin="round" d="M 223.0264434814453 368.7308654785156 C 229.44815063476562 385.8000183105469 226.9605255126953 378.9329528808594 235.2431640625 375.72796630859375 C 225.2880401611328 387.1264953613281 216.0254364013672 358.51324462890625 237.80006408691406 378.19873046875 C 225.74166870117188 371.4802551269531 230.71768188476562 366.5238952636719 221.77978515625 374.5000305175781 C 218.368408203125 391.3280029296875 218.07135009765625 392.695068359375 223.0264434814453 368.7308654785156"/>
    <path stroke-width="0" fill="rgb(170, 182, 183)" opacity="0.38776654" stroke="rgb(88, 37, 250)" stroke-opacity="1.0" stroke-linecap="round" stroke-linejoin="round" d="M 230.68882751464844 426.5692443847656 C 246.0604705810547 437.4673156738281 227.12249755859375 430.77056884765625 210.6346893310547 431.1941833496094 C 216.26882934570312 429.41058349609375 233.9488067626953 432.90576171875 224.13999938964844 423.72320556640625 C 257.6991271972656 444.0409851074219 227.2386016845703 432.2459411621094 227.29248046875 436.97760009765625 C 216.16726684570312 428.8118591308594 216.41246032714844 428.58447265625 230.68882751464844 426.5692443847656"/>
    <path stroke-width="0" fill="rgb(202, 199, 192)" opacity="0.85264134" stroke="rgb(126, 163, 93)" stroke-opacity="1.0" stroke-linecap="round" stroke-linejoin="round" d="M 251.41946411132812 157.05479431152344 C 251.25010681152344 155.05099487304688 246.78302001953125 130.66888427734375 246.02899169921875 156.2067108154297 C 243.47853088378906 173.2084503173828 230.609375 133.4384307861328 243.55169677734375 152.97222900390625 C 243.69497680664062 175.1533966064453 244.93063354492188 173.5027313232422 242.12277221679688 176.58853149414062 C 237.1532745361328 153.0470733642578 248.68853759765625 151.56956481933594 251.41946411132812 157.05479431152344"/>
    <path stroke-width="0" fill="rgb(198, 197, 189)" opacity="0.5364854" stroke="rgb(209, 48, 130)" stroke-opacity="1.0" stroke-linecap="round" stroke-linejoin="round" d="M 279.24603271484375 149.52784729003906 C 243.22412109375 151.7156524658203 251.56703186035156 164.69485473632812 261.28411865234375 154.95632934570312 C 248.1410369873047 152.3435821533203 261.2084655761719 139.25059509277344 267.9474792480469 151.97271728515625 C 256.9580993652344 164.6748809814453 254.24676513671875 144.611572265625 251.66677856445312 149.27857971191406 C 231.5569305419922 148.52999877929688 250.82577514648438 146.11669921875 279.24603271484375 149.52784729003906"/>
    <path stroke-width="0" fill="rgb(239, 240, 242)" opacity="0.6835917" stroke="rgb(24, 219, 248)" stroke-opacity="1.0" stroke-linecap="round" stroke-linejoin="round" d="M 246.4793701171875 179.577880859375 C 264.3847961425781 180.26246643066406 268.6868896484375 148.85659790039062 249.3606414794922 186.1563720703125 C 242.46217346191406 147.68508911132812 242.01197814941406 142.9030303955078 234.32260131835938 158.38858032226562 C 260.3861999511719 152.7697296142578 280.6714172363281 155.1429443359375 251.39883422851562 151.62759399414062 C 249.18421936035156 143.70501708984375 251.2871856689453 147.96951293945312 246.4793701171875 179.577880859375"/>
    <path stroke-width="0" fill="rgb(98, 99, 100)" opacity="0.8615783" stroke="rgb(231, 197, 84)" stroke-opacity="1.0" stroke-linecap="round" stroke-linejoin="round" d="M 259.81671142578125 144.4610137939453 C 272.3028869628906 151.5679931640625 268.01983642578125 155.33770751953125 234.30270385742188 159.43992614746094 C 256.6968688964844 164.3150634765625 283.9508361816406 140.12722778320312 295.2260437011719 129.56858825683594 C 216.4146270751953 136.50132751464844 211.480712890625 141.2249755859375 277.93829345703125 139.45852661132812 C 256.9728698730469 161.09837341308594 245.00439453125 173.36131286621094 259.81671142578125 144.4610137939453"/>
    <path stroke-width="0" fill="rgb(183, 119, 41)" opacity="0.7545872" stroke="rgb(103, 59, 33)" stroke-opacity="1.0" stroke-linecap="round" stroke-linejoin="round" d="M 245.66969299316406 191.13250732421875 C 251.5800323486328 189.4852294921875 255.317626953125 188.40167236328125 237.83155822753906 169.67095947265625 C 249.29360961914062 169.59486389160156 237.6542205810547 178.505615234375 251.32398986816406 189.13925170898438 C 233.22744750976562 177.2271728515625 272.11700439453125 175.93475341796875 246.11058044433594 189.00796508789062 C 266.2336120605469 184.82614135742188 250.09837341308594 176.1814727783203 245.66969299316406 191.13250732421875"/>
    <path stroke-width="0" fill="rgb(224, 136, 26)" opacity="0.4509655" stroke="rgb(185, 2, 196)" stroke-opacity="1.0" stroke-linecap="round" stroke-linejoin="round" d="M 246.58258056640625 153.5513458251953 C 253.56568908691406 183.8912353515625 240.56121826171875 213.73150634765625 244.4283905029297 156.38328552246094 C 246.8483123779297 164.14759826660156 249.29454040527344 177.65284729003906 255.49050903320312 175.12002563476562 C 241.88262939453125 177.53042602539062 250.15963745117188 189.6913604736328 245.14993286132812 190.8842010498047 C 241.14068603515625 186.78536987304688 256.64837646484375 194.0957794189453 246.58258056640625 153.5513458251953"/>
    <path stroke-width="0" fill="rgb(153, 125, 90)" opacity="0.7096461" stroke="rgb(20, 22, 171)" stroke-opacity="1.0" stroke-linecap="round" stroke-linejoin="round" d="M 251.7032012939453 187.38392639160156 C 239.1442108154297 200.45602416992188 251.91769409179688 174.64041137695312 256.4861145019531 186.52220153808594 C 237.87408447265625 168.62637329101562 238.27346801757812 167.29266357421875 242.42172241210938 160.10984802246094 C 240.16021728515625 169.8943634033203 252.82705688476562 166.65830993652344 244.71710205078125 170.6387481689453 C 246.62051391601562 184.76492309570312 251.06651306152344 182.3623809814453 251.7032012939453 187.38392639160156"/>
    <path stroke-width="0" fill="rgb(255, 190, 11)" opacity="0.7400919" stroke="rgb(107, 142, 219)" stroke-opacity="1.0" stroke-linecap="round" stroke-linejoin="round" d="M 246.32936096191406 210.09230041503906 C 272.5506286621094 178.80392456054688 267.1874084472656 198.0670928955078 276.95672607421875 204.83050537109375 C 255.44139099121094 186.17593383789062 283.0853576660156 166.64173889160156 264.83282470703125 176.6685333251953 C 258.16485595703125 213.4931182861328 302.1798400878906 198.11270141601562 262.5843505859375 190.5574951171875 C 269.4988098144531 187.54995727539062 257.4223937988281 197.96200561523438 246.32936096191406 210.09230041503906"/>
    <path stroke-width="0" fill="rgb(254, 255, 254)" opacity="0.8195405" stroke="rgb(68, 33, 14)" stroke-opacity="1.0" stroke-linecap="round" stroke-linejoin="round" d="M 294.8833312988281 207.22140502929688 C 268.6241149902344 214.57315063476562 250.59996032714844 214.6531982421875 276.0826721191406 212.95237731933594 C 274.8955078125 208.77464294433594 265.32916259765625 193.96102905273438 245.01808166503906 180.93601989746094 C 248.18035888671875 187.58848571777344 262.5965881347656 197.510498046875 241.59913635253906 167.8541259765625 C 259.7953186035156 203.3296356201172 270.8951721191406 217.1143035888672 294.8833312988281 207.22140502929688"/>
    <path stroke-width="0" fill="rgb(72, 62, 56)" opacity="0.7300729" stroke="rgb(66, 116, 174)" stroke-opacity="1.0" stroke-linecap="round" stroke-linejoin="round" d="M 279.2306213378906 182.3465118408203 C 244.78404235839844 192.0179443359375 240.7467498779297 179.847412109375 246.78228759765625 202.95611572265625 C 244.97564697265625 193.36669921875 242.63743591308594 181.67892456054688 247.4969024658203 182.8985137939453 C 254.685546875 137.9548797607422 236.4510498046875 164.0581512451172 253.2050323486328 159.1111602783203 C 239.8944854736328 195.00241088867188 266.2908935546875 185.77151489257812 279.2306213378906 182.3465118408203"/>
    <path stroke-width="0" fill="rgb(115, 107, 96)" opacity="0.4616596" stroke="rgb(72, 96, 46)" stroke-opacity="1.0" stroke-linecap="round" stroke-linejoin="round" d="M 289.7589111328125 236.39617919921875 C 288.1139831542969 240.65406799316406 284.9254455566406 217.6124725341797 310.5694274902344 223.63262939453125 C 324.14892578125 255.0845947265625 302.0957946777344 212.26954650878906 307.0278625488281 220.04368591308594 C 286.6004638671875 226.4094696044922 289.82293701171875 228.25296020507812 287.6723327636719 239.9149169921875 C 289.61505126953125 233.6129913330078 288.58441162109375 237.60377502441406 289.7589111328125 236.39617919921875"/>
    <path stroke-width="0" fill="rgb(28, 20, 4)" opacity="0.5021385" stroke="rgb(14, 177, 198)" stroke-opacity="1.0" stroke-linecap="round" stroke-linejoin="round" d="M 287.3507385253906 230.5044403076172 C 272.3102722167969 228.2595977783203 283.6520690917969 244.30169677734375 308.54351806640625 209.961181640625 C 310.8691711425781 226.41000366210938 293.5965270996094 218.24755859375 284.16217041015625 226.75112915039062 C 255.07252502441406 236.93731689453125 276.83880615234375 230.74452209472656 288.63397216796875 231.57461547851562 C 275.6600036621094 231.38156127929688 276.1499328613281 227.3000946044922 287.3507385253906 230.5044403076172"/>
    <path stroke-width="0" fill="rgb(28, 23, 3)" opacity="0.7656467" stroke="rgb(66, 95, 149)" stroke-opacity="1.0" stroke-linecap="round" stroke-linejoin="round" d="M 259.5367126464844 235.0425567626953 C 292.04730224609375 226.53697204589844 284.3357849121094 231.53338623046875 308.5253601074219 216.21705627441406 C 302.2301330566406 221.79286193847656 275.4523010253906 234.34996032714844 262.2702941894531 234.56275939941406 C 273.0848083496094 230.77957153320312 257.03656005859375 228.34423828125 270.2172546386719 229.0822296142578 C 238.04307556152344 233.423095703125 261.2356872558594 231.81460571289062 259.5367126464844 235.0425567626953"/>
    <path stroke-width="0" fill="rgb(253, 253, 252)" opacity="0.7884162" stroke="rgb(94, 50, 117)" stroke-opacity="1.0" stroke-linecap="round" stroke-linejoin="round" d="M 211.892578125 265.83642578125 C 231.92251586914062 253.55897521972656 211.2146453857422 282.2156066894531 216.3019256591797 257.69830322265625 C 215.6743927001953 241.8809356689453 213.323486328125 240.80123901367188 204.4175567626953 239.9049835205078 C 204.52610778808594 258.2515563964844 212.9413604736328 256.86724853515625 219.32516479492188 257.6033020019531 C 216.25885009765625 253.51837158203125 214.10935974121094 268.7424011230469 211.892578125 265.83642578125"/>
    <path stroke-width="0" fill="rgb(201, 200, 193)" opacity="0.7364198" stroke="rgb(203, 19, 132)" stroke-opacity="1.0" stroke-linecap="round" stroke-linejoin="round" d="M 288.6863708496094 253.1062774658203 C 289.7754821777344 240.2532501220703 298.1365661621094 248.3291473388672 297.78369140625 236.33082580566406 C 297.8154296875 243.5989990234375 303.0753173828125 235.48422241210938 290.9781494140625 246.5077667236328 C 288.7247314453125 240.32049560546875 297.45892333984375 238.7387237548828 291.4587097167969 237.8041534423828 C 297.3677673339844 231.59632873535156 281.22589111328125 268.84869384765625 288.6863708496094 253.1062774658203"/>
    <path stroke-width="0" fill="rgb(255, 255, 255)" opacity="0.15109073" stroke="rgb(147, 244, 164)" stroke-opacity="1.0" stroke-linecap="round" stroke-linejoin="round" d="M 195.943115234375 294.9158630371094 C 181.96697998046875 302.8211364746094 175.34715270996094 281.96527099609375 185.68499755859375 278.0060729980469 C 176.28585815429688 293.7435607910156 174.2882080078125 279.7632141113281 208.48699951171875 278.5240783691406 C 197.55116271972656 265.62872314453125 185.5403594970703 264.2315673828125 189.08738708496094 268.34918212890625 C 192.9231719970703 256.8511962890625 188.34349060058594 265.8029479980469 195.943115234375 294.9158630371094"/>
    <path stroke-width="0" fill="rgb(61, 42, 16)" opacity="0.9876491" stroke="rgb(109, 130, 136)" stroke-opacity="1.0" stroke-linecap="round" stroke-linejoin="round" d="M 190.12255859375 337.014892578125 C 175.1764373779297 291.11102294921875 180.8198699951172 290.29608154296875 183.36114501953125 288.8509521484375 C 185.8758544921875 295.60028076171875 164.34011840820312 279.1825256347656 163.3445587158203 238.34295654296875 C 185.53060913085938 298.17230224609375 175.27883911132812 300.9420471191406 189.785400390625 236.20506286621094 C 199.67359924316406 216.57626342773438 181.6912384033203 248.12152099609375 190.12255859375 337.014892578125"/>
    <path stroke-width="0" fill="rgb(115, 112, 111)" opacity="0.857637" stroke="rgb(70, 32, 100)" stroke-opacity="1.0" stroke-linecap="round" stroke-linejoin="round" d="M 365.1743469238281 288.2794494628906 C 360.9249267578125 306.26416015625 356.4923095703125 297.18267822265625 359.9057922363281 302.24981689453125 C 363.58770751953125 295.7660827636719 365.03265380859375 294.58636474609375 349.62298583984375 317.6004333496094 C 356.822265625 329.31256103515625 364.499267578125 326.7919006347656 372.0096740722656 329.43536376953125 C 321.9523010253906 311.5066223144531 353.024658203125 341.1454162597656 365.1743469238281 288.2794494628906"/>
    <path stroke-width="0" fill="rgb(64, 46, 16)" opacity="0.849707" stroke="rgb(47, 230, 138)" stroke-opacity="1.0" stroke-linecap="round" stroke-linejoin="round" d="M 183.13800048828125 355.1611022949219 C 164.18930053710938 359.92926025390625 173.9619598388672 368.58209228515625 172.0989227294922 329.2182922363281 C 179.9749298095703 334.01361083984375 174.9093780517578 325.1118469238281 197.57998657226562 364.12371826171875 C 178.7408905029297 320.0976257324219 155.4616241455078 257.40289306640625 167.0686798095703 305.5944519042969 C 177.239013671875 334.43634033203125 180.03707885742188 344.8719482421875 183.13800048828125 355.1611022949219"/>
    <path stroke-width="0" fill="rgb(18, 10, 4)" opacity="0.93926835" stroke="rgb(224, 116, 184)" stroke-opacity="1.0" stroke-linecap="round" stroke-linejoin="round" d="M 325.337158203125 345.085693359375 C 339.9523010253906 305.42218017578125 327.5161437988281 329.2806396484375 304.2534484863281 369.8356018066406 C 323.5896911621094 336.714111328125 341.627197265625 307.08966064453125 312.4789123535156 360.82421875 C 309.0670471191406 337.1944885253906 320.51025390625 334.6458435058594 334.3983459472656 331.5 C 301.4725646972656 339.3827819824219 318.1873779296875 343.7776794433594 325.337158203125 345.085693359375"/>
    <path stroke-width="0" fill="rgb(104, 101, 99)" opacity="0.64497304" stroke="rgb(230, 175, 178)" stroke-opacity="1.0" stroke-linecap="round" stroke-linejoin="round" d="M 162.42465209960938 324.8798828125 C 152.42303466796875 297.57470703125 134.9967498779297 315.0084228515625 121.0715103149414 301.3540954589844 C 141.72288513183594 313.19580078125 149.9451141357422 317.17010498046875 142.22360229492188 309.8598937988281 C 152.20046997070312 318.8936462402344 134.4342498779297 319.272216796875 159.6870880126953 326.7149658203125 C 182.08273315429688 252.3772430419922 189.7738494873047 272.10809326171875 162.42465209960938 324.8798828125"/>
    <path stroke-width="0" fill="rgb(239, 240, 234)" opacity="0.23695508" stroke="rgb(192, 162, 61)" stroke-opacity="1.0" stroke-linecap="round" stroke-linejoin="round" d="M 290.058349609375 327.9383239746094 C 297.8643493652344 343.880126953125 320.4413757324219 368.8035583496094 327.71978759765625 334.81365966796875 C 309.8691711425781 341.8901672363281 278.9144287109375 342.012939453125 281.69012451171875 333.5114440917969 C 269.37841796875 302.6340026855469 272.8034362792969 296.3051452636719 304.33203125 285.65606689453125 C 301.3929138183594 321.62237548828125 296.479248046875 348.3993835449219 290.058349609375 327.9383239746094"/>
    <path stroke-width="0" fill="rgb(251, 251, 250)" opacity="0.49234423" stroke="rgb(203, 244, 116)" stroke-opacity="1.0" stroke-linecap="round" stroke-linejoin="round" d="M 257.4775085449219 335.2163391113281 C 232.8880157470703 383.3981628417969 212.17515563964844 407.75970458984375 218.30966186523438 372.5946350097656 C 188.88229370117188 319.1348571777344 216.78103637695312 310.7613525390625 215.2437286376953 350.81005859375 C 214.66197204589844 360.58209228515625 212.48318481445312 355.6011657714844 213.71282958984375 291.6558837890625 C 232.72767639160156 288.3599548339844 226.87518310546875 298.60858154296875 257.4775085449219 335.2163391113281"/>
    <path stroke-width="0" fill="rgb(195, 197, 191)" opacity="0.78592056" stroke="rgb(218, 116, 242)" stroke-opacity="1.0" stroke-linecap="round" stroke-linejoin="round" d="M 165.04049682617188 340.70794677734375 C 172.7058563232422 340.9273681640625 157.22349548339844 337.1143493652344 153.7838134765625 329.3910827636719 C 154.3455352783203 345.0728454589844 159.77593994140625 333.34881591796875 172.8204803466797 344.31304931640625 C 183.28460693359375 355.4324645996094 174.9712677001953 339.001953125 184.14859008789062 332.26104736328125 C 161.30941772460938 335.86077880859375 162.46766662597656 358.0406799316406 165.04049682617188 340.70794677734375"/>
    <path stroke-width="0" fill="rgb(189, 166, 133)" opacity="0.6765626" stroke="rgb(209, 231, 207)" stroke-opacity="1.0" stroke-linecap="round" stroke-linejoin="round" d="M 305.3634948730469 336.1418151855469 C 320.6771240234375 309.2744445800781 285.9163818359375 360.56109619140625 325.8804626464844 336.8572998046875 C 330.53448486328125 315.8357238769531 325.3560485839844 303.5989685058594 320.4765625 314.3826599121094 C 322.2613525390625 364.84136962890625 315.6211853027344 365.09246826171875 315.6834411621094 334.9508972167969 C 302.40765380859375 329.6575927734375 310.62213134765625 336.52777099609375 305.3634948730469 336.1418151855469"/>
    <path stroke-width="0" fill="rgb(226, 227, 220)" opacity="0.02307491" stroke="rgb(160, 101, 15)" stroke-opacity="1.0" stroke-linecap="round" stroke-linejoin="round" d="M 239.0752410888672 340.0908508300781 C 174.87327575683594 439.0289001464844 197.32008361816406 436.2532043457031 238.51161193847656 376.3934631347656 C 209.86712646484375 377.748046875 197.15206909179688 382.639404296875 192.81832885742188 361.6650695800781 C 222.79443359375 366.4511413574219 233.14151000976562 359.2903137207031 193.4793243408203 367.51226806640625 C 169.01861572265625 211.10487365722656 219.2648162841797 261.3652648925781 239.0752410888672 340.0908508300781"/>
    <path stroke-width="0" fill="rgb(47, 33, 12)" opacity="1.0" stroke="rgb(65, 216, 8)" stroke-opacity="1.0" stroke-linecap="round" stroke-linejoin="round" d="M 187.01927185058594 397.0366516113281 C 176.22425842285156 340.10955810546875 199.13638305664062 337.4338073730469 199.45542907714844 370.0762939453125 C 194.39952087402344 405.4366760253906 183.78628540039062 399.4623718261719 165.67079162597656 348.6262512207031 C 155.65310668945312 338.6497802734375 168.32586669921875 323.7934875488281 195.36485290527344 335.451904296875 C 203.82960510253906 367.2493896484375 195.30142211914062 377.48370361328125 187.01927185058594 397.0366516113281"/>
    <path stroke-width="0" fill="rgb(97, 98, 102)" opacity="0.7823498" stroke="rgb(90, 90, 4)" stroke-opacity="1.0" stroke-linecap="round" stroke-linejoin="round" d="M 144.55735778808594 380.6195983886719 C 148.45901489257812 381.41363525390625 144.34872436523438 378.6456298828125 157.84933471679688 368.0087585449219 C 151.9583282470703 368.7923583984375 149.92738342285156 369.2665100097656 140.8287811279297 373.8795166015625 C 152.44412231445312 373.72161865234375 187.561279296875 364.8329162597656 150.74111938476562 365.4963073730469 C 148.49302673339844 381.5582580566406 154.8939208984375 367.67779541015625 144.55735778808594 380.6195983886719"/>
    <path stroke-width="0" fill="rgb(254, 254, 253)" opacity="0.87549216" stroke="rgb(102, 236, 25)" stroke-opacity="1.0" stroke-linecap="round" stroke-linejoin="round" d="M 285.556640625 356.9956359863281 C 273.91241455078125 369.507080078125 219.41525268554688 393.8626403808594 215.12867736816406 386.5343933105469 C 219.63194274902344 368.3225402832031 221.6876220703125 348.61737060546875 221.34596252441406 333.51654052734375 C 228.7613067626953 388.7082824707031 229.18563842773438 378.8807067871094 218.32850646972656 328.21588134765625 C 230.68756103515625 345.61505126953125 251.2855224609375 353.2503356933594 285.556640625 356.9956359863281"/>
    <path stroke-width="0" fill="rgb(251, 251, 250)" opacity="0.59744614" stroke="rgb(221, 115, 83)" stroke-opacity="1.0" stroke-linecap="round" stroke-linejoin="round" d="M 294.6866455078125 357.9488525390625 C 291.0404357910156 362.91473388671875 282.9413757324219 361.8079833984375 233.52378845214844 358.974853515625 C 296.88671875 385.4966125488281 270.45135498046875 377.32049560546875 289.2942810058594 377.6019287109375 C 272.9781799316406 369.08154296875 267.689208984375 366.3044738769531 289.0919494628906 377.4419250488281 C 280.0948791503906 374.6845397949219 297.2698974609375 373.56121826171875 294.6866455078125 357.9488525390625"/>
    <path stroke-width="0" fill="rgb(28, 53, 60)" opacity="0.017202692" stroke="rgb(156, 8, 3)" stroke-opacity="1.0" stroke-linecap="round" stroke-linejoin="round" d="M 289.1567077636719 400.742431640625 C 258.5582275390625 403.0577087402344 297.64276123046875 398.0028381347656 334.4055480957031 394.13043212890625 C 260.199951171875 374.7760314941406 275.9347839355469 377.9037780761719 248.6846923828125 368.48687744140625 C 258.2006530761719 390.151611328125 251.90225219726562 369.5998229980469 289.64483642578125 463.5008850097656 C 280.2392578125 408.5755615234375 251.25978088378906 398.3645324707031 289.1567077636719 400.742431640625"/>
    <path stroke-width="0" fill="rgb(166, 160, 148)" opacity="0.577183" stroke="rgb(17, 64, 56)" stroke-opacity="1.0" stroke-linecap="round" stroke-linejoin="round" d="M 308.1551818847656 386.95025634765625 C 286.7889099121094 385.3457336425781 292.9459228515625 405.1212463378906 308.7668762207031 384.3321228027344 C 310.7453918457031 390.07421875 294.7426452636719 386.968505859375 306.65911865234375 364.78424072265625 C 285.3699951171875 381.50762939453125 306.02020263671875 378.9045104980469 311.5283203125 376.3245544433594 C 310.5144958496094 374.3988037109375 312.4291076660156 374.82196044921875 308.1551818847656 386.95025634765625"/>
    <path stroke-width="0" fill="rgb(62, 47, 23)" opacity="1.0" stroke="rgb(33, 3, 29)" stroke-opacity="1.0" stroke-linecap="round" stroke-linejoin="round" d="M 232.3173828125 388.7071533203125 C 214.50559997558594 380.71429443359375 221.70411682128906 407.1414489746094 218.58787536621094 417.1443786621094 C 172.58358764648438 409.0201416015625 150.85470581054688 440.23040771484375 162.59136962890625 400.2301940917969 C 153.6694793701172 403.2720031738281 228.91864013671875 397.8202819824219 236.3618621826172 397.4220275878906 C 218.86741638183594 399.4821472167969 209.52578735351562 402.61053466796875 232.3173828125 388.7071533203125"/>
    <path stroke-width="0" fill="rgb(214, 199, 89)" opacity="0.46427643" stroke="rgb(248, 252, 104)" stroke-opacity="1.0" stroke-linecap="round" stroke-linejoin="round" d="M 249.01780700683594 380.9364929199219 C 255.70326232910156 381.09942626953125 256.321044921875 377.5641784667969 263.565673828125 367.4763488769531 C 248.98960876464844 391.9248352050781 246.77987670898438 377.6109924316406 259.02490234375 382.4206848144531 C 258.3002014160156 383.1087341308594 251.47930908203125 378.7653503417969 247.15985107421875 381.88720703125 C 253.00892639160156 379.70208740234375 254.66326904296875 378.288330078125 249.01780700683594 380.9364929199219"/>
    <path stroke-width="0" fill="rgb(191, 179, 167)" opacity="0.68165493" stroke="rgb(162, 125, 252)" stroke-opacity="1.0" stroke-linecap="round" stroke-linejoin="round" d="M 399.5639343261719 389.86962890625 C 422.9085693359375 390.4798583984375 405.6873779296875 378.48419189453125 399.9411315917969 386.2093200683594 C 418.1673889160156 374.0705871582031 403.5545349121094 410.64312744140625 402.61517333984375 387.8056640625 C 405.2792053222656 384.6058044433594 386.1668701171875 403.07611083984375 395.95196533203125 401.7181091308594 C 401.720947265625 403.2585144042969 390.3940734863281 408.58538818359375 399.5639343261719 389.86962890625"/>
    <path stroke-width="0" fill="rgb(79, 60, 29)" opacity="0.70092624" stroke="rgb(199, 73, 61)" stroke-opacity="1.0" stroke-linecap="round" stroke-linejoin="round" d="M 281.8250427246094 408.41021728515625 C 291.6513977050781 393.4140625 267.76629638671875 405.6288146972656 283.6545104980469 399.2388916015625 C 286.62060546875 411.76556396484375 282.9605407714844 395.5695495605469 281.9568176269531 400.799560546875 C 287.6131286621094 395.4613037109375 268.8722839355469 401.67535400390625 354.648681640625 400.1097717285156 C 371.7283020019531 422.0097351074219 255.0892791748047 422.8009948730469 281.8250427246094 408.41021728515625"/>
    <path stroke-width="0" fill="rgb(214, 213, 210)" opacity="0.8296303" stroke="rgb(62, 169, 131)" stroke-opacity="1.0" stroke-linecap="round" stroke-linejoin="round" d="M 93.03475952148438 413.71148681640625 C 90.97662353515625 413.7386474609375 94.39212799072266 409.1606140136719 104.91082000732422 412.33642578125 C 100.47821044921875 410.4458923339844 93.2299575805664 406.70953369140625 90.9786148071289 419.54571533203125 C 92.25581359863281 415.4405822753906 93.73135375976562 417.92169189453125 87.40026092529297 417.8798828125 C 91.21863555908203 418.6365661621094 88.82538604736328 417.90863037109375 93.03475952148438 413.71148681640625"/>
    <path stroke-width="0" fill="rgb(206, 192, 186)" opacity="0.6545893" stroke="rgb(141, 73, 180)" stroke-opacity="1.0" stroke-linecap="round" stroke-linejoin="round" d="M 250.37875366210938 408.8608093261719 C 257.961181640625 421.0945739746094 268.5389099121094 418.500732421875 257.16650390625 417.3608093261719 C 270.24267578125 429.2347412109375 287.8234558105469 428.13116455078125 288.1205749511719 454.61016845703125 C 287.0780029296875 430.3240661621094 273.95440673828125 430.4526672363281 274.959228515625 433.06146240234375 C 271.16229248046875 423.1243896484375 259.632568359375 421.6614074707031 250.37875366210938 408.8608093261719"/>
    <path stroke-width="0" fill="rgb(242, 243, 245)" opacity="0.86245203" stroke="rgb(91, 211, 235)" stroke-opacity="1.0" stroke-linecap="round" stroke-linejoin="round" d="M 215.97067260742188 422.0019226074219 C 210.76536560058594 417.7362976074219 205.1699676513672 424.6635437011719 239.85440063476562 422.29766845703125 C 243.3580322265625 427.7784729003906 243.41122436523438 424.32745361328125 230.69825744628906 422.0897521972656 C 219.773193359375 430.52239990234375 214.99667358398438 428.24798583984375 227.69195556640625 424.9710388183594 C 204.1955108642578 418.17144775390625 214.26600646972656 431.019775390625 215.97067260742188 422.0019226074219"/>
    <path stroke-width="0" fill="rgb(201, 176, 150)" opacity="0.6552578" stroke="rgb(59, 88, 207)" stroke-opacity="1.0" stroke-linecap="round" stroke-linejoin="round" d="M 274.13397216796875 431.165283203125 C 266.5550537109375 418.8578796386719 273.9743957519531 423.98211669921875 267.96160888671875 421.8317565917969 C 268.9087219238281 423.0981750488281 269.13482666015625 422.87298583984375 270.3680419921875 422.19012451171875 C 270.5748596191406 425.0853271484375 268.4161376953125 414.2935791015625 272.0032958984375 437.00469970703125 C 286.880126953125 439.0669250488281 264.36138916015625 438.25958251953125 274.13397216796875 431.165283203125"/>
    <path stroke-width="0" fill="rgb(98, 99, 100)" opacity="0.9346471" stroke="rgb(75, 252, 63)" stroke-opacity="1.0" stroke-linecap="round" stroke-linejoin="round" d="M 528.5960083007812 452.73638916015625 C 543.838623046875 450.7303161621094 488.1973876953125 458.5037536621094 526.246337890625 453.76239013671875 C 517.6597290039062 448.7012634277344 510.8132019042969 441.6373291015625 502.9778137207031 432.9628601074219 C 523.7852783203125 457.14410400390625 499.912841796875 428.0751037597656 519.701416015625 457.6444396972656 C 514.667236328125 454.4429626464844 519.5087890625 446.966796875 528.5960083007812 452.73638916015625"/>
    <path stroke-width="0" fill="rgb(95, 94, 96)" opacity="1.0" stroke="rgb(175, 14, 186)" stroke-opacity="1.0" stroke-linecap="round" stroke-linejoin="round" d="M 490.906982421875 134.00711059570312 C 446.5241394042969 186.38540649414062 515.198974609375 264.4957580566406 640.112060546875 131.30543518066406 C 511.7834777832031 79.14395141601562 608.1447143554688 -3.676504135131836 342.323974609375 -81.73855590820312 C 131.0190887451172 154.8859100341797 227.00502014160156 2.3253982067108154 366.9306640625 86.9007797241211 C 501.570556640625 158.95310974121094 454.1573486328125 127.88983917236328 490.906982421875 134.00711059570312"/>
    <path stroke-width="0" fill="rgb(94, 93, 95)" opacity="0.8826824" stroke="rgb(95, 190, 60)" stroke-opacity="1.0" stroke-linecap="round" stroke-linejoin="round" d="M 140.7584228515625 162.38453674316406 C 129.8833465576172 193.84872436523438 95.17886352539062 149.86221313476562 75.41075897216797 206.72117614746094 C 137.6693878173828 262.7198181152344 135.9806365966797 182.71197509765625 176.99179077148438 166.18447875976562 C 137.11500549316406 198.2667236328125 133.83004760742188 208.84568786621094 173.24273681640625 179.74024963378906 C 165.68649291992188 161.9394989013672 169.99462890625 185.7265167236328 140.7584228515625 162.38453674316406"/>
    <path stroke-width="0" fill="rgb(51, 36, 12)" opacity="1.0" stroke="rgb(213, 60, 128)" stroke-opacity="1.0" stroke-linecap="round" stroke-linejoin="round" d="M 249.0194091796875 151.4738006591797 C 259.1614990234375 191.34490966796875 246.1267852783203 162.70921325683594 221.45834350585938 151.52183532714844 C 234.2862091064453 160.40512084960938 224.67213439941406 153.44862365722656 213.96917724609375 151.14195251464844 C 186.03402709960938 121.60016632080078 182.61001586914062 121.5946273803711 194.17379760742188 149.3990936279297 C 211.14418029785156 139.13565063476562 358.59210205078125 143.30784606933594 249.0194091796875 151.4738006591797"/>
    <path stroke-width="0" fill="rgb(95, 95, 95)" opacity="0.9283568" stroke="rgb(239, 191, 178)" stroke-opacity="1.0" stroke-linecap="round" stroke-linejoin="round" d="M 312.0811462402344 472.7367858886719 C 343.30780029296875 470.54388427734375 347.4333190917969 457.1798095703125 323.22259521484375 458.62457275390625 C 351.5727233886719 484.8353271484375 318.9225158691406 458.7950134277344 331.4808349609375 471.2598876953125 C 336.94171142578125 463.75677490234375 343.9787292480469 454.48284912109375 352.4891052246094 448.06878662109375 C 336.7129821777344 493.8699645996094 316.38250732421875 512.78759765625 312.0811462402344 472.7367858886719"/>
    <path stroke-width="0" fill="rgb(90, 92, 97)" opacity="0.8957138" stroke="rgb(18, 74, 38)" stroke-opacity="1.0" stroke-linecap="round" stroke-linejoin="round" d="M 531.0819702148438 229.90487670898438 C 534.9422607421875 243.30978393554688 531.4376220703125 263.2626953125 526.3673095703125 250.36474609375 C 520.44140625 226.51011657714844 513.5359497070312 215.57318115234375 523.7106323242188 291.2554016113281 C 534.9318237304688 244.50035095214844 513.2349853515625 246.48777770996094 512.8654174804688 216.584228515625 C 527.5673828125 217.75782775878906 516.5956420898438 222.41046142578125 531.0819702148438 229.90487670898438"/>
    <path stroke-width="0" fill="rgb(76, 63, 57)" opacity="0.92691094" stroke="rgb(97, 228, 246)" stroke-opacity="1.0" stroke-linecap="round" stroke-linejoin="round" d="M 62.50829315185547 316.7177429199219 C 48.99413299560547 321.8059997558594 47.81821823120117 289.58953857421875 53.49177169799805 294.9744873046875 C 50.914634704589844 292.6265563964844 50.43083953857422 305.57122802734375 46.59281539916992 294.3968200683594 C 44.74264144897461 297.9758605957031 54.668087005615234 264.87078857421875 49.56611633300781 305.5418701171875 C 61.97914123535156 294.0775451660156 50.164913177490234 332.82659912109375 62.50829315185547 316.7177429199219"/>
    <path stroke-width="0" fill="rgb(94, 94, 96)" opacity="0.931357" stroke="rgb(228, 103, 140)" stroke-opacity="1.0" stroke-linecap="round" stroke-linejoin="round" d="M 128.24391174316406 277.4730224609375 C 151.59295654296875 309.6810302734375 155.99847412109375 309.8993225097656 111.36710357666016 327.43756103515625 C 95.84048461914062 341.2455139160156 69.50634002685547 321.0958557128906 124.01885986328125 272.56915283203125 C 119.12942504882812 280.20721435546875 145.0701446533203 258.45123291015625 137.0945281982422 299.44000244140625 C 139.35552978515625 300.0375061035156 153.05613708496094 286.4692687988281 128.24391174316406 277.4730224609375"/>
    <path stroke-width="0" fill="rgb(251, 253, 254)" opacity="0.9877257" stroke="rgb(63, 128, 79)" stroke-opacity="1.0" stroke-linecap="round" stroke-linejoin="round" d="M 249.49429321289062 192.20370483398438 C 210.0614471435547 214.11593627929688 217.243408203125 226.82553100585938 238.1907501220703 219.90940856933594 C 225.18637084960938 212.77801513671875 218.95535278320312 221.32003784179688 205.8923797607422 182.5831756591797 C 213.3033447265625 234.28720092773438 248.23350524902344 219.4459228515625 240.19589233398438 175.73712158203125 C 207.08798217773438 144.9691162109375 286.8740539550781 184.99288940429688 249.49429321289062 192.20370483398438"/>
    <path stroke-width="0" fill="rgb(244, 246, 245)" opacity="0.23280321" stroke="rgb(85, 235, 219)" stroke-opacity="1.0" stroke-linecap="round" stroke-linejoin="round" d="M 297.6727294921875 388.5980224609375 C 302.8675842285156 406.1363220214844 269.71240234375 381.0890197753906 269.4468994140625 386.5904541015625 C 242.96600341796875 393.0477294921875 182.19325256347656 383.38494873046875 227.63121032714844 366.33953857421875 C 206.48614501953125 295.98175048828125 240.50511169433594 283.47412109375 294.6572265625 317.1741027832031 C 280.64208984375 356.83258056640625 303.3608093261719 359.1092224121094 297.6727294921875 388.5980224609375"/>
    <path stroke-width="0" fill="rgb(94, 93, 95)" opacity="0.7797437" stroke="rgb(26, 88, 188)" stroke-opacity="1.0" stroke-linecap="round" stroke-linejoin="round" d="M 149.85328674316406 163.9881134033203 C 96.67021942138672 209.45965576171875 87.02799224853516 246.7464141845703 106.7463607788086 230.14505004882812 C 159.86500549316406 224.33448791503906 145.56871032714844 214.80564880371094 142.593994140625 200.92259216308594 C 144.24156188964844 255.0128936767578 139.15798950195312 262.6021423339844 137.28794860839844 213.741943359375 C 111.95132446289062 254.5350341796875 116.51680755615234 238.27418518066406 149.85328674316406 163.9881134033203"/>
    <path stroke-width="0" fill="rgb(40, 26, 6)" opacity="0.8330123" stroke="rgb(52, 87, 172)" stroke-opacity="1.0" stroke-linecap="round" stroke-linejoin="round" d="M 303.2959289550781 345.4607238769531 C 317.9922180175781 397.7011413574219 319.6046142578125 361.0365905761719 311.1244201660156 389.7970275878906 C 300.8101806640625 397.16326904296875 296.62554931640625 419.03936767578125 303.18145751953125 318.1024475097656 C 309.0455627441406 335.4545593261719 320.5325622558594 339.30487060546875 320.671875 277.3121032714844 C 338.6282653808594 347.48785400390625 326.7947998046875 372.9991149902344 303.2959289550781 345.4607238769531"/>
    <path stroke-width="0" fill="rgb(59, 42, 16)" opacity="0.9782885" stroke="rgb(7, 181, 2)" stroke-opacity="1.0" stroke-linecap="round" stroke-linejoin="round" d="M 303.68353271484375 137.26644897460938 C 278.8480224609375 152.80056762695312 256.06097412109375 152.4515380859375 296.4390869140625 146.27520751953125 C 271.66552734375 153.2046356201172 230.496826171875 184.90362548828125 245.63323974609375 144.2995147705078 C 277.07977294921875 140.1152801513672 316.0719909667969 164.0389862060547 312.3370361328125 126.38032531738281 C 272.2066650390625 155.580322265625 270.06927490234375 154.2209014892578 303.68353271484375 137.26644897460938"/>
    <path stroke-width="0" fill="rgb(94, 94, 96)" opacity="0.80814874" stroke="rgb(22, 103, 6)" stroke-opacity="1.0" stroke-linecap="round" stroke-linejoin="round" d="M 281.36279296875 486.3077087402344 C 268.34228515625 489.46575927734375 341.5065002441406 502.8734130859375 205.0133056640625 541.4119262695312 C 81.64381408691406 490.6224060058594 258.97833251953125 469.06292724609375 250.13270568847656 467.6382751464844 C 255.06739807128906 472.88092041015625 291.5152587890625 512.5003051757812 230.7414093017578 497.3017272949219 C 213.48988342285156 474.7026672363281 227.6363525390625 447.1180114746094 281.36279296875 486.3077087402344"/>
    <path stroke-width="0" fill="rgb(95, 94, 96)" opacity="1.0" stroke="rgb(53, 29, 147)" stroke-opacity="1.0" stroke-linecap="round" stroke-linejoin="round" d="M 337.0545654296875 158.0744171142578 C 315.2538146972656 89.79158020019531 335.8380126953125 53.858707427978516 391.8323974609375 112.46781158447266 C 365.85821533203125 207.55470275878906 338.7625427246094 135.44631958007812 333.8700256347656 136.3021697998047 C 336.8216552734375 165.4171905517578 343.7257995605469 158.87428283691406 351.1399230957031 153.08473205566406 C 325.50457763671875 156.30294799804688 343.1607666015625 155.18746948242188 337.0545654296875 158.0744171142578"/>
    <path stroke-width="0" fill="rgb(93, 93, 95)" opacity="0.73270404" stroke="rgb(0, 165, 153)" stroke-opacity="1.0" stroke-linecap="round" stroke-linejoin="round" d="M 454.0909423828125 522.3460693359375 C 380.0731201171875 503.91949462890625 293.5055847167969 480.5517578125 360.1651916503906 505.3948669433594 C 358.3420104980469 486.9510192871094 249.77711486816406 513.4710083007812 245.51080322265625 478.2459716796875 C 305.0140380859375 428.7787170410156 338.78118896484375 460.08795166015625 329.19775390625 478.29449462890625 C 359.2332763671875 431.9852294921875 408.0116882324219 421.5827941894531 454.0909423828125 522.3460693359375"/>
  </g>
</svg>
