<?xml version="1.0" ?>
<svg xmlns="http://www.w3.org/2000/svg" version="1.1" width="512" height="512">
  <defs/>
  <g>
    <path stroke-width="0" fill="rgb(159, 144, 99)" opacity="0.9926875" stroke="rgb(139, 182, 153)" stroke-opacity="1.0" stroke-linecap="round" stroke-linejoin="round" d="M 171.8430633544922 190.56101989746094 C 206.89126586914062 273.6936950683594 289.9519958496094 291.4477844238281 81.7294921875 320.9427795410156 C -159.5937042236328 282.4077453613281 -71.08911895751953 240.04397583007812 -40.913700103759766 73.3437271118164 C -31.68319320678711 -34.877479553222656 -21.605052947998047 -38.456459045410156 42.443355560302734 -38.66401672363281 C 166.51181030273438 -51.084232330322266 226.7330780029297 -72.49512481689453 171.8430633544922 190.56101989746094"/>
    <path stroke-width="0" fill="rgb(0, 0, 11)" opacity="1.0" stroke="rgb(108, 164, 111)" stroke-opacity="1.0" stroke-linecap="round" stroke-linejoin="round" d="M 479.6067199707031 -37.41419982910156 C 350.171142578125 74.8823013305664 348.1744079589844 177.19178771972656 391.8711242675781 131.3022003173828 C 294.02996826171875 53.003074645996094 326.6761474609375 5.168951511383057 283.287841796875 59.014610290527344 C 138.34042358398438 206.44715881347656 210.9290008544922 125.34982299804688 284.26959228515625 46.96019744873047 C 373.3289489746094 -51.055233001708984 378.16278076171875 -27.550474166870117 479.6067199707031 -37.41419982910156"/>
    <path stroke-width="0" fill="rgb(18, 13, 0)" opacity="0.61896235" stroke="rgb(245, 97, 201)" stroke-opacity="1.0" stroke-linecap="round" stroke-linejoin="round" d="M 404.1573181152344 302.89453125 C 527.541015625 329.113037109375 566.0973510742188 361.91168212890625 271.82550048828125 355.4714050292969 C 19.989713668823242 256.11578369140625 -12.067597389221191 242.435791015625 78.82524108886719 241.33592224121094 C 288.3461608886719 33.54166793823242 134.8637237548828 151.05889892578125 148.15476989746094 -120.00553894042969 C 195.45339965820312 30.483749389648438 214.00393676757812 37.161109924316406 404.1573181152344 302.89453125"/>
    <path stroke-width="0" fill="rgb(67, 43, 12)" opacity="0.6075555" stroke="rgb(144, 236, 18)" stroke-opacity="1.0" stroke-linecap="round" stroke-linejoin="round" d="M 480.7787780761719 258.4327392578125 C 260.6982116699219 73.28033447265625 506.4759826660156 172.94619750976562 163.11056518554688 131.67723083496094 C 112.2531967163086 132.64596557617188 111.50415802001953 126.41581726074219 87.8807144165039 132.3319091796875 C 52.465694427490234 60.331642150878906 30.256744384765625 7.9772138595581055 71.99454498291016 -27.6444149017334 C 224.70016479492188 10.044656753540039 290.61529541015625 -23.800067901611328 480.7787780761719 258.4327392578125"/>
    <path stroke-width="0" fill="rgb(90, 81, 65)" opacity="1.0" stroke="rgb(5, 212, 198)" stroke-opacity="1.0" stroke-linecap="round" stroke-linejoin="round" d="M 575.3033447265625 335.3412170410156 C 562.7560424804688 821.1265258789062 534.8047485351562 799.7589111328125 126.11996459960938 771.6053466796875 C -33.62267303466797 707.54345703125 -40.083839416503906 693.3524780273438 -42.9892578125 257.95355224609375 C 58.4715461730957 274.20281982421875 313.48858642578125 274.2843322753906 526.3307495117188 245.48951721191406 C 465.1056823730469 310.99981689453125 503.60614013671875 256.9519958496094 575.3033447265625 335.3412170410156"/>
    <path stroke-width="0" fill="rgb(190, 168, 26)" opacity="0.11443933" stroke="rgb(249, 203, 117)" stroke-opacity="1.0" stroke-linecap="round" stroke-linejoin="round" d="M 349.72021484375 77.08740234375 C 374.1261901855469 71.01722717285156 369.6293640136719 74.03938293457031 292.51141357421875 94.09814453125 C 266.0112609863281 85.12291717529297 261.3948059082031 50.25774002075195 242.38963317871094 39.65483856201172 C 241.74798583984375 -38.2492561340332 250.57534790039062 -43.680538177490234 256.82342529296875 -33.008934020996094 C 311.0456237792969 -17.147029876708984 314.0893249511719 -5.803673267364502 349.72021484375 77.08740234375"/>
    <path stroke-width="0" fill="rgb(153, 139, 99)" opacity="0.9958305" stroke="rgb(30, 163, 36)" stroke-opacity="1.0" stroke-linecap="round" stroke-linejoin="round" d="M 552.6045532226562 166.55543518066406 C 564.546630859375 220.42498779296875 571.371337890625 253.30804443359375 565.7230224609375 312.2619323730469 C 200.5867462158203 299.56878662109375 323.6602478027344 260.5606689453125 255.15757751464844 168.00071716308594 C 450.119384765625 106.6171646118164 350.2900695800781 14.425525665283203 504.26226806640625 -42.972312927246094 C 539.6154174804688 -74.75100708007812 551.2422485351562 -82.05245208740234 552.6045532226562 166.55543518066406"/>
    <path stroke-width="0" fill="rgb(244, 238, 135)" opacity="0.9798645" stroke="rgb(133, 105, 67)" stroke-opacity="1.0" stroke-linecap="round" stroke-linejoin="round" d="M 316.8132629394531 40.09703063964844 C 305.6055908203125 14.134750366210938 290.11529541015625 49.681026458740234 228.40347290039062 108.37871551513672 C 184.6919708251953 54.043663024902344 223.4722442626953 27.42177963256836 220.731689453125 10.432524681091309 C 204.23391723632812 -24.563655853271484 211.17730712890625 -32.108089447021484 294.0384826660156 -45.37184143066406 C 313.7422790527344 -47.08181381225586 359.6258850097656 5.060009479522705 316.8132629394531 40.09703063964844"/>
    <path stroke-width="0" fill="rgb(244, 236, 126)" opacity="0.9980574" stroke="rgb(116, 144, 4)" stroke-opacity="1.0" stroke-linecap="round" stroke-linejoin="round" d="M 133.45391845703125 1.4546908140182495 C 70.67967987060547 58.65449523925781 48.22642517089844 79.25414276123047 3.856156587600708 121.70648193359375 C -41.185142517089844 139.10186767578125 -41.331111907958984 115.63666534423828 -40.837860107421875 30.064653396606445 C -39.393184661865234 -36.60148239135742 -32.11475372314453 -41.29253005981445 68.9892578125 -40.589298248291016 C 129.3471221923828 -41.494693756103516 146.3062286376953 -62.2752571105957 133.45391845703125 1.4546908140182495"/>
    <path stroke-width="0" fill="rgb(255, 255, 227)" opacity="1.0" stroke="rgb(156, 157, 240)" stroke-opacity="1.0" stroke-linecap="round" stroke-linejoin="round" d="M 264.65557861328125 402.3271789550781 C 151.86277770996094 399.9985046386719 -350.0859375 438.0484619140625 260.5062561035156 405.2309265136719 C 58.23081970214844 459.64959716796875 183.47967529296875 391.76593017578125 -65.05084991455078 435.6172180175781 C 64.48902130126953 413.8136291503906 338.8828430175781 429.4058532714844 196.4578094482422 428.15728759765625 C -116.30427551269531 422.931640625 138.96128845214844 452.87322998046875 264.65557861328125 402.3271789550781"/>
    <path stroke-width="0" fill="rgb(233, 232, 191)" opacity="0.7242274" stroke="rgb(91, 111, 177)" stroke-opacity="1.0" stroke-linecap="round" stroke-linejoin="round" d="M 417.8172607421875 472.5422058105469 C 480.0937805175781 500.0585632324219 532.4983520507812 459.91192626953125 302.85906982421875 469.45257568359375 C 314.2933654785156 483.3841247558594 480.1200256347656 388.92340087890625 309.5787048339844 474.6905822753906 C 413.0791320800781 360.0389404296875 425.3172607421875 441.990478515625 376.380615234375 413.28692626953125 C 409.9986877441406 434.4910583496094 420.857666015625 425.05609130859375 417.8172607421875 472.5422058105469"/>
    <path stroke-width="0" fill="rgb(254, 254, 215)" opacity="0.9972922" stroke="rgb(170, 171, 53)" stroke-opacity="1.0" stroke-linecap="round" stroke-linejoin="round" d="M 153.8000946044922 299.418212890625 C 187.94903564453125 277.5795593261719 347.25537109375 285.7326354980469 304.6887512207031 293.958984375 C -121.85789489746094 322.48260498046875 24.9698429107666 302.724365234375 144.73744201660156 298.7569885253906 C 181.98147583007812 293.4540710449219 191.95330810546875 281.0669250488281 300.8673400878906 279.9349365234375 C 336.1624755859375 303.6126403808594 197.88864135742188 282.3497314453125 153.8000946044922 299.418212890625"/>
    <path stroke-width="0" fill="rgb(249, 255, 166)" opacity="0.994921" stroke="rgb(80, 92, 145)" stroke-opacity="1.0" stroke-linecap="round" stroke-linejoin="round" d="M 366.0972595214844 361.5498962402344 C 406.12652587890625 426.9302673339844 473.7021789550781 503.0640869140625 409.3401794433594 461.3289489746094 C 336.3215026855469 389.6552734375 374.2538146972656 419.3881530761719 331.8160400390625 358.19024658203125 C 92.9107894897461 -3.324394941329956 155.83702087402344 42.03425216674805 292.1981201171875 262.020263671875 C 350.8409118652344 349.13140869140625 363.2162780761719 371.0716247558594 366.0972595214844 361.5498962402344"/>
    <path stroke-width="0" fill="rgb(255, 254, 224)" opacity="0.98017734" stroke="rgb(252, 26, 53)" stroke-opacity="1.0" stroke-linecap="round" stroke-linejoin="round" d="M 37.09069061279297 287.9365539550781 C 170.55152893066406 288.9176330566406 147.71942138671875 284.49951171875 100.44853973388672 293.5605163574219 C 155.35545349121094 292.212890625 179.31179809570312 282.48651123046875 79.3551025390625 317.093994140625 C 131.0523223876953 313.0852355957031 93.16059875488281 279.70452880859375 287.9096984863281 289.37060546875 C 123.82811737060547 267.287353515625 68.00768280029297 317.5073547363281 37.09069061279297 287.9365539550781"/>
    <path stroke-width="0" fill="rgb(254, 249, 139)" opacity="0.9154959" stroke="rgb(166, 64, 118)" stroke-opacity="1.0" stroke-linecap="round" stroke-linejoin="round" d="M 452.5616760253906 493.8918151855469 C 452.1973876953125 524.7689819335938 250.78878784179688 406.4278869628906 318.5115051269531 837.2596435546875 C 98.09730529785156 625.7752685546875 1.9942020177841187 715.0679321289062 -37.076942443847656 480.646240234375 C 352.11517333984375 493.9619445800781 20.17322540283203 483.68499755859375 461.8755798339844 476.14898681640625 C 237.75392150878906 455.7533264160156 145.7054901123047 516.3659057617188 452.5616760253906 493.8918151855469"/>
    <path stroke-width="0" fill="rgb(250, 255, 164)" opacity="0.97208214" stroke="rgb(40, 28, 167)" stroke-opacity="1.0" stroke-linecap="round" stroke-linejoin="round" d="M 462.69512939453125 501.0223693847656 C 486.2560729980469 554.7617797851562 467.8167419433594 587.476806640625 357.8236083984375 507.75421142578125 C 445.3305969238281 509.9386901855469 420.8094482421875 501.6916809082031 435.42626953125 508.05731201171875 C 429.8985900878906 465.2061462402344 380.1919250488281 531.0449829101562 417.12396240234375 442.2598571777344 C 431.27587890625 455.92987060546875 443.2522888183594 478.76617431640625 462.69512939453125 501.0223693847656"/>
    <path stroke-width="0" fill="rgb(246, 245, 155)" opacity="0.9921138" stroke="rgb(50, 94, 209)" stroke-opacity="1.0" stroke-linecap="round" stroke-linejoin="round" d="M 58.472991943359375 287.0378723144531 C 119.01458740234375 307.25604248046875 55.75082778930664 284.1413879394531 58.31339645385742 297.95050048828125 C -14.862730979919434 316.49554443359375 93.98357391357422 371.97393798828125 -27.91579818725586 345.1246032714844 C 16.106287002563477 321.4327087402344 25.653884887695312 298.8123779296875 99.60338592529297 228.14056396484375 C 266.6116027832031 52.68010711669922 239.74148559570312 117.11327362060547 58.472991943359375 287.0378723144531"/>
    <path stroke-width="0" fill="rgb(255, 255, 210)" opacity="1.0" stroke="rgb(213, 24, 248)" stroke-opacity="1.0" stroke-linecap="round" stroke-linejoin="round" d="M 397.5309143066406 347.56549072265625 C 178.13375854492188 349.0831298828125 317.2633972167969 343.3183288574219 168.74468994140625 369.9346618652344 C 454.900390625 349.864013671875 502.6977844238281 348.1272277832031 -29.53940773010254 328.0018615722656 C 253.62660217285156 354.7895202636719 321.0640869140625 336.0520324707031 327.72735595703125 349.4373474121094 C -223.63577270507812 392.6710205078125 -201.46861267089844 402.26470947265625 397.5309143066406 347.56549072265625"/>
    <path stroke-width="0" fill="rgb(254, 247, 131)" opacity="0.91343755" stroke="rgb(249, 154, 188)" stroke-opacity="1.0" stroke-linecap="round" stroke-linejoin="round" d="M 553.5133666992188 40.3731689453125 C 552.4935302734375 62.249732971191406 549.1754760742188 89.61187744140625 515.5320434570312 63.331722259521484 C 489.9764709472656 35.14262390136719 466.76983642578125 5.3622260093688965 450.5273132324219 -16.208316802978516 C 458.6605529785156 -32.80501174926758 478.185791015625 -51.93853759765625 511.93133544921875 -56.00844192504883 C 518.2630615234375 -25.75937271118164 528.6502075195312 -22.09929847717285 553.5133666992188 40.3731689453125"/>
    <path stroke-width="0" fill="rgb(247, 237, 134)" opacity="0.991556" stroke="rgb(72, 30, 75)" stroke-opacity="1.0" stroke-linecap="round" stroke-linejoin="round" d="M 425.50335693359375 3.877439498901367 C 406.2734375 28.27336883544922 392.3848876953125 43.8794059753418 357.7804260253906 74.38494110107422 C 342.19287109375 81.34021759033203 340.22222900390625 44.719486236572266 341.64776611328125 30.493799209594727 C 344.5231628417969 -20.51624298095703 352.1512756347656 -27.260210037231445 334.099609375 -132.17791748046875 C 347.85162353515625 -97.82978057861328 445.2018737792969 7.218432426452637 425.50335693359375 3.877439498901367"/>
    <path stroke-width="0" fill="rgb(247, 247, 150)" opacity="1.0" stroke="rgb(81, 105, 16)" stroke-opacity="1.0" stroke-linecap="round" stroke-linejoin="round" d="M 382.5098571777344 60.12841796875 C 380.1943054199219 60.012691497802734 371.4026794433594 129.3185577392578 358.40167236328125 93.31268310546875 C 340.82257080078125 100.22537231445312 398.1150207519531 50.71927261352539 379.9992370605469 49.98500061035156 C 354.2995300292969 28.40801239013672 402.0553283691406 4.183720588684082 375.0656433105469 87.28299713134766 C 455.38482666015625 -9.911133766174316 494.08929443359375 -73.4021987915039 382.5098571777344 60.12841796875"/>
    <path stroke-width="0" fill="rgb(243, 235, 123)" opacity="1.0" stroke="rgb(144, 67, 133)" stroke-opacity="1.0" stroke-linecap="round" stroke-linejoin="round" d="M 405.4427490234375 7.206326484680176 C 377.6697998046875 53.977195739746094 369.157470703125 58.387569427490234 359.76873779296875 66.65266418457031 C 339.46148681640625 70.93769073486328 333.85760498046875 51.361385345458984 301.23468017578125 18.075279235839844 C 239.29647827148438 15.703872680664062 264.55609130859375 -31.330991744995117 303.63360595703125 -31.95427894592285 C 406.0523376464844 -8.81321907043457 453.04254150390625 0.5751383900642395 405.4427490234375 7.206326484680176"/>
    <path stroke-width="0" fill="rgb(244, 237, 134)" opacity="1.0" stroke="rgb(146, 236, 81)" stroke-opacity="1.0" stroke-linecap="round" stroke-linejoin="round" d="M 382.7406311035156 29.657499313354492 C 416.0451354980469 25.334232330322266 387.768310546875 43.87016296386719 353.7755432128906 89.36101531982422 C 345.0986633300781 76.24655151367188 326.7798156738281 53.8520393371582 307.2716979980469 24.138460159301758 C 299.4498291015625 -16.077411651611328 355.90264892578125 97.66914367675781 359.3119812011719 57.60093688964844 C 408.6844787597656 35.82084655761719 406.7182922363281 0.1616075336933136 382.7406311035156 29.657499313354492"/>
    <path stroke-width="0" fill="rgb(254, 254, 155)" opacity="0.9147331" stroke="rgb(33, 182, 73)" stroke-opacity="1.0" stroke-linecap="round" stroke-linejoin="round" d="M 362.0396423339844 106.6446533203125 C 481.060546875 272.1113586425781 743.4071044921875 604.219482421875 385.85821533203125 194.1795196533203 C 404.79425048828125 96.85095977783203 260.7004699707031 205.6248321533203 362.7437438964844 107.64137268066406 C 275.0957336425781 -19.5145206451416 285.7733154296875 40.096988677978516 372.87567138671875 146.520751953125 C 249.68701171875 140.32640075683594 314.6207580566406 177.92977905273438 362.0396423339844 106.6446533203125"/>
    <path stroke-width="0" fill="rgb(247, 242, 193)" opacity="0.9368979" stroke="rgb(149, 5, 211)" stroke-opacity="1.0" stroke-linecap="round" stroke-linejoin="round" d="M 502.60748291015625 323.3590087890625 C 500.4667053222656 330.6177062988281 416.9500732421875 317.562744140625 384.5312805175781 330.8612060546875 C 466.8412170410156 302.0174255371094 475.60845947265625 318.7049255371094 440.1600646972656 312.4534912109375 C 444.2583312988281 314.351806640625 471.8777770996094 309.0042724609375 447.6494445800781 323.7106018066406 C 457.9214782714844 317.6953125 483.0574035644531 293.9938659667969 502.60748291015625 323.3590087890625"/>
    <path stroke-width="0" fill="rgb(181, 168, 117)" opacity="1.0" stroke="rgb(172, 68, 187)" stroke-opacity="1.0" stroke-linecap="round" stroke-linejoin="round" d="M 154.8875274658203 120.87098693847656 C 157.95355224609375 168.64602661132812 201.53443908691406 153.142822265625 91.54345703125 156.42071533203125 C -23.344480514526367 160.30039978027344 38.57890319824219 127.18507385253906 61.43632125854492 148.71499633789062 C 211.7388916015625 143.08575439453125 207.79083251953125 156.04605102539062 48.857791900634766 150.93162536621094 C 44.6428337097168 133.619140625 329.4717712402344 156.19979858398438 154.8875274658203 120.87098693847656"/>
    <path stroke-width="0" fill="rgb(255, 252, 151)" opacity="0.61584324" stroke="rgb(63, 146, 150)" stroke-opacity="1.0" stroke-linecap="round" stroke-linejoin="round" d="M 280.53948974609375 121.6801528930664 C 333.5780029296875 107.07317352294922 242.72604370117188 112.5740737915039 343.9171142578125 101.14201354980469 C 317.96502685546875 130.5643310546875 336.28216552734375 97.0001220703125 362.0411682128906 125.91728973388672 C 198.9565887451172 149.6064910888672 309.7792663574219 108.20637512207031 364.04486083984375 124.85978698730469 C 407.84368896484375 110.85615539550781 215.24984741210938 106.58271789550781 280.53948974609375 121.6801528930664"/>
    <path stroke-width="0" fill="rgb(217, 204, 132)" opacity="0.9993984" stroke="rgb(56, 242, 114)" stroke-opacity="1.0" stroke-linecap="round" stroke-linejoin="round" d="M 173.0086212158203 142.55056762695312 C 9.979484558105469 149.2334747314453 118.12616729736328 134.26361083984375 146.46243286132812 164.3891143798828 C -40.74106979370117 161.63150024414062 -42.959129333496094 169.86180114746094 155.42088317871094 167.67921447753906 C 98.76536560058594 147.95236206054688 201.51292419433594 133.498779296875 170.14442443847656 147.24057006835938 C 113.65528106689453 142.51499938964844 43.415157318115234 171.54368591308594 173.0086212158203 142.55056762695312"/>
    <path stroke-width="0" fill="rgb(246, 242, 133)" opacity="0.9949065" stroke="rgb(178, 75, 207)" stroke-opacity="1.0" stroke-linecap="round" stroke-linejoin="round" d="M 42.95205307006836 120.46421813964844 C 31.048341751098633 134.27516174316406 9.713493347167969 157.4490966796875 -12.465653419494629 188.37423706054688 C -30.34562110900879 200.8699188232422 -40.0773811340332 185.9390106201172 -31.624120712280273 151.00991821289062 C -20.95865821838379 137.80014038085938 3.184197425842285 138.69729614257812 7.042254447937012 127.26763153076172 C 41.492347717285156 106.90745544433594 46.05434799194336 86.456787109375 42.95205307006836 120.46421813964844"/>
    <path stroke-width="0" fill="rgb(246, 245, 143)" opacity="0.99845177" stroke="rgb(224, 148, 224)" stroke-opacity="1.0" stroke-linecap="round" stroke-linejoin="round" d="M 159.53150939941406 -13.634145736694336 C 35.15666580200195 137.75840759277344 13.9118070602417 143.7034454345703 -18.532873153686523 184.89080810546875 C 20.095640182495117 149.10635375976562 33.98447799682617 99.6390380859375 35.34893035888672 119.62787628173828 C 18.42608070373535 130.88436889648438 48.15735626220703 98.94120788574219 -14.139290809631348 145.4721221923828 C 23.158397674560547 109.40377044677734 111.9472427368164 23.567838668823242 159.53150939941406 -13.634145736694336"/>
    <path stroke-width="0" fill="rgb(240, 233, 142)" opacity="0.6710478" stroke="rgb(184, 127, 243)" stroke-opacity="1.0" stroke-linecap="round" stroke-linejoin="round" d="M 389.58056640625 59.15645217895508 C 365.4697265625 79.61418151855469 352.11602783203125 117.18787384033203 389.1404113769531 76.97883605957031 C 391.1549377441406 95.87053680419922 375.6159973144531 78.61115264892578 389.51190185546875 65.11974334716797 C 411.46978759765625 115.42281341552734 405.4542541503906 87.83517456054688 362.6834411621094 100.49993896484375 C 420.438232421875 94.34503936767578 403.6566162109375 115.0361557006836 389.58056640625 59.15645217895508"/>
    <path stroke-width="0" fill="rgb(230, 221, 115)" opacity="0.9466226" stroke="rgb(108, 154, 4)" stroke-opacity="1.0" stroke-linecap="round" stroke-linejoin="round" d="M 213.0059814453125 14.138938903808594 C 222.76773071289062 43.005462646484375 225.67465209960938 48.50560760498047 215.61138916015625 3.7706661224365234 C 204.53929138183594 2.4976062774658203 195.5833282470703 -3.4451088905334473 182.96095275878906 -5.211238861083984 C 139.98703002929688 -10.758345603942871 153.5654296875 -29.03264045715332 167.94268798828125 -32.17758560180664 C 200.89881896972656 -8.642111778259277 203.68435668945312 1.840793490409851 213.0059814453125 14.138938903808594"/>
    <path stroke-width="0" fill="rgb(28, 0, 1)" opacity="0.34393495" stroke="rgb(168, 73, 157)" stroke-opacity="1.0" stroke-linecap="round" stroke-linejoin="round" d="M 95.1950912475586 183.46168518066406 C -13.906732559204102 183.4906463623047 -73.94261169433594 213.59512329101562 131.68280029296875 194.36415100097656 C 103.91105651855469 232.2745361328125 -54.07982635498047 157.6185760498047 2.276129961013794 265.2064208984375 C -30.309900283813477 203.6856689453125 -9.954610824584961 191.26339721679688 12.993107795715332 151.927734375 C 26.796268463134766 197.876220703125 73.72100067138672 167.607177734375 95.1950912475586 183.46168518066406"/>
    <path stroke-width="0" fill="rgb(28, 16, 7)" opacity="0.83655995" stroke="rgb(34, 76, 145)" stroke-opacity="1.0" stroke-linecap="round" stroke-linejoin="round" d="M 118.35857391357422 110.3833999633789 C 110.5814208984375 52.2917366027832 76.88282775878906 86.785400390625 80.80047607421875 83.8421401977539 C 144.6020050048828 85.79151916503906 131.8381805419922 70.92272186279297 103.68963623046875 105.37200164794922 C 17.301298141479492 102.5865707397461 87.98001098632812 101.07090759277344 101.80690002441406 95.79716491699219 C 50.84075164794922 101.16921997070312 56.71836853027344 68.12696838378906 118.35857391357422 110.3833999633789"/>
    <path stroke-width="0" fill="rgb(250, 246, 141)" opacity="0.9715609" stroke="rgb(146, 166, 166)" stroke-opacity="1.0" stroke-linecap="round" stroke-linejoin="round" d="M 533.5274658203125 106.18031311035156 C 548.851806640625 124.78536224365234 548.7567138671875 149.9946746826172 524.9423217773438 144.2482452392578 C 496.3396911621094 96.71502685546875 480.8843078613281 72.23814392089844 468.1221618652344 42.74795913696289 C 432.231201171875 -34.475833892822266 463.1910705566406 17.42262840270996 500.7084045410156 67.70700073242188 C 517.0757446289062 80.91983032226562 520.0458984375 106.22383117675781 533.5274658203125 106.18031311035156"/>
    <path stroke-width="0" fill="rgb(254, 255, 161)" opacity="0.91099066" stroke="rgb(228, 93, 111)" stroke-opacity="1.0" stroke-linecap="round" stroke-linejoin="round" d="M 459.2994689941406 19.117258071899414 C 490.0791015625 49.02389144897461 489.1898498535156 69.01529693603516 485.4054870605469 51.81983184814453 C 487.77606201171875 60.62333679199219 486.9249572753906 51.67930603027344 480.319580078125 47.36335372924805 C 500.48101806640625 66.6241455078125 462.19305419921875 14.844563484191895 432.99664306640625 -21.352102279663086 C 477.3365783691406 68.76616668701172 486.5509338378906 80.08702850341797 459.2994689941406 19.117258071899414"/>
    <path stroke-width="0" fill="rgb(249, 246, 151)" opacity="1.0" stroke="rgb(205, 179, 25)" stroke-opacity="1.0" stroke-linecap="round" stroke-linejoin="round" d="M 228.92901611328125 49.462806701660156 C 249.72605895996094 70.7699966430664 246.3997802734375 115.4070053100586 205.3727569580078 111.67798614501953 C 191.20379638671875 92.74884796142578 208.0934600830078 115.12118530273438 224.1076202392578 105.70246887207031 C 195.37098693847656 51.858421325683594 117.03279876708984 -53.00638198852539 190.10536193847656 36.485694885253906 C 232.19760131835938 -22.122821807861328 250.08706665039062 25.098644256591797 228.92901611328125 49.462806701660156"/>
    <path stroke-width="0" fill="rgb(254, 252, 139)" opacity="0.95984477" stroke="rgb(182, 254, 38)" stroke-opacity="1.0" stroke-linecap="round" stroke-linejoin="round" d="M 564.2273559570312 453.60052490234375 C 546.2437133789062 524.5918579101562 541.465087890625 532.9894409179688 480.09393310546875 538.989013671875 C 482.0622863769531 545.232666015625 482.3915710449219 542.3909912109375 475.4198913574219 507.5361022949219 C 487.6812744140625 482.2748718261719 484.68115234375 430.7120056152344 520.279296875 426.7165222167969 C 569.4122924804688 420.51904296875 572.0601196289062 431.80999755859375 564.2273559570312 453.60052490234375"/>
    <path stroke-width="0" fill="rgb(253, 254, 143)" opacity="0.95106286" stroke="rgb(41, 156, 31)" stroke-opacity="1.0" stroke-linecap="round" stroke-linejoin="round" d="M 550.8826293945312 346.6493225097656 C 576.8021240234375 307.5536193847656 528.1555786132812 344.2030334472656 444.9552307128906 336.10247802734375 C 535.7716064453125 343.3033142089844 429.6934509277344 356.6207275390625 426.6445007324219 339.55511474609375 C 478.59637451171875 334.62615966796875 499.42205810546875 344.77777099609375 463.0271301269531 347.7732849121094 C 472.8463439941406 345.827392578125 483.59368896484375 359.5472412109375 550.8826293945312 346.6493225097656"/>
    <path stroke-width="0" fill="rgb(241, 234, 155)" opacity="1.0" stroke="rgb(205, 145, 103)" stroke-opacity="1.0" stroke-linecap="round" stroke-linejoin="round" d="M 445.81048583984375 249.44989013671875 C 429.52545166015625 253.02239990234375 387.7691955566406 234.74063110351562 414.5049133300781 239.8314666748047 C 395.0411376953125 211.95286560058594 357.06646728515625 256.2542419433594 343.872802734375 216.61846923828125 C 315.4209289550781 204.6680908203125 409.7235107421875 209.23277282714844 384.8258361816406 208.37811279296875 C 394.6727600097656 223.661376953125 400.1405029296875 185.9257049560547 445.81048583984375 249.44989013671875"/>
    <path stroke-width="0" fill="rgb(255, 255, 167)" opacity="0.93161434" stroke="rgb(177, 115, 184)" stroke-opacity="1.0" stroke-linecap="round" stroke-linejoin="round" d="M 241.21771240234375 117.16226196289062 C 204.71482849121094 157.31700134277344 225.939697265625 111.4166259765625 278.0976867675781 125.9532699584961 C 217.75125122070312 131.83741760253906 244.14138793945312 103.4273452758789 268.38995361328125 117.11750793457031 C 221.70570373535156 117.1605453491211 270.3637390136719 138.85072326660156 209.49429321289062 135.6162872314453 C 269.3690185546875 67.01892852783203 385.2796936035156 -40.60771560668945 241.21771240234375 117.16226196289062"/>
    <path stroke-width="0" fill="rgb(249, 249, 205)" opacity="0.8762611" stroke="rgb(248, 218, 2)" stroke-opacity="1.0" stroke-linecap="round" stroke-linejoin="round" d="M 362.4190979003906 438.7785949707031 C 110.77420043945312 449.7525634765625 358.17608642578125 390.2514343261719 347.4971008300781 428.08087158203125 C 218.73329162597656 434.79266357421875 160.30288696289062 444.93853759765625 341.7666015625 433.85125732421875 C 259.830322265625 464.6952209472656 389.6226501464844 416.8900451660156 335.2937927246094 444.8497314453125 C -282.5265197753906 487.32220458984375 -106.55729675292969 463.8692321777344 362.4190979003906 438.7785949707031"/>
    <path stroke-width="0" fill="rgb(240, 238, 176)" opacity="0.99651325" stroke="rgb(186, 43, 132)" stroke-opacity="1.0" stroke-linecap="round" stroke-linejoin="round" d="M 139.23643493652344 197.56021118164062 C 272.5799255371094 163.94033813476562 -30.35915184020996 228.0452117919922 235.09207153320312 209.226806640625 C 213.78076171875 162.04705810546875 365.37371826171875 118.42900085449219 222.4432373046875 187.19815063476562 C 94.97368621826172 193.29127502441406 188.79330444335938 191.95008850097656 297.5646057128906 191.88079833984375 C 207.1771697998047 178.08998107910156 305.91998291015625 202.412353515625 139.23643493652344 197.56021118164062"/>
    <path stroke-width="0" fill="rgb(36, 22, 21)" opacity="0.8895677" stroke="rgb(50, 4, 202)" stroke-opacity="1.0" stroke-linecap="round" stroke-linejoin="round" d="M 248.07281494140625 357.9597473144531 C 44.25564193725586 347.09478759765625 33.364749908447266 352.7522277832031 194.71353149414062 351.9446105957031 C 156.60565185546875 359.3658142089844 163.44549560546875 294.1246032714844 86.99951934814453 342.3521423339844 C 291.74737548828125 338.0156555175781 346.97021484375 333.7887268066406 115.10582733154297 349.8011169433594 C 16.47334861755371 370.12359619140625 68.0316162109375 370.8944091796875 248.07281494140625 357.9597473144531"/>
    <path stroke-width="0" fill="rgb(255, 255, 220)" opacity="1.0" stroke="rgb(88, 236, 179)" stroke-opacity="1.0" stroke-linecap="round" stroke-linejoin="round" d="M 455.7279052734375 402.5567626953125 C 85.75072479248047 407.7085876464844 291.19195556640625 396.3838806152344 330.5681457519531 401.1916809082031 C 365.43243408203125 420.38787841796875 374.0010681152344 386.22412109375 333.9118347167969 401.2698669433594 C 401.6201477050781 407.3045654296875 356.6319580078125 399.63873291015625 364.5696105957031 409.7620849609375 C -173.75030517578125 436.8299865722656 26.535541534423828 418.74542236328125 455.7279052734375 402.5567626953125"/>
    <path stroke-width="0" fill="rgb(255, 255, 221)" opacity="0.59170985" stroke="rgb(41, 158, 147)" stroke-opacity="1.0" stroke-linecap="round" stroke-linejoin="round" d="M 500.3155212402344 309.22637939453125 C 483.5559387207031 314.2629089355469 480.21990966796875 315.5901794433594 502.1399841308594 308.35430908203125 C 480.99334716796875 319.4473571777344 454.6716613769531 304.85992431640625 372.2663269042969 322.9743347167969 C 396.03668212890625 351.6991882324219 478.2983703613281 308.7658386230469 544.6390991210938 331.99920654296875 C 447.16717529296875 310.361328125 494.27008056640625 324.99658203125 500.3155212402344 309.22637939453125"/>
    <path stroke-width="0" fill="rgb(248, 245, 203)" opacity="0.8967727" stroke="rgb(238, 156, 136)" stroke-opacity="1.0" stroke-linecap="round" stroke-linejoin="round" d="M 176.10836791992188 387.597412109375 C 243.5705108642578 415.2545166015625 123.29823303222656 359.66400146484375 88.83529663085938 395.0628967285156 C 414.97454833984375 377.98468017578125 464.2865295410156 360.033203125 48.15693664550781 382.0338439941406 C 237.44467163085938 405.2591857910156 461.3199157714844 374.0263366699219 300.4189147949219 380.9343566894531 C 141.11668395996094 377.42852783203125 106.22184753417969 383.52496337890625 176.10836791992188 387.597412109375"/>
    <path stroke-width="0" fill="rgb(255, 255, 213)" opacity="1.0" stroke="rgb(186, 79, 101)" stroke-opacity="1.0" stroke-linecap="round" stroke-linejoin="round" d="M 105.25635528564453 442.65087890625 C 40.35161209106445 426.6682434082031 47.210670471191406 443.5917663574219 -49.62796401977539 431.24346923828125 C 102.77737426757812 436.3395690917969 -4.315268039703369 422.3564453125 98.62918853759766 440.66265869140625 C 333.0856628417969 429.9314270019531 348.7375183105469 421.1407165527344 45.14820861816406 440.0550231933594 C -24.72994613647461 439.7738342285156 -145.0327911376953 450.7102355957031 105.25635528564453 442.65087890625"/>
    <path stroke-width="0" fill="rgb(255, 255, 237)" opacity="1.0" stroke="rgb(47, 240, 188)" stroke-opacity="1.0" stroke-linecap="round" stroke-linejoin="round" d="M 142.14486694335938 397.7130432128906 C 32.86449432373047 389.0852355957031 141.51901245117188 376.12445068359375 -93.14478302001953 389.190185546875 C 8.72457504272461 390.201416015625 212.5833740234375 378.35430908203125 -22.518783569335938 408.7318115234375 C 396.9791564941406 393.409912109375 302.2110900878906 390.19085693359375 -95.16127014160156 399.85791015625 C 292.54449462890625 378.0710754394531 -119.69656372070312 409.88671875 142.14486694335938 397.7130432128906"/>
    <path stroke-width="0" fill="rgb(244, 244, 213)" opacity="1.0" stroke="rgb(57, 64, 14)" stroke-opacity="1.0" stroke-linecap="round" stroke-linejoin="round" d="M 102.04280090332031 236.31671142578125 C 133.4652862548828 229.12384033203125 87.84465789794922 228.1358642578125 156.68392944335938 229.80186462402344 C 248.0937042236328 239.61874389648438 51.39667892456055 230.35305786132812 94.13099670410156 241.32069396972656 C 348.7929382324219 229.70924377441406 316.56005859375 245.46546936035156 104.01993560791016 244.99989318847656 C 71.36668395996094 231.71690368652344 111.52230072021484 238.42892456054688 102.04280090332031 236.31671142578125"/>
    <path stroke-width="0" fill="rgb(248, 247, 209)" opacity="1.0" stroke="rgb(79, 177, 96)" stroke-opacity="1.0" stroke-linecap="round" stroke-linejoin="round" d="M 262.097412109375 252.9058380126953 C 142.21310424804688 266.119140625 52.6619987487793 252.01116943359375 83.9256362915039 263.8503723144531 C 355.37017822265625 265.19207763671875 182.7981414794922 256.2228088378906 40.352935791015625 284.98162841796875 C 352.0085144042969 276.1731262207031 312.43646240234375 261.8857421875 140.19532775878906 270.1004638671875 C 262.88250732421875 258.1075744628906 340.5266418457031 263.6972961425781 262.097412109375 252.9058380126953"/>
    <path stroke-width="0" fill="rgb(0, 0, 8)" opacity="0.9315806" stroke="rgb(6, 17, 173)" stroke-opacity="1.0" stroke-linecap="round" stroke-linejoin="round" d="M 208.4707794189453 49.390926361083984 C 82.67418670654297 -88.35062408447266 213.70431518554688 64.2001953125 246.74386596679688 97.75093841552734 C 189.29205322265625 56.49272537231445 176.7830810546875 32.56089401245117 205.8015594482422 74.84599304199219 C 249.27919006347656 137.4258575439453 226.87840270996094 123.5680160522461 182.79039001464844 44.9984130859375 C 227.28627014160156 85.29484558105469 288.1282653808594 134.15318298339844 208.4707794189453 49.390926361083984"/>
    <path stroke-width="0" fill="rgb(96, 81, 62)" opacity="1.0" stroke="rgb(136, 228, 252)" stroke-opacity="1.0" stroke-linecap="round" stroke-linejoin="round" d="M 508.1817932128906 437.3474426269531 C 486.4477233886719 500.12432861328125 467.7384338378906 544.100341796875 480.30181884765625 532.55078125 C 439.4397277832031 473.66949462890625 421.72113037109375 450.5682067871094 423.87664794921875 452.0506896972656 C 381.6851806640625 394.8807067871094 340.53271484375 332.5299072265625 331.1402282714844 320.77490234375 C 521.8660278320312 374.72412109375 439.4435729980469 394.0853576660156 508.1817932128906 437.3474426269531"/>
    <path stroke-width="0" fill="rgb(242, 235, 126)" opacity="1.0" stroke="rgb(169, 67, 5)" stroke-opacity="1.0" stroke-linecap="round" stroke-linejoin="round" d="M 313.4075927734375 16.547565460205078 C 227.55288696289062 94.24305725097656 248.58534240722656 88.84178924560547 218.16502380371094 54.252586364746094 C 196.98033142089844 36.69047164916992 172.20484924316406 12.931233406066895 151.52589416503906 -18.84330177307129 C 146.280517578125 -49.056488037109375 149.97926330566406 -52.59360122680664 187.0181884765625 -36.208648681640625 C 286.1880798339844 -86.8214111328125 224.16033935546875 31.119672775268555 313.4075927734375 16.547565460205078"/>
    <path stroke-width="0" fill="rgb(111, 93, 70)" opacity="1.0" stroke="rgb(81, 97, 150)" stroke-opacity="1.0" stroke-linecap="round" stroke-linejoin="round" d="M 287.0260314941406 263.2396240234375 C 446.5939025878906 314.4752502441406 459.8426818847656 353.4476318359375 354.725341796875 348.4560241699219 C 318.4239807128906 279.2161865234375 316.94708251953125 315.4577941894531 320.35565185546875 277.1771545410156 C 379.05535888671875 200.88729858398438 190.94866943359375 275.93603515625 309.4295654296875 181.76693725585938 C 400.9318542480469 337.3196105957031 358.0210876464844 260.2592468261719 287.0260314941406 263.2396240234375"/>
    <path stroke-width="0" fill="rgb(164, 146, 108)" opacity="0.9230001" stroke="rgb(160, 222, 69)" stroke-opacity="1.0" stroke-linecap="round" stroke-linejoin="round" d="M 219.54302978515625 102.38699340820312 C 221.41822814941406 173.8117218017578 106.8967514038086 92.8801498413086 57.0404052734375 149.7308349609375 C 98.481689453125 79.30834197998047 95.53571319580078 80.9211654663086 68.32611846923828 133.61233520507812 C 93.11377716064453 147.16159057617188 93.23908233642578 124.55880737304688 61.57963562011719 101.28804779052734 C 181.0963134765625 -26.3549861907959 118.45195007324219 -38.46205139160156 219.54302978515625 102.38699340820312"/>
    <path stroke-width="0" fill="rgb(255, 255, 230)" opacity="0.939679" stroke="rgb(47, 242, 175)" stroke-opacity="1.0" stroke-linecap="round" stroke-linejoin="round" d="M 265.1943054199219 388.1775817871094 C 261.2206726074219 381.44940185546875 275.8291015625 361.9703674316406 157.79681396484375 380.84539794921875 C 336.925048828125 370.6587829589844 238.14129638671875 384.4263610839844 217.1768035888672 396.7418212890625 C 360.2351989746094 393.7948303222656 421.9525451660156 400.38916015625 237.00440979003906 387.4415588378906 C 244.39175415039062 384.22637939453125 253.7222900390625 389.9283142089844 265.1943054199219 388.1775817871094"/>
    <path stroke-width="0" fill="rgb(208, 192, 116)" opacity="0.9904433" stroke="rgb(241, 186, 64)" stroke-opacity="1.0" stroke-linecap="round" stroke-linejoin="round" d="M 551.9650268554688 172.89869689941406 C 535.4447021484375 220.70370483398438 415.2318115234375 180.9797821044922 481.2022705078125 185.77786254882812 C 442.1987609863281 179.56968688964844 411.6522216796875 186.9511260986328 433.6690979003906 179.3391571044922 C 626.9979858398438 174.9861602783203 607.64892578125 176.19471740722656 427.9423828125 188.4182586669922 C 437.8115234375 199.59678649902344 453.18218994140625 202.5073699951172 551.9650268554688 172.89869689941406"/>
    <path stroke-width="0" fill="rgb(216, 214, 142)" opacity="0.96246994" stroke="rgb(132, 6, 52)" stroke-opacity="1.0" stroke-linecap="round" stroke-linejoin="round" d="M 539.2981567382812 222.06805419921875 C 526.3782348632812 217.23854064941406 510.9013977050781 212.5086212158203 568.0386962890625 235.30108642578125 C 494.7621765136719 247.62338256835938 443.9778137207031 242.02557373046875 472.7210693359375 229.95155334472656 C 464.375732421875 227.14434814453125 539.2274780273438 228.17294311523438 541.4292602539062 226.98805236816406 C 506.6236877441406 234.1959686279297 524.5878295898438 228.59478759765625 539.2981567382812 222.06805419921875"/>
    <path stroke-width="0" fill="rgb(0, 0, 25)" opacity="0.6871521" stroke="rgb(95, 118, 70)" stroke-opacity="1.0" stroke-linecap="round" stroke-linejoin="round" d="M 165.1114044189453 80.22605895996094 C 173.9147186279297 48.430259704589844 158.9263916015625 33.99867630004883 138.90975952148438 46.191009521484375 C 187.3667755126953 27.499576568603516 181.54795837402344 35.70329284667969 153.7261199951172 -0.8089686036109924 C 179.86219787597656 52.744319915771484 182.16607666015625 16.36209487915039 140.8357696533203 46.73332977294922 C 163.5211639404297 47.426944732666016 177.06956481933594 50.94960021972656 165.1114044189453 80.22605895996094"/>
    <path stroke-width="0" fill="rgb(28, 17, 17)" opacity="0.79952663" stroke="rgb(220, 29, 131)" stroke-opacity="1.0" stroke-linecap="round" stroke-linejoin="round" d="M 124.83382415771484 348.7013854980469 C 137.6907196044922 352.005859375 77.85135650634766 342.0889892578125 164.1520233154297 325.6464538574219 C 66.38188934326172 321.5847473144531 -49.90179443359375 300.329345703125 125.58937072753906 310.6448059082031 C 165.55506896972656 307.8451232910156 256.6147766113281 301.76007080078125 118.25374603271484 305.8172912597656 C 106.08932495117188 339.6595764160156 103.7026138305664 381.43756103515625 124.83382415771484 348.7013854980469"/>
    <path stroke-width="0" fill="rgb(109, 88, 64)" opacity="1.0" stroke="rgb(182, 100, 144)" stroke-opacity="1.0" stroke-linecap="round" stroke-linejoin="round" d="M 54.69192123413086 266.89056396484375 C -11.47950553894043 320.23907470703125 -61.886451721191406 278.5159912109375 43.22954177856445 253.8658905029297 C -42.16267776489258 260.7838439941406 -44.040000915527344 268.6845397949219 -26.641311645507812 266.9934997558594 C 8.867279052734375 231.85885620117188 47.02417755126953 239.09112548828125 73.8233642578125 244.43592834472656 C 31.7855224609375 269.5452575683594 40.595237731933594 251.09364318847656 54.69192123413086 266.89056396484375"/>
    <path stroke-width="0" fill="rgb(176, 161, 105)" opacity="1.0" stroke="rgb(36, 124, 90)" stroke-opacity="1.0" stroke-linecap="round" stroke-linejoin="round" d="M 333.7736511230469 180.20608520507812 C 330.7399597167969 195.26612854003906 285.1761779785156 208.9100799560547 374.13787841796875 194.20176696777344 C 353.5565185546875 186.48199462890625 345.0560302734375 185.59637451171875 316.56683349609375 182.0281982421875 C 376.8401184082031 174.8829345703125 398.90570068359375 223.22918701171875 414.7373046875 205.01112365722656 C 394.1738586425781 176.02090454101562 335.95654296875 207.25692749023438 333.7736511230469 180.20608520507812"/>
    <path stroke-width="0" fill="rgb(255, 255, 217)" opacity="0.9771345" stroke="rgb(195, 190, 230)" stroke-opacity="1.0" stroke-linecap="round" stroke-linejoin="round" d="M 114.52354431152344 334.53472900390625 C 50.68144226074219 364.3793029785156 147.10690307617188 328.926513671875 350.87115478515625 327.395263671875 C 192.5264129638672 348.0732421875 54.488529205322266 327.8285217285156 115.01103973388672 340.1417541503906 C 115.97526550292969 401.3126525878906 113.8139419555664 381.97637939453125 178.7907257080078 378.0050964355469 C 109.88875579833984 367.57940673828125 115.85810089111328 408.52606201171875 114.52354431152344 334.53472900390625"/>
    <path stroke-width="0" fill="rgb(217, 214, 158)" opacity="0.9945692" stroke="rgb(140, 149, 245)" stroke-opacity="1.0" stroke-linecap="round" stroke-linejoin="round" d="M 341.4095153808594 167.47430419921875 C 321.9542541503906 157.03504943847656 195.65184020996094 218.01141357421875 316.1602478027344 196.8626708984375 C 279.7278137207031 120.2136459350586 334.0738830566406 165.3540802001953 219.63311767578125 186.9569549560547 C 343.237060546875 179.20399475097656 253.24703979492188 131.81639099121094 334.3709716796875 155.04220581054688 C 290.960205078125 125.73706817626953 260.55712890625 154.5829315185547 341.4095153808594 167.47430419921875"/>
    <path stroke-width="0" fill="rgb(3, 2, 4)" opacity="0.92441523" stroke="rgb(61, 25, 4)" stroke-opacity="1.0" stroke-linecap="round" stroke-linejoin="round" d="M 500.6880798339844 440.58563232421875 C 498.4630126953125 450.71575927734375 504.4678955078125 448.3317565917969 498.1520690917969 445.3139953613281 C 521.792236328125 381.1700439453125 530.7762451171875 384.4078369140625 496.44384765625 471.8343200683594 C 471.8608703613281 463.4045104980469 494.2723083496094 467.2405700683594 493.9734191894531 468.4346618652344 C 484.0316162109375 510.9842224121094 478.03045654296875 488.0166931152344 500.6880798339844 440.58563232421875"/>
    <path stroke-width="0" fill="rgb(51, 40, 41)" opacity="0.9799135" stroke="rgb(170, 200, 71)" stroke-opacity="1.0" stroke-linecap="round" stroke-linejoin="round" d="M 379.2751159667969 282.0368957519531 C 382.7423400878906 276.8227233886719 367.96905517578125 281.5353088378906 374.2183837890625 286.8827209472656 C 524.0546264648438 286.9737243652344 469.6726989746094 273.1595764160156 425.3494873046875 279.099609375 C 415.9749450683594 279.1564636230469 425.3037414550781 281.2186279296875 420.3985595703125 279.3807373046875 C 428.3753967285156 283.3385314941406 320.81878662109375 276.30511474609375 379.2751159667969 282.0368957519531"/>
    <path stroke-width="0" fill="rgb(64, 55, 46)" opacity="1.0" stroke="rgb(16, 123, 249)" stroke-opacity="1.0" stroke-linecap="round" stroke-linejoin="round" d="M 194.77818298339844 189.12525939941406 C 228.48802185058594 152.26806640625 222.75640869140625 187.2592315673828 173.85861206054688 187.27064514160156 C 173.3319854736328 203.37620544433594 136.02487182617188 166.61691284179688 211.20265197753906 173.8917694091797 C 208.119384765625 198.23451232910156 231.50537109375 174.74331665039062 211.8540802001953 181.05654907226562 C 203.87637329101562 194.33811950683594 176.8272247314453 175.50282287597656 194.77818298339844 189.12525939941406"/>
    <path stroke-width="0" fill="rgb(57, 59, 33)" opacity="0.9625239" stroke="rgb(86, 245, 59)" stroke-opacity="1.0" stroke-linecap="round" stroke-linejoin="round" d="M 261.9649353027344 395.38079833984375 C 253.57452392578125 385.2330627441406 226.39926147460938 380.27886962890625 246.8529510498047 387.4042663574219 C 335.48431396484375 386.9541015625 291.4151611328125 387.16278076171875 229.23739624023438 384.96551513671875 C 268.59552001953125 384.23211669921875 435.53839111328125 388.0939636230469 202.3755340576172 392.760009765625 C 246.2530517578125 381.1769104003906 245.21377563476562 381.9992370605469 261.9649353027344 395.38079833984375"/>
    <path stroke-width="0" fill="rgb(8, 2, 2)" opacity="0.6840793" stroke="rgb(240, 203, 160)" stroke-opacity="1.0" stroke-linecap="round" stroke-linejoin="round" d="M 234.8917236328125 382.91143798828125 C 216.99888610839844 397.3233337402344 186.6204833984375 396.4530029296875 115.71749877929688 396.6460876464844 C 196.0511474609375 378.1734313964844 161.25881958007812 379.7596130371094 237.75872802734375 380.3036804199219 C 243.21514892578125 413.6417236328125 202.8551483154297 393.071044921875 153.2314910888672 402.62548828125 C 209.2923126220703 404.72607421875 245.4678955078125 410.12603759765625 234.8917236328125 382.91143798828125"/>
    <path stroke-width="0" fill="rgb(255, 255, 217)" opacity="0.90711814" stroke="rgb(74, 216, 157)" stroke-opacity="1.0" stroke-linecap="round" stroke-linejoin="round" d="M 240.17149353027344 353.9722595214844 C 164.96339416503906 346.72674560546875 38.71385955810547 360.92034912109375 82.91210174560547 339.7887878417969 C 76.85420227050781 357.8731384277344 86.33345794677734 369.0329895019531 210.0469207763672 363.2018737792969 C 119.16180419921875 378.79473876953125 135.2474365234375 361.57568359375 71.14474487304688 354.1184997558594 C 94.01215362548828 360.3363952636719 110.73661804199219 362.5311279296875 240.17149353027344 353.9722595214844"/>
    <path stroke-width="0" fill="rgb(255, 255, 228)" opacity="0.8070663" stroke="rgb(88, 37, 250)" stroke-opacity="1.0" stroke-linecap="round" stroke-linejoin="round" d="M 446.1075439453125 497.4707946777344 C 360.5854187011719 492.2738342285156 357.3836669921875 502.5062255859375 347.3711242675781 501.57177734375 C 313.8450012207031 507.0221862792969 368.7750549316406 497.6878356933594 397.6780700683594 508.40985107421875 C 372.7694396972656 499.50567626953125 374.24896240234375 497.33001708984375 367.50146484375 492.9084167480469 C 371.5613708496094 498.96978759765625 346.8266296386719 505.55218505859375 446.1075439453125 497.4707946777344"/>
    <path stroke-width="0" fill="rgb(249, 246, 203)" opacity="0.9650476" stroke="rgb(126, 163, 93)" stroke-opacity="1.0" stroke-linecap="round" stroke-linejoin="round" d="M 197.49993896484375 218.04733276367188 C 198.66720581054688 192.14451599121094 149.7274169921875 203.9291534423828 182.9374542236328 208.39163208007812 C 256.3201599121094 248.58103942871094 245.18666076660156 200.2944793701172 221.5379638671875 180.71197509765625 C 243.7166290283203 196.5235595703125 217.61167907714844 178.9937286376953 251.79934692382812 231.5333251953125 C 107.57847595214844 234.4385986328125 263.4773864746094 220.87200927734375 197.49993896484375 218.04733276367188"/>
    <path stroke-width="0" fill="rgb(255, 254, 242)" opacity="0.9966407" stroke="rgb(209, 48, 130)" stroke-opacity="1.0" stroke-linecap="round" stroke-linejoin="round" d="M 150.59164428710938 198.82730102539062 C 118.21478271484375 227.31051635742188 58.94943618774414 220.42552185058594 246.0039520263672 220.09986877441406 C 189.3137969970703 196.7019500732422 185.82455444335938 212.79603576660156 167.6240234375 209.2772216796875 C 210.08680725097656 202.88262939453125 189.87364196777344 198.30050659179688 235.660888671875 216.4423828125 C 70.52124786376953 216.98171997070312 123.06048583984375 220.4783172607422 150.59164428710938 198.82730102539062"/>
    <path stroke-width="0" fill="rgb(151, 138, 94)" opacity="0.9421113" stroke="rgb(24, 219, 248)" stroke-opacity="1.0" stroke-linecap="round" stroke-linejoin="round" d="M 395.4988098144531 404.2463684082031 C 486.2336730957031 346.7044677734375 413.71697998046875 422.0118713378906 416.6315612792969 400.1512451171875 C 505.61505126953125 403.2425842285156 443.44549560546875 389.1932373046875 424.17730712890625 392.1032409667969 C 452.15106201171875 430.052490234375 472.09832763671875 356.60601806640625 416.1950988769531 368.11651611328125 C 576.0061645507812 398.3772888183594 418.361328125 354.8095703125 395.4988098144531 404.2463684082031"/>
    <path stroke-width="0" fill="rgb(193, 183, 120)" opacity="0.79711014" stroke="rgb(231, 197, 84)" stroke-opacity="1.0" stroke-linecap="round" stroke-linejoin="round" d="M 61.23839569091797 198.73252868652344 C 108.35576629638672 176.0395050048828 34.54690933227539 184.94509887695312 125.43306732177734 191.3597412109375 C 126.05795288085938 178.06231689453125 4.797365188598633 188.23248291015625 41.795677185058594 181.36964416503906 C 33.527286529541016 189.47459411621094 130.15093994140625 212.6685333251953 126.16321563720703 189.18460083007812 C 27.89619255065918 212.57159423828125 28.697946548461914 185.7436981201172 61.23839569091797 198.73252868652344"/>
    <path stroke-width="0" fill="rgb(255, 251, 216)" opacity="1.0" stroke="rgb(103, 59, 33)" stroke-opacity="1.0" stroke-linecap="round" stroke-linejoin="round" d="M 284.41796875 434.99798583984375 C 167.68931579589844 455.490234375 87.2120132446289 452.6850280761719 196.2173614501953 453.7807922363281 C 163.06275939941406 463.06060791015625 349.6927185058594 450.6448974609375 179.67518615722656 462.2893981933594 C 236.95018005371094 428.5078125 250.05580139160156 438.3260498046875 -2.0800254344940186 452.7967529296875 C -153.44970703125 464.57879638671875 99.52601623535156 454.4120788574219 284.41796875 434.99798583984375"/>
    <path stroke-width="0" fill="rgb(9, 3, 0)" opacity="0.47557902" stroke="rgb(185, 2, 196)" stroke-opacity="1.0" stroke-linecap="round" stroke-linejoin="round" d="M 346.77606201171875 377.8319396972656 C 258.857421875 388.3069152832031 247.09280395507812 382.2900695800781 306.3179931640625 387.9701843261719 C 274.8699645996094 381.1468505859375 263.0451354980469 386.6390075683594 291.70574951171875 389.1977844238281 C 262.2707824707031 378.8089599609375 260.2606201171875 377.03607177734375 200.4621124267578 382.1280822753906 C 217.86831665039062 398.66644287109375 294.6541442871094 368.98846435546875 346.77606201171875 377.8319396972656"/>
    <path stroke-width="0" fill="rgb(255, 253, 182)" opacity="0.8101285" stroke="rgb(20, 22, 171)" stroke-opacity="1.0" stroke-linecap="round" stroke-linejoin="round" d="M 258.6859130859375 158.9892578125 C 259.90045166015625 143.3392333984375 200.3153839111328 183.2738037109375 251.1190185546875 161.5259552001953 C 276.5438537597656 128.26239013671875 284.1181945800781 115.16275787353516 241.32659912109375 151.05889892578125 C 158.7698211669922 184.88168334960938 264.0614013671875 144.8126983642578 264.6210632324219 110.96714782714844 C 242.12835693359375 148.13131713867188 295.2729797363281 137.32542419433594 258.6859130859375 158.9892578125"/>
    <path stroke-width="0" fill="rgb(231, 221, 141)" opacity="0.6987578" stroke="rgb(107, 142, 219)" stroke-opacity="1.0" stroke-linecap="round" stroke-linejoin="round" d="M 327.5819396972656 82.58749389648438 C 341.7855529785156 101.16768646240234 291.2565002441406 102.38105010986328 305.2934265136719 68.5353012084961 C 354.8330993652344 77.1043701171875 265.8013610839844 61.007381439208984 314.32464599609375 94.55445861816406 C 277.04815673828125 94.34296417236328 289.20654296875 119.5389404296875 258.0592346191406 92.42042541503906 C 356.9499816894531 88.44090270996094 322.66925048828125 76.86445617675781 327.5819396972656 82.58749389648438"/>
    <path stroke-width="0" fill="rgb(55, 45, 39)" opacity="0.72801715" stroke="rgb(68, 33, 14)" stroke-opacity="1.0" stroke-linecap="round" stroke-linejoin="round" d="M 123.67418670654297 223.60662841796875 C 147.64036560058594 228.4347686767578 124.17677307128906 235.28529357910156 124.37398529052734 216.44288635253906 C 143.34243774414062 202.78298950195312 147.67098999023438 223.38047790527344 124.28785705566406 212.1776580810547 C 113.35417175292969 235.82444763183594 149.19859313964844 216.18222045898438 159.7533416748047 227.8376007080078 C 137.72103881835938 229.8899383544922 137.92079162597656 227.4130096435547 123.67418670654297 223.60662841796875"/>
    <path stroke-width="0" fill="rgb(168, 157, 115)" opacity="0.84952617" stroke="rgb(66, 116, 174)" stroke-opacity="1.0" stroke-linecap="round" stroke-linejoin="round" d="M 162.06231689453125 98.17125701904297 C 171.322509765625 27.45063591003418 160.2900390625 1.2590426206588745 132.1221466064453 16.1734619140625 C 134.18399047851562 49.12002944946289 149.78533935546875 57.783538818359375 132.3731231689453 21.338048934936523 C 157.21177673339844 19.542789459228516 153.53057861328125 16.59990119934082 141.6007080078125 57.75778579711914 C 198.76904296875 46.85421371459961 176.81289672851562 30.46623420715332 162.06231689453125 98.17125701904297"/>
    <path stroke-width="0" fill="rgb(253, 255, 214)" opacity="0.86640835" stroke="rgb(72, 96, 46)" stroke-opacity="1.0" stroke-linecap="round" stroke-linejoin="round" d="M 165.19168090820312 209.6926727294922 C 136.69363403320312 192.2054443359375 125.55638885498047 193.24142456054688 240.5106201171875 191.19773864746094 C 166.2165069580078 181.56118774414062 163.3266143798828 195.61268615722656 146.78875732421875 181.13768005371094 C 172.18997192382812 190.6441192626953 137.18292236328125 197.76992797851562 159.47607421875 199.8373565673828 C 126.74000549316406 190.48101806640625 138.8273162841797 219.77999877929688 165.19168090820312 209.6926727294922"/>
    <path stroke-width="0" fill="rgb(10, 4, 11)" opacity="0.807894" stroke="rgb(14, 177, 198)" stroke-opacity="1.0" stroke-linecap="round" stroke-linejoin="round" d="M 128.30789184570312 228.1896514892578 C 141.39321899414062 218.93896484375 270.6329040527344 232.90553283691406 246.5507354736328 220.2052001953125 C 123.80594635009766 217.99276733398438 89.9693832397461 228.80050659179688 133.3926239013672 227.8619384765625 C 105.28577423095703 206.87648010253906 145.0203399658203 219.58383178710938 244.1624298095703 214.00669860839844 C 121.26561737060547 209.47511291503906 120.73564910888672 213.04598999023438 128.30789184570312 228.1896514892578"/>
    <path stroke-width="0" fill="rgb(211, 197, 120)" opacity="0.84262544" stroke="rgb(66, 95, 149)" stroke-opacity="1.0" stroke-linecap="round" stroke-linejoin="round" d="M 479.4701843261719 224.30532836914062 C 605.0567626953125 223.61280822753906 459.8857421875 216.62330627441406 490.216064453125 221.79042053222656 C 490.1212463378906 219.6662139892578 469.2994079589844 217.59097290039062 475.9051818847656 222.0599822998047 C 506.75079345703125 229.56983947753906 461.8123779296875 220.42721557617188 490.2712097167969 231.7679443359375 C 457.4794616699219 226.30850219726562 481.8325500488281 236.6874542236328 479.4701843261719 224.30532836914062"/>
    <path stroke-width="0" fill="rgb(72, 58, 41)" opacity="0.8582699" stroke="rgb(94, 50, 117)" stroke-opacity="1.0" stroke-linecap="round" stroke-linejoin="round" d="M 423.0419006347656 261.2346496582031 C 413.5362854003906 259.0179748535156 426.959716796875 260.0675048828125 411.6202087402344 262.42486572265625 C 435.64471435546875 257.3362731933594 447.1794128417969 267.4163513183594 414.3159484863281 247.3466033935547 C 441.25946044921875 225.628173828125 476.06610107421875 295.6869812011719 409.9981384277344 242.61111450195312 C 345.17901611328125 298.60986328125 411.9839172363281 256.739990234375 423.0419006347656 261.2346496582031"/>
    <path stroke-width="0" fill="rgb(124, 107, 97)" opacity="0.7477847" stroke="rgb(203, 19, 132)" stroke-opacity="1.0" stroke-linecap="round" stroke-linejoin="round" d="M 111.64379119873047 233.62191772460938 C 159.22897338867188 211.85275268554688 173.49691772460938 247.2278289794922 195.97727966308594 234.34701538085938 C 188.65538024902344 214.11648559570312 196.38998413085938 231.50247192382812 205.53919982910156 220.66282653808594 C 197.37596130371094 228.7939453125 190.248291015625 216.03065490722656 156.36912536621094 228.02197265625 C 173.18051147460938 237.6353759765625 138.80259704589844 216.4718017578125 111.64379119873047 233.62191772460938"/>
    <path stroke-width="0" fill="rgb(184, 182, 120)" opacity="0.8393608" stroke="rgb(147, 244, 164)" stroke-opacity="1.0" stroke-linecap="round" stroke-linejoin="round" d="M 502.89788818359375 240.4783935546875 C 497.3639831542969 221.23684692382812 476.40130615234375 241.06275939941406 502.87469482421875 243.47898864746094 C 512.37060546875 221.3075714111328 473.8706359863281 248.08505249023438 480.1785888671875 229.82305908203125 C 477.8088684082031 231.07571411132812 519.3954467773438 242.58517456054688 534.0619506835938 249.56521606445312 C 437.6647033691406 205.98512268066406 456.3550720214844 252.21266174316406 502.89788818359375 240.4783935546875"/>
    <path stroke-width="0" fill="rgb(253, 250, 215)" opacity="0.9334592" stroke="rgb(109, 130, 136)" stroke-opacity="1.0" stroke-linecap="round" stroke-linejoin="round" d="M 323.07049560546875 324.28875732421875 C 260.22503662109375 321.3646545410156 173.39707946777344 335.4830017089844 184.89663696289062 332.8976745605469 C 95.2809829711914 320.1960144042969 100.26791381835938 347.55328369140625 281.9964294433594 311.1057434082031 C 338.0146484375 288.5914001464844 227.7884063720703 310.57275390625 113.72386932373047 308.3421325683594 C 109.143798828125 328.2276916503906 298.13348388671875 286.6229553222656 323.07049560546875 324.28875732421875"/>
    <path stroke-width="0" fill="rgb(228, 227, 170)" opacity="0.83858204" stroke="rgb(70, 32, 100)" stroke-opacity="1.0" stroke-linecap="round" stroke-linejoin="round" d="M 263.50518798828125 226.19627380371094 C 441.36175537109375 197.24366760253906 446.0977478027344 297.510986328125 340.3927001953125 245.45127868652344 C 366.07757568359375 212.95962524414062 312.3147888183594 203.6421661376953 339.2172546386719 214.3681640625 C 331.68426513671875 274.5730895996094 469.1669921875 243.2673797607422 383.2951354980469 232.8241729736328 C 336.6819763183594 204.97177124023438 386.47735595703125 243.53379821777344 263.50518798828125 226.19627380371094"/>
    <path stroke-width="0" fill="rgb(0, 0, 20)" opacity="0.6622723" stroke="rgb(47, 230, 138)" stroke-opacity="1.0" stroke-linecap="round" stroke-linejoin="round" d="M 300.3611755371094 485.7865295410156 C 251.6227264404297 473.5605773925781 240.77574157714844 467.5050048828125 353.16259765625 491.0821533203125 C 388.877197265625 469.3314514160156 349.06390380859375 484.35748291015625 285.74554443359375 491.47119140625 C 321.38031005859375 518.3573608398438 361.25250244140625 493.1123962402344 411.05206298828125 496.0943908691406 C 435.30859375 463.09649658203125 322.1334228515625 478.9226379394531 300.3611755371094 485.7865295410156"/>
    <path stroke-width="0" fill="rgb(248, 246, 154)" opacity="0.72179085" stroke="rgb(224, 116, 184)" stroke-opacity="1.0" stroke-linecap="round" stroke-linejoin="round" d="M 370.2095642089844 163.25108337402344 C 316.4652404785156 187.2050323486328 293.4053649902344 186.4641876220703 413.9346618652344 185.93601989746094 C 360.15325927734375 161.6548309326172 364.70648193359375 150.8126220703125 290.05059814453125 183.746826171875 C 357.1866760253906 211.71551513671875 485.8398132324219 198.25775146484375 378.9128723144531 168.61715698242188 C 297.6196594238281 151.92239379882812 270.14202880859375 172.0634765625 370.2095642089844 163.25108337402344"/>
    <path stroke-width="0" fill="rgb(15, 3, 0)" opacity="0.62657547" stroke="rgb(230, 175, 178)" stroke-opacity="1.0" stroke-linecap="round" stroke-linejoin="round" d="M 192.80409240722656 277.34625244140625 C 189.0712432861328 282.0562744140625 135.2059326171875 271.625732421875 279.4775695800781 272.0113220214844 C 291.3992919921875 280.0073547363281 258.0017395019531 270.71258544921875 206.31495666503906 282.0299072265625 C 236.19940185546875 276.84039306640625 256.5281066894531 275.8615417480469 210.01124572753906 282.6023864746094 C 98.3448715209961 288.4172668457031 159.41790771484375 274.3342590332031 192.80409240722656 277.34625244140625"/>
    <path stroke-width="0" fill="rgb(33, 17, 28)" opacity="0.7758858" stroke="rgb(192, 162, 61)" stroke-opacity="1.0" stroke-linecap="round" stroke-linejoin="round" d="M 147.0906524658203 253.312255859375 C 118.30868530273438 246.10946655273438 118.87560272216797 237.3280792236328 273.630126953125 251.6373748779297 C 167.05435180664062 252.38316345214844 151.65736389160156 248.44090270996094 157.52932739257812 254.3646240234375 C 163.83758544921875 249.86744689941406 61.375667572021484 257.9402770996094 131.8571319580078 244.66847229003906 C 141.4292755126953 260.24993896484375 134.01182556152344 249.2426300048828 147.0906524658203 253.312255859375"/>
    <path stroke-width="0" fill="rgb(29, 16, 18)" opacity="0.7978784" stroke="rgb(203, 244, 116)" stroke-opacity="1.0" stroke-linecap="round" stroke-linejoin="round" d="M 250.02398681640625 200.36398315429688 C 350.45416259765625 192.48858642578125 286.7322998046875 148.35528564453125 343.2174377441406 218.32717895507812 C 317.2748718261719 215.81593322753906 318.7785949707031 164.77792358398438 278.65399169921875 136.3718719482422 C 310.7314758300781 148.29981994628906 269.73699951171875 133.80238342285156 290.85064697265625 154.37762451171875 C 304.3485412597656 184.017333984375 330.0465393066406 169.98687744140625 250.02398681640625 200.36398315429688"/>
    <path stroke-width="0" fill="rgb(244, 241, 157)" opacity="0.6037215" stroke="rgb(218, 116, 242)" stroke-opacity="1.0" stroke-linecap="round" stroke-linejoin="round" d="M 379.1005859375 144.80917358398438 C 343.46734619140625 134.50210571289062 367.08544921875 162.05029296875 371.9718322753906 161.09231567382812 C 380.22723388671875 162.98533630371094 391.22381591796875 157.97003173828125 279.9629211425781 160.25682067871094 C 379.4558410644531 168.3380889892578 398.68487548828125 185.88372802734375 400.942138671875 167.61563110351562 C 351.07550048828125 165.66053771972656 342.6833190917969 127.48431396484375 379.1005859375 144.80917358398438"/>
    <path stroke-width="0" fill="rgb(56, 39, 33)" opacity="0.9377501" stroke="rgb(209, 231, 207)" stroke-opacity="1.0" stroke-linecap="round" stroke-linejoin="round" d="M 390.2810363769531 296.46136474609375 C 408.99200439453125 259.3560791015625 353.53009033203125 310.5303039550781 335.3226318359375 257.6920471191406 C 423.7973327636719 334.4703674316406 354.4144592285156 232.03309631347656 368.8289489746094 284.3541259765625 C 369.3454895019531 249.50450134277344 328.9220275878906 215.3246307373047 341.55517578125 216.65455627441406 C 390.3131408691406 286.2492370605469 414.7725830078125 316.0100402832031 390.2810363769531 296.46136474609375"/>
    <path stroke-width="0" fill="rgb(0, 0, 0)" opacity="0.5694107" stroke="rgb(160, 101, 15)" stroke-opacity="1.0" stroke-linecap="round" stroke-linejoin="round" d="M 274.14801025390625 291.7910461425781 C 229.0474853515625 262.2568664550781 150.56411743164062 295.01593017578125 214.9596405029297 287.5936584472656 C 305.9438781738281 289.2767639160156 243.9942169189453 287.4071044921875 247.18881225585938 276.33819580078125 C 223.73101806640625 269.71551513671875 232.83888244628906 274.73626708984375 198.65512084960938 280.5916442871094 C 170.858642578125 298.0478515625 209.61349487304688 290.9868469238281 274.14801025390625 291.7910461425781"/>
    <path stroke-width="0" fill="rgb(255, 253, 234)" opacity="0.9123237" stroke="rgb(65, 216, 8)" stroke-opacity="1.0" stroke-linecap="round" stroke-linejoin="round" d="M 209.43763732910156 313.0572204589844 C 205.41867065429688 308.78118896484375 49.58610534667969 319.07293701171875 170.5205535888672 321.137939453125 C 267.24749755859375 299.55316162109375 399.82861328125 323.9822998046875 214.26905822753906 316.82427978515625 C 196.79393005371094 301.3977966308594 208.97178649902344 307.072021484375 133.26678466796875 313.68084716796875 C 91.54618072509766 329.39068603515625 208.12594604492188 326.8367004394531 209.43763732910156 313.0572204589844"/>
    <path stroke-width="0" fill="rgb(246, 237, 154)" opacity="0.80690235" stroke="rgb(90, 90, 4)" stroke-opacity="1.0" stroke-linecap="round" stroke-linejoin="round" d="M 56.71363830566406 262.90234375 C 23.5921573638916 299.3240966796875 34.79169464111328 289.343505859375 -7.272829532623291 284.8710632324219 C 73.86515045166016 292.50653076171875 30.856456756591797 269.05810546875 -57.70222854614258 289.7279968261719 C -22.40900230407715 272.5179748535156 39.040958404541016 250.681396484375 56.243980407714844 253.1912384033203 C 82.94902038574219 243.78012084960938 93.66502380371094 228.17591857910156 56.71363830566406 262.90234375"/>
    <path stroke-width="0" fill="rgb(86, 76, 70)" opacity="0.7057603" stroke="rgb(102, 236, 25)" stroke-opacity="1.0" stroke-linecap="round" stroke-linejoin="round" d="M 218.01661682128906 238.5616455078125 C 233.62893676757812 210.7015380859375 230.21868896484375 202.69387817382812 232.0233612060547 209.70437622070312 C 220.09164428710938 213.4852294921875 209.2504119873047 221.9187774658203 217.6531219482422 176.98316955566406 C 211.34425354003906 213.91184997558594 212.90350341796875 208.56903076171875 240.49105834960938 217.292236328125 C 241.17849731445312 195.48550415039062 230.4447021484375 213.17526245117188 218.01661682128906 238.5616455078125"/>
    <path stroke-width="0" fill="rgb(255, 255, 207)" opacity="0.7313655" stroke="rgb(221, 115, 83)" stroke-opacity="1.0" stroke-linecap="round" stroke-linejoin="round" d="M 204.16001892089844 327.0009460449219 C 199.626953125 360.2948303222656 214.53475952148438 356.0706481933594 144.984375 355.1778869628906 C 260.61474609375 345.3062438964844 288.5871887207031 339.1221618652344 219.10682678222656 341.7783203125 C 179.65451049804688 360.4637145996094 163.80047607421875 359.5477600097656 384.2409362792969 365.9632873535156 C 162.50906372070312 371.63507080078125 205.80197143554688 369.0853271484375 204.16001892089844 327.0009460449219"/>
    <path stroke-width="0" fill="rgb(18, 11, 15)" opacity="0.7670187" stroke="rgb(156, 8, 3)" stroke-opacity="1.0" stroke-linecap="round" stroke-linejoin="round" d="M 283.97381591796875 388.56231689453125 C 186.9592742919922 387.64508056640625 167.93251037597656 376.51593017578125 245.29454040527344 389.3770751953125 C 257.8874816894531 391.1482849121094 221.1817169189453 385.43927001953125 177.69325256347656 384.24658203125 C 245.63140869140625 392.7461853027344 237.32786560058594 389.6544189453125 137.923828125 385.8739929199219 C 239.31517028808594 390.4803161621094 262.52349853515625 396.0204772949219 283.97381591796875 388.56231689453125"/>
    <path stroke-width="0" fill="rgb(255, 255, 205)" opacity="1.0" stroke="rgb(17, 64, 56)" stroke-opacity="1.0" stroke-linecap="round" stroke-linejoin="round" d="M 367.8801574707031 466.61248779296875 C -121.93911743164062 488.7485046386719 277.316162109375 485.8038330078125 305.26275634765625 467.86712646484375 C 221.26487731933594 457.0687255859375 132.6521759033203 472.21417236328125 117.22068786621094 466.5135803222656 C 215.10369873046875 451.4371032714844 204.51675415039062 467.04705810546875 322.0688171386719 453.2643127441406 C 271.66302490234375 445.6736755371094 32.67640686035156 473.9388122558594 367.8801574707031 466.61248779296875"/>
    <path stroke-width="0" fill="rgb(247, 243, 182)" opacity="0.9974724" stroke="rgb(33, 3, 29)" stroke-opacity="1.0" stroke-linecap="round" stroke-linejoin="round" d="M 69.90602111816406 496.3034362792969 C 61.178035736083984 485.18853759765625 86.5423812866211 481.1810302734375 53.97299575805664 491.463134765625 C 118.34626770019531 476.34332275390625 93.92159271240234 492.1164245605469 35.29426574707031 477.8393249511719 C 150.9171905517578 474.2275695800781 109.02145385742188 469.43023681640625 128.9173126220703 474.713134765625 C 115.36622619628906 486.2114562988281 54.982269287109375 477.1299133300781 69.90602111816406 496.3034362792969"/>
    <path stroke-width="0" fill="rgb(255, 255, 205)" opacity="1.0" stroke="rgb(248, 252, 104)" stroke-opacity="1.0" stroke-linecap="round" stroke-linejoin="round" d="M 180.54917907714844 464.46612548828125 C 150.41490173339844 459.20037841796875 169.75762939453125 463.7141418457031 141.52093505859375 464.2201843261719 C 166.8981170654297 462.7524108886719 174.31179809570312 460.3529968261719 -119.07505798339844 477.3879089355469 C 166.82015991210938 476.3167419433594 135.26385498046875 453.13507080078125 202.43850708007812 470.40802001953125 C 109.8226547241211 475.1672058105469 128.53378295898438 458.07183837890625 180.54917907714844 464.46612548828125"/>
    <path stroke-width="0" fill="rgb(254, 253, 208)" opacity="0.99781096" stroke="rgb(162, 125, 252)" stroke-opacity="1.0" stroke-linecap="round" stroke-linejoin="round" d="M 280.21087646484375 480.223388671875 C 265.0625305175781 510.4077453613281 290.49505615234375 487.4128112792969 449.4310302734375 486.6467590332031 C 409.847412109375 471.1094970703125 326.4602966308594 487.3558349609375 296.4653625488281 484.099609375 C 198.09837341308594 509.50140380859375 481.9100341796875 492.4252624511719 439.256103515625 480.40911865234375 C 229.17005920410156 498.9858703613281 217.38510131835938 481.5576477050781 280.21087646484375 480.223388671875"/>
    <path stroke-width="0" fill="rgb(243, 241, 196)" opacity="0.71411264" stroke="rgb(199, 73, 61)" stroke-opacity="1.0" stroke-linecap="round" stroke-linejoin="round" d="M 357.92266845703125 494.3158874511719 C 273.86785888671875 504.5286560058594 274.1914367675781 503.98577880859375 259.0379638671875 494.0108337402344 C 307.6041564941406 494.0803527832031 264.3424072265625 486.41082763671875 290.69085693359375 484.4110412597656 C 256.0644226074219 458.371826171875 421.1739196777344 448.37237548828125 275.5161437988281 461.195556640625 C 302.64898681640625 493.0592041015625 260.4972839355469 490.4154357910156 357.92266845703125 494.3158874511719"/>
    <path stroke-width="0" fill="rgb(21, 10, 14)" opacity="0.5389835" stroke="rgb(62, 169, 131)" stroke-opacity="1.0" stroke-linecap="round" stroke-linejoin="round" d="M 408.1956787109375 313.8437805175781 C 397.29248046875 303.32708740234375 389.7337341308594 281.5639343261719 433.4256591796875 351.729248046875 C 384.60662841796875 293.1141662597656 437.9198303222656 336.23785400390625 388.633544921875 312.2171630859375 C 412.216552734375 234.91995239257812 266.5096435546875 256.7945556640625 389.5798645019531 264.0872497558594 C 362.9038391113281 247.88375854492188 406.81097412109375 351.4329528808594 408.1956787109375 313.8437805175781"/>
    <path stroke-width="0" fill="rgb(145, 138, 106)" opacity="0.6249778" stroke="rgb(141, 73, 180)" stroke-opacity="1.0" stroke-linecap="round" stroke-linejoin="round" d="M 73.27360534667969 39.402931213378906 C 84.85624694824219 36.99406433105469 85.0635986328125 42.960628509521484 78.35810852050781 37.86818313598633 C 72.35018157958984 33.808815002441406 77.54460906982422 37.85166931152344 79.61093139648438 39.556793212890625 C 86.36767578125 40.530941009521484 93.75787353515625 41.107601165771484 90.60669708251953 40.97502136230469 C 95.36372375488281 43.674774169921875 76.478515625 36.23296356201172 73.27360534667969 39.402931213378906"/>
    <path stroke-width="0" fill="rgb(24, 21, 21)" opacity="0.741794" stroke="rgb(91, 211, 235)" stroke-opacity="1.0" stroke-linecap="round" stroke-linejoin="round" d="M 459.7392883300781 -27.894210815429688 C 456.9415283203125 -24.664813995361328 456.65679931640625 -10.771788597106934 452.0860290527344 -28.742382049560547 C 450.254638671875 -12.933823585510254 473.5867919921875 15.148904800415039 519.561279296875 68.65172576904297 C 448.35626220703125 26.375455856323242 437.55584716796875 -41.599246978759766 437.1101989746094 -21.04663848876953 C 482.0536193847656 -3.728738784790039 444.89324951171875 29.198225021362305 459.7392883300781 -27.894210815429688"/>
    <path stroke-width="0" fill="rgb(0, 0, 2)" opacity="0.97434217" stroke="rgb(59, 88, 207)" stroke-opacity="1.0" stroke-linecap="round" stroke-linejoin="round" d="M 62.65738296508789 64.45526123046875 C 54.09434509277344 35.15892028808594 64.76021575927734 38.98121643066406 53.327022552490234 81.68579864501953 C 121.87007904052734 19.55126190185547 176.1844940185547 -37.914127349853516 98.72028350830078 34.79369354248047 C 85.8447494506836 45.2047233581543 114.47759246826172 19.434457778930664 44.84132385253906 82.56867980957031 C -65.57536315917969 183.68833923339844 48.65719985961914 97.01685333251953 62.65738296508789 64.45526123046875"/>
    <path stroke-width="0" fill="rgb(255, 254, 230)" opacity="0.96974874" stroke="rgb(247, 230, 75)" stroke-opacity="1.0" stroke-linecap="round" stroke-linejoin="round" d="M 88.6239242553711 353.6205749511719 C 118.88265991210938 356.889404296875 127.8816909790039 371.5504150390625 -86.37165832519531 369.6185302734375 C 103.74816131591797 355.9278564453125 112.99839782714844 376.8453063964844 81.50695037841797 341.9329528808594 C 33.530975341796875 372.4208068847656 51.21633529663086 327.2756652832031 193.41690063476562 337.7211608886719 C 25.14363670349121 354.5772705078125 82.68712615966797 337.0845031738281 88.6239242553711 353.6205749511719"/>
    <path stroke-width="0" fill="rgb(47, 20, 35)" opacity="0.53564817" stroke="rgb(63, 27, 242)" stroke-opacity="1.0" stroke-linecap="round" stroke-linejoin="round" d="M 398.0047302246094 188.185546875 C 386.31878662109375 147.33750915527344 364.27227783203125 188.5756072998047 322.05609130859375 180.08917236328125 C 397.9815979003906 187.4293975830078 358.8023986816406 186.18905639648438 281.4674987792969 186.00469970703125 C 332.1330261230469 163.59344482421875 359.36993408203125 168.2959442138672 388.5716552734375 173.87440490722656 C 334.41424560546875 172.84429931640625 314.3386535644531 198.1993408203125 398.0047302246094 188.185546875"/>
    <path stroke-width="0" fill="rgb(0, 0, 3)" opacity="0.8790788" stroke="rgb(175, 14, 186)" stroke-opacity="1.0" stroke-linecap="round" stroke-linejoin="round" d="M 467.7481689453125 471.41729736328125 C 465.2534484863281 472.7069091796875 464.3763732910156 510.1583557128906 460.0456237792969 555.8963012695312 C 495.26287841796875 556.73779296875 469.6107482910156 513.9801025390625 489.5592041015625 517.5526733398438 C 472.4617614746094 496.5317687988281 476.16400146484375 499.48858642578125 509.87774658203125 436.47772216796875 C 480.1127624511719 512.8931884765625 486.5459899902344 532.8524780273438 467.7481689453125 471.41729736328125"/>
    <path stroke-width="0" fill="rgb(28, 19, 7)" opacity="0.85059184" stroke="rgb(69, 96, 95)" stroke-opacity="1.0" stroke-linecap="round" stroke-linejoin="round" d="M 312.6501159667969 315.1239013671875 C 179.5875244140625 318.2466125488281 181.6717987060547 316.2103271484375 313.2350769042969 320.9352722167969 C 314.1483154296875 318.8127136230469 293.5543518066406 327.0806884765625 295.4881896972656 323.8808288574219 C 307.19342041015625 320.7908630371094 336.6705322265625 335.7546691894531 296.7705993652344 324.3997497558594 C 209.62159729003906 324.4654541015625 323.39190673828125 338.11517333984375 312.6501159667969 315.1239013671875"/>
    <path stroke-width="0" fill="rgb(58, 57, 57)" opacity="0.90183794" stroke="rgb(60, 43, 114)" stroke-opacity="1.0" stroke-linecap="round" stroke-linejoin="round" d="M -7.61178731918335 399.8643798828125 C -10.386321067810059 392.8665466308594 -18.9345703125 391.71142578125 -26.832414627075195 390.46209716796875 C 17.474111557006836 395.60479736328125 -13.867989540100098 408.3650817871094 -35.165611267089844 419.5744323730469 C -19.57501220703125 414.087890625 -1.53057062625885 406.85931396484375 -23.728151321411133 404.8939514160156 C -30.84259033203125 426.1858215332031 -28.624404907226562 428.8430480957031 -7.61178731918335 399.8643798828125"/>
    <path stroke-width="0" fill="rgb(238, 236, 195)" opacity="1.0" stroke="rgb(213, 60, 128)" stroke-opacity="1.0" stroke-linecap="round" stroke-linejoin="round" d="M 240.40208435058594 316.06756591796875 C 94.5770034790039 314.7295837402344 100.25263214111328 316.9031066894531 172.38450622558594 320.4434509277344 C 65.05403137207031 301.1650695800781 161.0418701171875 313.5540466308594 30.147369384765625 312.4563903808594 C 24.033828735351562 324.96405029296875 86.18496704101562 310.1543273925781 135.29295349121094 318.9122619628906 C -145.4379119873047 333.6282958984375 -64.9516372680664 339.5166320800781 240.40208435058594 316.06756591796875"/>
    <path stroke-width="0" fill="rgb(255, 253, 223)" opacity="0.9834123" stroke="rgb(161, 221, 239)" stroke-opacity="1.0" stroke-linecap="round" stroke-linejoin="round" d="M 383.99365234375 390.4652404785156 C 183.7054901123047 381.9651184082031 209.790283203125 395.358642578125 91.73486328125 392.25323486328125 C 340.68206787109375 368.34344482421875 376.98870849609375 401.086669921875 285.2174987792969 393.5426330566406 C 298.3708190917969 393.5676574707031 331.2041320800781 394.42584228515625 240.09706115722656 395.4286193847656 C 246.51339721679688 387.7790832519531 245.75021362304688 395.2030944824219 383.99365234375 390.4652404785156"/>
    <path stroke-width="0" fill="rgb(126, 120, 92)" opacity="0.9672775" stroke="rgb(178, 246, 253)" stroke-opacity="1.0" stroke-linecap="round" stroke-linejoin="round" d="M 468.3391418457031 499.8765869140625 C 495.531982421875 513.0289306640625 438.41375732421875 515.1027221679688 466.3326721191406 477.81561279296875 C 501.39935302734375 487.4585876464844 476.581298828125 474.8419189453125 463.9002990722656 494.6660461425781 C 453.2388916015625 516.6331787109375 486.1188049316406 480.50994873046875 477.9326477050781 502.496337890625 C 415.610595703125 469.69207763671875 502.2389831542969 495.8153381347656 468.3391418457031 499.8765869140625"/>
    <path stroke-width="0" fill="rgb(255, 255, 152)" opacity="0.60566574" stroke="rgb(18, 74, 38)" stroke-opacity="1.0" stroke-linecap="round" stroke-linejoin="round" d="M 111.4161605834961 221.70677185058594 C 166.9521484375 216.85382080078125 146.980712890625 215.5608367919922 123.74372100830078 222.58116149902344 C 151.40200805664062 199.01254272460938 127.98534393310547 195.9390869140625 58.61334228515625 190.2602996826172 C 99.33981323242188 213.16929626464844 127.64788055419922 178.77252197265625 132.02455139160156 185.33676147460938 C 108.53166198730469 211.94317626953125 141.97158813476562 181.88873291015625 111.4161605834961 221.70677185058594"/>
    <path stroke-width="0" fill="rgb(224, 215, 136)" opacity="0.75388736" stroke="rgb(33, 154, 97)" stroke-opacity="1.0" stroke-linecap="round" stroke-linejoin="round" d="M 127.39380645751953 184.1600799560547 C 115.38407135009766 211.60365295410156 90.53720092773438 182.00601196289062 -23.189477920532227 189.7803192138672 C 113.62630462646484 196.23452758789062 78.0704345703125 181.2870330810547 55.03763198852539 188.4900360107422 C 88.9029312133789 206.79080200195312 44.83890914916992 164.31787109375 -11.036195755004883 195.80120849609375 C 51.20402145385742 203.78199768066406 89.99079895019531 191.91175842285156 127.39380645751953 184.1600799560547"/>
    <path stroke-width="0" fill="rgb(240, 238, 188)" opacity="1.0" stroke="rgb(246, 139, 70)" stroke-opacity="1.0" stroke-linecap="round" stroke-linejoin="round" d="M 111.94003295898438 374.2918701171875 C 84.93158721923828 357.8573303222656 58.2215690612793 384.6893005371094 121.66989135742188 372.55902099609375 C 110.34283447265625 377.49786376953125 128.37161254882812 377.9031066894531 88.67450714111328 340.8268127441406 C -150.5778350830078 356.9402160644531 302.4428405761719 343.2973327636719 -61.75818634033203 359.4954528808594 C 110.6150894165039 361.6963806152344 113.70970916748047 355.02886962890625 111.94003295898438 374.2918701171875"/>
    <path stroke-width="0" fill="rgb(43, 35, 32)" opacity="0.9051684" stroke="rgb(228, 103, 140)" stroke-opacity="1.0" stroke-linecap="round" stroke-linejoin="round" d="M 130.03411865234375 336.52459716796875 C 8.835895538330078 328.8407287597656 56.7175178527832 346.48602294921875 6.965098857879639 335.1102600097656 C 46.64118957519531 343.7945556640625 56.97328186035156 340.0849914550781 56.181182861328125 337.2969055175781 C 39.991085052490234 338.6645812988281 43.15496063232422 337.0500183105469 72.90606689453125 331.6629638671875 C -5.79387092590332 345.8304138183594 -33.21439743041992 351.0247802734375 130.03411865234375 336.52459716796875"/>
    <path stroke-width="0" fill="rgb(235, 232, 149)" opacity="0.4044146" stroke="rgb(116, 102, 63)" stroke-opacity="1.0" stroke-linecap="round" stroke-linejoin="round" d="M 306.1518249511719 67.27046966552734 C 278.4935302734375 46.16209411621094 299.7322692871094 6.57309627532959 291.74639892578125 42.50858688354492 C 291.2392272949219 14.949923515319824 291.41754150390625 22.51632308959961 296.1850891113281 13.977422714233398 C 288.394775390625 33.239017486572266 298.35186767578125 26.455333709716797 291.7662658691406 30.947267532348633 C 277.49127197265625 49.99516296386719 289.3251037597656 29.005027770996094 306.1518249511719 67.27046966552734"/>
    <path stroke-width="0" fill="rgb(226, 223, 133)" opacity="0.39559373" stroke="rgb(79, 95, 133)" stroke-opacity="1.0" stroke-linecap="round" stroke-linejoin="round" d="M 557.2831420898438 213.9756622314453 C 528.999267578125 254.03475952148438 518.1873168945312 233.50711059570312 493.7674560546875 223.6292724609375 C 516.1265869140625 232.96517944335938 467.2138977050781 254.2413787841797 466.0629577636719 234.094970703125 C 531.6240844726562 209.14869689941406 428.27667236328125 237.1266326904297 457.52130126953125 215.73924255371094 C 522.738525390625 228.01744079589844 532.4959716796875 213.6408233642578 557.2831420898438 213.9756622314453"/>
    <path stroke-width="0" fill="rgb(5, 0, 9)" opacity="0.6774172" stroke="rgb(85, 235, 219)" stroke-opacity="1.0" stroke-linecap="round" stroke-linejoin="round" d="M 319.28997802734375 248.60391235351562 C 271.87615966796875 188.9730987548828 252.434814453125 186.4010467529297 353.4391784667969 279.9466247558594 C 258.37115478515625 215.48191833496094 292.8892822265625 271.744384765625 300.2930908203125 257.4841003417969 C 297.66766357421875 227.4636993408203 310.38446044921875 264.9172668457031 273.5482177734375 233.57089233398438 C 304.1974182128906 263.9269104003906 263.87646484375 243.96731567382812 319.28997802734375 248.60391235351562"/>
    <path stroke-width="0" fill="rgb(244, 236, 127)" opacity="0.99285716" stroke="rgb(64, 113, 26)" stroke-opacity="1.0" stroke-linecap="round" stroke-linejoin="round" d="M 84.11033630371094 20.153425216674805 C 85.33848571777344 -14.06146240234375 76.74718475341797 -9.932546615600586 85.69221496582031 11.79487419128418 C 88.6478042602539 47.499794006347656 45.821929931640625 94.88522338867188 39.259098052978516 70.6607666015625 C 80.27317810058594 1.4840795993804932 89.16606903076172 -3.2213051319122314 81.86153411865234 5.692546844482422 C 69.96825408935547 35.29583740234375 72.81769561767578 43.588592529296875 84.11033630371094 20.153425216674805"/>
  </g>
</svg>
