<?xml version="1.0" ?>
<svg xmlns="http://www.w3.org/2000/svg" version="1.1" width="128" height="128">
  <defs/>
  <g>
    <path d="M 50.92583084106445 44.465667724609375 C 21.14019203186035 17.489810943603516 35.64677047729492 42.50906753540039 -2.5235791206359863 78.04856872558594 C -12.595033645629883 68.40194702148438 -8.031272888183594 61.09290313720703 0.12957490980625153 49.506046295166016 C 14.312925338745117 20.722007751464844 15.530656814575195 18.331083297729492 19.693790435791016 27.765708923339844 C 68.47130584716797 49.44498062133789 36.49302291870117 14.281732559204102 50.92583084106445 44.465667724609375" stroke-width="0.0" fill="rgb(48, 237, 0)" opacity="1.0" stroke="rgb(139, 182, 153)" stroke-opacity="0.5448832" stroke-linecap="round" stroke-linejoin="round"/>
    <path d="M 36.370567321777344 -8.797987937927246 C 22.375873565673828 37.60895919799805 29.882753372192383 55.57549285888672 -1.1721683740615845 65.68378448486328 C -11.636979103088379 56.43524932861328 -11.40519905090332 52.496177673339844 -11.829153060913086 16.58247184753418 C -12.278264045715332 -2.0453789234161377 -13.987018585205078 -7.1055779457092285 3.9035379886627197 -12.100441932678223 C 49.90421676635742 -12.049190521240234 50.18954086303711 -10.362147331237793 36.370567321777344 -8.797987937927246" stroke-width="0.0" fill="rgb(132, 137, 147)" opacity="0.96197665" stroke="rgb(108, 164, 111)" stroke-opacity="0.891773" stroke-linecap="round" stroke-linejoin="round"/>
    <path d="M 140.9597930908203 -11.64240550994873 C 146.50399780273438 124.4084243774414 147.0603485107422 133.84681701660156 133.29962158203125 125.19670104980469 C -27.134872436523438 125.10633087158203 -23.276851654052734 126.7226791381836 -17.760700225830078 123.74356842041016 C 23.101171493530273 38.0271110534668 36.769309997558594 37.806365966796875 84.81873321533203 -11.483194351196289 C 97.85884857177734 -16.20620346069336 101.75287628173828 -38.72237777709961 140.9597930908203 -11.64240550994873" stroke-width="0.0" fill="rgb(174, 168, 86)" opacity="0.38801318" stroke="rgb(245, 97, 201)" stroke-opacity="0.5288949" stroke-linecap="round" stroke-linejoin="round"/>
    <path d="M 69.55956268310547 5.576536655426025 C 14.640480041503906 58.904422760009766 48.580238342285156 17.584869384765625 128.15753173828125 95.14297485351562 C 39.0225715637207 133.9488067626953 -40.8325080871582 126.75110626220703 -69.3301773071289 87.9293212890625 C 7.631904602050781 0.08599721640348434 2.844313383102417 -6.668661117553711 59.41372299194336 -11.231990814208984 C 70.17974090576172 -11.107186317443848 75.38359832763672 -11.231773376464844 69.55956268310547 5.576536655426025" stroke-width="0.0" fill="rgb(46, 54, 87)" opacity="0.7799524" stroke="rgb(144, 236, 18)" stroke-opacity="0.0871293" stroke-linecap="round" stroke-linejoin="round"/>
    <path d="M 64.42842864990234 78.77526092529297 C 71.09761047363281 71.49303436279297 68.65408325195312 73.22539520263672 54.68637466430664 85.0906753540039 C 52.20457458496094 84.52507781982422 50.86207580566406 82.50228118896484 50.4620475769043 71.9054946899414 C 63.14535903930664 69.27734375 70.89789581298828 71.53399658203125 72.97406005859375 72.54004669189453 C 59.49114990234375 73.2840347290039 62.3303108215332 76.17799377441406 64.42842864990234 78.77526092529297" stroke-width="0.0" fill="rgb(233, 123, 92)" opacity="0.9250951" stroke="rgb(5, 212, 198)" stroke-opacity="0.87001216" stroke-linecap="round" stroke-linejoin="round"/>
    <path d="M 84.85990905761719 116.72466278076172 C 90.64112091064453 123.2459945678711 73.84269714355469 110.30953979492188 37.770660400390625 112.84169006347656 C 27.322647094726562 111.13258361816406 31.917753219604492 117.17034149169922 26.866619110107422 85.44065856933594 C 27.96190071105957 78.73623657226562 43.20985412597656 83.02200317382812 59.61106872558594 93.25379180908203 C 61.3105583190918 70.84632873535156 82.1488037109375 62.91341018676758 84.85990905761719 116.72466278076172" stroke-width="0.0" fill="rgb(255, 159, 96)" opacity="0.9572876" stroke="rgb(249, 203, 117)" stroke-opacity="0.7805292" stroke-linecap="round" stroke-linejoin="round"/>
    <path d="M 94.25596618652344 85.56527709960938 C 89.31173706054688 115.60135650634766 92.25921630859375 115.89412689208984 83.46163940429688 111.99283599853516 C 59.503475189208984 112.00648498535156 44.90263366699219 111.96180725097656 36.14743423461914 112.00062561035156 C 30.282180786132812 52.21669006347656 34.788475036621094 88.31332397460938 79.05725860595703 80.78766632080078 C 88.75094604492188 86.09888458251953 92.3991470336914 79.47235107421875 94.25596618652344 85.56527709960938" stroke-width="0.0" fill="rgb(197, 79, 0)" opacity="1.0" stroke="rgb(30, 163, 36)" stroke-opacity="0.9446689" stroke-linecap="round" stroke-linejoin="round"/>
    <path d="M 74.24945068359375 70.79706573486328 C 76.5589828491211 71.49650573730469 72.99849700927734 73.31307220458984 73.89615631103516 74.86302185058594 C 63.723236083984375 72.368896484375 63.57698440551758 72.356201171875 73.25308990478516 75.79637908935547 C 76.47539520263672 75.32304382324219 79.36515808105469 73.09546661376953 65.01837158203125 72.82007598876953 C 62.490882873535156 75.15048217773438 68.53905487060547 73.98600769042969 74.24945068359375 70.79706573486328" stroke-width="0.0" fill="rgb(233, 117, 100)" opacity="0.9171939" stroke="rgb(133, 105, 67)" stroke-opacity="0.7742337" stroke-linecap="round" stroke-linejoin="round"/>
    <path d="M 65.77936553955078 72.81806182861328 C 66.8382568359375 83.42044067382812 65.12657928466797 80.7220458984375 51.642799377441406 81.64727783203125 C 22.93327522277832 88.05091857910156 35.77951431274414 72.81002807617188 40.569358825683594 77.59293365478516 C 41.422157287597656 63.63251876831055 36.34217071533203 68.2616195678711 69.77378845214844 69.67820739746094 C 58.561737060546875 72.82354736328125 65.893798828125 70.34121704101562 65.77936553955078 72.81806182861328" stroke-width="0.0" fill="rgb(255, 192, 146)" opacity="0.86167413" stroke="rgb(116, 144, 4)" stroke-opacity="0.6176355" stroke-linecap="round" stroke-linejoin="round"/>
    <path d="M 80.14082336425781 93.35295104980469 C 72.44223022460938 92.3071517944336 81.50827026367188 87.82145690917969 65.99720001220703 88.96387481689453 C 52.79964065551758 89.4545669555664 49.67909622192383 89.85216522216797 42.0728645324707 94.35045623779297 C 42.00502395629883 65.74636840820312 43.32495880126953 70.7593002319336 93.07942962646484 66.8947982788086 C 75.25848388671875 78.84054565429688 80.71641540527344 52.18186950683594 80.14082336425781 93.35295104980469" stroke-width="0.0" fill="rgb(252, 190, 128)" opacity="0.9707928" stroke="rgb(156, 157, 240)" stroke-opacity="0.6818203" stroke-linecap="round" stroke-linejoin="round"/>
    <path d="M 74.08811950683594 81.32039642333984 C 88.60782623291016 68.30319213867188 87.70780944824219 88.47281646728516 79.43907928466797 82.29967498779297 C 71.61402130126953 100.85617065429688 61.85160446166992 93.71704864501953 60.94213104248047 76.4898681640625 C 55.966888427734375 68.40215301513672 56.79612731933594 68.76862335205078 81.14484405517578 69.14375305175781 C 77.13322448730469 67.47147369384766 84.5119400024414 80.5235366821289 74.08811950683594 81.32039642333984" stroke-width="0.0" fill="rgb(255, 154, 91)" opacity="1.0" stroke="rgb(91, 111, 177)" stroke-opacity="0.06022547" stroke-linecap="round" stroke-linejoin="round"/>
    <path d="M 84.34165954589844 99.7594223022461 C 82.795166015625 105.66532897949219 83.60943603515625 103.73703002929688 57.36811828613281 104.05137634277344 C 20.39137840270996 104.7802505493164 44.84785079956055 103.98527526855469 41.92329025268555 69.4218521118164 C 45.46062469482422 67.68948364257812 31.49283218383789 67.99642944335938 73.71183776855469 68.0060806274414 C 88.75786590576172 66.76962280273438 70.88882446289062 79.27752685546875 84.34165954589844 99.7594223022461" stroke-width="0.0" fill="rgb(254, 139, 80)" opacity="1.0" stroke="rgb(170, 171, 53)" stroke-opacity="0.12892629" stroke-linecap="round" stroke-linejoin="round"/>
    <path d="M 125.10694885253906 -11.59827709197998 C 148.98265075683594 79.7527847290039 130.19537353515625 86.63789367675781 109.54591369628906 100.61166381835938 C 110.17904663085938 96.38311004638672 117.28691864013672 98.1310043334961 113.19688415527344 80.54203796386719 C 114.8552017211914 55.57355499267578 123.19139862060547 64.9150390625 98.14739990234375 63.18147659301758 C 124.7003173828125 28.680879592895508 106.93649291992188 4.856780052185059 125.10694885253906 -11.59827709197998" stroke-width="0.0" fill="rgb(1, 15, 28)" opacity="0.96696717" stroke="rgb(80, 92, 145)" stroke-opacity="0.43860152" stroke-linecap="round" stroke-linejoin="round"/>
    <path d="M 131.41563415527344 101.59695434570312 C 127.70719146728516 115.27373504638672 125.10124206542969 113.884521484375 119.47119903564453 110.69415283203125 C 111.21190643310547 129.95138549804688 111.36652374267578 102.15681457519531 111.93054962158203 112.22216796875 C 104.34774780273438 110.84049224853516 107.71278381347656 103.59842681884766 110.2776870727539 88.58724212646484 C 121.84514617919922 92.4567642211914 122.82673645019531 96.13880157470703 131.41563415527344 101.59695434570312" stroke-width="0.0" fill="rgb(51, 61, 90)" opacity="0.99324644" stroke="rgb(252, 26, 53)" stroke-opacity="0.16130951" stroke-linecap="round" stroke-linejoin="round"/>
    <path d="M 134.53973388671875 122.17527770996094 C 140.7461700439453 122.07495880126953 135.1519775390625 120.00629425048828 112.28875732421875 121.0145263671875 C 103.31763458251953 119.91500854492188 96.03441619873047 121.77606964111328 98.66691589355469 117.48756408691406 C 104.04536437988281 89.20291137695312 106.97744750976562 63.91404724121094 112.25259399414062 83.91381072998047 C 116.48603057861328 112.71611022949219 130.87957763671875 99.64483642578125 134.53973388671875 122.17527770996094" stroke-width="0.0" fill="rgb(46, 53, 77)" opacity="0.99902064" stroke="rgb(166, 64, 118)" stroke-opacity="0.2444256" stroke-linecap="round" stroke-linejoin="round"/>
    <path d="M 98.58238983154297 121.75604248046875 C 158.46002197265625 110.489990234375 156.27088928222656 172.78646850585938 -25.19403076171875 121.0103988647461 C 105.59902954101562 117.06724548339844 111.42792510986328 127.72167205810547 84.81227111816406 112.36229705810547 C 84.47129821777344 102.34857940673828 88.736572265625 82.48336029052734 85.93653106689453 82.90714263916016 C 101.76502227783203 84.53913879394531 92.1325912475586 73.89613342285156 98.58238983154297 121.75604248046875" stroke-width="0.0" fill="rgb(255, 234, 154)" opacity="0.5654094" stroke="rgb(40, 28, 167)" stroke-opacity="0.13818295" stroke-linecap="round" stroke-linejoin="round"/>
    <path d="M 72.14600372314453 51.2586784362793 C 57.84270477294922 46.9708251953125 90.20458984375 57.42708206176758 65.48746490478516 50.29385757446289 C 6.350138187408447 56.04152297973633 81.9423828125 -36.67786407470703 43.862884521484375 40.213401794433594 C 90.86493682861328 59.050437927246094 44.06330871582031 6.561954498291016 57.57904052734375 8.859010696411133 C 81.8631820678711 27.488750457763672 77.54165649414062 43.46786117553711 72.14600372314453 51.2586784362793" stroke-width="0.0" fill="rgb(0, 5, 29)" opacity="0.9725382" stroke="rgb(50, 94, 209)" stroke-opacity="0.09710128" stroke-linecap="round" stroke-linejoin="round"/>
    <path d="M 68.32471466064453 49.34982681274414 C 74.55888366699219 49.67456817626953 78.13003540039062 54.67916488647461 42.33964538574219 38.28277587890625 C 59.023563385009766 66.85099792480469 74.04006958007812 25.318132400512695 52.972660064697266 19.125938415527344 C 32.5364875793457 76.40826416015625 46.48897171020508 -6.644933700561523 61.32038116455078 13.922959327697754 C 81.70086669921875 53.95724105834961 50.47468948364258 42.70830535888672 68.32471466064453 49.34982681274414" stroke-width="0.0" fill="rgb(91, 203, 3)" opacity="0.96978253" stroke="rgb(213, 24, 248)" stroke-opacity="0.4686512" stroke-linecap="round" stroke-linejoin="round"/>
    <path d="M 78.41032409667969 89.00311279296875 C 83.10499572753906 118.65966033935547 92.0149154663086 55.67049026489258 78.57056427001953 96.92926025390625 C 14.783042907714844 96.21263885498047 47.98836135864258 100.3662338256836 36.24593734741211 87.99378204345703 C 53.373138427734375 90.9350357055664 73.78731536865234 86.9055404663086 54.737648010253906 90.65304565429688 C 66.6047134399414 88.00755310058594 59.59456253051758 89.62031555175781 78.41032409667969 89.00311279296875" stroke-width="0.0" fill="rgb(220, 96, 1)" opacity="1.0" stroke="rgb(249, 154, 188)" stroke-opacity="0.039187793" stroke-linecap="round" stroke-linejoin="round"/>
    <path d="M 137.1147003173828 99.80354309082031 C 131.36354064941406 106.6052474975586 121.71572875976562 106.63452911376953 109.41165924072266 88.73784637451172 C 107.8877944946289 119.66559600830078 102.65815734863281 156.8475341796875 107.34186553955078 87.7267074584961 C 98.09262084960938 94.31160736083984 108.62394714355469 60.36779022216797 105.52195739746094 76.00047302246094 C 130.0667724609375 83.29136657714844 135.99095153808594 69.57315826416016 137.1147003173828 99.80354309082031" stroke-width="0.0" fill="rgb(255, 239, 176)" opacity="0.96397567" stroke="rgb(72, 30, 75)" stroke-opacity="0.11872772" stroke-linecap="round" stroke-linejoin="round"/>
    <path d="M 138.74929809570312 74.89861297607422 C 121.74535369873047 97.23085021972656 112.25283813476562 104.13330078125 107.40436553955078 78.60612487792969 C 110.90353393554688 126.97245788574219 100.63552856445312 148.7911834716797 110.17774200439453 88.4456787109375 C 102.46730041503906 70.39827728271484 106.55045318603516 81.16206359863281 128.74459838867188 77.06698608398438 C 129.55950927734375 68.8861083984375 132.5102081298828 69.77362823486328 138.74929809570312 74.89861297607422" stroke-width="0.0" fill="rgb(239, 114, 11)" opacity="0.61451864" stroke="rgb(81, 105, 16)" stroke-opacity="0.6924721" stroke-linecap="round" stroke-linejoin="round"/>
    <path d="M 117.4333724975586 65.2077865600586 C 123.34623718261719 22.66376495361328 123.58092498779297 47.22626876831055 105.57744598388672 34.9100456237793 C 109.25759887695312 31.605745315551758 115.18860626220703 38.129146575927734 109.39031219482422 28.382211685180664 C 110.72164916992188 29.704479217529297 117.72138977050781 39.39528274536133 112.15699005126953 34.52278518676758 C 104.10254669189453 6.52231502532959 129.27169799804688 38.329830169677734 117.4333724975586 65.2077865600586" stroke-width="0.0" fill="rgb(239, 255, 0)" opacity="1.0" stroke="rgb(144, 67, 133)" stroke-opacity="0.09394051" stroke-linecap="round" stroke-linejoin="round"/>
    <path d="M 137.8336639404297 122.55485534667969 C 138.26364135742188 126.70747375488281 136.8310546875 128.10655212402344 133.68185424804688 121.06468200683594 C 121.61032104492188 125.4878158569336 122.69208526611328 95.72795104980469 110.30632019042969 105.63119506835938 C 112.6761474609375 98.08917236328125 108.83837127685547 95.63777923583984 117.1246566772461 99.41015625 C 127.98837280273438 101.17376708984375 135.5823516845703 96.03695678710938 137.8336639404297 122.55485534667969" stroke-width="0.0" fill="rgb(21, 31, 59)" opacity="0.9492832" stroke="rgb(146, 236, 81)" stroke-opacity="0.6674104" stroke-linecap="round" stroke-linejoin="round"/>
    <path d="M 149.58396911621094 0.9342244267463684 C 148.69509887695312 75.2613754272461 139.43812561035156 73.32972717285156 115.79674530029297 78.50481414794922 C 100.95142364501953 74.95074462890625 108.12946319580078 79.62956237792969 100.81507110595703 78.07081604003906 C 75.79816436767578 104.05066680908203 73.61882019042969 21.190744400024414 54.950172424316406 -7.598740100860596 C 154.24913024902344 -20.144001007080078 152.6665802001953 -14.034907341003418 149.58396911621094 0.9342244267463684" stroke-width="0.0" fill="rgb(32, 40, 90)" opacity="0.5430247" stroke="rgb(33, 182, 73)" stroke-opacity="0.18319136" stroke-linecap="round" stroke-linejoin="round"/>
    <path d="M 114.09172058105469 93.29888916015625 C 110.15725708007812 85.78282928466797 106.96942901611328 89.0838623046875 119.49179077148438 95.4798812866211 C 96.98433685302734 88.54102325439453 111.34765625 72.17666625976562 94.97559356689453 137.02304077148438 C 105.69879150390625 61.00554656982422 104.65669250488281 80.4299545288086 124.37969970703125 76.88850402832031 C 100.08428192138672 94.89165496826172 105.74185943603516 86.40713500976562 114.09172058105469 93.29888916015625" stroke-width="0.0" fill="rgb(255, 224, 135)" opacity="0.8724467" stroke="rgb(149, 5, 211)" stroke-opacity="0.004695476" stroke-linecap="round" stroke-linejoin="round"/>
    <path d="M 96.51358795166016 40.293277740478516 C 92.19788360595703 155.34947204589844 84.91332244873047 91.248779296875 84.79426574707031 120.58293151855469 C 69.7757797241211 118.27400207519531 73.7659683227539 124.26212310791016 71.50212097167969 112.47891998291016 C 84.7727279663086 113.84394073486328 80.35795593261719 108.7137451171875 83.55078887939453 120.71734619140625 C 98.47771453857422 115.59642028808594 102.05548858642578 143.19564819335938 96.51358795166016 40.293277740478516" stroke-width="0.0" fill="rgb(36, 45, 76)" opacity="1.0" stroke="rgb(172, 68, 187)" stroke-opacity="0.96218854" stroke-linecap="round" stroke-linejoin="round"/>
    <path d="M 127.2132568359375 105.13904571533203 C 123.3795394897461 98.09404754638672 121.2088851928711 106.67943572998047 126.01319885253906 114.93185424804688 C 121.50410461425781 102.9639663696289 106.16770935058594 111.2097396850586 110.15560150146484 88.59606170654297 C 110.05367279052734 89.21504974365234 107.84919738769531 88.3031005859375 126.61872100830078 88.65058898925781 C 124.18519592285156 89.89778137207031 128.06338500976562 92.6241455078125 127.2132568359375 105.13904571533203" stroke-width="0.0" fill="rgb(35, 44, 73)" opacity="1.0" stroke="rgb(63, 146, 150)" stroke-opacity="0.5722519" stroke-linecap="round" stroke-linejoin="round"/>
    <path d="M 128.1251678466797 111.48709869384766 C 137.1261749267578 114.41773986816406 137.05734252929688 115.72340393066406 135.73097229003906 112.8337631225586 C 121.68470001220703 102.08454132080078 114.0719223022461 100.00364685058594 108.86518859863281 94.77595520019531 C 109.36444091796875 87.5112075805664 109.19835662841797 93.63809967041016 109.28948974609375 114.0313949584961 C 114.91462707519531 95.01829528808594 119.26586151123047 102.2674789428711 128.1251678466797 111.48709869384766" stroke-width="0.0" fill="rgb(71, 78, 101)" opacity="0.7454271" stroke="rgb(56, 242, 114)" stroke-opacity="0.84640867" stroke-linecap="round" stroke-linejoin="round"/>
    <path d="M 36.669219970703125 16.2584285736084 C 47.450782775878906 42.69514846801758 34.37052917480469 47.3410530090332 23.846769332885742 28.20214080810547 C 19.747825622558594 25.506072998046875 18.640026092529297 23.929346084594727 17.989147186279297 20.08887481689453 C 27.187223434448242 11.922545433044434 21.685070037841797 16.462194442749023 28.047698974609375 7.001732349395752 C 34.28449630737305 12.060563087463379 38.39805221557617 15.447831153869629 36.669219970703125 16.2584285736084" stroke-width="0.0" fill="rgb(152, 152, 171)" opacity="0.8133913" stroke="rgb(178, 75, 207)" stroke-opacity="0.39650574" stroke-linecap="round" stroke-linejoin="round"/>
    <path d="M 71.72917175292969 110.49409484863281 C 68.4963150024414 114.87454986572266 71.4842758178711 115.60553741455078 71.24696350097656 120.12965393066406 C 38.76535415649414 120.29521179199219 48.6643180847168 120.78553771972656 52.92709732055664 112.83228302001953 C 47.97269058227539 112.38821411132812 76.25328826904297 113.27421569824219 68.55308532714844 111.91197204589844 C 70.42078399658203 112.16326904296875 69.25694274902344 115.00985717773438 71.72917175292969 110.49409484863281" stroke-width="0.0" fill="rgb(58, 67, 93)" opacity="1.0" stroke="rgb(224, 148, 224)" stroke-opacity="0.6925316" stroke-linecap="round" stroke-linejoin="round"/>
    <path d="M 35.93490982055664 6.929989337921143 C 35.26603317260742 9.436285972595215 33.43762969970703 11.270003318786621 30.930145263671875 11.942933082580566 C 16.58451271057129 11.259196281433105 14.80722713470459 9.394098281860352 14.596942901611328 6.581733226776123 C 20.669872283935547 -1.5 22.5 -3.330127000808716 24.890623092651367 -3.9084982872009277 C 26.767295837402344 -2.72572660446167 28.00617218017578 -0.43366876244544983 35.93490982055664 6.929989337921143" stroke-width="0.0" fill="rgb(158, 158, 166)" opacity="1.0" stroke="rgb(184, 127, 243)" stroke-opacity="0.6439902" stroke-linecap="round" stroke-linejoin="round"/>
    <path d="M 20.0 2.0 C 19.330127716064453 4.5 17.5 6.330127239227295 15.0 7.0 C 12.500000953674316 6.330127239227295 10.66997241973877 4.499971389770508 9.483893394470215 1.8484861850738525 C 9.997486114501953 -0.7776493430137634 12.106261253356934 -2.5004446506500244 14.931995391845703 -3.0298986434936523 C 17.5 -2.330127000808716 19.330127716064453 -0.5 20.0 2.0" stroke-width="0.0" fill="rgb(145, 149, 155)" opacity="1.0" stroke="rgb(108, 154, 4)" stroke-opacity="0.30157483" stroke-linecap="round" stroke-linejoin="round"/>
    <path d="M 18.0 4.0 C 17.330127716064453 6.5 15.5 8.330126762390137 11.741228103637695 11.098419189453125 C 5.321201801300049 11.992265701293945 2.985823392868042 12.14001178741455 10.553812980651855 9.475586891174316 C 15.177587509155273 5.050583362579346 15.002171516418457 4.080103874206543 9.390581130981445 -5.174825191497803 C 15.5 -0.3301270306110382 17.330127716064453 1.5 18.0 4.0" stroke-width="0.0" fill="rgb(128, 130, 138)" opacity="0.9423799" stroke="rgb(168, 73, 157)" stroke-opacity="0.4287687" stroke-linecap="round" stroke-linejoin="round"/>
    <path d="M 54.27654266357422 2.009821891784668 C 40.64090347290039 21.11850357055664 33.631507873535156 20.205833435058594 29.245342254638672 27.21512222290039 C 21.24136734008789 28.26991081237793 19.899860382080078 26.042160034179688 23.525293350219727 22.786495208740234 C 23.49489402770996 11.590859413146973 25.441164016723633 9.96617317199707 29.93848991394043 -1.862550973892212 C 38.44910430908203 -8.774476051330566 51.17079162597656 -10.363113403320312 54.27654266357422 2.009821891784668" stroke-width="0.0" fill="rgb(88, 92, 115)" opacity="0.6605299" stroke="rgb(34, 76, 145)" stroke-opacity="0.59087276" stroke-linecap="round" stroke-linejoin="round"/>
    <path d="M 42.126800537109375 61.501773834228516 C 44.08591079711914 52.01776885986328 31.162330627441406 52.99478530883789 11.825006484985352 48.20691680908203 C 9.278766632080078 47.38777542114258 7.842485427856445 45.5096549987793 10.137991905212402 35.85000228881836 C 14.732275009155273 21.57099151611328 16.587312698364258 19.784658432006836 15.424186706542969 24.46064567565918 C 30.355043411254883 27.142127990722656 6.372752666473389 47.085914611816406 42.126800537109375 61.501773834228516" stroke-width="0.0" fill="rgb(122, 118, 111)" opacity="0.899733" stroke="rgb(146, 166, 166)" stroke-opacity="0.43141845" stroke-linecap="round" stroke-linejoin="round"/>
    <path d="M 54.95484924316406 9.3504638671875 C 47.067893981933594 9.303925514221191 38.88930130004883 38.58241271972656 41.12579345703125 41.943355560302734 C 11.880266189575195 36.535484313964844 25.609210968017578 15.163119316101074 21.090307235717773 4.096309185028076 C 21.734416961669922 1.562745213508606 23.560659408569336 -0.27166396379470825 27.006759643554688 -1.1867367029190063 C 42.24153518676758 -3.9602222442626953 45.91477584838867 -13.941873550415039 54.95484924316406 9.3504638671875" stroke-width="0.0" fill="rgb(224, 216, 200)" opacity="0.36885932" stroke="rgb(228, 93, 111)" stroke-opacity="0.89192337" stroke-linecap="round" stroke-linejoin="round"/>
    <path d="M 21.04096031188965 10.918623924255371 C 8.462428092956543 17.947010040283203 8.002930641174316 20.302719116210938 -3.185128688812256 33.82362747192383 C -5.940732955932617 34.664974212646484 -7.68494176864624 32.983062744140625 -8.185072898864746 27.59664535522461 C -4.732107162475586 8.143508911132812 -2.656619071960449 6.705463409423828 15.65281867980957 6.760352611541748 C 18.79523277282715 6.6358256340026855 20.643659591674805 8.123866081237793 21.04096031188965 10.918623924255371" stroke-width="0.0" fill="rgb(127, 126, 142)" opacity="0.92028636" stroke="rgb(205, 179, 25)" stroke-opacity="0.9194826" stroke-linecap="round" stroke-linejoin="round"/>
    <path d="M 58.08580017089844 58.018714904785156 C 42.13654708862305 59.03515625 32.71003723144531 84.30316162109375 36.884056091308594 82.98351287841797 C -12.832657814025879 83.6175765991211 -4.570415019989014 73.85828399658203 -2.8728628158569336 49.62955856323242 C -0.8897634148597717 33.258689880371094 -0.37942081689834595 29.95990753173828 12.582892417907715 27.268760681152344 C 31.424602508544922 27.055334091186523 32.61422348022461 32.480167388916016 58.08580017089844 58.018714904785156" stroke-width="0.0" fill="rgb(121, 126, 138)" opacity="1.0" stroke="rgb(182, 254, 38)" stroke-opacity="0.86812603" stroke-linecap="round" stroke-linejoin="round"/>
    <path d="M 16.885053634643555 16.86907958984375 C 16.21784210205078 19.387657165527344 14.397329330444336 21.27243423461914 -1.2354490756988525 22.861881256103516 C -4.577390670776367 23.00101089477539 -7.03834342956543 22.076454162597656 -7.601131916046143 19.804426193237305 C -6.6961588859558105 0.8373628258705139 -4.500106334686279 -0.7837553024291992 -2.755746364593506 -0.7147009968757629 C 14.104178428649902 1.4243066310882568 15.887078285217285 2.931285858154297 16.885053634643555 16.86907958984375" stroke-width="0.0" fill="rgb(129, 143, 148)" opacity="0.9487575" stroke="rgb(41, 156, 31)" stroke-opacity="0.8480082" stroke-linecap="round" stroke-linejoin="round"/>
    <path d="M 22.824695587158203 17.372909545898438 C 14.367491722106934 19.726200103759766 18.253835678100586 20.46025276184082 15.212526321411133 31.967477798461914 C 12.642330169677734 31.234516143798828 10.981821060180664 29.266984939575195 8.675154685974121 13.242098808288574 C 8.623335838317871 10.24083137512207 10.149714469909668 8.292566299438477 12.65274715423584 7.654567718505859 C 23.5 16.669872283935547 25.330127716064453 18.5 22.824695587158203 17.372909545898438" stroke-width="0.0" fill="rgb(159, 152, 163)" opacity="1.0" stroke="rgb(205, 145, 103)" stroke-opacity="0.069166996" stroke-linecap="round" stroke-linejoin="round"/>
    <path d="M 28.90280532836914 7.901526927947998 C 28.26156234741211 10.431710243225098 26.432403564453125 12.263772964477539 23.9123592376709 12.918100357055664 C 15.499673843383789 6.330515384674072 13.668216705322266 4.501063823699951 11.8610258102417 1.6875959634780884 C 13.495522499084473 -0.5711342096328735 15.48222541809082 -2.338164806365967 17.999130249023438 -3.0004453659057617 C 20.5 -2.330127000808716 22.330127716064453 -0.5 28.90280532836914 7.901526927947998" stroke-width="0.0" fill="rgb(153, 154, 155)" opacity="1.0" stroke="rgb(177, 115, 184)" stroke-opacity="0.8663823" stroke-linecap="round" stroke-linejoin="round"/>
    <path d="M 28.177978515625 4.46953821182251 C 9.190327644348145 5.423153400421143 26.097776412963867 20.06212043762207 9.01453971862793 23.360313415527344 C 6.721055030822754 22.034814834594727 4.622593879699707 20.394264221191406 3.821383476257324 18.10966682434082 C 12.71137809753418 7.575077056884766 14.69722843170166 6.051168441772461 22.891502380371094 -0.8842235803604126 C 25.430505752563477 -0.2590273320674896 27.263967514038086 1.5679470300674438 28.177978515625 4.46953821182251" stroke-width="0.0" fill="rgb(159, 159, 169)" opacity="1.0" stroke="rgb(248, 218, 2)" stroke-opacity="0.35997805" stroke-linecap="round" stroke-linejoin="round"/>
    <path d="M 26.159027099609375 34.25996398925781 C 26.61838150024414 37.397178649902344 26.20122718811035 40.5812873840332 23.772302627563477 44.21537780761719 C 2.3410298824310303 42.426719665527344 2.3666889667510986 39.84464645385742 5.812349319458008 34.1456184387207 C 10.514548301696777 24.402416229248047 12.468753814697266 22.65067481994629 20.618928909301758 16.280704498291016 C 23.453826904296875 16.7066707611084 25.274621963500977 18.563119888305664 26.159027099609375 34.25996398925781" stroke-width="0.0" fill="rgb(148, 146, 154)" opacity="1.0" stroke="rgb(186, 43, 132)" stroke-opacity="0.05433799" stroke-linecap="round" stroke-linejoin="round"/>
    <path d="M 40.94744110107422 57.45925521850586 C 80.31122589111328 43.495174407958984 162.89109802246094 71.86151885986328 34.94993591308594 67.68721008300781 C -3.6840696334838867 58.87392044067383 8.020509719848633 48.10089874267578 13.40031623840332 41.70134353637695 C 24.357559204101562 28.1246280670166 23.79573631286621 28.39019775390625 18.104286193847656 23.830026626586914 C 21.600597381591797 38.83488464355469 37.85861587524414 16.99624252319336 40.94744110107422 57.45925521850586" stroke-width="0.0" fill="rgb(129, 132, 141)" opacity="0.8094412" stroke="rgb(50, 4, 202)" stroke-opacity="0.22392468" stroke-linecap="round" stroke-linejoin="round"/>
    <path d="M 32.81046676635742 7.322818279266357 C 28.330127716064453 14.5 26.5 16.330127716064453 24.02186393737793 16.987407684326172 C 21.87946319580078 16.108654022216797 21.668142318725586 13.19971752166748 14.819395065307617 5.996038436889648 C 13.768328666687012 3.5844595432281494 15.572848320007324 1.7347546815872192 18.09551429748535 1.0589007139205933 C 32.39664840698242 1.7463163137435913 34.03697204589844 3.66699481010437 32.81046676635742 7.322818279266357" stroke-width="0.0" fill="rgb(153, 153, 138)" opacity="1.0" stroke="rgb(88, 236, 179)" stroke-opacity="0.03183893" stroke-linecap="round" stroke-linejoin="round"/>
    <path d="M 29.437660217285156 21.2677059173584 C 22.285110473632812 47.030452728271484 42.0778923034668 42.39081573486328 29.799728393554688 30.209983825683594 C 16.369260787963867 37.54464340209961 14.660598754882812 34.67129135131836 14.080268859863281 31.978513717651367 C 17.359861373901367 21.224163055419922 21.334434509277344 20.97142219543457 31.26897430419922 14.895085334777832 C 34.2984504699707 15.185481071472168 36.69516372680664 16.459203720092773 29.437660217285156 21.2677059173584" stroke-width="0.0" fill="rgb(168, 163, 173)" opacity="0.90415233" stroke="rgb(41, 158, 147)" stroke-opacity="0.23789282" stroke-linecap="round" stroke-linejoin="round"/>
    <path d="M 23.34622573852539 8.461522102355957 C 14.332498550415039 14.50527286529541 16.544574737548828 15.920154571533203 19.33212661743164 18.770708084106445 C 3.8155765533447266 17.91747283935547 6.726256370544434 15.963850021362305 -0.15377043187618256 0.5150726437568665 C 0.15355147421360016 -2.054933547973633 1.926155924797058 -3.8916308879852295 4.595161437988281 -4.019816875457764 C 14.72128963470459 3.7925479412078857 14.386723518371582 3.3790223598480225 23.34622573852539 8.461522102355957" stroke-width="0.0" fill="rgb(140, 142, 152)" opacity="1.0" stroke="rgb(238, 156, 136)" stroke-opacity="0.58991" stroke-linecap="round" stroke-linejoin="round"/>
    <path d="M 17.3107967376709 0.972688615322113 C 16.247100830078125 2.655299425125122 11.689443588256836 1.3952568769454956 2.8215527534484863 12.961843490600586 C 0.24355727434158325 12.558317184448242 -1.889682412147522 10.869633674621582 -7.913777828216553 2.568199872970581 C -2.8642990589141846 -12.700368881225586 0.7520027756690979 -10.85011100769043 8.277800559997559 -8.322909355163574 C 13.5 -4.330127239227295 15.330126762390137 -2.5 17.3107967376709 0.972688615322113" stroke-width="0.0" fill="rgb(140, 143, 148)" opacity="0.941895" stroke="rgb(186, 79, 101)" stroke-opacity="0.20984375" stroke-linecap="round" stroke-linejoin="round"/>
    <path d="M 37.18745040893555 10.306188583374023 C 43.79397964477539 30.392671585083008 41.869197845458984 16.539011001586914 33.27437973022461 21.897537231445312 C 26.20901870727539 14.83708381652832 24.486892700195312 13.32693862915039 17.023244857788086 7.886842250823975 C 16.964242935180664 3.6654303073883057 18.60512924194336 1.7479037046432495 22.236116409301758 1.0384190082550049 C 35.70580291748047 1.4672683477401733 39.07402038574219 2.4257395267486572 37.18745040893555 10.306188583374023" stroke-width="0.0" fill="rgb(185, 172, 173)" opacity="0.98592126" stroke="rgb(47, 240, 188)" stroke-opacity="0.49045882" stroke-linecap="round" stroke-linejoin="round"/>
    <path d="M 29.14504623413086 41.68367385864258 C 27.764122009277344 44.281837463378906 25.977005004882812 46.01706314086914 10.427568435668945 46.46476364135742 C -5.8282389640808105 44.65715408325195 -8.572144508361816 43.94484329223633 -9.515182495117188 34.37604904174805 C -2.910027027130127 17.715314865112305 0.4041433036327362 17.081403732299805 3.8831467628479004 16.777332305908203 C 8.87833023071289 32.544952392578125 17.22740936279297 22.14901351928711 29.14504623413086 41.68367385864258" stroke-width="0.0" fill="rgb(140, 131, 141)" opacity="1.0" stroke="rgb(57, 64, 14)" stroke-opacity="0.43441662" stroke-linecap="round" stroke-linejoin="round"/>
    <path d="M 41.618682861328125 14.060391426086426 C 29.00566864013672 19.78926658630371 31.54905891418457 24.057716369628906 28.445653915405273 27.20185089111328 C 19.71285629272461 24.607585906982422 21.524160385131836 19.900774002075195 21.27593994140625 18.202468872070312 C 20.964279174804688 11.191481590270996 21.60447883605957 18.65294075012207 21.112449645996094 13.457666397094727 C 25.384817123413086 12.300183296203613 15.465917587280273 9.356083869934082 41.618682861328125 14.060391426086426" stroke-width="0.0" fill="rgb(201, 189, 188)" opacity="0.69281757" stroke="rgb(79, 177, 96)" stroke-opacity="0.17960368" stroke-linecap="round" stroke-linejoin="round"/>
    <path d="M 37.849029541015625 7.400424480438232 C 21.160097122192383 1.3870917558670044 21.666296005249023 2.6929337978363037 17.11834716796875 10.942293167114258 C 14.688700675964355 10.223057746887207 13.596976280212402 8.042668342590332 15.874269485473633 2.7188193798065186 C 18.669872283935547 -2.5 20.5 -4.330127239227295 25.965917587280273 -9.269998550415039 C 22.06836700439453 0.37356093525886536 27.975296020507812 -1.966481328010559 37.849029541015625 7.400424480438232" stroke-width="0.0" fill="rgb(153, 154, 163)" opacity="0.91461164" stroke="rgb(6, 17, 173)" stroke-opacity="0.45369685" stroke-linecap="round" stroke-linejoin="round"/>
    <path d="M 17.074716567993164 39.13372802734375 C 15.638483047485352 56.91204071044922 14.482258796691895 59.28338623046875 6.204520225524902 63.89964294433594 C -16.018217086791992 61.25593566894531 -16.386259078979492 58.70974349975586 -11.640653610229492 47.63169860839844 C -12.864279747009277 31.92333984375 -11.485345840454102 29.579360961914062 -0.8842706084251404 24.51959228515625 C 15.404431343078613 26.35378074645996 17.44272804260254 27.746850967407227 17.074716567993164 39.13372802734375" stroke-width="0.0" fill="rgb(124, 126, 139)" opacity="0.9578994" stroke="rgb(136, 228, 252)" stroke-opacity="0.21689698" stroke-linecap="round" stroke-linejoin="round"/>
    <path d="M 233.07884216308594 57.232303619384766 C 132.04696655273438 79.25050354003906 104.37641143798828 40.2762451171875 98.55171203613281 87.53172302246094 C 56.458641052246094 61.57760238647461 99.83627319335938 30.84103012084961 119.17761993408203 39.674678802490234 C 122.19090270996094 -4.050698757171631 89.29109954833984 99.45745086669922 92.80631256103516 0.6696347594261169 C 143.47354125976562 -15.833585739135742 150.7050018310547 -7.288340091705322 233.07884216308594 57.232303619384766" stroke-width="0.0" fill="rgb(102, 105, 120)" opacity="0.7420098" stroke="rgb(169, 67, 5)" stroke-opacity="0.7583786" stroke-linecap="round" stroke-linejoin="round"/>
    <path d="M 41.54816436767578 4.423696994781494 C 47.3577995300293 8.362494468688965 42.80232238769531 9.337150573730469 28.732526779174805 10.622356414794922 C 25.549339294433594 10.288666725158691 23.720273971557617 8.4465970993042 23.01743507385254 5.928953647613525 C 29.665695190429688 -2.502187490463257 31.499650955200195 -4.330313205718994 38.09896469116211 -7.650102615356445 C 39.70642852783203 -7.429423809051514 36.255035400390625 -1.1703113317489624 41.54816436767578 4.423696994781494" stroke-width="0.0" fill="rgb(125, 120, 126)" opacity="0.9569325" stroke="rgb(81, 97, 150)" stroke-opacity="0.8310484" stroke-linecap="round" stroke-linejoin="round"/>
    <path d="M 55.44498062133789 -18.2705135345459 C 34.01490020751953 48.83317565917969 40.2569580078125 40.77199935913086 57.675994873046875 54.128231048583984 C -6.816117286682129 57.77965545654297 10.302127838134766 36.7796516418457 4.883808135986328 36.364261627197266 C 28.26430892944336 24.48044776916504 20.697559356689453 17.583457946777344 41.106590270996094 0.5566540360450745 C 61.24618148803711 15.4957857131958 94.47809600830078 20.78146743774414 55.44498062133789 -18.2705135345459" stroke-width="0.0" fill="rgb(136, 138, 147)" opacity="0.88746226" stroke="rgb(160, 222, 69)" stroke-opacity="0.7980468" stroke-linecap="round" stroke-linejoin="round"/>
    <path d="M 24.148466110229492 13.707103729248047 C 22.1790771484375 29.25853729248047 20.179391860961914 32.186981201171875 10.182168960571289 30.55401039123535 C 5.698343753814697 29.350759506225586 5.141022205352783 26.86720085144043 8.284482955932617 16.01910972595215 C 0.3988034427165985 11.273117065429688 3.6703531742095947 12.94705581665039 18.862560272216797 8.486088752746582 C 21.854694366455078 9.43875789642334 23.72802734375 11.076767921447754 24.148466110229492 13.707103729248047" stroke-width="0.0" fill="rgb(134, 132, 140)" opacity="1.0" stroke="rgb(47, 242, 175)" stroke-opacity="0.21550767" stroke-linecap="round" stroke-linejoin="round"/>
    <path d="M 29.139001846313477 12.381688117980957 C 29.591838836669922 18.546512603759766 25.940397262573242 18.24739646911621 16.717700958251953 24.452455520629883 C 14.573163986206055 25.258514404296875 12.724968910217285 23.436904907226562 11.94344425201416 20.762710571289062 C 25.569639205932617 18.169322967529297 22.405046463012695 14.569783210754395 19.40719985961914 6.968503475189209 C 24.965370178222656 11.458857536315918 27.560680389404297 12.873229026794434 29.139001846313477 12.381688117980957" stroke-width="0.0" fill="rgb(132, 138, 148)" opacity="1.0" stroke="rgb(241, 186, 64)" stroke-opacity="0.21331197" stroke-linecap="round" stroke-linejoin="round"/>
    <path d="M 57.117027282714844 4.275242328643799 C 101.29426574707031 55.799537658691406 66.07600402832031 65.75384521484375 51.10858154296875 48.552734375 C 52.96812057495117 58.597923278808594 78.97315979003906 50.99406433105469 66.67364501953125 52.449806213378906 C 74.76519775390625 52.592308044433594 69.88139343261719 49.27850341796875 42.884521484375 52.165714263916016 C 67.09220886230469 50.8635368347168 82.03173828125 44.7221565246582 57.117027282714844 4.275242328643799" stroke-width="0.0" fill="rgb(110, 114, 133)" opacity="0.60957855" stroke="rgb(132, 6, 52)" stroke-opacity="0.42468548" stroke-linecap="round" stroke-linejoin="round"/>
    <path d="M 28.16928482055664 69.46658325195312 C 26.0356502532959 115.3740463256836 37.357139587402344 102.85724639892578 1.0096945762634277 111.02420043945312 C -8.134024620056152 83.55381774902344 -8.985950469970703 81.03024291992188 -8.985180854797363 68.78799438476562 C -10.350240707397461 49.407554626464844 -10.274523735046387 45.87333297729492 -2.7646563053131104 45.42080307006836 C 23.500774383544922 47.78705978393555 24.786508560180664 50.11389923095703 28.16928482055664 69.46658325195312" stroke-width="0.0" fill="rgb(119, 121, 135)" opacity="0.56714267" stroke="rgb(95, 118, 70)" stroke-opacity="0.58678436" stroke-linecap="round" stroke-linejoin="round"/>
    <path d="M 130.3399658203125 83.92717742919922 C 118.20897674560547 87.95825958251953 119.81961059570312 77.60331726074219 116.26646423339844 79.05461120605469 C 115.61771392822266 85.96477508544922 115.0685043334961 91.26447296142578 116.52558135986328 76.99872589111328 C 114.44993591308594 76.35786437988281 117.45337677001953 83.2863540649414 140.59144592285156 79.61123657226562 C 128.59718322753906 75.48605346679688 121.82150268554688 78.64934539794922 130.3399658203125 83.92717742919922" stroke-width="0.0" fill="rgb(163, 137, 41)" opacity="0.840986" stroke="rgb(220, 29, 131)" stroke-opacity="0.13206811" stroke-linecap="round" stroke-linejoin="round"/>
    <path d="M 139.77655029296875 78.27762603759766 C 135.5959930419922 81.08721923828125 123.17735290527344 82.55974578857422 123.63300323486328 79.47321319580078 C 120.61273956298828 78.10872650146484 117.12052917480469 80.0662612915039 118.19927978515625 85.34880828857422 C 121.80401611328125 80.63710021972656 130.2269287109375 77.38291931152344 134.65740966796875 71.67887878417969 C 135.89614868164062 71.77430725097656 116.6824951171875 73.54236602783203 139.77655029296875 78.27762603759766" stroke-width="0.0" fill="rgb(41, 43, 53)" opacity="0.6124685" stroke="rgb(182, 100, 144)" stroke-opacity="0.18327984" stroke-linecap="round" stroke-linejoin="round"/>
    <path d="M 118.06256103515625 79.80462646484375 C 112.53702545166016 80.35678100585938 111.41948699951172 81.02745056152344 123.56336212158203 83.09976196289062 C 123.9669418334961 84.16036987304688 122.85787963867188 81.84319305419922 121.84361267089844 79.47830963134766 C 111.15618133544922 87.8907470703125 114.44795227050781 85.30205535888672 117.48479461669922 82.89199829101562 C 117.41939544677734 82.62613677978516 119.03555297851562 87.43940734863281 118.06256103515625 79.80462646484375" stroke-width="0.0" fill="rgb(148, 97, 40)" opacity="0.8931919" stroke="rgb(36, 124, 90)" stroke-opacity="0.94043195" stroke-linecap="round" stroke-linejoin="round"/>
    <path d="M 127.28152465820312 78.44989013671875 C 124.85553741455078 77.79878997802734 111.94023895263672 81.26927185058594 116.41890716552734 82.94744873046875 C 115.87626647949219 84.38020324707031 116.53218841552734 81.05378723144531 116.49815368652344 75.8709945678711 C 117.6093521118164 86.31085205078125 118.7066879272461 83.90225219726562 120.26837158203125 80.98332214355469 C 122.9442367553711 80.38494110107422 114.62874603271484 81.28018188476562 127.28152465820312 78.44989013671875" stroke-width="0.0" fill="rgb(157, 139, 47)" opacity="0.91916066" stroke="rgb(195, 190, 230)" stroke-opacity="0.08342244" stroke-linecap="round" stroke-linejoin="round"/>
    <path d="M 143.36874389648438 87.73614501953125 C 145.5791778564453 90.79286193847656 138.83917236328125 89.77557373046875 110.22337341308594 86.85708618164062 C 118.15448760986328 82.5164794921875 120.90752410888672 80.71084594726562 127.91049194335938 75.19766235351562 C 133.39620971679688 71.2882080078125 127.95993041992188 77.77959442138672 130.2236785888672 76.32527923583984 C 131.37783813476562 72.98397827148438 130.31243896484375 77.91059112548828 143.36874389648438 87.73614501953125" stroke-width="0.0" fill="rgb(233, 105, 43)" opacity="0.52218" stroke="rgb(140, 149, 245)" stroke-opacity="0.29214752" stroke-linecap="round" stroke-linejoin="round"/>
    <path d="M 118.67656707763672 124.80366516113281 C 115.29903411865234 124.34967041015625 110.131103515625 124.1048812866211 133.0050811767578 123.86605072021484 C 132.40101623535156 124.6908950805664 125.75464630126953 125.4330062866211 109.99899291992188 124.22456359863281 C 122.29481506347656 126.23558807373047 123.2760009765625 132.0102996826172 125.65493774414062 130.6805419921875 C 112.36975860595703 122.76546478271484 110.20032501220703 124.44002532958984 118.67656707763672 124.80366516113281" stroke-width="0.0" fill="rgb(183, 171, 127)" opacity="0.8305194" stroke="rgb(61, 25, 4)" stroke-opacity="0.9295293" stroke-linecap="round" stroke-linejoin="round"/>
    <path d="M 110.42787170410156 46.41568374633789 C 109.69286346435547 46.83301544189453 106.97381591796875 48.382720947265625 110.47274017333984 46.39942932128906 C 110.24370574951172 52.379539489746094 115.70246124267578 51.73933792114258 107.90206146240234 49.4379768371582 C 114.09552001953125 45.03767013549805 115.55732727050781 39.9305305480957 117.04795837402344 50.905967712402344 C 107.61702728271484 43.76088333129883 110.52992248535156 49.822349548339844 110.42787170410156 46.41568374633789" stroke-width="0.0" fill="rgb(97, 106, 119)" opacity="0.70721406" stroke="rgb(170, 200, 71)" stroke-opacity="0.58641016" stroke-linecap="round" stroke-linejoin="round"/>
    <path d="M 115.4302749633789 39.69758987426758 C 123.42195129394531 41.88705062866211 124.91891479492188 38.52777862548828 117.8846206665039 50.955047607421875 C 119.6727523803711 39.73601150512695 120.57039642333984 34.74933624267578 120.07611846923828 28.935306549072266 C 115.54241943359375 47.64098358154297 118.71820831298828 39.719844818115234 119.34883117675781 38.12468338012695 C 117.31795501708984 40.07133483886719 119.70879364013672 45.11549377441406 115.4302749633789 39.69758987426758" stroke-width="0.0" fill="rgb(146, 212, 61)" opacity="0.9536545" stroke="rgb(16, 123, 249)" stroke-opacity="0.87650526" stroke-linecap="round" stroke-linejoin="round"/>
    <path d="M 117.31733703613281 30.537063598632812 C 110.68546295166016 15.487968444824219 105.96881866455078 32.48069381713867 115.55242919921875 33.262413024902344 C 124.71357727050781 38.96964645385742 117.52674865722656 41.37901306152344 117.30891418457031 36.512916564941406 C 121.24291229248047 30.14994239807129 120.49329376220703 33.02281951904297 116.33714294433594 34.601341247558594 C 112.95317840576172 36.89065933227539 114.69710540771484 39.71949768066406 117.31733703613281 30.537063598632812" stroke-width="0.0" fill="rgb(130, 205, 38)" opacity="1.0" stroke="rgb(86, 245, 59)" stroke-opacity="0.9493188" stroke-linecap="round" stroke-linejoin="round"/>
    <path d="M 112.40393829345703 87.15906524658203 C 105.6028060913086 85.58015441894531 102.36933898925781 87.18222045898438 108.9420394897461 85.4527587890625 C 106.22351837158203 88.02350616455078 105.54169464111328 86.19187927246094 103.07978820800781 90.02552032470703 C 102.0245590209961 107.91047668457031 104.35469055175781 94.33415222167969 104.75435638427734 87.28498077392578 C 95.94100952148438 82.27561950683594 91.6115951538086 93.5425033569336 112.40393829345703 87.15906524658203" stroke-width="0.0" fill="rgb(248, 168, 93)" opacity="0.9711997" stroke="rgb(240, 203, 160)" stroke-opacity="0.87428796" stroke-linecap="round" stroke-linejoin="round"/>
    <path d="M 114.79413604736328 31.825672149658203 C 114.5948486328125 38.892330169677734 114.75112915039062 42.706546783447266 116.46636199951172 42.075477600097656 C 119.12109375 43.20588684082031 117.78999328613281 36.48297882080078 114.39553833007812 49.06544876098633 C 117.3597183227539 34.18883514404297 121.11840057373047 31.601869583129883 115.13875579833984 34.007965087890625 C 113.95137786865234 37.7775993347168 109.37855529785156 41.75475311279297 114.79413604736328 31.825672149658203" stroke-width="0.0" fill="rgb(132, 189, 78)" opacity="0.8556471" stroke="rgb(74, 216, 157)" stroke-opacity="0.013236858" stroke-linecap="round" stroke-linejoin="round"/>
    <path d="M 95.52912902832031 103.2654037475586 C 95.24966430664062 88.8808364868164 94.08379364013672 92.24414825439453 99.72114562988281 92.44206237792969 C 88.57231903076172 98.51365661621094 101.4894027709961 113.9456787109375 99.8408203125 103.55775451660156 C 106.27156829833984 73.72008514404297 94.74678802490234 98.73439025878906 96.57827758789062 91.26678466796875 C 88.89030456542969 99.84835815429688 92.7801284790039 105.18124389648438 95.52912902832031 103.2654037475586" stroke-width="0.0" fill="rgb(22, 33, 64)" opacity="0.82947546" stroke="rgb(88, 37, 250)" stroke-opacity="0.4783703" stroke-linecap="round" stroke-linejoin="round"/>
    <path d="M 140.6269989013672 74.2442398071289 C 125.87065124511719 84.50949096679688 124.23652648925781 85.8219223022461 143.63894653320312 77.3986587524414 C 120.60111236572266 83.14537811279297 112.05091857910156 75.95636749267578 123.72978210449219 78.13062286376953 C 131.60931396484375 82.78787994384766 131.9793243408203 82.59066009521484 122.38094329833984 72.26480102539062 C 118.93670654296875 68.79594421386719 129.22084045410156 68.2165756225586 140.6269989013672 74.2442398071289" stroke-width="0.0" fill="rgb(154, 101, 100)" opacity="0.77075917" stroke="rgb(126, 163, 93)" stroke-opacity="0.13690028" stroke-linecap="round" stroke-linejoin="round"/>
    <path d="M 119.16455841064453 39.938568115234375 C 120.73145294189453 37.228084564208984 117.54386901855469 33.57542419433594 106.59001922607422 44.45726776123047 C 111.48186492919922 39.24106216430664 111.85016632080078 33.71167755126953 109.84777069091797 42.67155456542969 C 114.49282836914062 43.29632568359375 113.30699920654297 31.18854331970215 118.93778991699219 30.169782638549805 C 106.91070556640625 36.64577865600586 104.25463104248047 45.340633392333984 119.16455841064453 39.938568115234375" stroke-width="0.0" fill="rgb(121, 108, 124)" opacity="0.5135872" stroke="rgb(209, 48, 130)" stroke-opacity="0.22431703" stroke-linecap="round" stroke-linejoin="round"/>
    <path d="M 110.4752426147461 46.58855438232422 C 114.86901092529297 48.27958297729492 105.04832458496094 49.299137115478516 111.8102798461914 55.87807846069336 C 107.13433837890625 47.64982986450195 109.83074951171875 44.83037185668945 112.63311767578125 48.57941436767578 C 106.03226470947266 48.76560592651367 110.73175048828125 49.0606575012207 111.00746154785156 46.539527893066406 C 101.91046905517578 49.26674270629883 113.70420837402344 53.19041442871094 110.4752426147461 46.58855438232422" stroke-width="0.0" fill="rgb(110, 114, 117)" opacity="0.562674" stroke="rgb(24, 219, 248)" stroke-opacity="0.9608347" stroke-linecap="round" stroke-linejoin="round"/>
    <path d="M 38.69060516357422 128.5902099609375 C 36.59102249145508 127.48887634277344 43.93278503417969 127.2496566772461 35.56745910644531 125.21601867675781 C 32.62122344970703 123.40180206298828 40.84965133666992 118.69068908691406 40.617191314697266 119.19549560546875 C 31.4923038482666 122.94891357421875 35.558448791503906 126.14254760742188 36.31536102294922 112.44283294677734 C 42.56256866455078 112.14793395996094 36.417320251464844 110.42404174804688 38.69060516357422 128.5902099609375" stroke-width="0.0" fill="rgb(252, 226, 152)" opacity="0.9999127" stroke="rgb(231, 197, 84)" stroke-opacity="0.08110139" stroke-linecap="round" stroke-linejoin="round"/>
    <path d="M 130.14520263671875 48.791046142578125 C 121.41350555419922 31.200456619262695 120.83686828613281 33.080589294433594 119.96471405029297 23.13143539428711 C 117.38472747802734 32.07666015625 107.3898696899414 29.788166046142578 117.77092742919922 49.70988845825195 C 119.73359680175781 40.59346008300781 118.4367904663086 38.40899658203125 128.91390991210938 32.72809982299805 C 112.57048797607422 38.396507263183594 128.7432403564453 35.698856353759766 130.14520263671875 48.791046142578125" stroke-width="0.0" fill="rgb(73, 81, 90)" opacity="0.9957075" stroke="rgb(103, 59, 33)" stroke-opacity="0.053427182" stroke-linecap="round" stroke-linejoin="round"/>
    <path d="M 59.141578674316406 40.78205871582031 C 59.60795974731445 31.592529296875 59.650325775146484 35.09421920776367 57.98734664916992 34.48787307739258 C 61.73891830444336 42.71615982055664 48.407554626464844 42.00834274291992 52.20977783203125 35.51691436767578 C 53.252437591552734 28.634408950805664 56.75617980957031 25.8165340423584 59.718536376953125 33.64531707763672 C 58.83452606201172 39.71662902832031 58.22102355957031 44.08682632446289 59.141578674316406 40.78205871582031" stroke-width="0.0" fill="rgb(254, 232, 192)" opacity="0.85052866" stroke="rgb(185, 2, 196)" stroke-opacity="0.14694664" stroke-linecap="round" stroke-linejoin="round"/>
    <path d="M 143.27919006347656 125.19435119628906 C 94.96651458740234 122.03350830078125 94.9229965209961 127.06163024902344 100.47667694091797 120.27857971191406 C 96.19926452636719 123.6174087524414 99.36548614501953 123.79438018798828 97.4640121459961 125.20780944824219 C 100.13285827636719 117.53060913085938 98.71853637695312 118.08126831054688 99.46060943603516 121.24734497070312 C 98.42780303955078 126.48860931396484 86.64110565185547 124.48255157470703 143.27919006347656 125.19435119628906" stroke-width="0.0" fill="rgb(111, 92, 78)" opacity="0.90470076" stroke="rgb(20, 22, 171)" stroke-opacity="0.24536721" stroke-linecap="round" stroke-linejoin="round"/>
    <path d="M 118.11650848388672 40.526546478271484 C 116.48922729492188 38.418975830078125 108.1535415649414 49.73895263671875 108.80583190917969 43.060550689697266 C 112.68812561035156 41.26601791381836 109.52188873291016 40.38435363769531 107.9559555053711 46.8209228515625 C 106.31133270263672 51.343624114990234 109.57562255859375 46.66701126098633 114.6171875 43.40797424316406 C 117.14437866210938 47.66704177856445 113.64529418945312 37.275325775146484 118.11650848388672 40.526546478271484" stroke-width="0.0" fill="rgb(122, 169, 84)" opacity="0.36887288" stroke="rgb(107, 142, 219)" stroke-opacity="0.7270443" stroke-linecap="round" stroke-linejoin="round"/>
    <path d="M 56.99996566772461 21.606748580932617 C 56.77473068237305 18.831647872924805 61.179500579833984 25.462621688842773 62.576385498046875 37.349979400634766 C 63.753055572509766 41.076622009277344 48.87897491455078 43.10462951660156 49.566871643066406 34.629398345947266 C 52.68561553955078 19.140409469604492 59.4797248840332 15.705544471740723 56.087100982666016 24.837953567504883 C 55.14326477050781 26.821414947509766 55.46737289428711 26.625656127929688 56.99996566772461 21.606748580932617" stroke-width="0.0" fill="rgb(255, 253, 176)" opacity="0.7582299" stroke="rgb(68, 33, 14)" stroke-opacity="0.30159864" stroke-linecap="round" stroke-linejoin="round"/>
    <path d="M 127.85405731201172 74.48727416992188 C 138.08099365234375 82.4066162109375 122.7864990234375 75.75738525390625 117.1634750366211 80.35811614990234 C 128.03518676757812 83.06200408935547 118.20185852050781 77.42354583740234 119.271484375 86.19253540039062 C 121.03809356689453 86.28134155273438 120.40792083740234 84.7636947631836 106.59746551513672 84.49169921875 C 127.10562133789062 92.21466827392578 126.73918151855469 81.36419677734375 127.85405731201172 74.48727416992188" stroke-width="0.0" fill="rgb(202, 158, 43)" opacity="0.25768462" stroke="rgb(66, 116, 174)" stroke-opacity="0.6956254" stroke-linecap="round" stroke-linejoin="round"/>
    <path d="M 127.0059814453125 76.57772064208984 C 120.45665740966797 70.14423370361328 116.62222290039062 74.17804718017578 121.49000549316406 69.19047546386719 C 118.28006744384766 77.55484008789062 113.23749542236328 74.5671157836914 119.57258605957031 80.67741394042969 C 118.0907211303711 82.48133087158203 121.24090576171875 78.58226776123047 114.44728088378906 75.39136505126953 C 115.60100555419922 74.10800170898438 124.6056137084961 71.69314575195312 127.0059814453125 76.57772064208984" stroke-width="0.0" fill="rgb(94, 87, 67)" opacity="0.76367146" stroke="rgb(72, 96, 46)" stroke-opacity="0.7885455" stroke-linecap="round" stroke-linejoin="round"/>
    <path d="M 26.63079261779785 82.88947296142578 C 25.661211013793945 83.27815246582031 28.482572555541992 84.30238342285156 25.55168342590332 84.66157531738281 C 24.42620849609375 85.5811538696289 31.131166458129883 82.97820281982422 27.702795028686523 82.75232696533203 C 28.21916961669922 91.06716918945312 27.650959014892578 89.26651763916016 25.3846378326416 84.68978118896484 C 27.852519989013672 88.90609741210938 26.468364715576172 91.55078125 26.63079261779785 82.88947296142578" stroke-width="0.0" fill="rgb(222, 211, 189)" opacity="0.81935036" stroke="rgb(14, 177, 198)" stroke-opacity="0.7774076" stroke-linecap="round" stroke-linejoin="round"/>
    <path d="M 116.50852966308594 124.4533462524414 C 120.67924499511719 124.79447174072266 116.83075714111328 124.428955078125 117.96017456054688 124.48631286621094 C 136.64430236816406 124.29932403564453 128.738525390625 125.46049499511719 130.06983947753906 125.75959777832031 C 135.6453857421875 126.27893829345703 141.63868713378906 125.42133331298828 125.42218780517578 124.99382781982422 C 116.41361236572266 124.34163665771484 120.16134643554688 125.980712890625 116.50852966308594 124.4533462524414" stroke-width="0.0" fill="rgb(135, 117, 100)" opacity="0.85992646" stroke="rgb(66, 95, 149)" stroke-opacity="0.2728219" stroke-linecap="round" stroke-linejoin="round"/>
    <path d="M 51.168392181396484 19.284982681274414 C 57.20170211791992 20.90856170654297 47.19984436035156 23.04623794555664 53.489688873291016 20.183292388916016 C 49.418792724609375 23.24431800842285 50.7406120300293 17.217044830322266 54.71082305908203 18.46646499633789 C 52.54020309448242 18.76643943786621 51.219154357910156 17.29788589477539 51.062705993652344 21.43864631652832 C 50.204288482666016 18.246517181396484 50.71247100830078 19.927318572998047 51.168392181396484 19.284982681274414" stroke-width="0.0" fill="rgb(76, 107, 52)" opacity="0.7309697" stroke="rgb(94, 50, 117)" stroke-opacity="0.0446123" stroke-linecap="round" stroke-linejoin="round"/>
    <path d="M 71.38610076904297 114.0171127319336 C 70.61466979980469 118.2203369140625 69.9754409790039 114.70806121826172 69.7755126953125 111.92499542236328 C 71.26404571533203 112.64839172363281 73.0930404663086 109.7232894897461 70.8680648803711 118.81837463378906 C 73.04039001464844 132.70907592773438 73.75862121582031 118.24951171875 71.82740020751953 114.9513931274414 C 72.07849884033203 118.5195541381836 70.24476623535156 116.31187438964844 71.38610076904297 114.0171127319336" stroke-width="0.0" fill="rgb(253, 221, 135)" opacity="0.9118364" stroke="rgb(203, 19, 132)" stroke-opacity="0.3068101" stroke-linecap="round" stroke-linejoin="round"/>
    <path d="M 50.997474670410156 17.16546058654785 C 53.570770263671875 17.389127731323242 50.952720642089844 16.218841552734375 50.13383865356445 19.472103118896484 C 49.39131546020508 20.31658172607422 50.80919647216797 17.787446975708008 49.28357696533203 18.397167205810547 C 49.596805572509766 18.001131057739258 52.24522399902344 18.550033569335938 51.26371765136719 15.899916648864746 C 48.757110595703125 21.51785659790039 46.84860610961914 27.718435287475586 50.997474670410156 17.16546058654785" stroke-width="0.0" fill="rgb(19, 77, 8)" opacity="0.72695553" stroke="rgb(147, 244, 164)" stroke-opacity="0.035362437" stroke-linecap="round" stroke-linejoin="round"/>
    <path d="M 60.49173355102539 15.376588821411133 C 55.65208053588867 18.730798721313477 49.351341247558594 26.506574630737305 46.78414535522461 24.832550048828125 C 50.12785339355469 40.9023551940918 44.587764739990234 20.648395538330078 51.566829681396484 14.571385383605957 C 59.269752502441406 10.961874961853027 68.15704345703125 23.01084327697754 55.16437530517578 24.028724670410156 C 59.795806884765625 23.46070098876953 65.72718811035156 21.37307357788086 60.49173355102539 15.376588821411133" stroke-width="0.0" fill="rgb(101, 209, 0)" opacity="0.89195615" stroke="rgb(109, 130, 136)" stroke-opacity="0.6813925" stroke-linecap="round" stroke-linejoin="round"/>
    <path d="M 47.20030975341797 119.8119888305664 C 47.099708557128906 110.84268188476562 45.76747512817383 117.39571380615234 43.65687561035156 119.11250305175781 C 43.08269119262695 114.85762023925781 47.071929931640625 110.3257064819336 48.47151184082031 123.9862289428711 C 51.23733139038086 120.8868179321289 49.08839416503906 116.98770904541016 50.9762077331543 112.50260162353516 C 47.28691101074219 108.95509338378906 47.99297332763672 122.54044342041016 47.20030975341797 119.8119888305664" stroke-width="0.0" fill="rgb(251, 229, 149)" opacity="1.0" stroke="rgb(70, 32, 100)" stroke-opacity="0.9564057" stroke-linecap="round" stroke-linejoin="round"/>
    <path d="M 48.16455841064453 120.19239807128906 C 33.867340087890625 119.58648681640625 38.005760192871094 121.95612335205078 38.44422149658203 112.44248962402344 C 51.53438949584961 112.90387725830078 49.36500930786133 112.85263061523438 40.75183868408203 115.69123077392578 C 38.280887603759766 117.26156616210938 40.297828674316406 112.1271743774414 40.067405700683594 116.05562591552734 C 54.133548736572266 112.78736114501953 46.471126556396484 108.82621002197266 48.16455841064453 120.19239807128906" stroke-width="0.0" fill="rgb(66, 74, 99)" opacity="0.98375934" stroke="rgb(47, 230, 138)" stroke-opacity="0.4569114" stroke-linecap="round" stroke-linejoin="round"/>
    <path d="M 55.87024688720703 37.297611236572266 C 61.121952056884766 37.69524002075195 65.653564453125 37.2233772277832 47.568458557128906 35.478206634521484 C 47.31227111816406 29.903440475463867 56.81866455078125 8.26162338256836 58.23743438720703 28.24860954284668 C 65.06957244873047 30.957870483398438 58.2539176940918 17.554534912109375 55.44169998168945 20.27254295349121 C 59.314701080322266 22.187440872192383 58.80982208251953 31.26502799987793 55.87024688720703 37.297611236572266" stroke-width="0.0" fill="rgb(255, 247, 181)" opacity="0.78018856" stroke="rgb(224, 116, 184)" stroke-opacity="0.39902532" stroke-linecap="round" stroke-linejoin="round"/>
    <path d="M 122.52973175048828 80.07872009277344 C 116.9600601196289 82.31733703613281 111.97846221923828 84.80362701416016 112.65654754638672 84.64877319335938 C 115.95968627929688 76.4550552368164 116.78021240234375 72.36205291748047 117.35340118408203 71.06611633300781 C 115.47549438476562 80.28649139404297 117.14733123779297 80.4647445678711 116.73944854736328 82.96705627441406 C 110.62677001953125 81.45047760009766 115.26534271240234 81.64923095703125 122.52973175048828 80.07872009277344" stroke-width="0.0" fill="rgb(164, 145, 54)" opacity="0.87597454" stroke="rgb(230, 175, 178)" stroke-opacity="0.3277204" stroke-linecap="round" stroke-linejoin="round"/>
    <path d="M 63.91849136352539 23.890722274780273 C 60.928707122802734 18.06488037109375 55.810585021972656 6.867553234100342 62.756996154785156 19.578401565551758 C 62.55350875854492 19.170623779296875 62.07543182373047 18.10431480407715 66.32304382324219 27.53030776977539 C 70.73001861572266 54.311893463134766 66.78628540039062 33.2102165222168 55.281925201416016 12.389913558959961 C 63.35875701904297 10.596562385559082 61.431419372558594 19.981178283691406 63.91849136352539 23.890722274780273" stroke-width="0.0" fill="rgb(112, 216, 0)" opacity="0.71106535" stroke="rgb(192, 162, 61)" stroke-opacity="0.16053882" stroke-linecap="round" stroke-linejoin="round"/>
    <path d="M 111.51618957519531 44.0612907409668 C 120.40912628173828 35.2449836730957 115.38835906982422 41.96235656738281 109.54283142089844 44.60679626464844 C 117.20723724365234 46.552528381347656 111.12792205810547 50.84135818481445 107.4848861694336 49.78665542602539 C 104.74929809570312 43.52338409423828 122.28934478759766 43.06138229370117 116.48772430419922 34.12989044189453 C 117.59611511230469 44.293243408203125 123.91228485107422 32.37062454223633 111.51618957519531 44.0612907409668" stroke-width="0.0" fill="rgb(147, 223, 27)" opacity="0.8610179" stroke="rgb(203, 244, 116)" stroke-opacity="0.59098417" stroke-linecap="round" stroke-linejoin="round"/>
    <path d="M 48.699302673339844 6.953272342681885 C 54.14152908325195 8.867654800415039 57.214759826660156 6.105648517608643 53.27942657470703 8.302202224731445 C 55.42534255981445 11.534201622009277 59.59829330444336 9.155288696289062 57.655582427978516 9.216973304748535 C 54.59813690185547 9.441346168518066 56.4167366027832 9.37084674835205 65.10480499267578 6.103479385375977 C 52.92686462402344 10.640839576721191 56.28212356567383 9.021855354309082 48.699302673339844 6.953272342681885" stroke-width="0.0" fill="rgb(86, 87, 137)" opacity="0.48826724" stroke="rgb(218, 116, 242)" stroke-opacity="0.5757512" stroke-linecap="round" stroke-linejoin="round"/>
    <path d="M 63.098934173583984 23.112974166870117 C 64.18099975585938 23.24805450439453 58.11286926269531 22.475950241088867 62.52458190917969 23.049657821655273 C 67.74191284179688 22.808063507080078 64.80512237548828 22.944110870361328 63.067176818847656 23.025957107543945 C 65.92891693115234 34.79461669921875 62.53783416748047 21.048494338989258 62.21754837036133 19.27973175048828 C 62.7013053894043 21.521848678588867 63.96806716918945 26.869897842407227 63.098934173583984 23.112974166870117" stroke-width="0.0" fill="rgb(114, 203, 14)" opacity="0.88799065" stroke="rgb(209, 231, 207)" stroke-opacity="0.15941447" stroke-linecap="round" stroke-linejoin="round"/>
    <path d="M 63.57003402709961 4.6194167137146 C 58.726348876953125 5.838791370391846 54.46525955200195 6.872561454772949 60.306365966796875 5.447007656097412 C 67.91067504882812 3.450392484664917 60.05369186401367 3.2802557945251465 67.54044342041016 9.79761028289795 C 56.9804573059082 -1.2946984767913818 52.422367095947266 0.843701183795929 56.352542877197266 -0.5210983753204346 C 60.76233673095703 3.7190194129943848 67.30271911621094 9.793598175048828 63.57003402709961 4.6194167137146" stroke-width="0.0" fill="rgb(128, 130, 139)" opacity="0.87896156" stroke="rgb(160, 101, 15)" stroke-opacity="0.42403224" stroke-linecap="round" stroke-linejoin="round"/>
    <path d="M 49.18082809448242 43.75411605834961 C 46.18357849121094 38.48682403564453 49.32859802246094 39.2407341003418 52.446720123291016 38.33745193481445 C 56.57776641845703 34.78305435180664 44.8723258972168 38.813140869140625 49.413230895996094 47.123809814453125 C 45.05437469482422 29.155948638916016 47.54486846923828 29.587739944458008 52.364158630371094 18.42315101623535 C 37.98479461669922 28.79597282409668 43.68360137939453 45.14731216430664 49.18082809448242 43.75411605834961" stroke-width="0.0" fill="rgb(108, 223, 0)" opacity="0.80433404" stroke="rgb(65, 216, 8)" stroke-opacity="0.9589827" stroke-linecap="round" stroke-linejoin="round"/>
    <path d="M 57.814964294433594 124.15039825439453 C 57.26850128173828 124.96100616455078 36.61906051635742 122.76115417480469 36.3847770690918 124.89411163330078 C 57.544193267822266 125.79905700683594 54.80924606323242 123.34451293945312 67.59706115722656 124.11272430419922 C 84.16936492919922 122.82587432861328 75.54623413085938 127.09771728515625 87.85826873779297 123.75743865966797 C 51.66907501220703 126.74803924560547 57.296417236328125 123.67525482177734 57.814964294433594 124.15039825439453" stroke-width="0.0" fill="rgb(117, 111, 89)" opacity="0.971459" stroke="rgb(90, 90, 4)" stroke-opacity="0.18523233" stroke-linecap="round" stroke-linejoin="round"/>
    <path d="M 49.611637115478516 17.33397102355957 C 47.85840606689453 19.128440856933594 45.93275451660156 22.161832809448242 53.28337097167969 28.045856475830078 C 45.14012145996094 21.6527099609375 48.896297454833984 17.61403465270996 49.96506881713867 16.419649124145508 C 47.24488067626953 19.131439208984375 50.730323791503906 16.950016021728516 45.76419448852539 17.425458908081055 C 48.122833251953125 17.57093620300293 49.312583923339844 17.553098678588867 49.611637115478516 17.33397102355957" stroke-width="0.0" fill="rgb(40, 72, 34)" opacity="0.35985544" stroke="rgb(102, 236, 25)" stroke-opacity="0.94530153" stroke-linecap="round" stroke-linejoin="round"/>
    <path d="M 61.319480895996094 41.114280700683594 C 60.98344802856445 35.66971206665039 61.97583770751953 35.73488235473633 64.89631652832031 33.57810592651367 C 64.8462142944336 44.536869049072266 65.30765533447266 43.98228073120117 64.93984985351562 37.34870910644531 C 67.0830307006836 37.847389221191406 69.04100799560547 38.30613708496094 58.3264274597168 35.819541931152344 C 56.880088806152344 38.329254150390625 63.541324615478516 39.2898063659668 61.319480895996094 41.114280700683594" stroke-width="0.0" fill="rgb(89, 183, 0)" opacity="0.863756" stroke="rgb(221, 115, 83)" stroke-opacity="0.23274413" stroke-linecap="round" stroke-linejoin="round"/>
    <path d="M 57.51752471923828 25.968446731567383 C 57.97441101074219 27.974565505981445 60.8415641784668 30.20965003967285 63.53689956665039 32.61603927612305 C 57.99046325683594 27.85314178466797 57.505950927734375 25.621213912963867 56.664398193359375 24.80791473388672 C 57.88057327270508 27.3433780670166 57.72856521606445 24.221397399902344 57.56815719604492 23.72220230102539 C 57.377525329589844 22.86174774169922 57.647735595703125 25.29267692565918 57.51752471923828 25.968446731567383" stroke-width="0.0" fill="rgb(212, 245, 111)" opacity="0.6597647" stroke="rgb(156, 8, 3)" stroke-opacity="0.42879573" stroke-linecap="round" stroke-linejoin="round"/>
    <path d="M 42.3896598815918 37.640071868896484 C 42.4473991394043 33.57782745361328 43.719112396240234 33.75333786010742 42.9017333984375 31.430543899536133 C 42.12431716918945 36.680824279785156 41.54874801635742 34.84402084350586 45.101348876953125 43.558658599853516 C 43.88240432739258 41.87577819824219 40.935516357421875 38.457881927490234 37.79920959472656 36.40538024902344 C 44.96941375732422 42.386112213134766 43.02781677246094 37.995548248291016 42.3896598815918 37.640071868896484" stroke-width="0.0" fill="rgb(0, 6, 32)" opacity="0.8085924" stroke="rgb(17, 64, 56)" stroke-opacity="0.2531912" stroke-linecap="round" stroke-linejoin="round"/>
    <path d="M 134.03125 73.54935455322266 C 126.31147003173828 79.31719970703125 127.15572357177734 82.95171356201172 130.62933349609375 85.05076599121094 C 130.94277954101562 61.74247741699219 133.74349975585938 73.29039001464844 123.06171417236328 73.6091537475586 C 116.28421020507812 73.38714599609375 122.45134735107422 73.58772277832031 130.82618713378906 73.85977935791016 C 132.77398681640625 66.93025970458984 134.21153259277344 72.3561019897461 134.03125 73.54935455322266" stroke-width="0.0" fill="rgb(158, 116, 89)" opacity="0.96090674" stroke="rgb(33, 3, 29)" stroke-opacity="0.61848027" stroke-linecap="round" stroke-linejoin="round"/>
    <path d="M 66.28408813476562 21.53829002380371 C 68.85466003417969 16.754453659057617 63.788978576660156 21.30431365966797 69.14891052246094 19.510019302368164 C 65.18018341064453 19.983570098876953 65.22383880615234 22.77706527709961 66.7228012084961 21.67137336730957 C 70.0278091430664 31.620561599731445 70.06248474121094 29.765634536743164 67.38899230957031 24.73859977722168 C 66.16629791259766 24.859577178955078 67.99102020263672 21.355743408203125 66.28408813476562 21.53829002380371" stroke-width="0.0" fill="rgb(56, 56, 91)" opacity="0.8404362" stroke="rgb(248, 252, 104)" stroke-opacity="0.16295442" stroke-linecap="round" stroke-linejoin="round"/>
    <path d="M 54.86394119262695 46.41328430175781 C 58.597633361816406 47.20170974731445 48.74260330200195 40.70243835449219 50.50288009643555 36.647743225097656 C 47.46438980102539 40.74940490722656 45.71731185913086 40.544830322265625 47.78902053833008 29.926544189453125 C 49.13362121582031 46.247066497802734 50.79404067993164 34.84834289550781 55.0155029296875 41.3187255859375 C 45.520286560058594 31.29563331604004 45.363773345947266 42.72536087036133 54.86394119262695 46.41328430175781" stroke-width="0.0" fill="rgb(55, 115, 0)" opacity="0.54453236" stroke="rgb(162, 125, 252)" stroke-opacity="0.065304205" stroke-linecap="round" stroke-linejoin="round"/>
    <path d="M 61.1447639465332 35.44377899169922 C 52.3671875 38.476539611816406 54.833492279052734 40.407588958740234 57.30521774291992 42.028018951416016 C 61.99297332763672 44.27914047241211 49.79334259033203 48.61133575439453 56.02566909790039 47.12910461425781 C 62.76433563232422 49.47678756713867 62.88508987426758 46.645751953125 61.434959411621094 43.78542709350586 C 54.68266296386719 45.17769241333008 71.68942260742188 42.88341522216797 61.1447639465332 35.44377899169922" stroke-width="0.0" fill="rgb(91, 163, 7)" opacity="0.8574232" stroke="rgb(199, 73, 61)" stroke-opacity="0.66250455" stroke-linecap="round" stroke-linejoin="round"/>
    <path d="M 42.2732048034668 40.99399185180664 C 41.47356414794922 38.11943054199219 43.59300231933594 36.93695831298828 42.080596923828125 33.30488967895508 C 43.28190231323242 27.234947204589844 44.706119537353516 25.12862205505371 43.34739303588867 31.1892147064209 C 41.35152816772461 28.401823043823242 41.774566650390625 30.675962448120117 43.14059829711914 35.92707061767578 C 43.3037109375 39.65424346923828 42.74824142456055 37.37894058227539 42.2732048034668 40.99399185180664" stroke-width="0.0" fill="rgb(7, 24, 36)" opacity="0.75511825" stroke="rgb(62, 169, 131)" stroke-opacity="0.42408898" stroke-linecap="round" stroke-linejoin="round"/>
    <path d="M 61.122310638427734 46.230621337890625 C 61.766357421875 36.58243179321289 57.20732116699219 43.04925537109375 54.265846252441406 47.74102020263672 C 57.223140716552734 40.48997497558594 54.811851501464844 35.49155807495117 53.64362716674805 38.80720520019531 C 53.123130798339844 39.0677375793457 56.40890121459961 39.36007308959961 55.374168395996094 45.34742736816406 C 53.59217834472656 44.36543273925781 55.02006149291992 45.33515930175781 61.122310638427734 46.230621337890625" stroke-width="0.0" fill="rgb(51, 148, 0)" opacity="0.7675134" stroke="rgb(141, 73, 180)" stroke-opacity="0.41485688" stroke-linecap="round" stroke-linejoin="round"/>
    <path d="M 50.619972229003906 35.406524658203125 C 53.857383728027344 34.176246643066406 55.33695602416992 39.96707534790039 58.34131622314453 36.982704162597656 C 48.377925872802734 35.659912109375 47.66707992553711 37.524715423583984 49.852081298828125 38.22314453125 C 52.744529724121094 37.35782241821289 55.02255630493164 34.62293243408203 60.146095275878906 34.54319763183594 C 50.02680206298828 38.6948127746582 49.5573616027832 37.40522003173828 50.619972229003906 35.406524658203125" stroke-width="0.0" fill="rgb(190, 213, 83)" opacity="0.8695347" stroke="rgb(91, 211, 235)" stroke-opacity="0.04600731" stroke-linecap="round" stroke-linejoin="round"/>
    <path d="M 57.55210494995117 38.12965774536133 C 54.377384185791016 43.523155212402344 58.83323669433594 39.27973556518555 55.56991195678711 21.728208541870117 C 51.248077392578125 32.3574104309082 47.18660354614258 36.899749755859375 50.78464889526367 29.905744552612305 C 58.509117126464844 32.80239486694336 49.197898864746094 25.833343505859375 48.957252502441406 36.04952621459961 C 56.65587615966797 42.80302047729492 58.873252868652344 42.388431549072266 57.55210494995117 38.12965774536133" stroke-width="0.0" fill="rgb(255, 244, 179)" opacity="0.95468044" stroke="rgb(59, 88, 207)" stroke-opacity="0.98549145" stroke-linecap="round" stroke-linejoin="round"/>
    <path d="M 130.10121154785156 79.38636016845703 C 132.52511596679688 85.98088073730469 125.61054992675781 87.0361557006836 137.27903747558594 86.11992645263672 C 135.8538818359375 87.34716796875 107.49282836914062 85.46553802490234 111.35873413085938 86.35775756835938 C 113.95372009277344 71.99520111083984 114.48838806152344 74.65516662597656 115.76258850097656 75.37297058105469 C 136.54330444335938 74.46404266357422 149.08729553222656 69.4086685180664 130.10121154785156 79.38636016845703" stroke-width="0.0" fill="rgb(129, 117, 27)" opacity="0.93935126" stroke="rgb(247, 230, 75)" stroke-opacity="0.99201125" stroke-linecap="round" stroke-linejoin="round"/>
    <path d="M 139.96493530273438 76.4159164428711 C 130.39639282226562 78.87225341796875 122.26740264892578 80.9504623413086 137.5301971435547 80.58428955078125 C 116.99877166748047 73.29521942138672 109.19291687011719 80.75405883789062 114.47868347167969 74.47220611572266 C 116.86376190185547 70.93172454833984 118.97394561767578 69.60799407958984 118.95220184326172 63.100162506103516 C 129.06044006347656 62.47362518310547 138.9859161376953 59.62533950805664 139.96493530273438 76.4159164428711" stroke-width="0.0" fill="rgb(27, 38, 69)" opacity="0.99859875" stroke="rgb(63, 27, 242)" stroke-opacity="0.23342025" stroke-linecap="round" stroke-linejoin="round"/>
    <path d="M 118.53488159179688 33.62166213989258 C 120.3689956665039 26.392637252807617 121.4456558227539 41.0363655090332 116.44805908203125 38.0461540222168 C 118.93413543701172 33.3560905456543 113.7196044921875 42.9403076171875 119.2154541015625 31.917707443237305 C 118.56929779052734 30.427927017211914 116.18585968017578 37.438724517822266 115.21087646484375 39.01473617553711 C 115.9018325805664 39.910377502441406 117.69043731689453 34.81991195678711 118.53488159179688 33.62166213989258" stroke-width="0.0" fill="rgb(129, 190, 63)" opacity="0.88617605" stroke="rgb(175, 14, 186)" stroke-opacity="0.8817202" stroke-linecap="round" stroke-linejoin="round"/>
    <path d="M 53.99036407470703 37.177242279052734 C 56.91859436035156 45.42169952392578 57.11507797241211 46.07666015625 59.00619888305664 41.85250473022461 C 61.15442657470703 40.1489143371582 51.87855911254883 41.75159454345703 52.9850959777832 39.5959587097168 C 54.0688362121582 38.546653747558594 55.41170883178711 37.40892791748047 59.489463806152344 43.04323196411133 C 59.341087341308594 36.07596969604492 55.56174087524414 34.746089935302734 53.99036407470703 37.177242279052734" stroke-width="0.0" fill="rgb(205, 215, 119)" opacity="0.8851718" stroke="rgb(69, 96, 95)" stroke-opacity="0.74878824" stroke-linecap="round" stroke-linejoin="round"/>
    <path d="M 136.10107421875 89.65390014648438 C 130.6197509765625 91.420166015625 124.53628540039062 94.14655303955078 132.17816162109375 95.21363830566406 C 131.53013610839844 93.78639221191406 130.2488250732422 90.93765258789062 130.09156799316406 88.2459716796875 C 130.86074829101562 100.91802215576172 133.05784606933594 98.91289520263672 133.24334716796875 97.31723022460938 C 128.88401794433594 93.9822998046875 131.75625610351562 86.94036865234375 136.10107421875 89.65390014648438" stroke-width="0.0" fill="rgb(235, 213, 168)" opacity="0.93012357" stroke="rgb(60, 43, 114)" stroke-opacity="0.3044684" stroke-linecap="round" stroke-linejoin="round"/>
    <path d="M 124.90132141113281 39.838443756103516 C 116.632568359375 37.43624496459961 116.13484191894531 46.808746337890625 117.3636703491211 43.69667053222656 C 96.12022399902344 49.6490592956543 86.54672241210938 40.422420501708984 114.1272201538086 37.27201461791992 C 124.01085662841797 39.50162124633789 119.03642272949219 37.038330078125 98.91931915283203 -8.001431465148926 C 143.7827911376953 5.346222400665283 110.79273986816406 16.179845809936523 124.90132141113281 39.838443756103516" stroke-width="0.0" fill="rgb(93, 96, 114)" opacity="0.66867256" stroke="rgb(213, 60, 128)" stroke-opacity="0.9425836" stroke-linecap="round" stroke-linejoin="round"/>
    <path d="M 67.83340454101562 34.94599533081055 C 67.34791564941406 49.04669952392578 53.455909729003906 50.376922607421875 53.038856506347656 46.91648864746094 C 67.50127410888672 43.18412780761719 50.02328872680664 46.83549499511719 52.70052719116211 47.13898468017578 C 42.46381378173828 40.724430084228516 52.16923904418945 45.28992462158203 58.0922966003418 44.56843948364258 C 55.757938385009766 48.16046142578125 60.643524169921875 43.161720275878906 67.83340454101562 34.94599533081055" stroke-width="0.0" fill="rgb(107, 217, 0)" opacity="0.7621164" stroke="rgb(161, 221, 239)" stroke-opacity="0.75076485" stroke-linecap="round" stroke-linejoin="round"/>
    <path d="M 135.55833435058594 79.80747985839844 C 116.4595947265625 82.72235107421875 116.42829132080078 84.66046905517578 137.15045166015625 83.01528930664062 C 134.46170043945312 83.39321899414062 128.94815063476562 80.38124084472656 129.76760864257812 71.64724731445312 C 127.78254699707031 80.9331283569336 132.93218994140625 83.18771362304688 135.90370178222656 82.04752349853516 C 130.67442321777344 73.9721450805664 132.86181640625 73.6727523803711 135.55833435058594 79.80747985839844" stroke-width="0.0" fill="rgb(127, 112, 23)" opacity="0.88485044" stroke="rgb(178, 246, 253)" stroke-opacity="0.45182168" stroke-linecap="round" stroke-linejoin="round"/>
    <path d="M 118.91010284423828 36.897830963134766 C 116.55408477783203 49.53197479248047 111.32477569580078 44.68533706665039 115.77802276611328 49.68747329711914 C 121.73033905029297 43.3414306640625 111.14356231689453 32.251678466796875 113.23343658447266 37.95371627807617 C 104.44802856445312 39.90346145629883 104.19464874267578 28.721248626708984 115.98568725585938 37.072235107421875 C 115.02155303955078 31.886070251464844 123.38713073730469 31.360889434814453 118.91010284423828 36.897830963134766" stroke-width="0.0" fill="rgb(141, 226, 30)" opacity="0.7826595" stroke="rgb(18, 74, 38)" stroke-opacity="0.41748637" stroke-linecap="round" stroke-linejoin="round"/>
    <path d="M 118.6524658203125 45.289241790771484 C 118.15370178222656 47.135528564453125 113.95188903808594 46.355323791503906 117.34728240966797 49.63200378417969 C 111.05223083496094 51.58068084716797 111.28684997558594 50.325843811035156 116.07427978515625 50.418540954589844 C 105.01631927490234 51.85139846801758 119.71714782714844 53.197479248046875 112.43781280517578 52.500511169433594 C 115.83467102050781 53.43943405151367 116.4175796508789 47.330509185791016 118.6524658203125 45.289241790771484" stroke-width="0.0" fill="rgb(94, 98, 106)" opacity="0.48534614" stroke="rgb(33, 154, 97)" stroke-opacity="0.89538586" stroke-linecap="round" stroke-linejoin="round"/>
    <path d="M 52.66649627685547 45.902099609375 C 62.18901824951172 40.83163833618164 53.39789962768555 41.26861572265625 59.97808837890625 44.5168571472168 C 57.576210021972656 47.42213821411133 51.69356155395508 46.051597595214844 44.47636032104492 36.58493423461914 C 44.218631744384766 52.88042068481445 64.7077865600586 42.86553955078125 57.955780029296875 46.331504821777344 C 52.321502685546875 46.621734619140625 56.26946258544922 46.50210189819336 52.66649627685547 45.902099609375" stroke-width="0.0" fill="rgb(110, 220, 0)" opacity="0.7078745" stroke="rgb(246, 139, 70)" stroke-opacity="0.59223044" stroke-linecap="round" stroke-linejoin="round"/>
    <path d="M 63.7959098815918 37.69564437866211 C 60.75759506225586 47.850975036621094 46.51041030883789 45.20151901245117 47.74928283691406 33.869564056396484 C 52.70600509643555 37.524620056152344 52.25121307373047 34.98755645751953 49.23719787597656 31.77261734008789 C 48.15653991699219 42.302005767822266 54.06831359863281 32.45634078979492 49.75724411010742 31.920534133911133 C 49.95231246948242 19.623010635375977 65.74361419677734 25.349632263183594 63.7959098815918 37.69564437866211" stroke-width="0.0" fill="rgb(255, 245, 181)" opacity="0.9832746" stroke="rgb(228, 103, 140)" stroke-opacity="0.27165276" stroke-linecap="round" stroke-linejoin="round"/>
    <path d="M 58.95009231567383 47.2110595703125 C 57.47897720336914 49.20360565185547 54.55192565917969 46.8204460144043 51.907928466796875 45.03349304199219 C 64.439453125 44.239253997802734 63.188209533691406 40.391563415527344 65.54925537109375 43.635616302490234 C 56.986331939697266 50.08998489379883 58.86823272705078 46.19105529785156 57.2204475402832 46.49281311035156 C 52.450984954833984 46.48349380493164 56.50691604614258 46.67564010620117 58.95009231567383 47.2110595703125" stroke-width="0.0" fill="rgb(105, 207, 0)" opacity="0.87861335" stroke="rgb(116, 102, 63)" stroke-opacity="0.5058664" stroke-linecap="round" stroke-linejoin="round"/>
    <path d="M 131.30331420898438 103.25452423095703 C 135.61647033691406 97.11258697509766 131.32806396484375 95.56551361083984 132.976318359375 93.18658447265625 C 130.42898559570312 92.9345474243164 135.39022827148438 88.54400634765625 134.3672637939453 104.90388488769531 C 134.97122192382812 100.23483276367188 133.7027587890625 95.47282409667969 130.3388214111328 90.8962173461914 C 124.22421264648438 80.15333557128906 126.9429702758789 94.95545196533203 131.30331420898438 103.25452423095703" stroke-width="0.0" fill="rgb(248, 132, 53)" opacity="0.83577526" stroke="rgb(79, 95, 133)" stroke-opacity="0.75059503" stroke-linecap="round" stroke-linejoin="round"/>
    <path d="M 114.91828918457031 42.54062271118164 C 131.5835418701172 34.05885696411133 116.44331359863281 36.35569763183594 112.54268646240234 43.94658660888672 C 108.9241714477539 44.812042236328125 118.19190216064453 43.29014587402344 112.99378204345703 40.68899154663086 C 112.48358917236328 48.322715759277344 121.58155059814453 45.16089630126953 113.55070495605469 41.42571258544922 C 129.72447204589844 41.54414367675781 117.2907943725586 37.08135223388672 114.91828918457031 42.54062271118164" stroke-width="0.0" fill="rgb(77, 79, 101)" opacity="0.77695084" stroke="rgb(85, 235, 219)" stroke-opacity="0.048690297" stroke-linecap="round" stroke-linejoin="round"/>
    <path d="M 113.52616119384766 51.39003372192383 C 95.77532196044922 50.21317672729492 110.89930725097656 56.88175964355469 116.67940521240234 47.854393005371094 C 119.22776794433594 51.70480728149414 109.87989044189453 49.59761047363281 107.5191421508789 50.52436065673828 C 105.99056243896484 47.2261962890625 108.53559112548828 44.16661071777344 108.06182098388672 48.81235122680664 C 109.14201354980469 52.365482330322266 114.33129119873047 44.59747314453125 113.52616119384766 51.39003372192383" stroke-width="0.0" fill="rgb(135, 143, 157)" opacity="0.23057339" stroke="rgb(64, 113, 26)" stroke-opacity="0.348476" stroke-linecap="round" stroke-linejoin="round"/>
  </g>
</svg>
