<?xml version="1.0" ?>
<svg xmlns="http://www.w3.org/2000/svg" version="1.1" width="512" height="512">
  <defs/>
  <g>
    <path stroke-width="0" fill="rgb(89, 95, 89)" opacity="0.9847022" stroke="rgb(139, 182, 153)" stroke-opacity="1.0" stroke-linecap="round" stroke-linejoin="round" d="M 540.9766845703125 307.7200012207031 C 578.2432250976562 717.5508422851562 523.9196166992188 607.5655517578125 409.77728271484375 560.2735595703125 C -4.815953731536865 574.9983520507812 -43.95188903808594 610.2658081054688 -51.99632263183594 372.31396484375 C -35.529502868652344 305.1559143066406 -20.042537689208984 302.2029724121094 -55.5205078125 327.2477111816406 C 171.59815979003906 412.4985046386719 275.2651062011719 445.87921142578125 540.9766845703125 307.7200012207031"/>
    <path stroke-width="0" fill="rgb(158, 143, 115)" opacity="1.0306095" stroke="rgb(108, 164, 111)" stroke-opacity="1.0" stroke-linecap="round" stroke-linejoin="round" d="M 531.5314331054688 -27.255441665649414 C 497.655029296875 128.6061248779297 518.7197265625 204.41444396972656 363.07623291015625 226.2924041748047 C 187.111328125 231.96405029296875 166.12864685058594 297.57177734375 169.54959106445312 -7.327595233917236 C 210.9188232421875 -99.50502014160156 286.98626708984375 -51.62980651855469 403.1378173828125 -41.173099517822266 C 511.8313903808594 -42.366355895996094 529.109375 -45.23481750488281 531.5314331054688 -27.255441665649414"/>
    <path stroke-width="0" fill="rgb(36, 44, 43)" opacity="0.7512042" stroke="rgb(245, 97, 201)" stroke-opacity="1.0" stroke-linecap="round" stroke-linejoin="round" d="M 187.36265563964844 178.4608917236328 C 190.2963409423828 353.049072265625 169.87977600097656 379.3411560058594 237.9181365966797 419.2681579589844 C -50.63199996948242 421.30010986328125 -52.88212203979492 407.2190246582031 -49.17497634887695 372.3031005859375 C -52.37535095214844 79.1630859375 -55.43769836425781 54.96458435058594 -14.061454772949219 -48.60050582885742 C 359.5762023925781 -46.64336395263672 345.7125244140625 -6.133228778839111 187.36265563964844 178.4608917236328"/>
    <path stroke-width="0" fill="rgb(58, 28, 13)" opacity="0.9931787" stroke="rgb(144, 236, 18)" stroke-opacity="1.0" stroke-linecap="round" stroke-linejoin="round" d="M 567.6347045898438 413.54803466796875 C 629.1971435546875 460.1181335449219 659.2842407226562 465.76934814453125 293.3638610839844 420.22906494140625 C 328.7580261230469 149.7002716064453 288.2480773925781 390.7162170410156 308.4262390136719 173.39956665039062 C 259.5923767089844 -81.65823364257812 338.8484802246094 -53.28919219970703 483.19061279296875 -40.144989013671875 C 578.5626220703125 -28.153284072875977 566.8272094726562 -10.542065620422363 567.6347045898438 413.54803466796875"/>
    <path stroke-width="0" fill="rgb(45, 25, 9)" opacity="0.9837611" stroke="rgb(5, 212, 198)" stroke-opacity="1.0" stroke-linecap="round" stroke-linejoin="round" d="M 191.1886444091797 280.2947692871094 C 172.63023376464844 275.04644775390625 249.51043701171875 472.2397766113281 183.53456115722656 440.8272705078125 C 215.17367553710938 289.71673583984375 -37.779884338378906 198.77932739257812 84.10086059570312 129.0678253173828 C 54.80670928955078 185.76080322265625 56.85399627685547 178.39462280273438 30.654916763305664 233.13597106933594 C 102.22588348388672 237.68443298339844 215.0715789794922 170.3395538330078 191.1886444091797 280.2947692871094"/>
    <path stroke-width="0" fill="rgb(28, 16, 2)" opacity="0.98719996" stroke="rgb(249, 203, 117)" stroke-opacity="1.0" stroke-linecap="round" stroke-linejoin="round" d="M 352.4678955078125 116.88278198242188 C 346.75360107421875 190.8208770751953 297.7345886230469 157.11534118652344 249.6724090576172 171.78219604492188 C 100.04496765136719 83.41867065429688 -6.546313762664795 196.97055053710938 54.968509674072266 76.48543548583984 C 82.79240417480469 -26.117229461669922 92.3656234741211 -30.489152908325195 196.0262908935547 -27.82351303100586 C 219.40814208984375 -42.56340789794922 282.69793701171875 -81.2938003540039 352.4678955078125 116.88278198242188"/>
    <path stroke-width="0" fill="rgb(90, 97, 95)" opacity="1.0038598" stroke="rgb(30, 163, 36)" stroke-opacity="1.0" stroke-linecap="round" stroke-linejoin="round" d="M 578.4916381835938 404.7875671386719 C 694.0384521484375 439.3053894042969 846.5838012695312 529.8840942382812 254.57257080078125 514.9136352539062 C 443.81365966796875 192.4665069580078 285.7406005859375 300.8257141113281 317.9660339355469 112.11331176757812 C 382.776611328125 -28.907283782958984 409.79730224609375 -14.56865119934082 485.3011779785156 -32.26240539550781 C 565.7853393554688 -14.515660285949707 562.3096313476562 3.841090679168701 578.4916381835938 404.7875671386719"/>
    <path stroke-width="0" fill="rgb(90, 96, 92)" opacity="0.96856344" stroke="rgb(133, 105, 67)" stroke-opacity="1.0" stroke-linecap="round" stroke-linejoin="round" d="M 123.93667602539062 64.30873107910156 C 121.37223052978516 114.06250762939453 114.05819702148438 129.4079132080078 75.9536361694336 140.29177856445312 C -16.57071876525879 136.64739990234375 -27.313594818115234 132.2965850830078 -34.65241622924805 46.7851448059082 C -28.461292266845703 -17.69627571105957 -20.302188873291016 -27.176698684692383 45.96794891357422 -28.47101593017578 C 108.68767547607422 -1.4252560138702393 113.3011703491211 8.890120506286621 123.93667602539062 64.30873107910156"/>
    <path stroke-width="0" fill="rgb(93, 96, 96)" opacity="0.88900346" stroke="rgb(116, 144, 4)" stroke-opacity="1.0" stroke-linecap="round" stroke-linejoin="round" d="M 111.21174621582031 55.87031555175781 C 66.25479888916016 178.82777404785156 92.39380645751953 210.2526397705078 -9.794403076171875 337.26959228515625 C -40.7213249206543 243.1691131591797 -35.085670471191406 217.4142608642578 -35.569149017333984 95.24774932861328 C -24.123882293701172 67.7696762084961 -15.130258560180664 60.72641372680664 80.07662200927734 59.95073318481445 C 120.22915649414062 65.66083526611328 131.2911834716797 71.34504699707031 111.21174621582031 55.87031555175781"/>
    <path stroke-width="0" fill="rgb(92, 97, 94)" opacity="1.004038" stroke="rgb(156, 157, 240)" stroke-opacity="1.0" stroke-linecap="round" stroke-linejoin="round" d="M 232.78811645507812 40.56407165527344 C 208.497802734375 119.53844451904297 187.59600830078125 114.53040313720703 117.04228210449219 109.3597183227539 C 49.23323059082031 108.13023376464844 45.82318878173828 89.09911346435547 33.70519256591797 1.5960919857025146 C 31.983091354370117 -31.352210998535156 42.582786560058594 -35.894710540771484 94.07343292236328 -37.2251091003418 C 221.00271606445312 -91.22877502441406 218.33763122558594 -78.42487335205078 232.78811645507812 40.56407165527344"/>
    <path stroke-width="0" fill="rgb(89, 98, 97)" opacity="1.0082108" stroke="rgb(91, 111, 177)" stroke-opacity="1.0" stroke-linecap="round" stroke-linejoin="round" d="M 196.3540496826172 129.40365600585938 C 159.75115966796875 359.9403076171875 144.82162475585938 65.19367218017578 165.82919311523438 537.5172729492188 C -127.01535034179688 550.3731079101562 -88.73860168457031 495.13446044921875 -25.445850372314453 437.35198974609375 C 52.06022644042969 112.69420623779297 52.2409553527832 76.15876007080078 332.5922546386719 66.69302368164062 C 271.9929504394531 26.389484405517578 266.99627685546875 192.751220703125 196.3540496826172 129.40365600585938"/>
    <path stroke-width="0" fill="rgb(93, 96, 96)" opacity="0.8588708" stroke="rgb(170, 171, 53)" stroke-opacity="1.0" stroke-linecap="round" stroke-linejoin="round" d="M 523.3182373046875 -0.6814360618591309 C 495.3350830078125 119.70738220214844 598.76513671875 165.4866943359375 264.8827819824219 237.39012145996094 C 396.4001770019531 178.7003631591797 251.59744262695312 162.5063018798828 200.54432678222656 -19.98653221130371 C 304.89898681640625 -86.0112533569336 335.77398681640625 -53.68967056274414 387.0159606933594 -45.11587142944336 C 518.9805908203125 -42.30170822143555 528.1303100585938 -37.58413314819336 523.3182373046875 -0.6814360618591309"/>
    <path stroke-width="0" fill="rgb(116, 111, 110)" opacity="0.9844741" stroke="rgb(80, 92, 145)" stroke-opacity="1.0" stroke-linecap="round" stroke-linejoin="round" d="M 415.86669921875 -1.3728206157684326 C 428.1311950683594 174.58737182617188 278.31610107421875 54.74082946777344 284.5681457519531 59.62528610229492 C 108.41731262207031 56.9205322265625 175.22740173339844 97.80542755126953 148.93536376953125 -25.281044006347656 C 154.8877716064453 -31.89655303955078 169.101806640625 -29.487001419067383 216.2349853515625 -28.543506622314453 C 271.21038818359375 -37.61959457397461 283.8244323730469 -37.228580474853516 415.86669921875 -1.3728206157684326"/>
    <path stroke-width="0" fill="rgb(125, 115, 92)" opacity="0.57715607" stroke="rgb(252, 26, 53)" stroke-opacity="1.0" stroke-linecap="round" stroke-linejoin="round" d="M 233.3888702392578 75.41902923583984 C 229.69017028808594 88.00049591064453 218.1283721923828 92.05316162109375 200.72384643554688 94.11920166015625 C 148.9303741455078 95.78054809570312 153.81793212890625 87.69514465332031 140.0834503173828 24.776399612426758 C 138.83065795898438 12.582080841064453 141.96475219726562 0.5623785257339478 152.29052734375 -8.662283897399902 C 206.51174926757812 46.805137634277344 236.74557495117188 -0.44315364956855774 233.3888702392578 75.41902923583984"/>
    <path stroke-width="0" fill="rgb(92, 97, 96)" opacity="0.9906923" stroke="rgb(166, 64, 118)" stroke-opacity="1.0" stroke-linecap="round" stroke-linejoin="round" d="M 242.7268524169922 59.68516540527344 C 187.70242309570312 55.90147399902344 222.01976013183594 78.755126953125 223.0790557861328 99.2790298461914 C 200.3437042236328 12.465130805969238 150.60662841796875 145.22994995117188 133.811279296875 1.070229172706604 C 136.18563842773438 -13.564216613769531 141.19369506835938 -23.384248733520508 149.4539794921875 -27.8875789642334 C 322.313232421875 -21.243961334228516 271.1570129394531 1.746687889099121 242.7268524169922 59.68516540527344"/>
    <path stroke-width="0" fill="rgb(219, 213, 213)" opacity="0.7672573" stroke="rgb(40, 28, 167)" stroke-opacity="1.0" stroke-linecap="round" stroke-linejoin="round" d="M 293.51470947265625 212.15267944335938 C 241.94357299804688 210.84136962890625 269.25372314453125 244.89393615722656 301.35540771484375 217.61883544921875 C 298.5362243652344 213.01368713378906 258.9265441894531 217.76333618164062 274.5119934082031 228.81417846679688 C 215.3885498046875 231.02333068847656 296.90374755859375 190.90350341796875 236.16854858398438 189.3307647705078 C 284.9941711425781 122.33456420898438 330.35015869140625 197.51751708984375 293.51470947265625 212.15267944335938"/>
    <path stroke-width="0" fill="rgb(250, 256, 254)" opacity="0.98751056" stroke="rgb(50, 94, 209)" stroke-opacity="1.0" stroke-linecap="round" stroke-linejoin="round" d="M 287.8226623535156 200.93429565429688 C 299.73797607421875 152.20765686035156 334.6546630859375 197.45062255859375 241.8118438720703 241.52793884277344 C 282.2772216796875 103.93234252929688 202.26995849609375 308.35430908203125 186.8076171875 178.48892211914062 C 283.9277038574219 179.48831176757812 276.27081298828125 129.76588439941406 307.6364440917969 169.29156494140625 C 286.0577087402344 179.5853271484375 278.0165710449219 199.4752655029297 287.8226623535156 200.93429565429688"/>
    <path stroke-width="0" fill="rgb(-4, 2, 0)" opacity="1.0030419" stroke="rgb(213, 24, 248)" stroke-opacity="1.0" stroke-linecap="round" stroke-linejoin="round" d="M 295.8950500488281 189.1702423095703 C 307.5309143066406 187.53707885742188 316.65869140625 198.53956604003906 303.3380432128906 189.199462890625 C 312.95025634765625 182.80490112304688 269.6236267089844 158.62286376953125 261.7707824707031 189.3423309326172 C 278.9050598144531 210.33755493164062 296.0542907714844 188.1927947998047 308.5146179199219 186.22451782226562 C 274.17266845703125 179.91702270507812 298.533935546875 200.89144897460938 295.8950500488281 189.1702423095703"/>
    <path stroke-width="0" fill="rgb(41, 24, 1)" opacity="0.81637055" stroke="rgb(249, 154, 188)" stroke-opacity="1.0" stroke-linecap="round" stroke-linejoin="round" d="M 359.2480163574219 418.9189147949219 C 330.13043212890625 424.0171813964844 404.5055236816406 406.98565673828125 193.19625854492188 441.28607177734375 C 170.28749084472656 383.8205261230469 84.64230346679688 397.61322021484375 321.9952392578125 398.38287353515625 C 366.8738098144531 425.033203125 351.58624267578125 420.64453125 356.4701843261719 395.79034423828125 C 304.4314270019531 401.651123046875 291.54327392578125 378.2947082519531 359.2480163574219 418.9189147949219"/>
    <path stroke-width="0" fill="rgb(256, 253, 253)" opacity="1.0002652" stroke="rgb(72, 30, 75)" stroke-opacity="1.0" stroke-linecap="round" stroke-linejoin="round" d="M 315.84100341796875 419.6337890625 C 326.3260192871094 461.2481689453125 286.0172424316406 423.4739685058594 255.71438598632812 427.25567626953125 C 249.5720977783203 427.3108825683594 254.55325317382812 414.924560546875 252.1307830810547 400.95831298828125 C 256.69927978515625 393.1546936035156 250.591552734375 423.8578186035156 253.1451416015625 423.7899169921875 C 249.30337524414062 418.3356628417969 251.07125854492188 419.8883972167969 315.84100341796875 419.6337890625"/>
    <path stroke-width="0" fill="rgb(247, 144, -6)" opacity="1.0024108" stroke="rgb(81, 105, 16)" stroke-opacity="1.0" stroke-linecap="round" stroke-linejoin="round" d="M 271.6865234375 387.9619445800781 C 302.5418701171875 388.29095458984375 266.5617980957031 430.7485656738281 267.1262512207031 416.4464111328125 C 201.1470489501953 415.5227355957031 234.43087768554688 424.47119140625 218.5829620361328 390.26043701171875 C 219.38941955566406 393.3882751464844 238.3726348876953 371.8203125 233.75587463378906 412.8111877441406 C 217.78929138183594 384.0471496582031 272.24090576171875 414.59918212890625 271.6865234375 387.9619445800781"/>
    <path stroke-width="0" fill="rgb(121, 78, 25)" opacity="0.9950582" stroke="rgb(144, 67, 133)" stroke-opacity="1.0" stroke-linecap="round" stroke-linejoin="round" d="M 287.9382019042969 192.4880828857422 C 274.93121337890625 145.34091186523438 243.56594848632812 217.54693603515625 300.442626953125 186.11312866210938 C 284.27911376953125 203.50875854492188 271.04901123046875 210.26016235351562 260.47882080078125 190.20773315429688 C 254.8007354736328 168.0093536376953 288.4679870605469 158.51849365234375 289.4373474121094 180.7406768798828 C 313.2824401855469 180.7730255126953 297.34381103515625 182.80935668945312 287.9382019042969 192.4880828857422"/>
    <path stroke-width="0" fill="rgb(259, 258, 253)" opacity="0.98929465" stroke="rgb(33, 182, 73)" stroke-opacity="1.0" stroke-linecap="round" stroke-linejoin="round" d="M 310.89691162109375 183.86065673828125 C 315.0689392089844 185.04969787597656 307.77984619140625 235.64166259765625 261.9349365234375 228.32757568359375 C 273.10772705078125 208.54638671875 295.4958190917969 218.7893829345703 296.8807373046875 221.39453125 C 277.9908752441406 221.1193389892578 305.8916015625 196.51429748535156 284.3385925292969 151.09371948242188 C 308.19976806640625 154.25369262695312 316.4200744628906 192.68389892578125 310.89691162109375 183.86065673828125"/>
    <path stroke-width="0" fill="rgb(249, 256, 257)" opacity="0.97883844" stroke="rgb(149, 5, 211)" stroke-opacity="1.0" stroke-linecap="round" stroke-linejoin="round" d="M 506.5636291503906 494.261474609375 C 470.0470275878906 472.7162170410156 413.4753723144531 439.703125 541.4583129882812 514.6194458007812 C 426.2908630371094 421.75872802734375 418.74609375 407.42242431640625 398.4461669921875 386.9634094238281 C 373.1134948730469 354.13702392578125 314.066650390625 274.9532775878906 358.85272216796875 345.45074462890625 C 422.7509765625 425.03265380859375 431.87371826171875 432.0721130371094 506.5636291503906 494.261474609375"/>
    <path stroke-width="0" fill="rgb(30, 14, -3)" opacity="0.91689724" stroke="rgb(172, 68, 187)" stroke-opacity="1.0" stroke-linecap="round" stroke-linejoin="round" d="M 281.06781005859375 390.7234191894531 C 272.55133056640625 460.2926330566406 338.3830871582031 374.5055847167969 314.19708251953125 444.1978759765625 C 301.93292236328125 446.6590881347656 285.3478698730469 426.40771484375 297.5473937988281 441.5201110839844 C 298.7077331542969 449.32891845703125 290.6668395996094 341.58038330078125 311.6075744628906 396.8004150390625 C 428.6006774902344 391.8000183105469 283.62677001953125 418.83087158203125 281.06781005859375 390.7234191894531"/>
    <path stroke-width="0" fill="rgb(88, 99, 97)" opacity="1.0021446" stroke="rgb(63, 146, 150)" stroke-opacity="1.0" stroke-linecap="round" stroke-linejoin="round" d="M 493.8727722167969 -3.7108023166656494 C 184.12583923339844 154.0896453857422 386.7452697753906 157.10012817382812 224.41497802734375 134.35406494140625 C 152.6552734375 48.14305877685547 216.9932861328125 383.1482849121094 -19.806655883789062 488.6102600097656 C -43.50659942626953 28.476600646972656 160.4105224609375 74.40033721923828 122.54926300048828 56.803321838378906 C 275.94586181640625 61.84283447265625 296.3965759277344 90.7522201538086 493.8727722167969 -3.7108023166656494"/>
    <path stroke-width="0" fill="rgb(58, 35, 14)" opacity="0.9092357" stroke="rgb(56, 242, 114)" stroke-opacity="1.0" stroke-linecap="round" stroke-linejoin="round" d="M 224.0943145751953 174.2540283203125 C 243.6519775390625 159.09262084960938 245.5493927001953 201.25933837890625 229.6222686767578 201.31678771972656 C 207.81854248046875 214.50796508789062 191.29212951660156 162.51170349121094 232.43853759765625 166.47494506835938 C 237.85598754882812 178.88572692871094 217.4651336669922 174.58999633789062 230.92376708984375 175.64466857910156 C 184.821044921875 186.84315490722656 243.8019256591797 162.750732421875 224.0943145751953 174.2540283203125"/>
    <path stroke-width="0" fill="rgb(253, 257, 251)" opacity="0.97491163" stroke="rgb(224, 148, 224)" stroke-opacity="1.0" stroke-linecap="round" stroke-linejoin="round" d="M 87.14930725097656 425.35736083984375 C 78.97283172607422 426.7760925292969 80.9561996459961 431.8216247558594 68.94956970214844 439.4134216308594 C 82.16055297851562 435.89801025390625 82.19329833984375 415.0466613769531 47.920074462890625 463.50421142578125 C 53.76298522949219 452.71795654296875 136.95306396484375 392.6883850097656 174.1001739501953 303.33074951171875 C 81.7566146850586 450.7720642089844 48.13418960571289 437.9102478027344 87.14930725097656 425.35736083984375"/>
    <path stroke-width="0" fill="rgb(259, 179, -2)" opacity="0.981268" stroke="rgb(184, 127, 243)" stroke-opacity="1.0" stroke-linecap="round" stroke-linejoin="round" d="M 262.3946228027344 205.56021118164062 C 269.9446716308594 207.10865783691406 318.8197021484375 181.8183135986328 266.515869140625 173.6147003173828 C 299.39971923828125 164.59890747070312 287.81646728515625 185.607666015625 267.45281982421875 219.0975341796875 C 297.21337890625 216.66688537597656 293.98382568359375 212.34912109375 276.4432678222656 214.19920349121094 C 258.74884033203125 211.0494842529297 277.2773742675781 241.2085418701172 262.3946228027344 205.56021118164062"/>
    <path stroke-width="0" fill="rgb(256, 259, 258)" opacity="1.0087752" stroke="rgb(108, 154, 4)" stroke-opacity="1.0" stroke-linecap="round" stroke-linejoin="round" d="M 263.4764709472656 173.10873413085938 C 227.7240753173828 186.73831176757812 230.36285400390625 143.36705017089844 200.21481323242188 187.6511993408203 C 194.03030395507812 251.4297332763672 172.31764221191406 169.76409912109375 208.0696563720703 154.41888427734375 C 209.6342010498047 140.63548278808594 217.74517822265625 147.85513305664062 208.1097412109375 140.69044494628906 C 196.4327392578125 139.812255859375 204.7957763671875 155.86741638183594 263.4764709472656 173.10873413085938"/>
    <path stroke-width="0" fill="rgb(18, 7, 3)" opacity="0.89834785" stroke="rgb(168, 73, 157)" stroke-opacity="1.0" stroke-linecap="round" stroke-linejoin="round" d="M 184.733642578125 221.3282470703125 C 192.9105682373047 225.31385803222656 191.88302612304688 211.27999877929688 189.90811157226562 217.5963134765625 C 231.51239013671875 259.3112487792969 267.5091857910156 219.66612243652344 253.828369140625 227.21192932128906 C 199.4879150390625 237.54612731933594 184.3680419921875 206.24212646484375 185.38023376464844 169.6769561767578 C 177.0968017578125 221.9849090576172 203.31915283203125 227.51388549804688 184.733642578125 221.3282470703125"/>
    <path stroke-width="0" fill="rgb(32, 10, -2)" opacity="0.89457214" stroke="rgb(34, 76, 145)" stroke-opacity="1.0" stroke-linecap="round" stroke-linejoin="round" d="M 229.99160766601562 147.48104858398438 C 213.02090454101562 135.6746368408203 200.5518798828125 169.2823486328125 183.5635986328125 171.36489868164062 C 176.7482452392578 237.25473022460938 191.10565185546875 148.37570190429688 201.41574096679688 152.56570434570312 C 181.01329040527344 152.7733154296875 190.15306091308594 118.0608901977539 187.9656219482422 116.46937561035156 C 194.0658416748047 134.72865295410156 212.9340362548828 136.4566650390625 229.99160766601562 147.48104858398438"/>
    <path stroke-width="0" fill="rgb(250, 173, 2)" opacity="0.99850976" stroke="rgb(146, 166, 166)" stroke-opacity="1.0" stroke-linecap="round" stroke-linejoin="round" d="M 227.2613983154297 197.74160766601562 C 248.15159606933594 145.26002502441406 184.42335510253906 181.6832733154297 224.23602294921875 199.7098846435547 C 260.9613037109375 188.9091339111328 220.1299591064453 156.33753967285156 232.84652709960938 180.3693084716797 C 215.03811645507812 173.00270080566406 217.7482452392578 181.5689239501953 226.6353759765625 180.9205322265625 C 218.47471618652344 174.2251739501953 206.24240112304688 180.19708251953125 227.2613983154297 197.74160766601562"/>
    <path stroke-width="0" fill="rgb(7, 1, 0)" opacity="0.9114798" stroke="rgb(205, 179, 25)" stroke-opacity="1.0" stroke-linecap="round" stroke-linejoin="round" d="M 268.5552978515625 401.51385498046875 C 264.8369140625 384.2444152832031 277.1194152832031 390.5242919921875 283.6460876464844 396.444580078125 C 280.0893249511719 389.9285888671875 266.5093078613281 377.87396240234375 272.0207824707031 408.134521484375 C 269.1993713378906 428.9881591796875 273.4375 416.14764404296875 300.77484130859375 417.90728759765625 C 261.91229248046875 421.6947326660156 269.2363586425781 409.2223205566406 268.5552978515625 401.51385498046875"/>
    <path stroke-width="0" fill="rgb(248, 237, 232)" opacity="0.6603173" stroke="rgb(182, 254, 38)" stroke-opacity="1.0" stroke-linecap="round" stroke-linejoin="round" d="M 286.9046936035156 137.53965759277344 C 292.21234130859375 154.06954956054688 282.0602111816406 143.27685546875 293.26861572265625 143.66041564941406 C 287.4964904785156 144.51535034179688 295.7667541503906 129.5522918701172 287.6010437011719 162.309326171875 C 292.0146789550781 170.42202758789062 295.8480224609375 161.13905334472656 276.7033996582031 161.85958862304688 C 283.6124572753906 160.5438232421875 301.3803405761719 168.7520751953125 286.9046936035156 137.53965759277344"/>
    <path stroke-width="0" fill="rgb(43, 31, 29)" opacity="0.26809612" stroke="rgb(41, 156, 31)" stroke-opacity="1.0" stroke-linecap="round" stroke-linejoin="round" d="M 218.91110229492188 186.7681121826172 C 209.19056701660156 177.9356689453125 218.86785888671875 185.14212036132812 238.20986938476562 184.85693359375 C 213.03237915039062 182.30613708496094 206.7877655029297 203.8130340576172 235.87867736816406 186.84642028808594 C 219.53541564941406 171.91539001464844 233.81787109375 163.6853485107422 223.2454833984375 195.93104553222656 C 238.08175659179688 184.97462463378906 216.3439178466797 168.58929443359375 218.91110229492188 186.7681121826172"/>
    <path stroke-width="0" fill="rgb(240, 244, 254)" opacity="0.58592576" stroke="rgb(177, 115, 184)" stroke-opacity="1.0" stroke-linecap="round" stroke-linejoin="round" d="M 255.22354125976562 174.77195739746094 C 245.43284606933594 192.61428833007812 247.1305389404297 162.7821807861328 211.7337646484375 161.812744140625 C 190.7794647216797 196.34817504882812 189.02999877929688 154.3101043701172 224.5240020751953 163.50514221191406 C 236.19114685058594 163.06350708007812 248.24525451660156 177.12318420410156 258.1226806640625 174.13186645507812 C 207.05776977539062 129.66964721679688 235.51119995117188 147.8955078125 255.22354125976562 174.77195739746094"/>
    <path stroke-width="0" fill="rgb(247, 209, 28)" opacity="0.66176844" stroke="rgb(248, 218, 2)" stroke-opacity="1.0" stroke-linecap="round" stroke-linejoin="round" d="M 244.78355407714844 160.25442504882812 C 219.04544067382812 240.60882568359375 193.71133422851562 169.17510986328125 231.88729858398438 176.3636474609375 C 240.1491241455078 232.52706909179688 208.19189453125 222.47715759277344 237.60568237304688 204.4270782470703 C 195.72572326660156 185.1551055908203 214.05479431152344 156.57058715820312 241.74484252929688 190.0784454345703 C 206.70831298828125 184.17344665527344 252.87380981445312 178.61643981933594 244.78355407714844 160.25442504882812"/>
    <path stroke-width="0" fill="rgb(-1, 4, -1)" opacity="0.9313186" stroke="rgb(186, 43, 132)" stroke-opacity="1.0" stroke-linecap="round" stroke-linejoin="round" d="M 226.47789001464844 168.64495849609375 C 229.729248046875 163.98626708984375 241.53338623046875 177.78614807128906 229.97793579101562 192.05227661132812 C 219.65089416503906 199.02586364746094 203.19798278808594 184.9016571044922 228.81777954101562 170.7404022216797 C 208.28628540039062 183.48204040527344 254.96084594726562 167.07284545898438 231.85301208496094 180.66065979003906 C 225.0711212158203 169.9296875 256.34088134765625 179.6648406982422 226.47789001464844 168.64495849609375"/>
    <path stroke-width="0" fill="rgb(37, 21, 3)" opacity="0.91668653" stroke="rgb(88, 236, 179)" stroke-opacity="1.0" stroke-linecap="round" stroke-linejoin="round" d="M 282.6467590332031 233.64053344726562 C 239.36773681640625 206.8251190185547 211.7415771484375 227.57373046875 227.69068908691406 214.59434509277344 C 268.04541015625 223.6979217529297 242.44102478027344 229.51766967773438 214.71267700195312 232.92800903320312 C 252.4187469482422 231.16209411621094 226.39816284179688 227.1171112060547 250.45562744140625 229.86666870117188 C 225.89700317382812 243.7556610107422 195.06365966796875 221.48977661132812 282.6467590332031 233.64053344726562"/>
    <path stroke-width="0" fill="rgb(78, 81, 69)" opacity="0.77271265" stroke="rgb(41, 158, 147)" stroke-opacity="1.0" stroke-linecap="round" stroke-linejoin="round" d="M 185.68699645996094 223.8101043701172 C 195.7488250732422 187.63308715820312 173.06329345703125 216.6693878173828 159.7229766845703 279.5927429199219 C 184.42153930664062 203.97410583496094 181.22503662109375 200.97325134277344 192.57952880859375 218.8052520751953 C 186.0086669921875 203.5818634033203 202.13209533691406 237.39138793945312 175.01516723632812 219.12060546875 C 170.32249450683594 227.9859161376953 170.6776885986328 222.37037658691406 185.68699645996094 223.8101043701172"/>
    <path stroke-width="0" fill="rgb(47, 27, 10)" opacity="0.857118" stroke="rgb(238, 156, 136)" stroke-opacity="1.0" stroke-linecap="round" stroke-linejoin="round" d="M 182.60264587402344 329.1392822265625 C 167.61178588867188 281.0224914550781 164.101318359375 295.96893310546875 176.7996368408203 291.6501770019531 C 193.19815063476562 350.93377685546875 199.4298553466797 275.7112731933594 174.76353454589844 281.1658935546875 C 178.73936462402344 356.68475341796875 180.56442260742188 258.8610534667969 162.21595764160156 318.8027648925781 C 151.2707061767578 314.1649169921875 169.21517944335938 326.1728820800781 182.60264587402344 329.1392822265625"/>
    <path stroke-width="0" fill="rgb(247, 251, 251)" opacity="0.7513712" stroke="rgb(186, 79, 101)" stroke-opacity="1.0" stroke-linecap="round" stroke-linejoin="round" d="M 219.18887329101562 159.93943786621094 C 262.0922546386719 179.4087677001953 259.28778076171875 203.5251922607422 243.7169647216797 170.38624572753906 C 208.5205841064453 148.99330139160156 191.73538208007812 190.46331787109375 199.3042449951172 202.80787658691406 C 200.27342224121094 146.7144317626953 220.4586944580078 155.12586975097656 200.06861877441406 174.58790588378906 C 198.84478759765625 168.81463623046875 203.81051635742188 171.826416015625 219.18887329101562 159.93943786621094"/>
    <path stroke-width="0" fill="rgb(253, 258, 248)" opacity="0.95037955" stroke="rgb(47, 240, 188)" stroke-opacity="1.0" stroke-linecap="round" stroke-linejoin="round" d="M 247.01832580566406 193.91184997558594 C 333.1953430175781 239.18673706054688 289.0817565917969 225.6658477783203 214.5032196044922 227.7820281982422 C 205.7827606201172 209.11875915527344 224.77859497070312 211.77841186523438 196.54444885253906 213.3087158203125 C 236.30404663085938 197.68246459960938 239.773193359375 199.18594360351562 245.0023956298828 211.4936065673828 C 248.4657745361328 217.8927459716797 249.6423797607422 230.3162841796875 247.01832580566406 193.91184997558594"/>
    <path stroke-width="0" fill="rgb(64, 43, 15)" opacity="0.84163177" stroke="rgb(57, 64, 14)" stroke-opacity="1.0" stroke-linecap="round" stroke-linejoin="round" d="M 307.6658935546875 317.03436279296875 C 323.5628662109375 329.4955749511719 311.69146728515625 306.34881591796875 316.73773193359375 341.9193420410156 C 292.1515197753906 317.3030090332031 333.7707824707031 316.2391052246094 316.21710205078125 299.71759033203125 C 309.3681335449219 322.9122314453125 322.4836120605469 326.9905090332031 312.8174743652344 299.8552551269531 C 347.6291809082031 272.465087890625 328.0918273925781 267.8891296386719 307.6658935546875 317.03436279296875"/>
    <path stroke-width="0" fill="rgb(251, 254, 249)" opacity="0.9650178" stroke="rgb(6, 17, 173)" stroke-opacity="1.0" stroke-linecap="round" stroke-linejoin="round" d="M 286.6400146484375 210.16036987304688 C 304.08416748046875 196.34475708007812 290.41650390625 229.61959838867188 288.3913269042969 231.103271484375 C 319.511474609375 235.30218505859375 312.0633544921875 222.52760314941406 262.7767333984375 216.76992797851562 C 250.1206512451172 204.7342529296875 274.8474426269531 199.22035217285156 296.67205810546875 203.21592712402344 C 280.80841064453125 203.17518615722656 306.8170471191406 216.36619567871094 286.6400146484375 210.16036987304688"/>
    <path stroke-width="0" fill="rgb(245, 251, 250)" opacity="0.40321034" stroke="rgb(169, 67, 5)" stroke-opacity="1.0" stroke-linecap="round" stroke-linejoin="round" d="M 186.66258239746094 229.72119140625 C 212.877685546875 253.46298217773438 228.19175720214844 228.51046752929688 240.01536560058594 202.49600219726562 C 205.95947265625 216.83860778808594 197.17498779296875 209.5365753173828 199.25924682617188 208.01583862304688 C 176.24063110351562 233.45773315429688 238.07244873046875 240.999755859375 243.27853393554688 222.84519958496094 C 215.24310302734375 190.76197814941406 214.7379608154297 190.73220825195312 186.66258239746094 229.72119140625"/>
    <path stroke-width="0" fill="rgb(252, 259, 252)" opacity="0.9916187" stroke="rgb(81, 97, 150)" stroke-opacity="1.0" stroke-linecap="round" stroke-linejoin="round" d="M 106.9601058959961 402.2381591796875 C 60.34160614013672 464.56512451171875 -10.232165336608887 502.1304016113281 -14.955893516540527 524.392822265625 C -3.401204824447632 481.1339111328125 -55.95347595214844 505.5627746582031 -29.504064559936523 488.4368591308594 C -10.254148483276367 494.6418762207031 12.557779312133789 509.9571228027344 -21.761077880859375 522.8724975585938 C -21.971586227416992 508.3689270019531 -3.625948429107666 504.45233154296875 106.9601058959961 402.2381591796875"/>
    <path stroke-width="0" fill="rgb(19, 8, 1)" opacity="0.85541475" stroke="rgb(47, 242, 175)" stroke-opacity="1.0" stroke-linecap="round" stroke-linejoin="round" d="M 297.00421142578125 228.1175994873047 C 330.1169738769531 189.09042358398438 307.7444763183594 213.69293212890625 282.3444519042969 228.20779418945312 C 239.96963500976562 230.52734375 277.0048522949219 227.9398651123047 265.641845703125 231.11175537109375 C 257.7163391113281 222.1357879638672 226.9760284423828 236.185546875 275.42822265625 231.83090209960938 C 245.07276916503906 222.18789672851562 257.09417724609375 250.79019165039062 297.00421142578125 228.1175994873047"/>
    <path stroke-width="0" fill="rgb(30, 14, 1)" opacity="1.0214479" stroke="rgb(132, 6, 52)" stroke-opacity="1.0" stroke-linecap="round" stroke-linejoin="round" d="M 308.5202331542969 137.4976806640625 C 275.5998229980469 147.34161376953125 313.9799499511719 178.01904296875 316.15618896484375 117.82757568359375 C 272.5943908691406 163.61085510253906 194.11814880371094 156.964599609375 232.108642578125 149.30044555664062 C 310.3903503417969 148.6063232421875 297.27813720703125 142.23358154296875 296.12158203125 136.84933471679688 C 304.95159912109375 154.7649383544922 281.5224914550781 151.40115356445312 308.5202331542969 137.4976806640625"/>
    <path stroke-width="0" fill="rgb(246, 147, -11)" opacity="0.922156" stroke="rgb(220, 29, 131)" stroke-opacity="1.0" stroke-linecap="round" stroke-linejoin="round" d="M 238.54345703125 193.75071716308594 C 272.3954772949219 195.92434692382812 250.30467224121094 219.3022918701172 248.6875 222.10369873046875 C 242.54705810546875 163.83840942382812 253.42166137695312 181.1952362060547 214.1727752685547 203.33566284179688 C 244.91461181640625 186.77398681640625 239.25961303710938 167.65525817871094 256.0506286621094 186.10256958007812 C 239.7453155517578 173.33990478515625 245.13177490234375 204.3388214111328 238.54345703125 193.75071716308594"/>
    <path stroke-width="0" fill="rgb(67, 54, 33)" opacity="0.46543297" stroke="rgb(36, 124, 90)" stroke-opacity="1.0" stroke-linecap="round" stroke-linejoin="round" d="M 270.9339294433594 148.95101928710938 C 222.10467529296875 151.9624786376953 198.98414611816406 128.00808715820312 191.46710205078125 136.93521118164062 C 228.05520629882812 137.4001922607422 260.06072998046875 158.60955810546875 243.9590301513672 175.5401153564453 C 253.2830810546875 157.45443725585938 244.6087188720703 127.4114990234375 254.56002807617188 154.82220458984375 C 271.05914306640625 141.08277893066406 258.0131530761719 154.51116943359375 270.9339294433594 148.95101928710938"/>
    <path stroke-width="0" fill="rgb(53, 17, 10)" opacity="0.8044129" stroke="rgb(195, 190, 230)" stroke-opacity="1.0" stroke-linecap="round" stroke-linejoin="round" d="M 227.42835998535156 422.0351257324219 C 226.19927978515625 386.2087707519531 199.9951171875 395.03216552734375 251.07244873046875 360.8303527832031 C 231.89405822753906 373.2138366699219 216.85426330566406 386.14373779296875 223.1564178466797 381.3011779785156 C 227.69361877441406 410.99774169921875 222.59597778320312 401.6727600097656 221.8129425048828 363.8544921875 C 209.14341735839844 418.1789855957031 243.599609375 403.9681701660156 227.42835998535156 422.0351257324219"/>
    <path stroke-width="0" fill="rgb(165, 160, 146)" opacity="0.22399981" stroke="rgb(140, 149, 245)" stroke-opacity="1.0" stroke-linecap="round" stroke-linejoin="round" d="M 252.83775329589844 153.7737579345703 C 241.41090393066406 164.8402862548828 249.3788604736328 144.7420654296875 206.8701171875 136.14437866210938 C 243.3062744140625 157.8607940673828 253.84938049316406 172.50363159179688 245.5461883544922 159.03111267089844 C 223.7929229736328 157.2705841064453 259.1177673339844 150.1505889892578 238.48719787597656 150.37925720214844 C 217.44894409179688 149.90594482421875 238.42556762695312 151.9700164794922 252.83775329589844 153.7737579345703"/>
    <path stroke-width="0" fill="rgb(145, 136, 132)" opacity="0.757651" stroke="rgb(61, 25, 4)" stroke-opacity="1.0" stroke-linecap="round" stroke-linejoin="round" d="M 240.40948486328125 163.2041473388672 C 242.44647216796875 136.92446899414062 245.2021484375 145.82247924804688 256.5264892578125 152.93124389648438 C 241.12649536132812 168.89202880859375 248.94874572753906 182.01455688476562 254.99673461914062 190.8511962890625 C 237.26502990722656 160.82591247558594 240.99607849121094 153.0919647216797 260.9658203125 150.90736389160156 C 249.75901794433594 146.2941131591797 246.74276733398438 164.24951171875 240.40948486328125 163.2041473388672"/>
    <path stroke-width="0" fill="rgb(71, 55, 31)" opacity="0.623449" stroke="rgb(170, 200, 71)" stroke-opacity="1.0" stroke-linecap="round" stroke-linejoin="round" d="M 233.39968872070312 153.91180419921875 C 248.73724365234375 166.7584228515625 226.39593505859375 156.20314025878906 237.87034606933594 146.57403564453125 C 258.8363037109375 178.20887756347656 246.6304931640625 181.5871124267578 211.57093811035156 183.2055206298828 C 201.92041015625 187.40570068359375 218.60365295410156 183.6280975341797 206.69247436523438 183.66317749023438 C 258.5362548828125 180.74758911132812 243.5391082763672 176.43479919433594 233.39968872070312 153.91180419921875"/>
    <path stroke-width="0" fill="rgb(96, 66, 27)" opacity="0.18825115" stroke="rgb(86, 245, 59)" stroke-opacity="1.0" stroke-linecap="round" stroke-linejoin="round" d="M 221.3234100341797 377.721923828125 C 245.90460205078125 369.84967041015625 234.42752075195312 371.13079833984375 189.4428253173828 384.8583984375 C 193.7873992919922 384.8593444824219 187.49920654296875 382.5262451171875 189.2878875732422 379.4771728515625 C 191.51953125 368.8376770019531 174.10415649414062 372.1258239746094 184.35565185546875 351.3862609863281 C 200.19943237304688 382.9158020019531 173.75277709960938 377.95184326171875 221.3234100341797 377.721923828125"/>
    <path stroke-width="0" fill="rgb(198, 194, 197)" opacity="0.8450912" stroke="rgb(126, 163, 93)" stroke-opacity="1.0" stroke-linecap="round" stroke-linejoin="round" d="M 251.9527130126953 156.83346557617188 C 251.56478881835938 154.89108276367188 246.94601440429688 130.75732421875 246.49334716796875 156.41635131835938 C 243.06390380859375 173.21432495117188 230.05902099609375 133.29371643066406 243.0625762939453 152.62806701660156 C 243.18972778320312 175.38711547851562 244.44309997558594 173.55555725097656 241.6895751953125 176.29698181152344 C 236.74298095703125 152.7695770263672 248.25930786132812 151.3325653076172 251.9527130126953 156.83346557617188"/>
    <path stroke-width="0" fill="rgb(241, 240, 245)" opacity="0.6852238" stroke="rgb(24, 219, 248)" stroke-opacity="1.0" stroke-linecap="round" stroke-linejoin="round" d="M 246.714599609375 179.857421875 C 264.2070007324219 180.82424926757812 267.83447265625 149.4796600341797 248.79132080078125 186.23655700683594 C 242.11773681640625 148.0758514404297 241.6487579345703 143.29518127441406 234.29371643066406 158.69017028808594 C 260.71826171875 152.89015197753906 281.0157775878906 154.54580688476562 251.78221130371094 151.1314697265625 C 248.69058227539062 143.4091796875 251.0688018798828 147.82159423828125 246.714599609375 179.857421875"/>
    <path stroke-width="0" fill="rgb(91, 95, 102)" opacity="0.87448937" stroke="rgb(231, 197, 84)" stroke-opacity="1.0" stroke-linecap="round" stroke-linejoin="round" d="M 260.5033874511719 145.5684356689453 C 271.8622131347656 150.94964599609375 267.3962097167969 154.52638244628906 233.71746826171875 158.68911743164062 C 255.98338317871094 163.72230529785156 283.0984802246094 139.30210876464844 294.96429443359375 129.90444946289062 C 217.53875732421875 137.62232971191406 212.40980529785156 141.94989013671875 277.5509338378906 140.1063995361328 C 256.7056884765625 160.8612823486328 245.4007568359375 173.94720458984375 260.5033874511719 145.5684356689453"/>
    <path stroke-width="0" fill="rgb(183, 119, 41)" opacity="0.7464233" stroke="rgb(103, 59, 33)" stroke-opacity="1.0" stroke-linecap="round" stroke-linejoin="round" d="M 246.53038024902344 191.11166381835938 C 252.45449829101562 189.89974975585938 256.0554504394531 188.166259765625 238.2536163330078 169.05516052246094 C 249.5386199951172 169.49952697753906 238.03955078125 178.38734436035156 251.58261108398438 189.22982788085938 C 233.11203002929688 177.81190490722656 272.2366638183594 176.74700927734375 245.8431396484375 189.3818817138672 C 265.7169494628906 183.6827850341797 249.77987670898438 174.95240783691406 246.53038024902344 191.11166381835938"/>
    <path stroke-width="0" fill="rgb(223, 137, 27)" opacity="0.43855733" stroke="rgb(185, 2, 196)" stroke-opacity="1.0" stroke-linecap="round" stroke-linejoin="round" d="M 246.42466735839844 153.71165466308594 C 253.93112182617188 183.93995666503906 240.6844024658203 213.6717071533203 244.1821746826172 156.22500610351562 C 246.79385375976562 164.2147216796875 249.27491760253906 177.70677185058594 254.89866638183594 174.6632537841797 C 241.62542724609375 177.3476104736328 250.03660583496094 189.4633331298828 244.95314025878906 190.76358032226562 C 240.7323760986328 186.56961059570312 256.1716613769531 194.06837463378906 246.42466735839844 153.71165466308594"/>
    <path stroke-width="0" fill="rgb(149, 121, 96)" opacity="0.7103044" stroke="rgb(20, 22, 171)" stroke-opacity="1.0" stroke-linecap="round" stroke-linejoin="round" d="M 252.88104248046875 188.63990783691406 C 240.0926971435547 201.15084838867188 252.14236450195312 175.3773193359375 256.5119934082031 187.13546752929688 C 238.46661376953125 168.60775756835938 238.71937561035156 167.35943603515625 242.7704315185547 160.2633819580078 C 240.2174530029297 170.0118865966797 253.01870727539062 166.86953735351562 244.95852661132812 170.8772735595703 C 246.680419921875 184.66651916503906 251.1395721435547 182.17245483398438 252.88104248046875 188.63990783691406"/>
    <path stroke-width="0" fill="rgb(250, 188, 2)" opacity="0.7452586" stroke="rgb(107, 142, 219)" stroke-opacity="1.0" stroke-linecap="round" stroke-linejoin="round" d="M 246.4913787841797 209.99978637695312 C 272.63885498046875 178.8252410888672 267.01763916015625 197.80728149414062 275.8644104003906 205.351318359375 C 254.45985412597656 186.49246215820312 282.3412780761719 166.61619567871094 264.5328674316406 176.7478790283203 C 257.9272766113281 212.8450164794922 301.6278381347656 197.27952575683594 262.5888977050781 190.65182495117188 C 269.5907287597656 187.62750244140625 257.1078186035156 197.63925170898438 246.4913787841797 209.99978637695312"/>
    <path stroke-width="0" fill="rgb(252, 254, 251)" opacity="0.8185371" stroke="rgb(68, 33, 14)" stroke-opacity="1.0" stroke-linecap="round" stroke-linejoin="round" d="M 294.4616394042969 207.93649291992188 C 268.5033264160156 214.45440673828125 250.72911071777344 214.21739196777344 276.268310546875 212.3710174560547 C 275.3494873046875 208.38485717773438 265.7345886230469 193.5466766357422 245.14407348632812 180.64102172851562 C 247.06686401367188 188.31124877929688 262.3851623535156 197.6721954345703 241.6245574951172 167.90203857421875 C 259.74884033203125 203.7249298095703 270.61480712890625 217.89730834960938 294.4616394042969 207.93649291992188"/>
    <path stroke-width="0" fill="rgb(73, 63, 49)" opacity="0.71164286" stroke="rgb(66, 116, 174)" stroke-opacity="1.0" stroke-linecap="round" stroke-linejoin="round" d="M 278.8701171875 181.96844482421875 C 244.7908477783203 191.9407196044922 240.7875213623047 179.5724334716797 246.65060424804688 203.19400024414062 C 245.08872985839844 193.23768615722656 242.68211364746094 181.76136779785156 247.14112854003906 183.0591278076172 C 254.24729919433594 137.64361572265625 236.1083526611328 163.83615112304688 252.98089599609375 158.79273986816406 C 239.817626953125 194.83860778808594 266.36846923828125 185.7427978515625 278.8701171875 181.96844482421875"/>
    <path stroke-width="0" fill="rgb(255, 253, 254)" opacity="0.14003955" stroke="rgb(147, 244, 164)" stroke-opacity="1.0" stroke-linecap="round" stroke-linejoin="round" d="M 195.66441345214844 294.9778747558594 C 182.21127319335938 302.5468444824219 175.59378051757812 281.6701354980469 186.01316833496094 278.0763854980469 C 177.089599609375 294.44256591796875 174.96107482910156 280.40716552734375 208.54736328125 278.9285888671875 C 197.40013122558594 265.8241271972656 185.80955505371094 264.4276428222656 189.31553649902344 268.7377014160156 C 193.72044372558594 257.11981201171875 188.44139099121094 265.883544921875 195.66441345214844 294.9778747558594"/>
    <path stroke-width="0" fill="rgb(58, 32, 19)" opacity="0.95529455" stroke="rgb(109, 130, 136)" stroke-opacity="1.0" stroke-linecap="round" stroke-linejoin="round" d="M 189.58755493164062 337.6102600097656 C 174.86761474609375 291.3768310546875 180.73843383789062 290.61016845703125 183.23800659179688 289.1916809082031 C 185.90267944335938 295.316650390625 164.05343627929688 279.18524169921875 163.74684143066406 239.26243591308594 C 185.11111450195312 298.2278747558594 175.06362915039062 300.6679382324219 190.239013671875 237.09228515625 C 198.79188537597656 216.40171813964844 181.17373657226562 247.4372100830078 189.58755493164062 337.6102600097656"/>
    <path stroke-width="0" fill="rgb(108, 100, 110)" opacity="0.8363885" stroke="rgb(70, 32, 100)" stroke-opacity="1.0" stroke-linecap="round" stroke-linejoin="round" d="M 364.74432373046875 288.599853515625 C 360.9865417480469 306.729248046875 357.0446472167969 298.0031433105469 360.4514465332031 302.6080627441406 C 363.4074401855469 295.57208251953125 364.8629150390625 294.41351318359375 348.256591796875 318.24969482421875 C 355.8154602050781 329.1051330566406 364.91656494140625 326.12152099609375 371.30157470703125 330.0977478027344 C 321.8451843261719 311.99896240234375 352.9399108886719 341.7991027832031 364.74432373046875 288.599853515625"/>
    <path stroke-width="0" fill="rgb(58, 36, 16)" opacity="0.8137689" stroke="rgb(47, 230, 138)" stroke-opacity="1.0" stroke-linecap="round" stroke-linejoin="round" d="M 182.40257263183594 355.8028259277344 C 164.27647399902344 359.92510986328125 174.76881408691406 368.3263854980469 172.3766326904297 330.17352294921875 C 178.8471221923828 335.1252136230469 174.5886993408203 325.5888671875 197.82896423339844 364.01214599609375 C 178.45509338378906 320.5908508300781 154.68641662597656 258.3355407714844 166.65121459960938 306.4213562011719 C 176.4746551513672 335.1891174316406 179.2014617919922 345.6931457519531 182.40257263183594 355.8028259277344"/>
    <path stroke-width="0" fill="rgb(22, 13, 4)" opacity="0.92183757" stroke="rgb(224, 116, 184)" stroke-opacity="1.0" stroke-linecap="round" stroke-linejoin="round" d="M 325.455810546875 345.1463623046875 C 340.4327087402344 305.635009765625 327.743408203125 329.3731994628906 304.0859069824219 369.6329040527344 C 323.4109191894531 336.5318603515625 341.9405822753906 307.4365234375 312.9424743652344 360.7252197265625 C 310.01312255859375 337.520263671875 321.0192565917969 334.8003234863281 334.52044677734375 331.6824951171875 C 301.24365234375 339.7145080566406 317.3988342285156 345.0435791015625 325.455810546875 345.1463623046875"/>
    <path stroke-width="0" fill="rgb(98, 98, 101)" opacity="0.636836" stroke="rgb(230, 175, 178)" stroke-opacity="1.0" stroke-linecap="round" stroke-linejoin="round" d="M 162.4998779296875 325.5107116699219 C 151.35940551757812 298.5202941894531 134.19570922851562 315.96710205078125 120.64623260498047 301.9585266113281 C 142.19212341308594 312.85980224609375 150.66900634765625 316.6903991699219 142.63412475585938 309.839599609375 C 152.46401977539062 319.73095703125 134.2310791015625 319.6594543457031 159.81112670898438 326.95953369140625 C 183.51702880859375 253.31463623046875 190.94981384277344 273.19195556640625 162.4998779296875 325.5107116699219"/>
    <path stroke-width="0" fill="rgb(244, 241, 233)" opacity="0.21001726" stroke="rgb(192, 162, 61)" stroke-opacity="1.0" stroke-linecap="round" stroke-linejoin="round" d="M 289.240966796875 328.8923034667969 C 297.2008361816406 344.3055725097656 320.2869567871094 368.8413391113281 326.8530578613281 334.7471618652344 C 310.1222839355469 341.993408203125 279.288330078125 341.8330383300781 281.4653625488281 332.8934631347656 C 268.6851806640625 302.3125305175781 272.3487854003906 296.10400390625 303.807861328125 285.2310485839844 C 300.3722839355469 321.0696716308594 295.8578796386719 348.6710510253906 289.240966796875 328.8923034667969"/>
    <path stroke-width="0" fill="rgb(254, 251, 249)" opacity="0.45645952" stroke="rgb(203, 244, 116)" stroke-opacity="1.0" stroke-linecap="round" stroke-linejoin="round" d="M 257.489013671875 335.47589111328125 C 233.6808624267578 384.127685546875 212.9984893798828 408.4651184082031 218.00051879882812 372.6104431152344 C 188.34933471679688 318.8932189941406 216.20755004882812 310.3656311035156 215.31524658203125 350.9082336425781 C 214.9331817626953 360.4748229980469 212.6327362060547 355.28936767578125 213.73060607910156 291.9336853027344 C 232.6757049560547 288.47479248046875 226.83737182617188 298.7178039550781 257.489013671875 335.47589111328125"/>
    <path stroke-width="0" fill="rgb(185, 159, 130)" opacity="0.65247214" stroke="rgb(209, 231, 207)" stroke-opacity="1.0" stroke-linecap="round" stroke-linejoin="round" d="M 305.6832580566406 336.70367431640625 C 320.73651123046875 308.86053466796875 285.8041076660156 360.40411376953125 326.2210693359375 337.35040283203125 C 330.4246520996094 316.15045166015625 325.1222229003906 303.82958984375 319.9419250488281 314.5817565917969 C 321.0755920410156 364.3834228515625 315.7900085449219 364.7500915527344 316.3921203613281 334.48211669921875 C 301.9468078613281 329.2905578613281 310.35894775390625 336.1380310058594 305.6832580566406 336.70367431640625"/>
    <path stroke-width="0" fill="rgb(48, 28, 14)" opacity="1.0102638" stroke="rgb(65, 216, 8)" stroke-opacity="1.0" stroke-linecap="round" stroke-linejoin="round" d="M 186.57859802246094 395.9906921386719 C 176.1214599609375 340.71142578125 199.2310028076172 338.14300537109375 199.61273193359375 369.7363586425781 C 193.26547241210938 405.6238708496094 183.25755310058594 400.0124206542969 165.60267639160156 348.88006591796875 C 155.719482421875 336.88677978515625 167.8291778564453 322.6219787597656 195.86497497558594 334.95062255859375 C 203.81634521484375 366.6953430175781 194.5916290283203 376.49090576171875 186.57859802246094 395.9906921386719"/>
    <path stroke-width="0" fill="rgb(255, 254, 256)" opacity="0.88602984" stroke="rgb(102, 236, 25)" stroke-opacity="1.0" stroke-linecap="round" stroke-linejoin="round" d="M 286.1463928222656 356.5023193359375 C 274.3554992675781 370.1028747558594 219.45005798339844 394.337158203125 214.7364959716797 386.70306396484375 C 219.34519958496094 368.0496826171875 221.52557373046875 348.5239562988281 220.702392578125 333.7765197753906 C 228.63784790039062 388.8605041503906 229.18850708007812 378.8717346191406 218.32347106933594 328.7959899902344 C 230.2994842529297 345.7618408203125 251.47105407714844 352.80010986328125 286.1463928222656 356.5023193359375"/>
    <path stroke-width="0" fill="rgb(67, 46, 17)" opacity="1.0161158" stroke="rgb(33, 3, 29)" stroke-opacity="1.0" stroke-linecap="round" stroke-linejoin="round" d="M 231.729248046875 388.79962158203125 C 215.95578002929688 382.0423889160156 223.512939453125 408.7497863769531 219.74229431152344 417.3305969238281 C 172.9745635986328 409.2102355957031 151.55274963378906 440.146484375 163.0497283935547 400.1568298339844 C 153.64686584472656 403.4684143066406 229.0687713623047 398.09228515625 236.7627410888672 397.9451904296875 C 218.98960876464844 399.33740234375 209.24652099609375 401.87982177734375 231.729248046875 388.79962158203125"/>
    <path stroke-width="0" fill="rgb(84, 63, 23)" opacity="0.71690875" stroke="rgb(199, 73, 61)" stroke-opacity="1.0" stroke-linecap="round" stroke-linejoin="round" d="M 281.4885559082031 408.38214111328125 C 291.2273864746094 393.1279602050781 268.1264343261719 405.421142578125 283.5492248535156 398.970458984375 C 286.4981994628906 411.35748291015625 283.0867004394531 395.40252685546875 282.4435729980469 401.72589111328125 C 287.7949523925781 395.7022705078125 268.89013671875 401.6624450683594 354.712158203125 400.0532531738281 C 371.7589416503906 421.8349609375 254.73269653320312 422.54046630859375 281.4885559082031 408.38214111328125"/>
    <path stroke-width="0" fill="rgb(91, 97, 95)" opacity="1.0001241" stroke="rgb(175, 14, 186)" stroke-opacity="1.0" stroke-linecap="round" stroke-linejoin="round" d="M 490.24835205078125 134.3325653076172 C 446.391357421875 186.24790954589844 515.2305908203125 264.29412841796875 640.13232421875 131.18946838378906 C 511.7834777832031 79.14395141601562 608.1447143554688 -3.676504135131836 342.0414123535156 -82.49774932861328 C 130.55606079101562 154.26419067382812 226.64996337890625 1.9183889627456665 366.3192138671875 86.91653442382812 C 501.3707275390625 159.14842224121094 454.2607116699219 127.83387756347656 490.24835205078125 134.3325653076172"/>
    <path stroke-width="0" fill="rgb(91, 96, 99)" opacity="0.8616114" stroke="rgb(95, 190, 60)" stroke-opacity="1.0" stroke-linecap="round" stroke-linejoin="round" d="M 140.2444610595703 163.23095703125 C 130.04339599609375 193.6881866455078 95.15034484863281 149.92559814453125 75.04241180419922 206.16204833984375 C 136.94662475585938 261.93658447265625 135.5689239501953 182.4471893310547 176.6109161376953 166.4007568359375 C 137.14102172851562 198.04751586914062 133.61233520507812 208.3846893310547 173.51145935058594 179.156005859375 C 166.15538024902344 162.0141143798828 169.60687255859375 186.59762573242188 140.2444610595703 163.23095703125"/>
    <path stroke-width="0" fill="rgb(54, 29, 7)" opacity="0.99577016" stroke="rgb(213, 60, 128)" stroke-opacity="1.0" stroke-linecap="round" stroke-linejoin="round" d="M 248.56346130371094 151.03305053710938 C 258.30718994140625 190.97816467285156 245.0700225830078 163.04136657714844 221.02760314941406 151.6484375 C 234.21337890625 160.153076171875 225.20277404785156 153.05953979492188 214.43431091308594 150.83560180664062 C 186.02911376953125 121.75758361816406 182.37559509277344 122.03642272949219 193.64418029785156 148.28514099121094 C 210.27210998535156 138.68077087402344 358.26904296875 143.158935546875 248.56346130371094 151.03305053710938"/>
    <path stroke-width="0" fill="rgb(73, 68, 63)" opacity="0.891616" stroke="rgb(97, 228, 246)" stroke-opacity="1.0" stroke-linecap="round" stroke-linejoin="round" d="M 61.84650421142578 316.6497802734375 C 48.68936538696289 321.8554992675781 47.19265365600586 289.8251953125 52.704132080078125 294.9286804199219 C 50.67333221435547 292.23760986328125 50.093692779541016 305.0555114746094 47.37924575805664 293.94134521484375 C 46.15495300292969 299.1177062988281 55.37364959716797 265.7999267578125 49.8680419921875 306.3841857910156 C 61.1395149230957 294.603515625 49.64769744873047 332.19189453125 61.84650421142578 316.6497802734375"/>
    <path stroke-width="0" fill="rgb(91, 97, 96)" opacity="0.9078789" stroke="rgb(228, 103, 140)" stroke-opacity="1.0" stroke-linecap="round" stroke-linejoin="round" d="M 128.65025329589844 277.1717834472656 C 152.61917114257812 309.9606018066406 156.95335388183594 310.426513671875 111.80137634277344 327.2393798828125 C 95.54867553710938 341.0470275878906 69.3392333984375 321.0374450683594 123.63819885253906 272.61029052734375 C 118.6760482788086 280.3866882324219 144.68907165527344 258.70208740234375 136.55172729492188 299.38726806640625 C 139.1274871826172 299.4022216796875 153.11679077148438 286.0565185546875 128.65025329589844 277.1717834472656"/>
    <path stroke-width="0" fill="rgb(254, 257, 257)" opacity="0.9950705" stroke="rgb(63, 128, 79)" stroke-opacity="1.0" stroke-linecap="round" stroke-linejoin="round" d="M 249.75738525390625 192.1312713623047 C 209.7288360595703 213.92254638671875 216.73959350585938 226.14874267578125 237.9369354248047 219.44337463378906 C 225.58062744140625 212.21328735351562 218.53863525390625 221.04238891601562 205.86415100097656 182.94004821777344 C 214.08787536621094 234.4978485107422 247.59173583984375 219.71534729003906 240.332275390625 175.1472930908203 C 207.47174072265625 144.56993103027344 287.05181884765625 184.72830200195312 249.75738525390625 192.1312713623047"/>
    <path stroke-width="0" fill="rgb(247, 250, 246)" opacity="0.20105779" stroke="rgb(85, 235, 219)" stroke-opacity="1.0" stroke-linecap="round" stroke-linejoin="round" d="M 297.56884765625 389.2198791503906 C 302.538818359375 406.861083984375 269.1043701171875 381.4664001464844 269.33294677734375 386.67071533203125 C 243.19100952148438 393.099609375 182.28143310546875 383.3677673339844 227.9742431640625 365.9600830078125 C 206.57810974121094 295.3853454589844 240.8167266845703 282.7676696777344 294.3219299316406 316.3678894042969 C 280.2035217285156 356.79949951171875 303.0118408203125 359.3433837890625 297.56884765625 389.2198791503906"/>
    <path stroke-width="0" fill="rgb(94, 96, 97)" opacity="0.7703485" stroke="rgb(26, 88, 188)" stroke-opacity="1.0" stroke-linecap="round" stroke-linejoin="round" d="M 149.66346740722656 163.89222717285156 C 96.52584838867188 209.18003845214844 87.1259536743164 246.49627685546875 106.7279281616211 229.48777770996094 C 159.7631378173828 224.27731323242188 145.1796875 215.31529235839844 142.2192840576172 201.64491271972656 C 143.54541015625 254.67276000976562 138.83688354492188 262.2873840332031 137.0934600830078 213.73419189453125 C 111.29830169677734 254.31724548339844 115.9336929321289 237.87741088867188 149.66346740722656 163.89222717285156"/>
    <path stroke-width="0" fill="rgb(39, 19, 10)" opacity="0.84158206" stroke="rgb(52, 87, 172)" stroke-opacity="1.0" stroke-linecap="round" stroke-linejoin="round" d="M 302.7676086425781 346.1520080566406 C 318.3138122558594 397.2996826171875 319.06353759765625 360.64141845703125 311.1805114746094 389.990478515625 C 299.9298400878906 396.4143981933594 296.09393310546875 418.2824401855469 303.3766174316406 317.75726318359375 C 309.0940246582031 334.8396301269531 320.427734375 338.7228088378906 320.32012939453125 277.0176086425781 C 338.31103515625 346.9544372558594 325.755859375 373.2205810546875 302.7676086425781 346.1520080566406"/>
    <path stroke-width="0" fill="rgb(63, 30, 18)" opacity="0.95533746" stroke="rgb(7, 181, 2)" stroke-opacity="1.0" stroke-linecap="round" stroke-linejoin="round" d="M 303.0322570800781 137.09046936035156 C 279.3254699707031 153.2843780517578 256.85333251953125 152.6492462158203 296.25347900390625 145.8400421142578 C 272.1227111816406 154.14984130859375 230.1533203125 186.08042907714844 245.19049072265625 143.6549835205078 C 276.2111511230469 138.81439208984375 315.080810546875 162.84121704101562 312.50274658203125 126.35643005371094 C 272.85137939453125 156.31581115722656 269.7976379394531 153.99017333984375 303.0322570800781 137.09046936035156"/>
    <path stroke-width="0" fill="rgb(90, 96, 96)" opacity="0.79641855" stroke="rgb(22, 103, 6)" stroke-opacity="1.0" stroke-linecap="round" stroke-linejoin="round" d="M 281.57257080078125 485.52178955078125 C 268.0704650878906 489.5478820800781 341.35577392578125 503.0455322265625 205.16700744628906 541.3824462890625 C 81.79784393310547 490.63555908203125 259.095947265625 469.20147705078125 250.11720275878906 468.0362854003906 C 254.4619903564453 472.8742370605469 291.072509765625 512.0343017578125 230.7215576171875 497.2386169433594 C 213.73577880859375 474.8821105957031 228.1784210205078 446.64080810546875 281.57257080078125 485.52178955078125"/>
    <path stroke-width="0" fill="rgb(91, 98, 95)" opacity="1.0009925" stroke="rgb(53, 29, 147)" stroke-opacity="1.0" stroke-linecap="round" stroke-linejoin="round" d="M 336.6446228027344 157.68875122070312 C 315.4742431640625 88.93194580078125 336.4557189941406 53.015045166015625 392.26422119140625 111.81697845458984 C 365.6269226074219 207.5261993408203 337.895263671875 135.8599090576172 333.718994140625 136.7188262939453 C 336.7469482421875 165.8660430908203 343.6131286621094 159.21095275878906 350.91534423828125 152.48104858398438 C 325.4337463378906 155.4566192626953 343.4167175292969 154.588623046875 336.6446228027344 157.68875122070312"/>
    <path stroke-width="0" fill="rgb(91, 96, 97)" opacity="0.7075288" stroke="rgb(0, 165, 153)" stroke-opacity="1.0" stroke-linecap="round" stroke-linejoin="round" d="M 454.62591552734375 521.6663818359375 C 380.59552001953125 503.44757080078125 293.97808837890625 480.3243408203125 360.0404968261719 504.8968200683594 C 358.17584228515625 487.3665771484375 249.69187927246094 513.4152221679688 245.68539428710938 478.24835205078125 C 305.5079345703125 428.6163635253906 339.3381042480469 459.7767639160156 329.4930419921875 478.1844787597656 C 359.71746826171875 432.5292053222656 408.6988830566406 421.56231689453125 454.62591552734375 521.6663818359375"/>
    <path stroke-width="0" fill="rgb(95, 170, 25)" opacity="0.4751631" stroke="rgb(0, 0, 0)" stroke-opacity="0.0" stroke-linecap="round" stroke-linejoin="round" d="M 23.7049560546875 67.25849914550781 C 22.98244857788086 70.74745178222656 19.800905227661133 73.39696502685547 15.246054649353027 74.22779846191406 C 10.963059425354004 73.9915771484375 8.164898872375488 71.6177978515625 7.237578392028809 66.59209442138672 C 8.9375581741333 62.89028549194336 12.23241138458252 60.36857223510742 16.761741638183594 59.27326202392578 C 20.61097526550293 58.825408935546875 22.52476692199707 62.37727737426758 23.7049560546875 67.25849914550781"/>
    <path stroke-width="0" fill="rgb(25, 109, 233)" opacity="0.4604547" stroke="rgb(0, 0, 0)" stroke-opacity="0.0" stroke-linecap="round" stroke-linejoin="round" d="M 30.441537857055664 55.00552749633789 C 29.794639587402344 59.89384460449219 27.00210952758789 62.36811447143555 22.660083770751953 62.56791305541992 C 18.563186645507812 62.36790466308594 15.1783447265625 59.76557540893555 14.458762168884277 56.07095718383789 C 15.666516304016113 51.627479553222656 18.9789981842041 49.12367630004883 23.41725730895996 48.539608001708984 C 27.329317092895508 47.99219512939453 30.308977127075195 50.75141525268555 30.441537857055664 55.00552749633789"/>
    <path stroke-width="0" fill="rgb(120, 14, 229)" opacity="0.46193627" stroke="rgb(0, 0, 0)" stroke-opacity="0.0" stroke-linecap="round" stroke-linejoin="round" d="M 334.9392395019531 111.56928253173828 C 334.1213684082031 114.8707504272461 331.4692077636719 118.00180053710938 327.3952331542969 119.1839828491211 C 323.009521484375 119.00531768798828 320.2149658203125 116.20403289794922 320.1365661621094 111.48625946044922 C 320.75531005859375 107.37578582763672 324.330322265625 105.4116439819336 327.78546142578125 104.94261932373047 C 330.64447021484375 105.73968505859375 333.91717529296875 108.31678009033203 334.9392395019531 111.56928253173828"/>
    <path stroke-width="0" fill="rgb(37, 115, 168)" opacity="0.9427034" stroke="rgb(0, 0, 0)" stroke-opacity="0.0" stroke-linecap="round" stroke-linejoin="round" d="M 30.363201141357422 5.19647741317749 C 28.603796005249023 8.707564353942871 25.973657608032227 11.37734317779541 22.489887237548828 11.218389511108398 C 18.261499404907227 11.43887996673584 15.535558700561523 9.346393585205078 14.559694290161133 4.705380439758301 C 14.998268127441406 0.7971565127372742 18.057222366333008 -2.0307986736297607 21.870216369628906 -2.2523810863494873 C 25.55057144165039 -0.948627233505249 28.41943359375 2.040405511856079 30.363201141357422 5.19647741317749"/>
    <path stroke-width="0" fill="rgb(154, 19, 156)" opacity="0.37605423" stroke="rgb(0, 0, 0)" stroke-opacity="0.0" stroke-linecap="round" stroke-linejoin="round" d="M 156.98416137695312 67.89463806152344 C 155.90072631835938 71.27719116210938 153.46446228027344 74.80815124511719 149.64820861816406 76.41914367675781 C 145.39808654785156 74.88048553466797 143.10385131835938 71.67758178710938 142.62588500976562 67.84041595458984 C 143.02880859375 64.01306915283203 145.8962860107422 61.31450271606445 149.21156311035156 60.912696838378906 C 152.34979248046875 61.94743728637695 155.38937377929688 64.86640167236328 156.98416137695312 67.89463806152344"/>
    <path stroke-width="0" fill="rgb(242, 21, 38)" opacity="0.0072004413" stroke="rgb(0, 0, 0)" stroke-opacity="0.0" stroke-linecap="round" stroke-linejoin="round" d="M 306.51141357421875 400.68658447265625 C 304.9460144042969 405.1478271484375 301.94439697265625 408.03778076171875 297.91033935546875 408.68548583984375 C 293.8175354003906 408.2376403808594 290.8327331542969 405.2933349609375 289.77947998046875 401.0525817871094 C 290.88751220703125 396.98504638671875 293.8694152832031 394.2259521484375 297.8892822265625 393.2160949707031 C 301.1662902832031 395.1507568359375 305.0091552734375 397.4588928222656 306.51141357421875 400.68658447265625"/>
    <path stroke-width="0" fill="rgb(150, 196, 121)" opacity="0.5573241" stroke="rgb(0, 0, 0)" stroke-opacity="0.0" stroke-linecap="round" stroke-linejoin="round" d="M 162.4647674560547 111.23686981201172 C 161.48011779785156 114.90299224853516 159.2045135498047 118.54377746582031 154.80503845214844 119.92121887207031 C 150.62855529785156 118.39575958251953 148.23699951171875 115.1089859008789 146.68521118164062 110.75871276855469 C 147.55287170410156 106.8899917602539 150.886962890625 103.99992370605469 154.32553100585938 103.2295913696289 C 158.3150177001953 104.72245788574219 161.66989135742188 107.46236419677734 162.4647674560547 111.23686981201172"/>
    <path stroke-width="0" fill="rgb(13, 73, 13)" opacity="0.029278664" stroke="rgb(0, 0, 0)" stroke-opacity="0.0" stroke-linecap="round" stroke-linejoin="round" d="M 511.19378662109375 77.4442138671875 C 509.7010192871094 81.94883728027344 506.8082275390625 84.78256225585938 502.8281555175781 85.23593139648438 C 498.61651611328125 85.07018280029297 496.076416015625 82.22682189941406 495.5907897949219 77.93779754638672 C 495.9288635253906 73.90267944335938 498.8095397949219 71.26171112060547 502.2315979003906 70.84125518798828 C 506.36785888671875 71.6192626953125 510.06951904296875 73.97879028320312 511.19378662109375 77.4442138671875"/>
    <path stroke-width="0" fill="rgb(103, 201, 152)" opacity="0.049991556" stroke="rgb(0, 0, 0)" stroke-opacity="0.0" stroke-linecap="round" stroke-linejoin="round" d="M 248.5067901611328 89.28711700439453 C 248.92611694335938 93.962646484375 246.5554962158203 96.84767150878906 241.6109161376953 96.35289001464844 C 236.34434509277344 96.5110855102539 233.4160614013672 94.16162872314453 233.42828369140625 89.40113830566406 C 233.50991821289062 84.25733947753906 237.20948791503906 82.40328216552734 242.03329467773438 81.57878875732422 C 246.21725463867188 81.49311065673828 248.36927795410156 84.70584869384766 248.5067901611328 89.28711700439453"/>
    <path stroke-width="0" fill="rgb(224, 51, 216)" opacity="0.52307403" stroke="rgb(0, 0, 0)" stroke-opacity="0.0" stroke-linecap="round" stroke-linejoin="round" d="M 362.1064453125 78.39478302001953 C 361.3817138671875 82.75220489501953 358.8772277832031 85.67162322998047 354.7569274902344 85.8799057006836 C 350.9156188964844 84.75167083740234 347.78302001953125 81.86674499511719 346.91265869140625 78.20520782470703 C 347.6865539550781 74.66566467285156 350.8434143066406 72.14236450195312 354.24188232421875 71.97999572753906 C 358.44305419921875 71.74583435058594 361.3025207519531 74.18570709228516 362.1064453125 78.39478302001953"/>
    <path stroke-width="0" fill="rgb(19, 82, 217)" opacity="0.43898162" stroke="rgb(0, 0, 0)" stroke-opacity="0.0" stroke-linecap="round" stroke-linejoin="round" d="M -46.13517379760742 308.1306457519531 C -47.20697021484375 312.1306457519531 -50.13517379760742 315.058837890625 -54.13517379760742 316.1306457519531 C -58.13517379760742 315.058837890625 -61.063377380371094 312.1306457519531 -62.13517379760742 308.1306457519531 C -61.063377380371094 304.1306457519531 -58.13517379760742 301.2024230957031 -54.13517379760742 300.1306457519531 C -50.13517379760742 301.2024230957031 -47.20697021484375 304.1306457519531 -46.13517379760742 308.1306457519531"/>
    <path stroke-width="0" fill="rgb(48, 192, 246)" opacity="0.6563721" stroke="rgb(0, 0, 0)" stroke-opacity="0.0" stroke-linecap="round" stroke-linejoin="round" d="M 280.59710693359375 347.2010498046875 C 279.3730773925781 350.8894348144531 277.1681213378906 354.238037109375 273.451171875 355.47161865234375 C 270.2282409667969 354.7723693847656 268.162353515625 351.1335144042969 267.3878173828125 346.88916015625 C 267.115966796875 344.6879577636719 270.9873352050781 342.19219970703125 274.1197814941406 340.9745788574219 C 276.7776184082031 341.9925231933594 279.90631103515625 344.9498291015625 280.59710693359375 347.2010498046875"/>
    <path stroke-width="0" fill="rgb(30, 233, 122)" opacity="0.7631404" stroke="rgb(0, 0, 0)" stroke-opacity="0.0" stroke-linecap="round" stroke-linejoin="round" d="M 247.1085662841797 371.0270690917969 C 245.62120056152344 374.97479248046875 242.657470703125 377.9764404296875 239.701904296875 378.7441711425781 C 236.74188232421875 377.4772033691406 233.8265380859375 374.5217590332031 232.52322387695312 371.0296936035156 C 232.8820037841797 368.02154541015625 235.70860290527344 365.4969177246094 239.1773681640625 365.0672912597656 C 243.22860717773438 365.7334899902344 246.7950897216797 367.75042724609375 247.1085662841797 371.0270690917969"/>
    <path stroke-width="0" fill="rgb(212, 144, 185)" opacity="0.64412785" stroke="rgb(0, 0, 0)" stroke-opacity="0.0" stroke-linecap="round" stroke-linejoin="round" d="M 514.2404174804688 392.5487060546875 C 513.3748779296875 396.1934509277344 510.5098571777344 399.23785400390625 506.4161071777344 400.2669677734375 C 502.63995361328125 399.8663330078125 499.79071044921875 396.588134765625 498.5962219238281 391.610107421875 C 499.8102722167969 388.89666748046875 503.65936279296875 386.8521728515625 507.2452697753906 385.4308776855469 C 510.47906494140625 385.5813903808594 513.07958984375 389.0093688964844 514.2404174804688 392.5487060546875"/>
    <path stroke-width="0" fill="rgb(202, 235, 34)" opacity="0.40693426" stroke="rgb(0, 0, 0)" stroke-opacity="0.0" stroke-linecap="round" stroke-linejoin="round" d="M 404.84210205078125 133.6080322265625 C 403.0487060546875 137.39126586914062 400.411865234375 140.56675720214844 396.4672546386719 141.5177764892578 C 392.17333984375 141.3563232421875 389.3299865722656 138.42588806152344 388.91162109375 134.3673095703125 C 389.79803466796875 129.57186889648438 392.3902282714844 126.54042053222656 396.81536865234375 126.18931579589844 C 401.0763854980469 126.54129028320312 403.5752868652344 129.6497802734375 404.84210205078125 133.6080322265625"/>
    <path stroke-width="0" fill="rgb(41, 66, 229)" opacity="0.2679893" stroke="rgb(0, 0, 0)" stroke-opacity="0.0" stroke-linecap="round" stroke-linejoin="round" d="M 38.881683349609375 29.81953239440918 C 38.92095947265625 34.8230094909668 36.81745147705078 37.838993072509766 32.690101623535156 37.733158111572266 C 28.188825607299805 37.098026275634766 24.70906639099121 34.63023376464844 23.843971252441406 30.430700302124023 C 24.557470321655273 25.819414138793945 27.814308166503906 23.686288833618164 32.8807373046875 23.32785415649414 C 36.96064376831055 22.75245475769043 39.387969970703125 25.684791564941406 38.881683349609375 29.81953239440918"/>
    <path stroke-width="0" fill="rgb(15, 112, 69)" opacity="0.5640096" stroke="rgb(0, 0, 0)" stroke-opacity="0.0" stroke-linecap="round" stroke-linejoin="round" d="M 275.23834228515625 154.58316040039062 C 274.5813903808594 157.78875732421875 271.4343566894531 160.61622619628906 267.1228332519531 161.65420532226562 C 263.19500732421875 161.0620574951172 259.98248291015625 158.38949584960938 259.6579284667969 154.7158966064453 C 261.3621826171875 150.79306030273438 264.60626220703125 148.09381103515625 268.90362548828125 146.81326293945312 C 272.2703857421875 146.0437774658203 274.5498352050781 149.3537139892578 275.23834228515625 154.58316040039062"/>
    <path stroke-width="0" fill="rgb(127, 51, 59)" opacity="0.25827175" stroke="rgb(0, 0, 0)" stroke-opacity="0.0" stroke-linecap="round" stroke-linejoin="round" d="M 136.4154052734375 186.68881225585938 C 135.86497497558594 190.9086151123047 133.5347442626953 194.79962158203125 130.29421997070312 194.63775634765625 C 125.85810089111328 193.8750762939453 122.86882781982422 191.2725067138672 121.29011535644531 187.21694946289062 C 122.09298706054688 182.7938232421875 124.85120391845703 179.8673095703125 128.82362365722656 179.5597381591797 C 133.71817016601562 180.60888671875 136.82980346679688 183.21287536621094 136.4154052734375 186.68881225585938"/>
    <path stroke-width="0" fill="rgb(41, 65, 46)" opacity="0.96282613" stroke="rgb(0, 0, 0)" stroke-opacity="0.0" stroke-linecap="round" stroke-linejoin="round" d="M 268.0680847167969 46.17273712158203 C 266.7960205078125 50.71699523925781 264.70867919921875 54.540077209472656 260.5116882324219 54.86094284057617 C 255.540283203125 54.76669692993164 253.11488342285156 51.65422058105469 252.14614868164062 46.53477478027344 C 252.5156707763672 41.93259048461914 255.38400268554688 38.9730224609375 259.9493713378906 38.70583724975586 C 264.4290466308594 40.030155181884766 267.6705322265625 42.985843658447266 268.0680847167969 46.17273712158203"/>
    <path stroke-width="0" fill="rgb(210, 222, 240)" opacity="0.060804162" stroke="rgb(0, 0, 0)" stroke-opacity="0.0" stroke-linecap="round" stroke-linejoin="round" d="M 141.761474609375 316.5875244140625 C 141.21388244628906 320.7403259277344 137.53744506835938 322.54376220703125 132.1971893310547 323.56207275390625 C 129.62716674804688 324.0320739746094 127.14405059814453 319.8265686035156 126.1941146850586 315.70416259765625 C 126.20909881591797 311.4866638183594 128.94247436523438 308.7926025390625 133.55621337890625 308.6799011230469 C 138.32508850097656 308.5374755859375 140.86961364746094 311.4437561035156 141.761474609375 316.5875244140625"/>
    <path stroke-width="0" fill="rgb(162, 38, 179)" opacity="0.5050457" stroke="rgb(0, 0, 0)" stroke-opacity="0.0" stroke-linecap="round" stroke-linejoin="round" d="M 32.23262405395508 466.2428283691406 C 31.42138671875 469.44256591796875 28.697845458984375 472.5831298828125 24.69045066833496 473.78656005859375 C 20.576213836669922 474.154296875 18.487319946289062 470.96844482421875 19.106904983520508 467.0486145019531 C 19.357271194458008 463.037353515625 22.237491607666016 460.37701416015625 25.73088264465332 460.0528869628906 C 28.562984466552734 460.4503479003906 31.538545608520508 463.10797119140625 32.23262405395508 466.2428283691406"/>
    <path stroke-width="0" fill="rgb(171, 129, 222)" opacity="0.69642663" stroke="rgb(0, 0, 0)" stroke-opacity="0.0" stroke-linecap="round" stroke-linejoin="round" d="M 43.27815628051758 329.3163146972656 C 43.52560806274414 333.56011962890625 40.736324310302734 336.1031188964844 36.33234786987305 336.5836486816406 C 31.83987045288086 336.92291259765625 29.342557907104492 334.5360412597656 29.79158592224121 329.2731018066406 C 29.728918075561523 325.76544189453125 33.525390625 323.61932373046875 37.72750473022461 322.699951171875 C 41.087745666503906 322.5981140136719 43.722694396972656 325.21942138671875 43.27815628051758 329.3163146972656"/>
    <path stroke-width="0" fill="rgb(255, 26, 128)" opacity="0.09985946" stroke="rgb(0, 0, 0)" stroke-opacity="0.0" stroke-linecap="round" stroke-linejoin="round" d="M 230.64683532714844 253.1094207763672 C 229.36505126953125 257.3846740722656 226.80592346191406 260.74615478515625 222.0151824951172 261.4273376464844 C 218.2769775390625 260.8170471191406 216.1851806640625 257.1907653808594 214.1445770263672 252.5198974609375 C 215.1241455078125 248.83839416503906 217.9251708984375 245.5638885498047 222.70608520507812 244.02964782714844 C 227.03228759765625 245.63478088378906 229.607177734375 249.0896759033203 230.64683532714844 253.1094207763672"/>
    <path stroke-width="0" fill="rgb(82, 26, 20)" opacity="0.112341344" stroke="rgb(0, 0, 0)" stroke-opacity="0.0" stroke-linecap="round" stroke-linejoin="round" d="M 157.25286865234375 468.36865234375 C 157.64407348632812 473.671875 155.17822265625 475.97320556640625 150.40621948242188 475.166015625 C 145.72903442382812 476.42767333984375 143.2721405029297 473.882568359375 143.24842834472656 468.82452392578125 C 143.72792053222656 465.2275085449219 146.80859375 462.5007629394531 150.725341796875 462.1014404296875 C 155.4167022705078 462.59893798828125 158.48072814941406 464.1401062011719 157.25286865234375 468.36865234375"/>
    <path stroke-width="0" fill="rgb(214, 102, 49)" opacity="0.38922548" stroke="rgb(0, 0, 0)" stroke-opacity="0.0" stroke-linecap="round" stroke-linejoin="round" d="M 295.63726806640625 143.7001495361328 C 293.9730224609375 148.22251892089844 291.9251403808594 152.02084350585938 288.4147033691406 152.38352966308594 C 283.46295166015625 151.8200225830078 280.0170593261719 149.51626586914062 279.3355407714844 145.38815307617188 C 281.1540832519531 141.03799438476562 284.465087890625 138.35012817382812 288.6310119628906 137.0739288330078 C 292.0862121582031 137.64266967773438 295.2378845214844 140.6009521484375 295.63726806640625 143.7001495361328"/>
    <path stroke-width="0" fill="rgb(249, 241, 98)" opacity="0.5372101" stroke="rgb(0, 0, 0)" stroke-opacity="0.0" stroke-linecap="round" stroke-linejoin="round" d="M 98.95987701416016 -60.89855194091797 C 97.8880844116211 -56.89855194091797 94.95987701416016 -53.9703483581543 90.95987701416016 -52.89855194091797 C 86.95987701416016 -53.9703483581543 84.03167724609375 -56.89855194091797 82.95987701416016 -60.89855194091797 C 84.03167724609375 -64.89855194091797 86.95987701416016 -67.82675170898438 90.95987701416016 -68.89855194091797 C 94.95987701416016 -67.82675170898438 97.8880844116211 -64.89855194091797 98.95987701416016 -60.89855194091797"/>
    <path stroke-width="0" fill="rgb(55, 158, 100)" opacity="0.9680602" stroke="rgb(0, 0, 0)" stroke-opacity="0.0" stroke-linecap="round" stroke-linejoin="round" d="M 111.72730255126953 234.0240020751953 C 111.15495300292969 239.22544860839844 108.39156341552734 241.8358612060547 104.04581451416016 242.43637084960938 C 100.27606964111328 242.09242248535156 97.57794952392578 238.96292114257812 96.4247055053711 235.13706970214844 C 98.1290054321289 231.67868041992188 100.5373306274414 228.18507385253906 104.56498718261719 227.55450439453125 C 109.51032257080078 227.36509704589844 112.23157501220703 229.90615844726562 111.72730255126953 234.0240020751953"/>
    <path stroke-width="0" fill="rgb(201, 192, 43)" opacity="0.6545322" stroke="rgb(0, 0, 0)" stroke-opacity="0.0" stroke-linecap="round" stroke-linejoin="round" d="M 191.34326171875 313.3933410644531 C 191.67709350585938 317.3360900878906 188.83946228027344 320.26434326171875 184.51364135742188 320.6636047363281 C 179.52745056152344 319.7628479003906 176.568115234375 317.0869140625 175.6134796142578 312.6321105957031 C 177.17318725585938 308.7292785644531 180.28514099121094 305.83392333984375 183.88265991210938 304.8797607421875 C 188.3896942138672 305.51239013671875 190.9207763671875 308.155517578125 191.34326171875 313.3933410644531"/>
    <path stroke-width="0" fill="rgb(209, 246, 220)" opacity="0.38121846" stroke="rgb(0, 0, 0)" stroke-opacity="0.0" stroke-linecap="round" stroke-linejoin="round" d="M 262.9904479980469 5.688971996307373 C 261.7280578613281 9.965208053588867 259.0013427734375 13.154326438903809 255.1598663330078 14.807909965515137 C 250.99269104003906 14.087336540222168 248.4324493408203 11.06492805480957 248.4185028076172 6.511176109313965 C 248.42724609375 2.512507677078247 251.5543212890625 -0.1601746529340744 255.5907440185547 -1.0623964071273804 C 259.585693359375 -0.275741308927536 262.4168395996094 2.5891499519348145 262.9904479980469 5.688971996307373"/>
    <path stroke-width="0" fill="rgb(124, 199, 198)" opacity="0.7458959" stroke="rgb(0, 0, 0)" stroke-opacity="0.0" stroke-linecap="round" stroke-linejoin="round" d="M 347.8065490722656 245.53782653808594 C 347.0188903808594 249.66885375976562 343.8622741699219 252.05221557617188 339.7315368652344 253.47743225097656 C 336.38201904296875 252.2469024658203 333.8462829589844 248.80197143554688 332.4992980957031 244.83309936523438 C 333.8882751464844 242.34765625 336.8016357421875 239.19442749023438 339.66986083984375 238.07249450683594 C 343.7569580078125 238.89073181152344 346.64727783203125 241.6293182373047 347.8065490722656 245.53782653808594"/>
    <path stroke-width="0" fill="rgb(10, 161, 21)" opacity="0.17846443" stroke="rgb(0, 0, 0)" stroke-opacity="0.0" stroke-linecap="round" stroke-linejoin="round" d="M 215.49093627929688 357.0475769042969 C 213.96205139160156 359.380126953125 211.49594116210938 362.9431457519531 208.47715759277344 364.5650634765625 C 204.37188720703125 363.6744079589844 201.73202514648438 360.8682861328125 201.55824279785156 357.44525146484375 C 202.45877075195312 353.6487121582031 205.25424194335938 350.3210144042969 208.4881134033203 348.242919921875 C 212.41172790527344 349.8328857421875 214.66085815429688 353.3379821777344 215.49093627929688 357.0475769042969"/>
    <path stroke-width="0" fill="rgb(228, 12, 213)" opacity="0.5002169" stroke="rgb(0, 0, 0)" stroke-opacity="0.0" stroke-linecap="round" stroke-linejoin="round" d="M 266.2833251953125 26.727603912353516 C 265.8624572753906 28.88311195373535 263.0361022949219 31.77134895324707 259.4071350097656 32.087989807128906 C 255.93243408203125 32.298057556152344 252.9832305908203 29.6649169921875 252.14968872070312 25.75190544128418 C 253.1869354248047 22.074344635009766 256.35247802734375 19.568056106567383 258.835205078125 19.5321102142334 C 261.9193115234375 20.72602653503418 264.92681884765625 23.595552444458008 266.2833251953125 26.727603912353516"/>
    <path stroke-width="0" fill="rgb(42, 137, 15)" opacity="0.085838564" stroke="rgb(0, 0, 0)" stroke-opacity="0.0" stroke-linecap="round" stroke-linejoin="round" d="M 75.76270294189453 32.84361267089844 C 75.06584167480469 35.914520263671875 72.51913452148438 39.11560821533203 68.84378051757812 40.98953628540039 C 65.53956604003906 40.03391647338867 62.790679931640625 36.87126922607422 61.57033920288086 32.674983978271484 C 62.508846282958984 29.147823333740234 65.73622131347656 26.565807342529297 69.59375762939453 25.93950080871582 C 72.75776672363281 26.72037696838379 75.26041412353516 29.937522888183594 75.76270294189453 32.84361267089844"/>
    <path stroke-width="0" fill="rgb(213, 12, 80)" opacity="0.70070577" stroke="rgb(0, 0, 0)" stroke-opacity="0.0" stroke-linecap="round" stroke-linejoin="round" d="M 432.781494140625 406.9322814941406 C 432.2816162109375 410.8816833496094 429.5184326171875 413.7901611328125 426.2425842285156 414.0668640136719 C 422.9194641113281 412.5615539550781 419.1427307128906 409.9002990722656 417.6694641113281 407.1423034667969 C 418.8573303222656 403.3385925292969 422.1801452636719 400.9538269042969 425.1540832519531 400.6814270019531 C 428.4798889160156 401.269775390625 431.8338928222656 403.5860595703125 432.781494140625 406.9322814941406"/>
    <path stroke-width="0" fill="rgb(240, 73, 38)" opacity="0.014855906" stroke="rgb(0, 0, 0)" stroke-opacity="0.0" stroke-linecap="round" stroke-linejoin="round" d="M 34.315208435058594 440.2991027832031 C 33.596839904785156 444.8779602050781 31.10023307800293 448.1376953125 26.787546157836914 449.34234619140625 C 22.462860107421875 448.00335693359375 19.90619659423828 444.61151123046875 19.166824340820312 440.4490661621094 C 19.622364044189453 436.424560546875 22.43596649169922 433.4784851074219 26.861648559570312 432.43377685546875 C 31.345996856689453 433.0015869140625 34.19751739501953 435.9306640625 34.315208435058594 440.2991027832031"/>
    <path stroke-width="0" fill="rgb(119, 93, 57)" opacity="0.690106" stroke="rgb(0, 0, 0)" stroke-opacity="0.0" stroke-linecap="round" stroke-linejoin="round" d="M 252.2333526611328 145.00433349609375 C 250.32664489746094 148.51522827148438 247.41696166992188 151.69166564941406 243.94674682617188 153.0389404296875 C 240.236083984375 152.06494140625 237.51739501953125 148.972412109375 236.78359985351562 144.94798278808594 C 237.2212371826172 141.37161254882812 240.32810974121094 138.89825439453125 244.34629821777344 138.3693389892578 C 248.58644104003906 138.14019775390625 251.3074951171875 140.79452514648438 252.2333526611328 145.00433349609375"/>
  </g>
</svg>
