<?xml version="1.0" ?>
<svg xmlns="http://www.w3.org/2000/svg" version="1.1" width="512" height="512">
  <defs/>
  <g>
    <path stroke-width="0" fill="rgb(59, 87, 131)" opacity="1.0760453" stroke="rgb(139, 182, 153)" stroke-opacity="1.0" stroke-linecap="round" stroke-linejoin="round" d="M 537.5867919921875 306.12603759765625 C 578.2432250976562 717.5508422851562 523.9196166992188 607.5655517578125 409.77728271484375 560.2735595703125 C -4.815953731536865 574.9983520507812 -43.95188903808594 610.2658081054688 -51.99632263183594 372.31396484375 C -35.529502868652344 305.1559143066406 -20.042537689208984 302.2029724121094 -68.14605712890625 339.22357177734375 C 163.20443725585938 417.7811279296875 270.29541015625 446.4400939941406 537.5867919921875 306.12603759765625"/>
    <path stroke-width="0" fill="rgb(93, 55, 174)" opacity="1.3826317" stroke="rgb(108, 164, 111)" stroke-opacity="1.0" stroke-linecap="round" stroke-linejoin="round" d="M 531.5516967773438 -27.238861083984375 C 497.69378662109375 128.60150146484375 518.65185546875 204.2553253173828 371.1429138183594 232.09600830078125 C 194.5190887451172 236.17153930664062 173.51589965820312 299.1982421875 176.9667510986328 -8.676196098327637 C 210.9188232421875 -99.50502014160156 286.98626708984375 -51.62980651855469 403.1378173828125 -41.173099517822266 C 511.8313903808594 -42.366355895996094 529.109375 -45.23481750488281 531.5516967773438 -27.238861083984375"/>
    <path stroke-width="0" fill="rgb(-63, 127, 76)" opacity="0.842231" stroke="rgb(245, 97, 201)" stroke-opacity="1.0" stroke-linecap="round" stroke-linejoin="round" d="M 190.93663024902344 175.47434997558594 C 195.175537109375 351.5849304199219 174.6717987060547 378.94793701171875 234.98846435546875 419.34027099609375 C -51.71584701538086 419.4455261230469 -53.13080978393555 405.21429443359375 -49.1904182434082 371.34014892578125 C -52.37535095214844 79.1630859375 -55.43769836425781 54.96458435058594 -14.040742874145508 -48.596195220947266 C 359.8155822753906 -46.5150146484375 342.5643615722656 -9.22119426727295 190.93663024902344 175.47434997558594"/>
    <path stroke-width="0" fill="rgb(23, 1, 58)" opacity="1.0237856" stroke="rgb(144, 236, 18)" stroke-opacity="1.0" stroke-linecap="round" stroke-linejoin="round" d="M 568.22314453125 409.8645935058594 C 632.6362915039062 452.0948791503906 664.5418701171875 457.72900390625 296.92266845703125 430.9196472167969 C 334.79718017578125 162.78627014160156 285.80267333984375 388.38116455078125 304.06414794921875 165.3845977783203 C 258.5124206542969 -81.13723754882812 338.52874755859375 -53.238746643066406 483.1837463378906 -40.144691467285156 C 578.5626220703125 -28.153284072875977 566.8272094726562 -10.542065620422363 568.22314453125 409.8645935058594"/>
    <path stroke-width="0" fill="rgb(-15, -4, 62)" opacity="1.0021912" stroke="rgb(5, 212, 198)" stroke-opacity="1.0" stroke-linecap="round" stroke-linejoin="round" d="M 198.6321563720703 289.74041748046875 C 157.21377563476562 299.78387451171875 239.8452911376953 484.3015441894531 192.07907104492188 443.4884033203125 C 207.42051696777344 296.8085021972656 -44.56284713745117 203.16937255859375 80.14686584472656 130.68980407714844 C 54.80647277832031 185.76089477539062 56.847564697265625 178.39163208007812 21.474529266357422 232.50608825683594 C 96.36621856689453 242.5362548828125 223.8715057373047 182.38436889648438 198.6321563720703 289.74041748046875"/>
    <path stroke-width="0" fill="rgb(15, -19, 26)" opacity="1.0068494" stroke="rgb(249, 203, 117)" stroke-opacity="1.0" stroke-linecap="round" stroke-linejoin="round" d="M 356.07275390625 118.75202941894531 C 349.5114440917969 192.1744384765625 300.11358642578125 157.98922729492188 245.2589874267578 177.15103149414062 C 96.08857727050781 86.61094665527344 -8.21517562866211 198.33346557617188 57.75568389892578 77.9974365234375 C 82.88844299316406 -26.079896926879883 92.39027404785156 -30.478515625 196.0306854248047 -27.823368072509766 C 219.46311950683594 -42.58900451660156 282.9848327636719 -81.47344207763672 356.07275390625 118.75202941894531"/>
    <path stroke-width="0" fill="rgb(50, 167, 80)" opacity="1.0141205" stroke="rgb(30, 163, 36)" stroke-opacity="1.0" stroke-linecap="round" stroke-linejoin="round" d="M 578.4916381835938 404.7875671386719 C 694.0384521484375 439.3053894042969 846.5838012695312 529.8840942382812 257.4144287109375 518.2550048828125 C 444.8781433105469 206.23712158203125 285.9145202636719 312.2680969238281 329.7259521484375 116.60221862792969 C 383.4549255371094 -28.725475311279297 409.4250183105469 -14.816679000854492 485.2589416503906 -32.296539306640625 C 565.7853393554688 -14.515660285949707 562.3096313476562 3.841090679168701 578.4916381835938 404.7875671386719"/>
    <path stroke-width="0" fill="rgb(41, 166, 89)" opacity="0.9719063" stroke="rgb(133, 105, 67)" stroke-opacity="1.0" stroke-linecap="round" stroke-linejoin="round" d="M 129.6267547607422 62.12584686279297 C 121.54977416992188 113.9913330078125 113.89627075195312 129.30198669433594 77.8515396118164 137.9767303466797 C -14.808741569519043 134.205810546875 -26.662832260131836 130.2407684326172 -34.4415168762207 46.20589828491211 C -28.461292266845703 -17.69627571105957 -20.302188873291016 -27.176698684692383 46.5918083190918 -29.242168426513672 C 109.6663818359375 -2.7002503871917725 115.54190826416016 7.5153303146362305 129.6267547607422 62.12584686279297"/>
    <path stroke-width="0" fill="rgb(52, 157, 90)" opacity="0.9376062" stroke="rgb(116, 144, 4)" stroke-opacity="1.0" stroke-linecap="round" stroke-linejoin="round" d="M 112.90776824951172 55.9432258605957 C 66.5924301147461 179.04869079589844 92.35446166992188 210.21405029296875 -9.735518455505371 337.311767578125 C -40.7213249206543 243.1691131591797 -35.085670471191406 217.4142608642578 -38.66407012939453 88.82669830322266 C -31.418485641479492 65.25394439697266 -22.370882034301758 64.70821380615234 76.79181671142578 69.05353546142578 C 120.1184310913086 64.62849426269531 131.24635314941406 70.30248260498047 112.90776824951172 55.9432258605957"/>
    <path stroke-width="0" fill="rgb(49, 157, 86)" opacity="0.9983246" stroke="rgb(156, 157, 240)" stroke-opacity="1.0" stroke-linecap="round" stroke-linejoin="round" d="M 233.54225158691406 42.7720832824707 C 211.17681884765625 122.41334533691406 190.41065979003906 116.89989471435547 110.598876953125 116.82996368408203 C 45.852447509765625 115.78515625 50.099159240722656 92.1882095336914 45.01120376586914 -4.468054294586182 C 31.83929443359375 -31.345361709594727 42.58100509643555 -35.894710540771484 94.07329559326172 -37.2251091003418 C 220.99246215820312 -91.22730255126953 218.143310546875 -78.37700653076172 233.54225158691406 42.7720832824707"/>
    <path stroke-width="0" fill="rgb(46, 164, 94)" opacity="1.0380493" stroke="rgb(91, 111, 177)" stroke-opacity="1.0" stroke-linecap="round" stroke-linejoin="round" d="M 202.50173950195312 130.16531372070312 C 157.11268615722656 380.6880187988281 139.2322998046875 84.65736389160156 172.763427734375 529.2625732421875 C -127.01535034179688 550.3731079101562 -88.73860168457031 495.13446044921875 -25.151899337768555 437.1031494140625 C 51.61919021606445 112.31026458740234 51.49228286743164 76.87407684326172 338.02850341796875 68.77703857421875 C 278.9759826660156 26.51370620727539 273.6653137207031 190.3040771484375 202.50173950195312 130.16531372070312"/>
    <path stroke-width="0" fill="rgb(53, 169, 79)" opacity="1.0035429" stroke="rgb(170, 171, 53)" stroke-opacity="1.0" stroke-linecap="round" stroke-linejoin="round" d="M 524.7738037109375 1.5059515237808228 C 499.52935791015625 124.96879577636719 603.8526000976562 170.51365661621094 268.68505859375 244.17279052734375 C 402.47979736328125 171.69012451171875 258.494140625 154.13555908203125 204.78953552246094 -24.725929260253906 C 304.89898681640625 -86.0112533569336 335.77398681640625 -53.68967056274414 387.0159606933594 -45.11587142944336 C 518.9805908203125 -42.30170822143555 528.1303100585938 -37.58413314819336 524.7738037109375 1.5059515237808228"/>
    <path stroke-width="0" fill="rgb(60, 154, 110)" opacity="0.526831" stroke="rgb(80, 92, 145)" stroke-opacity="1.0" stroke-linecap="round" stroke-linejoin="round" d="M 406.392333984375 -6.55418062210083 C 429.4118347167969 167.0956573486328 283.6209411621094 46.4922981262207 288.5120849609375 60.27855682373047 C 108.74801635742188 58.78910827636719 176.00595092773438 95.3990478515625 149.97706604003906 -27.37445640563965 C 154.8877716064453 -31.89655303955078 169.101806640625 -29.487001419067383 216.2349853515625 -28.543506622314453 C 271.21038818359375 -37.61959457397461 283.8244323730469 -37.228580474853516 406.392333984375 -6.55418062210083"/>
    <path stroke-width="0" fill="rgb(72, 155, 92)" opacity="0.50714666" stroke="rgb(252, 26, 53)" stroke-opacity="1.0" stroke-linecap="round" stroke-linejoin="round" d="M 236.1743621826172 76.53388977050781 C 231.8750762939453 89.58548736572266 217.79966735839844 88.86864471435547 199.22988891601562 97.80697631835938 C 149.11810302734375 98.23970031738281 154.27548217773438 87.51333618164062 141.81788635253906 22.990463256835938 C 139.33517456054688 12.754209518432617 142.54331970214844 0.9063547849655151 152.25547790527344 -8.051526069641113 C 207.1473388671875 46.7140998840332 239.35208129882812 -1.2724415063858032 236.1743621826172 76.53388977050781"/>
    <path stroke-width="0" fill="rgb(53, 166, 90)" opacity="1.003258" stroke="rgb(166, 64, 118)" stroke-opacity="1.0" stroke-linecap="round" stroke-linejoin="round" d="M 250.2698211669922 65.50790405273438 C 189.39788818359375 58.62256622314453 223.6881561279297 82.05557250976562 222.9991912841797 100.11964416503906 C 196.5425262451172 15.552264213562012 148.52590942382812 150.42129516601562 138.42872619628906 1.4850852489471436 C 135.73175048828125 -13.725774765014648 141.04421997070312 -23.394229888916016 148.31106567382812 -28.544448852539062 C 317.7930908203125 -24.402694702148438 267.94659423828125 -0.9664510488510132 250.2698211669922 65.50790405273438"/>
    <path stroke-width="0" fill="rgb(249, 254, 258)" opacity="0.93527293" stroke="rgb(40, 28, 167)" stroke-opacity="1.0" stroke-linecap="round" stroke-linejoin="round" d="M 297.8076477050781 213.90127563476562 C 239.42462158203125 210.95339965820312 262.121337890625 242.16156005859375 295.0087585449219 212.81314086914062 C 299.84844970703125 213.3095245361328 262.66534423828125 213.22984313964844 277.7496337890625 227.34890747070312 C 217.9627685546875 227.84844970703125 299.1565246582031 193.2553253173828 234.82705688476562 197.63548278808594 C 288.1851501464844 128.45404052734375 336.1756591796875 199.04937744140625 297.8076477050781 213.90127563476562"/>
    <path stroke-width="0" fill="rgb(226, 241, 242)" opacity="1.0540242" stroke="rgb(50, 94, 209)" stroke-opacity="1.0" stroke-linecap="round" stroke-linejoin="round" d="M 288.63409423828125 206.6269073486328 C 304.16607666015625 157.39752197265625 332.06072998046875 190.4749755859375 242.23785400390625 241.438232421875 C 282.3641357421875 106.14879608154297 197.49562072753906 309.29241943359375 182.83839416503906 178.74319458007812 C 284.06207275390625 182.27706909179688 277.0758972167969 127.96778869628906 306.681640625 162.7297821044922 C 277.6070556640625 168.5642852783203 275.5000305175781 195.16957092285156 288.63409423828125 206.6269073486328"/>
    <path stroke-width="0" fill="rgb(88, 41, -72)" opacity="1.0690495" stroke="rgb(213, 24, 248)" stroke-opacity="1.0" stroke-linecap="round" stroke-linejoin="round" d="M 294.874755859375 189.96536254882812 C 302.1072998046875 185.8836212158203 318.06634521484375 193.64381408691406 308.9269104003906 189.3656463623047 C 316.7623291015625 183.7676239013672 271.2008972167969 162.0037841796875 263.2278137207031 196.4687957763672 C 282.2646484375 215.44607543945312 299.278564453125 191.23519897460938 309.7650451660156 182.40028381347656 C 285.13311767578125 173.607177734375 308.8045654296875 194.24168395996094 294.874755859375 189.96536254882812"/>
    <path stroke-width="0" fill="rgb(5, -27, 53)" opacity="0.884085" stroke="rgb(249, 154, 188)" stroke-opacity="1.0" stroke-linecap="round" stroke-linejoin="round" d="M 357.60406494140625 417.41204833984375 C 317.9660339355469 424.517578125 398.5789489746094 403.2344055175781 209.7244873046875 445.99884033203125 C 181.35194396972656 377.7480773925781 85.01374053955078 403.7468566894531 312.0323791503906 405.8531188964844 C 362.273193359375 425.2601318359375 350.99713134765625 415.8622131347656 353.1398010253906 399.97784423828125 C 297.2918701171875 406.4956359863281 292.1125183105469 376.285888671875 357.60406494140625 417.41204833984375"/>
    <path stroke-width="0" fill="rgb(84, 66, 176)" opacity="0.122880235" stroke="rgb(72, 30, 75)" stroke-opacity="1.0" stroke-linecap="round" stroke-linejoin="round" d="M 311.7221374511719 414.6365051269531 C 318.1065979003906 453.45263671875 284.26019287109375 423.3170471191406 252.6125030517578 431.4241638183594 C 252.50628662109375 424.04412841796875 252.18939208984375 405.64239501953125 245.37754821777344 400.70428466796875 C 260.25054931640625 394.2496337890625 253.8308563232422 423.054443359375 256.2701721191406 420.0351257324219 C 251.66444396972656 417.7356262207031 248.64083862304688 419.5596008300781 311.7221374511719 414.6365051269531"/>
    <path stroke-width="0" fill="rgb(305, 221, -117)" opacity="1.0090221" stroke="rgb(81, 105, 16)" stroke-opacity="1.0" stroke-linecap="round" stroke-linejoin="round" d="M 269.4835205078125 387.9569091796875 C 314.3959655761719 384.01190185546875 272.4267272949219 442.7543640136719 270.92352294921875 421.6317138671875 C 198.12074279785156 417.8139343261719 227.3230438232422 426.9403991699219 220.66075134277344 380.6434631347656 C 226.7926788330078 400.71234130859375 245.00474548339844 367.6269836425781 243.30345153808594 407.45989990234375 C 240.4208221435547 382.268310546875 258.37310791015625 409.9757385253906 269.4835205078125 387.9569091796875"/>
    <path stroke-width="0" fill="rgb(110, 19, 80)" opacity="0.9566305" stroke="rgb(144, 67, 133)" stroke-opacity="1.0" stroke-linecap="round" stroke-linejoin="round" d="M 289.5118103027344 197.5209503173828 C 272.47076416015625 155.43692016601562 246.65505981445312 213.56600952148438 302.029541015625 184.31246948242188 C 288.9894714355469 210.11839294433594 275.6906433105469 215.28558349609375 261.7450256347656 196.62599182128906 C 260.92059326171875 171.74777221679688 291.9830627441406 160.070556640625 297.5603942871094 179.13134765625 C 313.3670959472656 181.37371826171875 297.3460693359375 182.3950958251953 289.5118103027344 197.5209503173828"/>
    <path stroke-width="0" fill="rgb(283, 250, 256)" opacity="0.9451793" stroke="rgb(33, 182, 73)" stroke-opacity="1.0" stroke-linecap="round" stroke-linejoin="round" d="M 315.8817443847656 186.1177978515625 C 318.4469909667969 188.130126953125 310.6769104003906 236.95770263671875 269.5321960449219 220.6842803955078 C 274.2785339355469 204.29075622558594 293.4288635253906 216.88302612304688 291.9454650878906 214.4120635986328 C 288.3079833984375 213.2032928466797 316.97772216796875 201.53663635253906 282.44927978515625 150.92379760742188 C 311.6886291503906 149.31007385253906 319.40643310546875 188.83792114257812 315.8817443847656 186.1177978515625"/>
    <path stroke-width="0" fill="rgb(260, 198, 171)" opacity="0.8755608" stroke="rgb(149, 5, 211)" stroke-opacity="1.0" stroke-linecap="round" stroke-linejoin="round" d="M 513.3604736328125 490.0644226074219 C 473.08758544921875 471.0218505859375 417.8541259765625 436.28887939453125 545.6083374023438 509.07275390625 C 432.68212890625 416.7226867675781 429.6089782714844 396.8742980957031 404.3472595214844 378.73455810546875 C 374.3815002441406 344.15057373046875 292.17889404296875 270.694091796875 356.2712707519531 335.72900390625 C 434.80169677734375 412.8636779785156 444.5180358886719 419.5491638183594 513.3604736328125 490.0644226074219"/>
    <path stroke-width="0" fill="rgb(7, -15, 52)" opacity="0.9406626" stroke="rgb(172, 68, 187)" stroke-opacity="1.0" stroke-linecap="round" stroke-linejoin="round" d="M 295.8543701171875 398.0251159667969 C 286.9489440917969 457.37237548828125 342.82196044921875 371.39886474609375 308.39910888671875 442.1368408203125 C 306.9013366699219 442.94061279296875 291.08685302734375 421.895263671875 293.09814453125 441.0175476074219 C 294.4183044433594 445.5519714355469 291.9394226074219 332.9989929199219 320.5558166503906 400.0749816894531 C 430.7642517089844 392.026123046875 277.29266357421875 420.8201599121094 295.8543701171875 398.0251159667969"/>
    <path stroke-width="0" fill="rgb(39, 171, 92)" opacity="1.0065697" stroke="rgb(63, 146, 150)" stroke-opacity="1.0" stroke-linecap="round" stroke-linejoin="round" d="M 496.3645324707031 -4.582681179046631 C 185.01742553710938 156.71835327148438 383.3005676269531 160.3137664794922 226.40866088867188 139.67257690429688 C 154.53050231933594 49.59623336791992 217.87960815429688 383.2524108886719 -18.595949172973633 493.5161437988281 C -36.91506576538086 36.7423095703125 167.76214599609375 82.21929931640625 123.12136840820312 58.880184173583984 C 272.9779357910156 54.385589599609375 292.20709228515625 77.22428894042969 496.3645324707031 -4.582681179046631"/>
    <path stroke-width="0" fill="rgb(38, -12, 57)" opacity="1.002179" stroke="rgb(56, 242, 114)" stroke-opacity="1.0" stroke-linecap="round" stroke-linejoin="round" d="M 226.24276733398438 182.54786682128906 C 246.24732971191406 167.3321075439453 245.3006591796875 196.6905059814453 228.2263946533203 205.95257568359375 C 201.7083740234375 216.53623962402344 184.52365112304688 164.89292907714844 226.8854522705078 173.9300079345703 C 238.495361328125 194.29046630859375 214.06085205078125 184.18890380859375 226.43984985351562 184.32237243652344 C 188.2895050048828 191.2587890625 246.15805053710938 165.7052001953125 226.24276733398438 182.54786682128906"/>
    <path stroke-width="0" fill="rgb(299, 196, 154)" opacity="1.0220214" stroke="rgb(224, 148, 224)" stroke-opacity="1.0" stroke-linecap="round" stroke-linejoin="round" d="M 82.6102523803711 419.8853759765625 C 73.98467254638672 425.745849609375 73.4449691772461 428.4990234375 60.20362091064453 430.0726013183594 C 78.55197143554688 432.1745910644531 80.04308319091797 412.5932922363281 42.13087463378906 456.5898132324219 C 42.99330139160156 442.3268127441406 126.61663818359375 379.65252685546875 181.3707733154297 304.0489501953125 C 68.06318664550781 438.0964660644531 43.544952392578125 431.5447692871094 82.6102523803711 419.8853759765625"/>
    <path stroke-width="0" fill="rgb(282, 240, -51)" opacity="1.1795671" stroke="rgb(184, 127, 243)" stroke-opacity="1.0" stroke-linecap="round" stroke-linejoin="round" d="M 265.3219909667969 216.18194580078125 C 268.9933776855469 214.47714233398438 309.3252868652344 191.90069580078125 259.7554931640625 176.67184448242188 C 305.56268310546875 163.48251342773438 295.0924987792969 191.10842895507812 271.25482177734375 220.0336151123047 C 292.9071044921875 216.10662841796875 289.2512512207031 215.41732788085938 274.7973937988281 216.1623077392578 C 258.27667236328125 209.2614288330078 272.8602600097656 241.6041717529297 265.3219909667969 216.18194580078125"/>
    <path stroke-width="0" fill="rgb(253, 241, 280)" opacity="1.0565922" stroke="rgb(108, 154, 4)" stroke-opacity="1.0" stroke-linecap="round" stroke-linejoin="round" d="M 261.9695739746094 174.94851684570312 C 226.43177795410156 186.84552001953125 226.40948486328125 143.55747985839844 196.97384643554688 186.81532287597656 C 187.14138793945312 250.93898010253906 164.3251190185547 164.56370544433594 205.6273651123047 152.91427612304688 C 199.6356201171875 140.19586181640625 207.2238006591797 154.22933959960938 205.9386444091797 132.82826232910156 C 199.291748046875 137.92242431640625 205.12220764160156 157.24615478515625 261.9695739746094 174.94851684570312"/>
    <path stroke-width="0" fill="rgb(-27, -8, 76)" opacity="0.94631404" stroke="rgb(168, 73, 157)" stroke-opacity="1.0" stroke-linecap="round" stroke-linejoin="round" d="M 184.78350830078125 217.5521240234375 C 192.6085205078125 230.81387329101562 188.93081665039062 214.22850036621094 189.33523559570312 220.7469024658203 C 249.47767639160156 271.6944274902344 287.5886535644531 242.8195343017578 248.58706665039062 220.05239868164062 C 193.34571838378906 236.19668579101562 183.07073974609375 210.59713745117188 180.36109924316406 168.7376251220703 C 166.5334930419922 212.99295043945312 198.20216369628906 221.95982360839844 184.78350830078125 217.5521240234375"/>
    <path stroke-width="0" fill="rgb(-19, -15, 64)" opacity="0.98591983" stroke="rgb(34, 76, 145)" stroke-opacity="1.0" stroke-linecap="round" stroke-linejoin="round" d="M 232.56680297851562 145.763427734375 C 202.31442260742188 134.67916870117188 194.8280029296875 162.36981201171875 180.88697814941406 167.45492553710938 C 178.321044921875 238.77073669433594 183.64320373535156 137.56765747070312 199.41806030273438 146.00045776367188 C 186.99420166015625 138.86265563964844 181.6474151611328 111.25348663330078 187.06637573242188 110.88461303710938 C 199.31591796875 131.80755615234375 216.78329467773438 134.04261779785156 232.56680297851562 145.763427734375"/>
    <path stroke-width="0" fill="rgb(292, 298, -92)" opacity="1.13864" stroke="rgb(146, 166, 166)" stroke-opacity="1.0" stroke-linecap="round" stroke-linejoin="round" d="M 222.32920837402344 194.3847198486328 C 246.65025329589844 146.46775817871094 183.2382354736328 185.9366455078125 222.41177368164062 198.15731811523438 C 252.0081329345703 187.98666381835938 217.3392791748047 155.6109161376953 229.7310791015625 182.34799194335938 C 213.45962524414062 178.5976104736328 216.90478515625 190.63938903808594 228.83306884765625 185.25926208496094 C 227.77410888671875 173.18736267089844 210.61611938476562 186.1595458984375 222.32920837402344 194.3847198486328"/>
    <path stroke-width="0" fill="rgb(305, 262, 328)" opacity="1.182866" stroke="rgb(182, 254, 38)" stroke-opacity="1.0" stroke-linecap="round" stroke-linejoin="round" d="M 295.17047119140625 130.0166778564453 C 295.7701416015625 154.55821228027344 286.4037780761719 142.73712158203125 289.5716247558594 144.7123260498047 C 281.15899658203125 138.71914672851562 291.888916015625 124.4461669921875 286.99566650390625 162.46766662597656 C 289.1332702636719 168.55023193359375 295.5492858886719 161.8065185546875 271.33544921875 163.54103088378906 C 284.51068115234375 148.2444305419922 307.4186096191406 159.6956329345703 295.17047119140625 130.0166778564453"/>
    <path stroke-width="0" fill="rgb(72, 112, -55)" opacity="0.2382554" stroke="rgb(41, 156, 31)" stroke-opacity="1.0" stroke-linecap="round" stroke-linejoin="round" d="M 210.3741912841797 192.7308807373047 C 207.29931640625 190.8213348388672 208.00022888183594 194.77438354492188 241.36355590820312 193.18557739257812 C 216.69036865234375 188.89955139160156 211.83905029296875 208.38931274414062 239.0975341796875 196.8852996826172 C 212.86007690429688 180.37481689453125 235.20664978027344 181.5401153564453 225.34718322753906 193.59548950195312 C 234.010009765625 190.34689331054688 212.1603240966797 175.85704040527344 210.3741912841797 192.7308807373047"/>
    <path stroke-width="0" fill="rgb(236, 238, 262)" opacity="0.58564585" stroke="rgb(177, 115, 184)" stroke-opacity="1.0" stroke-linecap="round" stroke-linejoin="round" d="M 254.8300018310547 171.74794006347656 C 243.13575744628906 196.39474487304688 239.03244018554688 172.43942260742188 210.5345458984375 156.70887756347656 C 198.13575744628906 195.78518676757812 187.5519561767578 160.8662109375 218.18772888183594 175.6472930908203 C 234.18978881835938 157.1505584716797 246.70263671875 171.80030822753906 252.60926818847656 179.3123321533203 C 206.47808837890625 128.2298583984375 238.55577087402344 142.31381225585938 254.8300018310547 171.74794006347656"/>
    <path stroke-width="0" fill="rgb(243, 296, -29)" opacity="0.401217" stroke="rgb(248, 218, 2)" stroke-opacity="1.0" stroke-linecap="round" stroke-linejoin="round" d="M 243.97779846191406 159.6453399658203 C 217.66049194335938 239.95309448242188 187.5174560546875 165.67051696777344 232.27882385253906 171.1982879638672 C 247.8290557861328 235.37513732910156 211.56118774414062 220.60305786132812 239.86721801757812 199.4873504638672 C 194.0112762451172 179.15158081054688 207.92510986328125 150.13587951660156 238.82106018066406 189.87242126464844 C 213.05784606933594 178.88827514648438 250.99258422851562 173.74192810058594 243.97779846191406 159.6453399658203"/>
    <path stroke-width="0" fill="rgb(-9, -17, 32)" opacity="0.91547835" stroke="rgb(88, 236, 179)" stroke-opacity="1.0" stroke-linecap="round" stroke-linejoin="round" d="M 290.9801940917969 232.51742553710938 C 244.89398193359375 204.0728302001953 212.85682678222656 230.9876251220703 228.12008666992188 217.19137573242188 C 267.9191589355469 226.4935302734375 245.4898223876953 233.11329650878906 218.03543090820312 236.06536865234375 C 248.85726928710938 230.00294494628906 221.12164306640625 230.6774139404297 252.01052856445312 231.09132385253906 C 225.40963745117188 246.08425903320312 199.49241638183594 231.96377563476562 290.9801940917969 232.51742553710938"/>
    <path stroke-width="0" fill="rgb(-21, 85, 100)" opacity="0.081564404" stroke="rgb(41, 158, 147)" stroke-opacity="1.0" stroke-linecap="round" stroke-linejoin="round" d="M 187.04348754882812 224.08932495117188 C 194.10317993164062 188.74671936035156 171.83242797851562 216.01217651367188 157.0568389892578 274.8534240722656 C 179.77622985839844 198.7876434326172 180.3294677734375 194.60403442382812 190.80429077148438 216.1606903076172 C 188.75723266601562 206.66110229492188 205.59986877441406 244.8441925048828 180.21630859375 220.7481689453125 C 174.6682586669922 241.96774291992188 176.27618408203125 227.59176635742188 187.04348754882812 224.08932495117188"/>
    <path stroke-width="0" fill="rgb(19, -29, 67)" opacity="0.74107623" stroke="rgb(238, 156, 136)" stroke-opacity="1.0" stroke-linecap="round" stroke-linejoin="round" d="M 184.7355499267578 324.7445373535156 C 167.66983032226562 283.19293212890625 165.35299682617188 300.53839111328125 178.09324645996094 298.431884765625 C 196.15792846679688 362.1885681152344 200.97195434570312 285.2033386230469 181.21640014648438 289.0184020996094 C 191.16778564453125 350.86578369140625 190.8660888671875 265.8169250488281 173.74856567382812 325.3913269042969 C 159.6112060546875 308.6015930175781 170.10826110839844 325.08038330078125 184.7355499267578 324.7445373535156"/>
    <path stroke-width="0" fill="rgb(239, 249, 260)" opacity="0.72715133" stroke="rgb(186, 79, 101)" stroke-opacity="1.0" stroke-linecap="round" stroke-linejoin="round" d="M 210.798583984375 159.23846435546875 C 267.3428955078125 174.65419006347656 263.33392333984375 197.72288513183594 244.96897888183594 174.47296142578125 C 211.86288452148438 151.75352478027344 192.8451690673828 194.67860412597656 193.1738739013672 206.88536071777344 C 196.0079803466797 144.63172912597656 215.3014678955078 157.06863403320312 202.1476593017578 176.24534606933594 C 203.4169158935547 170.8709716796875 205.22161865234375 172.4324493408203 210.798583984375 159.23846435546875"/>
    <path stroke-width="0" fill="rgb(243, 267, 239)" opacity="0.98417896" stroke="rgb(47, 240, 188)" stroke-opacity="1.0" stroke-linecap="round" stroke-linejoin="round" d="M 245.3524932861328 194.8634033203125 C 324.8968505859375 225.505859375 278.595458984375 211.86572265625 216.28872680664062 225.84085083007812 C 203.0674591064453 212.68218994140625 225.97274780273438 207.69894409179688 205.61610412597656 216.72068786621094 C 244.32647705078125 199.7650909423828 244.5208282470703 198.80909729003906 247.95828247070312 212.0594024658203 C 249.09140014648438 222.0654754638672 253.6241455078125 233.3843536376953 245.3524932861328 194.8634033203125"/>
    <path stroke-width="0" fill="rgb(80, 54, 34)" opacity="0.69685364" stroke="rgb(57, 64, 14)" stroke-opacity="1.0" stroke-linecap="round" stroke-linejoin="round" d="M 308.98846435546875 315.45965576171875 C 319.574951171875 338.745361328125 314.05340576171875 313.0180358886719 321.35162353515625 346.3346862792969 C 288.5351867675781 322.5316467285156 332.23504638671875 320.8728332519531 318.47430419921875 302.359619140625 C 309.5795593261719 326.2271423339844 324.0754699707031 326.922119140625 313.0268249511719 305.89495849609375 C 330.651611328125 283.22589111328125 316.4155578613281 275.98382568359375 308.98846435546875 315.45965576171875"/>
    <path stroke-width="0" fill="rgb(266, 264, 237)" opacity="1.1003324" stroke="rgb(6, 17, 173)" stroke-opacity="1.0" stroke-linecap="round" stroke-linejoin="round" d="M 290.5592041015625 205.5316925048828 C 302.9773864746094 192.9550323486328 285.74053955078125 224.68624877929688 283.0055236816406 244.04766845703125 C 321.0407409667969 245.8523406982422 317.8776550292969 219.31851196289062 267.2119140625 219.9503173828125 C 247.56878662109375 206.7164764404297 273.0794677734375 204.45474243164062 300.4446105957031 206.22607421875 C 280.56884765625 201.3044891357422 309.307861328125 207.81175231933594 290.5592041015625 205.5316925048828"/>
    <path stroke-width="0" fill="rgb(72, 149, 232)" opacity="0.07173896" stroke="rgb(169, 67, 5)" stroke-opacity="1.0" stroke-linecap="round" stroke-linejoin="round" d="M 189.14718627929688 238.45989990234375 C 212.55581665039062 272.0074157714844 226.373046875 240.4359130859375 241.59043884277344 203.51490783691406 C 205.11402893066406 210.00347900390625 196.863525390625 203.94508361816406 202.53570556640625 200.79579162597656 C 183.28973388671875 227.32598876953125 243.95030212402344 242.0282745361328 233.1625518798828 225.82998657226562 C 212.14208984375 188.7467803955078 216.2882843017578 188.86190795898438 189.14718627929688 238.45989990234375"/>
    <path stroke-width="0" fill="rgb(316, 207, 192)" opacity="1.1124744" stroke="rgb(81, 97, 150)" stroke-opacity="1.0" stroke-linecap="round" stroke-linejoin="round" d="M 99.10228729248047 393.15234375 C 51.03750991821289 455.0103454589844 -13.88465690612793 498.3469543457031 -12.143060684204102 526.8778686523438 C -3.401204824447632 481.1339111328125 -55.95347595214844 505.5627746582031 -29.504064559936523 488.4368591308594 C -10.254148483276367 494.6418762207031 12.557779312133789 509.9571228027344 -22.257089614868164 522.4071044921875 C -21.235065460205078 509.13873291015625 -3.3859987258911133 504.8684997558594 99.10228729248047 393.15234375"/>
    <path stroke-width="0" fill="rgb(-4, -20, 85)" opacity="0.9465212" stroke="rgb(47, 242, 175)" stroke-opacity="1.0" stroke-linecap="round" stroke-linejoin="round" d="M 297.24554443359375 231.23838806152344 C 340.06365966796875 189.107421875 310.9346618652344 212.52854919433594 280.601318359375 228.6192169189453 C 243.4269561767578 229.44918823242188 280.6438903808594 229.6968231201172 264.935791015625 220.01339721679688 C 256.68743896484375 210.41554260253906 228.5139617919922 235.75123596191406 259.6270446777344 231.24513244628906 C 230.00502014160156 237.3573455810547 246.51690673828125 263.4701232910156 297.24554443359375 231.23838806152344"/>
    <path stroke-width="0" fill="rgb(22, -18, 47)" opacity="1.0628259" stroke="rgb(132, 6, 52)" stroke-opacity="1.0" stroke-linecap="round" stroke-linejoin="round" d="M 307.74176025390625 135.53382873535156 C 272.16278076171875 139.76026916503906 306.924560546875 167.31190490722656 316.1147155761719 108.9762191772461 C 277.9835510253906 165.65513610839844 195.20811462402344 150.89450073242188 231.65077209472656 151.2440643310547 C 306.88897705078125 150.03646850585938 294.8104553222656 140.14691162109375 295.1918640136719 139.29762268066406 C 299.1927185058594 149.00424194335938 276.9082336425781 141.6112060546875 307.74176025390625 135.53382873535156"/>
    <path stroke-width="0" fill="rgb(309, 264, -89)" opacity="1.1227548" stroke="rgb(220, 29, 131)" stroke-opacity="1.0" stroke-linecap="round" stroke-linejoin="round" d="M 237.24752807617188 197.7445831298828 C 278.452392578125 193.44146728515625 257.542236328125 229.60263061523438 249.119140625 234.56564331054688 C 222.15560913085938 182.95140075683594 261.6963806152344 180.85586547851562 219.64292907714844 194.69296264648438 C 247.2270050048828 187.65325927734375 246.58737182617188 175.25018310546875 263.254150390625 195.36477661132812 C 247.58505249023438 179.4861602783203 245.18963623046875 212.90257263183594 237.24752807617188 197.7445831298828"/>
    <path stroke-width="0" fill="rgb(9, 3, 25)" opacity="0.1213509" stroke="rgb(36, 124, 90)" stroke-opacity="1.0" stroke-linecap="round" stroke-linejoin="round" d="M 264.0094299316406 154.2017059326172 C 219.4786834716797 155.4145965576172 202.70338439941406 124.42927551269531 196.782958984375 131.3792266845703 C 228.48976135253906 134.4765625 256.1861877441406 158.56954956054688 239.899169921875 176.84857177734375 C 253.51467895507812 158.8834686279297 244.9236602783203 127.15569305419922 256.213134765625 152.73683166503906 C 270.3580017089844 140.54624938964844 257.1040344238281 153.3686981201172 264.0094299316406 154.2017059326172"/>
    <path stroke-width="0" fill="rgb(217, 93, -123)" opacity="0.9098157" stroke="rgb(195, 190, 230)" stroke-opacity="1.0" stroke-linecap="round" stroke-linejoin="round" d="M 229.79151916503906 431.2392272949219 C 228.268310546875 381.40338134765625 202.59059143066406 389.5227355957031 247.36431884765625 358.2012939453125 C 228.37315368652344 370.2642822265625 216.2515411376953 386.0866394042969 228.5998992919922 384.33721923828125 C 234.9578094482422 410.9488830566406 225.78993225097656 400.0011901855469 223.07752990722656 366.2338562011719 C 216.81793212890625 414.88055419921875 245.81288146972656 413.09906005859375 229.79151916503906 431.2392272949219"/>
    <path stroke-width="0" fill="rgb(87, 157, 140)" opacity="0.12540793" stroke="rgb(140, 149, 245)" stroke-opacity="1.0" stroke-linecap="round" stroke-linejoin="round" d="M 252.76258850097656 158.022705078125 C 241.0807647705078 166.23721313476562 247.63829040527344 146.8056640625 208.2845001220703 134.36985778808594 C 248.4833221435547 152.43067932128906 255.7735137939453 169.35194396972656 243.8352813720703 159.6661376953125 C 225.2602996826172 159.82774353027344 261.2798156738281 149.30474853515625 242.94602966308594 145.82785034179688 C 219.35414123535156 150.7489776611328 238.34642028808594 156.1203155517578 252.76258850097656 158.022705078125"/>
    <path stroke-width="0" fill="rgb(148, 112, 185)" opacity="0.5091321" stroke="rgb(61, 25, 4)" stroke-opacity="1.0" stroke-linecap="round" stroke-linejoin="round" d="M 241.14111328125 158.20936584472656 C 238.49053955078125 135.05169677734375 241.73448181152344 145.66860961914062 251.7772674560547 151.96653747558594 C 235.9446563720703 166.49911499023438 242.8572540283203 178.80169677734375 246.94432067871094 195.560791015625 C 234.9642791748047 162.52406311035156 240.7646026611328 151.75714111328125 262.1966247558594 148.21849060058594 C 250.7427520751953 147.2171630859375 248.43978881835938 164.0799102783203 241.14111328125 158.20936584472656"/>
    <path stroke-width="0" fill="rgb(110, 122, 36)" opacity="0.21366335" stroke="rgb(170, 200, 71)" stroke-opacity="1.0" stroke-linecap="round" stroke-linejoin="round" d="M 236.3048858642578 148.72772216796875 C 245.16244506835938 164.88169860839844 225.35260009765625 154.52671813964844 238.3050079345703 148.9615478515625 C 265.58868408203125 180.5181427001953 250.25975036621094 180.51528930664062 210.31759643554688 181.88404846191406 C 200.16029357910156 188.15757751464844 218.54270935058594 189.6289520263672 205.2026824951172 181.18649291992188 C 259.5337219238281 181.62005615234375 245.77865600585938 175.76718139648438 236.3048858642578 148.72772216796875"/>
    <path stroke-width="0" fill="rgb(229, 236, 329)" opacity="0.610584" stroke="rgb(24, 219, 248)" stroke-opacity="1.0" stroke-linecap="round" stroke-linejoin="round" d="M 249.36997985839844 184.0217742919922 C 272.4340515136719 188.18727111816406 271.5136413574219 150.50653076171875 245.5985870361328 183.13232421875 C 240.6656036376953 146.39076232910156 243.9346160888672 142.45860290527344 235.04495239257812 157.76089477539062 C 263.185302734375 155.00169372558594 283.3991394042969 153.1068878173828 253.40525817871094 145.9697265625 C 238.34503173828125 148.14617919921875 244.16937255859375 145.55787658691406 249.36997985839844 184.0217742919922"/>
    <path stroke-width="0" fill="rgb(29, 169, 101)" opacity="0.691925" stroke="rgb(231, 197, 84)" stroke-opacity="1.0" stroke-linecap="round" stroke-linejoin="round" d="M 254.1313934326172 144.9619903564453 C 269.9722900390625 153.60903930664062 267.7912292480469 158.09437561035156 236.70057678222656 160.8818359375 C 254.6759490966797 161.66893005371094 280.11822509765625 134.47283935546875 288.1468505859375 134.70358276367188 C 218.2216796875 141.0521697998047 211.21482849121094 143.5531463623047 275.05413818359375 143.3319854736328 C 253.78436279296875 156.60690307617188 243.48719787597656 168.22206115722656 254.1313934326172 144.9619903564453"/>
    <path stroke-width="0" fill="rgb(155, 92, 19)" opacity="0.9082818" stroke="rgb(103, 59, 33)" stroke-opacity="1.0" stroke-linecap="round" stroke-linejoin="round" d="M 244.59584045410156 190.12625122070312 C 252.32286071777344 191.39309692382812 257.15008544921875 186.4960174560547 235.25115966796875 168.99147033691406 C 252.4080047607422 169.28822326660156 241.5653533935547 178.60943603515625 249.33888244628906 191.71246337890625 C 228.17379760742188 176.04893493652344 272.4506530761719 175.59120178222656 251.82073974609375 193.3311004638672 C 266.4674072265625 182.01327514648438 248.04995727539062 168.83517456054688 244.59584045410156 190.12625122070312"/>
    <path stroke-width="0" fill="rgb(310, 289, -98)" opacity="1.0334637" stroke="rgb(107, 142, 219)" stroke-opacity="1.0" stroke-linecap="round" stroke-linejoin="round" d="M 244.38970947265625 206.06309509277344 C 277.9737854003906 177.13426208496094 273.2211608886719 194.05650329589844 283.5020446777344 200.77024841308594 C 262.2941589355469 191.79595947265625 303.7269592285156 179.60336303710938 269.1762390136719 178.97634887695312 C 259.8387756347656 208.68331909179688 313.2347106933594 192.743408203125 272.7875671386719 190.2861328125 C 267.8543701171875 187.28021240234375 256.97662353515625 196.5810546875 244.38970947265625 206.06309509277344"/>
    <path stroke-width="0" fill="rgb(238, 261, 266)" opacity="0.7468704" stroke="rgb(68, 33, 14)" stroke-opacity="1.0" stroke-linecap="round" stroke-linejoin="round" d="M 295.5923767089844 201.93603515625 C 264.8160095214844 213.63162231445312 245.9896697998047 218.91873168945312 274.60968017578125 222.19369506835938 C 276.162841796875 207.9732666015625 266.50225830078125 192.86441040039062 248.4359130859375 178.98568725585938 C 244.7021026611328 197.92608642578125 265.85577392578125 197.08462524414062 236.6917724609375 171.9728546142578 C 257.1413269042969 206.7156219482422 270.3992919921875 220.2393035888672 295.5923767089844 201.93603515625"/>
    <path stroke-width="0" fill="rgb(109, 105, 55)" opacity="0.271404" stroke="rgb(66, 116, 174)" stroke-opacity="1.0" stroke-linecap="round" stroke-linejoin="round" d="M 271.56915283203125 178.0838623046875 C 245.59776306152344 193.4027099609375 240.7767791748047 179.87071228027344 243.4833984375 204.2183380126953 C 250.5660858154297 193.3085479736328 249.8077392578125 180.4061737060547 244.65261840820312 180.91531372070312 C 251.0657196044922 135.703369140625 233.1676788330078 163.49758911132812 255.87033081054688 155.01406860351562 C 241.12359619140625 188.95904541015625 262.4041442871094 180.1633758544922 271.56915283203125 178.0838623046875"/>
    <path stroke-width="0" fill="rgb(7, -16, 61)" opacity="0.4367061" stroke="rgb(109, 130, 136)" stroke-opacity="1.0" stroke-linecap="round" stroke-linejoin="round" d="M 186.6186981201172 345.7204895019531 C 169.4687042236328 298.9682312011719 181.39389038085938 296.20953369140625 189.43197631835938 289.55303955078125 C 180.4569091796875 294.7945556640625 157.26226806640625 283.2857971191406 169.80905151367188 242.71017456054688 C 185.57656860351562 288.6409606933594 170.67958068847656 288.47357177734375 181.836669921875 235.2255096435547 C 200.36630249023438 220.7948760986328 181.87527465820312 249.37281799316406 186.6186981201172 345.7204895019531"/>
    <path stroke-width="0" fill="rgb(88, 140, 116)" opacity="0.3747556" stroke="rgb(70, 32, 100)" stroke-opacity="1.0" stroke-linecap="round" stroke-linejoin="round" d="M 361.54791259765625 290.7608947753906 C 360.05078125 306.64788818359375 359.9333190917969 296.6405944824219 360.1415710449219 301.02496337890625 C 359.602294921875 295.0748596191406 366.84368896484375 297.5899658203125 348.3399353027344 322.4887390136719 C 354.2520446777344 326.94842529296875 370.1413879394531 320.2632141113281 375.1944274902344 329.2601623535156 C 325.8023681640625 313.49920654296875 353.4161376953125 345.92291259765625 361.54791259765625 290.7608947753906"/>
    <path stroke-width="0" fill="rgb(41, -17, 48)" opacity="0.59389865" stroke="rgb(47, 230, 138)" stroke-opacity="1.0" stroke-linecap="round" stroke-linejoin="round" d="M 180.1693878173828 366.39947509765625 C 163.7554473876953 362.99346923828125 170.9240264892578 363.572998046875 166.27285766601562 324.9056701660156 C 179.97763061523438 331.9676208496094 176.2841796875 323.9070739746094 185.01126098632812 378.2189636230469 C 169.97012329101562 329.7872009277344 149.21060180664062 265.3996276855469 167.5035400390625 307.1558532714844 C 175.854248046875 335.88751220703125 176.63783264160156 348.0764465332031 180.1693878173828 366.39947509765625"/>
    <path stroke-width="0" fill="rgb(3, -4, 12)" opacity="0.42378736" stroke="rgb(224, 116, 184)" stroke-opacity="1.0" stroke-linecap="round" stroke-linejoin="round" d="M 329.7810974121094 349.2009582519531 C 347.6354675292969 309.69708251953125 333.19415283203125 331.8831787109375 309.762451171875 373.7036437988281 C 320.8842468261719 334.0428466796875 336.02703857421875 302.7557067871094 317.611572265625 357.8935241699219 C 315.1282043457031 339.0054016113281 324.4751892089844 336.4429016113281 336.17950439453125 334.4125671386719 C 301.14434814453125 341.6164245605469 316.6211853027344 347.41021728515625 329.7810974121094 349.2009582519531"/>
    <path stroke-width="0" fill="rgb(167, 118, 100)" opacity="0.9805686" stroke="rgb(230, 175, 178)" stroke-opacity="1.0" stroke-linecap="round" stroke-linejoin="round" d="M 162.4971466064453 328.75433349609375 C 139.86883544921875 309.313720703125 124.57908630371094 318.44915771484375 113.82438659667969 310.1664733886719 C 137.55633544921875 318.85675048828125 154.90060424804688 320.3267517089844 143.9993896484375 311.5987854003906 C 150.6288604736328 317.9971923828125 138.224365234375 312.2939758300781 162.5604248046875 327.93353271484375 C 207.7634735107422 272.3343811035156 209.758544921875 285.7647705078125 162.4971466064453 328.75433349609375"/>
    <path stroke-width="0" fill="rgb(207, 237, 241)" opacity="0.1515091" stroke="rgb(203, 244, 116)" stroke-opacity="1.0" stroke-linecap="round" stroke-linejoin="round" d="M 259.7394104003906 338.3922119140625 C 239.25746154785156 394.8111877441406 213.67041015625 416.6793518066406 200.79530334472656 384.92376708984375 C 173.25791931152344 323.2398986816406 211.22213745117188 312.359375 216.4246063232422 353.7417907714844 C 214.2157440185547 366.6904296875 212.78160095214844 362.1199951171875 215.15994262695312 282.1173400878906 C 234.86410522460938 279.85650634765625 226.50416564941406 295.7620849609375 259.7394104003906 338.3922119140625"/>
    <path stroke-width="0" fill="rgb(87, 111, 77)" opacity="0.184386" stroke="rgb(209, 231, 207)" stroke-opacity="1.0" stroke-linecap="round" stroke-linejoin="round" d="M 309.770751953125 340.1552429199219 C 318.3007507324219 309.49603271484375 280.66900634765625 355.7733154296875 317.32757568359375 331.80865478515625 C 326.373291015625 315.4206237792969 323.72283935546875 304.0535583496094 323.34588623046875 319.5851745605469 C 327.50531005859375 356.97265625 324.3229064941406 355.8387451171875 316.0246276855469 328.5190734863281 C 303.8968505859375 325.9798583984375 310.3482971191406 335.9233703613281 309.770751953125 340.1552429199219"/>
    <path stroke-width="0" fill="rgb(-7, -1, 70)" opacity="0.97229457" stroke="rgb(65, 216, 8)" stroke-opacity="1.0" stroke-linecap="round" stroke-linejoin="round" d="M 190.9722900390625 395.8294372558594 C 178.37684631347656 347.99261474609375 197.93927001953125 345.2369079589844 193.5997314453125 380.11187744140625 C 196.5908660888672 410.3912658691406 180.80198669433594 403.2579345703125 162.59263610839844 353.662841796875 C 155.78668212890625 328.7179870605469 163.6466522216797 325.4591979980469 189.739013671875 326.0030212402344 C 193.0681915283203 364.495361328125 184.28018188476562 368.46588134765625 190.9722900390625 395.8294372558594"/>
    <path stroke-width="0" fill="rgb(255, 255, 255)" opacity="0.9993692" stroke="rgb(102, 236, 25)" stroke-opacity="1.0" stroke-linecap="round" stroke-linejoin="round" d="M 292.7991638183594 353.3518981933594 C 280.2932434082031 375.84124755859375 224.3960723876953 399.4072265625 210.0400390625 387.115478515625 C 222.7317657470703 368.29931640625 226.51104736328125 353.2633361816406 217.29022216796875 341.0296936035156 C 230.06922912597656 386.66754150390625 224.38856506347656 381.8272399902344 212.63693237304688 327.9771728515625 C 234.28610229492188 340.27716064453125 260.700927734375 343.80474853515625 292.7991638183594 353.3518981933594"/>
    <path stroke-width="0" fill="rgb(165, 45, 22)" opacity="0.9780164" stroke="rgb(33, 3, 29)" stroke-opacity="1.0" stroke-linecap="round" stroke-linejoin="round" d="M 229.57127380371094 391.3253173828125 C 217.36305236816406 396.4130554199219 222.07945251464844 415.3335266113281 229.22032165527344 422.4507751464844 C 151.9759063720703 411.9083251953125 130.5260772705078 437.6074523925781 141.93321228027344 397.5486755371094 C 155.15200805664062 400.2241516113281 227.56460571289062 397.429443359375 229.57818603515625 401.9072570800781 C 227.2218017578125 396.6567687988281 216.73367309570312 399.54974365234375 229.57127380371094 391.3253173828125"/>
    <path stroke-width="0" fill="rgb(256, 80, -3)" opacity="1.0046223" stroke="rgb(199, 73, 61)" stroke-opacity="1.0" stroke-linecap="round" stroke-linejoin="round" d="M 283.0572204589844 418.495849609375 C 296.46795654296875 395.38165283203125 283.93939208984375 399.4314880371094 288.7051696777344 401.7059631347656 C 286.55914306640625 402.6378173828125 289.2857666015625 385.5427551269531 286.41717529296875 399.5580139160156 C 284.9818420410156 392.75994873046875 266.4258117675781 399.66094970703125 362.1563415527344 398.652587890625 C 398.9893493652344 433.4724426269531 265.927001953125 419.1203918457031 283.0572204589844 418.495849609375"/>
    <path stroke-width="0" fill="rgb(54, 169, 80)" opacity="0.7491062" stroke="rgb(175, 14, 186)" stroke-opacity="1.0" stroke-linecap="round" stroke-linejoin="round" d="M 483.7308044433594 139.33786010742188 C 443.08209228515625 185.9950408935547 513.1238403320312 262.8515319824219 639.4483032226562 129.1089630126953 C 511.7834777832031 79.14395141601562 608.1447143554688 -3.676504135131836 335.13995361328125 -88.32215881347656 C 123.45753479003906 153.09512329101562 220.45933532714844 6.0044708251953125 361.568603515625 92.04683685302734 C 495.6890563964844 165.1273956298828 450.6343078613281 128.99185180664062 483.7308044433594 139.33786010742188"/>
    <path stroke-width="0" fill="rgb(65, 151, 113)" opacity="0.24860461" stroke="rgb(95, 190, 60)" stroke-opacity="1.0" stroke-linecap="round" stroke-linejoin="round" d="M 133.6370391845703 165.272705078125 C 128.06239318847656 185.45556640625 94.85638427734375 144.13192749023438 70.54056549072266 202.6273651123047 C 130.59103393554688 253.890625 134.47337341308594 181.76791381835938 174.6876220703125 168.05332946777344 C 136.7224578857422 195.0399932861328 126.070068359375 195.58721923828125 168.05604553222656 174.12953186035156 C 167.0218505859375 168.8233642578125 166.63088989257812 196.00318908691406 133.6370391845703 165.272705078125"/>
    <path stroke-width="0" fill="rgb(-18, -8, 62)" opacity="0.99115574" stroke="rgb(213, 60, 128)" stroke-opacity="1.0" stroke-linecap="round" stroke-linejoin="round" d="M 260.1767578125 150.95675659179688 C 257.7413330078125 187.7436981201172 237.84603881835938 162.87644958496094 218.2386474609375 151.56004333496094 C 241.63656616210938 160.47390747070312 218.86886596679688 158.64842224121094 211.01478576660156 150.31919860839844 C 171.91741943359375 116.84199523925781 158.45855712890625 118.87004852294922 187.02369689941406 146.82493591308594 C 216.1427001953125 141.6230010986328 361.9698181152344 142.651611328125 260.1767578125 150.95675659179688"/>
    <path stroke-width="0" fill="rgb(44, 168, 98)" opacity="0.8564476" stroke="rgb(228, 103, 140)" stroke-opacity="1.0" stroke-linecap="round" stroke-linejoin="round" d="M 123.71675872802734 283.3229064941406 C 159.13221740722656 321.3050842285156 170.0247802734375 322.0876770019531 118.8360824584961 323.1613464355469 C 88.67179870605469 330.4176025390625 62.10160446166992 315.28887939453125 117.14595031738281 264.1020202636719 C 118.7159652709961 276.8617858886719 140.29908752441406 252.94093322753906 133.83348083496094 295.7767333984375 C 140.86654663085938 307.9998779296875 149.50279235839844 292.9237060546875 123.71675872802734 283.3229064941406"/>
    <path stroke-width="0" fill="rgb(227, 255, 280)" opacity="0.9379701" stroke="rgb(63, 128, 79)" stroke-opacity="1.0" stroke-linecap="round" stroke-linejoin="round" d="M 256.601318359375 198.9264373779297 C 213.69874572753906 216.13442993164062 221.36973571777344 228.14503479003906 228.05422973632812 223.74258422851562 C 224.8905487060547 207.60971069335938 215.8437957763672 220.6914520263672 198.45962524414062 187.70887756347656 C 214.8773651123047 231.62232971191406 245.6492156982422 215.63499450683594 238.90875244140625 176.96836853027344 C 207.3682403564453 145.46145629882812 287.3003845214844 184.42507934570312 256.601318359375 198.9264373779297"/>
    <path stroke-width="0" fill="rgb(68, 145, 116)" opacity="0.18952747" stroke="rgb(26, 88, 188)" stroke-opacity="1.0" stroke-linecap="round" stroke-linejoin="round" d="M 143.48406982421875 164.11135864257812 C 95.95539855957031 212.30258178710938 77.494140625 242.76141357421875 99.9403076171875 225.93833923339844 C 157.5157012939453 221.14695739746094 143.0110626220703 212.4639129638672 143.71620178222656 196.98875427246094 C 143.49951171875 250.9171142578125 149.03460693359375 254.30014038085938 141.84829711914062 208.4945068359375 C 110.40061950683594 253.43582153320312 112.36690521240234 231.17626953125 143.48406982421875 164.11135864257812"/>
    <path stroke-width="0" fill="rgb(0, -11, 35)" opacity="0.94313616" stroke="rgb(52, 87, 172)" stroke-opacity="1.0" stroke-linecap="round" stroke-linejoin="round" d="M 307.7237854003906 350.375732421875 C 328.49310302734375 389.826171875 321.1209716796875 355.2903137207031 320.0769958496094 396.28363037109375 C 296.22991943359375 392.2821350097656 297.9439392089844 418.8605041503906 312.751953125 329.5882873535156 C 306.5533142089844 333.4235534667969 309.4021301269531 331.62060546875 307.52520751953125 287.5793151855469 C 350.6275939941406 344.228271484375 334.2770690917969 377.7493896484375 307.7237854003906 350.375732421875"/>
    <path stroke-width="0" fill="rgb(10, -26, 74)" opacity="1.0387827" stroke="rgb(7, 181, 2)" stroke-opacity="1.0" stroke-linecap="round" stroke-linejoin="round" d="M 303.9893493652344 141.94430541992188 C 280.8358154296875 156.37843322753906 264.05645751953125 158.34234619140625 294.0694885253906 145.78726196289062 C 272.5941162109375 152.3616180419922 232.19851684570312 179.33023071289062 241.2127227783203 146.7213134765625 C 270.65106201171875 139.05868530273438 314.28265380859375 161.13587951660156 328.0667724609375 125.18083953857422 C 267.4508972167969 151.42349243164062 268.0614013671875 153.526611328125 303.9893493652344 141.94430541992188"/>
    <path stroke-width="0" fill="rgb(124, 86, 137)" opacity="0.6920304" stroke="rgb(22, 103, 6)" stroke-opacity="1.0" stroke-linecap="round" stroke-linejoin="round" d="M 292.45452880859375 481.3692932128906 C 269.6869812011719 491.6050109863281 341.02459716796875 510.6457214355469 216.01930236816406 533.7661743164062 C 84.39762878417969 478.02398681640625 254.54286193847656 459.60540771484375 246.1967315673828 461.5231628417969 C 253.16712951660156 467.42169189453125 282.2124328613281 506.5864562988281 228.63043212890625 495.2283935546875 C 216.62974548339844 475.64666748046875 234.70718383789062 444.9848327636719 292.45452880859375 481.3692932128906"/>
    <path stroke-width="0" fill="rgb(48, 164, 86)" opacity="0.52635914" stroke="rgb(53, 29, 147)" stroke-opacity="1.0" stroke-linecap="round" stroke-linejoin="round" d="M 335.79168701171875 157.67181396484375 C 319.13385009765625 80.9992904663086 336.3656311035156 47.97770309448242 391.6261291503906 113.5055923461914 C 371.95416259765625 210.56622314453125 337.76361083984375 136.7051239013672 334.1034240722656 133.11358642578125 C 336.44830322265625 162.77743530273438 342.06170654296875 155.24984741210938 337.1345520019531 154.07635498046875 C 329.34185791015625 151.32809448242188 344.1390686035156 148.92523193359375 335.79168701171875 157.67181396484375"/>
    <path stroke-width="0" fill="rgb(97, 129, 120)" opacity="0.231849" stroke="rgb(0, 165, 153)" stroke-opacity="1.0" stroke-linecap="round" stroke-linejoin="round" d="M 456.7828063964844 519.9216918945312 C 377.32489013671875 507.02191162109375 294.0434875488281 482.35394287109375 363.6361999511719 497.8070983886719 C 361.7852478027344 488.3343200683594 256.0986022949219 509.74261474609375 252.33255004882812 476.80615234375 C 304.11932373046875 427.9532165527344 336.4735107421875 461.42822265625 328.1901550292969 481.7685546875 C 360.9464416503906 438.49530029296875 417.212890625 426.7031555175781 456.7828063964844 519.9216918945312"/>
    <path stroke-width="0" fill="rgb(106, 130, 176)" opacity="0.022192087" stroke="rgb(0, 0, 0)" stroke-opacity="0.0" stroke-linecap="round" stroke-linejoin="round" d="M 256.7969055175781 3.269216775894165 C 259.9219665527344 10.314187049865723 260.8287048339844 15.13723373413086 251.11572265625 13.184490203857422 C 245.61572265625 14.524203300476074 249.38302612304688 15.067803382873535 251.072998046875 5.126409530639648 C 246.9895477294922 -0.8038936257362366 248.8566436767578 -2.3270342350006104 255.37896728515625 -2.8455474376678467 C 259.1675109863281 -3.4752631187438965 259.6439514160156 -2.0166544914245605 256.7969055175781 3.269216775894165"/>
    <path stroke-width="0" fill="rgb(103, 117, 147)" opacity="0.04472771" stroke="rgb(0, 0, 0)" stroke-opacity="0.0" stroke-linecap="round" stroke-linejoin="round" d="M 49.42973709106445 16.402587890625 C 53.39767837524414 13.249360084533691 49.34942626953125 11.75344181060791 40.25490188598633 13.7888822555542 C 42.58641052246094 18.97748565673828 39.83849334716797 17.13445281982422 41.57571792602539 16.16871452331543 C 49.209228515625 16.699636459350586 52.60371017456055 12.947077751159668 50.5825080871582 9.115274429321289 C 47.846412658691406 8.436347961425781 50.44973373413086 9.728426933288574 49.42973709106445 16.402587890625"/>
    <path stroke-width="0" fill="rgb(103, 89, 110)" opacity="0.03102442" stroke="rgb(0, 0, 0)" stroke-opacity="0.0" stroke-linecap="round" stroke-linejoin="round" d="M 40.8885612487793 26.076278686523438 C 35.805362701416016 22.86687469482422 33.336429595947266 21.016542434692383 36.147735595703125 22.33734703063965 C 37.159584045410156 21.064369201660156 36.91038131713867 19.78717613220215 33.83280944824219 21.610380172729492 C 34.762901306152344 19.31532096862793 40.508262634277344 20.611858367919922 39.283058166503906 16.42765998840332 C 40.2077751159668 12.474589347839355 39.76814651489258 17.978443145751953 40.8885612487793 26.076278686523438"/>
    <path stroke-width="0" fill="rgb(122, 127, 146)" opacity="0.37379745" stroke="rgb(0, 0, 0)" stroke-opacity="0.0" stroke-linecap="round" stroke-linejoin="round" d="M 21.083023071289062 7.434905529022217 C 23.194398880004883 9.437393188476562 18.800907135009766 8.030877113342285 17.677753448486328 2.9908268451690674 C 8.99257755279541 1.4969971179962158 1.0959291458129883 3.5455567836761475 -1.5469417572021484 7.137848377227783 C 3.2090203762054443 0.06229749694466591 6.6840338706970215 -2.9007210731506348 11.748374938964844 -5.831118583679199 C 20.204845428466797 -7.488914966583252 22.57475471496582 -4.97890043258667 21.083023071289062 7.434905529022217"/>
    <path stroke-width="0" fill="rgb(19, 153, 183)" opacity="0.09699426" stroke="rgb(0, 0, 0)" stroke-opacity="0.0" stroke-linecap="round" stroke-linejoin="round" d="M 19.12334442138672 22.233386993408203 C 18.757863998413086 22.9726505279541 14.350401878356934 19.81856918334961 2.3011956214904785 21.88039779663086 C -3.8869519233703613 20.48444938659668 -4.824789524078369 24.770048141479492 -5.216035842895508 17.827241897583008 C -3.69561767578125 8.361929893493652 0.14122964441776276 3.372934103012085 7.33737325668335 12.354246139526367 C 20.2514705657959 13.353995323181152 19.80866241455078 9.00388240814209 19.12334442138672 22.233386993408203"/>
    <path stroke-width="0" fill="rgb(59, 139, 118)" opacity="-0.007292332" stroke="rgb(0, 0, 0)" stroke-opacity="0.0" stroke-linecap="round" stroke-linejoin="round" d="M 64.32775115966797 19.9755802154541 C 70.7419204711914 20.04161262512207 65.14834594726562 21.10373878479004 59.633087158203125 23.904132843017578 C 54.072566986083984 26.34231948852539 52.3211555480957 25.696805953979492 54.357940673828125 16.715526580810547 C 49.88761901855469 8.4773588180542 57.748809814453125 11.943099975585938 65.52808380126953 11.22610855102539 C 63.13251876831055 6.002782821655273 65.72257995605469 11.002821922302246 64.32775115966797 19.9755802154541"/>
    <path stroke-width="0" fill="rgb(54, 135, 150)" opacity="0.46873012" stroke="rgb(0, 0, 0)" stroke-opacity="0.0" stroke-linecap="round" stroke-linejoin="round" d="M 28.790916442871094 0.6905600428581238 C 33.46832275390625 2.648578405380249 27.007553100585938 -0.8184008598327637 18.941997528076172 4.939509391784668 C 20.070226669311523 7.621393203735352 22.292678833007812 4.713070869445801 22.05253791809082 -0.8957216143608093 C 14.039422035217285 -3.246587038040161 17.57712745666504 -5.613186836242676 22.59562873840332 -6.364576816558838 C 26.26753044128418 -5.791946887969971 27.798254013061523 -2.8959720134735107 28.790916442871094 0.6905600428581238"/>
    <path stroke-width="0" fill="rgb(95, 132, 123)" opacity="0.0042356253" stroke="rgb(0, 0, 0)" stroke-opacity="0.0" stroke-linecap="round" stroke-linejoin="round" d="M 292.317626953125 5.833235263824463 C 297.7935791015625 12.865568161010742 292.72119140625 13.843059539794922 282.5325622558594 15.401046752929688 C 279.1457214355469 16.188894271850586 278.73101806640625 11.806224822998047 279.1518249511719 4.952332973480225 C 277.5973815917969 1.085101842880249 279.7858581542969 -2.1608526706695557 284.7768249511719 -2.9026317596435547 C 290.96240234375 -2.0871431827545166 292.140380859375 0.8585889339447021 292.317626953125 5.833235263824463"/>
    <path stroke-width="0" fill="rgb(-40, 102, 81)" opacity="0.35678396" stroke="rgb(0, 0, 0)" stroke-opacity="0.0" stroke-linecap="round" stroke-linejoin="round" d="M 263.4137878417969 219.24282836914062 C 256.2249450683594 223.64962768554688 253.9060821533203 226.7071990966797 251.8072967529297 228.8218536376953 C 244.93508911132812 225.68545532226562 235.78282165527344 225.73098754882812 237.3095245361328 209.73463439941406 C 244.94712829589844 227.8389892578125 250.67637634277344 229.6845703125 258.041259765625 221.8589630126953 C 262.09259033203125 208.8249969482422 267.24505615234375 199.47344970703125 263.4137878417969 219.24282836914062"/>
    <path stroke-width="0" fill="rgb(179, 84, 192)" opacity="-0.054956496" stroke="rgb(0, 0, 0)" stroke-opacity="0.0" stroke-linecap="round" stroke-linejoin="round" d="M 352.46270751953125 192.455810546875 C 353.6763610839844 198.03897094726562 354.5837707519531 200.27291870117188 347.3874816894531 198.86355590820312 C 341.8092041015625 199.32476806640625 339.9636535644531 197.04469299316406 341.1436462402344 196.30703735351562 C 340.27716064453125 192.21823120117188 341.1711120605469 192.81643676757812 346.25018310546875 194.0001220703125 C 352.735595703125 192.5596923828125 354.2735900878906 193.58908081054688 352.46270751953125 192.455810546875"/>
    <path stroke-width="0" fill="rgb(132, 166, 116)" opacity="0.7656113" stroke="rgb(0, 0, 0)" stroke-opacity="0.0" stroke-linecap="round" stroke-linejoin="round" d="M 383.2273864746094 372.0957946777344 C 388.3316955566406 373.77032470703125 394.3464660644531 380.4508056640625 391.4277648925781 372.2781677246094 C 382.5052185058594 366.79229736328125 378.0205993652344 363.40936279296875 373.2485046386719 360.5372619628906 C 377.8774108886719 363.33648681640625 389.5978698730469 355.8980712890625 384.22149658203125 364.3890075683594 C 380.62518310546875 371.3520202636719 378.19769287109375 374.3837585449219 383.2273864746094 372.0957946777344"/>
    <path stroke-width="0" fill="rgb(169, 84, 89)" opacity="0.02653687" stroke="rgb(0, 0, 0)" stroke-opacity="0.0" stroke-linecap="round" stroke-linejoin="round" d="M 323.0709228515625 475.08837890625 C 326.1236572265625 475.0752258300781 322.34893798828125 477.9713439941406 322.6809997558594 479.4877014160156 C 322.7789306640625 477.1060485839844 321.9383239746094 475.56842041015625 319.3764953613281 472.5824279785156 C 320.73614501953125 474.510009765625 323.1849670410156 473.8453063964844 320.2177429199219 473.7993469238281 C 323.50494384765625 477.75921630859375 325.14208984375 475.2275085449219 323.0709228515625 475.08837890625"/>
    <path stroke-width="0" fill="rgb(82, 127, 116)" opacity="-0.015176067" stroke="rgb(0, 0, 0)" stroke-opacity="0.0" stroke-linecap="round" stroke-linejoin="round" d="M 31.85810089111328 23.204721450805664 C 30.460180282592773 25.351871490478516 31.72532081604004 33.06924819946289 32.682342529296875 27.7445125579834 C 29.83623504638672 30.548349380493164 26.375885009765625 29.973865509033203 26.007648468017578 28.496906280517578 C 25.030115127563477 20.585418701171875 22.376996994018555 21.434967041015625 27.817941665649414 21.73069953918457 C 34.3574104309082 19.631389617919922 34.78899002075195 24.524547576904297 31.85810089111328 23.204721450805664"/>
    <path stroke-width="0" fill="rgb(12, 161, 115)" opacity="-0.007839714" stroke="rgb(0, 0, 0)" stroke-opacity="0.0" stroke-linecap="round" stroke-linejoin="round" d="M 259.779296875 13.367626190185547 C 253.48475646972656 22.5749568939209 247.44107055664062 27.48465919494629 242.862548828125 21.587682723999023 C 242.37081909179688 16.53032112121582 239.7161407470703 16.45598793029785 239.66000366210938 13.536739349365234 C 237.6949462890625 12.115497589111328 240.52633666992188 8.492810249328613 241.3154296875 10.224372863769531 C 244.9938507080078 11.280369758605957 249.82254028320312 11.662748336791992 259.779296875 13.367626190185547"/>
    <path stroke-width="0" fill="rgb(65, 149, 111)" opacity="0.28933942" stroke="rgb(0, 0, 0)" stroke-opacity="0.0" stroke-linecap="round" stroke-linejoin="round" d="M 218.2745361328125 56.39506149291992 C 222.82798767089844 61.50249481201172 223.69960021972656 63.850860595703125 215.97509765625 61.55953598022461 C 206.7925567626953 61.93264389038086 207.6554718017578 58.38188171386719 209.65065002441406 52.58949279785156 C 208.85121154785156 49.81985855102539 205.09576416015625 51.209808349609375 215.28402709960938 52.79216003417969 C 215.763671875 50.07844543457031 217.31076049804688 54.33557891845703 218.2745361328125 56.39506149291992"/>
    <path stroke-width="0" fill="rgb(187, 56, 180)" opacity="0.085436" stroke="rgb(0, 0, 0)" stroke-opacity="0.0" stroke-linecap="round" stroke-linejoin="round" d="M 451.5281982421875 255.38296508789062 C 456.57171630859375 261.8354187011719 453.88226318359375 267.15582275390625 447.57440185546875 266.46875 C 434.8898010253906 264.6947326660156 430.66717529296875 264.7326354980469 432.0843811035156 258.8009338378906 C 439.29302978515625 255.0719451904297 442.3287658691406 252.3144073486328 440.60943603515625 250.4700164794922 C 442.1525573730469 252.7516632080078 442.3096923828125 257.6039123535156 451.5281982421875 255.38296508789062"/>
    <path stroke-width="0" fill="rgb(59, 148, 110)" opacity="0.40028697" stroke="rgb(0, 0, 0)" stroke-opacity="0.0" stroke-linecap="round" stroke-linejoin="round" d="M 133.35609436035156 142.74716186523438 C 137.30113220214844 146.588134765625 132.8097686767578 148.54443359375 135.23361206054688 143.5112762451172 C 131.22024536132812 146.07752990722656 130.71572875976562 146.1524200439453 129.6829833984375 142.03456115722656 C 130.7100830078125 138.61280822753906 130.21156311035156 140.3778076171875 131.99671936035156 133.29298400878906 C 135.8024139404297 138.47142028808594 134.06289672851562 141.0635986328125 133.35609436035156 142.74716186523438"/>
    <path stroke-width="0" fill="rgb(181, 55, 182)" opacity="0.11500374" stroke="rgb(0, 0, 0)" stroke-opacity="0.0" stroke-linecap="round" stroke-linejoin="round" d="M 482.51812744140625 275.6114196777344 C 479.6395568847656 277.10321044921875 472.743896484375 276.4730529785156 463.6654052734375 276.3008117675781 C 463.3326721191406 281.46527099609375 457.4752197265625 283.3345031738281 456.7987365722656 275.9647216796875 C 460.22589111328125 265.289306640625 463.10797119140625 262.3379821777344 470.7247009277344 262.9993591308594 C 477.4687194824219 263.8075256347656 480.395263671875 266.8145751953125 482.51812744140625 275.6114196777344"/>
    <path stroke-width="0" fill="rgb(146, 45, 175)" opacity="0.017894827" stroke="rgb(0, 0, 0)" stroke-opacity="0.0" stroke-linecap="round" stroke-linejoin="round" d="M 380.6082458496094 90.56239318847656 C 381.50860595703125 92.8978042602539 375.40484619140625 92.34297180175781 369.938232421875 96.31204223632812 C 364.9050598144531 97.57660675048828 361.36767578125 96.73506927490234 369.02001953125 90.8969955444336 C 366.8690185546875 82.89840698242188 367.65069580078125 80.91602325439453 370.0312805175781 84.17585754394531 C 374.94525146484375 84.50419616699219 378.78839111328125 85.95983123779297 380.6082458496094 90.56239318847656"/>
    <path stroke-width="0" fill="rgb(74, 137, 102)" opacity="0.46138582" stroke="rgb(0, 0, 0)" stroke-opacity="0.0" stroke-linecap="round" stroke-linejoin="round" d="M 460.5509033203125 194.13084411621094 C 465.0353088378906 193.2229461669922 460.2967224121094 190.58639526367188 454.4737854003906 191.64044189453125 C 451.6316833496094 201.7900848388672 451.5553283691406 195.8306121826172 448.8661804199219 189.80850219726562 C 450.6318054199219 187.77761840820312 455.7625732421875 185.534423828125 455.1229553222656 182.43380737304688 C 460.7507019042969 181.919921875 463.2031555175781 186.2219696044922 460.5509033203125 194.13084411621094"/>
    <path stroke-width="0" fill="rgb(77, 133, 159)" opacity="0.1658552" stroke="rgb(0, 0, 0)" stroke-opacity="0.0" stroke-linecap="round" stroke-linejoin="round" d="M 322.1031494140625 94.1054916381836 C 321.7016906738281 91.93247985839844 319.8619384765625 100.62704467773438 325.2814636230469 101.11924743652344 C 317.9660949707031 110.04489135742188 304.52008056640625 106.179443359375 320.8606262207031 99.28645324707031 C 322.3249816894531 86.68113708496094 323.3887023925781 87.90023040771484 324.26849365234375 92.79154968261719 C 322.10394287109375 85.7423324584961 323.5133361816406 90.15425109863281 322.1031494140625 94.1054916381836"/>
    <path stroke-width="0" fill="rgb(98, 123, 141)" opacity="0.34229496" stroke="rgb(0, 0, 0)" stroke-opacity="0.0" stroke-linecap="round" stroke-linejoin="round" d="M 17.026777267456055 421.0685729980469 C 28.54172134399414 424.5298156738281 24.757442474365234 423.5610656738281 14.03242015838623 426.3490905761719 C 17.73244285583496 433.248291015625 16.044343948364258 429.7365417480469 18.100067138671875 419.0684814453125 C 11.732102394104004 420.5216369628906 14.799300193786621 417.27984619140625 19.083721160888672 425.64166259765625 C 24.162137985229492 420.77203369140625 22.203140258789062 418.7081604003906 17.026777267456055 421.0685729980469"/>
    <path stroke-width="0" fill="rgb(82, -49, 233)" opacity="0.4480559" stroke="rgb(0, 0, 0)" stroke-opacity="0.0" stroke-linecap="round" stroke-linejoin="round" d="M 265.8975524902344 411.64617919921875 C 271.6328125 427.8082275390625 275.7686462402344 420.02008056640625 248.59335327148438 420.4051818847656 C 233.23899841308594 422.46392822265625 240.322998046875 423.73284912109375 242.5147247314453 411.06689453125 C 244.06605529785156 389.9379577636719 241.8307647705078 391.1189880371094 244.99322509765625 395.5194091796875 C 264.3262023925781 395.6999816894531 264.1806335449219 395.32794189453125 265.8975524902344 411.64617919921875"/>
    <path stroke-width="0" fill="rgb(74, 90, 106)" opacity="-0.028435988" stroke="rgb(0, 0, 0)" stroke-opacity="0.0" stroke-linecap="round" stroke-linejoin="round" d="M 117.45368194580078 50.532318115234375 C 119.26567840576172 54.173126220703125 119.89217376708984 59.493812561035156 115.60718536376953 56.37969970703125 C 111.48171997070312 60.443660736083984 108.846435546875 57.334075927734375 110.16380310058594 50.596336364746094 C 108.0128173828125 46.45481491088867 111.0846939086914 45.582881927490234 114.68457794189453 47.13766098022461 C 118.1631088256836 46.3034553527832 117.85340881347656 49.18019485473633 117.45368194580078 50.532318115234375"/>
    <path stroke-width="0" fill="rgb(101, 157, 180)" opacity="-0.019108415" stroke="rgb(0, 0, 0)" stroke-opacity="0.0" stroke-linecap="round" stroke-linejoin="round" d="M 108.6658706665039 26.864547729492188 C 108.05763244628906 34.04682159423828 109.84207916259766 40.48430633544922 107.52845001220703 39.33772277832031 C 102.9019546508789 38.5186767578125 101.27240753173828 36.29037094116211 103.20874786376953 29.934507369995117 C 101.58789825439453 23.056148529052734 102.02606964111328 20.785375595092773 110.70170593261719 24.02906608581543 C 113.58079528808594 26.057437896728516 114.77952575683594 25.255739212036133 108.6658706665039 26.864547729492188"/>
    <path stroke-width="0" fill="rgb(69, 152, 152)" opacity="0.010021888" stroke="rgb(0, 0, 0)" stroke-opacity="0.0" stroke-linecap="round" stroke-linejoin="round" d="M 260.7705993652344 328.1299133300781 C 258.4309997558594 332.7239074707031 251.367919921875 335.50677490234375 249.1322784423828 328.9659729003906 C 243.13270568847656 335.2639465332031 242.4973907470703 332.3932189941406 238.96128845214844 329.4096984863281 C 240.40830993652344 320.1463928222656 244.17543029785156 318.5865783691406 245.0424346923828 322.135986328125 C 249.91566467285156 321.36346435546875 254.43295288085938 324.600830078125 260.7705993652344 328.1299133300781"/>
    <path stroke-width="0" fill="rgb(190, 108, 115)" opacity="0.103626065" stroke="rgb(0, 0, 0)" stroke-opacity="0.0" stroke-linecap="round" stroke-linejoin="round" d="M 517.8713989257812 413.71881103515625 C 512.14306640625 413.4755859375 506.413818359375 412.953125 507.878173828125 421.7388610839844 C 511.4347839355469 420.4562683105469 508.6752624511719 414.8549499511719 508.1717224121094 412.8932189941406 C 504.35540771484375 410.0760803222656 503.0916748046875 407.8137512207031 510.85894775390625 405.1758117675781 C 514.5000610351562 408.93109130859375 517.670654296875 410.5350036621094 517.8713989257812 413.71881103515625"/>
    <path stroke-width="0" fill="rgb(114, 121, 127)" opacity="0.22541888" stroke="rgb(0, 0, 0)" stroke-opacity="0.0" stroke-linecap="round" stroke-linejoin="round" d="M 161.07345581054688 61.277557373046875 C 160.04896545410156 59.78582763671875 156.92697143554688 61.625492095947266 157.37164306640625 60.81846618652344 C 159.61734008789062 59.47629928588867 157.04441833496094 60.760440826416016 154.7436981201172 60.47130584716797 C 156.23788452148438 61.39604949951172 160.1199493408203 59.66910171508789 161.61627197265625 60.22144317626953 C 158.45179748535156 60.15153884887695 159.1281280517578 61.25991439819336 161.07345581054688 61.277557373046875"/>
    <path stroke-width="0" fill="rgb(97, 128, 97)" opacity="0.3027038" stroke="rgb(0, 0, 0)" stroke-opacity="0.0" stroke-linecap="round" stroke-linejoin="round" d="M 446.360107421875 106.94886779785156 C 451.7119445800781 118.65579986572266 453.87548828125 122.60318756103516 441.6663818359375 114.98088073730469 C 430.4161376953125 122.49845886230469 429.1841125488281 119.58484649658203 433.66900634765625 100.3114013671875 C 439.2065734863281 102.81026458740234 441.1044921875 104.52842712402344 441.2472839355469 96.15058898925781 C 449.5703430175781 97.49746704101562 455.15673828125 102.16084289550781 446.360107421875 106.94886779785156"/>
    <path stroke-width="0" fill="rgb(110, 83, 134)" opacity="-0.0023298243" stroke="rgb(0, 0, 0)" stroke-opacity="0.0" stroke-linecap="round" stroke-linejoin="round" d="M 25.484729766845703 73.18968963623047 C 31.510862350463867 75.6282730102539 28.428991317749023 73.90970611572266 25.07903480529785 72.42450714111328 C 20.379270553588867 72.5430679321289 18.129398345947266 73.08773803710938 19.4763126373291 74.374267578125 C 18.35247230529785 72.98810577392578 23.30549430847168 71.38330078125 24.013338088989258 73.48526763916016 C 28.03273582458496 72.37666320800781 31.092683792114258 70.25978088378906 25.484729766845703 73.18968963623047"/>
    <path stroke-width="0" fill="rgb(-40, 13, 117)" opacity="0.1342677" stroke="rgb(0, 0, 0)" stroke-opacity="0.0" stroke-linecap="round" stroke-linejoin="round" d="M 187.4457550048828 262.7138366699219 C 189.7295379638672 271.3659973144531 190.9120635986328 274.69287109375 188.37298583984375 266.3865051269531 C 189.551025390625 262.03350830078125 180.22698974609375 263.7523193359375 158.26902770996094 263.8319396972656 C 168.23016357421875 260.5621643066406 184.3119659423828 261.6744384765625 187.51414489746094 262.1501159667969 C 181.9986114501953 261.7832336425781 188.92311096191406 264.0635986328125 187.4457550048828 262.7138366699219"/>
    <path stroke-width="0" fill="rgb(68, 136, 0)" opacity="0.5955179" stroke="rgb(0, 0, 0)" stroke-opacity="0.0" stroke-linecap="round" stroke-linejoin="round" d="M 0.8259562849998474 7.113960266113281 C 1.2398875951766968 18.117403030395508 -0.3576537072658539 25.02423095703125 -1.3494815826416016 32.23897933959961 C -5.57307243347168 27.68665313720703 -8.75396728515625 24.960803985595703 -9.855953216552734 20.99485206604004 C -8.785137176513672 16.99474334716797 -5.893282413482666 14.010584831237793 -2.081721305847168 10.899128913879395 C -1.4568023681640625 13.922355651855469 -6.412477970123291 14.595025062561035 0.8259562849998474 7.113960266113281"/>
    <path stroke-width="0" fill="rgb(62, 109, 80)" opacity="0.09079865" stroke="rgb(0, 0, 0)" stroke-opacity="0.0" stroke-linecap="round" stroke-linejoin="round" d="M 474.0241394042969 388.6936950683594 C 470.190673828125 391.87908935546875 467.4078674316406 395.4873962402344 465.6352233886719 398.1028137207031 C 462.9649658203125 391.14923095703125 456.9158020019531 389.9165954589844 457.6200256347656 393.641357421875 C 461.7869567871094 389.523681640625 462.8161926269531 385.1904602050781 465.1826171875 383.00396728515625 C 467.939453125 381.4112854003906 468.8727722167969 387.18408203125 474.0241394042969 388.6936950683594"/>
    <path stroke-width="0" fill="rgb(86, 139, 98)" opacity="0.3355245" stroke="rgb(0, 0, 0)" stroke-opacity="0.0" stroke-linecap="round" stroke-linejoin="round" d="M 463.0805969238281 233.93038940429688 C 460.29937744140625 234.89418029785156 462.2607727050781 241.90989685058594 462.5799865722656 237.7052459716797 C 453.0024108886719 235.88523864746094 450.7891540527344 240.86502075195312 454.0209045410156 236.4722442626953 C 451.4764709472656 231.6628875732422 454.2425842285156 233.33514404296875 461.4219665527344 228.62777709960938 C 463.16455078125 227.82679748535156 463.8619384765625 231.72801208496094 463.0805969238281 233.93038940429688"/>
    <path stroke-width="0" fill="rgb(96, 107, 157)" opacity="0.084967256" stroke="rgb(0, 0, 0)" stroke-opacity="0.0" stroke-linecap="round" stroke-linejoin="round" d="M 172.1334228515625 65.32774353027344 C 178.80763244628906 64.8508529663086 176.67384338378906 68.23806762695312 179.12049865722656 69.09650421142578 C 172.48008728027344 69.82977294921875 164.36573791503906 70.062255859375 167.07858276367188 68.96879577636719 C 170.7703094482422 62.785804748535156 173.61805725097656 63.11835861206055 177.7647247314453 64.8012924194336 C 176.1865692138672 65.79386901855469 172.91578674316406 66.12430572509766 172.1334228515625 65.32774353027344"/>
    <path stroke-width="0" fill="rgb(7, 181, 91)" opacity="0.42988825" stroke="rgb(0, 0, 0)" stroke-opacity="0.0" stroke-linecap="round" stroke-linejoin="round" d="M 23.497989654541016 5.718215465545654 C 19.338850021362305 11.041496276855469 13.842756271362305 11.075264930725098 8.200953483581543 9.950711250305176 C 2.9862449169158936 14.500777244567871 -4.8968915939331055 9.369980812072754 1.0224063396453857 5.6796417236328125 C 3.541184902191162 2.8167736530303955 6.001129627227783 -0.8993627429008484 10.119257926940918 -4.91754150390625 C 20.864482879638672 -7.002018451690674 24.743255615234375 -6.295506000518799 23.497989654541016 5.718215465545654"/>
    <path stroke-width="0" fill="rgb(328, 98, 217)" opacity="0.15297614" stroke="rgb(0, 0, 0)" stroke-opacity="0.0" stroke-linecap="round" stroke-linejoin="round" d="M 309.8468017578125 164.0376739501953 C 300.0123291015625 158.40792846679688 299.0191955566406 160.1952362060547 297.06768798828125 164.76010131835938 C 298.0887451171875 159.14208984375 296.09417724609375 155.0459747314453 302.1335754394531 157.79579162597656 C 301.1044006347656 158.06634521484375 299.6426696777344 154.06541442871094 302.41607666015625 152.88800048828125 C 302.3706359863281 150.62213134765625 307.2361145019531 153.58273315429688 309.8468017578125 164.0376739501953"/>
    <path stroke-width="0" fill="rgb(76, 133, 109)" opacity="0.29751384" stroke="rgb(0, 0, 0)" stroke-opacity="0.0" stroke-linecap="round" stroke-linejoin="round" d="M 444.2393798828125 48.164634704589844 C 438.9493408203125 43.41755294799805 436.8135681152344 42.13248825073242 438.6166687011719 51.52235794067383 C 447.65606689453125 51.510704040527344 445.958251953125 44.63499069213867 440.3622741699219 41.4138069152832 C 438.7145080566406 32.870704650878906 439.9495544433594 28.464738845825195 445.4167175292969 36.24646759033203 C 446.1431579589844 36.53865051269531 446.7906799316406 41.26381301879883 444.2393798828125 48.164634704589844"/>
    <path stroke-width="0" fill="rgb(64, 160, 110)" opacity="0.4637413" stroke="rgb(0, 0, 0)" stroke-opacity="0.0" stroke-linecap="round" stroke-linejoin="round" d="M 60.33557891845703 389.82647705078125 C 57.74609375 394.3857116699219 53.47001647949219 398.82562255859375 61.03964614868164 396.23443603515625 C 62.488712310791016 398.0796813964844 52.86387634277344 399.4522399902344 51.43565368652344 394.8743896484375 C 55.664161682128906 393.3313903808594 58.571285247802734 391.77783203125 60.22998046875 393.9300537109375 C 57.75779342651367 395.16534423828125 64.37425994873047 397.5166320800781 60.33557891845703 389.82647705078125"/>
    <path stroke-width="0" fill="rgb(135, 110, 117)" opacity="0.22679214" stroke="rgb(0, 0, 0)" stroke-opacity="0.0" stroke-linecap="round" stroke-linejoin="round" d="M 417.6540222167969 6.964655876159668 C 415.3629150390625 8.907926559448242 414.9868469238281 17.66484260559082 417.24853515625 15.263490676879883 C 413.4613342285156 15.609086036682129 413.0537109375 16.426342010498047 417.9638671875 13.243642807006836 C 413.21429443359375 7.358180999755859 409.89208984375 10.426970481872559 413.19439697265625 15.486804962158203 C 414.30621337890625 5.055425643920898 417.0993957519531 10.468517303466797 417.6540222167969 6.964655876159668"/>
    <path stroke-width="0" fill="rgb(-13, 62, 87)" opacity="0.022428963" stroke="rgb(0, 0, 0)" stroke-opacity="0.0" stroke-linecap="round" stroke-linejoin="round" d="M 310.9523620605469 372.8800048828125 C 307.5992126464844 372.101318359375 307.2864685058594 379.33441162109375 302.9331359863281 382.4422912597656 C 300.42132568359375 388.8603515625 301.2275085449219 387.11688232421875 300.55816650390625 381.9797668457031 C 304.464111328125 373.7578125 305.7925109863281 370.70599365234375 303.39434814453125 371.24169921875 C 303.19384765625 372.856689453125 306.88555908203125 375.1611022949219 310.9523620605469 372.8800048828125"/>
    <path stroke-width="0" fill="rgb(136, 120, 81)" opacity="-0.03141723" stroke="rgb(0, 0, 0)" stroke-opacity="0.0" stroke-linecap="round" stroke-linejoin="round" d="M 353.27349853515625 120.0543212890625 C 356.4296875 125.9307632446289 356.4216613769531 127.2429428100586 351.3834228515625 123.37596130371094 C 343.84503173828125 124.80097961425781 340.5173645019531 123.40528106689453 345.9913024902344 119.38040924072266 C 344.9177551269531 109.5452880859375 342.33660888671875 108.064453125 348.46173095703125 108.60649871826172 C 355.3394775390625 107.69902038574219 355.233642578125 112.41946411132812 353.27349853515625 120.0543212890625"/>
    <path stroke-width="0" fill="rgb(72, 157, 83)" opacity="0.26004702" stroke="rgb(0, 0, 0)" stroke-opacity="0.0" stroke-linecap="round" stroke-linejoin="round" d="M 497.97174072265625 11.745138168334961 C 498.526123046875 11.093928337097168 491.40484619140625 11.821074485778809 495.99560546875 8.654796600341797 C 496.5576477050781 12.130955696105957 488.43035888671875 14.150991439819336 487.3179931640625 13.373773574829102 C 487.3630676269531 -1.7057340145111084 486.9929504394531 0.7977960109710693 501.2528381347656 -1.4112441539764404 C 497.5422058105469 9.171941757202148 497.47515869140625 13.376358032226562 497.97174072265625 11.745138168334961"/>
    <path stroke-width="0" fill="rgb(193, 127, 75)" opacity="0.08209833" stroke="rgb(0, 0, 0)" stroke-opacity="0.0" stroke-linecap="round" stroke-linejoin="round" d="M 302.5462951660156 274.4988098144531 C 309.1101989746094 284.2513732910156 310.1381530761719 282.2500915527344 293.4272155761719 282.4702453613281 C 290.2579040527344 274.9784851074219 290.905029296875 267.99993896484375 279.5574951171875 261.21087646484375 C 283.4800109863281 261.180419921875 287.84307861328125 260.72076416015625 294.1676330566406 245.5103759765625 C 297.97540283203125 260.2147216796875 302.31298828125 263.9818115234375 302.5462951660156 274.4988098144531"/>
    <path stroke-width="0" fill="rgb(62, 135, 103)" opacity="0.07932522" stroke="rgb(0, 0, 0)" stroke-opacity="0.0" stroke-linecap="round" stroke-linejoin="round" d="M 378.9573059082031 479.0673828125 C 379.6015625 479.67218017578125 377.2822265625 483.0588684082031 375.4449157714844 480.3371276855469 C 370.8263854980469 483.7569580078125 368.0882263183594 480.90057373046875 370.76519775390625 479.3658447265625 C 369.8689270019531 473.5115966796875 370.7149658203125 469.6209716796875 371.414794921875 470.7451477050781 C 375.367431640625 472.3524169921875 377.56396484375 475.8171081542969 378.9573059082031 479.0673828125"/>
    <path stroke-width="0" fill="rgb(79, 107, 158)" opacity="0.14596413" stroke="rgb(0, 0, 0)" stroke-opacity="0.0" stroke-linecap="round" stroke-linejoin="round" d="M 44.38018035888672 396.4364318847656 C 45.26414108276367 403.5679931640625 43.62544250488281 401.0093688964844 30.234375 389.1457214355469 C 20.60455894470215 402.35577392578125 21.335201263427734 409.13580322265625 36.91486358642578 405.600830078125 C 30.020105361938477 390.3011169433594 35.70543670654297 389.5582275390625 39.912681579589844 384.358642578125 C 47.21303939819336 383.7632751464844 50.427154541015625 388.5713806152344 44.38018035888672 396.4364318847656"/>
  </g>
</svg>
