<?xml version="1.0" ?>
<svg xmlns="http://www.w3.org/2000/svg" version="1.1" width="512" height="512">
  <defs/>
  <g>
    <path stroke-width="0" fill="rgb(85, 69, 100)" opacity="0.87550104" stroke="rgb(139, 182, 153)" stroke-opacity="1.0" stroke-linecap="round" stroke-linejoin="round" d="M 323.7054748535156 427.13775634765625 C 362.0936584472656 479.4617919921875 360.3549499511719 496.58135986328125 190.01953125 484.4767150878906 C 59.86803436279297 378.593994140625 59.113651275634766 354.8310852050781 -38.142520904541016 94.01766967773438 C -55.74998092651367 24.691083908081055 -54.507442474365234 -3.2493443489074707 30.77973175048828 -11.690583229064941 C 241.99728393554688 164.1786346435547 251.14328002929688 172.19895935058594 323.7054748535156 427.13775634765625"/>
    <path stroke-width="0" fill="rgb(117, 113, 131)" opacity="0.9884509" stroke="rgb(108, 164, 111)" stroke-opacity="1.0" stroke-linecap="round" stroke-linejoin="round" d="M 563.852783203125 104.28410339355469 C 519.9920654296875 394.8749084472656 444.051513671875 376.3412170410156 301.28558349609375 377.0780029296875 C 145.54519653320312 341.5939025878906 142.59930419921875 311.8326416015625 -49.691429138183594 1.7973068952560425 C -5.70611047744751 -61.47223663330078 18.957836151123047 -59.51573944091797 446.24822998046875 -50.592098236083984 C 535.3020629882812 -48.75304412841797 556.3040771484375 -60.0816650390625 563.852783203125 104.28410339355469"/>
    <path stroke-width="0" fill="rgb(121, 138, 117)" opacity="1.0088524" stroke="rgb(245, 97, 201)" stroke-opacity="1.0" stroke-linecap="round" stroke-linejoin="round" d="M 297.9007263183594 522.3558349609375 C 290.2972106933594 570.1263427734375 265.1747741699219 573.4346313476562 -73.39730072021484 555.06591796875 C -78.9822769165039 469.8158264160156 -51.8045539855957 419.02099609375 -46.28164291381836 272.57049560546875 C -56.931453704833984 163.62477111816406 -81.46731567382812 128.18165588378906 -9.422859191894531 109.26124572753906 C 144.24746704101562 188.19033813476562 155.48468017578125 193.5049591064453 297.9007263183594 522.3558349609375"/>
    <path stroke-width="0" fill="rgb(117, 114, 135)" opacity="1.006471" stroke="rgb(144, 236, 18)" stroke-opacity="1.0" stroke-linecap="round" stroke-linejoin="round" d="M 557.802001953125 499.8588562011719 C 564.6090698242188 540.8244018554688 570.5844116210938 555.1404418945312 301.5802001953125 560.9467163085938 C 228.8988800048828 576.3638305664062 203.67787170410156 602.4698486328125 224.43496704101562 375.74285888671875 C 300.3884582519531 233.4586639404297 300.6427917480469 181.00379943847656 541.6384887695312 147.27789306640625 C 576.6678466796875 265.0323486328125 560.8159790039062 308.91241455078125 557.802001953125 499.8588562011719"/>
    <path stroke-width="0" fill="rgb(230, 228, 267)" opacity="0.98360664" stroke="rgb(5, 212, 198)" stroke-opacity="1.0" stroke-linecap="round" stroke-linejoin="round" d="M 368.0728454589844 528.9200439453125 C 364.5356140136719 503.1345520019531 365.5629577636719 512.2237548828125 316.5072326660156 547.142578125 C 398.0198059082031 520.6864624023438 317.28009033203125 551.01611328125 334.1728820800781 487.302001953125 C 334.0632019042969 494.12799072265625 328.5100402832031 485.95855712890625 339.4299011230469 501.3865661621094 C 349.7372741699219 508.0992126464844 329.519287109375 517.7891845703125 368.0728454589844 528.9200439453125"/>
    <path stroke-width="0" fill="rgb(243, 273, 277)" opacity="0.90484464" stroke="rgb(249, 203, 117)" stroke-opacity="1.0" stroke-linecap="round" stroke-linejoin="round" d="M 356.9173583984375 485.0226135253906 C 279.3953857421875 547.7775268554688 353.2174377441406 531.1220703125 339.477294921875 491.438720703125 C 347.03558349609375 500.95257568359375 347.7888488769531 490.4559326171875 346.2696228027344 501.2430114746094 C 338.8976745605469 492.7324523925781 369.087158203125 469.0677490234375 313.6488037109375 472.66241455078125 C 365.0390930175781 453.99237060546875 411.8692626953125 505.1927490234375 356.9173583984375 485.0226135253906"/>
    <path stroke-width="0" fill="rgb(260, 248, 262)" opacity="0.7497911" stroke="rgb(133, 105, 67)" stroke-opacity="1.0" stroke-linecap="round" stroke-linejoin="round" d="M 386.2838134765625 468.27764892578125 C 362.9488220214844 521.8513793945312 236.21945190429688 573.951904296875 252.90576171875 635.1980590820312 C 284.7398376464844 541.4782104492188 294.0196228027344 542.1718139648438 341.7516784667969 550.7489013671875 C 347.853271484375 535.922607421875 347.6862487792969 520.2626342773438 330.1546936035156 511.12579345703125 C 349.974365234375 444.7064208984375 304.13836669921875 467.27947998046875 386.2838134765625 468.27764892578125"/>
    <path stroke-width="0" fill="rgb(283, 252, 270)" opacity="1.0878633" stroke="rgb(116, 144, 4)" stroke-opacity="1.0" stroke-linecap="round" stroke-linejoin="round" d="M 373.393798828125 84.20246887207031 C 369.4136657714844 89.16987609863281 248.8428955078125 75.01569366455078 378.36981201171875 76.2210922241211 C 375.51470947265625 158.2583465576172 363.97930908203125 29.906728744506836 343.3630065917969 97.81571197509766 C 387.774169921875 109.2990951538086 361.37445068359375 52.75064468383789 323.4342956542969 68.39643859863281 C 379.2889709472656 33.310768127441406 323.5569152832031 118.09258270263672 373.393798828125 84.20246887207031"/>
    <path stroke-width="0" fill="rgb(142, 171, 192)" opacity="1.0013918" stroke="rgb(156, 157, 240)" stroke-opacity="1.0" stroke-linecap="round" stroke-linejoin="round" d="M 384.6279296875 488.8872375488281 C 391.2771301269531 537.9479370117188 382.8509826660156 521.841552734375 357.35552978515625 580.0201416015625 C 439.6304931640625 523.5175170898438 288.065185546875 510.0748596191406 322.8229064941406 475.79071044921875 C 311.0852355957031 491.33563232421875 386.0882568359375 489.6880187988281 385.3067932128906 491.5060119628906 C 385.17742919921875 454.7835388183594 449.60601806640625 453.4865417480469 384.6279296875 488.8872375488281"/>
    <path stroke-width="0" fill="rgb(1, 25, 34)" opacity="0.6998733" stroke="rgb(91, 111, 177)" stroke-opacity="1.0" stroke-linecap="round" stroke-linejoin="round" d="M 351.9939880371094 75.7517318725586 C 354.3612060546875 46.04391098022461 378.19329833984375 74.09500122070312 356.5240478515625 89.89340209960938 C 350.6424865722656 134.05397033691406 382.9131774902344 50.694114685058594 339.5733947753906 61.31340026855469 C 362.0198059082031 31.611797332763672 353.6842346191406 100.53642272949219 376.7078857421875 76.7516860961914 C 249.7750701904297 71.36856079101562 403.513671875 83.18486022949219 351.9939880371094 75.7517318725586"/>
    <path stroke-width="0" fill="rgb(152, 149, 150)" opacity="0.91602784" stroke="rgb(170, 171, 53)" stroke-opacity="1.0" stroke-linecap="round" stroke-linejoin="round" d="M 357.1026611328125 486.2525329589844 C 336.63861083984375 454.1466369628906 371.26837158203125 541.6251220703125 336.6995849609375 621.4453735351562 C 309.87164306640625 480.8891906738281 337.88275146484375 500.91986083984375 303.7024230957031 500.9714660644531 C 299.0780029296875 497.37890625 300.6439208984375 494.926025390625 355.2689514160156 481.9200744628906 C 333.84674072265625 477.5538330078125 413.9833984375 477.3851623535156 357.1026611328125 486.2525329589844"/>
    <path stroke-width="0" fill="rgb(107, 123, 131)" opacity="1.0146629" stroke="rgb(80, 92, 145)" stroke-opacity="1.0" stroke-linecap="round" stroke-linejoin="round" d="M 287.979248046875 508.2059020996094 C 6.053564548492432 254.4475860595703 87.92176055908203 180.74551391601562 90.4236831665039 208.1717071533203 C -59.71486282348633 206.826904296875 -55.36357116699219 191.64962768554688 -35.049625396728516 125.54954528808594 C -40.78221893310547 64.58954620361328 -46.02934265136719 48.192596435546875 -7.977093696594238 -8.438858032226562 C 287.451171875 -421.3293762207031 415.9013977050781 72.38667297363281 287.979248046875 508.2059020996094"/>
    <path stroke-width="0" fill="rgb(80, 61, 62)" opacity="0.88318604" stroke="rgb(252, 26, 53)" stroke-opacity="1.0" stroke-linecap="round" stroke-linejoin="round" d="M 345.1919860839844 440.0801696777344 C 365.191650390625 450.98504638671875 317.8516540527344 455.7802429199219 368.8941345214844 417.6053161621094 C 293.8178405761719 411.11712646484375 326.4715270996094 435.3418884277344 359.7613830566406 440.0140380859375 C 300.76397705078125 401.57708740234375 315.2892150878906 515.9425048828125 348.4150390625 360.87359619140625 C 322.71038818359375 479.1791076660156 407.4459533691406 363.49591064453125 345.1919860839844 440.0801696777344"/>
    <path stroke-width="0" fill="rgb(242, 272, 263)" opacity="1.0785685" stroke="rgb(166, 64, 118)" stroke-opacity="1.0" stroke-linecap="round" stroke-linejoin="round" d="M 329.33221435546875 241.0391387939453 C 385.4762878417969 198.39524841308594 390.34814453125 179.8939971923828 359.4643859863281 190.51463317871094 C 324.15960693359375 269.3070373535156 340.78082275390625 208.84609985351562 340.6289978027344 190.96531677246094 C 340.4934387207031 118.21756744384766 345.88079833984375 105.96800994873047 355.7849426269531 175.74342346191406 C 360.4241027832031 188.0097198486328 347.5580749511719 223.88894653320312 329.33221435546875 241.0391387939453"/>
    <path stroke-width="0" fill="rgb(43, 46, 52)" opacity="0.60258555" stroke="rgb(40, 28, 167)" stroke-opacity="1.0" stroke-linecap="round" stroke-linejoin="round" d="M 313.3946228027344 427.7552490234375 C 453.0603332519531 466.0747985839844 436.222900390625 408.6872863769531 361.60009765625 431.4918518066406 C 374.1653137207031 362.5129699707031 350.95269775390625 432.04364013671875 317.42401123046875 389.770263671875 C 320.7803649902344 421.5768127441406 326.1098937988281 392.38177490234375 392.59503173828125 369.90179443359375 C 331.3456115722656 419.92376708984375 402.5746765136719 439.8831787109375 313.3946228027344 427.7552490234375"/>
    <path stroke-width="0" fill="rgb(244, 240, 210)" opacity="0.7844942" stroke="rgb(50, 94, 209)" stroke-opacity="1.0" stroke-linecap="round" stroke-linejoin="round" d="M 419.5956115722656 434.7709045410156 C 265.6239013671875 436.6214904785156 416.6048583984375 484.4445495605469 341.7256774902344 447.16845703125 C 438.5672607421875 408.77215576171875 360.7635192871094 395.5230712890625 374.3701477050781 440.469482421875 C 443.02655029296875 447.87200927734375 382.7704772949219 429.45123291015625 389.045166015625 464.1231994628906 C 388.7471923828125 429.36090087890625 405.66802978515625 455.4722595214844 419.5956115722656 434.7709045410156"/>
    <path stroke-width="0" fill="rgb(259, 275, 262)" opacity="1.016207" stroke="rgb(213, 24, 248)" stroke-opacity="1.0" stroke-linecap="round" stroke-linejoin="round" d="M 431.408447265625 438.0748291015625 C 270.9855041503906 432.5016174316406 298.6199035644531 441.0553283691406 310.50543212890625 428.72149658203125 C 321.56109619140625 418.0973205566406 287.4137878417969 418.80487060546875 338.1581115722656 413.8494567871094 C 356.3341979980469 390.162353515625 268.40179443359375 420.02630615234375 302.0501708984375 450.8941955566406 C 315.9015808105469 432.6800537109375 288.80169677734375 448.4023742675781 431.408447265625 438.0748291015625"/>
    <path stroke-width="0" fill="rgb(33, 43, 73)" opacity="0.8770152" stroke="rgb(249, 154, 188)" stroke-opacity="1.0" stroke-linecap="round" stroke-linejoin="round" d="M 344.51708984375 193.43235778808594 C 387.91925048828125 167.62161254882812 305.0535888671875 207.12034606933594 366.61920166015625 197.31137084960938 C 373.29266357421875 193.42990112304688 363.98443603515625 185.59780883789062 355.3408508300781 208.9280242919922 C 362.8433837890625 207.36109924316406 372.74505615234375 191.44322204589844 333.74786376953125 245.68528747558594 C 346.93756103515625 232.9433135986328 366.657470703125 215.1290740966797 344.51708984375 193.43235778808594"/>
    <path stroke-width="0" fill="rgb(23, 43, 47)" opacity="0.96110314" stroke="rgb(72, 30, 75)" stroke-opacity="1.0" stroke-linecap="round" stroke-linejoin="round" d="M 385.3856506347656 363.9800720214844 C 336.4884033203125 349.9815368652344 315.1468811035156 330.8498229980469 337.4066162109375 361.71588134765625 C 316.0389404296875 331.6770935058594 378.21185302734375 316.69561767578125 330.0725402832031 343.20281982421875 C 315.8028259277344 328.9369201660156 333.60858154296875 289.5776672363281 362.84466552734375 311.62811279296875 C 356.4579162597656 365.01593017578125 398.97979736328125 294.2341003417969 385.3856506347656 363.9800720214844"/>
    <path stroke-width="0" fill="rgb(272, 232, 259)" opacity="0.69170094" stroke="rgb(81, 105, 16)" stroke-opacity="1.0" stroke-linecap="round" stroke-linejoin="round" d="M 362.2725524902344 372.6078186035156 C 333.0788879394531 321.9675598144531 378.1426696777344 331.3382263183594 332.633056640625 320.664306640625 C 326.2792663574219 388.2731018066406 315.42706298828125 360.0995178222656 341.71978759765625 334.1072692871094 C 339.77435302734375 291.77569580078125 360.9729919433594 354.8838195800781 364.30364990234375 327.8940734863281 C 393.5085754394531 359.43280029296875 350.0546875 320.0090637207031 362.2725524902344 372.6078186035156"/>
    <path stroke-width="0" fill="rgb(10, -4, 43)" opacity="0.7317631" stroke="rgb(144, 67, 133)" stroke-opacity="1.0" stroke-linecap="round" stroke-linejoin="round" d="M 360.4410705566406 469.2252502441406 C 351.8358459472656 401.52764892578125 364.83978271484375 479.2718505859375 351.9418029785156 448.6116943359375 C 380.2102355957031 461.2284851074219 335.3045349121094 472.9070129394531 424.25213623046875 466.3309326171875 C 384.5677490234375 483.3803405761719 341.99713134765625 461.2446594238281 358.8276062011719 468.96875 C 178.67630004882812 469.1136779785156 434.3363037109375 476.7102966308594 360.4410705566406 469.2252502441406"/>
    <path stroke-width="0" fill="rgb(61, 41, 53)" opacity="0.9378462" stroke="rgb(146, 236, 81)" stroke-opacity="1.0" stroke-linecap="round" stroke-linejoin="round" d="M 350.8053283691406 139.4801025390625 C 358.3946533203125 156.94583129882812 317.2214050292969 216.5284881591797 365.0851135253906 151.82534790039062 C 384.40789794921875 148.54434204101562 333.6534729003906 182.77871704101562 337.43560791015625 156.42776489257812 C 335.3898010253906 190.7359619140625 341.57916259765625 185.84051513671875 366.6404724121094 189.35494995117188 C 335.77349853515625 168.3340301513672 325.5389099121094 220.0650177001953 350.8053283691406 139.4801025390625"/>
    <path stroke-width="0" fill="rgb(267, 258, 267)" opacity="1.1317134" stroke="rgb(33, 182, 73)" stroke-opacity="1.0" stroke-linecap="round" stroke-linejoin="round" d="M 343.2666931152344 262.9538879394531 C 317.4875183105469 223.01583862304688 338.5586242675781 239.74160766601562 342.4730529785156 254.11724853515625 C 394.5605773925781 209.70892333984375 382.86505126953125 242.21742248535156 330.2012634277344 263.36962890625 C 385.9870300292969 270.7890625 326.7198791503906 238.31134033203125 370.3096008300781 255.30377197265625 C 316.4706726074219 262.1609802246094 328.97454833984375 284.5284423828125 343.2666931152344 262.9538879394531"/>
    <path stroke-width="0" fill="rgb(55, 1, 8)" opacity="0.69601864" stroke="rgb(172, 68, 187)" stroke-opacity="1.0" stroke-linecap="round" stroke-linejoin="round" d="M 371.0949401855469 178.0608367919922 C 377.5848693847656 230.6721649169922 371.9945068359375 192.72605895996094 362.7265319824219 203.0373992919922 C 392.81414794921875 210.60757446289062 344.04290771484375 185.4472198486328 366.5345764160156 200.50025939941406 C 381.9371337890625 229.9499053955078 375.73870849609375 218.2676239013672 374.619140625 205.7567596435547 C 362.536376953125 204.80697631835938 374.739501953125 199.76278686523438 371.0949401855469 178.0608367919922"/>
    <path stroke-width="0" fill="rgb(246, 263, 279)" opacity="1.0800624" stroke="rgb(63, 146, 150)" stroke-opacity="1.0" stroke-linecap="round" stroke-linejoin="round" d="M 395.53192138671875 366.2019958496094 C 375.8312072753906 344.2149353027344 354.11175537109375 334.0230407714844 402.8917236328125 392.23553466796875 C 359.556640625 353.34033203125 349.82012939453125 412.92779541015625 365.1767272949219 344.33935546875 C 414.9553527832031 379.0635070800781 351.8357849121094 318.3726806640625 384.26263427734375 343.0191345214844 C 389.67498779296875 286.8227844238281 350.798828125 360.75421142578125 395.53192138671875 366.2019958496094"/>
    <path stroke-width="0" fill="rgb(255, 276, 262)" opacity="0.7433663" stroke="rgb(56, 242, 114)" stroke-opacity="1.0" stroke-linecap="round" stroke-linejoin="round" d="M 378.2157897949219 335.60699462890625 C 345.3288879394531 312.4081115722656 377.7393493652344 320.71026611328125 333.0367126464844 357.7392272949219 C 321.0155029296875 260.5700378417969 346.5135498046875 322.681396484375 347.58685302734375 257.0230712890625 C 374.80126953125 304.06121826171875 293.3735046386719 340.74468994140625 356.7159118652344 288.8877258300781 C 376.2079772949219 213.52789306640625 383.389404296875 275.5552062988281 378.2157897949219 335.60699462890625"/>
    <path stroke-width="0" fill="rgb(262, 264, 272)" opacity="1.0712376" stroke="rgb(178, 75, 207)" stroke-opacity="1.0" stroke-linecap="round" stroke-linejoin="round" d="M 321.0592346191406 522.8963623046875 C 345.64971923828125 429.5447998046875 319.7859191894531 493.5865783691406 314.7026672363281 506.9263916015625 C 306.4836730957031 559.6666259765625 270.24237060546875 515.892578125 314.0676574707031 528.452880859375 C 297.1850891113281 516.5818481445312 309.10064697265625 520.3618774414062 314.1123046875 508.66302490234375 C 324.5496520996094 504.68072509765625 308.34906005859375 532.0090942382812 321.0592346191406 522.8963623046875"/>
    <path stroke-width="0" fill="rgb(252, 281, 254)" opacity="1.066736" stroke="rgb(184, 127, 243)" stroke-opacity="1.0" stroke-linecap="round" stroke-linejoin="round" d="M 350.91656494140625 65.47846221923828 C 396.1265563964844 52.41366195678711 313.35150146484375 57.37895202636719 339.13232421875 59.34465408325195 C 313.33868408203125 89.48690032958984 359.22271728515625 64.71224975585938 337.9816589355469 66.77047729492188 C 369.4873046875 55.6362190246582 341.553466796875 32.5552864074707 358.0509033203125 -0.9365068674087524 C 345.05718994140625 85.61570739746094 404.21112060546875 71.03538513183594 350.91656494140625 65.47846221923828"/>
    <path stroke-width="0" fill="rgb(255, 265, 258)" opacity="1.0351744" stroke="rgb(108, 154, 4)" stroke-opacity="1.0" stroke-linecap="round" stroke-linejoin="round" d="M 393.39788818359375 403.3121643066406 C 412.53863525390625 440.503662109375 393.2333068847656 431.2889404296875 409.30242919921875 414.0692443847656 C 367.0048828125 414.1448669433594 370.0635070800781 414.53350830078125 371.6994323730469 403.8157043457031 C 401.31524658203125 385.5024108886719 412.9156799316406 415.9630126953125 382.3522644042969 382.2164001464844 C 399.3646545410156 398.0689697265625 341.1133728027344 418.0395202636719 393.39788818359375 403.3121643066406"/>
    <path stroke-width="0" fill="rgb(101, 135, 117)" opacity="0.9439497" stroke="rgb(168, 73, 157)" stroke-opacity="1.0" stroke-linecap="round" stroke-linejoin="round" d="M 337.633056640625 37.604251861572266 C 326.28778076171875 54.02864456176758 321.95556640625 53.80109786987305 331.2278747558594 52.10164260864258 C 347.4029541015625 53.198524475097656 342.2262268066406 58.51103210449219 332.06524658203125 16.883691787719727 C 341.9241638183594 90.30401611328125 350.3404235839844 60.1622428894043 329.4710388183594 57.051204681396484 C 343.8861389160156 42.01942825317383 354.04266357421875 46.666900634765625 337.633056640625 37.604251861572266"/>
    <path stroke-width="0" fill="rgb(246, 263, 246)" opacity="1.0731082" stroke="rgb(34, 76, 145)" stroke-opacity="1.0" stroke-linecap="round" stroke-linejoin="round" d="M 420.12261962890625 481.2886047363281 C 428.7682189941406 503.7662048339844 447.30291748046875 518.20556640625 406.8000793457031 506.8472595214844 C 403.2755432128906 484.1640319824219 360.47802734375 492.395263671875 405.8109130859375 488.84710693359375 C 419.96600341796875 517.2999267578125 376.2706298828125 524.6401977539062 429.2605895996094 512.7844848632812 C 406.2900390625 539.1768188476562 399.374267578125 540.540771484375 420.12261962890625 481.2886047363281"/>
    <path stroke-width="0" fill="rgb(228, 231, 212)" opacity="0.9474831" stroke="rgb(146, 166, 166)" stroke-opacity="1.0" stroke-linecap="round" stroke-linejoin="round" d="M 332.7143859863281 383.982666015625 C 380.2321472167969 368.89288330078125 324.34210205078125 288.2484130859375 369.5525817871094 406.7218322753906 C 316.9924621582031 344.7564697265625 353.1781311035156 376.5657043457031 347.7607421875 346.843994140625 C 375.0345458984375 360.4071960449219 342.1820068359375 321.951416015625 319.3359680175781 386.4428405761719 C 314.6123352050781 379.0844421386719 334.16925048828125 383.9229431152344 332.7143859863281 383.982666015625"/>
    <path stroke-width="0" fill="rgb(249, 261, 262)" opacity="1.0446668" stroke="rgb(228, 93, 111)" stroke-opacity="1.0" stroke-linecap="round" stroke-linejoin="round" d="M 371.9180603027344 403.3954772949219 C 397.1836242675781 403.15179443359375 353.99395751953125 399.8304138183594 375.6673278808594 383.95880126953125 C 397.0555725097656 395.3215026855469 403.2421875 401.57745361328125 364.3435363769531 369.8042297363281 C 407.3312072753906 418.191162109375 364.87506103515625 390.1440734863281 384.69256591796875 407.90850830078125 C 392.5480041503906 369.6522216796875 356.99957275390625 419.93072509765625 371.9180603027344 403.3954772949219"/>
    <path stroke-width="0" fill="rgb(10, 8, -10)" opacity="0.8270478" stroke="rgb(205, 179, 25)" stroke-opacity="1.0" stroke-linecap="round" stroke-linejoin="round" d="M 340.894287109375 246.5655975341797 C 348.1360168457031 239.87109375 397.1038513183594 263.50634765625 353.414306640625 283.8196105957031 C 348.21209716796875 197.56475830078125 360.70172119140625 148.44827270507812 356.37371826171875 233.72808837890625 C 329.37646484375 239.2784423828125 350.3561096191406 241.11367797851562 349.0245361328125 240.8424072265625 C 373.548583984375 199.4373016357422 352.4150695800781 234.7592010498047 340.894287109375 246.5655975341797"/>
    <path stroke-width="0" fill="rgb(260, 262, 249)" opacity="1.0792646" stroke="rgb(182, 254, 38)" stroke-opacity="1.0" stroke-linecap="round" stroke-linejoin="round" d="M 389.48388671875 477.1120910644531 C 391.6410827636719 517.5577392578125 425.4635925292969 475.89984130859375 375.2744140625 541.7774658203125 C 380.0926513671875 513.611083984375 372.9058837890625 496.79095458984375 385.1468505859375 537.4976806640625 C 398.59600830078125 537.6722412109375 403.4391174316406 534.2794799804688 387.98565673828125 538.306396484375 C 400.1340026855469 478.8645935058594 382.8100280761719 528.3743286132812 389.48388671875 477.1120910644531"/>
    <path stroke-width="0" fill="rgb(270, 264, 271)" opacity="1.0562004" stroke="rgb(41, 156, 31)" stroke-opacity="1.0" stroke-linecap="round" stroke-linejoin="round" d="M 353.11529541015625 44.520408630371094 C 359.2567138671875 54.08649444580078 343.053466796875 44.734378814697266 333.2485046386719 44.28303909301758 C 357.4813537597656 75.92340850830078 339.42779541015625 18.468870162963867 374.3102722167969 77.208984375 C 391.6378173828125 71.4016342163086 347.5902404785156 43.09199905395508 354.9032897949219 46.88042068481445 C 328.156005859375 45.21689987182617 356.76055908203125 48.80280685424805 353.11529541015625 44.520408630371094"/>
    <path stroke-width="0" fill="rgb(214, 238, 217)" opacity="1.1941488" stroke="rgb(205, 145, 103)" stroke-opacity="1.0" stroke-linecap="round" stroke-linejoin="round" d="M 339.1993103027344 136.60789489746094 C 349.2250671386719 114.05194854736328 394.2481384277344 172.19476318359375 359.1781311035156 120.33660888671875 C 330.0960693359375 130.39981079101562 340.2576904296875 80.93187713623047 370.83416748046875 106.56232452392578 C 346.109375 94.43549346923828 360.9226989746094 130.80770874023438 354.6888122558594 140.1200408935547 C 352.5814514160156 109.55486297607422 368.49053955078125 122.46012878417969 339.1993103027344 136.60789489746094"/>
    <path stroke-width="0" fill="rgb(92, 110, 102)" opacity="0.8997473" stroke="rgb(177, 115, 184)" stroke-opacity="1.0" stroke-linecap="round" stroke-linejoin="round" d="M 355.125 236.5556640625 C 331.2876281738281 244.36318969726562 387.84906005859375 211.78628540039062 351.2511291503906 223.19117736816406 C 393.16021728515625 291.1505126953125 373.3177795410156 247.77877807617188 379.959716796875 236.8582000732422 C 376.56951904296875 245.6851348876953 365.71807861328125 219.5872344970703 360.5939636230469 220.97177124023438 C 376.85546875 237.59132385253906 345.7297058105469 205.54762268066406 355.125 236.5556640625"/>
    <path stroke-width="0" fill="rgb(41, 16, 24)" opacity="0.80570596" stroke="rgb(248, 218, 2)" stroke-opacity="1.0" stroke-linecap="round" stroke-linejoin="round" d="M 310.9925231933594 504.55615234375 C 317.888916015625 494.4504699707031 319.1595458984375 536.0288696289062 315.61041259765625 553.4030151367188 C 294.56414794921875 534.7272338867188 291.2525329589844 518.1565551757812 319.95025634765625 466.0508117675781 C 281.5145568847656 498.70281982421875 330.5343017578125 487.7629699707031 322.0025939941406 495.6223449707031 C 265.14996337890625 490.090087890625 264.0719909667969 527.66552734375 310.9925231933594 504.55615234375"/>
    <path stroke-width="0" fill="rgb(259, 260, 250)" opacity="1.0567671" stroke="rgb(186, 43, 132)" stroke-opacity="1.0" stroke-linecap="round" stroke-linejoin="round" d="M 307.7720947265625 517.828369140625 C 322.5369567871094 489.3460693359375 259.2030334472656 534.8546142578125 293.17657470703125 486.5950927734375 C 314.0133361816406 519.7486572265625 342.6092529296875 475.9273986816406 296.960693359375 495.32421875 C 314.2724609375 507.53729248046875 328.18206787109375 473.2499084472656 298.0409851074219 508.8497619628906 C 306.4409484863281 489.68115234375 278.9118347167969 513.3418579101562 307.7720947265625 517.828369140625"/>
    <path stroke-width="0" fill="rgb(245, 270, 259)" opacity="0.9673851" stroke="rgb(50, 4, 202)" stroke-opacity="1.0" stroke-linecap="round" stroke-linejoin="round" d="M 367.6975402832031 246.51751708984375 C 354.8408203125 261.0953369140625 334.8918151855469 257.6115417480469 375.0216979980469 240.94166564941406 C 364.5785827636719 232.99356079101562 329.79949951171875 234.92715454101562 326.1070861816406 289.84381103515625 C 331.28607177734375 258.13720703125 335.59259033203125 241.6189727783203 359.4704284667969 216.22531127929688 C 374.5021057128906 230.87557983398438 380.3663024902344 223.24964904785156 367.6975402832031 246.51751708984375"/>
    <path stroke-width="0" fill="rgb(231, 244, 253)" opacity="1.0909109" stroke="rgb(88, 236, 179)" stroke-opacity="1.0" stroke-linecap="round" stroke-linejoin="round" d="M 342.8896789550781 140.18704223632812 C 376.77154541015625 191.180908203125 346.90093994140625 164.53053283691406 361.0492248535156 84.74970245361328 C 379.17657470703125 86.95096588134766 356.3874206542969 119.75346374511719 375.3214111328125 137.9769744873047 C 337.9261474609375 99.59684753417969 342.4547119140625 142.93772888183594 363.9206237792969 114.23252868652344 C 324.6894226074219 93.53150939941406 383.7760925292969 151.45660400390625 342.8896789550781 140.18704223632812"/>
    <path stroke-width="0" fill="rgb(273, 259, 287)" opacity="0.9899473" stroke="rgb(41, 158, 147)" stroke-opacity="1.0" stroke-linecap="round" stroke-linejoin="round" d="M 391.84490966796875 427.4934997558594 C 418.4111633300781 422.3336486816406 418.6944885253906 464.060302734375 421.2043151855469 412.9737854003906 C 402.08380126953125 443.5013122558594 409.2771301269531 388.62689208984375 396.01251220703125 402.806884765625 C 399.6925048828125 410.2958679199219 427.1163330078125 427.56707763671875 396.1259460449219 409.14569091796875 C 363.2806396484375 422.5502624511719 391.897216796875 390.58038330078125 391.84490966796875 427.4934997558594"/>
    <path stroke-width="0" fill="rgb(77, 121, 147)" opacity="0.937033" stroke="rgb(238, 156, 136)" stroke-opacity="1.0" stroke-linecap="round" stroke-linejoin="round" d="M 357.6662292480469 28.345922470092773 C 357.8609619140625 69.32670593261719 338.693603515625 55.6270751953125 327.27386474609375 48.07551574707031 C 335.95166015625 53.110740661621094 332.1573486328125 50.08018112182617 339.2297668457031 57.996604919433594 C 332.174560546875 43.9642333984375 321.83563232421875 34.156890869140625 358.72320556640625 45.53952407836914 C 357.4513244628906 23.18208885192871 361.0404968261719 48.14369583129883 357.6662292480469 28.345922470092773"/>
    <path stroke-width="0" fill="rgb(107, 102, 104)" opacity="1.1521287" stroke="rgb(186, 79, 101)" stroke-opacity="1.0" stroke-linecap="round" stroke-linejoin="round" d="M 332.0120849609375 223.4698028564453 C 359.1297912597656 195.29751586914062 353.74163818359375 200.26820373535156 352.5679931640625 241.2992401123047 C 367.5181579589844 237.98974609375 341.35430908203125 178.42469787597656 359.5904541015625 203.40908813476562 C 317.0174560546875 222.3808135986328 360.9308776855469 216.98464965820312 370.84698486328125 228.24163818359375 C 313.0358581542969 207.07704162597656 350.593017578125 206.33102416992188 332.0120849609375 223.4698028564453"/>
    <path stroke-width="0" fill="rgb(248, 241, 241)" opacity="1.0223635" stroke="rgb(47, 240, 188)" stroke-opacity="1.0" stroke-linecap="round" stroke-linejoin="round" d="M 372.6687927246094 226.94241333007812 C 395.2228698730469 263.8570861816406 346.0760192871094 297.5502624511719 363.44317626953125 272.9089050292969 C 297.28997802734375 295.3728332519531 356.2245788574219 264.8284606933594 365.3436584472656 252.596923828125 C 332.2411804199219 254.90562438964844 356.5205078125 225.15782165527344 369.4960021972656 236.07186889648438 C 356.74237060546875 272.9162902832031 338.7165832519531 250.7163543701172 372.6687927246094 226.94241333007812"/>
    <path stroke-width="0" fill="rgb(30, 56, 33)" opacity="0.5881786" stroke="rgb(57, 64, 14)" stroke-opacity="1.0" stroke-linecap="round" stroke-linejoin="round" d="M 355.1078796386719 218.72552490234375 C 362.7374572753906 200.74415588378906 337.9621276855469 210.66665649414062 377.14837646484375 230.64755249023438 C 347.1069641113281 255.0063934326172 325.01324462890625 240.96197509765625 369.87969970703125 223.65589904785156 C 366.0006103515625 264.32183837890625 368.45159912109375 212.42185974121094 344.1375427246094 271.69268798828125 C 372.73199462890625 205.14044189453125 337.7029724121094 233.40655517578125 355.1078796386719 218.72552490234375"/>
    <path stroke-width="0" fill="rgb(79, 48, 29)" opacity="0.5640142" stroke="rgb(79, 177, 96)" stroke-opacity="1.0" stroke-linecap="round" stroke-linejoin="round" d="M 375.9958190917969 291.2641906738281 C 369.9883117675781 297.10467529296875 367.1943359375 280.2178039550781 354.97119140625 317.2831726074219 C 384.18023681640625 337.8968505859375 370.5927734375 295.16448974609375 368.4669494628906 311.654052734375 C 366.9524230957031 244.2559814453125 400.6093444824219 254.98577880859375 357.502685546875 302.0971984863281 C 349.9871520996094 305.4793395996094 359.04248046875 318.2603454589844 375.9958190917969 291.2641906738281"/>
    <path stroke-width="0" fill="rgb(78, 64, 94)" opacity="1.0381773" stroke="rgb(6, 17, 173)" stroke-opacity="1.0" stroke-linecap="round" stroke-linejoin="round" d="M 396.6929016113281 400.2940673828125 C 407.8229064941406 383.7557067871094 343.2105407714844 390.91656494140625 393.1282653808594 390.5979919433594 C 397.1191711425781 440.5802001953125 402.742431640625 447.2950744628906 403.276611328125 416.016357421875 C 378.56182861328125 294.2473449707031 381.8789978027344 394.48248291015625 405.0255126953125 405.5592346191406 C 391.5722351074219 423.3446044921875 418.4672546386719 420.6717834472656 396.6929016113281 400.2940673828125"/>
    <path stroke-width="0" fill="rgb(41, -8, -16)" opacity="0.84223264" stroke="rgb(136, 228, 252)" stroke-opacity="1.0" stroke-linecap="round" stroke-linejoin="round" d="M 333.5657653808594 154.52645874023438 C 388.154541015625 114.94273376464844 369.7986145019531 112.42550659179688 363.5558166503906 128.30946350097656 C 362.81402587890625 146.26036071777344 370.1238098144531 128.62625122070312 369.7779846191406 149.00718688964844 C 375.0218505859375 155.3498077392578 380.6315612792969 109.62388610839844 353.8491516113281 124.05196380615234 C 350.3902893066406 106.29035949707031 389.50677490234375 107.00945281982422 333.5657653808594 154.52645874023438"/>
    <path stroke-width="0" fill="rgb(21, 33, 79)" opacity="0.6592821" stroke="rgb(169, 67, 5)" stroke-opacity="1.0" stroke-linecap="round" stroke-linejoin="round" d="M 341.58038330078125 258.7071228027344 C 349.36102294921875 286.40142822265625 353.6099548339844 288.1426696777344 367.5059509277344 293.9156188964844 C 374.1694030761719 271.67864990234375 344.97564697265625 326.9231262207031 352.9798583984375 297.9945068359375 C 349.07232666015625 238.3962860107422 336.4400329589844 282.05322265625 357.0047302246094 268.82623291015625 C 356.6930847167969 278.73974609375 346.4033508300781 283.79644775390625 341.58038330078125 258.7071228027344"/>
    <path stroke-width="0" fill="rgb(289, 290, 226)" opacity="0.70896155" stroke="rgb(81, 97, 150)" stroke-opacity="1.0" stroke-linecap="round" stroke-linejoin="round" d="M 363.591552734375 189.21237182617188 C 342.04754638671875 117.3160629272461 365.4637145996094 240.47056579589844 370.4244689941406 167.93016052246094 C 370.13409423828125 133.99111938476562 342.0294494628906 152.90101623535156 372.739013671875 98.91619873046875 C 320.98846435546875 162.90370178222656 338.4851379394531 106.79676818847656 370.51727294921875 114.76810455322266 C 319.0313720703125 140.00537109375 363.9304504394531 116.2277603149414 363.591552734375 189.21237182617188"/>
    <path stroke-width="0" fill="rgb(54, 5, 8)" opacity="0.6442474" stroke="rgb(160, 222, 69)" stroke-opacity="1.0" stroke-linecap="round" stroke-linejoin="round" d="M 365.83746337890625 268.45404052734375 C 373.9264831542969 238.68594360351562 381.314208984375 244.9228515625 339.7351989746094 243.86700439453125 C 342.7673645019531 253.1526336669922 330.5472717285156 280.601806640625 339.6098327636719 216.6534423828125 C 333.03009033203125 200.71096801757812 330.0476989746094 249.87391662597656 338.6353759765625 251.94769287109375 C 387.0904235839844 222.35536193847656 364.9493103027344 184.74745178222656 365.83746337890625 268.45404052734375"/>
    <path stroke-width="0" fill="rgb(60, 21, 44)" opacity="0.95832247" stroke="rgb(47, 242, 175)" stroke-opacity="1.0" stroke-linecap="round" stroke-linejoin="round" d="M 360.1383056640625 308.298583984375 C 370.8729553222656 352.7190246582031 393.9670715332031 253.6131591796875 381.1510314941406 334.20306396484375 C 343.63897705078125 303.6454772949219 364.9864807128906 245.38621520996094 327.59295654296875 299.9895935058594 C 376.8356018066406 251.9070281982422 344.94732666015625 284.1588134765625 353.3221130371094 300.0397644042969 C 372.80584716796875 267.1973571777344 337.8330383300781 275.853515625 360.1383056640625 308.298583984375"/>
    <path stroke-width="0" fill="rgb(5, 15, -12)" opacity="0.80819744" stroke="rgb(241, 186, 64)" stroke-opacity="1.0" stroke-linecap="round" stroke-linejoin="round" d="M 358.6905212402344 300.8990173339844 C 332.4042053222656 288.91583251953125 381.52349853515625 281.4228820800781 349.0099182128906 287.62628173828125 C 360.3094177246094 275.62890625 355.4879455566406 245.77645874023438 352.9909973144531 271.6006774902344 C 372.708251953125 273.8011169433594 366.6050109863281 248.61119079589844 345.1468505859375 297.7339782714844 C 368.9737548828125 286.7294921875 341.5604553222656 302.26300048828125 358.6905212402344 300.8990173339844"/>
    <path stroke-width="0" fill="rgb(253, 254, 269)" opacity="1.085613" stroke="rgb(132, 6, 52)" stroke-opacity="1.0" stroke-linecap="round" stroke-linejoin="round" d="M 366.78955078125 314.22540283203125 C 332.4007263183594 321.0142822265625 381.6342468261719 329.843994140625 381.35296630859375 316.8634338378906 C 349.5852355957031 315.8963317871094 373.8700256347656 295.343994140625 373.18231201171875 320.44256591796875 C 371.6722717285156 343.0840148925781 399.6694030761719 326.153076171875 370.7252197265625 327.83721923828125 C 393.14520263671875 313.8028564453125 377.55560302734375 356.1468200683594 366.78955078125 314.22540283203125"/>
    <path stroke-width="0" fill="rgb(8, -1, -7)" opacity="0.625554" stroke="rgb(220, 29, 131)" stroke-opacity="1.0" stroke-linecap="round" stroke-linejoin="round" d="M 353.1307067871094 362.8802795410156 C 374.0939636230469 373.7425231933594 353.4881286621094 341.7613220214844 365.7004699707031 344.8388977050781 C 336.40716552734375 429.8489990234375 348.0982360839844 368.5626525878906 367.79669189453125 394.2945556640625 C 349.187255859375 400.4422912597656 379.3972473144531 417.4169616699219 364.37799072265625 371.1359558105469 C 346.3539123535156 441.2442932128906 354.0077819824219 339.7873840332031 353.1307067871094 362.8802795410156"/>
    <path stroke-width="0" fill="rgb(252, 238, 265)" opacity="1.0325662" stroke="rgb(182, 100, 144)" stroke-opacity="1.0" stroke-linecap="round" stroke-linejoin="round" d="M 351.06121826171875 375.7688903808594 C 309.9591064453125 370.33563232421875 313.2403564453125 425.1423034667969 343.85528564453125 394.63946533203125 C 331.5536193847656 371.8713073730469 339.6661682128906 358.74188232421875 344.4768981933594 372.310302734375 C 295.3431091308594 343.02301025390625 362.6275329589844 346.2853698730469 321.67919921875 384.4759521484375 C 333.9234313964844 350.1232604980469 312.3243408203125 360.450927734375 351.06121826171875 375.7688903808594"/>
    <path stroke-width="0" fill="rgb(27, 20, 5)" opacity="0.7243875" stroke="rgb(195, 190, 230)" stroke-opacity="1.0" stroke-linecap="round" stroke-linejoin="round" d="M 319.0345153808594 398.4043884277344 C 319.5185546875 397.7820129394531 311.3786315917969 412.5243225097656 349.31439208984375 431.99066162109375 C 294.6688537597656 398.92626953125 334.4399719238281 427.782958984375 298.21026611328125 468.521728515625 C 326.7579345703125 356.356689453125 352.9049987792969 413.556884765625 317.0770263671875 376.99066162109375 C 344.7182922363281 425.0997619628906 357.97711181640625 383.3177795410156 319.0345153808594 398.4043884277344"/>
    <path stroke-width="0" fill="rgb(21, 46, 55)" opacity="0.7651617" stroke="rgb(140, 149, 245)" stroke-opacity="1.0" stroke-linecap="round" stroke-linejoin="round" d="M 356.51806640625 327.0422058105469 C 332.12298583984375 370.19610595703125 371.1947937011719 314.2483825683594 336.7008361816406 344.84368896484375 C 321.4599914550781 358.2342529296875 364.1444396972656 269.7488708496094 329.0258483886719 336.0297546386719 C 320.3564758300781 352.77691650390625 329.7797546386719 338.1734619140625 328.2484130859375 334.797119140625 C 321.91607666015625 336.167724609375 314.71417236328125 333.9167175292969 356.51806640625 327.0422058105469"/>
    <path stroke-width="0" fill="rgb(69, 33, 33)" opacity="0.4821392" stroke="rgb(16, 123, 249)" stroke-opacity="1.0" stroke-linecap="round" stroke-linejoin="round" d="M 305.3165588378906 419.0885925292969 C 332.11712646484375 406.6990966796875 272.7230529785156 450.70233154296875 316.6346740722656 426.97064208984375 C 317.4744873046875 460.5075378417969 323.3023986816406 445.1631774902344 305.0697021484375 452.7658386230469 C 325.29205322265625 435.6629638671875 346.6708679199219 421.0279541015625 316.2757873535156 444.849853515625 C 353.48992919921875 370.6123046875 320.8843078613281 424.9752502441406 305.3165588378906 419.0885925292969"/>
    <path stroke-width="0" fill="rgb(272, 261, 286)" opacity="0.84160775" stroke="rgb(86, 245, 59)" stroke-opacity="1.0" stroke-linecap="round" stroke-linejoin="round" d="M 331.3701477050781 287.9296569824219 C 347.16943359375 285.51702880859375 324.6626281738281 289.1284484863281 366.6023254394531 279.58416748046875 C 330.91717529296875 297.5819091796875 334.45587158203125 258.8190612792969 330.48828125 294.496337890625 C 355.0267028808594 285.6398620605469 359.6146545410156 276.5602111816406 348.08203125 294.26373291015625 C 314.9297180175781 273.6104431152344 372.4596862792969 311.8115234375 331.3701477050781 287.9296569824219"/>
    <path stroke-width="0" fill="rgb(86, 97, 46)" opacity="0.5686731" stroke="rgb(240, 203, 160)" stroke-opacity="1.0" stroke-linecap="round" stroke-linejoin="round" d="M 357.9699401855469 279.09661865234375 C 342.02264404296875 278.06890869140625 386.233154296875 299.9566955566406 377.0706481933594 265.2676086425781 C 365.9594421386719 278.8826904296875 376.1560363769531 279.7567138671875 372.27801513671875 294.2412109375 C 364.254638671875 267.08050537109375 399.6520690917969 283.8981628417969 356.22100830078125 287.1347351074219 C 355.0655212402344 296.5355529785156 349.1874694824219 295.47686767578125 357.9699401855469 279.09661865234375"/>
    <path stroke-width="0" fill="rgb(8, -18, 12)" opacity="0.4706771" stroke="rgb(74, 216, 157)" stroke-opacity="1.0" stroke-linecap="round" stroke-linejoin="round" d="M 365.3205261230469 420.7265625 C 375.94818115234375 411.5057067871094 371.8662414550781 405.312255859375 366.2987976074219 418.375244140625 C 376.4800720214844 401.7928771972656 363.3052978515625 350.7912292480469 364.5589904785156 413.95880126953125 C 332.8419494628906 354.1345520019531 348.5180969238281 392.9483642578125 348.05999755859375 384.0692443847656 C 364.4137878417969 404.16357421875 352.9331359863281 401.08673095703125 365.3205261230469 420.7265625"/>
    <path stroke-width="0" fill="rgb(48, -23, 0)" opacity="0.8617648" stroke="rgb(126, 163, 93)" stroke-opacity="1.0" stroke-linecap="round" stroke-linejoin="round" d="M 364.6709899902344 109.86121368408203 C 355.6648864746094 91.624267578125 352.7278747558594 87.0003433227539 341.9942932128906 85.04742431640625 C 372.8616943359375 119.801513671875 322.7171936035156 85.81968688964844 357.3750305175781 112.95146179199219 C 383.9998474121094 91.12905883789062 350.515869140625 94.47522735595703 349.8086853027344 103.14518737792969 C 349.3229675292969 105.28804016113281 331.9503479003906 97.58953094482422 364.6709899902344 109.86121368408203"/>
    <path stroke-width="0" fill="rgb(135, 81, 58)" opacity="0.7411642" stroke="rgb(24, 219, 248)" stroke-opacity="1.0" stroke-linecap="round" stroke-linejoin="round" d="M 360.4217529296875 432.91241455078125 C 367.1188659667969 373.2695617675781 382.4269104003906 412.64898681640625 353.90899658203125 375.8070983886719 C 368.2813415527344 404.8609619140625 371.5422668457031 363.6802978515625 361.752197265625 350.0657043457031 C 384.99700927734375 407.2414855957031 393.2429504394531 352.8052062988281 360.78985595703125 368.5812072753906 C 381.5104064941406 397.32232666015625 360.6081237792969 419.08154296875 360.4217529296875 432.91241455078125"/>
    <path stroke-width="0" fill="rgb(259, 285, 271)" opacity="0.8805119" stroke="rgb(231, 197, 84)" stroke-opacity="1.0" stroke-linecap="round" stroke-linejoin="round" d="M 355.5932922363281 220.98941040039062 C 367.25921630859375 245.17433166503906 381.5391845703125 219.73631286621094 364.09185791015625 222.0345001220703 C 401.6562194824219 211.26434326171875 353.8523864746094 249.81625366210938 372.1859130859375 238.67149353027344 C 361.4642028808594 249.27711486816406 364.5522155761719 257.4295959472656 364.4666748046875 203.5709228515625 C 395.5622863769531 244.4995880126953 355.5111999511719 251.95050048828125 355.5932922363281 220.98941040039062"/>
    <path stroke-width="0" fill="rgb(190, 174, 154)" opacity="0.7006156" stroke="rgb(103, 59, 33)" stroke-opacity="1.0" stroke-linecap="round" stroke-linejoin="round" d="M 369.03924560546875 367.322021484375 C 383.147216796875 348.12799072265625 392.5159912109375 338.01416015625 361.4117736816406 349.79296875 C 370.6996154785156 329.1714172363281 384.0822448730469 345.41448974609375 410.3620910644531 364.94000244140625 C 386.39349365234375 351.23828125 373.062255859375 330.7559814453125 358.92633056640625 361.0888366699219 C 373.80767822265625 394.7769775390625 363.08612060546875 405.1369934082031 369.03924560546875 367.322021484375"/>
    <path stroke-width="0" fill="rgb(115, 119, 123)" opacity="0.74712944" stroke="rgb(107, 142, 219)" stroke-opacity="1.0" stroke-linecap="round" stroke-linejoin="round" d="M 388.0993347167969 347.3163146972656 C 402.472900390625 380.40545654296875 418.2471923828125 424.7823181152344 425.0529479980469 412.5850830078125 C 427.0360412597656 409.90057373046875 412.6295166015625 442.260498046875 412.65142822265625 395.8348083496094 C 417.7800598144531 420.973876953125 438.0434875488281 408.8516845703125 400.2563781738281 408.5311279296875 C 407.76898193359375 391.9862365722656 417.93353271484375 414.5712890625 388.0993347167969 347.3163146972656"/>
    <path stroke-width="0" fill="rgb(111, 78, 95)" opacity="0.4880448" stroke="rgb(68, 33, 14)" stroke-opacity="1.0" stroke-linecap="round" stroke-linejoin="round" d="M 353.2486267089844 311.49029541015625 C 356.0686950683594 321.9294738769531 333.21942138671875 286.9756164550781 354.2434997558594 326.96759033203125 C 365.0337829589844 335.89630126953125 360.1224365234375 296.58465576171875 387.04254150390625 337.9324645996094 C 387.685302734375 330.2242126464844 382.0579528808594 331.4854431152344 393.546875 331.4169616699219 C 358.50311279296875 313.3804016113281 361.10504150390625 321.08184814453125 353.2486267089844 311.49029541015625"/>
    <path stroke-width="0" fill="rgb(167, 173, 178)" opacity="0.6647185" stroke="rgb(66, 116, 174)" stroke-opacity="1.0" stroke-linecap="round" stroke-linejoin="round" d="M 371.1158447265625 405.6331787109375 C 385.8429870605469 376.9888916015625 346.297607421875 378.39349365234375 356.5022888183594 389.8109130859375 C 333.9844970703125 396.80419921875 352.4744567871094 422.9166564941406 314.7235412597656 372.97308349609375 C 335.20489501953125 397.02655029296875 332.25994873046875 417.8826599121094 368.8343505859375 376.60546875 C 360.23748779296875 378.6205749511719 378.71722412109375 379.251953125 371.1158447265625 405.6331787109375"/>
    <path stroke-width="0" fill="rgb(45, 86, 51)" opacity="0.7801883" stroke="rgb(72, 96, 46)" stroke-opacity="1.0" stroke-linecap="round" stroke-linejoin="round" d="M 368.73651123046875 433.69586181640625 C 378.0718994140625 429.29071044921875 370.82470703125 400.02386474609375 410.0014343261719 428.1336669921875 C 378.6587829589844 406.0749206542969 382.8004455566406 396.9599609375 381.5777893066406 437.73004150390625 C 392.0168762207031 374.1529235839844 385.45831298828125 418.2142333984375 367.5810852050781 419.0893859863281 C 362.4657897949219 396.3182678222656 392.4920959472656 446.31671142578125 368.73651123046875 433.69586181640625"/>
    <path stroke-width="0" fill="rgb(213, 248, 221)" opacity="0.89873433" stroke="rgb(66, 95, 149)" stroke-opacity="1.0" stroke-linecap="round" stroke-linejoin="round" d="M 336.3276062011719 323.3597412109375 C 322.1459655761719 297.6036682128906 331.06707763671875 325.9935607910156 329.0125732421875 340.7247009277344 C 364.1368103027344 313.4372863769531 360.7908935546875 337.8437194824219 350.4936828613281 326.00970458984375 C 345.6913757324219 380.4425354003906 318.9776306152344 319.1552734375 334.8443603515625 327.76318359375 C 351.97705078125 317.2868957519531 334.87872314453125 349.9383544921875 336.3276062011719 323.3597412109375"/>
    <path stroke-width="0" fill="rgb(224, 220, 232)" opacity="0.9321569" stroke="rgb(203, 19, 132)" stroke-opacity="1.0" stroke-linecap="round" stroke-linejoin="round" d="M 331.8542785644531 90.50641632080078 C 329.77716064453125 113.7116928100586 358.716064453125 91.41507720947266 376.24456787109375 111.60860443115234 C 367.3859558105469 114.6505126953125 351.98919677734375 88.31099700927734 370.0122985839844 89.0684814453125 C 325.9432678222656 103.1916275024414 340.7449645996094 74.1626205444336 343.8708801269531 106.9914321899414 C 347.96478271484375 100.80859375 345.5279541015625 87.23028564453125 331.8542785644531 90.50641632080078"/>
    <path stroke-width="0" fill="rgb(111, 129, 104)" opacity="0.29521847" stroke="rgb(147, 244, 164)" stroke-opacity="1.0" stroke-linecap="round" stroke-linejoin="round" d="M 329.39691162109375 106.73719787597656 C 379.5173645019531 98.88160705566406 400.1577453613281 80.18132019042969 351.2691955566406 71.69316101074219 C 396.6671447753906 84.87125396728516 389.3360900878906 88.38310241699219 398.6431579589844 116.07964324951172 C 370.39422607421875 142.51654052734375 365.2814636230469 85.6337890625 358.69976806640625 88.0826644897461 C 385.28912353515625 103.34558868408203 410.09637451171875 105.06958770751953 329.39691162109375 106.73719787597656"/>
    <path stroke-width="0" fill="rgb(187, 196, 179)" opacity="0.45835993" stroke="rgb(109, 130, 136)" stroke-opacity="1.0" stroke-linecap="round" stroke-linejoin="round" d="M 364.17529296875 282.6109619140625 C 394.083984375 270.8874816894531 369.3229064941406 284.1053466796875 376.4872131347656 278.857666015625 C 391.59033203125 279.0879821777344 352.35638427734375 277.1437683105469 380.13238525390625 284.3070983886719 C 338.963134765625 296.65911865234375 346.01336669921875 257.3598327636719 338.7974853515625 271.3676452636719 C 359.45147705078125 274.5306396484375 325.57330322265625 278.1929016113281 364.17529296875 282.6109619140625"/>
    <path stroke-width="0" fill="rgb(65, 9, 35)" opacity="0.9611649" stroke="rgb(47, 230, 138)" stroke-opacity="1.0" stroke-linecap="round" stroke-linejoin="round" d="M 381.1841125488281 490.20574951171875 C 421.226806640625 478.8157653808594 388.9128112792969 479.05694580078125 427.16204833984375 487.2005920410156 C 416.7029724121094 479.7900085449219 427.8563537597656 457.663818359375 414.4032287597656 491.26812744140625 C 410.0845031738281 492.6285400390625 387.3250732421875 543.3470458984375 421.1438293457031 488.5855407714844 C 408.7666320800781 496.8653259277344 428.91888427734375 470.3258056640625 381.1841125488281 490.20574951171875"/>
    <path stroke-width="0" fill="rgb(142, 103, 140)" opacity="0.2774452" stroke="rgb(224, 116, 184)" stroke-opacity="1.0" stroke-linecap="round" stroke-linejoin="round" d="M 367.4617919921875 112.38845825195312 C 401.8689880371094 109.58084869384766 376.4241638183594 107.43305206298828 362.4874267578125 88.62326049804688 C 358.5194396972656 116.72595977783203 366.05572509765625 127.1657943725586 390.8287048339844 90.87528228759766 C 374.6244201660156 111.99687957763672 344.30157470703125 83.42630767822266 317.2424621582031 135.93386840820312 C 333.7718811035156 100.2754898071289 350.5950622558594 104.84346008300781 367.4617919921875 112.38845825195312"/>
    <path stroke-width="0" fill="rgb(106, 132, 143)" opacity="0.35620993" stroke="rgb(230, 175, 178)" stroke-opacity="1.0" stroke-linecap="round" stroke-linejoin="round" d="M 395.53668212890625 96.52770233154297 C 400.55828857421875 53.4454231262207 397.92303466796875 71.51747131347656 389.2655334472656 96.27196502685547 C 387.23858642578125 97.04364776611328 409.97015380859375 96.90385437011719 401.7874450683594 89.52257537841797 C 368.3646240234375 123.61578369140625 330.3849182128906 95.15939331054688 321.0653076171875 97.6685562133789 C 343.8830871582031 119.90624237060547 348.63983154296875 89.91481018066406 395.53668212890625 96.52770233154297"/>
    <path stroke-width="0" fill="rgb(225, 197, 224)" opacity="0.8722356" stroke="rgb(192, 162, 61)" stroke-opacity="1.0" stroke-linecap="round" stroke-linejoin="round" d="M 357.40826416015625 345.5771484375 C 371.7405700683594 319.4699401855469 351.6368713378906 330.33746337890625 356.63970947265625 333.40740966796875 C 375.04595947265625 338.2789611816406 362.74591064453125 334.927978515625 353.9213562011719 319.1649475097656 C 352.76611328125 345.6663513183594 370.0444030761719 335.9450988769531 364.70245361328125 333.5347900390625 C 389.9310302734375 327.70147705078125 392.2379455566406 314.8034973144531 357.40826416015625 345.5771484375"/>
    <path stroke-width="0" fill="rgb(220, 209, 231)" opacity="0.6317641" stroke="rgb(203, 244, 116)" stroke-opacity="1.0" stroke-linecap="round" stroke-linejoin="round" d="M 393.434326171875 401.8165283203125 C 435.8506164550781 418.73992919921875 412.8929748535156 407.772705078125 394.4954528808594 396.4512634277344 C 390.7769470214844 436.5304260253906 399.7907409667969 446.7364807128906 356.0440673828125 407.3207702636719 C 349.2937316894531 353.7199401855469 324.05859375 395.1114196777344 386.5213623046875 430.9786376953125 C 398.6741027832031 389.4176330566406 406.352294921875 384.1412658691406 393.434326171875 401.8165283203125"/>
    <path stroke-width="0" fill="rgb(123, 125, 123)" opacity="0.89333194" stroke="rgb(209, 231, 207)" stroke-opacity="1.0" stroke-linecap="round" stroke-linejoin="round" d="M 366.07110595703125 -10.313698768615723 C 358.10107421875 -8.817402839660645 352.18414306640625 -1.461106300354004 369.2245178222656 -3.4766533374786377 C 387.265625 -7.575571537017822 377.2897033691406 -18.447284698486328 367.5125427246094 -32.20763397216797 C 357.3088073730469 10.338201522827148 353.7659606933594 6.857427597045898 346.7136535644531 -32.64646530151367 C 374.9783630371094 -16.048751831054688 375.07598876953125 -11.324017524719238 366.07110595703125 -10.313698768615723"/>
    <path stroke-width="0" fill="rgb(15, 33, 49)" opacity="0.45248774" stroke="rgb(160, 101, 15)" stroke-opacity="1.0" stroke-linecap="round" stroke-linejoin="round" d="M 343.6493225097656 111.12368774414062 C 340.0277404785156 98.64469146728516 346.4910583496094 118.1854248046875 353.22625732421875 102.5020980834961 C 368.28857421875 87.87291717529297 372.0556945800781 95.77741241455078 364.0351867675781 101.34098815917969 C 353.5825500488281 93.08617401123047 329.28363037109375 52.43778610229492 361.16668701171875 64.21211242675781 C 331.35467529296875 96.35305786132812 372.14599609375 127.54837799072266 343.6493225097656 111.12368774414062"/>
    <path stroke-width="0" fill="rgb(118, 123, 128)" opacity="0.71651137" stroke="rgb(65, 216, 8)" stroke-opacity="1.0" stroke-linecap="round" stroke-linejoin="round" d="M 345.83355712890625 15.17555046081543 C 350.0357360839844 1.4581314325332642 343.8393859863281 19.447744369506836 346.1694641113281 13.548300743103027 C 355.14788818359375 11.379554748535156 343.64404296875 13.110483169555664 351.7181396484375 10.699825286865234 C 352.28424072265625 17.681961059570312 340.58673095703125 27.507171630859375 348.5228576660156 9.945671081542969 C 343.8786926269531 25.594907760620117 349.3380432128906 20.30702781677246 345.83355712890625 15.17555046081543"/>
    <path stroke-width="0" fill="rgb(118, 116, 127)" opacity="0.7236541" stroke="rgb(102, 236, 25)" stroke-opacity="1.0" stroke-linecap="round" stroke-linejoin="round" d="M 328.3681335449219 444.93389892578125 C 352.3145751953125 478.6105041503906 349.00616455078125 462.0638732910156 315.6808166503906 409.77935791015625 C 356.1434631347656 449.90582275390625 300.2730407714844 393.5917053222656 316.6313781738281 430.3569641113281 C 297.43377685546875 456.7945861816406 317.8427734375 429.7894287109375 330.4142150878906 434.7651062011719 C 351.1850280761719 401.4449462890625 343.25390625 426.3660888671875 328.3681335449219 444.93389892578125"/>
    <path stroke-width="0" fill="rgb(110, 68, 106)" opacity="0.36807203" stroke="rgb(17, 64, 56)" stroke-opacity="1.0" stroke-linecap="round" stroke-linejoin="round" d="M 376.9719543457031 73.99742126464844 C 386.8671569824219 70.49591064453125 363.8117370605469 101.65400695800781 397.2217102050781 110.70925903320312 C 376.4930419921875 105.21090698242188 359.0956115722656 73.57551574707031 376.73089599609375 116.27766418457031 C 356.0114440917969 88.023681640625 361.7598876953125 80.44954681396484 369.03515625 97.43695831298828 C 318.6284484863281 91.83714294433594 390.9523010253906 114.32469177246094 376.9719543457031 73.99742126464844"/>
    <path stroke-width="0" fill="rgb(0, 21, 48)" opacity="1.1635945" stroke="rgb(162, 125, 252)" stroke-opacity="1.0" stroke-linecap="round" stroke-linejoin="round" d="M 366.054443359375 119.74510955810547 C 376.8262634277344 86.88655090332031 371.0007019042969 120.5726547241211 363.8813781738281 89.3852767944336 C 354.5890197753906 74.96727752685547 345.2658996582031 129.76377868652344 348.8754577636719 115.34456634521484 C 343.74322509765625 76.19601440429688 339.52154541015625 71.79073333740234 341.3285827636719 115.87360382080078 C 374.45733642578125 77.88685607910156 374.42706298828125 74.0983657836914 366.054443359375 119.74510955810547"/>
    <path stroke-width="0" fill="rgb(23, 1, 9)" opacity="0.5126371" stroke="rgb(199, 73, 61)" stroke-opacity="1.0" stroke-linecap="round" stroke-linejoin="round" d="M 316.8225402832031 457.3662109375 C 358.8045349121094 477.6046447753906 304.71636962890625 469.44287109375 358.03118896484375 460.552001953125 C 347.2745666503906 439.2731628417969 341.71600341796875 470.05108642578125 352.69342041015625 472.77362060546875 C 341.88397216796875 460.90338134765625 310.222900390625 419.2867126464844 327.15771484375 454.8893737792969 C 352.6267395019531 440.8642578125 331.5003967285156 472.8832092285156 316.8225402832031 457.3662109375"/>
    <path stroke-width="0" fill="rgb(59, 31, 66)" opacity="0.8229425" stroke="rgb(62, 169, 131)" stroke-opacity="1.0" stroke-linecap="round" stroke-linejoin="round" d="M 302.0843505859375 450.9585876464844 C 313.9361572265625 475.0976867675781 328.4061584472656 461.8518981933594 334.3335266113281 429.30023193359375 C 335.1210632324219 466.1684265136719 287.8980407714844 459.92071533203125 286.0633850097656 502.30877685546875 C 306.9978942871094 457.6214904785156 311.41436767578125 458.60308837890625 321.6578369140625 449.5661926269531 C 326.8416748046875 432.3075256347656 308.0268859863281 465.6868896484375 302.0843505859375 450.9585876464844"/>
    <path stroke-width="0" fill="rgb(190, 167, 173)" opacity="0.72042394" stroke="rgb(141, 73, 180)" stroke-opacity="1.0" stroke-linecap="round" stroke-linejoin="round" d="M 329.4004821777344 438.4850769042969 C 335.1798400878906 471.9281311035156 314.55096435546875 464.306640625 326.68609619140625 447.7173156738281 C 328.49639892578125 483.4440002441406 333.2596435546875 446.31427001953125 304.9066467285156 456.58770751953125 C 319.97564697265625 481.4815368652344 299.08258056640625 423.9640197753906 323.4425354003906 451.0135498046875 C 297.4572448730469 471.0130310058594 339.69085693359375 461.8924560546875 329.4004821777344 438.4850769042969"/>
    <path stroke-width="0" fill="rgb(113, 129, 130)" opacity="0.29218298" stroke="rgb(91, 211, 235)" stroke-opacity="1.0" stroke-linecap="round" stroke-linejoin="round" d="M 395.542236328125 74.23676300048828 C 355.24810791015625 81.1747055053711 341.1539001464844 76.5495834350586 357.1965637207031 115.6443862915039 C 357.67449951171875 88.30854034423828 348.3111877441406 77.9030532836914 350.1189880371094 99.39372253417969 C 348.70574951171875 72.78303527832031 369.4317626953125 79.83527374267578 396.7023010253906 71.10060119628906 C 383.1905517578125 35.81374740600586 380.59197998046875 42.78297805786133 395.542236328125 74.23676300048828"/>
    <path stroke-width="0" fill="rgb(148, 108, 123)" opacity="0.24820763" stroke="rgb(59, 88, 207)" stroke-opacity="1.0" stroke-linecap="round" stroke-linejoin="round" d="M 375.6692199707031 133.61834716796875 C 358.22894287109375 132.21676635742188 351.4557189941406 110.75257873535156 334.9918212890625 104.2002182006836 C 362.15277099609375 92.04940795898438 373.2667541503906 84.60606384277344 363.9246520996094 106.77045440673828 C 335.32415771484375 112.55754852294922 348.1629333496094 141.235107421875 347.1211242675781 103.87073516845703 C 327.717041015625 92.1419906616211 346.8582458496094 118.53971099853516 375.6692199707031 133.61834716796875"/>
    <path stroke-width="0" fill="rgb(278, 321, 296)" opacity="0.60392976" stroke="rgb(63, 27, 242)" stroke-opacity="1.0" stroke-linecap="round" stroke-linejoin="round" d="M 343.25201416015625 103.28031158447266 C 336.1936340332031 70.44115447998047 332.07452392578125 85.08909606933594 331.2033386230469 96.31135559082031 C 368.5647888183594 103.04310607910156 364.49188232421875 80.41940307617188 364.9088134765625 79.43844604492188 C 306.47247314453125 84.4940414428711 332.6859130859375 75.93959045410156 363.0357971191406 91.51609802246094 C 343.3685607910156 66.5784912109375 351.75982666015625 101.18992614746094 343.25201416015625 103.28031158447266"/>
    <path stroke-width="0" fill="rgb(229, 277, 259)" opacity="0.40043688" stroke="rgb(175, 14, 186)" stroke-opacity="1.0" stroke-linecap="round" stroke-linejoin="round" d="M 349.5613708496094 75.8527603149414 C 372.9806213378906 69.60875701904297 375.1506042480469 119.86526489257812 339.42523193359375 90.59893798828125 C 331.010986328125 77.84021759033203 339.1588439941406 123.27241516113281 332.7623291015625 93.36587524414062 C 328.8485107421875 99.22079467773438 379.6661682128906 86.12037658691406 358.5888977050781 87.61720275878906 C 367.8501892089844 83.44005584716797 372.626953125 73.79793548583984 349.5613708496094 75.8527603149414"/>
    <path stroke-width="0" fill="rgb(37, 69, 38)" opacity="0.81221515" stroke="rgb(69, 96, 95)" stroke-opacity="1.0" stroke-linecap="round" stroke-linejoin="round" d="M 353.86419677734375 480.1525573730469 C 406.7079772949219 499.7118835449219 377.8160095214844 441.7086181640625 413.0121154785156 451.3407897949219 C 383.0883483886719 451.8953552246094 399.55322265625 450.8146667480469 392.88665771484375 464.2480773925781 C 385.975341796875 483.5043029785156 390.2987976074219 465.6612854003906 387.4842834472656 467.30401611328125 C 362.4451599121094 468.6739501953125 401.2479553222656 487.23468017578125 353.86419677734375 480.1525573730469"/>
    <path stroke-width="0" fill="rgb(102, 133, 150)" opacity="0.11989932" stroke="rgb(213, 60, 128)" stroke-opacity="1.0" stroke-linecap="round" stroke-linejoin="round" d="M 357.34600830078125 122.28697204589844 C 350.9240417480469 108.6760025024414 342.62420654296875 127.62051391601562 331.3453063964844 136.79380798339844 C 348.9401550292969 107.86578369140625 366.6153259277344 99.34858703613281 345.09088134765625 121.0270767211914 C 365.019775390625 106.71809387207031 376.54571533203125 111.50225830078125 329.8013916015625 127.44801330566406 C 348.84503173828125 112.49225616455078 352.1858825683594 113.73017120361328 357.34600830078125 122.28697204589844"/>
    <path stroke-width="0" fill="rgb(40, 72, 86)" opacity="0.8568205" stroke="rgb(161, 221, 239)" stroke-opacity="1.0" stroke-linecap="round" stroke-linejoin="round" d="M 360.5487976074219 87.08917236328125 C 341.30230712890625 139.3062744140625 336.8497314453125 174.06895446777344 349.6313171386719 132.83901977539062 C 341.8718566894531 138.43775939941406 349.51971435546875 112.46930694580078 332.166015625 128.27146911621094 C 346.1943664550781 121.59423065185547 362.7892150878906 109.76212310791016 341.96875 101.33826446533203 C 384.50250244140625 105.43612670898438 352.4823303222656 108.00914001464844 360.5487976074219 87.08917236328125"/>
    <path stroke-width="0" fill="rgb(106, 129, 115)" opacity="0.3879554" stroke="rgb(178, 246, 253)" stroke-opacity="1.0" stroke-linecap="round" stroke-linejoin="round" d="M 396.322265625 71.70394134521484 C 415.43988037109375 80.57768249511719 307.542724609375 76.82899475097656 322.446044921875 72.5636978149414 C 315.9925842285156 101.99500274658203 311.0262451171875 102.53636169433594 312.3370056152344 90.2268295288086 C 311.9892883300781 65.6412353515625 295.0939025878906 96.5931167602539 355.5548400878906 66.96012878417969 C 352.1893615722656 50.43832015991211 366.94879150390625 92.8819580078125 396.322265625 71.70394134521484"/>
    <path stroke-width="0" fill="rgb(203, 241, 214)" opacity="0.8236143" stroke="rgb(33, 154, 97)" stroke-opacity="1.0" stroke-linecap="round" stroke-linejoin="round" d="M 349.8536376953125 115.38937377929688 C 345.41082763671875 113.46773529052734 348.1824951171875 120.93151092529297 351.1500244140625 93.02704620361328 C 360.7818908691406 139.03501892089844 325.1180419921875 129.4977264404297 357.3876647949219 114.69343566894531 C 358.0308532714844 122.39041137695312 337.2142028808594 108.04681396484375 365.75311279296875 120.56954956054688 C 346.16754150390625 103.94265747070312 366.317138671875 117.55438995361328 349.8536376953125 115.38937377929688"/>
    <path stroke-width="0" fill="rgb(28, 33, 44)" opacity="0.805956" stroke="rgb(246, 139, 70)" stroke-opacity="1.0" stroke-linecap="round" stroke-linejoin="round" d="M 335.28326416015625 76.78903198242188 C 351.16021728515625 113.22824096679688 323.8595275878906 85.61036682128906 369.060302734375 91.10772705078125 C 374.1731872558594 77.78740692138672 345.45355224609375 78.8288803100586 317.0078125 85.2966537475586 C 390.6553955078125 83.80457305908203 367.08868408203125 94.76070404052734 370.00689697265625 75.3015365600586 C 346.18060302734375 53.264469146728516 390.8334655761719 82.30426788330078 335.28326416015625 76.78903198242188"/>
    <path stroke-width="0" fill="rgb(212, 226, 200)" opacity="0.910719" stroke="rgb(116, 102, 63)" stroke-opacity="1.0" stroke-linecap="round" stroke-linejoin="round" d="M 316.1346130371094 498.2173156738281 C 289.6878356933594 474.864990234375 296.3861083984375 464.84075927734375 295.215576171875 477.36627197265625 C 313.2412109375 462.9994812011719 289.101806640625 454.5160827636719 313.2563171386719 487.3012390136719 C 271.8880310058594 477.0500793457031 320.59149169921875 485.9956359863281 294.65478515625 475.6405334472656 C 286.2157897949219 470.0968322753906 303.02325439453125 480.3653259277344 316.1346130371094 498.2173156738281"/>
    <path stroke-width="0" fill="rgb(110, 123, 133)" opacity="0.9604025" stroke="rgb(79, 95, 133)" stroke-opacity="1.0" stroke-linecap="round" stroke-linejoin="round" d="M 393.286376953125 112.31982421875 C 374.49090576171875 118.85104370117188 342.80279541015625 103.44984436035156 323.6473083496094 133.6232452392578 C 375.41204833984375 142.02867126464844 353.4046936035156 150.09664916992188 331.8392028808594 125.47059631347656 C 337.0948791503906 135.2335968017578 341.7514953613281 119.15267181396484 352.23968505859375 100.3253402709961 C 327.7403564453125 112.46633911132812 349.9709777832031 114.41264343261719 393.286376953125 112.31982421875"/>
    <path stroke-width="0" fill="rgb(70, 59, 115)" opacity="0.66841096" stroke="rgb(85, 235, 219)" stroke-opacity="1.0" stroke-linecap="round" stroke-linejoin="round" d="M 369.9879150390625 108.4374008178711 C 349.7319030761719 111.90747833251953 379.423583984375 99.77163696289062 371.4597473144531 117.15758514404297 C 382.8323974609375 119.26295471191406 352.5623779296875 110.46603393554688 352.49066162109375 127.37049865722656 C 324.411865234375 124.065673828125 344.0888977050781 111.2373046875 359.3799133300781 154.5598602294922 C 326.3748474121094 105.17388153076172 363.3863220214844 138.20242309570312 369.9879150390625 108.4374008178711"/>
    <path stroke-width="0" fill="rgb(115, 117, 131)" opacity="0.74111164" stroke="rgb(64, 113, 26)" stroke-opacity="1.0" stroke-linecap="round" stroke-linejoin="round" d="M 368.6296081542969 102.03681945800781 C 379.6032409667969 145.22142028808594 429.0361328125 85.33909606933594 338.9999694824219 103.74409484863281 C 356.7441711425781 67.14909362792969 291.2763977050781 88.83553314208984 319.1653747558594 76.96842956542969 C 312.5009765625 66.35283660888672 328.4488220214844 83.49966430664062 307.56243896484375 96.1488037109375 C 363.1003112792969 68.35482788085938 344.2364501953125 104.33451843261719 368.6296081542969 102.03681945800781"/>
    <path stroke-width="0" fill="rgb(158, 120, 147)" opacity="0.75882035" stroke="rgb(0, 0, 0)" stroke-opacity="0.0" stroke-linecap="round" stroke-linejoin="round" d="M 493.1268310546875 1.1769447326660156 C 493.62750244140625 4.303644180297852 488.3337707519531 5.370791435241699 484.47412109375 4.8821868896484375 C 480.80999755859375 6.818454742431641 475.9772033691406 5.730143070220947 476.573486328125 2.9626150131225586 C 481.83587646484375 0.038329966366291046 484.29412841796875 -3.5849075317382812 486.4073791503906 -6.171785354614258 C 489.9027404785156 -5.562613010406494 493.4541015625 -3.009575128555298 493.1268310546875 1.1769447326660156"/>
    <path stroke-width="0" fill="rgb(186, 144, 150)" opacity="0.65188366" stroke="rgb(0, 0, 0)" stroke-opacity="0.0" stroke-linecap="round" stroke-linejoin="round" d="M 227.24856567382812 16.4062442779541 C 226.31210327148438 22.04073143005371 223.92315673828125 24.884464263916016 219.6750946044922 25.226673126220703 C 215.44322204589844 24.91769790649414 213.2369384765625 23.07379913330078 213.1561737060547 15.613086700439453 C 212.6298370361328 13.900307655334473 215.7291717529297 10.58813190460205 220.257080078125 8.778380393981934 C 225.81411743164062 9.581719398498535 227.96554565429688 12.953672409057617 227.24856567382812 16.4062442779541"/>
    <path stroke-width="0" fill="rgb(166, 167, 176)" opacity="0.5316605" stroke="rgb(0, 0, 0)" stroke-opacity="0.0" stroke-linecap="round" stroke-linejoin="round" d="M 62.74333572387695 -6.2895026206970215 C 60.869041442871094 1.1387218236923218 61.28036880493164 6.689369201660156 58.44549560546875 7.783032417297363 C 53.16789627075195 7.670275688171387 52.89128112792969 5.844150066375732 55.67341995239258 0.6246294975280762 C 52.36790466308594 -3.790400505065918 55.73173522949219 -6.625890731811523 59.757266998291016 -7.692533493041992 C 63.75252151489258 -6.619141101837158 66.53036499023438 -3.6091973781585693 62.74333572387695 -6.2895026206970215"/>
    <path stroke-width="0" fill="rgb(202, 98, 115)" opacity="0.71857685" stroke="rgb(0, 0, 0)" stroke-opacity="0.0" stroke-linecap="round" stroke-linejoin="round" d="M 106.87954711914062 7.4772844314575195 C 103.94511413574219 9.777375221252441 103.62650299072266 12.260069847106934 101.80127716064453 11.016764640808105 C 99.27019500732422 14.785655975341797 99.72637939453125 12.288734436035156 100.06474304199219 12.12648868560791 C 100.0775375366211 8.550816535949707 101.41392517089844 5.360692024230957 103.4529037475586 3.887277126312256 C 106.91338348388672 3.139364242553711 109.40338897705078 5.769150733947754 106.87954711914062 7.4772844314575195"/>
    <path stroke-width="0" fill="rgb(170, 188, 192)" opacity="0.24509627" stroke="rgb(0, 0, 0)" stroke-opacity="0.0" stroke-linecap="round" stroke-linejoin="round" d="M 148.1141357421875 13.833505630493164 C 148.3852081298828 18.1633243560791 146.45240783691406 22.375200271606445 140.93988037109375 22.732175827026367 C 136.1478729248047 25.484594345092773 135.8943328857422 23.16182518005371 135.0819854736328 14.89124870300293 C 135.4025115966797 12.358529090881348 139.8120574951172 8.01671314239502 143.47747802734375 8.894914627075195 C 145.86239624023438 9.172691345214844 149.51116943359375 12.901759147644043 148.1141357421875 13.833505630493164"/>
    <path stroke-width="0" fill="rgb(102, 135, 144)" opacity="0.44290832" stroke="rgb(0, 0, 0)" stroke-opacity="0.0" stroke-linecap="round" stroke-linejoin="round" d="M 55.43581771850586 13.659385681152344 C 55.13367462158203 20.5537166595459 54.72709274291992 23.0499210357666 53.5066032409668 19.174901962280273 C 47.5626106262207 17.583166122436523 38.856849670410156 18.469938278198242 39.61329650878906 15.895471572875977 C 39.146827697753906 8.655863761901855 41.64485549926758 7.45998477935791 49.47193908691406 7.238132476806641 C 55.96135711669922 5.14993953704834 57.17365646362305 7.353712558746338 55.43581771850586 13.659385681152344"/>
    <path stroke-width="0" fill="rgb(175, 59, 128)" opacity="0.1418707" stroke="rgb(0, 0, 0)" stroke-opacity="0.0" stroke-linecap="round" stroke-linejoin="round" d="M 187.8891143798828 3.454663038253784 C 187.69931030273438 9.709979057312012 186.22630310058594 14.554430961608887 184.06689453125 18.802831649780273 C 180.9624481201172 14.870758056640625 177.9160919189453 12.20172119140625 177.7073516845703 6.69339656829834 C 175.70855712890625 0.37144750356674194 177.6714630126953 -2.191066026687622 182.5272979736328 -0.8920488357543945 C 189.51522827148438 -0.29830408096313477 191.765625 3.143953323364258 187.8891143798828 3.454663038253784"/>
    <path stroke-width="0" fill="rgb(67, 85, 176)" opacity="0.35860085" stroke="rgb(0, 0, 0)" stroke-opacity="0.0" stroke-linecap="round" stroke-linejoin="round" d="M 472.8979187011719 213.1470489501953 C 471.5221862792969 215.1465606689453 470.25048828125 220.34393310546875 469.2524719238281 220.58155822753906 C 466.2818908691406 220.02767944335938 464.48193359375 218.2358856201172 466.4031066894531 217.47335815429688 C 465.6372985839844 215.49205017089844 467.48992919921875 211.84490966796875 465.5414123535156 208.9446563720703 C 468.3675537109375 212.46031188964844 473.6824645996094 213.68089294433594 472.8979187011719 213.1470489501953"/>
    <path stroke-width="0" fill="rgb(206, 68, 190)" opacity="0.8149426" stroke="rgb(0, 0, 0)" stroke-opacity="0.0" stroke-linecap="round" stroke-linejoin="round" d="M 463.4525146484375 156.31906127929688 C 460.6098327636719 154.1654815673828 457.386962890625 157.4925994873047 454.1761474609375 161.8748321533203 C 456.8760070800781 159.482177734375 457.80059814453125 154.54498291015625 455.49017333984375 157.5272216796875 C 456.49053955078125 156.5542449951172 457.6564636230469 152.9463653564453 456.16717529296875 152.13406372070312 C 455.90679931640625 153.67764282226562 458.5469665527344 155.51124572753906 463.4525146484375 156.31906127929688"/>
    <path stroke-width="0" fill="rgb(92, 109, 119)" opacity="0.1813195" stroke="rgb(0, 0, 0)" stroke-opacity="0.0" stroke-linecap="round" stroke-linejoin="round" d="M 15.918854713439941 181.95628356933594 C 17.730384826660156 187.16616821289062 14.957782745361328 188.64671325683594 6.938263893127441 186.553955078125 C 2.9389383792877197 187.1385955810547 1.4955408573150635 185.81634521484375 2.1792681217193604 177.86163330078125 C -0.4876355826854706 175.7879638671875 6.52653694152832 177.14093017578125 7.188598155975342 176.49258422851562 C 11.20456314086914 178.3872833251953 16.347248077392578 177.9952850341797 15.918854713439941 181.95628356933594"/>
    <path stroke-width="0" fill="rgb(82, 203, 135)" opacity="0.1273806" stroke="rgb(0, 0, 0)" stroke-opacity="0.0" stroke-linecap="round" stroke-linejoin="round" d="M -123.205810546875 105.1214599609375 C -124.2776107788086 109.1214599609375 -127.205810546875 112.04966735839844 -131.205810546875 113.1214599609375 C -135.205810546875 112.04966735839844 -138.13401794433594 109.1214599609375 -139.205810546875 105.1214599609375 C -138.13401794433594 101.1214599609375 -135.205810546875 98.1932601928711 -131.205810546875 97.1214599609375 C -127.205810546875 98.1932601928711 -124.2776107788086 101.1214599609375 -123.205810546875 105.1214599609375"/>
    <path stroke-width="0" fill="rgb(49, 171, 204)" opacity="-0.0007021676" stroke="rgb(0, 0, 0)" stroke-opacity="0.0" stroke-linecap="round" stroke-linejoin="round" d="M 76.1396713256836 447.4145812988281 C 78.16148376464844 450.577392578125 76.58036041259766 452.5681457519531 74.01344299316406 449.3130798339844 C 68.08245086669922 449.03594970703125 61.93765640258789 449.3002624511719 59.85279846191406 446.0972900390625 C 62.57139587402344 440.4007873535156 66.81314849853516 438.7612609863281 70.27347564697266 438.21380615234375 C 72.96232604980469 439.32208251953125 75.4632568359375 442.3065490722656 76.1396713256836 447.4145812988281"/>
    <path stroke-width="0" fill="rgb(112, 121, 177)" opacity="0.4457113" stroke="rgb(0, 0, 0)" stroke-opacity="0.0" stroke-linecap="round" stroke-linejoin="round" d="M 493.5887145996094 142.40322875976562 C 492.8888244628906 144.8346710205078 493.0184631347656 150.90196228027344 491.3445129394531 147.8939208984375 C 485.2022705078125 150.43557739257812 486.2637634277344 148.5808868408203 487.2833557128906 142.07713317871094 C 483.99322509765625 139.1538848876953 488.2161560058594 137.54843139648438 490.60369873046875 138.94097900390625 C 491.9218444824219 138.00936889648438 493.9325866699219 141.30552673339844 493.5887145996094 142.40322875976562"/>
    <path stroke-width="0" fill="rgb(134, 165, 67)" opacity="0.45176986" stroke="rgb(0, 0, 0)" stroke-opacity="0.0" stroke-linecap="round" stroke-linejoin="round" d="M 125.2539291381836 103.05699920654297 C 123.93424987792969 104.81869506835938 121.5477523803711 107.50541687011719 117.61543273925781 109.6771240234375 C 115.60802459716797 107.67695617675781 113.24823760986328 104.89261627197266 113.8616943359375 103.23136138916016 C 112.90699005126953 99.0584716796875 115.93727111816406 96.47261810302734 114.99366760253906 97.02330780029297 C 120.20372009277344 97.57647705078125 123.80110931396484 99.75038146972656 125.2539291381836 103.05699920654297"/>
    <path stroke-width="0" fill="rgb(151, 139, 142)" opacity="0.77860034" stroke="rgb(0, 0, 0)" stroke-opacity="0.0" stroke-linecap="round" stroke-linejoin="round" d="M 333.6808776855469 207.1524658203125 C 335.3775939941406 208.29031372070312 331.9225158691406 210.52989196777344 333.5654602050781 209.6482391357422 C 331.1609802246094 208.74252319335938 326.4828186035156 206.2621307373047 324.69940185546875 204.08847045898438 C 323.5810546875 203.36354064941406 327.7684020996094 202.05386352539062 334.38970947265625 197.2935791015625 C 334.0173645019531 199.55723571777344 332.86114501953125 207.96499633789062 333.6808776855469 207.1524658203125"/>
    <path stroke-width="0" fill="rgb(96, 96, 172)" opacity="0.37751782" stroke="rgb(0, 0, 0)" stroke-opacity="0.0" stroke-linecap="round" stroke-linejoin="round" d="M 333.2867126464844 270.1837463378906 C 334.2825622558594 273.30682373046875 330.9211120605469 275.0079650878906 323.56353759765625 275.532470703125 C 316.4593505859375 275.6925048828125 317.4665832519531 277.189697265625 318.209228515625 269.7725524902344 C 316.8767395019531 259.04144287109375 316.6932678222656 257.23748779296875 325.60382080078125 258.76776123046875 C 329.7508850097656 257.731689453125 329.2004699707031 266.1371154785156 333.2867126464844 270.1837463378906"/>
    <path stroke-width="0" fill="rgb(126, 127, 144)" opacity="0.06911977" stroke="rgb(0, 0, 0)" stroke-opacity="0.0" stroke-linecap="round" stroke-linejoin="round" d="M 162.76773071289062 204.39768981933594 C 163.1739501953125 205.90260314941406 160.28070068359375 208.79058837890625 156.66397094726562 207.83314514160156 C 151.3978729248047 207.87892150878906 148.4918975830078 206.1656494140625 149.20777893066406 201.62059020996094 C 149.23675537109375 195.22653198242188 151.1336212158203 193.8739471435547 155.19076538085938 196.62440490722656 C 158.9762420654297 196.3899383544922 160.9624481201172 200.11317443847656 162.76773071289062 204.39768981933594"/>
    <path stroke-width="0" fill="rgb(80, 139, 166)" opacity="0.6180072" stroke="rgb(0, 0, 0)" stroke-opacity="0.0" stroke-linecap="round" stroke-linejoin="round" d="M 193.2786865234375 250.92782592773438 C 196.45985412597656 250.00184631347656 190.1421356201172 250.55799865722656 187.0264434814453 250.6876983642578 C 186.54273986816406 253.4610137939453 182.85594177246094 251.55587768554688 182.7547149658203 249.02456665039062 C 182.69381713867188 241.9066925048828 181.94895935058594 240.68360900878906 190.43975830078125 242.10508728027344 C 193.11659240722656 239.9563751220703 193.1395263671875 243.5796661376953 193.2786865234375 250.92782592773438"/>
    <path stroke-width="0" fill="rgb(201, 90, 43)" opacity="0.13805452" stroke="rgb(0, 0, 0)" stroke-opacity="0.0" stroke-linecap="round" stroke-linejoin="round" d="M 90.6468505859375 498.368896484375 C 90.67506408691406 502.0806884765625 89.00338745117188 505.982666015625 88.04104614257812 508.7137145996094 C 80.3887710571289 507.3373107910156 78.27578735351562 507.264892578125 81.01985931396484 502.7047119140625 C 78.40496826171875 491.18707275390625 78.55387878417969 487.3288269042969 85.01890563964844 490.3568115234375 C 92.2955322265625 489.9314880371094 91.59754180908203 493.1896057128906 90.6468505859375 498.368896484375"/>
    <path stroke-width="0" fill="rgb(77, 56, 103)" opacity="0.22144379" stroke="rgb(0, 0, 0)" stroke-opacity="0.0" stroke-linecap="round" stroke-linejoin="round" d="M 5.693973064422607 -3.5479395389556885 C 3.3087146282196045 -0.20593993365764618 0.023682139813899994 2.7812204360961914 -2.979806900024414 4.717243671417236 C -2.677528142929077 7.805291652679443 -5.555568695068359 4.721656799316406 -6.636660575866699 0.7309714555740356 C -5.565146446228027 -3.2681753635406494 -2.6369433403015137 -6.196378707885742 1.3634140491485596 -7.2682881355285645 C 5.387521743774414 -6.204288959503174 8.615775108337402 -3.428757905960083 5.693973064422607 -3.5479395389556885"/>
    <path stroke-width="0" fill="rgb(251, 96, 104)" opacity="0.4398807" stroke="rgb(0, 0, 0)" stroke-opacity="0.0" stroke-linecap="round" stroke-linejoin="round" d="M 251.36106872558594 81.21527099609375 C 249.53497314453125 86.5041732788086 247.67665100097656 90.61546325683594 242.8701934814453 91.32361602783203 C 236.2708740234375 89.21710968017578 234.0961151123047 86.76880645751953 232.9185333251953 80.47958374023438 C 230.92774963378906 76.20972442626953 236.8000030517578 73.4400863647461 242.19155883789062 72.28633117675781 C 247.01290893554688 72.98949432373047 250.71827697753906 76.42249298095703 251.36106872558594 81.21527099609375"/>
    <path stroke-width="0" fill="rgb(144, 99, 129)" opacity="0.85400426" stroke="rgb(0, 0, 0)" stroke-opacity="0.0" stroke-linecap="round" stroke-linejoin="round" d="M 496.8970642089844 217.90887451171875 C 496.2843933105469 218.0122833251953 493.37664794921875 220.40115356445312 488.921875 225.12777709960938 C 487.2969055175781 226.55618286132812 486.378173828125 221.7838134765625 484.23480224609375 216.5106658935547 C 485.7671203613281 214.13668823242188 490.42108154296875 212.27967834472656 490.93609619140625 211.710205078125 C 494.0584411621094 213.03042602539062 496.0905456542969 216.5900421142578 496.8970642089844 217.90887451171875"/>
    <path stroke-width="0" fill="rgb(74, 162, 77)" opacity="-0.015895274" stroke="rgb(0, 0, 0)" stroke-opacity="0.0" stroke-linecap="round" stroke-linejoin="round" d="M 414.9378662109375 235.39659118652344 C 411.81793212890625 237.8318634033203 406.8256530761719 238.9580841064453 401.3551330566406 241.84671020507812 C 401.3565673828125 245.0113067626953 399.578369140625 242.20877075195312 402.6270446777344 238.60118103027344 C 400.3704528808594 233.1656494140625 402.91107177734375 230.53585815429688 404.3608093261719 230.21978759765625 C 407.0040283203125 233.5096435546875 411.7523193359375 234.7469482421875 414.9378662109375 235.39659118652344"/>
    <path stroke-width="0" fill="rgb(190, 62, 188)" opacity="0.12810779" stroke="rgb(0, 0, 0)" stroke-opacity="0.0" stroke-linecap="round" stroke-linejoin="round" d="M 155.4744873046875 370.671875 C 151.03431701660156 372.7536315917969 148.71456909179688 375.646484375 147.2696533203125 375.5971374511719 C 145.0304412841797 379.0345764160156 144.19383239746094 378.25115966796875 146.48419189453125 377.4126281738281 C 146.82167053222656 373.5400695800781 149.73292541503906 370.7793884277344 145.6975555419922 373.31146240234375 C 148.0014190673828 375.18072509765625 156.37718200683594 373.8880615234375 155.4744873046875 370.671875"/>
  </g>
</svg>
