<?xml version="1.0" ?>
<svg xmlns="http://www.w3.org/2000/svg" version="1.1" width="512" height="512">
  <defs/>
  <g>
    <path stroke-width="0" fill="rgb(78, 82, 98)" opacity="0.8593751" stroke="rgb(139, 182, 153)" stroke-opacity="1.0" stroke-linecap="round" stroke-linejoin="round" d="M 322.4477233886719 428.2518005371094 C 361.4635314941406 479.5080871582031 360.2197570800781 496.6343994140625 189.51329040527344 485.20086669921875 C 59.09989547729492 379.13226318359375 58.91172790527344 355.20916748046875 -37.12169647216797 93.54222106933594 C -55.74998092651367 24.691083908081055 -54.507442474365234 -3.2493443489074707 30.169464111328125 -11.079699516296387 C 241.3959197998047 164.7701416015625 250.49444580078125 172.7290496826172 322.4477233886719 428.2518005371094"/>
    <path stroke-width="0" fill="rgb(117, 119, 120)" opacity="0.9605433" stroke="rgb(108, 164, 111)" stroke-opacity="1.0" stroke-linecap="round" stroke-linejoin="round" d="M 564.6703491210938 105.11986541748047 C 521.2257690429688 395.1947326660156 444.9223327636719 376.20025634765625 301.72216796875 376.68927001953125 C 145.82899475097656 341.3118896484375 142.8568878173828 311.5655212402344 -49.564414978027344 1.6554248332977295 C -5.70611047744751 -61.47223663330078 18.957836151123047 -59.51573944091797 446.24822998046875 -50.592098236083984 C 535.3020629882812 -48.75304412841797 556.3040771484375 -60.0816650390625 564.6703491210938 105.11986541748047"/>
    <path stroke-width="0" fill="rgb(125, 125, 126)" opacity="0.99797636" stroke="rgb(245, 97, 201)" stroke-opacity="1.0" stroke-linecap="round" stroke-linejoin="round" d="M 297.41461181640625 522.8397827148438 C 290.2972106933594 570.1263427734375 265.1747741699219 573.4346313476562 -73.39730072021484 555.06591796875 C -78.9822769165039 469.8158264160156 -51.8045539855957 419.02099609375 -46.28164291381836 272.57049560546875 C -56.931453704833984 163.62477111816406 -81.46731567382812 128.18165588378906 -9.417963027954102 109.3985824584961 C 144.7430419921875 187.89627075195312 155.9080810546875 193.14207458496094 297.41461181640625 522.8397827148438"/>
    <path stroke-width="0" fill="rgb(122, 124, 127)" opacity="1.0010109" stroke="rgb(144, 236, 18)" stroke-opacity="1.0" stroke-linecap="round" stroke-linejoin="round" d="M 557.802001953125 499.8588562011719 C 564.6090698242188 540.8244018554688 570.5844116210938 555.1404418945312 301.78985595703125 560.4804077148438 C 229.00244140625 575.0138549804688 203.6089630126953 601.1132202148438 224.14439392089844 374.3117980957031 C 298.6683349609375 231.9962921142578 299.3619689941406 180.2231903076172 541.1807861328125 147.31031799316406 C 576.6678466796875 265.0323486328125 560.8159790039062 308.91241455078125 557.802001953125 499.8588562011719"/>
    <path stroke-width="0" fill="rgb(229, 236, 245)" opacity="0.9773054" stroke="rgb(5, 212, 198)" stroke-opacity="1.0" stroke-linecap="round" stroke-linejoin="round" d="M 368.4424743652344 528.883544921875 C 364.5356140136719 503.1345520019531 365.5629577636719 512.2237548828125 316.02789306640625 547.2427368164062 C 397.8963317871094 521.7904052734375 317.5240478515625 553.5313110351562 334.6990661621094 489.6148681640625 C 334.310546875 494.16192626953125 328.45587158203125 486.0227355957031 339.74310302734375 501.4475402832031 C 350.20758056640625 507.9521484375 330.0620422363281 517.6730346679688 368.4424743652344 528.883544921875"/>
    <path stroke-width="0" fill="rgb(248, 253, 248)" opacity="0.817157" stroke="rgb(249, 203, 117)" stroke-opacity="1.0" stroke-linecap="round" stroke-linejoin="round" d="M 357.354248046875 487.34027099609375 C 281.41925048828125 549.5817260742188 356.1004943847656 533.4391479492188 340.946533203125 492.49932861328125 C 347.19281005859375 500.7164001464844 347.8145751953125 490.3861083984375 346.6360778808594 500.58331298828125 C 339.63494873046875 491.83135986328125 369.71343994140625 467.8636474609375 313.3565673828125 472.8419189453125 C 364.89422607421875 457.3135986328125 412.9866943359375 507.7690124511719 357.354248046875 487.34027099609375"/>
    <path stroke-width="0" fill="rgb(262, 244, 258)" opacity="0.7498828" stroke="rgb(133, 105, 67)" stroke-opacity="1.0" stroke-linecap="round" stroke-linejoin="round" d="M 386.64459228515625 464.49871826171875 C 364.7376708984375 523.8775024414062 238.58250427246094 576.4962768554688 255.0799560546875 637.40478515625 C 284.7398376464844 541.4782104492188 294.0196228027344 542.1718139648438 341.7516784667969 550.7489013671875 C 347.8534240722656 535.9223022460938 347.7208251953125 520.19970703125 330.75775146484375 514.569091796875 C 348.3074951171875 446.6016540527344 300.7236328125 466.8885498046875 386.64459228515625 464.49871826171875"/>
    <path stroke-width="0" fill="rgb(273, 255, 261)" opacity="1.0621853" stroke="rgb(116, 144, 4)" stroke-opacity="1.0" stroke-linecap="round" stroke-linejoin="round" d="M 373.4903869628906 83.5286636352539 C 367.9021911621094 89.57899475097656 253.61964416503906 79.31563568115234 377.0546875 79.21331024169922 C 376.82171630859375 151.44358825683594 369.1060485839844 27.286701202392578 344.01800537109375 98.44945526123047 C 388.2938537597656 105.92841339111328 363.3680419921875 49.955291748046875 328.9149169921875 69.79753112792969 C 381.8135681152344 33.36595916748047 324.1123046875 114.72425842285156 373.4903869628906 83.5286636352539"/>
    <path stroke-width="0" fill="rgb(167, 181, 200)" opacity="0.9964219" stroke="rgb(156, 157, 240)" stroke-opacity="1.0" stroke-linecap="round" stroke-linejoin="round" d="M 383.55450439453125 489.1700439453125 C 386.4118957519531 538.4574584960938 378.1692199707031 522.3967895507812 359.5988464355469 575.3099365234375 C 442.4631042480469 519.5864868164062 288.50555419921875 508.0364990234375 321.09814453125 473.8555908203125 C 311.1971130371094 493.0303039550781 384.0267028808594 494.8275451660156 382.5313415527344 495.3274841308594 C 384.6281433105469 454.6334533691406 449.7633056640625 453.7217712402344 383.55450439453125 489.1700439453125"/>
    <path stroke-width="0" fill="rgb(-1, 25, 11)" opacity="0.7254572" stroke="rgb(91, 111, 177)" stroke-opacity="1.0" stroke-linecap="round" stroke-linejoin="round" d="M 355.6958923339844 77.26740264892578 C 358.7348937988281 48.73747253417969 380.7069091796875 74.82588958740234 357.6454772949219 88.17898559570312 C 350.27581787109375 132.6371307373047 383.26641845703125 50.03642654418945 341.2297058105469 62.110618591308594 C 364.70635986328125 27.476472854614258 353.6224060058594 95.14432525634766 378.11480712890625 76.1396255493164 C 244.68814086914062 76.06631469726562 400.1174621582031 85.14868927001953 355.6958923339844 77.26740264892578"/>
    <path stroke-width="0" fill="rgb(149, 157, 153)" opacity="0.87879306" stroke="rgb(170, 171, 53)" stroke-opacity="1.0" stroke-linecap="round" stroke-linejoin="round" d="M 356.1991882324219 486.0054931640625 C 334.5323791503906 452.21856689453125 368.0667724609375 540.3353271484375 334.1152038574219 623.2744750976562 C 309.2905578613281 481.9087829589844 336.8144226074219 500.8826904296875 302.5534362792969 500.0976867675781 C 302.4184875488281 501.4689636230469 303.7097473144531 497.9578552246094 356.4686279296875 481.8699035644531 C 333.44635009765625 477.5570068359375 412.44598388671875 478.4660339355469 356.1991882324219 486.0054931640625"/>
    <path stroke-width="0" fill="rgb(123, 125, 128)" opacity="1.0041612" stroke="rgb(80, 92, 145)" stroke-opacity="1.0" stroke-linecap="round" stroke-linejoin="round" d="M 284.63623046875 505.08013916015625 C 4.914095401763916 254.85035705566406 85.39390563964844 182.2033233642578 89.3090591430664 209.5349884033203 C -60.08174133300781 208.15896606445312 -56.14982223510742 192.1712646484375 -35.51945877075195 126.32315063476562 C -40.78221893310547 64.58954620361328 -46.02934265136719 48.192596435546875 -6.458086967468262 -10.009245872497559 C 288.56939697265625 -423.7340393066406 415.9381103515625 68.96802520751953 284.63623046875 505.08013916015625"/>
    <path stroke-width="0" fill="rgb(60, 58, 68)" opacity="0.94589996" stroke="rgb(252, 26, 53)" stroke-opacity="1.0" stroke-linecap="round" stroke-linejoin="round" d="M 344.9234924316406 439.2158508300781 C 365.24493408203125 454.86041259765625 315.4042663574219 456.2950744628906 367.0481872558594 416.06890869140625 C 292.8005676269531 408.8915100097656 326.5834655761719 433.6191101074219 361.06610107421875 441.47137451171875 C 300.8886413574219 403.0338134765625 314.12744140625 515.7210083007812 346.541015625 352.337890625 C 327.5873718261719 473.50830078125 410.68450927734375 360.5550842285156 344.9234924316406 439.2158508300781"/>
    <path stroke-width="0" fill="rgb(241, 248, 259)" opacity="1.0502605" stroke="rgb(166, 64, 118)" stroke-opacity="1.0" stroke-linecap="round" stroke-linejoin="round" d="M 329.5215148925781 241.18959045410156 C 384.8627624511719 199.9286346435547 388.8975524902344 182.78668212890625 357.71502685546875 191.9654998779297 C 323.337158203125 267.96923828125 342.3049621582031 207.9628143310547 340.0958557128906 189.0888671875 C 335.9739990234375 111.79121398925781 342.3531494140625 101.1380844116211 353.30792236328125 174.93614196777344 C 357.2501220703125 185.4925079345703 346.69927978515625 224.22592163085938 329.5215148925781 241.18959045410156"/>
    <path stroke-width="0" fill="rgb(48, 56, 38)" opacity="0.6026847" stroke="rgb(40, 28, 167)" stroke-opacity="1.0" stroke-linecap="round" stroke-linejoin="round" d="M 312.5538330078125 429.4707946777344 C 455.7941589355469 468.5387268066406 439.66522216796875 408.3608703613281 362.4077453613281 431.6947021484375 C 372.9835205078125 363.1261901855469 350.9365234375 431.81658935546875 315.45379638671875 389.9471435546875 C 324.3511047363281 426.8116455078125 323.55712890625 391.4861145019531 396.1495056152344 370.1573486328125 C 332.9919738769531 418.96630859375 401.675537109375 439.4445495605469 312.5538330078125 429.4707946777344"/>
    <path stroke-width="0" fill="rgb(236, 236, 234)" opacity="0.75728667" stroke="rgb(50, 94, 209)" stroke-opacity="1.0" stroke-linecap="round" stroke-linejoin="round" d="M 417.37872314453125 435.5783996582031 C 265.1675109863281 440.2834167480469 417.92803955078125 487.2890930175781 343.961669921875 448.5001525878906 C 439.0405578613281 410.3011779785156 361.9705505371094 399.3249816894531 372.822998046875 441.1097717285156 C 445.7373046875 448.4655456542969 385.9338684082031 432.60546875 390.39813232421875 466.5968933105469 C 385.5850830078125 424.9624328613281 401.37554931640625 450.9482116699219 417.37872314453125 435.5783996582031"/>
    <path stroke-width="0" fill="rgb(253, 267, 252)" opacity="0.95850664" stroke="rgb(213, 24, 248)" stroke-opacity="1.0" stroke-linecap="round" stroke-linejoin="round" d="M 429.5492858886719 436.4422607421875 C 267.82489013671875 432.8263244628906 297.8724060058594 441.4160461425781 306.1534729003906 429.00372314453125 C 317.724365234375 418.0485534667969 286.8092041015625 421.0196533203125 339.1686096191406 410.68701171875 C 357.5980529785156 388.1550598144531 270.25177001953125 417.0296936035156 305.6953125 446.9911804199219 C 314.0430603027344 431.5240173339844 283.75006103515625 447.12518310546875 429.5492858886719 436.4422607421875"/>
    <path stroke-width="0" fill="rgb(49, 35, 54)" opacity="0.92548966" stroke="rgb(249, 154, 188)" stroke-opacity="1.0" stroke-linecap="round" stroke-linejoin="round" d="M 344.0836181640625 194.68162536621094 C 384.9127197265625 164.75965881347656 302.4522399902344 207.1964874267578 363.75543212890625 196.01116943359375 C 374.9869079589844 190.6617889404297 363.031982421875 182.97933959960938 354.70721435546875 207.12313842773438 C 364.1392517089844 208.91036987304688 372.1307067871094 191.4921112060547 330.82916259765625 244.85166931152344 C 349.0293273925781 238.3990936279297 365.5528259277344 216.30323791503906 344.0836181640625 194.68162536621094"/>
    <path stroke-width="0" fill="rgb(35, 33, 37)" opacity="0.97558266" stroke="rgb(72, 30, 75)" stroke-opacity="1.0" stroke-linecap="round" stroke-linejoin="round" d="M 384.123291015625 364.3605041503906 C 333.59161376953125 353.2398376464844 315.0283203125 333.1225280761719 336.3748474121094 362.126708984375 C 316.1280517578125 331.5252990722656 378.0274658203125 316.0422668457031 329.96160888671875 343.1208190917969 C 314.89007568359375 330.56634521484375 334.31634521484375 291.0116271972656 360.2489013671875 312.222900390625 C 357.2267150878906 364.4427490234375 400.68841552734375 292.05523681640625 384.123291015625 364.3605041503906"/>
    <path stroke-width="0" fill="rgb(252, 247, 248)" opacity="0.6465678" stroke="rgb(81, 105, 16)" stroke-opacity="1.0" stroke-linecap="round" stroke-linejoin="round" d="M 361.0473327636719 373.19244384765625 C 334.47332763671875 322.7635192871094 380.39874267578125 333.93670654296875 334.0776672363281 321.2904968261719 C 324.6786193847656 383.7548522949219 312.6117248535156 355.1849365234375 340.71356201171875 331.7633361816406 C 340.00958251953125 292.8686218261719 358.027587890625 353.61505126953125 361.40185546875 324.1372985839844 C 392.3145751953125 354.5936584472656 348.6280822753906 315.18768310546875 361.0473327636719 373.19244384765625"/>
    <path stroke-width="0" fill="rgb(6, 0, 13)" opacity="0.77181727" stroke="rgb(144, 67, 133)" stroke-opacity="1.0" stroke-linecap="round" stroke-linejoin="round" d="M 361.7843933105469 469.5568542480469 C 351.5055847167969 399.11981201171875 363.07916259765625 478.4692687988281 349.43035888671875 450.49383544921875 C 377.6236877441406 461.6843566894531 335.6622314453125 473.9092102050781 425.1058349609375 466.65087890625 C 385.4903564453125 483.41986083984375 342.7759094238281 460.5715026855469 358.8882141113281 467.81634521484375 C 177.12840270996094 469.8719482421875 431.7197570800781 477.0212707519531 361.7843933105469 469.5568542480469"/>
    <path stroke-width="0" fill="rgb(63, 45, 51)" opacity="0.9607431" stroke="rgb(146, 236, 81)" stroke-opacity="1.0" stroke-linecap="round" stroke-linejoin="round" d="M 350.2709045410156 138.84017944335938 C 358.4109191894531 155.4892578125 317.4014587402344 215.12347412109375 365.77099609375 152.6317138671875 C 383.9836120605469 148.31491088867188 330.2801208496094 181.3296356201172 337.3158264160156 157.23294067382812 C 335.32696533203125 190.0255126953125 341.3598327636719 185.09071350097656 369.4848937988281 185.89918518066406 C 338.1496276855469 164.99359130859375 326.48590087890625 218.8995819091797 350.2709045410156 138.84017944335938"/>
    <path stroke-width="0" fill="rgb(249, 239, 259)" opacity="1.0173898" stroke="rgb(33, 182, 73)" stroke-opacity="1.0" stroke-linecap="round" stroke-linejoin="round" d="M 343.5445251464844 261.2697448730469 C 320.8373107910156 223.01087951660156 340.8782043457031 239.98292541503906 340.6103210449219 254.54336547851562 C 395.4674072265625 210.16651916503906 382.5786437988281 241.7493438720703 331.490234375 264.32293701171875 C 379.2049865722656 268.9147033691406 323.7632751464844 236.46307373046875 370.5909729003906 254.04981994628906 C 318.9777526855469 263.80712890625 329.9615783691406 285.8456726074219 343.5445251464844 261.2697448730469"/>
    <path stroke-width="0" fill="rgb(40, 5, 4)" opacity="0.7332313" stroke="rgb(172, 68, 187)" stroke-opacity="1.0" stroke-linecap="round" stroke-linejoin="round" d="M 374.45904541015625 175.58389282226562 C 379.72625732421875 228.6531219482422 372.1838073730469 191.75674438476562 360.0577392578125 206.58567810058594 C 392.89410400390625 212.60897827148438 343.45416259765625 186.16717529296875 364.8681335449219 201.40463256835938 C 380.49005126953125 231.72344970703125 375.3625793457031 218.6141815185547 375.9440612792969 205.7320098876953 C 359.6307067871094 203.25572204589844 373.4709167480469 197.8984832763672 374.45904541015625 175.58389282226562"/>
    <path stroke-width="0" fill="rgb(251, 246, 261)" opacity="1.0240848" stroke="rgb(63, 146, 150)" stroke-opacity="1.0" stroke-linecap="round" stroke-linejoin="round" d="M 394.47674560546875 364.6586608886719 C 374.72943115234375 346.3096923828125 353.2093505859375 335.893798828125 401.0804443359375 392.0794677734375 C 364.3988037109375 349.9840087890625 352.7408447265625 410.89910888671875 367.52410888671875 342.6246643066406 C 416.7727355957031 379.6696472167969 352.6482849121094 319.4729309082031 383.6809387207031 341.7713623046875 C 391.0266418457031 287.94110107421875 351.46783447265625 363.4176940917969 394.47674560546875 364.6586608886719"/>
    <path stroke-width="0" fill="rgb(258, 260, 255)" opacity="0.69885" stroke="rgb(56, 242, 114)" stroke-opacity="1.0" stroke-linecap="round" stroke-linejoin="round" d="M 377.929931640625 334.91485595703125 C 350.4884033203125 313.4025573730469 382.70513916015625 323.77276611328125 332.926025390625 357.0693359375 C 318.00030517578125 263.44903564453125 346.44140625 325.91497802734375 345.2222595214844 258.9203796386719 C 372.90380859375 301.9330139160156 292.2266845703125 336.0793151855469 355.31329345703125 286.1626281738281 C 374.5664367675781 217.92147827148438 381.9366760253906 278.75152587890625 377.929931640625 334.91485595703125"/>
    <path stroke-width="0" fill="rgb(244, 248, 262)" opacity="1.001579" stroke="rgb(178, 75, 207)" stroke-opacity="1.0" stroke-linecap="round" stroke-linejoin="round" d="M 321.68975830078125 524.8095703125 C 347.7096252441406 436.1446838378906 322.42254638671875 498.479736328125 316.173583984375 508.799072265625 C 307.81988525390625 560.1987915039062 270.1790771484375 515.8704223632812 314.4543151855469 528.622802734375 C 300.6286926269531 519.1270141601562 312.88177490234375 524.28173828125 314.3937683105469 507.90960693359375 C 323.2646484375 502.75360107421875 307.436767578125 529.9586791992188 321.68975830078125 524.8095703125"/>
    <path stroke-width="0" fill="rgb(241, 262, 264)" opacity="1.0519831" stroke="rgb(184, 127, 243)" stroke-opacity="1.0" stroke-linecap="round" stroke-linejoin="round" d="M 348.83880615234375 63.72585678100586 C 397.5787048339844 52.15044403076172 310.3255920410156 54.72881317138672 341.0210266113281 59.98991012573242 C 314.3892822265625 91.00518035888672 361.7489013671875 66.65916442871094 334.9650573730469 62.751304626464844 C 366.8228454589844 50.14453125 341.01849365234375 40.9122200012207 357.72161865234375 7.576748847961426 C 341.05059814453125 80.7573471069336 405.27032470703125 68.1702651977539 348.83880615234375 63.72585678100586"/>
    <path stroke-width="0" fill="rgb(241, 246, 252)" opacity="0.95560455" stroke="rgb(108, 154, 4)" stroke-opacity="1.0" stroke-linecap="round" stroke-linejoin="round" d="M 393.6231689453125 401.6763610839844 C 413.0311584472656 440.0063781738281 393.48846435546875 430.9566955566406 410.93548583984375 412.8995361328125 C 366.112060546875 412.9002990722656 368.4033203125 414.20867919921875 369.16156005859375 404.5933532714844 C 402.1820373535156 386.98089599609375 408.8507995605469 419.482421875 380.4710998535156 383.791748046875 C 399.48175048828125 398.59954833984375 341.8263854980469 418.9215087890625 393.6231689453125 401.6763610839844"/>
    <path stroke-width="0" fill="rgb(110, 130, 128)" opacity="0.94636416" stroke="rgb(168, 73, 157)" stroke-opacity="1.0" stroke-linecap="round" stroke-linejoin="round" d="M 339.2724304199219 36.581058502197266 C 329.0492858886719 56.46830368041992 323.50787353515625 54.76321029663086 328.98974609375 52.57164764404297 C 343.8890686035156 52.486671447753906 340.50439453125 59.434043884277344 332.91455078125 16.235614776611328 C 342.5257873535156 92.84796142578125 348.2756652832031 63.40520477294922 327.23614501953125 60.23126983642578 C 346.46441650390625 43.75288009643555 354.8800354003906 46.70302200317383 339.2724304199219 36.581058502197266"/>
    <path stroke-width="0" fill="rgb(233, 237, 238)" opacity="1.0129651" stroke="rgb(34, 76, 145)" stroke-opacity="1.0" stroke-linecap="round" stroke-linejoin="round" d="M 420.27532958984375 483.5086975097656 C 426.7792053222656 499.4837951660156 443.2033996582031 510.85150146484375 404.73040771484375 504.7826232910156 C 403.9140319824219 484.48272705078125 359.33941650390625 493.87646484375 404.60821533203125 488.934814453125 C 422.8621826171875 522.3644409179688 380.2119140625 529.3734130859375 433.02288818359375 516.52294921875 C 406.7117919921875 539.8104858398438 400.751953125 542.0418701171875 420.27532958984375 483.5086975097656"/>
    <path stroke-width="0" fill="rgb(217, 211, 229)" opacity="0.81714857" stroke="rgb(146, 166, 166)" stroke-opacity="1.0" stroke-linecap="round" stroke-linejoin="round" d="M 327.6621398925781 379.1934509277344 C 378.0754699707031 364.6861267089844 326.0029296875 287.8312072753906 369.72406005859375 407.8890380859375 C 316.5334167480469 346.9640808105469 351.1706848144531 375.08526611328125 345.06341552734375 348.0228271484375 C 374.7457275390625 360.6238708496094 343.15533447265625 322.1726379394531 321.2312316894531 389.733154296875 C 313.57769775390625 379.9650573730469 331.6307678222656 386.0550842285156 327.6621398925781 379.1934509277344"/>
    <path stroke-width="0" fill="rgb(248, 256, 246)" opacity="0.99379057" stroke="rgb(228, 93, 111)" stroke-opacity="1.0" stroke-linecap="round" stroke-linejoin="round" d="M 371.5680847167969 403.96917724609375 C 396.6988525390625 403.0358581542969 355.4056701660156 400.68426513671875 377.8287048339844 384.1014709472656 C 399.910400390625 394.0076904296875 404.6053161621094 400.7243957519531 366.788330078125 367.54962158203125 C 409.708251953125 418.3612976074219 371.95501708984375 390.3682556152344 388.4440002441406 405.2527770996094 C 389.44464111328125 370.3768615722656 354.5274353027344 417.7296142578125 371.5680847167969 403.96917724609375"/>
    <path stroke-width="0" fill="rgb(19, -3, -1)" opacity="0.85019964" stroke="rgb(205, 179, 25)" stroke-opacity="1.0" stroke-linecap="round" stroke-linejoin="round" d="M 342.1994934082031 245.42477416992188 C 350.4573669433594 238.250732421875 399.0667724609375 263.9410705566406 352.74017333984375 286.3146057128906 C 347.4907531738281 200.54132080078125 359.98095703125 151.19845581054688 353.5814514160156 234.2912139892578 C 330.39581298828125 239.04530334472656 351.3054504394531 238.71844482421875 348.55474853515625 238.58477783203125 C 372.83575439453125 199.72918701171875 349.9416198730469 232.49652099609375 342.1994934082031 245.42477416992188"/>
    <path stroke-width="0" fill="rgb(251, 252, 247)" opacity="1.0477195" stroke="rgb(182, 254, 38)" stroke-opacity="1.0" stroke-linecap="round" stroke-linejoin="round" d="M 390.2934265136719 480.2925109863281 C 388.9557800292969 520.1675415039062 424.1806335449219 477.7605895996094 375.5478515625 544.1121215820312 C 380.0926513671875 513.611083984375 372.9058837890625 496.79095458984375 385.1468505859375 537.4976806640625 C 398.59600830078125 537.6722412109375 403.4391174316406 534.2794799804688 386.4688415527344 534.3189086914062 C 400.0064697265625 477.7708435058594 383.4595031738281 529.5455322265625 390.2934265136719 480.2925109863281"/>
    <path stroke-width="0" fill="rgb(262, 264, 258)" opacity="1.0291021" stroke="rgb(41, 156, 31)" stroke-opacity="1.0" stroke-linecap="round" stroke-linejoin="round" d="M 354.17852783203125 43.277217864990234 C 359.6339416503906 53.50574493408203 341.77447509765625 44.00983428955078 331.83013916015625 43.45970916748047 C 355.0802307128906 73.42154693603516 341.1199035644531 13.549463272094727 371.7351379394531 76.49446105957031 C 391.1040954589844 73.29901885986328 346.0675964355469 44.998905181884766 353.428466796875 47.945068359375 C 324.7310791015625 47.07901382446289 353.2944641113281 50.76777648925781 354.17852783203125 43.277217864990234"/>
    <path stroke-width="0" fill="rgb(212, 212, 201)" opacity="1.0489596" stroke="rgb(205, 145, 103)" stroke-opacity="1.0" stroke-linecap="round" stroke-linejoin="round" d="M 337.9078063964844 140.8136444091797 C 348.38592529296875 115.38458251953125 392.9510498046875 173.23861694335938 357.6557312011719 120.36514282226562 C 332.9251708984375 127.74513244628906 343.1189880371094 78.62847137451172 371.0242919921875 103.50293731689453 C 343.57635498046875 90.14218139648438 360.913818359375 127.28473663330078 355.255859375 140.55886840820312 C 352.638916015625 111.20454406738281 371.65032958984375 126.50682830810547 337.9078063964844 140.8136444091797"/>
    <path stroke-width="0" fill="rgb(101, 98, 80)" opacity="1.0060802" stroke="rgb(177, 115, 184)" stroke-opacity="1.0" stroke-linecap="round" stroke-linejoin="round" d="M 353.7909240722656 239.14663696289062 C 334.88543701171875 246.7784423828125 391.55462646484375 213.1060791015625 349.52789306640625 225.82273864746094 C 394.8579406738281 293.4849853515625 374.4292297363281 249.23013305664062 380.40167236328125 237.0918426513672 C 378.8675231933594 248.00518798828125 365.83966064453125 220.9622039794922 361.1951904296875 220.9481658935547 C 377.9858093261719 238.72589111328125 345.81732177734375 207.30335998535156 353.7909240722656 239.14663696289062"/>
    <path stroke-width="0" fill="rgb(38, 24, 36)" opacity="0.73329306" stroke="rgb(248, 218, 2)" stroke-opacity="1.0" stroke-linecap="round" stroke-linejoin="round" d="M 316.1189270019531 503.00640869140625 C 320.9156494140625 491.2569274902344 321.4058532714844 532.802001953125 316.7532958984375 550.7158203125 C 295.8251953125 536.5675048828125 295.9871826171875 523.5986938476562 323.05230712890625 463.9008483886719 C 279.8656311035156 494.38067626953125 333.83782958984375 488.7040710449219 325.60577392578125 496.1728515625 C 268.7573547363281 487.4403991699219 269.4655456542969 524.0577392578125 316.1189270019531 503.00640869140625"/>
    <path stroke-width="0" fill="rgb(245, 246, 253)" opacity="1.01593" stroke="rgb(186, 43, 132)" stroke-opacity="1.0" stroke-linecap="round" stroke-linejoin="round" d="M 306.8089294433594 515.8416748046875 C 326.166259765625 487.9950866699219 266.79473876953125 532.8019409179688 294.1213684082031 487.9702453613281 C 312.15826416015625 517.9404296875 342.9922180175781 477.5382385253906 296.096435546875 498.2899475097656 C 316.66552734375 509.94873046875 328.90411376953125 472.3293762207031 296.6968688964844 512.2265625 C 302.5135803222656 487.1429138183594 278.9178161621094 509.15411376953125 306.8089294433594 515.8416748046875"/>
    <path stroke-width="0" fill="rgb(232, 251, 243)" opacity="0.93925697" stroke="rgb(50, 4, 202)" stroke-opacity="1.0" stroke-linecap="round" stroke-linejoin="round" d="M 367.3289794921875 247.34213256835938 C 353.35491943359375 262.1489562988281 332.8120422363281 257.6104431152344 374.46990966796875 240.37974548339844 C 363.0606689453125 231.84197998046875 329.13531494140625 233.58474731445312 325.9643859863281 286.2469482421875 C 329.606201171875 258.20745849609375 336.2031555175781 242.6742706298828 359.2361145019531 214.79039001464844 C 374.19940185546875 230.3080291748047 379.7894592285156 222.05149841308594 367.3289794921875 247.34213256835938"/>
    <path stroke-width="0" fill="rgb(231, 238, 237)" opacity="1.0086246" stroke="rgb(88, 236, 179)" stroke-opacity="1.0" stroke-linecap="round" stroke-linejoin="round" d="M 342.82855224609375 140.73106384277344 C 379.3310546875 189.77996826171875 350.0765380859375 162.24307250976562 364.8609313964844 87.48184967041016 C 376.8219909667969 87.32999420166016 355.51458740234375 115.9337387084961 377.29913330078125 137.60247802734375 C 337.9936218261719 99.42813873291016 342.0666809082031 142.00416564941406 361.69891357421875 114.1967544555664 C 323.69061279296875 94.45157623291016 383.1322326660156 153.897216796875 342.82855224609375 140.73106384277344"/>
    <path stroke-width="0" fill="rgb(262, 256, 261)" opacity="0.93033075" stroke="rgb(41, 158, 147)" stroke-opacity="1.0" stroke-linecap="round" stroke-linejoin="round" d="M 395.21820068359375 429.03887939453125 C 421.8194274902344 421.4180603027344 418.6594543457031 461.74908447265625 417.5183410644531 413.2078857421875 C 402.06390380859375 446.0948486328125 409.7424011230469 391.7751770019531 398.31298828125 404.86785888671875 C 401.51361083984375 410.22418212890625 429.27789306640625 429.5597229003906 396.29156494140625 410.5518493652344 C 364.6469421386719 421.1068115234375 396.880859375 387.0498046875 395.21820068359375 429.03887939453125"/>
    <path stroke-width="0" fill="rgb(90, 101, 109)" opacity="0.8190133" stroke="rgb(238, 156, 136)" stroke-opacity="1.0" stroke-linecap="round" stroke-linejoin="round" d="M 358.4776916503906 26.206680297851562 C 356.57061767578125 65.64521789550781 337.2901916503906 52.272850036621094 326.0335388183594 46.01395034790039 C 336.8238525390625 52.022193908691406 334.1388854980469 48.52311325073242 338.58575439453125 58.293418884277344 C 332.9614562988281 44.33817672729492 322.6378173828125 35.87205505371094 358.9121398925781 48.96433639526367 C 357.9781188964844 23.374961853027344 360.0770568847656 49.25667953491211 358.4776916503906 26.206680297851562"/>
    <path stroke-width="0" fill="rgb(119, 116, 115)" opacity="1.0638901" stroke="rgb(186, 79, 101)" stroke-opacity="1.0" stroke-linecap="round" stroke-linejoin="round" d="M 330.2054748535156 221.54420471191406 C 357.958984375 193.8914337158203 353.0560302734375 199.37071228027344 352.3522644042969 242.34182739257812 C 368.0206604003906 241.33145141601562 340.947509765625 180.61416625976562 361.6198425292969 202.08795166015625 C 318.8375549316406 219.51556396484375 361.71380615234375 215.013427734375 370.1104431152344 229.43612670898438 C 313.5444030761719 206.69541931152344 351.16790771484375 206.11427307128906 330.2054748535156 221.54420471191406"/>
    <path stroke-width="0" fill="rgb(235, 230, 235)" opacity="1.0008839" stroke="rgb(47, 240, 188)" stroke-opacity="1.0" stroke-linecap="round" stroke-linejoin="round" d="M 371.1730041503906 224.09713745117188 C 392.88031005859375 260.8523254394531 344.6260986328125 294.0527038574219 362.75604248046875 270.1541442871094 C 295.4355163574219 295.6951599121094 357.05950927734375 266.9594421386719 364.0924987792969 251.57492065429688 C 332.9837951660156 251.63429260253906 354.4877014160156 221.15536499023438 365.6846923828125 233.12890625 C 353.4891052246094 272.67913818359375 337.36785888671875 252.3890838623047 371.1730041503906 224.09713745117188"/>
    <path stroke-width="0" fill="rgb(48, 41, 41)" opacity="0.6229362" stroke="rgb(57, 64, 14)" stroke-opacity="1.0" stroke-linecap="round" stroke-linejoin="round" d="M 355.1324157714844 216.7540283203125 C 359.657470703125 198.6803436279297 333.54815673828125 212.92115783691406 374.91326904296875 231.42835998535156 C 348.82470703125 257.1425476074219 326.0111389160156 239.8273468017578 368.861328125 220.2356414794922 C 364.65911865234375 265.30364990234375 368.39202880859375 213.3280487060547 342.2397766113281 270.9421691894531 C 370.7823486328125 203.0524444580078 336.4576110839844 233.25274658203125 355.1324157714844 216.7540283203125"/>
    <path stroke-width="0" fill="rgb(33, 37, 30)" opacity="0.80700046" stroke="rgb(79, 177, 96)" stroke-opacity="1.0" stroke-linecap="round" stroke-linejoin="round" d="M 378.0210876464844 297.5949401855469 C 368.74066162109375 303.92791748046875 367.17156982421875 283.01470947265625 358.3438720703125 316.848876953125 C 381.9637145996094 336.3283386230469 369.853271484375 298.3974304199219 371.3704833984375 313.144287109375 C 366.38818359375 238.7593231201172 400.21807861328125 253.8346710205078 359.6817626953125 303.1961975097656 C 350.1431884765625 303.447021484375 362.28997802734375 318.94500732421875 378.0210876464844 297.5949401855469"/>
    <path stroke-width="0" fill="rgb(90, 67, 81)" opacity="1.0189095" stroke="rgb(6, 17, 173)" stroke-opacity="1.0" stroke-linecap="round" stroke-linejoin="round" d="M 397.89642333984375 400.1510009765625 C 409.3600769042969 382.09912109375 341.1719055175781 390.696044921875 395.0591125488281 392.17529296875 C 399.5528869628906 438.3303527832031 403.0617980957031 444.86767578125 404.5400085449219 415.6243896484375 C 379.27764892578125 298.1585693359375 385.6642761230469 392.56097412109375 405.7456359863281 403.0614318847656 C 388.68408203125 422.78900146484375 419.05181884765625 420.1543884277344 397.89642333984375 400.1510009765625"/>
    <path stroke-width="0" fill="rgb(27, 1, 3)" opacity="0.7807437" stroke="rgb(136, 228, 252)" stroke-opacity="1.0" stroke-linecap="round" stroke-linejoin="round" d="M 335.4460754394531 157.01278686523438 C 388.5267333984375 115.40457153320312 370.1719055175781 112.00653839111328 364.0209045410156 129.3407440185547 C 362.18035888671875 145.57301330566406 371.0311584472656 127.48957824707031 369.09893798828125 145.91510009765625 C 375.5047607421875 154.6359405517578 379.5528564453125 108.49457550048828 355.5046081542969 122.86324310302734 C 351.6376953125 109.33595275878906 389.7849426269531 107.5572509765625 335.4460754394531 157.01278686523438"/>
    <path stroke-width="0" fill="rgb(25, 34, 48)" opacity="0.71844566" stroke="rgb(169, 67, 5)" stroke-opacity="1.0" stroke-linecap="round" stroke-linejoin="round" d="M 343.115478515625 260.6260070800781 C 350.4134826660156 284.7500915527344 355.52947998046875 287.303466796875 369.6822814941406 293.7293701171875 C 374.2294006347656 271.2845458984375 340.7933044433594 327.3699035644531 349.0346984863281 297.1211853027344 C 351.0527648925781 242.6237030029297 335.9196472167969 285.36962890625 356.049072265625 269.6596374511719 C 354.0732727050781 278.9825134277344 346.45697021484375 285.0350646972656 343.115478515625 260.6260070800781"/>
    <path stroke-width="0" fill="rgb(258, 263, 252)" opacity="0.598535" stroke="rgb(81, 97, 150)" stroke-opacity="1.0" stroke-linecap="round" stroke-linejoin="round" d="M 368.1737060546875 188.9668731689453 C 338.7499084472656 114.4437255859375 362.5472412109375 234.96075439453125 373.0987854003906 170.6291046142578 C 365.9479064941406 141.8157501220703 342.72442626953125 157.81689453125 373.9750671386719 99.02809143066406 C 320.78765869140625 162.00430297851562 338.0206604003906 105.6628189086914 374.63519287109375 116.11115264892578 C 319.47418212890625 139.96975708007812 365.8504333496094 115.81615447998047 368.1737060546875 188.9668731689453"/>
    <path stroke-width="0" fill="rgb(36, 12, 22)" opacity="0.7089823" stroke="rgb(160, 222, 69)" stroke-opacity="1.0" stroke-linecap="round" stroke-linejoin="round" d="M 365.0096130371094 268.0469970703125 C 376.2962341308594 238.48667907714844 383.5187683105469 246.132568359375 339.001953125 243.96044921875 C 344.1916809082031 259.5772705078125 332.89501953125 282.8769226074219 337.1214294433594 216.75372314453125 C 332.22265625 203.28469848632812 329.7082214355469 249.14022827148438 338.90380859375 251.97607421875 C 382.3943176269531 219.2799072265625 362.7800598144531 179.6173095703125 365.0096130371094 268.0469970703125"/>
    <path stroke-width="0" fill="rgb(50, 35, 41)" opacity="0.96351457" stroke="rgb(47, 242, 175)" stroke-opacity="1.0" stroke-linecap="round" stroke-linejoin="round" d="M 360.8858642578125 307.7704772949219 C 372.156005859375 352.1055908203125 395.72637939453125 252.52215576171875 378.9862060546875 331.8193054199219 C 345.686767578125 303.52947998046875 365.5899353027344 245.7900390625 324.6932067871094 296.9140319824219 C 377.1720275878906 254.03627014160156 340.5079345703125 284.69415283203125 350.8765563964844 299.5316467285156 C 376.2503662109375 268.7481384277344 338.85650634765625 277.92572021484375 360.8858642578125 307.7704772949219"/>
    <path stroke-width="0" fill="rgb(18, 5, 2)" opacity="0.81797904" stroke="rgb(241, 186, 64)" stroke-opacity="1.0" stroke-linecap="round" stroke-linejoin="round" d="M 357.2442932128906 303.7657775878906 C 330.6144714355469 286.49420166015625 379.014404296875 279.72271728515625 348.36578369140625 288.3311462402344 C 360.2803649902344 281.3591003417969 356.57427978515625 255.19178771972656 351.9601745605469 273.5362243652344 C 373.2254638671875 274.7204284667969 365.2820129394531 247.72772216796875 344.63427734375 298.1141052246094 C 365.2259521484375 288.5719299316406 335.0102233886719 305.39093017578125 357.2442932128906 303.7657775878906"/>
    <path stroke-width="0" fill="rgb(246, 245, 264)" opacity="1.0117706" stroke="rgb(132, 6, 52)" stroke-opacity="1.0" stroke-linecap="round" stroke-linejoin="round" d="M 366.35955810546875 316.01507568359375 C 332.08740234375 321.9090881347656 376.5339050292969 327.58935546875 383.8243713378906 316.48260498046875 C 352.5701904296875 321.0606689453125 376.63067626953125 299.4642333984375 374.200439453125 321.0286865234375 C 374.0829162597656 340.2052917480469 400.8574523925781 328.5729064941406 368.91424560546875 328.2260437011719 C 391.2081604003906 311.5723571777344 377.0173645019531 354.60369873046875 366.35955810546875 316.01507568359375"/>
    <path stroke-width="0" fill="rgb(6, 2, 13)" opacity="0.6065165" stroke="rgb(220, 29, 131)" stroke-opacity="1.0" stroke-linecap="round" stroke-linejoin="round" d="M 353.445068359375 361.4500427246094 C 373.1617736816406 372.32696533203125 351.58648681640625 340.6011962890625 366.1477355957031 344.1400146484375 C 334.77783203125 428.5175476074219 343.63134765625 368.86492919921875 363.9847106933594 395.3069763183594 C 353.630859375 401.7238464355469 380.4324951171875 419.7099304199219 361.4204406738281 370.6271057128906 C 346.6066589355469 437.33935546875 354.0401306152344 338.8519592285156 353.445068359375 361.4500427246094"/>
    <path stroke-width="0" fill="rgb(244, 238, 256)" opacity="0.97695804" stroke="rgb(182, 100, 144)" stroke-opacity="1.0" stroke-linecap="round" stroke-linejoin="round" d="M 353.29388427734375 375.6250305175781 C 313.96875 370.0089416503906 317.67340087890625 423.1437072753906 342.40533447265625 395.38494873046875 C 337.16143798828125 374.7838134765625 344.6483459472656 361.3310546875 342.4629211425781 371.21160888671875 C 294.7562561035156 343.14190673828125 357.1159973144531 348.2121276855469 321.5576477050781 385.8341979980469 C 332.6192626953125 353.7540283203125 308.852294921875 361.4638671875 353.29388427734375 375.6250305175781"/>
    <path stroke-width="0" fill="rgb(129, 127, 129)" opacity="0.7317292" stroke="rgb(36, 124, 90)" stroke-opacity="1.0" stroke-linecap="round" stroke-linejoin="round" d="M 424.3394775390625 456.75799560546875 C 398.31298828125 496.35028076171875 390.0747985839844 474.4717712402344 373.32275390625 482.8495178222656 C 390.31439208984375 478.0274963378906 373.6554260253906 481.94573974609375 391.8202209472656 474.7235107421875 C 389.3742370605469 471.8666076660156 379.60919189453125 470.2994079589844 410.264892578125 484.7203674316406 C 392.3199462890625 477.999755859375 430.1658935546875 478.6746826171875 424.3394775390625 456.75799560546875"/>
    <path stroke-width="0" fill="rgb(27, 15, 21)" opacity="0.75718755" stroke="rgb(195, 190, 230)" stroke-opacity="1.0" stroke-linecap="round" stroke-linejoin="round" d="M 313.71868896484375 399.1033630371094 C 320.4855651855469 395.2230224609375 312.7203063964844 412.9879150390625 351.64520263671875 430.6455078125 C 296.2774353027344 397.31268310546875 338.0294494628906 431.45172119140625 300.7127990722656 471.3327941894531 C 323.80615234375 357.1532287597656 352.0594177246094 416.1723327636719 319.3222351074219 376.1498107910156 C 342.9102783203125 426.1504821777344 357.4590148925781 384.9897766113281 313.71868896484375 399.1033630371094"/>
    <path stroke-width="0" fill="rgb(40, 35, 46)" opacity="0.81367165" stroke="rgb(140, 149, 245)" stroke-opacity="1.0" stroke-linecap="round" stroke-linejoin="round" d="M 352.5248718261719 328.8118896484375 C 331.48614501953125 370.69866943359375 370.16485595703125 318.75750732421875 335.5562438964844 346.6100769042969 C 321.3003845214844 358.34173583984375 364.2414245605469 265.056640625 329.18975830078125 334.7970275878906 C 316.6094970703125 347.6038513183594 328.0146179199219 335.94903564453125 328.0129089355469 332.82379150390625 C 322.7587890625 335.80767822265625 315.7406005859375 334.23687744140625 352.5248718261719 328.8118896484375"/>
    <path stroke-width="0" fill="rgb(30, 45, 41)" opacity="0.5167389" stroke="rgb(16, 123, 249)" stroke-opacity="1.0" stroke-linecap="round" stroke-linejoin="round" d="M 303.8643798828125 417.61700439453125 C 332.37347412109375 408.973388671875 273.5594482421875 455.2492370605469 315.83685302734375 429.8686828613281 C 315.3343200683594 462.6395263671875 322.444091796875 447.0883483886719 307.0944519042969 454.8030090332031 C 327.8665771484375 438.37652587890625 346.7573547363281 421.06597900390625 318.0360412597656 445.4290771484375 C 351.4980163574219 368.671142578125 320.0821533203125 424.5289001464844 303.8643798828125 417.61700439453125"/>
    <path stroke-width="0" fill="rgb(229, 245, 260)" opacity="0.7395805" stroke="rgb(86, 245, 59)" stroke-opacity="1.0" stroke-linecap="round" stroke-linejoin="round" d="M 331.0790710449219 284.2068176269531 C 347.2825622558594 286.3050231933594 326.9729919433594 293.0509948730469 369.3717346191406 280.8961181640625 C 329.80804443359375 295.3844299316406 333.608154296875 258.51824951171875 331.91107177734375 293.3036804199219 C 352.46441650390625 285.2117614746094 353.3695373535156 273.790771484375 346.3951416015625 293.8447570800781 C 315.7727966308594 273.5216064453125 373.3298034667969 311.6829528808594 331.0790710449219 284.2068176269531"/>
    <path stroke-width="0" fill="rgb(53, 80, 64)" opacity="0.68827504" stroke="rgb(240, 203, 160)" stroke-opacity="1.0" stroke-linecap="round" stroke-linejoin="round" d="M 358.0434875488281 280.2538146972656 C 345.7465515136719 279.2019958496094 389.5363464355469 303.3353271484375 378.07421875 269.4058837890625 C 367.1913146972656 280.2088928222656 378.8701477050781 281.8544006347656 369.3124084472656 292.5104064941406 C 357.873779296875 264.54168701171875 397.2428894042969 282.6777038574219 355.0253601074219 285.7655334472656 C 355.91192626953125 297.03131103515625 350.5554504394531 296.7444152832031 358.0434875488281 280.2538146972656"/>
    <path stroke-width="0" fill="rgb(8, 1, -5)" opacity="0.45001832" stroke="rgb(74, 216, 157)" stroke-opacity="1.0" stroke-linecap="round" stroke-linejoin="round" d="M 367.79620361328125 418.5025634765625 C 372.3114929199219 411.862060546875 370.6827392578125 406.4837646484375 364.99066162109375 415.819091796875 C 378.66058349609375 396.47369384765625 367.201416015625 348.2583312988281 364.14385986328125 411.97015380859375 C 338.5924987792969 348.2348937988281 352.2344055175781 389.8347473144531 346.73455810546875 385.9470520019531 C 364.9466857910156 403.017822265625 355.9864196777344 397.44677734375 367.79620361328125 418.5025634765625"/>
    <path stroke-width="0" fill="rgb(16, 0, 4)" opacity="0.9034111" stroke="rgb(126, 163, 93)" stroke-opacity="1.0" stroke-linecap="round" stroke-linejoin="round" d="M 364.9024658203125 105.41374969482422 C 353.1519470214844 93.77031707763672 352.5825500488281 87.82212829589844 341.8309020996094 87.28036499023438 C 371.6978454589844 121.56554412841797 321.6104431152344 87.61116027832031 358.3087158203125 112.90067291259766 C 382.717041015625 89.41106414794922 348.4425354003906 93.93472290039062 349.5621337890625 103.26189422607422 C 350.9709777832031 103.9538345336914 338.66717529296875 91.42037200927734 364.9024658203125 105.41374969482422"/>
    <path stroke-width="0" fill="rgb(103, 79, 83)" opacity="0.70553696" stroke="rgb(24, 219, 248)" stroke-opacity="1.0" stroke-linecap="round" stroke-linejoin="round" d="M 361.6816711425781 436.6866760253906 C 368.8863220214844 373.64544677734375 383.0282897949219 412.7810363769531 354.7581481933594 375.66778564453125 C 366.07110595703125 405.2947692871094 369.5582580566406 363.26275634765625 360.2143249511719 351.2808532714844 C 385.1031799316406 406.6547546386719 395.8882141113281 349.4151611328125 358.18829345703125 368.9353332519531 C 378.52154541015625 398.40252685546875 360.9748229980469 420.1469421386719 361.6816711425781 436.6866760253906"/>
    <path stroke-width="0" fill="rgb(244, 257, 254)" opacity="0.75727767" stroke="rgb(231, 197, 84)" stroke-opacity="1.0" stroke-linecap="round" stroke-linejoin="round" d="M 356.47528076171875 220.60397338867188 C 365.665771484375 245.68026733398438 379.90264892578125 219.82427978515625 360.97393798828125 223.27806091308594 C 399.7301025390625 214.60337829589844 354.2073669433594 253.6558837890625 371.6036376953125 238.3089141845703 C 362.17779541015625 249.55616760253906 368.5257263183594 258.796630859375 366.1222229003906 207.34396362304688 C 394.2900085449219 243.97369384765625 357.5458679199219 249.4617156982422 356.47528076171875 220.60397338867188"/>
    <path stroke-width="0" fill="rgb(186, 178, 172)" opacity="0.6450738" stroke="rgb(103, 59, 33)" stroke-opacity="1.0" stroke-linecap="round" stroke-linejoin="round" d="M 366.1664733886719 363.773193359375 C 383.27093505859375 349.5037536621094 391.7618408203125 340.4962463378906 365.63104248046875 351.30133056640625 C 370.86932373046875 329.1352844238281 381.4125061035156 347.1461486816406 410.58612060546875 363.89837646484375 C 389.01348876953125 347.6227722167969 376.2725524902344 327.8559265136719 361.3727722167969 359.8697814941406 C 376.0498962402344 392.0091552734375 362.27227783203125 405.45867919921875 366.1664733886719 363.773193359375"/>
    <path stroke-width="0" fill="rgb(97, 113, 112)" opacity="0.8108459" stroke="rgb(107, 142, 219)" stroke-opacity="1.0" stroke-linecap="round" stroke-linejoin="round" d="M 391.4160461425781 345.3507080078125 C 404.3734130859375 378.45416259765625 418.17742919921875 424.1126708984375 420.5118103027344 408.9267578125 C 422.9009094238281 405.6585998535156 409.8223571777344 438.24395751953125 410.8936767578125 392.325439453125 C 419.1396789550781 421.7388610839844 436.427978515625 410.56671142578125 400.8688049316406 408.9560546875 C 411.5992126464844 392.3371276855469 420.7011413574219 412.4295959472656 391.4160461425781 345.3507080078125"/>
    <path stroke-width="0" fill="rgb(100, 96, 104)" opacity="0.47302726" stroke="rgb(68, 33, 14)" stroke-opacity="1.0" stroke-linecap="round" stroke-linejoin="round" d="M 355.46783447265625 311.021484375 C 360.0490417480469 320.27825927734375 333.8980407714844 289.573974609375 353.0427551269531 328.2508239746094 C 362.0121154785156 332.95892333984375 359.46258544921875 293.3196716308594 387.9400329589844 336.3091125488281 C 390.8855895996094 332.8365478515625 384.69586181640625 333.1656799316406 391.949462890625 330.4707336425781 C 360.0908203125 311.3930969238281 363.2052001953125 317.6522216796875 355.46783447265625 311.021484375"/>
    <path stroke-width="0" fill="rgb(186, 178, 177)" opacity="0.7451823" stroke="rgb(66, 116, 174)" stroke-opacity="1.0" stroke-linecap="round" stroke-linejoin="round" d="M 370.87554931640625 406.38214111328125 C 383.9051513671875 378.872802734375 342.4659423828125 379.63018798828125 357.0050354003906 390.6253967285156 C 330.0946350097656 396.5296630859375 347.39178466796875 425.6855163574219 314.01776123046875 373.42230224609375 C 337.3958435058594 395.4607849121094 334.0340270996094 420.9372253417969 370.2007751464844 379.0597839355469 C 359.70367431640625 378.37579345703125 379.79827880859375 379.4168701171875 370.87554931640625 406.38214111328125"/>
    <path stroke-width="0" fill="rgb(57, 65, 77)" opacity="0.7590457" stroke="rgb(72, 96, 46)" stroke-opacity="1.0" stroke-linecap="round" stroke-linejoin="round" d="M 371.1435852050781 434.2322692871094 C 378.9339904785156 428.7777404785156 369.54296875 399.64306640625 412.87677001953125 425.3743896484375 C 380.0147705078125 405.4118957519531 383.1323547363281 396.48626708984375 384.4681091308594 437.4714050292969 C 393.2206726074219 373.4585876464844 385.6932373046875 417.7686462402344 369.1497497558594 418.578125 C 366.5042724609375 393.9736328125 395.68817138671875 443.9818115234375 371.1435852050781 434.2322692871094"/>
    <path stroke-width="0" fill="rgb(204, 214, 215)" opacity="0.73945713" stroke="rgb(66, 95, 149)" stroke-opacity="1.0" stroke-linecap="round" stroke-linejoin="round" d="M 334.9527587890625 323.5712890625 C 322.4267578125 298.1016540527344 333.6719970703125 322.51690673828125 332.03619384765625 341.4014587402344 C 362.75543212890625 311.6875305175781 356.2242431640625 337.3155212402344 349.00750732421875 327.1820068359375 C 344.9761047363281 380.0821838378906 318.7227478027344 317.4423522949219 333.1982421875 326.5985412597656 C 349.5234375 317.1195983886719 333.9468994140625 347.6658935546875 334.9527587890625 323.5712890625"/>
    <path stroke-width="0" fill="rgb(211, 195, 195)" opacity="0.7614501" stroke="rgb(203, 19, 132)" stroke-opacity="1.0" stroke-linecap="round" stroke-linejoin="round" d="M 335.9219055175781 91.91325378417969 C 332.9909973144531 109.93072509765625 359.1660461425781 90.56330871582031 378.31622314453125 111.37372589111328 C 368.1296081542969 114.59028625488281 353.87176513671875 88.3031005859375 369.965576171875 85.21893310546875 C 324.1507873535156 101.4650650024414 339.74114990234375 74.46913146972656 343.485595703125 107.69607543945312 C 351.1812744140625 100.48350524902344 348.34100341796875 90.664306640625 335.9219055175781 91.91325378417969"/>
    <path stroke-width="0" fill="rgb(121, 127, 125)" opacity="0.37469873" stroke="rgb(147, 244, 164)" stroke-opacity="1.0" stroke-linecap="round" stroke-linejoin="round" d="M 329.383544921875 107.77301025390625 C 378.9722900390625 98.96372985839844 399.9217834472656 80.28165435791016 351.48248291015625 70.79911041259766 C 396.55657958984375 84.61390686035156 387.08953857421875 88.48189544677734 395.5321044921875 114.34610748291016 C 368.5537109375 142.9875946044922 365.0218200683594 85.96015930175781 361.305908203125 86.37799072265625 C 387.74334716796875 101.55126953125 413.0766906738281 105.11128997802734 329.383544921875 107.77301025390625"/>
    <path stroke-width="0" fill="rgb(171, 197, 183)" opacity="0.5421939" stroke="rgb(109, 130, 136)" stroke-opacity="1.0" stroke-linecap="round" stroke-linejoin="round" d="M 366.7691955566406 286.0814208984375 C 395.9934997558594 271.56976318359375 368.8515319824219 284.9861755371094 379.4117431640625 278.2240905761719 C 392.2232971191406 278.8788146972656 352.0829162597656 276.63592529296875 382.11236572265625 282.5403747558594 C 340.6927795410156 295.33306884765625 348.1625061035156 255.8184051513672 339.97723388671875 271.39739990234375 C 356.293701171875 274.8418884277344 323.62847900390625 278.87432861328125 366.7691955566406 286.0814208984375"/>
    <path stroke-width="0" fill="rgb(42, 33, 43)" opacity="0.8980784" stroke="rgb(47, 230, 138)" stroke-opacity="1.0" stroke-linecap="round" stroke-linejoin="round" d="M 381.6312561035156 491.3626403808594 C 418.9099426269531 476.0460510253906 389.7605895996094 476.8573303222656 426.7391052246094 486.3733215332031 C 418.2142333984375 485.0255126953125 430.498779296875 461.6177062988281 413.0517578125 490.77886962890625 C 411.9335021972656 494.0838928222656 386.86907958984375 542.45849609375 420.91595458984375 487.00225830078125 C 411.8992919921875 496.32366943359375 433.44873046875 471.75543212890625 381.6312561035156 491.3626403808594"/>
    <path stroke-width="0" fill="rgb(128, 122, 130)" opacity="0.34720123" stroke="rgb(224, 116, 184)" stroke-opacity="1.0" stroke-linecap="round" stroke-linejoin="round" d="M 368.01898193359375 112.44749450683594 C 398.9929504394531 110.0948257446289 377.1802062988281 106.42879486083984 360.89886474609375 86.9196548461914 C 355.96527099609375 116.41343688964844 366.4076232910156 127.3564224243164 390.2376403808594 86.95650482177734 C 369.8524475097656 108.67108917236328 342.58087158203125 81.38645935058594 317.4657287597656 135.7504119873047 C 333.304443359375 102.35298156738281 350.7593078613281 106.5328598022461 368.01898193359375 112.44749450683594"/>
    <path stroke-width="0" fill="rgb(122, 130, 131)" opacity="0.44368967" stroke="rgb(230, 175, 178)" stroke-opacity="1.0" stroke-linecap="round" stroke-linejoin="round" d="M 392.7582092285156 95.05485534667969 C 399.2967529296875 52.24855041503906 397.7113037109375 70.34834289550781 384.8681945800781 97.30658721923828 C 388.2312927246094 98.11222839355469 416.0256042480469 95.08045196533203 402.64373779296875 86.01773071289062 C 366.064208984375 121.61296081542969 326.8997802734375 95.69184112548828 321.0166320800781 101.87651062011719 C 342.0201416015625 118.43781280517578 347.69683837890625 86.88710021972656 392.7582092285156 95.05485534667969"/>
    <path stroke-width="0" fill="rgb(211, 202, 220)" opacity="0.81880146" stroke="rgb(192, 162, 61)" stroke-opacity="1.0" stroke-linecap="round" stroke-linejoin="round" d="M 357.7861022949219 343.74395751953125 C 374.5226745605469 319.6926574707031 354.4329833984375 331.4932556152344 359.2348327636719 334.4803466796875 C 374.8962097167969 338.6762390136719 360.7740783691406 336.6837463378906 354.0144348144531 323.00067138671875 C 354.6504821777344 343.76226806640625 371.5005187988281 334.3645324707031 364.4746398925781 333.3116760253906 C 389.5406188964844 326.5428161621094 392.0545959472656 314.1004333496094 357.7861022949219 343.74395751953125"/>
    <path stroke-width="0" fill="rgb(205, 199, 212)" opacity="0.5791612" stroke="rgb(203, 244, 116)" stroke-opacity="1.0" stroke-linecap="round" stroke-linejoin="round" d="M 395.9253234863281 400.35809326171875 C 437.4817199707031 418.9400329589844 412.9760437011719 408.55804443359375 392.64642333984375 397.7467041015625 C 391.5538330078125 435.1131896972656 400.177490234375 445.837890625 353.29888916015625 406.8853759765625 C 345.15313720703125 351.13446044921875 322.439453125 395.7584533691406 386.03045654296875 431.5772399902344 C 397.9244079589844 389.2057189941406 406.8123474121094 386.8428039550781 395.9253234863281 400.35809326171875"/>
    <path stroke-width="0" fill="rgb(123, 125, 123)" opacity="0.89333194" stroke="rgb(209, 231, 207)" stroke-opacity="1.0" stroke-linecap="round" stroke-linejoin="round" d="M 366.07110595703125 -10.313698768615723 C 358.10107421875 -8.817402839660645 352.18414306640625 -1.461106300354004 369.2245178222656 -3.4766533374786377 C 387.265625 -7.575571537017822 377.2897033691406 -18.447284698486328 367.5125427246094 -32.20763397216797 C 357.3088073730469 10.338201522827148 353.7659606933594 6.857427597045898 346.7136535644531 -32.64646530151367 C 374.9783630371094 -16.048751831054688 375.07598876953125 -11.324017524719238 366.07110595703125 -10.313698768615723"/>
    <path stroke-width="0" fill="rgb(18, 33, 35)" opacity="0.4763013" stroke="rgb(160, 101, 15)" stroke-opacity="1.0" stroke-linecap="round" stroke-linejoin="round" d="M 342.2035827636719 111.5210189819336 C 338.3895263671875 98.40042877197266 346.0559387207031 117.56575012207031 355.0234375 104.609375 C 369.6546936035156 89.56932067871094 368.3755187988281 94.63314819335938 362.5993347167969 102.88087463378906 C 353.9334411621094 95.76985168457031 331.0539245605469 54.77308654785156 359.336669921875 63.926063537597656 C 329.7906799316406 94.62118530273438 371.5647277832031 125.20842742919922 342.2035827636719 111.5210189819336"/>
    <path stroke-width="0" fill="rgb(132, 139, 147)" opacity="0.805634" stroke="rgb(65, 216, 8)" stroke-opacity="1.0" stroke-linecap="round" stroke-linejoin="round" d="M 348.5252380371094 17.292280197143555 C 351.8903503417969 1.3230957984924316 343.15936279296875 18.853416442871094 346.3511047363281 12.01085376739502 C 352.59454345703125 10.661856651306152 342.2544250488281 13.757848739624023 349.3271484375 10.096871376037598 C 351.36376953125 19.37432098388672 341.2083435058594 29.430601119995117 347.6699523925781 10.240239143371582 C 342.4893493652344 26.308088302612305 348.2041931152344 21.200170516967773 348.5252380371094 17.292280197143555"/>
    <path stroke-width="0" fill="rgb(101, 107, 114)" opacity="0.6702501" stroke="rgb(102, 236, 25)" stroke-opacity="1.0" stroke-linecap="round" stroke-linejoin="round" d="M 325.8255615234375 442.8006591796875 C 351.3266906738281 479.3447570800781 347.9816589355469 462.93670654296875 312.70806884765625 415.1026611328125 C 348.8742370605469 455.762451171875 298.75970458984375 395.4971618652344 314.2435607910156 434.4997253417969 C 304.2344055175781 462.7471618652344 323.5052490234375 434.6476745605469 330.8810729980469 437.7011413574219 C 350.4765930175781 403.4763488769531 342.8229675292969 426.49951171875 325.8255615234375 442.8006591796875"/>
    <path stroke-width="0" fill="rgb(76, 52, 58)" opacity="0.55580163" stroke="rgb(17, 64, 56)" stroke-opacity="1.0" stroke-linecap="round" stroke-linejoin="round" d="M 375.51470947265625 73.25653839111328 C 387.6434326171875 70.7099380493164 362.6728210449219 101.58403778076172 396.7961120605469 111.19694519042969 C 376.060546875 104.8041000366211 362.3542785644531 71.2300796508789 379.5089416503906 116.380126953125 C 355.9460144042969 88.74508666992188 360.49285888671875 81.55824279785156 365.4294128417969 97.74244689941406 C 318.2217102050781 93.63773345947266 390.5183410644531 114.5533676147461 375.51470947265625 73.25653839111328"/>
    <path stroke-width="0" fill="rgb(30, 49, 43)" opacity="1.0238229" stroke="rgb(162, 125, 252)" stroke-opacity="1.0" stroke-linecap="round" stroke-linejoin="round" d="M 367.8652038574219 119.97370147705078 C 376.229736328125 86.90223693847656 372.88604736328125 120.7022933959961 363.1496887207031 87.73416900634766 C 354.4457092285156 72.699951171875 345.86260986328125 129.29698181152344 350.04901123046875 115.03986358642578 C 345.2565612792969 76.86634063720703 339.4569396972656 72.51444244384766 341.4349670410156 116.1230239868164 C 374.9361572265625 75.24225616455078 375.94512939453125 72.49397277832031 367.8652038574219 119.97370147705078"/>
    <path stroke-width="0" fill="rgb(6, 1, 17)" opacity="0.53604686" stroke="rgb(199, 73, 61)" stroke-opacity="1.0" stroke-linecap="round" stroke-linejoin="round" d="M 315.3901672363281 457.36456298828125 C 355.8875732421875 475.9993896484375 298.9476013183594 466.1435852050781 354.9461669921875 462.6640625 C 348.8372802734375 441.7822265625 344.6547546386719 470.1317443847656 355.05364990234375 473.18060302734375 C 342.24530029296875 460.9967346191406 312.8349609375 417.7061767578125 329.50787353515625 456.2134704589844 C 353.3018493652344 441.3447265625 331.7461242675781 472.10723876953125 315.3901672363281 457.36456298828125"/>
    <path stroke-width="0" fill="rgb(47, 45, 57)" opacity="0.7733542" stroke="rgb(62, 169, 131)" stroke-opacity="1.0" stroke-linecap="round" stroke-linejoin="round" d="M 302.97808837890625 450.25909423828125 C 319.34381103515625 477.3179931640625 332.9822692871094 466.44927978515625 334.0018310546875 425.7222595214844 C 330.4859313964844 462.43902587890625 286.56036376953125 458.12628173828125 287.39373779296875 501.956298828125 C 303.4548034667969 454.5675964355469 309.3102111816406 456.482177734375 320.654541015625 448.2578430175781 C 322.8614501953125 428.5856628417969 303.70416259765625 463.3218994140625 302.97808837890625 450.25909423828125"/>
    <path stroke-width="0" fill="rgb(180, 178, 194)" opacity="0.7175404" stroke="rgb(141, 73, 180)" stroke-opacity="1.0" stroke-linecap="round" stroke-linejoin="round" d="M 328.5839538574219 439.23480224609375 C 335.70941162109375 470.23382568359375 317.16119384765625 464.6357421875 327.01019287109375 447.8971862792969 C 327.57720947265625 484.7078857421875 331.3917236328125 447.7362365722656 301.0176086425781 452.1457214355469 C 321.6261901855469 475.1855163574219 300.96331787109375 423.1692199707031 322.56268310546875 451.5802917480469 C 295.6256408691406 470.9417724609375 337.6202697753906 462.1987609863281 328.5839538574219 439.23480224609375"/>
    <path stroke-width="0" fill="rgb(121, 136, 128)" opacity="0.36348093" stroke="rgb(91, 211, 235)" stroke-opacity="1.0" stroke-linecap="round" stroke-linejoin="round" d="M 393.98968505859375 73.98320007324219 C 354.9147644042969 81.30782318115234 340.62969970703125 76.47789764404297 356.4988708496094 117.4583740234375 C 356.8429870605469 90.77435302734375 346.2671203613281 80.11580657958984 349.0486145019531 99.52999114990234 C 348.7193298339844 73.21772766113281 369.8089904785156 81.09237670898438 396.6617126464844 72.73951721191406 C 381.4443664550781 38.262306213378906 381.4449157714844 43.84410858154297 393.98968505859375 73.98320007324219"/>
    <path stroke-width="0" fill="rgb(120, 111, 128)" opacity="0.23003794" stroke="rgb(59, 88, 207)" stroke-opacity="1.0" stroke-linecap="round" stroke-linejoin="round" d="M 375.546630859375 133.70301818847656 C 360.5970764160156 130.2615203857422 354.5567932128906 107.54867553710938 337.5475158691406 102.73526000976562 C 365.3768310546875 95.1054916381836 374.73858642578125 87.0644760131836 363.9091491699219 105.65670013427734 C 334.7186279296875 113.5736083984375 346.8766174316406 140.66046142578125 347.0766906738281 103.25425720214844 C 327.3624267578125 91.2774887084961 346.23443603515625 119.12997436523438 375.546630859375 133.70301818847656"/>
    <path stroke-width="0" fill="rgb(260, 271, 255)" opacity="0.48714387" stroke="rgb(63, 27, 242)" stroke-opacity="1.0" stroke-linecap="round" stroke-linejoin="round" d="M 344.4942321777344 104.06344604492188 C 334.6264953613281 72.67615509033203 331.6117858886719 85.29473114013672 336.4349365234375 91.85992431640625 C 369.3782958984375 105.31219482421875 366.0970764160156 82.18174743652344 365.5953674316406 82.803466796875 C 304.5300598144531 84.29298400878906 330.7720031738281 75.14521026611328 363.4957580566406 91.95269775390625 C 347.6339111328125 63.50832748413086 353.83160400390625 101.02032470703125 344.4942321777344 104.06344604492188"/>
    <path stroke-width="0" fill="rgb(252, 268, 259)" opacity="0.5398522" stroke="rgb(175, 14, 186)" stroke-opacity="1.0" stroke-linecap="round" stroke-linejoin="round" d="M 351.7198486328125 73.70974731445312 C 374.2689514160156 66.79529571533203 376.8111267089844 118.34696197509766 337.8646240234375 88.244873046875 C 330.6189880371094 75.83535766601562 339.7030944824219 122.62623596191406 334.2255554199219 93.64473724365234 C 331.64227294921875 99.96610260009766 383.1973571777344 87.48768615722656 359.3279113769531 84.77373504638672 C 366.0288391113281 82.27533721923828 372.314208984375 74.82293701171875 351.7198486328125 73.70974731445312"/>
    <path stroke-width="0" fill="rgb(44, 53, 44)" opacity="0.83260536" stroke="rgb(69, 96, 95)" stroke-opacity="1.0" stroke-linecap="round" stroke-linejoin="round" d="M 354.8722229003906 480.91033935546875 C 408.1886901855469 502.7251281738281 377.3812255859375 440.7608337402344 407.5668640136719 450.2991027832031 C 385.39404296875 453.7742614746094 398.699462890625 451.666015625 391.9569091796875 465.42523193359375 C 384.50921630859375 485.8478088378906 387.5263977050781 465.5309143066406 391.3785095214844 470.77392578125 C 364.1391906738281 469.5180969238281 400.6591796875 486.0554504394531 354.8722229003906 480.91033935546875"/>
    <path stroke-width="0" fill="rgb(121, 139, 166)" opacity="0.18136947" stroke="rgb(213, 60, 128)" stroke-opacity="1.0" stroke-linecap="round" stroke-linejoin="round" d="M 355.3276062011719 123.09745788574219 C 349.49481201171875 109.16633605957031 341.5235900878906 126.90480041503906 333.5635070800781 138.8604736328125 C 351.62432861328125 109.54264068603516 369.47601318359375 101.24967193603516 347.9637145996094 123.50227355957031 C 361.5365905761719 102.41873931884766 371.30718994140625 106.26862335205078 324.7527770996094 122.29789733886719 C 348.7696838378906 113.3136215209961 353.2675476074219 114.77205657958984 355.3276062011719 123.09745788574219"/>
    <path stroke-width="0" fill="rgb(57, 66, 55)" opacity="0.9762271" stroke="rgb(161, 221, 239)" stroke-opacity="1.0" stroke-linecap="round" stroke-linejoin="round" d="M 360.1556396484375 84.42388916015625 C 342.46588134765625 141.75413513183594 337.49102783203125 177.04940795898438 353.4708557128906 133.99862670898438 C 343.3187561035156 135.29823303222656 346.3315734863281 113.36347198486328 328.1477966308594 127.89417266845703 C 343.1658630371094 118.54110717773438 359.42401123046875 108.42549896240234 338.76495361328125 99.63142395019531 C 387.2095947265625 103.8813705444336 356.6971130371094 104.97649383544922 360.1556396484375 84.42388916015625"/>
    <path stroke-width="0" fill="rgb(111, 126, 126)" opacity="0.33604357" stroke="rgb(178, 246, 253)" stroke-opacity="1.0" stroke-linecap="round" stroke-linejoin="round" d="M 398.62640380859375 69.10258483886719 C 413.0318603515625 79.3770980834961 303.124267578125 78.12908935546875 324.58502197265625 76.9009017944336 C 317.5099182128906 103.7456283569336 309.4583740234375 102.39179992675781 311.9557800292969 87.02459716796875 C 311.8572082519531 63.550514221191406 295.07470703125 96.55706024169922 359.0142517089844 70.94715118408203 C 350.9051208496094 51.13240432739258 366.7953186035156 93.06195068359375 398.62640380859375 69.10258483886719"/>
    <path stroke-width="0" fill="rgb(184, 199, 211)" opacity="0.6543549" stroke="rgb(33, 154, 97)" stroke-opacity="1.0" stroke-linecap="round" stroke-linejoin="round" d="M 351.1576232910156 116.16287994384766 C 348.08270263671875 115.70887756347656 351.10687255859375 122.4361572265625 351.318359375 94.56367492675781 C 359.85797119140625 138.6205291748047 325.4296875 129.3826446533203 356.6659240722656 115.35293579101562 C 355.5160217285156 125.23650360107422 337.91290283203125 108.6234130859375 363.3783264160156 120.55088806152344 C 341.7119140625 107.78235626220703 364.9240417480469 117.51060485839844 351.1576232910156 116.16287994384766"/>
    <path stroke-width="0" fill="rgb(28, 32, 46)" opacity="0.7439902" stroke="rgb(246, 139, 70)" stroke-opacity="1.0" stroke-linecap="round" stroke-linejoin="round" d="M 332.651611328125 77.1468505859375 C 351.5210266113281 107.8460693359375 322.2341003417969 82.5880355834961 370.9854431152344 90.45577239990234 C 374.4186706542969 76.28065490722656 342.9054260253906 76.2071533203125 315.3463134765625 85.55773162841797 C 391.6856689453125 81.61422729492188 365.5564270019531 93.09469604492188 367.7601013183594 73.24359130859375 C 348.1242370605469 51.57920837402344 393.17315673828125 82.90633392333984 332.651611328125 77.1468505859375"/>
    <path stroke-width="0" fill="rgb(207, 206, 216)" opacity="0.8381675" stroke="rgb(116, 102, 63)" stroke-opacity="1.0" stroke-linecap="round" stroke-linejoin="round" d="M 315.2173767089844 497.25506591796875 C 287.0231628417969 475.3603515625 293.3016052246094 464.3234558105469 299.4315185546875 475.3150634765625 C 314.4090270996094 464.72998046875 292.70025634765625 454.799560546875 311.0677795410156 486.6170349121094 C 277.8315124511719 475.7229919433594 324.6589660644531 486.4867858886719 296.8953552246094 473.9744873046875 C 287.47943115234375 468.53924560546875 301.7893371582031 481.3529968261719 315.2173767089844 497.25506591796875"/>
    <path stroke-width="0" fill="rgb(122, 122, 136)" opacity="0.9713152" stroke="rgb(79, 95, 133)" stroke-opacity="1.0" stroke-linecap="round" stroke-linejoin="round" d="M 392.27752685546875 114.22091674804688 C 370.6741027832031 118.93196868896484 339.4993896484375 101.49307250976562 322.4584045410156 131.5894317626953 C 376.4367980957031 142.05274963378906 351.1665344238281 152.578369140625 329.8692626953125 127.63057708740234 C 339.1868591308594 134.96640014648438 345.44464111328125 122.31385803222656 354.3786315917969 100.36925506591797 C 326.9764404296875 111.1918716430664 349.89617919921875 114.5282211303711 392.27752685546875 114.22091674804688"/>
    <path stroke-width="0" fill="rgb(60, 71, 76)" opacity="0.6963403" stroke="rgb(85, 235, 219)" stroke-opacity="1.0" stroke-linecap="round" stroke-linejoin="round" d="M 371.76776123046875 106.58535766601562 C 348.3404235839844 113.887939453125 380.3335876464844 103.33372497558594 371.8348083496094 118.74210357666016 C 380.9164733886719 120.44564056396484 353.5415344238281 110.41755676269531 352.7531433105469 127.64856719970703 C 324.82470703125 120.62224578857422 344.8419494628906 108.43225860595703 357.7401428222656 154.4044189453125 C 325.1051940917969 102.6420669555664 364.0746154785156 137.59646606445312 371.76776123046875 106.58535766601562"/>
    <path stroke-width="0" fill="rgb(119, 129, 121)" opacity="0.67618054" stroke="rgb(64, 113, 26)" stroke-opacity="1.0" stroke-linecap="round" stroke-linejoin="round" d="M 368.34765625 102.71952819824219 C 381.2926330566406 140.6895294189453 429.9019775390625 81.8946533203125 337.55963134765625 105.4754867553711 C 356.2264099121094 66.76815795898438 291.5784606933594 89.75833892822266 319.96142578125 77.49899291992188 C 312.855224609375 66.30451202392578 328.3299255371094 82.83143615722656 306.2565612792969 95.93635559082031 C 360.4256286621094 69.26929473876953 341.40283203125 106.56732940673828 368.34765625 102.71952819824219"/>
    <path stroke-width="0" fill="rgb(153, 153, 155)" opacity="0.8943086" stroke="rgb(0, 0, 0)" stroke-opacity="0.0" stroke-linecap="round" stroke-linejoin="round" d="M 493.8974914550781 1.1534069776535034 C 492.30194091796875 4.702694416046143 488.9168701171875 7.233895778656006 485.5054931640625 7.981266975402832 C 482.1747131347656 7.896298885345459 477.9922180175781 5.103336334228516 478.63372802734375 2.7974722385406494 C 480.0736999511719 -1.61416757106781 482.5309143066406 -5.138779163360596 485.8674011230469 -6.609560966491699 C 489.6813049316406 -5.465968608856201 492.2400817871094 -2.3062422275543213 493.8974914550781 1.1534069776535034"/>
    <path stroke-width="0" fill="rgb(66, 136, 34)" opacity="0.79657686" stroke="rgb(0, 0, 0)" stroke-opacity="0.0" stroke-linecap="round" stroke-linejoin="round" d="M 504.43255615234375 0.48237454891204834 C 501.0558166503906 3.3535048961639404 498.7455749511719 6.835996627807617 495.6575927734375 7.939881801605225 C 493.5086364746094 8.477417945861816 490.9795837402344 5.221435546875 489.2752990722656 1.4580426216125488 C 490.5647888183594 -1.4565321207046509 493.6868591308594 -4.461096286773682 497.1685485839844 -5.98549222946167 C 501.7803955078125 -5.132000923156738 506.6148681640625 -1.8545936346054077 504.43255615234375 0.48237454891204834"/>
    <path stroke-width="0" fill="rgb(196, 132, 190)" opacity="0.72973514" stroke="rgb(0, 0, 0)" stroke-opacity="0.0" stroke-linecap="round" stroke-linejoin="round" d="M 227.70401000976562 18.738285064697266 C 227.43650817871094 22.582365036010742 224.32232666015625 25.270715713500977 220.24171447753906 26.111059188842773 C 216.02120971679688 25.219160079956055 213.43202209472656 22.298492431640625 212.8946990966797 17.722118377685547 C 213.35023498535156 14.403462409973145 216.2704620361328 11.500658988952637 220.41033935546875 10.671073913574219 C 224.64349365234375 10.979232788085938 227.1997528076172 13.94255542755127 227.70401000976562 18.738285064697266"/>
    <path stroke-width="0" fill="rgb(225, 180, 160)" opacity="0.7671459" stroke="rgb(0, 0, 0)" stroke-opacity="0.0" stroke-linecap="round" stroke-linejoin="round" d="M 10.488525390625 0.22917914390563965 C 9.387724876403809 4.370917797088623 6.492459774017334 7.205233097076416 2.4531362056732178 8.517077445983887 C -1.5002037286758423 8.391176223754883 -4.317131042480469 5.36093282699585 -5.20937967300415 1.1710542440414429 C -3.9126269817352295 -3.1290175914764404 -0.9844236969947815 -6.057220935821533 3.0142877101898193 -7.128613471984863 C 6.959615230560303 -6.036935329437256 9.747095108032227 -2.978323459625244 10.488525390625 0.22917914390563965"/>
    <path stroke-width="0" fill="rgb(133, 201, 97)" opacity="0.34154904" stroke="rgb(0, 0, 0)" stroke-opacity="0.0" stroke-linecap="round" stroke-linejoin="round" d="M 224.2524871826172 152.59585571289062 C 223.91038513183594 156.20265197753906 220.9615936279297 159.04661560058594 216.67591857910156 160.32687377929688 C 212.66441345214844 159.72117614746094 210.36434936523438 156.2550811767578 209.30389404296875 152.4393310546875 C 210.4146270751953 148.45892333984375 213.1117706298828 145.34625244140625 217.44561767578125 144.30166625976562 C 221.58087158203125 144.82032775878906 223.7518768310547 147.8578643798828 224.2524871826172 152.59585571289062"/>
    <path stroke-width="0" fill="rgb(228, 248, 10)" opacity="0.18162571" stroke="rgb(0, 0, 0)" stroke-opacity="0.0" stroke-linecap="round" stroke-linejoin="round" d="M 344.4699401855469 183.6647491455078 C 343.1692810058594 187.4341583251953 340.23974609375 190.4810333251953 336.4978332519531 191.8565216064453 C 332.4493713378906 191.22702026367188 329.4977111816406 188.47256469726562 329.1517028808594 184.0528564453125 C 330.2192077636719 180.3749237060547 333.1455993652344 177.30711364746094 336.90447998046875 175.86865234375 C 340.5851135253906 177.29144287109375 343.5224914550781 180.2974090576172 344.4699401855469 183.6647491455078"/>
    <path stroke-width="0" fill="rgb(112, 209, 59)" opacity="0.47826484" stroke="rgb(0, 0, 0)" stroke-opacity="0.0" stroke-linecap="round" stroke-linejoin="round" d="M 29.21034049987793 117.20819854736328 C 28.684425354003906 120.40165710449219 25.401023864746094 123.1994857788086 21.25381088256836 124.72831726074219 C 17.25193977355957 123.9566879272461 14.90784740447998 120.86499786376953 14.40610122680664 116.58319091796875 C 15.072237968444824 112.97595977783203 18.048946380615234 109.97480010986328 21.724605560302734 109.06930541992188 C 25.369585037231445 109.91313934326172 27.899892807006836 113.17218780517578 29.21034049987793 117.20819854736328"/>
    <path stroke-width="0" fill="rgb(138, 247, 151)" opacity="0.035899434" stroke="rgb(0, 0, 0)" stroke-opacity="0.0" stroke-linecap="round" stroke-linejoin="round" d="M 170.66604614257812 204.08705139160156 C 169.3200225830078 208.08921813964844 166.38299560546875 210.955078125 162.32476806640625 212.30926513671875 C 158.3859100341797 211.26263427734375 155.68402099609375 208.1885223388672 154.37986755371094 204.22549438476562 C 156.05609130859375 200.7141876220703 158.93434143066406 197.35690307617188 162.3414306640625 196.2418975830078 C 166.28323364257812 197.47637939453125 169.503662109375 200.19293212890625 170.66604614257812 204.08705139160156"/>
    <path stroke-width="0" fill="rgb(193, 110, 176)" opacity="0.7728561" stroke="rgb(0, 0, 0)" stroke-opacity="0.0" stroke-linecap="round" stroke-linejoin="round" d="M 215.35247802734375 308.1346740722656 C 214.3485107421875 311.939453125 211.22418212890625 314.59637451171875 207.560302734375 315.26031494140625 C 203.92837524414062 314.2216796875 201.07098388671875 311.0715637207031 199.81951904296875 307.6702575683594 C 200.45135498046875 303.9481506347656 203.390380859375 301.1927185058594 207.16012573242188 300.6210632324219 C 210.65171813964844 301.5989074707031 213.86245727539062 304.2901611328125 215.35247802734375 308.1346740722656"/>
    <path stroke-width="0" fill="rgb(223, 143, 187)" opacity="0.76525044" stroke="rgb(0, 0, 0)" stroke-opacity="0.0" stroke-linecap="round" stroke-linejoin="round" d="M 509.8337707519531 332.7737121582031 C 508.55914306640625 337.0074462890625 505.8688659667969 340.0224609375 501.79931640625 340.7601318359375 C 497.3157958984375 339.6136779785156 494.1121826171875 336.820556640625 493.30023193359375 332.874267578125 C 494.56646728515625 328.6413269042969 497.4323425292969 325.863037109375 501.5916748046875 325.3016357421875 C 505.4258117675781 325.5589904785156 508.24664306640625 328.65435791015625 509.8337707519531 332.7737121582031"/>
    <path stroke-width="0" fill="rgb(113, 230, 31)" opacity="0.9629342" stroke="rgb(0, 0, 0)" stroke-opacity="0.0" stroke-linecap="round" stroke-linejoin="round" d="M 52.72661590576172 81.49639892578125 C 52.111610412597656 85.60253143310547 49.58019256591797 88.7022933959961 45.75979232788086 89.21388244628906 C 41.4561882019043 87.71588897705078 38.61191177368164 84.93930053710938 37.877464294433594 81.19660949707031 C 38.542884826660156 77.4870376586914 41.19947814941406 74.34185028076172 44.644561767578125 73.25413513183594 C 48.71670913696289 74.68621063232422 51.597572326660156 77.68806457519531 52.72661590576172 81.49639892578125"/>
    <path stroke-width="0" fill="rgb(181, 189, 227)" opacity="0.7898086" stroke="rgb(0, 0, 0)" stroke-opacity="0.0" stroke-linecap="round" stroke-linejoin="round" d="M 67.728759765625 0.15094727277755737 C 66.66845703125 4.157135009765625 63.51829147338867 6.943996906280518 59.388065338134766 8.189738273620605 C 55.55185317993164 7.478114604949951 52.66669464111328 4.520240306854248 51.62455368041992 0.0735953152179718 C 52.516239166259766 -3.8979604244232178 55.73430633544922 -6.62757682800293 59.75727844238281 -7.692544937133789 C 63.752685546875 -6.619194507598877 66.55249786376953 -3.6165771484375 67.728759765625 0.15094727277755737"/>
    <path stroke-width="0" fill="rgb(37, 49, 123)" opacity="0.29304194" stroke="rgb(0, 0, 0)" stroke-opacity="0.0" stroke-linecap="round" stroke-linejoin="round" d="M 263.130615234375 359.2229309082031 C 262.0967712402344 363.3236999511719 259.23992919921875 366.3067932128906 254.8569793701172 367.4759216308594 C 250.8127899169922 366.58087158203125 247.85411071777344 363.7579345703125 247.38516235351562 359.35943603515625 C 248.07566833496094 355.1121520996094 251.27325439453125 352.5946044921875 255.45297241210938 351.2799377441406 C 259.22503662109375 352.2200012207031 262.035400390625 355.324462890625 263.130615234375 359.2229309082031"/>
    <path stroke-width="0" fill="rgb(215, 206, 251)" opacity="0.8355226" stroke="rgb(0, 0, 0)" stroke-opacity="0.0" stroke-linecap="round" stroke-linejoin="round" d="M 11.375465393066406 27.872386932373047 C 10.31243896484375 31.93096351623535 6.968106746673584 34.47148895263672 2.6759390830993652 35.561832427978516 C -1.3904640674591064 35.7930908203125 -4.24298095703125 32.81907653808594 -5.168441295623779 28.033939361572266 C -4.19732666015625 23.452190399169922 -1.305492877960205 20.50247573852539 2.916961193084717 20.249813079833984 C 7.783408164978027 20.94698143005371 10.688997268676758 23.62932586669922 11.375465393066406 27.872386932373047"/>
    <path stroke-width="0" fill="rgb(19, 93, 229)" opacity="0.9413529" stroke="rgb(0, 0, 0)" stroke-opacity="0.0" stroke-linecap="round" stroke-linejoin="round" d="M 73.58560943603516 430.3277282714844 C 72.12247467041016 434.3755187988281 69.2545166015625 437.2808837890625 64.83415985107422 438.2004089355469 C 61.28557586669922 437.66107177734375 58.87057876586914 434.1102294921875 58.10505676269531 430.0216369628906 C 58.36812210083008 426.1967468261719 61.07954025268555 423.3800048828125 65.4746322631836 422.0153503417969 C 69.19432830810547 423.4720153808594 72.15032958984375 426.4913024902344 73.58560943603516 430.3277282714844"/>
    <path stroke-width="0" fill="rgb(131, 141, 85)" opacity="0.057917677" stroke="rgb(0, 0, 0)" stroke-opacity="0.0" stroke-linecap="round" stroke-linejoin="round" d="M 360.3945617675781 21.57427406311035 C 359.9010925292969 26.164403915405273 356.8962097167969 28.83282470703125 352.8164367675781 29.719104766845703 C 348.69671630859375 28.52327537536621 345.6401672363281 25.72429847717285 344.73516845703125 22.00017738342285 C 345.97247314453125 18.02146339416504 348.8673095703125 15.091409683227539 352.5867919921875 13.882991790771484 C 356.6310729980469 14.843205451965332 359.8996887207031 17.551639556884766 360.3945617675781 21.57427406311035"/>
    <path stroke-width="0" fill="rgb(148, 183, 84)" opacity="0.3239529" stroke="rgb(0, 0, 0)" stroke-opacity="0.0" stroke-linecap="round" stroke-linejoin="round" d="M 191.2621612548828 222.96278381347656 C 190.322021484375 226.91323852539062 187.42373657226562 229.78599548339844 183.18955993652344 231.09474182128906 C 179.12039184570312 229.87355041503906 176.4636993408203 226.93382263183594 175.17129516601562 222.58827209472656 C 176.1791534423828 218.924072265625 179.49356079101562 216.08377075195312 183.4581756591797 214.72079467773438 C 187.43313598632812 215.72052001953125 190.27871704101562 218.64617919921875 191.2621612548828 222.96278381347656"/>
    <path stroke-width="0" fill="rgb(185, 162, 193)" opacity="0.7556009" stroke="rgb(0, 0, 0)" stroke-opacity="0.0" stroke-linecap="round" stroke-linejoin="round" d="M 28.589950561523438 132.13809204101562 C 27.835845947265625 135.95492553710938 24.772512435913086 138.61825561523438 20.314306259155273 139.38333129882812 C 16.997373580932617 139.06695556640625 14.131659507751465 135.8733367919922 13.454934120178223 132.35093688964844 C 14.47251033782959 128.34312438964844 17.060184478759766 125.01290130615234 20.835872650146484 124.05029296875 C 24.96796226501465 125.03564453125 27.73834991455078 128.03094482421875 28.589950561523438 132.13809204101562"/>
    <path stroke-width="0" fill="rgb(224, 151, 150)" opacity="0.01735932" stroke="rgb(0, 0, 0)" stroke-opacity="0.0" stroke-linecap="round" stroke-linejoin="round" d="M 396.79071044921875 270.4328918457031 C 396.1579895019531 274.5462646484375 393.7626037597656 277.9756774902344 390.0125427246094 278.8128662109375 C 385.3236999511719 277.5028076171875 382.5278015136719 274.4239501953125 381.347900390625 270.1533508300781 C 381.9994201660156 265.9206848144531 384.8675231933594 262.9680480957031 389.0732421875 262.06658935546875 C 393.4873046875 263.3724365234375 395.9344177246094 266.547119140625 396.79071044921875 270.4328918457031"/>
    <path stroke-width="0" fill="rgb(206, 95, 51)" opacity="0.08309004" stroke="rgb(0, 0, 0)" stroke-opacity="0.0" stroke-linecap="round" stroke-linejoin="round" d="M 174.29905700683594 124.4922866821289 C 173.45750427246094 127.96465301513672 170.3242950439453 130.5238494873047 166.46609497070312 131.64593505859375 C 162.5101776123047 130.89990234375 159.59373474121094 127.99735260009766 158.94859313964844 123.93968200683594 C 159.5284881591797 119.94807434082031 162.470458984375 117.07886505126953 166.38980102539062 116.05259704589844 C 170.23861694335938 117.28778839111328 173.03627014160156 120.32330322265625 174.29905700683594 124.4922866821289"/>
    <path stroke-width="0" fill="rgb(232, 41, 229)" opacity="0.39661264" stroke="rgb(0, 0, 0)" stroke-opacity="0.0" stroke-linecap="round" stroke-linejoin="round" d="M 151.511962890625 159.71142578125 C 150.4254150390625 163.53282165527344 147.3677215576172 166.30465698242188 143.39894104003906 167.2344512939453 C 140.0613250732422 166.6672821044922 137.25856018066406 163.73997497558594 136.3043975830078 159.65896606445312 C 136.79542541503906 155.7592315673828 139.69850158691406 152.95440673828125 143.79052734375 151.97665405273438 C 148.0050811767578 152.95957946777344 150.9324493408203 155.8031005859375 151.511962890625 159.71142578125"/>
    <path stroke-width="0" fill="rgb(54, 166, 31)" opacity="0.6335185" stroke="rgb(0, 0, 0)" stroke-opacity="0.0" stroke-linecap="round" stroke-linejoin="round" d="M 490.5810852050781 507.5511169433594 C 489.76422119140625 511.19464111328125 486.8070373535156 514.0958862304688 482.638671875 515.2395629882812 C 478.3508605957031 514.5908813476562 475.3350830078125 511.7540283203125 474.9225158691406 508.1580810546875 C 476.62664794921875 503.8683776855469 479.41241455078125 500.7740783691406 483.14019775390625 499.7082214355469 C 486.6700134277344 500.39111328125 489.1949768066406 503.602294921875 490.5810852050781 507.5511169433594"/>
    <path stroke-width="0" fill="rgb(97, 100, 150)" opacity="0.8815673" stroke="rgb(0, 0, 0)" stroke-opacity="0.0" stroke-linecap="round" stroke-linejoin="round" d="M 49.14341354370117 -47.53538131713867 C 48.071617126464844 -43.53538131713867 45.14341354370117 -40.607177734375 41.14341354370117 -39.53538131713867 C 37.14341354370117 -40.607177734375 34.2152099609375 -43.53538131713867 33.14341354370117 -47.53538131713867 C 34.2152099609375 -51.53538131713867 37.14341354370117 -54.463584899902344 41.14341354370117 -55.53538131713867 C 45.14341354370117 -54.463584899902344 48.071617126464844 -51.53538131713867 49.14341354370117 -47.53538131713867"/>
  </g>
</svg>
