<?xml version="1.0" ?>
<svg xmlns="http://www.w3.org/2000/svg" version="1.1" width="512" height="512">
  <defs/>
  <g>
    <path stroke-width="0" fill="rgb(108, 65, 126)" opacity="0.8178216" stroke="rgb(139, 182, 153)" stroke-opacity="1.0" stroke-linecap="round" stroke-linejoin="round" d="M 326.20465087890625 424.6856994628906 C 362.5458984375 478.17608642578125 360.2595520019531 496.3439636230469 191.2937774658203 485.8382263183594 C 59.021236419677734 379.1731872558594 57.920352935791016 355.8709411621094 -39.453208923339844 95.17594146728516 C -55.74998092651367 24.691083908081055 -54.507442474365234 -3.2493443489074707 30.783008575439453 -11.693350791931152 C 242.080322265625 164.1507568359375 252.00350952148438 171.6714324951172 326.20465087890625 424.6856994628906"/>
    <path stroke-width="0" fill="rgb(96, 121, 142)" opacity="1.0097275" stroke="rgb(108, 164, 111)" stroke-opacity="1.0" stroke-linecap="round" stroke-linejoin="round" d="M 562.632568359375 103.53528594970703 C 518.5718994140625 395.45526123046875 443.7496337890625 377.4442443847656 301.5608215332031 378.2029113769531 C 145.34164428710938 341.7318420410156 142.17506408691406 312.1343688964844 -50.0543098449707 2.05194091796875 C -5.70611047744751 -61.47223663330078 18.957836151123047 -59.51573944091797 446.24822998046875 -50.592098236083984 C 535.3020629882812 -48.75304412841797 556.3040771484375 -60.0816650390625 562.632568359375 103.53528594970703"/>
    <path stroke-width="0" fill="rgb(111, 161, 115)" opacity="0.99742603" stroke="rgb(245, 97, 201)" stroke-opacity="1.0" stroke-linecap="round" stroke-linejoin="round" d="M 295.9591979980469 524.0835571289062 C 290.2972106933594 570.1263427734375 265.1747741699219 573.4346313476562 -73.39730072021484 555.06591796875 C -78.9822769165039 469.8158264160156 -51.8045539855957 419.02099609375 -46.28164291381836 272.57049560546875 C -56.931453704833984 163.62477111816406 -81.46731567382812 128.18165588378906 -9.422560691833496 109.26077270507812 C 144.2349853515625 188.1953887939453 154.84837341308594 193.84120178222656 295.9591979980469 524.0835571289062"/>
    <path stroke-width="0" fill="rgb(126, 106, 137)" opacity="0.997001" stroke="rgb(144, 236, 18)" stroke-opacity="1.0" stroke-linecap="round" stroke-linejoin="round" d="M 557.802001953125 499.8588562011719 C 564.6090698242188 540.8244018554688 570.5844116210938 555.1404418945312 298.2451477050781 562.1968383789062 C 225.67410278320312 577.9039306640625 200.8131866455078 602.4719848632812 221.8961944580078 375.12103271484375 C 302.6986999511719 235.49403381347656 302.1991271972656 181.55104064941406 541.3223266601562 146.19781494140625 C 576.6678466796875 265.0323486328125 560.8159790039062 308.91241455078125 557.802001953125 499.8588562011719"/>
    <path stroke-width="0" fill="rgb(220, 221, 282)" opacity="0.971101" stroke="rgb(5, 212, 198)" stroke-opacity="1.0" stroke-linecap="round" stroke-linejoin="round" d="M 368.0693054199219 528.91015625 C 364.5356140136719 503.1345520019531 365.5629577636719 512.2237548828125 316.6961669921875 547.1398315429688 C 399.2927551269531 520.6066284179688 319.518798828125 550.5623168945312 336.79681396484375 486.9215393066406 C 333.9369201660156 493.668212890625 328.0931701660156 486.0179138183594 338.8316650390625 501.6170654296875 C 349.3782043457031 508.15875244140625 329.36956787109375 517.7747192382812 368.0693054199219 528.91015625"/>
    <path stroke-width="0" fill="rgb(250, 283, 274)" opacity="0.93416536" stroke="rgb(249, 203, 117)" stroke-opacity="1.0" stroke-linecap="round" stroke-linejoin="round" d="M 356.3476867675781 486.4422912597656 C 281.4873046875 549.917236328125 355.4588928222656 532.9785766601562 341.3896179199219 493.29010009765625 C 346.8162841796875 501.2587585449219 348.0278015136719 490.3650817871094 346.0725402832031 502.86944580078125 C 338.1290283203125 493.0047302246094 368.1109313964844 468.2016906738281 316.0866394042969 473.8426208496094 C 365.1803283691406 455.3519592285156 410.9969787597656 504.5662841796875 356.3476867675781 486.4422912597656"/>
    <path stroke-width="0" fill="rgb(272, 261, 271)" opacity="0.78602386" stroke="rgb(133, 105, 67)" stroke-opacity="1.0" stroke-linecap="round" stroke-linejoin="round" d="M 386.0941162109375 468.7491149902344 C 362.2212829589844 521.10400390625 235.53587341308594 573.3525390625 252.6940155029297 635.0964965820312 C 284.7398376464844 541.4782104492188 294.0196228027344 542.1718139648438 341.7513427734375 550.7490234375 C 347.81732177734375 535.97265625 346.93963623046875 521.218505859375 329.7646789550781 509.93621826171875 C 350.35906982421875 444.0937805175781 305.4404602050781 467.1226501464844 386.0941162109375 468.7491149902344"/>
    <path stroke-width="0" fill="rgb(294, 261, 283)" opacity="1.1322781" stroke="rgb(116, 144, 4)" stroke-opacity="1.0" stroke-linecap="round" stroke-linejoin="round" d="M 371.3252258300781 86.2233657836914 C 370.7323913574219 90.06245422363281 248.4470672607422 72.4277572631836 378.592041015625 74.61669921875 C 375.6383056640625 159.98880004882812 362.63995361328125 28.30909538269043 344.0257568359375 96.38548278808594 C 389.8889465332031 108.4867935180664 363.23876953125 53.494503021240234 322.641845703125 67.60354614257812 C 380.50250244140625 29.708127975463867 324.8935241699219 115.9977798461914 371.3252258300781 86.2233657836914"/>
    <path stroke-width="0" fill="rgb(120, 159, 184)" opacity="0.99863034" stroke="rgb(156, 157, 240)" stroke-opacity="1.0" stroke-linecap="round" stroke-linejoin="round" d="M 384.9728698730469 489.401123046875 C 392.114013671875 535.4795532226562 382.1611633300781 519.6732788085938 355.3948669433594 581.5288696289062 C 438.4385986328125 525.3064575195312 287.83441162109375 511.62921142578125 323.42755126953125 476.686279296875 C 309.2172546386719 492.6730041503906 385.0757141113281 489.7101745605469 385.7022705078125 490.57635498046875 C 384.54296875 454.0291748046875 448.9121398925781 453.8304443359375 384.9728698730469 489.401123046875"/>
    <path stroke-width="0" fill="rgb(3, 21, 22)" opacity="0.7313618" stroke="rgb(91, 111, 177)" stroke-opacity="1.0" stroke-linecap="round" stroke-linejoin="round" d="M 350.7867431640625 74.47235107421875 C 356.70672607421875 47.937381744384766 378.4027404785156 72.9714126586914 356.04510498046875 88.83644104003906 C 351.6639404296875 136.7991180419922 382.61273193359375 52.905818939208984 338.2451477050781 62.85480880737305 C 361.9606018066406 33.09293746948242 353.4818115234375 102.36282348632812 374.77294921875 76.66653442382812 C 249.3826446533203 71.60558319091797 403.48553466796875 82.55985260009766 350.7867431640625 74.47235107421875"/>
    <path stroke-width="0" fill="rgb(139, 150, 161)" opacity="0.8862218" stroke="rgb(170, 171, 53)" stroke-opacity="1.0" stroke-linecap="round" stroke-linejoin="round" d="M 356.34185791015625 486.3600158691406 C 335.54046630859375 455.6517639160156 370.2744140625 543.1029052734375 335.8338928222656 622.4010009765625 C 307.98602294921875 482.4804382324219 337.0729064941406 502.4335632324219 304.1016845703125 501.7334289550781 C 297.1273193359375 494.7555236816406 298.60980224609375 492.9312438964844 354.23699951171875 481.2312316894531 C 334.7962951660156 478.2927551269531 414.4493103027344 477.46746826171875 356.34185791015625 486.3600158691406"/>
    <path stroke-width="0" fill="rgb(97, 118, 140)" opacity="1.0284196" stroke="rgb(80, 92, 145)" stroke-opacity="1.0" stroke-linecap="round" stroke-linejoin="round" d="M 287.5993347167969 509.99761962890625 C 4.374320030212402 256.8486022949219 87.48963165283203 182.37806701660156 87.85550689697266 206.10621643066406 C -60.71306610107422 206.49159240722656 -57.24059295654297 192.45907592773438 -36.45732498168945 127.21184539794922 C -40.78221893310547 64.58954620361328 -46.02934265136719 48.192596435546875 -8.70754623413086 -7.372829914093018 C 287.0690612792969 -419.9092102050781 416.24310302734375 74.42642211914062 287.5993347167969 509.99761962890625"/>
    <path stroke-width="0" fill="rgb(75, 57, 62)" opacity="0.8965109" stroke="rgb(252, 26, 53)" stroke-opacity="1.0" stroke-linecap="round" stroke-linejoin="round" d="M 347.2670593261719 443.53399658203125 C 364.21307373046875 452.8791809082031 318.4217224121094 457.0803527832031 369.176513671875 418.5733947753906 C 295.8413391113281 411.0582275390625 327.2580871582031 436.7663879394531 357.9414367675781 440.5964050292969 C 299.1988830566406 398.55596923828125 313.1898498535156 513.2222290039062 348.48651123046875 361.4368896484375 C 324.83087158203125 481.26470947265625 409.49481201171875 365.6490478515625 347.2670593261719 443.53399658203125"/>
    <path stroke-width="0" fill="rgb(248, 268, 265)" opacity="1.0865556" stroke="rgb(166, 64, 118)" stroke-opacity="1.0" stroke-linecap="round" stroke-linejoin="round" d="M 330.10418701171875 241.3329315185547 C 386.93182373046875 199.45765686035156 391.5050964355469 180.2491912841797 359.85333251953125 190.08395385742188 C 323.88482666015625 269.46636962890625 338.98126220703125 208.2029571533203 339.1458435058594 189.2692413330078 C 339.3938293457031 118.1943130493164 346.84814453125 105.62532806396484 355.6480712890625 177.24246215820312 C 360.9607849121094 188.6336669921875 348.11090087890625 224.4405517578125 330.10418701171875 241.3329315185547"/>
    <path stroke-width="0" fill="rgb(30, 50, 41)" opacity="0.6548133" stroke="rgb(40, 28, 167)" stroke-opacity="1.0" stroke-linecap="round" stroke-linejoin="round" d="M 313.14373779296875 424.3445129394531 C 452.3558044433594 463.514892578125 433.9992370605469 406.5345153808594 362.9503479003906 430.54095458984375 C 373.17071533203125 363.7364501953125 351.0718688964844 433.034423828125 317.576904296875 390.03582763671875 C 316.63470458984375 423.9424743652344 324.0184631347656 392.7837829589844 392.4995422363281 369.2021484375 C 330.6732177734375 418.5553283691406 401.3585510253906 437.6974792480469 313.14373779296875 424.3445129394531"/>
    <path stroke-width="0" fill="rgb(249, 239, 214)" opacity="0.8049787" stroke="rgb(50, 94, 209)" stroke-opacity="1.0" stroke-linecap="round" stroke-linejoin="round" d="M 418.37261962890625 433.5668029785156 C 262.4164123535156 434.4214782714844 413.96661376953125 483.68695068359375 340.9523010253906 448.18035888671875 C 438.4959716796875 408.6961364746094 360.9303283691406 395.5266418457031 373.5163269042969 440.7324523925781 C 445.41900634765625 448.5187683105469 384.9875793457031 431.79168701171875 389.5798034667969 465.885986328125 C 386.7811584472656 428.10333251953125 405.5671081542969 454.8397521972656 418.37261962890625 433.5668029785156"/>
    <path stroke-width="0" fill="rgb(269, 281, 266)" opacity="1.0519344" stroke="rgb(213, 24, 248)" stroke-opacity="1.0" stroke-linecap="round" stroke-linejoin="round" d="M 430.012939453125 436.6183166503906 C 273.1164855957031 433.5743713378906 301.0168762207031 442.2716979980469 310.0939636230469 427.576171875 C 320.7580871582031 416.8603820800781 285.80322265625 416.9933776855469 338.46319580078125 414.0049743652344 C 355.39141845703125 390.3686828613281 266.69488525390625 418.8175354003906 302.6545104980469 451.104736328125 C 316.9615173339844 433.5628967285156 288.0520935058594 448.5431823730469 430.012939453125 436.6183166503906"/>
    <path stroke-width="0" fill="rgb(44, 47, 84)" opacity="0.8292091" stroke="rgb(249, 154, 188)" stroke-opacity="1.0" stroke-linecap="round" stroke-linejoin="round" d="M 345.28802490234375 194.38870239257812 C 389.02716064453125 169.25985717773438 305.4141845703125 207.11654663085938 365.8539733886719 197.59161376953125 C 373.3274230957031 193.6608123779297 365.2867126464844 186.3916015625 355.4557800292969 207.66030883789062 C 363.09283447265625 204.5261993408203 373.99664306640625 190.51983642578125 334.9040222167969 246.43569946289062 C 347.781494140625 234.27113342285156 366.2389221191406 217.02603149414062 345.28802490234375 194.38870239257812"/>
    <path stroke-width="0" fill="rgb(15, 51, 54)" opacity="0.94640535" stroke="rgb(72, 30, 75)" stroke-opacity="1.0" stroke-linecap="round" stroke-linejoin="round" d="M 387.79925537109375 364.0588073730469 C 337.2314758300781 350.08868408203125 314.7710876464844 332.4555358886719 336.216796875 362.5131530761719 C 314.8939208984375 332.5089111328125 378.27130126953125 317.9931335449219 331.5532531738281 343.78338623046875 C 317.409423828125 327.7962951660156 334.6811218261719 289.2186279296875 361.595458984375 310.69061279296875 C 358.1330871582031 363.9328308105469 402.61639404296875 290.3990783691406 387.79925537109375 364.0588073730469"/>
    <path stroke-width="0" fill="rgb(269, 247, 268)" opacity="0.7466587" stroke="rgb(81, 105, 16)" stroke-opacity="1.0" stroke-linecap="round" stroke-linejoin="round" d="M 361.5006408691406 375.45684814453125 C 332.4940185546875 322.31463623046875 378.961669921875 328.9468994140625 329.7118835449219 317.295166015625 C 325.571044921875 387.14215087890625 315.5651550292969 359.3971862792969 340.92437744140625 333.055908203125 C 339.1427307128906 291.0252990722656 360.5917663574219 355.6272888183594 364.2414855957031 327.3902282714844 C 394.7086486816406 362.4212341308594 351.1630859375 322.8975524902344 361.5006408691406 375.45684814453125"/>
    <path stroke-width="0" fill="rgb(4, -2, 57)" opacity="0.7228123" stroke="rgb(144, 67, 133)" stroke-opacity="1.0" stroke-linecap="round" stroke-linejoin="round" d="M 361.05889892578125 470.5511779785156 C 352.24688720703125 401.22314453125 364.44708251953125 475.8972473144531 348.9222717285156 449.23736572265625 C 375.2475891113281 463.72021484375 331.135498046875 472.71051025390625 423.1861572265625 465.50372314453125 C 385.5455627441406 483.3247375488281 342.6504821777344 460.559814453125 360.8074645996094 468.5354309082031 C 179.7674560546875 469.0047912597656 435.34210205078125 478.4071960449219 361.05889892578125 470.5511779785156"/>
    <path stroke-width="0" fill="rgb(79, 51, 39)" opacity="0.8480524" stroke="rgb(146, 236, 81)" stroke-opacity="1.0" stroke-linecap="round" stroke-linejoin="round" d="M 351.146484375 139.5724639892578 C 357.9443054199219 155.96803283691406 317.4000549316406 216.55477905273438 365.3690185546875 151.49952697753906 C 385.3185119628906 149.11517333984375 335.8546142578125 182.5354766845703 338.29022216796875 154.74258422851562 C 335.6996765136719 189.9935760498047 342.3076477050781 185.54872131347656 363.3716735839844 190.62347412109375 C 334.3252868652344 168.39907836914062 324.86370849609375 219.97857666015625 351.146484375 139.5724639892578"/>
    <path stroke-width="0" fill="rgb(262, 268, 266)" opacity="1.1389139" stroke="rgb(33, 182, 73)" stroke-opacity="1.0" stroke-linecap="round" stroke-linejoin="round" d="M 342.4638977050781 263.0789489746094 C 315.19342041015625 222.33096313476562 337.8056335449219 236.912353515625 342.805419921875 253.13453674316406 C 393.63751220703125 210.11277770996094 383.2169494628906 242.74755859375 331.51715087890625 262.4088439941406 C 386.9092712402344 269.16436767578125 327.45953369140625 238.19606018066406 370.91021728515625 255.0818328857422 C 317.0171203613281 262.01837158203125 329.3101501464844 284.7499084472656 342.4638977050781 263.0789489746094"/>
    <path stroke-width="0" fill="rgb(65, 2, 32)" opacity="0.6201718" stroke="rgb(172, 68, 187)" stroke-opacity="1.0" stroke-linecap="round" stroke-linejoin="round" d="M 372.7744445800781 175.98097229003906 C 378.9001159667969 231.37416076660156 371.39056396484375 193.74404907226562 361.4183044433594 202.8365020751953 C 392.155517578125 209.6101531982422 343.822509765625 185.12144470214844 368.0583801269531 198.87147521972656 C 382.7054138183594 229.5279083251953 377.45953369140625 217.00096130371094 375.4245300292969 207.17942810058594 C 362.26800537109375 207.95724487304688 373.5979919433594 201.43450927734375 372.7744445800781 175.98097229003906"/>
    <path stroke-width="0" fill="rgb(240, 270, 288)" opacity="1.092636" stroke="rgb(63, 146, 150)" stroke-opacity="1.0" stroke-linecap="round" stroke-linejoin="round" d="M 395.3740234375 366.27899169921875 C 374.15179443359375 345.3949279785156 352.2431640625 335.84320068359375 403.1939697265625 391.5549011230469 C 358.9886474609375 353.9393310546875 347.9619445800781 413.9657897949219 366.2479248046875 342.53546142578125 C 415.5089111328125 378.7913513183594 351.16668701171875 318.5152587890625 383.7273864746094 343.2649230957031 C 389.7743225097656 286.59100341796875 352.0895690917969 357.86370849609375 395.3740234375 366.27899169921875"/>
    <path stroke-width="0" fill="rgb(261, 281, 258)" opacity="0.775463" stroke="rgb(56, 242, 114)" stroke-opacity="1.0" stroke-linecap="round" stroke-linejoin="round" d="M 378.14471435546875 336.13616943359375 C 345.8003845214844 312.204345703125 377.2742004394531 320.1546936035156 331.715576171875 357.54058837890625 C 319.55584716796875 258.4662170410156 345.0306091308594 320.99200439453125 347.1976623535156 257.2420654296875 C 372.5577392578125 300.7940673828125 292.447998046875 338.94940185546875 356.9539489746094 288.6004333496094 C 375.9142761230469 212.66917419433594 382.82452392578125 275.42083740234375 378.14471435546875 336.13616943359375"/>
    <path stroke-width="0" fill="rgb(261, 264, 247)" opacity="1.0476804" stroke="rgb(178, 75, 207)" stroke-opacity="1.0" stroke-linecap="round" stroke-linejoin="round" d="M 318.90667724609375 519.5988159179688 C 346.29193115234375 427.132568359375 320.8052978515625 492.70147705078125 313.2021789550781 505.32562255859375 C 307.48260498046875 560.4808349609375 270.4572448730469 515.9476928710938 314.1106872558594 528.4857177734375 C 297.58038330078125 516.9566650390625 308.9772644042969 520.6691284179688 311.4399108886719 510.6866760253906 C 322.3138732910156 507.0193786621094 306.1851501464844 534.2445678710938 318.90667724609375 519.5988159179688"/>
    <path stroke-width="0" fill="rgb(271, 286, 262)" opacity="1.0960128" stroke="rgb(184, 127, 243)" stroke-opacity="1.0" stroke-linecap="round" stroke-linejoin="round" d="M 351.6058349609375 65.3558120727539 C 395.5535888671875 49.55654525756836 316.71514892578125 56.10983657836914 339.3444519042969 60.121463775634766 C 312.42669677734375 90.03109741210938 358.06549072265625 63.6279411315918 340.360595703125 66.60193634033203 C 369.9686584472656 58.07004165649414 339.7110595703125 28.945777893066406 357.64801025390625 -6.92498254776001 C 346.3514099121094 86.19048309326172 404.38824462890625 71.84919738769531 351.6058349609375 65.3558120727539"/>
    <path stroke-width="0" fill="rgb(253, 273, 268)" opacity="1.0662913" stroke="rgb(108, 154, 4)" stroke-opacity="1.0" stroke-linecap="round" stroke-linejoin="round" d="M 393.8590087890625 402.29974365234375 C 410.98614501953125 440.5108947753906 392.9581298828125 430.3298034667969 409.37298583984375 413.5637512207031 C 369.84906005859375 413.6180114746094 373.0275573730469 412.9598083496094 375.414306640625 404.0027160644531 C 398.39764404296875 384.5234375 412.08294677734375 416.454833984375 382.6846008300781 383.3017272949219 C 400.1669006347656 397.51654052734375 340.8597412109375 414.90020751953125 393.8590087890625 402.29974365234375"/>
    <path stroke-width="0" fill="rgb(91, 118, 120)" opacity="0.8376862" stroke="rgb(168, 73, 157)" stroke-opacity="1.0" stroke-linecap="round" stroke-linejoin="round" d="M 337.9115295410156 36.54124450683594 C 326.8084411621094 54.45874786376953 322.3612365722656 51.153656005859375 332.5774841308594 50.491058349609375 C 347.75469970703125 53.647727966308594 341.92193603515625 58.811981201171875 331.4116516113281 16.55912208557129 C 341.1646728515625 88.67926788330078 349.2989807128906 57.391571044921875 330.1766052246094 54.61147689819336 C 342.6376953125 40.45724868774414 354.8562927246094 45.63362121582031 337.9115295410156 36.54124450683594"/>
    <path stroke-width="0" fill="rgb(257, 268, 256)" opacity="1.1137127" stroke="rgb(34, 76, 145)" stroke-opacity="1.0" stroke-linecap="round" stroke-linejoin="round" d="M 419.6723937988281 480.8158874511719 C 429.705810546875 504.23809814453125 448.0956115722656 519.9844360351562 408.2063293457031 506.6149597167969 C 404.7947082519531 482.75616455078125 361.5630187988281 492.38916015625 409.265869140625 486.7950744628906 C 420.8277282714844 512.0485229492188 374.2180480957031 520.6504516601562 426.3873596191406 511.82696533203125 C 407.7212829589844 540.2291870117188 399.6473083496094 540.5604248046875 419.6723937988281 480.8158874511719"/>
    <path stroke-width="0" fill="rgb(225, 239, 214)" opacity="0.9950759" stroke="rgb(146, 166, 166)" stroke-opacity="1.0" stroke-linecap="round" stroke-linejoin="round" d="M 332.7935485839844 385.71185302734375 C 379.6118469238281 370.2367248535156 324.3515319824219 290.2719421386719 370.43121337890625 405.6383056640625 C 316.33770751953125 345.6189270019531 353.4360046386719 379.21673583984375 345.7637939453125 346.666259765625 C 374.9739685058594 359.94097900390625 341.9417724609375 322.1382141113281 317.2882080078125 386.92938232421875 C 310.6002502441406 379.9086608886719 330.5564880371094 385.4813232421875 332.7935485839844 385.71185302734375"/>
    <path stroke-width="0" fill="rgb(248, 267, 273)" opacity="1.0601547" stroke="rgb(228, 93, 111)" stroke-opacity="1.0" stroke-linecap="round" stroke-linejoin="round" d="M 371.9634704589844 400.74652099609375 C 397.0422668457031 402.5049133300781 352.73101806640625 399.6376647949219 375.3699035644531 384.5369873046875 C 397.3956298828125 395.2072448730469 404.3834228515625 400.38238525390625 363.9945983886719 370.3202209472656 C 406.7843322753906 417.8260498046875 363.80548095703125 390.16827392578125 385.5372314453125 407.78350830078125 C 391.159423828125 371.1241760253906 356.6028137207031 420.5156555175781 371.9634704589844 400.74652099609375"/>
    <path stroke-width="0" fill="rgb(15, 7, -13)" opacity="0.81613773" stroke="rgb(205, 179, 25)" stroke-opacity="1.0" stroke-linecap="round" stroke-linejoin="round" d="M 344.0391845703125 245.0244140625 C 349.0709228515625 238.25717163085938 397.34185791015625 262.11669921875 353.51873779296875 282.18670654296875 C 348.584716796875 196.99884033203125 361.8211975097656 147.6099853515625 358.2522888183594 233.80502319335938 C 328.5040588378906 238.73147583007812 349.9405822753906 240.79702758789062 350.5585021972656 241.0902099609375 C 376.2254638671875 202.16342163085938 355.57708740234375 237.85508728027344 344.0391845703125 245.0244140625"/>
    <path stroke-width="0" fill="rgb(263, 263, 239)" opacity="1.0719235" stroke="rgb(182, 254, 38)" stroke-opacity="1.0" stroke-linecap="round" stroke-linejoin="round" d="M 390.71771240234375 476.9828796386719 C 392.2021484375 518.3790283203125 427.7603759765625 478.51129150390625 377.4652404785156 544.0511474609375 C 380.0926513671875 513.611083984375 372.9058837890625 496.79095458984375 385.1468505859375 537.4976806640625 C 398.59600830078125 537.6722412109375 403.4391174316406 534.2794799804688 389.2139892578125 538.037841796875 C 401.1922607421875 478.183349609375 384.0408935546875 527.158447265625 390.71771240234375 476.9828796386719"/>
    <path stroke-width="0" fill="rgb(270, 262, 274)" opacity="1.0378431" stroke="rgb(41, 156, 31)" stroke-opacity="1.0" stroke-linecap="round" stroke-linejoin="round" d="M 355.870361328125 45.96654510498047 C 359.7576904296875 56.060977935791016 342.24822998046875 46.88180160522461 334.26776123046875 43.59537887573242 C 354.4949035644531 78.86886596679688 337.26043701171875 20.865751266479492 375.5592346191406 78.14630126953125 C 393.6430969238281 70.62936401367188 348.4955749511719 42.98047637939453 354.135009765625 47.75267791748047 C 328.2364807128906 43.482872009277344 358.1511535644531 48.171504974365234 355.870361328125 45.96654510498047"/>
    <path stroke-width="0" fill="rgb(223, 244, 220)" opacity="1.2473941" stroke="rgb(205, 145, 103)" stroke-opacity="1.0" stroke-linecap="round" stroke-linejoin="round" d="M 341.0173645019531 137.3444061279297 C 350.2998962402344 114.14593505859375 395.2515869140625 171.49737548828125 358.9804382324219 122.67304229736328 C 329.2394104003906 131.5436553955078 339.4346008300781 81.19790649414062 371.9691467285156 105.73893737792969 C 346.4558410644531 94.77954864501953 362.38092041015625 132.4583282470703 355.30743408203125 141.1155242919922 C 351.8530578613281 106.36524200439453 365.942626953125 120.50177764892578 341.0173645019531 137.3444061279297"/>
    <path stroke-width="0" fill="rgb(96, 112, 106)" opacity="0.83159345" stroke="rgb(177, 115, 184)" stroke-opacity="1.0" stroke-linecap="round" stroke-linejoin="round" d="M 355.07904052734375 237.69500732421875 C 331.4049987792969 245.11964416503906 386.655517578125 212.80540466308594 353.1322326660156 223.33349609375 C 394.53887939453125 291.28692626953125 373.75103759765625 248.55020141601562 380.1795349121094 238.1709442138672 C 375.7582092285156 246.74488830566406 365.26708984375 220.27755737304688 359.2447509765625 222.14772033691406 C 375.6583557128906 238.79293823242188 345.4385681152344 206.53395080566406 355.07904052734375 237.69500732421875"/>
    <path stroke-width="0" fill="rgb(39, 6, 17)" opacity="0.83564353" stroke="rgb(248, 218, 2)" stroke-opacity="1.0" stroke-linecap="round" stroke-linejoin="round" d="M 307.6060791015625 503.62738037109375 C 315.095703125 497.3854064941406 316.4486389160156 538.9092407226562 313.78741455078125 555.9251708984375 C 295.1973876953125 535.1104125976562 290.73223876953125 516.864501953125 318.96356201171875 468.0401306152344 C 283.818359375 502.6144714355469 328.1560363769531 487.12506103515625 319.2493591308594 493.1654052734375 C 263.307373046875 490.60260009765625 261.702880859375 528.1273803710938 307.6060791015625 503.62738037109375"/>
    <path stroke-width="0" fill="rgb(261, 260, 247)" opacity="1.0447571" stroke="rgb(186, 43, 132)" stroke-opacity="1.0" stroke-linecap="round" stroke-linejoin="round" d="M 306.5476989746094 519.1878051757812 C 320.5103454589844 490.76470947265625 257.0081481933594 535.8746948242188 294.2523193359375 485.31451416015625 C 315.699462890625 523.005126953125 342.0892028808594 477.4228515625 296.6605224609375 494.07366943359375 C 315.39508056640625 509.1590576171875 328.660888671875 473.14129638671875 298.4130859375 506.58795166015625 C 308.4598083496094 491.9332580566406 278.56036376953125 515.4347534179688 306.5476989746094 519.1878051757812"/>
    <path stroke-width="0" fill="rgb(257, 279, 269)" opacity="0.98938787" stroke="rgb(50, 4, 202)" stroke-opacity="1.0" stroke-linecap="round" stroke-linejoin="round" d="M 366.9725036621094 246.00779724121094 C 355.2630920410156 259.97613525390625 335.1683349609375 256.1954040527344 374.6802978515625 240.51284790039062 C 365.4335021972656 236.96051025390625 327.3380432128906 235.91908264160156 325.141357421875 292.7293395996094 C 333.94451904296875 259.8231201171875 335.81463623046875 241.54702758789062 360.4219970703125 214.7793426513672 C 374.427001953125 229.57662963867188 377.8731384277344 225.0155029296875 366.9725036621094 246.00779724121094"/>
    <path stroke-width="0" fill="rgb(239, 238, 276)" opacity="1.1363094" stroke="rgb(88, 236, 179)" stroke-opacity="1.0" stroke-linecap="round" stroke-linejoin="round" d="M 343.98779296875 140.0490264892578 C 377.0981750488281 190.9163055419922 346.30401611328125 164.8296661376953 360.48822021484375 84.18126678466797 C 378.9716796875 87.74470520019531 355.8357849121094 121.98509216308594 373.9474182128906 139.90093994140625 C 336.1728210449219 101.0642318725586 342.91278076171875 145.7181396484375 364.22625732421875 115.47312927246094 C 326.1855773925781 95.1929702758789 386.0644226074219 151.27659606933594 343.98779296875 140.0490264892578"/>
    <path stroke-width="0" fill="rgb(275, 247, 300)" opacity="0.9905716" stroke="rgb(41, 158, 147)" stroke-opacity="1.0" stroke-linecap="round" stroke-linejoin="round" d="M 392.1800537109375 427.65142822265625 C 418.4761962890625 420.8349914550781 416.96282958984375 465.5083312988281 418.3137512207031 411.7543640136719 C 400.9695739746094 442.3308410644531 408.202880859375 387.8912353515625 394.32318115234375 403.47406005859375 C 398.35272216796875 412.5937194824219 428.8010559082031 426.213134765625 399.0481872558594 406.6764221191406 C 362.9527282714844 421.7275390625 389.3910217285156 388.92657470703125 392.1800537109375 427.65142822265625"/>
    <path stroke-width="0" fill="rgb(77, 115, 157)" opacity="0.9932387" stroke="rgb(238, 156, 136)" stroke-opacity="1.0" stroke-linecap="round" stroke-linejoin="round" d="M 356.4761962890625 28.565183639526367 C 357.7419128417969 69.80863189697266 339.739990234375 55.618560791015625 329.1304626464844 47.021278381347656 C 335.23785400390625 54.176612854003906 331.3453369140625 51.156211853027344 338.1462707519531 58.85515213012695 C 331.2527160644531 44.21200180053711 321.15069580078125 34.122703552246094 358.0126953125 44.56523513793945 C 355.77069091796875 23.218048095703125 360.5889892578125 48.1630859375 356.4761962890625 28.565183639526367"/>
    <path stroke-width="0" fill="rgb(117, 91, 99)" opacity="1.1841692" stroke="rgb(186, 79, 101)" stroke-opacity="1.0" stroke-linecap="round" stroke-linejoin="round" d="M 333.07733154296875 222.60372924804688 C 358.25830078125 193.90585327148438 354.9635314941406 198.6901092529297 354.849609375 241.69786071777344 C 369.2737121582031 238.45452880859375 341.8163757324219 179.60841369628906 360.04840087890625 205.71774291992188 C 316.24151611328125 223.35667419433594 359.50494384765625 218.17544555664062 370.9906005859375 228.23733520507812 C 313.7273254394531 206.64691162109375 352.2112121582031 206.5457763671875 333.07733154296875 222.60372924804688"/>
    <path stroke-width="0" fill="rgb(253, 246, 247)" opacity="1.0825477" stroke="rgb(47, 240, 188)" stroke-opacity="1.0" stroke-linecap="round" stroke-linejoin="round" d="M 372.58477783203125 228.2291259765625 C 395.0599060058594 265.2636413574219 347.1076354980469 299.95477294921875 363.1198425292969 273.6982421875 C 295.95928955078125 292.80206298828125 354.64208984375 262.3989562988281 364.93255615234375 254.5570831298828 C 329.2339782714844 258.1139831542969 354.2440185546875 226.63755798339844 369.13836669921875 236.9874267578125 C 358.882568359375 272.9788513183594 341.8067321777344 251.58737182617188 372.58477783203125 228.2291259765625"/>
    <path stroke-width="0" fill="rgb(27, 57, 30)" opacity="0.5997932" stroke="rgb(57, 64, 14)" stroke-opacity="1.0" stroke-linecap="round" stroke-linejoin="round" d="M 354.8823547363281 219.26002502441406 C 362.767822265625 200.9102783203125 337.492431640625 211.27322387695312 377.5331115722656 232.27780151367188 C 349.5017395019531 255.74473571777344 328.7437438964844 244.02352905273438 371.4808349609375 227.64395141601562 C 365.01031494140625 264.6927795410156 370.2036437988281 214.4618377685547 345.4894104003906 273.1463623046875 C 373.0957946777344 205.7683868408203 336.0169677734375 233.5391387939453 354.8823547363281 219.26002502441406"/>
    <path stroke-width="0" fill="rgb(97, 53, 11)" opacity="0.5300854" stroke="rgb(79, 177, 96)" stroke-opacity="1.0" stroke-linecap="round" stroke-linejoin="round" d="M 375.5126037597656 289.371337890625 C 369.0437316894531 295.14996337890625 365.71820068359375 278.5428466796875 352.7764587402344 317.3148498535156 C 382.9966125488281 339.2259521484375 369.1878662109375 296.2855529785156 369.0686950683594 313.60980224609375 C 369.1767578125 246.7933807373047 401.62322998046875 255.58348083496094 355.91729736328125 300.401123046875 C 348.474365234375 303.5224609375 357.4801025390625 316.43450927734375 375.5126037597656 289.371337890625"/>
    <path stroke-width="0" fill="rgb(70, 56, 100)" opacity="1.0336473" stroke="rgb(6, 17, 173)" stroke-opacity="1.0" stroke-linecap="round" stroke-linejoin="round" d="M 400.91302490234375 396.5066223144531 C 408.2045593261719 384.95745849609375 344.5623474121094 390.1728210449219 392.2337341308594 387.736083984375 C 396.2951354980469 441.1005554199219 403.20782470703125 447.1396789550781 402.823486328125 416.52587890625 C 379.2178955078125 291.5695495605469 380.73272705078125 395.15106201171875 405.2574768066406 406.11761474609375 C 392.25128173828125 422.18634033203125 419.1123962402344 417.2192077636719 400.91302490234375 396.5066223144531"/>
    <path stroke-width="0" fill="rgb(32, -7, -3)" opacity="0.7913985" stroke="rgb(136, 228, 252)" stroke-opacity="1.0" stroke-linecap="round" stroke-linejoin="round" d="M 332.102294921875 153.74378967285156 C 387.9622802734375 115.00056457519531 370.33673095703125 114.08470916748047 363.5094909667969 127.66868591308594 C 364.3840026855469 144.1549072265625 369.74578857421875 127.09014129638672 367.36932373046875 148.03634643554688 C 372.3392639160156 155.2515106201172 379.0456237792969 110.37195587158203 354.1026306152344 124.72933197021484 C 349.4010925292969 105.94381713867188 388.27484130859375 106.01858520507812 332.102294921875 153.74378967285156"/>
    <path stroke-width="0" fill="rgb(3, 41, 79)" opacity="0.6986607" stroke="rgb(169, 67, 5)" stroke-opacity="1.0" stroke-linecap="round" stroke-linejoin="round" d="M 343.66412353515625 256.11395263671875 C 350.5498962402344 285.5523986816406 353.5920104980469 288.7278747558594 364.7373046875 293.7078552246094 C 375.3063659667969 272.6449279785156 345.5903015136719 326.7659606933594 353.90869140625 301.2862854003906 C 346.5873107910156 240.3071746826172 336.658203125 279.87933349609375 359.1677551269531 266.9493103027344 C 360.3954162597656 280.3918151855469 347.38189697265625 283.3560791015625 343.66412353515625 256.11395263671875"/>
    <path stroke-width="0" fill="rgb(294, 279, 234)" opacity="0.66701895" stroke="rgb(81, 97, 150)" stroke-opacity="1.0" stroke-linecap="round" stroke-linejoin="round" d="M 362.5617370605469 186.3903045654297 C 343.535888671875 115.66960906982422 366.2550354003906 239.3131103515625 371.5926513671875 166.88604736328125 C 369.48577880859375 133.03399658203125 340.228759765625 152.1957244873047 372.9979248046875 99.5343246459961 C 321.4635925292969 162.15817260742188 339.1938171386719 105.57124328613281 368.7442321777344 113.44159698486328 C 320.45745849609375 140.65379333496094 362.28411865234375 116.5440902709961 362.5617370605469 186.3903045654297"/>
    <path stroke-width="0" fill="rgb(55, 9, -3)" opacity="0.6646422" stroke="rgb(160, 222, 69)" stroke-opacity="1.0" stroke-linecap="round" stroke-linejoin="round" d="M 366.4897766113281 270.8146667480469 C 371.2060546875 239.02525329589844 377.81268310546875 245.86241149902344 339.4506530761719 244.96759033203125 C 340.8399658203125 250.38401794433594 329.30859375 278.99481201171875 339.3337707519531 218.47557067871094 C 332.5489807128906 203.01084899902344 328.4290771484375 253.86639404296875 337.49554443359375 252.63192749023438 C 390.3211669921875 225.08123779296875 367.9512634277344 188.17019653320312 366.4897766113281 270.8146667480469"/>
    <path stroke-width="0" fill="rgb(61, 23, 59)" opacity="0.88899356" stroke="rgb(47, 242, 175)" stroke-opacity="1.0" stroke-linecap="round" stroke-linejoin="round" d="M 359.6180725097656 310.5989685058594 C 370.8486328125 353.93121337890625 393.066162109375 253.13729858398438 382.1242370605469 333.51849365234375 C 342.5472106933594 303.93536376953125 366.66943359375 245.00064086914062 327.98626708984375 299.5350036621094 C 375.9543151855469 249.3072509765625 345.4623107910156 280.6893310546875 352.988525390625 299.62274169921875 C 367.9259338378906 265.784423828125 337.00067138671875 275.72943115234375 359.6180725097656 310.5989685058594"/>
    <path stroke-width="0" fill="rgb(1, 14, -11)" opacity="0.8308399" stroke="rgb(241, 186, 64)" stroke-opacity="1.0" stroke-linecap="round" stroke-linejoin="round" d="M 358.8674011230469 300.68988037109375 C 331.5332946777344 287.1617126464844 380.1560363769531 279.8540954589844 350.20257568359375 287.2762451171875 C 361.23309326171875 274.9085998535156 356.2541198730469 243.39625549316406 354.23065185546875 271.1673583984375 C 372.5760192871094 272.80322265625 367.648193359375 247.00624084472656 344.1857604980469 296.8150329589844 C 368.08856201171875 285.6566162109375 341.79302978515625 303.6826477050781 358.8674011230469 300.68988037109375"/>
    <path stroke-width="0" fill="rgb(256, 258, 267)" opacity="1.1010942" stroke="rgb(132, 6, 52)" stroke-opacity="1.0" stroke-linecap="round" stroke-linejoin="round" d="M 367.0054016113281 313.0091247558594 C 332.5888977050781 320.8594970703125 383.4100341796875 332.2889404296875 380.4376525878906 317.4173889160156 C 348.16900634765625 314.5939025878906 373.3220520019531 294.7162170410156 374.87664794921875 321.7074279785156 C 372.78887939453125 346.503662109375 397.63226318359375 328.4112854003906 370.6689453125 326.886962890625 C 393.3888244628906 313.24102783203125 376.9553527832031 356.5025939941406 367.0054016113281 313.0091247558594"/>
    <path stroke-width="0" fill="rgb(-7, 2, -13)" opacity="0.6645542" stroke="rgb(220, 29, 131)" stroke-opacity="1.0" stroke-linecap="round" stroke-linejoin="round" d="M 356.5979919433594 363.3321533203125 C 372.9381408691406 372.71624755859375 349.849853515625 339.9169921875 365.6735534667969 345.14752197265625 C 335.0826110839844 428.0735778808594 348.7010803222656 367.9718017578125 369.2740478515625 395.0942687988281 C 348.4506530761719 402.6403503417969 380.9818420410156 420.6364440917969 365.3315124511719 371.4009704589844 C 346.79510498046875 440.6805114746094 355.5566711425781 340.21295166015625 356.5979919433594 363.3321533203125"/>
    <path stroke-width="0" fill="rgb(256, 235, 263)" opacity="1.050359" stroke="rgb(182, 100, 144)" stroke-opacity="1.0" stroke-linecap="round" stroke-linejoin="round" d="M 350.3692321777344 375.83123779296875 C 310.9152526855469 370.7499084472656 313.78973388671875 425.4036865234375 343.73992919921875 394.46246337890625 C 330.3497619628906 373.81243896484375 340.03057861328125 359.5704345703125 344.0149230957031 373.8225402832031 C 294.22503662109375 342.9700927734375 364.62353515625 345.4466247558594 322.1853332519531 384.6457824707031 C 333.0103759765625 347.37408447265625 312.6435241699219 359.6828308105469 350.3692321777344 375.83123779296875"/>
    <path stroke-width="0" fill="rgb(19, 25, 5)" opacity="0.69234455" stroke="rgb(195, 190, 230)" stroke-opacity="1.0" stroke-linecap="round" stroke-linejoin="round" d="M 317.0766296386719 398.4037170410156 C 319.019775390625 399.5045471191406 309.4493713378906 414.8689880371094 345.0523986816406 435.49029541015625 C 294.02783203125 399.0113525390625 333.7806396484375 428.0769958496094 299.81787109375 469.41387939453125 C 327.7004699707031 354.48291015625 353.171875 410.0537109375 316.9563903808594 376.9115905761719 C 343.9994201660156 426.837890625 355.0763854980469 384.0069580078125 317.0766296386719 398.4037170410156"/>
    <path stroke-width="0" fill="rgb(16, 36, 63)" opacity="0.77909416" stroke="rgb(140, 149, 245)" stroke-opacity="1.0" stroke-linecap="round" stroke-linejoin="round" d="M 354.6613464355469 326.3536376953125 C 332.53729248046875 369.4585876464844 372.2252197265625 312.76068115234375 336.7818908691406 343.7255859375 C 321.1925964355469 358.5943908691406 364.176513671875 271.5278625488281 328.6451721191406 336.3334655761719 C 322.15521240234375 355.61212158203125 330.5519104003906 338.9683532714844 328.7684631347656 337.05560302734375 C 322.2716979980469 336.42938232421875 314.7004699707031 333.718505859375 354.6613464355469 326.3536376953125"/>
    <path stroke-width="0" fill="rgb(68, 43, 32)" opacity="0.42832762" stroke="rgb(16, 123, 249)" stroke-opacity="1.0" stroke-linecap="round" stroke-linejoin="round" d="M 304.8133544921875 420.3630676269531 C 332.0450744628906 406.1768493652344 272.76708984375 449.9115905761719 318.8820495605469 427.16552734375 C 319.45550537109375 459.92626953125 324.45159912109375 445.1445617675781 309.018310546875 456.5019226074219 C 328.2760925292969 438.5168151855469 350.1502990722656 424.314697265625 316.6455383300781 444.6864013671875 C 356.7286376953125 369.4590759277344 321.6220397949219 423.54931640625 304.8133544921875 420.3630676269531"/>
    <path stroke-width="0" fill="rgb(280, 262, 290)" opacity="0.905925" stroke="rgb(86, 245, 59)" stroke-opacity="1.0" stroke-linecap="round" stroke-linejoin="round" d="M 333.6797180175781 287.1012878417969 C 347.2105407714844 284.7257385253906 323.4039306640625 287.12042236328125 364.9962158203125 277.3695983886719 C 333.20086669921875 296.7319641113281 334.0871276855469 254.98512268066406 329.31964111328125 292.7472229003906 C 355.7358703613281 284.0689697265625 361.1958923339844 275.7368469238281 346.684326171875 293.056396484375 C 317.7911682128906 272.5841979980469 375.6363830566406 310.64080810546875 333.6797180175781 287.1012878417969"/>
    <path stroke-width="0" fill="rgb(96, 111, 47)" opacity="0.50799686" stroke="rgb(240, 203, 160)" stroke-opacity="1.0" stroke-linecap="round" stroke-linejoin="round" d="M 358.2178649902344 280.296142578125 C 338.21722412109375 278.8800964355469 382.6500549316406 299.3760986328125 374.4605407714844 264.31939697265625 C 366.0232238769531 279.8667297363281 375.060546875 282.38946533203125 371.1947326660156 295.59716796875 C 362.7377014160156 267.36297607421875 398.83355712890625 283.5435791015625 354.5387878417969 287.31829833984375 C 353.5865783691406 296.8193054199219 350.8443603515625 297.6302795410156 358.2178649902344 280.296142578125"/>
    <path stroke-width="0" fill="rgb(-6, -20, 18)" opacity="0.468444" stroke="rgb(74, 216, 157)" stroke-opacity="1.0" stroke-linecap="round" stroke-linejoin="round" d="M 365.5296325683594 420.3034973144531 C 376.60516357421875 413.8292236328125 369.85687255859375 405.1483459472656 365.2686462402344 418.5123291015625 C 375.1656799316406 404.7322692871094 364.2240295410156 354.3463134765625 365.2611389160156 415.71795654296875 C 334.07623291015625 352.26300048828125 350.6519775390625 390.3827819824219 348.1871337890625 383.9924011230469 C 365.3078918457031 404.3644714355469 353.101318359375 401.4416809082031 365.5296325683594 420.3034973144531"/>
    <path stroke-width="0" fill="rgb(57, -28, -13)" opacity="0.8715554" stroke="rgb(126, 163, 93)" stroke-opacity="1.0" stroke-linecap="round" stroke-linejoin="round" d="M 364.6154479980469 110.98645782470703 C 355.7703552246094 91.99406433105469 351.1941833496094 88.34081268310547 343.71661376953125 83.7281265258789 C 375.3759460449219 117.58329772949219 324.93603515625 84.57939910888672 360.8591613769531 113.56941986083984 C 386.36669921875 93.7257080078125 352.392578125 96.324951171875 351.2012023925781 103.89417266845703 C 348.4480895996094 106.10714721679688 330.00390625 99.49610137939453 364.6154479980469 110.98645782470703"/>
    <path stroke-width="0" fill="rgb(141, 94, 46)" opacity="0.75660735" stroke="rgb(24, 219, 248)" stroke-opacity="1.0" stroke-linecap="round" stroke-linejoin="round" d="M 361.1750183105469 432.2626953125 C 367.654052734375 375.6029052734375 382.907470703125 414.5219421386719 353.79632568359375 376.0135498046875 C 368.4726257324219 404.3471984863281 371.8292236328125 362.39251708984375 361.7833251953125 349.6685485839844 C 383.66796875 407.0360412597656 392.4310607910156 351.2433776855469 359.1667785644531 367.0799865722656 C 381.961669921875 399.1284484863281 360.8805847167969 419.3777160644531 361.1750183105469 432.2626953125"/>
    <path stroke-width="0" fill="rgb(263, 281, 283)" opacity="0.9008641" stroke="rgb(231, 197, 84)" stroke-opacity="1.0" stroke-linecap="round" stroke-linejoin="round" d="M 356.5333251953125 222.2863311767578 C 366.82647705078125 244.7986297607422 381.3356018066406 218.20086669921875 363.770263671875 218.08677673339844 C 399.8733215332031 207.08416748046875 351.8646545410156 247.6317138671875 372.5481872558594 238.0791473388672 C 362.31396484375 250.289794921875 364.40557861328125 257.79949951171875 364.46661376953125 201.91351318359375 C 396.2103271484375 243.4519805908203 355.7029724121094 252.0666046142578 356.5333251953125 222.2863311767578"/>
    <path stroke-width="0" fill="rgb(192, 176, 146)" opacity="0.67814547" stroke="rgb(103, 59, 33)" stroke-opacity="1.0" stroke-linecap="round" stroke-linejoin="round" d="M 367.82611083984375 367.5877990722656 C 385.0899658203125 349.38092041015625 394.451416015625 338.0349426269531 363.9654541015625 350.6654968261719 C 367.39752197265625 333.2078552246094 381.0215148925781 348.771728515625 407.56134033203125 367.57666015625 C 384.36395263671875 353.5057067871094 370.76220703125 331.774658203125 361.5729675292969 359.29132080078125 C 378.02203369140625 389.3784484863281 364.19183349609375 402.58953857421875 367.82611083984375 367.5877990722656"/>
    <path stroke-width="0" fill="rgb(116, 115, 131)" opacity="0.79277915" stroke="rgb(107, 142, 219)" stroke-opacity="1.0" stroke-linecap="round" stroke-linejoin="round" d="M 386.82171630859375 348.6598205566406 C 402.60064697265625 380.113037109375 418.52294921875 424.1726989746094 427.14599609375 413.0941162109375 C 428.7350158691406 412.0706481933594 413.8009948730469 443.93194580078125 413.91766357421875 397.1865234375 C 419.13031005859375 420.1996154785156 438.6329040527344 409.80218505859375 401.7988586425781 409.3301086425781 C 408.9270935058594 392.2047119140625 418.0583190917969 414.3345947265625 386.82171630859375 348.6598205566406"/>
    <path stroke-width="0" fill="rgb(122, 89, 95)" opacity="0.40757197" stroke="rgb(68, 33, 14)" stroke-opacity="1.0" stroke-linecap="round" stroke-linejoin="round" d="M 351.03057861328125 314.0557861328125 C 354.8072814941406 322.622802734375 332.492431640625 286.4940490722656 354.119384765625 326.3019104003906 C 365.8974304199219 338.0086975097656 361.54156494140625 299.85833740234375 387.3621520996094 339.39483642578125 C 387.83673095703125 328.40478515625 381.3689270019531 330.3086853027344 393.30535888671875 330.7040100097656 C 361.5840759277344 310.1802062988281 361.9560241699219 319.7240905761719 351.03057861328125 314.0557861328125"/>
    <path stroke-width="0" fill="rgb(160, 160, 187)" opacity="0.62171704" stroke="rgb(66, 116, 174)" stroke-opacity="1.0" stroke-linecap="round" stroke-linejoin="round" d="M 370.9530944824219 406.7137756347656 C 386.0709228515625 377.94366455078125 347.2190246582031 379.8409118652344 355.747802734375 388.49493408203125 C 334.3132019042969 395.6807861328125 352.67919921875 420.8664245605469 316.6131896972656 370.3258361816406 C 336.24554443359375 396.9078063964844 332.9842529296875 417.9156494140625 369.5614318847656 377.2788391113281 C 361.57708740234375 377.2933349609375 379.5321960449219 377.78515625 370.9530944824219 406.7137756347656"/>
    <path stroke-width="0" fill="rgb(41, 79, 53)" opacity="0.80305624" stroke="rgb(72, 96, 46)" stroke-opacity="1.0" stroke-linecap="round" stroke-linejoin="round" d="M 367.3686218261719 433.6136779785156 C 376.43817138671875 427.530517578125 368.5860290527344 400.94464111328125 410.1123962402344 429.47393798828125 C 379.5700378417969 404.9140319824219 383.27191162109375 397.1631164550781 381.1090393066406 436.9046630859375 C 392.0504455566406 373.04193115234375 384.3281555175781 416.6634216308594 367.7444763183594 417.0529479980469 C 363.84735107421875 395.5544738769531 393.4597473144531 445.8484191894531 367.3686218261719 433.6136779785156"/>
    <path stroke-width="0" fill="rgb(224, 246, 229)" opacity="0.9243672" stroke="rgb(66, 95, 149)" stroke-opacity="1.0" stroke-linecap="round" stroke-linejoin="round" d="M 335.6634521484375 322.8448181152344 C 324.04803466796875 296.5608825683594 334.7762756347656 324.04779052734375 330.51824951171875 341.0563049316406 C 364.54058837890625 315.0257873535156 361.9525146484375 338.8008117675781 351.6448669433594 323.1678161621094 C 345.5636901855469 378.11065673828125 317.9851379394531 318.013671875 333.1835632324219 327.3841857910156 C 352.01507568359375 315.5503234863281 333.9299621582031 349.3994140625 335.6634521484375 322.8448181152344"/>
    <path stroke-width="0" fill="rgb(222, 234, 257)" opacity="0.98971844" stroke="rgb(203, 19, 132)" stroke-opacity="1.0" stroke-linecap="round" stroke-linejoin="round" d="M 333.17364501953125 90.55956268310547 C 332.5009460449219 113.7099609375 359.5937194824219 91.50137329101562 376.6052551269531 108.83917236328125 C 368.9513244628906 112.44129180908203 353.32403564453125 86.8730239868164 371.0190734863281 87.20652770996094 C 326.9931945800781 102.4073715209961 341.6982727050781 73.53560638427734 344.7371520996094 106.32218170166016 C 348.0841369628906 100.53204345703125 346.1788024902344 87.49195861816406 333.17364501953125 90.55956268310547"/>
    <path stroke-width="0" fill="rgb(96, 132, 109)" opacity="0.21876681" stroke="rgb(147, 244, 164)" stroke-opacity="1.0" stroke-linecap="round" stroke-linejoin="round" d="M 329.82672119140625 106.2779769897461 C 380.10736083984375 99.76383972167969 400.6199035644531 81.0247573852539 353.2627258300781 69.0675277709961 C 398.1788635253906 83.00399017333984 390.66717529296875 87.13674926757812 397.8971862792969 114.97319793701172 C 369.60919189453125 142.78855895996094 364.19329833984375 86.51504516601562 358.7955627441406 87.47315216064453 C 386.04302978515625 102.36275482177734 410.4471740722656 103.17221069335938 329.82672119140625 106.2779769897461"/>
    <path stroke-width="0" fill="rgb(198, 210, 174)" opacity="0.46701822" stroke="rgb(109, 130, 136)" stroke-opacity="1.0" stroke-linecap="round" stroke-linejoin="round" d="M 364.6580810546875 283.9410400390625 C 393.0763854980469 270.7004089355469 369.7986755371094 285.05230712890625 376.1153869628906 280.66522216796875 C 393.24859619140625 281.6851806640625 355.826416015625 279.25579833984375 379.2596130371094 284.6918029785156 C 340.52008056640625 296.7475891113281 349.1044006347656 255.89239501953125 341.3489074707031 268.6422119140625 C 364.2876892089844 274.6912536621094 329.1119384765625 278.61920166015625 364.6580810546875 283.9410400390625"/>
    <path stroke-width="0" fill="rgb(75, 2, 38)" opacity="0.9511559" stroke="rgb(47, 230, 138)" stroke-opacity="1.0" stroke-linecap="round" stroke-linejoin="round" d="M 384.07025146484375 493.7460021972656 C 418.2135925292969 476.0210266113281 386.72021484375 480.4049072265625 427.4336853027344 488.9559631347656 C 417.2236633300781 481.3659973144531 427.7321472167969 459.1869201660156 414.3737487792969 490.71868896484375 C 409.6465148925781 491.8843078613281 388.099853515625 543.7929077148438 419.9457702636719 487.57855224609375 C 407.9865417480469 498.5365295410156 430.5586242675781 474.7825622558594 384.07025146484375 493.7460021972656"/>
    <path stroke-width="0" fill="rgb(146, 91, 150)" opacity="0.22714987" stroke="rgb(224, 116, 184)" stroke-opacity="1.0" stroke-linecap="round" stroke-linejoin="round" d="M 368.4790954589844 112.16226959228516 C 398.4243469238281 110.63292694091797 373.4057922363281 110.01806640625 358.5741882324219 91.08484649658203 C 354.79718017578125 115.59544372558594 362.8587646484375 124.87335205078125 390.83306884765625 92.47979736328125 C 376.1358947753906 114.41764068603516 343.2108459472656 83.11749267578125 314.5479431152344 133.6449737548828 C 334.4535827636719 101.50601959228516 350.0821838378906 106.86434173583984 368.4790954589844 112.16226959228516"/>
    <path stroke-width="0" fill="rgb(92, 123, 137)" opacity="0.32590923" stroke="rgb(230, 175, 178)" stroke-opacity="1.0" stroke-linecap="round" stroke-linejoin="round" d="M 395.52227783203125 96.8548812866211 C 399.9340515136719 53.91701889038086 396.4443054199219 70.59149169921875 386.0290222167969 95.4344711303711 C 387.4299011230469 98.79399108886719 410.05316162109375 99.8349609375 400.3702392578125 88.17082977294922 C 367.8902587890625 120.41253662109375 329.14501953125 93.44207763671875 318.1348571777344 100.15802001953125 C 341.9366149902344 122.74646759033203 350.6143798828125 91.59246826171875 395.52227783203125 96.8548812866211"/>
    <path stroke-width="0" fill="rgb(228, 195, 233)" opacity="0.820035" stroke="rgb(192, 162, 61)" stroke-opacity="1.0" stroke-linecap="round" stroke-linejoin="round" d="M 357.2174987792969 345.2851867675781 C 371.2052917480469 318.0490417480469 349.9339904785156 328.1562194824219 353.18994140625 333.1387023925781 C 373.694091796875 339.5373840332031 361.81884765625 335.8732604980469 354.2880859375 318.5932922363281 C 352.8017272949219 345.67108154296875 369.6738586425781 335.3029479980469 364.2630920410156 332.94390869140625 C 386.1572265625 325.5489196777344 390.239501953125 312.6474609375 357.2174987792969 345.2851867675781"/>
    <path stroke-width="0" fill="rgb(219, 198, 231)" opacity="0.547365" stroke="rgb(203, 244, 116)" stroke-opacity="1.0" stroke-linecap="round" stroke-linejoin="round" d="M 393.08282470703125 402.52239990234375 C 433.2931213378906 419.6151123046875 410.1127624511719 410.9031982421875 395.599853515625 399.3123779296875 C 390.2241516113281 433.2779541015625 399.4703674316406 444.23394775390625 354.757080078125 406.8905334472656 C 350.67425537109375 355.0304260253906 324.3416748046875 395.5502624511719 386.02386474609375 431.5742492675781 C 400.528076171875 391.2180480957031 408.0788269042969 386.760498046875 393.08282470703125 402.52239990234375"/>
    <path stroke-width="0" fill="rgb(123, 125, 123)" opacity="0.89333194" stroke="rgb(209, 231, 207)" stroke-opacity="1.0" stroke-linecap="round" stroke-linejoin="round" d="M 366.07110595703125 -10.313698768615723 C 358.10107421875 -8.817402839660645 352.18414306640625 -1.461106300354004 369.2245178222656 -3.4766533374786377 C 387.265625 -7.575571537017822 377.2897033691406 -18.447284698486328 367.5125427246094 -32.20763397216797 C 357.3088073730469 10.338201522827148 353.7659606933594 6.857427597045898 346.7136535644531 -32.64646530151367 C 374.9783630371094 -16.048751831054688 375.07598876953125 -11.324017524719238 366.07110595703125 -10.313698768615723"/>
    <path stroke-width="0" fill="rgb(28, 27, 42)" opacity="0.42193344" stroke="rgb(160, 101, 15)" stroke-opacity="1.0" stroke-linecap="round" stroke-linejoin="round" d="M 343.09783935546875 110.86809539794922 C 340.4869079589844 99.66043853759766 347.9931335449219 119.27052307128906 355.462890625 104.41122436523438 C 370.8462219238281 90.33045196533203 374.70477294921875 98.4237289428711 364.13067626953125 102.2059097290039 C 354.4586181640625 93.8270034790039 330.5260009765625 53.302547454833984 361.28668212890625 62.25279235839844 C 330.5023498535156 94.4668197631836 372.34686279296875 127.1744155883789 343.09783935546875 110.86809539794922"/>
    <path stroke-width="0" fill="rgb(115, 120, 127)" opacity="0.6780275" stroke="rgb(65, 216, 8)" stroke-opacity="1.0" stroke-linecap="round" stroke-linejoin="round" d="M 347.35369873046875 15.102746963500977 C 349.9578857421875 1.605782151222229 343.2209167480469 19.283411026000977 347.0293273925781 16.186613082885742 C 355.3092346191406 13.455608367919922 341.74212646484375 10.898880004882812 351.9754333496094 8.645147323608398 C 352.502685546875 17.31911277770996 341.6819152832031 26.853479385375977 351.461669921875 11.823380470275879 C 344.7741394042969 25.671506881713867 349.1442565917969 19.564157485961914 347.35369873046875 15.102746963500977"/>
    <path stroke-width="0" fill="rgb(118, 125, 128)" opacity="0.74634165" stroke="rgb(102, 236, 25)" stroke-opacity="1.0" stroke-linecap="round" stroke-linejoin="round" d="M 329.4517517089844 445.5834045410156 C 350.6698913574219 479.7331848144531 347.6270446777344 463.28643798828125 314.0409240722656 411.3101501464844 C 355.708251953125 450.5960998535156 298.3171081542969 395.5835876464844 318.1650085449219 429.8482360839844 C 294.02606201171875 452.285400390625 312.727294921875 424.58154296875 328.01934814453125 430.5707092285156 C 351.88275146484375 400.8681335449219 344.07879638671875 426.9632873535156 329.4517517089844 445.5834045410156"/>
    <path stroke-width="0" fill="rgb(120, 97, 133)" opacity="0.2746957" stroke="rgb(17, 64, 56)" stroke-opacity="1.0" stroke-linecap="round" stroke-linejoin="round" d="M 378.82659912109375 75.12748718261719 C 387.5381164550781 72.69635009765625 364.136474609375 103.1533432006836 396.10736083984375 113.27920532226562 C 374.7419128417969 107.54603576660156 356.99212646484375 75.67024230957031 376.7522888183594 115.73454284667969 C 355.3010559082031 88.3887710571289 360.2265625 81.57672119140625 368.9215087890625 97.87516784667969 C 319.80364990234375 92.14268493652344 392.13409423828125 115.08197784423828 378.82659912109375 75.12748718261719"/>
    <path stroke-width="0" fill="rgb(-9, 19, 41)" opacity="1.1672415" stroke="rgb(162, 125, 252)" stroke-opacity="1.0" stroke-linecap="round" stroke-linejoin="round" d="M 366.2570495605469 119.47644805908203 C 375.5509948730469 86.97058868408203 368.9299621582031 122.33232116699219 363.7204895019531 89.72795867919922 C 354.2077331542969 72.71234893798828 345.40545654296875 126.12106323242188 346.6278381347656 112.54631042480469 C 341.3489685058594 72.62205505371094 337.63092041015625 67.51338958740234 340.5461120605469 115.862548828125 C 374.22283935546875 75.33905792236328 374.2585144042969 71.52257537841797 366.2570495605469 119.47644805908203"/>
    <path stroke-width="0" fill="rgb(33, 2, 16)" opacity="0.48299575" stroke="rgb(199, 73, 61)" stroke-opacity="1.0" stroke-linecap="round" stroke-linejoin="round" d="M 315.1107177734375 456.4335021972656 C 357.8526306152344 478.5924987792969 304.49603271484375 470.608642578125 359.33404541015625 459.4142150878906 C 346.24456787109375 436.97967529296875 341.4615783691406 468.2733154296875 352.0636901855469 473.0194091796875 C 341.6069641113281 461.08612060546875 311.2483215332031 418.90716552734375 329.8018798828125 454.6785583496094 C 350.6397705078125 441.02142333984375 329.8179931640625 471.64215087890625 315.1107177734375 456.4335021972656"/>
    <path stroke-width="0" fill="rgb(47, 40, 78)" opacity="0.7516367" stroke="rgb(62, 169, 131)" stroke-opacity="1.0" stroke-linecap="round" stroke-linejoin="round" d="M 302.34417724609375 449.902587890625 C 313.07220458984375 473.7179870605469 327.20989990234375 460.2257385253906 331.8359375 426.2624206542969 C 333.9317626953125 465.1877746582031 287.6540222167969 459.2049865722656 285.37481689453125 501.4067077636719 C 308.38751220703125 459.20343017578125 312.6273498535156 459.647216796875 319.1557312011719 449.15960693359375 C 324.2686462402344 431.8722839355469 308.4032287597656 466.21673583984375 302.34417724609375 449.902587890625"/>
    <path stroke-width="0" fill="rgb(172, 158, 172)" opacity="0.6484183" stroke="rgb(141, 73, 180)" stroke-opacity="1.0" stroke-linecap="round" stroke-linejoin="round" d="M 328.2997131347656 438.8213195800781 C 335.0569152832031 472.782958984375 313.3426818847656 465.7371520996094 325.8800048828125 447.0953674316406 C 329.3420715332031 482.43499755859375 333.0982360839844 444.0148620605469 306.1660461425781 453.7601318359375 C 317.4725646972656 483.7069396972656 297.873291015625 423.9355773925781 323.53399658203125 448.1792297363281 C 297.6332092285156 471.32861328125 339.0533752441406 462.62664794921875 328.2997131347656 438.8213195800781"/>
    <path stroke-width="0" fill="rgb(97, 120, 137)" opacity="0.21032155" stroke="rgb(91, 211, 235)" stroke-opacity="1.0" stroke-linecap="round" stroke-linejoin="round" d="M 396.9411926269531 73.43360137939453 C 355.41253662109375 80.31575775146484 341.513916015625 76.57902526855469 354.3318176269531 115.86082458496094 C 356.0506591796875 85.90375518798828 346.6969299316406 74.72538757324219 348.142822265625 98.73037719726562 C 348.3519287109375 73.91165161132812 370.80322265625 81.68339538574219 398.6930236816406 73.4544906616211 C 383.7437438964844 33.233882904052734 378.2803955078125 41.873207092285156 396.9411926269531 73.43360137939453"/>
    <path stroke-width="0" fill="rgb(165, 102, 136)" opacity="0.22929835" stroke="rgb(59, 88, 207)" stroke-opacity="1.0" stroke-linecap="round" stroke-linejoin="round" d="M 372.2333679199219 136.55679321289062 C 358.3146667480469 132.59434509277344 352.6966857910156 109.80610656738281 336.8952941894531 104.5655517578125 C 363.5611877441406 92.0904541015625 374.150146484375 83.17969512939453 362.11468505859375 102.92875671386719 C 335.9698791503906 111.07637786865234 347.85931396484375 142.16336059570312 346.1373291015625 104.1251220703125 C 327.7636413574219 93.18651580810547 346.207763671875 119.43853759765625 372.2333679199219 136.55679321289062"/>
    <path stroke-width="0" fill="rgb(283, 340, 300)" opacity="0.6487061" stroke="rgb(63, 27, 242)" stroke-opacity="1.0" stroke-linecap="round" stroke-linejoin="round" d="M 342.4221496582031 101.79724884033203 C 335.65777587890625 69.65043640136719 331.28607177734375 82.3366470336914 333.4847412109375 96.5006103515625 C 368.9045104980469 103.21693420410156 364.8927917480469 80.80310821533203 366.2034912109375 77.86268615722656 C 309.07623291015625 82.40773010253906 334.0766906738281 74.31842803955078 362.9879455566406 90.82593536376953 C 342.3498229980469 70.17146301269531 352.5664978027344 103.32318115234375 342.4221496582031 101.79724884033203"/>
    <path stroke-width="0" fill="rgb(245, 285, 269)" opacity="0.4182868" stroke="rgb(175, 14, 186)" stroke-opacity="1.0" stroke-linecap="round" stroke-linejoin="round" d="M 350.1112365722656 77.15758514404297 C 373.96893310546875 72.07905578613281 376.78009033203125 120.78237915039062 339.1205749511719 92.0884017944336 C 329.7906799316406 76.91455841064453 338.33642578125 121.01835632324219 333.93756103515625 90.65296173095703 C 327.2938537597656 97.67974090576172 378.0643615722656 84.42932891845703 358.70465087890625 85.9170150756836 C 369.15911865234375 83.45030212402344 373.180908203125 73.05045318603516 350.1112365722656 77.15758514404297"/>
    <path stroke-width="0" fill="rgb(42, 77, 38)" opacity="0.7656583" stroke="rgb(69, 96, 95)" stroke-opacity="1.0" stroke-linecap="round" stroke-linejoin="round" d="M 353.1466979980469 481.4302062988281 C 405.18011474609375 499.6802978515625 376.2794189453125 441.1370544433594 410.5480041503906 452.20477294921875 C 383.8285217285156 453.591064453125 401.2718200683594 452.4319763183594 393.7718811035156 463.6999206542969 C 384.3121032714844 481.5499572753906 390.5708312988281 464.1917724609375 387.81640625 466.0998840332031 C 363.17730712890625 467.18475341796875 403.3197326660156 486.53924560546875 353.1466979980469 481.4302062988281"/>
    <path stroke-width="0" fill="rgb(98, 122, 156)" opacity="0.099982366" stroke="rgb(213, 60, 128)" stroke-opacity="1.0" stroke-linecap="round" stroke-linejoin="round" d="M 359.0166015625 120.20841979980469 C 353.8223876953125 110.43212127685547 346.3565368652344 131.12973022460938 333.29180908203125 138.21499633789062 C 347.318359375 104.78712463378906 365.17022705078125 96.09171295166016 344.9797058105469 120.99382019042969 C 362.3061828613281 104.40837097167969 374.7454528808594 110.23847198486328 330.5189208984375 128.7728729248047 C 348.6289978027344 110.61567687988281 352.4927062988281 111.53604125976562 359.0166015625 120.20841979980469"/>
    <path stroke-width="0" fill="rgb(68, 72, 90)" opacity="0.7332414" stroke="rgb(161, 221, 239)" stroke-opacity="1.0" stroke-linecap="round" stroke-linejoin="round" d="M 360.587158203125 88.94180297851562 C 343.2397155761719 140.8734130859375 337.18463134765625 172.60647583007812 347.8652648925781 130.9512176513672 C 343.91748046875 137.4654541015625 353.3269348144531 112.87104797363281 333.0424499511719 127.95648193359375 C 345.89111328125 121.13082122802734 363.2233581542969 109.156494140625 343.36944580078125 101.59992980957031 C 383.20233154296875 105.63655090332031 349.7603454589844 107.7736587524414 360.587158203125 88.94180297851562"/>
    <path stroke-width="0" fill="rgb(91, 125, 128)" opacity="0.42657474" stroke="rgb(178, 246, 253)" stroke-opacity="1.0" stroke-linecap="round" stroke-linejoin="round" d="M 396.1653137207031 70.95362854003906 C 412.70526123046875 79.21630859375 305.7064208984375 75.87541961669922 321.1564636230469 72.29269409179688 C 317.8585510253906 104.32322692871094 313.1136779785156 104.63431549072266 313.29547119140625 90.37992858886719 C 313.43389892578125 65.46990966796875 293.8226013183594 95.7117691040039 353.89776611328125 65.9165267944336 C 352.8887023925781 48.796348571777344 367.68414306640625 91.45137786865234 396.1653137207031 70.95362854003906"/>
    <path stroke-width="0" fill="rgb(222, 253, 219)" opacity="0.8999184" stroke="rgb(33, 154, 97)" stroke-opacity="1.0" stroke-linecap="round" stroke-linejoin="round" d="M 353.0688171386719 112.0307388305664 C 342.2877197265625 110.29234313964844 345.1339111328125 117.89794158935547 352.7571105957031 91.25775146484375 C 361.63189697265625 139.6405029296875 323.4979248046875 128.90321350097656 355.8450622558594 112.6400375366211 C 357.4654541015625 122.16011047363281 336.7594299316406 107.97847747802734 363.3418273925781 122.25016784667969 C 345.7072448730469 104.80308532714844 368.6921081542969 116.12882232666016 353.0688171386719 112.0307388305664"/>
    <path stroke-width="0" fill="rgb(27, 48, 38)" opacity="0.75678754" stroke="rgb(246, 139, 70)" stroke-opacity="1.0" stroke-linecap="round" stroke-linejoin="round" d="M 335.25067138671875 74.83502960205078 C 350.1477355957031 114.50335693359375 323.78912353515625 83.13728332519531 367.1690368652344 89.82112884521484 C 372.59320068359375 78.31835174560547 346.61541748046875 79.89775085449219 317.3327941894531 84.57316589355469 C 388.9005432128906 83.98548126220703 367.3995666503906 95.23490142822266 370.6755065917969 75.57303619384766 C 345.33465576171875 54.312801361083984 391.8297119140625 82.30960083007812 335.25067138671875 74.83502960205078"/>
    <path stroke-width="0" fill="rgb(226, 240, 205)" opacity="0.94014174" stroke="rgb(116, 102, 63)" stroke-opacity="1.0" stroke-linecap="round" stroke-linejoin="round" d="M 314.4329833984375 498.3840637207031 C 289.08380126953125 475.5322570800781 295.1678161621094 465.31292724609375 294.7606201171875 478.9673156738281 C 312.6805419921875 466.75 287.613037109375 456.1861267089844 315.0627136230469 487.3561706542969 C 270.0013427734375 479.2449035644531 320.1112365722656 488.1615905761719 294.4020690917969 477.6338806152344 C 286.9944763183594 469.9292297363281 302.58428955078125 480.69036865234375 314.4329833984375 498.3840637207031"/>
    <path stroke-width="0" fill="rgb(100, 116, 141)" opacity="0.9184098" stroke="rgb(79, 95, 133)" stroke-opacity="1.0" stroke-linecap="round" stroke-linejoin="round" d="M 394.0633239746094 112.59439086914062 C 372.6087951660156 116.90177917480469 341.2251892089844 101.35668182373047 324.2923583984375 132.3761749267578 C 376.86566162109375 142.09390258789062 353.45062255859375 150.95802307128906 330.3953857421875 126.76581573486328 C 337.3865051269531 134.39498901367188 340.74267578125 118.06048583984375 350.348876953125 98.47227478027344 C 329.80078125 111.58367919921875 352.3677978515625 114.98104095458984 394.0633239746094 112.59439086914062"/>
    <path stroke-width="0" fill="rgb(81, 62, 132)" opacity="0.65699255" stroke="rgb(85, 235, 219)" stroke-opacity="1.0" stroke-linecap="round" stroke-linejoin="round" d="M 370.604736328125 106.73841857910156 C 351.8726501464844 108.7723388671875 378.4993896484375 97.4481430053711 368.37408447265625 116.69178771972656 C 382.85589599609375 120.78653717041016 352.91387939453125 111.88201141357422 351.8628234863281 129.14276123046875 C 322.991455078125 125.75092315673828 343.1492004394531 112.99512481689453 360.25909423828125 155.17796325683594 C 327.20062255859375 106.00434112548828 364.4497985839844 138.75364685058594 370.604736328125 106.73841857910156"/>
    <path stroke-width="0" fill="rgb(99, 116, 139)" opacity="0.7370725" stroke="rgb(64, 113, 26)" stroke-opacity="1.0" stroke-linecap="round" stroke-linejoin="round" d="M 371.3912048339844 99.27888488769531 C 378.926025390625 145.96595764160156 430.6144104003906 84.5445785522461 340.1653137207031 102.6546401977539 C 358.7651672363281 67.15756225585938 292.486328125 88.83560180664062 318.5212097167969 76.74610137939453 C 313.0638732910156 66.19403839111328 328.6948547363281 82.44926452636719 308.73699951171875 93.94829559326172 C 365.2453308105469 65.52141571044922 346.5558166503906 101.61690521240234 371.3912048339844 99.27888488769531"/>
    <path stroke-width="0" fill="rgb(139, 125, 149)" opacity="0.6786956" stroke="rgb(0, 0, 0)" stroke-opacity="0.0" stroke-linecap="round" stroke-linejoin="round" d="M 492.89093017578125 0.030517475679516792 C 493.0785217285156 4.236018180847168 488.0370178222656 5.850346565246582 485.79803466796875 5.636012554168701 C 481.4641418457031 4.904051780700684 475.2310485839844 4.591254234313965 475.98187255859375 2.4468259811401367 C 480.40838623046875 -1.5796324014663696 482.69793701171875 -5.3315887451171875 485.63922119140625 -7.138145923614502 C 490.1017150878906 -5.515694618225098 494.0989990234375 -2.5660386085510254 492.89093017578125 0.030517475679516792"/>
    <path stroke-width="0" fill="rgb(200, 154, 137)" opacity="0.7143824" stroke="rgb(0, 0, 0)" stroke-opacity="0.0" stroke-linecap="round" stroke-linejoin="round" d="M 228.19549560546875 17.825626373291016 C 225.67306518554688 21.073806762695312 222.68943786621094 24.827295303344727 218.0865936279297 27.497398376464844 C 214.81752014160156 24.738094329833984 212.50318908691406 23.30679702758789 210.260986328125 18.258888244628906 C 211.0762481689453 13.923054695129395 214.55404663085938 9.366205215454102 219.0070037841797 7.690924644470215 C 226.63626098632812 9.22095775604248 229.2541961669922 12.060956001281738 228.19549560546875 17.825626373291016"/>
    <path stroke-width="0" fill="rgb(146, 149, 183)" opacity="0.40169567" stroke="rgb(0, 0, 0)" stroke-opacity="0.0" stroke-linecap="round" stroke-linejoin="round" d="M 62.334503173828125 -6.775049686431885 C 60.74889373779297 1.6190804243087769 62.08320999145508 7.016963958740234 58.660274505615234 7.63886022567749 C 53.860538482666016 7.991462230682373 52.449867248535156 5.0202250480651855 52.80695724487305 -0.19103515148162842 C 51.79116439819336 -3.317772150039673 55.68486022949219 -6.594178199768066 59.75661087036133 -7.692098140716553 C 63.75252151489258 -6.619141101837158 66.53036499023438 -3.6091973781585693 62.334503173828125 -6.775049686431885"/>
    <path stroke-width="0" fill="rgb(206, 103, 104)" opacity="0.7317959" stroke="rgb(0, 0, 0)" stroke-opacity="0.0" stroke-linecap="round" stroke-linejoin="round" d="M 105.56246948242188 7.112523078918457 C 103.33479309082031 7.400709629058838 102.88641357421875 9.785621643066406 99.77254486083984 8.167627334594727 C 99.8370132446289 12.46893310546875 101.17964172363281 9.457884788513184 99.67047119140625 10.71570110321045 C 99.60558319091797 7.219372272491455 98.9906234741211 1.820937156677246 100.19573211669922 0.27427059412002563 C 106.50052642822266 -0.3724013566970825 107.36341857910156 3.9594807624816895 105.56246948242188 7.112523078918457"/>
    <path stroke-width="0" fill="rgb(171, 193, 189)" opacity="0.23314388" stroke="rgb(0, 0, 0)" stroke-opacity="0.0" stroke-linecap="round" stroke-linejoin="round" d="M 146.06407165527344 15.329169273376465 C 146.7430877685547 16.39830780029297 145.06190490722656 21.548538208007812 139.8746795654297 21.778614044189453 C 135.55030822753906 23.920759201049805 134.60198974609375 21.033227920532227 135.05723571777344 14.24988079071045 C 135.25743103027344 12.074969291687012 139.54681396484375 6.557184219360352 142.86416625976562 7.349138259887695 C 144.88409423828125 9.896320343017578 147.69515991210938 14.533061981201172 146.06407165527344 15.329169273376465"/>
    <path stroke-width="0" fill="rgb(93, 118, 138)" opacity="0.3897609" stroke="rgb(0, 0, 0)" stroke-opacity="0.0" stroke-linecap="round" stroke-linejoin="round" d="M 55.76250457763672 13.028562545776367 C 55.658050537109375 21.46443748474121 55.04067611694336 23.62386131286621 52.952308654785156 20.03829002380371 C 47.04326248168945 17.96337890625 38.05253219604492 19.197673797607422 38.71491241455078 16.104564666748047 C 38.63174819946289 7.631329536437988 40.83396911621094 6.651647090911865 50.99590301513672 7.741889953613281 C 58.60908508300781 2.9018704891204834 59.88555908203125 5.533219337463379 55.76250457763672 13.028562545776367"/>
    <path stroke-width="0" fill="rgb(163, 72, 133)" opacity="0.08496692" stroke="rgb(0, 0, 0)" stroke-opacity="0.0" stroke-linecap="round" stroke-linejoin="round" d="M 188.67733764648438 4.614623069763184 C 187.21006774902344 8.346574783325195 183.91085815429688 12.095629692077637 179.98468017578125 17.778839111328125 C 181.07339477539062 14.85529613494873 178.38214111328125 11.86320686340332 177.58140563964844 5.930121898651123 C 174.54867553710938 -0.16265426576137543 176.6100616455078 -2.769874334335327 183.11573791503906 -2.1223394870758057 C 190.57005310058594 -1.3486772775650024 192.85031127929688 3.2630653381347656 188.67733764648438 4.614623069763184"/>
    <path stroke-width="0" fill="rgb(95, 106, 163)" opacity="0.24015136" stroke="rgb(0, 0, 0)" stroke-opacity="0.0" stroke-linecap="round" stroke-linejoin="round" d="M 467.87127685546875 214.531982421875 C 468.03228759765625 211.9518280029297 467.5353698730469 217.1106414794922 469.6700134277344 219.51414489746094 C 467.82379150390625 218.87501525878906 465.55889892578125 217.96578979492188 469.5719909667969 216.4906768798828 C 468.39752197265625 214.5513458251953 467.1498107910156 213.341796875 466.7580261230469 207.20962524414062 C 470.0283508300781 212.22003173828125 471.9067687988281 215.37344360351562 467.87127685546875 214.531982421875"/>
    <path stroke-width="0" fill="rgb(168, 69, 185)" opacity="0.67286944" stroke="rgb(0, 0, 0)" stroke-opacity="0.0" stroke-linecap="round" stroke-linejoin="round" d="M 459.5186462402344 158.21385192871094 C 457.56402587890625 155.36952209472656 457.22515869140625 157.36752319335938 457.351806640625 163.31138610839844 C 456.9503173828125 159.28189086914062 458.23199462890625 153.93994140625 458.6151428222656 157.9891357421875 C 458.3569030761719 158.13320922851562 457.7710876464844 155.81796264648438 456.9571838378906 154.0042724609375 C 457.42852783203125 155.1265106201172 458.1022033691406 156.1629180908203 459.5186462402344 158.21385192871094"/>
    <path stroke-width="0" fill="rgb(82, 105, 118)" opacity="0.18171054" stroke="rgb(0, 0, 0)" stroke-opacity="0.0" stroke-linecap="round" stroke-linejoin="round" d="M 15.918295860290527 184.13970947265625 C 19.957611083984375 188.9609375 17.36240005493164 188.1852569580078 5.771512508392334 186.33038330078125 C -0.2340213656425476 185.56234741210938 0.365071564912796 186.3494415283203 2.0798404216766357 179.43170166015625 C -2.119628667831421 174.79017639160156 5.888928413391113 176.7775421142578 7.9946370124816895 176.4202117919922 C 13.362964630126953 176.91111755371094 16.25187110900879 175.82241821289062 15.918295860290527 184.13970947265625"/>
    <path stroke-width="0" fill="rgb(82, 203, 135)" opacity="0.1273806" stroke="rgb(0, 0, 0)" stroke-opacity="0.0" stroke-linecap="round" stroke-linejoin="round" d="M -123.205810546875 105.1214599609375 C -124.2776107788086 109.1214599609375 -127.205810546875 112.04966735839844 -131.205810546875 113.1214599609375 C -135.205810546875 112.04966735839844 -138.13401794433594 109.1214599609375 -139.205810546875 105.1214599609375 C -138.13401794433594 101.1214599609375 -135.205810546875 98.1932601928711 -131.205810546875 97.1214599609375 C -127.205810546875 98.1932601928711 -124.2776107788086 101.1214599609375 -123.205810546875 105.1214599609375"/>
    <path stroke-width="0" fill="rgb(49, 167, 206)" opacity="0.036128648" stroke="rgb(0, 0, 0)" stroke-opacity="0.0" stroke-linecap="round" stroke-linejoin="round" d="M 76.91925048828125 447.00732421875 C 78.18883514404297 450.5349426269531 76.45992279052734 452.6332092285156 74.04161834716797 448.9992980957031 C 68.38362121582031 447.9258117675781 62.17138671875 448.24981689453125 59.496498107910156 445.88922119140625 C 62.59775924682617 440.366455078125 66.73523712158203 438.4986877441406 70.09391784667969 438.02960205078125 C 73.09886169433594 439.2958679199219 75.74462127685547 442.1517028808594 76.91925048828125 447.00732421875"/>
    <path stroke-width="0" fill="rgb(115, 107, 159)" opacity="0.3688622" stroke="rgb(0, 0, 0)" stroke-opacity="0.0" stroke-linecap="round" stroke-linejoin="round" d="M 492.953857421875 143.19175720214844 C 494.0136413574219 146.1122283935547 495.0146484375 151.67799377441406 492.251953125 150.40650939941406 C 484.8771057128906 151.91123962402344 486.9344177246094 150.7737579345703 488.9272155761719 140.5550537109375 C 484.8648986816406 140.46688842773438 488.9896545410156 139.89427185058594 491.4398193359375 139.8817138671875 C 490.7839050292969 138.43890380859375 492.4090576171875 142.5699462890625 492.953857421875 143.19175720214844"/>
    <path stroke-width="0" fill="rgb(126, 135, 104)" opacity="0.31085998" stroke="rgb(0, 0, 0)" stroke-opacity="0.0" stroke-linecap="round" stroke-linejoin="round" d="M 123.20033264160156 100.14031982421875 C 119.52588653564453 100.2719497680664 117.27194213867188 102.62969970703125 116.7094497680664 109.15342712402344 C 118.52594757080078 104.37199401855469 113.97467803955078 103.52677154541016 117.40131378173828 103.4177474975586 C 116.95489501953125 100.38644409179688 116.5021743774414 97.37335968017578 113.75596618652344 99.15213775634766 C 116.79405975341797 101.03231048583984 121.05730438232422 103.98391723632812 123.20033264160156 100.14031982421875"/>
    <path stroke-width="0" fill="rgb(143, 143, 165)" opacity="0.7666872" stroke="rgb(0, 0, 0)" stroke-opacity="0.0" stroke-linecap="round" stroke-linejoin="round" d="M 334.5204772949219 206.3843536376953 C 334.86480712890625 210.46243286132812 333.7485046386719 213.03228759765625 334.5826110839844 208.4916229248047 C 330.79345703125 209.0644073486328 326.8380126953125 206.59866333007812 329.287353515625 203.207763671875 C 326.1673889160156 203.81283569335938 327.83563232421875 201.470703125 335.44720458984375 198.0798797607422 C 334.2666320800781 199.6602020263672 333.3616638183594 208.53616333007812 334.5204772949219 206.3843536376953"/>
    <path stroke-width="0" fill="rgb(107, 106, 185)" opacity="0.36130324" stroke="rgb(0, 0, 0)" stroke-opacity="0.0" stroke-linecap="round" stroke-linejoin="round" d="M 335.8496398925781 267.754150390625 C 335.9356384277344 273.6435241699219 330.7530517578125 272.56585693359375 322.263427734375 274.86444091796875 C 315.9930114746094 276.0440673828125 317.46807861328125 277.59466552734375 321.0487365722656 272.0425109863281 C 318.4609069824219 259.6962890625 317.7282409667969 258.8751220703125 324.974853515625 261.1575012207031 C 328.139892578125 259.1848449707031 327.92889404296875 266.0029296875 335.8496398925781 267.754150390625"/>
    <path stroke-width="0" fill="rgb(116, 127, 149)" opacity="0.048378956" stroke="rgb(0, 0, 0)" stroke-opacity="0.0" stroke-linecap="round" stroke-linejoin="round" d="M 163.71116638183594 204.28211975097656 C 164.0013885498047 206.7152557373047 160.91949462890625 209.5896759033203 156.76446533203125 208.911865234375 C 150.91339111328125 208.35728454589844 148.5354461669922 206.92449951171875 151.0248565673828 202.38818359375 C 150.0052032470703 195.4835662841797 151.26498413085938 194.16656494140625 155.7364959716797 196.02999877929688 C 159.68801879882812 195.8096466064453 161.98898315429688 199.37255859375 163.71116638183594 204.28211975097656"/>
    <path stroke-width="0" fill="rgb(95, 121, 149)" opacity="0.46688583" stroke="rgb(0, 0, 0)" stroke-opacity="0.0" stroke-linecap="round" stroke-linejoin="round" d="M 191.29507446289062 250.33877563476562 C 195.62686157226562 247.75608825683594 188.38717651367188 248.6586151123047 185.36412048339844 248.53076171875 C 188.3921661376953 251.17063903808594 185.11676025390625 248.8701171875 183.5953369140625 247.39608764648438 C 182.628173828125 241.9708709716797 181.2017822265625 240.8897705078125 189.268798828125 242.6582489013672 C 192.80601501464844 239.33274841308594 192.39796447753906 242.0009307861328 191.29507446289062 250.33877563476562"/>
    <path stroke-width="0" fill="rgb(187, 116, 65)" opacity="-0.01458474" stroke="rgb(0, 0, 0)" stroke-opacity="0.0" stroke-linecap="round" stroke-linejoin="round" d="M 89.8448257446289 497.87554931640625 C 88.52493286132812 500.15838623046875 88.21726989746094 504.6246643066406 90.35061645507812 510.6371154785156 C 80.766845703125 507.89703369140625 78.9747543334961 507.4069519042969 81.85578155517578 502.8096008300781 C 78.73980712890625 489.3787841796875 77.65931701660156 486.5254211425781 82.94418334960938 490.7456970214844 C 91.93018341064453 489.6441650390625 92.0722885131836 493.7095031738281 89.8448257446289 497.87554931640625"/>
    <path stroke-width="0" fill="rgb(87, 67, 113)" opacity="0.18100956" stroke="rgb(0, 0, 0)" stroke-opacity="0.0" stroke-linecap="round" stroke-linejoin="round" d="M 3.911264657974243 -5.32838773727417 C 1.5551096200942993 -1.9534249305725098 -1.6041922569274902 1.1501095294952393 -4.502254962921143 3.1778531074523926 C -2.677528142929077 7.805291652679443 -5.555568695068359 4.721656799316406 -6.636660575866699 0.7309714555740356 C -5.565146446228027 -3.2681753635406494 -2.6369433403015137 -6.196378707885742 1.3634140491485596 -7.2682881355285645 C 5.387521743774414 -6.204288959503174 8.615775108337402 -3.428757905960083 3.911264657974243 -5.32838773727417"/>
    <path stroke-width="0" fill="rgb(244, 109, 109)" opacity="0.4082962" stroke="rgb(0, 0, 0)" stroke-opacity="0.0" stroke-linecap="round" stroke-linejoin="round" d="M 250.74032592773438 80.4326171875 C 249.32965087890625 86.45125579833984 247.23324584960938 90.14117431640625 241.2277374267578 90.44517517089844 C 236.2676544189453 89.67781829833984 233.41363525390625 86.82144165039062 233.46786499023438 80.81975555419922 C 230.76295471191406 75.11337280273438 235.726806640625 71.62761688232422 241.09507751464844 72.067138671875 C 247.3865203857422 72.61398315429688 250.49761962890625 76.06307220458984 250.74032592773438 80.4326171875"/>
    <path stroke-width="0" fill="rgb(123, 103, 137)" opacity="0.7482177" stroke="rgb(0, 0, 0)" stroke-opacity="0.0" stroke-linecap="round" stroke-linejoin="round" d="M 492.6987609863281 217.4862823486328 C 492.351806640625 216.06036376953125 489.58294677734375 216.83767700195312 486.6770324707031 222.23336791992188 C 486.40960693359375 225.1331787109375 486.89935302734375 220.48300170898438 486.3707580566406 213.94378662109375 C 484.23577880859375 212.93646240234375 489.43463134765625 213.25965881347656 487.7882385253906 215.57632446289062 C 490.5448303222656 215.82830810546875 490.9595642089844 218.98526000976562 492.6987609863281 217.4862823486328"/>
    <path stroke-width="0" fill="rgb(72, 155, 51)" opacity="-0.033216834" stroke="rgb(0, 0, 0)" stroke-opacity="0.0" stroke-linecap="round" stroke-linejoin="round" d="M 415.99566650390625 235.14016723632812 C 412.28594970703125 238.33773803710938 407.6263427734375 239.75486755371094 404.383544921875 244.73004150390625 C 401.2674865722656 247.19427490234375 399.166748046875 243.3101043701172 404.03924560546875 237.8711395263672 C 400.5478515625 231.20623779296875 401.67303466796875 228.49755859375 404.6877136230469 228.01443481445312 C 407.6749572753906 232.88363647460938 412.2763671875 233.6264190673828 415.99566650390625 235.14016723632812"/>
    <path stroke-width="0" fill="rgb(161, 53, 210)" opacity="0.1507755" stroke="rgb(0, 0, 0)" stroke-opacity="0.0" stroke-linecap="round" stroke-linejoin="round" d="M 154.9899444580078 373.1885986328125 C 152.0286865234375 373.1912536621094 151.53421020507812 376.23236083984375 151.46029663085938 380.3437805175781 C 148.9639434814453 383.33941650390625 144.0883026123047 378.1824951171875 142.33563232421875 374.0586853027344 C 143.0924072265625 369.0290222167969 147.2271728515625 368.65106201171875 147.8472442626953 373.9671630859375 C 151.59396362304688 377.9441833496094 157.96646118164062 377.1582336425781 154.9899444580078 373.1885986328125"/>
  </g>
</svg>
