<?xml version="1.0" ?>
<svg xmlns="http://www.w3.org/2000/svg" version="1.1" width="512" height="512">
  <defs/>
  <g>
    <path stroke-width="0" fill="rgb(119, 87, 139)" opacity="0.71507925" stroke="rgb(139, 182, 153)" stroke-opacity="1.0" stroke-linecap="round" stroke-linejoin="round" d="M 326.4944763183594 424.40509033203125 C 356.8189392089844 478.174072265625 356.6953430175781 498.3486328125 192.02931213378906 487.8689270019531 C 60.183048248291016 377.97406005859375 57.967010498046875 355.21319580078125 -39.86656188964844 95.25517272949219 C -55.74998092651367 24.691083908081055 -54.507442474365234 -3.2493443489074707 30.806589126586914 -11.700340270996094 C 243.13429260253906 163.75177001953125 255.07861328125 169.2061767578125 326.4944763183594 424.40509033203125"/>
    <path stroke-width="0" fill="rgb(68, 123, 160)" opacity="1.0652792" stroke="rgb(108, 164, 111)" stroke-opacity="1.0" stroke-linecap="round" stroke-linejoin="round" d="M 562.2271118164062 103.37147521972656 C 518.1608276367188 395.5442810058594 443.9133605957031 377.06719970703125 302.1431579589844 377.2730407714844 C 145.35665893554688 341.6041564941406 141.83567810058594 312.2967834472656 -50.337913513183594 2.1668529510498047 C -5.70611047744751 -61.47223663330078 18.957836151123047 -59.51573944091797 446.24822998046875 -50.592098236083984 C 535.3020629882812 -48.75304412841797 556.3040771484375 -60.0816650390625 562.2271118164062 103.37147521972656"/>
    <path stroke-width="0" fill="rgb(116, 174, 109)" opacity="0.9768732" stroke="rgb(245, 97, 201)" stroke-opacity="1.0" stroke-linecap="round" stroke-linejoin="round" d="M 293.8003234863281 526.1365356445312 C 290.2972106933594 570.1263427734375 265.1747741699219 573.4346313476562 -73.39730072021484 555.06591796875 C -78.9822769165039 469.8158264160156 -51.8045539855957 419.02099609375 -46.28164291381836 272.57049560546875 C -56.931453704833984 163.62477111816406 -81.46731567382812 128.18165588378906 -9.533279418945312 109.40513610839844 C 144.0653076171875 188.5813751220703 153.7264404296875 194.6380615234375 293.8003234863281 526.1365356445312"/>
    <path stroke-width="0" fill="rgb(111, 105, 160)" opacity="0.9958567" stroke="rgb(144, 236, 18)" stroke-opacity="1.0" stroke-linecap="round" stroke-linejoin="round" d="M 557.802001953125 499.8588562011719 C 564.6090698242188 540.8244018554688 570.5844116210938 555.1404418945312 295.1046142578125 562.9168090820312 C 223.52224731445312 580.7062377929688 200.6587371826172 606.2191772460938 223.70582580566406 380.872802734375 C 309.77447509765625 241.1245880126953 307.3459167480469 185.07481384277344 546.3759155273438 151.8749542236328 C 576.6678466796875 265.0323486328125 560.8159790039062 308.91241455078125 557.802001953125 499.8588562011719"/>
    <path stroke-width="0" fill="rgb(207, 204, 280)" opacity="0.9184626" stroke="rgb(5, 212, 198)" stroke-opacity="1.0" stroke-linecap="round" stroke-linejoin="round" d="M 368.1424560546875 528.9013061523438 C 364.5356140136719 503.1345520019531 365.5629577636719 512.2237548828125 316.7554931640625 547.1332397460938 C 400.0511779785156 520.4857788085938 321.59625244140625 550.0448608398438 339.20831298828125 488.56024169921875 C 335.9096374511719 495.48651123046875 328.4101257324219 486.85577392578125 338.3932800292969 502.222900390625 C 349.5372009277344 508.1316833496094 329.5452880859375 517.7435302734375 368.1424560546875 528.9013061523438"/>
    <path stroke-width="0" fill="rgb(244, 278, 249)" opacity="0.86935323" stroke="rgb(249, 203, 117)" stroke-opacity="1.0" stroke-linecap="round" stroke-linejoin="round" d="M 355.3341979980469 490.11724853515625 C 281.2315368652344 549.8221435546875 355.59088134765625 532.9793090820312 342.5346374511719 494.4976501464844 C 346.7557373046875 501.3683166503906 347.9627685546875 490.4007873535156 346.6249694824219 503.4447937011719 C 338.59906005859375 492.1519775390625 368.6114501953125 467.7509765625 310.69921875 474.994140625 C 364.597412109375 455.4972229003906 409.7745056152344 505.6414794921875 355.3341979980469 490.11724853515625"/>
    <path stroke-width="0" fill="rgb(281, 271, 271)" opacity="0.86276335" stroke="rgb(133, 105, 67)" stroke-opacity="1.0" stroke-linecap="round" stroke-linejoin="round" d="M 386.97711181640625 471.2734680175781 C 362.38970947265625 520.9951171875 234.51602172851562 571.9130249023438 251.57537841796875 633.9981079101562 C 284.7398376464844 541.4782104492188 294.0196228027344 542.1718139648438 341.7505798339844 550.7498779296875 C 347.6924133300781 536.1397094726562 344.4719543457031 523.9400634765625 328.3514404296875 512.5418701171875 C 349.624755859375 446.7510681152344 305.5116882324219 470.9444274902344 386.97711181640625 471.2734680175781"/>
    <path stroke-width="0" fill="rgb(285, 247, 296)" opacity="1.124312" stroke="rgb(116, 144, 4)" stroke-opacity="1.0" stroke-linecap="round" stroke-linejoin="round" d="M 366.8128356933594 90.91175079345703 C 367.98321533203125 92.25287628173828 245.4104766845703 69.76661682128906 378.6675720214844 73.0229721069336 C 373.14654541015625 159.4380340576172 361.4681701660156 29.75265884399414 343.24169921875 98.00719451904297 C 392.22552490234375 108.80496215820312 364.071533203125 55.01930618286133 321.5302429199219 66.65509796142578 C 382.1020202636719 25.807514190673828 324.55426025390625 112.53736114501953 366.8128356933594 90.91175079345703"/>
    <path stroke-width="0" fill="rgb(95, 140, 209)" opacity="0.99145406" stroke="rgb(156, 157, 240)" stroke-opacity="1.0" stroke-linecap="round" stroke-linejoin="round" d="M 384.1622009277344 489.00439453125 C 392.3903503417969 531.9590454101562 381.4641418457031 516.9949340820312 353.0655822753906 584.389892578125 C 436.31414794921875 528.0333251953125 287.2533264160156 513.9343872070312 322.8328552246094 478.68975830078125 C 306.05572509765625 494.0718994140625 381.89874267578125 489.1102294921875 385.3726501464844 488.77423095703125 C 383.9547119140625 453.4064025878906 449.51251220703125 454.60614013671875 384.1622009277344 489.00439453125"/>
    <path stroke-width="0" fill="rgb(26, 20, 34)" opacity="0.6762473" stroke="rgb(91, 111, 177)" stroke-opacity="1.0" stroke-linecap="round" stroke-linejoin="round" d="M 349.620361328125 73.77701568603516 C 355.34112548828125 49.67189407348633 376.95709228515625 77.04727935791016 357.8180847167969 93.5115966796875 C 348.4664001464844 136.13587951660156 380.3338317871094 52.285797119140625 338.3747863769531 62.1368522644043 C 364.1326599121094 32.490455627441406 354.56097412109375 102.68031311035156 372.46026611328125 77.50907897949219 C 254.07493591308594 68.84779357910156 406.95343017578125 79.48461151123047 349.620361328125 73.77701568603516"/>
    <path stroke-width="0" fill="rgb(124, 135, 179)" opacity="0.87955105" stroke="rgb(170, 171, 53)" stroke-opacity="1.0" stroke-linecap="round" stroke-linejoin="round" d="M 354.0404052734375 485.6998291015625 C 335.1341247558594 455.5753173828125 369.5618896484375 543.1376953125 336.9363098144531 622.0420532226562 C 311.6837463378906 480.1290283203125 341.71051025390625 501.1886901855469 308.1155700683594 500.1994934082031 C 292.31256103515625 492.6036071777344 296.4993591308594 491.59869384765625 357.63623046875 480.48284912109375 C 340.12200927734375 478.8388366699219 415.50909423828125 475.266845703125 354.0404052734375 485.6998291015625"/>
    <path stroke-width="0" fill="rgb(70, 108, 157)" opacity="0.99975437" stroke="rgb(80, 92, 145)" stroke-opacity="1.0" stroke-linecap="round" stroke-linejoin="round" d="M 288.42877197265625 510.6651611328125 C 1.3437715768814087 259.36260986328125 85.57816314697266 187.99777221679688 85.5502700805664 204.6575164794922 C -64.18952178955078 207.33836364746094 -61.816436767578125 195.11009216308594 -39.441341400146484 131.15081787109375 C -40.78221893310547 64.58954620361328 -46.02934265136719 48.192596435546875 -10.819045066833496 -5.701480388641357 C 285.1723327636719 -417.44366455078125 415.5928649902344 78.04248809814453 288.42877197265625 510.6651611328125"/>
    <path stroke-width="0" fill="rgb(73, 81, 71)" opacity="0.8149562" stroke="rgb(252, 26, 53)" stroke-opacity="1.0" stroke-linecap="round" stroke-linejoin="round" d="M 347.5489807128906 444.02569580078125 C 366.2798156738281 454.71844482421875 319.0577697753906 458.6788330078125 369.4229431152344 416.9013366699219 C 295.0879211425781 412.0687255859375 324.9388122558594 439.45928955078125 355.644287109375 440.5957336425781 C 297.03265380859375 396.4408874511719 310.38104248046875 509.93341064453125 347.8980407714844 364.3014221191406 C 323.72930908203125 485.1270446777344 407.7342529296875 368.13116455078125 347.5489807128906 444.02569580078125"/>
    <path stroke-width="0" fill="rgb(251, 270, 256)" opacity="1.0890907" stroke="rgb(166, 64, 118)" stroke-opacity="1.0" stroke-linecap="round" stroke-linejoin="round" d="M 330.32513427734375 242.79183959960938 C 385.8786315917969 199.3760528564453 389.9768981933594 181.00894165039062 360.4956970214844 190.5227813720703 C 324.52117919921875 270.04803466796875 339.5933837890625 208.9420623779297 339.3264465332031 190.55628967285156 C 340.01324462890625 119.20264434814453 350.7093811035156 104.19324493408203 356.9814147949219 178.9720001220703 C 361.9323425292969 188.44615173339844 347.2956848144531 223.21875 330.32513427734375 242.79183959960938"/>
    <path stroke-width="0" fill="rgb(49, 53, 92)" opacity="0.50346226" stroke="rgb(40, 28, 167)" stroke-opacity="1.0" stroke-linecap="round" stroke-linejoin="round" d="M 316.9830017089844 419.6214294433594 C 453.7528076171875 459.0400085449219 431.8045959472656 402.817626953125 363.5462646484375 427.0974426269531 C 372.2025146484375 359.42254638671875 351.4173889160156 429.5660705566406 317.7279052734375 387.0048828125 C 314.8490295410156 421.9106140136719 324.4755859375 393.15887451171875 394.8447570800781 370.8493957519531 C 333.49505615234375 418.07342529296875 403.8966979980469 433.9203186035156 316.9830017089844 419.6214294433594"/>
    <path stroke-width="0" fill="rgb(235, 234, 229)" opacity="0.77948207" stroke="rgb(50, 94, 209)" stroke-opacity="1.0" stroke-linecap="round" stroke-linejoin="round" d="M 421.05218505859375 432.767822265625 C 257.2154541015625 429.45477294921875 407.8179016113281 485.2301330566406 336.90045166015625 449.43731689453125 C 439.39678955078125 408.8565673828125 362.08148193359375 397.36346435546875 374.7430725097656 437.95770263671875 C 447.9022216796875 447.99200439453125 387.2268371582031 433.1385498046875 387.1640930175781 466.7712097167969 C 385.3416442871094 428.2483825683594 413.43414306640625 458.3666687011719 421.05218505859375 432.767822265625"/>
    <path stroke-width="0" fill="rgb(270, 286, 269)" opacity="1.0489758" stroke="rgb(213, 24, 248)" stroke-opacity="1.0" stroke-linecap="round" stroke-linejoin="round" d="M 431.6225891113281 435.69390869140625 C 276.78936767578125 431.933837890625 302.354736328125 440.5903015136719 308.8873596191406 426.45306396484375 C 319.7830810546875 417.3641052246094 286.73968505859375 416.30389404296875 338.2395324707031 415.9054870605469 C 355.2732238769531 391.0674743652344 264.8132629394531 417.99072265625 303.2557067871094 450.18829345703125 C 315.53851318359375 434.6536865234375 290.04736328125 451.2549133300781 431.6225891113281 435.69390869140625"/>
    <path stroke-width="0" fill="rgb(64, 73, 87)" opacity="0.6774144" stroke="rgb(249, 154, 188)" stroke-opacity="1.0" stroke-linecap="round" stroke-linejoin="round" d="M 343.4520263671875 194.32455444335938 C 389.5982360839844 168.90765380859375 306.8336181640625 205.46981811523438 366.6951599121094 198.6784210205078 C 371.4637756347656 193.4853057861328 364.73260498046875 186.27267456054688 357.0550842285156 211.93365478515625 C 364.9047546386719 210.4517364501953 375.7552795410156 194.34230041503906 338.0010681152344 249.77857971191406 C 348.8624267578125 232.97750854492188 367.025390625 217.74490356445312 343.4520263671875 194.32455444335938"/>
    <path stroke-width="0" fill="rgb(26, 45, 52)" opacity="0.9282562" stroke="rgb(72, 30, 75)" stroke-opacity="1.0" stroke-linecap="round" stroke-linejoin="round" d="M 388.1499328613281 363.5482177734375 C 336.60186767578125 350.37286376953125 315.68328857421875 331.9798278808594 338.84326171875 360.37933349609375 C 315.6991882324219 331.1880187988281 378.173095703125 316.83984375 331.2058410644531 342.16729736328125 C 315.55401611328125 327.30865478515625 333.59368896484375 290.0341491699219 363.3634033203125 312.000732421875 C 358.9844055175781 365.4281311035156 401.0252685546875 291.26617431640625 388.1499328613281 363.5482177734375"/>
    <path stroke-width="0" fill="rgb(261, 252, 270)" opacity="0.7167665" stroke="rgb(81, 105, 16)" stroke-opacity="1.0" stroke-linecap="round" stroke-linejoin="round" d="M 361.2646789550781 376.5031433105469 C 331.8364562988281 322.64947509765625 378.24603271484375 326.31072998046875 330.6715393066406 315.3220520019531 C 329.91619873046875 388.8593444824219 314.4824523925781 355.7091064453125 338.7563781738281 330.8904724121094 C 338.59783935546875 292.23638916015625 361.315673828125 357.2637023925781 365.0504455566406 327.3994140625 C 395.15618896484375 363.3775329589844 352.08111572265625 321.53790283203125 361.2646789550781 376.5031433105469"/>
    <path stroke-width="0" fill="rgb(16, 14, 85)" opacity="0.6155549" stroke="rgb(144, 67, 133)" stroke-opacity="1.0" stroke-linecap="round" stroke-linejoin="round" d="M 362.2293395996094 468.6067199707031 C 354.55035400390625 403.248046875 367.51617431640625 478.16552734375 349.6665954589844 450.15594482421875 C 373.3301696777344 461.822509765625 331.5194091796875 470.4052734375 422.44317626953125 465.37908935546875 C 384.69549560546875 482.73175048828125 342.2424621582031 460.34967041015625 357.7200927734375 469.47296142578125 C 175.4063720703125 472.5412292480469 432.915283203125 479.617919921875 362.2293395996094 468.6067199707031"/>
    <path stroke-width="0" fill="rgb(101, 51, 47)" opacity="0.7127475" stroke="rgb(146, 236, 81)" stroke-opacity="1.0" stroke-linecap="round" stroke-linejoin="round" d="M 352.0198974609375 141.40512084960938 C 359.2943420410156 157.9473114013672 319.9659118652344 218.7649383544922 365.4058532714844 150.12818908691406 C 383.4418029785156 148.62112426757812 334.6678466796875 182.9166259765625 338.5893249511719 156.2920684814453 C 334.4504699707031 190.5692901611328 340.4241027832031 187.2686309814453 368.2853698730469 189.57443237304688 C 335.8523864746094 168.28558349609375 323.8148193359375 221.8455047607422 352.0198974609375 141.40512084960938"/>
    <path stroke-width="0" fill="rgb(260, 268, 245)" opacity="1.1093838" stroke="rgb(33, 182, 73)" stroke-opacity="1.0" stroke-linecap="round" stroke-linejoin="round" d="M 342.9444885253906 261.671875 C 315.0947265625 221.67970275878906 337.8130798339844 236.40614318847656 346.2786865234375 255.0720977783203 C 392.527099609375 215.05149841308594 382.6751708984375 244.43328857421875 332.0846862792969 263.7541809082031 C 387.6051025390625 270.8393859863281 326.5348205566406 240.34881591796875 373.2289733886719 257.447998046875 C 320.82373046875 261.8601989746094 333.0202941894531 284.8297424316406 342.9444885253906 261.671875"/>
    <path stroke-width="0" fill="rgb(85, -5, 56)" opacity="0.57691824" stroke="rgb(172, 68, 187)" stroke-opacity="1.0" stroke-linecap="round" stroke-linejoin="round" d="M 370.9613342285156 175.5291290283203 C 379.9199523925781 231.266845703125 373.5190124511719 194.07542419433594 359.63763427734375 202.49559020996094 C 389.9090270996094 208.5757598876953 345.72998046875 184.24673461914062 367.9922790527344 199.5414276123047 C 385.622802734375 230.15185546875 380.5929870605469 218.634521484375 377.5737609863281 208.02171325683594 C 365.1184387207031 207.73287963867188 373.0189514160156 199.0228729248047 370.9613342285156 175.5291290283203"/>
    <path stroke-width="0" fill="rgb(251, 268, 272)" opacity="1.0554861" stroke="rgb(63, 146, 150)" stroke-opacity="1.0" stroke-linecap="round" stroke-linejoin="round" d="M 394.8446044921875 366.1491394042969 C 374.4312438964844 344.5773010253906 352.828857421875 334.7673645019531 404.32220458984375 391.0879211425781 C 357.1531982421875 353.4009704589844 343.9280090332031 411.65777587890625 366.5318908691406 343.15826416015625 C 416.9355163574219 380.5856018066406 351.70379638671875 319.0533142089844 382.0107116699219 343.19903564453125 C 387.43328857421875 287.841552734375 349.6966857910156 357.48291015625 394.8446044921875 366.1491394042969"/>
    <path stroke-width="0" fill="rgb(265, 281, 261)" opacity="0.7792223" stroke="rgb(56, 242, 114)" stroke-opacity="1.0" stroke-linecap="round" stroke-linejoin="round" d="M 377.71795654296875 336.067138671875 C 344.5101623535156 313.1802062988281 375.8531494140625 318.6769714355469 334.0242004394531 356.682373046875 C 323.42559814453125 255.96343994140625 345.09442138671875 317.3083801269531 345.84393310546875 256.8161926269531 C 373.50048828125 301.6551818847656 294.56341552734375 342.0321044921875 356.1123962402344 288.4161682128906 C 376.1322326660156 210.1744842529297 382.1927490234375 273.7404479980469 377.71795654296875 336.067138671875"/>
    <path stroke-width="0" fill="rgb(267, 257, 230)" opacity="1.0399035" stroke="rgb(178, 75, 207)" stroke-opacity="1.0" stroke-linecap="round" stroke-linejoin="round" d="M 315.49884033203125 516.7222900390625 C 347.2679748535156 428.7711181640625 320.5386047363281 493.4961242675781 309.495361328125 502.2464599609375 C 306.5688171386719 560.2845458984375 271.100341796875 516.153564453125 314.13470458984375 528.489990234375 C 297.6007995605469 516.9760131835938 308.36602783203125 520.5248413085938 309.31805419921875 511.3975524902344 C 320.02191162109375 508.16510009765625 303.2196044921875 535.5382080078125 315.49884033203125 516.7222900390625"/>
    <path stroke-width="0" fill="rgb(283, 282, 267)" opacity="1.0480846" stroke="rgb(184, 127, 243)" stroke-opacity="1.0" stroke-linecap="round" stroke-linejoin="round" d="M 351.72174072265625 64.26651000976562 C 391.25775146484375 45.48894500732422 312.356201171875 53.8693733215332 335.7564697265625 59.282806396484375 C 313.216552734375 89.59476470947266 360.0047607421875 63.66897964477539 341.27777099609375 66.1398696899414 C 369.37799072265625 56.36320877075195 336.5953369140625 20.235380172729492 358.8901672363281 -17.34164810180664 C 349.2304382324219 86.3176498413086 405.72955322265625 73.9251937866211 351.72174072265625 64.26651000976562"/>
    <path stroke-width="0" fill="rgb(264, 275, 262)" opacity="1.0541003" stroke="rgb(108, 154, 4)" stroke-opacity="1.0" stroke-linecap="round" stroke-linejoin="round" d="M 393.3586120605469 401.9481201171875 C 410.5799865722656 441.150146484375 394.3552551269531 432.011962890625 410.3162841796875 416.27593994140625 C 369.0084228515625 417.5133056640625 372.2988586425781 416.4329833984375 375.3322448730469 404.6671142578125 C 397.0166015625 383.99237060546875 413.33856201171875 415.2754821777344 382.85845947265625 382.40203857421875 C 399.4210205078125 398.6610412597656 341.3859558105469 415.9044189453125 393.3586120605469 401.9481201171875"/>
    <path stroke-width="0" fill="rgb(83, 112, 133)" opacity="0.682245" stroke="rgb(168, 73, 157)" stroke-opacity="1.0" stroke-linecap="round" stroke-linejoin="round" d="M 338.4798889160156 40.2976188659668 C 327.3396911621094 55.28207778930664 321.5890808105469 50.19517135620117 330.8447265625 48.70552444458008 C 346.7265625 54.415828704833984 341.583740234375 59.40762710571289 332.4892272949219 13.858173370361328 C 341.700927734375 82.69078826904297 349.4130859375 50.8552360534668 330.6165771484375 50.164058685302734 C 342.2869567871094 41.399471282958984 352.97650146484375 47.53516387939453 338.4798889160156 40.2976188659668"/>
    <path stroke-width="0" fill="rgb(266, 260, 244)" opacity="1.105016" stroke="rgb(34, 76, 145)" stroke-opacity="1.0" stroke-linecap="round" stroke-linejoin="round" d="M 418.51019287109375 481.7821044921875 C 431.0567626953125 506.3902587890625 451.53125 522.998779296875 409.93597412109375 506.746826171875 C 407.02508544921875 480.4789733886719 364.15374755859375 489.7503356933594 414.2588195800781 483.29669189453125 C 421.6234436035156 509.02813720703125 375.2218322753906 523.8463134765625 429.60400390625 515.9144897460938 C 410.47735595703125 542.7652587890625 401.1468505859375 541.6893310546875 418.51019287109375 481.7821044921875"/>
    <path stroke-width="0" fill="rgb(210, 225, 214)" opacity="0.8991701" stroke="rgb(146, 166, 166)" stroke-opacity="1.0" stroke-linecap="round" stroke-linejoin="round" d="M 333.1954345703125 386.3766784667969 C 379.51483154296875 370.9569396972656 324.100341796875 289.95989990234375 370.0943603515625 403.23748779296875 C 317.4620361328125 342.4364013671875 353.9154968261719 378.7922668457031 347.5713195800781 345.8011474609375 C 372.8727111816406 358.3694763183594 341.07684326171875 320.3691101074219 317.04937744140625 387.9231262207031 C 310.20831298828125 378.7795715332031 332.10260009765625 383.290771484375 333.1954345703125 386.3766784667969"/>
    <path stroke-width="0" fill="rgb(263, 259, 281)" opacity="1.0487726" stroke="rgb(228, 93, 111)" stroke-opacity="1.0" stroke-linecap="round" stroke-linejoin="round" d="M 375.2880554199219 398.99237060546875 C 396.9893493652344 404.4644775390625 353.9188232421875 401.2518310546875 375.95465087890625 384.1115417480469 C 395.9244079589844 396.8204345703125 404.6585388183594 400.1213684082031 364.7510070800781 369.490234375 C 406.5723876953125 414.65203857421875 362.8612060546875 388.2281494140625 385.79608154296875 407.4893798828125 C 389.74639892578125 370.4890441894531 355.9005126953125 419.1728515625 375.2880554199219 398.99237060546875"/>
    <path stroke-width="0" fill="rgb(19, 37, -43)" opacity="0.74333704" stroke="rgb(205, 179, 25)" stroke-opacity="1.0" stroke-linecap="round" stroke-linejoin="round" d="M 341.20550537109375 249.37384033203125 C 345.06951904296875 242.22811889648438 393.8088073730469 266.455810546875 355.33660888671875 280.8189697265625 C 350.199462890625 195.5829315185547 360.8786315917969 145.7423858642578 356.8532409667969 234.7363739013672 C 326.98046875 240.5711212158203 347.8963623046875 242.46824645996094 351.7540588378906 243.92333984375 C 378.1663513183594 204.17330932617188 357.7777099609375 240.5840606689453 341.20550537109375 249.37384033203125"/>
    <path stroke-width="0" fill="rgb(258, 263, 245)" opacity="1.0461836" stroke="rgb(182, 254, 38)" stroke-opacity="1.0" stroke-linecap="round" stroke-linejoin="round" d="M 391.0294494628906 476.32861328125 C 394.7186584472656 516.8497924804688 432.2774963378906 477.3760070800781 380.8682861328125 543.3519897460938 C 380.0926513671875 513.611083984375 372.9058837890625 496.79095458984375 385.1468505859375 537.4976806640625 C 398.59600830078125 537.6722412109375 403.4391174316406 534.2794799804688 391.99700927734375 541.9212646484375 C 403.2930603027344 477.02099609375 387.3182678222656 521.2581787109375 391.0294494628906 476.32861328125"/>
    <path stroke-width="0" fill="rgb(284, 272, 258)" opacity="0.9965677" stroke="rgb(41, 156, 31)" stroke-opacity="1.0" stroke-linecap="round" stroke-linejoin="round" d="M 353.01348876953125 47.123897552490234 C 357.9897155761719 58.15562438964844 340.9620666503906 47.64011001586914 335.495849609375 42.38435745239258 C 354.0899353027344 78.05916595458984 335.8337707519531 21.72235679626465 374.414794921875 76.80001831054688 C 394.5921325683594 68.15030670166016 351.09014892578125 38.92190170288086 355.5064392089844 44.70454406738281 C 327.78790283203125 42.23952102661133 358.6071472167969 47.921966552734375 353.01348876953125 47.123897552490234"/>
    <path stroke-width="0" fill="rgb(218, 248, 248)" opacity="1.301629" stroke="rgb(205, 145, 103)" stroke-opacity="1.0" stroke-linecap="round" stroke-linejoin="round" d="M 343.34259033203125 137.13580322265625 C 347.2366027832031 115.74040985107422 391.36114501953125 173.94471740722656 356.7595520019531 125.87934875488281 C 326.377685546875 132.21343994140625 336.6327209472656 81.79766845703125 373.0701599121094 102.5208511352539 C 345.3150329589844 93.54285430908203 359.0807189941406 133.8438262939453 355.1077575683594 139.8226318359375 C 353.9819030761719 105.83445739746094 365.7766418457031 119.1197509765625 343.34259033203125 137.13580322265625"/>
    <path stroke-width="0" fill="rgb(95, 116, 103)" opacity="0.82613814" stroke="rgb(177, 115, 184)" stroke-opacity="1.0" stroke-linecap="round" stroke-linejoin="round" d="M 354.6650085449219 242.86288452148438 C 334.12225341796875 247.79649353027344 388.78387451171875 215.6337127685547 352.388671875 226.81259155273438 C 395.444091796875 293.0399475097656 373.0526123046875 250.72645568847656 377.1959228515625 240.23939514160156 C 375.34002685546875 247.9047088623047 364.8727111816406 219.84593200683594 358.3297119140625 224.80210876464844 C 372.64794921875 244.4764862060547 341.5519104003906 212.3912353515625 354.6650085449219 242.86288452148438"/>
    <path stroke-width="0" fill="rgb(78, -20, -1)" opacity="0.9241499" stroke="rgb(248, 218, 2)" stroke-opacity="1.0" stroke-linecap="round" stroke-linejoin="round" d="M 305.6176452636719 504.9375915527344 C 312.6873779296875 496.1935119628906 314.4166259765625 540.3499755859375 312.7379150390625 558.4332885742188 C 294.837646484375 534.4891357421875 289.262939453125 515.0250244140625 318.55548095703125 469.9300231933594 C 287.53955078125 505.74713134765625 328.30072021484375 487.5792236328125 317.1871337890625 496.6056823730469 C 261.0889892578125 492.7235412597656 257.77874755859375 531.8743286132812 305.6176452636719 504.9375915527344"/>
    <path stroke-width="0" fill="rgb(268, 270, 243)" opacity="1.0602096" stroke="rgb(186, 43, 132)" stroke-opacity="1.0" stroke-linecap="round" stroke-linejoin="round" d="M 304.76678466796875 515.4262084960938 C 319.35137939453125 488.9098205566406 252.91586303710938 535.851318359375 292.04217529296875 478.5545959472656 C 317.749267578125 523.9696044921875 338.8138427734375 472.53314208984375 297.6305236816406 492.337158203125 C 316.7049255371094 509.9237976074219 332.159912109375 475.16680908203125 298.741455078125 506.4794616699219 C 307.5237731933594 492.8000793457031 275.0107421875 515.68359375 304.76678466796875 515.4262084960938"/>
    <path stroke-width="0" fill="rgb(263, 291, 266)" opacity="0.95787114" stroke="rgb(50, 4, 202)" stroke-opacity="1.0" stroke-linecap="round" stroke-linejoin="round" d="M 367.8039855957031 245.85829162597656 C 354.8761901855469 259.6344299316406 336.21380615234375 257.28314208984375 375.1745300292969 240.76455688476562 C 366.6986389160156 240.21701049804688 327.37738037109375 237.2488250732422 327.2811279296875 293.4118957519531 C 333.4625244140625 259.41314697265625 335.8792724609375 242.00990295410156 362.31719970703125 214.15231323242188 C 374.2178649902344 229.36680603027344 376.6002197265625 227.20204162597656 367.8039855957031 245.85829162597656"/>
    <path stroke-width="0" fill="rgb(248, 250, 285)" opacity="1.1609726" stroke="rgb(88, 236, 179)" stroke-opacity="1.0" stroke-linecap="round" stroke-linejoin="round" d="M 341.10821533203125 140.24014282226562 C 375.8992614746094 189.782470703125 343.5375061035156 164.27394104003906 356.2759704589844 86.10668182373047 C 376.8743591308594 85.72515869140625 355.1492614746094 119.89190673828125 372.1450500488281 142.34739685058594 C 335.6878662109375 100.80186462402344 341.4445495605469 144.3303985595703 362.10235595703125 115.02572631835938 C 324.6126403808594 94.50980377197266 383.7867431640625 146.84483337402344 341.10821533203125 140.24014282226562"/>
    <path stroke-width="0" fill="rgb(277, 245, 290)" opacity="0.9528335" stroke="rgb(41, 158, 147)" stroke-opacity="1.0" stroke-linecap="round" stroke-linejoin="round" d="M 389.48309326171875 428.40679931640625 C 416.41595458984375 423.6819152832031 416.3564147949219 468.87176513671875 421.81146240234375 415.0171813964844 C 404.3456726074219 440.00311279296875 410.97113037109375 386.9786376953125 397.34283447265625 405.3895568847656 C 397.81842041015625 414.1444396972656 426.4788818359375 430.5041809082031 395.3546142578125 409.75701904296875 C 362.1146240234375 420.5008850097656 388.54473876953125 388.2796936035156 389.48309326171875 428.40679931640625"/>
    <path stroke-width="0" fill="rgb(67, 113, 171)" opacity="1.0041107" stroke="rgb(238, 156, 136)" stroke-opacity="1.0" stroke-linecap="round" stroke-linejoin="round" d="M 353.772705078125 28.61592674255371 C 357.30609130859375 68.58464813232422 340.61004638671875 53.909141540527344 328.97064208984375 46.170021057128906 C 337.208251953125 51.10826873779297 333.0618591308594 49.85847473144531 336.5792541503906 57.652374267578125 C 330.5995788574219 41.576839447021484 318.7886047363281 32.700035095214844 356.74163818359375 44.05957794189453 C 355.3978271484375 23.28175926208496 357.9336242675781 47.76039505004883 353.772705078125 28.61592674255371"/>
    <path stroke-width="0" fill="rgb(132, 96, 79)" opacity="1.112915" stroke="rgb(186, 79, 101)" stroke-opacity="1.0" stroke-linecap="round" stroke-linejoin="round" d="M 332.9681701660156 222.2109375 C 360.3597106933594 194.001220703125 356.9273986816406 197.676513671875 355.49072265625 242.59954833984375 C 368.9866943359375 241.74998474121094 341.4471130371094 181.411865234375 358.5209045410156 207.35125732421875 C 315.7218933105469 226.11947631835938 357.77862548828125 220.9038543701172 368.1929931640625 231.63079833984375 C 312.9546203613281 208.4193572998047 351.66534423828125 206.62400817871094 332.9681701660156 222.2109375"/>
    <path stroke-width="0" fill="rgb(250, 239, 254)" opacity="1.0659508" stroke="rgb(47, 240, 188)" stroke-opacity="1.0" stroke-linecap="round" stroke-linejoin="round" d="M 372.53192138671875 230.09527587890625 C 395.87506103515625 267.0286865234375 349.7255859375 303.0892639160156 362.9326171875 274.5894470214844 C 297.82171630859375 291.5404968261719 355.6373291015625 261.8382873535156 367.13623046875 254.5544891357422 C 329.3160095214844 255.88699340820312 353.6256103515625 224.45822143554688 366.889404296875 235.833251953125 C 359.3448486328125 273.19561767578125 345.69708251953125 252.07598876953125 372.53192138671875 230.09527587890625"/>
    <path stroke-width="0" fill="rgb(45, 69, 6)" opacity="0.5230555" stroke="rgb(57, 64, 14)" stroke-opacity="1.0" stroke-linecap="round" stroke-linejoin="round" d="M 356.4494934082031 220.98089599609375 C 366.1964416503906 199.72393798828125 337.7384948730469 212.18124389648438 377.0672607421875 230.37191772460938 C 349.34521484375 254.3727264404297 330.90985107421875 245.1873321533203 372.86566162109375 227.00979614257812 C 363.69140625 264.6602783203125 369.8947448730469 215.04615783691406 347.23095703125 273.8695983886719 C 373.8477478027344 208.141845703125 333.6737060546875 235.07960510253906 356.4494934082031 220.98089599609375"/>
    <path stroke-width="0" fill="rgb(111, 73, -6)" opacity="0.46131864" stroke="rgb(79, 177, 96)" stroke-opacity="1.0" stroke-linecap="round" stroke-linejoin="round" d="M 375.0938415527344 287.33203125 C 368.1636657714844 293.37200927734375 364.1142883300781 277.5022277832031 351.20953369140625 317.1464538574219 C 386.2134094238281 342.7050476074219 371.3506774902344 300.3399658203125 368.29705810546875 312.2491455078125 C 368.5481872558594 243.7695770263672 400.9684753417969 252.46511840820312 354.0379638671875 297.7327880859375 C 349.00567626953125 305.5035400390625 358.31219482421875 317.92413330078125 375.0938415527344 287.33203125"/>
    <path stroke-width="0" fill="rgb(77, 52, 94)" opacity="0.9939342" stroke="rgb(6, 17, 173)" stroke-opacity="1.0" stroke-linecap="round" stroke-linejoin="round" d="M 396.9825439453125 397.8257141113281 C 410.116943359375 383.3544616699219 349.8174743652344 388.4231262207031 393.76190185546875 387.3565979003906 C 397.6176452636719 440.2210998535156 408.3385925292969 446.551025390625 403.15966796875 417.94866943359375 C 376.3622741699219 292.5245361328125 379.9127197265625 394.4224853515625 406.11810302734375 402.93798828125 C 392.3457336425781 421.7151184082031 416.7221374511719 416.7266540527344 396.9825439453125 397.8257141113281"/>
    <path stroke-width="0" fill="rgb(53, -7, 5)" opacity="0.72842896" stroke="rgb(136, 228, 252)" stroke-opacity="1.0" stroke-linecap="round" stroke-linejoin="round" d="M 331.507080078125 154.85606384277344 C 385.4356384277344 113.03726196289062 369.38995361328125 113.74055480957031 364.4677429199219 128.49172973632812 C 366.16680908203125 141.7840118408203 369.4333190917969 127.85734558105469 367.7952880859375 150.84780883789062 C 370.0580139160156 157.962646484375 376.7785339355469 111.90047454833984 354.7080993652344 125.73865509033203 C 348.8052062988281 104.1085205078125 388.6379089355469 105.34759521484375 331.507080078125 154.85606384277344"/>
    <path stroke-width="0" fill="rgb(12, 80, 63)" opacity="0.5750836" stroke="rgb(169, 67, 5)" stroke-opacity="1.0" stroke-linecap="round" stroke-linejoin="round" d="M 342.5555419921875 256.76446533203125 C 351.79559326171875 282.63482666015625 356.65045166015625 285.6562805175781 361.19476318359375 293.8782043457031 C 376.340087890625 272.90338134765625 345.0464172363281 325.33331298828125 354.3370666503906 298.19219970703125 C 350.70257568359375 236.73983764648438 339.521484375 277.7372131347656 361.6837463378906 267.1959533691406 C 363.79412841796875 282.2513427734375 347.2611999511719 283.4382019042969 342.5555419921875 256.76446533203125"/>
    <path stroke-width="0" fill="rgb(318, 273, 252)" opacity="0.7260247" stroke="rgb(81, 97, 150)" stroke-opacity="1.0" stroke-linecap="round" stroke-linejoin="round" d="M 362.7922668457031 181.00965881347656 C 343.32415771484375 116.4650650024414 366.3429260253906 240.85324096679688 370.19683837890625 165.56216430664062 C 370.3173522949219 130.00987243652344 339.0063781738281 149.9201202392578 371.3331298828125 99.00215911865234 C 320.2083435058594 161.9382781982422 338.1737365722656 103.03469848632812 371.68994140625 116.73812103271484 C 320.63800048828125 142.4139404296875 359.7701416015625 116.56764221191406 362.7922668457031 181.00965881347656"/>
    <path stroke-width="0" fill="rgb(50, 19, 5)" opacity="0.5805592" stroke="rgb(160, 222, 69)" stroke-opacity="1.0" stroke-linecap="round" stroke-linejoin="round" d="M 364.0677795410156 271.15606689453125 C 369.2435302734375 237.9894561767578 374.5354919433594 244.40464782714844 342.076171875 244.48252868652344 C 339.8312683105469 247.6687774658203 329.5494079589844 276.927734375 338.42413330078125 217.16481018066406 C 334.7076416015625 203.8185577392578 329.79931640625 255.9479522705078 336.0097351074219 250.57664489746094 C 390.3680114746094 224.8183135986328 366.15582275390625 188.39410400390625 364.0677795410156 271.15606689453125"/>
    <path stroke-width="0" fill="rgb(60, 20, 72)" opacity="0.8851418" stroke="rgb(47, 242, 175)" stroke-opacity="1.0" stroke-linecap="round" stroke-linejoin="round" d="M 360.0624084472656 310.3065490722656 C 373.44586181640625 357.2015075683594 396.4404296875 256.5340576171875 382.8219909667969 334.02191162109375 C 339.74200439453125 305.6425476074219 367.21856689453125 244.6435089111328 326.4664611816406 298.3437805175781 C 376.0123291015625 245.72618103027344 349.2845458984375 276.5448303222656 355.2069091796875 302.1268310546875 C 366.03826904296875 268.47528076171875 335.7605285644531 277.26214599609375 360.0624084472656 310.3065490722656"/>
    <path stroke-width="0" fill="rgb(17, 25, -14)" opacity="0.7693169" stroke="rgb(241, 186, 64)" stroke-opacity="1.0" stroke-linecap="round" stroke-linejoin="round" d="M 359.67364501953125 302.1300354003906 C 332.615966796875 286.6938171386719 380.5367126464844 281.97625732421875 350.3542175292969 287.1441955566406 C 362.21087646484375 274.6242980957031 356.10174560546875 240.72756958007812 354.5758056640625 271.6670227050781 C 374.3768005371094 275.39337158203125 369.32769775390625 249.55604553222656 345.7044677734375 296.2201843261719 C 366.10980224609375 281.6134338378906 342.5899353027344 305.4042053222656 359.67364501953125 302.1300354003906"/>
    <path stroke-width="0" fill="rgb(243, 265, 259)" opacity="1.0796278" stroke="rgb(132, 6, 52)" stroke-opacity="1.0" stroke-linecap="round" stroke-linejoin="round" d="M 366.9534606933594 312.7857360839844 C 333.9316711425781 318.2557373046875 384.53466796875 330.2619323730469 379.3526916503906 318.85516357421875 C 349.56756591796875 313.9071350097656 375.98394775390625 291.8063659667969 374.1007385253906 317.7889709472656 C 371.95806884765625 348.92010498046875 395.5291442871094 329.8149108886719 371.400146484375 328.6768798828125 C 392.39959716796875 314.68316650390625 375.9444580078125 355.7110290527344 366.9534606933594 312.7857360839844"/>
    <path stroke-width="0" fill="rgb(1, 7, -2)" opacity="0.6034604" stroke="rgb(220, 29, 131)" stroke-opacity="1.0" stroke-linecap="round" stroke-linejoin="round" d="M 357.11883544921875 362.6448974609375 C 373.88018798828125 370.10943603515625 348.0753479003906 336.35205078125 365.1448669433594 344.66107177734375 C 333.3862609863281 424.62164306640625 345.4690856933594 364.44769287109375 368.4196472167969 393.73785400390625 C 348.5143127441406 404.3034362792969 381.6546936035156 422.8375244140625 365.22955322265625 369.0135192871094 C 345.0939025878906 436.02215576171875 357.2043762207031 343.8844299316406 357.11883544921875 362.6448974609375"/>
    <path stroke-width="0" fill="rgb(261, 239, 254)" opacity="1.0700433" stroke="rgb(182, 100, 144)" stroke-opacity="1.0" stroke-linecap="round" stroke-linejoin="round" d="M 349.12908935546875 375.90380859375 C 309.7265930175781 371.8384704589844 312.17926025390625 425.2731628417969 343.4809265136719 392.5430603027344 C 329.2434387207031 374.0584411621094 341.5606689453125 358.1979675292969 344.98150634765625 374.09320068359375 C 294.0567321777344 342.2464599609375 364.7085266113281 344.79595947265625 319.3103332519531 384.6509094238281 C 330.5060729980469 346.2370300292969 312.24493408203125 358.7606506347656 349.12908935546875 375.90380859375"/>
    <path stroke-width="0" fill="rgb(17, 42, 8)" opacity="0.5932291" stroke="rgb(195, 190, 230)" stroke-opacity="1.0" stroke-linecap="round" stroke-linejoin="round" d="M 318.8705139160156 400.00201416015625 C 320.38330078125 397.2500915527344 311.3176574707031 412.9008483886719 345.1064147949219 435.9245300292969 C 291.9230651855469 401.54345703125 333.4510192871094 428.9037780761719 300.5304870605469 468.0530090332031 C 327.7064514160156 352.10443115234375 353.36785888671875 408.0969543457031 319.03009033203125 375.24945068359375 C 348.04058837890625 424.3627014160156 356.88873291015625 385.6866149902344 318.8705139160156 400.00201416015625"/>
    <path stroke-width="0" fill="rgb(12, 30, 106)" opacity="0.7154759" stroke="rgb(140, 149, 245)" stroke-opacity="1.0" stroke-linecap="round" stroke-linejoin="round" d="M 356.1652526855469 325.7038269042969 C 331.833251953125 370.5112609863281 372.3135986328125 312.1442565917969 337.5709228515625 343.75665283203125 C 323.88812255859375 363.2269592285156 363.4272766113281 275.1121826171875 329.36834716796875 338.49005126953125 C 321.7005615234375 356.86859130859375 330.46209716796875 340.40728759765625 326.179931640625 341.3446960449219 C 320.4255065917969 335.5657043457031 311.7864074707031 332.31268310546875 356.1652526855469 325.7038269042969"/>
    <path stroke-width="0" fill="rgb(82, 50, 33)" opacity="0.3162672" stroke="rgb(16, 123, 249)" stroke-opacity="1.0" stroke-linecap="round" stroke-linejoin="round" d="M 303.2814636230469 421.16204833984375 C 331.56060791015625 404.30902099609375 273.3182067871094 448.9185485839844 321.0216064453125 427.13311767578125 C 320.9653625488281 457.31243896484375 325.2059020996094 441.5169982910156 308.67010498046875 455.4717102050781 C 326.54254150390625 437.2464599609375 349.8559875488281 425.5334167480469 318.5264587402344 446.6327819824219 C 357.8573913574219 370.33636474609375 322.0487060546875 424.8688659667969 303.2814636230469 421.16204833984375"/>
    <path stroke-width="0" fill="rgb(270, 267, 292)" opacity="0.9193696" stroke="rgb(86, 245, 59)" stroke-opacity="1.0" stroke-linecap="round" stroke-linejoin="round" d="M 334.9235534667969 286.90423583984375 C 348.44024658203125 285.1646423339844 323.5774230957031 287.7631530761719 365.80731201171875 280.05157470703125 C 333.23638916015625 298.9227600097656 337.4585876464844 257.2122497558594 331.8922424316406 291.9837646484375 C 358.4369201660156 281.07403564453125 365.7388000488281 275.24847412109375 346.4127197265625 293.5628662109375 C 319.11907958984375 271.25775146484375 377.2045593261719 307.8614196777344 334.9235534667969 286.90423583984375"/>
    <path stroke-width="0" fill="rgb(121, 116, 69)" opacity="0.38191137" stroke="rgb(240, 203, 160)" stroke-opacity="1.0" stroke-linecap="round" stroke-linejoin="round" d="M 357.7626953125 278.9826354980469 C 336.98480224609375 278.162109375 379.5781555175781 298.239501953125 373.9513854980469 260.7486267089844 C 369.8208312988281 279.94342041015625 376.6669921875 285.9820861816406 372.16387939453125 300.7071533203125 C 361.6790466308594 267.9373779296875 396.4868469238281 282.5386657714844 356.162109375 286.7258605957031 C 355.30938720703125 297.6451721191406 350.9074401855469 297.1414794921875 357.7626953125 278.9826354980469"/>
    <path stroke-width="0" fill="rgb(-3, -13, 36)" opacity="0.39704302" stroke="rgb(74, 216, 157)" stroke-opacity="1.0" stroke-linecap="round" stroke-linejoin="round" d="M 368.3547058105469 417.16497802734375 C 377.4009704589844 411.05120849609375 376.07427978515625 406.3092956542969 365.5218505859375 420.49627685546875 C 374.0947570800781 404.4592590332031 362.4393310546875 354.701904296875 367.8196105957031 413.5951843261719 C 335.66552734375 348.2855224609375 347.7300109863281 388.36663818359375 345.9154052734375 385.6159362792969 C 367.2962951660156 403.4507751464844 356.562744140625 398.1913757324219 368.3547058105469 417.16497802734375"/>
    <path stroke-width="0" fill="rgb(82, -30, -15)" opacity="0.83214086" stroke="rgb(126, 163, 93)" stroke-opacity="1.0" stroke-linecap="round" stroke-linejoin="round" d="M 365.2408447265625 109.8309326171875 C 357.31878662109375 90.97974395751953 349.9696044921875 91.5009994506836 344.6819152832031 83.53749084472656 C 378.3619689941406 113.61267852783203 329.1416320800781 80.4045639038086 362.7591247558594 114.54006958007812 C 383.5912170410156 92.34236145019531 351.0980529785156 94.68153381347656 352.6922912597656 105.05361938476562 C 351.8821105957031 105.04367065429688 332.4822692871094 97.02649688720703 365.2408447265625 109.8309326171875"/>
    <path stroke-width="0" fill="rgb(136, 98, 34)" opacity="0.67231435" stroke="rgb(24, 219, 248)" stroke-opacity="1.0" stroke-linecap="round" stroke-linejoin="round" d="M 360.4033508300781 432.0494689941406 C 368.2983703613281 379.420166015625 383.55426025390625 416.147705078125 354.07904052734375 374.55419921875 C 367.1200866699219 403.7862548828125 370.4231872558594 362.7964782714844 364.5639343261719 347.97552490234375 C 384.80877685546875 407.6157531738281 392.5709533691406 352.3999938964844 358.48504638671875 365.6287841796875 C 379.86871337890625 396.6336975097656 358.99853515625 417.3490905761719 360.4033508300781 432.0494689941406"/>
    <path stroke-width="0" fill="rgb(270, 262, 279)" opacity="0.92171484" stroke="rgb(231, 197, 84)" stroke-opacity="1.0" stroke-linecap="round" stroke-linejoin="round" d="M 359.7847595214844 221.83261108398438 C 369.0574951171875 242.49754333496094 382.5142517089844 217.16847229003906 364.51470947265625 215.5210418701172 C 398.53363037109375 205.9582977294922 350.2508850097656 245.6837615966797 372.8501892089844 236.08767700195312 C 361.0325012207031 250.59991455078125 363.5256652832031 259.1518249511719 362.565185546875 203.5486602783203 C 396.61187744140625 243.34519958496094 356.3885192871094 251.89088439941406 359.7847595214844 221.83261108398438"/>
    <path stroke-width="0" fill="rgb(188, 177, 146)" opacity="0.59399486" stroke="rgb(103, 59, 33)" stroke-opacity="1.0" stroke-linecap="round" stroke-linejoin="round" d="M 367.4636535644531 366.5304260253906 C 384.0582275390625 347.8016662597656 392.4827575683594 335.5948486328125 362.4207458496094 350.1367492675781 C 365.0629577636719 332.2716064453125 382.2301330566406 347.4835510253906 407.9307861328125 368.0664367675781 C 384.0318908691406 354.3431091308594 369.5700988769531 332.4568176269531 361.0845031738281 359.3681640625 C 378.2520446777344 389.2181091308594 365.9855041503906 399.5484313964844 367.4636535644531 366.5304260253906"/>
    <path stroke-width="0" fill="rgb(108, 112, 149)" opacity="0.8568771" stroke="rgb(107, 142, 219)" stroke-opacity="1.0" stroke-linecap="round" stroke-linejoin="round" d="M 389.1166687011719 346.3473815917969 C 405.34661865234375 377.51531982421875 420.779296875 422.66265869140625 430.1719970703125 413.2692565917969 C 431.7638244628906 412.0654602050781 414.8109130859375 443.466796875 413.0951232910156 396.9328918457031 C 417.5203552246094 424.6844787597656 433.5979919433594 411.8332214355469 403.1894836425781 410.8023986816406 C 408.69744873046875 390.9194641113281 417.8367004394531 412.40875244140625 389.1166687011719 346.3473815917969"/>
    <path stroke-width="0" fill="rgb(122, 87, 98)" opacity="0.40667886" stroke="rgb(68, 33, 14)" stroke-opacity="1.0" stroke-linecap="round" stroke-linejoin="round" d="M 351.7579650878906 311.5868835449219 C 354.1424255371094 322.2887268066406 331.7225646972656 285.2458801269531 352.140625 327.7637939453125 C 366.2442321777344 340.85186767578125 363.9634094238281 301.43310546875 387.0302734375 340.7155456542969 C 390.5966491699219 327.9399108886719 383.1120300292969 329.62646484375 392.4248352050781 332.0694885253906 C 360.494384765625 310.1943664550781 363.7530822753906 317.3246765136719 351.7579650878906 311.5868835449219"/>
    <path stroke-width="0" fill="rgb(152, 127, 182)" opacity="0.44662112" stroke="rgb(66, 116, 174)" stroke-opacity="1.0" stroke-linecap="round" stroke-linejoin="round" d="M 371.2629699707031 405.1055603027344 C 386.8194274902344 376.0661315917969 348.50537109375 379.3841247558594 354.0404968261719 389.11370849609375 C 332.2806701660156 395.94317626953125 350.77435302734375 421.1624755859375 318.0910339355469 369.4827575683594 C 337.478759765625 398.98834228515625 333.6972351074219 419.9669494628906 370.7259521484375 378.28411865234375 C 361.9918518066406 375.67034912109375 379.0703125 378.9557189941406 371.2629699707031 405.1055603027344"/>
    <path stroke-width="0" fill="rgb(70, 84, 33)" opacity="0.76917344" stroke="rgb(72, 96, 46)" stroke-opacity="1.0" stroke-linecap="round" stroke-linejoin="round" d="M 366.92523193359375 433.3681640625 C 373.9906921386719 431.1403503417969 368.1343688964844 403.9267272949219 409.2827453613281 432.0062561035156 C 377.2630920410156 405.55999755859375 380.6446533203125 398.17706298828125 382.55023193359375 436.4584045410156 C 391.90594482421875 373.9909362792969 384.7437438964844 417.92047119140625 365.9270935058594 420.9305419921875 C 361.9638366699219 398.1166076660156 392.1902160644531 444.85076904296875 366.92523193359375 433.3681640625"/>
    <path stroke-width="0" fill="rgb(217, 247, 240)" opacity="0.9615238" stroke="rgb(66, 95, 149)" stroke-opacity="1.0" stroke-linecap="round" stroke-linejoin="round" d="M 335.6492919921875 325.13409423828125 C 326.43505859375 296.8349304199219 336.16583251953125 323.57562255859375 330.0072937011719 339.7104187011719 C 362.5380554199219 314.8831787109375 358.185302734375 340.3036804199219 351.0763854980469 323.20147705078125 C 347.77142333984375 376.638916015625 320.72479248046875 316.6263427734375 334.5016174316406 327.8615417480469 C 351.8818054199219 316.797119140625 333.1695251464844 352.822021484375 335.6492919921875 325.13409423828125"/>
    <path stroke-width="0" fill="rgb(236, 229, 263)" opacity="0.95862436" stroke="rgb(203, 19, 132)" stroke-opacity="1.0" stroke-linecap="round" stroke-linejoin="round" d="M 337.3428649902344 89.86722564697266 C 335.3852233886719 116.26446533203125 357.0088806152344 95.26482391357422 371.08349609375 112.37734985351562 C 370.3387145996094 111.04120635986328 355.4452209472656 84.18070983886719 369.8406677246094 84.18817901611328 C 328.0869140625 101.63650512695312 345.2037658691406 71.88089752197266 342.5533142089844 101.52806091308594 C 347.87640380859375 98.7547378540039 347.54473876953125 87.24337005615234 337.3428649902344 89.86722564697266"/>
    <path stroke-width="0" fill="rgb(54, 145, 102)" opacity="0.18864058" stroke="rgb(147, 244, 164)" stroke-opacity="1.0" stroke-linecap="round" stroke-linejoin="round" d="M 329.7553405761719 104.47303009033203 C 380.9117431640625 98.69316101074219 401.746337890625 79.7274169921875 354.7901306152344 67.16902923583984 C 398.7028503417969 83.05850219726562 393.5108947753906 86.47970581054688 395.4366149902344 111.16144561767578 C 366.4949645996094 144.05859375 362.4671630859375 88.62224578857422 357.365966796875 88.34800720214844 C 384.97613525390625 103.37215423583984 408.9635925292969 101.38529968261719 329.7553405761719 104.47303009033203"/>
    <path stroke-width="0" fill="rgb(202, 210, 166)" opacity="0.5718023" stroke="rgb(109, 130, 136)" stroke-opacity="1.0" stroke-linecap="round" stroke-linejoin="round" d="M 360.0682067871094 281.3186340332031 C 389.0213928222656 269.66705322265625 365.73370361328125 282.371337890625 371.26043701171875 281.24200439453125 C 391.4516906738281 281.3891906738281 359.3730163574219 278.96087646484375 381.20123291015625 287.5439453125 C 341.2544250488281 297.2677917480469 350.2864685058594 254.38516235351562 342.5575256347656 269.931884765625 C 363.572265625 273.6003723144531 327.9285888671875 277.0920715332031 360.0682067871094 281.3186340332031"/>
    <path stroke-width="0" fill="rgb(92, 9, 26)" opacity="0.91683227" stroke="rgb(47, 230, 138)" stroke-opacity="1.0" stroke-linecap="round" stroke-linejoin="round" d="M 381.2705078125 489.2673645019531 C 420.4954833984375 477.85040283203125 385.8751220703125 482.13250732421875 430.1939697265625 487.20989990234375 C 419.4353942871094 479.4044494628906 427.6224670410156 459.2066650390625 415.09771728515625 492.60382080078125 C 410.191650390625 492.9246520996094 387.4511413574219 543.5504150390625 420.4597473144531 488.031005859375 C 406.381103515625 495.77093505859375 427.1209411621094 469.88519287109375 381.2705078125 489.2673645019531"/>
    <path stroke-width="0" fill="rgb(132, 75, 156)" opacity="0.16605206" stroke="rgb(224, 116, 184)" stroke-opacity="1.0" stroke-linecap="round" stroke-linejoin="round" d="M 366.9037780761719 110.86308288574219 C 394.4068908691406 109.75704193115234 372.92010498046875 109.97979736328125 359.0358581542969 89.17158508300781 C 355.83843994140625 113.83955383300781 363.7134094238281 123.24220275878906 390.5470275878906 93.45745849609375 C 376.60040283203125 116.34778594970703 343.1310119628906 83.74736785888672 312.9600524902344 131.53076171875 C 334.16375732421875 100.16567993164062 350.3731689453125 104.65951538085938 366.9037780761719 110.86308288574219"/>
    <path stroke-width="0" fill="rgb(74, 114, 133)" opacity="0.2161295" stroke="rgb(230, 175, 178)" stroke-opacity="1.0" stroke-linecap="round" stroke-linejoin="round" d="M 394.8713073730469 95.59797668457031 C 399.72698974609375 59.70706558227539 398.2537841796875 74.8243637084961 388.4114074707031 95.1020736694336 C 387.90771484375 96.83773803710938 406.7729187011719 99.29430389404297 399.0904846191406 86.52526092529297 C 366.41778564453125 118.64399719238281 325.859375 93.42314910888672 317.1910705566406 101.24208068847656 C 340.5641784667969 121.99417114257812 349.3321838378906 90.1103744506836 394.8713073730469 95.59797668457031"/>
    <path stroke-width="0" fill="rgb(230, 204, 230)" opacity="0.77692664" stroke="rgb(192, 162, 61)" stroke-opacity="1.0" stroke-linecap="round" stroke-linejoin="round" d="M 356.2841796875 346.22369384765625 C 369.2552490234375 319.6289978027344 349.4435119628906 329.16876220703125 355.1614990234375 333.0596923828125 C 372.5360412597656 339.1234130859375 363.0223083496094 334.4678955078125 356.8822326660156 316.5984191894531 C 352.52545166015625 347.3743896484375 368.1524658203125 335.440185546875 363.2312927246094 330.8664245605469 C 386.4803161621094 325.626220703125 391.0206604003906 313.428955078125 356.2841796875 346.22369384765625"/>
    <path stroke-width="0" fill="rgb(214, 204, 250)" opacity="0.5351377" stroke="rgb(203, 244, 116)" stroke-opacity="1.0" stroke-linecap="round" stroke-linejoin="round" d="M 395.29736328125 397.61590576171875 C 434.8959655761719 417.1391296386719 408.1445617675781 412.2500305175781 395.8715515136719 398.9854736328125 C 385.8382263183594 428.06658935546875 395.85675048828125 443.3433837890625 355.12445068359375 408.1141357421875 C 350.0595703125 356.2893981933594 324.3339538574219 393.9805603027344 388.3209228515625 430.298828125 C 400.87811279296875 390.0782775878906 407.3841247558594 381.6842041015625 395.29736328125 397.61590576171875"/>
    <path stroke-width="0" fill="rgb(123, 125, 123)" opacity="0.89333194" stroke="rgb(209, 231, 207)" stroke-opacity="1.0" stroke-linecap="round" stroke-linejoin="round" d="M 366.07110595703125 -10.313698768615723 C 358.10107421875 -8.817402839660645 352.18414306640625 -1.461106300354004 369.2245178222656 -3.4766533374786377 C 387.265625 -7.575571537017822 377.2897033691406 -18.447284698486328 367.5125427246094 -32.20763397216797 C 357.3088073730469 10.338201522827148 353.7659606933594 6.857427597045898 346.7136535644531 -32.64646530151367 C 374.9783630371094 -16.048751831054688 375.07598876953125 -11.324017524719238 366.07110595703125 -10.313698768615723"/>
    <path stroke-width="0" fill="rgb(59, 10, 65)" opacity="0.3145209" stroke="rgb(160, 101, 15)" stroke-opacity="1.0" stroke-linecap="round" stroke-linejoin="round" d="M 341.7572326660156 111.99577331542969 C 341.5109558105469 99.08240509033203 350.266357421875 119.34037017822266 356.3760070800781 104.31217956542969 C 368.7221984863281 90.41070556640625 374.4111022949219 100.55548095703125 364.9897155761719 101.91093444824219 C 353.3580322265625 96.06175994873047 330.6832275390625 56.09446716308594 359.8861999511719 64.85331726074219 C 332.120361328125 96.03057861328125 371.2932434082031 127.89910125732422 341.7572326660156 111.99577331542969"/>
    <path stroke-width="0" fill="rgb(105, 109, 117)" opacity="0.62452865" stroke="rgb(65, 216, 8)" stroke-opacity="1.0" stroke-linecap="round" stroke-linejoin="round" d="M 346.69134521484375 13.55213451385498 C 351.1215515136719 1.7644528150558472 345.03961181640625 20.431867599487305 347.7660217285156 14.901216506958008 C 354.48638916015625 11.451297760009766 340.0181884765625 9.00135326385498 352.6575012207031 10.17550277709961 C 352.7054443359375 16.150909423828125 340.6508483886719 24.961402893066406 351.59112548828125 10.395771980285645 C 346.8291320800781 27.794282913208008 349.5347595214844 20.68437957763672 346.69134521484375 13.55213451385498"/>
    <path stroke-width="0" fill="rgb(113, 116, 142)" opacity="0.7517205" stroke="rgb(102, 236, 25)" stroke-opacity="1.0" stroke-linecap="round" stroke-linejoin="round" d="M 327.4048767089844 443.9034118652344 C 348.873291015625 480.5625305175781 347.316162109375 463.23394775390625 314.5039367675781 409.6910095214844 C 355.3825988769531 452.4291687011719 298.2089538574219 397.9082946777344 316.18597412109375 428.9257507324219 C 290.7416076660156 447.1737976074219 308.8692932128906 418.8916320800781 328.3297119140625 428.01104736328125 C 355.8786926269531 399.5964050292969 343.1888732910156 423.6725158691406 327.4048767089844 443.9034118652344"/>
    <path stroke-width="0" fill="rgb(92, 122, 126)" opacity="0.25150257" stroke="rgb(17, 64, 56)" stroke-opacity="1.0" stroke-linecap="round" stroke-linejoin="round" d="M 379.2818298339844 74.63330841064453 C 387.6886291503906 75.50950622558594 363.0750732421875 105.46796417236328 393.89447021484375 114.422607421875 C 373.4165344238281 109.33111572265625 358.0008850097656 76.09410095214844 376.4964294433594 116.28142547607422 C 352.0749206542969 91.42093658447266 358.48779296875 82.61805725097656 367.4083557128906 96.10954284667969 C 318.2584228515625 90.63213348388672 390.9480895996094 113.27802276611328 379.2818298339844 74.63330841064453"/>
    <path stroke-width="0" fill="rgb(0, 6, 17)" opacity="1.1774014" stroke="rgb(162, 125, 252)" stroke-opacity="1.0" stroke-linecap="round" stroke-linejoin="round" d="M 364.71722412109375 117.07940673828125 C 370.91632080078125 84.77587127685547 366.02581787109375 124.61988830566406 364.7186584472656 93.3866195678711 C 358.05072021484375 75.36992645263672 349.54052734375 129.37452697753906 347.1490783691406 111.70183563232422 C 340.03546142578125 68.42741394042969 336.99664306640625 62.83609390258789 340.67376708984375 115.02862548828125 C 374.6914367675781 74.12968444824219 374.72991943359375 71.09148406982422 364.71722412109375 117.07940673828125"/>
    <path stroke-width="0" fill="rgb(32, 2, 49)" opacity="0.43040782" stroke="rgb(199, 73, 61)" stroke-opacity="1.0" stroke-linecap="round" stroke-linejoin="round" d="M 317.7579650878906 452.26123046875 C 359.89056396484375 479.49017333984375 309.1950378417969 474.2151184082031 359.5052490234375 459.4289855957031 C 346.7742614746094 436.1866149902344 344.0706787109375 466.666748046875 348.8242492675781 477.3449401855469 C 339.7068786621094 463.26409912109375 313.800048828125 418.24639892578125 329.4903259277344 451.30230712890625 C 348.9797058105469 438.0079650878906 327.725830078125 468.998291015625 317.7579650878906 452.26123046875"/>
    <path stroke-width="0" fill="rgb(63, 40, 82)" opacity="0.6739788" stroke="rgb(62, 169, 131)" stroke-opacity="1.0" stroke-linecap="round" stroke-linejoin="round" d="M 300.2001037597656 449.9491271972656 C 312.75469970703125 470.39813232421875 328.87939453125 458.2484436035156 334.13604736328125 427.9503479003906 C 334.37298583984375 465.4510498046875 289.2602233886719 460.2940979003906 283.8713073730469 499.7922668457031 C 308.1843566894531 459.2966613769531 311.9698181152344 459.1314392089844 315.6058349609375 446.7314758300781 C 321.87286376953125 432.59307861328125 306.8157043457031 468.1512756347656 300.2001037597656 449.9491271972656"/>
    <path stroke-width="0" fill="rgb(146, 130, 192)" opacity="0.53138417" stroke="rgb(141, 73, 180)" stroke-opacity="1.0" stroke-linecap="round" stroke-linejoin="round" d="M 328.7757568359375 440.1067810058594 C 333.38446044921875 474.2939453125 315.04632568359375 466.98736572265625 326.0129089355469 448.1748352050781 C 329.68951416015625 485.09979248046875 330.2132263183594 447.83392333984375 306.8563232421875 455.2916259765625 C 314.7864074707031 483.5609436035156 294.94134521484375 425.2713928222656 322.0023498535156 449.1018981933594 C 297.5267028808594 473.2811584472656 342.2887878417969 463.94183349609375 328.7757568359375 440.1067810058594"/>
    <path stroke-width="0" fill="rgb(73, 113, 136)" opacity="0.14425403" stroke="rgb(91, 211, 235)" stroke-opacity="1.0" stroke-linecap="round" stroke-linejoin="round" d="M 394.8699035644531 71.45618438720703 C 350.43695068359375 77.56535339355469 336.5027770996094 71.81663513183594 355.60595703125 112.96199798583984 C 355.2238464355469 87.66605377197266 344.5186462402344 75.53511047363281 345.8275451660156 98.18624114990234 C 348.1916198730469 73.31861877441406 370.11065673828125 80.66434478759766 396.6367492675781 72.41123962402344 C 386.7564697265625 29.075345993041992 378.92962646484375 40.311946868896484 394.8699035644531 71.45618438720703"/>
    <path stroke-width="0" fill="rgb(187, 77, 150)" opacity="0.18710184" stroke="rgb(59, 88, 207)" stroke-opacity="1.0" stroke-linecap="round" stroke-linejoin="round" d="M 373.5450439453125 135.86471557617188 C 359.5721130371094 131.86865234375 351.14208984375 110.9323959350586 337.0692138671875 104.8763427734375 C 363.5648193359375 93.30709838867188 373.6962890625 84.84803771972656 362.32012939453125 104.45391082763672 C 335.7999572753906 111.15557861328125 346.8418273925781 141.29678344726562 347.2838439941406 105.13843536376953 C 332.4250183105469 91.6641616821289 350.12554931640625 116.4774169921875 373.5450439453125 135.86471557617188"/>
    <path stroke-width="0" fill="rgb(289, 348, 294)" opacity="0.67764384" stroke="rgb(63, 27, 242)" stroke-opacity="1.0" stroke-linecap="round" stroke-linejoin="round" d="M 341.39593505859375 99.35386657714844 C 335.824462890625 67.26068878173828 330.7994384765625 79.33484649658203 337.3115539550781 96.39569854736328 C 368.3441162109375 104.43120574951172 363.6737976074219 80.36852264404297 365.03387451171875 79.3525161743164 C 307.4911804199219 82.078369140625 331.7386474609375 75.3189697265625 361.2323913574219 92.08293914794922 C 342.9947204589844 71.83503723144531 354.2633056640625 104.2347183227539 341.39593505859375 99.35386657714844"/>
    <path stroke-width="0" fill="rgb(268, 261, 266)" opacity="0.42551234" stroke="rgb(175, 14, 186)" stroke-opacity="1.0" stroke-linecap="round" stroke-linejoin="round" d="M 349.1578674316406 74.95626068115234 C 373.07061767578125 73.2341537475586 376.1357727050781 122.55831909179688 339.99334716796875 92.81414794921875 C 332.6290588378906 77.89102935791016 341.2088317871094 117.01958465576172 336.09210205078125 91.75985717773438 C 329.4863586425781 99.04603576660156 379.739990234375 85.16840362548828 358.4230041503906 81.13845825195312 C 369.2658996582031 81.87316131591797 373.4369812011719 72.17361450195312 349.1578674316406 74.95626068115234"/>
    <path stroke-width="0" fill="rgb(28, 93, 45)" opacity="0.67950755" stroke="rgb(69, 96, 95)" stroke-opacity="1.0" stroke-linecap="round" stroke-linejoin="round" d="M 357.8699035644531 480.5147399902344 C 404.638671875 498.2520751953125 374.12127685546875 440.15478515625 405.8448791503906 454.5597839355469 C 389.0430908203125 452.8938903808594 404.4356384277344 452.21636962890625 393.6992492675781 462.4217224121094 C 381.8766174316406 479.32501220703125 389.4670715332031 465.28753662109375 384.5735778808594 467.9560852050781 C 360.7588806152344 468.0944519042969 404.532470703125 486.9882507324219 357.8699035644531 480.5147399902344"/>
    <path stroke-width="0" fill="rgb(87, 130, 162)" opacity="0.11737804" stroke="rgb(213, 60, 128)" stroke-opacity="1.0" stroke-linecap="round" stroke-linejoin="round" d="M 358.63348388671875 121.3070297241211 C 353.86920166015625 110.94163513183594 348.3486633300781 133.2751922607422 336.0 141.69102478027344 C 348.7324523925781 106.15635681152344 366.330810546875 96.74947357177734 344.1324157714844 119.34381103515625 C 362.12310791015625 103.95115661621094 376.5157165527344 111.6485595703125 330.9568176269531 129.03993225097656 C 348.2937316894531 109.75376892089844 351.18048095703125 111.72674560546875 358.63348388671875 121.3070297241211"/>
    <path stroke-width="0" fill="rgb(85, 84, 103)" opacity="0.6109027" stroke="rgb(161, 221, 239)" stroke-opacity="1.0" stroke-linecap="round" stroke-linejoin="round" d="M 357.71514892578125 87.97351837158203 C 342.524169921875 139.75730895996094 338.71942138671875 172.7393798828125 346.9022521972656 130.7211151123047 C 342.39422607421875 138.938232421875 351.3664855957031 113.31851959228516 335.0319519042969 128.88287353515625 C 348.9599304199219 123.40634155273438 366.2552490234375 111.98820495605469 346.7652587890625 99.15078735351562 C 380.84210205078125 101.61811828613281 345.0225830078125 109.13584899902344 357.71514892578125 87.97351837158203"/>
    <path stroke-width="0" fill="rgb(74, 115, 137)" opacity="0.40330267" stroke="rgb(178, 246, 253)" stroke-opacity="1.0" stroke-linecap="round" stroke-linejoin="round" d="M 398.10101318359375 71.4223861694336 C 409.363525390625 79.08029174804688 305.4149169921875 75.88536834716797 317.4256591796875 72.2275619506836 C 317.9252624511719 106.8398208618164 312.2633361816406 107.0462875366211 312.75048828125 90.193603515625 C 313.9482116699219 65.25462341308594 292.6978454589844 94.7783203125 353.75994873046875 66.89776611328125 C 353.3876647949219 48.31583786010742 368.47021484375 90.47872924804688 398.10101318359375 71.4223861694336"/>
    <path stroke-width="0" fill="rgb(223, 267, 230)" opacity="0.9950436" stroke="rgb(33, 154, 97)" stroke-opacity="1.0" stroke-linecap="round" stroke-linejoin="round" d="M 352.9835205078125 110.72937774658203 C 338.3458557128906 112.63888549804688 341.6377868652344 118.93106842041016 350.01324462890625 93.65681457519531 C 362.6473388671875 144.6959991455078 324.0152282714844 131.7681884765625 354.1411437988281 110.24961853027344 C 354.5560607910156 119.81695556640625 334.61651611328125 109.47032165527344 363.4318542480469 122.65311431884766 C 346.85821533203125 104.87114715576172 373.1024169921875 115.54749298095703 352.9835205078125 110.72937774658203"/>
    <path stroke-width="0" fill="rgb(23, 51, 65)" opacity="0.78217506" stroke="rgb(246, 139, 70)" stroke-opacity="1.0" stroke-linecap="round" stroke-linejoin="round" d="M 336.4967346191406 72.1036605834961 C 349.1011047363281 114.25526428222656 323.2755126953125 78.90302276611328 366.1142272949219 88.76215362548828 C 371.8769836425781 80.03723907470703 349.26092529296875 83.03041076660156 316.603515625 84.89014434814453 C 385.61968994140625 86.56889343261719 367.4519958496094 96.81536102294922 371.9601135253906 73.69248962402344 C 345.25128173828125 55.919822692871094 393.3934631347656 79.24417877197266 336.4967346191406 72.1036605834961"/>
    <path stroke-width="0" fill="rgb(245, 245, 221)" opacity="0.9672071" stroke="rgb(116, 102, 63)" stroke-opacity="1.0" stroke-linecap="round" stroke-linejoin="round" d="M 313.8957214355469 499.3085021972656 C 290.5704040527344 474.1214904785156 297.0150451660156 466.51678466796875 296.5588684082031 480.03167724609375 C 313.9591979980469 468.3222351074219 288.96026611328125 455.1781311035156 320.3428039550781 486.2423400878906 C 268.7296142578125 481.6184997558594 316.3638000488281 491.9974060058594 293.587890625 479.9749755859375 C 286.699951171875 470.61260986328125 299.71728515625 483.9720764160156 313.8957214355469 499.3085021972656"/>
    <path stroke-width="0" fill="rgb(76, 112, 149)" opacity="0.8273575" stroke="rgb(79, 95, 133)" stroke-opacity="1.0" stroke-linecap="round" stroke-linejoin="round" d="M 392.9698181152344 111.5032730102539 C 371.00518798828125 116.34400939941406 339.6131286621094 100.70512390136719 324.5155334472656 132.13780212402344 C 378.44073486328125 142.83856201171875 356.02142333984375 151.18032836914062 332.7959289550781 125.64140319824219 C 341.7510986328125 137.84193420410156 342.1120300292969 119.09174346923828 345.32672119140625 96.36578369140625 C 332.281982421875 111.87059020996094 354.09112548828125 114.90242767333984 392.9698181152344 111.5032730102539"/>
    <path stroke-width="0" fill="rgb(81, 94, 135)" opacity="0.61240333" stroke="rgb(85, 235, 219)" stroke-opacity="1.0" stroke-linecap="round" stroke-linejoin="round" d="M 370.4466247558594 104.75747680664062 C 352.3406982421875 107.1235580444336 374.0855712890625 101.15731811523438 367.21795654296875 115.86508178710938 C 384.9091491699219 124.0865478515625 353.8825378417969 114.61703491210938 351.9969787597656 127.7410888671875 C 323.6502685546875 125.22528839111328 343.87969970703125 113.35261535644531 359.5872802734375 156.26300048828125 C 323.88232421875 107.61357116699219 363.5714111328125 139.47654724121094 370.4466247558594 104.75747680664062"/>
    <path stroke-width="0" fill="rgb(72, 118, 144)" opacity="0.63374996" stroke="rgb(64, 113, 26)" stroke-opacity="1.0" stroke-linecap="round" stroke-linejoin="round" d="M 366.4197998046875 101.24166107177734 C 371.1266174316406 144.99624633789062 421.8431091308594 85.83193969726562 341.0270690917969 100.55316925048828 C 358.76123046875 68.2051010131836 292.1604309082031 90.35797882080078 320.2884826660156 78.22494506835938 C 309.6185607910156 65.2914047241211 326.3580322265625 82.06928253173828 310.7627258300781 94.87859344482422 C 364.4989929199219 65.20922088623047 344.58306884765625 102.44471740722656 366.4197998046875 101.24166107177734"/>
    <path stroke-width="0" fill="rgb(122, 113, 143)" opacity="0.60307235" stroke="rgb(0, 0, 0)" stroke-opacity="0.0" stroke-linecap="round" stroke-linejoin="round" d="M 493.48712158203125 -0.5902689695358276 C 493.1655578613281 2.4705193042755127 486.9901428222656 3.806258201599121 486.41973876953125 3.1953086853027344 C 484.27325439453125 2.1564149856567383 476.6766052246094 2.3465425968170166 473.1923828125 -0.22558684647083282 C 478.18988037109375 -3.744469165802002 480.4971618652344 -7.562457084655762 484.88897705078125 -7.899089813232422 C 490.10003662109375 -5.514677047729492 494.05560302734375 -2.507915496826172 493.48712158203125 -0.5902689695358276"/>
    <path stroke-width="0" fill="rgb(193, 163, 136)" opacity="0.67636055" stroke="rgb(0, 0, 0)" stroke-opacity="0.0" stroke-linecap="round" stroke-linejoin="round" d="M 226.89271545410156 20.505456924438477 C 226.7703399658203 23.752349853515625 224.7885284423828 27.235769271850586 217.3504638671875 28.108924865722656 C 211.260009765625 28.452774047851562 209.13345336914062 27.15351676940918 208.32467651367188 17.318927764892578 C 209.421142578125 13.055225372314453 214.4844512939453 9.661221504211426 218.7731170654297 8.740303039550781 C 224.18565368652344 9.392939567565918 228.88882446289062 14.45603084564209 226.89271545410156 20.505456924438477"/>
    <path stroke-width="0" fill="rgb(148, 116, 171)" opacity="0.36187154" stroke="rgb(0, 0, 0)" stroke-opacity="0.0" stroke-linecap="round" stroke-linejoin="round" d="M 64.53656005859375 -8.603641510009766 C 62.29499816894531 -0.19804500043392181 62.304710388183594 5.647634983062744 58.84376525878906 5.224577903747559 C 57.22544479370117 5.968023777008057 53.09671401977539 2.8402252197265625 50.77363967895508 1.279151201248169 C 50.596641540527344 -2.5966107845306396 55.350067138671875 -6.487624168395996 59.75012969970703 -7.690091133117676 C 63.75252151489258 -6.619141101837158 66.53036499023438 -3.6091973781585693 64.53656005859375 -8.603641510009766"/>
    <path stroke-width="0" fill="rgb(209, 104, 111)" opacity="0.7324437" stroke="rgb(0, 0, 0)" stroke-opacity="0.0" stroke-linecap="round" stroke-linejoin="round" d="M 103.43729400634766 6.3678412437438965 C 102.9265365600586 6.159879684448242 103.13737487792969 8.175904273986816 98.48997497558594 6.608077049255371 C 99.01019287109375 9.094232559204102 99.2451400756836 5.4661784172058105 101.74337005615234 9.198698997497559 C 99.36651611328125 7.22646427154541 93.5047607421875 3.784142017364502 94.21835327148438 -0.6546318531036377 C 113.2586898803711 -1.8858953714370728 110.60681915283203 1.3166744709014893 103.43729400634766 6.3678412437438965"/>
    <path stroke-width="0" fill="rgb(158, 204, 187)" opacity="0.24071108" stroke="rgb(0, 0, 0)" stroke-opacity="0.0" stroke-linecap="round" stroke-linejoin="round" d="M 146.48033142089844 15.99586296081543 C 148.2423858642578 16.468555450439453 145.76748657226562 21.300960540771484 140.6625213623047 19.44767951965332 C 136.26824951171875 19.41213607788086 134.95863342285156 18.6191463470459 135.097412109375 12.847740173339844 C 133.03952026367188 9.500439643859863 136.17002868652344 6.378006935119629 141.04022216796875 7.482484340667725 C 147.3129425048828 7.403142929077148 147.97268676757812 11.411385536193848 146.48033142089844 15.99586296081543"/>
    <path stroke-width="0" fill="rgb(81, 113, 147)" opacity="0.33694336" stroke="rgb(0, 0, 0)" stroke-opacity="0.0" stroke-linecap="round" stroke-linejoin="round" d="M 58.208316802978516 14.099404335021973 C 55.30913162231445 22.093914031982422 54.14784240722656 24.344770431518555 52.420894622802734 21.371414184570312 C 45.20574188232422 21.444673538208008 36.36667251586914 22.364416122436523 38.671730041503906 16.795360565185547 C 36.8375244140625 4.617924213409424 38.492088317871094 3.681915760040283 50.87422180175781 4.811529636383057 C 58.963077545166016 1.9268043041229248 60.46199035644531 4.639465808868408 58.208316802978516 14.099404335021973"/>
    <path stroke-width="0" fill="rgb(151, 82, 162)" opacity="0.028792614" stroke="rgb(0, 0, 0)" stroke-opacity="0.0" stroke-linecap="round" stroke-linejoin="round" d="M 187.9199981689453 3.7245781421661377 C 183.01515197753906 3.986607551574707 179.0648193359375 7.130173206329346 175.9024200439453 16.697284698486328 C 183.74061584472656 14.859270095825195 180.89950561523438 9.928483963012695 177.56065368652344 5.029244422912598 C 172.8472137451172 0.2885492444038391 175.4799041748047 -2.8355934619903564 183.42393493652344 -2.553983449935913 C 191.52024841308594 -2.01827335357666 193.871337890625 3.233381509780884 187.9199981689453 3.7245781421661377"/>
    <path stroke-width="0" fill="rgb(90, 107, 158)" opacity="0.22524501" stroke="rgb(0, 0, 0)" stroke-opacity="0.0" stroke-linecap="round" stroke-linejoin="round" d="M 469.5823669433594 217.142822265625 C 467.88848876953125 212.30584716796875 467.18243408203125 216.9244842529297 470.43792724609375 221.4883575439453 C 467.5378723144531 219.70631408691406 466.1798400878906 218.7442169189453 470.97003173828125 218.4254608154297 C 468.5346984863281 214.88113403320312 467.20166015625 212.96315002441406 469.17132568359375 205.49691772460938 C 471.7620544433594 209.948486328125 471.3772888183594 216.15855407714844 469.5823669433594 217.142822265625"/>
    <path stroke-width="0" fill="rgb(130, 60, 185)" opacity="0.51691025" stroke="rgb(0, 0, 0)" stroke-opacity="0.0" stroke-linecap="round" stroke-linejoin="round" d="M 458.78887939453125 160.65867614746094 C 457.1063232421875 157.74667358398438 456.22674560546875 160.72479248046875 457.1868896484375 163.52774047851562 C 457.05615234375 159.70570373535156 459.31475830078125 155.62611389160156 457.7818908691406 158.65040588378906 C 459.2908020019531 156.18743896484375 458.089599609375 155.414306640625 458.8090515136719 155.45736694335938 C 457.2857360839844 156.0330352783203 458.10626220703125 156.41574096679688 458.78887939453125 160.65867614746094"/>
    <path stroke-width="0" fill="rgb(69, 87, 140)" opacity="0.1718402" stroke="rgb(0, 0, 0)" stroke-opacity="0.0" stroke-linecap="round" stroke-linejoin="round" d="M 14.476157188415527 179.92332458496094 C 19.049415588378906 186.31414794921875 16.51071548461914 185.97547912597656 2.6925156116485596 186.59237670898438 C -3.815122127532959 185.26116943359375 -1.801633596420288 185.31739807128906 1.7912012338638306 182.2503204345703 C -4.459339141845703 175.1513671875 3.2420997619628906 177.1893310546875 8.705231666564941 176.30352783203125 C 17.963895797729492 178.52386474609375 19.998149871826172 176.48719787597656 14.476157188415527 179.92332458496094"/>
    <path stroke-width="0" fill="rgb(82, 203, 135)" opacity="0.1273806" stroke="rgb(0, 0, 0)" stroke-opacity="0.0" stroke-linecap="round" stroke-linejoin="round" d="M -123.205810546875 105.1214599609375 C -124.2776107788086 109.1214599609375 -127.205810546875 112.04966735839844 -131.205810546875 113.1214599609375 C -135.205810546875 112.04966735839844 -138.13401794433594 109.1214599609375 -139.205810546875 105.1214599609375 C -138.13401794433594 101.1214599609375 -135.205810546875 98.1932601928711 -131.205810546875 97.1214599609375 C -127.205810546875 98.1932601928711 -124.2776107788086 101.1214599609375 -123.205810546875 105.1214599609375"/>
    <path stroke-width="0" fill="rgb(65, 168, 200)" opacity="0.027118333" stroke="rgb(0, 0, 0)" stroke-opacity="0.0" stroke-linecap="round" stroke-linejoin="round" d="M 77.18560791015625 446.59521484375 C 78.23381805419922 449.9706115722656 76.63004302978516 451.9518737792969 74.6170883178711 448.74053955078125 C 68.97145080566406 447.09820556640625 63.31962203979492 446.267822265625 61.796504974365234 444.6641845703125 C 63.823394775390625 441.3178405761719 67.09028625488281 438.78472900390625 69.24422454833984 439.06134033203125 C 72.39167785644531 440.1012878417969 75.6721420288086 442.4922180175781 77.18560791015625 446.59521484375"/>
    <path stroke-width="0" fill="rgb(86, 101, 155)" opacity="0.26027995" stroke="rgb(0, 0, 0)" stroke-opacity="0.0" stroke-linecap="round" stroke-linejoin="round" d="M 493.0343322753906 142.09625244140625 C 491.6885986328125 146.60787963867188 492.03790283203125 154.8011932373047 490.2396545410156 156.0879669189453 C 483.5885009765625 157.31011962890625 488.03912353515625 154.87757873535156 488.76788330078125 138.57801818847656 C 485.1404724121094 139.45286560058594 489.7698974609375 139.35446166992188 492.2350769042969 139.3299560546875 C 491.16748046875 137.92929077148438 492.96844482421875 141.94129943847656 493.0343322753906 142.09625244140625"/>
    <path stroke-width="0" fill="rgb(102, 113, 109)" opacity="0.19767852" stroke="rgb(0, 0, 0)" stroke-opacity="0.0" stroke-linecap="round" stroke-linejoin="round" d="M 121.01380157470703 99.85147094726562 C 119.38645935058594 102.29283142089844 116.20552825927734 102.21276092529297 117.01538848876953 108.8248519897461 C 117.82222747802734 103.25154113769531 114.15988159179688 102.82366943359375 116.867431640625 101.90327453613281 C 116.07258605957031 101.95549011230469 115.70503997802734 97.61067199707031 112.25081634521484 100.46180725097656 C 115.88578796386719 102.07408142089844 117.33535766601562 102.7516860961914 121.01380157470703 99.85147094726562"/>
    <path stroke-width="0" fill="rgb(133, 117, 207)" opacity="0.6871469" stroke="rgb(0, 0, 0)" stroke-opacity="0.0" stroke-linecap="round" stroke-linejoin="round" d="M 332.4517517089844 203.83596801757812 C 333.6430969238281 209.0218505859375 333.5684509277344 212.98512268066406 331.8397216796875 205.5457305908203 C 328.39642333984375 209.81057739257812 326.1375732421875 210.8228759765625 331.4930114746094 202.79998779296875 C 328.47332763671875 202.0360565185547 328.91815185546875 200.84364318847656 337.1441650390625 199.9827117919922 C 335.3968811035156 198.46646118164062 335.1050109863281 205.66873168945312 332.4517517089844 203.83596801757812"/>
    <path stroke-width="0" fill="rgb(92, 98, 175)" opacity="0.3542612" stroke="rgb(0, 0, 0)" stroke-opacity="0.0" stroke-linecap="round" stroke-linejoin="round" d="M 337.4770202636719 267.6188659667969 C 337.8226623535156 274.75677490234375 332.25299072265625 271.7985534667969 322.495361328125 274.1186218261719 C 314.36871337890625 273.40728759765625 315.9998779296875 275.0406188964844 327.3171691894531 268.8197937011719 C 321.84710693359375 256.3243408203125 318.6358642578125 257.756103515625 327.0132751464844 259.20184326171875 C 331.0047912597656 257.4015197753906 330.2798156738281 263.65185546875 337.4770202636719 267.6188659667969"/>
    <path stroke-width="0" fill="rgb(114, 118, 154)" opacity="0.035982218" stroke="rgb(0, 0, 0)" stroke-opacity="0.0" stroke-linecap="round" stroke-linejoin="round" d="M 162.61956787109375 206.32571411132812 C 164.69947814941406 207.3195343017578 161.44003295898438 208.99607849121094 157.3337860107422 206.23744201660156 C 152.2220001220703 207.3780059814453 149.75279235839844 205.996337890625 150.27743530273438 201.8070831298828 C 149.4273223876953 195.6761016845703 150.78079223632812 194.85983276367188 154.6168212890625 197.65570068359375 C 159.00160217285156 196.70228576660156 161.05776977539062 200.29049682617188 162.61956787109375 206.32571411132812"/>
    <path stroke-width="0" fill="rgb(86, 104, 162)" opacity="0.38987002" stroke="rgb(0, 0, 0)" stroke-opacity="0.0" stroke-linecap="round" stroke-linejoin="round" d="M 193.30850219726562 250.0287322998047 C 194.88270568847656 247.4795684814453 187.8930206298828 249.00083923339844 184.93943786621094 248.1793212890625 C 190.09848022460938 248.2181396484375 187.53048706054688 246.04116821289062 179.25904846191406 246.06716918945312 C 178.29771423339844 240.88418579101562 177.5057830810547 240.41192626953125 188.68287658691406 244.32069396972656 C 191.8487091064453 241.20608520507812 193.07473754882812 243.441650390625 193.30850219726562 250.0287322998047"/>
    <path stroke-width="0" fill="rgb(175, 123, 67)" opacity="-0.013304883" stroke="rgb(0, 0, 0)" stroke-opacity="0.0" stroke-linecap="round" stroke-linejoin="round" d="M 88.03838348388672 497.6381530761719 C 89.45942687988281 499.7990417480469 87.13465881347656 504.990478515625 88.54443359375 511.3541564941406 C 79.58492279052734 510.8471984863281 80.13678741455078 511.2447814941406 84.6343765258789 505.7641296386719 C 78.091552734375 489.2605285644531 77.26934814453125 484.90631103515625 82.9847412109375 488.9432373046875 C 91.52274322509766 488.7173767089844 91.92271423339844 493.6455078125 88.03838348388672 497.6381530761719"/>
    <path stroke-width="0" fill="rgb(87, 67, 114)" opacity="0.17905974" stroke="rgb(0, 0, 0)" stroke-opacity="0.0" stroke-linecap="round" stroke-linejoin="round" d="M 3.867377281188965 -5.37195348739624 C 1.48492431640625 -2.023589611053467 -1.6770195960998535 1.076996922492981 -4.5545854568481445 3.124878168106079 C -2.677528142929077 7.805291652679443 -5.555568695068359 4.721656799316406 -6.636660575866699 0.7309714555740356 C -5.565146446228027 -3.2681753635406494 -2.6369433403015137 -6.196378707885742 1.3634140491485596 -7.2682881355285645 C 5.387521743774414 -6.204288959503174 8.615775108337402 -3.428757905960083 3.867377281188965 -5.37195348739624"/>
    <path stroke-width="0" fill="rgb(238, 127, 127)" opacity="0.3791857" stroke="rgb(0, 0, 0)" stroke-opacity="0.0" stroke-linecap="round" stroke-linejoin="round" d="M 249.84231567382812 79.47725677490234 C 248.3505401611328 85.55252838134766 245.63845825195312 90.80435180664062 240.8870086669922 89.72537231445312 C 236.9802703857422 91.09005737304688 233.59335327148438 85.86844635009766 232.5250701904297 80.53068542480469 C 233.18258666992188 75.45658874511719 236.7463836669922 70.95438385009766 242.0323944091797 69.591796875 C 248.23590087890625 71.1445083618164 250.4691925048828 75.38770294189453 249.84231567382812 79.47725677490234"/>
    <path stroke-width="0" fill="rgb(112, 107, 149)" opacity="0.6253405" stroke="rgb(0, 0, 0)" stroke-opacity="0.0" stroke-linecap="round" stroke-linejoin="round" d="M 493.2344055175781 217.50112915039062 C 493.03753662109375 218.67807006835938 487.8223571777344 216.19290161132812 487.4869079589844 219.11000061035156 C 487.7037048339844 222.82281494140625 487.1580505371094 219.18292236328125 486.5389709472656 213.33311462402344 C 483.7011413574219 212.53172302246094 489.9323425292969 212.92709350585938 486.5923156738281 217.42694091796875 C 488.428466796875 217.62452697753906 489.0724792480469 218.90765380859375 493.2344055175781 217.50112915039062"/>
    <path stroke-width="0" fill="rgb(84, 150, 23)" opacity="-0.045283623" stroke="rgb(0, 0, 0)" stroke-opacity="0.0" stroke-linecap="round" stroke-linejoin="round" d="M 415.3101501464844 238.7874755859375 C 409.74456787109375 236.7137451171875 407.083984375 237.3837432861328 408.8741149902344 249.01902770996094 C 400.6166076660156 250.88905334472656 399.8679504394531 245.66342163085938 405.86285400390625 235.8038330078125 C 397.42578125 229.64828491210938 397.37738037109375 226.25733947753906 403.9463195800781 226.8628387451172 C 408.2337341308594 232.74171447753906 410.6231689453125 235.6221466064453 415.3101501464844 238.7874755859375"/>
    <path stroke-width="0" fill="rgb(146, 62, 258)" opacity="0.22935688" stroke="rgb(0, 0, 0)" stroke-opacity="0.0" stroke-linecap="round" stroke-linejoin="round" d="M 152.18133544921875 373.4053649902344 C 147.61273193359375 368.9181823730469 150.922607421875 376.10919189453125 150.76422119140625 380.634033203125 C 147.80789184570312 385.0564270019531 143.83702087402344 379.2478942871094 143.84788513183594 374.831787109375 C 142.81698608398438 364.492919921875 143.35061645507812 367.95916748046875 147.31564331054688 374.47265625 C 152.51498413085938 382.3431091308594 160.6778106689453 381.34197998046875 152.18133544921875 373.4053649902344"/>
  </g>
</svg>
