<?xml version="1.0" ?>
<svg xmlns="http://www.w3.org/2000/svg" version="1.1" width="512" height="512">
  <defs/>
  <g>
    <path stroke-width="0" fill="rgb(153, 86, 146)" opacity="0.6510226" stroke="rgb(139, 182, 153)" stroke-opacity="1.0" stroke-linecap="round" stroke-linejoin="round" d="M 327.0963134765625 423.4782409667969 C 357.82037353515625 479.60968017578125 356.9542236328125 500.1421813964844 192.09971618652344 488.3450927734375 C 57.25299072265625 381.0406188964844 53.20073318481445 358.7374267578125 -45.518978118896484 100.6469497680664 C -55.74998092651367 24.691083908081055 -54.507442474365234 -3.2493443489074707 30.801923751831055 -11.699007987976074 C 242.91188049316406 163.8441619873047 254.5836181640625 169.66001892089844 327.0963134765625 423.4782409667969"/>
    <path stroke-width="0" fill="rgb(60, 125, 167)" opacity="1.0743595" stroke="rgb(108, 164, 111)" stroke-opacity="1.0" stroke-linecap="round" stroke-linejoin="round" d="M 559.2760620117188 100.7414321899414 C 514.9390258789062 393.12518310546875 441.291015625 375.3112487792969 299.9610595703125 376.8612060546875 C 145.1931915283203 342.0372619628906 141.97607421875 312.2590637207031 -50.009273529052734 1.9392026662826538 C -5.70611047744751 -61.47223663330078 18.957836151123047 -59.51573944091797 446.24822998046875 -50.592098236083984 C 535.3020629882812 -48.75304412841797 556.3040771484375 -60.0816650390625 559.2760620117188 100.7414321899414"/>
    <path stroke-width="0" fill="rgb(143, 179, 102)" opacity="0.965201" stroke="rgb(245, 97, 201)" stroke-opacity="1.0" stroke-linecap="round" stroke-linejoin="round" d="M 294.2887878417969 525.68896484375 C 290.2972106933594 570.1263427734375 265.1747741699219 573.4346313476562 -73.39730072021484 555.06591796875 C -78.9822769165039 469.8158264160156 -51.8045539855957 419.02099609375 -46.28164291381836 272.57049560546875 C -56.931453704833984 163.62477111816406 -81.46731567382812 128.18165588378906 -9.225157737731934 109.15214538574219 C 144.52528381347656 188.26791381835938 154.14100646972656 194.26937866210938 294.2887878417969 525.68896484375"/>
    <path stroke-width="0" fill="rgb(101, 96, 174)" opacity="1.0001637" stroke="rgb(144, 236, 18)" stroke-opacity="1.0" stroke-linecap="round" stroke-linejoin="round" d="M 557.802001953125 499.8588562011719 C 564.6090698242188 540.8244018554688 570.5844116210938 555.1404418945312 289.7418518066406 562.6669311523438 C 219.94659423828125 581.5530395507812 199.33494567871094 607.7948608398438 224.04400634765625 382.841064453125 C 309.96197509765625 238.60211181640625 304.1734313964844 180.349365234375 543.458984375 150.1646728515625 C 576.6678466796875 265.0323486328125 560.8159790039062 308.91241455078125 557.802001953125 499.8588562011719"/>
    <path stroke-width="0" fill="rgb(220, 210, 288)" opacity="0.9565936" stroke="rgb(5, 212, 198)" stroke-opacity="1.0" stroke-linecap="round" stroke-linejoin="round" d="M 368.1429138183594 528.9013061523438 C 364.5356140136719 503.1345520019531 365.5629577636719 512.2237548828125 316.80767822265625 547.123779296875 C 400.6110534667969 520.34423828125 323.1232604980469 549.5823974609375 341.98541259765625 488.7958984375 C 335.8585510253906 495.256103515625 327.69757080078125 486.2761535644531 338.34930419921875 501.55157470703125 C 349.5567932128906 508.107177734375 329.5470275878906 517.74169921875 368.1429138183594 528.9013061523438"/>
    <path stroke-width="0" fill="rgb(264, 297, 242)" opacity="0.94656074" stroke="rgb(249, 203, 117)" stroke-opacity="1.0" stroke-linecap="round" stroke-linejoin="round" d="M 354.564453125 492.5588684082031 C 284.4298400878906 553.0103149414062 356.85882568359375 534.4595336914062 341.8966369628906 494.7854919433594 C 346.85931396484375 501.5538024902344 348.1218566894531 490.63128662109375 342.17913818359375 503.86614990234375 C 334.55035400390625 490.98699951171875 366.3604736328125 467.4638366699219 309.3791809082031 475.3816833496094 C 363.2144775390625 457.71099853515625 408.75726318359375 507.5458679199219 354.564453125 492.5588684082031"/>
    <path stroke-width="0" fill="rgb(275, 269, 285)" opacity="0.8393492" stroke="rgb(133, 105, 67)" stroke-opacity="1.0" stroke-linecap="round" stroke-linejoin="round" d="M 386.8442077636719 470.6314392089844 C 361.20574951171875 519.7755737304688 232.8291778564453 570.1013793945312 250.99472045898438 633.5695190429688 C 284.7398376464844 541.4782104492188 294.0196228027344 542.1718139648438 341.7505798339844 550.7498779296875 C 347.6924133300781 536.1397094726562 344.47186279296875 523.9403076171875 328.72607421875 515.5641479492188 C 350.2994079589844 449.8163146972656 305.3192443847656 474.1450500488281 386.8442077636719 470.6314392089844"/>
    <path stroke-width="0" fill="rgb(277, 255, 286)" opacity="1.114849" stroke="rgb(116, 144, 4)" stroke-opacity="1.0" stroke-linecap="round" stroke-linejoin="round" d="M 366.0901184082031 92.03024291992188 C 366.0354309082031 92.69601440429688 242.4369354248047 67.1026382446289 380.81744384765625 72.25182342529297 C 375.3073425292969 160.72430419921875 362.580078125 32.864654541015625 345.9490051269531 102.42196655273438 C 394.2611999511719 107.71432495117188 366.28033447265625 52.569732666015625 322.9320068359375 65.77509307861328 C 381.2697448730469 25.07073974609375 323.42724609375 111.65199279785156 366.0901184082031 92.03024291992188"/>
    <path stroke-width="0" fill="rgb(111, 115, 198)" opacity="1.0055187" stroke="rgb(156, 157, 240)" stroke-opacity="1.0" stroke-linecap="round" stroke-linejoin="round" d="M 383.3258056640625 487.57733154296875 C 391.4559631347656 532.69189453125 380.67547607421875 517.8008422851562 351.8396911621094 585.9402465820312 C 435.4609375 529.1666870117188 286.59967041015625 514.4758911132812 322.8670959472656 477.54998779296875 C 307.6198425292969 493.9700927734375 384.926513671875 489.8292236328125 388.97222900390625 491.25408935546875 C 382.8774719238281 450.8182067871094 446.04376220703125 450.1421813964844 383.3258056640625 487.57733154296875"/>
    <path stroke-width="0" fill="rgb(38, 8, 39)" opacity="0.6730517" stroke="rgb(91, 111, 177)" stroke-opacity="1.0" stroke-linecap="round" stroke-linejoin="round" d="M 349.07708740234375 73.63636779785156 C 357.2524108886719 47.024139404296875 378.5951232910156 74.78388214111328 360.5106201171875 92.676025390625 C 350.2037658691406 137.11427307128906 380.6390380859375 52.06135940551758 337.7271728515625 60.44580841064453 C 364.379638671875 31.654752731323242 354.90179443359375 105.5054702758789 370.6772155761719 78.59085083007812 C 254.55992126464844 72.50870513916016 406.6969299316406 80.18772888183594 349.07708740234375 73.63636779785156"/>
    <path stroke-width="0" fill="rgb(138, 117, 193)" opacity="0.82572496" stroke="rgb(170, 171, 53)" stroke-opacity="1.0" stroke-linecap="round" stroke-linejoin="round" d="M 353.3719482421875 483.4591064453125 C 337.2560119628906 455.0138854980469 371.13079833984375 542.6212768554688 339.0050048828125 620.9252319335938 C 314.0429992675781 477.66668701171875 345.20489501953125 498.2481689453125 312.573974609375 497.4657897949219 C 291.22528076171875 492.44976806640625 293.53399658203125 488.6451721191406 353.2810974121094 475.682861328125 C 342.14312744140625 479.28021240234375 415.34112548828125 474.0638427734375 353.3719482421875 483.4591064453125"/>
    <path stroke-width="0" fill="rgb(51, 111, 161)" opacity="1.0074075" stroke="rgb(80, 92, 145)" stroke-opacity="1.0" stroke-linecap="round" stroke-linejoin="round" d="M 289.2355041503906 508.66986083984375 C -1.0864474773406982 260.4303894042969 82.41749572753906 190.73916625976562 78.6280517578125 207.069091796875 C -65.28776550292969 209.23635864257812 -62.831268310546875 196.62689208984375 -40.04288864135742 132.2680206298828 C -40.78221893310547 64.58954620361328 -46.02934265136719 48.192596435546875 -11.636441230773926 -4.635815620422363 C 284.3843994140625 -416.7975158691406 414.6086120605469 77.53164672851562 289.2355041503906 508.66986083984375"/>
    <path stroke-width="0" fill="rgb(74, 92, 100)" opacity="0.677872" stroke="rgb(252, 26, 53)" stroke-opacity="1.0" stroke-linecap="round" stroke-linejoin="round" d="M 345.2289733886719 443.0464782714844 C 364.7786865234375 457.0099792480469 320.9935302734375 460.20025634765625 369.9102783203125 417.3877258300781 C 294.5032653808594 409.48004150390625 324.3557434082031 439.7015686035156 354.7763977050781 442.6576232910156 C 297.2690734863281 398.1519775390625 310.45465087890625 511.0147705078125 348.3228759765625 364.06121826171875 C 322.1585998535156 483.2630310058594 406.2651672363281 365.9460144042969 345.2289733886719 443.0464782714844"/>
    <path stroke-width="0" fill="rgb(257, 268, 240)" opacity="1.0764679" stroke="rgb(166, 64, 118)" stroke-opacity="1.0" stroke-linecap="round" stroke-linejoin="round" d="M 331.5263977050781 245.70359802246094 C 382.5356140136719 198.7924041748047 384.6774597167969 179.7074737548828 359.5646057128906 188.6813507080078 C 326.4425354003906 271.9261169433594 341.8089599609375 210.73741149902344 339.4827575683594 192.10072326660156 C 339.4077453613281 118.55001831054688 350.1886901855469 103.19400787353516 356.3602600097656 179.21966552734375 C 362.238037109375 188.7528839111328 347.0688781738281 222.68264770507812 331.5263977050781 245.70359802246094"/>
    <path stroke-width="0" fill="rgb(34, 73, 115)" opacity="0.48481086" stroke="rgb(40, 28, 167)" stroke-opacity="1.0" stroke-linecap="round" stroke-linejoin="round" d="M 313.8848571777344 422.6444396972656 C 449.5404357910156 462.3833923339844 426.91363525390625 402.92572021484375 364.0020751953125 428.45855712890625 C 374.29962158203125 361.8499755859375 354.73052978515625 432.2984619140625 317.0075988769531 389.5732116699219 C 310.19049072265625 426.7366943359375 320.8129577636719 393.7668762207031 395.6618957519531 373.2745666503906 C 336.2596435546875 416.4044494628906 407.1044921875 431.5002746582031 313.8848571777344 422.6444396972656"/>
    <path stroke-width="0" fill="rgb(253, 241, 216)" opacity="0.8199505" stroke="rgb(50, 94, 209)" stroke-opacity="1.0" stroke-linecap="round" stroke-linejoin="round" d="M 424.8545837402344 433.92742919921875 C 257.9563903808594 432.4320373535156 408.330078125 488.26513671875 337.14410400390625 452.72491455078125 C 442.6789245605469 412.4978332519531 363.8757019042969 401.2010192871094 374.37939453125 437.5125732421875 C 449.38897705078125 448.3559265136719 384.4973449707031 433.0360107421875 383.2117614746094 463.5558166503906 C 386.9620056152344 427.1676025390625 417.4550476074219 457.34271240234375 424.8545837402344 433.92742919921875"/>
    <path stroke-width="0" fill="rgb(279, 283, 267)" opacity="1.0575114" stroke="rgb(213, 24, 248)" stroke-opacity="1.0" stroke-linecap="round" stroke-linejoin="round" d="M 434.08758544921875 435.84991455078125 C 277.697265625 433.00653076171875 302.311767578125 443.3486328125 306.3980712890625 426.895751953125 C 315.65887451171875 420.3909912109375 285.30572509765625 418.0038757324219 337.3238525390625 415.92022705078125 C 355.7030334472656 387.9927673339844 263.3929748535156 419.1075134277344 301.0519714355469 454.4416809082031 C 312.8388977050781 432.12384033203125 288.099609375 449.4559631347656 434.08758544921875 435.84991455078125"/>
    <path stroke-width="0" fill="rgb(99, 87, 72)" opacity="0.5788783" stroke="rgb(249, 154, 188)" stroke-opacity="1.0" stroke-linecap="round" stroke-linejoin="round" d="M 344.2266540527344 191.16836547851562 C 390.9143981933594 166.3236541748047 310.27301025390625 203.30160522460938 368.7131652832031 197.05604553222656 C 371.41986083984375 192.95726013183594 362.2426452636719 185.22702026367188 355.0947265625 209.8416290283203 C 365.5068054199219 210.16990661621094 377.3907775878906 194.39854431152344 341.9347229003906 253.19369506835938 C 351.57757568359375 232.6471405029297 368.79150390625 216.72280883789062 344.2266540527344 191.16836547851562"/>
    <path stroke-width="0" fill="rgb(27, 48, 60)" opacity="0.8754159" stroke="rgb(72, 30, 75)" stroke-opacity="1.0" stroke-linecap="round" stroke-linejoin="round" d="M 389.2659912109375 361.19561767578125 C 336.8573303222656 349.8094787597656 314.8779602050781 332.3442687988281 339.8331298828125 360.71185302734375 C 317.5823669433594 331.786865234375 379.3329772949219 318.20562744140625 333.8464660644531 340.0390319824219 C 316.0664367675781 327.1346130371094 333.36126708984375 293.5179443359375 363.60223388671875 314.9989318847656 C 358.3344421386719 364.64111328125 402.26007080078125 291.0433349609375 389.2659912109375 361.19561767578125"/>
    <path stroke-width="0" fill="rgb(272, 239, 268)" opacity="0.68712556" stroke="rgb(81, 105, 16)" stroke-opacity="1.0" stroke-linecap="round" stroke-linejoin="round" d="M 360.12945556640625 382.2304382324219 C 331.6895446777344 327.5652770996094 379.0029296875 326.2670593261719 329.54803466796875 313.6183776855469 C 332.4440002441406 389.87890625 314.4659729003906 356.004150390625 340.12078857421875 333.4156188964844 C 339.5962829589844 293.04620361328125 360.89642333984375 358.2288513183594 364.26580810546875 327.5207214355469 C 396.3603820800781 366.07568359375 354.2823486328125 323.6082763671875 360.12945556640625 382.2304382324219"/>
    <path stroke-width="0" fill="rgb(22, 32, 105)" opacity="0.57659096" stroke="rgb(144, 67, 133)" stroke-opacity="1.0" stroke-linecap="round" stroke-linejoin="round" d="M 361.414306640625 468.00799560546875 C 353.38446044921875 403.4873046875 365.9488220214844 476.680908203125 347.7379150390625 448.429443359375 C 372.2002868652344 461.00677490234375 330.45458984375 466.3955383300781 427.2427673339844 462.8731689453125 C 385.8284912109375 482.3229675292969 343.649658203125 459.619384765625 356.6370544433594 467.884521484375 C 170.4838104248047 473.6698303222656 432.27288818359375 481.14111328125 361.414306640625 468.00799560546875"/>
    <path stroke-width="0" fill="rgb(112, 83, 36)" opacity="0.5584417" stroke="rgb(146, 236, 81)" stroke-opacity="1.0" stroke-linecap="round" stroke-linejoin="round" d="M 351.2032470703125 140.71353149414062 C 357.9085998535156 157.60714721679688 318.8136901855469 218.5310516357422 364.2501220703125 150.3905792236328 C 384.6121520996094 150.28919982910156 335.42828369140625 183.3333282470703 338.2660827636719 155.58912658691406 C 335.1453552246094 189.2913055419922 340.968017578125 186.5547332763672 370.8077697753906 190.3250732421875 C 340.521240234375 170.69007873535156 323.3987731933594 223.49769592285156 351.2032470703125 140.71353149414062"/>
    <path stroke-width="0" fill="rgb(258, 277, 248)" opacity="1.1165199" stroke="rgb(33, 182, 73)" stroke-opacity="1.0" stroke-linecap="round" stroke-linejoin="round" d="M 344.36669921875 260.1536560058594 C 316.7419738769531 220.09011840820312 337.6468811035156 236.89144897460938 346.7642517089844 253.5368194580078 C 395.55767822265625 218.10240173339844 386.48211669921875 246.66026306152344 332.2278747558594 265.346435546875 C 386.1001281738281 273.0001525878906 325.7331848144531 239.53004455566406 373.0703430175781 256.6616516113281 C 322.40496826171875 260.3380126953125 335.9354553222656 283.3065185546875 344.36669921875 260.1536560058594"/>
    <path stroke-width="0" fill="rgb(102, 7, 99)" opacity="0.46775368" stroke="rgb(172, 68, 187)" stroke-opacity="1.0" stroke-linecap="round" stroke-linejoin="round" d="M 369.7966003417969 176.10585021972656 C 380.14678955078125 226.25262451171875 374.55133056640625 189.51197814941406 360.3272705078125 199.8860626220703 C 392.740234375 209.3466796875 346.41070556640625 185.6201171875 363.8265075683594 203.40257263183594 C 378.89422607421875 229.88804626464844 375.0274658203125 215.61184692382812 376.16162109375 211.28956604003906 C 365.5298156738281 214.06182861328125 373.44287109375 202.91770935058594 369.7966003417969 176.10585021972656"/>
    <path stroke-width="0" fill="rgb(253, 262, 281)" opacity="1.0637197" stroke="rgb(63, 146, 150)" stroke-opacity="1.0" stroke-linecap="round" stroke-linejoin="round" d="M 397.2952575683594 364.687744140625 C 376.0928649902344 342.2601623535156 351.92303466796875 334.68927001953125 405.2013244628906 390.62176513671875 C 356.781005859375 353.9483337402344 342.14215087890625 412.0745849609375 364.6432189941406 343.751953125 C 417.92340087890625 379.4337158203125 350.6905212402344 317.83172607421875 381.2737121582031 344.130859375 C 388.92822265625 291.1913146972656 349.76654052734375 358.163330078125 397.2952575683594 364.687744140625"/>
    <path stroke-width="0" fill="rgb(281, 286, 248)" opacity="0.8287473" stroke="rgb(56, 242, 114)" stroke-opacity="1.0" stroke-linecap="round" stroke-linejoin="round" d="M 376.3446350097656 335.91455078125 C 342.97088623046875 312.7388000488281 374.2037048339844 316.49169921875 332.2509460449219 355.98004150390625 C 323.78826904296875 255.45387268066406 343.7775573730469 314.84759521484375 346.1833190917969 255.13015747070312 C 374.4614562988281 298.27642822265625 292.9078674316406 340.0957336425781 355.061279296875 287.58349609375 C 376.064697265625 208.09637451171875 381.5299987792969 272.0067138671875 376.3446350097656 335.91455078125"/>
    <path stroke-width="0" fill="rgb(269, 272, 214)" opacity="1.0655414" stroke="rgb(178, 75, 207)" stroke-opacity="1.0" stroke-linecap="round" stroke-linejoin="round" d="M 314.8200988769531 516.0894775390625 C 349.5953369140625 430.1612854003906 318.60858154296875 491.7840270996094 311.46173095703125 504.1748352050781 C 304.8078308105469 559.145751953125 270.3622131347656 516.0410766601562 314.1156005859375 528.4882202148438 C 297.583740234375 516.971923828125 308.2723083496094 520.5030517578125 309.8704528808594 510.6134338378906 C 320.626708984375 507.4189147949219 303.5939025878906 534.681884765625 314.8200988769531 516.0894775390625"/>
    <path stroke-width="0" fill="rgb(287, 280, 264)" opacity="1.004996" stroke="rgb(184, 127, 243)" stroke-opacity="1.0" stroke-linecap="round" stroke-linejoin="round" d="M 351.6037902832031 64.37400817871094 C 390.4439697265625 45.96049880981445 311.75762939453125 55.366031646728516 334.0888977050781 58.71253967285156 C 312.7648620605469 88.56629180908203 357.7144775390625 61.11219024658203 341.4159851074219 62.611122131347656 C 368.7750549316406 53.64167785644531 332.03326416015625 13.461718559265137 355.6583251953125 -20.285762786865234 C 348.1627502441406 85.52091217041016 406.08953857421875 73.16084289550781 351.6037902832031 64.37400817871094"/>
    <path stroke-width="0" fill="rgb(265, 289, 246)" opacity="1.0537328" stroke="rgb(108, 154, 4)" stroke-opacity="1.0" stroke-linecap="round" stroke-linejoin="round" d="M 394.28228759765625 401.1642761230469 C 414.0736083984375 438.3558044433594 394.18310546875 430.8374938964844 406.1934509277344 420.04681396484375 C 370.47711181640625 421.32562255859375 374.2945861816406 418.9337158203125 374.861083984375 405.0829162597656 C 397.0566711425781 383.49578857421875 414.6369934082031 413.4900207519531 383.3298034667969 381.7133483886719 C 400.5256652832031 397.3057556152344 340.490478515625 412.11328125 394.28228759765625 401.1642761230469"/>
    <path stroke-width="0" fill="rgb(75, 110, 131)" opacity="0.58630574" stroke="rgb(168, 73, 157)" stroke-opacity="1.0" stroke-linecap="round" stroke-linejoin="round" d="M 336.428955078125 40.6214714050293 C 327.51165771484375 56.746620178222656 321.34283447265625 51.28415298461914 325.60888671875 46.46360397338867 C 345.8614807128906 55.39603805541992 341.6694641113281 59.857444763183594 334.2403259277344 12.082269668579102 C 343.0614929199219 78.9419174194336 351.9183349609375 48.16709899902344 331.04632568359375 49.69108581542969 C 342.4604797363281 41.54071044921875 352.1966552734375 48.40525817871094 336.428955078125 40.6214714050293"/>
    <path stroke-width="0" fill="rgb(264, 262, 234)" opacity="1.0995061" stroke="rgb(34, 76, 145)" stroke-opacity="1.0" stroke-linecap="round" stroke-linejoin="round" d="M 419.4942932128906 480.5464782714844 C 431.5242614746094 506.4313049316406 452.69573974609375 522.7076416015625 408.3488464355469 507.4894714355469 C 406.36016845703125 480.4434814453125 364.2715148925781 488.06219482421875 416.5881042480469 481.7582092285156 C 422.47265625 509.12347412109375 375.74212646484375 524.7861938476562 430.5832824707031 517.0595092773438 C 411.6227111816406 543.3753662109375 400.6997375488281 540.8146362304688 419.4942932128906 480.5464782714844"/>
    <path stroke-width="0" fill="rgb(206, 221, 207)" opacity="0.8974255" stroke="rgb(146, 166, 166)" stroke-opacity="1.0" stroke-linecap="round" stroke-linejoin="round" d="M 331.48236083984375 384.5979919433594 C 377.61474609375 369.9941101074219 322.7767639160156 291.0660705566406 370.58905029296875 400.9691467285156 C 315.9375915527344 342.8493957519531 351.5060729980469 378.9350891113281 344.4416198730469 345.4546203613281 C 373.447998046875 358.66790771484375 339.66961669921875 319.80462646484375 320.2901916503906 387.37249755859375 C 311.85076904296875 379.7107238769531 334.0080261230469 384.3690185546875 331.48236083984375 384.5979919433594"/>
    <path stroke-width="0" fill="rgb(271, 265, 267)" opacity="1.0144374" stroke="rgb(228, 93, 111)" stroke-opacity="1.0" stroke-linecap="round" stroke-linejoin="round" d="M 375.4867248535156 400.44854736328125 C 397.58612060546875 406.0332336425781 354.8590393066406 401.4517517089844 374.1192321777344 384.4812927246094 C 397.92218017578125 396.6595764160156 407.16485595703125 398.4903564453125 363.88922119140625 369.9281921386719 C 404.80169677734375 413.606201171875 362.47186279296875 387.5216064453125 385.9010925292969 408.1141052246094 C 390.7001647949219 372.0653076171875 358.9124450683594 422.2586364746094 375.4867248535156 400.44854736328125"/>
    <path stroke-width="0" fill="rgb(24, 43, -40)" opacity="0.65887624" stroke="rgb(205, 179, 25)" stroke-opacity="1.0" stroke-linecap="round" stroke-linejoin="round" d="M 340.0108642578125 247.05215454101562 C 344.9415588378906 241.8968505859375 393.1868896484375 266.0453186035156 355.947021484375 277.63055419921875 C 350.647705078125 197.1427459716797 361.78460693359375 148.14932250976562 356.79071044921875 235.96595764160156 C 328.5760192871094 238.73687744140625 349.80438232421875 239.74734497070312 353.7886962890625 244.52029418945312 C 377.3341979980469 203.11782836914062 354.6574401855469 236.79603576660156 340.0108642578125 247.05215454101562"/>
    <path stroke-width="0" fill="rgb(265, 276, 237)" opacity="1.0805359" stroke="rgb(182, 254, 38)" stroke-opacity="1.0" stroke-linecap="round" stroke-linejoin="round" d="M 389.23638916015625 475.16082763671875 C 394.2913513183594 516.7921752929688 430.1950988769531 478.1963195800781 378.5887145996094 545.3934326171875 C 380.0926513671875 513.611083984375 372.9058837890625 496.79095458984375 385.1468505859375 537.4976806640625 C 398.59600830078125 537.6722412109375 403.4391174316406 534.2794799804688 393.3935546875 543.1489868164062 C 404.3181457519531 475.2137451171875 387.96875 516.439453125 389.23638916015625 475.16082763671875"/>
    <path stroke-width="0" fill="rgb(285, 269, 257)" opacity="1.0135746" stroke="rgb(41, 156, 31)" stroke-opacity="1.0" stroke-linecap="round" stroke-linejoin="round" d="M 352.81085205078125 47.13978576660156 C 356.94964599609375 58.4933967590332 338.3065490722656 48.539344787597656 333.875 43.587562561035156 C 351.9487609863281 78.67181396484375 334.21405029296875 22.887239456176758 373.84613037109375 78.24864196777344 C 393.3482971191406 69.04400634765625 350.732666015625 37.815670013427734 355.94952392578125 45.411415100097656 C 329.21331787109375 44.386165618896484 359.2167663574219 47.34661865234375 352.81085205078125 47.13978576660156"/>
    <path stroke-width="0" fill="rgb(231, 262, 263)" opacity="1.3818567" stroke="rgb(205, 145, 103)" stroke-opacity="1.0" stroke-linecap="round" stroke-linejoin="round" d="M 341.8482971191406 134.36912536621094 C 345.5975341796875 114.37016296386719 389.6659851074219 174.0601806640625 357.06573486328125 125.007568359375 C 326.64678955078125 131.22979736328125 336.6844787597656 81.60066986083984 371.12310791015625 106.09637451171875 C 343.7467346191406 93.52873992919922 357.3708801269531 135.13003540039062 354.2391052246094 137.1124725341797 C 353.55755615234375 105.79188537597656 364.7660217285156 117.6481704711914 341.8482971191406 134.36912536621094"/>
    <path stroke-width="0" fill="rgb(77, 117, 126)" opacity="0.783638" stroke="rgb(177, 115, 184)" stroke-opacity="1.0" stroke-linecap="round" stroke-linejoin="round" d="M 354.5618591308594 242.8506622314453 C 333.5491638183594 246.8624267578125 388.86517333984375 215.2977294921875 351.7359313964844 227.5028839111328 C 394.92041015625 292.84710693359375 369.43634033203125 250.81317138671875 374.76446533203125 239.82420349121094 C 376.7415771484375 251.6041717529297 364.65423583984375 221.07786560058594 358.21099853515625 225.34959411621094 C 370.05767822265625 247.2700653076172 340.6544189453125 214.22193908691406 354.5618591308594 242.8506622314453"/>
    <path stroke-width="0" fill="rgb(106, 0, -43)" opacity="0.9759742" stroke="rgb(248, 218, 2)" stroke-opacity="1.0" stroke-linecap="round" stroke-linejoin="round" d="M 307.7354431152344 501.0083312988281 C 314.692138671875 492.644775390625 315.90887451171875 537.9219970703125 314.6933898925781 557.9822387695312 C 301.899169921875 541.4345092773438 295.5863037109375 520.3997802734375 320.150390625 468.95343017578125 C 285.6817626953125 505.485595703125 324.53546142578125 488.03204345703125 313.34332275390625 496.00469970703125 C 259.35247802734375 496.1365966796875 253.85589599609375 532.0050659179688 307.7354431152344 501.0083312988281"/>
    <path stroke-width="0" fill="rgb(270, 272, 235)" opacity="1.0543733" stroke="rgb(186, 43, 132)" stroke-opacity="1.0" stroke-linecap="round" stroke-linejoin="round" d="M 307.5567932128906 512.5377197265625 C 319.62738037109375 488.42523193359375 250.68997192382812 537.810546875 293.5265197753906 478.7983093261719 C 318.914306640625 527.87451171875 336.13525390625 473.7821960449219 298.2966003417969 489.70819091796875 C 316.0454406738281 511.52587890625 332.4217834472656 473.6824035644531 298.7940368652344 504.9606628417969 C 308.5277404785156 493.7618408203125 274.40411376953125 515.3867797851562 307.5567932128906 512.5377197265625"/>
    <path stroke-width="0" fill="rgb(267, 293, 254)" opacity="0.93008685" stroke="rgb(50, 4, 202)" stroke-opacity="1.0" stroke-linecap="round" stroke-linejoin="round" d="M 365.4339904785156 244.38845825195312 C 353.2173767089844 257.63330078125 333.954833984375 253.3656768798828 375.05877685546875 242.0489044189453 C 367.89697265625 243.39492797851562 326.2476501464844 238.57574462890625 328.72442626953125 295.310302734375 C 335.05999755859375 259.2688903808594 334.1514587402344 239.9839630126953 360.73895263671875 211.8231201171875 C 373.3813171386719 228.2765350341797 373.9566650390625 227.24380493164062 365.4339904785156 244.38845825195312"/>
    <path stroke-width="0" fill="rgb(251, 267, 281)" opacity="1.140415" stroke="rgb(88, 236, 179)" stroke-opacity="1.0" stroke-linecap="round" stroke-linejoin="round" d="M 343.5166320800781 140.2598114013672 C 377.53057861328125 187.06048583984375 343.9920654296875 162.73724365234375 357.839111328125 87.37947845458984 C 376.39581298828125 85.46940612792969 354.6792297363281 122.15213012695312 372.16534423828125 142.56724548339844 C 336.4045715332031 99.54338836669922 338.78985595703125 139.15664672851562 359.656494140625 115.0436019897461 C 323.132568359375 96.23986053466797 382.6495361328125 146.84597778320312 343.5166320800781 140.2598114013672"/>
    <path stroke-width="0" fill="rgb(266, 253, 283)" opacity="0.9559683" stroke="rgb(41, 158, 147)" stroke-opacity="1.0" stroke-linecap="round" stroke-linejoin="round" d="M 390.0939025878906 428.6053161621094 C 415.6865234375 425.1767883300781 416.49755859375 470.8170471191406 420.87786865234375 419.2569274902344 C 402.3124084472656 441.58074951171875 408.17633056640625 389.60723876953125 393.7998352050781 408.64947509765625 C 395.705810546875 416.01483154296875 426.0206298828125 429.9010925292969 395.63006591796875 407.1700134277344 C 366.7029113769531 419.12945556640625 390.9568176269531 391.7087707519531 390.0939025878906 428.6053161621094"/>
    <path stroke-width="0" fill="rgb(55, 103, 180)" opacity="1.0039803" stroke="rgb(238, 156, 136)" stroke-opacity="1.0" stroke-linecap="round" stroke-linejoin="round" d="M 354.9597473144531 27.71033477783203 C 357.0529479980469 67.89776611328125 337.1095275878906 54.53892517089844 324.9009704589844 48.04291915893555 C 341.1844787597656 47.432281494140625 334.3599853515625 47.04897689819336 336.3382873535156 52.806121826171875 C 330.0255432128906 41.23396682739258 315.5482482910156 34.05537033081055 353.20013427734375 44.401451110839844 C 353.6440124511719 24.996570587158203 357.8533020019531 50.574851989746094 354.9597473144531 27.71033477783203"/>
    <path stroke-width="0" fill="rgb(141, 108, 97)" opacity="0.98537874" stroke="rgb(186, 79, 101)" stroke-opacity="1.0" stroke-linecap="round" stroke-linejoin="round" d="M 331.48797607421875 221.8498992919922 C 358.7995300292969 194.08035278320312 354.64813232421875 198.9478759765625 355.7763366699219 245.3431396484375 C 369.60772705078125 240.791748046875 342.75042724609375 179.4391632080078 356.4425964355469 206.01502990722656 C 315.84893798828125 221.11424255371094 358.2721862792969 217.45187377929688 365.1026306152344 233.79232788085938 C 310.58282470703125 211.24290466308594 350.3528747558594 208.70335388183594 331.48797607421875 221.8498992919922"/>
    <path stroke-width="0" fill="rgb(253, 240, 228)" opacity="1.0085914" stroke="rgb(47, 240, 188)" stroke-opacity="1.0" stroke-linecap="round" stroke-linejoin="round" d="M 369.3070068359375 228.3045654296875 C 391.9285583496094 263.3132629394531 344.1434020996094 297.13177490234375 359.2872009277344 273.2704772949219 C 298.46575927734375 291.17138671875 355.0001220703125 260.4173889160156 364.83111572265625 255.76510620117188 C 324.68023681640625 256.14453125 348.488037109375 221.67881774902344 368.38201904296875 233.0958709716797 C 360.8848571777344 270.9762878417969 348.24920654296875 249.4551544189453 369.3070068359375 228.3045654296875"/>
    <path stroke-width="0" fill="rgb(62, 72, -20)" opacity="0.52910906" stroke="rgb(57, 64, 14)" stroke-opacity="1.0" stroke-linecap="round" stroke-linejoin="round" d="M 355.96881103515625 223.6783447265625 C 363.38128662109375 199.30795288085938 335.5731201171875 212.2414093017578 375.6730041503906 231.0654296875 C 352.7233581542969 254.55824279785156 335.169677734375 246.56045532226562 370.02764892578125 226.55548095703125 C 359.9457092285156 260.9341125488281 368.8016357421875 213.39016723632812 347.98828125 273.9156799316406 C 373.3828125 205.16287231445312 335.31964111328125 236.5269317626953 355.96881103515625 223.6783447265625"/>
    <path stroke-width="0" fill="rgb(130, 63, -30)" opacity="0.49002847" stroke="rgb(79, 177, 96)" stroke-opacity="1.0" stroke-linecap="round" stroke-linejoin="round" d="M 375.66339111328125 286.9412841796875 C 369.32574462890625 290.23223876953125 363.00018310546875 275.86529541015625 350.4044494628906 313.7171325683594 C 385.70904541015625 341.7333984375 370.3885498046875 300.6443176269531 368.4720458984375 313.4092102050781 C 369.6440734863281 245.6040802001953 403.0689697265625 253.9158935546875 354.49212646484375 297.4302978515625 C 350.778564453125 306.2060852050781 356.55963134765625 316.9491882324219 375.66339111328125 286.9412841796875"/>
    <path stroke-width="0" fill="rgb(76, 54, 105)" opacity="1.0208322" stroke="rgb(6, 17, 173)" stroke-opacity="1.0" stroke-linecap="round" stroke-linejoin="round" d="M 396.6286315917969 396.1528015136719 C 410.0831604003906 383.56610107421875 351.27203369140625 388.3629150390625 392.8415832519531 385.4106140136719 C 397.9029541015625 440.161376953125 412.54296875 445.6414489746094 404.6872253417969 417.7895202636719 C 375.828369140625 291.1959228515625 379.4766540527344 392.93096923828125 407.52587890625 404.9109191894531 C 395.0574645996094 421.11334228515625 418.0640563964844 414.1172790527344 396.6286315917969 396.1528015136719"/>
    <path stroke-width="0" fill="rgb(85, 6, 22)" opacity="0.64819163" stroke="rgb(136, 228, 252)" stroke-opacity="1.0" stroke-linecap="round" stroke-linejoin="round" d="M 332.5982360839844 156.2458038330078 C 383.5931396484375 111.57260131835938 365.3682556152344 111.9170913696289 365.075927734375 130.05162048339844 C 363.176513671875 145.079345703125 366.9130859375 132.22732543945312 366.9248962402344 152.70962524414062 C 365.53125 158.398681640625 373.1630554199219 113.600341796875 356.0788879394531 125.32269287109375 C 347.5874328613281 103.70769500732422 386.5509033203125 103.44407653808594 332.5982360839844 156.2458038330078"/>
    <path stroke-width="0" fill="rgb(23, 96, 55)" opacity="0.51984346" stroke="rgb(169, 67, 5)" stroke-opacity="1.0" stroke-linecap="round" stroke-linejoin="round" d="M 344.9341735839844 253.8052215576172 C 353.4179992675781 281.0511474609375 357.801025390625 283.9911193847656 361.62725830078125 294.83642578125 C 375.3260803222656 272.2930603027344 343.6537780761719 324.6310119628906 357.04156494140625 297.4795837402344 C 353.80242919921875 235.42710876464844 340.3019714355469 280.2527160644531 365.6887512207031 267.03375244140625 C 364.7880859375 280.2936096191406 347.8681945800781 281.58502197265625 344.9341735839844 253.8052215576172"/>
    <path stroke-width="0" fill="rgb(321, 283, 231)" opacity="0.7617472" stroke="rgb(81, 97, 150)" stroke-opacity="1.0" stroke-linecap="round" stroke-linejoin="round" d="M 360.54315185546875 177.48696899414062 C 342.7028503417969 116.6924819946289 366.6806335449219 241.4569854736328 370.6565856933594 165.94338989257812 C 371.68438720703125 127.8065185546875 339.7066955566406 148.65139770507812 370.349853515625 97.40686798095703 C 316.9285888671875 160.44139099121094 336.55078125 100.83423614501953 370.66259765625 116.00277709960938 C 318.2851257324219 141.55308532714844 354.3561096191406 117.55604553222656 360.54315185546875 177.48696899414062"/>
    <path stroke-width="0" fill="rgb(56, 60, 12)" opacity="0.406556" stroke="rgb(160, 222, 69)" stroke-opacity="1.0" stroke-linecap="round" stroke-linejoin="round" d="M 362.21771240234375 267.2268981933594 C 365.02166748046875 233.80616760253906 372.8235168457031 243.2696533203125 344.6158142089844 243.7004852294922 C 338.8876647949219 248.04534912109375 328.73114013671875 276.7314758300781 338.65911865234375 216.6231231689453 C 336.39910888671875 205.3554229736328 330.12249755859375 256.5516052246094 335.750732421875 250.04896545410156 C 389.451416015625 224.6234588623047 364.9818115234375 187.27969360351562 362.21771240234375 267.2268981933594"/>
    <path stroke-width="0" fill="rgb(48, 37, 74)" opacity="0.8262078" stroke="rgb(47, 242, 175)" stroke-opacity="1.0" stroke-linecap="round" stroke-linejoin="round" d="M 360.8683776855469 310.1653747558594 C 374.26239013671875 357.8847961425781 396.195068359375 257.8128662109375 380.6302795410156 334.51324462890625 C 337.3759765625 306.3643493652344 368.165771484375 243.31700134277344 326.6765441894531 296.88037109375 C 375.5964660644531 245.45941162109375 351.4858703613281 276.8380432128906 356.83013916015625 305.4095153808594 C 366.670654296875 270.8523864746094 337.0382385253906 275.8000183105469 360.8683776855469 310.1653747558594"/>
    <path stroke-width="0" fill="rgb(24, 37, -10)" opacity="0.6967277" stroke="rgb(241, 186, 64)" stroke-opacity="1.0" stroke-linecap="round" stroke-linejoin="round" d="M 359.1339416503906 301.26336669921875 C 334.8738708496094 285.12445068359375 383.1624755859375 284.8026428222656 350.2919616699219 288.8323059082031 C 361.88720703125 275.3524475097656 355.0321350097656 241.4063262939453 354.06060791015625 271.7179260253906 C 370.57745361328125 272.7867736816406 369.4907531738281 250.9043731689453 344.7648620605469 297.15185546875 C 366.52801513671875 282.71209716796875 343.9337158203125 304.0877380371094 359.1339416503906 301.26336669921875"/>
    <path stroke-width="0" fill="rgb(263, 279, 261)" opacity="1.1092812" stroke="rgb(132, 6, 52)" stroke-opacity="1.0" stroke-linecap="round" stroke-linejoin="round" d="M 366.351806640625 314.0043640136719 C 336.1709289550781 319.09326171875 386.39630126953125 332.3096923828125 380.04815673828125 318.5219421386719 C 347.80670166015625 313.6760559082031 373.1628112792969 291.9921569824219 373.546142578125 319.3722839355469 C 370.9825439453125 350.7043151855469 395.6539611816406 328.37200927734375 374.4921569824219 327.1781921386719 C 393.6048889160156 314.5099792480469 374.1195373535156 357.19927978515625 366.351806640625 314.0043640136719"/>
    <path stroke-width="0" fill="rgb(-13, 21, 5)" opacity="0.56701744" stroke="rgb(220, 29, 131)" stroke-opacity="1.0" stroke-linecap="round" stroke-linejoin="round" d="M 359.3983459472656 366.97125244140625 C 374.06622314453125 374.68585205078125 346.4325866699219 335.2282409667969 366.2242736816406 345.44061279296875 C 335.52947998046875 425.290771484375 343.6206970214844 362.48236083984375 368.7920227050781 391.8663635253906 C 351.4100036621094 404.65057373046875 382.4179992675781 424.0066833496094 365.01434326171875 368.0310974121094 C 347.78570556640625 434.99932861328125 358.4894104003906 342.4394836425781 359.3983459472656 366.97125244140625"/>
    <path stroke-width="0" fill="rgb(257, 250, 253)" opacity="1.1058145" stroke="rgb(182, 100, 144)" stroke-opacity="1.0" stroke-linecap="round" stroke-linejoin="round" d="M 348.2399597167969 376.91802978515625 C 308.01910400390625 372.5605163574219 311.1538391113281 427.6326599121094 343.5748291015625 392.9644470214844 C 330.9345397949219 371.1384582519531 341.9231872558594 356.50885009765625 344.9483642578125 373.764892578125 C 293.5498962402344 340.3716125488281 366.24017333984375 343.0858459472656 320.5414123535156 385.0223388671875 C 331.9063720703125 347.9930419921875 312.4570617675781 360.0458679199219 348.2399597167969 376.91802978515625"/>
    <path stroke-width="0" fill="rgb(53, 73, -2)" opacity="0.46504444" stroke="rgb(195, 190, 230)" stroke-opacity="1.0" stroke-linecap="round" stroke-linejoin="round" d="M 317.7549133300781 399.1787109375 C 318.2097473144531 397.8542175292969 309.98553466796875 413.2530822753906 345.3332214355469 434.5768737792969 C 291.377685546875 399.5049133300781 332.7891845703125 427.9106750488281 299.02203369140625 466.43182373046875 C 330.24066162109375 351.9090270996094 355.08154296875 406.5723571777344 317.8319396972656 375.86883544921875 C 348.20526123046875 424.7608337402344 353.03082275390625 386.1875 317.7549133300781 399.1787109375"/>
    <path stroke-width="0" fill="rgb(11, 37, 98)" opacity="0.6787905" stroke="rgb(140, 149, 245)" stroke-opacity="1.0" stroke-linecap="round" stroke-linejoin="round" d="M 355.8503112792969 328.00244140625 C 331.4609680175781 370.3114929199219 373.02728271484375 313.3315734863281 334.2496032714844 340.43463134765625 C 322.9202880859375 363.4022521972656 361.5664978027344 276.1502380371094 328.9720458984375 338.9680480957031 C 322.71746826171875 360.2763366699219 333.929931640625 342.99737548828125 329.58502197265625 340.9340515136719 C 320.7269592285156 332.605712890625 310.1492919921875 331.3948059082031 355.8503112792969 328.00244140625"/>
    <path stroke-width="0" fill="rgb(104, 53, 35)" opacity="0.28434262" stroke="rgb(16, 123, 249)" stroke-opacity="1.0" stroke-linecap="round" stroke-linejoin="round" d="M 300.8808898925781 417.9616394042969 C 330.0589294433594 402.9835205078125 271.1392822265625 449.74993896484375 322.4087219238281 427.0498962402344 C 321.9775695800781 457.1643981933594 324.6585998535156 441.13262939453125 310.43170166015625 457.30670166015625 C 329.7008972167969 440.51251220703125 351.22412109375 426.27276611328125 316.8779296875 445.11126708984375 C 357.5313415527344 369.39471435546875 319.52337646484375 423.0101318359375 300.8808898925781 417.9616394042969"/>
    <path stroke-width="0" fill="rgb(274, 291, 273)" opacity="0.96836287" stroke="rgb(86, 245, 59)" stroke-opacity="1.0" stroke-linecap="round" stroke-linejoin="round" d="M 332.4421081542969 285.899169921875 C 348.1458740234375 285.4173278808594 322.8041076660156 287.027587890625 363.74493408203125 277.83868408203125 C 332.2929992675781 296.7253723144531 337.1568603515625 253.96697998046875 330.87884521484375 287.8482971191406 C 359.0982666015625 281.13037109375 365.9275207519531 275.79510498046875 345.03448486328125 291.1759033203125 C 323.42626953125 267.3361511230469 377.7969665527344 305.4566345214844 332.4421081542969 285.899169921875"/>
    <path stroke-width="0" fill="rgb(166, 146, 77)" opacity="0.23050049" stroke="rgb(240, 203, 160)" stroke-opacity="1.0" stroke-linecap="round" stroke-linejoin="round" d="M 357.62677001953125 279.8128356933594 C 337.06768798828125 277.45526123046875 380.9674987792969 298.1883850097656 375.1064453125 261.0556640625 C 370.607421875 282.75128173828125 379.80010986328125 288.62701416015625 372.931884765625 301.757080078125 C 362.6502380371094 263.9647521972656 398.8572692871094 281.9118957519531 356.37554931640625 286.4667663574219 C 354.5664367675781 298.61181640625 349.31951904296875 296.99505615234375 357.62677001953125 279.8128356933594"/>
    <path stroke-width="0" fill="rgb(9, -3, 80)" opacity="0.31532753" stroke="rgb(74, 216, 157)" stroke-opacity="1.0" stroke-linecap="round" stroke-linejoin="round" d="M 369.4601135253906 417.3052978515625 C 374.9833984375 408.2132568359375 375.12237548828125 405.3264465332031 368.52252197265625 420.7239074707031 C 377.99566650390625 400.7584533691406 361.3102111816406 351.5395812988281 368.0481262207031 413.0649108886719 C 335.9729919433594 347.6689147949219 348.547119140625 387.4954528808594 347.0450439453125 385.8971862792969 C 369.17352294921875 403.1222839355469 359.80059814453125 394.9594421386719 369.4601135253906 417.3052978515625"/>
    <path stroke-width="0" fill="rgb(103, -38, 3)" opacity="0.7789771" stroke="rgb(126, 163, 93)" stroke-opacity="1.0" stroke-linecap="round" stroke-linejoin="round" d="M 365.4844055175781 110.07102966308594 C 359.69866943359375 89.01145935058594 351.74407958984375 90.3615493774414 345.1602783203125 83.09711456298828 C 379.0343322753906 113.41844177246094 329.45941162109375 80.20428466796875 362.91192626953125 114.69380187988281 C 382.7862548828125 91.37378692626953 350.3866882324219 95.14339447021484 354.8397216796875 104.48267364501953 C 352.6811218261719 104.21697235107422 332.66552734375 96.82857513427734 365.4844055175781 110.07102966308594"/>
    <path stroke-width="0" fill="rgb(116, 108, 40)" opacity="0.52007174" stroke="rgb(24, 219, 248)" stroke-opacity="1.0" stroke-linecap="round" stroke-linejoin="round" d="M 360.2913818359375 434.8214111328125 C 368.9067077636719 383.7339172363281 384.65191650390625 417.04296875 356.1329650878906 372.7190246582031 C 367.07769775390625 407.5902404785156 371.0036926269531 366.5810852050781 363.7212829589844 348.7562561035156 C 383.9248352050781 407.6464538574219 392.2199401855469 352.815673828125 360.0295715332031 363.5191345214844 C 380.8030090332031 397.06591796875 360.1934814453125 418.2736511230469 360.2913818359375 434.8214111328125"/>
    <path stroke-width="0" fill="rgb(269, 245, 254)" opacity="0.8780438" stroke="rgb(231, 197, 84)" stroke-opacity="1.0" stroke-linecap="round" stroke-linejoin="round" d="M 358.6804504394531 220.9259796142578 C 369.0668640136719 244.4936065673828 382.66094970703125 216.8094482421875 367.1239013671875 214.2532501220703 C 397.22393798828125 206.614990234375 349.8900146484375 246.6458282470703 372.8271484375 236.373779296875 C 360.3695068359375 252.59898376464844 363.4334411621094 261.6468505859375 363.55438232421875 202.42674255371094 C 396.789306640625 240.4968719482422 353.8393249511719 249.48268127441406 358.6804504394531 220.9259796142578"/>
    <path stroke-width="0" fill="rgb(189, 156, 150)" opacity="0.5362356" stroke="rgb(103, 59, 33)" stroke-opacity="1.0" stroke-linecap="round" stroke-linejoin="round" d="M 366.7988586425781 367.4986572265625 C 384.5914001464844 351.04559326171875 389.9342346191406 336.8834228515625 360.52349853515625 349.62103271484375 C 366.111328125 333.17547607421875 382.08905029296875 347.83154296875 403.5055236816406 371.6068420410156 C 383.7497253417969 354.1778869628906 368.9421081542969 332.4841003417969 363.09075927734375 361.5213317871094 C 375.6885070800781 391.8457946777344 367.5611877441406 397.8831481933594 366.7988586425781 367.4986572265625"/>
    <path stroke-width="0" fill="rgb(94, 105, 160)" opacity="1.0154035" stroke="rgb(107, 142, 219)" stroke-opacity="1.0" stroke-linecap="round" stroke-linejoin="round" d="M 392.39019775390625 342.80963134765625 C 401.2001037597656 381.5810852050781 417.9429931640625 424.2708740234375 429.56719970703125 414.731201171875 C 431.71826171875 412.13873291015625 414.4797058105469 443.3785400390625 412.7384948730469 396.778076171875 C 418.2317810058594 424.7264404296875 432.7918395996094 413.7285461425781 401.44940185546875 412.853515625 C 408.3778991699219 390.1031799316406 420.237060546875 409.7747497558594 392.39019775390625 342.80963134765625"/>
    <path stroke-width="0" fill="rgb(128, 100, 93)" opacity="0.26825213" stroke="rgb(68, 33, 14)" stroke-opacity="1.0" stroke-linecap="round" stroke-linejoin="round" d="M 350.7854309082031 313.32818603515625 C 354.9717102050781 318.58935546875 333.1221008300781 280.1357421875 352.12469482421875 326.1965026855469 C 363.66754150390625 340.2230529785156 361.27001953125 303.1971435546875 384.6772766113281 342.7251892089844 C 390.052001953125 326.1163330078125 383.8984375 330.3448181152344 391.299560546875 333.6181945800781 C 358.59503173828125 312.662109375 360.765380859375 320.6911926269531 350.7854309082031 313.32818603515625"/>
    <path stroke-width="0" fill="rgb(117, 100, 188)" opacity="0.34811455" stroke="rgb(66, 116, 174)" stroke-opacity="1.0" stroke-linecap="round" stroke-linejoin="round" d="M 370.595458984375 403.65972900390625 C 385.2970275878906 372.2009582519531 347.6620178222656 375.2820739746094 355.36114501953125 386.4195556640625 C 337.5245056152344 397.0594177246094 353.2032165527344 419.701171875 316.8983459472656 370.0916748046875 C 335.764892578125 398.0050354003906 333.2969665527344 417.0530700683594 371.5357360839844 377.40155029296875 C 362.8863830566406 373.5589294433594 380.0597839355469 378.0332946777344 370.595458984375 403.65972900390625"/>
    <path stroke-width="0" fill="rgb(83, 65, 38)" opacity="0.73418456" stroke="rgb(72, 96, 46)" stroke-opacity="1.0" stroke-linecap="round" stroke-linejoin="round" d="M 368.0100402832031 432.1322021484375 C 374.76416015625 429.8367004394531 372.6966552734375 400.4078674316406 411.4552307128906 429.0406188964844 C 376.66845703125 408.00860595703125 384.0559997558594 399.4691467285156 384.7394104003906 435.11651611328125 C 394.6546936035156 375.4031982421875 385.8797912597656 418.88494873046875 367.6962585449219 421.62493896484375 C 364.12432861328125 401.7814025878906 394.46832275390625 443.7745056152344 368.0100402832031 432.1322021484375"/>
    <path stroke-width="0" fill="rgb(247, 260, 234)" opacity="0.96179754" stroke="rgb(66, 95, 149)" stroke-opacity="1.0" stroke-linecap="round" stroke-linejoin="round" d="M 335.369873046875 327.71630859375 C 327.7594909667969 296.1121520996094 337.082763671875 321.9844970703125 327.3221435546875 339.00592041015625 C 361.921142578125 315.1630554199219 359.1802978515625 340.4161682128906 351.6950988769531 321.9847412109375 C 349.64532470703125 376.1745910644531 320.0849914550781 317.3193664550781 333.3748474121094 326.4729309082031 C 353.9300842285156 317.2449645996094 334.3186340332031 354.7411193847656 335.369873046875 327.71630859375"/>
    <path stroke-width="0" fill="rgb(231, 225, 279)" opacity="0.92265874" stroke="rgb(203, 19, 132)" stroke-opacity="1.0" stroke-linecap="round" stroke-linejoin="round" d="M 340.5826110839844 87.0880355834961 C 337.5631408691406 113.61791229248047 358.78363037109375 92.194580078125 371.1965637207031 110.22543334960938 C 370.1999206542969 109.80207061767578 353.8590087890625 83.92005920410156 367.36083984375 81.70037841796875 C 326.57647705078125 98.96215057373047 344.1682434082031 69.01212310791016 341.68634033203125 99.26203918457031 C 346.89813232421875 98.58445739746094 347.1836242675781 86.54437255859375 340.5826110839844 87.0880355834961"/>
    <path stroke-width="0" fill="rgb(20, 136, 116)" opacity="0.11816413" stroke="rgb(147, 244, 164)" stroke-opacity="1.0" stroke-linecap="round" stroke-linejoin="round" d="M 328.95245361328125 102.19548797607422 C 380.83380126953125 97.10409545898438 403.62933349609375 77.4539566040039 358.33843994140625 64.36236572265625 C 398.843017578125 84.22859191894531 397.17205810546875 86.4686508178711 399.65179443359375 111.90699768066406 C 366.0587158203125 145.82080078125 362.7666320800781 89.54468536376953 355.13677978515625 89.26016998291016 C 383.88897705078125 103.97261810302734 408.1272888183594 98.69719696044922 328.95245361328125 102.19548797607422"/>
    <path stroke-width="0" fill="rgb(205, 221, 156)" opacity="0.5967442" stroke="rgb(109, 130, 136)" stroke-opacity="1.0" stroke-linecap="round" stroke-linejoin="round" d="M 358.7275695800781 281.3043212890625 C 390.1432189941406 267.9515380859375 366.3016357421875 282.3769226074219 370.934814453125 279.82391357421875 C 391.05340576171875 283.2884521484375 359.714111328125 280.9394836425781 379.7492370605469 282.3729248046875 C 342.15997314453125 296.1460266113281 350.4640197753906 253.201171875 340.091064453125 268.51190185546875 C 364.328125 273.8822937011719 325.5164794921875 278.3456726074219 358.7275695800781 281.3043212890625"/>
    <path stroke-width="0" fill="rgb(121, 35, -13)" opacity="0.880708" stroke="rgb(47, 230, 138)" stroke-opacity="1.0" stroke-linecap="round" stroke-linejoin="round" d="M 381.34832763671875 488.4412841796875 C 419.1683044433594 474.28515625 387.60015869140625 479.0258483886719 433.7925109863281 483.85858154296875 C 421.2615051269531 477.7276916503906 426.4853820800781 459.264892578125 414.35589599609375 492.2698059082031 C 410.32781982421875 493.51153564453125 387.3813781738281 543.7965087890625 420.7749328613281 487.89111328125 C 411.3741149902344 495.0912170410156 429.78778076171875 471.275390625 381.34832763671875 488.4412841796875"/>
    <path stroke-width="0" fill="rgb(126, 72, 170)" opacity="0.17929569" stroke="rgb(224, 116, 184)" stroke-opacity="1.0" stroke-linecap="round" stroke-linejoin="round" d="M 366.051025390625 111.52169036865234 C 390.5425720214844 111.55142974853516 369.1146545410156 114.01070404052734 357.52227783203125 90.36412811279297 C 356.4378662109375 112.2760238647461 366.9704284667969 123.80581665039062 393.8354187011719 91.46171569824219 C 374.5143127441406 112.78654479980469 343.31494140625 80.92991638183594 317.1762390136719 132.58038330078125 C 333.53533935546875 100.92438507080078 350.24285888671875 105.19063568115234 366.051025390625 111.52169036865234"/>
    <path stroke-width="0" fill="rgb(60, 112, 141)" opacity="0.11920785" stroke="rgb(230, 175, 178)" stroke-opacity="1.0" stroke-linecap="round" stroke-linejoin="round" d="M 395.3064270019531 97.18472290039062 C 398.02667236328125 60.94343948364258 400.114990234375 77.07926177978516 390.64361572265625 97.07186889648438 C 383.3321838378906 95.66901397705078 402.97784423828125 95.95182800292969 395.3155822753906 80.87874603271484 C 362.772705078125 116.7971420288086 321.88470458984375 95.43535614013672 314.3849792480469 106.541748046875 C 340.141357421875 125.30288696289062 352.753173828125 92.86527252197266 395.3064270019531 97.18472290039062"/>
    <path stroke-width="0" fill="rgb(228, 212, 237)" opacity="0.79859215" stroke="rgb(192, 162, 61)" stroke-opacity="1.0" stroke-linecap="round" stroke-linejoin="round" d="M 357.7640380859375 345.7115478515625 C 370.2545166015625 321.2206115722656 350.5614013671875 330.3287353515625 355.4367980957031 335.2930908203125 C 370.79766845703125 337.70166015625 364.0792236328125 332.3157653808594 355.8598327636719 317.91864013671875 C 351.094970703125 347.7285461425781 368.7629699707031 335.97882080078125 362.6589050292969 330.4800720214844 C 386.7237854003906 325.9052429199219 390.4940490722656 312.83349609375 357.7640380859375 345.7115478515625"/>
    <path stroke-width="0" fill="rgb(184, 195, 256)" opacity="0.38997048" stroke="rgb(203, 244, 116)" stroke-opacity="1.0" stroke-linecap="round" stroke-linejoin="round" d="M 394.7291259765625 394.5614013671875 C 431.484130859375 415.48162841796875 403.95654296875 411.48760986328125 398.3688049316406 399.31732177734375 C 385.09832763671875 433.54150390625 398.1091613769531 446.22283935546875 355.8817443847656 404.09039306640625 C 348.8352355957031 354.5985412597656 324.0195007324219 393.40216064453125 389.18695068359375 426.98193359375 C 400.402587890625 388.65667724609375 406.4690246582031 378.1854553222656 394.7291259765625 394.5614013671875"/>
    <path stroke-width="0" fill="rgb(123, 125, 123)" opacity="0.89333194" stroke="rgb(209, 231, 207)" stroke-opacity="1.0" stroke-linecap="round" stroke-linejoin="round" d="M 366.07110595703125 -10.313698768615723 C 358.10107421875 -8.817402839660645 352.18414306640625 -1.461106300354004 369.2245178222656 -3.4766533374786377 C 387.265625 -7.575571537017822 377.2897033691406 -18.447284698486328 367.5125427246094 -32.20763397216797 C 357.3088073730469 10.338201522827148 353.7659606933594 6.857427597045898 346.7136535644531 -32.64646530151367 C 374.9783630371094 -16.048751831054688 375.07598876953125 -11.324017524719238 366.07110595703125 -10.313698768615723"/>
    <path stroke-width="0" fill="rgb(76, 9, 65)" opacity="0.3338906" stroke="rgb(160, 101, 15)" stroke-opacity="1.0" stroke-linecap="round" stroke-linejoin="round" d="M 341.3740539550781 111.6300277709961 C 339.6274108886719 97.88829040527344 348.4561462402344 117.72032165527344 355.30072021484375 104.6800765991211 C 369.6121826171875 94.60657501220703 372.95159912109375 102.0106430053711 365.6648254394531 99.10044860839844 C 351.8826904296875 96.4320068359375 327.6619567871094 56.29599380493164 360.2162780761719 66.16720581054688 C 334.9620361328125 99.46102142333984 371.9776611328125 127.07129669189453 341.3740539550781 111.6300277709961"/>
    <path stroke-width="0" fill="rgb(87, 129, 113)" opacity="0.5269917" stroke="rgb(65, 216, 8)" stroke-opacity="1.0" stroke-linecap="round" stroke-linejoin="round" d="M 348.6221008300781 12.579562187194824 C 350.03045654296875 1.0846136808395386 343.6431579589844 19.051862716674805 346.9850158691406 9.822651863098145 C 354.6053466796875 5.345106601715088 340.192138671875 5.949743270874023 349.5547790527344 10.775089263916016 C 353.13568115234375 17.20254898071289 343.6512145996094 27.52460479736328 352.9114990234375 12.603069305419922 C 347.06878662109375 28.369068145751953 351.930419921875 22.04581069946289 348.6221008300781 12.579562187194824"/>
    <path stroke-width="0" fill="rgb(113, 126, 144)" opacity="0.7817831" stroke="rgb(102, 236, 25)" stroke-opacity="1.0" stroke-linecap="round" stroke-linejoin="round" d="M 329.9115905761719 445.5726013183594 C 347.57427978515625 479.8341979980469 347.55535888671875 462.509033203125 313.6795349121094 411.3134765625 C 355.912353515625 451.18212890625 301.0917053222656 393.79241943359375 314.7166442871094 425.35400390625 C 289.1340637207031 443.87347412109375 311.4693298339844 420.7773742675781 324.1357421875 424.138671875 C 351.5062255859375 400.3872985839844 340.759765625 423.8848876953125 329.9115905761719 445.5726013183594"/>
    <path stroke-width="0" fill="rgb(88, 117, 127)" opacity="0.21001025" stroke="rgb(17, 64, 56)" stroke-opacity="1.0" stroke-linecap="round" stroke-linejoin="round" d="M 378.1513671875 74.79349517822266 C 385.7635192871094 74.88790893554688 360.3365478515625 104.45979309082031 392.2620544433594 112.48335266113281 C 374.2450866699219 108.56951904296875 357.3067932128906 74.875 374.5899658203125 116.73004150390625 C 350.6291198730469 90.844970703125 357.4275817871094 78.8217544555664 368.9137878417969 94.35971069335938 C 319.448974609375 89.0772705078125 391.57720947265625 113.05640411376953 378.1513671875 74.79349517822266"/>
    <path stroke-width="0" fill="rgb(-12, 32, 1)" opacity="1.1712316" stroke="rgb(162, 125, 252)" stroke-opacity="1.0" stroke-linecap="round" stroke-linejoin="round" d="M 363.9305419921875 115.84766387939453 C 371.3415222167969 86.1176528930664 366.2316589355469 126.08525848388672 363.8550720214844 90.44657897949219 C 355.6694030761719 71.7908935546875 349.7100524902344 126.97325897216797 346.8191223144531 109.1936264038086 C 337.9330749511719 64.36946105957031 335.6744689941406 57.3743896484375 341.39593505859375 115.22560119628906 C 373.5771484375 72.92191314697266 373.73614501953125 70.03022766113281 363.9305419921875 115.84766387939453"/>
    <path stroke-width="0" fill="rgb(23, -2, 79)" opacity="0.39647713" stroke="rgb(199, 73, 61)" stroke-opacity="1.0" stroke-linecap="round" stroke-linejoin="round" d="M 316.8744812011719 451.5145568847656 C 358.2908020019531 483.0802307128906 312.15167236328125 478.21807861328125 361.8794250488281 462.5760192871094 C 346.47821044921875 434.2515563964844 344.24981689453125 463.47552490234375 347.7792663574219 477.2713623046875 C 336.1097412109375 467.1376037597656 312.025390625 421.7510070800781 332.34222412109375 449.9520568847656 C 349.8155822753906 438.5985107421875 328.9348449707031 469.7624816894531 316.8744812011719 451.5145568847656"/>
    <path stroke-width="0" fill="rgb(67, 68, 107)" opacity="0.53103334" stroke="rgb(62, 169, 131)" stroke-opacity="1.0" stroke-linecap="round" stroke-linejoin="round" d="M 301.9892578125 447.8179931640625 C 311.99755859375 468.9555358886719 329.5876770019531 456.89434814453125 334.6404113769531 428.30828857421875 C 332.8421936035156 463.6448059082031 286.1802062988281 457.2073974609375 280.1756896972656 495.97467041015625 C 304.0895080566406 455.22235107421875 311.36029052734375 458.6557922363281 318.6833801269531 449.9637756347656 C 322.95587158203125 432.88568115234375 309.9952392578125 467.5911865234375 301.9892578125 447.8179931640625"/>
    <path stroke-width="0" fill="rgb(152, 109, 205)" opacity="0.5737648" stroke="rgb(141, 73, 180)" stroke-opacity="1.0" stroke-linecap="round" stroke-linejoin="round" d="M 327.6388244628906 440.3307189941406 C 332.3349609375 471.1872863769531 315.6025695800781 462.72308349609375 327.24322509765625 441.8326110839844 C 331.862060546875 482.3335876464844 331.13262939453125 446.6641540527344 304.3460388183594 454.9858703613281 C 315.0723571777344 481.51861572265625 295.1883544921875 421.5827941894531 324.0434265136719 445.9466857910156 C 298.82269287109375 476.186279296875 343.1840515136719 465.9994812011719 327.6388244628906 440.3307189941406"/>
    <path stroke-width="0" fill="rgb(71, 123, 159)" opacity="0.017842956" stroke="rgb(91, 211, 235)" stroke-opacity="1.0" stroke-linecap="round" stroke-linejoin="round" d="M 391.87030029296875 71.99127960205078 C 350.4864501953125 77.6173095703125 339.2016296386719 68.79708099365234 356.5162353515625 110.3146743774414 C 353.7936096191406 87.57070922851562 340.7626953125 74.66270446777344 345.23492431640625 97.14724731445312 C 348.4358215332031 71.37378692626953 367.9922790527344 77.8777847290039 396.9731140136719 69.1750717163086 C 388.376220703125 22.583049774169922 377.9075012207031 36.50742721557617 391.87030029296875 71.99127960205078"/>
    <path stroke-width="0" fill="rgb(185, 78, 146)" opacity="0.10220205" stroke="rgb(59, 88, 207)" stroke-opacity="1.0" stroke-linecap="round" stroke-linejoin="round" d="M 372.5380859375 137.81764221191406 C 358.3625793457031 134.265380859375 352.2284851074219 110.3717269897461 338.8724670410156 104.95048522949219 C 361.26812744140625 92.04541778564453 371.5992736816406 85.0513687133789 360.15814208984375 102.64495849609375 C 336.8638000488281 109.02243041992188 349.1431579589844 141.76487731933594 350.783935546875 104.46575927734375 C 333.3744201660156 91.38676452636719 352.9388732910156 113.98641967773438 372.5380859375 137.81764221191406"/>
    <path stroke-width="0" fill="rgb(273, 338, 296)" opacity="0.6428898" stroke="rgb(63, 27, 242)" stroke-opacity="1.0" stroke-linecap="round" stroke-linejoin="round" d="M 343.0888366699219 97.39540100097656 C 335.4281005859375 68.7072982788086 332.42864990234375 80.86573028564453 338.2434387207031 95.74469757080078 C 369.34222412109375 107.21515655517578 364.6775817871094 82.21366882324219 367.7861633300781 80.06214904785156 C 313.1123352050781 82.80403900146484 336.740966796875 70.32850646972656 360.876220703125 91.5446548461914 C 339.8515625 74.84211730957031 351.46875 103.7476577758789 343.0888366699219 97.39540100097656"/>
    <path stroke-width="0" fill="rgb(250, 243, 271)" opacity="0.33078107" stroke="rgb(175, 14, 186)" stroke-opacity="1.0" stroke-linecap="round" stroke-linejoin="round" d="M 349.98370361328125 75.43975067138672 C 374.6338195800781 73.00921630859375 376.4704284667969 122.1717529296875 340.5324401855469 92.37834167480469 C 331.5520935058594 76.4886703491211 341.1158142089844 116.55555725097656 335.82281494140625 93.45084381103516 C 330.1173095703125 101.10735321044922 377.5608825683594 85.71322631835938 355.3892822265625 81.4516830444336 C 367.1888122558594 80.28787231445312 371.4988708496094 68.9375 349.98370361328125 75.43975067138672"/>
    <path stroke-width="0" fill="rgb(23, 85, 58)" opacity="0.67190826" stroke="rgb(69, 96, 95)" stroke-opacity="1.0" stroke-linecap="round" stroke-linejoin="round" d="M 360.25384521484375 478.3822021484375 C 406.9247131347656 499.0935974121094 377.1447448730469 441.3547058105469 404.1506652832031 455.8345642089844 C 389.05584716796875 453.7403564453125 402.25128173828125 448.0184020996094 389.16802978515625 457.2935485839844 C 379.80474853515625 476.67877197265625 391.6585693359375 465.3209228515625 384.171875 468.60693359375 C 359.969970703125 467.2391052246094 404.3871154785156 483.69781494140625 360.25384521484375 478.3822021484375"/>
    <path stroke-width="0" fill="rgb(94, 142, 169)" opacity="0.0028322616" stroke="rgb(213, 60, 128)" stroke-opacity="1.0" stroke-linecap="round" stroke-linejoin="round" d="M 362.1111755371094 122.010986328125 C 356.2796936035156 113.29704284667969 349.3511657714844 134.4206085205078 337.50628662109375 141.9256134033203 C 348.1712646484375 105.78080749511719 367.2157897949219 97.71883392333984 343.341796875 118.23204040527344 C 358.7986145019531 102.65775299072266 374.7891845703125 111.59209442138672 331.0077209472656 128.39976501464844 C 350.9635314941406 110.84235382080078 353.91290283203125 110.4692611694336 362.1111755371094 122.010986328125"/>
    <path stroke-width="0" fill="rgb(78, 118, 95)" opacity="0.47663397" stroke="rgb(161, 221, 239)" stroke-opacity="1.0" stroke-linecap="round" stroke-linejoin="round" d="M 358.8027038574219 87.58533477783203 C 343.31109619140625 140.54246520996094 340.18267822265625 172.70660400390625 346.510986328125 128.7182159423828 C 343.95550537109375 135.2811737060547 349.94219970703125 108.142333984375 334.4393005371094 127.07559204101562 C 346.5834655761719 123.68240356445312 363.037109375 112.12752532958984 343.8992614746094 101.29590606689453 C 380.9775390625 101.20216369628906 341.599365234375 106.14246368408203 358.8027038574219 87.58533477783203"/>
    <path stroke-width="0" fill="rgb(58, 115, 134)" opacity="0.31548694" stroke="rgb(178, 246, 253)" stroke-opacity="1.0" stroke-linecap="round" stroke-linejoin="round" d="M 399.23785400390625 72.44422149658203 C 407.79718017578125 79.93663024902344 307.0893859863281 76.20696258544922 316.6551818847656 70.75534057617188 C 320.18890380859375 107.7079849243164 311.4957580566406 107.11933135986328 308.3477783203125 90.88015747070312 C 316.94793701171875 67.8061752319336 294.5595397949219 97.2724380493164 352.4027404785156 67.46443939208984 C 351.3760681152344 49.40433120727539 366.5964660644531 90.12694549560547 399.23785400390625 72.44422149658203"/>
    <path stroke-width="0" fill="rgb(234, 300, 213)" opacity="1.0217156" stroke="rgb(33, 154, 97)" stroke-opacity="1.0" stroke-linecap="round" stroke-linejoin="round" d="M 354.4179992675781 110.74520874023438 C 339.4159240722656 112.29634857177734 339.77691650390625 115.6953125 350.81463623046875 90.36454772949219 C 365.4036560058594 145.70140075683594 325.4501647949219 133.11489868164062 355.3152160644531 110.20433807373047 C 354.7246398925781 118.4157943725586 333.86151123046875 108.69425201416016 364.1925354003906 122.16136932373047 C 346.2508544921875 104.87274932861328 371.6329650878906 116.18390655517578 354.4179992675781 110.74520874023438"/>
    <path stroke-width="0" fill="rgb(16, 55, 104)" opacity="0.8118006" stroke="rgb(246, 139, 70)" stroke-opacity="1.0" stroke-linecap="round" stroke-linejoin="round" d="M 338.7034912109375 71.72306060791016 C 350.3485412597656 113.33546447753906 324.787353515625 76.5522689819336 366.3562927246094 87.4809799194336 C 372.9104309082031 82.65333557128906 350.4776916503906 87.08383178710938 319.724365234375 84.39607238769531 C 382.99676513671875 86.42655944824219 367.34161376953125 98.75149536132812 372.9017333984375 71.87317657470703 C 343.5032958984375 56.09907913208008 390.78338623046875 76.6535415649414 338.7034912109375 71.72306060791016"/>
    <path stroke-width="0" fill="rgb(266, 257, 215)" opacity="1.0452211" stroke="rgb(116, 102, 63)" stroke-opacity="1.0" stroke-linecap="round" stroke-linejoin="round" d="M 312.68798828125 501.38372802734375 C 290.6738586425781 473.43243408203125 295.2542724609375 467.3502197265625 297.1065673828125 480.7133483886719 C 315.8113098144531 472.2742919921875 286.4941711425781 457.68316650390625 321.6382141113281 486.38739013671875 C 269.5370178222656 482.86419677734375 318.6473083496094 488.45379638671875 295.2957763671875 477.3905944824219 C 286.20965576171875 471.13812255859375 296.3896789550781 487.45654296875 312.68798828125 501.38372802734375"/>
    <path stroke-width="0" fill="rgb(56, 111, 164)" opacity="0.68651265" stroke="rgb(79, 95, 133)" stroke-opacity="1.0" stroke-linecap="round" stroke-linejoin="round" d="M 393.2630615234375 108.34607696533203 C 367.93682861328125 114.77619171142578 337.45880126953125 98.38922119140625 326.9163818359375 130.09092712402344 C 382.63824462890625 141.62124633789062 360.02130126953125 149.79519653320312 335.0317077636719 124.19963073730469 C 344.87432861328125 139.40338134765625 343.6294250488281 121.1170654296875 345.5916442871094 96.55448913574219 C 336.3291320800781 110.62809753417969 356.489013671875 112.69070434570312 393.2630615234375 108.34607696533203"/>
    <path stroke-width="0" fill="rgb(57, 103, 106)" opacity="0.56645626" stroke="rgb(85, 235, 219)" stroke-opacity="1.0" stroke-linecap="round" stroke-linejoin="round" d="M 372.16192626953125 106.81953430175781 C 352.68206787109375 108.84131622314453 372.7094421386719 102.71488952636719 367.3955993652344 117.86164855957031 C 387.33056640625 125.6857681274414 354.575439453125 115.66836547851562 349.1477355957031 126.62840270996094 C 323.0333557128906 125.4571304321289 344.3782043457031 113.46772766113281 360.51861572265625 155.43373107910156 C 326.3516845703125 105.65677642822266 366.0320739746094 139.788818359375 372.16192626953125 106.81953430175781"/>
    <path stroke-width="0" fill="rgb(61, 109, 162)" opacity="0.53011763" stroke="rgb(64, 113, 26)" stroke-opacity="1.0" stroke-linecap="round" stroke-linejoin="round" d="M 363.1318359375 103.44049835205078 C 368.130859375 148.30397033691406 421.99462890625 87.28065490722656 342.4389953613281 99.8264389038086 C 358.0937194824219 69.09302520751953 291.4710693359375 91.5130844116211 320.8464660644531 79.07749938964844 C 306.2453308105469 67.59228515625 327.6966552734375 88.63372802734375 314.767333984375 98.12920379638672 C 365.7138366699219 67.89143371582031 345.2982177734375 104.04623413085938 363.1318359375 103.44049835205078"/>
    <path stroke-width="0" fill="rgb(89, 94, 138)" opacity="0.4952091" stroke="rgb(0, 0, 0)" stroke-opacity="0.0" stroke-linecap="round" stroke-linejoin="round" d="M 489.0371398925781 -1.9989497661590576 C 491.726318359375 1.6361819505691528 487.4377136230469 2.396324872970581 489.2560729980469 -0.7469192147254944 C 482.9559020996094 0.9154787063598633 476.3399353027344 1.7537837028503418 471.843017578125 -0.2353246957063675 C 478.1189270019531 -3.8518643379211426 480.4964904785156 -7.563629627227783 484.88897705078125 -7.899098873138428 C 490.0997619628906 -5.514636039733887 494.0354309082031 -2.5053017139434814 489.0371398925781 -1.9989497661590576"/>
    <path stroke-width="0" fill="rgb(151, 172, 139)" opacity="0.5630353" stroke="rgb(0, 0, 0)" stroke-opacity="0.0" stroke-linecap="round" stroke-linejoin="round" d="M 224.4688262939453 20.51194190979004 C 225.37606811523438 21.835712432861328 223.63784790039062 26.714929580688477 215.98822021484375 24.61271858215332 C 212.95233154296875 24.128978729248047 207.32444763183594 23.532052993774414 209.79493713378906 15.004364967346191 C 207.89649963378906 12.358728408813477 215.19424438476562 9.671600341796875 217.38145446777344 7.540820598602295 C 222.14437866210938 9.315930366516113 226.38180541992188 17.192842483520508 224.4688262939453 20.51194190979004"/>
    <path stroke-width="0" fill="rgb(172, 134, 153)" opacity="0.45929307" stroke="rgb(0, 0, 0)" stroke-opacity="0.0" stroke-linecap="round" stroke-linejoin="round" d="M 70.09154510498047 -4.733009338378906 C 66.753173828125 1.6965370178222656 63.03398895263672 6.79110050201416 58.208251953125 0.461806058883667 C 55.3066291809082 3.753000020980835 50.898475646972656 1.4265021085739136 48.58415985107422 2.1706767082214355 C 49.90105056762695 -2.9924209117889404 54.92772674560547 -6.995726108551025 59.4662971496582 -7.932564735412598 C 63.75252151489258 -6.619141101837158 66.53036499023438 -3.6091973781585693 70.09154510498047 -4.733009338378906"/>
    <path stroke-width="0" fill="rgb(201, 119, 132)" opacity="0.6875391" stroke="rgb(0, 0, 0)" stroke-opacity="0.0" stroke-linecap="round" stroke-linejoin="round" d="M 102.69700622558594 4.552898406982422 C 100.86357116699219 4.9643096923828125 102.57447814941406 7.274984359741211 97.69115447998047 5.747811794281006 C 98.754150390625 9.657869338989258 99.21444702148438 5.64584493637085 103.71083068847656 7.509160041809082 C 101.19451904296875 4.73796272277832 93.81824493408203 0.826319694519043 91.39657592773438 0.13471145927906036 C 116.96160125732422 -3.003612756729126 113.0978775024414 -0.3399984538555145 102.69700622558594 4.552898406982422"/>
    <path stroke-width="0" fill="rgb(140, 196, 189)" opacity="0.15705656" stroke="rgb(0, 0, 0)" stroke-opacity="0.0" stroke-linecap="round" stroke-linejoin="round" d="M 145.72630310058594 13.59417724609375 C 146.84140014648438 14.625483512878418 144.00833129882812 19.777254104614258 139.4781494140625 20.462566375732422 C 135.7008514404297 21.412086486816406 134.6959686279297 19.527978897094727 135.6376495361328 12.279961585998535 C 137.87071228027344 10.27328109741211 138.5546875 5.391357421875 140.266357421875 7.285856246948242 C 144.95098876953125 9.11579418182373 146.08839416503906 10.447741508483887 145.72630310058594 13.59417724609375"/>
    <path stroke-width="0" fill="rgb(60, 116, 167)" opacity="0.24117282" stroke="rgb(0, 0, 0)" stroke-opacity="0.0" stroke-linecap="round" stroke-linejoin="round" d="M 58.549015045166016 15.110567092895508 C 53.96577835083008 21.638225555419922 52.550453186035156 26.2099609375 48.339073181152344 22.70812225341797 C 44.29233932495117 23.0604248046875 36.880863189697266 24.400371551513672 39.419708251953125 17.748003005981445 C 36.139549255371094 3.290283679962158 36.996150970458984 2.929863691329956 50.18637466430664 5.1437907218933105 C 56.76273727416992 2.220564126968384 59.382320404052734 6.369311809539795 58.549015045166016 15.110567092895508"/>
    <path stroke-width="0" fill="rgb(160, 88, 154)" opacity="0.06453536" stroke="rgb(0, 0, 0)" stroke-opacity="0.0" stroke-linecap="round" stroke-linejoin="round" d="M 188.37904357910156 4.957309246063232 C 183.9439697265625 4.1296281814575195 180.5756378173828 8.432629585266113 177.73455810546875 17.17300796508789 C 181.37005615234375 14.019475936889648 177.8325653076172 11.798513412475586 174.44740295410156 7.148163795471191 C 172.5173797607422 0.3162212371826172 175.2434539794922 -2.976138114929199 184.16807556152344 -3.381696939468384 C 192.2919921875 -3.2627296447753906 193.82151794433594 2.6118109226226807 188.37904357910156 4.957309246063232"/>
    <path stroke-width="0" fill="rgb(86, 102, 144)" opacity="0.24261728" stroke="rgb(0, 0, 0)" stroke-opacity="0.0" stroke-linecap="round" stroke-linejoin="round" d="M 470.72003173828125 218.69085693359375 C 468.187744140625 212.73809814453125 467.6388854980469 217.0110321044922 472.1120910644531 220.8802947998047 C 468.66412353515625 219.0966339111328 467.8493957519531 217.9219207763672 469.35357666015625 220.34703063964844 C 467.2165832519531 215.9710693359375 466.90716552734375 213.3765869140625 467.93255615234375 205.15243530273438 C 472.1911315917969 209.8106231689453 472.2465515136719 216.42649841308594 470.72003173828125 218.69085693359375"/>
    <path stroke-width="0" fill="rgb(114, 57, 190)" opacity="0.45482713" stroke="rgb(0, 0, 0)" stroke-opacity="0.0" stroke-linecap="round" stroke-linejoin="round" d="M 457.70220947265625 161.89373779296875 C 456.6552429199219 158.48825073242188 455.3666687011719 160.70550537109375 457.1842956542969 165.4329833984375 C 458.1296081542969 160.4954071044922 460.73260498046875 155.70098876953125 459.3273620605469 159.9836883544922 C 458.6300354003906 154.71678161621094 457.5404052734375 156.18675231933594 458.48541259765625 157.55027770996094 C 456.5667724609375 155.29254150390625 457.9129943847656 156.59361267089844 457.70220947265625 161.89373779296875"/>
    <path stroke-width="0" fill="rgb(56, 87, 166)" opacity="0.15001504" stroke="rgb(0, 0, 0)" stroke-opacity="0.0" stroke-linecap="round" stroke-linejoin="round" d="M 12.7904634475708 179.55862426757812 C 21.347291946411133 186.84315490722656 19.08531379699707 184.05270385742188 1.8951175212860107 186.1041259765625 C -5.147022724151611 184.1407928466797 -2.882192611694336 183.27830505371094 5.9082465171813965 181.45175170898438 C -4.759685039520264 173.89404296875 3.2807090282440186 176.0721435546875 11.26990032196045 175.9067840576172 C 18.827943801879883 178.25363159179688 20.691301345825195 177.2623748779297 12.7904634475708 179.55862426757812"/>
    <path stroke-width="0" fill="rgb(82, 203, 135)" opacity="0.1273806" stroke="rgb(0, 0, 0)" stroke-opacity="0.0" stroke-linecap="round" stroke-linejoin="round" d="M -123.205810546875 105.1214599609375 C -124.2776107788086 109.1214599609375 -127.205810546875 112.04966735839844 -131.205810546875 113.1214599609375 C -135.205810546875 112.04966735839844 -138.13401794433594 109.1214599609375 -139.205810546875 105.1214599609375 C -138.13401794433594 101.1214599609375 -135.205810546875 98.1932601928711 -131.205810546875 97.1214599609375 C -127.205810546875 98.1932601928711 -124.2776107788086 101.1214599609375 -123.205810546875 105.1214599609375"/>
    <path stroke-width="0" fill="rgb(69, 176, 197)" opacity="0.03501853" stroke="rgb(0, 0, 0)" stroke-opacity="0.0" stroke-linecap="round" stroke-linejoin="round" d="M 75.02505493164062 448.4934997558594 C 77.2155532836914 450.71185302734375 76.68678283691406 452.48291015625 76.41349029541016 446.74139404296875 C 70.59744262695312 444.4971008300781 64.3946304321289 444.45587158203125 62.61743927001953 444.5525817871094 C 63.6301383972168 440.7148742675781 66.27191925048828 437.8601989746094 67.3161849975586 441.43310546875 C 70.59513092041016 442.4369812011719 74.06275939941406 444.3040771484375 75.02505493164062 448.4934997558594"/>
    <path stroke-width="0" fill="rgb(71, 94, 159)" opacity="0.19384086" stroke="rgb(0, 0, 0)" stroke-opacity="0.0" stroke-linecap="round" stroke-linejoin="round" d="M 490.712890625 140.06369018554688 C 489.1480407714844 145.631103515625 492.8530578613281 154.54042053222656 489.6895751953125 154.4712677001953 C 481.0771789550781 158.06163024902344 488.8982849121094 155.41552734375 489.83087158203125 137.8123016357422 C 483.553955078125 138.2177734375 488.4483947753906 136.6238250732422 494.68341064453125 136.22398376464844 C 493.1078796386719 134.9140167236328 494.13812255859375 137.93531799316406 490.712890625 140.06369018554688"/>
    <path stroke-width="0" fill="rgb(88, 108, 118)" opacity="0.158888" stroke="rgb(0, 0, 0)" stroke-opacity="0.0" stroke-linecap="round" stroke-linejoin="round" d="M 120.43704223632812 101.81147766113281 C 118.03121185302734 101.0710220336914 115.12285614013672 101.3279037475586 118.57018280029297 107.61088562011719 C 119.8962631225586 100.40129852294922 115.74633026123047 100.75459289550781 116.26615905761719 101.6139907836914 C 114.49740600585938 103.8326187133789 114.97863006591797 99.78659057617188 114.11954498291016 100.18798065185547 C 116.5423583984375 101.71003723144531 117.23969268798828 103.91474914550781 120.43704223632812 101.81147766113281"/>
    <path stroke-width="0" fill="rgb(112, 100, 215)" opacity="0.6160281" stroke="rgb(0, 0, 0)" stroke-opacity="0.0" stroke-linecap="round" stroke-linejoin="round" d="M 333.5168762207031 203.83798217773438 C 332.46044921875 206.4642333984375 330.9997863769531 212.88720703125 328.0488586425781 203.2094268798828 C 326.3480529785156 210.13742065429688 327.4839172363281 213.67630004882812 329.9106140136719 203.521240234375 C 329.6546325683594 202.67672729492188 330.06060791015625 200.4037628173828 337.5019836425781 198.87448120117188 C 334.5433044433594 200.67141723632812 332.6088562011719 206.5782470703125 333.5168762207031 203.83798217773438"/>
    <path stroke-width="0" fill="rgb(90, 91, 160)" opacity="0.38566083" stroke="rgb(0, 0, 0)" stroke-opacity="0.0" stroke-linecap="round" stroke-linejoin="round" d="M 336.75030517578125 264.65301513671875 C 337.2724304199219 273.4488830566406 331.39703369140625 269.7471008300781 323.31842041015625 275.244140625 C 314.8394470214844 276.83978271484375 316.2217712402344 275.6555480957031 328.3414306640625 269.2215881347656 C 322.9852600097656 255.50927734375 319.9875183105469 257.8696594238281 330.25848388671875 259.8716735839844 C 334.2798156738281 255.71652221679688 333.9095764160156 260.1933288574219 336.75030517578125 264.65301513671875"/>
    <path stroke-width="0" fill="rgb(101, 107, 155)" opacity="0.014863594" stroke="rgb(0, 0, 0)" stroke-opacity="0.0" stroke-linecap="round" stroke-linejoin="round" d="M 161.3621063232422 207.20849609375 C 164.1657257080078 206.74972534179688 161.54092407226562 208.47056579589844 157.90286254882812 206.1940460205078 C 152.72451782226562 207.23687744140625 150.01560974121094 205.55299377441406 150.57583618164062 201.3295135498047 C 149.4409942626953 195.49562072753906 150.57679748535156 194.78053283691406 154.7899932861328 196.9016876220703 C 159.31858825683594 195.8565673828125 160.5388946533203 200.0703582763672 161.3621063232422 207.20849609375"/>
    <path stroke-width="0" fill="rgb(66, 97, 181)" opacity="0.32739496" stroke="rgb(0, 0, 0)" stroke-opacity="0.0" stroke-linecap="round" stroke-linejoin="round" d="M 194.55274963378906 249.28973388671875 C 195.1984100341797 246.56399536132812 188.60328674316406 246.5742645263672 187.03919982910156 245.69143676757812 C 192.32955932617188 246.74867248535156 189.62954711914062 244.32408142089844 178.14068603515625 246.61248779296875 C 176.69036865234375 239.754150390625 177.20176696777344 239.9077911376953 189.6255645751953 246.13671875 C 193.16310119628906 242.06993103027344 193.88760375976562 243.57431030273438 194.55274963378906 249.28973388671875"/>
    <path stroke-width="0" fill="rgb(174, 140, 89)" opacity="-0.0010533433" stroke="rgb(0, 0, 0)" stroke-opacity="0.0" stroke-linecap="round" stroke-linejoin="round" d="M 88.00486755371094 496.167724609375 C 90.68810272216797 498.966552734375 87.42536926269531 505.02301025390625 88.67382049560547 513.7864990234375 C 79.33045959472656 513.134521484375 79.92244720458984 512.6192016601562 84.26152801513672 503.3516845703125 C 78.62342834472656 488.7586364746094 77.05253601074219 485.1180114746094 81.93700408935547 489.4515075683594 C 90.2583999633789 489.44512939453125 91.25534057617188 493.9589538574219 88.00486755371094 496.167724609375"/>
    <path stroke-width="0" fill="rgb(87, 67, 114)" opacity="0.17905974" stroke="rgb(0, 0, 0)" stroke-opacity="0.0" stroke-linecap="round" stroke-linejoin="round" d="M 3.867377281188965 -5.37195348739624 C 1.48492431640625 -2.023589611053467 -1.6770195960998535 1.076996922492981 -4.5545854568481445 3.124878168106079 C -2.677528142929077 7.805291652679443 -5.555568695068359 4.721656799316406 -6.636660575866699 0.7309714555740356 C -5.565146446228027 -3.2681753635406494 -2.6369433403015137 -6.196378707885742 1.3634140491485596 -7.2682881355285645 C 5.387521743774414 -6.204288959503174 8.615775108337402 -3.428757905960083 3.867377281188965 -5.37195348739624"/>
    <path stroke-width="0" fill="rgb(199, 143, 132)" opacity="0.22842574" stroke="rgb(0, 0, 0)" stroke-opacity="0.0" stroke-linecap="round" stroke-linejoin="round" d="M 250.3052520751953 83.52848052978516 C 251.14109802246094 88.80174255371094 248.01698303222656 93.2139892578125 242.34140014648438 89.1607437133789 C 235.70811462402344 91.46976470947266 232.44985961914062 87.27033996582031 233.9345703125 79.7849349975586 C 232.1887969970703 75.4286117553711 237.24346923828125 72.47677612304688 242.7016143798828 71.40123748779297 C 246.7734375 72.259033203125 250.34922790527344 76.30694580078125 250.3052520751953 83.52848052978516"/>
    <path stroke-width="0" fill="rgb(96, 108, 154)" opacity="0.57347554" stroke="rgb(0, 0, 0)" stroke-opacity="0.0" stroke-linecap="round" stroke-linejoin="round" d="M 492.0105895996094 216.84388732910156 C 491.8233337402344 219.17893981933594 486.87115478515625 217.06878662109375 487.621826171875 219.0613555908203 C 487.3224792480469 222.79440307617188 486.393310546875 219.21839904785156 485.65643310546875 213.7140350341797 C 483.6920166015625 212.23219299316406 489.94415283203125 212.8187713623047 487.7110900878906 216.14971923828125 C 488.7949523925781 216.1503448486328 489.221923828125 217.50054931640625 492.0105895996094 216.84388732910156"/>
    <path stroke-width="0" fill="rgb(80, 145, 22)" opacity="-0.04757029" stroke="rgb(0, 0, 0)" stroke-opacity="0.0" stroke-linecap="round" stroke-linejoin="round" d="M 417.5281677246094 240.080078125 C 410.4134826660156 239.00230407714844 408.41851806640625 238.90309143066406 410.27581787109375 249.3599853515625 C 402.1398620605469 250.04942321777344 400.6455993652344 245.0852508544922 403.2102966308594 234.79962158203125 C 396.8789367675781 228.83702087402344 395.5279541015625 224.0011444091797 402.9718933105469 227.2362518310547 C 408.20654296875 232.26937866210938 411.4125671386719 234.4372100830078 417.5281677246094 240.080078125"/>
    <path stroke-width="0" fill="rgb(131, 64, 302)" opacity="0.3008152" stroke="rgb(0, 0, 0)" stroke-opacity="0.0" stroke-linecap="round" stroke-linejoin="round" d="M 152.4953155517578 371.64483642578125 C 145.1355438232422 369.919677734375 149.216796875 377.1518249511719 150.91380310058594 381.3457336425781 C 148.1221160888672 386.9980163574219 146.22140502929688 378.7582092285156 145.67626953125 373.3244323730469 C 140.8363494873047 367.9012145996094 144.4091033935547 367.7515869140625 146.42857360839844 376.9673156738281 C 151.9603729248047 384.2662048339844 162.09922790527344 384.1279602050781 152.4953155517578 371.64483642578125"/>
  </g>
</svg>
