<?xml version="1.0" ?>
<svg xmlns="http://www.w3.org/2000/svg" version="1.1" width="512" height="512">
  <defs/>
  <g>
    <path stroke-width="0" fill="rgb(111, 83, 130)" opacity="0.7470955" stroke="rgb(139, 182, 153)" stroke-opacity="1.0" stroke-linecap="round" stroke-linejoin="round" d="M 326.2666015625 424.8528137207031 C 358.7123718261719 478.5252380371094 358.2042236328125 497.6263732910156 192.8353729248047 486.2000732421875 C 60.63439178466797 377.54052734375 58.779361724853516 354.8418273925781 -38.649200439453125 94.33567810058594 C -55.74998092651367 24.691083908081055 -54.507442474365234 -3.2493443489074707 30.798276901245117 -11.697941780090332 C 242.77938842773438 163.88539123535156 254.1327362060547 169.9561309814453 326.2666015625 424.8528137207031"/>
    <path stroke-width="0" fill="rgb(80, 128, 145)" opacity="1.0447658" stroke="rgb(108, 164, 111)" stroke-opacity="1.0" stroke-linecap="round" stroke-linejoin="round" d="M 562.20458984375 103.22358703613281 C 517.998046875 394.8426818847656 443.49981689453125 376.4795837402344 301.61834716796875 376.92987060546875 C 144.970947265625 341.9989929199219 141.52120971679688 312.64447021484375 -50.645145416259766 2.504774808883667 C -5.70611047744751 -61.47223663330078 18.957836151123047 -59.51573944091797 446.24822998046875 -50.592098236083984 C 535.3020629882812 -48.75304412841797 556.3040771484375 -60.0816650390625 562.20458984375 103.22358703613281"/>
    <path stroke-width="0" fill="rgb(116, 172, 103)" opacity="1.0012621" stroke="rgb(245, 97, 201)" stroke-opacity="1.0" stroke-linecap="round" stroke-linejoin="round" d="M 294.0500183105469 525.9038696289062 C 290.2972106933594 570.1263427734375 265.1747741699219 573.4346313476562 -73.39730072021484 555.06591796875 C -78.9822769165039 469.8158264160156 -51.8045539855957 419.02099609375 -46.28164291381836 272.57049560546875 C -56.931453704833984 163.62477111816406 -81.46731567382812 128.18165588378906 -9.422873497009277 109.26084899902344 C 144.1797332763672 188.2195587158203 153.69688415527344 194.614013671875 294.0500183105469 525.9038696289062"/>
    <path stroke-width="0" fill="rgb(117, 103, 156)" opacity="1.0189635" stroke="rgb(144, 236, 18)" stroke-opacity="1.0" stroke-linecap="round" stroke-linejoin="round" d="M 557.802001953125 499.8588562011719 C 564.6090698242188 540.8244018554688 570.5844116210938 555.1404418945312 294.6038513183594 562.6273803710938 C 222.50015258789062 579.4329833984375 199.13827514648438 604.555419921875 221.9584197998047 378.19140625 C 307.1372985839844 239.3782958984375 305.7987976074219 184.16490173339844 544.5913696289062 149.5437469482422 C 576.6678466796875 265.0323486328125 560.8159790039062 308.91241455078125 557.802001953125 499.8588562011719"/>
    <path stroke-width="0" fill="rgb(203, 201, 278)" opacity="0.9064632" stroke="rgb(5, 212, 198)" stroke-opacity="1.0" stroke-linecap="round" stroke-linejoin="round" d="M 368.1419372558594 528.9013061523438 C 364.5356140136719 503.1345520019531 365.5629577636719 512.2237548828125 316.7596435546875 547.1318969726562 C 400.1087341308594 520.466552734375 321.5714111328125 549.8779907226562 338.2599792480469 487.8506164550781 C 335.3031005859375 494.496826171875 328.2512512207031 485.9686279296875 339.0857849121094 501.4848937988281 C 349.5514831542969 508.1221923828125 329.54571533203125 517.7428588867188 368.1419372558594 528.9013061523438"/>
    <path stroke-width="0" fill="rgb(246, 281, 257)" opacity="0.8942184" stroke="rgb(249, 203, 117)" stroke-opacity="1.0" stroke-linecap="round" stroke-linejoin="round" d="M 356.4354553222656 488.43792724609375 C 280.1479187011719 548.7539672851562 354.5262756347656 531.9271240234375 342.24737548828125 493.8444519042969 C 346.74993896484375 501.3023986816406 347.96075439453125 490.3573303222656 345.3879699707031 502.8003845214844 C 337.4293518066406 491.3023376464844 367.474853515625 467.01324462890625 313.2231140136719 475.09710693359375 C 366.1328125 455.7128601074219 411.49761962890625 505.0635986328125 356.4354553222656 488.43792724609375"/>
    <path stroke-width="0" fill="rgb(274, 258, 279)" opacity="0.8251326" stroke="rgb(133, 105, 67)" stroke-opacity="1.0" stroke-linecap="round" stroke-linejoin="round" d="M 385.58099365234375 471.6072998046875 C 362.79486083984375 521.5361938476562 235.6705780029297 573.369873046875 252.66497802734375 635.0318603515625 C 284.7398376464844 541.4782104492188 294.0196228027344 542.1718139648438 341.7505798339844 550.7498779296875 C 347.6916809082031 536.1402587890625 344.36590576171875 524.0474243164062 330.943603515625 511.3992614746094 C 352.32659912109375 445.9058532714844 307.33203125 470.1826171875 385.58099365234375 471.6072998046875"/>
    <path stroke-width="0" fill="rgb(287, 248, 294)" opacity="1.1252149" stroke="rgb(116, 144, 4)" stroke-opacity="1.0" stroke-linecap="round" stroke-linejoin="round" d="M 369.33929443359375 88.469482421875 C 370.0793762207031 90.67765808105469 247.28123474121094 70.27613067626953 379.4588623046875 73.57424926757812 C 374.79144287109375 158.70321655273438 363.6554260253906 28.78131103515625 345.488037109375 97.95755004882812 C 390.8409423828125 109.95777893066406 362.77728271484375 55.81535339355469 321.648193359375 68.29664611816406 C 381.3507080078125 27.553659439086914 325.12286376953125 114.70609283447266 369.33929443359375 88.469482421875"/>
    <path stroke-width="0" fill="rgb(89, 143, 204)" opacity="1.0019568" stroke="rgb(156, 157, 240)" stroke-opacity="1.0" stroke-linecap="round" stroke-linejoin="round" d="M 385.8512878417969 489.4281311035156 C 394.84893798828125 529.7369995117188 383.0057067871094 515.0671997070312 352.10986328125 585.0706176757812 C 435.3930358886719 528.8359375 286.1678771972656 514.8789672851562 322.8354187011719 479.2597961425781 C 308.3858337402344 494.2854919433594 383.5899658203125 490.0157470703125 385.1947937011719 489.3514709472656 C 383.8518371582031 453.1788635253906 449.1891174316406 453.9466247558594 385.8512878417969 489.4281311035156"/>
    <path stroke-width="0" fill="rgb(22, 25, 22)" opacity="0.66643465" stroke="rgb(91, 111, 177)" stroke-opacity="1.0" stroke-linecap="round" stroke-linejoin="round" d="M 350.2040100097656 74.10687255859375 C 355.9679870605469 49.880313873291016 377.0267333984375 75.69706726074219 357.0243225097656 91.2799072265625 C 350.71484375 135.2057647705078 382.6180114746094 50.869693756103516 340.7424621582031 61.263885498046875 C 363.4722900390625 33.32544708251953 354.358642578125 102.13114929199219 371.7418212890625 77.12031555175781 C 252.5420684814453 69.94985961914062 406.170166015625 80.18529510498047 350.2040100097656 74.10687255859375"/>
    <path stroke-width="0" fill="rgb(125, 136, 178)" opacity="0.874914" stroke="rgb(170, 171, 53)" stroke-opacity="1.0" stroke-linecap="round" stroke-linejoin="round" d="M 355.30780029296875 485.20794677734375 C 335.9031066894531 455.68292236328125 370.5618591308594 543.1676635742188 336.26690673828125 621.84814453125 C 309.8591613769531 480.3551940917969 339.91900634765625 501.3092041015625 307.66888427734375 500.1802062988281 C 294.4142150878906 491.0166015625 296.1874084472656 490.7207946777344 356.0256042480469 480.217041015625 C 337.6941833496094 479.72576904296875 415.1451110839844 476.8434753417969 355.30780029296875 485.20794677734375"/>
    <path stroke-width="0" fill="rgb(86, 110, 147)" opacity="1.0127981" stroke="rgb(80, 92, 145)" stroke-opacity="1.0" stroke-linecap="round" stroke-linejoin="round" d="M 287.91021728515625 509.36517333984375 C 2.7278099060058594 258.2287902832031 86.91390991210938 185.4735107421875 85.15735626220703 203.827880859375 C -61.57905578613281 205.54580688476562 -59.264625549316406 192.60804748535156 -38.10429763793945 128.58413696289062 C -40.78221893310547 64.58954620361328 -46.02934265136719 48.192596435546875 -9.519043922424316 -6.87450647354126 C 286.3291320800781 -419.0235595703125 416.01580810546875 75.74132537841797 287.91021728515625 509.36517333984375"/>
    <path stroke-width="0" fill="rgb(71, 73, 64)" opacity="0.85932386" stroke="rgb(252, 26, 53)" stroke-opacity="1.0" stroke-linecap="round" stroke-linejoin="round" d="M 347.81463623046875 443.9915466308594 C 365.20257568359375 452.3372497558594 316.3804016113281 456.1593933105469 367.133056640625 419.4134521484375 C 294.94775390625 413.0577392578125 325.59124755859375 438.0935974121094 356.0760498046875 440.52215576171875 C 296.6670227050781 396.51141357421875 310.3507080078125 509.8412780761719 348.66357421875 363.32177734375 C 324.524169921875 483.9709777832031 409.2108154296875 367.9292297363281 347.81463623046875 443.9915466308594"/>
    <path stroke-width="0" fill="rgb(251, 271, 263)" opacity="1.0995498" stroke="rgb(166, 64, 118)" stroke-opacity="1.0" stroke-linecap="round" stroke-linejoin="round" d="M 329.74468994140625 241.71180725097656 C 387.083740234375 200.16888427734375 391.1333312988281 181.12142944335938 360.1102600097656 189.80809020996094 C 325.95269775390625 271.2181396484375 341.73895263671875 210.638671875 339.69219970703125 191.5380401611328 C 339.5186462402344 120.86302185058594 348.76422119140625 107.83269500732422 355.7668762207031 179.17138671875 C 361.9571228027344 188.4366912841797 347.3739929199219 223.2811737060547 329.74468994140625 241.71180725097656"/>
    <path stroke-width="0" fill="rgb(40, 48, 74)" opacity="0.5623175" stroke="rgb(40, 28, 167)" stroke-opacity="1.0" stroke-linecap="round" stroke-linejoin="round" d="M 316.1440124511719 421.84967041015625 C 452.7550964355469 461.46783447265625 432.3416442871094 405.28155517578125 361.2791748046875 429.8299560546875 C 370.37115478515625 360.14349365234375 349.8577880859375 430.1309814453125 318.7014465332031 387.7078857421875 C 316.8540344238281 422.1527099609375 325.1555480957031 393.4849548339844 394.2561340332031 371.0787353515625 C 332.1573486328125 419.69879150390625 402.8448181152344 436.7518005371094 316.1440124511719 421.84967041015625"/>
    <path stroke-width="0" fill="rgb(247, 244, 220)" opacity="0.8283412" stroke="rgb(50, 94, 209)" stroke-opacity="1.0" stroke-linecap="round" stroke-linejoin="round" d="M 421.4942321777344 433.55963134765625 C 259.6455078125 432.27105712890625 410.0614013671875 483.87408447265625 339.7395935058594 450.5233459472656 C 439.32220458984375 409.55010986328125 362.42767333984375 397.1232604980469 374.2509460449219 439.3492126464844 C 445.6536560058594 447.5195007324219 385.2709045410156 431.3128967285156 386.84228515625 465.810302734375 C 385.6109924316406 429.2071228027344 411.50238037109375 458.4822082519531 421.4942321777344 433.55963134765625"/>
    <path stroke-width="0" fill="rgb(272, 283, 274)" opacity="1.0665007" stroke="rgb(213, 24, 248)" stroke-opacity="1.0" stroke-linecap="round" stroke-linejoin="round" d="M 430.6444396972656 435.3750915527344 C 275.3581237792969 431.5696105957031 302.1477966308594 441.0486755371094 309.83953857421875 427.8028564453125 C 319.04638671875 416.77435302734375 284.811767578125 415.9903259277344 338.0643615722656 416.1375427246094 C 354.0634460449219 390.8983154296875 264.7004089355469 418.0263671875 303.07769775390625 449.56097412109375 C 317.31463623046875 433.4108581542969 290.3804931640625 450.22796630859375 430.6444396972656 435.3750915527344"/>
    <path stroke-width="0" fill="rgb(57, 67, 88)" opacity="0.72418797" stroke="rgb(249, 154, 188)" stroke-opacity="1.0" stroke-linecap="round" stroke-linejoin="round" d="M 344.3211975097656 196.07298278808594 C 389.6346740722656 170.47425842285156 305.1940612792969 205.7808837890625 364.56549072265625 198.1952362060547 C 369.7536315917969 193.0844268798828 363.3299560546875 185.89991760253906 355.9313659667969 210.24623107910156 C 364.33282470703125 209.1765899658203 375.41168212890625 193.5878143310547 337.6382141113281 249.39031982421875 C 348.1551513671875 233.599853515625 366.3780212402344 218.04190063476562 344.3211975097656 196.07298278808594"/>
    <path stroke-width="0" fill="rgb(24, 52, 57)" opacity="0.8947063" stroke="rgb(72, 30, 75)" stroke-opacity="1.0" stroke-linecap="round" stroke-linejoin="round" d="M 388.1639404296875 362.7150573730469 C 337.1643981933594 349.47406005859375 315.4747314453125 331.6376037597656 337.6319274902344 360.44268798828125 C 314.4554443359375 331.63299560546875 377.715576171875 317.2601013183594 329.77655029296875 344.37335205078125 C 315.1373596191406 328.3019104003906 333.6974792480469 290.542724609375 362.239501953125 312.4234619140625 C 357.7760314941406 365.080322265625 400.70703125 290.1777648925781 388.1639404296875 362.7150573730469"/>
    <path stroke-width="0" fill="rgb(267, 245, 264)" opacity="0.7253248" stroke="rgb(81, 105, 16)" stroke-opacity="1.0" stroke-linecap="round" stroke-linejoin="round" d="M 361.98480224609375 376.0781555175781 C 333.46783447265625 321.7358703613281 380.2808837890625 327.1936340332031 330.01708984375 316.1708068847656 C 328.6248779296875 387.2981872558594 313.9013671875 356.604736328125 339.8970642089844 332.273193359375 C 338.34381103515625 291.536376953125 360.3921203613281 356.291259765625 364.19793701171875 328.2647399902344 C 394.6281433105469 363.19873046875 351.6052551269531 321.1734313964844 361.98480224609375 376.0781555175781"/>
    <path stroke-width="0" fill="rgb(15, 5, 77)" opacity="0.64367604" stroke="rgb(144, 67, 133)" stroke-opacity="1.0" stroke-linecap="round" stroke-linejoin="round" d="M 361.3588562011719 469.2229309082031 C 351.3605651855469 402.9349060058594 365.16497802734375 478.0992126464844 348.3180847167969 450.390869140625 C 372.9546203613281 460.9764709472656 330.3746643066406 469.6318359375 424.0267028808594 465.7381896972656 C 385.43145751953125 483.0272521972656 342.0440673828125 460.6070861816406 358.3835144042969 469.0501708984375 C 177.3348388671875 471.566162109375 435.1197204589844 479.8212585449219 361.3588562011719 469.2229309082031"/>
    <path stroke-width="0" fill="rgb(92, 55, 44)" opacity="0.7504278" stroke="rgb(146, 236, 81)" stroke-opacity="1.0" stroke-linecap="round" stroke-linejoin="round" d="M 352.1664123535156 141.26730346679688 C 358.58453369140625 157.24212646484375 318.5589599609375 217.4065399169922 364.5715637207031 149.76995849609375 C 385.0592956542969 149.66957092285156 336.68133544921875 183.5885772705078 338.7567138671875 156.03260803222656 C 334.5843811035156 189.94361877441406 340.9587707519531 185.66073608398438 366.3720397949219 189.28489685058594 C 335.5588073730469 167.7530975341797 324.3675231933594 220.86268615722656 352.1664123535156 141.26730346679688"/>
    <path stroke-width="0" fill="rgb(270, 276, 259)" opacity="1.1595798" stroke="rgb(33, 182, 73)" stroke-opacity="1.0" stroke-linecap="round" stroke-linejoin="round" d="M 344.8465881347656 263.828369140625 C 315.9329528808594 221.58108520507812 338.43310546875 236.42822265625 344.6000061035156 253.2262420654297 C 392.294189453125 212.6354217529297 383.4916076660156 244.7927703857422 331.7486877441406 264.1090087890625 C 387.71240234375 269.54339599609375 327.2073669433594 238.5860137939453 372.3079833984375 256.3408203125 C 319.14764404296875 262.2803039550781 332.9423828125 286.41912841796875 344.8465881347656 263.828369140625"/>
    <path stroke-width="0" fill="rgb(81, -3, 44)" opacity="0.5806662" stroke="rgb(172, 68, 187)" stroke-opacity="1.0" stroke-linecap="round" stroke-linejoin="round" d="M 372.01641845703125 175.16015625 C 380.2205505371094 231.01925659179688 374.1099548339844 192.84738159179688 360.38360595703125 201.74282836914062 C 389.4465637207031 208.79299926757812 344.8803405761719 183.60244750976562 367.6017150878906 199.72569274902344 C 385.0792541503906 230.38818359375 380.159423828125 219.2395477294922 376.63848876953125 209.11141967773438 C 363.82354736328125 207.34048461914062 372.55328369140625 198.68226623535156 372.01641845703125 175.16015625"/>
    <path stroke-width="0" fill="rgb(246, 264, 283)" opacity="1.0643898" stroke="rgb(63, 146, 150)" stroke-opacity="1.0" stroke-linecap="round" stroke-linejoin="round" d="M 394.3846740722656 366.2675476074219 C 375.3067932128906 343.49322509765625 352.36309814453125 334.9222717285156 403.2583312988281 391.8277587890625 C 356.7774963378906 353.6997375488281 343.5205993652344 411.78668212890625 365.0024108886719 343.032958984375 C 415.8535461425781 380.1387939453125 351.6335754394531 319.6910095214844 382.5325012207031 343.57659912109375 C 387.91864013671875 288.9659423828125 350.12005615234375 359.2048034667969 394.3846740722656 366.2675476074219"/>
    <path stroke-width="0" fill="rgb(275, 281, 266)" opacity="0.81407124" stroke="rgb(56, 242, 114)" stroke-opacity="1.0" stroke-linecap="round" stroke-linejoin="round" d="M 376.694091796875 337.0555114746094 C 345.68115234375 313.83111572265625 378.0433349609375 320.55291748046875 332.6390380859375 357.0052185058594 C 321.679443359375 256.7187805175781 344.8712463378906 318.3445129394531 347.8691101074219 255.76699829101562 C 372.4078063964844 300.416259765625 292.6728210449219 340.6866149902344 354.836181640625 287.71142578125 C 374.967529296875 211.81150817871094 381.1869201660156 275.0130615234375 376.694091796875 337.0555114746094"/>
    <path stroke-width="0" fill="rgb(267, 259, 231)" opacity="1.0413489" stroke="rgb(178, 75, 207)" stroke-opacity="1.0" stroke-linecap="round" stroke-linejoin="round" d="M 316.68719482421875 517.3897094726562 C 346.5790100097656 426.93304443359375 320.56524658203125 492.62408447265625 311.2659912109375 503.31494140625 C 306.9988098144531 560.4356689453125 270.9251708984375 516.1050415039062 314.1278076171875 528.4890747070312 C 297.6029052734375 516.9764404296875 308.447998046875 520.5469360351562 309.3466796875 511.7627258300781 C 320.134033203125 508.400390625 303.4872131347656 535.6444091796875 316.68719482421875 517.3897094726562"/>
    <path stroke-width="0" fill="rgb(275, 280, 266)" opacity="1.0626774" stroke="rgb(184, 127, 243)" stroke-opacity="1.0" stroke-linecap="round" stroke-linejoin="round" d="M 350.9097900390625 65.17274475097656 C 393.29449462890625 47.01910400390625 315.0526428222656 55.35372543334961 337.1249694824219 59.71018600463867 C 312.1136169433594 89.23688507080078 359.1282958984375 62.927581787109375 341.8138122558594 65.70638275146484 C 370.2774963378906 57.0625114440918 339.04669189453125 23.364986419677734 359.53533935546875 -13.254260063171387 C 348.2632141113281 87.39444732666016 404.4735107421875 75.14945220947266 350.9097900390625 65.17274475097656"/>
    <path stroke-width="0" fill="rgb(256, 276, 257)" opacity="1.0460871" stroke="rgb(108, 154, 4)" stroke-opacity="1.0" stroke-linecap="round" stroke-linejoin="round" d="M 394.4912109375 403.14752197265625 C 410.2840270996094 440.3509216308594 393.70318603515625 431.20343017578125 410.1686096191406 414.5271911621094 C 368.5606994628906 415.675048828125 372.0264892578125 415.4713439941406 376.27923583984375 405.53564453125 C 398.24163818359375 384.4906311035156 412.2673034667969 416.38922119140625 382.86248779296875 382.3306884765625 C 399.3675537109375 397.9906311035156 341.49200439453125 415.86041259765625 394.4912109375 403.14752197265625"/>
    <path stroke-width="0" fill="rgb(94, 125, 135)" opacity="0.75045013" stroke="rgb(168, 73, 157)" stroke-opacity="1.0" stroke-linecap="round" stroke-linejoin="round" d="M 337.5080261230469 37.8514404296875 C 325.7315673828125 53.79368591308594 320.3468322753906 50.77831268310547 331.144287109375 50.450565338134766 C 347.5917053222656 54.38019943237305 342.47540283203125 58.44573211669922 332.8938293457031 13.7583589553833 C 342.93658447265625 84.05859375 349.0220031738281 53.412109375 329.2837829589844 52.155792236328125 C 342.3883972167969 41.2796630859375 353.85504150390625 46.62553405761719 337.5080261230469 37.8514404296875"/>
    <path stroke-width="0" fill="rgb(258, 263, 248)" opacity="1.0973247" stroke="rgb(34, 76, 145)" stroke-opacity="1.0" stroke-linecap="round" stroke-linejoin="round" d="M 419.1590576171875 480.87255859375 C 431.37799072265625 504.8702392578125 450.8057556152344 521.4476318359375 408.88751220703125 506.69512939453125 C 406.0889892578125 480.7857971191406 362.2413330078125 490.0124206542969 411.72320556640625 485.47222900390625 C 421.4023742675781 510.8524475097656 374.9609680175781 522.8638305664062 427.8265686035156 514.3484497070312 C 408.21673583984375 540.6681518554688 399.4788513183594 540.24609375 419.1590576171875 480.87255859375"/>
    <path stroke-width="0" fill="rgb(213, 231, 211)" opacity="0.9361324" stroke="rgb(146, 166, 166)" stroke-opacity="1.0" stroke-linecap="round" stroke-linejoin="round" d="M 333.522705078125 386.9052734375 C 379.6400146484375 371.6777648925781 324.24456787109375 290.1407165527344 370.0102844238281 404.3830871582031 C 316.40386962890625 345.0857849121094 353.88885498046875 379.88641357421875 346.33880615234375 346.8804931640625 C 374.0189514160156 359.810546875 342.0276794433594 321.9511413574219 317.51873779296875 388.03363037109375 C 309.4916076660156 376.80389404296875 331.4824523925781 381.3745422363281 333.522705078125 386.9052734375"/>
    <path stroke-width="0" fill="rgb(261, 268, 282)" opacity="1.0708989" stroke="rgb(228, 93, 111)" stroke-opacity="1.0" stroke-linecap="round" stroke-linejoin="round" d="M 374.8907775878906 400.06549072265625 C 396.7786865234375 402.6193542480469 352.4918212890625 399.7206726074219 376.0006408691406 383.04278564453125 C 396.2214050292969 395.4661865234375 405.1176452636719 399.3102111816406 364.15625 369.4288024902344 C 405.7322998046875 415.8850402832031 361.741943359375 389.54864501953125 385.3518981933594 408.8953857421875 C 389.7205505371094 371.4095764160156 356.46405029296875 420.62799072265625 374.8907775878906 400.06549072265625"/>
    <path stroke-width="0" fill="rgb(26, 28, -34)" opacity="0.7595843" stroke="rgb(205, 179, 25)" stroke-opacity="1.0" stroke-linecap="round" stroke-linejoin="round" d="M 342.623291015625 247.50840759277344 C 346.8140869140625 240.3462677001953 395.0438232421875 264.4016418457031 354.24298095703125 281.35784912109375 C 350.18316650390625 196.81068420410156 362.2003173828125 147.05474853515625 357.8222351074219 234.5653076171875 C 327.1664123535156 239.35337829589844 348.4718017578125 240.90296936035156 352.9554748535156 243.4425811767578 C 378.9390869140625 204.9255828857422 358.4655456542969 241.13536071777344 342.623291015625 247.50840759277344"/>
    <path stroke-width="0" fill="rgb(257, 264, 253)" opacity="1.0736686" stroke="rgb(182, 254, 38)" stroke-opacity="1.0" stroke-linecap="round" stroke-linejoin="round" d="M 391.19921875 476.50018310546875 C 393.7933654785156 517.5123901367188 430.31292724609375 477.842041015625 379.3724670410156 544.0725708007812 C 380.0926513671875 513.611083984375 372.9058837890625 496.79095458984375 385.1468505859375 537.4976806640625 C 398.59600830078125 537.6722412109375 403.4391174316406 534.2794799804688 391.7425842285156 540.5307006835938 C 402.4522399902344 476.77801513671875 384.86279296875 522.7975463867188 391.19921875 476.50018310546875"/>
    <path stroke-width="0" fill="rgb(283, 266, 262)" opacity="0.99323946" stroke="rgb(41, 156, 31)" stroke-opacity="1.0" stroke-linecap="round" stroke-linejoin="round" d="M 355.67138671875 47.085365295410156 C 360.13629150390625 58.22257614135742 342.6822814941406 47.636531829833984 335.2875671386719 42.817325592041016 C 353.74298095703125 78.7280044555664 335.79962158203125 21.97565269470215 374.4508056640625 76.75273132324219 C 394.1546630859375 68.724365234375 350.0785827636719 40.45542907714844 354.25164794921875 46.65127182006836 C 327.5822448730469 42.63053894042969 358.5575256347656 48.35966491699219 355.67138671875 47.085365295410156"/>
    <path stroke-width="0" fill="rgb(221, 250, 234)" opacity="1.2935839" stroke="rgb(205, 145, 103)" stroke-opacity="1.0" stroke-linecap="round" stroke-linejoin="round" d="M 343.30682373046875 137.68299865722656 C 347.804443359375 116.31682586669922 392.8514099121094 174.57179260253906 357.7613830566406 125.42320251464844 C 327.03607177734375 133.26162719726562 337.3999328613281 82.60144805908203 373.60418701171875 103.08131408691406 C 347.2191467285156 94.40933227539062 361.07159423828125 133.28567504882812 355.9281921386719 139.8909912109375 C 352.7380676269531 104.24588012695312 364.9664611816406 118.9657974243164 343.30682373046875 137.68299865722656"/>
    <path stroke-width="0" fill="rgb(95, 125, 107)" opacity="0.85464925" stroke="rgb(177, 115, 184)" stroke-opacity="1.0" stroke-linecap="round" stroke-linejoin="round" d="M 355.24017333984375 241.41978454589844 C 334.6572265625 248.0767059326172 389.4772644042969 215.65354919433594 353.6166076660156 224.5451202392578 C 395.47857666015625 291.8221130371094 372.9998474121094 249.30172729492188 377.2925720214844 238.88478088378906 C 376.7576599121094 246.55194091796875 366.7573547363281 217.96875 360.0276184082031 222.18360900878906 C 372.81048583984375 242.5343780517578 342.6632995605469 210.28668212890625 355.24017333984375 241.41978454589844"/>
    <path stroke-width="0" fill="rgb(72, -11, 0)" opacity="0.9054092" stroke="rgb(248, 218, 2)" stroke-opacity="1.0" stroke-linecap="round" stroke-linejoin="round" d="M 306.71673583984375 506.01129150390625 C 313.4076843261719 496.9012451171875 315.0953063964844 540.0394287109375 312.96923828125 557.7781982421875 C 294.13604736328125 533.7328491210938 288.7364501953125 514.6607666015625 318.3699035644531 469.2473449707031 C 287.5112609863281 504.7801818847656 329.2308654785156 486.1435852050781 318.0743408203125 494.459716796875 C 262.1357116699219 491.76483154296875 259.69598388671875 531.6741333007812 306.71673583984375 506.01129150390625"/>
    <path stroke-width="0" fill="rgb(268, 270, 250)" opacity="1.0692124" stroke="rgb(186, 43, 132)" stroke-opacity="1.0" stroke-linecap="round" stroke-linejoin="round" d="M 304.5813293457031 517.5936279296875 C 320.5044250488281 490.1958312988281 255.55296325683594 536.1444091796875 293.5308532714844 480.7201843261719 C 316.902099609375 523.74267578125 339.7802734375 473.32940673828125 297.0577087402344 492.05596923828125 C 317.4988708496094 509.3753662109375 332.455078125 474.75335693359375 298.5599060058594 506.5859375 C 307.2227783203125 492.0635070800781 276.100830078125 515.193359375 304.5813293457031 517.5936279296875"/>
    <path stroke-width="0" fill="rgb(260, 282, 268)" opacity="0.9498444" stroke="rgb(50, 4, 202)" stroke-opacity="1.0" stroke-linecap="round" stroke-linejoin="round" d="M 367.716064453125 245.83338928222656 C 355.0842590332031 259.7156066894531 336.4322814941406 256.96405029296875 375.52874755859375 240.80255126953125 C 367.0975036621094 240.6074981689453 327.79693603515625 237.67103576660156 326.9010925292969 293.9339599609375 C 333.152099609375 259.0440673828125 335.19091796875 241.07339477539062 361.1087951660156 214.00714111328125 C 374.5027770996094 229.06382751464844 377.0457763671875 226.530517578125 367.716064453125 245.83338928222656"/>
    <path stroke-width="0" fill="rgb(235, 250, 281)" opacity="1.1632239" stroke="rgb(88, 236, 179)" stroke-opacity="1.0" stroke-linecap="round" stroke-linejoin="round" d="M 343.025146484375 139.4427947998047 C 377.62884521484375 189.3797607421875 345.3653869628906 163.43853759765625 357.88330078125 84.30481719970703 C 376.8216247558594 85.84603118896484 354.89691162109375 120.17032623291016 373.13262939453125 141.26390075683594 C 334.5020446777344 102.51886749267578 341.7109069824219 146.06350708007812 364.17022705078125 116.58644104003906 C 324.008544921875 96.67192077636719 384.37384033203125 149.87835693359375 343.025146484375 139.4427947998047"/>
    <path stroke-width="0" fill="rgb(285, 253, 300)" opacity="1.0025295" stroke="rgb(41, 158, 147)" stroke-opacity="1.0" stroke-linecap="round" stroke-linejoin="round" d="M 391.0546569824219 425.90997314453125 C 416.13812255859375 421.9206848144531 417.1664123535156 468.34234619140625 422.5599670410156 413.6945495605469 C 403.7549743652344 438.8178405761719 410.6897277832031 384.161865234375 396.1394958496094 402.44488525390625 C 397.447265625 414.28875732421875 427.6982727050781 429.6255798339844 396.7326354980469 409.467041015625 C 361.6485595703125 421.3876647949219 389.813720703125 388.6700439453125 391.0546569824219 425.90997314453125"/>
    <path stroke-width="0" fill="rgb(77, 106, 170)" opacity="1.0142388" stroke="rgb(238, 156, 136)" stroke-opacity="1.0" stroke-linecap="round" stroke-linejoin="round" d="M 354.6909484863281 29.106536865234375 C 357.40008544921875 69.90574645996094 339.4533386230469 56.00636672973633 327.1665344238281 48.92694854736328 C 337.1778869628906 52.78945541381836 334.89886474609375 48.509944915771484 338.00823974609375 58.26780319213867 C 330.7242736816406 44.242652893066406 320.0869445800781 34.49775695800781 357.64471435546875 43.869468688964844 C 356.2794494628906 22.964033126831055 359.5147399902344 47.29814529418945 354.6909484863281 29.106536865234375"/>
    <path stroke-width="0" fill="rgb(128, 99, 86)" opacity="1.1071337" stroke="rgb(186, 79, 101)" stroke-opacity="1.0" stroke-linecap="round" stroke-linejoin="round" d="M 333.2334899902344 222.4234619140625 C 360.3239440917969 193.81163024902344 356.9234924316406 197.26144409179688 355.4687194824219 242.4990234375 C 368.8077392578125 242.5457763671875 341.2802734375 182.45700073242188 358.15997314453125 205.6548309326172 C 316.2226867675781 224.61456298828125 358.8832702636719 219.61354064941406 369.67431640625 230.17919921875 C 313.808349609375 207.138916015625 352.11968994140625 207.08743286132812 333.2334899902344 222.4234619140625"/>
    <path stroke-width="0" fill="rgb(252, 240, 257)" opacity="1.0943128" stroke="rgb(47, 240, 188)" stroke-opacity="1.0" stroke-linecap="round" stroke-linejoin="round" d="M 372.5326232910156 228.1306610107422 C 395.27935791015625 265.928955078125 348.50091552734375 301.6853942871094 363.14813232421875 274.15155029296875 C 298.14935302734375 292.2803039550781 356.3780212402344 262.8626708984375 367.02947998046875 255.436767578125 C 327.9214172363281 257.4000549316406 352.8926086425781 227.2936553955078 366.6990661621094 235.82992553710938 C 358.50885009765625 272.1453857421875 344.3492431640625 251.11062622070312 372.5326232910156 228.1306610107422"/>
    <path stroke-width="0" fill="rgb(35, 65, 19)" opacity="0.55166507" stroke="rgb(57, 64, 14)" stroke-opacity="1.0" stroke-linecap="round" stroke-linejoin="round" d="M 353.3548889160156 218.114013671875 C 362.9617919921875 200.07398986816406 337.3692626953125 211.44293212890625 377.92791748046875 230.647705078125 C 350.0780334472656 254.86790466308594 330.55340576171875 244.765625 374.5084533691406 228.5753936767578 C 365.2845153808594 265.5380859375 370.13330078125 215.28439331054688 346.7527160644531 273.0614013671875 C 375.568115234375 206.5996551513672 336.2855224609375 233.21817016601562 353.3548889160156 218.114013671875"/>
    <path stroke-width="0" fill="rgb(109, 64, 2)" opacity="0.45021465" stroke="rgb(79, 177, 96)" stroke-opacity="1.0" stroke-linecap="round" stroke-linejoin="round" d="M 374.47149658203125 287.05487060546875 C 366.9233703613281 291.07598876953125 362.8995361328125 275.1866760253906 350.2043762207031 314.92724609375 C 386.1894226074219 340.07537841796875 371.51715087890625 298.52850341796875 369.1007385253906 313.0467224121094 C 369.5446472167969 245.13021850585938 401.42730712890625 253.69667053222656 355.1142272949219 298.78955078125 C 350.9834289550781 304.5125427246094 358.0707092285156 317.3652648925781 374.47149658203125 287.05487060546875"/>
    <path stroke-width="0" fill="rgb(71, 54, 99)" opacity="1.0266916" stroke="rgb(6, 17, 173)" stroke-opacity="1.0" stroke-linecap="round" stroke-linejoin="round" d="M 397.4305419921875 398.09783935546875 C 411.0389404296875 382.0159912109375 350.0289611816406 386.9694519042969 393.2929992675781 386.8923034667969 C 397.1616516113281 441.5649108886719 407.1246643066406 448.22430419921875 403.98663330078125 416.8481140136719 C 377.71978759765625 290.99908447265625 379.63519287109375 394.951416015625 405.2373352050781 404.7833557128906 C 392.56451416015625 423.6695556640625 417.9915771484375 419.03826904296875 397.4305419921875 398.09783935546875"/>
    <path stroke-width="0" fill="rgb(35, -4, -2)" opacity="0.7564242" stroke="rgb(136, 228, 252)" stroke-opacity="1.0" stroke-linecap="round" stroke-linejoin="round" d="M 331.5111999511719 154.3878631591797 C 386.51190185546875 113.85099029541016 368.9337158203125 112.9930191040039 362.552490234375 127.41132354736328 C 365.0259094238281 142.52377319335938 371.05535888671875 126.70044708251953 369.51983642578125 149.730712890625 C 370.29486083984375 157.0133514404297 377.1911926269531 110.7822036743164 354.06072998046875 125.30879211425781 C 349.49468994140625 105.02935791015625 388.9024658203125 105.73542785644531 331.5111999511719 154.3878631591797"/>
    <path stroke-width="0" fill="rgb(-6, 71, 70)" opacity="0.650515" stroke="rgb(169, 67, 5)" stroke-opacity="1.0" stroke-linecap="round" stroke-linejoin="round" d="M 341.67791748046875 256.9207763671875 C 351.2489318847656 283.43255615234375 356.0991516113281 285.82733154296875 363.6288146972656 293.09783935546875 C 376.8714904785156 274.17236328125 346.30908203125 326.8122863769531 353.59832763671875 299.63330078125 C 349.5111389160156 237.9806671142578 339.5483703613281 279.0215759277344 360.7420654296875 267.23187255859375 C 362.7840270996094 282.4666748046875 346.5137634277344 284.180908203125 341.67791748046875 256.9207763671875"/>
    <path stroke-width="0" fill="rgb(303, 280, 240)" opacity="0.6921964" stroke="rgb(81, 97, 150)" stroke-opacity="1.0" stroke-linecap="round" stroke-linejoin="round" d="M 362.8213806152344 181.9688262939453 C 344.1964416503906 115.25880432128906 366.560791015625 239.48941040039062 371.76708984375 166.2445526123047 C 369.25341796875 131.04322814941406 338.1237487792969 150.75674438476562 371.74639892578125 99.74765014648438 C 321.6082763671875 161.63836669921875 339.52008056640625 103.7928237915039 372.46356201171875 115.96092987060547 C 322.7474060058594 144.23411560058594 360.5859680175781 117.33312225341797 362.8213806152344 181.9688262939453"/>
    <path stroke-width="0" fill="rgb(52, 9, -4)" opacity="0.6507703" stroke="rgb(160, 222, 69)" stroke-opacity="1.0" stroke-linecap="round" stroke-linejoin="round" d="M 365.1527404785156 271.2308044433594 C 369.4288024902344 238.95187377929688 374.85491943359375 245.092041015625 341.2244567871094 245.1842041015625 C 341.1691589355469 250.74525451660156 329.38189697265625 279.7664489746094 338.3659973144531 218.35520935058594 C 333.8583068847656 203.78564453125 328.55401611328125 256.01318359375 335.6686706542969 251.1781768798828 C 388.7913513183594 223.46633911132812 366.5444641113281 186.90469360351562 365.1527404785156 271.2308044433594"/>
    <path stroke-width="0" fill="rgb(58, 25, 71)" opacity="0.8772192" stroke="rgb(47, 242, 175)" stroke-opacity="1.0" stroke-linecap="round" stroke-linejoin="round" d="M 360.01251220703125 310.4136047363281 C 373.0612487792969 356.62310791015625 395.7762451171875 255.53799438476562 382.7113952636719 334.36553955078125 C 341.626220703125 304.6785583496094 367.31951904296875 245.04051208496094 326.68048095703125 298.2523498535156 C 376.40045166015625 246.7140655517578 348.7995910644531 277.9279479980469 354.9360046386719 300.3669128417969 C 367.0727844238281 267.1111755371094 336.2664794921875 277.4887390136719 360.01251220703125 310.4136047363281"/>
    <path stroke-width="0" fill="rgb(6, 23, -12)" opacity="0.7887489" stroke="rgb(241, 186, 64)" stroke-opacity="1.0" stroke-linecap="round" stroke-linejoin="round" d="M 359.2645263671875 301.97918701171875 C 331.4591064453125 286.37255859375 379.0526123046875 280.1828918457031 349.7225036621094 286.4990234375 C 361.60784912109375 275.4999694824219 355.39886474609375 242.6230010986328 354.4947814941406 272.4103698730469 C 374.9242248535156 275.770263671875 370.1680908203125 249.81350708007812 345.5868835449219 297.1036682128906 C 367.3220520019531 283.3140869140625 342.15875244140625 305.0186462402344 359.2645263671875 301.97918701171875"/>
    <path stroke-width="0" fill="rgb(254, 277, 270)" opacity="1.1208724" stroke="rgb(132, 6, 52)" stroke-opacity="1.0" stroke-linecap="round" stroke-linejoin="round" d="M 367.4241943359375 313.41448974609375 C 333.3962097167969 319.4429626464844 384.48553466796875 331.3306884765625 380.2632141113281 318.27215576171875 C 348.3235778808594 313.3754577636719 373.9139099121094 292.4531555175781 373.555908203125 319.2210998535156 C 373.44525146484375 346.43450927734375 397.72625732421875 327.0390319824219 372.4736328125 326.7670593261719 C 394.11236572265625 315.8229675292969 377.572998046875 357.4039306640625 367.4241943359375 313.41448974609375"/>
    <path stroke-width="0" fill="rgb(-12, 14, -16)" opacity="0.6229479" stroke="rgb(220, 29, 131)" stroke-opacity="1.0" stroke-linecap="round" stroke-linejoin="round" d="M 358.2560729980469 363.2376403808594 C 373.77545166015625 371.59912109375 348.1359558105469 338.4166259765625 365.36187744140625 344.7018127441406 C 334.84197998046875 426.26239013671875 347.8835754394531 364.6092834472656 367.25091552734375 393.13494873046875 C 348.5404052734375 403.63299560546875 382.9564208984375 422.613525390625 366.01776123046875 370.17254638671875 C 345.65667724609375 438.6083984375 357.31805419921875 344.0198059082031 358.2560729980469 363.2376403808594"/>
    <path stroke-width="0" fill="rgb(268, 242, 262)" opacity="1.105664" stroke="rgb(182, 100, 144)" stroke-opacity="1.0" stroke-linecap="round" stroke-linejoin="round" d="M 349.7799987792969 375.4491882324219 C 309.8258972167969 371.91070556640625 312.52386474609375 426.3997802734375 343.23455810546875 395.0437316894531 C 328.6795654296875 374.0440979003906 341.8744201660156 357.94476318359375 345.3230895996094 373.6112365722656 C 293.8519592285156 342.2917785644531 364.9892272949219 345.0951843261719 321.1508483886719 385.43963623046875 C 331.9552001953125 346.30718994140625 313.3705749511719 358.3367004394531 349.7799987792969 375.4491882324219"/>
    <path stroke-width="0" fill="rgb(15, 37, 10)" opacity="0.61937416" stroke="rgb(195, 190, 230)" stroke-opacity="1.0" stroke-linecap="round" stroke-linejoin="round" d="M 317.9355773925781 399.3719787597656 C 319.4007873535156 398.2922058105469 310.5506591796875 413.420654296875 344.85284423828125 435.92449951171875 C 290.8046875 401.9089050292969 332.7213134765625 428.86932373046875 299.19140625 468.2740478515625 C 326.9400634765625 353.5644226074219 351.4343566894531 411.1871032714844 318.12255859375 376.6711120605469 C 347.3843994140625 424.6229248046875 355.494384765625 385.3851013183594 317.9355773925781 399.3719787597656"/>
    <path stroke-width="0" fill="rgb(2, 25, 90)" opacity="0.78911746" stroke="rgb(140, 149, 245)" stroke-opacity="1.0" stroke-linecap="round" stroke-linejoin="round" d="M 356.49847412109375 325.6627197265625 C 332.1722717285156 370.8284912109375 372.1705627441406 312.8401794433594 337.1902770996094 344.76934814453125 C 322.1680603027344 361.06951904296875 362.598388671875 273.1386413574219 328.21002197265625 336.93505859375 C 322.850341796875 357.0789794921875 330.6070251464844 339.9361267089844 328.08685302734375 339.7010498046875 C 322.5549621582031 335.7354736328125 313.4801025390625 332.5534362792969 356.49847412109375 325.6627197265625"/>
    <path stroke-width="0" fill="rgb(76, 47, 29)" opacity="0.36077875" stroke="rgb(16, 123, 249)" stroke-opacity="1.0" stroke-linecap="round" stroke-linejoin="round" d="M 304.68035888671875 421.7052001953125 C 333.45147705078125 406.3273010253906 274.57965087890625 450.6450500488281 321.5708923339844 429.26397705078125 C 321.86004638671875 457.85626220703125 326.25201416015625 442.13934326171875 308.8155517578125 455.6781311035156 C 327.3764343261719 438.0082092285156 349.6033020019531 424.7521057128906 317.01397705078125 444.6414489746094 C 357.7713623046875 369.5733642578125 321.5087890625 423.3950500488281 304.68035888671875 421.7052001953125"/>
    <path stroke-width="0" fill="rgb(282, 260, 295)" opacity="0.9181917" stroke="rgb(86, 245, 59)" stroke-opacity="1.0" stroke-linecap="round" stroke-linejoin="round" d="M 333.49053955078125 288.1949157714844 C 349.75396728515625 285.2718505859375 324.0826416015625 286.86962890625 366.529541015625 278.7950744628906 C 334.8679504394531 298.1435546875 337.8732604980469 255.91940307617188 332.0873718261719 291.0642395019531 C 357.1324157714844 281.6570739746094 363.7789611816406 274.7420654296875 346.6249694824219 292.8122863769531 C 319.85662841796875 270.7879333496094 377.45257568359375 309.0122375488281 333.49053955078125 288.1949157714844"/>
    <path stroke-width="0" fill="rgb(109, 107, 59)" opacity="0.45219517" stroke="rgb(240, 203, 160)" stroke-opacity="1.0" stroke-linecap="round" stroke-linejoin="round" d="M 356.9667053222656 279.838134765625 C 337.3345031738281 277.64666748046875 380.3861083984375 298.6388244628906 374.31573486328125 262.1453857421875 C 369.4181823730469 280.81829833984375 376.5963439941406 284.5443420410156 372.160888671875 298.18597412109375 C 363.647705078125 266.6200866699219 397.8893737792969 281.85205078125 355.9721374511719 287.4603576660156 C 352.5219421386719 296.38006591796875 349.0205383300781 295.8352355957031 356.9667053222656 279.838134765625"/>
    <path stroke-width="0" fill="rgb(-8, -5, 25)" opacity="0.39702427" stroke="rgb(74, 216, 157)" stroke-opacity="1.0" stroke-linecap="round" stroke-linejoin="round" d="M 365.5379943847656 419.195068359375 C 376.92462158203125 412.266357421875 373.61541748046875 406.3612060546875 363.9779052734375 419.102783203125 C 372.8293762207031 402.7460632324219 362.59942626953125 352.856201171875 367.8182067871094 414.068603515625 C 335.2559814453125 349.15460205078125 347.7729797363281 388.680908203125 345.6105651855469 385.411865234375 C 366.0171813964844 404.8562316894531 354.8576354980469 400.2904357910156 365.5379943847656 419.195068359375"/>
    <path stroke-width="0" fill="rgb(72, -30, -22)" opacity="0.87312126" stroke="rgb(126, 163, 93)" stroke-opacity="1.0" stroke-linecap="round" stroke-linejoin="round" d="M 365.5929260253906 109.58399200439453 C 357.12774658203125 90.584716796875 351.3885192871094 89.73629760742188 343.9462890625 83.99986267089844 C 376.8504333496094 115.40636444091797 327.75030517578125 81.81050872802734 363.05755615234375 114.1186752319336 C 387.18682861328125 92.30586242675781 353.7784423828125 93.4622802734375 352.659912109375 103.64738464355469 C 351.4152526855469 105.35799407958984 332.4619140625 97.04348754882812 365.5929260253906 109.58399200439453"/>
    <path stroke-width="0" fill="rgb(136, 107, 34)" opacity="0.68834394" stroke="rgb(24, 219, 248)" stroke-opacity="1.0" stroke-linecap="round" stroke-linejoin="round" d="M 360.2389221191406 431.8301086425781 C 368.4852600097656 378.47259521484375 384.80859375 415.0433654785156 354.9136047363281 373.9938049316406 C 366.4318542480469 403.4039306640625 370.43505859375 361.7468566894531 364.9510498046875 347.3058776855469 C 386.0881652832031 407.4976806640625 392.4566345214844 353.4199523925781 358.5546569824219 365.9795227050781 C 379.5986633300781 398.5394592285156 359.60858154296875 419.2935791015625 360.2389221191406 431.8301086425781"/>
    <path stroke-width="0" fill="rgb(264, 268, 286)" opacity="0.9207286" stroke="rgb(231, 197, 84)" stroke-opacity="1.0" stroke-linecap="round" stroke-linejoin="round" d="M 358.3860168457031 221.7812042236328 C 369.002685546875 241.91949462890625 382.2333679199219 216.98941040039062 364.1297912597656 216.85276794433594 C 399.83148193359375 207.8734893798828 351.64105224609375 247.72044372558594 372.6628723144531 236.95286560058594 C 361.9565124511719 248.49549865722656 364.7266845703125 255.90151977539062 363.7684326171875 204.4184112548828 C 395.3063659667969 244.42645263671875 355.1363220214844 253.31515502929688 358.3860168457031 221.7812042236328"/>
    <path stroke-width="0" fill="rgb(189, 174, 147)" opacity="0.62056553" stroke="rgb(103, 59, 33)" stroke-opacity="1.0" stroke-linecap="round" stroke-linejoin="round" d="M 367.4884948730469 367.40106201171875 C 383.0731201171875 346.9339294433594 393.0018005371094 336.3116149902344 363.0643310546875 351.07623291015625 C 365.00994873046875 331.43994140625 382.63909912109375 346.92437744140625 408.9827575683594 367.083251953125 C 383.5545654296875 354.43560791015625 369.1122131347656 331.8888244628906 360.46197509765625 357.7418212890625 C 376.9645080566406 388.9072265625 364.3731994628906 399.8500671386719 367.4884948730469 367.40106201171875"/>
    <path stroke-width="0" fill="rgb(112, 110, 135)" opacity="0.8045327" stroke="rgb(107, 142, 219)" stroke-opacity="1.0" stroke-linecap="round" stroke-linejoin="round" d="M 388.4584655761719 347.0643005371094 C 403.2307434082031 379.4660339355469 419.4075012207031 423.48492431640625 429.6351623535156 412.0916442871094 C 430.39886474609375 410.51690673828125 413.73284912109375 442.2153015136719 412.732666015625 395.9851379394531 C 418.52655029296875 423.2251892089844 435.5247802734375 410.9897155761719 401.84228515625 409.873046875 C 408.7138671875 391.3905944824219 419.68878173828125 411.9185485839844 388.4584655761719 347.0643005371094"/>
    <path stroke-width="0" fill="rgb(129, 90, 95)" opacity="0.3884462" stroke="rgb(68, 33, 14)" stroke-opacity="1.0" stroke-linecap="round" stroke-linejoin="round" d="M 350.4601745605469 311.76904296875 C 353.5370178222656 323.19964599609375 331.5751647949219 286.68896484375 352.7325439453125 327.26806640625 C 363.8529968261719 339.46331787109375 360.923095703125 301.801025390625 385.65753173828125 341.74444580078125 C 391.6031494140625 328.1036682128906 384.3037414550781 330.47296142578125 391.7611999511719 332.5376281738281 C 359.7054748535156 310.8979797363281 362.87689208984375 318.0271911621094 350.4601745605469 311.76904296875"/>
    <path stroke-width="0" fill="rgb(151, 145, 176)" opacity="0.49909067" stroke="rgb(66, 116, 174)" stroke-opacity="1.0" stroke-linecap="round" stroke-linejoin="round" d="M 370.63568115234375 405.231201171875 C 386.1655578613281 377.2679748535156 348.6111145019531 380.543212890625 355.728271484375 390.0123291015625 C 332.9273681640625 396.6662902832031 349.7225341796875 422.3828125 316.2454833984375 371.09100341796875 C 336.8519287109375 397.7340393066406 331.45977783203125 417.9965515136719 368.0897521972656 375.8146667480469 C 361.4026184082031 376.7073669433594 379.29998779296875 378.17242431640625 370.63568115234375 405.231201171875"/>
    <path stroke-width="0" fill="rgb(57, 84, 44)" opacity="0.7517136" stroke="rgb(72, 96, 46)" stroke-opacity="1.0" stroke-linecap="round" stroke-linejoin="round" d="M 366.8382263183594 432.71026611328125 C 374.7445373535156 428.77423095703125 368.9395751953125 401.7796630859375 408.47705078125 431.4866638183594 C 377.3270568847656 407.0654296875 382.30206298828125 399.2845458984375 383.41241455078125 437.8145446777344 C 392.6273193359375 374.60028076171875 385.3866882324219 418.6929016113281 367.0428466796875 420.5675354003906 C 362.6934509277344 396.1421203613281 392.970947265625 443.3857421875 366.8382263183594 432.71026611328125"/>
    <path stroke-width="0" fill="rgb(226, 258, 230)" opacity="0.9939644" stroke="rgb(66, 95, 149)" stroke-opacity="1.0" stroke-linecap="round" stroke-linejoin="round" d="M 336.4469299316406 323.401611328125 C 324.8218688964844 297.0583801269531 333.5174865722656 322.0004577636719 328.56866455078125 340.9336853027344 C 363.8902893066406 315.4713134765625 358.1953430175781 339.881591796875 350.6294860839844 325.1205139160156 C 347.7236328125 378.3255615234375 320.71380615234375 317.31439208984375 335.0675354003906 326.1725769042969 C 352.65631103515625 315.3046875 334.4109802246094 351.0819396972656 336.4469299316406 323.401611328125"/>
    <path stroke-width="0" fill="rgb(227, 238, 258)" opacity="0.98160106" stroke="rgb(203, 19, 132)" stroke-opacity="1.0" stroke-linecap="round" stroke-linejoin="round" d="M 336.16192626953125 90.1218032836914 C 334.4283752441406 115.46368408203125 358.0980529785156 93.33272552490234 373.87420654296875 110.48721313476562 C 371.4302978515625 110.32442474365234 356.6879577636719 84.50089263916016 371.6224670410156 85.60052490234375 C 327.58984375 103.461181640625 344.052734375 73.81847381591797 343.5098571777344 104.80579376220703 C 347.653076171875 99.1280517578125 347.1676330566406 87.06481170654297 336.16192626953125 90.1218032836914"/>
    <path stroke-width="0" fill="rgb(68, 132, 100)" opacity="0.20667547" stroke="rgb(147, 244, 164)" stroke-opacity="1.0" stroke-linecap="round" stroke-linejoin="round" d="M 329.1210632324219 103.975830078125 C 380.4895324707031 98.34964752197266 401.9725646972656 79.51710510253906 355.7532653808594 66.1280288696289 C 399.20159912109375 82.39730072021484 393.5889892578125 85.92019653320312 397.65069580078125 113.35501098632812 C 366.7544250488281 144.53936767578125 361.7863464355469 88.85830688476562 357.0276184082031 88.4654312133789 C 384.3073425292969 103.7567138671875 407.77496337890625 101.85789489746094 329.1210632324219 103.975830078125"/>
    <path stroke-width="0" fill="rgb(205, 208, 171)" opacity="0.5325221" stroke="rgb(109, 130, 136)" stroke-opacity="1.0" stroke-linecap="round" stroke-linejoin="round" d="M 361.3442687988281 281.17767333984375 C 389.3800048828125 269.229248046875 366.1912536621094 282.765625 371.41448974609375 281.3647155761719 C 391.08197021484375 281.3822326660156 357.54461669921875 279.97845458984375 378.6070556640625 286.2760314941406 C 340.5686340332031 296.7237854003906 350.1859130859375 254.96261596679688 342.6370544433594 270.38702392578125 C 364.4550476074219 273.8153076171875 328.8503723144531 277.0413513183594 361.3442687988281 281.17767333984375"/>
    <path stroke-width="0" fill="rgb(90, 8, 25)" opacity="0.92683774" stroke="rgb(47, 230, 138)" stroke-opacity="1.0" stroke-linecap="round" stroke-linejoin="round" d="M 382.7115478515625 490.9423828125 C 418.7930603027344 475.8082580566406 386.5528259277344 481.3966064453125 429.8955993652344 487.3508605957031 C 417.3924865722656 479.4766540527344 426.3106384277344 458.16363525390625 414.787841796875 491.7180480957031 C 410.9815368652344 493.428955078125 388.90948486328125 544.805908203125 420.887451171875 488.1054382324219 C 404.9450378417969 497.3410949707031 427.8750305175781 472.35577392578125 382.7115478515625 490.9423828125"/>
    <path stroke-width="0" fill="rgb(136, 81, 155)" opacity="0.19107834" stroke="rgb(224, 116, 184)" stroke-opacity="1.0" stroke-linecap="round" stroke-linejoin="round" d="M 367.5028076171875 111.71605682373047 C 397.1820068359375 109.73802947998047 373.2635192871094 109.93156433105469 358.4781494140625 90.45231628417969 C 354.9853210449219 114.53424072265625 363.3289794921875 124.11312103271484 391.5987854003906 93.1499252319336 C 376.1409606933594 115.06953430175781 343.83099365234375 83.84324645996094 313.68817138671875 132.1814727783203 C 333.1897888183594 99.89205932617188 348.6020812988281 106.26758575439453 367.5028076171875 111.71605682373047"/>
    <path stroke-width="0" fill="rgb(86, 116, 139)" opacity="0.2531002" stroke="rgb(230, 175, 178)" stroke-opacity="1.0" stroke-linecap="round" stroke-linejoin="round" d="M 395.739013671875 96.93597412109375 C 399.5290832519531 56.382991790771484 395.7813415527344 71.41374969482422 385.7776794433594 93.1724853515625 C 387.5209655761719 97.56558227539062 407.79180908203125 99.46857452392578 399.43231201171875 87.66568756103516 C 367.7019348144531 119.70081329345703 327.4679260253906 93.89816284179688 318.43572998046875 102.72618103027344 C 341.46844482421875 123.90306854248047 350.8664855957031 91.83679962158203 395.739013671875 96.93597412109375"/>
    <path stroke-width="0" fill="rgb(236, 196, 239)" opacity="0.8048387" stroke="rgb(192, 162, 61)" stroke-opacity="1.0" stroke-linecap="round" stroke-linejoin="round" d="M 355.5928955078125 347.2347412109375 C 368.5397033691406 320.28143310546875 348.0126037597656 330.0322265625 355.2575988769531 331.7298889160156 C 374.2230529785156 337.9402160644531 362.98980712890625 334.4548645019531 355.8943786621094 317.4337158203125 C 351.1815490722656 345.9266357421875 366.9541931152344 334.2093505859375 363.17938232421875 331.9665832519531 C 386.7618103027344 325.69775390625 391.37481689453125 313.7069396972656 355.5928955078125 347.2347412109375"/>
    <path stroke-width="0" fill="rgb(214, 204, 237)" opacity="0.5390125" stroke="rgb(203, 244, 116)" stroke-opacity="1.0" stroke-linecap="round" stroke-linejoin="round" d="M 394.421142578125 399.7658386230469 C 434.57122802734375 417.247802734375 410.3009033203125 410.1768493652344 397.74371337890625 397.25555419921875 C 388.5326843261719 429.9561767578125 398.19073486328125 442.7907409667969 355.2746887207031 407.3843688964844 C 351.17572021484375 355.412841796875 324.2853088378906 394.64697265625 387.2821960449219 431.1675109863281 C 400.3447265625 390.1002197265625 407.7677001953125 383.9704284667969 394.421142578125 399.7658386230469"/>
    <path stroke-width="0" fill="rgb(123, 125, 123)" opacity="0.89333194" stroke="rgb(209, 231, 207)" stroke-opacity="1.0" stroke-linecap="round" stroke-linejoin="round" d="M 366.07110595703125 -10.313698768615723 C 358.10107421875 -8.817402839660645 352.18414306640625 -1.461106300354004 369.2245178222656 -3.4766533374786377 C 387.265625 -7.575571537017822 377.2897033691406 -18.447284698486328 367.5125427246094 -32.20763397216797 C 357.3088073730469 10.338201522827148 353.7659606933594 6.857427597045898 346.7136535644531 -32.64646530151367 C 374.9783630371094 -16.048751831054688 375.07598876953125 -11.324017524719238 366.07110595703125 -10.313698768615723"/>
    <path stroke-width="0" fill="rgb(46, 18, 54)" opacity="0.32615104" stroke="rgb(160, 101, 15)" stroke-opacity="1.0" stroke-linecap="round" stroke-linejoin="round" d="M 342.7728576660156 111.06742095947266 C 342.072021484375 99.10232543945312 349.3464050292969 119.32156372070312 355.11688232421875 104.14740753173828 C 369.0205078125 90.22415161132812 374.53271484375 100.21478271484375 364.7702331542969 102.82046508789062 C 353.3678283691406 94.63580322265625 329.92108154296875 54.87205505371094 360.7030944824219 62.9328498840332 C 332.5390625 96.27479553222656 372.53399658203125 126.76331329345703 342.7728576660156 111.06742095947266"/>
    <path stroke-width="0" fill="rgb(96, 111, 120)" opacity="0.6327438" stroke="rgb(65, 216, 8)" stroke-opacity="1.0" stroke-linecap="round" stroke-linejoin="round" d="M 347.5089416503906 13.716446876525879 C 351.2067565917969 1.4686239957809448 344.8831787109375 20.154067993164062 348.8797302246094 14.800739288330078 C 356.5072326660156 9.68659496307373 342.2057800292969 6.8066792488098145 354.044921875 7.320977687835693 C 353.07928466796875 16.729089736938477 340.9345703125 25.930191040039062 351.3499450683594 10.2556734085083 C 346.6512145996094 26.989253997802734 350.775146484375 19.944257736206055 347.5089416503906 13.716446876525879"/>
    <path stroke-width="0" fill="rgb(111, 117, 140)" opacity="0.74110085" stroke="rgb(102, 236, 25)" stroke-opacity="1.0" stroke-linecap="round" stroke-linejoin="round" d="M 327.25506591796875 443.95367431640625 C 348.9477233886719 480.930908203125 347.8953552246094 462.7154235839844 314.7502136230469 410.0863037109375 C 356.0421142578125 451.574951171875 298.6203918457031 397.1315612792969 316.11810302734375 429.0954895019531 C 290.4264831542969 448.6941833496094 309.4681701660156 420.23486328125 328.51123046875 428.2553405761719 C 353.47698974609375 401.83062744140625 342.7839660644531 424.94268798828125 327.25506591796875 443.95367431640625"/>
    <path stroke-width="0" fill="rgb(109, 115, 136)" opacity="0.26428267" stroke="rgb(17, 64, 56)" stroke-opacity="1.0" stroke-linecap="round" stroke-linejoin="round" d="M 378.05548095703125 74.16698455810547 C 387.25714111328125 74.90367889404297 362.68511962890625 105.68806457519531 393.5427551269531 115.50103759765625 C 373.7958068847656 108.49320983886719 357.81915283203125 75.91127014160156 377.795166015625 115.15425109863281 C 354.3100280761719 89.41453552246094 360.5055236816406 80.57974243164062 367.8141174316406 96.97997283935547 C 317.0998229980469 90.9474868774414 389.0457763671875 113.05313873291016 378.05548095703125 74.16698455810547"/>
    <path stroke-width="0" fill="rgb(-6, 12, 25)" opacity="1.1536517" stroke="rgb(162, 125, 252)" stroke-opacity="1.0" stroke-linecap="round" stroke-linejoin="round" d="M 364.156982421875 116.72183227539062 C 371.8968200683594 85.89918518066406 365.36358642578125 124.02063751220703 364.2643737792969 92.49592590332031 C 356.1736755371094 74.45426177978516 346.9089050292969 126.15634155273438 345.84002685546875 110.81114196777344 C 340.0695495605469 69.2109375 337.13836669921875 64.1191635131836 341.76806640625 116.10498046875 C 375.3956604003906 75.36958312988281 374.89654541015625 71.5224380493164 364.156982421875 116.72183227539062"/>
    <path stroke-width="0" fill="rgb(28, 7, 38)" opacity="0.4377393" stroke="rgb(199, 73, 61)" stroke-opacity="1.0" stroke-linecap="round" stroke-linejoin="round" d="M 317.2571716308594 452.7477111816406 C 360.7465515136719 478.6067810058594 308.38128662109375 473.4470520019531 360.9432067871094 460.84112548828125 C 347.02581787109375 435.97308349609375 343.434326171875 466.4913330078125 350.07501220703125 475.92681884765625 C 340.5462341308594 462.3439636230469 314.6864929199219 417.27545166015625 331.6026916503906 450.91302490234375 C 348.97283935546875 439.0718994140625 327.20294189453125 469.2479248046875 317.2571716308594 452.7477111816406"/>
    <path stroke-width="0" fill="rgb(62, 35, 75)" opacity="0.7281957" stroke="rgb(62, 169, 131)" stroke-opacity="1.0" stroke-linecap="round" stroke-linejoin="round" d="M 300.97479248046875 449.5752258300781 C 312.6451110839844 470.9163818359375 326.377197265625 457.8403015136719 333.7711181640625 426.6692810058594 C 334.95196533203125 465.3261413574219 288.01617431640625 459.4385681152344 282.9049987792969 498.93731689453125 C 306.1798095703125 457.4208068847656 311.9717102050781 459.29766845703125 315.6225891113281 447.033203125 C 322.2093200683594 432.6689147949219 305.7810974121094 468.9102783203125 300.97479248046875 449.5752258300781"/>
    <path stroke-width="0" fill="rgb(158, 141, 186)" opacity="0.57455885" stroke="rgb(141, 73, 180)" stroke-opacity="1.0" stroke-linecap="round" stroke-linejoin="round" d="M 326.76953125 438.6476745605469 C 333.003662109375 473.42730712890625 313.641845703125 465.901611328125 326.1166687011719 446.174560546875 C 329.91595458984375 484.10784912109375 331.6697692871094 446.174072265625 306.1313171386719 453.7507629394531 C 315.2120666503906 482.2488708496094 295.5168151855469 423.8961486816406 321.69610595703125 448.4031066894531 C 296.7841491699219 472.17486572265625 339.41815185546875 462.38104248046875 326.76953125 438.6476745605469"/>
    <path stroke-width="0" fill="rgb(81, 115, 137)" opacity="0.13349088" stroke="rgb(91, 211, 235)" stroke-opacity="1.0" stroke-linecap="round" stroke-linejoin="round" d="M 395.30560302734375 72.56169891357422 C 352.69293212890625 78.84711456298828 338.89227294921875 73.9051284790039 353.4817199707031 115.55243682861328 C 355.5837707519531 85.36135864257812 347.2561340332031 75.28988647460938 346.3857116699219 97.08345031738281 C 346.3831481933594 72.80599975585938 369.5143127441406 80.88145446777344 398.2451171875 72.60051727294922 C 386.07232666015625 30.851146697998047 375.9832763671875 43.11438751220703 395.30560302734375 72.56169891357422"/>
    <path stroke-width="0" fill="rgb(174, 94, 136)" opacity="0.17772736" stroke="rgb(59, 88, 207)" stroke-opacity="1.0" stroke-linecap="round" stroke-linejoin="round" d="M 372.52783203125 136.59458923339844 C 359.3104248046875 131.739501953125 351.2066650390625 110.9850845336914 334.70526123046875 103.64898681640625 C 362.4709777832031 92.6882553100586 374.0807800292969 84.87177276611328 362.75079345703125 104.19155883789062 C 335.0705871582031 110.50886535644531 347.28765869140625 140.76490783691406 347.4205322265625 105.20970916748047 C 330.9541320800781 92.3594970703125 348.8376770019531 117.55441284179688 372.52783203125 136.59458923339844"/>
    <path stroke-width="0" fill="rgb(290, 346, 300)" opacity="0.6754145" stroke="rgb(63, 27, 242)" stroke-opacity="1.0" stroke-linecap="round" stroke-linejoin="round" d="M 342.12255859375 100.55348205566406 C 336.172119140625 67.68321990966797 330.76458740234375 80.32785034179688 335.7759704589844 95.75362396240234 C 369.441650390625 103.48258972167969 365.1062316894531 81.10264587402344 366.707763671875 77.93609619140625 C 307.76995849609375 81.69773864746094 332.6595764160156 73.94307708740234 363.10260009765625 90.5626220703125 C 343.0582580566406 70.81848907470703 353.39208984375 105.15172576904297 342.12255859375 100.55348205566406"/>
    <path stroke-width="0" fill="rgb(256, 270, 268)" opacity="0.39303246" stroke="rgb(175, 14, 186)" stroke-opacity="1.0" stroke-linecap="round" stroke-linejoin="round" d="M 350.27630615234375 75.67499542236328 C 373.9463195800781 72.10993194580078 376.4918518066406 120.37776184082031 341.13641357421875 90.1323471069336 C 330.8851318359375 78.19115447998047 340.0597839355469 118.54263305664062 334.9903259277344 89.14742279052734 C 326.5178527832031 96.89482879638672 377.62677001953125 83.37533569335938 357.286865234375 83.18684387207031 C 369.2994079589844 81.10810089111328 373.7607421875 70.63369750976562 350.27630615234375 75.67499542236328"/>
    <path stroke-width="0" fill="rgb(24, 89, 52)" opacity="0.7029745" stroke="rgb(69, 96, 95)" stroke-opacity="1.0" stroke-linecap="round" stroke-linejoin="round" d="M 356.6523132324219 481.5369567871094 C 404.4890441894531 499.06390380859375 374.40203857421875 441.1441345214844 407.7231140136719 452.490478515625 C 387.4142761230469 453.42974853515625 402.8208312988281 451.94635009765625 392.89434814453125 461.9709777832031 C 382.1368103027344 478.575927734375 389.89593505859375 464.25238037109375 383.5106506347656 467.1171875 C 359.9584045410156 467.55865478515625 403.82611083984375 488.1531982421875 356.6523132324219 481.5369567871094"/>
    <path stroke-width="0" fill="rgb(88, 129, 159)" opacity="0.09198271" stroke="rgb(213, 60, 128)" stroke-opacity="1.0" stroke-linecap="round" stroke-linejoin="round" d="M 360.1365051269531 120.237548828125 C 354.83599853515625 111.28316497802734 348.9068603515625 133.64556884765625 335.8003234863281 140.93528747558594 C 347.9761962890625 104.97904205322266 365.5840759277344 95.4572982788086 345.70880126953125 120.49901580810547 C 362.467041015625 103.6140365600586 376.3719787597656 111.04347229003906 330.8064270019531 128.69769287109375 C 348.5701904296875 110.10765075683594 351.8759460449219 111.5157241821289 360.1365051269531 120.237548828125"/>
    <path stroke-width="0" fill="rgb(73, 83, 93)" opacity="0.6814506" stroke="rgb(161, 221, 239)" stroke-opacity="1.0" stroke-linecap="round" stroke-linejoin="round" d="M 359.06768798828125 88.15406036376953 C 342.876220703125 140.1489715576172 337.38134765625 171.65528869628906 346.916259765625 129.85826110839844 C 342.90362548828125 137.8557586669922 351.2717590332031 112.1286392211914 335.25341796875 128.64031982421875 C 350.1900939941406 123.44293975830078 368.2992858886719 111.67356872558594 347.0977478027344 100.09478759765625 C 380.7828063964844 102.53768157958984 345.2835693359375 107.65502166748047 359.06768798828125 88.15406036376953"/>
    <path stroke-width="0" fill="rgb(78, 125, 126)" opacity="0.43076745" stroke="rgb(178, 246, 253)" stroke-opacity="1.0" stroke-linecap="round" stroke-linejoin="round" d="M 396.8084716796875 71.69872283935547 C 412.0022277832031 79.75624084472656 306.19287109375 75.965576171875 318.6493225097656 72.00812530517578 C 318.5069580078125 106.1868667602539 311.8988037109375 106.07757568359375 311.15447998046875 90.17703247070312 C 314.249267578125 65.2770767211914 293.87786865234375 95.74677276611328 355.2047119140625 66.41497802734375 C 354.7193603515625 47.60972213745117 368.41314697265625 91.27114868164062 396.8084716796875 71.69872283935547"/>
    <path stroke-width="0" fill="rgb(223, 266, 220)" opacity="0.9690824" stroke="rgb(33, 154, 97)" stroke-opacity="1.0" stroke-linecap="round" stroke-linejoin="round" d="M 352.1938781738281 111.7182846069336 C 338.3099670410156 110.74769592285156 341.6994323730469 117.69306945800781 351.60491943359375 93.33927154541016 C 362.83489990234375 144.6305694580078 323.90997314453125 132.0432891845703 354.2652587890625 110.366455078125 C 356.83013916015625 121.06226348876953 335.7774963378906 109.02629089355469 363.176513671875 122.8189468383789 C 346.8454895019531 105.05477142333984 372.4306335449219 116.8290023803711 352.1938781738281 111.7182846069336"/>
    <path stroke-width="0" fill="rgb(27, 50, 60)" opacity="0.75038457" stroke="rgb(246, 139, 70)" stroke-opacity="1.0" stroke-linecap="round" stroke-linejoin="round" d="M 336.4268798828125 71.5855941772461 C 349.8989562988281 113.56695556640625 323.01043701171875 79.8621597290039 365.9916687011719 88.93130493164062 C 371.4736022949219 79.44698333740234 347.52105712890625 81.8097152709961 316.7317199707031 84.95833587646484 C 386.20574951171875 85.68254852294922 367.60028076171875 96.46127319335938 371.7419128417969 74.49917602539062 C 344.302001953125 54.138404846191406 391.77886962890625 78.59437561035156 336.4268798828125 71.5855941772461"/>
    <path stroke-width="0" fill="rgb(235, 237, 222)" opacity="0.9319413" stroke="rgb(116, 102, 63)" stroke-opacity="1.0" stroke-linecap="round" stroke-linejoin="round" d="M 312.86822509765625 499.94366455078125 C 289.7391662597656 475.7060852050781 297.4110412597656 466.4469299316406 296.08294677734375 479.6138000488281 C 312.3946838378906 467.94000244140625 287.0645446777344 457.4225769042969 316.30645751953125 488.0917053222656 C 268.9686584472656 481.5334777832031 317.4513854980469 489.955810546875 292.7207336425781 480.5566101074219 C 285.22442626953125 471.895263671875 300.1272888183594 483.6382141113281 312.86822509765625 499.94366455078125"/>
    <path stroke-width="0" fill="rgb(83, 113, 144)" opacity="0.8492867" stroke="rgb(79, 95, 133)" stroke-opacity="1.0" stroke-linecap="round" stroke-linejoin="round" d="M 394.5087890625 110.69285583496094 C 372.08074951171875 117.392822265625 340.3717041015625 101.63114166259766 325.73614501953125 132.40597534179688 C 379.3808898925781 141.73143005371094 355.88092041015625 151.22142028808594 332.14788818359375 126.80142211914062 C 341.4879150390625 138.1958465576172 341.8704528808594 119.12635803222656 347.6279296875 97.06463623046875 C 333.6576843261719 110.83059692382812 355.3829345703125 113.75171661376953 394.5087890625 110.69285583496094"/>
    <path stroke-width="0" fill="rgb(87, 87, 139)" opacity="0.61112905" stroke="rgb(85, 235, 219)" stroke-opacity="1.0" stroke-linecap="round" stroke-linejoin="round" d="M 371.60809326171875 105.2020263671875 C 354.3559875488281 108.43341827392578 376.7455139160156 100.04541015625 366.6679992675781 116.5818099975586 C 383.93878173828125 123.33768463134766 353.93536376953125 114.16573333740234 351.2291564941406 127.76945495605469 C 323.32391357421875 126.00550079345703 343.28594970703125 113.98393249511719 359.8682861328125 155.777099609375 C 324.28936767578125 105.84199523925781 363.0174255371094 137.9186553955078 371.60809326171875 105.2020263671875"/>
    <path stroke-width="0" fill="rgb(88, 111, 149)" opacity="0.6823668" stroke="rgb(64, 113, 26)" stroke-opacity="1.0" stroke-linecap="round" stroke-linejoin="round" d="M 368.6180419921875 99.71410369873047 C 375.6091613769531 146.5602569580078 425.9941101074219 86.02098083496094 341.5294494628906 100.72578430175781 C 359.2514953613281 67.37625122070312 292.5633850097656 89.20500183105469 320.11810302734375 77.15986633300781 C 311.1930236816406 65.84022521972656 327.63623046875 82.51483917236328 310.24945068359375 94.0037841796875 C 365.43536376953125 65.02948760986328 346.3802490234375 101.41107940673828 368.6180419921875 99.71410369873047"/>
    <path stroke-width="0" fill="rgb(128, 122, 153)" opacity="0.62850535" stroke="rgb(0, 0, 0)" stroke-opacity="0.0" stroke-linecap="round" stroke-linejoin="round" d="M 493.9831848144531 0.1407875418663025 C 493.2982177734375 2.8267977237701416 487.1591796875 4.138123512268066 486.2216796875 3.7657878398895264 C 482.9332580566406 3.022310972213745 476.0425109863281 3.5371861457824707 472.6449279785156 0.30727359652519226 C 478.0127868652344 -3.977801561355591 480.52374267578125 -7.536535739898682 484.89105224609375 -7.89685583114624 C 490.10296630859375 -5.515156269073486 494.1378173828125 -2.5325942039489746 493.9831848144531 0.1407875418663025"/>
    <path stroke-width="0" fill="rgb(188, 156, 137)" opacity="0.65681076" stroke="rgb(0, 0, 0)" stroke-opacity="0.0" stroke-linecap="round" stroke-linejoin="round" d="M 227.38510131835938 20.38097381591797 C 227.4873809814453 23.34563446044922 224.4482421875 26.86433219909668 218.35462951660156 28.228229522705078 C 212.6573944091797 27.066240310668945 209.40184020996094 25.93866539001465 207.94259643554688 17.110042572021484 C 208.22055053710938 11.408926963806152 212.7841796875 8.359169006347656 217.85433959960938 7.365628242492676 C 225.4462890625 9.603743553161621 229.5699005126953 13.417557716369629 227.38510131835938 20.38097381591797"/>
    <path stroke-width="0" fill="rgb(148, 118, 172)" opacity="0.36629868" stroke="rgb(0, 0, 0)" stroke-opacity="0.0" stroke-linecap="round" stroke-linejoin="round" d="M 63.18435287475586 -7.934305667877197 C 62.286224365234375 1.584054708480835 64.0347671508789 7.124729156494141 60.86640167236328 6.979298114776611 C 56.09962844848633 7.4489336013793945 53.64421081542969 3.227684259414673 52.19027328491211 0.28692951798439026 C 51.024261474609375 -2.761662721633911 55.3953971862793 -6.500566482543945 59.75010299682617 -7.690488338470459 C 63.75252151489258 -6.619141101837158 66.53036499023438 -3.6091973781585693 63.18435287475586 -7.934305667877197"/>
    <path stroke-width="0" fill="rgb(202, 104, 114)" opacity="0.7055898" stroke="rgb(0, 0, 0)" stroke-opacity="0.0" stroke-linecap="round" stroke-linejoin="round" d="M 103.8165512084961 6.924144268035889 C 104.01534271240234 7.494710922241211 103.55033111572266 9.75384521484375 98.86383819580078 7.472097873687744 C 98.88301849365234 9.810464859008789 99.07064819335938 6.0493268966674805 101.13864135742188 9.712584495544434 C 99.9238510131836 6.620380401611328 96.91665649414062 0.8559399247169495 97.13668060302734 -0.4262680113315582 C 110.92823028564453 -2.3924593925476074 108.50929260253906 0.6535781621932983 103.8165512084961 6.924144268035889"/>
    <path stroke-width="0" fill="rgb(160, 204, 188)" opacity="0.24270277" stroke="rgb(0, 0, 0)" stroke-opacity="0.0" stroke-linecap="round" stroke-linejoin="round" d="M 146.46868896484375 15.26683521270752 C 148.24949645996094 15.871506690979004 145.23326110839844 20.345605850219727 139.17454528808594 20.416526794433594 C 135.47984313964844 21.102712631225586 133.81491088867188 19.82048797607422 133.70785522460938 14.51856517791748 C 134.91612243652344 11.666793823242188 138.4161376953125 6.935611248016357 141.21644592285156 8.912911415100098 C 146.6693878173828 8.642720222473145 148.10646057128906 12.281804084777832 146.46868896484375 15.26683521270752"/>
    <path stroke-width="0" fill="rgb(84, 114, 144)" opacity="0.36180836" stroke="rgb(0, 0, 0)" stroke-opacity="0.0" stroke-linecap="round" stroke-linejoin="round" d="M 56.24599838256836 12.821112632751465 C 53.83637619018555 21.204877853393555 53.33112716674805 23.828250885009766 53.10639190673828 20.526945114135742 C 45.43235778808594 20.7730712890625 36.54888153076172 21.98398208618164 37.32694625854492 16.893857955932617 C 36.56887435913086 6.094486713409424 38.74140167236328 5.5398712158203125 50.84834289550781 7.03421688079834 C 58.51446533203125 2.5499088764190674 59.961647033691406 5.20071268081665 56.24599838256836 12.821112632751465"/>
    <path stroke-width="0" fill="rgb(157, 73, 154)" opacity="0.057372075" stroke="rgb(0, 0, 0)" stroke-opacity="0.0" stroke-linecap="round" stroke-linejoin="round" d="M 188.5369415283203 4.625119209289551 C 183.888427734375 5.0990424156188965 180.02911376953125 8.108794212341309 177.05929565429688 14.604110717773438 C 182.4145965576172 13.210161209106445 179.522705078125 10.527226448059082 176.41612243652344 6.372645854949951 C 172.7897186279297 0.46846455335617065 175.55686950683594 -2.779360771179199 183.21083068847656 -2.4026589393615723 C 190.96087646484375 -1.6771275997161865 193.3507843017578 3.5647051334381104 188.5369415283203 4.625119209289551"/>
    <path stroke-width="0" fill="rgb(95, 110, 163)" opacity="0.21471444" stroke="rgb(0, 0, 0)" stroke-opacity="0.0" stroke-linecap="round" stroke-linejoin="round" d="M 469.36376953125 216.65069580078125 C 468.0771179199219 211.7378692626953 467.65911865234375 216.49085998535156 470.45977783203125 220.09066772460938 C 467.8381652832031 219.198486328125 466.3028869628906 219.11985778808594 471.0804748535156 218.37185668945312 C 468.27130126953125 214.93406677246094 467.1667785644531 213.47933959960938 468.90673828125 206.4506072998047 C 471.00048828125 211.35755920410156 472.246337890625 216.5753631591797 469.36376953125 216.65069580078125"/>
    <path stroke-width="0" fill="rgb(134, 57, 180)" opacity="0.5509834" stroke="rgb(0, 0, 0)" stroke-opacity="0.0" stroke-linecap="round" stroke-linejoin="round" d="M 459.287841796875 160.33828735351562 C 456.8526306152344 157.5189666748047 456.41949462890625 159.05001831054688 457.7560119628906 161.0890655517578 C 456.2502746582031 158.72242736816406 458.0306701660156 154.50782775878906 458.1545715332031 158.09107971191406 C 459.5760498046875 155.7605743408203 458.3247375488281 154.94235229492188 457.3487548828125 154.7596893310547 C 457.40155029296875 155.81607055664062 458.30145263671875 156.29388427734375 459.287841796875 160.33828735351562"/>
    <path stroke-width="0" fill="rgb(64, 88, 128)" opacity="0.2052899" stroke="rgb(0, 0, 0)" stroke-opacity="0.0" stroke-linecap="round" stroke-linejoin="round" d="M 15.687238693237305 181.35079956054688 C 19.186817169189453 187.35646057128906 15.979613304138184 187.4605712890625 4.20596981048584 186.1659393310547 C -2.107326030731201 184.30067443847656 -0.6120598912239075 186.28619384765625 2.892122268676758 180.6289825439453 C -3.856644630432129 174.82920837402344 3.9553654193878174 177.4661407470703 8.166204452514648 177.1524658203125 C 17.534589767456055 178.40342712402344 19.906213760375977 176.33229064941406 15.687238693237305 181.35079956054688"/>
    <path stroke-width="0" fill="rgb(82, 203, 135)" opacity="0.1273806" stroke="rgb(0, 0, 0)" stroke-opacity="0.0" stroke-linecap="round" stroke-linejoin="round" d="M -123.205810546875 105.1214599609375 C -124.2776107788086 109.1214599609375 -127.205810546875 112.04966735839844 -131.205810546875 113.1214599609375 C -135.205810546875 112.04966735839844 -138.13401794433594 109.1214599609375 -139.205810546875 105.1214599609375 C -138.13401794433594 101.1214599609375 -135.205810546875 98.1932601928711 -131.205810546875 97.1214599609375 C -127.205810546875 98.1932601928711 -124.2776107788086 101.1214599609375 -123.205810546875 105.1214599609375"/>
    <path stroke-width="0" fill="rgb(63, 162, 193)" opacity="0.02845115" stroke="rgb(0, 0, 0)" stroke-opacity="0.0" stroke-linecap="round" stroke-linejoin="round" d="M 76.45121002197266 447.180908203125 C 78.05137634277344 450.46124267578125 76.30628967285156 452.6686096191406 73.8675308227539 449.6814270019531 C 68.54988861083984 447.8672180175781 62.880409240722656 446.9565124511719 61.10525894165039 444.91119384765625 C 63.28368377685547 440.7992858886719 66.69037628173828 438.23876953125 69.7594985961914 438.1228942871094 C 72.76074981689453 439.5812683105469 75.30526733398438 442.4672546386719 76.45121002197266 447.180908203125"/>
    <path stroke-width="0" fill="rgb(84, 102, 151)" opacity="0.2516121" stroke="rgb(0, 0, 0)" stroke-opacity="0.0" stroke-linecap="round" stroke-linejoin="round" d="M 491.6157531738281 143.13934326171875 C 490.8917541503906 146.67425537109375 491.3700866699219 154.99679565429688 491.293212890625 154.55482482910156 C 484.8058776855469 155.17938232421875 487.4800109863281 153.14340209960938 489.2696533203125 138.7596435546875 C 485.8793640136719 139.450927734375 489.91522216796875 140.00343322753906 491.11260986328125 140.35284423828125 C 489.6606750488281 139.03359985351562 491.3231506347656 143.2185516357422 491.6157531738281 143.13934326171875"/>
    <path stroke-width="0" fill="rgb(103, 113, 105)" opacity="0.21641876" stroke="rgb(0, 0, 0)" stroke-opacity="0.0" stroke-linecap="round" stroke-linejoin="round" d="M 120.77759552001953 99.57603454589844 C 118.47417449951172 101.97850799560547 115.21920013427734 101.28775024414062 115.61093139648438 108.25328063964844 C 118.53865051269531 103.98394775390625 115.07567596435547 104.21454620361328 118.02342987060547 103.22685241699219 C 116.17399597167969 101.68682861328125 114.82931518554688 98.48548126220703 113.47665405273438 98.77933502197266 C 116.90283966064453 100.30978393554688 118.13919067382812 101.74486541748047 120.77759552001953 99.57603454589844"/>
    <path stroke-width="0" fill="rgb(136, 125, 195)" opacity="0.7053521" stroke="rgb(0, 0, 0)" stroke-opacity="0.0" stroke-linecap="round" stroke-linejoin="round" d="M 333.5429382324219 205.14370727539062 C 332.96954345703125 208.10794067382812 333.62255859375 211.69943237304688 332.9262390136719 207.03904724121094 C 327.8019104003906 210.66647338867188 324.4392395019531 209.83160400390625 328.81024169921875 201.0929412841797 C 326.5875549316406 201.36659240722656 327.3853759765625 200.58309936523438 337.3748474121094 199.41781616210938 C 335.90093994140625 199.55899047851562 335.7267150878906 207.78384399414062 333.5429382324219 205.14370727539062"/>
    <path stroke-width="0" fill="rgb(98, 101, 179)" opacity="0.3570114" stroke="rgb(0, 0, 0)" stroke-opacity="0.0" stroke-linecap="round" stroke-linejoin="round" d="M 335.22235107421875 269.3130187988281 C 335.9345397949219 273.67926025390625 330.6829528808594 272.3858642578125 322.75439453125 274.7754821777344 C 315.43707275390625 274.1023254394531 317.0699462890625 276.2947082519531 325.7070617675781 270.2370300292969 C 320.677001953125 257.81622314453125 318.39495849609375 258.87255859375 324.9817810058594 261.11517333984375 C 329.4427490234375 259.0218811035156 328.90399169921875 265.61358642578125 335.22235107421875 269.3130187988281"/>
    <path stroke-width="0" fill="rgb(119, 119, 158)" opacity="0.053314015" stroke="rgb(0, 0, 0)" stroke-opacity="0.0" stroke-linecap="round" stroke-linejoin="round" d="M 164.2954864501953 204.75360107421875 C 164.4051971435547 207.12701416015625 161.09889221191406 209.18731689453125 156.92771911621094 206.91751098632812 C 151.39462280273438 207.78538513183594 149.59764099121094 206.7312774658203 151.10430908203125 202.07858276367188 C 150.0561981201172 195.6217498779297 151.42137145996094 194.28688049316406 155.40325927734375 197.1491241455078 C 158.94679260253906 197.03041076660156 161.65078735351562 200.00103759765625 164.2954864501953 204.75360107421875"/>
    <path stroke-width="0" fill="rgb(94, 103, 156)" opacity="0.42698282" stroke="rgb(0, 0, 0)" stroke-opacity="0.0" stroke-linecap="round" stroke-linejoin="round" d="M 191.7446746826172 250.6265411376953 C 195.53768920898438 246.9281768798828 188.24343872070312 248.56495666503906 184.4580841064453 249.04571533203125 C 189.26548767089844 249.91062927246094 186.64859008789062 247.1890869140625 180.16082763671875 247.3371124267578 C 179.4203338623047 240.47496032714844 178.42625427246094 239.22970581054688 188.7159423828125 242.1649169921875 C 191.57411193847656 239.81301879882812 191.84873962402344 242.71763610839844 191.7446746826172 250.6265411376953"/>
    <path stroke-width="0" fill="rgb(174, 112, 58)" opacity="0.011958596" stroke="rgb(0, 0, 0)" stroke-opacity="0.0" stroke-linecap="round" stroke-linejoin="round" d="M 87.34650421142578 497.1927490234375 C 88.26360321044922 500.0993347167969 87.23809814453125 504.94439697265625 88.93770599365234 511.4844970703125 C 79.82487487792969 510.4222106933594 80.164794921875 510.47802734375 85.33885192871094 504.3290710449219 C 79.0344467163086 488.8559875488281 77.9000015258789 484.752685546875 83.39753723144531 488.7896728515625 C 91.79058074951172 488.09173583984375 91.73986053466797 492.9292907714844 87.34650421142578 497.1927490234375"/>
    <path stroke-width="0" fill="rgb(87, 67, 114)" opacity="0.17906037" stroke="rgb(0, 0, 0)" stroke-opacity="0.0" stroke-linecap="round" stroke-linejoin="round" d="M 3.8673789501190186 -5.371953010559082 C 1.484931468963623 -2.023582696914673 -1.6770116090774536 1.0770050287246704 -4.554583549499512 3.124880790710449 C -2.677528142929077 7.805291652679443 -5.555568695068359 4.721656799316406 -6.636660575866699 0.7309714555740356 C -5.565146446228027 -3.2681753635406494 -2.6369433403015137 -6.196378707885742 1.3634140491485596 -7.2682881355285645 C 5.387521743774414 -6.204288959503174 8.615775108337402 -3.428757905960083 3.8673789501190186 -5.371953010559082"/>
    <path stroke-width="0" fill="rgb(238, 131, 117)" opacity="0.38653782" stroke="rgb(0, 0, 0)" stroke-opacity="0.0" stroke-linecap="round" stroke-linejoin="round" d="M 251.14352416992188 80.14469909667969 C 250.22280883789062 86.60795593261719 246.68475341796875 89.99136352539062 240.3211669921875 89.73912811279297 C 237.43649291992188 90.4436264038086 234.5108642578125 85.23131561279297 233.71815490722656 80.43006134033203 C 233.52874755859375 75.67692565917969 236.9874267578125 71.337158203125 241.9709930419922 70.25252532958984 C 248.63119506835938 70.82354736328125 250.91409301757812 75.13240051269531 251.14352416992188 80.14469909667969"/>
    <path stroke-width="0" fill="rgb(119, 111, 150)" opacity="0.68642974" stroke="rgb(0, 0, 0)" stroke-opacity="0.0" stroke-linecap="round" stroke-linejoin="round" d="M 493.6180725097656 217.69232177734375 C 493.5283203125 218.46298217773438 489.103759765625 217.3653564453125 486.7572326660156 220.7222137451172 C 488.31988525390625 223.45919799804688 488.0055236816406 219.48907470703125 487.3575439453125 212.7248077392578 C 483.7478332519531 212.55697631835938 489.8887634277344 212.87353515625 486.8260498046875 216.17129516601562 C 489.2257080078125 216.8489532470703 489.9811706542969 218.5670166015625 493.6180725097656 217.69232177734375"/>
    <path stroke-width="0" fill="rgb(80, 152, 23)" opacity="-0.059802618" stroke="rgb(0, 0, 0)" stroke-opacity="0.0" stroke-linecap="round" stroke-linejoin="round" d="M 415.8255920410156 237.05926513671875 C 410.6828918457031 237.16998291015625 406.8746643066406 238.4680633544922 407.3056335449219 248.96420288085938 C 400.113525390625 250.15057373046875 399.19891357421875 245.18582153320312 405.4564208984375 236.1814422607422 C 397.6988220214844 229.9056396484375 397.9351806640625 226.64920043945312 404.2705383300781 226.662109375 C 408.7101745605469 232.07778930664062 411.893798828125 234.26170349121094 415.8255920410156 237.05926513671875"/>
    <path stroke-width="0" fill="rgb(155, 64, 240)" opacity="0.15841559" stroke="rgb(0, 0, 0)" stroke-opacity="0.0" stroke-linecap="round" stroke-linejoin="round" d="M 152.41827392578125 373.4109191894531 C 149.3396453857422 369.90765380859375 151.72216796875 375.1035461425781 150.7398223876953 380.74102783203125 C 147.78988647460938 384.81610107421875 143.8650360107422 379.2419738769531 143.66590881347656 374.90216064453125 C 143.142822265625 366.7523193359375 143.73545837402344 368.663818359375 146.9127960205078 374.50909423828125 C 153.45697021484375 379.56610107421875 160.07394409179688 379.5507507324219 152.41827392578125 373.4109191894531"/>
  </g>
</svg>
