<?xml version="1.0" ?>
<svg xmlns="http://www.w3.org/2000/svg" version="1.1" width="512" height="512">
  <defs/>
  <g>
    <path stroke-width="0" fill="rgb(82, 84, 95)" opacity="0.83282995" stroke="rgb(139, 182, 153)" stroke-opacity="1.0" stroke-linecap="round" stroke-linejoin="round" d="M 322.68463134765625 428.08270263671875 C 361.52593994140625 479.6117858886719 360.36419677734375 496.5986633300781 188.79736328125 485.1363830566406 C 58.78779602050781 379.5436706542969 58.917816162109375 355.29998779296875 -37.0620002746582 93.50770568847656 C -55.74998092651367 24.691083908081055 -54.507442474365234 -3.2493443489074707 30.05995750427246 -10.959306716918945 C 241.37344360351562 164.82827758789062 250.77003479003906 172.53782653808594 322.68463134765625 428.08270263671875"/>
    <path stroke-width="0" fill="rgb(116, 120, 121)" opacity="0.9637392" stroke="rgb(108, 164, 111)" stroke-opacity="1.0" stroke-linecap="round" stroke-linejoin="round" d="M 564.57275390625 104.98139190673828 C 521.0601806640625 394.9823913574219 444.691650390625 376.10302734375 301.51812744140625 376.83856201171875 C 145.83209228515625 341.302490234375 142.85324096679688 311.56658935546875 -49.58307647705078 1.6673442125320435 C -5.70611047744751 -61.47223663330078 18.957836151123047 -59.51573944091797 446.24822998046875 -50.592098236083984 C 535.3020629882812 -48.75304412841797 556.3040771484375 -60.0816650390625 564.57275390625 104.98139190673828"/>
    <path stroke-width="0" fill="rgb(123, 125, 125)" opacity="0.9951608" stroke="rgb(245, 97, 201)" stroke-opacity="1.0" stroke-linecap="round" stroke-linejoin="round" d="M 297.9415588378906 522.346923828125 C 290.2972106933594 570.1263427734375 265.1747741699219 573.4346313476562 -73.39730072021484 555.06591796875 C -78.9822769165039 469.8158264160156 -51.8045539855957 419.02099609375 -46.28164291381836 272.57049560546875 C -56.931453704833984 163.62477111816406 -81.46731567382812 128.18165588378906 -9.463531494140625 109.4113540649414 C 144.58448791503906 188.01718139648438 155.90269470214844 193.16481018066406 297.9415588378906 522.346923828125"/>
    <path stroke-width="0" fill="rgb(122, 125, 126)" opacity="1.0018522" stroke="rgb(144, 236, 18)" stroke-opacity="1.0" stroke-linecap="round" stroke-linejoin="round" d="M 557.802001953125 499.8588562011719 C 564.6090698242188 540.8244018554688 570.5844116210938 555.1404418945312 301.7772216796875 560.4790649414062 C 228.9203643798828 574.9940185546875 203.4899139404297 601.0902099609375 224.08851623535156 374.8740539550781 C 299.5007629394531 232.8297119140625 300.20831298828125 181.0607452392578 541.9352416992188 147.93988037109375 C 576.6678466796875 265.0323486328125 560.8159790039062 308.91241455078125 557.802001953125 499.8588562011719"/>
    <path stroke-width="0" fill="rgb(225, 231, 247)" opacity="0.9636336" stroke="rgb(5, 212, 198)" stroke-opacity="1.0" stroke-linecap="round" stroke-linejoin="round" d="M 368.2909240722656 528.8993530273438 C 364.5356140136719 503.1345520019531 365.5629577636719 512.2237548828125 316.1577453613281 547.2437744140625 C 398.2246398925781 521.81591796875 317.8608093261719 553.6015014648438 335.01470947265625 489.7665100097656 C 334.2790832519531 494.16583251953125 328.4088134765625 486.04486083984375 339.8673400878906 501.4787292480469 C 350.25823974609375 508.0221862792969 330.0032653808594 517.732421875 368.2909240722656 528.8993530273438"/>
    <path stroke-width="0" fill="rgb(249, 254, 248)" opacity="0.8261013" stroke="rgb(249, 203, 117)" stroke-opacity="1.0" stroke-linecap="round" stroke-linejoin="round" d="M 358.1189270019531 487.304443359375 C 282.00457763671875 550.2198486328125 355.58856201171875 533.3916625976562 340.33026123046875 491.939208984375 C 347.18585205078125 500.7264099121094 347.822509765625 490.386474609375 345.8902893066406 501.0988464355469 C 338.7978515625 492.30023193359375 368.9307556152344 468.0004577636719 312.84222412109375 472.6370544433594 C 364.7887878417969 457.39337158203125 412.8794860839844 507.7887268066406 358.1189270019531 487.304443359375"/>
    <path stroke-width="0" fill="rgb(264, 243, 257)" opacity="0.77010024" stroke="rgb(133, 105, 67)" stroke-opacity="1.0" stroke-linecap="round" stroke-linejoin="round" d="M 386.8863830566406 464.3919982910156 C 364.705322265625 523.7466430664062 238.26736450195312 576.0911865234375 254.61196899414062 636.8994140625 C 284.7398376464844 541.4782104492188 294.0196228027344 542.1718139648438 341.7516784667969 550.7489013671875 C 347.8534240722656 535.9223022460938 347.7208251953125 520.19970703125 330.8988037109375 514.19384765625 C 348.751953125 446.3945617675781 301.1852722167969 466.64581298828125 386.8863830566406 464.3919982910156"/>
    <path stroke-width="0" fill="rgb(275, 255, 262)" opacity="1.0657701" stroke="rgb(116, 144, 4)" stroke-opacity="1.0" stroke-linecap="round" stroke-linejoin="round" d="M 373.5927734375 84.26367950439453 C 367.74078369140625 90.03466033935547 251.78350830078125 79.29619598388672 377.1565246582031 79.11453247070312 C 376.79364013671875 151.9431915283203 368.66131591796875 27.870365142822266 344.062255859375 98.53353881835938 C 388.61407470703125 106.81552124023438 363.4981384277344 51.2273063659668 327.1426086425781 69.27920532226562 C 381.27703857421875 31.76238441467285 324.13018798828125 115.29999542236328 373.5927734375 84.26367950439453"/>
    <path stroke-width="0" fill="rgb(162, 183, 200)" opacity="1.0015609" stroke="rgb(156, 157, 240)" stroke-opacity="1.0" stroke-linecap="round" stroke-linejoin="round" d="M 383.73358154296875 488.9068298339844 C 386.6144714355469 538.6041259765625 378.3160705566406 522.601806640625 359.2353820800781 575.8638305664062 C 442.3702697753906 520.0819702148438 289.0660095214844 508.2457580566406 322.52252197265625 474.37847900390625 C 311.90924072265625 492.2624206542969 384.7396240234375 494.0383605957031 382.6019287109375 494.9500427246094 C 384.17974853515625 454.08172607421875 449.3539733886719 453.4006042480469 383.73358154296875 488.9068298339844"/>
    <path stroke-width="0" fill="rgb(-6, 23, 16)" opacity="0.7310544" stroke="rgb(91, 111, 177)" stroke-opacity="1.0" stroke-linecap="round" stroke-linejoin="round" d="M 353.9901428222656 77.39878845214844 C 358.4620666503906 47.68515396118164 380.9229736328125 74.01934051513672 357.4107971191406 87.68214416503906 C 350.13763427734375 133.59674072265625 382.8810119628906 50.46368408203125 341.6452941894531 61.610050201416016 C 364.820556640625 28.25669288635254 353.7322998046875 96.04586029052734 377.7598571777344 76.37039947509766 C 245.3936004638672 75.33658599853516 400.79742431640625 85.24858093261719 353.9901428222656 77.39878845214844"/>
    <path stroke-width="0" fill="rgb(146, 157, 151)" opacity="0.90373826" stroke="rgb(170, 171, 53)" stroke-opacity="1.0" stroke-linecap="round" stroke-linejoin="round" d="M 355.76129150390625 485.763671875 C 334.5491943359375 452.3509521484375 367.7967529296875 540.4281616210938 333.5569152832031 622.9065551757812 C 310.0834655761719 481.2710876464844 337.6213684082031 500.50677490234375 303.3896179199219 500.5317687988281 C 301.9456481933594 500.9100646972656 302.8288879394531 497.038818359375 355.885498046875 482.1661376953125 C 333.82464599609375 478.19000244140625 412.71881103515625 478.7265625 355.76129150390625 485.763671875"/>
    <path stroke-width="0" fill="rgb(122, 125, 126)" opacity="0.99966663" stroke="rgb(80, 92, 145)" stroke-opacity="1.0" stroke-linecap="round" stroke-linejoin="round" d="M 284.23028564453125 504.62994384765625 C 5.286202907562256 254.48260498046875 85.70045471191406 182.19754028320312 89.21282196044922 209.5737762451172 C -60.130149841308594 208.1826934814453 -56.17299270629883 192.25418090820312 -35.52338790893555 126.33963775634766 C -40.78221893310547 64.58954620361328 -46.02934265136719 48.192596435546875 -6.6934661865234375 -9.675504684448242 C 288.3966979980469 -423.35931396484375 415.8550109863281 69.34125518798828 284.23028564453125 504.62994384765625"/>
    <path stroke-width="0" fill="rgb(65, 55, 70)" opacity="0.9385084" stroke="rgb(252, 26, 53)" stroke-opacity="1.0" stroke-linecap="round" stroke-linejoin="round" d="M 345.0982971191406 438.95404052734375 C 365.4951477050781 453.9909362792969 315.3668518066406 455.76202392578125 366.87481689453125 415.7739562988281 C 294.2596740722656 409.0825500488281 327.5789489746094 433.55889892578125 361.34033203125 441.4243469238281 C 300.4429016113281 402.8114013671875 313.90301513671875 515.4811401367188 346.9852600097656 352.7032165527344 C 327.795166015625 473.9639587402344 410.30426025390625 360.7069091796875 345.0982971191406 438.95404052734375"/>
    <path stroke-width="0" fill="rgb(241, 251, 258)" opacity="1.0499285" stroke="rgb(166, 64, 118)" stroke-opacity="1.0" stroke-linecap="round" stroke-linejoin="round" d="M 329.8066101074219 241.1481475830078 C 383.85015869140625 198.79209899902344 388.080078125 182.146728515625 357.2857971191406 191.40269470214844 C 323.1526794433594 267.74444580078125 341.847900390625 207.8157196044922 339.3447570800781 188.76634216308594 C 336.5020446777344 113.39115905761719 341.92779541015625 102.67577362060547 353.6778869628906 175.0919647216797 C 357.5132751464844 186.04144287109375 347.2257995605469 224.69992065429688 329.8066101074219 241.1481475830078"/>
    <path stroke-width="0" fill="rgb(46, 53, 39)" opacity="0.61117876" stroke="rgb(40, 28, 167)" stroke-opacity="1.0" stroke-linecap="round" stroke-linejoin="round" d="M 312.66119384765625 428.9213562011719 C 455.248291015625 468.2038269042969 438.6919860839844 408.10858154296875 362.22991943359375 431.1054382324219 C 373.0708923339844 363.544921875 351.51739501953125 431.8821105957031 315.3710632324219 389.5390319824219 C 324.4292297363281 426.4365539550781 324.4381103515625 392.0723876953125 395.9569091796875 370.4063415527344 C 332.3900146484375 418.60308837890625 401.7286682128906 439.1871643066406 312.66119384765625 428.9213562011719"/>
    <path stroke-width="0" fill="rgb(237, 235, 228)" opacity="0.74240947" stroke="rgb(50, 94, 209)" stroke-opacity="1.0" stroke-linecap="round" stroke-linejoin="round" d="M 417.8245544433594 435.58734130859375 C 265.3798828125 439.945556640625 417.862060546875 487.408447265625 344.00933837890625 448.4226989746094 C 439.29864501953125 410.4994812011719 362.7264709472656 399.32989501953125 373.3988342285156 441.92864990234375 C 445.5385437011719 448.3787536621094 385.5309143066406 432.5135803222656 390.25555419921875 466.60382080078125 C 385.88934326171875 425.45452880859375 401.8376159667969 451.8653564453125 417.8245544433594 435.58734130859375"/>
    <path stroke-width="0" fill="rgb(253, 269, 253)" opacity="0.9624367" stroke="rgb(213, 24, 248)" stroke-opacity="1.0" stroke-linecap="round" stroke-linejoin="round" d="M 429.47930908203125 436.2214660644531 C 268.91583251953125 432.8797912597656 298.50115966796875 441.51422119140625 306.7171325683594 429.15655517578125 C 317.9893798828125 418.2610778808594 286.6156005859375 420.8946838378906 339.2479248046875 411.47515869140625 C 357.9049072265625 388.3140869140625 270.39501953125 417.4742431640625 305.32244873046875 448.3860168457031 C 314.7547607421875 431.4601745605469 284.3477478027344 447.36566162109375 429.47930908203125 436.2214660644531"/>
    <path stroke-width="0" fill="rgb(40, 39, 59)" opacity="0.9180923" stroke="rgb(249, 154, 188)" stroke-opacity="1.0" stroke-linecap="round" stroke-linejoin="round" d="M 344.0895080566406 194.8496551513672 C 385.56201171875 165.23556518554688 302.5770568847656 207.4036407470703 363.37420654296875 196.20416259765625 C 374.0752258300781 189.9777374267578 362.7859191894531 182.38055419921875 355.038330078125 207.56358337402344 C 364.1744689941406 209.49659729003906 371.95977783203125 191.37359619140625 330.7196044921875 244.32725524902344 C 347.7259826660156 236.98895263671875 365.36810302734375 216.2022705078125 344.0895080566406 194.8496551513672"/>
    <path stroke-width="0" fill="rgb(34, 34, 41)" opacity="0.97094494" stroke="rgb(72, 30, 75)" stroke-opacity="1.0" stroke-linecap="round" stroke-linejoin="round" d="M 384.2820129394531 363.65631103515625 C 333.1468505859375 353.374755859375 314.3437194824219 333.3985290527344 336.5204772949219 362.3537902832031 C 316.603759765625 331.9604797363281 378.5846862792969 316.5443420410156 329.0923156738281 343.54132080078125 C 314.9521484375 330.89862060546875 334.54180908203125 290.79266357421875 360.96966552734375 311.9574279785156 C 357.5235290527344 364.4770202636719 400.64410400390625 292.255859375 384.2820129394531 363.65631103515625"/>
    <path stroke-width="0" fill="rgb(255, 243, 249)" opacity="0.6383391" stroke="rgb(81, 105, 16)" stroke-opacity="1.0" stroke-linecap="round" stroke-linejoin="round" d="M 361.1402282714844 373.17108154296875 C 334.1104431152344 322.6673889160156 379.895751953125 333.76708984375 333.1332092285156 321.3416442871094 C 324.588623046875 384.22821044921875 313.75677490234375 356.5497741699219 341.52166748046875 332.9854431152344 C 340.0128479003906 292.9745178222656 358.0520935058594 353.8464050292969 361.91229248046875 324.5841979980469 C 392.6714782714844 355.211669921875 349.10284423828125 316.2170715332031 361.1402282714844 373.17108154296875"/>
    <path stroke-width="0" fill="rgb(11, -2, 17)" opacity="0.760522" stroke="rgb(144, 67, 133)" stroke-opacity="1.0" stroke-linecap="round" stroke-linejoin="round" d="M 361.0527038574219 469.58526611328125 C 351.57318115234375 399.6549987792969 363.4051818847656 478.77166748046875 350.1023864746094 449.9730529785156 C 377.7817687988281 461.80682373046875 335.0518493652344 473.62432861328125 424.7458801269531 466.4417419433594 C 384.9641418457031 483.6520080566406 342.7972717285156 460.7197570800781 359.4593505859375 467.9411315917969 C 177.92991638183594 469.4801330566406 432.3746032714844 477.1273193359375 361.0527038574219 469.58526611328125"/>
    <path stroke-width="0" fill="rgb(66, 44, 52)" opacity="0.95548874" stroke="rgb(146, 236, 81)" stroke-opacity="1.0" stroke-linecap="round" stroke-linejoin="round" d="M 350.005615234375 138.54713439941406 C 358.64263916015625 156.0900115966797 317.23272705078125 215.33816528320312 365.21728515625 152.43557739257812 C 383.8668212890625 147.804931640625 330.9098205566406 180.86851501464844 337.48760986328125 156.01414489746094 C 335.5519714355469 189.98194885253906 341.64129638671875 185.40074157714844 369.5445861816406 186.2234649658203 C 337.7087707519531 165.2758331298828 325.82586669921875 218.3917236328125 350.005615234375 138.54713439941406"/>
    <path stroke-width="0" fill="rgb(256, 235, 262)" opacity="1.0335066" stroke="rgb(33, 182, 73)" stroke-opacity="1.0" stroke-linecap="round" stroke-linejoin="round" d="M 342.94647216796875 262.68328857421875 C 320.6569519042969 223.3899688720703 340.9969177246094 239.97531127929688 340.8131103515625 254.43861389160156 C 394.8850402832031 209.17593383789062 382.798583984375 241.83383178710938 331.7057189941406 264.7416687011719 C 380.1927490234375 269.14398193359375 324.70849609375 236.44784545898438 370.1785888671875 253.4528045654297 C 318.6402893066406 263.34796142578125 329.90972900390625 286.0191650390625 342.94647216796875 262.68328857421875"/>
    <path stroke-width="0" fill="rgb(43, 2, 3)" opacity="0.7385533" stroke="rgb(172, 68, 187)" stroke-opacity="1.0" stroke-linecap="round" stroke-linejoin="round" d="M 374.77349853515625 174.99261474609375 C 380.1909484863281 228.49560546875 372.4812927246094 191.57891845703125 360.0928039550781 206.8599090576172 C 392.8747863769531 212.5991668701172 343.67626953125 185.95729064941406 365.6280822753906 200.59188842773438 C 380.9716491699219 231.74066162109375 375.89190673828125 219.1849822998047 376.22991943359375 205.2224884033203 C 359.2057189941406 203.37933349609375 373.2681884765625 198.18856811523438 374.77349853515625 174.99261474609375"/>
    <path stroke-width="0" fill="rgb(254, 249, 266)" opacity="1.0448941" stroke="rgb(63, 146, 150)" stroke-opacity="1.0" stroke-linecap="round" stroke-linejoin="round" d="M 394.4392395019531 364.6973876953125 C 374.7513427734375 345.7317810058594 352.9248046875 335.7803649902344 400.94256591796875 392.3338623046875 C 363.8186950683594 350.4005126953125 353.0096435546875 410.8175048828125 367.4771423339844 342.79156494140625 C 417.4003601074219 378.7997741699219 353.1387939453125 318.3721923828125 383.6913146972656 342.2319641113281 C 390.78271484375 288.2034606933594 351.8149108886719 363.02325439453125 394.4392395019531 364.6973876953125"/>
    <path stroke-width="0" fill="rgb(256, 261, 253)" opacity="0.69066566" stroke="rgb(56, 242, 114)" stroke-opacity="1.0" stroke-linecap="round" stroke-linejoin="round" d="M 377.8143005371094 334.00433349609375 C 349.09332275390625 312.16241455078125 381.4020080566406 322.9597473144531 332.7478942871094 357.40533447265625 C 318.7577209472656 262.9223327636719 346.0294189453125 324.692626953125 345.313720703125 258.16595458984375 C 373.8936462402344 302.59710693359375 292.9945983886719 336.82244873046875 355.3248291015625 286.48480224609375 C 374.5646057128906 217.31689453125 381.89276123046875 278.3853759765625 377.8143005371094 334.00433349609375"/>
    <path stroke-width="0" fill="rgb(245, 250, 263)" opacity="1.0074639" stroke="rgb(178, 75, 207)" stroke-opacity="1.0" stroke-linecap="round" stroke-linejoin="round" d="M 321.7319641113281 524.7304077148438 C 347.4557800292969 435.0927734375 322.4312744140625 498.06201171875 316.5590515136719 509.1434326171875 C 307.21832275390625 559.8201293945312 270.1185302734375 515.8576049804688 314.4593200683594 528.6233520507812 C 300.77301025390625 519.1876220703125 313.3341369628906 524.6052856445312 315.52734375 507.6502685546875 C 324.41162109375 502.3374328613281 308.3856201171875 529.643310546875 321.7319641113281 524.7304077148438"/>
    <path stroke-width="0" fill="rgb(247, 266, 266)" opacity="1.0678676" stroke="rgb(184, 127, 243)" stroke-opacity="1.0" stroke-linecap="round" stroke-linejoin="round" d="M 348.35076904296875 64.2109375 C 397.37890625 51.278282165527344 311.224609375 54.55176544189453 340.1629638671875 59.627777099609375 C 313.3464660644531 90.72545623779297 360.897705078125 65.98822021484375 335.939697265625 63.232086181640625 C 367.4889221191406 51.617496490478516 340.9912109375 39.7867317199707 357.0928039550781 5.906494617462158 C 341.8687438964844 81.93575286865234 405.063232421875 69.55403900146484 348.35076904296875 64.2109375"/>
    <path stroke-width="0" fill="rgb(245, 251, 252)" opacity="0.9769889" stroke="rgb(108, 154, 4)" stroke-opacity="1.0" stroke-linecap="round" stroke-linejoin="round" d="M 393.0926513671875 401.2473449707031 C 412.68109130859375 440.5639343261719 393.967529296875 431.4607849121094 410.7753601074219 413.415771484375 C 366.97125244140625 413.17578125 369.9393005371094 414.1402893066406 370.5525817871094 404.4071350097656 C 403.1841125488281 386.5680847167969 410.36279296875 418.2000732421875 382.1678466796875 382.55035400390625 C 399.6007385253906 398.4741516113281 341.7137756347656 418.91192626953125 393.0926513671875 401.2473449707031"/>
    <path stroke-width="0" fill="rgb(111, 130, 128)" opacity="0.94804573" stroke="rgb(168, 73, 157)" stroke-opacity="1.0" stroke-linecap="round" stroke-linejoin="round" d="M 338.8166198730469 36.614479064941406 C 328.5169677734375 55.97040939331055 323.1819763183594 54.34909439086914 328.5539245605469 52.94792175292969 C 343.8839416503906 53.22714614868164 340.4414367675781 59.53862762451172 332.1836853027344 16.815895080566406 C 341.5809326171875 92.34178161621094 348.42962646484375 61.98157501220703 327.96026611328125 58.79673767089844 C 345.8382568359375 43.3958854675293 354.2490539550781 46.95554733276367 338.8166198730469 36.614479064941406"/>
    <path stroke-width="0" fill="rgb(236, 241, 241)" opacity="1.0267509" stroke="rgb(34, 76, 145)" stroke-opacity="1.0" stroke-linecap="round" stroke-linejoin="round" d="M 420.2713317871094 483.2748718261719 C 427.583740234375 499.9329833984375 444.8061828613281 511.49468994140625 405.358642578125 505.1835632324219 C 403.6240234375 485.0282897949219 359.2076416015625 494.3823547363281 404.9676818847656 489.495849609375 C 422.4129943847656 521.505615234375 379.5870666503906 528.4612426757812 432.28070068359375 515.8038330078125 C 406.3915100097656 539.4800415039062 400.3978576660156 541.6842651367188 420.2713317871094 483.2748718261719"/>
    <path stroke-width="0" fill="rgb(223, 209, 227)" opacity="0.827189" stroke="rgb(146, 166, 166)" stroke-opacity="1.0" stroke-linecap="round" stroke-linejoin="round" d="M 328.18963623046875 379.17291259765625 C 378.46551513671875 364.95513916015625 325.75823974609375 288.26837158203125 369.94451904296875 407.3034973144531 C 317.09564208984375 346.8410949707031 351.67059326171875 376.6458435058594 345.3501281738281 347.78961181640625 C 374.90875244140625 360.5249328613281 343.1609802246094 322.2115478515625 321.0276184082031 389.0256042480469 C 314.1371154785156 379.5923767089844 332.1512756347656 385.8203125 328.18963623046875 379.17291259765625"/>
    <path stroke-width="0" fill="rgb(250, 258, 241)" opacity="1.0039397" stroke="rgb(228, 93, 111)" stroke-opacity="1.0" stroke-linecap="round" stroke-linejoin="round" d="M 371.9234619140625 404.5843505859375 C 396.9420471191406 403.3444519042969 354.6737060546875 400.4795837402344 376.7757263183594 383.20361328125 C 399.7765197753906 393.9480895996094 404.2525634765625 400.98126220703125 366.4952392578125 367.8841857910156 C 410.03558349609375 418.26123046875 372.10491943359375 390.06170654296875 388.3020324707031 405.3960266113281 C 389.5122375488281 370.16265869140625 354.58251953125 417.69842529296875 371.9234619140625 404.5843505859375"/>
    <path stroke-width="0" fill="rgb(21, -5, 0)" opacity="0.8395219" stroke="rgb(205, 179, 25)" stroke-opacity="1.0" stroke-linecap="round" stroke-linejoin="round" d="M 341.3454284667969 244.606201171875 C 350.29522705078125 238.16574096679688 399.02996826171875 264.2755126953125 352.8830261230469 286.7620849609375 C 347.5743713378906 200.34304809570312 360.4012756347656 150.95431518554688 354.3210754394531 234.02053833007812 C 329.42156982421875 239.4253692626953 350.0887145996094 240.5029296875 349.0365905761719 239.97076416015625 C 372.9066162109375 200.12261962890625 349.8428649902344 232.45932006835938 341.3454284667969 244.606201171875"/>
    <path stroke-width="0" fill="rgb(251, 253, 248)" opacity="1.0494264" stroke="rgb(182, 254, 38)" stroke-opacity="1.0" stroke-linecap="round" stroke-linejoin="round" d="M 389.56475830078125 479.5373840332031 C 389.3231201171875 519.71826171875 424.3149108886719 476.98760986328125 375.4479064941406 543.4523315429688 C 380.0926513671875 513.611083984375 372.9058837890625 496.79095458984375 385.1468505859375 537.4976806640625 C 398.59600830078125 537.6722412109375 403.4391174316406 534.2794799804688 386.9033508300781 535.0669555664062 C 400.1329345703125 477.51043701171875 383.028076171875 528.5042724609375 389.56475830078125 479.5373840332031"/>
    <path stroke-width="0" fill="rgb(262, 266, 258)" opacity="1.0312973" stroke="rgb(41, 156, 31)" stroke-opacity="1.0" stroke-linecap="round" stroke-linejoin="round" d="M 353.61810302734375 43.62530517578125 C 358.8695983886719 53.684242248535156 342.0863037109375 43.8796272277832 331.86773681640625 43.368080139160156 C 355.22650146484375 73.1439437866211 340.9868469238281 13.63753604888916 372.0317077636719 77.012451171875 C 391.24261474609375 73.45638275146484 345.9129943847656 45.261268615722656 353.0111999511719 48.36368179321289 C 324.9434509277344 46.89614486694336 353.593505859375 50.543922424316406 353.61810302734375 43.62530517578125"/>
    <path stroke-width="0" fill="rgb(217, 213, 202)" opacity="1.0613261" stroke="rgb(205, 145, 103)" stroke-opacity="1.0" stroke-linecap="round" stroke-linejoin="round" d="M 338.3858337402344 140.70924377441406 C 348.5767517089844 115.41594696044922 393.08349609375 173.11488342285156 357.2135925292969 120.55812072753906 C 332.20037841796875 128.187255859375 342.4139709472656 79.47515106201172 370.860107421875 104.65546417236328 C 343.9954528808594 91.30363464355469 360.8482971191406 127.76779174804688 354.4016418457031 140.18023681640625 C 352.4041442871094 111.36175537109375 371.6292419433594 126.31039428710938 338.3858337402344 140.70924377441406"/>
    <path stroke-width="0" fill="rgb(103, 102, 83)" opacity="0.9908373" stroke="rgb(177, 115, 184)" stroke-opacity="1.0" stroke-linecap="round" stroke-linejoin="round" d="M 353.82305908203125 238.61724853515625 C 333.3499755859375 245.9017791748047 389.979248046875 212.68045043945312 349.4920959472656 225.7905731201172 C 394.4410705566406 292.7648010253906 374.31390380859375 248.5927734375 380.05859375 236.91622924804688 C 378.4822692871094 247.84634399414062 365.76397705078125 221.04051208496094 361.1150817871094 221.0625 C 378.0485534667969 238.24609375 345.89080810546875 206.9079132080078 353.82305908203125 238.61724853515625"/>
    <path stroke-width="0" fill="rgb(43, 21, 36)" opacity="0.7449419" stroke="rgb(248, 218, 2)" stroke-opacity="1.0" stroke-linecap="round" stroke-linejoin="round" d="M 315.69775390625 503.8284912109375 C 320.7305603027344 492.54638671875 321.3443908691406 533.2801513671875 316.7871398925781 550.7275390625 C 294.98492431640625 535.70263671875 294.6595153808594 522.1812133789062 321.8619079589844 464.37481689453125 C 279.6800231933594 495.9899597167969 332.3778991699219 488.7707824707031 325.2663879394531 495.62200927734375 C 268.71343994140625 487.8286437988281 269.3423156738281 524.7063598632812 315.69775390625 503.8284912109375"/>
    <path stroke-width="0" fill="rgb(247, 245, 255)" opacity="1.0217516" stroke="rgb(186, 43, 132)" stroke-opacity="1.0" stroke-linecap="round" stroke-linejoin="round" d="M 306.9765319824219 515.9121704101562 C 325.963623046875 487.6251220703125 265.83642578125 532.8919067382812 294.7554016113281 487.3010559082031 C 313.20330810546875 517.0595703125 343.4212341308594 477.20538330078125 296.40673828125 498.9459533691406 C 316.25189208984375 509.8000793457031 329.3942565917969 473.67999267578125 296.7699279785156 512.438720703125 C 302.5101623535156 487.0781555175781 278.6619567871094 509.2388916015625 306.9765319824219 515.9121704101562"/>
    <path stroke-width="0" fill="rgb(234, 253, 245)" opacity="0.9397775" stroke="rgb(50, 4, 202)" stroke-opacity="1.0" stroke-linecap="round" stroke-linejoin="round" d="M 367.7560729980469 247.10487365722656 C 354.0501403808594 261.8309631347656 333.4598083496094 257.4308166503906 374.6628112792969 240.47242736816406 C 363.0753173828125 232.04800415039062 329.3061218261719 233.65159606933594 326.396728515625 286.5822448730469 C 329.4844055175781 258.084228515625 336.027587890625 242.43614196777344 358.53961181640625 215.41326904296875 C 374.4489440917969 230.34469604492188 380.2897033691406 221.83261108398438 367.7560729980469 247.10487365722656"/>
    <path stroke-width="0" fill="rgb(236, 242, 237)" opacity="1.0389923" stroke="rgb(88, 236, 179)" stroke-opacity="1.0" stroke-linecap="round" stroke-linejoin="round" d="M 342.7701416015625 140.5547637939453 C 379.1804504394531 189.76991271972656 349.8269348144531 162.2239990234375 364.6711120605469 87.4229507446289 C 378.8300476074219 87.68255615234375 356.7926330566406 116.27992248535156 377.7481384277344 137.51190185546875 C 337.8109436035156 99.61400604248047 342.4427185058594 142.93557739257812 362.1834716796875 114.27020263671875 C 323.4386291503906 94.56726837158203 382.8751220703125 153.94235229492188 342.7701416015625 140.5547637939453"/>
    <path stroke-width="0" fill="rgb(265, 256, 267)" opacity="0.9471942" stroke="rgb(41, 158, 147)" stroke-opacity="1.0" stroke-linecap="round" stroke-linejoin="round" d="M 395.27362060546875 428.59228515625 C 420.818359375 421.6690368652344 418.2214050292969 462.29248046875 417.3427429199219 412.6794128417969 C 402.64031982421875 445.3936462402344 410.4280700683594 391.3701171875 398.2349853515625 404.89385986328125 C 401.2827453613281 410.25738525390625 429.2081298828125 428.8462219238281 396.3028259277344 410.2796325683594 C 364.6792907714844 420.8235168457031 396.5833740234375 386.7580261230469 395.27362060546875 428.59228515625"/>
    <path stroke-width="0" fill="rgb(88, 99, 114)" opacity="0.8434263" stroke="rgb(238, 156, 136)" stroke-opacity="1.0" stroke-linecap="round" stroke-linejoin="round" d="M 358.4493713378906 26.5820369720459 C 356.81207275390625 66.1832275390625 337.4976501464844 52.654197692871094 327.0472717285156 45.66647720336914 C 336.8506164550781 52.0080680847168 333.5395202636719 48.97260665893555 338.6894836425781 58.20139694213867 C 332.91064453125 43.580379486083984 322.56988525390625 34.73283004760742 359.1586608886719 47.98756408691406 C 358.3575134277344 23.1595516204834 360.4389343261719 48.77565002441406 358.4493713378906 26.5820369720459"/>
    <path stroke-width="0" fill="rgb(117, 111, 118)" opacity="1.0928893" stroke="rgb(186, 79, 101)" stroke-opacity="1.0" stroke-linecap="round" stroke-linejoin="round" d="M 330.3760070800781 221.74761962890625 C 358.1946716308594 194.17417907714844 353.36260986328125 199.60409545898438 352.67364501953125 241.99203491210938 C 368.11279296875 240.64630126953125 341.0775146484375 180.17971801757812 360.9757080078125 202.1573486328125 C 319.5125427246094 219.55088806152344 362.0547180175781 214.92279052734375 369.9149475097656 229.39810180664062 C 312.99932861328125 207.22044372558594 350.67059326171875 206.70472717285156 330.3760070800781 221.74761962890625"/>
    <path stroke-width="0" fill="rgb(241, 227, 236)" opacity="0.99797964" stroke="rgb(47, 240, 188)" stroke-opacity="1.0" stroke-linecap="round" stroke-linejoin="round" d="M 370.9776611328125 224.55374145507812 C 392.9375305175781 261.2087097167969 343.98126220703125 294.4189758300781 362.4741516113281 270.67572021484375 C 295.9598693847656 295.6230773925781 356.05926513671875 265.5341491699219 364.0767822265625 250.70263671875 C 333.03857421875 251.7160186767578 354.76312255859375 221.65606689453125 364.92523193359375 233.43783569335938 C 353.62860107421875 273.1840515136719 337.57061767578125 252.4634246826172 370.9776611328125 224.55374145507812"/>
    <path stroke-width="0" fill="rgb(48, 43, 44)" opacity="0.60831255" stroke="rgb(57, 64, 14)" stroke-opacity="1.0" stroke-linecap="round" stroke-linejoin="round" d="M 355.55267333984375 217.7176513671875 C 360.2283020019531 198.96316528320312 334.4060363769531 213.13638305664062 373.8258361816406 231.4464874267578 C 347.2767333984375 256.8560791015625 324.6075439453125 240.1348114013672 368.561767578125 220.18043518066406 C 365.08380126953125 265.7519226074219 368.4012756347656 213.4833526611328 342.5540466308594 271.0547790527344 C 371.0397033691406 203.60064697265625 336.3615417480469 233.34902954101562 355.55267333984375 217.7176513671875"/>
    <path stroke-width="0" fill="rgb(37, 40, 28)" opacity="0.7751225" stroke="rgb(79, 177, 96)" stroke-opacity="1.0" stroke-linecap="round" stroke-linejoin="round" d="M 377.0831298828125 297.0438232421875 C 368.30731201171875 303.91241455078125 366.6027526855469 282.8211975097656 358.06402587890625 316.87115478515625 C 382.48736572265625 336.830322265625 370.4188537597656 298.5540466308594 371.105712890625 313.7903137207031 C 366.14154052734375 239.64007568359375 399.7635498046875 254.21116638183594 358.98797607421875 302.8958435058594 C 350.811767578125 303.54180908203125 361.8523864746094 318.4757080078125 377.0831298828125 297.0438232421875"/>
    <path stroke-width="0" fill="rgb(91, 61, 82)" opacity="1.019346" stroke="rgb(6, 17, 173)" stroke-opacity="1.0" stroke-linecap="round" stroke-linejoin="round" d="M 397.8996276855469 400.0283203125 C 408.60784912109375 382.1318359375 340.0751647949219 390.61480712890625 394.6399841308594 392.4814147949219 C 400.01312255859375 438.0389404296875 403.4867248535156 444.7660827636719 404.3449401855469 415.4506530761719 C 379.4223937988281 297.713134765625 385.193359375 392.8591613769531 405.7655334472656 402.9612731933594 C 389.0813293457031 422.7281494140625 419.1347351074219 420.135009765625 397.8996276855469 400.0283203125"/>
    <path stroke-width="0" fill="rgb(29, 0, 0)" opacity="0.7920048" stroke="rgb(136, 228, 252)" stroke-opacity="1.0" stroke-linecap="round" stroke-linejoin="round" d="M 335.603271484375 157.028076171875 C 388.9161682128906 115.5028076171875 370.514404296875 111.72672271728516 363.4189453125 129.1617431640625 C 361.07769775390625 145.61607360839844 370.7154235839844 127.08723449707031 369.10693359375 146.63400268554688 C 375.353271484375 155.03216552734375 379.2619934082031 108.34354400634766 354.69427490234375 122.74737548828125 C 352.3207702636719 109.00431060791016 390.319580078125 107.72445678710938 335.603271484375 157.028076171875"/>
    <path stroke-width="0" fill="rgb(29, 33, 54)" opacity="0.6939244" stroke="rgb(169, 67, 5)" stroke-opacity="1.0" stroke-linecap="round" stroke-linejoin="round" d="M 343.06085205078125 260.6031188964844 C 350.0484924316406 285.2423095703125 354.9909973144531 287.5057678222656 369.15576171875 293.8610534667969 C 373.7062072753906 270.7149353027344 340.99725341796875 326.5827941894531 349.1050109863281 296.788818359375 C 350.61358642578125 243.0440673828125 336.1019592285156 285.47564697265625 355.4332580566406 269.36004638671875 C 354.2367248535156 279.53662109375 346.3533935546875 285.4628601074219 343.06085205078125 260.6031188964844"/>
    <path stroke-width="0" fill="rgb(265, 266, 249)" opacity="0.61244607" stroke="rgb(81, 97, 150)" stroke-opacity="1.0" stroke-linecap="round" stroke-linejoin="round" d="M 367.4928283691406 189.17706298828125 C 338.9761657714844 114.59868621826172 362.7979431152344 235.1327667236328 372.720947265625 169.6374053955078 C 367.32037353515625 140.56033325195312 343.2588195800781 157.81082153320312 374.2442321777344 99.20713806152344 C 321.15380859375 162.12586975097656 338.4896545410156 105.5718002319336 373.8553771972656 115.63611602783203 C 318.79595947265625 139.6005859375 365.4911804199219 116.04026794433594 367.4928283691406 189.17706298828125"/>
    <path stroke-width="0" fill="rgb(40, 8, 26)" opacity="0.69770485" stroke="rgb(160, 222, 69)" stroke-opacity="1.0" stroke-linecap="round" stroke-linejoin="round" d="M 364.3848571777344 267.4598693847656 C 375.8890686035156 238.43289184570312 383.31475830078125 245.94667053222656 339.6880798339844 244.0157012939453 C 343.96234130859375 258.4666748046875 332.52252197265625 282.1585998535156 337.53851318359375 216.65130615234375 C 332.8725280761719 203.14610290527344 329.93243408203125 249.4041748046875 338.8066101074219 252.37692260742188 C 382.6814270019531 219.52157592773438 362.679443359375 179.99107360839844 364.3848571777344 267.4598693847656"/>
    <path stroke-width="0" fill="rgb(56, 27, 42)" opacity="0.958011" stroke="rgb(47, 242, 175)" stroke-opacity="1.0" stroke-linecap="round" stroke-linejoin="round" d="M 360.9780578613281 307.23504638671875 C 372.8930969238281 352.4463806152344 396.0802001953125 252.70103454589844 379.3528137207031 331.6139221191406 C 345.52581787109375 303.6007995605469 365.9506530761719 246.0659942626953 325.3304443359375 297.8251953125 C 376.8522033691406 253.85157775878906 340.97601318359375 284.488037109375 351.2641906738281 299.6941833496094 C 376.0991516113281 268.7662658691406 338.653076171875 277.7424011230469 360.9780578613281 307.23504638671875"/>
    <path stroke-width="0" fill="rgb(20, 3, 0)" opacity="0.8232511" stroke="rgb(241, 186, 64)" stroke-opacity="1.0" stroke-linecap="round" stroke-linejoin="round" d="M 357.28216552734375 303.436767578125 C 331.49127197265625 287.24591064453125 379.9576110839844 280.3963317871094 348.1105651855469 288.0914001464844 C 359.851806640625 281.462158203125 356.1357727050781 254.88319396972656 351.9787292480469 273.3709716796875 C 373.23956298828125 274.9859313964844 365.7868957519531 248.14718627929688 344.9106750488281 298.2594299316406 C 365.37127685546875 288.2937927246094 335.7915344238281 304.8745422363281 357.28216552734375 303.436767578125"/>
    <path stroke-width="0" fill="rgb(247, 244, 267)" opacity="1.023283" stroke="rgb(132, 6, 52)" stroke-opacity="1.0" stroke-linecap="round" stroke-linejoin="round" d="M 366.6518859863281 315.17333984375 C 331.6474609375 321.1234436035156 376.64544677734375 327.2803039550781 383.0449523925781 316.43280029296875 C 351.6287841796875 320.6231994628906 375.4337463378906 299.0797424316406 374.4120788574219 320.6814880371094 C 374.3338317871094 339.8939514160156 400.5097961425781 327.8907165527344 369.3922119140625 328.397705078125 C 391.85205078125 311.41412353515625 377.0919494628906 354.15155029296875 366.6518859863281 315.17333984375"/>
    <path stroke-width="0" fill="rgb(9, 0, 5)" opacity="0.60641444" stroke="rgb(220, 29, 131)" stroke-opacity="1.0" stroke-linecap="round" stroke-linejoin="round" d="M 353.3727111816406 361.421630859375 C 372.8717346191406 372.7533264160156 351.7809753417969 340.6584167480469 366.1739196777344 344.07659912109375 C 334.8674621582031 428.6400451660156 343.9491882324219 368.9024658203125 364.5716552734375 394.85638427734375 C 353.1286926269531 401.4098815917969 380.2021179199219 419.3407287597656 361.66851806640625 370.5677795410156 C 346.7984619140625 437.595703125 354.0292663574219 338.53472900390625 353.3727111816406 361.421630859375"/>
    <path stroke-width="0" fill="rgb(246, 233, 256)" opacity="0.967457" stroke="rgb(182, 100, 144)" stroke-opacity="1.0" stroke-linecap="round" stroke-linejoin="round" d="M 352.46661376953125 375.9747314453125 C 312.7718200683594 369.91217041015625 316.70098876953125 423.525146484375 343.0201110839844 395.80615234375 C 336.3622741699219 374.6491394042969 343.67559814453125 360.95489501953125 342.1482238769531 371.6143493652344 C 294.8719787597656 344.20086669921875 358.3858947753906 348.9465637207031 321.72607421875 385.92315673828125 C 332.6339416503906 353.42462158203125 309.48297119140625 361.57330322265625 352.46661376953125 375.9747314453125"/>
    <path stroke-width="0" fill="rgb(127, 125, 128)" opacity="0.75793517" stroke="rgb(36, 124, 90)" stroke-opacity="1.0" stroke-linecap="round" stroke-linejoin="round" d="M 424.1047668457031 457.4464111328125 C 397.4278564453125 496.9555358886719 389.0550842285156 475.49755859375 372.21636962890625 483.51312255859375 C 390.04254150390625 477.68505859375 373.92864990234375 482.24072265625 391.9350891113281 474.4791259765625 C 389.21356201171875 471.1106872558594 379.4374694824219 470.0627746582031 410.3004455566406 484.7186279296875 C 393.0802917480469 478.9468078613281 430.72705078125 479.61083984375 424.1047668457031 457.4464111328125"/>
    <path stroke-width="0" fill="rgb(31, 10, 19)" opacity="0.7653242" stroke="rgb(195, 190, 230)" stroke-opacity="1.0" stroke-linecap="round" stroke-linejoin="round" d="M 314.69293212890625 399.32965087890625 C 320.58740234375 395.82720947265625 312.49749755859375 412.88671875 351.59588623046875 430.7939453125 C 296.3111267089844 397.8694763183594 337.82989501953125 431.48663330078125 300.5693359375 471.1739807128906 C 324.0595397949219 357.0214538574219 352.6739807128906 415.86187744140625 318.8924560546875 376.4002685546875 C 343.6885681152344 425.34820556640625 358.0417785644531 384.7083740234375 314.69293212890625 399.32965087890625"/>
    <path stroke-width="0" fill="rgb(38, 37, 51)" opacity="0.79880923" stroke="rgb(140, 149, 245)" stroke-opacity="1.0" stroke-linecap="round" stroke-linejoin="round" d="M 352.8468017578125 328.4754943847656 C 331.824462890625 371.23626708984375 370.406005859375 318.7629699707031 336.1012268066406 346.36907958984375 C 321.78271484375 358.5585632324219 364.46142578125 265.38055419921875 328.8188781738281 334.3124084472656 C 316.0269775390625 346.8871765136719 328.12310791015625 336.02197265625 328.07464599609375 332.8645935058594 C 322.6677551269531 336.2618713378906 315.7481689453125 334.2158508300781 352.8468017578125 328.4754943847656"/>
    <path stroke-width="0" fill="rgb(32, 45, 41)" opacity="0.512313" stroke="rgb(16, 123, 249)" stroke-opacity="1.0" stroke-linecap="round" stroke-linejoin="round" d="M 303.9665832519531 417.6430358886719 C 332.6161804199219 408.6524658203125 273.47381591796875 454.7784729003906 315.24310302734375 429.0256652832031 C 314.79150390625 463.35931396484375 322.11883544921875 447.6407775878906 306.9870910644531 454.7596740722656 C 328.0198669433594 438.4336242675781 346.7936706542969 421.0696716308594 317.0704650878906 444.6794128417969 C 351.1614685058594 368.9913024902344 320.14910888671875 424.88751220703125 303.9665832519531 417.6430358886719"/>
    <path stroke-width="0" fill="rgb(233, 246, 262)" opacity="0.75087595" stroke="rgb(86, 245, 59)" stroke-opacity="1.0" stroke-linecap="round" stroke-linejoin="round" d="M 331.357177734375 284.7802429199219 C 347.3794250488281 286.6953125 327.1197204589844 293.2857971191406 369.45050048828125 280.8143615722656 C 330.3077697753906 295.2244873046875 333.5251770019531 258.0429382324219 331.73931884765625 292.92352294921875 C 352.6307067871094 284.9791259765625 354.14849853515625 273.66973876953125 346.6376647949219 294.433349609375 C 316.0889892578125 273.152587890625 373.4859313964844 311.44769287109375 331.357177734375 284.7802429199219"/>
    <path stroke-width="0" fill="rgb(54, 81, 63)" opacity="0.6757216" stroke="rgb(240, 203, 160)" stroke-opacity="1.0" stroke-linecap="round" stroke-linejoin="round" d="M 358.3703918457031 280.56768798828125 C 344.9415283203125 278.99169921875 388.72314453125 302.3345031738281 378.4508361816406 268.07989501953125 C 367.98406982421875 280.57135009765625 379.1939392089844 281.8609924316406 369.3607482910156 292.2458801269531 C 358.1571044921875 265.1275939941406 397.6250305175781 282.50640869140625 354.9513854980469 285.44879150390625 C 356.1618957519531 296.8448486328125 350.6708679199219 296.52032470703125 358.3703918457031 280.56768798828125"/>
    <path stroke-width="0" fill="rgb(10, 2, -10)" opacity="0.4441484" stroke="rgb(74, 216, 157)" stroke-opacity="1.0" stroke-linecap="round" stroke-linejoin="round" d="M 367.9242248535156 418.4203186035156 C 372.9869384765625 411.3326721191406 371.166748046875 406.09405517578125 365.5995788574219 416.8974914550781 C 378.5517883300781 397.68658447265625 366.69073486328125 349.2665710449219 364.13189697265625 412.36932373046875 C 338.423583984375 348.97003173828125 352.9576416015625 390.59210205078125 347.5184631347656 386.0574951171875 C 364.72100830078125 403.3707275390625 355.981201171875 397.52520751953125 367.9242248535156 418.4203186035156"/>
    <path stroke-width="0" fill="rgb(21, 0, 0)" opacity="0.8962085" stroke="rgb(126, 163, 93)" stroke-opacity="1.0" stroke-linecap="round" stroke-linejoin="round" d="M 364.43719482421875 106.14061737060547 C 353.3640441894531 93.68795776367188 352.1694030761719 88.30558013916016 342.5072326660156 86.98981475830078 C 372.54339599609375 120.70806884765625 322.1230163574219 87.11088562011719 357.75927734375 112.53984832763672 C 382.6070861816406 88.14692687988281 349.05096435546875 92.06387329101562 350.091064453125 102.14122772216797 C 350.3595886230469 104.21968078613281 337.6749572753906 91.91265869140625 364.43719482421875 106.14061737060547"/>
    <path stroke-width="0" fill="rgb(110, 77, 79)" opacity="0.6899366" stroke="rgb(24, 219, 248)" stroke-opacity="1.0" stroke-linecap="round" stroke-linejoin="round" d="M 361.7445068359375 436.0942687988281 C 368.3060302734375 373.4225158691406 382.51904296875 412.8564147949219 354.77313232421875 375.3470458984375 C 366.3215026855469 404.564697265625 370.28271484375 361.9925842285156 360.4974060058594 351.2487487792969 C 385.5671691894531 406.8514404296875 396.0882263183594 350.45880126953125 357.9886474609375 369.66357421875 C 378.6576843261719 398.7952575683594 361.0429382324219 420.0657043457031 361.7445068359375 436.0942687988281"/>
    <path stroke-width="0" fill="rgb(248, 259, 258)" opacity="0.77740353" stroke="rgb(231, 197, 84)" stroke-opacity="1.0" stroke-linecap="round" stroke-linejoin="round" d="M 355.831787109375 219.81967163085938 C 366.36181640625 245.37542724609375 380.4277038574219 220.04876708984375 360.3474426269531 223.5177764892578 C 399.16778564453125 214.62399291992188 353.57452392578125 253.31661987304688 371.6265869140625 238.4237823486328 C 362.1275329589844 249.31544494628906 368.6544189453125 258.0133972167969 366.4431457519531 207.35499572753906 C 394.47406005859375 243.8401336669922 357.6710205078125 248.98794555664062 355.831787109375 219.81967163085938"/>
    <path stroke-width="0" fill="rgb(185, 178, 165)" opacity="0.68510616" stroke="rgb(103, 59, 33)" stroke-opacity="1.0" stroke-linecap="round" stroke-linejoin="round" d="M 366.9095764160156 363.8568420410156 C 384.1652526855469 349.34722900390625 392.9783020019531 339.4666442871094 365.35650634765625 351.042724609375 C 370.5125427246094 329.2665100097656 381.6652526855469 347.0751037597656 411.2263488769531 363.4963073730469 C 388.8949279785156 348.3570251464844 375.6747741699219 328.313232421875 361.3984680175781 359.2051696777344 C 375.96160888671875 391.9537658691406 362.4674072265625 405.3187561035156 366.9095764160156 363.8568420410156"/>
    <path stroke-width="0" fill="rgb(97, 119, 110)" opacity="0.8133077" stroke="rgb(107, 142, 219)" stroke-opacity="1.0" stroke-linecap="round" stroke-linejoin="round" d="M 390.745849609375 346.04229736328125 C 404.0331726074219 378.689697265625 417.9857482910156 424.357666015625 420.71441650390625 409.2386779785156 C 422.95330810546875 405.82550048828125 409.72979736328125 438.5024108886719 410.656982421875 392.6383972167969 C 419.1558837890625 421.7830505371094 436.40875244140625 410.7334899902344 400.64239501953125 409.0829162597656 C 411.3642578125 392.0773010253906 420.7417297363281 412.4036560058594 390.745849609375 346.04229736328125"/>
    <path stroke-width="0" fill="rgb(105, 94, 105)" opacity="0.47691393" stroke="rgb(68, 33, 14)" stroke-opacity="1.0" stroke-linecap="round" stroke-linejoin="round" d="M 354.6499938964844 311.16015625 C 359.228515625 320.553955078125 334.2727966308594 288.9385681152344 353.28778076171875 328.190673828125 C 363.0611267089844 333.69647216796875 359.7477722167969 294.1868591308594 387.6421203613281 336.7765197753906 C 389.7821960449219 332.30499267578125 383.5423583984375 332.0397033691406 391.25238037109375 331.3184814453125 C 359.7181701660156 311.7270812988281 363.3360290527344 317.5213623046875 354.6499938964844 311.16015625"/>
    <path stroke-width="0" fill="rgb(184, 179, 179)" opacity="0.73206276" stroke="rgb(66, 116, 174)" stroke-opacity="1.0" stroke-linecap="round" stroke-linejoin="round" d="M 370.92266845703125 405.878173828125 C 383.99560546875 378.4619445800781 342.7837219238281 379.187744140625 357.19000244140625 390.7272644042969 C 331.33526611328125 397.04931640625 348.8934326171875 425.18292236328125 314.9501647949219 372.7839660644531 C 336.60211181640625 396.5783386230469 333.9648132324219 421.7566223144531 370.6338195800781 379.4595031738281 C 359.64935302734375 378.5224914550781 379.9982604980469 379.59429931640625 370.92266845703125 405.878173828125"/>
    <path stroke-width="0" fill="rgb(55, 63, 81)" opacity="0.7687562" stroke="rgb(72, 96, 46)" stroke-opacity="1.0" stroke-linecap="round" stroke-linejoin="round" d="M 371.0465393066406 433.923828125 C 379.1518249511719 428.7614440917969 370.223876953125 399.1811828613281 412.3539123535156 425.70147705078125 C 379.70733642578125 405.4000244140625 383.0943298339844 396.1842041015625 384.14166259765625 437.1927185058594 C 393.3604736328125 373.6943054199219 386.0457763671875 418.0653076171875 369.4374084472656 419.10906982421875 C 366.6029357910156 394.00653076171875 395.84375 444.03717041015625 371.0465393066406 433.923828125"/>
    <path stroke-width="0" fill="rgb(203, 216, 219)" opacity="0.7584758" stroke="rgb(66, 95, 149)" stroke-opacity="1.0" stroke-linecap="round" stroke-linejoin="round" d="M 334.7616271972656 323.3075866699219 C 322.4126892089844 297.6280822753906 332.9728698730469 323.0561828613281 331.3783264160156 341.5994567871094 C 363.4787902832031 312.0841369628906 357.284912109375 337.1416015625 349.1000671386719 327.36444091796875 C 345.1950378417969 380.0631408691406 319.4344787597656 317.6656188964844 334.2884216308594 327.0902099609375 C 349.6624755859375 317.4934387207031 333.66424560546875 347.62298583984375 334.7616271972656 323.3075866699219"/>
    <path stroke-width="0" fill="rgb(215, 196, 198)" opacity="0.78620774" stroke="rgb(203, 19, 132)" stroke-opacity="1.0" stroke-linecap="round" stroke-linejoin="round" d="M 335.41375732421875 91.62553405761719 C 332.8674011230469 109.53874206542969 359.8614501953125 89.81086730957031 378.1880187988281 111.20800018310547 C 368.44720458984375 114.34309387207031 354.2883605957031 88.19102478027344 370.6065673828125 85.74825286865234 C 324.33026123046875 101.76261901855469 339.828369140625 74.76908874511719 343.6258544921875 107.67924499511719 C 351.09100341796875 100.38993072509766 348.2849426269531 89.89695739746094 335.41375732421875 91.62553405761719"/>
    <path stroke-width="0" fill="rgb(120, 126, 123)" opacity="0.3745024" stroke="rgb(147, 244, 164)" stroke-opacity="1.0" stroke-linecap="round" stroke-linejoin="round" d="M 329.69091796875 107.86762237548828 C 379.2855224609375 99.29298400878906 400.1787414550781 80.45271301269531 351.68072509765625 70.48775482177734 C 396.9609375 84.31143188476562 387.656005859375 88.00627136230469 395.4573059082031 114.88179779052734 C 368.7774658203125 143.2257537841797 365.4233703613281 85.7889404296875 361.36126708984375 86.63118743896484 C 387.4179992675781 101.73446655273438 412.75933837890625 105.12848663330078 329.69091796875 107.86762237548828"/>
    <path stroke-width="0" fill="rgb(175, 194, 186)" opacity="0.53329885" stroke="rgb(109, 130, 136)" stroke-opacity="1.0" stroke-linecap="round" stroke-linejoin="round" d="M 366.31005859375 286.0068664550781 C 395.27679443359375 270.8759765625 369.2608947753906 285.2334899902344 378.3068542480469 278.5135498046875 C 391.9174499511719 278.9277038574219 351.5029296875 277.15924072265625 380.7379455566406 283.0360107421875 C 340.2618408203125 295.6418762207031 347.5247802734375 256.2445373535156 339.5788269042969 270.9859313964844 C 356.89349365234375 275.21490478515625 323.2864990234375 279.0048828125 366.31005859375 286.0068664550781"/>
    <path stroke-width="0" fill="rgb(42, 28, 45)" opacity="0.91225106" stroke="rgb(47, 230, 138)" stroke-opacity="1.0" stroke-linecap="round" stroke-linejoin="round" d="M 381.5914306640625 491.1954040527344 C 419.6397399902344 476.7911682128906 389.6816101074219 477.3161926269531 426.7860107421875 486.4818420410156 C 418.12493896484375 485.0594787597656 429.9121398925781 461.6836242675781 413.0232849121094 490.85223388671875 C 411.7485656738281 493.9527587890625 387.035400390625 542.6702880859375 420.9336853027344 487.0655517578125 C 411.3313293457031 496.41754150390625 432.9395446777344 471.72296142578125 381.5914306640625 491.1954040527344"/>
    <path stroke-width="0" fill="rgb(130, 120, 132)" opacity="0.34426644" stroke="rgb(224, 116, 184)" stroke-opacity="1.0" stroke-linecap="round" stroke-linejoin="round" d="M 366.7825622558594 113.35491180419922 C 399.3128967285156 109.97727966308594 377.1276550292969 106.53245544433594 361.30596923828125 86.8450698852539 C 356.5810546875 116.42163848876953 366.9108581542969 127.5281753540039 390.8815612792969 87.3423843383789 C 369.8291320800781 108.57502746582031 342.4814453125 81.1254653930664 317.2664794921875 135.39697265625 C 333.3966979980469 101.88418579101562 350.5240783691406 106.32787322998047 366.7825622558594 113.35491180419922"/>
    <path stroke-width="0" fill="rgb(120, 129, 131)" opacity="0.42847311" stroke="rgb(230, 175, 178)" stroke-opacity="1.0" stroke-linecap="round" stroke-linejoin="round" d="M 393.74163818359375 96.24734497070312 C 399.8547058105469 52.523719787597656 397.6968078613281 70.59136962890625 386.1120300292969 96.68862915039062 C 387.3828125 96.6486587524414 415.02239990234375 94.79983520507812 402.6069030761719 86.5584716796875 C 366.3851623535156 121.94098663330078 327.6050109863281 95.65702056884766 321.5344543457031 101.04148864746094 C 341.7684631347656 118.05655670166016 347.6905822753906 87.64019012451172 393.74163818359375 96.24734497070312"/>
    <path stroke-width="0" fill="rgb(219, 199, 220)" opacity="0.8458427" stroke="rgb(192, 162, 61)" stroke-opacity="1.0" stroke-linecap="round" stroke-linejoin="round" d="M 357.9189453125 344.06573486328125 C 373.9752197265625 319.35443115234375 354.8716125488281 331.61846923828125 359.60516357421875 334.1834411621094 C 374.2783508300781 338.7674560546875 360.786865234375 337.01434326171875 353.88372802734375 322.07171630859375 C 353.6797790527344 344.2331237792969 370.8512268066406 334.209716796875 364.16729736328125 332.5690612792969 C 389.2481994628906 326.2901611328125 392.1573181152344 314.355224609375 357.9189453125 344.06573486328125"/>
    <path stroke-width="0" fill="rgb(211, 197, 213)" opacity="0.5873542" stroke="rgb(203, 244, 116)" stroke-opacity="1.0" stroke-linecap="round" stroke-linejoin="round" d="M 395.981201171875 400.0807189941406 C 437.52386474609375 418.7049865722656 412.20208740234375 409.252685546875 392.3977355957031 398.2193603515625 C 391.66827392578125 435.2391662597656 400.2528381347656 445.84454345703125 353.5440979003906 407.0772705078125 C 344.93896484375 350.5010681152344 322.4562683105469 395.32733154296875 385.84014892578125 431.3891906738281 C 397.4119567871094 388.8653259277344 406.1199035644531 386.2409362792969 395.981201171875 400.0807189941406"/>
    <path stroke-width="0" fill="rgb(123, 125, 123)" opacity="0.89333194" stroke="rgb(209, 231, 207)" stroke-opacity="1.0" stroke-linecap="round" stroke-linejoin="round" d="M 366.07110595703125 -10.313698768615723 C 358.10107421875 -8.817402839660645 352.18414306640625 -1.461106300354004 369.2245178222656 -3.4766533374786377 C 387.265625 -7.575571537017822 377.2897033691406 -18.447284698486328 367.5125427246094 -32.20763397216797 C 357.3088073730469 10.338201522827148 353.7659606933594 6.857427597045898 346.7136535644531 -32.64646530151367 C 374.9783630371094 -16.048751831054688 375.07598876953125 -11.324017524719238 366.07110595703125 -10.313698768615723"/>
    <path stroke-width="0" fill="rgb(24, 34, 32)" opacity="0.46161178" stroke="rgb(160, 101, 15)" stroke-opacity="1.0" stroke-linecap="round" stroke-linejoin="round" d="M 343.1844177246094 110.98963165283203 C 338.2806701660156 98.62512969970703 345.8785095214844 117.59020233154297 354.3639831542969 103.97676849365234 C 368.6650695800781 89.09673309326172 368.7357482910156 94.92442321777344 362.5560607910156 103.10965728759766 C 353.3953552246094 95.97689056396484 330.2685852050781 54.87660598754883 359.7745056152344 64.2635269165039 C 330.0855407714844 95.47472381591797 371.3439636230469 126.280517578125 343.1844177246094 110.98963165283203"/>
    <path stroke-width="0" fill="rgb(126, 133, 142)" opacity="0.78419995" stroke="rgb(65, 216, 8)" stroke-opacity="1.0" stroke-linecap="round" stroke-linejoin="round" d="M 348.6189880371094 16.845645904541016 C 351.91259765625 0.9946306943893433 342.9804382324219 18.577930450439453 346.8930969238281 12.481058120727539 C 353.0494384765625 10.625286102294922 342.4168701171875 13.805474281311035 349.0830078125 10.420852661132812 C 351.2772521972656 19.416767120361328 341.2099609375 29.38106918334961 347.3094787597656 9.803265571594238 C 342.4085388183594 26.091854095458984 348.1289978027344 20.942848205566406 348.6189880371094 16.845645904541016"/>
    <path stroke-width="0" fill="rgb(99, 105, 118)" opacity="0.6826649" stroke="rgb(102, 236, 25)" stroke-opacity="1.0" stroke-linecap="round" stroke-linejoin="round" d="M 325.6278076171875 442.83197021484375 C 351.23760986328125 479.6019592285156 347.9477233886719 463.0378723144531 313.022705078125 414.6373596191406 C 349.12445068359375 455.6904602050781 298.0418395996094 395.86669921875 314.0025939941406 434.3921813964844 C 302.80712890625 462.3963928222656 323.36981201171875 434.7475891113281 331.11553955078125 437.7807922363281 C 350.843505859375 403.32171630859375 342.7577819824219 426.27685546875 325.6278076171875 442.83197021484375"/>
    <path stroke-width="0" fill="rgb(80, 53, 63)" opacity="0.53502154" stroke="rgb(17, 64, 56)" stroke-opacity="1.0" stroke-linecap="round" stroke-linejoin="round" d="M 375.5910339355469 73.703369140625 C 386.5182800292969 70.32805633544922 362.18597412109375 101.26020812988281 396.6157531738281 111.04936218261719 C 375.8307800292969 104.9963150024414 361.2492980957031 72.04915618896484 378.846435546875 116.1168212890625 C 356.1454162597656 88.29161834716797 360.51373291015625 81.50011444091797 365.9508056640625 97.92867279052734 C 318.4593200683594 93.88811492919922 390.80804443359375 114.8881607055664 375.5910339355469 73.703369140625"/>
    <path stroke-width="0" fill="rgb(26, 43, 46)" opacity="1.0496788" stroke="rgb(162, 125, 252)" stroke-opacity="1.0" stroke-linecap="round" stroke-linejoin="round" d="M 367.6118469238281 119.91304016113281 C 377.0485534667969 87.0936508178711 373.1962585449219 120.3081283569336 363.4579772949219 87.82959747314453 C 354.7720947265625 73.35379791259766 346.1291198730469 129.7004852294922 349.3507385253906 114.82650756835938 C 345.1095886230469 76.89705657958984 339.4103088378906 72.72734832763672 341.33551025390625 115.9468002319336 C 375.1116638183594 75.4974594116211 375.9549255371094 72.70781707763672 367.6118469238281 119.91304016113281"/>
    <path stroke-width="0" fill="rgb(9, 3, 18)" opacity="0.51553786" stroke="rgb(199, 73, 61)" stroke-opacity="1.0" stroke-linecap="round" stroke-linejoin="round" d="M 315.5366516113281 458.120849609375 C 356.0756530761719 476.38385009765625 299.8798828125 466.8992614746094 355.218994140625 462.4339294433594 C 348.7308654785156 441.1900634765625 344.2832946777344 469.7618408203125 354.8738708496094 473.1533203125 C 341.906494140625 461.3072814941406 313.2228698730469 417.7984313964844 330.0151062011719 456.2269287109375 C 352.9972839355469 441.3242492675781 331.52532958984375 472.5924072265625 315.5366516113281 458.120849609375"/>
    <path stroke-width="0" fill="rgb(47, 43, 57)" opacity="0.7908755" stroke="rgb(62, 169, 131)" stroke-opacity="1.0" stroke-linecap="round" stroke-linejoin="round" d="M 303.0290832519531 449.9974365234375 C 319.4561462402344 477.1706848144531 333.5296630859375 466.4527893066406 334.8291015625 426.4378967285156 C 330.7184143066406 462.6227111816406 286.3975524902344 458.2020263671875 287.84771728515625 502.59344482421875 C 304.54925537109375 455.74200439453125 310.4631042480469 457.3390197753906 320.6278381347656 448.0700378417969 C 323.045654296875 428.27325439453125 303.3243713378906 463.0286560058594 303.0290832519531 449.9974365234375"/>
    <path stroke-width="0" fill="rgb(182, 173, 189)" opacity="0.7105323" stroke="rgb(141, 73, 180)" stroke-opacity="1.0" stroke-linecap="round" stroke-linejoin="round" d="M 328.6618957519531 438.8134460449219 C 335.7359924316406 470.31976318359375 317.2161560058594 463.805419921875 327.697265625 446.89630126953125 C 327.62872314453125 484.9765930175781 331.1352233886719 447.7217102050781 301.93109130859375 452.1571960449219 C 321.86590576171875 476.3034973144531 300.7200622558594 423.8013916015625 322.0619201660156 451.7248840332031 C 295.5877380371094 470.2938537597656 337.8542785644531 461.66192626953125 328.6618957519531 438.8134460449219"/>
    <path stroke-width="0" fill="rgb(120, 134, 127)" opacity="0.35649335" stroke="rgb(91, 211, 235)" stroke-opacity="1.0" stroke-linecap="round" stroke-linejoin="round" d="M 394.64776611328125 73.89458465576172 C 355.1675109863281 81.6104965209961 340.7009582519531 76.8725814819336 356.1389465332031 117.29049682617188 C 356.5916442871094 91.0097885131836 346.3191223144531 80.38072967529297 349.4389953613281 100.0521469116211 C 349.1700439453125 73.66336059570312 370.188232421875 81.24432373046875 396.7864685058594 72.98072052001953 C 381.65435791015625 38.30085372924805 382.22265625 43.292213439941406 394.64776611328125 73.89458465576172"/>
    <path stroke-width="0" fill="rgb(124, 109, 127)" opacity="0.24383461" stroke="rgb(59, 88, 207)" stroke-opacity="1.0" stroke-linecap="round" stroke-linejoin="round" d="M 374.94891357421875 134.12184143066406 C 360.5438232421875 130.32131958007812 354.36566162109375 107.77107238769531 337.0569763183594 102.3990707397461 C 365.17437744140625 93.60916900634766 374.7846984863281 85.71038818359375 363.8246765136719 105.6908950805664 C 334.892578125 113.48871612548828 347.4138488769531 140.8535614013672 347.34478759765625 103.69779205322266 C 327.09619140625 91.54486083984375 346.00054931640625 119.3611831665039 374.94891357421875 134.12184143066406"/>
    <path stroke-width="0" fill="rgb(260, 277, 261)" opacity="0.49373016" stroke="rgb(63, 27, 242)" stroke-opacity="1.0" stroke-linecap="round" stroke-linejoin="round" d="M 344.5133056640625 103.4533920288086 C 334.84576416015625 72.54110717773438 331.26837158203125 85.76516723632812 335.3134765625 91.95372772216797 C 369.140625 104.67378997802734 365.5602111816406 81.6508560180664 364.9272155761719 83.06915283203125 C 304.6755676269531 84.50435638427734 330.9697265625 75.16952514648438 363.4548034667969 92.10015869140625 C 347.49993896484375 64.01842498779297 354.0238342285156 101.17943572998047 344.5133056640625 103.4533920288086"/>
    <path stroke-width="0" fill="rgb(247, 265, 262)" opacity="0.51449674" stroke="rgb(175, 14, 186)" stroke-opacity="1.0" stroke-linecap="round" stroke-linejoin="round" d="M 350.6627197265625 73.62849426269531 C 374.1242370605469 66.75939178466797 376.6180114746094 118.31455993652344 337.8536376953125 88.16793823242188 C 330.05169677734375 75.64944458007812 339.5349426269531 122.29340362548828 333.970947265625 94.15071868896484 C 331.4102478027344 100.24523162841797 382.69085693359375 87.20208740234375 358.9559631347656 85.44802856445312 C 366.0420227050781 82.30016326904297 372.2434997558594 74.82806396484375 350.6627197265625 73.62849426269531"/>
    <path stroke-width="0" fill="rgb(46, 55, 42)" opacity="0.82825774" stroke="rgb(69, 96, 95)" stroke-opacity="1.0" stroke-linecap="round" stroke-linejoin="round" d="M 355.0774230957031 480.51092529296875 C 408.1818542480469 502.6650695800781 377.6971130371094 441.2351379394531 408.119140625 450.4193420410156 C 385.5440673828125 453.85693359375 398.8883972167969 451.8387145996094 392.1905822753906 465.4779968261719 C 384.83270263671875 485.54913330078125 388.121337890625 465.76953125 391.03118896484375 470.084716796875 C 363.7651062011719 469.20513916015625 400.76776123046875 485.8033752441406 355.0774230957031 480.51092529296875"/>
    <path stroke-width="0" fill="rgb(122, 137, 161)" opacity="0.17850296" stroke="rgb(213, 60, 128)" stroke-opacity="1.0" stroke-linecap="round" stroke-linejoin="round" d="M 355.2421569824219 122.84740447998047 C 348.6479797363281 108.32028198242188 340.4666748046875 125.8877944946289 333.9689636230469 139.38711547851562 C 352.86785888671875 110.91468811035156 370.3824157714844 102.3999252319336 347.9949951171875 123.59291076660156 C 361.8362121582031 103.0433120727539 371.9893493652344 106.9852523803711 325.1020812988281 122.72647857666016 C 349.2698974609375 113.39208221435547 353.1253662109375 114.7342300415039 355.2421569824219 122.84740447998047"/>
    <path stroke-width="0" fill="rgb(59, 63, 58)" opacity="0.9725703" stroke="rgb(161, 221, 239)" stroke-opacity="1.0" stroke-linecap="round" stroke-linejoin="round" d="M 360.7488708496094 84.80072784423828 C 342.3084411621094 141.6612091064453 337.3037109375 176.76031494140625 353.2915954589844 133.9688720703125 C 343.3066101074219 135.60592651367188 347.2119445800781 112.64376831054688 329.1734619140625 127.60245513916016 C 343.5354309082031 118.93862915039062 359.84637451171875 108.2828598022461 339.4241943359375 99.44641876220703 C 387.2295227050781 104.09056091308594 356.6835632324219 104.94723510742188 360.7488708496094 84.80072784423828"/>
    <path stroke-width="0" fill="rgb(114, 128, 128)" opacity="0.3600992" stroke="rgb(178, 246, 253)" stroke-opacity="1.0" stroke-linecap="round" stroke-linejoin="round" d="M 398.53173828125 69.33685302734375 C 413.3128356933594 79.673828125 303.89434814453125 77.8103256225586 324.11749267578125 75.89775848388672 C 316.2712097167969 103.3605728149414 308.83465576171875 102.74302673339844 312.8320617675781 87.83909606933594 C 312.4969787597656 64.59349822998047 294.91119384765625 96.72270202636719 357.491455078125 70.00855255126953 C 350.8859558105469 51.01592254638672 367.0088195800781 92.92536926269531 398.53173828125 69.33685302734375"/>
    <path stroke-width="0" fill="rgb(187, 203, 209)" opacity="0.686591" stroke="rgb(33, 154, 97)" stroke-opacity="1.0" stroke-linecap="round" stroke-linejoin="round" d="M 350.5793762207031 116.17578887939453 C 348.08905029296875 115.3234634399414 351.2734680175781 122.43860626220703 351.0673522949219 94.56922912597656 C 359.708984375 138.8462677001953 325.01068115234375 129.38363647460938 356.49560546875 115.1020736694336 C 355.8405456542969 123.97692108154297 337.80926513671875 108.2947006225586 363.6932067871094 120.50532531738281 C 342.6260986328125 107.03024291992188 364.79742431640625 117.77468872070312 350.5793762207031 116.17578887939453"/>
    <path stroke-width="0" fill="rgb(28, 30, 47)" opacity="0.7503846" stroke="rgb(246, 139, 70)" stroke-opacity="1.0" stroke-linecap="round" stroke-linejoin="round" d="M 333.0968017578125 76.95487976074219 C 351.49066162109375 108.9052505493164 322.3507080078125 83.77354431152344 371.85589599609375 90.435546875 C 375.14013671875 76.02499389648438 343.522705078125 76.29168701171875 315.5970153808594 85.9473648071289 C 391.5894470214844 82.08588409423828 365.8172912597656 93.34650421142578 368.0650634765625 73.44869232177734 C 347.7933654785156 52.530582427978516 393.04693603515625 83.4151611328125 333.0968017578125 76.95487976074219"/>
    <path stroke-width="0" fill="rgb(211, 205, 215)" opacity="0.85776925" stroke="rgb(116, 102, 63)" stroke-opacity="1.0" stroke-linecap="round" stroke-linejoin="round" d="M 314.927001953125 497.99615478515625 C 287.3882141113281 475.2775573730469 293.77435302734375 464.2181396484375 298.91546630859375 475.65802001953125 C 313.9453125 464.0867614746094 291.2103576660156 454.7331848144531 311.2430725097656 486.1538391113281 C 276.8674621582031 475.93280029296875 323.75201416015625 486.4009704589844 296.5032043457031 473.728515625 C 286.8719787597656 468.9143981933594 301.728271484375 481.3155212402344 314.927001953125 497.99615478515625"/>
    <path stroke-width="0" fill="rgb(119, 122, 136)" opacity="0.97223896" stroke="rgb(79, 95, 133)" stroke-opacity="1.0" stroke-linecap="round" stroke-linejoin="round" d="M 392.2871398925781 114.98892974853516 C 371.95721435546875 118.96041107177734 340.86297607421875 102.17459106445312 323.2877197265625 132.682373046875 C 376.0836486816406 142.18704223632812 352.19610595703125 151.34071350097656 330.6272888183594 126.61872100830078 C 338.8589172363281 135.1890106201172 344.86639404296875 121.91401672363281 353.9197082519531 100.37316131591797 C 326.8150634765625 111.57610321044922 349.8173522949219 115.04951477050781 392.2871398925781 114.98892974853516"/>
    <path stroke-width="0" fill="rgb(61, 69, 77)" opacity="0.7042055" stroke="rgb(85, 235, 219)" stroke-opacity="1.0" stroke-linecap="round" stroke-linejoin="round" d="M 372.40106201171875 106.83425903320312 C 348.0278625488281 113.15001678466797 379.2840881347656 102.70072174072266 371.365478515625 118.91500091552734 C 380.94451904296875 120.57152557373047 353.6231384277344 110.82321166992188 353.1861267089844 127.63188934326172 C 325.1486511230469 120.7459716796875 344.5326843261719 108.90906524658203 357.6163635253906 154.60733032226562 C 325.80035400390625 102.89807891845703 364.7080078125 137.74960327148438 372.40106201171875 106.83425903320312"/>
    <path stroke-width="0" fill="rgb(118, 128, 122)" opacity="0.69624305" stroke="rgb(64, 113, 26)" stroke-opacity="1.0" stroke-linecap="round" stroke-linejoin="round" d="M 369.1417236328125 102.57584381103516 C 381.0149230957031 141.4104766845703 429.78143310546875 82.02239227294922 337.8716735839844 104.94412994384766 C 356.4841003417969 66.97135162353516 291.6160583496094 89.88678741455078 319.8395690917969 77.658203125 C 312.67034912109375 66.27511596679688 328.29119873046875 83.01514434814453 306.0113525390625 95.70513153076172 C 360.43927001953125 69.27240753173828 341.6393127441406 106.54681396484375 369.1417236328125 102.57584381103516"/>
    <path stroke-width="0" fill="rgb(151, 147, 155)" opacity="0.8532349" stroke="rgb(0, 0, 0)" stroke-opacity="0.0" stroke-linecap="round" stroke-linejoin="round" d="M 493.40545654296875 0.5764814615249634 C 492.37188720703125 4.695091247558594 488.6775207519531 6.758938789367676 484.57806396484375 7.068589687347412 C 481.3750915527344 8.230596542358398 477.330078125 5.873773097991943 478.3818359375 3.14294171333313 C 479.9220886230469 -1.748469352722168 482.4516296386719 -5.19479513168335 485.8515930175781 -6.6268415451049805 C 489.71795654296875 -5.486104965209961 492.3594665527344 -2.4231789112091064 493.40545654296875 0.5764814615249634"/>
    <path stroke-width="0" fill="rgb(196, 135, 181)" opacity="0.7198062" stroke="rgb(0, 0, 0)" stroke-opacity="0.0" stroke-linecap="round" stroke-linejoin="round" d="M 227.99765014648438 18.6749210357666 C 227.8225555419922 23.254377365112305 224.96926879882812 25.91608428955078 220.69635009765625 26.0599422454834 C 215.93008422851562 25.15458106994629 213.31654357910156 22.545400619506836 212.95159912109375 17.287109375 C 212.8900909423828 14.277660369873047 216.10928344726562 11.250197410583496 220.3231964111328 10.564589500427246 C 224.6407012939453 10.974148750305176 227.54322814941406 13.910367965698242 227.99765014648438 18.6749210357666"/>
    <path stroke-width="0" fill="rgb(180, 188, 218)" opacity="0.75590813" stroke="rgb(0, 0, 0)" stroke-opacity="0.0" stroke-linecap="round" stroke-linejoin="round" d="M 66.99370574951172 -0.8737360239028931 C 66.49158477783203 4.27412748336792 63.71479415893555 7.128439426422119 58.333290100097656 8.399842262268066 C 55.120296478271484 8.244385719299316 53.012054443359375 4.637104034423828 52.70143508911133 -0.5884174704551697 C 52.52800369262695 -3.89520263671875 55.734344482421875 -6.627567768096924 59.75727844238281 -7.692544937133789 C 63.75252151489258 -6.619141101837158 66.53036499023438 -3.6091973781585693 66.99370574951172 -0.8737360239028931"/>
    <path stroke-width="0" fill="rgb(214, 75, 158)" opacity="0.7785962" stroke="rgb(0, 0, 0)" stroke-opacity="0.0" stroke-linecap="round" stroke-linejoin="round" d="M 110.28316497802734 10.28734302520752 C 109.55961608886719 14.244468688964844 106.66468048095703 17.003313064575195 103.36517333984375 17.3276309967041 C 100.13941955566406 15.977760314941406 97.5274658203125 13.005261421203613 96.69832611083984 9.707277297973633 C 96.92089080810547 7.264608383178711 99.69971466064453 4.285547256469727 102.92296600341797 3.3968327045440674 C 106.3391342163086 4.171825408935547 109.53770446777344 6.6926589012146 110.28316497802734 10.28734302520752"/>
    <path stroke-width="0" fill="rgb(189, 197, 193)" opacity="0.37550226" stroke="rgb(0, 0, 0)" stroke-opacity="0.0" stroke-linecap="round" stroke-linejoin="round" d="M 151.26246643066406 15.265960693359375 C 150.31678771972656 19.890701293945312 147.6791534423828 22.897064208984375 143.5822296142578 23.540756225585938 C 139.36160278320312 22.576539993286133 136.3501739501953 19.62591552734375 135.60984802246094 15.832975387573242 C 136.57876586914062 11.54666519165039 139.15576171875 8.432988166809082 143.87147521972656 7.2960686683654785 C 148.1783447265625 7.792630195617676 150.95997619628906 10.900778770446777 151.26246643066406 15.265960693359375"/>
    <path stroke-width="0" fill="rgb(129, 142, 199)" opacity="0.69976944" stroke="rgb(0, 0, 0)" stroke-opacity="0.0" stroke-linecap="round" stroke-linejoin="round" d="M 55.137939453125 14.328266143798828 C 54.354618072509766 18.695924758911133 52.055267333984375 22.251934051513672 48.915409088134766 23.130765914916992 C 44.99320983886719 21.601308822631836 42.205745697021484 18.479501724243164 40.54106140136719 14.61240291595459 C 41.00412368774414 11.509894371032715 44.67051315307617 8.843439102172852 48.79710388183594 7.405536651611328 C 53.109153747558594 7.6979079246521 55.85243225097656 10.456968307495117 55.137939453125 14.328266143798828"/>
    <path stroke-width="0" fill="rgb(135, 206, 43)" opacity="0.8656766" stroke="rgb(0, 0, 0)" stroke-opacity="0.0" stroke-linecap="round" stroke-linejoin="round" d="M 83.08660888671875 -15.46214485168457 C 82.01481628417969 -11.46214485168457 79.08660888671875 -8.533941268920898 75.08660888671875 -7.46214485168457 C 71.08660888671875 -8.533941268920898 68.15840911865234 -11.46214485168457 67.08660888671875 -15.46214485168457 C 68.15840911865234 -19.46214485168457 71.08660888671875 -22.390348434448242 75.08660888671875 -23.46214485168457 C 79.08660888671875 -22.390348434448242 82.01481628417969 -19.46214485168457 83.08660888671875 -15.46214485168457"/>
    <path stroke-width="0" fill="rgb(57, 48, 119)" opacity="0.34741315" stroke="rgb(0, 0, 0)" stroke-opacity="0.0" stroke-linecap="round" stroke-linejoin="round" d="M 323.62872314453125 301.2281494140625 C 322.3770446777344 305.6033935546875 319.2749938964844 308.1827087402344 314.9187316894531 309.2935485839844 C 310.8226318359375 308.49530029296875 308.3090515136719 305.6016845703125 307.530029296875 301.02618408203125 C 307.8648376464844 296.99151611328125 310.965087890625 294.4139404296875 315.15496826171875 293.2932434082031 C 319.23919677734375 294.47479248046875 322.63812255859375 296.93212890625 323.62872314453125 301.2281494140625"/>
    <path stroke-width="0" fill="rgb(142, 227, 185)" opacity="0.8874194" stroke="rgb(0, 0, 0)" stroke-opacity="0.0" stroke-linecap="round" stroke-linejoin="round" d="M 305.4150085449219 438.0088806152344 C 303.9348449707031 441.80804443359375 301.1197509765625 445.00079345703125 297.99200439453125 446.04620361328125 C 294.2238464355469 444.6572570800781 290.928955078125 441.96929931640625 289.64483642578125 438.08984375 C 290.0655212402344 433.7540588378906 293.1020202636719 431.03790283203125 297.3021240234375 430.20391845703125 C 301.57000732421875 431.5018310546875 304.3688659667969 434.4486083984375 305.4150085449219 438.0088806152344"/>
    <path stroke-width="0" fill="rgb(187, 112, 105)" opacity="0.13525659" stroke="rgb(0, 0, 0)" stroke-opacity="0.0" stroke-linecap="round" stroke-linejoin="round" d="M 308.35528564453125 181.81553649902344 C 307.810302734375 185.7836456298828 304.8794860839844 188.63710021972656 300.56341552734375 189.75318908691406 C 296.2115783691406 188.94076538085938 293.313232421875 186.13937377929688 292.87841796875 181.85060119628906 C 293.673583984375 177.38592529296875 296.52728271484375 174.5315704345703 300.9164733886719 173.7295684814453 C 305.1895751953125 174.2741241455078 307.5052490234375 177.21763610839844 308.35528564453125 181.81553649902344"/>
    <path stroke-width="0" fill="rgb(134, 162, 72)" opacity="0.21254116" stroke="rgb(0, 0, 0)" stroke-opacity="0.0" stroke-linecap="round" stroke-linejoin="round" d="M 349.2118225097656 260.2658386230469 C 348.2398376464844 263.9223937988281 345.3807678222656 266.9018859863281 341.615478515625 268.08941650390625 C 338.0448303222656 267.23345947265625 335.0279235839844 264.41754150390625 333.8997802734375 260.4784240722656 C 334.8942565917969 256.3376770019531 337.7330627441406 253.37954711914062 341.96893310546875 252.26016235351562 C 345.84332275390625 253.49847412109375 348.44500732421875 256.7281188964844 349.2118225097656 260.2658386230469"/>
    <path stroke-width="0" fill="rgb(179, 165, 94)" opacity="0.07678624" stroke="rgb(0, 0, 0)" stroke-opacity="0.0" stroke-linecap="round" stroke-linejoin="round" d="M 11.942205429077148 -43.03667449951172 C 10.870408058166504 -39.03667449951172 7.94220495223999 -36.10847091674805 3.9422051906585693 -35.03667449951172 C -0.05779487267136574 -36.10847091674805 -2.9859981536865234 -39.03667449951172 -4.05779504776001 -43.03667449951172 C -2.9859981536865234 -47.03667449951172 -0.05779487267136574 -49.96487808227539 3.9422051906585693 -51.03667449951172 C 7.94220495223999 -49.96487808227539 10.870408058166504 -47.03667449951172 11.942205429077148 -43.03667449951172"/>
    <path stroke-width="0" fill="rgb(178, 110, 230)" opacity="0.55757946" stroke="rgb(0, 0, 0)" stroke-opacity="0.0" stroke-linecap="round" stroke-linejoin="round" d="M 39.78257369995117 506.6453552246094 C 39.08915328979492 510.6912841796875 36.1010856628418 513.59619140625 31.72977066040039 514.786865234375 C 27.621112823486328 513.6587524414062 24.929203033447266 510.5699462890625 24.049360275268555 506.2106018066406 C 24.884963989257812 502.49151611328125 27.982173919677734 499.6734924316406 31.854284286499023 499.0373229980469 C 35.544639587402344 499.8262634277344 38.5869255065918 502.71051025390625 39.78257369995117 506.6453552246094"/>
    <path stroke-width="0" fill="rgb(250, 105, 37)" opacity="0.40184453" stroke="rgb(0, 0, 0)" stroke-opacity="0.0" stroke-linecap="round" stroke-linejoin="round" d="M 2.3239622116088867 -26.997447967529297 C 1.2521653175354004 -22.997447967529297 -1.6760379076004028 -20.069246292114258 -5.676037788391113 -18.997447967529297 C -9.676037788391113 -20.069246292114258 -12.604241371154785 -22.997447967529297 -13.676037788391113 -26.997447967529297 C -12.604241371154785 -30.997447967529297 -9.676037788391113 -33.92565155029297 -5.676037788391113 -34.9974479675293 C -1.6760379076004028 -33.92565155029297 1.2521653175354004 -30.997447967529297 2.3239622116088867 -26.997447967529297"/>
    <path stroke-width="0" fill="rgb(169, 82, 126)" opacity="0.2540511" stroke="rgb(0, 0, 0)" stroke-opacity="0.0" stroke-linecap="round" stroke-linejoin="round" d="M 310.0233459472656 424.4338073730469 C 309.0455627441406 428.22174072265625 305.9380798339844 431.03875732421875 301.76446533203125 432.00390625 C 297.686279296875 430.7452697753906 295.060546875 427.5564270019531 293.82452392578125 424.1821594238281 C 295.1841735839844 420.37225341796875 298.2334289550781 417.5411376953125 301.985595703125 416.4142761230469 C 305.1493835449219 417.4497375488281 308.33599853515625 420.11767578125 310.0233459472656 424.4338073730469"/>
    <path stroke-width="0" fill="rgb(81, 7, 94)" opacity="0.36711124" stroke="rgb(0, 0, 0)" stroke-opacity="0.0" stroke-linecap="round" stroke-linejoin="round" d="M 334.863037109375 345.16668701171875 C 333.85430908203125 349.3063659667969 330.9722595214844 352.29437255859375 326.7930603027344 353.12847900390625 C 322.83905029296875 352.2245178222656 320.1736755371094 348.88580322265625 318.99993896484375 345.5320739746094 C 320.29962158203125 341.2917175292969 322.70843505859375 338.0551452636719 326.47161865234375 337.2189025878906 C 330.634521484375 338.4083251953125 333.73223876953125 341.175048828125 334.863037109375 345.16668701171875"/>
    <path stroke-width="0" fill="rgb(40, 229, 250)" opacity="0.2394891" stroke="rgb(0, 0, 0)" stroke-opacity="0.0" stroke-linecap="round" stroke-linejoin="round" d="M 502.73675537109375 496.34136962890625 C 500.85382080078125 500.21490478515625 498.0799255371094 503.31982421875 494.0043029785156 504.53631591796875 C 489.8096618652344 504.2731018066406 487.1297607421875 501.2317810058594 486.5647277832031 496.7784729003906 C 487.50335693359375 492.6510925292969 490.26055908203125 489.605712890625 494.17852783203125 489.0217590332031 C 498.79656982421875 489.6741027832031 501.62347412109375 492.3865966796875 502.73675537109375 496.34136962890625"/>
    <path stroke-width="0" fill="rgb(155, 50, 135)" opacity="0.7195894" stroke="rgb(0, 0, 0)" stroke-opacity="0.0" stroke-linecap="round" stroke-linejoin="round" d="M 50.206417083740234 31.731843948364258 C 49.36012268066406 35.82065963745117 46.34699249267578 38.53223419189453 42.087188720703125 39.454891204833984 C 38.89628219604492 38.78691482543945 36.2181510925293 35.655948638916016 35.517303466796875 31.895421981811523 C 35.80641174316406 27.767860412597656 38.27252197265625 24.751089096069336 42.90642166137695 24.02379035949707 C 47.30519485473633 24.48155975341797 50.02798843383789 27.392290115356445 50.206417083740234 31.731843948364258"/>
    <path stroke-width="0" fill="rgb(241, 36, 156)" opacity="0.12054144" stroke="rgb(0, 0, 0)" stroke-opacity="0.0" stroke-linecap="round" stroke-linejoin="round" d="M 330.9867858886719 61.932586669921875 C 330.2300109863281 65.99890899658203 327.2397766113281 68.7846908569336 323.34283447265625 69.27114868164062 C 319.1647033691406 68.2688217163086 315.97528076171875 65.60631561279297 314.7971496582031 61.46926498413086 C 315.75775146484375 57.409698486328125 318.6927795410156 54.4818115234375 322.6598815917969 53.62631607055664 C 326.80926513671875 54.77964401245117 329.69061279296875 57.810699462890625 330.9867858886719 61.932586669921875"/>
    <path stroke-width="0" fill="rgb(231, 165, 117)" opacity="0.46496433" stroke="rgb(0, 0, 0)" stroke-opacity="0.0" stroke-linecap="round" stroke-linejoin="round" d="M 451.8444519042969 322.6273498535156 C 450.81683349609375 326.45953369140625 447.840576171875 329.3136901855469 443.93719482421875 330.4444885253906 C 440.1199951171875 329.73333740234375 437.5708923339844 326.5048828125 436.2236022949219 322.3030090332031 C 436.9258117675781 318.4771423339844 440.0207214355469 315.7687683105469 444.1463928222656 314.974365234375 C 448.0854187011719 315.8674011230469 451.0827941894531 318.6752624511719 451.8444519042969 322.6273498535156"/>
    <path stroke-width="0" fill="rgb(101, 8, 98)" opacity="0.11104587" stroke="rgb(0, 0, 0)" stroke-opacity="0.0" stroke-linecap="round" stroke-linejoin="round" d="M 496.0421142578125 158.62989807128906 C 495.0479431152344 163.11428833007812 492.5264587402344 166.5240020751953 488.5020446777344 167.75958251953125 C 483.68231201171875 166.82305908203125 480.9017028808594 163.8343048095703 480.5292053222656 159.33163452148438 C 480.99395751953125 154.67823791503906 483.8464050292969 151.8029327392578 488.4372253417969 151.2938232421875 C 492.65814208984375 152.0150604248047 495.5205993652344 154.91539001464844 496.0421142578125 158.62989807128906"/>
    <path stroke-width="0" fill="rgb(211, 83, 99)" opacity="0.82415396" stroke="rgb(0, 0, 0)" stroke-opacity="0.0" stroke-linecap="round" stroke-linejoin="round" d="M 411.91204833984375 241.89859008789062 C 411.08984375 245.58242797851562 408.03179931640625 248.51873779296875 404.21710205078125 249.5183563232422 C 400.2936706542969 248.64297485351562 397.71624755859375 245.6352081298828 396.865966796875 241.29733276367188 C 397.25537109375 237.6539764404297 400.1080017089844 234.67279052734375 404.0965881347656 233.79815673828125 C 408.3874206542969 234.75387573242188 411.0714416503906 237.69143676757812 411.91204833984375 241.89859008789062"/>
    <path stroke-width="0" fill="rgb(168, 136, 197)" opacity="0.7577256" stroke="rgb(0, 0, 0)" stroke-opacity="0.0" stroke-linecap="round" stroke-linejoin="round" d="M 428.0929870605469 105.22844696044922 C 427.2110595703125 109.42977905273438 424.333251953125 112.3493423461914 420.0511474609375 113.24223327636719 C 415.8340759277344 112.41905975341797 413.34613037109375 109.18751525878906 411.8414306640625 104.7444076538086 C 413.23150634765625 101.47193908691406 416.4632873535156 98.66751098632812 420.409912109375 97.27198791503906 C 424.2904968261719 98.0316162109375 427.188232421875 100.92424011230469 428.0929870605469 105.22844696044922"/>
  </g>
</svg>
