<?xml version="1.0" ?>
<svg xmlns="http://www.w3.org/2000/svg" version="1.1" width="512" height="512">
  <defs/>
  <g>
    <path stroke-width="0" fill="rgb(79, 80, 96)" opacity="0.8632753" stroke="rgb(139, 182, 153)" stroke-opacity="1.0" stroke-linecap="round" stroke-linejoin="round" d="M 321.8257751464844 428.8853759765625 C 361.403564453125 479.6140441894531 360.4656982421875 496.86151123046875 189.60821533203125 485.5139465332031 C 58.7797737121582 379.34228515625 58.598636627197266 355.44097900390625 -37.29362869262695 93.65108489990234 C -55.74998092651367 24.691083908081055 -54.507442474365234 -3.2493443489074707 30.089998245239258 -10.989005088806152 C 241.27215576171875 164.81997680664062 249.8427734375 173.18927001953125 321.8257751464844 428.8853759765625"/>
    <path stroke-width="0" fill="rgb(118, 120, 120)" opacity="0.94954956" stroke="rgb(108, 164, 111)" stroke-opacity="1.0" stroke-linecap="round" stroke-linejoin="round" d="M 564.8327026367188 105.23372650146484 C 521.4566040039062 395.1994323730469 445.0351257324219 376.25213623046875 301.9051513671875 376.814697265625 C 145.88897705078125 341.1902160644531 142.70286560058594 311.6169738769531 -49.76367950439453 1.8088949918746948 C -5.70611047744751 -61.47223663330078 18.957836151123047 -59.51573944091797 446.24822998046875 -50.592098236083984 C 535.3020629882812 -48.75304412841797 556.3040771484375 -60.0816650390625 564.8327026367188 105.23372650146484"/>
    <path stroke-width="0" fill="rgb(124, 125, 125)" opacity="1.0011692" stroke="rgb(245, 97, 201)" stroke-opacity="1.0" stroke-linecap="round" stroke-linejoin="round" d="M 297.47381591796875 522.7848510742188 C 290.2972106933594 570.1263427734375 265.1747741699219 573.4346313476562 -73.39730072021484 555.06591796875 C -78.9822769165039 469.8158264160156 -51.8045539855957 419.02099609375 -46.28164291381836 272.57049560546875 C -56.931453704833984 163.62477111816406 -81.46731567382812 128.18165588378906 -9.147289276123047 109.09809112548828 C 144.9044647216797 187.70120239257812 155.9307861328125 193.12232971191406 297.47381591796875 522.7848510742188"/>
    <path stroke-width="0" fill="rgb(122, 125, 126)" opacity="0.9962875" stroke="rgb(144, 236, 18)" stroke-opacity="1.0" stroke-linecap="round" stroke-linejoin="round" d="M 557.802001953125 499.8588562011719 C 564.6090698242188 540.8244018554688 570.5844116210938 555.1404418945312 301.9168701171875 560.4530029296875 C 229.17466735839844 574.8024291992188 203.63528442382812 600.649658203125 223.89315795898438 374.1432800292969 C 298.66455078125 232.14093017578125 299.5555419921875 180.5708465576172 541.6515502929688 147.9832000732422 C 576.6678466796875 265.0323486328125 560.8159790039062 308.91241455078125 557.802001953125 499.8588562011719"/>
    <path stroke-width="0" fill="rgb(231, 240, 240)" opacity="0.9846308" stroke="rgb(5, 212, 198)" stroke-opacity="1.0" stroke-linecap="round" stroke-linejoin="round" d="M 368.3162841796875 528.9109497070312 C 364.5356140136719 503.1345520019531 365.5629577636719 512.2237548828125 316.0428466796875 547.2118530273438 C 397.8404846191406 521.5515747070312 317.4310607910156 553.2911376953125 334.6134033203125 489.5694580078125 C 334.2603454589844 494.14752197265625 328.3635559082031 486.04473876953125 339.7198486328125 501.5189514160156 C 350.1677551269531 507.97808837890625 329.9923400878906 517.7142944335938 368.3162841796875 528.9109497070312"/>
    <path stroke-width="0" fill="rgb(250, 252, 250)" opacity="0.8251479" stroke="rgb(249, 203, 117)" stroke-opacity="1.0" stroke-linecap="round" stroke-linejoin="round" d="M 356.7845458984375 487.703857421875 C 281.2078857421875 549.4425659179688 356.1748046875 533.1223754882812 341.3837585449219 493.1051940917969 C 347.15325927734375 500.70928955078125 347.78729248046875 490.35418701171875 346.2528991699219 500.7500305175781 C 339.37213134765625 492.71234130859375 369.4488830566406 469.1107177734375 313.1838684082031 473.9085693359375 C 364.35992431640625 457.5179748535156 412.52386474609375 508.11688232421875 356.7845458984375 487.703857421875"/>
    <path stroke-width="0" fill="rgb(258, 245, 257)" opacity="0.73747" stroke="rgb(133, 105, 67)" stroke-opacity="1.0" stroke-linecap="round" stroke-linejoin="round" d="M 386.8023376464844 464.5277404785156 C 364.12274169921875 523.3179931640625 238.2557830810547 576.3101806640625 255.1643829345703 637.5899658203125 C 284.7398376464844 541.4782104492188 294.0196228027344 542.1718139648438 341.7516784667969 550.7489013671875 C 347.8534240722656 535.9223022460938 347.7208251953125 520.19970703125 331.14794921875 515.4517211914062 C 347.962158203125 447.0662536621094 299.8201904296875 467.1259460449219 386.8023376464844 464.5277404785156"/>
    <path stroke-width="0" fill="rgb(265, 254, 256)" opacity="1.0392699" stroke="rgb(116, 144, 4)" stroke-opacity="1.0" stroke-linecap="round" stroke-linejoin="round" d="M 373.24237060546875 82.26641845703125 C 368.23724365234375 89.21101379394531 254.41592407226562 79.08944702148438 376.1395568847656 79.80585479736328 C 376.9668884277344 150.32374572753906 370.2452392578125 26.416051864624023 343.8262023925781 98.03172302246094 C 387.7140808105469 104.9027099609375 363.24639892578125 48.58775329589844 329.705810546875 70.05067443847656 C 381.2923583984375 34.06894302368164 323.2242126464844 113.74391174316406 373.24237060546875 82.26641845703125"/>
    <path stroke-width="0" fill="rgb(174, 186, 196)" opacity="0.9988889" stroke="rgb(156, 157, 240)" stroke-opacity="1.0" stroke-linecap="round" stroke-linejoin="round" d="M 383.762939453125 489.8454284667969 C 385.5714111328125 538.0723876953125 377.3262939453125 522.051025390625 360.2617492675781 574.4082641601562 C 442.885498046875 518.9235229492188 288.2237243652344 507.8594970703125 320.1626281738281 474.10986328125 C 310.38519287109375 494.14117431640625 382.8414001464844 496.3476257324219 381.3410949707031 496.1147155761719 C 384.3501281738281 455.8443908691406 450.2914733886719 455.3612365722656 383.762939453125 489.8454284667969"/>
    <path stroke-width="0" fill="rgb(4, 21, 13)" opacity="0.7149044" stroke="rgb(91, 111, 177)" stroke-opacity="1.0" stroke-linecap="round" stroke-linejoin="round" d="M 356.0289001464844 76.79215240478516 C 359.2215270996094 48.70438003540039 380.92730712890625 74.69993591308594 357.28533935546875 87.6800308227539 C 349.9959411621094 131.36048889160156 383.3246765136719 49.25247573852539 341.17724609375 61.9092903137207 C 364.81793212890625 27.052091598510742 354.0210876464844 94.75094604492188 379.1929016113281 76.1222152709961 C 244.1636962890625 75.763427734375 400.2230224609375 84.56651306152344 356.0289001464844 76.79215240478516"/>
    <path stroke-width="0" fill="rgb(151, 157, 158)" opacity="0.85363615" stroke="rgb(170, 171, 53)" stroke-opacity="1.0" stroke-linecap="round" stroke-linejoin="round" d="M 356.52032470703125 485.94244384765625 C 334.34246826171875 451.7306213378906 367.7700500488281 540.0120239257812 333.8321533203125 623.6318969726562 C 308.8739013671875 482.4539489746094 336.2508850097656 501.106201171875 301.9437561035156 500.1324462890625 C 302.8904724121094 501.9650573730469 304.53228759765625 498.8064880371094 356.9124755859375 481.7652282714844 C 333.5510559082031 477.5769958496094 412.8736572265625 478.75390625 356.52032470703125 485.94244384765625"/>
    <path stroke-width="0" fill="rgb(124, 125, 125)" opacity="0.99393874" stroke="rgb(80, 92, 145)" stroke-opacity="1.0" stroke-linecap="round" stroke-linejoin="round" d="M 283.7963562011719 505.3062744140625 C 3.9712657928466797 255.60574340820312 84.81046295166016 182.115234375 88.99830627441406 209.64137268066406 C -60.08434295654297 208.18060302734375 -56.137062072753906 192.20819091796875 -35.51451110839844 126.3103256225586 C -40.78221893310547 64.58954620361328 -46.02934265136719 48.192596435546875 -7.2277960777282715 -9.528351783752441 C 287.6578369140625 -423.33642578125 414.95428466796875 68.97527313232422 283.7963562011719 505.3062744140625"/>
    <path stroke-width="0" fill="rgb(61, 57, 65)" opacity="0.9567494" stroke="rgb(252, 26, 53)" stroke-opacity="1.0" stroke-linecap="round" stroke-linejoin="round" d="M 345.02587890625 439.0956726074219 C 365.47821044921875 455.1177978515625 315.696044921875 456.62066650390625 367.1244812011719 415.98858642578125 C 292.2601623535156 409.1476135253906 325.906982421875 433.8763732910156 360.7057189941406 441.3841247558594 C 300.8601379394531 403.1282653808594 314.0690002441406 515.7196044921875 346.08673095703125 351.7972412109375 C 328.15087890625 473.0845642089844 411.304443359375 360.62249755859375 345.02587890625 439.0956726074219"/>
    <path stroke-width="0" fill="rgb(240, 242, 254)" opacity="1.0383098" stroke="rgb(166, 64, 118)" stroke-opacity="1.0" stroke-linecap="round" stroke-linejoin="round" d="M 330.04449462890625 241.7554168701172 C 384.7247009277344 199.91090393066406 388.67169189453125 183.0125732421875 357.1175537109375 192.19248962402344 C 322.20361328125 267.0255432128906 341.8502502441406 207.05104064941406 340.5581970214844 188.26275634765625 C 335.7663879394531 111.64675903320312 342.3954162597656 100.87522888183594 353.0661315917969 175.16102600097656 C 357.7363586425781 186.252197265625 347.4273986816406 224.99365234375 330.04449462890625 241.7554168701172"/>
    <path stroke-width="0" fill="rgb(46, 53, 46)" opacity="0.59078586" stroke="rgb(40, 28, 167)" stroke-opacity="1.0" stroke-linecap="round" stroke-linejoin="round" d="M 312.64605712890625 430.4629211425781 C 456.5193176269531 470.2345886230469 440.2152099609375 409.75018310546875 362.2410583496094 432.1989440917969 C 373.04364013671875 363.6367492675781 351.4004211425781 432.6676940917969 315.67987060546875 389.9309387207031 C 323.6351013183594 427.06787109375 322.5569763183594 390.9819641113281 396.32464599609375 370.276611328125 C 333.180908203125 418.3644714355469 401.5695495605469 438.8612365722656 312.64605712890625 430.4629211425781"/>
    <path stroke-width="0" fill="rgb(236, 238, 243)" opacity="0.7750368" stroke="rgb(50, 94, 209)" stroke-opacity="1.0" stroke-linecap="round" stroke-linejoin="round" d="M 416.44171142578125 435.6037292480469 C 265.26934814453125 440.1922302246094 418.20166015625 487.4098815917969 344.82366943359375 448.75244140625 C 439.22430419921875 410.96405029296875 362.007568359375 399.6429138183594 372.3706359863281 441.2770080566406 C 445.7483825683594 448.7809143066406 386.5697021484375 432.60711669921875 390.6619567871094 466.5917053222656 C 384.3268127441406 424.2234802246094 400.109130859375 449.8132019042969 416.44171142578125 435.6037292480469"/>
    <path stroke-width="0" fill="rgb(253, 256, 253)" opacity="0.93838054" stroke="rgb(213, 24, 248)" stroke-opacity="1.0" stroke-linecap="round" stroke-linejoin="round" d="M 428.810546875 436.3822021484375 C 266.4377746582031 433.2484130859375 296.56353759765625 441.4474792480469 305.3890380859375 428.76947021484375 C 317.1592712402344 418.0430908203125 286.4549255371094 421.023681640625 339.4842529296875 410.0267028808594 C 358.1466064453125 387.947265625 270.9599914550781 416.7245178222656 306.8719177246094 445.6628723144531 C 313.7027587890625 431.24407958984375 283.2692565917969 447.0895080566406 428.810546875 436.3822021484375"/>
    <path stroke-width="0" fill="rgb(51, 35, 52)" opacity="0.91363084" stroke="rgb(249, 154, 188)" stroke-opacity="1.0" stroke-linecap="round" stroke-linejoin="round" d="M 344.2456359863281 195.13589477539062 C 384.61041259765625 165.3920440673828 301.7573547363281 208.86001586914062 364.1699523925781 197.0943603515625 C 375.4247741699219 191.57789611816406 363.4958190917969 183.94073486328125 354.7204895019531 207.6585693359375 C 364.03302001953125 208.6531982421875 371.8456115722656 191.1884307861328 330.5061340332031 244.50509643554688 C 349.2159118652344 238.2810516357422 365.5072937011719 216.5375518798828 344.2456359863281 195.13589477539062"/>
    <path stroke-width="0" fill="rgb(37, 34, 37)" opacity="0.9735165" stroke="rgb(72, 30, 75)" stroke-opacity="1.0" stroke-linecap="round" stroke-linejoin="round" d="M 384.4259338378906 364.39288330078125 C 333.5826721191406 353.15008544921875 314.70159912109375 333.0609436035156 336.23651123046875 362.5584411621094 C 316.326171875 330.2505187988281 377.7340393066406 315.08929443359375 330.0352478027344 343.70758056640625 C 314.75933837890625 330.3558044433594 334.2358703613281 290.972412109375 359.3243713378906 312.6077880859375 C 357.2481384277344 364.5009765625 401.3544616699219 291.4915466308594 384.4259338378906 364.39288330078125"/>
    <path stroke-width="0" fill="rgb(253, 251, 252)" opacity="0.68111277" stroke="rgb(81, 105, 16)" stroke-opacity="1.0" stroke-linecap="round" stroke-linejoin="round" d="M 361.6003723144531 372.6372375488281 C 335.4382629394531 322.2286682128906 381.2343444824219 333.8413391113281 334.72369384765625 321.94891357421875 C 325.01800537109375 384.0555114746094 312.013916015625 354.6413269042969 340.44915771484375 331.5964050292969 C 339.88671875 293.690185546875 357.841796875 353.9752502441406 361.55029296875 323.47210693359375 C 393.4361572265625 353.4054870605469 348.8291931152344 314.1521301269531 361.6003723144531 372.6372375488281"/>
    <path stroke-width="0" fill="rgb(5, -1, 9)" opacity="0.7893834" stroke="rgb(144, 67, 133)" stroke-opacity="1.0" stroke-linecap="round" stroke-linejoin="round" d="M 362.4810791015625 469.5140380859375 C 351.69915771484375 399.0118713378906 362.7754821777344 478.0105285644531 349.8916320800781 451.2157897949219 C 377.9638671875 462.007080078125 336.421875 474.1757507324219 426.2974853515625 466.52984619140625 C 385.794677734375 483.24127197265625 342.5133056640625 460.4313659667969 358.53399658203125 467.5621032714844 C 176.65953063964844 470.1854553222656 431.04132080078125 477.1802978515625 362.4810791015625 469.5140380859375"/>
    <path stroke-width="0" fill="rgb(57, 44, 53)" opacity="0.97777903" stroke="rgb(146, 236, 81)" stroke-opacity="1.0" stroke-linecap="round" stroke-linejoin="round" d="M 350.52801513671875 139.32208251953125 C 358.36077880859375 155.11720275878906 317.69744873046875 214.97837829589844 365.7340087890625 153.1069793701172 C 384.6867980957031 149.18360900878906 330.85028076171875 181.67466735839844 338.2000427246094 157.95697021484375 C 336.2684631347656 189.66317749023438 342.0955505371094 184.70877075195312 370.6085510253906 184.73391723632812 C 338.787109375 164.74282836914062 326.4285888671875 219.690185546875 350.52801513671875 139.32208251953125"/>
    <path stroke-width="0" fill="rgb(243, 244, 254)" opacity="1.0024763" stroke="rgb(33, 182, 73)" stroke-opacity="1.0" stroke-linecap="round" stroke-linejoin="round" d="M 342.9515686035156 260.5639343261719 C 320.97332763671875 223.29922485351562 340.324951171875 240.6212615966797 339.461181640625 253.60414123535156 C 395.9645080566406 209.96112060546875 382.1236877441406 240.833251953125 331.06280517578125 263.7937316894531 C 378.69586181640625 268.7629699707031 322.92657470703125 236.29302978515625 369.72467041015625 253.60919189453125 C 318.5085754394531 263.8873596191406 329.0038146972656 286.1273193359375 342.9515686035156 260.5639343261719"/>
    <path stroke-width="0" fill="rgb(39, 5, 5)" opacity="0.7266135" stroke="rgb(172, 68, 187)" stroke-opacity="1.0" stroke-linecap="round" stroke-linejoin="round" d="M 374.8005065917969 176.3984832763672 C 378.99285888671875 228.45614624023438 372.0992126464844 191.37429809570312 360.4877014160156 206.7926788330078 C 393.3544921875 212.0478515625 344.1024169921875 185.4068603515625 364.4931640625 201.35986328125 C 380.12713623046875 232.23887634277344 374.8741149902344 218.82858276367188 376.2498779296875 205.714599609375 C 360.064697265625 203.2802734375 373.92572021484375 198.1952362060547 374.8005065917969 176.3984832763672"/>
    <path stroke-width="0" fill="rgb(245, 242, 253)" opacity="0.9812375" stroke="rgb(63, 146, 150)" stroke-opacity="1.0" stroke-linecap="round" stroke-linejoin="round" d="M 394.6106262207031 364.92010498046875 C 374.2799072265625 346.57952880859375 353.80706787109375 335.0168762207031 401.39715576171875 391.7257385253906 C 364.5547180175781 349.8435974121094 353.1137390136719 411.02752685546875 367.65716552734375 342.0881652832031 C 417.64599609375 378.97149658203125 353.49884033203125 318.9322814941406 384.0993347167969 341.0167236328125 C 392.42559814453125 287.8406982421875 352.9928894042969 363.77374267578125 394.6106262207031 364.92010498046875"/>
    <path stroke-width="0" fill="rgb(256, 258, 255)" opacity="0.6845539" stroke="rgb(56, 242, 114)" stroke-opacity="1.0" stroke-linecap="round" stroke-linejoin="round" d="M 378.0538024902344 334.7701416015625 C 351.3197937011719 312.62066650390625 382.9144287109375 323.5240783691406 333.146728515625 356.5909729003906 C 316.3808288574219 264.5199279785156 346.1117858886719 327.35638427734375 345.34759521484375 259.6405029296875 C 372.1330871582031 301.3240051269531 291.1450500488281 335.26641845703125 354.5745849609375 285.4209899902344 C 374.3847961425781 218.7052001953125 381.8191223144531 279.26861572265625 378.0538024902344 334.7701416015625"/>
    <path stroke-width="0" fill="rgb(242, 246, 260)" opacity="0.9937978" stroke="rgb(178, 75, 207)" stroke-opacity="1.0" stroke-linecap="round" stroke-linejoin="round" d="M 322.2583312988281 525.334228515625 C 348.8394470214844 437.68560791015625 323.4506530761719 499.5194396972656 316.30059814453125 508.9920349121094 C 307.19244384765625 559.7802124023438 270.1194763183594 515.8577880859375 314.4942626953125 528.6309814453125 C 301.0464782714844 519.3307495117188 313.302490234375 524.725830078125 313.8912353515625 507.99090576171875 C 323.0052185058594 503.3382873535156 307.2760925292969 530.7268676757812 322.2583312988281 525.334228515625"/>
    <path stroke-width="0" fill="rgb(241, 254, 258)" opacity="1.0285907" stroke="rgb(184, 127, 243)" stroke-opacity="1.0" stroke-linecap="round" stroke-linejoin="round" d="M 348.6816101074219 63.4000358581543 C 396.5203552246094 52.243019104003906 308.6810302734375 54.615943908691406 341.67901611328125 60.78178024291992 C 315.45184326171875 91.56275939941406 362.9767761230469 67.79734802246094 334.27716064453125 62.28787612915039 C 366.37908935546875 49.02475357055664 341.72088623046875 41.25010299682617 357.7911376953125 8.315264701843262 C 340.4691467285156 79.20561218261719 405.9216613769531 66.84151458740234 348.6816101074219 63.4000358581543"/>
    <path stroke-width="0" fill="rgb(239, 243, 253)" opacity="0.93548536" stroke="rgb(108, 154, 4)" stroke-opacity="1.0" stroke-linecap="round" stroke-linejoin="round" d="M 393.16375732421875 402.4126892089844 C 412.6579895019531 440.4562072753906 393.5671081542969 431.2078857421875 411.6126403808594 412.7033386230469 C 366.0391845703125 412.3560791015625 367.7974853515625 413.6183166503906 368.7251281738281 404.5090637207031 C 401.56256103515625 387.1150207519531 408.46246337890625 419.9907531738281 379.46807861328125 384.20794677734375 C 399.23663330078125 398.1356201171875 341.9143981933594 418.49920654296875 393.16375732421875 402.4126892089844"/>
    <path stroke-width="0" fill="rgb(118, 128, 129)" opacity="0.9180192" stroke="rgb(168, 73, 157)" stroke-opacity="1.0" stroke-linecap="round" stroke-linejoin="round" d="M 338.4898376464844 38.21731185913086 C 328.9475402832031 56.19749450683594 323.00677490234375 54.182010650634766 328.9284973144531 52.245635986328125 C 343.462646484375 52.028934478759766 340.15875244140625 59.53453826904297 334.2208557128906 15.005613327026367 C 343.7632141113281 92.39222717285156 348.99188232421875 63.4555549621582 327.3851318359375 60.631168365478516 C 346.1427917480469 44.666419982910156 353.05157470703125 48.39938735961914 338.4898376464844 38.21731185913086"/>
    <path stroke-width="0" fill="rgb(232, 233, 237)" opacity="1.0057734" stroke="rgb(34, 76, 145)" stroke-opacity="1.0" stroke-linecap="round" stroke-linejoin="round" d="M 420.3647155761719 483.2157897949219 C 426.267822265625 499.072265625 441.6886291503906 509.50091552734375 404.9182434082031 503.8851013183594 C 404.9772644042969 483.7090148925781 359.75762939453125 493.35418701171875 403.5262451171875 488.2146301269531 C 422.0052490234375 524.1156005859375 380.26715087890625 530.8366088867188 433.4778747558594 517.2266235351562 C 406.9964599609375 540.1136474609375 401.049072265625 542.3400268554688 420.3647155761719 483.2157897949219"/>
    <path stroke-width="0" fill="rgb(213, 216, 230)" opacity="0.8243018" stroke="rgb(146, 166, 166)" stroke-opacity="1.0" stroke-linecap="round" stroke-linejoin="round" d="M 327.1610107421875 378.96124267578125 C 377.7766418457031 364.6562805175781 325.27960205078125 288.51361083984375 368.85308837890625 408.4401550292969 C 315.8761901855469 346.4005126953125 349.82110595703125 374.0921325683594 344.52398681640625 347.8548278808594 C 374.87646484375 360.4281005859375 343.0047912597656 322.2337646484375 321.2393798828125 389.873291015625 C 313.17742919921875 378.869140625 331.1304626464844 385.230224609375 327.1610107421875 378.96124267578125"/>
    <path stroke-width="0" fill="rgb(244, 254, 250)" opacity="0.98481184" stroke="rgb(228, 93, 111)" stroke-opacity="1.0" stroke-linecap="round" stroke-linejoin="round" d="M 371.3634948730469 404.161865234375 C 396.5235900878906 403.4878845214844 355.5396728515625 400.7774353027344 378.3844299316406 384.2978515625 C 399.2740173339844 394.3246154785156 403.6736755371094 401.6944580078125 366.8312683105469 367.5621643066406 C 409.87713623046875 417.6532897949219 371.9705505371094 390.27642822265625 388.58160400390625 405.01568603515625 C 389.86224365234375 370.74237060546875 355.0232849121094 418.4366455078125 371.3634948730469 404.161865234375"/>
    <path stroke-width="0" fill="rgb(8, 3, 2)" opacity="0.84795487" stroke="rgb(205, 179, 25)" stroke-opacity="1.0" stroke-linecap="round" stroke-linejoin="round" d="M 341.99749755859375 245.94248962402344 C 350.6141052246094 238.51437377929688 399.1021423339844 263.5800476074219 352.7532958984375 285.8414306640625 C 347.6503601074219 201.1376495361328 359.6360778808594 152.13612365722656 352.9406433105469 234.9400177001953 C 330.0259704589844 238.48826599121094 350.9547424316406 237.25120544433594 349.1466979980469 238.5264892578125 C 373.0609436035156 199.69407653808594 349.7459716796875 232.2701416015625 341.99749755859375 245.94248962402344"/>
    <path stroke-width="0" fill="rgb(244, 245, 242)" opacity="1.0151557" stroke="rgb(182, 254, 38)" stroke-opacity="1.0" stroke-linecap="round" stroke-linejoin="round" d="M 390.2593688964844 481.72247314453125 C 387.4861145019531 521.7783813476562 423.4247741699219 479.63885498046875 375.5160827636719 545.6857299804688 C 380.0926513671875 513.611083984375 372.9058837890625 496.79095458984375 385.1468505859375 537.4976806640625 C 398.59600830078125 537.6722412109375 403.4391174316406 534.2794799804688 386.1717224121094 532.6826782226562 C 400.0975036621094 477.44873046875 383.6752014160156 529.8396606445312 390.2593688964844 481.72247314453125"/>
    <path stroke-width="0" fill="rgb(261, 264, 257)" opacity="1.027172" stroke="rgb(41, 156, 31)" stroke-opacity="1.0" stroke-linecap="round" stroke-linejoin="round" d="M 354.0119934082031 43.23819351196289 C 360.60699462890625 53.4547119140625 342.11236572265625 43.79887771606445 331.85760498046875 43.07152557373047 C 354.23590087890625 73.54157257080078 341.0310974121094 13.468912124633789 371.39190673828125 76.89904022216797 C 390.82427978515625 73.65438842773438 345.8503723144531 45.1977424621582 353.3678894042969 47.44479751586914 C 323.2015686035156 47.67163848876953 352.12005615234375 51.95362091064453 354.0119934082031 43.23819351196289"/>
    <path stroke-width="0" fill="rgb(206, 214, 203)" opacity="1.0241449" stroke="rgb(205, 145, 103)" stroke-opacity="1.0" stroke-linecap="round" stroke-linejoin="round" d="M 339.0450744628906 141.41363525390625 C 348.6764831542969 116.26651000976562 392.3972473144531 173.77645874023438 357.8844909667969 120.32316589355469 C 333.9360656738281 127.53045654296875 344.14447021484375 77.75370025634766 371.7928466796875 103.12001037597656 C 342.9769287109375 90.07613372802734 359.8482360839844 127.26776123046875 355.1368103027344 141.54806518554688 C 353.9294128417969 112.52558898925781 372.2518005371094 126.5808334350586 339.0450744628906 141.41363525390625"/>
    <path stroke-width="0" fill="rgb(98, 96, 88)" opacity="0.98747265" stroke="rgb(177, 115, 184)" stroke-opacity="1.0" stroke-linecap="round" stroke-linejoin="round" d="M 353.3263244628906 239.37033081054688 C 335.3321228027344 246.69256591796875 392.0549621582031 212.8817901611328 349.3276672363281 225.3190155029297 C 393.54254150390625 293.97802734375 374.7695617675781 249.44204711914062 381.3835144042969 237.19151306152344 C 378.82373046875 248.22035217285156 365.91998291015625 221.03038024902344 361.36822509765625 220.91529846191406 C 377.42559814453125 238.93258666992188 345.2539367675781 207.2918243408203 353.3263244628906 239.37033081054688"/>
    <path stroke-width="0" fill="rgb(37, 24, 36)" opacity="0.7446207" stroke="rgb(248, 218, 2)" stroke-opacity="1.0" stroke-linecap="round" stroke-linejoin="round" d="M 316.2110290527344 502.6890869140625 C 321.09942626953125 490.8185729980469 321.59375 532.5612182617188 316.7940673828125 550.59716796875 C 295.88031005859375 536.6054077148438 296.068359375 523.6895141601562 323.1727294921875 463.2481689453125 C 278.70965576171875 493.5760498046875 334.1361389160156 488.3598937988281 326.24798583984375 495.92315673828125 C 269.622314453125 486.96173095703125 270.5591735839844 523.6693115234375 316.2110290527344 502.6890869140625"/>
    <path stroke-width="0" fill="rgb(242, 243, 252)" opacity="1.0043601" stroke="rgb(186, 43, 132)" stroke-opacity="1.0" stroke-linecap="round" stroke-linejoin="round" d="M 305.9908752441406 515.5092163085938 C 326.0715637207031 487.9332275390625 267.7850646972656 532.3126220703125 293.85589599609375 486.9212646484375 C 311.8208923339844 517.3270874023438 342.8280334472656 478.28155517578125 295.5191345214844 498.4273986816406 C 316.7711181640625 510.21087646484375 328.66650390625 471.9871520996094 295.7314147949219 511.8580322265625 C 301.9773254394531 486.599365234375 278.9110412597656 508.7603454589844 305.9908752441406 515.5092163085938"/>
    <path stroke-width="0" fill="rgb(234, 247, 244)" opacity="0.95300615" stroke="rgb(50, 4, 202)" stroke-opacity="1.0" stroke-linecap="round" stroke-linejoin="round" d="M 367.564453125 248.30043029785156 C 353.1672668457031 263.1509094238281 332.1920166015625 258.063720703125 374.0368957519531 240.16384887695312 C 363.4583740234375 231.6472625732422 329.6869201660156 233.88641357421875 325.82086181640625 286.6873474121094 C 329.1894226074219 257.91363525390625 335.87969970703125 242.30018615722656 358.7477722167969 214.08177185058594 C 373.15093994140625 231.27784729003906 378.42144775390625 223.80145263671875 367.564453125 248.30043029785156"/>
    <path stroke-width="0" fill="rgb(228, 234, 236)" opacity="0.98293185" stroke="rgb(88, 236, 179)" stroke-opacity="1.0" stroke-linecap="round" stroke-linejoin="round" d="M 343.0003662109375 140.4263153076172 C 379.465087890625 189.67864990234375 350.157470703125 162.15257263183594 364.8149108886719 87.02523803710938 C 375.988037109375 87.98049926757812 354.51007080078125 116.53949737548828 377.3049621582031 136.7928924560547 C 338.8707580566406 98.8169937133789 342.0809326171875 142.42404174804688 361.697509765625 114.2856216430664 C 323.73345947265625 94.29634857177734 383.2290954589844 153.57838439941406 343.0003662109375 140.4263153076172"/>
    <path stroke-width="0" fill="rgb(257, 254, 255)" opacity="0.8912983" stroke="rgb(41, 158, 147)" stroke-opacity="1.0" stroke-linecap="round" stroke-linejoin="round" d="M 395.9122009277344 429.2945861816406 C 422.5458984375 420.6983337402344 418.2314453125 461.2867736816406 416.3992004394531 413.5754699707031 C 401.35626220703125 446.3110046386719 408.82818603515625 392.1366882324219 398.2643737792969 404.9164733886719 C 402.46539306640625 409.6186828613281 430.7948303222656 429.2149353027344 396.87127685546875 410.820556640625 C 365.19677734375 421.2542724609375 398.2178039550781 386.23736572265625 395.9122009277344 429.2945861816406"/>
    <path stroke-width="0" fill="rgb(90, 97, 104)" opacity="0.79455423" stroke="rgb(238, 156, 136)" stroke-opacity="1.0" stroke-linecap="round" stroke-linejoin="round" d="M 358.2991943359375 25.91109275817871 C 356.97991943359375 66.05889129638672 337.8220520019531 52.408206939697266 326.4324035644531 45.475975036621094 C 336.90008544921875 51.8881950378418 333.7984924316406 48.77715301513672 338.6920166015625 57.95760726928711 C 332.92626953125 44.27692413330078 322.6539001464844 35.778507232666016 359.4627685546875 48.7501335144043 C 358.3077697753906 23.26130485534668 361.0148010253906 48.728702545166016 358.2991943359375 25.91109275817871"/>
    <path stroke-width="0" fill="rgb(122, 115, 122)" opacity="1.0245343" stroke="rgb(186, 79, 101)" stroke-opacity="1.0" stroke-linecap="round" stroke-linejoin="round" d="M 329.4707946777344 220.62490844726562 C 358.0396728515625 193.33070373535156 353.3896484375 198.9754638671875 352.21917724609375 242.38572692871094 C 367.4618835449219 241.96194458007812 340.288818359375 181.4981231689453 361.0890808105469 201.41326904296875 C 318.83575439453125 218.59536743164062 361.8461608886719 214.7989959716797 370.12640380859375 229.843505859375 C 314.5133972167969 205.8555450439453 352.35687255859375 204.99754333496094 329.4707946777344 220.62490844726562"/>
    <path stroke-width="0" fill="rgb(226, 230, 236)" opacity="0.9842504" stroke="rgb(47, 240, 188)" stroke-opacity="1.0" stroke-linecap="round" stroke-linejoin="round" d="M 371.0050964355469 223.97344970703125 C 392.49078369140625 260.0447998046875 344.3504333496094 292.80120849609375 363.1567687988281 269.7810974121094 C 294.86279296875 296.05706787109375 357.01055908203125 267.03887939453125 363.72369384765625 251.98548889160156 C 333.217041015625 251.7242431640625 354.4955139160156 220.23936462402344 365.64654541015625 232.98977661132812 C 353.86669921875 272.7543029785156 337.3416442871094 251.88223266601562 371.0050964355469 223.97344970703125"/>
    <path stroke-width="0" fill="rgb(48, 40, 46)" opacity="0.6177084" stroke="rgb(57, 64, 14)" stroke-opacity="1.0" stroke-linecap="round" stroke-linejoin="round" d="M 354.9145812988281 216.2080841064453 C 359.53643798828125 199.05519104003906 333.318603515625 212.9362335205078 375.6496887207031 230.72531127929688 C 349.0688781738281 257.33343505859375 325.8367919921875 239.5081329345703 368.9481506347656 219.98953247070312 C 365.451904296875 265.37957763671875 369.0020751953125 213.72348022460938 341.4486083984375 270.33258056640625 C 370.378662109375 202.08538818359375 337.0011901855469 232.4393768310547 354.9145812988281 216.2080841064453"/>
    <path stroke-width="0" fill="rgb(29, 31, 30)" opacity="0.8410323" stroke="rgb(79, 177, 96)" stroke-opacity="1.0" stroke-linecap="round" stroke-linejoin="round" d="M 378.81951904296875 297.50848388671875 C 369.40087890625 303.32904052734375 368.6359558105469 283.284912109375 359.66302490234375 317.08099365234375 C 382.41265869140625 335.3876037597656 370.53204345703125 297.1837463378906 372.4817810058594 312.09765625 C 367.5751037597656 237.90121459960938 401.3307800292969 252.44581604003906 360.2734680175781 303.5282287597656 C 349.7445373535156 302.9695739746094 363.1645202636719 319.27545166015625 378.81951904296875 297.50848388671875"/>
    <path stroke-width="0" fill="rgb(85, 76, 80)" opacity="1.0091794" stroke="rgb(6, 17, 173)" stroke-opacity="1.0" stroke-linecap="round" stroke-linejoin="round" d="M 398.3408203125 399.7535095214844 C 409.6259765625 381.5096130371094 341.1768798828125 390.190185546875 396.0580749511719 392.32061767578125 C 400.0264892578125 438.1330261230469 403.3110656738281 445.27545166015625 405.2472839355469 415.84637451171875 C 379.81671142578125 298.20184326171875 387.0317077636719 391.3690490722656 406.2003173828125 402.95318603515625 C 387.8658752441406 423.0396423339844 419.15155029296875 420.0401306152344 398.3408203125 399.7535095214844"/>
    <path stroke-width="0" fill="rgb(21, 6, 7)" opacity="0.7694537" stroke="rgb(136, 228, 252)" stroke-opacity="1.0" stroke-linecap="round" stroke-linejoin="round" d="M 335.05865478515625 156.61102294921875 C 388.1830139160156 114.88002014160156 369.8663635253906 111.2381820678711 363.5370178222656 128.73851013183594 C 362.6000061035156 145.28343200683594 371.00665283203125 127.9625244140625 368.817626953125 145.807373046875 C 375.0125427246094 155.0226593017578 378.7252197265625 108.42549133300781 355.78875732421875 122.71592712402344 C 351.5272521972656 109.09989929199219 389.4930419921875 107.51769256591797 335.05865478515625 156.61102294921875"/>
    <path stroke-width="0" fill="rgb(26, 35, 44)" opacity="0.7244841" stroke="rgb(169, 67, 5)" stroke-opacity="1.0" stroke-linecap="round" stroke-linejoin="round" d="M 342.81884765625 260.7583923339844 C 350.2283020019531 284.4825134277344 356.4733581542969 286.11602783203125 370.3297119140625 292.83343505859375 C 375.09271240234375 271.7485046386719 341.2325439453125 327.7378234863281 348.5918273925781 296.8255310058594 C 351.0731201171875 242.8414306640625 335.3253479003906 285.5844421386719 355.8215026855469 269.93438720703125 C 354.0726318359375 278.5366516113281 346.47625732421875 284.8653869628906 342.81884765625 260.7583923339844"/>
    <path stroke-width="0" fill="rgb(254, 260, 250)" opacity="0.5685178" stroke="rgb(81, 97, 150)" stroke-opacity="1.0" stroke-linecap="round" stroke-linejoin="round" d="M 368.7874450683594 188.60403442382812 C 338.51898193359375 114.45999145507812 362.2936706542969 235.0738983154297 373.2554626464844 170.94139099121094 C 365.3614807128906 142.37330627441406 342.4427185058594 157.80198669433594 373.3558044433594 98.43522644042969 C 320.27508544921875 161.57620239257812 338.14178466796875 105.92793273925781 374.72003173828125 115.87945556640625 C 319.9340515136719 140.16160583496094 365.9902038574219 115.96051788330078 368.7874450683594 188.60403442382812"/>
    <path stroke-width="0" fill="rgb(28, 18, 23)" opacity="0.7161523" stroke="rgb(160, 222, 69)" stroke-opacity="1.0" stroke-linecap="round" stroke-linejoin="round" d="M 364.633056640625 268.68890380859375 C 376.73199462890625 238.35826110839844 383.5350036621094 245.855712890625 338.77069091796875 244.0677490234375 C 344.5841369628906 259.18316650390625 332.9248962402344 282.38800048828125 336.388427734375 217.2325439453125 C 331.88604736328125 203.91928100585938 329.1825256347656 249.0736846923828 338.9306335449219 251.81028747558594 C 381.82415771484375 218.87986755371094 362.51629638671875 178.9110565185547 364.633056640625 268.68890380859375"/>
    <path stroke-width="0" fill="rgb(46, 41, 43)" opacity="0.95319253" stroke="rgb(47, 242, 175)" stroke-opacity="1.0" stroke-linecap="round" stroke-linejoin="round" d="M 360.6064758300781 307.7444152832031 C 372.11590576171875 352.462158203125 396.04742431640625 252.76771545410156 378.84222412109375 332.47247314453125 C 345.7204284667969 303.2083435058594 365.7234802246094 245.2990264892578 325.28729248046875 296.672119140625 C 377.4117431640625 254.24932861328125 340.517822265625 285.2913513183594 350.1012878417969 299.6650085449219 C 375.6406555175781 268.846435546875 338.23211669921875 278.1224670410156 360.6064758300781 307.7444152832031"/>
    <path stroke-width="0" fill="rgb(12, 9, 6)" opacity="0.81306994" stroke="rgb(241, 186, 64)" stroke-opacity="1.0" stroke-linecap="round" stroke-linejoin="round" d="M 357.8273010253906 303.4347839355469 C 330.0870361328125 285.4929504394531 378.09942626953125 279.9515686035156 348.41802978515625 288.9373474121094 C 361.01861572265625 281.34063720703125 357.00909423828125 255.50559997558594 351.7509460449219 273.5353088378906 C 373.0916442871094 274.4077453613281 364.8745422363281 247.1419219970703 344.66522216796875 297.6612243652344 C 365.60186767578125 288.6943664550781 334.62127685546875 305.8814697265625 357.8273010253906 303.4347839355469"/>
    <path stroke-width="0" fill="rgb(247, 244, 257)" opacity="0.99387026" stroke="rgb(132, 6, 52)" stroke-opacity="1.0" stroke-linecap="round" stroke-linejoin="round" d="M 367.29315185546875 315.2011413574219 C 333.2167053222656 322.1325378417969 376.9781799316406 327.96185302734375 384.143798828125 315.6065979003906 C 352.8339538574219 320.5301818847656 377.3916931152344 300.114990234375 375.06268310546875 321.2276306152344 C 374.5426025390625 339.33935546875 401.3540344238281 328.9054260253906 368.4526062011719 328.47503662109375 C 391.0346984863281 311.7130126953125 378.2884826660156 354.30938720703125 367.29315185546875 315.2011413574219"/>
    <path stroke-width="0" fill="rgb(6, 0, 18)" opacity="0.6143111" stroke="rgb(220, 29, 131)" stroke-opacity="1.0" stroke-linecap="round" stroke-linejoin="round" d="M 353.88812255859375 360.97216796875 C 372.877685546875 371.4739990234375 350.9693603515625 340.4696350097656 365.8861389160156 344.2698059082031 C 334.61236572265625 428.4549865722656 343.9434814453125 368.5921630859375 364.3258972167969 395.25732421875 C 353.7057800292969 401.7143859863281 380.3016052246094 419.5401916503906 361.8346862792969 371.2276611328125 C 346.1106262207031 437.6259765625 353.8176574707031 338.7995910644531 353.88812255859375 360.97216796875"/>
    <path stroke-width="0" fill="rgb(240, 242, 249)" opacity="0.9693359" stroke="rgb(182, 100, 144)" stroke-opacity="1.0" stroke-linecap="round" stroke-linejoin="round" d="M 354.2218322753906 375.2633972167969 C 315.5049743652344 370.5039978027344 319.0383605957031 423.1396484375 341.128173828125 395.0277099609375 C 336.6707763671875 375.52484130859375 344.76025390625 361.8521423339844 342.4776916503906 370.9092712402344 C 294.949462890625 342.9617614746094 356.6313781738281 347.7442626953125 320.5393371582031 385.1352844238281 C 331.3086242675781 354.58880615234375 307.5347900390625 361.6293640136719 354.2218322753906 375.2633972167969"/>
    <path stroke-width="0" fill="rgb(128, 130, 134)" opacity="0.715351" stroke="rgb(36, 124, 90)" stroke-opacity="1.0" stroke-linecap="round" stroke-linejoin="round" d="M 424.6657409667969 456.2113342285156 C 398.51641845703125 496.29541015625 390.1675109863281 474.480224609375 372.8967590332031 483.091552734375 C 390.25091552734375 477.9287414550781 374.64825439453125 482.9818420410156 392.7662658691406 475.45196533203125 C 389.8142395019531 471.140380859375 379.9163818359375 469.88299560546875 410.211669921875 484.6492614746094 C 391.1792297363281 476.9969177246094 429.40838623046875 477.6134338378906 424.6657409667969 456.2113342285156"/>
    <path stroke-width="0" fill="rgb(23, 18, 20)" opacity="0.75995743" stroke="rgb(195, 190, 230)" stroke-opacity="1.0" stroke-linecap="round" stroke-linejoin="round" d="M 312.9377136230469 398.2864074707031 C 320.1679992675781 394.3503112792969 313.42584228515625 412.2032775878906 351.4447021484375 431.1826171875 C 295.6171569824219 398.2018127441406 338.6998596191406 431.9892272949219 300.5822448730469 471.7881164550781 C 323.3370056152344 357.62109375 351.58642578125 417.2308349609375 319.39947509765625 376.256591796875 C 341.9877624511719 426.56182861328125 356.40826416015625 384.2757873535156 312.9377136230469 398.2864074707031"/>
    <path stroke-width="0" fill="rgb(39, 36, 43)" opacity="0.8207392" stroke="rgb(140, 149, 245)" stroke-opacity="1.0" stroke-linecap="round" stroke-linejoin="round" d="M 351.8065490722656 328.3916015625 C 330.8221435546875 369.7252197265625 370.60382080078125 319.0647888183594 335.370361328125 347.20245361328125 C 322.0079650878906 358.76995849609375 364.5170593261719 264.0157470703125 328.6591796875 333.77276611328125 C 316.4864807128906 347.5358581542969 328.7443542480469 336.39178466796875 328.76507568359375 333.30340576171875 C 322.4977111816406 336.1142272949219 315.3475646972656 333.9505615234375 351.8065490722656 328.3916015625"/>
    <path stroke-width="0" fill="rgb(26, 44, 43)" opacity="0.51706445" stroke="rgb(16, 123, 249)" stroke-opacity="1.0" stroke-linecap="round" stroke-linejoin="round" d="M 303.28192138671875 417.6929016113281 C 331.6710510253906 408.7833251953125 272.9056091308594 455.03814697265625 315.04669189453125 429.88238525390625 C 314.73809814453125 462.0461730957031 322.00994873046875 446.3403625488281 307.35382080078125 455.0457458496094 C 327.9742431640625 438.4821472167969 346.2643127441406 420.5854797363281 318.52001953125 445.4952087402344 C 351.5717468261719 367.9967346191406 319.8554992675781 424.0802307128906 303.28192138671875 417.6929016113281"/>
    <path stroke-width="0" fill="rgb(224, 235, 252)" opacity="0.7076406" stroke="rgb(86, 245, 59)" stroke-opacity="1.0" stroke-linecap="round" stroke-linejoin="round" d="M 331.0470886230469 283.9515686035156 C 347.0808410644531 286.0900573730469 326.8423156738281 292.9734802246094 369.69891357421875 281.14056396484375 C 329.9244689941406 295.38482666015625 333.8666076660156 258.553466796875 331.85089111328125 293.2980041503906 C 352.55389404296875 285.0931701660156 353.2885437011719 273.9656066894531 346.0495300292969 293.07501220703125 C 315.9124450683594 273.38812255859375 373.4893798828125 311.54217529296875 331.0470886230469 283.9515686035156"/>
    <path stroke-width="0" fill="rgb(61, 74, 68)" opacity="0.6871582" stroke="rgb(240, 203, 160)" stroke-opacity="1.0" stroke-linecap="round" stroke-linejoin="round" d="M 357.68365478515625 279.40521240234375 C 346.6656494140625 279.3262634277344 390.84197998046875 303.9585266113281 378.31402587890625 270.4881286621094 C 366.8467102050781 279.57220458984375 378.9820556640625 281.5933837890625 369.8431701660156 291.92230224609375 C 358.4324035644531 263.43255615234375 396.5862731933594 281.64453125 354.67333984375 286.05194091796875 C 356.5244445800781 296.30889892578125 350.4951477050781 296.321044921875 357.68365478515625 279.40521240234375"/>
    <path stroke-width="0" fill="rgb(2, 4, 0)" opacity="0.45193353" stroke="rgb(74, 216, 157)" stroke-opacity="1.0" stroke-linecap="round" stroke-linejoin="round" d="M 367.8260498046875 418.0902099609375 C 371.5452880859375 412.0990905761719 370.0774841308594 406.523681640625 365.0711364746094 415.7193603515625 C 379.3580017089844 396.4359130859375 367.6496887207031 347.97613525390625 363.0063781738281 412.3209228515625 C 338.015625 348.74285888671875 351.7471923828125 390.0123596191406 345.6976013183594 386.9411926269531 C 365.0661926269531 403.1321105957031 356.0734558105469 397.3204345703125 367.8260498046875 418.0902099609375"/>
    <path stroke-width="0" fill="rgb(9, 0, 10)" opacity="0.9213427" stroke="rgb(126, 163, 93)" stroke-opacity="1.0" stroke-linecap="round" stroke-linejoin="round" d="M 365.4632263183594 105.21586608886719 C 353.19647216796875 93.84423828125 352.3609924316406 88.17290496826172 340.8005065917969 88.09344482421875 C 370.70941162109375 122.53670501708984 321.52679443359375 87.67977142333984 358.8174743652344 113.15665435791016 C 382.4621276855469 89.20378112792969 348.1535949707031 93.81684875488281 349.3586730957031 103.38764190673828 C 351.0820007324219 104.60077667236328 338.8480224609375 91.70721435546875 365.4632263183594 105.21586608886719"/>
    <path stroke-width="0" fill="rgb(95, 81, 88)" opacity="0.72678083" stroke="rgb(24, 219, 248)" stroke-opacity="1.0" stroke-linecap="round" stroke-linejoin="round" d="M 361.8977355957031 436.98272705078125 C 369.49871826171875 374.1687927246094 382.8863525390625 413.2200622558594 353.8671569824219 376.4729919433594 C 364.7082824707031 405.77825927734375 368.25 363.3356018066406 359.8985595703125 351.3465270996094 C 384.61175537109375 406.67242431640625 395.4249267578125 349.3047180175781 358.7204284667969 368.85888671875 C 378.8690185546875 397.1267395019531 360.2610778808594 419.1305236816406 361.8977355957031 436.98272705078125"/>
    <path stroke-width="0" fill="rgb(244, 251, 254)" opacity="0.72881794" stroke="rgb(231, 197, 84)" stroke-opacity="1.0" stroke-linecap="round" stroke-linejoin="round" d="M 356.91998291015625 221.3682861328125 C 365.2905578613281 246.21035766601562 379.8665771484375 219.76513671875 360.7808837890625 222.84030151367188 C 399.6334228515625 214.86048889160156 354.1629333496094 253.8695068359375 371.2940368652344 237.84930419921875 C 362.67388916015625 249.798095703125 369.14410400390625 259.475341796875 365.89276123046875 208.0869598388672 C 394.26531982421875 243.5334014892578 357.72039794921875 249.1146240234375 356.91998291015625 221.3682861328125"/>
    <path stroke-width="0" fill="rgb(183, 179, 182)" opacity="0.5955888" stroke="rgb(103, 59, 33)" stroke-opacity="1.0" stroke-linecap="round" stroke-linejoin="round" d="M 364.9540100097656 362.2445068359375 C 380.9304504394531 348.09771728515625 389.551513671875 342.1858825683594 365.8881530761719 351.98834228515625 C 371.845703125 328.7696228027344 381.6375427246094 346.82110595703125 410.42718505859375 363.7931213378906 C 388.3730163574219 347.7462158203125 376.1329040527344 327.6735534667969 360.3790588378906 360.3411865234375 C 375.1913757324219 393.08111572265625 362.0044250488281 405.8159484863281 364.9540100097656 362.2445068359375"/>
    <path stroke-width="0" fill="rgb(234, 236, 242)" opacity="1.0248464" stroke="rgb(20, 22, 171)" stroke-opacity="1.0" stroke-linecap="round" stroke-linejoin="round" d="M 425.865234375 480.61529541015625 C 399.8654479980469 464.1017150878906 401.7654724121094 491.213623046875 406.8790283203125 488.2736511230469 C 435.786865234375 491.55889892578125 394.12982177734375 466.3954772949219 382.1337585449219 489.79058837890625 C 394.46490478515625 475.38323974609375 397.49285888671875 487.8581848144531 400.9963073730469 473.27392578125 C 404.7391357421875 476.777587890625 382.8258361816406 482.1022033691406 425.865234375 480.61529541015625"/>
    <path stroke-width="0" fill="rgb(99, 110, 110)" opacity="0.8109222" stroke="rgb(107, 142, 219)" stroke-opacity="1.0" stroke-linecap="round" stroke-linejoin="round" d="M 391.7689514160156 344.77020263671875 C 405.0304260253906 377.7889709472656 418.98504638671875 423.30230712890625 420.66754150390625 407.9798889160156 C 422.8088684082031 405.10797119140625 409.8799133300781 437.5693664550781 411.6963195800781 390.7023010253906 C 420.1971130371094 421.0439453125 436.98992919921875 410.34539794921875 401.3868103027344 408.76116943359375 C 410.9696350097656 392.8423156738281 420.1845397949219 412.6033630371094 391.7689514160156 344.77020263671875"/>
    <path stroke-width="0" fill="rgb(99, 99, 107)" opacity="0.46344465" stroke="rgb(68, 33, 14)" stroke-opacity="1.0" stroke-linecap="round" stroke-linejoin="round" d="M 355.23162841796875 311.0790710449219 C 360.9185791015625 320.205078125 335.01953125 290.0453186035156 354.2926330566406 327.8196105957031 C 362.7635192871094 333.650634765625 360.3919982910156 293.386474609375 388.26324462890625 336.2970275878906 C 392.1203308105469 333.3540954589844 385.890869140625 332.9487609863281 391.2677001953125 330.3199462890625 C 360.3608703613281 310.9799499511719 363.7760925292969 316.9033203125 355.23162841796875 311.0790710449219"/>
    <path stroke-width="0" fill="rgb(184, 176, 179)" opacity="0.7466984" stroke="rgb(66, 116, 174)" stroke-opacity="1.0" stroke-linecap="round" stroke-linejoin="round" d="M 371.1901550292969 406.2563171386719 C 384.2007751464844 378.4794921875 343.0392150878906 379.33868408203125 357.4128723144531 389.8714904785156 C 329.6019287109375 396.8855895996094 347.1254577636719 426.41339111328125 312.9699401855469 374.6271057128906 C 336.9809265136719 395.81146240234375 333.3479919433594 420.7898864746094 368.99700927734375 378.0680236816406 C 359.2153625488281 378.9625549316406 379.73968505859375 380.0778503417969 371.1901550292969 406.2563171386719"/>
    <path stroke-width="0" fill="rgb(58, 70, 69)" opacity="0.7510483" stroke="rgb(72, 96, 46)" stroke-opacity="1.0" stroke-linecap="round" stroke-linejoin="round" d="M 370.7476501464844 433.65997314453125 C 378.2314147949219 428.0699768066406 369.0282287597656 399.42706298828125 412.6944580078125 425.2958068847656 C 379.65509033203125 404.9347839355469 382.6014404296875 395.97344970703125 384.3460693359375 436.7914733886719 C 393.10858154296875 372.5406799316406 384.9180908203125 416.88214111328125 368.35784912109375 417.964599609375 C 366.50048828125 394.6963195800781 395.9051818847656 444.1416931152344 370.7476501464844 433.65997314453125"/>
    <path stroke-width="0" fill="rgb(203, 211, 214)" opacity="0.70881695" stroke="rgb(66, 95, 149)" stroke-opacity="1.0" stroke-linecap="round" stroke-linejoin="round" d="M 335.33123779296875 322.7659912109375 C 322.8948974609375 298.3225402832031 334.19281005859375 322.05328369140625 331.5531311035156 340.8125915527344 C 361.4383544921875 311.42919921875 354.6103820800781 337.8094787597656 348.19384765625 327.0050048828125 C 345.1072082519531 379.3874816894531 318.58038330078125 316.825439453125 332.45281982421875 325.50579833984375 C 349.93902587890625 315.98785400390625 334.6597900390625 347.398681640625 335.33123779296875 322.7659912109375"/>
    <path stroke-width="0" fill="rgb(207, 195, 196)" opacity="0.73134184" stroke="rgb(203, 19, 132)" stroke-opacity="1.0" stroke-linecap="round" stroke-linejoin="round" d="M 336.9891052246094 91.93589782714844 C 333.4396057128906 109.02691650390625 359.232421875 90.74118041992188 379.4412841796875 111.52360534667969 C 368.7501525878906 114.00588989257812 354.0185546875 87.50382995605469 369.9718933105469 84.91383361816406 C 324.13116455078125 101.02053833007812 339.9986877441406 73.89521789550781 343.68450927734375 107.33211517333984 C 351.8512878417969 100.1980209350586 348.97161865234375 90.7862319946289 336.9891052246094 91.93589782714844"/>
    <path stroke-width="0" fill="rgb(124, 125, 129)" opacity="0.37837288" stroke="rgb(147, 244, 164)" stroke-opacity="1.0" stroke-linecap="round" stroke-linejoin="round" d="M 328.72723388671875 107.69525146484375 C 378.2437438964844 98.29969024658203 399.3244323730469 80.48857116699219 350.9124755859375 71.49810028076172 C 396.0632019042969 85.07996368408203 386.66363525390625 89.1750259399414 395.6561279296875 114.99742126464844 C 368.9676818847656 143.08331298828125 365.4217529296875 85.5841064453125 362.1920166015625 85.37046813964844 C 388.69793701171875 100.57401275634766 413.5185546875 105.13289642333984 328.72723388671875 107.69525146484375"/>
    <path stroke-width="0" fill="rgb(172, 194, 186)" opacity="0.547977" stroke="rgb(109, 130, 136)" stroke-opacity="1.0" stroke-linecap="round" stroke-linejoin="round" d="M 366.97064208984375 285.92083740234375 C 396.08148193359375 271.7572326660156 368.93841552734375 285.1119689941406 380.5218200683594 277.3375549316406 C 393.7140197753906 279.42840576171875 352.3504943847656 277.1688232421875 382.6632080078125 282.2247619628906 C 341.2005615234375 294.5611267089844 348.4088134765625 255.5176239013672 340.3110046386719 272.06512451171875 C 355.64349365234375 274.86572265625 323.5440979003906 278.94970703125 366.97064208984375 285.92083740234375"/>
    <path stroke-width="0" fill="rgb(42, 36, 41)" opacity="0.8921804" stroke="rgb(47, 230, 138)" stroke-opacity="1.0" stroke-linecap="round" stroke-linejoin="round" d="M 380.8600158691406 490.68853759765625 C 417.7041931152344 474.59375 390.2342529296875 475.79376220703125 426.8951110839844 485.5389099121094 C 418.5652160644531 485.3790283203125 431.2051086425781 461.6192932128906 412.8526611328125 490.4627380371094 C 412.7643127441406 494.7806396484375 386.8302001953125 542.295166015625 420.81634521484375 486.87286376953125 C 412.7039489746094 496.3070983886719 434.1412353515625 471.7770690917969 380.8600158691406 490.68853759765625"/>
    <path stroke-width="0" fill="rgb(125, 125, 129)" opacity="0.36015925" stroke="rgb(224, 116, 184)" stroke-opacity="1.0" stroke-linecap="round" stroke-linejoin="round" d="M 369.068603515625 111.43086242675781 C 398.7694091796875 109.85073852539062 376.9082946777344 106.69486236572266 360.82220458984375 86.88873291015625 C 356.0027770996094 116.32439422607422 366.6053466796875 127.1654052734375 389.7814636230469 86.18682098388672 C 369.0867004394531 107.75117492675781 341.788330078125 80.3524169921875 317.92730712890625 135.74252319335938 C 334.4058837890625 102.90447235107422 351.5677795410156 106.30413055419922 369.068603515625 111.43086242675781"/>
    <path stroke-width="0" fill="rgb(123, 130, 130)" opacity="0.46780062" stroke="rgb(230, 175, 178)" stroke-opacity="1.0" stroke-linecap="round" stroke-linejoin="round" d="M 392.024169921875 93.50919342041016 C 399.0005187988281 52.69549560546875 398.243408203125 70.66259002685547 383.5909423828125 97.23626708984375 C 389.5357360839844 99.20289611816406 417.5776672363281 96.2118911743164 403.6910400390625 85.31195068359375 C 365.834716796875 120.5945816040039 327.0574645996094 94.86392974853516 321.36865234375 102.3490219116211 C 342.467041015625 117.75631713867188 347.04193115234375 85.51786804199219 392.024169921875 93.50919342041016"/>
    <path stroke-width="0" fill="rgb(212, 205, 224)" opacity="0.807346" stroke="rgb(192, 162, 61)" stroke-opacity="1.0" stroke-linecap="round" stroke-linejoin="round" d="M 357.0763854980469 343.3322448730469 C 374.42755126953125 319.6976318359375 353.78216552734375 331.36163330078125 358.44708251953125 334.7039489746094 C 374.2325744628906 339.1932067871094 360.2074890136719 337.34759521484375 353.66754150390625 323.36492919921875 C 355.4745788574219 343.0606994628906 371.8447570800781 333.8898620605469 365.59979248046875 334.0400390625 C 390.8392639160156 327.6908264160156 392.2170104980469 314.2234802246094 357.0763854980469 343.3322448730469"/>
    <path stroke-width="0" fill="rgb(198, 203, 210)" opacity="0.57351273" stroke="rgb(203, 244, 116)" stroke-opacity="1.0" stroke-linecap="round" stroke-linejoin="round" d="M 396.357177734375 399.2438659667969 C 438.21173095703125 418.6537780761719 412.4109191894531 409.2595520019531 392.37225341796875 398.189208984375 C 391.3533935546875 434.66986083984375 399.80218505859375 445.5781555175781 353.6177062988281 406.6382141113281 C 344.3136901855469 351.1684265136719 321.67254638671875 396.30108642578125 385.6882019042969 432.1122131347656 C 398.25140380859375 389.4755554199219 406.8915710449219 386.77630615234375 396.357177734375 399.2438659667969"/>
    <path stroke-width="0" fill="rgb(123, 125, 123)" opacity="0.89333194" stroke="rgb(209, 231, 207)" stroke-opacity="1.0" stroke-linecap="round" stroke-linejoin="round" d="M 366.07110595703125 -10.313698768615723 C 358.10107421875 -8.817402839660645 352.18414306640625 -1.461106300354004 369.2245178222656 -3.4766533374786377 C 387.265625 -7.575571537017822 377.2897033691406 -18.447284698486328 367.5125427246094 -32.20763397216797 C 357.3088073730469 10.338201522827148 353.7659606933594 6.857427597045898 346.7136535644531 -32.64646530151367 C 374.9783630371094 -16.048751831054688 375.07598876953125 -11.324017524719238 366.07110595703125 -10.313698768615723"/>
    <path stroke-width="0" fill="rgb(19, 30, 41)" opacity="0.45625505" stroke="rgb(160, 101, 15)" stroke-opacity="1.0" stroke-linecap="round" stroke-linejoin="round" d="M 342.2548828125 112.24674224853516 C 338.1004943847656 98.58575439453125 345.5625 117.13037872314453 354.75677490234375 104.33607482910156 C 370.053466796875 90.0342788696289 368.0235900878906 94.646240234375 362.0406494140625 103.58832550048828 C 353.6447448730469 96.37928771972656 331.0726318359375 55.17457962036133 358.635498046875 64.1781997680664 C 329.0259094238281 94.63455200195312 371.4721984863281 125.7142105102539 342.2548828125 112.24674224853516"/>
    <path stroke-width="0" fill="rgb(134, 142, 151)" opacity="0.8201285" stroke="rgb(65, 216, 8)" stroke-opacity="1.0" stroke-linecap="round" stroke-linejoin="round" d="M 348.7300109863281 17.349382400512695 C 351.9984130859375 1.1835708618164062 343.3335876464844 19.12307357788086 346.4319763183594 12.073360443115234 C 352.8432922363281 11.84768295288086 342.1106262207031 14.522372245788574 349.1072082519531 9.964634895324707 C 351.3551025390625 19.21307945251465 341.11614990234375 29.33648109436035 347.8780517578125 10.468798637390137 C 342.3715515136719 26.12700080871582 347.4924011230469 20.45218849182129 348.7300109863281 17.349382400512695"/>
    <path stroke-width="0" fill="rgb(99, 107, 111)" opacity="0.67411906" stroke="rgb(102, 236, 25)" stroke-opacity="1.0" stroke-linecap="round" stroke-linejoin="round" d="M 326.14996337890625 442.9254455566406 C 351.1546325683594 479.3020324707031 348.1374206542969 462.7141418457031 312.4823303222656 415.544921875 C 347.5959167480469 456.82049560546875 298.56842041015625 395.78857421875 314.9891662597656 435.63458251953125 C 304.7382507324219 463.45074462890625 323.4452209472656 434.8363342285156 330.7508850097656 437.8764953613281 C 350.76031494140625 403.4156494140625 343.2629089355469 426.824462890625 326.14996337890625 442.9254455566406"/>
    <path stroke-width="0" fill="rgb(70, 52, 54)" opacity="0.58462787" stroke="rgb(17, 64, 56)" stroke-opacity="1.0" stroke-linecap="round" stroke-linejoin="round" d="M 375.1338195800781 72.64698028564453 C 389.38140869140625 71.13720703125 363.7552490234375 101.89908599853516 397.4253234863281 110.7330322265625 C 376.2488708496094 104.30872344970703 362.9705810546875 70.68170166015625 379.7547302246094 116.53423309326172 C 355.61920166015625 89.24810791015625 359.64251708984375 82.44049072265625 364.98974609375 97.44580841064453 C 317.3475341796875 93.16503143310547 389.56903076171875 113.72838592529297 375.1338195800781 72.64698028564453"/>
    <path stroke-width="0" fill="rgb(38, 50, 41)" opacity="0.9895747" stroke="rgb(162, 125, 252)" stroke-opacity="1.0" stroke-linecap="round" stroke-linejoin="round" d="M 367.9888916015625 119.77101135253906 C 376.2648010253906 86.76022338867188 373.3267517089844 120.61774444580078 363.2535095214844 87.42041015625 C 354.326171875 72.37836456298828 345.8580627441406 129.1239776611328 350.155029296875 114.4341049194336 C 345.6053161621094 75.86946105957031 339.7057189941406 71.49654388427734 341.17828369140625 115.60136413574219 C 374.8799133300781 74.39562225341797 375.843994140625 71.86634063720703 367.9888916015625 119.77101135253906"/>
    <path stroke-width="0" fill="rgb(4, 0, 13)" opacity="0.54969317" stroke="rgb(199, 73, 61)" stroke-opacity="1.0" stroke-linecap="round" stroke-linejoin="round" d="M 314.4234313964844 457.9507141113281 C 355.1758117675781 475.74688720703125 298.6642761230469 465.738037109375 354.48187255859375 463.3424987792969 C 347.7420959472656 442.93560791015625 344.14544677734375 470.7812194824219 355.4022216796875 472.72662353515625 C 342.6660461425781 460.5916442871094 313.606201171875 417.23077392578125 329.7615966796875 456.3384094238281 C 353.9700622558594 441.5312194824219 332.4122009277344 471.7977600097656 314.4234313964844 457.9507141113281"/>
    <path stroke-width="0" fill="rgb(48, 48, 55)" opacity="0.7597556" stroke="rgb(62, 169, 131)" stroke-opacity="1.0" stroke-linecap="round" stroke-linejoin="round" d="M 302.94805908203125 450.90301513671875 C 319.1979675292969 477.65185546875 332.775634765625 466.6591491699219 333.7064208984375 425.9412841796875 C 330.9280090332031 462.8441467285156 286.9328918457031 458.4755554199219 287.6438903808594 502.45379638671875 C 303.045166015625 454.09613037109375 308.7303771972656 455.9854431152344 320.1333923339844 447.642333984375 C 322.8338928222656 428.9010314941406 304.1631164550781 463.9267272949219 302.94805908203125 450.90301513671875"/>
    <path stroke-width="0" fill="rgb(178, 183, 198)" opacity="0.72548133" stroke="rgb(141, 73, 180)" stroke-opacity="1.0" stroke-linecap="round" stroke-linejoin="round" d="M 328.6866455078125 440.096923828125 C 335.59271240234375 470.2110595703125 316.97418212890625 464.9443664550781 327.3450622558594 448.4797058105469 C 327.6462707519531 484.32806396484375 331.4542541503906 447.78082275390625 300.9376525878906 451.7771301269531 C 321.96051025390625 474.5836181640625 301.83648681640625 423.4111022949219 322.6816711425781 451.5154113769531 C 295.6048889160156 471.7306213378906 337.7134094238281 463.1893310546875 328.6866455078125 440.096923828125"/>
    <path stroke-width="0" fill="rgb(123, 136, 131)" opacity="0.35939702" stroke="rgb(91, 211, 235)" stroke-opacity="1.0" stroke-linecap="round" stroke-linejoin="round" d="M 393.3553161621094 74.06310272216797 C 354.7157897949219 81.13325500488281 340.30426025390625 76.46717071533203 355.74578857421875 118.10737609863281 C 356.1395568847656 90.810546875 345.6634826660156 79.59305572509766 349.0308837890625 99.17064666748047 C 348.7437744140625 73.18174743652344 369.82568359375 81.30156707763672 395.3180847167969 73.15311431884766 C 380.6105041503906 38.84347152709961 381.2948913574219 44.037200927734375 393.3553161621094 74.06310272216797"/>
    <path stroke-width="0" fill="rgb(117, 110, 130)" opacity="0.22200051" stroke="rgb(59, 88, 207)" stroke-opacity="1.0" stroke-linecap="round" stroke-linejoin="round" d="M 376.0062561035156 133.18670654296875 C 360.3095397949219 130.38003540039062 354.1721496582031 107.82383728027344 338.261962890625 103.39207458496094 C 364.5152587890625 96.3655014038086 373.6575927734375 88.59993743896484 362.9114074707031 105.11197662353516 C 334.0943298339844 112.90419006347656 346.7155456542969 140.2837677001953 347.699462890625 103.82972717285156 C 327.3340759277344 91.6799545288086 346.4744873046875 118.8207778930664 376.0062561035156 133.18670654296875"/>
    <path stroke-width="0" fill="rgb(259, 262, 253)" opacity="0.46767458" stroke="rgb(63, 27, 242)" stroke-opacity="1.0" stroke-linecap="round" stroke-linejoin="round" d="M 345.27532958984375 103.73573303222656 C 334.60675048828125 72.53971099853516 331.2931213378906 85.11026000976562 336.797119140625 92.13677978515625 C 370.0675964355469 106.509765625 366.9963073730469 83.4859619140625 366.0035705566406 82.65577697753906 C 304.13592529296875 84.19691467285156 330.13787841796875 75.09437561035156 363.1076965332031 92.48078155517578 C 347.8460693359375 63.7013053894043 354.09588623046875 101.31918334960938 345.27532958984375 103.73573303222656"/>
    <path stroke-width="0" fill="rgb(255, 263, 258)" opacity="0.54809374" stroke="rgb(175, 14, 186)" stroke-opacity="1.0" stroke-linecap="round" stroke-linejoin="round" d="M 351.8486633300781 73.73192596435547 C 374.68853759765625 67.16439056396484 377.38922119140625 118.26359558105469 338.93707275390625 88.2076416015625 C 331.5035095214844 76.65687561035156 340.188232421875 122.65718078613281 334.473876953125 92.99551391601562 C 331.6217346191406 99.08338928222656 383.0433654785156 87.24210357666016 358.4839782714844 83.74432373046875 C 365.36444091796875 81.10795593261719 372.53839111328125 74.48558807373047 351.8486633300781 73.73192596435547"/>
    <path stroke-width="0" fill="rgb(43, 52, 44)" opacity="0.8388737" stroke="rgb(69, 96, 95)" stroke-opacity="1.0" stroke-linecap="round" stroke-linejoin="round" d="M 354.3561096191406 480.65350341796875 C 408.7221374511719 502.260986328125 377.9624938964844 439.8053283691406 407.2443542480469 448.94830322265625 C 384.8280029296875 453.024658203125 398.8106994628906 450.3914794921875 392.1303405761719 465.1746520996094 C 384.6411437988281 485.8560485839844 387.75054931640625 465.4945068359375 391.5635070800781 471.4884338378906 C 364.02734375 469.42572021484375 400.2239685058594 485.46295166015625 354.3561096191406 480.65350341796875"/>
    <path stroke-width="0" fill="rgb(117, 146, 174)" opacity="0.1907303" stroke="rgb(213, 60, 128)" stroke-opacity="1.0" stroke-linecap="round" stroke-linejoin="round" d="M 355.3756408691406 123.56846618652344 C 349.69891357421875 110.04795837402344 341.82177734375 127.4749755859375 334.12274169921875 139.4703369140625 C 352.010498046875 109.98088836669922 369.3731384277344 101.50398254394531 347.7313232421875 123.35950469970703 C 360.3502197265625 101.3858413696289 369.840576171875 105.16915893554688 323.7220764160156 121.53455352783203 C 349.3518371582031 114.09259033203125 353.06005859375 115.37727355957031 355.3756408691406 123.56846618652344"/>
    <path stroke-width="0" fill="rgb(57, 64, 56)" opacity="0.97887146" stroke="rgb(161, 221, 239)" stroke-opacity="1.0" stroke-linecap="round" stroke-linejoin="round" d="M 359.4844970703125 83.88336181640625 C 343.0211181640625 141.85107421875 337.8641662597656 176.913818359375 353.791748046875 133.92425537109375 C 343.9575500488281 134.849609375 346.60455322265625 112.9572982788086 328.3912658691406 127.7403564453125 C 343.1570739746094 118.91073608398438 358.9329833984375 109.31295776367188 337.5791931152344 99.81412506103516 C 387.3011474609375 103.4301528930664 356.45806884765625 105.0528335571289 359.4844970703125 83.88336181640625"/>
    <path stroke-width="0" fill="rgb(114, 124, 126)" opacity="0.29149738" stroke="rgb(178, 246, 253)" stroke-opacity="1.0" stroke-linecap="round" stroke-linejoin="round" d="M 398.65936279296875 68.82109832763672 C 412.4110412597656 78.61846160888672 302.3817443847656 77.57921600341797 323.6897277832031 76.59778594970703 C 317.608642578125 104.22842407226562 310.1385498046875 103.15271759033203 313.16375732421875 87.47821044921875 C 312.4488525390625 63.54700469970703 295.95611572265625 97.1336669921875 360.3460388183594 71.79569244384766 C 350.5349426269531 51.42070388793945 366.5365295410156 93.15443420410156 398.65936279296875 68.82109832763672"/>
    <path stroke-width="0" fill="rgb(179, 198, 215)" opacity="0.6592409" stroke="rgb(33, 154, 97)" stroke-opacity="1.0" stroke-linecap="round" stroke-linejoin="round" d="M 351.5787048339844 115.62469482421875 C 348.7269287109375 115.98628997802734 351.6148376464844 122.99179077148438 351.2915954589844 94.64981079101562 C 359.3005676269531 138.3824462890625 325.1984558105469 129.15875244140625 356.5564880371094 115.4073257446289 C 355.9799499511719 125.3228988647461 338.7597351074219 108.17514038085938 364.0077209472656 119.74745178222656 C 340.8821716308594 108.67375183105469 364.59063720703125 118.0083999633789 351.5787048339844 115.62469482421875"/>
    <path stroke-width="0" fill="rgb(26, 36, 46)" opacity="0.73146194" stroke="rgb(246, 139, 70)" stroke-opacity="1.0" stroke-linecap="round" stroke-linejoin="round" d="M 333.01715087890625 77.17317199707031 C 352.3856201171875 106.82518005371094 322.4172058105469 82.43858337402344 371.49163818359375 89.93571472167969 C 375.04559326171875 75.41067504882812 342.8744201660156 75.61824798583984 316.06085205078125 85.02359008789062 C 391.7350769042969 80.68161010742188 365.3546447753906 92.70612335205078 367.1265869140625 73.54283142089844 C 348.1891174316406 52.79060363769531 394.0501403808594 84.10784912109375 333.01715087890625 77.17317199707031"/>
    <path stroke-width="0" fill="rgb(203, 205, 218)" opacity="0.82717997" stroke="rgb(116, 102, 63)" stroke-opacity="1.0" stroke-linecap="round" stroke-linejoin="round" d="M 315.3729553222656 496.7859191894531 C 286.904541015625 474.6115417480469 293.0335693359375 463.42510986328125 300.3515319824219 474.5975341796875 C 315.8446350097656 464.6650085449219 293.89752197265625 454.5648498535156 310.507568359375 487.15869140625 C 278.5074768066406 476.4151306152344 325.09375 486.79150390625 297.12554931640625 473.7275695800781 C 287.3296813964844 468.5826721191406 301.48699951171875 481.6195983886719 315.3729553222656 496.7859191894531"/>
    <path stroke-width="0" fill="rgb(124, 129, 140)" opacity="0.96428525" stroke="rgb(79, 95, 133)" stroke-opacity="1.0" stroke-linecap="round" stroke-linejoin="round" d="M 392.1195983886719 114.32911682128906 C 370.25732421875 119.34001922607422 339.0790100097656 101.84845733642578 322.89739990234375 131.16827392578125 C 376.1956481933594 142.03665161132812 349.7883605957031 153.91575622558594 328.8023376464844 128.72474670410156 C 337.9980163574219 133.7130126953125 344.42681884765625 121.16122436523438 354.3985290527344 99.91850280761719 C 326.6387023925781 110.98832702636719 349.6004638671875 114.74752807617188 392.1195983886719 114.32911682128906"/>
    <path stroke-width="0" fill="rgb(64, 71, 75)" opacity="0.6748531" stroke="rgb(85, 235, 219)" stroke-opacity="1.0" stroke-linecap="round" stroke-linejoin="round" d="M 372.2171936035156 106.893798828125 C 348.0671691894531 114.3719482421875 380.4010925292969 103.9795913696289 371.9743347167969 119.34337615966797 C 381.1605529785156 120.43170166015625 352.66510009765625 110.14292907714844 351.6637878417969 127.96065521240234 C 325.1702575683594 120.2000503540039 345.5682067871094 107.84098052978516 358.19915771484375 154.27273559570312 C 324.7844543457031 102.80342864990234 363.7624206542969 137.4757080078125 372.2171936035156 106.893798828125"/>
    <path stroke-width="0" fill="rgb(121, 129, 125)" opacity="0.6701838" stroke="rgb(64, 113, 26)" stroke-opacity="1.0" stroke-linecap="round" stroke-linejoin="round" d="M 367.8299560546875 102.3785171508789 C 379.9231262207031 140.07113647460938 428.87451171875 81.77123260498047 337.7974853515625 105.42384338378906 C 356.9512939453125 65.81395721435547 292.4935607910156 88.8212890625 320.7755432128906 76.43092346191406 C 312.75994873046875 66.23937225341797 328.24346923828125 82.73616027832031 305.78118896484375 97.049560546875 C 359.6216735839844 70.45071411132812 340.9503173828125 107.47358703613281 367.8299560546875 102.3785171508789"/>
    <path stroke-width="0" fill="rgb(162, 151, 150)" opacity="0.9431137" stroke="rgb(0, 0, 0)" stroke-opacity="0.0" stroke-linecap="round" stroke-linejoin="round" d="M 493.638671875 1.0075997114181519 C 492.30401611328125 4.755067348480225 488.99578857421875 7.291967868804932 485.2361145019531 8.531251907348633 C 481.8266296386719 8.398091316223145 478.1930847167969 5.494988441467285 478.61529541015625 2.3047847747802734 C 479.6600036621094 -1.9479902982711792 482.3189392089844 -5.239595413208008 485.87969970703125 -6.585352420806885 C 489.6934509277344 -5.472087860107422 492.3844909667969 -2.3835856914520264 493.638671875 1.0075997114181519"/>
    <path stroke-width="0" fill="rgb(51, 151, 25)" opacity="0.85701156" stroke="rgb(0, 0, 0)" stroke-opacity="0.0" stroke-linecap="round" stroke-linejoin="round" d="M 504.34039306640625 0.9356251955032349 C 503.036376953125 5.227163791656494 500.3984680175781 8.387462615966797 496.5896911621094 9.659591674804688 C 492.98565673828125 8.96117877960205 489.98382568359375 6.011811256408691 489.3007507324219 2.094163656234741 C 490.2775573730469 -1.802995204925537 493.2557373046875 -4.782735347747803 497.0979919433594 -6.022564888000488 C 501.5998229980469 -5.18674898147583 505.03179931640625 -2.7236483097076416 504.34039306640625 0.9356251955032349"/>
    <path stroke-width="0" fill="rgb(105, 93, 131)" opacity="0.8942555" stroke="rgb(0, 0, 0)" stroke-opacity="0.0" stroke-linecap="round" stroke-linejoin="round" d="M 459.5392761230469 375.4478759765625 C 458.82452392578125 379.6681823730469 455.9724426269531 382.63055419921875 451.44219970703125 383.526123046875 C 447.24139404296875 382.8286437988281 444.2860107421875 379.962158203125 443.5564880371094 375.3547668457031 C 444.6845703125 371.2560729980469 447.4189147949219 368.19854736328125 451.4893493652344 367.1204833984375 C 455.9208068847656 368.3271789550781 458.8728332519531 371.205078125 459.5392761230469 375.4478759765625"/>
    <path stroke-width="0" fill="rgb(231, 178, 49)" opacity="0.46894628" stroke="rgb(0, 0, 0)" stroke-opacity="0.0" stroke-linecap="round" stroke-linejoin="round" d="M 102.72344970703125 29.55457878112793 C 102.1578140258789 33.825225830078125 99.36358642578125 36.53888702392578 94.7663803100586 37.73642349243164 C 90.75585174560547 36.5587158203125 87.75125885009766 33.65700912475586 86.76956176757812 29.793554306030273 C 88.31471252441406 25.561967849731445 91.09263610839844 22.7441349029541 94.73114776611328 22.111909866333008 C 98.70136260986328 22.868223190307617 101.77108001708984 25.58345603942871 102.72344970703125 29.55457878112793"/>
    <path stroke-width="0" fill="rgb(235, 74, 84)" opacity="0.6014147" stroke="rgb(0, 0, 0)" stroke-opacity="0.0" stroke-linecap="round" stroke-linejoin="round" d="M 192.21092224121094 479.7428894042969 C 191.18301391601562 484.2225341796875 188.1520233154297 486.97149658203125 183.48887634277344 488.193603515625 C 179.32199096679688 487.2720642089844 176.6264190673828 484.2272644042969 175.61964416503906 479.7318115234375 C 176.62564086914062 475.6050720214844 179.58575439453125 472.6040344238281 183.80227661132812 471.4501953125 C 188.3484344482422 472.406982421875 191.29315185546875 475.23797607421875 192.21092224121094 479.7428894042969"/>
    <path stroke-width="0" fill="rgb(222, 125, 229)" opacity="0.18551789" stroke="rgb(0, 0, 0)" stroke-opacity="0.0" stroke-linecap="round" stroke-linejoin="round" d="M -31.53519058227539 -8.746243476867676 C -32.60698699951172 -4.746243476867676 -35.53519058227539 -1.818040132522583 -39.53519058227539 -0.746243417263031 C -43.53519058227539 -1.818040132522583 -46.46339416503906 -4.746243476867676 -47.53519058227539 -8.746243476867676 C -46.46339416503906 -12.746243476867676 -43.53519058227539 -15.674447059631348 -39.53519058227539 -16.74624252319336 C -35.53519058227539 -15.674447059631348 -32.60698699951172 -12.746243476867676 -31.53519058227539 -8.746243476867676"/>
    <path stroke-width="0" fill="rgb(118, 107, 91)" opacity="0.9156077" stroke="rgb(0, 0, 0)" stroke-opacity="0.0" stroke-linecap="round" stroke-linejoin="round" d="M 175.18858337402344 162.22630310058594 C 174.42767333984375 166.54501342773438 171.493408203125 169.23123168945312 166.9599151611328 169.5769500732422 C 163.20529174804688 168.81690979003906 160.3103790283203 165.91091918945312 159.33924865722656 161.85488891601562 C 159.86813354492188 157.7605438232422 162.69699096679688 154.7362060546875 167.06893920898438 153.82864379882812 C 171.5183563232422 154.78797912597656 174.49012756347656 157.55862426757812 175.18858337402344 162.22630310058594"/>
    <path stroke-width="0" fill="rgb(147, 198, 202)" opacity="0.34453046" stroke="rgb(0, 0, 0)" stroke-opacity="0.0" stroke-linecap="round" stroke-linejoin="round" d="M 51.97712707519531 -25.785717010498047 C 50.905330657958984 -21.785717010498047 47.97712707519531 -18.857513427734375 43.97712707519531 -17.785717010498047 C 39.97712707519531 -18.857513427734375 37.04892349243164 -21.785717010498047 35.97712707519531 -25.785717010498047 C 37.04892349243164 -29.785717010498047 39.97712707519531 -32.71392059326172 43.97712707519531 -33.78571701049805 C 47.97712707519531 -32.71392059326172 50.905330657958984 -29.785717010498047 51.97712707519531 -25.785717010498047"/>
    <path stroke-width="0" fill="rgb(220, 112, 124)" opacity="0.44836918" stroke="rgb(0, 0, 0)" stroke-opacity="0.0" stroke-linecap="round" stroke-linejoin="round" d="M -27.628564834594727 85.1070556640625 C -28.700361251831055 89.1070556640625 -31.628564834594727 92.03526306152344 -35.628562927246094 93.1070556640625 C -39.628562927246094 92.03526306152344 -42.556766510009766 89.1070556640625 -43.628562927246094 85.1070556640625 C -42.556766510009766 81.1070556640625 -39.628562927246094 78.1788558959961 -35.628562927246094 77.1070556640625 C -31.628564834594727 78.1788558959961 -28.700361251831055 81.1070556640625 -27.628564834594727 85.1070556640625"/>
    <path stroke-width="0" fill="rgb(220, 159, 106)" opacity="0.40991494" stroke="rgb(0, 0, 0)" stroke-opacity="0.0" stroke-linecap="round" stroke-linejoin="round" d="M 326.0235290527344 255.1064453125 C 325.114013671875 259.3464660644531 322.3006591796875 262.131103515625 318.3116760253906 263.09326171875 C 314.15380859375 261.7236328125 310.8927917480469 259.2262878417969 310.31787109375 255.2135772705078 C 311.3224182128906 251.30531311035156 314.2751159667969 248.37889099121094 318.2804260253906 246.87461853027344 C 322.19610595703125 247.9635009765625 324.9923095703125 251.03250122070312 326.0235290527344 255.1064453125"/>
    <path stroke-width="0" fill="rgb(18, 220, 234)" opacity="0.10335027" stroke="rgb(0, 0, 0)" stroke-opacity="0.0" stroke-linecap="round" stroke-linejoin="round" d="M 10.542159080505371 1.5300700664520264 C 10.613147735595703 5.334221363067627 7.426774978637695 7.90627384185791 2.87661075592041 8.52755069732666 C -1.2506202459335327 8.116976737976074 -4.122096538543701 5.185418128967285 -4.989740371704102 0.9705573320388794 C -3.854062080383301 -3.143756866455078 -0.9258587956428528 -6.071959972381592 3.0678155422210693 -7.141584396362305 C 6.882477283477783 -5.995648384094238 9.334271430969238 -2.652712106704712 10.542159080505371 1.5300700664520264"/>
    <path stroke-width="0" fill="rgb(225, 17, 248)" opacity="0.07911015" stroke="rgb(0, 0, 0)" stroke-opacity="0.0" stroke-linecap="round" stroke-linejoin="round" d="M 97.25221252441406 58.880924224853516 C 96.19677734375 62.975975036621094 93.5704345703125 66.13627624511719 90.21711730957031 66.89249420166016 C 86.1739730834961 65.73709106445312 82.69634246826172 63.278831481933594 81.81549835205078 59.844783782958984 C 83.39282989501953 55.863773345947266 86.33818054199219 53.0036506652832 89.84403228759766 51.98036193847656 C 93.58585357666016 52.78818893432617 96.82975769042969 55.309024810791016 97.25221252441406 58.880924224853516"/>
    <path stroke-width="0" fill="rgb(87, 193, 80)" opacity="0.6573189" stroke="rgb(0, 0, 0)" stroke-opacity="0.0" stroke-linecap="round" stroke-linejoin="round" d="M -73.11454772949219 6.831310272216797 C -74.18634033203125 10.831310272216797 -77.11454772949219 13.759513854980469 -81.11454772949219 14.831310272216797 C -85.11454772949219 13.759513854980469 -88.0427474975586 10.831310272216797 -89.11454772949219 6.831310272216797 C -88.0427474975586 2.831310510635376 -85.11454772949219 -0.09689275175333023 -81.11454772949219 -1.168689489364624 C -77.11454772949219 -0.09689275175333023 -74.18634033203125 2.831310510635376 -73.11454772949219 6.831310272216797"/>
    <path stroke-width="0" fill="rgb(140, 209, 185)" opacity="0.031864088" stroke="rgb(0, 0, 0)" stroke-opacity="0.0" stroke-linecap="round" stroke-linejoin="round" d="M 256.0062255859375 461.2603759765625 C 255.556396484375 465.8304748535156 252.6954345703125 468.6265869140625 248.50997924804688 469.5641784667969 C 244.2746124267578 468.4288330078125 241.55361938476562 465.3219299316406 240.430419921875 461.1845703125 C 241.2125244140625 457.22369384765625 244.1952362060547 454.51702880859375 248.26768493652344 453.6977233886719 C 252.41769409179688 454.4997253417969 255.4458465576172 457.18218994140625 256.0062255859375 461.2603759765625"/>
    <path stroke-width="0" fill="rgb(9, 84, 27)" opacity="0.4779993" stroke="rgb(0, 0, 0)" stroke-opacity="0.0" stroke-linecap="round" stroke-linejoin="round" d="M 284.1107482910156 124.1904525756836 C 282.6838684082031 127.86839294433594 279.9267883300781 131.0926513671875 276.0096740722656 132.0310516357422 C 272.015625 131.24600219726562 269.2485656738281 128.39239501953125 267.8800354003906 123.9592056274414 C 268.8907470703125 119.85406494140625 271.75927734375 116.88612365722656 276.0635986328125 116.28280639648438 C 280.1605224609375 117.10346221923828 283.0699462890625 120.27748107910156 284.1107482910156 124.1904525756836"/>
    <path stroke-width="0" fill="rgb(84, 207, 35)" opacity="0.22736245" stroke="rgb(0, 0, 0)" stroke-opacity="0.0" stroke-linecap="round" stroke-linejoin="round" d="M -72.00602722167969 -1.8590314388275146 C -73.07782745361328 2.1409685611724854 -76.00602722167969 5.069171905517578 -80.00602722167969 6.1409687995910645 C -84.00602722167969 5.069171905517578 -86.93423461914062 2.1409685611724854 -88.00602722167969 -1.8590314388275146 C -86.93423461914062 -5.8590312004089355 -84.00602722167969 -8.78723430633545 -80.00602722167969 -9.859031677246094 C -76.00602722167969 -8.78723430633545 -73.07782745361328 -5.8590312004089355 -72.00602722167969 -1.8590314388275146"/>
    <path stroke-width="0" fill="rgb(82, 181, 87)" opacity="0.7166669" stroke="rgb(0, 0, 0)" stroke-opacity="0.0" stroke-linecap="round" stroke-linejoin="round" d="M 369.14263916015625 201.8482666015625 C 367.9759216308594 206.0890350341797 365.0720520019531 209.05801391601562 361.2666931152344 210.29295349121094 C 357.79937744140625 208.9871826171875 354.8921813964844 205.78753662109375 353.8079833984375 202.61947631835938 C 355.02191162109375 198.94337463378906 357.8023986816406 195.85047912597656 361.5567932128906 194.77279663085938 C 365.18231201171875 195.81175231933594 368.6261901855469 198.16079711914062 369.14263916015625 201.8482666015625"/>
    <path stroke-width="0" fill="rgb(41, 74, 45)" opacity="0.34550565" stroke="rgb(0, 0, 0)" stroke-opacity="0.0" stroke-linecap="round" stroke-linejoin="round" d="M 530.0132446289062 109.59485626220703 C 528.94140625 113.59485626220703 526.0132446289062 116.52306365966797 522.0132446289062 117.59485626220703 C 518.0132446289062 116.52306365966797 515.0850219726562 113.59485626220703 514.0132446289062 109.59485626220703 C 515.0850219726562 105.59485626220703 518.0132446289062 102.66665649414062 522.0132446289062 101.59485626220703 C 526.0132446289062 102.66665649414062 528.94140625 105.59485626220703 530.0132446289062 109.59485626220703"/>
    <path stroke-width="0" fill="rgb(225, 54, 157)" opacity="0.111366294" stroke="rgb(0, 0, 0)" stroke-opacity="0.0" stroke-linecap="round" stroke-linejoin="round" d="M 275.4189453125 436.8877258300781 C 274.1802673339844 440.9691467285156 271.3757019042969 444.08099365234375 267.91107177734375 444.81561279296875 C 263.6716003417969 443.52294921875 260.4658203125 440.8902587890625 259.5152282714844 437.32574462890625 C 260.6728820800781 433.3013610839844 263.5970764160156 430.3200378417969 267.3575439453125 429.0893249511719 C 271.3023376464844 430.1705322265625 274.4328308105469 433.0539245605469 275.4189453125 436.8877258300781"/>
    <path stroke-width="0" fill="rgb(125, 183, 21)" opacity="0.8655656" stroke="rgb(0, 0, 0)" stroke-opacity="0.0" stroke-linecap="round" stroke-linejoin="round" d="M 172.59451293945312 162.41818237304688 C 172.253662109375 166.49111938476562 169.49839782714844 169.4134063720703 164.67898559570312 170.4607391357422 C 160.6885223388672 169.33729553222656 157.84048461914062 166.35438537597656 156.85958862304688 162.26805114746094 C 158.2279815673828 158.1167755126953 161.0877685546875 155.19427490234375 164.60667419433594 154.44509887695312 C 168.67430114746094 155.53646850585938 171.6044158935547 158.3814239501953 172.59451293945312 162.41818237304688"/>
    <path stroke-width="0" fill="rgb(131, 251, 52)" opacity="0.5235055" stroke="rgb(0, 0, 0)" stroke-opacity="0.0" stroke-linecap="round" stroke-linejoin="round" d="M 309.703125 345.6516418457031 C 308.6763916015625 350.2685241699219 305.9925537109375 353.2381591796875 301.8708190917969 354.0897216796875 C 297.895263671875 352.4784851074219 294.797119140625 349.6322937011719 293.7153015136719 346.0850524902344 C 294.86798095703125 341.8392333984375 297.2380676269531 338.4559326171875 300.9600524902344 338.4626159667969 C 305.2461242675781 339.4916076660156 308.74755859375 341.8323974609375 309.703125 345.6516418457031"/>
    <path stroke-width="0" fill="rgb(235, 204, 184)" opacity="0.5630354" stroke="rgb(0, 0, 0)" stroke-opacity="0.0" stroke-linecap="round" stroke-linejoin="round" d="M 163.72837829589844 301.9220275878906 C 162.7916717529297 306.79364013671875 159.86793518066406 309.5727844238281 155.97120666503906 310.5166931152344 C 151.88238525390625 309.4084777832031 149.10289001464844 306.4315490722656 148.32901000976562 302.1429748535156 C 148.3372344970703 298.16766357421875 151.4777069091797 295.9689636230469 155.73924255371094 294.5011291503906 C 159.4929656982422 295.9964904785156 162.87181091308594 298.6049499511719 163.72837829589844 301.9220275878906"/>
  </g>
</svg>
