<?xml version="1.0" ?>
<svg xmlns="http://www.w3.org/2000/svg" version="1.1" width="600" height="600">
  <defs/>
  <g>
    <path stroke-width="0" fill="rgb(0, 0, 0)" opacity="1.0" d="M 350.73443603515625 128.77523803710938 C 365.27215576171875 128.77523803710938 379.673095703125 128.77523803710938 393.937255859375 128.77523803710938 C 408.201416015625 128.77523803710938 422.328857421875 128.77523803710938 436.31939697265625 128.77523803710938 C 438.3515625 136.35830688476562 440.1883544921875 144.60586547851562 441.8297119140625 153.51791381835938 C 443.4710693359375 162.42996215820312 444.9169921875 172.00653076171875 446.16754150390625 182.24755859375 C 447.4962158203125 192.48858642578125 448.4927978515625 203.08145141601562 449.15716552734375 214.02606201171875 C 449.821533203125 224.97067260742188 450.1536865234375 236.26708984375 450.1536865234375 247.915283203125 C 450.1536865234375 259.4853515625 450.1536865234375 271.0749206542969 450.1536865234375 282.68402099609375 C 450.1536865234375 294.29315185546875 450.1536865234375 305.92181396484375 450.1536865234375 317.57000732421875 C 450.1536865234375 331.01629638671875 450.1536865234375 344.38433837890625 450.1536865234375 357.67425537109375 C 450.1536865234375 370.96417236328125 450.1536865234375 384.1759033203125 450.1536865234375 397.3094482421875 C 450.1536865234375 410.4429931640625 449.5284423828125 423.400634765625 448.27783203125 436.182373046875 C 447.02728271484375 448.96417236328125 445.1514892578125 461.570068359375 442.650390625 474.0 C 428.50341796875 474.0 414.2197265625 474.0 399.79925537109375 474.0 C 392.5889892578125 474.0 385.34454345703125 474.0 378.06591796875 474.0 C 370.787353515625 474.0 363.4744873046875 474.0 356.12744140625 474.0 C 350.8516845703125 461.8826904296875 345.55633544921875 450.0390625 340.241455078125 438.46905517578125 C 334.9266357421875 426.8990478515625 329.5921630859375 415.60260009765625 324.23828125 404.579833984375 C 318.88427734375 393.5570068359375 313.51080322265625 382.80780029296875 308.1177978515625 372.332275390625 C 302.7247619628906 361.856689453125 297.31219482421875 351.65472412109375 291.8800964355469 341.72637939453125 C 286.487060546875 331.75897216796875 280.976806640625 321.83551025390625 275.34930419921875 311.9560241699219 C 269.7218017578125 302.0765380859375 263.97705078125 292.24102783203125 258.11505126953125 282.44952392578125 C 252.2530517578125 272.657958984375 246.27386474609375 262.910400390625 240.1773681640625 253.20684814453125 C 234.0809326171875 243.50323486328125 227.86721801757812 233.8436279296875 221.5362548828125 224.22802734375 C 221.5362548828125 234.74267578125 221.5362548828125 244.95928955078125 221.5362548828125 254.87783813476562 C 221.5362548828125 264.7964172363281 221.5362548828125 274.41693115234375 221.5362548828125 283.7394104003906 C 221.5362548828125 293.0618896484375 221.5362548828125 302.0863037109375 221.5362548828125 310.81268310546875 C 221.5362548828125 319.5390625 221.5362548828125 327.9674072265625 221.5362548828125 336.09771728515625 C 221.5362548828125 344.18890380859375 221.67303466796875 351.9869384765625 221.94659423828125 359.4918212890625 C 222.22015380859375 366.9967041015625 222.6304931640625 374.20849609375 223.1776123046875 381.1270751953125 C 224.2718505859375 394.96417236328125 225.9132080078125 407.628662109375 228.1016845703125 419.1204833984375 C 230.36834716796875 430.61236572265625 232.4200439453125 440.93157958984375 234.25677490234375 450.07818603515625 C 236.093505859375 459.2247314453125 237.71533203125 467.19873046875 239.12222290039062 474.0 C 225.9132080078125 474.0 212.68466186523438 474.0 199.43658447265625 474.0 C 186.18850708007812 474.0 172.92086791992188 474.0 159.63369750976562 474.0 C 158.07049560546875 461.8045654296875 156.68316650390625 449.14007568359375 155.4716796875 436.00653076171875 C 154.26022338867188 422.8729248046875 153.224609375 409.2703857421875 152.36483764648438 395.19873046875 C 151.583251953125 381.1270751953125 150.99703979492188 367.133544921875 150.60626220703125 353.21826171875 C 150.2154541015625 339.30291748046875 150.02005004882812 325.4658203125 150.02005004882812 311.70684814453125 C 150.02005004882812 298.4951171875 150.02005004882812 285.63519287109375 150.02005004882812 273.12701416015625 C 150.02005004882812 260.618896484375 150.02005004882812 248.4625244140625 150.02005004882812 236.657958984375 C 150.02005004882812 224.7752685546875 150.37176513671875 213.51791381835938 151.0751953125 202.885986328125 C 151.77865600585938 192.25405883789062 152.83380126953125 182.24755859375 154.24066162109375 172.866455078125 C 155.64755249023438 163.48532104492188 157.113037109375 155.04232788085938 158.63717651367188 147.53744506835938 C 160.16128540039062 140.03256225585938 161.7440185546875 133.46578979492188 163.3853759765625 127.83712768554688 C 174.40591430664062 128.77523803710938 185.44598388671875 129.24429321289062 196.50558471679688 129.24429321289062 C 207.565185546875 129.24429321289062 218.64434814453125 128.77523803710938 229.7430419921875 127.83712768554688 C 234.00274658203125 132.99673461914062 238.54580688476562 138.82571411132812 243.37216186523438 145.3240966796875 C 248.19854736328125 151.82247924804688 253.3082275390625 158.990234375 258.70123291015625 166.82736206054688 C 264.09429931640625 174.66448974609375 269.7706298828125 183.17098999023438 275.7303161621094 192.34689331054688 C 281.69000244140625 201.52279663085938 287.93304443359375 211.36807250976562 294.4593505859375 221.88275146484375 C 300.9857177734375 232.39739990234375 307.6341552734375 243.69866943359375 314.40478515625 255.78662109375 C 317.7900390625 261.83062744140625 321.20587158203125 268.07122802734375 324.6522216796875 274.508544921875 C 328.0986328125 280.94586181640625 331.57550048828125 287.5798034667969 335.0828857421875 294.410400390625 C 338.59033203125 301.24102783203125 342.1282958984375 308.268310546875 345.69677734375 315.49224853515625 C 349.2652587890625 322.7161865234375 352.8642578125 330.13677978515625 356.49383544921875 337.75408935546875 C 360.12335205078125 345.371337890625 363.783447265625 353.18524169921875 367.47406005859375 361.19586181640625 C 371.1646728515625 369.2064208984375 374.88580322265625 377.4136962890625 378.637451171875 385.817626953125 C 378.637451171875 372.8795166015625 378.510498046875 360.439697265625 378.2564697265625 348.49835205078125 C 378.00244140625 336.5570068359375 377.62139892578125 325.114013671875 377.1134033203125 314.16937255859375 C 376.6053466796875 303.2247314453125 375.97027587890625 292.77850341796875 375.208251953125 282.83062744140625 C 374.4461669921875 272.8827209472656 373.55712890625 263.4332275390625 372.541015625 254.48208618164062 C 371.52490234375 245.53094482421875 370.49420166015625 237.05374145507812 369.4488525390625 229.05047607421875 C 368.4034423828125 221.0472412109375 367.3433837890625 213.51791381835938 366.2686767578125 206.4625244140625 C 364.1192626953125 192.351806640625 361.9112548828125 180.13681030273438 359.6446533203125 169.81759643554688 C 355.2677001953125 149.17913818359375 352.297607421875 135.49835205078125 350.73443603515625 128.77523803710938"/>
  </g>
</svg>
