<?xml version="1.0" ?>
<svg xmlns="http://www.w3.org/2000/svg" version="1.1" width="600" height="600">
  <defs/>
  <g>
    <path stroke-width="0" fill="rgb(0, 0, 0)" opacity="1.0" d="M 157.83648681640625 268.74981689453125 C 160.54815673828125 268.74981689453125 163.23434448242188 268.74981689453125 165.89501953125 268.74981689453125 C 168.55569458007812 268.74981689453125 171.19085693359375 268.74981689453125 173.80050659179688 268.74981689453125 C 174.1795654296875 270.1611328125 174.52215576171875 271.69610595703125 174.82833862304688 273.354736328125 C 175.13449096679688 275.01336669921875 175.40420532226562 276.795654296875 175.637451171875 278.70166015625 C 175.88531494140625 280.60760498046875 176.07119750976562 282.57904052734375 176.19512939453125 284.615966796875 C 176.31903076171875 286.65283203125 176.3809814453125 288.7552490234375 176.3809814453125 290.923095703125 C 176.3809814453125 293.076416015625 176.3809814453125 295.2333984375 176.3809814453125 297.39398193359375 C 176.3809814453125 299.5545654296875 176.3809814453125 301.71875 176.3809814453125 303.88665771484375 C 176.3809814453125 306.38916015625 176.3809814453125 308.8770751953125 176.3809814453125 311.3504638671875 C 176.3809814453125 313.8238525390625 176.3809814453125 316.28271484375 176.3809814453125 318.72705078125 C 176.3809814453125 321.17132568359375 176.26437377929688 323.5828857421875 176.03109741210938 325.96173095703125 C 175.7978515625 328.340576171875 175.44793701171875 330.6866455078125 174.98141479492188 333.0 C 172.34259033203125 333.0 169.67828369140625 333.0 166.98846435546875 333.0 C 165.6435546875 333.0 164.292236328125 333.0 162.9345703125 333.0 C 161.576904296875 333.0 160.21286010742188 333.0 158.84243774414062 333.0 C 157.85833740234375 330.744873046875 156.87060546875 328.5406494140625 155.87924194335938 326.3873291015625 C 154.88787841796875 324.2340087890625 153.89285278320312 322.131591796875 152.8941650390625 320.08013916015625 C 151.8955078125 318.0286865234375 150.89321899414062 316.028076171875 149.88726806640625 314.0784912109375 C 148.88128662109375 312.12890625 147.8717041015625 310.230224609375 146.85845947265625 308.3824462890625 C 145.85250854492188 306.52734375 144.82467651367188 304.68048095703125 143.77499389648438 302.841796875 C 142.72531127929688 301.003173828125 141.65374755859375 299.172607421875 140.56033325195312 297.350341796875 C 139.46688842773438 295.52801513671875 138.35159301757812 293.7138671875 137.21444702148438 291.907958984375 C 136.0772705078125 290.10198974609375 134.91824340820312 288.30419921875 133.73733520507812 286.5146484375 C 133.73733520507812 288.4715576171875 133.73733520507812 290.37298583984375 133.73733520507812 292.21893310546875 C 133.73733520507812 294.06488037109375 133.73733520507812 295.8553466796875 133.73733520507812 297.59039306640625 C 133.73733520507812 299.325439453125 133.73733520507812 301.00494384765625 133.73733520507812 302.6290283203125 C 133.73733520507812 304.25311279296875 133.73733520507812 305.82171630859375 133.73733520507812 307.3348388671875 C 133.73733520507812 308.8406982421875 133.76284790039062 310.2919921875 133.81387329101562 311.688720703125 C 133.86489868164062 313.08551025390625 133.94143676757812 314.42767333984375 134.04348754882812 315.71533203125 C 134.24758911132812 318.29052734375 134.55377197265625 320.6475830078125 134.96197509765625 322.78631591796875 C 135.384765625 324.925048828125 135.7674560546875 326.8455810546875 136.11007690429688 328.5478515625 C 136.45266723632812 330.2501220703125 136.75518798828125 331.73419189453125 137.01760864257812 333.0 C 134.55377197265625 333.0 132.08627319335938 333.0 129.6151123046875 333.0 C 127.14398193359375 333.0 124.669189453125 333.0 122.19073486328125 333.0 C 121.899169921875 330.73028564453125 121.640380859375 328.373291015625 121.41439819335938 325.928955078125 C 121.18844604492188 323.48468017578125 120.99526977539062 320.953125 120.83489990234375 318.334228515625 C 120.6890869140625 315.71533203125 120.57977294921875 313.1109619140625 120.50686645507812 310.52117919921875 C 120.4339599609375 307.931396484375 120.39752197265625 305.35614013671875 120.39752197265625 302.79541015625 C 120.39752197265625 300.3365478515625 120.39752197265625 297.9432373046875 120.39752197265625 295.61529541015625 C 120.39752197265625 293.28741455078125 120.39752197265625 291.02496337890625 120.39752197265625 288.8280029296875 C 120.39752197265625 286.61651611328125 120.463134765625 284.5213623046875 120.59432983398438 282.54266357421875 C 120.72555541992188 280.56396484375 120.92236328125 278.70166015625 121.18478393554688 276.9556884765625 C 121.44720458984375 275.20977783203125 121.7205810546875 273.638427734375 122.00485229492188 272.24169921875 C 122.28915405273438 270.844970703125 122.58438110351562 269.622802734375 122.89053344726562 268.57525634765625 C 124.9461669921875 268.74981689453125 127.00546264648438 268.837158203125 129.06838989257812 268.837158203125 C 131.13134765625 268.837158203125 133.19790649414062 268.74981689453125 135.26812744140625 268.57525634765625 C 136.06268310546875 269.5355224609375 136.91009521484375 270.620361328125 137.81036376953125 271.82977294921875 C 138.71060180664062 273.0391845703125 139.6636962890625 274.3731689453125 140.669677734375 275.831787109375 C 141.67562866210938 277.29034423828125 142.73440551757812 278.87353515625 143.8460693359375 280.58123779296875 C 144.95773315429688 282.2889404296875 146.12222290039062 284.12127685546875 147.33956909179688 286.07818603515625 C 148.55691528320312 288.0350341796875 149.79705810546875 290.13836669921875 151.05996704101562 292.3880615234375 C 151.69140625 293.512939453125 152.32855224609375 294.67437744140625 152.97140502929688 295.8724365234375 C 153.6142578125 297.0704345703125 154.26278686523438 298.30511474609375 154.91702270507812 299.576416015625 C 155.57125854492188 300.84765625 156.23117065429688 302.155517578125 156.89682006835938 303.49993896484375 C 157.56243896484375 304.8443603515625 158.2337646484375 306.2254638671875 158.9107666015625 307.64312744140625 C 159.5877685546875 309.060791015625 160.27047729492188 310.5150146484375 160.95889282226562 312.005859375 C 161.64730834960938 313.49676513671875 162.34140014648438 315.024169921875 163.04119873046875 316.5882568359375 C 163.04119873046875 314.18035888671875 163.01748657226562 311.86517333984375 162.97012329101562 309.64276123046875 C 162.9227294921875 307.4202880859375 162.85165405273438 305.2906494140625 162.75689697265625 303.2537841796875 C 162.66213989257812 301.216796875 162.54367065429688 299.272705078125 162.40151977539062 297.4212646484375 C 162.2593994140625 295.56982421875 162.09356689453125 293.8111572265625 161.90402221679688 292.145263671875 C 161.7144775390625 290.4793701171875 161.52224731445312 288.90167236328125 161.32723999023438 287.41217041015625 C 161.13223266601562 285.92266845703125 160.93450927734375 284.5213623046875 160.73406982421875 283.20831298828125 C 160.3331298828125 280.5821533203125 159.9212646484375 278.30877685546875 159.49847412109375 276.3883056640625 C 158.68206787109375 272.5472412109375 158.1280517578125 270.0010986328125 157.83648681640625 268.74981689453125"/>
    <path stroke-width="0" fill="rgb(0, 0, 0)" opacity="1.0" d="M 205.29119873046875 333.0 C 202.9002685546875 333.0 200.50564575195312 333.0 198.10739135742188 333.0 C 195.70913696289062 333.0 193.3072509765625 333.0 190.90170288085938 333.0 C 190.55181884765625 330.9049072265625 190.37686157226562 328.48968505859375 190.37686157226562 325.75439453125 C 190.37686157226562 323.01910400390625 190.37686157226562 320.61846923828125 190.37686157226562 318.55242919921875 C 190.37686157226562 316.180908203125 190.46798706054688 313.78387451171875 190.65020751953125 311.36138916015625 C 190.83245849609375 308.93896484375 191.1058349609375 306.490966796875 191.47027587890625 304.017578125 C 191.849365234375 301.5296630859375 192.37783813476562 299.0816650390625 193.05575561523438 296.67376708984375 C 193.73370361328125 294.265869140625 194.56103515625 291.89794921875 195.537841796875 289.570068359375 C 196.52920532226562 287.24212646484375 197.70648193359375 285.01605224609375 199.06961059570312 282.891845703125 C 200.4327392578125 280.76763916015625 201.98178100585938 278.7452392578125 203.7166748046875 276.82476806640625 C 205.46615600585938 274.8896484375 207.45620727539062 273.1146240234375 209.68679809570312 271.4996337890625 C 210.80209350585938 270.692138671875 211.9775390625 269.9246826171875 213.21310424804688 269.197265625 C 214.44866943359375 268.4697265625 215.744384765625 267.78228759765625 217.1002197265625 267.1348876953125 C 219.52035522460938 268.34246826171875 221.747314453125 269.69921875 223.78106689453125 271.205078125 C 225.81484985351562 272.7109375 227.65545654296875 274.36590576171875 229.30288696289062 276.1700439453125 C 230.9503173828125 277.9595947265625 232.4373779296875 279.8619384765625 233.76406860351562 281.8770751953125 C 235.09075927734375 283.89208984375 236.257080078125 286.01995849609375 237.26303100585938 288.2606201171875 C 238.26898193359375 290.501220703125 239.13278198242188 292.82183837890625 239.85446166992188 295.22247314453125 C 240.57611083984375 297.6231689453125 241.1556396484375 300.103759765625 241.593017578125 302.66448974609375 C 242.03036499023438 305.2252197265625 242.3583984375 307.825927734375 242.57708740234375 310.46661376953125 C 242.7957763671875 313.1072998046875 242.90512084960938 315.7880859375 242.90512084960938 318.5087890625 C 242.90512084960938 320.4583740234375 242.90512084960938 322.5826416015625 242.90512084960938 324.8814697265625 C 242.90512084960938 326.01629638671875 242.8468017578125 327.2821044921875 242.73016357421875 328.6788330078125 C 242.613525390625 330.0755615234375 242.4385986328125 331.603271484375 242.205322265625 333.26190185546875 C 240.86404418945312 333.0872802734375 239.27493286132812 333.0 237.43798828125 333.0 C 235.63018798828125 333.0 233.83697509765625 333.0 232.05831909179688 333.0 C 230.308837890625 333.0 228.82177734375 333.0872802734375 227.59713745117188 333.26190185546875 C 228.09280395507812 331.6614990234375 228.54476928710938 330.0465087890625 228.95297241210938 328.41693115234375 C 229.3612060546875 326.75830078125 229.5653076171875 324.852294921875 229.5653076171875 322.69903564453125 C 229.5653076171875 319.9927978515625 228.7926025390625 318.07232666015625 227.24725341796875 316.9375 C 225.70184326171875 315.77349853515625 223.22341918945312 315.1915283203125 219.81192016601562 315.1915283203125 C 216.92529296875 315.1915283203125 214.25732421875 315.526123046875 211.80804443359375 316.1954345703125 C 209.387939453125 316.86474609375 207.434326171875 317.9122314453125 205.947265625 319.338134765625 C 204.460205078125 320.763916015625 203.7166748046875 322.5826416015625 203.7166748046875 324.79412841796875 C 203.7166748046875 326.19091796875 203.847900390625 327.55853271484375 204.11032104492188 328.8970947265625 C 204.40191650390625 330.235595703125 204.7955322265625 331.603271484375 205.29119873046875 333.0M 203.7166748046875 307.98956298828125 C 205.84521484375 307.2330322265625 208.22161865234375 306.563720703125 210.8458251953125 305.98175048828125 C 212.15792846679688 305.67620849609375 213.6195068359375 305.44708251953125 215.23046875 305.2943115234375 C 216.8414306640625 305.14154052734375 218.60186767578125 305.065185546875 220.51171875 305.065185546875 C 221.94046020507812 305.065185546875 223.4566650390625 305.12335205078125 225.06036376953125 305.23974609375 C 226.6640625 305.35614013671875 228.16571044921875 305.5743408203125 229.5653076171875 305.89447021484375 C 229.5653076171875 303.188232421875 229.27737426757812 300.61669921875 228.70147705078125 298.17962646484375 C 228.1256103515625 295.74261474609375 227.26181030273438 293.440185546875 226.11007690429688 291.2723388671875 C 224.972900390625 289.1044921875 223.64620971679688 287.16937255859375 222.1300048828125 285.46710205078125 C 220.61376953125 283.76483154296875 218.90802001953125 282.2952880859375 217.01275634765625 281.05859375 C 215.48196411132812 282.1207275390625 214.08599853515625 283.3173828125 212.82492065429688 284.648681640625 C 211.5638427734375 285.97998046875 210.4376220703125 287.44580078125 209.44622802734375 289.0462646484375 C 208.46945190429688 290.63214111328125 207.62020874023438 292.2398681640625 206.8985595703125 293.869384765625 C 206.1768798828125 295.4989013671875 205.58279418945312 297.1502685546875 205.11627197265625 298.823486328125 C 204.64971923828125 300.49664306640625 204.29983520507812 302.0970458984375 204.06658935546875 303.624755859375 C 203.83331298828125 305.1524658203125 203.7166748046875 306.607421875 203.7166748046875 307.98956298828125"/>
    <path stroke-width="0" fill="rgb(0, 0, 0)" opacity="1.0" d="M 279.29437255859375 300.74395751953125 C 279.29437255859375 302.19891357421875 279.29437255859375 303.690185546875 279.29437255859375 305.2178955078125 C 279.29437255859375 306.74560546875 279.29437255859375 308.3096923828125 279.29437255859375 309.91009521484375 C 279.29437255859375 311.4959716796875 279.34906005859375 313.06732177734375 279.4583740234375 314.6241455078125 C 279.5677490234375 316.180908203125 279.73175048828125 317.72314453125 279.950439453125 319.2508544921875 C 280.16912841796875 320.77850341796875 280.3878173828125 322.24798583984375 280.60650634765625 323.6593017578125 C 280.8251647949219 325.070556640625 281.0438537597656 326.4237060546875 281.2625427246094 327.71856689453125 C 281.6999206542969 330.308349609375 282.1081237792969 332.4471435546875 282.4871826171875 334.1348876953125 C 279.83380126953125 333.829345703125 277.180419921875 333.676513671875 274.52703857421875 333.676513671875 C 271.8736572265625 333.676513671875 269.22027587890625 333.829345703125 266.56689453125 334.1348876953125 C 266.15869140625 331.6614990234375 265.9545593261719 328.95526123046875 265.9545593261719 326.01629638671875 C 265.9545593261719 324.5322265625 265.9545593261719 323.03369140625 265.9545593261719 321.5205078125 C 265.9545593261719 320.00738525390625 265.9545593261719 318.479736328125 265.9545593261719 316.9375 C 265.9545593261719 315.3297119140625 265.9545593261719 313.782958984375 265.9545593261719 312.297119140625 C 265.9545593261719 310.811279296875 265.9545593261719 309.3863525390625 265.9545593261719 308.0223388671875 C 265.9545593261719 305.2943115234375 265.9545593261719 302.80999755859375 265.9545593261719 300.56939697265625 C 265.9545593261719 298.314208984375 266.01654052734375 296.2227783203125 266.14044189453125 294.294921875 C 266.26434326171875 292.3671875 266.45025634765625 290.60302734375 266.6980895996094 289.0025634765625 C 266.9459228515625 287.40216064453125 267.19012451171875 285.89990234375 267.4306945800781 284.49591064453125 C 267.6712341308594 283.0919189453125 267.90814208984375 281.7861328125 268.14141845703125 280.5784912109375 C 266.0274658203125 280.76763916015625 264.0556335449219 281.022216796875 262.2259521484375 281.34234619140625 C 260.39630126953125 281.6624755859375 258.70880126953125 282.0479736328125 257.16339111328125 282.4990234375 C 254.0726318359375 283.401123046875 251.88580322265625 284.15765380859375 250.60284423828125 284.76873779296875 C 251.0548095703125 282.4407958984375 251.39373779296875 280.16748046875 251.6197509765625 277.94873046875 C 251.845703125 275.72991943359375 251.95867919921875 273.565673828125 251.95867919921875 271.4560546875 C 253.22705078125 271.063232421875 254.65582275390625 270.70672607421875 256.24493408203125 270.38665771484375 C 257.83404541015625 270.0665283203125 259.5835266113281 269.7828369140625 261.4933776855469 269.5355224609375 C 263.4178161621094 269.27362060546875 265.49169921875 269.07720947265625 267.7149658203125 268.9462890625 C 269.93829345703125 268.8153076171875 272.31103515625 268.74981689453125 274.83319091796875 268.74981689453125 C 277.384521484375 268.74981689453125 279.7645263671875 268.8189697265625 281.9732666015625 268.9571533203125 C 284.1820068359375 269.09539794921875 286.21942138671875 269.302734375 288.08551025390625 269.57916259765625 C 289.9662170410156 269.841064453125 291.75579833984375 270.1829833984375 293.4542541503906 270.6048583984375 C 295.1527099609375 271.02685546875 296.76007080078125 271.52880859375 298.2762756347656 272.1107177734375 C 297.80975341796875 274.3804931640625 297.386962890625 276.6356201171875 297.00787353515625 278.876220703125 C 296.65802001953125 281.1168212890625 296.3809814453125 283.401123046875 296.1768798828125 285.72900390625 C 294.718994140625 284.826904296875 292.6341857910156 283.8812255859375 289.9224853515625 282.891845703125 C 288.5812072753906 282.397216796875 287.1014404296875 281.97161865234375 285.483154296875 281.6151123046875 C 283.8648986816406 281.2586669921875 282.1081237792969 280.9713134765625 280.21282958984375 280.7530517578125 C 279.90667724609375 282.86279296875 279.67706298828125 284.826904296875 279.52398681640625 286.6456298828125 C 279.37091064453125 288.46429443359375 279.29437255859375 290.137451171875 279.29437255859375 291.6651611328125 C 279.29437255859375 293.19287109375 279.29437255859375 294.7132568359375 279.29437255859375 296.22637939453125 C 279.29437255859375 297.739501953125 279.29437255859375 299.245361328125 279.29437255859375 300.74395751953125"/>
    <path stroke-width="0" fill="rgb(0, 0, 0)" opacity="1.0" d="M 338.55810546875 268.74981689453125 C 340.75958251953125 268.74981689453125 342.9537353515625 268.74981689453125 345.14056396484375 268.74981689453125 C 347.327392578125 268.74981689453125 349.5069580078125 268.74981689453125 351.67926025390625 268.74981689453125 C 352.2041015625 270.699462890625 352.6998291015625 273.39111328125 353.16632080078125 276.82476806640625 C 353.39959716796875 278.52703857421875 353.6146240234375 280.3602294921875 353.81146240234375 282.324462890625 C 354.00823974609375 284.28857421875 354.1868896484375 286.38372802734375 354.34722900390625 288.6097412109375 C 354.52215576171875 290.8212890625 354.65338134765625 293.1309814453125 354.7408447265625 295.5389404296875 C 354.82830810546875 297.94683837890625 354.8720703125 300.4530029296875 354.8720703125 303.057373046875 C 354.8720703125 306.1126708984375 354.6898193359375 308.96435546875 354.3253173828125 311.61236572265625 C 353.96087646484375 314.2603759765625 353.4141845703125 316.7047119140625 352.6851806640625 318.9453125 C 351.9708251953125 321.17132568359375 350.983154296875 323.1500244140625 349.7220458984375 324.8814697265625 C 348.4609375 326.61279296875 346.926513671875 328.09686279296875 345.11871337890625 329.33355712890625 C 343.3109130859375 330.5556640625 341.1458740234375 331.4722900390625 338.62371826171875 332.0833740234375 C 336.1015625 332.6944580078125 333.22222900390625 333.0 329.98565673828125 333.0 C 325.84521484375 333.0 322.22235107421875 332.39984130859375 319.11700439453125 331.19952392578125 C 316.01165771484375 329.9991455078125 313.42388916015625 328.19873046875 311.3536682128906 325.79803466796875 C 309.283447265625 323.39739990234375 307.73077392578125 320.37109375 306.6956787109375 316.71923828125 C 306.1781005859375 314.893310546875 305.7899169921875 312.910888671875 305.5311584472656 310.77215576171875 C 305.27239990234375 308.6334228515625 305.14300537109375 306.3382568359375 305.14300537109375 303.88665771484375 C 305.14300537109375 301.4859619140625 305.19036865234375 299.13262939453125 305.28515625 296.8265380859375 C 305.3798828125 294.5205078125 305.52203369140625 292.26165771484375 305.7115783691406 290.0501708984375 C 305.9156799316406 287.8240966796875 306.13800048828125 285.6962890625 306.3785705566406 283.6666259765625 C 306.619140625 281.636962890625 306.8778991699219 279.70556640625 307.1549072265625 277.872314453125 C 307.7088928222656 274.20587158203125 308.2483215332031 271.1650390625 308.773193359375 268.74981689453125 C 311.09124755859375 268.74981689453125 313.4129638671875 268.74981689453125 315.7383117675781 268.74981689453125 C 318.06365966796875 268.74981689453125 320.39263916015625 268.74981689453125 322.7253112792969 268.74981689453125 C 322.55035400390625 269.7100830078125 322.2587890625 271.35418701171875 321.8505859375 273.68206787109375 C 321.47149658203125 275.98089599609375 321.06329345703125 278.7161865234375 320.62591552734375 281.887939453125 C 320.18853759765625 285.0306396484375 319.8240661621094 288.4351806640625 319.5325012207031 292.10162353515625 C 319.27008056640625 295.739013671875 319.13885498046875 299.41998291015625 319.13885498046875 303.1446533203125 C 319.13885498046875 306.53466796875 319.37213134765625 309.43359375 319.8386535644531 311.841552734375 C 320.30517578125 314.24945068359375 321.0049743652344 316.1663818359375 321.93804931640625 317.5921630859375 C 323.83331298828125 320.414794921875 326.5303955078125 321.8260498046875 330.0294189453125 321.8260498046875 C 332.82855224609375 321.8260498046875 335.05914306640625 321.24407958984375 336.72119140625 320.08013916015625 C 338.3831787109375 318.8870849609375 339.59326171875 316.9083251953125 340.351318359375 314.14398193359375 C 341.13861083984375 311.3504638671875 341.5322265625 307.6258544921875 341.5322265625 302.97003173828125 C 341.5322265625 300.249267578125 341.47760009765625 297.6158447265625 341.36822509765625 295.0697021484375 C 341.2589111328125 292.5235595703125 341.0948486328125 290.064697265625 340.876220703125 287.693115234375 C 340.672119140625 285.32159423828125 340.45703125 283.1246337890625 340.2310791015625 281.102294921875 C 340.005126953125 279.07989501953125 339.7681884765625 277.232177734375 339.5203857421875 275.5589599609375 C 339.0538330078125 272.21258544921875 338.73309326171875 269.94287109375 338.55810546875 268.74981689453125"/>
    <path stroke-width="0" fill="rgb(0, 0, 0)" opacity="1.0" d="M 418.9468994140625 333.0 C 414.77728271484375 333.0 411.39501953125 332.49078369140625 408.7999267578125 331.4722900390625 C 406.2340087890625 330.453857421875 404.09088134765625 328.984375 402.37054443359375 327.0638427734375 C 400.65020751953125 325.143310546875 398.98822021484375 322.8154296875 397.384521484375 320.08013916015625 C 396.568115234375 318.62518310546875 395.7662353515625 317.31573486328125 394.97900390625 316.15179443359375 C 394.2208251953125 314.98785400390625 393.33154296875 314.07122802734375 392.31103515625 313.4019775390625 C 391.31964111328125 312.732666015625 390.0220947265625 312.3980712890625 388.41845703125 312.3980712890625 C 386.727294921875 312.3980712890625 385.37139892578125 312.8927001953125 384.350830078125 313.882080078125 C 383.3594970703125 314.8714599609375 382.86376953125 316.47186279296875 382.86376953125 318.683349609375 C 382.86376953125 320.8076171875 383.1553955078125 323.1500244140625 383.738525390625 325.71075439453125 C 384.32171630859375 328.2423095703125 384.8902587890625 330.672119140625 385.4443359375 333.0 C 382.9658203125 333.0 380.4874267578125 333.0 378.009033203125 333.0 C 375.530517578125 333.0 373.0521240234375 333.0 370.57366943359375 333.0 C 370.2237548828125 331.21044921875 369.96136474609375 329.3262939453125 369.786376953125 327.3475341796875 C 369.6114501953125 325.36883544921875 369.52398681640625 323.2955322265625 369.52398681640625 321.127685546875 C 369.52398681640625 318.9598388671875 369.52398681640625 316.7337646484375 369.52398681640625 314.44952392578125 C 369.52398681640625 312.165283203125 369.52398681640625 309.82281494140625 369.52398681640625 307.422119140625 C 369.52398681640625 304.6431884765625 369.589599609375 301.7733154296875 369.7208251953125 298.8125 C 369.85205078125 295.85174560546875 370.048828125 292.79998779296875 370.311279296875 289.6573486328125 C 370.57366943359375 286.5001220703125 370.92724609375 283.24468994140625 371.37188720703125 279.89105224609375 C 371.8165283203125 276.53741455078125 372.352294921875 273.0855712890625 372.979248046875 269.5355224609375 C 374.29132080078125 269.36090087890625 375.8804931640625 269.186279296875 377.74658203125 269.01171875 C 379.641845703125 268.837158203125 381.580810546875 268.74981689453125 383.5635986328125 268.74981689453125 C 385.57550048828125 268.74981689453125 387.42706298828125 268.74981689453125 389.1181640625 268.74981689453125 C 390.809326171875 268.74981689453125 392.10693359375 268.74981689453125 393.01080322265625 268.74981689453125 C 395.6204833984375 268.74981689453125 398.0806884765625 268.88079833984375 400.3914794921875 269.1427001953125 C 402.7022705078125 269.404541015625 404.863525390625 269.79736328125 406.87548828125 270.3211669921875 C 410.8992919921875 271.36871337890625 414.0775146484375 273.1583251953125 416.41015625 275.68994140625 C 418.7427978515625 278.1923828125 419.90911865234375 281.6260986328125 419.90911865234375 285.9908447265625 C 419.90911865234375 288.02783203125 419.6212158203125 289.962890625 419.0452880859375 291.79608154296875 C 418.469482421875 293.6292724609375 417.60565185546875 295.3607177734375 416.453857421875 296.990234375 C 415.3021240234375 298.605224609375 413.855224609375 300.22747802734375 412.11297607421875 301.85699462890625 C 410.37078857421875 303.486572265625 408.3333740234375 305.12335205078125 406.000732421875 306.7674560546875 C 407.8668212890625 310.52117919921875 409.8349609375 313.5037841796875 411.9052734375 315.71533203125 C 413.9754638671875 317.92681884765625 416.39556884765625 319.0325927734375 419.16558837890625 319.0325927734375 C 419.952880859375 319.0325927734375 420.7401123046875 318.93072509765625 421.52740478515625 318.72705078125 C 421.74609375 321.15679931640625 422.048583984375 323.56103515625 422.4349365234375 325.93994140625 C 422.8212890625 328.3187255859375 423.29150390625 330.672119140625 423.845458984375 333.0 C 423.0582275390625 333.0 422.2271728515625 333.0 421.3524169921875 333.0 C 420.5068359375 333.0 419.70501708984375 333.0 418.9468994140625 333.0M 381.85784912109375 302.27166748046875 C 384.0301513671875 302.27166748046875 386.111328125 302.09344482421875 388.101318359375 301.7369384765625 C 390.09136962890625 301.3804931640625 391.990234375 300.8458251953125 393.798095703125 300.1329345703125 C 397.44287109375 298.70703125 400.37322998046875 296.815673828125 402.5892333984375 294.4586181640625 C 404.80523681640625 292.10162353515625 405.9132080078125 289.5263671875 405.9132080078125 286.73291015625 C 405.9132080078125 283.8812255859375 404.70318603515625 281.85888671875 402.2830810546875 280.665771484375 C 399.89208984375 279.4727783203125 396.8013916015625 278.876220703125 393.01080322265625 278.876220703125 C 391.34881591796875 278.876220703125 389.83258056640625 278.99261474609375 388.462158203125 279.22540283203125 C 387.120849609375 279.45819091796875 386.1732177734375 279.7928466796875 385.6192626953125 280.22930908203125 C 384.365478515625 281.2623291015625 383.42510986328125 283.61572265625 382.7982177734375 287.2894287109375 C 382.4847412109375 289.12628173828125 382.2496337890625 291.293212890625 382.0928955078125 293.790283203125 C 381.93621826171875 296.28729248046875 381.85784912109375 299.11444091796875 381.85784912109375 302.27166748046875"/>
    <path stroke-width="0" fill="rgb(0, 0, 0)" opacity="1.0" d="M 438.19122314453125 269.01171875 C 440.0865478515625 268.837158203125 442.7398681640625 268.74981689453125 446.1513671875 268.74981689453125 C 449.592041015625 268.74981689453125 453.2513427734375 268.74981689453125 457.12939453125 268.74981689453125 C 461.5322265625 268.74981689453125 465.8184814453125 268.74981689453125 469.98809814453125 268.74981689453125 C 474.1868896484375 268.74981689453125 477.598388671875 268.837158203125 480.2225341796875 269.01171875 C 479.78515625 270.990478515625 479.333251953125 273.071044921875 478.86669921875 275.25341796875 C 478.4293212890625 277.40673828125 478.0794677734375 279.5455322265625 477.8170166015625 281.669677734375 C 476.4757080078125 281.2913818359375 474.6971435546875 280.8985595703125 472.4810791015625 280.4912109375 C 470.26513671875 280.0546875 467.844970703125 279.67645263671875 465.220703125 279.3563232421875 C 462.62567138671875 279.0362548828125 460.0159912109375 278.876220703125 457.391845703125 278.876220703125 C 455.6131591796875 278.876220703125 454.2281494140625 278.99261474609375 453.23681640625 279.22540283203125 C 452.2745361328125 279.4290771484375 451.47271728515625 279.807373046875 450.83123779296875 280.3602294921875 C 450.21893310546875 280.91314697265625 449.70867919921875 281.8006591796875 449.3004150390625 283.0228271484375 C 448.8922119140625 284.24493408203125 448.5860595703125 285.61260986328125 448.3819580078125 287.125732421875 C 448.1778564453125 288.6097412109375 448.0758056640625 290.0792236328125 448.0758056640625 291.5341796875 C 448.0758056640625 292.3780517578125 448.265380859375 292.9891357421875 448.6444091796875 293.367431640625 C 449.0526123046875 293.71661376953125 449.73779296875 293.8912353515625 450.7000732421875 293.8912353515625 C 452.42041015625 293.8912353515625 454.47601318359375 293.658447265625 456.866943359375 293.19287109375 C 459.2579345703125 292.6981201171875 462.0863037109375 292.4508056640625 465.3519287109375 292.4508056640625 C 467.1597900390625 292.4508056640625 468.763427734375 292.5235595703125 470.16302490234375 292.6690673828125 C 471.5626220703125 292.8145751953125 472.71435546875 293.01824951171875 473.6182861328125 293.2801513671875 C 473.064208984375 295.375244140625 472.49566650390625 297.5140380859375 471.91253662109375 299.6964111328125 C 471.3585205078125 301.8497314453125 470.86279296875 304.04669189453125 470.42547607421875 306.28729248046875 C 468.61767578125 305.7635498046875 466.707763671875 305.2542724609375 464.6959228515625 304.7596435546875 C 462.6839599609375 304.264892578125 460.365966796875 304.017578125 457.74169921875 304.017578125 C 453.9803466796875 304.017578125 451.283203125 304.7159423828125 449.65032958984375 306.1126708984375 C 448.046630859375 307.4803466796875 447.24481201171875 310.0264892578125 447.24481201171875 313.7510986328125 C 447.24481201171875 316.3409423828125 447.434326171875 318.29052734375 447.8133544921875 319.5999755859375 C 448.22161865234375 320.909423828125 448.96514892578125 321.78240966796875 450.0439453125 322.2188720703125 C 451.1519775390625 322.6553955078125 452.7119140625 322.8736572265625 454.723876953125 322.8736572265625 C 457.902099609375 322.8736572265625 460.9927978515625 322.640869140625 463.99609375 322.17523193359375 C 466.9993896484375 321.6805419921875 469.740234375 321.054931640625 472.21868896484375 320.29833984375 C 474.72625732421875 319.54180908203125 476.81103515625 318.8143310546875 478.47308349609375 318.115966796875 C 478.7646484375 320.6475830078125 479.0562744140625 323.16461181640625 479.34783935546875 325.6671142578125 C 479.6685791015625 328.1405029296875 480.0184326171875 330.5848388671875 480.39752197265625 333.0 C 477.0443115234375 333.0 473.443359375 333.0 469.594482421875 333.0 C 465.7747802734375 333.0 461.98419189453125 333.0 458.2227783203125 333.0 C 453.6741943359375 333.0 449.285888671875 333.0 445.0579833984375 333.0 C 440.830078125 333.0 437.1124267578125 333.0 433.905029296875 333.0 C 433.905029296875 330.701171875 433.905029296875 328.300537109375 433.905029296875 325.79803466796875 C 433.905029296875 323.2664794921875 433.905029296875 320.6475830078125 433.905029296875 317.94140625 C 433.905029296875 312.67449951171875 433.905029296875 307.2620849609375 433.905029296875 301.7042236328125 C 433.905029296875 296.11724853515625 434.2840576171875 290.5302734375 435.0421142578125 284.943359375 C 435.8294677734375 279.3563232421875 436.879150390625 274.04583740234375 438.19122314453125 269.01171875"/>
  </g>
</svg>
