<?xml version="1.0" encoding="utf-8"?>
<svg xmlns="http://www.w3.org/2000/svg" xmlns:ev="http://www.w3.org/2001/xml-events" xmlns:xlink="http://www.w3.org/1999/xlink" version="1.1" baseProfile="full" width="8231.0" height="1535.0" viewBox="192.0 -1509.0 8231.0 1535.0">
<defs/>
<g><path d="M 7458.000000 -1466.000000 C 7501.333333 -1470.000000 7562.000000 -1472.000000 7640.000000 -1472.000000 C 7718.666667 -1472.000000 7802.333333 -1472.000000 7891.000000 -1472.000000 C 7991.666667 -1472.000000 8089.666667 -1472.000000 8185.000000 -1472.000000 C 8281.000000 -1472.000000 8359.000000 -1470.000000 8419.000000 -1466.000000 C 8409.000000 -1420.666667 8398.666667 -1373.000000 8388.000000 -1323.000000 C 8378.000000 -1273.666667 8370.000000 -1224.666667 8364.000000 -1176.000000 C 8333.333333 -1184.666667 8292.666667 -1193.666667 8242.000000 -1203.000000 C 8191.333333 -1213.000000 8136.000000 -1221.666667 8076.000000 -1229.000000 C 8016.666667 -1236.333333 7957.000000 -1240.000000 7897.000000 -1240.000000 C 7856.333333 -1240.000000 7824.666667 -1237.333333 7802.000000 -1232.000000 C 7780.000000 -1227.333333 7761.666667 -1218.666667 7747.000000 -1206.000000 C 7733.000000 -1193.333333 7721.333333 -1173.000000 7712.000000 -1145.000000 C 7702.666667 -1117.000000 7695.666667 -1085.666667 7691.000000 -1051.000000 C 7686.333333 -1017.000000 7684.000000 -983.333333 7684.000000 -950.000000 C 7684.000000 -930.666667 7688.333333 -916.666667 7697.000000 -908.000000 C 7706.333333 -900.000000 7722.000000 -896.000000 7744.000000 -896.000000 C 7783.333333 -896.000000 7830.333333 -901.333333 7885.000000 -912.000000 C 7939.666667 -923.333333 8004.333333 -929.000000 8079.000000 -929.000000 C 8120.333333 -929.000000 8157.000000 -927.333333 8189.000000 -924.000000 C 8221.000000 -920.666667 8247.333333 -916.000000 8268.000000 -910.000000 C 8255.333333 -862.000000 8242.333333 -813.000000 8229.000000 -763.000000 C 8216.333333 -713.666667 8205.000000 -663.333333 8195.000000 -612.000000 C 8153.666667 -624.000000 8110.000000 -635.666667 8064.000000 -647.000000 C 8018.000000 -658.333333 7965.000000 -664.000000 7905.000000 -664.000000 C 7819.000000 -664.000000 7757.333333 -648.000000 7720.000000 -616.000000 C 7683.333333 -584.666667 7665.000000 -526.333333 7665.000000 -441.000000 C 7665.000000 -381.666667 7669.333333 -337.000000 7678.000000 -307.000000 C 7687.333333 -277.000000 7704.333333 -257.000000 7729.000000 -247.000000 C 7754.333333 -237.000000 7790.000000 -232.000000 7836.000000 -232.000000 C 7908.666667 -232.000000 7979.333333 -237.333333 8048.000000 -248.000000 C 8116.666667 -259.333333 8179.333333 -273.666667 8236.000000 -291.000000 C 8293.333333 -308.333333 8341.000000 -325.000000 8379.000000 -341.000000 C 8385.666667 -283.000000 8392.333333 -225.333333 8399.000000 -168.000000 C 8406.333333 -111.333333 8414.333333 -55.333333 8423.000000 0.000000 C 8346.333333 0.000000 8264.000000 0.000000 8176.000000 0.000000 C 8088.666667 0.000000 8002.000000 0.000000 7916.000000 0.000000 C 7812.000000 0.000000 7711.666667 0.000000 7615.000000 0.000000 C 7518.333333 0.000000 7433.333333 0.000000 7360.000000 0.000000 C 7360.000000 -52.666667 7360.000000 -107.666667 7360.000000 -165.000000 C 7360.000000 -223.000000 7360.000000 -283.000000 7360.000000 -345.000000 C 7360.000000 -465.666667 7360.000000 -589.666667 7360.000000 -717.000000 C 7360.000000 -845.000000 7368.666667 -973.000000 7386.000000 -1101.000000 C 7404.000000 -1229.000000 7428.000000 -1350.666667 7458.000000 -1466.000000z "/>
</g></svg>
