<?xml version="1.0" ?>
<svg xmlns="http://www.w3.org/2000/svg" version="1.1" width="600" height="600">
  <defs/>
  <g>
    <path stroke-width="0" fill="rgb(0, 0, 0)" opacity="1.0" d="M 198.74755859375 129.18240356445312 C 208.908203125 128.24429321289062 223.13330078125 127.77523803710938 241.4228515625 127.77523803710938 C 259.868408203125 127.77523803710938 279.486572265625 127.77523803710938 300.277099609375 127.77523803710938 C 323.88134765625 127.77523803710938 346.8603515625 127.77523803710938 369.2138671875 127.77523803710938 C 391.72412109375 127.77523803710938 410.013427734375 128.24429321289062 424.08203125 129.18240356445312 C 421.7373046875 139.8143310546875 419.314453125 150.99346923828125 416.8134765625 162.7198486328125 C 414.468505859375 174.2899169921875 412.5927734375 185.78176879882812 411.185791015625 197.1954345703125 C 403.9951171875 195.16287231445312 394.459716796875 193.0521240234375 382.579345703125 190.86318969726562 C 370.69921875 188.51791381835938 357.724609375 186.4853515625 343.65576171875 184.76547241210938 C 329.7431640625 183.04559326171875 315.752685546875 182.1856689453125 301.68408203125 182.1856689453125 C 292.1484375 182.1856689453125 284.72314453125 182.81106567382812 279.408203125 184.0618896484375 C 274.25 185.15634155273438 269.951171875 187.18893432617188 266.511962890625 190.15960693359375 C 263.229248046875 193.13027954101562 260.49365234375 197.89901733398438 258.30517578125 204.46578979492188 C 256.11669921875 211.03256225585938 254.475341796875 218.381103515625 253.381103515625 226.51141357421875 C 252.287109375 234.4853515625 251.73974609375 242.381103515625 251.73974609375 250.19869995117188 C 251.73974609375 254.73291015625 252.755859375 258.01629638671875 254.7880859375 260.0488586425781 C 256.9765625 261.9250793457031 260.64990234375 262.8631896972656 265.80859375 262.8631896972656 C 275.031494140625 262.8631896972656 286.052001953125 261.61236572265625 298.8701171875 259.1107482910156 C 311.6884765625 256.4527587890625 326.8515625 255.123779296875 344.359130859375 255.123779296875 C 354.051025390625 255.123779296875 362.6484375 255.5146484375 370.15185546875 256.2964172363281 C 377.6552734375 257.07818603515625 383.829833984375 258.1726379394531 388.67578125 259.5798034667969 C 385.70556640625 270.8371276855469 382.6572265625 282.3289794921875 379.53125 294.05535888671875 C 376.56103515625 305.6253967285156 373.903564453125 317.4299621582031 371.558837890625 329.46905517578125 C 361.866943359375 326.65472412109375 351.6279296875 323.9185791015625 340.842041015625 321.2605895996094 C 330.055908203125 318.60260009765625 317.62841796875 317.27362060546875 303.559814453125 317.27362060546875 C 283.39453125 317.27362060546875 268.93505859375 321.02606201171875 260.18115234375 328.53094482421875 C 251.58349609375 335.87945556640625 247.28466796875 349.560302734375 247.28466796875 369.57330322265625 C 247.28466796875 383.48858642578125 248.30078125 393.96417236328125 250.3330078125 401.0 C 252.521484375 408.03582763671875 256.507568359375 412.72637939453125 262.29150390625 415.0716552734375 C 268.2314453125 417.41693115234375 276.5947265625 418.589599609375 287.380615234375 418.589599609375 C 304.41943359375 418.589599609375 320.9892578125 417.3387451171875 337.09033203125 414.837158203125 C 353.191162109375 412.17913818359375 367.88525390625 408.817626953125 381.17236328125 404.75244140625 C 394.61572265625 400.687255859375 405.792724609375 396.77850341796875 414.703125 393.02606201171875 C 416.26611328125 406.628662109375 417.829345703125 420.153076171875 419.392578125 433.599365234375 C 421.112060546875 446.8892822265625 422.98779296875 460.0228271484375 425.02001953125 473.0 C 407.043212890625 473.0 387.73779296875 473.0 367.103515625 473.0 C 346.625732421875 473.0 326.30419921875 473.0 306.13916015625 473.0 C 281.753173828125 473.0 258.22705078125 473.0 235.560546875 473.0 C 212.89453125 473.0 192.963623046875 473.0 175.7684326171875 473.0 C 175.7684326171875 460.648193359375 175.7684326171875 447.7491455078125 175.7684326171875 434.30291748046875 C 175.7684326171875 420.7003173828125 175.7684326171875 406.628662109375 175.7684326171875 392.08795166015625 C 175.7684326171875 363.78826904296875 175.7684326171875 334.70684814453125 175.7684326171875 304.8436279296875 C 175.7684326171875 274.8240966796875 177.800537109375 244.8045654296875 181.864990234375 214.78500366210938 C 186.0855712890625 184.76547241210938 191.713134765625 156.23126220703125 198.74755859375 129.18240356445312"/>
  </g>
</svg>
