<?xml version="1.0" ?>
<svg xmlns="http://www.w3.org/2000/svg" version="1.1" width="600" height="600">
  <defs/>
  <g>
    <path stroke-width="0" fill="rgb(0, 0, 0)" opacity="1.0" d="M 240.14459228515625 477.0 C 227.32635498046875 477.0 214.4886474609375 477.0 201.63134765625 477.0 C 188.7740478515625 477.0 175.897216796875 477.0 163.0008544921875 477.0 C 161.125 465.74267578125 160.1871337890625 452.7655029296875 160.1871337890625 438.068359375 C 160.1871337890625 423.371337890625 160.1871337890625 410.4722900390625 160.1871337890625 399.371337890625 C 160.1871337890625 386.628662109375 160.6756591796875 373.7491455078125 161.652587890625 360.73291015625 C 162.62957763671875 347.71661376953125 164.0950927734375 334.56353759765625 166.049072265625 321.27362060546875 C 168.08123779296875 307.905517578125 170.91455078125 294.75244140625 174.5489501953125 281.8143310546875 C 178.18341064453125 268.876220703125 182.61895751953125 256.153076171875 187.855712890625 243.64495849609375 C 193.1705322265625 231.13677978515625 199.48193359375 219.17587280273438 206.7899169921875 207.76220703125 C 214.0977783203125 196.34854125976562 222.40228271484375 185.48208618164062 231.703369140625 175.16287231445312 C 241.08251953125 164.76544189453125 251.7513427734375 155.22799682617188 263.70977783203125 146.55047607421875 C 269.68896484375 142.21173095703125 275.9906005859375 138.08792114257812 282.61468505859375 134.17913818359375 C 289.23870849609375 130.27035522460938 296.1851806640625 126.5765380859375 303.45404052734375 123.09771728515625 C 316.42852783203125 129.5863037109375 328.36749267578125 136.876220703125 339.270751953125 144.9674072265625 C 350.174072265625 153.05862426757812 360.04168701171875 161.95111083984375 368.873779296875 171.64495849609375 C 377.70587158203125 181.26058959960938 385.67816162109375 191.48208618164062 392.79071044921875 202.3094482421875 C 399.9031982421875 213.13677978515625 406.156005859375 224.57000732421875 411.54901123046875 236.609130859375 C 416.94207763671875 248.648193359375 421.57305908203125 261.11724853515625 425.44195556640625 274.01629638671875 C 429.31085205078125 286.915283203125 432.417724609375 300.2442932128906 434.76251220703125 314.00323486328125 C 437.1072998046875 327.76220703125 438.86590576171875 341.73614501953125 440.03826904296875 355.925048828125 C 441.210693359375 370.114013671875 441.796875 384.5179443359375 441.796875 399.1368408203125 C 441.796875 409.61236572265625 441.796875 421.02606201171875 441.796875 433.3778076171875 C 441.796875 439.4755859375 441.4842529296875 446.27685546875 440.85894775390625 453.78173828125 C 440.233642578125 461.28662109375 439.2957763671875 469.4951171875 438.04522705078125 478.40716552734375 C 430.8544921875 477.46905517578125 422.3350830078125 477.0 412.4869384765625 477.0 C 402.795166015625 477.0 393.1815185546875 477.0 383.64599609375 477.0 C 374.26678466796875 477.0 366.29449462890625 477.46905517578125 359.72906494140625 478.40716552734375 C 362.386474609375 469.807861328125 364.80950927734375 461.1302490234375 366.9979248046875 452.3746337890625 C 369.1864013671875 443.4625244140625 370.2806396484375 433.22149658203125 370.2806396484375 421.6514892578125 C 370.2806396484375 407.1107177734375 366.13818359375 396.79150390625 357.853271484375 390.69384765625 C 349.568359375 384.43975830078125 336.2811279296875 381.31268310546875 317.99176025390625 381.31268310546875 C 302.51611328125 381.31268310546875 288.212890625 383.1107177734375 275.08203125 386.70684814453125 C 262.10748291015625 390.30291748046875 251.634033203125 395.93157958984375 243.6617431640625 403.59283447265625 C 235.689453125 411.2540283203125 231.703369140625 421.02606201171875 231.703369140625 432.9088134765625 C 231.703369140625 440.4136962890625 232.40673828125 447.76220703125 233.8135986328125 454.95440673828125 C 235.3768310546875 462.1466064453125 237.4871826171875 469.4951171875 240.14459228515625 477.0M 231.703369140625 342.6156005859375 C 243.11468505859375 338.55047607421875 255.854736328125 334.95440673828125 269.9234619140625 331.827392578125 C 276.95782470703125 330.1856689453125 284.79339599609375 328.95440673828125 293.4300537109375 328.133544921875 C 302.066650390625 327.31268310546875 311.50445556640625 326.90228271484375 321.743408203125 326.90228271484375 C 329.403076171875 326.90228271484375 337.53167724609375 327.2149658203125 346.1292724609375 327.84039306640625 C 354.72686767578125 328.4658203125 362.77734375 329.638427734375 370.2806396484375 331.3582763671875 C 370.2806396484375 316.81756591796875 368.73699951171875 303.0 365.64971923828125 289.905517578125 C 362.5623779296875 276.81109619140625 357.931396484375 264.43975830078125 351.75677490234375 252.79150390625 C 345.66033935546875 241.143310546875 338.54779052734375 230.74591064453125 330.419189453125 221.599365234375 C 322.29052734375 212.4527587890625 313.14581298828125 204.5570068359375 302.98504638671875 197.91204833984375 C 294.7783203125 203.618896484375 287.29449462890625 210.04885864257812 280.53369140625 217.20193481445312 C 273.77288818359375 224.35504150390625 267.73504638671875 232.23126220703125 262.42010498046875 240.83062744140625 C 257.1834716796875 249.35177612304688 252.630615234375 257.990234375 248.76171875 266.74591064453125 C 244.892822265625 275.5016174316406 241.707763671875 284.37457275390625 239.2066650390625 293.36480712890625 C 236.70556640625 302.35504150390625 234.8297119140625 310.95440673828125 233.57916259765625 319.162841796875 C 232.32861328125 327.371337890625 231.703369140625 335.18890380859375 231.703369140625 342.6156005859375"/>
  </g>
</svg>
