<?xml version="1.0" encoding="utf-8"?>
<svg xmlns="http://www.w3.org/2000/svg" xmlns:ev="http://www.w3.org/2001/xml-events" xmlns:xlink="http://www.w3.org/1999/xlink" version="1.1" baseProfile="full" width="8231.0" height="1535.0" viewBox="192.0 -1509.0 8231.0 1535.0">
<defs/>
<g><path d="M 1048.000000 -1472.000000 C 1110.000000 -1472.000000 1171.416667 -1472.000000 1232.250000 -1472.000000 C 1293.083333 -1472.000000 1353.333333 -1472.000000 1413.000000 -1472.000000 C 1421.666667 -1439.666667 1429.500000 -1404.500000 1436.500000 -1366.500000 C 1443.500000 -1328.500000 1449.666667 -1287.666667 1455.000000 -1244.000000 C 1460.666667 -1200.333333 1464.916667 -1155.166667 1467.750000 -1108.500000 C 1470.583333 -1061.833333 1472.000000 -1013.666667 1472.000000 -964.000000 C 1472.000000 -914.666667 1472.000000 -865.250000 1472.000000 -815.750000 C 1472.000000 -766.250000 1472.000000 -716.666667 1472.000000 -667.000000 C 1472.000000 -609.666667 1472.000000 -552.666667 1472.000000 -496.000000 C 1472.000000 -439.333333 1472.000000 -383.000000 1472.000000 -327.000000 C 1472.000000 -271.000000 1469.333333 -215.750000 1464.000000 -161.250000 C 1458.666667 -106.750000 1450.666667 -53.000000 1440.000000 0.000000 C 1379.666667 0.000000 1318.750000 0.000000 1257.250000 0.000000 C 1226.500000 0.000000 1195.604167 0.000000 1164.562500 0.000000 C 1133.520833 0.000000 1102.333333 0.000000 1071.000000 0.000000 C 1048.500000 -51.666667 1025.916667 -102.166667 1003.250000 -151.500000 C 980.583333 -200.833333 957.833333 -249.000000 935.000000 -296.000000 C 912.166667 -343.000000 889.250000 -388.833333 866.250000 -433.500000 C 843.250000 -478.166667 820.166667 -521.666667 797.000000 -564.000000 C 774.000000 -606.500000 750.500000 -648.812500 726.500000 -690.937500 C 702.500000 -733.062500 678.000000 -775.000000 653.000000 -816.750000 C 628.000000 -858.500000 602.500000 -900.062500 576.500000 -941.437500 C 550.500000 -982.812500 524.000000 -1024.000000 497.000000 -1065.000000 C 497.000000 -1020.166667 497.000000 -976.604167 497.000000 -934.312500 C 497.000000 -892.020833 497.000000 -851.000000 497.000000 -811.250000 C 497.000000 -771.500000 497.000000 -733.020833 497.000000 -695.812500 C 497.000000 -658.604167 497.000000 -622.666667 497.000000 -588.000000 C 497.000000 -553.500000 497.583333 -520.250000 498.750000 -488.250000 C 499.916667 -456.250000 501.666667 -425.500000 504.000000 -396.000000 C 508.666667 -337.000000 515.666667 -283.000000 525.000000 -234.000000 C 534.666667 -185.000000 543.416667 -141.000000 551.250000 -102.000000 C 559.083333 -63.000000 566.000000 -29.000000 572.000000 0.000000 C 515.666667 0.000000 459.250000 0.000000 402.750000 0.000000 C 346.250000 0.000000 289.666667 0.000000 233.000000 0.000000 C 226.333333 -52.000000 220.416667 -106.000000 215.250000 -162.000000 C 210.083333 -218.000000 205.666667 -276.000000 202.000000 -336.000000 C 198.666667 -396.000000 196.166667 -455.666667 194.500000 -515.000000 C 192.833333 -574.333333 192.000000 -633.333333 192.000000 -692.000000 C 192.000000 -748.333333 192.000000 -803.166667 192.000000 -856.500000 C 192.000000 -909.833333 192.000000 -961.666667 192.000000 -1012.000000 C 192.000000 -1062.666667 193.500000 -1110.666667 196.500000 -1156.000000 C 199.500000 -1201.333333 204.000000 -1244.000000 210.000000 -1284.000000 C 216.000000 -1324.000000 222.250000 -1360.000000 228.750000 -1392.000000 C 235.250000 -1424.000000 242.000000 -1452.000000 249.000000 -1476.000000 C 296.000000 -1472.000000 343.083333 -1470.000000 390.250000 -1470.000000 C 437.416667 -1470.000000 484.666667 -1472.000000 532.000000 -1476.000000 C 550.166667 -1454.000000 569.541667 -1429.145833 590.125000 -1401.437500 C 610.708333 -1373.729167 632.500000 -1343.166667 655.500000 -1309.750000 C 678.500000 -1276.333333 702.708333 -1240.062500 728.125000 -1200.937500 C 753.541667 -1161.812500 780.166667 -1119.833333 808.000000 -1075.000000 C 835.833333 -1030.166667 864.187500 -981.979167 893.062500 -930.437500 C 907.500000 -904.666667 922.067708 -878.057292 936.765625 -850.609375 C 951.463542 -823.161458 966.291667 -794.875000 981.250000 -765.750000 C 996.208333 -736.625000 1011.296875 -706.661458 1026.515625 -675.859375 C 1041.734375 -645.057292 1057.083333 -613.416667 1072.562500 -580.937500 C 1088.041667 -548.458333 1103.651042 -515.140625 1119.390625 -480.984375 C 1135.130208 -446.828125 1151.000000 -411.833333 1167.000000 -376.000000 C 1167.000000 -431.166667 1166.458333 -484.208333 1165.375000 -535.125000 C 1164.291667 -586.041667 1162.666667 -634.833333 1160.500000 -681.500000 C 1158.333333 -728.166667 1155.625000 -772.708333 1152.375000 -815.125000 C 1149.125000 -857.541667 1145.333333 -897.833333 1141.000000 -936.000000 C 1136.666667 -974.166667 1132.270833 -1010.312500 1127.812500 -1044.437500 C 1123.354167 -1078.562500 1118.833333 -1110.666667 1114.250000 -1140.750000 C 1105.083333 -1200.916667 1095.666667 -1253.000000 1086.000000 -1297.000000 C 1067.333333 -1385.000000 1054.666667 -1443.333333 1048.000000 -1472.000000z "/>
</g>
<g><path d="M 2133.000000 0.000000 C 2078.333333 0.000000 2023.583333 0.000000 1968.750000 0.000000 C 1913.916667 0.000000 1859.000000 0.000000 1804.000000 0.000000 C 1796.000000 -48.000000 1792.000000 -103.333333 1792.000000 -166.000000 C 1792.000000 -228.666667 1792.000000 -283.666667 1792.000000 -331.000000 C 1792.000000 -385.333333 1794.083333 -440.250000 1798.250000 -495.750000 C 1802.416667 -551.250000 1808.666667 -607.333333 1817.000000 -664.000000 C 1825.666667 -721.000000 1837.750000 -777.083333 1853.250000 -832.250000 C 1868.750000 -887.416667 1887.666667 -941.666667 1910.000000 -995.000000 C 1932.666667 -1048.333333 1959.583333 -1099.333333 1990.750000 -1148.000000 C 2021.916667 -1196.666667 2057.333333 -1243.000000 2097.000000 -1287.000000 C 2137.000000 -1331.333333 2182.500000 -1372.000000 2233.500000 -1409.000000 C 2259.000000 -1427.500000 2285.875000 -1445.083333 2314.125000 -1461.750000 C 2342.375000 -1478.416667 2372.000000 -1494.166667 2403.000000 -1509.000000 C 2458.333333 -1481.333333 2509.250000 -1450.250000 2555.750000 -1415.750000 C 2602.250000 -1381.250000 2644.333333 -1343.333333 2682.000000 -1302.000000 C 2719.666667 -1261.000000 2753.666667 -1217.416667 2784.000000 -1171.250000 C 2814.333333 -1125.083333 2841.000000 -1076.333333 2864.000000 -1025.000000 C 2887.000000 -973.666667 2906.750000 -920.500000 2923.250000 -865.500000 C 2939.750000 -810.500000 2953.000000 -753.666667 2963.000000 -695.000000 C 2973.000000 -636.333333 2980.500000 -576.750000 2985.500000 -516.250000 C 2990.500000 -455.750000 2993.000000 -394.333333 2993.000000 -332.000000 C 2993.000000 -287.333333 2993.000000 -238.666667 2993.000000 -186.000000 C 2993.000000 -160.000000 2991.666667 -131.000000 2989.000000 -99.000000 C 2986.333333 -67.000000 2982.333333 -32.000000 2977.000000 6.000000 C 2946.333333 2.000000 2910.000000 0.000000 2868.000000 0.000000 C 2826.666667 0.000000 2785.666667 0.000000 2745.000000 0.000000 C 2705.000000 0.000000 2671.000000 2.000000 2643.000000 6.000000 C 2654.333333 -30.666667 2664.666667 -67.666667 2674.000000 -105.000000 C 2683.333333 -143.000000 2688.000000 -186.666667 2688.000000 -236.000000 C 2688.000000 -298.000000 2670.333333 -342.000000 2635.000000 -368.000000 C 2599.666667 -394.666667 2543.000000 -408.000000 2465.000000 -408.000000 C 2399.000000 -408.000000 2338.000000 -400.333333 2282.000000 -385.000000 C 2226.666667 -369.666667 2182.000000 -345.666667 2148.000000 -313.000000 C 2114.000000 -280.333333 2097.000000 -238.666667 2097.000000 -188.000000 C 2097.000000 -156.000000 2100.000000 -124.666667 2106.000000 -94.000000 C 2112.666667 -63.333333 2121.666667 -32.000000 2133.000000 0.000000z M 2097.000000 -573.000000 C 2145.666667 -590.333333 2200.000000 -605.666667 2260.000000 -619.000000 C 2290.000000 -626.000000 2323.416667 -631.250000 2360.250000 -634.750000 C 2397.083333 -638.250000 2437.333333 -640.000000 2481.000000 -640.000000 C 2513.666667 -640.000000 2548.333333 -638.666667 2585.000000 -636.000000 C 2621.666667 -633.333333 2656.000000 -628.333333 2688.000000 -621.000000 C 2688.000000 -683.000000 2681.416667 -741.916667 2668.250000 -797.750000 C 2655.083333 -853.583333 2635.333333 -906.333333 2609.000000 -956.000000 C 2583.000000 -1005.666667 2552.666667 -1050.000000 2518.000000 -1089.000000 C 2483.333333 -1128.000000 2444.333333 -1161.666667 2401.000000 -1190.000000 C 2366.000000 -1165.666667 2334.083333 -1138.250000 2305.250000 -1107.750000 C 2276.416667 -1077.250000 2250.666667 -1043.666667 2228.000000 -1007.000000 C 2205.666667 -970.666667 2186.250000 -933.833333 2169.750000 -896.500000 C 2153.250000 -859.166667 2139.666667 -821.333333 2129.000000 -783.000000 C 2118.333333 -744.666667 2110.333333 -708.000000 2105.000000 -673.000000 C 2099.666667 -638.000000 2097.000000 -604.666667 2097.000000 -573.000000z "/>
</g>
<g><path d="M 3825.000000 -739.000000 C 3825.000000 -705.666667 3825.000000 -671.500000 3825.000000 -636.500000 C 3825.000000 -601.500000 3825.000000 -565.666667 3825.000000 -529.000000 C 3825.000000 -492.666667 3826.250000 -456.666667 3828.750000 -421.000000 C 3831.250000 -385.333333 3835.000000 -350.000000 3840.000000 -315.000000 C 3845.000000 -280.000000 3850.000000 -246.333333 3855.000000 -214.000000 C 3860.000000 -181.666667 3865.000000 -150.666667 3870.000000 -121.000000 C 3880.000000 -61.666667 3889.333333 -12.666667 3898.000000 26.000000 C 3837.333333 19.000000 3776.666667 15.500000 3716.000000 15.500000 C 3655.333333 15.500000 3594.666667 19.000000 3534.000000 26.000000 C 3524.666667 -30.666667 3520.000000 -92.666667 3520.000000 -160.000000 C 3520.000000 -194.000000 3520.000000 -228.333333 3520.000000 -263.000000 C 3520.000000 -297.666667 3520.000000 -332.666667 3520.000000 -368.000000 C 3520.000000 -404.833333 3520.000000 -440.270833 3520.000000 -474.312500 C 3520.000000 -508.354167 3520.000000 -541.000000 3520.000000 -572.250000 C 3520.000000 -634.750000 3520.000000 -691.666667 3520.000000 -743.000000 C 3520.000000 -794.666667 3521.416667 -842.583333 3524.250000 -886.750000 C 3527.083333 -930.916667 3531.333333 -971.333333 3537.000000 -1008.000000 C 3542.666667 -1044.666667 3548.250000 -1079.083333 3553.750000 -1111.250000 C 3559.250000 -1143.416667 3564.666667 -1173.333333 3570.000000 -1201.000000 C 3521.666667 -1196.666667 3476.583333 -1190.833333 3434.750000 -1183.500000 C 3392.916667 -1176.166667 3354.333333 -1167.333333 3319.000000 -1157.000000 C 3248.333333 -1136.333333 3198.333333 -1119.000000 3169.000000 -1105.000000 C 3179.333333 -1158.333333 3187.083333 -1210.416667 3192.250000 -1261.250000 C 3197.416667 -1312.083333 3200.000000 -1361.666667 3200.000000 -1410.000000 C 3229.000000 -1419.000000 3261.666667 -1427.166667 3298.000000 -1434.500000 C 3334.333333 -1441.833333 3374.333333 -1448.333333 3418.000000 -1454.000000 C 3462.000000 -1460.000000 3509.416667 -1464.500000 3560.250000 -1467.500000 C 3611.083333 -1470.500000 3665.333333 -1472.000000 3723.000000 -1472.000000 C 3781.333333 -1472.000000 3835.750000 -1470.416667 3886.250000 -1467.250000 C 3936.750000 -1464.083333 3983.333333 -1459.333333 4026.000000 -1453.000000 C 4069.000000 -1447.000000 4109.916667 -1439.166667 4148.750000 -1429.500000 C 4187.583333 -1419.833333 4224.333333 -1408.333333 4259.000000 -1395.000000 C 4248.333333 -1343.000000 4238.666667 -1291.333333 4230.000000 -1240.000000 C 4222.000000 -1188.666667 4215.666667 -1136.333333 4211.000000 -1083.000000 C 4177.666667 -1103.666667 4130.000000 -1125.333333 4068.000000 -1148.000000 C 4037.333333 -1159.333333 4003.500000 -1169.083333 3966.500000 -1177.250000 C 3929.500000 -1185.416667 3889.333333 -1192.000000 3846.000000 -1197.000000 C 3839.000000 -1148.666667 3833.750000 -1103.666667 3830.250000 -1062.000000 C 3826.750000 -1020.333333 3825.000000 -982.000000 3825.000000 -947.000000 C 3825.000000 -912.000000 3825.000000 -877.166667 3825.000000 -842.500000 C 3825.000000 -807.833333 3825.000000 -773.333333 3825.000000 -739.000000z "/>
</g>
<g><path d="M 5180.000000 -1472.000000 C 5230.333333 -1472.000000 5280.500000 -1472.000000 5330.500000 -1472.000000 C 5380.500000 -1472.000000 5430.333333 -1472.000000 5480.000000 -1472.000000 C 5492.000000 -1427.333333 5503.333333 -1365.666667 5514.000000 -1287.000000 C 5519.333333 -1248.000000 5524.250000 -1206.000000 5528.750000 -1161.000000 C 5533.250000 -1116.000000 5537.333333 -1068.000000 5541.000000 -1017.000000 C 5545.000000 -966.333333 5548.000000 -913.416667 5550.000000 -858.250000 C 5552.000000 -803.083333 5553.000000 -745.666667 5553.000000 -686.000000 C 5553.000000 -616.000000 5548.833333 -550.666667 5540.500000 -490.000000 C 5532.166667 -429.333333 5519.666667 -373.333333 5503.000000 -322.000000 C 5486.666667 -271.000000 5464.083333 -225.666667 5435.250000 -186.000000 C 5406.416667 -146.333333 5371.333333 -112.333333 5330.000000 -84.000000 C 5288.666667 -56.000000 5239.166667 -35.000000 5181.500000 -21.000000 C 5123.833333 -7.000000 5058.000000 0.000000 4984.000000 0.000000 C 4889.333333 0.000000 4806.500000 -13.750000 4735.500000 -41.250000 C 4664.500000 -68.750000 4605.333333 -110.000000 4558.000000 -165.000000 C 4510.666667 -220.000000 4475.166667 -289.333333 4451.500000 -373.000000 C 4439.666667 -414.833333 4430.791667 -460.250000 4424.875000 -509.250000 C 4418.958333 -558.250000 4416.000000 -610.833333 4416.000000 -667.000000 C 4416.000000 -722.000000 4417.083333 -775.916667 4419.250000 -828.750000 C 4421.416667 -881.583333 4424.666667 -933.333333 4429.000000 -984.000000 C 4433.666667 -1035.000000 4438.750000 -1083.750000 4444.250000 -1130.250000 C 4449.750000 -1176.750000 4455.666667 -1221.000000 4462.000000 -1263.000000 C 4474.666667 -1347.000000 4487.000000 -1416.666667 4499.000000 -1472.000000 C 4552.000000 -1472.000000 4605.083333 -1472.000000 4658.250000 -1472.000000 C 4711.416667 -1472.000000 4764.666667 -1472.000000 4818.000000 -1472.000000 C 4814.000000 -1450.000000 4807.333333 -1412.333333 4798.000000 -1359.000000 C 4789.333333 -1306.333333 4780.000000 -1243.666667 4770.000000 -1171.000000 C 4760.000000 -1099.000000 4751.666667 -1021.000000 4745.000000 -937.000000 C 4739.000000 -853.666667 4736.000000 -769.333333 4736.000000 -684.000000 C 4736.000000 -606.333333 4741.333333 -539.916667 4752.000000 -484.750000 C 4762.666667 -429.583333 4778.666667 -385.666667 4800.000000 -353.000000 C 4843.333333 -288.333333 4905.000000 -256.000000 4985.000000 -256.000000 C 5049.000000 -256.000000 5100.000000 -269.333333 5138.000000 -296.000000 C 5176.000000 -323.333333 5203.666667 -368.666667 5221.000000 -432.000000 C 5239.000000 -496.000000 5248.000000 -581.333333 5248.000000 -688.000000 C 5248.000000 -750.333333 5246.750000 -810.666667 5244.250000 -869.000000 C 5241.750000 -927.333333 5238.000000 -983.666667 5233.000000 -1038.000000 C 5228.333333 -1092.333333 5223.416667 -1142.666667 5218.250000 -1189.000000 C 5213.083333 -1235.333333 5207.666667 -1277.666667 5202.000000 -1316.000000 C 5191.333333 -1392.666667 5184.000000 -1444.666667 5180.000000 -1472.000000z "/>
</g>
<g><path d="M 7018.000000 0.000000 C 6922.666667 0.000000 6845.333333 -11.666667 6786.000000 -35.000000 C 6727.333333 -58.333333 6678.333333 -92.000000 6639.000000 -136.000000 C 6599.666667 -180.000000 6561.666667 -233.333333 6525.000000 -296.000000 C 6506.333333 -329.333333 6488.000000 -359.333333 6470.000000 -386.000000 C 6452.666667 -412.666667 6432.333333 -433.666667 6409.000000 -449.000000 C 6386.333333 -464.333333 6356.666667 -472.000000 6320.000000 -472.000000 C 6281.333333 -472.000000 6250.333333 -460.666667 6227.000000 -438.000000 C 6204.333333 -415.333333 6193.000000 -378.666667 6193.000000 -328.000000 C 6193.000000 -279.333333 6199.666667 -225.666667 6213.000000 -167.000000 C 6226.333333 -109.000000 6239.333333 -53.333333 6252.000000 0.000000 C 6195.333333 0.000000 6138.666667 0.000000 6082.000000 0.000000 C 6025.333333 0.000000 5968.666667 0.000000 5912.000000 0.000000 C 5904.000000 -41.000000 5898.000000 -84.166667 5894.000000 -129.500000 C 5890.000000 -174.833333 5888.000000 -222.333333 5888.000000 -272.000000 C 5888.000000 -321.666667 5888.000000 -372.666667 5888.000000 -425.000000 C 5888.000000 -477.333333 5888.000000 -531.000000 5888.000000 -586.000000 C 5888.000000 -649.666667 5889.500000 -715.416667 5892.500000 -783.250000 C 5895.500000 -851.083333 5900.000000 -921.000000 5906.000000 -993.000000 C 5912.000000 -1065.333333 5920.083333 -1139.916667 5930.250000 -1216.750000 C 5940.416667 -1293.583333 5952.666667 -1372.666667 5967.000000 -1454.000000 C 5997.000000 -1458.000000 6033.333333 -1462.000000 6076.000000 -1466.000000 C 6119.333333 -1470.000000 6163.666667 -1472.000000 6209.000000 -1472.000000 C 6255.000000 -1472.000000 6297.333333 -1472.000000 6336.000000 -1472.000000 C 6374.666667 -1472.000000 6404.333333 -1472.000000 6425.000000 -1472.000000 C 6484.666667 -1472.000000 6540.916667 -1469.000000 6593.750000 -1463.000000 C 6646.583333 -1457.000000 6696.000000 -1448.000000 6742.000000 -1436.000000 C 6834.000000 -1412.000000 6906.666667 -1371.000000 6960.000000 -1313.000000 C 7013.333333 -1255.666667 7040.000000 -1177.000000 7040.000000 -1077.000000 C 7040.000000 -1030.333333 7033.416667 -986.000000 7020.250000 -944.000000 C 7007.083333 -902.000000 6987.333333 -862.333333 6961.000000 -825.000000 C 6934.666667 -788.000000 6901.583333 -750.833333 6861.750000 -713.500000 C 6821.916667 -676.166667 6775.333333 -638.666667 6722.000000 -601.000000 C 6764.666667 -515.000000 6809.666667 -446.666667 6857.000000 -396.000000 C 6904.333333 -345.333333 6959.666667 -320.000000 7023.000000 -320.000000 C 7041.000000 -320.000000 7059.000000 -322.333333 7077.000000 -327.000000 C 7082.000000 -271.333333 7088.916667 -216.250000 7097.750000 -161.750000 C 7106.583333 -107.250000 7117.333333 -53.333333 7130.000000 0.000000 C 7112.000000 0.000000 7093.000000 0.000000 7073.000000 0.000000 C 7053.666667 0.000000 7035.333333 0.000000 7018.000000 0.000000z M 6170.000000 -704.000000 C 6219.666667 -704.000000 6267.250000 -708.083333 6312.750000 -716.250000 C 6358.250000 -724.416667 6401.666667 -736.666667 6443.000000 -753.000000 C 6526.333333 -785.666667 6593.333333 -829.000000 6644.000000 -883.000000 C 6694.666667 -937.000000 6720.000000 -996.000000 6720.000000 -1060.000000 C 6720.000000 -1125.333333 6692.333333 -1171.666667 6637.000000 -1199.000000 C 6582.333333 -1226.333333 6511.666667 -1240.000000 6425.000000 -1240.000000 C 6387.000000 -1240.000000 6352.333333 -1237.333333 6321.000000 -1232.000000 C 6290.333333 -1226.666667 6268.666667 -1219.000000 6256.000000 -1209.000000 C 6227.333333 -1185.333333 6205.833333 -1131.416667 6191.500000 -1047.250000 C 6184.333333 -1005.166667 6178.958333 -955.520833 6175.375000 -898.312500 C 6171.791667 -841.104167 6170.000000 -776.333333 6170.000000 -704.000000z "/>
</g>
<g><path d="M 7458.000000 -1466.000000 C 7501.333333 -1470.000000 7562.000000 -1472.000000 7640.000000 -1472.000000 C 7718.666667 -1472.000000 7802.333333 -1472.000000 7891.000000 -1472.000000 C 7991.666667 -1472.000000 8089.666667 -1472.000000 8185.000000 -1472.000000 C 8281.000000 -1472.000000 8359.000000 -1470.000000 8419.000000 -1466.000000 C 8409.000000 -1420.666667 8398.666667 -1373.000000 8388.000000 -1323.000000 C 8378.000000 -1273.666667 8370.000000 -1224.666667 8364.000000 -1176.000000 C 8333.333333 -1184.666667 8292.666667 -1193.666667 8242.000000 -1203.000000 C 8191.333333 -1213.000000 8136.000000 -1221.666667 8076.000000 -1229.000000 C 8016.666667 -1236.333333 7957.000000 -1240.000000 7897.000000 -1240.000000 C 7856.333333 -1240.000000 7824.666667 -1237.333333 7802.000000 -1232.000000 C 7780.000000 -1227.333333 7761.666667 -1218.666667 7747.000000 -1206.000000 C 7733.000000 -1193.333333 7721.333333 -1173.000000 7712.000000 -1145.000000 C 7702.666667 -1117.000000 7695.666667 -1085.666667 7691.000000 -1051.000000 C 7686.333333 -1017.000000 7684.000000 -983.333333 7684.000000 -950.000000 C 7684.000000 -930.666667 7688.333333 -916.666667 7697.000000 -908.000000 C 7706.333333 -900.000000 7722.000000 -896.000000 7744.000000 -896.000000 C 7783.333333 -896.000000 7830.333333 -901.333333 7885.000000 -912.000000 C 7939.666667 -923.333333 8004.333333 -929.000000 8079.000000 -929.000000 C 8120.333333 -929.000000 8157.000000 -927.333333 8189.000000 -924.000000 C 8221.000000 -920.666667 8247.333333 -916.000000 8268.000000 -910.000000 C 8255.333333 -862.000000 8242.333333 -813.000000 8229.000000 -763.000000 C 8216.333333 -713.666667 8205.000000 -663.333333 8195.000000 -612.000000 C 8153.666667 -624.000000 8110.000000 -635.666667 8064.000000 -647.000000 C 8018.000000 -658.333333 7965.000000 -664.000000 7905.000000 -664.000000 C 7819.000000 -664.000000 7757.333333 -648.000000 7720.000000 -616.000000 C 7683.333333 -584.666667 7665.000000 -526.333333 7665.000000 -441.000000 C 7665.000000 -381.666667 7669.333333 -337.000000 7678.000000 -307.000000 C 7687.333333 -277.000000 7704.333333 -257.000000 7729.000000 -247.000000 C 7754.333333 -237.000000 7790.000000 -232.000000 7836.000000 -232.000000 C 7908.666667 -232.000000 7979.333333 -237.333333 8048.000000 -248.000000 C 8116.666667 -259.333333 8179.333333 -273.666667 8236.000000 -291.000000 C 8293.333333 -308.333333 8341.000000 -325.000000 8379.000000 -341.000000 C 8385.666667 -283.000000 8392.333333 -225.333333 8399.000000 -168.000000 C 8406.333333 -111.333333 8414.333333 -55.333333 8423.000000 0.000000 C 8346.333333 0.000000 8264.000000 0.000000 8176.000000 0.000000 C 8088.666667 0.000000 8002.000000 0.000000 7916.000000 0.000000 C 7812.000000 0.000000 7711.666667 0.000000 7615.000000 0.000000 C 7518.333333 0.000000 7433.333333 0.000000 7360.000000 0.000000 C 7360.000000 -52.666667 7360.000000 -107.666667 7360.000000 -165.000000 C 7360.000000 -223.000000 7360.000000 -283.000000 7360.000000 -345.000000 C 7360.000000 -465.666667 7360.000000 -589.666667 7360.000000 -717.000000 C 7360.000000 -845.000000 7368.666667 -973.000000 7386.000000 -1101.000000 C 7404.000000 -1229.000000 7428.000000 -1350.666667 7458.000000 -1466.000000z "/>
</g>
</svg>
