<?xml version="1.0" encoding="utf-8"?>
<svg xmlns="http://www.w3.org/2000/svg" xmlns:ev="http://www.w3.org/2001/xml-events" xmlns:xlink="http://www.w3.org/1999/xlink" version="1.1" baseProfile="full" width="8231.0" height="1535.0" viewBox="192.0 -1509.0 8231.0 1535.0">
<defs/>
<g><path d="M 3825.000000 -739.000000 C 3825.000000 -705.666667 3825.000000 -671.500000 3825.000000 -636.500000 C 3825.000000 -601.500000 3825.000000 -565.666667 3825.000000 -529.000000 C 3825.000000 -492.666667 3826.250000 -456.666667 3828.750000 -421.000000 C 3831.250000 -385.333333 3835.000000 -350.000000 3840.000000 -315.000000 C 3845.000000 -280.000000 3850.000000 -246.333333 3855.000000 -214.000000 C 3860.000000 -181.666667 3865.000000 -150.666667 3870.000000 -121.000000 C 3880.000000 -61.666667 3889.333333 -12.666667 3898.000000 26.000000 C 3837.333333 19.000000 3776.666667 15.500000 3716.000000 15.500000 C 3655.333333 15.500000 3594.666667 19.000000 3534.000000 26.000000 C 3524.666667 -30.666667 3520.000000 -92.666667 3520.000000 -160.000000 C 3520.000000 -194.000000 3520.000000 -228.333333 3520.000000 -263.000000 C 3520.000000 -297.666667 3520.000000 -332.666667 3520.000000 -368.000000 C 3520.000000 -404.833333 3520.000000 -440.270833 3520.000000 -474.312500 C 3520.000000 -508.354167 3520.000000 -541.000000 3520.000000 -572.250000 C 3520.000000 -634.750000 3520.000000 -691.666667 3520.000000 -743.000000 C 3520.000000 -794.666667 3521.416667 -842.583333 3524.250000 -886.750000 C 3527.083333 -930.916667 3531.333333 -971.333333 3537.000000 -1008.000000 C 3542.666667 -1044.666667 3548.250000 -1079.083333 3553.750000 -1111.250000 C 3559.250000 -1143.416667 3564.666667 -1173.333333 3570.000000 -1201.000000 C 3521.666667 -1196.666667 3476.583333 -1190.833333 3434.750000 -1183.500000 C 3392.916667 -1176.166667 3354.333333 -1167.333333 3319.000000 -1157.000000 C 3248.333333 -1136.333333 3198.333333 -1119.000000 3169.000000 -1105.000000 C 3179.333333 -1158.333333 3187.083333 -1210.416667 3192.250000 -1261.250000 C 3197.416667 -1312.083333 3200.000000 -1361.666667 3200.000000 -1410.000000 C 3229.000000 -1419.000000 3261.666667 -1427.166667 3298.000000 -1434.500000 C 3334.333333 -1441.833333 3374.333333 -1448.333333 3418.000000 -1454.000000 C 3462.000000 -1460.000000 3509.416667 -1464.500000 3560.250000 -1467.500000 C 3611.083333 -1470.500000 3665.333333 -1472.000000 3723.000000 -1472.000000 C 3781.333333 -1472.000000 3835.750000 -1470.416667 3886.250000 -1467.250000 C 3936.750000 -1464.083333 3983.333333 -1459.333333 4026.000000 -1453.000000 C 4069.000000 -1447.000000 4109.916667 -1439.166667 4148.750000 -1429.500000 C 4187.583333 -1419.833333 4224.333333 -1408.333333 4259.000000 -1395.000000 C 4248.333333 -1343.000000 4238.666667 -1291.333333 4230.000000 -1240.000000 C 4222.000000 -1188.666667 4215.666667 -1136.333333 4211.000000 -1083.000000 C 4177.666667 -1103.666667 4130.000000 -1125.333333 4068.000000 -1148.000000 C 4037.333333 -1159.333333 4003.500000 -1169.083333 3966.500000 -1177.250000 C 3929.500000 -1185.416667 3889.333333 -1192.000000 3846.000000 -1197.000000 C 3839.000000 -1148.666667 3833.750000 -1103.666667 3830.250000 -1062.000000 C 3826.750000 -1020.333333 3825.000000 -982.000000 3825.000000 -947.000000 C 3825.000000 -912.000000 3825.000000 -877.166667 3825.000000 -842.500000 C 3825.000000 -807.833333 3825.000000 -773.333333 3825.000000 -739.000000z "/>
</g></svg>
