<?xml version="1.0" encoding="utf-8"?>
<svg xmlns="http://www.w3.org/2000/svg" xmlns:ev="http://www.w3.org/2001/xml-events" xmlns:xlink="http://www.w3.org/1999/xlink" version="1.1" baseProfile="full" width="6595.0" height="1538.0" viewBox="259.0 -1408.0 6595.0 1538.0">
<defs/>
<g><path d="M 2339.000000 -1304.000000 C 2283.000000 -1229.333333 2231.666667 -1147.333333 2185.000000 -1058.000000 C 2139.000000 -968.666667 2099.666667 -877.000000 2067.000000 -783.000000 C 2035.000000 -689.000000 2010.333333 -596.000000 1993.000000 -504.000000 C 1975.666667 -412.666667 1967.000000 -327.333333 1967.000000 -248.000000 C 1967.000000 -149.333333 1981.666667 -78.000000 2011.000000 -34.000000 C 2040.333333 10.000000 2091.000000 32.000000 2163.000000 32.000000 C 2245.666667 32.000000 2318.333333 3.333333 2381.000000 -54.000000 C 2444.333333 -112.000000 2503.333333 -191.666667 2558.000000 -293.000000 C 2594.000000 -359.000000 2624.666667 -431.000000 2650.000000 -509.000000 C 2676.000000 -587.666667 2697.000000 -668.333333 2713.000000 -751.000000 C 2729.000000 -834.333333 2740.666667 -918.000000 2748.000000 -1002.000000 C 2756.000000 -1086.666667 2760.000000 -1167.666667 2760.000000 -1245.000000 C 2760.000000 -1294.333333 2759.333333 -1330.333333 2758.000000 -1353.000000 C 2756.666667 -1375.666667 2754.666667 -1394.000000 2752.000000 -1408.000000 C 2756.000000 -1408.000000 2765.666667 -1406.666667 2781.000000 -1404.000000 C 2796.333333 -1401.333333 2813.666667 -1397.666667 2833.000000 -1393.000000 C 2853.000000 -1389.000000 2873.000000 -1383.333333 2893.000000 -1376.000000 C 2913.000000 -1369.333333 2930.000000 -1361.666667 2944.000000 -1353.000000 C 2937.333333 -1257.000000 2925.333333 -1158.000000 2908.000000 -1056.000000 C 2891.333333 -954.000000 2868.666667 -853.000000 2840.000000 -753.000000 C 2812.000000 -653.666667 2779.333333 -558.000000 2742.000000 -466.000000 C 2705.333333 -374.000000 2664.000000 -291.333333 2618.000000 -218.000000 C 2550.000000 -109.333333 2473.666667 -24.666667 2389.000000 36.000000 C 2304.333333 97.333333 2204.666667 128.000000 2090.000000 128.000000 C 1972.000000 128.000000 1880.333333 94.666667 1815.000000 28.000000 C 1749.666667 -38.666667 1717.000000 -140.000000 1717.000000 -276.000000 C 1717.000000 -354.000000 1726.000000 -442.333333 1744.000000 -541.000000 C 1762.000000 -640.333333 1786.000000 -741.333333 1816.000000 -844.000000 C 1846.000000 -947.333333 1880.666667 -1047.666667 1920.000000 -1145.000000 C 1960.000000 -1243.000000 2001.666667 -1330.666667 2045.000000 -1408.000000 C 2067.000000 -1408.000000 2092.666667 -1404.666667 2122.000000 -1398.000000 C 2151.333333 -1392.000000 2180.000000 -1383.666667 2208.000000 -1373.000000 C 2236.666667 -1363.000000 2262.666667 -1351.666667 2286.000000 -1339.000000 C 2310.000000 -1326.333333 2327.666667 -1314.666667 2339.000000 -1304.000000z "/>
</g></svg>
