<?xml version="1.0" ?>
<svg xmlns="http://www.w3.org/2000/svg" version="1.1" width="600" height="600">
  <defs/>
  <g>
    <path stroke-width="0" fill="rgb(0, 0, 0)" opacity="1.0" d="M 283.8592529296875 295.0455322265625 C 295.089599609375 282.9518737792969 305.735107421875 270.4876403808594 315.7955322265625 257.65277099609375 C 325.8560791015625 244.81793212890625 335.3316650390625 231.61248779296875 344.2222900390625 218.03640747070312 C 353.1910400390625 204.4603271484375 361.8282470703125 190.00650024414062 370.1339111328125 174.67489624023438 C 374.286865234375 167.00909423828125 378.35693359375 159.12384033203125 382.343994140625 151.0191650390625 C 386.3311767578125 142.91448974609375 390.2354736328125 134.59036254882812 394.056884765625 126.04681396484375 C 401.855712890625 126.98309326171875 409.3426513671875 129.0897216796875 416.517578125 132.36669921875 C 423.6923828125 135.6436767578125 429.3856201171875 139.38882446289062 433.5970458984375 143.60208129882812 C 425.3302001953125 153.35498046875 417.453369140625 162.65927124023438 409.966552734375 171.51495361328125 C 402.4796142578125 180.37060546875 395.3826904296875 188.77761840820312 388.6756591796875 196.73602294921875 C 382.046630859375 204.69439697265625 375.690673828125 212.418701171875 369.6075439453125 219.90896606445312 C 363.5244140625 227.39923095703125 357.7142333984375 234.6553955078125 352.1771240234375 241.677490234375 C 341.102783203125 255.72171020507812 330.8082275390625 269.1417236328125 321.293701171875 281.93756103515625 C 311.9351806640625 294.7333984375 302.8104248046875 307.6072998046875 293.9197998046875 320.55914306640625 C 289.396484375 335.6956787109375 285.18505859375 350.9102783203125 281.28564453125 366.202880859375 C 277.3863525390625 381.4954833984375 273.9547119140625 396.163818359375 270.9912109375 410.20806884765625 C 268.0277099609375 424.2523193359375 265.6881103515625 437.2822265625 263.9722900390625 449.29779052734375 C 262.2564697265625 461.1573486328125 261.398681640625 471.37841796875 261.398681640625 479.96099853515625 C 258.1231689453125 479.96099853515625 252.8978271484375 479.2587890625 245.7230224609375 477.8543701171875 C 238.548095703125 476.60595703125 231.2171630859375 475.0455322265625 223.730224609375 473.1729736328125 C 216.243408203125 471.4564208984375 209.38037109375 469.73992919921875 203.141357421875 468.0234375 C 197.0582275390625 466.306884765625 193.470703125 464.824462890625 192.37890625 463.5760498046875 C 197.0582275390625 455.61767578125 201.737548828125 445.86474609375 206.4168701171875 434.3172607421875 C 211.09619140625 422.61376953125 215.6973876953125 410.3641357421875 220.2208251953125 397.5682373046875 C 224.744140625 384.61639404296875 229.033447265625 371.58648681640625 233.0888671875 358.478515625 C 237.30029296875 345.37060546875 241.1995849609375 333.198974609375 244.787109375 321.963623046875 C 241.043701171875 310.4161376953125 237.3587646484375 299.2392578125 233.7322998046875 288.43304443359375 C 230.1058349609375 277.62677001953125 226.537841796875 267.191162109375 223.0283203125 257.1261291503906 C 219.5189208984375 246.98309326171875 216.06787109375 237.32769775390625 212.6754150390625 228.15994262695312 C 209.282958984375 218.9921875 205.948974609375 210.31207275390625 202.6734619140625 202.11962890625 C 196.1224365234375 185.73471069335938 189.8052978515625 171.69049072265625 183.7222900390625 159.98699951171875 C 177.7950439453125 148.12744140625 172.10205078125 139.07672119140625 166.642822265625 132.8348388671875 C 169.6063232421875 131.58645629882812 174.129638671875 130.33810424804688 180.2127685546875 129.0897216796875 C 186.4517822265625 127.685302734375 193.23681640625 126.35891723632812 200.5677490234375 125.11053466796875 C 207.898681640625 123.70611572265625 215.385498046875 122.61380004882812 223.0283203125 121.83355712890625 C 230.671142578125 120.89724731445312 237.5341796875 120.42910766601562 243.6173095703125 120.42910766601562 C 243.6173095703125 127.91937255859375 244.2412109375 137.048095703125 245.489013671875 147.81533813476562 C 246.892822265625 158.42654418945312 248.6865234375 169.81793212890625 250.8702392578125 181.98959350585938 C 253.2098388671875 194.1612548828125 255.861572265625 206.48895263671875 258.8250732421875 218.97268676757812 C 261.78857421875 231.4564208984375 264.752197265625 242.92587280273438 267.7156982421875 253.38101196289062 C 270.67919921875 263.68011474609375 273.5648193359375 272.65277099609375 276.3724365234375 280.299072265625 C 279.3359375 287.7893371582031 281.8316650390625 292.7048034667969 283.8592529296875 295.0455322265625"/>
  </g>
</svg>
