<?xml version="1.0" encoding="utf-8"?>
<svg xmlns="http://www.w3.org/2000/svg" xmlns:ev="http://www.w3.org/2001/xml-events" xmlns:xlink="http://www.w3.org/1999/xlink" version="1.1" baseProfile="full" width="6595.0" height="1538.0" viewBox="259.0 -1408.0 6595.0 1538.0">
<defs/>
<g><path d="M 6214.000000 -662.000000 C 6262.000000 -713.666667 6307.500000 -766.916667 6350.500000 -821.750000 C 6393.500000 -876.583333 6434.000000 -933.000000 6472.000000 -991.000000 C 6510.333333 -1049.000000 6547.250000 -1110.750000 6582.750000 -1176.250000 C 6600.500000 -1209.000000 6617.895833 -1242.687500 6634.937500 -1277.312500 C 6651.979167 -1311.937500 6668.666667 -1347.500000 6685.000000 -1384.000000 C 6718.333333 -1380.000000 6750.333333 -1371.000000 6781.000000 -1357.000000 C 6811.666667 -1343.000000 6836.000000 -1327.000000 6854.000000 -1309.000000 C 6818.666667 -1267.333333 6785.000000 -1227.583333 6753.000000 -1189.750000 C 6721.000000 -1151.916667 6690.666667 -1116.000000 6662.000000 -1082.000000 C 6633.666667 -1048.000000 6606.500000 -1015.000000 6580.500000 -983.000000 C 6554.500000 -951.000000 6529.666667 -920.000000 6506.000000 -890.000000 C 6458.666667 -830.000000 6414.666667 -772.666667 6374.000000 -718.000000 C 6334.000000 -663.333333 6295.000000 -608.333333 6257.000000 -553.000000 C 6237.666667 -488.333333 6219.666667 -423.333333 6203.000000 -358.000000 C 6186.333333 -292.666667 6171.666667 -230.000000 6159.000000 -170.000000 C 6146.333333 -110.000000 6136.333333 -54.333333 6129.000000 -3.000000 C 6121.666667 47.666667 6118.000000 91.333333 6118.000000 128.000000 C 6104.000000 128.000000 6081.666667 125.000000 6051.000000 119.000000 C 6020.333333 113.666667 5989.000000 107.000000 5957.000000 99.000000 C 5925.000000 91.666667 5895.666667 84.333333 5869.000000 77.000000 C 5843.000000 69.666667 5827.666667 63.333333 5823.000000 58.000000 C 5843.000000 24.000000 5863.000000 -17.666667 5883.000000 -67.000000 C 5903.000000 -117.000000 5922.666667 -169.333333 5942.000000 -224.000000 C 5961.333333 -279.333333 5979.666667 -335.000000 5997.000000 -391.000000 C 6015.000000 -447.000000 6031.666667 -499.000000 6047.000000 -547.000000 C 6031.000000 -596.333333 6015.250000 -644.083333 5999.750000 -690.250000 C 5984.250000 -736.416667 5969.000000 -781.000000 5954.000000 -824.000000 C 5939.000000 -867.333333 5924.250000 -908.583333 5909.750000 -947.750000 C 5895.250000 -986.916667 5881.000000 -1024.000000 5867.000000 -1059.000000 C 5839.000000 -1129.000000 5812.000000 -1189.000000 5786.000000 -1239.000000 C 5760.666667 -1289.666667 5736.333333 -1328.333333 5713.000000 -1355.000000 C 5725.666667 -1360.333333 5745.000000 -1365.666667 5771.000000 -1371.000000 C 5797.666667 -1377.000000 5826.666667 -1382.666667 5858.000000 -1388.000000 C 5889.333333 -1394.000000 5921.333333 -1398.666667 5954.000000 -1402.000000 C 5986.666667 -1406.000000 6016.000000 -1408.000000 6042.000000 -1408.000000 C 6042.000000 -1376.000000 6044.666667 -1337.000000 6050.000000 -1291.000000 C 6056.000000 -1245.666667 6063.666667 -1197.000000 6073.000000 -1145.000000 C 6083.000000 -1093.000000 6094.333333 -1040.333333 6107.000000 -987.000000 C 6119.666667 -933.666667 6132.333333 -884.666667 6145.000000 -840.000000 C 6157.666667 -796.000000 6170.000000 -757.666667 6182.000000 -725.000000 C 6194.666667 -693.000000 6205.333333 -672.000000 6214.000000 -662.000000z "/>
</g></svg>
