<?xml version="1.0" encoding="utf-8"?>
<svg xmlns="http://www.w3.org/2000/svg" xmlns:ev="http://www.w3.org/2001/xml-events" xmlns:xlink="http://www.w3.org/1999/xlink" version="1.1" baseProfile="full" width="6595.0" height="1538.0" viewBox="259.0 -1408.0 6595.0 1538.0">
<defs/>
<g><path d="M 1517.000000 -1053.000000 C 1517.000000 -971.666667 1495.000000 -899.333333 1451.000000 -836.000000 C 1407.666667 -772.666667 1348.333333 -720.000000 1273.000000 -678.000000 C 1321.666667 -646.000000 1360.333333 -606.666667 1389.000000 -560.000000 C 1417.666667 -514.000000 1432.000000 -463.333333 1432.000000 -408.000000 C 1432.000000 -341.333333 1411.333333 -275.666667 1370.000000 -211.000000 C 1328.666667 -146.333333 1273.333333 -89.000000 1204.000000 -39.000000 C 1134.666667 11.000000 1055.666667 51.333333 967.000000 82.000000 C 879.000000 112.666667 789.000000 128.000000 697.000000 128.000000 C 597.000000 128.000000 509.666667 108.666667 435.000000 70.000000 C 360.333333 31.333333 301.666667 -23.333333 259.000000 -94.000000 C 271.666667 -131.333333 288.666667 -177.666667 310.000000 -233.000000 C 331.333333 -289.000000 354.666667 -348.000000 380.000000 -410.000000 C 406.000000 -472.000000 432.000000 -533.666667 458.000000 -595.000000 C 484.000000 -656.333333 508.666667 -711.333333 532.000000 -760.000000 C 580.666667 -866.666667 624.000000 -955.000000 662.000000 -1025.000000 C 700.666667 -1095.000000 736.000000 -1150.666667 768.000000 -1192.000000 C 697.333333 -1169.333333 633.333333 -1144.000000 576.000000 -1116.000000 C 518.666667 -1088.000000 476.333333 -1060.666667 449.000000 -1034.000000 C 437.666667 -1042.000000 426.000000 -1053.666667 414.000000 -1069.000000 C 402.000000 -1085.000000 390.333333 -1102.333333 379.000000 -1121.000000 C 368.333333 -1140.333333 359.333333 -1159.666667 352.000000 -1179.000000 C 345.333333 -1199.000000 341.333333 -1217.000000 340.000000 -1233.000000 C 373.333333 -1256.333333 416.333333 -1278.666667 469.000000 -1300.000000 C 522.333333 -1322.000000 580.333333 -1340.666667 643.000000 -1356.000000 C 705.666667 -1372.000000 770.000000 -1384.666667 836.000000 -1394.000000 C 902.000000 -1403.333333 965.000000 -1408.000000 1025.000000 -1408.000000 C 1179.000000 -1408.000000 1299.333333 -1376.666667 1386.000000 -1314.000000 C 1473.333333 -1251.333333 1517.000000 -1164.333333 1517.000000 -1053.000000z M 785.000000 -587.000000 C 761.000000 -598.333333 738.666667 -615.333333 718.000000 -638.000000 C 688.666667 -576.666667 660.666667 -516.666667 634.000000 -458.000000 C 608.000000 -399.333333 584.666667 -345.000000 564.000000 -295.000000 C 544.000000 -245.000000 527.333333 -201.333333 514.000000 -164.000000 C 501.333333 -126.666667 494.333333 -99.666667 493.000000 -83.000000 C 511.000000 -73.666667 532.333333 -66.333333 557.000000 -61.000000 C 582.333333 -56.333333 613.666667 -54.000000 651.000000 -54.000000 C 737.666667 -54.000000 820.666667 -65.333333 900.000000 -88.000000 C 980.000000 -110.666667 1050.000000 -141.333333 1110.000000 -180.000000 C 1170.000000 -219.333333 1218.000000 -264.000000 1254.000000 -314.000000 C 1290.000000 -364.666667 1308.000000 -417.666667 1308.000000 -473.000000 C 1308.000000 -552.333333 1271.333333 -609.333333 1198.000000 -644.000000 C 1098.000000 -603.333333 985.333333 -583.000000 860.000000 -583.000000 C 842.000000 -583.000000 828.000000 -583.000000 818.000000 -583.000000 C 808.666667 -583.000000 797.666667 -584.333333 785.000000 -587.000000z M 1158.000000 -1270.000000 C 1130.666667 -1270.000000 1102.000000 -1268.000000 1072.000000 -1264.000000 C 1042.000000 -1260.000000 1010.333333 -1253.666667 977.000000 -1245.000000 C 982.333333 -1239.666667 986.666667 -1234.000000 990.000000 -1228.000000 C 993.333333 -1222.666667 996.000000 -1217.000000 998.000000 -1211.000000 C 986.666667 -1195.000000 972.666667 -1171.666667 956.000000 -1141.000000 C 939.333333 -1111.000000 920.666667 -1076.000000 900.000000 -1036.000000 C 880.000000 -996.000000 858.666667 -951.333333 836.000000 -902.000000 C 814.000000 -853.333333 791.333333 -803.333333 768.000000 -752.000000 C 790.000000 -756.666667 816.666667 -760.333333 848.000000 -763.000000 C 879.333333 -766.333333 910.333333 -768.000000 941.000000 -768.000000 C 957.666667 -768.000000 974.000000 -767.333333 990.000000 -766.000000 C 1006.000000 -765.333333 1021.666667 -764.000000 1037.000000 -762.000000 C 1098.333333 -772.666667 1153.666667 -788.333333 1203.000000 -809.000000 C 1252.333333 -829.666667 1294.666667 -853.333333 1330.000000 -880.000000 C 1366.000000 -907.333333 1393.666667 -937.666667 1413.000000 -971.000000 C 1432.333333 -1004.333333 1442.000000 -1039.666667 1442.000000 -1077.000000 C 1442.000000 -1140.333333 1417.666667 -1188.333333 1369.000000 -1221.000000 C 1320.333333 -1253.666667 1250.000000 -1270.000000 1158.000000 -1270.000000z "/>
</g></svg>
