<?xml version="1.0" encoding="utf-8"?>
<svg xmlns="http://www.w3.org/2000/svg" xmlns:ev="http://www.w3.org/2001/xml-events" xmlns:xlink="http://www.w3.org/1999/xlink" version="1.1" baseProfile="full" width="6595.0" height="1538.0" viewBox="259.0 -1408.0 6595.0 1538.0">
<defs/>
<g><path d="M 4397.000000 130.000000 C 4323.666667 108.666667 4274.333333 88.000000 4249.000000 68.000000 C 4223.666667 48.666667 4211.000000 22.000000 4211.000000 -12.000000 C 4211.000000 -50.000000 4219.666667 -103.333333 4237.000000 -172.000000 C 4255.000000 -240.666667 4278.333333 -317.000000 4307.000000 -401.000000 C 4336.333333 -485.666667 4369.333333 -574.000000 4406.000000 -666.000000 C 4443.333333 -758.000000 4481.000000 -846.000000 4519.000000 -930.000000 C 4557.666667 -1014.666667 4595.333333 -1092.000000 4632.000000 -1162.000000 C 4668.666667 -1232.000000 4701.000000 -1286.666667 4729.000000 -1326.000000 C 4724.666667 -1353.333333 4720.333333 -1380.666667 4716.000000 -1408.000000 C 4733.333333 -1408.000000 4758.000000 -1403.333333 4790.000000 -1394.000000 C 4822.000000 -1385.333333 4854.333333 -1374.666667 4887.000000 -1362.000000 C 4919.666667 -1349.333333 4948.333333 -1336.000000 4973.000000 -1322.000000 C 4998.333333 -1308.666667 5012.333333 -1297.666667 5015.000000 -1289.000000 C 5008.333333 -1259.000000 5003.000000 -1213.333333 4999.000000 -1152.000000 C 4995.666667 -1090.666667 4994.000000 -1025.333333 4994.000000 -956.000000 C 4994.000000 -818.666667 4999.333333 -684.000000 5010.000000 -552.000000 C 5021.333333 -420.000000 5046.666667 -286.000000 5086.000000 -150.000000 C 5106.666667 -250.666667 5128.666667 -351.000000 5152.000000 -451.000000 C 5176.000000 -551.666667 5200.666667 -647.666667 5226.000000 -739.000000 C 5252.000000 -830.333333 5277.666667 -915.000000 5303.000000 -993.000000 C 5328.333333 -1071.666667 5352.666667 -1140.333333 5376.000000 -1199.000000 C 5400.000000 -1257.666667 5422.333333 -1303.666667 5443.000000 -1337.000000 C 5463.666667 -1370.333333 5482.333333 -1388.333333 5499.000000 -1391.000000 C 5513.000000 -1388.333333 5528.333333 -1383.000000 5545.000000 -1375.000000 C 5561.666667 -1367.000000 5577.666667 -1357.000000 5593.000000 -1345.000000 C 5608.333333 -1333.666667 5622.333333 -1321.000000 5635.000000 -1307.000000 C 5647.666667 -1293.666667 5658.000000 -1280.000000 5666.000000 -1266.000000 C 5624.666667 -1249.333333 5584.000000 -1210.666667 5544.000000 -1150.000000 C 5504.000000 -1090.000000 5465.666667 -1016.666667 5429.000000 -930.000000 C 5392.333333 -844.000000 5358.333333 -750.333333 5327.000000 -649.000000 C 5295.666667 -548.333333 5268.000000 -449.000000 5244.000000 -351.000000 C 5220.666667 -253.666667 5202.333333 -163.333333 5189.000000 -80.000000 C 5175.666667 3.333333 5168.333333 70.000000 5167.000000 120.000000 C 5167.000000 122.666667 5167.666667 124.666667 5169.000000 126.000000 C 5165.000000 127.333333 5160.666667 128.000000 5156.000000 128.000000 C 5151.333333 128.000000 5147.333333 128.000000 5144.000000 128.000000 C 5084.666667 128.000000 5032.333333 120.666667 4987.000000 106.000000 C 4941.666667 92.000000 4912.000000 71.666667 4898.000000 45.000000 C 4871.333333 -61.000000 4849.000000 -163.000000 4831.000000 -261.000000 C 4813.000000 -359.666667 4797.666667 -458.000000 4785.000000 -556.000000 C 4773.000000 -654.666667 4763.333333 -754.000000 4756.000000 -854.000000 C 4749.333333 -954.666667 4744.000000 -1059.666667 4740.000000 -1169.000000 C 4716.000000 -1131.000000 4690.333333 -1081.333333 4663.000000 -1020.000000 C 4636.333333 -959.333333 4610.333333 -892.333333 4585.000000 -819.000000 C 4559.666667 -746.333333 4535.000000 -669.666667 4511.000000 -589.000000 C 4487.666667 -508.333333 4467.000000 -429.333333 4449.000000 -352.000000 C 4431.000000 -275.333333 4416.666667 -202.666667 4406.000000 -134.000000 C 4396.000000 -65.333333 4391.000000 -5.666667 4391.000000 45.000000 C 4391.000000 71.666667 4391.333333 90.666667 4392.000000 102.000000 C 4392.666667 113.333333 4394.333333 122.666667 4397.000000 130.000000z "/>
</g></svg>
