<?xml version="1.0" ?>
<svg xmlns="http://www.w3.org/2000/svg" version="1.1" width="600" height="600">
  <defs/>
  <g>
    <path stroke-width="0" fill="rgb(0, 0, 0)" opacity="1.0" d="M 173.74462890625 480.42913818359375 C 156.587158203125 475.4356689453125 145.044921875 470.59814453125 139.117919921875 465.916748046875 C 133.190673828125 461.39141845703125 130.2271728515625 455.1495361328125 130.2271728515625 447.191162109375 C 130.2271728515625 438.2965087890625 132.2548828125 425.812744140625 136.310302734375 409.73992919921875 C 140.5216064453125 393.6671142578125 145.9808349609375 375.79974365234375 152.687744140625 356.1378173828125 C 159.55078125 336.31988525390625 167.271728515625 315.6436767578125 175.850341796875 294.1092224121094 C 184.5850830078125 272.57476806640625 193.397705078125 251.97659301757812 202.2884521484375 232.314697265625 C 211.3350830078125 212.49673461914062 220.1478271484375 194.39532470703125 228.7264404296875 178.01040649414062 C 237.30517578125 161.62548828125 244.8701171875 148.82965087890625 251.421142578125 139.62289428710938 C 250.4072265625 133.22494506835938 249.3934326171875 126.82705688476562 248.3795166015625 120.42910766601562 C 252.4349365234375 120.42910766601562 258.2060546875 121.52145385742188 265.6929931640625 123.70611572265625 C 273.1798095703125 125.73471069335938 280.7447509765625 128.23147583007812 288.3875732421875 131.19635009765625 C 296.0303955078125 134.16122436523438 302.7374267578125 137.28216552734375 308.508544921875 140.55917358398438 C 314.435791015625 143.68011474609375 317.7113037109375 146.2548828125 318.3350830078125 148.28347778320312 C 316.775390625 155.30557250976562 315.527587890625 165.99478149414062 314.5916748046875 180.35110473632812 C 313.811767578125 194.7073974609375 313.421875 210.0 313.421875 226.2288818359375 C 313.421875 258.37451171875 314.669677734375 289.8959655761719 317.165283203125 320.793212890625 C 319.81689453125 351.69049072265625 325.7440185546875 383.055908203125 334.9466552734375 414.88946533203125 C 339.7818603515625 391.326416015625 344.9290771484375 367.84130859375 350.3883056640625 344.434326171875 C 356.0035400390625 320.8712158203125 361.774658203125 298.4005126953125 367.7017822265625 277.0220947265625 C 373.784912109375 255.6436767578125 379.7899169921875 235.82574462890625 385.717041015625 217.56826782226562 C 391.644287109375 199.15475463867188 397.3372802734375 183.0819091796875 402.7965087890625 169.34979248046875 C 408.4117431640625 155.61767578125 413.636962890625 144.8504638671875 418.47216796875 137.048095703125 C 423.3074951171875 129.24575805664062 427.6748046875 125.03250122070312 431.57421875 124.4083251953125 C 434.8497314453125 125.03250122070312 438.437255859375 126.2808837890625 442.336669921875 128.1534423828125 C 446.2359619140625 130.0260009765625 449.9794921875 132.36669921875 453.5670166015625 135.175537109375 C 457.1544189453125 137.82833862304688 460.429931640625 140.79324340820312 463.3935546875 144.07022094726562 C 466.3570556640625 147.191162109375 468.774658203125 150.39010620117188 470.6463623046875 153.66708374023438 C 460.975830078125 157.56826782226562 451.4613037109375 166.61898803710938 442.1026611328125 180.81924438476562 C 432.7440185546875 194.86346435546875 423.775390625 212.02859497070312 415.1966552734375 232.314697265625 C 406.6180419921875 252.44473266601562 398.6632080078125 274.36932373046875 391.332275390625 298.08843994140625 C 384.0013427734375 321.6514892578125 377.5283203125 344.9024658203125 371.9130859375 367.84130859375 C 366.453857421875 390.6241455078125 362.1646728515625 411.7685546875 359.0450439453125 431.2744140625 C 355.925537109375 450.7802734375 354.2098388671875 466.3848876953125 353.8978271484375 478.08843994140625 C 353.8978271484375 478.712646484375 354.0537109375 479.1807861328125 354.36572265625 479.49285888671875 C 353.429931640625 479.804931640625 352.416015625 479.96099853515625 351.32421875 479.96099853515625 C 350.232421875 479.96099853515625 349.2965087890625 479.96099853515625 348.5166015625 479.96099853515625 C 334.6346435546875 479.96099853515625 322.3905029296875 478.2445068359375 311.7840576171875 474.8114013671875 C 301.1776123046875 471.534423828125 294.2366943359375 466.7750244140625 290.961181640625 460.533203125 C 284.72216796875 435.7216796875 279.4969482421875 411.8465576171875 275.2855224609375 388.90765380859375 C 271.07421875 365.812744140625 267.4866943359375 342.79583740234375 264.523193359375 319.85693359375 C 261.715576171875 296.76202392578125 259.4539794921875 273.51104736328125 257.7381591796875 250.10400390625 C 256.178466796875 226.54095458984375 254.9305419921875 201.96359252929688 253.9947509765625 176.37191772460938 C 248.3795166015625 185.26657104492188 242.37451171875 196.89205932617188 235.9793701171875 211.24835205078125 C 229.7403564453125 225.44863891601562 223.6572265625 241.13134765625 217.7301025390625 258.2964782714844 C 211.802978515625 275.30560302734375 206.0318603515625 293.2509765625 200.416748046875 312.13262939453125 C 194.95751953125 331.0142822265625 190.1221923828125 349.505859375 185.910888671875 367.6072998046875 C 181.699462890625 385.55267333984375 178.345947265625 402.561767578125 175.850341796875 418.63458251953125 C 173.5107421875 434.7073974609375 172.3408203125 448.673583984375 172.3408203125 460.533203125 C 172.3408203125 466.7750244140625 172.4189453125 471.22235107421875 172.5748291015625 473.8751220703125 C 172.7308349609375 476.5279541015625 173.120849609375 478.712646484375 173.74462890625 480.42913818359375"/>
  </g>
</svg>
